<?xml version="1.0" encoding="UTF-8"?>
<svg id="SM_Icons" data-name="SM Icons" xmlns="http://www.w3.org/2000/svg" width="400" height="400" viewBox="0 0 400 400">
  <polyline points="101.796 -21.381 98.986 -9.234 99.265 2.915 101.245 15.063 100.195 27.211 101.178 39.361 98.365 51.509 100.952 63.66 98.057 75.808 101.768 87.959 101.57 100.107 102.33 112.257 100.757 124.407 99.999 136.557 98.09 148.707 99.332 160.858 98.741 173.009 99.459 185.159 97.883 197.309 102.375 209.455 102.284 221.605 101.752 233.751 98.161 245.901 99.508 258.053 98.528 270.203 98.196 282.354 98.81 294.505 99.45 306.659 99.7 318.81 100.312 330.963 101.883 343.116 98.481 355.265 98.918 367.418 102.392 379.574 97.82 391.727 100.763 403.888 102.493 416.049" style="fill: none; stroke: #f9c677; stroke-linecap: round; stroke-linejoin: round; stroke-width: 11.429px;"/>
  <polyline points="303.381 -26.883 306.857 -14.914 307.123 -2.947 307.072 9.023 306.076 20.991 306.372 32.959 307.371 44.93 306.884 56.898 305.619 68.869 304.287 80.838 302.637 92.809 306.762 104.778 306.673 116.749 306.15 128.719 302.594 140.689 303.544 152.659 303.112 164.631 304.306 176.602 304.494 188.572 304.72 200.543 303.958 212.51 307.344 224.48 305.73 236.447 302.608 248.417 304.169 260.389 303.567 272.36 306.019 284.33 307.013 296.302 305.449 308.276 305.532 320.248 305.614 332.221 304.654 344.194 304.706 356.164 305.186 368.137 303.441 380.113 306.138 392.086 305.347 404.068 306.627 416.049" style="fill: none; stroke: #f9c677; stroke-linecap: round; stroke-linejoin: round; stroke-width: 11.429px;"/>
  <polyline points="424.212 100.404 412.091 100.266 399.967 100.311 387.844 99.23 375.722 103.247 363.597 101.222 351.475 102.165 339.349 99.116 327.227 101.9 315.101 100.592 302.978 100.319 290.854 99.022 278.729 100.27 266.605 101.384 254.48 101.489 242.354 102.24 230.229 103.562 218.105 102.496 205.98 103.05 193.859 99.893 181.735 103.055 169.614 100.51 157.49 100.092 145.363 102.708 133.239 99.059 121.114 102.422 108.988 100.717 96.86 102.253 84.734 100.317 72.606 101.983 60.479 99.126 48.355 100.54 36.228 100.656 24.097 99.798 11.97 103.514 -.165 99.408 -12.301 101.139" style="fill: none; stroke: #f9c677; stroke-linecap: round; stroke-linejoin: round; stroke-width: 11.429px;"/>
  <polyline points="-12.301 308.95 -.18 309.588 11.944 307.419 24.067 307.258 36.189 307.241 48.314 310.684 60.436 309.38 72.562 310.637 84.684 309.64 96.81 310.592 108.933 306.935 121.057 310.867 133.182 307.513 145.306 309.021 157.431 308.631 169.557 306.105 181.682 308.545 193.806 308.467 205.931 306.36 218.052 306.103 230.176 309.747 242.297 307.853 254.421 310.075 266.548 308.023 278.672 307.568 290.797 310.009 302.923 307.948 315.051 307.274 327.177 306.205 339.305 307.236 351.432 306.843 363.556 306.356 375.683 307.688 387.814 306.668 399.941 310.427 412.076 307.165 424.212 309.859" style="fill: none; stroke: #f9c677; stroke-linecap: round; stroke-linejoin: round; stroke-width: 11.429px;"/>
</svg>