<?xml version="1.0" encoding="UTF-8"?>
<svg id="SM_Icons" data-name="SM Icons" xmlns="http://www.w3.org/2000/svg" width="700" height="700" viewBox="0 0 700 700">
  <polygon points="111.437 526.152 110.178 513.761 110.075 501.779 109.693 489.835 108.474 477.998 103.749 466.618 102.6 454.773 103.77 442.625 100.948 430.996 100.829 419.016 100.597 407.051 97.662 395.44 94.277 383.889 91.213 372.293 93.083 360.058 92.18 348.18 90.284 336.429 89.708 324.509 84.563 313.183 86.173 300.976 83.309 289.35 80.367 277.736 79.696 265.825 79.15 253.898 75.234 242.413 73.733 230.611 76.108 218.3 71.245 206.935 70.068 195.082 69.525 183.956 77.908 191.592 89.391 196.036 98.164 204.525 107.739 211.814 117.906 218.224 129.504 222.492 138.023 231.353 148.414 237.427 158.594 243.824 168.375 250.809 178.213 257.724 189.157 265.244 194.734 253.322 202.34 244.223 205.909 232.543 214.84 224.291 221.292 214.456 225.217 203.003 234.459 194.942 240.818 185.044 246.223 174.526 252.338 165.749 259.866 173.011 267.584 181.661 276.467 189.119 286.764 195.123 293.193 205.094 300.852 213.803 308.586 222.435 318.295 229.044 327.343 236.338 333.559 246.533 343.648 252.764 351.587 261.741 360.616 253.809 368.431 245.168 377.35 237.654 383.469 227.276 394.145 221.568 403.094 214.091 410.846 205.388 417.304 195.353 426.275 187.888 434.279 179.439 443.811 172.542 451.185 165.777 458.267 173.245 462.114 184.546 469.213 193.903 474.474 204.356 483.304 212.676 488.103 223.408 494.867 232.971 497.807 244.816 505.213 254 511.251 264.462 521.569 257.493 531.37 250.42 540.984 243.05 553.454 240.193 562.132 231.343 571.743 223.975 582.86 218.984 591.728 210.436 602.366 204.675 613.565 199.808 623.479 192.895 634.08 185.865 631.527 198.275 631.185 210.304 629.431 222.158 627.324 233.971 628.769 246.216 626.404 257.997 624.293 269.81 623.888 281.831 618.227 293.212 617.064 305.14 618.226 317.351 615.985 329.144 615.301 341.129 613.425 352.967 614.338 365.147 609.316 376.607 610.375 388.805 606.663 400.423 605.46 412.348 602.542 424.066 602.093 436.082 603.096 448.276 598.747 459.819 600.937 472.153 596.409 483.674 595.284 495.613 594.947 507.644 593.988 519.607 592 531.506 580.113 534.289 569.08 539.043 557.745 542.91 546.002 545.443 535.267 551.421 522.588 550.513 511.505 555.374 499.998 558.702 488.546 562.35 476.298 562.323 464.503 564.237 452.859 566.959 441.018 568.553 429.255 570.67 417.653 574.384 405.73 575.669 393.763 576.453 381.663 574.546 369.862 579.162 357.823 576.743 345.845 577.699 333.9 576.367 321.897 576.717 310.182 572.923 298.07 574.194 286.097 573.477 274.076 572.869 262.51 569.267 250.922 566.149 238.909 565.211 226.982 563.625 215.037 561.937 203.777 557.547 192.76 552.492 181.323 549.01 169.061 548.023 158.243 542.58 146.694 539.292 136.699 531.856 124.048 531.36 111.437 526.152" style="fill: #fff;"/>
  <polygon points="111.437 526.152 110.178 513.761 110.075 501.779 109.693 489.835 108.474 477.998 103.749 466.618 102.6 454.773 103.77 442.625 100.948 430.996 100.829 419.016 100.597 407.051 97.662 395.44 94.277 383.889 91.213 372.293 93.083 360.058 92.18 348.18 90.284 336.429 89.708 324.509 84.563 313.183 86.173 300.976 83.309 289.35 80.367 277.736 79.696 265.825 79.15 253.898 75.234 242.413 73.733 230.611 76.108 218.3 71.245 206.935 70.068 195.082 69.525 183.956 77.908 191.592 89.391 196.036 98.164 204.525 107.739 211.814 117.906 218.224 129.504 222.492 138.023 231.353 148.414 237.427 158.594 243.824 168.375 250.809 178.213 257.724 189.157 265.244 194.734 253.322 202.34 244.223 205.909 232.543 214.84 224.291 221.292 214.456 225.217 203.003 234.459 194.942 240.818 185.044 246.223 174.526 252.338 165.749 259.866 173.011 267.584 181.661 276.467 189.119 286.764 195.123 293.193 205.094 300.852 213.803 308.586 222.435 318.295 229.044 327.343 236.338 333.559 246.533 343.648 252.764 351.587 261.741 360.616 253.809 368.431 245.168 377.35 237.654 383.469 227.276 394.145 221.568 403.094 214.091 410.846 205.388 417.304 195.353 426.275 187.888 434.279 179.439 443.811 172.542 451.185 165.777 458.267 173.245 462.114 184.546 469.213 193.903 474.474 204.356 483.304 212.676 488.103 223.408 494.867 232.971 497.807 244.816 505.213 254 511.251 264.462 521.569 257.493 531.37 250.42 540.984 243.05 553.454 240.193 562.132 231.343 571.743 223.975 582.86 218.984 591.728 210.436 602.366 204.675 613.565 199.808 623.479 192.895 634.08 185.865 631.527 198.275 631.185 210.304 629.431 222.158 627.324 233.971 628.769 246.216 626.404 257.997 624.293 269.81 623.888 281.831 618.227 293.212 617.064 305.14 618.226 317.351 615.985 329.144 615.301 341.129 613.425 352.967 614.338 365.147 609.316 376.607 610.375 388.805 606.663 400.423 605.46 412.348 602.542 424.066 602.093 436.082 603.096 448.276 598.747 459.819 600.937 472.153 596.409 483.674 595.284 495.613 594.947 507.644 593.988 519.607 592 531.506 580.113 534.289 569.08 539.043 557.745 542.91 546.002 545.443 535.267 551.421 522.588 550.513 511.505 555.374 499.998 558.702 488.546 562.35 476.298 562.323 464.503 564.237 452.859 566.959 441.018 568.553 429.255 570.67 417.653 574.384 405.73 575.669 393.763 576.453 381.663 574.546 369.862 579.162 357.823 576.743 345.845 577.699 333.9 576.367 321.897 576.717 310.182 572.923 298.07 574.194 286.097 573.477 274.076 572.869 262.51 569.267 250.922 566.149 238.909 565.211 226.982 563.625 215.037 561.937 203.777 557.547 192.76 552.492 181.323 549.01 169.061 548.023 158.243 542.58 146.694 539.292 136.699 531.856 124.048 531.36 111.437 526.152" style="fill: none; stroke: #000; stroke-linecap: round; stroke-linejoin: round; stroke-width: 45px;"/>
</svg>