<?xml version="1.0" encoding="UTF-8"?>
<svg id="Title" xmlns="http://www.w3.org/2000/svg" width="700" height="700" viewBox="0 0 700 700">
  <path d="M231.022,557.753c-.268.506,2.587,2.657,2.315,3.156-.274.503-3.517-.664-3.794-.167-.279.5,5.636,4.487,5.354,4.981-.285.498-5.902-2.097-6.19-1.606-.29.495,5.515,4.609,5.221,5.098-.296.492-2.382-.074-2.681.411-.301.488,2.095,2.701,1.79,3.183-.307.485.089,1.489-.221,1.967-.312.481-7.092-3.262-7.407-2.787-.318.477-2.972-.671-3.293-.2-.323.474.465,1.652.139,2.119-.329.47-2.391-.362-2.723.101-.335.466,3.261,3.74,2.923,4.198-.34.461-2.319-.334-2.662.12-.346.457,5.473,5.658,5.124,6.107-.352.452-6.866-3.937-7.221-3.493-.358.448,5.473,5.919,5.112,6.359-.363.443-3.756-1.582-4.123-1.147-.369.438,1.958,3.23,1.586,3.66-.375.433-8.185-5.672-8.563-5.247-.381.428,5.518,6.507,5.133,6.926-.387.422-3.964-2.101-4.354-1.687-.393.417.755,2.303.359,2.711-.399.411-3.388-1.746-3.79-1.344-.404.405-1.37.176-1.778.572-.41.399,3.889,5.711,3.476,6.101-.416.393-4.368-3.003-4.788-2.619-.422.386-2.204-.804-2.63-.426-.428.38-1.63-.236-2.061.135-.434.373-.684.837-1.121,1.201-.439.366,2.223,4.449,1.78,4.806-.445.359.69,2.737.242,3.087-.451.352-.463,1.348-.917,1.691-.456.344-3.206-2.368-3.666-2.033s.127,2.147-.338,2.475-1.817-.606-2.288-.287,1.77,4.778,1.294,5.09-1.276.267-1.757.571-4.322-4.784-4.809-4.489-.207,1.837-.698,2.124.373,2.978-.124,3.256-3.911-4.795-4.413-4.526-.824.738-1.33.998,2.831,8.196,2.32,8.447-3.521-4.61-4.036-4.369-3.107-4.19-3.627-3.958,2.773,9.155,2.249,9.378-1.084.537-1.612.75-3.781-6.503-4.313-6.299.292,3.955-.244,4.149.171,4.038-.368,4.222-.942,1.033-1.485,1.207-2.421-3.812-2.967-3.649.252,5.153-.297,5.306-3.559-8.795-4.111-8.652.503,6.658-.051,6.79-2.932-7.825-3.489-7.702-.003,5.225-.562,5.337-.508,3.506-1.069,3.608-2.378-7.265-2.941-7.174-.913,1.005-1.477,1.086-.501,4.588-1.067,4.659-1.51-3.409-2.077-3.349-.284,9.208-.852,9.257-1.895-9.445-2.465-9.406-.678,7.871-1.248,7.899-1.354-4.382-1.925-4.364-1.151-1.291-1.722-1.283-1.126,4.59-1.697,4.588-1.191-.003-1.761-.016-.956-6.027-1.526-6.049-1.575,8.643-2.145,8.61-.949-3.921-1.519-3.963-.617-6.106-1.185-6.158-1.765,6.397-2.332,6.335-1.318,1.056-1.884.985-1.425,1.524-1.99,1.443-.077-7.294-.641-7.383-.683-2.49-1.246-2.589-2.915,9.475-3.476,9.367.426-8.009-.133-8.126-.406-3.186-.963-3.313-1.15.278-1.705.143-3.17,8.004-3.724,7.86,1.268-9.09.717-9.242c-.548-.151-2.922,6.251-3.47,6.091s-.902-1-1.447-1.168.904-6.5.361-6.676-4.139,8.889-4.68,8.705.575-5.163.037-5.355-.739-1.225-1.275-1.425c-.533-.199-1.685,1.278-2.217,1.07s.366-3.92-.164-4.135-2.204,2.445-2.731,2.223c-.524-.221-1.199-.061-1.723-.29s-2.668,3.147-3.19,2.911c-.519-.235,2.476-8.063,1.958-8.306-.523-.246-1.773,1.303-2.282,1.044-.515-.262-1.976,1.414-2.477,1.138-.506-.279-4.281,5.017-4.772,4.725-.496-.295-.436-1.791-.918-2.099-.486-.311,3.382-7.198,2.911-7.522-.475-.327-2.103,1.122-2.564.782-.464-.342-1.733.424-2.183.068-.452-.357,1.886-4.001,1.448-4.371-.44-.372-7.056,6.316-7.481,5.932s-.319-1.554-.731-1.952,6.064-7.677,5.665-8.088-4.971,3.228-5.357,2.804,2.234-3.43,1.861-3.866-1.647.005-2.007-.442,1.813-2.716,1.466-3.174-8.638,4.956-8.971,4.488,4.837-4.771,4.517-5.248,1.391-2.155,1.084-2.64-6.459,2.665-6.753,2.171,3.602-3.397,3.321-3.898-4.995,1.425-5.264.917,6.229-4.447,5.973-4.961-1.587-.384-1.831-.904-1.146-.646-1.379-1.172-.073-1.134-.294-1.664.266-1.253.056-1.788-9.631,2.427-9.83,1.888,3.405-2.508,3.216-3.051-.095-1.203-.273-1.75-.383-1.103-.551-1.653-3.905-.094-4.063-.647,7.332-3.241,7.183-3.796-7.579.771-7.719.214,7.552-3.019,7.421-3.578-8.389.711-8.511.15,3.154-1.881,3.04-2.444-3.318-.563-3.424-1.128,3.324-1.803,3.226-2.369-4.932-.386-5.022-.953,6.525-2.189,6.442-2.756-2.918-.754-2.994-1.323,2.513-1.482,2.444-2.052-1.054-1.029-1.116-1.599-2.158-.944-2.213-1.515,4.337-1.549,4.288-2.12-5.9-.683-5.943-1.255c-.043-.575,4.758-1.494,4.721-2.066-.037-.575-6.013-.811-6.044-1.384-.031-.576,2.934-1.325,2.909-1.897-.025-.576-3.838-1.034-3.858-1.607-.02-.577.46-1.212.446-1.784-.014-.577,10.002-1.345,9.993-1.918-.009-.577-2.31-1.088-2.313-1.66-.003-.578,1.419-1.119,1.421-1.691.002-.578-.307-1.116-.3-1.687.007-.578-.826-1.133-.814-1.703.012-.578-4.957-1.267-4.941-1.837.017-.578-1.534-1.223-1.513-1.792.022-.579,1.042-1.132,1.068-1.701.026-.579-3.565-1.364-3.535-1.932.031-.58,3.631-.979,3.666-1.546.036-.58,5.025-.826,5.064-1.392.04-.581.504-1.099.547-1.665.045-.581-7.75-1.799-7.702-2.363.05-.582,8.047-.45,8.1-1.013.054-.582.39-1.1.447-1.661.059-.583-1.13-1.261-1.069-1.82.063-.583.342-1.11.406-1.666.068-.585,1.281-.992,1.35-1.546.073-.587-7.51-2.145-7.436-2.696.078-.59,5.35-.456,5.427-1.002.084-.596,3.153-.705,3.234-1.245.091-.603-6.953-2.271-6.869-2.802.099-.616-.994-1.415-.907-1.927.111-.654,3.393-.689,3.479-1.161.2-1.095-2.013-1.321-1.838-2.159" style="fill: none; stroke: #000; stroke-linecap: round; stroke-linejoin: round; stroke-width: 40px;"/>
  <g>
    <path d="M219.775,389.821c.524-.049-.085-5.304.532-5.322.537-.015,1.162,4.252,1.767,4.261.544.008,1.224-3.393,1.821-3.365.548.025,1.179-.146,1.77-.104.551.039.71,5.107,1.297,5.16.553.05,1.723-5.99,2.308-5.927.555.059.419,6.314,1.001,6.385.555.067,1.421-2.377,2-2.3.556.074,1.917-5.381,2.495-5.297.556.08.912,1.845,1.488,1.934.556.086.951,1.395,1.524,1.489.556.091.519,3.763,1.091,3.861.555.096,1.139.016,1.709.119.555.1.721,2.255,1.29,2.362.555.105,2.855-8.801,3.422-8.69.555.108,1.189.043,1.756.157.554.112.855,1.651,1.42,1.769.554.116-.048,5.762.516,5.884.554.119,1.311-.691,1.874-.567.553.122.311,3.769.873,3.897.553.125,2.917-7.613,3.478-7.483.553.128-.34,6.447.221,6.58.552.131,2.958-7.388,3.517-7.252.552.134-1.112,9.325-.554,9.463.551.137,1.695-2.117,2.252-1.976.551.14,2.574-5.424,3.131-5.28.55.142.031,4.449.587,4.596.55.145,1.699-1.924,2.255-1.775.549.147,1.494-1.092,2.048-.941.549.15-1.584,10.037-1.03,10.19.548.152,3.894-9.683,4.447-9.527.548.155-.081,4.488.472,4.646.545.156,2.098-3.131,2.647-2.971.545.159-.741,6.558-.193,6.72.544.161,2.438-4.194,2.986-4.03.544.164,2.249-3.439,2.796-3.272.543.166-.951,6.997-.405,7.166.543.168-.131,4.197.415,4.369.542.171,3.56-7.476,4.105-7.302.542.173.792,1.296,1.336,1.472.542.175,1.217-.024,1.761.155.541.178,2.072-2.581,2.615-2.4s-.102,3.942.441,4.125.538,1.977,1.079,2.162-.704,5.514-.163,5.701,4.236-8.673,4.776-8.483-1.778,8.447-1.239,8.64.757,1.213,1.296,1.408,2.988-4.904,3.525-4.707-.738,5.283-.201,5.482,3.012-4.824,3.548-4.623,2.058-2.183,2.594-1.98-1.872,8.075-1.337,8.282.645,1.435,1.179,1.644,3.365-5.461,3.897-5.25-.717,4.868-.185,5.081,3.433-5.46,3.964-5.244,1.689-1.07,2.219-.852.201,2.538.729,2.758,2.034-1.853,2.562-1.63.129,2.654.656,2.88.313,2.174.839,2.402,2.141-2.025,2.665-1.795-2.327,8.06-1.803,8.294,1.848-1.379,2.37-1.143,3.727-5.432,4.248-5.194,1.018.56,1.538.801.913.782,1.431,1.026,2.369-2.274,2.886-2.027-1.788,6.39-1.272,6.64.936.68,1.45.933-.59,3.738-.077,3.994,1.245.015,1.756.273,3.201-3.788,3.711-3.527,1.077.419,1.585.684-.434,3.285.073,3.552,4.051-5.167,4.556-4.896-1.426,5.073-.923,5.347,3.676-4.301,4.178-4.024,1.483-.243,1.983.037-.768,3.734-.271,4.018,1.77-.747,2.266-.46-1.182,4.313-.689,4.603.147,1.97.638,2.264,1.162.256,1.651.553,4.025-4.361,4.511-4.06,2.209-1.309,2.693-1.004-3.83,8.186-3.349,8.495,2.31-1.493,2.788-1.18,1.894-.792,2.37-.476.867.776,1.341,1.096-2.796,6.084-2.326,6.409,1.341-.008,1.808.32.464,1.236.928,1.569,6.969-7.68,7.43-7.343c.464.339.244,1.664.702,2.007s-3.542,6.589-3.088,6.936,5.483-5.239,5.934-4.888-2.615,5.178-2.169,5.534,4.346-3.558,4.788-3.197c.445.363-.361,2.276.077,2.642.44.368-2.186,4.339-1.752,4.71.436.373,1.762-.34,2.191.036.432.379,4.225-3.026,4.65-2.644s-3.851,5.918-3.431,6.305c.421.389,6.931-5.728,7.344-5.336.417.395-2.017,3.808-1.609,4.206s3.545-1.905,3.947-1.502c.405.406.034,3.544.43,3.953.15.843.536,2.262.122,3.288-.179.444-1.848.393-2.096,1.002-.196.48,2.977,2.405,2.742,2.979-.203.494-10.679-3.203-10.91-2.644-.208.503,3.851,2.795,3.622,3.345-.211.508-3.377-.2-3.605.345-.214.511.075,1.242-.153,1.784-.216.513,7.884,4.556,7.656,5.095-.218.515-7.543-1.974-7.772-1.437-.22.516.355,1.379.126,1.913-.222.517-.637.956-.867,1.489-.223.517,3.397,2.708,3.167,3.239-.225.518-7.068-1.843-7.299-1.314-.226.518,6.574,4.121,6.342,4.649-.228.518-2.328.221-2.562.748-.23.518-1.148.737-1.382,1.262-.23.516-2.482.129-2.717.651-.232.517-.122,1.186-.358,1.707-.234.517,1.609,1.979,1.372,2.5-.236.517-4.343-.74-4.582-.22-.238.517,2.996,2.633,2.756,3.152s-2.581.055-2.823.574,1.306,1.871,1.062,2.388,2.492,2.454,2.246,2.97-3.665-.478-3.912.037,1.641,2.069,1.392,2.583-2.357.128-2.608.641c-.253.515,4.292,3.413,4.038,3.924-.256.514-4.733-1.07-4.99-.561-.258.513-2.89-.184-3.149.323-.261.512,4.256,3.482,3.995,3.987-.265.511-4.413-.999-4.677-.497-.268.51.931,1.793.663,2.294-.272.509-6.159-2.042-6.431-1.545-.277.508,2.82,2.828,2.544,3.323-.282.506,4.544,3.891,4.264,4.382-.287.503-6.954-2.679-7.238-2.192-.293.502,2.002,2.499,1.712,2.982-.3.5.349,1.57.053,2.047-.308.495-2.765-.398-3.068.072-.318.492,4.9,4.665,4.588,5.126-.329.487-.987.873-1.309,1.323-.344.48-5.825-2.823-6.16-2.388-.342.445,3.353,4.1,2.991,4.549-.353.437-3.777-1.613-4.148-1.173-.363.43-4.179-2.174-4.558-1.741-.371.423.525,1.878.139,2.304-.379.417-2.285-.673-2.677-.254-.386.412,5.534,6.808,5.136,7.22-.393.406-6.033-4.347-6.437-3.942-.399.401,6.153,7.834,5.744,8.234-.405.396-.655,1.061-1.07,1.456-.411.391-8.178-7.03-8.597-6.641-.416.386-.579.966-1.002,1.349-.421.381,1.983,3.873,1.556,4.251-.425.377-.273,1.416-.704,1.789s.895,2.824.46,3.192-3.094-1.898-3.532-1.534-4.402-3.63-4.845-3.271,5.085,8.15,4.639,8.503-6.825-6.879-7.275-6.53,5.784,9.411,5.33,9.755-2.033-.734-2.49-.396c-.459.34-4.166-3.746-4.626-3.412-.463.336,2.077,4.871,1.613,5.199-.467.331-3.784-3.415-4.251-3.093-.471.325-2.902-2.313-3.372-1.997-.476.32.41,2.585-.064,2.895-.48.314-.6,1.107-1.077,1.41-.484.308-.531,1.247-1.012,1.544-.489.302.278,2.645-.207,2.934-.494.295-2.088-1.315-2.577-1.033-.499.288-1.073.369-1.566.642-.505.279-.595,1.252-1.092,1.516-.511.27.437,3.37-.064,3.622-.516.26.507,3.851.002,4.091-.524.249-3.132-3.85-3.643-3.623-.532.236-.443,2.042-.959,2.252-.54.22-1.025.826-1.545,1.017-.549.202-3.059-5.364-3.585-5.196-.56.178-1.582-2.143-2.113-2.004-.571.149,1.337,11.334.802,11.434-.542.101-2.589-7.755-3.175-7.647-.546.101-1.157-.12-1.739-.016-.55.098-.396,4.279-.977,4.379-.552.095-1.612-2.77-2.191-2.676-.555.09-.842,1.918-1.42,2.006-.557.085-.961,1.35-1.539,1.432-.559.079-1.904-5.696-2.482-5.621-.561.073-.344,6.385-.922,6.453-.563.066-1.121.474-1.699.534-.564.059-1.702-5.791-2.28-5.739-.566.051-.543,7.17-1.121,7.215-.567.044-1.207-.209-1.785-.173-.568.035-1.117,1.562-1.696,1.589-.569.027-1.397-5.747-1.976-5.729-.57.018-1.026,6.259-1.605,6.268-.57.009-1.226-.812-1.805-.813-.57,0-1.197-.963-1.774-.973-.57-.01-1.132-1.955-1.709-1.975-.57-.02-1.276,2.03-1.853,1.999-.57-.03-.721-6.874-1.297-6.915-.57-.041-1.548,5.144-2.123,5.093-.57-.051-1.045-1.301-1.62-1.364-.569-.062-1.799,4.88-2.372,4.805-.568-.073-1.081-1.293-1.652-1.379-.566-.085-.824-2.539-1.394-2.637-.564-.096-1.642,2.225-2.209,2.116-.562-.108-.457-3.804-1.021-3.926-.56-.12-.609-2.49-1.17-2.624-.557-.132-1.256.386-1.814.24-.554-.145-1.435.905-1.99.746-.551-.157-1.153-.2-1.704-.371-.547-.17-1.483.763-2.031.579-.543-.182-1.495.631-2.038.434-.539-.195,1.857-8.135,1.318-8.344-.534-.208-2.195,2.615-2.728,2.393-.529-.22-.61-1.328-1.138-1.563-.523-.233-3.862,5.638-4.384,5.39-.518-.245,1.058-4.845.542-5.105-.511-.258.316-2.962-.193-3.235-.505-.27-.151-1.868-.654-2.153-.498-.282-5.079,6.5-5.575,6.203-.492-.295-.941-.616-1.422-.901-.494-.292.601-3.264.119-3.545-.496-.289-2.438,1.943-2.922,1.664-.498-.287.508-3.174.023-3.45-.499-.284-.376-1.661-.863-1.935-.5-.282-.065-2.237-.552-2.509-.502-.28-4.406,5.57-4.893,5.3-.503-.279,3.054-7.879,2.566-8.149-.503-.278-3.451,3.891-3.939,3.622-.503-.277-3.473,3.926-3.96,3.657-.503-.278-.887-.78-1.373-1.05-.502-.28.465-3.198-.02-3.471-.501-.282,2.167-6.091,1.684-6.368-.498-.286-4.146,4.892-4.626,4.609-.495-.292,2.676-6.636,2.2-6.926-.49-.298-3.328,3.305-3.799,3.006-.484-.307.82-3.246.355-3.556-.476-.317-3.301,2.888-3.758,2.565-.466-.33,2.046-4.592,1.599-4.93-.454-.344-5.473,5.176-5.907,4.82-.439-.359-2.386.807-2.806.433s5.194-7.268,4.789-7.662-6.061,4.376-6.447,3.962c-.383-.41,4.702-5.674,4.335-6.107-.361-.427-2.849,1.009-3.196.557-.339-.442-.525-.94-.852-1.409-.318-.456.966-1.872.66-2.356-.296-.469-5.454,1.992-5.74,1.494-.277-.481-2.609-.007-2.877-.516-.258-.491,9.139-5.837,8.889-6.355-.24-.499-4.349.909-4.583.382-.224-.505,2.567-2.214,2.348-2.746-.21-.512-1.028-.674-1.233-1.212-.198-.518-5.692.939-5.886.396-.186-.523,6.733-3.463,6.551-4.01-.176-.526-1.174-.692-1.347-1.241-.167-.531-4.827.345-4.991-.208-.158-.534,3.088-2.03,2.932-2.585-.15-.534-.263-.918-.396-1.488-.127-.541-.926-.822-1.038-1.394-.107-.547-4.154-.365-4.248-.939-.09-.551-4.403-.569-4.481-1.144-.075-.555,3.304-1.626,3.24-2.202-.062-.557.439-1.21.388-1.787-.05-.559-4.069-.872-4.109-1.449-.039-.561,1.995-1.327,1.965-1.904-.029-.562,1.337-1.231,1.316-1.808-.021-.563-2.193-1.11-2.206-1.687-.012-.564,1.506-1.198,1.502-1.775-.005-.565,1.978-1.155,1.98-1.731.002-.565,2.018-1.107,2.027-1.682.009-.566-.136-1.121-.121-1.696.015-.566-7.416-1.399-7.394-1.973.021-.566,8.579-.79,8.607-1.364.027-.566-7.608-1.547-7.576-2.12.032-.566,7.526-.689,7.564-1.261.037-.566-3.806-1.404-3.763-1.976.042-.564,6.268-.628,6.315-1.197.047-.564-2.581-1.336-2.529-1.904.051-.564-7.581-1.875-7.525-2.444.056-.564,1.685-1.005,1.746-1.573.06-.564,6.425-.44,6.49-1.007.064-.564.318-1.09.387-1.657.069-.564-3.358-1.562-3.285-2.128.073-.563,1.821-.908,1.898-1.474s-5.637-1.951-5.557-2.516,7.193-.11,7.278-.675-3.698-1.72-3.61-2.284-.982-1.329-.89-1.893,8.451.26,8.547-.304.033-1.118.132-1.681-3.101-1.696-2.998-2.258-3.751-1.864-3.644-2.425,7.503.299,7.613-.261.199-1.091.313-1.651-8.531-2.93-8.413-3.489,4.107-.302,4.228-.86,3.41-.405,3.535-.962.254-1.092.382-1.647-2.717-1.801-2.585-2.356.585-1.032.721-1.585-2.98-1.93-2.84-2.483-2.71-1.91-2.566-2.461,7.28.729,7.428.178,3.697-.153,3.849-.702-7.991-3.429-7.835-3.976c.157-.551,3.889-.081,4.05-.627.161-.55-.474-1.339-.31-1.883.166-.548,5.809.603,5.978.06.17-.547-6.685-3.303-6.511-3.844.175-.546-.98-1.553-.801-2.093.18-.545,3.768.037,3.951-.501.185-.543.305-1.11.493-1.646.191-.543,3.48.038,3.675-.497.197-.541-.783-1.487-.583-2.02.202-.539-3.653-2.629-3.448-3.159.208-.537,1.088-.834,1.3-1.361.214-.534,7.473,1.839,7.691,1.315.221-.531-7.855-4.557-7.631-5.078.228-.528,4.814.849,5.046.332.235-.525-4.705-3.435-4.466-3.947.243-.522,3.863.525,4.11.017.252-.519,2.373-.095,2.628-.598.261-.515,1.369-.541,1.634-1.04.271-.51-5.363-4.249-5.088-4.742.282-.505,2.682.132,2.968-.354.293-.498,4.614,1.461,4.911.983.305-.491-6.388-5.503-6.078-5.971.32-.484,10.121,5.529,10.445,5.07.335-.474-4.364-4.5-4.025-4.947.351-.462,2.491.555,2.847.124.37-.448-4.067-5.103-3.692-5.517.39-.431,2.927.993,3.323.6.413-.41,2.965,2.744,3.384,2.378Z" style="fill: #fff;"/>
    <path d="M219.775,389.821c.524-.049-.085-5.304.532-5.322.537-.015,1.162,4.252,1.767,4.261.544.008,1.224-3.393,1.821-3.365.548.025,1.179-.146,1.77-.104.551.039.71,5.107,1.297,5.16.553.05,1.723-5.99,2.308-5.927.555.059.419,6.314,1.001,6.385.555.067,1.421-2.377,2-2.3.556.074,1.917-5.381,2.495-5.297.556.08.912,1.845,1.488,1.934.556.086.951,1.395,1.524,1.489.556.091.519,3.763,1.091,3.861.555.096,1.139.016,1.709.119.555.1.721,2.255,1.29,2.362.555.105,2.855-8.801,3.422-8.69.555.108,1.189.043,1.756.157.554.112.855,1.651,1.42,1.769.554.116-.048,5.762.516,5.884.554.119,1.311-.691,1.874-.567.553.122.311,3.769.873,3.897.553.125,2.917-7.613,3.478-7.483.553.128-.34,6.447.221,6.58.552.131,2.958-7.388,3.517-7.252.552.134-1.112,9.325-.554,9.463.551.137,1.695-2.117,2.252-1.976.551.14,2.574-5.424,3.131-5.28.55.142.031,4.449.587,4.596.55.145,1.699-1.924,2.255-1.775.549.147,1.494-1.092,2.048-.941.549.15-1.584,10.037-1.03,10.19.548.152,3.894-9.683,4.447-9.527.548.155-.081,4.488.472,4.646.545.156,2.098-3.131,2.647-2.971.545.159-.741,6.558-.193,6.72.544.161,2.438-4.194,2.986-4.03.544.164,2.249-3.439,2.796-3.272.543.166-.951,6.997-.405,7.166.543.168-.131,4.197.415,4.369.542.171,3.56-7.476,4.105-7.302.542.173.792,1.296,1.336,1.472.542.175,1.217-.024,1.761.155.541.178,2.072-2.581,2.615-2.4s-.102,3.942.441,4.125.538,1.977,1.079,2.162-.704,5.514-.163,5.701,4.236-8.673,4.776-8.483-1.778,8.447-1.239,8.64.757,1.213,1.296,1.408,2.988-4.904,3.525-4.707-.738,5.283-.201,5.482,3.012-4.824,3.548-4.623,2.058-2.183,2.594-1.98-1.872,8.075-1.337,8.282.645,1.435,1.179,1.644,3.365-5.461,3.897-5.25-.717,4.868-.185,5.081,3.433-5.46,3.964-5.244,1.689-1.07,2.219-.852.201,2.538.729,2.758,2.034-1.853,2.562-1.63.129,2.654.656,2.88.313,2.174.839,2.402,2.141-2.025,2.665-1.795-2.327,8.06-1.803,8.294,1.848-1.379,2.37-1.143,3.727-5.432,4.248-5.194,1.018.56,1.538.801.913.782,1.431,1.026,2.369-2.274,2.886-2.027-1.788,6.39-1.272,6.64.936.68,1.45.933-.59,3.738-.077,3.994,1.245.015,1.756.273,3.201-3.788,3.711-3.527,1.077.419,1.585.684-.434,3.285.073,3.552,4.051-5.167,4.556-4.896-1.426,5.073-.923,5.347,3.676-4.301,4.178-4.024,1.483-.243,1.983.037-.768,3.734-.271,4.018,1.77-.747,2.266-.46-1.182,4.313-.689,4.603.147,1.97.638,2.264,1.162.256,1.651.553,4.025-4.361,4.511-4.06,2.209-1.309,2.693-1.004-3.83,8.186-3.349,8.495,2.31-1.493,2.788-1.18,1.894-.792,2.37-.476.867.776,1.341,1.096-2.796,6.084-2.326,6.409,1.341-.008,1.808.32.464,1.236.928,1.569,6.969-7.68,7.43-7.343c.464.339.244,1.664.702,2.007s-3.542,6.589-3.088,6.936,5.483-5.239,5.934-4.888-2.615,5.178-2.169,5.534,4.346-3.558,4.788-3.197c.445.363-.361,2.276.077,2.642.44.368-2.186,4.339-1.752,4.71.436.373,1.762-.34,2.191.036.432.379,4.225-3.026,4.65-2.644s-3.851,5.918-3.431,6.305c.421.389,6.931-5.728,7.344-5.336.417.395-2.017,3.808-1.609,4.206s3.545-1.905,3.947-1.502c.405.406.034,3.544.43,3.953.15.843.536,2.262.122,3.288-.179.444-1.848.393-2.096,1.002-.196.48,2.977,2.405,2.742,2.979-.203.494-10.679-3.203-10.91-2.644-.208.503,3.851,2.795,3.622,3.345-.211.508-3.377-.2-3.605.345-.214.511.075,1.242-.153,1.784-.216.513,7.884,4.556,7.656,5.095-.218.515-7.543-1.974-7.772-1.437-.22.516.355,1.379.126,1.913-.222.517-.637.956-.867,1.489-.223.517,3.397,2.708,3.167,3.239-.225.518-7.068-1.843-7.299-1.314-.226.518,6.574,4.121,6.342,4.649-.228.518-2.328.221-2.562.748-.23.518-1.148.737-1.382,1.262-.23.516-2.482.129-2.717.651-.232.517-.122,1.186-.358,1.707-.234.517,1.609,1.979,1.372,2.5-.236.517-4.343-.74-4.582-.22-.238.517,2.996,2.633,2.756,3.152s-2.581.055-2.823.574,1.306,1.871,1.062,2.388,2.492,2.454,2.246,2.97-3.665-.478-3.912.037,1.641,2.069,1.392,2.583-2.357.128-2.608.641c-.253.515,4.292,3.413,4.038,3.924-.256.514-4.733-1.07-4.99-.561-.258.513-2.89-.184-3.149.323-.261.512,4.256,3.482,3.995,3.987-.265.511-4.413-.999-4.677-.497-.268.51.931,1.793.663,2.294-.272.509-6.159-2.042-6.431-1.545-.277.508,2.82,2.828,2.544,3.323-.282.506,4.544,3.891,4.264,4.382-.287.503-6.954-2.679-7.238-2.192-.293.502,2.002,2.499,1.712,2.982-.3.5.349,1.57.053,2.047-.308.495-2.765-.398-3.068.072-.318.492,4.9,4.665,4.588,5.126-.329.487-.987.873-1.309,1.323-.344.48-5.825-2.823-6.16-2.388-.342.445,3.353,4.1,2.991,4.549-.353.437-3.777-1.613-4.148-1.173-.363.43-4.179-2.174-4.558-1.741-.371.423.525,1.878.139,2.304-.379.417-2.285-.673-2.677-.254-.386.412,5.534,6.808,5.136,7.22-.393.406-6.033-4.347-6.437-3.942-.399.401,6.153,7.834,5.744,8.234-.405.396-.655,1.061-1.07,1.456-.411.391-8.178-7.03-8.597-6.641-.416.386-.579.966-1.002,1.349-.421.381,1.983,3.873,1.556,4.251-.425.377-.273,1.416-.704,1.789s.895,2.824.46,3.192-3.094-1.898-3.532-1.534-4.402-3.63-4.845-3.271,5.085,8.15,4.639,8.503-6.825-6.879-7.275-6.53,5.784,9.411,5.33,9.755-2.033-.734-2.49-.396c-.459.34-4.166-3.746-4.626-3.412-.463.336,2.077,4.871,1.613,5.199-.467.331-3.784-3.415-4.251-3.093-.471.325-2.902-2.313-3.372-1.997-.476.32.41,2.585-.064,2.895-.48.314-.6,1.107-1.077,1.41-.484.308-.531,1.247-1.012,1.544-.489.302.278,2.645-.207,2.934-.494.295-2.088-1.315-2.577-1.033-.499.288-1.073.369-1.566.642-.505.279-.595,1.252-1.092,1.516-.511.27.437,3.37-.064,3.622-.516.26.507,3.851.002,4.091-.524.249-3.132-3.85-3.643-3.623-.532.236-.443,2.042-.959,2.252-.54.22-1.025.826-1.545,1.017-.549.202-3.059-5.364-3.585-5.196-.56.178-1.582-2.143-2.113-2.004-.571.149,1.337,11.334.802,11.434-.542.101-2.589-7.755-3.175-7.647-.546.101-1.157-.12-1.739-.016-.55.098-.396,4.279-.977,4.379-.552.095-1.612-2.77-2.191-2.676-.555.09-.842,1.918-1.42,2.006-.557.085-.961,1.35-1.539,1.432-.559.079-1.904-5.696-2.482-5.621-.561.073-.344,6.385-.922,6.453-.563.066-1.121.474-1.699.534-.564.059-1.702-5.791-2.28-5.739-.566.051-.543,7.17-1.121,7.215-.567.044-1.207-.209-1.785-.173-.568.035-1.117,1.562-1.696,1.589-.569.027-1.397-5.747-1.976-5.729-.57.018-1.026,6.259-1.605,6.268-.57.009-1.226-.812-1.805-.813-.57,0-1.197-.963-1.774-.973-.57-.01-1.132-1.955-1.709-1.975-.57-.02-1.276,2.03-1.853,1.999-.57-.03-.721-6.874-1.297-6.915-.57-.041-1.548,5.144-2.123,5.093-.57-.051-1.045-1.301-1.62-1.364-.569-.062-1.799,4.88-2.372,4.805-.568-.073-1.081-1.293-1.652-1.379-.566-.085-.824-2.539-1.394-2.637-.564-.096-1.642,2.225-2.209,2.116-.562-.108-.457-3.804-1.021-3.926-.56-.12-.609-2.49-1.17-2.624-.557-.132-1.256.386-1.814.24-.554-.145-1.435.905-1.99.746-.551-.157-1.153-.2-1.704-.371-.547-.17-1.483.763-2.031.579-.543-.182-1.495.631-2.038.434-.539-.195,1.857-8.135,1.318-8.344-.534-.208-2.195,2.615-2.728,2.393-.529-.22-.61-1.328-1.138-1.563-.523-.233-3.862,5.638-4.384,5.39-.518-.245,1.058-4.845.542-5.105-.511-.258.316-2.962-.193-3.235-.505-.27-.151-1.868-.654-2.153-.498-.282-5.079,6.5-5.575,6.203-.492-.295-.941-.616-1.422-.901-.494-.292.601-3.264.119-3.545-.496-.289-2.438,1.943-2.922,1.664-.498-.287.508-3.174.023-3.45-.499-.284-.376-1.661-.863-1.935-.5-.282-.065-2.237-.552-2.509-.502-.28-4.406,5.57-4.893,5.3-.503-.279,3.054-7.879,2.566-8.149-.503-.278-3.451,3.891-3.939,3.622-.503-.277-3.473,3.926-3.96,3.657-.503-.278-.887-.78-1.373-1.05-.502-.28.465-3.198-.02-3.471-.501-.282,2.167-6.091,1.684-6.368-.498-.286-4.146,4.892-4.626,4.609-.495-.292,2.676-6.636,2.2-6.926-.49-.298-3.328,3.305-3.799,3.006-.484-.307.82-3.246.355-3.556-.476-.317-3.301,2.888-3.758,2.565-.466-.33,2.046-4.592,1.599-4.93-.454-.344-5.473,5.176-5.907,4.82-.439-.359-2.386.807-2.806.433s5.194-7.268,4.789-7.662-6.061,4.376-6.447,3.962c-.383-.41,4.702-5.674,4.335-6.107-.361-.427-2.849,1.009-3.196.557-.339-.442-.525-.94-.852-1.409-.318-.456.966-1.872.66-2.356-.296-.469-5.454,1.992-5.74,1.494-.277-.481-2.609-.007-2.877-.516-.258-.491,9.139-5.837,8.889-6.355-.24-.499-4.349.909-4.583.382-.224-.505,2.567-2.214,2.348-2.746-.21-.512-1.028-.674-1.233-1.212-.198-.518-5.692.939-5.886.396-.186-.523,6.733-3.463,6.551-4.01-.176-.526-1.174-.692-1.347-1.241-.167-.531-4.827.345-4.991-.208-.158-.534,3.088-2.03,2.932-2.585-.15-.534-.263-.918-.396-1.488-.127-.541-.926-.822-1.038-1.394-.107-.547-4.154-.365-4.248-.939-.09-.551-4.403-.569-4.481-1.144-.075-.555,3.304-1.626,3.24-2.202-.062-.557.439-1.21.388-1.787-.05-.559-4.069-.872-4.109-1.449-.039-.561,1.995-1.327,1.965-1.904-.029-.562,1.337-1.231,1.316-1.808-.021-.563-2.193-1.11-2.206-1.687-.012-.564,1.506-1.198,1.502-1.775-.005-.565,1.978-1.155,1.98-1.731.002-.565,2.018-1.107,2.027-1.682.009-.566-.136-1.121-.121-1.696.015-.566-7.416-1.399-7.394-1.973.021-.566,8.579-.79,8.607-1.364.027-.566-7.608-1.547-7.576-2.12.032-.566,7.526-.689,7.564-1.261.037-.566-3.806-1.404-3.763-1.976.042-.564,6.268-.628,6.315-1.197.047-.564-2.581-1.336-2.529-1.904.051-.564-7.581-1.875-7.525-2.444.056-.564,1.685-1.005,1.746-1.573.06-.564,6.425-.44,6.49-1.007.064-.564.318-1.09.387-1.657.069-.564-3.358-1.562-3.285-2.128.073-.563,1.821-.908,1.898-1.474s-5.637-1.951-5.557-2.516,7.193-.11,7.278-.675-3.698-1.72-3.61-2.284-.982-1.329-.89-1.893,8.451.26,8.547-.304.033-1.118.132-1.681-3.101-1.696-2.998-2.258-3.751-1.864-3.644-2.425,7.503.299,7.613-.261.199-1.091.313-1.651-8.531-2.93-8.413-3.489,4.107-.302,4.228-.86,3.41-.405,3.535-.962.254-1.092.382-1.647-2.717-1.801-2.585-2.356.585-1.032.721-1.585-2.98-1.93-2.84-2.483-2.71-1.91-2.566-2.461,7.28.729,7.428.178,3.697-.153,3.849-.702-7.991-3.429-7.835-3.976c.157-.551,3.889-.081,4.05-.627.161-.55-.474-1.339-.31-1.883.166-.548,5.809.603,5.978.06.17-.547-6.685-3.303-6.511-3.844.175-.546-.98-1.553-.801-2.093.18-.545,3.768.037,3.951-.501.185-.543.305-1.11.493-1.646.191-.543,3.48.038,3.675-.497.197-.541-.783-1.487-.583-2.02.202-.539-3.653-2.629-3.448-3.159.208-.537,1.088-.834,1.3-1.361.214-.534,7.473,1.839,7.691,1.315.221-.531-7.855-4.557-7.631-5.078.228-.528,4.814.849,5.046.332.235-.525-4.705-3.435-4.466-3.947.243-.522,3.863.525,4.11.017.252-.519,2.373-.095,2.628-.598.261-.515,1.369-.541,1.634-1.04.271-.51-5.363-4.249-5.088-4.742.282-.505,2.682.132,2.968-.354.293-.498,4.614,1.461,4.911.983.305-.491-6.388-5.503-6.078-5.971.32-.484,10.121,5.529,10.445,5.07.335-.474-4.364-4.5-4.025-4.947.351-.462,2.491.555,2.847.124.37-.448-4.067-5.103-3.692-5.517.39-.431,2.927.993,3.323.6.413-.41,2.965,2.744,3.384,2.378Z" style="fill: none; stroke: #000; stroke-linecap: round; stroke-linejoin: round; stroke-width: 40px;"/>
  </g>
  <path d="M367.256,390.006c-.398.769,3.293,2.681,2.895,3.449s-4.893-1.559-5.292-.789,4.073,3.088,3.674,3.858-8.262-3.305-8.661-2.535,6.628,4.409,6.23,5.178-3.141-.651-3.539.118-2.666-.404-3.065.367,6.315,4.249,5.916,5.02-7.934-3.134-8.332-2.364-1.088.413-1.487,1.183-1.759.067-2.158.838,8.769,5.52,8.369,6.29-3.947-1.066-4.346-.295-.241.853-.64,1.624-1.956-.035-2.356.737-1.36.271-1.758,1.041,2.045,2.035,1.647,2.805-.894.516-1.294,1.288,4.381,3.247,3.982,4.018-3.331-.747-3.731.025.077,1.02-.323,1.792-5.296-1.765-5.696-.994-3.073-.611-3.473.162,7.788,5.017,7.387,5.792-6.009-2.131-6.41-1.356" style="fill: none; stroke: #000; stroke-linecap: round; stroke-linejoin: round; stroke-width: 40px;"/>
  <path d="M290.265,361.022c-.391.763.6,1.271.209,2.034s5.959,4.014,5.568,4.776-6.622-2.43-7.013-1.669,5.723,3.893,5.333,4.655-.169.877-.56,1.64-6.354-2.291-6.745-1.528,4.191,3.109,3.8,3.872,2.699,2.346,2.308,3.109-5.246-1.723-5.637-.959,3.743,2.88,3.352,3.643-2.055-.088-2.446.676c-.391.764-2.198-.162-2.59.601-.391.764-3.528-.842-3.919-.078s7.213,4.657,6.823,5.419-2.32-.226-2.711.536-2.026-.072-2.418.692-.259.831-.65,1.595,3.182,2.595,2.79,3.359-7.863-3.061-8.255-2.296,6.414,4.25,6.023,5.014-3.122-.632-3.514.134-.345.792-.738,1.559-5.627-1.914-6.02-1.146" style="fill: none; stroke: #000; stroke-linecap: round; stroke-linejoin: round; stroke-width: 40px;"/>
  <path d="M160.553,332.697c-.859.03-.53.379-1.641.404-.482.011-.878,8.813-1.541,8.824-.52.009-1.188-6.582-1.809-6.575-.537.006-1.111-2.208-1.719-2.204-.547.004-1.072,9.194-1.671,9.196-.552.001-1.142-.216-1.736-.217-.556,0-1.116-5-1.706-5.003-.559-.003-1.184,5.693-1.771,5.687-.561-.006-1.17,1.179-1.755,1.17-.563-.008-1.146-.764-1.729-.775-.564-.01-1.107-2.235-1.689-2.249-.565-.013-1.159.331-1.739.315-.566-.015-.883-8.464-1.462-8.483-.567-.018-1.3,5.049-1.879,5.028-.568-.021-1.035-2.557-1.612-2.581-.569-.024-1.276,3.175-1.853,3.148-.569-.026-1.434,5.592-2.01,5.563-.57-.029-.86-5.597-1.436-5.63-.57-.032-.919-3.702-1.494-3.737-.569-.035-1.09-.528-1.662-.567-.57-.039-1.511,5.229-2.084,5.186s-1.099-.743-1.671-.789-.743-4.749-1.316-4.799-1.707,6.175-2.279,6.121-.601-5.64-1.172-5.698-1.785,5.966-2.356,5.903-.407-6.599-.977-6.666-1.052-.614-1.62-.687c-.572-.073-1.387,1.926-1.955,1.848-.572-.078-2.231,7.394-2.797,7.311-.571-.084-.194-6.563-.759-6.652-.571-.09-2.014,5.011-2.577,4.915-.57-.097.643-10.213.082-10.316-.569-.104-2.676,7.978-3.235,7.868-.568-.113-1.095-.596-1.65-.715-.567-.122-.949-1.192-1.503-1.321-.566-.132.391-6.358-.16-6.497-.564-.143-.736-1.276-1.283-1.428-.562-.155-2.748,5.574-3.289,5.41-.558-.169-1.69,1.384-2.225,1.205-.554-.185.427-4.654-.1-4.85-.549-.204-1.431.676-1.949.46-.543-.227-.862-.743-1.369-.984-.532-.252-3.603,4.376-4.092,4.108-.518-.283-1.857.236-2.325-.066-.497-.32,1.894-5.037,1.458-5.378-.466-.365,1.527.904,1.135.515.4-.751-5.56-5.684-4.947-6.274.614-.59,7.412,6.484,8.025,5.894s-4.986-6.416-4.373-7.005,1.214.036,1.827-.553,4.032,2.969,4.645,2.38,2.651,1.531,3.263.942-1.864-3.166-1.251-3.755,2.569,1.446,3.182.857-1.95-3.257-1.337-3.846c.614-.59.697-.503,1.311-1.092s3.56,2.475,4.174,1.885-2.616-3.95-2.002-4.54,1.613.45,2.226-.139,1.353.181,1.967-.408,2.362,1.23,2.975.641-3.853-5.237-3.24-5.827c.614-.59,4.225,3.168,4.838,2.578.614-.59-4.382-5.788-3.768-6.378s6.589,5.627,7.203,5.038-6.437-7.925-5.824-8.514,7.748,6.836,8.36,6.248-7.458-8.985-6.846-9.573,7.039,6.101,7.651,5.513-2.337-3.655-1.725-4.243,3.981,2.918,4.592,2.33.96-.226,1.572-.815-1.039-2.308-.427-2.897-.262-1.501.352-2.091,4.009,2.941,4.624,2.35c.614-.59.343-.872.957-1.462s-2.36-3.683-1.747-4.272c.613-.589,2.513,1.389,3.126.8s-.213-1.448.4-2.037,1.646.485,2.259-.104-.73-1.989-.116-2.58-.409-1.657.206-2.248-3.758-5.139-3.144-5.729,7.918,7.011,8.532,6.421.314-.902.928-1.492-1.448-2.738-.833-3.329c.615-.591,2.601,1.476,3.216.885s.429-.784,1.043-1.374-2.525-3.857-1.91-4.448-2.602-3.939-1.986-4.53,4.842,3.808,5.457,3.217,1.267.087,1.883-.505-1.643-2.936-1.03-3.525-1.548-2.843-.932-3.434,7.584,6.662,8.198,6.072-2.76-4.102-2.146-4.692c.616-.592-1.821-3.128-1.204-3.72s2.576,1.449,3.191.858.945-.25,1.561-.842.527-.686,1.144-1.279,2.508,1.377,3.124.786,1.387.208,2.004-.384-1.085-2.368-.467-2.962-2.359-3.692-1.74-4.287c0,0,.469,1.967-.349,1.214-.354-.326.325-1.91-.161-2.36-.382-.353-4.875,3.641-5.332,3.216-.392-.365,2.491-4.309,2.048-4.723-.398-.371-.785-.795-1.222-1.204-.401-.376-1.014-.559-1.446-.965-.404-.379-1.13-.444-1.559-.847-.405-.382-.978-.611-1.404-1.014-.406-.384,3.387-5.216,2.963-5.618-.407-.386.021-1.654-.401-2.056-.408-.388-4.459,3.038-4.879,2.637-.408-.39,1.293-2.99.873-3.392-.408-.391-6.59,5.22-7.008,4.818-.408-.392.955-2.641.538-3.043-.407-.392,3.584-5.339,3.169-5.74-.407-.394-3.493,1.973-3.907,1.572-.407-.395-1.12-.482-1.532-.884-.407-.397-1.132-.473-1.544-.876-.406-.398-1.284-.323-1.695-.726-.406-.399-1.885.28-2.294-.124-.406-.4-.466-1.161-.875-1.566-.405-.402.668-2.299.26-2.705-.405-.403-.045-1.574-.452-1.98-.404-.404-4.827,3.194-5.232,2.786-.403-.405.002-1.627-.402-2.035s5.408-6.954,5.005-7.362-2.766,1.127-3.168.717-2.839,1.176-3.24.765,1.176-2.743.776-3.155.665-2.229.266-2.642-7.362,5.48-7.759,5.065-.331-1.297-.727-1.713,6.236-7.5,5.842-7.917c-.397-.42-7.534,5.514-7.926,5.096-.395-.422,2.462-3.887,2.072-4.307-.394-.423-2.034.311-2.423-.11-.392-.425-1.185-.487-1.571-.909-.389-.426,2.174-3.528,1.791-3.951-.388-.428-3.978,2.034-4.358,1.61-.386-.431-.365-1.229-.742-1.655-.385-.435,3.555-4.649,3.18-5.079-.382-.437-7.523,4.994-7.894,4.563-.379-.44,4.971-5.772,4.604-6.206-.376-.443-7.218,4.542-7.581,4.106-.372-.447,6.845-7.143,6.487-7.581-.368-.451-.507-1.008-.859-1.449-.364-.456-4.533,2.132-4.878,1.688-.359-.463-4.99,2.301-5.328,1.853-.353-.47,5.775-5.742,5.447-6.196-.346-.477,1.321-2.258,1.005-2.716-.336-.486-2.668.514-2.969.051-.325-.5-3.899,1.082-4.181.611-.309-.516-1.732-.486-1.987-.964-.288-.539,7.061-4.606,6.847-5.094-.251-.573-10.192,2.484-10.335,1.986-.179-.624,4.479-2.235,4.481-2.73.565-.642,1.428,3.836,2.503,3.551.462-.122-1.411-9.558-.771-9.723.5-.129,3.481,9.262,4.083,9.111.518-.13.575-2.191,1.164-2.336.527-.129,1.581,1.87,2.162,1.731.532-.128-.762-8.004-.186-8.14.537-.126,2.706,6.671,3.278,6.539.54-.125-.825-8.66-.254-8.79.543-.123,2.429,5.658,2.998,5.532.545-.121.524-2.877,1.092-3,.547-.119,1.595,2.043,2.162,1.922.549-.117,1.336.889,1.903.771.55-.114.036-5.458.603-5.573.552-.112,1.8,3.172,2.367,3.06.553-.11.401-3.879.967-3.989.554-.108,1.352.956,1.918.849.554-.105,2.23,5.775,2.795,5.671.555-.103,1.032-.568,1.598-.67.556-.1-.433-8.958.132-9.057.558-.098,1.248.408,1.814.312.559-.095,1.572,2.399,2.139,2.305.559-.092.555-3.793,1.122-3.883.56-.09,1.334.985,1.901.897.561-.087,1.44,1.767,2.008,1.683.562-.084,2.283,7.74,2.851,7.658.563-.081,1.081-.291,1.649-.37.564-.078,1.167.34,1.735.265.563-.075.823-2.278,1.39-2.35.564-.072.621-4.15,1.188-4.219s1.641,4.258,2.209,4.192.5-5.694,1.068-5.756,1.896,7.187,2.464,7.128.525-6.079,1.094-6.134,1.51,4.049,2.079,3.998.703-5.068,1.273-5.114.983-2.295,1.553-2.338,1.258,1.29,1.828,1.251,1.286,2.109,1.857,2.075,1.338,3.801,1.909,3.772.827-6.68,1.398-6.704,1.34,5.128,1.911,5.109.975-5.977,1.546-5.991,1.313,9.249,1.884,9.241,1.03-11.918,1.601-11.921,1.173,5.871,1.743,5.875c.573.003,1.153-.408,1.723-.398.573.01.981,5.893,1.551,5.909.573.017,1.547-11.349,2.116-11.326.573.024.583,11.845,1.152,11.876.573.031,1.06.122,1.628.161.573.039,1.392-3.965,1.959-3.918.574.047,1.476-3.573,2.043-3.517.572.056,1.382-1.709,1.947-1.644.571.065,1.377-1.171,1.94-1.096.57.075.639,4.062,1.201,4.147.568.086.751,2.529,1.311,2.625.567.097,2.265-5.814,2.823-5.706.566.109.926,1.667,1.481,1.788.562.122.332,3.836.882,3.97.559.136,1.87-2.542,2.417-2.393.555.151-.011,4.252.531,4.416.55.166,5.662,3.026,6.198,3.206.601-.608-4.639-4.599-4.876-5.681-.103-.468-5.17.031-5.308-.614-.109-.507,3.192-1.808,3.064-2.416-.11-.523-.311-1.072-.433-1.665-.11-.531.769-1.297.651-1.881-.109-.537,4.978-2.136,4.862-2.715-.108-.541-3.991-.345-4.104-.92-.107-.544,4.71-2.053,4.599-2.626-.106-.547-5.753-.038-5.861-.61-.104-.549-2.52-.679-2.627-1.25-.103-.551,5.041-2.081,4.937-2.651-.101-.553-8.837.447-8.94-.122-.1-.554,6.101-2.247,6.001-2.815-.098-.555-4.783-.323-4.881-.891-.096-.556.6-1.268.504-1.836-.094-.558,6.959-2.317,6.865-2.885-.092-.557.352-1.192.261-1.758-.091-.558-.999-.975-1.089-1.541-.089-.559-1.11-.965-1.198-1.531-.087-.56,2.749-1.554,2.663-2.12-.084-.561-4.076-.531-4.159-1.098-.082-.562-5.885-.307-5.966-.875-.08-.563,7.776-2.24,7.698-2.807-.078-.564-7.571-.125-7.647-.693-.075-.564,2.156-1.442,2.083-2.009s5.469-1.831,5.399-2.398-8.326-.143-8.393-.711,5.963-1.844,5.899-2.412-2.21-.902-2.271-1.47.65-1.216.592-1.785-5.459-.628-5.513-1.197-.25-1.159-.3-1.729c-.05-.572,9.495-1.955,9.449-2.524-.047-.573-1.142-1.03-1.184-1.6-.042-.574.329-1.142.291-1.712-.038-.575.91-1.166.877-1.736-.033-.576-.471-1.08-.498-1.649-.028-.574-5.173-.901-5.195-1.468-.022-.575,1.817-1.199,1.801-1.766-.016-.576-1.46-1.105-1.469-1.672-.009-.576-.76-1.142-.762-1.709-.002-.577-3.27-1.19-3.264-1.756.006-.577.324-1.199.339-1.764.015-.578.578-1.185.602-1.748.025-.578,6.378-.811,6.413-1.373.036-.578.665-1.023.712-1.583.049-.579-9.175-2.064-9.113-2.623.064-.579,6.968-.351,7.046-.907.081-.578.003-1.118.099-1.67.101-.577-1.006-1.343-.888-1.888.124-.573-.248-1.255-.104-1.791.153-.568-3.079-2.285-2.902-2.809.189-.559,8.688,2.127,8.905,1.621.234-.544-.259-.879.008-1.357.29-.518-6.678-5.764-6.346-6.2.358-.47,1.734-.995,2.143-1.363.433-.39,3.24,1.117,3.732.849.843-.114,1.166-.781,2.237-.506.46.118,1.28-.554,1.914-.377.497.139.407,2.603,1.002,2.78.509.152-.613,5.626-.037,5.808.515.162,3.065-5.972,3.63-5.784.518.172-1.06,6.518-.502,6.711.52.18,2.317-3.319,2.869-3.119.519.188,1.33-.399,1.876-.193.519.195-.409,4.109.132,4.321.518.203,2.449-3.187,2.986-2.969.517.21,2.5-3.053,3.034-2.828.515.217-1.315,5.939-.785,6.17.513.224.045,2.563.571,2.8.511.231,3.787-5.602,4.31-5.359.509.237-1.729,6.244-1.21,6.494.507.244,1.521-.655,2.037-.399.504.25,2.514-2.52,3.025-2.258.501.257-.57,3.495-.062,3.764.498.263,1.327-.161,1.831.114.495.27,4.299-5.41,4.799-5.128.492.276-2.497,6.68-2.001,6.968.489.283,3.919-4.433,4.411-4.139.485.289-1.3,4.354-.812,4.654.482.296,3.714-3.787,4.198-3.481.478.302-.525,2.972-.045,3.285.473.308-1.401,4.142-.926,4.461.469.315,4.294-4.302,4.764-3.977.465.322,1.24.274,1.706.606.461.328-2.861,5.898-2.399,6.236.457.335,1.75-.515,2.207-.17.452.341,1.243.206,1.695.557.448.348,3.859-3.037,4.306-2.679.443.354-3.729,6.391-3.287,6.755.438.361,2.729-1.547,3.165-1.177.432.367-1.915,3.895-1.484,4.271.427.373,3.123-1.884,3.548-1.501.421.38,2.969-1.565,3.388-1.175.415.386-.694,2.398-.281,2.793.41.392.982.605,1.389,1.007.404.399,1.343.262,1.744.67.398.405,3.543-1.798,3.937-1.384.392.411-6.217,7.371-5.829,7.791.385.417.704.778,1.086,1.204.378.423,4.524-2.532,4.898-2.1.372.429-3.089,4.062-2.722,4.501.365.436,9.28-6.174,9.641-5.73.357.441-3.57,4.36-3.217,4.81s-2.898,3.63-2.552,4.086c.344.453,6.421-3.383,6.759-2.921" style="fill: none; stroke: #000; stroke-linecap: round; stroke-linejoin: round; stroke-width: 40px;"/>
  <path d="M442.531,510.736c.67.513,2.679-2.624,3.549-1.974.38.284-1.508,3.737-.986,4.122.414.305-1.875,4.386-1.38,4.747.428.312,3.602-3.097,4.087-2.748.437.315.748.836,1.226,1.178.442.316-.44,2.525.034,2.86.447.316-1.258,3.74-.784,4.071.451.316,1.17.307,1.643.635.455.315.832.797,1.306,1.122.458.314.848.782,1.322,1.103.461.312,4.322-4.393,4.796-4.075.464.311.629,1.066,1.105,1.381.466.309,2.211-1.339,2.688-1.028.468.306-3.933,8.124-3.457,8.432.471.304,2.45-1.69,2.928-1.385.474.302,1.369-.029,1.849.272.477.299,3.823-4.019,4.305-3.722s-1.492,4.584-1.008,4.878,1.647-.537,2.133-.247.698,1.045,1.186,1.33,2.019-1.244,2.509-.964c.493.282-1.593,5.145-1.101,5.419.496.277,1.909-1.056,2.404-.788.5.272.159,2.179.656,2.441.505.266,1.895-1.108,2.395-.853.509.259-.671,4.016-.168,4.262.514.252,5.857-9.594,6.363-9.357.519.243-.551,3.77-.041,3.996.525.233.861.775,1.374.988.533.221.966.548,1.485.746.541.207.649,1.479,1.172,1.66.548.189,2.367-3.961,2.894-3.803.558.167-1.046,8.102-.515,8.23.569.138,1.666-1.592,2.201-1.501.581.099,1.007,4.422,1.543,4.46.855.055-.67-8.939.312-9.426.421-.209,1.969,2.17,2.484,1.723.38-.33-1.681-2.516-1.275-3.018.326-.403,6.911,3.59,7.242,3.055.278-.449-7.228-5.194-6.954-5.748.237-.479-.183-.859.047-1.425.203-.5.429-.674.624-1.248.175-.515.148-.839.314-1.417.151-.525,4.961.293,5.102-.287.13-.533,4.218-.24,4.338-.822.112-.54-4.357-2.007-4.254-2.59.096-.544,5.967-.204,6.054-.788.082-.548-4.088-1.755-4.014-2.339.07-.551,2.822-.838,2.884-1.422.059-.554-7.622-1.85-7.571-2.435.049-.556,8.547-.448,8.588-1.033.039-.558-3.24-1.366-3.208-1.95.031-.559.04-1.135.064-1.718.023-.56-1.368-1.175-1.351-1.759.016-.561,4.346-1.048,4.356-1.632.009-.562-8.583-1.216-8.579-1.799.003-.563,7.002-1.113,6.999-1.696-.003-.563-3.608-1.099-3.617-1.681-.008-.564-2.361-1.063-2.374-1.645-.013-.564,9.378-1.399,9.359-1.98-.018-.564-1.653-1.112-1.676-1.692-.022-.564-8.356-.767-8.384-1.347-.027-.564.287-1.119.256-1.698-.031-.564,4.712-1.397,4.677-1.976-.035-.564,1.693-1.256,1.654-1.834-.038-.564-4.696-.806-4.739-1.384-.042-.564-3.301-.863-3.347-1.441-.045-.564,11.515-2.091,11.466-2.667-.048-.564-8.862-.371-8.915-.947-.051-.565,8.634-1.958,8.579-2.535-.054-.565-10.416-.125-10.474-.702-.057-.565,1.875-1.323,1.814-1.898-.06-.565-.041-1.131-.105-1.707-.062-.564,3.026-1.483,2.96-2.058-.065-.565,1.75-1.361,1.682-1.937-.067-.565-.735-1.071-.805-1.645-.069-.565-7.093-.262-7.166-.837-.072-.565,3.305-3.217,3.23-3.791.575-.641,2.372,5.633,3.489,5.591.481-.018.819-6.065,1.482-6.094.52-.022.902-3.953,1.527-3.983.537-.025,1.591,9.772,2.2,9.741.544-.028.843-5.325,1.441-5.358.55-.03.901-3.764,1.494-3.798.554-.032,1.194,1.308,1.783,1.271.557-.034.976-2.224,1.562-2.262.559-.036,1.182.944,1.766.904.561-.038,1.374,3.495,1.957,3.453.562-.04,1.167.409,1.749.365.563-.042,1.455,3.996,2.035,3.951.564-.044.456-8.514,1.035-8.562.565-.046,1.099-.331,1.678-.38.566-.048,1.072-.624,1.65-.675.566-.05,1.62,5.318,2.197,5.264.565-.052,1.172.281,1.746.225.566-.055,1.421,2.732,1.996,2.674.566-.057.935-2.162,1.509-2.221.567-.059,1.361,1.925,1.935,1.863.567-.061,1.389,2.02,1.962,1.956.567-.064.378-6.859.95-6.926.568-.066,1.171.197,1.743.128.568-.068.844-2.448,1.416-2.519.568-.071,2.341,9.285,2.912,9.211.567-.073-.411-11.889.158-11.965s2.002,6.292,2.571,6.213.839-2.242,1.408-2.324,2.132,6.562,2.701,6.477,1.208.107,1.776.019-.515-10.662.053-10.753,1.784,3.891,2.352,3.796,1.737,3.324,2.304,3.226,1.394,1.146,1.959,1.044.991-1.121,1.556-1.227-.264-7.532.301-7.641.924-1.089,1.487-1.202c.566-.114,1.275.662,1.837.544.566-.119,2.135,4.528,2.696,4.405.565-.124,1.076-.495,1.635-.623.564-.129.636-2.323,1.193-2.456.563-.134,1.365.783,1.921.645.562-.14.818-1.405,1.372-1.549.56-.146,2.253,3.948,2.804,3.798.559-.153.879-1.234,1.428-1.391.557-.16.433-2.63.978-2.794.555-.168-.041-3.884.501-4.057.552-.176,1.83,2.059,2.369,1.877.55-.185,2.333,3.212,2.868,3.021.548-.196,2.462,3.132,2.993,2.93.544-.207-3.057-10.938-2.531-11.151.54-.219,1.705,1.387,2.225,1.161.535-.233.886-.572,1.398-.813.528-.248,2.569,2.784,3.071,2.528.521-.266,1.384.14,1.876-.135.512-.286-.478-3.01.002-3.306.499-.308,2.372,1.626,2.833,1.308.483-.334,2.834,1.719,3.274,1.373.462-.363-2.501-4.797-2.089-5.174.434-.397-1.352.425-.977.013.086-.845,4.438-.766,3.883-1.723-.238-.411.459-1.516.12-2.08-.265-.44.815-1.812.49-2.338-.279-.451-3.349.772-3.673.262-.289-.455-2.544.326-2.869-.172-.296-.455,1.667-2.42,1.342-2.909-.303-.455-4.354,1.602-4.682,1.119-.309-.455,6.71-5.976,6.378-6.454-.315-.454-1.639-.274-1.974-.747-.32-.452.558-1.836.22-2.305-.325-.45-3.312.978-3.654.513-.33-.448,1.349-2.449,1.003-2.909-.335-.446-.694-.945-1.043-1.402-.34-.444-3.79,1.468-4.144,1.015-.344-.441-5.597,2.994-5.954,2.544-.349-.439-.513-.977-.874-1.422-.353-.436,5.646-6.064,5.281-6.506-.357-.433-7.402,4.707-7.771,4.268-.362-.43.021-1.441-.351-1.876-.365-.426,3.454-4.46,3.079-4.89-.37-.423-3.327,1.434-3.707,1.007-.374-.42-1.376-.249-1.76-.672-.378-.417-2.495.807-2.883.388-.383-.414,2.387-3.734,1.995-4.149-.387-.411-.239-1.325-.635-1.737-.391-.407,2.491-4.025,2.091-4.432-.396-.403-4.695,3.037-5.099,2.633-.4-.399,3.534-5.212,3.126-5.611-.404-.395-3.663,2.11-4.075,1.715-.408-.391-5.193,3.863-5.608,3.472-.411-.386,4.716-6.716,4.297-7.101-.416-.382-3.108,1.721-3.532,1.34-.42-.378,3.133-5.263,2.705-5.639-.425-.374-2.748,1.367-3.18.995-.429-.369-2.399,1.048-2.835.681-.434-.365,1.773-3.946,1.333-4.308-.438-.36-3.132,2.012-3.577,1.655-.441-.354-3.144,2.162-3.592,1.811s-.454-1.216-.907-1.562-2.696,1.764-3.153,1.423c-.454-.339.623-2.677.162-3.011s.64-2.812.174-3.141-6.231-1.032-6.701-1.356c.035-.857,6.216.313,7.123-.328.392-.277-1.43-3.827-.892-4.21.422-.301,2.241,1.273,2.745.911.435-.313-1.193-3.53-.701-3.886.442-.32,5.583,5.786,6.067,5.433.445-.324,2.448,1.419,2.926,1.068.447-.328-2.194-4.897-1.721-5.247.448-.331-.797-2.968-.327-3.317.449-.334,2.44,1.383,2.907,1.033.449-.336-1.401-3.744-.936-4.094.449-.338,4.521,4.104,4.983,3.753.449-.34-1.649-4.042-1.188-4.393.448-.342-1.586-3.918-1.128-4.27.448-.345,7.802,8.253,8.259,7.899.448-.347-1.919-4.343-1.463-4.698.447-.349,2.842,1.769,3.295,1.412.447-.351,1.696.283,2.148-.075.446-.353.75-.922,1.2-1.28.445-.355-3.9-6.709-3.452-7.069.444-.357,1.988.655,2.435.293.443-.359-.71-2.67-.264-3.034.441-.36,3.055,1.937,3.497,1.573s-1.087-3.093-.646-3.46,1.39-.1,1.829-.468,2.955,1.733,3.392,1.362,2.926,1.648,3.362,1.275-2.988-5.236-2.555-5.611,1.836.371,2.267-.007,3.683,2.427,4.111,2.047-5.523-7.91-5.098-8.292,7.77,6.889,8.194,6.504c.426-.387,1.036-.622,1.456-1.01.423-.391.325-1.39.742-1.78.42-.394-3.204-5.079-2.791-5.473.417-.398.119-1.507.529-1.904.414-.401,1.947.371,2.351-.03.41-.406-.919-2.513-.519-2.917.406-.41,7.427,5.647,7.822,5.239.402-.415.379-1.325.768-1.737.398-.421.843-.886,1.227-1.304.392-.427-2.723-4.075-2.346-4.498.386-.434,3.514,1.493,3.883,1.064.379-.441-3.106-4.165-2.747-4.6.37-.448-1.01-2.235-.661-2.676.362-.458,1.563-.169,1.899-.619.351-.469-1.44-2.341-1.118-2.8.336-.48,1.226-.378,1.529-.847.319-.494,7.13,3.023,7.41,2.543.297-.51-2.555-2.842-2.305-3.334.268-.528-3.412-.132-3.201-.638-.211-.837,6.699-5.334,5.842-6.053-.37-.31-2.137.761-2.659.347-.41-.325-3.517,2.702-4.018,2.323-.43-.325-2.06.983-2.554.625-.443-.321-1.672.545-2.166.202-.454-.316,2.494-5.62,1.998-5.951-.463-.309-2.968,2.48-3.468,2.16-.472-.302,1.433-4.419.93-4.729-.479-.295-2.413,1.762-2.92,1.462-.486-.287,1.117-4.26.605-4.55-.492-.279-3.054,3.078-3.569,2.797-.498-.271-1.84,1.067-2.359.796-.504-.263,2.606-7.685,2.083-7.947-.509-.255-2.02,1.33-2.548,1.078-.514-.246-2.33,2.183-2.861,1.94-.519-.237-1.936,1.539-2.471,1.306-.524-.228.027-3-.512-3.223-.528-.219-1.261.004-1.803-.209-.532-.209-.929-.843-1.474-1.046-.536-.199-.187-3.005-.736-3.198-.54-.19-1.79,1.516-2.342,1.334-.543-.18-2.253,3.259-2.808,3.087-.547-.169-1.44.959-1.998.798-.55-.159-.16-3.604-.72-3.754-.553-.149-1.595,1.626-2.159,1.486-.557-.138-.697-1.979-1.264-2.108-.56-.127-1.595,2.008-2.164,1.889-.562-.117-.235-4.773-.806-4.879-.564-.105-1.335.716-1.908.62-.566-.094-1.663,3.217-2.238,3.133-.569-.083-.23-7.089-.807-7.162-.57-.072-1.463,1.923-2.041,1.862-.572-.06-1.595,4.443-2.175,4.394-.573-.049-.925-3.06-1.505-3.097" style="fill: none; stroke: #000; stroke-linecap: round; stroke-linejoin: round; stroke-width: 40px;"/>
  <g>
    <path d="M464.096,322.689c.567-.637-4.941-5.038-4.226-5.89.305-.364,4.083,2.054,4.5,1.543.325-.398.332-1.125.719-1.609.331-.415,1.284-.393,1.656-.87.333-.426,2.855.781,3.218.307.332-.433-3.908-4.374-3.553-4.846.33-.439-.769-1.935-.42-2.406.328-.444,6.444,3.34,6.787,2.868.326-.448-6.172-5.822-5.833-6.295.323-.452,4.651,1.947,4.985,1.472.32-.456,5.009,2.1,5.339,1.623.318-.459-.058-1.448.267-1.926.315-.462,1.679-.27,2-.75.312-.466-4.598-4.428-4.281-4.91.309-.468,6.394,2.806,6.707,2.323.305-.471.64-.985.949-1.47.302-.474-1.083-2.066-.777-2.553.299-.477-6.186-5.179-5.884-5.668.295-.479-.694-1.707-.397-2.198.292-.481,10.167,4.794,10.46,4.302.289-.484-.359-1.571-.07-2.065.285-.486.533-1.039.819-1.535.282-.489-5.526-4.468-5.244-4.967.278-.491,3.459.649,3.737.149.275-.494,2.333-.024,2.608-.527.271-.496-5.062-4.024-4.792-4.529.267-.498,1.223-.607,1.489-1.114.263-.501,5.84,1.76,6.102,1.252.26-.503-6.53-4.604-6.271-5.114.256-.505,9.938,3.702,10.192,3.19.252-.508-7.699-5.055-7.449-5.57.248-.51,8.586,2.856,8.832,2.339.244-.512-5.83-4.02-5.589-4.538.239-.514,2.604-.051,2.841-.571.235-.516-4.156-3.104-3.924-3.627.231-.518,1.511-.545,1.739-1.069.226-.52,6.962,1.749,7.186,1.223.221-.521-2.377-2.252-2.159-2.779.217-.523,3.441.156,3.654-.373.212-.525-6.905-3.98-6.697-4.511.208-.527,4.141.405,4.345-.127.203-.53-4.228-2.793-4.029-3.327.198-.532,6.808,1.301,7.002.765s-5.264-3.079-5.075-3.617,3.583.056,3.767-.484-.622-1.401-.444-1.943,2.43-.406,2.604-.95,1.755-.66,1.923-1.205-5.087-2.724-4.925-3.271,6.776.788,6.933.24,1.714-.747,1.865-1.298-4.786-2.492-4.64-3.044-.41-1.274-.27-1.828-2.062-1.656-1.928-2.211,8.057.718,8.184.162-7.998-2.955-7.877-3.513,2.219-.661,2.334-1.219,6.13.051,6.238-.51.899-1.042,1.002-1.604-6.078-2.245-5.982-2.808-.68-1.242-.591-1.806-2.165-1.437-2.083-2.002,6.322-.25,6.397-.816-3.099-1.538-3.03-2.105,2.334-.871,2.395-1.439,5.124-.662,5.178-1.231-8.451-1.908-8.405-2.477,6.322-.663,6.361-1.233-1.004-1.239-.972-1.809-3.552-1.298-3.534-1.869,2.526-1.086,2.528-1.657-.463-1.151-.475-1.722-.434-1.13-.46-1.7-5.11-.781-5.15-1.35,7.205-1.705,7.151-2.274-7.437-.315-7.504-.882,9.453-2.381,9.372-2.946-5.773-.299-5.867-.862-.615-1.016-.722-1.577-3.343-.414-3.462-.973,6.46-2.594,6.328-3.15-4.421-.073-4.565-.626.588-1.302.432-1.851-1.802-.61-1.97-1.155,2.42-1.937,2.241-2.479-.502-1.032-.692-1.57,3.518-2.545,3.316-3.079-.605-1.075-.818-1.605-6.756,1.55-6.979,1.025,3.063-2.561,2.829-3.082-2.825.059-3.069-.457,1.464-1.965,1.209-2.476-5.884,1.787-6.149,1.281,2.928-2.783,2.653-3.283,2.944-2.97,2.659-3.465-6.943,2.795-7.237,2.305,4.944-4.337,4.64-4.82-5.756,2.381-6.069,1.903,1.669-2.411,1.346-2.882-3.597,1.213-3.929.748,8.688-7.731,8.348-8.19-3.409,1.05-3.758.598-1.756-.114-2.113-.559,2.315-3.449,1.949-3.887-8.243,5.517-8.618,5.086,6.95-7.687,6.568-8.111-8.599,6.354-8.99,5.937,1.226-2.651.828-3.06.13-1.69-.276-2.091.752-2.416.339-2.809-.445-1.236-.866-1.622-4.927,3.817-5.356,3.439-.013-1.62-.448-1.989-.125-1.556-.568-1.917-3.088,2.154-3.538,1.802,4.832-8.13,4.376-8.474-1.677.25-2.14-.085-1.255-.277-1.724-.603-4.344,4.389-4.819,4.072,4.186-8.517,3.705-8.825-5.784,7.061-6.271,6.763,1.888-5.332,1.395-5.621-3.309,3.495-3.807,3.215-1.856,1.162-2.359.892,3.403-8.956,2.894-9.216-4.404,6.224-4.917,5.974,2.197-7.315,1.678-7.556-1.442.216-1.965-.015-1.426.256-1.953.035-1.218-.187-1.75-.398-.371-2.42-.907-2.62-4.703,9.684-5.243,9.496-.381-2.119-.925-2.294-.083-3.427-.631-3.59-.562-2.228-1.114-2.379-2.732,6.082-3.287,5.943.532-6.99-.025-7.117-1.081-.603-1.641-.719-.602-3.286-1.165-3.39-1.64,2.302-2.205,2.21-.77-3.079-1.337-3.159-1.407,1.184-1.975,1.115-2.202,9.482-2.771,9.424-.863-2.147-1.434-2.195-1.17,1.383-1.741,1.346-.753-6.555-1.325-6.581-1.312,5.068-1.884,5.052-1.039-4.17-1.612-4.176-1.12,4.395-1.692,4.4-1.148-2.799-1.72-2.785-1.008,2.846-1.579,2.87-1.26-3.036-1.831-3.003-1.611-6.313-2.182-6.27-.787,4.946-1.356,4.998-.538,5.785-1.107,5.847-2.206-9.121-2.774-9.051.145,9.777-.421,9.856-1.053.139-1.618.227-.985.545-1.548.641-2.641-8.364-3.203-8.259.168,6.814-.393,6.927-2.54-6.537-3.098-6.415.123,5.765-.434,5.895-2.138-4.001-2.693-3.863.347,5.901-.206,6.047-.844,1.025-1.395,1.179-2.754-5.529-3.303-5.368.843,6.647.297,6.816-2.477-4.147-3.021-3.97-.387,2.389-.928,2.573-.428,2.096-.967,2.288-.854.808-1.39,1.008-4.925-9.71-5.458-9.503.02,3.32-.509,3.534-.055,2.92-.582,3.141.444,3.879-.08,4.108-2.434-2.719-2.955-2.483.242,3.201-.275,3.444-.512,1.464-1.025,1.714-4.931-7.371-5.441-7.113.135,2.869-.372,3.133,2.001,6.175,1.498,6.447-3.578-4.196-4.077-3.918-1.564-.396-2.059-.111-.029,2.245-.52,2.537,2.112,5.624,1.626,5.923-1.815-.88-2.297-.574-3.819-3.85-4.297-3.537,1.137,3.758.664,4.078-3.616-3.246-4.084-2.919,2.226,5.105,1.763,5.439-2.501-1.528-2.959-1.187.847,2.969.394,3.317-1.695-.383-2.142-.029-3.177-2.129-3.618-1.768-2.496-1.144-2.932-.776,1.482,3.538,1.052,3.913-4.309-3.061-4.733-2.679-1.007.731-1.424,1.119,2.638,4.521,2.227,4.917,3.578,5.217,3.174,5.62-1.466.034-1.862.443c-.401.415-3.41-1.714-3.805-1.294s1.311,2.749.922,3.174-4.245-2.312-4.629-1.882-.749.892-1.127,1.326,1.045,2.415.672,2.854-1.393.32-1.761.763-3.983-1.749-4.346-1.301,3.028,3.916,2.671,4.368-5.787-3.028-6.139-2.573,6.531,6.446,6.185,6.906-3.675-1.33-4.017-.867c-.344.466-4.864-2.088-5.202-1.621-.339.47,4.615,4.737,4.282,5.208-.334.473-1.675.229-2.002.703-.33.477-3.95-1.28-4.273-.803-.325.48-1.826.22-2.144.7-.32.483,2.338,2.954,2.025,3.436-.316.486,5.269,4.737,4.96,5.222-.311.489-9.786-4.793-10.09-4.305-.307.492.861,1.937.561,2.427-.302.495-2.446-.079-2.741.414-.298.498-.938.848-1.229,1.344-.294.501,7.521,5.72,7.235,6.218-.289.503-6.081-2.133-6.363-1.634-.285.506-2.126.175-2.403.676-.281.508,4.817,3.973,4.544,4.477-.277.511-.26,1.16-.528,1.665-.273.513-6.772-2.243-7.037-1.737-.269.516,5.8,4.315,5.54,4.823-.265.518-2.717-.083-2.972.427-.261.521-4.014-.677-4.266-.165-.258.524,1.658,2.127,1.41,2.64-.254.527,2.937,2.691,2.694,3.206-.25.529-4.163-.662-4.402-.146-.247.532,3.372,2.828,3.138,3.345-.243.535-.704.945-.934,1.462-.239.537.616,1.524.391,2.041-.235.54-5.742-1.203-5.962-.686-.232.544,2.923,2.507,2.708,3.024-.229.549-1.555.625-1.765,1.141-.226.556.53,1.482.326,1.998-.223.562-3.725-.179-3.923.332-.221.571,1.666,1.924,1.477,2.428-.22.587-.674,1.041-.851,1.53-.227.626-4.103-.103-4.261.351-.368,1.056,7.98,5.202,7.98,5.202" style="fill: #fff;"/>
    <path d="M464.096,322.689c.567-.637-4.941-5.038-4.226-5.89.305-.364,4.083,2.054,4.5,1.543.325-.398.332-1.125.719-1.609.331-.415,1.284-.393,1.656-.87.333-.426,2.855.781,3.218.307.332-.433-3.908-4.374-3.553-4.846.33-.439-.769-1.935-.42-2.406.328-.444,6.444,3.34,6.787,2.868.326-.448-6.172-5.822-5.833-6.295.323-.452,4.651,1.947,4.985,1.472.32-.456,5.009,2.1,5.339,1.623.318-.459-.058-1.448.267-1.926.315-.462,1.679-.27,2-.75.312-.466-4.598-4.428-4.281-4.91.309-.468,6.394,2.806,6.707,2.323.305-.471.64-.985.949-1.47.302-.474-1.083-2.066-.777-2.553.299-.477-6.186-5.179-5.884-5.668.295-.479-.694-1.707-.397-2.198.292-.481,10.167,4.794,10.46,4.302.289-.484-.359-1.571-.07-2.065.285-.486.533-1.039.819-1.535.282-.489-5.526-4.468-5.244-4.967.278-.491,3.459.649,3.737.149.275-.494,2.333-.024,2.608-.527.271-.496-5.062-4.024-4.792-4.529.267-.498,1.223-.607,1.489-1.114.263-.501,5.84,1.76,6.102,1.252.26-.503-6.53-4.604-6.271-5.114.256-.505,9.938,3.702,10.192,3.19.252-.508-7.699-5.055-7.449-5.57.248-.51,8.586,2.856,8.832,2.339.244-.512-5.83-4.02-5.589-4.538.239-.514,2.604-.051,2.841-.571.235-.516-4.156-3.104-3.924-3.627.231-.518,1.511-.545,1.739-1.069.226-.52,6.962,1.749,7.186,1.223.221-.521-2.377-2.252-2.159-2.779.217-.523,3.441.156,3.654-.373.212-.525-6.905-3.98-6.697-4.511.208-.527,4.141.405,4.345-.127.203-.53-4.228-2.793-4.029-3.327.198-.532,6.808,1.301,7.002.765s-5.264-3.079-5.075-3.617,3.583.056,3.767-.484-.622-1.401-.444-1.943,2.43-.406,2.604-.95,1.755-.66,1.923-1.205-5.087-2.724-4.925-3.271,6.776.788,6.933.24,1.714-.747,1.865-1.298-4.786-2.492-4.64-3.044-.41-1.274-.27-1.828-2.062-1.656-1.928-2.211,8.057.718,8.184.162-7.998-2.955-7.877-3.513,2.219-.661,2.334-1.219,6.13.051,6.238-.51.899-1.042,1.002-1.604-6.078-2.245-5.982-2.808-.68-1.242-.591-1.806-2.165-1.437-2.083-2.002,6.322-.25,6.397-.816-3.099-1.538-3.03-2.105,2.334-.871,2.395-1.439,5.124-.662,5.178-1.231-8.451-1.908-8.405-2.477,6.322-.663,6.361-1.233-1.004-1.239-.972-1.809-3.552-1.298-3.534-1.869,2.526-1.086,2.528-1.657-.463-1.151-.475-1.722-.434-1.13-.46-1.7-5.11-.781-5.15-1.35,7.205-1.705,7.151-2.274-7.437-.315-7.504-.882,9.453-2.381,9.372-2.946-5.773-.299-5.867-.862-.615-1.016-.722-1.577-3.343-.414-3.462-.973,6.46-2.594,6.328-3.15-4.421-.073-4.565-.626.588-1.302.432-1.851-1.802-.61-1.97-1.155,2.42-1.937,2.241-2.479-.502-1.032-.692-1.57,3.518-2.545,3.316-3.079-.605-1.075-.818-1.605-6.756,1.55-6.979,1.025,3.063-2.561,2.829-3.082-2.825.059-3.069-.457,1.464-1.965,1.209-2.476-5.884,1.787-6.149,1.281,2.928-2.783,2.653-3.283,2.944-2.97,2.659-3.465-6.943,2.795-7.237,2.305,4.944-4.337,4.64-4.82-5.756,2.381-6.069,1.903,1.669-2.411,1.346-2.882-3.597,1.213-3.929.748,8.688-7.731,8.348-8.19-3.409,1.05-3.758.598-1.756-.114-2.113-.559,2.315-3.449,1.949-3.887-8.243,5.517-8.618,5.086,6.95-7.687,6.568-8.111-8.599,6.354-8.99,5.937,1.226-2.651.828-3.06.13-1.69-.276-2.091.752-2.416.339-2.809-.445-1.236-.866-1.622-4.927,3.817-5.356,3.439-.013-1.62-.448-1.989-.125-1.556-.568-1.917-3.088,2.154-3.538,1.802,4.832-8.13,4.376-8.474-1.677.25-2.14-.085-1.255-.277-1.724-.603-4.344,4.389-4.819,4.072,4.186-8.517,3.705-8.825-5.784,7.061-6.271,6.763,1.888-5.332,1.395-5.621-3.309,3.495-3.807,3.215-1.856,1.162-2.359.892,3.403-8.956,2.894-9.216-4.404,6.224-4.917,5.974,2.197-7.315,1.678-7.556-1.442.216-1.965-.015-1.426.256-1.953.035-1.218-.187-1.75-.398-.371-2.42-.907-2.62-4.703,9.684-5.243,9.496-.381-2.119-.925-2.294-.083-3.427-.631-3.59-.562-2.228-1.114-2.379-2.732,6.082-3.287,5.943.532-6.99-.025-7.117-1.081-.603-1.641-.719-.602-3.286-1.165-3.39-1.64,2.302-2.205,2.21-.77-3.079-1.337-3.159-1.407,1.184-1.975,1.115-2.202,9.482-2.771,9.424-.863-2.147-1.434-2.195-1.17,1.383-1.741,1.346-.753-6.555-1.325-6.581-1.312,5.068-1.884,5.052-1.039-4.17-1.612-4.176-1.12,4.395-1.692,4.4-1.148-2.799-1.72-2.785-1.008,2.846-1.579,2.87-1.26-3.036-1.831-3.003-1.611-6.313-2.182-6.27-.787,4.946-1.356,4.998-.538,5.785-1.107,5.847-2.206-9.121-2.774-9.051.145,9.777-.421,9.856-1.053.139-1.618.227-.985.545-1.548.641-2.641-8.364-3.203-8.259.168,6.814-.393,6.927-2.54-6.537-3.098-6.415.123,5.765-.434,5.895-2.138-4.001-2.693-3.863.347,5.901-.206,6.047-.844,1.025-1.395,1.179-2.754-5.529-3.303-5.368.843,6.647.297,6.816-2.477-4.147-3.021-3.97-.387,2.389-.928,2.573-.428,2.096-.967,2.288-.854.808-1.39,1.008-4.925-9.71-5.458-9.503.02,3.32-.509,3.534-.055,2.92-.582,3.141.444,3.879-.08,4.108-2.434-2.719-2.955-2.483.242,3.201-.275,3.444-.512,1.464-1.025,1.714-4.931-7.371-5.441-7.113.135,2.869-.372,3.133,2.001,6.175,1.498,6.447-3.578-4.196-4.077-3.918-1.564-.396-2.059-.111-.029,2.245-.52,2.537,2.112,5.624,1.626,5.923-1.815-.88-2.297-.574-3.819-3.85-4.297-3.537,1.137,3.758.664,4.078-3.616-3.246-4.084-2.919,2.226,5.105,1.763,5.439-2.501-1.528-2.959-1.187.847,2.969.394,3.317-1.695-.383-2.142-.029-3.177-2.129-3.618-1.768-2.496-1.144-2.932-.776,1.482,3.538,1.052,3.913-4.309-3.061-4.733-2.679-1.007.731-1.424,1.119,2.638,4.521,2.227,4.917,3.578,5.217,3.174,5.62-1.466.034-1.862.443c-.401.415-3.41-1.714-3.805-1.294s1.311,2.749.922,3.174-4.245-2.312-4.629-1.882-.749.892-1.127,1.326,1.045,2.415.672,2.854-1.393.32-1.761.763-3.983-1.749-4.346-1.301,3.028,3.916,2.671,4.368-5.787-3.028-6.139-2.573,6.531,6.446,6.185,6.906-3.675-1.33-4.017-.867c-.344.466-4.864-2.088-5.202-1.621-.339.47,4.615,4.737,4.282,5.208-.334.473-1.675.229-2.002.703-.33.477-3.95-1.28-4.273-.803-.325.48-1.826.22-2.144.7-.32.483,2.338,2.954,2.025,3.436-.316.486,5.269,4.737,4.96,5.222-.311.489-9.786-4.793-10.09-4.305-.307.492.861,1.937.561,2.427-.302.495-2.446-.079-2.741.414-.298.498-.938.848-1.229,1.344-.294.501,7.521,5.72,7.235,6.218-.289.503-6.081-2.133-6.363-1.634-.285.506-2.126.175-2.403.676-.281.508,4.817,3.973,4.544,4.477-.277.511-.26,1.16-.528,1.665-.273.513-6.772-2.243-7.037-1.737-.269.516,5.8,4.315,5.54,4.823-.265.518-2.717-.083-2.972.427-.261.521-4.014-.677-4.266-.165-.258.524,1.658,2.127,1.41,2.64-.254.527,2.937,2.691,2.694,3.206-.25.529-4.163-.662-4.402-.146-.247.532,3.372,2.828,3.138,3.345-.243.535-.704.945-.934,1.462-.239.537.616,1.524.391,2.041-.235.54-5.742-1.203-5.962-.686-.232.544,2.923,2.507,2.708,3.024-.229.549-1.555.625-1.765,1.141-.226.556.53,1.482.326,1.998-.223.562-3.725-.179-3.923.332-.221.571,1.666,1.924,1.477,2.428-.22.587-.674,1.041-.851,1.53-.227.626-4.103-.103-4.261.351-.368,1.056,7.98,5.202,7.98,5.202" style="fill: none; stroke: #000; stroke-linecap: round; stroke-linejoin: round; stroke-width: 40px;"/>
  </g>
  <g>
    <path d="M350.735,319.069c-.508-.237.796-3.943.273-4.209-.502-.255-5.064,7.257-5.578,6.976-.495-.27.047-2.514-.458-2.807-.489-.284,2.443-6.21,1.945-6.515-.483-.296-4.839,5.644-5.329,5.328-.477-.307-3.232,2.703-3.716,2.379-.472-.317,1.671-4.569,1.194-4.902-.466-.326-.07-1.879-.541-2.221-.461-.335-2.101.905-2.565.556-.456-.343,3.303-6.154,2.845-6.51-.45-.35-6.275,6.127-6.727,5.764-.445-.357,2.785-5.245,2.339-5.614-.44-.364-1.871.487-2.312.111-.436-.371,1.934-3.931,1.499-4.312-.431-.377-6.829,5.983-7.259,5.596-.426-.383-1.284-.377-1.708-.769-.421-.389-.997-.701-1.416-1.099-.416-.395,6.101-7.992,5.687-8.395-.41-.4-6.164,4.641-6.572,4.233-.405-.405-.663-.996-1.065-1.409-.4-.411,2.953-4.42,2.556-4.839-.395-.416.062-1.563-.33-1.987s-2.802,1.054-3.188.625,1.627-2.927,1.247-3.361-3.238,1.335-3.612.897-1.694-.063-2.062-.507-4.792,2.392-5.154,1.944-1.148-.652-1.504-1.105,2.629-3.547,2.28-4.006,3.188-3.808,2.846-4.272.991-2.059.656-2.527-9.933,5.583-10.261,5.11,7.694-6.646,7.374-7.124-2.461.303-2.773-.18,2.428-2.827,2.124-3.315-9.515,4.47-9.81,3.977,1.469-2.271,1.182-2.769,5.105-4.173,4.828-4.677-3.394.573-3.661.064c-.269-.511-1.192-.671-1.449-1.185-.258-.517-.503-1.033-.749-1.552-.248-.522-5.491,1.199-5.725.675-.236-.528,9.736-5.476,9.514-6.005-.224-.533-9.366,2.589-9.576,2.054-.211-.538.707-1.586.511-2.125-.198-.543,4.779-2.887,4.597-3.431-.184-.548-3.947.08-4.114-.469-.168-.553,2.136-1.805,1.985-2.359-.152-.558,2.477-1.731,2.343-2.289-.136-.562-10.385,1.128-10.502.566-.118-.566,10.426-3.174,10.328-3.74-.099-.57-.208-.958-.287-1.527-.079-.573-5.992-.374-6.05-.945-.058-.575,2.725-1.359,2.689-1.932-.036-.576-4.658-.974-4.67-1.548s5.497-1.156,5.508-1.731-.169-1.042-.133-1.616-6.414-1.73-6.352-2.302,4.998-.573,5.086-1.142,4.457-.22,4.571-.785-6.063-2.457-5.922-3.016,1.113-.916,1.282-1.468c.168-.548,4.145.26,4.34-.283.194-.539-4.083-2.743-3.86-3.277.22-.529-4.033-3.238-3.785-3.761s4.618.871,4.877.366c.263-.514,5.652,1.755,5.926,1.258.279-.505-5.068-4.184-4.778-4.672.294-.496,4.306,1.309,4.612.83.31-.485-2.457-2.989-2.135-3.458.326-.475,3.413,1.035,3.751.578.342-.463-4.111-4.642-3.757-5.087.358-.45,3.634,1.403,4.004.971.373-.437,5.079,3.082,5.463,2.663.388-.424-2-3.304-1.601-3.71.403-.409-2.493-4.217-2.078-4.608.417-.394,2.747,1.228,3.176.852.431-.379,3.473,2.43,3.915,2.069.444-.363-3.481-6.256-3.026-6.601s.989-.78,1.456-1.109.178-2.027.657-2.339,2.903,2.271,3.392,1.975,2.349,1.766,2.848,1.487-1.278-4.863-.77-5.126,3.555,4.543,4.071,4.297,2.005,1.897,2.529,1.668-.941-5.011-.41-5.225-.768-5.415-.231-5.613,2.885,4.503,3.428,4.321.766-1.437,1.314-1.604,3.003,6.454,3.556,6.302-.368-5.637.188-5.774,1.488,1.447,2.048,1.323-.283-7.181.279-7.291,2.181,5.239,2.746,5.142,1.612,3.14,2.178,3.057,1.271,1.598,1.839,1.527.133-8.685.703-8.744,1.892,8.192,2.463,8.145.426-9.796.998-9.832,1.614,8.721,2.186,8.696.882-7.305,1.455-7.319,1.189-1.329,1.762-1.333,1.156,6.189,1.728,6.195,1.068,1.663,1.64,1.679,1.143-1.268,1.715-1.243,1.435-5.405,2.006-5.371.505,9.192,1.075,9.235,1.708-7.143,2.278-7.091,1.226-.516,1.795-.456,1.458-2.293,2.026-2.224,1.308-.663,1.875-.586,1.134.66,1.699.745,1.326-.615,1.89-.524.493,4.228,1.056,4.327.544,3.384,1.105,3.49,1.713-2.79,2.273-2.676,2.112-4.263,2.67-4.142-.351,6.982.205,7.11c.559.128.845,1.324,1.399,1.458.558.135,1.043.444,1.596.585.558.143.963.737,1.515.886.556.149.614,1.931,1.164,2.086.554.156,3.27-7.207,3.817-7.045.552.163.755,1.589,1.299,1.757.549.17-1.347,8.003-.806,8.178.547.176,1.099.099,1.637.28.545.183,2.864-4.926,3.4-4.738.543.19.057,3.192.59,3.387.542.198,3.257-5.458,3.788-5.256.538.204,1.121.397,1.648.605.536.212-1.554,6.924-1.03,7.139.533.219,4.325-7.345,4.845-7.123.53.226-1.573,6.528-1.057,6.757s3.469-4.792,3.988-4.546c.509.241-.804,4.323-.29,4.58.504.253,1.08.363,1.587.63.499.263,1.812-.946,2.314-.668.494.273-2.535,6.711-2.039,6.998.489.282,4.941-6.212,5.432-5.916.484.291,1.872-.786,2.358-.482.48.3,2.116-1.064,2.596-.752.475.308-1.205,4-.729,4.319.47.315-.9,3.343-.43,3.669.465.322.666.985,1.132,1.317.461.329-1.427,3.808-.967,4.147.456.336,5.338-5.293,5.793-4.948.452.343.129,1.719.579,2.071.447.349,1.831-.46,2.277-.102.443.355,3.498-2.423,3.939-2.06.438.361-3.779,6.353-3.342,6.722.434.366-.917,2.768-.485,3.142.429.372,2.502-1.18,2.928-.8.425.377-1.388,3.185-.966,3.569s7.037-5.959,7.455-5.569-1.463,3.251-1.051,3.646-.68,2.336-.273,2.735,3.157-1.56,3.56-1.156-2.98,4.522-2.582,4.93,5.706-3.903,6.098-3.49-5.671,6.867-5.284,7.285,4.792-2.886,5.174-2.464,4.457-2.412,4.834-1.985-4.131,5.145-3.76,5.577-.773,2.116-.407,2.552,3.57-1.504,3.931-1.063-1.591,2.735-1.236,3.18.876.721,1.225,1.171,5.637-2.874,5.98-2.42-.478,1.832-.14,2.29.12,1.357.451,1.82,4.055-1.402,4.38-.934.441,1.176.76,1.648-1.1,2.177-.789,2.653-5.852,5.117-5.548,5.598,1.597.284,1.894.769,8.227-3.598,8.516-3.109-3.135,3.209-2.853,3.702c.283.496-5.789,4.511-5.515,5.009s2.464-.119,2.729.383,5.452-1.549,5.709-1.043c.258.509-1.468,2.018-1.221,2.529.249.514,2.269.205,2.507.721.239.519,3.3-.166,3.528.354.229.523,1.109.877,1.327,1.401.219.527-6.864,4.035-6.657,4.563.208.532-1.462,1.699-1.267,2.232.197.536,6.573-1.148,6.757-.611.185.541-3.197,2.265-3.025,2.806.173.545-.419,1.273-.26,1.817.16.549,5.752-.401,5.897.148.146.553-7.46,3.031-7.329,3.583.132.556,5.185-.045,5.301.51.117.559,4.069.439,4.17.998.101.562-9.184,2.657-9.1,3.219.085.565,5.117.382,5.184.945.067.567,5.269.681,5.318,1.247.049.569.489,1.28.52,1.847.031.57-3.447,1.392-3.436,1.959.011.571.084,1.208.075,1.776s-4.527.975-4.557,1.542-.546.997-.597,1.563,8.241,2.102,8.167,2.666-7.559.079-7.655.64,6.865,2.543,6.746,3.1-9.544-1.066-9.686-.514,5.935,2.794,5.769,3.339-3.97-.098-4.159.44-3.062-.085-3.274.445c-.211.526,4.612,3.104,4.377,3.625-.233.517-4.75-1.086-5.008-.576-.255.505,2.438,2.465,2.159,2.964-.276.494,4.276,3.926,3.976,4.414-.296.482-7.255-3.271-7.575-2.796s3.907,4.181,3.565,4.634c-.344.456-1.331.557-1.697.991s.977,2.631.587,3.045-8.03-6.431-8.442-6.038,4.568,6.6,4.136,6.971-5.37-4.906-5.821-4.557,2.13,4.598,1.662,4.925c-.465.325.228,2.478-.255,2.783-.479.302-1.342.122-1.839.405-.492.28-4.069-5.299-4.578-5.038-.503.259-.164,1.844-.683,2.084-.513.238.486,3.747-.042,3.968-.522.218-1.268-.149-1.804.052-.53.199-.478,2.07-1.021,2.252-.536.18-.684,1.797-1.232,1.962-.542.163-1.66-1.499-2.213-1.351-.546.146-1.093.404-1.65.535-.55.13-.2,4.735-.76,4.852-.554.115-2.409-6.151-2.972-6.049-.557.101-.339,5.038-.905,5.126-.559.087-2.449-9.217-3.016-9.142-.561.074-.736,2.567-1.305,2.629-.563.061-.67,4.588-1.24,4.638-.563.05-1.255-1.355-1.825-1.316-.565.038-.934,4.099-1.505,4.127-.565.027-1.444-7.829-2.015-7.812-.566.017-1.011,4.288-1.582,4.296-.566.007-1.139-.244-1.711-.246-.567-.002-1.073-3.208-1.644-3.219-.567-.011-1.173,2.418-1.744,2.398-.567-.02-1.263,2.712-1.833,2.683-.567-.028-1.035-2.069-1.605-2.106-.566-.036-1.043-1.257-1.612-1.301-.566-.044-.893-2.553-1.462-2.605-.565-.052-1.362,2.544-1.93,2.485-.565-.059-.896-2.03-1.463-2.096-.564-.066-2.175,8.236-2.742,8.163-.564-.073-1.039-1.244-1.605-1.324s-.801-2.628-1.366-2.714-1.669,3.011-2.232,2.919.75-11.216.188-11.315-3.181,11.235-3.742,11.13.742-9.978.183-10.088-.914-.984-1.472-1.099-1.22.494-1.777.373-.751-1.641-1.307-1.767-2.259,4.827-2.814,4.695-2.059,3.607-2.612,3.47-1.723,2.005-2.275,1.863,1.023-8.458.472-8.605-1.129-.1-1.679-.252-3.113,6.823-3.661,6.666-.682-1.866-1.228-2.028.109-4.363-.436-4.53-2.985,5.719-3.529,5.548-.344-2.792-.886-2.968-.195-3.101-.735-3.281-2.359,3.362-2.897,3.177-.121-3.191-.658-3.38,1.158-6.572.623-6.766-1.668,1.351-2.201,1.153-2.702,3.973-3.233,3.77c-.534-.204.289-3.894-.241-4.102s-3.578,5.914-4.107,5.702-.834-1.063-1.36-1.279-1.796,1.249-2.32,1.028c-.526-.222,1.096-5.519.575-5.744-.525-.227-3.502,5.091-4.021,4.86s2.424-8.214,1.907-8.448c-.519-.236-1.466.511-1.98.272Z" style="fill: #fff;"/>
    <path d="M350.735,319.069c-.508-.237.796-3.943.273-4.209-.502-.255-5.064,7.257-5.578,6.976-.495-.27.047-2.514-.458-2.807-.489-.284,2.443-6.21,1.945-6.515-.483-.296-4.839,5.644-5.329,5.328-.477-.307-3.232,2.703-3.716,2.379-.472-.317,1.671-4.569,1.194-4.902-.466-.326-.07-1.879-.541-2.221-.461-.335-2.101.905-2.565.556-.456-.343,3.303-6.154,2.845-6.51-.45-.35-6.275,6.127-6.727,5.764-.445-.357,2.785-5.245,2.339-5.614-.44-.364-1.871.487-2.312.111-.436-.371,1.934-3.931,1.499-4.312-.431-.377-6.829,5.983-7.259,5.596-.426-.383-1.284-.377-1.708-.769-.421-.389-.997-.701-1.416-1.099-.416-.395,6.101-7.992,5.687-8.395-.41-.4-6.164,4.641-6.572,4.233-.405-.405-.663-.996-1.065-1.409-.4-.411,2.953-4.42,2.556-4.839-.395-.416.062-1.563-.33-1.987s-2.802,1.054-3.188.625,1.627-2.927,1.247-3.361-3.238,1.335-3.612.897-1.694-.063-2.062-.507-4.792,2.392-5.154,1.944-1.148-.652-1.504-1.105,2.629-3.547,2.28-4.006,3.188-3.808,2.846-4.272.991-2.059.656-2.527-9.933,5.583-10.261,5.11,7.694-6.646,7.374-7.124-2.461.303-2.773-.18,2.428-2.827,2.124-3.315-9.515,4.47-9.81,3.977,1.469-2.271,1.182-2.769,5.105-4.173,4.828-4.677-3.394.573-3.661.064c-.269-.511-1.192-.671-1.449-1.185-.258-.517-.503-1.033-.749-1.552-.248-.522-5.491,1.199-5.725.675-.236-.528,9.736-5.476,9.514-6.005-.224-.533-9.366,2.589-9.576,2.054-.211-.538.707-1.586.511-2.125-.198-.543,4.779-2.887,4.597-3.431-.184-.548-3.947.08-4.114-.469-.168-.553,2.136-1.805,1.985-2.359-.152-.558,2.477-1.731,2.343-2.289-.136-.562-10.385,1.128-10.502.566-.118-.566,10.426-3.174,10.328-3.74-.099-.57-.208-.958-.287-1.527-.079-.573-5.992-.374-6.05-.945-.058-.575,2.725-1.359,2.689-1.932-.036-.576-4.658-.974-4.67-1.548s5.497-1.156,5.508-1.731-.169-1.042-.133-1.616-6.414-1.73-6.352-2.302,4.998-.573,5.086-1.142,4.457-.22,4.571-.785-6.063-2.457-5.922-3.016,1.113-.916,1.282-1.468c.168-.548,4.145.26,4.34-.283.194-.539-4.083-2.743-3.86-3.277.22-.529-4.033-3.238-3.785-3.761s4.618.871,4.877.366c.263-.514,5.652,1.755,5.926,1.258.279-.505-5.068-4.184-4.778-4.672.294-.496,4.306,1.309,4.612.83.31-.485-2.457-2.989-2.135-3.458.326-.475,3.413,1.035,3.751.578.342-.463-4.111-4.642-3.757-5.087.358-.45,3.634,1.403,4.004.971.373-.437,5.079,3.082,5.463,2.663.388-.424-2-3.304-1.601-3.71.403-.409-2.493-4.217-2.078-4.608.417-.394,2.747,1.228,3.176.852.431-.379,3.473,2.43,3.915,2.069.444-.363-3.481-6.256-3.026-6.601s.989-.78,1.456-1.109.178-2.027.657-2.339,2.903,2.271,3.392,1.975,2.349,1.766,2.848,1.487-1.278-4.863-.77-5.126,3.555,4.543,4.071,4.297,2.005,1.897,2.529,1.668-.941-5.011-.41-5.225-.768-5.415-.231-5.613,2.885,4.503,3.428,4.321.766-1.437,1.314-1.604,3.003,6.454,3.556,6.302-.368-5.637.188-5.774,1.488,1.447,2.048,1.323-.283-7.181.279-7.291,2.181,5.239,2.746,5.142,1.612,3.14,2.178,3.057,1.271,1.598,1.839,1.527.133-8.685.703-8.744,1.892,8.192,2.463,8.145.426-9.796.998-9.832,1.614,8.721,2.186,8.696.882-7.305,1.455-7.319,1.189-1.329,1.762-1.333,1.156,6.189,1.728,6.195,1.068,1.663,1.64,1.679,1.143-1.268,1.715-1.243,1.435-5.405,2.006-5.371.505,9.192,1.075,9.235,1.708-7.143,2.278-7.091,1.226-.516,1.795-.456,1.458-2.293,2.026-2.224,1.308-.663,1.875-.586,1.134.66,1.699.745,1.326-.615,1.89-.524.493,4.228,1.056,4.327.544,3.384,1.105,3.49,1.713-2.79,2.273-2.676,2.112-4.263,2.67-4.142-.351,6.982.205,7.11c.559.128.845,1.324,1.399,1.458.558.135,1.043.444,1.596.585.558.143.963.737,1.515.886.556.149.614,1.931,1.164,2.086.554.156,3.27-7.207,3.817-7.045.552.163.755,1.589,1.299,1.757.549.17-1.347,8.003-.806,8.178.547.176,1.099.099,1.637.28.545.183,2.864-4.926,3.4-4.738.543.19.057,3.192.59,3.387.542.198,3.257-5.458,3.788-5.256.538.204,1.121.397,1.648.605.536.212-1.554,6.924-1.03,7.139.533.219,4.325-7.345,4.845-7.123.53.226-1.573,6.528-1.057,6.757s3.469-4.792,3.988-4.546c.509.241-.804,4.323-.29,4.58.504.253,1.08.363,1.587.63.499.263,1.812-.946,2.314-.668.494.273-2.535,6.711-2.039,6.998.489.282,4.941-6.212,5.432-5.916.484.291,1.872-.786,2.358-.482.48.3,2.116-1.064,2.596-.752.475.308-1.205,4-.729,4.319.47.315-.9,3.343-.43,3.669.465.322.666.985,1.132,1.317.461.329-1.427,3.808-.967,4.147.456.336,5.338-5.293,5.793-4.948.452.343.129,1.719.579,2.071.447.349,1.831-.46,2.277-.102.443.355,3.498-2.423,3.939-2.06.438.361-3.779,6.353-3.342,6.722.434.366-.917,2.768-.485,3.142.429.372,2.502-1.18,2.928-.8.425.377-1.388,3.185-.966,3.569s7.037-5.959,7.455-5.569-1.463,3.251-1.051,3.646-.68,2.336-.273,2.735,3.157-1.56,3.56-1.156-2.98,4.522-2.582,4.93,5.706-3.903,6.098-3.49-5.671,6.867-5.284,7.285,4.792-2.886,5.174-2.464,4.457-2.412,4.834-1.985-4.131,5.145-3.76,5.577-.773,2.116-.407,2.552,3.57-1.504,3.931-1.063-1.591,2.735-1.236,3.18.876.721,1.225,1.171,5.637-2.874,5.98-2.42-.478,1.832-.14,2.29.12,1.357.451,1.82,4.055-1.402,4.38-.934.441,1.176.76,1.648-1.1,2.177-.789,2.653-5.852,5.117-5.548,5.598,1.597.284,1.894.769,8.227-3.598,8.516-3.109-3.135,3.209-2.853,3.702c.283.496-5.789,4.511-5.515,5.009s2.464-.119,2.729.383,5.452-1.549,5.709-1.043c.258.509-1.468,2.018-1.221,2.529.249.514,2.269.205,2.507.721.239.519,3.3-.166,3.528.354.229.523,1.109.877,1.327,1.401.219.527-6.864,4.035-6.657,4.563.208.532-1.462,1.699-1.267,2.232.197.536,6.573-1.148,6.757-.611.185.541-3.197,2.265-3.025,2.806.173.545-.419,1.273-.26,1.817.16.549,5.752-.401,5.897.148.146.553-7.46,3.031-7.329,3.583.132.556,5.185-.045,5.301.51.117.559,4.069.439,4.17.998.101.562-9.184,2.657-9.1,3.219.085.565,5.117.382,5.184.945.067.567,5.269.681,5.318,1.247.049.569.489,1.28.52,1.847.031.57-3.447,1.392-3.436,1.959.011.571.084,1.208.075,1.776s-4.527.975-4.557,1.542-.546.997-.597,1.563,8.241,2.102,8.167,2.666-7.559.079-7.655.64,6.865,2.543,6.746,3.1-9.544-1.066-9.686-.514,5.935,2.794,5.769,3.339-3.97-.098-4.159.44-3.062-.085-3.274.445c-.211.526,4.612,3.104,4.377,3.625-.233.517-4.75-1.086-5.008-.576-.255.505,2.438,2.465,2.159,2.964-.276.494,4.276,3.926,3.976,4.414-.296.482-7.255-3.271-7.575-2.796s3.907,4.181,3.565,4.634c-.344.456-1.331.557-1.697.991s.977,2.631.587,3.045-8.03-6.431-8.442-6.038,4.568,6.6,4.136,6.971-5.37-4.906-5.821-4.557,2.13,4.598,1.662,4.925c-.465.325.228,2.478-.255,2.783-.479.302-1.342.122-1.839.405-.492.28-4.069-5.299-4.578-5.038-.503.259-.164,1.844-.683,2.084-.513.238.486,3.747-.042,3.968-.522.218-1.268-.149-1.804.052-.53.199-.478,2.07-1.021,2.252-.536.18-.684,1.797-1.232,1.962-.542.163-1.66-1.499-2.213-1.351-.546.146-1.093.404-1.65.535-.55.13-.2,4.735-.76,4.852-.554.115-2.409-6.151-2.972-6.049-.557.101-.339,5.038-.905,5.126-.559.087-2.449-9.217-3.016-9.142-.561.074-.736,2.567-1.305,2.629-.563.061-.67,4.588-1.24,4.638-.563.05-1.255-1.355-1.825-1.316-.565.038-.934,4.099-1.505,4.127-.565.027-1.444-7.829-2.015-7.812-.566.017-1.011,4.288-1.582,4.296-.566.007-1.139-.244-1.711-.246-.567-.002-1.073-3.208-1.644-3.219-.567-.011-1.173,2.418-1.744,2.398-.567-.02-1.263,2.712-1.833,2.683-.567-.028-1.035-2.069-1.605-2.106-.566-.036-1.043-1.257-1.612-1.301-.566-.044-.893-2.553-1.462-2.605-.565-.052-1.362,2.544-1.93,2.485-.565-.059-.896-2.03-1.463-2.096-.564-.066-2.175,8.236-2.742,8.163-.564-.073-1.039-1.244-1.605-1.324s-.801-2.628-1.366-2.714-1.669,3.011-2.232,2.919.75-11.216.188-11.315-3.181,11.235-3.742,11.13.742-9.978.183-10.088-.914-.984-1.472-1.099-1.22.494-1.777.373-.751-1.641-1.307-1.767-2.259,4.827-2.814,4.695-2.059,3.607-2.612,3.47-1.723,2.005-2.275,1.863,1.023-8.458.472-8.605-1.129-.1-1.679-.252-3.113,6.823-3.661,6.666-.682-1.866-1.228-2.028.109-4.363-.436-4.53-2.985,5.719-3.529,5.548-.344-2.792-.886-2.968-.195-3.101-.735-3.281-2.359,3.362-2.897,3.177-.121-3.191-.658-3.38,1.158-6.572.623-6.766-1.668,1.351-2.201,1.153-2.702,3.973-3.233,3.77c-.534-.204.289-3.894-.241-4.102s-3.578,5.914-4.107,5.702-.834-1.063-1.36-1.279-1.796,1.249-2.32,1.028c-.526-.222,1.096-5.519.575-5.744-.525-.227-3.502,5.091-4.021,4.86s2.424-8.214,1.907-8.448c-.519-.236-1.466.511-1.98.272Z" style="fill: none; stroke: #000; stroke-linecap: round; stroke-linejoin: round; stroke-width: 40px;"/>
  </g>
  <path d="M641.595,221.939c.097-.844-3.048-.946-2.937-2.042.047-.473.588-.99.649-1.642.048-.511-.682-1.143-.629-1.756.046-.528.681-1.041.731-1.64.044-.537,5.814-.66,5.859-1.251.042-.543-9.168-1.804-9.126-2.39.04-.547-1.973-1.233-1.933-1.815.037-.55,10.377-.439,10.414-1.018.035-.552-10.085-1.731-10.051-2.308.032-.554-.098-1.102-.067-1.678.03-.556,2.772-.961,2.801-1.536.027-.557-2.001-1.2-1.976-1.774.025-.558,4.554-.921,4.577-1.494.022-.559-1.051-1.161-1.031-1.733.02-.559,3.908-1,3.925-1.571.017-.56,2.975-1.063,2.99-1.634.014-.561-1.894-1.192-1.883-1.762.011-.562-1.289-1.164-1.281-1.734.008-.562-1.022-1.149-1.016-1.719.005-.563-6.152-1.16-6.15-1.73.002-.564,3.077-1.105,3.076-1.675,0-.564-.227-1.117-.231-1.686-.004-.565-.53-1.11-.537-1.679-.007-.563,8.421-1.274,8.41-1.84-.011-.564-8.287-.952-8.302-1.518s.865-1.141.847-1.708-.643-1.095-.665-1.661-.948-1.072-.974-1.639,8.965-1.593,8.935-2.159-11.086-.497-11.121-1.063,2.985-1.302,2.946-1.868,2.336-1.302,2.291-1.867-3.282-.854-3.331-1.419,2.223-1.328,2.168-1.892,5.808-1.756,5.747-2.319-7.107-.364-7.173-.927c-.066-.566,6.269-1.933,6.197-2.494-.073-.565-1.334-1.015-1.413-1.575-.079-.564,1.557-1.433,1.471-1.991-.086-.563-7.675.061-7.768-.496-.094-.562-2.317-.699-2.418-1.254-.102-.561,3.556-1.791,3.447-2.344-.111-.56,4.909-2.206,4.791-2.757-.12-.559-2.596-.644-2.724-1.193-.13-.557-6.496.435-6.635-.111-.141-.554,5.863-2.709,5.713-3.252-.153-.552-3.503-.182-3.665-.72-.165-.548-1.036-.824-1.212-1.357-.179-.544,2.164-1.931,1.974-2.458-.195-.54-5.904,1.09-6.111.568-.211-.534,4.009-2.794,3.785-3.307-.229-.526,1.726-2.075,1.483-2.578-.25-.518,1.651-2.275,1.387-2.767-.272-.506-8.172,3.34-8.46,2.862-.296-.492,4.675-4.259,4.361-4.72-.324-.476-3.466.971-3.791.497s3.521-3.823,3.195-4.296-1.774-.185-2.103-.657,1.812-2.699,1.481-3.169-8.314,4.484-8.648,4.017,3.244-3.734,2.907-4.199-.994-.703-1.334-1.166,1.819-2.794,1.475-3.254-.491-1.106-.838-1.563.414-1.814.063-2.268-7.946,4.735-8.301,4.284.732-2.011.372-2.459,5.146-5.687,4.781-6.131-7.364,4.616-7.734,4.176-2.113.358-2.488-.077.58-1.96.2-2.39,5.04-6.072,4.654-6.497.256-1.897-.136-2.316-9.054,7.005-9.452,6.591-.5-1.002-.905-1.409,4.332-5.967,3.921-6.368-2.243.654-2.661.26-2.219.729-2.643.342,3.886-6.103,3.454-6.483-6.247,5.454-6.686,5.082,4.799-7.609,4.353-7.972-7.365,7.358-7.818,7.004,3.609-6.558,3.149-6.903-5.176,5.123-5.643,4.786,1.937-4.67,1.463-4.997,1.483-4.355,1.003-4.672-4.02,4.037-4.507,3.731-3.358,3.396-3.852,3.1c-.492-.295,3.161-7.628,2.661-7.914-.498-.284-2.883,2.78-3.39,2.506-.504-.273-1.173-.182-1.686-.445-.509-.262,1.926-6.515,1.407-6.768-.515-.25-1.599.454-2.123.213-.52-.239-2.187,1.931-2.717,1.702-.524-.227-.403-2.134-.936-2.351-.529-.216-3.431,5.549-3.97,5.343-.534-.205.695-5.135.152-5.331-.538-.193-1.794,1.61-2.342,1.426-.542-.182.581-5.692.029-5.864-.546-.171-2.479,4.027-3.035,3.865-.549-.159.051-4.673-.507-4.823-.552-.148-3.948,10.719-4.51,10.58-.555-.138-.598-2.027-1.162-2.155-.557-.127-.846-1.183-1.412-1.301-.56-.117-.807-1.598-1.376-1.705-.562-.106-1.603,2.759-2.174,2.661-.564-.096-.42-4.245-.99-4.325-.566-.08-.678-4.012-1.25-4.077-.568-.065-1.049-2.158-1.622-2.208-.57-.05-1.858,9.442-2.433,9.407-.571-.035-.805-6.616-1.38-6.636-.572-.02-1.274,7.088-1.849,7.082-.572-.006-1.025.135-1.601.144-.572.008-1.143-3.047-1.718-3.025-.571.022-.876,3.682-1.45,3.717-.571.035-1.332-3.666-1.905-3.617-.57.048-1.857-6.971-2.43-6.91-.569.061.155,11.036-.416,11.109-.567.073-2.627-10.534-3.196-10.448-.565.085.649,11.117.082,11.215-.564.097-1.478-2.254-2.043-2.145-.561.109-.634,2.162-1.196,2.283-.559.12-1.014.215-1.574.347-.557.131-1.987-3.562-2.544-3.419-.554.142-1.187-.106-1.741.048-.551.153-.123,3.52-.675,3.684-.548.163-1.376-.822-1.924-.647-.545.174-.524,1.832-1.069,2.017-.542.184-2.168-2.909-2.709-2.715-.539.193-2.103-2.384-2.64-2.18-.535.203-1.654-.98-2.188-.767-.531.212-.738,1.335-1.268,1.558s.806,4.756.28,4.988-1.675-1.003-2.197-.763.928,4.523.41,4.773-4.486-6.576-4.999-6.318-.966.708-1.476.975,1.204,4.678.699,4.954-.099,2.067-.599,2.351-4.895-6.201-5.391-5.91,3.324,7.761,2.833,8.06-5.219-6.258-5.705-5.951,3.486,7.514,3.005,7.829-6.709-8.003-7.185-7.68,1.251,3.932.78,4.261-.68,1.054-1.145,1.392-.146,1.744-.606,2.089.593,2.633.137,2.985-5.404-5.009-5.854-4.65.265,2.233-.179,2.599,1.986,4.171,1.547,4.543-4.157-3.053-4.59-2.675-2.833-1.359-3.26-.974,4.381,6.523,3.961,6.914-4.015-2.57-4.43-2.172,3.004,4.729,2.595,5.133-6.443-4.773-6.845-4.362,2.385,3.963,1.989,4.38-4.35-2.442-4.74-2.019,6.317,7.316,5.933,7.744-5.204-3.085-5.581-2.651,4.598,5.418,4.227,5.858-.184,1.234-.548,1.679-7.292-4.433-7.65-3.982.244,1.687-.107,2.142-3.866-1.427-4.21-.966,7.605,7.015,7.268,7.48-.617.88-.947,1.351-.897.69-1.22,1.166-5.059-2.033-5.375-1.552-2.168-.005-2.477.48c-.307.483.247,1.544-.054,2.033s-2.423-.081-2.717.413.624,1.746.337,2.245,1.915,2.417,1.635,2.92c-.278.501-.209,1.18-.481,1.687s3.443,3.062,3.178,3.573-.235,1.077-.492,1.593" style="fill: none; stroke: #000; stroke-linecap: round; stroke-linejoin: round; stroke-width: 40px;"/>
  <path d="M357.229,257.174c.791.431-.623,3.028.168,3.459s.118,1.669.91,2.101,1.205-.33,1.996.101,2.133-2.029,2.926-1.597,1.183-.282,1.977.15-.78,3.323.014,3.755" style="fill: none; stroke: #000; stroke-linecap: round; stroke-linejoin: round; stroke-width: 30px;"/>
  <path d="M400.95,280.556c.514.592,2.122-.804,2.636-.212s2.667-1.275,3.183-.681-1.824,2.626-1.308,3.219" style="fill: none; stroke: #000; stroke-linecap: round; stroke-linejoin: round; stroke-width: 30px;"/>
</svg>