<?xml version="1.0" encoding="UTF-8"?>
<svg xmlns="http://www.w3.org/2000/svg" width="2000" height="700" viewBox="0 0 2000 700">
  <g id="Big_Assets" data-name="Big Assets">
    <g>
      <g>
        <path d="M1781.747,619.378c-7.171,0-7.171,2.812-14.342,2.812-7.172,0-7.172-2.11-14.344-2.11-7.171,0-7.171.467-14.342.467-7.17,0-7.17-2.052-14.341-2.052-7.17,0-7.17,3.598-14.34,3.598-7.17,0-7.17-.161-14.34-.161-7.17,0-7.17,1.512-14.341,1.512-7.171,0-7.171-4.044-14.342-4.044s-7.172,5.411-14.344,5.411c-7.171,0-7.171-2.145-14.342-2.145s-7.171-2.919-14.341-2.919-7.17,4.674-14.341,4.674c-7.17,0-7.17-5.827-14.341-5.827-7.171,0-7.171.134-14.342.134-7.172,0-7.172,4.055-14.344,4.055-7.171,0-7.171-2.289-14.343-2.289-7.171,0-7.171-.047-14.342-.047-7.171,0-7.171.239-14.341.239-7.171,0-7.171-.299-14.341-.299-7.171,0-7.171-.689-14.343-.689s-7.172,2.269-14.344,2.269-7.171,3.115-14.342,3.115c-7.171,0-7.171-6.041-14.342-6.041-7.171,0-7.171.091-14.341.091-7.171,0-7.171,1.152-14.342,1.152-7.172,0-7.172,2.701-14.344,2.701-7.171,0-7.171-.69-14.343-.69-7.171,0-7.171-1.061-14.342-1.061-7.171,0-7.171,1.09-14.342,1.09-7.171,0-7.171-2.222-14.343-2.222-7.172,0-7.172,2.331-14.344,2.331s-7.171-1.295-14.343-1.295c-7.171,0-7.171-2.016-14.342-2.016s-7.171-.343-14.342-.343c-7.172,0-7.172,6.079-14.344,6.079-7.172,0-7.172.304-14.343.304-7.171,0-7.171-3.764-14.342-3.764-7.171,0-7.171-.647-14.343-.647-7.172,0-7.172,2.413-14.344,2.413-7.172,0-7.172-2.139-14.343-2.139-7.171,0-7.171-.913-14.342-.913-7.172,0-7.172,1.857-14.343,1.857-7.172,0-7.172-.611-14.345-.611-7.172,0-7.172-1.481-14.343-1.481s-7.171-.65-14.343-.65c-7.172,0-7.172,4.131-14.344,4.131-7.172,0-7.172-2.149-14.344-2.149s-7.171-.468-14.343-.468c-7.172,0-7.172-2.358-14.344-2.358-7.172,0-7.172,3.462-14.344,3.462-7.172,0-7.172.343-14.343.343-7.172,0-7.172,2.275-14.344,2.275-7.172,0-7.172-1.747-14.344-1.747-7.172,0-7.172-3.212-14.343-3.212-7.173,0-7.173,2.461-14.345,2.461-7.169,0-7.169,2.797-14.339,2.797-7.171,0-7.171-4.23-14.342-4.23s-7.172,1.626-14.343,1.626c-7.17,0-7.17.783-14.34.783-7.169,0-7.169-3.467-14.339-3.467-7.17,0-7.17.588-14.341.588-7.173,0-7.173,3.224-14.345,3.224-7.171,0-7.171-4.511-14.342-4.511-7.17,0-7.17-.195-14.34-.195-7.171,0-7.171,4.421-14.341,4.421-7.173,0-7.173-1.428-14.346-1.428-7.171,0-7.171.805-14.342.805s-7.17-.263-14.341-.263c-7.172,0-7.172-3.042-14.343-3.042-7.172,0-7.172-.12-14.344-.12-7.171,0-7.171-.615-14.341-.615-7.172,0-7.172,3.219-14.343,3.219-7.172,0-7.172-2.236-14.345-2.236-7.171,0-7.171.167-14.342.167s-7.172.776-14.345.776c-7.172,0-7.172-1.487-14.344-1.487-7.172,0-7.172,4.57-14.343,4.57-7.173,0-7.173,1.57-14.346,1.57-7.172,0-7.172.063-14.343.063s-7.174.175-14.347.175c-7.172,0-7.172-2.925-14.344-2.925-7.173,0-7.173-2.994-14.347-2.994-7.172,0-7.172,3.849-14.344,3.849-7.173,0-7.173-2.13-14.346-2.13-7.173,0-7.173,2.373-14.346,2.373-7.172,0-7.172-1.187-14.345-1.187-7.173,0-7.173-3.334-14.346-3.334-7.174,0-7.174.735-14.348.735-7.173,0-7.173,4.137-14.346,4.137-7.173,0-7.173-2.013-14.346-2.013-7.173,0-7.173.975-14.346.975-7.173,0-7.173-2.094-14.347-2.094-7.174,0-7.174,2.697-14.347,2.697s-7.171-3.345-14.341-3.345c-7.173,0-7.173-1.163-14.345-1.163-7.174,0-7.174,5.835-14.348,5.835-7.173,0-7.173-5.884-14.346-5.884-7.173,0-7.173,4.389-14.346,4.389-7.174,0-7.174,1.427-14.347,1.427-7.175,0-7.175-4.988-14.35-4.988-7.174,0-7.174.399-14.347.399-7.174,0-7.174,1.001-14.349,1.001-7.175,0-7.175-.522-14.349-.522-7.175,0-7.175-.256-14.351-.256-7.173,0-7.173,2.966-14.347,2.966s-7.176,1.448-14.352,1.448-7.174-3.195-14.347-3.195c-7.179,0-7.179.574-14.357.574s-7.179,2.5-14.357,2.5c-5.039,0-9.661-5.839-14.542-6.425-4.989-.599-9.544-1.414-14.331-2.59-4.867-1.196-9.999-.693-14.62-2.446-4.675-1.774-9.727-2.62-14.111-4.925-4.417-2.323-10.109-2.926-14.19-5.748-4.098-2.834-7.335-7.198-11.053-10.495-3.723-3.301-7.496-6.831-10.797-10.554-3.296-3.718-5.113-8.742-7.947-12.84-2.822-4.081-5.032-8.527-7.355-12.943-2.305-4.383-1.702-9.867-3.476-14.541-1.753-4.62-6.937-8.053-8.133-12.919-1.176-4.787-4.904-9.423-5.503-14.411-.587-4.881.828-10.265.828-15.304,0-7.254,4.987-7.254,4.987-14.507,0-7.254-.291-7.254-.291-14.507,0-7.254-3.144-7.254-3.144-14.507,0-7.254,1.128-7.254,1.128-14.508,0-7.254-1.266-7.254-1.266-14.508,0-7.251.52-7.251.52-14.502,0-7.253-1.186-7.253-1.186-14.506s-1.488-7.254-1.488-14.509c0-7.253,4.149-7.253,4.149-14.506,0-7.253-1.517-7.253-1.517-14.507,0-7.254-.317-7.254-.317-14.508s2.074-7.255,2.074-14.511c0-7.254-1.863-7.254-1.863-14.508,0-7.255,1.222-7.255,1.222-14.51,0-7.255-1.343-7.255-1.343-14.51,0-7.256-2.984-7.256-2.984-14.512,0-7.254,3.834-7.254,3.834-14.508s-3.246-7.256-3.246-14.513c0-7.254,1.072-7.254,1.072-14.508,0-7.259-1.362-7.259-1.362-14.518s-.176-7.259-.176-14.518c0-5.039,4.251-9.886,4.838-14.767.599-4.989,2.905-9.413,4.081-14.2,1.196-4.867.761-10.024,2.514-14.645,1.774-4.675,3.835-9.134,6.141-13.517,2.323-4.417,6.611-7.411,9.433-11.491,2.834-4.098,2.768-10.368,6.065-14.086s7.51-6.692,11.233-9.993c3.718-3.296,6.099-8.668,10.197-11.502,4.081-2.822,10.037-2.983,14.453-5.306,4.383-2.305,8.023-6.778,12.697-8.551,4.62-1.753,10.279-.946,15.145-2.141,4.787-1.176,9.939-.241,14.927-.841,4.881-.587,9.662-4.42,14.701-4.42,7.171,0,7.171,3.218,14.342,3.218s7.172,1.697,14.344,1.697,7.171-4.794,14.342-4.794,7.17-1.05,14.341-1.05,7.17,4.125,14.34,4.125,7.17,2.126,14.34,2.126,7.17-6.112,14.341-6.112,7.171,4.737,14.342,4.737,7.172-3.597,14.344-3.597,7.171,4.512,14.342,4.512,7.171-4.838,14.341-4.838,7.17-.287,14.341-.287,7.17.332,14.341.332,7.171,2.312,14.342,2.312,7.172.33,14.344.33,7.171-.698,14.343-.698,7.171,1.229,14.342,1.229,7.171-1.567,14.341-1.567,7.171-2.11,14.341-2.11,7.171,3.113,14.343,3.113,7.172-4.03,14.344-4.03,7.171,5.63,14.342,5.63,7.171-1.623,14.342-1.623,7.171-3.323,14.341-3.323,7.171,5.865,14.342,5.865,7.172-.071,14.344-.071,7.171-4.245,14.343-4.245,7.171-2.348,14.342-2.348,7.171.787,14.342.787,7.171-.55,14.343-.55,7.172,3.243,14.344,3.243,7.171-3.143,14.343-3.143,7.171,1.411,14.342,1.411,7.171.001,14.342.001,7.172,3.44,14.344,3.44,7.172,1.52,14.343,1.52,7.171-3.551,14.342-3.551,7.171,2.824,14.343,2.824,7.172-4.365,14.344-4.365,7.172,3.112,14.343,3.112,7.171-2.246,14.342-2.246,7.172-1.144,14.343-1.144,7.172,1.174,14.345,1.174,7.172.139,14.343.139,7.171,3.157,14.343,3.157,7.172-2.095,14.344-2.095,7.172-.257,14.344-.257,7.171,3.276,14.343,3.276,7.172-6.068,14.344-6.068,7.172,2.078,14.344,2.078,7.172.474,14.343.474,7.172-.792,14.344-.792,7.172,2.749,14.344,2.749,7.172-2.126,14.343-2.126,7.173,3.718,14.345,3.718,7.169-3.448,14.339-3.448,7.171.988,14.342.988,7.172-.704,14.343-.704,7.17,1.375,14.34,1.375,7.169-2.747,14.339-2.747,7.17-1.689,14.341-1.689,7.173,6.357,14.345,6.357,7.171-4.339,14.342-4.339,7.17,2.801,14.34,2.801,7.171-1.667,14.341-1.667,7.173,2.364,14.346,2.364,7.171-4.834,14.342-4.834,7.17,3.672,14.341,3.672,7.172.294,14.343.294,7.172,1.348,14.344,1.348,7.171-3.893,14.341-3.893,7.172-1.656,14.343-1.656,7.172,5.602,14.345,5.602,7.171-3.977,14.342-3.977,7.172-1.376,14.345-1.376,7.172,4.283,14.344,4.283,7.172-4.89,14.343-4.89,7.173-.367,14.346-.367,7.172,3.009,14.343,3.009,7.174,2.258,14.347,2.258,7.172-2.984,14.344-2.984,7.173,4.083,14.347,4.083,7.172-6.254,14.344-6.254,7.173.37,14.346.37,7.173,1.254,14.346,1.254,7.172-1.29,14.345-1.29,7.173,3.22,14.346,3.22,7.174-1.83,14.348-1.83,7.173,1.245,14.346,1.245,7.173-1.914,14.346-1.914,7.173,3.988,14.346,3.988,7.173-4.77,14.347-4.77,7.174,2.905,14.347,2.905,7.171-.79,14.341-.79,7.173,1.479,14.345,1.479,7.174-.442,14.348-.442,7.173,1.756,14.346,1.756,7.173-1.517,14.346-1.517,7.174-1.004,14.347-1.004,7.175-1.78,14.35-1.78,7.174-.961,14.347-.961,7.174,2.822,14.349,2.822,7.175-3.102,14.349-3.102,7.175,6.547,14.351,6.547,7.173-5.314,14.347-5.314,7.176,4.305,14.352,4.305,7.174-1.16,14.347-1.16,7.179-2.695,14.357-2.695,7.179.04,14.357.04c5.039,0,10.245.027,15.125.614,4.989.599,8.944,6.338,13.731,7.514,4.867,1.196,11.334-2.849,15.954-1.095,4.675,1.774,8.974,5.02,13.357,7.325,4.417,2.323,6.95,7.751,11.03,10.573s8.021,5.6,11.739,8.896c3.723,3.301,8.544,5.442,11.844,9.165s6.567,7.569,9.401,11.667,4.167,9.08,6.489,13.497c2.305,4.383,5.33,8.45,7.104,13.125,1.753,4.62.986,9.964,2.181,14.83,1.176,4.787,2.712,9.36,3.312,14.349.587,4.881,1.103,9.69,1.103,14.729,0,7.254-1.359,7.254-1.359,14.507s3.57,7.254,3.57,14.507-.354,7.254-.354,14.507-.41,7.254-.41,14.508-1.947,7.254-1.947,14.508,2.228,7.251,2.228,14.502.671,7.253.671,14.506-3.432,7.254-3.432,14.509,4.59,7.253,4.59,14.506-3.355,7.253-3.355,14.507,2.056,7.254,2.056,14.508-2.739,7.255-2.739,14.511-.474,7.254-.474,14.508.793,7.255.793,14.51,3.375,7.255,3.375,14.51-1.368,7.256-1.368,14.512-.025,7.254-.025,14.508-3.739,7.256-3.739,14.513,6.326,7.254,6.326,14.508-1.727,7.259-1.727,14.518-1.225,7.259-1.225,14.518c0,5.039-2.727,9.757-3.313,14.638-.599,4.989.451,10.102-.725,14.89-1.196,4.867-5.566,8.506-7.319,13.127-1.774,4.675-3.145,9.127-5.45,13.511-2.323,4.417-.859,11.085-3.681,15.166-2.834,4.098-6.508,7.817-9.804,11.535-3.301,3.723-9.443,4.556-13.166,7.856-3.718,3.296-7.822,5.62-11.92,8.454-4.081,2.822-8.125,5.035-12.542,7.358-4.383,2.305-7.058,8.174-11.732,9.947-4.62,1.753-9.071,5.001-13.937,6.197-4.787,1.176-10.753-3.949-15.742-3.349-4.881.587-9.456,1.766-14.495,1.766Z" style="fill: #fff;"/>
        <path d="M1781.747,619.378c-7.171,0-7.171,2.812-14.342,2.812-7.172,0-7.172-2.11-14.344-2.11-7.171,0-7.171.467-14.342.467-7.17,0-7.17-2.052-14.341-2.052-7.17,0-7.17,3.598-14.34,3.598-7.17,0-7.17-.161-14.34-.161-7.17,0-7.17,1.512-14.341,1.512-7.171,0-7.171-4.044-14.342-4.044s-7.172,5.411-14.344,5.411c-7.171,0-7.171-2.145-14.342-2.145s-7.171-2.919-14.341-2.919-7.17,4.674-14.341,4.674c-7.17,0-7.17-5.827-14.341-5.827-7.171,0-7.171.134-14.342.134-7.172,0-7.172,4.055-14.344,4.055-7.171,0-7.171-2.289-14.343-2.289-7.171,0-7.171-.047-14.342-.047-7.171,0-7.171.239-14.341.239-7.171,0-7.171-.299-14.341-.299-7.171,0-7.171-.689-14.343-.689s-7.172,2.269-14.344,2.269-7.171,3.115-14.342,3.115c-7.171,0-7.171-6.041-14.342-6.041-7.171,0-7.171.091-14.341.091-7.171,0-7.171,1.152-14.342,1.152-7.172,0-7.172,2.701-14.344,2.701-7.171,0-7.171-.69-14.343-.69-7.171,0-7.171-1.061-14.342-1.061-7.171,0-7.171,1.09-14.342,1.09-7.171,0-7.171-2.222-14.343-2.222-7.172,0-7.172,2.331-14.344,2.331s-7.171-1.295-14.343-1.295c-7.171,0-7.171-2.016-14.342-2.016s-7.171-.343-14.342-.343c-7.172,0-7.172,6.079-14.344,6.079-7.172,0-7.172.304-14.343.304-7.171,0-7.171-3.764-14.342-3.764-7.171,0-7.171-.647-14.343-.647-7.172,0-7.172,2.413-14.344,2.413-7.172,0-7.172-2.139-14.343-2.139-7.171,0-7.171-.913-14.342-.913-7.172,0-7.172,1.857-14.343,1.857-7.172,0-7.172-.611-14.345-.611-7.172,0-7.172-1.481-14.343-1.481s-7.171-.65-14.343-.65c-7.172,0-7.172,4.131-14.344,4.131-7.172,0-7.172-2.149-14.344-2.149s-7.171-.468-14.343-.468c-7.172,0-7.172-2.358-14.344-2.358-7.172,0-7.172,3.462-14.344,3.462-7.172,0-7.172.343-14.343.343-7.172,0-7.172,2.275-14.344,2.275-7.172,0-7.172-1.747-14.344-1.747-7.172,0-7.172-3.212-14.343-3.212-7.173,0-7.173,2.461-14.345,2.461-7.169,0-7.169,2.797-14.339,2.797-7.171,0-7.171-4.23-14.342-4.23s-7.172,1.626-14.343,1.626c-7.17,0-7.17.783-14.34.783-7.169,0-7.169-3.467-14.339-3.467-7.17,0-7.17.588-14.341.588-7.173,0-7.173,3.224-14.345,3.224-7.171,0-7.171-4.511-14.342-4.511-7.17,0-7.17-.195-14.34-.195-7.171,0-7.171,4.421-14.341,4.421-7.173,0-7.173-1.428-14.346-1.428-7.171,0-7.171.805-14.342.805s-7.17-.263-14.341-.263c-7.172,0-7.172-3.042-14.343-3.042-7.172,0-7.172-.12-14.344-.12-7.171,0-7.171-.615-14.341-.615-7.172,0-7.172,3.219-14.343,3.219-7.172,0-7.172-2.236-14.345-2.236-7.171,0-7.171.167-14.342.167s-7.172.776-14.345.776c-7.172,0-7.172-1.487-14.344-1.487-7.172,0-7.172,4.57-14.343,4.57-7.173,0-7.173,1.57-14.346,1.57-7.172,0-7.172.063-14.343.063s-7.174.175-14.347.175c-7.172,0-7.172-2.925-14.344-2.925-7.173,0-7.173-2.994-14.347-2.994-7.172,0-7.172,3.849-14.344,3.849-7.173,0-7.173-2.13-14.346-2.13-7.173,0-7.173,2.373-14.346,2.373-7.172,0-7.172-1.187-14.345-1.187-7.173,0-7.173-3.334-14.346-3.334-7.174,0-7.174.735-14.348.735-7.173,0-7.173,4.137-14.346,4.137-7.173,0-7.173-2.013-14.346-2.013-7.173,0-7.173.975-14.346.975-7.173,0-7.173-2.094-14.347-2.094-7.174,0-7.174,2.697-14.347,2.697s-7.171-3.345-14.341-3.345c-7.173,0-7.173-1.163-14.345-1.163-7.174,0-7.174,5.835-14.348,5.835-7.173,0-7.173-5.884-14.346-5.884-7.173,0-7.173,4.389-14.346,4.389-7.174,0-7.174,1.427-14.347,1.427-7.175,0-7.175-4.988-14.35-4.988-7.174,0-7.174.399-14.347.399-7.174,0-7.174,1.001-14.349,1.001-7.175,0-7.175-.522-14.349-.522-7.175,0-7.175-.256-14.351-.256-7.173,0-7.173,2.966-14.347,2.966s-7.176,1.448-14.352,1.448-7.174-3.195-14.347-3.195c-7.179,0-7.179.574-14.357.574s-7.179,2.5-14.357,2.5c-5.039,0-9.661-5.839-14.542-6.425-4.989-.599-9.544-1.414-14.331-2.59-4.867-1.196-9.999-.693-14.62-2.446-4.675-1.774-9.727-2.62-14.111-4.925-4.417-2.323-10.109-2.926-14.19-5.748-4.098-2.834-7.335-7.198-11.053-10.495-3.723-3.301-7.496-6.831-10.797-10.554-3.296-3.718-5.113-8.742-7.947-12.84-2.822-4.081-5.032-8.527-7.355-12.943-2.305-4.383-1.702-9.867-3.476-14.541-1.753-4.62-6.937-8.053-8.133-12.919-1.176-4.787-4.904-9.423-5.503-14.411-.587-4.881.828-10.265.828-15.304,0-7.254,4.987-7.254,4.987-14.507,0-7.254-.291-7.254-.291-14.507,0-7.254-3.144-7.254-3.144-14.507,0-7.254,1.128-7.254,1.128-14.508,0-7.254-1.266-7.254-1.266-14.508,0-7.251.52-7.251.52-14.502,0-7.253-1.186-7.253-1.186-14.506s-1.488-7.254-1.488-14.509c0-7.253,4.149-7.253,4.149-14.506,0-7.253-1.517-7.253-1.517-14.507,0-7.254-.317-7.254-.317-14.508s2.074-7.255,2.074-14.511c0-7.254-1.863-7.254-1.863-14.508,0-7.255,1.222-7.255,1.222-14.51,0-7.255-1.343-7.255-1.343-14.51,0-7.256-2.984-7.256-2.984-14.512,0-7.254,3.834-7.254,3.834-14.508s-3.246-7.256-3.246-14.513c0-7.254,1.072-7.254,1.072-14.508,0-7.259-1.362-7.259-1.362-14.518s-.176-7.259-.176-14.518c0-5.039,4.251-9.886,4.838-14.767.599-4.989,2.905-9.413,4.081-14.2,1.196-4.867.761-10.024,2.514-14.645,1.774-4.675,3.835-9.134,6.141-13.517,2.323-4.417,6.611-7.411,9.433-11.491,2.834-4.098,2.768-10.368,6.065-14.086s7.51-6.692,11.233-9.993c3.718-3.296,6.099-8.668,10.197-11.502,4.081-2.822,10.037-2.983,14.453-5.306,4.383-2.305,8.023-6.778,12.697-8.551,4.62-1.753,10.279-.946,15.145-2.141,4.787-1.176,9.939-.241,14.927-.841,4.881-.587,9.662-4.42,14.701-4.42,7.171,0,7.171,3.218,14.342,3.218s7.172,1.697,14.344,1.697,7.171-4.794,14.342-4.794,7.17-1.05,14.341-1.05,7.17,4.125,14.34,4.125,7.17,2.126,14.34,2.126,7.17-6.112,14.341-6.112,7.171,4.737,14.342,4.737,7.172-3.597,14.344-3.597,7.171,4.512,14.342,4.512,7.171-4.838,14.341-4.838,7.17-.287,14.341-.287,7.17.332,14.341.332,7.171,2.312,14.342,2.312,7.172.33,14.344.33,7.171-.698,14.343-.698,7.171,1.229,14.342,1.229,7.171-1.567,14.341-1.567,7.171-2.11,14.341-2.11,7.171,3.113,14.343,3.113,7.172-4.03,14.344-4.03,7.171,5.63,14.342,5.63,7.171-1.623,14.342-1.623,7.171-3.323,14.341-3.323,7.171,5.865,14.342,5.865,7.172-.071,14.344-.071,7.171-4.245,14.343-4.245,7.171-2.348,14.342-2.348,7.171.787,14.342.787,7.171-.55,14.343-.55,7.172,3.243,14.344,3.243,7.171-3.143,14.343-3.143,7.171,1.411,14.342,1.411,7.171.001,14.342.001,7.172,3.44,14.344,3.44,7.172,1.52,14.343,1.52,7.171-3.551,14.342-3.551,7.171,2.824,14.343,2.824,7.172-4.365,14.344-4.365,7.172,3.112,14.343,3.112,7.171-2.246,14.342-2.246,7.172-1.144,14.343-1.144,7.172,1.174,14.345,1.174,7.172.139,14.343.139,7.171,3.157,14.343,3.157,7.172-2.095,14.344-2.095,7.172-.257,14.344-.257,7.171,3.276,14.343,3.276,7.172-6.068,14.344-6.068,7.172,2.078,14.344,2.078,7.172.474,14.343.474,7.172-.792,14.344-.792,7.172,2.749,14.344,2.749,7.172-2.126,14.343-2.126,7.173,3.718,14.345,3.718,7.169-3.448,14.339-3.448,7.171.988,14.342.988,7.172-.704,14.343-.704,7.17,1.375,14.34,1.375,7.169-2.747,14.339-2.747,7.17-1.689,14.341-1.689,7.173,6.357,14.345,6.357,7.171-4.339,14.342-4.339,7.17,2.801,14.34,2.801,7.171-1.667,14.341-1.667,7.173,2.364,14.346,2.364,7.171-4.834,14.342-4.834,7.17,3.672,14.341,3.672,7.172.294,14.343.294,7.172,1.348,14.344,1.348,7.171-3.893,14.341-3.893,7.172-1.656,14.343-1.656,7.172,5.602,14.345,5.602,7.171-3.977,14.342-3.977,7.172-1.376,14.345-1.376,7.172,4.283,14.344,4.283,7.172-4.89,14.343-4.89,7.173-.367,14.346-.367,7.172,3.009,14.343,3.009,7.174,2.258,14.347,2.258,7.172-2.984,14.344-2.984,7.173,4.083,14.347,4.083,7.172-6.254,14.344-6.254,7.173.37,14.346.37,7.173,1.254,14.346,1.254,7.172-1.29,14.345-1.29,7.173,3.22,14.346,3.22,7.174-1.83,14.348-1.83,7.173,1.245,14.346,1.245,7.173-1.914,14.346-1.914,7.173,3.988,14.346,3.988,7.173-4.77,14.347-4.77,7.174,2.905,14.347,2.905,7.171-.79,14.341-.79,7.173,1.479,14.345,1.479,7.174-.442,14.348-.442,7.173,1.756,14.346,1.756,7.173-1.517,14.346-1.517,7.174-1.004,14.347-1.004,7.175-1.78,14.35-1.78,7.174-.961,14.347-.961,7.174,2.822,14.349,2.822,7.175-3.102,14.349-3.102,7.175,6.547,14.351,6.547,7.173-5.314,14.347-5.314,7.176,4.305,14.352,4.305,7.174-1.16,14.347-1.16,7.179-2.695,14.357-2.695,7.179.04,14.357.04c5.039,0,10.245.027,15.125.614,4.989.599,8.944,6.338,13.731,7.514,4.867,1.196,11.334-2.849,15.954-1.095,4.675,1.774,8.974,5.02,13.357,7.325,4.417,2.323,6.95,7.751,11.03,10.573s8.021,5.6,11.739,8.896c3.723,3.301,8.544,5.442,11.844,9.165s6.567,7.569,9.401,11.667,4.167,9.08,6.489,13.497c2.305,4.383,5.33,8.45,7.104,13.125,1.753,4.62.986,9.964,2.181,14.83,1.176,4.787,2.712,9.36,3.312,14.349.587,4.881,1.103,9.69,1.103,14.729,0,7.254-1.359,7.254-1.359,14.507s3.57,7.254,3.57,14.507-.354,7.254-.354,14.507-.41,7.254-.41,14.508-1.947,7.254-1.947,14.508,2.228,7.251,2.228,14.502.671,7.253.671,14.506-3.432,7.254-3.432,14.509,4.59,7.253,4.59,14.506-3.355,7.253-3.355,14.507,2.056,7.254,2.056,14.508-2.739,7.255-2.739,14.511-.474,7.254-.474,14.508.793,7.255.793,14.51,3.375,7.255,3.375,14.51-1.368,7.256-1.368,14.512-.025,7.254-.025,14.508-3.739,7.256-3.739,14.513,6.326,7.254,6.326,14.508-1.727,7.259-1.727,14.518-1.225,7.259-1.225,14.518c0,5.039-2.727,9.757-3.313,14.638-.599,4.989.451,10.102-.725,14.89-1.196,4.867-5.566,8.506-7.319,13.127-1.774,4.675-3.145,9.127-5.45,13.511-2.323,4.417-.859,11.085-3.681,15.166-2.834,4.098-6.508,7.817-9.804,11.535-3.301,3.723-9.443,4.556-13.166,7.856-3.718,3.296-7.822,5.62-11.92,8.454-4.081,2.822-8.125,5.035-12.542,7.358-4.383,2.305-7.058,8.174-11.732,9.947-4.62,1.753-9.071,5.001-13.937,6.197-4.787,1.176-10.753-3.949-15.742-3.349-4.881.587-9.456,1.766-14.495,1.766Z" style="fill: none; stroke: #000; stroke-miterlimit: 10; stroke-width: 46.388px;"/>
      </g>
      <path d="M255.051,297.127c3.459,6.097,3.885,5.855,7.344,11.951,3.459,6.097,4.795,5.34,8.255,11.437,3.459,6.097-1.745,9.049,1.714,15.146s8.131,3.446,11.59,9.543c3.459,6.097.791,7.611,4.25,13.709,3.46,6.098,6.474,4.389,9.934,10.487,3.459,6.097-2.209,9.313,1.25,15.411,3.46,6.098,4.827,5.322,8.287,11.42,3.46,6.098,5.511,4.934,8.971,11.032,3.459,6.096,3.624,6.002,7.083,12.098,3.46,6.098,2.301,6.755,5.76,12.853,3.461,6.1,4.104,5.735,7.565,11.835,3.46,6.098.407,7.83,3.867,13.928,3.462,6.102,8.472,3.26,11.934,9.362,3.462,6.102-2.343,15.488,4.659,15.926,7.074.442,4.896-7.823,9.22-13.438s4.983-5.109,9.307-10.725c4.325-5.617,4.578-5.421,8.903-11.038,4.324-5.616,2.312-7.165,6.637-12.781,4.322-5.614,7.32-3.305,11.643-8.919,4.323-5.615,1.649-7.674,5.973-13.288s5.403-4.783,9.726-10.397,5.385-4.799,9.71-10.415c4.323-5.615.622-8.465,4.945-14.079,4.324-5.616,7.566-3.12,11.891-8.736,4.325-5.617,2.268-7.201,6.593-12.818,4.324-5.616,2.432-7.074,6.756-12.69,4.324-5.616,6.609-3.857,10.933-9.473,4.325-5.617,5.622-4.618,9.947-10.235,4.326-5.618,1.62-7.701,5.946-13.319,4.325-5.617,4.806-5.246,9.131-10.863,4.325-5.617,7.479-3.189,11.804-8.806,4.325-5.618.356-8.674,4.681-14.291s5.05-5.057,9.374-10.672c4.325-5.617,5.724-4.54,10.049-10.157,4.327-5.619,2.506-7.021,6.832-12.64,4.325-5.617,8.112-2.702,12.437-8.319s-.209-9.115,4.119-14.736c4.328-5.621,7.362-3.285,11.69-8.906" style="fill: none; stroke: #000; stroke-linecap: round; stroke-miterlimit: 10; stroke-width: 61.85px;"/>
    </g>
  </g>
  <g id="Schrift">
    <text transform="translate(684.902 456.778)" style="font-family: DarumadropOne, &apos;Darumadrop One&apos;; font-size: 400px;"><tspan x="0" y="0">Fertig</tspan></text>
  </g>
</svg>