<?xml version="1.0" encoding="UTF-8"?>
<svg id="Big_Assets" data-name="Big Assets" xmlns="http://www.w3.org/2000/svg" width="3681.882" height="3681.882" viewBox="0 0 3681.882 3681.882">
  <path d="M3651.09,3647.225c-5.089,5.096-7.305-2.355-14.507-2.355s-7.202-.957-14.404-.957-7.203,3.119-14.405,3.119-7.203-.561-14.405-.561-7.202-2.157-14.405-2.157q-7.202,0-14.404-.015c-7.202,0-7.202,5.159-14.404,5.159-7.202,0-7.202-.147-14.404-.147s-7.202-3.798-14.403-3.798-7.202.519-14.403.519-7.202-1.831-14.403-1.831-7.202,5.682-14.404,5.682-7.202.602-14.404.602-7.202-.684-14.404-.684-7.202-5.728-14.405-5.728-7.203,4.623-14.406,4.623-7.203-1.015-14.405-1.015-7.202-1.782-14.405-1.782-7.202,2.26-14.404,2.26-7.202.09-14.404.09-7.202.686-14.404.686-7.202-1.943-14.404-1.943-7.202,1.447-14.404,1.447-7.202-1.737-14.404-1.737-7.202-1.445-14.404-1.445-7.202,2.091-14.405,2.091c-7.203,0-7.203,2.095-14.405,2.095-7.203,0-7.203-4.7-14.406-4.7s-7.202,4.97-14.405,4.97-7.202-5.348-14.404-5.348-7.202,2.54-14.404,2.54-7.202,2.342-14.404,2.342-7.202-.154-14.404-.154-7.202-4.344-14.404-4.344-7.202,3.129-14.404,3.129-7.202-1.074-14.404-1.074-7.202-.207-14.405-.207-7.203-2.412-14.406-2.412c-7.203,0-7.203,6.11-14.405,6.11s-7.202-.554-14.405-.554-7.202-4.488-14.404-4.488-7.202,4.581-14.404,4.581-7.202.589-14.404.589-7.202-2.734-14.404-2.734-7.202,1.595-14.404,1.595-7.202,1.229-14.404,1.229-7.202-5.32-14.405-5.32-7.203-.867-14.406-.867-7.203.815-14.405.815-7.202.754-14.405.754-7.202,2.984-14.404,2.984-7.202-1.5-14.404-1.5-7.202-.94-14.404-.94-7.2.139-14.4.139-7.2,2.503-14.399,2.503-7.199-4.614-14.399-4.614-7.199,1.019-14.399,1.019-7.199-1.129-14.399-1.129-7.199,3.129-14.399,3.129-7.2,2.401-14.399,2.401-7.2-3.247-14.4-3.247-7.2-.089-14.401-.089-7.201.83-14.402.83-7.202-2.437-14.403-2.437-7.202.277-14.404.277-7.203,2.508-14.406,2.508-7.202,1.653-14.405,1.653-7.202-5.472-14.404-5.472-7.201,6.266-14.402,6.266-7.201-3.503-14.401-3.503c-7.2,0-7.2,3.674-14.401,3.674s-7.2-5.145-14.4-5.145-7.2,4.027-14.4,4.027-7.2-4.302-14.4-4.302-7.2-.982-14.4-.982-7.2-.06-14.4-.06-7.2,5.852-14.401,5.852-7.201-5.965-14.402-5.965c-7.201,0-7.201,2.075-14.403,2.075s-7.202,1.237-14.404,1.237-7.203-2.124-14.405-2.124c-7.203,0-7.203,1.015-14.406,1.015s-7.202-1.966-14.405-1.966-7.202.391-14.403.391-7.201,1.571-14.402,1.571-7.201-1.823-14.402-1.823-7.201-.133-14.401-.133-7.2,5.918-14.401,5.918-7.2-.004-14.401-.004-7.2-5.853-14.401-5.853-7.201,2.876-14.402,2.876c-7.201,0-7.201,2.036-14.402,2.036s-7.202.93-14.403.93-7.202-1.082-14.405-1.082-7.203-3.057-14.406-3.057-7.203,4.298-14.406,4.298-7.202-1.987-14.405-1.987-7.202-3.023-14.403-3.023-7.201.597-14.402.597c-7.201,0-7.201,1.633-14.402,1.633s-7.201-2.979-14.402-2.979-7.201,5.921-14.402,5.921c-7.201,0-7.201-2.978-14.402-2.978s-7.201-2.578-14.403-2.578-7.202,1.396-14.404,1.396-7.202-.842-14.405-.842-7.203,2.145-14.406,2.145c-7.203,0-7.203-1.75-14.406-1.75s-7.202-1.838-14.405-1.838-7.202,3.349-14.404,3.349-7.201-2.09-14.403-2.09-7.201,1.931-14.402,1.931-7.201-.652-14.402-.652-7.201,2.194-14.403,2.194-7.202-4.12-14.403-4.12-7.202,1.463-14.404,1.463-7.203-1.959-14.405-1.959-7.204,6.194-14.407,6.194-7.203-.726-14.406-.726-7.202.511-14.405.511-7.202-.8-14.404-.8c-7.202,0-7.202-2.982-14.403-2.982s-7.201,2.587-14.403,2.587-7.202,1.061-14.403,1.061-7.202-1.647-14.404-1.647-7.202,1.098-14.405,1.098-7.203-.103-14.406-.103-7.204.856-14.407.856-7.203-1.702-14.406-1.702-7.202,1.069-14.405,1.069-7.202.993-14.404.993-7.202-3.747-14.404-3.747-7.202-.059-14.404-.059-7.202,2.691-14.404,2.691-7.203-1.547-14.406-1.547-7.204.113-14.407.113-7.203,1.393-14.407,1.393-7.203.87-14.405.87-7.202-3.216-14.404-3.216-7.202.363-14.404.363-7.202-2.559-14.404-2.559-7.202,1.41-14.405,1.41-7.203-2.233-14.406-2.233-7.204,1.837-14.408,1.837-7.203-.463-14.406-.463-7.203,3.107-14.405,3.107-7.202-2.884-14.405-2.884-7.202.04-14.405.04-7.203-1.585-14.405-1.585-7.203,5.833-14.407,5.833-7.204-1.416-14.408-1.416-7.203,1.446-14.406,1.446-7.203-5.534-14.405-5.534-7.202,5.207-14.405,5.207-7.203-4.362-14.405-4.362-7.203,1.959-14.406,1.959-7.204-3.002-14.408-3.002-7.204,4.505-14.407,4.505-7.203-3.168-14.406-3.168-7.203,3.172-14.405,3.172c-7.203,0-7.203-1.501-14.406-1.501s-7.203-2.586-14.407-2.586-7.204,3-14.409,3-7.203-.975-14.407-.975-7.203.037-14.406.037-7.203,1.267-14.406,1.267-7.203-1.611-14.407-1.611-7.204-1.483-14.408-1.483-7.204,2.919-14.407,2.919-7.203-3.628-14.406-3.628c-7.203,0-7.203,3.872-14.406,3.872s-7.204-3.927-14.407-3.927-7.204.729-14.409.729-7.203,5.082-14.407,5.082-7.203-4.652-14.406-4.652-7.203,4.202-14.407,4.202-7.204-1.126-14.408-1.126-7.204-1.802-14.407-1.802-7.203,1.463-14.407,1.463-7.203-2.927-14.407-2.927-7.204,4.765-14.408,4.765-7.204-4.634-14.408-4.634-7.203,1.783-14.407,1.783-7.204-1.376-14.407-1.376-7.205,1.758-14.409,1.758-7.204-1.937-14.407-1.937-7.204,2.53-14.407,2.53-7.204,2.837-14.408,2.837c-7.204,0-7.204-3.031-14.408-3.031s-7.204,2.815-14.407,2.815-7.204-4.985-14.408-4.985-7.204,1.805-14.408,1.805-7.204,2.11-14.407,2.11-7.204-.732-14.408-.732-7.204-1.102-14.408-1.102c-7.204,0-7.204-1.787-14.408-1.787-7.205,0-7.205,2.441-14.409,2.441s-7.201-2.269-14.403-2.269-7.203.378-14.406.378-7.204-2.149-14.408-2.149-7.202,3.998-14.404,3.998c-7.201,0-7.201-2.175-14.403-2.175s-7.202,1.474-14.405,1.474-7.205-1.201-14.409-1.201-7.203,4.191-14.406,4.191-7.202-1.146-14.404-1.146-7.203-2.518-14.405-2.518-7.205.899-14.41.899-7.203-3.087-14.406-3.087-7.202,5.534-14.405,5.534-7.204-6.235-14.408-6.235c-7.204,0-7.204,3.138-14.408,3.138s-7.203-2.713-14.406-2.713-7.204,3.688-14.408,3.688-7.204-2.019-14.409-2.019-7.203-1.426-14.406-1.426-7.205,1.161-14.409,1.161-7.204-.442-14.408-.442-7.204.889-14.408.889c-7.205,0-7.205,4.424-14.41,4.424s-7.204-2.506-14.408-2.506-7.206-.671-14.411-.671-7.204.839-14.408.839-7.206-3.06-14.411-3.06-7.204,4.749-14.409,4.749-7.205-5.492-14.41-5.492c-7.205,0-7.205,1.095-14.41,1.095s-7.205-1.295-14.409-1.295-7.205,4.412-14.411,4.412-7.206-2.209-14.412-2.209-7.205.094-14.411.094c-7.205,0-7.205-1.044-14.41-1.044-7.205,0-7.205,1.778-14.41,1.778s-7.205-.986-14.411-.986-7.206,1.778-14.411,1.778-7.203-3.414-14.406-3.414-7.205,3.116-14.41,3.116-7.206-2.159-14.412-2.159-7.205,3.124-14.41,3.124-7.205.425-14.41.425-7.206-.663-14.412-.663-7.207-3.194-14.414-3.194-7.206-.009-14.412-.009-7.206,3.435-14.413,3.435-7.207-2.697-14.413-2.697-7.208-.68-14.415-.68-7.206,3.414-14.411,3.414-7.208-3.55-14.416-3.55c-7.206,0-7.206-.112-14.412-.112s-7.211,1.293-14.421,1.293-10.487,7.079-15.589,1.983,3.438-8.371,3.438-15.573-3.925-7.202-3.925-14.404.026-7.203.026-14.405,1.181-7.203,1.181-14.405,1.613-7.202,1.613-14.405-1.159-7.202-1.159-14.404-1.642-7.202-1.642-14.404-.124-7.202-.124-14.404-1.012-7.202-1.012-14.403,4.667-7.202,4.667-14.403-2.781-7.202-2.781-14.403.666-7.202.666-14.404,1.703-7.202,1.703-14.404.465-7.202.465-14.404-3.351-7.202-3.351-14.405-2.097-7.203-2.097-14.406,5.897-7.203,5.897-14.405,1.079-7.202,1.079-14.405-5.783-7.202-5.783-14.404,3.648-7.202,3.648-14.404.099-7.202.099-14.404-3.95-7.202-3.95-14.404,4.667-7.202,4.667-14.404-3.237-7.202-3.237-14.404.213-7.202.213-14.404,2.742-7.202,2.742-14.405-2.407-7.203-2.407-14.405,1.559-7.203,1.559-14.406-4.029-7.202-4.029-14.405,2.725-7.202,2.725-14.404,2.509-7.202,2.509-14.404-4.137-7.202-4.137-14.404,2.22-7.202,2.22-14.404.262-7.202.262-14.404.698-7.202.698-14.404-.598-7.202-.598-14.404,2.421-7.202,2.421-14.405-6.208-7.203-6.208-14.406.203-7.203.203-14.405.358-7.202.358-14.405,5.727-7.202,5.727-14.404-5.715-7.202-5.715-14.404,4.342-7.202,4.342-14.404.98-7.202.98-14.404-1.966-7.202-1.966-14.404.332-7.202.332-14.404-2.871-7.202-2.871-14.405,1.13-7.203,1.13-14.406,1.358-7.203,1.358-14.405.856-7.202.856-14.405-1.042-7.202-1.042-14.404-2.372-7.202-2.372-14.404.925-7.202.925-14.404-.684-7.2-.684-14.4.944-7.2.944-14.399.278-7.199.278-14.399,3.353-7.199,3.353-14.399-2.724-7.199-2.724-14.399-.72-7.199-.72-14.399,2.451-7.2,2.451-14.399-.716-7.2-.716-14.4,1.216-7.2,1.216-14.401-6-7.201-6-14.402,5.098-7.202,5.098-14.403-4.137-7.202-4.137-14.404,4.463-7.203,4.463-14.406-1.49-7.202-1.49-14.405-2.941-7.202-2.941-14.404,4.423-7.201,4.423-14.402,1.11-7.201,1.11-14.401-5.731-7.2-5.731-14.401,4.569-7.2,4.569-14.4-5.251-7.2-5.251-14.4,4.81-7.2,4.81-14.4-4.006-7.2-4.006-14.4.799-7.2.799-14.4,2.323-7.2,2.323-14.401-3.701-7.201-3.701-14.402.764-7.201.764-14.403,5.34-7.202,5.34-14.404-6.124-7.203-6.124-14.405,3.549-7.203,3.549-14.406.392-7.202.392-14.405-3.512-7.202-3.512-14.403-.318-7.201-.318-14.402.407-7.201.407-14.402,5.457-7.201,5.457-14.401-5.791-7.2-5.791-14.401,5.911-7.2,5.911-14.401-4.398-7.2-4.398-14.401,1.346-7.201,1.346-14.402-.347-7.201-.347-14.402,3.462-7.202,3.462-14.403-2.004-7.202-2.004-14.405,1.707-7.203,1.707-14.406-4.889-7.203-4.889-14.406,1.621-7.202,1.621-14.405-1.051-7.202-1.051-14.403.661-7.201.661-14.402-1.74-7.201-1.74-14.402,3.935-7.201,3.935-14.402.678-7.201.678-14.402-3.821-7.201-3.821-14.402,3.602-7.201,3.602-14.403-.332-7.202-.332-14.404.483-7.202.483-14.405-2.031-7.203-2.031-14.406.95-7.203.95-14.406-3.773-7.202-3.773-14.405,1.716-7.202,1.716-14.404,3.267-7.201,3.267-14.403-5.156-7.201-5.156-14.402,5.909-7.201,5.909-14.402-3.633-7.201-3.633-14.403.903-7.202.903-14.403-2.225-7.202-2.225-14.404,5.372-7.203,5.372-14.405-2.86-7.204-2.86-14.407,1.012-7.203,1.012-14.406-1.914-7.202-1.914-14.405-1.813-7.202-1.813-14.404.9-7.202.9-14.403,3.771-7.201,3.771-14.403-5.571-7.202-5.571-14.403,2.852-7.202,2.852-14.404,3.356-7.202,3.356-14.405-4.471-7.203-4.471-14.406-.348-7.204-.348-14.407-1.364-7.203-1.364-14.406,2.871-7.202,2.871-14.405-2.276-7.202-2.276-14.404.988-7.202.988-14.404,1.646-7.202,1.646-14.404,1.252-7.202,1.252-14.404-2.073-7.203-2.073-14.406,3.425-7.204,3.425-14.407-4.53-7.203-4.53-14.407,2.419-7.203,2.419-14.405-1.568-7.202-1.568-14.404,3.136-7.202,3.136-14.404.781-7.202.781-14.404-4.191-7.202-4.191-14.405,4.728-7.203,4.728-14.406-3.171-7.204-3.171-14.408,1.286-7.203,1.286-14.406-4.604-7.203-4.604-14.405.254-7.202.254-14.405-.092-7.202-.092-14.405,3.373-7.203,3.373-14.405,2.212-7.203,2.212-14.407-4.206-7.204-4.206-14.408,4.315-7.203,4.315-14.406-4.145-7.203-4.145-14.405,3.223-7.202,3.223-14.405-3.093-7.203-3.093-14.405,2.919-7.203,2.919-14.406-3.827-7.204-3.827-14.408.458-7.204.458-14.407-1.255-7.203-1.255-14.406,4.346-7.203,4.346-14.405-1.573-7.203-1.573-14.406,1.248-7.203,1.248-14.407-1.354-7.204-1.354-14.409-2.899-7.203-2.899-14.407,2.624-7.203,2.624-14.406-1.536-7.203-1.536-14.406,2.883-7.203,2.883-14.407-3.12-7.204-3.12-14.408,3.518-7.204,3.518-14.407-2.389-7.203-2.389-14.406,3.926-7.203,3.926-14.406-4.067-7.204-4.067-14.407-.605-7.204-.605-14.409.678-7.203.678-14.407,2.611-7.203,2.611-14.406-2.644-7.203-2.644-14.407,4.214-7.204,4.214-14.408-3.403-7.204-3.403-14.407,2.579-7.203,2.579-14.407-4.816-7.203-4.816-14.407,4.437-7.204,4.437-14.408,1.191-7.204,1.191-14.408-4.64-7.203-4.64-14.407-.824-7.204-.824-14.407,4.966-7.205,4.966-14.409.5-7.204.5-14.407-3.513-7.204-3.513-14.407.138-7.204.138-14.408.525-7.204.525-14.408,1.339-7.204,1.339-14.407-2.995-7.204-2.995-14.408,2.691-7.204,2.691-14.408-4.113-7.204-4.113-14.407.98-7.204.98-14.408,2.752-7.204,2.752-14.408.333-7.204.333-14.408,2.308-7.205,2.308-14.409-4.18-7.201-4.18-14.403-2.209-7.203-2.209-14.406,5.686-7.204,5.686-14.408.548-7.202.548-14.404-5.076-7.201-5.076-14.403,4.367-7.202,4.367-14.405-3.205-7.205-3.205-14.409.853-7.203.853-14.406-2.7-7.202-2.7-14.404,5.755-7.203,5.755-14.405-2.638-7.205-2.638-14.41,1.274-7.203,1.274-14.406-3.197-7.202-3.197-14.405,2.39-7.204,2.39-14.408-2.226-7.204-2.226-14.408,2.694-7.203,2.694-14.406,1.521-7.204,1.521-14.408-4.358-7.204-4.358-14.409,4.824-7.203,4.824-14.406-6.056-7.205-6.056-14.409,5.534-7.204,5.534-14.408-5.387-7.204-5.387-14.408,3.974-7.205,3.974-14.41-4.622-7.204-4.622-14.408,4.914-7.206,4.914-14.411,1.336-7.204,1.336-14.408-3.94-7.206-3.94-14.411,4.286-7.204,4.286-14.409-4.162-7.205-4.162-14.41-.261-7.205-.261-14.41,4.292-7.205,4.292-14.409-6.487-7.205-6.487-14.411,4.704-7.206,4.704-14.412,1.774-7.205,1.774-14.411-3.567-7.205-3.567-14.41,2.673-7.205,2.673-14.41-2.901-7.205-2.901-14.411,1.048-7.206,1.048-14.411-3.953-7.203-3.953-14.406,4.314-7.205,4.314-14.41,2.524-7.206,2.524-14.412-.628-7.205-.628-14.41-1.342-7.205-1.342-14.41-2.578-7.206-2.578-14.412.725-7.207.725-14.414-1.428-7.206-1.428-14.412,1.723-7.206,1.723-14.413-3.354-7.207-3.354-14.413,4.522-7.208,4.522-14.415-3.052-7.206-3.052-14.411,2.289-7.208,2.289-14.416-1.411-7.206-1.411-14.412,4.005-7.211,4.005-14.421-9.646-10.974-4.55-16.075,8.858,4.507,16.06,4.507,7.202-.42,14.404-.42,7.203-3.031,14.405-3.031,7.203-.862,14.405-.862,7.202.705,14.405.705,7.202-.733,14.404-.733,7.202,1.47,14.404,1.47,7.202-2.319,14.404-2.319,7.202,3.461,14.403,3.461,7.202,1.431,14.403,1.431,7.202-4.629,14.403-4.629,7.202,3.324,14.404,3.324,7.202-.408,14.404-.408,7.202,2.381,14.404,2.381,7.202-6.247,14.405-6.247,7.203-.364,14.406-.364,7.203,5.894,14.405,5.894,7.202-.69,14.405-.69,7.202-.923,14.404-.923,7.202,1.054,14.404,1.054,7.202-3.069,14.404-3.069,7.202,1.99,14.404,1.99,7.202-.052,14.404-.052,7.202,1.386,14.404,1.386,7.202-5.047,14.404-5.047,7.202,3.17,14.405,3.17,7.203-1.612,14.405-1.612,7.203,3.96,14.406,3.96,7.202-5.523,14.405-5.523,7.202,3.076,14.404,3.076,7.202-3.535,14.404-3.535,7.202,4.799,14.404,4.799,7.202-4.565,14.404-4.565,7.202,1.35,14.404,1.35,7.202-.831,14.404-.831,7.202,3.189,14.404,3.189,7.202-1.253,14.405-1.253,7.203,2.848,14.406,2.848,7.203-.601,14.405-.601,7.202-4.974,14.405-4.974,7.202.2,14.404.2,7.202,6.626,14.404,6.626,7.202-5.047,14.404-5.047,7.202,2.313,14.404,2.313,7.202-2.495,14.404-2.495,7.202,3.534,14.404,3.534,7.202-3.622,14.405-3.622,7.203,3.172,14.406,3.172,7.203-2.59,14.405-2.59,7.202.754,14.405.754,7.202-1.442,14.404-1.442,7.202,4.762,14.404,4.762,7.202-4.258,14.404-4.258,7.2.682,14.4.682,7.2.931,14.399.931,7.199-2.533,14.399-2.533,7.199,1.259,14.399,1.259,7.199,1.521,14.399,1.521,7.199.189,14.399.189,7.2-2.263,14.399-2.263,7.2-.832,14.4-.832,7.2,2.954,14.401,2.954,7.201-1.655,14.402-1.655,7.202,1.943,14.403,1.943,7.202,2.214,14.404,2.214,7.203.287,14.406.287,7.202-.949,14.405-.949,7.202-4.361,14.404-4.361,7.201,1.187,14.402,1.187,7.201-.578,14.401-.578,7.2.021,14.401.021,7.2,1.597,14.4,1.597,7.2-2.259,14.4-2.259,7.2,1.039,14.4,1.039,7.2,3.458,14.4,3.458,7.2-4.014,14.4-4.014,7.2,1.388,14.401,1.388,7.201.369,14.402.369,7.201,3.339,14.403,3.339,7.202-1.927,14.404-1.927,7.203-1.452,14.405-1.452,7.203-.072,14.406-.072,7.202-.556,14.405-.556,7.202,1.836,14.403,1.836,7.201-.471,14.402-.471,7.201-2.419,14.402-2.419,7.201,4.011,14.401,4.011,7.2-1.172,14.401-1.172,7.2-3.688,14.401-3.688,7.2,3.325,14.401,3.325,7.201-.132,14.402-.132,7.201-1.289,14.402-1.289,7.202.017,14.403.017,7.202-1.852,14.405-1.852,7.203,4.947,14.406,4.947,7.203-4.199,14.406-4.199,7.202,4.919,14.405,4.919,7.202-6.638,14.403-6.638,7.201,6.028,14.402,6.028,7.201-1.985,14.402-1.985,7.201-1.102,14.402-1.102,7.201-1.241,14.402-1.241,7.201.61,14.402.61,7.201,3.593,14.403,3.593,7.202.193,14.404.193,7.202-5.015,14.405-5.015,7.203.767,14.406.767,7.203-.038,14.406-.038,7.202,2.336,14.405,2.336,7.202-1.502,14.404-1.502,7.201-.124,14.403-.124,7.201,3.133,14.402,3.133,7.201-3.864,14.402-3.864,7.201-.509,14.403-.509,7.202,1.085,14.403,1.085,7.202,1.99,14.404,1.99,7.203-.398,14.405-.398,7.204,1.142,14.407,1.142,7.203-3.604,14.406-3.604,7.202.852,14.405.852,7.202-1.341,14.404-1.341,7.202,3.585,14.403,3.585,7.201-4.755,14.403-4.755,7.202,3.689,14.403,3.689,7.202,2.555,14.404,2.555,7.202-.041,14.405-.041,7.203-1.55,14.406-1.55,7.204.353,14.407.353,7.203-2.184,14.406-2.184,7.202,2.922,14.405,2.922,7.202-4.612,14.404-4.612,7.202,1.219,14.404,1.219,7.202-2.371,14.404-2.371,7.202,1.002,14.404,1.002,7.203-.688,14.406-.688,7.204,5.586,14.407,5.586,7.203-1.46,14.407-1.46,7.203-3.846,14.405-3.846,7.202,2.637,14.404,2.637,7.202-.763,14.404-.763,7.202-.684,14.404-.684,7.202.909,14.405.909,7.203.108,14.406.108,7.204-.483,14.408-.483,7.203-1.123,14.406-1.123,7.203-.522,14.405-.522,7.202,3.706,14.405,3.706,7.202-1.687,14.405-1.687,7.203,2.148,14.405,2.148,7.203-3.803,14.407-3.803,7.204,1.171,14.408,1.171,7.203,3.301,14.406,3.301,7.203-.28,14.405-.28,7.202,1.68,14.405,1.68,7.203-.985,14.405-.985,7.203-.146,14.406-.146,7.204-.813,14.408-.813,7.204-3.939,14.407-3.939,7.203,3.907,14.406,3.907,7.203-1.046,14.405-1.046,7.203-2.957,14.406-2.957,7.203-.311,14.407-.311,7.204,6.296,14.409,6.296,7.203-6.473,14.407-6.473,7.203,4.005,14.406,4.005,7.203-3.33,14.406-3.33,7.203,2.151,14.407,2.151,7.204,2.526,14.408,2.526,7.204-1.362,14.407-1.362,7.203-4.387,14.406-4.387,7.203,4.699,14.406,4.699,7.204-2.819,14.407-2.819,7.204-.831,14.409-.831,7.203.964,14.407.964,7.203-1.976,14.406-1.976,7.203.768,14.407.768,7.204,2.345,14.408,2.345,7.204-2.702,14.407-2.702,7.203,1.408,14.407,1.408,7.203,2.268,14.407,2.268,7.204.228,14.408.228,7.204-.049,14.408-.049,7.203.297,14.407.297,7.204-3.689,14.407-3.689,7.205,5.79,14.409,5.79,7.204-5.637,14.407-5.637,7.204,3.747,14.407,3.747,7.204-.237,14.408-.237,7.204-2.808,14.408-2.808,7.204-.496,14.407-.496,7.204,5.249,14.408,5.249,7.204.334,14.408.334,7.204-1.383,14.407-1.383,7.204.758,14.408.758,7.204-5.213,14.408-5.213,7.204,2.59,14.408,2.59,7.205-2.476,14.409-2.476,7.201,1.656,14.403,1.656,7.203,2.023,14.406,2.023,7.204.734,14.408.734,7.202.223,14.404.223,7.201-4.198,14.403-4.198,7.202,3.461,14.405,3.461,7.205,1.54,14.409,1.54,7.203-4.384,14.406-4.384,7.202,3.4,14.404,3.4,7.203-4.509,14.405-4.509,7.205,3.803,14.41,3.803,7.203-4.005,14.406-4.005,7.202,1.734,14.405,1.734,7.204,3.168,14.408,3.168,7.204-5.305,14.408-5.305,7.203,1.779,14.406,1.779,7.204-1.015,14.408-1.015,7.204,4.609,14.409,4.609,7.203-4.607,14.406-4.607,7.205,3.041,14.409,3.041,7.204-3.239,14.408-3.239,7.204,2.885,14.408,2.885,7.205-.65,14.41-.65,7.204-2.272,14.408-2.272,7.206-.289,14.411-.289,7.204,1.277,14.408,1.277,7.206,3.596,14.411,3.596,7.204-.575,14.409-.575,7.205-.398,14.41-.398,7.205,1.777,14.41,1.777,7.205-2.566,14.409-2.566,7.205.56,14.411.56,7.206,1.228,14.412,1.228,7.205-.298,14.411-.298,7.205-3.09,14.41-3.09,7.205,3.903,14.41,3.903,7.205-3.465,14.411-3.465,7.206,3.305,14.411,3.305,7.203-3.568,14.406-3.568,7.205,4.247,14.41,4.247,7.206-3.67,14.412-3.67,7.205,2.251,14.41,2.251,7.205-4.088,14.41-4.088,7.206,5.154,14.412,5.154,7.207-2.053,14.414-2.053,7.206-2.166,14.412-2.166,7.206,2.807,14.413,2.807,7.207,1.613,14.413,1.613,7.208-1.744,14.415-1.744,7.206-2.184,14.411-2.184,7.208-.568,14.416-.568,7.206-.481,14.412-.481,7.211.378,14.421.378,7.063-1.281,12.165,3.814.141,4.942.141,12.144,4.178,7.202,4.178,14.404-4.485,7.203-4.485,14.405,1.328,7.203,1.328,14.405,1.78,7.202,1.78,14.405,2.766,7.202,2.766,14.404-1.068,7.202-1.068,14.404.948,7.202.948,14.404-.461,7.202-.461,14.403-1.363,7.202-1.363,14.403.97,7.202.97,14.403-3.834,7.202-3.834,14.404.873,7.202.873,14.404,2.841,7.202,2.841,14.404-2.004,7.202-2.004,14.405-2.486,7.203-2.486,14.406,1.646,7.203,1.646,14.405.469,7.202.469,14.405-.241,7.202-.241,14.404-.918,7.202-.918,14.404,3.235,7.202,3.235,14.404-.022,7.202-.022,14.404-3.471,7.202-3.471,14.404,3.866,7.202,3.866,14.404-2.194,7.202-2.194,14.404-2.416,7.202-2.416,14.405-.095,7.203-.095,14.405.496,7.203.496,14.406,2.312,7.202,2.312,14.405,2.855,7.202,2.855,14.404-1.091,7.202-1.091,14.404-4.531,7.202-4.531,14.404,3.839,7.202,3.839,14.404-1.382,7.202-1.382,14.404,2.001,7.202,2.001,14.404-4.986,7.202-4.986,14.404.938,7.202.938,14.405,2.318,7.203,2.318,14.406-.376,7.203-.376,14.405-1.276,7.202-1.276,14.405,3.552,7.202,3.552,14.404-3.056,7.202-3.056,14.404,3.918,7.202,3.918,14.404-2.942,7.202-2.942,14.404,1.168,7.202,1.168,14.404-3.353,7.202-3.353,14.404.226,7.202.226,14.405-.138,7.203-.138,14.406-.175,7.203-.175,14.405,1.189,7.202,1.189,14.405,2.005,7.202,2.005,14.404-2.986,7.202-2.986,14.404,4.599,7.202,4.599,14.404-.679,7.2-.679,14.4-5.214,7.2-5.214,14.399,4.333,7.199,4.333,14.399-.818,7.199-.818,14.399-.749,7.199-.749,14.399,2.793,7.199,2.793,14.399-2.132,7.2-2.132,14.399,2.202,7.2,2.202,14.4-5.714,7.2-5.714,14.401.847,7.201.847,14.402,1.697,7.202,1.697,14.403-.126,7.202-.126,14.404,2.813,7.203,2.813,14.406-3.802,7.202-3.802,14.405-.648,7.202-.648,14.404,2.651,7.201,2.651,14.402-.284,7.201-.284,14.401,2.876,7.2,2.876,14.401-2.987,7.2-2.987,14.4-2.545,7.2-2.545,14.4,4.361,7.2,4.361,14.4-4.775,7.2-4.775,14.4-.423,7.2-.423,14.4,1.15,7.2,1.15,14.401,2.284,7.201,2.284,14.402-2.785,7.201-2.785,14.403,3.734,7.202,3.734,14.404.859,7.203.859,14.405.695,7.203.695,14.406-4.83,7.202-4.83,14.405.181,7.202.181,14.403.76,7.201.76,14.402-.075,7.201-.075,14.402-1.46,7.201-1.46,14.401,5.091,7.2,5.091,14.401-4.019,7.2-4.019,14.401-1.05,7.2-1.05,14.401,6.326,7.201,6.326,14.402-6.035,7.201-6.035,14.402,2.227,7.202,2.227,14.403-.898,7.202-.898,14.405.808,7.203.808,14.406,2.991,7.203,2.991,14.406-3.248,7.202-3.248,14.405-1.892,7.202-1.892,14.403-.821,7.201-.821,14.402,5.037,7.201,5.037,14.402-2.687,7.201-2.687,14.402,1.57,7.201,1.57,14.402-2.284,7.201-2.284,14.402.402,7.201.402,14.403,1.721,7.202,1.721,14.404,2.015,7.202,2.015,14.405.12,7.203.12,14.406-.551,7.203-.551,14.406.622,7.202.622,14.405-5.357,7.202-5.357,14.404-.353,7.201-.353,14.403,1.246,7.201,1.246,14.402,3.129,7.201,3.129,14.402.896,7.201.896,14.403-5.357,7.202-5.357,14.403,2.34,7.202,2.34,14.404.928,7.203.928,14.405.963,7.204.963,14.407-1.87,7.203-1.87,14.406-.211,7.202-.211,14.405-.511,7.202-.511,14.404-1.629,7.202-1.629,14.403,2.048,7.201,2.048,14.403,1.576,7.202,1.576,14.403.002,7.202.002,14.404-1.242,7.202-1.242,14.405,3.789,7.203,3.789,14.406-5.468,7.204-5.468,14.407,4.665,7.203,4.665,14.406-.028,7.202-.028,14.405-.354,7.202-.354,14.404-5.109,7.202-5.109,14.404,5.945,7.202,5.945,14.404-.385,7.202-.385,14.404-3.202,7.203-3.202,14.406-1.397,7.204-1.397,14.407,4.449,7.203,4.449,14.407-1.844,7.203-1.844,14.405-2.538,7.202-2.538,14.404,5.528,7.202,5.528,14.404-4.99,7.202-4.99,14.404,3.741,7.202,3.741,14.405-.168,7.203-.168,14.406-2.357,7.204-2.357,14.408.639,7.203.639,14.406,2.822,7.203,2.822,14.405-2.564,7.202-2.564,14.405-3.624,7.202-3.624,14.405,2.935,7.203,2.935,14.405.731,7.203.731,14.407.524,7.204.524,14.408,2.202,7.203,2.202,14.406-4.383,7.203-4.383,14.405-1.673,7.202-1.673,14.405,5.129,7.203,5.129,14.405-2.383,7.203-2.383,14.406,2.767,7.204,2.767,14.408-5.167,7.204-5.167,14.407,3.412,7.203,3.412,14.406-1.373,7.203-1.373,14.405,1.43,7.203,1.43,14.406,2,7.203,2,14.407-4.076,7.204-4.076,14.409-.138,7.203-.138,14.407,3.192,7.203,3.192,14.406-1.288,7.203-1.288,14.406,1.4,7.203,1.4,14.407,1.453,7.204,1.453,14.408-3.639,7.204-3.639,14.407.161,7.203.161,14.406-3.27,7.203-3.27,14.406,4.791,7.204,4.791,14.407-3.633,7.204-3.633,14.409,2.719,7.203,2.719,14.407-.295,7.203-.295,14.406-2.708,7.203-2.708,14.407,4.019,7.204,4.019,14.408-.369,7.204-.369,14.407-3.814,7.203-3.814,14.407,2.298,7.203,2.298,14.407.24,7.204.24,14.408,3.653,7.204,3.653,14.408-5.69,7.203-5.69,14.407,4.229,7.204,4.229,14.407.902,7.205.902,14.409-1.244,7.204-1.244,14.407-1.639,7.204-1.639,14.407.128,7.204.128,14.408-.616,7.204-.616,14.408,2.031,7.204,2.031,14.407-4.076,7.204-4.076,14.408,1.705,7.204,1.705,14.408,2.489,7.204,2.489,14.407-3.088,7.204-3.088,14.408,2.962,7.204,2.962,14.408,1.019,7.204,1.019,14.408-5.675,7.205-5.675,14.409,2.846,7.201,2.846,14.403,1.426,7.203,1.426,14.406-3.087,7.204-3.087,14.408-1.192,7.202-1.192,14.404.53,7.201.53,14.403,3.032,7.202,3.032,14.405-2.659,7.205-2.659,14.409,5.368,7.203,5.368,14.406-1.156,7.202-1.156,14.404-3.176,7.203-3.176,14.405,3.688,7.205,3.688,14.41-1.477,7.203-1.477,14.406-2.393,7.202-2.393,14.405.156,7.204.156,14.408,4.239,7.204,4.239,14.408-4.075,7.203-4.075,14.406-.723,7.204-.723,14.408-1.293,7.204-1.293,14.409,3.895,7.203,3.895,14.406-.496,7.205-.496,14.409-1.278,7.204-1.278,14.408,2.165,7.204,2.165,14.408-1.727,7.205-1.727,14.41,2.345,7.204,2.345,14.408-.82,7.206-.82,14.411,1.197,7.204,1.197,14.408-3.678,7.206-3.678,14.411,4.909,7.204,4.909,14.409-2.448,7.205-2.448,14.41-3.664,7.205-3.664,14.41-.442,7.205-.442,14.409,1.24,7.205,1.24,14.411,1.128,7.206,1.128,14.412,3.404,7.205,3.404,14.411.071,7.205.071,14.41-6.238,7.205-6.238,14.41,4.89,7.205,4.89,14.411-3.902,7.206-3.902,14.411,3.405,7.203,3.405,14.406-2.684,7.205-2.684,14.41-1.493,7.206-1.493,14.412,5.375,7.205,5.375,14.41-1.553,7.205-1.553,14.41.033,7.206.033,14.412,2.155,7.207,2.155,14.414.234,7.206.234,14.412-.542,7.206-.542,14.413-4.301,7.207-4.301,14.413,4.276,7.208,4.276,14.415.554,7.206.554,14.411-1.652,7.208-1.652,14.416-.79,7.206-.79,14.412-5.053,8.024-3.517,15.07c1.651,7.572,8.171,8.774,3.075,13.876Z" style="fill: #fff;"/>
  <path d="M3651.09,3647.225c-5.089,5.096-7.305-2.355-14.507-2.355s-7.202-.957-14.404-.957-7.203,3.119-14.405,3.119-7.203-.561-14.405-.561-7.202-2.157-14.405-2.157q-7.202,0-14.404-.015c-7.202,0-7.202,5.159-14.404,5.159-7.202,0-7.202-.147-14.404-.147s-7.202-3.798-14.403-3.798-7.202.519-14.403.519-7.202-1.831-14.403-1.831-7.202,5.682-14.404,5.682-7.202.602-14.404.602-7.202-.684-14.404-.684-7.202-5.728-14.405-5.728-7.203,4.623-14.406,4.623-7.203-1.015-14.405-1.015-7.202-1.782-14.405-1.782-7.202,2.26-14.404,2.26-7.202.09-14.404.09-7.202.686-14.404.686-7.202-1.943-14.404-1.943-7.202,1.447-14.404,1.447-7.202-1.737-14.404-1.737-7.202-1.445-14.404-1.445-7.202,2.091-14.405,2.091c-7.203,0-7.203,2.095-14.405,2.095-7.203,0-7.203-4.7-14.406-4.7s-7.202,4.97-14.405,4.97-7.202-5.348-14.404-5.348-7.202,2.54-14.404,2.54-7.202,2.342-14.404,2.342-7.202-.154-14.404-.154-7.202-4.344-14.404-4.344-7.202,3.129-14.404,3.129-7.202-1.074-14.404-1.074-7.202-.207-14.405-.207-7.203-2.412-14.406-2.412c-7.203,0-7.203,6.11-14.405,6.11s-7.202-.554-14.405-.554-7.202-4.488-14.404-4.488-7.202,4.581-14.404,4.581-7.202.589-14.404.589-7.202-2.734-14.404-2.734-7.202,1.595-14.404,1.595-7.202,1.229-14.404,1.229-7.202-5.32-14.405-5.32-7.203-.867-14.406-.867-7.203.815-14.405.815-7.202.754-14.405.754-7.202,2.984-14.404,2.984-7.202-1.5-14.404-1.5-7.202-.94-14.404-.94-7.2.139-14.4.139-7.2,2.503-14.399,2.503-7.199-4.614-14.399-4.614-7.199,1.019-14.399,1.019-7.199-1.129-14.399-1.129-7.199,3.129-14.399,3.129-7.2,2.401-14.399,2.401-7.2-3.247-14.4-3.247-7.2-.089-14.401-.089-7.201.83-14.402.83-7.202-2.437-14.403-2.437-7.202.277-14.404.277-7.203,2.508-14.406,2.508-7.202,1.653-14.405,1.653-7.202-5.472-14.404-5.472-7.201,6.266-14.402,6.266-7.201-3.503-14.401-3.503c-7.2,0-7.2,3.674-14.401,3.674s-7.2-5.145-14.4-5.145-7.2,4.027-14.4,4.027-7.2-4.302-14.4-4.302-7.2-.982-14.4-.982-7.2-.06-14.4-.06-7.2,5.852-14.401,5.852-7.201-5.965-14.402-5.965c-7.201,0-7.201,2.075-14.403,2.075s-7.202,1.237-14.404,1.237-7.203-2.124-14.405-2.124c-7.203,0-7.203,1.015-14.406,1.015s-7.202-1.966-14.405-1.966-7.202.391-14.403.391-7.201,1.571-14.402,1.571-7.201-1.823-14.402-1.823-7.201-.133-14.401-.133-7.2,5.918-14.401,5.918-7.2-.004-14.401-.004-7.2-5.853-14.401-5.853-7.201,2.876-14.402,2.876c-7.201,0-7.201,2.036-14.402,2.036s-7.202.93-14.403.93-7.202-1.082-14.405-1.082-7.203-3.057-14.406-3.057-7.203,4.298-14.406,4.298-7.202-1.987-14.405-1.987-7.202-3.023-14.403-3.023-7.201.597-14.402.597c-7.201,0-7.201,1.633-14.402,1.633s-7.201-2.979-14.402-2.979-7.201,5.921-14.402,5.921c-7.201,0-7.201-2.978-14.402-2.978s-7.201-2.578-14.403-2.578-7.202,1.396-14.404,1.396-7.202-.842-14.405-.842-7.203,2.145-14.406,2.145c-7.203,0-7.203-1.75-14.406-1.75s-7.202-1.838-14.405-1.838-7.202,3.349-14.404,3.349-7.201-2.09-14.403-2.09-7.201,1.931-14.402,1.931-7.201-.652-14.402-.652-7.201,2.194-14.403,2.194-7.202-4.12-14.403-4.12-7.202,1.463-14.404,1.463-7.203-1.959-14.405-1.959-7.204,6.194-14.407,6.194-7.203-.726-14.406-.726-7.202.511-14.405.511-7.202-.8-14.404-.8c-7.202,0-7.202-2.982-14.403-2.982s-7.201,2.587-14.403,2.587-7.202,1.061-14.403,1.061-7.202-1.647-14.404-1.647-7.202,1.098-14.405,1.098-7.203-.103-14.406-.103-7.204.856-14.407.856-7.203-1.702-14.406-1.702-7.202,1.069-14.405,1.069-7.202.993-14.404.993-7.202-3.747-14.404-3.747-7.202-.059-14.404-.059-7.202,2.691-14.404,2.691-7.203-1.547-14.406-1.547-7.204.113-14.407.113-7.203,1.393-14.407,1.393-7.203.87-14.405.87-7.202-3.216-14.404-3.216-7.202.363-14.404.363-7.202-2.559-14.404-2.559-7.202,1.41-14.405,1.41-7.203-2.233-14.406-2.233-7.204,1.837-14.408,1.837-7.203-.463-14.406-.463-7.203,3.107-14.405,3.107-7.202-2.884-14.405-2.884-7.202.04-14.405.04-7.203-1.585-14.405-1.585-7.203,5.833-14.407,5.833-7.204-1.416-14.408-1.416-7.203,1.446-14.406,1.446-7.203-5.534-14.405-5.534-7.202,5.207-14.405,5.207-7.203-4.362-14.405-4.362-7.203,1.959-14.406,1.959-7.204-3.002-14.408-3.002-7.204,4.505-14.407,4.505-7.203-3.168-14.406-3.168-7.203,3.172-14.405,3.172c-7.203,0-7.203-1.501-14.406-1.501s-7.203-2.586-14.407-2.586-7.204,3-14.409,3-7.203-.975-14.407-.975-7.203.037-14.406.037-7.203,1.267-14.406,1.267-7.203-1.611-14.407-1.611-7.204-1.483-14.408-1.483-7.204,2.919-14.407,2.919-7.203-3.628-14.406-3.628c-7.203,0-7.203,3.872-14.406,3.872s-7.204-3.927-14.407-3.927-7.204.729-14.409.729-7.203,5.082-14.407,5.082-7.203-4.652-14.406-4.652-7.203,4.202-14.407,4.202-7.204-1.126-14.408-1.126-7.204-1.802-14.407-1.802-7.203,1.463-14.407,1.463-7.203-2.927-14.407-2.927-7.204,4.765-14.408,4.765-7.204-4.634-14.408-4.634-7.203,1.783-14.407,1.783-7.204-1.376-14.407-1.376-7.205,1.758-14.409,1.758-7.204-1.937-14.407-1.937-7.204,2.53-14.407,2.53-7.204,2.837-14.408,2.837c-7.204,0-7.204-3.031-14.408-3.031s-7.204,2.815-14.407,2.815-7.204-4.985-14.408-4.985-7.204,1.805-14.408,1.805-7.204,2.11-14.407,2.11-7.204-.732-14.408-.732-7.204-1.102-14.408-1.102c-7.204,0-7.204-1.787-14.408-1.787-7.205,0-7.205,2.441-14.409,2.441s-7.201-2.269-14.403-2.269-7.203.378-14.406.378-7.204-2.149-14.408-2.149-7.202,3.998-14.404,3.998c-7.201,0-7.201-2.175-14.403-2.175s-7.202,1.474-14.405,1.474-7.205-1.201-14.409-1.201-7.203,4.191-14.406,4.191-7.202-1.146-14.404-1.146-7.203-2.518-14.405-2.518-7.205.899-14.41.899-7.203-3.087-14.406-3.087-7.202,5.534-14.405,5.534-7.204-6.235-14.408-6.235c-7.204,0-7.204,3.138-14.408,3.138s-7.203-2.713-14.406-2.713-7.204,3.688-14.408,3.688-7.204-2.019-14.409-2.019-7.203-1.426-14.406-1.426-7.205,1.161-14.409,1.161-7.204-.442-14.408-.442-7.204.889-14.408.889c-7.205,0-7.205,4.424-14.41,4.424s-7.204-2.506-14.408-2.506-7.206-.671-14.411-.671-7.204.839-14.408.839-7.206-3.06-14.411-3.06-7.204,4.749-14.409,4.749-7.205-5.492-14.41-5.492c-7.205,0-7.205,1.095-14.41,1.095s-7.205-1.295-14.409-1.295-7.205,4.412-14.411,4.412-7.206-2.209-14.412-2.209-7.205.094-14.411.094c-7.205,0-7.205-1.044-14.41-1.044-7.205,0-7.205,1.778-14.41,1.778s-7.205-.986-14.411-.986-7.206,1.778-14.411,1.778-7.203-3.414-14.406-3.414-7.205,3.116-14.41,3.116-7.206-2.159-14.412-2.159-7.205,3.124-14.41,3.124-7.205.425-14.41.425-7.206-.663-14.412-.663-7.207-3.194-14.414-3.194-7.206-.009-14.412-.009-7.206,3.435-14.413,3.435-7.207-2.697-14.413-2.697-7.208-.68-14.415-.68-7.206,3.414-14.411,3.414-7.208-3.55-14.416-3.55c-7.206,0-7.206-.112-14.412-.112s-7.211,1.293-14.421,1.293-10.487,7.079-15.589,1.983,3.438-8.371,3.438-15.573-3.925-7.202-3.925-14.404.026-7.203.026-14.405,1.181-7.203,1.181-14.405,1.613-7.202,1.613-14.405-1.159-7.202-1.159-14.404-1.642-7.202-1.642-14.404-.124-7.202-.124-14.404-1.012-7.202-1.012-14.403,4.667-7.202,4.667-14.403-2.781-7.202-2.781-14.403.666-7.202.666-14.404,1.703-7.202,1.703-14.404.465-7.202.465-14.404-3.351-7.202-3.351-14.405-2.097-7.203-2.097-14.406,5.897-7.203,5.897-14.405,1.079-7.202,1.079-14.405-5.783-7.202-5.783-14.404,3.648-7.202,3.648-14.404.099-7.202.099-14.404-3.95-7.202-3.95-14.404,4.667-7.202,4.667-14.404-3.237-7.202-3.237-14.404.213-7.202.213-14.404,2.742-7.202,2.742-14.405-2.407-7.203-2.407-14.405,1.559-7.203,1.559-14.406-4.029-7.202-4.029-14.405,2.725-7.202,2.725-14.404,2.509-7.202,2.509-14.404-4.137-7.202-4.137-14.404,2.22-7.202,2.22-14.404.262-7.202.262-14.404.698-7.202.698-14.404-.598-7.202-.598-14.404,2.421-7.202,2.421-14.405-6.208-7.203-6.208-14.406.203-7.203.203-14.405.358-7.202.358-14.405,5.727-7.202,5.727-14.404-5.715-7.202-5.715-14.404,4.342-7.202,4.342-14.404.98-7.202.98-14.404-1.966-7.202-1.966-14.404.332-7.202.332-14.404-2.871-7.202-2.871-14.405,1.13-7.203,1.13-14.406,1.358-7.203,1.358-14.405.856-7.202.856-14.405-1.042-7.202-1.042-14.404-2.372-7.202-2.372-14.404.925-7.202.925-14.404-.684-7.2-.684-14.4.944-7.2.944-14.399.278-7.199.278-14.399,3.353-7.199,3.353-14.399-2.724-7.199-2.724-14.399-.72-7.199-.72-14.399,2.451-7.2,2.451-14.399-.716-7.2-.716-14.4,1.216-7.2,1.216-14.401-6-7.201-6-14.402,5.098-7.202,5.098-14.403-4.137-7.202-4.137-14.404,4.463-7.203,4.463-14.406-1.49-7.202-1.49-14.405-2.941-7.202-2.941-14.404,4.423-7.201,4.423-14.402,1.11-7.201,1.11-14.401-5.731-7.2-5.731-14.401,4.569-7.2,4.569-14.4-5.251-7.2-5.251-14.4,4.81-7.2,4.81-14.4-4.006-7.2-4.006-14.4.799-7.2.799-14.4,2.323-7.2,2.323-14.401-3.701-7.201-3.701-14.402.764-7.201.764-14.403,5.34-7.202,5.34-14.404-6.124-7.203-6.124-14.405,3.549-7.203,3.549-14.406.392-7.202.392-14.405-3.512-7.202-3.512-14.403-.318-7.201-.318-14.402.407-7.201.407-14.402,5.457-7.201,5.457-14.401-5.791-7.2-5.791-14.401,5.911-7.2,5.911-14.401-4.398-7.2-4.398-14.401,1.346-7.201,1.346-14.402-.347-7.201-.347-14.402,3.462-7.202,3.462-14.403-2.004-7.202-2.004-14.405,1.707-7.203,1.707-14.406-4.889-7.203-4.889-14.406,1.621-7.202,1.621-14.405-1.051-7.202-1.051-14.403.661-7.201.661-14.402-1.74-7.201-1.74-14.402,3.935-7.201,3.935-14.402.678-7.201.678-14.402-3.821-7.201-3.821-14.402,3.602-7.201,3.602-14.403-.332-7.202-.332-14.404.483-7.202.483-14.405-2.031-7.203-2.031-14.406.95-7.203.95-14.406-3.773-7.202-3.773-14.405,1.716-7.202,1.716-14.404,3.267-7.201,3.267-14.403-5.156-7.201-5.156-14.402,5.909-7.201,5.909-14.402-3.633-7.201-3.633-14.403.903-7.202.903-14.403-2.225-7.202-2.225-14.404,5.372-7.203,5.372-14.405-2.86-7.204-2.86-14.407,1.012-7.203,1.012-14.406-1.914-7.202-1.914-14.405-1.813-7.202-1.813-14.404.9-7.202.9-14.403,3.771-7.201,3.771-14.403-5.571-7.202-5.571-14.403,2.852-7.202,2.852-14.404,3.356-7.202,3.356-14.405-4.471-7.203-4.471-14.406-.348-7.204-.348-14.407-1.364-7.203-1.364-14.406,2.871-7.202,2.871-14.405-2.276-7.202-2.276-14.404.988-7.202.988-14.404,1.646-7.202,1.646-14.404,1.252-7.202,1.252-14.404-2.073-7.203-2.073-14.406,3.425-7.204,3.425-14.407-4.53-7.203-4.53-14.407,2.419-7.203,2.419-14.405-1.568-7.202-1.568-14.404,3.136-7.202,3.136-14.404.781-7.202.781-14.404-4.191-7.202-4.191-14.405,4.728-7.203,4.728-14.406-3.171-7.204-3.171-14.408,1.286-7.203,1.286-14.406-4.604-7.203-4.604-14.405.254-7.202.254-14.405-.092-7.202-.092-14.405,3.373-7.203,3.373-14.405,2.212-7.203,2.212-14.407-4.206-7.204-4.206-14.408,4.315-7.203,4.315-14.406-4.145-7.203-4.145-14.405,3.223-7.202,3.223-14.405-3.093-7.203-3.093-14.405,2.919-7.203,2.919-14.406-3.827-7.204-3.827-14.408.458-7.204.458-14.407-1.255-7.203-1.255-14.406,4.346-7.203,4.346-14.405-1.573-7.203-1.573-14.406,1.248-7.203,1.248-14.407-1.354-7.204-1.354-14.409-2.899-7.203-2.899-14.407,2.624-7.203,2.624-14.406-1.536-7.203-1.536-14.406,2.883-7.203,2.883-14.407-3.12-7.204-3.12-14.408,3.518-7.204,3.518-14.407-2.389-7.203-2.389-14.406,3.926-7.203,3.926-14.406-4.067-7.204-4.067-14.407-.605-7.204-.605-14.409.678-7.203.678-14.407,2.611-7.203,2.611-14.406-2.644-7.203-2.644-14.407,4.214-7.204,4.214-14.408-3.403-7.204-3.403-14.407,2.579-7.203,2.579-14.407-4.816-7.203-4.816-14.407,4.437-7.204,4.437-14.408,1.191-7.204,1.191-14.408-4.64-7.203-4.64-14.407-.824-7.204-.824-14.407,4.966-7.205,4.966-14.409.5-7.204.5-14.407-3.513-7.204-3.513-14.407.138-7.204.138-14.408.525-7.204.525-14.408,1.339-7.204,1.339-14.407-2.995-7.204-2.995-14.408,2.691-7.204,2.691-14.408-4.113-7.204-4.113-14.407.98-7.204.98-14.408,2.752-7.204,2.752-14.408.333-7.204.333-14.408,2.308-7.205,2.308-14.409-4.18-7.201-4.18-14.403-2.209-7.203-2.209-14.406,5.686-7.204,5.686-14.408.548-7.202.548-14.404-5.076-7.201-5.076-14.403,4.367-7.202,4.367-14.405-3.205-7.205-3.205-14.409.853-7.203.853-14.406-2.7-7.202-2.7-14.404,5.755-7.203,5.755-14.405-2.638-7.205-2.638-14.41,1.274-7.203,1.274-14.406-3.197-7.202-3.197-14.405,2.39-7.204,2.39-14.408-2.226-7.204-2.226-14.408,2.694-7.203,2.694-14.406,1.521-7.204,1.521-14.408-4.358-7.204-4.358-14.409,4.824-7.203,4.824-14.406-6.056-7.205-6.056-14.409,5.534-7.204,5.534-14.408-5.387-7.204-5.387-14.408,3.974-7.205,3.974-14.41-4.622-7.204-4.622-14.408,4.914-7.206,4.914-14.411,1.336-7.204,1.336-14.408-3.94-7.206-3.94-14.411,4.286-7.204,4.286-14.409-4.162-7.205-4.162-14.41-.261-7.205-.261-14.41,4.292-7.205,4.292-14.409-6.487-7.205-6.487-14.411,4.704-7.206,4.704-14.412,1.774-7.205,1.774-14.411-3.567-7.205-3.567-14.41,2.673-7.205,2.673-14.41-2.901-7.205-2.901-14.411,1.048-7.206,1.048-14.411-3.953-7.203-3.953-14.406,4.314-7.205,4.314-14.41,2.524-7.206,2.524-14.412-.628-7.205-.628-14.41-1.342-7.205-1.342-14.41-2.578-7.206-2.578-14.412.725-7.207.725-14.414-1.428-7.206-1.428-14.412,1.723-7.206,1.723-14.413-3.354-7.207-3.354-14.413,4.522-7.208,4.522-14.415-3.052-7.206-3.052-14.411,2.289-7.208,2.289-14.416-1.411-7.206-1.411-14.412,4.005-7.211,4.005-14.421-9.646-10.974-4.55-16.075,8.858,4.507,16.06,4.507,7.202-.42,14.404-.42,7.203-3.031,14.405-3.031,7.203-.862,14.405-.862,7.202.705,14.405.705,7.202-.733,14.404-.733,7.202,1.47,14.404,1.47,7.202-2.319,14.404-2.319,7.202,3.461,14.403,3.461,7.202,1.431,14.403,1.431,7.202-4.629,14.403-4.629,7.202,3.324,14.404,3.324,7.202-.408,14.404-.408,7.202,2.381,14.404,2.381,7.202-6.247,14.405-6.247,7.203-.364,14.406-.364,7.203,5.894,14.405,5.894,7.202-.69,14.405-.69,7.202-.923,14.404-.923,7.202,1.054,14.404,1.054,7.202-3.069,14.404-3.069,7.202,1.99,14.404,1.99,7.202-.052,14.404-.052,7.202,1.386,14.404,1.386,7.202-5.047,14.404-5.047,7.202,3.17,14.405,3.17,7.203-1.612,14.405-1.612,7.203,3.96,14.406,3.96,7.202-5.523,14.405-5.523,7.202,3.076,14.404,3.076,7.202-3.535,14.404-3.535,7.202,4.799,14.404,4.799,7.202-4.565,14.404-4.565,7.202,1.35,14.404,1.35,7.202-.831,14.404-.831,7.202,3.189,14.404,3.189,7.202-1.253,14.405-1.253,7.203,2.848,14.406,2.848,7.203-.601,14.405-.601,7.202-4.974,14.405-4.974,7.202.2,14.404.2,7.202,6.626,14.404,6.626,7.202-5.047,14.404-5.047,7.202,2.313,14.404,2.313,7.202-2.495,14.404-2.495,7.202,3.534,14.404,3.534,7.202-3.622,14.405-3.622,7.203,3.172,14.406,3.172,7.203-2.59,14.405-2.59,7.202.754,14.405.754,7.202-1.442,14.404-1.442,7.202,4.762,14.404,4.762,7.202-4.258,14.404-4.258,7.2.682,14.4.682,7.2.931,14.399.931,7.199-2.533,14.399-2.533,7.199,1.259,14.399,1.259,7.199,1.521,14.399,1.521,7.199.189,14.399.189,7.2-2.263,14.399-2.263,7.2-.832,14.4-.832,7.2,2.954,14.401,2.954,7.201-1.655,14.402-1.655,7.202,1.943,14.403,1.943,7.202,2.214,14.404,2.214,7.203.287,14.406.287,7.202-.949,14.405-.949,7.202-4.361,14.404-4.361,7.201,1.187,14.402,1.187,7.201-.578,14.401-.578,7.2.021,14.401.021,7.2,1.597,14.4,1.597,7.2-2.259,14.4-2.259,7.2,1.039,14.4,1.039,7.2,3.458,14.4,3.458,7.2-4.014,14.4-4.014,7.2,1.388,14.401,1.388,7.201.369,14.402.369,7.201,3.339,14.403,3.339,7.202-1.927,14.404-1.927,7.203-1.452,14.405-1.452,7.203-.072,14.406-.072,7.202-.556,14.405-.556,7.202,1.836,14.403,1.836,7.201-.471,14.402-.471,7.201-2.419,14.402-2.419,7.201,4.011,14.401,4.011,7.2-1.172,14.401-1.172,7.2-3.688,14.401-3.688,7.2,3.325,14.401,3.325,7.201-.132,14.402-.132,7.201-1.289,14.402-1.289,7.202.017,14.403.017,7.202-1.852,14.405-1.852,7.203,4.947,14.406,4.947,7.203-4.199,14.406-4.199,7.202,4.919,14.405,4.919,7.202-6.638,14.403-6.638,7.201,6.028,14.402,6.028,7.201-1.985,14.402-1.985,7.201-1.102,14.402-1.102,7.201-1.241,14.402-1.241,7.201.61,14.402.61,7.201,3.593,14.403,3.593,7.202.193,14.404.193,7.202-5.015,14.405-5.015,7.203.767,14.406.767,7.203-.038,14.406-.038,7.202,2.336,14.405,2.336,7.202-1.502,14.404-1.502,7.201-.124,14.403-.124,7.201,3.133,14.402,3.133,7.201-3.864,14.402-3.864,7.201-.509,14.403-.509,7.202,1.085,14.403,1.085,7.202,1.99,14.404,1.99,7.203-.398,14.405-.398,7.204,1.142,14.407,1.142,7.203-3.604,14.406-3.604,7.202.852,14.405.852,7.202-1.341,14.404-1.341,7.202,3.585,14.403,3.585,7.201-4.755,14.403-4.755,7.202,3.689,14.403,3.689,7.202,2.555,14.404,2.555,7.202-.041,14.405-.041,7.203-1.55,14.406-1.55,7.204.353,14.407.353,7.203-2.184,14.406-2.184,7.202,2.922,14.405,2.922,7.202-4.612,14.404-4.612,7.202,1.219,14.404,1.219,7.202-2.371,14.404-2.371,7.202,1.002,14.404,1.002,7.203-.688,14.406-.688,7.204,5.586,14.407,5.586,7.203-1.46,14.407-1.46,7.203-3.846,14.405-3.846,7.202,2.637,14.404,2.637,7.202-.763,14.404-.763,7.202-.684,14.404-.684,7.202.909,14.405.909,7.203.108,14.406.108,7.204-.483,14.408-.483,7.203-1.123,14.406-1.123,7.203-.522,14.405-.522,7.202,3.706,14.405,3.706,7.202-1.687,14.405-1.687,7.203,2.148,14.405,2.148,7.203-3.803,14.407-3.803,7.204,1.171,14.408,1.171,7.203,3.301,14.406,3.301,7.203-.28,14.405-.28,7.202,1.68,14.405,1.68,7.203-.985,14.405-.985,7.203-.146,14.406-.146,7.204-.813,14.408-.813,7.204-3.939,14.407-3.939,7.203,3.907,14.406,3.907,7.203-1.046,14.405-1.046,7.203-2.957,14.406-2.957,7.203-.311,14.407-.311,7.204,6.296,14.409,6.296,7.203-6.473,14.407-6.473,7.203,4.005,14.406,4.005,7.203-3.33,14.406-3.33,7.203,2.151,14.407,2.151,7.204,2.526,14.408,2.526,7.204-1.362,14.407-1.362,7.203-4.387,14.406-4.387,7.203,4.699,14.406,4.699,7.204-2.819,14.407-2.819,7.204-.831,14.409-.831,7.203.964,14.407.964,7.203-1.976,14.406-1.976,7.203.768,14.407.768,7.204,2.345,14.408,2.345,7.204-2.702,14.407-2.702,7.203,1.408,14.407,1.408,7.203,2.268,14.407,2.268,7.204.228,14.408.228,7.204-.049,14.408-.049,7.203.297,14.407.297,7.204-3.689,14.407-3.689,7.205,5.79,14.409,5.79,7.204-5.637,14.407-5.637,7.204,3.747,14.407,3.747,7.204-.237,14.408-.237,7.204-2.808,14.408-2.808,7.204-.496,14.407-.496,7.204,5.249,14.408,5.249,7.204.334,14.408.334,7.204-1.383,14.407-1.383,7.204.758,14.408.758,7.204-5.213,14.408-5.213,7.204,2.59,14.408,2.59,7.205-2.476,14.409-2.476,7.201,1.656,14.403,1.656,7.203,2.023,14.406,2.023,7.204.734,14.408.734,7.202.223,14.404.223,7.201-4.198,14.403-4.198,7.202,3.461,14.405,3.461,7.205,1.54,14.409,1.54,7.203-4.384,14.406-4.384,7.202,3.4,14.404,3.4,7.203-4.509,14.405-4.509,7.205,3.803,14.41,3.803,7.203-4.005,14.406-4.005,7.202,1.734,14.405,1.734,7.204,3.168,14.408,3.168,7.204-5.305,14.408-5.305,7.203,1.779,14.406,1.779,7.204-1.015,14.408-1.015,7.204,4.609,14.409,4.609,7.203-4.607,14.406-4.607,7.205,3.041,14.409,3.041,7.204-3.239,14.408-3.239,7.204,2.885,14.408,2.885,7.205-.65,14.41-.65,7.204-2.272,14.408-2.272,7.206-.289,14.411-.289,7.204,1.277,14.408,1.277,7.206,3.596,14.411,3.596,7.204-.575,14.409-.575,7.205-.398,14.41-.398,7.205,1.777,14.41,1.777,7.205-2.566,14.409-2.566,7.205.56,14.411.56,7.206,1.228,14.412,1.228,7.205-.298,14.411-.298,7.205-3.09,14.41-3.09,7.205,3.903,14.41,3.903,7.205-3.465,14.411-3.465,7.206,3.305,14.411,3.305,7.203-3.568,14.406-3.568,7.205,4.247,14.41,4.247,7.206-3.67,14.412-3.67,7.205,2.251,14.41,2.251,7.205-4.088,14.41-4.088,7.206,5.154,14.412,5.154,7.207-2.053,14.414-2.053,7.206-2.166,14.412-2.166,7.206,2.807,14.413,2.807,7.207,1.613,14.413,1.613,7.208-1.744,14.415-1.744,7.206-2.184,14.411-2.184,7.208-.568,14.416-.568,7.206-.481,14.412-.481,7.211.378,14.421.378,7.063-1.281,12.165,3.814.141,4.942.141,12.144,4.178,7.202,4.178,14.404-4.485,7.203-4.485,14.405,1.328,7.203,1.328,14.405,1.78,7.202,1.78,14.405,2.766,7.202,2.766,14.404-1.068,7.202-1.068,14.404.948,7.202.948,14.404-.461,7.202-.461,14.403-1.363,7.202-1.363,14.403.97,7.202.97,14.403-3.834,7.202-3.834,14.404.873,7.202.873,14.404,2.841,7.202,2.841,14.404-2.004,7.202-2.004,14.405-2.486,7.203-2.486,14.406,1.646,7.203,1.646,14.405.469,7.202.469,14.405-.241,7.202-.241,14.404-.918,7.202-.918,14.404,3.235,7.202,3.235,14.404-.022,7.202-.022,14.404-3.471,7.202-3.471,14.404,3.866,7.202,3.866,14.404-2.194,7.202-2.194,14.404-2.416,7.202-2.416,14.405-.095,7.203-.095,14.405.496,7.203.496,14.406,2.312,7.202,2.312,14.405,2.855,7.202,2.855,14.404-1.091,7.202-1.091,14.404-4.531,7.202-4.531,14.404,3.839,7.202,3.839,14.404-1.382,7.202-1.382,14.404,2.001,7.202,2.001,14.404-4.986,7.202-4.986,14.404.938,7.202.938,14.405,2.318,7.203,2.318,14.406-.376,7.203-.376,14.405-1.276,7.202-1.276,14.405,3.552,7.202,3.552,14.404-3.056,7.202-3.056,14.404,3.918,7.202,3.918,14.404-2.942,7.202-2.942,14.404,1.168,7.202,1.168,14.404-3.353,7.202-3.353,14.404.226,7.202.226,14.405-.138,7.203-.138,14.406-.175,7.203-.175,14.405,1.189,7.202,1.189,14.405,2.005,7.202,2.005,14.404-2.986,7.202-2.986,14.404,4.599,7.202,4.599,14.404-.679,7.2-.679,14.4-5.214,7.2-5.214,14.399,4.333,7.199,4.333,14.399-.818,7.199-.818,14.399-.749,7.199-.749,14.399,2.793,7.199,2.793,14.399-2.132,7.2-2.132,14.399,2.202,7.2,2.202,14.4-5.714,7.2-5.714,14.401.847,7.201.847,14.402,1.697,7.202,1.697,14.403-.126,7.202-.126,14.404,2.813,7.203,2.813,14.406-3.802,7.202-3.802,14.405-.648,7.202-.648,14.404,2.651,7.201,2.651,14.402-.284,7.201-.284,14.401,2.876,7.2,2.876,14.401-2.987,7.2-2.987,14.4-2.545,7.2-2.545,14.4,4.361,7.2,4.361,14.4-4.775,7.2-4.775,14.4-.423,7.2-.423,14.4,1.15,7.2,1.15,14.401,2.284,7.201,2.284,14.402-2.785,7.201-2.785,14.403,3.734,7.202,3.734,14.404.859,7.203.859,14.405.695,7.203.695,14.406-4.83,7.202-4.83,14.405.181,7.202.181,14.403.76,7.201.76,14.402-.075,7.201-.075,14.402-1.46,7.201-1.46,14.401,5.091,7.2,5.091,14.401-4.019,7.2-4.019,14.401-1.05,7.2-1.05,14.401,6.326,7.201,6.326,14.402-6.035,7.201-6.035,14.402,2.227,7.202,2.227,14.403-.898,7.202-.898,14.405.808,7.203.808,14.406,2.991,7.203,2.991,14.406-3.248,7.202-3.248,14.405-1.892,7.202-1.892,14.403-.821,7.201-.821,14.402,5.037,7.201,5.037,14.402-2.687,7.201-2.687,14.402,1.57,7.201,1.57,14.402-2.284,7.201-2.284,14.402.402,7.201.402,14.403,1.721,7.202,1.721,14.404,2.015,7.202,2.015,14.405.12,7.203.12,14.406-.551,7.203-.551,14.406.622,7.202.622,14.405-5.357,7.202-5.357,14.404-.353,7.201-.353,14.403,1.246,7.201,1.246,14.402,3.129,7.201,3.129,14.402.896,7.201.896,14.403-5.357,7.202-5.357,14.403,2.34,7.202,2.34,14.404.928,7.203.928,14.405.963,7.204.963,14.407-1.87,7.203-1.87,14.406-.211,7.202-.211,14.405-.511,7.202-.511,14.404-1.629,7.202-1.629,14.403,2.048,7.201,2.048,14.403,1.576,7.202,1.576,14.403.002,7.202.002,14.404-1.242,7.202-1.242,14.405,3.789,7.203,3.789,14.406-5.468,7.204-5.468,14.407,4.665,7.203,4.665,14.406-.028,7.202-.028,14.405-.354,7.202-.354,14.404-5.109,7.202-5.109,14.404,5.945,7.202,5.945,14.404-.385,7.202-.385,14.404-3.202,7.203-3.202,14.406-1.397,7.204-1.397,14.407,4.449,7.203,4.449,14.407-1.844,7.203-1.844,14.405-2.538,7.202-2.538,14.404,5.528,7.202,5.528,14.404-4.99,7.202-4.99,14.404,3.741,7.202,3.741,14.405-.168,7.203-.168,14.406-2.357,7.204-2.357,14.408.639,7.203.639,14.406,2.822,7.203,2.822,14.405-2.564,7.202-2.564,14.405-3.624,7.202-3.624,14.405,2.935,7.203,2.935,14.405.731,7.203.731,14.407.524,7.204.524,14.408,2.202,7.203,2.202,14.406-4.383,7.203-4.383,14.405-1.673,7.202-1.673,14.405,5.129,7.203,5.129,14.405-2.383,7.203-2.383,14.406,2.767,7.204,2.767,14.408-5.167,7.204-5.167,14.407,3.412,7.203,3.412,14.406-1.373,7.203-1.373,14.405,1.43,7.203,1.43,14.406,2,7.203,2,14.407-4.076,7.204-4.076,14.409-.138,7.203-.138,14.407,3.192,7.203,3.192,14.406-1.288,7.203-1.288,14.406,1.4,7.203,1.4,14.407,1.453,7.204,1.453,14.408-3.639,7.204-3.639,14.407.161,7.203.161,14.406-3.27,7.203-3.27,14.406,4.791,7.204,4.791,14.407-3.633,7.204-3.633,14.409,2.719,7.203,2.719,14.407-.295,7.203-.295,14.406-2.708,7.203-2.708,14.407,4.019,7.204,4.019,14.408-.369,7.204-.369,14.407-3.814,7.203-3.814,14.407,2.298,7.203,2.298,14.407.24,7.204.24,14.408,3.653,7.204,3.653,14.408-5.69,7.203-5.69,14.407,4.229,7.204,4.229,14.407.902,7.205.902,14.409-1.244,7.204-1.244,14.407-1.639,7.204-1.639,14.407.128,7.204.128,14.408-.616,7.204-.616,14.408,2.031,7.204,2.031,14.407-4.076,7.204-4.076,14.408,1.705,7.204,1.705,14.408,2.489,7.204,2.489,14.407-3.088,7.204-3.088,14.408,2.962,7.204,2.962,14.408,1.019,7.204,1.019,14.408-5.675,7.205-5.675,14.409,2.846,7.201,2.846,14.403,1.426,7.203,1.426,14.406-3.087,7.204-3.087,14.408-1.192,7.202-1.192,14.404.53,7.201.53,14.403,3.032,7.202,3.032,14.405-2.659,7.205-2.659,14.409,5.368,7.203,5.368,14.406-1.156,7.202-1.156,14.404-3.176,7.203-3.176,14.405,3.688,7.205,3.688,14.41-1.477,7.203-1.477,14.406-2.393,7.202-2.393,14.405.156,7.204.156,14.408,4.239,7.204,4.239,14.408-4.075,7.203-4.075,14.406-.723,7.204-.723,14.408-1.293,7.204-1.293,14.409,3.895,7.203,3.895,14.406-.496,7.205-.496,14.409-1.278,7.204-1.278,14.408,2.165,7.204,2.165,14.408-1.727,7.205-1.727,14.41,2.345,7.204,2.345,14.408-.82,7.206-.82,14.411,1.197,7.204,1.197,14.408-3.678,7.206-3.678,14.411,4.909,7.204,4.909,14.409-2.448,7.205-2.448,14.41-3.664,7.205-3.664,14.41-.442,7.205-.442,14.409,1.24,7.205,1.24,14.411,1.128,7.206,1.128,14.412,3.404,7.205,3.404,14.411.071,7.205.071,14.41-6.238,7.205-6.238,14.41,4.89,7.205,4.89,14.411-3.902,7.206-3.902,14.411,3.405,7.203,3.405,14.406-2.684,7.205-2.684,14.41-1.493,7.206-1.493,14.412,5.375,7.205,5.375,14.41-1.553,7.205-1.553,14.41.033,7.206.033,14.412,2.155,7.207,2.155,14.414.234,7.206.234,14.412-.542,7.206-.542,14.413-4.301,7.207-4.301,14.413,4.276,7.208,4.276,14.415.554,7.206.554,14.411-1.652,7.208-1.652,14.416-.79,7.206-.79,14.412-5.053,8.024-3.517,15.07c1.651,7.572,8.171,8.774,3.075,13.876Z" style="fill: none; stroke: #000; stroke-linecap: round; stroke-linejoin: round; stroke-width: 30px;"/>
</svg>