<?xml version="1.0" encoding="UTF-8"?>
<svg id="Big_Assets" data-name="Big Assets" xmlns="http://www.w3.org/2000/svg" width="3681.882" height="3681.882" viewBox="0 0 3681.882 3681.882">
  <path d="M3649.344,3645.481c-5.089,5.096-5.558,5.095-12.76,5.095s-7.202-5.08-14.404-5.08-7.203,1.99-14.405,1.99-7.203.911-14.405.911-7.202-2.283-14.405-2.283c-7.202,0-7.202.9-14.404.9s-7.202,2.336-14.404,2.336c-7.202,0-7.202-2.14-14.404-2.14s-7.202,2.931-14.403,2.931-7.202-.15-14.403-.15-7.202-3.183-14.403-3.183-7.202.34-14.404.34-7.202-1.515-14.404-1.515-7.202,4.906-14.404,4.906-7.202-3.363-14.405-3.363-7.203-1.589-14.406-1.589-7.203-.299-14.405-.299-7.202,1.59-14.405,1.59-7.202,3.214-14.404,3.214-7.202-6.226-14.404-6.226-7.202.267-14.404.267-7.202,1.964-14.404,1.964-7.202,4.377-14.404,4.377-7.202-.142-14.404-.142-7.202-1.954-14.404-1.954-7.202-3.434-14.405-3.434c-7.203,0-7.203,1.572-14.405,1.572-7.203,0-7.203-1.236-14.406-1.236s-7.202.71-14.405.71-7.202,2.767-14.404,2.767-7.202-2.805-14.404-2.805-7.202-2.312-14.404-2.312-7.202,3.309-14.404,3.309-7.202,2.161-14.404,2.161-7.202-2.809-14.404-2.809-7.202-1.559-14.404-1.559-7.202-.079-14.405-.079-7.203.624-14.406.624c-7.203,0-7.203.024-14.405.024s-7.202,1.698-14.405,1.698-7.202.489-14.404.489-7.202-3.337-14.404-3.337-7.202,6.169-14.404,6.169-7.202-.401-14.404-.401-7.202-4.019-14.404-4.019-7.202.67-14.404.67-7.202-1.777-14.405-1.777-7.203,1.326-14.406,1.326-7.203,4.001-14.405,4.001-7.202-4.274-14.405-4.274-7.202,2.789-14.404,2.789-7.202-3.724-14.404-3.724-7.202,4.958-14.404,4.958-7.2-3.437-14.4-3.437-7.2,2.225-14.399,2.225-7.199-2.525-14.399-2.525-7.199-1.055-14.399-1.055-7.199-.684-14.399-.684-7.199,3.416-14.399,3.416-7.2-.173-14.399-.173-7.2.425-14.4.425-7.2-.308-14.401-.308-7.201-3.329-14.402-3.329-7.202,2.847-14.403,2.847-7.202-2.129-14.404-2.129-7.203,5.169-14.406,5.169-7.202-.119-14.405-.119-7.202-4.499-14.404-4.499-7.201,3.475-14.402,3.475-7.201-5.125-14.401-5.125c-7.2,0-7.2,5.057-14.401,5.057s-7.2-3.236-14.4-3.236-7.2,3.045-14.4,3.045-7.2-2.259-14.4-2.259-7.2,1.378-14.4,1.378-7.2.529-14.4.529-7.2,1.236-14.401,1.236-7.201-2.429-14.402-2.429c-7.201,0-7.201-3.129-14.403-3.129s-7.202,2.501-14.404,2.501-7.203.212-14.405.212c-7.203,0-7.203,3.661-14.406,3.661s-7.202-4.15-14.405-4.15-7.202-.313-14.403-.313-7.201,1.889-14.402,1.889-7.201,2.571-14.402,2.571-7.201-5.766-14.401-5.766-7.2.113-14.401.113-7.2,4.865-14.401,4.865-7.2-3.311-14.401-3.311-7.201-1.12-14.402-1.12c-7.201,0-7.201,3.389-14.402,3.389s-7.202-4.82-14.403-4.82-7.202,6.212-14.405,6.212-7.203.041-14.406.041-7.203-3.238-14.406-3.238-7.202.01-14.405.01-7.202,2.163-14.403,2.163-7.201,1.085-14.402,1.085c-7.201,0-7.201-2.745-14.402-2.745s-7.201.439-14.402.439-7.201-2.927-14.402-2.927c-7.201,0-7.201-.4-14.402-.4s-7.201,2.548-14.403,2.548-7.202,3.428-14.404,3.428-7.202-5.046-14.405-5.046-7.203,3.002-14.406,3.002c-7.203,0-7.203.194-14.406.194s-7.202-.906-14.405-.906-7.202-.818-14.404-.818-7.201.777-14.403.777-7.201,2.832-14.402,2.832-7.201-1.554-14.402-1.554-7.201-3.077-14.403-3.077-7.202,4.484-14.403,4.484-7.202-.02-14.404-.02-7.203-3.315-14.405-3.315-7.204-.281-14.407-.281-7.203.633-14.406.633-7.202-2.929-14.405-2.929-7.202,1.199-14.404,1.199c-7.202,0-7.202,2.868-14.403,2.868s-7.201-2.416-14.403-2.416-7.202,4.332-14.403,4.332-7.202-2.617-14.404-2.617-7.202-.785-14.405-.785-7.203-2.437-14.406-2.437-7.204-.86-14.407-.86-7.203,5.398-14.406,5.398-7.202.981-14.405.981-7.202-2.048-14.404-2.048-7.202-2.512-14.404-2.512-7.202,3.004-14.404,3.004-7.202-4.74-14.404-4.74-7.203-.057-14.406-.057-7.204,6.163-14.407,6.163-7.203.592-14.407.592-7.203-3.199-14.405-3.199-7.202,2.721-14.404,2.721-7.202-1.711-14.404-1.711-7.202,1.525-14.404,1.525-7.202-2.295-14.405-2.295-7.203-3.737-14.406-3.737-7.204,5.84-14.408,5.84-7.203-6.062-14.406-6.062-7.203,5.665-14.405,5.665-7.202.902-14.405.902-7.202-4.245-14.405-4.245-7.203,1.097-14.405,1.097-7.203-1.637-14.407-1.637-7.204-1.227-14.408-1.227-7.203,1.278-14.406,1.278-7.203.463-14.405.463-7.202-.337-14.405-.337-7.203,1.269-14.405,1.269-7.203.159-14.406.159-7.204-2.434-14.408-2.434-7.204.213-14.407.213-7.203-.377-14.406-.377-7.203,4.315-14.405,4.315c-7.203,0-7.203-5.167-14.406-5.167s-7.203,5.091-14.407,5.091-7.204.756-14.409.756-7.203-.39-14.407-.39-7.203,1.483-14.406,1.483-7.203-5.894-14.406-5.894-7.203.501-14.407.501-7.204,4.349-14.408,4.349-7.204-.384-14.407-.384-7.203.403-14.406.403c-7.203,0-7.203-1.659-14.406-1.659s-7.204-2.869-14.407-2.869-7.204-1.376-14.409-1.376-7.203,1.964-14.407,1.964-7.203,3.774-14.406,3.774-7.203-3.329-14.407-3.329-7.204,2.048-14.408,2.048-7.204-.335-14.407-.335-7.203-1.558-14.407-1.558-7.203,2.234-14.407,2.234-7.204-1.998-14.408-1.998-7.204-2.515-14.408-2.515-7.203.133-14.407.133-7.204.285-14.407.285-7.205.299-14.409.299-7.204-.491-14.407-.491-7.204,3.805-14.407,3.805-7.204-2-14.408-2c-7.204,0-7.204-.614-14.408-.614s-7.204-1.655-14.407-1.655-7.204,1.729-14.408,1.729-7.204,2.244-14.408,2.244-7.204-2.761-14.407-2.761-7.204-.417-14.408-.417-7.204,4.897-14.408,4.897c-7.204,0-7.204-4.342-14.408-4.342-7.205,0-7.205-.685-14.409-.685s-7.201.906-14.403.906-7.203,1.813-14.406,1.813-7.204,3.471-14.408,3.471-7.202-2.295-14.404-2.295c-7.201,0-7.201-1.493-14.403-1.493s-7.202.791-14.405.791-7.205,1.661-14.409,1.661-7.203.611-14.406.611-7.202-4.59-14.404-4.59-7.203.882-14.405.882-7.205-1.906-14.41-1.906-7.203,2.262-14.406,2.262-7.202.327-14.405.327-7.204,2.565-14.408,2.565c-7.204,0-7.204-4.734-14.408-4.734s-7.203,4.401-14.406,4.401-7.204-1.309-14.408-1.309-7.204,1.315-14.409,1.315-7.203-1.73-14.406-1.73-7.205-2.527-14.409-2.527-7.204,3.465-14.408,3.465-7.204-1.816-14.408-1.816c-7.205,0-7.205.611-14.41.611s-7.204-1.374-14.408-1.374-7.206-.627-14.411-.627-7.204,5.514-14.408,5.514-7.206-.489-14.411-.489-7.204-1.337-14.409-1.337-7.205.172-14.41.172c-7.205,0-7.205-2.102-14.41-2.102s-7.205,1.294-14.409,1.294-7.205-.938-14.411-.938-7.206-2.423-14.412-2.423-7.205,3.545-14.411,3.545c-7.205,0-7.205-1.482-14.41-1.482-7.205,0-7.205-1.813-14.41-1.813s-7.205.486-14.411.486-7.206-.872-14.411-.872-7.203,5.448-14.406,5.448-7.205-4.17-14.41-4.17-7.206-.883-14.412-.883-7.205-.717-14.41-.717-7.205.506-14.41.506-7.206,1.189-14.412,1.189-7.207,3.68-14.414,3.68-7.206-3.142-14.412-3.142-7.206,2.326-14.413,2.326-7.207,1.418-14.413,1.418-7.208-.787-14.415-.787-7.206-1.955-14.411-1.955-7.208,2.032-14.416,2.032c-7.206,0-7.206-5.124-14.412-5.124s-7.211,1.216-14.421,1.216-11.464,8.733-16.566,3.637-.262-9.349-.262-16.551,2.808-7.202,2.808-14.404,2.315-7.203,2.315-14.405-4.737-7.203-4.737-14.405,1.677-7.202,1.677-14.405,1.722-7.202,1.722-14.404-4.201-7.202-4.201-14.404,5.589-7.202,5.589-14.404.198-7.202.198-14.403-2.413-7.202-2.413-14.403-3.664-7.202-3.664-14.403,2.512-7.202,2.512-14.404-1.104-7.202-1.104-14.404,3.484-7.202,3.484-14.404-4.336-7.202-4.336-14.405,4.467-7.203,4.467-14.406-4.684-7.203-4.684-14.405.249-7.202.249-14.405,5.213-7.202,5.213-14.404-2.799-7.202-2.799-14.404,3.073-7.202,3.073-14.404-4.566-7.202-4.566-14.404-1.375-7.202-1.375-14.404.966-7.202.966-14.404,2.488-7.202,2.488-14.404,2.694-7.202,2.694-14.405-5.907-7.203-5.907-14.405.822-7.203.822-14.406,0-7.202,0-14.405-1.526-7.202-1.526-14.404.929-7.202.929-14.404-.07-7.202-.07-14.404,4.713-7.202,4.713-14.404-3.117-7.202-3.117-14.404,2.706-7.202,2.706-14.404.718-7.202.718-14.404-3.514-7.202-3.514-14.405-1.382-7.203-1.382-14.406,2.367-7.203,2.367-14.405-1.209-7.202-1.209-14.405,1.905-7.202,1.905-14.404-3.181-7.202-3.181-14.404.665-7.202.665-14.404,4.445-7.202,4.445-14.404-4.468-7.202-4.468-14.404-1.272-7.202-1.272-14.404,3.32-7.202,3.32-14.405,1.689-7.203,1.689-14.406-5.186-7.203-5.186-14.405,1.031-7.202,1.031-14.405,5.257-7.202,5.257-14.404-.376-7.202-.376-14.404-4.002-7.202-4.002-14.404,3.747-7.2,3.747-14.4-1.693-7.2-1.693-14.399,2.072-7.199,2.072-14.399.454-7.199.454-14.399-6.441-7.199-6.441-14.399,6.746-7.199,6.746-14.399-5.69-7.2-5.69-14.399,2.774-7.2,2.774-14.4,2.436-7.2,2.436-14.401-5.965-7.201-5.965-14.402,3.811-7.202,3.811-14.403,1.014-7.202,1.014-14.404-2.558-7.203-2.558-14.406,2.164-7.202,2.164-14.405-2.157-7.202-2.157-14.404-1.541-7.201-1.541-14.402,1.602-7.201,1.602-14.401,2.939-7.2,2.939-14.401-3.191-7.2-3.191-14.4,1.291-7.2,1.291-14.4-1.306-7.2-1.306-14.4-2.386-7.2-2.386-14.4,5.213-7.2,5.213-14.4-4.474-7.2-4.474-14.401.841-7.201.841-14.402,5.235-7.201,5.235-14.403-.893-7.202-.893-14.404-1.396-7.203-1.396-14.405-.204-7.203-.204-14.406.063-7.202.063-14.405-1.084-7.202-1.084-14.403.998-7.201.998-14.402-1.234-7.201-1.234-14.402-1.535-7.201-1.535-14.401,4.496-7.2,4.496-14.401-1.779-7.2-1.779-14.401-.322-7.2-.322-14.401-1.363-7.201-1.363-14.402,3.316-7.201,3.316-14.402-1.385-7.202-1.385-14.403-4.257-7.202-4.257-14.405,1.542-7.203,1.542-14.406,3.627-7.203,3.627-14.406-2.724-7.202-2.724-14.405-1.797-7.202-1.797-14.403,5.425-7.201,5.425-14.402-4.498-7.201-4.498-14.402,4.513-7.201,4.513-14.402.127-7.201.127-14.402-.7-7.201-.7-14.402-5.382-7.201-5.382-14.403.196-7.202.196-14.404,4.149-7.202,4.149-14.405,1.767-7.203,1.767-14.406-5.35-7.203-5.35-14.406.389-7.202.389-14.405,2.995-7.202,2.995-14.404-4.462-7.201-4.462-14.403,4.165-7.201,4.165-14.402,2.618-7.201,2.618-14.402-2.3-7.201-2.3-14.403.057-7.202.057-14.403.878-7.202.878-14.404-3.823-7.203-3.823-14.405-1.621-7.204-1.621-14.407,6.569-7.203,6.569-14.406.152-7.202.152-14.405-.183-7.202-.183-14.404-5.577-7.202-5.577-14.403,4.039-7.201,4.039-14.403.612-7.202.612-14.403-1.78-7.202-1.78-14.404.004-7.202.004-14.405,2.266-7.203,2.266-14.406-3.242-7.204-3.242-14.407-1.381-7.203-1.381-14.406.758-7.202.758-14.405.601-7.202.601-14.404,3.438-7.202,3.438-14.404-5.062-7.202-5.062-14.404,5.52-7.202,5.52-14.404-2.391-7.203-2.391-14.406,2.069-7.204,2.069-14.407-2.167-7.203-2.167-14.407.996-7.203.996-14.405-2.923-7.202-2.923-14.404-1.533-7.202-1.533-14.404,2.005-7.202,2.005-14.404-.766-7.202-.766-14.405.731-7.203.731-14.406-2.816-7.204-2.816-14.408.164-7.203.164-14.406,3.773-7.203,3.773-14.405-.962-7.202-.962-14.405-1.808-7.202-1.808-14.405-.984-7.203-.984-14.405.351-7.203.351-14.407-.533-7.204-.533-14.408,2.828-7.203,2.828-14.406-.358-7.203-.358-14.405,1.044-7.202,1.044-14.405-1.409-7.203-1.409-14.405,1.847-7.203,1.847-14.406,2.662-7.204,2.662-14.408-4.297-7.204-4.297-14.407.398-7.203.398-14.406,2.462-7.203,2.462-14.405.538-7.203.538-14.406.575-7.203.575-14.407-5.82-7.204-5.82-14.409,4.267-7.203,4.267-14.407-3.597-7.203-3.597-14.406,1.982-7.203,1.982-14.406,1.4-7.203,1.4-14.407,1.886-7.204,1.886-14.408-2.209-7.204-2.209-14.407-1.078-7.203-1.078-14.406-.123-7.203-.123-14.406,1.25-7.204,1.25-14.407-3.364-7.204-3.364-14.409,5.481-7.203,5.481-14.407-4.308-7.203-4.308-14.406,1.356-7.203,1.356-14.407,2.925-7.204,2.925-14.408-.079-7.204-.079-14.407-4.82-7.203-4.82-14.407,5.409-7.203,5.409-14.407-3.632-7.204-3.632-14.408,3.323-7.204,3.323-14.408-6.621-7.203-6.621-14.407,6.188-7.204,6.188-14.407-3.527-7.205-3.527-14.409,1.665-7.204,1.665-14.407-2.685-7.204-2.685-14.407,2.542-7.204,2.542-14.408-3.609-7.204-3.609-14.408,6.197-7.204,6.197-14.407-2.498-7.204-2.498-14.408-1.129-7.204-1.129-14.408,2.904-7.204,2.904-14.407-6.003-7.204-6.003-14.408,4.025-7.204,4.025-14.408,2.48-7.204,2.48-14.408-2.05-7.205-2.05-14.409-4.409-7.201-4.409-14.403,4.583-7.203,4.583-14.406-1.328-7.204-1.328-14.408,1.034-7.202,1.034-14.404,1.488-7.201,1.488-14.403-4.128-7.202-4.128-14.405,2.456-7.205,2.456-14.409-1.083-7.203-1.083-14.406,3.531-7.202,3.531-14.404-5.326-7.203-5.326-14.405-1.248-7.205-1.248-14.41,5.957-7.203,5.957-14.406-3.078-7.202-3.078-14.405-1.965-7.204-1.965-14.408,2.959-7.204,2.959-14.408.463-7.203.463-14.406-.192-7.204-.192-14.408,1.903-7.204,1.903-14.409-2.231-7.203-2.231-14.406.463-7.205.463-14.409.285-7.204.285-14.408-1.398-7.204-1.398-14.408-.906-7.205-.906-14.41,3.228-7.204,3.228-14.408-.28-7.206-.28-14.411-.481-7.204-.481-14.408-.01-7.206-.01-14.411-4.04-7.204-4.04-14.409-.757-7.205-.757-14.41,3.371-7.205,3.371-14.41,3.443-7.205,3.443-14.409-.005-7.205-.005-14.411-6.701-7.206-6.701-14.412,5.442-7.205,5.442-14.411-2.098-7.205-2.098-14.41-1.1-7.205-1.1-14.41-.87-7.205-.87-14.411,3.144-7.206,3.144-14.411-4.577-7.203-4.577-14.406,6.86-7.205,6.86-14.41-2.946-7.206-2.946-14.412,2.306-7.205,2.306-14.41.316-7.205.316-14.41-5.307-7.206-5.307-14.412-.566-7.207-.566-14.414.527-7.206.527-14.412.146-7.206.146-14.413-.094-7.207-.094-14.413,4.196-7.208,4.196-14.415,1.011-7.206,1.011-14.411-6.016-7.208-6.016-14.416,5.136-7.206,5.136-14.412-5.223-7.211-5.223-14.421-.498-7.808,4.597-12.91,5.689-3.595,12.891-3.595,7.202,2.373,14.404,2.373,7.203,1.38,14.405,1.38,7.203-4.235,14.405-4.235,7.202-.297,14.405-.297,7.202,2.329,14.404,2.329,7.202.404,14.404.404,7.202-2.168,14.404-2.168,7.202-.602,14.403-.602,7.202.33,14.403.33,7.202,2.934,14.403,2.934,7.202-.365,14.404-.365,7.202-1.075,14.404-1.075,7.202,1.105,14.404,1.105,7.202-2.84,14.405-2.84,7.203,2.149,14.406,2.149,7.203,2.36,14.405,2.36,7.202-5.15,14.405-5.15,7.202,4.597,14.404,4.597,7.202-.411,14.404-.411,7.202-3.133,14.404-3.133,7.202.942,14.404.942,7.202-1.014,14.404-1.014,7.202-.045,14.404-.045,7.202.148,14.404.148,7.202,1.676,14.405,1.676,7.203,3.753,14.405,3.753,7.203-.952,14.406-.952,7.202-1.878,14.405-1.878,7.202,1.394,14.404,1.394,7.202-2.108,14.404-2.108,7.202,3.32,14.404,3.32,7.202-2.261,14.404-2.261,7.202-1.602,14.404-1.602,7.202,2.161,14.404,2.161,7.202.93,14.404.93,7.202-.234,14.405-.234,7.203.004,14.406.004,7.203-3.552,14.405-3.552,7.202,4.396,14.405,4.396,7.202-2.54,14.404-2.54,7.202,1.123,14.404,1.123,7.202-1.803,14.404-1.803,7.202,1.197,14.404,1.197,7.202,1.968,14.404,1.968,7.202.736,14.404.736,7.202-5.235,14.405-5.235,7.203-1.283,14.406-1.283,7.203,4.351,14.405,4.351,7.202-2.353,14.405-2.353,7.202,3.581,14.404,3.581,7.202-.098,14.404-.098,7.202,1.1,14.404,1.1,7.2-2.114,14.4-2.114,7.2,1.983,14.399,1.983,7.199-2.006,14.399-2.006,7.199.018,14.399.018,7.199-3.873,14.399-3.873,7.199.616,14.399.616,7.2,1.737,14.399,1.737,7.2.346,14.4.346,7.2-1.487,14.401-1.487,7.201,2.252,14.402,2.252,7.202-2.589,14.403-2.589,7.202,4,14.404,4,7.203.252,14.406.252,7.202.921,14.405.921,7.202-.921,14.404-.921,7.201-4.189,14.402-4.189,7.201-.644,14.401-.644,7.2,1.218,14.401,1.218,7.2,2.424,14.4,2.424,7.2-1.379,14.4-1.379,7.2,1.915,14.4,1.915,7.2-4.335,14.4-4.335,7.2.537,14.4.537,7.2,1.131,14.401,1.131,7.201,2.257,14.402,2.257,7.201-.994,14.403-.994,7.202-3.945,14.404-3.945,7.203,4.357,14.405,4.357,7.203-1.612,14.406-1.612,7.202.301,14.405.301,7.202-.002,14.403-.002,7.201-1.417,14.402-1.417,7.201,5.082,14.402,5.082,7.201-5.294,14.401-5.294,7.2.694,14.401.694,7.2,4.687,14.401,4.687,7.2-1.011,14.401-1.011,7.201-2.198,14.402-2.198,7.201-1.825,14.402-1.825,7.202-1.307,14.403-1.307,7.202,3.146,14.405,3.146,7.203,1.358,14.406,1.358,7.203-3.609,14.406-3.609,7.202.459,14.405.459,7.202.258,14.403.258,7.201,4.394,14.402,4.394,7.201-.347,14.402-.347,7.201-1.656,14.402-1.656,7.201,1.13,14.402,1.13,7.201-5.568,14.402-5.568,7.201,3.653,14.403,3.653,7.202-2.253,14.404-2.253,7.202-.376,14.405-.376,7.203,5.791,14.406,5.791,7.203-.56,14.406-.56,7.202-1.61,14.405-1.61,7.202.508,14.404.508,7.201-3.181,14.403-3.181,7.201,1.744,14.402,1.744,7.201-.788,14.402-.788,7.201-1.416,14.403-1.416,7.202,1.929,14.403,1.929,7.202,1.004,14.404,1.004,7.203-3.238,14.405-3.238,7.204,4.464,14.407,4.464,7.203-.69,14.406-.69,7.202-2.519,14.405-2.519,7.202-1.044,14.404-1.044,7.202,2.367,14.403,2.367,7.201-.8,14.403-.8,7.202,2.832,14.403,2.832,7.202-.924,14.404-.924,7.202-1.682,14.405-1.682,7.203,3.582,14.406,3.582,7.204-.472,14.407-.472,7.203-5.112,14.406-5.112,7.202,2.114,14.405,2.114,7.202-.812,14.404-.812,7.202,2.468,14.404,2.468,7.202-2.252,14.404-2.252,7.202,3.446,14.404,3.446,7.203-1.317,14.406-1.317,7.204-3.804,14.407-3.804,7.203,4.58,14.407,4.58,7.203-4.459,14.405-4.459,7.202,4.902,14.404,4.902,7.202-2.936,14.404-2.936,7.202,3.596,14.404,3.596,7.202-5.299,14.405-5.299,7.203,4.017,14.406,4.017,7.204-.26,14.408-.26,7.203.627,14.406.627,7.203-2.881,14.405-2.881,7.202,2.51,14.405,2.51,7.202,1.424,14.405,1.424,7.203-3.045,14.405-3.045,7.203-3.662,14.407-3.662,7.204,3.825,14.408,3.825,7.203-3.847,14.406-3.847,7.203,3.506,14.405,3.506,7.202,2.74,14.405,2.74,7.203-4.426,14.405-4.426,7.203-.443,14.406-.443,7.204,1.285,14.408,1.285,7.204-.569,14.407-.569,7.203,4.174,14.406,4.174,7.203-3.535,14.405-3.535,7.203,2.935,14.406,2.935,7.203-.107,14.407-.107,7.204.786,14.409.786,7.203-2.286,14.407-2.286,7.203-.721,14.406-.721,7.203,1.799,14.406,1.799,7.203-4.562,14.407-4.562,7.204.54,14.408.54,7.204,1.735,14.407,1.735,7.203,2.333,14.406,2.333,7.203-1.801,14.406-1.801,7.204-3.056,14.407-3.056,7.204-.527,14.409-.527,7.203,2.427,14.407,2.427,7.203,2.285,14.406,2.285,7.203-.627,14.407-.627,7.204.186,14.408.186,7.204-2.745,14.407-2.745,7.203,3.965,14.407,3.965,7.203-2.864,14.407-2.864,7.204,1.357,14.408,1.357,7.204-.613,14.408-.613,7.203-2.844,14.407-2.844,7.204,1.885,14.407,1.885,7.205-2.111,14.409-2.111,7.204.963,14.407.963,7.204-.436,14.407-.436,7.204,4.57,14.408,4.57,7.204-1.019,14.408-1.019,7.204-1.74,14.407-1.74,7.204-.742,14.408-.742,7.204,2.222,14.408,2.222,7.204-.878,14.407-.878,7.204-.955,14.408-.955,7.204,4.547,14.408,4.547,7.204-6.045,14.408-6.045,7.205,2.069,14.409,2.069,7.201,3.059,14.403,3.059,7.203-4.959,14.406-4.959,7.204-.452,14.408-.452,7.202.704,14.404.704,7.201,2.043,14.403,2.043,7.202-1.239,14.405-1.239,7.205-.012,14.409-.012,7.203,4.623,14.406,4.623,7.202-3.351,14.404-3.351,7.203,2.185,14.405,2.185,7.205.351,14.41.351,7.203-2.65,14.406-2.65,7.202-.372,14.405-.372,7.204,2.09,14.408,2.09,7.204-4.607,14.408-4.607,7.203,6.037,14.406,6.037,7.204-5.33,14.408-5.33,7.204,4.084,14.409,4.084,7.203-3.772,14.406-3.772,7.205,4.535,14.409,4.535,7.204-4.736,14.408-4.736,7.204,3.686,14.408,3.686,7.205-3.533,14.41-3.533,7.204.704,14.408.704,7.206,4.959,14.411,4.959,7.204-.167,14.408-.167,7.206-5.81,14.411-5.81,7.204.847,14.409.847,7.205,2.391,14.41,2.391,7.205-.296,14.41-.296,7.205-2.867,14.409-2.867,7.205-.875,14.411-.875,7.206,4.472,14.412,4.472,7.205,1.708,14.411,1.708,7.205-5.543,14.41-5.543,7.205-.148,14.41-.148,7.205,2.088,14.411,2.088,7.206-.461,14.411-.461,7.203,4.482,14.406,4.482,7.205-3.479,14.41-3.479,7.206,3.705,14.412,3.705,7.205-5.847,14.41-5.847,7.205-.247,14.41-.247,7.206-.546,14.412-.546,7.207,2.247,14.414,2.247,7.206.556,14.412.556,7.206.822,14.413.822,7.207.94,14.413.94,7.208-4.383,14.415-4.383,7.206,1.264,14.411,1.264,7.208.106,14.416.106,7.206,4.747,14.412,4.747,7.211-4.751,14.421-4.751,9.535-3.679,14.637,1.416-.132,7.418-.132,14.62-1.865,7.202-1.865,14.404.948,7.203.948,14.405,3.227,7.203,3.227,14.405-3.141,7.202-3.141,14.405,1.619,7.202,1.619,14.404-3.131,7.202-3.131,14.404,2.634,7.202,2.634,14.404-3.564,7.202-3.564,14.403,1.671,7.202,1.671,14.403-.657,7.202-.657,14.403.467,7.202.467,14.404,2.121,7.202,2.121,14.404,1.578,7.202,1.578,14.404-.258,7.202-.258,14.405-1.36,7.203-1.36,14.406.916,7.203.916,14.405-2.518,7.202-2.518,14.405,1.69,7.202,1.69,14.404,2.498,7.202,2.498,14.404-6.037,7.202-6.037,14.404,6.294,7.202,6.294,14.404-.5,7.202-.5,14.404-3.909,7.202-3.909,14.404-1.426,7.202-1.426,14.404,2.116,7.202,2.116,14.405.962,7.203.962,14.405-1.227,7.203-1.227,14.406,3.182,7.202,3.182,14.405-1.703,7.202-1.703,14.404-.897,7.202-.897,14.404-.754,7.202-.754,14.404,3.82,7.202,3.82,14.404-5.754,7.202-5.754,14.404.559,7.202.559,14.404,4.172,7.202,4.172,14.404-1.215,7.202-1.215,14.405-3.874,7.203-3.874,14.406,1.163,7.203,1.163,14.405,4.485,7.202,4.485,14.405.064,7.202.064,14.404-1.438,7.202-1.438,14.404,2.391,7.202,2.391,14.404-1.485,7.202-1.485,14.404,1.198,7.202,1.198,14.404-3.53,7.202-3.53,14.404,1.278,7.202,1.278,14.405,1.073,7.203,1.073,14.406-4.829,7.203-4.829,14.405,5.161,7.202,5.161,14.405-1.553,7.202-1.553,14.404,2.582,7.202,2.582,14.404-4.033,7.202-4.033,14.404,3.806,7.2,3.806,14.4-1.146,7.2-1.146,14.399-3.57,7.199-3.57,14.399,3.417,7.199,3.417,14.399-2.565,7.199-2.565,14.399.885,7.199.885,14.399-3.377,7.2-3.377,14.399,4.959,7.2,4.959,14.4.542,7.2.542,14.401-2.562,7.201-2.562,14.402,2.895,7.202,2.895,14.403-4.063,7.202-4.063,14.404,4.467,7.203,4.467,14.406-1.402,7.202-1.402,14.405-3.62,7.202-3.62,14.404.066,7.201.066,14.402,4.655,7.201,4.655,14.401-5.457,7.2-5.457,14.401-.012,7.2-.012,14.4,1.684,7.2,1.684,14.4,2.917,7.2,2.917,14.4,1.3,7.2,1.3,14.4-.404,7.2-.404,14.4-4.587,7.2-4.587,14.401,4.835,7.201,4.835,14.402-4.022,7.201-4.022,14.403-1.817,7.202-1.817,14.404,1.875,7.203,1.875,14.405,4.414,7.203,4.414,14.406-3.897,7.202-3.897,14.405-.962,7.202-.962,14.403,3.053,7.201,3.053,14.402-2.875,7.201-2.875,14.402-1.322,7.201-1.322,14.401,1.165,7.2,1.165,14.401,2.953,7.2,2.953,14.401-.552,7.2-.552,14.401-1.406,7.201-1.406,14.402-.994,7.201-.994,14.402-.823,7.202-.823,14.403,4.059,7.202,4.059,14.405-1.975,7.203-1.975,14.406-.396,7.203-.396,14.406,1.032,7.202,1.032,14.405,2.76,7.202,2.76,14.403-4.588,7.201-4.588,14.402.35,7.201.35,14.402-1.188,7.201-1.188,14.402-.695,7.201-.695,14.402,5.684,7.201,5.684,14.402-3.587,7.201-3.587,14.403-1.145,7.202-1.145,14.404,4.229,7.202,4.229,14.405-4.673,7.203-4.673,14.406,2.991,7.203,2.991,14.406,1.028,7.202,1.028,14.405-3.196,7.202-3.196,14.404.927,7.201.927,14.403.519,7.201.519,14.402-1.757,7.201-1.757,14.402.268,7.201.268,14.403-.181,7.202-.181,14.403,4.93,7.202,4.93,14.404-6.36,7.203-6.36,14.405,3.414,7.204,3.414,14.407-2.538,7.203-2.538,14.406,3.126,7.202,3.126,14.405-3.945,7.202-3.945,14.404.712,7.202.712,14.403,5.158,7.201,5.158,14.403-2.235,7.202-2.235,14.403-3.59,7.202-3.59,14.404,3.046,7.202,3.046,14.405,1.761,7.203,1.761,14.406-.516,7.204-.516,14.407-2.366,7.203-2.366,14.406,4.211,7.202,4.211,14.405-6.024,7.202-6.024,14.404.71,7.202.71,14.404,2.751,7.202,2.751,14.404.305,7.202.305,14.404-4.111,7.203-4.111,14.406.149,7.204.149,14.407,5.762,7.203,5.762,14.407-1.885,7.203-1.885,14.405.351,7.202.351,14.404.107,7.202.107,14.404,1.93,7.202,1.93,14.404-2.362,7.202-2.362,14.405.831,7.203.831,14.406-3.248,7.204-3.248,14.408-.883,7.203-.883,14.406,3.87,7.203,3.87,14.405-3.618,7.202-3.618,14.405,4.445,7.202,4.445,14.405-2.228,7.203-2.228,14.405-3.036,7.203-3.036,14.407,3.32,7.204,3.32,14.408,1.267,7.203,1.267,14.406-1.78,7.203-1.78,14.405-.093,7.202-.093,14.405-.732,7.203-.732,14.405-2.13,7.203-2.13,14.406,2.86,7.204,2.86,14.408-2.178,7.204-2.178,14.407,5.167,7.203,5.167,14.406-2.23,7.203-2.23,14.405,1.895,7.203,1.895,14.406-4.968,7.203-4.968,14.407-.112,7.204-.112,14.409,2.209,7.203,2.209,14.407,1.242,7.203,1.242,14.406-.991,7.203-.991,14.406-.915,7.203-.915,14.407,2.713,7.204,2.713,14.408-2.785,7.204-2.785,14.407.319,7.203.319,14.406-.124,7.203-.124,14.406,2.476,7.204,2.476,14.407-1.367,7.204-1.367,14.409-3.281,7.203-3.281,14.407,4.024,7.203,4.024,14.406,2.682,7.203,2.682,14.407-6.04,7.204-6.04,14.408,4.495,7.204,4.495,14.407-3.799,7.203-3.799,14.407,1.897,7.203,1.897,14.407-.883,7.204-.883,14.408.19,7.204.19,14.408-1.009,7.203-1.009,14.407.666,7.204.666,14.407-.43,7.205-.43,14.409,1.838,7.204,1.838,14.407-2.758,7.204-2.758,14.407,3.417,7.204,3.417,14.408-.65,7.204-.65,14.408,1.835,7.204,1.835,14.407.386,7.204.386,14.408-4.176,7.204-4.176,14.408,4.595,7.204,4.595,14.407-4.438,7.204-4.438,14.408.373,7.204.373,14.408,1.724,7.204,1.724,14.408.265,7.205.265,14.409-.108,7.201-.108,14.403-4.177,7.203-4.177,14.406,1.748,7.204,1.748,14.408-.351,7.202-.351,14.404,4.71,7.201,4.71,14.403-5.966,7.202-5.966,14.405,6.756,7.205,6.756,14.409-5.726,7.203-5.726,14.406,3.558,7.202,3.558,14.404.463,7.203.463,14.405-1.77,7.205-1.77,14.41,2.866,7.203,2.866,14.406-2.457,7.202-2.457,14.405-1.687,7.204-1.687,14.408.725,7.204.725,14.408-2.03,7.203-2.03,14.406-.369,7.204-.369,14.408,4.841,7.204,4.841,14.409-1.473,7.203-1.473,14.406-.148,7.205-.148,14.409-3.564,7.204-3.564,14.408,4.022,7.204,4.022,14.408-3.374,7.205-3.374,14.41,4.332,7.204,4.332,14.408-.344,7.206-.344,14.411-3.809,7.204-3.809,14.408,1.129,7.206,1.129,14.411-.865,7.204-.865,14.409,4.26,7.205,4.26,14.41-.722,7.205-.722,14.41-4.744,7.205-4.744,14.409,1.427,7.205,1.427,14.411-.442,7.206-.442,14.412,4.28,7.205,4.28,14.411,1.019,7.205,1.019,14.41.122,7.205.122,14.41-2.721,7.205-2.721,14.411-.422,7.206-.422,14.411,1.729,7.203,1.729,14.406,1.615,7.205,1.615,14.41-1.214,7.206-1.214,14.412-3.268,7.205-3.268,14.41,4.445,7.205,4.445,14.41-.45,7.206-.45,14.412-1.461,7.207-1.461,14.414-2.621,7.206-2.621,14.412,3.492,7.206,3.492,14.413-2.751,7.207-2.751,14.413,1.954,7.208,1.954,14.415,1.856,7.206,1.856,14.411-1.819,7.208-1.819,14.416,1.439,7.206,1.439,14.412-7.314,7.836-6.201,14.96c1.055,6.752,6.901,7.139,1.805,12.241Z" style="fill: #fff;"/>
  <path d="M3649.344,3645.481c-5.089,5.096-5.558,5.095-12.76,5.095s-7.202-5.08-14.404-5.08-7.203,1.99-14.405,1.99-7.203.911-14.405.911-7.202-2.283-14.405-2.283c-7.202,0-7.202.9-14.404.9s-7.202,2.336-14.404,2.336c-7.202,0-7.202-2.14-14.404-2.14s-7.202,2.931-14.403,2.931-7.202-.15-14.403-.15-7.202-3.183-14.403-3.183-7.202.34-14.404.34-7.202-1.515-14.404-1.515-7.202,4.906-14.404,4.906-7.202-3.363-14.405-3.363-7.203-1.589-14.406-1.589-7.203-.299-14.405-.299-7.202,1.59-14.405,1.59-7.202,3.214-14.404,3.214-7.202-6.226-14.404-6.226-7.202.267-14.404.267-7.202,1.964-14.404,1.964-7.202,4.377-14.404,4.377-7.202-.142-14.404-.142-7.202-1.954-14.404-1.954-7.202-3.434-14.405-3.434c-7.203,0-7.203,1.572-14.405,1.572-7.203,0-7.203-1.236-14.406-1.236s-7.202.71-14.405.71-7.202,2.767-14.404,2.767-7.202-2.805-14.404-2.805-7.202-2.312-14.404-2.312-7.202,3.309-14.404,3.309-7.202,2.161-14.404,2.161-7.202-2.809-14.404-2.809-7.202-1.559-14.404-1.559-7.202-.079-14.405-.079-7.203.624-14.406.624c-7.203,0-7.203.024-14.405.024s-7.202,1.698-14.405,1.698-7.202.489-14.404.489-7.202-3.337-14.404-3.337-7.202,6.169-14.404,6.169-7.202-.401-14.404-.401-7.202-4.019-14.404-4.019-7.202.67-14.404.67-7.202-1.777-14.405-1.777-7.203,1.326-14.406,1.326-7.203,4.001-14.405,4.001-7.202-4.274-14.405-4.274-7.202,2.789-14.404,2.789-7.202-3.724-14.404-3.724-7.202,4.958-14.404,4.958-7.2-3.437-14.4-3.437-7.2,2.225-14.399,2.225-7.199-2.525-14.399-2.525-7.199-1.055-14.399-1.055-7.199-.684-14.399-.684-7.199,3.416-14.399,3.416-7.2-.173-14.399-.173-7.2.425-14.4.425-7.2-.308-14.401-.308-7.201-3.329-14.402-3.329-7.202,2.847-14.403,2.847-7.202-2.129-14.404-2.129-7.203,5.169-14.406,5.169-7.202-.119-14.405-.119-7.202-4.499-14.404-4.499-7.201,3.475-14.402,3.475-7.201-5.125-14.401-5.125c-7.2,0-7.2,5.057-14.401,5.057s-7.2-3.236-14.4-3.236-7.2,3.045-14.4,3.045-7.2-2.259-14.4-2.259-7.2,1.378-14.4,1.378-7.2.529-14.4.529-7.2,1.236-14.401,1.236-7.201-2.429-14.402-2.429c-7.201,0-7.201-3.129-14.403-3.129s-7.202,2.501-14.404,2.501-7.203.212-14.405.212c-7.203,0-7.203,3.661-14.406,3.661s-7.202-4.15-14.405-4.15-7.202-.313-14.403-.313-7.201,1.889-14.402,1.889-7.201,2.571-14.402,2.571-7.201-5.766-14.401-5.766-7.2.113-14.401.113-7.2,4.865-14.401,4.865-7.2-3.311-14.401-3.311-7.201-1.12-14.402-1.12c-7.201,0-7.201,3.389-14.402,3.389s-7.202-4.82-14.403-4.82-7.202,6.212-14.405,6.212-7.203.041-14.406.041-7.203-3.238-14.406-3.238-7.202.01-14.405.01-7.202,2.163-14.403,2.163-7.201,1.085-14.402,1.085c-7.201,0-7.201-2.745-14.402-2.745s-7.201.439-14.402.439-7.201-2.927-14.402-2.927c-7.201,0-7.201-.4-14.402-.4s-7.201,2.548-14.403,2.548-7.202,3.428-14.404,3.428-7.202-5.046-14.405-5.046-7.203,3.002-14.406,3.002c-7.203,0-7.203.194-14.406.194s-7.202-.906-14.405-.906-7.202-.818-14.404-.818-7.201.777-14.403.777-7.201,2.832-14.402,2.832-7.201-1.554-14.402-1.554-7.201-3.077-14.403-3.077-7.202,4.484-14.403,4.484-7.202-.02-14.404-.02-7.203-3.315-14.405-3.315-7.204-.281-14.407-.281-7.203.633-14.406.633-7.202-2.929-14.405-2.929-7.202,1.199-14.404,1.199c-7.202,0-7.202,2.868-14.403,2.868s-7.201-2.416-14.403-2.416-7.202,4.332-14.403,4.332-7.202-2.617-14.404-2.617-7.202-.785-14.405-.785-7.203-2.437-14.406-2.437-7.204-.86-14.407-.86-7.203,5.398-14.406,5.398-7.202.981-14.405.981-7.202-2.048-14.404-2.048-7.202-2.512-14.404-2.512-7.202,3.004-14.404,3.004-7.202-4.74-14.404-4.74-7.203-.057-14.406-.057-7.204,6.163-14.407,6.163-7.203.592-14.407.592-7.203-3.199-14.405-3.199-7.202,2.721-14.404,2.721-7.202-1.711-14.404-1.711-7.202,1.525-14.404,1.525-7.202-2.295-14.405-2.295-7.203-3.737-14.406-3.737-7.204,5.84-14.408,5.84-7.203-6.062-14.406-6.062-7.203,5.665-14.405,5.665-7.202.902-14.405.902-7.202-4.245-14.405-4.245-7.203,1.097-14.405,1.097-7.203-1.637-14.407-1.637-7.204-1.227-14.408-1.227-7.203,1.278-14.406,1.278-7.203.463-14.405.463-7.202-.337-14.405-.337-7.203,1.269-14.405,1.269-7.203.159-14.406.159-7.204-2.434-14.408-2.434-7.204.213-14.407.213-7.203-.377-14.406-.377-7.203,4.315-14.405,4.315c-7.203,0-7.203-5.167-14.406-5.167s-7.203,5.091-14.407,5.091-7.204.756-14.409.756-7.203-.39-14.407-.39-7.203,1.483-14.406,1.483-7.203-5.894-14.406-5.894-7.203.501-14.407.501-7.204,4.349-14.408,4.349-7.204-.384-14.407-.384-7.203.403-14.406.403c-7.203,0-7.203-1.659-14.406-1.659s-7.204-2.869-14.407-2.869-7.204-1.376-14.409-1.376-7.203,1.964-14.407,1.964-7.203,3.774-14.406,3.774-7.203-3.329-14.407-3.329-7.204,2.048-14.408,2.048-7.204-.335-14.407-.335-7.203-1.558-14.407-1.558-7.203,2.234-14.407,2.234-7.204-1.998-14.408-1.998-7.204-2.515-14.408-2.515-7.203.133-14.407.133-7.204.285-14.407.285-7.205.299-14.409.299-7.204-.491-14.407-.491-7.204,3.805-14.407,3.805-7.204-2-14.408-2c-7.204,0-7.204-.614-14.408-.614s-7.204-1.655-14.407-1.655-7.204,1.729-14.408,1.729-7.204,2.244-14.408,2.244-7.204-2.761-14.407-2.761-7.204-.417-14.408-.417-7.204,4.897-14.408,4.897c-7.204,0-7.204-4.342-14.408-4.342-7.205,0-7.205-.685-14.409-.685s-7.201.906-14.403.906-7.203,1.813-14.406,1.813-7.204,3.471-14.408,3.471-7.202-2.295-14.404-2.295c-7.201,0-7.201-1.493-14.403-1.493s-7.202.791-14.405.791-7.205,1.661-14.409,1.661-7.203.611-14.406.611-7.202-4.59-14.404-4.59-7.203.882-14.405.882-7.205-1.906-14.41-1.906-7.203,2.262-14.406,2.262-7.202.327-14.405.327-7.204,2.565-14.408,2.565c-7.204,0-7.204-4.734-14.408-4.734s-7.203,4.401-14.406,4.401-7.204-1.309-14.408-1.309-7.204,1.315-14.409,1.315-7.203-1.73-14.406-1.73-7.205-2.527-14.409-2.527-7.204,3.465-14.408,3.465-7.204-1.816-14.408-1.816c-7.205,0-7.205.611-14.41.611s-7.204-1.374-14.408-1.374-7.206-.627-14.411-.627-7.204,5.514-14.408,5.514-7.206-.489-14.411-.489-7.204-1.337-14.409-1.337-7.205.172-14.41.172c-7.205,0-7.205-2.102-14.41-2.102s-7.205,1.294-14.409,1.294-7.205-.938-14.411-.938-7.206-2.423-14.412-2.423-7.205,3.545-14.411,3.545c-7.205,0-7.205-1.482-14.41-1.482-7.205,0-7.205-1.813-14.41-1.813s-7.205.486-14.411.486-7.206-.872-14.411-.872-7.203,5.448-14.406,5.448-7.205-4.17-14.41-4.17-7.206-.883-14.412-.883-7.205-.717-14.41-.717-7.205.506-14.41.506-7.206,1.189-14.412,1.189-7.207,3.68-14.414,3.68-7.206-3.142-14.412-3.142-7.206,2.326-14.413,2.326-7.207,1.418-14.413,1.418-7.208-.787-14.415-.787-7.206-1.955-14.411-1.955-7.208,2.032-14.416,2.032c-7.206,0-7.206-5.124-14.412-5.124s-7.211,1.216-14.421,1.216-11.464,8.733-16.566,3.637-.262-9.349-.262-16.551,2.808-7.202,2.808-14.404,2.315-7.203,2.315-14.405-4.737-7.203-4.737-14.405,1.677-7.202,1.677-14.405,1.722-7.202,1.722-14.404-4.201-7.202-4.201-14.404,5.589-7.202,5.589-14.404.198-7.202.198-14.403-2.413-7.202-2.413-14.403-3.664-7.202-3.664-14.403,2.512-7.202,2.512-14.404-1.104-7.202-1.104-14.404,3.484-7.202,3.484-14.404-4.336-7.202-4.336-14.405,4.467-7.203,4.467-14.406-4.684-7.203-4.684-14.405.249-7.202.249-14.405,5.213-7.202,5.213-14.404-2.799-7.202-2.799-14.404,3.073-7.202,3.073-14.404-4.566-7.202-4.566-14.404-1.375-7.202-1.375-14.404.966-7.202.966-14.404,2.488-7.202,2.488-14.404,2.694-7.202,2.694-14.405-5.907-7.203-5.907-14.405.822-7.203.822-14.406,0-7.202,0-14.405-1.526-7.202-1.526-14.404.929-7.202.929-14.404-.07-7.202-.07-14.404,4.713-7.202,4.713-14.404-3.117-7.202-3.117-14.404,2.706-7.202,2.706-14.404.718-7.202.718-14.404-3.514-7.202-3.514-14.405-1.382-7.203-1.382-14.406,2.367-7.203,2.367-14.405-1.209-7.202-1.209-14.405,1.905-7.202,1.905-14.404-3.181-7.202-3.181-14.404.665-7.202.665-14.404,4.445-7.202,4.445-14.404-4.468-7.202-4.468-14.404-1.272-7.202-1.272-14.404,3.32-7.202,3.32-14.405,1.689-7.203,1.689-14.406-5.186-7.203-5.186-14.405,1.031-7.202,1.031-14.405,5.257-7.202,5.257-14.404-.376-7.202-.376-14.404-4.002-7.202-4.002-14.404,3.747-7.2,3.747-14.4-1.693-7.2-1.693-14.399,2.072-7.199,2.072-14.399.454-7.199.454-14.399-6.441-7.199-6.441-14.399,6.746-7.199,6.746-14.399-5.69-7.2-5.69-14.399,2.774-7.2,2.774-14.4,2.436-7.2,2.436-14.401-5.965-7.201-5.965-14.402,3.811-7.202,3.811-14.403,1.014-7.202,1.014-14.404-2.558-7.203-2.558-14.406,2.164-7.202,2.164-14.405-2.157-7.202-2.157-14.404-1.541-7.201-1.541-14.402,1.602-7.201,1.602-14.401,2.939-7.2,2.939-14.401-3.191-7.2-3.191-14.4,1.291-7.2,1.291-14.4-1.306-7.2-1.306-14.4-2.386-7.2-2.386-14.4,5.213-7.2,5.213-14.4-4.474-7.2-4.474-14.401.841-7.201.841-14.402,5.235-7.201,5.235-14.403-.893-7.202-.893-14.404-1.396-7.203-1.396-14.405-.204-7.203-.204-14.406.063-7.202.063-14.405-1.084-7.202-1.084-14.403.998-7.201.998-14.402-1.234-7.201-1.234-14.402-1.535-7.201-1.535-14.401,4.496-7.2,4.496-14.401-1.779-7.2-1.779-14.401-.322-7.2-.322-14.401-1.363-7.201-1.363-14.402,3.316-7.201,3.316-14.402-1.385-7.202-1.385-14.403-4.257-7.202-4.257-14.405,1.542-7.203,1.542-14.406,3.627-7.203,3.627-14.406-2.724-7.202-2.724-14.405-1.797-7.202-1.797-14.403,5.425-7.201,5.425-14.402-4.498-7.201-4.498-14.402,4.513-7.201,4.513-14.402.127-7.201.127-14.402-.7-7.201-.7-14.402-5.382-7.201-5.382-14.403.196-7.202.196-14.404,4.149-7.202,4.149-14.405,1.767-7.203,1.767-14.406-5.35-7.203-5.35-14.406.389-7.202.389-14.405,2.995-7.202,2.995-14.404-4.462-7.201-4.462-14.403,4.165-7.201,4.165-14.402,2.618-7.201,2.618-14.402-2.3-7.201-2.3-14.403.057-7.202.057-14.403.878-7.202.878-14.404-3.823-7.203-3.823-14.405-1.621-7.204-1.621-14.407,6.569-7.203,6.569-14.406.152-7.202.152-14.405-.183-7.202-.183-14.404-5.577-7.202-5.577-14.403,4.039-7.201,4.039-14.403.612-7.202.612-14.403-1.78-7.202-1.78-14.404.004-7.202.004-14.405,2.266-7.203,2.266-14.406-3.242-7.204-3.242-14.407-1.381-7.203-1.381-14.406.758-7.202.758-14.405.601-7.202.601-14.404,3.438-7.202,3.438-14.404-5.062-7.202-5.062-14.404,5.52-7.202,5.52-14.404-2.391-7.203-2.391-14.406,2.069-7.204,2.069-14.407-2.167-7.203-2.167-14.407.996-7.203.996-14.405-2.923-7.202-2.923-14.404-1.533-7.202-1.533-14.404,2.005-7.202,2.005-14.404-.766-7.202-.766-14.405.731-7.203.731-14.406-2.816-7.204-2.816-14.408.164-7.203.164-14.406,3.773-7.203,3.773-14.405-.962-7.202-.962-14.405-1.808-7.202-1.808-14.405-.984-7.203-.984-14.405.351-7.203.351-14.407-.533-7.204-.533-14.408,2.828-7.203,2.828-14.406-.358-7.203-.358-14.405,1.044-7.202,1.044-14.405-1.409-7.203-1.409-14.405,1.847-7.203,1.847-14.406,2.662-7.204,2.662-14.408-4.297-7.204-4.297-14.407.398-7.203.398-14.406,2.462-7.203,2.462-14.405.538-7.203.538-14.406.575-7.203.575-14.407-5.82-7.204-5.82-14.409,4.267-7.203,4.267-14.407-3.597-7.203-3.597-14.406,1.982-7.203,1.982-14.406,1.4-7.203,1.4-14.407,1.886-7.204,1.886-14.408-2.209-7.204-2.209-14.407-1.078-7.203-1.078-14.406-.123-7.203-.123-14.406,1.25-7.204,1.25-14.407-3.364-7.204-3.364-14.409,5.481-7.203,5.481-14.407-4.308-7.203-4.308-14.406,1.356-7.203,1.356-14.407,2.925-7.204,2.925-14.408-.079-7.204-.079-14.407-4.82-7.203-4.82-14.407,5.409-7.203,5.409-14.407-3.632-7.204-3.632-14.408,3.323-7.204,3.323-14.408-6.621-7.203-6.621-14.407,6.188-7.204,6.188-14.407-3.527-7.205-3.527-14.409,1.665-7.204,1.665-14.407-2.685-7.204-2.685-14.407,2.542-7.204,2.542-14.408-3.609-7.204-3.609-14.408,6.197-7.204,6.197-14.407-2.498-7.204-2.498-14.408-1.129-7.204-1.129-14.408,2.904-7.204,2.904-14.407-6.003-7.204-6.003-14.408,4.025-7.204,4.025-14.408,2.48-7.204,2.48-14.408-2.05-7.205-2.05-14.409-4.409-7.201-4.409-14.403,4.583-7.203,4.583-14.406-1.328-7.204-1.328-14.408,1.034-7.202,1.034-14.404,1.488-7.201,1.488-14.403-4.128-7.202-4.128-14.405,2.456-7.205,2.456-14.409-1.083-7.203-1.083-14.406,3.531-7.202,3.531-14.404-5.326-7.203-5.326-14.405-1.248-7.205-1.248-14.41,5.957-7.203,5.957-14.406-3.078-7.202-3.078-14.405-1.965-7.204-1.965-14.408,2.959-7.204,2.959-14.408.463-7.203.463-14.406-.192-7.204-.192-14.408,1.903-7.204,1.903-14.409-2.231-7.203-2.231-14.406.463-7.205.463-14.409.285-7.204.285-14.408-1.398-7.204-1.398-14.408-.906-7.205-.906-14.41,3.228-7.204,3.228-14.408-.28-7.206-.28-14.411-.481-7.204-.481-14.408-.01-7.206-.01-14.411-4.04-7.204-4.04-14.409-.757-7.205-.757-14.41,3.371-7.205,3.371-14.41,3.443-7.205,3.443-14.409-.005-7.205-.005-14.411-6.701-7.206-6.701-14.412,5.442-7.205,5.442-14.411-2.098-7.205-2.098-14.41-1.1-7.205-1.1-14.41-.87-7.205-.87-14.411,3.144-7.206,3.144-14.411-4.577-7.203-4.577-14.406,6.86-7.205,6.86-14.41-2.946-7.206-2.946-14.412,2.306-7.205,2.306-14.41.316-7.205.316-14.41-5.307-7.206-5.307-14.412-.566-7.207-.566-14.414.527-7.206.527-14.412.146-7.206.146-14.413-.094-7.207-.094-14.413,4.196-7.208,4.196-14.415,1.011-7.206,1.011-14.411-6.016-7.208-6.016-14.416,5.136-7.206,5.136-14.412-5.223-7.211-5.223-14.421-.498-7.808,4.597-12.91,5.689-3.595,12.891-3.595,7.202,2.373,14.404,2.373,7.203,1.38,14.405,1.38,7.203-4.235,14.405-4.235,7.202-.297,14.405-.297,7.202,2.329,14.404,2.329,7.202.404,14.404.404,7.202-2.168,14.404-2.168,7.202-.602,14.403-.602,7.202.33,14.403.33,7.202,2.934,14.403,2.934,7.202-.365,14.404-.365,7.202-1.075,14.404-1.075,7.202,1.105,14.404,1.105,7.202-2.84,14.405-2.84,7.203,2.149,14.406,2.149,7.203,2.36,14.405,2.36,7.202-5.15,14.405-5.15,7.202,4.597,14.404,4.597,7.202-.411,14.404-.411,7.202-3.133,14.404-3.133,7.202.942,14.404.942,7.202-1.014,14.404-1.014,7.202-.045,14.404-.045,7.202.148,14.404.148,7.202,1.676,14.405,1.676,7.203,3.753,14.405,3.753,7.203-.952,14.406-.952,7.202-1.878,14.405-1.878,7.202,1.394,14.404,1.394,7.202-2.108,14.404-2.108,7.202,3.32,14.404,3.32,7.202-2.261,14.404-2.261,7.202-1.602,14.404-1.602,7.202,2.161,14.404,2.161,7.202.93,14.404.93,7.202-.234,14.405-.234,7.203.004,14.406.004,7.203-3.552,14.405-3.552,7.202,4.396,14.405,4.396,7.202-2.54,14.404-2.54,7.202,1.123,14.404,1.123,7.202-1.803,14.404-1.803,7.202,1.197,14.404,1.197,7.202,1.968,14.404,1.968,7.202.736,14.404.736,7.202-5.235,14.405-5.235,7.203-1.283,14.406-1.283,7.203,4.351,14.405,4.351,7.202-2.353,14.405-2.353,7.202,3.581,14.404,3.581,7.202-.098,14.404-.098,7.202,1.1,14.404,1.1,7.2-2.114,14.4-2.114,7.2,1.983,14.399,1.983,7.199-2.006,14.399-2.006,7.199.018,14.399.018,7.199-3.873,14.399-3.873,7.199.616,14.399.616,7.2,1.737,14.399,1.737,7.2.346,14.4.346,7.2-1.487,14.401-1.487,7.201,2.252,14.402,2.252,7.202-2.589,14.403-2.589,7.202,4,14.404,4,7.203.252,14.406.252,7.202.921,14.405.921,7.202-.921,14.404-.921,7.201-4.189,14.402-4.189,7.201-.644,14.401-.644,7.2,1.218,14.401,1.218,7.2,2.424,14.4,2.424,7.2-1.379,14.4-1.379,7.2,1.915,14.4,1.915,7.2-4.335,14.4-4.335,7.2.537,14.4.537,7.2,1.131,14.401,1.131,7.201,2.257,14.402,2.257,7.201-.994,14.403-.994,7.202-3.945,14.404-3.945,7.203,4.357,14.405,4.357,7.203-1.612,14.406-1.612,7.202.301,14.405.301,7.202-.002,14.403-.002,7.201-1.417,14.402-1.417,7.201,5.082,14.402,5.082,7.201-5.294,14.401-5.294,7.2.694,14.401.694,7.2,4.687,14.401,4.687,7.2-1.011,14.401-1.011,7.201-2.198,14.402-2.198,7.201-1.825,14.402-1.825,7.202-1.307,14.403-1.307,7.202,3.146,14.405,3.146,7.203,1.358,14.406,1.358,7.203-3.609,14.406-3.609,7.202.459,14.405.459,7.202.258,14.403.258,7.201,4.394,14.402,4.394,7.201-.347,14.402-.347,7.201-1.656,14.402-1.656,7.201,1.13,14.402,1.13,7.201-5.568,14.402-5.568,7.201,3.653,14.403,3.653,7.202-2.253,14.404-2.253,7.202-.376,14.405-.376,7.203,5.791,14.406,5.791,7.203-.56,14.406-.56,7.202-1.61,14.405-1.61,7.202.508,14.404.508,7.201-3.181,14.403-3.181,7.201,1.744,14.402,1.744,7.201-.788,14.402-.788,7.201-1.416,14.403-1.416,7.202,1.929,14.403,1.929,7.202,1.004,14.404,1.004,7.203-3.238,14.405-3.238,7.204,4.464,14.407,4.464,7.203-.69,14.406-.69,7.202-2.519,14.405-2.519,7.202-1.044,14.404-1.044,7.202,2.367,14.403,2.367,7.201-.8,14.403-.8,7.202,2.832,14.403,2.832,7.202-.924,14.404-.924,7.202-1.682,14.405-1.682,7.203,3.582,14.406,3.582,7.204-.472,14.407-.472,7.203-5.112,14.406-5.112,7.202,2.114,14.405,2.114,7.202-.812,14.404-.812,7.202,2.468,14.404,2.468,7.202-2.252,14.404-2.252,7.202,3.446,14.404,3.446,7.203-1.317,14.406-1.317,7.204-3.804,14.407-3.804,7.203,4.58,14.407,4.58,7.203-4.459,14.405-4.459,7.202,4.902,14.404,4.902,7.202-2.936,14.404-2.936,7.202,3.596,14.404,3.596,7.202-5.299,14.405-5.299,7.203,4.017,14.406,4.017,7.204-.26,14.408-.26,7.203.627,14.406.627,7.203-2.881,14.405-2.881,7.202,2.51,14.405,2.51,7.202,1.424,14.405,1.424,7.203-3.045,14.405-3.045,7.203-3.662,14.407-3.662,7.204,3.825,14.408,3.825,7.203-3.847,14.406-3.847,7.203,3.506,14.405,3.506,7.202,2.74,14.405,2.74,7.203-4.426,14.405-4.426,7.203-.443,14.406-.443,7.204,1.285,14.408,1.285,7.204-.569,14.407-.569,7.203,4.174,14.406,4.174,7.203-3.535,14.405-3.535,7.203,2.935,14.406,2.935,7.203-.107,14.407-.107,7.204.786,14.409.786,7.203-2.286,14.407-2.286,7.203-.721,14.406-.721,7.203,1.799,14.406,1.799,7.203-4.562,14.407-4.562,7.204.54,14.408.54,7.204,1.735,14.407,1.735,7.203,2.333,14.406,2.333,7.203-1.801,14.406-1.801,7.204-3.056,14.407-3.056,7.204-.527,14.409-.527,7.203,2.427,14.407,2.427,7.203,2.285,14.406,2.285,7.203-.627,14.407-.627,7.204.186,14.408.186,7.204-2.745,14.407-2.745,7.203,3.965,14.407,3.965,7.203-2.864,14.407-2.864,7.204,1.357,14.408,1.357,7.204-.613,14.408-.613,7.203-2.844,14.407-2.844,7.204,1.885,14.407,1.885,7.205-2.111,14.409-2.111,7.204.963,14.407.963,7.204-.436,14.407-.436,7.204,4.57,14.408,4.57,7.204-1.019,14.408-1.019,7.204-1.74,14.407-1.74,7.204-.742,14.408-.742,7.204,2.222,14.408,2.222,7.204-.878,14.407-.878,7.204-.955,14.408-.955,7.204,4.547,14.408,4.547,7.204-6.045,14.408-6.045,7.205,2.069,14.409,2.069,7.201,3.059,14.403,3.059,7.203-4.959,14.406-4.959,7.204-.452,14.408-.452,7.202.704,14.404.704,7.201,2.043,14.403,2.043,7.202-1.239,14.405-1.239,7.205-.012,14.409-.012,7.203,4.623,14.406,4.623,7.202-3.351,14.404-3.351,7.203,2.185,14.405,2.185,7.205.351,14.41.351,7.203-2.65,14.406-2.65,7.202-.372,14.405-.372,7.204,2.09,14.408,2.09,7.204-4.607,14.408-4.607,7.203,6.037,14.406,6.037,7.204-5.33,14.408-5.33,7.204,4.084,14.409,4.084,7.203-3.772,14.406-3.772,7.205,4.535,14.409,4.535,7.204-4.736,14.408-4.736,7.204,3.686,14.408,3.686,7.205-3.533,14.41-3.533,7.204.704,14.408.704,7.206,4.959,14.411,4.959,7.204-.167,14.408-.167,7.206-5.81,14.411-5.81,7.204.847,14.409.847,7.205,2.391,14.41,2.391,7.205-.296,14.41-.296,7.205-2.867,14.409-2.867,7.205-.875,14.411-.875,7.206,4.472,14.412,4.472,7.205,1.708,14.411,1.708,7.205-5.543,14.41-5.543,7.205-.148,14.41-.148,7.205,2.088,14.411,2.088,7.206-.461,14.411-.461,7.203,4.482,14.406,4.482,7.205-3.479,14.41-3.479,7.206,3.705,14.412,3.705,7.205-5.847,14.41-5.847,7.205-.247,14.41-.247,7.206-.546,14.412-.546,7.207,2.247,14.414,2.247,7.206.556,14.412.556,7.206.822,14.413.822,7.207.94,14.413.94,7.208-4.383,14.415-4.383,7.206,1.264,14.411,1.264,7.208.106,14.416.106,7.206,4.747,14.412,4.747,7.211-4.751,14.421-4.751,9.535-3.679,14.637,1.416-.132,7.418-.132,14.62-1.865,7.202-1.865,14.404.948,7.203.948,14.405,3.227,7.203,3.227,14.405-3.141,7.202-3.141,14.405,1.619,7.202,1.619,14.404-3.131,7.202-3.131,14.404,2.634,7.202,2.634,14.404-3.564,7.202-3.564,14.403,1.671,7.202,1.671,14.403-.657,7.202-.657,14.403.467,7.202.467,14.404,2.121,7.202,2.121,14.404,1.578,7.202,1.578,14.404-.258,7.202-.258,14.405-1.36,7.203-1.36,14.406.916,7.203.916,14.405-2.518,7.202-2.518,14.405,1.69,7.202,1.69,14.404,2.498,7.202,2.498,14.404-6.037,7.202-6.037,14.404,6.294,7.202,6.294,14.404-.5,7.202-.5,14.404-3.909,7.202-3.909,14.404-1.426,7.202-1.426,14.404,2.116,7.202,2.116,14.405.962,7.203.962,14.405-1.227,7.203-1.227,14.406,3.182,7.202,3.182,14.405-1.703,7.202-1.703,14.404-.897,7.202-.897,14.404-.754,7.202-.754,14.404,3.82,7.202,3.82,14.404-5.754,7.202-5.754,14.404.559,7.202.559,14.404,4.172,7.202,4.172,14.404-1.215,7.202-1.215,14.405-3.874,7.203-3.874,14.406,1.163,7.203,1.163,14.405,4.485,7.202,4.485,14.405.064,7.202.064,14.404-1.438,7.202-1.438,14.404,2.391,7.202,2.391,14.404-1.485,7.202-1.485,14.404,1.198,7.202,1.198,14.404-3.53,7.202-3.53,14.404,1.278,7.202,1.278,14.405,1.073,7.203,1.073,14.406-4.829,7.203-4.829,14.405,5.161,7.202,5.161,14.405-1.553,7.202-1.553,14.404,2.582,7.202,2.582,14.404-4.033,7.202-4.033,14.404,3.806,7.2,3.806,14.4-1.146,7.2-1.146,14.399-3.57,7.199-3.57,14.399,3.417,7.199,3.417,14.399-2.565,7.199-2.565,14.399.885,7.199.885,14.399-3.377,7.2-3.377,14.399,4.959,7.2,4.959,14.4.542,7.2.542,14.401-2.562,7.201-2.562,14.402,2.895,7.202,2.895,14.403-4.063,7.202-4.063,14.404,4.467,7.203,4.467,14.406-1.402,7.202-1.402,14.405-3.62,7.202-3.62,14.404.066,7.201.066,14.402,4.655,7.201,4.655,14.401-5.457,7.2-5.457,14.401-.012,7.2-.012,14.4,1.684,7.2,1.684,14.4,2.917,7.2,2.917,14.4,1.3,7.2,1.3,14.4-.404,7.2-.404,14.4-4.587,7.2-4.587,14.401,4.835,7.201,4.835,14.402-4.022,7.201-4.022,14.403-1.817,7.202-1.817,14.404,1.875,7.203,1.875,14.405,4.414,7.203,4.414,14.406-3.897,7.202-3.897,14.405-.962,7.202-.962,14.403,3.053,7.201,3.053,14.402-2.875,7.201-2.875,14.402-1.322,7.201-1.322,14.401,1.165,7.2,1.165,14.401,2.953,7.2,2.953,14.401-.552,7.2-.552,14.401-1.406,7.201-1.406,14.402-.994,7.201-.994,14.402-.823,7.202-.823,14.403,4.059,7.202,4.059,14.405-1.975,7.203-1.975,14.406-.396,7.203-.396,14.406,1.032,7.202,1.032,14.405,2.76,7.202,2.76,14.403-4.588,7.201-4.588,14.402.35,7.201.35,14.402-1.188,7.201-1.188,14.402-.695,7.201-.695,14.402,5.684,7.201,5.684,14.402-3.587,7.201-3.587,14.403-1.145,7.202-1.145,14.404,4.229,7.202,4.229,14.405-4.673,7.203-4.673,14.406,2.991,7.203,2.991,14.406,1.028,7.202,1.028,14.405-3.196,7.202-3.196,14.404.927,7.201.927,14.403.519,7.201.519,14.402-1.757,7.201-1.757,14.402.268,7.201.268,14.403-.181,7.202-.181,14.403,4.93,7.202,4.93,14.404-6.36,7.203-6.36,14.405,3.414,7.204,3.414,14.407-2.538,7.203-2.538,14.406,3.126,7.202,3.126,14.405-3.945,7.202-3.945,14.404.712,7.202.712,14.403,5.158,7.201,5.158,14.403-2.235,7.202-2.235,14.403-3.59,7.202-3.59,14.404,3.046,7.202,3.046,14.405,1.761,7.203,1.761,14.406-.516,7.204-.516,14.407-2.366,7.203-2.366,14.406,4.211,7.202,4.211,14.405-6.024,7.202-6.024,14.404.71,7.202.71,14.404,2.751,7.202,2.751,14.404.305,7.202.305,14.404-4.111,7.203-4.111,14.406.149,7.204.149,14.407,5.762,7.203,5.762,14.407-1.885,7.203-1.885,14.405.351,7.202.351,14.404.107,7.202.107,14.404,1.93,7.202,1.93,14.404-2.362,7.202-2.362,14.405.831,7.203.831,14.406-3.248,7.204-3.248,14.408-.883,7.203-.883,14.406,3.87,7.203,3.87,14.405-3.618,7.202-3.618,14.405,4.445,7.202,4.445,14.405-2.228,7.203-2.228,14.405-3.036,7.203-3.036,14.407,3.32,7.204,3.32,14.408,1.267,7.203,1.267,14.406-1.78,7.203-1.78,14.405-.093,7.202-.093,14.405-.732,7.203-.732,14.405-2.13,7.203-2.13,14.406,2.86,7.204,2.86,14.408-2.178,7.204-2.178,14.407,5.167,7.203,5.167,14.406-2.23,7.203-2.23,14.405,1.895,7.203,1.895,14.406-4.968,7.203-4.968,14.407-.112,7.204-.112,14.409,2.209,7.203,2.209,14.407,1.242,7.203,1.242,14.406-.991,7.203-.991,14.406-.915,7.203-.915,14.407,2.713,7.204,2.713,14.408-2.785,7.204-2.785,14.407.319,7.203.319,14.406-.124,7.203-.124,14.406,2.476,7.204,2.476,14.407-1.367,7.204-1.367,14.409-3.281,7.203-3.281,14.407,4.024,7.203,4.024,14.406,2.682,7.203,2.682,14.407-6.04,7.204-6.04,14.408,4.495,7.204,4.495,14.407-3.799,7.203-3.799,14.407,1.897,7.203,1.897,14.407-.883,7.204-.883,14.408.19,7.204.19,14.408-1.009,7.203-1.009,14.407.666,7.204.666,14.407-.43,7.205-.43,14.409,1.838,7.204,1.838,14.407-2.758,7.204-2.758,14.407,3.417,7.204,3.417,14.408-.65,7.204-.65,14.408,1.835,7.204,1.835,14.407.386,7.204.386,14.408-4.176,7.204-4.176,14.408,4.595,7.204,4.595,14.407-4.438,7.204-4.438,14.408.373,7.204.373,14.408,1.724,7.204,1.724,14.408.265,7.205.265,14.409-.108,7.201-.108,14.403-4.177,7.203-4.177,14.406,1.748,7.204,1.748,14.408-.351,7.202-.351,14.404,4.71,7.201,4.71,14.403-5.966,7.202-5.966,14.405,6.756,7.205,6.756,14.409-5.726,7.203-5.726,14.406,3.558,7.202,3.558,14.404.463,7.203.463,14.405-1.77,7.205-1.77,14.41,2.866,7.203,2.866,14.406-2.457,7.202-2.457,14.405-1.687,7.204-1.687,14.408.725,7.204.725,14.408-2.03,7.203-2.03,14.406-.369,7.204-.369,14.408,4.841,7.204,4.841,14.409-1.473,7.203-1.473,14.406-.148,7.205-.148,14.409-3.564,7.204-3.564,14.408,4.022,7.204,4.022,14.408-3.374,7.205-3.374,14.41,4.332,7.204,4.332,14.408-.344,7.206-.344,14.411-3.809,7.204-3.809,14.408,1.129,7.206,1.129,14.411-.865,7.204-.865,14.409,4.26,7.205,4.26,14.41-.722,7.205-.722,14.41-4.744,7.205-4.744,14.409,1.427,7.205,1.427,14.411-.442,7.206-.442,14.412,4.28,7.205,4.28,14.411,1.019,7.205,1.019,14.41.122,7.205.122,14.41-2.721,7.205-2.721,14.411-.422,7.206-.422,14.411,1.729,7.203,1.729,14.406,1.615,7.205,1.615,14.41-1.214,7.206-1.214,14.412-3.268,7.205-3.268,14.41,4.445,7.205,4.445,14.41-.45,7.206-.45,14.412-1.461,7.207-1.461,14.414-2.621,7.206-2.621,14.412,3.492,7.206,3.492,14.413-2.751,7.207-2.751,14.413,1.954,7.208,1.954,14.415,1.856,7.206,1.856,14.411-1.819,7.208-1.819,14.416,1.439,7.206,1.439,14.412-7.314,7.836-6.201,14.96c1.055,6.752,6.901,7.139,1.805,12.241Z" style="fill: none; stroke: #fff; stroke-linecap: round; stroke-linejoin: round; stroke-width: 30px;"/>
</svg>