<?xml version="1.0" encoding="UTF-8"?>
<svg id="Big_Assets" data-name="Big Assets" xmlns="http://www.w3.org/2000/svg" width="3681.882" height="3681.882" viewBox="0 0 3681.882 3681.882">
  <path d="M3653.25,3649.382c-5.089,5.096-9.464-.074-16.666-.074s-7.202.784-14.404.784c-7.203,0-7.203-.081-14.405-.081-7.203,0-7.203-.464-14.405-.464s-7.202-.651-14.405-.651c-7.202,0-7.202-.57-14.404-.57-7.202,0-7.202,2.213-14.404,2.213-7.202,0-7.202-2.778-14.404-2.778-7.202,0-7.202-2.346-14.403-2.346-7.202,0-7.202.183-14.403.183-7.202,0-7.202-1.742-14.403-1.742-7.202,0-7.202,1.352-14.404,1.352-7.202,0-7.202,1.967-14.404,1.967s-7.202-.137-14.404-.137c-7.202,0-7.202-2.248-14.405-2.248-7.203,0-7.203,4.607-14.406,4.607-7.203,0-7.203.922-14.405.922-7.202,0-7.202-4.932-14.405-4.932s-7.202,1.479-14.404,1.479c-7.202,0-7.202,2.369-14.404,2.369-7.202,0-7.202-.16-14.404-.16-7.202,0-7.202.748-14.404.748-7.202,0-7.202-2.079-14.404-2.079-7.202,0-7.202,2.519-14.404,2.519-7.202,0-7.202-1.394-14.404-1.394-7.202,0-7.202-.616-14.405-.616-7.203,0-7.203-2.57-14.405-2.57-7.203,0-7.203.402-14.406.402-7.202,0-7.202,1.429-14.405,1.429-7.202,0-7.202-1.606-14.404-1.606-7.202,0-7.202-1.899-14.404-1.899s-7.202,5.58-14.404,5.58c-7.202,0-7.202-5.397-14.404-5.397-7.202,0-7.202,2.389-14.404,2.389s-7.202,1.465-14.404,1.465c-7.202,0-7.202-3.004-14.404-3.004-7.202,0-7.202,3.411-14.405,3.411s-7.203.907-14.406.907c-7.203,0-7.203.124-14.405.124-7.202,0-7.202-1.818-14.405-1.818-7.202,0-7.202-3.724-14.404-3.724-7.202,0-7.202,2.243-14.404,2.243-7.202,0-7.202-.54-14.404-.54-7.202,0-7.202,2.127-14.404,2.127-7.202,0-7.202-.691-14.404-.691-7.202,0-7.202-2.983-14.404-2.983-7.202,0-7.202,2.536-14.405,2.536-7.203,0-7.203.437-14.406.437-7.203,0-7.203.348-14.405.348-7.202,0-7.202,1.079-14.405,1.079-7.202,0-7.202-.677-14.404-.677-7.202,0-7.202.407-14.404.407s-7.202-1.356-14.404-1.356c-7.2,0-7.2-1.595-14.4-1.595-7.2,0-7.2,1.364-14.399,1.364-7.199,0-7.199-2.368-14.399-2.368-7.199,0-7.199,3.295-14.399,3.295s-7.199-3.417-14.399-3.417c-7.199,0-7.199,2.016-14.399,2.016-7.2,0-7.2-2.214-14.399-2.214-7.2,0-7.2.568-14.4.568-7.2,0-7.2,1.532-14.401,1.532-7.201,0-7.201,1.382-14.402,1.382-7.202,0-7.202-.819-14.403-.819s-7.202,1.23-14.404,1.23c-7.203,0-7.203-1.928-14.406-1.928-7.202,0-7.202,4.067-14.405,4.067-7.202,0-7.202-5.245-14.404-5.245-7.201,0-7.201-.993-14.402-.993-7.201,0-7.201,1.968-14.401,1.968-7.2,0-7.2,2.877-14.401,2.877-7.2,0-7.2-3.92-14.4-3.92-7.2,0-7.2.302-14.4.302-7.2,0-7.2,4.075-14.4,4.075-7.2,0-7.2-3.413-14.4-3.413-7.2,0-7.2-1.949-14.4-1.949-7.2,0-7.2,5.301-14.401,5.301-7.201,0-7.201-1.784-14.402-1.784-7.201,0-7.201-1.088-14.403-1.088-7.202,0-7.202-1.144-14.404-1.144-7.203,0-7.203,2.58-14.405,2.58-7.203,0-7.203-2.595-14.406-2.595-7.202,0-7.202,2.785-14.405,2.785-7.202,0-7.202.859-14.403.859-7.201,0-7.201-2.653-14.402-2.653-7.201,0-7.201-.953-14.402-.953-7.201,0-7.201,4.095-14.401,4.095s-7.2-4.975-14.401-4.975c-7.2,0-7.2,2.446-14.401,2.446-7.2,0-7.2-.257-14.401-.257q-7.201,0-14.402-.017c-7.201,0-7.201,1.512-14.402,1.512-7.202,0-7.202-1.764-14.403-1.764-7.202,0-7.202-.679-14.405-.679s-7.203,2.842-14.406,2.842c-7.203,0-7.203,1.043-14.406,1.043-7.202,0-7.202.487-14.405.487-7.202,0-7.202-3.286-14.403-3.286-7.201,0-7.201-.867-14.402-.867-7.201,0-7.201,4.7-14.402,4.7-7.201,0-7.201-2.603-14.402-2.603-7.201,0-7.201,1.32-14.402,1.32-7.201,0-7.201-.855-14.402-.855-7.201,0-7.201-1.243-14.403-1.243-7.202,0-7.202-.118-14.404-.118-7.202,0-7.202-.537-14.405-.537-7.203,0-7.203,1.831-14.406,1.831-7.203,0-7.203-1.831-14.406-1.831-7.202,0-7.202,1.234-14.405,1.234-7.202,0-7.202-2.425-14.404-2.425-7.201,0-7.201-.165-14.403-.165s-7.201,1.362-14.402,1.362c-7.201,0-7.201-.703-14.402-.703-7.201,0-7.201,4.738-14.403,4.738-7.202,0-7.202-4.163-14.403-4.163-7.202,0-7.202,2.925-14.404,2.925s-7.203-3.73-14.405-3.73c-7.204,0-7.204-.807-14.407-.807-7.203,0-7.203,1.349-14.406,1.349-7.202,0-7.202,3.852-14.405,3.852-7.202,0-7.202-3.727-14.404-3.727-7.202,0-7.202.462-14.403.462-7.201,0-7.201,3.082-14.403,3.082s-7.202.938-14.403.938c-7.202,0-7.202-.213-14.404-.213-7.202,0-7.202-2.314-14.405-2.314-7.203,0-7.203.998-14.406.998-7.204,0-7.204-.027-14.407-.027-7.203,0-7.203,1.116-14.406,1.116-7.202,0-7.202-4.183-14.405-4.183-7.202,0-7.202-1.806-14.404-1.806s-7.202,6.344-14.404,6.344c-7.202,0-7.202-5.035-14.404-5.035-7.202,0-7.202.297-14.404.297-7.203,0-7.203,4.726-14.406,4.726-7.204,0-7.204-4.322-14.407-4.322s-7.203-1.711-14.407-1.711c-7.203,0-7.203,5.819-14.405,5.819-7.202,0-7.202-1.495-14.404-1.495-7.202,0-7.202.149-14.404.149-7.202,0-7.202-4.478-14.404-4.478s-7.202,5.834-14.405,5.834c-7.203,0-7.203-3.616-14.406-3.616s-7.204-1.924-14.408-1.924c-7.203,0-7.203,2.305-14.406,2.305-7.203,0-7.203-2.605-14.405-2.605-7.202,0-7.202,3.572-14.405,3.572-7.202,0-7.202,1.431-14.405,1.431-7.203,0-7.203-5.14-14.405-5.14-7.203,0-7.203,4.99-14.407,4.99s-7.204-5.512-14.408-5.512c-7.203,0-7.203.89-14.406.89-7.203,0-7.203,5.112-14.405,5.112s-7.202-.035-14.405-.035c-7.203,0-7.203-5.811-14.405-5.811-7.203,0-7.203,2.045-14.406,2.045-7.204,0-7.204,2.698-14.408,2.698-7.204,0-7.204-1.821-14.407-1.821-7.203,0-7.203.491-14.406.491-7.203,0-7.203,1.407-14.405,1.407-7.203,0-7.203-3.014-14.406-3.014-7.203,0-7.203,2.514-14.407,2.514-7.204,0-7.204-2.092-14.409-2.092-7.203,0-7.203,2.824-14.407,2.824-7.203,0-7.203,1.219-14.406,1.219-7.203,0-7.203-4.143-14.406-4.143-7.203,0-7.203-.457-14.407-.457s-7.204-.066-14.408-.066c-7.204,0-7.204,4.925-14.407,4.925-7.203,0-7.203-5.82-14.406-5.82-7.203,0-7.203,4.046-14.406,4.046-7.204,0-7.204-2.716-14.407-2.716-7.204,0-7.204,2.706-14.409,2.706-7.203,0-7.203,1.356-14.407,1.356-7.203,0-7.203-.238-14.406-.238s-7.203-4.255-14.407-4.255c-7.204,0-7.204,1.535-14.408,1.535-7.204,0-7.204,1.32-14.407,1.32s-7.203,1.21-14.407,1.21c-7.203,0-7.203.827-14.407.827-7.204,0-7.204-1.313-14.408-1.313-7.204,0-7.204-2.792-14.408-2.792-7.203,0-7.203-2.004-14.407-2.004-7.204,0-7.204.543-14.407.543-7.205,0-7.205-.576-14.409-.576-7.204,0-7.204,2.098-14.407,2.098-7.204,0-7.204,4.306-14.407,4.306s-7.204-.561-14.408-.561c-7.204,0-7.204-3.429-14.408-3.429s-7.204-2.023-14.407-2.023c-7.204,0-7.204,5.088-14.408,5.088-7.204,0-7.204-.595-14.408-.595-7.204,0-7.204-4.91-14.407-4.91-7.204,0-7.204,5.559-14.408,5.559-7.204,0-7.204-5.944-14.408-5.944-7.204,0-7.204-.096-14.408-.096-7.205,0-7.205,3.793-14.409,3.793-7.201,0-7.201,1.582-14.403,1.582s-7.203-2.356-14.406-2.356c-7.204,0-7.204-.759-14.408-.759-7.202,0-7.202.312-14.404.312-7.201,0-7.201,1.206-14.403,1.206-7.202,0-7.202.019-14.405.019-7.205,0-7.205-.505-14.409-.505-7.203,0-7.203,1.45-14.406,1.45-7.202,0-7.202.131-14.404.131-7.203,0-7.203-.7-14.405-.7-7.205,0-7.205-3.258-14.41-3.258-7.203,0-7.203.043-14.406.043s-7.202,3.079-14.405,3.079-7.204-1.904-14.408-1.904c-7.204,0-7.204,1.187-14.408,1.187-7.203,0-7.203-1.552-14.406-1.552-7.204,0-7.204,1.243-14.408,1.243-7.204,0-7.204-2.517-14.409-2.517-7.203,0-7.203,5.839-14.406,5.839s-7.205-2.202-14.409-2.202c-7.204,0-7.204-.663-14.408-.663-7.204,0-7.204.557-14.408.557-7.205,0-7.205-2.648-14.41-2.648-7.204,0-7.204,5.134-14.408,5.134-7.206,0-7.206-3.118-14.411-3.118-7.204,0-7.204-3.32-14.408-3.32-7.206,0-7.206,4.651-14.411,4.651-7.204,0-7.204,1.546-14.409,1.546-7.205,0-7.205-3.669-14.41-3.669-7.205,0-7.205,2.548-14.41,2.548-7.205,0-7.205-1.03-14.409-1.03-7.205,0-7.205-3.555-14.411-3.555-7.206,0-7.206,5.681-14.412,5.681-7.205,0-7.205-1.798-14.411-1.798-7.205,0-7.205-2.061-14.41-2.061-7.205,0-7.205-.9-14.41-.9-7.205,0-7.205,3.182-14.411,3.182-7.206,0-7.206,2.111-14.411,2.111-7.203,0-7.203-1.675-14.406-1.675s-7.205-2.455-14.41-2.455c-7.206,0-7.206-.228-14.412-.228-7.205,0-7.205,4.451-14.41,4.451-7.205,0-7.205-.936-14.41-.936q-7.206,0-14.412.008c-7.207,0-7.207-1.135-14.414-1.135-7.206,0-7.206-4.3-14.412-4.3-7.206,0-7.206,5.212-14.413,5.212-7.207,0-7.207-2.037-14.413-2.037-7.208,0-7.208,3.115-14.415,3.115-7.206,0-7.206-1.315-14.411-1.315-7.208,0-7.208,1.432-14.416,1.432-7.206,0-7.206-3.056-14.412-3.056-7.211,0-7.211.78-14.421.78-7.211,0-8.882,3.471-13.984-1.625-5.096-5.089-2.459-6.764-2.459-13.966s4.761-7.202,4.761-14.404c0-7.203-4.32-7.203-4.32-14.405s1.716-7.203,1.716-14.405c0-7.202-2.454-7.202-2.454-14.405,0-7.202-.597-7.202-.597-14.404,0-7.202,3.165-7.202,3.165-14.404,0-7.202-3.413-7.202-3.413-14.404,0-7.202,2.964-7.202,2.964-14.403,0-7.202-.061-7.202-.061-14.403,0-7.202,1.013-7.202,1.013-14.403,0-7.202.486-7.202.486-14.404,0-7.202-2.996-7.202-2.996-14.404,0-7.202-1.064-7.202-1.064-14.404,0-7.202-.022-7.202-.022-14.405,0-7.203,2.863-7.203,2.863-14.406,0-7.203-1.943-7.203-1.943-14.405,0-7.202,4.095-7.202,4.095-14.405s-.521-7.202-.521-14.404c0-7.202-2.794-7.202-2.794-14.404,0-7.202,3.668-7.202,3.668-14.404s-2.738-7.202-2.738-14.404c0-7.202-1.495-7.202-1.495-14.404,0-7.202-1.617-7.202-1.617-14.404,0-7.202,2.772-7.202,2.772-14.404s-.181-7.202-.181-14.405c0-7.203,1.532-7.203,1.532-14.405,0-7.203.537-7.203.537-14.406,0-7.202-2.599-7.202-2.599-14.405,0-7.202.3-7.202.3-14.404,0-7.202,2.849-7.202,2.849-14.404,0-7.202-4.593-7.202-4.593-14.404,0-7.202,3.214-7.202,3.214-14.404,0-7.202-2.865-7.202-2.865-14.404,0-7.202,2.656-7.202,2.656-14.404,0-7.202,2.958-7.202,2.958-14.404,0-7.202-1.749-7.202-1.749-14.405,0-7.203-3.612-7.203-3.612-14.406,0-7.203,3.298-7.203,3.298-14.405,0-7.202-3.811-7.202-3.811-14.405,0-7.202-.739-7.202-.739-14.404,0-7.202.352-7.202.352-14.404,0-7.202,4.043-7.202,4.043-14.404,0-7.202.997-7.202.997-14.404,0-7.202-3-7.202-3-14.404,0-7.202,1.897-7.202,1.897-14.404,0-7.202-1.26-7.202-1.26-14.405,0-7.203.966-7.203.966-14.406,0-7.203-.142-7.203-.142-14.405,0-7.202-.572-7.202-.572-14.405s1.761-7.202,1.761-14.404c0-7.202-2.034-7.202-2.034-14.404,0-7.202,1.206-7.202,1.206-14.404,0-7.2-1.662-7.2-1.662-14.4,0-7.2,1.588-7.2,1.588-14.399,0-7.199-1.565-7.199-1.565-14.399,0-7.199.816-7.199.816-14.399,0-7.199-.171-7.199-.171-14.399,0-7.199.424-7.199.424-14.399,0-7.2,3.199-7.2,3.199-14.399,0-7.2-6.245-7.2-6.245-14.4,0-7.2,5.972-7.2,5.972-14.401,0-7.201-2.797-7.201-2.797-14.402,0-7.202,1.745-7.202,1.745-14.403,0-7.202,1.106-7.202,1.106-14.404,0-7.203-.113-7.203-.113-14.406,0-7.202-4.63-7.202-4.63-14.405s-.22-7.202-.22-14.404c0-7.201-.096-7.201-.096-14.402,0-7.201-.084-7.201-.084-14.401,0-7.2,4.815-7.2,4.815-14.401,0-7.2-3.022-7.2-3.022-14.4,0-7.2,1.658-7.2,1.658-14.4s-.34-7.2-.34-14.4c0-7.2.325-7.2.325-14.4,0-7.2-.217-7.2-.217-14.4,0-7.2-3.169-7.2-3.169-14.401,0-7.201,4.759-7.201,4.759-14.402,0-7.201-5.058-7.201-5.058-14.403,0-7.202.133-7.202.133-14.404,0-7.203.658-7.203.658-14.405,0-7.203-.708-7.203-.708-14.406,0-7.202,1.582-7.202,1.582-14.405,0-7.202-1.998-7.202-1.998-14.403,0-7.201,1.678-7.201,1.678-14.402,0-7.201,3.665-7.201,3.665-14.402,0-7.201-.683-7.201-.683-14.401,0-7.2-1.391-7.2-1.391-14.401,0-7.2-.656-7.2-.656-14.401,0-7.2.87-7.2.87-14.401,0-7.201-.331-7.201-.331-14.402,0-7.201-.81-7.201-.81-14.402,0-7.202,2.102-7.202,2.102-14.403,0-7.202-2.015-7.202-2.015-14.405,0-7.203.307-7.203.307-14.406,0-7.203,1.195-7.203,1.195-14.406,0-7.202-2.698-7.202-2.698-14.405,0-7.202-.211-7.202-.211-14.403,0-7.201-1.48-7.201-1.48-14.402,0-7.201-.21-7.201-.21-14.402,0-7.201,2.321-7.201,2.321-14.402,0-7.201.37-7.201.37-14.402,0-7.201-1.167-7.201-1.167-14.402,0-7.201.546-7.201.546-14.403,0-7.202-1.733-7.202-1.733-14.404,0-7.202.604-7.202.604-14.405,0-7.203,5.152-7.203,5.152-14.406s-5.83-7.203-5.83-14.406c0-7.202,2.657-7.202,2.657-14.405,0-7.202,3.372-7.202,3.372-14.404,0-7.201-5.202-7.201-5.202-14.403,0-7.201,2.176-7.201,2.176-14.402,0-7.201-1.587-7.201-1.587-14.402,0-7.201,1.394-7.201,1.394-14.403,0-7.202-2.17-7.202-2.17-14.403,0-7.202,5.358-7.202,5.358-14.404,0-7.203-3.413-7.203-3.413-14.405,0-7.204.56-7.204.56-14.407,0-7.203-1-7.203-1-14.406,0-7.202.937-7.202.937-14.405,0-7.202-.844-7.202-.844-14.404,0-7.202,2.621-7.202,2.621-14.403,0-7.201-4.256-7.201-4.256-14.403,0-7.202.275-7.202.275-14.403,0-7.202-.71-7.202-.71-14.404,0-7.202,4.129-7.202,4.129-14.405,0-7.203-.438-7.203-.438-14.406,0-7.204-3.996-7.204-3.996-14.407,0-7.203,2.449-7.203,2.449-14.406,0-7.202-1.512-7.202-1.512-14.405,0-7.202-.82-7.202-.82-14.404,0-7.202,4.472-7.202,4.472-14.404,0-7.202-4.308-7.202-4.308-14.404,0-7.202,3.005-7.202,3.005-14.404,0-7.203,1.851-7.203,1.851-14.406,0-7.204-4.64-7.204-4.64-14.407,0-7.203,2.576-7.203,2.576-14.407s-.2-7.203-.2-14.405,3.189-7.202,3.189-14.404c0-7.202-3.639-7.202-3.639-14.404,0-7.202,4.012-7.202,4.012-14.404,0-7.202-5.539-7.202-5.539-14.405s1.897-7.203,1.897-14.406,2.783-7.204,2.783-14.408c0-7.203-4.545-7.203-4.545-14.406,0-7.203,4.32-7.203,4.32-14.405,0-7.202.764-7.202.764-14.405s-6.046-7.202-6.046-14.405c0-7.203,2.811-7.203,2.811-14.405,0-7.203-1.782-7.203-1.782-14.407,0-7.204,5.319-7.204,5.319-14.408,0-7.203-5.677-7.203-5.677-14.406,0-7.203,5.428-7.203,5.428-14.405s-1.365-7.202-1.365-14.405c0-7.203-3.496-7.203-3.496-14.405,0-7.203,5.093-7.203,5.093-14.406,0-7.204-5.46-7.204-5.46-14.408,0-7.204,4.064-7.204,4.064-14.407,0-7.203.746-7.203.746-14.406,0-7.203-3.703-7.203-3.703-14.405,0-7.203,3.562-7.203,3.562-14.406,0-7.203-1.493-7.203-1.493-14.407s-4.203-7.204-4.203-14.409c0-7.203,2.184-7.203,2.184-14.407s2.583-7.203,2.583-14.406c0-7.203-.046-7.203-.046-14.406,0-7.203-.264-7.203-.264-14.407,0-7.204-1.236-7.204-1.236-14.408s-2.553-7.204-2.553-14.407c0-7.203,1.739-7.203,1.739-14.406,0-7.203-2.52-7.203-2.52-14.406,0-7.204,5.435-7.204,5.435-14.407,0-7.204-5.195-7.204-5.195-14.409,0-7.203,3.627-7.203,3.627-14.407,0-7.203-3.797-7.203-3.797-14.406,0-7.203,5.513-7.203,5.513-14.407,0-7.204-1.511-7.204-1.511-14.408,0-7.204.531-7.204.531-14.407,0-7.203-2.98-7.203-2.98-14.407,0-7.203,1.589-7.203,1.589-14.407,0-7.204-.397-7.204-.397-14.408,0-7.204-.29-7.204-.29-14.408s-.668-7.203-.668-14.407c0-7.204,3.549-7.204,3.549-14.407s-.292-7.205-.292-14.409c0-7.204-2.659-7.204-2.659-14.407,0-7.204.18-7.204.18-14.407,0-7.204-.841-7.204-.841-14.408,0-7.204,1.448-7.204,1.448-14.408,0-7.204-.67-7.204-.67-14.407q0-7.204.009-14.408c0-7.204-.926-7.204-.926-14.408s-.963-7.204-.963-14.407c0-7.204,3.243-7.204,3.243-14.408,0-7.204-1.805-7.204-1.805-14.408,0-7.204,3.158-7.204,3.158-14.408,0-7.205.933-7.205.933-14.409,0-7.201-1.775-7.201-1.775-14.403,0-7.203-3.265-7.203-3.265-14.406,0-7.204.975-7.204.975-14.408,0-7.202-1.883-7.202-1.883-14.404s4.788-7.201,4.788-14.403c0-7.202-4.558-7.202-4.558-14.405s.341-7.205.341-14.409c0-7.203,1.321-7.203,1.321-14.406,0-7.202,1.347-7.202,1.347-14.404s-2.946-7.203-2.946-14.405c0-7.205.805-7.205.805-14.41,0-7.203,4.596-7.203,4.596-14.406,0-7.202-2.639-7.202-2.639-14.405,0-7.204-1.391-7.204-1.391-14.408,0-7.204,3.932-7.204,3.932-14.408,0-7.203-1.408-7.203-1.408-14.406,0-7.204,1.979-7.204,1.979-14.408,0-7.204-5.529-7.204-5.529-14.409,0-7.203,5.269-7.203,5.269-14.406,0-7.205-4.079-7.205-4.079-14.409,0-7.204,1.043-7.204,1.043-14.408,0-7.204,2.376-7.204,2.376-14.408,0-7.205-3.138-7.205-3.138-14.41,0-7.204,2.987-7.204,2.987-14.408s-.659-7.206-.659-14.411c0-7.204-2.123-7.204-2.123-14.408,0-7.206,2.208-7.206,2.208-14.411,0-7.204-1.359-7.204-1.359-14.409,0-7.205,2.969-7.205,2.969-14.41,0-7.205-.427-7.205-.427-14.41,0-7.205-2.495-7.205-2.495-14.409,0-7.205,1.059-7.205,1.059-14.411,0-7.206-1.303-7.206-1.303-14.412,0-7.205,1.467-7.205,1.467-14.411,0-7.205.086-7.205.086-14.41,0-7.205-3.801-7.205-3.801-14.41,0-7.205,1.188-7.205,1.188-14.411,0-7.206,1.865-7.206,1.865-14.411,0-7.203-4.092-7.203-4.092-14.406,0-7.205,5.219-7.205,5.219-14.41,0-7.206.97-7.206.97-14.412,0-7.205.165-7.205.165-14.41,0-7.205-6.032-7.205-6.032-14.41,0-7.206,1.233-7.206,1.233-14.412,0-7.207,3.02-7.207,3.02-14.414,0-7.206.918-7.206.918-14.412,0-7.206-1.472-7.206-1.472-14.413,0-7.207,1.778-7.207,1.778-14.413,0-7.208-4.156-7.208-4.156-14.415,0-7.206,1.545-7.206,1.545-14.411,0-7.208-1.987-7.208-1.987-14.416,0-7.206,5.368-7.206,5.368-14.412,0-7.211-1.08-7.211-1.08-14.421s-8.531-10.516-3.436-15.618,8.4-1.029,15.602-1.029,7.202.502,14.404.502,7.203.383,14.405.383,7.203-.747,14.405-.747,7.202,4.449,14.405,4.449,7.202-4.482,14.404-4.482,7.202,2.833,14.404,2.833,7.202-2.497,14.404-2.497,7.202,4.207,14.403,4.207,7.202-3.349,14.403-3.349,7.202,3.129,14.403,3.129,7.202-1.072,14.404-1.072,7.202,2.065,14.404,2.065,7.202-5.32,14.404-5.32,7.202,5.055,14.405,5.055,7.203-2.082,14.406-2.082,7.203.838,14.405.838,7.202-.468,14.405-.468,7.202-4.279,14.404-4.279,7.202,5.625,14.404,5.625,7.202-1.809,14.404-1.809,7.202,1.23,14.404,1.23,7.202-1.407,14.404-1.407,7.202-3.294,14.404-3.294,7.202,4.8,14.404,4.8,7.202-5.458,14.405-5.458,7.203,1.001,14.405,1.001,7.203.735,14.406.735,7.202,2.187,14.405,2.187,7.202,1.723,14.404,1.723,7.202-4.975,14.404-4.975,7.202-.383,14.404-.383,7.202,2.116,14.404,2.116,7.202-.284,14.404-.284,7.202-.38,14.404-.38,7.202-.588,14.404-.588,7.202,5.419,14.405,5.419,7.203-5.813,14.406-5.813,7.203,1.856,14.405,1.856,7.202.933,14.405.933,7.202,1.122,14.404,1.122,7.202-.225,14.404-.225,7.202.152,14.404.152,7.202-.513,14.404-.513,7.202-.246,14.404-.246,7.202.922,14.404.922,7.202-3.62,14.405-3.62,7.203,4.143,14.406,4.143,7.203-3.293,14.405-3.293,7.202,2.671,14.405,2.671,7.202.703,14.404.703,7.202-3.104,14.404-3.104,7.202-.465,14.404-.465,7.2.794,14.4.794,7.2,1.04,14.399,1.04,7.199-2.89,14.399-2.89,7.199,1.043,14.399,1.043,7.199,1.635,14.399,1.635,7.199,3.017,14.399,3.017,7.2-2.4,14.399-2.4,7.2-2.93,14.4-2.93,7.2,5.036,14.401,5.036,7.201-5.714,14.402-5.714,7.202.747,14.403.747,7.202.82,14.404.82,7.203,3.725,14.406,3.725,7.202-4.911,14.405-4.911,7.202,5.006,14.404,5.006,7.201-1.381,14.402-1.381,7.201-3.458,14.401-3.458,7.2-.065,14.401-.065,7.2,2.188,14.4,2.188,7.2,1.985,14.4,1.985,7.2-1.13,14.4-1.13,7.2.273,14.4.273,7.2-3.11,14.4-3.11,7.2.871,14.401.871,7.201-1.338,14.402-1.338,7.201,5.029,14.403,5.029,7.202-3.545,14.404-3.545,7.203.969,14.405.969,7.203,2.419,14.406,2.419,7.202-3.111,14.405-3.111,7.202,3.819,14.403,3.819,7.201-1.066,14.402-1.066,7.201.506,14.402.506,7.201.196,14.401.196,7.2-3.36,14.401-3.36,7.2,1.427,14.401,1.427,7.2-3.814,14.401-3.814,7.201,2.338,14.402,2.338,7.201,2.072,14.402,2.072,7.202-2.181,14.403-2.181,7.202-2.268,14.405-2.268,7.203,2.509,14.406,2.509,7.203-1.435,14.406-1.435,7.202-.529,14.405-.529,7.202,6.001,14.403,6.001,7.201-.294,14.402-.294,7.201-.939,14.402-.939,7.201-.578,14.402-.578,7.201,1.85,14.402,1.85,7.201-2.155,14.402-2.155,7.201-2.036,14.403-2.036,7.202.402,14.404.402,7.202.752,14.405.752,7.203.874,14.406.874,7.203-3.743,14.406-3.743,7.202.01,14.405.01,7.202,4.013,14.404,4.013,7.201-1.256,14.403-1.256,7.201-2.852,14.402-2.852,7.201,3.95,14.402,3.95,7.201-2.065,14.403-2.065,7.202,1.132,14.403,1.132,7.202-2.393,14.404-2.393,7.203,5.203,14.405,5.203,7.204-1.679,14.407-1.679,7.203.771,14.406.771,7.202,1.181,14.405,1.181,7.202-.001,14.404-.001,7.202-2.302,14.403-2.302,7.201.283,14.403.283,7.202.458,14.403.458,7.202-.536,14.404-.536,7.202,1.61,14.405,1.61,7.203-1.629,14.406-1.629,7.204-3.451,14.407-3.451,7.203,2.832,14.406,2.832,7.202-2.609,14.405-2.609,7.202-.744,14.404-.744,7.202,3.979,14.404,3.979,7.202-3.922,14.404-3.922,7.202-.245,14.404-.245,7.203,4.232,14.406,4.232,7.204-3.665,14.407-3.665,7.203,4.859,14.407,4.859,7.203-4.388,14.405-4.388,7.202.211,14.404.211,7.202.083,14.404.083,7.202-.363,14.404-.363,7.202,2.463,14.405,2.463,7.203,2.142,14.406,2.142,7.204-2.112,14.408-2.112,7.203-3.149,14.406-3.149,7.203-.247,14.405-.247,7.202,3.156,14.405,3.156,7.202,2.849,14.405,2.849,7.203.027,14.405.027,7.203-3.429,14.407-3.429,7.204,1.35,14.408,1.35,7.203-.005,14.406-.005,7.203-1.32,14.405-1.32,7.202,2.047,14.405,2.047,7.203-.953,14.405-.953,7.203-2.559,14.406-2.559,7.204,4.91,14.408,4.91,7.204-6.154,14.407-6.154,7.203,3.426,14.406,3.426,7.203,2.556,14.405,2.556,7.203-4.456,14.406-4.456,7.203,1.116,14.407,1.116,7.204,1.403,14.409,1.403,7.203-2.464,14.407-2.464,7.203-1.29,14.406-1.29,7.203,5.276,14.406,5.276,7.203.618,14.407.618,7.204-4.249,14.408-4.249,7.204,3.713,14.407,3.713,7.203-.985,14.406-.985,7.203-2.582,14.406-2.582,7.204,1.238,14.407,1.238,7.204-3.905,14.409-3.905,7.203,4.873,14.407,4.873,7.203-1.288,14.406-1.288,7.203,1.718,14.407,1.718,7.204-.248,14.408-.248,7.204,1.784,14.407,1.784,7.203-6.439,14.407-6.439,7.203,6.508,14.407,6.508,7.204-6.034,14.408-6.034,7.204,1.962,14.408,1.962,7.203,1.393,14.407,1.393,7.204.718,14.407.718,7.205.264,14.409.264,7.204-4.511,14.407-4.511,7.204,1.697,14.407,1.697,7.204,2.079,14.408,2.079,7.204-3.064,14.408-3.064,7.204,4.989,14.407,4.989,7.204-1.897,14.408-1.897,7.204.813,14.408.813,7.204-1.879,14.407-1.879,7.204,2.773,14.408,2.773,7.204.686,14.408.686,7.204-3.117,14.408-3.117,7.205-2.683,14.409-2.683,7.201,2.807,14.403,2.807,7.203-2.599,14.406-2.599,7.204-.967,14.408-.967,7.202.197,14.404.197,7.201,2.902,14.403,2.902,7.202-.501,14.405-.501,7.205,3.968,14.409,3.968,7.203-6.396,14.406-6.396,7.202,5.48,14.404,5.48,7.203.821,14.405.821,7.205-4.947,14.41-4.947,7.203-1.397,14.406-1.397,7.202,2.31,14.405,2.31,7.204-1.175,14.408-1.175,7.204-.076,14.408-.076,7.203-1.54,14.406-1.54,7.204,4.575,14.408,4.575,7.204,1.234,14.409,1.234,7.203-5.641,14.406-5.641,7.205,1.425,14.409,1.425,7.204,3.649,14.408,3.649,7.204-1.82,14.408-1.82,7.205-.195,14.41-.195,7.204,1.199,14.408,1.199,7.206-.036,14.411-.036,7.204-1.295,14.408-1.295,7.206.925,14.411.925,7.204-3.047,14.409-3.047,7.205-.667,14.41-.667,7.205,6.518,14.41,6.518,7.205-4.454,14.409-4.454,7.205,3.774,14.411,3.774,7.206-4.884,14.412-4.884,7.205-1.147,14.411-1.147,7.205,6.381,14.41,6.381,7.205-1.58,14.41-1.58,7.205-3.413,14.411-3.413,7.206.338,14.411.338,7.203,2.891,14.406,2.891,7.205-2.746,14.41-2.746,7.206,2.897,14.412,2.897,7.205.711,14.41.711,7.205-3.313,14.41-3.313,7.206,1.232,14.412,1.232,7.207-3.008,14.414-3.008,7.206,4.297,14.412,4.297,7.206-.189,14.413-.189,7.207-2.183,14.413-2.183,7.208-1.134,14.415-1.134,7.206,2.085,14.411,2.085,7.208-2.695,14.416-2.695,7.206-.294,14.412-.294,7.211.532,14.421.532,10.915-4.122,16.017.974c5.096,5.089-.763,8.799-.763,16.001s-2.229,7.202-2.229,14.404,2.929,7.203,2.929,14.405c0,7.203-1.412,7.203-1.412,14.405s-2.872,7.202-2.872,14.405c0,7.202-.305,7.202-.305,14.404s.856,7.202.856,14.404-1.185,7.202-1.185,14.404,1.572,7.202,1.572,14.403,4.171,7.202,4.171,14.403-3.347,7.202-3.347,14.403,3.877,7.202,3.877,14.404c0,7.202-1.366,7.202-1.366,14.404s-3.365,7.202-3.365,14.404,5.238,7.202,5.238,14.405-1.691,7.203-1.691,14.406-4.005,7.203-4.005,14.405.986,7.202.986,14.405-.112,7.202-.112,14.404,1.502,7.202,1.502,14.404-1.786,7.202-1.786,14.404,4.659,7.202,4.659,14.404c0,7.202.137,7.202.137,14.404s-3.201,7.202-3.201,14.404c0,7.202.743,7.202.743,14.404,0,7.202,1.774,7.202,1.774,14.405s-4.666,7.203-4.666,14.405.971,7.203.971,14.406,4.683,7.202,4.683,14.405-.53,7.202-.53,14.404c0,7.202.485,7.202.485,14.404s-6.793,7.202-6.793,14.404,5.876,7.202,5.876,14.404.569,7.202.569,14.404c0,7.202-4.984,7.202-4.984,14.404s3.723,7.202,3.723,14.404-4.009,7.202-4.009,14.405,3.685,7.203,3.685,14.406-.927,7.203-.927,14.405-2.853,7.202-2.853,14.405-.804,7.202-.804,14.404c0,7.202,5.894,7.202,5.894,14.404s-4.017,7.202-4.017,14.404,4.769,7.202,4.769,14.404-6.939,7.202-6.939,14.404.109,7.202.109,14.404,4.509,7.202,4.509,14.405.811,7.203.811,14.406-3.678,7.203-3.678,14.405c0,7.202,1.273,7.202,1.273,14.405s2.514,7.202,2.514,14.404c0,7.202-2.173,7.202-2.173,14.404s-2.893,7.202-2.893,14.404,2.493,7.2,2.493,14.4c0,7.2-1.332,7.2-1.332,14.399s3.359,7.199,3.359,14.399c0,7.199-2.726,7.199-2.726,14.399s.253,7.199.253,14.399,2.819,7.199,2.819,14.399-2.027,7.2-2.027,14.399.469,7.2.469,14.4-3.192,7.2-3.192,14.401,2.649,7.201,2.649,14.402c0,7.202-3.188,7.202-3.188,14.403s2.543,7.202,2.543,14.404c0,7.203-.085,7.203-.085,14.406s-1.754,7.202-1.754,14.405,4.772,7.202,4.772,14.404.936,7.201.936,14.402-1.999,7.201-1.999,14.401-.779,7.2-.779,14.401-2.558,7.2-2.558,14.4,4.674,7.2,4.674,14.4c0,7.2.894,7.2.894,14.4s-6.022,7.2-6.022,14.4,3.923,7.2,3.923,14.4-1.421,7.2-1.421,14.401-1.732,7.201-1.732,14.402-1.216,7.201-1.216,14.403,3.66,7.202,3.66,14.404-2.655,7.203-2.655,14.405,2.889,7.203,2.889,14.406.242,7.202.242,14.405.399,7.202.399,14.403-3.923,7.201-3.923,14.402,2.818,7.201,2.818,14.402-3.184,7.201-3.184,14.401,6.41,7.2,6.41,14.401-5.057,7.2-5.057,14.401c0,7.2,3.682,7.2,3.682,14.401s-4.992,7.201-4.992,14.402c0,7.201,6.087,7.201,6.087,14.402s-4.457,7.202-4.457,14.403c0,7.202-.863,7.202-.863,14.405s4.832,7.203,4.832,14.406-3.941,7.203-3.941,14.406-.359,7.202-.359,14.405,1.654,7.202,1.654,14.403c0,7.201,2.195,7.201,2.195,14.402,0,7.201-4.069,7.201-4.069,14.402s-1.142,7.201-1.142,14.402-.247,7.201-.247,14.402c0,7.201.829,7.201.829,14.402s.786,7.201.786,14.403-.02,7.202-.02,14.404,1.8,7.202,1.8,14.405-1.628,7.203-1.628,14.406.568,7.203.568,14.406c0,7.202-2.511,7.202-2.511,14.405s4.506,7.202,4.506,14.404,2.248,7.201,2.248,14.403c0,7.201-4.526,7.201-4.526,14.402s.943,7.201.943,14.402-2.758,7.201-2.758,14.403c0,7.202,4.962,7.202,4.962,14.403s-.526,7.202-.526,14.404.83,7.203.83,14.405c0,7.204-5.693,7.204-5.693,14.407s2.423,7.203,2.423,14.406c0,7.202,3.1,7.202,3.1,14.405s-5.464,7.202-5.464,14.404c0,7.202,3.251,7.202,3.251,14.403s1.945,7.201,1.945,14.403c0,7.202-.398,7.202-.398,14.403,0,7.202-1.979,7.202-1.979,14.404s-1.589,7.202-1.589,14.405,1.53,7.203,1.53,14.406,3.627,7.204,3.627,14.407-3.136,7.203-3.136,14.406-3.245,7.202-3.245,14.405c0,7.202,6.063,7.202,6.063,14.404s-1.48,7.202-1.48,14.404.276,7.202.276,14.404-2.823,7.202-2.823,14.404c0,7.203-.95,7.203-.95,14.406s.391,7.204.391,14.407,4.712,7.203,4.712,14.407-.639,7.203-.639,14.405-1.481,7.202-1.481,14.404.056,7.202.056,14.404,2.718,7.202,2.718,14.404-3.664,7.202-3.664,14.405-3.288,7.203-3.288,14.406c0,7.204,5.997,7.204,5.997,14.408s-2.379,7.203-2.379,14.406,2.865,7.203,2.865,14.405-3.816,7.202-3.816,14.405c0,7.202-1.561,7.202-1.561,14.405,0,7.203,5.701,7.203,5.701,14.405s-.243,7.203-.243,14.407-2.047,7.204-2.047,14.408-3.296,7.203-3.296,14.406-.536,7.203-.536,14.405c0,7.202,3.273,7.202,3.273,14.405s.299,7.203.299,14.405.933,7.203.933,14.406-2.361,7.204-2.361,14.408c0,7.204-.291,7.204-.291,14.407s3.868,7.203,3.868,14.406-3.679,7.203-3.679,14.405c0,7.203,3.529,7.203,3.529,14.406s-3.687,7.203-3.687,14.407-2.325,7.204-2.325,14.409,4.987,7.203,4.987,14.407-2.663,7.203-2.663,14.406-1.366,7.203-1.366,14.406,5.662,7.203,5.662,14.407c0,7.204-4.406,7.204-4.406,14.408s-.905,7.204-.905,14.407,4.453,7.203,4.453,14.406.403,7.203.403,14.406c0,7.204-.134,7.204-.134,14.407s-5.183,7.204-5.183,14.409-.596,7.203-.596,14.407c0,7.203,1.609,7.203,1.609,14.406s1.096,7.203,1.096,14.407,1.508,7.204,1.508,14.408-4.587,7.204-4.587,14.407,5.049,7.203,5.049,14.407-.2,7.203-.2,14.407.646,7.204.646,14.408-.909,7.204-.909,14.408-3.502,7.203-3.502,14.407,3.622,7.204,3.622,14.407c0,7.205,1.763,7.205,1.763,14.409s.186,7.204.186,14.407-2.637,7.204-2.637,14.407c0,7.204-3.379,7.204-3.379,14.408s.763,7.204.763,14.408.236,7.204.236,14.407,4.59,7.204,4.59,14.408-.926,7.204-.926,14.408c0,7.204-3.422,7.204-3.422,14.407,0,7.204,3.548,7.204,3.548,14.408s-4.518,7.204-4.518,14.408-.099,7.204-.099,14.408,5.812,7.205,5.812,14.409-2.392,7.201-2.392,14.403.069,7.203.069,14.406-1.143,7.204-1.143,14.408.976,7.202.976,14.404-.923,7.201-.923,14.403-1.372,7.202-1.372,14.405,3.599,7.205,3.599,14.409-1.037,7.203-1.037,14.406-3.528,7.202-3.528,14.404,3.999,7.203,3.999,14.405,1.766,7.205,1.766,14.41-5.64,7.203-5.64,14.406,5.671,7.202,5.671,14.405-4.684,7.204-4.684,14.408-1.807,7.204-1.807,14.408,6.248,7.203,6.248,14.406-.642,7.204-.642,14.408-.226,7.204-.226,14.409-2.623,7.203-2.623,14.406,3.095,7.205,3.095,14.409-3.446,7.204-3.446,14.408c0,7.204,3.057,7.204,3.057,14.408s.33,7.205.33,14.41c0,7.204-4.618,7.204-4.618,14.408s3.321,7.206,3.321,14.411-.931,7.204-.931,14.408.94,7.206.94,14.411-2.421,7.204-2.421,14.409c0,7.205-.196,7.205-.196,14.41s-.442,7.205-.442,14.41,1.961,7.205,1.961,14.409,2.095,7.205,2.095,14.411.71,7.206.71,14.412-.701,7.205-.701,14.411c0,7.205.767,7.205.767,14.41,0,7.205-4.17,7.205-4.17,14.41s-.639,7.205-.639,14.411,4.427,7.206,4.427,14.411-.018,7.203-.018,14.406-6.042,7.205-6.042,14.41,4.436,7.206,4.436,14.412c0,7.205.567,7.205.567,14.41s.123,7.205.123,14.41-4.442,7.206-4.442,14.412.543,7.207.543,14.414,3.376,7.206,3.376,14.412,1.375,7.206,1.375,14.413c0,7.207-3.283,7.207-3.283,14.413s-.27,7.208-.27,14.415-1.879,7.206-1.879,14.411-.381,7.208-.381,14.416.745,7.206.745,14.412-.846,7.862,1.117,14.8c2.445,8.641,8.696,11.2,3.601,16.302Z" style="fill: #fff;"/>
  <path d="M3653.25,3649.382c-5.089,5.096-9.464-.074-16.666-.074s-7.202.784-14.404.784c-7.203,0-7.203-.081-14.405-.081-7.203,0-7.203-.464-14.405-.464s-7.202-.651-14.405-.651c-7.202,0-7.202-.57-14.404-.57-7.202,0-7.202,2.213-14.404,2.213-7.202,0-7.202-2.778-14.404-2.778-7.202,0-7.202-2.346-14.403-2.346-7.202,0-7.202.183-14.403.183-7.202,0-7.202-1.742-14.403-1.742-7.202,0-7.202,1.352-14.404,1.352-7.202,0-7.202,1.967-14.404,1.967s-7.202-.137-14.404-.137c-7.202,0-7.202-2.248-14.405-2.248-7.203,0-7.203,4.607-14.406,4.607-7.203,0-7.203.922-14.405.922-7.202,0-7.202-4.932-14.405-4.932s-7.202,1.479-14.404,1.479c-7.202,0-7.202,2.369-14.404,2.369-7.202,0-7.202-.16-14.404-.16-7.202,0-7.202.748-14.404.748-7.202,0-7.202-2.079-14.404-2.079-7.202,0-7.202,2.519-14.404,2.519-7.202,0-7.202-1.394-14.404-1.394-7.202,0-7.202-.616-14.405-.616-7.203,0-7.203-2.57-14.405-2.57-7.203,0-7.203.402-14.406.402-7.202,0-7.202,1.429-14.405,1.429-7.202,0-7.202-1.606-14.404-1.606-7.202,0-7.202-1.899-14.404-1.899s-7.202,5.58-14.404,5.58c-7.202,0-7.202-5.397-14.404-5.397-7.202,0-7.202,2.389-14.404,2.389s-7.202,1.465-14.404,1.465c-7.202,0-7.202-3.004-14.404-3.004-7.202,0-7.202,3.411-14.405,3.411s-7.203.907-14.406.907c-7.203,0-7.203.124-14.405.124-7.202,0-7.202-1.818-14.405-1.818-7.202,0-7.202-3.724-14.404-3.724-7.202,0-7.202,2.243-14.404,2.243-7.202,0-7.202-.54-14.404-.54-7.202,0-7.202,2.127-14.404,2.127-7.202,0-7.202-.691-14.404-.691-7.202,0-7.202-2.983-14.404-2.983-7.202,0-7.202,2.536-14.405,2.536-7.203,0-7.203.437-14.406.437-7.203,0-7.203.348-14.405.348-7.202,0-7.202,1.079-14.405,1.079-7.202,0-7.202-.677-14.404-.677-7.202,0-7.202.407-14.404.407s-7.202-1.356-14.404-1.356c-7.2,0-7.2-1.595-14.4-1.595-7.2,0-7.2,1.364-14.399,1.364-7.199,0-7.199-2.368-14.399-2.368-7.199,0-7.199,3.295-14.399,3.295s-7.199-3.417-14.399-3.417c-7.199,0-7.199,2.016-14.399,2.016-7.2,0-7.2-2.214-14.399-2.214-7.2,0-7.2.568-14.4.568-7.2,0-7.2,1.532-14.401,1.532-7.201,0-7.201,1.382-14.402,1.382-7.202,0-7.202-.819-14.403-.819s-7.202,1.23-14.404,1.23c-7.203,0-7.203-1.928-14.406-1.928-7.202,0-7.202,4.067-14.405,4.067-7.202,0-7.202-5.245-14.404-5.245-7.201,0-7.201-.993-14.402-.993-7.201,0-7.201,1.968-14.401,1.968-7.2,0-7.2,2.877-14.401,2.877-7.2,0-7.2-3.92-14.4-3.92-7.2,0-7.2.302-14.4.302-7.2,0-7.2,4.075-14.4,4.075-7.2,0-7.2-3.413-14.4-3.413-7.2,0-7.2-1.949-14.4-1.949-7.2,0-7.2,5.301-14.401,5.301-7.201,0-7.201-1.784-14.402-1.784-7.201,0-7.201-1.088-14.403-1.088-7.202,0-7.202-1.144-14.404-1.144-7.203,0-7.203,2.58-14.405,2.58-7.203,0-7.203-2.595-14.406-2.595-7.202,0-7.202,2.785-14.405,2.785-7.202,0-7.202.859-14.403.859-7.201,0-7.201-2.653-14.402-2.653-7.201,0-7.201-.953-14.402-.953-7.201,0-7.201,4.095-14.401,4.095s-7.2-4.975-14.401-4.975c-7.2,0-7.2,2.446-14.401,2.446-7.2,0-7.2-.257-14.401-.257q-7.201,0-14.402-.017c-7.201,0-7.201,1.512-14.402,1.512-7.202,0-7.202-1.764-14.403-1.764-7.202,0-7.202-.679-14.405-.679s-7.203,2.842-14.406,2.842c-7.203,0-7.203,1.043-14.406,1.043-7.202,0-7.202.487-14.405.487-7.202,0-7.202-3.286-14.403-3.286-7.201,0-7.201-.867-14.402-.867-7.201,0-7.201,4.7-14.402,4.7-7.201,0-7.201-2.603-14.402-2.603-7.201,0-7.201,1.32-14.402,1.32-7.201,0-7.201-.855-14.402-.855-7.201,0-7.201-1.243-14.403-1.243-7.202,0-7.202-.118-14.404-.118-7.202,0-7.202-.537-14.405-.537-7.203,0-7.203,1.831-14.406,1.831-7.203,0-7.203-1.831-14.406-1.831-7.202,0-7.202,1.234-14.405,1.234-7.202,0-7.202-2.425-14.404-2.425-7.201,0-7.201-.165-14.403-.165s-7.201,1.362-14.402,1.362c-7.201,0-7.201-.703-14.402-.703-7.201,0-7.201,4.738-14.403,4.738-7.202,0-7.202-4.163-14.403-4.163-7.202,0-7.202,2.925-14.404,2.925s-7.203-3.73-14.405-3.73c-7.204,0-7.204-.807-14.407-.807-7.203,0-7.203,1.349-14.406,1.349-7.202,0-7.202,3.852-14.405,3.852-7.202,0-7.202-3.727-14.404-3.727-7.202,0-7.202.462-14.403.462-7.201,0-7.201,3.082-14.403,3.082s-7.202.938-14.403.938c-7.202,0-7.202-.213-14.404-.213-7.202,0-7.202-2.314-14.405-2.314-7.203,0-7.203.998-14.406.998-7.204,0-7.204-.027-14.407-.027-7.203,0-7.203,1.116-14.406,1.116-7.202,0-7.202-4.183-14.405-4.183-7.202,0-7.202-1.806-14.404-1.806s-7.202,6.344-14.404,6.344c-7.202,0-7.202-5.035-14.404-5.035-7.202,0-7.202.297-14.404.297-7.203,0-7.203,4.726-14.406,4.726-7.204,0-7.204-4.322-14.407-4.322s-7.203-1.711-14.407-1.711c-7.203,0-7.203,5.819-14.405,5.819-7.202,0-7.202-1.495-14.404-1.495-7.202,0-7.202.149-14.404.149-7.202,0-7.202-4.478-14.404-4.478s-7.202,5.834-14.405,5.834c-7.203,0-7.203-3.616-14.406-3.616s-7.204-1.924-14.408-1.924c-7.203,0-7.203,2.305-14.406,2.305-7.203,0-7.203-2.605-14.405-2.605-7.202,0-7.202,3.572-14.405,3.572-7.202,0-7.202,1.431-14.405,1.431-7.203,0-7.203-5.14-14.405-5.14-7.203,0-7.203,4.99-14.407,4.99s-7.204-5.512-14.408-5.512c-7.203,0-7.203.89-14.406.89-7.203,0-7.203,5.112-14.405,5.112s-7.202-.035-14.405-.035c-7.203,0-7.203-5.811-14.405-5.811-7.203,0-7.203,2.045-14.406,2.045-7.204,0-7.204,2.698-14.408,2.698-7.204,0-7.204-1.821-14.407-1.821-7.203,0-7.203.491-14.406.491-7.203,0-7.203,1.407-14.405,1.407-7.203,0-7.203-3.014-14.406-3.014-7.203,0-7.203,2.514-14.407,2.514-7.204,0-7.204-2.092-14.409-2.092-7.203,0-7.203,2.824-14.407,2.824-7.203,0-7.203,1.219-14.406,1.219-7.203,0-7.203-4.143-14.406-4.143-7.203,0-7.203-.457-14.407-.457s-7.204-.066-14.408-.066c-7.204,0-7.204,4.925-14.407,4.925-7.203,0-7.203-5.82-14.406-5.82-7.203,0-7.203,4.046-14.406,4.046-7.204,0-7.204-2.716-14.407-2.716-7.204,0-7.204,2.706-14.409,2.706-7.203,0-7.203,1.356-14.407,1.356-7.203,0-7.203-.238-14.406-.238s-7.203-4.255-14.407-4.255c-7.204,0-7.204,1.535-14.408,1.535-7.204,0-7.204,1.32-14.407,1.32s-7.203,1.21-14.407,1.21c-7.203,0-7.203.827-14.407.827-7.204,0-7.204-1.313-14.408-1.313-7.204,0-7.204-2.792-14.408-2.792-7.203,0-7.203-2.004-14.407-2.004-7.204,0-7.204.543-14.407.543-7.205,0-7.205-.576-14.409-.576-7.204,0-7.204,2.098-14.407,2.098-7.204,0-7.204,4.306-14.407,4.306s-7.204-.561-14.408-.561c-7.204,0-7.204-3.429-14.408-3.429s-7.204-2.023-14.407-2.023c-7.204,0-7.204,5.088-14.408,5.088-7.204,0-7.204-.595-14.408-.595-7.204,0-7.204-4.91-14.407-4.91-7.204,0-7.204,5.559-14.408,5.559-7.204,0-7.204-5.944-14.408-5.944-7.204,0-7.204-.096-14.408-.096-7.205,0-7.205,3.793-14.409,3.793-7.201,0-7.201,1.582-14.403,1.582s-7.203-2.356-14.406-2.356c-7.204,0-7.204-.759-14.408-.759-7.202,0-7.202.312-14.404.312-7.201,0-7.201,1.206-14.403,1.206-7.202,0-7.202.019-14.405.019-7.205,0-7.205-.505-14.409-.505-7.203,0-7.203,1.45-14.406,1.45-7.202,0-7.202.131-14.404.131-7.203,0-7.203-.7-14.405-.7-7.205,0-7.205-3.258-14.41-3.258-7.203,0-7.203.043-14.406.043s-7.202,3.079-14.405,3.079-7.204-1.904-14.408-1.904c-7.204,0-7.204,1.187-14.408,1.187-7.203,0-7.203-1.552-14.406-1.552-7.204,0-7.204,1.243-14.408,1.243-7.204,0-7.204-2.517-14.409-2.517-7.203,0-7.203,5.839-14.406,5.839s-7.205-2.202-14.409-2.202c-7.204,0-7.204-.663-14.408-.663-7.204,0-7.204.557-14.408.557-7.205,0-7.205-2.648-14.41-2.648-7.204,0-7.204,5.134-14.408,5.134-7.206,0-7.206-3.118-14.411-3.118-7.204,0-7.204-3.32-14.408-3.32-7.206,0-7.206,4.651-14.411,4.651-7.204,0-7.204,1.546-14.409,1.546-7.205,0-7.205-3.669-14.41-3.669-7.205,0-7.205,2.548-14.41,2.548-7.205,0-7.205-1.03-14.409-1.03-7.205,0-7.205-3.555-14.411-3.555-7.206,0-7.206,5.681-14.412,5.681-7.205,0-7.205-1.798-14.411-1.798-7.205,0-7.205-2.061-14.41-2.061-7.205,0-7.205-.9-14.41-.9-7.205,0-7.205,3.182-14.411,3.182-7.206,0-7.206,2.111-14.411,2.111-7.203,0-7.203-1.675-14.406-1.675s-7.205-2.455-14.41-2.455c-7.206,0-7.206-.228-14.412-.228-7.205,0-7.205,4.451-14.41,4.451-7.205,0-7.205-.936-14.41-.936q-7.206,0-14.412.008c-7.207,0-7.207-1.135-14.414-1.135-7.206,0-7.206-4.3-14.412-4.3-7.206,0-7.206,5.212-14.413,5.212-7.207,0-7.207-2.037-14.413-2.037-7.208,0-7.208,3.115-14.415,3.115-7.206,0-7.206-1.315-14.411-1.315-7.208,0-7.208,1.432-14.416,1.432-7.206,0-7.206-3.056-14.412-3.056-7.211,0-7.211.78-14.421.78-7.211,0-8.882,3.471-13.984-1.625-5.096-5.089-2.459-6.764-2.459-13.966s4.761-7.202,4.761-14.404c0-7.203-4.32-7.203-4.32-14.405s1.716-7.203,1.716-14.405c0-7.202-2.454-7.202-2.454-14.405,0-7.202-.597-7.202-.597-14.404,0-7.202,3.165-7.202,3.165-14.404,0-7.202-3.413-7.202-3.413-14.404,0-7.202,2.964-7.202,2.964-14.403,0-7.202-.061-7.202-.061-14.403,0-7.202,1.013-7.202,1.013-14.403,0-7.202.486-7.202.486-14.404,0-7.202-2.996-7.202-2.996-14.404,0-7.202-1.064-7.202-1.064-14.404,0-7.202-.022-7.202-.022-14.405,0-7.203,2.863-7.203,2.863-14.406,0-7.203-1.943-7.203-1.943-14.405,0-7.202,4.095-7.202,4.095-14.405s-.521-7.202-.521-14.404c0-7.202-2.794-7.202-2.794-14.404,0-7.202,3.668-7.202,3.668-14.404s-2.738-7.202-2.738-14.404c0-7.202-1.495-7.202-1.495-14.404,0-7.202-1.617-7.202-1.617-14.404,0-7.202,2.772-7.202,2.772-14.404s-.181-7.202-.181-14.405c0-7.203,1.532-7.203,1.532-14.405,0-7.203.537-7.203.537-14.406,0-7.202-2.599-7.202-2.599-14.405,0-7.202.3-7.202.3-14.404,0-7.202,2.849-7.202,2.849-14.404,0-7.202-4.593-7.202-4.593-14.404,0-7.202,3.214-7.202,3.214-14.404,0-7.202-2.865-7.202-2.865-14.404,0-7.202,2.656-7.202,2.656-14.404,0-7.202,2.958-7.202,2.958-14.404,0-7.202-1.749-7.202-1.749-14.405,0-7.203-3.612-7.203-3.612-14.406,0-7.203,3.298-7.203,3.298-14.405,0-7.202-3.811-7.202-3.811-14.405,0-7.202-.739-7.202-.739-14.404,0-7.202.352-7.202.352-14.404,0-7.202,4.043-7.202,4.043-14.404,0-7.202.997-7.202.997-14.404,0-7.202-3-7.202-3-14.404,0-7.202,1.897-7.202,1.897-14.404,0-7.202-1.26-7.202-1.26-14.405,0-7.203.966-7.203.966-14.406,0-7.203-.142-7.203-.142-14.405,0-7.202-.572-7.202-.572-14.405s1.761-7.202,1.761-14.404c0-7.202-2.034-7.202-2.034-14.404,0-7.202,1.206-7.202,1.206-14.404,0-7.2-1.662-7.2-1.662-14.4,0-7.2,1.588-7.2,1.588-14.399,0-7.199-1.565-7.199-1.565-14.399,0-7.199.816-7.199.816-14.399,0-7.199-.171-7.199-.171-14.399,0-7.199.424-7.199.424-14.399,0-7.2,3.199-7.2,3.199-14.399,0-7.2-6.245-7.2-6.245-14.4,0-7.2,5.972-7.2,5.972-14.401,0-7.201-2.797-7.201-2.797-14.402,0-7.202,1.745-7.202,1.745-14.403,0-7.202,1.106-7.202,1.106-14.404,0-7.203-.113-7.203-.113-14.406,0-7.202-4.63-7.202-4.63-14.405s-.22-7.202-.22-14.404c0-7.201-.096-7.201-.096-14.402,0-7.201-.084-7.201-.084-14.401,0-7.2,4.815-7.2,4.815-14.401,0-7.2-3.022-7.2-3.022-14.4,0-7.2,1.658-7.2,1.658-14.4s-.34-7.2-.34-14.4c0-7.2.325-7.2.325-14.4,0-7.2-.217-7.2-.217-14.4,0-7.2-3.169-7.2-3.169-14.401,0-7.201,4.759-7.201,4.759-14.402,0-7.201-5.058-7.201-5.058-14.403,0-7.202.133-7.202.133-14.404,0-7.203.658-7.203.658-14.405,0-7.203-.708-7.203-.708-14.406,0-7.202,1.582-7.202,1.582-14.405,0-7.202-1.998-7.202-1.998-14.403,0-7.201,1.678-7.201,1.678-14.402,0-7.201,3.665-7.201,3.665-14.402,0-7.201-.683-7.201-.683-14.401,0-7.2-1.391-7.2-1.391-14.401,0-7.2-.656-7.2-.656-14.401,0-7.2.87-7.2.87-14.401,0-7.201-.331-7.201-.331-14.402,0-7.201-.81-7.201-.81-14.402,0-7.202,2.102-7.202,2.102-14.403,0-7.202-2.015-7.202-2.015-14.405,0-7.203.307-7.203.307-14.406,0-7.203,1.195-7.203,1.195-14.406,0-7.202-2.698-7.202-2.698-14.405,0-7.202-.211-7.202-.211-14.403,0-7.201-1.48-7.201-1.48-14.402,0-7.201-.21-7.201-.21-14.402,0-7.201,2.321-7.201,2.321-14.402,0-7.201.37-7.201.37-14.402,0-7.201-1.167-7.201-1.167-14.402,0-7.201.546-7.201.546-14.403,0-7.202-1.733-7.202-1.733-14.404,0-7.202.604-7.202.604-14.405,0-7.203,5.152-7.203,5.152-14.406s-5.83-7.203-5.83-14.406c0-7.202,2.657-7.202,2.657-14.405,0-7.202,3.372-7.202,3.372-14.404,0-7.201-5.202-7.201-5.202-14.403,0-7.201,2.176-7.201,2.176-14.402,0-7.201-1.587-7.201-1.587-14.402,0-7.201,1.394-7.201,1.394-14.403,0-7.202-2.17-7.202-2.17-14.403,0-7.202,5.358-7.202,5.358-14.404,0-7.203-3.413-7.203-3.413-14.405,0-7.204.56-7.204.56-14.407,0-7.203-1-7.203-1-14.406,0-7.202.937-7.202.937-14.405,0-7.202-.844-7.202-.844-14.404,0-7.202,2.621-7.202,2.621-14.403,0-7.201-4.256-7.201-4.256-14.403,0-7.202.275-7.202.275-14.403,0-7.202-.71-7.202-.71-14.404,0-7.202,4.129-7.202,4.129-14.405,0-7.203-.438-7.203-.438-14.406,0-7.204-3.996-7.204-3.996-14.407,0-7.203,2.449-7.203,2.449-14.406,0-7.202-1.512-7.202-1.512-14.405,0-7.202-.82-7.202-.82-14.404,0-7.202,4.472-7.202,4.472-14.404,0-7.202-4.308-7.202-4.308-14.404,0-7.202,3.005-7.202,3.005-14.404,0-7.203,1.851-7.203,1.851-14.406,0-7.204-4.64-7.204-4.64-14.407,0-7.203,2.576-7.203,2.576-14.407s-.2-7.203-.2-14.405,3.189-7.202,3.189-14.404c0-7.202-3.639-7.202-3.639-14.404,0-7.202,4.012-7.202,4.012-14.404,0-7.202-5.539-7.202-5.539-14.405s1.897-7.203,1.897-14.406,2.783-7.204,2.783-14.408c0-7.203-4.545-7.203-4.545-14.406,0-7.203,4.32-7.203,4.32-14.405,0-7.202.764-7.202.764-14.405s-6.046-7.202-6.046-14.405c0-7.203,2.811-7.203,2.811-14.405,0-7.203-1.782-7.203-1.782-14.407,0-7.204,5.319-7.204,5.319-14.408,0-7.203-5.677-7.203-5.677-14.406,0-7.203,5.428-7.203,5.428-14.405s-1.365-7.202-1.365-14.405c0-7.203-3.496-7.203-3.496-14.405,0-7.203,5.093-7.203,5.093-14.406,0-7.204-5.46-7.204-5.46-14.408,0-7.204,4.064-7.204,4.064-14.407,0-7.203.746-7.203.746-14.406,0-7.203-3.703-7.203-3.703-14.405,0-7.203,3.562-7.203,3.562-14.406,0-7.203-1.493-7.203-1.493-14.407s-4.203-7.204-4.203-14.409c0-7.203,2.184-7.203,2.184-14.407s2.583-7.203,2.583-14.406c0-7.203-.046-7.203-.046-14.406,0-7.203-.264-7.203-.264-14.407,0-7.204-1.236-7.204-1.236-14.408s-2.553-7.204-2.553-14.407c0-7.203,1.739-7.203,1.739-14.406,0-7.203-2.52-7.203-2.52-14.406,0-7.204,5.435-7.204,5.435-14.407,0-7.204-5.195-7.204-5.195-14.409,0-7.203,3.627-7.203,3.627-14.407,0-7.203-3.797-7.203-3.797-14.406,0-7.203,5.513-7.203,5.513-14.407,0-7.204-1.511-7.204-1.511-14.408,0-7.204.531-7.204.531-14.407,0-7.203-2.98-7.203-2.98-14.407,0-7.203,1.589-7.203,1.589-14.407,0-7.204-.397-7.204-.397-14.408,0-7.204-.29-7.204-.29-14.408s-.668-7.203-.668-14.407c0-7.204,3.549-7.204,3.549-14.407s-.292-7.205-.292-14.409c0-7.204-2.659-7.204-2.659-14.407,0-7.204.18-7.204.18-14.407,0-7.204-.841-7.204-.841-14.408,0-7.204,1.448-7.204,1.448-14.408,0-7.204-.67-7.204-.67-14.407q0-7.204.009-14.408c0-7.204-.926-7.204-.926-14.408s-.963-7.204-.963-14.407c0-7.204,3.243-7.204,3.243-14.408,0-7.204-1.805-7.204-1.805-14.408,0-7.204,3.158-7.204,3.158-14.408,0-7.205.933-7.205.933-14.409,0-7.201-1.775-7.201-1.775-14.403,0-7.203-3.265-7.203-3.265-14.406,0-7.204.975-7.204.975-14.408,0-7.202-1.883-7.202-1.883-14.404s4.788-7.201,4.788-14.403c0-7.202-4.558-7.202-4.558-14.405s.341-7.205.341-14.409c0-7.203,1.321-7.203,1.321-14.406,0-7.202,1.347-7.202,1.347-14.404s-2.946-7.203-2.946-14.405c0-7.205.805-7.205.805-14.41,0-7.203,4.596-7.203,4.596-14.406,0-7.202-2.639-7.202-2.639-14.405,0-7.204-1.391-7.204-1.391-14.408,0-7.204,3.932-7.204,3.932-14.408,0-7.203-1.408-7.203-1.408-14.406,0-7.204,1.979-7.204,1.979-14.408,0-7.204-5.529-7.204-5.529-14.409,0-7.203,5.269-7.203,5.269-14.406,0-7.205-4.079-7.205-4.079-14.409,0-7.204,1.043-7.204,1.043-14.408,0-7.204,2.376-7.204,2.376-14.408,0-7.205-3.138-7.205-3.138-14.41,0-7.204,2.987-7.204,2.987-14.408s-.659-7.206-.659-14.411c0-7.204-2.123-7.204-2.123-14.408,0-7.206,2.208-7.206,2.208-14.411,0-7.204-1.359-7.204-1.359-14.409,0-7.205,2.969-7.205,2.969-14.41,0-7.205-.427-7.205-.427-14.41,0-7.205-2.495-7.205-2.495-14.409,0-7.205,1.059-7.205,1.059-14.411,0-7.206-1.303-7.206-1.303-14.412,0-7.205,1.467-7.205,1.467-14.411,0-7.205.086-7.205.086-14.41,0-7.205-3.801-7.205-3.801-14.41,0-7.205,1.188-7.205,1.188-14.411,0-7.206,1.865-7.206,1.865-14.411,0-7.203-4.092-7.203-4.092-14.406,0-7.205,5.219-7.205,5.219-14.41,0-7.206.97-7.206.97-14.412,0-7.205.165-7.205.165-14.41,0-7.205-6.032-7.205-6.032-14.41,0-7.206,1.233-7.206,1.233-14.412,0-7.207,3.02-7.207,3.02-14.414,0-7.206.918-7.206.918-14.412,0-7.206-1.472-7.206-1.472-14.413,0-7.207,1.778-7.207,1.778-14.413,0-7.208-4.156-7.208-4.156-14.415,0-7.206,1.545-7.206,1.545-14.411,0-7.208-1.987-7.208-1.987-14.416,0-7.206,5.368-7.206,5.368-14.412,0-7.211-1.08-7.211-1.08-14.421s-8.531-10.516-3.436-15.618,8.4-1.029,15.602-1.029,7.202.502,14.404.502,7.203.383,14.405.383,7.203-.747,14.405-.747,7.202,4.449,14.405,4.449,7.202-4.482,14.404-4.482,7.202,2.833,14.404,2.833,7.202-2.497,14.404-2.497,7.202,4.207,14.403,4.207,7.202-3.349,14.403-3.349,7.202,3.129,14.403,3.129,7.202-1.072,14.404-1.072,7.202,2.065,14.404,2.065,7.202-5.32,14.404-5.32,7.202,5.055,14.405,5.055,7.203-2.082,14.406-2.082,7.203.838,14.405.838,7.202-.468,14.405-.468,7.202-4.279,14.404-4.279,7.202,5.625,14.404,5.625,7.202-1.809,14.404-1.809,7.202,1.23,14.404,1.23,7.202-1.407,14.404-1.407,7.202-3.294,14.404-3.294,7.202,4.8,14.404,4.8,7.202-5.458,14.405-5.458,7.203,1.001,14.405,1.001,7.203.735,14.406.735,7.202,2.187,14.405,2.187,7.202,1.723,14.404,1.723,7.202-4.975,14.404-4.975,7.202-.383,14.404-.383,7.202,2.116,14.404,2.116,7.202-.284,14.404-.284,7.202-.38,14.404-.38,7.202-.588,14.404-.588,7.202,5.419,14.405,5.419,7.203-5.813,14.406-5.813,7.203,1.856,14.405,1.856,7.202.933,14.405.933,7.202,1.122,14.404,1.122,7.202-.225,14.404-.225,7.202.152,14.404.152,7.202-.513,14.404-.513,7.202-.246,14.404-.246,7.202.922,14.404.922,7.202-3.62,14.405-3.62,7.203,4.143,14.406,4.143,7.203-3.293,14.405-3.293,7.202,2.671,14.405,2.671,7.202.703,14.404.703,7.202-3.104,14.404-3.104,7.202-.465,14.404-.465,7.2.794,14.4.794,7.2,1.04,14.399,1.04,7.199-2.89,14.399-2.89,7.199,1.043,14.399,1.043,7.199,1.635,14.399,1.635,7.199,3.017,14.399,3.017,7.2-2.4,14.399-2.4,7.2-2.93,14.4-2.93,7.2,5.036,14.401,5.036,7.201-5.714,14.402-5.714,7.202.747,14.403.747,7.202.82,14.404.82,7.203,3.725,14.406,3.725,7.202-4.911,14.405-4.911,7.202,5.006,14.404,5.006,7.201-1.381,14.402-1.381,7.201-3.458,14.401-3.458,7.2-.065,14.401-.065,7.2,2.188,14.4,2.188,7.2,1.985,14.4,1.985,7.2-1.13,14.4-1.13,7.2.273,14.4.273,7.2-3.11,14.4-3.11,7.2.871,14.401.871,7.201-1.338,14.402-1.338,7.201,5.029,14.403,5.029,7.202-3.545,14.404-3.545,7.203.969,14.405.969,7.203,2.419,14.406,2.419,7.202-3.111,14.405-3.111,7.202,3.819,14.403,3.819,7.201-1.066,14.402-1.066,7.201.506,14.402.506,7.201.196,14.401.196,7.2-3.36,14.401-3.36,7.2,1.427,14.401,1.427,7.2-3.814,14.401-3.814,7.201,2.338,14.402,2.338,7.201,2.072,14.402,2.072,7.202-2.181,14.403-2.181,7.202-2.268,14.405-2.268,7.203,2.509,14.406,2.509,7.203-1.435,14.406-1.435,7.202-.529,14.405-.529,7.202,6.001,14.403,6.001,7.201-.294,14.402-.294,7.201-.939,14.402-.939,7.201-.578,14.402-.578,7.201,1.85,14.402,1.85,7.201-2.155,14.402-2.155,7.201-2.036,14.403-2.036,7.202.402,14.404.402,7.202.752,14.405.752,7.203.874,14.406.874,7.203-3.743,14.406-3.743,7.202.01,14.405.01,7.202,4.013,14.404,4.013,7.201-1.256,14.403-1.256,7.201-2.852,14.402-2.852,7.201,3.95,14.402,3.95,7.201-2.065,14.403-2.065,7.202,1.132,14.403,1.132,7.202-2.393,14.404-2.393,7.203,5.203,14.405,5.203,7.204-1.679,14.407-1.679,7.203.771,14.406.771,7.202,1.181,14.405,1.181,7.202-.001,14.404-.001,7.202-2.302,14.403-2.302,7.201.283,14.403.283,7.202.458,14.403.458,7.202-.536,14.404-.536,7.202,1.61,14.405,1.61,7.203-1.629,14.406-1.629,7.204-3.451,14.407-3.451,7.203,2.832,14.406,2.832,7.202-2.609,14.405-2.609,7.202-.744,14.404-.744,7.202,3.979,14.404,3.979,7.202-3.922,14.404-3.922,7.202-.245,14.404-.245,7.203,4.232,14.406,4.232,7.204-3.665,14.407-3.665,7.203,4.859,14.407,4.859,7.203-4.388,14.405-4.388,7.202.211,14.404.211,7.202.083,14.404.083,7.202-.363,14.404-.363,7.202,2.463,14.405,2.463,7.203,2.142,14.406,2.142,7.204-2.112,14.408-2.112,7.203-3.149,14.406-3.149,7.203-.247,14.405-.247,7.202,3.156,14.405,3.156,7.202,2.849,14.405,2.849,7.203.027,14.405.027,7.203-3.429,14.407-3.429,7.204,1.35,14.408,1.35,7.203-.005,14.406-.005,7.203-1.32,14.405-1.32,7.202,2.047,14.405,2.047,7.203-.953,14.405-.953,7.203-2.559,14.406-2.559,7.204,4.91,14.408,4.91,7.204-6.154,14.407-6.154,7.203,3.426,14.406,3.426,7.203,2.556,14.405,2.556,7.203-4.456,14.406-4.456,7.203,1.116,14.407,1.116,7.204,1.403,14.409,1.403,7.203-2.464,14.407-2.464,7.203-1.29,14.406-1.29,7.203,5.276,14.406,5.276,7.203.618,14.407.618,7.204-4.249,14.408-4.249,7.204,3.713,14.407,3.713,7.203-.985,14.406-.985,7.203-2.582,14.406-2.582,7.204,1.238,14.407,1.238,7.204-3.905,14.409-3.905,7.203,4.873,14.407,4.873,7.203-1.288,14.406-1.288,7.203,1.718,14.407,1.718,7.204-.248,14.408-.248,7.204,1.784,14.407,1.784,7.203-6.439,14.407-6.439,7.203,6.508,14.407,6.508,7.204-6.034,14.408-6.034,7.204,1.962,14.408,1.962,7.203,1.393,14.407,1.393,7.204.718,14.407.718,7.205.264,14.409.264,7.204-4.511,14.407-4.511,7.204,1.697,14.407,1.697,7.204,2.079,14.408,2.079,7.204-3.064,14.408-3.064,7.204,4.989,14.407,4.989,7.204-1.897,14.408-1.897,7.204.813,14.408.813,7.204-1.879,14.407-1.879,7.204,2.773,14.408,2.773,7.204.686,14.408.686,7.204-3.117,14.408-3.117,7.205-2.683,14.409-2.683,7.201,2.807,14.403,2.807,7.203-2.599,14.406-2.599,7.204-.967,14.408-.967,7.202.197,14.404.197,7.201,2.902,14.403,2.902,7.202-.501,14.405-.501,7.205,3.968,14.409,3.968,7.203-6.396,14.406-6.396,7.202,5.48,14.404,5.48,7.203.821,14.405.821,7.205-4.947,14.41-4.947,7.203-1.397,14.406-1.397,7.202,2.31,14.405,2.31,7.204-1.175,14.408-1.175,7.204-.076,14.408-.076,7.203-1.54,14.406-1.54,7.204,4.575,14.408,4.575,7.204,1.234,14.409,1.234,7.203-5.641,14.406-5.641,7.205,1.425,14.409,1.425,7.204,3.649,14.408,3.649,7.204-1.82,14.408-1.82,7.205-.195,14.41-.195,7.204,1.199,14.408,1.199,7.206-.036,14.411-.036,7.204-1.295,14.408-1.295,7.206.925,14.411.925,7.204-3.047,14.409-3.047,7.205-.667,14.41-.667,7.205,6.518,14.41,6.518,7.205-4.454,14.409-4.454,7.205,3.774,14.411,3.774,7.206-4.884,14.412-4.884,7.205-1.147,14.411-1.147,7.205,6.381,14.41,6.381,7.205-1.58,14.41-1.58,7.205-3.413,14.411-3.413,7.206.338,14.411.338,7.203,2.891,14.406,2.891,7.205-2.746,14.41-2.746,7.206,2.897,14.412,2.897,7.205.711,14.41.711,7.205-3.313,14.41-3.313,7.206,1.232,14.412,1.232,7.207-3.008,14.414-3.008,7.206,4.297,14.412,4.297,7.206-.189,14.413-.189,7.207-2.183,14.413-2.183,7.208-1.134,14.415-1.134,7.206,2.085,14.411,2.085,7.208-2.695,14.416-2.695,7.206-.294,14.412-.294,7.211.532,14.421.532,10.915-4.122,16.017.974c5.096,5.089-.763,8.799-.763,16.001s-2.229,7.202-2.229,14.404,2.929,7.203,2.929,14.405c0,7.203-1.412,7.203-1.412,14.405s-2.872,7.202-2.872,14.405c0,7.202-.305,7.202-.305,14.404s.856,7.202.856,14.404-1.185,7.202-1.185,14.404,1.572,7.202,1.572,14.403,4.171,7.202,4.171,14.403-3.347,7.202-3.347,14.403,3.877,7.202,3.877,14.404c0,7.202-1.366,7.202-1.366,14.404s-3.365,7.202-3.365,14.404,5.238,7.202,5.238,14.405-1.691,7.203-1.691,14.406-4.005,7.203-4.005,14.405.986,7.202.986,14.405-.112,7.202-.112,14.404,1.502,7.202,1.502,14.404-1.786,7.202-1.786,14.404,4.659,7.202,4.659,14.404c0,7.202.137,7.202.137,14.404s-3.201,7.202-3.201,14.404c0,7.202.743,7.202.743,14.404,0,7.202,1.774,7.202,1.774,14.405s-4.666,7.203-4.666,14.405.971,7.203.971,14.406,4.683,7.202,4.683,14.405-.53,7.202-.53,14.404c0,7.202.485,7.202.485,14.404s-6.793,7.202-6.793,14.404,5.876,7.202,5.876,14.404.569,7.202.569,14.404c0,7.202-4.984,7.202-4.984,14.404s3.723,7.202,3.723,14.404-4.009,7.202-4.009,14.405,3.685,7.203,3.685,14.406-.927,7.203-.927,14.405-2.853,7.202-2.853,14.405-.804,7.202-.804,14.404c0,7.202,5.894,7.202,5.894,14.404s-4.017,7.202-4.017,14.404,4.769,7.202,4.769,14.404-6.939,7.202-6.939,14.404.109,7.202.109,14.404,4.509,7.202,4.509,14.405.811,7.203.811,14.406-3.678,7.203-3.678,14.405c0,7.202,1.273,7.202,1.273,14.405s2.514,7.202,2.514,14.404c0,7.202-2.173,7.202-2.173,14.404s-2.893,7.202-2.893,14.404,2.493,7.2,2.493,14.4c0,7.2-1.332,7.2-1.332,14.399s3.359,7.199,3.359,14.399c0,7.199-2.726,7.199-2.726,14.399s.253,7.199.253,14.399,2.819,7.199,2.819,14.399-2.027,7.2-2.027,14.399.469,7.2.469,14.4-3.192,7.2-3.192,14.401,2.649,7.201,2.649,14.402c0,7.202-3.188,7.202-3.188,14.403s2.543,7.202,2.543,14.404c0,7.203-.085,7.203-.085,14.406s-1.754,7.202-1.754,14.405,4.772,7.202,4.772,14.404.936,7.201.936,14.402-1.999,7.201-1.999,14.401-.779,7.2-.779,14.401-2.558,7.2-2.558,14.4,4.674,7.2,4.674,14.4c0,7.2.894,7.2.894,14.4s-6.022,7.2-6.022,14.4,3.923,7.2,3.923,14.4-1.421,7.2-1.421,14.401-1.732,7.201-1.732,14.402-1.216,7.201-1.216,14.403,3.66,7.202,3.66,14.404-2.655,7.203-2.655,14.405,2.889,7.203,2.889,14.406.242,7.202.242,14.405.399,7.202.399,14.403-3.923,7.201-3.923,14.402,2.818,7.201,2.818,14.402-3.184,7.201-3.184,14.401,6.41,7.2,6.41,14.401-5.057,7.2-5.057,14.401c0,7.2,3.682,7.2,3.682,14.401s-4.992,7.201-4.992,14.402c0,7.201,6.087,7.201,6.087,14.402s-4.457,7.202-4.457,14.403c0,7.202-.863,7.202-.863,14.405s4.832,7.203,4.832,14.406-3.941,7.203-3.941,14.406-.359,7.202-.359,14.405,1.654,7.202,1.654,14.403c0,7.201,2.195,7.201,2.195,14.402,0,7.201-4.069,7.201-4.069,14.402s-1.142,7.201-1.142,14.402-.247,7.201-.247,14.402c0,7.201.829,7.201.829,14.402s.786,7.201.786,14.403-.02,7.202-.02,14.404,1.8,7.202,1.8,14.405-1.628,7.203-1.628,14.406.568,7.203.568,14.406c0,7.202-2.511,7.202-2.511,14.405s4.506,7.202,4.506,14.404,2.248,7.201,2.248,14.403c0,7.201-4.526,7.201-4.526,14.402s.943,7.201.943,14.402-2.758,7.201-2.758,14.403c0,7.202,4.962,7.202,4.962,14.403s-.526,7.202-.526,14.404.83,7.203.83,14.405c0,7.204-5.693,7.204-5.693,14.407s2.423,7.203,2.423,14.406c0,7.202,3.1,7.202,3.1,14.405s-5.464,7.202-5.464,14.404c0,7.202,3.251,7.202,3.251,14.403s1.945,7.201,1.945,14.403c0,7.202-.398,7.202-.398,14.403,0,7.202-1.979,7.202-1.979,14.404s-1.589,7.202-1.589,14.405,1.53,7.203,1.53,14.406,3.627,7.204,3.627,14.407-3.136,7.203-3.136,14.406-3.245,7.202-3.245,14.405c0,7.202,6.063,7.202,6.063,14.404s-1.48,7.202-1.48,14.404.276,7.202.276,14.404-2.823,7.202-2.823,14.404c0,7.203-.95,7.203-.95,14.406s.391,7.204.391,14.407,4.712,7.203,4.712,14.407-.639,7.203-.639,14.405-1.481,7.202-1.481,14.404.056,7.202.056,14.404,2.718,7.202,2.718,14.404-3.664,7.202-3.664,14.405-3.288,7.203-3.288,14.406c0,7.204,5.997,7.204,5.997,14.408s-2.379,7.203-2.379,14.406,2.865,7.203,2.865,14.405-3.816,7.202-3.816,14.405c0,7.202-1.561,7.202-1.561,14.405,0,7.203,5.701,7.203,5.701,14.405s-.243,7.203-.243,14.407-2.047,7.204-2.047,14.408-3.296,7.203-3.296,14.406-.536,7.203-.536,14.405c0,7.202,3.273,7.202,3.273,14.405s.299,7.203.299,14.405.933,7.203.933,14.406-2.361,7.204-2.361,14.408c0,7.204-.291,7.204-.291,14.407s3.868,7.203,3.868,14.406-3.679,7.203-3.679,14.405c0,7.203,3.529,7.203,3.529,14.406s-3.687,7.203-3.687,14.407-2.325,7.204-2.325,14.409,4.987,7.203,4.987,14.407-2.663,7.203-2.663,14.406-1.366,7.203-1.366,14.406,5.662,7.203,5.662,14.407c0,7.204-4.406,7.204-4.406,14.408s-.905,7.204-.905,14.407,4.453,7.203,4.453,14.406.403,7.203.403,14.406c0,7.204-.134,7.204-.134,14.407s-5.183,7.204-5.183,14.409-.596,7.203-.596,14.407c0,7.203,1.609,7.203,1.609,14.406s1.096,7.203,1.096,14.407,1.508,7.204,1.508,14.408-4.587,7.204-4.587,14.407,5.049,7.203,5.049,14.407-.2,7.203-.2,14.407.646,7.204.646,14.408-.909,7.204-.909,14.408-3.502,7.203-3.502,14.407,3.622,7.204,3.622,14.407c0,7.205,1.763,7.205,1.763,14.409s.186,7.204.186,14.407-2.637,7.204-2.637,14.407c0,7.204-3.379,7.204-3.379,14.408s.763,7.204.763,14.408.236,7.204.236,14.407,4.59,7.204,4.59,14.408-.926,7.204-.926,14.408c0,7.204-3.422,7.204-3.422,14.407,0,7.204,3.548,7.204,3.548,14.408s-4.518,7.204-4.518,14.408-.099,7.204-.099,14.408,5.812,7.205,5.812,14.409-2.392,7.201-2.392,14.403.069,7.203.069,14.406-1.143,7.204-1.143,14.408.976,7.202.976,14.404-.923,7.201-.923,14.403-1.372,7.202-1.372,14.405,3.599,7.205,3.599,14.409-1.037,7.203-1.037,14.406-3.528,7.202-3.528,14.404,3.999,7.203,3.999,14.405,1.766,7.205,1.766,14.41-5.64,7.203-5.64,14.406,5.671,7.202,5.671,14.405-4.684,7.204-4.684,14.408-1.807,7.204-1.807,14.408,6.248,7.203,6.248,14.406-.642,7.204-.642,14.408-.226,7.204-.226,14.409-2.623,7.203-2.623,14.406,3.095,7.205,3.095,14.409-3.446,7.204-3.446,14.408c0,7.204,3.057,7.204,3.057,14.408s.33,7.205.33,14.41c0,7.204-4.618,7.204-4.618,14.408s3.321,7.206,3.321,14.411-.931,7.204-.931,14.408.94,7.206.94,14.411-2.421,7.204-2.421,14.409c0,7.205-.196,7.205-.196,14.41s-.442,7.205-.442,14.41,1.961,7.205,1.961,14.409,2.095,7.205,2.095,14.411.71,7.206.71,14.412-.701,7.205-.701,14.411c0,7.205.767,7.205.767,14.41,0,7.205-4.17,7.205-4.17,14.41s-.639,7.205-.639,14.411,4.427,7.206,4.427,14.411-.018,7.203-.018,14.406-6.042,7.205-6.042,14.41,4.436,7.206,4.436,14.412c0,7.205.567,7.205.567,14.41s.123,7.205.123,14.41-4.442,7.206-4.442,14.412.543,7.207.543,14.414,3.376,7.206,3.376,14.412,1.375,7.206,1.375,14.413c0,7.207-3.283,7.207-3.283,14.413s-.27,7.208-.27,14.415-1.879,7.206-1.879,14.411-.381,7.208-.381,14.416.745,7.206.745,14.412-.846,7.862,1.117,14.8c2.445,8.641,8.696,11.2,3.601,16.302Z" style="fill: none; stroke: #000; stroke-linecap: round; stroke-linejoin: round; stroke-width: 40px;"/>
</svg>