<?xml version="1.0" encoding="UTF-8"?>
<svg id="Title" xmlns="http://www.w3.org/2000/svg" width="700" height="700" viewBox="0 0 700 700">
  <path d="M239.573,560.982c.398.763-3.829,1.621-3.814,2.732.007.482,2.812,1.016,2.824,1.678.009.52-.457,1.101-.444,1.724.011.538,1.661,1.075,1.674,1.683.012.547,1.664,1.075,1.679,1.675.014.552-.28,1.126-.264,1.719.015.556,1.099,1.09,1.117,1.68.017.559-5.302,1.292-5.284,1.879.018.561,1.096,1.1,1.116,1.685.019.563.307,1.126.328,1.709.021.564-2.278,1.227-2.255,1.809.022.566,4.896.943,4.92,1.524.023.566-2.097,1.225-2.071,1.804.025.567,5.232.897,5.259,1.475.026.568-4.497,1.349-4.469,1.926.028.569-6.909,1.499-6.88,2.076.03.57,9.531.641,9.562,1.218.031.57-3.689,1.348-3.655,1.924.033.571,1.827,1.037,1.862,1.612.035.57-7.275,1.604-7.239,2.177s7.292.676,7.33,1.249,1.347,1.048,1.387,1.622.263,1.121.305,1.694-.899,1.211-.854,1.784-3.898,1.467-3.851,2.04-.668,1.222-.619,1.795-1.616,1.318-1.563,1.89c.053.575,6.961.507,7.016,1.078.056.576-1.505,1.3-1.447,1.871.059.576.043,1.151.105,1.721.062.576-2.805,1.479-2.74,2.048.066.576,3.039.808,3.108,1.375.07.576-4.307,1.717-4.234,2.283.075.576,8.953-.042,9.031.522.08.576-5.391,1.916-5.307,2.478.085.575-4.146,1.833-4.057,2.393.092.575,9.332-.371,9.428.186.099.576-3.832,1.827-3.729,2.382.107.576,3.193.526,3.306,1.079.117.576-2.588,1.7-2.466,2.248.129.576-5.448,2.544-5.312,3.086.143.574,9.747-1.378,9.897-.845.162.574-7.748,3.565-7.577,4.089.187.572,3.594.092,3.791.599.222.57-.103,1.412.133,1.893.274.561,5.266-1.959,5.559-1.528.363.532-4.588,5.511-4.195,5.825.336.269,4.442-5.762,5.087-5.462.453.211-1.41,5.781-.81,6.004.491.183-.381,4.864.206,5.055.51.166,1.5-.599,2.079-.428.521.153,3.11-6.804,3.686-6.647.529.144-.04,4.515.535,4.662.535.137,2-3.398,2.574-3.26.539.13.137,4.335.71,4.467.542.125.68,2.26,1.251,2.385.545.12,1.382-.91,1.953-.789.547.115.597,2.855,1.168,2.971.549.111,2.187-5.078,2.757-4.966.551.108,1.127.144,1.697.252.552.105,1.944-4.313,2.514-4.208.553.101.825,1.702,1.395,1.804.554.099.039,6.356.609,6.454.555.096,1.033.796,1.603.892.556.093,1.982-4.987,2.552-4.894.557.091,1.461-1.995,2.031-1.904.558.089.847,1.869,1.417,1.957.558.086.097,6.934.666,7.019.558.084,1.498-2.265,2.067-2.182.559.082,1.659-3.524,2.229-3.443.56.08.323,5.887.892,5.966.56.078,1.324-1.193,1.894-1.116.561.076,1.626-3.542,2.195-3.466.561.074,1.691-4.24,2.26-4.166.562.072.33,6.371.899,6.443.562.071,1.636-3.972,2.206-3.902.563.069,1.49-2.955,2.059-2.887.563.067.472,5.642,1.042,5.708.563.065,1.214-.619,1.784-.555.564.064.711,3.909,1.281,3.972.564.062,1.836-6.361,2.406-6.299.564.061.551,5.583,1.121,5.643.565.059,1.729-5.704,2.3-5.646.565.057,1.174-.41,1.744-.353.565.056,1.141-.098,1.712-.043.566.054,1.049.874,1.62.927.566.053,1.258-1.375,1.829-1.324.566.051.433,7.926,1.004,7.976.567.05,1.063,1.023,1.634,1.072.567.048,1.21-.691,1.781-.644.567.047,1.018,1.654,1.59,1.7.567.045,1.621-6.041,2.192-5.997.568.044,1.075.844,1.647.886.568.042.783,4.961,1.355,5.002.568.041,1.126.386,1.698.426.568.039,1.729-8.62,2.301-8.581.568.038.833,4.634,1.405,4.671.569.036,1.461-5.166,2.033-5.131.569.035.914,3.643,1.486,3.676.569.034.994,2.553,1.566,2.585.567.032.9,4.467,1.47,4.498s1.172-.379,1.742-.35,1.265-2.328,1.835-2.3,1.418-5.913,1.989-5.887,1.185-1.27,1.756-1.245,1.014,2.745,1.585,2.769,1.113.535,1.684.557,1.064,1.98,1.635,2,.959,5.444,1.531,5.463,1.327-5.63,1.899-5.612,1.219-2.82,1.791-2.804,1.128.187,1.699.201,1.023,4.816,1.595,4.829,1.098,2.396,1.669,2.408,1.322-9.698,1.894-9.688,1.105,1.48,1.677,1.489,1.15-1.588,1.722-1.581,1.071,5.85,1.643,5.856,1.178-5.219,1.75-5.215,1.093,8.567,1.665,8.57,1.151.644,1.723.645,1.148-3.984,1.72-3.985,1.122-4.949,1.695-4.952,1.19,8.736,1.762,8.732,1.095-6.068,1.667-6.073,1.224,6.975,1.797,6.968c.571-.007,1.048-7.067,1.62-7.076s1.166,1.616,1.739,1.605,1.123-.911,1.695-.923,1.067-3.03,1.639-3.044,1.385,9.45,1.958,9.434.846-10.47,1.418-10.487,1.274,4.429,1.846,4.41,1.217,2.105,1.789,2.085,1.153.119,1.725.097,1.312,3.916,1.884,3.892.67-10.887,1.242-10.913,1.123-.079,1.695-.107,1.29,3.168,1.861,3.139,1.215,1.416,1.786,1.385,1.15.125,1.721.092,1.159.256,1.731.221,1.164.295,1.735.258,1.345,2.939,1.916,2.901,1.345,2.645,1.915,2.605.651-6.959,1.221-7.001,1.245,1.305,1.816,1.26.943-2.539,1.514-2.586,1.391,2.954,1.961,2.906.649-5.709,1.22-5.759,1.162.317,1.732.265,1.868,7.698,2.438,7.644.735-4.325,1.305-4.381,1.16.112,1.729.054,1.45,2.82,2.019,2.76.705-4.143,1.274-4.205,1.891,6.526,2.46,6.461.471-5.949,1.039-6.016,1.076-.612,1.644-.681,1.846,5.526,2.413,5.454,1.033-1.076,1.601-1.15.755-3.09,1.323-3.166,1.301,1.029,1.868.95,1.674,3.575,2.241,3.494.913-1.822,1.48-1.905.211-6.369.777-6.455,1.222.469,1.788.381.629-3.265,1.195-3.356.988-.914,1.553-1.008,1.319,1.079,1.884.984,2.852,9.804,3.416,9.706.199-5.537.763-5.638.898-1.457,1.461-1.561,1.977,4.312,2.539,4.206-.382-8.072.18-8.181.945-1.008,1.506-1.12,2.247,5.402,2.808,5.288,1.321.705,1.881.587,1.345.762,1.904.641,1.176-.053,1.735-.176,1.165-.108,1.723-.235.862-1.419,1.419-1.548-.168-5.688.388-5.821.822-1.374,1.377-1.51,1.961,3.237,2.515,3.098.227-3.687.78-3.829,1.251.372,1.803.227,2.272,3.878,2.822,3.73c.58-.634-5.453-1.833-5.224-2.921.099-.471,2.352-.574,2.486-1.221.105-.51,6.942.309,7.067-.302.107-.526-8.55-2.863-8.43-3.458.108-.535,8.662.595,8.779.007.108-.542,1.091-.94,1.205-1.523.107-.546-7.639-2.644-7.526-3.224.107-.549-1.394-1.412-1.283-1.99.106-.552,6.217.036,6.326-.54.105-.554,1.701-.84,1.809-1.414.104-.555-5.901-2.254-5.795-2.826.103-.557,2.828-.633,2.932-1.205.102-.558-3.689-1.819-3.587-2.39.101-.559,10.059.638,10.16.068.099-.56.585-1.069.685-1.639.098-.561-4.874-2.012-4.776-2.581.097-.562,2.181-.79,2.278-1.359.095-.562,1.903-.848,1.998-1.417.093-.562-1.16-1.357-1.067-1.924.092-.563,1.137-.982,1.228-1.549.09-.564-7.974-2.421-7.884-2.989s2.83-.707,2.918-1.275,6.296-.206,6.381-.774-.415-1.235-.332-1.803-4.253-1.778-4.172-2.346,5.223-.433,5.302-1.002-.587-1.255-.511-1.824.431-1.119.504-1.687c.074-.572,1.126-1.037,1.196-1.605.071-.572-4.909-1.763-4.842-2.331.068-.573-4.725-1.685-4.662-2.252.064-.574.399-1.08.459-1.647.061-.575,3.499-.775,3.555-1.342.057-.577-3.442-1.457-3.39-2.025.053-.578,9.379-.336,9.426-.903.048-.579-5.188-1.574-5.147-2.14.043-.581,3.507-.923,3.543-1.489.036-.581,4.127-.971,4.155-1.536.029-.583-9.271-1.581-9.251-2.145.021-.585.099-1.103.11-1.666.012-.586,7.464-1.088,7.465-1.649,0-.589-5.807-1.127-5.819-1.685-.013-.591,5.75-1.415,5.721-1.969-.031-.593-7.289-.666-7.339-1.213,0,0,3.156-1.501,4.125-2.031.416-.228,4.364,5.652,4.935,5.33.447-.251-.697-3.49-.164-3.797.459-.265-2.379-6.249-1.86-6.555.465-.273,4.297,5.076,4.806,4.771.467-.28.866-.752,1.368-1.059.467-.286-2.014-5.381-1.518-5.69.467-.291-.074-2.159.417-2.47.467-.296,4.257,4.621,4.745,4.307.466-.3,1.254-.145,1.737-.461.465-.304-2.689-6.094-2.209-6.413.464-.308,6.867,8.225,7.344,7.903.462-.312-4.359-8.408-3.887-8.733.46-.316,1.317-.028,1.786-.355.458-.32,6.026,6.597,6.493,6.266.457-.324-1.22-3.696-.756-4.031.455-.327-1.319-3.738-.858-4.076.453-.331,5.172,5.087,5.63,4.746.451-.335-5.894-9.739-5.438-10.083.448-.339,7.927,8.539,8.38,8.192.446-.343-3.783-6.751-3.333-7.102.444-.347,3.187,2.22,3.634,1.865.441-.351-1.171-3.271-.727-3.63.439-.354,5.445,4.86,5.885,4.498.436-.358-5.046-7.869-4.609-8.235.433-.362,3.158,2.01,3.592,1.641.43-.366,1.828.38,2.259.006.427-.37,1.592.07,2.019-.307.424-.374,1.835.308,2.258-.073.42-.378-5.908-8.168-5.488-8.553.417-.383,7.881,6.846,8.296,6.457.413-.387.916-.746,1.327-1.139.409-.391.447-1.231.854-1.628.405-.395-.013-1.675.39-2.076s-4.182-5.74-3.784-6.145,5.68,3.956,6.074,3.547-4.777-6.085-4.388-6.498,6.904,4.882,7.288,4.463-1.615-3.022-1.236-3.445,5.257,3.09,5.631,2.663-3.782-4.814-3.414-5.246-.55-1.93-.187-2.367,5.969,3.391,6.326,2.95-6.393-6.551-6.043-6.998,5.59,2.906,5.934,2.454-.424-1.765-.086-2.221,1.266-.504,1.596-.966-2.185-2.924-1.862-3.39,4.827,1.903,5.143,1.432-.72-1.877-.412-2.354,3.388.741,3.688.259-3.089-3.266-2.798-3.753-.421-1.557-.138-2.05,4.367,1.118,4.64.621,2.701.056,2.965-.447-2.464-2.63-2.211-3.137-2.05-2.285-1.808-2.797-1.415-1.871-1.183-2.389.633-.909.853-1.432,7.116,1.648,7.325,1.12-4.481-2.99-4.285-3.522-2.871-2.179-2.687-2.716c.177-.516,1.052-.754,1.233-1.321.167-.523-.592-1.298-.421-1.864.159-.529,1.868-.578,2.03-1.143.153-.532,5.233.305,5.389-.258.148-.535-8.262-3.389-8.112-3.952.143-.538,5.349.264,5.494-.299.139-.541-4.699-2.335-4.558-2.898.136-.543,2.725-.461,2.862-1.024.133-.545,7.022.531,7.157-.032.13-.546-6.248-2.638-6.117-3.202.128-.547,3.755-.289,3.884-.852.126-.549,1.493-.828,1.62-1.392.124-.55,1.926-.742,2.051-1.306.122-.551-4.961-2.251-4.838-2.815.12-.551-1.025-1.374-.905-1.938.118-.552,1.389-.857,1.508-1.421.117-.553,7.869.486,7.987-.077.115-.553-11.343-3.508-11.227-4.072.114-.554,3.037-.527,3.152-1.09.113-.554,7.237.304,7.35-.259.112-.555-3.44-1.851-3.328-2.414.11-.555-4.37-2.019-4.259-2.582.109-.555,8.215.452,8.324-.111.108-.556-7.472-2.607-7.363-3.17.107-.556,7.305.248,7.413-.315.106-.556-7.214-2.531-7.107-3.094.106-.557,8.969.538,9.075-.026.105-.557-.636-1.282-.531-1.845.104-.557-5.549-2.189-5.445-2.752.103-.558,1.788-.825,1.892-1.388.103-.558,1.623-.859,1.726-1.423.102-.558-.652-1.275-.55-1.839.101-.558,1.824-.828,1.926-1.391.1-.559,1.741-.846,1.842-1.41.1-.559-5.954-2.216-5.853-2.78.099-.559-.384-1.22-.284-1.783.099-.559.423-1.077.521-1.641.098-.559,8.316.298,8.414-.266.098-.56-2.629-1.616-2.531-2.179.097-.56-4.888-1.999-4.791-2.563.097-.56-2.281-1.543-2.184-2.107.096-.56,2.571-.711,2.667-1.275.096-.56,7.023.039,7.118-.525.095-.558-7.564-2.43-7.469-2.992.094-.559,1.492-.897,1.587-1.459.094-.559,6.012-.144,6.105-.707.093-.559-7.702-2.434-7.608-2.996.093-.559.598-1.048.691-1.611s10.604.599,10.697.036-3.844-1.786-3.752-2.349-3.324-1.695-3.232-2.258,1.83-.853,1.922-1.416,4.724-.387,4.815-.95-4.814-1.93-4.723-2.493,1.166-.964,1.256-1.527-1.311-1.362-1.221-1.925-.308-1.2-.218-1.764,1.913-.848,2.003-1.411-4.085-1.797-3.996-2.361,8.792.233,8.881-.331-1.747-1.429-1.658-1.992-6.698-2.199-6.61-2.763,7.264-.021,7.351-.584-3.384-1.678-3.297-2.242-2.529-1.542-2.442-2.106,9.127.253,9.214-.311-7.383-2.287-7.297-2.851,4.679-.437,4.765-1.001,1.075-.99,1.161-1.555,1.103-.987,1.188-1.552-10.081-2.678-9.996-3.243,11.425.573,11.51.01-3.308-1.65-3.224-2.214-6.674-2.15-6.589-2.714,7.52-.028,7.604-.591,3.323-.659,3.407-1.223.271-1.114.355-1.678-1.717-1.408-1.633-1.972-6.311-2.083-6.228-2.647,1.913-.87,1.996-1.435-2.839-1.567-2.757-2.132,9.962.301,10.044-.263-11.617-2.843-11.535-3.407,11.592.529,11.674-.035-11.05-2.751-10.968-3.316,4.489-.504,4.571-1.069,1.788-.896,1.869-1.462-3.658-1.677-3.577-2.243-.727-1.256-.647-1.822,9.168.151,9.249-.415-5.133-1.885-5.053-2.45,5.789-.335,5.869-.901-1.607-1.383-1.528-1.948-8.025-2.283-7.946-2.848,5.169-.428,5.249-.994.714-1.055.793-1.62,3.449-.675,3.528-1.24.601-1.073.68-1.639-2.32-1.477-2.242-2.043-2.863-1.55-2.785-2.116,5.449-.405,5.527-.971-5.845-1.958-5.767-2.524,6.456-.272,6.533-.838-4.08-1.712-4.003-2.279,3.639-.661,3.716-1.227-1.226-1.322-1.15-1.889-7.737-2.2-7.661-2.767,8.271-.04,8.347-.606.243-1.123.319-1.69-5.573-1.901-5.497-2.468,6.029-.35,6.104-.917.319-1.114.394-1.68-1.358-1.336-1.283-1.903-2.031-1.424-1.956-1.99-.224-1.184-.149-1.751-3.89-1.665-3.816-2.231.518-1.085.592-1.652-.874-1.267-.8-1.833,5.926-.383,6-.95-4.37-1.72-4.297-2.287,9.416.061,9.489-.506.648-1.074.721-1.64-9.276-2.344-9.204-2.911,6.633-.307,6.705-.874.55-1.086.622-1.652-2.416-1.462-2.344-2.028-4.105-1.672-4.033-2.239,1.45-.97,1.521-1.537,7.124-.262,7.195-.828c.071-.569-7.648-2.11-7.578-2.676.071-.569,4.846-.551,4.916-1.117.071-.569,2.596-.834,2.666-1.4.07-.569-2.669-1.485-2.6-2.051.07-.569-.503-1.216-.434-1.782.07-.569,4.917-.554,4.986-1.12.069-.569,1.079-1.025,1.148-1.591.069-.569-10.107-2.379-10.038-2.945.069-.57,5.879-.443,5.947-1.009.069-.57,3.29-.76,3.358-1.326.068-.57-5.419-1.802-5.352-2.367.068-.57-1.046-1.277-.979-1.842.068-.57,6.859-.342,6.926-.908.067-.57-8.008-2.095-7.942-2.66.067-.57,4.184-.662,4.25-1.227.066-.57-5.76-1.821-5.695-2.386.066-.57.908-1.044.973-1.608.066-.57.47-1.095.535-1.659.065-.57-.427-1.197-.362-1.761.065-.57,3.22-.784,3.284-1.348.064-.57,3.696-.735,3.759-1.299.064-.57-7.03-1.936-6.967-2.5.064-.57,8.303-.227,8.365-.79.063-.57-6.755-1.895-6.693-2.458.063-.57-.349-1.184-.288-1.747.062-.57-.461-1.195-.4-1.758.062-.57,5.393-.567,5.453-1.13.061-.57,5.998-.514,6.058-1.076.06-.57-.552-1.213-.493-1.775.06-.571-.604-1.218-.546-1.779.059-.571-9.962-2.176-9.905-2.738.059-.572,3.218-.817,3.275-1.378.058-.572,2.184-.929,2.24-1.49.057-.573,5.227-.636,5.282-1.197.056-.573.624-1.098.678-1.659.056-.574-8.307-1.951-8.254-2.511.055-.574,6.852-.505,6.905-1.065.054-.574-1.897-1.331-1.846-1.891.053-.575-2.266-1.357-2.216-1.916.051-.575,5.646-.658,5.694-1.216.05-.577-8.964-1.92-8.917-2.478.049-.578,6.854-.583,6.899-1.141.047-.58-1.311-1.265-1.268-1.821.045-.581,1.373-1.057,1.414-1.612.043-.582,1.797-1.04,1.835-1.593.041-.583-6.963-1.624-6.928-2.175.038-.586-.486-1.166-.454-1.714.034-.591,6.254-.823,6.281-1.369.029-.595,1.571-1.132,1.592-1.672.023-.602-8.897-1.437-8.885-1.968.014-.614,8.247-1.074,8.246-1.591,0-.584-8.218-1.113-8.223-1.685-.005-.584,8.575-1.267,8.566-1.839-.01-.584-2.719-1.126-2.734-1.698-.015-.584-.222-1.165-.242-1.737-.02-.584,4.591-1.375,4.565-1.947-.026-.584-4.855-.956-4.887-1.527-.032-.584-2.99-.972-3.029-1.542-.039-.584-2.592-.929-2.638-1.498-.047-.583-.593-1.043-.647-1.611-.055-.582.073-1.094.01-1.661-.064-.582,7.161-2.001,7.088-2.567-.074-.581-5.196-.452-5.279-1.016-.085-.579,5.54-2.054,5.445-2.615-.098-.578,1.418-1.527,1.31-2.086-.111-.576-2.937-.667-3.06-1.224-.126-.573-4.192-.209-4.33-.762-.142-.569-1.118-.822-1.273-1.37-.16-.565,6.67-3.247,6.496-3.789-.179-.558-5.699.659-5.894.124-.2-.551,4.996-3.249,4.779-3.775-.223-.541.607-1.79.366-2.306-.247-.53-7.914,2.55-8.18,2.046-.273-.516-.241-1.046-.535-1.535-.3-.5-1.356-.318-1.678-.791-.328-.48,5.809-5.725,5.458-6.178-.356-.458-5.009,2.479-5.39,2.049-.383-.433-1.65.086-2.059-.319s-2.242,1.015-2.677.636,2.261-4.413,1.801-4.764c-.456-.348-3.084,2.48-3.566,2.157-.475-.317,1.261-4.043.759-4.336-.492-.288-1.987,1.259-2.505.993-.507-.26.998-4.863.465-5.102-.52-.233-3.469,5.228-4.013,5.014-.529-.208-.449-1.866-1.002-2.056-.539-.185-1.906,2.507-2.468,2.338-.545-.163,1.527-9.828.96-9.976-.552-.144-3.451,9.379-4.005,9.259-.557-.121-.493-2.818-1.052-2.916-.561-.098-.529-4.225-1.091-4.299s-1.471,2.394-2.036,2.342-.928-4.304-1.495-4.332-1.361,4.9-1.928,4.895-1.07,1.36-1.637,1.378-1.111-.709-1.677-.668-1.063.284-1.626.348-.939.988-1.5,1.075-2.431-6.883-2.987-6.772,1.027,9.946.475,10.079-2.437-5.136-2.983-4.979-.478,2.24-1.016,2.419-.704,1.173-1.235,1.375-3.479-5.461-4.001-5.236-1.045.849-1.557,1.096-1.46.024-1.96.293-.869,1.133-1.357,1.424,3.771,8.087,3.297,8.4-2.057-1.296-2.516-.962-4.561-4.096-5.004-3.741-.879.94-1.306,1.316,5.013,7.005,4.605,7.401-5.295-3.778-5.684-3.363,2.854,3.962,2.486,4.396-5.096-2.729-5.442-2.278-4.07-1.333-4.393-.864,8.865,7.162,8.565,7.647c-.298.482-6.913-2.844-7.188-2.345-.274.496-4.331-.754-4.581-.241-.248.509,4.816,3.613,4.591,4.138-.222.52-.59.991-.788,1.527-.196.531,4.519,2.616,4.348,3.162-.169.539.099.947-.045,1.501-.13.499.146,1.259-.022,1.865-.143.514-5.279-.313-5.448.274-.15.522-5.121-.342-5.291.235-.155.527,2.788,1.986,2.617,2.557-.159.53,6.149,3.039,5.977,3.606-.162.533-6.964-.936-7.136-.373-.164.535-.668.976-.842,1.537-.166.536,5.297,2.834,5.123,3.393-.167.537-2.239.497-2.414,1.054-.168.538-7.657-1.215-7.832-.659-.169.538,3.182,2.191,3.007,2.746-.17.539-.909.903-1.084,1.457-.171.539,1.616,1.707,1.44,2.26-.172.54,4.075,2.498,3.898,3.05-.173.54-8.195-1.426-8.371-.875-.173.54,6.216,3.193,6.039,3.743-.174.541-2.301.459-2.479,1.009-.174.541,4.172,2.548,3.995,3.097-.175.541-7.185-1.121-7.362-.572-.175.541,3.209,2.241,3.031,2.79-.176.542.621,1.405.443,1.953-.176.542-7.399-1.204-7.577-.656-.176.542-.143,1.154-.322,1.702-.177.542,1.459,1.678,1.281,2.226-.177.543,4.431,2.652,4.252,3.199-.177.543-.268,1.118-.448,1.665-.177.541-.325,1.095-.504,1.639-.177.541-3.312.115-3.491.66-.178.542,1.368,1.651,1.189,2.196-.178.542-7.06-1.119-7.239-.574s3.573,2.379,3.394,2.924,3.321,2.299,3.141,2.844-1.347.762-1.527,1.307,1.294,1.634,1.114,2.179-3.547.033-3.727.577,1.087,1.566.907,2.11,3.486,2.363,3.306,2.907-10.77-2.359-10.951-1.815,1.576,1.732,1.395,2.277-2.332.436-2.513.981,3.353,2.325,3.172,2.87,2.297,1.976,2.115,2.522,3.119,2.249,2.938,2.794-10.627-2.325-10.808-1.78,2.855,2.162,2.673,2.706,2.307,1.981,2.126,2.525,4.331,2.658,4.149,3.202-10.611-2.327-10.793-1.783c-.182.547,7.377,3.676,7.196,4.22-.183.547-5.668-.679-5.849-.136-.183.547-2.36.425-2.541.968-.183.547,8.234,3.968,8.053,4.511-.183.547-7.871-1.419-8.053-.876-.183.547-.203,1.146-.385,1.689-.183.547-.908.91-1.09,1.452-.183.548,7.848,3.845,7.666,4.387-.184.548-2.657.325-2.839.866-.184.548-.341,1.101-.523,1.642-.184.548-8.011-1.474-8.192-.933-.184.548,9.926,4.548,9.745,5.088-.184.548-10.28-2.238-10.461-1.699-.184.548,5.541,3.077,5.36,3.616-.184.549.254,1.302.073,1.84-.185.549-7.084-1.167-7.265-.628-.185.55,6.51,3.409,6.329,3.947-.185.551-4.373-.253-4.553.284-.186.552-.086,1.191-.267,1.728-.186.552-2.717.305-2.898.841-.186.553,6.164,3.3,5.984,3.835-.187.554-1.618.677-1.798,1.211-.187.555,2.931,2.213,2.752,2.745-.188.556-6.058-.821-6.236-.291-.189.558-1.312.784-1.49,1.312-.19.561,4.113,2.621,3.935,3.146-.191.564-.901.929-1.077,1.45-.193.57,3.541,2.441,3.366,2.958-.196.578-6.484-.944-6.656-.436-.2.592-1.255.839-1.421,1.33-.213.629-.869,1.012-1.023,1.466-.358,1.057,4.685,2.951,4.685,2.951.162-.843-8.705-2.273-8.494-3.375.09-.47,6.814.231,6.938-.422.097-.509-1.614-1.419-1.497-2.035.1-.525,1.493-.843,1.607-1.442.101-.534-5.474-2.174-5.362-2.765.102-.541,9.878.726,9.989.14.103-.545.117-1.127.227-1.71.103-.547-8.596-2.772-8.487-3.352.104-.549-.953-1.33-.844-1.908.104-.551,10.72.862,10.828.287.104-.552-3.8-1.869-3.693-2.444.104-.553-4.61-2.02-4.502-2.593.104-.554,2.917-.61,3.024-1.183.104-.555,4.975-.228,5.082-.8.104-.556-5.208-2.131-5.101-2.702.104-.557-.262-1.207-.156-1.778.104-.557-2.823-1.684-2.717-2.254.104-.558,9.346.577,9.452.007.103-.557-.612-1.273-.507-1.841.103-.558-2.774-1.673-2.669-2.241.103-.558.62-1.045.725-1.612.103-.558,5.031-.231,5.136-.798.103-.559-3.649-1.834-3.544-2.401.103-.559-5.434-2.161-5.33-2.728.103-.56,4.989-.243,5.093-.81.103-.56.676-1.037.78-1.604.103-.56-4.731-2.028-4.627-2.595.103-.561,7.394.192,7.498-.375.103-.561-8.609-2.735-8.505-3.302.102-.561,3.998-.432,4.102-.999.102-.561-.273-1.212-.17-1.778.102-.562-2.945-1.697-2.842-2.264.102-.562,1.808-.834,1.911-1.4.102-.562,9.712.596,9.814.03.102-.562-1.577-1.451-1.475-2.017.102-.563-1.433-1.424-1.331-1.99.102-.563,1.531-.889,1.633-1.455.101-.563-6.577-2.348-6.475-2.914.101-.563,7.672.214,7.774-.353.101-.562-7.344-2.478-7.243-3.043s.27-1.112.371-1.677,7.512.18,7.613-.385-4.44-1.955-4.339-2.52-4.428-1.95-4.328-2.515,2.583-.703,2.683-1.268,2.503-.719,2.604-1.285,2.154-.783,2.254-1.349,2.113-.793,2.212-1.358-4.391-1.938-4.292-2.504,1.377-.921,1.477-1.486,2.537-.72,2.636-1.286-4.093-1.88-3.994-2.446,5.231-.254,5.329-.82,2.316-.765,2.414-1.331-7.48-2.465-7.382-3.031,4.878-.323,4.976-.89,3.496-.567,3.593-1.133-10.703-3.01-10.606-3.577,9.164.404,9.262-.163,2.385-.764,2.482-1.331-6.228-2.23-6.132-2.797,4.913-.333,5.009-.899-1.254-1.381-1.158-1.948-1.657-1.448-1.562-2.014-2.581-1.601-2.486-2.168,3.001-.664,3.096-1.23.777-1.038.871-1.605,2.62-.733,2.714-1.3-3.487-1.746-3.394-2.313,2.96-.68,3.053-1.246-6.79-2.282-6.697-2.848c.093-.569,3.995-.512,4.087-1.079.093-.569,5.69-.243,5.782-.809.092-.569-8.677-2.573-8.585-3.139.092-.57,9.472.358,9.563-.208.092-.57-10.115-2.788-10.025-3.354.091-.57,8.371.168,8.461-.398.091-.57-2.008-1.487-1.919-2.052.09-.57,2.166-.828,2.255-1.393.089-.57-3.415-1.702-3.327-2.267.089-.571,1.452-.941,1.539-1.506.088-.571-6.58-2.177-6.493-2.742.088-.571,5.557-.312,5.643-.877.087-.571,1.862-.883,1.947-1.448.086-.571,2.038-.861,2.122-1.426.085-.571-.849-1.295-.765-1.858.085-.572.132-1.148.215-1.712.084-.572-6.911-2.17-6.829-2.733.083-.573-.23-1.189-.149-1.753.082-.574,10.323.303,10.403-.261.081-.574-3.888-1.716-3.81-2.28.08-.575-.651-1.256-.574-1.82.079-.575,4.487-.562,4.563-1.125.077-.576-7.771-2.201-7.697-2.764.076-.576-.359-1.201-.286-1.763.074-.578,5.62-.446,5.69-1.008.073-.578-5.093-1.791-5.024-2.352.071-.579.416-1.1.482-1.661.069-.581-.625-1.221-.561-1.782.066-.583-.232-1.17-.171-1.729.063-.584,1.571-.978,1.628-1.536.06-.585-2.272-1.359-2.219-1.915.056-.587,4.824-.7,4.872-1.254.051-.591-.153-1.17-.111-1.721.045-.597-1.673-1.259-1.639-1.808.037-.602-.093-1.121-.07-1.664.026-.611,1.07-1.075,1.077-1.607.009-.627,3.242-1.204,3.224-1.716-.02-.57,2.657-1.332,2.622-1.889-.036-.569-7.83-.522-7.882-1.078-.052-.567,6.107-1.769,6.039-2.323-.069-.565,2.109-1.543,2.024-2.095-.087-.563-.656-1.179-.76-1.727-.106-.559-.318-1.231-.441-1.776-.125-.555-.29-1.24-.432-1.78-.144-.55-4.302-.034-4.464-.568-.165-.544,4.361-2.695,4.178-3.223-.186-.537-9.035,2.109-9.238,1.588-.207-.529,5.052-3.252,4.827-3.765-.228-.52-.992-.842-1.239-1.345-.25-.51,3.228-3.092,2.96-3.584-.271-.498-4.479,1.117-4.769.638-.293-.485-.69-.937-1.001-1.403-.314-.471-5.276,2.441-5.608,1.989-.335-.456,7.075-6.865,6.722-7.302-.355-.44-7.363,4.735-7.736,4.315-.375-.422-.767-.57-1.159-.973s5.665-7.4,5.255-7.785-4.406,3.06-4.833,2.694,2.493-4.997,2.049-5.344-3.702,2.851-4.16,2.523-.232-1.761-.705-2.069c-.471-.307-1.6.325-2.085.037s-2.117,1.477-2.613,1.209.515-3.481.008-3.729c-.505-.247.395-3.848-.121-4.077-.513-.227-4.014,6.475-4.539,6.266-.521-.208-.394-2.02-.926-2.211-.528-.189-.932-.747-1.47-.919-.535-.17-.231-3.343-.775-3.496-.54-.152-1.303.145-1.852.009-.545-.135-1.137-.482-1.69-.6-.549-.117-1.568,1.828-2.125,1.726-.564-.103-.318-4.878-.878-4.976-.565-.098-2.093,5.343-2.653,5.251-.566-.093-.872-1.879-1.433-1.964-.568-.086-1.543,2.639-2.105,2.562-.569-.078-1.555,3.534-2.118,3.466-.571-.068-1.033-.188-1.597-.244-.572-.056-.252-10.567-.817-10.609-.574-.042-1.668,7.824-2.235,7.798-.575-.027-.977-6.963-1.543-6.971-.575-.008-1.307.47-1.874.483-.575.013-1.156,2.643-1.722,2.678-.573.036-1.335-.99-1.899-.928-.571.062-.805,3.08-1.366,3.17-.566.091-1.822-3.047-2.377-2.925-.559.122.343,6.1-.205,6.255s-2.394-3.917-2.932-3.727-1.58-.528-2.105-.301c-.521.225,1.862,6.461,1.352,6.724-.503.26-.378,1.005-.869,1.304-.482.294-6.596-7.904-7.066-7.57-.459.326,1.056,3.655.609,4.021-.435.356-2.292-.627-2.715-.232-.41.382-1.45.501-1.849.922-.386.407,4.799,5.874,4.424,6.317-.362.428-4.344-2.084-4.696-1.621-.339.446.809,2.019.48,2.499-.317.461-2.381-.165-2.688.329-.296.474,1.755,2.38,1.468,2.885-.277.486-5.463-1.61-5.731-1.094-.259.497,2.978,2.854,2.726,3.379-.242.505-2.108.327-2.343.858-.227.514,7.28,4.277,7.06,4.816-.213.52-2.452.121-2.659.665-.185.488-9.397-2.182-9.594-1.603-.172.506,6.99,3.504,6.808,4.077-.164.518-3.724.017-3.895.587-.157.524.917,1.444.755,2.011-.151.529-4.55-.093-4.706.472-.147.533,3.029,2.01,2.877,2.574-.144.535,3.519,2.089,3.372,2.652-.141.538.524,1.28.381,1.842-.138.54.701,1.319.56,1.881-.136.542-9.9-1.296-10.038-.735-.134.543.752,1.363.616,1.924-.132.544,5.001,2.37,4.867,2.931-.13.546,1.629,1.542,1.497,2.102-.129.547-4.95-.001-5.08.559-.128.547-2.018.7-2.147,1.26-.126.548,1.489,1.508,1.361,2.068-.125.549,5.625,2.435,5.499,2.995-.124.55-.569,1.025-.694,1.585-.123.55-.044,1.144-.168,1.703-.122.549.295,1.215.172,1.773-.121.55-7.776-.551-7.898.008-.12.55,5.88,2.439,5.759,2.997-.12.551-7.615-.49-7.735.069-.119.551,6.125,2.477,6.006,3.035-.118.552,2.995,1.793,2.876,2.352-.118.552-7.756-.492-7.874.067-.117.553-1.082.933-1.2,1.491-.117.553,7.246,2.681,7.129,3.239-.116.554-9.188-.763-9.305-.204-.116.554,9.11,3.054,8.994,3.613-.115.554-9.639-.838-9.755-.279-.115.555,4.902,2.171,4.787,2.73-.114.555-4.544.228-4.659.786-.114.555,8.795,2.956,8.681,3.515-.113.556-9.327-.74-9.441-.181-.113.556-.533,1.054-.647,1.613-.113.556,4.985,2.168,4.872,2.727s2.872,1.736,2.76,2.295-3.068.542-3.18,1.101c-.111.555,2.153,1.585,2.042,2.143s-.07,1.14-.181,1.698-4.851.193-4.962.751-.69,1.022-.8,1.58.301,1.218.191,1.776-2.77.614-2.88,1.173,5.553,2.249,5.443,2.807-.064,1.145-.173,1.704-7.567-.318-7.676.24,4.007,1.94,3.898,2.499-4.668.255-4.776.814-.309,1.103-.417,1.663,9.297,2.957,9.189,3.517-8.642-.504-8.749.056-1.778.823-1.885,1.383,4.395,2.007,4.288,2.568,1.538,1.456,1.431,2.016-1.206.931-1.313,1.491-3.112.57-3.218,1.13,7.691,2.624,7.585,3.184-6.942-.155-7.048.405-3.312.537-3.418,1.097,2.424,1.622,2.319,2.182,2.197,1.577,2.092,2.137,3.869,1.89,3.764,2.45-5.763.08-5.868.64,5.649,2.221,5.544,2.781-.203,1.124-.307,1.684-.011,1.16-.115,1.719c-.105.563-3.286.549-3.39,1.109-.105.563-.995.978-1.099,1.537-.105.563-5.28.183-5.384.742-.105.563-1.221.938-1.324,1.498-.104.563,4.979,2.086,4.875,2.645-.104.563-3.065.597-3.169,1.156-.104.564,3.546,1.818,3.443,2.377-.104.564-1.95.804-2.053,1.363-.104.564,2.716,1.662,2.613,2.221-.104.564-5.784.101-5.886.66-.103.564-2.157.769-2.259,1.327-.103.564,10.477,3.081,10.375,3.639-.103.564-5.156.22-5.258.778-.103.564,2.37,1.595,2.269,2.152-.103.564-6.584-.037-6.686.52-.103.565,1.302,1.4,1.201,1.957-.103.565,7.145,2.46,7.044,3.016-.102.565-2.546.699-2.647,1.255-.102.565-6.181.043-6.282.598-.102.565-.686,1.039-.786,1.593-.102.565,4.233,1.926,4.133,2.48-.102.565,2.051,1.53,1.951,2.084-.102.566-6.87-.074-6.969.48-.102.567,1.907,1.507,1.808,2.06-.102.568,1.859,1.498,1.76,2.051-.102.569,4.832,2.03,4.733,2.582-.102.569-4.752.315-4.85.867-.102.57,3.239,1.745,3.141,2.295-.102.571.207,1.203.109,1.752-.102.572-.431,1.09-.528,1.637-.102.573-4.915.294-5.011.839-.102.576,2.394,1.596,2.297,2.139-.103.579,2.308,1.582,2.212,2.123-.103.582.45,1.254.355,1.791-.104.589-3.05.646-3.143,1.178-.105.597,1.853,1.518,1.761,2.041-.107.61-7.875-.178-7.963.327-.114.649-3.247.68-3.328,1.147-.191,1.093,7.47,2.833,7.47,2.833.062-.849-6.873-1.092-6.793-2.201.034-.473,5-.684,5.047-1.342.037-.513.843-1.025.887-1.645.038-.529-4.748-1.443-4.705-2.046.039-.539,1.006-1.039,1.048-1.635.039-.545.091-1.112.133-1.703.039-.548,1.93-.984,1.972-1.571.039-.551-2.077-1.271-2.036-1.855.039-.553,6.932-.637,6.973-1.218.039-.555-8.869-1.752-8.829-2.332.039-.556-.148-1.138-.107-1.717.039-.557,1.736-1.008,1.777-1.585.039-.558,7.512-.607,7.553-1.183.039-.559-3.866-1.402-3.826-1.978.039-.56,3.396-.897,3.436-1.473.039-.561-6.834-1.607-6.794-2.181.039-.561-.216-1.148-.177-1.723.039-.562,8.8-.529,8.839-1.103.039-.562-6.697-1.595-6.658-2.169.039-.563,3.582-.891,3.621-1.464.038-.562,1.316-1.044,1.355-1.615.038-.562-7.917-1.673-7.878-2.244.038-.563,9.162-.512,9.201-1.083.038-.563.37-1.111.408-1.682.038-.563-5.2-1.487-5.161-2.057.038-.564.942-1.072.98-1.643.038-.564-3.041-1.34-3.002-1.91.038-.564,3.727-.887,3.765-1.457.038-.565,2.182-.992,2.22-1.562.038-.565-1.24-1.22-1.202-1.79.037-.565,5.414-.78,5.451-1.35.037-.565-6.322-1.556-6.284-2.126.037-.566,2.495-.974,2.532-1.544.037-.566-2.507-1.303-2.47-1.873.037-.566,2.273-.99,2.31-1.56.037-.566-2.111-1.277-2.074-1.847.037-.566,6.178-.739,6.214-1.309.037-.567-9.747-1.77-9.711-2.34.037-.567,6.495-.721,6.532-1.291s-3.393-1.358-3.357-1.928c.036-.566.036-1.134.073-1.702s7.099-.686,7.135-1.254-.989-1.202-.953-1.771-.551-1.174-.515-1.743-8.176-1.654-8.14-2.222,2.14-1.004,2.176-1.573-3.272-1.343-3.236-1.912,2.16-1.005,2.195-1.574.289-1.122.324-1.691-1.422-1.226-1.387-1.795,3.893-.901,3.928-1.47-1.523-1.234-1.489-1.803,4.132-.891,4.166-1.461-3.787-1.371-3.753-1.941-2.041-1.265-2.007-1.835,6.689-.744,6.723-1.314-4.884-1.435-4.85-2.005,8.144-.665,8.178-1.236-.599-1.181-.566-1.75-1.41-1.228-1.377-1.797-6.906-1.544-6.873-2.114,6.62-.763,6.652-1.333-.614-1.181-.582-1.75,1.846-1.041,1.878-1.611.488-1.119.519-1.689,1.11-1.085,1.141-1.655-1.664-1.24-1.632-1.809-.072-1.151-.041-1.72-6.464-1.498-6.433-2.067,4.559-.899,4.59-1.468,1.16-1.085,1.19-1.654c.03-.572-3.513-1.332-3.483-1.901.03-.572-.24-1.158-.21-1.726.03-.572,3.085-.986,3.114-1.555.029-.572-5.395-1.421-5.366-1.99.029-.573.083-1.139.111-1.708.029-.573-.46-1.166-.432-1.734.028-.573,8.521-.726,8.549-1.294.028-.573-7.894-1.529-7.866-2.097.028-.573,8.63-.734,8.657-1.302.027-.573.775-1.113.801-1.681.027-.573-2.411-1.26-2.385-1.827.026-.573-8.147-1.513-8.122-2.08.026-.573,1.03-1.095,1.055-1.662.025-.573.552-1.117.577-1.683.025-.573,8.85-.771,8.874-1.337.024-.574-6.64-1.421-6.617-1.986.023-.574,3.468-1.006,3.49-1.571.023-.574,3.09-1.029,3.111-1.594.022-.574-2.618-1.248-2.597-1.812.021-.575,2.165-1.073,2.185-1.637.02-.575-1.924-1.218-1.905-1.782.019-.576-.45-1.166-.432-1.729.018-.577-5.875-1.327-5.858-1.89.017-.577.129-1.136.145-1.699.016-.578,5.163-1.008,5.178-1.57.015-.579-4.834-1.262-4.822-1.823.013-.579,1.955-1.1,1.966-1.659.011-.58,2.783-1.098,2.792-1.656.009-.581-1.224-1.169-1.217-1.727.007-.584,1.248-1.143,1.252-1.7.005-.586-4.42-1.172-4.419-1.727.001-.588,1.333-1.141,1.331-1.694-.003-.59-1.116-1.127-1.123-1.675-.008-.595,5.509-1.261,5.496-1.804-.015-.6-3.071-1.083-3.092-1.618-.024-.611,6.683-1.595,6.65-2.117-.041-.636-.195-1.471-.25-1.968-.079-.704-5.818-.668-5.927-1.076-.141-.528,5.184-2.512,5.035-3.08-.14-.532-6.712.609-6.861.046-.142-.535-5.313.288-5.465-.271-.146-.536,3.604-2.123,3.447-2.679-.152-.537,7.05-3.237,6.886-3.789-.159-.537-4.513.14-4.685-.408-.168-.536-5.641.661-5.821.117-.177-.534-.757-.842-.949-1.381-.188-.531,9.263-4.617,9.06-5.152-.2-.527-.832-1.03-1.047-1.559-.213-.523-9.838,2.929-10.067,2.407-.227-.518.441-1.304.197-1.819-.242-.512,1.627-1.965,1.367-2.473-.258-.504,1.399-2.008,1.122-2.506s-3.77.933-4.064.446,2.802-3.049,2.489-3.524,2.11-2.95,1.778-3.413-.56-1.233-.912-1.68-4.139,1.821-4.513,1.391c-.371-.428-3.542,1.826-3.937,1.415-.392-.409,3.219-4.783,2.804-5.174-.412-.388-4.151,3.014-4.587,2.646-.432-.364-1.082-.146-1.538-.489-.451-.34,4.371-8.182,3.896-8.5-.469-.313-3.547,3.192-4.04,2.902-.485-.286-.969-.679-1.479-.942-.5-.257-.728-1.263-1.253-1.497-.513-.228-3.113,4.757-3.651,4.553-.524-.199-.16-2.506-.708-2.681-.534-.17-1.699,2.37-2.256,2.224-.542-.142-.292-3.025-.857-3.143-.549-.115-.813-1.589-1.383-1.68-.552-.089-.708-3.656-1.281-3.722-.557-.064-1.702,5.913-2.279,5.871-.559-.04-1.07,1.474-1.648,1.455-.572-.018-1.013-2.517-1.574-2.52-.572-.003-1.14-2.245-1.7-2.233-.572.013-.921,4.619-1.481,4.647-.571.029-1.448-5.344-2.007-5.299-.57.046-1.144.375-1.701.436-.568.063-1.21-.189-1.765-.11-.566.081-.906,1.67-1.458,1.767-.562.099-.358,3.776-.907,3.892-.559.118-3.007-7.935-3.551-7.8-.554.138.877,7.772.338,7.927-.548.157-.32,2.298-.853,2.473-.542.178-3.235-6.034-3.761-5.839-.535.198-2.009-1.719-2.527-1.503-.527.219-1.252.366-1.761.602-.517.24,1.577,5.909,1.077,6.166-.507.261.656,3.286.167,3.564-.495.281-2.117-1.662-2.593-1.364-.483.302-1.593-.522-2.057-.205-.469.322-3.095-2.335-3.545-1.998-.455.341-2.433-1.021-2.867-.664-.439.361-.077,1.909-.496,2.285-.423.379,2.219,4.082,1.817,4.475-.406.397-3.62-1.917-4.004-1.506-.388.415,3.303,4.468,2.937,4.896-.369.431-4.392-2.164-4.739-1.72-.35.447-3.998-1.368-4.326-.91-.33.461,8.287,7.057,7.979,7.529-.31.475-7.526-3.388-7.813-2.903-.289.488-.059,1.408-.324,1.905-.267.5,3.522,3.071,3.277,3.579-.246.511-1.053.687-1.275,1.205-.224.521-4.938-.726-5.138-.199-.201.53-2.25.603-2.427,1.138-.178.538,1.404,1.816,1.249,2.358-.155.545,2.922,2.018,2.791,2.566-.132.551,3.527,1.846,3.419,2.399-.108.556-1.207.802-1.29,1.359-.068.456,1.627,1.115,1.553,1.785-.056.507-9.269.136-9.328.76-.05.527,10.626,2.058,10.574,2.664-.046.538-10.696.226-10.744.824-.043.544,8.032,1.744,7.987,2.336-.041.548-1.272,1.019-1.314,1.606-.04.551-2.648.935-2.688,1.52-.038.553-3.981.86-4.02,1.443-.037.555,6.401,1.553,6.363,2.134-.036.557-.882,1.07-.919,1.65-.035.558-3.642.903-3.678,1.482-.035.559-2.863.961-2.898,1.538-.034.56,2.464,1.285,2.429,1.862-.033.561.718,1.178.685,1.755-.033.562-3.365.941-3.398,1.517-.032.562-.261,1.124-.294,1.7-.032.563,5.032,1.422,4.999,1.997-.032.563,3.2,1.314,3.168,1.889-.031.564-4.028.913-4.059,1.488-.031.564-4.611.887-4.642,1.461-.031.565,5.374,1.429,5.344,2.003-.03.565,4.731,1.389,4.701,1.963-.03.565-10.692.572-10.722,1.145-.03.566,7.628,1.54,7.598,2.113-.029.564-6.434.8-6.464,1.372-.029.564,2.069,1.244,2.039,1.815-.029.565,5.264,1.406,5.235,1.977-.029.565,2.332,1.253,2.303,1.825-.029.565-7.648.75-7.677,1.321-.028.566,5.534,1.415,5.505,1.986-.028.566-8.345.721-8.373,1.293-.028.566,6.928,1.482,6.9,2.053-.028.567-6.821.802-6.849,1.374-.028.567,7.453,1.504,7.425,2.075-.028.567-2.1,1.036-2.128,1.607-.028.567-6.405.829-6.433,1.4-.027.567,2.602,1.266,2.575,1.837-.027.568-1.559,1.066-1.586,1.637-.027.568-.337,1.125-.364,1.696-.027.568,4.3,1.345,4.273,1.916s-.165,1.133-.192,1.704,6.075,1.426,6.048,1.997-6.557.833-6.584,1.404.838,1.18.812,1.751c-.026.567,1.709,1.218,1.682,1.787s-1.383,1.075-1.41,1.644-5.934.866-5.96,1.436,1.674,1.218,1.647,1.788-.187,1.132-.213,1.702-.086,1.138-.112,1.708-.509,1.119-.535,1.689.705,1.174.679,1.745,2.041,1.234,2.015,1.803,6.423,1.431,6.398,2.001-.651,1.113-.677,1.683-9.941.698-9.967,1.269,3.248,1.29,3.222,1.861,4.525,1.346,4.499,1.918-4.251.957-4.276,1.528,1.529,1.212,1.504,1.783-2.602,1.03-2.628,1.601,2.736,1.266,2.711,1.837,4.896,1.36,4.871,1.931-2.682,1.028-2.707,1.599-.269,1.134-.294,1.705-6.597.859-6.622,1.43,8.021,1.495,7.996,2.066-7.794.809-7.819,1.38-.469,1.127-.494,1.698,10.196,1.587,10.172,2.158.015,1.147-.009,1.718-1.94,1.063-1.965,1.634-8.156.798-8.18,1.369,4.196,1.327,4.172,1.898-3.625.993-3.649,1.564c-.024.574,4.945,1.358,4.921,1.929-.024.574-3.252,1.01-3.276,1.58-.024.574,4.607,1.343,4.583,1.913-.024.574-9.018.767-9.042,1.337-.024.574,9.364,1.543,9.34,2.113-.024.574-1.281,1.094-1.305,1.664-.024.574-.853,1.112-.877,1.682-.024.574,1.075,1.193,1.051,1.763-.024.574-7.809.821-7.833,1.391-.024.574,2.429,1.25,2.405,1.819-.024.574.168,1.155.145,1.724-.024.575.11,1.153.087,1.722-.024.575.674,1.176.65,1.745-.024.575,5.646,1.382,5.622,1.95-.024.575-4.712.953-4.736,1.521-.024.575-5.226.932-5.249,1.5-.024.575,9.281,1.53,9.258,2.097-.024.575,1.638,1.215,1.615,1.781-.024.575-3.161,1.017-3.185,1.584-.024.575-1.132,1.101-1.155,1.667-.024.575,1.515,1.209,1.492,1.774-.024.575-8.393.805-8.416,1.369-.023.575,8.801,1.506,8.778,2.069-.023.575-7.517.841-7.54,1.404-.023.576,7.428,1.449,7.405,2.012-.023.577-.358,1.134-.381,1.697-.023.578-6.369.892-6.392,1.455-.023.579,2.859,1.266,2.836,1.828-.023.579-.602,1.128-.625,1.689-.023.58-1.215,1.104-1.238,1.664-.023.581,5.373,1.369,5.351,1.927-.023.582-.326,1.14-.348,1.697-.023.583-7.596.851-7.618,1.405-.023.586,4.487,1.336,4.465,1.889-.023.589-4.074.998-4.096,1.548-.024.592,4.943,1.359,4.921,1.904-.024.599-.425,1.154-.446,1.695-.024.607,4.229,1.345,4.208,1.877-.024.621.427,1.207.407,1.721-.026.66-9.639.854-9.657,1.328-.044,1.112-.549,1.847-.549,1.847.005-.858,8.371-.556,8.374-1.678.001-.477-4.834-1.063-4.833-1.725,0-.518,1.68-1.088,1.681-1.713,0-.533,5.074-1.106,5.074-1.715,0-.543-1.403-1.117-1.404-1.717,0-.549-9.53-1.106-9.531-1.701-.001-.553.852-1.124.851-1.715-.001-.556,10.166-1.159,10.164-1.748-.002-.558-6.288-1.108-6.29-1.694-.002-.559-.34-1.129-.343-1.714-.003-.561,6.587-1.168,6.584-1.751-.003-.562-1.582-1.128-1.586-1.71-.003-.563-3.556-1.113-3.56-1.694-.004-.564-4.518-1.102-4.523-1.682-.004-.564,8.824-1.206,8.819-1.785-.005-.565-.148-1.139-.153-1.718-.005-.566-8.28-1.062-8.285-1.64-.005-.565,9.16-1.227,9.154-1.804-.006-.566-5.201-1.084-5.207-1.66-.006-.566-4.994-1.08-5.001-1.656-.007-.566,6.418-1.213,6.411-1.789-.007-.567,3.931-1.19,3.924-1.766-.007-.567-2.406-1.11-2.414-1.686-.008-.568-4.673-1.075-4.681-1.65-.008-.568,1.581-1.162,1.573-1.738-.009-.568,3.679-1.198,3.67-1.773-.009-.568,1.893-1.174,1.884-1.749-.009-.569-7.585-1.015-7.595-1.59-.01-.569.604-1.151.594-1.725-.01-.569-1.844-1.107-1.855-1.681-.011-.569,2.471-1.187,2.46-1.762-.011-.57,5.604-1.254,5.593-1.828-.011-.57-7.111-.999-7.123-1.573-.012-.57-1.699-1.105-1.711-1.679-.012-.57,6.893-1.294,6.88-1.868-.013-.57,1.397-1.178,1.384-1.752-.013-.571-7.538-.967-7.551-1.541-.014-.569,3.155-1.216,3.141-1.788s1.936-1.19,1.921-1.762-1.773-1.096-1.788-1.669-4.925-1.008-4.941-1.58-.134-1.135-.151-1.707-.78-1.116-.797-1.689,10.073-1.44,10.055-2.012-2.743-1.064-2.761-1.636-1.718-1.092-1.736-1.664-.426-1.131-.445-1.704-1.559-1.091-1.578-1.663.85-1.172.83-1.744,5.65-1.347,5.63-1.919-8.385-.843-8.406-1.415,2.121-1.224,2.1-1.796-1.492-1.088-1.514-1.661,2.917-1.262,2.894-1.835,4.013-1.315,3.989-1.888-9.604-.747-9.628-1.32,7.643-1.478,7.617-2.051-3.917-.978-3.942-1.551,3.067-1.291,3.041-1.865-7.043-.816-7.07-1.389,4.41-1.358,4.382-1.931.18-1.158.151-1.73,2.872-1.298,2.842-1.87-7.689-.744-7.72-1.316,5.046-1.42,5.015-1.991,5.366-1.454,5.334-2.026-.193-1.149-.226-1.72-.104-1.154-.138-1.725-9.678-.563-9.713-1.135c-.035-.574-1.408-1.054-1.445-1.625-.037-.574,2.682-1.316,2.644-1.887-.038-.574,5.662-1.528,5.623-2.099-.039-.574-7.745-.619-7.784-1.189-.04-.574,6.26-1.591,6.219-2.161-.041-.574-1.83-1.02-1.873-1.59-.043-.574-5.565-.726-5.609-1.296-.044-.574,3.052-1.38,3.007-1.949-.045-.574,3.753-1.453,3.707-2.021-.047-.574,2.827-1.396,2.779-1.964-.048-.574-5.512-.684-5.562-1.252-.05-.574,1.399-1.277,1.347-1.844-.052-.574,4.689-1.594,4.635-2.161-.054-.574-6.41-.549-6.465-1.116-.056-.574,4.25-1.58,4.193-2.146-.058-.574-4.414-.706-4.473-1.272-.06-.574-3.861-.732-3.923-1.297-.063-.574-.486-1.081-.55-1.646-.065-.575,2.267-1.402,2.2-1.967-.068-.575,7.166-2.031,7.096-2.595-.071-.575-3.493-.736-3.566-1.298-.074-.575,3.392-1.629,3.316-2.191-.078-.575-6.249-.308-6.329-.869-.082-.574,3.087-1.618,3.003-2.177-.086-.574-1.471-.95-1.559-1.507-.091-.575-4.335-.45-4.428-1.006-.096-.575-.455-1.055-.554-1.61-.102-.575-1.725-.803-1.83-1.356-.109-.574,1.921-1.498,1.808-2.048-.117-.574,7.926-2.882,7.806-3.428-.127-.573-10.163,1.156-10.293.614-.138-.573,1.838-1.567,1.696-2.103-.152-.573,5.716-2.818,5.56-3.348-.169-.571-7.025,1.007-7.2.488-.192-.569.586-1.286.387-1.79-.223-.564,5.654-3.816,5.422-4.295-.255-.527-1.322-.633-1.566-1.14-.253-.528-5.675,1.428-5.917.92-.252-.529-2.197-.244-2.438-.75-.251-.53,1.134-1.818.894-2.324-.252-.53,4.769-3.568,4.526-4.072-.255-.529.757-1.691.511-2.193-.259-.528-4.264.795-4.516.297-.267-.526-1.6-.474-1.863-.967-.277-.521,3.762-3.448,3.486-3.934-.292-.513-8.795,3.911-9.09,3.437-.311-.5,7.382-6.198,7.063-6.657-.335-.481-1.25-.826-1.6-1.263-.364-.455.429-2.393.041-2.802-.398-.42-3.922,1.976-4.352,1.603-.431-.375-4.225,3.829-4.695,3.499-.463-.324.253-1.833-.255-2.115-.489-.272-1.573,1.449-2.111,1.214-.509-.223.53-3.786-.028-3.977-.523-.179-.932-.551-1.502-.703-.533-.142-.917-.848-1.496-.969-.541-.112-1.088-.223-1.671-.317-.547-.088-1.414,2.381-2.001,2.309-.551-.067-.47-6.273-1.058-6.327-.553-.051-1.615,6.018-2.203,5.979-.555-.037-1.084.245-1.671.218-.556-.026-.846-7.694-1.432-7.712-.557-.017-1.229,2.305-1.815,2.296-.559-.009-1.169,2.739-1.755,2.737-.561-.002-1.11,3.169-1.696,3.173-.56.003-1.186-5.879-1.771-5.871-.563.008-1.191-1.738-1.777-1.726-.564.012-1.025,4.955-1.611,4.971-.551.015-.236,4.37-.819,4.47-.543.093-3.15-9.023-3.717-8.859-.531.154-.319,3.28-.867,3.494-.517.201-1.342-.021-1.871.232-.502.24-.853.987-1.364,1.271-.488.271.466,2.973-.028,3.284-.474.297-.573,1.015-1.05,1.347-.46.32-4.15-3.751-4.613-3.399-.447.339,2.806,5.392,2.358,5.76-.435.357-2.766-1.573-3.2-1.191-.423.372-2.961-1.485-3.382-1.089-.411.386,2.586,4.334,2.178,4.742-.399.399-3.288-1.609-3.684-1.19-.388.411-.531,1.117-.915,1.546-.377.422-2.918-.931-3.29-.492-.366.432-.176,1.459-.537,1.907-.355.442,3.635,4.315,3.286,4.772-.344.451-.198,1.2-.535,1.665-.333.46-6.331-3.052-6.657-2.579-.322.468,3.122,3.524,2.808,4.004-.311.476-.771.855-1.073,1.342-.299.483,3.083,3.128,2.793,3.623-.288.491-3.724-.882-4.003-.38-.276.498,3.143,2.915,2.877,3.423-.264.505-10.033-3.806-10.287-3.291-.252.511,6.16,4.267,5.92,4.787s-3.759-.426-3.986.1-.964.898-1.178,1.429-3.004.167-3.204.704,1.248,1.784,1.062,2.325,7.794,3.744,7.623,4.29-5.869-.625-6.025-.075-3.242.375-3.383.929-1.853.866-1.978,1.424,7.029,2.682,6.921,3.244-2.283.723-2.375,1.287-5.686.408-5.76.975-.025,1.322-.082,1.891,7.707,1.834,7.669,2.405-5.796.869-5.815,1.441,2.532,1.254,2.532,1.827c0,.528.109,1.098.107,1.712-.002.54,4.16,1.134,4.156,1.739-.003.547.84,1.132.836,1.73-.004.551-10.151,1.046-10.156,1.64-.004.554,10.452,1.215,10.446,1.805-.005.556-5.882,1.075-5.887,1.663-.005.558-4.078,1.089-4.084,1.674-.006.56,6.082,1.193,6.076,1.778-.006.561-6.224,1.066-6.23,1.649-.006.562,1.811,1.153,1.805,1.735-.006.563,5.659,1.198,5.653,1.78-.006.564,3.296,1.174,3.289,1.755-.006.564-10.082,1.021-10.089,1.601-.007.565,2.355,1.165,2.348,1.744-.007.566,7.646,1.228,7.639,1.807-.007.566-1.271,1.124-1.277,1.703-.007.566-1.498,1.122-1.505,1.7-.007.567-1.281,1.125-1.288,1.703-.007.567,3.554,1.182,3.547,1.76-.007.568-9.836,1.024-9.843,1.601-.007.568,5.776,1.209,5.77,1.787-.007.568-2.797,1.108-2.803,1.685-.007.568,1.285,1.157,1.279,1.734-.007.569,6.164,1.214,6.157,1.791-.007.567-7.784,1.047-7.791,1.622-.007.567.076,1.14.069,1.714-.007.568,7.165,1.222,7.159,1.797-.007.568-10.267,1.021-10.274,1.596-.007.568,9.417,1.247,9.41,1.822-.006.568-10.141,1.025-10.147,1.6-.006.569,8.663,1.238,8.657,1.812-.006.569-6.139,1.072-6.146,1.647-.006.569,6.775,1.216,6.768,1.79-.006.569-.221,1.138-.227,1.713-.006.569.141,1.143.135,1.717-.006.57-8.503,1.051-8.509,1.625-.006.57.433,1.147.427,1.722-.006.57,4.872,1.193,4.866,1.768-.006.57-3.861,1.103-3.867,1.677-.006.57,6.413,1.208,6.407,1.782-.006.57,1.024,1.153,1.019,1.727-.006.57-7.763,1.066-7.768,1.64-.006.571.69,1.151.685,1.725-.006.571-.522,1.139-.527,1.713-.005.571,4.686,1.188,4.681,1.763-.005.571,4.959,1.189,4.953,1.764-.005.571-2.833,1.117-2.838,1.692-.005.571.846,1.151.84,1.725-.005.571-8.14,1.073-8.145,1.647s2.177,1.164,2.172,1.738-.847,1.138-.851,1.712,6.535,1.199,6.53,1.773-1.63,1.131-1.634,1.705,1.815,1.159,1.81,1.733-1.14,1.136-1.145,1.71c-.004.57-2.07,1.126-2.075,1.699s-.713,1.137-.717,1.71.463,1.146.459,1.719-2.443,1.126-2.447,1.699-1.324,1.135-1.328,1.708,6.069,1.184,6.066,1.757-7.075,1.099-7.078,1.672,2.551,1.16,2.547,1.734-.509,1.142-.513,1.715-2.515,1.131-2.518,1.704,5.909,1.178,5.906,1.751-4.819,1.12-4.821,1.694,1.373,1.153,1.37,1.726.823,1.15.821,1.724.381,1.148.379,1.721,6.358,1.173,6.355,1.746-4.276,1.128-4.278,1.702,3.871,1.158,3.869,1.731-10.918,1.106-10.92,1.68,4.121,1.16,4.119,1.733-.126,1.146-.128,1.719,2.19,1.152,2.189,1.726-4.313,1.136-4.314,1.71,5.742,1.16,5.741,1.733,2.509,1.151,2.508,1.724-5.841,1.138-5.842,1.711-1.871,1.146-1.872,1.72-1.153,1.148-1.154,1.723,9.514,1.155,9.514,1.729.307,1.147.307,1.721-1.422,1.147-1.422,1.721.075,1.148.075,1.722-3.286,1.15-3.285,1.725,3.425,1.145,3.426,1.72-9.424,1.162-9.423,1.736,3.77,1.145,3.771,1.72-3.972,1.159-3.97,1.734,5.956,1.137,5.957,1.712,1.829,1.145,1.831,1.72-6.802,1.172-6.8,1.746,1.52,1.147,1.522,1.721,5.171,1.131,5.173,1.706-4.85,1.171-4.847,1.746,6.803,1.119,6.806,1.694-6.134,1.182-6.131,1.756-1.378,1.16-1.375,1.734-1.931,1.164-1.928,1.739-.014,1.154-.011,1.728,9.723,1.085,9.727,1.66.38,1.146.385,1.721-8.414,1.216-8.409,1.791-1.077,1.162-1.072,1.737,2.502,1.131,2.507,1.706.556,1.147.562,1.722.592,1.146.598,1.721-1.091,1.163-1.085,1.738-2.948,1.185-2.942,1.759,4.591,1.101,4.598,1.675.44,1.146.447,1.72-4.265,1.206-4.258,1.78,8.746,1.036,8.754,1.61.844,1.136.852,1.71-1.827,1.175-1.819,1.748-1.404,1.17-1.396,1.743,1.48,1.126,1.489,1.699-7.05,1.266-7.04,1.839-1.093,1.172-1.083,1.745c.01.576,5.03,1.062,5.041,1.635.011.576,3.064,1.092,3.074,1.664.011.576-6.538,1.277-6.526,1.849.011.575-.125,1.155-.113,1.727.012.575,2.395,1.101,2.407,1.673.012.575,4.536,1.049,4.549,1.621.013.575-4.723,1.256-4.71,1.827.013.575-1.375,1.184-1.361,1.754.014.575.359,1.142.374,1.713.014.575,1.878,1.102,1.893,1.672.015.575-2.66,1.221-2.645,1.791.016.577,1.867,1.104,1.883,1.676.016.577,2.941,1.068,2.958,1.639.017.576-1.376,1.192-1.358,1.763.018.576,5.126.988,5.144,1.558.018.576-2.505,1.226-2.486,1.796.019.575-3.419,1.263-3.4,1.833.02.575,3.89,1.01,3.91,1.579.021.574-1.573,1.202-1.552,1.77.021.575-3.762,1.292-3.74,1.86.022.576,6.71.885,6.733,1.454.023.575.319,1.129.343,1.697.024.574-9.128,1.539-9.103,2.106.025.576,9.48.727,9.506,1.295.026.573-.57,1.163-.543,1.728.027.573-3.506,5.576-3.478,6.14-.857.072,1.249-5.653.777-6.669-.202-.436,1.603-1.927,1.32-2.53-.221-.471-4.575.937-4.843.37-.229-.485,1.656-2.019,1.394-2.57-.234-.491,2.554-2.469,2.294-3.009-.238-.496-4.451.887-4.709.352-.241-.499,2.193-2.32,1.935-2.851-.243-.501-3.645.513-3.903-.016-.245-.502-5.357,1.369-5.615.843-.247-.504,5.948-4.193,5.689-4.717-.249-.504,2.741-2.637,2.481-3.16-.251-.505-10.86,4.141-11.121,3.619-.253-.506,1.563-2.046,1.302-2.566-.254-.506,1.379-1.966,1.117-2.485-.256-.506,5.16-3.899,4.897-4.417-.257-.506-8.305,2.949-8.569,2.433-.259-.506,5.786-4.25,5.521-4.765-.26-.506-2.424-.043-2.69-.558-.261-.506,1.633-2.142,1.366-2.656-.262-.504-6.786,2.252-7.053,1.741-.263-.504-1.503-.49-1.771-1-.265-.504,7.457-5.226,7.188-5.735-.266-.503-1.405-.56-1.675-1.069-.268-.503.358-1.499.086-2.007-.269-.503.476-1.57.203-2.077-.271-.503-5.453,1.637-5.727,1.131-.272-.502-3.705.716-3.981.211-.274-.502-2.776.228-3.053-.277-.276-.502,2.027-2.412,1.748-2.916-.277-.501-.576-.982-.857-1.486-.279-.501-.482-1.036-.763-1.538s-3.157.474-3.44-.027,8.863-6.341,8.579-6.842c-.283-.498-4.901,1.469-5.187.97s2.359-2.687,2.072-3.185-5.077,1.612-5.366,1.115-.442-1.066-.733-1.562,2.356-2.722,2.063-3.217-4.03,1.056-4.325.562-3.735.914-4.031.421.055-1.353-.244-1.845,1.965-2.53,1.664-3.021,4.516-4.138,4.213-4.628-.84-.855-1.145-1.343.296-1.57-.011-2.056-8.316,3.911-8.626,3.426,1.862-2.548,1.55-3.031,2.372-2.916,2.057-3.398c-.316-.484,1.087-2.115.77-2.594-.318-.482-.555-1.046-.874-1.524-.321-.48-6.332,2.865-6.654,2.39-.324-.479,4.034-4.152,3.709-4.625-.327-.477-.644-.983-.972-1.454-.331-.474-2.995.678-3.326.21-.334-.472,2.01-2.868,1.675-3.333-.338-.47-5.043,2.222-5.381,1.76-.341-.467,1.303-2.388.962-2.847-.345-.464-2.512.45-2.857-.005-.349-.461,5.073-5.361,4.724-5.813-.354-.458-4.421,1.948-4.775,1.5-.359-.455-.732-.907-1.091-1.35-.365-.451-5.019,2.642-5.382,2.203-.37-.447,5.442-6.067,5.073-6.501-.376-.442.864-2.357.489-2.785-.383-.437-2.297.398-2.678-.024-.389-.431-2.346.525-2.734.11-.397-.425-5.1,3.296-5.495,2.888-.406-.418,3.043-4.597,2.64-4.996-.414-.409-3.851,2.367-4.263,1.979-.425-.4-.421-1.133-.843-1.51-.435-.388,2.603-4.765,2.171-5.127-.447-.375-6.088,5.773-6.531,5.427-.457-.357,1.047-3.189.598-3.536-.459-.354-2.862,1.881-3.313,1.537-.461-.351,2.422-5.075,1.968-5.415-.464-.348,2.236-4.968,1.779-5.305-.467-.344-2.069.814-2.529.482-.47-.339-.337-1.579-.8-1.906-.473-.334-1.806.502-2.273.181-.478-.329-3.926,3.737-4.399,3.422-.482-.322,2.668-6.185,2.192-6.492-.487-.314-4.464,4.873-4.946,4.573-.491-.305-.014-2.134-.501-2.424-.497-.296-2.019,1.261-2.513.981-.503-.285,2.002-6.027,1.501-6.295-.509-.273-2.14,1.498-2.648,1.242-.515-.26.357-3.529-.158-3.771-.522-.246-2.4,2.312-2.922,2.085-.528-.23-3.541,5.671-4.071,5.46-.534-.213,1.01-5.659.473-5.853-.54-.195-2.803,4.906-3.347,4.73s.72-6.033.17-6.19-2.292,4.397-2.849,4.26-.538-2.289-1.1-2.407c-.558-.117-.8-1.658-1.367-1.756-.561-.097-1.171.275-1.741.197-.563-.077-1.447,3.257-2.02,3.198-.565-.058-.555-6.362-1.13-6.402-.566-.039-1.051-3.807-1.628-3.829-.566-.022-1.364,6.775-1.942,6.77-.566-.005-1.019,4.565-1.597,4.576-.565.011-1.01-.489-1.588-.463-.565.025-1.674-9.597-2.251-9.557-.564.039-.436,8.792-1.012,8.845-.563.052-.98.65-1.556.715-.561.063-.93.916-1.503.992-.56.074-2.559-10.063-3.132-9.977-.56.084-.31,5.518-.883,5.614-.558.093-.748,2.177-1.318,2.281-.556.101-2.551-7.271-3.12-7.159-.555.109-.734,2.341-1.301,2.46-.553.116-.652,2.451-1.218,2.577-.553.123-.951.963-1.516,1.096-.552.129-2.07-3.685-2.633-3.548-.552.135-.285,3.654-.848,3.797-.551.14-1.463-1.063-2.025-.915s-.282,3.231-.815,3.394c-.555.169-3.316-6.134-3.842-5.949-.548.193,1.081,6.403.564,6.612-.539.218-3.272-4.432-3.779-4.197-.527.245,1.88,6.504,1.386,6.766-.513.272-.707.801-1.185,1.091-.496.301-4.168-4.269-4.627-3.95-.476.331,1.642,4.242,1.204,4.59-.453.36-2.663-1.334-3.076-.956-.426.39,4.462,5.961,4.077,6.368-.396.418-1.03.085-1.385.519-.364.445-9.409-5.688-9.733-5.228-.33.469,3.597,3.977,3.307,4.46-.295.491-5.004-1.215-5.259-.712-.259.51,6.392,4.352,6.172,4.873-.223.526-2.946.032-3.132.566-.187.54-1.126.905-1.278,1.451-.153.55,5.231,2.376,5.111,2.93-.121.558-7.479-.275-7.567.284-.09.564,6.441,1.991,6.382,2.553-.061.569-6.813.574-6.846,1.138-.033.571,1.447,1.301,1.439,1.865-.008.573-.165,1.215-.149,1.778.016.574,5.552.842,5.59,1.402.039.575-.642,1.082-.584,1.64.06.576,1.249.881,1.326,1.435.08.577-.821,1.173-.726,1.721.1.577.875.897.987,1.438.119.578-1.71,1.477-1.584,2.008.139.582.838.925.978,1.443.16.591-.53,1.316-.379,1.814.189.62-1.044,1.587-.889,2.041.349,1.019,4.768-1.065,5.092-.281,0,0-8.677,5.591-8.035,6.482.281.39.444.965.828,1.499.304.423,4.722-2.044,5.083-1.54.313.437-3.524,3.871-3.173,4.364.317.445,1.736.127,2.081.613.319.449-.12,1.448.22,1.929.32.453,7.304-3.778,7.642-3.3.321.456-6.326,5.824-5.991,6.301.322.459,3.056-.767,3.389-.29.322.461,2.575-.416,2.906.06.323.463.907.754,1.236,1.229.322.465.332,1.154.659,1.629.321.466-2.851,3.336-2.526,3.81.321.468,1.3.478,1.625.953.321.47,3.91-1.289,4.233-.814.321.472,3.652-1.088,3.973-.613s1.878.13,2.197.605-2.873,3.316-2.555,3.793,2.626-.356,2.942.122-.726,1.865-.412,2.342c.316.481,3.687-1.025,3.998-.548.315.483-7.978,6.547-7.669,7.025.313.485,2.799-.451,3.105.028.312.488-.999,1.979-.696,2.458.31.491.008,1.323.307,1.804.307.494,7.746-3.431,8.041-2.949.305.498,1.06.748,1.349,1.23.302.502-6.513,5.211-6.23,5.694.298.509,3.514-.724,3.789-.24.293.515,2.378.011,2.643.495.287.524,3.301-.362,3.552.122.279.538-5.87,4.255-5.64,4.739.266.559,4.395-.687,4.59-.208.205.503,3.57-.179,3.786.373.199.51-1.66,1.875-1.452,2.426.195.516-2.559,2.159-2.357,2.708.192.519,1.179.763,1.377,1.311.189.523,5.372-.714,5.567-.166.187.525.464,1.056.656,1.604.185.527-5.156,3-4.967,3.547.183.529.251,1.107.438,1.654.182.531-3.172,2.27-2.986,2.817.181.532,9.18-1.912,9.364-1.365.18.533-4.003,2.546-3.82,3.092.179.534-3.414,2.333-3.232,2.879.178.535,1.181.797,1.362,1.343.178.535,3.495.036,3.675.582.177.536,1.919.563,2.099,1.108.176.535-6.364,3.285-6.185,3.829.176.536,10.35-2.206,10.528-1.662.176.536-4.72,2.741-4.542,3.285.176.537-3.71,2.406-3.532,2.951.176.537,4.177-.172,4.355.372.176.538,1.003.867,1.181,1.411.176.538,2.947.232,3.125.777.176.539-4.01,2.505-3.832,3.049.176.539-3.948,2.486-3.77,3.03.176.539,3.322.112,3.5.655.176.539.447,1.051.625,1.595.177.54,4.999-.44,5.177.104.177.54-1.747,1.77-1.569,2.314.177.54-1.847,1.805-1.668,2.349.177.538.322,1.09.5,1.632s1.292.771,1.471,1.313.894.902,1.073,1.444.462,1.046.641,1.587-4.477,2.689-4.297,3.23,6.713-1.035,6.894-.493,1.236.786,1.417,1.327,2.631.314,2.812.854-1.956,1.855-1.774,2.396-6.77,3.491-6.588,4.032.432,1.064.616,1.605,9.975-2.191,10.159-1.651-9.374,4.413-9.188,4.954,5.854-.8,6.04-.26-4.81,2.874-4.623,3.414,1.806.591,1.993,1.131,6.31-.989,6.498-.45-5.69,3.21-5.5,3.749,8.384-1.746,8.575-1.207-7.067,3.722-6.876,4.261,4.878-.525,5.071.012-5.517,3.204-5.323,3.742,9.737-2.309,9.932-1.772-4.827,2.973-4.631,3.509c.197.538-1.019,1.597-.821,2.132s4.775-.549,4.974-.015-2.621,2.197-2.421,2.73c.201.536-2.816,2.289-2.615,2.822.203.536,8.205-1.895,8.408-1.363.204.535-6.149,3.579-5.944,4.11.206.534.118,1.189.324,1.719.208.533.32,1.112.528,1.641.21.535-.136,1.299.074,1.829.212.533,7.748-1.867,7.96-1.34.214.532.556.988.77,1.513.216.53-9.322,5.055-9.106,5.579.219.531,5.003-.819,5.222-.295.22.528-.418,1.421-.198,1.941.223.527,2.407.218,2.631.736.228.531-2.851,2.496-2.623,3.021.23.53,4.481-.696,4.711-.172.232.528,2.423.177,2.656.701.235.527-6.937,4.377-6.701,4.899.237.526,5.577-1.255,5.815-.735.24.525-1.656,2.033-1.415,2.553.243.523,1.01.808,1.254,1.326.245.522.869.869,1.115,1.385.248.52,1.304.652,1.554,1.168.251.519-.981,1.764-.728,2.278.255.517-2.868,2.733-2.612,3.245.259.517,3.342-.365,3.602.147.262.515-2.831,2.781-2.567,3.291.265.513,4.516-1.026,4.783-.518.269.511,5.166-1.45,5.438-.945.273.509-7.19,5.209-6.915,5.713s8.714-3.488,8.993-2.987-5.565,4.444-5.282,4.943,7.342-2.894,7.629-2.398-2.183,2.575-1.891,3.069-4.091,3.791-3.795,4.282,7.977-3.521,8.278-3.032.589.932.894,1.418.171,1.199.481,1.682-6.834,5.801-6.519,6.281,9.031-4.615,9.35-4.138-2.186,2.818-1.862,3.292.032,1.349.361,1.82.164,1.273.498,1.74-.234,1.578.105,2.042,1.545.28,1.888.741,3.478-1.221,3.826-.765-1.043,2.207-.69,2.66-.161,1.563.197,2.013-2.89,3.81-2.528,4.257-.653,2.078-.286,2.52,7.415-4.712,7.787-4.273-5.493,6.222-5.117,6.657,2.273-.414,2.654.017-1.156,2.622-.771,3.05c.383.425,2.039-.246,2.429.178.387.421.402,1.243.796,1.663.391.418,5.808-3.911,6.206-3.494.395.414,2.498-.87,2.9-.457.399.41.128,1.42.534,1.829.403.406.822.743,1.232,1.148.406.401.552,1.017.964,1.418.409.398.864.7,1.28,1.097.413.394-4.618,6.541-4.199,6.934.416.391.69.986,1.113,1.376.419.387,3.07-1.629,3.496-1.242.423.384.663.985,1.093,1.369.426.38-2.154,4.194-1.721,4.575.429.377,5.413-4.435,5.848-4.057.432.374,2.476-1.151,2.914-.777.435.371-.316,2.114.125,2.485.437.368-2.805,5.156-2.361,5.525.44.365,2.943-1.747,3.39-1.382.443.362,2.603-1.394,3.053-1.031.445.359-3.696,6.459-3.245,6.818.447.356,2.413-1.161,2.867-.804.449.353,4.771-4.244,5.227-3.89.451.351-1.321,3.57-.863,3.921.452.347,2.497-1.398,2.956-1.05.455.345-.456,2.492.005,2.838.457.343-2.683,5.535-2.22,5.879.459.341,6.161-6.404,6.626-6.063.461.338-3.598,6.877-3.131,7.216.463.336,2.166-1.007,2.635-.67.465.334,1.671-.347,2.142-.012.465.331,1.389.026,1.86.358.467.33,3.02-2.315,3.493-1.984.469.328.37,1.459.845,1.788.471.327-3.56,7.196-3.083,7.524.471.324,2.912-2.197,3.39-1.872.474.323,4.452-4.516,4.932-4.191.476.321.712,2.81,1.193,3.133Z" style="fill: none; stroke: #000; stroke-linecap: round; stroke-linejoin: round; stroke-width: 40px;"/>
  <path d="M319.335,383.376c0,.55-2.315,1.142-2.179,1.649.14.525-1.999,2.448-1.733,2.908.27.466-.892,3.466-.514,3.844s4.089-2.015,4.555-1.746c.459.266,2.768-4.749,3.292-4.609.507.136,0,6.286.551,6.286s.379-4.896.886-5.032c.525-.14,2.569,3.742,3.029,3.476.466-.27.886-1.22,1.264-1.598s-2.675-3.114-2.406-3.58c.266-.459,4.912,1.022,5.052.498.136-.507.046-1.546.046-2.095s.938-1.816.802-2.324c-.14-.525-7.252,2.121-7.518,1.661-.27-.466,3.661-3.399,3.283-3.778s1.165-4.183.699-4.452c-.459-.266-2.558,1.36-3.083,1.22-.507-.136-1.505-1.628-2.055-1.628s-1.4,2.047-1.908,2.182c-.525.14-1.851-.448-2.31-.182-.466.27-3.261-.934-3.639-.556s4.382,5.23,4.113,5.696c-.266.459-2.278-.016-2.418.508-.136.507,2.191,1.101,2.191,1.651Z" style="fill: none; stroke: #000; stroke-linecap: round; stroke-linejoin: round; stroke-width: 40px;"/>
  <path d="M389.836,360c0,.55,4.799-.093,4.935.414.14.525-3.052,1.62-2.786,2.079.27.466.49.581.868.959s.629.363,1.095.633c.459.266,1.747-3.923,2.272-3.783.507.136-.465,6.204.085,6.204s2.297,4.101,2.804,3.965c.525-.14,1.887-1.295,2.346-1.56.466-.27-.332-3.337.046-3.715s-1.337-2.347-1.067-2.813c.266-.459.169-.667.309-1.192.136-.507,7.192-.64,7.192-1.19s-5.886-.996-6.022-1.504c-.14-.525-.86-.624-1.126-1.084-.27-.466,3.889-5.029,3.511-5.407s-4.362,2.781-4.828,2.512c-.459-.266.45-5.925-.075-6.065-.507-.136-2.541,8.944-3.091,8.944s-2.223-7.726-2.73-7.59c-.525.14.049,4.491-.41,4.757-.466.27-3.562-2.02-3.94-1.641s-2.35,1.008-2.619,1.474c-.266.459,9.372,4.951,9.232,5.476-.136.507-6-.421-6,.129Z" style="fill: none; stroke: #000; stroke-linecap: round; stroke-linejoin: round; stroke-width: 40px;"/>
  <path d="M304.735,467.424c.351.78.691.474,1.19,1.461.216.427-.976,1.776-.665,2.356.244.456,8.577-3.469,8.879-2.929.261.465-.216,1.299.089,1.821.274.469-7.516,5.774-7.207,6.284.285.469,9.465-4.529,9.779-4.029.294.468-8.048,6.479-7.728,6.972.303.465,2.247-.062,2.574.423.311.462,3.013-.667,3.346-.189.32.459,1.001.674,1.34,1.146.327.455,3.14-.932,3.486-.467.335.451-4.943,5.163-4.59,5.621.343.446-.767,2.132-.408,2.584.35.441,4.363-2,4.729-1.554.358.436,3.92-1.821,4.293-1.382.366.43,1.241.348,1.621.781.373.425.971.561,1.358.987.381.419,1.502.044,1.896.463.388.412-1.541,2.958-1.14,3.37.396.406-4.164,5.77-3.755,6.174.403.399,6.941-5.504,7.357-5.108.41.391,1.617-.19,2.04.198.418.384-4,6.094-3.57,6.474.425.376,2.148-.712,2.585-.341.433.367,3.915-3,4.359-2.638.44.359-2.168,4.461-1.717,4.814.447.35,4.122-3.604,4.58-3.26.455.34-1.214,3.453-.748,3.787.462.331.599,1.069,1.072,1.392.469.321.675.995,1.155,1.308.476.31.16,1.864.647,2.166.483.299,3.085-2.968,3.578-2.677.49.288-2.365,6.41-1.865,6.689.496.277,2.946-2.988,3.452-2.721.503.265.826.848,1.339,1.103.509.253,1.454-.453,1.972-.211.515.24-.181,3.169.343,3.398.521.227,3.241-4.855,3.771-4.64.527.214-.246,3.57.29,3.773.532.2,1.309-.368,1.851-.18.537.187.547,1.889,1.093,2.063.541.173.743,1.518,1.293,1.678.545.158.029,4.498.584,4.643.549.144,2.22-3.858,2.778-3.727.553.129.753,2.134,1.314,2.25.556.115,1.396-.874,1.96-.772.559.1,1.875-4.412,2.442-4.325.561.085,1.208-1.058,1.777-.987.563.071,1.135-.942,1.706-.885.565.056.823,2.58,1.396,2.622.566.042.774,6.296,1.347,6.323.567.027,1.182,2.198,1.756,2.211.567.013,1.279-2.424,1.853-2.425.568-.001,1.209-.517,1.784-.533.567-.015.859-6.876,1.433-6.905.567-.029,1.245,2.622,1.819,2.579.566-.042,1.401,2.901,1.974,2.845.57-.056,1.075-.868,1.635-.931.57-.064,1.73,4.454,2.29,4.383.569-.072.778-3.254,1.337-3.333.568-.08.429-4.887.987-4.975.567-.089,1.701,3.341,2.257,3.245.565-.098.446-3.883,1-3.989.563-.107,1.816,3.329,2.368,3.214.561-.117,1.759,2.502,2.309,2.378.559-.127.06-4.84.607-4.974.556-.137.506-2.476,1.05-2.621.553-.148,2.965,6.383,3.506,6.227.55-.159-.049-4.273.489-4.44.546-.17-.679-5.607-.145-5.786.542-.182,2.118,2.9,2.648,2.709.538-.194,1.024-.365,1.549-.568.534-.206,1.554.918,2.075.702.529-.219,2.436,2.736,2.951,2.507.523-.232,2.122,1.661,2.632,1.419.517-.245,1.143-.555,1.646-.81.51-.258-2.404-7.12-1.908-7.389.503-.272.483-1.308.971-1.59.495-.286.291-1.52.772-1.816.486-.299.463-1.133.936-1.443.477-.313,2.783,2.264,3.246,1.941.468-.326-1.345-3.628-.891-3.965.458-.34,5.152,4.952,5.596,4.601.447-.353-.033-1.877.4-2.241.436-.366-1.268-3.129-.846-3.506.425-.379,4.705,3.451,5.116,3.062s-4.852-6.533-4.452-6.934,2.869,1.356,3.257.943,7.007,4.778,7.383,4.354-3.314-4.461-2.95-4.897,2.834.774,3.186.328-2.506-3.386-2.168-3.842-.139-1.453.188-1.918,6.91,3.298,7.225,2.825-6.586-5.657-6.283-6.137-1.118-1.903-.827-2.391,9.466,4.183,9.746,3.688-4.365-3.762-4.097-4.263-3.338-2.962-3.081-3.469c.256-.504-.514-1.4-.266-1.912.246-.509,6.891,2.041,7.129,1.524.236-.513,4.588.74,4.815.219.226-.518-2.213-2.258-1.995-2.783.217-.522,2.158-.418,2.367-.946.208-.525-8.071-4.334-7.871-4.866.199-.529,7.268,1.48,7.46.944.191-.532,3.037-.202,3.221-.74.183-.535-7.768-3.822-7.591-4.362.176-.537,6.686.946,6.856.403.169-.54-.877-1.496-.713-2.041.162-.542-1.643-1.682-1.486-2.23.156-.542-5.955-2.819-5.805-3.366.15-.544,3.524-.174,3.669-.723.144-.546-.062-1.157.078-1.708.139-.548,4.341-.076,4.476-.628.134-.549,1.247-.88,1.378-1.434.13-.551-.148-1.214-.021-1.769.125-.552-3.139-1.864-3.016-2.42.121-.551.248-1.091.366-1.647s7.14.323,7.254-.233-2.287-1.645-2.176-2.203-7.039-2.536-6.931-3.095,10.267.804,10.372.244c.105-.556-8.672-2.774-8.569-3.334s.656-1.022.756-1.584c.1-.558,4.035-.433,4.134-.994s.33-1.871.427-2.436c-.394-.771,1.357-2.507.818-3.184s-1.246-.113-1.785-.789.477-1.486-.062-2.163-7.967,5.239-8.507,4.561,7.686-7.228,7.146-7.905c-.54-.678-7.584,4.933-8.124,4.256-.539-.677,2.763-3.308,2.224-3.985-.54-.678,1.49-2.294.95-2.971s-4.049,2.12-4.588,1.444-3.746,1.879-4.285,1.203,2.082-2.767,1.542-3.445c-.539-.677.028-1.129-.512-1.806s1.793-2.537,1.253-3.215-.195-.954-.736-1.633,1.029-1.927.489-2.605c-.541-.679-6.964,4.437-7.505,3.757s-.833-.449-1.376-1.129,6.047-5.929,5.505-6.609c0,0-4.033,3.597-3.543,4.559.216.423-2.692,2.812-2.371,3.374.254.446,7.425-3.136,7.75-2.619.281.448.476.862.811,1.354.303.444.139,1.133.488,1.606.322.436,2.645-.802,3.008-.347.34.427.261,1.002.638,1.441.357.416.833.522,1.224.946.374.405-5.48,6.77-5.075,7.178.389.392,3.481-1.882,3.901-1.49.404.378,2.331-.977,2.763-.601.419.363-3.946,6.556-3.5,6.915.433.348,2.493-1.14,2.951-.798.446.332,3.413-2.795,3.884-2.471.458.315-2.447,5.854-1.965,6.16.469.298,3.762-3.875,4.255-3.588.48.28.111,2.135.614,2.403.491.262,1.889-1.208,2.401-.959.5.243,3.058-4.211,3.579-3.981.509.225-1.189,5.45-.66,5.661.517.206,1.367-.523,1.904-.332.524.187,1.704-1.809,2.247-1.637.531.168-1.557,9.306-1.007,9.459.537.15,3.692-9.624,4.246-9.49.541.131-.588,7.651-.029,7.766.545.113,1.396-.882,1.958-.784.549.095,1.56-2.573,2.124-2.493.552.078,1.338-2.126,1.905-2.064.555.06.817,2.769,1.387,2.814.556.044,1.16-.937,1.73-.908.558.028,1.056,1.41,1.627,1.422.559.012,1.124-.132,1.696-.135" style="fill: none; stroke: #000; stroke-linecap: round; stroke-linejoin: round; stroke-width: 40px;"/>
  <path d="M290.652,487.605c.807-.237,1.443,3.595,2.404,3.072.41-.224,2.777,2.434,3.316,2.065.418-.285-1.007-3.257-.526-3.645.405-.327-1.351-2.972-.909-3.381.388-.359,1.448.206,1.859-.223.37-.386-.152-1.379.232-1.825.351-.408.57-.713.93-1.175.333-.427,3.828,1.581,4.166,1.107.315-.443,3.385.885,3.703.398.298-.456.046-1.411.344-1.908.281-.468-6.233-4.834-5.952-5.34.265-.478,8.991,3.565,9.254,3.053.251-.487-.47-1.599-.222-2.118.237-.495-7.136-4.487-6.902-5.012.223-.502,6.648,1.691,6.868,1.161.211-.509-1.68-1.886-1.473-2.422.199-.515-.921-1.503-.727-2.043.187-.52,2.145-.411,2.328-.955.177-.525-2.451-1.941-2.279-2.488.166-.528,6.557.822,6.719.273.156-.531-5.134-2.632-4.983-3.183.147-.534-.648-1.281-.506-1.835.138-.538,6.834.536,6.968-.02.129-.541-8.467-3.093-8.343-3.651.121-.542,9.918.997,10.034.437.113-.545-3.484-1.881-3.375-2.443.106-.547,1.389-.902,1.49-1.466" style="fill: none; stroke: #000; stroke-linecap: round; stroke-linejoin: round; stroke-width: 40px;"/>
</svg>