<?xml version="1.0" encoding="UTF-8"?>
<svg id="LM_Icons" data-name="LM Icons" xmlns="http://www.w3.org/2000/svg" width="700" height="700" viewBox="0 0 700 700">
  <path d="M387.581,132.443c.783,2.409,2.179,1.956,2.962,4.365s.294,2.566,1.076,4.974-.003,2.662.779,5.069-1.11,3.023-.328,5.431c.783,2.409,2.469,1.861,3.252,4.27.782,2.408-4.8,4.221-4.018,6.629.782,2.408,1.711,2.106,2.494,4.514.783,2.409,4.546,1.186,5.329,3.595.782,2.408,2.122,1.973,2.904,4.381.783,2.409-5.001,4.288-4.218,6.698.783,2.408,2.463,1.863,3.245,4.271.783,2.409,1.55,2.16,2.333,4.568.783,2.409-.334,2.772.449,5.18.783,2.409,4.35,1.251,5.133,3.66.783,2.409-2.045,3.328-1.262,5.737.783,2.41-.147,2.712.636,5.121.783,2.41.372,2.544,1.155,4.953.783,2.41,2.707,1.784,3.49,4.194.782,2.407,2.331,1.904,3.113,4.311s-3.3,3.736-2.517,6.146c.782,2.408,3.187,1.627,3.969,4.035.783,2.409-1.918,3.287-1.135,5.696.783,2.41,5.829.771,6.612,3.181.783,2.41-3.036,3.651-2.252,6.061s4.02,1.359,4.803,3.769c.783,2.41-1.524,3.159-.741,5.569.783,2.41,5.375.918,6.158,3.328.784,2.412-5.589,4.483-4.805,6.895.784,2.414,2.999,1.694,3.783,4.108.784,2.414-1.368,5.239.684,6.732s4.074-3.353,6.608-3.353,2.531,4.331,5.063,4.331,2.531-2.699,5.062-2.699,2.532,2.312,5.064,2.312,2.533.526,5.065.526,2.531-.861,5.063-.861,2.532-4.187,5.064-4.187,2.533.028,5.066.028,2.532,1.557,5.064,1.557c2.533,0,2.533.481,5.066.481s2.532-.936,5.065-.936c2.533,0,2.533-2.694,5.066-2.694s2.533,5.905,5.066,5.905,2.533-5.222,5.067-5.222c2.533,0,2.533,4.049,5.066,4.049s2.534-.002,5.067-.002,2.534-2.952,5.068-2.952,2.534,1.525,5.067,1.525,2.531-2.67,5.062-2.67,2.533,3.988,5.067,3.988,2.532-4.012,5.064-4.012,2.533.351,5.066.351,2.534,3.271,5.069,3.271,2.534-4.831,5.069-4.831,2.534.263,5.069.263,2.535,2.152,5.07,2.152,2.534,3.093,5.067,3.093,2.536-4.027,5.072-4.027,2.538,6.288,5.075,6.288,2.538-6.718,5.075-6.718c1.749,0,3.642,1.908,5.244,2.201,1.706.312,3.745.356,5.271.962,1.596.634,3.406,1.569,4.792,2.479,1.423.935,1.729,3.502,2.915,4.679,1.201,1.192,2.661,2.219,3.602,3.61s1.757,2.963,2.423,4.508.458,3.389.828,5.033c.369,1.642,1.764,3.203,1.821,4.89s-1.714,3.248-1.985,4.918c-.267,1.649-2.111,2.556-2.713,4.148-.586,1.551,2.452,4.874,1.533,6.324-.879,1.387-4.879.367-6.075,1.622-1.124,1.179-1.286,3.184-2.701,4.212-2.049,1.489.16,4.53-1.889,6.019-2.048,1.488-2.924.283-4.971,1.77-2.048,1.488-3.884-1.04-5.932.447s-3.203-.101-5.251,1.388.929,5.588-1.12,7.077c-2.048,1.488-2.983.202-5.03,1.69-2.048,1.488-3.503-.513-5.551.975-2.049,1.489-.698,3.348-2.748,4.837-2.048,1.488-.905,3.062-2.953,4.55s-.992,2.945-3.041,4.434c-2.049,1.489-5.851-3.744-7.899-2.256-2.049,1.489-.099,4.173-2.148,5.662-2.049,1.489-4.437-1.799-6.486-.31s-.514,3.603-2.563,5.093c-2.049,1.489-1.033,2.888-3.082,4.377s-4.573-1.984-6.623-.495c-2.047,1.487,2.37,7.567.324,9.054s-5.572-3.36-7.621-1.871-2.215,1.258-4.263,2.746c-2.05,1.489,1.599,6.512-.451,8.001s-3.531-.551-5.579.937c-2.05,1.489-4.863-2.383-6.913-.894s2.122,7.232.071,8.722c-2.051,1.49-2.339,1.092-4.39,2.582-2.051,1.49-4.518-1.907-6.569-.417-2.05,1.489-1.411,2.368-3.462,3.858-2.05,1.49.108,4.46-1.942,5.95s-5.426-3.152-7.478-1.661.827,5.457-1.226,6.949c-2.054,1.492-8.615-2.94-9.401-.526-.785,2.409,4.154,3.653,4.937,6.062s1.046,2.322,1.828,4.729c.782,2.407-2.684,3.533-1.902,5.94s1.172,2.281,1.954,4.69,4.777,1.111,5.56,3.52-3.101,3.669-2.319,6.077c.782,2.408.84,2.389,1.622,4.798.783,2.409,1.901,2.046,2.684,4.455.782,2.408,2.191,1.95,2.973,4.358.783,2.409-2.391,3.44-1.608,5.849.783,2.408,5.361.921,6.143,3.329.783,2.409-3.84,3.911-3.057,6.32.783,2.409,6.048.698,6.83,3.107.783,2.409,2.571,1.828,3.354,4.238s-1.742,3.229-.96,5.638,3.122,1.65,3.905,4.059c.783,2.41-6.175,4.671-5.392,7.081.783,2.41,7.218.319,8.001,2.728s-4.182,4.02-3.4,6.428c.783,2.409,5.167.985,5.95,3.394.782,2.408.995,2.339,1.778,4.747.783,2.409-4.46,4.113-3.677,6.522s6.055.697,6.839,3.107c.783,2.41-2.321,3.419-1.538,5.829.783,2.41,3.809,1.427,4.592,3.838.783,2.41.315,2.562,1.098,4.971.783,2.41-1.406,3.121-.623,5.531s3.348,1.579,4.132,3.991c.784,2.414-3.029,3.653-2.244,6.066.784,2.414,5.627.84,6.412,3.254.54,1.663-5.171,4.753-4.955,6.367.23,1.719.058,2.84-.046,4.479-.109,1.714,5.611,4.39,5.174,5.989-.449,1.642-3.059,2.902-3.812,4.394-.763,1.511.362,4.795-.67,6.12s-5.209.224-6.473,1.335c-1.266,1.112-3.342.926-4.791,1.786s-2.942.941-4.528,1.515-2.077,5.944-3.75,6.202c-1.651.255-3.977.407-5.677.326-1.656-.078-3.634-1.734-5.297-2.16-1.591-.407-1.347-5.635-2.91-6.385-1.468-.704-5.135,2.458-6.55,1.43-2.049-1.489.784-5.388-1.266-6.877-2.048-1.488-6.069,4.046-8.117,2.559-2.048-1.488-1.461-2.295-3.509-3.782s.936-5.596-1.112-7.084-1.343-2.461-3.392-3.949c-2.048-1.488-3.674.75-5.722-.738s-2.074-1.453-4.122-2.942-1.794-1.84-3.843-3.329c-2.048-1.488-4.058,1.278-6.107-.21-2.049-1.489.789-5.396-1.26-6.885-2.049-1.489-5.836,3.724-7.885,2.236-2.049-1.489-2.248-1.215-4.297-2.704-2.049-1.489-1.373-2.419-3.422-3.908-2.05-1.489-1.021-2.905-3.07-4.395-2.049-1.489.781-5.384-1.268-6.873-2.05-1.489-2.722-.564-4.772-2.053-2.047-1.487-4.813,2.32-6.859.833s-.183-4.057-2.233-5.546-1.403-2.376-3.451-3.864c-2.05-1.489-3.386.349-5.436-1.14-2.049-1.488-.072-4.21-2.12-5.698-2.05-1.489-4.092,1.322-6.142-.168-2.051-1.49-.917-3.05-2.968-4.54-2.051-1.49-4.468,1.837-6.518.347-2.051-1.49-2.787-.476-4.838-1.966-2.05-1.489-1.213-2.641-3.263-4.131-2.05-1.49-.529-3.583-2.58-5.073-2.052-1.491-1.643-2.055-3.695-3.546s-3.654.711-5.708-.781c-2.054-1.492-.61-2.352-3.149-2.353s-.051,2.286-2.1,3.775-1.855,1.753-3.903,3.241c-2.048,1.488-2.006,1.545-4.053,3.033s-2.268,1.185-4.317,2.674-4.242-1.529-6.291-.04c-2.048,1.488-3.496-.505-5.544.983-2.048,1.488-.782,3.231-2.831,4.719-2.049,1.489-2.619.705-4.668,2.194-2.048,1.488.597,5.129-1.451,6.617s-2.864.367-4.914,1.856c-2.049,1.489-4.791-2.286-6.84-.798-2.049,1.489-.587,3.501-2.636,4.99-2.049,1.489-1.808,1.82-3.857,3.309-2.05,1.489-4.119-1.359-6.169.13-2.049,1.489,1.966,7.015-.083,8.504-2.05,1.489-4.925-2.469-6.975-.98-2.047,1.487-1.899,1.691-3.945,3.178s-1.678,1.999-3.728,3.488-.424,3.724-2.472,5.212c-2.05,1.489-2.134,1.373-4.184,2.862-2.049,1.488-5.12-2.739-7.169-1.251-2.05,1.489-.335,3.849-2.385,5.339-2.051,1.49-2.119,1.396-4.169,2.886-2.051,1.49-.779,3.24-2.829,4.73-2.051,1.49-2.687.614-4.738,2.104-2.05,1.489-3.957-1.135-6.007.355s-.878,3.104-2.928,4.593-3.529-.541-5.581.95c-2.054,1.492,1.295,6.101-.758,7.593-2.054,1.492-1.591,2.129-3.644,3.621-1.415,1.028-5.047-1.388-6.515-.684-1.563.75-2.784,2.048-4.375,2.455-1.664.426-3.352-.045-5.008.033-1.701.08-2.916-2.025-4.567-2.28-1.672-.259-3.785,2.235-5.363,1.663-1.586-.575-3.682-.389-5.129-1.248s-1.854-3.284-3.119-4.396-.032-4.077-1.069-5.408c-1.032-1.325-3.408-1.257-4.171-2.767-.753-1.491-4.67-1.866-5.119-3.508-.437-1.599,3.104-3.931,2.995-5.645-.105-1.639.269-2.926.499-4.645.216-1.614-3.543-4.196-3.003-5.859.783-2.409,1.637-2.132,2.42-4.541s-.856-2.94-.074-5.347c.782-2.407,1.177-2.279,1.959-4.686.782-2.408,3.683-1.466,4.465-3.874s-2.604-3.509-1.821-5.918c.782-2.408,1.336-2.228,2.118-4.635.782-2.408,3.016-1.682,3.799-4.09.783-2.409-2.564-3.496-1.781-5.905.782-2.408,2.911-1.716,3.694-4.124s1.927-2.037,2.71-4.447c.783-2.408,1.71-2.107,2.493-4.515.783-2.409-3.552-3.818-2.77-6.226s1.027-2.329,1.81-4.738c.783-2.409,6.482-.558,7.264-2.967s.876-2.378,1.659-4.787c.783-2.41-2.845-3.588-2.062-5.998.783-2.41,4.788-1.108,5.571-3.518.783-2.41-2.186-3.374-1.403-5.784.782-2.407-1.756-3.232-.974-5.639.783-2.409,6.698-.488,7.481-2.897.782-2.408-.574-2.849.209-5.257.783-2.409,2.013-2.009,2.796-4.419.783-2.41-1.587-3.18-.804-5.591s.79-2.408,1.573-4.818c.783-2.41-2.409-3.447-1.626-5.858.783-2.41,4.029-1.355,4.812-3.764.783-2.41.457-2.516,1.24-4.926.784-2.412,1.728-2.105,2.511-4.517.784-2.414-4.283-4.06-3.499-6.474.784-2.414,8.25-1.958,7.468-4.373-.781-2.41-3.771-1.49-5.82-2.979s-2.679-.62-4.727-2.107c-2.048-1.488-2.603-.723-4.651-2.21-2.048-1.488-1.295-2.525-3.343-4.013s-1.033-2.887-3.082-4.375c-2.048-1.488-4.683,2.139-6.731.651-2.048-1.488-2.291-1.154-4.34-2.642-2.049-1.489.07-4.405-1.98-5.894-2.048-1.488-2.459-.923-4.507-2.412-2.049-1.489-2.413-.988-4.462-2.477-2.049-1.489-1.003-2.927-3.052-4.416-2.049-1.489-4.433,1.792-6.482.303s-2.614-.711-4.663-2.2c-2.05-1.489,2.252-7.41.202-8.899s-2.499-.869-4.548-2.358c-2.05-1.489-4.287,1.591-6.337.102s-1.923-1.658-3.97-3.145c-2.049-1.489-1.526-2.209-3.575-3.698-2.048-1.488-2.581-.754-4.629-2.242s.582-5.112-1.468-6.601-5.027,2.61-7.075,1.122c-2.05-1.489-.101-4.172-2.151-5.661-2.051-1.49-3.501.506-5.551-.984-2.051-1.49-.239-3.984-2.289-5.474s-3.181.067-5.232-1.423c-2.05-1.489-1.063-2.848-3.113-4.337-2.05-1.49-5.378,3.09-7.428,1.6s1.588-6.501-.464-7.992c-2.054-1.492-5.151,2.771-7.205,1.28s-.027-4.281-2.081-5.773c-1.415-1.028-2.913-1.722-4.036-2.901-1.196-1.255-5.199-.631-6.078-2.019-.919-1.451,3.884-5.76,3.298-7.311-.602-1.592-.575-2.691-.842-4.341-.271-1.671-7.276-2.949-7.22-4.627s1.596-3.76,1.966-5.402c.37-1.644,4.556-2.147,5.223-3.695s-1.723-4.861-.777-6.258,1.255-4.069,2.456-5.261c1.186-1.177,4.225-.95,5.647-1.884,1.386-.91,2.699-3.014,4.295-3.648,1.526-.606,3.915.037,5.62-.276,1.602-.293,3.561-.389,5.31-.389,2.533,0,2.533,1.365,5.066,1.365s2.531-2.095,5.063-2.095c2.531,0,2.531,2.721,5.062,2.721s2.532-.788,5.064-.788,2.533,4.227,5.065,4.227c2.531,0,2.531-5.662,5.063-5.662s2.532.72,5.064.72,2.533,4.726,5.066,4.726,2.532-7.735,5.064-7.735c2.533,0,2.533.905,5.066.905s2.532-.537,5.065-.537,2.533,4.76,5.066,4.76,2.533-2.131,5.066-2.131c2.533,0,2.533.756,5.067.756s2.533-.093,5.066-.093,2.534,1.836,5.067,1.836,2.534-3.517,5.068-3.517,2.534-.702,5.067-.702,2.531-1.208,5.062-1.208,2.533-.011,5.067-.011,2.532,5.653,5.064,5.653,2.533-5.27,5.066-5.27,2.534,6.987,5.069,6.987,2.534-7.037,5.069-7.037,2.534,3.898,5.069,3.898,2.535-3.86,5.07-3.86,2.534,4.12,5.067,4.12,2.536,2.465,5.072,2.465c2.538,0,2.538-5.625,5.075-5.625s2.761,3.738,4.815,2.247c2.05-1.488,3.048-1.399,3.83-3.809.782-2.407.284-2.569,1.067-4.977s3.044-1.672,3.826-4.079-1.873-3.271-1.091-5.679c.783-2.409,2.33-1.906,3.113-4.315.782-2.408-1.466-3.138-.684-5.546.782-2.408-3.373-3.758-2.591-6.166.783-2.409,6.717-.481,7.499-2.89.782-2.408-1.809-3.25-1.027-5.658.783-2.409.48-2.508,1.263-4.917s4.972-1.047,5.754-3.456c.783-2.409-5.755-4.533-4.972-6.942.783-2.409,4.483-1.207,5.265-3.615.783-2.409-1.165-3.042-.382-5.452.783-2.409-.699-2.89.084-5.299s4.163-1.311,4.946-3.721c.783-2.41-1.553-3.169-.77-5.579s-1.164-3.042-.381-5.452,6.201-.647,6.983-3.054,2.203-1.948,2.986-4.357-5.396-4.415-4.613-6.823c.783-2.409,2.676-1.794,3.459-4.203.783-2.41-1.23-3.064-.447-5.475s1.01-2.336,1.794-4.747c.783-2.41-.102-2.698.681-5.108.783-2.41,2.549-1.836,3.332-4.245.783-2.41,4.433-1.224,5.216-3.634.784-2.412,1.74-2.101,2.523-4.513.784-2.414-.444-2.813.34-5.227.784-2.414-1.511-3.159-.727-5.573.54-1.663,1.014-3.52,1.788-4.953.824-1.526,5.059-.525,6.108-1.79,1.096-1.322,2.227-1.697,3.521-2.734,1.329-1.065.032-5.821,1.519-6.585,1.505-.774,4.69,3.212,6.303,2.747s2.417-3.068,4.093-3.224,3.449-3.13,5.127-2.974c1.676.156,3.429,1.45,5.05,1.917,1.613.465,1.1,5.553,2.606,6.326,1.486.764,4.321-1.353,5.649-.289,1.294,1.037,4.594.313,5.69,1.635,1.048,1.264-.87,4.695-.046,6.221.774,1.433,4.958,1.586,5.498,3.249Z" style="fill: #fff;"/>
  <path d="M387.581,132.443c.783,2.409,2.179,1.956,2.962,4.365s.294,2.566,1.076,4.974-.003,2.662.779,5.069-1.11,3.023-.328,5.431c.783,2.409,2.469,1.861,3.252,4.27.782,2.408-4.8,4.221-4.018,6.629.782,2.408,1.711,2.106,2.494,4.514.783,2.409,4.546,1.186,5.329,3.595.782,2.408,2.122,1.973,2.904,4.381.783,2.409-5.001,4.288-4.218,6.698.783,2.408,2.463,1.863,3.245,4.271.783,2.409,1.55,2.16,2.333,4.568.783,2.409-.334,2.772.449,5.18.783,2.409,4.35,1.251,5.133,3.66.783,2.409-2.045,3.328-1.262,5.737.783,2.41-.147,2.712.636,5.121.783,2.41.372,2.544,1.155,4.953.783,2.41,2.707,1.784,3.49,4.194.782,2.407,2.331,1.904,3.113,4.311s-3.3,3.736-2.517,6.146c.782,2.408,3.187,1.627,3.969,4.035.783,2.409-1.918,3.287-1.135,5.696.783,2.41,5.829.771,6.612,3.181.783,2.41-3.036,3.651-2.252,6.061s4.02,1.359,4.803,3.769c.783,2.41-1.524,3.159-.741,5.569.783,2.41,5.375.918,6.158,3.328.784,2.412-5.589,4.483-4.805,6.895.784,2.414,2.999,1.694,3.783,4.108.784,2.414-1.368,5.239.684,6.732s4.074-3.353,6.608-3.353,2.531,4.331,5.063,4.331,2.531-2.699,5.062-2.699,2.532,2.312,5.064,2.312,2.533.526,5.065.526,2.531-.861,5.063-.861,2.532-4.187,5.064-4.187,2.533.028,5.066.028,2.532,1.557,5.064,1.557c2.533,0,2.533.481,5.066.481s2.532-.936,5.065-.936c2.533,0,2.533-2.694,5.066-2.694s2.533,5.905,5.066,5.905,2.533-5.222,5.067-5.222c2.533,0,2.533,4.049,5.066,4.049s2.534-.002,5.067-.002,2.534-2.952,5.068-2.952,2.534,1.525,5.067,1.525,2.531-2.67,5.062-2.67,2.533,3.988,5.067,3.988,2.532-4.012,5.064-4.012,2.533.351,5.066.351,2.534,3.271,5.069,3.271,2.534-4.831,5.069-4.831,2.534.263,5.069.263,2.535,2.152,5.07,2.152,2.534,3.093,5.067,3.093,2.536-4.027,5.072-4.027,2.538,6.288,5.075,6.288,2.538-6.718,5.075-6.718c1.749,0,3.642,1.908,5.244,2.201,1.706.312,3.745.356,5.271.962,1.596.634,3.406,1.569,4.792,2.479,1.423.935,1.729,3.502,2.915,4.679,1.201,1.192,2.661,2.219,3.602,3.61s1.757,2.963,2.423,4.508.458,3.389.828,5.033c.369,1.642,1.764,3.203,1.821,4.89s-1.714,3.248-1.985,4.918c-.267,1.649-2.111,2.556-2.713,4.148-.586,1.551,2.452,4.874,1.533,6.324-.879,1.387-4.879.367-6.075,1.622-1.124,1.179-1.286,3.184-2.701,4.212-2.049,1.489.16,4.53-1.889,6.019-2.048,1.488-2.924.283-4.971,1.77-2.048,1.488-3.884-1.04-5.932.447s-3.203-.101-5.251,1.388.929,5.588-1.12,7.077c-2.048,1.488-2.983.202-5.03,1.69-2.048,1.488-3.503-.513-5.551.975-2.049,1.489-.698,3.348-2.748,4.837-2.048,1.488-.905,3.062-2.953,4.55s-.992,2.945-3.041,4.434c-2.049,1.489-5.851-3.744-7.899-2.256-2.049,1.489-.099,4.173-2.148,5.662-2.049,1.489-4.437-1.799-6.486-.31s-.514,3.603-2.563,5.093c-2.049,1.489-1.033,2.888-3.082,4.377s-4.573-1.984-6.623-.495c-2.047,1.487,2.37,7.567.324,9.054s-5.572-3.36-7.621-1.871-2.215,1.258-4.263,2.746c-2.05,1.489,1.599,6.512-.451,8.001s-3.531-.551-5.579.937c-2.05,1.489-4.863-2.383-6.913-.894s2.122,7.232.071,8.722c-2.051,1.49-2.339,1.092-4.39,2.582-2.051,1.49-4.518-1.907-6.569-.417-2.05,1.489-1.411,2.368-3.462,3.858-2.05,1.49.108,4.46-1.942,5.95s-5.426-3.152-7.478-1.661.827,5.457-1.226,6.949c-2.054,1.492-8.615-2.94-9.401-.526-.785,2.409,4.154,3.653,4.937,6.062s1.046,2.322,1.828,4.729c.782,2.407-2.684,3.533-1.902,5.94s1.172,2.281,1.954,4.69,4.777,1.111,5.56,3.52-3.101,3.669-2.319,6.077c.782,2.408.84,2.389,1.622,4.798.783,2.409,1.901,2.046,2.684,4.455.782,2.408,2.191,1.95,2.973,4.358.783,2.409-2.391,3.44-1.608,5.849.783,2.408,5.361.921,6.143,3.329.783,2.409-3.84,3.911-3.057,6.32.783,2.409,6.048.698,6.83,3.107.783,2.409,2.571,1.828,3.354,4.238s-1.742,3.229-.96,5.638,3.122,1.65,3.905,4.059c.783,2.41-6.175,4.671-5.392,7.081.783,2.41,7.218.319,8.001,2.728s-4.182,4.02-3.4,6.428c.783,2.409,5.167.985,5.95,3.394.782,2.408.995,2.339,1.778,4.747.783,2.409-4.46,4.113-3.677,6.522s6.055.697,6.839,3.107c.783,2.41-2.321,3.419-1.538,5.829.783,2.41,3.809,1.427,4.592,3.838.783,2.41.315,2.562,1.098,4.971.783,2.41-1.406,3.121-.623,5.531s3.348,1.579,4.132,3.991c.784,2.414-3.029,3.653-2.244,6.066.784,2.414,5.627.84,6.412,3.254.54,1.663-5.171,4.753-4.955,6.367.23,1.719.058,2.84-.046,4.479-.109,1.714,5.611,4.39,5.174,5.989-.449,1.642-3.059,2.902-3.812,4.394-.763,1.511.362,4.795-.67,6.12s-5.209.224-6.473,1.335c-1.266,1.112-3.342.926-4.791,1.786s-2.942.941-4.528,1.515-2.077,5.944-3.75,6.202c-1.651.255-3.977.407-5.677.326-1.656-.078-3.634-1.734-5.297-2.16-1.591-.407-1.347-5.635-2.91-6.385-1.468-.704-5.135,2.458-6.55,1.43-2.049-1.489.784-5.388-1.266-6.877-2.048-1.488-6.069,4.046-8.117,2.559-2.048-1.488-1.461-2.295-3.509-3.782s.936-5.596-1.112-7.084-1.343-2.461-3.392-3.949c-2.048-1.488-3.674.75-5.722-.738s-2.074-1.453-4.122-2.942-1.794-1.84-3.843-3.329c-2.048-1.488-4.058,1.278-6.107-.21-2.049-1.489.789-5.396-1.26-6.885-2.049-1.489-5.836,3.724-7.885,2.236-2.049-1.489-2.248-1.215-4.297-2.704-2.049-1.489-1.373-2.419-3.422-3.908-2.05-1.489-1.021-2.905-3.07-4.395-2.049-1.489.781-5.384-1.268-6.873-2.05-1.489-2.722-.564-4.772-2.053-2.047-1.487-4.813,2.32-6.859.833s-.183-4.057-2.233-5.546-1.403-2.376-3.451-3.864c-2.05-1.489-3.386.349-5.436-1.14-2.049-1.488-.072-4.21-2.12-5.698-2.05-1.489-4.092,1.322-6.142-.168-2.051-1.49-.917-3.05-2.968-4.54-2.051-1.49-4.468,1.837-6.518.347-2.051-1.49-2.787-.476-4.838-1.966-2.05-1.489-1.213-2.641-3.263-4.131-2.05-1.49-.529-3.583-2.58-5.073-2.052-1.491-1.643-2.055-3.695-3.546s-3.654.711-5.708-.781c-2.054-1.492-.61-2.352-3.149-2.353s-.051,2.286-2.1,3.775-1.855,1.753-3.903,3.241c-2.048,1.488-2.006,1.545-4.053,3.033s-2.268,1.185-4.317,2.674-4.242-1.529-6.291-.04c-2.048,1.488-3.496-.505-5.544.983-2.048,1.488-.782,3.231-2.831,4.719-2.049,1.489-2.619.705-4.668,2.194-2.048,1.488.597,5.129-1.451,6.617s-2.864.367-4.914,1.856c-2.049,1.489-4.791-2.286-6.84-.798-2.049,1.489-.587,3.501-2.636,4.99-2.049,1.489-1.808,1.82-3.857,3.309-2.05,1.489-4.119-1.359-6.169.13-2.049,1.489,1.966,7.015-.083,8.504-2.05,1.489-4.925-2.469-6.975-.98-2.047,1.487-1.899,1.691-3.945,3.178s-1.678,1.999-3.728,3.488-.424,3.724-2.472,5.212c-2.05,1.489-2.134,1.373-4.184,2.862-2.049,1.488-5.12-2.739-7.169-1.251-2.05,1.489-.335,3.849-2.385,5.339-2.051,1.49-2.119,1.396-4.169,2.886-2.051,1.49-.779,3.24-2.829,4.73-2.051,1.49-2.687.614-4.738,2.104-2.05,1.489-3.957-1.135-6.007.355s-.878,3.104-2.928,4.593-3.529-.541-5.581.95c-2.054,1.492,1.295,6.101-.758,7.593-2.054,1.492-1.591,2.129-3.644,3.621-1.415,1.028-5.047-1.388-6.515-.684-1.563.75-2.784,2.048-4.375,2.455-1.664.426-3.352-.045-5.008.033-1.701.08-2.916-2.025-4.567-2.28-1.672-.259-3.785,2.235-5.363,1.663-1.586-.575-3.682-.389-5.129-1.248s-1.854-3.284-3.119-4.396-.032-4.077-1.069-5.408c-1.032-1.325-3.408-1.257-4.171-2.767-.753-1.491-4.67-1.866-5.119-3.508-.437-1.599,3.104-3.931,2.995-5.645-.105-1.639.269-2.926.499-4.645.216-1.614-3.543-4.196-3.003-5.859.783-2.409,1.637-2.132,2.42-4.541s-.856-2.94-.074-5.347c.782-2.407,1.177-2.279,1.959-4.686.782-2.408,3.683-1.466,4.465-3.874s-2.604-3.509-1.821-5.918c.782-2.408,1.336-2.228,2.118-4.635.782-2.408,3.016-1.682,3.799-4.09.783-2.409-2.564-3.496-1.781-5.905.782-2.408,2.911-1.716,3.694-4.124s1.927-2.037,2.71-4.447c.783-2.408,1.71-2.107,2.493-4.515.783-2.409-3.552-3.818-2.77-6.226s1.027-2.329,1.81-4.738c.783-2.409,6.482-.558,7.264-2.967s.876-2.378,1.659-4.787c.783-2.41-2.845-3.588-2.062-5.998.783-2.41,4.788-1.108,5.571-3.518.783-2.41-2.186-3.374-1.403-5.784.782-2.407-1.756-3.232-.974-5.639.783-2.409,6.698-.488,7.481-2.897.782-2.408-.574-2.849.209-5.257.783-2.409,2.013-2.009,2.796-4.419.783-2.41-1.587-3.18-.804-5.591s.79-2.408,1.573-4.818c.783-2.41-2.409-3.447-1.626-5.858.783-2.41,4.029-1.355,4.812-3.764.783-2.41.457-2.516,1.24-4.926.784-2.412,1.728-2.105,2.511-4.517.784-2.414-4.283-4.06-3.499-6.474.784-2.414,8.25-1.958,7.468-4.373-.781-2.41-3.771-1.49-5.82-2.979s-2.679-.62-4.727-2.107c-2.048-1.488-2.603-.723-4.651-2.21-2.048-1.488-1.295-2.525-3.343-4.013s-1.033-2.887-3.082-4.375c-2.048-1.488-4.683,2.139-6.731.651-2.048-1.488-2.291-1.154-4.34-2.642-2.049-1.489.07-4.405-1.98-5.894-2.048-1.488-2.459-.923-4.507-2.412-2.049-1.489-2.413-.988-4.462-2.477-2.049-1.489-1.003-2.927-3.052-4.416-2.049-1.489-4.433,1.792-6.482.303s-2.614-.711-4.663-2.2c-2.05-1.489,2.252-7.41.202-8.899s-2.499-.869-4.548-2.358c-2.05-1.489-4.287,1.591-6.337.102s-1.923-1.658-3.97-3.145c-2.049-1.489-1.526-2.209-3.575-3.698-2.048-1.488-2.581-.754-4.629-2.242s.582-5.112-1.468-6.601-5.027,2.61-7.075,1.122c-2.05-1.489-.101-4.172-2.151-5.661-2.051-1.49-3.501.506-5.551-.984-2.051-1.49-.239-3.984-2.289-5.474s-3.181.067-5.232-1.423c-2.05-1.489-1.063-2.848-3.113-4.337-2.05-1.49-5.378,3.09-7.428,1.6s1.588-6.501-.464-7.992c-2.054-1.492-5.151,2.771-7.205,1.28s-.027-4.281-2.081-5.773c-1.415-1.028-2.913-1.722-4.036-2.901-1.196-1.255-5.199-.631-6.078-2.019-.919-1.451,3.884-5.76,3.298-7.311-.602-1.592-.575-2.691-.842-4.341-.271-1.671-7.276-2.949-7.22-4.627s1.596-3.76,1.966-5.402c.37-1.644,4.556-2.147,5.223-3.695s-1.723-4.861-.777-6.258,1.255-4.069,2.456-5.261c1.186-1.177,4.225-.95,5.647-1.884,1.386-.91,2.699-3.014,4.295-3.648,1.526-.606,3.915.037,5.62-.276,1.602-.293,3.561-.389,5.31-.389,2.533,0,2.533,1.365,5.066,1.365s2.531-2.095,5.063-2.095c2.531,0,2.531,2.721,5.062,2.721s2.532-.788,5.064-.788,2.533,4.227,5.065,4.227c2.531,0,2.531-5.662,5.063-5.662s2.532.72,5.064.72,2.533,4.726,5.066,4.726,2.532-7.735,5.064-7.735c2.533,0,2.533.905,5.066.905s2.532-.537,5.065-.537,2.533,4.76,5.066,4.76,2.533-2.131,5.066-2.131c2.533,0,2.533.756,5.067.756s2.533-.093,5.066-.093,2.534,1.836,5.067,1.836,2.534-3.517,5.068-3.517,2.534-.702,5.067-.702,2.531-1.208,5.062-1.208,2.533-.011,5.067-.011,2.532,5.653,5.064,5.653,2.533-5.27,5.066-5.27,2.534,6.987,5.069,6.987,2.534-7.037,5.069-7.037,2.534,3.898,5.069,3.898,2.535-3.86,5.07-3.86,2.534,4.12,5.067,4.12,2.536,2.465,5.072,2.465c2.538,0,2.538-5.625,5.075-5.625s2.761,3.738,4.815,2.247c2.05-1.488,3.048-1.399,3.83-3.809.782-2.407.284-2.569,1.067-4.977s3.044-1.672,3.826-4.079-1.873-3.271-1.091-5.679c.783-2.409,2.33-1.906,3.113-4.315.782-2.408-1.466-3.138-.684-5.546.782-2.408-3.373-3.758-2.591-6.166.783-2.409,6.717-.481,7.499-2.89.782-2.408-1.809-3.25-1.027-5.658.783-2.409.48-2.508,1.263-4.917s4.972-1.047,5.754-3.456c.783-2.409-5.755-4.533-4.972-6.942.783-2.409,4.483-1.207,5.265-3.615.783-2.409-1.165-3.042-.382-5.452.783-2.409-.699-2.89.084-5.299s4.163-1.311,4.946-3.721c.783-2.41-1.553-3.169-.77-5.579s-1.164-3.042-.381-5.452,6.201-.647,6.983-3.054,2.203-1.948,2.986-4.357-5.396-4.415-4.613-6.823c.783-2.409,2.676-1.794,3.459-4.203.783-2.41-1.23-3.064-.447-5.475s1.01-2.336,1.794-4.747c.783-2.41-.102-2.698.681-5.108.783-2.41,2.549-1.836,3.332-4.245.783-2.41,4.433-1.224,5.216-3.634.784-2.412,1.74-2.101,2.523-4.513.784-2.414-.444-2.813.34-5.227.784-2.414-1.511-3.159-.727-5.573.54-1.663,1.014-3.52,1.788-4.953.824-1.526,5.059-.525,6.108-1.79,1.096-1.322,2.227-1.697,3.521-2.734,1.329-1.065.032-5.821,1.519-6.585,1.505-.774,4.69,3.212,6.303,2.747s2.417-3.068,4.093-3.224,3.449-3.13,5.127-2.974c1.676.156,3.429,1.45,5.05,1.917,1.613.465,1.1,5.553,2.606,6.326,1.486.764,4.321-1.353,5.649-.289,1.294,1.037,4.594.313,5.69,1.635,1.048,1.264-.87,4.695-.046,6.221.774,1.433,4.958,1.586,5.498,3.249Z" style="fill: none; stroke: #000; stroke-linecap: round; stroke-linejoin: round; stroke-width: 45px;"/>
</svg>