<?xml version="1.0" encoding="UTF-8"?>
<svg id="Big_Assets" data-name="Big Assets" xmlns="http://www.w3.org/2000/svg" width="700" height="700" viewBox="0 0 700 700">
  <g>
    <path d="M613.442,350c0,4.769-1.724,9.473-1.975,14.179-.254,4.759.843,9.609.339,14.297-.509,4.736-3.678,9.067-4.436,13.725-.765,4.699-1.073,9.386-2.084,13.998-1.018,4.648.224,9.844-1.037,14.396-1.27,4.583-6.328,7.955-7.836,12.434-1.517,4.505-.681,9.791-2.432,14.183-1.76,4.413-6.303,7.535-8.292,11.826-1.997,4.309-2.782,9.082-5.002,13.26-2.227,4.193-2.781,9.301-5.225,13.355s-7.316,6.527-9.977,10.444c-2.666,3.924-3.769,8.894-6.638,12.662-2.873,3.774-3.872,9.133-6.941,12.742s-8.556,5.123-11.816,8.563c-3.26,3.441-4.027,9.471-7.468,12.731-3.44,3.26-11.312,1.572-14.924,4.643-3.609,3.069-4.154,9.87-7.928,12.742-3.768,2.869-9.347,3.236-13.271,5.902-3.917,2.661-8.815,3.562-12.879,6.013-4.053,2.444-7.245,6.151-11.438,8.379s-7.041,7.095-11.35,9.092c-4.291,1.989-9.944.815-14.357,2.574-4.391,1.751-9.057,2.419-13.561,3.936-4.478,1.508-8.43,4.402-13.013,5.671-4.552,1.261-8.338,5.794-12.985,6.813-4.611,1.01-9.882-1.129-14.581-.365-4.657.758-9.411.415-14.147.924-4.689.504-9.328.601-14.088.855-4.706.251-9.331,4.173-14.1,4.173s-9.581-.401-14.288-.652c-4.759-.254-9.209-3.899-13.897-4.403-4.736-.509-9.523.044-14.181-.714-4.699-.765-10.148,2.144-14.76,1.133-4.648-1.018-9.043-3.549-13.595-4.81-4.583-1.27-7.731-7.075-12.209-8.583-4.505-1.517-9.296-1.875-13.688-3.627s-8.227-4.603-12.518-6.591-9.714-1.62-13.892-3.839c-4.193-2.227-9.56-2.515-13.614-4.959-4.064-2.451-6.079-8.161-9.995-10.822-3.924-2.666-9.244-3.394-13.013-6.263-3.774-2.873-7.475-5.944-11.085-9.013-3.612-3.071-7.774-5.666-11.214-8.926s-3.14-10.229-6.401-13.669c-3.26-3.44-7.367-5.952-10.438-9.565-3.069-3.609-6.284-7.004-9.157-10.778s-8.841-5.356-11.507-9.28c-2.661-3.917-4.36-8.591-6.811-12.655-2.444-4.053-5.663-7.803-7.89-11.996-2.22-4.178-1.111-10.064-3.108-14.372-1.989-4.291-6.317-7.601-8.077-12.014-1.751-4.391-.624-9.86-2.141-14.364-1.508-4.478-3.738-8.698-5.007-13.28-1.261-4.552-3.673-8.845-4.691-13.493-1.01-4.611-3.91-8.984-4.674-13.683-.758-4.657,3.234-10.005,2.725-14.741-.504-4.689-4.912-9.099-5.166-13.858-.251-4.706,4.131-9.561,4.131-14.33s-4.199-9.614-3.948-14.32c.254-4.759,4.274-9.201,4.778-13.89.509-4.736-1.002-9.692-.244-14.35.765-4.699,2.799-9.133,3.809-13.744,1.018-4.648-.079-9.832,1.183-14.383,1.27-4.583,3.003-9.095,4.511-13.573,1.517-4.505,2.632-9.24,4.384-13.631,1.76-4.413,4.055-8.688,6.043-12.979,1.997-4.309,2.463-9.52,4.683-13.698s6.473-7.382,8.917-11.435c2.451-4.064,7.647-6.347,10.307-10.264,2.666-3.924,4.623-8.264,7.492-12.032,2.873-3.774,2.955-9.859,6.024-13.469s6.94-6.686,10.199-10.126c3.26-3.441,9.11-4.315,12.551-7.575s7.425-5.763,11.037-8.835c3.609-3.069,3.706-10.559,7.48-13.432s10.623-1.545,14.547-4.211c3.917-2.661,6.807-6.875,10.872-9.325,4.053-2.444,7.768-5.596,11.961-7.823,4.178-2.22,9.446-2.289,13.755-4.286,4.291-1.989,8.262-4.679,12.675-6.439s8.09-5.599,12.594-7.116c4.478-1.508,9.698-.873,14.281-2.142,4.552-1.261,8.531-5.266,13.178-6.285,4.611-1.01,9.454-1.782,14.152-2.547,4.657-.758,9.849,1.751,14.585,1.242,4.689-.504,9.379-1.223,14.138-1.477,4.706-.251,9.447,1.136,14.216,1.136s9.69-4.774,14.396-4.522c4.759.254,9.309,3.993,13.997,4.498,4.736.509,9.182,2.713,13.839,3.471,4.699.765,9.21,1.93,13.821,2.941,4.648,1.018,9.576.604,14.128,1.865,4.583,1.27,10.128-.389,14.607,1.12,4.505,1.517,6.801,8.992,11.192,10.743,4.413,1.76,8.717,3.324,13.008,5.313s9.33,2.3,13.509,4.52c4.193,2.227,10.529.79,14.582,3.234,4.064,2.451,8.13,5.223,12.046,7.884,3.924,2.666,6.73,7.092,10.498,9.961,3.774,2.873,5.296,8.505,8.905,11.573,3.612,3.071,8.134,5.02,11.574,8.279s5.873,7.44,9.134,10.881c3.26,3.44,6.901,6.434,9.973,10.047,3.069,3.609,8.205,5.579,11.078,9.353s3.37,9.264,6.036,13.189,3.204,9.05,5.654,13.114c2.444,4.053,7.611,6.462,9.838,10.654,2.22,4.178,6.286,7.507,8.283,11.816,1.989,4.291,1.298,9.785,3.058,14.198s1.894,9.297,3.411,13.801c1.508,4.478,2.785,8.907,4.055,13.49,1.261,4.552,2.98,8.889,3.999,13.537,1.01,4.611,1.905,9.166,2.669,13.865.758,4.657,3.068,9.076,3.577,13.812.504,4.689,1.372,9.382,1.626,14.141.251,4.706.947,9.465.947,14.234Z"/>
    <path d="M613.442,350c0,4.769-1.724,9.473-1.975,14.179-.254,4.759.843,9.609.339,14.297-.509,4.736-3.678,9.067-4.436,13.725-.765,4.699-1.073,9.386-2.084,13.998-1.018,4.648.224,9.844-1.037,14.396-1.27,4.583-6.328,7.955-7.836,12.434-1.517,4.505-.681,9.791-2.432,14.183-1.76,4.413-6.303,7.535-8.292,11.826-1.997,4.309-2.782,9.082-5.002,13.26-2.227,4.193-2.781,9.301-5.225,13.355s-7.316,6.527-9.977,10.444c-2.666,3.924-3.769,8.894-6.638,12.662-2.873,3.774-3.872,9.133-6.941,12.742s-8.556,5.123-11.816,8.563c-3.26,3.441-4.027,9.471-7.468,12.731-3.44,3.26-11.312,1.572-14.924,4.643-3.609,3.069-4.154,9.87-7.928,12.742-3.768,2.869-9.347,3.236-13.271,5.902-3.917,2.661-8.815,3.562-12.879,6.013-4.053,2.444-7.245,6.151-11.438,8.379s-7.041,7.095-11.35,9.092c-4.291,1.989-9.944.815-14.357,2.574-4.391,1.751-9.057,2.419-13.561,3.936-4.478,1.508-8.43,4.402-13.013,5.671-4.552,1.261-8.338,5.794-12.985,6.813-4.611,1.01-9.882-1.129-14.581-.365-4.657.758-9.411.415-14.147.924-4.689.504-9.328.601-14.088.855-4.706.251-9.331,4.173-14.1,4.173s-9.581-.401-14.288-.652c-4.759-.254-9.209-3.899-13.897-4.403-4.736-.509-9.523.044-14.181-.714-4.699-.765-10.148,2.144-14.76,1.133-4.648-1.018-9.043-3.549-13.595-4.81-4.583-1.27-7.731-7.075-12.209-8.583-4.505-1.517-9.296-1.875-13.688-3.627s-8.227-4.603-12.518-6.591-9.714-1.62-13.892-3.839c-4.193-2.227-9.56-2.515-13.614-4.959-4.064-2.451-6.079-8.161-9.995-10.822-3.924-2.666-9.244-3.394-13.013-6.263-3.774-2.873-7.475-5.944-11.085-9.013-3.612-3.071-7.774-5.666-11.214-8.926s-3.14-10.229-6.401-13.669c-3.26-3.44-7.367-5.952-10.438-9.565-3.069-3.609-6.284-7.004-9.157-10.778s-8.841-5.356-11.507-9.28c-2.661-3.917-4.36-8.591-6.811-12.655-2.444-4.053-5.663-7.803-7.89-11.996-2.22-4.178-1.111-10.064-3.108-14.372-1.989-4.291-6.317-7.601-8.077-12.014-1.751-4.391-.624-9.86-2.141-14.364-1.508-4.478-3.738-8.698-5.007-13.28-1.261-4.552-3.673-8.845-4.691-13.493-1.01-4.611-3.91-8.984-4.674-13.683-.758-4.657,3.234-10.005,2.725-14.741-.504-4.689-4.912-9.099-5.166-13.858-.251-4.706,4.131-9.561,4.131-14.33s-4.199-9.614-3.948-14.32c.254-4.759,4.274-9.201,4.778-13.89.509-4.736-1.002-9.692-.244-14.35.765-4.699,2.799-9.133,3.809-13.744,1.018-4.648-.079-9.832,1.183-14.383,1.27-4.583,3.003-9.095,4.511-13.573,1.517-4.505,2.632-9.24,4.384-13.631,1.76-4.413,4.055-8.688,6.043-12.979,1.997-4.309,2.463-9.52,4.683-13.698s6.473-7.382,8.917-11.435c2.451-4.064,7.647-6.347,10.307-10.264,2.666-3.924,4.623-8.264,7.492-12.032,2.873-3.774,2.955-9.859,6.024-13.469s6.94-6.686,10.199-10.126c3.26-3.441,9.11-4.315,12.551-7.575s7.425-5.763,11.037-8.835c3.609-3.069,3.706-10.559,7.48-13.432s10.623-1.545,14.547-4.211c3.917-2.661,6.807-6.875,10.872-9.325,4.053-2.444,7.768-5.596,11.961-7.823,4.178-2.22,9.446-2.289,13.755-4.286,4.291-1.989,8.262-4.679,12.675-6.439s8.09-5.599,12.594-7.116c4.478-1.508,9.698-.873,14.281-2.142,4.552-1.261,8.531-5.266,13.178-6.285,4.611-1.01,9.454-1.782,14.152-2.547,4.657-.758,9.849,1.751,14.585,1.242,4.689-.504,9.379-1.223,14.138-1.477,4.706-.251,9.447,1.136,14.216,1.136s9.69-4.774,14.396-4.522c4.759.254,9.309,3.993,13.997,4.498,4.736.509,9.182,2.713,13.839,3.471,4.699.765,9.21,1.93,13.821,2.941,4.648,1.018,9.576.604,14.128,1.865,4.583,1.27,10.128-.389,14.607,1.12,4.505,1.517,6.801,8.992,11.192,10.743,4.413,1.76,8.717,3.324,13.008,5.313s9.33,2.3,13.509,4.52c4.193,2.227,10.529.79,14.582,3.234,4.064,2.451,8.13,5.223,12.046,7.884,3.924,2.666,6.73,7.092,10.498,9.961,3.774,2.873,5.296,8.505,8.905,11.573,3.612,3.071,8.134,5.02,11.574,8.279s5.873,7.44,9.134,10.881c3.26,3.44,6.901,6.434,9.973,10.047,3.069,3.609,8.205,5.579,11.078,9.353s3.37,9.264,6.036,13.189,3.204,9.05,5.654,13.114c2.444,4.053,7.611,6.462,9.838,10.654,2.22,4.178,6.286,7.507,8.283,11.816,1.989,4.291,1.298,9.785,3.058,14.198s1.894,9.297,3.411,13.801c1.508,4.478,2.785,8.907,4.055,13.49,1.261,4.552,2.98,8.889,3.999,13.537,1.01,4.611,1.905,9.166,2.669,13.865.758,4.657,3.068,9.076,3.577,13.812.504,4.689,1.372,9.382,1.626,14.141.251,4.706.947,9.465.947,14.234Z" style="fill: none; stroke: #000; stroke-miterlimit: 10; stroke-width: 50px;"/>
  </g>
  <g>
    <path d="M193.047,373.845c1.314,7.135,7.731,3.378,13.701,7.501,5.971,4.123,4.397,6.403,10.368,10.526,5.97,4.123,7.111,2.47,13.081,6.593,5.97,4.123,7.438,1.998,13.409,6.121,5.971,4.123,4.224,6.652,10.195,10.775,5.969,4.122,8.084,1.058,14.053,5.18,5.97,4.123,2.267,9.486,8.237,13.609,5.972,4.124,8.79.045,14.762,4.169,5.97,4.123,4.287,6.56,10.258,10.683,5.974,4.126,4.904,5.676,10.878,9.802,5.974,4.126,6.785,7.874,14.013,7.185,7.153-.682,3.822-7.829,8.811-13.001,4.99-5.173,7.377-2.87,12.367-8.043,4.989-5.172,5.697-4.488,10.686-9.66s3.834-6.289,8.824-11.462c4.991-5.174,2.48-7.597,7.471-12.77,4.99-5.173,7.215-3.027,12.206-8.2,4.99-5.173,5.694-4.495,10.684-9.668,4.991-5.174,5.189-4.982,10.18-10.156,4.992-5.175,2.259-7.811,7.251-12.986,4.991-5.174,5.187-4.985,10.177-10.159,4.991-5.174,7.35-2.899,12.341-8.073,4.99-5.173,4.134-5.999,9.124-11.172,4.99-5.173,2.198-7.867,7.188-13.04,4.991-5.174,5.998-4.203,10.989-9.378,4.993-5.176,8.324-1.963,13.317-7.139,4.992-5.174,4.043-6.089,9.035-11.264,4.995-5.178,5.788-4.413,10.783-9.591s8.236-4.996,7.986-12.186c-.277-7.974-7.124-4.209-12.504-10.101-5.378-5.89-2.629-8.4-8.007-14.29-5.382-5.894-7.241-4.196-12.623-10.09s-1.929-10.894-9.891-11.44c-7.033-.482-3.149,5.378-7.91,10.576s-8.553,1.726-13.315,6.926c-4.761,5.198-3.744,6.13-8.505,11.328-4.761,5.199-4.483,5.453-9.245,10.651-4.762,5.199-1.87,7.848-6.631,13.047-4.762,5.2-5.567,4.463-10.329,9.663s-4.06,5.842-8.821,11.041c-4.762,5.2-7.427,2.759-12.189,7.959-4.761,5.198-2.795,6.999-7.556,12.197-4.761,5.198-6.934,3.208-11.695,8.407-4.762,5.2-4.103,5.803-8.865,11.003-4.764,5.201-3.8,6.084-8.564,11.286-4.762,5.2-3.266,6.57-8.029,11.77-4.766,5.203-8.212,2.046-12.978,7.25s-.934,13.213-7.963,13.833c-6.742.595-3.904-8.289-9.111-12.613-5.206-4.323-7.971-.992-13.177-5.315-5.206-4.323-2.873-7.132-8.079-11.455-5.207-4.324-6.589-2.661-11.796-6.985-5.209-4.326-4.464-5.223-9.673-9.549s-6.686-2.544-11.893-6.868-4.998-4.584-10.209-8.911-2.617-8.681-9.33-7.78c-6.914.927-3.242,4.591-7.421,10.178-4.18,5.588-2.657,6.728-6.837,12.316-4.179,5.586-5.878,4.315-10.057,9.902-4.182,5.59-5.14,4.564-10.561,8.963-6.27,5.088-9.872,6.037-8.608,12.902Z" style="fill: #fff;"/>
    <path d="M193.047,373.845c1.314,7.135,7.731,3.378,13.701,7.501,5.971,4.123,4.397,6.403,10.368,10.526,5.97,4.123,7.111,2.47,13.081,6.593,5.97,4.123,7.438,1.998,13.409,6.121,5.971,4.123,4.224,6.652,10.195,10.775,5.969,4.122,8.084,1.058,14.053,5.18,5.97,4.123,2.267,9.486,8.237,13.609,5.972,4.124,8.79.045,14.762,4.169,5.97,4.123,4.287,6.56,10.258,10.683,5.974,4.126,4.904,5.676,10.878,9.802,5.974,4.126,6.785,7.874,14.013,7.185,7.153-.682,3.822-7.829,8.811-13.001,4.99-5.173,7.377-2.87,12.367-8.043,4.989-5.172,5.697-4.488,10.686-9.66s3.834-6.289,8.824-11.462c4.991-5.174,2.48-7.597,7.471-12.77,4.99-5.173,7.215-3.027,12.206-8.2,4.99-5.173,5.694-4.495,10.684-9.668,4.991-5.174,5.189-4.982,10.18-10.156,4.992-5.175,2.259-7.811,7.251-12.986,4.991-5.174,5.187-4.985,10.177-10.159,4.991-5.174,7.35-2.899,12.341-8.073,4.99-5.173,4.134-5.999,9.124-11.172,4.99-5.173,2.198-7.867,7.188-13.04,4.991-5.174,5.998-4.203,10.989-9.378,4.993-5.176,8.324-1.963,13.317-7.139,4.992-5.174,4.043-6.089,9.035-11.264,4.995-5.178,5.788-4.413,10.783-9.591s8.236-4.996,7.986-12.186c-.277-7.974-7.124-4.209-12.504-10.101-5.378-5.89-2.629-8.4-8.007-14.29-5.382-5.894-7.241-4.196-12.623-10.09s-1.929-10.894-9.891-11.44c-7.033-.482-3.149,5.378-7.91,10.576s-8.553,1.726-13.315,6.926c-4.761,5.198-3.744,6.13-8.505,11.328-4.761,5.199-4.483,5.453-9.245,10.651-4.762,5.199-1.87,7.848-6.631,13.047-4.762,5.2-5.567,4.463-10.329,9.663s-4.06,5.842-8.821,11.041c-4.762,5.2-7.427,2.759-12.189,7.959-4.761,5.198-2.795,6.999-7.556,12.197-4.761,5.198-6.934,3.208-11.695,8.407-4.762,5.2-4.103,5.803-8.865,11.003-4.764,5.201-3.8,6.084-8.564,11.286-4.762,5.2-3.266,6.57-8.029,11.77-4.766,5.203-8.212,2.046-12.978,7.25s-.934,13.213-7.963,13.833c-6.742.595-3.904-8.289-9.111-12.613-5.206-4.323-7.971-.992-13.177-5.315-5.206-4.323-2.873-7.132-8.079-11.455-5.207-4.324-6.589-2.661-11.796-6.985-5.209-4.326-4.464-5.223-9.673-9.549s-6.686-2.544-11.893-6.868-4.998-4.584-10.209-8.911-2.617-8.681-9.33-7.78c-6.914.927-3.242,4.591-7.421,10.178-4.18,5.588-2.657,6.728-6.837,12.316-4.179,5.586-5.878,4.315-10.057,9.902-4.182,5.59-5.14,4.564-10.561,8.963-6.27,5.088-9.872,6.037-8.608,12.902Z" style="fill: none; stroke: #fff; stroke-linecap: round; stroke-linejoin: round; stroke-width: 30px;"/>
  </g>
</svg>