<?xml version="1.0" encoding="UTF-8"?>
<svg id="Small" xmlns="http://www.w3.org/2000/svg" width="160" height="160" viewBox="0 0 160 160">
  <path d="M61.244,113.916c1.602,1.162.819-1.328,2.513-2.35s1.724-.977,3.421-2.001,2.346.053,4.043-.971,1.398-1.519,3.096-2.543,2.298-.033,3.998-1.059.937-2.902,2.922-2.896.938,2.327,2.633,3.363,3.137-1.32,4.833-.283.399,3.161,2.096,4.198,2.035.485,3.732,1.522,1.793.886,3.493,1.925,1.249,1.94,2.868.779.153-.913-.292-2.852-1.33-1.736-1.774-3.674-.404-1.948-.848-3.887-.84-1.849-1.284-3.788,1.614-2.414,1.169-4.357-2.719-1.995-2.105-3.891c.608-1.878,2.285-.803,3.778-2.094s.55-2.385,2.045-3.678,1.698-1.058,3.193-2.351,2.896.327,4.391-.966.562-2.377,2.06-3.672,4.023-.843,3.422-2.73-2.35-.544-4.316-.719-2.137,1.751-4.102,1.576-1.903-.881-3.869-1.056-2.002.227-3.968.052-1.988.034-3.957-.142-2.481-.159-4.078-1.324c-1.608-1.173-1.674-1.693-2.455-3.525s-.426-1.982-1.207-3.813-.686-1.871-1.467-3.702-.088-2.127-.87-3.958-.72-1.861-1.503-3.695.371-3.186-1.624-3.208c-1.978-.021-1.534,1.054-2.316,2.872s-1.228,1.625-2.009,3.442-.879,1.776-1.66,3.593.16,2.222-.621,4.04-1.726,1.416-2.508,3.237,1.187,2.821-.417,3.985-1.935-1.04-3.901-.865-1.908.817-3.874.992-2.022-.455-3.987-.28-1.812,1.905-3.778,2.081-2.104-1.34-4.074-1.164-1.922.094-2.528,1.976-.785,2,.708,3.305,2.437.227,3.932,1.533,2.246.447,3.741,1.753.984,1.892,2.479,3.198.862,2.036,2.36,3.345,4.023-.158,4.639,1.733c.612,1.879-1.347,2.394-1.791,4.32s-.189,1.984-.634,3.909-.017,2.024-.462,3.949-2.728,1.399-3.172,3.325,2.058,2.771,1.176,4.543c-.861,1.728-2.894,1.787-1.291,2.949ZM40.928,141.958c-1.575-1.133-.127-2.63.31-4.52s.49-1.88.928-3.772,1.662-1.608,2.099-3.499-.126-2.022.311-3.915,1.567-1.632,2.004-3.525-.516-2.113-.078-4.006,1.904-1.554,2.341-3.447-2.253-2.515-1.815-4.407,2.863-1.332,3.3-3.224-.193-2.039.245-3.932.264-1.936.703-3.833-.034-1.641-.634-3.492-.378-1.559-1.844-2.83-2.063-.586-3.531-1.859-1.44-1.304-2.907-2.576-1.733-.966-3.201-2.239-.085-2.869-1.553-4.142-2.293-.322-3.762-1.595-.834-2.001-2.301-3.273-2.414-.182-3.883-1.455-1.265-1.508-2.734-2.781-.066-2.892-1.535-4.165-2.408-.195-3.88-1.471-3.115-.557-2.517-2.41,1.553.2,3.491.031,1.772-2.095,3.712-2.263,2,.538,3.938.369,1.904-.57,3.843-.739,1.922-.377,3.862-.546,2.017.723,3.957.554,1.87-.979,3.81-1.148,1.973.216,3.912.048,1.949-.066,3.888-.234,2.005.582,3.946.413,1.949-.102,3.893-.27,2.044.392,3.625-.751c1.568-1.135,1.771-1.107,2.524-2.889s1.203-1.595,1.957-3.379.852-1.742,1.606-3.525-.189-2.183.565-3.967,1.701-1.385,2.455-3.17-.307-2.234.448-4.019,1.831-1.33,2.586-3.115.161-2.035.915-3.82,1.337-1.539,2.091-3.324-.846-2.462-.091-4.247,2.157-1.196,2.913-2.984-1.549-5.41.392-5.417-.606,3.729.148,5.511,2.074,1.227,2.828,3.011,1.805,1.339,2.559,3.123.038,2.087.793,3.871-.135,2.161.62,3.946,2.531,1.034,3.285,2.82-.127,2.158.628,3.943.995,1.683,1.75,3.467,1.158,1.614,1.912,3.399-1.404,2.697-.649,4.483,2.774.935,3.53,2.723-1.436,3.567.134,4.708,2.43.336,4.367.504,2.02-.762,3.96-.594,2.013-.694,3.951-.525,1.902.601,3.841.769,1.909.527,3.849.696,1.821,1.535,3.761,1.703,2.102-1.695,4.042-1.526,1.893.708,3.832.876,1.936.214,3.876.383,1.854,1.161,3.794,1.329,2.088-1.494,4.031-1.325,3.178-.878,3.791.974-2.36.18-3.826,1.452-1.244,1.532-2.712,2.804.186,3.178-1.281,4.45-3.189-.713-4.657.56-.57,2.31-2.038,3.583-.82,2.021-2.288,3.295-2.93-.416-4.397.855-.771,2.078-2.239,3.351-2.087.56-3.555,1.834.127,3.114-1.342,4.388-1.906.775-3.377,2.051-3.146-.016-3.75,1.835,2.074,1.657,2.512,3.548-.484,2.105-.046,3.998,1.114,1.735,1.551,3.626-.757,2.168-.319,4.06-.795,2.178-.357,4.071,2.525,1.41,2.963,3.303-.306,2.065.132,3.958,1.277,1.698,1.715,3.59.171,1.954.609,3.847-.668,2.149-.23,4.042,1.763,1.59,2.201,3.486,2.29,3.77.719,4.918-3.086-.702-4.748-1.704-1.015-2.078-2.678-3.082-1.284-1.629-2.947-2.632-2.469.333-4.133-.67-.499-2.935-2.163-3.938-2.856.972-4.52-.032-.977-2.138-2.639-3.14-1.203-1.767-2.867-2.77-1.902-.609-3.566-1.613-1.421-1.408-3.085-2.412-2.957,1.133-4.624.127-.698-3.047-2.645-3.048-2.155.078-3.817,1.081-1.312,1.586-2.975,2.59-1.815.749-3.478,1.752-.788,2.454-2.451,3.457-2.229.066-3.893,1.07-1.543,1.204-3.207,2.208-1.974.486-3.636,1.488-.962,2.167-2.626,3.171-1.426,1.398-3.09,2.402-1.971.495-3.636,1.499-1.589.671-2.939,2.074c-1.718,1.787-2.981,2.852-4.561,1.715Z" style="fill: #4d4d4d;"/>
</svg>