<?xml version="1.0" encoding="UTF-8"?>
<svg id="Small" xmlns="http://www.w3.org/2000/svg" width="240" height="240" viewBox="0 0 240 240">
  <path d="M44.732,204.653c1.405,1.353,2.218-.796,4.169-.796s1.952,1.374,3.905,1.374,1.951-.22,3.903-.22,1.952-2.006,3.904-2.006,1.953,1.877,3.906,1.877,1.953-1.926,3.906-1.926,1.953.416,3.906.416,1.953,1.406,3.905,1.406,1.953-.484,3.906-.484,1.953-.623,3.907-.623,1.956-.5,3.913-.5,3.159,3.245,4.572,1.891c1.353-1.296-1.95-2.562-1.95-4.436s.14-1.874.14-3.749.511-1.874.511-3.748-.622-1.875-.622-3.749c0-1.874,1.548-1.874,1.548-3.748,0-1.874-.812-1.874-.812-3.748,0-1.872,1.963-1.872,1.963-3.744s-2.853-1.874-2.853-3.749.785-1.873.785-3.747.56-1.875.56-3.75.22-1.874.22-3.748.809-1.875.809-3.75-1.093-1.876-1.093-3.751,1.278-1.876,1.278-3.751c0-1.876-.646-1.876-.646-3.751,0-1.875-.721-1.875-.721-3.75,0-1.875-.76-1.875-.76-3.751,0-1.876,2.006-1.876,2.006-3.752,0-1.879-.063-1.879-.063-3.758s-1.838-1.981-.512-3.312,1.427-.855,3.301-.855,1.872-1.004,3.744-1.004,1.874,1.641,3.748,1.641,1.873.644,3.746.644,1.875-1.462,3.75-1.462,1.874-.328,3.747-.328,1.875.515,3.749.515,1.875.813,3.751.813,1.875-1.425,3.751-1.425,1.875,2.24,3.751,2.24,1.875-2.187,3.75-2.187,1.875.657,3.75.657,1.876.846,3.751.846,1.879-.301,3.757-.301,1.368-.505,2.698.822c1.327,1.323,1.328.812,1.328,2.686s-.493,1.874-.493,3.749.375,1.874.375,3.748c0,1.875.388,1.875.388,3.749,0,1.874-.107,1.874-.107,3.748,0,1.874-1.188,1.874-1.188,3.748s-.099,1.872-.099,3.744.592,1.874.592,3.749.111,1.873.111,3.747-1.178,1.875-1.178,3.75-.163,1.874-.163,3.748.233,1.875.233,3.75.298,1.876.298,3.751c0,1.876-.059,1.876-.059,3.751s-.172,1.876-.172,3.751c0,1.875-.116,1.875-.116,3.75q0,1.875-.004,3.751c0,1.876,1.821,1.876,1.821,3.752s-1.424,1.879-1.424,3.758.502,1.479,1.856,2.782c1.405,1.353,1.011-.261,2.962-.261s1.952,2.528,3.905,2.528,1.951-.568,3.903-.568,1.952-2.06,3.904-2.06,1.953.845,3.906.845,1.953-1.008,3.906-1.008,1.953,1.22,3.906,1.22,1.953-.092,3.905-.092,1.953.542,3.906.542,1.953.855,3.907.855,1.956-1.975,3.913-1.975,3.104,2.934,4.517,1.58c1.354-1.297.299-2.505.299-4.38,0-1.874-1.584-1.874-1.584-3.747s1.765-1.873,1.765-3.746.402-1.874.402-3.748c0-1.875-1.279-1.875-1.279-3.749s.594-1.874.594-3.747-1.343-1.874-1.343-3.748c0-1.875,1.578-1.875,1.578-3.75s.323-1.874.323-3.748-.588-1.875-.588-3.75.357-1.874.357-3.749c0-1.875-.765-1.875-.765-3.749s-1.489-1.875-1.489-3.749.206-1.875.206-3.75c0-1.875,1.008-1.875,1.008-3.749,0-1.875-1.125-1.875-1.125-3.749,0-1.873-.069-1.873-.069-3.745,0-1.875,2.467-1.875,2.467-3.749s-.456-1.874-.456-3.747c0-1.875-1.908-1.875-1.908-3.751s.92-1.874.92-3.749c0-1.875-.835-1.875-.835-3.75s.66-1.876.66-3.752c0-1.876.722-1.876.722-3.752s-.698-1.876-.698-3.752c0-1.876-.552-1.876-.552-3.751s.796-1.876.796-3.752c0-1.876.55-1.876.55-3.753,0-1.879-.343-1.879-.343-3.759,0-1.879-.461-1.536-1.3-3.218-.837-1.676-.231-1.91-1.73-3.034-1.499-1.124-1.83-.684-3.329-1.808-1.5-1.125-1.249-1.459-2.749-2.584s-2.121-.296-3.62-1.42c-1.5-1.125-1.692-.869-3.192-1.993s-.409-2.578-1.909-3.702c-1.5-1.125-1.992-.469-3.491-1.593-1.498-1.124-1.342-1.333-2.84-2.456-1.497-1.123-1.661-.905-3.158-2.028s-1.979-.482-3.478-1.606c-1.5-1.125-.542-2.402-2.042-3.527-1.498-1.124-1.962-.505-3.46-1.629s-1.183-1.548-2.683-2.673c-1.499-1.124-.923-1.893-2.422-3.017-1.501-1.125-2.557.283-4.058-.842s-.655-2.251-2.154-3.376-2.039-.407-3.54-1.532c-1.501-1.126-2.161-.246-3.662-1.372s-1.63-.954-3.131-2.08-.655-2.25-2.155-3.374-1.732-.818-3.233-1.944c-1.501-1.126-1.712-.845-3.213-1.971s-.345-2.668-1.847-3.794c-1.504-1.128-1.718-.843-3.222-1.971-1.504-1.128-1.724-.493-3.604-.495-1.873-.002-1.376.319-2.875,1.443-1.499,1.124-1.714.838-3.213,1.962s-1.796.729-3.296,1.854-1.393,1.265-2.892,2.39c-1.5,1.125-1.127,1.622-2.627,2.747s-1.035,1.744-2.534,2.869-1.296,1.397-2.795,2.521c-1.498,1.124-2.671-.44-4.17.684-1.497,1.123-1.055,1.713-2.552,2.835-1.498,1.124-2.347-.008-3.845,1.116s-.696,2.197-2.196,3.321c-1.498,1.124-1.389,1.269-2.887,2.393s-1.629.953-3.129,2.078c-1.499,1.124-.929,1.885-2.428,3.009s-1.692.87-3.193,1.995-2.209.179-3.709,1.303-.666,2.237-2.167,3.363c-1.501,1.126-1.845.667-3.346,1.793s-.969,1.835-2.47,2.961c-1.499,1.124-1.331,1.349-2.83,2.473-1.501,1.126-2.113.309-3.614,1.435s-2.579-.311-4.08.815-.461,2.514-1.963,3.64c-1.504,1.128-2.355-.007-3.859,1.121-1.504,1.128-1.383,1.532-2.225,3.213-.84,1.676-.26,1.823-.26,3.697,0,1.874,1.541,1.874,1.541,3.747,0,1.873-2.276,1.873-2.276,3.746,0,1.874,1.804,1.874,1.804,3.748s-2.393,1.875-2.393,3.749.966,1.874.966,3.747c0,1.874,1.369,1.874,1.369,3.748s-.85,1.875-.85,3.75c0,1.874.436,1.874.436,3.748,0,1.875-1.562,1.875-1.562,3.75s2.469,1.874,2.469,3.749-.908,1.875-.908,3.749-.843,1.875-.843,3.749.344,1.875.344,3.75c0,1.875-.486,1.875-.486,3.749,0,1.875.737,1.875.737,3.749s.587,1.873.587,3.745-1.902,1.875-1.902,3.749-.002,1.874-.002,3.747.171,1.875.171,3.751.731,1.874.731,3.749.224,1.875.224,3.75-1.266,1.876-1.266,3.752c0,1.876.967,1.876.967,3.752,0,1.876-.49,1.876-.49,3.752,0,1.876.563,1.876.563,3.751,0,1.876-.346,1.876-.346,3.752,0,1.876-.367,1.876-.367,3.753s.031,1.595-.425,3.418c-.525,2.101-.258,3.073,1.096,4.377Z" style="fill: #fff;"/>
  <path d="M44.732,204.653c1.405,1.353,2.218-.796,4.169-.796s1.952,1.374,3.905,1.374,1.951-.22,3.903-.22,1.952-2.006,3.904-2.006,1.953,1.877,3.906,1.877,1.953-1.926,3.906-1.926,1.953.416,3.906.416,1.953,1.406,3.905,1.406,1.953-.484,3.906-.484,1.953-.623,3.907-.623,1.956-.5,3.913-.5,3.159,3.245,4.572,1.891c1.353-1.296-1.95-2.562-1.95-4.436s.14-1.874.14-3.749.511-1.874.511-3.748-.622-1.875-.622-3.749c0-1.874,1.548-1.874,1.548-3.748,0-1.874-.812-1.874-.812-3.748,0-1.872,1.963-1.872,1.963-3.744s-2.853-1.874-2.853-3.749.785-1.873.785-3.747.56-1.875.56-3.75.22-1.874.22-3.748.809-1.875.809-3.75-1.093-1.876-1.093-3.751,1.278-1.876,1.278-3.751c0-1.876-.646-1.876-.646-3.751,0-1.875-.721-1.875-.721-3.75,0-1.875-.76-1.875-.76-3.751,0-1.876,2.006-1.876,2.006-3.752,0-1.879-.063-1.879-.063-3.758s-1.838-1.981-.512-3.312,1.427-.855,3.301-.855,1.872-1.004,3.744-1.004,1.874,1.641,3.748,1.641,1.873.644,3.746.644,1.875-1.462,3.75-1.462,1.874-.328,3.747-.328,1.875.515,3.749.515,1.875.813,3.751.813,1.875-1.425,3.751-1.425,1.875,2.24,3.751,2.24,1.875-2.187,3.75-2.187,1.875.657,3.75.657,1.876.846,3.751.846,1.879-.301,3.757-.301,1.368-.505,2.698.822c1.327,1.323,1.328.812,1.328,2.686s-.493,1.874-.493,3.749.375,1.874.375,3.748c0,1.875.388,1.875.388,3.749,0,1.874-.107,1.874-.107,3.748,0,1.874-1.188,1.874-1.188,3.748s-.099,1.872-.099,3.744.592,1.874.592,3.749.111,1.873.111,3.747-1.178,1.875-1.178,3.75-.163,1.874-.163,3.748.233,1.875.233,3.75.298,1.876.298,3.751c0,1.876-.059,1.876-.059,3.751s-.172,1.876-.172,3.751c0,1.875-.116,1.875-.116,3.75q0,1.875-.004,3.751c0,1.876,1.821,1.876,1.821,3.752s-1.424,1.879-1.424,3.758.502,1.479,1.856,2.782c1.405,1.353,1.011-.261,2.962-.261s1.952,2.528,3.905,2.528,1.951-.568,3.903-.568,1.952-2.06,3.904-2.06,1.953.845,3.906.845,1.953-1.008,3.906-1.008,1.953,1.22,3.906,1.22,1.953-.092,3.905-.092,1.953.542,3.906.542,1.953.855,3.907.855,1.956-1.975,3.913-1.975,3.104,2.934,4.517,1.58c1.354-1.297.299-2.505.299-4.38,0-1.874-1.584-1.874-1.584-3.747s1.765-1.873,1.765-3.746.402-1.874.402-3.748c0-1.875-1.279-1.875-1.279-3.749s.594-1.874.594-3.747-1.343-1.874-1.343-3.748c0-1.875,1.578-1.875,1.578-3.75s.323-1.874.323-3.748-.588-1.875-.588-3.75.357-1.874.357-3.749c0-1.875-.765-1.875-.765-3.749s-1.489-1.875-1.489-3.749.206-1.875.206-3.75c0-1.875,1.008-1.875,1.008-3.749,0-1.875-1.125-1.875-1.125-3.749,0-1.873-.069-1.873-.069-3.745,0-1.875,2.467-1.875,2.467-3.749s-.456-1.874-.456-3.747c0-1.875-1.908-1.875-1.908-3.751s.92-1.874.92-3.749c0-1.875-.835-1.875-.835-3.75s.66-1.876.66-3.752c0-1.876.722-1.876.722-3.752s-.698-1.876-.698-3.752c0-1.876-.552-1.876-.552-3.751s.796-1.876.796-3.752c0-1.876.55-1.876.55-3.753,0-1.879-.343-1.879-.343-3.759,0-1.879-.461-1.536-1.3-3.218-.837-1.676-.231-1.91-1.73-3.034-1.499-1.124-1.83-.684-3.329-1.808-1.5-1.125-1.249-1.459-2.749-2.584s-2.121-.296-3.62-1.42c-1.5-1.125-1.692-.869-3.192-1.993s-.409-2.578-1.909-3.702c-1.5-1.125-1.992-.469-3.491-1.593-1.498-1.124-1.342-1.333-2.84-2.456-1.497-1.123-1.661-.905-3.158-2.028s-1.979-.482-3.478-1.606c-1.5-1.125-.542-2.402-2.042-3.527-1.498-1.124-1.962-.505-3.46-1.629s-1.183-1.548-2.683-2.673c-1.499-1.124-.923-1.893-2.422-3.017-1.501-1.125-2.557.283-4.058-.842s-.655-2.251-2.154-3.376-2.039-.407-3.54-1.532c-1.501-1.126-2.161-.246-3.662-1.372s-1.63-.954-3.131-2.08-.655-2.25-2.155-3.374-1.732-.818-3.233-1.944c-1.501-1.126-1.712-.845-3.213-1.971s-.345-2.668-1.847-3.794c-1.504-1.128-1.718-.843-3.222-1.971-1.504-1.128-1.724-.493-3.604-.495-1.873-.002-1.376.319-2.875,1.443-1.499,1.124-1.714.838-3.213,1.962s-1.796.729-3.296,1.854-1.393,1.265-2.892,2.39c-1.5,1.125-1.127,1.622-2.627,2.747s-1.035,1.744-2.534,2.869-1.296,1.397-2.795,2.521c-1.498,1.124-2.671-.44-4.17.684-1.497,1.123-1.055,1.713-2.552,2.835-1.498,1.124-2.347-.008-3.845,1.116s-.696,2.197-2.196,3.321c-1.498,1.124-1.389,1.269-2.887,2.393s-1.629.953-3.129,2.078c-1.499,1.124-.929,1.885-2.428,3.009s-1.692.87-3.193,1.995-2.209.179-3.709,1.303-.666,2.237-2.167,3.363c-1.501,1.126-1.845.667-3.346,1.793s-.969,1.835-2.47,2.961c-1.499,1.124-1.331,1.349-2.83,2.473-1.501,1.126-2.113.309-3.614,1.435s-2.579-.311-4.08.815-.461,2.514-1.963,3.64c-1.504,1.128-2.355-.007-3.859,1.121-1.504,1.128-1.383,1.532-2.225,3.213-.84,1.676-.26,1.823-.26,3.697,0,1.874,1.541,1.874,1.541,3.747,0,1.873-2.276,1.873-2.276,3.746,0,1.874,1.804,1.874,1.804,3.748s-2.393,1.875-2.393,3.749.966,1.874.966,3.747c0,1.874,1.369,1.874,1.369,3.748s-.85,1.875-.85,3.75c0,1.874.436,1.874.436,3.748,0,1.875-1.562,1.875-1.562,3.75s2.469,1.874,2.469,3.749-.908,1.875-.908,3.749-.843,1.875-.843,3.749.344,1.875.344,3.75c0,1.875-.486,1.875-.486,3.749,0,1.875.737,1.875.737,3.749s.587,1.873.587,3.745-1.902,1.875-1.902,3.749-.002,1.874-.002,3.747.171,1.875.171,3.751.731,1.874.731,3.749.224,1.875.224,3.75-1.266,1.876-1.266,3.752c0,1.876.967,1.876.967,3.752,0,1.876-.49,1.876-.49,3.752,0,1.876.563,1.876.563,3.751,0,1.876-.346,1.876-.346,3.752,0,1.876-.367,1.876-.367,3.753s.031,1.595-.425,3.418c-.525,2.101-.258,3.073,1.096,4.377Z" style="fill: none; stroke: #000; stroke-miterlimit: 10; stroke-width: 22.5px;"/>
</svg>