<?xml version="1.0" encoding="UTF-8"?>
<svg id="LM_Icons" data-name="LM Icons" xmlns="http://www.w3.org/2000/svg" width="700" height="700" viewBox="0 0 700 700">
  <g>
    <path d="M163.338,130.191c2.555,0,2.555,2.825,5.111,2.825s2.556,1.02,5.112,1.02,2.557,1.077,5.114,1.077,2.556.505,5.113.505,2.556-4.862,5.112-4.862,2.556,6.118,5.111,6.118,2.555-.553,5.111-.553,2.556-6.899,5.111-6.899,2.556,7.599,5.112,7.599,2.557-4.363,5.114-4.363,2.557-1.499,5.113-1.499,2.556,2.759,5.112,2.759,2.556-1.985,5.111-1.985,2.556,3.231,5.112,3.231,2.556-5.348,5.112-5.348,2.557,3.579,5.114,3.579,2.557,3.198,5.113,3.198,2.556-7.515,5.112-7.515,2.556,1.975,5.112,1.975,2.556,4.339,5.112,4.339,2.557-6.267,5.114-6.267,2.557.799,5.114.799,2.556,5.009,5.113,5.009,2.556-2.222,5.112-2.222,2.556.063,5.113.063,2.557.325,5.115.325,2.557-.63,5.113-.63,2.556,1.448,5.113,1.448,2.557,2.883,5.113,2.883,2.557-3.025,5.115-3.025,2.557-2.821,5.113-2.821,2.557-.88,5.113-.88,2.557.844,5.114.844,2.557.483,5.114.483,2.555,2.298,5.11,2.298,2.554-.239,5.108-.239,2.554-3.424,5.109-3.424,2.555,2.541,5.11,2.541,2.557.378,5.114.378,2.557-.934,5.113-.934,2.555,2.019,5.111,2.019,2.555-4.02,5.11-4.02,2.556.73,5.112.73,2.558,4.554,5.116,4.554,2.556-3.933,5.112-3.933,2.556,4.033,5.112,4.033,2.557-1.007,5.114-1.007,2.558-2.766,5.115-2.766,2.556-.475,5.113-.475,2.557.648,5.114.648,2.558,1.629,5.116,1.629,2.557-1.178,5.114-1.178,2.558.381,5.116.381,2.557,2.868,5.115,2.868,2.558-2.784,5.116-2.784,2.558-2.471,5.115-2.471,2.558,6.383,5.117,6.383,2.558.267,5.115.267,2.558-.431,5.117-.431,2.559-2.592,5.118-2.592,2.558-2.062,5.117-2.062,2.556,2.462,5.112,2.462,2.558-.339,5.117-.339,2.557.265,5.114.265,2.558,2.318,5.116,2.318,2.559-2.323,5.118-2.323,2.559-.636,5.118-.636,2.559,1.13,5.119,1.13,2.56-1.823,5.12-1.823,2.559-.634,5.117-.634,2.561,3.996,5.122,3.996,2.563-1.708,5.125-1.708,2.563-.612,5.125-.612" style="fill: #fff;"/>
    <path d="M163.338,130.191c2.555,0,2.555,2.825,5.111,2.825s2.556,1.02,5.112,1.02,2.557,1.077,5.114,1.077,2.556.505,5.113.505,2.556-4.862,5.112-4.862,2.556,6.118,5.111,6.118,2.555-.553,5.111-.553,2.556-6.899,5.111-6.899,2.556,7.599,5.112,7.599,2.557-4.363,5.114-4.363,2.557-1.499,5.113-1.499,2.556,2.759,5.112,2.759,2.556-1.985,5.111-1.985,2.556,3.231,5.112,3.231,2.556-5.348,5.112-5.348,2.557,3.579,5.114,3.579,2.557,3.198,5.113,3.198,2.556-7.515,5.112-7.515,2.556,1.975,5.112,1.975,2.556,4.339,5.112,4.339,2.557-6.267,5.114-6.267,2.557.799,5.114.799,2.556,5.009,5.113,5.009,2.556-2.222,5.112-2.222,2.556.063,5.113.063,2.557.325,5.115.325,2.557-.63,5.113-.63,2.556,1.448,5.113,1.448,2.557,2.883,5.113,2.883,2.557-3.025,5.115-3.025,2.557-2.821,5.113-2.821,2.557-.88,5.113-.88,2.557.844,5.114.844,2.557.483,5.114.483,2.555,2.298,5.11,2.298,2.554-.239,5.108-.239,2.554-3.424,5.109-3.424,2.555,2.541,5.11,2.541,2.557.378,5.114.378,2.557-.934,5.113-.934,2.555,2.019,5.111,2.019,2.555-4.02,5.11-4.02,2.556.73,5.112.73,2.558,4.554,5.116,4.554,2.556-3.933,5.112-3.933,2.556,4.033,5.112,4.033,2.557-1.007,5.114-1.007,2.558-2.766,5.115-2.766,2.556-.475,5.113-.475,2.557.648,5.114.648,2.558,1.629,5.116,1.629,2.557-1.178,5.114-1.178,2.558.381,5.116.381,2.557,2.868,5.115,2.868,2.558-2.784,5.116-2.784,2.558-2.471,5.115-2.471,2.558,6.383,5.117,6.383,2.558.267,5.115.267,2.558-.431,5.117-.431,2.559-2.592,5.118-2.592,2.558-2.062,5.117-2.062,2.556,2.462,5.112,2.462,2.558-.339,5.117-.339,2.557.265,5.114.265,2.558,2.318,5.116,2.318,2.559-2.323,5.118-2.323,2.559-.636,5.118-.636,2.559,1.13,5.119,1.13,2.56-1.823,5.12-1.823,2.559-.634,5.117-.634,2.561,3.996,5.122,3.996,2.563-1.708,5.125-1.708,2.563-.612,5.125-.612" style="fill: none; stroke: #000; stroke-linecap: round; stroke-linejoin: round; stroke-width: 45px;"/>
  </g>
  <g>
    <path d="M432.33,307.686c1.469-2.155,3.393-.843,4.862-2.998,1.469-2.155,1.944-1.831,3.413-3.985s-4.123-5.968-2.653-8.124,5.505.597,6.974-1.558c1.47-2.155-1.84-4.412-.371-6.568s4.769.099,6.236-2.054c1.469-2.155-2.744-5.028-1.275-7.182,1.468-2.154,6.319,1.154,7.788-1,1.47-2.156-3.517-5.556-2.047-7.711,1.469-2.154,2.915-1.168,4.384-3.323s2.029-1.774,3.499-3.929,1.609-2.062,3.079-4.218,1.795-1.935,3.265-4.091,2.406-1.518,3.877-3.674-2.372-4.775-.902-6.931c1.47-2.156,5.86.838,7.331-1.318,1.471-2.158-2.538-4.892-1.067-7.05s6.14,1.023,7.612-1.136c1.472-2.159.638-2.806,1.998-5.038,1.363-2.236-2.368-4.331-1.12-6.633,1.248-2.302,3.376-1.149,4.624-3.451s4.647-.46,5.894-2.763,1.66-2.079,2.908-4.382-.214-3.095,1.034-5.397c1.248-2.303-2.125-4.131-.877-6.434s3.728-.959,4.976-3.263.296-2.818,1.544-5.12c1.247-2.301,2.471-1.637,3.718-3.938,1.248-2.303.644-2.631,1.892-4.934,1.247-2.302,3.881-.875,5.128-3.176q1.248-2.303,2.491-4.608c1.249-2.304-4.16-5.235-2.911-7.538,1.249-2.304,6.393.484,7.642-1.82s-2.401-4.281-1.152-6.585,3.087-1.307,4.335-3.61-2.33-4.243-1.082-6.546c1.249-2.305,3.594-1.035,4.843-3.34s2.059-1.869,3.309-4.176c1.25-2.307,1.883-2.121.585-4.401-1.268-2.228-1.437-3.855-4.001-3.855-2.564,0-2.564-.226-5.128-.226-2.565,0-2.565.521-5.129.521-2.564,0-2.564,3.103-5.129,3.103s-2.564,2.575-5.127,2.575c-2.563,0-2.563-5.069-5.127-5.069s-2.563,2.239-5.127,2.239c-2.564,0-2.564-3.555-5.127-3.555s-2.564,2.141-5.128,2.141-2.565,4.897-5.129,4.897c-2.565,0-2.565-4.741-5.129-4.741-2.564,0-2.564-.98-5.128-.98-2.564,0-2.564.22-5.127.22s-2.564,1.28-5.127,1.28c-2.564,0-2.564,2.513-5.128,2.513-2.565,0-2.565-4.285-5.13-4.285-2.565,0-2.565,4.557-5.129,4.557s-2.564-2.722-5.128-2.722-2.564-3.071-5.128-3.071c-2.564,0-2.564,5.309-5.128,5.309-2.565,0-2.565-1.962-5.129-1.962s-2.565,1.943-5.13,1.943c-2.564,0-2.564-2.04-5.128-2.04-2.564,0-2.564,3.941-5.128,3.941-2.564,0-2.564.067-5.129.067-2.565,0-2.565-.375-5.13-.375-2.565,0-2.565-6.447-5.129-6.447s-2.564,5.287-5.129,5.287c-2.564,0-2.564-1.13-5.129-1.13-2.565,0-2.565-2.383-5.131-2.383-2.565,0-2.565-1.458-5.129-1.458-2.564,0-2.564,4.412-5.129,4.412s-2.565,1.744-5.13,1.744-2.565-7.029-5.13-7.029c-2.563,0-2.563.497-5.126.497s-2.562,4.313-5.124,4.313c-2.562,0-2.562,2.239-5.124,2.239-2.563,0-2.563-2.486-5.126-2.486q-2.565,0-5.13-.005c-2.564,0-2.564.151-5.129.151s-2.563-.719-5.126-.719c-2.563,0-2.563-3.953-5.126-3.953-2.564,0-2.564.341-5.128.341-2.566,0-2.566,4.166-5.132,4.166-2.564,0-2.564,3.229-5.128,3.229s-2.564-7.27-5.127-7.27c-2.565,0-2.565,1.712-5.129,1.712-2.566,0-2.566,2.286-5.131,2.286-2.564,0-2.564-4.13-5.128-4.13-2.565,0-2.565,4.659-5.13,4.659-2.566,0-2.566-1.245-5.132-1.245s-2.565-2.584-5.129-2.584-2.566,3.356-5.132,3.356-2.565-2.375-5.13-2.375c-2.566,0-2.566,4.609-5.131,4.609-2.566,0-2.566-1.577-5.131-1.577-2.566,0-2.566,1.072-5.133,1.072-2.566,0-2.566-.937-5.131-.937s-2.566-3.627-5.133-3.627-2.567,5.802-5.134,5.802c-2.566,0-2.566-6.555-5.133-6.555s-2.564-.807-5.128-.807c-2.566,0-2.566,5.007-5.133,5.007s-2.565-2.973-5.129-2.973-2.566,3.693-5.132,3.693-2.567-4.662-5.134-4.662c-2.567,0-2.567,4.671-5.134,4.671-2.567,0-2.567-5.396-5.134-5.396s-2.568,4.505-5.136,4.505c-2.566,0-2.566-1.558-5.133-1.558-2.569,0-2.569.503-5.137.503-2.57,0-2.57,3.791-5.141,3.791-2.57,0-3.455-5.8-4.736-3.571-1.305,2.27-1.593,3.389-.345,5.691s2.862,1.428,4.11,3.73.389,2.768,1.637,5.07c1.248,2.303,3.537,1.063,4.785,3.366,1.248,2.302,1.042,2.414,2.289,4.716,1.248,2.303,1.114,2.376,2.362,4.679,1.248,2.303,3.02,1.343,4.268,3.647s-.593,3.299.655,5.602-1.223,3.639.024,5.94c1.248,2.303,5.336.088,6.584,2.391,1.247,2.302-.026,2.991,1.222,5.293s-2.498,4.333-1.25,6.635c1.249,2.304,5.047.245,6.295,2.549s-1.55,3.82-.301,6.124c1.249,2.304,2.107,1.838,3.356,4.142s4.079.769,5.327,3.072c1.248,2.303-1.897,4.008-.648,6.311,1.249,2.305,1.561,2.137,2.81,4.442,1.25,2.307,4.196.71,5.447,3.018,1.25,2.307,1.655,1.904,3.054,4.124,1.34,2.126.898,2.241,2.381,4.27,1.483,2.029-1.672,4.335-.189,6.364,1.483,2.03,1.736,1.845,3.22,3.875,1.483,2.029.791,2.535,2.274,4.564s4.38-.086,5.863,1.944c1.481,2.027,3.527.532,5.009,2.559,1.483,2.029-4.473,6.382-2.99,8.411s6.369-1.542,7.851.486,1.323,2.148,2.806,4.178-2.45,4.903-.968,6.932,6.642-1.74,8.126.29c1.484,2.031-1.874,4.485-.39,6.516,1.484,2.031,5.123-.628,6.607,1.403,1.484,2.031.667,2.628,2.151,4.659s2.283,1.446,3.766,3.477c1.484,2.031-2.738,5.115-1.254,7.146s5.701-1.05,7.185.981c1.487,2.034-3.328,5.553-1.841,7.587s5.128-.746,6.689,1.232,1.021,1.076,3.325,3.284c1.029.987.248,4.26,1.661,5.56,1.136,1.046,2.129,2.479,3.484,3.682,1.191,1.056,3.034,1.516,4.376,2.663,1.229,1.051,4.657-.47,5.999.635,1.262,1.039-1.444,7.063-.092,8.132,1.293,1.022,3.548.932,4.912,1.965,1.322,1.001,2.774,1.921,4.154,2.917,1.351.975,2.508,2.322,3.907,3.28,1.38.945,2.097,3.026,3.516,3.941,1.411.911,3.041,1.649,4.483,2.518s5.333-2.461,6.8-1.645c1.478.821,3.181,1.002,4.675,1.756,1.514.764,2.336,2.746,3.859,3.427,1.552.694,1.763,4.664,3.316,5.258,1.593.609,4.965-4.084,6.55-3.595,1.634.504,1.468,7.806,3.083,8.165,1.672.372,3.88-.689,5.52-.49,1.7.206,3.678,1.753,5.331,1.753,1.704,0,3.424-4.121,5.18-4.318,1.694-.19,2.883-2.973,4.611-3.328,1.673-.343,3.528.561,5.222.08,1.647-.468,3.806.688,5.463.106,1.621-.569,2.516-3.018,4.136-3.683,1.594-.654,4.227,1.064,5.812.332,1.569-.726,1.471-4.836,3.021-5.626s3.949.156,5.467-.682,3.796-.371,5.284-1.25c1.506-.889,3.452-1.098,4.91-2.012,1.489-.933,1.365-4.346,2.794-5.291,1.473-.974,4.941,1.027,6.34.058,1.462-1.013,3.481-1.272,4.849-2.263,1.455-1.053-.931-7.212.404-8.219,1.455-1.097,4.299-.196,5.593-1.211,1.47-1.153,3.064-1.938,4.299-2.945,1.534-1.252,3.192-1.995,4.314-2.949,2.506-2.133,4.63-3.01,4.63-3.01ZM267.708,392.262c-1.599,2.06-3.431.896-4.9,3.051s-1.944,1.831-3.413,3.985c-1.47,2.155,4.123,5.968,2.653,8.124-1.469,2.155-5.505-.597-6.974,1.558-1.47,2.155,1.84,4.412.371,6.568s-4.769-.099-6.236,2.054,2.744,5.028,1.275,7.182-6.319-1.154-7.788,1c-1.47,2.156,3.517,5.556,2.047,7.711-1.469,2.154-2.915,1.168-4.384,3.323-1.47,2.155-2.029,1.774-3.499,3.929-1.47,2.156-1.609,2.062-3.079,4.218-1.47,2.156-1.795,1.935-3.265,4.091s-2.406,1.518-3.877,3.674c-1.47,2.156,2.372,4.775.902,6.931-1.47,2.156-5.86-.838-7.331,1.318-1.471,2.158,2.538,4.892,1.067,7.05-1.472,2.159-6.14-1.023-7.612,1.136-1.472,2.159-.638,2.806-1.998,5.038-1.363,2.236,2.368,4.331,1.12,6.633-1.248,2.302-3.376,1.149-4.624,3.451-1.248,2.302-4.647.46-5.894,2.763-1.248,2.303-1.66,2.079-2.908,4.382s.214,3.095-1.034,5.397,2.125,4.131.877,6.434c-1.248,2.303-3.728.959-4.976,3.263-1.248,2.302-.296,2.818-1.544,5.12-1.247,2.301-2.471,1.637-3.718,3.938-1.248,2.303-.644,2.631-1.892,4.934s-3.881.875-5.128,3.176-1.243,2.305-2.491,4.608,4.16,5.235,2.911,7.538c-1.249,2.304-6.393-.484-7.642,1.82-1.249,2.304,2.401,4.281,1.152,6.585s-3.087,1.307-4.335,3.61c-1.248,2.303,2.33,4.243,1.082,6.546s-3.594,1.035-4.843,3.34-2.059,1.869-3.309,4.176c-1.25,2.307-1.883,2.121-.585,4.401,1.268,2.228,1.437,3.855,4.001,3.855s2.564.226,5.128.226,2.565-.521,5.129-.521,2.564-3.103,5.129-3.103,2.564-2.575,5.127-2.575,2.563,5.069,5.127,5.069,2.563-2.239,5.127-2.239,2.564,3.555,5.127,3.555,2.564-2.141,5.128-2.141,2.565-4.897,5.129-4.897,2.565,4.741,5.129,4.741,2.564.98,5.128.98,2.564-.22,5.127-.22,2.564-1.28,5.127-1.28,2.564-2.513,5.128-2.513,2.565,4.285,5.13,4.285,2.565-4.557,5.129-4.557,2.564,2.722,5.128,2.722,2.564,3.071,5.128,3.071,2.564-5.309,5.128-5.309,2.565,1.962,5.129,1.962,2.565-1.943,5.13-1.943,2.564,2.04,5.128,2.04,2.564-3.941,5.128-3.941,2.564-.067,5.129-.067,2.565.375,5.13.375,2.565,6.447,5.129,6.447,2.564-5.287,5.129-5.287,2.564,1.13,5.129,1.13,2.565,2.383,5.131,2.383,2.565,1.458,5.129,1.458,2.564-4.412,5.129-4.412,2.565-1.744,5.13-1.744,2.565,7.029,5.13,7.029,2.563-.497,5.126-.497,2.562-4.313,5.124-4.313,2.562-2.239,5.124-2.239,2.563,2.486,5.126,2.486,2.565.005,5.13.005,2.564-.151,5.129-.151,2.563.719,5.126.719,2.563,3.953,5.126,3.953,2.564-.341,5.128-.341,2.566-4.166,5.132-4.166,2.564-3.229,5.128-3.229,2.564,7.27,5.127,7.27,2.565-1.712,5.129-1.712,2.566-2.286,5.131-2.286,2.564,4.13,5.128,4.13,2.565-4.659,5.13-4.659,2.566,1.245,5.132,1.245,2.565,2.584,5.129,2.584,2.566-3.356,5.132-3.356,2.565,2.375,5.13,2.375,2.566-4.609,5.131-4.609,2.566,1.577,5.131,1.577,2.566-1.072,5.133-1.072,2.566.937,5.131.937,2.566,3.627,5.133,3.627,2.567-5.802,5.134-5.802,2.566,6.555,5.133,6.555,2.564.807,5.128.807,2.566-5.007,5.133-5.007,2.565,2.973,5.129,2.973,2.566-3.693,5.132-3.693,2.567,4.662,5.134,4.662,2.567-4.671,5.134-4.671,2.567,5.396,5.134,5.396,2.568-4.505,5.136-4.505,2.566,1.558,5.133,1.558,2.569-.503,5.137-.503,2.57-3.791,5.141-3.791,3.455,5.8,4.736,3.571c1.305-2.27,1.593-3.389.345-5.691s-2.862-1.428-4.11-3.73c-1.248-2.302-.389-2.768-1.637-5.07-1.248-2.303-3.537-1.063-4.785-3.366-1.248-2.302-1.042-2.414-2.289-4.716-1.248-2.303-1.114-2.376-2.362-4.679s-3.02-1.343-4.268-3.647c-1.248-2.302.593-3.299-.655-5.602-1.247-2.301,1.223-3.639-.024-5.94-1.248-2.303-5.336-.088-6.584-2.391-1.247-2.302.026-2.991-1.222-5.293s2.498-4.333,1.25-6.635c-1.249-2.304-5.047-.245-6.295-2.549-1.249-2.304,1.55-3.82.301-6.124-1.249-2.304-2.107-1.838-3.356-4.142-1.248-2.303-4.079-.769-5.327-3.072-1.248-2.303,1.897-4.008.648-6.311s-1.561-2.137-2.81-4.442-4.196-.71-5.447-3.018c-1.25-2.307-1.655-1.904-3.054-4.124-1.34-2.126-.898-2.241-2.381-4.27-1.483-2.029,1.672-4.335.189-6.364-1.483-2.03-1.736-1.845-3.22-3.875s-.791-2.535-2.274-4.564c-1.483-2.03-4.38.086-5.863-1.944-1.481-2.027-3.527-.532-5.009-2.559-1.483-2.029,4.473-6.382,2.99-8.411-1.482-2.028-6.369,1.542-7.851-.486-1.484-2.03-1.323-2.148-2.806-4.178s2.45-4.903.968-6.932c-1.483-2.03-6.642,1.74-8.126-.29-1.484-2.031,1.874-4.485.39-6.516-1.484-2.031-5.123.628-6.607-1.403-1.484-2.031-.667-2.628-2.151-4.659s-2.283-1.446-3.766-3.477c-1.484-2.031,2.738-5.115,1.254-7.146-1.484-2.031-5.701,1.05-7.185-.981-1.487-2.034,3.328-5.553,1.841-7.587-1.487-2.034-5.128.746-6.689-1.232-1.561-1.977-1.021-1.076-3.325-3.284-1.029-.987-.248-4.26-1.661-5.56-1.136-1.046-2.129-2.479-3.484-3.682-1.191-1.056-3.034-1.516-4.376-2.663-1.229-1.051-4.657.47-5.999-.635-1.262-1.039,1.444-7.063.092-8.132-1.293-1.022-3.548-.932-4.912-1.965-1.322-1.001-2.774-1.921-4.154-2.917-1.351-.975-2.508-2.322-3.907-3.28-1.38-.945-2.097-3.026-3.516-3.941-1.411-.911-3.041-1.649-4.483-2.518s-5.333,2.461-6.8,1.645c-1.478-.821-3.181-1.002-4.675-1.756-1.514-.764-2.336-2.746-3.859-3.427-1.552-.694-1.763-4.664-3.316-5.258-1.593-.609-4.965,4.084-6.55,3.595-1.634-.504-1.468-7.806-3.083-8.165-1.672-.372-3.88.689-5.52.49-1.7-.206-3.678-1.753-5.331-1.753-1.704,0-3.424,4.121-5.18,4.318-1.694.19-2.883,2.973-4.611,3.328-1.673.343-3.528-.561-5.222-.08-1.647.468-3.806-.688-5.463-.106-1.621.569-2.516,3.018-4.136,3.683-1.594.654-4.227-1.064-5.812-.332-1.569.726-1.471,4.836-3.021,5.626-1.546.787-3.949-.156-5.467.682s-3.796.371-5.284,1.25c-1.506.889-3.452,1.098-4.91,2.012-1.489.933-1.365,4.346-2.794,5.291-1.473.974-4.941-1.027-6.34-.058-1.462,1.013-3.481,1.272-4.849,2.263-1.455,1.053.931,7.212-.404,8.219-1.455,1.097-4.299.196-5.593,1.211-1.47,1.153-3.064,1.938-4.299,2.945-1.534,1.252-3.192,1.995-4.314,2.949-2.506,2.133-2.999.904-4.592,2.957Z" style="fill: #fff;"/>
    <path d="M432.33,307.686c1.469-2.155,3.393-.843,4.862-2.998,1.469-2.155,1.944-1.831,3.413-3.985s-4.123-5.968-2.653-8.124,5.505.597,6.974-1.558c1.47-2.155-1.84-4.412-.371-6.568s4.769.099,6.236-2.054c1.469-2.155-2.744-5.028-1.275-7.182,1.468-2.154,6.319,1.154,7.788-1,1.47-2.156-3.517-5.556-2.047-7.711,1.469-2.154,2.915-1.168,4.384-3.323s2.029-1.774,3.499-3.929,1.609-2.062,3.079-4.218,1.795-1.935,3.265-4.091,2.406-1.518,3.877-3.674-2.372-4.775-.902-6.931c1.47-2.156,5.86.838,7.331-1.318,1.471-2.158-2.538-4.892-1.067-7.05s6.14,1.023,7.612-1.136c1.472-2.159.638-2.806,1.998-5.038,1.363-2.236-2.368-4.331-1.12-6.633,1.248-2.302,3.376-1.149,4.624-3.451s4.647-.46,5.894-2.763,1.66-2.079,2.908-4.382-.214-3.095,1.034-5.397c1.248-2.303-2.125-4.131-.877-6.434s3.728-.959,4.976-3.263.296-2.818,1.544-5.12c1.247-2.301,2.471-1.637,3.718-3.938,1.248-2.303.644-2.631,1.892-4.934,1.247-2.302,3.881-.875,5.128-3.176q1.248-2.303,2.491-4.608c1.249-2.304-4.16-5.235-2.911-7.538,1.249-2.304,6.393.484,7.642-1.82s-2.401-4.281-1.152-6.585,3.087-1.307,4.335-3.61-2.33-4.243-1.082-6.546c1.249-2.305,3.594-1.035,4.843-3.34s2.059-1.869,3.309-4.176c1.25-2.307,1.883-2.121.585-4.401-1.268-2.228-1.437-3.855-4.001-3.855-2.564,0-2.564-.226-5.128-.226-2.565,0-2.565.521-5.129.521-2.564,0-2.564,3.103-5.129,3.103s-2.564,2.575-5.127,2.575c-2.563,0-2.563-5.069-5.127-5.069s-2.563,2.239-5.127,2.239c-2.564,0-2.564-3.555-5.127-3.555s-2.564,2.141-5.128,2.141-2.565,4.897-5.129,4.897c-2.565,0-2.565-4.741-5.129-4.741-2.564,0-2.564-.98-5.128-.98-2.564,0-2.564.22-5.127.22s-2.564,1.28-5.127,1.28c-2.564,0-2.564,2.513-5.128,2.513-2.565,0-2.565-4.285-5.13-4.285-2.565,0-2.565,4.557-5.129,4.557s-2.564-2.722-5.128-2.722-2.564-3.071-5.128-3.071c-2.564,0-2.564,5.309-5.128,5.309-2.565,0-2.565-1.962-5.129-1.962s-2.565,1.943-5.13,1.943c-2.564,0-2.564-2.04-5.128-2.04-2.564,0-2.564,3.941-5.128,3.941-2.564,0-2.564.067-5.129.067-2.565,0-2.565-.375-5.13-.375-2.565,0-2.565-6.447-5.129-6.447s-2.564,5.287-5.129,5.287c-2.564,0-2.564-1.13-5.129-1.13-2.565,0-2.565-2.383-5.131-2.383-2.565,0-2.565-1.458-5.129-1.458-2.564,0-2.564,4.412-5.129,4.412s-2.565,1.744-5.13,1.744-2.565-7.029-5.13-7.029c-2.563,0-2.563.497-5.126.497s-2.562,4.313-5.124,4.313c-2.562,0-2.562,2.239-5.124,2.239-2.563,0-2.563-2.486-5.126-2.486q-2.565,0-5.13-.005c-2.564,0-2.564.151-5.129.151s-2.563-.719-5.126-.719c-2.563,0-2.563-3.953-5.126-3.953-2.564,0-2.564.341-5.128.341-2.566,0-2.566,4.166-5.132,4.166-2.564,0-2.564,3.229-5.128,3.229s-2.564-7.27-5.127-7.27c-2.565,0-2.565,1.712-5.129,1.712-2.566,0-2.566,2.286-5.131,2.286-2.564,0-2.564-4.13-5.128-4.13-2.565,0-2.565,4.659-5.13,4.659-2.566,0-2.566-1.245-5.132-1.245s-2.565-2.584-5.129-2.584-2.566,3.356-5.132,3.356-2.565-2.375-5.13-2.375c-2.566,0-2.566,4.609-5.131,4.609-2.566,0-2.566-1.577-5.131-1.577-2.566,0-2.566,1.072-5.133,1.072-2.566,0-2.566-.937-5.131-.937s-2.566-3.627-5.133-3.627-2.567,5.802-5.134,5.802c-2.566,0-2.566-6.555-5.133-6.555s-2.564-.807-5.128-.807c-2.566,0-2.566,5.007-5.133,5.007s-2.565-2.973-5.129-2.973-2.566,3.693-5.132,3.693-2.567-4.662-5.134-4.662c-2.567,0-2.567,4.671-5.134,4.671-2.567,0-2.567-5.396-5.134-5.396s-2.568,4.505-5.136,4.505c-2.566,0-2.566-1.558-5.133-1.558-2.569,0-2.569.503-5.137.503-2.57,0-2.57,3.791-5.141,3.791-2.57,0-3.455-5.8-4.736-3.571-1.305,2.27-1.593,3.389-.345,5.691s2.862,1.428,4.11,3.73.389,2.768,1.637,5.07c1.248,2.303,3.537,1.063,4.785,3.366,1.248,2.302,1.042,2.414,2.289,4.716,1.248,2.303,1.114,2.376,2.362,4.679,1.248,2.303,3.02,1.343,4.268,3.647s-.593,3.299.655,5.602-1.223,3.639.024,5.94c1.248,2.303,5.336.088,6.584,2.391,1.247,2.302-.026,2.991,1.222,5.293s-2.498,4.333-1.25,6.635c1.249,2.304,5.047.245,6.295,2.549s-1.55,3.82-.301,6.124c1.249,2.304,2.107,1.838,3.356,4.142s4.079.769,5.327,3.072c1.248,2.303-1.897,4.008-.648,6.311,1.249,2.305,1.561,2.137,2.81,4.442,1.25,2.307,4.196.71,5.447,3.018,1.25,2.307,1.655,1.904,3.054,4.124,1.34,2.126.898,2.241,2.381,4.27,1.483,2.029-1.672,4.335-.189,6.364,1.483,2.03,1.736,1.845,3.22,3.875,1.483,2.029.791,2.535,2.274,4.564s4.38-.086,5.863,1.944c1.481,2.027,3.527.532,5.009,2.559,1.483,2.029-4.473,6.382-2.99,8.411s6.369-1.542,7.851.486,1.323,2.148,2.806,4.178-2.45,4.903-.968,6.932,6.642-1.74,8.126.29c1.484,2.031-1.874,4.485-.39,6.516,1.484,2.031,5.123-.628,6.607,1.403,1.484,2.031.667,2.628,2.151,4.659s2.283,1.446,3.766,3.477c1.484,2.031-2.738,5.115-1.254,7.146s5.701-1.05,7.185.981c1.487,2.034-3.328,5.553-1.841,7.587s5.128-.746,6.689,1.232,1.021,1.076,3.325,3.284c1.029.987.248,4.26,1.661,5.56,1.136,1.046,2.129,2.479,3.484,3.682,1.191,1.056,3.034,1.516,4.376,2.663,1.229,1.051,4.657-.47,5.999.635,1.262,1.039-1.444,7.063-.092,8.132,1.293,1.022,3.548.932,4.912,1.965,1.322,1.001,2.774,1.921,4.154,2.917,1.351.975,2.508,2.322,3.907,3.28,1.38.945,2.097,3.026,3.516,3.941,1.411.911,3.041,1.649,4.483,2.518s5.333-2.461,6.8-1.645c1.478.821,3.181,1.002,4.675,1.756,1.514.764,2.336,2.746,3.859,3.427,1.552.694,1.763,4.664,3.316,5.258,1.593.609,4.965-4.084,6.55-3.595,1.634.504,1.468,7.806,3.083,8.165,1.672.372,3.88-.689,5.52-.49,1.7.206,3.678,1.753,5.331,1.753,1.704,0,3.424-4.121,5.18-4.318,1.694-.19,2.883-2.973,4.611-3.328,1.673-.343,3.528.561,5.222.08,1.647-.468,3.806.688,5.463.106,1.621-.569,2.516-3.018,4.136-3.683,1.594-.654,4.227,1.064,5.812.332,1.569-.726,1.471-4.836,3.021-5.626s3.949.156,5.467-.682,3.796-.371,5.284-1.25c1.506-.889,3.452-1.098,4.91-2.012,1.489-.933,1.365-4.346,2.794-5.291,1.473-.974,4.941,1.027,6.34.058,1.462-1.013,3.481-1.272,4.849-2.263,1.455-1.053-.931-7.212.404-8.219,1.455-1.097,4.299-.196,5.593-1.211,1.47-1.153,3.064-1.938,4.299-2.945,1.534-1.252,3.192-1.995,4.314-2.949,2.506-2.133,4.63-3.01,4.63-3.01ZM267.708,392.262c-1.599,2.06-3.431.896-4.9,3.051s-1.944,1.831-3.413,3.985c-1.47,2.155,4.123,5.968,2.653,8.124-1.469,2.155-5.505-.597-6.974,1.558-1.47,2.155,1.84,4.412.371,6.568s-4.769-.099-6.236,2.054,2.744,5.028,1.275,7.182-6.319-1.154-7.788,1c-1.47,2.156,3.517,5.556,2.047,7.711-1.469,2.154-2.915,1.168-4.384,3.323-1.47,2.155-2.029,1.774-3.499,3.929-1.47,2.156-1.609,2.062-3.079,4.218-1.47,2.156-1.795,1.935-3.265,4.091s-2.406,1.518-3.877,3.674c-1.47,2.156,2.372,4.775.902,6.931-1.47,2.156-5.86-.838-7.331,1.318-1.471,2.158,2.538,4.892,1.067,7.05-1.472,2.159-6.14-1.023-7.612,1.136-1.472,2.159-.638,2.806-1.998,5.038-1.363,2.236,2.368,4.331,1.12,6.633-1.248,2.302-3.376,1.149-4.624,3.451-1.248,2.302-4.647.46-5.894,2.763-1.248,2.303-1.66,2.079-2.908,4.382s.214,3.095-1.034,5.397,2.125,4.131.877,6.434c-1.248,2.303-3.728.959-4.976,3.263-1.248,2.302-.296,2.818-1.544,5.12-1.247,2.301-2.471,1.637-3.718,3.938-1.248,2.303-.644,2.631-1.892,4.934s-3.881.875-5.128,3.176-1.243,2.305-2.491,4.608,4.16,5.235,2.911,7.538c-1.249,2.304-6.393-.484-7.642,1.82-1.249,2.304,2.401,4.281,1.152,6.585s-3.087,1.307-4.335,3.61c-1.248,2.303,2.33,4.243,1.082,6.546s-3.594,1.035-4.843,3.34-2.059,1.869-3.309,4.176c-1.25,2.307-1.883,2.121-.585,4.401,1.268,2.228,1.437,3.855,4.001,3.855s2.564.226,5.128.226,2.565-.521,5.129-.521,2.564-3.103,5.129-3.103,2.564-2.575,5.127-2.575,2.563,5.069,5.127,5.069,2.563-2.239,5.127-2.239,2.564,3.555,5.127,3.555,2.564-2.141,5.128-2.141,2.565-4.897,5.129-4.897,2.565,4.741,5.129,4.741,2.564.98,5.128.98,2.564-.22,5.127-.22,2.564-1.28,5.127-1.28,2.564-2.513,5.128-2.513,2.565,4.285,5.13,4.285,2.565-4.557,5.129-4.557,2.564,2.722,5.128,2.722,2.564,3.071,5.128,3.071,2.564-5.309,5.128-5.309,2.565,1.962,5.129,1.962,2.565-1.943,5.13-1.943,2.564,2.04,5.128,2.04,2.564-3.941,5.128-3.941,2.564-.067,5.129-.067,2.565.375,5.13.375,2.565,6.447,5.129,6.447,2.564-5.287,5.129-5.287,2.564,1.13,5.129,1.13,2.565,2.383,5.131,2.383,2.565,1.458,5.129,1.458,2.564-4.412,5.129-4.412,2.565-1.744,5.13-1.744,2.565,7.029,5.13,7.029,2.563-.497,5.126-.497,2.562-4.313,5.124-4.313,2.562-2.239,5.124-2.239,2.563,2.486,5.126,2.486,2.565.005,5.13.005,2.564-.151,5.129-.151,2.563.719,5.126.719,2.563,3.953,5.126,3.953,2.564-.341,5.128-.341,2.566-4.166,5.132-4.166,2.564-3.229,5.128-3.229,2.564,7.27,5.127,7.27,2.565-1.712,5.129-1.712,2.566-2.286,5.131-2.286,2.564,4.13,5.128,4.13,2.565-4.659,5.13-4.659,2.566,1.245,5.132,1.245,2.565,2.584,5.129,2.584,2.566-3.356,5.132-3.356,2.565,2.375,5.13,2.375,2.566-4.609,5.131-4.609,2.566,1.577,5.131,1.577,2.566-1.072,5.133-1.072,2.566.937,5.131.937,2.566,3.627,5.133,3.627,2.567-5.802,5.134-5.802,2.566,6.555,5.133,6.555,2.564.807,5.128.807,2.566-5.007,5.133-5.007,2.565,2.973,5.129,2.973,2.566-3.693,5.132-3.693,2.567,4.662,5.134,4.662,2.567-4.671,5.134-4.671,2.567,5.396,5.134,5.396,2.568-4.505,5.136-4.505,2.566,1.558,5.133,1.558,2.569-.503,5.137-.503,2.57-3.791,5.141-3.791,3.455,5.8,4.736,3.571c1.305-2.27,1.593-3.389.345-5.691s-2.862-1.428-4.11-3.73c-1.248-2.302-.389-2.768-1.637-5.07-1.248-2.303-3.537-1.063-4.785-3.366-1.248-2.302-1.042-2.414-2.289-4.716-1.248-2.303-1.114-2.376-2.362-4.679s-3.02-1.343-4.268-3.647c-1.248-2.302.593-3.299-.655-5.602-1.247-2.301,1.223-3.639-.024-5.94-1.248-2.303-5.336-.088-6.584-2.391-1.247-2.302.026-2.991-1.222-5.293s2.498-4.333,1.25-6.635c-1.249-2.304-5.047-.245-6.295-2.549-1.249-2.304,1.55-3.82.301-6.124-1.249-2.304-2.107-1.838-3.356-4.142-1.248-2.303-4.079-.769-5.327-3.072-1.248-2.303,1.897-4.008.648-6.311s-1.561-2.137-2.81-4.442-4.196-.71-5.447-3.018c-1.25-2.307-1.655-1.904-3.054-4.124-1.34-2.126-.898-2.241-2.381-4.27-1.483-2.029,1.672-4.335.189-6.364-1.483-2.03-1.736-1.845-3.22-3.875s-.791-2.535-2.274-4.564c-1.483-2.03-4.38.086-5.863-1.944-1.481-2.027-3.527-.532-5.009-2.559-1.483-2.029,4.473-6.382,2.99-8.411-1.482-2.028-6.369,1.542-7.851-.486-1.484-2.03-1.323-2.148-2.806-4.178s2.45-4.903.968-6.932c-1.483-2.03-6.642,1.74-8.126-.29-1.484-2.031,1.874-4.485.39-6.516-1.484-2.031-5.123.628-6.607-1.403-1.484-2.031-.667-2.628-2.151-4.659s-2.283-1.446-3.766-3.477c-1.484-2.031,2.738-5.115,1.254-7.146-1.484-2.031-5.701,1.05-7.185-.981-1.487-2.034,3.328-5.553,1.841-7.587-1.487-2.034-5.128.746-6.689-1.232-1.561-1.977-1.021-1.076-3.325-3.284-1.029-.987-.248-4.26-1.661-5.56-1.136-1.046-2.129-2.479-3.484-3.682-1.191-1.056-3.034-1.516-4.376-2.663-1.229-1.051-4.657.47-5.999-.635-1.262-1.039,1.444-7.063.092-8.132-1.293-1.022-3.548-.932-4.912-1.965-1.322-1.001-2.774-1.921-4.154-2.917-1.351-.975-2.508-2.322-3.907-3.28-1.38-.945-2.097-3.026-3.516-3.941-1.411-.911-3.041-1.649-4.483-2.518s-5.333,2.461-6.8,1.645c-1.478-.821-3.181-1.002-4.675-1.756-1.514-.764-2.336-2.746-3.859-3.427-1.552-.694-1.763-4.664-3.316-5.258-1.593-.609-4.965,4.084-6.55,3.595-1.634-.504-1.468-7.806-3.083-8.165-1.672-.372-3.88.689-5.52.49-1.7-.206-3.678-1.753-5.331-1.753-1.704,0-3.424,4.121-5.18,4.318-1.694.19-2.883,2.973-4.611,3.328-1.673.343-3.528-.561-5.222-.08-1.647.468-3.806-.688-5.463-.106-1.621.569-2.516,3.018-4.136,3.683-1.594.654-4.227-1.064-5.812-.332-1.569.726-1.471,4.836-3.021,5.626-1.546.787-3.949-.156-5.467.682s-3.796.371-5.284,1.25c-1.506.889-3.452,1.098-4.91,2.012-1.489.933-1.365,4.346-2.794,5.291-1.473.974-4.941-1.027-6.34-.058-1.462,1.013-3.481,1.272-4.849,2.263-1.455,1.053.931,7.212-.404,8.219-1.455,1.097-4.299.196-5.593,1.211-1.47,1.153-3.064,1.938-4.299,2.945-1.534,1.252-3.192,1.995-4.314,2.949-2.506,2.133-2.999.904-4.592,2.957Z" style="fill: none; stroke: #000; stroke-linecap: round; stroke-linejoin: round; stroke-width: 45px;"/>
  </g>
</svg>