<?xml version="1.0" encoding="UTF-8"?>
<svg id="MD_Icons" data-name="MD Icons" xmlns="http://www.w3.org/2000/svg" width="400" height="400" viewBox="0 0 400 400">
  <path d="M140.889,87.007c1.74,1.667.829,2.618,2.568,4.285s2.663.702,4.402,2.369.448,3.013,2.186,4.68,2.305,1.077,4.045,2.744,2.831.531,4.572,2.199,1.439,1.98,3.179,3.647.212,3.261,1.951,4.927,2.564.808,4.304,2.476,1.697,1.714,3.437,3.382,3.193.151,4.932,1.819.203,3.271,1.943,4.939,2.174,1.216,3.915,2.884,1.665,1.745,3.405,3.413,1.419,2.004,3.159,3.673,1.726,1.683,3.466,3.351,1.481,1.939,3.221,3.607,1.911,1.491,3.651,3.159,3.47-.135,5.211,1.533.507,2.951,2.246,4.618,2.179,1.211,3.92,2.879,2.859.498,4.597,2.164.885,2.561,2.625,4.23,2.313,1.07,4.052,2.737,1.846,1.56,3.588,3.229.568,2.891,2.309,4.559.843,2.606,2.584,4.275,3.58-.249,5.322,1.421-.39,3.894,1.352,5.564,1.986,1.411,3.726,3.078,3.538-.205,5.28,1.465.42,3.049,2.162,4.719,2.922.439,4.665,2.109-.081,3.579,1.664,5.252,6.247-.287,6.251,2.131c.004,2.399-3.268,1.728-5.008,3.38s-2.984.34-4.723,1.991.651,4.167-1.088,5.818-3.379-.075-5.118,1.577-.569,2.887-2.31,4.54-1.433,1.974-3.172,3.626-2.338,1.021-4.077,2.672-1.482,1.923-3.222,3.575-1.171,2.252-2.912,3.905-4.161-.899-5.901.753-1.033,2.397-2.773,4.049-.47,2.991-2.21,4.644-1.585,1.815-3.325,3.467-2.125,1.248-3.866,2.901-1.905,1.479-3.646,3.131-2.488.866-4.229,2.519-.508,2.95-2.249,4.603-1.861,1.527-3.601,3.18-1.235,2.181-2.974,3.832-3.874-.593-5.614,1.059-.859,2.577-2.598,4.228-1.489,1.918-3.23,3.571-1.911,1.472-3.651,3.124-1.893,1.494-3.634,3.148-3.062.261-4.802,1.913.29,3.793-1.451,5.446-1.146,2.281-2.888,3.936-2.967.364-4.709,2.018-3.131.187-4.871,1.839-.933,2.506-2.675,4.16-1.812,1.581-3.554,3.235-1.055,2.379-2.797,4.034-1.499,1.917-3.245,3.574-1.77,1.631-3.516,3.288" style="fill: none; stroke: #000; stroke-linecap: round; stroke-linejoin: round; stroke-width: 40px;"/>
</svg>