<?xml version="1.0" encoding="UTF-8"?>
<svg id="SM_Icons" data-name="SM Icons" xmlns="http://www.w3.org/2000/svg" width="200" height="200" viewBox="0 0 200 200">
  <polygon points="120.69 120.689 107.64 120.167 95.595 121.442 83.546 122.113 71.493 119.857 59.444 121.371 47.387 120.027 34.898 120.122 37.435 107.64 32.863 95.595 36.333 83.546 33.657 71.493 34.55 59.444 33.902 47.387 36.994 36.993 47.379 33.243 59.425 35.45 71.473 33.671 83.526 36.665 95.575 34.29 107.632 37.823 121.183 33.835 121.792 47.379 121.77 59.425 122.096 71.473 117.718 83.526 119.468 95.575 122.053 107.538 120.69 120.689" style="fill: #fff;"/>
  <polygon points="81.589 76.675 94.258 78.247 106.038 77.839 117.82 79.574 129.607 76.2 141.39 77.844 153.181 78.395 163.382 79.011 166.665 90.002 163.186 102.491 162.74 114.983 164.914 127.479 163.711 139.971 167.09 152.472 163.951 164.009 153.189 165.64 141.409 166.651 129.627 163.499 117.84 163.629 106.057 164.527 94.266 163.085 81.64 165.76 84.422 152.48 83.749 139.991 80.564 127.499 84.818 115.003 82.364 102.511 82.217 90.019 81.589 76.675" style="fill: #fff;"/>
  <polyline points="73.201 34.768 84.491 35.881 95.778 35.783 107.072 36.914 119.658 33.775 118.099 44.712 119.846 54.095" style="fill: none; stroke: #000; stroke-linecap: round; stroke-linejoin: round; stroke-width: 20px;"/>
  <polyline points="32.992 35.33 35.653 47.19 33.862 59.047 36.363 70.907 34.176 82.77 37.83 94.63 36.646 106.499 34.882 118.734 45.052 117.132 54.774 119.636" style="fill: none; stroke: #000; stroke-linecap: round; stroke-linejoin: round; stroke-width: 20px;"/>
  <polyline points="84.852 82.475 81.515 94.258 81.18 106.038 84.096 117.82 79.991 129.607 83.298 141.39 82.21 153.181 81.883 165.564 94.258 163.235 106.038 163.773 117.82 164.051 129.607 164.484 141.39 164.871 153.181 166.5 164.972 162.782" style="fill: none; stroke: #000; stroke-linecap: round; stroke-linejoin: round; stroke-width: 20px;"/>
  <polyline points="166.64 129.639 165.497 117.849 163.538 106.063 164.023 94.269 166.666 80.849 153.653 83.266 142.337 81.771 131.013 80.201 119.69 83.086" style="fill: none; stroke: #000; stroke-linecap: round; stroke-linejoin: round; stroke-width: 20px;"/>
  <polyline points="176.156 172.727 164.491 166.578 157.429 155.829 147.226 148.223 139.467 138.173 129.755 130.076 120.458 121.559 113.841 110.357 104.851 101.533 94.865 93.692 86.192 84.538" style="fill: none; stroke: #000; stroke-linecap: round; stroke-linejoin: round; stroke-width: 20px;"/>
  <polyline points="85.374 85.356 76.257 77.804 69.12 68.267 60.211 60.496 52.767 51.265 43.255 44.091 35.543 35.118" style="fill: none; stroke: #000; stroke-linecap: round; stroke-linejoin: round; stroke-width: 20px;"/>
  <line x1="24.552" y1="26.565" x2="35.295" y2="35.365" style="fill: none; stroke: #000; stroke-linecap: round; stroke-linejoin: round; stroke-width: 20px;"/>
</svg>