<?xml version="1.0" encoding="UTF-8"?>
<svg id="Small" xmlns="http://www.w3.org/2000/svg" width="160" height="160" viewBox="0 0 160 160">
  <g>
    <path d="M52.051,133.811c-1.54,0-2.553-.96-3.871-1.51s-3.328.027-4.42-1.065c-1.092-1.092-2.14-2.431-2.687-3.744s1.239-3.007,1.239-4.547c0-1.912-1.185-1.912-1.185-3.823s-.997-1.911-.997-3.823,2.091-1.912,2.091-3.824-1.296-1.911-1.296-3.823,1.362-1.911,1.362-3.823-1.163-1.909-1.163-3.819.733-1.912.733-3.823.085-1.91.085-3.821-1.061-1.912-1.061-3.825-.553-1.911-.553-3.822,1.902-1.912,1.902-3.824-2.514-1.913-2.514-3.826,2.415-1.913,2.415-3.826-1.15-1.913-1.15-3.826.169-1.912.169-3.825.173-1.913.173-3.825.441-1.913.441-3.826-.768-1.916-.768-3.832.732-1.926-.688-3.213c-1.565-1.419-1.551.753-3.664.753s-2.133-.548-3.715-1.949c-1.401-1.242.335-1.296.335-3.168s-.169-1.873-.169-3.746-1.426-1.876-1.426-3.752.224-1.603,1.567-2.913c1.379-1.344,1.107-1.594,3.032-1.594s1.925-.117,3.85-.117,1.925.681,3.85.681,1.924.248,3.849.248,1.925.182,3.849.182,1.925-1.089,3.85-1.089,1.928.566,3.857.566,3.446,2.44,4.669.949c1.491-1.818-.559-3.018-.559-5.369s-1.171-2.43.289-4.274c1.156-1.46,1.32-1.514,3.182-1.514s1.863,1.525,3.725,1.525,1.863-.742,3.725-.742,1.863,1.149,3.725,1.149,1.862-1.194,3.724-1.194,1.862.339,3.725.339,1.863-1.458,3.726-1.458,1.866.049,3.732.049,1.903.487,3.062,1.949c1.462,1.842-.155,1.82-.155,4.172s-.316,2.598,1.173,4.417c1.219,1.49,1.576-.86,3.501-.86s1.925,1.131,3.85,1.131,1.925,1.173,3.85,1.173,1.924-.629,3.849-.629,1.925-1.358,3.849-1.358,1.925,1.642,3.85,1.642,1.928.392,3.857.392,2.493-2.57,3.876-1.226c1.343,1.305-.15,1.893-.15,3.765s.15,1.873.15,3.746,1.003,1.876,1.003,3.752.06,2.145-1.343,3.391c-1.58,1.403-1.792,1.416-3.905,1.416s-1.841-1.567-3.408-.15c-1.418,1.282-2.121,1.007-2.121,2.919s2.754,1.911,2.754,3.823.023,1.912.023,3.824-2.543,1.911-2.543,3.823.238,1.911.238,3.823,2.036,1.909,2.036,3.819-1.304,1.912-1.304,3.823,1.416,1.91,1.416,3.821-1.62,1.912-1.62,3.825.869,1.911.869,3.822-.513,1.912-.513,3.824-1.36,1.913-1.36,3.826,2.434,1.913,2.434,3.826-.143,1.913-.143,3.826-1.244,1.912-1.244,3.825-.904,1.913-.904,3.825.411,1.913.411,3.826-.413,1.916-.413,3.832.52,1.916.52,3.832c0,1.54-.975,2.409-1.524,3.727s-.003,3.095-1.096,4.188c-1.093,1.092-2.875.548-4.188,1.096s-2.186.831-3.727.831c-1.862,0-1.862,2.37-3.724,2.37s-1.86.423-3.72.423-1.862-.532-3.725-.532-1.861-.543-3.723-.543-1.863.924-3.726.924-1.862-1.084-3.724-1.084-1.863.347-3.726.347-1.864.933-3.727.933-1.864-.476-3.727-.476-1.864-2.097-3.727-2.097-1.863,1.707-3.726,1.707-1.863-.799-3.727-.799-1.864-.785-3.728-.785-1.874,1.135-3.738,1.031c-1.874-.105-1.862-.393-3.729-.393Z" style="fill: #fff;"/>
    <path d="M52.051,133.811c-1.54,0-2.553-.96-3.871-1.51s-3.328.027-4.42-1.065c-1.092-1.092-2.14-2.431-2.687-3.744s1.239-3.007,1.239-4.547c0-1.912-1.185-1.912-1.185-3.823s-.997-1.911-.997-3.823,2.091-1.912,2.091-3.824-1.296-1.911-1.296-3.823,1.362-1.911,1.362-3.823-1.163-1.909-1.163-3.819.733-1.912.733-3.823.085-1.91.085-3.821-1.061-1.912-1.061-3.825-.553-1.911-.553-3.822,1.902-1.912,1.902-3.824-2.514-1.913-2.514-3.826,2.415-1.913,2.415-3.826-1.15-1.913-1.15-3.826.169-1.912.169-3.825.173-1.913.173-3.825.441-1.913.441-3.826-.768-1.916-.768-3.832.732-1.926-.688-3.213c-1.565-1.419-1.551.753-3.664.753s-2.133-.548-3.715-1.949c-1.401-1.242.335-1.296.335-3.168s-.169-1.873-.169-3.746-1.426-1.876-1.426-3.752.224-1.603,1.567-2.913c1.379-1.344,1.107-1.594,3.032-1.594s1.925-.117,3.85-.117,1.925.681,3.85.681,1.924.248,3.849.248,1.925.182,3.849.182,1.925-1.089,3.85-1.089,1.928.566,3.857.566,3.446,2.44,4.669.949c1.491-1.818-.559-3.018-.559-5.369s-1.171-2.43.289-4.274c1.156-1.46,1.32-1.514,3.182-1.514s1.863,1.525,3.725,1.525,1.863-.742,3.725-.742,1.863,1.149,3.725,1.149,1.862-1.194,3.724-1.194,1.862.339,3.725.339,1.863-1.458,3.726-1.458,1.866.049,3.732.049,1.903.487,3.062,1.949c1.462,1.842-.155,1.82-.155,4.172s-.316,2.598,1.173,4.417c1.219,1.49,1.576-.86,3.501-.86s1.925,1.131,3.85,1.131,1.925,1.173,3.85,1.173,1.924-.629,3.849-.629,1.925-1.358,3.849-1.358,1.925,1.642,3.85,1.642,1.928.392,3.857.392,2.493-2.57,3.876-1.226c1.343,1.305-.15,1.893-.15,3.765s.15,1.873.15,3.746,1.003,1.876,1.003,3.752.06,2.145-1.343,3.391c-1.58,1.403-1.792,1.416-3.905,1.416s-1.841-1.567-3.408-.15c-1.418,1.282-2.121,1.007-2.121,2.919s2.754,1.911,2.754,3.823.023,1.912.023,3.824-2.543,1.911-2.543,3.823.238,1.911.238,3.823,2.036,1.909,2.036,3.819-1.304,1.912-1.304,3.823,1.416,1.91,1.416,3.821-1.62,1.912-1.62,3.825.869,1.911.869,3.822-.513,1.912-.513,3.824-1.36,1.913-1.36,3.826,2.434,1.913,2.434,3.826-.143,1.913-.143,3.826-1.244,1.912-1.244,3.825-.904,1.913-.904,3.825.411,1.913.411,3.826-.413,1.916-.413,3.832.52,1.916.52,3.832c0,1.54-.975,2.409-1.524,3.727s-.003,3.095-1.096,4.188c-1.093,1.092-2.875.548-4.188,1.096s-2.186.831-3.727.831c-1.862,0-1.862,2.37-3.724,2.37s-1.86.423-3.72.423-1.862-.532-3.725-.532-1.861-.543-3.723-.543-1.863.924-3.726.924-1.862-1.084-3.724-1.084-1.863.347-3.726.347-1.864.933-3.727.933-1.864-.476-3.727-.476-1.864-2.097-3.727-2.097-1.863,1.707-3.726,1.707-1.863-.799-3.727-.799-1.864-.785-3.728-.785-1.874,1.135-3.738,1.031c-1.874-.105-1.862-.393-3.729-.393Z" style="fill: none; stroke: #000; stroke-miterlimit: 10; stroke-width: 20px;"/>
  </g>
  <path d="M67.455,66.449c0,1.919-.648,1.919-.648,3.837s1.521,1.918,1.521,3.835.769,1.919.769,3.837-.082,1.919-.082,3.839-1.213,1.919-1.213,3.839-.31,1.919-.31,3.839,1.092,1.919,1.092,3.838-1.44,1.919-1.44,3.838,1.68,1.92,1.68,3.839.067,1.923.067,3.845.717,1.923.717,3.845" style="fill: none; stroke: #000; stroke-linecap: round; stroke-miterlimit: 10; stroke-width: 18px;"/>
  <path d="M90.672,66.919c0,1.919-.648,1.919-.648,3.837s1.521,1.918,1.521,3.835.769,1.919.769,3.837-.082,1.919-.082,3.839-1.213,1.919-1.213,3.839-.31,1.919-.31,3.839,1.092,1.919,1.092,3.838-1.44,1.919-1.44,3.838,1.68,1.92,1.68,3.839.067,1.923.067,3.845.717,1.923.717,3.845" style="fill: none; stroke: #000; stroke-linecap: round; stroke-miterlimit: 10; stroke-width: 18px;"/>
</svg>