<?xml version="1.0" encoding="UTF-8"?>
<svg id="SM_Icons" data-name="SM Icons" xmlns="http://www.w3.org/2000/svg" width="300" height="300" viewBox="0 0 300 300">
  <polyline points="151.717 57.034 150.721 69.424 150.765 81.819 151.916 94.215 150.306 106.603 151.943 119.002 150.096 131.393 151.932 143.793 150.378 156.184 148.174 168.574 148.551 180.966 150.553 193.367 150.777 205.767 151.268 218.163 150.781 230.566 151.936 242.973" style="fill: none; stroke: #000; stroke-linecap: round; stroke-linejoin: round; stroke-width: 40px;"/>
  <polyline points="239.179 147.677 227.279 149.883 215.343 149.356 203.397 147.805 191.481 148.685 179.537 147.46 167.613 148.039 155.691 148.552 143.768 149.054 131.84 149.251 119.887 147.03 107.96 147.268 96.066 150.448 84.096 147.169 72.168 148.032 60.225 147.601" style="fill: none; stroke: #000; stroke-linecap: round; stroke-linejoin: round; stroke-width: 40px;"/>
</svg>