<?xml version="1.0" encoding="UTF-8"?>
<svg id="SM_Icons" data-name="SM Icons" xmlns="http://www.w3.org/2000/svg" width="200" height="200" viewBox="0 0 200 200">
  <polyline points="100 49.306 112.901 49.945 125.771 52.953 134.383 63.349 144.927 70.639 150.776 82.015 153.358 94.284 158.059 106.466 157.377 119.561 151.631 131.329 145.049 142.391 135.464 150.939 124.373 157.081 112.727 162.223 100 162.736 87.305 161.92 75.279 157.636 62.886 152.907 57.147 140.584 48.221 131.368 46.637 118.635 42.442 106.466 43.491 95.113 45.526 83.767 51.004 73.677" style="fill: none; stroke: #000; stroke-linecap: round; stroke-linejoin: round; stroke-width: 23px;"/>
  <polyline points="128.393 34.625 117.387 37.692 108.741 45.702 99.104 49.531 102.47 59.342 111.236 66.695 115.886 76.785" style="fill: none; stroke: #000; stroke-linecap: round; stroke-linejoin: round; stroke-width: 23px;"/>
</svg>