<?xml version="1.0" encoding="UTF-8"?>
<svg id="Small" xmlns="http://www.w3.org/2000/svg" width="400" height="400" viewBox="0 0 400 400">
  <path d="M283.137,162.366c0,1.268,1.774,2.566,1.736,3.825-.039,1.267-2.484,2.417-2.561,3.673-.078,1.265.532,2.552.415,3.805-.118,1.261,1.621,2.735,1.465,3.985-.157,1.257-2.934,2.142-3.13,3.387-.197,1.251-.535,2.432-.77,3.67s1.189,2.81.915,4.041-2.034,2.1-2.347,3.321c-.314,1.226-.727,2.382-1.079,3.593s.814,2.88.425,4.079c-.391,1.203-1.707,2.083-2.134,3.269s-.514,2.493-.979,3.666-.204,2.657-.705,3.814c-.503,1.16-1.005,2.339-1.543,3.48s-2.321,1.673-2.895,2.796.24,2.989-.369,4.094-2.432,1.525-3.076,2.61c-.644,1.087-1.177,2.224-1.854,3.289s-.663,2.588-1.373,3.632-1.763,1.857-2.506,2.878c-.743,1.021-1.09,2.353-1.864,3.35s-.998,2.475-1.803,3.448-1.728,1.898-2.563,2.845-2.968.728-3.833,1.648-.344,3.204-1.237,4.097-1.869,1.764-2.79,2.629c-.92.864-3.71-.323-4.657.512s-1.386,2.219-2.358,3.024-2.194,1.26-3.192,2.035-.988,2.879-2.01,3.622-2.051,1.512-3.095,2.223-3.086-.107-4.152.571-.821,3.499-1.908,4.143-2.649.517-3.756,1.127-2.332,1.022-3.458,1.597-2.897-.201-4.041.338-1.785,2.139-2.945,2.642-2.247,1.184-3.423,1.65-2.922-.641-4.111-.213-1.601,3.095-2.804,3.486-2.524.469-3.739.821-2.588.153-3.813.467-2.173,1.868-3.409,2.143-2.983-1.949-4.227-1.713-2.135,2.44-3.386,2.636c-1.244.195-2.523.381-3.779.539-1.25.156-2.726-1.75-3.987-1.633-1.254.117-2.417,1.204-3.681,1.283-1.257.078-2.479,1.301-3.745,1.34-1.258.039-2.553-.672-3.821-.672s-2.572,1.024-3.83.985c-1.267-.039-2.575-.026-3.832-.103-1.265-.078-2.489-1.032-3.742-1.149-1.261-.118-2.55-.132-3.8-.289-1.257-.157-2.568-.086-3.813-.282-1.251-.197-2.419-.982-3.657-1.216s-2.326-1.245-3.556-1.519-2.395-.791-3.616-1.103-2.874.903-4.084.551-2.186-1.553-3.385-1.943-1.868-2.283-3.055-2.71-2.547-.309-3.719-.773-2.729.01-3.886-.492-2.786-.028-3.927-.566-1.998-1.731-3.122-2.304-2.652-.46-3.757-1.069-1.258-2.919-2.343-3.562-3.084.173-4.149-.504-.685-3.548-1.729-4.259-2.313-1.04-3.334-1.782-1.943-1.569-2.939-2.343-2.364-1.054-3.337-1.859-1.347-2.272-2.293-3.107-2.742-.711-3.662-1.576-.987-2.585-1.88-3.478-2.263-1.289-3.128-2.209c-.864-.92-1.436-2.081-2.272-3.028s-1.954-1.627-2.76-2.6-1.037-2.375-1.812-3.373-3.571-.481-4.315-1.502-.977-2.443-1.688-3.488.313-3.221-.365-4.287c-.677-1.065-1.122-2.224-1.766-3.311s-2.601-1.396-3.211-2.503-1.841-1.897-2.416-3.023.851-3.219.312-4.362c-.538-1.141-2.978-1.411-3.481-2.571s-.479-2.549-.944-3.724-1.667-2.086-2.096-3.276,1.381-3.132.99-4.335-2.877-1.746-3.23-2.961c-.351-1.21-.602-2.477-.915-3.703s-.136-2.578-.411-3.814,1.171-2.797.935-4.041-1.991-2.193-2.187-3.444c-.195-1.244-.137-2.527-.294-3.783-.156-1.25-.203-2.509-.32-3.771-.117-1.254-1.542-2.423-1.621-3.688-.078-1.257.86-2.583.82-3.85-.039-1.258.398-2.524.398-3.792s.867-2.493.906-3.751c.039-1.267-1.709-2.603-1.631-3.859.078-1.265.354-2.526.471-3.78.118-1.261.322-2.522.479-3.771.157-1.257-.704-2.682-.508-3.926.197-1.251,2.202-2.202,2.436-3.44s-.816-2.759-.542-3.989c.275-1.236,1.785-2.183,2.098-3.404s.272-2.543.623-3.754,1.356-2.22,1.745-3.419c.391-1.203-.112-2.707.315-3.893s.78-2.422,1.245-3.594.866-2.395,1.367-3.553c.503-1.16.482-2.586,1.02-3.727s2.847-1.425,3.42-2.549,1.74-1.898,2.349-3.003-.926-3.433-.282-4.518,3.202-.996,3.879-2.061c.678-1.066-.722-3.503-.012-4.547s3.607-.551,4.349-1.571-.546-3.571.228-4.568,2.012-1.664,2.817-2.636c.806-.973,1.362-2.195,2.198-3.142s2.405-1.251,3.27-2.171,2.01-1.566,2.903-2.459.68-2.953,1.6-3.817,3.575.171,4.522-.665c.947-.835,1.021-2.667,1.994-3.473s1.193-2.588,2.19-3.363,2.691-.667,3.713-1.411,1.406-2.438,2.45-3.149,3.452.637,4.518-.041,2.229-1.129,3.316-1.774,1.151-3.064,2.258-3.674,2.823-.081,3.949-.656,1.989-1.669,3.133-2.208,2.137-1.431,3.297-1.934,2.802.169,3.977-.297,1.75-2.527,2.94-2.955,3.069,1.171,4.271.781,2.348-.842,3.563-1.195,2.273-1.171,3.499-1.485,2.588.082,3.824-.193,2.03-2.64,3.274-2.876,2.619.215,3.87.019c1.244-.195,2.593.325,3.849.168,1.25-.156,2.399-1.313,3.66-1.431,1.254-.117,2.511-.586,3.775-.664,1.257-.078,2.556.038,3.823,0,1.258-.039,2.548,2.261,3.815,2.261s2.566-2.584,3.824-2.545c1.267.039,2.426,2.324,3.682,2.402,1.265.078,2.632-1.343,3.885-1.225,1.261.118,2.357,1.641,3.607,1.797,1.257.157,2.709-1.144,3.953-.948,1.251.197,2.165,2.247,3.403,2.481s3.02-2.122,4.25-1.848,2.308,1.348,3.529,1.661,2.632.062,3.843.414,1.729,2.979,2.928,3.369,2.83-.511,4.016-.083,2.516.526,3.688.991,1.668,2.55,2.825,3.051,2.707.096,3.848.634,2.134,1.364,3.258,1.938,3.043-.319,4.148.29,1.385,2.692,2.471,3.335,1.933,1.64,2.998,2.318,3.367-.506,4.41.205,1.679,2.059,2.7,2.802,2.024,1.544,3.021,2.319.716,3.125,1.688,3.93,3.042.304,3.988,1.139.712,2.945,1.633,3.809,2.369,1.141,3.262,2.034,3.073.553,3.938,1.473c.864.92,1.847,1.788,2.683,2.735s-.094,3.411.711,4.384c.805.972,1.543,1.961,2.318,2.959s3.307.677,4.05,1.699c.743,1.02.018,3.088.729,4.132s2.05,1.667,2.728,2.734.202,2.823.846,3.91c.643,1.085,2.984,1.199,3.593,2.306s.157,2.784.732,3.91,1.307,2.163,1.846,3.306c.538,1.141,1.172,2.239,1.675,3.399.501,1.157,2.287,1.808,2.753,2.984s-.334,2.849.095,4.039c.427,1.186.993,2.332,1.383,3.535s.886,2.377,1.238,3.592c.351,1.21,1.722,2.175,2.036,3.401s.083,2.612.358,3.848.794,2.445,1.03,3.689.582,2.498.778,3.749c.195,1.244.168,2.56.326,3.817.156,1.25-2.224,2.774-2.106,4.035.117,1.254.94,2.422,1.019,3.687.078,1.257,1.608,2.45,1.647,3.717.039,1.258-1.313,2.544-1.313,3.812ZM357.835,357.769c-1.342-1.342-2.611-.073-3.952-1.415-1.342-1.342.347-3.031-.995-4.373s-1.842-.84-3.183-2.181c-1.341-1.341-2.677-.005-4.017-1.346-1.341-1.341.516-3.198-.824-4.539s-1.248-1.435-2.589-2.776-2.553-.132-3.895-1.474-.274-2.409-1.616-3.751-1.274-1.408-2.616-2.749c-1.341-1.341-2.476-.207-3.817-1.548s-.663-2.021-2.004-3.362c-1.343-1.343-1.612-1.073-2.955-2.416-1.342-1.342-1.914-.769-3.256-2.111s-1.361-1.322-2.703-2.663c-1.342-1.342-.376-2.308-1.718-3.65-1.342-1.342-2.469-.216-3.811-1.558s-.37-2.314-1.711-3.656-1.442-1.242-2.784-2.584-1.943-.742-3.286-2.084-1.065-1.619-2.407-2.961c-1.343-1.343-1.713-.972-3.056-2.315-1.34-1.34-1.871-.809-3.211-2.149s-1.272-1.412-2.614-2.754c-1.342-1.342-.122-2.561-1.464-3.903-1.341-1.341-2.729.048-4.069-1.293-1.341-1.341-1.303-1.38-2.645-2.721s.606-3.292-.737-4.635-1.883-.8-3.225-2.141-1.053-1.633-2.396-2.976c-1.342-1.342-2.535-.149-3.878-1.491s-1.369-1.318-2.712-2.662-.066-2.62-1.409-3.962c-1.343-1.343-3.134.447-4.477-.896s-.718-1.97-2.062-3.314-1.193-1.489-2.534-2.831c-1.343-1.343-.298-2.387-1.641-3.73s-2.189-.5-3.533-1.845c-1.345-1.345-1.495-1.194-2.84-2.539s-.176-2.514-1.521-3.859-3.037.343-4.385-1.004c-1.347-1.347-1.126-1.569-2.473-2.916" style="fill: #fff;"/>
  <path d="M283.137,162.366c0,1.268,1.774,2.566,1.736,3.825-.039,1.267-2.484,2.417-2.561,3.673-.078,1.265.532,2.552.415,3.805-.118,1.261,1.621,2.735,1.465,3.985-.157,1.257-2.934,2.142-3.13,3.387-.197,1.251-.535,2.432-.77,3.67s1.189,2.81.915,4.041-2.034,2.1-2.347,3.321c-.314,1.226-.727,2.382-1.079,3.593s.814,2.88.425,4.079c-.391,1.203-1.707,2.083-2.134,3.269s-.514,2.493-.979,3.666-.204,2.657-.705,3.814c-.503,1.16-1.005,2.339-1.543,3.48s-2.321,1.673-2.895,2.796.24,2.989-.369,4.094-2.432,1.525-3.076,2.61c-.644,1.087-1.177,2.224-1.854,3.289s-.663,2.588-1.373,3.632-1.763,1.857-2.506,2.878c-.743,1.021-1.09,2.353-1.864,3.35s-.998,2.475-1.803,3.448-1.728,1.898-2.563,2.845-2.968.728-3.833,1.648-.344,3.204-1.237,4.097-1.869,1.764-2.79,2.629c-.92.864-3.71-.323-4.657.512s-1.386,2.219-2.358,3.024-2.194,1.26-3.192,2.035-.988,2.879-2.01,3.622-2.051,1.512-3.095,2.223-3.086-.107-4.152.571-.821,3.499-1.908,4.143-2.649.517-3.756,1.127-2.332,1.022-3.458,1.597-2.897-.201-4.041.338-1.785,2.139-2.945,2.642-2.247,1.184-3.423,1.65-2.922-.641-4.111-.213-1.601,3.095-2.804,3.486-2.524.469-3.739.821-2.588.153-3.813.467-2.173,1.868-3.409,2.143-2.983-1.949-4.227-1.713-2.135,2.44-3.386,2.636c-1.244.195-2.523.381-3.779.539-1.25.156-2.726-1.75-3.987-1.633-1.254.117-2.417,1.204-3.681,1.283-1.257.078-2.479,1.301-3.745,1.34-1.258.039-2.553-.672-3.821-.672s-2.572,1.024-3.83.985c-1.267-.039-2.575-.026-3.832-.103-1.265-.078-2.489-1.032-3.742-1.149-1.261-.118-2.55-.132-3.8-.289-1.257-.157-2.568-.086-3.813-.282-1.251-.197-2.419-.982-3.657-1.216s-2.326-1.245-3.556-1.519-2.395-.791-3.616-1.103-2.874.903-4.084.551-2.186-1.553-3.385-1.943-1.868-2.283-3.055-2.71-2.547-.309-3.719-.773-2.729.01-3.886-.492-2.786-.028-3.927-.566-1.998-1.731-3.122-2.304-2.652-.46-3.757-1.069-1.258-2.919-2.343-3.562-3.084.173-4.149-.504-.685-3.548-1.729-4.259-2.313-1.04-3.334-1.782-1.943-1.569-2.939-2.343-2.364-1.054-3.337-1.859-1.347-2.272-2.293-3.107-2.742-.711-3.662-1.576-.987-2.585-1.88-3.478-2.263-1.289-3.128-2.209c-.864-.92-1.436-2.081-2.272-3.028s-1.954-1.627-2.76-2.6-1.037-2.375-1.812-3.373-3.571-.481-4.315-1.502-.977-2.443-1.688-3.488.313-3.221-.365-4.287c-.677-1.065-1.122-2.224-1.766-3.311s-2.601-1.396-3.211-2.503-1.841-1.897-2.416-3.023.851-3.219.312-4.362c-.538-1.141-2.978-1.411-3.481-2.571s-.479-2.549-.944-3.724-1.667-2.086-2.096-3.276,1.381-3.132.99-4.335-2.877-1.746-3.23-2.961c-.351-1.21-.602-2.477-.915-3.703s-.136-2.578-.411-3.814,1.171-2.797.935-4.041-1.991-2.193-2.187-3.444c-.195-1.244-.137-2.527-.294-3.783-.156-1.25-.203-2.509-.32-3.771-.117-1.254-1.542-2.423-1.621-3.688-.078-1.257.86-2.583.82-3.85-.039-1.258.398-2.524.398-3.792s.867-2.493.906-3.751c.039-1.267-1.709-2.603-1.631-3.859.078-1.265.354-2.526.471-3.78.118-1.261.322-2.522.479-3.771.157-1.257-.704-2.682-.508-3.926.197-1.251,2.202-2.202,2.436-3.44s-.816-2.759-.542-3.989c.275-1.236,1.785-2.183,2.098-3.404s.272-2.543.623-3.754,1.356-2.22,1.745-3.419c.391-1.203-.112-2.707.315-3.893s.78-2.422,1.245-3.594.866-2.395,1.367-3.553c.503-1.16.482-2.586,1.02-3.727s2.847-1.425,3.42-2.549,1.74-1.898,2.349-3.003-.926-3.433-.282-4.518,3.202-.996,3.879-2.061c.678-1.066-.722-3.503-.012-4.547s3.607-.551,4.349-1.571-.546-3.571.228-4.568,2.012-1.664,2.817-2.636c.806-.973,1.362-2.195,2.198-3.142s2.405-1.251,3.27-2.171,2.01-1.566,2.903-2.459.68-2.953,1.6-3.817,3.575.171,4.522-.665c.947-.835,1.021-2.667,1.994-3.473s1.193-2.588,2.19-3.363,2.691-.667,3.713-1.411,1.406-2.438,2.45-3.149,3.452.637,4.518-.041,2.229-1.129,3.316-1.774,1.151-3.064,2.258-3.674,2.823-.081,3.949-.656,1.989-1.669,3.133-2.208,2.137-1.431,3.297-1.934,2.802.169,3.977-.297,1.75-2.527,2.94-2.955,3.069,1.171,4.271.781,2.348-.842,3.563-1.195,2.273-1.171,3.499-1.485,2.588.082,3.824-.193,2.03-2.64,3.274-2.876,2.619.215,3.87.019c1.244-.195,2.593.325,3.849.168,1.25-.156,2.399-1.313,3.66-1.431,1.254-.117,2.511-.586,3.775-.664,1.257-.078,2.556.038,3.823,0,1.258-.039,2.548,2.261,3.815,2.261s2.566-2.584,3.824-2.545c1.267.039,2.426,2.324,3.682,2.402,1.265.078,2.632-1.343,3.885-1.225,1.261.118,2.357,1.641,3.607,1.797,1.257.157,2.709-1.144,3.953-.948,1.251.197,2.165,2.247,3.403,2.481s3.02-2.122,4.25-1.848,2.308,1.348,3.529,1.661,2.632.062,3.843.414,1.729,2.979,2.928,3.369,2.83-.511,4.016-.083,2.516.526,3.688.991,1.668,2.55,2.825,3.051,2.707.096,3.848.634,2.134,1.364,3.258,1.938,3.043-.319,4.148.29,1.385,2.692,2.471,3.335,1.933,1.64,2.998,2.318,3.367-.506,4.41.205,1.679,2.059,2.7,2.802,2.024,1.544,3.021,2.319.716,3.125,1.688,3.93,3.042.304,3.988,1.139.712,2.945,1.633,3.809,2.369,1.141,3.262,2.034,3.073.553,3.938,1.473c.864.92,1.847,1.788,2.683,2.735s-.094,3.411.711,4.384c.805.972,1.543,1.961,2.318,2.959s3.307.677,4.05,1.699c.743,1.02.018,3.088.729,4.132s2.05,1.667,2.728,2.734.202,2.823.846,3.91c.643,1.085,2.984,1.199,3.593,2.306s.157,2.784.732,3.91,1.307,2.163,1.846,3.306c.538,1.141,1.172,2.239,1.675,3.399.501,1.157,2.287,1.808,2.753,2.984s-.334,2.849.095,4.039c.427,1.186.993,2.332,1.383,3.535s.886,2.377,1.238,3.592c.351,1.21,1.722,2.175,2.036,3.401s.083,2.612.358,3.848.794,2.445,1.03,3.689.582,2.498.778,3.749c.195,1.244.168,2.56.326,3.817.156,1.25-2.224,2.774-2.106,4.035.117,1.254.94,2.422,1.019,3.687.078,1.257,1.608,2.45,1.647,3.717.039,1.258-1.313,2.544-1.313,3.812ZM357.835,357.769c-1.342-1.342-2.611-.073-3.952-1.415-1.342-1.342.347-3.031-.995-4.373s-1.842-.84-3.183-2.181c-1.341-1.341-2.677-.005-4.017-1.346-1.341-1.341.516-3.198-.824-4.539s-1.248-1.435-2.589-2.776-2.553-.132-3.895-1.474-.274-2.409-1.616-3.751-1.274-1.408-2.616-2.749c-1.341-1.341-2.476-.207-3.817-1.548s-.663-2.021-2.004-3.362c-1.343-1.343-1.612-1.073-2.955-2.416-1.342-1.342-1.914-.769-3.256-2.111s-1.361-1.322-2.703-2.663c-1.342-1.342-.376-2.308-1.718-3.65-1.342-1.342-2.469-.216-3.811-1.558s-.37-2.314-1.711-3.656-1.442-1.242-2.784-2.584-1.943-.742-3.286-2.084-1.065-1.619-2.407-2.961c-1.343-1.343-1.713-.972-3.056-2.315-1.34-1.34-1.871-.809-3.211-2.149s-1.272-1.412-2.614-2.754c-1.342-1.342-.122-2.561-1.464-3.903-1.341-1.341-2.729.048-4.069-1.293-1.341-1.341-1.303-1.38-2.645-2.721s.606-3.292-.737-4.635-1.883-.8-3.225-2.141-1.053-1.633-2.396-2.976c-1.342-1.342-2.535-.149-3.878-1.491s-1.369-1.318-2.712-2.662-.066-2.62-1.409-3.962c-1.343-1.343-3.134.447-4.477-.896s-.718-1.97-2.062-3.314-1.193-1.489-2.534-2.831c-1.343-1.343-.298-2.387-1.641-3.73s-2.189-.5-3.533-1.845c-1.345-1.345-1.495-1.194-2.84-2.539s-.176-2.514-1.521-3.859-3.037.343-4.385-1.004c-1.347-1.347-1.126-1.569-2.473-2.916" style="fill: none; stroke: #000; stroke-linecap: round; stroke-miterlimit: 10; stroke-width: 15px;"/>
</svg>