<?xml version="1.0" encoding="UTF-8"?>
<svg id="eraser" xmlns="http://www.w3.org/2000/svg" width="400" height="400" viewBox="0 0 400 400">
  <g>
    <path d="M348.91,200c0,1.27.57,2.52.54,3.79s-.84,2.49-.9,3.75,2.41,2.69,2.31,3.95-.61,2.52-.73,3.78-.44,2.52-.6,3.78-2.44,2.21-2.63,3.46.04,2.55-.18,3.79.49,2.66.23,3.9-.57,2.47-.86,3.7-1.19,2.31-1.51,3.53-1.18,2.28-1.52,3.5-.77,2.38-1.15,3.59-.88,2.34-1.29,3.54.2,2.74-.24,3.93-1.64,2.07-2.11,3.24-.7,2.43-1.2,3.59-.73,2.43-1.26,3.58,0,2.8-.57,3.94-2.21,1.72-2.8,2.84-.06,2.85-.67,3.96-1.19,2.26-1.83,3.35-2.36,1.54-3.03,2.61-.6,2.62-1.3,3.68-1.56,2.01-2.29,3.05-.49,2.79-1.24,3.81-2.56,1.26-3.34,2.26-.76,2.66-1.56,3.64-3.13.69-3.96,1.65-.87,2.6-1.72,3.54-1,2.55-1.87,3.47-3.4.23-4.3,1.12-1.65,1.9-2.57,2.78-.9,2.75-1.84,3.6-1.88,1.72-2.84,2.55-2.75.66-3.73,1.46-2.1,1.39-3.1,2.17-1.41,2.32-2.43,3.07-1.55,2.2-2.59,2.93-2.16,1.36-3.22,2.06-2.41.96-3.48,1.63-3.06-.18-4.15.46-1,3.33-2.11,3.95-3.13-.47-4.25.12-2.2,1.21-3.34,1.77-2.03,1.59-3.18,2.12-2.38.86-3.54,1.36-2.41.75-3.59,1.22-2.26,1.13-3.45,1.57-2.04,1.8-3.24,2.21-2.86-.61-4.07-.23-2.31,1.04-3.53,1.39-2.29,1.18-3.52,1.49-2.42.74-3.66,1.03-2.22,1.76-3.46,2.02-2.5.56-3.75.79-2.56.18-3.82.37-2.5.58-3.76.73-2.56.15-3.82.28-2.6-.48-3.87-.39-2.51.59-3.78.65-2.58-1.14-3.85-1.11-2.52-.06-3.79-.06-2.57,2.04-3.83,2.01-2.57,0-3.84-.06-2.49-1.24-3.75-1.34-2.63.69-3.89.56-2.39-1.6-3.64-1.76-2.5-.44-3.75-.63-2.56-.08-3.8-.31-2.42-.84-3.66-1.1-2.66.28-3.89,0-2.07-2.17-3.3-2.49-2.45-.54-3.67-.89-3.11,1.54-4.32,1.16-1.72-2.93-2.91-3.33-2.91.63-4.1.19-2.58-.43-3.75-.9-2.19-1.39-3.36-1.89-2.48-.71-3.63-1.24-2.2-1.34-3.33-1.89-1.8-2.07-2.92-2.65-2.01-1.59-3.11-2.21-1.95-1.64-3.04-2.29-3.01.1-4.09-.57-1.64-2.14-2.7-2.84-2.07-1.45-3.11-2.17-1.98-1.56-3-2.31-3.02-.21-4.02-.99-2.19-1.37-3.17-2.17-1.63-2.03-2.59-2.86-1.6-2.03-2.54-2.88-2.29-1.28-3.21-2.15-.89-2.72-1.79-3.62-2.12-1.47-2.99-2.39-1.67-1.9-2.52-2.84-2.35-1.32-3.18-2.28-.59-2.81-1.4-3.79-1.86-1.74-2.64-2.74-1.42-2.09-2.17-3.11-1.78-1.84-2.5-2.88-.73-2.55-1.43-3.61-1.28-2.16-1.95-3.24-1.91-1.78-2.56-2.88-.27-2.74-.89-3.85-2.92-1.29-3.5-2.41-.81-2.44-1.37-3.58-2.08-1.83-2.61-2.99-.89-2.41-1.39-3.57-.53-2.54-1-3.72-1.28-2.24-1.72-3.43,0-2.7-.42-3.9-.37-2.54-.75-3.75-.26-2.55-.61-3.77-1.01-2.33-1.33-3.56-1.83-2.16-2.12-3.39,1.32-2.87,1.07-4.11-1.51-2.27-1.74-3.52-1.69-2.3-1.88-3.55.55-2.65.39-3.91-.13-2.53-.26-3.8-.87-2.47-.97-3.74,1.36-2.62,1.3-3.88.12-2.51.09-3.78-2.12-2.5-2.12-3.77-.31-2.57-.28-3.83,2.71-2.44,2.77-3.7-2.58-2.7-2.48-3.96.75-2.51.88-3.76.55-2.51.7-3.76,2.24-2.24,2.43-3.49-2.04-2.9-1.82-4.15.78-2.46,1.04-3.69,2.03-2.15,2.32-3.38.93-2.36,1.25-3.58-1.85-3.13-1.5-4.35,3.24-1.68,3.61-2.89.97-2.31,1.38-3.51-.66-2.91-.22-4.09-.39-2.89.08-4.06,3.37-1.35,3.87-2.51,1.1-2.25,1.63-3.4.59-2.5,1.15-3.63,1.36-2.13,1.95-3.25-.24-3.01.38-4.11,2.49-1.5,3.13-2.59.31-2.77.98-3.85.58-2.66,1.28-3.72,1.9-1.81,2.62-2.84,3.23-.79,3.98-1.81.94-2.43,1.72-3.43-.07-3.31.73-4.29,2.56-1.19,3.38-2.15,1.57-2.01,2.41-2.95,2.58-1.05,3.45-1.97,1.3-2.25,2.2-3.15,1.51-2.07,2.43-2.95,1.89-1.69,2.83-2.54,1.02-2.71,1.98-3.53,3.51.24,4.49-.56,2.07-1.42,3.07-2.2,1.44-2.26,2.47-3.01,1.57-2.16,2.61-2.88,1.96-1.65,3.02-2.35,1.88-1.8,2.96-2.47,2.79-.32,3.88-.96,1.76-2.05,2.87-2.67,2.13-1.44,3.25-2.03,3.42,1.15,4.56.59,1.7-2.27,2.85-2.8,2.76.03,3.93-.47,2.08-1.52,3.26-1.99,2.02-1.79,3.21-2.23,2.17-1.5,3.37-1.91,2.63-.14,3.84-.52,2.52-.4,3.74-.75,2.43-.7,3.66-1.02,2.29-1.33,3.52-1.62,2.42-.88,3.66-1.13,2.57-.15,3.82-.38,2.75,1.18,4.01.99,2.25-2.15,3.51-2.3,2.75,1.86,4.01,1.73,2.41-1.19,3.68-1.28,2.46-1.26,3.73-1.33,2.54-.36,3.81-.39,2.55,2.31,3.82,2.31,2.56-2.3,3.82-2.27,2.48,1.72,3.74,1.78,2.68-2.14,3.94-2.05,2.3,2.9,3.55,3.03,2.62-.78,3.88-.62,2.67-.7,3.92-.51,2.63-.18,3.88.04,2.23,1.92,3.47,2.17,2.16,1.91,3.39,2.19,2.56.07,3.79.39,2.54.25,3.76.59,2.67-.08,3.88.3,2.09,1.75,3.29,2.16,2.61.22,3.79.66,1.92,2.03,3.09,2.5,2.74-.03,3.9.47,2.42.8,3.57,1.33,2.4.86,3.54,1.42,2.48.74,3.6,1.32,2.34,1.05,3.44,1.67,1.63,2.26,2.72,2.91,1.59,2.22,2.67,2.89,2.76.36,3.82,1.05,2.28,1.15,3.32,1.88,2.73.57,3.75,1.32.67,3.32,1.67,4.1,2.6.78,3.58,1.58,1.56,2.07,2.52,2.9,1.43,2.17,2.37,3.02,2.85.63,3.77,1.51,1.17,2.42,2.07,3.31,3.37.26,4.25,1.18.8,2.74,1.65,3.68,1.5,2.05,2.33,3.01,1.48,2.05,2.29,3.04,2.55,1.21,3.33,2.22,1.21,2.28,1.96,3.31,1.84,1.82,2.57,2.86,1.25,2.24,1.95,3.3,1.55,2.04,2.22,3.11.89,2.44,1.54,3.53.14,2.83.75,3.94,1.3,2.15,1.89,3.27,1.82,1.9,2.38,3.04,1.79,1.96,2.32,3.11-.92,3.17-.42,4.33,2.95,1.51,3.42,2.68-.87,3.04-.43,4.23,2.27,1.87,2.68,3.07,1.98,2.04,2.35,3.25-1.68,3.15-1.34,4.37,2.32,1.98,2.64,3.21.53,2.49.82,3.73,1.16,2.36,1.41,3.6-1.74,2.91-1.52,4.16,2.11,2.21,2.3,3.46-.01,2.57.15,3.83-1.23,2.67-1.1,3.93,1.29,2.41,1.38,3.67,1.44,2.45,1.51,3.72.54,2.54.57,3.81-2.44,2.57-2.44,3.84Z" style="fill: #fff;"/>
    <path d="M348.91,200c0,1.27.57,2.52.54,3.79s-.84,2.49-.9,3.75,2.41,2.69,2.31,3.95-.61,2.52-.73,3.78-.44,2.52-.6,3.78-2.44,2.21-2.63,3.46.04,2.55-.18,3.79.49,2.66.23,3.9-.57,2.47-.86,3.7-1.19,2.31-1.51,3.53-1.18,2.28-1.52,3.5-.77,2.38-1.15,3.59-.88,2.34-1.29,3.54.2,2.74-.24,3.93-1.64,2.07-2.11,3.24-.7,2.43-1.2,3.59-.73,2.43-1.26,3.58,0,2.8-.57,3.94-2.21,1.72-2.8,2.84-.06,2.85-.67,3.96-1.19,2.26-1.83,3.35-2.36,1.54-3.03,2.61-.6,2.62-1.3,3.68-1.56,2.01-2.29,3.05-.49,2.79-1.24,3.81-2.56,1.26-3.34,2.26-.76,2.66-1.56,3.64-3.13.69-3.96,1.65-.87,2.6-1.72,3.54-1,2.55-1.87,3.47-3.4.23-4.3,1.12-1.65,1.9-2.57,2.78-.9,2.75-1.84,3.6-1.88,1.72-2.84,2.55-2.75.66-3.73,1.46-2.1,1.39-3.1,2.17-1.41,2.32-2.43,3.07-1.55,2.2-2.59,2.93-2.16,1.36-3.22,2.06-2.41.96-3.48,1.63-3.06-.18-4.15.46-1,3.33-2.11,3.95-3.13-.47-4.25.12-2.2,1.21-3.34,1.77-2.03,1.59-3.18,2.12-2.38.86-3.54,1.36-2.41.75-3.59,1.22-2.26,1.13-3.45,1.57-2.04,1.8-3.24,2.21-2.86-.61-4.07-.23-2.31,1.04-3.53,1.39-2.29,1.18-3.52,1.49-2.42.74-3.66,1.03-2.22,1.76-3.46,2.02-2.5.56-3.75.79-2.56.18-3.82.37-2.5.58-3.76.73-2.56.15-3.82.28-2.6-.48-3.87-.39-2.51.59-3.78.65-2.58-1.14-3.85-1.11-2.52-.06-3.79-.06-2.57,2.04-3.83,2.01-2.57,0-3.84-.06-2.49-1.24-3.75-1.34-2.63.69-3.89.56-2.39-1.6-3.64-1.76-2.5-.44-3.75-.63-2.56-.08-3.8-.31-2.42-.84-3.66-1.1-2.66.28-3.89,0-2.07-2.17-3.3-2.49-2.45-.54-3.67-.89-3.11,1.54-4.32,1.16-1.72-2.93-2.91-3.33-2.91.63-4.1.19-2.58-.43-3.75-.9-2.19-1.39-3.36-1.89-2.48-.71-3.63-1.24-2.2-1.34-3.33-1.89-1.8-2.07-2.92-2.65-2.01-1.59-3.11-2.21-1.95-1.64-3.04-2.29-3.01.1-4.09-.57-1.64-2.14-2.7-2.84-2.07-1.45-3.11-2.17-1.98-1.56-3-2.31-3.02-.21-4.02-.99-2.19-1.37-3.17-2.17-1.63-2.03-2.59-2.86-1.6-2.03-2.54-2.88-2.29-1.28-3.21-2.15-.89-2.72-1.79-3.62-2.12-1.47-2.99-2.39-1.67-1.9-2.52-2.84-2.35-1.32-3.18-2.28-.59-2.81-1.4-3.79-1.86-1.74-2.64-2.74-1.42-2.09-2.17-3.11-1.78-1.84-2.5-2.88-.73-2.55-1.43-3.61-1.28-2.16-1.95-3.24-1.91-1.78-2.56-2.88-.27-2.74-.89-3.85-2.92-1.29-3.5-2.41-.81-2.44-1.37-3.58-2.08-1.83-2.61-2.99-.89-2.41-1.39-3.57-.53-2.54-1-3.72-1.28-2.24-1.72-3.43,0-2.7-.42-3.9-.37-2.54-.75-3.75-.26-2.55-.61-3.77-1.01-2.33-1.33-3.56-1.83-2.16-2.12-3.39,1.32-2.87,1.07-4.11-1.51-2.27-1.74-3.52-1.69-2.3-1.88-3.55.55-2.65.39-3.91-.13-2.53-.26-3.8-.87-2.47-.97-3.74,1.36-2.62,1.3-3.88.12-2.51.09-3.78-2.12-2.5-2.12-3.77-.31-2.57-.28-3.83,2.71-2.44,2.77-3.7-2.58-2.7-2.48-3.96.75-2.51.88-3.76.55-2.51.7-3.76,2.24-2.24,2.43-3.49-2.04-2.9-1.82-4.15.78-2.46,1.04-3.69,2.03-2.15,2.32-3.38.93-2.36,1.25-3.58-1.85-3.13-1.5-4.35,3.24-1.68,3.61-2.89.97-2.31,1.38-3.51-.66-2.91-.22-4.09-.39-2.89.08-4.06,3.37-1.35,3.87-2.51,1.1-2.25,1.63-3.4.59-2.5,1.15-3.63,1.36-2.13,1.95-3.25-.24-3.01.38-4.11,2.49-1.5,3.13-2.59.31-2.77.98-3.85.58-2.66,1.28-3.72,1.9-1.81,2.62-2.84,3.23-.79,3.98-1.81.94-2.43,1.72-3.43-.07-3.31.73-4.29,2.56-1.19,3.38-2.15,1.57-2.01,2.41-2.95,2.58-1.05,3.45-1.97,1.3-2.25,2.2-3.15,1.51-2.07,2.43-2.95,1.89-1.69,2.83-2.54,1.02-2.71,1.98-3.53,3.51.24,4.49-.56,2.07-1.42,3.07-2.2,1.44-2.26,2.47-3.01,1.57-2.16,2.61-2.88,1.96-1.65,3.02-2.35,1.88-1.8,2.96-2.47,2.79-.32,3.88-.96,1.76-2.05,2.87-2.67,2.13-1.44,3.25-2.03,3.42,1.15,4.56.59,1.7-2.27,2.85-2.8,2.76.03,3.93-.47,2.08-1.52,3.26-1.99,2.02-1.79,3.21-2.23,2.17-1.5,3.37-1.91,2.63-.14,3.84-.52,2.52-.4,3.74-.75,2.43-.7,3.66-1.02,2.29-1.33,3.52-1.62,2.42-.88,3.66-1.13,2.57-.15,3.82-.38,2.75,1.18,4.01.99,2.25-2.15,3.51-2.3,2.75,1.86,4.01,1.73,2.41-1.19,3.68-1.28,2.46-1.26,3.73-1.33,2.54-.36,3.81-.39,2.55,2.31,3.82,2.31,2.56-2.3,3.82-2.27,2.48,1.72,3.74,1.78,2.68-2.14,3.94-2.05,2.3,2.9,3.55,3.03,2.62-.78,3.88-.62,2.67-.7,3.92-.51,2.63-.18,3.88.04,2.23,1.92,3.47,2.17,2.16,1.91,3.39,2.19,2.56.07,3.79.39,2.54.25,3.76.59,2.67-.08,3.88.3,2.09,1.75,3.29,2.16,2.61.22,3.79.66,1.92,2.03,3.09,2.5,2.74-.03,3.9.47,2.42.8,3.57,1.33,2.4.86,3.54,1.42,2.48.74,3.6,1.32,2.34,1.05,3.44,1.67,1.63,2.26,2.72,2.91,1.59,2.22,2.67,2.89,2.76.36,3.82,1.05,2.28,1.15,3.32,1.88,2.73.57,3.75,1.32.67,3.32,1.67,4.1,2.6.78,3.58,1.58,1.56,2.07,2.52,2.9,1.43,2.17,2.37,3.02,2.85.63,3.77,1.51,1.17,2.42,2.07,3.31,3.37.26,4.25,1.18.8,2.74,1.65,3.68,1.5,2.05,2.33,3.01,1.48,2.05,2.29,3.04,2.55,1.21,3.33,2.22,1.21,2.28,1.96,3.31,1.84,1.82,2.57,2.86,1.25,2.24,1.95,3.3,1.55,2.04,2.22,3.11.89,2.44,1.54,3.53.14,2.83.75,3.94,1.3,2.15,1.89,3.27,1.82,1.9,2.38,3.04,1.79,1.96,2.32,3.11-.92,3.17-.42,4.33,2.95,1.51,3.42,2.68-.87,3.04-.43,4.23,2.27,1.87,2.68,3.07,1.98,2.04,2.35,3.25-1.68,3.15-1.34,4.37,2.32,1.98,2.64,3.21.53,2.49.82,3.73,1.16,2.36,1.41,3.6-1.74,2.91-1.52,4.16,2.11,2.21,2.3,3.46-.01,2.57.15,3.83-1.23,2.67-1.1,3.93,1.29,2.41,1.38,3.67,1.44,2.45,1.51,3.72.54,2.54.57,3.81-2.44,2.57-2.44,3.84Z" style="fill: none; stroke: #000; stroke-miterlimit: 10; stroke-width: 15px;"/>
  </g>
  <g>
    <path d="M114.31,209.76c1.18-1.45,1.05-1.56,2.23-3.01s1.07-1.54,2.25-2.99,2.16-.65,3.34-2.1.14-2.29,1.32-3.74.6-1.92,1.78-3.37.96-1.63,2.14-3.08,1.14-1.48,2.32-2.93,2.17-.64,3.35-2.09,1.91-.86,3.09-2.31.59-1.92,1.77-3.38,1.35-1.31,2.53-2.77,1.02-1.58,2.2-3.03.22-2.23,1.4-3.68.92-1.66,2.1-3.11,1.53-1.17,2.71-2.62,1-1.59,2.18-3.05,1.3-1.35,2.48-2.8.77-1.78,1.95-3.23,1.79-.95,2.97-2.4,1.6-1.11,2.78-2.56,1.54-1.16,2.71-2.61.69-1.85,1.87-3.3,2.22-.6,3.4-2.06.65-1.89,1.83-3.34-.05-2.45,1.13-3.9,1.14-1.48,2.32-2.94,2.88-.08,4.06-1.53.16-2.28,1.34-3.73.75-1.8,1.92-3.25,1.31-1.35,2.49-2.8.71-1.84,1.89-3.29,2.49-.39,3.67-1.85,1.82-.94,3-2.4-.19-2.57.99-4.02c.77-.95,2.69-.7,3.59-1.47s1.17-2.37,2.2-2.97,2.62.14,3.74-.27,2.08-.65,3.26-.86,2.16-2.15,3.36-2.15,2.38.77,3.57.98,2.39.35,3.52.77,1.83,1.59,2.88,2.21,1.86,1.28,2.79,2.08c1.44,1.24,1.64,1,3.08,2.25s1.19,1.53,2.62,2.77,2.15.41,3.59,1.65,1.6,1.05,3.03,2.3,1.52,1.14,2.95,2.38.22,2.65,1.65,3.89,2.05.53,3.48,1.78,2.49.02,3.93,1.26,1.19,1.53,2.62,2.77,1.07,1.67,2.5,2.91,1.53,1.13,2.97,2.38.63,2.17,2.07,3.41,2,.59,3.43,1.84.38,2.47,1.81,3.71,2.39.15,3.82,1.39,1.55,1.11,2.98,2.35,1.53,1.13,2.97,2.38,1.55,1.11,2.99,2.35,1.81.82,3.25,2.06.62,2.19,2.06,3.44,1.19,1.53,2.63,2.78c.99.86,2.12,1.48,2.91,2.47s.88,2.4,1.46,3.54,1.2,2.15,1.56,3.38.23,2.42.35,3.71.8,2.45.67,3.74-1.04,2.28-1.4,3.53-.33,2.46-.93,3.62-1.17,2.17-1.98,3.2c-1.16,1.48-1.46,1.25-2.62,2.73s-.2,2.24-1.36,3.72-1.9.9-3.06,2.38-1.57,1.16-2.74,2.64-.71,1.84-1.87,3.32-1.76,1.01-2.93,2.49.84,3.06-.32,4.54-1.48,1.23-2.64,2.71-1.3,1.38-2.46,2.85-2.84.16-4,1.64-.82,1.75-1.98,3.23-.41,2.07-1.58,3.55-1.2,1.45-2.37,2.93-1.66,1.09-2.82,2.57-1.6,1.14-2.77,2.62-1.22,1.44-2.38,2.92-1.26,1.4-2.43,2.88-.3,2.15-1.47,3.63-1.79.98-2.96,2.46-.96,1.64-2.12,3.12-.93,1.66-2.09,3.14-.24,2.21-1.4,3.69-2.12.73-3.28,2.21-.16,2.28-1.32,3.76-1.1,1.53-2.27,3.01-2.14.72-3.3,2.2-.46,2.03-1.63,3.52-1.31,1.37-2.47,2.85-.22,2.23-1.38,3.71-2.19.68-3.35,2.16-.34,2.13-1.51,3.61-2.72.26-3.89,1.74-.35,2.13-1.52,3.62-.39,2.09-1.56,3.58c-.77.98-3.29.31-4.19,1.11s-1.66,1.6-2.7,2.23-1.53,2.4-2.67,2.83-2.42.82-3.62,1.04-2.53-.93-3.75-.93-2.28-.33-3.48-.55-2.56.42-3.72-.01-2.69-.22-3.75-.87-2.08-1.52-3.02-2.35c-1.39-1.23-1.05-1.61-2.45-2.84s-.23-2.54-1.62-3.77-2.97.55-4.36-.68-.12-2.66-1.51-3.89-1.43-1.18-2.82-2.41-1.75-.82-3.14-2.05-1.26-1.37-2.65-2.6-1.23-1.41-2.62-2.64-1.54-1.05-2.93-2.28-2.05-.48-3.44-1.71-.41-2.34-1.8-3.57-1.6-.99-2.99-2.22-1.73-.84-3.13-2.07-1.48-1.13-2.87-2.36-2.21-.31-3.6-1.54-1.44-1.18-2.83-2.41-1.22-1.42-2.61-2.65-1.53-1.07-2.92-2.3-1.29-1.35-2.68-2.58-.91-1.78-2.31-3.01-1.67-.92-3.07-2.15-.57-2.17-1.96-3.4c-.99-.87-1.71-1.81-2.49-2.82s-3.25-1.11-3.83-2.25-1.22-2.6-1.57-3.84.47-2.89.36-4.18-.98-2.75-.84-4.04,1.73-2.39,2.11-3.64.96-2.36,1.58-3.51,1.46-2.04,2.29-3.06Z" style="fill: #fff;"/>
    <path d="M114.31,209.76c1.18-1.45,1.05-1.56,2.23-3.01s1.07-1.54,2.25-2.99,2.16-.65,3.34-2.1.14-2.29,1.32-3.74.6-1.92,1.78-3.37.96-1.63,2.14-3.08,1.14-1.48,2.32-2.93,2.17-.64,3.35-2.09,1.91-.86,3.09-2.31.59-1.92,1.77-3.38,1.35-1.31,2.53-2.77,1.02-1.58,2.2-3.03.22-2.23,1.4-3.68.92-1.66,2.1-3.11,1.53-1.17,2.71-2.62,1-1.59,2.18-3.05,1.3-1.35,2.48-2.8.77-1.78,1.95-3.23,1.79-.95,2.97-2.4,1.6-1.11,2.78-2.56,1.54-1.16,2.71-2.61.69-1.85,1.87-3.3,2.22-.6,3.4-2.06.65-1.89,1.83-3.34-.05-2.45,1.13-3.9,1.14-1.48,2.32-2.94,2.88-.08,4.06-1.53.16-2.28,1.34-3.73.75-1.8,1.92-3.25,1.31-1.35,2.49-2.8.71-1.84,1.89-3.29,2.49-.39,3.67-1.85,1.82-.94,3-2.4-.19-2.57.99-4.02c.77-.95,2.69-.7,3.59-1.47s1.17-2.37,2.2-2.97,2.62.14,3.74-.27,2.08-.65,3.26-.86,2.16-2.15,3.36-2.15,2.38.77,3.57.98,2.39.35,3.52.77,1.83,1.59,2.88,2.21,1.86,1.28,2.79,2.08c1.44,1.24,1.64,1,3.08,2.25s1.19,1.53,2.62,2.77,2.15.41,3.59,1.65,1.6,1.05,3.03,2.3,1.52,1.14,2.95,2.38.22,2.65,1.65,3.89,2.05.53,3.48,1.78,2.49.02,3.93,1.26,1.19,1.53,2.62,2.77,1.07,1.67,2.5,2.91,1.53,1.13,2.97,2.38.63,2.17,2.07,3.41,2,.59,3.43,1.84.38,2.47,1.81,3.71,2.39.15,3.82,1.39,1.55,1.11,2.98,2.35,1.53,1.13,2.97,2.38,1.55,1.11,2.99,2.35,1.81.82,3.25,2.06.62,2.19,2.06,3.44,1.19,1.53,2.63,2.78c.99.86,2.12,1.48,2.91,2.47s.88,2.4,1.46,3.54,1.2,2.15,1.56,3.38.23,2.42.35,3.71.8,2.45.67,3.74-1.04,2.28-1.4,3.53-.33,2.46-.93,3.62-1.17,2.17-1.98,3.2c-1.16,1.48-1.46,1.25-2.62,2.73s-.2,2.24-1.36,3.72-1.9.9-3.06,2.38-1.57,1.16-2.74,2.64-.71,1.84-1.87,3.32-1.76,1.01-2.93,2.49.84,3.06-.32,4.54-1.48,1.23-2.64,2.71-1.3,1.38-2.46,2.85-2.84.16-4,1.64-.82,1.75-1.98,3.23-.41,2.07-1.58,3.55-1.2,1.45-2.37,2.93-1.66,1.09-2.82,2.57-1.6,1.14-2.77,2.62-1.22,1.44-2.38,2.92-1.26,1.4-2.43,2.88-.3,2.15-1.47,3.63-1.79.98-2.96,2.46-.96,1.64-2.12,3.12-.93,1.66-2.09,3.14-.24,2.21-1.4,3.69-2.12.73-3.28,2.21-.16,2.28-1.32,3.76-1.1,1.53-2.27,3.01-2.14.72-3.3,2.2-.46,2.03-1.63,3.52-1.31,1.37-2.47,2.85-.22,2.23-1.38,3.71-2.19.68-3.35,2.16-.34,2.13-1.51,3.61-2.72.26-3.89,1.74-.35,2.13-1.52,3.62-.39,2.09-1.56,3.58c-.77.98-3.29.31-4.19,1.11s-1.66,1.6-2.7,2.23-1.53,2.4-2.67,2.83-2.42.82-3.62,1.04-2.53-.93-3.75-.93-2.28-.33-3.48-.55-2.56.42-3.72-.01-2.69-.22-3.75-.87-2.08-1.52-3.02-2.35c-1.39-1.23-1.05-1.61-2.45-2.84s-.23-2.54-1.62-3.77-2.97.55-4.36-.68-.12-2.66-1.51-3.89-1.43-1.18-2.82-2.41-1.75-.82-3.14-2.05-1.26-1.37-2.65-2.6-1.23-1.41-2.62-2.64-1.54-1.05-2.93-2.28-2.05-.48-3.44-1.71-.41-2.34-1.8-3.57-1.6-.99-2.99-2.22-1.73-.84-3.13-2.07-1.48-1.13-2.87-2.36-2.21-.31-3.6-1.54-1.44-1.18-2.83-2.41-1.22-1.42-2.61-2.65-1.53-1.07-2.92-2.3-1.29-1.35-2.68-2.58-.91-1.78-2.31-3.01-1.67-.92-3.07-2.15-.57-2.17-1.96-3.4c-.99-.87-1.71-1.81-2.49-2.82s-3.25-1.11-3.83-2.25-1.22-2.6-1.57-3.84.47-2.89.36-4.18-.98-2.75-.84-4.04,1.73-2.39,2.11-3.64.96-2.36,1.58-3.51,1.46-2.04,2.29-3.06Z" style="fill: none; stroke: #000; stroke-miterlimit: 10; stroke-width: 15px;"/>
  </g>
  <path d="M169.96,144.51c1.48,1.17.75,2.1,2.23,3.26s1.41,1.26,2.89,2.42,1.15,1.59,2.63,2.76,1.61,1,3.09,2.16,1.87.67,3.35,1.83,1.2,1.52,2.68,2.68,1.31,1.39,2.79,2.55,2.04.46,3.52,1.62,2.28.15,3.76,1.31.48,2.44,1.96,3.61,1.23,1.48,2.72,2.64,1.59,1.02,3.08,2.19,2.64-.3,4.12.86-.17,3.26,1.31,4.43,2.1.38,3.58,1.54,1.63.97,3.11,2.13,2.37.04,3.85,1.2.44,2.5,1.92,3.66,1.58,1.03,3.06,2.2,1.57,1.06,3.05,2.23.7,2.16,2.18,3.32,2.31.12,3.79,1.29,1.94.58,3.42,1.75,1.66.95,3.14,2.11,1.51,1.13,2.99,2.3.69,2.17,2.17,3.34.9,1.91,2.38,3.07,1.95.58,3.43,1.74,1.35,1.34,2.83,2.51,1.61,1.01,3.09,2.17,2.25.2,3.74,1.37,1.69.91,3.18,2.08" style="fill: none; stroke: #000; stroke-miterlimit: 10; stroke-width: 15px;"/>
</svg>