<?xml version="1.0" encoding="UTF-8"?>
<svg id="SM_Icons" data-name="SM Icons" xmlns="http://www.w3.org/2000/svg" width="200" height="200" viewBox="0 0 200 200">
  <path d="M39.308,78.846l2.863,11.581,1.117,11.581-3.663,11.578,1.441,11.581-.662,11.585-.026,11.581-1.505,11.589,3.093,11.589M114.273,169.595l-12.169,2.863-12.172,1.117-12.176-3.663-12.172,1.441-12.18-.662-12.18-.026M160.149,27.153l-13.63,2.283-12.26,1.117-12.264-3.663-12.26,1.441-12.269-.662-12.874.23-1.745,13.177,3.093,12.588-2.992,12.583,2.038,12.587,2.253,12.591-2.295,12.587,2.105,12.596-3.609,14.307,14.015-4.045,12.26.538,12.264,4.206,12.26-3.817,12.269-.059,12.79,1.974-.409-13.095-2.283-12.588.924-12.583-1.091-12.587,4.364-12.591-2.996-12.587.214-12.635,2.129-13.893Z" style="fill: #fff;"/>
  <path d="M39.308,78.846l2.863,11.581,1.117,11.581-3.663,11.578,1.441,11.581-.662,11.585-.026,11.581-1.505,11.589,3.093,11.589M114.273,169.595l-12.169,2.863-12.172,1.117-12.176-3.663-12.172,1.441-12.18-.662-12.18-.026M160.149,27.153l-13.63,2.283-12.26,1.117-12.264-3.663-12.26,1.441-12.269-.662-12.874.23-1.745,13.177,3.093,12.588-2.992,12.583,2.038,12.587,2.253,12.591-2.295,12.587,2.105,12.596-3.609,14.307,14.015-4.045,12.26.538,12.264,4.206,12.26-3.817,12.269-.059,12.79,1.974-.409-13.095-2.283-12.588.924-12.583-1.091-12.587,4.364-12.591-2.996-12.587.214-12.635,2.129-13.893Z" style="fill: none; stroke: #000; stroke-linecap: round; stroke-linejoin: round; stroke-width: 23px;"/>
</svg>