<?xml version="1.0" encoding="UTF-8"?>
<svg id="SM_Icons" data-name="SM Icons" xmlns="http://www.w3.org/2000/svg" width="700" height="700" viewBox="0 0 700 700">
  <polygon points="533.022 241.001 531.911 230.071 531.521 218.731 526.506 208.607 518.111 201.291 509.751 193.043 498.139 191.789 487.811 195.652 478.543 200.58 472.019 209.076 466.835 218.509 461.097 228.486 460.205 216.703 460.192 205.057 462.622 193.409 461.567 181.757 462.401 170.108 459.507 158.452 459.484 146.795 460.454 135.388 458.217 123.809 448.971 116.306 441.321 107.706 429.708 108.052 417.23 106.68 405.726 111.474 394.175 116.868 387.192 126.03 383.267 115.781 379.205 104.683 372.536 94.942 362.591 88.066 350.441 87.075 337.838 86.934 328.326 95.22 321.857 105.444 316.184 116.036 310.544 127.948 306.318 116.005 294.123 111.911 283.671 104.312 270.969 105.031 259.592 108.187 250.285 115.161 241.677 123.582 241.291 135.931 237.364 146.796 237.283 158.285 239.564 169.734 239.339 181.235 235.546 192.808 238.82 204.235 236.59 215.776 236.57 227.276 240.043 238.702 238.192 250.244 241.3 261.685 235.547 249.948 228.117 240.15 217.403 233.874 207.829 226.426 195.731 224.042 183.126 226.327 174.444 235.492 165.837 244.359 160.003 255.297 159.322 267.855 156.169 279.773 157.683 292.096 157.575 304.441 160.735 316.709 157.92 329.118 158.006 341.464 160.958 353.709 162.029 366.008 159.284 378.48 162.696 390.668 162.764 403.017 163.043 415.36 162.403 427.791 163.734 440.081 166.276 452.217 168.233 464.382 172.074 475.971 175.731 487.594 180.64 498.944 188.603 508.399 195.273 518.686 202.827 528.337 211.93 536.755 219.252 546.557 227.85 555.31 234.05 566.087 240.905 576.361 251.194 583.607 258.669 591.655 270.041 592.477 281.894 595.236 293.745 595.323 305.599 593.213 317.454 595.088 329.308 593.527 341.162 591.679 353.018 593.077 364.875 594.189 376.73 591.489 388.587 595.165 400.444 594.263 412.297 595.137 424.153 591.519 436.013 596.253 447.869 592.384 459.734 595.869 471.106 591.965 479.036 583.982 484.69 573.094 488.86 561.326 496.534 551.668 501.381 540.336 508.627 530.404 516.344 520.703 522.518 510.106 528.959 499.623 534.544 488.653 539.175 477.167 542.459 465.347 543.353 453.413 540.043 441.382 539.957 429.624 542.677 417.872 544.473 406.048 543.835 394.235 543.002 382.437 542.022 370.653 541.263 358.864 542.298 346.994 540.905 335.233 538.363 323.543 539.699 311.643 536.434 300.005 535.835 288.215 538.398 276.232 534.439 264.649 534.151 252.838 533.022 241.001" style="fill: none; stroke: #000; stroke-linecap: round; stroke-linejoin: round; stroke-width: 50px;"/>
  <polyline points="311.652 146.795 313.66 158.797 310.749 170.8 310.313 182.801 313.65 194.803 312.26 206.805 313.209 218.81 310.728 230.813 311.946 242.817 310.579 254.821 311.376 266.822 310.67 278.825 311.972 290.833 313.141 302.837 310.651 314.849 313.716 326.861" style="fill: none; stroke: #000; stroke-linecap: round; stroke-linejoin: round; stroke-width: 45px;"/>
  <polyline points="385.047 146.795 388.997 158.797 389.061 170.8 386.87 182.801 384.723 194.803 386.427 206.805 387.682 218.81 386.523 230.813 388.811 242.817 386.932 254.821 389.325 266.822 385.213 278.825 389.192 290.833 386.925 302.837 384.918 314.849 386.676 326.861" style="fill: none; stroke: #000; stroke-linecap: round; stroke-linejoin: round; stroke-width: 45px;"/>
  <polyline points="460.117 228.352 459.561 240.637 461.708 252.924 462.077 265.209 460.309 277.495 460.632 289.781 462.055 302.064 461.3 314.35 459.665 326.64 461.239 338.926 462.459 351.22 462.033 363.515" style="fill: none; stroke: #000; stroke-linecap: round; stroke-linejoin: round; stroke-width: 45px;"/>
  <polyline points="238.195 261.801 241.652 273.856 240.115 286.265 243.573 298.32 241.268 310.786 241.495 323.067 245.941 335.05 242.899 347.572 244.716 359.743 249.404 371.719 249.811 383.999" style="fill: none; stroke: #000; stroke-linecap: round; stroke-linejoin: round; stroke-width: 45px;"/>
</svg>