<?xml version="1.0" encoding="UTF-8"?>
<svg id="MD_Icons" data-name="MD Icons" xmlns="http://www.w3.org/2000/svg" width="400" height="400" viewBox="0 0 400 400">
  <path d="M180,310.032c1.774,0,1.774.385,3.549.385s1.775,1.883,3.55,1.883,1.776-2.122,3.553-2.122,1.776.157,3.552.157,1.775,1.173,3.55,1.173,1.775-.369,3.55-.369,1.776-.18,3.551-.18,1.777-.972,3.554-.972,1.776,2.017,3.551,2.017,1.775-.96,3.551-.96,1.776.085,3.552.085,1.777-1.138,3.553-1.138,1.776,2.656,3.551,2.656,1.776-.741,3.552-.741,1.777-.277,3.554-.277,1.776-1.002,3.552-1.002,1.777,1.67,3.554,1.67,1.776-1.592,3.553-1.592,1.777.682,3.554.682,1.777,1.444,3.553,1.444,1.777-.759,3.554-.759,1.775.441,3.55.441,1.777.105,3.554.105,1.775.223,3.55.223,1.777-1.174,3.554-1.174,1.776.94,3.552.94,1.778-2.043,3.555-2.043,1.777-.67,3.553-.67,1.777,2.089,3.555,2.089,1.778-1.291,3.556-1.291,1.778.369,3.556.369,1.776,1.185,3.552,1.185,1.778.494,3.556.494,1.778-.945,3.557-.945,1.779,1.064,3.558,1.064,1.782-2.547,3.563-2.547,1.501,1.528,2.746.254c1.272-1.301,1.286-1.022,1.282-2.842s-1.759-1.817-1.763-3.637.107-1.822.104-3.643.623-1.822.62-3.643,1.616-1.823,1.612-3.643-.685-1.819-.689-3.639.612-1.822.609-3.643-.871-1.821-.875-3.643.457-1.822.454-3.643-1.171-1.818-1.175-3.639.085-1.821.082-3.643.044-1.822.041-3.644.43-1.822.427-3.643-1.009-1.819-1.013-3.641,1.34-1.825,1.337-3.647-.425-1.82-.429-3.642.536-1.823.533-3.645-1.85-1.818-1.853-3.64.671-1.823.668-3.645.867-1.824.863-3.645,1.212-1.825,1.208-3.647-1.382-1.819-1.386-3.641-.754-1.821-.757-3.642,1.63-1.823,1.627-3.643-1.137-1.82-1.141-3.642,1.192-1.823,1.189-3.644,0-1.823-.004-3.645-.583-1.821-.586-3.642-.92-1.821-.923-3.643,1.777-1.827,1.774-3.65-2.113-1.819-2.116-3.643-.083-1.823-.087-3.647,2.407-1.827,2.404-3.65-.545-1.822-.548-3.645-1.61-1.82-1.614-3.644,1.655-1.83,1.652-3.656-2.46-1.822-2.463-3.648M220,89.968c-1.774,0-1.774-.385-3.549-.385s-1.775-1.883-3.55-1.883-1.776,2.122-3.552,2.122-1.776-.157-3.552-.157-1.775-1.173-3.55-1.173-1.775.369-3.55.369-1.776.18-3.551.18-1.777.972-3.554.972-1.776-2.017-3.551-2.017-1.775.96-3.551.96-1.776-.085-3.552-.085-1.777,1.138-3.553,1.138-1.776-2.656-3.551-2.656-1.776.741-3.552.741-1.777.277-3.554.277-1.776,1.002-3.552,1.002-1.777-1.67-3.554-1.67-1.776,1.592-3.553,1.592-1.777-.682-3.554-.682-1.777-1.444-3.553-1.444-1.777.759-3.554.759-1.775-.441-3.55-.441-1.777-.105-3.554-.105-1.775-.223-3.55-.223-1.777,1.174-3.554,1.174-1.776-.94-3.552-.94-1.778,2.043-3.555,2.043-1.777.67-3.553.67-1.777-2.089-3.555-2.089-1.778,1.291-3.556,1.291-1.778-.369-3.556-.369-1.776-1.185-3.552-1.185-1.778-.494-3.556-.494-1.778.945-3.557.945-1.779-1.064-3.558-1.064-1.782,2.547-3.563,2.547-1.495-1.502-2.757-.244-1.275.967-1.272,2.742,1.759,1.772,1.763,3.548-.107,1.776-.103,3.551-.623,1.776-.619,3.551-1.616,1.778-1.612,3.552.685,1.774.689,3.549-.612,1.778-.609,3.554.871,1.774.875,3.549-.457,1.776-.453,3.551,1.171,1.773,1.175,3.549-.085,1.776-.081,3.553-.044,1.775-.04,3.551-.43,1.777-.427,3.552,1.009,1.774,1.013,3.551-1.34,1.778-1.337,3.554.425,1.776.429,3.552-.536,1.777-.533,3.553,1.85,1.773,1.853,3.549-.671,1.778-.668,3.554-.867,1.779-.863,3.555-1.212,1.777-1.208,3.551,1.382,1.774,1.386,3.55.754,1.773.757,3.547-1.63,1.78-1.627,3.556,1.137,1.773,1.141,3.549-1.192,1.78-1.189,3.557,0,1.776.004,3.552.583,1.776.587,3.553.92,1.776.924,3.554-1.777,1.781-1.774,3.559,2.113,1.772,2.116,3.547.083,1.778.087,3.555-2.407,1.783-2.404,3.561.545,1.777.549,3.556,1.61,1.778,1.614,3.559-1.655,1.785-1.651,3.566-.543-1.774-.547-3.548,1.4-1.779,1.396-3.555.125-1.776.122-3.551-.537-1.774-.541-3.548-.169-1.774-.172-3.549.999-1.777.995-3.552.46-1.778.457-3.554-1.903-1.771-1.907-3.547,1.969-1.779,1.966-3.554-1.438-1.773-1.441-3.549,1.985-1.78,1.981-3.557-2.622-1.77-2.625-3.546.722-1.777.718-3.553-1.009-1.774-1.012-3.551.733-1.777.729-3.553.237-1.777.233-3.554-.402-1.775-.406-3.551,1.784-1.78,1.781-3.556.014-1.776.011-3.553-.977-1.775-.981-3.552,1.325-1.777,1.321-3.552-1.247-1.774-1.25-3.55.746-1.776.742-3.55.469-1.777.466-3.554-2.003-1.772-2.007-3.547.825-1.779.822-3.556.144-1.776.14-3.553-.32-1.776-.324-3.553-.218-1.777-.222-3.555,1.306-1.78,1.303-3.558-2.338-1.771-2.342-3.547,2.51-1.783,2.507-3.561-.94-1.776-.944-3.554-1.019-1.776-1.023-3.555,1.045-1.783,1.042-3.565-1.561-1.96.092-2.625c1.668-.671,1.69-.461,2.961.81s.972,1.571,2.243,2.842.295,2.247,1.566,3.518,1.75.792,3.021,2.063.215,2.327,1.486,3.598,2.06.482,3.331,1.753,1.275,1.268,2.546,2.539,1.047,1.497,2.318,2.768,2.546-.002,3.818,1.27-.257,2.8,1.015,4.072,1.884.659,3.155,1.931.9,1.643,2.171,2.914,2.131.412,3.402,1.683.005,2.534,1.275,3.803,3.236-.696,4.507.575.898,1.644,2.169,2.915,1.26,1.283,2.532,2.555.614,1.929,1.886,3.201,1.54,1.001,2.811,2.272.327,2.213,1.598,3.483,1.475,1.065,2.745,2.334,1.706.833,2.976,2.102,2.134.404,3.404,1.673.524,2.014,1.793,3.284,1.71.829,2.979,2.099-.159,2.698,1.111,3.968,2.975-.435,4.245.835.585,1.956,1.856,3.226,1.766.777,3.037,2.048,1.216,1.328,2.488,2.601,1.345,1.2,2.617,2.472,1.005,1.538,2.276,2.809,1.335,1.207,2.606,2.477.803,1.738,2.073,3.008,1.291,1.249,2.562,2.519,2.27.27,3.541,1.54-.382,2.923.888,4.194,1.405,1.137,2.676,2.409,1.375,1.169,2.647,2.44,2.383.163,3.656,1.435.538,2.006,1.81,3.278,2.287.256,3.558,1.528-.475,3.017.797,4.288,1.491,1.051,2.762,2.322,1.04,1.502,2.311,2.773,1.748.796,3.019,2.067,1.05,1.495,2.322,2.768,2.848-.303,4.121.97-.655,3.199.616,4.471,2.709-.166,3.981,1.106.79,1.753,2.062,3.025,1.23,1.314,2.502,2.586.571,1.975,1.844,3.248,1.985.56,3.258,1.833,1.833.711,3.105,1.984,1.087,1.457,2.359,2.729,1.483,1.062,2.756,2.334,1.142,1.405,2.416,2.678,1.483,1.063,2.755,2.335.441,2.104,1.713,3.376,1.799.747,3.071,2.02.508,2.039,1.781,3.312,2.635-.09,3.908,1.183-.3,2.846.972,4.119,2.545.002,3.819,1.275,1.516,1.03,2.789,2.302.393,2.147,1.664,3.417,1.176,1.365,2.447,2.636.762,1.784,2.035,3.057,2.274.271,3.547,1.544-.095,2.638,1.177,3.909,1.178,1.367,2.45,2.64,2.55-.002,3.824,1.272.929,1.616,2.201,2.888.415,2.133,1.689,3.407,1.931.616,3.204,1.889,2.219.33,3.494,1.604.223,2.325,1.496,3.598,1.53,1.019,2.804,2.293.729,1.821,2.004,3.096,2.596-.052,3.868,1.22.215,2.333,1.489,3.607.654,1.897,1.929,3.172,2.63-.079,3.906,1.196.919,1.632,2.195,2.908,2.281.275,3.558,1.553-.683,3.593.789,4.642c1.455,1.037.432-3.275-.829-4.541s-2.573.04-3.835-1.227-.71-1.815-1.971-3.081-2.378-.148-3.637-1.412-.083-2.436-1.343-3.7-2.109-.422-3.371-1.688-.013-2.51-1.274-3.776-2.076-.452-3.336-1.716-.217-2.306-1.478-3.572-2.077-.455-3.34-1.722-2.166-.364-3.427-1.63-1.212-1.318-2.474-2.585.571-3.092-.691-4.359-2.862.325-4.125-.942.024-2.548-1.238-3.815-1.638-.894-2.901-2.161-1.814-.719-3.078-1.987-.2-2.322-1.46-3.588-1.556-.975-2.818-2.242-1.459-1.074-2.722-2.343-.993-1.539-2.257-2.807-1.896-.639-3.16-1.908-.755-1.781-2.021-3.052-1.69-.849-2.957-2.12" style="fill: none; stroke: #000; stroke-linecap: round; stroke-linejoin: round; stroke-width: 40px;"/>
</svg>