<?xml version="1.0" encoding="UTF-8"?>
<svg id="SM_Icons" data-name="SM Icons" xmlns="http://www.w3.org/2000/svg" width="200" height="200" viewBox="0 0 200 200">
  <polygon points="148.816 174.64 135.558 173.8 123.707 174.503 111.861 171.624 100.012 175.434 88.158 171.704 76.308 175.253 64.45 171.609 51.366 174.456 53.995 161.58 53.086 149.954 54.17 138.333 50.276 126.708 54.038 115.079 53.452 103.454 54.929 91.821 53.22 80.827 64.442 80.527 76.293 79.745 88.139 79.773 99.988 80.033 111.842 77.998 123.692 78.66 135.55 81.575 149.101 78.461 148.055 91.813 149.414 103.439 145.512 115.06 145.789 126.685 147.098 138.314 146.728 149.939 148.078 161.534 148.816 174.64" style="fill: none; stroke: #000; stroke-linecap: round; stroke-linejoin: round; stroke-width: 23px;"/>
  <g>
    <polygon points="105.992 117.628 98.572 128.52 87.929 117.628 98.572 107.829 105.992 117.628"/>
    <polygon points="105.992 117.628 98.572 128.52 87.929 117.628 98.572 107.829 105.992 117.628" style="fill: none; stroke: #000; stroke-linecap: round; stroke-linejoin: round; stroke-width: 23px;"/>
  </g>
  <polyline points="100.812 114.386 98.51 128.368 97.864 142.35" style="fill: none; stroke: #000; stroke-linecap: round; stroke-linejoin: round; stroke-width: 23px;"/>
  <polyline points="74.558 75.675 75.137 63.75 76.542 51.797 82.183 40.49 90.762 31.503 103.037 26.759 115.26 30.177 123.656 39.696 122.678 51.839 123.315 63.75 126.116 75.675" style="fill: none; stroke: #000; stroke-linecap: round; stroke-linejoin: round; stroke-width: 23px;"/>
</svg>