<?xml version="1.0" encoding="UTF-8"?>
<svg id="eraser" xmlns="http://www.w3.org/2000/svg" width="160" height="160" viewBox="0 0 160 160">
  <path d="M107.23,71.716c-1.306,1.275-1.392,1.187-2.699,2.462s-.712,1.885-2.018,3.161-2.141.422-3.449,1.699.19,2.804-1.115,4.078-2.137.424-3.443,1.7-1.613.964-2.921,2.241-1.355,1.229-2.663,2.506-2.05.517-3.358,1.795-.031,2.59-1.342,3.869-1.746,3.856-3.405,3.08c-1.714-.802.372-2.788.372-4.68s.072-1.893.072-3.785.485-1.893.485-3.786-.532-1.893-.532-3.785-.198-1.893-.198-3.785,1.658-1.891,1.658-3.781-2.75-1.893-2.75-3.785,2.001-1.892,2.001-3.783.521-1.893.521-3.787-2.683-1.892-2.683-3.785,1.921-1.893,1.921-3.786-.643-1.894-.643-3.788.459-1.894.459-3.788-1.535-1.894-1.535-3.788,2.571-1.894,2.571-3.787-1.775-1.894-1.775-3.788,1.879-1.894,1.879-3.789-1.656-1.897-1.656-3.795-.344-1.897-.344-3.795M81.392,97.244c-1.43-1.345-1.345-1.435-2.775-2.779s-2.014-.725-3.445-2.07-.613-2.215-2.044-3.561-2.897.212-4.328-1.134-.615-2.211-2.044-3.555-1.131-1.664-2.562-3.01-1.385-1.395-2.816-2.741-.704-2.12-2.135-3.466-2.688-.015-4.122-1.363-1.753-1.01-3.186-2.358" style="fill: none; stroke: #000; stroke-linecap: round; stroke-linejoin: round; stroke-width: 20px;"/>
  <path d="M26.132,104.836c0,1.832,1.049,1.832,1.049,3.664s.565,1.832.565,3.664-1.596,1.831-1.596,3.663,1.532,1.832,1.532,3.663,1.243,1.832,1.243,3.664-1.435,1.835-1.435,3.67-.845,2.037.48,3.307c1.38,1.324,1.565,1.584,3.478,1.584s1.914-1.091,3.827-1.091,1.914-1.168,3.829-1.168,1.913.935,3.827.935,1.914-.172,3.828-.172,1.915-.422,3.829-.422,1.914-.457,3.827-.457,1.915,1.836,3.829,1.836,1.914-1.776,3.828-1.776,1.914,1.456,3.829,1.456,1.914.571,3.829.571,1.915-.12,3.83-.12,1.914-2.067,3.829-2.067,1.914.232,3.829.232,1.912,2.514,3.825,2.514,1.915-2.722,3.829-2.722,1.913,1.161,3.827,1.161,1.915.202,3.831.202,1.914-.754,3.828-.754,1.915.353,3.83.353,1.916-.225,3.832-.225,1.916-.579,3.832-.579,1.916,1.653,3.832,1.653,1.915-.797,3.831-.797,1.916-.475,3.831-.475,1.916.736,3.832.736,1.919,1.306,3.838,1.306,3.217.754,4.586-.59c1.344-1.32-1.808-2.646-1.808-4.53s1.101-1.884,1.101-3.768-1.073-1.884-1.073-3.767.275-1.884.275-3.768,1.324-1.884,1.324-3.769-1.456-1.887-1.456-3.775.543-1.887.543-3.775" style="fill: none; stroke: #000; stroke-linecap: round; stroke-linejoin: round; stroke-width: 20px;"/>
</svg>