<?xml version="1.0" encoding="UTF-8"?>
<svg id="SM_Icons" data-name="SM Icons" xmlns="http://www.w3.org/2000/svg" width="300" height="300" viewBox="0 0 300 300">
  <polyline points="148.511 57.026 151.987 69.428 148.823 81.814 151.67 94.214 150.822 106.605 151.285 119 151.716 131.398 150.07 143.788 150.579 156.184 152.204 168.585 149.251 180.968 148.857 193.362 150.798 205.767 151.302 218.164 151.701 230.569 152.145 242.974" style="fill: none; stroke: #000; stroke-linecap: round; stroke-linejoin: round; stroke-width: 40px;"/>
  <polyline points="239.186 148.251 227.239 146.62 215.31 146.602 203.382 146.574 191.504 150.633 179.52 146.06 167.646 150.712 155.669 146.752 143.765 148.859 131.834 148.783 119.938 151.264 107.969 148.02 96.081 151.732 84.124 149.505 72.199 150.552 60.258 150.296" style="fill: none; stroke: #000; stroke-linecap: round; stroke-linejoin: round; stroke-width: 40px;"/>
</svg>