<?xml version="1.0" encoding="UTF-8"?>
<svg id="SM_Icons" data-name="SM Icons" xmlns="http://www.w3.org/2000/svg" width="200" height="200" viewBox="0 0 200 200">
  <polygon points="33.29 115.368 44.086 113.323 54.941 114.404 65.803 116.562 76.278 115.763 77.613 126.484 79.143 137.579 74.596 148.683 75.537 160.97 88.331 161.719 99.994 161.439 111.665 161.811 122.96 159.391 125.34 148.687 122.152 137.591 122.752 126.488 123.511 115.556 134.193 116.813 145.048 113.536 155.91 117.018 168.142 115.752 158.061 106.314 151.523 95.32 140.249 88.53 133.057 78.111 126.66 66.98 115.708 59.901 107.044 50.777 100.001 38.33 93.366 51.129 84.407 59.974 76.787 70.008 66.127 77.347 58.984 87.815 50.807 97.36 40.138 104.706 33.29 115.368" style="fill: #fff;"/>
  <polygon points="33.29 115.368 44.086 113.323 54.941 114.404 65.803 116.562 76.278 115.763 77.613 126.484 79.143 137.579 74.596 148.683 75.537 160.97 88.331 161.719 99.994 161.439 111.665 161.811 122.96 159.391 125.34 148.687 122.152 137.591 122.752 126.488 123.511 115.556 134.193 116.813 145.048 113.536 155.91 117.018 168.142 115.752 158.061 106.314 151.523 95.32 140.249 88.53 133.057 78.111 126.66 66.98 115.708 59.901 107.044 50.777 100.001 38.33 93.366 51.129 84.407 59.974 76.787 70.008 66.127 77.347 58.984 87.815 50.807 97.36 40.138 104.706 33.29 115.368" style="fill: none; stroke: #000; stroke-linecap: round; stroke-linejoin: round; stroke-width: 23px;"/>
</svg>