<?xml version="1.0" encoding="UTF-8"?>
<svg id="SM_Icons" data-name="SM Icons" xmlns="http://www.w3.org/2000/svg" width="200" height="200" viewBox="0 0 200 200">
  <polygon points="31.559 115.83 44.086 117.374 54.941 117.099 65.803 113.583 78.061 114.018 78.765 126.484 79.112 137.579 78.225 148.683 77.978 158.405 88.331 158.878 99.994 160.209 111.665 157.694 122.122 158.51 122.973 148.687 121.888 137.591 124.384 126.488 124.427 116.453 134.193 114.202 145.048 114.856 155.91 115.569 164.657 114.818 158.181 106.208 150.983 95.799 140.34 88.449 133.183 77.999 125.171 68.303 114.955 60.569 108.027 49.904 100 39.658 90.787 48.838 84.721 60.253 75.563 68.921 68.278 79.258 59.798 88.539 51.416 97.901 40.047 104.52 31.559 115.83" style="fill: #fff;"/>
  <polygon points="31.559 115.83 44.086 117.374 54.941 117.099 65.803 113.583 78.061 114.018 78.765 126.484 79.112 137.579 78.225 148.683 77.978 158.405 88.331 158.878 99.994 160.209 111.665 157.694 122.122 158.51 122.973 148.687 121.888 137.591 124.384 126.488 124.427 116.453 134.193 114.202 145.048 114.856 155.91 115.569 164.657 114.818 158.181 106.208 150.983 95.799 140.34 88.449 133.183 77.999 125.171 68.303 114.955 60.569 108.027 49.904 100 39.658 90.787 48.838 84.721 60.253 75.563 68.921 68.278 79.258 59.798 88.539 51.416 97.901 40.047 104.52 31.559 115.83" style="fill: none; stroke: #000; stroke-linecap: round; stroke-linejoin: round; stroke-width: 23px;"/>
</svg>