<?xml version="1.0" encoding="UTF-8"?>
<svg id="SM_Icons" data-name="SM Icons" xmlns="http://www.w3.org/2000/svg" width="200" height="200" viewBox="0 0 200 200">
  <polyline points="160.063 91.083 150.296 83.114 143.607 72.248 133.868 64.249 126.032 54.451 117.794 45.038 107.418 37.626 99.999 29.667 92.059 37.117 84.313 46.987 73.685 54.151 66.066 64.152 55.761 71.62 46.898 80.457 39.684 90.846" style="fill: none; stroke: #000; stroke-linecap: round; stroke-linejoin: round; stroke-width: 23px;"/>
  <g>
    <polygon points="161.341 145.588 146.978 147.313 133.969 142.894 119.4 143.456 118.817 158.748 121.345 172.959 106.993 174.669 93.016 170.362 79.895 171.705 80.617 158.748 80.258 143.779 66.04 146.38 53.031 145.203 40.272 144.804 47.551 134.849 58.094 127.611 65.283 117.212 75.337 109.502 82.571 99.144 90.434 89.367 100 80.553 107.917 90.902 116.066 100.394 124.952 109.196 135.191 116.731 142.295 127.211 151.179 136.036 161.341 145.588" style="fill: #fff;"/>
    <polygon points="161.341 145.588 146.978 147.313 133.969 142.894 119.4 143.456 118.817 158.748 121.345 172.959 106.993 174.669 93.016 170.362 79.895 171.705 80.617 158.748 80.258 143.779 66.04 146.38 53.031 145.203 40.272 144.804 47.551 134.849 58.094 127.611 65.283 117.212 75.337 109.502 82.571 99.144 90.434 89.367 100 80.553 107.917 90.902 116.066 100.394 124.952 109.196 135.191 116.731 142.295 127.211 151.179 136.036 161.341 145.588" style="fill: none; stroke: #000; stroke-linecap: round; stroke-linejoin: round; stroke-width: 23px;"/>
  </g>
</svg>