<?xml version="1.0" encoding="UTF-8"?>
<svg id="LM_Icons" data-name="LM Icons" xmlns="http://www.w3.org/2000/svg" width="700" height="700" viewBox="0 0 700 700">
  <path d="M593.184,608.141c-1.803,1.824-1.81,2.261-4.376,2.261s-2.565-1.179-5.131-1.179-2.566,1.713-5.131,1.713-2.566-.942-5.132-.942-2.566-1.257-5.133-1.257-2.567-1.245-5.134-1.245-2.568-.71-5.136-.71-2.567,3.366-5.134,3.366-2.567,2.162-5.133,2.162-2.566-7.079-5.132-7.079-2.566,1.778-5.132,1.778-2.566,5.202-5.132,5.202-2.566-2.746-5.132-2.746-2.566,3.264-5.132,3.264-2.567-7.795-5.133-7.795-2.567,1.269-5.135,1.269-2.568,3.001-5.136,3.001-2.567,2.532-5.134,2.532-2.567-1.592-5.133-1.592-2.566,1.11-5.133,1.11-2.566-5.762-5.132-5.762-2.566,1.212-5.133,1.212-2.567,2.796-5.133,2.796-2.567,1.139-5.134,1.139-2.568.637-5.136.637-2.568-1.599-5.135-1.599-2.567-2.703-5.134-2.703-2.567.103-5.133.103-2.567,2.371-5.133,2.371-2.567-4.387-5.134-4.387-2.567,2.497-5.134,2.497-2.568-1.015-5.136-1.015-2.568,1.473-5.136,1.473-2.567.525-5.134.525-2.567-2.039-5.134-2.039-2.567.344-5.134.344-2.567-.127-5.135-.127-2.568,3.662-5.136,3.662-2.568-1.249-5.136-1.249-2.567-1.909-5.135-1.909-2.567-.862-5.134-.862-2.567-.981-5.135-.981-2.568,1.117-5.136,1.117-2.568,4.708-5.136,4.708-2.568.881-5.135.881-2.567-.385-5.135-.385-2.568.39-5.135.39-2.568-5.105-5.137-5.105-2.568,2.87-5.136,2.87-2.568-1.005-5.135-1.005-2.568-3.945-5.135-3.945-2.569,4.663-5.137,4.663-2.568,1.823-5.136,1.823-2.568-2.341-5.135-2.341-2.568,3.009-5.136,3.009-2.568-7.138-5.137-7.138-2.566,5.886-5.132,5.886-2.565-2.563-5.131-2.563-2.565.014-5.131.014-2.566.141-5.133.141-2.568,3.8-5.136,3.8-2.568-5.208-5.135-5.208-2.566,2.335-5.133,2.335-2.566-3.642-5.133-3.642-2.567,5.758-5.135,5.758-2.569-3.926-5.138-3.926-2.567-2.441-5.135-2.441-2.567,7.413-5.134,7.413-2.568-1.05-5.136-1.05-2.569-2.305-5.138-2.305-2.567,3.611-5.135,3.611-2.568-7.472-5.136-7.472-2.569,4.79-5.138,4.79-2.568,2.256-5.136,2.256-2.569-4.048-5.138-4.048-2.568-1.036-5.137-1.036-2.569.835-5.138.835-2.569-2.395-5.138-2.395-2.57,2.966-5.139,2.966-2.569,1.17-5.138,1.17-2.57-1.61-5.139-1.61-2.57,1.83-5.14,1.83-2.57-3.469-5.139-3.469-2.567-.628-5.134-.628-2.57,6.805-5.139,6.805-2.568-2.804-5.136-2.804-2.569-3.212-5.139-3.212-2.57.606-5.141.606-2.57-.552-5.141-.552-2.57.014-5.141.014-2.571,2.083-5.142,2.083-2.57,1.176-5.139,1.176-2.572-3.62-5.144-3.62-2.574,1.45-5.147,1.45-4.821,4.312-6.635,2.488c-1.825-1.835-2.174-4.068-2.174-6.655s5.293-2.589,5.293-5.177-2.272-2.591-2.272-5.181,3.783-2.589,3.783-5.177-4.758-2.588-4.758-5.177,2.377-2.589,2.377-5.179-4.531-2.59-4.531-5.18,1.043-2.589,1.043-5.178,2.955-2.589,2.955-5.179-1.143-2.59-1.143-5.181.813-2.589.813-5.179,1.255-2.591,1.255-5.181,1.787-2.59,1.787-5.18-5.516-2.59-5.516-5.181,3.337-2.59,3.337-5.18,2.233-2.591,2.233-5.182-4.209-2.59-4.209-5.181,1.665-2.591,1.665-5.182-3.342-2.591-3.342-5.183,2.951-2.591,2.951-5.182,2.773-2.588,2.773-5.177-.331-2.591-.331-5.182.997-2.589.997-5.179-2.722-2.591-2.722-5.181,1.763-2.592,1.763-5.184-.846-2.592-.846-5.184-2.188-2.592-2.188-5.184-1.465-2.592-1.465-5.185-.95-2.591-.95-5.182,5.99-2.593,5.99-5.187-6.516-2.595-6.516-5.19,1.91-3.052,3.734-4.898c1.803-1.824,2.27-2.093,4.835-2.093s2.565,1.409,5.131,1.409,2.566-2.924,5.131-2.924,2.566-.648,5.132-.648,2.566.128,5.133.128,2.567,7.461,5.134,7.461,2.568-6.853,5.136-6.853,2.567,3.125,5.134,3.125,2.567,2.991,5.133,2.991,2.566-5.218,5.132-5.218,2.566-1.368,5.132-1.368,2.566,7.044,5.132,7.044,2.566-3.697,5.132-3.697,2.566-2.321,5.132-2.321,2.567,4.781,5.133,4.781,2.567-1.63,5.135-1.63,2.568-3.131,5.136-3.131,2.567,1.522,5.134,1.522,2.567-2.836,5.133-2.836,2.566,2.18,5.133,2.18,2.566-1.222,5.132-1.222,2.566-.55,5.133-.55,2.567,6.742,5.133,6.742,2.567-2.395,5.134-2.395,2.568,1.376,5.136,1.376,2.568-.605,5.135-.605,2.567.986,5.134.986,2.567.88,5.133.88,2.567-4.204,5.133-4.204,2.567,2.41,5.134,2.41,2.567.08,5.134.08,2.568.209,5.136.209,2.568-.936,5.136-.936,2.567-2.686,5.134-2.686,2.567,3.166,5.134,3.166,2.567-4.561,5.134-4.561,2.567.755,5.135.755,2.568.652,5.136.652,2.568,5.663,5.136,5.663,2.567-4.45,5.135-4.45,2.567-.787,5.134-.787,2.567,2.96,5.135,2.96,2.568-3.352,5.136-3.352,2.568,2.954,5.136,2.954,2.568.342,5.135.342,2.567,2.351,5.135,2.351,2.568-6.703,5.135-6.703,2.568,5.61,5.137,5.61,2.568-4.052,5.136-4.052,2.568,2.408,5.135,2.408,2.568,1.385,5.135,1.385,2.569-2.053,5.137-2.053,2.568,2.653,5.136,2.653,2.568-4.61,5.135-4.61,2.568-1.143,5.136-1.143,2.568,3.607,5.137,3.607,2.566,2.366,5.132,2.366,2.565-.247,5.131-.247,2.565-.545,5.131-.545,2.566.99,5.133.99,2.568-6.682,5.136-6.682,2.568,4.983,5.135,4.983,2.566-2.591,5.133-2.591,2.566,4.624,5.133,4.624,2.567-7.338,5.135-7.338,2.569,4.737,5.138,4.737,2.567,2.191,5.135,2.191,2.567-4.667,5.134-4.667,2.568-.371,5.136-.371,2.569,3.302,5.138,3.302,2.567-3.666,5.135-3.666,2.568.232,5.136.232,2.569.255,5.138.255,2.568.367,5.136.367,2.569,1.306,5.138,1.306,2.568-.475,5.137-.475,2.569-1.338,5.138-1.338,2.569-.899,5.138-.899,2.57,4.456,5.139,4.456,2.569,1.116,5.138,1.116,2.57-4.09,5.139-4.09,2.57,2.549,5.14,2.549,2.57-3.985,5.139-3.985,2.567.04,5.134.04,2.57,5.404,5.139,5.404,2.568-4.661,5.136-4.661,2.569,5.164,5.139,5.164,2.57-4.303,5.141-4.303,2.57,1.866,5.141,1.866,2.57-4.296,5.141-4.296,2.571.163,5.142.163,2.57-.095,5.139-.095,2.572,4.875,5.144,4.875,2.574-1.189,5.147-1.189,4.621-3.749,6.436-1.924c1.825,1.835-.233,3.869-.233,6.457s-1.959,2.589-1.959,5.177-.403,2.591-.403,5.181,2.651,2.589,2.651,5.177.678,2.588.678,5.177-.259,2.589-.259,5.179-1.764,2.59-1.764,5.18-1.482,2.589-1.482,5.178,3.915,2.589,3.915,5.179.252,2.59.252,5.181-.981,2.589-.981,5.179-4.051,2.591-4.051,5.181,3.707,2.59,3.707,5.18-1.021,2.59-1.021,5.181.469,2.59.469,5.18-2.827,2.591-2.827,5.182.948,2.59.948,5.181-.638,2.591-.638,5.182,2.829,2.591,2.829,5.183-.749,2.591-.749,5.182.752,2.588.752,5.177.961,2.591.961,5.182-4.151,2.589-4.151,5.179,1.517,2.591,1.517,5.181.71,2.592.71,5.184,1.99,2.592,1.99,5.184-3.725,2.592-3.725,5.184,4.945,2.592,4.945,5.185-3.664,2.591-3.664,5.182,3.275,2.593,3.275,5.187-6.319,3.029-5.966,5.6c.324,2.362,4.054,2.189,2.23,4.034ZM531.841,276.543c-1.826-1.832-3.338,2.264-5.925,2.264s-2.586-1.179-5.172-1.179-2.585,1.713-5.171,1.713-2.585-.942-5.171-.942-2.586-1.257-5.171-1.257-2.586-1.245-5.172-1.245-2.587-.71-5.174-.71-2.587,3.366-5.173,3.366-2.586,2.162-5.172,2.162-2.586-7.079-5.171-7.079-2.586,1.778-5.171,1.778-2.586,5.202-5.172,5.202-2.587-2.746-5.174-2.746-2.587,3.264-5.173,3.264-2.586-7.795-5.172-7.795-2.586,1.269-5.172,1.269-2.586,3.001-5.172,3.001-2.587,2.532-5.173,2.532-2.587-1.592-5.174-1.592-2.586,1.11-5.173,1.11-2.586-5.762-5.172-5.762-2.586,1.212-5.173,1.212-2.587,2.796-5.174,2.796-2.587,1.139-5.173,1.139-2.586.637-5.173.637-2.587-1.599-5.173-1.599-2.587-2.703-5.175-2.703-2.587.103-5.173.103-2.586,2.371-5.173,2.371-2.587-4.387-5.174-4.387-2.587,2.497-5.174,2.497-2.585-1.015-5.17-1.015-2.584,1.473-5.168,1.473-2.584.525-5.168.525-2.585-2.039-5.17-2.039-2.587.344-5.174.344-2.586-.127-5.173-.127-2.585,3.662-5.17,3.662-2.585-1.249-5.17-1.249-2.586-1.909-5.172-1.909-2.588-.862-5.176-.862-2.586-.981-5.172-.981-2.586,1.117-5.171,1.117-2.587,4.708-5.174,4.708-2.588.881-5.175.881-2.586-.385-5.173-.385-2.587.39-5.174.39-2.588-5.105-5.176-5.105-2.587,2.87-5.173,2.87-2.588-1.005-5.176-1.005-2.587-3.945-5.175-3.945-2.588,4.663-5.176,4.663-2.588,1.823-5.175,1.823-2.588-2.341-5.177-2.341-2.588,3.009-5.175,3.009-2.588-7.138-5.177-7.138-2.589,5.886-5.178,5.886-2.588-2.563-5.177-2.563-2.586.014-5.172.014-2.588.141-5.177.141-2.587,3.8-5.174,3.8-2.588-5.208-5.176-5.208-2.589,2.335-5.178,2.335-2.589-3.642-5.178-3.642-2.589,5.758-5.178,5.758-2.59-3.926-5.18-3.926-2.588-2.441-5.177-2.441-2.591,7.413-5.181,7.413-2.593-1.05-5.185-1.05-3.177-4.208-5.012-2.377,3.683,2.414,3.683,5.002-7.472,2.589-7.472,5.177,4.79,2.591,4.79,5.181,2.256,2.589,2.256,5.177-4.048,2.588-4.048,5.177-1.036,2.589-1.036,5.179.835,2.59.835,5.18-2.395,2.589-2.395,5.178,2.966,2.589,2.966,5.179,1.17,2.59,1.17,5.181-1.61,2.589-1.61,5.179,1.83,2.591,1.83,5.181-3.469,2.59-3.469,5.18-.628,2.59-.628,5.181,6.805,2.59,6.805,5.18-2.804,2.591-2.804,5.182-3.212,2.59-3.212,5.181.606,2.591.606,5.182-.552,2.591-.552,5.183.014,2.591.014,5.182,2.083,2.588,2.083,5.177,1.176,2.591,1.176,5.182-3.62,2.589-3.62,5.179,1.45,2.591,1.45,5.181,3.106,2.592,3.106,5.184,1.563,2.592,1.563,5.184-5.293,2.592-5.293,5.184,2.272,2.592,2.272,5.185-3.783,2.591-3.783,5.182,4.758,2.593,4.758,5.187-2.377,2.595-2.377,5.19,1.6.69,3.432,2.529-.084-.066,2.502-.066,2.586,2.955,5.172,2.955,2.585-1.143,5.171-1.143,2.585.813,5.171.813,2.586,1.255,5.171,1.255,2.586,1.787,5.172,1.787,2.587-5.516,5.174-5.516,2.587,3.337,5.173,3.337,2.586,2.233,5.172,2.233,2.586-4.209,5.171-4.209,2.586,1.665,5.171,1.665,2.586-3.342,5.172-3.342,2.587,2.951,5.174,2.951,2.587,2.773,5.173,2.773,2.586-.331,5.172-.331,2.586.997,5.172.997,2.586-2.722,5.172-2.722,2.587,1.763,5.173,1.763,2.587-.846,5.174-.846,2.586-2.188,5.173-2.188,2.586-1.465,5.172-1.465,2.586-.95,5.173-.95,2.587,5.99,5.174,5.99,2.587-6.516,5.173-6.516,2.586,3.854,5.173,3.854,2.587-2.217,5.173-2.217,2.587,1.409,5.175,1.409,2.587-2.924,5.173-2.924,2.586-.648,5.173-.648,2.587.128,5.174.128,2.587,7.461,5.174,7.461,2.585-6.853,5.17-6.853,2.584,3.125,5.168,3.125,2.584,2.991,5.168,2.991,2.585-5.218,5.17-5.218,2.587-1.368,5.174-1.368,2.586,7.044,5.173,7.044,2.585-3.697,5.17-3.697,2.585-2.321,5.17-2.321,2.586,4.781,5.172,4.781,2.588-1.63,5.176-1.63,2.586-3.131,5.172-3.131,2.586,1.522,5.171,1.522,2.587-2.836,5.174-2.836,2.588,2.18,5.175,2.18,2.586-1.222,5.173-1.222,2.587-.55,5.174-.55,2.588,6.742,5.176,6.742,2.587-2.395,5.173-2.395,2.588,1.376,5.176,1.376,2.587-.605,5.175-.605,2.588.986,5.176.986,2.588.88,5.175.88,2.588-4.204,5.177-4.204,2.588,2.41,5.175,2.41,2.588.08,5.177.08,2.589.209,5.178.209,2.588-.936,5.177-.936,2.586-2.686,5.172-2.686,2.588,3.166,5.177,3.166,2.587-4.561,5.174-4.561,2.588.755,5.176.755,2.589.652,5.178.652,2.589,5.663,5.178,5.663,2.589-4.45,5.178-4.45,2.59-.787,5.18-.787,2.588,2.96,5.177,2.96,2.591-3.352,5.181-3.352,2.593,2.954,5.185,2.954,4.512,1.693,6.347-.139,2.834-3.752,2.834-6.339-6.703-2.589-6.703-5.177,5.61-2.591,5.61-5.181-4.052-2.589-4.052-5.177,2.408-2.588,2.408-5.177,1.385-2.589,1.385-5.179-2.053-2.59-2.053-5.18,2.653-2.589,2.653-5.178-4.61-2.589-4.61-5.179-1.143-2.59-1.143-5.181,3.607-2.589,3.607-5.179,2.366-2.591,2.366-5.181-.247-2.59-.247-5.18-.545-2.59-.545-5.181.99-2.59.99-5.18-6.682-2.591-6.682-5.182,4.983-2.59,4.983-5.181-2.591-2.591-2.591-5.182,4.624-2.591,4.624-5.183-7.338-2.591-7.338-5.182,4.737-2.588,4.737-5.177,2.191-2.591,2.191-5.182-4.667-2.589-4.667-5.179-.371-2.591-.371-5.181,3.302-2.592,3.302-5.184-3.666-2.592-3.666-5.184.232-2.592.232-5.184.255-2.592.255-5.185.367-2.591.367-5.182,1.306-2.593,1.306-5.187-1.166-2.726-.47-5.226c.856-3.08,2.712-4.066.88-5.904ZM349.166,90.456c-1.614,2.048.874,3.052-1.096,5.716-.876,1.185-2.854,1.895-4.011,3.514-.926,1.297-.52,3.695-1.587,5.237-.935,1.352-2.683,2.242-3.7,3.761-.929,1.387-2.933,2.142-3.913,3.652-.918,1.416-2.911,2.224-3.858,3.736-.903,1.441-2.435,2.575-3.351,4.093-.884,1.464,1.121,4.682.236,6.208-.862,1.487.18,4.029-.673,5.564-.837,1.508-7.892-.332-8.709,1.214-.809,1.531-.054,3.948-.833,5.508s3.154,5.37,2.417,6.945-3.936,1.985-4.627,3.575c-.696,1.603,1.677,4.395,1.041,6.002-.645,1.63-8.558.53-9.132,2.156-.585,1.658.029,3.846-.472,5.491-.513,1.687,1.896,4.222,1.484,5.886-.426,1.717,1.701,3.852,1.396,5.533-.317,1.746-2.118,3.088-2.29,4.783-.18,1.77.839,3.39.833,5.09-.006,1.78-5.651,3.915-5.448,5.603.212,1.762,1.812,3.655,2.274,5.299.476,1.694,3.741,2.459,4.505,4.007s2.516,2.221,3.596,3.607c1.044,1.339,2.414,1.858,3.774,3.023,1.271,1.088,1.531,3.229,3.095,4.149,1.43.841,1.866,4.061,3.556,4.75,1.534.625,3.413,1.156,5.171,1.646,1.598.445,3.878-1.462,5.67-1.135,1.638.299,2.845,4.904,4.65,5.1,1.661.18,3.742-2.161,5.55-2.072,1.675.082,3.48,1.141,5.285,1.141s3.585-1.515,5.259-1.597c1.807-.088,3.535-.749,5.196-.929,1.805-.196,3.917,1.558,5.555,1.258,1.793-.328,3.607-1.096,5.206-1.542,1.76-.491,3.676-1.009,5.211-1.635,1.69-.689,1.672-4.753,3.103-5.594,1.565-.92,3.577-.827,4.847-1.915,1.36-1.165,4.029-1.213,5.073-2.553,1.08-1.386,2.95-2.766,3.716-4.319s2.488-3.344,2.963-5.038c.461-1.643-.212-4.013,0-5.775.203-1.687-4.395-3.701-4.402-5.481-.006-1.699-.968-3.121-1.148-4.89-.172-1.694-.007-3.238-.323-4.983-.305-1.68-1.015-3.113-1.44-4.829-.412-1.663,4.051-4.664,3.538-6.351-.5-1.644-3.778-2.421-4.363-4.079-.574-1.625-.238-3.59-.883-5.22-.636-1.607,2.314-4.786,1.619-6.389-.69-1.59-5.677-1.302-6.416-2.88s-3.12-2.311-3.897-3.865.519-4.151-.289-5.682c-.818-1.547-4.277-1.615-5.114-3.124-.853-1.536,4.491-6.58,3.628-8.068-.886-1.527-6.848-.043-7.733-1.509-.917-1.518.359-4.335-.545-5.778-.948-1.514-1.903-2.983-2.823-4.401-.981-1.513-2.063-2.896-2.994-4.285-1.018-1.519-5.129-.804-6.064-2.156-1.067-1.542,2.195-5.955,1.268-7.252-1.156-1.618-4.084-1.67-4.96-2.854-1.967-2.659-3.625-5.069-3.625-5.069ZM348.939,226.278c0,2.548,2.576,2.548,2.576,5.096s-1.179,2.549-1.179,5.098,1.713,2.55,1.713,5.1-.942,2.55-.942,5.1-1.257,2.55-1.257,5.101-1.245,2.551-1.245,5.102-.71,2.55-.71,5.099,3.366,2.552,3.366,5.104,2.162,2.554,2.162,5.107-7.079,2.554-7.079,5.107M179.992,348.308c2.246,1.279,3.521-.96,5.767.32s1.663,2.304,3.91,3.584,3.096-.208,5.344,1.072,1.782,2.099,4.029,3.38,1.626,2.373,3.874,3.653,1.631,2.362,3.879,3.642,1.896,1.897,4.144,3.177,3.915-1.644,6.165-.362,3.321-.597,5.572.685.334,9.274,2.923,9.193c2.625-.082,3.111-3.497,5.319-4.919s-.607-5.796,1.602-7.219,3.696.887,5.905-.536.442-4.167,2.651-5.589,6.429,5.132,8.637,3.71,1.522-2.489,3.73-3.911.586-3.946,2.797-5.37.841-3.553,3.054-4.978,3.295-1.624,5.925-1.71c2.583-.084,3.457.479,5.703,1.758s-.605,6.287,1.642,7.566,2.848.227,5.096,1.507,3.632-1.149,5.88.131,2.812.291,5.06,1.571,2.563.726,4.81,2.006,1.456,2.67,3.704,3.95.912,3.63,3.162,4.911,2.302,1.193,4.553,2.475,2.822.369,5.412.43c2.501.059,3.994,2.761,6.202,1.584s1.035-3.38,3.244-4.557,2.686-.281,4.895-1.458,1.516-2.477,3.726-3.654,1.962-1.64,4.17-2.817,3.167.623,5.376-.554,2.049-1.481,4.26-2.659,2.272-1.067,4.484-2.245.896-5.764,3.403-5.765,2.323,2.454,4.531,3.631,1.311,2.862,3.52,4.039,1.804,1.938,4.013,3.115,1.748,2.043,3.957,3.22,2.734.191,4.942,1.368,4.423-2.978,6.631-1.801,2.625.401,4.835,1.579,2.031,1.519,4.243,2.697.524,1.694,3.03,1.638c2.584-.058,3.26,3.576,5.506,2.296s.827-3.774,3.074-5.053,2.745-.407,4.993-1.687,4.2,2.148,6.448.868-.06-5.333,2.188-6.613,1.345-2.864,3.592-4.144,3.406.754,5.654-.526.761-3.896,3.01-5.177,5.784,4.921,8.035,3.639.01-8.01,2.599-7.929c2.625.082,1.799,3.881,4.007,5.303s2.217,1.41,4.426,2.833,2.285,1.304,4.494,2.726,4.266-1.772,6.475-.35-.611,5.801,1.597,7.223,3.473-.541,5.682.881.239,4.486,2.45,5.909,5.33-3.417,7.542-1.993.367,6.282,2.997,6.368c2.583.084,4.178.663,6.424-.616s-1.422-7.721.825-9.001,2.767-.368,5.015-1.649,3.389.723,5.637-.557.461-4.418,2.709-5.699,5.945,5.213,8.192,3.933-.123-5.443,2.125-6.723,1.133-3.242,3.383-4.523,4.254,2.235,6.506.953,2.764-.382,5.015-1.664" style="fill: #fff;"/>
  <path d="M593.184,608.141c-1.803,1.824-1.81,2.261-4.376,2.261s-2.565-1.179-5.131-1.179-2.566,1.713-5.131,1.713-2.566-.942-5.132-.942-2.566-1.257-5.133-1.257-2.567-1.245-5.134-1.245-2.568-.71-5.136-.71-2.567,3.366-5.134,3.366-2.567,2.162-5.133,2.162-2.566-7.079-5.132-7.079-2.566,1.778-5.132,1.778-2.566,5.202-5.132,5.202-2.566-2.746-5.132-2.746-2.566,3.264-5.132,3.264-2.567-7.795-5.133-7.795-2.567,1.269-5.135,1.269-2.568,3.001-5.136,3.001-2.567,2.532-5.134,2.532-2.567-1.592-5.133-1.592-2.566,1.11-5.133,1.11-2.566-5.762-5.132-5.762-2.566,1.212-5.133,1.212-2.567,2.796-5.133,2.796-2.567,1.139-5.134,1.139-2.568.637-5.136.637-2.568-1.599-5.135-1.599-2.567-2.703-5.134-2.703-2.567.103-5.133.103-2.567,2.371-5.133,2.371-2.567-4.387-5.134-4.387-2.567,2.497-5.134,2.497-2.568-1.015-5.136-1.015-2.568,1.473-5.136,1.473-2.567.525-5.134.525-2.567-2.039-5.134-2.039-2.567.344-5.134.344-2.567-.127-5.135-.127-2.568,3.662-5.136,3.662-2.568-1.249-5.136-1.249-2.567-1.909-5.135-1.909-2.567-.862-5.134-.862-2.567-.981-5.135-.981-2.568,1.117-5.136,1.117-2.568,4.708-5.136,4.708-2.568.881-5.135.881-2.567-.385-5.135-.385-2.568.39-5.135.39-2.568-5.105-5.137-5.105-2.568,2.87-5.136,2.87-2.568-1.005-5.135-1.005-2.568-3.945-5.135-3.945-2.569,4.663-5.137,4.663-2.568,1.823-5.136,1.823-2.568-2.341-5.135-2.341-2.568,3.009-5.136,3.009-2.568-7.138-5.137-7.138-2.566,5.886-5.132,5.886-2.565-2.563-5.131-2.563-2.565.014-5.131.014-2.566.141-5.133.141-2.568,3.8-5.136,3.8-2.568-5.208-5.135-5.208-2.566,2.335-5.133,2.335-2.566-3.642-5.133-3.642-2.567,5.758-5.135,5.758-2.569-3.926-5.138-3.926-2.567-2.441-5.135-2.441-2.567,7.413-5.134,7.413-2.568-1.05-5.136-1.05-2.569-2.305-5.138-2.305-2.567,3.611-5.135,3.611-2.568-7.472-5.136-7.472-2.569,4.79-5.138,4.79-2.568,2.256-5.136,2.256-2.569-4.048-5.138-4.048-2.568-1.036-5.137-1.036-2.569.835-5.138.835-2.569-2.395-5.138-2.395-2.57,2.966-5.139,2.966-2.569,1.17-5.138,1.17-2.57-1.61-5.139-1.61-2.57,1.83-5.14,1.83-2.57-3.469-5.139-3.469-2.567-.628-5.134-.628-2.57,6.805-5.139,6.805-2.568-2.804-5.136-2.804-2.569-3.212-5.139-3.212-2.57.606-5.141.606-2.57-.552-5.141-.552-2.57.014-5.141.014-2.571,2.083-5.142,2.083-2.57,1.176-5.139,1.176-2.572-3.62-5.144-3.62-2.574,1.45-5.147,1.45-4.821,4.312-6.635,2.488c-1.825-1.835-2.174-4.068-2.174-6.655s5.293-2.589,5.293-5.177-2.272-2.591-2.272-5.181,3.783-2.589,3.783-5.177-4.758-2.588-4.758-5.177,2.377-2.589,2.377-5.179-4.531-2.59-4.531-5.18,1.043-2.589,1.043-5.178,2.955-2.589,2.955-5.179-1.143-2.59-1.143-5.181.813-2.589.813-5.179,1.255-2.591,1.255-5.181,1.787-2.59,1.787-5.18-5.516-2.59-5.516-5.181,3.337-2.59,3.337-5.18,2.233-2.591,2.233-5.182-4.209-2.59-4.209-5.181,1.665-2.591,1.665-5.182-3.342-2.591-3.342-5.183,2.951-2.591,2.951-5.182,2.773-2.588,2.773-5.177-.331-2.591-.331-5.182.997-2.589.997-5.179-2.722-2.591-2.722-5.181,1.763-2.592,1.763-5.184-.846-2.592-.846-5.184-2.188-2.592-2.188-5.184-1.465-2.592-1.465-5.185-.95-2.591-.95-5.182,5.99-2.593,5.99-5.187-6.516-2.595-6.516-5.19,1.91-3.052,3.734-4.898c1.803-1.824,2.27-2.093,4.835-2.093s2.565,1.409,5.131,1.409,2.566-2.924,5.131-2.924,2.566-.648,5.132-.648,2.566.128,5.133.128,2.567,7.461,5.134,7.461,2.568-6.853,5.136-6.853,2.567,3.125,5.134,3.125,2.567,2.991,5.133,2.991,2.566-5.218,5.132-5.218,2.566-1.368,5.132-1.368,2.566,7.044,5.132,7.044,2.566-3.697,5.132-3.697,2.566-2.321,5.132-2.321,2.567,4.781,5.133,4.781,2.567-1.63,5.135-1.63,2.568-3.131,5.136-3.131,2.567,1.522,5.134,1.522,2.567-2.836,5.133-2.836,2.566,2.18,5.133,2.18,2.566-1.222,5.132-1.222,2.566-.55,5.133-.55,2.567,6.742,5.133,6.742,2.567-2.395,5.134-2.395,2.568,1.376,5.136,1.376,2.568-.605,5.135-.605,2.567.986,5.134.986,2.567.88,5.133.88,2.567-4.204,5.133-4.204,2.567,2.41,5.134,2.41,2.567.08,5.134.08,2.568.209,5.136.209,2.568-.936,5.136-.936,2.567-2.686,5.134-2.686,2.567,3.166,5.134,3.166,2.567-4.561,5.134-4.561,2.567.755,5.135.755,2.568.652,5.136.652,2.568,5.663,5.136,5.663,2.567-4.45,5.135-4.45,2.567-.787,5.134-.787,2.567,2.96,5.135,2.96,2.568-3.352,5.136-3.352,2.568,2.954,5.136,2.954,2.568.342,5.135.342,2.567,2.351,5.135,2.351,2.568-6.703,5.135-6.703,2.568,5.61,5.137,5.61,2.568-4.052,5.136-4.052,2.568,2.408,5.135,2.408,2.568,1.385,5.135,1.385,2.569-2.053,5.137-2.053,2.568,2.653,5.136,2.653,2.568-4.61,5.135-4.61,2.568-1.143,5.136-1.143,2.568,3.607,5.137,3.607,2.566,2.366,5.132,2.366,2.565-.247,5.131-.247,2.565-.545,5.131-.545,2.566.99,5.133.99,2.568-6.682,5.136-6.682,2.568,4.983,5.135,4.983,2.566-2.591,5.133-2.591,2.566,4.624,5.133,4.624,2.567-7.338,5.135-7.338,2.569,4.737,5.138,4.737,2.567,2.191,5.135,2.191,2.567-4.667,5.134-4.667,2.568-.371,5.136-.371,2.569,3.302,5.138,3.302,2.567-3.666,5.135-3.666,2.568.232,5.136.232,2.569.255,5.138.255,2.568.367,5.136.367,2.569,1.306,5.138,1.306,2.568-.475,5.137-.475,2.569-1.338,5.138-1.338,2.569-.899,5.138-.899,2.57,4.456,5.139,4.456,2.569,1.116,5.138,1.116,2.57-4.09,5.139-4.09,2.57,2.549,5.14,2.549,2.57-3.985,5.139-3.985,2.567.04,5.134.04,2.57,5.404,5.139,5.404,2.568-4.661,5.136-4.661,2.569,5.164,5.139,5.164,2.57-4.303,5.141-4.303,2.57,1.866,5.141,1.866,2.57-4.296,5.141-4.296,2.571.163,5.142.163,2.57-.095,5.139-.095,2.572,4.875,5.144,4.875,2.574-1.189,5.147-1.189,4.621-3.749,6.436-1.924c1.825,1.835-.233,3.869-.233,6.457s-1.959,2.589-1.959,5.177-.403,2.591-.403,5.181,2.651,2.589,2.651,5.177.678,2.588.678,5.177-.259,2.589-.259,5.179-1.764,2.59-1.764,5.18-1.482,2.589-1.482,5.178,3.915,2.589,3.915,5.179.252,2.59.252,5.181-.981,2.589-.981,5.179-4.051,2.591-4.051,5.181,3.707,2.59,3.707,5.18-1.021,2.59-1.021,5.181.469,2.59.469,5.18-2.827,2.591-2.827,5.182.948,2.59.948,5.181-.638,2.591-.638,5.182,2.829,2.591,2.829,5.183-.749,2.591-.749,5.182.752,2.588.752,5.177.961,2.591.961,5.182-4.151,2.589-4.151,5.179,1.517,2.591,1.517,5.181.71,2.592.71,5.184,1.99,2.592,1.99,5.184-3.725,2.592-3.725,5.184,4.945,2.592,4.945,5.185-3.664,2.591-3.664,5.182,3.275,2.593,3.275,5.187-6.319,3.029-5.966,5.6c.324,2.362,4.054,2.189,2.23,4.034ZM531.841,276.543c-1.826-1.832-3.338,2.264-5.925,2.264s-2.586-1.179-5.172-1.179-2.585,1.713-5.171,1.713-2.585-.942-5.171-.942-2.586-1.257-5.171-1.257-2.586-1.245-5.172-1.245-2.587-.71-5.174-.71-2.587,3.366-5.173,3.366-2.586,2.162-5.172,2.162-2.586-7.079-5.171-7.079-2.586,1.778-5.171,1.778-2.586,5.202-5.172,5.202-2.587-2.746-5.174-2.746-2.587,3.264-5.173,3.264-2.586-7.795-5.172-7.795-2.586,1.269-5.172,1.269-2.586,3.001-5.172,3.001-2.587,2.532-5.173,2.532-2.587-1.592-5.174-1.592-2.586,1.11-5.173,1.11-2.586-5.762-5.172-5.762-2.586,1.212-5.173,1.212-2.587,2.796-5.174,2.796-2.587,1.139-5.173,1.139-2.586.637-5.173.637-2.587-1.599-5.173-1.599-2.587-2.703-5.175-2.703-2.587.103-5.173.103-2.586,2.371-5.173,2.371-2.587-4.387-5.174-4.387-2.587,2.497-5.174,2.497-2.585-1.015-5.17-1.015-2.584,1.473-5.168,1.473-2.584.525-5.168.525-2.585-2.039-5.17-2.039-2.587.344-5.174.344-2.586-.127-5.173-.127-2.585,3.662-5.17,3.662-2.585-1.249-5.17-1.249-2.586-1.909-5.172-1.909-2.588-.862-5.176-.862-2.586-.981-5.172-.981-2.586,1.117-5.171,1.117-2.587,4.708-5.174,4.708-2.588.881-5.175.881-2.586-.385-5.173-.385-2.587.39-5.174.39-2.588-5.105-5.176-5.105-2.587,2.87-5.173,2.87-2.588-1.005-5.176-1.005-2.587-3.945-5.175-3.945-2.588,4.663-5.176,4.663-2.588,1.823-5.175,1.823-2.588-2.341-5.177-2.341-2.588,3.009-5.175,3.009-2.588-7.138-5.177-7.138-2.589,5.886-5.178,5.886-2.588-2.563-5.177-2.563-2.586.014-5.172.014-2.588.141-5.177.141-2.587,3.8-5.174,3.8-2.588-5.208-5.176-5.208-2.589,2.335-5.178,2.335-2.589-3.642-5.178-3.642-2.589,5.758-5.178,5.758-2.59-3.926-5.18-3.926-2.588-2.441-5.177-2.441-2.591,7.413-5.181,7.413-2.593-1.05-5.185-1.05-3.177-4.208-5.012-2.377,3.683,2.414,3.683,5.002-7.472,2.589-7.472,5.177,4.79,2.591,4.79,5.181,2.256,2.589,2.256,5.177-4.048,2.588-4.048,5.177-1.036,2.589-1.036,5.179.835,2.59.835,5.18-2.395,2.589-2.395,5.178,2.966,2.589,2.966,5.179,1.17,2.59,1.17,5.181-1.61,2.589-1.61,5.179,1.83,2.591,1.83,5.181-3.469,2.59-3.469,5.18-.628,2.59-.628,5.181,6.805,2.59,6.805,5.18-2.804,2.591-2.804,5.182-3.212,2.59-3.212,5.181.606,2.591.606,5.182-.552,2.591-.552,5.183.014,2.591.014,5.182,2.083,2.588,2.083,5.177,1.176,2.591,1.176,5.182-3.62,2.589-3.62,5.179,1.45,2.591,1.45,5.181,3.106,2.592,3.106,5.184,1.563,2.592,1.563,5.184-5.293,2.592-5.293,5.184,2.272,2.592,2.272,5.185-3.783,2.591-3.783,5.182,4.758,2.593,4.758,5.187-2.377,2.595-2.377,5.19,1.6.69,3.432,2.529-.084-.066,2.502-.066,2.586,2.955,5.172,2.955,2.585-1.143,5.171-1.143,2.585.813,5.171.813,2.586,1.255,5.171,1.255,2.586,1.787,5.172,1.787,2.587-5.516,5.174-5.516,2.587,3.337,5.173,3.337,2.586,2.233,5.172,2.233,2.586-4.209,5.171-4.209,2.586,1.665,5.171,1.665,2.586-3.342,5.172-3.342,2.587,2.951,5.174,2.951,2.587,2.773,5.173,2.773,2.586-.331,5.172-.331,2.586.997,5.172.997,2.586-2.722,5.172-2.722,2.587,1.763,5.173,1.763,2.587-.846,5.174-.846,2.586-2.188,5.173-2.188,2.586-1.465,5.172-1.465,2.586-.95,5.173-.95,2.587,5.99,5.174,5.99,2.587-6.516,5.173-6.516,2.586,3.854,5.173,3.854,2.587-2.217,5.173-2.217,2.587,1.409,5.175,1.409,2.587-2.924,5.173-2.924,2.586-.648,5.173-.648,2.587.128,5.174.128,2.587,7.461,5.174,7.461,2.585-6.853,5.17-6.853,2.584,3.125,5.168,3.125,2.584,2.991,5.168,2.991,2.585-5.218,5.17-5.218,2.587-1.368,5.174-1.368,2.586,7.044,5.173,7.044,2.585-3.697,5.17-3.697,2.585-2.321,5.17-2.321,2.586,4.781,5.172,4.781,2.588-1.63,5.176-1.63,2.586-3.131,5.172-3.131,2.586,1.522,5.171,1.522,2.587-2.836,5.174-2.836,2.588,2.18,5.175,2.18,2.586-1.222,5.173-1.222,2.587-.55,5.174-.55,2.588,6.742,5.176,6.742,2.587-2.395,5.173-2.395,2.588,1.376,5.176,1.376,2.587-.605,5.175-.605,2.588.986,5.176.986,2.588.88,5.175.88,2.588-4.204,5.177-4.204,2.588,2.41,5.175,2.41,2.588.08,5.177.08,2.589.209,5.178.209,2.588-.936,5.177-.936,2.586-2.686,5.172-2.686,2.588,3.166,5.177,3.166,2.587-4.561,5.174-4.561,2.588.755,5.176.755,2.589.652,5.178.652,2.589,5.663,5.178,5.663,2.589-4.45,5.178-4.45,2.59-.787,5.18-.787,2.588,2.96,5.177,2.96,2.591-3.352,5.181-3.352,2.593,2.954,5.185,2.954,4.512,1.693,6.347-.139,2.834-3.752,2.834-6.339-6.703-2.589-6.703-5.177,5.61-2.591,5.61-5.181-4.052-2.589-4.052-5.177,2.408-2.588,2.408-5.177,1.385-2.589,1.385-5.179-2.053-2.59-2.053-5.18,2.653-2.589,2.653-5.178-4.61-2.589-4.61-5.179-1.143-2.59-1.143-5.181,3.607-2.589,3.607-5.179,2.366-2.591,2.366-5.181-.247-2.59-.247-5.18-.545-2.59-.545-5.181.99-2.59.99-5.18-6.682-2.591-6.682-5.182,4.983-2.59,4.983-5.181-2.591-2.591-2.591-5.182,4.624-2.591,4.624-5.183-7.338-2.591-7.338-5.182,4.737-2.588,4.737-5.177,2.191-2.591,2.191-5.182-4.667-2.589-4.667-5.179-.371-2.591-.371-5.181,3.302-2.592,3.302-5.184-3.666-2.592-3.666-5.184.232-2.592.232-5.184.255-2.592.255-5.185.367-2.591.367-5.182,1.306-2.593,1.306-5.187-1.166-2.726-.47-5.226c.856-3.08,2.712-4.066.88-5.904ZM349.166,90.456c-1.614,2.048.874,3.052-1.096,5.716-.876,1.185-2.854,1.895-4.011,3.514-.926,1.297-.52,3.695-1.587,5.237-.935,1.352-2.683,2.242-3.7,3.761-.929,1.387-2.933,2.142-3.913,3.652-.918,1.416-2.911,2.224-3.858,3.736-.903,1.441-2.435,2.575-3.351,4.093-.884,1.464,1.121,4.682.236,6.208-.862,1.487.18,4.029-.673,5.564-.837,1.508-7.892-.332-8.709,1.214-.809,1.531-.054,3.948-.833,5.508s3.154,5.37,2.417,6.945-3.936,1.985-4.627,3.575c-.696,1.603,1.677,4.395,1.041,6.002-.645,1.63-8.558.53-9.132,2.156-.585,1.658.029,3.846-.472,5.491-.513,1.687,1.896,4.222,1.484,5.886-.426,1.717,1.701,3.852,1.396,5.533-.317,1.746-2.118,3.088-2.29,4.783-.18,1.77.839,3.39.833,5.09-.006,1.78-5.651,3.915-5.448,5.603.212,1.762,1.812,3.655,2.274,5.299.476,1.694,3.741,2.459,4.505,4.007s2.516,2.221,3.596,3.607c1.044,1.339,2.414,1.858,3.774,3.023,1.271,1.088,1.531,3.229,3.095,4.149,1.43.841,1.866,4.061,3.556,4.75,1.534.625,3.413,1.156,5.171,1.646,1.598.445,3.878-1.462,5.67-1.135,1.638.299,2.845,4.904,4.65,5.1,1.661.18,3.742-2.161,5.55-2.072,1.675.082,3.48,1.141,5.285,1.141s3.585-1.515,5.259-1.597c1.807-.088,3.535-.749,5.196-.929,1.805-.196,3.917,1.558,5.555,1.258,1.793-.328,3.607-1.096,5.206-1.542,1.76-.491,3.676-1.009,5.211-1.635,1.69-.689,1.672-4.753,3.103-5.594,1.565-.92,3.577-.827,4.847-1.915,1.36-1.165,4.029-1.213,5.073-2.553,1.08-1.386,2.95-2.766,3.716-4.319s2.488-3.344,2.963-5.038c.461-1.643-.212-4.013,0-5.775.203-1.687-4.395-3.701-4.402-5.481-.006-1.699-.968-3.121-1.148-4.89-.172-1.694-.007-3.238-.323-4.983-.305-1.68-1.015-3.113-1.44-4.829-.412-1.663,4.051-4.664,3.538-6.351-.5-1.644-3.778-2.421-4.363-4.079-.574-1.625-.238-3.59-.883-5.22-.636-1.607,2.314-4.786,1.619-6.389-.69-1.59-5.677-1.302-6.416-2.88s-3.12-2.311-3.897-3.865.519-4.151-.289-5.682c-.818-1.547-4.277-1.615-5.114-3.124-.853-1.536,4.491-6.58,3.628-8.068-.886-1.527-6.848-.043-7.733-1.509-.917-1.518.359-4.335-.545-5.778-.948-1.514-1.903-2.983-2.823-4.401-.981-1.513-2.063-2.896-2.994-4.285-1.018-1.519-5.129-.804-6.064-2.156-1.067-1.542,2.195-5.955,1.268-7.252-1.156-1.618-4.084-1.67-4.96-2.854-1.967-2.659-3.625-5.069-3.625-5.069ZM348.939,226.278c0,2.548,2.576,2.548,2.576,5.096s-1.179,2.549-1.179,5.098,1.713,2.55,1.713,5.1-.942,2.55-.942,5.1-1.257,2.55-1.257,5.101-1.245,2.551-1.245,5.102-.71,2.55-.71,5.099,3.366,2.552,3.366,5.104,2.162,2.554,2.162,5.107-7.079,2.554-7.079,5.107M179.992,348.308c2.246,1.279,3.521-.96,5.767.32s1.663,2.304,3.91,3.584,3.096-.208,5.344,1.072,1.782,2.099,4.029,3.38,1.626,2.373,3.874,3.653,1.631,2.362,3.879,3.642,1.896,1.897,4.144,3.177,3.915-1.644,6.165-.362,3.321-.597,5.572.685.334,9.274,2.923,9.193c2.625-.082,3.111-3.497,5.319-4.919s-.607-5.796,1.602-7.219,3.696.887,5.905-.536.442-4.167,2.651-5.589,6.429,5.132,8.637,3.71,1.522-2.489,3.73-3.911.586-3.946,2.797-5.37.841-3.553,3.054-4.978,3.295-1.624,5.925-1.71c2.583-.084,3.457.479,5.703,1.758s-.605,6.287,1.642,7.566,2.848.227,5.096,1.507,3.632-1.149,5.88.131,2.812.291,5.06,1.571,2.563.726,4.81,2.006,1.456,2.67,3.704,3.95.912,3.63,3.162,4.911,2.302,1.193,4.553,2.475,2.822.369,5.412.43c2.501.059,3.994,2.761,6.202,1.584s1.035-3.38,3.244-4.557,2.686-.281,4.895-1.458,1.516-2.477,3.726-3.654,1.962-1.64,4.17-2.817,3.167.623,5.376-.554,2.049-1.481,4.26-2.659,2.272-1.067,4.484-2.245.896-5.764,3.403-5.765,2.323,2.454,4.531,3.631,1.311,2.862,3.52,4.039,1.804,1.938,4.013,3.115,1.748,2.043,3.957,3.22,2.734.191,4.942,1.368,4.423-2.978,6.631-1.801,2.625.401,4.835,1.579,2.031,1.519,4.243,2.697.524,1.694,3.03,1.638c2.584-.058,3.26,3.576,5.506,2.296s.827-3.774,3.074-5.053,2.745-.407,4.993-1.687,4.2,2.148,6.448.868-.06-5.333,2.188-6.613,1.345-2.864,3.592-4.144,3.406.754,5.654-.526.761-3.896,3.01-5.177,5.784,4.921,8.035,3.639.01-8.01,2.599-7.929c2.625.082,1.799,3.881,4.007,5.303s2.217,1.41,4.426,2.833,2.285,1.304,4.494,2.726,4.266-1.772,6.475-.35-.611,5.801,1.597,7.223,3.473-.541,5.682.881.239,4.486,2.45,5.909,5.33-3.417,7.542-1.993.367,6.282,2.997,6.368c2.583.084,4.178.663,6.424-.616s-1.422-7.721.825-9.001,2.767-.368,5.015-1.649,3.389.723,5.637-.557.461-4.418,2.709-5.699,5.945,5.213,8.192,3.933-.123-5.443,2.125-6.723,1.133-3.242,3.383-4.523,4.254,2.235,6.506.953,2.764-.382,5.015-1.664" style="fill: none; stroke: #000; stroke-linecap: round; stroke-linejoin: round; stroke-width: 45px;"/>
</svg>