<?xml version="1.0" encoding="UTF-8"?>
<svg id="Small" xmlns="http://www.w3.org/2000/svg" width="160" height="160" viewBox="0 0 160 160">
  <path d="M107.419,71.91c-1.306,1.275-1.29,1.292-2.596,2.567-1.307,1.276-.806,1.789-2.112,3.065s-1.298,1.286-2.605,2.562c-1.305,1.274-2.372.18-3.677,1.454s-1.764.807-3.07,2.082-.672,1.928-1.98,3.205-2.021.546-3.329,1.823c-1.308,1.277.685,3.319-.623,4.596s-2.574-.015-3.885,1.264c-1.31,1.279-.259,2.83-1.917,2.054-1.714-.802,1.101-1.065,1.101-2.957,0-1.893-1.049-1.893-1.049-3.785,0-1.893-.565-1.893-.565-3.786s1.596-1.893,1.596-3.785-1.532-1.893-1.532-3.785-1.243-1.891-1.243-3.781c0-1.893,1.435-1.893,1.435-3.785,0-1.892-.634-1.892-.634-3.783,0-1.893,1.724-1.893,1.724-3.787,0-1.892-1.091-1.892-1.091-3.785,0-1.893-1.168-1.893-1.168-3.786,0-1.894.935-1.894.935-3.788,0-1.894-.172-1.894-.172-3.788s-.422-1.894-.422-3.788-.457-1.894-.457-3.787,1.836-1.894,1.836-3.788c0-1.894-1.776-1.894-1.776-3.789,0-1.897,1.456-1.897,1.456-3.795,0-1.897.571-1.897.571-3.795M81.206,97.442c-1.43-1.345-1.446-1.328-2.875-2.672s-1.922-.823-3.352-2.168-1.44-1.336-2.871-2.682-.384-2.459-1.815-3.805c-1.429-1.344-.981-1.821-2.41-3.166-1.431-1.346-2.054-.683-3.485-2.029s-.731-2.09-2.163-3.436-3.386.732-4.818-.615c-1.434-1.349-.194-2.666-1.628-4.015-1.434-1.349-1.117-1.685-2.551-3.034" style="fill: none; stroke: #000; stroke-linecap: round; stroke-linejoin: round; stroke-width: 20px;"/>
  <path d="M26.132,104.836c0,1.832,1.049,1.832,1.049,3.664,0,1.832.565,1.832.565,3.664s-1.596,1.831-1.596,3.663c0,1.832,1.532,1.832,1.532,3.663,0,1.832,1.243,1.832,1.243,3.664,0,1.835-1.435,1.835-1.435,3.67,0,1.835-.845,2.037.48,3.307,1.38,1.324,1.565,1.584,3.478,1.584s1.914-1.091,3.827-1.091,1.914-1.168,3.829-1.168,1.913.935,3.827.935,1.914-.172,3.828-.172,1.915-.422,3.829-.422,1.914-.457,3.827-.457,1.915,1.836,3.829,1.836,1.914-1.776,3.828-1.776,1.914,1.456,3.829,1.456,1.914.571,3.829.571,1.915-.12,3.83-.12,1.914-2.067,3.829-2.067,1.914.232,3.829.232,1.912,2.514,3.825,2.514,1.915-2.722,3.829-2.722,1.913,1.161,3.827,1.161,1.915.202,3.831.202,1.914-.754,3.828-.754,1.915.353,3.83.353,1.916-.225,3.832-.225,1.916-.579,3.832-.579,1.916,1.653,3.832,1.653,1.915-.797,3.831-.797,1.916-.475,3.831-.475,1.916.736,3.832.736,1.919,1.306,3.838,1.306,3.217.754,4.586-.59c1.344-1.32-1.808-2.646-1.808-4.53s1.101-1.884,1.101-3.768c0-1.884-1.073-1.884-1.073-3.767,0-1.884.275-1.884.275-3.768s1.324-1.884,1.324-3.769c0-1.887-1.456-1.887-1.456-3.775s.543-1.887.543-3.775" style="fill: none; stroke: #000; stroke-linecap: round; stroke-linejoin: round; stroke-width: 20px;"/>
</svg>