<?xml version="1.0" encoding="UTF-8"?>
<svg id="SM_Icons" data-name="SM Icons" xmlns="http://www.w3.org/2000/svg" width="200" height="200" viewBox="0 0 200 200">
  <polyline points="160.094 91.054 153.062 80.511 142.311 73.468 135.745 62.482 126.799 53.73 118.589 44.291 109.808 35.377 100 28.062 90.32 35.48 84.201 46.883 75.23 55.605 64.274 62.465 58.128 73.847 48.334 81.808 38.807 90.02" style="fill: none; stroke: #000; stroke-linecap: round; stroke-linejoin: round; stroke-width: 23px;"/>
  <g>
    <polygon points="159.742 144.811 146.978 146.873 133.969 145.826 121.279 145.225 122.123 158.748 120.125 171.726 106.993 171.149 93.016 172.504 77.283 174.346 77 158.748 80.25 143.787 66.04 143.574 53.031 147.189 37.978 145.924 49.077 136.286 56.267 125.892 66.646 118.494 74.483 108.699 82.286 98.876 92.35 91.17 100.001 83.244 108.282 90.558 118.656 97.956 126.799 107.458 132.887 118.899 142.73 126.802 151.539 135.69 159.742 144.811" style="fill: #fff;"/>
    <polygon points="159.742 144.811 146.978 146.873 133.969 145.826 121.279 145.225 122.123 158.748 120.125 171.726 106.993 171.149 93.016 172.504 77.283 174.346 77 158.748 80.25 143.787 66.04 143.574 53.031 147.189 37.978 145.924 49.077 136.286 56.267 125.892 66.646 118.494 74.483 108.699 82.286 98.876 92.35 91.17 100.001 83.244 108.282 90.558 118.656 97.956 126.799 107.458 132.887 118.899 142.73 126.802 151.539 135.69 159.742 144.811" style="fill: none; stroke: #000; stroke-linecap: round; stroke-linejoin: round; stroke-width: 23px;"/>
  </g>
</svg>