<?xml version="1.0" encoding="UTF-8"?>
<svg id="SM_Icons" data-name="SM Icons" xmlns="http://www.w3.org/2000/svg" width="200" height="200" viewBox="0 0 200 200">
  <path d="M61.981,171.896l-10.363-3.115-3.293-10.363.265-12.354-4.129-12.355,3.208-12.351-1.268-12.354,1.894-12.358-2.321-12.354,2.82-12.363-2.43-11.983-11.698.307,1.573-10.886-2.01-11.631,15.01.354,13.974-.021,15.576,2.847-1.208-14.193,11.01,1.078,11.401-.643,11.409-2.696,12.778.688-1.789,14.474,14.384,1.349,13.974-.718,12.605.786,3.678,8.324-3.515,8.84-10.163,1.479.519,12.235-2.099,12.355,2.714,12.351-.094,12.354.452,12.358-.84,12.354-2.956,12.363,2.767,12.363-5.482,10.318-10.318,5.905-12.667-2.514-12.67,1.862-12.674-.503-12.67-.7-12.546-1.105-12.812.216ZM82.17,81.567l1.196,11.485-1.018,11.489-.265,11.486,4.129,11.494-3.208,11.494M113.752,82.206l1.196,11.485-1.018,11.489-.265,11.486,4.129,11.494-3.208,11.494" style="fill: #fff;"/>
  <path d="M61.981,171.896l-10.363-3.115-3.293-10.363.265-12.354-4.129-12.355,3.208-12.351-1.268-12.354,1.894-12.358-2.321-12.354,2.82-12.363-2.43-11.983-11.698.307,1.573-10.886-2.01-11.631,15.01.354,13.974-.021,15.576,2.847-1.208-14.193,11.01,1.078,11.401-.643,11.409-2.696,12.778.688-1.789,14.474,14.384,1.349,13.974-.718,12.605.786,3.678,8.324-3.515,8.84-10.163,1.479.519,12.235-2.099,12.355,2.714,12.351-.094,12.354.452,12.358-.84,12.354-2.956,12.363,2.767,12.363-5.482,10.318-10.318,5.905-12.667-2.514-12.67,1.862-12.674-.503-12.67-.7-12.546-1.105-12.812.216ZM82.17,81.567l1.196,11.485-1.018,11.489-.265,11.486,4.129,11.494-3.208,11.494M113.752,82.206l1.196,11.485-1.018,11.489-.265,11.486,4.129,11.494-3.208,11.494" style="fill: none; stroke: #000; stroke-linecap: round; stroke-linejoin: round; stroke-width: 23px;"/>
</svg>