<?xml version="1.0" encoding="UTF-8"?>
<svg id="Small" xmlns="http://www.w3.org/2000/svg" width="400" height="400" viewBox="0 0 400 400">
  <path d="M284.192,162.366c0,1.268.768,2.568.729,3.826-.039,1.267-1.032,2.508-1.11,3.765-.078,1.265.71,2.615.593,3.869-.118,1.261-2.485,2.275-2.642,3.524-.157,1.257.384,2.586.188,3.83-.197,1.251-.264,2.513-.498,3.751s-1.166,2.325-1.439,3.555-.194,2.531-.507,3.752c-.314,1.226.106,2.646-.246,3.857s-.67,2.449-1.059,3.648-1.684,2.091-2.111,3.277c-.429,1.19-1.175,2.232-1.639,3.405-.466,1.176.759,3.05.257,4.208-.503,1.16-2.732,1.537-3.27,2.678-.539,1.144.73,3.175.156,4.299s-2.022,1.809-2.631,2.914-.112,2.874-.755,3.96-2.089,1.718-2.766,2.783-1.658,1.947-2.368,2.99-.639,2.666-1.381,3.687-2.174,1.556-2.949,2.552-.801,2.63-1.606,3.602-3.392.431-4.227,1.378c-.836.947-.949,2.532-1.814,3.452-.865.92-1.987,1.584-2.88,2.477s-.652,2.979-1.572,3.844c-.92.864-1.89,1.737-2.837,2.573-.947.835-3.478-.176-4.451.629s-1.822,1.715-2.819,2.49-2.181,1.245-3.202,1.989-1.51,2.199-2.554,2.91-1.786,1.876-2.852,2.554-2.613.557-3.7,1.201-1.589,2.302-2.696,2.912c-1.105.609-2.771.158-3.897.733-1.123.574-2.031,1.56-3.175,2.099-1.141.538-2.654.208-3.814.711s-1.352,3.344-2.527,3.809-2.59.389-3.78.817-2.874-.592-4.077-.202-1.967,2.201-3.182,2.553-2.732-.39-3.958-.076-2.295,1.265-3.53,1.54-2.507.391-3.75.627-2.687-.795-3.938-.599c-1.244.195-2.374,1.09-3.63,1.247-1.25.156-2.543-.19-3.804-.072-1.254.117-2.429,1.206-3.693,1.285-1.257.078-2.57-1.274-3.837-1.235-1.258.039-2.486,1.123-3.754,1.123s-2.546.574-3.804.535c-1.267-.039-2.51-.652-3.767-.73-1.265-.078-2.621.877-3.875.76-1.261-.118-2.607.21-3.857.054-1.257-.157-2.248-2.284-3.493-2.48-1.251-.197-2.401-.832-3.639-1.067-1.244-.236-2.546-.071-3.776-.345-1.236-.275-2.447-.576-3.668-.888-1.226-.314-2.538-.271-3.748-.622s-2.891.73-4.091.341-2.054-1.889-3.24-2.316c-1.19-.429-2.508-.554-3.681-1.019-1.176-.466-1.541-2.85-2.698-3.351s-2.333-.87-3.474-1.408-3.451,1.292-4.575.718c-1.126-.575-1.399-2.786-2.504-3.394s-1.893-1.733-2.978-2.377-3.408.712-4.473.035c-1.066-.678-1.745-1.999-2.788-2.71s-1.968-1.62-2.988-2.363-1-2.849-1.997-3.624-1.834-1.682-2.806-2.487c-.973-.806-1.989-1.492-2.936-2.328-.947-.836-2.695-.758-3.615-1.623s-1.006-2.56-1.899-3.453-2.603-.965-3.468-1.885c-.864-.92-2.185-1.436-3.02-2.383s-1.794-1.814-2.599-2.787.102-3.304-.673-4.301-2.322-1.376-3.065-2.397-.665-2.584-1.376-3.628-1.547-1.955-2.225-3.021-2.532-1.389-3.177-2.476-.003-2.887-.613-3.994c-.609-1.105-1.954-1.791-2.529-2.917s-2.368-1.66-2.907-2.803-.954-2.37-1.457-3.531c-.501-1.157-1.206-2.265-1.672-3.441s1.421-3.229.992-4.419c-.427-1.186-1.152-2.231-1.543-3.434s-1.426-2.178-1.779-3.393-.129-2.559-.443-3.785-1.965-2.117-2.24-3.352-.448-2.497-.684-3.741-1.371-2.35-1.567-3.601c-.195-1.244.394-2.632.237-3.888-.156-1.25-1.121-2.445-1.239-3.706-.117-1.254,2.238-2.708,2.159-3.972-.078-1.257-2.041-2.426-2.08-3.692-.039-1.258.378-2.546.378-3.814s-.493-2.558-.455-3.816c.039-1.267-.36-2.584-.282-3.841.078-1.265,1.486-2.444,1.603-3.698.118-1.261.536-2.483.692-3.733.157-1.257,1.293-2.349,1.488-3.593.197-1.251-.611-2.651-.377-3.889s1.389-2.276,1.662-3.506.131-2.54.444-3.762c.314-1.226.383-2.5.734-3.71s1.728-2.084,2.118-3.283-.647-2.871-.22-4.057,1.25-2.226,1.715-3.398.912-2.347,1.414-3.505.268-2.657.806-3.798,2.067-1.8,2.641-2.924-.396-3.083.213-4.188c.61-1.107,1.36-2.176,2.003-3.261s1.222-2.258,1.899-3.323,3.445-.756,4.156-1.799c.711-1.044-.702-3.586.041-4.607s2.852-1.036,3.627-2.033,1.96-1.644,2.765-2.616c.806-.973.844-2.589,1.679-3.535s2.844-.801,3.708-1.722c.865-.92-.128-3.638.765-4.531s3.415-.108,4.335-.973,1.842-1.676,2.789-2.512c.947-.835.215-3.643,1.188-4.449.972-.805,2.583-.865,3.581-1.64.997-.774,1.767-1.89,2.788-2.634s3.396.449,4.44-.262c1.043-.71.537-3.779,1.603-4.457s3.636,1.095,4.723.451,1.763-1.939,2.87-2.549,1.543-2.487,2.668-3.061c1.123-.574,2.633-.395,3.776-.934s2.828.178,3.988-.325,1.975-1.75,3.151-2.216,2.668.009,3.858-.42,2.31-.905,3.513-1.295c1.199-.389,2.218-1.252,3.433-1.604s1.861-2.791,3.087-3.105c1.221-.313,2.873,1.102,4.108.827,1.23-.274,2.473-.425,3.716-.661s2.45-.544,3.701-.741c1.244-.195,2.367-1.283,3.623-1.441,1.25-.156,2.517-.33,3.779-.447,1.254-.117,2.516-.426,3.781-.504,1.257-.078,2.526-.631,3.793-.67,1.258-.039,2.559,1.195,3.827,1.195s2.573-1.386,3.831-1.347c1.267.039,2.574.057,3.83.135,1.265.078,2.513.769,3.767.886,1.261.118,2.512.505,3.761.661,1.257.157,2.455.787,3.699.983,1.251.197,2.357,1.166,3.595,1.401s2.767-.887,3.998-.614,2.138,1.941,3.359,2.254,2.79-.616,4-.264c1.215.353,2.369.956,3.569,1.345s2.703-.005,3.889.422c1.19.429,1.899,2.177,3.072,2.642,1.176.466,2.4.809,3.557,1.31s1.72,2.28,2.861,2.818,3.433-1.26,4.556-.686,2.096,1.514,3.202,2.123,2.027,1.591,3.112,2.235c1.087.644,1.53,2.331,2.595,3.008s2.449.853,3.492,1.563,1.972,1.579,2.993,2.321,2.304,1.138,3.301,1.912c.998.775,1.459,2.208,2.431,3.013s1.514,2.072,2.461,2.907,3.666-.27,4.586.595.279,3.354,1.172,4.247c.893.893,2.972.637,3.837,1.558s.874,2.632,1.709,3.579c.835.947,2.459,1.229,3.265,2.202s-.119,3.319.656,4.317,3.585.458,4.328,1.479,1.685,1.95,2.396,2.994.51,2.718,1.188,3.785.569,2.607,1.213,3.695,1.626,1.964,2.235,3.071,2.471,1.566,3.045,2.691,1.283,2.228,1.822,3.372c.538,1.141-.209,2.888.294,4.048s.291,2.598.757,3.774c.464,1.172,1.715,2.038,2.143,3.228s1.985,2.011,2.376,3.214-1.859,3.209-1.506,4.424,1.403,2.198,1.717,3.424,2.545,1.996,2.82,3.231-.944,2.788-.708,4.032.452,2.476.648,3.726c.195,1.244.271,2.501.428,3.757.156,1.25,1.825,2.353,1.943,3.614.117,1.254-1.338,2.648-1.259,3.913.078,1.257-.599,2.531-.56,3.798.039,1.258,1.532,2.489,1.532,3.756ZM357.089,358.515c-1.342-1.342-1.899-.785-3.241-2.126s-.681-2.003-2.023-3.344-1.971-.711-3.312-2.052c-1.341-1.341.246-2.927-1.095-4.268s-1.851-.831-3.191-2.171-1.447-1.235-2.788-2.577c-1.342-1.342-.852-1.832-2.195-3.174s-1.61-1.073-2.952-2.415-1.892-.79-3.233-2.132c-1.341-1.341-1.383-1.299-2.724-2.641-1.342-1.342-.68-2.003-2.022-3.345-1.343-1.343-1.11-1.575-2.453-2.918-1.342-1.342-2.65-.034-3.991-1.376s-.015-2.668-1.356-4.01c-1.342-1.342-2.781.097-4.123-1.245-1.342-1.342-.665-2.02-2.007-3.363-1.342-1.342-2.268-.416-3.609-1.758-1.342-1.342-.705-1.979-2.047-3.321s-1.106-1.579-2.449-2.922c-1.342-1.342-2.044-.64-3.386-1.982-1.343-1.343-.761-1.924-2.104-3.267-1.34-1.34-2.048-.632-3.388-1.972s.297-2.981-1.045-4.323c-1.342-1.342-2.037-.647-3.379-1.988-1.341-1.341-1.097-1.584-2.438-2.924-1.341-1.341-2.52-.163-3.861-1.505q-1.343-1.343-2.681-2.691c-1.342-1.342.366-3.049-.976-4.39s-1.469-1.217-2.812-2.56c-1.342-1.342-1.105-1.579-2.448-2.922s-1.987-.7-3.33-2.044c-1.343-1.343-1.743-.943-3.085-2.286-1.343-1.343-.698-1.989-2.042-3.332s-2.186-.502-3.53-1.846-.508-2.175-1.849-3.516-1.687-.999-3.03-2.342c-1.344-1.344-.691-1.998-2.036-3.342s-3.149.459-4.493-.885c-1.345-1.345-.94-1.75-2.285-3.095-1.347-1.347-.279-2.416-1.626-3.763s-2.412-.282-3.759-1.629" style="fill: #fff;"/>
  <path d="M284.192,162.366c0,1.268.768,2.568.729,3.826-.039,1.267-1.032,2.508-1.11,3.765-.078,1.265.71,2.615.593,3.869-.118,1.261-2.485,2.275-2.642,3.524-.157,1.257.384,2.586.188,3.83-.197,1.251-.264,2.513-.498,3.751s-1.166,2.325-1.439,3.555-.194,2.531-.507,3.752c-.314,1.226.106,2.646-.246,3.857s-.67,2.449-1.059,3.648-1.684,2.091-2.111,3.277c-.429,1.19-1.175,2.232-1.639,3.405-.466,1.176.759,3.05.257,4.208-.503,1.16-2.732,1.537-3.27,2.678-.539,1.144.73,3.175.156,4.299s-2.022,1.809-2.631,2.914-.112,2.874-.755,3.96-2.089,1.718-2.766,2.783-1.658,1.947-2.368,2.99-.639,2.666-1.381,3.687-2.174,1.556-2.949,2.552-.801,2.63-1.606,3.602-3.392.431-4.227,1.378c-.836.947-.949,2.532-1.814,3.452-.865.92-1.987,1.584-2.88,2.477s-.652,2.979-1.572,3.844c-.92.864-1.89,1.737-2.837,2.573-.947.835-3.478-.176-4.451.629s-1.822,1.715-2.819,2.49-2.181,1.245-3.202,1.989-1.51,2.199-2.554,2.91-1.786,1.876-2.852,2.554-2.613.557-3.7,1.201-1.589,2.302-2.696,2.912c-1.105.609-2.771.158-3.897.733-1.123.574-2.031,1.56-3.175,2.099-1.141.538-2.654.208-3.814.711s-1.352,3.344-2.527,3.809-2.59.389-3.78.817-2.874-.592-4.077-.202-1.967,2.201-3.182,2.553-2.732-.39-3.958-.076-2.295,1.265-3.53,1.54-2.507.391-3.75.627-2.687-.795-3.938-.599c-1.244.195-2.374,1.09-3.63,1.247-1.25.156-2.543-.19-3.804-.072-1.254.117-2.429,1.206-3.693,1.285-1.257.078-2.57-1.274-3.837-1.235-1.258.039-2.486,1.123-3.754,1.123s-2.546.574-3.804.535c-1.267-.039-2.51-.652-3.767-.73-1.265-.078-2.621.877-3.875.76-1.261-.118-2.607.21-3.857.054-1.257-.157-2.248-2.284-3.493-2.48-1.251-.197-2.401-.832-3.639-1.067-1.244-.236-2.546-.071-3.776-.345-1.236-.275-2.447-.576-3.668-.888-1.226-.314-2.538-.271-3.748-.622s-2.891.73-4.091.341-2.054-1.889-3.24-2.316c-1.19-.429-2.508-.554-3.681-1.019-1.176-.466-1.541-2.85-2.698-3.351s-2.333-.87-3.474-1.408-3.451,1.292-4.575.718c-1.126-.575-1.399-2.786-2.504-3.394s-1.893-1.733-2.978-2.377-3.408.712-4.473.035c-1.066-.678-1.745-1.999-2.788-2.71s-1.968-1.62-2.988-2.363-1-2.849-1.997-3.624-1.834-1.682-2.806-2.487c-.973-.806-1.989-1.492-2.936-2.328-.947-.836-2.695-.758-3.615-1.623s-1.006-2.56-1.899-3.453-2.603-.965-3.468-1.885c-.864-.92-2.185-1.436-3.02-2.383s-1.794-1.814-2.599-2.787.102-3.304-.673-4.301-2.322-1.376-3.065-2.397-.665-2.584-1.376-3.628-1.547-1.955-2.225-3.021-2.532-1.389-3.177-2.476-.003-2.887-.613-3.994c-.609-1.105-1.954-1.791-2.529-2.917s-2.368-1.66-2.907-2.803-.954-2.37-1.457-3.531c-.501-1.157-1.206-2.265-1.672-3.441s1.421-3.229.992-4.419c-.427-1.186-1.152-2.231-1.543-3.434s-1.426-2.178-1.779-3.393-.129-2.559-.443-3.785-1.965-2.117-2.24-3.352-.448-2.497-.684-3.741-1.371-2.35-1.567-3.601c-.195-1.244.394-2.632.237-3.888-.156-1.25-1.121-2.445-1.239-3.706-.117-1.254,2.238-2.708,2.159-3.972-.078-1.257-2.041-2.426-2.08-3.692-.039-1.258.378-2.546.378-3.814s-.493-2.558-.455-3.816c.039-1.267-.36-2.584-.282-3.841.078-1.265,1.486-2.444,1.603-3.698.118-1.261.536-2.483.692-3.733.157-1.257,1.293-2.349,1.488-3.593.197-1.251-.611-2.651-.377-3.889s1.389-2.276,1.662-3.506.131-2.54.444-3.762c.314-1.226.383-2.5.734-3.71s1.728-2.084,2.118-3.283-.647-2.871-.22-4.057,1.25-2.226,1.715-3.398.912-2.347,1.414-3.505.268-2.657.806-3.798,2.067-1.8,2.641-2.924-.396-3.083.213-4.188c.61-1.107,1.36-2.176,2.003-3.261s1.222-2.258,1.899-3.323,3.445-.756,4.156-1.799c.711-1.044-.702-3.586.041-4.607s2.852-1.036,3.627-2.033,1.96-1.644,2.765-2.616c.806-.973.844-2.589,1.679-3.535s2.844-.801,3.708-1.722c.865-.92-.128-3.638.765-4.531s3.415-.108,4.335-.973,1.842-1.676,2.789-2.512c.947-.835.215-3.643,1.188-4.449.972-.805,2.583-.865,3.581-1.64.997-.774,1.767-1.89,2.788-2.634s3.396.449,4.44-.262c1.043-.71.537-3.779,1.603-4.457s3.636,1.095,4.723.451,1.763-1.939,2.87-2.549,1.543-2.487,2.668-3.061c1.123-.574,2.633-.395,3.776-.934s2.828.178,3.988-.325,1.975-1.75,3.151-2.216,2.668.009,3.858-.42,2.31-.905,3.513-1.295c1.199-.389,2.218-1.252,3.433-1.604s1.861-2.791,3.087-3.105c1.221-.313,2.873,1.102,4.108.827,1.23-.274,2.473-.425,3.716-.661s2.45-.544,3.701-.741c1.244-.195,2.367-1.283,3.623-1.441,1.25-.156,2.517-.33,3.779-.447,1.254-.117,2.516-.426,3.781-.504,1.257-.078,2.526-.631,3.793-.67,1.258-.039,2.559,1.195,3.827,1.195s2.573-1.386,3.831-1.347c1.267.039,2.574.057,3.83.135,1.265.078,2.513.769,3.767.886,1.261.118,2.512.505,3.761.661,1.257.157,2.455.787,3.699.983,1.251.197,2.357,1.166,3.595,1.401s2.767-.887,3.998-.614,2.138,1.941,3.359,2.254,2.79-.616,4-.264c1.215.353,2.369.956,3.569,1.345s2.703-.005,3.889.422c1.19.429,1.899,2.177,3.072,2.642,1.176.466,2.4.809,3.557,1.31s1.72,2.28,2.861,2.818,3.433-1.26,4.556-.686,2.096,1.514,3.202,2.123,2.027,1.591,3.112,2.235c1.087.644,1.53,2.331,2.595,3.008s2.449.853,3.492,1.563,1.972,1.579,2.993,2.321,2.304,1.138,3.301,1.912c.998.775,1.459,2.208,2.431,3.013s1.514,2.072,2.461,2.907,3.666-.27,4.586.595.279,3.354,1.172,4.247c.893.893,2.972.637,3.837,1.558s.874,2.632,1.709,3.579c.835.947,2.459,1.229,3.265,2.202s-.119,3.319.656,4.317,3.585.458,4.328,1.479,1.685,1.95,2.396,2.994.51,2.718,1.188,3.785.569,2.607,1.213,3.695,1.626,1.964,2.235,3.071,2.471,1.566,3.045,2.691,1.283,2.228,1.822,3.372c.538,1.141-.209,2.888.294,4.048s.291,2.598.757,3.774c.464,1.172,1.715,2.038,2.143,3.228s1.985,2.011,2.376,3.214-1.859,3.209-1.506,4.424,1.403,2.198,1.717,3.424,2.545,1.996,2.82,3.231-.944,2.788-.708,4.032.452,2.476.648,3.726c.195,1.244.271,2.501.428,3.757.156,1.25,1.825,2.353,1.943,3.614.117,1.254-1.338,2.648-1.259,3.913.078,1.257-.599,2.531-.56,3.798.039,1.258,1.532,2.489,1.532,3.756ZM357.089,358.515c-1.342-1.342-1.899-.785-3.241-2.126s-.681-2.003-2.023-3.344-1.971-.711-3.312-2.052c-1.341-1.341.246-2.927-1.095-4.268s-1.851-.831-3.191-2.171-1.447-1.235-2.788-2.577c-1.342-1.342-.852-1.832-2.195-3.174s-1.61-1.073-2.952-2.415-1.892-.79-3.233-2.132c-1.341-1.341-1.383-1.299-2.724-2.641-1.342-1.342-.68-2.003-2.022-3.345-1.343-1.343-1.11-1.575-2.453-2.918-1.342-1.342-2.65-.034-3.991-1.376s-.015-2.668-1.356-4.01c-1.342-1.342-2.781.097-4.123-1.245-1.342-1.342-.665-2.02-2.007-3.363-1.342-1.342-2.268-.416-3.609-1.758-1.342-1.342-.705-1.979-2.047-3.321s-1.106-1.579-2.449-2.922c-1.342-1.342-2.044-.64-3.386-1.982-1.343-1.343-.761-1.924-2.104-3.267-1.34-1.34-2.048-.632-3.388-1.972s.297-2.981-1.045-4.323c-1.342-1.342-2.037-.647-3.379-1.988-1.341-1.341-1.097-1.584-2.438-2.924-1.341-1.341-2.52-.163-3.861-1.505q-1.343-1.343-2.681-2.691c-1.342-1.342.366-3.049-.976-4.39s-1.469-1.217-2.812-2.56c-1.342-1.342-1.105-1.579-2.448-2.922s-1.987-.7-3.33-2.044c-1.343-1.343-1.743-.943-3.085-2.286-1.343-1.343-.698-1.989-2.042-3.332s-2.186-.502-3.53-1.846-.508-2.175-1.849-3.516-1.687-.999-3.03-2.342c-1.344-1.344-.691-1.998-2.036-3.342s-3.149.459-4.493-.885c-1.345-1.345-.94-1.75-2.285-3.095-1.347-1.347-.279-2.416-1.626-3.763s-2.412-.282-3.759-1.629" style="fill: none; stroke: #000; stroke-linecap: round; stroke-miterlimit: 10; stroke-width: 15px;"/>
</svg>