<?xml version="1.0" encoding="UTF-8"?>
<svg id="big" xmlns="http://www.w3.org/2000/svg" width="240" height="240" viewBox="0 0 240 240">
  <path d="M44.435,204.961c1.405,1.353,2.515.258,4.466.258s1.952-.988,3.905-.988,1.951,1.151,3.903,1.151,1.952-1.503,3.904-1.503,1.953.797,3.906.797,1.953-1.209,3.906-1.209,1.953.916,3.906.916,1.953-1.06,3.905-1.06,1.953.767,3.906.767,1.953.555,3.907.555,1.956-.807,3.913-.807,2.052,1.422,3.465.069c1.353-1.296.418-1.406.418-3.28s-.771-1.874-.771-3.749,1.093-1.874,1.093-3.748.196-1.875.196-3.749-.334-1.874-.334-3.748-.13-1.874-.13-3.748.938-1.872.938-3.744-2.073-1.874-2.073-3.749.488-1.873.488-3.747.713-1.875.713-3.75-.638-1.874-.638-3.748,1.779-1.875,1.779-3.75-1.545-1.876-1.545-3.751,1.55-1.876,1.55-3.751-1.979-1.876-1.979-3.751-.234-1.875-.234-3.75.088-1.875.088-3.751,1.825-1.876,1.825-3.752-2.21-1.879-2.21-3.758.859-1.519,2.185-2.849.963.454,2.837.454,1.872-2.196,3.744-2.196,1.874-.661,3.748-.661,1.873,2.855,3.746,2.855,1.875-.134,3.75-.134,1.874.223,3.747.223,1.875-1.058,3.749-1.058,1.875-1.885,3.751-1.885,1.875.669,3.751.669,1.875.753,3.751.753,1.875-.596,3.75-.596,1.875,2.118,3.75,2.118,1.876-.224,3.751-.224,1.879-1.31,3.757-1.31,3.199-2.018,4.529-.692-.31,2.647-.31,4.521-1.057,1.874-1.057,3.749,1.776,1.874,1.776,3.748-2.203,1.875-2.203,3.749,1.382,1.874,1.382,3.748.493,1.874.493,3.748-.675,1.872-.675,3.744-.326,1.874-.326,3.749-.34,1.873-.34,3.747,1.269,1.875,1.269,3.75-1.053,1.874-1.053,3.748,1.44,1.875,1.44,3.75-.733,1.876-.733,3.751-.223,1.876-.223,3.751-1.345,1.876-1.345,3.751,1.33,1.875,1.33,3.75-.434,1.875-.434,3.751.666,1.876.666,3.752-1.874,1.879-1.874,3.758-.211,2.77,1.142,4.074c1.405,1.353,2.255-.051,4.205-.051s1.952-1.208,3.905-1.208,1.951,1.13,3.903,1.13,1.952-1.32,3.904-1.32,1.953,2.491,3.906,2.491,1.953-.354,3.906-.354,1.953-1.576,3.906-1.576,1.953-.927,3.905-.927,1.953,1.42,3.906,1.42,1.953,1.525,3.907,1.525,1.956-.23,3.913-.23,1.997-.387,3.41-1.741c1.354-1.297-.831-1.35-.831-3.225s2.066-1.874,2.066-3.747.334-1.873.334-3.746.288-1.874.288-3.748-2.135-1.875-2.135-3.749.406-1.874.406-3.747.862-1.874.862-3.748.161-1.875.161-3.75-.246-1.874-.246-3.748.598-1.875.598-3.75-1.571-1.874-1.571-3.749-.604-1.875-.604-3.749,2.513-1.875,2.513-3.749-1.169-1.875-1.169-3.75-.093-1.875-.093-3.749,1.116-1.875,1.116-3.749-.166-1.873-.166-3.745-1.664-1.875-1.664-3.749,1.521-1.874,1.521-3.747.289-1.875.289-3.751-1.61-1.874-1.61-3.749-.161-1.875-.161-3.75.857-1.876.857-3.752-.581-1.876-.581-3.752-1.033-1.876-1.033-3.752,2.449-1.876,2.449-3.751-.287-1.876-.287-3.752.348-1.876.348-3.753-.632-1.879-.632-3.759-.247-1.796-1.086-3.477-.617-1.829-2.116-2.953-2.667.433-4.166-.691-.613-2.307-2.113-3.432-1.702-.853-3.201-1.978-.788-2.074-2.287-3.199-1.914-.572-3.413-1.696-2.199-.192-3.699-1.317-.367-2.633-1.865-3.757-1.912-.57-3.409-1.693-2.041-.399-3.54-1.523-.233-2.814-1.733-3.939-1.953-.517-3.451-1.641-2.395.068-3.895-1.057-1.13-1.617-2.629-2.741-.981-1.818-2.481-2.944-1.3-1.391-2.8-2.516-2.766.562-4.267-.563-1.609-.982-3.11-2.108-1.534-1.082-3.035-2.208-.007-3.114-1.507-4.238-1.849-.662-3.35-1.787-1.932-.551-3.433-1.677-2.161-.247-3.662-1.374-.816-2.045-2.32-3.173-1.076-1.362-2.956-1.364-2.313-.926-3.812.198-.791,2.069-2.29,3.193-1.92.565-3.42,1.689-.981,1.815-2.48,2.94-2.251.123-3.751,1.248-.246,2.796-1.745,3.92-2.461-.157-3.961.967-.853,1.985-2.351,3.108-1.863.635-3.36,1.758-1.651.92-3.149,2.043-.712,2.176-2.211,3.301-2.785-.592-4.283.532-1.054,1.719-2.554,2.844-.941,1.869-2.44,2.993-2.416-.095-3.916,1.031.045,3.185-1.454,4.31-2.836-.656-4.337.47-.225,2.827-1.726,3.953-1.936.545-3.437,1.671-1.799.725-3.298,1.85-2.208.184-3.709,1.309-.258,2.783-1.76,3.909-2.716-.494-4.218.633-.932,1.891-2.436,3.019-2.535.479-3.377,2.16-.381,2.113-.381,3.988,1.935,1.874,1.935,3.747-1.62,1.873-1.62,3.746.099,1.874.099,3.748.911,1.875.911,3.749.27,1.874.27,3.747-2.034,1.874-2.034,3.748,1.574,1.875,1.574,3.75-1.702,1.874-1.702,3.748.1,1.875.1,3.75,2.411,1.874,2.411,3.749-1.681,1.875-1.681,3.749.629,1.875.629,3.749-.523,1.875-.523,3.75,1.496,1.875,1.496,3.749-.232,1.875-.232,3.749-1.469,1.873-1.469,3.745.142,1.875.142,3.749,1.056,1.874,1.056,3.747-1.998,1.875-1.998,3.751.514,1.874.514,3.749,1.225,1.875,1.225,3.75.006,1.876.006,3.752-1.532,1.876-1.532,3.752,1.119,1.876,1.119,3.752-.985,1.876-.985,3.751,2.019,1.876,2.019,3.752-1.918,1.876-1.918,3.753,1.309,1.88.799,3.689c-.636,2.255-1.672,3.111-.318,4.414Z" style="fill: #fff;"/>
  <path d="M44.435,204.961c1.405,1.353,2.515.258,4.466.258s1.952-.988,3.905-.988,1.951,1.151,3.903,1.151,1.952-1.503,3.904-1.503,1.953.797,3.906.797,1.953-1.209,3.906-1.209,1.953.916,3.906.916,1.953-1.06,3.905-1.06,1.953.767,3.906.767,1.953.555,3.907.555,1.956-.807,3.913-.807,2.052,1.422,3.465.069c1.353-1.296.418-1.406.418-3.28s-.771-1.874-.771-3.749,1.093-1.874,1.093-3.748.196-1.875.196-3.749-.334-1.874-.334-3.748-.13-1.874-.13-3.748.938-1.872.938-3.744-2.073-1.874-2.073-3.749.488-1.873.488-3.747.713-1.875.713-3.75-.638-1.874-.638-3.748,1.779-1.875,1.779-3.75-1.545-1.876-1.545-3.751,1.55-1.876,1.55-3.751-1.979-1.876-1.979-3.751-.234-1.875-.234-3.75.088-1.875.088-3.751,1.825-1.876,1.825-3.752-2.21-1.879-2.21-3.758.859-1.519,2.185-2.849.963.454,2.837.454,1.872-2.196,3.744-2.196,1.874-.661,3.748-.661,1.873,2.855,3.746,2.855,1.875-.134,3.75-.134,1.874.223,3.747.223,1.875-1.058,3.749-1.058,1.875-1.885,3.751-1.885,1.875.669,3.751.669,1.875.753,3.751.753,1.875-.596,3.75-.596,1.875,2.118,3.75,2.118,1.876-.224,3.751-.224,1.879-1.31,3.757-1.31,3.199-2.018,4.529-.692-.31,2.647-.31,4.521-1.057,1.874-1.057,3.749,1.776,1.874,1.776,3.748-2.203,1.875-2.203,3.749,1.382,1.874,1.382,3.748.493,1.874.493,3.748-.675,1.872-.675,3.744-.326,1.874-.326,3.749-.34,1.873-.34,3.747,1.269,1.875,1.269,3.75-1.053,1.874-1.053,3.748,1.44,1.875,1.44,3.75-.733,1.876-.733,3.751-.223,1.876-.223,3.751-1.345,1.876-1.345,3.751,1.33,1.875,1.33,3.75-.434,1.875-.434,3.751.666,1.876.666,3.752-1.874,1.879-1.874,3.758-.211,2.77,1.142,4.074c1.405,1.353,2.255-.051,4.205-.051s1.952-1.208,3.905-1.208,1.951,1.13,3.903,1.13,1.952-1.32,3.904-1.32,1.953,2.491,3.906,2.491,1.953-.354,3.906-.354,1.953-1.576,3.906-1.576,1.953-.927,3.905-.927,1.953,1.42,3.906,1.42,1.953,1.525,3.907,1.525,1.956-.23,3.913-.23,1.997-.387,3.41-1.741c1.354-1.297-.831-1.35-.831-3.225s2.066-1.874,2.066-3.747.334-1.873.334-3.746.288-1.874.288-3.748-2.135-1.875-2.135-3.749.406-1.874.406-3.747.862-1.874.862-3.748.161-1.875.161-3.75-.246-1.874-.246-3.748.598-1.875.598-3.75-1.571-1.874-1.571-3.749-.604-1.875-.604-3.749,2.513-1.875,2.513-3.749-1.169-1.875-1.169-3.75-.093-1.875-.093-3.749,1.116-1.875,1.116-3.749-.166-1.873-.166-3.745-1.664-1.875-1.664-3.749,1.521-1.874,1.521-3.747.289-1.875.289-3.751-1.61-1.874-1.61-3.749-.161-1.875-.161-3.75.857-1.876.857-3.752-.581-1.876-.581-3.752-1.033-1.876-1.033-3.752,2.449-1.876,2.449-3.751-.287-1.876-.287-3.752.348-1.876.348-3.753-.632-1.879-.632-3.759-.247-1.796-1.086-3.477-.617-1.829-2.116-2.953-2.667.433-4.166-.691-.613-2.307-2.113-3.432-1.702-.853-3.201-1.978-.788-2.074-2.287-3.199-1.914-.572-3.413-1.696-2.199-.192-3.699-1.317-.367-2.633-1.865-3.757-1.912-.57-3.409-1.693-2.041-.399-3.54-1.523-.233-2.814-1.733-3.939-1.953-.517-3.451-1.641-2.395.068-3.895-1.057-1.13-1.617-2.629-2.741-.981-1.818-2.481-2.944-1.3-1.391-2.8-2.516-2.766.562-4.267-.563-1.609-.982-3.11-2.108-1.534-1.082-3.035-2.208-.007-3.114-1.507-4.238-1.849-.662-3.35-1.787-1.932-.551-3.433-1.677-2.161-.247-3.662-1.374-.816-2.045-2.32-3.173-1.076-1.362-2.956-1.364-2.313-.926-3.812.198-.791,2.069-2.29,3.193-1.92.565-3.42,1.689-.981,1.815-2.48,2.94-2.251.123-3.751,1.248-.246,2.796-1.745,3.92-2.461-.157-3.961.967-.853,1.985-2.351,3.108-1.863.635-3.36,1.758-1.651.92-3.149,2.043-.712,2.176-2.211,3.301-2.785-.592-4.283.532-1.054,1.719-2.554,2.844-.941,1.869-2.44,2.993-2.416-.095-3.916,1.031.045,3.185-1.454,4.31-2.836-.656-4.337.47-.225,2.827-1.726,3.953-1.936.545-3.437,1.671-1.799.725-3.298,1.85-2.208.184-3.709,1.309-.258,2.783-1.76,3.909-2.716-.494-4.218.633-.932,1.891-2.436,3.019-2.535.479-3.377,2.16-.381,2.113-.381,3.988,1.935,1.874,1.935,3.747-1.62,1.873-1.62,3.746.099,1.874.099,3.748.911,1.875.911,3.749.27,1.874.27,3.747-2.034,1.874-2.034,3.748,1.574,1.875,1.574,3.75-1.702,1.874-1.702,3.748.1,1.875.1,3.75,2.411,1.874,2.411,3.749-1.681,1.875-1.681,3.749.629,1.875.629,3.749-.523,1.875-.523,3.75,1.496,1.875,1.496,3.749-.232,1.875-.232,3.749-1.469,1.873-1.469,3.745.142,1.875.142,3.749,1.056,1.874,1.056,3.747-1.998,1.875-1.998,3.751.514,1.874.514,3.749,1.225,1.875,1.225,3.75.006,1.876.006,3.752-1.532,1.876-1.532,3.752,1.119,1.876,1.119,3.752-.985,1.876-.985,3.751,2.019,1.876,2.019,3.752-1.918,1.876-1.918,3.753,1.309,1.88.799,3.689c-.636,2.255-1.672,3.111-.318,4.414Z" style="fill: none; stroke: #000; stroke-miterlimit: 10; stroke-width: 22.5px;"/>
</svg>