<?xml version="1.0" encoding="UTF-8"?>
<svg id="LM_Icons" data-name="LM Icons" xmlns="http://www.w3.org/2000/svg" width="700" height="700" viewBox="0 0 700 700">
  <g>
    <path d="M607.526,595.808c-1.811,1.817-4.441-5.689-7.006-5.689s-2.565,3.181-5.131,3.181-2.566,3.167-5.131,3.167-2.566.873-5.132.873-2.566-6.996-5.133-6.996-2.567,6.422-5.134,6.422-2.568-1.336-5.136-1.336-2.567.784-5.134.784-2.567-2.089-5.133-2.089-2.566-.384-5.132-.384-2.566,1.906-5.132,1.906-2.566,1.133-5.132,1.133-2.566-6.337-5.132-6.337-2.566.236-5.132.236-2.567.991-5.133.991-2.567,5.091-5.135,5.091-2.568-5.074-5.136-5.074-2.567,2.344-5.134,2.344-2.567,3.834-5.133,3.834-2.566-3.48-5.133-3.48-2.566.041-5.132.041-2.566,2.158-5.133,2.158-2.567-5.944-5.133-5.944-2.567,5.629-5.134,5.629-2.568-2.873-5.136-2.873-2.568,1.541-5.135,1.541-2.567,2.054-5.134,2.054-2.567-5.938-5.133-5.938-2.567.879-5.133.879-2.567,4.44-5.134,4.44-2.567-1.734-5.134-1.734-2.568-1.575-5.136-1.575-2.568,3.044-5.136,3.044-2.567-2.748-5.134-2.748-2.567,3.618-5.134,3.618-2.567-4.747-5.134-4.747-2.567-.411-5.135-.411-2.568.14-5.136.14-2.568,4.162-5.136,4.162-2.567-1.59-5.135-1.59-2.567,1.561-5.134,1.561-2.567-3.73-5.135-3.73-2.568.902-5.136.902-2.568,3.928-5.136,3.928-2.568.625-5.135.625-2.567-5.998-5.135-5.998-2.568,5.8-5.135,5.8-2.568-2.712-5.137-2.712-2.568-3.705-5.136-3.705-2.568,5.007-5.135,5.007-2.568-5.019-5.135-5.019-2.569,6.134-5.137,6.134-2.568-.144-5.136-.144-2.568-6.672-5.135-6.672-2.568,6.119-5.136,6.119-2.568-2.579-5.137-2.579-2.566,1.965-5.132,1.965-2.565-5.628-5.131-5.628-2.565,7.007-5.131,7.007-2.566-5.989-5.133-5.989-2.568,2.948-5.136,2.948-2.568,2.852-5.135,2.852-2.566-5.678-5.133-5.678-2.566,1.695-5.133,1.695-2.567-3.225-5.135-3.225-2.569,4.647-5.138,4.647-2.567-2.424-5.135-2.424-2.567,1.661-5.134,1.661-2.568-.267-5.136-.267-2.569-.382-5.138-.382-2.567-.751-5.135-.751-2.568-.602-5.136-.602-2.569-1.22-5.138-1.22-2.568,6.356-5.136,6.356-2.569-1.886-5.138-1.886-2.568,1.029-5.137,1.029-2.569-1.413-5.138-1.413-2.569-.145-5.138-.145-2.57,2.75-5.139,2.75-2.569-3.903-5.138-3.903-2.57,2.269-5.139,2.269-2.57-2.854-5.14-2.854-2.57-1.758-5.139-1.758-2.567,1.772-5.134,1.772-2.57.803-5.139.803-2.568,1.847-5.136,1.847-2.569,1.064-5.139,1.064-2.57-.49-5.141-.49-2.57-1.866-5.141-1.866-2.57-1.338-5.141-1.338-2.571-2.844-5.142-2.844-2.57,3.138-5.139,3.138-2.572,2.967-5.144,2.967-2.574-3.185-5.147-3.185-1.364.816-3.187-1.001-.567-.599-.567-3.164,1.751-2.565,1.751-5.131-1.419-2.566-1.419-5.131-3.004-2.566-3.004-5.132,2.16-2.566,2.16-5.133-3.334-2.567-3.334-5.134.214-2.568.214-5.136,4.739-2.567,4.739-5.134-3.366-2.567-3.366-5.133.158-2.566.158-5.132-1.676-2.566-1.676-5.132,3.746-2.566,3.746-5.132-3.93-2.566-3.93-5.132,3.8-2.566,3.8-5.132-4.473-2.567-4.473-5.133.071-2.567.071-5.135,1.117-2.568,1.117-5.136-1.873-2.567-1.873-5.134,5.685-2.567,5.685-5.133-1.077-2.566-1.077-5.133-4.676-2.566-4.676-5.132,5.718-2.566,5.718-5.133,1.854-2.567,1.854-5.133.273-2.567.273-5.134-7.012-2.568-7.012-5.136,6.593-2.568,6.593-5.135-1.714-2.567-1.714-5.134-.715-2.567-.715-5.133-4.435-2.567-4.435-5.133.914-2.567.914-5.134,3.492-2.567,3.492-5.134-3.451-2.568-3.451-5.136,1.641-2.568,1.641-5.136-1.989-2.567-1.989-5.134,5.377-2.567,5.377-5.134-.862-2.567-.862-5.134-.53-2.567-.53-5.135.71-2.568.71-5.136-2.573-2.568-2.573-5.136,1.466-2.567,1.466-5.135-.931-2.567-.931-5.134-2.02-2.567-2.02-5.135-1.036-2.568-1.036-5.136,6.966-2.568,6.966-5.136-7.122-2.568-7.122-5.135,2.888-2.567,2.888-5.135-1.537-2.568-1.537-5.135-.421-2.568-.421-5.137,5.986-2.568,5.986-5.136-3.13-2.568-3.13-5.135-3.069-2.568-3.069-5.135,6.053-2.569,6.053-5.137-3.088-2.568-3.088-5.136,1.311-2.568,1.311-5.135.347-2.568.347-5.136-1.944-2.568-1.944-5.137,1.955-2.566,1.955-5.132,1.442-2.565,1.442-5.131-5.834-2.565-5.834-5.131-.893-2.566-.893-5.133,4.105-2.568,4.105-5.136-.452-2.568-.452-5.135-3.112-2.566-3.112-5.133,1.306-2.566,1.306-5.133-.488-2.567-.488-5.135,2.481-2.569,2.481-5.138,1.685-2.567,1.685-5.135.89-2.567.89-5.134-1.475-2.568-1.475-5.136-3.499-2.569-3.499-5.138-.909-2.567-.909-5.135,5.597-2.568,5.597-5.136-5.711-2.569-5.711-5.138,2.413-2.568,2.413-5.136,1.759-2.569,1.759-5.138-5.163-2.568-5.163-5.137,3.902-2.569,3.902-5.138.03-2.569.03-5.138.275-2.57.275-5.139-2.313-2.569-2.313-5.138-.858-2.57-.858-5.139-1.064-2.57-1.064-5.14,3.038-2.57,3.038-5.139-2.314-2.567-2.314-5.134-.251-2.57-.251-5.139,4.575-2.568,4.575-5.136,1.2-2.569,1.2-5.139-2.55-2.57-2.55-5.141,2.275-2.57,2.275-5.141-3.359-2.57-3.359-5.141,3.674-2.571,3.674-5.142.099-2.57.099-5.139,1.49-2.572,1.49-5.144-3.215-2.574-3.215-5.147-2.606-3.363-.789-5.186,2.604.478,5.169.478,2.565,1.362,5.131,1.362,2.566-1.362,5.131-1.362,2.566-1.549,5.132-1.549,2.566-.71,5.133-.71,2.567.584,5.134.584,2.568,5.14,5.136,5.14,2.567-2.723,5.134-2.723,2.567-3.206,5.133-3.206,2.566,1.678,5.132,1.678,2.566,2.184,5.132,2.184,2.566-2.095,5.132-2.095,2.566,3.647,5.132,3.647,2.566-3.349,5.132-3.349,2.567,1.576,5.133,1.576,2.567,1.282,5.135,1.282,2.568-6.69,5.136-6.69,2.567,2.219,5.134,2.219,2.567-1.698,5.133-1.698,2.566,3.45,5.133,3.45,2.566,1.362,5.132,1.362,2.566,1.594,5.133,1.594,2.567-.887,5.133-.887,2.567-3.014,5.134-3.014,2.568.618,5.136.618,2.568,1.829,5.135,1.829,2.567-.586,5.134-.586,2.567,2.506,5.133,2.506,2.567-2.951,5.133-2.951,2.567-.271,5.134-.271,2.567,1.478,5.134,1.478,2.568-4.768,5.136-4.768,2.568-.47,5.136-.47,2.567,1.324,5.134,1.324,2.567-1.042,5.134-1.042,2.567-.379,5.134-.379,2.567,4.377,5.135,4.377,2.568-.096,5.136-.096,2.568-3.272,5.136-3.272,2.567,1.055,5.135,1.055,2.567-.277,5.134-.277,2.567,1.618,5.135,1.618,2.568-.982,5.136-.982,2.568,3.597,5.136,3.597,2.568-5.314,5.135-5.314,2.567,3.631,5.135,3.631,2.568,2.878,5.135,2.878,2.568-5.195,5.137-5.195,2.568-1.639,5.136-1.639,2.568,5.849,5.135,5.849,2.568-6.054,5.135-6.054,2.569,2.614,5.137,2.614,2.568,1.62,5.136,1.62,2.568,1.204,5.135,1.204,2.568-2.473,5.136-2.473,2.568-2.726,5.137-2.726,2.566,6.724,5.132,6.724,2.565-6.499,5.131-6.499,2.565,5.991,5.131,5.991,2.566-.644,5.133-.644,2.568-2.252,5.136-2.252,2.568-4.172,5.135-4.172,2.566,3.478,5.133,3.478,2.566,2.82,5.133,2.82,2.567.826,5.135.826,2.569-5.47,5.138-5.47,2.567,4.919,5.135,4.919,2.567-5.861,5.134-5.861,2.568,7.191,5.136,7.191,2.569-.256,5.138-.256,2.567-5.633,5.135-5.633,2.568,4.495,5.136,4.495,2.569-3.953,5.138-3.953,2.568-.507,5.136-.507,2.569-.358,5.138-.358,2.568,4.029,5.137,4.029,2.569-1.758,5.138-1.758,2.569,2.352,5.138,2.352,2.57-3.712,5.139-3.712,2.569-.837,5.138-.837,2.57,5.755,5.139,5.755,2.57-6.335,5.14-6.335,2.57,5.842,5.139,5.842,2.567-2.027,5.134-2.027,2.57-4.001,5.139-4.001,2.568,6.337,5.136,6.337,2.569-6.583,5.139-6.583,2.57,4.634,5.141,4.634,2.57-4.068,5.141-4.068,2.57,3.173,5.141,3.173,2.571,1.595,5.142,1.595,2.57-4.079,5.139-4.079,2.572-1.016,5.144-1.016,2.574,3.796,5.147,3.796,4.379-3.746,6.202-1.929-.341,3.623-.341,6.188-3.796,2.565-3.796,5.131,6.886,2.566,6.886,5.131-6.996,2.566-6.996,5.132,4.048,2.566,4.048,5.133-3.77,2.567-3.77,5.134,3.64,2.568,3.64,5.136-2.159,2.567-2.159,5.134,5.333,2.567,5.333,5.133-4.431,2.566-4.431,5.132-1.684,2.566-1.684,5.132.217,2.566.217,5.132-1.399,2.566-1.399,5.132,6.396,2.566,6.396,5.132-3.319,2.567-3.319,5.133-3.158,2.567-3.158,5.135,6.322,2.568,6.322,5.136-5.406,2.567-5.406,5.134,1.7,2.567,1.7,5.133-2.969,2.566-2.969,5.133,4.026,2.566,4.026,5.132-3.038,2.566-3.038,5.133,6.249,2.567,6.249,5.133-1.386,2.567-1.386,5.134,1.364,2.568,1.364,5.136-1.407,2.568-1.407,5.135-1.729,2.567-1.729,5.134-.455,2.567-.455,5.133-2.895,2.567-2.895,5.133,5.455,2.567,5.455,5.134,1.359,2.567,1.359,5.134.196,2.568.196,5.136-.93,2.568-.93,5.136-4.855,2.567-4.855,5.134,5.791,2.567,5.791,5.134-.665,2.567-.665,5.134-4.004,2.567-4.004,5.135-3.153,2.568-3.153,5.136,4.99,2.568,4.99,5.136,2.795,2.567,2.795,5.135-7.643,2.567-7.643,5.134,7.463,2.567,7.463,5.135-7.575,2.568-7.575,5.136,7.832,2.568,7.832,5.136-6.901,2.568-6.901,5.135,2.938,2.567,2.938,5.135-2.043,2.568-2.043,5.135-1.838,2.568-1.838,5.137,1.33,2.568,1.33,5.136-.227,2.568-.227,5.135,2.613,2.568,2.613,5.135.699,2.569.699,5.137-4.063,2.568-4.063,5.136,1.724,2.568,1.724,5.135,2.797,2.568,2.797,5.136-1.034,2.568-1.034,5.137.148,2.566.148,5.132,2.688,2.565,2.688,5.131-1.051,2.565-1.051,5.131,2.204,2.566,2.204,5.133.027,2.568.027,5.136-7.222,2.568-7.222,5.135,3.63,2.566,3.63,5.133,1.166,2.566,1.166,5.133-.093,2.567-.093,5.135-5.417,2.569-5.417,5.138,4.054,2.567,4.054,5.135-2.405,2.567-2.405,5.134,5.76,2.568,5.76,5.136-3.38,2.569-3.38,5.138-1.954,2.567-1.954,5.135-1.607,2.568-1.607,5.136-.491,2.569-.491,5.138,2.968,2.568,2.968,5.136-1.549,2.569-1.549,5.138,1.477,2.568,1.477,5.137-.729,2.569-.729,5.138,2.095,2.569,2.095,5.138-3.029,2.57-3.029,5.139.32,2.569.32,5.138,4.542,2.57,4.542,5.139,1.867,2.57,1.867,5.14-1.559,2.57-1.559,5.139-5.817,2.567-5.817,5.134,1.316,2.57,1.316,5.139,5.748,2.568,5.748,5.136-3.452,2.569-3.452,5.139-.965,2.57-.965,5.141,2.15,2.57,2.15,5.141-2.812,2.57-2.812,5.141,1.978,2.571,1.978,5.142-1.846,2.57-1.846,5.139.15,2.572.15,5.144-1.555,3.375-.69,5.799c1.295,3.628,5.517,4.542,3.7,6.365Z" style="fill: #fff;"/>
    <path d="M607.526,595.808c-1.811,1.817-4.441-5.689-7.006-5.689s-2.565,3.181-5.131,3.181-2.566,3.167-5.131,3.167-2.566.873-5.132.873-2.566-6.996-5.133-6.996-2.567,6.422-5.134,6.422-2.568-1.336-5.136-1.336-2.567.784-5.134.784-2.567-2.089-5.133-2.089-2.566-.384-5.132-.384-2.566,1.906-5.132,1.906-2.566,1.133-5.132,1.133-2.566-6.337-5.132-6.337-2.566.236-5.132.236-2.567.991-5.133.991-2.567,5.091-5.135,5.091-2.568-5.074-5.136-5.074-2.567,2.344-5.134,2.344-2.567,3.834-5.133,3.834-2.566-3.48-5.133-3.48-2.566.041-5.132.041-2.566,2.158-5.133,2.158-2.567-5.944-5.133-5.944-2.567,5.629-5.134,5.629-2.568-2.873-5.136-2.873-2.568,1.541-5.135,1.541-2.567,2.054-5.134,2.054-2.567-5.938-5.133-5.938-2.567.879-5.133.879-2.567,4.44-5.134,4.44-2.567-1.734-5.134-1.734-2.568-1.575-5.136-1.575-2.568,3.044-5.136,3.044-2.567-2.748-5.134-2.748-2.567,3.618-5.134,3.618-2.567-4.747-5.134-4.747-2.567-.411-5.135-.411-2.568.14-5.136.14-2.568,4.162-5.136,4.162-2.567-1.59-5.135-1.59-2.567,1.561-5.134,1.561-2.567-3.73-5.135-3.73-2.568.902-5.136.902-2.568,3.928-5.136,3.928-2.568.625-5.135.625-2.567-5.998-5.135-5.998-2.568,5.8-5.135,5.8-2.568-2.712-5.137-2.712-2.568-3.705-5.136-3.705-2.568,5.007-5.135,5.007-2.568-5.019-5.135-5.019-2.569,6.134-5.137,6.134-2.568-.144-5.136-.144-2.568-6.672-5.135-6.672-2.568,6.119-5.136,6.119-2.568-2.579-5.137-2.579-2.566,1.965-5.132,1.965-2.565-5.628-5.131-5.628-2.565,7.007-5.131,7.007-2.566-5.989-5.133-5.989-2.568,2.948-5.136,2.948-2.568,2.852-5.135,2.852-2.566-5.678-5.133-5.678-2.566,1.695-5.133,1.695-2.567-3.225-5.135-3.225-2.569,4.647-5.138,4.647-2.567-2.424-5.135-2.424-2.567,1.661-5.134,1.661-2.568-.267-5.136-.267-2.569-.382-5.138-.382-2.567-.751-5.135-.751-2.568-.602-5.136-.602-2.569-1.22-5.138-1.22-2.568,6.356-5.136,6.356-2.569-1.886-5.138-1.886-2.568,1.029-5.137,1.029-2.569-1.413-5.138-1.413-2.569-.145-5.138-.145-2.57,2.75-5.139,2.75-2.569-3.903-5.138-3.903-2.57,2.269-5.139,2.269-2.57-2.854-5.14-2.854-2.57-1.758-5.139-1.758-2.567,1.772-5.134,1.772-2.57.803-5.139.803-2.568,1.847-5.136,1.847-2.569,1.064-5.139,1.064-2.57-.49-5.141-.49-2.57-1.866-5.141-1.866-2.57-1.338-5.141-1.338-2.571-2.844-5.142-2.844-2.57,3.138-5.139,3.138-2.572,2.967-5.144,2.967-2.574-3.185-5.147-3.185-1.364.816-3.187-1.001-.567-.599-.567-3.164,1.751-2.565,1.751-5.131-1.419-2.566-1.419-5.131-3.004-2.566-3.004-5.132,2.16-2.566,2.16-5.133-3.334-2.567-3.334-5.134.214-2.568.214-5.136,4.739-2.567,4.739-5.134-3.366-2.567-3.366-5.133.158-2.566.158-5.132-1.676-2.566-1.676-5.132,3.746-2.566,3.746-5.132-3.93-2.566-3.93-5.132,3.8-2.566,3.8-5.132-4.473-2.567-4.473-5.133.071-2.567.071-5.135,1.117-2.568,1.117-5.136-1.873-2.567-1.873-5.134,5.685-2.567,5.685-5.133-1.077-2.566-1.077-5.133-4.676-2.566-4.676-5.132,5.718-2.566,5.718-5.133,1.854-2.567,1.854-5.133.273-2.567.273-5.134-7.012-2.568-7.012-5.136,6.593-2.568,6.593-5.135-1.714-2.567-1.714-5.134-.715-2.567-.715-5.133-4.435-2.567-4.435-5.133.914-2.567.914-5.134,3.492-2.567,3.492-5.134-3.451-2.568-3.451-5.136,1.641-2.568,1.641-5.136-1.989-2.567-1.989-5.134,5.377-2.567,5.377-5.134-.862-2.567-.862-5.134-.53-2.567-.53-5.135.71-2.568.71-5.136-2.573-2.568-2.573-5.136,1.466-2.567,1.466-5.135-.931-2.567-.931-5.134-2.02-2.567-2.02-5.135-1.036-2.568-1.036-5.136,6.966-2.568,6.966-5.136-7.122-2.568-7.122-5.135,2.888-2.567,2.888-5.135-1.537-2.568-1.537-5.135-.421-2.568-.421-5.137,5.986-2.568,5.986-5.136-3.13-2.568-3.13-5.135-3.069-2.568-3.069-5.135,6.053-2.569,6.053-5.137-3.088-2.568-3.088-5.136,1.311-2.568,1.311-5.135.347-2.568.347-5.136-1.944-2.568-1.944-5.137,1.955-2.566,1.955-5.132,1.442-2.565,1.442-5.131-5.834-2.565-5.834-5.131-.893-2.566-.893-5.133,4.105-2.568,4.105-5.136-.452-2.568-.452-5.135-3.112-2.566-3.112-5.133,1.306-2.566,1.306-5.133-.488-2.567-.488-5.135,2.481-2.569,2.481-5.138,1.685-2.567,1.685-5.135.89-2.567.89-5.134-1.475-2.568-1.475-5.136-3.499-2.569-3.499-5.138-.909-2.567-.909-5.135,5.597-2.568,5.597-5.136-5.711-2.569-5.711-5.138,2.413-2.568,2.413-5.136,1.759-2.569,1.759-5.138-5.163-2.568-5.163-5.137,3.902-2.569,3.902-5.138.03-2.569.03-5.138.275-2.57.275-5.139-2.313-2.569-2.313-5.138-.858-2.57-.858-5.139-1.064-2.57-1.064-5.14,3.038-2.57,3.038-5.139-2.314-2.567-2.314-5.134-.251-2.57-.251-5.139,4.575-2.568,4.575-5.136,1.2-2.569,1.2-5.139-2.55-2.57-2.55-5.141,2.275-2.57,2.275-5.141-3.359-2.57-3.359-5.141,3.674-2.571,3.674-5.142.099-2.57.099-5.139,1.49-2.572,1.49-5.144-3.215-2.574-3.215-5.147-2.606-3.363-.789-5.186,2.604.478,5.169.478,2.565,1.362,5.131,1.362,2.566-1.362,5.131-1.362,2.566-1.549,5.132-1.549,2.566-.71,5.133-.71,2.567.584,5.134.584,2.568,5.14,5.136,5.14,2.567-2.723,5.134-2.723,2.567-3.206,5.133-3.206,2.566,1.678,5.132,1.678,2.566,2.184,5.132,2.184,2.566-2.095,5.132-2.095,2.566,3.647,5.132,3.647,2.566-3.349,5.132-3.349,2.567,1.576,5.133,1.576,2.567,1.282,5.135,1.282,2.568-6.69,5.136-6.69,2.567,2.219,5.134,2.219,2.567-1.698,5.133-1.698,2.566,3.45,5.133,3.45,2.566,1.362,5.132,1.362,2.566,1.594,5.133,1.594,2.567-.887,5.133-.887,2.567-3.014,5.134-3.014,2.568.618,5.136.618,2.568,1.829,5.135,1.829,2.567-.586,5.134-.586,2.567,2.506,5.133,2.506,2.567-2.951,5.133-2.951,2.567-.271,5.134-.271,2.567,1.478,5.134,1.478,2.568-4.768,5.136-4.768,2.568-.47,5.136-.47,2.567,1.324,5.134,1.324,2.567-1.042,5.134-1.042,2.567-.379,5.134-.379,2.567,4.377,5.135,4.377,2.568-.096,5.136-.096,2.568-3.272,5.136-3.272,2.567,1.055,5.135,1.055,2.567-.277,5.134-.277,2.567,1.618,5.135,1.618,2.568-.982,5.136-.982,2.568,3.597,5.136,3.597,2.568-5.314,5.135-5.314,2.567,3.631,5.135,3.631,2.568,2.878,5.135,2.878,2.568-5.195,5.137-5.195,2.568-1.639,5.136-1.639,2.568,5.849,5.135,5.849,2.568-6.054,5.135-6.054,2.569,2.614,5.137,2.614,2.568,1.62,5.136,1.62,2.568,1.204,5.135,1.204,2.568-2.473,5.136-2.473,2.568-2.726,5.137-2.726,2.566,6.724,5.132,6.724,2.565-6.499,5.131-6.499,2.565,5.991,5.131,5.991,2.566-.644,5.133-.644,2.568-2.252,5.136-2.252,2.568-4.172,5.135-4.172,2.566,3.478,5.133,3.478,2.566,2.82,5.133,2.82,2.567.826,5.135.826,2.569-5.47,5.138-5.47,2.567,4.919,5.135,4.919,2.567-5.861,5.134-5.861,2.568,7.191,5.136,7.191,2.569-.256,5.138-.256,2.567-5.633,5.135-5.633,2.568,4.495,5.136,4.495,2.569-3.953,5.138-3.953,2.568-.507,5.136-.507,2.569-.358,5.138-.358,2.568,4.029,5.137,4.029,2.569-1.758,5.138-1.758,2.569,2.352,5.138,2.352,2.57-3.712,5.139-3.712,2.569-.837,5.138-.837,2.57,5.755,5.139,5.755,2.57-6.335,5.14-6.335,2.57,5.842,5.139,5.842,2.567-2.027,5.134-2.027,2.57-4.001,5.139-4.001,2.568,6.337,5.136,6.337,2.569-6.583,5.139-6.583,2.57,4.634,5.141,4.634,2.57-4.068,5.141-4.068,2.57,3.173,5.141,3.173,2.571,1.595,5.142,1.595,2.57-4.079,5.139-4.079,2.572-1.016,5.144-1.016,2.574,3.796,5.147,3.796,4.379-3.746,6.202-1.929-.341,3.623-.341,6.188-3.796,2.565-3.796,5.131,6.886,2.566,6.886,5.131-6.996,2.566-6.996,5.132,4.048,2.566,4.048,5.133-3.77,2.567-3.77,5.134,3.64,2.568,3.64,5.136-2.159,2.567-2.159,5.134,5.333,2.567,5.333,5.133-4.431,2.566-4.431,5.132-1.684,2.566-1.684,5.132.217,2.566.217,5.132-1.399,2.566-1.399,5.132,6.396,2.566,6.396,5.132-3.319,2.567-3.319,5.133-3.158,2.567-3.158,5.135,6.322,2.568,6.322,5.136-5.406,2.567-5.406,5.134,1.7,2.567,1.7,5.133-2.969,2.566-2.969,5.133,4.026,2.566,4.026,5.132-3.038,2.566-3.038,5.133,6.249,2.567,6.249,5.133-1.386,2.567-1.386,5.134,1.364,2.568,1.364,5.136-1.407,2.568-1.407,5.135-1.729,2.567-1.729,5.134-.455,2.567-.455,5.133-2.895,2.567-2.895,5.133,5.455,2.567,5.455,5.134,1.359,2.567,1.359,5.134.196,2.568.196,5.136-.93,2.568-.93,5.136-4.855,2.567-4.855,5.134,5.791,2.567,5.791,5.134-.665,2.567-.665,5.134-4.004,2.567-4.004,5.135-3.153,2.568-3.153,5.136,4.99,2.568,4.99,5.136,2.795,2.567,2.795,5.135-7.643,2.567-7.643,5.134,7.463,2.567,7.463,5.135-7.575,2.568-7.575,5.136,7.832,2.568,7.832,5.136-6.901,2.568-6.901,5.135,2.938,2.567,2.938,5.135-2.043,2.568-2.043,5.135-1.838,2.568-1.838,5.137,1.33,2.568,1.33,5.136-.227,2.568-.227,5.135,2.613,2.568,2.613,5.135.699,2.569.699,5.137-4.063,2.568-4.063,5.136,1.724,2.568,1.724,5.135,2.797,2.568,2.797,5.136-1.034,2.568-1.034,5.137.148,2.566.148,5.132,2.688,2.565,2.688,5.131-1.051,2.565-1.051,5.131,2.204,2.566,2.204,5.133.027,2.568.027,5.136-7.222,2.568-7.222,5.135,3.63,2.566,3.63,5.133,1.166,2.566,1.166,5.133-.093,2.567-.093,5.135-5.417,2.569-5.417,5.138,4.054,2.567,4.054,5.135-2.405,2.567-2.405,5.134,5.76,2.568,5.76,5.136-3.38,2.569-3.38,5.138-1.954,2.567-1.954,5.135-1.607,2.568-1.607,5.136-.491,2.569-.491,5.138,2.968,2.568,2.968,5.136-1.549,2.569-1.549,5.138,1.477,2.568,1.477,5.137-.729,2.569-.729,5.138,2.095,2.569,2.095,5.138-3.029,2.57-3.029,5.139.32,2.569.32,5.138,4.542,2.57,4.542,5.139,1.867,2.57,1.867,5.14-1.559,2.57-1.559,5.139-5.817,2.567-5.817,5.134,1.316,2.57,1.316,5.139,5.748,2.568,5.748,5.136-3.452,2.569-3.452,5.139-.965,2.57-.965,5.141,2.15,2.57,2.15,5.141-2.812,2.57-2.812,5.141,1.978,2.571,1.978,5.142-1.846,2.57-1.846,5.139.15,2.572.15,5.144-1.555,3.375-.69,5.799c1.295,3.628,5.517,4.542,3.7,6.365Z" style="fill: none; stroke: #000; stroke-miterlimit: 10; stroke-width: 45px;"/>
  </g>
  <g>
    <path d="M517.88,497.536c1.262-2.203-.915-2.544-2.237-4.711s-2.836-1.242-4.158-3.409,1.563-3.926.242-6.092-5.947.654-7.269-1.514.907-3.529-.416-5.698-3.487-.847-4.809-3.014-1.947-1.786-3.269-3.952.295-3.154-1.027-5.322,2.372-4.422,1.05-6.591-6.058.722-7.38-1.446,2.841-4.707,1.519-6.875-1.723-1.925-3.046-4.093-3.985-.544-5.307-2.712-2.222-1.62-3.545-3.789-1.276-2.197-2.598-4.365-1.972-1.773-3.295-3.941,1.324-3.783.001-5.951.034-2.997-1.289-5.166-.473-2.687-1.796-4.855-1.054-2.334-2.377-4.503-4.954.045-6.278-2.124-.038-2.952-1.361-5.12.706-3.404-.616-5.571-.161-2.878-1.484-5.047-7.555,1.634-8.877-.534.776-3.449-.547-5.618,2.786-4.677,1.463-6.846-2.092-1.701-3.416-3.871-3.086-1.095-4.41-3.265.885-3.516-.439-5.685-4.189-.422-5.512-2.592-1.962-1.783-3.287-3.954-.188-2.867-1.513-5.04-.153-7.013-2.697-7.084-3.006,3.888-4.443,5.983-1.839,1.821-3.277,3.918,3.276,5.326,1.84,7.422-3.077.97-4.513,3.065-4.053.302-5.49,2.398-1.777,1.864-3.214,3.96.106,3.153-1.331,5.248-.395,2.81-1.832,4.906.711,3.57-.727,5.666-1.973,1.728-3.41,3.824-6.699-1.51-8.136.587,1.876,4.368.439,6.464-1.263,2.216-2.701,4.313-4.707-.145-6.144,1.951.397,3.355-1.041,5.452.035,3.106-1.402,5.203-.386,2.819-1.824,4.916-5.106-.422-6.542,1.672-2.39,1.443-3.828,3.54-.97,2.415-2.407,4.511.65,3.529-.788,5.627,2.036,4.477.598,6.573-2.366,1.461-3.803,3.558-4.587-.06-6.025,2.038-1.549,2.022-2.988,4.12-.256,2.909-1.695,5.007-2.713,1.223-4.151,3.321-1.384,2.135-2.823,4.233-1.402,2.125-2.842,4.225,2.15,4.563.709,6.664-2.865,1.744-5.412,1.703c-2.593-.041.434-2.68-1.021-4.827s-2.397-1.51-3.853-3.658-.942-2.495-2.398-4.642-.55-2.762-2.005-4.909-4.833.141-6.288-2.006-1.964-1.804-3.42-3.952,2.104-4.56.648-6.708-.627-2.71-2.083-4.858-7.418,1.897-8.872-.249,3.391-5.432,1.936-7.58-1.21-2.313-2.665-4.459-5.941.891-7.398-1.257,4.176-5.964,2.721-8.111-1.522-2.104-2.978-4.252-5.894.858-7.351-1.291,1.645-4.251.189-6.401-2.679-1.321-4.135-3.47-1.963-1.805-3.419-3.954-1.065-2.415-2.521-4.564-4.227-.274-5.685-2.425-2.214-1.641-3.672-3.793,2.792-8.016.192-8.016c-2.529,0,1.726,5.639.398,7.792s-4.636.111-5.963,2.263-4.161.405-5.488,2.558,3.188,4.937,1.86,7.091.081,3.02-1.247,5.173-1.706,1.92-3.034,4.073-1.76,1.886-3.088,4.039-3.691.696-5.019,2.849-.765,2.5-2.093,4.653-.082,2.922-1.409,5.076-.988,2.363-2.315,4.516-6.089-.782-7.417,1.372,3.312,5.011,1.986,7.161-4.903-.051-6.23,2.102,3.66,5.227,2.333,7.379-6.552-1.067-7.88,1.087,1.862,4.119.535,6.272-3.651.722-4.979,2.876,2.385,4.444,1.057,6.599-3.121,1.05-4.449,3.205.127,3.052-1.201,5.207-2.95,1.154-4.278,3.309-1.787,1.872-3.115,4.026-1.267,2.195-2.596,4.351.194,3.097-1.137,5.255-5.665,1.185-4.412,3.389c1.264,2.223,2.687,3.849,5.244,3.849s2.558-7.914,5.115-7.914,2.558,4.456,5.116,4.456,2.559,1.908,5.117,1.908,2.559-4.152,5.117-4.152,2.558-1.224,5.116-1.224,2.558,5.62,5.116,5.62,2.558-2.722,5.116-2.722,2.559.503,5.117.503,2.559,2.848,5.118,2.848,2.558-1.241,5.116-1.241,2.558,1.546,5.116,1.546,2.558-6.06,5.117-6.06,2.559-.914,5.118-.914,2.559,5.775,5.117,5.775,2.558-3.037,5.116-3.037,2.558,2.605,5.117,2.605,2.559-5.215,5.119-5.215,2.559,6.852,5.117,6.852,2.558-2.232,5.117-2.232,2.559-3.465,5.118-3.465,2.559-1.35,5.118-1.35,2.557-.033,5.114-.033,2.556,6.103,5.112,6.103,2.556-4.73,5.112-4.73,2.557,2.999,5.114,2.999,2.559-4.549,5.118-4.549,2.558,1.762,5.117,1.762,2.557,3.324,5.114,3.324,2.557-3.717,5.114-3.717,2.558,2.621,5.116,2.621,2.56,2.737,5.12,2.737,2.558.222,5.116.222,2.558-5.078,5.115-5.078,2.559,1.467,5.117,1.467,2.559,1.581,5.119,1.581,2.558,2.096,5.116,2.096,2.559-4.557,5.118-4.557,2.56,4.413,5.12,4.413,2.559-1.417,5.117-1.417,2.56-4.154,5.12-4.154,2.559,3.945,5.118,3.945,2.56,1.125,5.119,1.125,2.559.762,5.119.762,2.56-5.137,5.12-5.137,2.56,3.859,5.119,3.859,2.56-4.602,5.121-4.602,2.561-.34,5.121-.34,2.56,1.313,5.121,1.313,2.558,3.04,5.116,3.04,2.56-.908,5.12-.908,2.559-3.039,5.117-3.039,2.56,3.984,5.12,3.984,2.561-2.847,5.122-2.847,2.561.137,5.122.137,2.561,2.912,5.122,2.912,2.562-3.299,5.124-3.299,2.56-1.613,5.121-1.613,2.563,1.602,5.125,1.602,1.895,3.849,4.382,4.475c2.802.705,4.708-.681,5.984-2.906Z"/>
    <path d="M517.88,497.536c1.262-2.203-.915-2.544-2.237-4.711s-2.836-1.242-4.158-3.409,1.563-3.926.242-6.092-5.947.654-7.269-1.514.907-3.529-.416-5.698-3.487-.847-4.809-3.014-1.947-1.786-3.269-3.952.295-3.154-1.027-5.322,2.372-4.422,1.05-6.591-6.058.722-7.38-1.446,2.841-4.707,1.519-6.875-1.723-1.925-3.046-4.093-3.985-.544-5.307-2.712-2.222-1.62-3.545-3.789-1.276-2.197-2.598-4.365-1.972-1.773-3.295-3.941,1.324-3.783.001-5.951.034-2.997-1.289-5.166-.473-2.687-1.796-4.855-1.054-2.334-2.377-4.503-4.954.045-6.278-2.124-.038-2.952-1.361-5.12.706-3.404-.616-5.571-.161-2.878-1.484-5.047-7.555,1.634-8.877-.534.776-3.449-.547-5.618,2.786-4.677,1.463-6.846-2.092-1.701-3.416-3.871-3.086-1.095-4.41-3.265.885-3.516-.439-5.685-4.189-.422-5.512-2.592-1.962-1.783-3.287-3.954-.188-2.867-1.513-5.04-.153-7.013-2.697-7.084-3.006,3.888-4.443,5.983-1.839,1.821-3.277,3.918,3.276,5.326,1.84,7.422-3.077.97-4.513,3.065-4.053.302-5.49,2.398-1.777,1.864-3.214,3.96.106,3.153-1.331,5.248-.395,2.81-1.832,4.906.711,3.57-.727,5.666-1.973,1.728-3.41,3.824-6.699-1.51-8.136.587,1.876,4.368.439,6.464-1.263,2.216-2.701,4.313-4.707-.145-6.144,1.951.397,3.355-1.041,5.452.035,3.106-1.402,5.203-.386,2.819-1.824,4.916-5.106-.422-6.542,1.672-2.39,1.443-3.828,3.54-.97,2.415-2.407,4.511.65,3.529-.788,5.627,2.036,4.477.598,6.573-2.366,1.461-3.803,3.558-4.587-.06-6.025,2.038-1.549,2.022-2.988,4.12-.256,2.909-1.695,5.007-2.713,1.223-4.151,3.321-1.384,2.135-2.823,4.233-1.402,2.125-2.842,4.225,2.15,4.563.709,6.664-2.865,1.744-5.412,1.703c-2.593-.041.434-2.68-1.021-4.827s-2.397-1.51-3.853-3.658-.942-2.495-2.398-4.642-.55-2.762-2.005-4.909-4.833.141-6.288-2.006-1.964-1.804-3.42-3.952,2.104-4.56.648-6.708-.627-2.71-2.083-4.858-7.418,1.897-8.872-.249,3.391-5.432,1.936-7.58-1.21-2.313-2.665-4.459-5.941.891-7.398-1.257,4.176-5.964,2.721-8.111-1.522-2.104-2.978-4.252-5.894.858-7.351-1.291,1.645-4.251.189-6.401-2.679-1.321-4.135-3.47-1.963-1.805-3.419-3.954-1.065-2.415-2.521-4.564-4.227-.274-5.685-2.425-2.214-1.641-3.672-3.793,2.792-8.016.192-8.016c-2.529,0,1.726,5.639.398,7.792s-4.636.111-5.963,2.263-4.161.405-5.488,2.558,3.188,4.937,1.86,7.091.081,3.02-1.247,5.173-1.706,1.92-3.034,4.073-1.76,1.886-3.088,4.039-3.691.696-5.019,2.849-.765,2.5-2.093,4.653-.082,2.922-1.409,5.076-.988,2.363-2.315,4.516-6.089-.782-7.417,1.372,3.312,5.011,1.986,7.161-4.903-.051-6.23,2.102,3.66,5.227,2.333,7.379-6.552-1.067-7.88,1.087,1.862,4.119.535,6.272-3.651.722-4.979,2.876,2.385,4.444,1.057,6.599-3.121,1.05-4.449,3.205.127,3.052-1.201,5.207-2.95,1.154-4.278,3.309-1.787,1.872-3.115,4.026-1.267,2.195-2.596,4.351.194,3.097-1.137,5.255-5.665,1.185-4.412,3.389c1.264,2.223,2.687,3.849,5.244,3.849s2.558-7.914,5.115-7.914,2.558,4.456,5.116,4.456,2.559,1.908,5.117,1.908,2.559-4.152,5.117-4.152,2.558-1.224,5.116-1.224,2.558,5.62,5.116,5.62,2.558-2.722,5.116-2.722,2.559.503,5.117.503,2.559,2.848,5.118,2.848,2.558-1.241,5.116-1.241,2.558,1.546,5.116,1.546,2.558-6.06,5.117-6.06,2.559-.914,5.118-.914,2.559,5.775,5.117,5.775,2.558-3.037,5.116-3.037,2.558,2.605,5.117,2.605,2.559-5.215,5.119-5.215,2.559,6.852,5.117,6.852,2.558-2.232,5.117-2.232,2.559-3.465,5.118-3.465,2.559-1.35,5.118-1.35,2.557-.033,5.114-.033,2.556,6.103,5.112,6.103,2.556-4.73,5.112-4.73,2.557,2.999,5.114,2.999,2.559-4.549,5.118-4.549,2.558,1.762,5.117,1.762,2.557,3.324,5.114,3.324,2.557-3.717,5.114-3.717,2.558,2.621,5.116,2.621,2.56,2.737,5.12,2.737,2.558.222,5.116.222,2.558-5.078,5.115-5.078,2.559,1.467,5.117,1.467,2.559,1.581,5.119,1.581,2.558,2.096,5.116,2.096,2.559-4.557,5.118-4.557,2.56,4.413,5.12,4.413,2.559-1.417,5.117-1.417,2.56-4.154,5.12-4.154,2.559,3.945,5.118,3.945,2.56,1.125,5.119,1.125,2.559.762,5.119.762,2.56-5.137,5.12-5.137,2.56,3.859,5.119,3.859,2.56-4.602,5.121-4.602,2.561-.34,5.121-.34,2.56,1.313,5.121,1.313,2.558,3.04,5.116,3.04,2.56-.908,5.12-.908,2.559-3.039,5.117-3.039,2.56,3.984,5.12,3.984,2.561-2.847,5.122-2.847,2.561.137,5.122.137,2.561,2.912,5.122,2.912,2.562-3.299,5.124-3.299,2.56-1.613,5.121-1.613,2.563,1.602,5.125,1.602,1.895,3.849,4.382,4.475c2.802.705,4.708-.681,5.984-2.906Z" style="fill: none; stroke: #000; stroke-miterlimit: 10; stroke-width: 45px;"/>
  </g>
</svg>