<?xml version="1.0" encoding="UTF-8"?>
<svg id="SM_Icons" data-name="SM Icons" xmlns="http://www.w3.org/2000/svg" width="200" height="200" viewBox="0 0 200 200">
  <polygon points="168.221 84.229 155.914 84.977 145.059 84.474 134.197 83.774 124.73 83.251 123.78 73.516 122.162 62.421 121.437 51.317 123.249 40.305 111.669 38.291 100.006 40.557 88.335 39.082 76.192 39.717 75.023 51.313 75.264 62.409 77.341 73.512 76.195 84.156 65.807 85.461 54.952 85.523 44.09 85.431 32.167 84.331 42.748 92.967 51.546 101.955 58.98 112.155 65.8 122.904 73.147 133.191 83.586 140.727 92.949 149.229 99.999 161.977 109.439 151.363 117.286 141.53 126.21 132.654 134.563 123.266 141.6 112.703 149.812 103.19 159.382 94.927 168.221 84.229" style="fill: #fff;"/>
  <polygon points="168.221 84.229 155.914 84.977 145.059 84.474 134.197 83.774 124.73 83.251 123.78 73.516 122.162 62.421 121.437 51.317 123.249 40.305 111.669 38.291 100.006 40.557 88.335 39.082 76.192 39.717 75.023 51.313 75.264 62.409 77.341 73.512 76.195 84.156 65.807 85.461 54.952 85.523 44.09 85.431 32.167 84.331 42.748 92.967 51.546 101.955 58.98 112.155 65.8 122.904 73.147 133.191 83.586 140.727 92.949 149.229 99.999 161.977 109.439 151.363 117.286 141.53 126.21 132.654 134.563 123.266 141.6 112.703 149.812 103.19 159.382 94.927 168.221 84.229" style="fill: none; stroke: #000; stroke-linecap: round; stroke-linejoin: round; stroke-width: 23px;"/>
</svg>