<?xml version="1.0" encoding="UTF-8"?>
<svg id="SM_Icons" data-name="SM Icons" xmlns="http://www.w3.org/2000/svg" width="200" height="200" viewBox="0 0 200 200">
  <polyline points="158.845 92.229 150.072 83.325 142.117 73.65 133.61 64.491 126.907 53.628 118.434 44.436 109.804 35.38 100 27.75 89.903 35.087 82.756 45.523 72.875 53.389 66.871 64.91 55.375 71.257 47.11 80.656 41.584 92.633" style="fill: none; stroke: #000; stroke-linecap: round; stroke-linejoin: round; stroke-width: 23px;"/>
  <g>
    <polygon points="162.045 145.931 146.978 144.779 133.969 146.15 120.512 144.503 120.064 158.748 121.554 173.17 106.993 172.931 93.016 173.659 77.463 174.165 78.859 158.748 80.652 143.408 66.04 144.644 53.031 143.895 41.919 143.999 50.337 137.471 58.834 128.307 66.555 118.408 73.371 107.652 83.194 99.731 91.953 90.796 100 80.631 107.073 91.696 118.417 98.181 125.942 108.265 135.925 116.04 144.221 125.399 152.879 134.342 162.045 145.931" style="fill: #fff;"/>
    <polygon points="162.045 145.931 146.978 144.779 133.969 146.15 120.512 144.503 120.064 158.748 121.554 173.17 106.993 172.931 93.016 173.659 77.463 174.165 78.859 158.748 80.652 143.408 66.04 144.644 53.031 143.895 41.919 143.999 50.337 137.471 58.834 128.307 66.555 118.408 73.371 107.652 83.194 99.731 91.953 90.796 100 80.631 107.073 91.696 118.417 98.181 125.942 108.265 135.925 116.04 144.221 125.399 152.879 134.342 162.045 145.931" style="fill: none; stroke: #000; stroke-linecap: round; stroke-linejoin: round; stroke-width: 23px;"/>
  </g>
</svg>