<?xml version="1.0" encoding="UTF-8"?>
<svg id="SM_Icons" data-name="SM Icons" xmlns="http://www.w3.org/2000/svg" width="700" height="700" viewBox="0 0 700 700">
  <polygon points="98.815 419.484 107.055 414.029 115.824 406.065 124.984 398.57 132.226 388.784 141.92 381.925 152.331 375.92 161.023 367.864 168.123 357.908 177.821 351.056 187.528 344.215 195.355 335.123 207.059 330.657 213.662 320.101 222.925 312.711 232.168 305.858 232.104 294.251 228.865 282.78 228.785 270.81 227.274 259.067 221.344 248.023 219.958 236.257 219.264 224.383 218.459 212.526 215.969 200.935 214.533 189.181 214.191 177.251 209.512 166.004 208.749 154.14 204.835 142.767 205.543 131.444 215.496 136.392 225.665 142.455 235.143 149.618 244.626 156.772 254.716 162.962 266.249 166.851 274.476 176.012 285.992 179.928 294.849 188.079 305.166 193.902 314.813 200.8 325.028 206.8 335.945 211.671 344.315 220.622 355.532 225.129 367.159 221.767 376.441 213.91 387.108 208.777 398.457 204.983 409.043 199.689 419.566 194.266 430.172 189.01 438.876 180.019 451.426 178.582 461.565 172.415 472.516 167.833 481.849 160.066 492.639 155.169 504.056 151.482 513.048 145.292 508.946 155.408 509.678 167.794 504.216 178.626 500.26 189.835 499.648 201.884 497.211 213.478 493.852 224.838 489.186 235.871 489.047 248.041 483.377 258.819 482.96 270.917 481.578 282.779 474.706 293.259 473.52 305.174 472.426 316.133 478.431 325.522 486.245 334.447 494.502 342.927 505.631 348.535 512.364 358.541 520.517 367.129 528.778 375.607 538.699 382.422 547.133 390.725 554.432 400.163 562.111 409.225 570.577 417.505 578.535 426.289 586.191 435.387 595.598 442.005 584.287 442.523 572.586 444.895 560.561 442.528 548.847 444.691 537.243 448.49 525.172 445.496 513.465 447.782 501.63 448.223 489.689 447.114 477.887 447.991 466.337 452.576 454.324 450.474 442.628 452.936 430.685 451.913 420.063 456.003 415.053 465.644 409.572 476.135 403.395 486.27 395.629 495.596 391.557 506.805 385.689 517.101 382.162 528.588 376.031 538.749 371.685 549.817 367.026 560.725 358.948 569.894 354.544 580.94 348.073 590.929 345.527 602.927 338.299 614.156 332.09 602.343 327.801 591.31 327.238 578.779 319.202 569.256 315.266 558.082 311.978 546.644 307.622 535.639 304.922 523.965 298.709 513.709 296.08 502.01 291.438 491.118 285.475 480.754 281.108 469.751 275.998 459.039 270.89 449.324 260.179 447.222 249.022 442.002 236.963 442.487 225.665 438.168 213.873 436.961 201.715 438.049 190.045 436.067 178.281 434.671 166.618 432.641 155.034 430.129 143.524 427.134 131.834 425.25 120.217 422.928 108.649 420.609 98.815 419.484" style="fill: none; stroke: #000; stroke-linecap: round; stroke-linejoin: round; stroke-width: 50px;"/>
</svg>