<?xml version="1.0" encoding="UTF-8"?>
<svg id="Big_Assets" data-name="Big Assets" xmlns="http://www.w3.org/2000/svg" width="700" height="700" viewBox="0 0 700 700">
  <g>
    <path d="M609.85,350c0,4.769,5.941,9.69,5.689,14.397-.254,4.759-3.896,9.319-4.401,14.008-.509,4.736.104,9.646-.654,14.303-.765,4.699-5.705,8.547-6.715,13.159-1.018,4.648,1.415,10.086.154,14.638-1.27,4.583-5.934,8.068-7.443,12.547-1.517,4.505,1.031,10.478-.721,14.869s-4.643,8.42-6.632,12.711-5.165,8.049-7.385,12.228c-2.227,4.193-6.873,6.91-9.317,10.963-2.451,4.064-.71,10.783-3.37,14.7-2.666,3.924-9.031,5.18-11.901,8.948s-5.325,7.748-8.394,11.357c-3.071,3.612-4.796,8.38-8.055,11.82-3.26,3.441-7.681,5.681-11.122,8.942-3.44,3.26-4.76,8.911-8.373,11.982-3.609,3.069-7.077,6.514-10.85,9.387-3.768,2.869-10.412,1.761-14.337,4.427-3.917,2.661-7.182,6.182-11.246,8.633s-6.082,8.6-10.275,10.827c-4.178,2.22-10.85-.484-15.159,1.513-4.291,1.989-7.909,5.397-12.322,7.157-4.391,1.751-9.779.528-14.283,2.045-4.478,1.508-7.073,9.188-11.656,10.457-4.552,1.261-9.436,1.91-14.084,2.928-4.611,1.01-9.367,2.171-14.065,2.936-4.657.758-9.486,1.61-14.222,2.119-4.689.504-9.76-2.533-14.519-2.279-4.706.251-9.424-.877-14.193-.877s-9.408-.348-14.114-.6c-4.759-.254-9.258-1.801-13.947-2.305-4.736-.509-9.859,2.499-14.517,1.741-4.699-.765-9.677-.341-14.289-1.351-4.648-1.018-8.849-4.003-13.401-5.264-4.583-1.27-9.023-2.948-13.501-4.456-4.505-1.517-8.255-4.875-12.646-6.627s-8.656-3.607-12.947-5.595c-4.309-1.997-9.347-2.372-13.526-4.592-4.193-2.227-8.405-4.4-12.458-6.844-4.064-2.451-6.21-7.726-10.127-10.387-3.924-2.666-10.442-1.637-14.21-4.506-3.774-2.873-6.291-7.342-9.901-10.411-3.612-3.071-5.322-8.115-8.761-11.375s-6.951-6.229-10.212-9.67c-3.26-3.44-8.568-4.952-11.639-8.564-3.069-3.609-4.971-8.129-7.844-11.903-2.869-3.768-4.846-8.077-7.512-12.002-2.661-3.917-9.418-5.244-11.868-9.308-2.444-4.053-5.227-8.118-7.455-12.31-2.22-4.178-4.507-8.539-6.503-12.848-1.989-4.291,2.088-11.218.328-15.632-1.751-4.391-6.291-7.685-7.808-12.19-1.508-4.478-2.914-9.008-4.184-13.591-1.261-4.552-3.047-9.015-4.066-13.662-1.01-4.611,2.015-9.944,1.25-14.643-.758-4.657-2.654-9.041-3.164-13.777-.504-4.689-4.659-9.106-4.913-13.866-.251-4.706-.647-9.542-.647-14.311s3.224-9.454,3.475-14.16c.254-4.759,2.175-9.264,2.679-13.953.509-4.736.126-9.459.884-14.116.765-4.699,1.109-9.388,2.119-14,1.018-4.648,3.799-8.738,5.06-13.289,1.27-4.583-3.104-10.9-1.596-15.378,1.517-4.505,5.266-8.306,7.017-12.698,1.76-4.413,3.677-8.815,5.665-13.106s4.589-8.365,6.809-12.544,4.686-8.28,7.13-12.334c2.451-4.064,8.081-5.998,10.741-9.915,2.666-3.924,4.411-8.332,7.28-12.1,2.873-3.774,6.01-7.18,9.079-10.789,3.071-3.612,4.288-8.81,7.548-12.25,3.26-3.441,6.768-6.643,10.209-9.903s8.567-4.542,12.179-7.614c3.609-3.069,5.198-8.581,8.972-11.454,3.768-2.869,8.723-4.084,12.647-6.75,3.917-2.661,7.63-5.561,11.695-8.012,4.053-2.444,8.867-3.406,13.059-5.633s8.786-3.26,13.095-5.257c4.291-1.989,7.298-6.75,11.711-8.51,4.391-1.751,9.371-1.787,13.875-3.304,4.478-1.508,7.812-6.846,12.395-8.115,4.552-1.261,10.34,2.434,14.987,1.416,4.611-1.01,8.461-5.945,13.159-6.71,4.657-.758,9.289-2.72,14.025-3.23,4.689-.504,9.783,3.265,14.543,3.011,4.706-.251,9.37-.438,14.138-.438s9.413.547,14.119.798c4.759.254,9.233,2.083,13.922,2.587,4.736.509,9.342.616,13.999,1.374,4.699.765,9.414.69,14.026,1.701,4.648,1.018,10.509-2.749,15.06-1.488,4.583,1.27,8.275,5.717,12.754,7.226,4.505,1.517,9.29,2.329,13.682,4.08,4.413,1.76,7.255,7.029,11.547,9.018s8.793,3.346,12.971,5.566c4.193,2.227,8.785,3.589,12.838,6.033s9.158,3.306,13.075,5.967c3.924,2.666,6.973,6.592,10.741,9.462,3.774,2.873,7.634,5.631,11.244,8.7,3.612,3.071,7.108,6.278,10.548,9.538,3.441,3.26,5.223,8.101,8.483,11.542,3.26,3.44,10.315,3.51,13.387,7.122,3.069,3.609,4.276,8.854,7.149,12.627s4.385,8.514,7.05,12.439c2.661,3.917,6.214,7.255,8.665,11.319s4.417,8.393,6.644,12.586c2.22,4.178,3.463,8.821,5.46,13.13,1.989,4.291,2.384,9.176,4.144,13.589,1.751,4.391,3.601,8.619,5.119,13.124,1.508,4.478,6.094,7.994,7.364,12.577,1.261,4.552,3.157,9.045,4.176,13.693,1.01,4.611-2.086,10.015-1.321,14.714.758,4.657,6.128,8.722,6.637,13.458.504,4.689-2.845,9.749-2.591,14.508.251,4.706-1.04,9.38-1.04,14.149Z" style="fill: #fff;"/>
    <path d="M609.85,350c0,4.769,5.941,9.69,5.689,14.397-.254,4.759-3.896,9.319-4.401,14.008-.509,4.736.104,9.646-.654,14.303-.765,4.699-5.705,8.547-6.715,13.159-1.018,4.648,1.415,10.086.154,14.638-1.27,4.583-5.934,8.068-7.443,12.547-1.517,4.505,1.031,10.478-.721,14.869s-4.643,8.42-6.632,12.711-5.165,8.049-7.385,12.228c-2.227,4.193-6.873,6.91-9.317,10.963-2.451,4.064-.71,10.783-3.37,14.7-2.666,3.924-9.031,5.18-11.901,8.948s-5.325,7.748-8.394,11.357c-3.071,3.612-4.796,8.38-8.055,11.82-3.26,3.441-7.681,5.681-11.122,8.942-3.44,3.26-4.76,8.911-8.373,11.982-3.609,3.069-7.077,6.514-10.85,9.387-3.768,2.869-10.412,1.761-14.337,4.427-3.917,2.661-7.182,6.182-11.246,8.633s-6.082,8.6-10.275,10.827c-4.178,2.22-10.85-.484-15.159,1.513-4.291,1.989-7.909,5.397-12.322,7.157-4.391,1.751-9.779.528-14.283,2.045-4.478,1.508-7.073,9.188-11.656,10.457-4.552,1.261-9.436,1.91-14.084,2.928-4.611,1.01-9.367,2.171-14.065,2.936-4.657.758-9.486,1.61-14.222,2.119-4.689.504-9.76-2.533-14.519-2.279-4.706.251-9.424-.877-14.193-.877s-9.408-.348-14.114-.6c-4.759-.254-9.258-1.801-13.947-2.305-4.736-.509-9.859,2.499-14.517,1.741-4.699-.765-9.677-.341-14.289-1.351-4.648-1.018-8.849-4.003-13.401-5.264-4.583-1.27-9.023-2.948-13.501-4.456-4.505-1.517-8.255-4.875-12.646-6.627s-8.656-3.607-12.947-5.595c-4.309-1.997-9.347-2.372-13.526-4.592-4.193-2.227-8.405-4.4-12.458-6.844-4.064-2.451-6.21-7.726-10.127-10.387-3.924-2.666-10.442-1.637-14.21-4.506-3.774-2.873-6.291-7.342-9.901-10.411-3.612-3.071-5.322-8.115-8.761-11.375s-6.951-6.229-10.212-9.67c-3.26-3.44-8.568-4.952-11.639-8.564-3.069-3.609-4.971-8.129-7.844-11.903-2.869-3.768-4.846-8.077-7.512-12.002-2.661-3.917-9.418-5.244-11.868-9.308-2.444-4.053-5.227-8.118-7.455-12.31-2.22-4.178-4.507-8.539-6.503-12.848-1.989-4.291,2.088-11.218.328-15.632-1.751-4.391-6.291-7.685-7.808-12.19-1.508-4.478-2.914-9.008-4.184-13.591-1.261-4.552-3.047-9.015-4.066-13.662-1.01-4.611,2.015-9.944,1.25-14.643-.758-4.657-2.654-9.041-3.164-13.777-.504-4.689-4.659-9.106-4.913-13.866-.251-4.706-.647-9.542-.647-14.311s3.224-9.454,3.475-14.16c.254-4.759,2.175-9.264,2.679-13.953.509-4.736.126-9.459.884-14.116.765-4.699,1.109-9.388,2.119-14,1.018-4.648,3.799-8.738,5.06-13.289,1.27-4.583-3.104-10.9-1.596-15.378,1.517-4.505,5.266-8.306,7.017-12.698,1.76-4.413,3.677-8.815,5.665-13.106s4.589-8.365,6.809-12.544,4.686-8.28,7.13-12.334c2.451-4.064,8.081-5.998,10.741-9.915,2.666-3.924,4.411-8.332,7.28-12.1,2.873-3.774,6.01-7.18,9.079-10.789,3.071-3.612,4.288-8.81,7.548-12.25,3.26-3.441,6.768-6.643,10.209-9.903s8.567-4.542,12.179-7.614c3.609-3.069,5.198-8.581,8.972-11.454,3.768-2.869,8.723-4.084,12.647-6.75,3.917-2.661,7.63-5.561,11.695-8.012,4.053-2.444,8.867-3.406,13.059-5.633s8.786-3.26,13.095-5.257c4.291-1.989,7.298-6.75,11.711-8.51,4.391-1.751,9.371-1.787,13.875-3.304,4.478-1.508,7.812-6.846,12.395-8.115,4.552-1.261,10.34,2.434,14.987,1.416,4.611-1.01,8.461-5.945,13.159-6.71,4.657-.758,9.289-2.72,14.025-3.23,4.689-.504,9.783,3.265,14.543,3.011,4.706-.251,9.37-.438,14.138-.438s9.413.547,14.119.798c4.759.254,9.233,2.083,13.922,2.587,4.736.509,9.342.616,13.999,1.374,4.699.765,9.414.69,14.026,1.701,4.648,1.018,10.509-2.749,15.06-1.488,4.583,1.27,8.275,5.717,12.754,7.226,4.505,1.517,9.29,2.329,13.682,4.08,4.413,1.76,7.255,7.029,11.547,9.018s8.793,3.346,12.971,5.566c4.193,2.227,8.785,3.589,12.838,6.033s9.158,3.306,13.075,5.967c3.924,2.666,6.973,6.592,10.741,9.462,3.774,2.873,7.634,5.631,11.244,8.7,3.612,3.071,7.108,6.278,10.548,9.538,3.441,3.26,5.223,8.101,8.483,11.542,3.26,3.44,10.315,3.51,13.387,7.122,3.069,3.609,4.276,8.854,7.149,12.627s4.385,8.514,7.05,12.439c2.661,3.917,6.214,7.255,8.665,11.319s4.417,8.393,6.644,12.586c2.22,4.178,3.463,8.821,5.46,13.13,1.989,4.291,2.384,9.176,4.144,13.589,1.751,4.391,3.601,8.619,5.119,13.124,1.508,4.478,6.094,7.994,7.364,12.577,1.261,4.552,3.157,9.045,4.176,13.693,1.01,4.611-2.086,10.015-1.321,14.714.758,4.657,6.128,8.722,6.637,13.458.504,4.689-2.845,9.749-2.591,14.508.251,4.706-1.04,9.38-1.04,14.149Z" style="fill: none; stroke: #000; stroke-miterlimit: 10; stroke-width: 47.116px;"/>
  </g>
  <path d="M449.263,354.933c0,4.875-.312,10.147-.98,14.837-.685,4.807-3.651,9.441-4.989,14.005-1.361,4.643-2.883,9.455-4.868,13.793-2.007,4.387-4.219,8.964-6.809,12.987-2.606,4.047-8.921,5.297-12.062,8.919-3.147,3.629-4.216,9.221-7.845,12.369-3.622,3.141-7.432,6.322-11.478,8.928-4.022,2.59-10.054,1.333-14.441,3.339-4.339,1.985-8.412,3.683-13.055,5.044-4.563,1.338-8.226,6.891-13.032,7.576-4.69.668-9.761,1.053-14.636,1.053s-9.906-.664-14.596-1.332c-4.807-.685-9.133-3.83-13.697-5.168-4.643-1.361-9.559-1.981-13.898-3.965-4.387-2.007-8.029-5.39-12.051-7.98-4.047-2.606-7.584-5.732-11.206-8.873s-8.493-5.107-11.64-8.736c-3.141-3.622-5.984-7.689-8.59-11.736-2.59-4.022-3.08-9.225-5.086-13.612-1.985-4.339-1.735-9.244-3.096-13.886-1.338-4.563-5.205-8.411-5.89-13.218-.668-4.69,2.035-9.469,2.035-14.344s-4.327-9.885-3.659-14.575c.685-4.807,3.656-9.162,4.994-13.726,1.361-4.643,4.015-8.634,6-12.972,2.007-4.387,1.868-9.923,4.458-13.945,2.606-4.047,6.954-6.863,10.095-10.485,3.147-3.629,7.132-6.242,10.761-9.39,3.622-3.141,8.156-4.568,12.202-7.174,4.022-2.59,7.172-6.176,11.559-8.182,4.339-1.985,7.524-7.426,12.167-8.787,4.563-1.338,10.021.407,14.828-.278,4.69-.668,9.435.051,14.31.051s9.94-2.962,14.63-2.294c4.807.685,8.639,5.637,13.203,6.975,4.643,1.361,8.57,3.58,12.909,5.565,4.387,2.007,10.686.346,14.708,2.936,4.047,2.606,8.116,5.601,11.738,8.743,3.629,3.147,4.369,9.181,7.517,12.81,3.141,3.622,4.66,8.01,7.265,12.057,2.59,4.022,8.588,6.014,10.594,10.401,1.985,4.339,2.693,9.259,4.054,13.901,1.338,4.563,3.026,9.137,3.711,13.944.668,4.69,3.866,9.552,3.866,14.426Z"/>
</svg>