<?xml version="1.0" encoding="UTF-8"?>
<svg id="SM_Icons" data-name="SM Icons" xmlns="http://www.w3.org/2000/svg" width="200" height="200" viewBox="0 0 200 200">
  <polyline points="160.583 90.593 151.844 81.657 141.931 73.825 134.752 63.416 125.231 55.206 118.335 44.53 109.92 35.271 100 27.371 91.67 36.75 82.173 44.974 75.084 55.467 67.355 65.365 55.655 71.52 49.535 82.938 39.835 90.987" style="fill: none; stroke: #000; stroke-linecap: round; stroke-linejoin: round; stroke-width: 23px;"/>
  <g>
    <polygon points="162.127 145.97 146.978 145.728 133.969 146.471 121.673 145.596 119.299 158.748 120.087 171.688 106.993 173.518 93.016 171.619 77.562 174.064 77.653 158.748 78.121 145.789 66.04 142.429 53.031 143.36 42.044 143.939 49.834 136.998 56.445 126.059 66.987 118.815 72.865 107.176 83.825 100.325 90.268 89.211 99.999 79.409 108.644 90.217 117.97 98.601 126.996 107.272 132.81 118.972 141.487 127.971 150.276 136.946 162.127 145.97" style="fill: #fff;"/>
    <polygon points="162.127 145.97 146.978 145.728 133.969 146.471 121.673 145.596 119.299 158.748 120.087 171.688 106.993 173.518 93.016 171.619 77.562 174.064 77.653 158.748 78.121 145.789 66.04 142.429 53.031 143.36 42.044 143.939 49.834 136.998 56.445 126.059 66.987 118.815 72.865 107.176 83.825 100.325 90.268 89.211 99.999 79.409 108.644 90.217 117.97 98.601 126.996 107.272 132.81 118.972 141.487 127.971 150.276 136.946 162.127 145.97" style="fill: none; stroke: #000; stroke-linecap: round; stroke-linejoin: round; stroke-width: 23px;"/>
  </g>
</svg>