<?xml version="1.0" encoding="UTF-8"?>
<svg id="MD_Icons" data-name="MD Icons" xmlns="http://www.w3.org/2000/svg" width="400" height="400" viewBox="0 0 400 400">
  <path d="M201.21,46.481c0,1.782-2.354,1.782-2.354,3.565s-.191,1.783-.191,3.566.371,1.784.371,3.569-.485,1.785-.485,3.569.539,1.783.539,3.567.536,1.783.536,3.566.162,1.783.162,3.566.476,1.784.476,3.567.606,1.785.606,3.57-2.085,1.785-2.085,3.569.635,1.784.635,3.567.68,1.784.68,3.567-.939,1.784-.939,3.568,2.031,1.786,2.031,3.571-.261,1.784-.261,3.569-2.126,1.784-2.126,3.568,2.121,1.785,2.121,3.569-.153,1.785-.153,3.571-.738,1.784-.738,3.569.707,1.785.707,3.57-.737,1.786-.737,3.571,1.331,1.785,1.331,3.569-1.592,1.786-1.592,3.571,1.335,1.785,1.335,3.57-.97,1.785-.97,3.571.325,1.785.325,3.571-1.024,1.786-1.024,3.572.601,1.783.601,3.567-1.011,1.785-1.011,3.571,1.306,1.783,1.306,3.567.762,1.786.762,3.571-.1,1.785-.1,3.569.487,1.786.487,3.573-.849,1.785-.849,3.57-1.181,1.786-1.181,3.572-.126,1.787-.126,3.574,1.816,1.787,1.816,3.574.037,1.787.037,3.574.187,1.786.187,3.573-1.947,1.787-1.947,3.573-.584,1.787-.584,3.574.596,1.79.596,3.58-.27,1.79-.27,3.58M252.609,100.801c-1.269-1.269.395-2.934-.874-4.203s-1.135-1.405-2.405-2.675-1.534-1.01-2.806-2.282-.929-1.615-2.201-2.886-1.652-.89-2.922-2.161-1.651-.892-2.922-2.164-1.387-1.159-2.66-2.432-1.608-.935-2.88-2.206-1.702-.844-2.975-2.118.202-2.746-1.071-4.019-1.722-.825-2.996-2.098-1.754-.792-3.026-2.065-.61-1.937-1.883-3.211-2.71.162-3.984-1.112-1.087-1.456-2.358-2.727.231-2.777-1.042-4.05-2.774.225-4.049-1.049-1.166-1.383-2.441-2.658-.753-1.797-2.028-3.072-1.777-.777-3.054-2.054-.225-3.084-2.031-3.074c-1.82.01-.337,2.228-1.619,3.519s-2.413.17-3.696,1.461-.338,2.235-1.623,3.529-1.974.61-3.259,1.903-1.054,1.521-2.338,2.814-2.011.571-3.296,1.865-.86,1.718-2.146,3.013-2.002.581-3.287,1.874-.36,2.215-1.646,3.51-.745,1.831-2.031,3.125-1.358,1.225-2.645,2.52-.94,1.638-2.227,2.933-1.889.697-3.176,1.992-2.125.463-3.413,1.759-1.374,1.205-2.658,2.497.002,2.575-1.284,3.869-1.262,1.322-2.549,2.618-1.155,1.428-2.443,2.724-2.669-.075-3.957,1.221-1.704.887-2.995,2.186-.868,1.719-2.158,3.017M353.519,201.489c-1.782,0-1.782-2.354-3.565-2.354s-1.783-.191-3.566-.191-1.784.371-3.569.371-1.785-.485-3.569-.485-1.783.539-3.567.539-1.783.536-3.566.536-1.783.162-3.566.162-1.784.476-3.567.476-1.785.606-3.57.606-1.785-2.085-3.569-2.085-1.784.635-3.567.635-1.784.68-3.567.68-1.784-.939-3.568-.939-1.786,2.031-3.571,2.031-1.784-.261-3.569-.261-1.784-2.126-3.568-2.126-1.785,2.121-3.569,2.121-1.785-.153-3.571-.153-1.784-.738-3.569-.738-1.785.707-3.57.707-1.786-.737-3.571-.737-1.785,1.331-3.569,1.331-1.786-1.592-3.571-1.592-1.785,1.335-3.57,1.335-1.785-.97-3.571-.97-1.785.325-3.571.325-1.786-1.024-3.572-1.024-1.783.601-3.567.601-1.785-1.011-3.571-1.011-1.783,1.306-3.567,1.306-1.786.762-3.571.762-1.785-.1-3.569-.1-1.786.487-3.573.487-1.785-.849-3.57-.849-1.786-1.181-3.572-1.181-1.787-.126-3.574-.126-1.787,1.816-3.574,1.816-1.787.037-3.574.037-1.786.187-3.573.187-1.787-1.947-3.573-1.947-1.787-.584-3.574-.584-1.79.596-3.58.596-1.79-.27-3.58-.27M299.199,252.889c1.269-1.269,2.934.395,4.203-.874s1.405-1.135,2.675-2.405,1.01-1.534,2.282-2.806,1.615-.929,2.886-2.201.89-1.652,2.161-2.922.892-1.651,2.164-2.922,1.159-1.387,2.432-2.66.935-1.608,2.206-2.88.844-1.702,2.118-2.975,2.746.202,4.019-1.071.825-1.722,2.098-2.996.792-1.754,2.065-3.026,1.937-.61,3.211-1.883-.162-2.71,1.112-3.984,1.456-1.087,2.727-2.358,2.777.231,4.05-1.042-.225-2.774,1.049-4.049,1.383-1.166,2.658-2.441,1.797-.753,3.072-2.028.777-1.777,2.054-3.054,3.084-.225,3.074-2.031c-.01-1.82-2.228-.337-3.519-1.619s-.17-2.413-1.461-3.696-2.235-.338-3.529-1.623-.61-1.974-1.903-3.259-1.521-1.054-2.814-2.338-.571-2.011-1.865-3.296-1.718-.86-3.013-2.146-.581-2.002-1.874-3.287-2.215-.36-3.51-1.646-1.831-.745-3.125-2.031-1.225-1.358-2.52-2.645-1.638-.94-2.933-2.227-.697-1.889-1.992-3.176-.463-2.125-1.759-3.413-1.205-1.374-2.497-2.658-2.575.002-3.869-1.284-1.322-1.262-2.618-2.549-1.428-1.155-2.724-2.443.075-2.669-1.221-3.957-.887-1.704-2.186-2.995-1.719-.868-3.017-2.158M198.231,354.235c0-1.782,2.354-1.782,2.354-3.565s.191-1.783.191-3.566-.371-1.784-.371-3.569.485-1.785.485-3.569-.539-1.783-.539-3.567-.536-1.783-.536-3.566-.162-1.783-.162-3.566-.476-1.784-.476-3.567-.606-1.785-.606-3.57,2.085-1.785,2.085-3.569-.635-1.784-.635-3.567-.68-1.784-.68-3.567.939-1.784.939-3.568-2.031-1.786-2.031-3.571.261-1.784.261-3.569,2.126-1.784,2.126-3.568-2.121-1.785-2.121-3.569.153-1.785.153-3.571.738-1.784.738-3.569-.707-1.785-.707-3.57.737-1.786.737-3.571-1.331-1.785-1.331-3.569,1.592-1.786,1.592-3.571-1.335-1.785-1.335-3.57.97-1.785.97-3.571-.325-1.785-.325-3.571,1.024-1.786,1.024-3.572-.601-1.783-.601-3.567,1.011-1.785,1.011-3.571-1.306-1.783-1.306-3.567-.762-1.786-.762-3.571.1-1.785.1-3.569-.487-1.786-.487-3.573.849-1.785.849-3.57,1.181-1.786,1.181-3.572.126-1.787.126-3.574-1.816-1.787-1.816-3.574-.037-1.787-.037-3.574-.187-1.786-.187-3.573,1.947-1.787,1.947-3.573.584-1.787.584-3.574-.596-1.79-.596-3.58.27-1.79.27-3.58M146.832,299.915c1.269,1.269-.395,2.934.874,4.203s1.135,1.405,2.405,2.675,1.534,1.01,2.806,2.282.929,1.615,2.201,2.886,1.652.89,2.922,2.161,1.651.892,2.922,2.164,1.387,1.159,2.66,2.432,1.608.935,2.88,2.206,1.702.844,2.975,2.118-.202,2.746,1.071,4.019,1.722.825,2.996,2.098,1.754.792,3.026,2.065.61,1.937,1.883,3.211,2.71-.162,3.984,1.112,1.087,1.456,2.358,2.727-.231,2.777,1.042,4.05,2.774-.225,4.049,1.049,1.166,1.383,2.441,2.658.753,1.797,2.028,3.072,1.777.777,3.054,2.054.225,3.084,2.031,3.074c1.82-.01.337-2.228,1.619-3.519s2.413-.17,3.696-1.461.338-2.235,1.623-3.529,1.974-.61,3.259-1.903,1.054-1.521,2.338-2.814,2.011-.571,3.296-1.865.86-1.718,2.146-3.013,2.002-.581,3.287-1.874.36-2.215,1.646-3.51.745-1.831,2.031-3.125,1.358-1.225,2.645-2.52.94-1.638,2.227-2.933,1.889-.697,3.176-1.992,2.125-.463,3.413-1.759,1.374-1.205,2.658-2.497-.002-2.575,1.284-3.869,1.262-1.322,2.549-2.618,1.155-1.428,2.443-2.724,2.669.075,3.957-1.221,1.704-.887,2.995-2.186.868-1.719,2.158-3.017M45.922,199.227c1.782,0,1.782,2.354,3.565,2.354s1.783.191,3.566.191,1.784-.371,3.569-.371,1.785.485,3.569.485,1.783-.539,3.567-.539,1.783-.536,3.566-.536,1.783-.162,3.566-.162,1.784-.476,3.567-.476,1.785-.606,3.57-.606,1.785,2.085,3.569,2.085,1.784-.635,3.567-.635,1.784-.68,3.567-.68,1.784.939,3.568.939,1.786-2.031,3.571-2.031,1.784.261,3.569.261,1.784,2.126,3.568,2.126,1.785-2.121,3.569-2.121,1.785.153,3.571.153,1.784.738,3.569.738,1.785-.707,3.57-.707,1.786.737,3.571.737,1.785-1.331,3.569-1.331,1.786,1.592,3.571,1.592,1.785-1.335,3.57-1.335,1.785.97,3.571.97,1.785-.325,3.571-.325,1.786,1.024,3.572,1.024,1.783-.601,3.567-.601,1.785,1.011,3.571,1.011,1.783-1.306,3.567-1.306,1.786-.762,3.571-.762,1.785.1,3.569.1,1.786-.487,3.573-.487,1.785.849,3.57.849,1.786,1.181,3.572,1.181,1.787.126,3.574.126,1.787-1.816,3.574-1.816,1.787-.037,3.574-.037,1.786-.187,3.573-.187,1.787,1.947,3.573,1.947,1.787.584,3.574.584,1.79-.596,3.58-.596,1.79.27,3.58.27M100.242,147.827c-1.269,1.269-2.934-.395-4.203.874s-1.405,1.135-2.675,2.405-1.01,1.534-2.282,2.806-1.615.929-2.886,2.201-.89,1.652-2.161,2.922-.892,1.651-2.164,2.922-1.159,1.387-2.432,2.66-.935,1.608-2.206,2.88-.844,1.702-2.118,2.975-2.746-.202-4.019,1.071-.825,1.722-2.098,2.996-.792,1.754-2.065,3.026-1.937.61-3.211,1.883.162,2.71-1.112,3.984-1.456,1.087-2.727,2.358-2.777-.231-4.05,1.042.225,2.774-1.049,4.049-1.383,1.166-2.658,2.441-1.797.753-3.072,2.028-.777,1.777-2.054,3.054-3.084.225-3.074,2.031c.01,1.82,2.228.337,3.519,1.619s.17,2.413,1.461,3.696,2.235.338,3.529,1.623.61,1.974,1.903,3.259,1.521,1.054,2.814,2.338.571,2.011,1.865,3.296,1.718.86,3.013,2.146.581,2.002,1.874,3.287,2.215.36,3.51,1.646,1.831.745,3.125,2.031,1.225,1.358,2.52,2.645,1.638.94,2.933,2.227.697,1.889,1.992,3.176.463,2.125,1.759,3.413,1.205,1.374,2.497,2.658,2.575-.002,3.869,1.284,1.322,1.262,2.618,2.549,1.428,1.155,2.724,2.443-.075,2.669,1.221,3.957.887,1.704,2.186,2.995,1.719.868,3.017,2.158" style="fill: none; stroke: #000; stroke-linecap: round; stroke-linejoin: round; stroke-width: 40px;"/>
</svg>