<?xml version="1.0" encoding="UTF-8"?>
<svg id="big" xmlns="http://www.w3.org/2000/svg" width="400" height="400" viewBox="0 0 400 400">
  <path d="M282.443,162.366c0,1.268,1.833,2.547,1.794,3.805-.039,1.267.562,2.586.485,3.842-.078,1.265-1.045,2.48-1.162,3.734-.118,1.261.031,2.563-.125,3.812-.157,1.257-1.517,2.341-1.712,3.585-.197,1.251,1.142,2.772.907,4.01s-.708,2.465-.982,3.695-1.742,2.19-2.054,3.411,1.131,2.946.78,4.157-1.607,2.183-1.997,3.382-2.56,1.781-2.988,2.968.686,2.944.221,4.116-.265,2.65-.767,3.807-1.187,2.271-1.725,3.412-1.91,1.893-2.484,3.017-.905,2.385-1.514,3.49-.419,2.699-1.062,3.784-3.082,1.08-3.759,2.145-.162,2.914-.872,3.957-2.72,1.168-3.463,2.188-.955,2.418-1.729,3.415-2.414,1.268-3.219,2.241-.893,2.522-1.728,3.468-.47,3.003-1.335,3.924-2.234,1.389-3.127,2.282-2.148,1.426-3.068,2.291-1.408,2.223-2.355,3.058-2.371,1.131-3.343,1.937-2.174,1.318-3.172,2.092-1.503,2.208-2.524,2.951-2.209,1.269-3.253,1.981-1.478,2.396-2.544,3.074-3.146-.27-4.233.375-2.005,1.561-3.112,2.171-2.06,1.507-3.186,2.082-2.328.997-3.471,1.536-2.909-.362-4.07.14-1.721,2.38-2.896,2.846-1.865,2.272-3.054,2.7-2.681.065-3.884.455-3.009-1.246-4.224-.893-1.923,2.476-3.149,2.79-2.861-1.18-4.096-.905-2.336.979-3.58,1.215-2.231,1.856-3.482,2.053c-1.244.195-2.438.945-3.694,1.102-1.25.156-2.541.267-3.802.385-1.254.117-2.531.443-3.795.521-1.257.078-2.585-.738-3.851-.699-1.258.039-2.533-1.119-3.801-1.119s-2.5-.222-3.758-.261c-1.267-.039-2.609,1.71-3.866,1.633-1.265-.078-2.354-2.273-3.607-2.39-1.261-.118-2.608.8-3.858.644-1.257-.157-2.542-.064-3.787-.259-1.251-.197-2.277-1.571-3.515-1.806s-2.552-.007-3.782-.281-2.963,1.462-4.184,1.149-2.241-1.512-3.452-1.863-2.055-1.912-3.254-2.302-3.066,1.118-4.252.691-1.856-2.292-3.028-2.756-2.672-.177-3.829-.678-2.153-1.408-3.294-1.946-1.931-1.792-3.054-2.366-2.222-1.168-3.327-1.777-3.191.463-4.277-.181-2.125-1.45-3.189-2.127-1.177-2.831-2.22-3.542-2.922-.254-3.942-.997-1.267-2.537-2.264-3.312-1.964-1.574-2.937-2.379-3.037-.361-3.983-1.196-1.311-2.356-2.231-3.22-2.166-1.428-3.058-2.321-2.006-1.621-2.871-2.542-1.108-2.441-1.944-3.389-1.397-2.138-2.202-3.111-.806-2.573-1.581-3.571-2.746-1.087-3.49-2.109-1.059-2.355-1.77-3.399-1.99-1.728-2.668-2.795-1.106-2.307-1.75-3.394.19-3.004-.42-4.111-1.018-2.272-1.592-3.398-3.377-1.15-3.916-2.294-.048-2.768-.551-3.928-2.339-1.788-2.805-2.963.768-3.007.34-4.197-.216-2.571-.606-3.774-1.823-2.065-2.175-3.28-1.892-2.124-2.206-3.35-.381-2.544-.656-3.779,1.216-2.834.981-4.078-.6-2.438-.797-3.689c-.195-1.244-1.346-2.357-1.503-3.613-.156-1.25.3-2.576.182-3.838-.117-1.254-1.719-2.416-1.797-3.681-.078-1.257.76-2.59.721-3.856-.039-1.258.103-2.537.103-3.804s.694-2.52.733-3.778c.039-1.267-1.259-2.602-1.181-3.859.078-1.265.961-2.483,1.078-3.736.118-1.261.301-2.519.457-3.768.157-1.257.93-2.42,1.125-3.664.197-1.251.252-2.513.486-3.751s.085-2.564.359-3.794-.711-2.798-.399-4.019,3.009-1.809,3.361-3.019.766-2.377,1.156-3.576,1.174-2.23,1.601-3.416-1.069-3.094-.605-4.266,2.504-1.691,3.006-2.849-1.014-3.235-.476-4.376,1.224-2.255,1.797-3.378,3.099-1.216,3.708-2.321.725-2.467,1.368-3.552,1.283-2.158,1.961-3.222-.258-3.212.453-4.255,3.401-.705,4.144-1.725.093-3.088.867-4.085,1.27-2.261,2.075-3.233,1.918-1.726,2.754-2.673,2.237-1.4,3.102-2.32,2.8-.777,3.693-1.67-.083-3.714.838-4.579,2.772-.738,3.719-1.574,2.821-.553,3.794-1.358,1.943-1.541,2.941-2.316,1.727-1.839,2.749-2.583,2.034-1.439,3.079-2.15,1.024-3.031,2.091-3.709,3.26.495,4.347-.15,1.747-1.977,2.854-2.587,2.346-.926,3.472-1.501,2.046-1.524,3.189-2.063,2.517-.515,3.677-1.017,1.594-2.752,2.77-3.218,3.218,1.394,4.408.966,2.225-1.171,3.428-1.562,1.995-2.058,3.21-2.411,2.2-1.616,3.426-1.93,3.079,2.037,4.314,1.762,1.975-2.874,3.219-3.11,2.67.551,3.92.355c1.244-.195,2.642.83,3.899.673,1.25-.156,2.458-.364,3.72-.481,1.254-.117,2.429-.951,3.694-1.03,1.257-.078,2.459-1.589,3.726-1.628,1.258-.039,2.552.939,3.819.939s2.555-.801,3.814-.762c1.267.039,2.488,1.161,3.744,1.239,1.265.078,2.571-.418,3.825-.301,1.261.118,2.402,1.258,3.652,1.415,1.257.157,2.607-.434,3.851-.238,1.251.197,2.489.468,3.727.703s2.286,1.377,3.516,1.651,3.003-1.643,4.224-1.33,2.056,2.147,3.267,2.498,2.469.569,3.668.959,2.522.46,3.708.887,2.697.089,3.869.554,1.973,1.9,3.131,2.402,1.877,1.961,3.018,2.499,2.337.923,3.461,1.496,3.233-.674,4.338-.065,1.245,2.944,2.331,3.587,1.85,1.769,2.915,2.446,3.332-.464,4.375.246.884,3.138,1.905,3.881,2.913.32,3.91,1.094,1.908,1.683,2.88,2.488.917,2.797,1.864,3.632,3.103.333,4.024,1.197,2.356,1.245,3.249,2.138,1.529,2.088,2.393,3.009,1.734,1.88,2.57,2.827,1.913,1.736,2.718,2.709.229,3.071,1.004,4.069,2.495,1.29,3.238,2.312.532,2.721,1.243,3.765,2.665,1.283,3.343,2.349,1.27,2.222,1.914,3.309.186,2.816.796,3.923,1.411,2.105,1.986,3.231,1.557,2.056,2.096,3.2.799,2.42,1.302,3.58,1.937,1.953,2.402,3.129-1.488,3.258-1.059,4.447,2.603,1.762,2.994,2.965.52,2.493.872,3.708,1.863,2.135,2.177,3.361-1.181,2.895-.906,4.13,1.108,2.345,1.344,3.589,1.017,2.4,1.213,3.651c.195,1.244-1.316,2.731-1.159,3.987.156,1.25,2.056,2.312,2.174,3.573.117,1.254-1.787,2.664-1.709,3.928.078,1.257,2.381,2.414,2.42,3.68.039,1.258-2.369,2.555-2.369,3.823ZM358.326,357.278c-1.342-1.342-2.652-.032-3.994-1.373s-1.81-.874-3.152-2.216-.726-1.956-2.067-3.297-1.546-1.136-2.886-2.477-.496-2.186-1.837-3.526-2.458-.225-3.799-1.566-1.19-1.495-2.532-2.837-.49-2.194-1.832-3.535-2.647-.035-3.989-1.376-.694-1.988-2.035-3.329-.022-2.661-1.364-4.003-2.518-.167-3.861-1.51-1.872-.811-3.214-2.153-1.224-1.459-2.566-2.8-.705-1.979-2.047-3.321-1.554-1.131-2.896-2.474-2.018-.666-3.359-2.008.129-2.814-1.213-4.156-2.366-.319-3.709-1.662-.231-2.453-1.573-3.795-1.817-.869-3.159-2.211-.556-2.124-1.895-3.464-2.007-.677-3.349-2.019-2.512-.172-3.853-1.513-.876-1.805-2.216-3.146-.995-1.688-2.336-3.03-1.821-.865-3.164-2.208-.846-1.837-2.188-3.178-1.094-1.592-2.437-2.935-1.938-.747-3.28-2.089-1.164-1.523-2.508-2.866-2.169-.516-3.512-1.859-.003-2.684-1.346-4.028-1.585-1.103-2.929-2.447-1.586-1.096-2.927-2.438-1.237-1.449-2.58-2.792-.249-2.44-1.594-3.784-2.419-.27-3.764-1.615-2.367-.323-3.712-1.668-.762-1.932-2.109-3.279.134-2.828-1.213-4.176" style="fill: #fff;"/>
  <path d="M282.443,162.366c0,1.268,1.833,2.547,1.794,3.805-.039,1.267.562,2.586.485,3.842-.078,1.265-1.045,2.48-1.162,3.734-.118,1.261.031,2.563-.125,3.812-.157,1.257-1.517,2.341-1.712,3.585-.197,1.251,1.142,2.772.907,4.01s-.708,2.465-.982,3.695-1.742,2.19-2.054,3.411,1.131,2.946.78,4.157-1.607,2.183-1.997,3.382-2.56,1.781-2.988,2.968.686,2.944.221,4.116-.265,2.65-.767,3.807-1.187,2.271-1.725,3.412-1.91,1.893-2.484,3.017-.905,2.385-1.514,3.49-.419,2.699-1.062,3.784-3.082,1.08-3.759,2.145-.162,2.914-.872,3.957-2.72,1.168-3.463,2.188-.955,2.418-1.729,3.415-2.414,1.268-3.219,2.241-.893,2.522-1.728,3.468-.47,3.003-1.335,3.924-2.234,1.389-3.127,2.282-2.148,1.426-3.068,2.291-1.408,2.223-2.355,3.058-2.371,1.131-3.343,1.937-2.174,1.318-3.172,2.092-1.503,2.208-2.524,2.951-2.209,1.269-3.253,1.981-1.478,2.396-2.544,3.074-3.146-.27-4.233.375-2.005,1.561-3.112,2.171-2.06,1.507-3.186,2.082-2.328.997-3.471,1.536-2.909-.362-4.07.14-1.721,2.38-2.896,2.846-1.865,2.272-3.054,2.7-2.681.065-3.884.455-3.009-1.246-4.224-.893-1.923,2.476-3.149,2.79-2.861-1.18-4.096-.905-2.336.979-3.58,1.215-2.231,1.856-3.482,2.053c-1.244.195-2.438.945-3.694,1.102-1.25.156-2.541.267-3.802.385-1.254.117-2.531.443-3.795.521-1.257.078-2.585-.738-3.851-.699-1.258.039-2.533-1.119-3.801-1.119s-2.5-.222-3.758-.261c-1.267-.039-2.609,1.71-3.866,1.633-1.265-.078-2.354-2.273-3.607-2.39-1.261-.118-2.608.8-3.858.644-1.257-.157-2.542-.064-3.787-.259-1.251-.197-2.277-1.571-3.515-1.806s-2.552-.007-3.782-.281-2.963,1.462-4.184,1.149-2.241-1.512-3.452-1.863-2.055-1.912-3.254-2.302-3.066,1.118-4.252.691-1.856-2.292-3.028-2.756-2.672-.177-3.829-.678-2.153-1.408-3.294-1.946-1.931-1.792-3.054-2.366-2.222-1.168-3.327-1.777-3.191.463-4.277-.181-2.125-1.45-3.189-2.127-1.177-2.831-2.22-3.542-2.922-.254-3.942-.997-1.267-2.537-2.264-3.312-1.964-1.574-2.937-2.379-3.037-.361-3.983-1.196-1.311-2.356-2.231-3.22-2.166-1.428-3.058-2.321-2.006-1.621-2.871-2.542-1.108-2.441-1.944-3.389-1.397-2.138-2.202-3.111-.806-2.573-1.581-3.571-2.746-1.087-3.49-2.109-1.059-2.355-1.77-3.399-1.99-1.728-2.668-2.795-1.106-2.307-1.75-3.394.19-3.004-.42-4.111-1.018-2.272-1.592-3.398-3.377-1.15-3.916-2.294-.048-2.768-.551-3.928-2.339-1.788-2.805-2.963.768-3.007.34-4.197-.216-2.571-.606-3.774-1.823-2.065-2.175-3.28-1.892-2.124-2.206-3.35-.381-2.544-.656-3.779,1.216-2.834.981-4.078-.6-2.438-.797-3.689c-.195-1.244-1.346-2.357-1.503-3.613-.156-1.25.3-2.576.182-3.838-.117-1.254-1.719-2.416-1.797-3.681-.078-1.257.76-2.59.721-3.856-.039-1.258.103-2.537.103-3.804s.694-2.52.733-3.778c.039-1.267-1.259-2.602-1.181-3.859.078-1.265.961-2.483,1.078-3.736.118-1.261.301-2.519.457-3.768.157-1.257.93-2.42,1.125-3.664.197-1.251.252-2.513.486-3.751s.085-2.564.359-3.794-.711-2.798-.399-4.019,3.009-1.809,3.361-3.019.766-2.377,1.156-3.576,1.174-2.23,1.601-3.416-1.069-3.094-.605-4.266,2.504-1.691,3.006-2.849-1.014-3.235-.476-4.376,1.224-2.255,1.797-3.378,3.099-1.216,3.708-2.321.725-2.467,1.368-3.552,1.283-2.158,1.961-3.222-.258-3.212.453-4.255,3.401-.705,4.144-1.725.093-3.088.867-4.085,1.27-2.261,2.075-3.233,1.918-1.726,2.754-2.673,2.237-1.4,3.102-2.32,2.8-.777,3.693-1.67-.083-3.714.838-4.579,2.772-.738,3.719-1.574,2.821-.553,3.794-1.358,1.943-1.541,2.941-2.316,1.727-1.839,2.749-2.583,2.034-1.439,3.079-2.15,1.024-3.031,2.091-3.709,3.26.495,4.347-.15,1.747-1.977,2.854-2.587,2.346-.926,3.472-1.501,2.046-1.524,3.189-2.063,2.517-.515,3.677-1.017,1.594-2.752,2.77-3.218,3.218,1.394,4.408.966,2.225-1.171,3.428-1.562,1.995-2.058,3.21-2.411,2.2-1.616,3.426-1.93,3.079,2.037,4.314,1.762,1.975-2.874,3.219-3.11,2.67.551,3.92.355c1.244-.195,2.642.83,3.899.673,1.25-.156,2.458-.364,3.72-.481,1.254-.117,2.429-.951,3.694-1.03,1.257-.078,2.459-1.589,3.726-1.628,1.258-.039,2.552.939,3.819.939s2.555-.801,3.814-.762c1.267.039,2.488,1.161,3.744,1.239,1.265.078,2.571-.418,3.825-.301,1.261.118,2.402,1.258,3.652,1.415,1.257.157,2.607-.434,3.851-.238,1.251.197,2.489.468,3.727.703s2.286,1.377,3.516,1.651,3.003-1.643,4.224-1.33,2.056,2.147,3.267,2.498,2.469.569,3.668.959,2.522.46,3.708.887,2.697.089,3.869.554,1.973,1.9,3.131,2.402,1.877,1.961,3.018,2.499,2.337.923,3.461,1.496,3.233-.674,4.338-.065,1.245,2.944,2.331,3.587,1.85,1.769,2.915,2.446,3.332-.464,4.375.246.884,3.138,1.905,3.881,2.913.32,3.91,1.094,1.908,1.683,2.88,2.488.917,2.797,1.864,3.632,3.103.333,4.024,1.197,2.356,1.245,3.249,2.138,1.529,2.088,2.393,3.009,1.734,1.88,2.57,2.827,1.913,1.736,2.718,2.709.229,3.071,1.004,4.069,2.495,1.29,3.238,2.312.532,2.721,1.243,3.765,2.665,1.283,3.343,2.349,1.27,2.222,1.914,3.309.186,2.816.796,3.923,1.411,2.105,1.986,3.231,1.557,2.056,2.096,3.2.799,2.42,1.302,3.58,1.937,1.953,2.402,3.129-1.488,3.258-1.059,4.447,2.603,1.762,2.994,2.965.52,2.493.872,3.708,1.863,2.135,2.177,3.361-1.181,2.895-.906,4.13,1.108,2.345,1.344,3.589,1.017,2.4,1.213,3.651c.195,1.244-1.316,2.731-1.159,3.987.156,1.25,2.056,2.312,2.174,3.573.117,1.254-1.787,2.664-1.709,3.928.078,1.257,2.381,2.414,2.42,3.68.039,1.258-2.369,2.555-2.369,3.823ZM358.326,357.278c-1.342-1.342-2.652-.032-3.994-1.373s-1.81-.874-3.152-2.216-.726-1.956-2.067-3.297-1.546-1.136-2.886-2.477-.496-2.186-1.837-3.526-2.458-.225-3.799-1.566-1.19-1.495-2.532-2.837-.49-2.194-1.832-3.535-2.647-.035-3.989-1.376-.694-1.988-2.035-3.329-.022-2.661-1.364-4.003-2.518-.167-3.861-1.51-1.872-.811-3.214-2.153-1.224-1.459-2.566-2.8-.705-1.979-2.047-3.321-1.554-1.131-2.896-2.474-2.018-.666-3.359-2.008.129-2.814-1.213-4.156-2.366-.319-3.709-1.662-.231-2.453-1.573-3.795-1.817-.869-3.159-2.211-.556-2.124-1.895-3.464-2.007-.677-3.349-2.019-2.512-.172-3.853-1.513-.876-1.805-2.216-3.146-.995-1.688-2.336-3.03-1.821-.865-3.164-2.208-.846-1.837-2.188-3.178-1.094-1.592-2.437-2.935-1.938-.747-3.28-2.089-1.164-1.523-2.508-2.866-2.169-.516-3.512-1.859-.003-2.684-1.346-4.028-1.585-1.103-2.929-2.447-1.586-1.096-2.927-2.438-1.237-1.449-2.58-2.792-.249-2.44-1.594-3.784-2.419-.27-3.764-1.615-2.367-.323-3.712-1.668-.762-1.932-2.109-3.279.134-2.828-1.213-4.176" style="fill: none; stroke: #000; stroke-linecap: round; stroke-miterlimit: 10; stroke-width: 15px;"/>
</svg>