<?xml version="1.0" encoding="UTF-8"?>
<svg id="LM_Icons" data-name="LM Icons" xmlns="http://www.w3.org/2000/svg" width="700" height="700" viewBox="0 0 700 700">
  <path d="M496.585,284.14c0,116.538-94.473,211.011-211.011,211.011s-211.011-94.473-211.011-211.011,94.473-211.011,211.011-211.011,211.011,94.473,211.011,211.011ZM625.436,626.87l-192.636-192.636" style="fill: #fff; stroke: #000; stroke-linecap: round; stroke-miterlimit: 10; stroke-width: 26.25px;"/>
  <path d="M597.162,117.543c-2.301,0-4.463-.438-6.486-1.313-2.023-.875-3.79-2.067-5.299-3.576-1.509-1.509-2.701-3.277-3.576-5.301s-1.313-4.188-1.313-6.49.438-4.466,1.313-6.491c.875-2.025,2.067-3.787,3.576-5.287,1.509-1.5,3.277-2.688,5.301-3.563,2.025-.875,4.188-1.313,6.49-1.313s4.466.438,6.491,1.313c2.025.875,3.787,2.063,5.287,3.563,1.5,1.5,2.688,3.264,3.563,5.292.875,2.028,1.313,4.192,1.313,6.493s-.438,4.463-1.313,6.486c-.875,2.023-2.063,3.788-3.563,5.294-1.5,1.506-3.264,2.698-5.292,3.577-2.028.878-4.192,1.318-6.493,1.318ZM597.168,114.765c3.861,0,7.139-1.352,9.833-4.055,2.694-2.704,4.042-5.986,4.042-9.847,0-3.861-1.345-7.139-4.036-9.833-2.691-2.694-5.975-4.042-9.853-4.042-3.852,0-7.13,1.345-9.833,4.036-2.704,2.691-4.055,5.975-4.055,9.853,0,3.852,1.352,7.13,4.055,9.833,2.704,2.704,5.986,4.055,9.847,4.055ZM600.626,109.293c.394,0,.723-.134.99-.401.266-.267.4-.598.4-.993s-.133-.724-.4-.988c-.266-.264-.596-.396-.99-.396h-5.555v-4.305h4.167c.75,0,1.4-.275,1.951-.826.551-.551.827-1.202.827-1.952v-4.194c0-.75-.276-1.401-.827-1.952s-1.201-.826-1.951-.826h-5.555c-.394,0-.723.134-.99.401-.266.267-.4.598-.4.993,0,.395.133.724.4.988.266.264.596.396.99.396h5.555v4.194h-4.167c-.75,0-1.4.276-1.951.827-.551.551-.827,1.201-.827,1.951v5.695c0,.393.133.723.4.99s.596.399.99.399h6.944Z" style="fill: #e3e3e3;"/>
</svg>