<?xml version="1.0" encoding="UTF-8"?>
<svg id="SM_Icons" data-name="SM Icons" xmlns="http://www.w3.org/2000/svg" width="200" height="200" viewBox="0 0 200 200">
  <g>
    <polygon points="124.188 46.6 120.88 34.1 107.724 35.22 93.746 33.953 79.487 32.428 76.192 45.175 64.269 44.443 52.762 43.435 42.165 45.496 41.649 56.526 43.287 68.444 40.873 80.699 50.839 81.196 54.045 92.764 53.487 105.163 54.057 117.565 49.364 129.972 49.743 142.374 50.013 154.785 50.145 168.846 64.045 168.598 76.271 167.822 88.493 168.5 100.718 169.553 112.948 166.034 125.173 165.306 137.407 167.517 150.656 168.197 148.866 154.793 150.72 142.394 147.171 129.992 147.506 117.586 149.248 105.183 150.619 92.772 147.832 78.821 159.411 79.656 158.872 68.452 161.889 56.534 160.736 44.106 148.707 43.815 137.03 42.523 124.188 46.6" style="fill: #fff;"/>
    <polygon points="124.188 46.6 120.88 34.1 107.724 35.22 93.746 33.953 79.487 32.428 76.192 45.175 64.269 44.443 52.762 43.435 42.165 45.496 41.649 56.526 43.287 68.444 40.873 80.699 50.839 81.196 54.045 92.764 53.487 105.163 54.057 117.565 49.364 129.972 49.743 142.374 50.013 154.785 50.145 168.846 64.045 168.598 76.271 167.822 88.493 168.5 100.718 169.553 112.948 166.034 125.173 165.306 137.407 167.517 150.656 168.197 148.866 154.793 150.72 142.394 147.171 129.992 147.506 117.586 149.248 105.183 150.619 92.772 147.832 78.821 159.411 79.656 158.872 68.452 161.889 56.534 160.736 44.106 148.707 43.815 137.03 42.523 124.188 46.6" style="fill: none; stroke: #000; stroke-linecap: round; stroke-linejoin: round; stroke-width: 25px;"/>
  </g>
  <g>
    <polyline points="86.363 80.339 84.322 93.535 84.669 106.727 84.878 119.928 86.232 133.129" style="fill: none; stroke: #000; stroke-linecap: round; stroke-linejoin: round; stroke-width: 20px;"/>
    <polyline points="113.878 80.926 114.874 94.122 114.718 107.314 116.33 120.515 112.773 133.715" style="fill: none; stroke: #000; stroke-linecap: round; stroke-linejoin: round; stroke-width: 20px;"/>
  </g>
</svg>