<?xml version="1.0" encoding="UTF-8"?>
<svg id="Small" xmlns="http://www.w3.org/2000/svg" width="160" height="160" viewBox="0 0 160 160">
  <g>
    <path d="M65.144,134.395c-1.352-1.125-1.213-1.455-1.432-3.2s.343-1.815.125-3.561,1.104-1.911.886-3.657-1.009-1.65-1.228-3.398.62-2.097-.049-3.728c-1.183-.455-3.501.188-4.547-.449s-1.571-2.681-2.572-3.409c-1.74.261-1.44,1.396-3.062,2.077s-2.067-.377-3.69.305-1.16,1.783-2.783,2.464-1.757.37-3.382,1.053-2.101,3.341-3.757,2.736c-1.758-.642-1.661-2.287-2.599-3.906s1.029-2.758.091-4.378-.963-1.603-1.899-3.221-2.041-.981-2.979-2.6-1.539-1.272-2.476-2.892.041-2.187-.897-3.807.076-2.211-.864-3.834-2.679-.727-2.36-2.575c.3-1.736.382-1.813,1.786-2.877s2.395.245,3.8-.818,1.641-.751,3.046-1.815.662-2.049,2.069-3.115,1.686-.759,2.924-2.017c-.091-.637-.249-1.342-.249-1.934,0-1.842-1.003-1.842-1.003-3.684,0-.591,1.413-1.544,1.504-2.181-1.235-1.256-2.385.116-3.789-.947s-1.504-.932-2.909-1.995.118-3.074-1.287-4.138-3.07,1.13-4.477.065-3.086-1.296-3.39-3.034c-.322-1.844,3.315-1.338,4.253-2.958s.732-1.739,1.669-3.359-.825-2.638.112-4.255,2.066-.966,3.003-2.586-.287-2.329.65-3.949,2.34-.808,3.278-2.429.187-2.058,1.127-3.681.59-2.365,2.35-3.012c1.652-.607,1.134,1.936,2.757,2.618s2.565-1.562,4.188-.88,1.568.813,3.191,1.495,1.144,1.83,2.769,2.513,1.435,2.015,3.179,2.277c1.001-.728,2.598-1.911,3.69-2.548s2.891-1.411,3.982-1.866c.635-1.64-.228-2.086-.01-3.831s1.024-1.644,1.242-3.39-1.255-1.93-1.036-3.675,1.691-1.564,1.91-3.313-1.504-1.521-.151-2.65c1.44-1.202,1.017-2.058,2.893-2.058s1.875-.423,3.751-.423,1.875.532,3.751.532,1.875.543,3.75.543,1.875-.924,3.75-.924,1.876,1.084,3.751,1.084,1.879-.347,3.757-.347,3.272-1.788,4.716-.587c1.352,1.125.274,2.77.492,4.515s-1.862,2.005-1.644,3.75,1.912,1.534,2.13,3.28-.575,1.848-.356,3.596-.946,2.207-.278,3.837c1.183.455,3.219.572,4.265,1.209s1.899.522,2.899,1.25c1.74-.261,1.854.427,3.476-.255s1.068-2.001,2.691-2.682,2.639,1.737,4.262,1.055.966-2.254,2.591-2.937,1.513-1.26,3.169-.654c1.758.642,2.117.555,3.054,2.175s.544,1.848,1.481,3.467.279,1.999,1.215,3.617,2.098.948,3.036,2.567.498,1.875,1.436,3.494,1.185,1.477,2.123,3.098.204,2.049,1.143,3.672,1.388,1.394,1.068,3.242c-.3,1.736-.944.948-2.348,2.012s-.361,2.441-1.766,3.504-1.812.526-3.217,1.589-2.4-.246-3.807.82-1.601,1.025-2.839,2.284c.091.637,1.302,1.794,1.302,2.385,0,1.842.6,1.842.6,3.684,0,.591-2.136,1.995-2.318,2.632,1.213,1.277,3.039-.788,4.443.275s.829,1.823,2.233,2.887.673,2.03,2.077,3.094,1.223,1.308,2.63,2.374,2.648-.419,2.951,1.32c.322,1.844.553,2.068-.385,3.688s-1.324,1.396-2.261,3.016-1.777,1.132-2.713,2.749-1.286,1.418-2.224,3.038-.673,1.773-1.611,3.393.606,2.514-.332,4.134-2.04.986-2.98,2.609-.282,2.316-2.041,2.966c-1.639.605-2.052.808-3.661.127s-1.622-.651-3.231-1.333-.553-3.175-2.162-3.857-2.134.549-3.746-.134-1.529-.822-3.26-1.084c-1.001.728-1.987,1.129-3.079,1.766s-1.556,1.407-2.648,1.862c-.635,1.64.231,1.633.013,3.378s-.881,1.662-1.1,3.407-.557,1.703-.776,3.449.337,1.818.119,3.566-.222,1.694-1.575,2.824c-1.44,1.202-1.38.699-3.256.699s-1.875-1.424-3.751-1.424-1.875,1.303-3.751,1.303-1.875-.302-3.75-.302-1.875,1.716-3.75,1.716-1.876-1.771-3.751-1.771-1.945-.172-3.796.146c-1.871.322-2.121,1.242-3.565.04Z" style="fill: #fff;"/>
    <path d="M65.144,134.395c-1.352-1.125-1.213-1.455-1.432-3.2s.343-1.815.125-3.561,1.104-1.911.886-3.657-1.009-1.65-1.228-3.398.62-2.097-.049-3.728c-1.183-.455-3.501.188-4.547-.449s-1.571-2.681-2.572-3.409c-1.74.261-1.44,1.396-3.062,2.077s-2.067-.377-3.69.305-1.16,1.783-2.783,2.464-1.757.37-3.382,1.053-2.101,3.341-3.757,2.736c-1.758-.642-1.661-2.287-2.599-3.906s1.029-2.758.091-4.378-.963-1.603-1.899-3.221-2.041-.981-2.979-2.6-1.539-1.272-2.476-2.892.041-2.187-.897-3.807.076-2.211-.864-3.834-2.679-.727-2.36-2.575c.3-1.736.382-1.813,1.786-2.877s2.395.245,3.8-.818,1.641-.751,3.046-1.815.662-2.049,2.069-3.115,1.686-.759,2.924-2.017c-.091-.637-.249-1.342-.249-1.934,0-1.842-1.003-1.842-1.003-3.684,0-.591,1.413-1.544,1.504-2.181-1.235-1.256-2.385.116-3.789-.947s-1.504-.932-2.909-1.995.118-3.074-1.287-4.138-3.07,1.13-4.477.065-3.086-1.296-3.39-3.034c-.322-1.844,3.315-1.338,4.253-2.958s.732-1.739,1.669-3.359-.825-2.638.112-4.255,2.066-.966,3.003-2.586-.287-2.329.65-3.949,2.34-.808,3.278-2.429.187-2.058,1.127-3.681.59-2.365,2.35-3.012c1.652-.607,1.134,1.936,2.757,2.618s2.565-1.562,4.188-.88,1.568.813,3.191,1.495,1.144,1.83,2.769,2.513,1.435,2.015,3.179,2.277c1.001-.728,2.598-1.911,3.69-2.548s2.891-1.411,3.982-1.866c.635-1.64-.228-2.086-.01-3.831s1.024-1.644,1.242-3.39-1.255-1.93-1.036-3.675,1.691-1.564,1.91-3.313-1.504-1.521-.151-2.65c1.44-1.202,1.017-2.058,2.893-2.058s1.875-.423,3.751-.423,1.875.532,3.751.532,1.875.543,3.75.543,1.875-.924,3.75-.924,1.876,1.084,3.751,1.084,1.879-.347,3.757-.347,3.272-1.788,4.716-.587c1.352,1.125.274,2.77.492,4.515s-1.862,2.005-1.644,3.75,1.912,1.534,2.13,3.28-.575,1.848-.356,3.596-.946,2.207-.278,3.837c1.183.455,3.219.572,4.265,1.209s1.899.522,2.899,1.25c1.74-.261,1.854.427,3.476-.255s1.068-2.001,2.691-2.682,2.639,1.737,4.262,1.055.966-2.254,2.591-2.937,1.513-1.26,3.169-.654c1.758.642,2.117.555,3.054,2.175s.544,1.848,1.481,3.467.279,1.999,1.215,3.617,2.098.948,3.036,2.567.498,1.875,1.436,3.494,1.185,1.477,2.123,3.098.204,2.049,1.143,3.672,1.388,1.394,1.068,3.242c-.3,1.736-.944.948-2.348,2.012s-.361,2.441-1.766,3.504-1.812.526-3.217,1.589-2.4-.246-3.807.82-1.601,1.025-2.839,2.284c.091.637,1.302,1.794,1.302,2.385,0,1.842.6,1.842.6,3.684,0,.591-2.136,1.995-2.318,2.632,1.213,1.277,3.039-.788,4.443.275s.829,1.823,2.233,2.887.673,2.03,2.077,3.094,1.223,1.308,2.63,2.374,2.648-.419,2.951,1.32c.322,1.844.553,2.068-.385,3.688s-1.324,1.396-2.261,3.016-1.777,1.132-2.713,2.749-1.286,1.418-2.224,3.038-.673,1.773-1.611,3.393.606,2.514-.332,4.134-2.04.986-2.98,2.609-.282,2.316-2.041,2.966c-1.639.605-2.052.808-3.661.127s-1.622-.651-3.231-1.333-.553-3.175-2.162-3.857-2.134.549-3.746-.134-1.529-.822-3.26-1.084c-1.001.728-1.987,1.129-3.079,1.766s-1.556,1.407-2.648,1.862c-.635,1.64.231,1.633.013,3.378s-.881,1.662-1.1,3.407-.557,1.703-.776,3.449.337,1.818.119,3.566-.222,1.694-1.575,2.824c-1.44,1.202-1.38.699-3.256.699s-1.875-1.424-3.751-1.424-1.875,1.303-3.751,1.303-1.875-.302-3.75-.302-1.875,1.716-3.75,1.716-1.876-1.771-3.751-1.771-1.945-.172-3.796.146c-1.871.322-2.121,1.242-3.565.04Z" style="fill: none; stroke: #000; stroke-miterlimit: 10; stroke-width: 20px;"/>
  </g>
  <g>
    <path d="M80.267,94.657c1.384,0,2.532-.255,3.782-.577,1.297-.334,3.422,1.053,4.575.372,1.112-.656,1.605-2.533,2.583-3.511s.977-2.581,1.633-3.693c.68-1.153,3.133-1.664,3.467-2.961.322-1.25-.77-2.903-.77-4.287s1.157-3.054.834-4.304c-.334-1.297-1.995-2.297-2.675-3.45-.656-1.112-.994-2.725-1.972-3.704s-2.176-2.021-3.288-2.677c-1.153-.68-2.919-.275-4.216-.609-1.25-.322-2.569.07-3.953.07-1.395,0-3.052-1.703-4.305-1.386-1.311.331-1.626,3.15-2.78,3.827-1.122.659-3.652-.4-4.626.587-.969.981-.977,2.859-1.626,3.974-.671,1.153-1.347,2.364-1.676,3.66-.317,1.248-.657,2.631-.657,4.012,0,1.381-.255,2.915.062,4.163.329,1.296,1.587,2.364,2.258,3.517.649,1.115,2.162,1.511,3.13,2.492.975.987,2.123,1.214,3.245,1.872,1.154.678,1.504,3.113,2.814,3.444,1.252.316,2.765-.832,4.16-.832Z" style="fill: #fff;"/>
    <path d="M80.267,94.657c1.384,0,2.532-.255,3.782-.577,1.297-.334,3.422,1.053,4.575.372,1.112-.656,1.605-2.533,2.583-3.511s.977-2.581,1.633-3.693c.68-1.153,3.133-1.664,3.467-2.961.322-1.25-.77-2.903-.77-4.287s1.157-3.054.834-4.304c-.334-1.297-1.995-2.297-2.675-3.45-.656-1.112-.994-2.725-1.972-3.704s-2.176-2.021-3.288-2.677c-1.153-.68-2.919-.275-4.216-.609-1.25-.322-2.569.07-3.953.07-1.395,0-3.052-1.703-4.305-1.386-1.311.331-1.626,3.15-2.78,3.827-1.122.659-3.652-.4-4.626.587-.969.981-.977,2.859-1.626,3.974-.671,1.153-1.347,2.364-1.676,3.66-.317,1.248-.657,2.631-.657,4.012,0,1.381-.255,2.915.062,4.163.329,1.296,1.587,2.364,2.258,3.517.649,1.115,2.162,1.511,3.13,2.492.975.987,2.123,1.214,3.245,1.872,1.154.678,1.504,3.113,2.814,3.444,1.252.316,2.765-.832,4.16-.832Z" style="fill: none; stroke: #000; stroke-miterlimit: 10; stroke-width: 18px;"/>
  </g>
</svg>