<?xml version="1.0" encoding="UTF-8"?>
<svg id="SM_Icons" data-name="SM Icons" xmlns="http://www.w3.org/2000/svg" width="200" height="200" viewBox="0 0 200 200">
  <path d="M61.981,173.256l-11.548-3.29-4.755-11.548-.614-12.354,3.981-12.355-.357-12.351-.754-12.354.998-12.358-3.485-12.354.042-12.363,2.638-13.623-14.304,2.897,3.867-11.836-2.988-10.983,14.537-.855,13.974,1.395,14.82,1.168-2.216-14.941,12.775,3.007,11.401-1.944,11.409.061,11.301.193,1.746,10.911,12.326.165,13.974.756,13.695,1.249,2.717,9.817-1.244,11.546-14.438-2.971,2.149,13.979,2.045,12.355-3.997,12.351,3.656,12.354-2.758,12.358-1.566,12.354.128,12.363.315,12.363-.989,12.444-12.444,1.269-12.667-.424-12.67,1.866-12.674-2.242-12.67,2.07-12.666-.692-12.692.546ZM83.53,81.567l1.512,11.485-.047,11.489.614,11.486-3.981,11.494.357,11.494M115.112,82.206l1.512,11.485-.047,11.489.614,11.486-3.981,11.494.357,11.494" style="fill: #fff;"/>
  <path d="M61.981,173.256l-11.548-3.29-4.755-11.548-.614-12.354,3.981-12.355-.357-12.351-.754-12.354.998-12.358-3.485-12.354.042-12.363,2.638-13.623-14.304,2.897,3.867-11.836-2.988-10.983,14.537-.855,13.974,1.395,14.82,1.168-2.216-14.941,12.775,3.007,11.401-1.944,11.409.061,11.301.193,1.746,10.911,12.326.165,13.974.756,13.695,1.249,2.717,9.817-1.244,11.546-14.438-2.971,2.149,13.979,2.045,12.355-3.997,12.351,3.656,12.354-2.758,12.358-1.566,12.354.128,12.363.315,12.363-.989,12.444-12.444,1.269-12.667-.424-12.67,1.866-12.674-2.242-12.67,2.07-12.666-.692-12.692.546ZM83.53,81.567l1.512,11.485-.047,11.489.614,11.486-3.981,11.494.357,11.494M115.112,82.206l1.512,11.485-.047,11.489.614,11.486-3.981,11.494.357,11.494" style="fill: none; stroke: #000; stroke-linecap: round; stroke-linejoin: round; stroke-width: 23px;"/>
</svg>