<?xml version="1.0" encoding="UTF-8"?>
<svg id="MD_Icons" data-name="MD Icons" xmlns="http://www.w3.org/2000/svg" width="400" height="400" viewBox="0 0 400 400">
  <path d="M258.551,313.577c-1.285-1.232-.767-1.772-2.052-3.004s-.87-1.664-2.154-2.895-2.532.07-3.816-1.161.586-3.183-.699-4.414-2.292-.181-3.577-1.413-1.422-1.091-2.708-2.324-1.753-.746-3.04-1.978-1.313-1.203-2.598-2.436-1.275-1.242-2.56-2.474-1.168-1.353-2.454-2.585.093-2.671-1.192-3.903-1.398-1.117-2.684-2.35-2.838.386-4.124-.846-.511-2.041-1.796-3.273-1.226-1.295-2.511-2.527-1.7-.801-2.986-2.034-.092-2.481-1.379-3.714-1.106-1.421-2.392-2.653-2.992.548-4.278-.685-.102-2.469-1.388-3.702-1.805-.693-3.092-1.926-1.647-.856-2.933-2.089-.01-2.565-1.296-3.798-2.381-.092-3.668-1.325-.636-1.912-1.922-3.145-1.981-.503-3.265-1.734-.596-1.949-1.881-3.18-1.996-.493-3.282-1.726.017-2.592-1.269-3.825-1.839-.653-3.125-1.885-1.97-.519-3.256-1.752-1.053-1.479-2.34-2.713-1.645-.858-2.931-2.09-1.151-1.376-2.439-2.61-1.522-.988-2.809-2.221-.568-1.986-1.856-3.22-1.766-.734-3.053-1.968-.684-1.864-1.972-3.099-2.276-.205-3.564-1.44-.251-2.312-1.537-3.544-1.029-1.504-2.316-2.738-1.7-.806-2.989-2.042-1.822-.679-3.111-1.915-.297-2.271-1.586-3.507-1.879-.625-3.17-1.863-2.464-.584-2.448-2.373c.016-1.811.648-1.706,1.961-2.953s.849-1.736,2.162-2.983,1.838-.695,3.151-1.942,2.231-.282,3.545-1.529,1.734-.806,3.049-2.055.393-2.22,1.708-3.468.404-2.206,1.718-3.454,3.164.701,4.478-.546.271-2.345,1.585-3.593.617-1.982,1.931-3.23,2.231-.285,3.546-1.533,1.217-1.352,2.531-2.6.772-1.819,2.086-3.067,1.699-.843,3.013-2.09,1.984-.543,3.299-1.791.946-1.638,2.262-2.887,1.047-1.53,2.362-2.779,1.637-.909,2.951-2.157.78-1.812,2.095-3.061,2.359-.15,3.675-1.399-.233-2.879,1.081-4.127,1.427-1.131,2.742-2.38,1.039-1.54,2.355-2.79,2.988.513,4.303-.735,1.5-1.049,2.812-2.295.754-1.836,2.067-3.083,1.64-.907,2.955-2.156.954-1.628,2.269-2.877.998-1.58,2.312-2.827,2.044-.481,3.358-1.729-.211-2.858,1.105-4.108,2.372-.134,3.687-1.383.652-1.949,1.969-3.198,1.395-1.165,2.71-2.415,1.945-.588,3.262-1.839,1.336-1.228,2.652-2.477,1.518-1.038,2.834-2.288.801-1.795,2.118-3.045.678-1.917,1.993-3.165,1.942-.59,3.258-1.84,1.2-1.375,2.517-2.626,1.576-.979,2.894-2.23.361-2.259,1.679-3.51,3.091.611,4.411-.643.91-1.685,2.23-2.939" style="fill: none; stroke: #000; stroke-linecap: round; stroke-linejoin: round; stroke-width: 40px;"/>
</svg>