<?xml version="1.0" encoding="UTF-8"?>
<svg id="Small" xmlns="http://www.w3.org/2000/svg" width="400" height="400" viewBox="0 0 400 400">
  <path d="M284.527,162.366c0,1.268-1.378,2.512-1.417,3.77-.039,1.267-.305,2.497-.383,3.753-.078,1.265.079,2.522-.038,3.776-.118,1.261-.872,2.422-1.028,3.672-.157,1.257,1.629,2.778,1.433,4.023-.197,1.251-1.679,2.282-1.913,3.52-.236,1.244-1.454,2.251-1.728,3.482s.708,2.743.395,3.964c-.314,1.226-.583,2.458-.934,3.669s.638,2.862.248,4.061-2.302,1.902-2.73,3.089-1.618,2.069-2.083,3.241-.246,2.611-.748,3.768-2.012,1.835-2.55,2.976-.819,2.369-1.392,3.493c-.575,1.126.85,3.313.241,4.418s-1.104,2.325-1.748,3.41-1.926,1.819-2.603,2.884c-.678,1.066-2.504,1.375-3.215,2.418-.711,1.044-.235,2.925-.978,3.946s-2.186,1.53-2.961,2.527-1.004,2.444-1.81,3.416c-.806.973-2.161,1.488-2.996,2.435-.836.947-1.476,2.076-2.34,2.996s-2.277,1.304-3.17,2.197c-.893.893-1.732,1.82-2.653,2.685s-1.221,2.412-2.168,3.247-2.966.401-3.939,1.207-1.56,2.049-2.558,2.824-1.207,2.604-2.228,3.347-2.813.398-3.858,1.109-2.582.613-3.649,1.291-.784,3.539-1.871,4.183-2.616.558-3.723,1.168-2.484.706-3.61,1.281c-1.123.574-2.671.235-3.814.774s-1.245,3.376-2.405,3.879-3.323-1.425-4.499-.959-1.636,2.782-2.826,3.21c-1.186.427-3.076-1.233-4.279-.842s-1.633,3.256-2.848,3.609-2.739-.381-3.964-.067-2.417.757-3.652,1.032-2.275,1.569-3.519,1.805c-1.238.235-2.704-.707-3.954-.511-1.244.195-2.542.007-3.798.165-1.25.156-2.423,1.076-3.684,1.194-1.254.117-2.477,1.03-3.742,1.108-1.257.078-2.603-1.299-3.87-1.26-1.258.039-2.517,1.471-3.784,1.471s-2.516-1.764-3.774-1.802c-1.267-.039-2.484-.583-3.74-.661-1.265-.078-2.641,1.399-3.895,1.282-1.261-.118-2.284-2.277-3.533-2.433-1.257-.157-2.78,1.685-4.024,1.489-1.251-.197-2.27-1.709-3.508-1.943s-2.371-.887-3.601-1.161c-1.236-.275-2.437-.533-3.659-.846-1.226-.314-2.922,1.121-4.133.77-1.215-.353-2.528-.477-3.727-.867-1.203-.391-1.972-2.08-3.158-2.507s-2.374-.84-3.547-1.305c-1.176-.466-2.431-.722-3.588-1.224s-1.912-1.866-3.053-2.403-3.353,1.078-4.476.504c-1.126-.575-1.8-2.062-2.905-2.671s-2.294-1.112-3.379-1.755-1.653-2.143-2.718-2.82-1.799-1.825-2.842-2.536c-1.044-.711-3.409.441-4.429-.302-1.021-.743-1.393-2.394-2.389-3.168-.998-.775-1.249-2.464-2.221-3.27-.973-.806-2.248-1.228-3.194-2.063s-1.113-2.486-2.033-3.35c-.92-.865-3.522.016-4.415-.877s-.146-3.368-1.011-4.288-2.692-.938-3.528-1.885-.605-2.778-1.411-3.751-1.989-1.599-2.764-2.597c-.774-.997-1.359-2.103-2.102-3.124s-1.972-1.673-2.683-2.718-2.564-1.348-3.242-2.414-1.474-2.098-2.118-3.185-.082-2.878-.692-3.985-.821-2.407-1.396-3.533-.547-2.51-1.086-3.653c-.538-1.141-2.12-1.787-2.623-2.947s.041-2.727-.425-3.902c-.464-1.172-2.85-1.614-3.278-2.804-.427-1.186-1.419-2.22-1.81-3.423s-.444-2.546-.797-3.761-.237-2.58-.55-3.806c-.313-1.221.711-2.764.436-3.999s-1.391-2.281-1.627-3.524,1.089-2.73.893-3.981c-.195-1.244-1.261-2.34-1.418-3.596-.156-1.25-1.549-2.373-1.666-3.635-.117-1.254-.191-2.539-.27-3.803-.078-1.257.2-2.553.161-3.819-.039-1.258-.01-2.534-.01-3.802s1.842-2.486,1.881-3.744c.039-1.267-1.609-2.589-1.532-3.846.078-1.265-.812-2.624-.695-3.878.118-1.261.62-2.511.776-3.761.157-1.257,2.429-2.206,2.625-3.451.197-1.251-.1-2.554.135-3.792s.65-2.423.924-3.653,1.082-2.304,1.394-3.525c.314-1.226-.645-2.773-.294-3.984s1.605-2.134,1.994-3.333c.391-1.203.239-2.567.666-3.753s1.181-2.236,1.646-3.408,1.36-2.139,1.862-3.296-1.42-3.42-.882-4.561,1.898-1.92,2.472-3.043.586-2.583,1.195-3.688,3.236-1.065,3.879-2.15-.394-3.206.283-4.271,1.747-1.902,2.458-2.946,1.043-2.385,1.786-3.406c.743-1.021,3.177-.771,3.951-1.768s1.004-2.404,1.809-3.377c.806-.973.473-2.935,1.308-3.882s2.678-.998,3.543-1.919,2.678-.886,3.571-1.779,1.18-2.363,2.101-3.228,1.244-2.376,2.191-3.212c.947-.835,1.718-1.897,2.691-2.702.972-.805,1.772-1.863,2.77-2.637s2.39-1.053,3.412-1.797,2.421-.944,3.466-1.655c1.043-.71,2.628-.55,3.694-1.228s.902-3.345,1.989-3.989,2.94.042,4.047-.568,2.352-.906,3.478-1.481,1.766-2.11,2.909-2.649c1.141-.538,2.3-1.058,3.46-1.561s2.527-.494,3.702-.96c1.172-.464,2.346-.903,3.536-1.331s2.043-1.848,3.245-2.238c1.199-.389,2.722.241,3.937-.111,1.21-.351,2.239-1.39,3.465-1.704s2.433-.745,3.669-1.02c1.23-.274,2.402-.973,3.645-1.209s2.733.935,3.984.738c1.244-.195,2.553.19,3.81.033,1.25-.156,2.462-.449,3.723-.567,1.254-.117,2.417-1.372,3.682-1.451,1.257-.078,2.573,1.235,3.84,1.196,1.258-.039,2.491.397,3.759.397s2.523-1.16,3.781-1.121c1.267.039,2.502.401,3.758.479,1.265.078,2.544-.222,3.797-.105,1.261.118,2.368,1.401,3.618,1.557,1.257.157,2.572-.345,3.816-.149,1.251.197,2.448.556,3.686.791,1.244.236,2.663-.439,3.893-.166,1.236.275,2.358,1.004,3.579,1.317,1.226.314,2.819-.676,4.03-.325,1.215.353,2.034,2.032,3.233,2.421s2.039,1.772,3.225,2.199,2.393.71,3.565,1.174c1.176.466,3.008-.677,4.165-.176s1.884,1.973,3.025,2.511c1.144.539,3.054-.455,4.177.119s1.38,2.816,2.485,3.425,1.929,1.665,3.015,2.309,2.528.67,3.593,1.347,2.807.348,3.85,1.058c1.044.711,2.151,1.385,3.171,2.128s1.889,1.736,2.886,2.51,2.01,1.567,2.982,2.373.934,2.792,1.881,3.628,1.877,1.653,2.798,2.517c.92.865,1.459,2.078,2.352,2.97.893.893,3.071.525,3.935,1.445s1.12,2.402,1.955,3.349,1.939,1.661,2.745,2.634c.805.972,1.859,1.757,2.634,2.754s.094,3.071.837,4.092c.743,1.02,1.583,1.925,2.294,2.969s1.666,1.888,2.344,2.954,3.138,1.043,3.782,2.131c.643,1.085-.194,3.034.416,4.141s1.198,2.206,1.773,3.332.379,2.596.918,3.74c.538,1.141,1.478,2.066,1.98,3.227s2.688,1.622,3.154,2.798c.464,1.172.739,2.451,1.167,3.641.427,1.186.08,2.655.471,3.858.389,1.199,1.472,2.201,1.824,3.416s.567,2.485.881,3.711,1.254,2.327,1.529,3.562-.586,2.721-.351,3.965-1.028,2.72-.831,3.971c.195,1.244,2.627,2.171,2.784,3.427.156,1.25-.529,2.613-.411,3.874.117,1.254.015,2.53.093,3.794.078,1.257.227,2.514.266,3.78.039,1.258.789,2.522.789,3.79ZM356.852,358.752c-1.342-1.342-.381-2.302-1.723-3.644s-1.194-1.489-2.536-2.831c-1.341-1.341-1.521-1.161-2.862-2.502s-.9-1.782-2.24-3.122-2.742.06-4.083-1.28c-1.341-1.341-.433-2.249-1.774-3.591s-.642-2.042-1.984-3.384c-1.342-1.342-2.266-.418-3.608-1.76s-1.387-1.295-2.728-2.636c-1.341-1.341-2.353-.33-3.694-1.671s-.223-2.461-1.564-3.802c-1.343-1.343-.776-1.91-2.118-3.253-1.342-1.342-1.874-.809-3.216-2.151s-.566-2.117-1.907-3.459-1.547-1.137-2.889-2.48-2.958.273-4.3-1.07-1.466-1.218-2.807-2.56-.841-1.844-2.183-3.186-.384-2.301-1.726-3.644-2.383-.301-3.725-1.643-.743-1.942-2.086-3.285c-1.34-1.34-1.853-.826-3.193-2.166-1.342-1.342-.85-1.834-2.192-3.176s-1.544-1.139-2.886-2.481c-1.341-1.341-.812-1.869-2.152-3.21-1.341-1.341-1.399-1.284-2.741-2.625-1.343-1.343-2.009-.677-3.352-2.02s-.18-2.503-1.522-3.844c-1.343-1.343-1.769-.917-3.112-2.26s-2.287-.397-3.63-1.74c-1.344-1.344-.414-2.273-1.758-3.616s-.687-1.999-2.03-3.341-3.172.485-4.515-.858-.755-1.933-2.099-3.277-.945-1.737-2.286-3.079-.646-2.04-1.989-3.383-3.143.454-4.488-.89c-1.345-1.345.5-3.19-.844-4.534-1.345-1.345-2.762.072-4.107-1.273s.197-2.891-1.151-4.238c-1.347-1.347-3.195.501-4.542-.846" style="fill: #fff;"/>
  <path d="M284.527,162.366c0,1.268-1.378,2.512-1.417,3.77-.039,1.267-.305,2.497-.383,3.753-.078,1.265.079,2.522-.038,3.776-.118,1.261-.872,2.422-1.028,3.672-.157,1.257,1.629,2.778,1.433,4.023-.197,1.251-1.679,2.282-1.913,3.52-.236,1.244-1.454,2.251-1.728,3.482s.708,2.743.395,3.964c-.314,1.226-.583,2.458-.934,3.669s.638,2.862.248,4.061-2.302,1.902-2.73,3.089-1.618,2.069-2.083,3.241-.246,2.611-.748,3.768-2.012,1.835-2.55,2.976-.819,2.369-1.392,3.493c-.575,1.126.85,3.313.241,4.418s-1.104,2.325-1.748,3.41-1.926,1.819-2.603,2.884c-.678,1.066-2.504,1.375-3.215,2.418-.711,1.044-.235,2.925-.978,3.946s-2.186,1.53-2.961,2.527-1.004,2.444-1.81,3.416c-.806.973-2.161,1.488-2.996,2.435-.836.947-1.476,2.076-2.34,2.996s-2.277,1.304-3.17,2.197c-.893.893-1.732,1.82-2.653,2.685s-1.221,2.412-2.168,3.247-2.966.401-3.939,1.207-1.56,2.049-2.558,2.824-1.207,2.604-2.228,3.347-2.813.398-3.858,1.109-2.582.613-3.649,1.291-.784,3.539-1.871,4.183-2.616.558-3.723,1.168-2.484.706-3.61,1.281c-1.123.574-2.671.235-3.814.774s-1.245,3.376-2.405,3.879-3.323-1.425-4.499-.959-1.636,2.782-2.826,3.21c-1.186.427-3.076-1.233-4.279-.842s-1.633,3.256-2.848,3.609-2.739-.381-3.964-.067-2.417.757-3.652,1.032-2.275,1.569-3.519,1.805c-1.238.235-2.704-.707-3.954-.511-1.244.195-2.542.007-3.798.165-1.25.156-2.423,1.076-3.684,1.194-1.254.117-2.477,1.03-3.742,1.108-1.257.078-2.603-1.299-3.87-1.26-1.258.039-2.517,1.471-3.784,1.471s-2.516-1.764-3.774-1.802c-1.267-.039-2.484-.583-3.74-.661-1.265-.078-2.641,1.399-3.895,1.282-1.261-.118-2.284-2.277-3.533-2.433-1.257-.157-2.78,1.685-4.024,1.489-1.251-.197-2.27-1.709-3.508-1.943s-2.371-.887-3.601-1.161c-1.236-.275-2.437-.533-3.659-.846-1.226-.314-2.922,1.121-4.133.77-1.215-.353-2.528-.477-3.727-.867-1.203-.391-1.972-2.08-3.158-2.507s-2.374-.84-3.547-1.305c-1.176-.466-2.431-.722-3.588-1.224s-1.912-1.866-3.053-2.403-3.353,1.078-4.476.504c-1.126-.575-1.8-2.062-2.905-2.671s-2.294-1.112-3.379-1.755-1.653-2.143-2.718-2.82-1.799-1.825-2.842-2.536c-1.044-.711-3.409.441-4.429-.302-1.021-.743-1.393-2.394-2.389-3.168-.998-.775-1.249-2.464-2.221-3.27-.973-.806-2.248-1.228-3.194-2.063s-1.113-2.486-2.033-3.35c-.92-.865-3.522.016-4.415-.877s-.146-3.368-1.011-4.288-2.692-.938-3.528-1.885-.605-2.778-1.411-3.751-1.989-1.599-2.764-2.597c-.774-.997-1.359-2.103-2.102-3.124s-1.972-1.673-2.683-2.718-2.564-1.348-3.242-2.414-1.474-2.098-2.118-3.185-.082-2.878-.692-3.985-.821-2.407-1.396-3.533-.547-2.51-1.086-3.653c-.538-1.141-2.12-1.787-2.623-2.947s.041-2.727-.425-3.902c-.464-1.172-2.85-1.614-3.278-2.804-.427-1.186-1.419-2.22-1.81-3.423s-.444-2.546-.797-3.761-.237-2.58-.55-3.806c-.313-1.221.711-2.764.436-3.999s-1.391-2.281-1.627-3.524,1.089-2.73.893-3.981c-.195-1.244-1.261-2.34-1.418-3.596-.156-1.25-1.549-2.373-1.666-3.635-.117-1.254-.191-2.539-.27-3.803-.078-1.257.2-2.553.161-3.819-.039-1.258-.01-2.534-.01-3.802s1.842-2.486,1.881-3.744c.039-1.267-1.609-2.589-1.532-3.846.078-1.265-.812-2.624-.695-3.878.118-1.261.62-2.511.776-3.761.157-1.257,2.429-2.206,2.625-3.451.197-1.251-.1-2.554.135-3.792s.65-2.423.924-3.653,1.082-2.304,1.394-3.525c.314-1.226-.645-2.773-.294-3.984s1.605-2.134,1.994-3.333c.391-1.203.239-2.567.666-3.753s1.181-2.236,1.646-3.408,1.36-2.139,1.862-3.296-1.42-3.42-.882-4.561,1.898-1.92,2.472-3.043.586-2.583,1.195-3.688,3.236-1.065,3.879-2.15-.394-3.206.283-4.271,1.747-1.902,2.458-2.946,1.043-2.385,1.786-3.406c.743-1.021,3.177-.771,3.951-1.768s1.004-2.404,1.809-3.377c.806-.973.473-2.935,1.308-3.882s2.678-.998,3.543-1.919,2.678-.886,3.571-1.779,1.18-2.363,2.101-3.228,1.244-2.376,2.191-3.212c.947-.835,1.718-1.897,2.691-2.702.972-.805,1.772-1.863,2.77-2.637s2.39-1.053,3.412-1.797,2.421-.944,3.466-1.655c1.043-.71,2.628-.55,3.694-1.228s.902-3.345,1.989-3.989,2.94.042,4.047-.568,2.352-.906,3.478-1.481,1.766-2.11,2.909-2.649c1.141-.538,2.3-1.058,3.46-1.561s2.527-.494,3.702-.96c1.172-.464,2.346-.903,3.536-1.331s2.043-1.848,3.245-2.238c1.199-.389,2.722.241,3.937-.111,1.21-.351,2.239-1.39,3.465-1.704s2.433-.745,3.669-1.02c1.23-.274,2.402-.973,3.645-1.209s2.733.935,3.984.738c1.244-.195,2.553.19,3.81.033,1.25-.156,2.462-.449,3.723-.567,1.254-.117,2.417-1.372,3.682-1.451,1.257-.078,2.573,1.235,3.84,1.196,1.258-.039,2.491.397,3.759.397s2.523-1.16,3.781-1.121c1.267.039,2.502.401,3.758.479,1.265.078,2.544-.222,3.797-.105,1.261.118,2.368,1.401,3.618,1.557,1.257.157,2.572-.345,3.816-.149,1.251.197,2.448.556,3.686.791,1.244.236,2.663-.439,3.893-.166,1.236.275,2.358,1.004,3.579,1.317,1.226.314,2.819-.676,4.03-.325,1.215.353,2.034,2.032,3.233,2.421s2.039,1.772,3.225,2.199,2.393.71,3.565,1.174c1.176.466,3.008-.677,4.165-.176s1.884,1.973,3.025,2.511c1.144.539,3.054-.455,4.177.119s1.38,2.816,2.485,3.425,1.929,1.665,3.015,2.309,2.528.67,3.593,1.347,2.807.348,3.85,1.058c1.044.711,2.151,1.385,3.171,2.128s1.889,1.736,2.886,2.51,2.01,1.567,2.982,2.373.934,2.792,1.881,3.628,1.877,1.653,2.798,2.517c.92.865,1.459,2.078,2.352,2.97.893.893,3.071.525,3.935,1.445s1.12,2.402,1.955,3.349,1.939,1.661,2.745,2.634c.805.972,1.859,1.757,2.634,2.754s.094,3.071.837,4.092c.743,1.02,1.583,1.925,2.294,2.969s1.666,1.888,2.344,2.954,3.138,1.043,3.782,2.131c.643,1.085-.194,3.034.416,4.141s1.198,2.206,1.773,3.332.379,2.596.918,3.74c.538,1.141,1.478,2.066,1.98,3.227s2.688,1.622,3.154,2.798c.464,1.172.739,2.451,1.167,3.641.427,1.186.08,2.655.471,3.858.389,1.199,1.472,2.201,1.824,3.416s.567,2.485.881,3.711,1.254,2.327,1.529,3.562-.586,2.721-.351,3.965-1.028,2.72-.831,3.971c.195,1.244,2.627,2.171,2.784,3.427.156,1.25-.529,2.613-.411,3.874.117,1.254.015,2.53.093,3.794.078,1.257.227,2.514.266,3.78.039,1.258.789,2.522.789,3.79ZM356.852,358.752c-1.342-1.342-.381-2.302-1.723-3.644s-1.194-1.489-2.536-2.831c-1.341-1.341-1.521-1.161-2.862-2.502s-.9-1.782-2.24-3.122-2.742.06-4.083-1.28c-1.341-1.341-.433-2.249-1.774-3.591s-.642-2.042-1.984-3.384c-1.342-1.342-2.266-.418-3.608-1.76s-1.387-1.295-2.728-2.636c-1.341-1.341-2.353-.33-3.694-1.671s-.223-2.461-1.564-3.802c-1.343-1.343-.776-1.91-2.118-3.253-1.342-1.342-1.874-.809-3.216-2.151s-.566-2.117-1.907-3.459-1.547-1.137-2.889-2.48-2.958.273-4.3-1.07-1.466-1.218-2.807-2.56-.841-1.844-2.183-3.186-.384-2.301-1.726-3.644-2.383-.301-3.725-1.643-.743-1.942-2.086-3.285c-1.34-1.34-1.853-.826-3.193-2.166-1.342-1.342-.85-1.834-2.192-3.176s-1.544-1.139-2.886-2.481c-1.341-1.341-.812-1.869-2.152-3.21-1.341-1.341-1.399-1.284-2.741-2.625-1.343-1.343-2.009-.677-3.352-2.02s-.18-2.503-1.522-3.844c-1.343-1.343-1.769-.917-3.112-2.26s-2.287-.397-3.63-1.74c-1.344-1.344-.414-2.273-1.758-3.616s-.687-1.999-2.03-3.341-3.172.485-4.515-.858-.755-1.933-2.099-3.277-.945-1.737-2.286-3.079-.646-2.04-1.989-3.383-3.143.454-4.488-.89c-1.345-1.345.5-3.19-.844-4.534-1.345-1.345-2.762.072-4.107-1.273s.197-2.891-1.151-4.238c-1.347-1.347-3.195.501-4.542-.846" style="fill: none; stroke: #000; stroke-linecap: round; stroke-miterlimit: 10; stroke-width: 15px;"/>
</svg>