<?xml version="1.0" encoding="UTF-8"?>
<svg id="Website_Icons" data-name="Website Icons" xmlns="http://www.w3.org/2000/svg" width="512" height="512" viewBox="0 0 512 512">
  <g>
    <polygon points="247.842 48.608 248.049 50.099 249.909 50.657 250.506 51.93 249.954 53.856 252.072 54.275 254.143 54.718 253.451 56.722 253.591 58.253 253.56 59.882 253.991 61.252 254.535 62.56 256.122 63.279 258.321 63.65 256.085 66.528 257.699 67.229 257.253 69.099 257.959 70.316 261.037 70.191 259.121 72.891 261.912 72.93 263.988 73.373 261.503 76.397 265.027 76.015 263.97 78.231 263.275 80.24 264.375 81.232 265.218 82.376 267.514 82.695 266.376 84.959 268.743 85.242 269.589 86.383 269.635 87.979 269.869 89.473 271.685 88.993 271.441 88.197 272.027 86.858 274.204 86.862 274.97 85.671 275.039 83.887 277.014 83.717 279.061 83.61 277.012 80.04 281.018 81.591 282.023 80.602 281.529 78.343 283.099 77.827 284.746 77.38 282.842 73.93 283.75 72.857 287.486 74.174 286.43 71.438 288.289 71.168 288.211 69.26 288.367 67.546 290.954 67.897 292.921 67.725 290.716 64.023 293.138 64.224 295.973 64.779 296.039 62.993 297.861 62.685 296.695 59.854 296.333 57.7 300.002 58.962 300.537 57.565 302.159 57.085 300.339 53.687 303.082 54.149 305.164 54.153 303.114 50.319 305.931 51.103 307.742 51.033 308.665 50.038 307.932 46.922 308.95 45.852 310.542 45.596 311.02 43.648 313.133 44.344 314.793 44.441 316.501 44.79 316.146 40.553 319.138 44.124 319.885 42.193 321.592 43.023 321.934 39.01 323.405 38.779 324.876 38.587 326.916 42.403 327.741 37.599 329.388 39.729 330.728 37.366 332.218 38.866 333.533 42 334.884 41.783 336.434 40.018 338.202 37.717 338.819 42.61 340.945 39.173 341.417 43.204 343.472 40.952 344.801 41.473 346.515 40.95 347.197 43.126 348.477 43.689 350.203 43.354 350.869 45.143 353.008 44.236 354.498 44.597 355.754 45.364 356.496 46.84 356.124 49.644 357.502 50.117 360.703 48.647 359.946 51.551 361.681 51.828 364.121 51.585 361.579 55.617 362.731 56.422 364.552 56.796 367.065 56.834 368.348 57.788 365.833 60.87 366.172 62.219 368.87 62.478 369.715 63.683 369.65 65.245 368.247 67.188 369.516 68.233 368.341 69.937 371.552 70.644 372.837 71.891 370.763 73.636 373.511 74.788 371.719 76.368 372.817 77.764 369.33 79.163 369.337 80.5 371.986 82.061 373.568 83.68 372.339 84.949 371.62 86.276 372.709 87.812 369.976 88.914 368.717 90.187 369.253 91.662 371.996 93.387 371.824 94.779 369.403 95.915 368.87 97.267 368.028 98.587 368.289 100.033 371.74 101.841 370.7 103.136 370.27 104.501 366.682 105.509 366.895 106.95 370.746 108.804 369.653 110.095 368.629 111.396 367.72 112.709 369.023 114.275 366.421 115.395 369.279 117.14 367.995 118.408 366.136 119.61 367.629 121.199 367.897 122.646 364.873 123.72 367.581 125.449 368.119 126.929 365.761 128.081 365.189 129.44 367.369 129.531 367.415 130.507 369.087 131.444 370.705 132.154 371.739 130.473 372.439 127.418 373.988 127.836 375.475 128.009 376.489 126.255 378.391 128.122 380.264 129.865 381.259 128.02 382.768 128.262 383.304 124.548 385.45 127.398 386.879 127.328 388.249 127.003 388.945 123.934 390.055 122.558 391.534 122.679 393.435 124.518 394.151 121.529 395.769 122.215 397.869 124.865 399.106 123.997 399.859 121.168 401.759 123.015 403.145 122.747 404.002 120.332 405.919 122.23 407.351 122.142 408.303 120.11 409.428 118.768 411.225 120.155 413.018 121.526 414.376 121.408 415.332 119.093 416.449 116.925 418.3 120.25 419.645 120.016 420.89 116.931 422.367 120.731 423.728 119.868 425.168 118.81 426.835 116.459 427.934 119.276 429.47 118.652 431.279 117.121 431.949 120.448 432.836 122.276 434.643 121.121 437.102 118.652 437.518 121.474 438.026 123.686 440.361 122.152 440.097 125.492 443.82 122.052 442.836 126.179 444.702 125.936 447.337 124.872 446.731 127.888 446.581 130.122 450.505 128.029 450.872 129.725 452.433 130.28 452.508 132.132 453.231 133.389 454.201 134.452 456.263 134.805 456.842 136.192 454.382 139.292 456.697 139.602 455.703 141.65 455.81 143.079 459.751 142.945 457.492 145.309 459.145 146.208 460.027 147.418 461.886 148.427 459.898 150.345 460.638 151.632 459.161 153.249 459.867 154.535 460.909 155.844 458.932 157.289 461.899 158.661 460.833 160.043 459.12 161.291 462.553 163.082 458.924 163.968 459.78 165.515 460.958 167.233 460.256 168.532 460.918 170.255 460.152 171.541 459.252 172.749 459.844 174.612 456.515 174.606 454.921 175.307 456.731 177.958 456.108 179.279 455.164 180.393 454.464 181.678 450.791 180.589 452.06 183.444 452.567 185.847 449.659 185.08 447.507 185.007 446.958 186.407 447.103 188.445 444.807 188.25 445.54 190.828 443.259 190.64 441.461 190.894 443.681 194.832 441.252 194.51 438.831 194.198 438.187 195.518 437.992 197.245 437.077 198.312 436.868 200.027 434.526 199.789 433.069 200.363 434.648 203.718 431.838 203.05 430.653 203.875 430.856 205.964 430.469 207.51 428.433 207.548 426.701 207.873 428.051 211.018 427.383 212.314 426.83 213.722 426.127 214.989 422.561 213.635 421.438 214.512 420.122 215.222 420.806 217.767 419.687 218.666 417.326 219.816 420.109 219.448 420.739 221.612 422.82 220.226 424.27 220.389 425.354 221.458 427.072 220.968 426.971 224.925 429.727 221.889 430.473 223.77 431.14 225.849 433.509 223.77 434.867 224.167 435.473 226.4 436.41 227.821 437.604 228.613 438.442 230.284 440.061 230.041 441.918 229.215 443.99 227.862 445.041 229.015 446.461 229.258 447.897 229.467 447.969 233.016 449.022 234.161 451.053 232.906 451.861 234.645 453.287 234.883 455.449 233.312 455.945 235.824 458.481 233.349 458.211 237.735 459.628 238.001 462.453 234.828 463.023 237.172 464.916 236.453 464.495 240.708 465.904 240.926 467.303 241.222 469.456 240.354 469.232 243.273 471.698 242.159 472.127 243.933 473.539 244.407 475.437 244.406 475.141 246.785 477.567 246.384 477.12 248.714 479.983 248.168 478.264 251.313 481.913 250.428 482.943 251.533 480.693 254.59 482.553 255.136 484.32 255.843 485.86 256.755 482.589 259.683 483.553 260.764 485.65 261.526 484.963 263.199 484.06 264.843 488.545 265.294 486.285 267.186 488.674 268.284 484.751 270.147 486.992 271.346 489.648 272.685 485.895 274.154 488.199 275.622 487.511 277.022 488.871 278.612 486.809 279.806 488.531 281.557 487.243 282.795 485.428 283.828 487.121 285.775 486.977 287.276 487.025 288.873 485.637 289.927 482.4 290.076 481.018 290.916 483.857 293.972 480.611 293.77 481.725 296.109 479.082 296.038 480.861 299.082 476.879 297.766 479.042 301.438 478.307 302.793 476.808 303.413 476.191 304.934 472.509 302.901 473.435 306.293 470.534 304.793 470.253 306.838 467.715 305.419 467.486 307.72 465.625 307.161 465.659 310.407 463.738 309.607 463.248 312.233 460.649 309.242 460.383 312.974 458.741 312.529 457.386 313.058 455.974 313.371 454.227 311.803 453.371 314.625 451.726 313.575 449.835 311.323 448.799 313.289 447.659 314.732 445.731 312.297 444.998 315.729 443.225 314.049 441.988 315.012 440.228 313.411 439.721 317.983 438.053 316.832 436.827 317.85 435 315.919 433.304 314.64 432.143 315.996 431.304 318.924 429.787 318.524 428.68 320.149 426.633 317.142 425.65 319.38 424.103 318.835 423.244 321.68 421.762 321.444 419.779 318.748 418.956 321.773 417.185 320.13 415.759 320.188 414.532 321.239 412.96 320.578 411.331 319.655 410.551 322.918 408.75 321.98 411.161 322.327 409.526 324.988 410.872 325.803 413.127 326.059 413.881 327.247 412.214 329.933 414.114 330.406 415.32 331.309 417.531 331.589 418.393 332.707 416.477 335.548 419.818 335.134 418.168 337.809 418.451 339.286 421.695 338.929 419.498 341.946 420.118 343.218 420.232 344.801 423.785 344.255 422.993 346.403 426.339 345.985 427.204 347.106 425.417 349.863 428.152 349.826 429.293 350.772 428.654 352.822 427.927 354.932 429.439 355.652 430.152 356.869 431.348 357.789 430.3 360.096 434.38 359.229 435.391 360.268 432.25 363.88 434.039 364.404 436.592 364.614 437.223 365.928 438.07 367.144 435.552 369.756 439.184 369.857 437.181 372.057 440.198 372.618 439.213 374.38 439.195 375.835 441.716 376.834 438.182 378.806 438.888 380.097 441.14 381.348 438.328 382.85 437.977 384.188 439.31 385.601 439.428 387.004 437.554 388.157 441.404 390.174 440.899 391.582 437.837 392.333 438.552 393.967 436.195 394.674 436.862 396.348 435.562 397.305 438.425 400.088 435.469 400.272 436.314 402.313 434.717 403.055 432.432 403.278 431.222 404.085 432.814 406.916 429.877 406.415 432.029 410.007 430.166 410.309 427.56 409.772 428.383 412.599 426.042 412.149 425.752 413.961 425.009 415.325 424.528 417.128 421.095 414.658 422.181 418.974 419.727 417.683 418.951 419.24 416.699 417.878 416.786 421.505 415.462 422.201 413.787 421.927 412.056 421.269 410.513 420.989 409.438 422.54 408.199 423.731 406.74 423.942 405.203 423.431 403.771 423.668 402.222 420.768 400.884 421.283 399.388 424.654 398.078 422.396 396.545 423.441 395.211 422.598 394.099 420.848 392.835 420.247 391.651 419.425 389.431 422.119 387.713 422.66 387.084 420.138 386.297 418.353 384.529 418.929 382.637 419.705 381.702 418.377 380.414 417.822 378.848 417.872 377.186 418.124 377.041 415.055 375.184 415.747 374.826 413.15 372.31 415.287 371.786 413.053 371.359 410.6 368.755 412.919 368.566 409.945 367.543 408.802 364.259 412.619 364.379 408.963 362.361 409.996 360.663 410.332 360.225 407.9 359.036 407.113 358.009 405.973 357.115 404.538 355.901 403.807 353.775 405.076 353.067 403.241 351.878 402.461 349.606 404.045 349.008 401.964 346.867 403.263 345.755 402.299 345.003 400.553 344.281 398.731 342.386 399.478 340.647 398.908 340.922 400.741 338.875 401.995 339.394 403.44 341.19 404.98 339.67 406.279 342.115 407.868 340.166 409.132 338.6 410.423 339.887 411.924 338.93 413.261 340.669 414.799 342.042 416.312 339.071 417.502 339.037 418.908 340.599 420.432 339.739 421.78 336.912 422.983 337.287 424.42 340.287 426.052 337.745 427.277 338.708 428.759 337.43 430.077 340.214 431.694 336.083 432.803 337.784 434.337 337.085 435.695 335.83 437.016 335.679 438.416 337.547 439.967 338.904 441.482 339.609 442.947 337.586 444.214 336.653 445.564 335.721 446.914 335.123 448.222 338.304 450.026 337.703 451.402 334.341 452.178 334.284 453.541 337.364 455.811 333.325 456.055 336.538 458.641 334.28 459.317 333.009 460.287 334.964 462.792 333.101 463.468 329.91 463.241 333.014 466.821 329.791 466.388 329.676 468.038 328.177 468.642 327.136 469.574 328.302 472.598 324.917 471.25 324.682 473.028 323.795 474.16 322.935 475.362 322.204 476.798 321.125 477.806 320.054 478.858 318.479 479.072 317.318 479.988 316.486 481.637 314.257 480.272 312.489 479.667 311.033 479.694 309.942 480.768 309.389 483.951 307.591 482.846 306.148 482.949 304.336 480.817 303.01 481.035 301.77 482.134 300.329 481.2 299.098 484.778 297.641 483.425 296.271 482.298 294.889 482.337 293.171 485.309 292.282 481.115 290.691 482.323 289.619 480.706 287.261 484.401 286.759 480.867 285.367 480.677 283.404 481.915 282.02 481.446 281.049 480.084 280.855 477.367 279.168 477.621 276.983 478.525 274.988 478.888 274.463 477.062 273.358 476.109 271.718 475.791 271.928 473.373 271.342 471.961 271.158 470.229 267.229 471.864 269.347 468.222 267.722 467.752 266.991 466.567 265.967 465.58 266.048 463.894 264.432 463.237 263.487 462.163 260.931 461.999 260.107 460.854 260.177 459.201 262.483 456.28 260.416 455.835 257.983 455.599 260.524 452.55 259.178 451.7 257.328 451.133 257.868 449.212 257.298 447.918 256.534 446.735 252.929 447.161 253.603 445.165 252.945 443.92 253.579 441.945 251.598 441.45 252.377 439.393 251.687 438.165 251.218 436.814 250.336 435.694 248 435.404 249.151 433.134 247.054 432.705 245.185 432.148 246.444 429.815 245.867 428.523 245.128 427.321 244.031 426.32 242.371 425.64 242.658 423.855 239.162 424.206 240.197 424.161 240.213 423.51 238.684 424.052 237.357 424.766 237.411 426.651 236.896 428.058 235.513 428.729 233.579 428.931 233.437 430.649 232.538 431.725 231.933 433.052 232.145 435.072 228.491 433.826 230.09 437.019 229.62 438.461 225.311 436.658 227.026 439.951 226.54 441.382 225.296 442.172 223.174 442.22 223.459 444.306 220.174 443.365 221.544 446.359 217.713 444.958 217.858 446.926 218.773 449.542 217.63 450.418 214.826 449.895 215.442 452.262 215.392 454.067 213.393 454.217 210.495 453.616 209.69 454.788 211.145 457.877 207.653 456.781 210.226 460.905 207.624 460.465 205.729 460.547 204.987 461.771 205.952 465.057 204.967 466.221 203.782 467.151 201.079 465.843 200.124 466.978 199.702 469.115 197.599 468.307 196.164 468.604 194.527 468.367 192.931 468.054 192.315 470.39 191.253 471.775 189.589 471.159 187.98 470.436 186.621 470.648 185.306 471.144 183.992 471.872 182.57 471.654 181.137 470.361 179.786 472.307 178.417 471.214 176.992 471.828 175.785 470.044 174.275 471.085 172.563 472.726 171.747 469.7 169.867 471.571 168.235 472.04 167.665 469.129 165.077 472.147 164.366 469.934 162.697 470.135 161.696 468.849 161.284 466.574 159.059 467.65 158.782 465.375 157.17 465.28 157.068 463.027 154.529 464.063 153.987 462.485 152.658 461.86 150.431 462.107 152.41 458.186 148.02 460.291 147.977 458.387 148.481 456.176 145.744 456.402 147.218 453.686 144.672 453.604 145.158 451.681 144.88 450.253 144.37 448.962 143.533 447.81 143.759 446.244 142.012 445.37 141.811 443.955 141.306 442.627 143.09 440.826 138.934 440.146 140.439 438.464 138.016 437.255 139.526 435.672 139.538 434.229 140.357 432.801 138.749 431.309 138.31 429.8 139.662 428.46 142.666 427.394 142.049 425.914 139.906 424.258 141.213 422.993 143.412 421.828 143.505 420.424 142.336 418.879 142.764 417.516 140.138 415.804 140.569 414.441 143.378 413.346 143.782 411.975 140.698 410.209 143.279 409.09 140.868 407.4 143.325 406.264 144.637 404.997 142.774 403.37 145.778 402.296 142.732 400.531 143.818 399.239 144.01 397.843 143.481 396.365 143.106 394.904 146.293 393.853 143.181 392.084 145.247 390.901 146.124 389.584 145.622 388.108 146.6 386.799 146.623 385.384 144.358 383.704 144.184 382.26 146.238 380.671 144.89 382.735 143.629 383.475 141.518 380.756 140.887 384.081 139.51 384.374 138.299 385.335 136.826 385.22 134.966 383.524 133.823 384.752 131.794 382.371 131.506 387.101 129.658 385.475 127.753 383.606 126.335 383.724 125.164 384.848 123.525 384.075 122.36 385.233 121.301 386.815 120.116 387.892 118.396 386.792 117.285 388.168 115.592 387.182 114.699 389.449 113.041 388.602 111.902 389.858 110.761 391.107 108.79 388.99 107.449 389.429 106.459 391.312 104.972 391.175 103.8 392.309 102.24 391.881 101.298 393.977 99.721 393.486 97.99 392.324 96.405 391.426 95.259 393.041 93.854 393.164 92.514 394.145 91.035 393.115 89.638 393.715 88.249 392.799 86.926 391.868 85.163 395.56 84.096 392.524 82.35 394.318 80.96 393.813 79.563 393.392 78.557 391.704 76.466 393.435 75.634 391.47 75.358 388.517 73.588 389.118 72.669 387.898 71.327 387.506 69.367 388.054 67.052 388.928 66.406 387.28 66.088 385.328 63.638 386.028 64.951 382.391 63.337 382.095 63.458 380.063 61.849 379.701 58.028 381.076 59.887 377.753 57.169 377.998 55.49 377.36 57.732 374.223 54.102 374.709 53.721 373.228 55.238 370.86 54.893 369.49 55.063 367.933 52.62 367.369 52.192 366.004 51.111 364.825 50.637 363.445 53.657 361.334 49.723 360.646 48.784 359.288 51.212 357.553 48.552 356.305 51.03 354.755 50.538 353.346 52.567 352.031 51.956 350.625 48.645 348.814 50.722 347.637 49.025 345.823 54.137 345.532 52.391 343.655 54.76 342.956 53.458 341.058 53.867 339.715 55.504 338.925 54.783 337.04 57.007 336.653 57.864 335.596 56.211 332.928 59.003 333.12 58.974 331.401 59.375 329.936 61.585 329.97 59.72 326.417 63.785 328.243 64.575 327.067 65.09 325.637 65.845 324.424 67.615 324.137 65.66 320.44 67.941 320.627 69.544 320.193 68.964 317.759 69.606 316.443 71.229 316.023 72.393 315.181 73.698 314.47 75.475 314.194 75.471 312.284 77.842 312.548 76.79 309.675 78.053 308.926 77.725 306.716 81.288 308.071 80.732 305.658 82.17 305.075 84.658 305.452 85.389 304.209 86.667 303.473 84.596 299.666 87.989 300.861 89.424 300.265 88.596 297.592 89.289 296.322 90.503 295.518 91.596 294.602 91.651 292.727 95.031 292.108 93.032 289.757 90.031 293.401 89.59 290.77 87.754 291.551 86.246 291.521 85.804 288.889 84.045 289.483 82.286 290.082 82.146 286.714 80.143 287.906 79.597 285.523 77.401 287.178 75.819 287.333 75.462 284.492 74.769 282.473 72.788 283.601 70.895 284.515 69.943 283.127 68.464 283.025 66.525 284.05 66.101 281.366 65.684 278.662 64.356 278.189 62.898 278.034 61.777 277.062 59.315 279.373 57.486 280.122 57.162 277.192 55.958 276.412 53.897 277.726 53.531 274.897 52.683 273.237 49.849 276.432 48.919 274.968 47.457 274.71 45.929 274.533 45.822 271.593 43.429 272.992 42.66 271.458 40.882 271.543 39.641 270.755 40.485 267.283 38.139 267.976 36.667 267.48 37.666 264.39 33.879 266.141 32.409 265.457 32.775 263.215 30.444 263.164 29.729 261.821 32.665 258.159 28.044 259.328 30.008 256.562 26.89 256.545 27.461 254.657 26.233 253.595 28.01 251.393 25.689 250.685 24.139 249.612 26.544 247.494 25.312 246.327 23.815 245.133 22.671 243.803 25.183 242.053 22.923 240.782 26.694 239.199 26.89 237.852 22.452 236.321 22.687 234.839 27.072 233.828 23.009 231.875 25.407 230.795 23.825 229.002 28.107 228.562 24.151 226.012 24.711 224.621 25.326 223.257 28.892 223.11 29.085 221.691 27.506 219.359 30.833 219.487 31.949 218.561 32.665 217.422 31.59 215.04 33.323 214.557 32.824 212.37 34.718 212.102 36.455 211.815 36.423 209.841 36.684 208.029 38.164 207.525 38.188 205.225 39.338 204.254 43.113 207.216 43.124 204.685 43.282 202.087 44.424 201.049 47.763 204.624 47.59 200.815 49.447 201.572 51.358 202.779 51.959 200.138 53.377 199.903 54.446 198.231 55.829 197.659 57.59 199.298 59.418 201.257 60.117 197.654 61.865 199.203 62.811 196.791 64.582 198.449 66.049 198.621 67.221 197.346 68.416 196.184 69.593 194.929 71.803 198.743 72.966 197.397 73.833 194.608 75.632 196.405 76.862 195.402 78.028 194.073 79.897 196.204 80.667 192.931 81.96 192.233 83.676 193.603 85.218 194.125 86.372 192.73 87.836 192.866 89.261 192.804 91.107 194.827 91.799 191.178 93.192 190.952 95.117 193.357 95.784 189.562 97.544 191.135 99.248 192.445 100.169 189.885 101.865 191.124 100.82 188.948 103.485 188.034 102.566 186.956 98.932 187.557 99.676 185.444 97.423 185.184 99.095 182.495 99.492 180.598 98.695 179.443 95.071 180.038 93.901 179.111 93.085 177.963 93.86 175.827 94.107 174.021 92.585 173.311 91.829 172.126 92.374 170.133 92.403 168.46 90.661 167.885 90.661 166.23 87.905 166.28 89.163 163.845 87.717 163.085 85.942 162.534 84.631 161.689 86.045 159.159 84.341 158.561 81.208 158.843 83.983 155.467 81.169 155.552 80.725 154.166 80.467 152.668 77.582 152.795 76.672 151.693 76.916 149.876 75.794 148.845 74.921 147.646 75.882 145.53 77.031 143.462 72.544 143.839 73.783 141.787 73.479 140.382 74.538 138.595 73.161 137.528 71.7 136.396 73.68 134.588 73.775 133.2 74.327 131.79 72.788 130.546 72.097 129.177 73.512 127.801 69.862 126.232 70.368 124.782 74.149 123.803 71.035 121.902 70.371 120.263 74.763 119.818 73.193 117.959 75.185 117.121 75.475 115.777 76.69 114.799 73.6 111.923 75.881 111.404 76.406 110.078 76.617 108.552 78.032 107.745 77.899 105.939 78.619 104.666 81.641 105.203 82.768 104.371 83.074 102.821 83.231 101.048 83.988 99.789 83.779 97.408 87.692 99.776 86.25 95.718 88.864 96.806 90.705 97.042 91.569 95.859 91.288 92.588 93.962 94.507 95.274 94.065 96.581 93.646 96.654 90.096 99.355 93.346 99.871 90.492 100.828 88.544 102.562 89.464 104.183 90.301 105.374 88.822 106.609 86.868 108.278 89.015 109.744 90.244 111.119 89.896 112.637 86.751 113.874 90.207 115.516 88.036 116.806 89.289 117.93 91 119.569 89.993 121.56 88.037 122.713 89.408 123.044 92.975 124.106 93.994 125.926 93.112 128.543 90.72 128.633 93.896 129.747 94.83 132.095 93.062 133.46 93.452 133.041 97.765 134.517 97.914 135.688 98.728 138.297 96.387 138.992 98.243 140.254 98.86 141.169 100.242 142.431 100.867 143.352 102.234 145.913 100.003 146.813 101.417 148.023 102.156 148.763 103.925 149.773 105.1 152.775 101.905 152.262 106.428 155.358 103.027 155.301 106.55 157.393 105.354 157.387 108.763 159.448 107.629 160.555 108.589 162.965 106.702 162.531 111.047 164.475 110.18 166.297 109.587 167.792 109.704 168.825 110.842 169.033 113.798 172.032 114.258 172.257 111.346 170.152 109.786 172.557 108.557 169.475 106.921 171.134 105.632 171.891 104.28 174.08 103.034 171.281 101.421 170.547 99.96 171.477 98.621 172.655 97.298 173.031 95.915 172.897 94.496 173.832 93.156 173.203 91.701 172.422 90.232 172.676 88.839 171.698 87.357 170.985 85.894 170.725 84.462 172.801 83.205 175.362 81.981 173.99 80.468 171.644 78.882 171.863 77.489 175.158 76.323 174.653 74.872 173.978 73.411 173.268 71.945 175.618 70.704 175.498 69.282 175.997 67.903 174.971 66.409 173.308 64.867 176.283 63.715 177.113 62.45 175.983 60.89 177.644 59.819 177.759 58.469 175.167 56.339 178.013 55.732 175.94 53.533 178.039 52.812 177.645 51.108 177.912 49.642 180.682 49.5 177.996 46.33 178.796 45.056 180.117 44.145 181.382 43.246 181.568 41.506 183.241 40.988 185.358 40.988 184.844 38.443 188.01 39.741 189.478 39.362 190.614 38.634 191.563 37.661 190.856 34.166 192.754 34.455 193.893 33.584 196.266 35.052 195.817 30.999 197.402 30.945 199.874 33.252 200.21 30.172 201.617 29.837 203.271 30.416 204.368 28.986 206.151 30.503 207.131 28.057 208.807 29.61 210.227 29.829 211.612 29.899 213.013 30.851 214.354 29.515 215.814 27.564 217.29 27.289 218.592 28.831 220.17 27.817 221.762 27.221 222.301 31.654 224.236 29.522 226.012 28.573 227.587 28.535 228.614 30.039 228.821 33.259 230.674 32.5 230.995 34.922 232.848 34.352 233.239 36.334 235.973 34.65 237.571 34.893 238.748 35.757 240.382 36.093 239.73 38.997 241.334 39.358 243.024 39.726 244.661 40.232 244.916 41.942 245.556 43.282 244.07 46.093 244.982 47.107 248.349 46.647 247.842 48.608" style="fill: #fff;"/>
    <polygon points="247.842 48.608 248.049 50.099 249.909 50.657 250.506 51.93 249.954 53.856 252.072 54.275 254.143 54.718 253.451 56.722 253.591 58.253 253.56 59.882 253.991 61.252 254.535 62.56 256.122 63.279 258.321 63.65 256.085 66.528 257.699 67.229 257.253 69.099 257.959 70.316 261.037 70.191 259.121 72.891 261.912 72.93 263.988 73.373 261.503 76.397 265.027 76.015 263.97 78.231 263.275 80.24 264.375 81.232 265.218 82.376 267.514 82.695 266.376 84.959 268.743 85.242 269.589 86.383 269.635 87.979 269.869 89.473 271.685 88.993 271.441 88.197 272.027 86.858 274.204 86.862 274.97 85.671 275.039 83.887 277.014 83.717 279.061 83.61 277.012 80.04 281.018 81.591 282.023 80.602 281.529 78.343 283.099 77.827 284.746 77.38 282.842 73.93 283.75 72.857 287.486 74.174 286.43 71.438 288.289 71.168 288.211 69.26 288.367 67.546 290.954 67.897 292.921 67.725 290.716 64.023 293.138 64.224 295.973 64.779 296.039 62.993 297.861 62.685 296.695 59.854 296.333 57.7 300.002 58.962 300.537 57.565 302.159 57.085 300.339 53.687 303.082 54.149 305.164 54.153 303.114 50.319 305.931 51.103 307.742 51.033 308.665 50.038 307.932 46.922 308.95 45.852 310.542 45.596 311.02 43.648 313.133 44.344 314.793 44.441 316.501 44.79 316.146 40.553 319.138 44.124 319.885 42.193 321.592 43.023 321.934 39.01 323.405 38.779 324.876 38.587 326.916 42.403 327.741 37.599 329.388 39.729 330.728 37.366 332.218 38.866 333.533 42 334.884 41.783 336.434 40.018 338.202 37.717 338.819 42.61 340.945 39.173 341.417 43.204 343.472 40.952 344.801 41.473 346.515 40.95 347.197 43.126 348.477 43.689 350.203 43.354 350.869 45.143 353.008 44.236 354.498 44.597 355.754 45.364 356.496 46.84 356.124 49.644 357.502 50.117 360.703 48.647 359.946 51.551 361.681 51.828 364.121 51.585 361.579 55.617 362.731 56.422 364.552 56.796 367.065 56.834 368.348 57.788 365.833 60.87 366.172 62.219 368.87 62.478 369.715 63.683 369.65 65.245 368.247 67.188 369.516 68.233 368.341 69.937 371.552 70.644 372.837 71.891 370.763 73.636 373.511 74.788 371.719 76.368 372.817 77.764 369.33 79.163 369.337 80.5 371.986 82.061 373.568 83.68 372.339 84.949 371.62 86.276 372.709 87.812 369.976 88.914 368.717 90.187 369.253 91.662 371.996 93.387 371.824 94.779 369.403 95.915 368.87 97.267 368.028 98.587 368.289 100.033 371.74 101.841 370.7 103.136 370.27 104.501 366.682 105.509 366.895 106.95 370.746 108.804 369.653 110.095 368.629 111.396 367.72 112.709 369.023 114.275 366.421 115.395 369.279 117.14 367.995 118.408 366.136 119.61 367.629 121.199 367.897 122.646 364.873 123.72 367.581 125.449 368.119 126.929 365.761 128.081 365.189 129.44 367.369 129.531 367.415 130.507 369.087 131.444 370.705 132.154 371.739 130.473 372.439 127.418 373.988 127.836 375.475 128.009 376.489 126.255 378.391 128.122 380.264 129.865 381.259 128.02 382.768 128.262 383.304 124.548 385.45 127.398 386.879 127.328 388.249 127.003 388.945 123.934 390.055 122.558 391.534 122.679 393.435 124.518 394.151 121.529 395.769 122.215 397.869 124.865 399.106 123.997 399.859 121.168 401.759 123.015 403.145 122.747 404.002 120.332 405.919 122.23 407.351 122.142 408.303 120.11 409.428 118.768 411.225 120.155 413.018 121.526 414.376 121.408 415.332 119.093 416.449 116.925 418.3 120.25 419.645 120.016 420.89 116.931 422.367 120.731 423.728 119.868 425.168 118.81 426.835 116.459 427.934 119.276 429.47 118.652 431.279 117.121 431.949 120.448 432.836 122.276 434.643 121.121 437.102 118.652 437.518 121.474 438.026 123.686 440.361 122.152 440.097 125.492 443.82 122.052 442.836 126.179 444.702 125.936 447.337 124.872 446.731 127.888 446.581 130.122 450.505 128.029 450.872 129.725 452.433 130.28 452.508 132.132 453.231 133.389 454.201 134.452 456.263 134.805 456.842 136.192 454.382 139.292 456.697 139.602 455.703 141.65 455.81 143.079 459.751 142.945 457.492 145.309 459.145 146.208 460.027 147.418 461.886 148.427 459.898 150.345 460.638 151.632 459.161 153.249 459.867 154.535 460.909 155.844 458.932 157.289 461.899 158.661 460.833 160.043 459.12 161.291 462.553 163.082 458.924 163.968 459.78 165.515 460.958 167.233 460.256 168.532 460.918 170.255 460.152 171.541 459.252 172.749 459.844 174.612 456.515 174.606 454.921 175.307 456.731 177.958 456.108 179.279 455.164 180.393 454.464 181.678 450.791 180.589 452.06 183.444 452.567 185.847 449.659 185.08 447.507 185.007 446.958 186.407 447.103 188.445 444.807 188.25 445.54 190.828 443.259 190.64 441.461 190.894 443.681 194.832 441.252 194.51 438.831 194.198 438.187 195.518 437.992 197.245 437.077 198.312 436.868 200.027 434.526 199.789 433.069 200.363 434.648 203.718 431.838 203.05 430.653 203.875 430.856 205.964 430.469 207.51 428.433 207.548 426.701 207.873 428.051 211.018 427.383 212.314 426.83 213.722 426.127 214.989 422.561 213.635 421.438 214.512 420.122 215.222 420.806 217.767 419.687 218.666 417.326 219.816 420.109 219.448 420.739 221.612 422.82 220.226 424.27 220.389 425.354 221.458 427.072 220.968 426.971 224.925 429.727 221.889 430.473 223.77 431.14 225.849 433.509 223.77 434.867 224.167 435.473 226.4 436.41 227.821 437.604 228.613 438.442 230.284 440.061 230.041 441.918 229.215 443.99 227.862 445.041 229.015 446.461 229.258 447.897 229.467 447.969 233.016 449.022 234.161 451.053 232.906 451.861 234.645 453.287 234.883 455.449 233.312 455.945 235.824 458.481 233.349 458.211 237.735 459.628 238.001 462.453 234.828 463.023 237.172 464.916 236.453 464.495 240.708 465.904 240.926 467.303 241.222 469.456 240.354 469.232 243.273 471.698 242.159 472.127 243.933 473.539 244.407 475.437 244.406 475.141 246.785 477.567 246.384 477.12 248.714 479.983 248.168 478.264 251.313 481.913 250.428 482.943 251.533 480.693 254.59 482.553 255.136 484.32 255.843 485.86 256.755 482.589 259.683 483.553 260.764 485.65 261.526 484.963 263.199 484.06 264.843 488.545 265.294 486.285 267.186 488.674 268.284 484.751 270.147 486.992 271.346 489.648 272.685 485.895 274.154 488.199 275.622 487.511 277.022 488.871 278.612 486.809 279.806 488.531 281.557 487.243 282.795 485.428 283.828 487.121 285.775 486.977 287.276 487.025 288.873 485.637 289.927 482.4 290.076 481.018 290.916 483.857 293.972 480.611 293.77 481.725 296.109 479.082 296.038 480.861 299.082 476.879 297.766 479.042 301.438 478.307 302.793 476.808 303.413 476.191 304.934 472.509 302.901 473.435 306.293 470.534 304.793 470.253 306.838 467.715 305.419 467.486 307.72 465.625 307.161 465.659 310.407 463.738 309.607 463.248 312.233 460.649 309.242 460.383 312.974 458.741 312.529 457.386 313.058 455.974 313.371 454.227 311.803 453.371 314.625 451.726 313.575 449.835 311.323 448.799 313.289 447.659 314.732 445.731 312.297 444.998 315.729 443.225 314.049 441.988 315.012 440.228 313.411 439.721 317.983 438.053 316.832 436.827 317.85 435 315.919 433.304 314.64 432.143 315.996 431.304 318.924 429.787 318.524 428.68 320.149 426.633 317.142 425.65 319.38 424.103 318.835 423.244 321.68 421.762 321.444 419.779 318.748 418.956 321.773 417.185 320.13 415.759 320.188 414.532 321.239 412.96 320.578 411.331 319.655 410.551 322.918 408.75 321.98 411.161 322.327 409.526 324.988 410.872 325.803 413.127 326.059 413.881 327.247 412.214 329.933 414.114 330.406 415.32 331.309 417.531 331.589 418.393 332.707 416.477 335.548 419.818 335.134 418.168 337.809 418.451 339.286 421.695 338.929 419.498 341.946 420.118 343.218 420.232 344.801 423.785 344.255 422.993 346.403 426.339 345.985 427.204 347.106 425.417 349.863 428.152 349.826 429.293 350.772 428.654 352.822 427.927 354.932 429.439 355.652 430.152 356.869 431.348 357.789 430.3 360.096 434.38 359.229 435.391 360.268 432.25 363.88 434.039 364.404 436.592 364.614 437.223 365.928 438.07 367.144 435.552 369.756 439.184 369.857 437.181 372.057 440.198 372.618 439.213 374.38 439.195 375.835 441.716 376.834 438.182 378.806 438.888 380.097 441.14 381.348 438.328 382.85 437.977 384.188 439.31 385.601 439.428 387.004 437.554 388.157 441.404 390.174 440.899 391.582 437.837 392.333 438.552 393.967 436.195 394.674 436.862 396.348 435.562 397.305 438.425 400.088 435.469 400.272 436.314 402.313 434.717 403.055 432.432 403.278 431.222 404.085 432.814 406.916 429.877 406.415 432.029 410.007 430.166 410.309 427.56 409.772 428.383 412.599 426.042 412.149 425.752 413.961 425.009 415.325 424.528 417.128 421.095 414.658 422.181 418.974 419.727 417.683 418.951 419.24 416.699 417.878 416.786 421.505 415.462 422.201 413.787 421.927 412.056 421.269 410.513 420.989 409.438 422.54 408.199 423.731 406.74 423.942 405.203 423.431 403.771 423.668 402.222 420.768 400.884 421.283 399.388 424.654 398.078 422.396 396.545 423.441 395.211 422.598 394.099 420.848 392.835 420.247 391.651 419.425 389.431 422.119 387.713 422.66 387.084 420.138 386.297 418.353 384.529 418.929 382.637 419.705 381.702 418.377 380.414 417.822 378.848 417.872 377.186 418.124 377.041 415.055 375.184 415.747 374.826 413.15 372.31 415.287 371.786 413.053 371.359 410.6 368.755 412.919 368.566 409.945 367.543 408.802 364.259 412.619 364.379 408.963 362.361 409.996 360.663 410.332 360.225 407.9 359.036 407.113 358.009 405.973 357.115 404.538 355.901 403.807 353.775 405.076 353.067 403.241 351.878 402.461 349.606 404.045 349.008 401.964 346.867 403.263 345.755 402.299 345.003 400.553 344.281 398.731 342.386 399.478 340.647 398.908 340.922 400.741 338.875 401.995 339.394 403.44 341.19 404.98 339.67 406.279 342.115 407.868 340.166 409.132 338.6 410.423 339.887 411.924 338.93 413.261 340.669 414.799 342.042 416.312 339.071 417.502 339.037 418.908 340.599 420.432 339.739 421.78 336.912 422.983 337.287 424.42 340.287 426.052 337.745 427.277 338.708 428.759 337.43 430.077 340.214 431.694 336.083 432.803 337.784 434.337 337.085 435.695 335.83 437.016 335.679 438.416 337.547 439.967 338.904 441.482 339.609 442.947 337.586 444.214 336.653 445.564 335.721 446.914 335.123 448.222 338.304 450.026 337.703 451.402 334.341 452.178 334.284 453.541 337.364 455.811 333.325 456.055 336.538 458.641 334.28 459.317 333.009 460.287 334.964 462.792 333.101 463.468 329.91 463.241 333.014 466.821 329.791 466.388 329.676 468.038 328.177 468.642 327.136 469.574 328.302 472.598 324.917 471.25 324.682 473.028 323.795 474.16 322.935 475.362 322.204 476.798 321.125 477.806 320.054 478.858 318.479 479.072 317.318 479.988 316.486 481.637 314.257 480.272 312.489 479.667 311.033 479.694 309.942 480.768 309.389 483.951 307.591 482.846 306.148 482.949 304.336 480.817 303.01 481.035 301.77 482.134 300.329 481.2 299.098 484.778 297.641 483.425 296.271 482.298 294.889 482.337 293.171 485.309 292.282 481.115 290.691 482.323 289.619 480.706 287.261 484.401 286.759 480.867 285.367 480.677 283.404 481.915 282.02 481.446 281.049 480.084 280.855 477.367 279.168 477.621 276.983 478.525 274.988 478.888 274.463 477.062 273.358 476.109 271.718 475.791 271.928 473.373 271.342 471.961 271.158 470.229 267.229 471.864 269.347 468.222 267.722 467.752 266.991 466.567 265.967 465.58 266.048 463.894 264.432 463.237 263.487 462.163 260.931 461.999 260.107 460.854 260.177 459.201 262.483 456.28 260.416 455.835 257.983 455.599 260.524 452.55 259.178 451.7 257.328 451.133 257.868 449.212 257.298 447.918 256.534 446.735 252.929 447.161 253.603 445.165 252.945 443.92 253.579 441.945 251.598 441.45 252.377 439.393 251.687 438.165 251.218 436.814 250.336 435.694 248 435.404 249.151 433.134 247.054 432.705 245.185 432.148 246.444 429.815 245.867 428.523 245.128 427.321 244.031 426.32 242.371 425.64 242.658 423.855 239.162 424.206 240.197 424.161 240.213 423.51 238.684 424.052 237.357 424.766 237.411 426.651 236.896 428.058 235.513 428.729 233.579 428.931 233.437 430.649 232.538 431.725 231.933 433.052 232.145 435.072 228.491 433.826 230.09 437.019 229.62 438.461 225.311 436.658 227.026 439.951 226.54 441.382 225.296 442.172 223.174 442.22 223.459 444.306 220.174 443.365 221.544 446.359 217.713 444.958 217.858 446.926 218.773 449.542 217.63 450.418 214.826 449.895 215.442 452.262 215.392 454.067 213.393 454.217 210.495 453.616 209.69 454.788 211.145 457.877 207.653 456.781 210.226 460.905 207.624 460.465 205.729 460.547 204.987 461.771 205.952 465.057 204.967 466.221 203.782 467.151 201.079 465.843 200.124 466.978 199.702 469.115 197.599 468.307 196.164 468.604 194.527 468.367 192.931 468.054 192.315 470.39 191.253 471.775 189.589 471.159 187.98 470.436 186.621 470.648 185.306 471.144 183.992 471.872 182.57 471.654 181.137 470.361 179.786 472.307 178.417 471.214 176.992 471.828 175.785 470.044 174.275 471.085 172.563 472.726 171.747 469.7 169.867 471.571 168.235 472.04 167.665 469.129 165.077 472.147 164.366 469.934 162.697 470.135 161.696 468.849 161.284 466.574 159.059 467.65 158.782 465.375 157.17 465.28 157.068 463.027 154.529 464.063 153.987 462.485 152.658 461.86 150.431 462.107 152.41 458.186 148.02 460.291 147.977 458.387 148.481 456.176 145.744 456.402 147.218 453.686 144.672 453.604 145.158 451.681 144.88 450.253 144.37 448.962 143.533 447.81 143.759 446.244 142.012 445.37 141.811 443.955 141.306 442.627 143.09 440.826 138.934 440.146 140.439 438.464 138.016 437.255 139.526 435.672 139.538 434.229 140.357 432.801 138.749 431.309 138.31 429.8 139.662 428.46 142.666 427.394 142.049 425.914 139.906 424.258 141.213 422.993 143.412 421.828 143.505 420.424 142.336 418.879 142.764 417.516 140.138 415.804 140.569 414.441 143.378 413.346 143.782 411.975 140.698 410.209 143.279 409.09 140.868 407.4 143.325 406.264 144.637 404.997 142.774 403.37 145.778 402.296 142.732 400.531 143.818 399.239 144.01 397.843 143.481 396.365 143.106 394.904 146.293 393.853 143.181 392.084 145.247 390.901 146.124 389.584 145.622 388.108 146.6 386.799 146.623 385.384 144.358 383.704 144.184 382.26 146.238 380.671 144.89 382.735 143.629 383.475 141.518 380.756 140.887 384.081 139.51 384.374 138.299 385.335 136.826 385.22 134.966 383.524 133.823 384.752 131.794 382.371 131.506 387.101 129.658 385.475 127.753 383.606 126.335 383.724 125.164 384.848 123.525 384.075 122.36 385.233 121.301 386.815 120.116 387.892 118.396 386.792 117.285 388.168 115.592 387.182 114.699 389.449 113.041 388.602 111.902 389.858 110.761 391.107 108.79 388.99 107.449 389.429 106.459 391.312 104.972 391.175 103.8 392.309 102.24 391.881 101.298 393.977 99.721 393.486 97.99 392.324 96.405 391.426 95.259 393.041 93.854 393.164 92.514 394.145 91.035 393.115 89.638 393.715 88.249 392.799 86.926 391.868 85.163 395.56 84.096 392.524 82.35 394.318 80.96 393.813 79.563 393.392 78.557 391.704 76.466 393.435 75.634 391.47 75.358 388.517 73.588 389.118 72.669 387.898 71.327 387.506 69.367 388.054 67.052 388.928 66.406 387.28 66.088 385.328 63.638 386.028 64.951 382.391 63.337 382.095 63.458 380.063 61.849 379.701 58.028 381.076 59.887 377.753 57.169 377.998 55.49 377.36 57.732 374.223 54.102 374.709 53.721 373.228 55.238 370.86 54.893 369.49 55.063 367.933 52.62 367.369 52.192 366.004 51.111 364.825 50.637 363.445 53.657 361.334 49.723 360.646 48.784 359.288 51.212 357.553 48.552 356.305 51.03 354.755 50.538 353.346 52.567 352.031 51.956 350.625 48.645 348.814 50.722 347.637 49.025 345.823 54.137 345.532 52.391 343.655 54.76 342.956 53.458 341.058 53.867 339.715 55.504 338.925 54.783 337.04 57.007 336.653 57.864 335.596 56.211 332.928 59.003 333.12 58.974 331.401 59.375 329.936 61.585 329.97 59.72 326.417 63.785 328.243 64.575 327.067 65.09 325.637 65.845 324.424 67.615 324.137 65.66 320.44 67.941 320.627 69.544 320.193 68.964 317.759 69.606 316.443 71.229 316.023 72.393 315.181 73.698 314.47 75.475 314.194 75.471 312.284 77.842 312.548 76.79 309.675 78.053 308.926 77.725 306.716 81.288 308.071 80.732 305.658 82.17 305.075 84.658 305.452 85.389 304.209 86.667 303.473 84.596 299.666 87.989 300.861 89.424 300.265 88.596 297.592 89.289 296.322 90.503 295.518 91.596 294.602 91.651 292.727 95.031 292.108 93.032 289.757 90.031 293.401 89.59 290.77 87.754 291.551 86.246 291.521 85.804 288.889 84.045 289.483 82.286 290.082 82.146 286.714 80.143 287.906 79.597 285.523 77.401 287.178 75.819 287.333 75.462 284.492 74.769 282.473 72.788 283.601 70.895 284.515 69.943 283.127 68.464 283.025 66.525 284.05 66.101 281.366 65.684 278.662 64.356 278.189 62.898 278.034 61.777 277.062 59.315 279.373 57.486 280.122 57.162 277.192 55.958 276.412 53.897 277.726 53.531 274.897 52.683 273.237 49.849 276.432 48.919 274.968 47.457 274.71 45.929 274.533 45.822 271.593 43.429 272.992 42.66 271.458 40.882 271.543 39.641 270.755 40.485 267.283 38.139 267.976 36.667 267.48 37.666 264.39 33.879 266.141 32.409 265.457 32.775 263.215 30.444 263.164 29.729 261.821 32.665 258.159 28.044 259.328 30.008 256.562 26.89 256.545 27.461 254.657 26.233 253.595 28.01 251.393 25.689 250.685 24.139 249.612 26.544 247.494 25.312 246.327 23.815 245.133 22.671 243.803 25.183 242.053 22.923 240.782 26.694 239.199 26.89 237.852 22.452 236.321 22.687 234.839 27.072 233.828 23.009 231.875 25.407 230.795 23.825 229.002 28.107 228.562 24.151 226.012 24.711 224.621 25.326 223.257 28.892 223.11 29.085 221.691 27.506 219.359 30.833 219.487 31.949 218.561 32.665 217.422 31.59 215.04 33.323 214.557 32.824 212.37 34.718 212.102 36.455 211.815 36.423 209.841 36.684 208.029 38.164 207.525 38.188 205.225 39.338 204.254 43.113 207.216 43.124 204.685 43.282 202.087 44.424 201.049 47.763 204.624 47.59 200.815 49.447 201.572 51.358 202.779 51.959 200.138 53.377 199.903 54.446 198.231 55.829 197.659 57.59 199.298 59.418 201.257 60.117 197.654 61.865 199.203 62.811 196.791 64.582 198.449 66.049 198.621 67.221 197.346 68.416 196.184 69.593 194.929 71.803 198.743 72.966 197.397 73.833 194.608 75.632 196.405 76.862 195.402 78.028 194.073 79.897 196.204 80.667 192.931 81.96 192.233 83.676 193.603 85.218 194.125 86.372 192.73 87.836 192.866 89.261 192.804 91.107 194.827 91.799 191.178 93.192 190.952 95.117 193.357 95.784 189.562 97.544 191.135 99.248 192.445 100.169 189.885 101.865 191.124 100.82 188.948 103.485 188.034 102.566 186.956 98.932 187.557 99.676 185.444 97.423 185.184 99.095 182.495 99.492 180.598 98.695 179.443 95.071 180.038 93.901 179.111 93.085 177.963 93.86 175.827 94.107 174.021 92.585 173.311 91.829 172.126 92.374 170.133 92.403 168.46 90.661 167.885 90.661 166.23 87.905 166.28 89.163 163.845 87.717 163.085 85.942 162.534 84.631 161.689 86.045 159.159 84.341 158.561 81.208 158.843 83.983 155.467 81.169 155.552 80.725 154.166 80.467 152.668 77.582 152.795 76.672 151.693 76.916 149.876 75.794 148.845 74.921 147.646 75.882 145.53 77.031 143.462 72.544 143.839 73.783 141.787 73.479 140.382 74.538 138.595 73.161 137.528 71.7 136.396 73.68 134.588 73.775 133.2 74.327 131.79 72.788 130.546 72.097 129.177 73.512 127.801 69.862 126.232 70.368 124.782 74.149 123.803 71.035 121.902 70.371 120.263 74.763 119.818 73.193 117.959 75.185 117.121 75.475 115.777 76.69 114.799 73.6 111.923 75.881 111.404 76.406 110.078 76.617 108.552 78.032 107.745 77.899 105.939 78.619 104.666 81.641 105.203 82.768 104.371 83.074 102.821 83.231 101.048 83.988 99.789 83.779 97.408 87.692 99.776 86.25 95.718 88.864 96.806 90.705 97.042 91.569 95.859 91.288 92.588 93.962 94.507 95.274 94.065 96.581 93.646 96.654 90.096 99.355 93.346 99.871 90.492 100.828 88.544 102.562 89.464 104.183 90.301 105.374 88.822 106.609 86.868 108.278 89.015 109.744 90.244 111.119 89.896 112.637 86.751 113.874 90.207 115.516 88.036 116.806 89.289 117.93 91 119.569 89.993 121.56 88.037 122.713 89.408 123.044 92.975 124.106 93.994 125.926 93.112 128.543 90.72 128.633 93.896 129.747 94.83 132.095 93.062 133.46 93.452 133.041 97.765 134.517 97.914 135.688 98.728 138.297 96.387 138.992 98.243 140.254 98.86 141.169 100.242 142.431 100.867 143.352 102.234 145.913 100.003 146.813 101.417 148.023 102.156 148.763 103.925 149.773 105.1 152.775 101.905 152.262 106.428 155.358 103.027 155.301 106.55 157.393 105.354 157.387 108.763 159.448 107.629 160.555 108.589 162.965 106.702 162.531 111.047 164.475 110.18 166.297 109.587 167.792 109.704 168.825 110.842 169.033 113.798 172.032 114.258 172.257 111.346 170.152 109.786 172.557 108.557 169.475 106.921 171.134 105.632 171.891 104.28 174.08 103.034 171.281 101.421 170.547 99.96 171.477 98.621 172.655 97.298 173.031 95.915 172.897 94.496 173.832 93.156 173.203 91.701 172.422 90.232 172.676 88.839 171.698 87.357 170.985 85.894 170.725 84.462 172.801 83.205 175.362 81.981 173.99 80.468 171.644 78.882 171.863 77.489 175.158 76.323 174.653 74.872 173.978 73.411 173.268 71.945 175.618 70.704 175.498 69.282 175.997 67.903 174.971 66.409 173.308 64.867 176.283 63.715 177.113 62.45 175.983 60.89 177.644 59.819 177.759 58.469 175.167 56.339 178.013 55.732 175.94 53.533 178.039 52.812 177.645 51.108 177.912 49.642 180.682 49.5 177.996 46.33 178.796 45.056 180.117 44.145 181.382 43.246 181.568 41.506 183.241 40.988 185.358 40.988 184.844 38.443 188.01 39.741 189.478 39.362 190.614 38.634 191.563 37.661 190.856 34.166 192.754 34.455 193.893 33.584 196.266 35.052 195.817 30.999 197.402 30.945 199.874 33.252 200.21 30.172 201.617 29.837 203.271 30.416 204.368 28.986 206.151 30.503 207.131 28.057 208.807 29.61 210.227 29.829 211.612 29.899 213.013 30.851 214.354 29.515 215.814 27.564 217.29 27.289 218.592 28.831 220.17 27.817 221.762 27.221 222.301 31.654 224.236 29.522 226.012 28.573 227.587 28.535 228.614 30.039 228.821 33.259 230.674 32.5 230.995 34.922 232.848 34.352 233.239 36.334 235.973 34.65 237.571 34.893 238.748 35.757 240.382 36.093 239.73 38.997 241.334 39.358 243.024 39.726 244.661 40.232 244.916 41.942 245.556 43.282 244.07 46.093 244.982 47.107 248.349 46.647 247.842 48.608" style="fill: none; stroke: #000; stroke-linecap: round; stroke-linejoin: round; stroke-width: 25px;"/>
  </g>
  <g>
    <polygon points="150.424 256 150.087 257.446 152.424 258.831 154.456 260.166 153.678 261.598 154.352 262.956 150.585 264.658 150.516 266.117 153.757 267.223 153.575 268.662 153.963 270.033 152.906 271.615 152.38 273.146 154.817 274.169 155.528 275.463 155.705 276.855 153.161 278.851 156.415 279.563 157.121 280.828 153.847 283.136 154.971 284.321 157.02 285.212 157.248 286.617 158.501 287.695 158.974 289.013 157.83 290.905 156.647 292.863 159.024 293.495 159.041 295.019 159.093 296.545 161.595 297.021 163.674 297.625 159.802 300.965 163.639 300.716 164.952 301.625 165.237 303.044 164.048 305.267 165.146 306.287 165.663 307.625 166.131 308.999 165.615 310.983 169.344 310.346 167.365 313.292 168.492 314.272 171.33 314.065 172.321 315.081 171.854 317.152 173.686 317.554 174.798 318.47 174.872 320.197 174.877 322.015 177.607 321.592 176.584 324.315 179.818 323.364 179.156 325.844 179.299 327.652 181.829 327.209 182.281 328.737 182.453 330.577 184.632 330.372 183.62 333.518 186.691 332.292 188.382 332.506 187.49 335.681 190.441 334.391 189.277 338.031 190.212 339.177 192.303 338.835 193.073 340.188 195.444 339.368 196.468 340.357 197.322 341.605 199.51 340.877 199.467 343.507 201.126 343.541 201.777 345.184 202.335 347.04 204.23 346.635 205.07 348.061 206.188 349.015 209.326 346.098 210.604 346.64 209.858 351.351 212.579 348.951 213.549 350.206 214.42 351.743 216.87 349.579 217.634 351.389 218.413 353.264 220.452 351.861 221.83 352.15 222.607 354.192 224.695 352.346 224.946 356.212 227.071 354.066 228.347 354.686 229.383 356.241 230.411 357.969 232.485 355.427 233.97 355.172 234.463 359.641 236.168 358.434 237.337 359.985 239.089 358.216 240.588 357.762 241.741 359.715 243.469 357.366 244.458 361.181 245.889 361.409 247.697 356.99 249.003 358.191 250.4 358.284 251.729 360.081 253.22 357.581 254.559 361.391 256 361.073 257.395 358.037 258.884 361.543 260.33 361.616 261.692 360.056 263.004 358.36 264.538 359.933 266.002 360.267 267.17 357.752 268.887 360.268 270.346 360.336 271.687 359.574 272.615 356.387 274.435 358.672 275.434 356.322 277.036 357.171 278.135 355.604 279.847 356.789 280.774 354.666 282.523 355.839 284.613 358.072 285.395 355.601 286.016 352.811 288.515 356.025 289.434 354.263 289.937 351.447 292.631 354.73 292.842 351.288 294.627 351.986 296.936 353.839 296.493 349.191 299.142 351.685 299.848 349.813 301.147 349.25 302.606 349.003 302.598 345.905 305.802 348.948 305.559 345.541 308.425 347.733 307.944 344.084 311.161 346.677 310.931 343.587 312.134 342.848 314.765 344.246 314.958 341.97 314.394 338.707 317.797 341.033 318.937 340.159 319.944 339.115 318.915 335.511 321.291 336.235 322.166 335.078 325.217 336.463 324.518 333.486 325.523 332.492 326.221 331.17 327.353 330.321 330.355 331.359 328.905 327.898 332.175 329.098 330.053 325.143 334.504 327.319 334.893 325.729 334.648 323.622 334.406 321.571 334.82 320.108 336.383 319.576 337.152 318.401 340.605 319.24 338.104 315.636 340.896 315.913 343.6 316.048 341.34 312.798 342.807 312.08 342.816 310.419 343.346 309.104 345.818 308.942 347.472 308.249 346.877 306.274 348.874 305.736 348.911 304.135 348.641 302.4 347.828 300.433 348.329 299.13 349.214 298.003 351.498 297.474 349.892 295.261 351.696 294.49 352.882 293.439 354.288 292.449 353.143 290.523 354.343 289.444 352.877 287.477 353.336 286.164 355.303 285.293 355.498 283.88 358.331 283.17 358.717 281.776 356.342 279.731 356.823 278.395 355.818 276.747 355.843 275.334 357.77 274.268 360.208 273.237 359.316 271.645 358.164 270.048 360.177 268.875 359.74 267.386 359.555 265.936 361.628 264.679 360.734 263.168 360.134 261.7 357.175 260.153 361.443 258.884 360.026 257.423 362.214 256 361.335 254.561 357.685 253.22 360.059 251.733 361.937 250.207 357.674 249.042 359.962 247.46 357.451 246.265 358.292 244.772 358.971 243.271 359.719 241.738 358.56 240.465 357.222 239.248 359.034 237.5 356.453 236.54 355.993 235.208 356.527 233.661 357.683 231.942 356.099 230.867 357.616 229.006 354.081 228.503 357.215 226.13 353.439 225.789 353.652 224.255 353.84 222.71 353.831 221.215 355.596 219.047 351.04 219.254 352.982 216.971 353.098 215.375 350.942 214.745 352.181 212.634 348.933 212.564 350.184 210.4 350.665 208.559 349.211 207.684 347.965 206.726 346.507 205.905 344.32 205.53 344.525 203.795 344.454 202.194 343.91 200.866 343.593 199.383 343.505 197.729 340.785 197.856 341.23 195.821 339.197 195.539 340.147 193.073 339.49 191.767 335.449 193.134 337.293 189.846 334.128 190.63 334.527 188.45 334.279 186.78 333.944 185.156 330.154 186.729 331.61 183.408 328.45 184.516 328.04 182.951 328.408 180.544 328.289 178.579 324.878 180.182 325.627 177.222 322.136 179.078 321.574 177.591 320.428 176.787 320.915 173.926 320.21 172.499 317.462 173.769 317.742 171.003 316.788 169.866 314.609 170.496 312.154 171.625 311.111 170.691 311.288 167.8 309.85 167.428 308.069 167.66 308.576 163.957 307.108 163.619 304.012 166.339 303.901 163.539 302.362 163.434 301.298 162.388 299.65 162.559 297.868 163.085 298.172 158.897 296.364 159.474 293.915 161.732 293.642 158.594 292.211 158.353 291.289 156.7 289.779 156.673 288.692 155.382 286.868 156.388 285.441 156.196 283.331 158.465 282.009 158.053 281.037 156.24 280.115 154.026 278.353 155.366 277.031 154.808 275.752 153.982 274.543 152.686 272.632 155.478 271.254 155.29 270.273 152.186 269.009 150.726 267.123 154.678 265.811 153.762 264.297 155.084 263.144 151.628 261.787 150.24 260.218 153.235 258.873 150.965 257.391 154.315 256 150.963 254.564 150.87 253.148 151.642 251.805 153.73 250.408 153.801 249.004 153.77 247.407 151.395 246.137 153.197 244.945 155.307 243.283 153.123 242.026 154.393 240.293 152.295 239.098 153.867 237.291 151.794 236.068 153.094 235.322 156.558 233.71 155.697 231.612 152.916 231.019 156.508 228.804 153.621 227.947 155.929 226.173 154.933 225.177 156.583 223.279 155.342 222.389 157.215 221.957 160.256 220.436 160.145 218.03 157.798 216.445 157.71 215.478 159.15 214.941 161.508 213.827 162.46 211.288 160.343 210.639 162.309 208.727 161.669 208.938 165.202 207.641 165.739 205.501 164.764 205.688 167.957 203.307 166.65 201.939 167.126 202.062 169.992 199.196 168.117 198.645 169.866 196.076 168.624 197.362 172.948 194.864 171.876 193.773 172.788 191.61 172.306 192.532 175.792 190.295 175.257 188.628 175.482 187.232 176.058 188.42 179.574 186.737 179.795 186.021 181.088 185.422 182.487 182.392 181.398 183.789 184.786 181.074 184.1 179.914 184.958 179.253 186.278 179.39 188.29 176.507 187.651 175.969 189.068 177.056 191.791 173.706 190.911 173.532 192.585 172.305 193.441 171.146 194.363 171.435 196.321 171.307 197.948 168.596 197.825 168.943 199.758 168.477 201.137 169.074 203.152 165.044 202.385 165.333 204.212 164.697 205.49 164.021 206.744 163.06 207.85 165.053 210.45 164.126 211.544 160.865 211.557 163.495 214.317 162.544 215.414 160.861 216.217 159.551 217.207 160.372 219.046 157.241 219.377 159.962 221.87 158.642 222.89 158.928 224.459 158.421 225.761 154.574 226.082 154.627 227.596 156.741 229.643 155.48 230.773 154.824 232.073 154.918 233.548 152.486 234.489 153.657 236.185 153.309 237.568 152.684 238.909 154.28 240.594 155.288 242.15 154.993 243.512 154.012 244.805 152.871 246.105 151.755 247.433 153.511 248.983 152.262 250.322 151.473 251.711 150.293 253.109 150.621 254.559 150.424 256"/>
    <polygon points="150.424 256 150.087 257.446 152.424 258.831 154.456 260.166 153.678 261.598 154.352 262.956 150.585 264.658 150.516 266.117 153.757 267.223 153.575 268.662 153.963 270.033 152.906 271.615 152.38 273.146 154.817 274.169 155.528 275.463 155.705 276.855 153.161 278.851 156.415 279.563 157.121 280.828 153.847 283.136 154.971 284.321 157.02 285.212 157.248 286.617 158.501 287.695 158.974 289.013 157.83 290.905 156.647 292.863 159.024 293.495 159.041 295.019 159.093 296.545 161.595 297.021 163.674 297.625 159.802 300.965 163.639 300.716 164.952 301.625 165.237 303.044 164.048 305.267 165.146 306.287 165.663 307.625 166.131 308.999 165.615 310.983 169.344 310.346 167.365 313.292 168.492 314.272 171.33 314.065 172.321 315.081 171.854 317.152 173.686 317.554 174.798 318.47 174.872 320.197 174.877 322.015 177.607 321.592 176.584 324.315 179.818 323.364 179.156 325.844 179.299 327.652 181.829 327.209 182.281 328.737 182.453 330.577 184.632 330.372 183.62 333.518 186.691 332.292 188.382 332.506 187.49 335.681 190.441 334.391 189.277 338.031 190.212 339.177 192.303 338.835 193.073 340.188 195.444 339.368 196.468 340.357 197.322 341.605 199.51 340.877 199.467 343.507 201.126 343.541 201.777 345.184 202.335 347.04 204.23 346.635 205.07 348.061 206.188 349.015 209.326 346.098 210.604 346.64 209.858 351.351 212.579 348.951 213.549 350.206 214.42 351.743 216.87 349.579 217.634 351.389 218.413 353.264 220.452 351.861 221.83 352.15 222.607 354.192 224.695 352.346 224.946 356.212 227.071 354.066 228.347 354.686 229.383 356.241 230.411 357.969 232.485 355.427 233.97 355.172 234.463 359.641 236.168 358.434 237.337 359.985 239.089 358.216 240.588 357.762 241.741 359.715 243.469 357.366 244.458 361.181 245.889 361.409 247.697 356.99 249.003 358.191 250.4 358.284 251.729 360.081 253.22 357.581 254.559 361.391 256 361.073 257.395 358.037 258.884 361.543 260.33 361.616 261.692 360.056 263.004 358.36 264.538 359.933 266.002 360.267 267.17 357.752 268.887 360.268 270.346 360.336 271.687 359.574 272.615 356.387 274.435 358.672 275.434 356.322 277.036 357.171 278.135 355.604 279.847 356.789 280.774 354.666 282.523 355.839 284.613 358.072 285.395 355.601 286.016 352.811 288.515 356.025 289.434 354.263 289.937 351.447 292.631 354.73 292.842 351.288 294.627 351.986 296.936 353.839 296.493 349.191 299.142 351.685 299.848 349.813 301.147 349.25 302.606 349.003 302.598 345.905 305.802 348.948 305.559 345.541 308.425 347.733 307.944 344.084 311.161 346.677 310.931 343.587 312.134 342.848 314.765 344.246 314.958 341.97 314.394 338.707 317.797 341.033 318.937 340.159 319.944 339.115 318.915 335.511 321.291 336.235 322.166 335.078 325.217 336.463 324.518 333.486 325.523 332.492 326.221 331.17 327.353 330.321 330.355 331.359 328.905 327.898 332.175 329.098 330.053 325.143 334.504 327.319 334.893 325.729 334.648 323.622 334.406 321.571 334.82 320.108 336.383 319.576 337.152 318.401 340.605 319.24 338.104 315.636 340.896 315.913 343.6 316.048 341.34 312.798 342.807 312.08 342.816 310.419 343.346 309.104 345.818 308.942 347.472 308.249 346.877 306.274 348.874 305.736 348.911 304.135 348.641 302.4 347.828 300.433 348.329 299.13 349.214 298.003 351.498 297.474 349.892 295.261 351.696 294.49 352.882 293.439 354.288 292.449 353.143 290.523 354.343 289.444 352.877 287.477 353.336 286.164 355.303 285.293 355.498 283.88 358.331 283.17 358.717 281.776 356.342 279.731 356.823 278.395 355.818 276.747 355.843 275.334 357.77 274.268 360.208 273.237 359.316 271.645 358.164 270.048 360.177 268.875 359.74 267.386 359.555 265.936 361.628 264.679 360.734 263.168 360.134 261.7 357.175 260.153 361.443 258.884 360.026 257.423 362.214 256 361.335 254.561 357.685 253.22 360.059 251.733 361.937 250.207 357.674 249.042 359.962 247.46 357.451 246.265 358.292 244.772 358.971 243.271 359.719 241.738 358.56 240.465 357.222 239.248 359.034 237.5 356.453 236.54 355.993 235.208 356.527 233.661 357.683 231.942 356.099 230.867 357.616 229.006 354.081 228.503 357.215 226.13 353.439 225.789 353.652 224.255 353.84 222.71 353.831 221.215 355.596 219.047 351.04 219.254 352.982 216.971 353.098 215.375 350.942 214.745 352.181 212.634 348.933 212.564 350.184 210.4 350.665 208.559 349.211 207.684 347.965 206.726 346.507 205.905 344.32 205.53 344.525 203.795 344.454 202.194 343.91 200.866 343.593 199.383 343.505 197.729 340.785 197.856 341.23 195.821 339.197 195.539 340.147 193.073 339.49 191.767 335.449 193.134 337.293 189.846 334.128 190.63 334.527 188.45 334.279 186.78 333.944 185.156 330.154 186.729 331.61 183.408 328.45 184.516 328.04 182.951 328.408 180.544 328.289 178.579 324.878 180.182 325.627 177.222 322.136 179.078 321.574 177.591 320.428 176.787 320.915 173.926 320.21 172.499 317.462 173.769 317.742 171.003 316.788 169.866 314.609 170.496 312.154 171.625 311.111 170.691 311.288 167.8 309.85 167.428 308.069 167.66 308.576 163.957 307.108 163.619 304.012 166.339 303.901 163.539 302.362 163.434 301.298 162.388 299.65 162.559 297.868 163.085 298.172 158.897 296.364 159.474 293.915 161.732 293.642 158.594 292.211 158.353 291.289 156.7 289.779 156.673 288.692 155.382 286.868 156.388 285.441 156.196 283.331 158.465 282.009 158.053 281.037 156.24 280.115 154.026 278.353 155.366 277.031 154.808 275.752 153.982 274.543 152.686 272.632 155.478 271.254 155.29 270.273 152.186 269.009 150.726 267.123 154.678 265.811 153.762 264.297 155.084 263.144 151.628 261.787 150.24 260.218 153.235 258.873 150.965 257.391 154.315 256 150.963 254.564 150.87 253.148 151.642 251.805 153.73 250.408 153.801 249.004 153.77 247.407 151.395 246.137 153.197 244.945 155.307 243.283 153.123 242.026 154.393 240.293 152.295 239.098 153.867 237.291 151.794 236.068 153.094 235.322 156.558 233.71 155.697 231.612 152.916 231.019 156.508 228.804 153.621 227.947 155.929 226.173 154.933 225.177 156.583 223.279 155.342 222.389 157.215 221.957 160.256 220.436 160.145 218.03 157.798 216.445 157.71 215.478 159.15 214.941 161.508 213.827 162.46 211.288 160.343 210.639 162.309 208.727 161.669 208.938 165.202 207.641 165.739 205.501 164.764 205.688 167.957 203.307 166.65 201.939 167.126 202.062 169.992 199.196 168.117 198.645 169.866 196.076 168.624 197.362 172.948 194.864 171.876 193.773 172.788 191.61 172.306 192.532 175.792 190.295 175.257 188.628 175.482 187.232 176.058 188.42 179.574 186.737 179.795 186.021 181.088 185.422 182.487 182.392 181.398 183.789 184.786 181.074 184.1 179.914 184.958 179.253 186.278 179.39 188.29 176.507 187.651 175.969 189.068 177.056 191.791 173.706 190.911 173.532 192.585 172.305 193.441 171.146 194.363 171.435 196.321 171.307 197.948 168.596 197.825 168.943 199.758 168.477 201.137 169.074 203.152 165.044 202.385 165.333 204.212 164.697 205.49 164.021 206.744 163.06 207.85 165.053 210.45 164.126 211.544 160.865 211.557 163.495 214.317 162.544 215.414 160.861 216.217 159.551 217.207 160.372 219.046 157.241 219.377 159.962 221.87 158.642 222.89 158.928 224.459 158.421 225.761 154.574 226.082 154.627 227.596 156.741 229.643 155.48 230.773 154.824 232.073 154.918 233.548 152.486 234.489 153.657 236.185 153.309 237.568 152.684 238.909 154.28 240.594 155.288 242.15 154.993 243.512 154.012 244.805 152.871 246.105 151.755 247.433 153.511 248.983 152.262 250.322 151.473 251.711 150.293 253.109 150.621 254.559 150.424 256" style="fill: none; stroke: #000; stroke-linecap: round; stroke-linejoin: round; stroke-width: 25px;"/>
  </g>
</svg>