<?xml version="1.0" encoding="UTF-8"?>
<svg id="Small" xmlns="http://www.w3.org/2000/svg" width="400" height="400" viewBox="0 0 400 400">
  <path d="M284.256,162.366c0,1.268.578,2.564.54,3.822-.039,1.267-.65,2.528-.728,3.785-.078,1.265-.523,2.508-.64,3.762-.118,1.261.105,2.568-.051,3.818-.157,1.257-.602,2.483-.797,3.727-.197,1.251-1.403,2.317-1.637,3.555-.236,1.244.125,2.595-.149,3.825-.275,1.236-.96,2.361-1.273,3.582-.314,1.226-.168,2.567-.519,3.778s.14,2.703-.25,3.902-1.743,2.089-2.17,3.276-1.805,2-2.27,3.172-.089,2.678-.59,3.835c-.503,1.16.428,2.989-.11,4.13s-1.198,2.276-1.772,3.399-1.496,2.108-2.105,3.213-2.23,1.651-2.874,2.736-.12,2.912-.798,3.976-2.857,1.158-3.567,2.201.164,3.223-.579,4.244-3.762.333-4.537,1.33-.621,2.71-1.426,3.682-.913,2.555-1.748,3.502-3.202.489-4.067,1.409-.766,2.748-1.659,3.641-1.942,1.622-2.863,2.487-2.143,1.38-3.09,2.215-1.547,2.061-2.52,2.867c-.972.805-2.818.484-3.816,1.259s-1.566,2.061-2.587,2.804-.977,3.007-2.021,3.718-2.583.706-3.65,1.384-1.828,1.881-2.915,2.526-3.31-.72-4.417-.11c-1.105.609-1.605,2.309-2.731,2.884s-2.482.642-3.626,1.181-1.828,2.074-2.988,2.577-2.566.411-3.742.877-1.859,2.265-3.049,2.693-3.163-1.444-4.366-1.053-1.785,2.769-3,3.122-2.86-.879-4.086-.565-2.005,2.506-3.24,2.781-2.707-.521-3.951-.285-2.586-.167-3.836.03c-1.244.195-2.482.366-3.738.523-1.25.156-2.537-.192-3.799-.075-1.254.117-2.458.647-3.722.725-1.257.078-2.504.132-3.77.171-1.258.039-2.506.993-3.774.993s-2.553.249-3.811.21c-1.267-.039-2.489-1.092-3.746-1.169-1.265-.078-2.617.913-3.871.796-1.261-.118-2.455-.953-3.705-1.109-1.257-.157-2.373-1.211-3.618-1.406-1.251-.197-2.736.983-3.974.749s-2.503-.486-3.734-.76-2.303-1.282-3.524-1.594-2.227-1.39-3.437-1.741-2.285-1.06-3.485-1.449-2.696.14-3.882-.288-2.786.19-3.959-.275-1.542-2.871-2.699-3.373-2.714-.082-3.855-.62-2.938.208-4.062-.366-.999-3.509-2.104-4.117-2.131-1.277-3.217-1.92-3.226.448-4.291-.23c-1.066-.678-1.091-2.922-2.134-3.632s-2.671-.558-3.691-1.301-1.589-2.064-2.586-2.838-2.735-.614-3.708-1.42-1.233-2.436-2.18-3.271-3.264-.181-4.185-1.045-1.76-1.869-2.653-2.762c-.893-.893-1.595-2.017-2.46-2.938s-1.665-1.936-2.5-2.883-1.168-2.344-1.973-3.317-2.202-1.493-2.977-2.491-.421-2.852-1.164-3.873-1.786-1.82-2.497-2.864c-.71-1.043-.948-2.386-1.626-3.452s-2.742-1.287-3.386-2.374c-.643-1.085.607-3.253-.003-4.36s-1.453-2.052-2.027-3.178-1.676-1.971-2.215-3.114c-.538-1.141-.235-2.641-.738-3.801s-1.142-2.224-1.608-3.399-2.657-1.693-3.086-2.883.332-2.791-.059-3.994-.078-2.594-.43-3.809-1.884-2.089-2.198-3.314.486-2.7.211-3.936-.441-2.455-.677-3.699-.24-2.485-.436-3.735c-.195-1.244-1.874-2.27-2.031-3.526-.156-1.25.155-2.558.038-3.82-.117-1.254.282-2.54.203-3.805-.078-1.257-2.133-2.438-2.172-3.705-.039-1.258,2.037-2.564,2.037-3.832s-.115-2.513-.076-3.771c.039-1.267-.174-2.528-.096-3.784.078-1.265-.858-2.611-.741-3.865.118-1.261.807-2.471.963-3.721.157-1.257-.113-2.584.082-3.828.197-1.251.951-2.414,1.186-3.652s1.091-2.351,1.365-3.581-.238-2.654.075-3.875,1.232-2.285,1.583-3.496-.97-2.963-.581-4.162c.391-1.203,3.341-1.533,3.769-2.719s.596-2.441,1.061-3.614-.495-2.937.007-4.094,2.899-1.449,3.437-2.59.829-2.364,1.402-3.487-.219-2.964.39-4.069c.61-1.107,1.072-2.316,1.716-3.402s2.851-1.204,3.528-2.269c.678-1.066-.604-3.422.107-4.465s1.835-1.834,2.578-2.854c.743-1.021,1.156-2.328,1.93-3.325s3.41-.502,4.215-1.475c.806-.973.88-2.541,1.715-3.488.836-.947,1.596-1.956,2.46-2.876s1.597-1.969,2.49-2.862c.893-.893,2.521-1.008,3.442-1.872s.696-2.982,1.643-3.817,2.51-.964,3.483-1.769,1.059-2.744,2.057-3.518c.997-.774,2.659-.704,3.681-1.448s2.082-1.441,3.126-2.152,1.874-1.768,2.941-2.446,2.38-.973,3.467-1.618,2.74-.27,3.847-.879,2.332-.916,3.458-1.491c1.123-.574,1.412-2.829,2.556-3.368,1.141-.538,2.598-.401,3.758-.904,1.157-.501,2.768.143,3.943-.323s1.54-3.047,2.73-3.476,2.934.767,4.137.376c1.199-.389,1.876-2.505,3.091-2.857s2.45-.743,3.676-1.057,2.713.41,3.948.135,2.61.21,3.854-.026,2.441-.583,3.692-.78c1.244-.195,2.486-.314,3.742-.471,1.25-.156,2.375-1.506,3.636-1.623,1.254-.117,2.664,1.887,3.928,1.809,1.257-.078,2.433-1.442,3.7-1.481,1.258-.039,2.517.289,3.785.289s2.499.564,3.757.603c1.267.039,2.583-1.294,3.839-1.216,1.265.078,2.483.733,3.737.85,1.261.118,2.62-.617,3.869-.46,1.257.157,2.616-.222,3.861-.026,1.251.197,2.464.793,3.702,1.028s2.295,1.454,3.525,1.728c1.236.275,2.413.754,3.634,1.067,1.226.314,2.167,1.568,3.378,1.919,1.215.353,2.628-.039,3.827.35s2.346.901,3.532,1.328c1.19.429,3.117-1.056,4.289-.592,1.176.466,2.157,1.496,3.314,1.997s1.76,2.258,2.901,2.796,1.817,1.966,2.941,2.539,2.822.02,3.927.629c1.107.61,2.908.04,3.993.683s2.088,1.497,3.152,2.174c1.066.678,1.091,2.943,2.135,3.653s3.141-.068,4.162.675,1.722,1.952,2.719,2.726,1.887,1.704,2.859,2.509,2.149,1.395,3.096,2.23.898,2.76,1.819,3.624,2.922.611,3.815,1.504c.893.893.24,3.27,1.105,4.19s3.843-.082,4.679.865,1.449,2.138,2.255,3.111c.805.972.545,2.82,1.32,3.817s2.474,1.314,3.218,2.336.893,2.483,1.604,3.528,1.677,1.935,2.355,3.001,1.402,2.124,2.046,3.212-.21,3.021.4,4.128,1.732,1.912,2.307,3.038,2.123,1.774,2.662,2.917c.538,1.141-.259,2.885.243,4.045s.743,2.393,1.209,3.569,3.254,1.475,3.682,2.665-1.349,3.139-.959,4.342.97,2.317,1.322,3.532,1.979,2.077,2.293,3.303c.313,1.221,1.255,2.328,1.53,3.564s.44,2.528.676,3.772-1.392,2.813-1.196,4.063c.195,1.244-.405,2.573-.248,3.829.156,1.25,2.481,2.258,2.599,3.519.117,1.254-.12,2.56-.042,3.824.078,1.257-1.497,2.584-1.458,3.851.039,1.258,1.685,2.486,1.685,3.754ZM357.044,358.56c-1.342-1.342-1.765-.919-3.107-2.26s-.952-1.732-2.294-3.074-1.096-1.586-2.437-2.927-1.598-1.083-2.939-2.424c-1.341-1.341-1.151-1.531-2.491-2.872s-.63-2.053-1.971-3.394-1.785-.899-3.127-2.241-1.056-1.628-2.398-2.97-1.691-.992-3.032-2.333c-1.341-1.341-1.983-.699-3.324-2.04s-.64-2.043-1.982-3.385-.635-2.051-1.977-3.394c-1.342-1.342-1.995-.688-3.337-2.03s-2.474-.209-3.816-1.55-1.276-1.408-2.619-2.75c-1.342-1.342-1.092-1.592-2.435-2.935s-.538-2.146-1.88-3.488c-1.342-1.342-2.333-.351-3.675-1.693s-.091-2.594-1.434-3.937-2.735.051-4.077-1.291.656-3.342-.687-4.684c-1.34-1.34-2.183-.497-3.522-1.837s-2.012-.672-3.354-2.014c-1.342-1.342.114-2.797-1.228-4.139-1.341-1.341-2.29-.391-3.631-1.731-1.341-1.341-1.195-1.487-2.537-2.829-1.343-1.343-1.03-1.656-2.373-2.999s-1.725-.958-3.066-2.3-.349-2.337-1.692-3.68-1.828-.857-3.17-2.199c-1.344-1.344-2.671-.016-4.014-1.36-1.343-1.343-.741-1.944-2.084-3.287s-1.787-.9-3.13-2.244.273-2.962-1.071-4.306c-1.341-1.341-2.238-.444-3.579-1.786s-.963-1.723-2.306-3.066c-1.344-1.344-2.134-.555-3.479-1.899s-.904-1.785-2.249-3.13-2.364-.326-3.709-1.671.357-3.052-.99-4.399c-1.347-1.347-2.834.14-4.181-1.207" style="fill: #fff;"/>
  <path d="M284.256,162.366c0,1.268.578,2.564.54,3.822-.039,1.267-.65,2.528-.728,3.785-.078,1.265-.523,2.508-.64,3.762-.118,1.261.105,2.568-.051,3.818-.157,1.257-.602,2.483-.797,3.727-.197,1.251-1.403,2.317-1.637,3.555-.236,1.244.125,2.595-.149,3.825-.275,1.236-.96,2.361-1.273,3.582-.314,1.226-.168,2.567-.519,3.778s.14,2.703-.25,3.902-1.743,2.089-2.17,3.276-1.805,2-2.27,3.172-.089,2.678-.59,3.835c-.503,1.16.428,2.989-.11,4.13s-1.198,2.276-1.772,3.399-1.496,2.108-2.105,3.213-2.23,1.651-2.874,2.736-.12,2.912-.798,3.976-2.857,1.158-3.567,2.201.164,3.223-.579,4.244-3.762.333-4.537,1.33-.621,2.71-1.426,3.682-.913,2.555-1.748,3.502-3.202.489-4.067,1.409-.766,2.748-1.659,3.641-1.942,1.622-2.863,2.487-2.143,1.38-3.09,2.215-1.547,2.061-2.52,2.867c-.972.805-2.818.484-3.816,1.259s-1.566,2.061-2.587,2.804-.977,3.007-2.021,3.718-2.583.706-3.65,1.384-1.828,1.881-2.915,2.526-3.31-.72-4.417-.11c-1.105.609-1.605,2.309-2.731,2.884s-2.482.642-3.626,1.181-1.828,2.074-2.988,2.577-2.566.411-3.742.877-1.859,2.265-3.049,2.693-3.163-1.444-4.366-1.053-1.785,2.769-3,3.122-2.86-.879-4.086-.565-2.005,2.506-3.24,2.781-2.707-.521-3.951-.285-2.586-.167-3.836.03c-1.244.195-2.482.366-3.738.523-1.25.156-2.537-.192-3.799-.075-1.254.117-2.458.647-3.722.725-1.257.078-2.504.132-3.77.171-1.258.039-2.506.993-3.774.993s-2.553.249-3.811.21c-1.267-.039-2.489-1.092-3.746-1.169-1.265-.078-2.617.913-3.871.796-1.261-.118-2.455-.953-3.705-1.109-1.257-.157-2.373-1.211-3.618-1.406-1.251-.197-2.736.983-3.974.749s-2.503-.486-3.734-.76-2.303-1.282-3.524-1.594-2.227-1.39-3.437-1.741-2.285-1.06-3.485-1.449-2.696.14-3.882-.288-2.786.19-3.959-.275-1.542-2.871-2.699-3.373-2.714-.082-3.855-.62-2.938.208-4.062-.366-.999-3.509-2.104-4.117-2.131-1.277-3.217-1.92-3.226.448-4.291-.23c-1.066-.678-1.091-2.922-2.134-3.632s-2.671-.558-3.691-1.301-1.589-2.064-2.586-2.838-2.735-.614-3.708-1.42-1.233-2.436-2.18-3.271-3.264-.181-4.185-1.045-1.76-1.869-2.653-2.762c-.893-.893-1.595-2.017-2.46-2.938s-1.665-1.936-2.5-2.883-1.168-2.344-1.973-3.317-2.202-1.493-2.977-2.491-.421-2.852-1.164-3.873-1.786-1.82-2.497-2.864c-.71-1.043-.948-2.386-1.626-3.452s-2.742-1.287-3.386-2.374c-.643-1.085.607-3.253-.003-4.36s-1.453-2.052-2.027-3.178-1.676-1.971-2.215-3.114c-.538-1.141-.235-2.641-.738-3.801s-1.142-2.224-1.608-3.399-2.657-1.693-3.086-2.883.332-2.791-.059-3.994-.078-2.594-.43-3.809-1.884-2.089-2.198-3.314.486-2.7.211-3.936-.441-2.455-.677-3.699-.24-2.485-.436-3.735c-.195-1.244-1.874-2.27-2.031-3.526-.156-1.25.155-2.558.038-3.82-.117-1.254.282-2.54.203-3.805-.078-1.257-2.133-2.438-2.172-3.705-.039-1.258,2.037-2.564,2.037-3.832s-.115-2.513-.076-3.771c.039-1.267-.174-2.528-.096-3.784.078-1.265-.858-2.611-.741-3.865.118-1.261.807-2.471.963-3.721.157-1.257-.113-2.584.082-3.828.197-1.251.951-2.414,1.186-3.652s1.091-2.351,1.365-3.581-.238-2.654.075-3.875,1.232-2.285,1.583-3.496-.97-2.963-.581-4.162c.391-1.203,3.341-1.533,3.769-2.719s.596-2.441,1.061-3.614-.495-2.937.007-4.094,2.899-1.449,3.437-2.59.829-2.364,1.402-3.487-.219-2.964.39-4.069c.61-1.107,1.072-2.316,1.716-3.402s2.851-1.204,3.528-2.269c.678-1.066-.604-3.422.107-4.465s1.835-1.834,2.578-2.854c.743-1.021,1.156-2.328,1.93-3.325s3.41-.502,4.215-1.475c.806-.973.88-2.541,1.715-3.488.836-.947,1.596-1.956,2.46-2.876s1.597-1.969,2.49-2.862c.893-.893,2.521-1.008,3.442-1.872s.696-2.982,1.643-3.817,2.51-.964,3.483-1.769,1.059-2.744,2.057-3.518c.997-.774,2.659-.704,3.681-1.448s2.082-1.441,3.126-2.152,1.874-1.768,2.941-2.446,2.38-.973,3.467-1.618,2.74-.27,3.847-.879,2.332-.916,3.458-1.491c1.123-.574,1.412-2.829,2.556-3.368,1.141-.538,2.598-.401,3.758-.904,1.157-.501,2.768.143,3.943-.323s1.54-3.047,2.73-3.476,2.934.767,4.137.376c1.199-.389,1.876-2.505,3.091-2.857s2.45-.743,3.676-1.057,2.713.41,3.948.135,2.61.21,3.854-.026,2.441-.583,3.692-.78c1.244-.195,2.486-.314,3.742-.471,1.25-.156,2.375-1.506,3.636-1.623,1.254-.117,2.664,1.887,3.928,1.809,1.257-.078,2.433-1.442,3.7-1.481,1.258-.039,2.517.289,3.785.289s2.499.564,3.757.603c1.267.039,2.583-1.294,3.839-1.216,1.265.078,2.483.733,3.737.85,1.261.118,2.62-.617,3.869-.46,1.257.157,2.616-.222,3.861-.026,1.251.197,2.464.793,3.702,1.028s2.295,1.454,3.525,1.728c1.236.275,2.413.754,3.634,1.067,1.226.314,2.167,1.568,3.378,1.919,1.215.353,2.628-.039,3.827.35s2.346.901,3.532,1.328c1.19.429,3.117-1.056,4.289-.592,1.176.466,2.157,1.496,3.314,1.997s1.76,2.258,2.901,2.796,1.817,1.966,2.941,2.539,2.822.02,3.927.629c1.107.61,2.908.04,3.993.683s2.088,1.497,3.152,2.174c1.066.678,1.091,2.943,2.135,3.653s3.141-.068,4.162.675,1.722,1.952,2.719,2.726,1.887,1.704,2.859,2.509,2.149,1.395,3.096,2.23.898,2.76,1.819,3.624,2.922.611,3.815,1.504c.893.893.24,3.27,1.105,4.19s3.843-.082,4.679.865,1.449,2.138,2.255,3.111c.805.972.545,2.82,1.32,3.817s2.474,1.314,3.218,2.336.893,2.483,1.604,3.528,1.677,1.935,2.355,3.001,1.402,2.124,2.046,3.212-.21,3.021.4,4.128,1.732,1.912,2.307,3.038,2.123,1.774,2.662,2.917c.538,1.141-.259,2.885.243,4.045s.743,2.393,1.209,3.569,3.254,1.475,3.682,2.665-1.349,3.139-.959,4.342.97,2.317,1.322,3.532,1.979,2.077,2.293,3.303c.313,1.221,1.255,2.328,1.53,3.564s.44,2.528.676,3.772-1.392,2.813-1.196,4.063c.195,1.244-.405,2.573-.248,3.829.156,1.25,2.481,2.258,2.599,3.519.117,1.254-.12,2.56-.042,3.824.078,1.257-1.497,2.584-1.458,3.851.039,1.258,1.685,2.486,1.685,3.754ZM357.044,358.56c-1.342-1.342-1.765-.919-3.107-2.26s-.952-1.732-2.294-3.074-1.096-1.586-2.437-2.927-1.598-1.083-2.939-2.424c-1.341-1.341-1.151-1.531-2.491-2.872s-.63-2.053-1.971-3.394-1.785-.899-3.127-2.241-1.056-1.628-2.398-2.97-1.691-.992-3.032-2.333c-1.341-1.341-1.983-.699-3.324-2.04s-.64-2.043-1.982-3.385-.635-2.051-1.977-3.394c-1.342-1.342-1.995-.688-3.337-2.03s-2.474-.209-3.816-1.55-1.276-1.408-2.619-2.75c-1.342-1.342-1.092-1.592-2.435-2.935s-.538-2.146-1.88-3.488c-1.342-1.342-2.333-.351-3.675-1.693s-.091-2.594-1.434-3.937-2.735.051-4.077-1.291.656-3.342-.687-4.684c-1.34-1.34-2.183-.497-3.522-1.837s-2.012-.672-3.354-2.014c-1.342-1.342.114-2.797-1.228-4.139-1.341-1.341-2.29-.391-3.631-1.731-1.341-1.341-1.195-1.487-2.537-2.829-1.343-1.343-1.03-1.656-2.373-2.999s-1.725-.958-3.066-2.3-.349-2.337-1.692-3.68-1.828-.857-3.17-2.199c-1.344-1.344-2.671-.016-4.014-1.36-1.343-1.343-.741-1.944-2.084-3.287s-1.787-.9-3.13-2.244.273-2.962-1.071-4.306c-1.341-1.341-2.238-.444-3.579-1.786s-.963-1.723-2.306-3.066c-1.344-1.344-2.134-.555-3.479-1.899s-.904-1.785-2.249-3.13-2.364-.326-3.709-1.671.357-3.052-.99-4.399c-1.347-1.347-2.834.14-4.181-1.207" style="fill: none; stroke: #000; stroke-linecap: round; stroke-miterlimit: 10; stroke-width: 15px;"/>
</svg>