<?xml version="1.0" encoding="UTF-8"?>
<svg id="big" xmlns="http://www.w3.org/2000/svg" width="240" height="240" viewBox="0 0 240 240">
  <path d="M44.007,205.406c1.405,1.353,2.944-1.566,4.894-1.566s1.952,1.029,3.905,1.029,1.951-1.181,3.903-1.181,1.952,1.578,3.904,1.578,1.953-1.195,3.906-1.195,1.953.466,3.906.466,1.953.355,3.906.355,1.953.512,3.905.512,1.953-1.637,3.906-1.637,1.953.493,3.907.493,1.956.844,3.913.844,2.464.587,3.877-.767c1.353-1.296-.098-1.836-.098-3.71s1.122-1.874,1.122-3.749-1.639-1.874-1.639-3.748.571-1.875.571-3.749-.775-1.874-.775-3.748.412-1.874.412-3.748.027-1.872.027-3.744,1.331-1.874,1.331-3.749-.851-1.873-.851-3.747,1.255-1.875,1.255-3.75-.997-1.874-.997-3.748.499-1.875.499-3.75.545-1.876.545-3.751-2.627-1.876-2.627-3.751,1.467-1.876,1.467-3.751-.197-1.875-.197-3.75,1.322-1.875,1.322-3.751-1.094-1.876-1.094-3.752.474-1.879.474-3.758-1.735-2.127-.409-3.457,1.573-.329,3.447-.329,1.872-1.052,3.744-1.052,1.874.541,3.748.541,1.873.374,3.746.374,1.875-.508,3.75-.508,1.874,1.435,3.747,1.435,1.875-1.136,3.749-1.136,1.875,1.763,3.751,1.763,1.875-1.515,3.751-1.515,1.875-.267,3.751-.267,1.875.018,3.75.018,1.875.559,3.75.559,1.876-1.57,3.751-1.57,1.879,2.316,3.757,2.316,1.754-1.581,3.084-.255.735,1.199.735,3.073,1.109,1.874,1.109,3.749-.903,1.874-.903,3.748-1.665,1.875-1.665,3.749.928,1.874.928,3.748-.604,1.874-.604,3.748,1.566,1.872,1.566,3.744.084,1.874.084,3.749-.693,1.873-.693,3.747-.294,1.875-.294,3.75,1.746,1.874,1.746,3.748-2.361,1.875-2.361,3.75,2.258,1.876,2.258,3.751-2.666,1.876-2.666,3.751.116,1.876.116,3.751.517,1.875.517,3.75.159,1.875.159,3.751-.462,1.876-.462,3.752,1.247,1.879,1.247,3.758-1.881,2.855-.528,4.158c1.405,1.353,2.337-.903,4.287-.903s1.952-.565,3.905-.565,1.951,2.267,3.903,2.267,1.952,0,3.904,0,1.953-1.801,3.906-1.801,1.953.137,3.906.137,1.953-.417,3.906-.417,1.953,2.102,3.905,2.102,1.953-1.497,3.906-1.497,1.953,1.381,3.907,1.381,1.956-.518,3.913-.518,2.864,1.148,4.277-.206c1.354-1.297.182-2.255.182-4.13s.265-1.874.265-3.747-1.312-1.873-1.312-3.746,1.43-1.874,1.43-3.748-1.855-1.875-1.855-3.749-.388-1.874-.388-3.747,1.032-1.874,1.032-3.748-.673-1.875-.673-3.75,1.217-1.874,1.217-3.748.734-1.875.734-3.75-2.175-1.874-2.175-3.749.09-1.875.09-3.749,1.392-1.875,1.392-3.749-1.644-1.875-1.644-3.75,2.814-1.875,2.814-3.749-.399-1.875-.399-3.749-1.969-1.873-1.969-3.745.609-1.875.609-3.749,1.105-1.874,1.105-3.747.642-1.875.642-3.751-1.005-1.874-1.005-3.749.945-1.875.945-3.75-1.583-1.876-1.583-3.752-1.026-1.876-1.026-3.752.205-1.876.205-3.752-.138-1.876-.138-3.751.046-1.876.046-3.752-.085-1.876-.085-3.753.857-1.879.857-3.759,1.143-2.068.304-3.75-.94-1.854-2.439-2.978-2.526.244-4.025-.88-1.106-1.65-2.606-2.774-1.733-.813-3.232-1.937-2.031-.416-3.531-1.541-.534-2.412-2.033-3.536-1.229-1.486-2.728-2.611-2.745.538-4.244-.585-1.382-1.277-2.879-2.4-.068-3.03-1.566-4.154-2.913.759-4.413-.366-.988-1.804-2.486-2.928-1.035-1.745-2.535-2.87-1.253-1.453-2.752-2.577-2.853.678-4.353-.448-1.284-1.412-2.784-2.537-1.692-.87-3.192-1.995-.335-2.681-1.836-3.807-1.23-1.487-2.731-2.613-2.286-.076-3.785-1.2-.879-1.955-2.38-3.081-1.143-1.604-2.644-2.73-1.727-.825-3.229-1.951-1.978-.496-3.482-1.624-1.217-3-3.097-3.003-1.341,2.203-2.84,3.327-1.825.69-3.324,1.815-.95,1.858-2.449,2.983-2.399-.076-3.898,1.049-1.591,1.003-3.091,2.128-.182,2.881-1.681,4.006-1.858.646-3.358,1.771-1.683.878-3.181,2.002-1.572,1.024-3.069,2.147-2.246.126-3.744,1.25-.341,2.67-1.841,3.795-2.64-.399-4.139.725-1.72.832-3.22,1.957-1.06,1.71-2.559,2.834-.995,1.8-2.496,2.925-1.16,1.578-2.659,2.703-2.165.24-3.665,1.365-2.056.385-3.557,1.511-.601,2.326-2.102,3.452-1.602.988-3.101,2.112-.874,1.961-2.375,3.087-2.207.185-3.708,1.311-.612,2.312-2.114,3.438-2.013.449-3.517,1.577-2.467.171-3.309,1.852,1.356,1.873,1.356,3.748-1.28,1.874-1.28,3.747.043,1.873.043,3.746.334,1.874.334,3.748-.291,1.875-.291,3.749-.291,1.874-.291,3.747.628,1.874.628,3.748-1.645,1.875-1.645,3.75,1.653,1.874,1.653,3.748-1.095,1.875-1.095,3.75,1.303,1.874,1.303,3.749.618,1.875.618,3.749-.903,1.875-.903,3.749-.549,1.875-.549,3.75-.69,1.875-.69,3.749-.374,1.875-.374,3.749.478,1.873.478,3.745,1.346,1.875,1.346,3.749-1.152,1.874-1.152,3.747-.739,1.875-.739,3.751-.246,1.874-.246,3.749.183,1.875.183,3.75.351,1.876.351,3.752,1.604,1.876,1.604,3.752-1.381,1.876-1.381,3.752.583,1.876.583,3.751,1.548,1.876,1.548,3.752-2.232,1.876-2.232,3.753,1.166,1.89.587,3.678c-.803,2.479-2.096,3.567-.743,4.871Z" style="fill: #fff;"/>
  <path d="M44.007,205.406c1.405,1.353,2.944-1.566,4.894-1.566s1.952,1.029,3.905,1.029,1.951-1.181,3.903-1.181,1.952,1.578,3.904,1.578,1.953-1.195,3.906-1.195,1.953.466,3.906.466,1.953.355,3.906.355,1.953.512,3.905.512,1.953-1.637,3.906-1.637,1.953.493,3.907.493,1.956.844,3.913.844,2.464.587,3.877-.767c1.353-1.296-.098-1.836-.098-3.71s1.122-1.874,1.122-3.749-1.639-1.874-1.639-3.748.571-1.875.571-3.749-.775-1.874-.775-3.748.412-1.874.412-3.748.027-1.872.027-3.744,1.331-1.874,1.331-3.749-.851-1.873-.851-3.747,1.255-1.875,1.255-3.75-.997-1.874-.997-3.748.499-1.875.499-3.75.545-1.876.545-3.751-2.627-1.876-2.627-3.751,1.467-1.876,1.467-3.751-.197-1.875-.197-3.75,1.322-1.875,1.322-3.751-1.094-1.876-1.094-3.752.474-1.879.474-3.758-1.735-2.127-.409-3.457,1.573-.329,3.447-.329,1.872-1.052,3.744-1.052,1.874.541,3.748.541,1.873.374,3.746.374,1.875-.508,3.75-.508,1.874,1.435,3.747,1.435,1.875-1.136,3.749-1.136,1.875,1.763,3.751,1.763,1.875-1.515,3.751-1.515,1.875-.267,3.751-.267,1.875.018,3.75.018,1.875.559,3.75.559,1.876-1.57,3.751-1.57,1.879,2.316,3.757,2.316,1.754-1.581,3.084-.255.735,1.199.735,3.073,1.109,1.874,1.109,3.749-.903,1.874-.903,3.748-1.665,1.875-1.665,3.749.928,1.874.928,3.748-.604,1.874-.604,3.748,1.566,1.872,1.566,3.744.084,1.874.084,3.749-.693,1.873-.693,3.747-.294,1.875-.294,3.75,1.746,1.874,1.746,3.748-2.361,1.875-2.361,3.75,2.258,1.876,2.258,3.751-2.666,1.876-2.666,3.751.116,1.876.116,3.751.517,1.875.517,3.75.159,1.875.159,3.751-.462,1.876-.462,3.752,1.247,1.879,1.247,3.758-1.881,2.855-.528,4.158c1.405,1.353,2.337-.903,4.287-.903s1.952-.565,3.905-.565,1.951,2.267,3.903,2.267,1.952,0,3.904,0,1.953-1.801,3.906-1.801,1.953.137,3.906.137,1.953-.417,3.906-.417,1.953,2.102,3.905,2.102,1.953-1.497,3.906-1.497,1.953,1.381,3.907,1.381,1.956-.518,3.913-.518,2.864,1.148,4.277-.206c1.354-1.297.182-2.255.182-4.13s.265-1.874.265-3.747-1.312-1.873-1.312-3.746,1.43-1.874,1.43-3.748-1.855-1.875-1.855-3.749-.388-1.874-.388-3.747,1.032-1.874,1.032-3.748-.673-1.875-.673-3.75,1.217-1.874,1.217-3.748.734-1.875.734-3.75-2.175-1.874-2.175-3.749.09-1.875.09-3.749,1.392-1.875,1.392-3.749-1.644-1.875-1.644-3.75,2.814-1.875,2.814-3.749-.399-1.875-.399-3.749-1.969-1.873-1.969-3.745.609-1.875.609-3.749,1.105-1.874,1.105-3.747.642-1.875.642-3.751-1.005-1.874-1.005-3.749.945-1.875.945-3.75-1.583-1.876-1.583-3.752-1.026-1.876-1.026-3.752.205-1.876.205-3.752-.138-1.876-.138-3.751.046-1.876.046-3.752-.085-1.876-.085-3.753.857-1.879.857-3.759,1.143-2.068.304-3.75-.94-1.854-2.439-2.978-2.526.244-4.025-.88-1.106-1.65-2.606-2.774-1.733-.813-3.232-1.937-2.031-.416-3.531-1.541-.534-2.412-2.033-3.536-1.229-1.486-2.728-2.611-2.745.538-4.244-.585-1.382-1.277-2.879-2.4-.068-3.03-1.566-4.154-2.913.759-4.413-.366-.988-1.804-2.486-2.928-1.035-1.745-2.535-2.87-1.253-1.453-2.752-2.577-2.853.678-4.353-.448-1.284-1.412-2.784-2.537-1.692-.87-3.192-1.995-.335-2.681-1.836-3.807-1.23-1.487-2.731-2.613-2.286-.076-3.785-1.2-.879-1.955-2.38-3.081-1.143-1.604-2.644-2.73-1.727-.825-3.229-1.951-1.978-.496-3.482-1.624-1.217-3-3.097-3.003-1.341,2.203-2.84,3.327-1.825.69-3.324,1.815-.95,1.858-2.449,2.983-2.399-.076-3.898,1.049-1.591,1.003-3.091,2.128-.182,2.881-1.681,4.006-1.858.646-3.358,1.771-1.683.878-3.181,2.002-1.572,1.024-3.069,2.147-2.246.126-3.744,1.25-.341,2.67-1.841,3.795-2.64-.399-4.139.725-1.72.832-3.22,1.957-1.06,1.71-2.559,2.834-.995,1.8-2.496,2.925-1.16,1.578-2.659,2.703-2.165.24-3.665,1.365-2.056.385-3.557,1.511-.601,2.326-2.102,3.452-1.602.988-3.101,2.112-.874,1.961-2.375,3.087-2.207.185-3.708,1.311-.612,2.312-2.114,3.438-2.013.449-3.517,1.577-2.467.171-3.309,1.852,1.356,1.873,1.356,3.748-1.28,1.874-1.28,3.747.043,1.873.043,3.746.334,1.874.334,3.748-.291,1.875-.291,3.749-.291,1.874-.291,3.747.628,1.874.628,3.748-1.645,1.875-1.645,3.75,1.653,1.874,1.653,3.748-1.095,1.875-1.095,3.75,1.303,1.874,1.303,3.749.618,1.875.618,3.749-.903,1.875-.903,3.749-.549,1.875-.549,3.75-.69,1.875-.69,3.749-.374,1.875-.374,3.749.478,1.873.478,3.745,1.346,1.875,1.346,3.749-1.152,1.874-1.152,3.747-.739,1.875-.739,3.751-.246,1.874-.246,3.749.183,1.875.183,3.75.351,1.876.351,3.752,1.604,1.876,1.604,3.752-1.381,1.876-1.381,3.752.583,1.876.583,3.751,1.548,1.876,1.548,3.752-2.232,1.876-2.232,3.753,1.166,1.89.587,3.678c-.803,2.479-2.096,3.567-.743,4.871Z" style="fill: none; stroke: #000; stroke-miterlimit: 10; stroke-width: 22.5px;"/>
</svg>