<?xml version="1.0" encoding="UTF-8"?>
<svg id="SM_Icons" data-name="SM Icons" xmlns="http://www.w3.org/2000/svg" width="200" height="200" viewBox="0 0 200 200">
  <path d="M134.178,89.788l-9.325,6.796-7.122,9.048-6.797,9.392-9.718,7.293-.854-13.401,2.79-12.842-3.116-12.846,3.644-12.85-4.173-12.846,4.342-12.855-.42-12.855M65.708,88.167l7.812,9.616,9.968,7.318,10.299,6.979,8.2,9.21M34.444,131.046l-1.652,10.686,1.499,10.693,1.381,9.388,11.037.659,12.185-.539,12.183,2.79,12.184-3.116,12.184,3.644,12.18-4.173,12.184,4.342,12.188-.42,12.184.034,12.192-2.863,10.811-.586,2.981-9.458-1.441-10.998.662-10.998" style="fill: none; stroke: #000; stroke-linecap: round; stroke-linejoin: round; stroke-width: 23px;"/>
</svg>