<?xml version="1.0" encoding="UTF-8"?>
<svg id="SM_Icons" data-name="SM Icons" xmlns="http://www.w3.org/2000/svg" width="200" height="200" viewBox="0 0 200 200">
  <path d="M69.025,146.543l.703-12.747.6-12.743.097-12.746-1.774-12.751,3.666-12.747-2.607-12.756-1.225-14.067,12.966-2.054,11.268-3.303,12.254,1.883,10.768-5.982,11.554-1.812,11.677-1.206,12.17-2.137-.286,11.939,1.478,11.256-1.751,11.252-2.062,11.255,1.239,11.259,1.567,11.256-2.438,11.263,2.729,11.263M49.93,139.948l-11.238,1.54-7.476,8.091,7.188,8.726,11.527.531,12.309,1.191,5.787-10.448-7.557-6.553-10.54-3.078ZM134.811,129.151l-11.238,1.54-7.476,8.091,7.188,8.726,11.527.531,12.309,1.191,5.787-10.448-7.557-6.553-10.54-3.078Z" style="fill: none; stroke: #000; stroke-linecap: round; stroke-linejoin: round; stroke-width: 23px;"/>
  <polyline points="36.219 38.076 43.926 47.626 53.421 55.352 62.476 63.524 70.022 73.238 80.542 79.916 86.32 91.442 95.422 99.568 106.709 105.46 114.569 114.853 123.265 123.392 130.207 133.729 138.377 142.816 148.285 150.122 155.714 159.972 164.966 167.961" style="fill: none; stroke: #000; stroke-linecap: round; stroke-linejoin: round; stroke-width: 23px;"/>
</svg>