<?xml version="1.0" encoding="UTF-8"?>
<svg id="Big_Assets" data-name="Big Assets" xmlns="http://www.w3.org/2000/svg" width="700" height="700" viewBox="0 0 700 700">
  <g>
    <path d="M613.928,350c0,4.769-2.707,9.447-2.958,14.153-.254,4.759,1.387,9.64.883,14.329-.509,4.736,1.282,9.877.525,14.534-.765,4.699-6.732,8.429-7.742,13.04-1.018,4.648.629,9.919-.633,14.47-1.27,4.583-1.574,9.542-3.082,14.02-1.517,4.505-4.584,8.514-6.336,12.905s-2.222,9.466-4.211,13.757-4.111,8.693-6.331,12.872c-2.227,4.193-6.421,7.347-8.865,11.4s-6.843,6.827-9.504,10.743-6.273,7.003-9.142,10.771-4.404,8.475-7.473,12.084-7.574,5.777-10.833,9.217c-3.26,3.441-2.009,11.399-5.45,14.66s-10.141,2.968-13.753,6.039-6.712,6.692-10.486,9.565-7.98,5.052-11.904,7.718-5.669,8.806-9.733,11.256-10.79.212-14.983,2.44-7.003,7.104-11.312,9.101-8.526,4.29-12.939,6.05-8.461,4.739-12.965,6.256c-4.478,1.508-9.671,1.067-14.254,2.337-4.552,1.261-9.609.515-14.256,1.534-4.611,1.01-8.535,6.002-13.234,6.767-4.657.758-9.518,1.385-14.254,1.894-4.689.504-9.613.129-14.373.383-4.706.251-9.562-2.244-14.33-2.244s-9.356-2.528-14.063-2.779c-4.759-.254-9.291-1.002-13.98-1.506-4.736-.509-9.698,1.564-14.355.806-4.699-.765-9.923,1.065-14.534.054-4.648-1.018-9.632-1.239-14.184-2.501-4.583-1.27-8.1-6.23-12.579-7.739-4.505-1.517-8.334-4.642-12.726-6.393s-10.47.307-14.762-1.682-6.261-8.683-10.439-10.903-10.058-1.374-14.112-3.818-7.004-6.629-10.921-9.29-10.473-1.783-14.241-4.652-6.074-7.764-9.683-10.832c-3.612-3.071-8.567-4.811-12.006-8.07s-6.81-6.82-10.071-10.26-2.401-10.593-5.472-14.206-10.354-3.847-13.227-7.62c-2.869-3.768-5.429-7.953-8.095-11.877s-3.897-8.87-6.348-12.934-1.287-10.095-3.514-14.287-8.426-6.346-10.423-10.654c-1.989-4.291-2.492-9.286-4.251-13.699s-1.339-9.535-2.856-14.039c-1.508-4.478-6.655-7.852-7.925-12.434-1.261-4.552.286-9.845-.733-14.492-1.01-4.611-2.59-9.104-3.355-13.803-.758-4.657-.942-9.391-1.451-14.127-.504-4.689-2.212-9.307-2.466-14.066-.251-4.706-1.13-9.48-1.13-14.249s-1.851-9.688-1.6-14.395c.254-4.759,3.251-9.387,3.755-14.076.509-4.736,2.493-9.257,3.251-13.914.765-4.699-1.382-9.988-.371-14.599,1.018-4.648,6.454-8.201,7.715-12.753,1.27-4.583.909-9.595,2.418-14.074,1.517-4.505.408-10.044,2.159-14.435s3.128-9.174,5.116-13.466,7.1-7.179,9.32-11.358,4.242-8.524,6.686-12.578,7.793-6.203,10.453-10.12,1.152-10.846,4.021-14.615,6.859-6.783,9.928-10.392,5.694-7.752,8.953-11.192,8.088-5.401,11.529-8.661,7.505-5.801,11.118-8.872,4.718-9.37,8.492-12.243c3.768-2.869,10.634-1.53,14.558-4.196s6.198-7.884,10.262-10.335,9.733-2.033,13.925-4.26,8.604-3.731,12.913-5.728,7.327-6.842,11.74-8.602,8.272-5.25,12.776-6.767c4.478-1.508,9.96-.077,14.543-1.347,4.552-1.261,8.643-4.727,13.29-5.745,4.611-1.01,9.863.955,14.561.191,4.657-.758,9.465-.091,14.2-.6,4.689-.504,9.399.714,14.158.46,4.706-.251,9.261-4.552,14.03-4.552s9.39,3.057,14.097,3.308c4.759.254,9.391.394,14.08.898,4.736.509,9.529-.106,14.186.652,4.699.765,9.711-.154,14.323.857,4.648,1.018,8.919,3.58,13.471,4.841,4.583,1.27,9.301,2.05,13.78,3.559,4.505,1.517,9.376,2.141,13.767,3.892s9.003,3.309,13.294,5.298,6.306,8.547,10.485,10.767,8.586,3.785,12.64,6.229,8.881,3.566,12.797,6.227,7.722,5.439,11.49,8.308,8.247,4.867,11.856,7.935,8.801,4.526,12.241,7.785,4.775,8.74,8.035,12.181,5.58,7.685,8.651,11.297,4.323,8.533,7.196,12.307,11.007,3.757,13.672,7.682c2.661,3.917,4.906,8.309,7.357,12.373,2.444,4.053-.185,10.993,2.043,15.185s4.205,8.312,6.202,12.621,3.681,8.549,5.44,12.962,9.522,6.6,11.039,11.105c1.508,4.478-.062,10.029,1.207,14.612,1.261,4.552,5.409,8.515,6.427,13.163,1.01,4.611.307,9.717,1.072,14.415.758,4.657-.718,9.679-.209,14.415.504,4.689.358,9.424.612,14.183.251,4.706,2.676,9.399,2.676,14.168Z" style="fill: #fff;"/>
    <path d="M613.928,350c0,4.769-2.707,9.447-2.958,14.153-.254,4.759,1.387,9.64.883,14.329-.509,4.736,1.282,9.877.525,14.534-.765,4.699-6.732,8.429-7.742,13.04-1.018,4.648.629,9.919-.633,14.47-1.27,4.583-1.574,9.542-3.082,14.02-1.517,4.505-4.584,8.514-6.336,12.905s-2.222,9.466-4.211,13.757-4.111,8.693-6.331,12.872c-2.227,4.193-6.421,7.347-8.865,11.4s-6.843,6.827-9.504,10.743-6.273,7.003-9.142,10.771-4.404,8.475-7.473,12.084-7.574,5.777-10.833,9.217c-3.26,3.441-2.009,11.399-5.45,14.66s-10.141,2.968-13.753,6.039-6.712,6.692-10.486,9.565-7.98,5.052-11.904,7.718-5.669,8.806-9.733,11.256-10.79.212-14.983,2.44-7.003,7.104-11.312,9.101-8.526,4.29-12.939,6.05-8.461,4.739-12.965,6.256c-4.478,1.508-9.671,1.067-14.254,2.337-4.552,1.261-9.609.515-14.256,1.534-4.611,1.01-8.535,6.002-13.234,6.767-4.657.758-9.518,1.385-14.254,1.894-4.689.504-9.613.129-14.373.383-4.706.251-9.562-2.244-14.33-2.244s-9.356-2.528-14.063-2.779c-4.759-.254-9.291-1.002-13.98-1.506-4.736-.509-9.698,1.564-14.355.806-4.699-.765-9.923,1.065-14.534.054-4.648-1.018-9.632-1.239-14.184-2.501-4.583-1.27-8.1-6.23-12.579-7.739-4.505-1.517-8.334-4.642-12.726-6.393s-10.47.307-14.762-1.682-6.261-8.683-10.439-10.903-10.058-1.374-14.112-3.818-7.004-6.629-10.921-9.29-10.473-1.783-14.241-4.652-6.074-7.764-9.683-10.832c-3.612-3.071-8.567-4.811-12.006-8.07s-6.81-6.82-10.071-10.26-2.401-10.593-5.472-14.206-10.354-3.847-13.227-7.62c-2.869-3.768-5.429-7.953-8.095-11.877s-3.897-8.87-6.348-12.934-1.287-10.095-3.514-14.287-8.426-6.346-10.423-10.654c-1.989-4.291-2.492-9.286-4.251-13.699s-1.339-9.535-2.856-14.039c-1.508-4.478-6.655-7.852-7.925-12.434-1.261-4.552.286-9.845-.733-14.492-1.01-4.611-2.59-9.104-3.355-13.803-.758-4.657-.942-9.391-1.451-14.127-.504-4.689-2.212-9.307-2.466-14.066-.251-4.706-1.13-9.48-1.13-14.249s-1.851-9.688-1.6-14.395c.254-4.759,3.251-9.387,3.755-14.076.509-4.736,2.493-9.257,3.251-13.914.765-4.699-1.382-9.988-.371-14.599,1.018-4.648,6.454-8.201,7.715-12.753,1.27-4.583.909-9.595,2.418-14.074,1.517-4.505.408-10.044,2.159-14.435s3.128-9.174,5.116-13.466,7.1-7.179,9.32-11.358,4.242-8.524,6.686-12.578,7.793-6.203,10.453-10.12,1.152-10.846,4.021-14.615,6.859-6.783,9.928-10.392,5.694-7.752,8.953-11.192,8.088-5.401,11.529-8.661,7.505-5.801,11.118-8.872,4.718-9.37,8.492-12.243c3.768-2.869,10.634-1.53,14.558-4.196s6.198-7.884,10.262-10.335,9.733-2.033,13.925-4.26,8.604-3.731,12.913-5.728,7.327-6.842,11.74-8.602,8.272-5.25,12.776-6.767c4.478-1.508,9.96-.077,14.543-1.347,4.552-1.261,8.643-4.727,13.29-5.745,4.611-1.01,9.863.955,14.561.191,4.657-.758,9.465-.091,14.2-.6,4.689-.504,9.399.714,14.158.46,4.706-.251,9.261-4.552,14.03-4.552s9.39,3.057,14.097,3.308c4.759.254,9.391.394,14.08.898,4.736.509,9.529-.106,14.186.652,4.699.765,9.711-.154,14.323.857,4.648,1.018,8.919,3.58,13.471,4.841,4.583,1.27,9.301,2.05,13.78,3.559,4.505,1.517,9.376,2.141,13.767,3.892s9.003,3.309,13.294,5.298,6.306,8.547,10.485,10.767,8.586,3.785,12.64,6.229,8.881,3.566,12.797,6.227,7.722,5.439,11.49,8.308,8.247,4.867,11.856,7.935,8.801,4.526,12.241,7.785,4.775,8.74,8.035,12.181,5.58,7.685,8.651,11.297,4.323,8.533,7.196,12.307,11.007,3.757,13.672,7.682c2.661,3.917,4.906,8.309,7.357,12.373,2.444,4.053-.185,10.993,2.043,15.185s4.205,8.312,6.202,12.621,3.681,8.549,5.44,12.962,9.522,6.6,11.039,11.105c1.508,4.478-.062,10.029,1.207,14.612,1.261,4.552,5.409,8.515,6.427,13.163,1.01,4.611.307,9.717,1.072,14.415.758,4.657-.718,9.679-.209,14.415.504,4.689.358,9.424.612,14.183.251,4.706,2.676,9.399,2.676,14.168Z" style="fill: none; stroke: #000; stroke-linecap: round; stroke-linejoin: round; stroke-width: 50px;"/>
  </g>
  <g>
    <path d="M200.052,367.073c4.676-5.756,2.927-7.177,7.603-12.933s6.186-4.531,10.862-10.289,2.875-7.219,7.551-12.975,4.038-6.274,8.714-12.031,5.473-5.11,10.149-10.868,4.878-5.595,9.555-11.353,6.255-4.475,10.931-10.232c4.677-5.758,3.777-6.488,8.454-12.246s6.602-4.194,11.279-9.952,2.652-7.4,7.327-13.156,4.133-6.199,8.809-11.957c4.678-5.76,5.484-5.105,10.163-10.864s6.548-4.238,11.224-9.996c4.68-5.762,3.304-6.879,7.984-12.641s3.303-6.88,7.983-12.641c3.103-3.82,8.171-5.551,12.254-7.716,4.238-2.248,8.501-6.027,13.203-6.44s9.667,2.23,14.232,3.704c4.398,1.421,6.536,6.095,10.258,9.316,5.276,4.566,8.163,1.23,13.439,5.796s5.761,4.003,11.036,8.569,3.66,6.432,8.935,10.998,5.675,4.101,10.949,8.666,4.907,4.988,10.181,9.553c5.275,4.566,3.679,6.41,8.955,10.976s8.771.53,14.049,5.098,5.43,4.388,10.706,8.953,5.396,4.434,10.675,9.003,3.445,6.689,8.724,11.258c3.528,3.054,8.778,5.428,10.798,9.347,2.09,4.054-1.846,10.007-1.419,14.48s3.494,9.009,2.209,13.386c-1.242,4.23-4.682,7.602-7.569,11.268-4.331,5.5-3.771,5.941-8.102,11.441s-6.042,4.155-10.374,9.657-3.832,5.897-8.165,11.4-2.623,6.848-6.956,12.349-3.85,5.882-8.182,11.384-7.929,2.67-12.262,8.173-3.899,5.846-8.233,11.349-2.342,7.07-6.675,12.573-5.071,4.922-9.404,10.425-3.237,6.364-7.57,11.865c-4.332,5.501-2.077,7.278-6.409,12.779s-8.154,2.494-12.488,7.997-.988,8.141-5.323,13.645c-4.334,5.503-7.416,3.075-11.75,8.578s-5.145,4.87-9.482,10.376c-4.337,5.507-2.636,6.846-6.973,12.353-3.097,3.933-5.062,10.062-9.186,12.296-4.286,2.322-10.213,4.177-14.988,4.608s-10.184-2.638-14.816-4.154c-4.458-1.459-9.669-3.219-13.42-6.534-5.357-4.733-3.161-7.219-8.518-11.953-5.356-4.733-8.275-1.429-13.632-6.162s-5.107-5.016-10.464-9.75-5.948-4.061-11.304-8.793-5.101-5.021-10.456-9.753-1.105-9.546-6.462-14.279-7.975-1.774-13.334-6.509-5.412-4.671-10.77-9.404-5.502-4.577-10.863-9.314-4.158-6.099-9.519-10.835c-3.509-3.1-7.216-5.876-9.197-9.829-2.05-4.091-1.954-8.761-2.326-13.254s-1.577-9.19-.227-13.562c1.305-4.225,4.674-7.609,7.625-11.243Z" style="fill: #fff;"/>
    <path d="M200.052,367.073c4.676-5.756,2.927-7.177,7.603-12.933s6.186-4.531,10.862-10.289,2.875-7.219,7.551-12.975,4.038-6.274,8.714-12.031,5.473-5.11,10.149-10.868,4.878-5.595,9.555-11.353,6.255-4.475,10.931-10.232c4.677-5.758,3.777-6.488,8.454-12.246s6.602-4.194,11.279-9.952,2.652-7.4,7.327-13.156,4.133-6.199,8.809-11.957c4.678-5.76,5.484-5.105,10.163-10.864s6.548-4.238,11.224-9.996c4.68-5.762,3.304-6.879,7.984-12.641s3.303-6.88,7.983-12.641c3.103-3.82,8.171-5.551,12.254-7.716,4.238-2.248,8.501-6.027,13.203-6.44s9.667,2.23,14.232,3.704c4.398,1.421,6.536,6.095,10.258,9.316,5.276,4.566,8.163,1.23,13.439,5.796s5.761,4.003,11.036,8.569,3.66,6.432,8.935,10.998,5.675,4.101,10.949,8.666,4.907,4.988,10.181,9.553c5.275,4.566,3.679,6.41,8.955,10.976s8.771.53,14.049,5.098,5.43,4.388,10.706,8.953,5.396,4.434,10.675,9.003,3.445,6.689,8.724,11.258c3.528,3.054,8.778,5.428,10.798,9.347,2.09,4.054-1.846,10.007-1.419,14.48s3.494,9.009,2.209,13.386c-1.242,4.23-4.682,7.602-7.569,11.268-4.331,5.5-3.771,5.941-8.102,11.441s-6.042,4.155-10.374,9.657-3.832,5.897-8.165,11.4-2.623,6.848-6.956,12.349-3.85,5.882-8.182,11.384-7.929,2.67-12.262,8.173-3.899,5.846-8.233,11.349-2.342,7.07-6.675,12.573-5.071,4.922-9.404,10.425-3.237,6.364-7.57,11.865c-4.332,5.501-2.077,7.278-6.409,12.779s-8.154,2.494-12.488,7.997-.988,8.141-5.323,13.645c-4.334,5.503-7.416,3.075-11.75,8.578s-5.145,4.87-9.482,10.376c-4.337,5.507-2.636,6.846-6.973,12.353-3.097,3.933-5.062,10.062-9.186,12.296-4.286,2.322-10.213,4.177-14.988,4.608s-10.184-2.638-14.816-4.154c-4.458-1.459-9.669-3.219-13.42-6.534-5.357-4.733-3.161-7.219-8.518-11.953-5.356-4.733-8.275-1.429-13.632-6.162s-5.107-5.016-10.464-9.75-5.948-4.061-11.304-8.793-5.101-5.021-10.456-9.753-1.105-9.546-6.462-14.279-7.975-1.774-13.334-6.509-5.412-4.671-10.77-9.404-5.502-4.577-10.863-9.314-4.158-6.099-9.519-10.835c-3.509-3.1-7.216-5.876-9.197-9.829-2.05-4.091-1.954-8.761-2.326-13.254s-1.577-9.19-.227-13.562c1.305-4.225,4.674-7.609,7.625-11.243Z" style="fill: none; stroke: #000; stroke-linecap: round; stroke-linejoin: round; stroke-width: 50px;"/>
  </g>
  <path d="M298.46,251.576c5.529,4.354,3.632,6.762,9.161,11.116s5.064,4.945,10.594,9.299,7.95,1.28,13.478,5.633,1.726,9.182,7.255,13.536,7.106,2.352,12.636,6.706,7.443,1.926,12.973,6.282,4.435,5.744,9.964,10.098,3.792,6.562,9.322,10.917,7.093,2.367,12.622,6.72,3.169,7.35,8.697,11.704,7.552,1.787,13.082,6.142,4.624,5.509,10.156,9.865,7.594,1.734,13.124,6.089c5.534,4.358,3.2,7.321,8.734,11.679s6.419,3.234,11.952,7.592" style="fill: none; stroke: #000; stroke-linecap: round; stroke-linejoin: round; stroke-width: 50px;"/>
</svg>