<?xml version="1.0" encoding="UTF-8"?>
<svg id="Small" xmlns="http://www.w3.org/2000/svg" width="160" height="160" viewBox="0 0 160 160">
  <path d="M62.438,108.23c1.93.074,1.747-.795,3.112-2.16s.264-2.471,1.631-3.838,2.962.227,4.33-1.14-.264-2.999,1.104-4.367,2.307-.433,3.677-1.803.62-1.769,2.557-1.773.876.702,2.241,2.068,1.033,1.701,2.401,3.068,3.134-.399,4.501.969.499,2.237,1.867,3.605.619,2.121,1.989,3.491,1.489,2.408,3.426,2.339c2.08-.074,1.866-1.342,3.338-2.814s.276-2.672,1.75-4.146,3.635-.072,3.714-2.155c.074-1.93-1.523-1.18-2.889-2.545s-.94-1.794-2.308-3.161-2.329-.406-3.696-1.774-1.693-1.042-3.061-2.41-.95-1.79-2.32-3.16-3.294-1.425-3.297-3.363,2.185-1.729,3.551-3.095,1.783-.951,3.151-2.318,1.359-1.376,2.727-2.743,2.264-.472,3.632-1.839,1.119-1.621,2.489-2.991,3.158-1.532,3.088-3.469c-.074-2.08-3.349-.597-4.82-2.069s-1.645-1.303-3.119-2.777.148-4.012-1.935-4.091c-1.93-.074-.977,1.895-2.342,3.261s-1.457,1.277-2.825,2.644-1.393,1.342-2.761,2.709-2.408.327-3.776,1.695-1.027,1.713-2.397,3.083-.384,2.468-2.322,2.471-2.213.17-3.579-1.195-.243-2.492-1.61-3.859-1.825-.91-3.192-2.278-1.115-1.62-2.483-2.988-1.457-1.283-2.827-2.653-.806-3.333-2.743-3.264c-2.08.074-2.362,1.072-3.834,2.543s.255,3.204-1.219,4.678-4.229.023-4.308,2.107c-.074,1.93,2.178,1.113,3.543,2.479s.744,1.991,2.111,3.358.956,1.779,2.323,3.147,2.936-.201,4.304,1.167.071,2.669,1.441,4.039,3.826.309,3.829,2.247-.992,2.338-2.357,3.703-2.148.586-3.515,1.954-1.513,1.222-2.88,2.59-1.953.782-3.321,2.15-1.715,1.025-3.085,2.395-2.065,1.695-1.996,3.631c.074,2.08,1.564,1.516,3.036,2.988s1.247,1.567,2.417,3.293c1.205,1.777,1.453,2.292,3.536,2.371ZM47.277,137.01c-1.147,0-2.101-.849-3.138-1.119-1.073-.279-2.742.7-3.699.133-.92-.545-.391-2.974-1.203-3.786-.812-.812-3.286-.257-3.831-1.177-.567-.957.178-2.58-.1-3.653-.27-1.037.495-2.064.495-3.21,0-1.864-.461-1.864-.461-3.728s.472-1.865.472-3.73-2.498-1.865-2.498-3.729,1.229-1.865,1.229-3.73,1.062-1.865,1.062-3.73-.681-1.865-.681-3.731.297-1.865.297-3.73-1.694-1.865-1.694-3.73,1.095-1.863,1.095-3.726-.234-1.865-.234-3.73.604-1.864.604-3.728-1.359-1.866-1.359-3.731-.46-1.865-.46-3.729.594-1.865.594-3.731-.298-1.866-.298-3.733.67-1.866.67-3.733.589-1.866.589-3.733-.012-1.866-.012-3.732,1.267-1.866,1.267-3.732-.355-1.866-.355-3.733.063-1.869.063-3.739-.739-1.547-1.945-2.975c-1.018-1.206-.674.662-2.253.662s-2.102-.244-3.049-1.507c-1.263-1.683-.666-2.023-.666-4.126s.128-2.105.128-4.21-1.296-2.943.143-4.479c1.349-1.439,2.26,1.347,4.232,1.347s1.972-.485,3.945-.485,1.972.095,3.945.095,1.972-1.887,3.944-1.887,1.972,1.59,3.944,1.59,1.973-.646,3.945-.646,1.976.357,3.952.357,2.394,1.115,3.938-.119c1.233-.985.522-1.561.522-3.14s-.898-1.159.314-2.17c1.453-1.212,1.069-2.148,2.961-2.148s1.893,1.7,3.786,1.7,1.894-.926,3.788-.926,1.894.881,3.788.881,1.894.582,3.788.582,1.893-2.218,3.787-2.218,1.894,1.837,3.787,1.837,1.894-1.293,3.788-1.293,1.897-.776,3.794-.776,2.508-.047,3.966,1.167c1.213,1.01-.108,1.785-.108,3.364s-1.774,2.768-.541,3.754c1.54,1.232,2.45.656,4.423.656s1.972-1.111,3.945-1.111,1.972-.072,3.945-.072,1.972.632,3.944.632,1.972-1.961,3.944-1.961,1.973.415,3.945.415,1.976.724,3.952.724,3.306-1.983,4.658-.543c1.44,1.533-.821,2.768-.821,4.871s.918,2.105.918,4.21.87,2.834-.393,4.518c-.947,1.263-1.989-.119-3.567-.119s-2.066-1.334-3.087-.129c-1.205,1.423-.568,1.804-.568,3.669s.91,1.865.91,3.73-.561,1.865-.561,3.729,1.247,1.865,1.247,3.73-2.107,1.865-2.107,3.73-.278,1.865-.278,3.731,1.511,1.865,1.511,3.73-1.452,1.865-1.452,3.73.689,1.863.689,3.726.842,1.865.842,3.73.245,1.864.245,3.728-1.797,1.866-1.797,3.731.827,1.865.827,3.729,1.465,1.865,1.465,3.731-.752,1.866-.752,3.733.585,1.866.585,3.733-1.349,1.866-1.349,3.733.656,1.866.656,3.732-1.155,1.866-1.155,3.732-.484,1.866-.484,3.733,1.927,1.869,1.927,3.739.08,1.869.08,3.739c0,1.147.683,2.595.413,3.633-.279,1.073-2.875,1.256-3.442,2.213-.545.92-1.375,1.308-2.188,2.121-.812.812-.546,2.747-1.466,3.292-.957.567-2.348-.072-3.421.206-1.037.27-1.932,1.783-3.079,1.783-1.857,0-1.857.218-3.713.218s-1.856-.922-3.712-.922-1.856-.057-3.712-.057-1.854,1.034-3.708,1.034-1.856-1.529-3.713-1.529-1.855.912-3.71.912-1.857-1.769-3.714-1.769-1.856,1.525-3.712,1.525-1.857-.574-3.714-.574-1.858-.591-3.715-.591-1.858.206-3.715.206-1.858,1.876-3.715,1.876-1.857.129-3.714.129-1.857.152-3.715.152-1.858-2.044-3.716-2.044-1.874.371-3.734.432-1.848.565-3.709.565ZM110.289,42.244c-1.308-1.317-1.727-.678-3.583-.678s-1.856,1.561-3.712,1.561-1.856-2.255-3.712-2.255-1.854,2.307-3.708,2.307-1.856-1.326-3.713-1.326-1.855-.891-3.71-.891-1.857.461-3.714.461-1.856-.472-3.712-.472-1.857,2.498-3.714,2.498-1.858-1.229-3.715-1.229-1.858-1.062-3.715-1.062-1.858.681-3.715.681-1.857-.297-3.714-.297-1.857,1.694-3.715,1.694-1.858-1.095-3.716-1.095-1.861.234-3.722.234-2.649-1.82-3.964-.503,1.259,2.106,1.259,3.97.46,1.865.46,3.73-.594,1.865-.594,3.729.298,1.865.298,3.73-.67,1.865-.67,3.73-.589,1.865-.589,3.731.012,1.865.012,3.73-1.267,1.865-1.267,3.73.355,1.863.355,3.726-.063,1.865-.063,3.73,2.224,1.864,2.224,3.728.242,1.866.242,3.731-1.561,1.865-1.561,3.729.693,1.865.693,3.731-.128,1.866-.128,3.733-.037,1.866-.037,3.733-1.472,1.866-1.472,3.733.485,1.866.485,3.732-.095,1.866-.095,3.732,1.887,1.866,1.887,3.733-1.59,1.869-1.59,3.739-.745,2.232.572,3.559c1.308,1.317,1.675.281,3.532.281s1.856-.124,3.712-.124,1.856.531,3.712.531,1.854.776,3.708.776,1.856-2.446,3.713-2.446,1.855,1.7,3.71,1.7,1.857-.926,3.714-.926,1.856.881,3.712.881,1.857.582,3.714.582,1.858-2.218,3.715-2.218,1.858,1.837,3.715,1.837,1.858-1.293,3.715-1.293,1.857-.776,3.714-.776,1.857,1.104,3.715,1.104,1.858.205,3.716.205,1.861.828,3.722.828,3.294,1.437,4.608.12-.745-2.749-.745-4.613-.072-1.865-.072-3.73.632-1.865.632-3.729-1.961-1.865-1.961-3.73.415-1.865.415-3.73.724-1.865.724-3.731-.849-1.865-.849-3.73,1.084-1.865,1.084-3.73-.918-1.863-.918-3.726.29-1.865.29-3.73.324-1.864.324-3.728.096-1.866.096-3.731.59-1.865.59-3.729-.91-1.865-.91-3.731.561-1.866.561-3.733-1.247-1.866-1.247-3.733,2.107-1.866,2.107-3.733.278-1.866.278-3.732-1.511-1.866-1.511-3.732,1.452-1.866,1.452-3.733-1.06-1.801-.699-3.635c.373-1.89.66-2.387-.657-3.714ZM47.094,42.115c0-1.864-.365,1.864-.365,3.728s1.561,1.865,1.561,3.73-2.255,1.865-2.255,3.729,2.307,1.865,2.307,3.73-1.326,1.865-1.326,3.73-.891,1.865-.891,3.731.461,1.865.461,3.73-.472,1.865-.472,3.73,2.498,1.863,2.498,3.726-1.229,1.865-1.229,3.73-1.062,1.864-1.062,3.728.681,1.866.681,3.731-.297,1.865-.297,3.729,1.694,1.865,1.694,3.731-1.095,1.866-1.095,3.733.234,1.866.234,3.733-.604,1.866-.604,3.733,1.359,1.866,1.359,3.732.46,1.866.46,3.732-.594,1.866-.594,3.733.298,1.869.298,3.739-.67,1.869-.67,3.739-.435-1.864-.435-3.728-.012-1.865-.012-3.73,1.267-1.865,1.267-3.729-.355-1.865-.355-3.73.063-1.865.063-3.73-2.224-1.865-2.224-3.731-.242-1.865-.242-3.73,1.561-1.865,1.561-3.73-.693-1.863-.693-3.726.128-1.865.128-3.73.037-1.864.037-3.728,1.472-1.866,1.472-3.731-.485-1.865-.485-3.729.095-1.865.095-3.731-1.887-1.866-1.887-3.733,1.59-1.866,1.59-3.733-.646-1.866-.646-3.733.357-1.866.357-3.732-.124-1.866-.124-3.732.531-1.866.531-3.733.837-1.912.776-3.781-1.467-1.828-1.467-3.697Z" style="fill: #4d4d4d;"/>
</svg>