<?xml version="1.0" encoding="UTF-8"?>
<svg id="Small" xmlns="http://www.w3.org/2000/svg" width="400" height="400" viewBox="0 0 400 400">
  <path d="M282.477,162.366c0,1.268.082,2.494.043,3.752-.039,1.267.229,2.512.151,3.768-.078,1.265-.219,2.493-.336,3.747-.118,1.261,2.13,2.787,1.974,4.036-.157,1.257-1.054,2.442-1.249,3.686-.197,1.251-1.418,2.33-1.653,3.568s-.372,2.5-.646,3.73-.496,2.479-.809,3.7c-.314,1.226.201,2.689-.15,3.9s-1.809,2.098-2.198,3.297c-.391,1.203-.006,2.674-.434,3.86s-2.215,1.859-2.68,3.031.206,2.813-.295,3.97-.753,2.451-1.29,3.592-1.485,2.102-2.059,3.225-.484,2.626-1.093,3.731-1,2.381-1.643,3.466c-.644,1.087-1.775,1.913-2.452,2.978s-1.885,1.802-2.595,2.845-1.401,2.111-2.144,3.131c-.743,1.021-1.74,1.855-2.514,2.852s-2.615,1.11-3.42,2.083c-.806.973-.849,2.559-1.684,3.505s-.493,2.982-1.358,3.903-3.176.447-4.069,1.34-1.34,2.224-2.261,3.089c-.92.864-1.613,1.98-2.56,2.816s-2.541.899-3.514,1.705c-.972.805-.919,2.892-1.917,3.667-.997.774-2.486.92-3.508,1.663s-2.473.858-3.517,1.569-1.703,1.988-2.769,2.666-2.533.681-3.62,1.325-1.791,1.933-2.898,2.543c-1.105.609-2.348.955-3.474,1.53-1.123.574-2.704.167-3.847.706-1.141.538-1.494,2.797-2.654,3.299s-2.611.313-3.787.779-1.825,2.368-3.015,2.797-3.31-1.879-4.513-1.488-1.993,2.023-3.208,2.375-2.45.588-3.676.902-2.223,1.597-3.458,1.872c-1.23.274-2.567.14-3.811.376s-2.662-.606-3.913-.41c-1.244.195-2.347,1.385-3.604,1.542-1.25.156-2.432,1.21-3.693,1.328-1.254.117-2.603-.579-3.867-.501-1.257.078-2.535.099-3.802.138-1.258.039-2.535.175-3.803.175s-2.55.035-3.808-.003c-1.267-.039-2.455-1.593-3.712-1.671-1.265-.078-2.519.062-3.773-.055-1.261-.118-2.416-.904-3.665-1.06-1.257-.157-2.82,1.918-4.065,1.722-1.251-.197-2.176-2.265-3.414-2.5-1.244-.236-2.399-.73-3.629-1.004-1.236-.275-2.759.727-3.98.414-1.226-.314-2.79.521-4,.17s-2.418-.883-3.617-1.273-2.207-1.448-3.393-1.876-2.678-.152-3.85-.617-1.945-1.976-3.102-2.477-2.401-.853-3.541-1.391-2.014-1.643-3.138-2.217c-1.126-.575-3.022.259-4.127-.349s-1.839-1.943-2.924-2.586-1.092-3.03-2.157-3.707-3.222.32-4.266-.39-1.607-2.119-2.628-2.862-2.937-.328-3.933-1.103-.44-3.492-1.413-4.298c-.973-.806-3.441.137-4.388-.698-.947-.836-1.287-2.372-2.207-3.237-.92-.865-.64-2.942-1.533-3.835s-2.696-.871-3.56-1.792-2.002-1.596-2.837-2.544-2.188-1.478-2.993-2.45-1.31-2.217-2.085-3.214-1.755-1.867-2.499-2.888-.518-2.733-1.229-3.777-2.361-1.478-3.039-2.544c-.677-1.065-1.512-2.067-2.156-3.155s.595-3.245-.015-4.352-3.065-1.228-3.639-2.354-.619-2.532-1.158-3.675c-.538-1.141-.895-2.375-1.398-3.535s-2.12-1.881-2.586-3.056,1.214-3.166.785-4.356-3.049-1.634-3.439-2.837.093-2.702-.259-3.917c-.351-1.21-.774-2.424-1.088-3.65s.947-2.816.672-4.052-.027-2.532-.263-3.775-2.467-2.119-2.664-3.37c-.195-1.244.463-2.618.306-3.874-.156-1.25.246-2.548.129-3.81-.117-1.254.058-2.506-.02-3.77-.078-1.257.163-2.495.124-3.762-.039-1.258-1.518-2.48-1.518-3.747s.647-2.515.686-3.773c.039-1.267.493-2.488.571-3.744.078-1.265-1.551-2.657-1.433-3.91.118-1.261.806-2.474.963-3.723.157-1.257-.43-2.636-.234-3.88.197-1.251,2.699-2.096,2.934-3.334s.18-2.509.454-3.739.253-2.513.566-3.735c.314-1.226-1.21-2.962-.859-4.173s.639-2.493,1.029-3.692,1.513-2.188,1.94-3.374,2.474-1.76,2.939-2.932.161-2.647.663-3.804,1.757-1.957,2.295-3.098c.539-1.144-.39-2.999.184-4.122s2.594-1.477,3.203-2.582c.61-1.107.217-2.771.86-3.856.644-1.087,1.655-1.947,2.332-3.011.678-1.066,2.19-1.555,2.901-2.598s.284-2.869,1.027-3.889,1.572-1.983,2.346-2.98,2.555-1.166,3.36-2.138c.806-.973-.001-3.318.834-4.265.836-.947,3.399-.31,4.264-1.231.865-.92,1.525-1.984,2.418-2.877.893-.893.417-3.192,1.338-4.056s3.287-.13,4.234-.965.451-3.35,1.424-4.155,2.323-1.172,3.321-1.947,1.701-1.972,2.723-2.716,3.409.471,4.454-.24.987-3.067,2.053-3.745,1.712-2.096,2.799-2.74,3.139.376,4.246-.234c1.105-.609,2.555-.512,3.68-1.087,1.123-.574,1.935-1.72,3.079-2.259s1.985-1.719,3.145-2.222c1.157-.501,2.503-.544,3.679-1.01s2.102-1.576,3.292-2.005,2.74.232,3.943-.159,2.109-1.699,3.324-2.051,2.505-.414,3.731-.728,2.76.796,3.995.521,2.005-2.712,3.249-2.948c1.238-.235,2.648.456,3.899.259,1.244-.195,2.548.102,3.805-.055,1.25-.156,2.352-1.719,3.613-1.837,1.254-.117,2.538-.205,3.803-.283,1.257-.078,2.531-.501,3.798-.541,1.258-.039,2.556-.256,3.824-.256s2.49,2.679,3.748,2.718c1.267.039,2.535-.674,3.792-.596,1.265.078,2.546-.248,3.8-.131,1.261.118,2.531.107,3.781.263,1.257.157,2.292,1.711,3.536,1.906,1.251.197,2.857-1.722,4.095-1.488s2.159,2.052,3.39,2.326,2.315,1.048,3.537,1.361,2.579.037,3.789.388c1.215.353,2.923-.887,4.122-.498s2.589.364,3.776.791c1.19.429,1.357,3.563,2.529,4.028s3.314-1.402,4.471-.901,1.409,3.023,2.55,3.561,2.038,1.493,3.161,2.066,2.592.433,3.697,1.042c1.107.61,2.724.317,3.809.96,1.087.644,1.434,2.474,2.499,3.151s2.854.24,3.897.951,1.567,2.158,2.587,2.9,2.229,1.22,3.226,1.994,1.241,2.451,2.213,3.257,3.298.016,4.244.851c.947.836,1.629,1.989,2.549,2.853.92.865,2.104,1.483,2.997,2.376s1.546,2.044,2.411,2.964,1.518,2.045,2.354,2.992,2.466,1.242,3.271,2.214-.241,3.43.534,4.428,3.293.681,4.036,1.702c.743,1.02-.339,3.324.373,4.368s2.413,1.414,3.091,2.48.862,2.425,1.506,3.512c.643,1.085,2.194,1.655,2.804,2.762s1.636,2.018,2.21,3.144-.725,3.167-.186,4.311c.538,1.141,2.783,1.509,3.286,2.669s-.173,2.812.293,3.988.38,2.531.809,3.721,1.71,2.065,2.1,3.268-.452,2.757-.099,3.972c.351,1.21,2.035,2.041,2.348,3.267.313,1.221-.548,2.71-.273,3.945s.732,2.394.968,3.637c.235,1.238,1.547,2.283,1.743,3.533.195,1.244-.899,2.662-.741,3.918.156,1.25,1.809,2.332,1.926,3.593.117,1.254-1.242,2.619-1.163,3.883.078,1.257.52,2.477.559,3.744.039,1.258-.662,2.504-.662,3.771ZM358.302,357.302c-1.342-1.342-1.413-1.27-2.755-2.612s-1.572-1.112-2.914-2.454-1.309-1.373-2.65-2.714-3.038.357-4.379-.984-.83-1.851-2.171-3.192-.621-2.062-1.962-3.403c-1.342-1.342-1.427-1.257-2.769-2.6s-1.395-1.289-2.736-2.631-1.965-.717-3.306-2.059-.54-2.142-1.881-3.483c-1.342-1.342-1.936-.747-3.278-2.089s-.328-2.357-1.671-3.7c-1.342-1.342-2.225-.459-3.566-1.801-1.341-1.341-1.557-1.126-2.898-2.468s-1.04-1.644-2.382-2.986-1.896-.789-3.239-2.131c-1.342-1.342-1.549-1.134-2.891-2.476s-.966-1.718-2.309-3.06c-1.343-1.343-.916-1.769-2.258-3.112-1.342-1.342-1.377-1.307-2.719-2.649s-1.134-1.551-2.477-2.894-.375-2.305-1.715-3.645c-1.342-1.342-2.048-.636-3.39-1.978s-2.49-.194-3.831-1.535.066-2.747-1.275-4.087-1.797-.886-3.139-2.227c-1.343-1.343-1.597-1.089-2.94-2.432-1.342-1.342-.643-2.04-1.984-3.382s-2.518-.168-3.861-1.511c-1.342-1.342-.792-1.893-2.134-3.235-1.344-1.344-.819-1.868-2.162-3.212s-1.841-.844-3.184-2.187c-1.343-1.343-.802-1.884-2.146-3.228-1.344-1.344-1.888-.8-3.232-2.144-1.341-1.341-1.146-1.537-2.487-2.878s-.592-2.094-1.935-3.437-2.697.008-4.042-1.336c-1.345-1.345-.828-1.861-2.172-3.206-1.345-1.345-2.441-.249-3.786-1.594s.682-3.376-.665-4.724c-1.347-1.347-2.287-.408-3.634-1.755" style="fill: #fff;"/>
  <path d="M282.477,162.366c0,1.268.082,2.494.043,3.752-.039,1.267.229,2.512.151,3.768-.078,1.265-.219,2.493-.336,3.747-.118,1.261,2.13,2.787,1.974,4.036-.157,1.257-1.054,2.442-1.249,3.686-.197,1.251-1.418,2.33-1.653,3.568s-.372,2.5-.646,3.73-.496,2.479-.809,3.7c-.314,1.226.201,2.689-.15,3.9s-1.809,2.098-2.198,3.297c-.391,1.203-.006,2.674-.434,3.86s-2.215,1.859-2.68,3.031.206,2.813-.295,3.97-.753,2.451-1.29,3.592-1.485,2.102-2.059,3.225-.484,2.626-1.093,3.731-1,2.381-1.643,3.466c-.644,1.087-1.775,1.913-2.452,2.978s-1.885,1.802-2.595,2.845-1.401,2.111-2.144,3.131c-.743,1.021-1.74,1.855-2.514,2.852s-2.615,1.11-3.42,2.083c-.806.973-.849,2.559-1.684,3.505s-.493,2.982-1.358,3.903-3.176.447-4.069,1.34-1.34,2.224-2.261,3.089c-.92.864-1.613,1.98-2.56,2.816s-2.541.899-3.514,1.705c-.972.805-.919,2.892-1.917,3.667-.997.774-2.486.92-3.508,1.663s-2.473.858-3.517,1.569-1.703,1.988-2.769,2.666-2.533.681-3.62,1.325-1.791,1.933-2.898,2.543c-1.105.609-2.348.955-3.474,1.53-1.123.574-2.704.167-3.847.706-1.141.538-1.494,2.797-2.654,3.299s-2.611.313-3.787.779-1.825,2.368-3.015,2.797-3.31-1.879-4.513-1.488-1.993,2.023-3.208,2.375-2.45.588-3.676.902-2.223,1.597-3.458,1.872c-1.23.274-2.567.14-3.811.376s-2.662-.606-3.913-.41c-1.244.195-2.347,1.385-3.604,1.542-1.25.156-2.432,1.21-3.693,1.328-1.254.117-2.603-.579-3.867-.501-1.257.078-2.535.099-3.802.138-1.258.039-2.535.175-3.803.175s-2.55.035-3.808-.003c-1.267-.039-2.455-1.593-3.712-1.671-1.265-.078-2.519.062-3.773-.055-1.261-.118-2.416-.904-3.665-1.06-1.257-.157-2.82,1.918-4.065,1.722-1.251-.197-2.176-2.265-3.414-2.5-1.244-.236-2.399-.73-3.629-1.004-1.236-.275-2.759.727-3.98.414-1.226-.314-2.79.521-4,.17s-2.418-.883-3.617-1.273-2.207-1.448-3.393-1.876-2.678-.152-3.85-.617-1.945-1.976-3.102-2.477-2.401-.853-3.541-1.391-2.014-1.643-3.138-2.217c-1.126-.575-3.022.259-4.127-.349s-1.839-1.943-2.924-2.586-1.092-3.03-2.157-3.707-3.222.32-4.266-.39-1.607-2.119-2.628-2.862-2.937-.328-3.933-1.103-.44-3.492-1.413-4.298c-.973-.806-3.441.137-4.388-.698-.947-.836-1.287-2.372-2.207-3.237-.92-.865-.64-2.942-1.533-3.835s-2.696-.871-3.56-1.792-2.002-1.596-2.837-2.544-2.188-1.478-2.993-2.45-1.31-2.217-2.085-3.214-1.755-1.867-2.499-2.888-.518-2.733-1.229-3.777-2.361-1.478-3.039-2.544c-.677-1.065-1.512-2.067-2.156-3.155s.595-3.245-.015-4.352-3.065-1.228-3.639-2.354-.619-2.532-1.158-3.675c-.538-1.141-.895-2.375-1.398-3.535s-2.12-1.881-2.586-3.056,1.214-3.166.785-4.356-3.049-1.634-3.439-2.837.093-2.702-.259-3.917c-.351-1.21-.774-2.424-1.088-3.65s.947-2.816.672-4.052-.027-2.532-.263-3.775-2.467-2.119-2.664-3.37c-.195-1.244.463-2.618.306-3.874-.156-1.25.246-2.548.129-3.81-.117-1.254.058-2.506-.02-3.77-.078-1.257.163-2.495.124-3.762-.039-1.258-1.518-2.48-1.518-3.747s.647-2.515.686-3.773c.039-1.267.493-2.488.571-3.744.078-1.265-1.551-2.657-1.433-3.91.118-1.261.806-2.474.963-3.723.157-1.257-.43-2.636-.234-3.88.197-1.251,2.699-2.096,2.934-3.334s.18-2.509.454-3.739.253-2.513.566-3.735c.314-1.226-1.21-2.962-.859-4.173s.639-2.493,1.029-3.692,1.513-2.188,1.94-3.374,2.474-1.76,2.939-2.932.161-2.647.663-3.804,1.757-1.957,2.295-3.098c.539-1.144-.39-2.999.184-4.122s2.594-1.477,3.203-2.582c.61-1.107.217-2.771.86-3.856.644-1.087,1.655-1.947,2.332-3.011.678-1.066,2.19-1.555,2.901-2.598s.284-2.869,1.027-3.889,1.572-1.983,2.346-2.98,2.555-1.166,3.36-2.138c.806-.973-.001-3.318.834-4.265.836-.947,3.399-.31,4.264-1.231.865-.92,1.525-1.984,2.418-2.877.893-.893.417-3.192,1.338-4.056s3.287-.13,4.234-.965.451-3.35,1.424-4.155,2.323-1.172,3.321-1.947,1.701-1.972,2.723-2.716,3.409.471,4.454-.24.987-3.067,2.053-3.745,1.712-2.096,2.799-2.74,3.139.376,4.246-.234c1.105-.609,2.555-.512,3.68-1.087,1.123-.574,1.935-1.72,3.079-2.259s1.985-1.719,3.145-2.222c1.157-.501,2.503-.544,3.679-1.01s2.102-1.576,3.292-2.005,2.74.232,3.943-.159,2.109-1.699,3.324-2.051,2.505-.414,3.731-.728,2.76.796,3.995.521,2.005-2.712,3.249-2.948c1.238-.235,2.648.456,3.899.259,1.244-.195,2.548.102,3.805-.055,1.25-.156,2.352-1.719,3.613-1.837,1.254-.117,2.538-.205,3.803-.283,1.257-.078,2.531-.501,3.798-.541,1.258-.039,2.556-.256,3.824-.256s2.49,2.679,3.748,2.718c1.267.039,2.535-.674,3.792-.596,1.265.078,2.546-.248,3.8-.131,1.261.118,2.531.107,3.781.263,1.257.157,2.292,1.711,3.536,1.906,1.251.197,2.857-1.722,4.095-1.488s2.159,2.052,3.39,2.326,2.315,1.048,3.537,1.361,2.579.037,3.789.388c1.215.353,2.923-.887,4.122-.498s2.589.364,3.776.791c1.19.429,1.357,3.563,2.529,4.028s3.314-1.402,4.471-.901,1.409,3.023,2.55,3.561,2.038,1.493,3.161,2.066,2.592.433,3.697,1.042c1.107.61,2.724.317,3.809.96,1.087.644,1.434,2.474,2.499,3.151s2.854.24,3.897.951,1.567,2.158,2.587,2.9,2.229,1.22,3.226,1.994,1.241,2.451,2.213,3.257,3.298.016,4.244.851c.947.836,1.629,1.989,2.549,2.853.92.865,2.104,1.483,2.997,2.376s1.546,2.044,2.411,2.964,1.518,2.045,2.354,2.992,2.466,1.242,3.271,2.214-.241,3.43.534,4.428,3.293.681,4.036,1.702c.743,1.02-.339,3.324.373,4.368s2.413,1.414,3.091,2.48.862,2.425,1.506,3.512c.643,1.085,2.194,1.655,2.804,2.762s1.636,2.018,2.21,3.144-.725,3.167-.186,4.311c.538,1.141,2.783,1.509,3.286,2.669s-.173,2.812.293,3.988.38,2.531.809,3.721,1.71,2.065,2.1,3.268-.452,2.757-.099,3.972c.351,1.21,2.035,2.041,2.348,3.267.313,1.221-.548,2.71-.273,3.945s.732,2.394.968,3.637c.235,1.238,1.547,2.283,1.743,3.533.195,1.244-.899,2.662-.741,3.918.156,1.25,1.809,2.332,1.926,3.593.117,1.254-1.242,2.619-1.163,3.883.078,1.257.52,2.477.559,3.744.039,1.258-.662,2.504-.662,3.771ZM358.302,357.302c-1.342-1.342-1.413-1.27-2.755-2.612s-1.572-1.112-2.914-2.454-1.309-1.373-2.65-2.714-3.038.357-4.379-.984-.83-1.851-2.171-3.192-.621-2.062-1.962-3.403c-1.342-1.342-1.427-1.257-2.769-2.6s-1.395-1.289-2.736-2.631-1.965-.717-3.306-2.059-.54-2.142-1.881-3.483c-1.342-1.342-1.936-.747-3.278-2.089s-.328-2.357-1.671-3.7c-1.342-1.342-2.225-.459-3.566-1.801-1.341-1.341-1.557-1.126-2.898-2.468s-1.04-1.644-2.382-2.986-1.896-.789-3.239-2.131c-1.342-1.342-1.549-1.134-2.891-2.476s-.966-1.718-2.309-3.06c-1.343-1.343-.916-1.769-2.258-3.112-1.342-1.342-1.377-1.307-2.719-2.649s-1.134-1.551-2.477-2.894-.375-2.305-1.715-3.645c-1.342-1.342-2.048-.636-3.39-1.978s-2.49-.194-3.831-1.535.066-2.747-1.275-4.087-1.797-.886-3.139-2.227c-1.343-1.343-1.597-1.089-2.94-2.432-1.342-1.342-.643-2.04-1.984-3.382s-2.518-.168-3.861-1.511c-1.342-1.342-.792-1.893-2.134-3.235-1.344-1.344-.819-1.868-2.162-3.212s-1.841-.844-3.184-2.187c-1.343-1.343-.802-1.884-2.146-3.228-1.344-1.344-1.888-.8-3.232-2.144-1.341-1.341-1.146-1.537-2.487-2.878s-.592-2.094-1.935-3.437-2.697.008-4.042-1.336c-1.345-1.345-.828-1.861-2.172-3.206-1.345-1.345-2.441-.249-3.786-1.594s.682-3.376-.665-4.724c-1.347-1.347-2.287-.408-3.634-1.755" style="fill: none; stroke: #000; stroke-linecap: round; stroke-miterlimit: 10; stroke-width: 15px;"/>
</svg>