<?xml version="1.0" encoding="UTF-8"?>
<svg id="MD_Icons" data-name="MD Icons" xmlns="http://www.w3.org/2000/svg" width="400" height="400" viewBox="0 0 400 400">
  <g>
    <path d="M242.574,81.871c-1.483-1.155-1.351-1.419-1.902-3.216s.938-2.254.387-4.051-2.235-1.281-2.786-3.078.361-2.077-.19-3.874.122-2.004-.429-3.802-1.586-1.484-2.138-3.284,1.467-3.57-.038-4.704c-1.467-1.106-2.597.118-4.434.118s-1.838.112-3.676.112-1.838.064-3.675.064-1.838.271-3.676.271-1.838,1.606-3.676,1.606-1.838-.636-3.677-.636-1.838-1.043-3.676-1.043-1.838.713-3.676.713-1.836-.073-3.672-.073-1.838-.573-3.676-.573-1.837-1.047-3.674-1.047-1.839.983-3.678.983-1.838.201-3.675.201-1.839.421-3.677.421-1.839,1.337-3.679,1.337-1.839-2.355-3.679-2.355-1.839.091-3.679.091-1.839.941-3.678.941-1.839.272-3.678.272-1.84.972-3.679.972-1.843-.198-3.685-.198-2.259-2.338-3.732-1.232c-1.503,1.129-.549,1.846-1.1,3.644s-.676,1.759-1.227,3.557.957,2.259.406,4.056-.455,1.827-1.006,3.624-2.658,1.152-3.209,2.949,1.326,2.376.774,4.177.002,3.13-1.482,4.289c-1.38,1.079-2.578-1.48-4.33-1.48s-1.752-.841-3.504-.841-1.752,1.482-3.505,1.482-1.75.798-3.5.798-1.752-1.205-3.504-1.205-1.75,1.432-3.5,1.432-1.752-2.462-3.504-2.462-1.751,1.546-3.502,1.546-1.753-1.334-3.506-1.334-1.752-.085-3.503-.085-1.753,2.47-3.505,2.47-1.753-1.737-3.507-1.737-1.753-1.063-3.507-1.063-1.751.228-3.503.228-1.753.831-3.507.831-1.754,1.176-3.507,1.176-1.754.591-3.508.591-1.757-1.165-3.514-1.165-2.358-1.566-3.578-.302c-1.265,1.311-.559,1.884-.559,3.706s.539,1.821.539,3.643-1.105,1.822-1.105,3.643,1.739,1.822,1.739,3.643-1.425,1.822-1.425,3.644-.366,1.822-.366,3.643,2.558,1.822,2.558,3.643-2.782,1.82-2.782,3.639,2.274,1.822,2.274,3.643-1.711,1.821-1.711,3.641,1.821,1.822,1.821,3.645-2.376,1.821-2.376,3.643.602,1.822.602,3.644.321,1.823.321,3.646-.903,1.823-.903,3.646.498,1.823.498,3.646.823,1.822.823,3.645.636,1.823.636,3.645-1.415,1.823-1.415,3.646,1.511,1.826,1.511,3.652-1.031,1.545.212,2.883c1.154,1.243.868,1.226,2.564,1.226s1.698.399,3.396.399,1.698.395,3.397.395,1.699.095,3.397.095,1.701-2.361,3.403-2.361,2.219-.207,3.393,1.024c1.231,1.291.795,1.775.795,3.559s.609,1.785.609,3.569-2.27,1.785-2.27,3.571.623,1.786.623,3.573-.712,1.788-.712,3.576.858,1.787.858,3.574.656,1.786.656,3.572.492,1.785.492,3.571-1.546,1.785-1.546,3.57.366,1.786.366,3.571,1.485,1.786,1.485,3.573-1.117,1.788-1.117,3.575-.589,1.788-.589,3.575.96,1.787.96,3.573.707,1.786.707,3.572-.607,1.786-.607,3.572-1.277,1.787-1.277,3.574,1.083,1.788,1.083,3.576-.895,1.788-.895,3.575,1.536,1.787,1.536,3.574-2.098,1.787-2.098,3.573.316,1.787.316,3.575,1.766,1.789,1.766,3.578.179,1.787.179,3.575-2.671,1.787-2.671,3.574.02,1.788.02,3.576,2.562,1.788,2.562,3.577-1.064,1.788-1.064,3.575,1.207,1.788,1.207,3.576-1.75,1.789-1.75,3.577-.266,1.788-.266,3.576-.378,1.789-.378,3.577.18,1.788.18,3.576,1.04,1.789,1.04,3.577.204,1.788.204,3.577-1.096,1.789-1.096,3.578.243,1.787.243,3.573.199,1.789.199,3.577.236,1.787.236,3.573-.72,1.789-.72,3.577,1.566,1.788,1.566,3.575-.254,1.789-.254,3.579-.922,1.788-.922,3.577-.509,1.789-.509,3.578,1.852,1.79,1.852,3.58-.904,1.79-.904,3.58.201,1.79.201,3.58-1.487,1.79-1.487,3.579-.133,1.79-.133,3.58.128,1.79.128,3.58-.236,1.793-.236,3.586.731,1.756,2.006,3.018c1.287,1.274,1.249,1.017,3.06,1.017s1.812-.268,3.624-.268,1.813-.938,3.625-.938,1.814,2.002,3.627,2.002,1.815.246,3.63.246,1.814-2.698,3.628-2.698,1.813.302,3.626.302,1.813.03,3.625.03,1.812,2.007,3.625,2.007,1.813.176,3.625.176,1.813-1.718,3.627-1.718,1.815,1.257,3.629,1.257,1.815-.894,3.63-.894,1.814-.132,3.628-.132,1.813-1,3.627-1,1.813.991,3.627.991,1.814.092,3.628.092,1.815-.543,3.631-.543,1.815-.846,3.63-.846,1.814.394,3.628.394,1.814-.15,3.628-.15,1.815,1.588,3.629,1.588,1.816-1.808,3.632-1.808,1.815,2.007,3.629,2.007,1.814.432,3.629.432,1.815-2.27,3.63-2.27,1.816,1.754,3.631,1.754,1.815.693,3.63.693,1.815-1.287,3.63-1.287,1.816-.465,3.632-.465,1.815,1.899,3.63,1.899,1.816-1.109,3.632-1.109,1.815,1.268,3.631,1.268,1.816-2.8,3.632-2.8,1.816.466,3.631.466,1.816.052,3.632.052,1.816.827,3.632.827,1.816-.306,3.631-.306,1.814.973,3.627.973,1.816.126,3.632.126,1.815-1.304,3.63-1.304,1.817-.276,3.633-.276,1.815-.598,3.631-.598,1.816-.023,3.633-.023,1.817,1.515,3.634,1.515,1.817.324,3.634.324,1.817-1.734,3.634-1.734,1.817,1.609,3.633,1.609,1.817-1.281,3.634-1.281,1.817-.073,3.635-.073,1.82,2.322,3.641,2.322,2.58.239,3.88-1.036c1.274-1.249-.805-2.028-.805-3.812s.816-1.785.816-3.569-.696-1.785-.696-3.571,1.877-1.786,1.877-3.573-2.214-1.788-2.214-3.576.807-1.787.807-3.574,1.06-1.786,1.06-3.572-.026-1.785-.026-3.571.159-1.785.159-3.57.054-1.786.054-3.571-1.542-1.786-1.542-3.573.848-1.788.848-3.575.847-1.788.847-3.575-2.154-1.787-2.154-3.573,1.443-1.786,1.443-3.572-.061-1.786-.061-3.572-.6-1.787-.6-3.574-.729-1.788-.729-3.576-.383-1.788-.383-3.575.054-1.787.054-3.574,1.895-1.787,1.895-3.573-2.38-1.787-2.38-3.575,2.714-1.789,2.714-3.578-2.275-1.787-2.275-3.575-.121-1.787-.121-3.574.412-1.788.412-3.576-.644-1.788-.644-3.577,1.37-1.788,1.37-3.575-.984-1.788-.984-3.576,1.908-1.789,1.908-3.577-.549-1.788-.549-3.576-.872-1.789-.872-3.577,1.837-1.788,1.837-3.576-.009-1.789-.009-3.577-1.386-1.788-1.386-3.577,1.257-1.789,1.257-3.578-1.068-1.787-1.068-3.573-.702-1.789-.702-3.577-.006-1.787-.006-3.573-.046-1.789-.046-3.577,1.991-1.788,1.991-3.575-.548-1.789-.548-3.579-2.138-1.788-2.138-3.577,1.488-1.789,1.488-3.578-.949-1.79-.949-3.58.303-1.79.303-3.58,1.363-1.79,1.363-3.58.505-1.79.505-3.579-2.672-1.79-2.672-3.58,2.026-1.79,2.026-3.58-.225-1.793-.225-3.586-1.083-1.679.149-2.982c1.165-1.232,1.057-1.712,2.753-1.712s1.698,1.965,3.396,1.965,1.698-1.319,3.396-1.319,1.699.562,3.397.562,1.701-.598,3.403-.598,1.216.782,2.377-.461c1.243-1.331,1.027-.864,1.027-2.686s.571-1.821.571-3.643-1.263-1.822-1.263-3.643,1.967-1.822,1.967-3.643-.903-1.822-.903-3.644-1.127-1.822-1.127-3.643,2.133-1.822,2.133-3.643.042-1.82.042-3.639-.149-1.822-.149-3.643.162-1.821.162-3.641-2.033-1.822-2.033-3.645-.76-1.821-.76-3.643,1.206-1.822,1.206-3.644.132-1.823.132-3.646-.898-1.823-.898-3.646.625-1.823.625-3.646-.566-1.822-.566-3.645.544-1.823.544-3.645,1.321-1.823,1.321-3.646-.924-1.826-.924-3.652,1.22-2.37-.045-3.688c-1.213-1.264-1.789.517-3.541.517s-1.752.652-3.504.652-1.752-.824-3.505-.824-1.75.634-3.5.634-1.752-.587-3.504-.587-1.75-.834-3.5-.834-1.752,1.267-3.504,1.267-1.751-2.144-3.502-2.144-1.753,1.575-3.506,1.575-1.752.333-3.503.333-1.753-.202-3.505-.202-1.753-.923-3.507-.923-1.753,1.617-3.507,1.617-1.751-2.009-3.503-2.009-1.753,1.451-3.507,1.451-1.754-1.195-3.507-1.195-1.754,1.548-3.508,1.548-1.71-.696-3.443-.412c-1.748.287-2.061.476-3.447-.603Z" style="fill: #fff;"/>
    <path d="M242.574,81.871c-1.483-1.155-1.351-1.419-1.902-3.216s.938-2.254.387-4.051-2.235-1.281-2.786-3.078.361-2.077-.19-3.874.122-2.004-.429-3.802-1.586-1.484-2.138-3.284,1.467-3.57-.038-4.704c-1.467-1.106-2.597.118-4.434.118s-1.838.112-3.676.112-1.838.064-3.675.064-1.838.271-3.676.271-1.838,1.606-3.676,1.606-1.838-.636-3.677-.636-1.838-1.043-3.676-1.043-1.838.713-3.676.713-1.836-.073-3.672-.073-1.838-.573-3.676-.573-1.837-1.047-3.674-1.047-1.839.983-3.678.983-1.838.201-3.675.201-1.839.421-3.677.421-1.839,1.337-3.679,1.337-1.839-2.355-3.679-2.355-1.839.091-3.679.091-1.839.941-3.678.941-1.839.272-3.678.272-1.84.972-3.679.972-1.843-.198-3.685-.198-2.259-2.338-3.732-1.232c-1.503,1.129-.549,1.846-1.1,3.644s-.676,1.759-1.227,3.557.957,2.259.406,4.056-.455,1.827-1.006,3.624-2.658,1.152-3.209,2.949,1.326,2.376.774,4.177.002,3.13-1.482,4.289c-1.38,1.079-2.578-1.48-4.33-1.48s-1.752-.841-3.504-.841-1.752,1.482-3.505,1.482-1.75.798-3.5.798-1.752-1.205-3.504-1.205-1.75,1.432-3.5,1.432-1.752-2.462-3.504-2.462-1.751,1.546-3.502,1.546-1.753-1.334-3.506-1.334-1.752-.085-3.503-.085-1.753,2.47-3.505,2.47-1.753-1.737-3.507-1.737-1.753-1.063-3.507-1.063-1.751.228-3.503.228-1.753.831-3.507.831-1.754,1.176-3.507,1.176-1.754.591-3.508.591-1.757-1.165-3.514-1.165-2.358-1.566-3.578-.302c-1.265,1.311-.559,1.884-.559,3.706s.539,1.821.539,3.643-1.105,1.822-1.105,3.643,1.739,1.822,1.739,3.643-1.425,1.822-1.425,3.644-.366,1.822-.366,3.643,2.558,1.822,2.558,3.643-2.782,1.82-2.782,3.639,2.274,1.822,2.274,3.643-1.711,1.821-1.711,3.641,1.821,1.822,1.821,3.645-2.376,1.821-2.376,3.643.602,1.822.602,3.644.321,1.823.321,3.646-.903,1.823-.903,3.646.498,1.823.498,3.646.823,1.822.823,3.645.636,1.823.636,3.645-1.415,1.823-1.415,3.646,1.511,1.826,1.511,3.652-1.031,1.545.212,2.883c1.154,1.243.868,1.226,2.564,1.226s1.698.399,3.396.399,1.698.395,3.397.395,1.699.095,3.397.095,1.701-2.361,3.403-2.361,2.219-.207,3.393,1.024c1.231,1.291.795,1.775.795,3.559s.609,1.785.609,3.569-2.27,1.785-2.27,3.571.623,1.786.623,3.573-.712,1.788-.712,3.576.858,1.787.858,3.574.656,1.786.656,3.572.492,1.785.492,3.571-1.546,1.785-1.546,3.57.366,1.786.366,3.571,1.485,1.786,1.485,3.573-1.117,1.788-1.117,3.575-.589,1.788-.589,3.575.96,1.787.96,3.573.707,1.786.707,3.572-.607,1.786-.607,3.572-1.277,1.787-1.277,3.574,1.083,1.788,1.083,3.576-.895,1.788-.895,3.575,1.536,1.787,1.536,3.574-2.098,1.787-2.098,3.573.316,1.787.316,3.575,1.766,1.789,1.766,3.578.179,1.787.179,3.575-2.671,1.787-2.671,3.574.02,1.788.02,3.576,2.562,1.788,2.562,3.577-1.064,1.788-1.064,3.575,1.207,1.788,1.207,3.576-1.75,1.789-1.75,3.577-.266,1.788-.266,3.576-.378,1.789-.378,3.577.18,1.788.18,3.576,1.04,1.789,1.04,3.577.204,1.788.204,3.577-1.096,1.789-1.096,3.578.243,1.787.243,3.573.199,1.789.199,3.577.236,1.787.236,3.573-.72,1.789-.72,3.577,1.566,1.788,1.566,3.575-.254,1.789-.254,3.579-.922,1.788-.922,3.577-.509,1.789-.509,3.578,1.852,1.79,1.852,3.58-.904,1.79-.904,3.58.201,1.79.201,3.58-1.487,1.79-1.487,3.579-.133,1.79-.133,3.58.128,1.79.128,3.58-.236,1.793-.236,3.586.731,1.756,2.006,3.018c1.287,1.274,1.249,1.017,3.06,1.017s1.812-.268,3.624-.268,1.813-.938,3.625-.938,1.814,2.002,3.627,2.002,1.815.246,3.63.246,1.814-2.698,3.628-2.698,1.813.302,3.626.302,1.813.03,3.625.03,1.812,2.007,3.625,2.007,1.813.176,3.625.176,1.813-1.718,3.627-1.718,1.815,1.257,3.629,1.257,1.815-.894,3.63-.894,1.814-.132,3.628-.132,1.813-1,3.627-1,1.813.991,3.627.991,1.814.092,3.628.092,1.815-.543,3.631-.543,1.815-.846,3.63-.846,1.814.394,3.628.394,1.814-.15,3.628-.15,1.815,1.588,3.629,1.588,1.816-1.808,3.632-1.808,1.815,2.007,3.629,2.007,1.814.432,3.629.432,1.815-2.27,3.63-2.27,1.816,1.754,3.631,1.754,1.815.693,3.63.693,1.815-1.287,3.63-1.287,1.816-.465,3.632-.465,1.815,1.899,3.63,1.899,1.816-1.109,3.632-1.109,1.815,1.268,3.631,1.268,1.816-2.8,3.632-2.8,1.816.466,3.631.466,1.816.052,3.632.052,1.816.827,3.632.827,1.816-.306,3.631-.306,1.814.973,3.627.973,1.816.126,3.632.126,1.815-1.304,3.63-1.304,1.817-.276,3.633-.276,1.815-.598,3.631-.598,1.816-.023,3.633-.023,1.817,1.515,3.634,1.515,1.817.324,3.634.324,1.817-1.734,3.634-1.734,1.817,1.609,3.633,1.609,1.817-1.281,3.634-1.281,1.817-.073,3.635-.073,1.82,2.322,3.641,2.322,2.58.239,3.88-1.036c1.274-1.249-.805-2.028-.805-3.812s.816-1.785.816-3.569-.696-1.785-.696-3.571,1.877-1.786,1.877-3.573-2.214-1.788-2.214-3.576.807-1.787.807-3.574,1.06-1.786,1.06-3.572-.026-1.785-.026-3.571.159-1.785.159-3.57.054-1.786.054-3.571-1.542-1.786-1.542-3.573.848-1.788.848-3.575.847-1.788.847-3.575-2.154-1.787-2.154-3.573,1.443-1.786,1.443-3.572-.061-1.786-.061-3.572-.6-1.787-.6-3.574-.729-1.788-.729-3.576-.383-1.788-.383-3.575.054-1.787.054-3.574,1.895-1.787,1.895-3.573-2.38-1.787-2.38-3.575,2.714-1.789,2.714-3.578-2.275-1.787-2.275-3.575-.121-1.787-.121-3.574.412-1.788.412-3.576-.644-1.788-.644-3.577,1.37-1.788,1.37-3.575-.984-1.788-.984-3.576,1.908-1.789,1.908-3.577-.549-1.788-.549-3.576-.872-1.789-.872-3.577,1.837-1.788,1.837-3.576-.009-1.789-.009-3.577-1.386-1.788-1.386-3.577,1.257-1.789,1.257-3.578-1.068-1.787-1.068-3.573-.702-1.789-.702-3.577-.006-1.787-.006-3.573-.046-1.789-.046-3.577,1.991-1.788,1.991-3.575-.548-1.789-.548-3.579-2.138-1.788-2.138-3.577,1.488-1.789,1.488-3.578-.949-1.79-.949-3.58.303-1.79.303-3.58,1.363-1.79,1.363-3.58.505-1.79.505-3.579-2.672-1.79-2.672-3.58,2.026-1.79,2.026-3.58-.225-1.793-.225-3.586-1.083-1.679.149-2.982c1.165-1.232,1.057-1.712,2.753-1.712s1.698,1.965,3.396,1.965,1.698-1.319,3.396-1.319,1.699.562,3.397.562,1.701-.598,3.403-.598,1.216.782,2.377-.461c1.243-1.331,1.027-.864,1.027-2.686s.571-1.821.571-3.643-1.263-1.822-1.263-3.643,1.967-1.822,1.967-3.643-.903-1.822-.903-3.644-1.127-1.822-1.127-3.643,2.133-1.822,2.133-3.643.042-1.82.042-3.639-.149-1.822-.149-3.643.162-1.821.162-3.641-2.033-1.822-2.033-3.645-.76-1.821-.76-3.643,1.206-1.822,1.206-3.644.132-1.823.132-3.646-.898-1.823-.898-3.646.625-1.823.625-3.646-.566-1.822-.566-3.645.544-1.823.544-3.645,1.321-1.823,1.321-3.646-.924-1.826-.924-3.652,1.22-2.37-.045-3.688c-1.213-1.264-1.789.517-3.541.517s-1.752.652-3.504.652-1.752-.824-3.505-.824-1.75.634-3.5.634-1.752-.587-3.504-.587-1.75-.834-3.5-.834-1.752,1.267-3.504,1.267-1.751-2.144-3.502-2.144-1.753,1.575-3.506,1.575-1.752.333-3.503.333-1.753-.202-3.505-.202-1.753-.923-3.507-.923-1.753,1.617-3.507,1.617-1.751-2.009-3.503-2.009-1.753,1.451-3.507,1.451-1.754-1.195-3.507-1.195-1.754,1.548-3.508,1.548-1.71-.696-3.443-.412c-1.748.287-2.061.476-3.447-.603Z" style="fill: none; stroke: #000; stroke-linecap: round; stroke-linejoin: round; stroke-width: 40px;"/>
  </g>
  <g>
    <path d="M166.634,158.538c0,1.822-1.582,1.822-1.582,3.643s.833,1.823.833,3.646,1.586,1.822,1.586,3.644-.734,1.821-.734,3.643.482,1.822.482,3.644-.95,1.823-.95,3.646,1.089,1.822,1.089,3.644-1.071,1.822-1.071,3.645-.454,1.823-.454,3.646-.474,1.822-.474,3.644.327,1.823.327,3.646,1.601,1.823,1.601,3.645-2.303,1.823-2.303,3.646-.059,1.823-.059,3.646,2.587,1.823,2.587,3.647-1.468,1.823-1.468,3.646.916,1.823.916,3.646-1.557,1.821-1.557,3.642,1.761,1.823,1.761,3.646-.954,1.822-.954,3.644-.704,1.824-.704,3.647,1.081,1.823,1.081,3.645-1.583,1.823-1.583,3.647.373,1.824.373,3.648.112,1.824.112,3.648.064,1.824.064,3.648.271,1.824.271,3.647,1.606,1.824,1.606,3.648-.636,1.824-.636,3.649-1.043,1.827-1.043,3.655.713,1.827.713,3.655" style="fill: none; stroke: #000; stroke-linecap: round; stroke-linejoin: round; stroke-width: 40px;"/>
    <path d="M221.338,159.794c0,1.822,1.137,1.822,1.137,3.643s1.009,1.823,1.009,3.646-1.34,1.822-1.34,3.644,1.142,1.821,1.142,3.643-2.423,1.822-2.423,3.644,2.346,1.823,2.346,3.646.494,1.822.494,3.644-2.197,1.822-2.197,3.645,2.082,1.823,2.082,3.646-1.052,1.822-1.052,3.644.198,1.823.198,3.646.312,1.823.312,3.645-.826,1.823-.826,3.646-.072,1.823-.072,3.646-.133,1.823-.133,3.647.62,1.823.62,3.646-1.582,1.823-1.582,3.646.833,1.821.833,3.642,1.586,1.823,1.586,3.646-.734,1.822-.734,3.644.482,1.824.482,3.647-.95,1.823-.95,3.645,1.089,1.823,1.089,3.647-1.071,1.824-1.071,3.648-.454,1.824-.454,3.648-.474,1.824-.474,3.648.327,1.824.327,3.647,1.601,1.824,1.601,3.648-2.303,1.824-2.303,3.649-.059,1.827-.059,3.655,2.587,1.827,2.587,3.655" style="fill: none; stroke: #000; stroke-linecap: round; stroke-linejoin: round; stroke-width: 40px;"/>
  </g>
</svg>