<?xml version="1.0" encoding="UTF-8"?>
<svg id="SM_Icons" data-name="SM Icons" xmlns="http://www.w3.org/2000/svg" width="200" height="200" viewBox="0 0 200 200">
  <polyline points="158.855 108.78 151.635 119.146 142.193 127.421 133.119 136.047 124.951 145.531 115.856 154.138 107.024 163.004 100 173.186 91.26 164.636 83.545 154.736 75.401 145.234 64.135 138.666 57.778 127.482 47.827 119.67 39.177 110.632" style="fill: none; stroke: #000; stroke-linecap: round; stroke-linejoin: round; stroke-width: 23px;"/>
  <g>
    <polygon points="159.608 54.254 146.978 53.829 133.969 52.452 122.342 52.775 119.458 40.252 121.429 25.956 106.993 28.746 93.016 24.944 80.294 27.698 80.44 40.252 77.674 52.791 66.04 52.385 53.031 55.477 41.605 54.847 50.355 61.512 57.261 72.173 64.032 82.965 73.336 91.381 81.888 100.498 91.43 108.695 99.999 119.85 107.995 108.172 118.514 100.91 126.681 91.431 133.08 80.283 142.894 72.352 152.312 64.029 159.608 54.254" style="fill: #fff;"/>
    <polygon points="159.608 54.254 146.978 53.829 133.969 52.452 122.342 52.775 119.458 40.252 121.429 25.956 106.993 28.746 93.016 24.944 80.294 27.698 80.44 40.252 77.674 52.791 66.04 52.385 53.031 55.477 41.605 54.847 50.355 61.512 57.261 72.173 64.032 82.965 73.336 91.381 81.888 100.498 91.43 108.695 99.999 119.85 107.995 108.172 118.514 100.91 126.681 91.431 133.08 80.283 142.894 72.352 152.312 64.029 159.608 54.254" style="fill: none; stroke: #000; stroke-linecap: round; stroke-linejoin: round; stroke-width: 23px;"/>
  </g>
</svg>