<?xml version="1.0" encoding="UTF-8"?>
<svg id="LM_Icons" data-name="LM Icons" xmlns="http://www.w3.org/2000/svg" width="700" height="700" viewBox="0 0 700 700">
  <path d="M496.585,284.14c0,116.538-94.473,211.011-211.011,211.011s-211.011-94.473-211.011-211.011,94.473-211.011,211.011-211.011,211.011,94.473,211.011,211.011ZM625.436,626.87l-192.636-192.636" style="fill: #fff; stroke: #000; stroke-linecap: round; stroke-miterlimit: 10; stroke-width: 26.25px;"/>
  <path d="M661.648,215.92l14.792-14.792c.278-.278.607-.417.986-.417.38,0,.708.139.986.417.278.278.417.609.417.993s-.139.715-.417.993l-15.792,15.806c-.278.278-.602.417-.972.417s-.694-.139-.972-.417l-7.445-7.445c-.278-.278-.41-.609-.396-.993.014-.384.16-.716.438-.993.278-.278.609-.417.993-.417.384,0,.715.139.993.417l6.389,6.431Z" style="fill: #333;"/>
</svg>