<?xml version="1.0" encoding="UTF-8"?>
<svg id="SM_Icons" data-name="SM Icons" xmlns="http://www.w3.org/2000/svg" width="200" height="200" viewBox="0 0 200 200">
  <polyline points="100 50.751 112.359 52.328 123.808 57.024 134.743 62.898 144.601 70.9 150.292 82.249 153.817 94.18 156.891 106.466 155.459 119.125 150.373 130.723 144.111 141.643 135.62 151.134 124.641 157.636 113.225 164.415 100 162.331 86.806 164.108 74.916 158.387 64.513 150.874 54.341 142.821 50.276 130.378 43.89 119.258 42.424 106.466 41.434 94.923 48.084 85.184 53.078 74.983" style="fill: none; stroke: #000; stroke-linecap: round; stroke-linejoin: round; stroke-width: 23px;"/>
  <polyline points="127.321 32.387 118.895 40.839 107.811 43.76 98.995 49.5 103.592 58.596 109.502 67.848 116.86 76.137" style="fill: none; stroke: #000; stroke-linecap: round; stroke-linejoin: round; stroke-width: 23px;"/>
</svg>