<?xml version="1.0" encoding="UTF-8"?>
<svg id="SM_Icons" data-name="SM Icons" xmlns="http://www.w3.org/2000/svg" width="200" height="200" viewBox="0 0 200 200">
  <polygon points="83.604 167.49 96.819 167.479 108.626 166.029 120.436 166.831 132.251 167.946 144.062 164.148 155.881 164.807 167.34 165.794 166.762 154.343 166.947 142.535 169.179 130.725 169.27 118.91 166.992 107.099 166.762 95.28 167.517 83.654 155.297 82.838 142.899 85.379 130.491 83.328 117.02 84.526 118.567 71.059 119.964 58.66 118.955 46.253 116.979 34.898 106.273 34.172 94.466 35.937 82.655 36.187 70.841 32.138 59.03 35.173 47.211 32.026 36.022 34.476 37.072 45.657 35.071 57.465 36.234 69.275 33.896 81.09 36.178 92.901 34.037 104.72 35.914 115.991 47.794 118.668 60.193 118.581 72.6 117.08 86.731 114.815 85.145 128.941 84.715 141.34 83.655 153.674 83.604 167.49" style="fill: #fff;"/>
  <polygon points="83.604 167.49 96.819 167.479 108.626 166.029 120.436 166.831 132.251 167.946 144.062 164.148 155.881 164.807 167.34 165.794 166.762 154.343 166.947 142.535 169.179 130.725 169.27 118.91 166.992 107.099 166.762 95.28 167.517 83.654 155.297 82.838 142.899 85.379 130.491 83.328 117.02 84.526 118.567 71.059 119.964 58.66 118.955 46.253 116.979 34.898 106.273 34.172 94.466 35.937 82.655 36.187 70.841 32.138 59.03 35.173 47.211 32.026 36.022 34.476 37.072 45.657 35.071 57.465 36.234 69.275 33.896 81.09 36.178 92.901 34.037 104.72 35.914 115.991 47.794 118.668 60.193 118.581 72.6 117.08 86.731 114.815 85.145 128.941 84.715 141.34 83.655 153.674 83.604 167.49" style="fill: none; stroke: #000; stroke-linejoin: round; stroke-width: 23px;"/>
</svg>