<?xml version="1.0" encoding="UTF-8"?>
<svg id="SM_Icons" data-name="SM Icons" xmlns="http://www.w3.org/2000/svg" width="200" height="200" viewBox="0 0 200 200">
  <polyline points="100 47.789 86.897 49.057 74.165 52.821 63.419 60.596 55.161 70.71 47.205 81.041 42.27 93.29 42.5 106.466 43.912 119.268 47.286 131.852 54.673 142.613 64.298 151.237 74.999 158.383 87.764 160.064 100 164.992 112.338 160.354 124.688 157.569 135.927 151.424 143.834 141.366 153.388 132.144 155.444 119.107 156.816 106.466 155.298 95.225 154.99 83.481 148.1 74.241" style="fill: none; stroke: #000; stroke-linecap: round; stroke-linejoin: round; stroke-width: 23px;"/>
  <polyline points="70.561 36.808 82.427 38.079 91.648 44.888 103.137 48.878 95.59 58.052 89.346 67.083 84.551 77.075" style="fill: none; stroke: #000; stroke-linecap: round; stroke-linejoin: round; stroke-width: 23px;"/>
</svg>