<?xml version="1.0" encoding="UTF-8"?>
<svg xmlns="http://www.w3.org/2000/svg" width="700" height="700" viewBox="0 0 700 700">
  <g id="LM_Icons" data-name="LM Icons">
    <g>
      <g>
        <path d="M230.252,447.246c-.495,2.534.136,2.658-.359,5.192s-4.872,1.678-5.367,4.211-1.106,2.413-1.601,4.946-.844,2.466-1.339,5-.422,2.55-.918,5.086,4.738,3.556,4.243,6.09-.393,2.554-.888,5.087-5.31,1.594-5.805,4.129,2.741,3.168,2.246,5.703-3.859,1.877-4.354,4.411,1.945,3.011,1.45,5.546-1.032,2.431-1.527,4.967-1.108,2.415-1.603,4.949-2.088,2.225-2.584,4.76,5.478,3.702,4.983,6.237-5.918,1.476-6.414,4.012,3.079,3.234,2.584,5.769-.167,2.6-.662,5.136.599,2.749.104,5.285-3.538,1.942-4.034,4.478.554,2.742.059,5.278-2.496,2.145-2.992,4.682,3.824,3.377,3.329,5.911-3.801,1.89-4.297,4.426.074,2.646-.421,5.18,1.798,2.984,1.303,5.52-.706,2.496-1.201,5.033-1.883,2.266-2.379,4.803-1.191,2.401-1.687,4.938.416,2.716-.08,5.253-2.484,2.148-2.98,4.684,2.682,3.159,2.186,5.698-.792,2.482-1.288,5.023-3.525.56-1.506,2.179-.326-.357,2.049-1.392,2.035-1.81,4.409-2.844,2.853.069,5.226-.964,4.041,2.795,6.415,1.762,2.794-.071,5.169-1.105-.174-6.886,2.199-7.919,3.914,2.503,6.288,1.469,1.959-1.989,4.334-3.023.733-4.801,3.107-5.835,4.722,4.355,7.097,3.321.841-4.556,3.215-5.59,3.067.556,5.442-.478,3.749,2.121,6.123,1.087-.399-7.407,1.976-8.441,4.973,4.934,7.348,3.9,1.248-3.624,3.623-4.659,1.899-2.131,4.275-3.165,4.239,3.245,6.614,2.211,1.157-3.827,3.53-4.861,1.449-3.162,3.825-4.196,1.975-1.951,4.349-2.984,3.576,1.725,5.952.69,1.326-3.448,3.702-4.483,4.069,2.853,6.445,1.818.404-5.564,2.78-6.599,3.871,2.401,6.247,1.367,3.061.539,5.437-.496,2.425-.927,4.803-1.962,1.058-4.071,3.438-5.107,2.59-4.277,5.185-4.255c2.565.022,2.191,4.415,4.52,5.492s3.03-.436,5.36.642,2.96-.289,5.288.787.604,4.806,2.932,5.882,1.298,3.307,3.627,4.384,4.025-2.59,6.355-1.513,3.688-1.864,6.017-.788,2.24,1.269,4.569,2.346,1.337,3.225,3.667,4.302,2.225,1.301,4.554,2.378,1.575,2.711,3.905,3.788,4.368-3.332,6.697-2.255.572,4.878,2.902,5.956.844,4.29,3.174,5.367,2.805.05,5.136,1.128,3.111-.612,5.44.465,2.2,1.36,4.53,2.438,2.324,1.092,4.655,2.17,1.225,3.467,3.556,4.545,4.738-4.137,7.066-3.06,2.309,1.123,4.639,2.201,1.808,2.204,4.137,3.281,3.082-.549,5.412.528.985,3.99,3.316,5.068,2.193,1.377,4.524,2.454,2.527.654,4.858,1.732,1.595,2.669,3.925,3.746,4.638-3.913,6.969-2.835-.37,6.925,1.962,8.004,3.959-2.435,6.294-1.356,3.045,5.043,5.123,3.528c2.061-1.502.008-3.58-.342-6.107s-.486-2.506-.835-5.031-5.122-1.864-5.472-4.389,4.742-3.231,4.393-5.757-4.113-2.007-4.463-4.535,5.726-3.367,5.377-5.893-7.719-1.505-8.068-4.031,7.359-3.594,7.009-6.12-5.014-1.881-5.364-4.409-.549-2.498-.899-5.024,4.068-3.138,3.718-5.665-2.209-2.27-2.559-4.798-5.728-1.782-6.078-4.308,6.988-3.544,6.638-6.071-3.493-2.092-3.843-4.619-1.139-2.418-1.489-4.946.289-2.616-.061-5.143,1.223-2.746.873-5.274.246-2.61-.104-5.137-4.805-1.911-5.155-4.439,2.964-2.987,2.614-5.516-5.135-1.866-5.485-4.394,1.399-2.768,1.049-5.294,2.109-2.869,1.759-5.397.708-2.673.358-5.2.022-2.579-.328-5.107-5.099-1.871-5.45-4.4-.669-2.485-1.02-5.014,2.035-2.859,1.685-5.388-2.252-2.266-2.603-4.796-.954-2.445-1.304-4.973.009-2.58-.342-5.111.763-2.686.412-5.218-2.212-2.274-2.563-4.807" style="fill: #fff;"/>
        <path d="M230.252,447.246c-.495,2.534.136,2.658-.359,5.192s-4.872,1.678-5.367,4.211-1.106,2.413-1.601,4.946-.844,2.466-1.339,5-.422,2.55-.918,5.086,4.738,3.556,4.243,6.09-.393,2.554-.888,5.087-5.31,1.594-5.805,4.129,2.741,3.168,2.246,5.703-3.859,1.877-4.354,4.411,1.945,3.011,1.45,5.546-1.032,2.431-1.527,4.967-1.108,2.415-1.603,4.949-2.088,2.225-2.584,4.76,5.478,3.702,4.983,6.237-5.918,1.476-6.414,4.012,3.079,3.234,2.584,5.769-.167,2.6-.662,5.136.599,2.749.104,5.285-3.538,1.942-4.034,4.478.554,2.742.059,5.278-2.496,2.145-2.992,4.682,3.824,3.377,3.329,5.911-3.801,1.89-4.297,4.426.074,2.646-.421,5.18,1.798,2.984,1.303,5.52-.706,2.496-1.201,5.033-1.883,2.266-2.379,4.803-1.191,2.401-1.687,4.938.416,2.716-.08,5.253-2.484,2.148-2.98,4.684,2.682,3.159,2.186,5.698-.792,2.482-1.288,5.023-3.525.56-1.506,2.179-.326-.357,2.049-1.392,2.035-1.81,4.409-2.844,2.853.069,5.226-.964,4.041,2.795,6.415,1.762,2.794-.071,5.169-1.105-.174-6.886,2.199-7.919,3.914,2.503,6.288,1.469,1.959-1.989,4.334-3.023.733-4.801,3.107-5.835,4.722,4.355,7.097,3.321.841-4.556,3.215-5.59,3.067.556,5.442-.478,3.749,2.121,6.123,1.087-.399-7.407,1.976-8.441,4.973,4.934,7.348,3.9,1.248-3.624,3.623-4.659,1.899-2.131,4.275-3.165,4.239,3.245,6.614,2.211,1.157-3.827,3.53-4.861,1.449-3.162,3.825-4.196,1.975-1.951,4.349-2.984,3.576,1.725,5.952.69,1.326-3.448,3.702-4.483,4.069,2.853,6.445,1.818.404-5.564,2.78-6.599,3.871,2.401,6.247,1.367,3.061.539,5.437-.496,2.425-.927,4.803-1.962,1.058-4.071,3.438-5.107,2.59-4.277,5.185-4.255c2.565.022,2.191,4.415,4.52,5.492s3.03-.436,5.36.642,2.96-.289,5.288.787.604,4.806,2.932,5.882,1.298,3.307,3.627,4.384,4.025-2.59,6.355-1.513,3.688-1.864,6.017-.788,2.24,1.269,4.569,2.346,1.337,3.225,3.667,4.302,2.225,1.301,4.554,2.378,1.575,2.711,3.905,3.788,4.368-3.332,6.697-2.255.572,4.878,2.902,5.956.844,4.29,3.174,5.367,2.805.05,5.136,1.128,3.111-.612,5.44.465,2.2,1.36,4.53,2.438,2.324,1.092,4.655,2.17,1.225,3.467,3.556,4.545,4.738-4.137,7.066-3.06,2.309,1.123,4.639,2.201,1.808,2.204,4.137,3.281,3.082-.549,5.412.528.985,3.99,3.316,5.068,2.193,1.377,4.524,2.454,2.527.654,4.858,1.732,1.595,2.669,3.925,3.746,4.638-3.913,6.969-2.835-.37,6.925,1.962,8.004,3.959-2.435,6.294-1.356,3.045,5.043,5.123,3.528c2.061-1.502.008-3.58-.342-6.107s-.486-2.506-.835-5.031-5.122-1.864-5.472-4.389,4.742-3.231,4.393-5.757-4.113-2.007-4.463-4.535,5.726-3.367,5.377-5.893-7.719-1.505-8.068-4.031,7.359-3.594,7.009-6.12-5.014-1.881-5.364-4.409-.549-2.498-.899-5.024,4.068-3.138,3.718-5.665-2.209-2.27-2.559-4.798-5.728-1.782-6.078-4.308,6.988-3.544,6.638-6.071-3.493-2.092-3.843-4.619-1.139-2.418-1.489-4.946.289-2.616-.061-5.143,1.223-2.746.873-5.274.246-2.61-.104-5.137-4.805-1.911-5.155-4.439,2.964-2.987,2.614-5.516-5.135-1.866-5.485-4.394,1.399-2.768,1.049-5.294,2.109-2.869,1.759-5.397.708-2.673.358-5.2.022-2.579-.328-5.107-5.099-1.871-5.45-4.4-.669-2.485-1.02-5.014,2.035-2.859,1.685-5.388-2.252-2.266-2.603-4.796-.954-2.445-1.304-4.973.009-2.58-.342-5.111.763-2.686.412-5.218-2.212-2.274-2.563-4.807" style="fill: none; stroke: #000; stroke-linecap: round; stroke-linejoin: round; stroke-width: 45px;"/>
      </g>
      <g>
        <path d="M336.007,92.882c-1.725,0-3.355,4.733-5.069,4.778-1.724.045-3.637-5.311-5.35-5.221-1.722.09-3.065,5.613-4.774,5.748-1.719.136-3.483-1.056-5.189-.876s-3.71-2.203-5.411-1.977-3.053,2.805-4.747,3.076-3.162,1.552-4.849,1.868-4.333-4.128-6.01-3.766-3.051,2.253-4.718,2.66-3.61-.104-5.266.346-2.462,3.899-4.106,4.394-2.98,1.814-4.61,2.353-3.024,1.564-4.64,2.146-5.041-3.656-6.64-3.031-3.569.545-5.151,1.214-1.672,4.834-3.235,5.545-3.73.155-5.274.907-1.759,4.11-3.283,4.903-2.785,1.948-4.288,2.782-3.331.985-4.811,1.859-5.491-2.375-6.946-1.462-3.426,1.203-4.857,2.154-.447,5.518-1.853,6.507-4.613-.461-5.992.566-2.322,2.721-3.673,3.783-1.292,3.902-2.615,4.999-3.445,1.267-4.738,2.4-4.213.537-5.476,1.704-1.276,3.739-2.508,4.938-2.333,2.576-3.533,3.808-.915,3.876-2.082,5.139-1.053,3.616-2.186,4.91-4.558.597-5.656,1.921.43,4.728-.632,6.08-3.455,1.621-4.482,3.001-.629,3.725-1.619,5.132-5.423.434-6.375,1.867-3.714,1.773-4.627,3.231.63,4.474-.245,5.955-4.156,1.644-4.991,3.149-1.588,3.151-2.383,4.678-2.012,2.941-2.766,4.488,3.32,5.395,2.608,6.962-2.392,2.675-3.062,4.261-.393,3.523-1.02,5.126-2.892,2.568-3.476,4.188-1.246,3.216-1.786,4.851-3.799,2.456-4.295,4.105,2.81,4.416,2.358,6.078-.584,3.375-.992,5.049-4.808,2.453-5.17,4.137,5.407,4.595,5.09,6.288-3.777,2.792-4.049,4.493-.292,3.43-.519,5.139,1.364,3.595,1.183,5.309-1.455,3.281-1.591,4.999c-.135,1.71-1.206,3.356-1.296,5.078-.09,1.713-.313,3.433-.358,5.157-.045,1.714,2.772,3.444,2.772,5.169,0,1.725-5.843,3.533-5.798,5.247.045,1.724,4.282,3.313,4.372,5.025.09,1.722,2.868,3.207,3.003,4.917.136,1.719-1.213,3.498-1.032,5.204s2.198,3.129,2.424,4.83-6.067,4.354-5.796,6.049,6.669,2.329,6.985,4.016.059,3.416.42,5.094-.808,3.663-.402,5.33,1.034,3.252,1.485,4.909-.029,3.564.466,5.207,3.257,2.536,3.796,4.166-1.558,4.141-.975,5.756-1.883,4.432-1.258,6.032,3.136,2.507,3.804,4.089,3.657,2.156,4.368,3.72-2.076,4.804-1.323,6.348,5.434,1.132,6.227,2.656,1.823,2.873,2.657,4.375-.313,4.121.56,5.601,3.291,2.009,4.204,3.465,2.483,2.435,3.434,3.866-.289,4.338.7,5.743,5.323.342,6.349,1.721-3.266,6.819-2.204,8.17,2.882,2.183,3.979,3.506,6.684-1.206,7.816.087.787,3.82,1.953,5.083,2.294,2.5,3.494,3.732-.445,5.319.787,6.519,1.677,3.342,2.94,4.509,4.411.325,5.704,1.458.734,4.533,2.058,5.631,3.49,1.285,4.842,2.348,4.352.024,5.732,1.051,4.84-.909,6.247.081-.862,7.33.571,8.282,2.582,2.495,4.039,3.409,6.043-3.291,7.525-2.416,2.217,2.951,3.722,3.787,2.671,2.253,4.197,3.048,2.31,3.085,3.857,3.839,2.919,1.972,4.486,2.684,4.17-.911,5.756-.241,2.934,1.884,4.537,2.512,2.974,1.878,4.594,2.462,2.276,4.116,3.911,4.656,3.683.035,5.332.531,4.592-3.521,6.254-3.069,2.572,3.732,4.245,4.139,3.873-1.549,5.557-1.187,3.406.262,5.1.58,2.675,4.704,4.377,4.977,3.441.641,5.149.868,3.924-3.853,5.638-3.672,3.397-.043,5.116.093c1.71.135,3.28,1.865,5.002,1.955,1.713.09,3.43-.472,5.154-.427,1.714.045,3.4-1.271,5.125-1.271s3.436,2.319,5.15,2.274c1.724-.045,3.43-.199,5.142-.289,1.722-.09,3.662,2.77,5.372,2.635,1.719-.136,2.972-5.293,4.677-5.473s3.57,1.221,5.27.995,3.689,1.409,5.383,1.138,3.261-1.445,4.947-1.762,3.165-1.679,4.842-2.041,2.706-3.339,4.373-3.745,3.713.899,5.37.448,3.55.016,5.193-.48,4.375,2.336,6.005,1.797,1.821-5.308,3.437-5.891,3.97.83,5.57.204,4.483,1.739,6.065,1.07,3.273-1.356,4.836-2.067,2.569-2.813,4.113-3.565,3.528-.806,5.052-1.6,1.671-4.25,3.173-5.084,4.127.216,5.607-.658,1.644-3.973,3.099-4.886,5.182,1.592,6.613.64,2.686-2.341,4.092-3.33-.136-6.1,1.243-7.126,5.842,1.932,7.193.87-.063-5.606,1.26-6.704,3.265-1.455,4.558-2.587,3.566-1.211,4.829-2.377.569-4.403,1.801-5.602.634-4.135,1.833-5.367,2.214-2.5,3.38-3.763,6.198.995,7.331-.299,2.112-2.761,3.21-4.085,3.689-1.511,4.752-2.863-.073-4.44.953-5.82,2.278-2.608,3.268-4.015,1.325-3.264,2.277-4.697,5.26-.752,6.174-2.21-3.385-6.107-2.51-7.588,3.625-1.848,4.46-3.352,1.596-3.04,2.391-4.566,4.557-1.597,5.311-3.145-1.912-4.736-1.2-6.303-.911-4.098-.241-5.683,4.299-1.918,4.927-3.521-1.162-4.075-.578-5.694,3.868-2.271,4.408-3.906.966-3.31,1.462-4.959.705-3.378,1.157-5.04,1.966-3.059,2.374-4.732,3.034-2.894,3.396-4.578-.521-3.688-.204-5.381-2.695-3.969-2.423-5.671,4.537-2.832,4.764-4.541-6.45-4.213-6.268-5.927.695-3.284.831-5.003c.135-1.71,5.196-3.07,5.286-4.792.09-1.713-3.482-3.561-3.437-5.285.045-1.714,1.131-3.374,1.131-5.098s3.662-3.508,3.617-5.222c-.045-1.724-.805-3.47-.894-5.182-.09-1.722-1.843-3.355-1.978-5.064-.136-1.719,1.134-3.585.953-5.291s-1.683-3.291-1.908-4.992-.757-3.372-1.028-5.066-.45-3.417-.767-5.103-1.391-3.223-1.752-4.901-3.526-2.665-3.932-4.333-.663-3.288-1.114-4.944,2.41-4.225,1.915-5.869.204-3.694-.335-5.324-.954-3.353-1.536-4.968-4.076-2.144-4.702-3.743-1.666-2.986-2.335-4.568,2.464-4.84,1.753-6.404-1.341-3.239-2.093-4.783-7.079-.262-7.873-1.786,1.165-4.462.331-5.964,1.666-4.954.793-6.434-7.409.489-8.322-.967,2.348-5.578,1.396-7.009-1.889-2.924-2.878-4.329-2.463-2.505-3.489-3.884-4.338-.997-5.401-2.348,1.776-5.878.678-7.201-6.873,1.337-8.006.044.771-5.287-.395-6.55-2.797-2.118-3.996-3.35-3.526-1.328-4.758-2.528-2.878-1.911-4.141-3.077.5-5.723-.794-6.856-5.821,1.509-7.144.411.977-6.718-.375-7.781-6.856,3.287-8.236,2.26-1.591-3.574-2.997-4.564-.135-5.955-1.568-6.907-4.806,1.007-6.263.093-4.096.163-5.578-.711-1.691-3.925-3.195-4.76-3.744-.282-5.27-1.077-1.531-4.643-3.078-5.396-4.991,2.519-6.557,1.807-1.402-5.372-2.987-6.042-5.082,3.387-6.685,2.76-2.492-3.001-4.111-3.585-2.011-4.791-3.645-5.331-3.479-.642-5.128-1.138-4.24,2.24-5.901,1.788-3.903,1.603-5.577,1.195-2.279-5.309-3.963-5.672-3.653.656-5.346.339-3.56.529-5.262.257-3.468.284-5.177.057-2.793-5.725-4.507-5.906-3.466-.838-5.185-.974c-1.71-.135-3.794,4.882-5.516,4.792-1.713-.09-3.285-4.365-5.009-4.41-1.714-.045-3.508,1.448-5.233,1.448Z" style="fill: #fff;"/>
        <path d="M336.007,92.882c-1.725,0-3.355,4.733-5.069,4.778-1.724.045-3.637-5.311-5.35-5.221-1.722.09-3.065,5.613-4.774,5.748-1.719.136-3.483-1.056-5.189-.876s-3.71-2.203-5.411-1.977-3.053,2.805-4.747,3.076-3.162,1.552-4.849,1.868-4.333-4.128-6.01-3.766-3.051,2.253-4.718,2.66-3.61-.104-5.266.346-2.462,3.899-4.106,4.394-2.98,1.814-4.61,2.353-3.024,1.564-4.64,2.146-5.041-3.656-6.64-3.031-3.569.545-5.151,1.214-1.672,4.834-3.235,5.545-3.73.155-5.274.907-1.759,4.11-3.283,4.903-2.785,1.948-4.288,2.782-3.331.985-4.811,1.859-5.491-2.375-6.946-1.462-3.426,1.203-4.857,2.154-.447,5.518-1.853,6.507-4.613-.461-5.992.566-2.322,2.721-3.673,3.783-1.292,3.902-2.615,4.999-3.445,1.267-4.738,2.4-4.213.537-5.476,1.704-1.276,3.739-2.508,4.938-2.333,2.576-3.533,3.808-.915,3.876-2.082,5.139-1.053,3.616-2.186,4.91-4.558.597-5.656,1.921.43,4.728-.632,6.08-3.455,1.621-4.482,3.001-.629,3.725-1.619,5.132-5.423.434-6.375,1.867-3.714,1.773-4.627,3.231.63,4.474-.245,5.955-4.156,1.644-4.991,3.149-1.588,3.151-2.383,4.678-2.012,2.941-2.766,4.488,3.32,5.395,2.608,6.962-2.392,2.675-3.062,4.261-.393,3.523-1.02,5.126-2.892,2.568-3.476,4.188-1.246,3.216-1.786,4.851-3.799,2.456-4.295,4.105,2.81,4.416,2.358,6.078-.584,3.375-.992,5.049-4.808,2.453-5.17,4.137,5.407,4.595,5.09,6.288-3.777,2.792-4.049,4.493-.292,3.43-.519,5.139,1.364,3.595,1.183,5.309-1.455,3.281-1.591,4.999c-.135,1.71-1.206,3.356-1.296,5.078-.09,1.713-.313,3.433-.358,5.157-.045,1.714,2.772,3.444,2.772,5.169,0,1.725-5.843,3.533-5.798,5.247.045,1.724,4.282,3.313,4.372,5.025.09,1.722,2.868,3.207,3.003,4.917.136,1.719-1.213,3.498-1.032,5.204s2.198,3.129,2.424,4.83-6.067,4.354-5.796,6.049,6.669,2.329,6.985,4.016.059,3.416.42,5.094-.808,3.663-.402,5.33,1.034,3.252,1.485,4.909-.029,3.564.466,5.207,3.257,2.536,3.796,4.166-1.558,4.141-.975,5.756-1.883,4.432-1.258,6.032,3.136,2.507,3.804,4.089,3.657,2.156,4.368,3.72-2.076,4.804-1.323,6.348,5.434,1.132,6.227,2.656,1.823,2.873,2.657,4.375-.313,4.121.56,5.601,3.291,2.009,4.204,3.465,2.483,2.435,3.434,3.866-.289,4.338.7,5.743,5.323.342,6.349,1.721-3.266,6.819-2.204,8.17,2.882,2.183,3.979,3.506,6.684-1.206,7.816.087.787,3.82,1.953,5.083,2.294,2.5,3.494,3.732-.445,5.319.787,6.519,1.677,3.342,2.94,4.509,4.411.325,5.704,1.458.734,4.533,2.058,5.631,3.49,1.285,4.842,2.348,4.352.024,5.732,1.051,4.84-.909,6.247.081-.862,7.33.571,8.282,2.582,2.495,4.039,3.409,6.043-3.291,7.525-2.416,2.217,2.951,3.722,3.787,2.671,2.253,4.197,3.048,2.31,3.085,3.857,3.839,2.919,1.972,4.486,2.684,4.17-.911,5.756-.241,2.934,1.884,4.537,2.512,2.974,1.878,4.594,2.462,2.276,4.116,3.911,4.656,3.683.035,5.332.531,4.592-3.521,6.254-3.069,2.572,3.732,4.245,4.139,3.873-1.549,5.557-1.187,3.406.262,5.1.58,2.675,4.704,4.377,4.977,3.441.641,5.149.868,3.924-3.853,5.638-3.672,3.397-.043,5.116.093c1.71.135,3.28,1.865,5.002,1.955,1.713.09,3.43-.472,5.154-.427,1.714.045,3.4-1.271,5.125-1.271s3.436,2.319,5.15,2.274c1.724-.045,3.43-.199,5.142-.289,1.722-.09,3.662,2.77,5.372,2.635,1.719-.136,2.972-5.293,4.677-5.473s3.57,1.221,5.27.995,3.689,1.409,5.383,1.138,3.261-1.445,4.947-1.762,3.165-1.679,4.842-2.041,2.706-3.339,4.373-3.745,3.713.899,5.37.448,3.55.016,5.193-.48,4.375,2.336,6.005,1.797,1.821-5.308,3.437-5.891,3.97.83,5.57.204,4.483,1.739,6.065,1.07,3.273-1.356,4.836-2.067,2.569-2.813,4.113-3.565,3.528-.806,5.052-1.6,1.671-4.25,3.173-5.084,4.127.216,5.607-.658,1.644-3.973,3.099-4.886,5.182,1.592,6.613.64,2.686-2.341,4.092-3.33-.136-6.1,1.243-7.126,5.842,1.932,7.193.87-.063-5.606,1.26-6.704,3.265-1.455,4.558-2.587,3.566-1.211,4.829-2.377.569-4.403,1.801-5.602.634-4.135,1.833-5.367,2.214-2.5,3.38-3.763,6.198.995,7.331-.299,2.112-2.761,3.21-4.085,3.689-1.511,4.752-2.863-.073-4.44.953-5.82,2.278-2.608,3.268-4.015,1.325-3.264,2.277-4.697,5.26-.752,6.174-2.21-3.385-6.107-2.51-7.588,3.625-1.848,4.46-3.352,1.596-3.04,2.391-4.566,4.557-1.597,5.311-3.145-1.912-4.736-1.2-6.303-.911-4.098-.241-5.683,4.299-1.918,4.927-3.521-1.162-4.075-.578-5.694,3.868-2.271,4.408-3.906.966-3.31,1.462-4.959.705-3.378,1.157-5.04,1.966-3.059,2.374-4.732,3.034-2.894,3.396-4.578-.521-3.688-.204-5.381-2.695-3.969-2.423-5.671,4.537-2.832,4.764-4.541-6.45-4.213-6.268-5.927.695-3.284.831-5.003c.135-1.71,5.196-3.07,5.286-4.792.09-1.713-3.482-3.561-3.437-5.285.045-1.714,1.131-3.374,1.131-5.098s3.662-3.508,3.617-5.222c-.045-1.724-.805-3.47-.894-5.182-.09-1.722-1.843-3.355-1.978-5.064-.136-1.719,1.134-3.585.953-5.291s-1.683-3.291-1.908-4.992-.757-3.372-1.028-5.066-.45-3.417-.767-5.103-1.391-3.223-1.752-4.901-3.526-2.665-3.932-4.333-.663-3.288-1.114-4.944,2.41-4.225,1.915-5.869.204-3.694-.335-5.324-.954-3.353-1.536-4.968-4.076-2.144-4.702-3.743-1.666-2.986-2.335-4.568,2.464-4.84,1.753-6.404-1.341-3.239-2.093-4.783-7.079-.262-7.873-1.786,1.165-4.462.331-5.964,1.666-4.954.793-6.434-7.409.489-8.322-.967,2.348-5.578,1.396-7.009-1.889-2.924-2.878-4.329-2.463-2.505-3.489-3.884-4.338-.997-5.401-2.348,1.776-5.878.678-7.201-6.873,1.337-8.006.044.771-5.287-.395-6.55-2.797-2.118-3.996-3.35-3.526-1.328-4.758-2.528-2.878-1.911-4.141-3.077.5-5.723-.794-6.856-5.821,1.509-7.144.411.977-6.718-.375-7.781-6.856,3.287-8.236,2.26-1.591-3.574-2.997-4.564-.135-5.955-1.568-6.907-4.806,1.007-6.263.093-4.096.163-5.578-.711-1.691-3.925-3.195-4.76-3.744-.282-5.27-1.077-1.531-4.643-3.078-5.396-4.991,2.519-6.557,1.807-1.402-5.372-2.987-6.042-5.082,3.387-6.685,2.76-2.492-3.001-4.111-3.585-2.011-4.791-3.645-5.331-3.479-.642-5.128-1.138-4.24,2.24-5.901,1.788-3.903,1.603-5.577,1.195-2.279-5.309-3.963-5.672-3.653.656-5.346.339-3.56.529-5.262.257-3.468.284-5.177.057-2.793-5.725-4.507-5.906-3.466-.838-5.185-.974c-1.71-.135-3.794,4.882-5.516,4.792-1.713-.09-3.285-4.365-5.009-4.41-1.714-.045-3.508,1.448-5.233,1.448Z" style="fill: none; stroke: #000; stroke-linecap: round; stroke-linejoin: round; stroke-width: 45px;"/>
      </g>
    </g>
  </g>
  <g id="Schrift">
    <text transform="translate(258.158 378.076)" style="font-family: DarumadropOne, &apos;Darumadrop One&apos;; font-size: 300px;"><tspan x="0" y="0">2</tspan></text>
  </g>
</svg>