<?xml version="1.0" encoding="UTF-8"?>
<svg xmlns="http://www.w3.org/2000/svg" width="700" height="700" viewBox="0 0 700 700">
  <g id="LM_Icons" data-name="LM Icons">
    <g>
      <path d="M307.605,481.991c-.202,1.706.408,3.612,0,5.295-.402,1.661-4.856,1.983-5.446,3.621-.577,1.602,1.512,4.142.766,5.72-.726,1.537-4.518,1.295-5.392,2.809-.85,1.471,1.745,4.974.764,6.421-.953,1.407-2.801,2.171-3.869,3.555-1.039,1.346-.743,3.815-1.882,5.138-1.111,1.29-3.906,1.078-5.105,2.345-1.172,1.238.208,5.052-1.04,6.267-1.223,1.19-4.527.237-5.817,1.404-1.267,1.147-.655,4.507-1.981,5.63-1.305,1.107-6.05-1.961-7.406-.878-1.339,1.07.474,6.189-.908,7.236-1.368,1.036-4.913-.85-6.318.162-1.394,1.004.072,6.119-1.353,7.099-1.417.975-3.385,1.25-4.826,2.201s-2.898,1.955-4.356,2.878-2.866,2.014-4.337,2.911-2.699,2.31-4.182,3.183c-1.491.877-6.161-3.743-7.655-2.893-1.506.856-.024,7.045-1.528,7.873-1.52.837-5.307-2.506-6.82-1.699-1.534.818-4.006-.243-5.525.543-1.547.8-1.983,3.681-3.509,4.447-1.559.784-3.543.621-5.074,1.369-1.571.767-2.567,2.633-4.101,3.361-1.584.753-1.432,5.168-2.968,5.878-1.599.739-6.086-4.948-7.624-4.256-1.614.726-.717,6.977-2.254,7.65-1.63.714-2.591,2.914-4.122,3.566-1.653.704-3.396,1.105-4.918,1.736-1.683.697-4.923-2.634-6.426-2.029-1.733.697-2.516,3.421-3.979,3.991-1.846.719-3.686.795-5.045,1.305-3.101,1.164-6.823.998-6.823.998.028-2.634,5.576-2.574,5.605-5.207s-5.493-2.691-5.465-5.322-.394-2.638-.365-5.272c.028-2.632,1.154-2.62,1.183-5.252s-1.092-2.645-1.064-5.279c.028-2.634,3.499-2.597,3.528-5.231.028-2.634.624-2.628.653-5.262s-.72-2.642-.691-5.277c.028-2.635-4.043-2.679-4.015-5.314.028-2.634,3.787-2.593,3.815-5.227.028-2.636-3.71-2.676-3.682-5.312.028-2.638,5.965-2.574,5.993-5.211s-1.841-2.658-1.812-5.296c0,0-3.849,3.552-7.014,2.84-1.363-.307-1.585-6.677-3.456-7.151-1.466-.371-3.675,1.532-5.427,1.047-1.502-.416-2.293-3.603-3.99-4.11-1.518-.454-4.03,2.094-5.694,1.562-1.525-.487-2.901-1.651-4.54-2.208-1.527-.519-2.72-2.125-4.34-2.706-1.526-.548-3.682.499-5.283-.107-1.521-.576-3.169-.964-4.754-1.595-1.516-.603-2.181-3.37-3.752-4.025-1.51-.63-4.837,2.891-6.395,2.211-1.501-.655-2.982-1.539-4.524-2.242-1.495-.681-.594-6.564-2.124-7.291-1.486-.706-6.006,4.767-7.522,4.016-1.476-.732-.636-6.139-2.139-6.914-1.466-.756-2.678-.429-4.166-1.228,1.389-.964,1.215-2.875,2.615-3.915,1.361-1.011,3.621-.865,4.988-1.941,1.335-1.051,4.807.438,6.144-.668,1.312-1.085-1.382-6.955-.07-8.087,1.292-1.115,6.255,1.918,7.542.763,1.273-1.141.859-4.189,2.124-5.364,1.255-1.164,2.477-2.384,3.722-3.576s4.541-.289,5.768-1.496,2.879-2.047,4.089-3.268-2.556-7.325-1.362-8.558,6.768,1.708,7.946.463c1.187-1.255-.678-5.373.485-6.628,1.177-1.269,5.817.639,6.966-.624,1.167-1.283-2.902-7.265-1.767-8.536,1.157-1.296,3.412-1.567,4.533-2.844,1.148-1.309,4.269-.867,5.376-2.15,1.142-1.323,1.233-3.51,2.326-4.797,1.136-1.338,2.934-2.071,4.013-3.363,1.131-1.353-.947-5.294.116-6.586,1.127-1.369,5.081-.342,6.126-1.632,1.127-1.391,4.453-.936,5.479-2.221,1.133-1.419.412-4.202,1.411-5.473,1.151-1.464,1.844-3.109,2.803-4.349,1.208-1.563,1.328-3.641,2.203-4.795,1.994-2.628,4.057-1.498,4.057-1.498M392.194,490.469c.202,1.706,1.43,3.191,1.838,4.875.402,1.661-3.053,4.638-2.463,6.276.577,1.602,3.994,2.244,4.739,3.823.726,1.537-1.461,4.831-.587,6.344.85,1.471,5.28.888,6.261,2.335.953,1.407,1.132,3.433,2.2,4.817,1.039,1.346,3.519,1.547,4.659,2.87,1.111,1.29.631,4.059,1.83,5.326,1.172,1.238,4.976-.123,6.224,1.092,1.223,1.19.437,4.502,1.727,5.669,1.267,1.147,4.476.058,5.802,1.181,1.305,1.107-.775,6.364.581,7.447,1.339,1.07,5.875-1.934,7.257-.888,1.368,1.036.598,4.969,2.002,5.981,1.394,1.004,5.68-2.126,7.105-1.146,1.417.975,2.311,2.626,3.753,3.576,1.438.948,2.875,1.811,4.332,2.734s2.979,1.651,4.45,2.548,3.211,1.26,4.694,2.133c1.491.877-.192,7.224,1.302,8.073,1.506.856,6-3.648,7.504-2.821,1.52.837.769,5.822,2.281,6.629,1.534.818,2.118,3.484,3.638,4.271,1.547.8,4.185-.512,5.711.255,1.559.784,2.667,2.477,4.197,3.225,1.571.767,3.682.398,5.216,1.127,1.584.753,4.86-2.199,6.397-1.489,1.599.739.254,7.859,1.793,8.551,1.614.726,5.666-4.125,7.203-3.452,1.63.714,3.837-.119,5.369.533,1.653.704,3.093,1.639,4.615,2.27,1.683.697,1.641,5.332,3.145,5.937,1.733.697,4.163-.756,5.627-.186,1.846.719,3.243,1.877,4.602,2.387,3.101,1.164,2.871,2.545,2.871,2.545-.028-2.634,5.52-2.693,5.491-5.327s-5.55-2.571-5.578-5.202-.451-2.629-.479-5.262c-.028-2.632,1.098-2.644,1.069-5.276-.028-2.633-1.149-2.621-1.178-5.254-.028-2.634,3.442-2.672,3.414-5.306-.028-2.634.568-2.641.539-5.275-.028-2.634-.776-2.626-.805-5.261-.028-2.635-4.1-2.591-4.129-5.226s3.73-2.674,3.701-5.308c-.028-2.636-3.767-2.596-3.795-5.232-.028-2.638,5.908-2.702,5.879-5.34s-2.739-2.355-1.979-4.881c.72-2.393-.335-4.505,2.829-5.217,1.363-.307,4.398,5.294,6.269,4.82,1.466-.371,2.486-3.127,4.238-3.612,1.502-.416,3.915,1.85,5.611,1.343,1.518-.454,2.192-3.984,3.856-4.516,1.525-.487,3.317-.366,4.956-.922,1.527-.519,3.485-.011,5.104-.593,1.526-.548,2.499-2.747,4.101-3.353,1.521-.576,2.982-1.392,4.567-2.022,1.516-.603,3.94.908,5.51.253,1.51-.63,1.253-5.458,2.81-6.137,1.501-.655,3.065-1.128,4.607-1.83,1.495-.681,5.421,3.793,6.951,3.066,1.486-.706-.032-7.636,1.484-8.388,1.476-.732,5.296,3.17,6.798,2.395,1.466-.756,3.209-2.638,4.698-3.436-1.389-.964-4.355-1.062-5.754-2.102-1.361-1.011-1.83-3.248-3.197-4.324-1.335-1.051-.539-4.7-1.877-5.806-1.312-1.085-6.632,2.565-7.943,1.432-1.292-1.115,1.091-6.42-.197-7.575-1.273-1.141-4.226-.411-5.492-1.586-1.255-1.164-2.535-2.303-3.781-3.495-1.239-1.186-.405-4.478-1.632-5.685s-2.006-2.791-3.216-4.012c-1.211-1.223-7.384,2.42-8.578,1.187-1.199-1.239,1.992-6.674.814-7.918-1.187-1.255-5.405.351-6.568-.904-1.177-1.269,1.137-5.714-.012-6.977-1.167-1.283-7.538,2.141-8.673.87-1.157-1.296-1.182-3.603-2.303-4.881-1.148-1.309-.285-4.347-1.391-5.63-1.142-1.323-3.287-1.752-4.38-3.04-1.136-1.338-1.554-3.238-2.634-4.529-1.131-1.353-5.405-.062-6.469-1.354-1.127-1.369.651-5.062-.395-6.352-1.127-1.391.042-4.528-.984-5.813-1.133-1.419-3.991-1.336-4.99-2.607-1.151-1.464-2.574-2.537-3.532-3.777-1.208-1.563-3.188-2.231-4.063-3.385-1.994-2.628.928-3.891-.591-5.967M341.171,104.599c-1.725,0-3.422.966-5.136,1.01-1.724.045-3.639-4.058-5.351-3.968-1.722.09-3.297,3.109-5.006,3.244-1.719.136-3.807-3.157-5.513-2.977s-2.99,4.425-4.691,4.651c-1.709.227-3.571-.558-5.265-.288s-3.089,2.333-4.775,2.649c-1.694.317-3.821-1.513-5.499-1.152s-2.528,4.314-4.195,4.72-4.053-2.03-5.71-1.579c-1.662.452-2.485,3.738-4.128,4.233s-4.919-4.115-6.549-3.576c-1.635.541-1.588,5.979-3.203,6.561s-4.496-2.204-6.095-1.578c-1.603.627-1.277,5.921-2.859,6.589s-3.435.53-4.998,1.241c-1.567.712-3.035,1.463-4.579,2.216s-2.934,1.658-4.457,2.452-2.691,2.082-4.193,2.916c-1.504.835-6.139-3.813-7.618-2.939-1.482.875.238,6.998-1.218,7.911s-5.455-2.15-6.886-1.198-4.087.237-5.492,1.226c-1.407.99-1.463,3.953-2.842,4.979-1.38,1.027-3.405,1.285-4.756,2.347-1.352,1.063-1.938,3.142-3.261,4.239s.025,5.287-1.268,6.42c-1.294,1.133-7.286-2.94-8.549-1.774s1.654,6.776.422,7.976-1.234,3.52-2.433,4.751-2.538,2.2-3.705,3.464-5.496-.364-6.629.929c-1.132,1.293-.535,4.053-1.633,5.376-1.098,1.323-2.615,2.27-3.678,3.622-1.062,1.351-1.384,3.229-2.41,4.609-1.026,1.379-6.545-.458-7.535.949-.989,1.405,2.581,5.966,1.629,7.398s-1.502,3.063-2.416,4.52-2.747,2.305-3.622,3.786c-.874,1.479-.735,3.493-1.57,4.998-.834,1.502-4.701,1.364-5.495,2.891s-2.119,2.831-2.873,4.378-.826,3.458-1.538,5.024,2.336,4.754,1.666,6.339-4.788,1.735-5.415,3.338c-.626,1.599,2.277,4.5,1.693,6.12-.583,1.615-6.756,1.305-7.297,2.94-.539,1.63.708,3.888.211,5.537-.495,1.643,4.043,4.694,3.59,6.356-.451,1.656-6.828,1.764-7.235,3.437-.406,1.667,1.547,3.907,1.184,5.591-.361,1.678-3.495,2.834-3.813,4.528s2.513,3.951,2.241,5.653-1.187,3.292-1.414,5.001c-.226,1.7-1.547,3.293-1.728,5.007-.18,1.706,1.38,3.588,1.245,5.306-.135,1.71-.014,3.426-.105,5.147-.09,1.713-2.469,3.352-2.514,5.076-.045,1.714,4.475,3.476,4.475,5.201s-.183,3.373-.138,5.087c.045,1.724-5.596,3.67-5.506,5.382.09,1.722,7.085,2.974,7.22,4.683.136,1.719-4.892,3.875-4.712,5.581s.82,3.399,1.046,5.099c.227,1.709,2.504,3.109,2.775,4.803s-.904,3.639-.588,5.326-2.606,4.09-2.245,5.768c.363,1.684,6.814,1.983,7.22,3.651s-4.542,4.731-4.091,6.387c.452,1.662,3.371,2.662,3.866,4.306.497,1.649,1.065,3.285,1.604,4.915s-1.663,4.269-1.08,5.884.689,3.521,1.314,5.12,7.726.584,8.395,2.166-4.191,5.594-3.48,7.158,5.234,1.367,5.986,2.911-2.664,5.23-1.87,6.754c.795,1.526,7.797-.286,8.631,1.216.835,1.504.343,3.684,1.217,5.164.875,1.482-.499,4.311.414,5.767s2.982,2.169,3.933,3.6c.952,1.433,1.174,3.357,2.163,4.762s5.303.348,6.329,1.727-.91,4.958.153,6.309-.073,4.523,1.025,5.846,3.985,1.176,5.117,2.469,2.63,2.266,3.797,3.529c1.167,1.263,3.185,1.695,4.385,2.927s.227,4.648,1.459,5.848,1.682,3.319,2.946,4.486c1.263,1.166,6.795-2.416,8.088-1.283,1.293,1.132-1.65,7.237-.327,8.335,1.323,1.098,6.911-3.087,8.263-2.024s.088,5.486,1.468,6.512c1.379,1.026,4.911-.969,6.318.021s-.682,7.097.751,8.05c1.431.951,6.724-4.086,8.181-3.173s.808,5.194,2.29,6.069c1.479.874,2.086,3.336,3.59,4.171s4.993-2.029,6.519-1.234c1.524.793,2.767,2.038,4.314,2.792s3.29.966,4.857,1.678c1.564.711,2.357,3.106,3.943,3.776,1.582.668,2.186,3.826,3.789,4.453s4.918-3.312,6.537-2.728c1.615.583,2.351,3.629,3.986,4.169s2.752,2.799,4.401,3.295,4.404-2.892,6.066-2.44c1.656.451,2.482,4.104,4.156,4.511,1.667.406,4.277-3.368,5.961-3.006,1.678.361,3.078,1.805,4.772,2.122,1.686.316,3.027,2.53,4.728,2.802s3.236,1.767,4.944,1.993,3.48.117,5.194.298,3.854-4.786,5.572-4.651c1.71.135,3.158,3.341,4.88,3.432,1.713.09,3.306,4.069,5.03,4.114,1.714.045,3.513-4.866,5.238-4.866s3.526,4.999,5.239,4.954c1.724-.045,3.215-6.006,4.928-6.095,1.722-.09,3.289-1.152,4.999-1.287,1.719-.136,3.79,4.04,5.495,3.859s3.346-1.083,5.046-1.309c1.709-.227,3.329-.966,5.024-1.237s3.125-1.925,4.812-2.241,4.248,3.628,5.926,3.267,3.796.768,5.463.362c1.674-.408,1.949-6.35,3.606-6.801,1.662-.452,3.517-.094,5.161-.589,1.649-.497,3.957,1.079,5.587.54,1.635-.541,1.826-5.184,3.442-5.766s4.741,2.893,6.34,2.267,3.172-1.427,4.754-2.096,2.877-2.064,4.441-2.775c1.567-.712,2.738-2.262,4.283-3.015,1.547-.754,2.809-2.029,4.332-2.823,1.526-.795,4.814,1.641,6.317.807,1.504-.835,3.437-1.085,4.917-1.959,1.482-.875.817-5.343,2.273-6.256s3.064-1.568,4.495-2.52c1.433-.952,1.839-3.343,3.245-4.332s4.859.865,6.238-.161c1.38-1.027,3.559-1.096,4.91-2.159s.567-4.811,1.89-5.909,3.526-1.162,4.819-2.295c1.294-1.133,1.964-2.966,3.227-4.132,1.263-1.167,5.351.578,6.583-.622s2.651-2.357,3.851-3.589-2.822-7.429-1.655-8.692,6.003.8,7.135-.494c1.132-1.293-2.125-6.292-1.027-7.615,1.098-1.323,8.299,2.285,9.362.933,1.062-1.351-3.772-7.221-2.745-8.6s3.228-1.818,4.217-3.225.479-3.745,1.432-5.178c.951-1.431,6.457.108,7.371-1.349s2.685-2.46,3.559-3.942c.874-1.479-2.735-5.532-1.9-7.037.834-1.502,3.334-2.066,4.129-3.593.793-1.524,4.153-1.785,4.907-3.333s2.498-2.71,3.21-4.277c.711-1.564-2.981-5.092-2.311-6.677s4.027-2.076,4.654-3.68c.626-1.599,2.213-2.901,2.797-4.52.583-1.615,1.957-3.046,2.498-4.681.539-1.63-3.152-4.634-2.655-6.283.495-1.643,1.742-3.059,2.194-4.721.451-1.656.323-3.453.731-5.126.406-1.667,4.451-2.536,4.814-4.22.361-1.678-3.503-4.234-3.186-5.928s-.932-3.593-.66-5.295c.271-1.694,2.246-3.091,2.473-4.799.226-1.7-2.441-3.683-2.26-5.396s4.636-2.974,4.771-4.693c.135-1.71-.405-3.47-.315-5.192.09-1.713.258-3.421.303-5.145.045-1.714-1.156-3.429-1.156-5.154s.694-3.426.649-5.14c-.045-1.724,2.01-3.536,1.92-5.248-.09-1.722-1.084-3.406-1.219-5.116-.136-1.719-4.798-2.97-4.978-4.676s4.251-3.93,4.026-5.631c-.227-1.709.505-3.586.235-5.28s-3.599-2.874-3.915-4.56-2.836-2.872-3.197-4.55c-.363-1.684,2.784-4.12,2.378-5.788s.457-3.691.006-5.347c-.452-1.662-1.086-3.304-1.581-4.948s-4.352-2.218-4.891-3.849,4.753-5.306,4.17-6.921-5.567-1.628-6.192-3.227c-.627-1.603,2.388-4.721,1.719-6.303-.67-1.586-3.363-2.344-4.074-3.908-.712-1.567-5.854-1.005-6.606-2.55-.754-1.547.876-4.218.083-5.742-.795-1.526,2.35-5.202,1.516-6.704-.835-1.504-7.003.039-7.876-1.441-.875-1.482-1.581-2.98-2.494-4.436s-.803-3.512-1.754-4.943c-.952-1.433-3.55-1.66-4.54-3.066-.99-1.407,2.703-6.184,1.677-7.563-1.027-1.38-1.418-3.338-2.481-4.689-1.063-1.352-4.539-.812-5.637-2.135-1.098-1.323-3.578-1.443-4.711-2.736s-1.852-2.911-3.018-4.174-2.98-1.857-4.18-3.089-1.113-3.71-2.345-4.909c-1.232-1.2-3.14-1.66-4.404-2.827s-1.066-3.954-2.36-5.087-5.704,1.447-7.028.349-2.234-2.558-3.586-3.621-2.012-2.911-3.392-3.938-3.438-.987-4.845-1.977-2.552-2.207-3.985-3.159-.75-5.122-2.207-6.036c-1.456-.913-1.391-4.447-2.873-5.322s-4.246.355-5.751-.48c-1.502-.834-1.916-3.847-3.442-4.641s-4.745,1.654-6.292.901-1.839-4.278-3.406-4.99c-1.564-.711-3.898.166-5.483-.504s-2.524-3.096-4.127-3.724-4.405,1.81-6.024,1.226c-1.615-.583-3.683.176-5.318-.365s-1.978-5.239-3.626-5.736-4.686,3.813-6.348,3.361-3.525.159-5.198-.249c-1.667-.406-1.909-7.096-3.593-7.458s-4.494,4.805-6.188,4.487-2.417-6.299-4.119-6.571c-1.694-.271-4.089,3.938-5.797,3.712-1.7-.226-3.033-3.793-4.746-3.974-1.706-.18-3.698,2.304-5.417,2.169-1.71-.135-3.289-2.856-5.011-2.946-1.713-.09-3.612,4.142-5.336,4.097-1.714-.045-3.39-1.853-5.115-1.853Z" style="fill: #fff;"/>
      <path d="M307.605,481.991c-.202,1.706.408,3.612,0,5.295-.402,1.661-4.856,1.983-5.446,3.621-.577,1.602,1.512,4.142.766,5.72-.726,1.537-4.518,1.295-5.392,2.809-.85,1.471,1.745,4.974.764,6.421-.953,1.407-2.801,2.171-3.869,3.555-1.039,1.346-.743,3.815-1.882,5.138-1.111,1.29-3.906,1.078-5.105,2.345-1.172,1.238.208,5.052-1.04,6.267-1.223,1.19-4.527.237-5.817,1.404-1.267,1.147-.655,4.507-1.981,5.63-1.305,1.107-6.05-1.961-7.406-.878-1.339,1.07.474,6.189-.908,7.236-1.368,1.036-4.913-.85-6.318.162-1.394,1.004.072,6.119-1.353,7.099-1.417.975-3.385,1.25-4.826,2.201s-2.898,1.955-4.356,2.878-2.866,2.014-4.337,2.911-2.699,2.31-4.182,3.183c-1.491.877-6.161-3.743-7.655-2.893-1.506.856-.024,7.045-1.528,7.873-1.52.837-5.307-2.506-6.82-1.699-1.534.818-4.006-.243-5.525.543-1.547.8-1.983,3.681-3.509,4.447-1.559.784-3.543.621-5.074,1.369-1.571.767-2.567,2.633-4.101,3.361-1.584.753-1.432,5.168-2.968,5.878-1.599.739-6.086-4.948-7.624-4.256-1.614.726-.717,6.977-2.254,7.65-1.63.714-2.591,2.914-4.122,3.566-1.653.704-3.396,1.105-4.918,1.736-1.683.697-4.923-2.634-6.426-2.029-1.733.697-2.516,3.421-3.979,3.991-1.846.719-3.686.795-5.045,1.305-3.101,1.164-6.823.998-6.823.998.028-2.634,5.576-2.574,5.605-5.207s-5.493-2.691-5.465-5.322-.394-2.638-.365-5.272c.028-2.632,1.154-2.62,1.183-5.252s-1.092-2.645-1.064-5.279c.028-2.634,3.499-2.597,3.528-5.231.028-2.634.624-2.628.653-5.262s-.72-2.642-.691-5.277c.028-2.635-4.043-2.679-4.015-5.314.028-2.634,3.787-2.593,3.815-5.227.028-2.636-3.71-2.676-3.682-5.312.028-2.638,5.965-2.574,5.993-5.211s-1.841-2.658-1.812-5.296c0,0-3.849,3.552-7.014,2.84-1.363-.307-1.585-6.677-3.456-7.151-1.466-.371-3.675,1.532-5.427,1.047-1.502-.416-2.293-3.603-3.99-4.11-1.518-.454-4.03,2.094-5.694,1.562-1.525-.487-2.901-1.651-4.54-2.208-1.527-.519-2.72-2.125-4.34-2.706-1.526-.548-3.682.499-5.283-.107-1.521-.576-3.169-.964-4.754-1.595-1.516-.603-2.181-3.37-3.752-4.025-1.51-.63-4.837,2.891-6.395,2.211-1.501-.655-2.982-1.539-4.524-2.242-1.495-.681-.594-6.564-2.124-7.291-1.486-.706-6.006,4.767-7.522,4.016-1.476-.732-.636-6.139-2.139-6.914-1.466-.756-2.678-.429-4.166-1.228,1.389-.964,1.215-2.875,2.615-3.915,1.361-1.011,3.621-.865,4.988-1.941,1.335-1.051,4.807.438,6.144-.668,1.312-1.085-1.382-6.955-.07-8.087,1.292-1.115,6.255,1.918,7.542.763,1.273-1.141.859-4.189,2.124-5.364,1.255-1.164,2.477-2.384,3.722-3.576s4.541-.289,5.768-1.496,2.879-2.047,4.089-3.268-2.556-7.325-1.362-8.558,6.768,1.708,7.946.463c1.187-1.255-.678-5.373.485-6.628,1.177-1.269,5.817.639,6.966-.624,1.167-1.283-2.902-7.265-1.767-8.536,1.157-1.296,3.412-1.567,4.533-2.844,1.148-1.309,4.269-.867,5.376-2.15,1.142-1.323,1.233-3.51,2.326-4.797,1.136-1.338,2.934-2.071,4.013-3.363,1.131-1.353-.947-5.294.116-6.586,1.127-1.369,5.081-.342,6.126-1.632,1.127-1.391,4.453-.936,5.479-2.221,1.133-1.419.412-4.202,1.411-5.473,1.151-1.464,1.844-3.109,2.803-4.349,1.208-1.563,1.328-3.641,2.203-4.795,1.994-2.628,4.057-1.498,4.057-1.498M392.194,490.469c.202,1.706,1.43,3.191,1.838,4.875.402,1.661-3.053,4.638-2.463,6.276.577,1.602,3.994,2.244,4.739,3.823.726,1.537-1.461,4.831-.587,6.344.85,1.471,5.28.888,6.261,2.335.953,1.407,1.132,3.433,2.2,4.817,1.039,1.346,3.519,1.547,4.659,2.87,1.111,1.29.631,4.059,1.83,5.326,1.172,1.238,4.976-.123,6.224,1.092,1.223,1.19.437,4.502,1.727,5.669,1.267,1.147,4.476.058,5.802,1.181,1.305,1.107-.775,6.364.581,7.447,1.339,1.07,5.875-1.934,7.257-.888,1.368,1.036.598,4.969,2.002,5.981,1.394,1.004,5.68-2.126,7.105-1.146,1.417.975,2.311,2.626,3.753,3.576,1.438.948,2.875,1.811,4.332,2.734s2.979,1.651,4.45,2.548,3.211,1.26,4.694,2.133c1.491.877-.192,7.224,1.302,8.073,1.506.856,6-3.648,7.504-2.821,1.52.837.769,5.822,2.281,6.629,1.534.818,2.118,3.484,3.638,4.271,1.547.8,4.185-.512,5.711.255,1.559.784,2.667,2.477,4.197,3.225,1.571.767,3.682.398,5.216,1.127,1.584.753,4.86-2.199,6.397-1.489,1.599.739.254,7.859,1.793,8.551,1.614.726,5.666-4.125,7.203-3.452,1.63.714,3.837-.119,5.369.533,1.653.704,3.093,1.639,4.615,2.27,1.683.697,1.641,5.332,3.145,5.937,1.733.697,4.163-.756,5.627-.186,1.846.719,3.243,1.877,4.602,2.387,3.101,1.164,2.871,2.545,2.871,2.545-.028-2.634,5.52-2.693,5.491-5.327s-5.55-2.571-5.578-5.202-.451-2.629-.479-5.262c-.028-2.632,1.098-2.644,1.069-5.276-.028-2.633-1.149-2.621-1.178-5.254-.028-2.634,3.442-2.672,3.414-5.306-.028-2.634.568-2.641.539-5.275-.028-2.634-.776-2.626-.805-5.261-.028-2.635-4.1-2.591-4.129-5.226s3.73-2.674,3.701-5.308c-.028-2.636-3.767-2.596-3.795-5.232-.028-2.638,5.908-2.702,5.879-5.34s-2.739-2.355-1.979-4.881c.72-2.393-.335-4.505,2.829-5.217,1.363-.307,4.398,5.294,6.269,4.82,1.466-.371,2.486-3.127,4.238-3.612,1.502-.416,3.915,1.85,5.611,1.343,1.518-.454,2.192-3.984,3.856-4.516,1.525-.487,3.317-.366,4.956-.922,1.527-.519,3.485-.011,5.104-.593,1.526-.548,2.499-2.747,4.101-3.353,1.521-.576,2.982-1.392,4.567-2.022,1.516-.603,3.94.908,5.51.253,1.51-.63,1.253-5.458,2.81-6.137,1.501-.655,3.065-1.128,4.607-1.83,1.495-.681,5.421,3.793,6.951,3.066,1.486-.706-.032-7.636,1.484-8.388,1.476-.732,5.296,3.17,6.798,2.395,1.466-.756,3.209-2.638,4.698-3.436-1.389-.964-4.355-1.062-5.754-2.102-1.361-1.011-1.83-3.248-3.197-4.324-1.335-1.051-.539-4.7-1.877-5.806-1.312-1.085-6.632,2.565-7.943,1.432-1.292-1.115,1.091-6.42-.197-7.575-1.273-1.141-4.226-.411-5.492-1.586-1.255-1.164-2.535-2.303-3.781-3.495-1.239-1.186-.405-4.478-1.632-5.685s-2.006-2.791-3.216-4.012c-1.211-1.223-7.384,2.42-8.578,1.187-1.199-1.239,1.992-6.674.814-7.918-1.187-1.255-5.405.351-6.568-.904-1.177-1.269,1.137-5.714-.012-6.977-1.167-1.283-7.538,2.141-8.673.87-1.157-1.296-1.182-3.603-2.303-4.881-1.148-1.309-.285-4.347-1.391-5.63-1.142-1.323-3.287-1.752-4.38-3.04-1.136-1.338-1.554-3.238-2.634-4.529-1.131-1.353-5.405-.062-6.469-1.354-1.127-1.369.651-5.062-.395-6.352-1.127-1.391.042-4.528-.984-5.813-1.133-1.419-3.991-1.336-4.99-2.607-1.151-1.464-2.574-2.537-3.532-3.777-1.208-1.563-3.188-2.231-4.063-3.385-1.994-2.628.928-3.891-.591-5.967M341.171,104.599c-1.725,0-3.422.966-5.136,1.01-1.724.045-3.639-4.058-5.351-3.968-1.722.09-3.297,3.109-5.006,3.244-1.719.136-3.807-3.157-5.513-2.977s-2.99,4.425-4.691,4.651c-1.709.227-3.571-.558-5.265-.288s-3.089,2.333-4.775,2.649c-1.694.317-3.821-1.513-5.499-1.152s-2.528,4.314-4.195,4.72-4.053-2.03-5.71-1.579c-1.662.452-2.485,3.738-4.128,4.233s-4.919-4.115-6.549-3.576c-1.635.541-1.588,5.979-3.203,6.561s-4.496-2.204-6.095-1.578c-1.603.627-1.277,5.921-2.859,6.589s-3.435.53-4.998,1.241c-1.567.712-3.035,1.463-4.579,2.216s-2.934,1.658-4.457,2.452-2.691,2.082-4.193,2.916c-1.504.835-6.139-3.813-7.618-2.939-1.482.875.238,6.998-1.218,7.911s-5.455-2.15-6.886-1.198-4.087.237-5.492,1.226c-1.407.99-1.463,3.953-2.842,4.979-1.38,1.027-3.405,1.285-4.756,2.347-1.352,1.063-1.938,3.142-3.261,4.239s.025,5.287-1.268,6.42c-1.294,1.133-7.286-2.94-8.549-1.774s1.654,6.776.422,7.976-1.234,3.52-2.433,4.751-2.538,2.2-3.705,3.464-5.496-.364-6.629.929c-1.132,1.293-.535,4.053-1.633,5.376-1.098,1.323-2.615,2.27-3.678,3.622-1.062,1.351-1.384,3.229-2.41,4.609-1.026,1.379-6.545-.458-7.535.949-.989,1.405,2.581,5.966,1.629,7.398s-1.502,3.063-2.416,4.52-2.747,2.305-3.622,3.786c-.874,1.479-.735,3.493-1.57,4.998-.834,1.502-4.701,1.364-5.495,2.891s-2.119,2.831-2.873,4.378-.826,3.458-1.538,5.024,2.336,4.754,1.666,6.339-4.788,1.735-5.415,3.338c-.626,1.599,2.277,4.5,1.693,6.12-.583,1.615-6.756,1.305-7.297,2.94-.539,1.63.708,3.888.211,5.537-.495,1.643,4.043,4.694,3.59,6.356-.451,1.656-6.828,1.764-7.235,3.437-.406,1.667,1.547,3.907,1.184,5.591-.361,1.678-3.495,2.834-3.813,4.528s2.513,3.951,2.241,5.653-1.187,3.292-1.414,5.001c-.226,1.7-1.547,3.293-1.728,5.007-.18,1.706,1.38,3.588,1.245,5.306-.135,1.71-.014,3.426-.105,5.147-.09,1.713-2.469,3.352-2.514,5.076-.045,1.714,4.475,3.476,4.475,5.201s-.183,3.373-.138,5.087c.045,1.724-5.596,3.67-5.506,5.382.09,1.722,7.085,2.974,7.22,4.683.136,1.719-4.892,3.875-4.712,5.581s.82,3.399,1.046,5.099c.227,1.709,2.504,3.109,2.775,4.803s-.904,3.639-.588,5.326-2.606,4.09-2.245,5.768c.363,1.684,6.814,1.983,7.22,3.651s-4.542,4.731-4.091,6.387c.452,1.662,3.371,2.662,3.866,4.306.497,1.649,1.065,3.285,1.604,4.915s-1.663,4.269-1.08,5.884.689,3.521,1.314,5.12,7.726.584,8.395,2.166-4.191,5.594-3.48,7.158,5.234,1.367,5.986,2.911-2.664,5.23-1.87,6.754c.795,1.526,7.797-.286,8.631,1.216.835,1.504.343,3.684,1.217,5.164.875,1.482-.499,4.311.414,5.767s2.982,2.169,3.933,3.6c.952,1.433,1.174,3.357,2.163,4.762s5.303.348,6.329,1.727-.91,4.958.153,6.309-.073,4.523,1.025,5.846,3.985,1.176,5.117,2.469,2.63,2.266,3.797,3.529c1.167,1.263,3.185,1.695,4.385,2.927s.227,4.648,1.459,5.848,1.682,3.319,2.946,4.486c1.263,1.166,6.795-2.416,8.088-1.283,1.293,1.132-1.65,7.237-.327,8.335,1.323,1.098,6.911-3.087,8.263-2.024s.088,5.486,1.468,6.512c1.379,1.026,4.911-.969,6.318.021s-.682,7.097.751,8.05c1.431.951,6.724-4.086,8.181-3.173s.808,5.194,2.29,6.069c1.479.874,2.086,3.336,3.59,4.171s4.993-2.029,6.519-1.234c1.524.793,2.767,2.038,4.314,2.792s3.29.966,4.857,1.678c1.564.711,2.357,3.106,3.943,3.776,1.582.668,2.186,3.826,3.789,4.453s4.918-3.312,6.537-2.728c1.615.583,2.351,3.629,3.986,4.169s2.752,2.799,4.401,3.295,4.404-2.892,6.066-2.44c1.656.451,2.482,4.104,4.156,4.511,1.667.406,4.277-3.368,5.961-3.006,1.678.361,3.078,1.805,4.772,2.122,1.686.316,3.027,2.53,4.728,2.802s3.236,1.767,4.944,1.993,3.48.117,5.194.298,3.854-4.786,5.572-4.651c1.71.135,3.158,3.341,4.88,3.432,1.713.09,3.306,4.069,5.03,4.114,1.714.045,3.513-4.866,5.238-4.866s3.526,4.999,5.239,4.954c1.724-.045,3.215-6.006,4.928-6.095,1.722-.09,3.289-1.152,4.999-1.287,1.719-.136,3.79,4.04,5.495,3.859s3.346-1.083,5.046-1.309c1.709-.227,3.329-.966,5.024-1.237s3.125-1.925,4.812-2.241,4.248,3.628,5.926,3.267,3.796.768,5.463.362c1.674-.408,1.949-6.35,3.606-6.801,1.662-.452,3.517-.094,5.161-.589,1.649-.497,3.957,1.079,5.587.54,1.635-.541,1.826-5.184,3.442-5.766s4.741,2.893,6.34,2.267,3.172-1.427,4.754-2.096,2.877-2.064,4.441-2.775c1.567-.712,2.738-2.262,4.283-3.015,1.547-.754,2.809-2.029,4.332-2.823,1.526-.795,4.814,1.641,6.317.807,1.504-.835,3.437-1.085,4.917-1.959,1.482-.875.817-5.343,2.273-6.256s3.064-1.568,4.495-2.52c1.433-.952,1.839-3.343,3.245-4.332s4.859.865,6.238-.161c1.38-1.027,3.559-1.096,4.91-2.159s.567-4.811,1.89-5.909,3.526-1.162,4.819-2.295c1.294-1.133,1.964-2.966,3.227-4.132,1.263-1.167,5.351.578,6.583-.622s2.651-2.357,3.851-3.589-2.822-7.429-1.655-8.692,6.003.8,7.135-.494c1.132-1.293-2.125-6.292-1.027-7.615,1.098-1.323,8.299,2.285,9.362.933,1.062-1.351-3.772-7.221-2.745-8.6s3.228-1.818,4.217-3.225.479-3.745,1.432-5.178c.951-1.431,6.457.108,7.371-1.349s2.685-2.46,3.559-3.942c.874-1.479-2.735-5.532-1.9-7.037.834-1.502,3.334-2.066,4.129-3.593.793-1.524,4.153-1.785,4.907-3.333s2.498-2.71,3.21-4.277c.711-1.564-2.981-5.092-2.311-6.677s4.027-2.076,4.654-3.68c.626-1.599,2.213-2.901,2.797-4.52.583-1.615,1.957-3.046,2.498-4.681.539-1.63-3.152-4.634-2.655-6.283.495-1.643,1.742-3.059,2.194-4.721.451-1.656.323-3.453.731-5.126.406-1.667,4.451-2.536,4.814-4.22.361-1.678-3.503-4.234-3.186-5.928s-.932-3.593-.66-5.295c.271-1.694,2.246-3.091,2.473-4.799.226-1.7-2.441-3.683-2.26-5.396s4.636-2.974,4.771-4.693c.135-1.71-.405-3.47-.315-5.192.09-1.713.258-3.421.303-5.145.045-1.714-1.156-3.429-1.156-5.154s.694-3.426.649-5.14c-.045-1.724,2.01-3.536,1.92-5.248-.09-1.722-1.084-3.406-1.219-5.116-.136-1.719-4.798-2.97-4.978-4.676s4.251-3.93,4.026-5.631c-.227-1.709.505-3.586.235-5.28s-3.599-2.874-3.915-4.56-2.836-2.872-3.197-4.55c-.363-1.684,2.784-4.12,2.378-5.788s.457-3.691.006-5.347c-.452-1.662-1.086-3.304-1.581-4.948s-4.352-2.218-4.891-3.849,4.753-5.306,4.17-6.921-5.567-1.628-6.192-3.227c-.627-1.603,2.388-4.721,1.719-6.303-.67-1.586-3.363-2.344-4.074-3.908-.712-1.567-5.854-1.005-6.606-2.55-.754-1.547.876-4.218.083-5.742-.795-1.526,2.35-5.202,1.516-6.704-.835-1.504-7.003.039-7.876-1.441-.875-1.482-1.581-2.98-2.494-4.436s-.803-3.512-1.754-4.943c-.952-1.433-3.55-1.66-4.54-3.066-.99-1.407,2.703-6.184,1.677-7.563-1.027-1.38-1.418-3.338-2.481-4.689-1.063-1.352-4.539-.812-5.637-2.135-1.098-1.323-3.578-1.443-4.711-2.736s-1.852-2.911-3.018-4.174-2.98-1.857-4.18-3.089-1.113-3.71-2.345-4.909c-1.232-1.2-3.14-1.66-4.404-2.827s-1.066-3.954-2.36-5.087-5.704,1.447-7.028.349-2.234-2.558-3.586-3.621-2.012-2.911-3.392-3.938-3.438-.987-4.845-1.977-2.552-2.207-3.985-3.159-.75-5.122-2.207-6.036c-1.456-.913-1.391-4.447-2.873-5.322s-4.246.355-5.751-.48c-1.502-.834-1.916-3.847-3.442-4.641s-4.745,1.654-6.292.901-1.839-4.278-3.406-4.99c-1.564-.711-3.898.166-5.483-.504s-2.524-3.096-4.127-3.724-4.405,1.81-6.024,1.226c-1.615-.583-3.683.176-5.318-.365s-1.978-5.239-3.626-5.736-4.686,3.813-6.348,3.361-3.525.159-5.198-.249c-1.667-.406-1.909-7.096-3.593-7.458s-4.494,4.805-6.188,4.487-2.417-6.299-4.119-6.571c-1.694-.271-4.089,3.938-5.797,3.712-1.7-.226-3.033-3.793-4.746-3.974-1.706-.18-3.698,2.304-5.417,2.169-1.71-.135-3.289-2.856-5.011-2.946-1.713-.09-3.612,4.142-5.336,4.097-1.714-.045-3.39-1.853-5.115-1.853Z" style="fill: none; stroke: #000; stroke-linecap: round; stroke-linejoin: round; stroke-width: 45px;"/>
    </g>
  </g>
  <g id="Schrift">
    <text transform="translate(263.321 388.573)" style="font-family: DarumadropOne, &apos;Darumadrop One&apos;; font-size: 300px;"><tspan x="0" y="0">3</tspan></text>
  </g>
</svg>