<?xml version="1.0" encoding="UTF-8"?>
<svg id="Title" xmlns="http://www.w3.org/2000/svg" width="200" height="200" viewBox="0 0 200 200">
  <path d="M100,45.738c-.578,0-1.028,7.804-1.602,7.821-.578.017-1.195-2.799-1.769-2.765-.577.034-.979,1.526-1.551,1.578-.576.052-1.762-5.721-2.333-5.652-.574.069.059,8.721-.509,8.807-.571.086-1.068-.389-1.634-.286s-3.296-10.648-3.858-10.528.908,9.288.35,9.425-1.07.081-1.624.235-2.937-5.874-3.486-5.703.469,5.205-.074,5.392-2.063-2.34-2.601-2.136-1.045.577-1.577.798-1.495-.441-2.02-.205-2.82-3.016-3.337-2.764,1.055,4.864.546,5.132-1.27.159-1.771.442.299,2.805-.193,3.104-3.859-3.896-4.342-3.583,2.078,5.256,1.605,5.583-4.899-4.769-5.363-4.427,1.149,3.596.696,3.951-2.428-1.024-2.87-.655,4.31,6.787,3.879,7.17-.448,1.04-.867,1.435-3.978-2.529-4.385-2.121-.487,1.137-.882,1.556,1.143,2.548.761,2.979-1.802-.109-2.171.334.856,2.087.5,2.54-.176,1.18-.517,1.644-5.129-2.287-5.457-1.813,4.976,4.655,4.662,5.139-1.517.248-1.815.741-.536.884-.819,1.385,1.292,1.846,1.024,2.357-1.814.196-2.067.714c-.252.517-5.519-1.372-5.756-.846s-2.934.067-3.155.6,5.897,3.592,5.692,4.131-4.049-.277-4.238.269,4.505,2.636,4.333,3.186-.733.857-.888,1.413-1.563.683-1.7,1.243,3.078,1.758,2.957,2.323-4.964.085-5.067.653-3.344.628-3.43,1.199,4.931,1.818,4.862,2.391c-.069.57-2.988.798-3.04,1.373-.051.572-4.404.887-4.438,1.464-.034.573,1.627,1.326,1.61,1.904-.017.574,8.516,1.226,8.516,1.804s-6.234,1.162-6.217,1.736c.017.578,5.376.843,5.41,1.417.034.577.756.937.807,1.51.052.576-10.925,2.3-10.857,2.87.069.574,4.22.692,4.306,1.26.086.571,7.208-.103,7.311.463s-8.731,2.862-8.611,3.424,7.34-.516,7.477.042.293.986.447,1.54-7.456,3.397-7.285,3.946-1.419,1.837-1.232,2.381,4.205-.171,4.409.367,6.187-1.257,6.408-.726-.586,1.383-.35,1.908-2.235,2.262-1.983,2.779-4.438,3.626-4.17,4.136c.268.51,8.366-3.222,8.649-2.721s-6.096,4.914-5.798,5.406,2.409-.04,2.722.443.85.888,1.178,1.361-.425,1.813-.083,2.276,3.255-.967,3.611-.514-1.585,2.825-1.216,3.267,3.56-1.495,3.942-1.064-2.763,4.158-2.368,4.577,7.423-5.617,7.83-5.21-1.856,3.43-1.437,3.825-2.935,4.988-2.504,5.37.55,1.342.993,1.711,3.836-2.782,4.29-2.426,2.271-1.12,2.735-.779.526,1.165,1,1.493-1.276,4.019-.792,4.332,5.091-6.018,5.584-5.72-1.434,4.57-.932,4.853.846.843,1.356,1.112,1.281-.002,1.799.251-1.402,5.868-.877,6.105,4.434-7.269,4.967-7.048-.949,5.475-.41,5.68.728,1.631,1.273,1.819,1.759-1.416,2.31-1.244,2.14-3.21,2.696-3.056.388,2.984.949,3.122.637,2.633,1.202,2.754,2.089-4.516,2.657-4.412.9,1.402,1.471,1.488.595,4.577,1.168,4.646c.57.069,1.557-3.136,2.133-3.084.572.051,1.361-3.155,1.938-3.12.573.034.833,8.157,1.41,8.175.574.017,1.315-9.037,1.893-9.037.574,0,1.05.228,1.62.211.574-.017,1.174,2.079,1.743,2.046.573-.034.949-1.871,1.518-1.921.572-.051,1.049-.138,1.615-.206.57-.068,1.945,5.85,2.509,5.765.567-.085,1.185-.402,1.746-.504s1.352.442,1.911.323,1.779,2.011,2.333,1.875-1.858-11.695-1.308-11.847,2.694,5.445,3.24,5.276,1.458.717,1.998.532.578-1.814,1.112-2.016.482-1.808,1.011-2.026-.028-2.727.494-2.96,4.989,7.985,5.504,7.736c.52-.252,1.583.21,2.095-.057s-3.054-8.164-2.551-8.446,3.16,3.173,3.654,2.875-2.067-5.428-1.581-5.741,1.095-.223,1.571-.55,5.959,6.367,6.424,6.026-3.991-7.229-3.536-7.584,4.302,3.53,4.747,3.161,1.885.294,2.318-.088.507-1.304.929-1.699,1.88.126,2.289-.282-1.979-3.639-1.582-4.059-2.361-3.662-1.977-4.093,2.572.8,2.943.357.547-.985.904-1.439,3.814,1.445,4.157.981-2.097-2.944-1.767-3.419,3.555.975,3.87.491,2.535.107,2.835-.387,1.698-.522,1.983-1.025-8.314-5.888-8.044-6.399,1.579-.364,1.833-.883,2.76.087,2.998-.44-2.684-2.345-2.462-2.879,9.021,2.331,9.227,1.791-7.599-4.018-7.41-4.565,1.059-.771,1.232-1.323,1.791-.616,1.946-1.174-.703-1.329-.564-1.89,7.537.5,7.658-.066-3.212-1.925-3.108-2.495c.103-.567.015-1.221.102-1.793s-4.342-1.735-4.273-2.31c.069-.572,8.638-.293,8.69-.87.052-.573-1.622-1.422-1.587-2,.034-.575.276-1.263.294-1.843.017-.576-7.95-1.276-7.95-1.856,0-.591,8.772-1.165,8.771-1.715,0-.593-9.411-1.143-9.413-1.692-.002-.594-.355-1.133-.36-1.68-.006-.598,4.99-1.218,4.979-1.764-.012-.597-3.708-1.03-3.729-1.574-.023-.598,3.232-1.284,3.197-1.827-.039-.595-3.888-.737-3.947-1.28-.064-.59,6.108-1.97,6.016-2.514-.098-.574-.268-1.289-.403-1.833-.137-.553-2.632-.501-2.815-1.043-.177-.528-.805-.863-1.031-1.401-.212-.505-.336-1.033-.596-1.564-.239-.489-2.511.121-2.794-.403-.258-.478,1.167-1.864.869-2.381-.27-.469-1.719-.242-2.024-.751-.28-.467,3.823-3.625,3.512-4.132-.286-.465-1.539-.376-1.853-.879-.289-.464-4.795,1.688-5.108,1.188-.293-.467.731-1.781.415-2.282-.295-.468,2.88-3.142,2.565-3.642" style="fill: none; stroke: #000; stroke-linecap: round; stroke-linejoin: round; stroke-width: 23px;"/>
  <path d="M73.515,30.644c.759.364-2.883,7.965-2.124,8.329s4.562-7.568,5.322-7.203,1.209-.571,1.969-.206c.76.364-.611,3.226.148,3.59s.218,1.497.978,1.861,1.736-1.669,2.497-1.304.647.6,1.408.965,1.277-.711,2.038-.346.155,1.628.916,1.993-.603,3.213.158,3.578.629.637,1.388,1.001,2.904-4.112,3.664-3.748-.725,3.469.036,3.834-1.173,4.4-.412,4.764,2.718-3.717,3.479-3.352.11,1.728.872,2.093-.192,2.354.57,2.719,2.867-4.025,3.631-3.659,1.548-1.268,2.312-.902,1.246,3.258,1.462,4.078c.22.837-4.526-.341-5.005.38-.479.721-.159.934-.638,1.654s4.225,3.846,3.746,4.567,1.765,2.213,1.286,2.933-5.857-2.853-6.336-2.132-1.277.19-1.756.911,5.512,4.704,5.032,5.426-9.378-5.194-9.857-4.473,7.347,5.925,6.867,6.646-2.616-.702-3.095.018-5.657-2.723-6.135-2.003c-.48.722-.037,1.016-.517,1.738s-.871.46-1.35,1.181,1.267,1.883.787,2.605,3.711,3.509,3.231,4.232c-.48.722-7.307-3.817-7.787-3.095s1.232,1.862.751,2.585,4.93,4.322,4.448,5.046,1.617,2.12,1.136,2.844" style="fill: none; stroke: #000; stroke-linecap: round; stroke-linejoin: round; stroke-width: 23px;"/>
</svg>