<?xml version="1.0" encoding="UTF-8"?>
<svg id="Big_Assets" data-name="Big Assets" xmlns="http://www.w3.org/2000/svg" width="700" height="700" viewBox="0 0 700 700">
  <g>
    <path d="M613.394,350c0,4.769-3.865,9.356-4.116,14.063-.254,4.759,4.431,9.876,3.926,14.565-.509,4.736-3.831,9.12-4.588,13.777-.765,4.699-3.052,9.023-4.063,13.634-1.018,4.648,1.221,10.078-.04,14.63-1.27,4.583-2.72,9.186-4.229,13.665-1.517,4.505-2.307,9.382-4.058,13.774-1.76,4.413-5.487,8.058-7.476,12.35s-7.01,7.043-9.23,11.222-4.304,8.3-6.748,12.353c-2.451,4.064-2.828,9.371-5.489,13.287-2.666,3.924-4.274,8.657-7.143,12.425-2.873,3.774-9.604,4.375-12.673,7.984-3.071,3.612-5.228,7.845-8.488,11.285s-5.205,8.108-8.646,11.368c-3.44,3.26-5.766,7.819-9.378,10.89-3.609,3.069-7.382,6.078-11.155,8.951s-6.838,6.934-10.762,9.6-11.105.238-15.169,2.689c-4.053,2.444-8.328,4.169-12.521,6.396-4.178,2.22-6.796,7.394-11.105,9.391-4.291,1.989-7.955,5.597-12.368,7.356-4.391,1.751-9.032,3.138-13.537,4.655-4.478,1.508-9.836.24-14.419,1.51-4.552,1.261-9.356,1.165-14.004,2.184-4.611,1.01-8.886,3.411-13.585,4.176-4.657.758-8.906,5.107-13.641,5.616-4.689.504-9.539,1.404-14.298,1.658-4.706.251-9.623-2.286-14.392-2.286s-9.611,1.125-14.317.873c-4.759-.254-9.29-3.412-13.979-3.916-4.736-.509-9.567-.04-14.224-.797-4.699-.765-8.729-4.578-13.34-5.589-4.648-1.018-9.457-.849-14.009-2.11-4.583-1.27-9.768-.48-14.247-1.988-4.505-1.517-8.613-4.136-13.005-5.887-4.413-1.76-7.673-5.974-11.965-7.963s-10.807.452-14.985-1.768c-4.193-2.227-6.246-8.245-10.299-10.689-4.064-2.451-7.999-4.91-11.916-7.571-3.924-2.666-7.299-5.893-11.068-8.762-3.774-2.873-8.459-4.472-12.068-7.541s-9.422-3.769-12.862-7.028c-3.441-3.26-7.338-6.287-10.599-9.727-3.26-3.44-1.928-11.018-4.999-14.63-3.069-3.609-6.905-6.451-9.778-10.224-2.869-3.768-5.013-7.933-7.678-11.857-2.661-3.917-6.904-6.743-9.355-10.807-2.444-4.053-2.026-9.623-4.253-13.815-2.22-4.178-9.289-5.921-11.286-10.23-1.989-4.291-.305-10.19-2.064-14.603s-6.446-7.71-7.963-12.214c-1.508-4.478-3.663-8.885-4.932-13.467-1.261-4.552,2.502-10.355,1.484-15.003-1.01-4.611-2.981-8.939-3.745-13.638-.758-4.657-2.457-9.151-2.966-13.886-.504-4.689.475-9.456.221-14.215-.251-4.706-2.768-9.343-2.768-14.112s.012-9.539.263-14.245c.254-4.759-.658-9.656-.154-14.344.509-4.736.136-9.702.893-14.359.765-4.699,2.708-9.287,3.719-13.899,1.018-4.648,6.819-8.064,8.08-12.616,1.27-4.583,1.634-9.292,3.142-13.771,1.517-4.505-.061-10.125,1.691-14.516s5.177-8.145,7.166-12.436c1.997-4.309,5.952-7.566,8.172-11.745,2.227-4.193,3.68-8.709,6.124-12.763,2.451-4.064,3.871-8.746,6.531-12.663,2.666-3.924,6.634-6.864,9.503-10.633,2.873-3.774,2.068-10.577,5.137-14.187s10.609-3.256,13.868-6.695,4.297-9.05,7.738-12.311c3.44-3.26,6.5-7.046,10.113-10.118,3.609-3.069,9.17-3.732,12.944-6.605,3.768-2.869,5.311-8.902,9.235-11.568s8.906-3.84,12.97-6.291,9.475-2.45,13.667-4.677c4.178-2.22,6.951-7.285,11.26-9.282,4.291-1.989,9.097-2.964,13.51-4.723,4.391-1.751,9.776-.708,14.28-2.226,4.478-1.508,9.053-2.282,13.636-3.552,4.552-1.261,8.033-6.782,12.681-7.801,4.611-1.01,10.177,3.13,14.876,2.366,4.657-.758,8.655-6.15,13.39-6.66,4.689-.504,9.646,2.104,14.405,1.85,4.706-.251,9.357-5.312,14.126-5.312s9.517,3.237,14.224,3.489c4.759.254,9.682-1.111,14.371-.606,4.736.509,9.507,1.35,14.164,2.108,4.699.765,9.009,3.675,13.621,4.686,4.648,1.018,9.645.666,14.197,1.927,4.583,1.27,7.765,6.879,12.244,8.387,4.505,1.517,9.04,2.468,13.431,4.22,4.413,1.76,8.651,3.559,12.943,5.548s10.728-.273,14.906,1.947c4.193,2.227,5.811,8.973,9.864,11.417s10.502,1.15,14.419,3.811c3.924,2.666,6.587,7.161,10.356,10.03,3.774,2.873,6.502,6.963,10.112,10.032,3.612,3.071,9.335,3.791,12.775,7.051s6.465,7.043,9.726,10.484c3.26,3.44,4.397,8.769,7.469,12.381,3.069,3.609,4.571,8.311,7.444,12.085,2.869,3.768,8.291,5.591,10.957,9.516,2.661,3.917,3.34,9.036,5.791,13.1s8.292,6.174,10.519,10.366c2.22,4.178.479,10.314,2.476,14.623,1.989,4.291,5.022,8.036,6.781,12.449,1.751,4.391,7.414,7.415,8.931,11.919,1.508,4.478,3.122,9.122,4.392,13.704,1.261,4.552-.259,9.917.759,14.564,1.01,4.611-.771,9.728-.006,14.427.758,4.657,4.644,8.883,5.153,13.619.504,4.689-1.531,9.599-1.277,14.358.251,4.706,2.656,9.372,2.656,14.141Z"/>
    <path d="M613.394,350c0,4.769-3.865,9.356-4.116,14.063-.254,4.759,4.431,9.876,3.926,14.565-.509,4.736-3.831,9.12-4.588,13.777-.765,4.699-3.052,9.023-4.063,13.634-1.018,4.648,1.221,10.078-.04,14.63-1.27,4.583-2.72,9.186-4.229,13.665-1.517,4.505-2.307,9.382-4.058,13.774-1.76,4.413-5.487,8.058-7.476,12.35s-7.01,7.043-9.23,11.222-4.304,8.3-6.748,12.353c-2.451,4.064-2.828,9.371-5.489,13.287-2.666,3.924-4.274,8.657-7.143,12.425-2.873,3.774-9.604,4.375-12.673,7.984-3.071,3.612-5.228,7.845-8.488,11.285s-5.205,8.108-8.646,11.368c-3.44,3.26-5.766,7.819-9.378,10.89-3.609,3.069-7.382,6.078-11.155,8.951s-6.838,6.934-10.762,9.6-11.105.238-15.169,2.689c-4.053,2.444-8.328,4.169-12.521,6.396-4.178,2.22-6.796,7.394-11.105,9.391-4.291,1.989-7.955,5.597-12.368,7.356-4.391,1.751-9.032,3.138-13.537,4.655-4.478,1.508-9.836.24-14.419,1.51-4.552,1.261-9.356,1.165-14.004,2.184-4.611,1.01-8.886,3.411-13.585,4.176-4.657.758-8.906,5.107-13.641,5.616-4.689.504-9.539,1.404-14.298,1.658-4.706.251-9.623-2.286-14.392-2.286s-9.611,1.125-14.317.873c-4.759-.254-9.29-3.412-13.979-3.916-4.736-.509-9.567-.04-14.224-.797-4.699-.765-8.729-4.578-13.34-5.589-4.648-1.018-9.457-.849-14.009-2.11-4.583-1.27-9.768-.48-14.247-1.988-4.505-1.517-8.613-4.136-13.005-5.887-4.413-1.76-7.673-5.974-11.965-7.963s-10.807.452-14.985-1.768c-4.193-2.227-6.246-8.245-10.299-10.689-4.064-2.451-7.999-4.91-11.916-7.571-3.924-2.666-7.299-5.893-11.068-8.762-3.774-2.873-8.459-4.472-12.068-7.541s-9.422-3.769-12.862-7.028c-3.441-3.26-7.338-6.287-10.599-9.727-3.26-3.44-1.928-11.018-4.999-14.63-3.069-3.609-6.905-6.451-9.778-10.224-2.869-3.768-5.013-7.933-7.678-11.857-2.661-3.917-6.904-6.743-9.355-10.807-2.444-4.053-2.026-9.623-4.253-13.815-2.22-4.178-9.289-5.921-11.286-10.23-1.989-4.291-.305-10.19-2.064-14.603s-6.446-7.71-7.963-12.214c-1.508-4.478-3.663-8.885-4.932-13.467-1.261-4.552,2.502-10.355,1.484-15.003-1.01-4.611-2.981-8.939-3.745-13.638-.758-4.657-2.457-9.151-2.966-13.886-.504-4.689.475-9.456.221-14.215-.251-4.706-2.768-9.343-2.768-14.112s.012-9.539.263-14.245c.254-4.759-.658-9.656-.154-14.344.509-4.736.136-9.702.893-14.359.765-4.699,2.708-9.287,3.719-13.899,1.018-4.648,6.819-8.064,8.08-12.616,1.27-4.583,1.634-9.292,3.142-13.771,1.517-4.505-.061-10.125,1.691-14.516s5.177-8.145,7.166-12.436c1.997-4.309,5.952-7.566,8.172-11.745,2.227-4.193,3.68-8.709,6.124-12.763,2.451-4.064,3.871-8.746,6.531-12.663,2.666-3.924,6.634-6.864,9.503-10.633,2.873-3.774,2.068-10.577,5.137-14.187s10.609-3.256,13.868-6.695,4.297-9.05,7.738-12.311c3.44-3.26,6.5-7.046,10.113-10.118,3.609-3.069,9.17-3.732,12.944-6.605,3.768-2.869,5.311-8.902,9.235-11.568s8.906-3.84,12.97-6.291,9.475-2.45,13.667-4.677c4.178-2.22,6.951-7.285,11.26-9.282,4.291-1.989,9.097-2.964,13.51-4.723,4.391-1.751,9.776-.708,14.28-2.226,4.478-1.508,9.053-2.282,13.636-3.552,4.552-1.261,8.033-6.782,12.681-7.801,4.611-1.01,10.177,3.13,14.876,2.366,4.657-.758,8.655-6.15,13.39-6.66,4.689-.504,9.646,2.104,14.405,1.85,4.706-.251,9.357-5.312,14.126-5.312s9.517,3.237,14.224,3.489c4.759.254,9.682-1.111,14.371-.606,4.736.509,9.507,1.35,14.164,2.108,4.699.765,9.009,3.675,13.621,4.686,4.648,1.018,9.645.666,14.197,1.927,4.583,1.27,7.765,6.879,12.244,8.387,4.505,1.517,9.04,2.468,13.431,4.22,4.413,1.76,8.651,3.559,12.943,5.548s10.728-.273,14.906,1.947c4.193,2.227,5.811,8.973,9.864,11.417s10.502,1.15,14.419,3.811c3.924,2.666,6.587,7.161,10.356,10.03,3.774,2.873,6.502,6.963,10.112,10.032,3.612,3.071,9.335,3.791,12.775,7.051s6.465,7.043,9.726,10.484c3.26,3.44,4.397,8.769,7.469,12.381,3.069,3.609,4.571,8.311,7.444,12.085,2.869,3.768,8.291,5.591,10.957,9.516,2.661,3.917,3.34,9.036,5.791,13.1s8.292,6.174,10.519,10.366c2.22,4.178.479,10.314,2.476,14.623,1.989,4.291,5.022,8.036,6.781,12.449,1.751,4.391,7.414,7.415,8.931,11.919,1.508,4.478,3.122,9.122,4.392,13.704,1.261,4.552-.259,9.917.759,14.564,1.01,4.611-.771,9.728-.006,14.427.758,4.657,4.644,8.883,5.153,13.619.504,4.689-1.531,9.599-1.277,14.358.251,4.706,2.656,9.372,2.656,14.141Z" style="fill: none; stroke: #000; stroke-miterlimit: 10; stroke-width: 50px;"/>
  </g>
  <g>
    <path d="M402.325,222.025c-5.678-4.159-.808-6.236-2.871-12.965-2.063-6.729-2.335-6.176-8.031-10.311-5.832-4.234-5.386-3.265-12.593-3.265-7.205,0-7.205,3.525-14.41,3.525s-7.207-1.401-14.415-1.401c-7.205,0-7.205-3.089-14.41-3.089-7.21,0-7.21.886-14.42.886-7.21,0-6.721-.831-12.557,3.404-5.696,4.133-2.713,4.533-4.776,11.262s.645,9.345-5.032,13.505c-5.741,4.208-7.425-2.591-14.543-2.591-7.12,0-7.12.743-14.24.743-7.118,0-7.118,4.297-14.236,4.297-7.123,0-7.123-1-14.246-1-7.123,0-8.525-6.192-13.671-1.268-4.924,4.712-2.751,6.215-2.751,13.03,0,6.817,5.103,6.817,5.103,13.634,0,6.819-2.246,6.819-2.246,13.639,0,6.817-2.778,6.817-2.778,13.634,0,6.822,1.109,6.822,1.109,13.644,0,6.822-3.898,8.815.36,14.146,3.401,4.258,6.077.166,11.526.166s6.363-4.056,9.682.266c4.322,5.631,3.043,6.164,3.043,13.263,0,7.097-2.101,7.097-2.101,14.194,0,7.097,1.866,7.097,1.866,14.195,0,7.098-3.685,7.098-3.685,14.196,0,7.099,3.033,7.099,3.033,14.199,0,7.098,2.314,7.098,2.314,14.196,0,7.099-2.089,7.099-2.089,14.198s.506,7.099.506,14.198c0,7.1.902,7.1.902,14.2,0,7.098-.044,7.098-.044,14.196,0,7.1-4.18,7.1-4.18,14.201,0,7.098,1.422,7.098,1.422,14.196,0,7.103-1.78,7.103-1.78,14.206,0,7.103-1.017,7.157,4.042,12.143,5.132,5.059,5.173.777,12.379.777s7.205,3.491,14.411,3.491,7.206-1.336,14.411-1.336,7.206-3.881,14.413-3.881,7.207,3.234,14.415,3.234,7.206,2.756,14.412,2.756,7.207-3.066,14.414-3.066,7.207.086,14.414.086,7.208-1.125,14.416-1.125,7.206-.599,14.412-.599,7.209,4.045,14.417,4.045,7.206-3.252,14.413-3.252,7.211,3.962,14.422,3.962,7.694.416,12.833-4.643c5.059-4.979,3.781-5.484,3.781-12.582,0-7.097-.117-7.097-.117-14.194,0-7.097-1.673-7.097-1.673-14.195s1.539-7.098,1.539-14.196c0-7.099-2.761-7.099-2.761-14.199,0-7.098.06-7.098.06-14.196,0-7.099-1.922-7.099-1.922-14.198s.647-7.099.647-14.198c0-7.1,4.408-7.1,4.408-14.2s-2.69-7.098-2.69-14.196c0-7.1,2.387-7.1,2.387-14.201,0-7.098-1.712-7.098-1.712-14.196,0-7.103,1.892-7.103,1.892-14.206s-5.534-7.772-1.211-13.408c3.316-4.323,4.409-1.401,9.857-1.401s7.473,4.841,10.875.585c4.256-5.323-2.023-6.797-2.023-13.612s1.721-6.817,1.721-13.634c0-6.819,1.944-6.819,1.944-13.639,0-6.817-.104-6.817-.104-13.634,0-6.822,1.157-6.822,1.157-13.644,0-6.822.85-7.46-4.075-12.18-5.139-4.925-5.715-.938-12.832-.938-7.12,0-7.12,1.189-14.24,1.189-7.118,0-7.118-4.132-14.236-4.132-7.123,0-6.89,3.576-13.944,4.567-6.94.975-7.972.929-13.718-3.281Z" style="fill: #fff;"/>
    <path d="M402.325,222.025c-5.678-4.159-.808-6.236-2.871-12.965-2.063-6.729-2.335-6.176-8.031-10.311-5.832-4.234-5.386-3.265-12.593-3.265-7.205,0-7.205,3.525-14.41,3.525s-7.207-1.401-14.415-1.401c-7.205,0-7.205-3.089-14.41-3.089-7.21,0-7.21.886-14.42.886-7.21,0-6.721-.831-12.557,3.404-5.696,4.133-2.713,4.533-4.776,11.262s.645,9.345-5.032,13.505c-5.741,4.208-7.425-2.591-14.543-2.591-7.12,0-7.12.743-14.24.743-7.118,0-7.118,4.297-14.236,4.297-7.123,0-7.123-1-14.246-1-7.123,0-8.525-6.192-13.671-1.268-4.924,4.712-2.751,6.215-2.751,13.03,0,6.817,5.103,6.817,5.103,13.634,0,6.819-2.246,6.819-2.246,13.639,0,6.817-2.778,6.817-2.778,13.634,0,6.822,1.109,6.822,1.109,13.644,0,6.822-3.898,8.815.36,14.146,3.401,4.258,6.077.166,11.526.166s6.363-4.056,9.682.266c4.322,5.631,3.043,6.164,3.043,13.263,0,7.097-2.101,7.097-2.101,14.194,0,7.097,1.866,7.097,1.866,14.195,0,7.098-3.685,7.098-3.685,14.196,0,7.099,3.033,7.099,3.033,14.199,0,7.098,2.314,7.098,2.314,14.196,0,7.099-2.089,7.099-2.089,14.198s.506,7.099.506,14.198c0,7.1.902,7.1.902,14.2,0,7.098-.044,7.098-.044,14.196,0,7.1-4.18,7.1-4.18,14.201,0,7.098,1.422,7.098,1.422,14.196,0,7.103-1.78,7.103-1.78,14.206,0,7.103-1.017,7.157,4.042,12.143,5.132,5.059,5.173.777,12.379.777s7.205,3.491,14.411,3.491,7.206-1.336,14.411-1.336,7.206-3.881,14.413-3.881,7.207,3.234,14.415,3.234,7.206,2.756,14.412,2.756,7.207-3.066,14.414-3.066,7.207.086,14.414.086,7.208-1.125,14.416-1.125,7.206-.599,14.412-.599,7.209,4.045,14.417,4.045,7.206-3.252,14.413-3.252,7.211,3.962,14.422,3.962,7.694.416,12.833-4.643c5.059-4.979,3.781-5.484,3.781-12.582,0-7.097-.117-7.097-.117-14.194,0-7.097-1.673-7.097-1.673-14.195s1.539-7.098,1.539-14.196c0-7.099-2.761-7.099-2.761-14.199,0-7.098.06-7.098.06-14.196,0-7.099-1.922-7.099-1.922-14.198s.647-7.099.647-14.198c0-7.1,4.408-7.1,4.408-14.2s-2.69-7.098-2.69-14.196c0-7.1,2.387-7.1,2.387-14.201,0-7.098-1.712-7.098-1.712-14.196,0-7.103,1.892-7.103,1.892-14.206s-5.534-7.772-1.211-13.408c3.316-4.323,4.409-1.401,9.857-1.401s7.473,4.841,10.875.585c4.256-5.323-2.023-6.797-2.023-13.612s1.721-6.817,1.721-13.634c0-6.819,1.944-6.819,1.944-13.639,0-6.817-.104-6.817-.104-13.634,0-6.822,1.157-6.822,1.157-13.644,0-6.822.85-7.46-4.075-12.18-5.139-4.925-5.715-.938-12.832-.938-7.12,0-7.12,1.189-14.24,1.189-7.118,0-7.118-4.132-14.236-4.132-7.123,0-6.89,3.576-13.944,4.567-6.94.975-7.972.929-13.718-3.281Z" style="fill: none; stroke: #fff; stroke-linecap: round; stroke-linejoin: round; stroke-width: 30px;"/>
  </g>
  <g>
    <path d="M310.749,281.282c0,7.524-.606,7.524-.606,15.049,0,7.526,2.287,7.526,2.287,15.051,0,7.524-3.524,7.524-3.524,15.049,0,7.525,2.338,7.525,2.338,15.05,0,7.525-4.196,7.525-4.196,15.051,0,7.526.645,7.526.645,15.053,0,7.524,3.756,7.524,3.756,15.048,0,7.527-2.546,7.527-2.546,15.054,0,7.527-.881,7.527-.881,15.054,0,7.528,2.238,7.528,2.238,15.056,0,7.528-1.086,7.528-1.086,15.056" style="fill: none; stroke: #000; stroke-linecap: round; stroke-linejoin: round; stroke-width: 50px;"/>
    <path d="M393.15,283.123c0,7.524-3.924,7.524-3.924,15.049,0,7.526,1.968,7.526,1.968,15.051,0,7.524-2.521,7.524-2.521,15.049,0,7.525.935,7.525.935,15.05,0,7.525,3.389,7.525,3.389,15.051,0,7.526-4.207,7.526-4.207,15.053,0,7.524,5.216,7.524,5.216,15.048,0,7.527-3.044,7.527-3.044,15.054,0,7.527,2.82,7.527,2.82,15.054,0,7.528-2.721,7.528-2.721,15.056s-.825,7.528-.825,15.056" style="fill: none; stroke: #000; stroke-linecap: round; stroke-linejoin: round; stroke-width: 50px;"/>
  </g>
</svg>