<?xml version="1.0" encoding="UTF-8"?>
<svg id="SM_Icons" data-name="SM Icons" xmlns="http://www.w3.org/2000/svg" width="700" height="700" viewBox="0 0 700 700">
  <polygon points="266.725 536.782 257.045 529.773 250.98 519.541 242.568 511.652 233.224 504.7 224.598 497.03 217.927 487.406 208.771 480.267 200.735 472.003 192.286 464.147 186.801 453.332 177.3 446.522 167.32 438.569 178.765 431.633 185.792 421.85 194.913 414.16 202.142 404.581 210.512 396.138 220.279 389.095 228.988 380.994 234.921 370.114 245.019 363.402 254.201 355.769 260.847 345.605 269.657 337.601 278.021 329.154 286.145 320.465 294.573 312.091 301.917 302.63 312.03 295.931 318.969 286.067 327.309 277.594 336.291 269.769 345.062 261.729 353.636 253.493 363.975 247.017 371.547 237.778 378.72 228.137 388.026 220.625 394.744 210.527 402.549 201.517 411.565 193.715 422.554 187.883 431.123 179.636 436.141 167.839 445.494 160.376 454.711 152.777 464.815 146.062 470.519 134.94 481.605 129.206 488.995 119.764 496.82 112.779 504.104 119.702 514.665 125.438 520.164 136.24 527.844 144.856 535.996 153 545.117 160.174 554.903 166.684 563.298 174.588 568.666 185.525 579.228 191.263 585.432 201.37 594.986 208.531 585.975 216.72 576.431 223.986 567.762 232.129 562.037 243.213 553.164 251.151 542.49 257.287 535.387 266.995 528.813 277.234 518.821 284.051 511.274 293.318 501.034 299.889 495.197 310.866 486.006 318.487 476.367 325.661 469.684 335.779 459.741 342.641 453.466 353.177 444.1 360.615 435.994 369.322 426.442 376.578 419.005 385.952 408.789 392.545 400.318 400.889 391.888 409.269 385.195 419.392 377.74 428.755 368.727 436.557 358.202 442.847 352.41 453.873 343.827 462.11 333.578 468.679 327.316 479.232 317.896 486.627 307.074 492.62 300.164 502.53 290.331 509.523 283.602 519.615 275.025 527.872 266.725 536.782" style="fill: none; stroke: #000; stroke-linejoin: round; stroke-width: 45px;"/>
  <polygon points="168.527 436.938 165.404 450.417 160.075 461.452 155.661 472.886 151.152 484.28 145.242 495.063 141.025 506.584 134.384 517.047 128.605 527.885 124.104 539.282 120.966 551.277 115.206 562.128 111.692 573.964 106.282 583.857 117.098 581.71 127.948 576.029 139.937 574.161 151.499 570.857 163.13 567.778 175.054 565.688 186.205 561.004 198.198 559.14 208.617 552.019 221.059 551.661 231.73 545.359 244.106 544.777 255.354 540.39 264.678 535.8 259.188 527.63 250.387 520.133 242.552 511.668 235.37 502.554 227.391 494.237 216.398 488.935 210.367 478.671 203.176 469.562 194.111 462.322 185.015 455.118 175.9 447.839 168.527 436.938" style="fill: none; stroke: #000; stroke-linejoin: round; stroke-width: 45px;"/>
  <polyline points="434.161 173.349 442.512 181.294 450.016 190.087 458.796 197.608 466.126 206.575 474.075 214.92 481.78 223.51 490.151 231.435 499.251 238.635 507.72 246.471 515.682 254.81 522.108 264.694 530.212 272.902" style="fill: none; stroke: #000; stroke-linejoin: round; stroke-width: 45px;"/>
</svg>