<?xml version="1.0" encoding="UTF-8"?>
<svg id="LM_Icons" data-name="LM Icons" xmlns="http://www.w3.org/2000/svg" width="700" height="700" viewBox="0 0 700 700">
  <path d="M496.585,284.14c0,116.538-94.473,211.011-211.011,211.011s-211.011-94.473-211.011-211.011,94.473-211.011,211.011-211.011,211.011,94.473,211.011,211.011ZM625.436,626.87l-192.636-192.636" style="fill: #fff; stroke: #000; stroke-linecap: round; stroke-miterlimit: 10; stroke-width: 26.25px;"/>
  <path d="M579.094,114.581c-1.043,0-2.075-.208-3.095-.625-1.02-.417-1.887-1.032-2.6-1.847.889-.222,1.597-.641,2.125-1.257.528-.616.792-1.465.792-2.549,0-1.273.446-2.355,1.338-3.246.892-.891,1.976-1.337,3.25-1.337,1.275,0,2.357.446,3.245,1.337.889.891,1.333,1.973,1.333,3.246,0,1.796-.62,3.292-1.861,4.486-1.241,1.194-2.75,1.792-4.528,1.792ZM579.094,111.803c.954,0,1.794-.34,2.521-1.021.727-.681,1.09-1.507,1.09-2.479,0-.528-.169-.961-.507-1.298-.338-.338-.771-.507-1.298-.507s-.961.169-1.299.507c-.338.338-.507.771-.507,1.298,0,.935-.104,1.662-.313,2.181-.208.518-.567.893-1.076,1.125.157.037.389.079.695.125.306.046.537.069.694.069ZM588.678,104.664l-4.028-4.167,15.417-15.417c.361-.361.775-.549,1.243-.563.467-.014.896.174,1.285.563l1.556,1.555c.389.389.579.819.569,1.292-.009.472-.199.894-.569,1.264l-15.473,15.472Z" style="fill: #333;"/>
</svg>