<?xml version="1.0" encoding="UTF-8"?>
<svg id="big" xmlns="http://www.w3.org/2000/svg" width="240" height="240" viewBox="0 0 240 240">
  <path d="M45.129,204.241c1.405,1.353,1.821-.999,3.772-.999s1.952.144,3.905.144,1.951-.472,3.903-.472,1.952,1.832,3.904,1.832,1.953-.349,3.906-.349,1.953-1.178,3.906-1.178,1.953.836,3.906.836,1.953.124,3.905.124,1.953-.035,3.906-.035,1.953-.861,3.907-.861,1.956,2.129,3.913,2.129,2.573.393,3.986-.96c1.353-1.296-1.201-1.951-1.201-3.824s2.049-1.874,2.049-3.749-1.915-1.874-1.915-3.748.311-1.875.311-3.749-.505-1.874-.505-3.748,1.842-1.874,1.842-3.748-.414-1.872-.414-3.744.256-1.874.256-3.749.331-1.873.331-3.747-1.359-1.875-1.359-3.75.412-1.874.412-3.748,1.276-1.875,1.276-3.75-.893-1.876-.893-3.751-.978-1.876-.978-3.751,1.711-1.876,1.711-3.751-.79-1.875-.79-3.75-1.565-1.875-1.565-3.751.62-1.876.62-3.752,1.617-1.879,1.617-3.758-1.548-1.772-.221-3.103,1.217-.319,3.091-.319,1.872-1.391,3.744-1.391,1.874,1.393,3.748,1.393,1.873-1.326,3.746-1.326,1.875,2.277,3.75,2.277,1.874-2.084,3.747-2.084,1.875,1.473,3.749,1.473,1.875-.48,3.751-.48,1.875-.55,3.751-.55,1.875.059,3.751.059,1.875-.226,3.75-.226,1.875.052,3.75.052,1.876.211,3.751.211,1.879-.527,3.757-.527,1.809.076,3.139,1.402.829,1.254.829,3.128-.522,1.874-.522,3.749-.207,1.874-.207,3.748.081,1.875.081,3.749-.639,1.874-.639,3.748-.288,1.874-.288,3.748,2.14,1.872,2.14,3.744-.167,1.874-.167,3.749-.782,1.873-.782,3.747.548,1.875.548,3.75-.632,1.874-.632,3.748,1.013,1.875,1.013,3.75-1.362,1.876-1.362,3.751-.309,1.876-.309,3.751,1.622,1.876,1.622,3.751.757,1.875.757,3.75-1.483,1.875-1.483,3.751-1.401,1.876-1.401,3.752,1.486,1.879,1.486,3.758-1.309,2.339.044,3.642c1.405,1.353,1.84.963,3.79.963s1.952-1.63,3.905-1.63,1.951,1.675,3.903,1.675,1.952-.21,3.904-.21,1.953-1.833,3.906-1.833,1.953,1.159,3.906,1.159,1.953-.009,3.906-.009,1.953.543,3.905.543,1.953-2.037,3.906-2.037,1.953,1.907,3.907,1.907,1.956-.152,3.913-.152,2.892,1.501,4.305.147c1.354-1.297.437-2.284.437-4.158s-1.055-1.874-1.055-3.747-.976-1.873-.976-3.746,2.374-1.874,2.374-3.748-.557-1.875-.557-3.749-.756-1.874-.756-3.747,1.058-1.874,1.058-3.748.288-1.875.288-3.75-2.54-1.874-2.54-3.748,2.702-1.875,2.702-3.75-.249-1.874-.249-3.749-.341-1.875-.341-3.749-.769-1.875-.769-3.749-1.359-1.875-1.359-3.75,1.638-1.875,1.638-3.749-.826-1.875-.826-3.749,1.193-1.873,1.193-3.745-1.108-1.875-1.108-3.749,1.349-1.874,1.349-3.747.111-1.875.111-3.751-1.089-1.874-1.089-3.749-.161-1.875-.161-3.75,1.699-1.876,1.699-3.752-.248-1.876-.248-3.752-2.374-1.876-2.374-3.752-.202-1.876-.202-3.751,2.395-1.876,2.395-3.752-.927-1.876-.927-3.753.599-1.879.599-3.759.863-2.436.024-4.117-2.789-.003-4.288-1.127-.85-1.99-2.349-3.115-.817-2.035-2.316-3.16-1.91-.576-3.409-1.7-1.068-1.7-2.568-2.825-1.39-1.27-2.889-2.395-2.59.329-4.09-.795-.421-2.561-1.919-3.685-2.832.657-4.329-.466-.343-2.664-1.841-3.787-2.515.228-4.015-.897-1.948-.524-3.447-1.647-1.036-1.744-2.536-2.869-.57-2.363-2.069-3.488-1.47-1.167-2.97-2.292-1.278-1.421-2.777-2.545-3.057.951-4.558-.175-1.707-.851-3.208-1.977-.663-2.243-2.164-3.369-.827-2.021-2.326-3.145-2.412.089-3.913-1.037-.647-2.265-2.148-3.391-1.901-.593-3.403-1.72-.923-1.902-2.427-3.03-1.881.034-3.761.031-2.343-1.291-3.842-.167-.499,2.458-1.998,3.583-1.168,1.567-2.668,2.692-1.862.64-3.361,1.765-1.123,1.626-2.623,2.751-1.277,1.42-2.777,2.545-1.766.769-3.266,1.894-1.861.641-3.359,1.765-1.152,1.583-2.649,2.706-1.615.967-3.114,2.091-1.833.681-3.333,1.806-1.858.645-3.356,1.768-.868,1.967-2.368,3.092-1.647.927-3.146,2.051-2.05.392-3.551,1.518-1.754.786-3.254,1.91-.064,3.041-1.564,4.166-1.622.964-3.123,2.09-2.02.434-3.521,1.559-2.083.346-3.583,1.47-1.414,1.241-2.915,2.367-.26,2.781-1.761,3.907-1.989.477-3.49,1.603-2.442-.122-3.946,1.006-1.832,1.222-2.674,2.903-.218,1.997-.218,3.871.302,1.874.302,3.747-1.152,1.873-1.152,3.746,2.364,1.874,2.364,3.748-2.106,1.875-2.106,3.749.584,1.874.584,3.747.683,1.874.683,3.748-1.339,1.875-1.339,3.75.401,1.874.401,3.748,1.436,1.875,1.436,3.75-1.832,1.874-1.832,3.749.171,1.875.171,3.749,2.397,1.875,2.397,3.749-2.916,1.875-2.916,3.75.252,1.875.252,3.749-.138,1.875-.138,3.749,2.036,1.873,2.036,3.745-1.966,1.875-1.966,3.749,1.16,1.874,1.16,3.747,1.352,1.875,1.352,3.751-1.901,1.874-1.901,3.749,1.049,1.875,1.049,3.75.709,1.876.709,3.752-1.231,1.876-1.231,3.752,1.111,1.876,1.111,3.752-1.691,1.876-1.691,3.751.502,1.876.502,3.752.848,1.876.848,3.753-.477,1.871-.848,3.713c-.383,1.902-.999,2.366.355,3.67Z" style="fill: #fff;"/>
  <path d="M45.129,204.241c1.405,1.353,1.821-.999,3.772-.999s1.952.144,3.905.144,1.951-.472,3.903-.472,1.952,1.832,3.904,1.832,1.953-.349,3.906-.349,1.953-1.178,3.906-1.178,1.953.836,3.906.836,1.953.124,3.905.124,1.953-.035,3.906-.035,1.953-.861,3.907-.861,1.956,2.129,3.913,2.129,2.573.393,3.986-.96c1.353-1.296-1.201-1.951-1.201-3.824s2.049-1.874,2.049-3.749-1.915-1.874-1.915-3.748.311-1.875.311-3.749-.505-1.874-.505-3.748,1.842-1.874,1.842-3.748-.414-1.872-.414-3.744.256-1.874.256-3.749.331-1.873.331-3.747-1.359-1.875-1.359-3.75.412-1.874.412-3.748,1.276-1.875,1.276-3.75-.893-1.876-.893-3.751-.978-1.876-.978-3.751,1.711-1.876,1.711-3.751-.79-1.875-.79-3.75-1.565-1.875-1.565-3.751.62-1.876.62-3.752,1.617-1.879,1.617-3.758-1.548-1.772-.221-3.103,1.217-.319,3.091-.319,1.872-1.391,3.744-1.391,1.874,1.393,3.748,1.393,1.873-1.326,3.746-1.326,1.875,2.277,3.75,2.277,1.874-2.084,3.747-2.084,1.875,1.473,3.749,1.473,1.875-.48,3.751-.48,1.875-.55,3.751-.55,1.875.059,3.751.059,1.875-.226,3.75-.226,1.875.052,3.75.052,1.876.211,3.751.211,1.879-.527,3.757-.527,1.809.076,3.139,1.402.829,1.254.829,3.128-.522,1.874-.522,3.749-.207,1.874-.207,3.748.081,1.875.081,3.749-.639,1.874-.639,3.748-.288,1.874-.288,3.748,2.14,1.872,2.14,3.744-.167,1.874-.167,3.749-.782,1.873-.782,3.747.548,1.875.548,3.75-.632,1.874-.632,3.748,1.013,1.875,1.013,3.75-1.362,1.876-1.362,3.751-.309,1.876-.309,3.751,1.622,1.876,1.622,3.751.757,1.875.757,3.75-1.483,1.875-1.483,3.751-1.401,1.876-1.401,3.752,1.486,1.879,1.486,3.758-1.309,2.339.044,3.642c1.405,1.353,1.84.963,3.79.963s1.952-1.63,3.905-1.63,1.951,1.675,3.903,1.675,1.952-.21,3.904-.21,1.953-1.833,3.906-1.833,1.953,1.159,3.906,1.159,1.953-.009,3.906-.009,1.953.543,3.905.543,1.953-2.037,3.906-2.037,1.953,1.907,3.907,1.907,1.956-.152,3.913-.152,2.892,1.501,4.305.147c1.354-1.297.437-2.284.437-4.158s-1.055-1.874-1.055-3.747-.976-1.873-.976-3.746,2.374-1.874,2.374-3.748-.557-1.875-.557-3.749-.756-1.874-.756-3.747,1.058-1.874,1.058-3.748.288-1.875.288-3.75-2.54-1.874-2.54-3.748,2.702-1.875,2.702-3.75-.249-1.874-.249-3.749-.341-1.875-.341-3.749-.769-1.875-.769-3.749-1.359-1.875-1.359-3.75,1.638-1.875,1.638-3.749-.826-1.875-.826-3.749,1.193-1.873,1.193-3.745-1.108-1.875-1.108-3.749,1.349-1.874,1.349-3.747.111-1.875.111-3.751-1.089-1.874-1.089-3.749-.161-1.875-.161-3.75,1.699-1.876,1.699-3.752-.248-1.876-.248-3.752-2.374-1.876-2.374-3.752-.202-1.876-.202-3.751,2.395-1.876,2.395-3.752-.927-1.876-.927-3.753.599-1.879.599-3.759.863-2.436.024-4.117-2.789-.003-4.288-1.127-.85-1.99-2.349-3.115-.817-2.035-2.316-3.16-1.91-.576-3.409-1.7-1.068-1.7-2.568-2.825-1.39-1.27-2.889-2.395-2.59.329-4.09-.795-.421-2.561-1.919-3.685-2.832.657-4.329-.466-.343-2.664-1.841-3.787-2.515.228-4.015-.897-1.948-.524-3.447-1.647-1.036-1.744-2.536-2.869-.57-2.363-2.069-3.488-1.47-1.167-2.97-2.292-1.278-1.421-2.777-2.545-3.057.951-4.558-.175-1.707-.851-3.208-1.977-.663-2.243-2.164-3.369-.827-2.021-2.326-3.145-2.412.089-3.913-1.037-.647-2.265-2.148-3.391-1.901-.593-3.403-1.72-.923-1.902-2.427-3.03-1.881.034-3.761.031-2.343-1.291-3.842-.167-.499,2.458-1.998,3.583-1.168,1.567-2.668,2.692-1.862.64-3.361,1.765-1.123,1.626-2.623,2.751-1.277,1.42-2.777,2.545-1.766.769-3.266,1.894-1.861.641-3.359,1.765-1.152,1.583-2.649,2.706-1.615.967-3.114,2.091-1.833.681-3.333,1.806-1.858.645-3.356,1.768-.868,1.967-2.368,3.092-1.647.927-3.146,2.051-2.05.392-3.551,1.518-1.754.786-3.254,1.91-.064,3.041-1.564,4.166-1.622.964-3.123,2.09-2.02.434-3.521,1.559-2.083.346-3.583,1.47-1.414,1.241-2.915,2.367-.26,2.781-1.761,3.907-1.989.477-3.49,1.603-2.442-.122-3.946,1.006-1.832,1.222-2.674,2.903-.218,1.997-.218,3.871.302,1.874.302,3.747-1.152,1.873-1.152,3.746,2.364,1.874,2.364,3.748-2.106,1.875-2.106,3.749.584,1.874.584,3.747.683,1.874.683,3.748-1.339,1.875-1.339,3.75.401,1.874.401,3.748,1.436,1.875,1.436,3.75-1.832,1.874-1.832,3.749.171,1.875.171,3.749,2.397,1.875,2.397,3.749-2.916,1.875-2.916,3.75.252,1.875.252,3.749-.138,1.875-.138,3.749,2.036,1.873,2.036,3.745-1.966,1.875-1.966,3.749,1.16,1.874,1.16,3.747,1.352,1.875,1.352,3.751-1.901,1.874-1.901,3.749,1.049,1.875,1.049,3.75.709,1.876.709,3.752-1.231,1.876-1.231,3.752,1.111,1.876,1.111,3.752-1.691,1.876-1.691,3.751.502,1.876.502,3.752.848,1.876.848,3.753-.477,1.871-.848,3.713c-.383,1.902-.999,2.366.355,3.67Z" style="fill: none; stroke: #000; stroke-miterlimit: 10; stroke-width: 22.5px;"/>
</svg>