<?xml version="1.0" encoding="UTF-8"?>
<svg id="Small" xmlns="http://www.w3.org/2000/svg" width="240" height="240" viewBox="0 0 240 240">
  <path d="M44.702,204.685c1.405,1.353,2.249,1.186,4.2,1.186s1.952-1.837,3.905-1.837,1.951.174,3.903.174,1.952.457,3.904.457,1.953-.423,3.906-.423,1.953.46,3.906.46,1.953.837,3.906.837,1.953-1.987,3.905-1.987,1.953.656,3.906.656,1.953,1.07,3.907,1.07,1.956-1.889,3.913-1.889,1.911,1.724,3.324.371c1.353-1.296.4-1.259.4-3.133s.71-1.874.71-3.749-.279-1.874-.279-3.748c0-1.875-1.578-1.875-1.578-3.749,0-1.874,1.26-1.874,1.26-3.748,0-1.874-.415-1.874-.415-3.748s1.323-1.872,1.323-3.744-1.992-1.874-1.992-3.749-.178-1.873-.178-3.747,1.283-1.875,1.283-3.75.269-1.874.269-3.748-.801-1.875-.801-3.75,1.525-1.876,1.525-3.751-2.228-1.876-2.228-3.751,2.738-1.876,2.738-3.751c0-1.875-2.85-1.875-2.85-3.75,0-1.875.99-1.875.99-3.751s1.846-1.876,1.846-3.752c0-1.879-.889-1.879-.889-3.758s-1.529-2.085-.203-3.415c1.323-1.327,1.53-1.499,3.404-1.499s1.872,1.417,3.744,1.417,1.874-.536,3.748-.536,1.873-.588,3.746-.588,1.875.668,3.75.668,1.874,1.004,3.747,1.004,1.875-.952,3.749-.952,1.875.172,3.751.172,1.875,1.414,3.751,1.414,1.875-2.174,3.751-2.174,1.875,1.646,3.75,1.646,1.875-.897,3.75-.897,1.876.158,3.751.158,1.879.841,3.757.841,3.363-3.279,4.693-1.953-2.389,2.812-2.389,4.686c0,1.874,1.925,1.874,1.925,3.749s-.126,1.874-.126,3.748-.828,1.875-.828,3.749c0,1.874.843,1.874.843,3.748,0,1.874-1.297,1.874-1.297,3.748s2.029,1.872,2.029,3.744-1.42,1.874-1.42,3.749-.915,1.873-.915,3.747c0,1.875,2.06,1.875,2.06,3.75s-.055,1.874-.055,3.748.187,1.875.187,3.75-1.808,1.876-1.808,3.751c0,1.876,2.311,1.876,2.311,3.751s-.084,1.876-.084,3.751c0,1.875-2.299,1.875-2.299,3.75,0,1.875.568,1.875.568,3.751,0,1.876-.805,1.876-.805,3.752,0,1.879-.265,1.879-.265,3.758s-.234,2.777,1.12,4.081c1.405,1.353,2.262.883,4.212.883s1.952-2.556,3.905-2.556,1.951,1.992,3.903,1.992,1.952-2.124,3.904-2.124,1.953,1.804,3.906,1.804,1.953-.85,3.906-.85,1.953.116,3.906.116,1.953-.663,3.905-.663,1.953,1.851,3.906,1.851,1.953-.592,3.907-.592,1.956-.822,3.913-.822,2.716,2.217,4.128.863c1.354-1.297-1.364-2.1-1.364-3.975,0-1.874.123-1.874.123-3.747s.974-1.873.974-3.746.499-1.874.499-3.748c0-1.875.249-1.875.249-3.749s-2.099-1.874-2.099-3.747,2.839-1.874,2.839-3.748-.354-1.875-.354-3.75c0-1.874-.884-1.874-.884-3.748,0-1.875,1.021-1.875,1.021-3.75s-1.995-1.874-1.995-3.749.93-1.875.93-3.749,1.094-1.875,1.094-3.749-2.052-1.875-2.052-3.75c0-1.875-.565-1.875-.565-3.749s.027-1.875.027-3.749c0-1.873,2.391-1.873,2.391-3.745s-.719-1.875-.719-3.749.477-1.874.477-3.747-.892-1.875-.892-3.751-.309-1.874-.309-3.749-.986-1.875-.986-3.75,1.74-1.876,1.74-3.752c0-1.876-1.797-1.876-1.797-3.752,0-1.876,1.528-1.876,1.528-3.752,0-1.876.959-1.876.959-3.751,0-1.876-.448-1.876-.448-3.752,0-1.876-.575-1.876-.575-3.753,0-1.879-.829-1.879-.829-3.759s2.034-2.275,1.195-3.956-2.001-.785-3.499-1.909c-1.499-1.124-2.136-.275-3.635-1.4-1.5-1.125-.047-3.061-1.547-4.186-1.499-1.124-2.87.704-4.369-.42-1.5-1.125-1.148-1.594-2.648-2.719s-.571-2.362-2.071-3.486-1.699-.859-3.198-1.984c-1.498-1.124-2.589.331-4.088-.793s-.963-1.834-2.461-2.957-1.64-.935-3.138-2.059c-1.5-1.125-.533-2.414-2.033-3.539-1.498-1.124-1.919-.563-3.417-1.686s-1.546-1.064-3.046-2.189c-1.499-1.124-1.338-1.34-2.837-2.464s-2.707.483-4.208-.642c-1.5-1.125-.881-1.949-2.381-3.074s-1.951-.524-3.452-1.649-1.151-1.593-2.652-2.719c-1.501-1.126-.472-2.498-1.973-3.624-1.499-1.124-2.378.047-3.877-1.077s-1.983-.484-3.484-1.609-.371-2.632-1.873-3.758-2.83.644-4.331-.482-.688-2.216-2.192-3.344c-1.504-1.128-1.111-1.186-2.991-1.189-1.873-.002-.714,1.076-2.213,2.2-1.499,1.124-2.303.052-3.802,1.177s-1.984.479-3.484,1.604-1.572,1.027-3.071,2.151-1.516,1.103-3.016,2.227-1.637.94-3.137,2.065-.515,2.438-2.015,3.562c-1.498,1.124-1.189,1.536-2.688,2.66s-2.01.439-3.507,1.562-2.403-.083-3.902,1.04-.322,2.695-1.822,3.82-1.974.489-3.473,1.613-2.133.281-3.633,1.406-1.005,1.783-2.504,2.907c-1.501,1.125-1.836.678-3.337,1.803s-.601,2.324-2.1,3.448-1.183,1.549-2.683,2.674-2.451-.141-3.952.985-.408,2.583-1.909,3.709-2.99-.864-4.49.261c-1.501,1.126-1.431,1.219-2.932,2.345s-.81,2.048-2.311,3.174-.948,1.865-2.449,2.991c-1.504,1.128-2.851-.668-4.355.46s-1.779,1.428-2.621,3.109.269,2.078.269,3.953.808,1.874.808,3.747c0,1.873.057,1.873.057,3.746s.636,1.874.636,3.748c0,1.875.007,1.875.007,3.749s-2.343,1.874-2.343,3.747,1.347,1.874,1.347,3.748-1.259,1.875-1.259,3.75c0,1.874-.61,1.874-.61,3.748s2.463,1.875,2.463,3.75c0,1.874-.187,1.874-.187,3.749s-1.136,1.875-1.136,3.749.431,1.875.431,3.749c0,1.875-.338,1.875-.338,3.75,0,1.875-.897,1.875-.897,3.749,0,1.875.204,1.875.204,3.749s1.731,1.873,1.731,3.745c0,1.875-1.152,1.875-1.152,3.749s-.802,1.874-.802,3.747,2.017,1.875,2.017,3.751-.911,1.874-.911,3.749.67,1.875.67,3.75c0,1.876.572,1.876.572,3.752,0,1.876-1.334,1.876-1.334,3.752,0,1.876,1.412,1.876,1.412,3.752,0,1.876-1.939,1.876-1.939,3.751s.262,1.876.262,3.752c0,1.876-.701,1.876-.701,3.753,0,1.879,2.049,2.053,1.588,3.875-.536,2.117-2.111,2.648-.757,3.952Z" style="fill: #fff;"/>
  <path d="M44.702,204.685c1.405,1.353,2.249,1.186,4.2,1.186s1.952-1.837,3.905-1.837,1.951.174,3.903.174,1.952.457,3.904.457,1.953-.423,3.906-.423,1.953.46,3.906.46,1.953.837,3.906.837,1.953-1.987,3.905-1.987,1.953.656,3.906.656,1.953,1.07,3.907,1.07,1.956-1.889,3.913-1.889,1.911,1.724,3.324.371c1.353-1.296.4-1.259.4-3.133s.71-1.874.71-3.749-.279-1.874-.279-3.748c0-1.875-1.578-1.875-1.578-3.749,0-1.874,1.26-1.874,1.26-3.748,0-1.874-.415-1.874-.415-3.748s1.323-1.872,1.323-3.744-1.992-1.874-1.992-3.749-.178-1.873-.178-3.747,1.283-1.875,1.283-3.75.269-1.874.269-3.748-.801-1.875-.801-3.75,1.525-1.876,1.525-3.751-2.228-1.876-2.228-3.751,2.738-1.876,2.738-3.751c0-1.875-2.85-1.875-2.85-3.75,0-1.875.99-1.875.99-3.751s1.846-1.876,1.846-3.752c0-1.879-.889-1.879-.889-3.758s-1.529-2.085-.203-3.415c1.323-1.327,1.53-1.499,3.404-1.499s1.872,1.417,3.744,1.417,1.874-.536,3.748-.536,1.873-.588,3.746-.588,1.875.668,3.75.668,1.874,1.004,3.747,1.004,1.875-.952,3.749-.952,1.875.172,3.751.172,1.875,1.414,3.751,1.414,1.875-2.174,3.751-2.174,1.875,1.646,3.75,1.646,1.875-.897,3.75-.897,1.876.158,3.751.158,1.879.841,3.757.841,3.363-3.279,4.693-1.953-2.389,2.812-2.389,4.686c0,1.874,1.925,1.874,1.925,3.749s-.126,1.874-.126,3.748-.828,1.875-.828,3.749c0,1.874.843,1.874.843,3.748,0,1.874-1.297,1.874-1.297,3.748s2.029,1.872,2.029,3.744-1.42,1.874-1.42,3.749-.915,1.873-.915,3.747c0,1.875,2.06,1.875,2.06,3.75s-.055,1.874-.055,3.748.187,1.875.187,3.75-1.808,1.876-1.808,3.751c0,1.876,2.311,1.876,2.311,3.751s-.084,1.876-.084,3.751c0,1.875-2.299,1.875-2.299,3.75,0,1.875.568,1.875.568,3.751,0,1.876-.805,1.876-.805,3.752,0,1.879-.265,1.879-.265,3.758s-.234,2.777,1.12,4.081c1.405,1.353,2.262.883,4.212.883s1.952-2.556,3.905-2.556,1.951,1.992,3.903,1.992,1.952-2.124,3.904-2.124,1.953,1.804,3.906,1.804,1.953-.85,3.906-.85,1.953.116,3.906.116,1.953-.663,3.905-.663,1.953,1.851,3.906,1.851,1.953-.592,3.907-.592,1.956-.822,3.913-.822,2.716,2.217,4.128.863c1.354-1.297-1.364-2.1-1.364-3.975,0-1.874.123-1.874.123-3.747s.974-1.873.974-3.746.499-1.874.499-3.748c0-1.875.249-1.875.249-3.749s-2.099-1.874-2.099-3.747,2.839-1.874,2.839-3.748-.354-1.875-.354-3.75c0-1.874-.884-1.874-.884-3.748,0-1.875,1.021-1.875,1.021-3.75s-1.995-1.874-1.995-3.749.93-1.875.93-3.749,1.094-1.875,1.094-3.749-2.052-1.875-2.052-3.75c0-1.875-.565-1.875-.565-3.749s.027-1.875.027-3.749c0-1.873,2.391-1.873,2.391-3.745s-.719-1.875-.719-3.749.477-1.874.477-3.747-.892-1.875-.892-3.751-.309-1.874-.309-3.749-.986-1.875-.986-3.75,1.74-1.876,1.74-3.752c0-1.876-1.797-1.876-1.797-3.752,0-1.876,1.528-1.876,1.528-3.752,0-1.876.959-1.876.959-3.751,0-1.876-.448-1.876-.448-3.752,0-1.876-.575-1.876-.575-3.753,0-1.879-.829-1.879-.829-3.759s2.034-2.275,1.195-3.956-2.001-.785-3.499-1.909c-1.499-1.124-2.136-.275-3.635-1.4-1.5-1.125-.047-3.061-1.547-4.186-1.499-1.124-2.87.704-4.369-.42-1.5-1.125-1.148-1.594-2.648-2.719s-.571-2.362-2.071-3.486-1.699-.859-3.198-1.984c-1.498-1.124-2.589.331-4.088-.793s-.963-1.834-2.461-2.957-1.64-.935-3.138-2.059c-1.5-1.125-.533-2.414-2.033-3.539-1.498-1.124-1.919-.563-3.417-1.686s-1.546-1.064-3.046-2.189c-1.499-1.124-1.338-1.34-2.837-2.464s-2.707.483-4.208-.642c-1.5-1.125-.881-1.949-2.381-3.074s-1.951-.524-3.452-1.649-1.151-1.593-2.652-2.719c-1.501-1.126-.472-2.498-1.973-3.624-1.499-1.124-2.378.047-3.877-1.077s-1.983-.484-3.484-1.609-.371-2.632-1.873-3.758-2.83.644-4.331-.482-.688-2.216-2.192-3.344c-1.504-1.128-1.111-1.186-2.991-1.189-1.873-.002-.714,1.076-2.213,2.2-1.499,1.124-2.303.052-3.802,1.177s-1.984.479-3.484,1.604-1.572,1.027-3.071,2.151-1.516,1.103-3.016,2.227-1.637.94-3.137,2.065-.515,2.438-2.015,3.562c-1.498,1.124-1.189,1.536-2.688,2.66s-2.01.439-3.507,1.562-2.403-.083-3.902,1.04-.322,2.695-1.822,3.82-1.974.489-3.473,1.613-2.133.281-3.633,1.406-1.005,1.783-2.504,2.907c-1.501,1.125-1.836.678-3.337,1.803s-.601,2.324-2.1,3.448-1.183,1.549-2.683,2.674-2.451-.141-3.952.985-.408,2.583-1.909,3.709-2.99-.864-4.49.261c-1.501,1.126-1.431,1.219-2.932,2.345s-.81,2.048-2.311,3.174-.948,1.865-2.449,2.991c-1.504,1.128-2.851-.668-4.355.46s-1.779,1.428-2.621,3.109.269,2.078.269,3.953.808,1.874.808,3.747c0,1.873.057,1.873.057,3.746s.636,1.874.636,3.748c0,1.875.007,1.875.007,3.749s-2.343,1.874-2.343,3.747,1.347,1.874,1.347,3.748-1.259,1.875-1.259,3.75c0,1.874-.61,1.874-.61,3.748s2.463,1.875,2.463,3.75c0,1.874-.187,1.874-.187,3.749s-1.136,1.875-1.136,3.749.431,1.875.431,3.749c0,1.875-.338,1.875-.338,3.75,0,1.875-.897,1.875-.897,3.749,0,1.875.204,1.875.204,3.749s1.731,1.873,1.731,3.745c0,1.875-1.152,1.875-1.152,3.749s-.802,1.874-.802,3.747,2.017,1.875,2.017,3.751-.911,1.874-.911,3.749.67,1.875.67,3.75c0,1.876.572,1.876.572,3.752,0,1.876-1.334,1.876-1.334,3.752,0,1.876,1.412,1.876,1.412,3.752,0,1.876-1.939,1.876-1.939,3.751s.262,1.876.262,3.752c0,1.876-.701,1.876-.701,3.753,0,1.879,2.049,2.053,1.588,3.875-.536,2.117-2.111,2.648-.757,3.952Z" style="fill: none; stroke: #000; stroke-miterlimit: 10; stroke-width: 22.5px;"/>
</svg>