<?xml version="1.0" encoding="UTF-8"?>
<svg id="SM_Icons" data-name="SM Icons" xmlns="http://www.w3.org/2000/svg" width="200" height="200" viewBox="0 0 200 200">
  <path d="M39.628,78.846l.688,11.581.95,11.581-1.074,11.578,3.497,11.581-4.178,11.585,2.31,11.581.553,11.589-2.122,11.589M114.273,169.914l-12.169.688-12.172.95-12.176-1.074-12.172,3.497-12.18-4.178-12.18,2.31M159.92,27.375l-13.401.205-12.26.95-12.264-1.074-12.26,3.497-12.269-4.178-11.842,2.13.722,12.171-2.122,12.588,2.855,12.583-1.213,12.587-1.906,12.591,2.36,12.587-.719,12.596-1.567,13.728,13.42.921,12.26-3.23,12.264,3.652,12.26-3.436,12.269,2.142,10.59-2.818,1.556-10.951-1.254-12.588.138-12.583,1.465-12.587-1.105-12.591,3.164-12.587-.482-12.517-.66-13.788Z" style="fill: #fff;"/>
  <path d="M39.628,78.846l.688,11.581.95,11.581-1.074,11.578,3.497,11.581-4.178,11.585,2.31,11.581.553,11.589-2.122,11.589M114.273,169.914l-12.169.688-12.172.95-12.176-1.074-12.172,3.497-12.18-4.178-12.18,2.31M159.92,27.375l-13.401.205-12.26.95-12.264-1.074-12.26,3.497-12.269-4.178-11.842,2.13.722,12.171-2.122,12.588,2.855,12.583-1.213,12.587-1.906,12.591,2.36,12.587-.719,12.596-1.567,13.728,13.42.921,12.26-3.23,12.264,3.652,12.26-3.436,12.269,2.142,10.59-2.818,1.556-10.951-1.254-12.588.138-12.583,1.465-12.587-1.105-12.591,3.164-12.587-.482-12.517-.66-13.788Z" style="fill: none; stroke: #000; stroke-linecap: round; stroke-linejoin: round; stroke-width: 23px;"/>
</svg>