<?xml version="1.0" encoding="UTF-8"?>
<svg id="eraser" xmlns="http://www.w3.org/2000/svg" width="240" height="240" viewBox="0 0 240 240">
  <path d="M44.564,204.828c1.405,1.353,2.387-.304,4.337-.304s1.952-1.288,3.905-1.288,1.951,1.945,3.903,1.945,1.952-2.25,3.904-2.25,1.953.609,3.906.609,1.953.45,3.906.45,1.953-.369,3.906-.369,1.953,1.694,3.905,1.694,1.953.323,3.906.323,1.953.125,3.907.125,1.956-.917,3.913-.917,3.426,1.85,4.839.496c1.353-1.296-1.103-2.841-1.103-4.715s1.615-1.874,1.615-3.749-1.894-1.874-1.894-3.748.631-1.875.631-3.749-.596-1.874-.596-3.748-.26-1.874-.26-3.748,1.539-1.872,1.539-3.744-.004-1.874-.004-3.749.192-1.873.192-3.747-.832-1.875-.832-3.75-1.621-1.874-1.621-3.748,2.664-1.875,2.664-3.75-1.204-1.876-1.204-3.751.799-1.876.799-3.751-1.44-1.876-1.44-3.751,1.738-1.875,1.738-3.75-1.891-1.875-1.891-3.751-.473-1.876-.473-3.752.744-1.879.744-3.758-1.193-2.763.134-4.093,2.21.408,4.084.408,1.872,1.233,3.744,1.233,1.874-.473,3.748-.473,1.873-1.417,3.746-1.417,1.875-.537,3.75-.537,1.874.911,3.747.911,1.875-.598,3.749-.598,1.875,1.022,3.751,1.022,1.875.765,3.751.765,1.875-1.232,3.751-1.232,1.875-.12,3.75-.12,1.875,1.392,3.75,1.392,1.876.128,3.751.128,1.879-.794,3.757-.794,2.084-1.335,3.415-.009-.708,1.53-.708,3.404-.163,1.874-.163,3.749,2.463,1.874,2.463,3.748-2.534,1.875-2.534,3.749,1.62,1.874,1.62,3.748,1.08,1.874,1.08,3.748-1.319,1.872-1.319,3.744-.47,1.874-.47,3.749.393,1.873.393,3.747-1.109,1.875-1.109,3.75,1.815,1.874,1.815,3.748-1.805,1.875-1.805,3.75.397,1.876.397,3.751,1.604,1.876,1.604,3.751-1.038,1.876-1.038,3.751-1.368,1.875-1.368,3.75.479,1.875.479,3.751-.172,1.876-.172,3.752,1.514,1.879,1.514,3.758-2.727,3.531-1.374,4.835c1.405,1.353,2.988-.642,4.939-.642s1.952-1.852,3.905-1.852,1.951,1.397,3.903,1.397,1.952-.623,3.904-.623,1.953.811,3.906.811,1.953.169,3.906.169,1.953-1.555,3.906-1.555,1.953.495,3.905.495,1.953.576,3.906.576,1.953,1.604,3.907,1.604,1.956-.474,3.913-.474,2.016-.135,3.428-1.489c1.354-1.297.127-1.369.127-3.244s-.291-1.874-.291-3.747.911-1.873.911-3.746-1.158-1.874-1.158-3.748,1.991-1.875,1.991-3.749.318-1.874.318-3.747.02-1.874.02-3.748-1.558-1.875-1.558-3.75-.919-1.874-.919-3.748,2.245-1.875,2.245-3.75-1.314-1.874-1.314-3.749.007-1.875.007-3.749-.558-1.875-.558-3.749,1.775-1.875,1.775-3.75-.21-1.875-.21-3.749-.879-1.875-.879-3.749-.681-1.873-.681-3.745-.383-1.875-.383-3.749,2.133-1.874,2.133-3.747-2.366-1.875-2.366-3.751.945-1.874.945-3.749,1.684-1.875,1.684-3.75-1.571-1.876-1.571-3.752.005-1.876.005-3.752.419-1.876.419-3.752-.9-1.876-.9-3.751-.713-1.876-.713-3.752,1.798-1.876,1.798-3.753-1.236-1.879-1.236-3.759.725-1.6-.114-3.282-.544-1.6-2.043-2.724-1.08-1.683-2.579-2.807-2.075-.357-3.575-1.482-.928-1.885-2.427-3.009-2.421.103-3.921-1.022-1.243-1.466-2.742-2.591-1.265-1.437-2.765-2.562-2.044-.396-3.543-1.52-.458-2.508-1.955-3.631-2.139-.269-3.637-1.393-1.571-1.03-3.071-2.155-.624-2.289-2.123-3.413-1.277-1.422-2.777-2.547-3.165,1.097-4.664-.027-.881-1.952-2.381-3.078-1.022-1.762-2.522-2.886-2.574.306-4.075-.819-.16-2.914-1.661-4.04-2.758.551-4.259-.575-1.213-1.507-2.712-2.631-.474-2.496-1.975-3.621-1.449-1.195-2.95-2.321-1.743-.804-3.245-1.93-1.226-1.499-2.73-2.627-1.833-1.894-3.713-1.896-1.314,1.953-2.813,3.077-2.147.261-3.646,1.385-.599,2.326-2.099,3.451-1.68.883-3.179,2.007-.921,1.896-2.421,3.021-2.203.186-3.702,1.311-2.025.424-3.525,1.548-.414,2.569-1.913,3.693-1.915.566-3.412,1.689-1.865.635-3.363,1.758-2.204.186-3.704,1.311-.702,2.185-2.2,3.309-1.277,1.422-2.777,2.547-1.508,1.112-3.007,2.237-1.092,1.67-2.593,2.795-1.373,1.293-2.873,2.418-1.471,1.165-2.971,2.29-3.108-1.017-4.609.109-.524,2.428-2.025,3.554-1.611.976-3.11,2.101-2.033.417-3.534,1.542-1.521,1.099-3.022,2.225-1.732.82-3.233,1.946-.066,3.045-1.57,4.173-3.002-.42-3.844,1.261,1.317,1.947,1.317,3.822-1.727,1.874-1.727,3.747-.637,1.873-.637,3.746,1.285,1.874,1.285,3.748-.772,1.875-.772,3.749-.256,1.874-.256,3.747,1.403,1.874,1.403,3.748-.889,1.875-.889,3.75.1,1.874.1,3.748.319,1.875.319,3.75.63,1.874.63,3.749.174,1.875.174,3.749.104,1.875.104,3.749.477,1.875.477,3.75-2.147,1.875-2.147,3.749,1.899,1.875,1.899,3.749-1.881,1.873-1.881,3.745,1.964,1.875,1.964,3.749.114,1.874.114,3.747-1.159,1.875-1.159,3.751-.176,1.874-.176,3.749.539,1.875.539,3.75-1.403,1.876-1.403,3.752.117,1.876.117,3.752,1.981,1.876,1.981,3.752-1.994,1.876-1.994,3.751.052,1.876.052,3.752,2.196,1.876,2.196,3.753-2.433,1.559-2.921,3.374c-.587,2.188-.357,3.292.997,4.596Z" style="fill: #fff;"/>
  <path d="M44.564,204.828c1.405,1.353,2.387-.304,4.337-.304s1.952-1.288,3.905-1.288,1.951,1.945,3.903,1.945,1.952-2.25,3.904-2.25,1.953.609,3.906.609,1.953.45,3.906.45,1.953-.369,3.906-.369,1.953,1.694,3.905,1.694,1.953.323,3.906.323,1.953.125,3.907.125,1.956-.917,3.913-.917,3.426,1.85,4.839.496c1.353-1.296-1.103-2.841-1.103-4.715s1.615-1.874,1.615-3.749-1.894-1.874-1.894-3.748.631-1.875.631-3.749-.596-1.874-.596-3.748-.26-1.874-.26-3.748,1.539-1.872,1.539-3.744-.004-1.874-.004-3.749.192-1.873.192-3.747-.832-1.875-.832-3.75-1.621-1.874-1.621-3.748,2.664-1.875,2.664-3.75-1.204-1.876-1.204-3.751.799-1.876.799-3.751-1.44-1.876-1.44-3.751,1.738-1.875,1.738-3.75-1.891-1.875-1.891-3.751-.473-1.876-.473-3.752.744-1.879.744-3.758-1.193-2.763.134-4.093,2.21.408,4.084.408,1.872,1.233,3.744,1.233,1.874-.473,3.748-.473,1.873-1.417,3.746-1.417,1.875-.537,3.75-.537,1.874.911,3.747.911,1.875-.598,3.749-.598,1.875,1.022,3.751,1.022,1.875.765,3.751.765,1.875-1.232,3.751-1.232,1.875-.12,3.75-.12,1.875,1.392,3.75,1.392,1.876.128,3.751.128,1.879-.794,3.757-.794,2.084-1.335,3.415-.009-.708,1.53-.708,3.404-.163,1.874-.163,3.749,2.463,1.874,2.463,3.748-2.534,1.875-2.534,3.749,1.62,1.874,1.62,3.748,1.08,1.874,1.08,3.748-1.319,1.872-1.319,3.744-.47,1.874-.47,3.749.393,1.873.393,3.747-1.109,1.875-1.109,3.75,1.815,1.874,1.815,3.748-1.805,1.875-1.805,3.75.397,1.876.397,3.751,1.604,1.876,1.604,3.751-1.038,1.876-1.038,3.751-1.368,1.875-1.368,3.75.479,1.875.479,3.751-.172,1.876-.172,3.752,1.514,1.879,1.514,3.758-2.727,3.531-1.374,4.835c1.405,1.353,2.988-.642,4.939-.642s1.952-1.852,3.905-1.852,1.951,1.397,3.903,1.397,1.952-.623,3.904-.623,1.953.811,3.906.811,1.953.169,3.906.169,1.953-1.555,3.906-1.555,1.953.495,3.905.495,1.953.576,3.906.576,1.953,1.604,3.907,1.604,1.956-.474,3.913-.474,2.016-.135,3.428-1.489c1.354-1.297.127-1.369.127-3.244s-.291-1.874-.291-3.747.911-1.873.911-3.746-1.158-1.874-1.158-3.748,1.991-1.875,1.991-3.749.318-1.874.318-3.747.02-1.874.02-3.748-1.558-1.875-1.558-3.75-.919-1.874-.919-3.748,2.245-1.875,2.245-3.75-1.314-1.874-1.314-3.749.007-1.875.007-3.749-.558-1.875-.558-3.749,1.775-1.875,1.775-3.75-.21-1.875-.21-3.749-.879-1.875-.879-3.749-.681-1.873-.681-3.745-.383-1.875-.383-3.749,2.133-1.874,2.133-3.747-2.366-1.875-2.366-3.751.945-1.874.945-3.749,1.684-1.875,1.684-3.75-1.571-1.876-1.571-3.752.005-1.876.005-3.752.419-1.876.419-3.752-.9-1.876-.9-3.751-.713-1.876-.713-3.752,1.798-1.876,1.798-3.753-1.236-1.879-1.236-3.759.725-1.6-.114-3.282-.544-1.6-2.043-2.724-1.08-1.683-2.579-2.807-2.075-.357-3.575-1.482-.928-1.885-2.427-3.009-2.421.103-3.921-1.022-1.243-1.466-2.742-2.591-1.265-1.437-2.765-2.562-2.044-.396-3.543-1.52-.458-2.508-1.955-3.631-2.139-.269-3.637-1.393-1.571-1.03-3.071-2.155-.624-2.289-2.123-3.413-1.277-1.422-2.777-2.547-3.165,1.097-4.664-.027-.881-1.952-2.381-3.078-1.022-1.762-2.522-2.886-2.574.306-4.075-.819-.16-2.914-1.661-4.04-2.758.551-4.259-.575-1.213-1.507-2.712-2.631-.474-2.496-1.975-3.621-1.449-1.195-2.95-2.321-1.743-.804-3.245-1.93-1.226-1.499-2.73-2.627-1.833-1.894-3.713-1.896-1.314,1.953-2.813,3.077-2.147.261-3.646,1.385-.599,2.326-2.099,3.451-1.68.883-3.179,2.007-.921,1.896-2.421,3.021-2.203.186-3.702,1.311-2.025.424-3.525,1.548-.414,2.569-1.913,3.693-1.915.566-3.412,1.689-1.865.635-3.363,1.758-2.204.186-3.704,1.311-.702,2.185-2.2,3.309-1.277,1.422-2.777,2.547-1.508,1.112-3.007,2.237-1.092,1.67-2.593,2.795-1.373,1.293-2.873,2.418-1.471,1.165-2.971,2.29-3.108-1.017-4.609.109-.524,2.428-2.025,3.554-1.611.976-3.11,2.101-2.033.417-3.534,1.542-1.521,1.099-3.022,2.225-1.732.82-3.233,1.946-.066,3.045-1.57,4.173-3.002-.42-3.844,1.261,1.317,1.947,1.317,3.822-1.727,1.874-1.727,3.747-.637,1.873-.637,3.746,1.285,1.874,1.285,3.748-.772,1.875-.772,3.749-.256,1.874-.256,3.747,1.403,1.874,1.403,3.748-.889,1.875-.889,3.75.1,1.874.1,3.748.319,1.875.319,3.75.63,1.874.63,3.749.174,1.875.174,3.749.104,1.875.104,3.749.477,1.875.477,3.75-2.147,1.875-2.147,3.749,1.899,1.875,1.899,3.749-1.881,1.873-1.881,3.745,1.964,1.875,1.964,3.749.114,1.874.114,3.747-1.159,1.875-1.159,3.751-.176,1.874-.176,3.749.539,1.875.539,3.75-1.403,1.876-1.403,3.752.117,1.876.117,3.752,1.981,1.876,1.981,3.752-1.994,1.876-1.994,3.751.052,1.876.052,3.752,2.196,1.876,2.196,3.753-2.433,1.559-2.921,3.374c-.587,2.188-.357,3.292.997,4.596Z" style="fill: none; stroke: #000; stroke-miterlimit: 10; stroke-width: 22.5px;"/>
</svg>