<?xml version="1.0" encoding="UTF-8"?>
<svg id="Title" xmlns="http://www.w3.org/2000/svg" width="512" height="512" viewBox="0 0 512 512">
  <g>
    <path d="M267.691,454.177c-.741.418,2.402,10.124,1.292,10.179-.474.023-1.521-9.792-2.18-9.761-.514.025-.858,4.752-1.479,4.781-.53.025-1.122-.481-1.726-.453-.539.025-.856,5.65-1.451,5.676-.545.024-1.473-8.078-2.063-8.052-.549.024-.747,8.6-1.333,8.626-.552.024-1.365-5.642-1.949-5.617-.554.023-1.033,2.207-1.616,2.232-.556.023-1.165-.917-1.746-.893-.557.023-1.382-6.362-1.961-6.339-.558.022-.793,8.461-1.371,8.484-.559.022-1.418-7.462-1.995-7.44-.56.021-.865,6.953-1.441,6.975-.56.021-1.202-1.91-1.777-1.889-.561.021-1.086,1.233-1.66,1.253-.561.02-1.091,1.156-1.665,1.177-.562.02-1.266-3.824-1.839-3.805-.562.019-1.085,1.342-1.658,1.361-.563.019-.999,4.017-1.572,4.036-.563.019-1.361-6.963-1.934-6.945-.564.018-1.157-.828-1.729-.81-.564.018-.983,4.773-1.555,4.791-.564.017-1.094,1.327-1.666,1.345-.565.017-1.104,1.073-1.676,1.09-.565.017-1.103,1.18-1.675,1.197-.565.016-1.344-7.41-1.916-7.394-.565.016-.978,5.725-1.549,5.74-.566.015-1.351-8.153-1.922-8.138-.566.015-1.024,4.21-1.595,4.224-.566.014-1.159-.987-1.73-.973-.566.014-.967,7.048-1.537,7.062-.567.013-1.233-4.075-1.804-4.062-.567.013-1.256-5.403-1.827-5.391-.565.012-1.034,4.436-1.603,4.448-.565.012-1.044,4.383-1.613,4.395-.566.011-1.187-2.589-1.756-2.578s-1.162-1.454-1.731-1.444-1.223-5.075-1.792-5.065-1.042,5.333-1.611,5.342-1.119,1.088-1.688,1.097-1.104,2.254-1.674,2.263-1.253-8.354-1.822-8.346-1.018,9.077-1.587,9.084-1.142-.249-1.711-.243-1.212-6.98-1.781-6.974-1.126.719-1.695.725-1.121,1.691-1.69,1.695-1.164-3.824-1.733-3.82-1.099,5.904-1.669,5.907-1.132,1.956-1.702,1.959-1.17-7.74-1.739-7.738-1.122,6.267-1.692,6.268-1.143.42-1.713.42-1.144-.992-1.714-.992-1.14-1.725-1.71-1.726-1.162,5.836-1.733,5.834-1.11-8.242-1.68-8.245-1.122-2.577-1.692-2.581-1.207,8.805-1.777,8.8-1.142-.442-1.711-.448-1.112-2.968-1.681-2.975-1.209,5.112-1.777,5.104-.999-10.052-1.568-10.061-1.243,6.57-1.811,6.56-1.014-6.933-1.582-6.944c-.571-.011-1.25,5.715-1.818,5.703-.571-.012-1.075-2.927-1.643-2.941-.571-.013-1.067-2.766-1.634-2.78-.571-.014-1.411,10.203-1.978,10.188-.571-.016-1.136-.62-1.703-.637-.571-.017-.839-9.663-1.406-9.681-.571-.019-1.393,7.544-1.96,7.524-.571-.02-.947-5.326-1.513-5.348-.571-.022-1.193,1.436-1.758,1.413-.572-.023-1.4,5.964-1.966,5.939-.572-.025-1.051-2.275-1.617-2.302-.572-.027-.946-4.075-1.511-4.104-.572-.029-1.003-2.502-1.568-2.533-.573-.031-1.355,3.88-1.92,3.847-.574-.033-1.485,5.401-2.051,5.365-.574-.036-1.144-.43-1.709-.468-.574-.038-.989-2.567-1.554-2.607-.574-.041-.857-3.977-1.42-4.021-.573-.044-1.477,4.073-2.039,4.027-.573-.047-1.019-1.663-1.58-1.713-.573-.051-.664-5.194-1.224-5.247-.573-.054-1.525,3.929-2.084,3.872-.574-.059-1.713,5.057-2.271,4.996-.574-.063-.431-6.484-.988-6.55-.574-.068-.901-1.906-1.457-1.977-.574-.074-2.017,6.318-2.571,6.24-.573-.081-.269-6.121-.819-6.206-.575-.088-1.691,3.293-2.24,3.2-.575-.097-1.289.498-1.835.396-.574-.107-1.377.751-1.918.637-.573-.12-.932-1.413-1.467-1.54-.572-.135-1.077-.672-1.604-.814-.571-.155.375-5.202-.14-5.366-.553-.176-2.398,3.686-2.941,3.502-.55-.186-2.104,2.408-2.644,2.214-.546-.196,2.233-9.324,1.697-9.528-.543-.206-3.436,5.753-3.968,5.539-.538-.216.443-4.036-.085-4.26-.534-.227-.292-2.02-.815-2.255-.53-.237-3.735,5.435-4.254,5.19-.525-.248-2.396,2.152-2.91,1.897-.519-.258,3.071-8.556,2.562-8.822-.514-.269-.437-1.403-.94-1.68-.509-.28-1.615.719-2.112.431-.502-.291-5.457,6.917-5.947,6.619-.496-.302,4.449-9.296,3.966-9.605-.489-.312-2.106,1.291-2.582.971-.481-.323-.624-.986-1.093-1.316-.474-.334-6.472,6.965-6.933,6.624-.466-.344,1.23-3.679.777-4.03-.458-.355-2.029.598-2.474.236-.449-.366-1.532-.112-1.968-.485-.441-.376-1.051-.715-1.479-1.098-.432-.386,2.135-4.121,1.717-4.513-.422-.397-4.313,2.727-4.721,2.324-.413-.407,1.283-3.016.884-3.428-.403-.417.639-2.224.251-2.646-.392-.426-4.374,2.295-4.752,1.863-.381-.436,4.805-5.657,4.438-6.099-.371-.445-4.965,2.538-5.321,2.088-.359-.454,4.733-5.091,4.388-5.55-.348-.463-.736-.771-1.069-1.238-.336-.471.216-1.422-.105-1.898-.324-.479-7.763,3.739-8.072,3.256-.312-.488,5.692-4.898,5.395-5.389-.299-.495-8.249,3.483-8.533,2.984-.287-.503.493-1.723.221-2.229-.274-.51,7.263-5.065,7.005-5.578-.261-.517-.004-1.134-.25-1.653-.247-.523-1.914-.264-2.146-.789-.233-.529-7.952,2.123-8.17,1.592-.22-.535-.583-1.134-.787-1.67-.206-.541,1.023-1.706.833-2.247-.191-.546,3.281-2.346,3.105-2.892-.177-.551-2.423-.468-2.583-1.018-.162-.556.233-1.288.087-1.843-.147-.559-5.037-.022-5.168-.579-.132-.563,6.235-2.614,6.119-3.175-.096-.467-6.21-.148-6.297-.807-.068-.511,3.599-1.612,3.536-2.234-.054-.53,2.21-1.311,2.16-1.919-.044-.539-2.319-.938-2.361-1.536-.038-.544-.467-1.1-.503-1.692-.033-.549,3.911-1.336,3.88-1.925-.029-.552,2.885-1.242,2.857-1.828-.026-.554-2.071-1.013-2.095-1.598-.023-.556-9.4-.766-9.421-1.349-.021-.558,3.344-1.262,3.325-1.844-.019-.559,1.597-1.187,1.579-1.768-.017-.561-2.049-1.079-2.064-1.659-.015-.562.235-1.146.221-1.726-.014-.562-1.211-1.113-1.224-1.692-.013-.563-.319-1.136-.33-1.715-.011-.564.111-1.145.1-1.724-.01-.564,3.898-1.207,3.889-1.785-.009-.565,5.195-1.214,5.186-1.791-.008-.565-6.012-1.049-6.019-1.626-.008-.566,1.445-1.156,1.438-1.733-.007-.566-3.311-1.102-3.317-1.679-.006-.567,3.07-1.17,3.065-1.747-.005-.567,4.373-1.173,4.368-1.75-.005-.567-2.594-1.116-2.598-1.692-.004-.567,1.208-1.144,1.205-1.72-.003-.568-2.627-1.123-2.629-1.699-.003-.568-.729-1.136-.731-1.712-.002-.568,1.814-1.145,1.812-1.721-.002-.568-4.761-1.129-4.763-1.704-.001-.568,3.398-1.147,3.397-1.722,0-.569-3.143-1.139-3.143-1.714,0-.569,6.527-1.14,6.527-1.715,0-.569.763-1.137.764-1.712,0-.569-8.891-1.155-8.889-1.73.001-.569,7.301-1.124,7.302-1.699.002-.569-3.671-1.151-3.669-1.726.002-.567-.171-1.137-.168-1.709.002-.567-.541-1.14-.538-1.712.003-.567-2.381-1.151-2.378-1.722.003-.568,2.539-1.124,2.542-1.696.003-.568,2.761-1.12,2.764-1.692.004-.568-3.841-1.164-3.837-1.736.004-.568.618-1.135.623-1.707.004-.568-1.164-1.149-1.159-1.721.005-.568,6.206-1.085,6.211-1.657.005-.569-5.565-1.189-5.559-1.761.005-.569-2.568-1.166-2.563-1.738.006-.569,6.803-1.071,6.809-1.643.006-.569-1.459-1.155-1.453-1.727.006-.569,2.242-1.114,2.248-1.686s-4.852-1.197-4.846-1.769-1.307-1.158-1.3-1.73,2.103-1.115,2.11-1.687,3.445-1.095,3.452-1.667,1.039-1.126,1.047-1.698.909-1.127.917-1.699-2.221-1.172-2.213-1.745,2.481-1.103,2.489-1.675-9.121-1.283-9.112-1.855,9.707-.988,9.717-1.56-2.569-1.182-2.559-1.755-4.023-1.21-4.013-1.782,4.848-1.059,4.858-1.631,2.619-1.094,2.629-1.667-10.329-1.327-10.318-1.898-1.157-1.164-1.146-1.735.555-1.133.566-1.704,5.08-1.044,5.091-1.616.467-1.132.479-1.704.333-1.135.344-1.706,4.617-1.046,4.629-1.618-8.198-1.314-8.185-1.886,6.117-1.012,6.13-1.584,1.572-1.107,1.584-1.679.369-1.133.382-1.705-9.665-1.362-9.652-1.934.042-1.144.055-1.715,10.057-.908,10.07-1.479-2.859-1.21-2.846-1.782-1.633-1.183-1.619-1.755-1.073-1.171-1.059-1.743-1.37-1.18-1.355-1.752,6.638-.976,6.653-1.548-1.749-1.19-1.734-1.762,1.724-1.099,1.739-1.672-7.605-1.35-7.59-1.923-.067-1.15-.051-1.723,4.213-1.03,4.229-1.603-1.021-1.175-1.004-1.747,3.131-1.057,3.148-1.629,2.505-1.072,2.522-1.645-6.173-1.326-6.156-1.899-1.989-1.207-1.971-1.779-1.312-1.188-1.294-1.76,4.926-.997,4.944-1.57-4.841-1.298-4.823-1.87,5.43-.977,5.448-1.55-1.212-1.186-1.194-1.758c.018-.573,2.61-1.062,2.629-1.635s1.181-1.107,1.199-1.68-7.481-1.397-7.462-1.969,4.86-.984,4.88-1.557-1.844-1.211-1.824-1.783-5.128-1.328-5.108-1.9.901-1.119.921-1.691-.669-1.175-.649-1.747,3.792-1.013,3.813-1.585-3.475-1.278-3.453-1.85,6.148-.921,6.17-1.493-2.164-1.231-2.142-1.803-2.566-1.249-2.544-1.82,8.812-.806,8.834-1.378-3.349-1.279-3.326-1.851-6.028-1.391-6.005-1.963,1.771-1.079,1.795-1.651-.932-1.189-.908-1.761,5.324-.927,5.348-1.499c.024-.574-4.044-1.321-4.019-1.892.025-.574.049-1.149.074-1.72.025-.574-1.794-1.23-1.769-1.801.025-.574-.229-1.162-.204-1.733.026-.574,6.797-.844,6.823-1.415.026-.574,1.833-1.063,1.859-1.634.026-.574-.018-1.147.009-1.718.027-.574-7.865-1.521-7.838-2.091.027-.574,3.439-.986,3.466-1.556.028-.574-3.534-1.323-3.506-1.893.028-.574,3.893-.958,3.922-1.528.029-.574-1.613-1.232-1.584-1.801.029-.574,6.284-.826,6.314-1.396.03-.574-.476-1.171-.447-1.74.03-.574-6.666-1.503-6.636-2.071.031-.574,4.489-.908,4.52-1.476.031-.574-5.153-1.434-5.122-2.002.032-.574,1.971-1.042,2.003-1.61.032-.574.377-1.13.409-1.697.033-.574.817-1.103.851-1.67.034-.574.661-1.111.695-1.678.034-.574,3.318-.946,3.353-1.513.035-.574.977-1.084,1.013-1.651.036-.574,2.432-.989,2.468-1.555.037-.574-10.552-1.831-10.515-2.397.038-.575,10.405-.462,10.443-1.028.038-.575-4.324-1.438-4.285-2.004.039-.575-3.196-1.374-3.156-1.939.04-.575,7.341-.627,7.381-1.192.041-.575-8.62-1.78-8.578-2.345.043-.577,7.574-.586,7.617-1.151.044-.576.196-1.13.241-1.694.045-.576-.324-1.17-.278-1.733.047-.576,1.883-.986,1.93-1.548.048-.576-6.701-1.718-6.653-2.28.05-.577-3.356-1.461-3.306-2.023.052-.578,4.473-.758,4.526-1.319.054-.578,6.037-.574,6.092-1.134.056-.579-2.464-1.385-2.408-1.943.059-.579.449-1.097.508-1.653.062-.581-2.298-1.403-2.236-1.959.065-.582,4.324-.646,4.389-1.2.069-.582-3.831-1.615-3.761-2.165.074-.584,4.376-.561,4.451-1.107.08-.585-3.694-1.663-3.613-2.205.088-.588,2.88-.681,2.969-1.216.094-.567-2.175-1.516-2.081-2.073.096-.567-5.399-2.095-5.302-2.651.099-.566,7.527.163,7.627-.393.101-.566-6.484-2.335-6.383-2.89.104-.565,4.481-.338,4.585-.892.106-.565-2.765-1.695-2.658-2.249.109-.564.392-1.1.502-1.653.112-.564,4.899-.173,5.012-.725.116-.563-5.005-2.214-4.888-2.765.119-.563,4.316-.244,4.436-.794.123-.562.118-1.136.243-1.685.128-.562,1.82-.737,1.949-1.285.132-.561-3.837-2.09-3.703-2.637.137-.56,5.913.309,6.051-.236.142-.559-6.241-2.789-6.097-3.334.148-.557-.134-1.249.015-1.791.154-.556,1.875-.682,2.031-1.222.16-.554-.688-1.417-.525-1.955.167-.552-3.058-2.201-2.888-2.736.175-.55,7.275,1.134,7.453.602.183-.547-4.239-2.677-4.053-3.206.192-.544-.228-1.366-.033-1.892.201-.541,6.448,1.229,6.654.707.212-.538-1.75-1.915-1.534-2.433.223-.533-.422-1.436-.194-1.949.235-.528-2.317-2.392-2.076-2.898.249-.522.621-1.085.876-1.585.263-.515,6.452,2.107,6.722,1.615.278-.506-4.351-3.789-4.065-4.271.294-.497,1.094-.767,1.396-1.239.31-.485-.38-1.75-.06-2.211.328-.473,1.903-.163,2.242-.611.347-.459,2.175.209,2.533-.225.366-.443,4.941,2.924,5.319,2.506.384-.425-5.368-6.563-4.97-6.964.403-.406.052-1.825.469-2.207.421-.385.069-2,.505-2.362.438-.364,4.821,4.081,5.275,3.739s1.025-.449,1.495-.769,2.857,2.555,3.341,2.256c.481-.297.924-.255,1.422-.533.493-.276-2.619-7.219-2.109-7.478.503-.255,2.776,3.082,3.295,2.843.512-.236.317-2.045.846-2.267.519-.218,3.158,5.027,3.694,4.821.419-.161-.663-4.027.011-4.188.492-.118.606-2.223,1.229-2.341.518-.098,1.784,4.086,2.39,3.989.531-.085-.267-9.277.33-9.362.54-.077,1.694,3.846,2.286,3.769.545-.07,1.003-1.165,1.591-1.235.548-.065,2.009,7.729,2.594,7.664.551-.061.394-6.713.977-6.774.553-.058.689-4.537,1.269-4.595.555-.055,1.801,6.816,2.381,6.761.557-.052.857-3.021,1.436-3.073.558-.05,1.231,1.044,1.81.995.559-.048,1.577,5.294,2.155,5.246.56-.047.266-10.705.844-10.752.561-.045,1.739,7.574,2.316,7.53.562-.043.615-6.929,1.192-6.972.563-.042,1.286,1.881,1.862,1.839.563-.041,1.413,3.819,1.989,3.778.563-.04,1.005-1.926,1.58-1.965.564-.039,1.213,1.099,1.789,1.06.564-.038,1.098-.61,1.673-.647.564-.037,1.105-.544,1.679-.581.565-.036,1.057-1.345,1.631-1.381.565-.035,1.502,5.97,2.076,5.935.565-.034,1.051-1.398,1.625-1.432.566-.033,1.047-1.541,1.621-1.574.566-.033.965-3.059,1.539-3.091.566-.032,1.127-.262,1.701-.294.566-.031,1.001-2.591,1.575-2.622.566-.031,1.558,7.808,2.132,7.778.567-.03.766-7.122,1.339-7.152.567-.029,1.435,5.725,2.008,5.695.567-.029,1.173.697,1.746.669.567-.028,1.28,2.909,1.853,2.881.567-.028.985-3.111,1.558-3.138.567-.027.756-8.092,1.329-8.119.568-.027,1.474,7.107,2.047,7.081.568-.026,1.283,3.174,1.856,3.148.568-.026.986-3.361,1.559-3.386.568-.025.995-3.268,1.568-3.293.568-.025,1.061-1.875,1.633-1.9.568-.025,1.451,7.27,2.024,7.246.568-.024.713-10.191,1.286-10.215.568-.024,1.451,7.467,2.023,7.444.568-.023,1.258,2.945,1.831,2.922.569-.023,1.107-.776,1.68-.799.569-.022,1.158.503,1.73.481.569-.022.912-5.935,1.484-5.957.569-.022,1.174.838,1.746.816.569-.021,1.03-3.03,1.602-3.052.567-.021,1.459,8.813,2.03,8.793.567-.021,1.072-1.761,1.642-1.781.567-.02,1.072-1.805,1.643-1.825.568-.02.964-5.036,1.534-5.055s1.102-1.13,1.672-1.149,1.454,9.42,2.025,9.401.94-5.983,1.511-6.002,1.145.184,1.716.166.982-4.977,1.553-4.995,1.353,6.791,1.924,6.773,1.236,3.2,1.807,3.183,1.171,1.143,1.742,1.126.892-8.329,1.463-8.346,1.345,7.06,1.916,7.044,1.002-4.783,1.573-4.799,1.067-2.658,1.638-2.674,1.308,6.114,1.879,6.098.966-6.49,1.537-6.505,1.183,1.554,1.754,1.539,1.16.707,1.731.692,1.243,4.056,1.815,4.042,1.083-2.301,1.654-2.315,1.083-2.404,1.654-2.418,1.248,4.506,1.82,4.492,1.12-.864,1.691-.878.992-6.554,1.564-6.566,1.238,4.266,1.81,4.253,1.125-.788,1.696-.801,1.229,4.109,1.801,4.097,1.025-5.524,1.595-5.536,1.203,3.074,1.774,3.063,1.039-5.157,1.61-5.169,1.202,3.113,1.773,3.102,1.203,3.311,1.774,3.3,1.176,1.966,1.747,1.955,1.092-2.722,1.663-2.732,1.047-5.503,1.618-5.512,1.126-1.107,1.697-1.117,1.17,1.536,1.741,1.527,1.238,6.036,1.81,6.028,1.108-2.222,1.679-2.231,1.061-5.612,1.632-5.62,1.246,7.083,1.817,7.075,1.048-6.975,1.619-6.982,1.174,2.174,1.746,2.167,1.205,4.749,1.777,4.741,1.192,4.006,1.764,3.999,1.024-10.25,1.596-10.257,1.172,2.238,1.744,2.231,1.182,3.47,1.754,3.464,1.084-5.96,1.657-5.965,1.171,2.507,1.743,2.501,1.164,2.076,1.736,2.071,1.112-3.928,1.684-3.933,1.13-2.154,1.703-2.158,1.171,3.039,1.743,3.035,1.158,1.672,1.73,1.668,1.157,1.803,1.73,1.8,1.153,1.436,1.726,1.432,1.155,2.151,1.728,2.148,1.103-9.204,1.675-9.206,1.145-.941,1.718-.943,1.162,3.941,1.735,3.939,1.142-2.191,1.714-2.193,1.149.013,1.721.012,1.164,10.023,1.736,10.022,1.133-11.767,1.705-11.768,1.153,9.196,1.725,9.196,1.147-5.721,1.719-5.721,1.14,8.018,1.713,8.019,1.15-4.12,1.723-4.119,1.145.242,1.718.243,1.162-5.362,1.734-5.361,1.138,3.089,1.711,3.091,1.165-4.05,1.737-4.048,1.15.126,1.722.129,1.096,9.506,1.668,9.509,1.213-10.703,1.785-10.7,1.115,5.155,1.687,5.159,1.178-3.763,1.75-3.758,1.107,5.054,1.679,5.059,1.135,1.228,1.708,1.233,1.219-7.156,1.791-7.15,1.118,3.114,1.69,3.12,1.147.182,1.719.189,1.159-.769,1.731-.762,1.092,4.335,1.663,4.343,1.106,2.847,1.677,2.856,1.15-.412,1.722-.403,1.162-1.135,1.734-1.126,1.143.099,1.715.108c.574.01,1.28-7.545,1.852-7.535.574.01,1.031,6.426,1.602,6.437.574.011,1.224-3.927,1.795-3.916.574.011,1.144.268,1.715.28.574.012,1.112,1.718,1.683,1.731.574.013,1.238-3.928,1.809-3.915.574.013.97,7.563,1.541,7.576.574.014,1.244-3.983,1.815-3.969.574.015,1.016,5.001,1.587,5.016.574.015,1.24-3.541,1.81-3.526.574.016,1.322-6.066,1.892-6.05.574.017,1.117,1.256,1.686,1.273.574.017,1.199-1.474,1.769-1.456.574.018,1.138.53,1.707.549.574.019.848,8.963,1.418,8.983.574.02,1.348-5.798,1.917-5.778.574.02,1.202-1.387,1.771-1.366.574.021,1.142.28,1.711.302.574.022.882,6.711,1.451,6.734.574.023,1.047,2.247,1.615,2.27.574.024,1.469-7.584,2.037-7.559.574.025,1.157-.128,1.724-.102.574.026,1.259-2.266,1.826-2.239.574.027.774,7.733,1.34,7.761.574.028,1.523-7.418,2.089-7.389.574.03.653,9.361,1.219,9.392.574.031,1.244-1.933,1.809-1.901.573.032,1.138.032,1.703.065.573.034,1.175-.58,1.739-.546.573.035,1.359-3.421,1.923-3.385.574.037.721,6.448,1.285,6.486.574.038,1.451-4.571,2.015-4.532.574.04,1.289-1.944,1.853-1.903.574.042.973,2.38,1.536,2.423.575.044.725,5.272,1.288,5.317.575.046,1.932-9.552,2.495-9.504.575.048,1.35-2.043,1.911-1.994.575.051,1.053,1.367,1.614,1.419.575.054.719,4.644,1.279,4.699.575.057.545,5.842,1.104,5.901.575.06,2.162-9.42,2.72-9.358.576.064,1.089.817,1.646.882.577.068.521,5.28,1.077,5.35.577.073,1.757-4.529,2.311-4.454.578.078,1.167.181,1.719.262.577.084-.042,7.868.506,7.955.578.091,1.834-4.266,2.38-4.172.579.1.45,3.764.992,3.867.58.111,1.875-3.666,2.412-3.552.581.124,1.482-1.204,2.011-1.076.582.141.523,2.609,1.04,2.756.583.165.977.561,1.475.733.549.19,2-2.217,2.532-2.028.547.194,1.998-2.074,2.529-1.88.545.199,1.365-.245,1.894-.046.544.205.444,2.178.97,2.382.542.211-.492,4.41.031,4.62.541.217,3.358-5.111,3.878-4.894.538.224.008,3.051.526,3.274.536.231-1.067,5.257-.553,5.488.533.239,2.882-3.555,3.392-3.316.529.248,2.099-1.614,2.604-1.366.525.258-1.539,5.65-1.039,5.907.52.268,2.952-3.123,3.445-2.855.514.279-2.027,5.923-1.541,6.202.507.292,5.41-6.862,5.888-6.57.499.306-2.067,5.5-1.599,5.806.49.321,2.066-1.021,2.523-.699.48.338,2.7-1.609,3.144-1.27.466.356-1.041,3.276-.612,3.633.452.376-2.672,4.63-2.26,5.008.433.397.957.293,1.348.692.41.418,7.567-5.431,7.934-5.009.384.44-5.669,6.142-5.329,6.587.354.463-1.118,1.81-.808,2.278.321.484,6.265-2.698,6.543-2.208.285.503.987.868,1.231,1.379.248.52,1.962.551,2.171,1.079.211.533-1.287,1.813-1.111,2.355s-3.262,2.103-3.116,2.656c.145.55,4.464.082,4.584.644.118.555-5.592,2.174-5.495,2.741.095.558-1.308,1.189-1.229,1.759.077.56,6.196.301,6.261.874.064.562-1.352,1.279-1.297,1.853.054.563,2.102.948,2.151,1.523.049.564,4.072.811,4.12,1.388.046.564-.074,1.142-.026,1.719.038.45-7.346,1.56-7.308,2.244.028.506,7.832.701,7.86,1.329.023.527-7.457,1.412-7.433,2.021.021.538,5.935.897,5.956,1.497.019.544-1.917,1.184-1.899,1.777.017.548,2.375,1.052,2.392,1.64.016.551-9.688,1.391-9.672,1.976.015.553.244,1.108.259,1.691.014.555.104,1.115.118,1.696.014.557.135,1.117.149,1.697.013.558,3.543,1.043,3.556,1.622.013.559-.587,1.14-.574,1.718.012.56,6.185.998,6.197,1.575.012.561-2.934,1.193-2.923,1.77.011.562,2.685,1.079,2.697,1.655.011.562-8.879,1.305-8.868,1.881.011.563,9.174.958,9.185,1.533.011.563,2.038,1.098,2.049,1.673.01.564.097,1.134.108,1.709.01.564.159,1.134.169,1.708.01.565-11.26,1.33-11.25,1.905.01.565,8.154.996,8.164,1.57.01.565-2.512,1.178-2.502,1.752.009.566.639,1.125.649,1.699.009.566,3.858,1.075,3.867,1.648.009.566-1.545,1.162-1.536,1.735.009.564-.385,1.139-.377,1.71.009.565-3.164,1.182-3.155,1.753.009.565-3.134,1.18-3.125,1.751.008.565,8.538,1.007,8.546,1.578.008.566-9.231,1.27-9.223,1.841.008.566,7.2,1.03,7.208,1.601.008.566-2.49,1.171-2.482,1.742.008.566,4.586,1.071,4.594,1.642.008.567-1.457,1.157-1.449,1.728.008.567-1.973,1.164-1.965,1.735.008.567-.455,1.143-.447,1.714.008.567-4.704,1.2-4.696,1.771.008.568,9.381,1.012,9.389,1.583.008.568-6.726,1.226-6.718,1.797.007.568,6.366,1.055,6.374,1.626.007.568-7.782,1.239-7.774,1.809s4.409,1.082,4.417,1.652-.956,1.151-.949,1.721-1.838,1.162-1.831,1.732-3,1.176-2.993,1.747.044,1.138.051,1.709c.007.568,5.215,1.073,5.222,1.642s-6.896,1.22-6.889,1.79,2.039,1.112,2.046,1.682,1.886,1.115,1.893,1.685,2.739,1.106,2.746,1.676,3.072,1.103,3.079,1.673-8.966,1.243-8.959,1.814,8.396,1.043,8.403,1.613-8.921,1.241-8.914,1.811,8.401,1.044,8.407,1.614-2.048,1.164-2.042,1.734-3.151,1.176-3.145,1.747-1.68,1.16-1.674,1.731,4.167,1.096,4.173,1.668-5.104,1.199-5.098,1.77,4.066,1.098,4.072,1.669,4.426,1.095,4.432,1.666,2.5,1.116,2.506,1.687-8.618,1.235-8.612,1.806,6.44,1.075,6.446,1.646-5.841,1.205-5.835,1.776,7.432,1.066,7.438,1.637-4.481,1.191-4.475,1.762-.272,1.147-.266,1.718-5.856,1.204-5.85,1.775,2.771,1.116,2.777,1.687,3.595,1.108,3.601,1.679-4.866,1.194-4.86,1.765,8.607,1.059,8.613,1.63-6.488,1.21-6.483,1.781,4.578,1.1,4.584,1.671-3.83,1.183-3.825,1.754-3.747,1.182-3.742,1.753c.006.574,9.273,1.055,9.278,1.626.006.574-1.993,1.165-1.987,1.736.006.574-3.203,1.177-3.197,1.747.006.574,6.808,1.081,6.813,1.651.005.574-9.73,1.239-9.724,1.809.005.574-.193,1.148-.187,1.718.005.574,5.352,1.096,5.357,1.665.005.574-4.28,1.186-4.275,1.756.005.574,4.316,1.106,4.321,1.675.005.574-1.504,1.16-1.498,1.729.005.574,2.751,1.121,2.756,1.69.005.574-.494,1.151-.489,1.719.005.574-4.644,1.188-4.639,1.757.005.575,4.307,1.107,4.313,1.675.005.575-4.527,1.187-4.522,1.755.005.575-1.729,1.161-1.724,1.729.005.575,4.027,1.11,4.032,1.677.005.575-2.285,1.166-2.28,1.733.005.575-.167,1.147-.162,1.713.005.575,3.864,1.111,3.869,1.677.005.575.761,1.139.766,1.704.005.575,3.862,1.112,3.867,1.676.005.575-1.972,1.162-1.967,1.726.005.575.208,1.143.212,1.707.005.575-4.092,1.18-4.088,1.742.005.576,3.405,1.116,3.41,1.679.005.577,2.464,1.126,2.469,1.688.005.578-1.727,1.162-1.723,1.724.005.578-.61,1.154-.605,1.715.005.579,2.25,1.131,2.255,1.692.005.58-7.126,1.209-7.121,1.769.005.581.214,1.149.219,1.707.005.582,2.4,1.132,2.405,1.688.005.583-5.291,1.195-5.286,1.749.005.585,6.704,1.1,6.709,1.653.005.588,3.163,1.133,3.167,1.682.005.591-2.386,1.179-2.381,1.725.005.599-1.445,1.18-1.441,1.721.005.607,3.293,1.151,3.298,1.682.005.621-6.828,1.242-6.824,1.755.005.66,6.449,1.18,6.452,1.654.009,1.112-6.254-.862-6.254-.862-.673.529-1.715-.798-2.389-.27s-.79.379-1.464.908,5.398,8.261,4.724,8.79-4.089-3.821-4.762-3.292,2.442,4.496,1.768,5.025-4.402-4.22-5.076-3.691,1.211,2.929.537,3.458,1.546,3.356.872,3.885-6.33-6.675-7.005-6.145c-.671.527-1.174-.114-1.844.412s6.159,9.224,5.488,9.751-3.357-2.895-4.028-2.368-2.238-1.47-2.909-.943-3.562-3.155-4.233-2.628,4.803,7.499,4.132,8.026-3.585-3.184-4.256-2.657-2.126-1.326-2.798-.799,4.706,7.375,4.034,7.903-5.953-6.199-6.625-5.671,3.629,6.006,2.957,6.533-2.856-2.253-3.528-1.725,1.538,3.344.866,3.872-4.564-4.427-5.236-3.899c-.673.528,3.9,6.353,3.227,6.881s-1.921-1.061-2.595-.532-4.937-4.901-5.611-4.372,2.341,4.369,1.667,4.898-2.003-1.162-2.677-.632-2.124-1.317-2.799-.787,4.601,7.247,3.927,7.777-1.825-.937-2.498-.407-3.888-3.565-4.562-3.037,2.451,4.507,1.777,5.036-2.416-1.692-3.089-1.163-3.439-2.995-4.112-2.466,2.792,4.94,2.119,5.468-4.77-4.69-5.442-4.162,3.81,6.237,3.138,6.765-4.955-4.927-5.627-4.399,6.466,9.619,5.794,10.146-3.074-2.532-3.746-2.004-1.481-.503-2.153.025c-.672.528.795,2.396.123,2.924s-5.161-5.189-5.833-4.661c-.672.528,4.108,6.616,3.436,7.144s-1.995-1.156-2.668-.628-2.368-1.631-3.041-1.103,2.655,4.767,1.982,5.295-5.338-5.413-6.011-4.885,3.713,6.116,3.04,6.644-1.993-1.151-2.666-.622-1.788-.89-2.462-.361,2.892,5.071,2.217,5.6-6.014-6.27-6.689-5.74,4.829,7.54,4.153,8.07c-.675.53-6.923-7.428-7.598-6.899s.262,1.723-.412,2.252-.411.864-1.085,1.393,4.498,7.116,3.824,7.645-3.891-3.568-4.564-3.04-.433.834-1.107,1.363-4.714-4.617-5.387-4.089,1.331,3.082.658,3.61c-.673.529,3.555,5.914,2.882,6.442s-.068,1.299-.741,1.828-.66.546-1.333,1.074-7.574-8.26-8.247-7.731,2.057,4.007,1.384,4.536-2.222-1.443-2.896-.913,2.034,3.978,1.36,4.508-3.125-2.592-3.8-2.062-1.53-.559-2.205-.03-.206,1.129-.881,1.659,3.907,6.366,3.232,6.896-6.085-6.361-6.76-5.831,1.443,3.226.768,3.756c-.674.529,3.676,6.07,3.002,6.6s-.254,1.064-.928,1.593-4.893-4.844-5.567-4.314-1.688-.762-2.362-.233,1.249,2.978.575,3.508-3.683-3.303-4.358-2.774,1.356,3.116.682,3.645.494,2.017-.181,2.547-.607.617-1.282,1.147-3.752-3.388-4.428-2.857,3.184,5.445,2.508,5.976c-.675.53.807,2.418.132,2.948s-5.191-5.222-5.866-4.692-1.019.092-1.693.621c-.674.53,4.802,7.504,4.127,8.033s-2.557-1.868-3.232-1.339-5.656-5.815-6.331-5.285,3.046,5.268,2.371,5.798.631,2.193-.045,2.724-5.294-5.351-5.97-4.821,2.155,4.135,1.479,4.665,1.344,3.102.669,3.632-3.974-3.672-4.649-3.142,1.867,3.767,1.192,4.296-1.297-.262-1.972.268c-.675.53-1.86-.979-2.535-.448s.82,2.435.144,2.966-.5.755-1.175,1.286-4.121-3.858-4.796-3.328,2.366,4.404,1.691,4.934-1.486-.507-2.159.022-1.554-.594-2.227-.066.603,2.153-.07,2.681-3.671-3.289-4.344-2.761c-.674.529,5.011,7.768,4.337,8.297-.674.529-2.318-1.564-2.993-1.035-.675.53.808,2.419.133,2.95s-2.557-1.864-3.234-1.332-2.603-1.925-3.279-1.394c-.675.53,3.345,5.649,2.67,6.179s-1.113-.029-1.787.5-2.8-2.177-3.474-1.648-2.877-2.274-3.552-1.744c-.676.531,4.097,6.609,3.421,7.14s-1.067.035-1.743.566-1.325-.296-2,.234-.894.252-1.569.783-1.656-.718-2.331-.187-4.859-4.795-5.535-4.263,3.557,5.924,2.881,6.455,1.541,3.355.865,3.886-1.778-.872-2.455-.341,1.095,2.789.418,3.32-7.874-8.635-8.55-8.104,5.761,8.731,5.083,9.263-5.374-5.45-6.051-4.919,4.221,6.77,3.544,7.302-.931.206-1.606.736-3.635-3.238-4.311-2.708.921,2.568.243,3.1-3.629-3.229-4.306-2.698,2.568,4.666,1.891,5.198.708,2.298.029,2.831-3.458-3.01-4.136-2.478,1.788,3.675,1.109,4.209-3.311-2.302-4.03-2.783c-2.37-1.582-3.504-3.963-4.257-3.539Z" style="fill: #fff;"/>
    <path d="M267.691,454.177c-.741.418,2.402,10.124,1.292,10.179-.474.023-1.521-9.792-2.18-9.761-.514.025-.858,4.752-1.479,4.781-.53.025-1.122-.481-1.726-.453-.539.025-.856,5.65-1.451,5.676-.545.024-1.473-8.078-2.063-8.052-.549.024-.747,8.6-1.333,8.626-.552.024-1.365-5.642-1.949-5.617-.554.023-1.033,2.207-1.616,2.232-.556.023-1.165-.917-1.746-.893-.557.023-1.382-6.362-1.961-6.339-.558.022-.793,8.461-1.371,8.484-.559.022-1.418-7.462-1.995-7.44-.56.021-.865,6.953-1.441,6.975-.56.021-1.202-1.91-1.777-1.889-.561.021-1.086,1.233-1.66,1.253-.561.02-1.091,1.156-1.665,1.177-.562.02-1.266-3.824-1.839-3.805-.562.019-1.085,1.342-1.658,1.361-.563.019-.999,4.017-1.572,4.036-.563.019-1.361-6.963-1.934-6.945-.564.018-1.157-.828-1.729-.81-.564.018-.983,4.773-1.555,4.791-.564.017-1.094,1.327-1.666,1.345-.565.017-1.104,1.073-1.676,1.09-.565.017-1.103,1.18-1.675,1.197-.565.016-1.344-7.41-1.916-7.394-.565.016-.978,5.725-1.549,5.74-.566.015-1.351-8.153-1.922-8.138-.566.015-1.024,4.21-1.595,4.224-.566.014-1.159-.987-1.73-.973-.566.014-.967,7.048-1.537,7.062-.567.013-1.233-4.075-1.804-4.062-.567.013-1.256-5.403-1.827-5.391-.565.012-1.034,4.436-1.603,4.448-.565.012-1.044,4.383-1.613,4.395-.566.011-1.187-2.589-1.756-2.578s-1.162-1.454-1.731-1.444-1.223-5.075-1.792-5.065-1.042,5.333-1.611,5.342-1.119,1.088-1.688,1.097-1.104,2.254-1.674,2.263-1.253-8.354-1.822-8.346-1.018,9.077-1.587,9.084-1.142-.249-1.711-.243-1.212-6.98-1.781-6.974-1.126.719-1.695.725-1.121,1.691-1.69,1.695-1.164-3.824-1.733-3.82-1.099,5.904-1.669,5.907-1.132,1.956-1.702,1.959-1.17-7.74-1.739-7.738-1.122,6.267-1.692,6.268-1.143.42-1.713.42-1.144-.992-1.714-.992-1.14-1.725-1.71-1.726-1.162,5.836-1.733,5.834-1.11-8.242-1.68-8.245-1.122-2.577-1.692-2.581-1.207,8.805-1.777,8.8-1.142-.442-1.711-.448-1.112-2.968-1.681-2.975-1.209,5.112-1.777,5.104-.999-10.052-1.568-10.061-1.243,6.57-1.811,6.56-1.014-6.933-1.582-6.944c-.571-.011-1.25,5.715-1.818,5.703-.571-.012-1.075-2.927-1.643-2.941-.571-.013-1.067-2.766-1.634-2.78-.571-.014-1.411,10.203-1.978,10.188-.571-.016-1.136-.62-1.703-.637-.571-.017-.839-9.663-1.406-9.681-.571-.019-1.393,7.544-1.96,7.524-.571-.02-.947-5.326-1.513-5.348-.571-.022-1.193,1.436-1.758,1.413-.572-.023-1.4,5.964-1.966,5.939-.572-.025-1.051-2.275-1.617-2.302-.572-.027-.946-4.075-1.511-4.104-.572-.029-1.003-2.502-1.568-2.533-.573-.031-1.355,3.88-1.92,3.847-.574-.033-1.485,5.401-2.051,5.365-.574-.036-1.144-.43-1.709-.468-.574-.038-.989-2.567-1.554-2.607-.574-.041-.857-3.977-1.42-4.021-.573-.044-1.477,4.073-2.039,4.027-.573-.047-1.019-1.663-1.58-1.713-.573-.051-.664-5.194-1.224-5.247-.573-.054-1.525,3.929-2.084,3.872-.574-.059-1.713,5.057-2.271,4.996-.574-.063-.431-6.484-.988-6.55-.574-.068-.901-1.906-1.457-1.977-.574-.074-2.017,6.318-2.571,6.24-.573-.081-.269-6.121-.819-6.206-.575-.088-1.691,3.293-2.24,3.2-.575-.097-1.289.498-1.835.396-.574-.107-1.377.751-1.918.637-.573-.12-.932-1.413-1.467-1.54-.572-.135-1.077-.672-1.604-.814-.571-.155.375-5.202-.14-5.366-.553-.176-2.398,3.686-2.941,3.502-.55-.186-2.104,2.408-2.644,2.214-.546-.196,2.233-9.324,1.697-9.528-.543-.206-3.436,5.753-3.968,5.539-.538-.216.443-4.036-.085-4.26-.534-.227-.292-2.02-.815-2.255-.53-.237-3.735,5.435-4.254,5.19-.525-.248-2.396,2.152-2.91,1.897-.519-.258,3.071-8.556,2.562-8.822-.514-.269-.437-1.403-.94-1.68-.509-.28-1.615.719-2.112.431-.502-.291-5.457,6.917-5.947,6.619-.496-.302,4.449-9.296,3.966-9.605-.489-.312-2.106,1.291-2.582.971-.481-.323-.624-.986-1.093-1.316-.474-.334-6.472,6.965-6.933,6.624-.466-.344,1.23-3.679.777-4.03-.458-.355-2.029.598-2.474.236-.449-.366-1.532-.112-1.968-.485-.441-.376-1.051-.715-1.479-1.098-.432-.386,2.135-4.121,1.717-4.513-.422-.397-4.313,2.727-4.721,2.324-.413-.407,1.283-3.016.884-3.428-.403-.417.639-2.224.251-2.646-.392-.426-4.374,2.295-4.752,1.863-.381-.436,4.805-5.657,4.438-6.099-.371-.445-4.965,2.538-5.321,2.088-.359-.454,4.733-5.091,4.388-5.55-.348-.463-.736-.771-1.069-1.238-.336-.471.216-1.422-.105-1.898-.324-.479-7.763,3.739-8.072,3.256-.312-.488,5.692-4.898,5.395-5.389-.299-.495-8.249,3.483-8.533,2.984-.287-.503.493-1.723.221-2.229-.274-.51,7.263-5.065,7.005-5.578-.261-.517-.004-1.134-.25-1.653-.247-.523-1.914-.264-2.146-.789-.233-.529-7.952,2.123-8.17,1.592-.22-.535-.583-1.134-.787-1.67-.206-.541,1.023-1.706.833-2.247-.191-.546,3.281-2.346,3.105-2.892-.177-.551-2.423-.468-2.583-1.018-.162-.556.233-1.288.087-1.843-.147-.559-5.037-.022-5.168-.579-.132-.563,6.235-2.614,6.119-3.175-.096-.467-6.21-.148-6.297-.807-.068-.511,3.599-1.612,3.536-2.234-.054-.53,2.21-1.311,2.16-1.919-.044-.539-2.319-.938-2.361-1.536-.038-.544-.467-1.1-.503-1.692-.033-.549,3.911-1.336,3.88-1.925-.029-.552,2.885-1.242,2.857-1.828-.026-.554-2.071-1.013-2.095-1.598-.023-.556-9.4-.766-9.421-1.349-.021-.558,3.344-1.262,3.325-1.844-.019-.559,1.597-1.187,1.579-1.768-.017-.561-2.049-1.079-2.064-1.659-.015-.562.235-1.146.221-1.726-.014-.562-1.211-1.113-1.224-1.692-.013-.563-.319-1.136-.33-1.715-.011-.564.111-1.145.1-1.724-.01-.564,3.898-1.207,3.889-1.785-.009-.565,5.195-1.214,5.186-1.791-.008-.565-6.012-1.049-6.019-1.626-.008-.566,1.445-1.156,1.438-1.733-.007-.566-3.311-1.102-3.317-1.679-.006-.567,3.07-1.17,3.065-1.747-.005-.567,4.373-1.173,4.368-1.75-.005-.567-2.594-1.116-2.598-1.692-.004-.567,1.208-1.144,1.205-1.72-.003-.568-2.627-1.123-2.629-1.699-.003-.568-.729-1.136-.731-1.712-.002-.568,1.814-1.145,1.812-1.721-.002-.568-4.761-1.129-4.763-1.704-.001-.568,3.398-1.147,3.397-1.722,0-.569-3.143-1.139-3.143-1.714,0-.569,6.527-1.14,6.527-1.715,0-.569.763-1.137.764-1.712,0-.569-8.891-1.155-8.889-1.73.001-.569,7.301-1.124,7.302-1.699.002-.569-3.671-1.151-3.669-1.726.002-.567-.171-1.137-.168-1.709.002-.567-.541-1.14-.538-1.712.003-.567-2.381-1.151-2.378-1.722.003-.568,2.539-1.124,2.542-1.696.003-.568,2.761-1.12,2.764-1.692.004-.568-3.841-1.164-3.837-1.736.004-.568.618-1.135.623-1.707.004-.568-1.164-1.149-1.159-1.721.005-.568,6.206-1.085,6.211-1.657.005-.569-5.565-1.189-5.559-1.761.005-.569-2.568-1.166-2.563-1.738.006-.569,6.803-1.071,6.809-1.643.006-.569-1.459-1.155-1.453-1.727.006-.569,2.242-1.114,2.248-1.686s-4.852-1.197-4.846-1.769-1.307-1.158-1.3-1.73,2.103-1.115,2.11-1.687,3.445-1.095,3.452-1.667,1.039-1.126,1.047-1.698.909-1.127.917-1.699-2.221-1.172-2.213-1.745,2.481-1.103,2.489-1.675-9.121-1.283-9.112-1.855,9.707-.988,9.717-1.56-2.569-1.182-2.559-1.755-4.023-1.21-4.013-1.782,4.848-1.059,4.858-1.631,2.619-1.094,2.629-1.667-10.329-1.327-10.318-1.898-1.157-1.164-1.146-1.735.555-1.133.566-1.704,5.08-1.044,5.091-1.616.467-1.132.479-1.704.333-1.135.344-1.706,4.617-1.046,4.629-1.618-8.198-1.314-8.185-1.886,6.117-1.012,6.13-1.584,1.572-1.107,1.584-1.679.369-1.133.382-1.705-9.665-1.362-9.652-1.934.042-1.144.055-1.715,10.057-.908,10.07-1.479-2.859-1.21-2.846-1.782-1.633-1.183-1.619-1.755-1.073-1.171-1.059-1.743-1.37-1.18-1.355-1.752,6.638-.976,6.653-1.548-1.749-1.19-1.734-1.762,1.724-1.099,1.739-1.672-7.605-1.35-7.59-1.923-.067-1.15-.051-1.723,4.213-1.03,4.229-1.603-1.021-1.175-1.004-1.747,3.131-1.057,3.148-1.629,2.505-1.072,2.522-1.645-6.173-1.326-6.156-1.899-1.989-1.207-1.971-1.779-1.312-1.188-1.294-1.76,4.926-.997,4.944-1.57-4.841-1.298-4.823-1.87,5.43-.977,5.448-1.55-1.212-1.186-1.194-1.758c.018-.573,2.61-1.062,2.629-1.635s1.181-1.107,1.199-1.68-7.481-1.397-7.462-1.969,4.86-.984,4.88-1.557-1.844-1.211-1.824-1.783-5.128-1.328-5.108-1.9.901-1.119.921-1.691-.669-1.175-.649-1.747,3.792-1.013,3.813-1.585-3.475-1.278-3.453-1.85,6.148-.921,6.17-1.493-2.164-1.231-2.142-1.803-2.566-1.249-2.544-1.82,8.812-.806,8.834-1.378-3.349-1.279-3.326-1.851-6.028-1.391-6.005-1.963,1.771-1.079,1.795-1.651-.932-1.189-.908-1.761,5.324-.927,5.348-1.499c.024-.574-4.044-1.321-4.019-1.892.025-.574.049-1.149.074-1.72.025-.574-1.794-1.23-1.769-1.801.025-.574-.229-1.162-.204-1.733.026-.574,6.797-.844,6.823-1.415.026-.574,1.833-1.063,1.859-1.634.026-.574-.018-1.147.009-1.718.027-.574-7.865-1.521-7.838-2.091.027-.574,3.439-.986,3.466-1.556.028-.574-3.534-1.323-3.506-1.893.028-.574,3.893-.958,3.922-1.528.029-.574-1.613-1.232-1.584-1.801.029-.574,6.284-.826,6.314-1.396.03-.574-.476-1.171-.447-1.74.03-.574-6.666-1.503-6.636-2.071.031-.574,4.489-.908,4.52-1.476.031-.574-5.153-1.434-5.122-2.002.032-.574,1.971-1.042,2.003-1.61.032-.574.377-1.13.409-1.697.033-.574.817-1.103.851-1.67.034-.574.661-1.111.695-1.678.034-.574,3.318-.946,3.353-1.513.035-.574.977-1.084,1.013-1.651.036-.574,2.432-.989,2.468-1.555.037-.574-10.552-1.831-10.515-2.397.038-.575,10.405-.462,10.443-1.028.038-.575-4.324-1.438-4.285-2.004.039-.575-3.196-1.374-3.156-1.939.04-.575,7.341-.627,7.381-1.192.041-.575-8.62-1.78-8.578-2.345.043-.577,7.574-.586,7.617-1.151.044-.576.196-1.13.241-1.694.045-.576-.324-1.17-.278-1.733.047-.576,1.883-.986,1.93-1.548.048-.576-6.701-1.718-6.653-2.28.05-.577-3.356-1.461-3.306-2.023.052-.578,4.473-.758,4.526-1.319.054-.578,6.037-.574,6.092-1.134.056-.579-2.464-1.385-2.408-1.943.059-.579.449-1.097.508-1.653.062-.581-2.298-1.403-2.236-1.959.065-.582,4.324-.646,4.389-1.2.069-.582-3.831-1.615-3.761-2.165.074-.584,4.376-.561,4.451-1.107.08-.585-3.694-1.663-3.613-2.205.088-.588,2.88-.681,2.969-1.216.094-.567-2.175-1.516-2.081-2.073.096-.567-5.399-2.095-5.302-2.651.099-.566,7.527.163,7.627-.393.101-.566-6.484-2.335-6.383-2.89.104-.565,4.481-.338,4.585-.892.106-.565-2.765-1.695-2.658-2.249.109-.564.392-1.1.502-1.653.112-.564,4.899-.173,5.012-.725.116-.563-5.005-2.214-4.888-2.765.119-.563,4.316-.244,4.436-.794.123-.562.118-1.136.243-1.685.128-.562,1.82-.737,1.949-1.285.132-.561-3.837-2.09-3.703-2.637.137-.56,5.913.309,6.051-.236.142-.559-6.241-2.789-6.097-3.334.148-.557-.134-1.249.015-1.791.154-.556,1.875-.682,2.031-1.222.16-.554-.688-1.417-.525-1.955.167-.552-3.058-2.201-2.888-2.736.175-.55,7.275,1.134,7.453.602.183-.547-4.239-2.677-4.053-3.206.192-.544-.228-1.366-.033-1.892.201-.541,6.448,1.229,6.654.707.212-.538-1.75-1.915-1.534-2.433.223-.533-.422-1.436-.194-1.949.235-.528-2.317-2.392-2.076-2.898.249-.522.621-1.085.876-1.585.263-.515,6.452,2.107,6.722,1.615.278-.506-4.351-3.789-4.065-4.271.294-.497,1.094-.767,1.396-1.239.31-.485-.38-1.75-.06-2.211.328-.473,1.903-.163,2.242-.611.347-.459,2.175.209,2.533-.225.366-.443,4.941,2.924,5.319,2.506.384-.425-5.368-6.563-4.97-6.964.403-.406.052-1.825.469-2.207.421-.385.069-2,.505-2.362.438-.364,4.821,4.081,5.275,3.739s1.025-.449,1.495-.769,2.857,2.555,3.341,2.256c.481-.297.924-.255,1.422-.533.493-.276-2.619-7.219-2.109-7.478.503-.255,2.776,3.082,3.295,2.843.512-.236.317-2.045.846-2.267.519-.218,3.158,5.027,3.694,4.821.419-.161-.663-4.027.011-4.188.492-.118.606-2.223,1.229-2.341.518-.098,1.784,4.086,2.39,3.989.531-.085-.267-9.277.33-9.362.54-.077,1.694,3.846,2.286,3.769.545-.07,1.003-1.165,1.591-1.235.548-.065,2.009,7.729,2.594,7.664.551-.061.394-6.713.977-6.774.553-.058.689-4.537,1.269-4.595.555-.055,1.801,6.816,2.381,6.761.557-.052.857-3.021,1.436-3.073.558-.05,1.231,1.044,1.81.995.559-.048,1.577,5.294,2.155,5.246.56-.047.266-10.705.844-10.752.561-.045,1.739,7.574,2.316,7.53.562-.043.615-6.929,1.192-6.972.563-.042,1.286,1.881,1.862,1.839.563-.041,1.413,3.819,1.989,3.778.563-.04,1.005-1.926,1.58-1.965.564-.039,1.213,1.099,1.789,1.06.564-.038,1.098-.61,1.673-.647.564-.037,1.105-.544,1.679-.581.565-.036,1.057-1.345,1.631-1.381.565-.035,1.502,5.97,2.076,5.935.565-.034,1.051-1.398,1.625-1.432.566-.033,1.047-1.541,1.621-1.574.566-.033.965-3.059,1.539-3.091.566-.032,1.127-.262,1.701-.294.566-.031,1.001-2.591,1.575-2.622.566-.031,1.558,7.808,2.132,7.778.567-.03.766-7.122,1.339-7.152.567-.029,1.435,5.725,2.008,5.695.567-.029,1.173.697,1.746.669.567-.028,1.28,2.909,1.853,2.881.567-.028.985-3.111,1.558-3.138.567-.027.756-8.092,1.329-8.119.568-.027,1.474,7.107,2.047,7.081.568-.026,1.283,3.174,1.856,3.148.568-.026.986-3.361,1.559-3.386.568-.025.995-3.268,1.568-3.293.568-.025,1.061-1.875,1.633-1.9.568-.025,1.451,7.27,2.024,7.246.568-.024.713-10.191,1.286-10.215.568-.024,1.451,7.467,2.023,7.444.568-.023,1.258,2.945,1.831,2.922.569-.023,1.107-.776,1.68-.799.569-.022,1.158.503,1.73.481.569-.022.912-5.935,1.484-5.957.569-.022,1.174.838,1.746.816.569-.021,1.03-3.03,1.602-3.052.567-.021,1.459,8.813,2.03,8.793.567-.021,1.072-1.761,1.642-1.781.567-.02,1.072-1.805,1.643-1.825.568-.02.964-5.036,1.534-5.055s1.102-1.13,1.672-1.149,1.454,9.42,2.025,9.401.94-5.983,1.511-6.002,1.145.184,1.716.166.982-4.977,1.553-4.995,1.353,6.791,1.924,6.773,1.236,3.2,1.807,3.183,1.171,1.143,1.742,1.126.892-8.329,1.463-8.346,1.345,7.06,1.916,7.044,1.002-4.783,1.573-4.799,1.067-2.658,1.638-2.674,1.308,6.114,1.879,6.098.966-6.49,1.537-6.505,1.183,1.554,1.754,1.539,1.16.707,1.731.692,1.243,4.056,1.815,4.042,1.083-2.301,1.654-2.315,1.083-2.404,1.654-2.418,1.248,4.506,1.82,4.492,1.12-.864,1.691-.878.992-6.554,1.564-6.566,1.238,4.266,1.81,4.253,1.125-.788,1.696-.801,1.229,4.109,1.801,4.097,1.025-5.524,1.595-5.536,1.203,3.074,1.774,3.063,1.039-5.157,1.61-5.169,1.202,3.113,1.773,3.102,1.203,3.311,1.774,3.3,1.176,1.966,1.747,1.955,1.092-2.722,1.663-2.732,1.047-5.503,1.618-5.512,1.126-1.107,1.697-1.117,1.17,1.536,1.741,1.527,1.238,6.036,1.81,6.028,1.108-2.222,1.679-2.231,1.061-5.612,1.632-5.62,1.246,7.083,1.817,7.075,1.048-6.975,1.619-6.982,1.174,2.174,1.746,2.167,1.205,4.749,1.777,4.741,1.192,4.006,1.764,3.999,1.024-10.25,1.596-10.257,1.172,2.238,1.744,2.231,1.182,3.47,1.754,3.464,1.084-5.96,1.657-5.965,1.171,2.507,1.743,2.501,1.164,2.076,1.736,2.071,1.112-3.928,1.684-3.933,1.13-2.154,1.703-2.158,1.171,3.039,1.743,3.035,1.158,1.672,1.73,1.668,1.157,1.803,1.73,1.8,1.153,1.436,1.726,1.432,1.155,2.151,1.728,2.148,1.103-9.204,1.675-9.206,1.145-.941,1.718-.943,1.162,3.941,1.735,3.939,1.142-2.191,1.714-2.193,1.149.013,1.721.012,1.164,10.023,1.736,10.022,1.133-11.767,1.705-11.768,1.153,9.196,1.725,9.196,1.147-5.721,1.719-5.721,1.14,8.018,1.713,8.019,1.15-4.12,1.723-4.119,1.145.242,1.718.243,1.162-5.362,1.734-5.361,1.138,3.089,1.711,3.091,1.165-4.05,1.737-4.048,1.15.126,1.722.129,1.096,9.506,1.668,9.509,1.213-10.703,1.785-10.7,1.115,5.155,1.687,5.159,1.178-3.763,1.75-3.758,1.107,5.054,1.679,5.059,1.135,1.228,1.708,1.233,1.219-7.156,1.791-7.15,1.118,3.114,1.69,3.12,1.147.182,1.719.189,1.159-.769,1.731-.762,1.092,4.335,1.663,4.343,1.106,2.847,1.677,2.856,1.15-.412,1.722-.403,1.162-1.135,1.734-1.126,1.143.099,1.715.108c.574.01,1.28-7.545,1.852-7.535.574.01,1.031,6.426,1.602,6.437.574.011,1.224-3.927,1.795-3.916.574.011,1.144.268,1.715.28.574.012,1.112,1.718,1.683,1.731.574.013,1.238-3.928,1.809-3.915.574.013.97,7.563,1.541,7.576.574.014,1.244-3.983,1.815-3.969.574.015,1.016,5.001,1.587,5.016.574.015,1.24-3.541,1.81-3.526.574.016,1.322-6.066,1.892-6.05.574.017,1.117,1.256,1.686,1.273.574.017,1.199-1.474,1.769-1.456.574.018,1.138.53,1.707.549.574.019.848,8.963,1.418,8.983.574.02,1.348-5.798,1.917-5.778.574.02,1.202-1.387,1.771-1.366.574.021,1.142.28,1.711.302.574.022.882,6.711,1.451,6.734.574.023,1.047,2.247,1.615,2.27.574.024,1.469-7.584,2.037-7.559.574.025,1.157-.128,1.724-.102.574.026,1.259-2.266,1.826-2.239.574.027.774,7.733,1.34,7.761.574.028,1.523-7.418,2.089-7.389.574.03.653,9.361,1.219,9.392.574.031,1.244-1.933,1.809-1.901.573.032,1.138.032,1.703.065.573.034,1.175-.58,1.739-.546.573.035,1.359-3.421,1.923-3.385.574.037.721,6.448,1.285,6.486.574.038,1.451-4.571,2.015-4.532.574.04,1.289-1.944,1.853-1.903.574.042.973,2.38,1.536,2.423.575.044.725,5.272,1.288,5.317.575.046,1.932-9.552,2.495-9.504.575.048,1.35-2.043,1.911-1.994.575.051,1.053,1.367,1.614,1.419.575.054.719,4.644,1.279,4.699.575.057.545,5.842,1.104,5.901.575.06,2.162-9.42,2.72-9.358.576.064,1.089.817,1.646.882.577.068.521,5.28,1.077,5.35.577.073,1.757-4.529,2.311-4.454.578.078,1.167.181,1.719.262.577.084-.042,7.868.506,7.955.578.091,1.834-4.266,2.38-4.172.579.1.45,3.764.992,3.867.58.111,1.875-3.666,2.412-3.552.581.124,1.482-1.204,2.011-1.076.582.141.523,2.609,1.04,2.756.583.165.977.561,1.475.733.549.19,2-2.217,2.532-2.028.547.194,1.998-2.074,2.529-1.88.545.199,1.365-.245,1.894-.046.544.205.444,2.178.97,2.382.542.211-.492,4.41.031,4.62.541.217,3.358-5.111,3.878-4.894.538.224.008,3.051.526,3.274.536.231-1.067,5.257-.553,5.488.533.239,2.882-3.555,3.392-3.316.529.248,2.099-1.614,2.604-1.366.525.258-1.539,5.65-1.039,5.907.52.268,2.952-3.123,3.445-2.855.514.279-2.027,5.923-1.541,6.202.507.292,5.41-6.862,5.888-6.57.499.306-2.067,5.5-1.599,5.806.49.321,2.066-1.021,2.523-.699.48.338,2.7-1.609,3.144-1.27.466.356-1.041,3.276-.612,3.633.452.376-2.672,4.63-2.26,5.008.433.397.957.293,1.348.692.41.418,7.567-5.431,7.934-5.009.384.44-5.669,6.142-5.329,6.587.354.463-1.118,1.81-.808,2.278.321.484,6.265-2.698,6.543-2.208.285.503.987.868,1.231,1.379.248.52,1.962.551,2.171,1.079.211.533-1.287,1.813-1.111,2.355s-3.262,2.103-3.116,2.656c.145.55,4.464.082,4.584.644.118.555-5.592,2.174-5.495,2.741.095.558-1.308,1.189-1.229,1.759.077.56,6.196.301,6.261.874.064.562-1.352,1.279-1.297,1.853.054.563,2.102.948,2.151,1.523.049.564,4.072.811,4.12,1.388.046.564-.074,1.142-.026,1.719.038.45-7.346,1.56-7.308,2.244.028.506,7.832.701,7.86,1.329.023.527-7.457,1.412-7.433,2.021.021.538,5.935.897,5.956,1.497.019.544-1.917,1.184-1.899,1.777.017.548,2.375,1.052,2.392,1.64.016.551-9.688,1.391-9.672,1.976.015.553.244,1.108.259,1.691.014.555.104,1.115.118,1.696.014.557.135,1.117.149,1.697.013.558,3.543,1.043,3.556,1.622.013.559-.587,1.14-.574,1.718.012.56,6.185.998,6.197,1.575.012.561-2.934,1.193-2.923,1.77.011.562,2.685,1.079,2.697,1.655.011.562-8.879,1.305-8.868,1.881.011.563,9.174.958,9.185,1.533.011.563,2.038,1.098,2.049,1.673.01.564.097,1.134.108,1.709.01.564.159,1.134.169,1.708.01.565-11.26,1.33-11.25,1.905.01.565,8.154.996,8.164,1.57.01.565-2.512,1.178-2.502,1.752.009.566.639,1.125.649,1.699.009.566,3.858,1.075,3.867,1.648.009.566-1.545,1.162-1.536,1.735.009.564-.385,1.139-.377,1.71.009.565-3.164,1.182-3.155,1.753.009.565-3.134,1.18-3.125,1.751.008.565,8.538,1.007,8.546,1.578.008.566-9.231,1.27-9.223,1.841.008.566,7.2,1.03,7.208,1.601.008.566-2.49,1.171-2.482,1.742.008.566,4.586,1.071,4.594,1.642.008.567-1.457,1.157-1.449,1.728.008.567-1.973,1.164-1.965,1.735.008.567-.455,1.143-.447,1.714.008.567-4.704,1.2-4.696,1.771.008.568,9.381,1.012,9.389,1.583.008.568-6.726,1.226-6.718,1.797.007.568,6.366,1.055,6.374,1.626.007.568-7.782,1.239-7.774,1.809s4.409,1.082,4.417,1.652-.956,1.151-.949,1.721-1.838,1.162-1.831,1.732-3,1.176-2.993,1.747.044,1.138.051,1.709c.007.568,5.215,1.073,5.222,1.642s-6.896,1.22-6.889,1.79,2.039,1.112,2.046,1.682,1.886,1.115,1.893,1.685,2.739,1.106,2.746,1.676,3.072,1.103,3.079,1.673-8.966,1.243-8.959,1.814,8.396,1.043,8.403,1.613-8.921,1.241-8.914,1.811,8.401,1.044,8.407,1.614-2.048,1.164-2.042,1.734-3.151,1.176-3.145,1.747-1.68,1.16-1.674,1.731,4.167,1.096,4.173,1.668-5.104,1.199-5.098,1.77,4.066,1.098,4.072,1.669,4.426,1.095,4.432,1.666,2.5,1.116,2.506,1.687-8.618,1.235-8.612,1.806,6.44,1.075,6.446,1.646-5.841,1.205-5.835,1.776,7.432,1.066,7.438,1.637-4.481,1.191-4.475,1.762-.272,1.147-.266,1.718-5.856,1.204-5.85,1.775,2.771,1.116,2.777,1.687,3.595,1.108,3.601,1.679-4.866,1.194-4.86,1.765,8.607,1.059,8.613,1.63-6.488,1.21-6.483,1.781,4.578,1.1,4.584,1.671-3.83,1.183-3.825,1.754-3.747,1.182-3.742,1.753c.006.574,9.273,1.055,9.278,1.626.006.574-1.993,1.165-1.987,1.736.006.574-3.203,1.177-3.197,1.747.006.574,6.808,1.081,6.813,1.651.005.574-9.73,1.239-9.724,1.809.005.574-.193,1.148-.187,1.718.005.574,5.352,1.096,5.357,1.665.005.574-4.28,1.186-4.275,1.756.005.574,4.316,1.106,4.321,1.675.005.574-1.504,1.16-1.498,1.729.005.574,2.751,1.121,2.756,1.69.005.574-.494,1.151-.489,1.719.005.574-4.644,1.188-4.639,1.757.005.575,4.307,1.107,4.313,1.675.005.575-4.527,1.187-4.522,1.755.005.575-1.729,1.161-1.724,1.729.005.575,4.027,1.11,4.032,1.677.005.575-2.285,1.166-2.28,1.733.005.575-.167,1.147-.162,1.713.005.575,3.864,1.111,3.869,1.677.005.575.761,1.139.766,1.704.005.575,3.862,1.112,3.867,1.676.005.575-1.972,1.162-1.967,1.726.005.575.208,1.143.212,1.707.005.575-4.092,1.18-4.088,1.742.005.576,3.405,1.116,3.41,1.679.005.577,2.464,1.126,2.469,1.688.005.578-1.727,1.162-1.723,1.724.005.578-.61,1.154-.605,1.715.005.579,2.25,1.131,2.255,1.692.005.58-7.126,1.209-7.121,1.769.005.581.214,1.149.219,1.707.005.582,2.4,1.132,2.405,1.688.005.583-5.291,1.195-5.286,1.749.005.585,6.704,1.1,6.709,1.653.005.588,3.163,1.133,3.167,1.682.005.591-2.386,1.179-2.381,1.725.005.599-1.445,1.18-1.441,1.721.005.607,3.293,1.151,3.298,1.682.005.621-6.828,1.242-6.824,1.755.005.66,6.449,1.18,6.452,1.654.009,1.112-6.254-.862-6.254-.862-.673.529-1.715-.798-2.389-.27s-.79.379-1.464.908,5.398,8.261,4.724,8.79-4.089-3.821-4.762-3.292,2.442,4.496,1.768,5.025-4.402-4.22-5.076-3.691,1.211,2.929.537,3.458,1.546,3.356.872,3.885-6.33-6.675-7.005-6.145c-.671.527-1.174-.114-1.844.412s6.159,9.224,5.488,9.751-3.357-2.895-4.028-2.368-2.238-1.47-2.909-.943-3.562-3.155-4.233-2.628,4.803,7.499,4.132,8.026-3.585-3.184-4.256-2.657-2.126-1.326-2.798-.799,4.706,7.375,4.034,7.903-5.953-6.199-6.625-5.671,3.629,6.006,2.957,6.533-2.856-2.253-3.528-1.725,1.538,3.344.866,3.872-4.564-4.427-5.236-3.899c-.673.528,3.9,6.353,3.227,6.881s-1.921-1.061-2.595-.532-4.937-4.901-5.611-4.372,2.341,4.369,1.667,4.898-2.003-1.162-2.677-.632-2.124-1.317-2.799-.787,4.601,7.247,3.927,7.777-1.825-.937-2.498-.407-3.888-3.565-4.562-3.037,2.451,4.507,1.777,5.036-2.416-1.692-3.089-1.163-3.439-2.995-4.112-2.466,2.792,4.94,2.119,5.468-4.77-4.69-5.442-4.162,3.81,6.237,3.138,6.765-4.955-4.927-5.627-4.399,6.466,9.619,5.794,10.146-3.074-2.532-3.746-2.004-1.481-.503-2.153.025c-.672.528.795,2.396.123,2.924s-5.161-5.189-5.833-4.661c-.672.528,4.108,6.616,3.436,7.144s-1.995-1.156-2.668-.628-2.368-1.631-3.041-1.103,2.655,4.767,1.982,5.295-5.338-5.413-6.011-4.885,3.713,6.116,3.04,6.644-1.993-1.151-2.666-.622-1.788-.89-2.462-.361,2.892,5.071,2.217,5.6-6.014-6.27-6.689-5.74,4.829,7.54,4.153,8.07c-.675.53-6.923-7.428-7.598-6.899s.262,1.723-.412,2.252-.411.864-1.085,1.393,4.498,7.116,3.824,7.645-3.891-3.568-4.564-3.04-.433.834-1.107,1.363-4.714-4.617-5.387-4.089,1.331,3.082.658,3.61c-.673.529,3.555,5.914,2.882,6.442s-.068,1.299-.741,1.828-.66.546-1.333,1.074-7.574-8.26-8.247-7.731,2.057,4.007,1.384,4.536-2.222-1.443-2.896-.913,2.034,3.978,1.36,4.508-3.125-2.592-3.8-2.062-1.53-.559-2.205-.03-.206,1.129-.881,1.659,3.907,6.366,3.232,6.896-6.085-6.361-6.76-5.831,1.443,3.226.768,3.756c-.674.529,3.676,6.07,3.002,6.6s-.254,1.064-.928,1.593-4.893-4.844-5.567-4.314-1.688-.762-2.362-.233,1.249,2.978.575,3.508-3.683-3.303-4.358-2.774,1.356,3.116.682,3.645.494,2.017-.181,2.547-.607.617-1.282,1.147-3.752-3.388-4.428-2.857,3.184,5.445,2.508,5.976c-.675.53.807,2.418.132,2.948s-5.191-5.222-5.866-4.692-1.019.092-1.693.621c-.674.53,4.802,7.504,4.127,8.033s-2.557-1.868-3.232-1.339-5.656-5.815-6.331-5.285,3.046,5.268,2.371,5.798.631,2.193-.045,2.724-5.294-5.351-5.97-4.821,2.155,4.135,1.479,4.665,1.344,3.102.669,3.632-3.974-3.672-4.649-3.142,1.867,3.767,1.192,4.296-1.297-.262-1.972.268c-.675.53-1.86-.979-2.535-.448s.82,2.435.144,2.966-.5.755-1.175,1.286-4.121-3.858-4.796-3.328,2.366,4.404,1.691,4.934-1.486-.507-2.159.022-1.554-.594-2.227-.066.603,2.153-.07,2.681-3.671-3.289-4.344-2.761c-.674.529,5.011,7.768,4.337,8.297-.674.529-2.318-1.564-2.993-1.035-.675.53.808,2.419.133,2.95s-2.557-1.864-3.234-1.332-2.603-1.925-3.279-1.394c-.675.53,3.345,5.649,2.67,6.179s-1.113-.029-1.787.5-2.8-2.177-3.474-1.648-2.877-2.274-3.552-1.744c-.676.531,4.097,6.609,3.421,7.14s-1.067.035-1.743.566-1.325-.296-2,.234-.894.252-1.569.783-1.656-.718-2.331-.187-4.859-4.795-5.535-4.263,3.557,5.924,2.881,6.455,1.541,3.355.865,3.886-1.778-.872-2.455-.341,1.095,2.789.418,3.32-7.874-8.635-8.55-8.104,5.761,8.731,5.083,9.263-5.374-5.45-6.051-4.919,4.221,6.77,3.544,7.302-.931.206-1.606.736-3.635-3.238-4.311-2.708.921,2.568.243,3.1-3.629-3.229-4.306-2.698,2.568,4.666,1.891,5.198.708,2.298.029,2.831-3.458-3.01-4.136-2.478,1.788,3.675,1.109,4.209-3.311-2.302-4.03-2.783c-2.37-1.582-3.504-3.963-4.257-3.539Z" style="fill: none; stroke: #000; stroke-linecap: round; stroke-linejoin: round; stroke-width: 40px;"/>
  </g>
  <path d="M252.329,450.632c-.041-.855,7.108-.929,7.058-2.042-.022-.478-6.361-.77-6.39-1.432-.023-.518,3.745-1.255,3.718-1.878-.023-.534-2.857-.987-2.882-1.594-.023-.543,1.613-1.184,1.589-1.783-.022-.547.069-1.121.046-1.712-.022-.551,2.799-1.232,2.776-1.82-.022-.554-6.302-.881-6.325-1.466-.021-.557-2.194-1.048-2.216-1.632-.021-.558,9.409-1.482,9.388-2.064-.021-.56-1.511-1.075-1.532-1.655-.02-.561-1.092-1.093-1.113-1.673-.02-.562,3.666-1.261,3.646-1.84-.019-.563-9.792-.801-9.812-1.379-.019-.564,10.643-1.492,10.624-2.07-.019-.565-11.592-.759-11.61-1.336-.018-.566.102-1.146.084-1.723-.018-.566,5.817-1.322,5.799-1.898-.017-.567,5.521-1.304,5.504-1.88-.017-.567-6.593-.943-6.61-1.519-.016-.568,2.125-1.201,2.109-1.776-.016-.566-3.004-1.054-3.02-1.627-.016-.567,3.337-1.228,3.322-1.801-.015-.568-7.607-.942-7.621-1.516-.015-.568,6.193-1.298,6.178-1.871-.014-.569.496-1.152.482-1.725-.014-.569-2.267-1.088-2.28-1.661-.013-.569,5.718-1.268,5.705-1.841-.012-.57-6.884-.994-6.896-1.567-.012-.57,7.55-1.295,7.539-1.868-.011-.569.532-1.144.521-1.716s-7.282-1.005-7.292-1.577.047-1.144.038-1.716-2.513-1.106-2.522-1.678,9.362-1.282,9.353-1.855-9.255-1.017-9.263-1.589-.889-1.14-.896-1.712,10.085-1.258,10.079-1.831-4.394-1.099-4.399-1.672-.279-1.144-.284-1.716,4.07-1.172,4.067-1.745.161-1.141.158-1.714-1.789-1.135-1.791-1.708-8.376-1.132-8.377-1.704,10.628-1.155,10.629-1.727c0-.576-2.146-1.144-2.145-1.716.001-.576.832-1.14.834-1.712.002-.576-7.541-1.188-7.538-1.76.004-.576-.197-1.159-.192-1.73.005-.576,6.149-1.093,6.155-1.664.006-.576,1.821-1.12,1.829-1.691.008-.576-7.811-1.261-7.802-1.831.009-.577,5.906-1.051,5.916-1.621.011-.577,3.101-1.077,3.113-1.646.012-.577-9.432-1.363-9.419-1.932.014-.577,2.144-1.103,2.16-1.671.016-.577-1.391-1.2-1.373-1.767.018-.577,8.287-.867,8.307-1.433.021-.578-.338-1.142-.315-1.708.023-.578-8.597-1.515-8.571-2.08.026-.579.603-1.144.632-1.709.029-.579,4.988-.894,5.02-1.457.033-.58-5.545-1.494-5.51-2.056.037-.58,9.572-.509,9.612-1.069.041-.582-1.634-1.241-1.589-1.801.046-.583,1.567-.982,1.617-1.54.053-.583-2.649-1.37-2.592-1.924.06-.585-.215-1.155-.15-1.705.069-.586-4.456-1.744-4.381-2.289.081-.588-.381-1.305-.293-1.843.093-.568,4.555-.364,4.671-.925s4.591.023,4.73-.532-5.558-2.585-5.396-3.135-3.578-2.426-3.395-2.97,8.413,1.794,8.617,1.258-5.507-3.407-5.283-3.935,2.181-.335,2.424-.856,3.528.493,3.788-.019-2.662-2.656-2.386-3.159,3.44.685,3.732.191-4.035-3.813-3.727-4.298.229-1.321.551-1.797,7.116,3.588,7.45,3.122-2.434-3.127-2.087-3.584,2.299.407,2.658-.041c.359-.448-5.16-5.762-4.79-6.2s4.49,2.302,4.871,1.873.945-.678,1.336-1.098-.933-2.497-.533-2.907,5.956,4.38,6.365,3.98-1.743-3.363-1.325-3.754c.42-.394-2.417-4.354-1.991-4.736.429-.385-.304-2.213.13-2.586.437-.376,1.296-.395,1.737-.758.445-.367,1.267-.395,1.715-.749.453-.358,6.268,6.238,6.723,5.894.46-.349-2.787-5.626-2.326-5.961.468-.34-1.162-3.734-.694-4.059.475-.33,2.072.852,2.546.536.482-.32.843-.94,1.323-1.245.489-.311,5.24,6.286,5.726,5.992.497-.301.279-1.62.771-1.903.504-.29,1.398.317,1.896.046.511-.279,1.49.604,1.993.345.519-.267-3.472-9.521-2.964-9.767.526-.254,5.298,8.687,5.811,8.457.535-.24-3.146-10.218-2.628-10.432.545-.225,3.54,5.699,4.064,5.504.554-.206-.354-4.622.174-4.794.566-.184,2.91,5.764,3.441,5.62.579-.157.215-3.647.749-3.756.594-.12.941-2.019,1.474-2.078.426-.047,1.174,1.188,1.88,1.179.502-.006,1.116-1.702,1.751-1.69.525.01.947,5.114,1.558,5.136.536.019,1.211-2.937,1.81-2.909.543.025,1.265-2.756,1.858-2.723.548.03.817,5.296,1.407,5.331.551.033,1.048.99,1.634,1.028.553.036,1.399-4.131,1.982-4.09.555.038.946,2.563,1.527,2.605.556.04,1.342-2.888,1.922-2.845.557.042.923,2.727,1.501,2.772.558.043,1.235-1.315,1.811-1.269.559.044.739,4.85,1.315,4.897.56.046,1.813-8.248,2.388-8.201.56.047,1.072.821,1.646.87.561.047.502,7.419,1.076,7.468.56.048,1.796-7.626,2.368-7.576.561.049.769,4.196,1.34,4.247.561.05,1.188-.587,1.76-.536.562.05,1.302-1.814,1.873-1.763.562.051,1.441-3.292,2.011-3.239.562.051.199,10.229.769,10.281.563.052,1.641-5.43,2.211-5.377.563.052.879,2.777,1.449,2.83.563.053.761,3.989,1.331,4.043.564.053,1.887-7.876,2.457-7.822.564.054,1.311-1.756,1.88-1.702.564.054.776,3.806,1.346,3.861.564.055,1.207-.667,1.776-.612.565.055.96,1.872,1.529,1.928.565.055.964,1.817,1.533,1.873.565.056,1.37-2.309,1.939-2.253.565.056.917,2.281,1.486,2.337.564.056,1.272-1.335,1.839-1.279s1.114.258,1.681.315,1.761-6.172,2.328-6.115.006,11.274.573,11.331,1.775-6.26,2.342-6.203.471,6.615,1.038,6.673,1.822-6.659,2.389-6.601.94,1.996,1.508,2.054,1.522-3.686,2.088-3.628,1.278-1.285,1.845-1.226.874,2.642,1.441,2.7.639,4.892,1.207,4.951,1.656-4.895,2.224-4.836.887,2.512,1.455,2.571,1.805-6.267,2.373-6.208,1.078.705,1.646.764.443,6.72,1.01,6.78.816,3.155,1.383,3.215,1.384-2.228,1.951-2.168,1.817-6.303,2.384-6.243.367,7.38.934,7.44,1.608-4.304,2.175-4.244.603,5.133,1.17,5.193,1.001,1.392,1.568,1.452,1.775-5.835,2.342-5.774c.57.061,1.387-2.195,1.954-2.134.57.061.968,1.712,1.534,1.773.57.061,1.348-1.822,1.915-1.761.57.061.7,4.19,1.266,4.251.57.062.915,2.189,1.481,2.251.57.062,1.828-6.242,2.394-6.181.57.062.59,5.183,1.155,5.245.571.062.744,3.747,1.309,3.808.571.062.994,1.443,1.559,1.505.571.062,1.929-7.12,2.493-7.058.571.062.525,5.732,1.089,5.794.571.062,1.052.907,1.616.969.571.063,2.099-8.634,2.662-8.572.571.063.655,4.528,1.218,4.59.571.063,1.36-1.888,1.922-1.826.571.063.36,7.176.922,7.238.572.063,2.254-9.98,2.815-9.918.572.063.765,3.506,1.325,3.568.573.063,1.572-3.776,2.132-3.714.573.064-.048,10.831.512,10.894.574.064,2.207-9.465,2.766-9.403.575.064,1.22-.564,1.778-.501.576.064.768,3.497,1.326,3.559.577.064.584,5.141,1.141,5.203.577.065,2.021-7.711,2.577-7.648.578.065.182,8.718.736,8.78.579.065,1.458-2.667,2.01-2.605.582.065,1.676-4.569,2.226-4.507.585.066.649,4.591,1.196,4.653.588.066,1.15.155,1.693.216.595.067,1.5-2.863,2.039-2.802.603.068.69,4.37,1.218,4.43.617.07,1.137.525,1.648.584.656.074,1.174.553,1.646.606,1.103.126,4.677-8.569,4.677-8.569" style="fill: none; stroke: #000; stroke-linecap: round; stroke-linejoin: round; stroke-width: 40px;"/>
</svg>