<?xml version="1.0" encoding="UTF-8"?>
<svg id="SM_Icons" data-name="SM Icons" xmlns="http://www.w3.org/2000/svg" width="700" height="700" viewBox="0 0 700 700">
  <polygon points="96.77 420.052 105.138 411.739 113.722 403.554 124.556 398.059 133.34 390.115 140.866 380.666 149.976 373.106 161.654 368.618 168.34 358.166 177.244 350.366 188.832 345.773 197.292 337.438 205.726 329.064 214.596 321.217 222.539 312.251 230.639 305.285 232.097 294.252 228.178 282.889 229.741 270.659 226.543 259.183 222.658 247.815 220.126 236.23 220.333 224.214 217.764 212.636 214.613 201.15 214.102 189.25 213.949 177.289 209.325 166.033 210.212 153.908 206.353 142.526 205.118 130.802 215.882 135.776 225.403 142.873 235.594 148.897 246.191 154.276 254.977 162.545 265.594 167.895 275.22 174.824 286.329 179.389 296.213 185.902 306.338 192.033 314.401 201.457 325.995 205.255 335.354 212.614 344.452 220.405 355.577 224.131 365.524 218.556 375.927 212.903 387.626 209.795 396.947 202.019 408.732 199.078 419.637 194.404 430.376 189.41 440.507 183.219 449.767 175.326 460.207 169.748 472.53 167.86 481.713 159.8 493.432 156.725 503.955 151.284 513.656 144.526 508.938 155.406 506.709 167.05 503.322 178.402 501.903 190.247 500.206 202.024 496.179 213.219 493.293 224.698 492.728 236.76 487.812 247.731 483.443 258.836 480.349 270.263 477.082 281.651 476.43 293.691 472.17 304.835 471.991 316.253 477.378 326.575 486.676 334.016 496.893 340.536 505.811 348.354 513.8 357.105 522.376 365.27 529.06 375.324 539.094 382.027 547.377 390.481 555.185 399.41 561.574 409.761 572.559 415.524 579.936 424.889 587.502 434.076 596.037 442.169 584.316 442.946 572.574 444.722 560.858 446.865 548.867 444.992 537.229 448.289 525.123 444.778 513.608 449.871 501.547 447.018 489.708 447.396 477.924 448.534 466.334 452.531 454.516 453.266 442.54 451.653 430.774 453.208 419.403 455.003 414.997 465.615 409.219 475.955 404.315 486.739 399.219 497.425 391.405 506.728 387.736 518.145 380.597 527.791 375.281 538.367 370.659 549.294 363.757 559.059 360.555 570.713 355.223 581.286 347.747 590.763 342.173 601.218 338.399 611.848 335.827 600.839 330.93 590.05 325.335 579.545 321.634 568.278 316.374 557.636 313.026 546.222 305.952 536.311 301.107 525.501 297.237 514.302 294.86 502.501 289.45 491.919 287.035 480.126 278.625 470.75 275.158 459.377 271.816 448.161 260.427 445.658 248.742 443.773 237.171 441.175 225.519 439.09 213.363 440.178 201.846 437.218 190.188 435.166 178.782 431.51 167.014 430.141 155.078 429.856 143.844 425.115 131.543 427.087 120.072 423.844 108.008 424.268 96.77 420.052" style="fill: none; stroke: #000; stroke-linecap: round; stroke-linejoin: round; stroke-width: 50px;"/>
</svg>