<?xml version="1.0" encoding="UTF-8"?>
<svg id="MD_Icons" data-name="MD Icons" xmlns="http://www.w3.org/2000/svg" width="400" height="400" viewBox="0 0 400 400">
  <path d="M199.974,46.123c0,1.782.462,1.782.462,3.565s.416,1.783.416,3.566.02,1.784.02,3.569-.358,1.785-.358,3.569,1.219,1.783,1.219,3.567-2.085,1.783-2.085,3.566-.772,1.783-.772,3.566,2.753,1.784,2.753,3.567-2.396,1.785-2.396,3.57,2.259,1.785,2.259,3.569-.768,1.784-.768,3.567-1.326,1.784-1.326,3.567.791,1.784.791,3.568.87,1.786.87,3.571-.073,1.784-.073,3.569-.859,1.784-.859,3.568-1.223,1.785-1.223,3.569,1.562,1.785,1.562,3.571-1.47,1.784-1.47,3.569,1.472,1.785,1.472,3.57-1.175,1.786-1.175,3.571.678,1.785.678,3.569-.569,1.786-.569,3.571,1.405,1.785,1.405,3.57-.612,1.785-.612,3.571,1.155,1.785,1.155,3.571-.909,1.786-.909,3.572.194,1.783.194,3.567-.874,1.785-.874,3.571.679,1.783.679,3.567-.403,1.786-.403,3.571,1.084,1.785,1.084,3.569-2.342,1.786-2.342,3.573,2.019,1.785,2.019,3.57-.496,1.786-.496,3.572-.702,1.787-.702,3.574-.339,1.787-.339,3.574,1.689,1.787,1.689,3.574.604,1.786.604,3.573-.35,1.787-.35,3.573-2.054,1.787-2.054,3.574.054,1.79.054,3.58.217,1.79.217,3.58M253.96,99.372c-1.269-1.269-1.596-.943-2.865-2.212s-1.564-.976-2.834-2.246-1.286-1.258-2.558-2.53-1.019-1.525-2.291-2.797-2.133-.409-3.403-1.679.203-2.746-1.069-4.018-.727-1.819-2-3.092-3.218.675-4.49-.597.421-2.967-.852-4.24-2.87.325-4.142-.947-.731-1.817-2.004-3.09-.335-2.211-1.608-3.483-1.833-.714-3.106-1.988-1.889-.659-3.163-1.933-1.22-1.323-2.491-2.594-.665-1.881-1.938-3.154-.41-2.139-1.684-3.414-2.379-.17-3.654-1.444-.235-2.315-1.51-3.589-2.318-.236-3.595-1.513-.621-3.684-2.427-3.674c-1.82.01-1.497,2.06-2.78,3.351s-1.687.891-2.97,2.182-.289,2.284-1.574,3.578-1.719.862-3.004,2.156-.465,2.107-1.749,3.399-1.929.653-3.214,1.946-1.149,1.432-2.435,2.726-1.905.678-3.19,1.971-.805,1.774-2.091,3.068-1.572,1.01-2.858,2.304-.518,2.06-1.805,3.355-2.947-.356-4.234.939.146,2.718-1.141,4.013-1.639.946-2.926,2.242-1.783.798-3.067,2.091-1.527,1.056-2.813,2.35-.09,2.486-1.377,3.783-.859,1.722-2.147,3.019-1.537,1.05-2.825,2.346-2.748-.149-4.038,1.15-1.252,1.337-2.542,2.636M353.798,199.616c-1.782,0-1.782.462-3.565.462s-1.783.416-3.566.416-1.784.02-3.569.02-1.785-.358-3.569-.358-1.783,1.219-3.567,1.219-1.783-2.085-3.566-2.085-1.783-.772-3.566-.772-1.784,2.753-3.567,2.753-1.785-2.396-3.57-2.396-1.785,2.259-3.569,2.259-1.784-.768-3.567-.768-1.784-1.326-3.567-1.326-1.784.791-3.568.791-1.786.87-3.571.87-1.784-.073-3.569-.073-1.784-.859-3.568-.859-1.785-1.223-3.569-1.223-1.785,1.562-3.571,1.562-1.784-1.47-3.569-1.47-1.785,1.472-3.57,1.472-1.786-1.175-3.571-1.175-1.785.678-3.569.678-1.786-.569-3.571-.569-1.785,1.405-3.57,1.405-1.785-.612-3.571-.612-1.785,1.155-3.571,1.155-1.786-.909-3.572-.909-1.783.194-3.567.194-1.785-.874-3.571-.874-1.783.679-3.567.679-1.786-.403-3.571-.403-1.785,1.084-3.569,1.084-1.786-2.342-3.573-2.342-1.785,2.019-3.57,2.019-1.786-.496-3.572-.496-1.787-.702-3.574-.702-1.787-.339-3.574-.339-1.787,1.689-3.574,1.689-1.786.604-3.573.604-1.787-.35-3.573-.35-1.787-2.054-3.574-2.054-1.79.054-3.58.054-1.79.217-3.58.217M300.55,253.602c1.269-1.269.943-1.596,2.212-2.865s.976-1.564,2.246-2.834,1.258-1.286,2.53-2.558,1.525-1.019,2.797-2.291.409-2.133,1.679-3.403,2.746.203,4.018-1.069,1.819-.727,3.092-2-.675-3.218.597-4.49,2.967.421,4.24-.852-.325-2.87.947-4.142,1.817-.731,3.09-2.004,2.211-.335,3.483-1.608.714-1.833,1.988-3.106.659-1.889,1.933-3.163,1.323-1.22,2.594-2.491,1.881-.665,3.154-1.938,2.139-.41,3.414-1.684.17-2.379,1.444-3.654,2.315-.235,3.589-1.51.236-2.318,1.513-3.595,3.684-.621,3.674-2.427c-.01-1.82-2.06-1.497-3.351-2.78s-.891-1.687-2.182-2.97-2.284-.289-3.578-1.574-.862-1.719-2.156-3.004-2.107-.465-3.399-1.749-.653-1.929-1.946-3.214-1.432-1.149-2.726-2.435-.678-1.905-1.971-3.19-1.774-.805-3.068-2.091-1.01-1.572-2.304-2.858-2.06-.518-3.355-1.805.356-2.947-.939-4.234-2.718.146-4.013-1.141-.946-1.639-2.242-2.926-.798-1.783-2.091-3.067-1.056-1.527-2.35-2.813-2.486-.09-3.783-1.377-1.722-.859-3.019-2.147-1.05-1.537-2.346-2.825.149-2.748-1.15-4.038-1.337-1.252-2.636-2.542M200.026,353.877c0-1.782-.462-1.782-.462-3.565s-.416-1.783-.416-3.566-.02-1.784-.02-3.569.358-1.785.358-3.569-1.219-1.783-1.219-3.567,2.085-1.783,2.085-3.566.772-1.783.772-3.566-2.753-1.784-2.753-3.567,2.396-1.785,2.396-3.57-2.259-1.785-2.259-3.569.768-1.784.768-3.567,1.326-1.784,1.326-3.567-.791-1.784-.791-3.568-.87-1.786-.87-3.571.073-1.784.073-3.569.859-1.784.859-3.568,1.223-1.785,1.223-3.569-1.562-1.785-1.562-3.571,1.47-1.784,1.47-3.569-1.472-1.785-1.472-3.57,1.175-1.786,1.175-3.571-.678-1.785-.678-3.569.569-1.786.569-3.571-1.405-1.785-1.405-3.57.612-1.785.612-3.571-1.155-1.785-1.155-3.571.909-1.786.909-3.572-.194-1.783-.194-3.567.874-1.785.874-3.571-.679-1.783-.679-3.567.403-1.786.403-3.571-1.084-1.785-1.084-3.569,2.342-1.786,2.342-3.573-2.019-1.785-2.019-3.57.496-1.786.496-3.572.702-1.787.702-3.574.339-1.787.339-3.574-1.689-1.787-1.689-3.574-.604-1.786-.604-3.573.35-1.787.35-3.573,2.054-1.787,2.054-3.574-.054-1.79-.054-3.58-.217-1.79-.217-3.58M146.04,300.628c1.269,1.269,1.596.943,2.865,2.212s1.564.976,2.834,2.246,1.286,1.258,2.558,2.53,1.019,1.525,2.291,2.797,2.133.409,3.403,1.679-.203,2.746,1.069,4.018.727,1.819,2,3.092,3.218-.675,4.49.597-.421,2.967.852,4.24,2.87-.325,4.142.947.731,1.817,2.004,3.09.335,2.211,1.608,3.483,1.833.714,3.106,1.988,1.889.659,3.163,1.933,1.22,1.323,2.491,2.594.665,1.881,1.938,3.154.41,2.139,1.684,3.414,2.379.17,3.654,1.444.235,2.315,1.51,3.589,2.318.236,3.595,1.513.621,3.684,2.427,3.674c1.82-.01,1.497-2.06,2.78-3.351s1.687-.891,2.97-2.182.289-2.284,1.574-3.578,1.719-.862,3.004-2.156.465-2.107,1.749-3.399,1.929-.653,3.214-1.946,1.149-1.432,2.435-2.726,1.905-.678,3.19-1.971.805-1.774,2.091-3.068,1.572-1.01,2.858-2.304.518-2.06,1.805-3.355,2.947.356,4.234-.939-.146-2.718,1.141-4.013,1.639-.946,2.926-2.242,1.783-.798,3.067-2.091,1.527-1.056,2.813-2.35.09-2.486,1.377-3.783.859-1.722,2.147-3.019,1.537-1.05,2.825-2.346,2.748.149,4.038-1.15,1.252-1.337,2.542-2.636M46.202,200.384c1.782,0,1.782-.462,3.565-.462s1.783-.416,3.566-.416,1.784-.02,3.569-.02,1.785.358,3.569.358,1.783-1.219,3.567-1.219,1.783,2.085,3.566,2.085,1.783.772,3.566.772,1.784-2.753,3.567-2.753,1.785,2.396,3.57,2.396,1.785-2.259,3.569-2.259,1.784.768,3.567.768,1.784,1.326,3.567,1.326,1.784-.791,3.568-.791,1.786-.87,3.571-.87,1.784.073,3.569.073,1.784.859,3.568.859,1.785,1.223,3.569,1.223,1.785-1.562,3.571-1.562,1.784,1.47,3.569,1.47,1.785-1.472,3.57-1.472,1.786,1.175,3.571,1.175,1.785-.678,3.569-.678,1.786.569,3.571.569,1.785-1.405,3.57-1.405,1.785.612,3.571.612,1.785-1.155,3.571-1.155,1.786.909,3.572.909,1.783-.194,3.567-.194,1.785.874,3.571.874,1.783-.679,3.567-.679,1.786.403,3.571.403,1.785-1.084,3.569-1.084,1.786,2.342,3.573,2.342,1.785-2.019,3.57-2.019,1.786.496,3.572.496,1.787.702,3.574.702,1.787.339,3.574.339,1.787-1.689,3.574-1.689,1.786-.604,3.573-.604,1.787.35,3.573.35,1.787,2.054,3.574,2.054,1.79-.054,3.58-.054,1.79-.217,3.58-.217M99.45,146.398c-1.269,1.269-.943,1.596-2.212,2.865s-.976,1.564-2.246,2.834-1.258,1.286-2.53,2.558-1.525,1.019-2.797,2.291-.409,2.133-1.679,3.403-2.746-.203-4.018,1.069-1.819.727-3.092,2,.675,3.218-.597,4.49-2.967-.421-4.24.852.325,2.87-.947,4.142-1.817.731-3.09,2.004-2.211.335-3.483,1.608-.714,1.833-1.988,3.106-.659,1.889-1.933,3.163-1.323,1.22-2.594,2.491-1.881.665-3.154,1.938-2.139.41-3.414,1.684-.17,2.379-1.444,3.654-2.315.235-3.589,1.51-.236,2.318-1.513,3.595-3.684.621-3.674,2.427c.01,1.82,2.06,1.497,3.351,2.78s.891,1.687,2.182,2.97,2.284.289,3.578,1.574.862,1.719,2.156,3.004,2.107.465,3.399,1.749.653,1.929,1.946,3.214,1.432,1.149,2.726,2.435.678,1.905,1.971,3.19,1.774.805,3.068,2.091,1.01,1.572,2.304,2.858,2.06.518,3.355,1.805-.356,2.947.939,4.234,2.718-.146,4.013,1.141.946,1.639,2.242,2.926.798,1.783,2.091,3.067,1.056,1.527,2.35,2.813,2.486.09,3.783,1.377,1.722.859,3.019,2.147,1.05,1.537,2.346,2.825-.149,2.748,1.15,4.038,1.337,1.252,2.636,2.542" style="fill: none; stroke: #000; stroke-linecap: round; stroke-linejoin: round; stroke-width: 40px;"/>
</svg>