<?xml version="1.0" encoding="UTF-8"?>
<svg id="SM_Icons" data-name="SM Icons" xmlns="http://www.w3.org/2000/svg" width="400" height="400" viewBox="0 0 400 400">
  <polyline points="64.997 212.929 72.988 221.611 79.71 231.224 88.654 239.212 95.012 249.092 100.099 259.902 108.299 268.431 116.876 276.683 120.869 288.295 130.487 295.795 136.618 305.841 141.526 316.794 149.958 323.678 155.83 314.659 165.973 307.301 169.127 294.829 179.615 287.723 184.057 276.201 193.489 268.324 200.204 258.462 205.869 247.83 212.011 237.547 218.606 227.592 227.474 219.304 233.196 208.709 240.735 199.442 247.453 189.576 254.585 180.013 262.986 171.377 270.634 162.187 278.222 152.956 285.583 143.558 290.574 132.429 297.49 122.708 306.884 114.797 310.805 102.875 319.21 94.241 326.923 85.089 332.745 74.553" style="fill: none; stroke: #000; stroke-linecap: round; stroke-linejoin: round; stroke-width: 40px;"/>
</svg>