<?xml version="1.0" encoding="UTF-8"?>
<svg id="LM_Icons" data-name="LM Icons" xmlns="http://www.w3.org/2000/svg" width="700" height="700" viewBox="0 0 700 700">
  <path d="M496.585,284.14c0,116.538-94.473,211.011-211.011,211.011s-211.011-94.473-211.011-211.011,94.473-211.011,211.011-211.011,211.011,94.473,211.011,211.011ZM625.436,626.87l-192.636-192.636" style="fill: #fff; stroke: #000; stroke-linecap: round; stroke-miterlimit: 10; stroke-width: 26.25px;"/>
  <path d="M614.865,102.924c-.472,0-.868-.16-1.188-.479-.319-.319-.479-.715-.479-1.188v-8.861c0-.764.272-1.418.816-1.962.544-.544,1.198-.816,1.962-.816h.75v-7.278c0-.764.272-1.418.816-1.962.544-.544,1.198-.816,1.962-.816h7.306v-2.583c-.537-.37-.954-.787-1.25-1.251-.296-.464-.445-1.023-.445-1.677,0-.409.079-.806.236-1.19.157-.384.384-.724.68-1.021l1.667-1.722c.037-.037.206-.111.508-.223.05,0,.214.074.492.223l1.667,1.722c.296.296.528.637.695,1.021s.25.781.25,1.19c0,.654-.153,1.213-.458,1.677-.306.464-.727.881-1.264,1.251v2.583h7.306c.764,0,1.418.272,1.962.816.544.544.816,1.198.816,1.962v7.278h.75c.764,0,1.418.272,1.962.816.544.544.816,1.198.816,1.962v8.861c0,.472-.16.868-.479,1.188s-.715.479-1.188.479h-26.667ZM619.504,89.619h17.389v-7.278h-17.389v7.278ZM615.977,100.147h24.444v-7.75h-24.444v7.75ZM619.504,89.619h17.389-17.389ZM615.977,100.147h24.444-24.444ZM640.421,89.619h-24.444,24.444Z" style="fill: #333;"/>
</svg>