<?xml version="1.0" encoding="UTF-8"?>
<svg id="big" xmlns="http://www.w3.org/2000/svg" width="400" height="400" viewBox="0 0 400 400">
  <path d="M282.67,162.366c0,1.268.348,2.508.309,3.766-.039,1.267,1.231,2.588,1.154,3.845-.078,1.265-1.966,2.376-2.083,3.629-.118,1.261,1.09,2.647.934,3.897-.157,1.257-.146,2.542-.341,3.786-.197,1.251-1.567,2.288-1.801,3.526s-.463,2.461-.737,3.691-1.053,2.314-1.365,3.535-.005,2.588-.356,3.799.877,2.921.488,4.12-2.558,1.8-2.985,2.986-.226,2.601-.691,3.773-1.691,2.016-2.193,3.173.425,2.961-.113,4.101-1.549,2.068-2.123,3.192-1.027,2.324-1.635,3.429-.657,2.558-1.301,3.643-1.787,1.894-2.464,2.959-2.453,1.402-3.163,2.445-.168,2.968-.911,3.988-2.423,1.343-3.198,2.339-1.105,2.345-1.91,3.318-.669,2.783-1.504,3.729-3.426.306-4.29,1.226-1.399,2.131-2.291,3.023-1.498,2.071-2.418,2.936-1.123,2.54-2.07,3.376-3.426-.128-4.399.678-1.665,1.906-2.662,2.681-.69,3.295-1.711,4.039-2.074,1.512-3.119,2.223-2.947.148-4.013.826-2.624.512-3.711,1.156-1.998,1.531-3.105,2.14-1.325,2.898-2.451,3.473-2.782.099-3.925.638-2.536.491-3.696.994-1.927,1.929-3.102,2.395-2.28,1.148-3.47,1.576-2.817-.444-4.019-.054-2.101,1.726-3.316,2.079-2.692-.31-3.918.003-1.944,2.765-3.18,3.04-2.81-1.034-4.053-.798-2.451.619-3.702.816c-1.244.195-2.578-.291-3.834-.134-1.25.156-2.418,1.015-3.679,1.133-1.254.117-2.442,1.402-3.706,1.481-1.257.078-2.635-2.358-3.902-2.319-1.258.039-2.483,1.129-3.751,1.129s-2.532.174-3.79.136c-1.267-.039-2.462-1.196-3.718-1.274-1.265-.078-2.722,2.304-3.976,2.187-1.261-.118-2.316-2.225-3.565-2.381-1.257-.157-2.703,1.025-3.948.83-1.251-.197-2.389-1.118-3.627-1.352s-2.422-.774-3.652-1.048-2.544-.235-3.765-.547-2.54-.336-3.751-.688-2.598-.234-3.797-.624-1.765-2.653-2.951-3.08-2.737.128-3.909-.336-2.199-1.291-3.356-1.792-2.23-1.177-3.371-1.715-3.138.62-4.262.046-1.443-2.714-2.548-3.323-2.194-1.237-3.28-1.88-2.088-1.409-3.153-2.086-3.133.134-4.176-.576-.637-3.493-1.657-4.236-2.227-1.196-3.224-1.97-2.273-1.18-3.245-1.985-1.935-1.613-2.882-2.448-2.037-1.51-2.957-2.375-.873-2.698-1.766-3.591-3.448-.168-4.313-1.089-.116-3.306-.952-4.253-3.007-.741-3.813-1.714-1.807-1.818-2.582-2.815-.171-3.032-.914-4.054-1.025-2.325-1.736-3.369-2.514-1.343-3.192-2.409-.845-2.433-1.489-3.52-1.165-2.22-1.774-3.327-1.595-1.995-2.17-3.121-1.03-2.297-1.569-3.44-1.679-2.011-2.182-3.171-.753-2.427-1.219-3.603-1.804-2.035-2.233-3.224,1.529-3.183,1.138-4.386-1.036-2.278-1.388-3.493-2.045-2.042-2.359-3.268-.677-2.442-.952-3.677.8-2.729.564-3.973-1.558-2.275-1.755-3.526c-.195-1.244.28-2.579.122-3.835-.156-1.25.519-2.564.401-3.825-.117-1.254-1.407-2.396-1.485-3.661-.078-1.257,1.14-2.552,1.101-3.819-.039-1.258-1.613-2.477-1.613-3.744s-.423-2.547-.384-3.806c.039-1.267,1.374-2.466,1.452-3.723.078-1.265.125-2.506.242-3.76.118-1.261-1.426-2.706-1.27-3.955.157-1.257,1.699-2.325,1.895-3.569.197-1.251-1.228-2.795-.993-4.033s2.681-2.036,2.955-3.266-1.4-2.938-1.088-4.159,3.124-1.762,3.475-2.973-1.289-3.027-.9-4.226.534-2.515.961-3.702.816-2.426,1.28-3.599.629-2.516,1.13-3.673,2.292-1.76,2.83-2.901,2.206-1.71,2.779-2.833-.121-2.905.488-4.01.152-2.853.795-3.938,1.317-2.21,1.994-3.274,3.093-1.004,3.804-2.048.186-2.965.929-3.985,1.753-1.874,2.527-2.87,2.799-.987,3.604-1.959.546-2.847,1.381-3.793,2.66-.986,3.524-1.906,1.505-2.029,2.398-2.922.832-2.778,1.752-3.642,2.015-1.573,2.962-2.409,2.276-1.241,3.249-2.047,1.864-1.72,2.862-2.494,2.128-1.379,3.15-2.122,2.326-1.072,3.37-1.783,1.75-1.927,2.816-2.605,2.99.083,4.077-.562.77-3.737,1.877-4.347,2.207-1.323,3.333-1.897,2.9.122,4.043-.417,2.715-.087,3.876-.589,1.524-2.92,2.699-3.386,2.723.011,3.913-.418,2.816.49,4.018.1,1.726-2.96,2.941-3.313,2.694.219,3.919-.095,2.197-1.753,3.432-2.028,2.551-.298,3.795-.534,2.82,1.493,4.071,1.296c1.244-.195,2.48-.245,3.737-.402,1.25-.156,2.319-1.933,3.58-2.051,1.254-.117,2.523-.344,3.787-.422,1.257-.078,2.554.303,3.821.264,1.258-.039,2.529-.878,3.797-.878s2.535.977,3.793,1.016c1.267.039,2.581-.684,3.837-.607,1.265.078,2.426,1.534,3.679,1.651,1.261.118,2.53.037,3.78.193,1.257.157,2.372,1.145,3.617,1.341,1.251.197,2.885-1.819,4.123-1.584s2.451.804,3.681,1.078,2.594.177,3.815.489,1.931,2.567,3.142,2.919,3.072-1.345,4.271-.955,1.516,3.388,2.703,3.815,3.208-1.341,4.38-.877,1.945,1.956,3.102,2.458,2.081,1.515,3.222,2.053,2.138,1.333,3.262,1.907,2.991-.244,4.096.365,1.964,1.692,3.049,2.335,1.704,2.046,2.769,2.723,2.773.384,3.816,1.094,2.072,1.478,3.093,2.221,2.013,1.555,3.01,2.33,1.26,2.464,2.232,3.27,3.204.157,4.151.992,1.954,1.669,2.874,2.533.705,2.927,1.598,3.82,1.174,2.351,2.039,3.272,2.048,1.516,2.884,2.463,1.435,2.066,2.241,3.039,2.148,1.494,2.923,2.492,2.424,1.353,3.167,2.375,1.576,2.018,2.287,3.062.046,3.002.724,4.068,3.012,1.129,3.656,2.216.633,2.583,1.243,3.69-.099,2.907.476,4.033.825,2.372,1.364,3.516,3.081,1.376,3.583,2.536-1.084,3.18-.618,4.356,1.128,2.236,1.557,3.426,2.166,1.918,2.557,3.121.115,2.609.468,3.824.85,2.38,1.164,3.606-.291,2.649-.016,3.884,2.307,2.1,2.542,3.343,1.039,2.418,1.235,3.669c.195,1.244-2.567,2.909-2.41,4.165.156,1.25,1.198,2.374,1.316,3.635.117,1.254,1.571,2.411,1.65,3.675.078,1.257-1.641,2.598-1.601,3.864.039,1.258-.04,2.49-.04,3.758ZM358.165,357.439c-1.342-1.342-1.601-1.082-2.943-2.424s-2.283-.401-3.625-1.743-.071-2.611-1.412-3.952-2.296-.385-3.637-1.726-1.476-1.206-2.816-2.546-.512-2.171-1.853-3.512-1.358-1.326-2.701-2.668-.984-1.699-2.326-3.041-1.806-.876-3.147-2.218-2.527-.155-3.868-1.497-.028-2.655-1.37-3.997-1.829-.856-3.172-2.199-.769-1.914-2.111-3.256-2.464-.219-3.805-1.561-.989-1.695-2.331-3.037-1.457-1.228-2.8-2.57-1.822-.862-3.164-2.203-.952-1.732-2.294-3.074-.425-2.261-1.767-3.603-2.439-.245-3.781-1.587-.53-2.155-1.873-3.498-1.754-.925-3.094-2.265-2.247-.437-3.589-1.779.318-3.001-1.024-4.343-1.665-1.016-3.006-2.356-1.642-1.041-2.984-2.382-2.123-.563-3.466-1.906.315-2.998-1.026-4.34-1.644-1.042-2.987-2.385-2.898.213-4.24-1.129-1.36-1.328-2.703-2.671-.271-2.415-1.613-3.758-.667-2.02-2.01-3.364-1.569-1.119-2.913-2.463-2.698.016-4.039-1.325-.525-2.161-1.868-3.504-.908-1.781-2.252-3.126-2.069-.62-3.414-1.965-1.52-1.17-2.865-2.515-.391-2.304-1.738-3.651-2.064-.631-3.411-1.978" style="fill: #fff;"/>
  <path d="M282.67,162.366c0,1.268.348,2.508.309,3.766-.039,1.267,1.231,2.588,1.154,3.845-.078,1.265-1.966,2.376-2.083,3.629-.118,1.261,1.09,2.647.934,3.897-.157,1.257-.146,2.542-.341,3.786-.197,1.251-1.567,2.288-1.801,3.526s-.463,2.461-.737,3.691-1.053,2.314-1.365,3.535-.005,2.588-.356,3.799.877,2.921.488,4.12-2.558,1.8-2.985,2.986-.226,2.601-.691,3.773-1.691,2.016-2.193,3.173.425,2.961-.113,4.101-1.549,2.068-2.123,3.192-1.027,2.324-1.635,3.429-.657,2.558-1.301,3.643-1.787,1.894-2.464,2.959-2.453,1.402-3.163,2.445-.168,2.968-.911,3.988-2.423,1.343-3.198,2.339-1.105,2.345-1.91,3.318-.669,2.783-1.504,3.729-3.426.306-4.29,1.226-1.399,2.131-2.291,3.023-1.498,2.071-2.418,2.936-1.123,2.54-2.07,3.376-3.426-.128-4.399.678-1.665,1.906-2.662,2.681-.69,3.295-1.711,4.039-2.074,1.512-3.119,2.223-2.947.148-4.013.826-2.624.512-3.711,1.156-1.998,1.531-3.105,2.14-1.325,2.898-2.451,3.473-2.782.099-3.925.638-2.536.491-3.696.994-1.927,1.929-3.102,2.395-2.28,1.148-3.47,1.576-2.817-.444-4.019-.054-2.101,1.726-3.316,2.079-2.692-.31-3.918.003-1.944,2.765-3.18,3.04-2.81-1.034-4.053-.798-2.451.619-3.702.816c-1.244.195-2.578-.291-3.834-.134-1.25.156-2.418,1.015-3.679,1.133-1.254.117-2.442,1.402-3.706,1.481-1.257.078-2.635-2.358-3.902-2.319-1.258.039-2.483,1.129-3.751,1.129s-2.532.174-3.79.136c-1.267-.039-2.462-1.196-3.718-1.274-1.265-.078-2.722,2.304-3.976,2.187-1.261-.118-2.316-2.225-3.565-2.381-1.257-.157-2.703,1.025-3.948.83-1.251-.197-2.389-1.118-3.627-1.352s-2.422-.774-3.652-1.048-2.544-.235-3.765-.547-2.54-.336-3.751-.688-2.598-.234-3.797-.624-1.765-2.653-2.951-3.08-2.737.128-3.909-.336-2.199-1.291-3.356-1.792-2.23-1.177-3.371-1.715-3.138.62-4.262.046-1.443-2.714-2.548-3.323-2.194-1.237-3.28-1.88-2.088-1.409-3.153-2.086-3.133.134-4.176-.576-.637-3.493-1.657-4.236-2.227-1.196-3.224-1.97-2.273-1.18-3.245-1.985-1.935-1.613-2.882-2.448-2.037-1.51-2.957-2.375-.873-2.698-1.766-3.591-3.448-.168-4.313-1.089-.116-3.306-.952-4.253-3.007-.741-3.813-1.714-1.807-1.818-2.582-2.815-.171-3.032-.914-4.054-1.025-2.325-1.736-3.369-2.514-1.343-3.192-2.409-.845-2.433-1.489-3.52-1.165-2.22-1.774-3.327-1.595-1.995-2.17-3.121-1.03-2.297-1.569-3.44-1.679-2.011-2.182-3.171-.753-2.427-1.219-3.603-1.804-2.035-2.233-3.224,1.529-3.183,1.138-4.386-1.036-2.278-1.388-3.493-2.045-2.042-2.359-3.268-.677-2.442-.952-3.677.8-2.729.564-3.973-1.558-2.275-1.755-3.526c-.195-1.244.28-2.579.122-3.835-.156-1.25.519-2.564.401-3.825-.117-1.254-1.407-2.396-1.485-3.661-.078-1.257,1.14-2.552,1.101-3.819-.039-1.258-1.613-2.477-1.613-3.744s-.423-2.547-.384-3.806c.039-1.267,1.374-2.466,1.452-3.723.078-1.265.125-2.506.242-3.76.118-1.261-1.426-2.706-1.27-3.955.157-1.257,1.699-2.325,1.895-3.569.197-1.251-1.228-2.795-.993-4.033s2.681-2.036,2.955-3.266-1.4-2.938-1.088-4.159,3.124-1.762,3.475-2.973-1.289-3.027-.9-4.226.534-2.515.961-3.702.816-2.426,1.28-3.599.629-2.516,1.13-3.673,2.292-1.76,2.83-2.901,2.206-1.71,2.779-2.833-.121-2.905.488-4.01.152-2.853.795-3.938,1.317-2.21,1.994-3.274,3.093-1.004,3.804-2.048.186-2.965.929-3.985,1.753-1.874,2.527-2.87,2.799-.987,3.604-1.959.546-2.847,1.381-3.793,2.66-.986,3.524-1.906,1.505-2.029,2.398-2.922.832-2.778,1.752-3.642,2.015-1.573,2.962-2.409,2.276-1.241,3.249-2.047,1.864-1.72,2.862-2.494,2.128-1.379,3.15-2.122,2.326-1.072,3.37-1.783,1.75-1.927,2.816-2.605,2.99.083,4.077-.562.77-3.737,1.877-4.347,2.207-1.323,3.333-1.897,2.9.122,4.043-.417,2.715-.087,3.876-.589,1.524-2.92,2.699-3.386,2.723.011,3.913-.418,2.816.49,4.018.1,1.726-2.96,2.941-3.313,2.694.219,3.919-.095,2.197-1.753,3.432-2.028,2.551-.298,3.795-.534,2.82,1.493,4.071,1.296c1.244-.195,2.48-.245,3.737-.402,1.25-.156,2.319-1.933,3.58-2.051,1.254-.117,2.523-.344,3.787-.422,1.257-.078,2.554.303,3.821.264,1.258-.039,2.529-.878,3.797-.878s2.535.977,3.793,1.016c1.267.039,2.581-.684,3.837-.607,1.265.078,2.426,1.534,3.679,1.651,1.261.118,2.53.037,3.78.193,1.257.157,2.372,1.145,3.617,1.341,1.251.197,2.885-1.819,4.123-1.584s2.451.804,3.681,1.078,2.594.177,3.815.489,1.931,2.567,3.142,2.919,3.072-1.345,4.271-.955,1.516,3.388,2.703,3.815,3.208-1.341,4.38-.877,1.945,1.956,3.102,2.458,2.081,1.515,3.222,2.053,2.138,1.333,3.262,1.907,2.991-.244,4.096.365,1.964,1.692,3.049,2.335,1.704,2.046,2.769,2.723,2.773.384,3.816,1.094,2.072,1.478,3.093,2.221,2.013,1.555,3.01,2.33,1.26,2.464,2.232,3.27,3.204.157,4.151.992,1.954,1.669,2.874,2.533.705,2.927,1.598,3.82,1.174,2.351,2.039,3.272,2.048,1.516,2.884,2.463,1.435,2.066,2.241,3.039,2.148,1.494,2.923,2.492,2.424,1.353,3.167,2.375,1.576,2.018,2.287,3.062.046,3.002.724,4.068,3.012,1.129,3.656,2.216.633,2.583,1.243,3.69-.099,2.907.476,4.033.825,2.372,1.364,3.516,3.081,1.376,3.583,2.536-1.084,3.18-.618,4.356,1.128,2.236,1.557,3.426,2.166,1.918,2.557,3.121.115,2.609.468,3.824.85,2.38,1.164,3.606-.291,2.649-.016,3.884,2.307,2.1,2.542,3.343,1.039,2.418,1.235,3.669c.195,1.244-2.567,2.909-2.41,4.165.156,1.25,1.198,2.374,1.316,3.635.117,1.254,1.571,2.411,1.65,3.675.078,1.257-1.641,2.598-1.601,3.864.039,1.258-.04,2.49-.04,3.758ZM358.165,357.439c-1.342-1.342-1.601-1.082-2.943-2.424s-2.283-.401-3.625-1.743-.071-2.611-1.412-3.952-2.296-.385-3.637-1.726-1.476-1.206-2.816-2.546-.512-2.171-1.853-3.512-1.358-1.326-2.701-2.668-.984-1.699-2.326-3.041-1.806-.876-3.147-2.218-2.527-.155-3.868-1.497-.028-2.655-1.37-3.997-1.829-.856-3.172-2.199-.769-1.914-2.111-3.256-2.464-.219-3.805-1.561-.989-1.695-2.331-3.037-1.457-1.228-2.8-2.57-1.822-.862-3.164-2.203-.952-1.732-2.294-3.074-.425-2.261-1.767-3.603-2.439-.245-3.781-1.587-.53-2.155-1.873-3.498-1.754-.925-3.094-2.265-2.247-.437-3.589-1.779.318-3.001-1.024-4.343-1.665-1.016-3.006-2.356-1.642-1.041-2.984-2.382-2.123-.563-3.466-1.906.315-2.998-1.026-4.34-1.644-1.042-2.987-2.385-2.898.213-4.24-1.129-1.36-1.328-2.703-2.671-.271-2.415-1.613-3.758-.667-2.02-2.01-3.364-1.569-1.119-2.913-2.463-2.698.016-4.039-1.325-.525-2.161-1.868-3.504-.908-1.781-2.252-3.126-2.069-.62-3.414-1.965-1.52-1.17-2.865-2.515-.391-2.304-1.738-3.651-2.064-.631-3.411-1.978" style="fill: none; stroke: #000; stroke-linecap: round; stroke-miterlimit: 10; stroke-width: 15px;"/>
</svg>