<?xml version="1.0" encoding="UTF-8"?>
<svg id="Big_Assets" data-name="Big Assets" xmlns="http://www.w3.org/2000/svg" width="700" height="700" viewBox="0 0 700 700">
  <g>
    <path d="M615.643,350c0,4.769-.4,9.661-.651,14.368-.254,4.759-3.523,9.33-4.028,14.019-.509,4.736-.47,9.543-1.228,14.2-.765,4.699-4.733,8.718-5.744,13.329-1.018,4.648-2.977,8.882-4.238,13.434-1.27,4.583,3.041,10.842,1.533,15.321-1.517,4.505-6.637,7.718-8.388,12.109-1.76,4.413-3.015,8.989-5.004,13.28-1.997,4.309-5.776,7.641-7.996,11.819-2.227,4.193-.299,10.741-2.743,14.795-2.451,4.064-7.114,6.794-9.775,10.71-2.666,3.924-7.383,6.297-10.252,10.066-2.873,3.774-6.467,6.774-9.536,10.383-3.071,3.612-3.883,9.131-7.143,12.571s-5.838,7.598-9.279,10.859c-3.44,3.26-5.569,8.151-9.182,11.222-3.609,3.069-8.958,4.15-12.731,7.023-3.768,2.869-6.587,7.217-10.511,9.883s-9.543,2.773-13.608,5.224c-4.053,2.444-9.196,2.819-13.389,5.046-4.178,2.22-7.983,4.945-12.291,6.942-4.291,1.989-7.523,6.404-11.937,8.164-4.391,1.751-8.239,5.331-12.743,6.848-4.478,1.508-9.837.519-14.419,1.789-4.552,1.261-8.709,4.538-13.357,5.556-4.611,1.01-9.836-.707-14.535.058-4.657.758-8.995,4.705-13.731,5.214-4.689.504-9.752-2.149-14.512-1.895-4.706.251-9.457.269-14.226.269s-9.413-2.024-14.119-2.275c-4.759-.254-9.57,1.051-14.258.547-4.736-.509-9.762.904-14.419.147-4.699-.765-8.774-4.81-13.385-5.82-4.648-1.018-9.443-1.206-13.995-2.467-4.583-1.27-8.476-4.514-12.954-6.022-4.505-1.517-9.513-1.425-13.905-3.176-4.413-1.76-9.537-1.923-13.828-3.911s-8.926-3.579-13.105-5.799-8.606-4.309-12.659-6.753c-4.064-2.451-8.553-4.517-12.469-7.177-3.924-2.666-6.04-7.993-9.808-10.862-3.774-2.873-6.675-6.783-10.285-9.852-3.612-3.071-7.578-5.686-11.018-8.945-3.441-3.26-7.884-5.546-11.145-8.987-3.26-3.44-6.896-6.645-9.967-10.258-3.069-3.609-6.554-7.023-9.427-10.797-2.869-3.768-4.477-8.55-7.143-12.474-2.661-3.917-2.88-9.364-5.33-13.429-2.444-4.053-9.365-5.619-11.592-9.811-2.22-4.178-.124-10.566-2.121-14.875-1.989-4.291-3.32-8.774-5.08-13.188-1.751-4.391-5.254-8.094-6.771-12.599-1.508-4.478-5.478-8.294-6.747-12.877-1.261-4.552-2.703-9.234-3.721-13.882-1.01-4.611,2.267-10.106,1.503-14.805-.758-4.657-.064-9.424-.573-14.16-.504-4.689-.157-9.309-.411-14.068-.251-4.706-3.811-9.265-3.811-14.034s2.852-9.365,3.104-14.071c.254-4.759-.324-9.443.181-14.132.509-4.736,1.42-9.295,2.178-13.952.765-4.699-.66-9.75.351-14.361,1.018-4.648,1.79-9.37,3.052-13.922,1.27-4.583.74-9.803,2.248-14.282,1.517-4.505,3.79-8.862,5.541-13.254,1.76-4.413,7.373-7.163,9.361-11.454,1.997-4.309,5.117-7.899,7.337-12.077s3.418-8.81,5.862-12.863c2.451-4.064,5.523-7.583,8.184-11.499,2.666-3.924,4.356-8.419,7.225-12.188,2.873-3.774,5.457-7.704,8.526-11.313,3.071-3.612,6.725-6.614,9.985-10.054,3.26-3.441,6.262-7.039,9.703-10.299,3.44-3.26,6.917-6.389,10.529-9.461,3.609-3.069,6.9-6.467,10.674-9.34,3.768-2.869,7.634-5.557,11.558-8.223,3.917-2.661,9.333-2.786,13.398-5.237,4.053-2.444,5.031-10.305,9.223-12.532,4.178-2.22,11.01.878,15.319-1.118,4.291-1.989,6.116-9.775,10.53-11.535,4.391-1.751,9.65-1.582,14.155-3.099,4.478-1.508,9.145-2.723,13.728-3.993,4.552-1.261,9.476-1.264,14.123-2.282,4.611-1.01,9.008-3.541,13.707-4.306,4.657-.758,9.295-2.859,14.03-3.368,4.689-.504,9.667.581,14.427.327,4.706-.251,9.54,3.554,14.309,3.554s9.673-5.133,14.379-4.882c4.759.254,9.34,3.543,14.029,4.047,4.736.509,9.948-1.953,14.606-1.195,4.699.765,8.172,7.899,12.784,8.91,4.648,1.018,9.27,1.466,13.822,2.727,4.583,1.27,10.464-1.746,14.942-.237,4.505,1.517,7.275,7.696,11.667,9.448,4.413,1.76,10.46-.353,14.752,1.636s8.901,3.657,13.08,5.877c4.193,2.227,6.351,8.069,10.404,10.513,4.064,2.451,7.946,5.005,11.863,7.666,3.924,2.666,10.056,2.279,13.824,5.148,3.774,2.873,8.346,4.989,11.955,8.058s3.019,10.85,6.459,14.109,6.571,6.613,9.832,10.054c3.26,3.44,6.319,6.848,9.39,10.461,3.069,3.609,8.936,4.896,11.809,8.67,2.869,3.768,7.46,6.429,10.126,10.354,2.661,3.917.141,11.156,2.591,15.22s5.924,7.382,8.151,11.574c2.22,4.178,3.831,8.553,5.827,12.862,1.989,4.291,3.693,8.584,5.453,12.997s7.494,7.323,9.011,11.828c1.508,4.478,1.343,9.557,2.613,14.14,1.261,4.552,1.65,9.34,2.668,13.987,1.01,4.611,4.245,8.865,5.01,13.564.758,4.657-2.375,9.869-1.866,14.604.504,4.689,3.521,9.176,3.775,13.935.251,4.706,2.687,9.49,2.687,14.259Z"/>
    <path d="M615.643,350c0,4.769-.4,9.661-.651,14.368-.254,4.759-3.523,9.33-4.028,14.019-.509,4.736-.47,9.543-1.228,14.2-.765,4.699-4.733,8.718-5.744,13.329-1.018,4.648-2.977,8.882-4.238,13.434-1.27,4.583,3.041,10.842,1.533,15.321-1.517,4.505-6.637,7.718-8.388,12.109-1.76,4.413-3.015,8.989-5.004,13.28-1.997,4.309-5.776,7.641-7.996,11.819-2.227,4.193-.299,10.741-2.743,14.795-2.451,4.064-7.114,6.794-9.775,10.71-2.666,3.924-7.383,6.297-10.252,10.066-2.873,3.774-6.467,6.774-9.536,10.383-3.071,3.612-3.883,9.131-7.143,12.571s-5.838,7.598-9.279,10.859c-3.44,3.26-5.569,8.151-9.182,11.222-3.609,3.069-8.958,4.15-12.731,7.023-3.768,2.869-6.587,7.217-10.511,9.883s-9.543,2.773-13.608,5.224c-4.053,2.444-9.196,2.819-13.389,5.046-4.178,2.22-7.983,4.945-12.291,6.942-4.291,1.989-7.523,6.404-11.937,8.164-4.391,1.751-8.239,5.331-12.743,6.848-4.478,1.508-9.837.519-14.419,1.789-4.552,1.261-8.709,4.538-13.357,5.556-4.611,1.01-9.836-.707-14.535.058-4.657.758-8.995,4.705-13.731,5.214-4.689.504-9.752-2.149-14.512-1.895-4.706.251-9.457.269-14.226.269s-9.413-2.024-14.119-2.275c-4.759-.254-9.57,1.051-14.258.547-4.736-.509-9.762.904-14.419.147-4.699-.765-8.774-4.81-13.385-5.82-4.648-1.018-9.443-1.206-13.995-2.467-4.583-1.27-8.476-4.514-12.954-6.022-4.505-1.517-9.513-1.425-13.905-3.176-4.413-1.76-9.537-1.923-13.828-3.911s-8.926-3.579-13.105-5.799-8.606-4.309-12.659-6.753c-4.064-2.451-8.553-4.517-12.469-7.177-3.924-2.666-6.04-7.993-9.808-10.862-3.774-2.873-6.675-6.783-10.285-9.852-3.612-3.071-7.578-5.686-11.018-8.945-3.441-3.26-7.884-5.546-11.145-8.987-3.26-3.44-6.896-6.645-9.967-10.258-3.069-3.609-6.554-7.023-9.427-10.797-2.869-3.768-4.477-8.55-7.143-12.474-2.661-3.917-2.88-9.364-5.33-13.429-2.444-4.053-9.365-5.619-11.592-9.811-2.22-4.178-.124-10.566-2.121-14.875-1.989-4.291-3.32-8.774-5.08-13.188-1.751-4.391-5.254-8.094-6.771-12.599-1.508-4.478-5.478-8.294-6.747-12.877-1.261-4.552-2.703-9.234-3.721-13.882-1.01-4.611,2.267-10.106,1.503-14.805-.758-4.657-.064-9.424-.573-14.16-.504-4.689-.157-9.309-.411-14.068-.251-4.706-3.811-9.265-3.811-14.034s2.852-9.365,3.104-14.071c.254-4.759-.324-9.443.181-14.132.509-4.736,1.42-9.295,2.178-13.952.765-4.699-.66-9.75.351-14.361,1.018-4.648,1.79-9.37,3.052-13.922,1.27-4.583.74-9.803,2.248-14.282,1.517-4.505,3.79-8.862,5.541-13.254,1.76-4.413,7.373-7.163,9.361-11.454,1.997-4.309,5.117-7.899,7.337-12.077s3.418-8.81,5.862-12.863c2.451-4.064,5.523-7.583,8.184-11.499,2.666-3.924,4.356-8.419,7.225-12.188,2.873-3.774,5.457-7.704,8.526-11.313,3.071-3.612,6.725-6.614,9.985-10.054,3.26-3.441,6.262-7.039,9.703-10.299,3.44-3.26,6.917-6.389,10.529-9.461,3.609-3.069,6.9-6.467,10.674-9.34,3.768-2.869,7.634-5.557,11.558-8.223,3.917-2.661,9.333-2.786,13.398-5.237,4.053-2.444,5.031-10.305,9.223-12.532,4.178-2.22,11.01.878,15.319-1.118,4.291-1.989,6.116-9.775,10.53-11.535,4.391-1.751,9.65-1.582,14.155-3.099,4.478-1.508,9.145-2.723,13.728-3.993,4.552-1.261,9.476-1.264,14.123-2.282,4.611-1.01,9.008-3.541,13.707-4.306,4.657-.758,9.295-2.859,14.03-3.368,4.689-.504,9.667.581,14.427.327,4.706-.251,9.54,3.554,14.309,3.554s9.673-5.133,14.379-4.882c4.759.254,9.34,3.543,14.029,4.047,4.736.509,9.948-1.953,14.606-1.195,4.699.765,8.172,7.899,12.784,8.91,4.648,1.018,9.27,1.466,13.822,2.727,4.583,1.27,10.464-1.746,14.942-.237,4.505,1.517,7.275,7.696,11.667,9.448,4.413,1.76,10.46-.353,14.752,1.636s8.901,3.657,13.08,5.877c4.193,2.227,6.351,8.069,10.404,10.513,4.064,2.451,7.946,5.005,11.863,7.666,3.924,2.666,10.056,2.279,13.824,5.148,3.774,2.873,8.346,4.989,11.955,8.058s3.019,10.85,6.459,14.109,6.571,6.613,9.832,10.054c3.26,3.44,6.319,6.848,9.39,10.461,3.069,3.609,8.936,4.896,11.809,8.67,2.869,3.768,7.46,6.429,10.126,10.354,2.661,3.917.141,11.156,2.591,15.22s5.924,7.382,8.151,11.574c2.22,4.178,3.831,8.553,5.827,12.862,1.989,4.291,3.693,8.584,5.453,12.997s7.494,7.323,9.011,11.828c1.508,4.478,1.343,9.557,2.613,14.14,1.261,4.552,1.65,9.34,2.668,13.987,1.01,4.611,4.245,8.865,5.01,13.564.758,4.657-2.375,9.869-1.866,14.604.504,4.689,3.521,9.176,3.775,13.935.251,4.706,2.687,9.49,2.687,14.259Z" style="fill: none; stroke: #000; stroke-miterlimit: 10; stroke-width: 50px;"/>
  </g>
  <g>
    <path d="M192.951,373.863c1.314,7.135,8.685,2.119,14.655,6.242,5.971,4.123,4.51,6.238,10.481,10.362,5.97,4.123,4.694,5.97,10.664,10.093,5.97,4.123,9.427-.883,15.398,3.241,5.971,4.123,3.628,7.516,9.598,11.639,5.969,4.122,7.828,1.429,13.797,5.551,5.97,4.123,5.015,5.507,10.985,9.63,5.972,4.124,5.993,4.094,11.965,8.219,5.97,4.123,3.514,7.68,9.484,11.803,5.974,4.126,8.447.546,14.422,4.672,5.974,4.126,3.923,6.648,11.151,5.959,7.153-.682,3.634-3.727,8.622-8.898,4.99-5.173,6.059-4.141,11.049-9.314,4.989-5.172,5.532-4.647,10.521-9.819,4.99-5.173,7.051-3.185,12.042-8.358,4.991-5.174,4.746-5.41,9.738-10.584,4.99-5.173,5.157-5.013,10.147-10.186,4.99-5.173,1.573-8.47,6.563-13.643,4.991-5.174,4.022-6.108,9.013-11.282,4.992-5.175,7.858-2.409,12.85-7.584,4.991-5.174,3.178-6.922,8.169-12.096,4.991-5.174,7.381-2.869,12.372-8.044,4.99-5.173,1.995-8.062,6.985-13.235,4.99-5.173,8.302-1.978,13.292-7.151,4.991-5.174,2.229-7.839,7.22-13.014,4.993-5.176,4.96-5.208,9.954-10.384,4.992-5.174,8.039-2.235,13.03-7.409,4.995-5.178,1.844-8.218,6.839-13.396,4.995-5.178,8.899-1.544,8.649-8.734-.277-7.974-1.055-7.278-6.435-13.17-5.378-5.89-5.419-5.852-10.798-11.742-5.382-5.894-7.95-3.549-13.332-9.443-5.382-5.894-1.766-9.912-9.729-10.458-7.033-.482-3.194,4.054-7.955,9.252-4.762,5.199-6.142,3.935-10.904,9.134-4.761,5.198-2.641,7.14-7.403,12.338-4.761,5.199-8.545,1.733-13.307,6.931-4.762,5.199-.814,8.814-5.576,14.013-4.762,5.2-9.576.792-14.338,5.991-4.762,5.199-3.127,6.696-7.889,11.895-4.762,5.2-2.932,6.876-7.694,12.075s-3.936,5.953-8.697,11.152c-4.761,5.198-4.047,5.852-8.808,11.051-4.762,5.2-6.348,3.747-11.111,8.947-4.764,5.201-4.26,5.663-9.024,10.864-4.762,5.2-4.617,5.333-9.379,10.533-4.766,5.203-4.15,5.767-8.916,10.97-4.766,5.203-4.584,8.825-11.612,9.445-6.742.595-6.569-3.821-11.776-8.145-5.206-4.323-3.652-6.194-8.858-10.517-5.206-4.323-7.54-1.512-12.746-5.835-5.207-4.324-5.297-4.216-10.504-8.54-5.209-4.326-1.111-9.261-6.32-13.587-5.208-4.324-7.046-2.11-12.253-6.434-5.211-4.327-6.224-3.107-11.435-7.434-5.211-4.327-2.451-7.913-9.164-7.012-6.914.927-5.15,2.414-9.329,8s-5.047,4.94-9.227,10.528c-4.179,5.586-3.457,6.127-7.635,11.713-4.182,5.59-3.852,5.289-9.281,9.678-6.311,5.101-9.484,6.66-8.22,13.526Z" style="fill: #fff;"/>
    <path d="M192.951,373.863c1.314,7.135,8.685,2.119,14.655,6.242,5.971,4.123,4.51,6.238,10.481,10.362,5.97,4.123,4.694,5.97,10.664,10.093,5.97,4.123,9.427-.883,15.398,3.241,5.971,4.123,3.628,7.516,9.598,11.639,5.969,4.122,7.828,1.429,13.797,5.551,5.97,4.123,5.015,5.507,10.985,9.63,5.972,4.124,5.993,4.094,11.965,8.219,5.97,4.123,3.514,7.68,9.484,11.803,5.974,4.126,8.447.546,14.422,4.672,5.974,4.126,3.923,6.648,11.151,5.959,7.153-.682,3.634-3.727,8.622-8.898,4.99-5.173,6.059-4.141,11.049-9.314,4.989-5.172,5.532-4.647,10.521-9.819,4.99-5.173,7.051-3.185,12.042-8.358,4.991-5.174,4.746-5.41,9.738-10.584,4.99-5.173,5.157-5.013,10.147-10.186,4.99-5.173,1.573-8.47,6.563-13.643,4.991-5.174,4.022-6.108,9.013-11.282,4.992-5.175,7.858-2.409,12.85-7.584,4.991-5.174,3.178-6.922,8.169-12.096,4.991-5.174,7.381-2.869,12.372-8.044,4.99-5.173,1.995-8.062,6.985-13.235,4.99-5.173,8.302-1.978,13.292-7.151,4.991-5.174,2.229-7.839,7.22-13.014,4.993-5.176,4.96-5.208,9.954-10.384,4.992-5.174,8.039-2.235,13.03-7.409,4.995-5.178,1.844-8.218,6.839-13.396,4.995-5.178,8.899-1.544,8.649-8.734-.277-7.974-1.055-7.278-6.435-13.17-5.378-5.89-5.419-5.852-10.798-11.742-5.382-5.894-7.95-3.549-13.332-9.443-5.382-5.894-1.766-9.912-9.729-10.458-7.033-.482-3.194,4.054-7.955,9.252-4.762,5.199-6.142,3.935-10.904,9.134-4.761,5.198-2.641,7.14-7.403,12.338-4.761,5.199-8.545,1.733-13.307,6.931-4.762,5.199-.814,8.814-5.576,14.013-4.762,5.2-9.576.792-14.338,5.991-4.762,5.199-3.127,6.696-7.889,11.895-4.762,5.2-2.932,6.876-7.694,12.075s-3.936,5.953-8.697,11.152c-4.761,5.198-4.047,5.852-8.808,11.051-4.762,5.2-6.348,3.747-11.111,8.947-4.764,5.201-4.26,5.663-9.024,10.864-4.762,5.2-4.617,5.333-9.379,10.533-4.766,5.203-4.15,5.767-8.916,10.97-4.766,5.203-4.584,8.825-11.612,9.445-6.742.595-6.569-3.821-11.776-8.145-5.206-4.323-3.652-6.194-8.858-10.517-5.206-4.323-7.54-1.512-12.746-5.835-5.207-4.324-5.297-4.216-10.504-8.54-5.209-4.326-1.111-9.261-6.32-13.587-5.208-4.324-7.046-2.11-12.253-6.434-5.211-4.327-6.224-3.107-11.435-7.434-5.211-4.327-2.451-7.913-9.164-7.012-6.914.927-5.15,2.414-9.329,8s-5.047,4.94-9.227,10.528c-4.179,5.586-3.457,6.127-7.635,11.713-4.182,5.59-3.852,5.289-9.281,9.678-6.311,5.101-9.484,6.66-8.22,13.526Z" style="fill: none; stroke: #fff; stroke-linecap: round; stroke-linejoin: round; stroke-width: 30px;"/>
  </g>
</svg>