<?xml version="1.0" encoding="UTF-8"?>
<svg id="Big_Assets" data-name="Big Assets" xmlns="http://www.w3.org/2000/svg" width="700" height="700" viewBox="0 0 700 700">
  <g>
    <path d="M611.18,350c0,4.769,3.304,9.621,3.053,14.327-.254,4.759-1.22,9.537-1.724,14.225-.509,4.736-3.414,9.149-4.172,13.806-.765,4.699.651,9.819-.36,14.43-1.018,4.648-4.192,8.777-5.453,13.328-1.27,4.583-5.012,8.295-6.52,12.774-1.517,4.505.456,10.219-1.295,14.611-1.76,4.413-6.989,7.264-8.978,11.556s.693,10.931-1.527,15.109c-2.227,4.193-5.451,7.943-7.895,11.997-2.451,4.064-6.79,6.949-9.45,10.866s-3.895,8.91-6.764,12.679c-2.873,3.774-9.613,4.363-12.682,7.972-3.071,3.612-4.37,8.653-7.629,12.093-3.26,3.441-5.236,8.162-8.677,11.422-3.44,3.26-8.436,4.771-12.048,7.843-3.609,3.069-6.681,6.737-10.455,9.61-3.768,2.869-7.615,5.601-11.539,8.266-3.917,2.661-7.693,5.528-11.758,7.978-4.053,2.444-6.947,7.091-11.139,9.318-4.178,2.22-9.16,3.069-13.469,5.066s-10.023.569-14.436,2.329c-4.391,1.751-7.633,6.548-12.138,8.065-4.478,1.508-9.391,1.71-13.973,2.98-4.552,1.261-9.219,2.013-13.866,3.031-4.611,1.01-9.462.451-14.161,1.216-4.657.758-9.178,1.917-13.914,2.427-4.689.504-9.316,1.05-14.075,1.304-4.706.251-9.366.888-14.135.888s-9.648,3.467-14.354,3.216c-4.759-.254-9.249-4.144-13.938-4.648-4.736-.509-9.053-3.186-13.71-3.944-4.699-.765-10.428,3.995-15.039,2.984-4.648-1.018-9.288-2.586-13.84-3.848-4.583-1.27-8.636-4.489-13.115-5.997-4.505-1.517-8.645-4.001-13.036-5.753-4.413-1.76-9.771-1.416-14.062-3.405-4.309-1.997-7.39-6.533-11.568-8.753-4.193-2.227-7.302-6.178-11.356-8.622-4.064-2.451-10.474-1.201-14.391-3.862-3.924-2.666-8.233-5.003-12.001-7.873s-4.574-9.461-8.183-12.53c-3.612-3.071-6.487-6.766-9.927-10.025-3.441-3.26-7.57-5.661-10.831-9.102-3.26-3.44-7.904-5.593-10.976-9.205-3.069-3.609-3.249-9.452-6.122-13.225-2.869-3.768-9.626-4.7-12.291-8.624-2.661-3.917-2.679-9.551-5.129-13.615-2.444-4.053-2.796-9.155-5.023-13.347-2.22-4.178-7.759-6.626-9.755-10.935-1.989-4.291-4.592-8.378-6.352-12.791-1.751-4.391-1.244-9.63-2.761-14.134-1.508-4.478-.912-9.498-2.181-14.08-1.261-4.552-6.449-8.09-7.468-12.737-1.01-4.611.633-9.736-.132-14.435-.758-4.657-5.669-8.81-6.178-13.546-.504-4.689,1.97-9.715,1.716-14.474-.251-4.706.827-9.439.827-14.208s.117-9.438.368-14.144c.254-4.759,1.038-9.371,1.542-14.059.509-4.736-3.945-10.168-3.187-14.825.765-4.699,2.838-9.286,3.849-13.898,1.018-4.648,6.083-8.289,7.344-12.841,1.27-4.583.918-9.599,2.427-14.077,1.517-4.505,4.792-8.301,6.544-12.693,1.76-4.413.073-10.313,2.061-14.605,1.997-4.309,4.532-8.46,6.752-12.639,2.227-4.193,3.138-9.286,5.582-13.34,2.451-4.064,8.105-6.177,10.766-10.094,2.666-3.924,6.444-6.991,9.314-10.76,2.873-3.774,4.418-8.577,7.487-12.186,3.071-3.612,6.752-6.679,10.012-10.119,3.26-3.441,4.259-9.25,7.7-12.511,3.44-3.26,10.427-2.612,14.04-5.683,3.609-3.069,5.471-8.262,9.244-11.135,3.768-2.869,8.008-5.137,11.932-7.803,3.917-2.661,7.112-6.555,11.176-9.005,4.053-2.444,9.521-2.45,13.714-4.677s6.525-8.299,10.834-10.296c4.291-1.989,8.821-3.926,13.234-5.686,4.391-1.751,10.271.279,14.776-1.238,4.478-1.508,8.788-3.594,13.37-4.863,4.552-1.261,9.466-1.021,14.114-2.04,4.611-1.01,9.014-3.048,13.712-3.812,4.657-.758,9.311-1.778,14.046-2.287,4.689-.504,9.447-.61,14.206-.864,4.706-.251,9.448.455,14.217.455s9.339,2.52,14.045,2.771c4.759.254,9.288.87,13.977,1.374,4.736.509,10.184-4.617,14.841-3.859,4.699.765,8.993,3.915,13.605,4.925,4.648,1.018,8.377,5.327,12.929,6.589,4.583,1.27,9.137,2.052,13.615,3.56,4.505,1.517,8.815,3.12,13.207,4.871,4.413,1.76,9.418,1.893,13.71,3.881,4.309,1.997,7.708,5.614,11.886,7.834s8.479,4.036,12.533,6.48c4.064,2.451,9.094,3.294,13.011,5.955,3.924,2.666,6.084,7.659,9.853,10.528s10.248,2.348,13.858,5.417c3.612,3.071,7.617,5.873,11.057,9.132,3.441,3.26,4.424,9.032,7.684,12.473s8.972,4.73,12.044,8.342,3.525,9.378,6.398,13.151c2.869,3.768,4.796,8.128,7.462,12.053,2.661,3.917,7.499,6.413,9.95,10.477,2.444,4.053,1.297,10.08,3.525,14.272,2.22,4.178,8.222,6.432,10.218,10.741,1.989,4.291,1.792,9.544,3.552,13.957,1.751,4.391,1.267,9.496,2.784,14,1.508,4.478,7.813,7.465,9.083,12.048,1.261,4.552.592,9.656,1.61,14.304,1.01,4.611,4.584,8.833,5.348,13.531.758,4.657-1.254,9.789-.745,14.524.504,4.689,1.6,9.379,1.854,14.138.251,4.706-1.713,9.487-1.713,14.256Z" style="fill: #fff;"/>
    <path d="M611.18,350c0,4.769,3.304,9.621,3.053,14.327-.254,4.759-1.22,9.537-1.724,14.225-.509,4.736-3.414,9.149-4.172,13.806-.765,4.699.651,9.819-.36,14.43-1.018,4.648-4.192,8.777-5.453,13.328-1.27,4.583-5.012,8.295-6.52,12.774-1.517,4.505.456,10.219-1.295,14.611-1.76,4.413-6.989,7.264-8.978,11.556s.693,10.931-1.527,15.109c-2.227,4.193-5.451,7.943-7.895,11.997-2.451,4.064-6.79,6.949-9.45,10.866s-3.895,8.91-6.764,12.679c-2.873,3.774-9.613,4.363-12.682,7.972-3.071,3.612-4.37,8.653-7.629,12.093-3.26,3.441-5.236,8.162-8.677,11.422-3.44,3.26-8.436,4.771-12.048,7.843-3.609,3.069-6.681,6.737-10.455,9.61-3.768,2.869-7.615,5.601-11.539,8.266-3.917,2.661-7.693,5.528-11.758,7.978-4.053,2.444-6.947,7.091-11.139,9.318-4.178,2.22-9.16,3.069-13.469,5.066s-10.023.569-14.436,2.329c-4.391,1.751-7.633,6.548-12.138,8.065-4.478,1.508-9.391,1.71-13.973,2.98-4.552,1.261-9.219,2.013-13.866,3.031-4.611,1.01-9.462.451-14.161,1.216-4.657.758-9.178,1.917-13.914,2.427-4.689.504-9.316,1.05-14.075,1.304-4.706.251-9.366.888-14.135.888s-9.648,3.467-14.354,3.216c-4.759-.254-9.249-4.144-13.938-4.648-4.736-.509-9.053-3.186-13.71-3.944-4.699-.765-10.428,3.995-15.039,2.984-4.648-1.018-9.288-2.586-13.84-3.848-4.583-1.27-8.636-4.489-13.115-5.997-4.505-1.517-8.645-4.001-13.036-5.753-4.413-1.76-9.771-1.416-14.062-3.405-4.309-1.997-7.39-6.533-11.568-8.753-4.193-2.227-7.302-6.178-11.356-8.622-4.064-2.451-10.474-1.201-14.391-3.862-3.924-2.666-8.233-5.003-12.001-7.873s-4.574-9.461-8.183-12.53c-3.612-3.071-6.487-6.766-9.927-10.025-3.441-3.26-7.57-5.661-10.831-9.102-3.26-3.44-7.904-5.593-10.976-9.205-3.069-3.609-3.249-9.452-6.122-13.225-2.869-3.768-9.626-4.7-12.291-8.624-2.661-3.917-2.679-9.551-5.129-13.615-2.444-4.053-2.796-9.155-5.023-13.347-2.22-4.178-7.759-6.626-9.755-10.935-1.989-4.291-4.592-8.378-6.352-12.791-1.751-4.391-1.244-9.63-2.761-14.134-1.508-4.478-.912-9.498-2.181-14.08-1.261-4.552-6.449-8.09-7.468-12.737-1.01-4.611.633-9.736-.132-14.435-.758-4.657-5.669-8.81-6.178-13.546-.504-4.689,1.97-9.715,1.716-14.474-.251-4.706.827-9.439.827-14.208s.117-9.438.368-14.144c.254-4.759,1.038-9.371,1.542-14.059.509-4.736-3.945-10.168-3.187-14.825.765-4.699,2.838-9.286,3.849-13.898,1.018-4.648,6.083-8.289,7.344-12.841,1.27-4.583.918-9.599,2.427-14.077,1.517-4.505,4.792-8.301,6.544-12.693,1.76-4.413.073-10.313,2.061-14.605,1.997-4.309,4.532-8.46,6.752-12.639,2.227-4.193,3.138-9.286,5.582-13.34,2.451-4.064,8.105-6.177,10.766-10.094,2.666-3.924,6.444-6.991,9.314-10.76,2.873-3.774,4.418-8.577,7.487-12.186,3.071-3.612,6.752-6.679,10.012-10.119,3.26-3.441,4.259-9.25,7.7-12.511,3.44-3.26,10.427-2.612,14.04-5.683,3.609-3.069,5.471-8.262,9.244-11.135,3.768-2.869,8.008-5.137,11.932-7.803,3.917-2.661,7.112-6.555,11.176-9.005,4.053-2.444,9.521-2.45,13.714-4.677s6.525-8.299,10.834-10.296c4.291-1.989,8.821-3.926,13.234-5.686,4.391-1.751,10.271.279,14.776-1.238,4.478-1.508,8.788-3.594,13.37-4.863,4.552-1.261,9.466-1.021,14.114-2.04,4.611-1.01,9.014-3.048,13.712-3.812,4.657-.758,9.311-1.778,14.046-2.287,4.689-.504,9.447-.61,14.206-.864,4.706-.251,9.448.455,14.217.455s9.339,2.52,14.045,2.771c4.759.254,9.288.87,13.977,1.374,4.736.509,10.184-4.617,14.841-3.859,4.699.765,8.993,3.915,13.605,4.925,4.648,1.018,8.377,5.327,12.929,6.589,4.583,1.27,9.137,2.052,13.615,3.56,4.505,1.517,8.815,3.12,13.207,4.871,4.413,1.76,9.418,1.893,13.71,3.881,4.309,1.997,7.708,5.614,11.886,7.834s8.479,4.036,12.533,6.48c4.064,2.451,9.094,3.294,13.011,5.955,3.924,2.666,6.084,7.659,9.853,10.528s10.248,2.348,13.858,5.417c3.612,3.071,7.617,5.873,11.057,9.132,3.441,3.26,4.424,9.032,7.684,12.473s8.972,4.73,12.044,8.342,3.525,9.378,6.398,13.151c2.869,3.768,4.796,8.128,7.462,12.053,2.661,3.917,7.499,6.413,9.95,10.477,2.444,4.053,1.297,10.08,3.525,14.272,2.22,4.178,8.222,6.432,10.218,10.741,1.989,4.291,1.792,9.544,3.552,13.957,1.751,4.391,1.267,9.496,2.784,14,1.508,4.478,7.813,7.465,9.083,12.048,1.261,4.552.592,9.656,1.61,14.304,1.01,4.611,4.584,8.833,5.348,13.531.758,4.657-1.254,9.789-.745,14.524.504,4.689,1.6,9.379,1.854,14.138.251,4.706-1.713,9.487-1.713,14.256Z" style="fill: none; stroke: #000; stroke-miterlimit: 10; stroke-width: 50px;"/>
  </g>
  <g>
    <path d="M200.481,367.421c4.676-5.756,5.703-4.922,10.379-10.678,4.676-5.757.853-8.863,5.53-14.62s3.804-6.464,8.48-12.221c4.676-5.757,6.54-4.242,11.216-9.999s4.771-5.68,9.447-11.437,4.182-6.161,8.859-11.919c4.676-5.757,6.218-4.505,10.894-10.262,4.677-5.758,4.151-6.184,8.828-11.942,4.677-5.758,6.62-4.179,11.297-9.937,4.675-5.756,1.771-8.115,6.447-13.871,4.677-5.758,7.902-3.138,12.579-8.895,4.678-5.76,1.952-7.974,6.63-13.734s7.2-3.708,11.876-9.466c4.68-5.762,2.967-7.153,7.646-12.915,4.68-5.762,4.035-6.285,8.715-12.047,3.103-3.82,7.974-5.211,12.056-7.377,4.238-2.248,7.923-8.18,12.625-8.593,4.703-.413,9.748,3.6,14.313,5.075,4.398,1.421,10.116,1.899,13.837,5.12,5.276,4.566,4.459,5.509,9.735,10.075,5.275,4.565,5.726,4.044,11.001,8.609,5.275,4.566,6.067,3.652,11.342,8.218,5.274,4.565,5.15,4.708,10.424,9.272,5.274,4.565,3.026,7.162,8.3,11.727s7.207,2.335,12.482,6.9c5.277,4.567,1.716,8.682,6.993,13.249,5.276,4.566,6.109,3.604,11.384,8.17,5.279,4.569,6.814,2.796,12.093,7.365,5.279,4.569,6.33,3.356,11.609,7.925,3.528,3.054,6.725,7.295,8.745,11.213,2.09,4.054,4.976,9.024,5.402,13.498.427,4.473-4.342,9.055-5.627,13.431-1.242,4.23-3.046,8-5.933,11.665-4.331,5.5-3.159,6.423-7.49,11.923-4.333,5.501-4.731,5.188-9.064,10.689-4.333,5.502-6.872,3.503-11.206,9.005s-.891,8.212-5.223,13.713c-4.333,5.502-6.436,3.845-10.769,9.346-4.333,5.502-3.276,6.334-7.609,11.837s-4.099,5.688-8.433,11.191c-4.333,5.502-3.749,5.962-8.082,11.464s-6.958,3.436-11.292,8.938c-4.332,5.501-1.042,8.093-5.374,13.594-4.332,5.501-8.434,2.271-12.767,7.772-4.334,5.503-.286,8.69-4.62,14.193-4.335,5.505-5.137,4.873-9.472,10.378s-5.545,4.549-9.879,10.052c-4.337,5.507-1.94,7.395-6.276,12.901s-8.617,2.136-12.953,7.643c-3.097,3.933-2.749,11.865-6.874,14.099-4.286,2.322-10.227,3.853-15.003,4.285-4.775.431-10.121-2.376-14.753-3.892-4.458-1.459-8.328-4.677-12.079-7.992-5.357-4.733-7.055-2.812-12.413-7.545-5.356-4.733-4.12-6.132-9.476-10.865-5.357-4.733-7.293-2.542-12.65-7.275-5.356-4.732-3.525-6.804-8.881-11.536-5.356-4.732-3.43-6.911-8.786-11.643-5.357-4.733-9.039-.566-14.396-5.3-5.359-4.735-5.005-5.135-10.364-9.87-5.357-4.733-4.387-5.831-9.745-10.564-5.361-4.737-5.877-4.153-11.238-8.889s-4.151-6.106-9.512-10.843c-3.509-3.1-7.01-6.463-8.991-10.416-2.05-4.091-.496-9.117-.867-13.609-.371-4.492-1.52-8.821-.17-13.193,1.305-4.225,4.148-7.556,7.1-11.19Z" style="fill: #fff;"/>
    <path d="M200.481,367.421c4.676-5.756,5.703-4.922,10.379-10.678,4.676-5.757.853-8.863,5.53-14.62s3.804-6.464,8.48-12.221c4.676-5.757,6.54-4.242,11.216-9.999s4.771-5.68,9.447-11.437,4.182-6.161,8.859-11.919c4.676-5.757,6.218-4.505,10.894-10.262,4.677-5.758,4.151-6.184,8.828-11.942,4.677-5.758,6.62-4.179,11.297-9.937,4.675-5.756,1.771-8.115,6.447-13.871,4.677-5.758,7.902-3.138,12.579-8.895,4.678-5.76,1.952-7.974,6.63-13.734s7.2-3.708,11.876-9.466c4.68-5.762,2.967-7.153,7.646-12.915,4.68-5.762,4.035-6.285,8.715-12.047,3.103-3.82,7.974-5.211,12.056-7.377,4.238-2.248,7.923-8.18,12.625-8.593,4.703-.413,9.748,3.6,14.313,5.075,4.398,1.421,10.116,1.899,13.837,5.12,5.276,4.566,4.459,5.509,9.735,10.075,5.275,4.565,5.726,4.044,11.001,8.609,5.275,4.566,6.067,3.652,11.342,8.218,5.274,4.565,5.15,4.708,10.424,9.272,5.274,4.565,3.026,7.162,8.3,11.727s7.207,2.335,12.482,6.9c5.277,4.567,1.716,8.682,6.993,13.249,5.276,4.566,6.109,3.604,11.384,8.17,5.279,4.569,6.814,2.796,12.093,7.365,5.279,4.569,6.33,3.356,11.609,7.925,3.528,3.054,6.725,7.295,8.745,11.213,2.09,4.054,4.976,9.024,5.402,13.498.427,4.473-4.342,9.055-5.627,13.431-1.242,4.23-3.046,8-5.933,11.665-4.331,5.5-3.159,6.423-7.49,11.923-4.333,5.501-4.731,5.188-9.064,10.689-4.333,5.502-6.872,3.503-11.206,9.005s-.891,8.212-5.223,13.713c-4.333,5.502-6.436,3.845-10.769,9.346-4.333,5.502-3.276,6.334-7.609,11.837s-4.099,5.688-8.433,11.191c-4.333,5.502-3.749,5.962-8.082,11.464s-6.958,3.436-11.292,8.938c-4.332,5.501-1.042,8.093-5.374,13.594-4.332,5.501-8.434,2.271-12.767,7.772-4.334,5.503-.286,8.69-4.62,14.193-4.335,5.505-5.137,4.873-9.472,10.378s-5.545,4.549-9.879,10.052c-4.337,5.507-1.94,7.395-6.276,12.901s-8.617,2.136-12.953,7.643c-3.097,3.933-2.749,11.865-6.874,14.099-4.286,2.322-10.227,3.853-15.003,4.285-4.775.431-10.121-2.376-14.753-3.892-4.458-1.459-8.328-4.677-12.079-7.992-5.357-4.733-7.055-2.812-12.413-7.545-5.356-4.733-4.12-6.132-9.476-10.865-5.357-4.733-7.293-2.542-12.65-7.275-5.356-4.732-3.525-6.804-8.881-11.536-5.356-4.732-3.43-6.911-8.786-11.643-5.357-4.733-9.039-.566-14.396-5.3-5.359-4.735-5.005-5.135-10.364-9.87-5.357-4.733-4.387-5.831-9.745-10.564-5.361-4.737-5.877-4.153-11.238-8.889s-4.151-6.106-9.512-10.843c-3.509-3.1-7.01-6.463-8.991-10.416-2.05-4.091-.496-9.117-.867-13.609-.371-4.492-1.52-8.821-.17-13.193,1.305-4.225,4.148-7.556,7.1-11.19Z" style="fill: none; stroke: #000; stroke-miterlimit: 10; stroke-width: 50px;"/>
  </g>
  <path d="M298.01,252.148c5.529,4.354,5.92,3.856,11.449,8.21,5.529,4.355,2.5,8.202,8.029,12.556,5.529,4.354,7.644,1.667,13.173,6.021,5.529,4.354,4.433,5.745,9.962,10.099,5.529,4.354,6.837,2.694,12.366,7.049,5.53,4.355,3.057,7.495,8.588,11.85s6.61,2.982,12.139,7.336c5.53,4.355,4.498,5.665,10.028,10.02,5.528,4.354,6.6,2.992,12.129,7.346s5.485,4.409,11.013,8.763c5.53,4.355,5.995,3.764,11.525,8.118,5.532,4.356,5.398,4.526,10.93,8.883,5.53,4.355,6.779,2.769,12.309,7.124,5.534,4.358,2.262,8.513,7.796,12.871s7.091,2.381,12.624,6.739" style="fill: none; stroke: #000; stroke-miterlimit: 10; stroke-width: 50px;"/>
</svg>