<?xml version="1.0" encoding="UTF-8"?>
<svg id="Small" xmlns="http://www.w3.org/2000/svg" width="160" height="160" viewBox="0 0 160 160">
  <path d="M101.36,32.585c1.349,1.346.023,1.53.023,3.436s1.581,1.907,1.581,3.813-1.107,1.907-1.107,3.813.908,1.907.908,3.813-.042,1.906-.042,3.812.405,1.906.405,3.813-2.113,1.907-2.113,3.814,1.259,1.91,1.259,3.82-2.156,2.716-.851,4.111c1.221,1.305,2.098-1.309,3.885-1.309s1.787.311,3.575.311,1.787,2.142,3.575,2.142,1.787-1.43,3.574-1.43,1.787.446,3.574.446,1.788.058,3.575.058,1.79-1.934,3.581-1.934,3.621-.502,4.252,1.173c.683,1.811-1.029,2.461-2.255,3.959s-1.063,1.631-2.288,3.128-1.918.932-3.144,2.43-.595,2.012-1.82,3.509-1.522,1.251-2.746,2.747-1.304,1.432-2.528,2.928-1.809,1.021-3.034,2.52-1.277,1.454-2.501,2.951-.841,1.813-2.067,3.312-2.203.697-3.428,2.195-1.603,1.191-2.83,2.69-1.308,1.431-2.534,2.929-.434,2.147-1.66,3.646-2.022.849-3.249,2.348-.335,2.229-1.562,3.728-2.13.757-3.356,2.255-.728,1.907-1.955,3.407-1.716,1.099-2.943,2.599.117,2.6-1.11,4.1-2.406.539-3.636,2.042.422,5.137-1.519,5.14-.082-3.805-1.308-5.303-2.334-.59-3.56-2.088-2.109-.775-3.335-2.273-.623-1.989-1.848-3.486-.476-2.107-1.7-3.603-2.717-.276-3.941-1.772-.485-2.104-1.711-3.602-1.427-1.331-2.652-2.828-1.565-1.221-2.791-2.719.588-2.981-.637-4.479-2.922-.112-4.149-1.61.206-2.669-1.02-4.167-1.238-1.489-2.465-2.988-1.95-.908-3.177-2.407-1.896-.952-3.123-2.451-.89-1.772-2.115-3.27-.948-1.727-2.175-3.227-.166-2.368-1.393-3.868-2.675-.316-3.902-1.816-.81-1.845-2.039-3.348-3.091-1.168-2.415-2.987c.622-1.675,1.743,1.027,3.53,1.027s1.787-1.669,3.575-1.669,1.787.669,3.575.669,1.787,1.383,3.574,1.383,1.787-.343,3.574-.343,1.788-2.523,3.575-2.523,1.79,2.627,3.581,2.627,2.221-.009,3.447-1.314c1.305-1.389-1.04-1.78-1.04-3.686s2.234-1.907,2.234-3.813-1.065-1.907-1.065-3.813.943-1.907.943-3.813-2.436-1.906-2.436-3.812.663-1.906.663-3.813,1.109-1.907,1.109-3.814-1.687-1.91-1.687-3.82-.266-2.797,1.082-4.15,2.236-.832,4.14-.832,1.907,1.226,3.813,1.226,1.905,1.265,3.811,1.265,1.906-2.142,3.813-2.142,1.907.764,3.814.764,1.907-.862,3.814-.862,1.907.274,3.814.274,1.907,1.135,3.813,1.135,1.907-1.359,3.814-1.359,1.907-.293,3.815-.293,1.702.044,3.587-.266c1.818-.299,2.327.446,3.68,1.796ZM67.036,77.601c-1.428,1.376-1.614.03-3.597.03s-1.983,1.581-3.967,1.581-1.986-1.107-3.973-1.107-2.174-1.452-3.048.331c-.864,1.763,1.082.443,2.323,1.964s1.555,1.263,2.795,2.783-.395,2.856.846,4.377,2.217.725,3.459,2.246.493,2.132,1.735,3.653,2.359.606,3.599,2.126,1.001,1.718,2.243,3.239-.417,2.876.825,4.397,2.35.617,3.592,2.139.898,1.806,2.143,3.331.869,3.269,2.836,3.272.137-2.93,1.379-4.451,1.79-1.072,3.03-2.592.928-1.776,2.17-3.296,1.079-1.654,2.321-3.175,1.935-.956,3.176-2.477.61-2.034,1.85-3.554,1.541-1.277,2.782-2.798,1.321-1.456,2.563-2.978,1.825-1.046,3.068-2.567,1.296-1.482,2.541-3.006,2.906-1.124,2.048-2.895c-.865-1.784-1.588-1.016-3.571-1.016s-1.983-.487-3.967-.487-1.986-.106-3.973-.106-2.267,2.509-3.7,1.134c-1.375-1.319,1.148-1.621,1.148-3.527s-1.152-1.907-1.152-3.813,1.169-1.907,1.169-3.813-.644-1.907-.644-3.813.632-1.906.632-3.812-1.737-1.906-1.737-3.813,1.521-1.907,1.521-3.814-2.58-1.91-2.58-3.82,3.767-3.514,2.417-4.866-2.954.998-4.861.998-1.906,1.141-3.811,1.141-1.906-.777-3.812-.777-1.906-.966-3.813-.966-1.91,1.928-3.819,1.928-2.24-2.4-3.591-1.051.356,1.678.356,3.584.438,1.907.438,3.813-2.343,1.907-2.343,3.813,2.191,1.907,2.191,3.813-1.85,1.906-1.85,3.812.016,1.906.016,3.813.934,1.907.934,3.814.534,1.797.853,3.68c.309,1.818.184,2.252-1.192,3.577Z" style="fill: #4d4d4d;"/>
</svg>