<?xml version="1.0" encoding="UTF-8"?>
<svg id="SM_Icons" data-name="SM Icons" xmlns="http://www.w3.org/2000/svg" width="200" height="200" viewBox="0 0 200 200">
  <g>
    <polygon points="53.586 38.735 65.187 38.657 76.789 38.469 88.387 35.537 99.989 37.148 111.594 36.08 123.195 36.167 134.805 37.157 145.938 39.089 142.735 49.601 141.692 62.024 134.57 72.197 130.558 84.137 121.976 93.469 109.804 97.088 98.002 97.83 86.654 96.454 77.006 90.302 68.079 82.666 60.729 73.034 59.262 60.872 56.048 49.574 53.586 38.735" style="fill: #fff;"/>
    <polygon points="53.586 38.735 65.187 38.657 76.789 38.469 88.387 35.537 99.989 37.148 111.594 36.08 123.195 36.167 134.805 37.157 145.938 39.089 142.735 49.601 141.692 62.024 134.57 72.197 130.558 84.137 121.976 93.469 109.804 97.088 98.002 97.83 86.654 96.454 77.006 90.302 68.079 82.666 60.729 73.034 59.262 60.872 56.048 49.574 53.586 38.735" style="fill: none; stroke: #000; stroke-linecap: round; stroke-linejoin: round; stroke-width: 23px;"/>
  </g>
  <g>
    <polygon points="146.414 161.265 134.813 161.343 123.211 161.531 111.613 164.463 100.011 162.852 88.406 163.92 76.805 163.833 65.195 162.843 53.586 160.81 57.265 150.399 58.308 137.976 65.43 127.803 69.442 115.863 78.024 106.531 90.196 102.912 101.998 102.17 113.346 103.546 122.994 109.698 131.921 117.334 139.271 126.966 140.738 139.128 143.952 150.426 146.414 161.265" style="fill: #fff;"/>
    <polygon points="146.414 161.265 134.813 161.343 123.211 161.531 111.613 164.463 100.011 162.852 88.406 163.92 76.805 163.833 65.195 162.843 53.586 160.81 57.265 150.399 58.308 137.976 65.43 127.803 69.442 115.863 78.024 106.531 90.196 102.912 101.998 102.17 113.346 103.546 122.994 109.698 131.921 117.334 139.271 126.966 140.738 139.128 143.952 150.426 146.414 161.265" style="fill: none; stroke: #000; stroke-linecap: round; stroke-linejoin: round; stroke-width: 23px;"/>
  </g>
</svg>