<?xml version="1.0" encoding="UTF-8"?>
<svg id="SM_Icons" data-name="SM Icons" xmlns="http://www.w3.org/2000/svg" width="200" height="200" viewBox="0 0 200 200">
  <polygon points="168.625 84.121 155.914 84.563 145.059 82.321 134.197 84.391 123.99 83.974 123.418 73.516 125.07 62.421 123.571 51.317 122.138 41.472 111.669 40.86 100.006 41.399 88.335 38.609 77.705 41.308 74.531 51.313 78.704 62.409 74.363 73.512 75.319 83.3 65.807 82.699 54.952 85.562 44.09 86.679 31.684 84.201 41.456 94.115 49.304 103.947 57.627 113.356 64.847 123.751 75.507 131.095 81.615 142.477 91.491 150.525 100.001 157.744 108.535 150.559 115.304 139.769 126.865 133.235 131.631 120.662 140.381 111.621 151.871 105.019 157.406 93.041 168.625 84.121" style="fill: #fff;"/>
  <polygon points="168.625 84.121 155.914 84.563 145.059 82.321 134.197 84.391 123.99 83.974 123.418 73.516 125.07 62.421 123.571 51.317 122.138 41.472 111.669 40.86 100.006 41.399 88.335 38.609 77.705 41.308 74.531 51.313 78.704 62.409 74.363 73.512 75.319 83.3 65.807 82.699 54.952 85.562 44.09 86.679 31.684 84.201 41.456 94.115 49.304 103.947 57.627 113.356 64.847 123.751 75.507 131.095 81.615 142.477 91.491 150.525 100.001 157.744 108.535 150.559 115.304 139.769 126.865 133.235 131.631 120.662 140.381 111.621 151.871 105.019 157.406 93.041 168.625 84.121" style="fill: none; stroke: #000; stroke-linecap: round; stroke-linejoin: round; stroke-width: 23px;"/>
</svg>