<?xml version="1.0" encoding="UTF-8"?>
<svg id="SM_Icons" data-name="SM Icons" xmlns="http://www.w3.org/2000/svg" width="200" height="200" viewBox="0 0 200 200">
  <polyline points="40.34 38.729 52.272 35.536 64.201 35.956 76.131 38.016 88.062 39.604 99.989 38.129 111.918 36.843 123.852 38.319 135.783 39.281 147.721 38.355 159.66 35.23" style="fill: none; stroke: #000; stroke-linecap: round; stroke-linejoin: round; stroke-width: 23px;"/>
  <g>
    <polyline points="101.121 83.775 101.082 95.011 98.619 106.243 100.272 117.478 100.678 128.717 99.126 139.953 99.494 151.196 101.621 162.439" style="fill: none; stroke: #000; stroke-linecap: round; stroke-linejoin: round; stroke-width: 23px;"/>
    <polyline points="59.604 118.925 69.251 110.34 74.93 98.698 85.108 90.523 89.846 78.151 98.629 69.525 108.694 77.477 116.438 87.982 121.63 100.584 130.494 110.173 138.469 120.494" style="fill: none; stroke: #000; stroke-linecap: round; stroke-linejoin: round; stroke-width: 23px;"/>
  </g>
</svg>