<?xml version="1.0" encoding="UTF-8"?>
<svg id="Title" xmlns="http://www.w3.org/2000/svg" width="512" height="512" viewBox="0 0 512 512">
  <g>
    <path d="M268.029,454.776c-.741.418,1.559-.765.449-.71-.474.023-.823,4.519-1.482,4.55-.514.025-.812,5.849-1.433,5.878-.53.025-1.38-6.025-1.984-5.998-.539.025-.973,3.025-1.568,3.051-.545.024-1.106.234-1.696.259-.549.024-1.145-.56-1.732-.535-.552.024-1.076,1.138-1.66,1.162-.554.023-1.25-2.963-1.832-2.939-.556.023-1.348-5.459-1.928-5.436-.557.023-1.088.869-1.668.892-.558.022-.916,5.332-1.494,5.355-.559.022-1.13-.025-1.707-.002-.56.021-1.009,3.218-1.585,3.239-.56.021-1.434-8.182-2.009-8.161-.561.021-.886,6.664-1.46,6.685-.561.02-1.055,2.163-1.629,2.184-.562.02-1.457-9.304-2.03-9.284-.562.019-.908,6.474-1.481,6.493-.563.019-1.044,2.68-1.617,2.699-.563.019-1.36-6.944-1.933-6.925-.564.018-.842,9.113-1.414,9.132-.564.018-1.473-10.837-2.045-10.82-.564.017-1.029,3.326-1.601,3.344-.565.017-1.131.035-1.703.052-.565.017-1.037,3.355-1.608,3.372-.565.016-1.082,1.928-1.653,1.944-.565.016-1.327-7.026-1.899-7.01-.566.015-.984,5.665-1.555,5.68-.566.015-1.285-5.844-1.856-5.83-.566.014-1.108,1.001-1.679,1.015-.566.014-1.135-.08-1.706-.066-.567.013-1.001,5.778-1.572,5.791-.567.013-1.224-3.863-1.794-3.851-.565.012-1.211-3.768-1.78-3.756-.565.012-1.088,1.987-1.657,1.999-.566.011-1.073,3.004-1.641,3.015s-1.151-.926-1.72-.916-1.059,4.285-1.628,4.295-1.194-3.405-1.764-3.396-1.225-5.788-1.795-5.779-1.058,4.931-1.627,4.939-1.163-2.035-1.732-2.027-1.135-.111-1.704-.104-1.151-1.663-1.719-1.656-1.077,5.201-1.645,5.207-1.191-5.817-1.76-5.812-1.103,3.409-1.672,3.414-1.114,3.139-1.683,3.143-1.146-.993-1.715-.99-1.125,3.096-1.695,3.099-1.141.772-1.711.774-1.151-2.663-1.721-2.662-1.145-3.497-1.715-3.496-1.142,4.904-1.712,4.904-1.131-7.108-1.701-7.109-1.145,2.678-1.716,2.676-1.14.048-1.711.045-1.146.787-1.716.783-1.144.237-1.714.232c-.571-.005-1.104-3.61-1.673-3.615s-1.175,3.654-1.744,3.647-1.2,4.515-1.768,4.507-1.007-9.394-1.575-9.403-1.31,10.56-1.878,10.55-.986-8.77-1.554-8.781c-.571-.011-1.327,9.206-1.894,9.194-.571-.012-.945-9.052-1.513-9.065-.571-.013-1.106-1.094-1.674-1.108-.571-.014-1.409,10.087-1.976,10.072-.571-.016-1.148-.254-1.715-.271-.571-.017-.886-8.293-1.453-8.312-.571-.019-1.045-2.546-1.611-2.566-.571-.02-1.137.269-1.703.247-.571-.022-1.509,9.344-2.074,9.321-.572-.023-.989-3.808-1.554-3.833-.572-.025-1.222,1.628-1.787,1.601-.572-.027-.953-3.915-1.519-3.944-.572-.029-1.29,2.802-1.855,2.771-.573-.031-1.353,3.492-1.917,3.459-.574-.033-.563-9.724-1.129-9.759-.574-.036-1.693,8.479-2.258,8.442-.574-.038-.655-7.142-1.22-7.182-.574-.041-1.242,1.438-1.805,1.395-.573-.044-1.053-1.04-1.615-1.086-.573-.047-1.2.778-1.761.728-.573-.051-1.532,4.167-2.091,4.113-.573-.054-.966-1.975-1.525-2.032-.574-.059-1.314,1.426-1.873,1.365-.574-.063-.925-2.08-1.483-2.147-.574-.068-1.638,3.709-2.193,3.637-.574-.074-1.191-.091-1.745-.169-.573-.081-.181-6.706-.732-6.791-.575-.088-.841-1.694-1.391-1.787-.575-.097-1.001-.526-1.547-.628-.574-.107-1.603,2.499-2.144,2.386-.573-.12-1.202.263-1.737.137-.572-.135-2.25,4.034-2.777,3.892-.571-.155.384-5.489-.131-5.652-.553-.176.085-3.746-.458-3.93-.55-.186-4.826,10.34-5.366,10.146-.546-.196.228-4.155-.308-4.358-.543-.206-.543-1.836-1.075-2.05-.538-.216-2.877,3.81-3.405,3.586-.534-.227-.622-1.67-1.146-1.905-.53-.237.435-3.793-.084-4.038-.525-.248-.829-.923-1.343-1.178-.519-.258-2.867,3.01-3.375,2.744-.514-.269,1.74-5.701,1.237-5.977-.509-.28-3.857,4.458-4.354,4.171-.502-.291,3.606-8.289,3.116-8.587-.496-.302-3.718,3.904-4.202,3.595-.489-.312.613-2.972.137-3.292-.481-.323-.998-.463-1.467-.793-.474-.334-2.616,1.715-3.077,1.374-.466-.344-1.312-.186-1.766-.538-.458-.355,2.92-5.438,2.475-5.8-.449-.366-7.982,7.78-8.419,7.408-.441-.376,3.648-6.002,3.22-6.385-.432-.386,1.031-2.734.613-3.127-.422-.397-.559-.935-.968-1.338-.413-.407-3.053,1.495-3.452,1.082-.403-.417-4.287,2.416-4.675,1.993-.392-.426.481-2.071.103-2.503-.381-.436-3.855,1.65-4.222,1.209-.371-.445.349-1.932-.007-2.382-.359-.454-1.391-.532-1.736-.991-.348-.463,3.544-4.1,3.21-4.567-.336-.471,2.441-3.035,2.12-3.51-.324-.479-6.309,2.784-6.618,2.301-.312-.488,2.264-2.8,1.967-3.291-.299-.495.936-1.844.651-2.343-.287-.503.128-1.311-.144-1.816-.274-.51-7.535,2.595-7.794,2.082-.261-.517-.047-1.39-.292-1.909-.247-.523,1.536-2.057,1.305-2.582-.233-.529-.655-1.033-.872-1.564-.22-.535-1.646-.668-1.85-1.204-.206-.541,7.868-4.075,7.678-4.617-.191-.546-1.468-.591-1.643-1.137-.177-.551-6.428.792-6.589.242-.162-.556,3.194-2.094,3.048-2.649-.147-.559-2.545-.547-2.675-1.105-.132-.563.525-1.309.409-1.87-.096-.467,4.153-1.611,4.065-2.269-.068-.511-7.222-.226-7.285-.848-.054-.53,1.322-1.269,1.272-1.877-.044-.539,1.579-1.24,1.538-1.838-.038-.544-.297-1.097-.332-1.689-.033-.549,3.434-1.3,3.404-1.888-.029-.552.382-1.12.355-1.706-.026-.554-9.181-.727-9.205-1.312-.023-.556,1.234-1.195,1.213-1.778-.021-.558-2.071-1.075-2.091-1.656-.019-.559,4.385-1.281,4.367-1.862-.017-.561,6.814-1.321,6.799-1.902-.015-.562-10.146-.869-10.16-1.449-.014-.562,7.662-1.316,7.649-1.895-.013-.563-8.829-.95-8.84-1.529-.011-.564,10.581-1.34,10.57-1.918-.01-.564-5.044-1.044-5.053-1.622-.009-.565,2.147-1.169,2.138-1.746-.008-.565,2.077-1.162,2.069-1.739-.008-.566-4.988-1.073-4.994-1.649-.007-.566-4.162-1.095-4.168-1.672-.006-.567,6.668-1.207,6.663-1.783-.005-.567-.17-1.135-.175-1.712-.005-.567,1.841-1.15,1.837-1.726-.004-.567-2.764-1.12-2.768-1.695-.003-.568-3.741-1.121-3.743-1.697-.003-.568,6.203-1.167,6.201-1.742-.002-.568-6.491-1.118-6.493-1.694-.002-.568,4.504-1.152,4.503-1.728-.001-.568-6.636-1.132-6.637-1.707,0-.569,5.045-1.147,5.045-1.722,0-.569-4.494-1.143-4.494-1.718,0-.569,7.869-1.135,7.869-1.71,0-.569-7.274-1.153-7.273-1.728.001-.569,8.148-1.122,8.15-1.697.002-.569.681-1.136.683-1.711.002-.567,1.274-1.128,1.277-1.7.002-.567-2.997-1.147-2.994-1.719.003-.567-2.549-1.149-2.546-1.721.003-.568,3.021-1.119,3.025-1.691.003-.568,1.334-1.127,1.338-1.699.004-.568-9.418-1.203-9.414-1.775.004-.568,9.096-1.071,9.1-1.643.004-.568.4-1.133.405-1.705.005-.568-4.141-1.173-4.136-1.745.005-.569,3.133-1.109,3.139-1.681.005-.569.824-1.129.83-1.701.006-.569-2.206-1.16-2.2-1.732.006-.569,3.493-1.1,3.499-1.672.006-.569-5.629-1.202-5.622-1.774s-3.782-1.185-3.776-1.757,6.47-1.062,6.477-1.634-6.061-1.218-6.054-1.79-.466-1.149-.458-1.721,3.279-1.097,3.286-1.67-1.364-1.161-1.356-1.733,6.272-1.05,6.281-1.622-8.909-1.275-8.901-1.848,8.862-1.005,8.871-1.577-6.931-1.252-6.922-1.824-1.14-1.162-1.131-1.734,4.153-1.073,4.162-1.646,2.446-1.1,2.456-1.672,3.199-1.084,3.21-1.657-3.642-1.204-3.631-1.775-6.875-1.268-6.864-1.839,6.744-1.014,6.755-1.585-.817-1.156-.806-1.728-4.683-1.235-4.671-1.806,3.046-1.081,3.058-1.653-3.329-1.212-3.317-1.783-.582-1.156-.57-1.728,1.873-1.104,1.885-1.676,3.184-1.074,3.197-1.646-3.866-1.23-3.854-1.802-.949-1.167-.936-1.738-.96-1.167-.947-1.738,2.315-1.091,2.329-1.662,6.187-.996,6.201-1.568-5.059-1.267-5.045-1.839,1.079-1.119,1.093-1.691-2.753-1.215-2.739-1.787,6.03-.992,6.045-1.565-5.406-1.286-5.391-1.859,4.484-1.029,4.499-1.602,2.042-1.091,2.058-1.664-7.673-1.356-7.657-1.929,4.566-1.021,4.582-1.593,5.048-1.004,5.064-1.576-2.515-1.216-2.498-1.789-1.621-1.193-1.605-1.765-6.146-1.328-6.129-1.9,10.517-.835,10.534-1.407.231-1.138.249-1.71-1.328-1.186-1.31-1.758-4.301-1.28-4.283-1.852,2.365-1.073,2.384-1.645-4.784-1.3-4.765-1.873.22-1.142.239-1.714,7.432-.903,7.45-1.476-7.88-1.41-7.861-1.982,2.739-1.056,2.759-1.629-1.716-1.208-1.696-1.78,7.749-.878,7.769-1.45-6.19-1.365-6.17-1.937-.174-1.155-.154-1.727,1.912-1.079,1.932-1.651,2.943-1.039,2.964-1.611-1.977-1.221-1.955-1.793,3.226-1.025,3.248-1.597-1.142-1.19-1.12-1.762,1.625-1.083,1.648-1.655-2.974-1.264-2.952-1.836-2.275-1.239-2.252-1.811,5.293-.932,5.317-1.504-2.577-1.253-2.554-1.824,2.469-1.043,2.493-1.615c.024-.574-6.914-1.441-6.89-2.012.025-.574-2.068-1.24-2.043-1.811.025-.574,3.11-1.015,3.135-1.586.025-.574-2.753-1.273-2.727-1.843.026-.574,1.262-1.094,1.288-1.665.026-.574,5.891-.879,5.917-1.45.026-.574-.227-1.157-.2-1.728.027-.574,2.851-1.011,2.878-1.581.027-.574-10.634-1.659-10.606-2.229.028-.574,4.051-.954,4.079-1.524.028-.574.349-1.132.377-1.702.029-.574-.051-1.152-.023-1.721.029-.574-4.305-1.372-4.275-1.941.03-.574,5.089-.886,5.119-1.455.03-.574-4.768-1.404-4.737-1.973.031-.574,3.408-.968,3.439-1.536.031-.574-3.278-1.332-3.246-1.9.032-.574,3.991-.928,4.024-1.496.032-.574,3.248-.962,3.281-1.53.033-.574-6.429-1.524-6.395-2.091.034-.574.074-1.149.108-1.716.034-.574,4.327-.889,4.361-1.456.035-.574-4.243-1.414-4.208-1.98.036-.574,4.916-.841,4.952-1.407.037-.574-.619-1.189-.582-1.755.038-.575-4.072-1.423-4.034-1.989.038-.575.958-1.092.997-1.658.039-.575,2.132-1.007,2.172-1.573.04-.575,2.247-.992,2.287-1.557.041-.575,5.28-.759,5.322-1.324.043-.577-11.466-2.015-11.423-2.58.044-.576.398-1.135.442-1.699.045-.576,7.016-.599,7.062-1.162.047-.576-7.408-1.767-7.361-2.329.048-.576,9.229-.373,9.277-.935.05-.577.053-1.14.103-1.702.052-.578-4.219-1.538-4.166-2.099.054-.578,4.069-.767,4.124-1.327.056-.579-1.722-1.321-1.665-1.878.059-.579.749-1.073.809-1.629.062-.581-1.18-1.286-1.118-1.841.065-.582-5.49-1.817-5.424-2.371.069-.582,4.024-.696,4.094-1.246.074-.584.707-1.086.782-1.632.08-.585-1.175-1.359-1.094-1.901.088-.588,3.43-.644,3.519-1.179.094-.567-.068-1.168.026-1.725.096-.567-5.379-2.094-5.282-2.651.099-.566,5.125-.269,5.224-.824.101-.566,5.038-.239,5.14-.794.104-.565-7.136-2.481-7.031-3.035.106-.565,7.042.186,7.149-.367.109-.564-4.803-2.098-4.693-2.65.112-.564-4.989-2.197-4.876-2.748.116-.563,4.645-.223,4.762-.774.119-.563-2.455-1.72-2.334-2.27.123-.562,3.813-.34,3.938-.889.128-.562,3.98-.244,4.109-.792.132-.561-4.206-2.178-4.072-2.725.137-.56,4.716.005,4.855-.541.142-.559.888-.916,1.032-1.46.148-.557-4.879-2.492-4.729-3.034.154-.556-2.84-2.029-2.684-2.57.16-.554.429-1.129.591-1.667.167-.552,1.908-.662,2.078-1.197.175-.55-1.513-1.758-1.335-2.291.183-.547,9.171,1.929,9.357,1.4.192-.544-3.423-2.412-3.228-2.938.201-.541,5.619.989,5.824.467.212-.538-8.028-4.466-7.811-4.984.223-.533,7.814,2.148,8.042,1.636.235-.528-4.679-3.363-4.438-3.869.249-.522,3.28.363,3.535-.137.263-.515-3.905-3.369-3.635-3.861.278-.506,1.34-.638,1.626-1.121.294-.497,5.161,1.867,5.463,1.395.31-.485-6.095-5.457-5.775-5.918.328-.473,2.736.407,3.075-.041.347-.459,5.305,2.782,5.663,2.348.366-.443-5.467-6.246-5.089-6.664.384-.425,6.142,4.202,6.539,3.802.403-.406-3.417-5.205-3-5.586.421-.385,2.215.654,2.651.292.438-.364,4.269,3.693,4.722,3.352s-2.083-4.702-1.614-5.022,2.012,1.052,2.497.753c.481-.297,2.886,2.963,3.384,2.684.493-.276-3.615-9.139-3.105-9.398.503-.255,1.456.073,1.976-.167.512-.236,3.795,5.784,4.323,5.561.519-.218-.756-4.839-.22-5.045.419-.161,2.636,5.784,3.309,5.623.492-.118-.935-9.528-.312-9.646.518-.098,1.176-.404,1.781-.501.531-.085,2.705,10.516,3.302,10.431.54-.077.167-6.829.759-6.906.545-.07,1.41,2.294,1.998,2.224.548-.065,1.321,1.832,1.906,1.767.551-.061.831-2.654,1.414-2.715.553-.058.464-6.686,1.044-6.744.555-.055,1.464,3.233,2.044,3.178.557-.052,1.331,2.091,1.911,2.038.558-.05.761-4.337,1.34-4.387.559-.048,1.125-.3,1.704-.348.56-.047,1.846,8.689,2.423,8.642.561-.045.869-3.33,1.446-3.375.562-.043.605-7.094,1.182-7.137.563-.042,1.5,4.807,2.077,4.765.563-.041,1.599,6.508,2.175,6.468.563-.04,1.093-.51,1.668-.549.564-.039.72-6.139,1.295-6.177.564-.038,1.13-.157,1.705-.194.564-.037,1.317,2.785,1.891,2.748.565-.036,1.197.984,1.771.949.565-.035.72-6.865,1.295-6.9.565-.034,1.036-1.833,1.61-1.867.566-.033,1.508,6.265,2.082,6.232.566-.033.943-3.464,1.517-3.497.566-.032,1.162.345,1.735.313.566-.031,1.164.409,1.738.378.566-.031,1.482,6.416,2.055,6.386.567-.03.636-9.606,1.209-9.635.567-.029,1.445,5.903,2.019,5.873.567-.029,1.068-1.426,1.641-1.455.567-.028,1.171.634,1.744.606.567-.028,1.16.418,1.733.391.567-.027,1.265,2.652,1.837,2.625.568-.027.986-3.267,1.559-3.294.568-.026.878-5.762,1.451-5.788.568-.026,1.378,5.221,1.951,5.196.568-.025,1.097-.981,1.67-1.007.568-.025,1.222,1.864,1.794,1.839.568-.025,1.338,4.675,1.911,4.651.568-.024.763-8.972,1.336-8.995.568-.024,1.436,7.152,2.008,7.129.568-.023,1.069-1.712,1.642-1.735.569-.023.882-6.505,1.455-6.528.569-.022,1.296,3.919,1.869,3.896.569-.022,1.2,1.55,1.773,1.529.569-.022,1.257,3.117,1.83,3.096.569-.021,1.041-2.627,1.614-2.648.567-.021.885-6.928,1.455-6.949.567-.021,1.125-.453,1.695-.473.567-.02,1.156.417,1.726.397.568-.02,1.488,10.076,2.058,10.056s1.07-1.924,1.641-1.943.984-4.6,1.554-4.619.988-4.646,1.558-4.665,1.351,6.499,1.922,6.481,1.086-1.658,1.657-1.676.993-4.738,1.564-4.755,1.447,9.99,2.017,9.973,1.031-3.561,1.602-3.578,1.189,1.69,1.76,1.673.927-7.339,1.498-7.355,1.431,10.206,2.002,10.19,1.016-4.374,1.587-4.39,1.19,1.864,1.762,1.849,1.137-.077,1.708-.093.959-6.882,1.53-6.897,1.283,5.467,1.854,5.452,1.099-1.643,1.67-1.657,1.119-.909,1.69-.923,1.061-3.338,1.632-3.352,1.356,8.99,1.927,8.976,1.049-3.91,1.62-3.923,1.136-.217,1.708-.23,1.07-3.212,1.642-3.225,1.197,2.505,1.769,2.493,1.109-1.566,1.68-1.578,1.049-4.458,1.619-4.469,1.257,5.678,1.828,5.667,1.111-1.503,1.682-1.514,1.277,7.079,1.848,7.068,1.029-5.852,1.6-5.862,1.153.619,1.724.609,1.058-4.762,1.629-4.772,1.251,6.24,1.822,6.23,1.098-2.61,1.669-2.619,1.093-3.071,1.665-3.08,1.216,4.608,1.788,4.599,1.213,4.705,1.785,4.697,1.108-2.176,1.68-2.184,1.177,2.506,1.748,2.498,1-10.352,1.571-10.359,1.214,5.241,1.786,5.233,1.143-.02,1.715-.027,1.137-.544,1.71-.551,1.091-4.69,1.663-4.696,1.135-1.175,1.707-1.182,1.164,1.554,1.736,1.548,1.17,2.317,1.742,2.312,1.145-.047,1.717-.053,1.121-2.765,1.693-2.77,1.165,2.059,1.737,2.054,1.165,2.378,1.737,2.373,1.138-.966,1.711-.97,1.129-2.526,1.701-2.53,1.138-1.549,1.71-1.552,1.168,3.586,1.741,3.583,1.169,4.537,1.742,4.534,1.142-.457,1.714-.459,1.141-.781,1.714-.784,1.13-4.437,1.703-4.439,1.157,3.603,1.73,3.602,1.135-4.945,1.708-4.946,1.155,4.443,1.728,4.442,1.144-2.806,1.716-2.807,1.149,3.894,1.721,3.894,1.146.195,1.718.195,1.15-4.672,1.723-4.671,1.142,4.327,1.714,4.328,1.162-6.834,1.734-6.833,1.143,2.522,1.715,2.524,1.146.701,1.719.703,1.153-.941,1.725-.938,1.147.563,1.719.566,1.131,3.117,1.704,3.12,1.173-4.026,1.745-4.022,1.163-1.885,1.736-1.881,1.127,3.135,1.699,3.139,1.153-.429,1.725-.424,1.13,2.084,1.702,2.09,1.17-2.175,1.742-2.169,1.182-2.936,1.754-2.929,1.066,7.319,1.638,7.325,1.198-4.103,1.77-4.095,1.188-2.809,1.759-2.802,1.136,1.123,1.708,1.131,1.139.822,1.711.831,1.158-.423,1.729-.414,1.074,4.547,1.645,4.557c.574.01,1.15-.162,1.721-.152.574.01,1.07,4.082,1.641,4.093.574.011,1.214-3.569,1.785-3.558.574.011,1.286-6.675,1.857-6.664.574.012,1.112,1.882,1.683,1.895.574.013.967,8.013,1.538,8.026.574.013,1.319-7.279,1.889-7.265.574.014,1.142.382,1.712.397.574.015,1.014,5.181,1.584,5.196.574.015,1.361-7.848,1.932-7.832.574.016,1.012,4.935,1.582,4.951.574.017,1.254-3.523,1.824-3.506.574.017.894,8.239,1.464,8.257.574.018,1.398-7.807,1.967-7.788.574.019,1.014,4.053,1.584,4.072.574.02,1.209-1.727,1.778-1.707.574.02,1.031,3.19,1.6,3.211.574.021,1.187-1.093,1.756-1.071.574.022.976,4.241,1.544,4.264.574.023,1.496-8.5,2.064-8.477.574.024.89,6.041,1.458,6.066.574.025,1.058,1.877,1.625,1.903.574.026,1.54-8.432,2.107-8.405.574.027,1.026,2.632,1.593,2.66.574.028,1.167-.307,1.733-.278.574.03,1.175-.423,1.741-.392.574.031,1.148.089,1.714.121.573.032.641,8.775,1.206,8.808.573.034,1.796-10.893,2.361-10.858.573.035,1.078,1.29,1.643,1.326.574.037.687,7.07,1.252,7.107.574.038,1.205-.945,1.768-.906.574.04,1.42-3.808,1.984-3.767.574.042,1.278-1.588,1.841-1.545.575.044.96,2.542,1.523,2.587.575.046,1.404-2.953,1.967-2.905.575.048.988,2.05,1.55,2.099.575.051.929,2.5,1.49,2.553.575.054,1.073.795,1.633.85.575.057,1.361-2.027,1.92-1.968.575.06,1.187-.222,1.744-.16.576.064,1.654-4.112,2.21-4.046.577.068,1.02,1.487,1.575,1.557.577.073.954,1.851,1.508,1.925.578.078,1.557-2.493,2.109-2.412.577.084,1.281-.304,1.83-.217.578.091.636,3.599,1.181,3.693.579.1,1.15.368,1.692.471.58.111.575,3.107,1.112,3.221.581.124,1.687-2.099,2.216-1.971.582.141,2.35-3.756,2.867-3.609.583.165.702,2.59,1.2,2.763.549.19,1.663-1.144,2.196-.955.547.194-.552,5.006-.022,5.2.545.199-.108,3.571.42,3.77.544.205,3.546-6.026,4.072-5.822.542.211-1.15,6.083-.627,6.294.541.217,3.225-4.814,3.746-4.598.538.224-1.057,5.483-.539,5.706.536.231,3.412-4.84,3.926-4.609.533.239-.627,4.21-.118,4.449.529.248,3.083-3.665,3.588-3.417.525.258-2.651,7.858-2.152,8.115.52.268,1.053.311,1.547.579.514.279,2.612-2.395,3.097-2.116.507.292,4.045-4.408,4.522-4.116.499.306-1.184,4.233-.716,4.539.49.321-2.474,5.608-2.017,5.93.48.338,3.169-2.538,3.613-2.2.466.356,3.241-2.134,3.671-1.777.452.376-2.874,5.057-2.462,5.435.433.397-1.338,2.725-.947,3.124.41.418,3.951-2.351,4.319-1.929.384.44-1.072,2.176-.732,2.621.354.463,7.723-4.015,8.034-3.547.321.484-.985,2.295-.707,2.786.285.503,1.052,1.01,1.296,1.521.248.52-3.126,2.732-2.916,3.26.211.533-1.654,1.712-1.477,2.255s5.665-.466,5.811.087c.145.55-.585,1.438-.466,1.999.118.555-5.534,2.183-5.437,2.749.095.558,2.835.634,2.913,1.205.077.56,5.211.526,5.276,1.099.064.562-6.025,1.79-5.97,2.365.054.563,2.556.898,2.606,1.473.049.564,5.33.706,5.377,1.282.046.564-7.26,1.74-7.212,2.317.038.45,1.8.874,1.837,1.558.028.506-1.629,1.147-1.601,1.774.023.527,1.385,1.034,1.408,1.643.021.538,3.768.979,3.788,1.579.019.544.907,1.095.925,1.688.017.548-5.343,1.282-5.326,1.87.016.551,1.951,1.065,1.967,1.65.015.553,2.706,1.054,2.721,1.637.014.555-.154,1.132-.139,1.714.014.557-4.851,1.243-4.837,1.824.013.558,3.999,1.036,4.012,1.615.013.559,2.391,1.079,2.404,1.657.012.56-7.912,1.299-7.9,1.877.012.561,2.774,1.072,2.786,1.649.011.562-4.519,1.221-4.508,1.797.011.562,5.763,1.018,5.775,1.594.011.563,3.654,1.064,3.665,1.64.011.563-4.288,1.214-4.277,1.789.01.564-1.218,1.156-1.207,1.731.01.564,7.121,1.009,7.131,1.584.01.565-1.451,1.162-1.442,1.736.01.565,1.575,1.11,1.584,1.684.01.565-10.758,1.315-10.749,1.889.009.566,3.824,1.072,3.833,1.646.009.566,6.437,1.033,6.446,1.606.009.566-7.727,1.259-7.718,1.832.009.564,5.164,1.052,5.173,1.623.009.565-7.085,1.242-7.076,1.813.009.565,9.153.995,9.162,1.566.008.565-5.987,1.224-5.978,1.795.008.566-2.098,1.165-2.09,1.736.008.566-.854,1.146-.846,1.717.008.566-1.545,1.156-1.537,1.727.008.566,2.973,1.093,2.981,1.664.008.567,2.436,1.101,2.444,1.672.008.567.911,1.124.919,1.694.008.567-6.428,1.224-6.42,1.795.008.567,5.12,1.067,5.128,1.638.008.568-2.987,1.176-2.98,1.747.008.568,4.58,1.077,4.587,1.648.007.568-.955,1.15-.947,1.721.007.568,2.689,1.103,2.696,1.674s-3.704,1.186-3.696,1.756,1.747,1.116,1.754,1.687,3.33,1.097,3.337,1.668-2.183,1.166-2.176,1.737-1.439,1.157-1.432,1.728c.007.568-.122,1.138-.115,1.707s-1.308,1.153-1.301,1.722,3.836,1.091,3.843,1.661-4.587,1.193-4.58,1.762,4.867,1.081,4.874,1.651,2.881,1.105,2.888,1.675-1.281,1.154-1.274,1.725.538,1.134.545,1.704-9.996,1.253-9.99,1.823,3.085,1.104,3.091,1.674-.817,1.149-.811,1.72,5.99,1.074,5.996,1.645-6.165,1.21-6.159,1.781,6.666,1.069,6.672,1.64,1.951,1.122,1.957,1.694-9.501,1.246-9.495,1.817,9.445,1.041,9.451,1.611-.821,1.152-.815,1.723-5.335,1.2-5.329,1.771-3.675,1.182-3.669,1.753-.359,1.147-.353,1.718,6.171,1.079,6.177,1.65-1.038,1.155-1.032,1.726,3.126,1.112,3.132,1.683.532,1.139.538,1.71-.739,1.152-.733,1.723.196,1.143.202,1.714-.626,1.151-.621,1.722.029,1.145.034,1.716-1.002,1.155-.997,1.726,2.333,1.122,2.338,1.693-8.21,1.226-8.204,1.797,9.741,1.05,9.746,1.621c.006.574-4.992,1.195-4.986,1.765.006.574,2.482,1.122,2.487,1.692.006.574-6.685,1.21-6.679,1.781.006.574,4.79,1.1,4.795,1.67.005.574-.082,1.147-.076,1.717.005.574,3.596,1.112,3.601,1.682.005.574-5.885,1.202-5.88,1.771.005.574,6.013,1.09,6.018,1.659.005.574-10.443,1.243-10.438,1.813.005.574,3.829,1.11,3.834,1.68.005.574,4.109,1.108,4.114,1.677.005.574,3.09,1.118,3.095,1.687.005.574-2.057,1.165-2.052,1.733.005.575-2.96,1.173-2.955,1.741.005.575,3.539,1.114,3.544,1.682.005.575-6.936,1.208-6.931,1.776.005.575-.444,1.15-.439,1.717.005.575,6.963,1.084,6.968,1.651.005.575-1.939,1.163-1.934,1.729.005.575.775,1.139.78,1.705.005.575,3.38,1.116,3.385,1.681.005.575-2.473,1.167-2.468,1.732.005.575,2.877,1.12,2.881,1.684.005.575-4.302,1.182-4.297,1.745.005.575,3.238,1.117,3.243,1.68.005.576-6.163,1.198-6.159,1.761.005.577-3.614,1.177-3.609,1.739.005.578,3.685,1.116,3.69,1.678.005.578,4.9,1.108,4.905,1.669.005.579-7.696,1.214-7.691,1.774.005.58,3.883,1.118,3.888,1.678.005.581,4.119,1.117,4.124,1.675.005.582-9.522,1.229-9.518,1.786.005.583,6.444,1.099,6.449,1.653.005.585,3.77,1.124,3.774,1.676.005.588-5.033,1.198-5.028,1.748.005.591,4.597,1.124,4.601,1.669.005.599-5.184,1.21-5.18,1.751.005.607-3.186,1.201-3.182,1.732.005.621,8.245,1.125,8.249,1.638.005.66-5.146,1.269-5.142,1.744.009,1.112,3.989,5.077,3.989,5.077-.673.529-6.28-6.612-6.954-6.084s.795,2.399.122,2.928-1.266-.226-1.939.303,4.58,7.22,3.907,7.748-6.86-7.35-7.534-6.821.568,2.11-.106,2.639-.857.296-1.531.825-.732.456-1.406.985,1.285,3.024.61,3.553c-.671.527,1.573,3.384.903,3.911s.799,2.399.129,2.925-2.726-2.091-3.397-1.565-3.541-3.128-4.211-2.602,2.856,5.019,2.185,5.546-4.239-4.018-4.91-3.491-.5.744-1.172,1.271-1.298-.271-1.969.256,2.827,4.983,2.156,5.511-6.017-6.28-6.689-5.753.694,2.267.022,2.794,4.302,6.863,3.63,7.391-1.74-.831-2.412-.303-1,.111-1.673.64-4.986-4.964-5.659-4.436,3.374,5.684,2.701,6.212-1.926-1.065-2.599-.536-.458.805-1.132,1.334-2.228-1.449-2.903-.92,1.781,3.657,1.107,4.187-.93.203-1.604.733,2.088,4.047,1.414,4.576-6.533-6.934-7.207-6.405-1.689-.766-2.363-.237,4.22,6.76,3.547,7.289-4.042-3.762-4.714-3.234,1.865,3.76,1.193,4.288,1.379,3.141.707,3.669-6.341-6.692-7.014-6.164,1.964,3.886,1.292,4.414,1.839,3.726,1.167,4.254-.852.299-1.524.827-4.337-4.14-5.009-3.612-.128,1.22-.801,1.748,1.042,2.711.37,3.239-3.037-2.483-3.709-1.955,4.723,7.399,4.05,7.927-3.153-2.63-3.825-2.102-1.47-.486-2.142.042-1.076.015-1.749.543-2.252-1.482-2.925-.953,2.517,4.592,1.843,5.121-4.961-4.931-5.635-4.401,3.059,5.284,2.385,5.814-4.388-4.199-5.063-3.669,2.34,4.37,1.665,4.9-1.9-1.031-2.575-.501-1.928-1.068-2.603-.538-1.349-.331-2.024.198c-.674.529-1.207-.15-1.881.379s6.262,9.363,5.589,9.891-5.944-6.184-6.617-5.655,2.69,4.812,2.017,5.341-2.877-2.278-3.55-1.749,1.123,2.817.45,3.345,1.062,2.739.389,3.267-1.647-.711-2.32-.182-2.21-1.428-2.883-.899-1.863-.986-2.537-.457,2.735,4.87,2.061,5.399-2.831-2.217-3.505-1.688-1.68-.751-2.354-.221-.377.909-1.052,1.439,1.918,3.833,1.242,4.363-5.371-5.451-6.046-4.921-.018,1.366-.693,1.896-2.717-2.072-3.391-1.542.202,1.646-.472,2.175,2.664,4.781,1.99,5.31-.199,1.134-.873,1.663,1.057,2.734.383,3.263-4.303-4.093-4.977-3.564,2.394,4.437,1.72,4.966.357,1.843-.318,2.372-2.944-2.36-3.618-1.83,1.837,3.73,1.162,4.26-5.909-6.135-6.585-5.605,3.081,5.315,2.406,5.845-3.309-2.825-3.984-2.295,1.05,2.726.375,3.256-4.787-4.708-5.462-4.178,2.653,4.767,1.978,5.297-1.811-.918-2.485-.388-.909.231-1.584.761.382,1.876-.293,2.406.084,1.497-.591,2.027.4,1.9-.276,2.431-2.407-1.674-3.082-1.144-1.24-.189-1.915.341.256,1.715-.419,2.245,1.265,3,.59,3.53-1.263-.22-1.938.31-4.017-3.726-4.693-3.196,4.043,6.54,3.367,7.07-5.182-5.208-5.857-4.677.36,1.848-.316,2.379,2.693,4.82,2.018,5.35-2.144-1.345-2.817-.816-4.51-4.359-5.183-3.831-.862.287-1.535.815,3.567,5.929,2.894,6.457-4.793-4.718-5.467-4.189-.223,1.104-.897,1.634,4.558,7.195,3.882,7.725-5.188-5.215-5.865-4.684-.26,1.059-.935,1.59,3.031,5.25,2.357,5.779-.153,1.194-.827,1.723-7.064-7.608-7.738-7.078,3.618,5.998,2.943,6.528-3.781-3.423-4.457-2.892.748,2.346.071,2.877-1.073.025-1.748.556,1.823,3.712,1.148,4.242,1.105,2.799.43,3.329-7.292-7.893-7.968-7.362,5.979,9.008,5.302,9.539-4.464-4.293-5.14-3.763,2.062,4.019,1.385,4.55-6.281-6.605-6.958-6.074,5.262,8.095,4.586,8.626-5.249-5.291-5.926-4.759,3.366,5.68,2.689,6.212-6.31-6.643-6.988-6.111,3.699,6.102,3.023,6.633.685,2.264.009,2.794-3.9-3.571-4.578-3.039,2.828,4.995,2.152,5.527-6.499-6.882-7.177-6.35.395,1.9-.283,2.433,4.214,6.761,3.536,7.293-3.092-2.54-3.772-2.007-.929.497-1.677.062c-2.183-1.271-3.205-3.261-3.958-2.837Z" style="fill: #fff;"/>
    <path d="M268.029,454.776c-.741.418,1.559-.765.449-.71-.474.023-.823,4.519-1.482,4.55-.514.025-.812,5.849-1.433,5.878-.53.025-1.38-6.025-1.984-5.998-.539.025-.973,3.025-1.568,3.051-.545.024-1.106.234-1.696.259-.549.024-1.145-.56-1.732-.535-.552.024-1.076,1.138-1.66,1.162-.554.023-1.25-2.963-1.832-2.939-.556.023-1.348-5.459-1.928-5.436-.557.023-1.088.869-1.668.892-.558.022-.916,5.332-1.494,5.355-.559.022-1.13-.025-1.707-.002-.56.021-1.009,3.218-1.585,3.239-.56.021-1.434-8.182-2.009-8.161-.561.021-.886,6.664-1.46,6.685-.561.02-1.055,2.163-1.629,2.184-.562.02-1.457-9.304-2.03-9.284-.562.019-.908,6.474-1.481,6.493-.563.019-1.044,2.68-1.617,2.699-.563.019-1.36-6.944-1.933-6.925-.564.018-.842,9.113-1.414,9.132-.564.018-1.473-10.837-2.045-10.82-.564.017-1.029,3.326-1.601,3.344-.565.017-1.131.035-1.703.052-.565.017-1.037,3.355-1.608,3.372-.565.016-1.082,1.928-1.653,1.944-.565.016-1.327-7.026-1.899-7.01-.566.015-.984,5.665-1.555,5.68-.566.015-1.285-5.844-1.856-5.83-.566.014-1.108,1.001-1.679,1.015-.566.014-1.135-.08-1.706-.066-.567.013-1.001,5.778-1.572,5.791-.567.013-1.224-3.863-1.794-3.851-.565.012-1.211-3.768-1.78-3.756-.565.012-1.088,1.987-1.657,1.999-.566.011-1.073,3.004-1.641,3.015s-1.151-.926-1.72-.916-1.059,4.285-1.628,4.295-1.194-3.405-1.764-3.396-1.225-5.788-1.795-5.779-1.058,4.931-1.627,4.939-1.163-2.035-1.732-2.027-1.135-.111-1.704-.104-1.151-1.663-1.719-1.656-1.077,5.201-1.645,5.207-1.191-5.817-1.76-5.812-1.103,3.409-1.672,3.414-1.114,3.139-1.683,3.143-1.146-.993-1.715-.99-1.125,3.096-1.695,3.099-1.141.772-1.711.774-1.151-2.663-1.721-2.662-1.145-3.497-1.715-3.496-1.142,4.904-1.712,4.904-1.131-7.108-1.701-7.109-1.145,2.678-1.716,2.676-1.14.048-1.711.045-1.146.787-1.716.783-1.144.237-1.714.232c-.571-.005-1.104-3.61-1.673-3.615s-1.175,3.654-1.744,3.647-1.2,4.515-1.768,4.507-1.007-9.394-1.575-9.403-1.31,10.56-1.878,10.55-.986-8.77-1.554-8.781c-.571-.011-1.327,9.206-1.894,9.194-.571-.012-.945-9.052-1.513-9.065-.571-.013-1.106-1.094-1.674-1.108-.571-.014-1.409,10.087-1.976,10.072-.571-.016-1.148-.254-1.715-.271-.571-.017-.886-8.293-1.453-8.312-.571-.019-1.045-2.546-1.611-2.566-.571-.02-1.137.269-1.703.247-.571-.022-1.509,9.344-2.074,9.321-.572-.023-.989-3.808-1.554-3.833-.572-.025-1.222,1.628-1.787,1.601-.572-.027-.953-3.915-1.519-3.944-.572-.029-1.29,2.802-1.855,2.771-.573-.031-1.353,3.492-1.917,3.459-.574-.033-.563-9.724-1.129-9.759-.574-.036-1.693,8.479-2.258,8.442-.574-.038-.655-7.142-1.22-7.182-.574-.041-1.242,1.438-1.805,1.395-.573-.044-1.053-1.04-1.615-1.086-.573-.047-1.2.778-1.761.728-.573-.051-1.532,4.167-2.091,4.113-.573-.054-.966-1.975-1.525-2.032-.574-.059-1.314,1.426-1.873,1.365-.574-.063-.925-2.08-1.483-2.147-.574-.068-1.638,3.709-2.193,3.637-.574-.074-1.191-.091-1.745-.169-.573-.081-.181-6.706-.732-6.791-.575-.088-.841-1.694-1.391-1.787-.575-.097-1.001-.526-1.547-.628-.574-.107-1.603,2.499-2.144,2.386-.573-.12-1.202.263-1.737.137-.572-.135-2.25,4.034-2.777,3.892-.571-.155.384-5.489-.131-5.652-.553-.176.085-3.746-.458-3.93-.55-.186-4.826,10.34-5.366,10.146-.546-.196.228-4.155-.308-4.358-.543-.206-.543-1.836-1.075-2.05-.538-.216-2.877,3.81-3.405,3.586-.534-.227-.622-1.67-1.146-1.905-.53-.237.435-3.793-.084-4.038-.525-.248-.829-.923-1.343-1.178-.519-.258-2.867,3.01-3.375,2.744-.514-.269,1.74-5.701,1.237-5.977-.509-.28-3.857,4.458-4.354,4.171-.502-.291,3.606-8.289,3.116-8.587-.496-.302-3.718,3.904-4.202,3.595-.489-.312.613-2.972.137-3.292-.481-.323-.998-.463-1.467-.793-.474-.334-2.616,1.715-3.077,1.374-.466-.344-1.312-.186-1.766-.538-.458-.355,2.92-5.438,2.475-5.8-.449-.366-7.982,7.78-8.419,7.408-.441-.376,3.648-6.002,3.22-6.385-.432-.386,1.031-2.734.613-3.127-.422-.397-.559-.935-.968-1.338-.413-.407-3.053,1.495-3.452,1.082-.403-.417-4.287,2.416-4.675,1.993-.392-.426.481-2.071.103-2.503-.381-.436-3.855,1.65-4.222,1.209-.371-.445.349-1.932-.007-2.382-.359-.454-1.391-.532-1.736-.991-.348-.463,3.544-4.1,3.21-4.567-.336-.471,2.441-3.035,2.12-3.51-.324-.479-6.309,2.784-6.618,2.301-.312-.488,2.264-2.8,1.967-3.291-.299-.495.936-1.844.651-2.343-.287-.503.128-1.311-.144-1.816-.274-.51-7.535,2.595-7.794,2.082-.261-.517-.047-1.39-.292-1.909-.247-.523,1.536-2.057,1.305-2.582-.233-.529-.655-1.033-.872-1.564-.22-.535-1.646-.668-1.85-1.204-.206-.541,7.868-4.075,7.678-4.617-.191-.546-1.468-.591-1.643-1.137-.177-.551-6.428.792-6.589.242-.162-.556,3.194-2.094,3.048-2.649-.147-.559-2.545-.547-2.675-1.105-.132-.563.525-1.309.409-1.87-.096-.467,4.153-1.611,4.065-2.269-.068-.511-7.222-.226-7.285-.848-.054-.53,1.322-1.269,1.272-1.877-.044-.539,1.579-1.24,1.538-1.838-.038-.544-.297-1.097-.332-1.689-.033-.549,3.434-1.3,3.404-1.888-.029-.552.382-1.12.355-1.706-.026-.554-9.181-.727-9.205-1.312-.023-.556,1.234-1.195,1.213-1.778-.021-.558-2.071-1.075-2.091-1.656-.019-.559,4.385-1.281,4.367-1.862-.017-.561,6.814-1.321,6.799-1.902-.015-.562-10.146-.869-10.16-1.449-.014-.562,7.662-1.316,7.649-1.895-.013-.563-8.829-.95-8.84-1.529-.011-.564,10.581-1.34,10.57-1.918-.01-.564-5.044-1.044-5.053-1.622-.009-.565,2.147-1.169,2.138-1.746-.008-.565,2.077-1.162,2.069-1.739-.008-.566-4.988-1.073-4.994-1.649-.007-.566-4.162-1.095-4.168-1.672-.006-.567,6.668-1.207,6.663-1.783-.005-.567-.17-1.135-.175-1.712-.005-.567,1.841-1.15,1.837-1.726-.004-.567-2.764-1.12-2.768-1.695-.003-.568-3.741-1.121-3.743-1.697-.003-.568,6.203-1.167,6.201-1.742-.002-.568-6.491-1.118-6.493-1.694-.002-.568,4.504-1.152,4.503-1.728-.001-.568-6.636-1.132-6.637-1.707,0-.569,5.045-1.147,5.045-1.722,0-.569-4.494-1.143-4.494-1.718,0-.569,7.869-1.135,7.869-1.71,0-.569-7.274-1.153-7.273-1.728.001-.569,8.148-1.122,8.15-1.697.002-.569.681-1.136.683-1.711.002-.567,1.274-1.128,1.277-1.7.002-.567-2.997-1.147-2.994-1.719.003-.567-2.549-1.149-2.546-1.721.003-.568,3.021-1.119,3.025-1.691.003-.568,1.334-1.127,1.338-1.699.004-.568-9.418-1.203-9.414-1.775.004-.568,9.096-1.071,9.1-1.643.004-.568.4-1.133.405-1.705.005-.568-4.141-1.173-4.136-1.745.005-.569,3.133-1.109,3.139-1.681.005-.569.824-1.129.83-1.701.006-.569-2.206-1.16-2.2-1.732.006-.569,3.493-1.1,3.499-1.672.006-.569-5.629-1.202-5.622-1.774s-3.782-1.185-3.776-1.757,6.47-1.062,6.477-1.634-6.061-1.218-6.054-1.79-.466-1.149-.458-1.721,3.279-1.097,3.286-1.67-1.364-1.161-1.356-1.733,6.272-1.05,6.281-1.622-8.909-1.275-8.901-1.848,8.862-1.005,8.871-1.577-6.931-1.252-6.922-1.824-1.14-1.162-1.131-1.734,4.153-1.073,4.162-1.646,2.446-1.1,2.456-1.672,3.199-1.084,3.21-1.657-3.642-1.204-3.631-1.775-6.875-1.268-6.864-1.839,6.744-1.014,6.755-1.585-.817-1.156-.806-1.728-4.683-1.235-4.671-1.806,3.046-1.081,3.058-1.653-3.329-1.212-3.317-1.783-.582-1.156-.57-1.728,1.873-1.104,1.885-1.676,3.184-1.074,3.197-1.646-3.866-1.23-3.854-1.802-.949-1.167-.936-1.738-.96-1.167-.947-1.738,2.315-1.091,2.329-1.662,6.187-.996,6.201-1.568-5.059-1.267-5.045-1.839,1.079-1.119,1.093-1.691-2.753-1.215-2.739-1.787,6.03-.992,6.045-1.565-5.406-1.286-5.391-1.859,4.484-1.029,4.499-1.602,2.042-1.091,2.058-1.664-7.673-1.356-7.657-1.929,4.566-1.021,4.582-1.593,5.048-1.004,5.064-1.576-2.515-1.216-2.498-1.789-1.621-1.193-1.605-1.765-6.146-1.328-6.129-1.9,10.517-.835,10.534-1.407.231-1.138.249-1.71-1.328-1.186-1.31-1.758-4.301-1.28-4.283-1.852,2.365-1.073,2.384-1.645-4.784-1.3-4.765-1.873.22-1.142.239-1.714,7.432-.903,7.45-1.476-7.88-1.41-7.861-1.982,2.739-1.056,2.759-1.629-1.716-1.208-1.696-1.78,7.749-.878,7.769-1.45-6.19-1.365-6.17-1.937-.174-1.155-.154-1.727,1.912-1.079,1.932-1.651,2.943-1.039,2.964-1.611-1.977-1.221-1.955-1.793,3.226-1.025,3.248-1.597-1.142-1.19-1.12-1.762,1.625-1.083,1.648-1.655-2.974-1.264-2.952-1.836-2.275-1.239-2.252-1.811,5.293-.932,5.317-1.504-2.577-1.253-2.554-1.824,2.469-1.043,2.493-1.615c.024-.574-6.914-1.441-6.89-2.012.025-.574-2.068-1.24-2.043-1.811.025-.574,3.11-1.015,3.135-1.586.025-.574-2.753-1.273-2.727-1.843.026-.574,1.262-1.094,1.288-1.665.026-.574,5.891-.879,5.917-1.45.026-.574-.227-1.157-.2-1.728.027-.574,2.851-1.011,2.878-1.581.027-.574-10.634-1.659-10.606-2.229.028-.574,4.051-.954,4.079-1.524.028-.574.349-1.132.377-1.702.029-.574-.051-1.152-.023-1.721.029-.574-4.305-1.372-4.275-1.941.03-.574,5.089-.886,5.119-1.455.03-.574-4.768-1.404-4.737-1.973.031-.574,3.408-.968,3.439-1.536.031-.574-3.278-1.332-3.246-1.9.032-.574,3.991-.928,4.024-1.496.032-.574,3.248-.962,3.281-1.53.033-.574-6.429-1.524-6.395-2.091.034-.574.074-1.149.108-1.716.034-.574,4.327-.889,4.361-1.456.035-.574-4.243-1.414-4.208-1.98.036-.574,4.916-.841,4.952-1.407.037-.574-.619-1.189-.582-1.755.038-.575-4.072-1.423-4.034-1.989.038-.575.958-1.092.997-1.658.039-.575,2.132-1.007,2.172-1.573.04-.575,2.247-.992,2.287-1.557.041-.575,5.28-.759,5.322-1.324.043-.577-11.466-2.015-11.423-2.58.044-.576.398-1.135.442-1.699.045-.576,7.016-.599,7.062-1.162.047-.576-7.408-1.767-7.361-2.329.048-.576,9.229-.373,9.277-.935.05-.577.053-1.14.103-1.702.052-.578-4.219-1.538-4.166-2.099.054-.578,4.069-.767,4.124-1.327.056-.579-1.722-1.321-1.665-1.878.059-.579.749-1.073.809-1.629.062-.581-1.18-1.286-1.118-1.841.065-.582-5.49-1.817-5.424-2.371.069-.582,4.024-.696,4.094-1.246.074-.584.707-1.086.782-1.632.08-.585-1.175-1.359-1.094-1.901.088-.588,3.43-.644,3.519-1.179.094-.567-.068-1.168.026-1.725.096-.567-5.379-2.094-5.282-2.651.099-.566,5.125-.269,5.224-.824.101-.566,5.038-.239,5.14-.794.104-.565-7.136-2.481-7.031-3.035.106-.565,7.042.186,7.149-.367.109-.564-4.803-2.098-4.693-2.65.112-.564-4.989-2.197-4.876-2.748.116-.563,4.645-.223,4.762-.774.119-.563-2.455-1.72-2.334-2.27.123-.562,3.813-.34,3.938-.889.128-.562,3.98-.244,4.109-.792.132-.561-4.206-2.178-4.072-2.725.137-.56,4.716.005,4.855-.541.142-.559.888-.916,1.032-1.46.148-.557-4.879-2.492-4.729-3.034.154-.556-2.84-2.029-2.684-2.57.16-.554.429-1.129.591-1.667.167-.552,1.908-.662,2.078-1.197.175-.55-1.513-1.758-1.335-2.291.183-.547,9.171,1.929,9.357,1.4.192-.544-3.423-2.412-3.228-2.938.201-.541,5.619.989,5.824.467.212-.538-8.028-4.466-7.811-4.984.223-.533,7.814,2.148,8.042,1.636.235-.528-4.679-3.363-4.438-3.869.249-.522,3.28.363,3.535-.137.263-.515-3.905-3.369-3.635-3.861.278-.506,1.34-.638,1.626-1.121.294-.497,5.161,1.867,5.463,1.395.31-.485-6.095-5.457-5.775-5.918.328-.473,2.736.407,3.075-.041.347-.459,5.305,2.782,5.663,2.348.366-.443-5.467-6.246-5.089-6.664.384-.425,6.142,4.202,6.539,3.802.403-.406-3.417-5.205-3-5.586.421-.385,2.215.654,2.651.292.438-.364,4.269,3.693,4.722,3.352s-2.083-4.702-1.614-5.022,2.012,1.052,2.497.753c.481-.297,2.886,2.963,3.384,2.684.493-.276-3.615-9.139-3.105-9.398.503-.255,1.456.073,1.976-.167.512-.236,3.795,5.784,4.323,5.561.519-.218-.756-4.839-.22-5.045.419-.161,2.636,5.784,3.309,5.623.492-.118-.935-9.528-.312-9.646.518-.098,1.176-.404,1.781-.501.531-.085,2.705,10.516,3.302,10.431.54-.077.167-6.829.759-6.906.545-.07,1.41,2.294,1.998,2.224.548-.065,1.321,1.832,1.906,1.767.551-.061.831-2.654,1.414-2.715.553-.058.464-6.686,1.044-6.744.555-.055,1.464,3.233,2.044,3.178.557-.052,1.331,2.091,1.911,2.038.558-.05.761-4.337,1.34-4.387.559-.048,1.125-.3,1.704-.348.56-.047,1.846,8.689,2.423,8.642.561-.045.869-3.33,1.446-3.375.562-.043.605-7.094,1.182-7.137.563-.042,1.5,4.807,2.077,4.765.563-.041,1.599,6.508,2.175,6.468.563-.04,1.093-.51,1.668-.549.564-.039.72-6.139,1.295-6.177.564-.038,1.13-.157,1.705-.194.564-.037,1.317,2.785,1.891,2.748.565-.036,1.197.984,1.771.949.565-.035.72-6.865,1.295-6.9.565-.034,1.036-1.833,1.61-1.867.566-.033,1.508,6.265,2.082,6.232.566-.033.943-3.464,1.517-3.497.566-.032,1.162.345,1.735.313.566-.031,1.164.409,1.738.378.566-.031,1.482,6.416,2.055,6.386.567-.03.636-9.606,1.209-9.635.567-.029,1.445,5.903,2.019,5.873.567-.029,1.068-1.426,1.641-1.455.567-.028,1.171.634,1.744.606.567-.028,1.16.418,1.733.391.567-.027,1.265,2.652,1.837,2.625.568-.027.986-3.267,1.559-3.294.568-.026.878-5.762,1.451-5.788.568-.026,1.378,5.221,1.951,5.196.568-.025,1.097-.981,1.67-1.007.568-.025,1.222,1.864,1.794,1.839.568-.025,1.338,4.675,1.911,4.651.568-.024.763-8.972,1.336-8.995.568-.024,1.436,7.152,2.008,7.129.568-.023,1.069-1.712,1.642-1.735.569-.023.882-6.505,1.455-6.528.569-.022,1.296,3.919,1.869,3.896.569-.022,1.2,1.55,1.773,1.529.569-.022,1.257,3.117,1.83,3.096.569-.021,1.041-2.627,1.614-2.648.567-.021.885-6.928,1.455-6.949.567-.021,1.125-.453,1.695-.473.567-.02,1.156.417,1.726.397.568-.02,1.488,10.076,2.058,10.056s1.07-1.924,1.641-1.943.984-4.6,1.554-4.619.988-4.646,1.558-4.665,1.351,6.499,1.922,6.481,1.086-1.658,1.657-1.676.993-4.738,1.564-4.755,1.447,9.99,2.017,9.973,1.031-3.561,1.602-3.578,1.189,1.69,1.76,1.673.927-7.339,1.498-7.355,1.431,10.206,2.002,10.19,1.016-4.374,1.587-4.39,1.19,1.864,1.762,1.849,1.137-.077,1.708-.093.959-6.882,1.53-6.897,1.283,5.467,1.854,5.452,1.099-1.643,1.67-1.657,1.119-.909,1.69-.923,1.061-3.338,1.632-3.352,1.356,8.99,1.927,8.976,1.049-3.91,1.62-3.923,1.136-.217,1.708-.23,1.07-3.212,1.642-3.225,1.197,2.505,1.769,2.493,1.109-1.566,1.68-1.578,1.049-4.458,1.619-4.469,1.257,5.678,1.828,5.667,1.111-1.503,1.682-1.514,1.277,7.079,1.848,7.068,1.029-5.852,1.6-5.862,1.153.619,1.724.609,1.058-4.762,1.629-4.772,1.251,6.24,1.822,6.23,1.098-2.61,1.669-2.619,1.093-3.071,1.665-3.08,1.216,4.608,1.788,4.599,1.213,4.705,1.785,4.697,1.108-2.176,1.68-2.184,1.177,2.506,1.748,2.498,1-10.352,1.571-10.359,1.214,5.241,1.786,5.233,1.143-.02,1.715-.027,1.137-.544,1.71-.551,1.091-4.69,1.663-4.696,1.135-1.175,1.707-1.182,1.164,1.554,1.736,1.548,1.17,2.317,1.742,2.312,1.145-.047,1.717-.053,1.121-2.765,1.693-2.77,1.165,2.059,1.737,2.054,1.165,2.378,1.737,2.373,1.138-.966,1.711-.97,1.129-2.526,1.701-2.53,1.138-1.549,1.71-1.552,1.168,3.586,1.741,3.583,1.169,4.537,1.742,4.534,1.142-.457,1.714-.459,1.141-.781,1.714-.784,1.13-4.437,1.703-4.439,1.157,3.603,1.73,3.602,1.135-4.945,1.708-4.946,1.155,4.443,1.728,4.442,1.144-2.806,1.716-2.807,1.149,3.894,1.721,3.894,1.146.195,1.718.195,1.15-4.672,1.723-4.671,1.142,4.327,1.714,4.328,1.162-6.834,1.734-6.833,1.143,2.522,1.715,2.524,1.146.701,1.719.703,1.153-.941,1.725-.938,1.147.563,1.719.566,1.131,3.117,1.704,3.12,1.173-4.026,1.745-4.022,1.163-1.885,1.736-1.881,1.127,3.135,1.699,3.139,1.153-.429,1.725-.424,1.13,2.084,1.702,2.09,1.17-2.175,1.742-2.169,1.182-2.936,1.754-2.929,1.066,7.319,1.638,7.325,1.198-4.103,1.77-4.095,1.188-2.809,1.759-2.802,1.136,1.123,1.708,1.131,1.139.822,1.711.831,1.158-.423,1.729-.414,1.074,4.547,1.645,4.557c.574.01,1.15-.162,1.721-.152.574.01,1.07,4.082,1.641,4.093.574.011,1.214-3.569,1.785-3.558.574.011,1.286-6.675,1.857-6.664.574.012,1.112,1.882,1.683,1.895.574.013.967,8.013,1.538,8.026.574.013,1.319-7.279,1.889-7.265.574.014,1.142.382,1.712.397.574.015,1.014,5.181,1.584,5.196.574.015,1.361-7.848,1.932-7.832.574.016,1.012,4.935,1.582,4.951.574.017,1.254-3.523,1.824-3.506.574.017.894,8.239,1.464,8.257.574.018,1.398-7.807,1.967-7.788.574.019,1.014,4.053,1.584,4.072.574.02,1.209-1.727,1.778-1.707.574.02,1.031,3.19,1.6,3.211.574.021,1.187-1.093,1.756-1.071.574.022.976,4.241,1.544,4.264.574.023,1.496-8.5,2.064-8.477.574.024.89,6.041,1.458,6.066.574.025,1.058,1.877,1.625,1.903.574.026,1.54-8.432,2.107-8.405.574.027,1.026,2.632,1.593,2.66.574.028,1.167-.307,1.733-.278.574.03,1.175-.423,1.741-.392.574.031,1.148.089,1.714.121.573.032.641,8.775,1.206,8.808.573.034,1.796-10.893,2.361-10.858.573.035,1.078,1.29,1.643,1.326.574.037.687,7.07,1.252,7.107.574.038,1.205-.945,1.768-.906.574.04,1.42-3.808,1.984-3.767.574.042,1.278-1.588,1.841-1.545.575.044.96,2.542,1.523,2.587.575.046,1.404-2.953,1.967-2.905.575.048.988,2.05,1.55,2.099.575.051.929,2.5,1.49,2.553.575.054,1.073.795,1.633.85.575.057,1.361-2.027,1.92-1.968.575.06,1.187-.222,1.744-.16.576.064,1.654-4.112,2.21-4.046.577.068,1.02,1.487,1.575,1.557.577.073.954,1.851,1.508,1.925.578.078,1.557-2.493,2.109-2.412.577.084,1.281-.304,1.83-.217.578.091.636,3.599,1.181,3.693.579.1,1.15.368,1.692.471.58.111.575,3.107,1.112,3.221.581.124,1.687-2.099,2.216-1.971.582.141,2.35-3.756,2.867-3.609.583.165.702,2.59,1.2,2.763.549.19,1.663-1.144,2.196-.955.547.194-.552,5.006-.022,5.2.545.199-.108,3.571.42,3.77.544.205,3.546-6.026,4.072-5.822.542.211-1.15,6.083-.627,6.294.541.217,3.225-4.814,3.746-4.598.538.224-1.057,5.483-.539,5.706.536.231,3.412-4.84,3.926-4.609.533.239-.627,4.21-.118,4.449.529.248,3.083-3.665,3.588-3.417.525.258-2.651,7.858-2.152,8.115.52.268,1.053.311,1.547.579.514.279,2.612-2.395,3.097-2.116.507.292,4.045-4.408,4.522-4.116.499.306-1.184,4.233-.716,4.539.49.321-2.474,5.608-2.017,5.93.48.338,3.169-2.538,3.613-2.2.466.356,3.241-2.134,3.671-1.777.452.376-2.874,5.057-2.462,5.435.433.397-1.338,2.725-.947,3.124.41.418,3.951-2.351,4.319-1.929.384.44-1.072,2.176-.732,2.621.354.463,7.723-4.015,8.034-3.547.321.484-.985,2.295-.707,2.786.285.503,1.052,1.01,1.296,1.521.248.52-3.126,2.732-2.916,3.26.211.533-1.654,1.712-1.477,2.255s5.665-.466,5.811.087c.145.55-.585,1.438-.466,1.999.118.555-5.534,2.183-5.437,2.749.095.558,2.835.634,2.913,1.205.077.56,5.211.526,5.276,1.099.064.562-6.025,1.79-5.97,2.365.054.563,2.556.898,2.606,1.473.049.564,5.33.706,5.377,1.282.046.564-7.26,1.74-7.212,2.317.038.45,1.8.874,1.837,1.558.028.506-1.629,1.147-1.601,1.774.023.527,1.385,1.034,1.408,1.643.021.538,3.768.979,3.788,1.579.019.544.907,1.095.925,1.688.017.548-5.343,1.282-5.326,1.87.016.551,1.951,1.065,1.967,1.65.015.553,2.706,1.054,2.721,1.637.014.555-.154,1.132-.139,1.714.014.557-4.851,1.243-4.837,1.824.013.558,3.999,1.036,4.012,1.615.013.559,2.391,1.079,2.404,1.657.012.56-7.912,1.299-7.9,1.877.012.561,2.774,1.072,2.786,1.649.011.562-4.519,1.221-4.508,1.797.011.562,5.763,1.018,5.775,1.594.011.563,3.654,1.064,3.665,1.64.011.563-4.288,1.214-4.277,1.789.01.564-1.218,1.156-1.207,1.731.01.564,7.121,1.009,7.131,1.584.01.565-1.451,1.162-1.442,1.736.01.565,1.575,1.11,1.584,1.684.01.565-10.758,1.315-10.749,1.889.009.566,3.824,1.072,3.833,1.646.009.566,6.437,1.033,6.446,1.606.009.566-7.727,1.259-7.718,1.832.009.564,5.164,1.052,5.173,1.623.009.565-7.085,1.242-7.076,1.813.009.565,9.153.995,9.162,1.566.008.565-5.987,1.224-5.978,1.795.008.566-2.098,1.165-2.09,1.736.008.566-.854,1.146-.846,1.717.008.566-1.545,1.156-1.537,1.727.008.566,2.973,1.093,2.981,1.664.008.567,2.436,1.101,2.444,1.672.008.567.911,1.124.919,1.694.008.567-6.428,1.224-6.42,1.795.008.567,5.12,1.067,5.128,1.638.008.568-2.987,1.176-2.98,1.747.008.568,4.58,1.077,4.587,1.648.007.568-.955,1.15-.947,1.721.007.568,2.689,1.103,2.696,1.674s-3.704,1.186-3.696,1.756,1.747,1.116,1.754,1.687,3.33,1.097,3.337,1.668-2.183,1.166-2.176,1.737-1.439,1.157-1.432,1.728c.007.568-.122,1.138-.115,1.707s-1.308,1.153-1.301,1.722,3.836,1.091,3.843,1.661-4.587,1.193-4.58,1.762,4.867,1.081,4.874,1.651,2.881,1.105,2.888,1.675-1.281,1.154-1.274,1.725.538,1.134.545,1.704-9.996,1.253-9.99,1.823,3.085,1.104,3.091,1.674-.817,1.149-.811,1.72,5.99,1.074,5.996,1.645-6.165,1.21-6.159,1.781,6.666,1.069,6.672,1.64,1.951,1.122,1.957,1.694-9.501,1.246-9.495,1.817,9.445,1.041,9.451,1.611-.821,1.152-.815,1.723-5.335,1.2-5.329,1.771-3.675,1.182-3.669,1.753-.359,1.147-.353,1.718,6.171,1.079,6.177,1.65-1.038,1.155-1.032,1.726,3.126,1.112,3.132,1.683.532,1.139.538,1.71-.739,1.152-.733,1.723.196,1.143.202,1.714-.626,1.151-.621,1.722.029,1.145.034,1.716-1.002,1.155-.997,1.726,2.333,1.122,2.338,1.693-8.21,1.226-8.204,1.797,9.741,1.05,9.746,1.621c.006.574-4.992,1.195-4.986,1.765.006.574,2.482,1.122,2.487,1.692.006.574-6.685,1.21-6.679,1.781.006.574,4.79,1.1,4.795,1.67.005.574-.082,1.147-.076,1.717.005.574,3.596,1.112,3.601,1.682.005.574-5.885,1.202-5.88,1.771.005.574,6.013,1.09,6.018,1.659.005.574-10.443,1.243-10.438,1.813.005.574,3.829,1.11,3.834,1.68.005.574,4.109,1.108,4.114,1.677.005.574,3.09,1.118,3.095,1.687.005.574-2.057,1.165-2.052,1.733.005.575-2.96,1.173-2.955,1.741.005.575,3.539,1.114,3.544,1.682.005.575-6.936,1.208-6.931,1.776.005.575-.444,1.15-.439,1.717.005.575,6.963,1.084,6.968,1.651.005.575-1.939,1.163-1.934,1.729.005.575.775,1.139.78,1.705.005.575,3.38,1.116,3.385,1.681.005.575-2.473,1.167-2.468,1.732.005.575,2.877,1.12,2.881,1.684.005.575-4.302,1.182-4.297,1.745.005.575,3.238,1.117,3.243,1.68.005.576-6.163,1.198-6.159,1.761.005.577-3.614,1.177-3.609,1.739.005.578,3.685,1.116,3.69,1.678.005.578,4.9,1.108,4.905,1.669.005.579-7.696,1.214-7.691,1.774.005.58,3.883,1.118,3.888,1.678.005.581,4.119,1.117,4.124,1.675.005.582-9.522,1.229-9.518,1.786.005.583,6.444,1.099,6.449,1.653.005.585,3.77,1.124,3.774,1.676.005.588-5.033,1.198-5.028,1.748.005.591,4.597,1.124,4.601,1.669.005.599-5.184,1.21-5.18,1.751.005.607-3.186,1.201-3.182,1.732.005.621,8.245,1.125,8.249,1.638.005.66-5.146,1.269-5.142,1.744.009,1.112,3.989,5.077,3.989,5.077-.673.529-6.28-6.612-6.954-6.084s.795,2.399.122,2.928-1.266-.226-1.939.303,4.58,7.22,3.907,7.748-6.86-7.35-7.534-6.821.568,2.11-.106,2.639-.857.296-1.531.825-.732.456-1.406.985,1.285,3.024.61,3.553c-.671.527,1.573,3.384.903,3.911s.799,2.399.129,2.925-2.726-2.091-3.397-1.565-3.541-3.128-4.211-2.602,2.856,5.019,2.185,5.546-4.239-4.018-4.91-3.491-.5.744-1.172,1.271-1.298-.271-1.969.256,2.827,4.983,2.156,5.511-6.017-6.28-6.689-5.753.694,2.267.022,2.794,4.302,6.863,3.63,7.391-1.74-.831-2.412-.303-1,.111-1.673.64-4.986-4.964-5.659-4.436,3.374,5.684,2.701,6.212-1.926-1.065-2.599-.536-.458.805-1.132,1.334-2.228-1.449-2.903-.92,1.781,3.657,1.107,4.187-.93.203-1.604.733,2.088,4.047,1.414,4.576-6.533-6.934-7.207-6.405-1.689-.766-2.363-.237,4.22,6.76,3.547,7.289-4.042-3.762-4.714-3.234,1.865,3.76,1.193,4.288,1.379,3.141.707,3.669-6.341-6.692-7.014-6.164,1.964,3.886,1.292,4.414,1.839,3.726,1.167,4.254-.852.299-1.524.827-4.337-4.14-5.009-3.612-.128,1.22-.801,1.748,1.042,2.711.37,3.239-3.037-2.483-3.709-1.955,4.723,7.399,4.05,7.927-3.153-2.63-3.825-2.102-1.47-.486-2.142.042-1.076.015-1.749.543-2.252-1.482-2.925-.953,2.517,4.592,1.843,5.121-4.961-4.931-5.635-4.401,3.059,5.284,2.385,5.814-4.388-4.199-5.063-3.669,2.34,4.37,1.665,4.9-1.9-1.031-2.575-.501-1.928-1.068-2.603-.538-1.349-.331-2.024.198c-.674.529-1.207-.15-1.881.379s6.262,9.363,5.589,9.891-5.944-6.184-6.617-5.655,2.69,4.812,2.017,5.341-2.877-2.278-3.55-1.749,1.123,2.817.45,3.345,1.062,2.739.389,3.267-1.647-.711-2.32-.182-2.21-1.428-2.883-.899-1.863-.986-2.537-.457,2.735,4.87,2.061,5.399-2.831-2.217-3.505-1.688-1.68-.751-2.354-.221-.377.909-1.052,1.439,1.918,3.833,1.242,4.363-5.371-5.451-6.046-4.921-.018,1.366-.693,1.896-2.717-2.072-3.391-1.542.202,1.646-.472,2.175,2.664,4.781,1.99,5.31-.199,1.134-.873,1.663,1.057,2.734.383,3.263-4.303-4.093-4.977-3.564,2.394,4.437,1.72,4.966.357,1.843-.318,2.372-2.944-2.36-3.618-1.83,1.837,3.73,1.162,4.26-5.909-6.135-6.585-5.605,3.081,5.315,2.406,5.845-3.309-2.825-3.984-2.295,1.05,2.726.375,3.256-4.787-4.708-5.462-4.178,2.653,4.767,1.978,5.297-1.811-.918-2.485-.388-.909.231-1.584.761.382,1.876-.293,2.406.084,1.497-.591,2.027.4,1.9-.276,2.431-2.407-1.674-3.082-1.144-1.24-.189-1.915.341.256,1.715-.419,2.245,1.265,3,.59,3.53-1.263-.22-1.938.31-4.017-3.726-4.693-3.196,4.043,6.54,3.367,7.07-5.182-5.208-5.857-4.677.36,1.848-.316,2.379,2.693,4.82,2.018,5.35-2.144-1.345-2.817-.816-4.51-4.359-5.183-3.831-.862.287-1.535.815,3.567,5.929,2.894,6.457-4.793-4.718-5.467-4.189-.223,1.104-.897,1.634,4.558,7.195,3.882,7.725-5.188-5.215-5.865-4.684-.26,1.059-.935,1.59,3.031,5.25,2.357,5.779-.153,1.194-.827,1.723-7.064-7.608-7.738-7.078,3.618,5.998,2.943,6.528-3.781-3.423-4.457-2.892.748,2.346.071,2.877-1.073.025-1.748.556,1.823,3.712,1.148,4.242,1.105,2.799.43,3.329-7.292-7.893-7.968-7.362,5.979,9.008,5.302,9.539-4.464-4.293-5.14-3.763,2.062,4.019,1.385,4.55-6.281-6.605-6.958-6.074,5.262,8.095,4.586,8.626-5.249-5.291-5.926-4.759,3.366,5.68,2.689,6.212-6.31-6.643-6.988-6.111,3.699,6.102,3.023,6.633.685,2.264.009,2.794-3.9-3.571-4.578-3.039,2.828,4.995,2.152,5.527-6.499-6.882-7.177-6.35.395,1.9-.283,2.433,4.214,6.761,3.536,7.293-3.092-2.54-3.772-2.007-.929.497-1.677.062c-2.183-1.271-3.205-3.261-3.958-2.837Z" style="fill: none; stroke: #000; stroke-linecap: round; stroke-linejoin: round; stroke-width: 40px;"/>
  </g>
  <path d="M250.198,450.734c-.041-.855,7.818-.966,7.768-2.08-.022-.478-7.493-.722-7.522-1.384-.023-.518,6.617-1.38,6.591-2.004-.023-.534-2.371-1.007-2.397-1.614-.023-.543-1.385-1.061-1.41-1.659-.022-.547,3.153-1.246,3.129-1.837-.022-.551.769-1.152.746-1.739-.022-.554-.289-1.113-.311-1.698-.021-.557-1.194-1.082-1.216-1.666-.021-.558,3.07-1.244,3.049-1.825-.021-.56.982-1.165.961-1.746-.02-.561-1.541-1.076-1.561-1.656-.02-.562-2.824-1.035-2.844-1.614-.019-.563-.737-1.111-.757-1.689-.019-.564,1.886-1.2,1.867-1.777-.019-.565.447-1.151.428-1.728-.018-.566,2.645-1.22,2.627-1.797-.018-.566-.841-1.109-.858-1.686-.017-.567-7.368-.916-7.385-1.492-.017-.567,3.218-1.236,3.202-1.812-.016-.568.667-1.159.651-1.735-.016-.566-6.018-.972-6.034-1.546-.016-.567.677-1.161.662-1.734-.015-.568,3.634-1.236,3.62-1.81-.015-.568-3.686-1.05-3.701-1.623-.014-.569,10.433-1.393,10.42-1.966-.014-.569-10.885-.887-10.898-1.46-.013-.569,6.309-1.285,6.297-1.858-.012-.57-4.389-1.049-4.401-1.623-.012-.57,4.285-1.231,4.273-1.804-.011-.569-1.133-1.118-1.143-1.689s-2.342-1.1-2.352-1.671,4.586-1.221,4.576-1.793-6.77-1.036-6.779-1.608,3.449-1.199,3.441-1.771,7.013-1.238,7.005-1.811-6.468-1.062-6.475-1.634-1.351-1.133-1.357-1.706-.378-1.146-.384-1.719,4.368-1.184,4.364-1.757,1.981-1.157,1.977-1.73,1.697-1.15,1.695-1.723-6.439-1.12-6.441-1.692-3.821-1.145-3.822-1.718,7.915-1.155,7.915-1.727c0-.576-.782-1.145-.781-1.717.001-.576-2.021-1.153-2.019-1.725.002-.576-3.215-1.169-3.211-1.741.004-.576.68-1.15.685-1.722.005-.576,5.023-1.101,5.029-1.672.006-.576-.287-1.147-.279-1.717.008-.576-3.086-1.191-3.077-1.762.009-.577,1.13-1.13,1.141-1.7.011-.577-1.994-1.19-1.982-1.759.012-.577,1.29-1.122,1.304-1.691.014-.577,2.778-1.072,2.794-1.64.016-.577.479-1.124.497-1.691.018-.577-1.4-1.186-1.379-1.752.021-.578-.047-1.145-.024-1.711.023-.578,3.271-.997,3.297-1.563.026-.579-6.61-1.459-6.582-2.024.029-.579-.913-1.216-.881-1.78.033-.58,7.648-.691,7.684-1.253.037-.58-1.233-1.205-1.194-1.765.041-.582-7.249-1.706-7.204-2.265.046-.583,1.233-1.091,1.283-1.648.053-.583-.432-1.241-.375-1.794.06-.585,8.917-.163,8.982-.713.069-.586-2.321-1.382-2.246-1.927.081-.588-5.129-1.935-5.041-2.473.093-.568,2.415-.768,2.531-1.329s1.439-.821,1.578-1.377-5.395-2.728-5.233-3.278,9.971,1.96,10.155,1.416-5.071-2.932-4.868-3.468,5.728,1.166,5.951.637-2.915-2.407-2.673-2.927-3.475-2.979-3.215-3.491,7.687,2.821,7.964,2.319-2.185-2.421-1.893-2.915,3.096.694,3.403.209-.609-1.602-.288-2.077.817-.682,1.152-1.148,1.373-.247,1.72-.703-1.61-2.582-1.251-3.03-3.004-3.957-2.634-4.395-.568-2.116-.187-2.544,8.054,5.8,8.444,5.381-1.445-2.829-1.045-3.239,2.699,1.203,3.108.802-3.97-5.739-3.552-6.13c.42-.394,2.976,1.551,3.402,1.169.429-.385-1.292-3.208-.859-3.581.437-.376.627-1.095,1.068-1.459.445-.367,4.588,3.887,5.037,3.533.453-.358-1.858-4.222-1.403-4.567.46-.349-.851-3.147-.39-3.483.468-.34.306-1.703.775-2.028.475-.33,6.14,6.976,6.614,6.661.482-.32-3.715-7.819-3.236-8.124.489-.311,1.331-.196,1.816-.49.497-.301,3.013,2.764,3.505,2.481.504-.29,1.803.91,2.3.639.511-.279-2.552-7.374-2.049-7.633.519-.267,3.343,3.933,3.851,3.688.526-.254,1.996,1.584,2.509,1.354.535-.24,1.596.969,2.114.755.545-.225.245-2.358.77-2.553.554-.206.861-.967,1.389-1.138.566-.184.706-1.759,1.238-1.903.579-.157,1.845,2.906,2.379,2.797.594-.12,1.309,3.034,1.841,2.975.426-.047.407-3.596,1.113-3.605.502-.006,1.135-6.659,1.77-6.647.525.01,1.145.795,1.756.817.536.019.937,4.538,1.537,4.566.543.025,1.08.548,1.673.58.548.03,1.527-6.834,2.117-6.799.551.033,1.13.338,1.716.376.553.036.885,3.817,1.468,3.857.555.038,1.01,1.724,1.591,1.766.556.04.842,3.847,1.421,3.89.557.042,1.505-4.933,2.083-4.888.558.043,1.005,1.639,1.582,1.684.559.044.766,4.509,1.342,4.556.56.046,1.216-1.07,1.791-1.022.56.047,1.756-7.386,2.33-7.338.561.047.851,3.382,1.425,3.432.56.048.947,2.165,1.519,2.215.561.049,1.629-5.589,2.201-5.539.561.05.519,6.946,1.091,6.997.562.05,1.798-7.318,2.369-7.267.562.051,1.132.12,1.702.172.562.051.698,4.821,1.268,4.874.563.052,1.272-1.422,1.842-1.369.563.052.659,5.136,1.229,5.19.563.053,1.114.256,1.683.31.564.053.969,1.778,1.538,1.832.564.054,1.378-2.501,1.947-2.447.564.054,1.824-7.08,2.393-7.025.564.055,1.012,1.368,1.581,1.424.565.055.384,7.777.953,7.832.565.055,1.342-2.054,1.911-1.998.565.056,1.563-4.268,2.132-4.211.565.056,1.21-.664,1.779-.608.564.056.733,4.096,1.3,4.153s.832,3.074,1.399,3.131,1.324-1.837,1.891-1.78,1.699-5.524,2.266-5.467,1.057.86,1.624.918,1.156-.116,1.723-.058,1.07.738,1.637.796.982,1.597,1.549,1.655,1.563-4.075,2.129-4.016.808,3.282,1.375,3.34.38,7.407.947,7.465,1.292-1.414,1.859-1.356,2.045-8.636,2.613-8.577.152,9.559.72,9.618,2.114-9.227,2.682-9.168,1.144.076,1.712.136.175,9.267.742,9.326,1.347-1.889,1.914-1.829.766,3.619,1.333,3.679,2.306-10.928,2.874-10.868,1.047.98,1.614,1.04,1.072.745,1.639.806.238,8.555.805,8.615,1.099.473,1.666.534,1.431-2.627,1.998-2.566c.57.061,1.643-4.589,2.21-4.529.57.061,1.133.175,1.699.236.57.061.514,5.913,1.081,5.974.57.061,1.113.354,1.679.415.57.062.957,1.796,1.523,1.857.57.062,2.068-8.458,2.634-8.397.57.062,1.022,1.199,1.588,1.261.571.062,1.255-.943,1.82-.881.571.062.678,4.355,1.243,4.416.571.062,1.395-2.229,1.96-2.168.571.062.557,5.442,1.121,5.504.571.062,1.937-7.172,2.501-7.11.571.063.215,8.546.778,8.608.571.063,1.769-5.614,2.331-5.552.571.063.793,3.256,1.356,3.318.571.063,1.302-1.363,1.864-1.301.572.063,1.251-.895,1.812-.833.572.063,1.699-4.946,2.26-4.884.573.063.657,4.48,1.218,4.542.573.064,1.521-3.298,2.081-3.236.574.064,1.301-1.307,1.861-1.244.575.064-.136,11.606.423,11.669.576.064,2.238-9.701,2.796-9.639.577.064.412,6.68.969,6.742.577.065,1.629-4.204,2.184-4.142.578.065.574,5.218,1.128,5.28.579.065,2.083-8.225,2.634-8.163.582.065.08,9.631.63,9.693.585.066,1.185-.176,1.732-.115.588.066,1.482-2.79,2.025-2.729.595.067,1.386-1.855,1.925-1.794.603.068.786,3.52,1.315,3.58.617.07,2.068-7.675,2.58-7.617.656.074.443,6.992.916,7.045,1.103.126,3.681-1.253,3.681-1.253" style="fill: none; stroke: #000; stroke-linecap: round; stroke-linejoin: round; stroke-width: 40px;"/>
</svg>