<?xml version="1.0" encoding="UTF-8"?>
<svg xmlns="http://www.w3.org/2000/svg" width="700" height="700" viewBox="0 0 700 700">
  <g id="LM_Icons" data-name="LM Icons">
    <g>
      <path d="M298.787,471.061c-.202,1.706,3.011,3.791,2.603,5.474-.402,1.661,1.019,3.975.429,5.612-.577,1.602-1.809,3.114-2.554,4.692-.726,1.537-5.838.691-6.713,2.205-.85,1.471,1.057,4.526.076,5.974-.953,1.407,1.358,5.334.29,6.717-1.039,1.346-4.428.967-5.568,2.29-1.111,1.29-2.062,2.82-3.261,4.087-1.172,1.238-4.41.453-5.658,1.668-1.223,1.19-.478,4.494-1.768,5.661-1.267,1.147-4.807-.299-6.132.824-1.305,1.107-3.66.822-5.016,1.905-1.339,1.07.548,6.252-.834,7.298-1.368,1.036-5.649-1.901-7.054-.889-1.394,1.004-.618,5.04-2.042,6.02-1.417.975-5.099-1.47-6.541-.52s-1.539,3.879-2.997,4.801c-1.457.923-3.832.293-5.303,1.19s-2.837,1.885-4.32,2.757c-1.491.877.15,7.161-1.344,8.011-1.506.856-5.158-2.109-6.661-1.281-1.52.837-2.649,2.354-4.161,3.16-1.534.818-1.275,5.063-2.794,5.849-1.547.8-3.05,1.743-4.576,2.51-1.559.784-3.31,1.223-4.841,1.97-1.571.767-3.516.774-5.05,1.502-1.584.753-3.016,1.826-4.553,2.536-1.599.739-4.081-.501-5.62.191-1.614.726-2.619,2.749-4.156,3.422-1.63.714-3.378,1.064-4.91,1.717-1.653.704-2.586,3.005-4.109,3.636-1.683.697-4.987-2.794-6.49-2.189-1.733.697-4.255-1.049-5.719-.479-1.846.719-3.01,2.42-4.368,2.93-3.101,1.164-7.645,3.996-7.645,3.996.028-2.634,2.172-2.61,2.201-5.244.028-2.631-1.292-2.645-1.263-5.276.028-2.633,2.501-2.607,2.529-5.24.028-2.632-2.888-2.663-2.86-5.295.028-2.633,4.618-2.584,4.646-5.217.028-2.634-2.312-2.66-2.284-5.294s2.342-2.609,2.37-5.244-5.034-2.689-5.006-5.323c.028-2.635,2.021-2.614,2.05-5.249.028-2.634,3.181-2.6,3.209-5.233.028-2.636.135-2.635.164-5.271.028-2.638-4.51-2.687-4.482-5.324.028-2.638,4.983-2.584,5.012-5.222,0,0-3.183-2.294-6.348-3.006-1.363-.307-4.419,5.167-6.29,4.694-1.466-.371-1.169-8.028-2.921-8.514-1.502-.416-3.536.813-5.232.306-1.518-.454-3.059-1-4.723-1.532-1.525-.487-4.193,2.283-5.832,1.727-1.527-.519-2.407-3.089-4.027-3.671-1.526-.548-2.489-2.69-4.091-3.296-1.521-.576-4.56,2.654-6.145,2.023-1.516-.603-3.599-.023-5.169-.678-1.51-.63-1.229-5.581-2.786-6.26-1.501-.655-3.473-.294-5.014-.996-1.495-.681-3.082-1.22-4.611-1.947-1.486-.706-3.074-1.256-4.59-2.007-1.476-.732-2.298-2.784-3.801-3.559-1.466-.756-2.922-.382-4.41-1.18,1.383-.96,3.082-.64,4.461-1.669,1.352-1.008,3.781-.765,5.126-1.833,1.323-1.05-.187-5.64,1.128-6.741,1.297-1.087,4.058-.481,5.344-1.612,1.273-1.119,2.37-2.475,3.63-3.631,1.25-1.148,1.717-3.147,2.952-4.326s1.732-3.079,2.944-4.278c1.211-1.197,2.343-2.441,3.534-3.658,1.193-1.219,5.332.392,6.503-.842s1.387-3.415,2.539-4.662c1.161-1.258,2.67-2.216,3.804-3.477,1.147-1.275-.343-4.878.772-6.15,1.133-1.292,2.734-2.139,3.832-3.421,1.12-1.308,1.986-2.79,3.067-4.082,1.108-1.323,1.485-3.198,2.549-4.496,1.097-1.339,5.558.086,6.606-1.22,1.088-1.356,3.298-1.814,4.329-3.125,1.08-1.373-2.636-6.434-1.623-7.747,1.073-1.392,1.511-3.167,2.503-4.48,1.07-1.415,3.994-1.331,4.964-2.64,1.071-1.445,5.034-.665,5.976-1.961,1.084-1.492-3.218-6.68-2.319-7.946,1.134-1.595,4.258-1.46,5.076-2.639,1.862-2.685,2.472-1.391,3.876-3.518M383.376,480.406c.202,1.706,4.033,3.012,4.44,4.696.402,1.661,2.822,2.646,3.412,4.284.577,1.602.673,3.272,1.418,4.851.726,1.537-2.782,5.435-1.907,6.948.85,1.471,4.592,1.335,5.573,2.783.953,1.407,5.29.271,6.358,1.654,1.039,1.346-.166,4.395.974,5.718,1.111,1.29,2.475,2.317,3.674,3.584,1.172,1.238.358,4.476,1.606,5.691,1.223,1.19,4.485.245,5.776,1.412,1.267,1.147.324,4.863,1.65,5.987,1.305,1.107,1.615,3.581,2.971,4.664,1.339,1.07,5.95-1.996,7.332-.95,1.368,1.036-.138,6.02,1.267,7.032,1.394,1.004,4.991-1.047,6.415-.067,1.417.975.596,5.346,2.038,6.296s4.234-.112,5.691.811c1.457.923,2.013,3.372,3.484,4.269s3.073,1.685,4.556,2.558c1.491.877,6.119-3.68,7.614-2.831,1.506.856.867,5.506,2.371,6.333,1.52.837,3.427.963,4.939,1.77,1.534.818,4.849-1.822,6.369-1.035,1.547.8,3.118,1.425,4.644,2.192,1.559.784,2.9,1.876,4.43,2.623,1.571.767,2.733,2.257,4.267,2.986,1.584.753,3.276,1.143,4.813,1.853,1.599.739,2.259,3.412,3.797,4.104,1.614.726,3.764.103,5.301.775,1.63.714,3.05,1.731,4.581,2.383,1.653.704,3.903-.261,5.425.37,1.683.697,1.577,5.492,3.081,6.097,1.733.697,2.424,3.714,3.887,4.284,1.846.719,3.92.252,5.278.762,3.101,1.164,2.049-.453,2.049-.453-.028-2.634,2.115-2.657,2.087-5.29-.028-2.631-1.348-2.617-1.377-5.248-.028-2.633,2.444-2.66,2.416-5.294-.028-2.632-2.945-2.6-2.973-5.232-.028-2.633,4.561-2.683,4.533-5.316-.028-2.634-2.369-2.609-2.398-5.243s2.285-2.659,2.257-5.294c-.028-2.634-5.091-2.58-5.119-5.214-.028-2.635,1.964-2.657,1.936-5.292s3.124-2.668,3.095-5.301c-.028-2.636.078-2.637.05-5.273-.028-2.638-4.567-2.589-4.596-5.227-.028-2.638,4.058-2.235,4.817-4.761.72-2.393.358,1.148,3.522.436,1.363-.307,1.564-6.551,3.435-7.024,1.466-.371,4.992,6.434,6.744,5.949,1.502-.416,2.672-2.565,4.369-3.073,1.518-.454,3.163-.891,4.826-1.422,1.525-.487,2.026-4.3,3.665-4.857,1.527-.519,3.798.954,5.417.372,1.526-.548,3.692.442,5.293-.164,1.521-.576,1.591-5.009,3.176-5.64,1.516-.603,2.522-2.439,4.092-3.094,1.51-.63,4.861,3.013,6.418,2.334,1.501-.655,2.575-2.373,4.116-3.076,1.495-.681,2.934-1.55,4.464-2.278,1.486-.706,2.899-1.614,4.415-2.365,1.476-.732,3.634-.186,5.137-.961,1.466-.756,2.966-2.688,4.454-3.486-1.389-.964-2.47-3.283-3.87-4.323-1.361-1.011-1.655-3.346-3.022-4.422-1.335-1.051-5.486,1.395-6.824.288-1.312-1.085-1.169-3.922-2.481-5.054-1.292-1.115-2.751-2.034-4.038-3.189-1.273-1.141-3.309-1.456-4.574-2.63-1.255-1.164-3.213-1.614-4.458-2.806-1.239-1.186-2.539-2.345-3.765-3.552s.456-5.317-.754-6.538-3.35-1.504-4.544-2.737-2.036-2.796-3.214-4.041c-1.187-1.255-4.922-.115-6.085-1.369-1.177-1.269-1.866-2.991-3.015-4.255-1.167-1.283-2.546-2.372-3.681-3.643-1.157-1.296-2.985-1.997-4.106-3.275-1.148-1.309,1.014-5.471-.092-6.754-1.142-1.323-1.147-3.554-2.24-4.842-1.136-1.338-6.862,1.239-7.941-.052-1.131-1.353-2.804-2.23-3.867-3.522-1.127-1.369-.372-4.227-1.418-5.517-1.127-1.391.649-5.019-.377-6.304-1.133-1.419-7.314,1.277-8.313.006-1.151-1.464-.141-4.459-1.1-5.699-1.208-1.563-1.29-3.683-2.166-4.836-1.994-2.628-.892-6.335-.892-6.335M336.007,90.421c-1.725,0-3.45,3.564-5.164,3.609-1.724.045-3.342,2.143-5.054,2.233-1.722.09-3.434-.354-5.144-.219-1.719.136-3.916-4.605-5.621-4.424s-3.093,3.611-4.793,3.836c-1.709.227-2.762,4.604-4.456,4.875s-3.825-2.266-5.512-1.95-3.289.967-4.967,1.328c-1.684.363-4.005-2.035-5.672-1.629s-2.615,3.666-4.272,4.117-4.268-2.357-5.912-1.862c-1.649.497-3.882-.596-5.513-.057-1.635.541-1.577,6.075-3.192,6.658-1.62.584-4.982-3.392-6.581-2.766s-1.825,4.763-3.407,5.431-4.845-2.36-6.409-1.649c-1.567.712-2.162,3.653-3.707,4.405-1.547.754-3.944-.041-5.467.753s-3.046,1.778-4.549,2.612c-1.504.835.116,7.123-1.364,7.997-1.482.875-5.2-1.977-6.656-1.065s-2.488,2.528-3.919,3.479c-1.433.952-.629,5.101-2.034,6.09s-2.631,2.07-4.01,3.096-2.906,1.712-4.258,2.774-3.158,1.445-4.481,2.543-2.343,2.447-3.637,3.579c-1.294,1.133-3.982.648-5.245,1.815s-1.493,3.372-2.725,4.572-2.675,2.118-3.875,3.35-1.059,3.641-2.226,4.905-5.626-.478-6.759.816c-1.132,1.293-4.229.993-5.328,2.317-1.098,1.323-1.314,3.461-2.377,4.813-1.062,1.351,2.721,6.389,1.694,7.769s-3.731,1.46-4.72,2.866-.838,3.522-1.79,4.955c-.951,1.431-3.938,1.499-4.852,2.957s.71,4.399-.165,5.881-5.698.668-6.533,2.173.411,4.129-.383,5.655c-.793,1.524-3.635,2.022-4.388,3.569-.752,1.544,3.11,5.226,2.398,6.793-.711,1.564-3.196,2.27-3.866,3.856-.668,1.582-4.234,1.982-4.861,3.585-.626,1.599-1.344,3.207-1.928,4.826s3.152,4.703,2.612,6.338c-.539,1.63-5.777,1.763-6.273,3.412-.495,1.643-1.112,3.31-1.564,4.971-.451,1.656,4.966,4.8,4.559,6.474-.406,1.667-8.079,1.665-8.442,3.349s.994,3.776.677,5.469c-.316,1.686-.685,3.416-.957,5.117s2.909,3.899,2.682,5.607c-.226,1.7-2.55,3.139-2.731,4.853s-2.011,3.299-2.147,5.018c-.135,1.71,3.852,3.698,3.762,5.419-.09,1.713,1.166,3.414,1.121,5.138-.045,1.714-4.731,3.348-4.731,5.073s1.155,3.451,1.2,5.165c.045,1.724.294,3.439.383,5.152.09,1.722.402,3.424.537,5.134.136,1.719-1.159,3.581-.979,5.287s1.085,3.365,1.31,5.065c.227,1.709-.467,3.578-.196,5.272s-1.073,3.747-.757,5.433,5.084,2.516,5.445,4.194-1.455,3.862-1.049,5.53,1.109,3.293,1.559,4.95c.452,1.662,2.023,3.005,2.518,4.649.497,1.649,1.976,2.96,2.515,4.59s1.159,3.199,1.741,4.815c.584,1.62-2.642,4.685-2.016,6.285.627,1.603,2.529,2.742,3.198,4.324s.946,3.387,1.656,4.951c.712,1.567,4.616,1.63,5.368,3.174.754,1.547.924,3.344,1.718,4.868s1.855,2.871,2.689,4.373c.835,1.504,2.45,2.504,3.324,3.984.875,1.482-1.959,5.216-1.046,6.672.914,1.458.673,3.748,1.624,5.18s6.916-.547,7.905.858c.99,1.407,2.543,2.31,3.569,3.689s.139,4.155,1.201,5.507-.685,5.008.412,6.331,7.167-1.607,8.299-.314.28,4.288,1.446,5.551,1.455,3.342,2.654,4.574.244,4.682,1.476,5.882,6.22-1.54,7.483-.374.969,4.025,2.263,5.158,2.191,2.749,3.514,3.848,1.085,4.216,2.437,5.279c1.351,1.062,2.413,2.665,3.793,3.692s7.154-4.01,8.561-3.02,2.714,1.96,4.146,2.912c1.431.951.76,5.088,2.217,6.002s2.73,2.158,4.212,3.033c1.479.874,3.744.383,5.248,1.218,1.502.834,3.479.719,5.005,1.514s.967,5.756,2.514,6.509,3.588.599,5.155,1.311c1.564.711,4.969-2.798,6.554-2.128,1.582.668,1.465,5.489,3.068,6.117,1.599.626,4.073-1.021,5.693-.437,1.615.583,3.768-.5,5.403.041,1.63.539,2.491,3.429,4.14,3.925s3.521.165,5.182.617c1.656.451,3.47.196,5.143.604,1.667.406,3.319.734,5.003,1.097s2.727,3.895,4.421,4.212c1.686.316,3.844-1.971,5.546-1.699s2.825,4.672,4.533,4.899,3.484.581,5.197.762,3.91-4.682,5.629-4.547c1.71.135,3.37.584,5.091.674,1.713.09,3.338,2.585,5.062,2.63,1.714.045,3.468.617,5.193.617s3.361-5.052,5.075-5.097c1.724-.045,3.453,1.687,5.166,1.597,1.722-.09,3.714,3.759,5.424,3.624,1.719-.136,3.203-3.11,4.909-3.29s3.624,1.186,5.325.96c1.709-.227,3.122-2.51,4.816-2.78s3.63.781,5.316.465,2.473-4.951,4.151-5.312c1.684-.363,3.751,1.277,5.418.871,1.674-.408,3.912,1.438,5.568.987s2.285-4.412,3.928-4.907c1.649-.497,5.061,4.598,6.692,4.059,1.635-.541,3.687-.152,5.302-.735s1.489-5.929,3.088-6.555c1.603-.627,2.913-1.872,4.495-2.54,1.586-.67,3.894.364,5.457-.347,1.567-.712,4.107.566,5.651-.186,1.547-.754,2.29-3.189,3.814-3.982,1.526-.795,2.345-2.892,3.848-3.726,1.504-.835,2.094-3.171,3.573-4.045,1.482-.875,5.275,2.071,6.731,1.158,1.458-.914,3.469-1.082,4.901-2.033s2.985-1.863,4.39-2.852,1.733-3.561,3.112-4.587,3.415-1.264,4.766-2.326.223-5.202,1.545-6.3,2.618-2.155,3.911-3.288c1.294-1.133,5.182.614,6.445-.552,1.263-1.167-.759-5.786.473-6.986s4.757-.069,5.956-1.3-.051-4.75,1.115-6.013,6.217.969,7.349-.325.359-4.257,1.458-5.58,1.964-2.83,3.027-4.182c1.062-1.351,3.206-1.891,4.233-3.271,1.026-1.379,2.13-2.741,3.12-4.147s2.334-2.615,3.286-4.048.387-3.866,1.3-5.324,5.02-1.023,5.894-2.505c.874-1.479-3.026-5.72-2.191-7.225.834-1.502,3.08-2.214,3.875-3.74.793-1.524,4.006-1.863,4.76-3.411.752-1.544,2.145-2.872,2.857-4.439s-.396-3.99.274-5.575c.668-1.582-.084-3.756.543-5.359s3.032-2.549,3.617-4.168-.277-3.755.264-5.389.594-3.411,1.09-5.06,1.25-3.208,1.702-4.869,2.527-2.916,2.935-4.59c.406-1.667,1.162-3.306,1.525-4.99.361-1.678-2.458-4.008-2.141-5.702s-.455-3.516-.183-5.218,2.29-3.097,2.517-4.806,1.588-3.27,1.769-4.984.773-3.4.908-5.119c.135-1.71-1.178-3.528-1.088-5.25.09-1.713-2.33-3.486-2.285-5.21.045-1.714,1.709-3.359,1.709-5.084s-2.407-3.349-2.452-5.063c-.045-1.724,5.786-3.656,5.697-5.369-.09-1.722-.757-3.454-.892-5.164-.136-1.719-.623-3.442-.803-5.148-.181-1.714-4.27-2.944-4.496-4.645-.227-1.709,1.06-3.588.789-5.282s-.241-3.431-.557-5.117,2.511-4.044,2.15-5.722c-.363-1.684-2.728-2.95-3.134-4.617-.408-1.674.924-3.834.473-5.49s-6.812-1.61-7.307-3.254c-.497-1.649,4.914-5.144,4.375-6.774s-1.053-3.349-1.635-4.964-1.326-3.249-1.952-4.849c-.627-1.603-2.455-2.768-3.124-4.35s-5.02-1.532-5.731-3.096c-.712-1.567,3.677-5.534,2.925-7.079s-2.437-2.695-3.231-4.219-1.142-3.357-1.976-4.859c-.835-1.504-3.516-1.993-4.39-3.473s-.99-3.449-1.903-4.905c-.914-1.458-2.332-2.62-3.283-4.051-.952-1.433-4.436-1.106-5.425-2.512s-.764-3.64-1.79-5.019-1.321-3.306-2.384-4.658-2.694-2.235-3.792-3.557-.213-4.361-1.346-5.654-4.179-.893-5.345-2.156-3.641-1.234-4.84-2.465c-1.2-1.232-3.122-1.633-4.354-2.833s-2.569-2.153-3.832-3.319-.707-4.265-2-5.398c-1.293-1.132-3.432-1.208-4.755-2.306s.862-6.559-.49-7.622c-1.351-1.062-6.368,2.652-7.748,1.625-1.379-1.026.58-6.673-.827-7.663s-5.898,2.519-7.331,1.567-.968-4.807-2.425-5.721-1.974-3.474-3.455-4.349-3.783-.433-5.287-1.268-1.919-3.841-3.446-4.636-4.133.396-5.68-.358-5.462,3.603-7.029,2.891-2.131-3.518-3.716-4.188-3.109-1.369-4.712-1.996c-1.599-.626-2.365-3.451-3.985-4.036s-4.203,1.693-5.838,1.153-3.669.466-5.318-.03-2.488-3.564-4.149-4.016c-1.656-.451-3.331-.729-5.004-1.137-1.667-.406-2.352-5.256-4.036-5.618s-3.747.842-5.44.525-3.413-.727-5.114-.999-3.642.936-5.35.71-3.556.851-5.27.67c-1.706-.18-3.609,2.334-5.327,2.198-1.71-.135-3.183-3.119-4.905-3.21-1.713-.09-3.415-.199-5.139-.244-1.714-.045-3.42-4.385-5.145-4.385Z" style="fill: #fff;"/>
      <path d="M298.787,471.061c-.202,1.706,3.011,3.791,2.603,5.474-.402,1.661,1.019,3.975.429,5.612-.577,1.602-1.809,3.114-2.554,4.692-.726,1.537-5.838.691-6.713,2.205-.85,1.471,1.057,4.526.076,5.974-.953,1.407,1.358,5.334.29,6.717-1.039,1.346-4.428.967-5.568,2.29-1.111,1.29-2.062,2.82-3.261,4.087-1.172,1.238-4.41.453-5.658,1.668-1.223,1.19-.478,4.494-1.768,5.661-1.267,1.147-4.807-.299-6.132.824-1.305,1.107-3.66.822-5.016,1.905-1.339,1.07.548,6.252-.834,7.298-1.368,1.036-5.649-1.901-7.054-.889-1.394,1.004-.618,5.04-2.042,6.02-1.417.975-5.099-1.47-6.541-.52s-1.539,3.879-2.997,4.801c-1.457.923-3.832.293-5.303,1.19s-2.837,1.885-4.32,2.757c-1.491.877.15,7.161-1.344,8.011-1.506.856-5.158-2.109-6.661-1.281-1.52.837-2.649,2.354-4.161,3.16-1.534.818-1.275,5.063-2.794,5.849-1.547.8-3.05,1.743-4.576,2.51-1.559.784-3.31,1.223-4.841,1.97-1.571.767-3.516.774-5.05,1.502-1.584.753-3.016,1.826-4.553,2.536-1.599.739-4.081-.501-5.62.191-1.614.726-2.619,2.749-4.156,3.422-1.63.714-3.378,1.064-4.91,1.717-1.653.704-2.586,3.005-4.109,3.636-1.683.697-4.987-2.794-6.49-2.189-1.733.697-4.255-1.049-5.719-.479-1.846.719-3.01,2.42-4.368,2.93-3.101,1.164-7.645,3.996-7.645,3.996.028-2.634,2.172-2.61,2.201-5.244.028-2.631-1.292-2.645-1.263-5.276.028-2.633,2.501-2.607,2.529-5.24.028-2.632-2.888-2.663-2.86-5.295.028-2.633,4.618-2.584,4.646-5.217.028-2.634-2.312-2.66-2.284-5.294s2.342-2.609,2.37-5.244-5.034-2.689-5.006-5.323c.028-2.635,2.021-2.614,2.05-5.249.028-2.634,3.181-2.6,3.209-5.233.028-2.636.135-2.635.164-5.271.028-2.638-4.51-2.687-4.482-5.324.028-2.638,4.983-2.584,5.012-5.222,0,0-3.183-2.294-6.348-3.006-1.363-.307-4.419,5.167-6.29,4.694-1.466-.371-1.169-8.028-2.921-8.514-1.502-.416-3.536.813-5.232.306-1.518-.454-3.059-1-4.723-1.532-1.525-.487-4.193,2.283-5.832,1.727-1.527-.519-2.407-3.089-4.027-3.671-1.526-.548-2.489-2.69-4.091-3.296-1.521-.576-4.56,2.654-6.145,2.023-1.516-.603-3.599-.023-5.169-.678-1.51-.63-1.229-5.581-2.786-6.26-1.501-.655-3.473-.294-5.014-.996-1.495-.681-3.082-1.22-4.611-1.947-1.486-.706-3.074-1.256-4.59-2.007-1.476-.732-2.298-2.784-3.801-3.559-1.466-.756-2.922-.382-4.41-1.18,1.383-.96,3.082-.64,4.461-1.669,1.352-1.008,3.781-.765,5.126-1.833,1.323-1.05-.187-5.64,1.128-6.741,1.297-1.087,4.058-.481,5.344-1.612,1.273-1.119,2.37-2.475,3.63-3.631,1.25-1.148,1.717-3.147,2.952-4.326s1.732-3.079,2.944-4.278c1.211-1.197,2.343-2.441,3.534-3.658,1.193-1.219,5.332.392,6.503-.842s1.387-3.415,2.539-4.662c1.161-1.258,2.67-2.216,3.804-3.477,1.147-1.275-.343-4.878.772-6.15,1.133-1.292,2.734-2.139,3.832-3.421,1.12-1.308,1.986-2.79,3.067-4.082,1.108-1.323,1.485-3.198,2.549-4.496,1.097-1.339,5.558.086,6.606-1.22,1.088-1.356,3.298-1.814,4.329-3.125,1.08-1.373-2.636-6.434-1.623-7.747,1.073-1.392,1.511-3.167,2.503-4.48,1.07-1.415,3.994-1.331,4.964-2.64,1.071-1.445,5.034-.665,5.976-1.961,1.084-1.492-3.218-6.68-2.319-7.946,1.134-1.595,4.258-1.46,5.076-2.639,1.862-2.685,2.472-1.391,3.876-3.518M383.376,480.406c.202,1.706,4.033,3.012,4.44,4.696.402,1.661,2.822,2.646,3.412,4.284.577,1.602.673,3.272,1.418,4.851.726,1.537-2.782,5.435-1.907,6.948.85,1.471,4.592,1.335,5.573,2.783.953,1.407,5.29.271,6.358,1.654,1.039,1.346-.166,4.395.974,5.718,1.111,1.29,2.475,2.317,3.674,3.584,1.172,1.238.358,4.476,1.606,5.691,1.223,1.19,4.485.245,5.776,1.412,1.267,1.147.324,4.863,1.65,5.987,1.305,1.107,1.615,3.581,2.971,4.664,1.339,1.07,5.95-1.996,7.332-.95,1.368,1.036-.138,6.02,1.267,7.032,1.394,1.004,4.991-1.047,6.415-.067,1.417.975.596,5.346,2.038,6.296s4.234-.112,5.691.811c1.457.923,2.013,3.372,3.484,4.269s3.073,1.685,4.556,2.558c1.491.877,6.119-3.68,7.614-2.831,1.506.856.867,5.506,2.371,6.333,1.52.837,3.427.963,4.939,1.77,1.534.818,4.849-1.822,6.369-1.035,1.547.8,3.118,1.425,4.644,2.192,1.559.784,2.9,1.876,4.43,2.623,1.571.767,2.733,2.257,4.267,2.986,1.584.753,3.276,1.143,4.813,1.853,1.599.739,2.259,3.412,3.797,4.104,1.614.726,3.764.103,5.301.775,1.63.714,3.05,1.731,4.581,2.383,1.653.704,3.903-.261,5.425.37,1.683.697,1.577,5.492,3.081,6.097,1.733.697,2.424,3.714,3.887,4.284,1.846.719,3.92.252,5.278.762,3.101,1.164,2.049-.453,2.049-.453-.028-2.634,2.115-2.657,2.087-5.29-.028-2.631-1.348-2.617-1.377-5.248-.028-2.633,2.444-2.66,2.416-5.294-.028-2.632-2.945-2.6-2.973-5.232-.028-2.633,4.561-2.683,4.533-5.316-.028-2.634-2.369-2.609-2.398-5.243s2.285-2.659,2.257-5.294c-.028-2.634-5.091-2.58-5.119-5.214-.028-2.635,1.964-2.657,1.936-5.292s3.124-2.668,3.095-5.301c-.028-2.636.078-2.637.05-5.273-.028-2.638-4.567-2.589-4.596-5.227-.028-2.638,4.058-2.235,4.817-4.761.72-2.393.358,1.148,3.522.436,1.363-.307,1.564-6.551,3.435-7.024,1.466-.371,4.992,6.434,6.744,5.949,1.502-.416,2.672-2.565,4.369-3.073,1.518-.454,3.163-.891,4.826-1.422,1.525-.487,2.026-4.3,3.665-4.857,1.527-.519,3.798.954,5.417.372,1.526-.548,3.692.442,5.293-.164,1.521-.576,1.591-5.009,3.176-5.64,1.516-.603,2.522-2.439,4.092-3.094,1.51-.63,4.861,3.013,6.418,2.334,1.501-.655,2.575-2.373,4.116-3.076,1.495-.681,2.934-1.55,4.464-2.278,1.486-.706,2.899-1.614,4.415-2.365,1.476-.732,3.634-.186,5.137-.961,1.466-.756,2.966-2.688,4.454-3.486-1.389-.964-2.47-3.283-3.87-4.323-1.361-1.011-1.655-3.346-3.022-4.422-1.335-1.051-5.486,1.395-6.824.288-1.312-1.085-1.169-3.922-2.481-5.054-1.292-1.115-2.751-2.034-4.038-3.189-1.273-1.141-3.309-1.456-4.574-2.63-1.255-1.164-3.213-1.614-4.458-2.806-1.239-1.186-2.539-2.345-3.765-3.552s.456-5.317-.754-6.538-3.35-1.504-4.544-2.737-2.036-2.796-3.214-4.041c-1.187-1.255-4.922-.115-6.085-1.369-1.177-1.269-1.866-2.991-3.015-4.255-1.167-1.283-2.546-2.372-3.681-3.643-1.157-1.296-2.985-1.997-4.106-3.275-1.148-1.309,1.014-5.471-.092-6.754-1.142-1.323-1.147-3.554-2.24-4.842-1.136-1.338-6.862,1.239-7.941-.052-1.131-1.353-2.804-2.23-3.867-3.522-1.127-1.369-.372-4.227-1.418-5.517-1.127-1.391.649-5.019-.377-6.304-1.133-1.419-7.314,1.277-8.313.006-1.151-1.464-.141-4.459-1.1-5.699-1.208-1.563-1.29-3.683-2.166-4.836-1.994-2.628-.892-6.335-.892-6.335M336.007,90.421c-1.725,0-3.45,3.564-5.164,3.609-1.724.045-3.342,2.143-5.054,2.233-1.722.09-3.434-.354-5.144-.219-1.719.136-3.916-4.605-5.621-4.424s-3.093,3.611-4.793,3.836c-1.709.227-2.762,4.604-4.456,4.875s-3.825-2.266-5.512-1.95-3.289.967-4.967,1.328c-1.684.363-4.005-2.035-5.672-1.629s-2.615,3.666-4.272,4.117-4.268-2.357-5.912-1.862c-1.649.497-3.882-.596-5.513-.057-1.635.541-1.577,6.075-3.192,6.658-1.62.584-4.982-3.392-6.581-2.766s-1.825,4.763-3.407,5.431-4.845-2.36-6.409-1.649c-1.567.712-2.162,3.653-3.707,4.405-1.547.754-3.944-.041-5.467.753s-3.046,1.778-4.549,2.612c-1.504.835.116,7.123-1.364,7.997-1.482.875-5.2-1.977-6.656-1.065s-2.488,2.528-3.919,3.479c-1.433.952-.629,5.101-2.034,6.09s-2.631,2.07-4.01,3.096-2.906,1.712-4.258,2.774-3.158,1.445-4.481,2.543-2.343,2.447-3.637,3.579c-1.294,1.133-3.982.648-5.245,1.815s-1.493,3.372-2.725,4.572-2.675,2.118-3.875,3.35-1.059,3.641-2.226,4.905-5.626-.478-6.759.816c-1.132,1.293-4.229.993-5.328,2.317-1.098,1.323-1.314,3.461-2.377,4.813-1.062,1.351,2.721,6.389,1.694,7.769s-3.731,1.46-4.72,2.866-.838,3.522-1.79,4.955c-.951,1.431-3.938,1.499-4.852,2.957s.71,4.399-.165,5.881-5.698.668-6.533,2.173.411,4.129-.383,5.655c-.793,1.524-3.635,2.022-4.388,3.569-.752,1.544,3.11,5.226,2.398,6.793-.711,1.564-3.196,2.27-3.866,3.856-.668,1.582-4.234,1.982-4.861,3.585-.626,1.599-1.344,3.207-1.928,4.826s3.152,4.703,2.612,6.338c-.539,1.63-5.777,1.763-6.273,3.412-.495,1.643-1.112,3.31-1.564,4.971-.451,1.656,4.966,4.8,4.559,6.474-.406,1.667-8.079,1.665-8.442,3.349s.994,3.776.677,5.469c-.316,1.686-.685,3.416-.957,5.117s2.909,3.899,2.682,5.607c-.226,1.7-2.55,3.139-2.731,4.853s-2.011,3.299-2.147,5.018c-.135,1.71,3.852,3.698,3.762,5.419-.09,1.713,1.166,3.414,1.121,5.138-.045,1.714-4.731,3.348-4.731,5.073s1.155,3.451,1.2,5.165c.045,1.724.294,3.439.383,5.152.09,1.722.402,3.424.537,5.134.136,1.719-1.159,3.581-.979,5.287s1.085,3.365,1.31,5.065c.227,1.709-.467,3.578-.196,5.272s-1.073,3.747-.757,5.433,5.084,2.516,5.445,4.194-1.455,3.862-1.049,5.53,1.109,3.293,1.559,4.95c.452,1.662,2.023,3.005,2.518,4.649.497,1.649,1.976,2.96,2.515,4.59s1.159,3.199,1.741,4.815c.584,1.62-2.642,4.685-2.016,6.285.627,1.603,2.529,2.742,3.198,4.324s.946,3.387,1.656,4.951c.712,1.567,4.616,1.63,5.368,3.174.754,1.547.924,3.344,1.718,4.868s1.855,2.871,2.689,4.373c.835,1.504,2.45,2.504,3.324,3.984.875,1.482-1.959,5.216-1.046,6.672.914,1.458.673,3.748,1.624,5.18s6.916-.547,7.905.858c.99,1.407,2.543,2.31,3.569,3.689s.139,4.155,1.201,5.507-.685,5.008.412,6.331,7.167-1.607,8.299-.314.28,4.288,1.446,5.551,1.455,3.342,2.654,4.574.244,4.682,1.476,5.882,6.22-1.54,7.483-.374.969,4.025,2.263,5.158,2.191,2.749,3.514,3.848,1.085,4.216,2.437,5.279c1.351,1.062,2.413,2.665,3.793,3.692s7.154-4.01,8.561-3.02,2.714,1.96,4.146,2.912c1.431.951.76,5.088,2.217,6.002s2.73,2.158,4.212,3.033c1.479.874,3.744.383,5.248,1.218,1.502.834,3.479.719,5.005,1.514s.967,5.756,2.514,6.509,3.588.599,5.155,1.311c1.564.711,4.969-2.798,6.554-2.128,1.582.668,1.465,5.489,3.068,6.117,1.599.626,4.073-1.021,5.693-.437,1.615.583,3.768-.5,5.403.041,1.63.539,2.491,3.429,4.14,3.925s3.521.165,5.182.617c1.656.451,3.47.196,5.143.604,1.667.406,3.319.734,5.003,1.097s2.727,3.895,4.421,4.212c1.686.316,3.844-1.971,5.546-1.699s2.825,4.672,4.533,4.899,3.484.581,5.197.762,3.91-4.682,5.629-4.547c1.71.135,3.37.584,5.091.674,1.713.09,3.338,2.585,5.062,2.63,1.714.045,3.468.617,5.193.617s3.361-5.052,5.075-5.097c1.724-.045,3.453,1.687,5.166,1.597,1.722-.09,3.714,3.759,5.424,3.624,1.719-.136,3.203-3.11,4.909-3.29s3.624,1.186,5.325.96c1.709-.227,3.122-2.51,4.816-2.78s3.63.781,5.316.465,2.473-4.951,4.151-5.312c1.684-.363,3.751,1.277,5.418.871,1.674-.408,3.912,1.438,5.568.987s2.285-4.412,3.928-4.907c1.649-.497,5.061,4.598,6.692,4.059,1.635-.541,3.687-.152,5.302-.735s1.489-5.929,3.088-6.555c1.603-.627,2.913-1.872,4.495-2.54,1.586-.67,3.894.364,5.457-.347,1.567-.712,4.107.566,5.651-.186,1.547-.754,2.29-3.189,3.814-3.982,1.526-.795,2.345-2.892,3.848-3.726,1.504-.835,2.094-3.171,3.573-4.045,1.482-.875,5.275,2.071,6.731,1.158,1.458-.914,3.469-1.082,4.901-2.033s2.985-1.863,4.39-2.852,1.733-3.561,3.112-4.587,3.415-1.264,4.766-2.326.223-5.202,1.545-6.3,2.618-2.155,3.911-3.288c1.294-1.133,5.182.614,6.445-.552,1.263-1.167-.759-5.786.473-6.986s4.757-.069,5.956-1.3-.051-4.75,1.115-6.013,6.217.969,7.349-.325.359-4.257,1.458-5.58,1.964-2.83,3.027-4.182c1.062-1.351,3.206-1.891,4.233-3.271,1.026-1.379,2.13-2.741,3.12-4.147s2.334-2.615,3.286-4.048.387-3.866,1.3-5.324,5.02-1.023,5.894-2.505c.874-1.479-3.026-5.72-2.191-7.225.834-1.502,3.08-2.214,3.875-3.74.793-1.524,4.006-1.863,4.76-3.411.752-1.544,2.145-2.872,2.857-4.439s-.396-3.99.274-5.575c.668-1.582-.084-3.756.543-5.359s3.032-2.549,3.617-4.168-.277-3.755.264-5.389.594-3.411,1.09-5.06,1.25-3.208,1.702-4.869,2.527-2.916,2.935-4.59c.406-1.667,1.162-3.306,1.525-4.99.361-1.678-2.458-4.008-2.141-5.702s-.455-3.516-.183-5.218,2.29-3.097,2.517-4.806,1.588-3.27,1.769-4.984.773-3.4.908-5.119c.135-1.71-1.178-3.528-1.088-5.25.09-1.713-2.33-3.486-2.285-5.21.045-1.714,1.709-3.359,1.709-5.084s-2.407-3.349-2.452-5.063c-.045-1.724,5.786-3.656,5.697-5.369-.09-1.722-.757-3.454-.892-5.164-.136-1.719-.623-3.442-.803-5.148-.181-1.714-4.27-2.944-4.496-4.645-.227-1.709,1.06-3.588.789-5.282s-.241-3.431-.557-5.117,2.511-4.044,2.15-5.722c-.363-1.684-2.728-2.95-3.134-4.617-.408-1.674.924-3.834.473-5.49s-6.812-1.61-7.307-3.254c-.497-1.649,4.914-5.144,4.375-6.774s-1.053-3.349-1.635-4.964-1.326-3.249-1.952-4.849c-.627-1.603-2.455-2.768-3.124-4.35s-5.02-1.532-5.731-3.096c-.712-1.567,3.677-5.534,2.925-7.079s-2.437-2.695-3.231-4.219-1.142-3.357-1.976-4.859c-.835-1.504-3.516-1.993-4.39-3.473s-.99-3.449-1.903-4.905c-.914-1.458-2.332-2.62-3.283-4.051-.952-1.433-4.436-1.106-5.425-2.512s-.764-3.64-1.79-5.019-1.321-3.306-2.384-4.658-2.694-2.235-3.792-3.557-.213-4.361-1.346-5.654-4.179-.893-5.345-2.156-3.641-1.234-4.84-2.465c-1.2-1.232-3.122-1.633-4.354-2.833s-2.569-2.153-3.832-3.319-.707-4.265-2-5.398c-1.293-1.132-3.432-1.208-4.755-2.306s.862-6.559-.49-7.622c-1.351-1.062-6.368,2.652-7.748,1.625-1.379-1.026.58-6.673-.827-7.663s-5.898,2.519-7.331,1.567-.968-4.807-2.425-5.721-1.974-3.474-3.455-4.349-3.783-.433-5.287-1.268-1.919-3.841-3.446-4.636-4.133.396-5.68-.358-5.462,3.603-7.029,2.891-2.131-3.518-3.716-4.188-3.109-1.369-4.712-1.996c-1.599-.626-2.365-3.451-3.985-4.036s-4.203,1.693-5.838,1.153-3.669.466-5.318-.03-2.488-3.564-4.149-4.016c-1.656-.451-3.331-.729-5.004-1.137-1.667-.406-2.352-5.256-4.036-5.618s-3.747.842-5.44.525-3.413-.727-5.114-.999-3.642.936-5.35.71-3.556.851-5.27.67c-1.706-.18-3.609,2.334-5.327,2.198-1.71-.135-3.183-3.119-4.905-3.21-1.713-.09-3.415-.199-5.139-.244-1.714-.045-3.42-4.385-5.145-4.385Z" style="fill: none; stroke: #000; stroke-linecap: round; stroke-linejoin: round; stroke-width: 45px;"/>
    </g>
  </g>
  <g id="Schrift">
    <text transform="translate(258.158 378.076)" style="font-family: DarumadropOne, &apos;Darumadrop One&apos;; font-size: 300px;"><tspan x="0" y="0">2</tspan></text>
  </g>
</svg>