<?xml version="1.0" encoding="UTF-8"?>
<svg id="SM_Icons" data-name="SM Icons" xmlns="http://www.w3.org/2000/svg" width="200" height="200" viewBox="0 0 200 200">
  <g>
    <polygon points="125.118 45.373 122.978 30.894 107.724 33.649 93.746 32.154 78.524 30.955 76.138 45.103 64.269 46.993 52.762 43.657 40.323 43.716 42.876 56.526 38.77 68.444 41.87 79.815 51.618 80.533 50.983 92.764 53.556 105.163 53.018 117.565 52.74 129.972 52.308 142.374 51.921 154.785 50.731 168.268 64.045 165.006 76.271 169.534 88.493 166.873 100.718 168.664 112.948 166.163 125.173 168.35 137.407 164.696 148.705 166.272 150.221 154.793 148.406 142.394 150.911 129.992 149.079 117.586 150.192 105.183 150.094 92.772 150.848 81.388 158.694 79.02 160.474 68.452 158.727 56.534 162.001 42.885 148.707 42.373 137.266 46.697 125.118 45.373" style="fill: #fff;"/>
    <polygon points="125.118 45.373 122.978 30.894 107.724 33.649 93.746 32.154 78.524 30.955 76.138 45.103 64.269 46.993 52.762 43.657 40.323 43.716 42.876 56.526 38.77 68.444 41.87 79.815 51.618 80.533 50.983 92.764 53.556 105.163 53.018 117.565 52.74 129.972 52.308 142.374 51.921 154.785 50.731 168.268 64.045 165.006 76.271 169.534 88.493 166.873 100.718 168.664 112.948 166.163 125.173 168.35 137.407 164.696 148.705 166.272 150.221 154.793 148.406 142.394 150.911 129.992 149.079 117.586 150.192 105.183 150.094 92.772 150.848 81.388 158.694 79.02 160.474 68.452 158.727 56.534 162.001 42.885 148.707 42.373 137.266 46.697 125.118 45.373" style="fill: none; stroke: #000; stroke-linecap: round; stroke-linejoin: round; stroke-width: 25px;"/>
  </g>
  <g>
    <polyline points="85.391 80.339 85.05 93.535 84.552 106.727 85.695 119.928 87.654 133.129" style="fill: none; stroke: #000; stroke-linecap: round; stroke-linejoin: round; stroke-width: 20px;"/>
    <polyline points="115.84 80.926 114.491 94.122 113.349 107.314 114.552 120.515 117.024 133.715" style="fill: none; stroke: #000; stroke-linecap: round; stroke-linejoin: round; stroke-width: 20px;"/>
  </g>
</svg>