<?xml version="1.0" encoding="UTF-8"?>
<svg id="Small" xmlns="http://www.w3.org/2000/svg" width="160" height="160" viewBox="0 0 160 160">
  <path d="M140.615,120.065c-1.954.608-.227-1.375-1.675-2.823s-2.685-.21-4.133-1.657-2.161-.739-3.611-2.189-2.357-1.484-3.176-3.364c-.751-1.726,2.006-2.453,2.006-4.335s-.732-1.881-.732-3.762-.077-1.882-.077-3.764,1.117-1.883,1.117-3.766-1.825-1.883-1.825-3.766,1.092-1.883,1.092-3.766-1.453-1.882-1.453-3.765,1.296-1.883,1.296-3.765.506-1.883.506-3.766-1.339-1.886-1.339-3.772,1.287-1.675-.045-3.01-1.118-1.476-3-1.476-1.881,1.392-3.762,1.392-1.882-1.107-3.764-1.107-1.883,1.508-3.766,1.508-1.883-2.356-3.766-2.356-1.883.433-3.766.433-1.882-.096-3.765-.096-1.883.056-3.765.056-1.883,1.568-3.766,1.568-1.886-1.64-3.772-1.64-2.384,2.495-4.115,1.744c-1.877-.815-1.031-2.31-2.478-3.757s-2.289-.606-3.736-2.054.007-2.907-1.443-4.357-4.608-.376-4.013-2.338c.549-1.809,2.313,1.349,4.203,1.349s1.893-1.908,3.785-1.908,1.891,1.971,3.783,1.971,1.893-1.317,3.786-1.317,1.892-1.395,3.784-1.395,1.893.378,3.786.378,1.894,1.347,3.788,1.347,1.894-.253,3.788-.253,1.894,1.308,3.788,1.308,1.893-1.462,3.787-1.462,1.894.777,3.787.777,1.894.105,3.788.105,1.897-1.208,3.794-1.208,1.897-.555,3.794-.555c1.597,0,3.457.366,4.823.936s1.328,3.227,2.46,4.36,3.499,1.221,4.067,2.582,1.364,3.105,1.364,4.701c0,1.89-1.069,1.89-1.069,3.781s-1.264,1.893-1.264,3.785,1.624,1.891,1.624,3.783-1.118,1.893-1.118,3.786.056,1.892.056,3.784.252,1.893.252,3.786.756,1.894.756,3.788-.678,1.894-.678,3.788,1.449,1.894,1.449,3.788-1.962,1.893-1.962,3.787,1.088,1.894,1.088,3.787-.763,1.894-.763,3.788-.45,2.077.009,3.918c.407,1.632,2.001,2.122.189,2.685ZM95.294,44.123c-1.365-1.363.563-1.199.563-3.129s-1.751-1.933-1.751-3.865.758-1.459-.59-2.844c-1.313-1.348-.834.408-2.716.408s-1.881-2.125-3.762-2.125-1.882.732-3.764.732-1.883.077-3.766.077-1.883-1.117-3.766-1.117-1.883,1.825-3.766,1.825-1.882-1.092-3.765-1.092-1.883,1.453-3.765,1.453-1.883-1.296-3.766-1.296-1.886-.506-3.772-.506-2.329,2.031-4.059,1.28c-1.877-.815-1.924-1.344-3.371-2.791s-.179-2.716-1.627-4.163-2.434-.465-3.884-1.915-2.606-1.293-2.01-3.255c.549-1.809,1.48-1.204,3.37-1.204s1.893,2.356,3.785,2.356,1.891-.433,3.783-.433,1.893.096,3.786.096,1.892-.056,3.784-.056,1.893-1.568,3.786-1.568,1.894,1.64,3.788,1.64,1.894-1.815,3.788-1.815,1.894.964,3.788.964,1.893-1.189,3.787-1.189,1.894,2.06,3.787,2.06,1.894-1.418,3.788-1.418,1.897,1.663,3.794,1.663,1.897-1.908,3.794-1.908c1.597,0,2.584,2.157,3.95,2.727s3.125.209,4.257,1.341,3.277,1.853,3.844,3.214.587,3.397.587,4.994c0,1.929-1.347,1.929-1.347,3.859s.253,1.933.253,3.865.452,1.542-.913,2.909-.972,1.065-2.902,1.065-2.02-.99-3.94-.773c-1.685.19-1.694,1.299-3.061-.067ZM70.657,126.704c1.33,1.332,2.613.563,4.495.563s1.881-1.751,3.762-1.751,1.882-1.005,3.764-1.005,1.883.034,3.766.034,1.883,2.125,3.766,2.125,1.883-.732,3.766-.732,1.882-.077,3.765-.077,1.883,1.117,3.765,1.117,1.883-1.825,3.766-1.825,1.886,1.092,3.772,1.092,2.013,1.094,2.662-.677c.672-1.833-.19-1.054-1.57-2.434s-1.021-1.737-2.399-3.115-2.327-.433-3.708-1.814-1.634-1.125-3.014-2.504-.113-2.649-1.494-4.03-2.365-.395-3.745-1.775-.598-2.164-1.978-3.544-2.448-.315-3.829-1.696.285-3.047-1.096-4.429-1.686-1.074-3.065-2.453-1.313-1.449-2.695-2.83-1.421-1.342-2.803-2.723-2.49-.273-3.872-1.655-.224-2.544-1.608-3.928-1.312-1.947-3.153-1.284c-1.771.638-.396,1.074-.396,2.956s1.189,1.881,1.189,3.762-2.06,1.882-2.06,3.764,1.418,1.883,1.418,3.766-1.663,1.883-1.663,3.766,1.908,1.883,1.908,3.766-1.971,1.882-1.971,3.765,1.317,1.883,1.317,3.765,1.395,1.883,1.395,3.766.116,2.264-.421,4.072c-.693,2.331-3.069,2.867-1.737,4.202ZM132.663,144.789c-1.944.002-.46-1.256-1.835-2.631s-2.615-.139-3.992-1.516-1.204-.973-2.998-1.729c-1.742-.734-1.322.081-3.212.081s-1.893-2.125-3.785-2.125-1.891.732-3.783.732-1.893.077-3.786.077-1.892-1.117-3.784-1.117-1.893,1.825-3.786,1.825-1.894-1.092-3.788-1.092-1.894,1.453-3.788,1.453-1.894-1.296-3.788-1.296-1.893-.506-3.787-.506-1.894,1.339-3.787,1.339-1.894.36-3.788.36-1.897-1.793-3.794-1.793-1.897,1.392-3.794,1.392c-1.621,0-2.955-1.348-4.317-1.889-1.397-.555-3.579-.233-4.703-1.358s-.014-3.62-.57-5.017c-.542-1.362-1.155-2.382-1.155-4.004,0-1.89.096-1.89.096-3.781s-.056-1.893-.056-3.785-1.568-1.891-1.568-3.783,1.64-1.893,1.64-3.786-1.815-1.892-1.815-3.784.964-1.893.964-3.786-1.189-1.894-1.189-3.788,2.06-1.894,2.06-3.788-1.418-1.894-1.418-3.788,1.663-1.893,1.663-3.787-1.908-1.894-1.908-3.787,1.971-1.894,1.971-3.788-1.317-1.897-1.317-3.794-.58-1.501-1.291-3.259c-.682-1.687-.706-1.079-1.992-2.366s-.335-2.239-1.622-3.527-1.463-1.106-2.748-2.39-.361-2.211-1.647-3.498-2.322-.254-3.609-1.541-.738-1.838-2.026-3.125-1.214-1.362-2.502-2.65-2.144-.436-3.435-1.726-.201-2.75-1.86-1.989c-1.711.785.572.982.572,2.865s-2.259,1.881-2.259,3.762,1.942,1.882,1.942,3.764.458,1.883.458,3.766-1.069,1.883-1.069,3.766-1.264,1.883-1.264,3.766,1.624,1.882,1.624,3.765-1.118,1.883-1.118,3.765.056,1.883.056,3.766.252,1.886.252,3.772-.702,2.194.647,3.513c1.38,1.349,1.676.574,3.605.574s1.933-1.449,3.865-1.449,1.912.355,3.28,1.72.844,1.343.844,3.272-.763,1.933-.763,3.865,1.508,2.137.143,3.504-1.568.621-3.497.621-1.933-.331-3.865-.331-1.933-.618-3.865-.618c-1.621,0-3.603,1.651-4.966,1.109-1.397-.555-2.286-2.509-3.41-3.634s-2.559-2.22-3.115-3.616c-.542-1.362,1.192-3.138,1.192-4.759,0-1.89-1.917-1.89-1.917-3.781s2.023-1.893,2.023-3.785-.594-1.891-.594-3.783-2.067-1.893-2.067-3.786,1.043-1.892,1.043-3.784-.358-1.893-.358-3.786-.49-1.894-.49-3.788.539-1.894.539-3.788.721-1.894.721-3.788,1.179-1.893,1.179-3.787-1.838-1.894-1.838-3.787-.618-1.894-.618-3.788,1.672-1.897,1.672-3.794-.969-1.575-1.704-3.325c-.753-1.792-.176-1.925-1.551-3.3s-2.338-.416-3.715-1.793-1.887-1.687-1.889-3.634,2.366-.398,3.741-1.773.232-2.522,1.609-3.899.969-3.082,2.916-3.104c1.903-.022,1.047,2.169,2.392,3.515s1.133,1.559,2.479,2.905.94,1.754,2.287,3.101,2.58.114,3.928,1.461.429,2.263,1.776,3.61,2.446.246,3.792,1.592,1.405,1.287,2.751,2.633-.054,2.747,1.292,4.093,1.738.957,3.085,2.305,2.585.109,3.932,1.456,1.091,1.602,2.437,2.949.803,1.89,2.149,3.236.575,2.119,1.922,3.466,1.992.704,3.34,2.052,1.217,1.477,2.564,2.824,1.142,1.551,2.489,2.898,1.285,1.41,2.632,2.757,1.439,1.257,2.786,2.604,1.769.925,3.116,2.272,1.623,1.072,2.97,2.419,1.435,1.261,2.783,2.609.987,1.708,2.334,3.055.543,2.152,1.891,3.5,1.242,1.448,2.587,2.793,3.114-.42,4.461.927,1.572,1.122,2.919,2.469-.609,3.301.736,4.647,2.546.147,3.893,1.494.557,2.139,1.905,3.488,2.603.091,3.95,1.437,1.518,1.179,2.866,2.527.477,2.218,1.825,3.565,2.134.563,3.483,1.912-.46,3.156.888,4.504,2.697,0,4.046,1.349,1.343,1.356,2.692,2.705.572,2.121,1.918,3.467,2.404.292,3.752,1.64.61,2.09,1.959,3.439,1.564,1.136,2.914,2.485.372,2.329,1.722,3.679,2.835-.13,4.188,1.222.636,1.421.62,3.334c-.016,1.944.058,1.375-1.317,2.75s-1.545,1.229-2.758,2.753c-1.065,1.339-.792,1.733-2.739,1.734Z" style="fill: #4d4d4d;"/>
</svg>