<?xml version="1.0" encoding="UTF-8"?>
<svg id="SM_Icons" data-name="SM Icons" xmlns="http://www.w3.org/2000/svg" width="200" height="200" viewBox="0 0 200 200">
  <path d="M133.924,89.529l-7.041,9.136-7.662,8.494-9.413,6.712-7.279,6.238-1.326-11.194,1.475-12.842-.446-12.846.955-12.85-.241-12.846-2.077-12.855,1.333-12.855M65.46,88.431l10.053,7.234,9.438,7.882,7.733,9.707,7.544,9.908M34.081,131.046l1.618,10.686.725,10.693-1.816,10.599,12.1,2.017,12.185-2.266,12.183,1.475,12.184-.446,12.184.955,12.18-.241,12.184-2.077,12.188,1.333,12.184-1.502,12.192-.062,11.646.302,1.645-10.385-2.67-10.998-.609-10.998" style="fill: none; stroke: #000; stroke-linecap: round; stroke-linejoin: round; stroke-width: 23px;"/>
</svg>