<?xml version="1.0" encoding="UTF-8"?>
<svg id="SM_Icons" data-name="SM Icons" xmlns="http://www.w3.org/2000/svg" width="200" height="200" viewBox="0 0 200 200">
  <g>
    <polyline points="101.133 160.537 89.288 157.58 77.439 160.347 65.593 159.157 53.74 160.769 42.946 158.694 41.524 147.906 42.027 136.06 42.727 124.212 43.837 112.364 42.331 100.519 40.713 88.672 39.988 76.821 41.76 64.973 43.809 53.117 41.644 41.019 53.731 42.394 65.58 41.948 77.426 42.903 89.279 42.662 101.133 40.585" style="fill: #fff;"/>
    <polyline points="101.133 160.537 89.288 157.58 77.439 160.347 65.593 159.157 53.74 160.769 42.946 158.694 41.524 147.906 42.027 136.06 42.727 124.212 43.837 112.364 42.331 100.519 40.713 88.672 39.988 76.821 41.76 64.973 43.809 53.117 41.644 41.019 53.731 42.394 65.58 41.948 77.426 42.903 89.279 42.662 101.133 40.585" style="fill: none; stroke: #000; stroke-linecap: round; stroke-linejoin: round; stroke-width: 23px;"/>
  </g>
  <polyline points="99.848 38.736 111.843 39.431 123.843 39.41 135.839 42.88 147.843 41.036 158.837 41.519 159.061 52.507 161.756 64.505 161.682 76.503 159.227 88.502 158.041 100.497 158.758 112.494 157.526 124.497 162.157 136.495 158.03 148.502 159.972 160.632 147.852 161.156 135.852 159.057 123.856 161.771 111.852 161.677 99.848 162.129" style="fill: none; stroke: #000; stroke-dasharray: 0 30; stroke-linecap: round; stroke-linejoin: round; stroke-width: 23px;"/>
  <polyline points="99.403 25.939 100.639 38.215 99.661 50.5 99.436 62.784 103.605 75.051 100.437 87.344 101.745 99.623 99.891 111.908 102.251 124.182 99.471 136.477 102.09 148.751 102.49 161.041 100.648 173.338" style="fill: none; stroke: #000; stroke-linecap: round; stroke-linejoin: round; stroke-width: 23px;"/>
</svg>