<?xml version="1.0" encoding="UTF-8"?>
<svg id="SM_Icons" data-name="SM Icons" xmlns="http://www.w3.org/2000/svg" width="200" height="200" viewBox="0 0 200 200">
  <g>
    <polyline points="101.133 159.055 89.288 160.171 77.439 160.703 65.593 159.902 53.74 160.091 42.984 158.656 42.586 147.906 42.316 136.06 42.844 124.212 40.969 112.364 42.128 100.519 43.756 88.672 41.878 76.821 43.366 64.973 40.952 53.117 40.406 39.782 53.731 43.381 65.58 41.811 77.426 38.987 89.279 40.245 101.133 40.775" style="fill: #fff;"/>
    <polyline points="101.133 159.055 89.288 160.171 77.439 160.703 65.593 159.902 53.74 160.091 42.984 158.656 42.586 147.906 42.316 136.06 42.844 124.212 40.969 112.364 42.128 100.519 43.756 88.672 41.878 76.821 43.366 64.973 40.952 53.117 40.406 39.782 53.731 43.381 65.58 41.811 77.426 38.987 89.279 40.245 101.133 40.775" style="fill: none; stroke: #000; stroke-linecap: round; stroke-linejoin: round; stroke-width: 23px;"/>
  </g>
  <polyline points="99.848 41.63 111.843 41.011 123.843 40.179 135.839 39.633 147.843 38.133 159.619 40.737 158.052 52.507 161.588 64.505 157.356 76.503 161.205 88.502 160.009 100.497 160.192 112.494 160.341 124.497 160.24 136.495 162.133 148.502 160.543 161.203 147.852 160.549 135.852 158.553 123.856 158.749 111.852 158.591 99.848 160.749" style="fill: none; stroke: #000; stroke-dasharray: 0 30; stroke-linecap: round; stroke-linejoin: round; stroke-width: 23px;"/>
  <polyline points="99.007 25.94 100.621 38.215 100.205 50.498 102.889 62.772 99.366 75.065 101.466 87.341 99.043 99.632 103.007 111.898 100.597 124.187 101.555 136.471 101.333 148.754 102.585 161.04 103.586 173.328" style="fill: none; stroke: #000; stroke-linecap: round; stroke-linejoin: round; stroke-width: 23px;"/>
</svg>