<?xml version="1.0" encoding="UTF-8"?>
<svg id="Small" xmlns="http://www.w3.org/2000/svg" width="400" height="400" viewBox="0 0 400 400">
  <path d="M282.413,162.366c0,1.268.346,2.5.307,3.758-.039,1.267,2.271,2.645,2.194,3.901-.078,1.265-1.182,2.473-1.299,3.727-.118,1.261-1.383,2.388-1.54,3.637-.157,1.257,1.459,2.765,1.264,4.009-.197,1.251-2.094,2.211-2.329,3.449s1.18,2.832.906,4.062-1.039,2.378-1.352,3.599-2.574,1.905-2.926,3.115.594,2.803.205,4.003c-.391,1.203-1.355,2.197-1.782,3.383s.901,3.054.437,4.226-1.622,2.094-2.124,3.252c-.503,1.16-.874,2.4-1.412,3.541s-2.209,1.734-2.783,2.858.546,3.167-.063,4.272c-.61,1.107-2.672,1.405-3.315,2.491-.644,1.087-.594,2.608-1.271,3.672-.678,1.066-2.389,1.452-3.1,2.495s-1.532,1.986-2.275,3.006c-.743,1.021-1.808,1.765-2.583,2.761s-1.496,1.994-2.301,2.966c-.806.973-.938,2.496-1.773,3.442s-1.825,1.742-2.69,2.663-.991,2.563-1.884,3.456-1.792,1.811-2.712,2.676-2.95.507-3.897,1.342-1.272,2.378-2.245,3.183-2.44.976-3.438,1.751-.807,3.141-1.829,3.885-3.527-.625-4.572.086-1.537,2.212-2.603,2.89c-1.065.677-2.319,1.018-3.406,1.662s-1.169,3.065-2.276,3.675-2.721.315-3.847.89c-1.123.574-2.668.285-3.812.824-1.141.538-1.653,2.486-2.813,2.989-1.157.501-3.182-1.096-4.357-.63s-1.593,2.904-2.783,3.332-2.877-.603-4.08-.212c-1.199.389-2.458.506-3.673.858s-1.857,2.802-3.083,3.115-2.974-1.566-4.21-1.291c-1.23.274-2.028,2.679-3.272,2.915-1.238.235-2.768-1.114-4.018-.917-1.244.195-2.57-.32-3.826-.163-1.25.156-2.371,1.379-3.632,1.497-1.254.117-2.447,1.302-3.711,1.38-1.257.078-2.562-.121-3.828-.082-1.258.039-2.548-1.236-3.816-1.236s-2.562,1.425-3.82,1.386c-1.267-.039-2.529-.608-3.785-.686-1.265-.078-2.61.572-3.864.455-1.261-.118-2.312-2.21-3.562-2.366-1.257-.157-2.696,1.006-3.94.81-1.251-.197-2.447-.781-3.685-1.016s-2.461-.624-3.691-.897-2.269-1.35-3.49-1.663-3.012,1.383-4.223,1.032-2.04-2.05-3.24-2.44-2.136-1.536-3.322-1.963c-1.19-.429-2.436-.652-3.608-1.117s-2.275-1.067-3.433-1.568-2.557-.456-3.698-.994c-1.144-.539-2.668-.331-3.792-.904s-1.501-2.567-2.606-3.176-1.91-1.689-2.995-2.332-3.074.199-4.138-.478c-1.066-.678-2.67-.595-3.713-1.305s-1.052-2.925-2.072-3.667c-1.021-.743-1.429-2.259-2.426-3.033s-2.909-.382-3.881-1.188-2.673-.797-3.619-1.632-1.641-2.001-2.561-2.865-.152-3.459-1.045-4.352-2.497-1.055-3.362-1.975c-.864-.92-.956-2.505-1.791-3.452-.835-.947-3.787-.083-4.593-1.056s-1.394-2.167-2.169-3.165-1.828-1.833-2.571-2.855-.092-3.044-.803-4.088-2.507-1.387-3.185-2.453-1.592-2.028-2.236-3.115-.854-2.458-1.464-3.565-1.401-2.146-1.976-3.272c-.574-1.123-.79-2.452-1.329-3.596-.538-1.141.099-2.814-.404-3.974s-1.919-1.932-2.385-3.107.454-2.857.025-4.047-1.511-2.125-1.902-3.328-2.34-1.936-2.692-3.15,1.681-3.076,1.367-4.302-1.204-2.278-1.479-3.513.072-2.563-.164-3.806-.354-2.46-.55-3.711c-.195-1.244-2.284-2.216-2.441-3.472-.156-1.25-.315-2.525-.432-3.786-.117-1.254,1.291-2.628,1.213-3.892-.078-1.257.294-2.506.255-3.773-.039-1.258-1.953-2.483-1.953-3.75s1.678-2.499,1.716-3.758c.039-1.267-.163-2.513-.085-3.77.078-1.265.605-2.461.722-3.714.118-1.261-.975-2.633-.818-3.883.157-1.257,1.206-2.372,1.402-3.616.197-1.251-1.621-2.855-1.386-4.093s2.117-2.16,2.391-3.39.539-2.458.852-3.679c.314-1.226,1.647-2.142,1.998-3.352s-1.394-3.063-1.005-4.262.288-2.609.715-3.795c.429-1.19,3.222-1.487,3.686-2.659s-.06-2.74.441-3.897.551-2.531,1.089-3.672.23-2.735.804-3.858,1.93-1.872,2.539-2.977c.61-1.107,2.617-1.406,3.261-2.491.644-1.087-.592-3.332.085-4.397s3.26-.881,3.97-1.925.684-2.584,1.427-3.605c.743-1.021,2.162-1.512,2.937-2.509.775-.998.865-2.522,1.67-3.495.806-.973,1.642-1.914,2.478-2.861s1.21-2.323,2.074-3.243,1.483-2.111,2.376-3.004c.893-.893,1.931-1.673,2.852-2.537s3.152-.279,4.099-1.114,1.222-2.424,2.195-3.229c.972-.805,1.821-1.762,2.819-2.537.997-.774,2.032-1.5,3.054-2.243s2.292-1.119,3.336-1.831c1.043-.71,2.072-1.421,3.138-2.099,1.065-.677,2.525-.666,3.612-1.311s1.571-2.303,2.678-2.913,2.214-1.217,3.339-1.792,2.712-.17,3.855-.709,1.908-1.864,3.068-2.366,2.448-.662,3.623-1.128,2.158-1.409,3.348-1.837,2.267-1.194,3.47-1.584,2.336-1.051,3.551-1.404,2.281-1.357,3.507-1.67c1.221-.313,2.78.67,4.015.395s2.663.487,3.907.251,2.259-1.683,3.51-1.879c1.244-.195,2.527-.198,3.783-.355,1.25-.156,2.66,1.315,3.922,1.197,1.254-.117,2.448-.525,3.712-.603,1.257-.078,2.486-.023,3.753-.062,1.258-.039,2.482-.018,3.75-.018s2.528-1.212,3.787-1.174c1.267.039,2.458,1.205,3.714,1.283,1.265.078,2.665-1.728,3.919-1.611,1.261.118,2.363,1.669,3.613,1.825,1.257.157,2.672-.856,3.917-.66,1.251.197,2.224,1.935,3.462,2.169s2.361.879,3.592,1.153c1.236.275,2.802-.933,4.023-.62,1.226.314,2.158,1.645,3.369,1.996s2.283,1.057,3.482,1.446,3.266-1.73,4.452-1.303,1.352,3.566,2.524,4.031,2.645.133,3.802.635,2.013,1.61,3.153,2.148,2.799-.014,3.922.559c1.126.575,2.672.382,3.777.991s1.1,3.151,2.185,3.794c1.087.644,2.931.018,3.996.696s1.953,1.626,2.996,2.337,2.121,1.369,3.141,2.111c1.021.743,1.937,1.618,2.934,2.392s1.928,1.62,2.9,2.425,2.044,1.485,2.991,2.32c.947.836,2.574.942,3.494,1.806s1.341,2.269,2.234,3.162.904,2.622,1.768,3.542,3.263.445,4.099,1.392c.835.947,1.163,2.358,1.969,3.33.805.972,1.955,1.693,2.73,2.691s.323,2.919,1.067,3.941,2.565,1.282,3.276,2.326.146,2.923.824,3.989,2.331,1.522,2.975,2.609,1.414,2.114,2.023,3.221.418,2.637.993,3.763,2.321,1.682,2.86,2.825c.538,1.141-.252,2.891.251,4.051s.154,2.635.62,3.811c.464,1.172,1.333,2.154,1.762,3.343.427,1.186,1.871,2.013,2.261,3.216s.137,2.592.489,3.807-.17,2.631.144,3.857,1.331,2.244,1.606,3.479,2.402,2.092,2.637,3.335.427,2.527.623,3.778c.195,1.244.029,2.577.186,3.834.156,1.25.379,2.526.497,3.787.117,1.254-.93,2.615-.852,3.879.078,1.257.554,2.501.593,3.767.039,1.258-1.552,2.529-1.552,3.797ZM358.347,357.257c-1.342-1.342-1.6-1.084-2.942-2.425s-3.019.336-4.361-1.006c-1.341-1.341-.629-2.053-1.97-3.394s-.537-2.144-1.878-3.485-2.622-.06-3.963-1.4c-1.341-1.341-.135-2.548-1.476-3.889-1.342-1.342-2.55-.135-3.892-1.477s-1.004-1.679-2.346-3.021c-1.341-1.341.075-2.757-1.267-4.098-1.341-1.341-2.311-.371-3.652-1.712-1.342-1.342-.924-1.759-2.266-3.101s-2.689.003-4.031-1.34c-1.342-1.342-.835-1.848-2.177-3.19-1.341-1.341-1.464-1.219-2.805-2.561s-.466-2.218-1.808-3.56-2.719.034-4.062-1.308-.181-2.503-1.522-3.845c-1.342-1.342-1.935-.749-3.277-2.091-1.343-1.343-.482-2.203-1.825-3.546-1.342-1.342-1.251-1.433-2.593-2.775-1.343-1.343-1.057-1.629-2.399-2.971s-1.383-1.297-2.723-2.636c-1.342-1.342-1.971-.713-3.313-2.055-1.342-1.342-1.203-1.48-2.545-2.822-1.341-1.341-2.085-.596-3.425-1.937-1.341-1.341-1.365-1.318-2.707-2.659s-.19-2.496-1.533-3.839c-1.342-1.342-2.021-.662-3.363-2.003s-.788-1.898-2.131-3.241-2.761.076-4.103-1.266.468-3.155-.875-4.499-2.038-.648-3.381-1.991c-1.343-1.343-1.085-1.602-2.428-2.946-1.344-1.344-2.801.113-4.145-1.231-1.341-1.341-.622-2.06-1.963-3.401s-.678-2.008-2.021-3.351c-1.344-1.344-2.451-.238-3.795-1.583-1.345-1.345.247-2.936-1.098-4.281-1.345-1.345-2.853.163-4.198-1.182-1.347-1.347-.271-2.424-1.618-3.771-1.347-1.347-1.164-1.53-2.511-2.877" style="fill: #fff;"/>
  <path d="M282.413,162.366c0,1.268.346,2.5.307,3.758-.039,1.267,2.271,2.645,2.194,3.901-.078,1.265-1.182,2.473-1.299,3.727-.118,1.261-1.383,2.388-1.54,3.637-.157,1.257,1.459,2.765,1.264,4.009-.197,1.251-2.094,2.211-2.329,3.449s1.18,2.832.906,4.062-1.039,2.378-1.352,3.599-2.574,1.905-2.926,3.115.594,2.803.205,4.003c-.391,1.203-1.355,2.197-1.782,3.383s.901,3.054.437,4.226-1.622,2.094-2.124,3.252c-.503,1.16-.874,2.4-1.412,3.541s-2.209,1.734-2.783,2.858.546,3.167-.063,4.272c-.61,1.107-2.672,1.405-3.315,2.491-.644,1.087-.594,2.608-1.271,3.672-.678,1.066-2.389,1.452-3.1,2.495s-1.532,1.986-2.275,3.006c-.743,1.021-1.808,1.765-2.583,2.761s-1.496,1.994-2.301,2.966c-.806.973-.938,2.496-1.773,3.442s-1.825,1.742-2.69,2.663-.991,2.563-1.884,3.456-1.792,1.811-2.712,2.676-2.95.507-3.897,1.342-1.272,2.378-2.245,3.183-2.44.976-3.438,1.751-.807,3.141-1.829,3.885-3.527-.625-4.572.086-1.537,2.212-2.603,2.89c-1.065.677-2.319,1.018-3.406,1.662s-1.169,3.065-2.276,3.675-2.721.315-3.847.89c-1.123.574-2.668.285-3.812.824-1.141.538-1.653,2.486-2.813,2.989-1.157.501-3.182-1.096-4.357-.63s-1.593,2.904-2.783,3.332-2.877-.603-4.08-.212c-1.199.389-2.458.506-3.673.858s-1.857,2.802-3.083,3.115-2.974-1.566-4.21-1.291c-1.23.274-2.028,2.679-3.272,2.915-1.238.235-2.768-1.114-4.018-.917-1.244.195-2.57-.32-3.826-.163-1.25.156-2.371,1.379-3.632,1.497-1.254.117-2.447,1.302-3.711,1.38-1.257.078-2.562-.121-3.828-.082-1.258.039-2.548-1.236-3.816-1.236s-2.562,1.425-3.82,1.386c-1.267-.039-2.529-.608-3.785-.686-1.265-.078-2.61.572-3.864.455-1.261-.118-2.312-2.21-3.562-2.366-1.257-.157-2.696,1.006-3.94.81-1.251-.197-2.447-.781-3.685-1.016s-2.461-.624-3.691-.897-2.269-1.35-3.49-1.663-3.012,1.383-4.223,1.032-2.04-2.05-3.24-2.44-2.136-1.536-3.322-1.963c-1.19-.429-2.436-.652-3.608-1.117s-2.275-1.067-3.433-1.568-2.557-.456-3.698-.994c-1.144-.539-2.668-.331-3.792-.904s-1.501-2.567-2.606-3.176-1.91-1.689-2.995-2.332-3.074.199-4.138-.478c-1.066-.678-2.67-.595-3.713-1.305s-1.052-2.925-2.072-3.667c-1.021-.743-1.429-2.259-2.426-3.033s-2.909-.382-3.881-1.188-2.673-.797-3.619-1.632-1.641-2.001-2.561-2.865-.152-3.459-1.045-4.352-2.497-1.055-3.362-1.975c-.864-.92-.956-2.505-1.791-3.452-.835-.947-3.787-.083-4.593-1.056s-1.394-2.167-2.169-3.165-1.828-1.833-2.571-2.855-.092-3.044-.803-4.088-2.507-1.387-3.185-2.453-1.592-2.028-2.236-3.115-.854-2.458-1.464-3.565-1.401-2.146-1.976-3.272c-.574-1.123-.79-2.452-1.329-3.596-.538-1.141.099-2.814-.404-3.974s-1.919-1.932-2.385-3.107.454-2.857.025-4.047-1.511-2.125-1.902-3.328-2.34-1.936-2.692-3.15,1.681-3.076,1.367-4.302-1.204-2.278-1.479-3.513.072-2.563-.164-3.806-.354-2.46-.55-3.711c-.195-1.244-2.284-2.216-2.441-3.472-.156-1.25-.315-2.525-.432-3.786-.117-1.254,1.291-2.628,1.213-3.892-.078-1.257.294-2.506.255-3.773-.039-1.258-1.953-2.483-1.953-3.75s1.678-2.499,1.716-3.758c.039-1.267-.163-2.513-.085-3.77.078-1.265.605-2.461.722-3.714.118-1.261-.975-2.633-.818-3.883.157-1.257,1.206-2.372,1.402-3.616.197-1.251-1.621-2.855-1.386-4.093s2.117-2.16,2.391-3.39.539-2.458.852-3.679c.314-1.226,1.647-2.142,1.998-3.352s-1.394-3.063-1.005-4.262.288-2.609.715-3.795c.429-1.19,3.222-1.487,3.686-2.659s-.06-2.74.441-3.897.551-2.531,1.089-3.672.23-2.735.804-3.858,1.93-1.872,2.539-2.977c.61-1.107,2.617-1.406,3.261-2.491.644-1.087-.592-3.332.085-4.397s3.26-.881,3.97-1.925.684-2.584,1.427-3.605c.743-1.021,2.162-1.512,2.937-2.509.775-.998.865-2.522,1.67-3.495.806-.973,1.642-1.914,2.478-2.861s1.21-2.323,2.074-3.243,1.483-2.111,2.376-3.004c.893-.893,1.931-1.673,2.852-2.537s3.152-.279,4.099-1.114,1.222-2.424,2.195-3.229c.972-.805,1.821-1.762,2.819-2.537.997-.774,2.032-1.5,3.054-2.243s2.292-1.119,3.336-1.831c1.043-.71,2.072-1.421,3.138-2.099,1.065-.677,2.525-.666,3.612-1.311s1.571-2.303,2.678-2.913,2.214-1.217,3.339-1.792,2.712-.17,3.855-.709,1.908-1.864,3.068-2.366,2.448-.662,3.623-1.128,2.158-1.409,3.348-1.837,2.267-1.194,3.47-1.584,2.336-1.051,3.551-1.404,2.281-1.357,3.507-1.67c1.221-.313,2.78.67,4.015.395s2.663.487,3.907.251,2.259-1.683,3.51-1.879c1.244-.195,2.527-.198,3.783-.355,1.25-.156,2.66,1.315,3.922,1.197,1.254-.117,2.448-.525,3.712-.603,1.257-.078,2.486-.023,3.753-.062,1.258-.039,2.482-.018,3.75-.018s2.528-1.212,3.787-1.174c1.267.039,2.458,1.205,3.714,1.283,1.265.078,2.665-1.728,3.919-1.611,1.261.118,2.363,1.669,3.613,1.825,1.257.157,2.672-.856,3.917-.66,1.251.197,2.224,1.935,3.462,2.169s2.361.879,3.592,1.153c1.236.275,2.802-.933,4.023-.62,1.226.314,2.158,1.645,3.369,1.996s2.283,1.057,3.482,1.446,3.266-1.73,4.452-1.303,1.352,3.566,2.524,4.031,2.645.133,3.802.635,2.013,1.61,3.153,2.148,2.799-.014,3.922.559c1.126.575,2.672.382,3.777.991s1.1,3.151,2.185,3.794c1.087.644,2.931.018,3.996.696s1.953,1.626,2.996,2.337,2.121,1.369,3.141,2.111c1.021.743,1.937,1.618,2.934,2.392s1.928,1.62,2.9,2.425,2.044,1.485,2.991,2.32c.947.836,2.574.942,3.494,1.806s1.341,2.269,2.234,3.162.904,2.622,1.768,3.542,3.263.445,4.099,1.392c.835.947,1.163,2.358,1.969,3.33.805.972,1.955,1.693,2.73,2.691s.323,2.919,1.067,3.941,2.565,1.282,3.276,2.326.146,2.923.824,3.989,2.331,1.522,2.975,2.609,1.414,2.114,2.023,3.221.418,2.637.993,3.763,2.321,1.682,2.86,2.825c.538,1.141-.252,2.891.251,4.051s.154,2.635.62,3.811c.464,1.172,1.333,2.154,1.762,3.343.427,1.186,1.871,2.013,2.261,3.216s.137,2.592.489,3.807-.17,2.631.144,3.857,1.331,2.244,1.606,3.479,2.402,2.092,2.637,3.335.427,2.527.623,3.778c.195,1.244.029,2.577.186,3.834.156,1.25.379,2.526.497,3.787.117,1.254-.93,2.615-.852,3.879.078,1.257.554,2.501.593,3.767.039,1.258-1.552,2.529-1.552,3.797ZM358.347,357.257c-1.342-1.342-1.6-1.084-2.942-2.425s-3.019.336-4.361-1.006c-1.341-1.341-.629-2.053-1.97-3.394s-.537-2.144-1.878-3.485-2.622-.06-3.963-1.4c-1.341-1.341-.135-2.548-1.476-3.889-1.342-1.342-2.55-.135-3.892-1.477s-1.004-1.679-2.346-3.021c-1.341-1.341.075-2.757-1.267-4.098-1.341-1.341-2.311-.371-3.652-1.712-1.342-1.342-.924-1.759-2.266-3.101s-2.689.003-4.031-1.34c-1.342-1.342-.835-1.848-2.177-3.19-1.341-1.341-1.464-1.219-2.805-2.561s-.466-2.218-1.808-3.56-2.719.034-4.062-1.308-.181-2.503-1.522-3.845c-1.342-1.342-1.935-.749-3.277-2.091-1.343-1.343-.482-2.203-1.825-3.546-1.342-1.342-1.251-1.433-2.593-2.775-1.343-1.343-1.057-1.629-2.399-2.971s-1.383-1.297-2.723-2.636c-1.342-1.342-1.971-.713-3.313-2.055-1.342-1.342-1.203-1.48-2.545-2.822-1.341-1.341-2.085-.596-3.425-1.937-1.341-1.341-1.365-1.318-2.707-2.659s-.19-2.496-1.533-3.839c-1.342-1.342-2.021-.662-3.363-2.003s-.788-1.898-2.131-3.241-2.761.076-4.103-1.266.468-3.155-.875-4.499-2.038-.648-3.381-1.991c-1.343-1.343-1.085-1.602-2.428-2.946-1.344-1.344-2.801.113-4.145-1.231-1.341-1.341-.622-2.06-1.963-3.401s-.678-2.008-2.021-3.351c-1.344-1.344-2.451-.238-3.795-1.583-1.345-1.345.247-2.936-1.098-4.281-1.345-1.345-2.853.163-4.198-1.182-1.347-1.347-.271-2.424-1.618-3.771-1.347-1.347-1.164-1.53-2.511-2.877" style="fill: none; stroke: #000; stroke-linecap: round; stroke-miterlimit: 10; stroke-width: 15px;"/>
</svg>