<?xml version="1.0" encoding="UTF-8"?>
<svg id="Small" xmlns="http://www.w3.org/2000/svg" width="160" height="160" viewBox="0 0 160 160">
  <path d="M56.336,128.254c-1.349-1.346-.023-1.53-.023-3.436s-1.581-1.907-1.581-3.813,1.107-1.907,1.107-3.813-.908-1.907-.908-3.813.042-1.906.042-3.812-.405-1.906-.405-3.813,2.113-1.907,2.113-3.814-1.259-1.91-1.259-3.82,2.156-2.716.851-4.111c-1.221-1.305-2.098,1.309-3.885,1.309s-1.787-.311-3.575-.311-1.787-2.142-3.575-2.142-1.787,1.43-3.574,1.43-1.787-.446-3.574-.446-1.788-.058-3.575-.058-1.79,1.934-3.581,1.934-3.621.502-4.252-1.173c-.683-1.811,1.029-2.461,2.255-3.959s1.063-1.631,2.288-3.128,1.918-.932,3.144-2.43.595-2.012,1.82-3.509,1.522-1.251,2.746-2.747,1.304-1.432,2.528-2.928,1.809-1.021,3.034-2.52,1.277-1.454,2.501-2.951.841-1.813,2.067-3.312,2.203-.697,3.428-2.195,1.603-1.191,2.83-2.69,1.308-1.431,2.534-2.929.434-2.147,1.66-3.646,2.022-.849,3.249-2.348.335-2.229,1.562-3.728,2.13-.757,3.356-2.255.728-1.907,1.955-3.407,1.716-1.099,2.943-2.599-.117-2.6,1.11-4.1,2.406-.539,3.636-2.042-.422-5.137,1.519-5.14.082,3.805,1.308,5.303,2.334.59,3.56,2.088,2.109.775,3.335,2.273.623,1.989,1.848,3.486.476,2.107,1.7,3.603,2.717.276,3.941,1.772.485,2.104,1.711,3.602,1.427,1.331,2.652,2.828,1.565,1.221,2.791,2.719-.588,2.981.637,4.479,2.922.112,4.149,1.61-.206,2.669,1.02,4.167,1.238,1.489,2.465,2.988,1.95.908,3.177,2.407,1.896.952,3.123,2.451.89,1.772,2.115,3.27.948,1.727,2.175,3.227.166,2.368,1.393,3.868,2.675.316,3.902,1.816.81,1.845,2.039,3.348,3.091,1.168,2.415,2.987c-.622,1.675-1.743-1.027-3.53-1.027s-1.787,1.669-3.575,1.669-1.787-.669-3.575-.669-1.787-1.383-3.574-1.383-1.787.343-3.574.343-1.788,2.523-3.575,2.523-1.79-2.627-3.581-2.627-2.221.009-3.447,1.314c-1.305,1.389,1.04,1.78,1.04,3.686s-2.234,1.907-2.234,3.813,1.065,1.907,1.065,3.813-.943,1.907-.943,3.813,2.436,1.906,2.436,3.812-.663,1.906-.663,3.813-1.109,1.907-1.109,3.814,1.687,1.91,1.687,3.82.266,2.797-1.082,4.15-2.236.832-4.14.832-1.907-1.226-3.813-1.226-1.905-1.265-3.811-1.265-1.906,2.142-3.813,2.142-1.907-.764-3.814-.764-1.907.862-3.814.862-1.907-.274-3.814-.274-1.907-1.135-3.813-1.135-1.907,1.359-3.814,1.359-1.907.293-3.815.293-1.702-.044-3.587.266c-1.818.299-2.327-.446-3.68-1.796ZM67.029,117.561c1.347,1.349,2.282-.023,4.188-.023s1.906-1.581,3.811-1.581,1.906,1.107,3.812,1.107,1.906-.908,3.813-.908,1.91.042,3.819.042,1.483,1.351,2.835.002,1.703-.919,1.703-2.825-1.259-1.907-1.259-3.813.966-1.907.966-3.813-1.444-1.907-1.444-3.813.311-1.906.311-3.812,2.142-1.906,2.142-3.813-1.43-1.907-1.43-3.814.446-1.91.446-3.82-1.473-2.129-.097-3.454c1.428-1.376,1.63-1.792,3.613-1.792s1.983.709,3.967.709,1.986-.404,3.973-.404,1.904,2.319,2.778.535c.864-1.763-.384-.659-1.625-2.18s-1.871-1.005-3.112-2.525-.942-1.765-2.183-3.285-1.162-1.586-2.404-3.107-.658-1.997-1.9-3.519-1.188-1.562-2.428-3.082-1.627-1.207-2.869-2.728-.263-2.32-1.505-3.842-.865-1.83-2.107-3.352-1.162-1.592-2.406-3.116-1.619-2.543-3.587-2.546-2.343,1.016-3.584,2.537-.348,2.248-1.589,3.768-2.147.781-3.388,2.302-.743,1.929-1.984,3.45-1.732,1.121-2.973,2.643.106,2.618-1.135,4.138-2.42.559-3.662,2.081.757,3.153-.485,4.674-3.45-.28-4.692,1.241-.134,2.43-1.378,3.955-2.325.831-1.467,2.602c.865,1.784.999.16,2.981.16s1.983.966,3.967.966,1.986-1.928,3.973-1.928,2.763-.329,4.196,1.047c1.375,1.319.361,2.138.361,4.044s.438,1.907.438,3.813-2.343,1.907-2.343,3.813,2.191,1.907,2.191,3.813-1.85,1.906-1.85,3.812.016,1.906.016,3.813.934,1.907.934,3.814,1.317,2.18.838,4.029c-.564,2.178-2.534,2.634-1.184,3.986Z" style="fill: #4d4d4d;"/>
</svg>