<?xml version="1.0" encoding="UTF-8"?>
<svg id="Big_Assets" data-name="Big Assets" xmlns="http://www.w3.org/2000/svg" width="700" height="700" viewBox="0 0 700 700">
  <g>
    <path d="M611.108,350c0,4.769,2.577,9.578,2.326,14.284-.254,4.759-4.295,9.163-4.799,13.851-.509,4.736,4.017,10.145,3.259,14.802-.765,4.699-2.132,9.409-3.143,14.021-1.018,4.648-4.931,8.617-6.193,13.168-1.27,4.583-3.345,8.859-4.853,13.337-1.517,4.505-3.001,8.946-4.752,13.338-1.76,4.413-1.994,9.466-3.983,13.757s-4.602,8.338-6.821,12.516c-2.227,4.193-5.096,8.01-7.54,12.064s-1.793,10.214-4.454,14.131c-2.666,3.924-6.191,7.433-9.06,11.201-2.873,3.774-9.975,4.144-13.044,7.754-3.071,3.612-5.944,7.223-9.203,10.663-3.26,3.441-3.578,9.811-7.019,13.072-3.44,3.26-7.323,6.168-10.935,9.239-3.609,3.069-9.091,3.824-12.865,6.697-3.768,2.869-6.738,6.801-10.662,9.466-3.917,2.661-6.64,7.332-10.704,9.782-4.053,2.444-8.992,3.544-13.185,5.771s-8.129,5.105-12.438,7.101c-4.291,1.989-9.451,2.123-13.864,3.883-4.391,1.751-9.854.375-14.359,1.892-4.478,1.508-8.004,5.878-12.587,7.148-4.552,1.261-9.07,2.77-13.717,3.788-4.611,1.01-9.067,3.243-13.766,4.008-4.657.758-9.409,1.734-14.145,2.243-4.689.504-9.57-.018-14.33.236-4.706.251-9.504-2.097-14.273-2.097s-9.347-1.773-14.053-2.024c-4.759-.254-9.98,5.494-14.669,4.99-4.736-.509-9.038-4.63-13.696-5.387-4.699-.765-9.144-2.523-13.755-3.533-4.648-1.018-9.377-1.436-13.929-2.697-4.583-1.27-8.66-3.918-13.139-5.427-4.505-1.517-10.147.116-14.539-1.636-4.413-1.76-8.386-4.666-12.677-6.655s-6.781-7.503-10.96-9.723c-4.193-2.227-9.237-2.69-13.291-5.134s-7.892-5.13-11.809-7.791-6.691-6.729-10.459-9.598c-3.774-2.873-7.91-5.066-11.519-8.134s-10.339-2.688-13.779-5.948c-3.441-3.26-4.93-8.567-8.191-12.008-3.26-3.44-8.015-5.607-11.086-9.22-3.069-3.609-5.418-7.909-8.291-11.683-2.869-3.768-2.682-9.695-5.348-13.619s-5.749-7.428-8.2-11.492-6.618-7.09-8.845-11.283c-2.22-4.178-7.148-7.136-9.145-11.445-1.989-4.291-1.975-9.598-3.734-14.011-1.751-4.391-1.135-9.674-2.652-14.178-1.508-4.478-.59-9.587-1.86-14.17-1.261-4.552-7.166-7.914-8.185-12.562-1.01-4.611-1.683-9.382-2.447-14.081-.758-4.657-2.315-9.321-2.825-14.056-.504-4.689,4.625-9.822,4.371-14.581-.251-4.706-5.838-9.263-5.838-14.032s3.788-9.422,4.039-14.128c.254-4.759.79-9.381,1.294-14.07.509-4.736-3.141-10.034-2.383-14.691.765-4.699,5.215-8.717,6.226-13.329,1.018-4.648-1.145-10.104.116-14.656,1.27-4.583,6.014-8.121,7.523-12.599,1.517-4.505,2.967-8.961,4.719-13.353s.694-10.072,2.682-14.364,8.216-6.51,10.435-10.689-.072-10.965,2.373-15.018c2.451-4.064,8.63-5.792,11.291-9.709,2.666-3.924,2.938-9.588,5.807-13.356,2.873-3.774,6.66-6.903,9.729-10.513,3.071-3.612,8.786-4.788,12.045-8.228,3.26-3.441,4.68-8.626,8.121-11.887,3.44-3.26,7.251-6.096,10.863-9.167,3.609-3.069,7.551-5.679,11.325-8.552,3.768-2.869,5.754-8.299,9.679-10.964,3.917-2.661,9.094-3.504,13.158-5.954,4.053-2.444,8.921-3.419,13.114-5.647s7.422-6.332,11.731-8.329c4.291-1.989,10.057-.472,14.47-2.232,4.391-1.751,7.089-8.132,11.593-9.649,4.478-1.508,9.403-1.97,13.986-3.24,4.552-1.261,10.253,2.265,14.9,1.246,4.611-1.01,8.288-6.767,12.986-7.532,4.657-.758,9.976,3.603,14.712,3.094,4.689-.504,9.054-4.124,13.813-4.378,4.706-.251,9.433-3.177,14.202-3.177s9.438,4.006,14.145,4.257c4.759.254,9.826-3.193,14.515-2.689,4.736.509,9.11,3.991,13.767,4.749,4.699.765,8.687,4.621,13.299,5.631,4.648,1.018,10.439-2.822,14.991-1.561,4.583,1.27,8.823,3.829,13.301,5.337,4.505,1.517,7.795,6.143,12.186,7.894,4.413,1.76,9.446,1.828,13.737,3.817s9.595,2.064,13.774,4.284c4.193,2.227,8.902,3.76,12.956,6.204,4.064,2.451,5.393,9.176,9.309,11.836,3.924,2.666,7.326,5.81,11.094,8.679s8.653,4.205,12.263,7.274,9.573,3.598,13.013,6.858,6.443,7.142,9.704,10.583c3.26,3.44,4.534,8.721,7.606,12.333,3.069,3.609,3.687,9.059,6.56,12.833s10.162,4.317,12.828,8.241c2.661,3.917,1.939,10.02,4.39,14.084,2.444,4.053,6.926,6.93,9.153,11.122,2.22,4.178,4.884,8.209,6.881,12.518s3.584,8.833,5.343,13.246c1.751,4.391,1.011,9.697,2.528,14.201,1.508,4.478,2.996,8.895,4.265,13.478,1.261,4.552,5.008,8.502,6.026,13.149,1.01,4.611-.991,9.807-.227,14.506.758,4.657.621,9.345,1.131,14.081.504,4.689,5.832,9.018,6.086,13.777.251,4.706-3.515,9.579-3.515,14.348Z" style="fill: #fff;"/>
    <path d="M611.108,350c0,4.769,2.577,9.578,2.326,14.284-.254,4.759-4.295,9.163-4.799,13.851-.509,4.736,4.017,10.145,3.259,14.802-.765,4.699-2.132,9.409-3.143,14.021-1.018,4.648-4.931,8.617-6.193,13.168-1.27,4.583-3.345,8.859-4.853,13.337-1.517,4.505-3.001,8.946-4.752,13.338-1.76,4.413-1.994,9.466-3.983,13.757s-4.602,8.338-6.821,12.516c-2.227,4.193-5.096,8.01-7.54,12.064s-1.793,10.214-4.454,14.131c-2.666,3.924-6.191,7.433-9.06,11.201-2.873,3.774-9.975,4.144-13.044,7.754-3.071,3.612-5.944,7.223-9.203,10.663-3.26,3.441-3.578,9.811-7.019,13.072-3.44,3.26-7.323,6.168-10.935,9.239-3.609,3.069-9.091,3.824-12.865,6.697-3.768,2.869-6.738,6.801-10.662,9.466-3.917,2.661-6.64,7.332-10.704,9.782-4.053,2.444-8.992,3.544-13.185,5.771s-8.129,5.105-12.438,7.101c-4.291,1.989-9.451,2.123-13.864,3.883-4.391,1.751-9.854.375-14.359,1.892-4.478,1.508-8.004,5.878-12.587,7.148-4.552,1.261-9.07,2.77-13.717,3.788-4.611,1.01-9.067,3.243-13.766,4.008-4.657.758-9.409,1.734-14.145,2.243-4.689.504-9.57-.018-14.33.236-4.706.251-9.504-2.097-14.273-2.097s-9.347-1.773-14.053-2.024c-4.759-.254-9.98,5.494-14.669,4.99-4.736-.509-9.038-4.63-13.696-5.387-4.699-.765-9.144-2.523-13.755-3.533-4.648-1.018-9.377-1.436-13.929-2.697-4.583-1.27-8.66-3.918-13.139-5.427-4.505-1.517-10.147.116-14.539-1.636-4.413-1.76-8.386-4.666-12.677-6.655s-6.781-7.503-10.96-9.723c-4.193-2.227-9.237-2.69-13.291-5.134s-7.892-5.13-11.809-7.791-6.691-6.729-10.459-9.598c-3.774-2.873-7.91-5.066-11.519-8.134s-10.339-2.688-13.779-5.948c-3.441-3.26-4.93-8.567-8.191-12.008-3.26-3.44-8.015-5.607-11.086-9.22-3.069-3.609-5.418-7.909-8.291-11.683-2.869-3.768-2.682-9.695-5.348-13.619s-5.749-7.428-8.2-11.492-6.618-7.09-8.845-11.283c-2.22-4.178-7.148-7.136-9.145-11.445-1.989-4.291-1.975-9.598-3.734-14.011-1.751-4.391-1.135-9.674-2.652-14.178-1.508-4.478-.59-9.587-1.86-14.17-1.261-4.552-7.166-7.914-8.185-12.562-1.01-4.611-1.683-9.382-2.447-14.081-.758-4.657-2.315-9.321-2.825-14.056-.504-4.689,4.625-9.822,4.371-14.581-.251-4.706-5.838-9.263-5.838-14.032s3.788-9.422,4.039-14.128c.254-4.759.79-9.381,1.294-14.07.509-4.736-3.141-10.034-2.383-14.691.765-4.699,5.215-8.717,6.226-13.329,1.018-4.648-1.145-10.104.116-14.656,1.27-4.583,6.014-8.121,7.523-12.599,1.517-4.505,2.967-8.961,4.719-13.353s.694-10.072,2.682-14.364,8.216-6.51,10.435-10.689-.072-10.965,2.373-15.018c2.451-4.064,8.63-5.792,11.291-9.709,2.666-3.924,2.938-9.588,5.807-13.356,2.873-3.774,6.66-6.903,9.729-10.513,3.071-3.612,8.786-4.788,12.045-8.228,3.26-3.441,4.68-8.626,8.121-11.887,3.44-3.26,7.251-6.096,10.863-9.167,3.609-3.069,7.551-5.679,11.325-8.552,3.768-2.869,5.754-8.299,9.679-10.964,3.917-2.661,9.094-3.504,13.158-5.954,4.053-2.444,8.921-3.419,13.114-5.647s7.422-6.332,11.731-8.329c4.291-1.989,10.057-.472,14.47-2.232,4.391-1.751,7.089-8.132,11.593-9.649,4.478-1.508,9.403-1.97,13.986-3.24,4.552-1.261,10.253,2.265,14.9,1.246,4.611-1.01,8.288-6.767,12.986-7.532,4.657-.758,9.976,3.603,14.712,3.094,4.689-.504,9.054-4.124,13.813-4.378,4.706-.251,9.433-3.177,14.202-3.177s9.438,4.006,14.145,4.257c4.759.254,9.826-3.193,14.515-2.689,4.736.509,9.11,3.991,13.767,4.749,4.699.765,8.687,4.621,13.299,5.631,4.648,1.018,10.439-2.822,14.991-1.561,4.583,1.27,8.823,3.829,13.301,5.337,4.505,1.517,7.795,6.143,12.186,7.894,4.413,1.76,9.446,1.828,13.737,3.817s9.595,2.064,13.774,4.284c4.193,2.227,8.902,3.76,12.956,6.204,4.064,2.451,5.393,9.176,9.309,11.836,3.924,2.666,7.326,5.81,11.094,8.679s8.653,4.205,12.263,7.274,9.573,3.598,13.013,6.858,6.443,7.142,9.704,10.583c3.26,3.44,4.534,8.721,7.606,12.333,3.069,3.609,3.687,9.059,6.56,12.833s10.162,4.317,12.828,8.241c2.661,3.917,1.939,10.02,4.39,14.084,2.444,4.053,6.926,6.93,9.153,11.122,2.22,4.178,4.884,8.209,6.881,12.518s3.584,8.833,5.343,13.246c1.751,4.391,1.011,9.697,2.528,14.201,1.508,4.478,2.996,8.895,4.265,13.478,1.261,4.552,5.008,8.502,6.026,13.149,1.01,4.611-.991,9.807-.227,14.506.758,4.657.621,9.345,1.131,14.081.504,4.689,5.832,9.018,6.086,13.777.251,4.706-3.515,9.579-3.515,14.348Z" style="fill: none; stroke: #000; stroke-miterlimit: 10; stroke-width: 50px;"/>
  </g>
  <path d="M536.628,350c0,4.902-2.933,9.625-3.306,14.432-.379,4.881,1.169,9.905.42,14.673-.759,4.831-5.326,8.765-6.45,13.465-1.136,4.751.895,10.242-.599,14.843-1.507,4.641-4.108,8.832-5.963,13.305-1.867,4.504-3.252,9.175-5.455,13.492-2.215,4.339-5.761,7.848-8.299,11.981s-2.965,9.705-5.821,13.629-4.651,8.921-7.807,12.613c-3.159,3.696-11.11,2.936-14.546,6.372-3.436,3.436-3.988,9.853-7.684,13.012-3.691,3.156-9.21,3.947-13.143,6.809-3.924,2.856-6.967,6.899-11.115,9.446s-9.43,2.803-13.768,5.018c-4.316,2.204-6.691,8.621-11.194,10.489-4.473,1.855-10.332.108-14.973,1.615-4.601,1.494-9.238,2.496-13.988,3.633-4.699,1.124-9.542.711-14.372,1.47-4.768.749-9.054,5.17-13.935,5.549-4.806.373-9.726,2.221-14.628,2.221s-9.516-5.782-14.322-6.155c-4.881-.379-10.082,3.011-14.85,2.261-4.831-.759-9.984-.379-14.683-1.503-4.751-1.136-8.275-6.576-12.876-8.07-4.641-1.507-10.921,1.382-15.393-.472-4.504-1.867-9.285-3.674-13.602-5.877-4.339-2.215-7.222-7.282-11.355-9.82-4.148-2.547-6.871-7.086-10.795-9.942-3.933-2.863-9.56-3.507-13.251-6.662-3.696-3.159-4.429-9.395-7.865-12.831-3.436-3.436-11.322-2.759-14.481-6.455-3.156-3.691-6.018-7.913-8.881-11.847-2.856-3.924-4.611-8.796-7.158-12.944s-6.123-7.885-8.338-12.223c-2.204-4.316-1.359-10.159-3.226-14.662-1.855-4.473-5.267-8.432-6.774-13.073-1.494-4.601-1.631-9.672-2.768-14.423-1.124-4.699-3.962-9.178-4.721-14.009-.749-4.768,2.641-10.062,2.262-14.943-.373-4.806-5.328-9.511-5.328-14.413s3.094-9.751,3.467-14.557c.379-4.881.165-9.824.914-14.592.759-4.831,3.153-9.308,4.278-14.007,1.136-4.751,2.018-9.506,3.512-14.107,1.507-4.641,4.804-8.502,6.659-12.975,1.867-4.504,2.486-9.456,4.689-13.772,2.215-4.339,3.717-9.063,6.255-13.196s3.832-9.262,6.687-13.186c2.863-3.933,5.251-8.508,8.407-12.199,3.159-3.696,8.623-5.45,12.059-8.886,3.436-3.436,5.008-9.113,8.704-12.272,3.691-3.156,11.57-1.041,15.504-3.904,3.924-2.856,4.98-9.954,9.128-12.501,4.133-2.538,10.48-1.168,14.819-3.383,4.316-2.204,8.134-5.244,12.638-7.112,4.473-1.855,8.13-6.077,12.771-7.584,4.601-1.494,9.422-2.811,14.173-3.948,4.699-1.124,9.555-2.381,14.386-3.14,4.768-.749,10.134,3.591,15.015,3.213,4.806-.373,9.436-6.353,14.338-6.353s9.888,1.387,14.694,1.76c4.881.379,9.321,4.256,14.089,5.005,4.831.759,9.527,1.439,14.227,2.563,4.751,1.136,9.907.62,14.508,2.113,4.641,1.507,9.312,3.024,13.784,4.879,4.504,1.867,8.308,5.216,12.624,7.419,4.339,2.215,9.093,3.641,13.226,6.179s6.837,7.15,10.761,10.006c3.933,2.863,8.073,5.255,11.764,8.41,3.696,3.159,7.347,6.232,10.783,9.668s5.646,7.825,8.805,11.521c3.156,3.691,8.936,5.255,11.798,9.189,2.856,3.924,5.308,8.221,7.855,12.369s4.582,8.61,6.797,12.949c2.204,4.316,2.456,9.5,4.323,14.003,1.855,4.473,5.614,8.226,7.121,12.867,1.494,4.601,3.479,9.171,4.615,13.922,1.124,4.699-1.301,10.1-.542,14.931.749,4.768,5.873,9.074,6.252,13.956.373,4.806-.859,9.853-.859,14.755Z"/>
</svg>