<?xml version="1.0" encoding="UTF-8"?>
<svg id="MD_Icons" data-name="MD Icons" xmlns="http://www.w3.org/2000/svg" width="400" height="400" viewBox="0 0 400 400">
  <path d="M207.546,61.998c.558,1.718-.693,2.125-.134,3.843s-.511,2.067.047,3.786,2.812.986,3.371,2.704.131,1.857.69,3.576-.2,1.966.359,3.685,1.651,1.363,2.209,3.082-.712,2.132-.153,3.851-.368,2.02.19,3.739.511,1.735,1.069,3.454.658,1.687,1.217,3.406,2.979.933,3.538,2.652-.26,1.983.298,3.7-.294,1.996.264,3.715.575,1.712,1.133,3.429-.361,2.018.198,3.737,2.453,1.103,3.012,2.821-1.292,2.321-.733,4.041,1.078,1.55,1.637,3.269.93,1.599,1.488,3.319,1.258,1.493,1.817,3.214,1.275,1.488,1.834,3.208-1.544,2.401-.985,4.12.851,1.626,1.41,3.346.583,1.713,1.142,3.434.462,1.752,1.022,3.474,1.672,1.362,2.233,3.086-.732,2.642.734,3.709,1.936.431,3.743.431,1.807-.614,3.615-.614,1.807-1.254,3.613-1.254,1.807,2.596,3.614,2.596,1.808-2.181,3.615-2.181,1.807-.216,3.614-.216,1.808,2.349,3.615,2.349,1.807-.379,3.614-.379,1.808-1.582,3.615-1.582,1.807,1.288,3.615,1.288,1.808-1.103,3.616-1.103,1.807,1.595,3.615,1.595,1.807-.563,3.615-.563,1.805-.653,3.611-.653,1.808,1.108,3.615,1.108,1.807.455,3.613.455,1.808-2.14,3.617-2.14,1.807,1.04,3.614,1.04,1.808-1.699,3.616-1.699,1.809.999,3.618.999,1.809.284,3.618.284,1.809-.349,3.618-.349,1.808.97,3.617.97,1.809.669,3.617.669,1.809-.099,3.618-.099,1.812-1.989,3.624-1.989,1.812,1.663,3.624,1.663c1.255,0,2.341-.297,3.439.003,1.188.325,1.925,1.185,2.909,1.799,1.025.641,1.754,1.258,2.535,2.142.792.897,3.09.859,3.605,1.929s-.95,2.852-.736,4.024.992,2.207.878,3.398c-.112,1.173-.868,2.113-1.321,3.234-.435,1.076-.15,2.585-.92,3.546-.712.888-2.221.991-3.236,1.729-1.462,1.062-1.146,1.496-2.608,2.558s-.589,2.264-2.052,3.326-1.848.53-3.31,1.592-1.666.782-3.128,1.844-1.798.601-3.26,1.664-1.48,1.037-2.942,2.099-1.648.807-3.11,1.87-.897,1.84-2.359,2.902-2.053.249-3.516,1.312-1.545.947-3.006,2.008-.796,1.974-2.256,3.035-.847,1.906-2.308,2.967-1.581.9-3.043,1.963-1.919.432-3.38,1.493-1.436,1.1-2.898,2.163-1.495,1.016-2.957,2.078-2.588-.485-4.052.578-.869,1.879-2.332,2.941-.541,2.333-2.004,3.396-2.247-.014-3.71,1.05-1.259,1.345-2.723,2.408-1.454,1.074-2.916,2.136-1.003,1.698-2.466,2.761-2.633-.545-4.097.518-1.522.985-2.986,2.048-.467,2.441-1.934,3.506-1.462.34-2.025,2.063.346.97.904,2.688-1.72,2.459-1.162,4.178,1.021,1.568,1.579,3.286-.06,1.919.499,3.638,1.552,1.396,2.111,3.115,2.286,1.157,2.844,2.875-1.197,2.29-.638,4.009,1.045,1.561,1.604,3.279-.286,1.994.272,3.713.331,1.793.889,3.512,2.426,1.113,2.985,2.832-.183,1.958.375,3.675,1.228,1.502,1.787,3.221.915,1.601,1.473,3.318-.267,1.988.291,3.707-.239,1.977.319,3.696-.281,1.993.278,3.713,3.235.849,3.793,2.568-2.024,2.559-1.465,4.279,1.196,1.514,1.755,3.234.452,1.755,1.011,3.476.262,1.815.82,3.533,1.993,1.254,2.552,2.975-.116,1.94.443,3.66,2.113,1.216,2.673,2.937-1.144,2.278-.584,4.001.209,1.838.769,3.562c.388,1.194,2.583,2.069,2.637,3.206.058,1.23-2.351,2.22-2.632,3.345-.293,1.173-.364,2.156-.964,3.172-.608,1.03-.986,2.062-1.846,2.883s-2.037.931-3.086,1.496-1.67,1.974-2.838,2.234c-1.151.256-2.373.328-3.579.243-1.157-.081-2.651.467-3.803.031-1.065-.402-2.007-1.534-3.022-2.271-1.462-1.062-1.357-1.206-2.819-2.268s-.68-2.139-2.142-3.201-1.761-.65-3.222-1.712-2.548.433-4.01-.629.125-3.248-1.337-4.31-2.263.041-3.725-1.021-1.644-.812-3.107-1.875-1.561-.926-3.023-1.988-1.833-.552-3.296-1.614-1.395-1.153-2.856-2.215-1.264-1.33-2.724-2.391-.555-2.309-2.016-3.37-1.736-.687-3.198-1.75-2.64.561-4.101-.5-.974-1.735-2.437-2.798-.465-2.434-1.927-3.496-2.926.95-4.389-.113-1.013-1.681-2.475-2.743-1.431-1.107-2.895-2.17-1.137-1.513-2.601-2.576-.926-1.804-2.389-2.868-1.775-.631-3.237-1.694-1.032-1.657-2.496-2.721-1.507-1.004-2.971-2.068-1.917-.44-3.382-1.504-2.055-.256-3.521-1.322-.655-2.004-2.468-2.006-2.202-.725-3.664.337-.843,1.914-2.306,2.976-1.035,1.648-2.497,2.71-1.217,1.399-2.679,2.461-1.706.727-3.168,1.79-1.276,1.317-2.738,2.379-1.539.957-3.001,2.02-1.191,1.435-2.653,2.497-1.954.386-3.416,1.448-2.412-.247-3.873.815-.782,1.994-2.242,3.055-1.904.451-3.365,1.513-.813,1.956-2.276,3.019-1.247,1.356-2.708,2.418-1.561.928-3.023,1.99-1.885.48-3.347,1.542-1.69.751-3.153,1.814-1.808.587-3.271,1.649-.686,2.132-2.15,3.195-2.334-.134-3.798.929-.987,1.72-2.45,2.784-.273,2.699-1.735,3.761-2.307-.098-3.771.965-1.437,1.101-2.901,2.164-.637,2.203-2.101,3.266-1.76.662-3.227,1.727-1.291,1.307-2.757,2.373c-1.015.738-2.361,1.425-3.426,1.828-1.152.435-2.651.829-3.809.91-1.206.084-2.589-.81-3.74-1.067-1.168-.26-2.561-.448-3.608-1.012s-.941-2.703-1.803-3.526-1.979-1.216-2.587-2.246c-.599-1.015-2.223-1.716-2.515-2.889-.281-1.126-.301-2.553-.243-3.783.054-1.137,1.605-2.074,1.993-3.268.558-1.718,1.316-1.472,1.874-3.191s-.504-2.064.055-3.783.256-1.816.814-3.534,1.942-1.269,2.5-2.988-.772-2.151-.213-3.871.408-1.767.966-3.486.395-1.772.954-3.492.903-1.607,1.462-3.325,1.763-1.328,2.321-3.047-1.487-2.383-.928-4.102-.056-1.919.503-3.639,2.066-1.227,2.624-2.944-.725-2.136-.166-3.855,1.596-1.38,2.154-3.097.719-1.667,1.278-3.386-.02-1.906.538-3.624,1.342-1.465,1.901-3.185-.768-2.15-.21-3.869,2.806-.989,3.365-2.709-1.492-2.387-.933-4.107.863-1.622,1.422-3.342,1.519-1.406,2.077-3.125-.021-1.909.538-3.629,1.11-1.542,1.669-3.262,1.235-1.501,1.794-3.223-1.876-2.515-1.316-4.239,3.804-1.514,3.246-3.238-2.486-.434-3.948-1.496-1.847-.533-3.309-1.596-1.427-1.11-2.888-2.172-.606-2.24-2.068-3.302-1.796-.604-3.258-1.666-.782-1.998-2.243-3.06-1.722-.705-3.185-1.767-.896-1.842-2.358-2.904-2.006-.314-3.468-1.377-1.823-.564-3.284-1.625-1.486-1.025-2.946-2.086-1.803-.59-3.264-1.651-.859-1.894-2.321-2.956-1.394-1.154-2.855-2.215-2.557.444-4.02-.619-.216-2.777-1.678-3.839-1.544-.952-3.007-2.015-1.761-.651-3.223-1.714-2.363.176-3.826-.887-.131-2.898-1.594-3.962-2.245.012-3.709-1.051-1.761-.65-3.223-1.712-1.542-.956-3.005-2.019-.018-3.054-1.482-4.118-1.611-.861-3.076-1.925-2.577.462-4.043-.603-1.045-1.646-2.512-2.711c-1.015-.738-1.657-1.777-2.369-2.665-.77-.961-2.192-1.603-2.627-2.679-.453-1.121.102-2.575-.01-3.749-.114-1.191.917-2.169,1.129-3.338s.527-2.004,1.044-3.078.95-1.841,1.741-2.737c.78-.884.676-2.677,1.701-3.318.984-.615,1.884-2.136,3.072-2.462,1.098-.301,2.635.486,3.89.486,1.807,0,1.807,1.052,3.614,1.052s1.807-.178,3.615-.178,1.807.869,3.613.869,1.807-2.176,3.614-2.176,1.808,1.616,3.615,1.616,1.807-2.003,3.614-2.003,1.808,1.916,3.615,1.916,1.807.324,3.614.324,1.808-.367,3.615-.367,1.807-.514,3.615-.514,1.808-.995,3.616-.995,1.807-.218,3.615-.218,1.807,1.859,3.615,1.859,1.805-1.06,3.611-1.06,1.808-.478,3.615-.478,1.807.655,3.613.655,1.808.796,3.617.796,1.807-1.045,3.614-1.045,1.808-.39,3.616-.39,1.809-.485,3.618-.485,1.809.073,3.618.073,1.809,1.216,3.618,1.216,1.808,1.263,3.617,1.263,1.809.1,3.617.1,1.809-1.394,3.618-1.394,1.812.935,3.624.935,2.543.579,4.01-.485,1.139-1.937,1.697-3.656.467-1.749,1.026-3.468-.899-2.192-.341-3.91,1.47-1.422,2.028-3.141-.993-2.223-.434-3.942,2.363-1.132,2.921-2.851.554-1.721,1.113-3.44-.061-1.92.498-3.639,1.499-1.414,2.058-3.133-1.662-2.44-1.103-4.159.678-1.681,1.237-3.4.609-1.701,1.167-3.418,1.636-1.369,2.195-3.088.027-1.89.585-3.607-.104-1.935.454-3.654,2.771-.999,3.329-2.718-1.785-2.481-1.226-4.201,2.705-1.021,3.264-2.74-1.44-2.369-.881-4.089,2.864-.971,3.423-2.692-.503-2.065.056-3.786-.752-2.144-.194-3.863,2.324-1.147,2.883-2.867-.34-2.013.219-3.733-.21-1.971.349-3.692,3.023-.924,3.583-2.648.331-1.798.891-3.522c.388-1.194-.328-2.742.297-3.693.676-1.029,2.357-.987,3.246-1.733.926-.777,1.542-1.608,2.624-2.077,1.097-.476,2.118-.532,3.296-.691s2.163-.209,3.343-.05,1.999.709,3.096,1.185c1.081.469,2.153.542,3.079,1.319.888.746,2.053,1.182,2.73,2.211.625.951,2.31,1.636,2.698,2.83Z" style="fill: #fff;"/>
  <path d="M207.546,61.998c.558,1.718-.693,2.125-.134,3.843s-.511,2.067.047,3.786,2.812.986,3.371,2.704.131,1.857.69,3.576-.2,1.966.359,3.685,1.651,1.363,2.209,3.082-.712,2.132-.153,3.851-.368,2.02.19,3.739.511,1.735,1.069,3.454.658,1.687,1.217,3.406,2.979.933,3.538,2.652-.26,1.983.298,3.7-.294,1.996.264,3.715.575,1.712,1.133,3.429-.361,2.018.198,3.737,2.453,1.103,3.012,2.821-1.292,2.321-.733,4.041,1.078,1.55,1.637,3.269.93,1.599,1.488,3.319,1.258,1.493,1.817,3.214,1.275,1.488,1.834,3.208-1.544,2.401-.985,4.12.851,1.626,1.41,3.346.583,1.713,1.142,3.434.462,1.752,1.022,3.474,1.672,1.362,2.233,3.086-.732,2.642.734,3.709,1.936.431,3.743.431,1.807-.614,3.615-.614,1.807-1.254,3.613-1.254,1.807,2.596,3.614,2.596,1.808-2.181,3.615-2.181,1.807-.216,3.614-.216,1.808,2.349,3.615,2.349,1.807-.379,3.614-.379,1.808-1.582,3.615-1.582,1.807,1.288,3.615,1.288,1.808-1.103,3.616-1.103,1.807,1.595,3.615,1.595,1.807-.563,3.615-.563,1.805-.653,3.611-.653,1.808,1.108,3.615,1.108,1.807.455,3.613.455,1.808-2.14,3.617-2.14,1.807,1.04,3.614,1.04,1.808-1.699,3.616-1.699,1.809.999,3.618.999,1.809.284,3.618.284,1.809-.349,3.618-.349,1.808.97,3.617.97,1.809.669,3.617.669,1.809-.099,3.618-.099,1.812-1.989,3.624-1.989,1.812,1.663,3.624,1.663c1.255,0,2.341-.297,3.439.003,1.188.325,1.925,1.185,2.909,1.799,1.025.641,1.754,1.258,2.535,2.142.792.897,3.09.859,3.605,1.929s-.95,2.852-.736,4.024.992,2.207.878,3.398c-.112,1.173-.868,2.113-1.321,3.234-.435,1.076-.15,2.585-.92,3.546-.712.888-2.221.991-3.236,1.729-1.462,1.062-1.146,1.496-2.608,2.558s-.589,2.264-2.052,3.326-1.848.53-3.31,1.592-1.666.782-3.128,1.844-1.798.601-3.26,1.664-1.48,1.037-2.942,2.099-1.648.807-3.11,1.87-.897,1.84-2.359,2.902-2.053.249-3.516,1.312-1.545.947-3.006,2.008-.796,1.974-2.256,3.035-.847,1.906-2.308,2.967-1.581.9-3.043,1.963-1.919.432-3.38,1.493-1.436,1.1-2.898,2.163-1.495,1.016-2.957,2.078-2.588-.485-4.052.578-.869,1.879-2.332,2.941-.541,2.333-2.004,3.396-2.247-.014-3.71,1.05-1.259,1.345-2.723,2.408-1.454,1.074-2.916,2.136-1.003,1.698-2.466,2.761-2.633-.545-4.097.518-1.522.985-2.986,2.048-.467,2.441-1.934,3.506-1.462.34-2.025,2.063.346.97.904,2.688-1.72,2.459-1.162,4.178,1.021,1.568,1.579,3.286-.06,1.919.499,3.638,1.552,1.396,2.111,3.115,2.286,1.157,2.844,2.875-1.197,2.29-.638,4.009,1.045,1.561,1.604,3.279-.286,1.994.272,3.713.331,1.793.889,3.512,2.426,1.113,2.985,2.832-.183,1.958.375,3.675,1.228,1.502,1.787,3.221.915,1.601,1.473,3.318-.267,1.988.291,3.707-.239,1.977.319,3.696-.281,1.993.278,3.713,3.235.849,3.793,2.568-2.024,2.559-1.465,4.279,1.196,1.514,1.755,3.234.452,1.755,1.011,3.476.262,1.815.82,3.533,1.993,1.254,2.552,2.975-.116,1.94.443,3.66,2.113,1.216,2.673,2.937-1.144,2.278-.584,4.001.209,1.838.769,3.562c.388,1.194,2.583,2.069,2.637,3.206.058,1.23-2.351,2.22-2.632,3.345-.293,1.173-.364,2.156-.964,3.172-.608,1.03-.986,2.062-1.846,2.883s-2.037.931-3.086,1.496-1.67,1.974-2.838,2.234c-1.151.256-2.373.328-3.579.243-1.157-.081-2.651.467-3.803.031-1.065-.402-2.007-1.534-3.022-2.271-1.462-1.062-1.357-1.206-2.819-2.268s-.68-2.139-2.142-3.201-1.761-.65-3.222-1.712-2.548.433-4.01-.629.125-3.248-1.337-4.31-2.263.041-3.725-1.021-1.644-.812-3.107-1.875-1.561-.926-3.023-1.988-1.833-.552-3.296-1.614-1.395-1.153-2.856-2.215-1.264-1.33-2.724-2.391-.555-2.309-2.016-3.37-1.736-.687-3.198-1.75-2.64.561-4.101-.5-.974-1.735-2.437-2.798-.465-2.434-1.927-3.496-2.926.95-4.389-.113-1.013-1.681-2.475-2.743-1.431-1.107-2.895-2.17-1.137-1.513-2.601-2.576-.926-1.804-2.389-2.868-1.775-.631-3.237-1.694-1.032-1.657-2.496-2.721-1.507-1.004-2.971-2.068-1.917-.44-3.382-1.504-2.055-.256-3.521-1.322-.655-2.004-2.468-2.006-2.202-.725-3.664.337-.843,1.914-2.306,2.976-1.035,1.648-2.497,2.71-1.217,1.399-2.679,2.461-1.706.727-3.168,1.79-1.276,1.317-2.738,2.379-1.539.957-3.001,2.02-1.191,1.435-2.653,2.497-1.954.386-3.416,1.448-2.412-.247-3.873.815-.782,1.994-2.242,3.055-1.904.451-3.365,1.513-.813,1.956-2.276,3.019-1.247,1.356-2.708,2.418-1.561.928-3.023,1.99-1.885.48-3.347,1.542-1.69.751-3.153,1.814-1.808.587-3.271,1.649-.686,2.132-2.15,3.195-2.334-.134-3.798.929-.987,1.72-2.45,2.784-.273,2.699-1.735,3.761-2.307-.098-3.771.965-1.437,1.101-2.901,2.164-.637,2.203-2.101,3.266-1.76.662-3.227,1.727-1.291,1.307-2.757,2.373c-1.015.738-2.361,1.425-3.426,1.828-1.152.435-2.651.829-3.809.91-1.206.084-2.589-.81-3.74-1.067-1.168-.26-2.561-.448-3.608-1.012s-.941-2.703-1.803-3.526-1.979-1.216-2.587-2.246c-.599-1.015-2.223-1.716-2.515-2.889-.281-1.126-.301-2.553-.243-3.783.054-1.137,1.605-2.074,1.993-3.268.558-1.718,1.316-1.472,1.874-3.191s-.504-2.064.055-3.783.256-1.816.814-3.534,1.942-1.269,2.5-2.988-.772-2.151-.213-3.871.408-1.767.966-3.486.395-1.772.954-3.492.903-1.607,1.462-3.325,1.763-1.328,2.321-3.047-1.487-2.383-.928-4.102-.056-1.919.503-3.639,2.066-1.227,2.624-2.944-.725-2.136-.166-3.855,1.596-1.38,2.154-3.097.719-1.667,1.278-3.386-.02-1.906.538-3.624,1.342-1.465,1.901-3.185-.768-2.15-.21-3.869,2.806-.989,3.365-2.709-1.492-2.387-.933-4.107.863-1.622,1.422-3.342,1.519-1.406,2.077-3.125-.021-1.909.538-3.629,1.11-1.542,1.669-3.262,1.235-1.501,1.794-3.223-1.876-2.515-1.316-4.239,3.804-1.514,3.246-3.238-2.486-.434-3.948-1.496-1.847-.533-3.309-1.596-1.427-1.11-2.888-2.172-.606-2.24-2.068-3.302-1.796-.604-3.258-1.666-.782-1.998-2.243-3.06-1.722-.705-3.185-1.767-.896-1.842-2.358-2.904-2.006-.314-3.468-1.377-1.823-.564-3.284-1.625-1.486-1.025-2.946-2.086-1.803-.59-3.264-1.651-.859-1.894-2.321-2.956-1.394-1.154-2.855-2.215-2.557.444-4.02-.619-.216-2.777-1.678-3.839-1.544-.952-3.007-2.015-1.761-.651-3.223-1.714-2.363.176-3.826-.887-.131-2.898-1.594-3.962-2.245.012-3.709-1.051-1.761-.65-3.223-1.712-1.542-.956-3.005-2.019-.018-3.054-1.482-4.118-1.611-.861-3.076-1.925-2.577.462-4.043-.603-1.045-1.646-2.512-2.711c-1.015-.738-1.657-1.777-2.369-2.665-.77-.961-2.192-1.603-2.627-2.679-.453-1.121.102-2.575-.01-3.749-.114-1.191.917-2.169,1.129-3.338s.527-2.004,1.044-3.078.95-1.841,1.741-2.737c.78-.884.676-2.677,1.701-3.318.984-.615,1.884-2.136,3.072-2.462,1.098-.301,2.635.486,3.89.486,1.807,0,1.807,1.052,3.614,1.052s1.807-.178,3.615-.178,1.807.869,3.613.869,1.807-2.176,3.614-2.176,1.808,1.616,3.615,1.616,1.807-2.003,3.614-2.003,1.808,1.916,3.615,1.916,1.807.324,3.614.324,1.808-.367,3.615-.367,1.807-.514,3.615-.514,1.808-.995,3.616-.995,1.807-.218,3.615-.218,1.807,1.859,3.615,1.859,1.805-1.06,3.611-1.06,1.808-.478,3.615-.478,1.807.655,3.613.655,1.808.796,3.617.796,1.807-1.045,3.614-1.045,1.808-.39,3.616-.39,1.809-.485,3.618-.485,1.809.073,3.618.073,1.809,1.216,3.618,1.216,1.808,1.263,3.617,1.263,1.809.1,3.617.1,1.809-1.394,3.618-1.394,1.812.935,3.624.935,2.543.579,4.01-.485,1.139-1.937,1.697-3.656.467-1.749,1.026-3.468-.899-2.192-.341-3.91,1.47-1.422,2.028-3.141-.993-2.223-.434-3.942,2.363-1.132,2.921-2.851.554-1.721,1.113-3.44-.061-1.92.498-3.639,1.499-1.414,2.058-3.133-1.662-2.44-1.103-4.159.678-1.681,1.237-3.4.609-1.701,1.167-3.418,1.636-1.369,2.195-3.088.027-1.89.585-3.607-.104-1.935.454-3.654,2.771-.999,3.329-2.718-1.785-2.481-1.226-4.201,2.705-1.021,3.264-2.74-1.44-2.369-.881-4.089,2.864-.971,3.423-2.692-.503-2.065.056-3.786-.752-2.144-.194-3.863,2.324-1.147,2.883-2.867-.34-2.013.219-3.733-.21-1.971.349-3.692,3.023-.924,3.583-2.648.331-1.798.891-3.522c.388-1.194-.328-2.742.297-3.693.676-1.029,2.357-.987,3.246-1.733.926-.777,1.542-1.608,2.624-2.077,1.097-.476,2.118-.532,3.296-.691s2.163-.209,3.343-.05,1.999.709,3.096,1.185c1.081.469,2.153.542,3.079,1.319.888.746,2.053,1.182,2.73,2.211.625.951,2.31,1.636,2.698,2.83Z" style="fill: none; stroke: #000; stroke-linecap: round; stroke-linejoin: round; stroke-width: 40px;"/>
</svg>