<?xml version="1.0" encoding="UTF-8"?>
<svg id="SM_Icons" data-name="SM Icons" xmlns="http://www.w3.org/2000/svg" width="200" height="200" viewBox="0 0 200 200">
  <polyline points="160.909 110.713 153.105 120.529 143.769 128.904 133.155 136.081 127.324 147.764 117.242 155.442 110.302 166.089 99.999 171.404 92.661 163.317 81.698 156.473 75.652 144.998 64.827 138.014 55.969 129.184 49.487 118.107 40.944 108.969" style="fill: none; stroke: #000; stroke-linecap: round; stroke-linejoin: round; stroke-width: 23px;"/>
  <g>
    <polygon points="162.156 53.016 146.978 54.107 133.969 52.158 121.861 53.227 122.406 40.252 120.798 26.594 106.993 26.938 93.016 28.394 80.105 27.507 77.649 40.252 77.404 52.537 66.04 52.716 53.031 52.223 39.165 53.655 48.126 63.609 56.319 73.059 65.106 81.955 73.679 91.059 82.549 99.876 91.082 109.023 99.999 120.294 107.067 107.298 118.657 101.045 123.878 88.794 133.475 80.654 142.15 71.653 151.34 63.12 162.156 53.016" style="fill: #fff;"/>
    <polygon points="162.156 53.016 146.978 54.107 133.969 52.158 121.861 53.227 122.406 40.252 120.798 26.594 106.993 26.938 93.016 28.394 80.105 27.507 77.649 40.252 77.404 52.537 66.04 52.716 53.031 52.223 39.165 53.655 48.126 63.609 56.319 73.059 65.106 81.955 73.679 91.059 82.549 99.876 91.082 109.023 99.999 120.294 107.067 107.298 118.657 101.045 123.878 88.794 133.475 80.654 142.15 71.653 151.34 63.12 162.156 53.016" style="fill: none; stroke: #000; stroke-linecap: round; stroke-linejoin: round; stroke-width: 23px;"/>
  </g>
</svg>