<?xml version="1.0" encoding="UTF-8"?>
<svg id="LM_Icons" data-name="LM Icons" xmlns="http://www.w3.org/2000/svg" width="700" height="700" viewBox="0 0 700 700">
  <path d="M496.585,284.14c0,116.538-94.473,211.011-211.011,211.011s-211.011-94.473-211.011-211.011,94.473-211.011,211.011-211.011,211.011,94.473,211.011,211.011ZM625.436,626.87l-192.636-192.636" style="fill: #fff; stroke: #000; stroke-linecap: round; stroke-miterlimit: 10; stroke-width: 26.25px;"/>
  <path d="M617.206,118.706l6.111-3.667,6.111,3.708-1.625-6.945,5.375-4.667-7.083-.625-2.778-6.555-2.778,6.514-7.083.625,5.375,4.681-1.625,6.93ZM623.317,118.289l-7.472,4.5c-.25.157-.514.227-.792.208-.278-.019-.523-.107-.736-.264-.213-.157-.375-.359-.486-.604-.111-.246-.134-.521-.069-.827l1.972-8.514-6.597-5.736c-.241-.213-.387-.451-.438-.715-.051-.264-.04-.521.035-.771s.213-.458.417-.625.463-.269.778-.306l8.722-.764,3.375-8.028c.12-.278.303-.486.549-.625.245-.139.493-.208.743-.208s.498.069.743.208c.246.139.428.347.549.625l3.375,8.028,8.722.764c.315.037.574.139.778.306.204.167.343.375.417.625s.086.507.035.771c-.051.264-.197.502-.438.715l-6.597,5.736,1.972,8.514c.065.306.042.581-.069.827-.111.245-.273.447-.486.604-.213.157-.458.245-.736.264s-.542-.051-.792-.208l-7.472-4.5Z" style="fill: #333;"/>
</svg>