<?xml version="1.0" encoding="UTF-8"?>
<svg id="LM_Icons" data-name="LM Icons" xmlns="http://www.w3.org/2000/svg" width="700" height="700" viewBox="0 0 700 700">
  <path d="M608.401,596.68c-1.811,1.817-5.316-.57-7.881-.57s-2.565-5.576-5.131-5.576c-2.566,0-2.566,6.078-5.131,6.078-2.566,0-2.566-1.455-5.132-1.455-2.566,0-2.566,2.612-5.133,2.612-2.567,0-2.567.119-5.134.119-2.568,0-2.568-1.987-5.136-1.987s-2.567-2.563-5.134-2.563c-2.567,0-2.567-2.441-5.133-2.441s-2.566,4.779-5.132,4.779-2.566-3.335-5.132-3.335-2.566.048-5.132.048-2.566,4.212-5.132,4.212c-2.566,0-2.566-3.304-5.132-3.304-2.567,0-2.567-2.225-5.133-2.225-2.567,0-2.567,3.391-5.135,3.391s-2.568.005-5.136.005c-2.567,0-2.567-1.168-5.134-1.168s-2.567-1.433-5.133-1.433-2.566-1.444-5.133-1.444-2.566.781-5.132.781c-2.566,0-2.566,5.492-5.133,5.492-2.567,0-2.567-5.745-5.133-5.745-2.567,0-2.567.488-5.134.488s-2.568,4.508-5.136,4.508-2.568-5.049-5.135-5.049-2.567,3.749-5.134,3.749c-2.567,0-2.567,3.196-5.133,3.196-2.567,0-2.567-.293-5.133-.293-2.567,0-2.567-6.989-5.134-6.989-2.567,0-2.567-.465-5.134-.465-2.568,0-2.568,3.415-5.136,3.415s-2.568,1.554-5.136,1.554-2.567,2.498-5.134,2.498c-2.567,0-2.567-7.248-5.134-7.248-2.567,0-2.567,3.685-5.134,3.685s-2.567-1.329-5.135-1.329c-2.568,0-2.568-2.307-5.136-2.307-2.568,0-2.568,4.457-5.136,4.457-2.567,0-2.567,1.888-5.135,1.888-2.567,0-2.567-2.39-5.134-2.39-2.567,0-2.567-1.294-5.135-1.294-2.568,0-2.568-1.933-5.136-1.933-2.568,0-2.568,6.205-5.136,6.205-2.568,0-2.568.019-5.135.019-2.567,0-2.567-7.217-5.135-7.217s-2.568.001-5.135.001-2.568,2.523-5.137,2.523c-2.568,0-2.568,3.499-5.136,3.499-2.568,0-2.568-2.446-5.135-2.446s-2.568,3.506-5.135,3.506c-2.569,0-2.569-6.725-5.137-6.725s-2.568,5.144-5.136,5.144c-2.568,0-2.568,1.213-5.135,1.213-2.568,0-2.568-5.34-5.136-5.34-2.568,0-2.568,2.715-5.137,2.715-2.566,0-2.566,2.774-5.132,2.774s-2.565-5.358-5.131-5.358c-2.565,0-2.565-.418-5.131-.418-2.566,0-2.566-.366-5.133-.366-2.568,0-2.568,4.854-5.136,4.854-2.568,0-2.568-1.529-5.135-1.529-2.566,0-2.566-4.19-5.133-4.19-2.566,0-2.566.511-5.133.511s-2.567,4.095-5.135,4.095c-2.569,0-2.569-3.932-5.138-3.932-2.567,0-2.567,2.883-5.135,2.883s-2.567.106-5.134.106c-2.568,0-2.568-2.25-5.136-2.25-2.569,0-2.569,3.481-5.138,3.481-2.567,0-2.567-4.907-5.135-4.907-2.568,0-2.568.484-5.136.484s-2.569,1.598-5.138,1.598c-2.568,0-2.568,3.3-5.136,3.3s-2.569-.555-5.138-.555-2.568,1.483-5.137,1.483c-2.569,0-2.569-3.396-5.138-3.396-2.569,0-2.569-2.527-5.138-2.527-2.57,0-2.57,5.786-5.139,5.786s-2.569-.388-5.138-.388c-2.57,0-2.57-4.72-5.139-4.72-2.57,0-2.57,2.05-5.14,2.05s-2.57,4.13-5.139,4.13c-2.567,0-2.567-5.605-5.134-5.605-2.57,0-2.57-1.272-5.139-1.272-2.568,0-2.568,6.863-5.136,6.863-2.569,0-2.569.175-5.139.175-2.57,0-2.57-6.853-5.141-6.853s-2.57,7.366-5.141,7.366c-2.57,0-2.57-4.847-5.141-4.847s-2.571,3.996-5.142,3.996-2.57-2.812-5.139-2.812c-2.572,0-2.572.352-5.144.352-2.574,0-2.574-1.876-5.147-1.876s-4.506,4.266-6.329,2.449c-1.817-1.811-.989-3.751-.989-6.316,0-2.565,1.315-2.565,1.315-5.131,0-2.566.559-2.566.559-5.131,0-2.566-1.679-2.566-1.679-5.132,0-2.566.202-2.566.202-5.133,0-2.567,1-2.567,1-5.134,0-2.568-.663-2.568-.663-5.136,0-2.567,3.492-2.567,3.492-5.134,0-2.567.907-2.567.907-5.133s-5.049-2.566-5.049-5.132,1.385-2.566,1.385-5.132c0-2.566,1.239-2.566,1.239-5.132,0-2.566.375-2.566.375-5.132s.135-2.566.135-5.132c0-2.567-1.696-2.567-1.696-5.133s1.537-2.567,1.537-5.135,1.726-2.568,1.726-5.136-5.623-2.567-5.623-5.134,3.876-2.567,3.876-5.133c0-2.566.849-2.566.849-5.133,0-2.566-1.408-2.566-1.408-5.132,0-2.566-2.18-2.566-2.18-5.133,0-2.567,2.878-2.567,2.878-5.133,0-2.567,1.114-2.567,1.114-5.134,0-2.568-5.151-2.568-5.151-5.136,0-2.568,4.694-2.568,4.694-5.135,0-2.567-.037-2.567-.037-5.134,0-2.567-.454-2.567-.454-5.133s-5.103-2.567-5.103-5.133,2.401-2.567,2.401-5.134c0-2.567,1.6-2.567,1.6-5.134,0-2.568,2.25-2.568,2.25-5.136,0-2.568-2.49-2.568-2.49-5.136s2.902-2.567,2.902-5.134c0-2.567-3.92-2.567-3.92-5.134s2.647-2.567,2.647-5.134c0-2.567,2.246-2.567,2.246-5.135s-4.568-2.568-4.568-5.136c0-2.568,4.58-2.568,4.58-5.136,0-2.567-6.288-2.567-6.288-5.135s5.417-2.567,5.417-5.134-6.484-2.567-6.484-5.135,4.293-2.568,4.293-5.136c0-2.568,3.024-2.568,3.024-5.136s-5.372-2.568-5.372-5.135c0-2.567,5.301-2.567,5.301-5.135,0-2.568-3.382-2.568-3.382-5.135s3.63-2.568,3.63-5.137-1.127-2.568-1.127-5.136c0-2.568-3.801-2.568-3.801-5.135,0-2.568-2.583-2.568-2.583-5.135s1.721-2.569,1.721-5.137c0-2.568,3.195-2.568,3.195-5.136,0-2.568.85-2.568.85-5.135,0-2.568-1.671-2.568-1.671-5.136s2.12-2.568,2.12-5.137c0-2.566.907-2.566.907-5.132s-2.617-2.565-2.617-5.131c0-2.565-3.851-2.565-3.851-5.131s.584-2.566.584-5.133c0-2.568.381-2.568.381-5.136,0-2.568,5.005-2.568,5.005-5.135,0-2.566-4.728-2.566-4.728-5.133,0-2.566-.086-2.566-.086-5.133,0-2.567,3.393-2.567,3.393-5.135,0-2.569,1.892-2.569,1.892-5.138s.191-2.567.191-5.135-1.114-2.567-1.114-5.134-3.967-2.568-3.967-5.136c0-2.569,4.398-2.569,4.398-5.138,0-2.567-.93-2.567-.93-5.135,0-2.568-1.018-2.568-1.018-5.136,0-2.569,1.18-2.569,1.18-5.138,0-2.568.572-2.568.572-5.136,0-2.569-4.631-2.569-4.631-5.138s1.95-2.568,1.95-5.137c0-2.569,1.533-2.569,1.533-5.138,0-2.569-1.006-2.569-1.006-5.138,0-2.57.539-2.57.539-5.139s-4.844-2.569-4.844-5.138,6.212-2.57,6.212-5.139c0-2.57-2.086-2.57-2.086-5.14s-3.23-2.57-3.23-5.139c0-2.567,1.773-2.567,1.773-5.134,0-2.57-2.081-2.57-2.081-5.139s-.286-2.568-.286-5.136,6.812-2.569,6.812-5.139c0-2.57-7.242-2.57-7.242-5.141,0-2.57,1.658-2.57,1.658-5.141,0-2.57,3.676-2.57,3.676-5.141,0-2.571-.147-2.571-.147-5.142,0-2.57,1.657-2.57,1.657-5.139s-3.98-2.572-3.98-5.144-1.938-2.574-1.938-5.147.775-3.644,2.592-5.467,2.885-.913,5.451-.913,2.565,4.034,5.131,4.034,2.566-3.488,5.131-3.488,2.566-.415,5.132-.415,2.566,4.825,5.133,4.825,2.567-3.428,5.134-3.428,2.568-4.251,5.136-4.251,2.567,2.626,5.134,2.626,2.567-.283,5.133-.283,2.566,1.327,5.132,1.327,2.566,3.597,5.132,3.597,2.566-2.439,5.132-2.439,2.566-.945,5.132-.945,2.566,2.347,5.132,2.347,2.567-1.684,5.133-1.684,2.567-1.862,5.135-1.862,2.568-.218,5.136-.218,2.567-.875,5.134-.875,2.567.247,5.133.247,2.566,5.13,5.133,5.13,2.566-6.703,5.132-6.703,2.566,2.274,5.133,2.274,2.567,4.765,5.133,4.765,2.567.646,5.134.646,2.568-.059,5.136-.059,2.568-1.264,5.135-1.264,2.567-2.45,5.134-2.45,2.567,2.519,5.133,2.519,2.567-5.696,5.133-5.696,2.567-.427,5.134-.427,2.567,1.175,5.134,1.175,2.568,3.738,5.136,3.738,2.568-1.669,5.136-1.669,2.567,3.316,5.134,3.316,2.567-2.01,5.134-2.01,2.567-2.041,5.134-2.041,2.567,3.255,5.135,3.255,2.568-4.13,5.136-4.13,2.568-1.664,5.136-1.664,2.567,4.069,5.135,4.069,2.567-2.672,5.134-2.672,2.567,3.994,5.135,3.994,2.568-4.934,5.136-4.934,2.568,2.812,5.136,2.812,2.568.378,5.135.378,2.567,3.328,5.135,3.328,2.568-6.631,5.135-6.631,2.568,2.486,5.137,2.486,2.568-1.83,5.136-1.83,2.568,1.997,5.135,1.997,2.568.925,5.135.925,2.569,2.692,5.137,2.692,2.568-2.42,5.136-2.42,2.568-3.232,5.135-3.232,2.568-.648,5.136-.648,2.568,1.152,5.137,1.152,2.566-.415,5.132-.415,2.565,2.774,5.131,2.774,2.565-2.017,5.131-2.017,2.566,4.591,5.133,4.591,2.568-.936,5.136-.936,2.568-2.202,5.135-2.202,2.566-1.056,5.133-1.056,2.566,4.673,5.133,4.673,2.567.412,5.135.412,2.569-1.878,5.138-1.878,2.567-1.45,5.135-1.45,2.567.008,5.134.008,2.568-2.037,5.136-2.037,2.569,2.936,5.138,2.936,2.567-1.988,5.135-1.988,2.568,1.218,5.136,1.218,2.569-1.768,5.138-1.768,2.568.311,5.136.311,2.569,4.456,5.138,4.456,2.568-3.932,5.137-3.932,2.569.96,5.138.96,2.569-4.266,5.138-4.266,2.57,3.255,5.139,3.255,2.569,3.652,5.138,3.652,2.57-.015,5.139-.015,2.57.208,5.14.208,2.57-5.326,5.139-5.326,2.567,2.651,5.134,2.651,2.57.911,5.139.911,2.568-5.093,5.136-5.093,2.569,3.829,5.139,3.829,2.57-1.349,5.141-1.349,2.57,4.602,5.141,4.602,2.57-6.597,5.141-6.597,2.571,4.95,5.142,4.95,2.57-.483,5.139-.483,2.572,1.477,5.144,1.477,2.574-5.549,5.147-5.549,1.53,2.413,3.353,4.23c1.817,1.811,3.416.765,3.416,3.33,0,2.565,2.373,2.565,2.373,5.131s-2.335,2.566-2.335,5.131c0,2.566-3.421,2.566-3.421,5.132s4.573,2.566,4.573,5.133c0,2.567-5.74,2.567-5.74,5.134,0,2.568,4.224,2.568,4.224,5.136,0,2.567-1.628,2.567-1.628,5.134,0,2.567-.896,2.567-.896,5.133s2.159,2.566,2.159,5.132,1.588,2.566,1.588,5.132-2.244,2.566-2.244,5.132c0,2.566-3.274,2.566-3.274,5.132,0,2.566-.838,2.566-.838,5.132,0,2.567,4.175,2.567,4.175,5.133s-4.075,2.567-4.075,5.135c0,2.568,7.294,2.568,7.294,5.136s-3.89,2.567-3.89,5.134c0,2.567,3.857,2.567,3.857,5.133,0,2.566-5.223,2.566-5.223,5.133,0,2.566,4.797,2.566,4.797,5.132,0,2.566-2.581,2.566-2.581,5.133,0,2.567-3.201,2.567-3.201,5.133,0,2.567,4.454,2.567,4.454,5.134,0,2.568-.462,2.568-.462,5.136,0,2.568-.907,2.568-.907,5.135,0,2.567.741,2.567.741,5.134,0,2.567.572,2.567.572,5.133s2.26,2.567,2.26,5.133-.08,2.567-.08,5.134c0,2.567-2.293,2.567-2.293,5.134,0,2.568,2.142,2.568,2.142,5.136,0,2.568-.8,2.568-.8,5.136,0,2.567-3.139,2.567-3.139,5.134s1.163,2.567,1.163,5.134c0,2.567,1.173,2.567,1.173,5.134,0,2.567,1.089,2.567,1.089,5.135s-.374,2.568-.374,5.136c0,2.568-1.399,2.568-1.399,5.136s-5.035,2.567-5.035,5.135,5.079,2.567,5.079,5.134-4.57,2.567-4.57,5.135.571,2.568.571,5.136c0,2.568,4.094,2.568,4.094,5.136s-3.376,2.568-3.376,5.135,2.948,2.567,2.948,5.135c0,2.568-4.856,2.568-4.856,5.135,0,2.568,7.071,2.568,7.071,5.137s-1.72,2.568-1.72,5.136-5.55,2.568-5.55,5.135,6.816,2.568,6.816,5.135-5.295,2.569-5.295,5.137,4.456,2.568,4.456,5.136,1.124,2.568,1.124,5.135c0,2.568-5.156,2.568-5.156,5.136,0,2.568,3.145,2.568,3.145,5.137s1.094,2.566,1.094,5.132-3.414,2.565-3.414,5.131-1.972,2.565-1.972,5.131.606,2.566.606,5.133,5.294,2.568,5.294,5.136-6.414,2.568-6.414,5.135c0,2.566,4.922,2.566,4.922,5.133,0,2.566-1.206,2.566-1.206,5.133,0,2.567,3.869,2.567,3.869,5.135s-3.112,2.569-3.112,5.138c0,2.567-3.512,2.567-3.512,5.135q0,2.567.003,5.134c0,2.568,5.843,2.568,5.843,5.136,0,2.569-.655,2.569-.655,5.138,0,2.567.187,2.567.187,5.135,0,2.568-1.084,2.568-1.084,5.136,0,2.569-.114,2.569-.114,5.138,0,2.568.167,2.568.167,5.136,0,2.569-5.496,2.569-5.496,5.138,0,2.568,2.081,2.568,2.081,5.137,0,2.569-.318,2.569-.318,5.138,0,2.569.36,2.569.36,5.138,0,2.57-1.085,2.57-1.085,5.139s4.079,2.569,4.079,5.138c0,2.57.238,2.57.238,5.139,0,2.57,2.372,2.57,2.372,5.14,0,2.57-3.713,2.57-3.713,5.139s3.381,2.567,3.381,5.134c0,2.57-3.868,2.57-3.868,5.139s.912,2.568.912,5.136c0,2.569-1.28,2.569-1.28,5.139s-3.108,2.57-3.108,5.141,4.697,2.57,4.697,5.141c0,2.57-.037,2.57-.037,5.141,0,2.571-.176,2.571-.176,5.142,0,2.57-3.824,2.57-3.824,5.139s5.139,2.572,5.139,5.144c0,2.574-5.77,3.88-4.799,6.263,1.661,4.079,7.307,4.95,5.49,6.773Z" style="fill: none; stroke: #000; stroke-linejoin: round; stroke-width: 45px;"/>
  <g>
    <path d="M517.245,497.172c1.262-2.203-1.76-1.276-3.082-3.444-1.321-2.166,2.864-4.72,1.543-6.886-1.321-2.166-2.958-1.168-4.279-3.335s-4.419-.278-5.741-2.445c-1.323-2.169-1.611-1.993-2.934-4.162-1.322-2.167-2.052-1.722-3.374-3.889-1.322-2.167,1.736-4.032.414-6.199-1.322-2.168-2.13-1.675-3.452-3.843-1.323-2.168-2.32-1.56-3.643-3.728s1.682-4,.36-6.167c-1.322-2.168-2.937-1.183-4.259-3.351s-1.536-2.038-2.859-4.207c-1.322-2.168,1.294-3.764-.028-5.931s-5.566.419-6.889-1.75c-1.322-2.168,3.77-5.274,2.448-7.443s-8.022,1.918-9.345-.251c-1.323-2.169,1.965-4.174.642-6.342s-1.589-2.007-2.912-4.176c-1.323-2.169-4.26-.377-5.582-2.546s.225-3.114-1.098-5.283-1.472-2.079-2.796-4.248,2.073-4.239.75-6.408c-1.322-2.167-.519-2.657-1.841-4.824s-.668-2.569-1.991-4.738c-1.322-2.168-7.021,1.308-8.343-.86-1.323-2.169-.564-2.632-1.887-4.801s-1.649-1.971-2.973-4.141c-1.324-2.17-1.986-1.766-3.31-3.936-1.324-2.17,4.436-5.683,3.112-7.853-1.323-2.169-5.144.161-6.468-2.008s.996-3.584-.327-5.754-5.316.263-6.641-1.908c-1.325-2.173,1.853-4.112.528-6.285-1.325-2.173-.514-7.815-3.059-7.887-2.539-.071-4.253,4.095-5.689,6.19-1.438,2.097-1.401,2.122-2.839,4.219-1.437,2.095-1.532,2.03-2.969,4.125s3.98,5.808,2.543,7.903c-1.437,2.096-6.198-1.168-7.635.928s3.816,5.699,2.379,7.795c-1.437,2.095-2.932,1.07-4.368,3.166s-4.489.003-5.926,2.099c-1.438,2.097-1.193,2.265-2.63,4.361-1.437,2.096-1.788,1.855-3.225,3.951s-.067,3.036-1.505,5.133c-1.437,2.096-2.934,1.07-4.371,3.167s1.467,4.088.029,6.185q-1.437,2.097-2.87,4.197c-1.438,2.097-2.5,1.369-3.938,3.466-1.437,2.097-1.49,2.06-2.928,4.157s.723,3.578-.715,5.676c-1.436,2.094-6.895-1.649-8.331.445s1.404,4.045-.034,6.141-.817,2.52-2.254,4.616c-1.438,2.097-2.04,1.685-3.478,3.783-1.437,2.096,1.57,4.158.132,6.254s-.937,2.44-2.375,4.538-4.083.285-5.522,2.383c-1.438,2.098-1.619,1.974-3.058,4.072s-4.086.283-5.524,2.381-2.485,1.38-3.924,3.477,4.404,6.103,2.966,8.201c-1.44,2.1-1.077,2.348-2.516,4.448s-2.599,1.307-4.039,3.408-2.03-.384-4.578-.424c-2.593-.041-1.028.953-2.483-1.194-1.456-2.148-1.093-2.393-2.549-4.541s-2.541-1.411-3.997-3.559-3.959-.451-5.415-2.599c-1.455-2.148,2.452-4.796.997-6.944-1.456-2.148-.812-2.585-2.267-4.733-1.456-2.148-3.347-.866-4.803-3.013-1.456-2.148.181-3.258-1.275-5.406-1.454-2.145-2.1-1.707-3.554-3.852-1.456-2.148-1.177-2.336-2.633-4.484-1.455-2.147.605-3.542-.85-5.689-1.456-2.149-4.123-.341-5.579-2.49-1.455-2.147-3.599-.695-5.054-2.842-1.456-2.148.683-3.598-.773-5.746s-2.399-1.511-3.856-3.66c-1.457-2.149,2.123-4.575.667-6.725-1.457-2.149-4.668.027-6.125-2.122s.135-3.227-1.321-5.376c-1.456-2.149-3.023-1.088-4.479-3.237-1.458-2.151-.611-2.724-2.069-4.875s-4.182-.306-5.641-2.459,1.538-4.519-1.062-4.518c-2.529,0-.906,1.369-2.233,3.523-1.327,2.152.13,3.05-1.197,5.202-1.327,2.153-4.83-.007-6.157,2.146s-1.783,1.873-3.111,4.026c-1.327,2.152-1.531,2.027-2.858,4.179-1.328,2.153-1.256,2.198-2.583,4.351-1.327,2.153,4.258,5.596,2.931,7.749s-3.442.85-4.769,3.003-1.1,2.293-2.428,4.446c-1.328,2.154-1.536,2.026-2.864,4.179s-5.684-.533-7.011,1.621-.027,2.956-1.355,5.11c-1.326,2.151,2.173,4.308.847,6.459s-4.863-.027-6.191,2.126c-1.327,2.152-2.723,1.291-4.049,3.444s.735,3.426-.594,5.58-2.82,1.232-4.147,3.385,3.895,5.374,2.567,7.528-7.143-1.43-8.472.724-.145,2.884-1.474,5.039c-1.329,2.155-2.609,1.365-3.938,3.52s-.942,2.392-2.27,4.546c-1.328,2.154,4.883,5.984,3.554,8.138s-6.868-1.259-8.198.898c-1.33,2.158-.863,2.446-2.193,4.604-1.33,2.158-2.865,3.65-1.612,5.854,1.264,2.223,3.31,3.304,5.868,3.304,2.558,0,2.558-5.964,5.115-5.964,2.558,0,2.558,4.101,5.116,4.101,2.559,0,2.559,1.641,5.117,1.641s2.559-6.506,5.117-6.506,2.558,5.821,5.116,5.821c2.558,0,2.558-3.706,5.116-3.706,2.558,0,2.558-.948,5.116-.948,2.559,0,2.559.869,5.117.869s2.559,1.667,5.118,1.667,2.558,2.385,5.116,2.385,2.558-5.653,5.116-5.653c2.558,0,2.558,4.473,5.117,4.473,2.559,0,2.559-3.788,5.118-3.788,2.559,0,2.559,1.507,5.117,1.507,2.558,0,2.558,4.097,5.116,4.097s2.558-1.352,5.117-1.352c2.559,0,2.559-4.121,5.119-4.121s2.559,3.879,5.117,3.879,2.558.565,5.117.565,2.559-6.178,5.118-6.178,2.559,2.145,5.118,2.145,2.557,5.192,5.114,5.192c2.556,0,2.556-6.987,5.112-6.987,2.556,0,2.556,4.294,5.112,4.294,2.557,0,2.557-1.874,5.114-1.874s2.559,2.047,5.118,2.047c2.558,0,2.558-3.193,5.117-3.193s2.557-.425,5.114-.425,2.557,3.474,5.114,3.474c2.558,0,2.558-2.543,5.116-2.543s2.56-.647,5.12-.647,2.558,4.308,5.116,4.308,2.558-5.426,5.115-5.426,2.559,5.419,5.117,5.419c2.559,0,2.559-.176,5.119-.176,2.558,0,2.558-4.266,5.116-4.266,2.559,0,2.559-.924,5.118-.924,2.56,0,2.56-.464,5.12-.464,2.559,0,2.559-.279,5.117-.279,2.56,0,2.56,7.729,5.12,7.729,2.559,0,2.559-6.282,5.118-6.282,2.56,0,2.56-1.283,5.119-1.283,2.559,0,2.559,5.229,5.119,5.229,2.56,0,2.56,2.402,5.12,2.402,2.56,0,2.56-5.526,5.119-5.526s2.56,2.92,5.121,2.92c2.561,0,2.561-1.603,5.121-1.603,2.56,0,2.56-1.746,5.121-1.746,2.558,0,2.558.01,5.116.01,2.56,0,2.56,3.979,5.12,3.979s2.559-5.876,5.117-5.876c2.56,0,2.56-.097,5.12-.097,2.561,0,2.561,1.457,5.122,1.457s2.561.476,5.122.476,2.561,3.962,5.122,3.962c2.562,0,2.562-5.635,5.124-5.635s2.56,7.487,5.121,7.487c2.563,0,2.563-6.316,5.125-6.316s3.247-.773,5.748-.205c2.505.57,2.707,4.644,3.983,2.419Z"/>
    <path d="M517.245,497.172c1.262-2.203-1.76-1.276-3.082-3.444-1.321-2.166,2.864-4.72,1.543-6.886-1.321-2.166-2.958-1.168-4.279-3.335s-4.419-.278-5.741-2.445c-1.323-2.169-1.611-1.993-2.934-4.162-1.322-2.167-2.052-1.722-3.374-3.889-1.322-2.167,1.736-4.032.414-6.199-1.322-2.168-2.13-1.675-3.452-3.843-1.323-2.168-2.32-1.56-3.643-3.728s1.682-4,.36-6.167c-1.322-2.168-2.937-1.183-4.259-3.351s-1.536-2.038-2.859-4.207c-1.322-2.168,1.294-3.764-.028-5.931s-5.566.419-6.889-1.75c-1.322-2.168,3.77-5.274,2.448-7.443s-8.022,1.918-9.345-.251c-1.323-2.169,1.965-4.174.642-6.342s-1.589-2.007-2.912-4.176c-1.323-2.169-4.26-.377-5.582-2.546s.225-3.114-1.098-5.283-1.472-2.079-2.796-4.248,2.073-4.239.75-6.408c-1.322-2.167-.519-2.657-1.841-4.824s-.668-2.569-1.991-4.738c-1.322-2.168-7.021,1.308-8.343-.86-1.323-2.169-.564-2.632-1.887-4.801s-1.649-1.971-2.973-4.141c-1.324-2.17-1.986-1.766-3.31-3.936-1.324-2.17,4.436-5.683,3.112-7.853-1.323-2.169-5.144.161-6.468-2.008s.996-3.584-.327-5.754-5.316.263-6.641-1.908c-1.325-2.173,1.853-4.112.528-6.285-1.325-2.173-.514-7.815-3.059-7.887-2.539-.071-4.253,4.095-5.689,6.19-1.438,2.097-1.401,2.122-2.839,4.219-1.437,2.095-1.532,2.03-2.969,4.125s3.98,5.808,2.543,7.903c-1.437,2.096-6.198-1.168-7.635.928s3.816,5.699,2.379,7.795c-1.437,2.095-2.932,1.07-4.368,3.166s-4.489.003-5.926,2.099c-1.438,2.097-1.193,2.265-2.63,4.361-1.437,2.096-1.788,1.855-3.225,3.951s-.067,3.036-1.505,5.133c-1.437,2.096-2.934,1.07-4.371,3.167s1.467,4.088.029,6.185q-1.437,2.097-2.87,4.197c-1.438,2.097-2.5,1.369-3.938,3.466-1.437,2.097-1.49,2.06-2.928,4.157s.723,3.578-.715,5.676c-1.436,2.094-6.895-1.649-8.331.445s1.404,4.045-.034,6.141-.817,2.52-2.254,4.616c-1.438,2.097-2.04,1.685-3.478,3.783-1.437,2.096,1.57,4.158.132,6.254s-.937,2.44-2.375,4.538-4.083.285-5.522,2.383c-1.438,2.098-1.619,1.974-3.058,4.072s-4.086.283-5.524,2.381-2.485,1.38-3.924,3.477,4.404,6.103,2.966,8.201c-1.44,2.1-1.077,2.348-2.516,4.448s-2.599,1.307-4.039,3.408-2.03-.384-4.578-.424c-2.593-.041-1.028.953-2.483-1.194-1.456-2.148-1.093-2.393-2.549-4.541s-2.541-1.411-3.997-3.559-3.959-.451-5.415-2.599c-1.455-2.148,2.452-4.796.997-6.944-1.456-2.148-.812-2.585-2.267-4.733-1.456-2.148-3.347-.866-4.803-3.013-1.456-2.148.181-3.258-1.275-5.406-1.454-2.145-2.1-1.707-3.554-3.852-1.456-2.148-1.177-2.336-2.633-4.484-1.455-2.147.605-3.542-.85-5.689-1.456-2.149-4.123-.341-5.579-2.49-1.455-2.147-3.599-.695-5.054-2.842-1.456-2.148.683-3.598-.773-5.746s-2.399-1.511-3.856-3.66c-1.457-2.149,2.123-4.575.667-6.725-1.457-2.149-4.668.027-6.125-2.122s.135-3.227-1.321-5.376c-1.456-2.149-3.023-1.088-4.479-3.237-1.458-2.151-.611-2.724-2.069-4.875s-4.182-.306-5.641-2.459,1.538-4.519-1.062-4.518c-2.529,0-.906,1.369-2.233,3.523-1.327,2.152.13,3.05-1.197,5.202-1.327,2.153-4.83-.007-6.157,2.146s-1.783,1.873-3.111,4.026c-1.327,2.152-1.531,2.027-2.858,4.179-1.328,2.153-1.256,2.198-2.583,4.351-1.327,2.153,4.258,5.596,2.931,7.749s-3.442.85-4.769,3.003-1.1,2.293-2.428,4.446c-1.328,2.154-1.536,2.026-2.864,4.179s-5.684-.533-7.011,1.621-.027,2.956-1.355,5.11c-1.326,2.151,2.173,4.308.847,6.459s-4.863-.027-6.191,2.126c-1.327,2.152-2.723,1.291-4.049,3.444s.735,3.426-.594,5.58-2.82,1.232-4.147,3.385,3.895,5.374,2.567,7.528-7.143-1.43-8.472.724-.145,2.884-1.474,5.039c-1.329,2.155-2.609,1.365-3.938,3.52s-.942,2.392-2.27,4.546c-1.328,2.154,4.883,5.984,3.554,8.138s-6.868-1.259-8.198.898c-1.33,2.158-.863,2.446-2.193,4.604-1.33,2.158-2.865,3.65-1.612,5.854,1.264,2.223,3.31,3.304,5.868,3.304,2.558,0,2.558-5.964,5.115-5.964,2.558,0,2.558,4.101,5.116,4.101,2.559,0,2.559,1.641,5.117,1.641s2.559-6.506,5.117-6.506,2.558,5.821,5.116,5.821c2.558,0,2.558-3.706,5.116-3.706,2.558,0,2.558-.948,5.116-.948,2.559,0,2.559.869,5.117.869s2.559,1.667,5.118,1.667,2.558,2.385,5.116,2.385,2.558-5.653,5.116-5.653c2.558,0,2.558,4.473,5.117,4.473,2.559,0,2.559-3.788,5.118-3.788,2.559,0,2.559,1.507,5.117,1.507,2.558,0,2.558,4.097,5.116,4.097s2.558-1.352,5.117-1.352c2.559,0,2.559-4.121,5.119-4.121s2.559,3.879,5.117,3.879,2.558.565,5.117.565,2.559-6.178,5.118-6.178,2.559,2.145,5.118,2.145,2.557,5.192,5.114,5.192c2.556,0,2.556-6.987,5.112-6.987,2.556,0,2.556,4.294,5.112,4.294,2.557,0,2.557-1.874,5.114-1.874s2.559,2.047,5.118,2.047c2.558,0,2.558-3.193,5.117-3.193s2.557-.425,5.114-.425,2.557,3.474,5.114,3.474c2.558,0,2.558-2.543,5.116-2.543s2.56-.647,5.12-.647,2.558,4.308,5.116,4.308,2.558-5.426,5.115-5.426,2.559,5.419,5.117,5.419c2.559,0,2.559-.176,5.119-.176,2.558,0,2.558-4.266,5.116-4.266,2.559,0,2.559-.924,5.118-.924,2.56,0,2.56-.464,5.12-.464,2.559,0,2.559-.279,5.117-.279,2.56,0,2.56,7.729,5.12,7.729,2.559,0,2.559-6.282,5.118-6.282,2.56,0,2.56-1.283,5.119-1.283,2.559,0,2.559,5.229,5.119,5.229,2.56,0,2.56,2.402,5.12,2.402,2.56,0,2.56-5.526,5.119-5.526s2.56,2.92,5.121,2.92c2.561,0,2.561-1.603,5.121-1.603,2.56,0,2.56-1.746,5.121-1.746,2.558,0,2.558.01,5.116.01,2.56,0,2.56,3.979,5.12,3.979s2.559-5.876,5.117-5.876c2.56,0,2.56-.097,5.12-.097,2.561,0,2.561,1.457,5.122,1.457s2.561.476,5.122.476,2.561,3.962,5.122,3.962c2.562,0,2.562-5.635,5.124-5.635s2.56,7.487,5.121,7.487c2.563,0,2.563-6.316,5.125-6.316s3.247-.773,5.748-.205c2.505.57,2.707,4.644,3.983,2.419Z" style="fill: none; stroke: #000; stroke-linejoin: round; stroke-width: 45px;"/>
  </g>
</svg>