<?xml version="1.0" encoding="UTF-8"?>
<svg id="LM_Icons" data-name="LM Icons" xmlns="http://www.w3.org/2000/svg" width="700" height="700" viewBox="0 0 700 700">
  <path d="M267.686,530.669c-2.529.026-.892.805-2.681-.983-1.789-1.789-4.297.719-6.086-1.07-1.788-1.788,2.405-5.98.617-7.768s-5.71,2.134-7.498.345-3.115-.463-4.904-2.252-1.22-2.357-3.008-4.145-1.032-2.546-2.821-4.336c-1.789-1.789-1.343-2.234-3.132-4.023s1.594-5.172-.195-6.961c-1.789-1.789-4.348.77-6.137-1.019s-2.155-1.424-3.944-3.213.006-3.579-1.781-5.366c-1.789-1.789-4.964,1.386-6.753-.403-1.787-1.787-.331-3.243-2.118-5.03-1.789-1.789,1.05-4.628-.739-6.417s-2.048-1.528-3.836-3.317c-1.79-1.79-5.828,2.249-7.618.459s-2.173-1.405-3.962-3.193-1.694-1.885-3.484-3.675-1.243-2.338-3.033-4.128.168-3.748-1.623-5.539c-1.79-1.79-.339-3.242-2.129-5.032s-2.299-1.281-4.089-3.07-5.261,1.681-7.051-.109-.546-3.035-2.336-4.826-1.009-2.578-2.803-4.371-4.903-1.204-4.884-3.74c.019-2.573,5.218.149,7.038-1.671s1.682-1.956,3.501-3.776,2.817-.821,4.636-2.64-1.545-5.182.274-7c1.818-1.818,5.183,1.546,7.001-.272,1.818-1.818-2.56-6.197-.742-8.015s1.689-1.948,3.507-3.766,5.195,1.558,7.014-.261.554-3.084,2.373-4.903,3.742.103,5.561-1.716,1.553-2.087,3.373-3.907-2.151-5.79-.332-7.609,2.545-1.092,4.364-2.911,1.321-2.316,3.14-4.135,3.046-.592,4.864-2.41c1.819-1.819.579-3.058,2.398-4.877s1.895-1.742,3.714-3.561,5.298,1.659,7.117-.16c1.82-1.82-2.66-6.3-.841-8.12s4.225.586,6.044-1.234c1.819-1.819.805-2.833,2.625-4.652,1.819-1.819,4.979,1.341,6.797-.478,1.819-1.819-.077-3.714,1.742-5.533s.43-3.208,2.249-5.027,5.22,1.582,7.04-.238-2.236-5.876-.417-7.696c1.82-1.82,5.091,1.452,6.911-.368,1.819-1.819,1.353-2.286,3.172-4.105,1.819-1.819,3.187-.451,5.006-2.27,1.819-1.819-.959-4.597.86-6.416,1.819-1.819.371-3.268,2.19-5.087s5.999,2.359,7.819.539.711-2.928,2.531-4.748c1.819-1.819.526-3.112,2.346-4.932,1.819-1.819,4.887,1.249,6.707-.57s-1.205-4.844.614-6.664-.155-3.788,1.661-5.605c1.817-1.817,2.158-1.475,3.975-3.292s5.044,1.41,6.861-.407-1.951-5.586-.133-7.404c1.819-1.819,1.766-1.871,3.585-3.69,1.82-1.82,5.184,1.543,7.004-.277s.4-3.239,2.219-5.058c1.818-1.818,2.288-1.349,4.106-3.167s4.379.743,6.197-1.075.991-2.644,2.809-4.462-.825-4.461.993-6.278c1.819-1.819,4.847,1.209,6.666-.609,1.82-1.82-1.931-5.571-.111-7.391,1.82-1.82,1.782-1.858,3.603-3.678,1.819-1.819.948-2.69,2.767-4.509s3.943.306,5.762-1.512,2.638-.999,4.457-2.817c1.819-1.819.493-3.145,2.313-4.964s3.913.272,5.734-1.548c1.82-1.82,3.229-.412,5.049-2.232s1.981-1.658,3.8-3.477c1.819-1.819-3.405-7.043-1.586-8.862,1.82-1.82,6.387,2.748,8.207.928s-2.115-5.758-.294-7.579c1.82-1.82,6.213,2.573,8.032.753s-2.155-5.795-.336-7.614,6.054,2.413,7.874.593c1.821-1.821-2.098-5.739-.277-7.56,1.82-1.82,1.623-2.017,3.443-3.837s4.43.789,6.25-1.032.476-3.166,2.297-4.987c1.82-1.82,4.372.732,6.193-1.088,1.821-1.821,1.247-2.395,3.068-4.217,1.821-1.821-1.197-4.838.624-6.659s3.753.11,5.574-1.711,1.733-1.909,3.554-3.73c1.821-1.821,1.609-2.034,3.43-3.856,1.821-1.821-1.497-5.139.324-6.96s3.644.002,5.465-1.819.61-3.027,2.429-4.846,1.919-1.723,3.741-3.544c1.82-1.82,2.94-.7,4.76-2.52,1.822-1.822,4.123.479,5.944-1.343,1.821-1.821,1.889-1.753,3.709-3.574,1.822-1.822-1.256-4.899.566-6.721,1.822-1.822,4.588.943,6.41-.879,1.822-1.822-1.512-5.156.311-6.979,1.822-1.822,1.439-2.205,3.262-4.028,1.822-1.822,4.925,1.281,6.747-.541,1.822-1.822,3.028-.617,4.85-2.439s1.056-2.589,2.878-4.412c1.826-1.826,2.363-1.288,4.188-3.114s-.375-5.396,2.207-5.422c2.529-.026,3.875.035,5.663,1.824,1.789,1.789-1.545,5.123.244,6.911s2.184,1.392,3.971,3.18c1.788,1.788.267,3.309,2.056,5.098,1.789,1.789,5.059-1.481,6.848.308s2.492,1.085,4.28,2.873,2.203,1.375,3.992,3.164c1.789,1.789-.987,4.564.801,6.353s1.661,1.917,3.45,3.706c1.789,1.789,2.424,1.153,4.213,2.942,1.789,1.789,4.591-1.012,6.38.777,1.787,1.787.257,3.317,2.044,5.104,1.789,1.789,2.847.731,4.636,2.52,1.787,1.787,2.239,1.335,4.026,3.122s-2.203,5.781-.414,7.57,5.583-2.007,7.371-.219-2.767,6.346-.977,8.136,6.707-3.13,8.496-1.341c1.79,1.79-2.912,6.491-1.122,8.281s5.109-1.528,6.9.262c1.79,1.79,2.675.906,4.465,2.696s-.328,3.909,1.462,5.699.944,2.636,2.734,4.426.859,2.722,2.649,4.512c1.791,1.791.989,2.592,2.78,4.382,1.793,1.793,3.116.471,4.91,2.264,1.793,1.793,4.721-.132,4.702,2.404-.019,2.573-3.377.196-5.197,2.016-1.819,1.819,1.962,5.6.143,7.42-1.819,1.819-5.161-1.524-6.98.295-1.819,1.819-1.887,1.75-3.706,3.569-1.818,1.818.57,4.207-1.248,6.026s-2.632,1.004-4.45,2.823-2.919.718-4.737,2.536-.578,3.059-2.396,4.878c-1.819,1.819.318,3.956-1.501,5.775s-6.599-2.96-8.418-1.141,1.154,4.794-.666,6.614-2.375,1.263-4.195,3.083-4.575-.938-6.394.881.681,4.319-1.137,6.137c-1.819,1.819.47,4.107-1.349,5.926s-6.868-3.231-8.687-1.412,1.989,5.626.17,7.445-5.171-1.532-6.99.287c-1.82,1.82.663,4.303-1.157,6.122-1.82,1.82-.575,3.064-2.394,4.884-1.819,1.819-3.82-.182-5.639,1.638-1.819,1.819-1.277,2.361-3.096,4.18-1.819,1.819-3.271.367-5.09,2.186-1.819,1.819-.49,3.148-2.309,4.967s-1.006,2.632-2.826,4.452c-1.82,1.82-.776,2.864-2.596,4.684-1.82,1.82-5.199-1.56-7.019.26-1.819,1.819-1.884,1.755-3.703,3.574s-1.151,2.487-2.97,4.306-2.479,1.159-4.298,2.978,1.565,5.204-.255,7.023-.722,2.918-2.542,4.737c-1.82,1.82-2.994.645-4.814,2.465-1.819,1.819-5.648-2.009-7.468-.19-1.819,1.819.35,3.988-1.469,5.807s-.944,2.695-2.763,4.514-3.089.544-4.906,2.361-.036,3.597-1.853,5.414c-1.817,1.817-4.751-1.117-6.568.7s-1.627,2.009-3.445,3.826,1.774,5.411-.045,7.23c-1.82,1.82-5.514-1.873-7.334-.053s.908,4.546-.912,6.366c-1.818,1.818-4.351-.714-6.169,1.104s-.043,3.593-1.861,5.41-3.488.148-5.305,1.965-2.878.757-4.696,2.575-1.855,1.782-3.674,3.601c-1.82,1.82,2.409,6.049.589,7.869-1.82,1.82-4.216-.575-6.036,1.245s-2.637,1.001-4.456,2.82.363,4-1.456,5.818-1.386,2.251-3.205,4.069-1.641,1.997-3.46,3.817-4.133-.492-5.954,1.328c-1.82,1.82-3.298.343-5.118,2.163-1.819,1.819,2.78,6.418.96,8.237-1.819,1.819-3.305.333-5.124,2.153-1.82,1.82-1.037,2.603-2.856,4.423s-.611,3.031-2.432,4.853-5.507-1.867-7.327-.047c-1.82,1.82-.146,3.494-1.965,5.313s-4.263-.622-6.083,1.198-1.29,2.352-3.111,4.173-.87,2.77-2.69,4.59c-1.82,1.82-1.421,2.22-3.241,4.041s.249,3.892-1.572,5.713-5.011-1.371-6.832.45-.949,2.694-2.77,4.515.338,3.979-1.483,5.8-2.285,1.357-4.107,3.178-5.907-2.265-7.728-.444c-1.821,1.821.157,3.8-1.665,5.621-1.821,1.821-2.149,1.493-3.97,3.314s.412,4.054-1.409,5.875-5.926-2.288-7.745-.469,1.324,4.966-.498,6.787.519,4.159-1.301,5.979c-1.822,1.822-5.161-1.518-6.983.304s-3.872-.231-5.693,1.59-1.01,2.633-2.832,4.455-2.1,1.545-3.922,3.367,2.843,6.488,1.021,8.31-6.016-2.371-7.838-.549c-1.822,1.822.714,4.358-1.108,6.18s-3.984-.34-5.807,1.482-1.37,2.275-3.192,4.098c-1.826,1.826-2.139,1.225-4.152,2.842-1.441,1.158.156,1.741-2.425,1.768Z" style="fill: none; stroke: #000; stroke-linejoin: round; stroke-width: 45px;"/>
  <path d="M170.628,435.022c-2.491.472-3.213,3.64-4.224,5.964s5.039,4.958,4.027,7.285c-1.011,2.325-6.45-.041-7.461,2.284s2.278,3.755,1.267,6.079-3.816,1.106-4.827,3.431-.424,2.582-1.436,4.908-1.871,1.951-2.882,4.276-.069,2.735-1.08,5.061,2.951,4.05,1.94,6.377-5.252.481-6.264,2.806.551,3.006-.461,5.332-2.061,1.869-3.073,4.195c-1.012,2.326-3.351,1.309-4.362,3.635s1.956,3.617.945,5.943-2.325,1.756-3.337,4.083-3.026,1.45-4.037,3.776c-1.012,2.327-.241,2.662-1.253,4.989s-.722,2.454-1.734,4.781,4.392,4.677,3.38,7.004-2.959,1.477-3.97,3.802-3.872,1.083-4.884,3.41-1.235,2.228-2.246,4.554,3.324,4.212,2.312,6.539-2.895,1.509-3.907,3.836-3.925,1.061-4.937,3.388-.719,2.455-1.731,4.783.388,2.936-.624,5.263c-1.012,2.327.878,3.149-.134,5.477s-.351,2.617-1.364,4.947-3.624,1.195-4.638,3.526-1.277,1.527.452,3.39c1.766,1.903,1.404,3.002,3.891,2.259s.97-5.824,3.458-6.567,4.284,5.258,6.774,4.514c2.488-.744,2.071-2.14,4.559-2.883s1.058-5.529,3.546-6.273,3.987,4.27,6.476,3.526c2.49-.744,1.913-2.675,4.402-3.419,2.488-.744,3.075,1.219,5.563.475q2.489-.744,4.979-1.484c2.49-.744,2.046-2.229,4.536-2.974,2.489-.744,1.992-2.407,4.481-3.15,2.49-.744,3.527,2.726,6.017,1.982s1.687-3.429,4.176-4.173,3.637,3.096,6.127,2.352c2.49-.744.788-6.439,3.277-7.183,2.49-.744,2.098-2.059,4.588-2.803s3.135,1.416,5.625.672c2.49-.744,3.645,3.12,6.136,2.376,2.491-.744,1.433-4.283,3.924-5.028,2.49-.744,2.863.503,5.354-.241,2.488-.743,2.338-1.247,4.826-1.99,2.49-.744,1.507-4.036,3.997-4.78s2.796.284,5.285-.459c2.49-.744,3.663,3.179,6.153,2.435s1.546-3.909,4.037-4.653c2.491-.744,2.793.267,5.285-.478s3.478,2.556,5.969,1.812c2.492-.745,1.801-3.058,4.292-3.803,2.491-.744,2.92.692,5.41-.053,2.493-.745,2.188-1.764,4.681-2.509s1.717-3.346,4.212-4.091c2.494-.745,6.643,3.56,7.342,1.052.679-2.436-5.282-.516-7.071-2.305s-.197-3.381-1.986-5.17-3.355-.22-5.143-2.008,1.754-5.331-.034-7.119c-1.789-1.789-.895-2.683-2.684-4.472-1.788-1.788-5.081,1.505-6.869-.283-1.789-1.789.905-4.483-.884-6.272s-3.342-.235-5.13-2.024-.15-3.428-1.939-5.217c-1.789-1.789-2.771-.807-4.56-2.595-1.789-1.789-1.011-2.568-2.8-4.357-1.787-1.787-5.483,1.909-7.27.122-1.789-1.789-1.275-2.303-3.064-4.092-1.787-1.787-2.265-1.309-4.052-3.096-1.789-1.789.506-4.084-1.283-5.873-1.788-1.788-.747-2.829-2.536-4.617s-6.169,2.59-7.959.8,2.809-6.386,1.02-8.175-2.157-1.422-3.947-3.212-4.014.433-5.804-1.357c-1.79-1.79-2.201-1.38-3.991-3.17-1.79-1.79-2.598-.982-4.389-2.773s2.672-6.251.882-8.041-3.82.24-5.61-1.55-3.655.074-5.446-1.716-3.863-1.269-5.013-3.529c-1.769-3.477,1.223-7.954-1.269-7.482Z" style="fill: none; stroke: #000; stroke-linejoin: round; stroke-width: 45px;"/>
  <path d="M431.719,176.877c1.788,1.788,4.844-1.268,6.633.52,1.789,1.789-1.481,5.059.308,6.848,1.788,1.788,2.993.583,4.781,2.371s.979,2.598,2.767,4.386c1.789,1.789-.014,3.592,1.775,5.381s4.077-.5,5.865,1.288.777,2.801,2.566,4.59c1.789,1.789.236,3.341,2.024,5.13,1.789,1.789,2.384,1.194,4.172,2.983,1.789,1.789,2.013,1.565,3.802,3.354,1.789,1.789,5.956-2.378,7.746-.588s.285,3.289,2.072,5.076-.416,3.994,1.373,5.783c1.787,1.787,1.615,1.959,3.402,3.746s5.132-1.554,6.921.235c1.788,1.788.337,3.24,2.125,5.028,1.79,1.79-.456,4.036,1.334,5.825s2.015,1.562,3.804,3.351,2.869.71,4.659,2.5c1.79,1.79,3.248.333,5.038,2.123s2.301,1.28,4.092,3.07c1.79,1.79-.223,3.803,1.568,5.594,1.79,1.79,4.036-.456,5.825,1.334,1.79,1.79-1.457,5.037.334,6.827,1.791,1.791,5.54-1.959,7.33-.168,1.793,1.793-2.636,6.223-.843,8.017,1.793,1.793,2.824.763,4.617,2.556" style="fill: none; stroke: #000; stroke-linejoin: round; stroke-width: 45px;"/>
</svg>