<?xml version="1.0" encoding="UTF-8"?>
<svg id="LM_Icons" data-name="LM Icons" xmlns="http://www.w3.org/2000/svg" width="700" height="700" viewBox="0 0 700 700">
  <path d="M102.659,404.988c-2.1-1.504-1.229-3.287-.902-5.849.327-2.562,2.487-2.286,2.813-4.848s-.245-2.635.082-5.197c.327-2.563,2.716-2.258,3.043-4.821.327-2.562-4.303-3.153-3.976-5.715s2.319-2.308,2.645-4.869,4.332-2.051,4.659-4.613-1.898-2.847-1.571-5.41-4.169-3.136-3.842-5.698c.327-2.562,2.639-2.267,2.966-4.829.327-2.562.069-2.595.396-5.158.327-2.563-.842-2.712-.515-5.274.327-2.56.824-2.497,1.151-5.057.327-2.56,3.147-2.2,3.473-4.76s1.355-2.428,1.682-4.988c.327-2.561-1.543-2.799-1.216-5.36.327-2.563.117-2.589.444-5.152.327-2.562,2.818-2.244,3.145-4.806.327-2.561-5.91-3.356-5.583-5.917.327-2.561,3.407-2.168,3.734-4.728.327-2.562,2.569-2.276,2.896-4.837s-.838-2.712-.511-5.276c.327-2.562,3.809-2.117,4.136-4.679.327-2.561.197-2.578.524-5.139.327-2.562-6.233-3.399-5.906-5.961s6.394-1.789,6.721-4.352-5.015-3.243-4.688-5.805-1.341-2.775-1.014-5.337c.327-2.563,6.721-1.748,7.048-4.311.327-2.562-1.724-2.824-1.397-5.386.327-2.563,3.263-2.189,3.59-4.752.327-2.563.313-2.564.64-5.127.327-2.563-6.52-3.437-6.193-6s6.76-1.742,7.087-4.306-2.317-2.901-1.99-5.465c.327-2.563,1.685-2.39,2.012-4.953.327-2.564-5.338-3.287-5.011-5.851.327-2.564,4.44-2.04,4.768-4.604s1.631-2.398,1.958-4.962c.327-2.561,2.156-2.328,2.482-4.889s.78-2.506,1.107-5.07.349-2.559.676-5.122-6.621-3.45-6.294-6.013,1.453-2.421,1.78-4.986c.327-2.565,2.355-2.306,2.682-4.871s.9-2.492,1.227-5.056c.327-2.565-4.086-3.128-3.759-5.694.327-2.564,3.654-2.14,3.981-4.704.327-2.566,3.637-2.144,3.964-4.71s-4.309-3.159-3.981-5.727.85-2.3,3.219-3.346c2.352-1.038,2.402-1.438,4.488.064s-.606,5.238,1.479,6.74,1.739,1.979,3.823,3.479c2.083,1.5,3.06.143,5.144,1.642,2.083,1.5,3.784-.863,5.867.636s3.507-.477,5.59,1.023c2.084,1.501.735,3.374,2.819,4.875,2.086,1.502,1.741,1.98,3.827,3.482s2.704.643,4.79,2.145c2.085,1.501.251,4.048,2.335,5.549,2.084,1.5,2.711.629,4.795,2.13s2.903.363,4.987,1.863c2.085,1.501,3.017.207,5.101,1.708,2.086,1.502-.572,5.194,1.514,6.696,2.086,1.502,1.311,2.577,3.397,4.079s4.662-2.078,6.746-.577c2.085,1.501,3.412-.342,5.496,1.159s-.663,5.319,1.422,6.821c2.087,1.503,2.768.557,4.855,2.06s3.112.077,5.197,1.578c2.085,1.501-1.171,6.023.914,7.525s3.892-1.007,5.978.495,4.251-1.503,6.338,0c2.086,1.502,2.718.623,4.804,2.125,2.086,1.502.348,3.916,2.434,5.418,2.087,1.503,3.324-.216,5.411,1.287,2.086,1.502.221,4.092,2.307,5.594,2.087,1.503,4.016-1.177,6.103.326,2.086,1.502-.188,4.661,1.898,6.163,2.087,1.503,4.37-1.669,6.457-.166,2.087,1.502,2.183,1.368,4.27,2.871s-1.574,6.588.513,8.09c2.087,1.503,4.836-2.315,6.923-.813,2.087,1.503-.482,5.071,1.606,6.574s5.809-3.672,7.893-2.171c2.087,1.503.002,4.398,2.089,5.901s3.355-.261,5.44,1.241-1.421,6.376.667,7.879c2.086,1.502,3.039.179,5.126,1.681,2.087,1.503,3.658-.678,5.745.825,2.088,1.504,2.07,1.529,4.158,3.033,2.088,1.504,2.824.482,4.912,1.986,2.088,1.504,1.126,2.841,3.214,4.345,2.088,1.503,2.518.905,4.606,2.409,2.088,1.503,2.597.796,4.685,2.299,2.09,1.505,2.888.396,4.978,1.901s1.35,2.536,3.441,4.042c2.091,1.506,2.858,2.049,2.666,4.619-.191,2.554-.923,3.219-3.212,4.367s-2.202,1.324-4.491,2.472-2.186,1.356-4.476,2.504c-2.29,1.149-3.913-2.085-6.203-.936-2.29,1.149-3.613-1.489-5.903-.34s-2.144,1.439-4.434,2.587c-2.29,1.149-1.381,2.961-3.67,4.11-2.29,1.149-.91,3.901-3.2,5.05s-4.293-2.851-6.58-1.703-1.612,2.494-3.901,3.642c-2.29,1.149-.779,4.16-3.069,5.309-2.29,1.149-4.315-2.888-6.605-1.74-2.288,1.148-2.284,1.158-4.572,2.306-2.288,1.148.333,6.371-1.955,7.519-2.288,1.148-5.475-5.205-7.762-4.057s1.116,7.934-1.173,9.082c-2.29,1.149-3.006-.278-5.296.871s-2.9-.068-5.19,1.08-2.347,1.031-4.636,2.18c-2.289,1.148-3.419-1.106-5.708.042-2.289,1.149-2.557.615-4.847,1.763s-.525,4.671-2.816,5.82c-2.29,1.149-3.014-.297-5.304.852-2.289,1.148-3.499-1.264-5.789-.116-2.29,1.149-1.493,2.739-3.783,3.887-2.291,1.149-1.497,2.731-3.788,3.88-2.29,1.149-2.532.665-4.822,1.813s-3.857-1.975-6.148-.826c-2.291,1.149-1.804,2.121-4.095,3.27-2.29,1.149.421,6.553-1.869,7.702-2.291,1.149-4.931-4.113-7.222-2.964s-1.748,2.23-4.039,3.379c-2.291,1.149-1.922,1.885-4.213,3.034-2.291,1.149-1.311,3.102-3.602,4.251s-4.822-3.894-7.113-2.745c-2.291,1.149-1.943,1.843-4.234,2.993-2.292,1.15-.941,3.843-3.232,4.992s-.771,4.181-3.063,5.331c-2.291,1.149-4.475-3.206-6.766-2.056s-.235,5.244-2.525,6.392-5.324-4.895-7.616-3.746c-2.29,1.149-.207,5.302-2.497,6.451s-2.22,1.291-4.511,2.441c-2.292,1.15-2.313,1.109-4.605,2.259-2.292,1.15-2.697.344-4.989,1.494-2.292,1.15-3.472-1.202-5.765-.052s-2.836.065-5.127,1.215-1.252,3.224-3.544,4.373c-2.294,1.151-3.585-1.422-5.879-.271-2.296,1.152,1.655,6.984-.268,8.686-2.336,2.067-5.438,1.357-7.526-.139Z" style="fill: none; stroke: #000; stroke-linecap: round; stroke-linejoin: round; stroke-width: 45px;"/>
  <path d="M269.904,498.34c0,1.703,7.365,3.24,7.434,4.926.069,1.701.271,3.225.408,4.908.139,1.696-5.635,3.95-5.428,5.626.208,1.688,2.935,3.038,3.211,4.704.278,1.678-1.914,3.844-1.569,5.498.347,1.664-.498,3.713-.085,5.351.416,1.648,4.172,2.443,4.654,4.063s-1.275,4.02-.726,5.619c.551,1.606,2.471,2.78,3.086,4.355s4.6,1.725,5.28,3.274.345,3.481,1.09,5.001-2.463,5.118-1.656,6.606,1.875,2.969,2.743,4.422c.87,1.456,1.614,3.129,2.541,4.546s1.417,3.304,2.402,4.682,4.601.9,5.643,2.236c1.042,1.337-.287,4.71.809,6.002s4.56.608,5.708,1.854,4.471.353,5.669,1.551c1.198,1.198-1.763,6.766-.516,7.914s3.636,1.18,4.929,2.276c1.292,1.095,5.567-1.495,6.904-.453,1.336,1.041-.482,6.309.897,7.295,1.377.985,6.19-3.072,7.608-2.143,1.417.927-.486,7.144.97,8.014s5.95-3.62,7.441-2.811-.18,7.758,1.344,8.504c1.52.744,5.649-4.063,7.204-3.38s2.819,1.811,4.4,2.428c1.575.615,3.079,1.215,4.685,1.767,1.599.549,2.374,3.624,4.003,4.108s4.103-2.281,5.751-1.865c1.638.414,3.168.882,4.832,1.229,1.654.345,3.228.617,4.906.895,1.666.276,2.745,4.58,4.433,4.789,1.675.207,3.338,1.553,5.034,1.692,1.682.138,3.544-.987,5.245-.918,1.686.069,3.449.903,5.152.903s3.479-.511,5.165-.579c1.701-.069,3.476-.169,5.158-.306,1.696-.139,2.808-5.643,4.484-5.85,1.688-.208,3.52,1.324,5.186,1.048,1.678-.278,4.086,3.286,5.74,2.941,1.664-.347,2.593-3.995,4.232-4.409,1.648-.416,4.33,2.802,5.951,2.32s3.222-1.427,4.821-1.976c1.606-.551,2.456-3.315,4.031-3.93,1.582-.618,2.77-2.141,4.319-2.822s2.748-2.02,4.268-2.765c1.524-.746,5.173,2.559,6.66,1.752,1.491-.809,2.524-2.634,3.978-3.502,1.456-.87,2.332-2.778,3.749-3.706,1.419-.929.657-4.968,2.034-5.953,1.379-.987,5.917,2.273,7.253,1.232s-.57-6.066.722-7.162c1.293-1.096,3.292-1.265,4.538-2.413,1.247-1.148,2.843-1.862,4.041-3.061s3.635-1.208,4.784-2.454,3.145-1.821,4.242-3.114c1.095-1.292-2.444-6.302-1.402-7.64s3.542-1.432,4.529-2.811c.985-1.377,6.028-.004,6.957-1.423.927-1.417-.476-4.37.393-5.827s3.709-1.85,4.517-3.341c.807-1.488,1.419-3.189,2.166-4.713.744-1.52-2.582-4.933-1.899-6.487.68-1.549,2.072-2.725,2.69-4.307s3.74-2.233,4.292-3.839c.549-1.599-2.861-4.438-2.377-6.066.482-1.62,3.291-2.538,3.707-4.186.414-1.638,4.609-2.48,4.956-4.144.345-1.654-.673-3.69-.396-5.368.276-1.666-1.085-3.633-.877-5.321.207-1.675-1.09-3.505-.951-5.201.138-1.682,1.494-3.286,1.563-4.987.069-1.686-2.789-3.395-2.789-5.098s1.605-3.361,1.537-5.046c-.069-1.701-1.95-3.21-2.087-4.892-.139-1.696,3.382-3.726,3.175-5.402-.208-1.688-5.133-2.633-5.409-4.299-.278-1.678,3.282-3.994,2.937-5.648-.347-1.664-2.148-2.966-2.561-4.605-.416-1.648.15-3.529-.332-5.149s-1.067-3.211-1.616-4.81c-.551-1.606,1.716-4.298,1.101-5.874-.618-1.582-5.098-1.59-5.779-3.139-.683-1.554-1.536-2.96-2.281-4.48-.746-1.524.244-3.916-.563-5.404s-2.064-2.736-2.932-4.19-1.867-2.827-2.794-4.244-4.34-1.054-5.326-2.432c-.987-1.379-.224-3.956-1.266-5.292-1.042-1.337.881-5.134-.215-6.426-1.096-1.293-4.063-1.024-5.211-2.27s-3.543-1.275-4.741-2.473-1.381-3.425-2.628-4.573-4.157-.349-5.45-1.445c-1.292-1.095.178-5.585-1.159-6.627-1.336-1.041-3.593-.948-4.972-1.934s-4.311.35-5.73-.579-1.038-4.7-2.494-5.569-5.247,2.457-6.738,1.648c-1.488-.807-2.537-2.192-4.061-2.939-1.52-.744-2.349-2.792-3.903-3.475-1.549-.68-2.739-2.156-4.32-2.773-1.575-.615-4.234,1.946-5.84,1.395s-1.158-7.453-2.787-7.937-4.543,3.645-6.191,3.229c-1.638-.414-3.223-.782-4.887-1.13-1.654-.345-2.381-5.906-4.059-6.184-1.666-.276-4.354,6.416-6.042,6.208-1.675-.207-2.984-3.32-4.68-3.458-1.682-.138-3.302-1.659-5.003-1.728-1.686-.069-3.424,2.845-5.127,2.845s-3.494-4.22-5.18-4.152c-1.701.069-3.567-.763-5.249-.625-1.696.139-3.381,1.436-5.057,1.643-1.688.208-2.859,4.068-4.525,4.344-1.678.278-3.613-.996-5.267-.651-1.664.347-2.35,4.579-3.989,4.992-1.648.416-4.465-3.67-6.085-3.188s-2.899,2.116-4.498,2.665c-1.606.551-2.711,2.349-4.286,2.964s-4.68-2.388-6.229-1.707c-1.554.683-3.008,1.79-4.528,2.535-1.524.746-1.065,5.32-2.552,6.127s-4.228-.654-5.682.213c-1.456.87-3.072,1.52-4.489,2.448-1.419.929-.565,5.081-1.942,6.066-1.379.987-5.949-2.34-7.285-1.298-1.337,1.042-.611,4.655-1.903,5.75-1.293,1.096-5.848-1.417-7.094-.269-1.247,1.148.404,5.414-.794,6.612s-3.126,1.701-4.274,2.947-3.901,1.166-4.997,2.459.195,4.587-.847,5.925c-1.041,1.336-.7,3.644-1.687,5.023s-1.325,3.08-2.254,4.499-.887,3.284-1.757,4.74-6.421.193-7.23,1.685,3.202,5.417,2.456,6.941-7.93.048-8.613,1.603c-.68,1.549,5.296,5.857,4.678,7.439-.615,1.575-1.773,2.807-2.325,4.413s-5.938,1.634-6.422,3.262,3.438,4.447,3.022,6.095c-.414,1.638.72,3.503.373,5.166-.345,1.654-3.124,2.745-3.402,4.422-.276,1.666-1.19,3.201-1.398,4.89-.207,1.675,2.393,3.558,2.254,5.253-.138,1.682-3.04,3.116-3.109,4.817-.069,1.686-4.269,3.352-4.269,5.055Z" style="fill: none; stroke: #000; stroke-linecap: round; stroke-linejoin: round; stroke-width: 45px;"/>
  <path d="M613.875,114.239c-1.467-.901-2.879-1.614-4.362-2.449-1.5-.844-1.822-3.665-3.337-4.442-1.531-.786-2.794-2.014-4.339-2.733-1.559-.725-2.072-3.864-3.644-4.522-1.586-.664-4.102.962-5.7.365-1.61-.601-2.667-2.803-4.287-3.337-1.632-.538-3.903.994-5.543.523-1.651-.474-2.326-4.757-3.984-5.164-1.667-.41-4.626,4.9-6.299,4.557-1.681-.345-2.849-3.131-4.534-3.41s-3.741,2.321-5.436,2.106c-1.702-.216-3.21-1.279-4.912-1.43-1.709-.152-3.044-5.917-4.75-6.005-1.713-.088-3.632,5.357-5.341,5.332s-3.346.27-5.055.307-3.454-1.853-5.161-1.754-3.758-3.525-5.46-3.365-2.935,4.933-4.631,5.153c-1.7.221-2.948,2.905-4.634,3.184-1.692.28-4.224-4.264-5.9-3.926s-2.259,5.487-3.922,5.883-3.611-.686-5.259-.233c-1.654.455-4.229-2.296-5.861-1.786-1.637.511-2.32,3.867-3.933,4.432s-3.152,1.184-4.744,1.804-3.861-.459-5.431.215c-1.576.678-3.792,0-5.337.728s-1.858,4-3.376,4.782-3.019,1.537-4.509,2.372c-1.497.84-3.262,1.154-4.721,2.042-1.467.893-2.785,1.969-4.21,2.909-1.434.946-1.323,4.001-2.712,4.993-1.398.998-5.096-1.192-6.446-.149-1.359,1.05-3.727.927-5.035,2.022-1.318,1.102.217,5.479-1.048,6.624-1.273,1.153-5.293-.614-6.509.581-1.225,1.205.823,5.578-.342,6.824-1.174,1.255-4.379.616-5.489,1.912-1.118,1.304-.68,3.835-1.731,5.178-1.058,1.353-5.548.169-6.535,1.56-.994,1.401,3.319,6.343,2.4,7.78-.926,1.446-4.366,1.237-5.213,2.718-.852,1.49,1.063,4.336.293,5.86-.782,1.548-3.98,1.818-4.677,3.402s.729,3.929.115,5.547-5.501,1.7-6.031,3.349c-.53,1.649.02,3.664-.426,5.338s-1.781,3.177-2.144,4.871c-.363,1.693,1.149,3.761.869,5.471s1.718,3.656,1.519,5.378c-.199,1.719-4.653,3.019-4.771,4.749-.118,1.727-1.053,3.508-1.092,5.241-.038,1.73-1.469,3.604-1.428,5.337.04,1.73.181,3.628.299,5.357.118,1.727,3.842,3.215,4.037,4.938.195,1.72-1.327,3.722-1.056,5.434s4.185,2.768,4.53,4.466c.345,1.696,2.412,2.888,2.832,4.57s-1.435,3.878-.942,5.54c.492,1.66,1.966,2.932,2.532,4.571.564,1.636,1.575,3,2.211,4.612s-2.898,4.961-2.19,6.544,1.781,3.077,2.558,4.627c.776,1.547.263,3.902,1.109,5.415.844,1.511,5.432.875,6.345,2.349s1.556,3.069,2.536,4.499,1.171,3.408,2.217,4.792,3.468,1.631,4.577,2.965,1.834,2.915,3.006,4.195c1.167,1.275-.393,5.237.839,6.46,1.226,1.218,6.425-1.758,7.715-.595,1.283,1.156,2.188,2.565,3.534,3.664,1.337,1.092.919,4.377,2.318,5.409,1.388,1.025,4.404-.342,5.852.621,1.436.955,3.319.949,4.814,1.841,1.48.883,1.315,4.527,2.853,5.344,1.521.809,2.771,2.205,4.347,2.947,1.558.733,2.691,2.596,4.303,3.262,1.578.652,4.571-2.435,6.155-1.87,1.607.573,2.735,2.326,4.347,2.812,1.633.492,3.701-.997,5.336-.593,1.655.409,2.159,5.953,3.814,6.274,1.672.324,3.519.268,5.189.503,1.685.238,3.725-2.337,5.406-2.187,1.694.151,3.312,1.267,5,1.331,1.699.065,3.386-1.83,5.075-1.852,1.699-.021,3.607,4.586,5.294,4.48s2.919-5.719,4.599-5.909,3.551,1.448,5.221,1.175c1.674-.274,3.111-1.539,4.766-1.892,1.659-.354,2.826-2.289,4.463-2.721s3.453.171,5.068-.339,4.351,2.293,5.941,1.709c1.591-.584,3.984.556,5.545-.1,1.562-.657.375-7.474,1.905-8.201,1.531-.727,4.489,1.543,5.985.749s4.041.177,5.501-.683c1.46-.86,3.106-1.614,4.527-2.537s2.01-3.197,3.389-4.181c1.379-.985,3.223-1.44,4.557-2.483s.198-5.092,1.486-6.192c1.289-1.101,1.561-3.151,2.8-4.306s6.684,2.037,7.871.829.233-4.496,1.366-5.755,5.248-.044,6.324-1.352-.42-4.745.596-6.099c1.018-1.356.717-3.621,1.671-5.02s.164-3.804,1.053-5.245,6.161-.279,6.982-1.761c.232-.419,1.763-1.55,3.237-3.93.774-1.25-1.868-4.713-1.017-6.456.693-1.419,1.197-2.87,1.831-4.596.559-1.522,5.713-1.785,6.153-3.532.401-1.591.993-3.554,1.243-5.322.23-1.634.383-3.677.442-5.455.055-1.653-6.03-3.257-6.157-5.028-.118-1.651-.415-3.035-.718-4.784-.283-1.63,1.534-3.597,1.067-5.309-.435-1.597,1.156-3.924.543-5.589-.572-1.555-4.614-1.695-5.355-3.306-.693-1.506,3.211-5.416,2.358-6.969-.8-1.455-4.663-1.249-5.613-2.744-.91-1.432.849-4.747-.136-6.111-.993-1.375-2.354-2.655-3.418-3.959-1.071-1.313-1.262-3.628-2.4-4.868-1.145-1.248-4.381-.661-5.589-1.834-1.215-1.18-5.119.65-6.392-.452-1.281-1.109-2.376-2.188-3.71-3.216-1.342-1.034-3.16-1.096-4.55-2.046-1.398-.957-.63-5.087-2.072-5.957-1.45-.876-3.384-.852-4.872-1.639-1.498-.792-1.331-5.104-2.861-5.805-1.541-.705-5.088,3.251-6.657,2.641-1.58-.615-3.706.838-5.307.321-1.614-.521-2.476-2.988-4.105-3.407-1.643-.422-3.256-.37-4.908-.687-1.666-.32-3.191-.567-4.86-.778-1.683-.212-3.3,1.057-4.979.958-1.693-.1-3.165-3.665-4.847-3.647-1.695.017-3.356.308-5.033.447-1.688.14-3.172,1.395-4.834,1.66-1.672.266-3.99-2.621-5.628-2.226-1.644.396-3.595.354-5.198.883-1.603.528-1.208,6.287-2.763,6.95-1.55.66-3.314.368-4.809,1.164-1.484.791-5.81-3.092-7.233-2.165-1.406.916.194,6.182-1.144,7.233-1.356,1.065-2.5,2.088-3.718,3.253-1.244,1.19-3.094,1.619-4.194,2.898-1.121,1.303-5.032.549-6.004,1.931-.988,1.405-2.19,2.995-3.025,4.465-.848,1.492.766,4.397.074,5.94-.702,1.567-1.434,3.143-1.975,4.745-.55,1.627-1.286,3.24-1.671,4.886-.391,1.674,3.375,3.952,3.155,5.626-.225,1.706-.359,3.05-.408,4.736-.05,1.722-3.324,3.316-3.19,4.995.137,1.719-3.616,4.183-3.288,5.834.336,1.692,4.519,2.609,5.055,4.204.549,1.633,2.785,2.428,3.543,3.933.772,1.535,2.079,2.366,3.067,3.739.998,1.386,2.568,1.633,3.785,2.825,1.209,1.185.539,4.113,1.963,5.077,1.549,1.049,2.482,3.047,4.074,3.716,1.68.706,3.774-.22,5.526.083,1.737.3,3.224-2.177,5.057-2.252,1.722-.07,3.743,3.678,5.571,3.295,1.672-.351,3.033-2.098,4.812-2.697,1.619-.546,2.946-1.817,4.666-2.559,1.575-.679,3.427-.784,5.096-1.619,1.54-.77,4.781,1.469,6.409.572,1.515-.835,2.236-3.289,3.833-4.229,1.497-.881,2.444-2.794,4.018-3.762" style="fill: none; stroke: #000; stroke-linecap: round; stroke-linejoin: round; stroke-width: 45px;"/>
</svg>