<?xml version="1.0" encoding="UTF-8"?>
<svg id="SM_Icons" data-name="SM Icons" xmlns="http://www.w3.org/2000/svg" width="700" height="700" viewBox="0 0 700 700">
  <polygon points="145.818 350 146.826 362.076 146.586 374.269 149.21 386.148 155.062 397.178 158.245 408.651 161.566 420.118 163.114 432.514 168.982 443.143 176.009 453.035 183.194 462.687 188.219 473.969 196.978 482.424 207.116 489.34 214.667 498.761 225.152 504.839 234.211 512.622 244.735 518.275 254.603 525.018 265.216 530.511 276.592 534.212 286.782 541.491 298.601 544.138 310.744 544.832 322.565 546.702 334.576 546.276 346.453 549.767 358.558 550.114 370.652 549.291 382.484 546.599 393.791 542.04 405.417 539.214 416.74 535.332 427.971 531.13 438.433 525.258 450.273 521.74 459.516 513.802 468.938 506.343 478.176 498.684 488.288 491.832 494.814 481.432 503.6 473.111 509.735 462.698 515.977 452.474 521.207 441.712 526.843 431.183 532.945 420.726 537.975 409.681 537.545 397.104 542.545 385.938 546.267 374.262 543.039 361.895 545.892 350 544.796 338 542.269 326.218 540.882 314.364 539.016 302.534 538.529 290.145 533.356 279.117 528.851 267.91 521.45 258.158 515.983 247.519 510.34 236.878 504.353 226.293 496.48 217.087 488.367 208.083 478.907 200.485 469.154 193.377 458.323 187.916 449.737 179.139 439.652 172.418 428.117 168.542 417.696 162.145 406.296 157.958 393.699 158.332 382.04 155.835 370.492 152.044 358.402 152.507 346.453 151.526 334.582 153.818 322.554 153.211 310.409 153.326 299.149 158.096 286.999 159.21 276.567 165.725 264.971 168.952 253.891 173.635 244.603 181.512 234.172 187.328 224.203 193.957 213.097 199.474 206.286 209.836 197.054 217.648 188.254 226.063 182.19 236.623 175.037 246.38 168.822 256.775 162.753 267.325 158.717 278.802 155.187 290.399 155.57 302.947 152.054 314.37 148.878 326.007 148.605 338.03 145.818 350" style="fill: none; stroke: #000; stroke-linecap: round; stroke-linejoin: round; stroke-width: 45px;"/>
  <polyline points="120.424 548.931 128.073 539.575 137.512 532.286 147.623 525.769 156.144 517.412 166.041 510.648 174.756 502.521 183.515 494.445 192.285 486.373 201.251 478.534 211.8 472.523 220.741 464.653 227.755 454.558 238.998 449.347 247.529 441.004 256.909 433.639 263.794 423.398 273.426 416.324 282.376 408.463 290.601 399.767 300.636 393.156 308.542 384.092 318.733 377.659 326.509 368.444 336.508 361.79 346.931 355.629 355.664 347.516 363.333 338.175 372.166 330.178 380.823 321.98 390.117 314.525 398.34 305.824 409.368 300.366 418.605 292.837 425.358 282.443 434.984 275.36 443.247 266.707 453.755 260.641 462.748 252.823 471.724 244.989 479.467 235.731 491.045 230.897 497.242 219.85 507.606 213.614 517.245 206.545 523.985 196.131 535.36 191.065 542.801 181.454 552.115 173.999 562.046 167.26 570.875 159.238 580.191 151.778" style="fill: none; stroke: #000; stroke-linecap: round; stroke-linejoin: round; stroke-width: 45px;"/>
</svg>