<?xml version="1.0" encoding="UTF-8"?>
<svg id="LM_Icons" data-name="LM Icons" xmlns="http://www.w3.org/2000/svg" width="700" height="700" viewBox="0 0 700 700">
  <path d="M103.882,403.281c-2.1-1.504-1.106-1.409-.779-3.97.327-2.562,2.545-2.279,2.872-4.84.327-2.562-3.046-2.992-2.719-5.554.327-2.563,4.407-2.042,4.734-4.605.327-2.562-4.573-3.187-4.246-5.749s4.492-2.03,4.819-4.592c.327-2.562-2.557-2.93-2.23-5.492.327-2.563.022-2.602.349-5.165s-.657-2.688-.33-5.25c.327-2.562,5.032-1.962,5.359-4.524.327-2.562-2.184-2.883-1.857-5.445.327-2.563-1.003-2.732-.676-5.295.327-2.56,3.622-2.14,3.948-4.701.327-2.56,2.587-2.271,2.913-4.831.327-2.56-5.13-3.256-4.804-5.816.327-2.561,4.059-2.085,4.385-4.645.327-2.563-2.564-2.931-2.237-5.494.327-2.562-1.785-2.831-1.458-5.393s2.518-2.281,2.844-4.842c.327-2.561-1.541-2.799-1.214-5.359s3.79-2.12,4.117-4.681-2.663-2.945-2.336-5.508c.327-2.562-.322-2.644.005-5.206s2.038-2.343,2.365-4.904c.327-2.562-1.197-2.757-.87-5.319s2.348-2.305,2.675-4.868c.327-2.562,3.719-2.129,4.045-4.691s-4.337-3.157-4.01-5.72c.327-2.563-1.305-2.772-.978-5.335s1.069-2.467,1.396-5.03c.327-2.563.621-2.526.948-5.089.327-2.563,4.705-2.004,5.032-4.567.327-2.563-1.959-2.855-1.632-5.418s3.633-2.141,3.96-4.704c.327-2.564-5.267-3.278-4.94-5.841.327-2.563,5.252-1.935,5.579-4.498.327-2.564-1.645-2.815-1.317-5.379.327-2.564-2.173-2.883-1.846-5.448.327-2.564,4.531-2.028,4.858-4.592.327-2.561-.732-2.697-.406-5.258.327-2.564,1.031-2.474,1.358-5.038s2.462-2.29,2.789-4.852c.327-2.564-2.572-2.933-2.245-5.497.327-2.565,1.781-2.379,2.108-4.944.327-2.565-2.642-2.943-2.315-5.508.327-2.565,1.525-2.412,1.852-4.977.327-2.565,2.713-2.261,3.04-4.826.327-2.564.603-2.529.931-5.093.327-2.566-3.697-3.08-3.37-5.646s2.128-2.338,2.455-4.906-2.964-4.56-.596-5.606c2.352-1.038-.103,5.073,1.983,6.576s4.746-2.195,6.831-.694c2.084,1.5,2.844.445,4.928,1.945,2.083,1.5-.549,5.155,1.534,6.655s5.023-2.583,7.106-1.083,1.231,2.683,3.315,4.183,1.389,2.466,3.473,3.966c2.086,1.502.511,3.689,2.596,5.191,2.086,1.502,2.075,1.517,4.161,3.019,2.085,1.501,2.009,1.606,4.093,3.107,2.084,1.5,2.035,1.568,4.119,3.068s3.93-1.063,6.014.438c2.085,1.501,1.696,2.042,3.78,3.543,2.086,1.502,4.381-1.685,6.468-.183,2.086,1.502,2.482.951,4.568,2.453s-1.852,6.968.233,8.469,4.831-2.313,6.916-.812-1.231,6.107.855,7.609c2.087,1.503,3.561-.544,5.648.959s1.826,1.862,3.912,3.363c2.085,1.501,1.033,2.963,3.118,4.464,2.086,1.502,2.973.271,5.059,1.773,2.087,1.502,4.39-1.697,6.477-.194,2.086,1.502-.886,5.628,1.2,7.13s4.935-2.454,7.021-.952-.039,4.456,2.048,5.958,2.312,1.189,4.398,2.691c2.087,1.503,3.731-.781,5.818.722s1.386,2.475,3.473,3.977c2.087,1.503,3.028.195,5.115,1.698s-.643,5.293,1.444,6.795,3.498-.456,5.585,1.047,2.013,1.604,4.1,3.107c2.087,1.503,4.632-2.031,6.719-.528s-1.691,6.745.393,8.245,4.473-1.812,6.56-.309c2.086,1.502-.079,4.509,2.006,6.01s4.647-2.051,6.734-.548c2.086,1.502-.533,5.14,1.554,6.642,2.087,1.503,5.814-3.673,7.901-2.17,2.088,1.504,1.933,1.72,4.021,3.223,2.088,1.504.62,3.542,2.709,5.046,2.088,1.504-.163,4.63,1.926,6.134,2.088,1.503,2.918.35,5.006,1.853,2.088,1.503,4.536-1.897,6.624-.393s.184,4.151,2.274,5.656,1.22,2.716,3.311,4.222,7.343-.967,7.151,1.603c-.191,2.554-5.314-1.322-7.604-.174-2.289,1.148-1.109,3.501-3.399,4.649-2.29,1.149-3.235-.736-5.525.413-2.29,1.149.246,6.205-2.044,7.354-2.29,1.149-2.861.01-5.151,1.159s-1.739,2.246-4.028,3.395c-2.29,1.149-4.531-3.319-6.821-2.17-2.29,1.149-1.505,2.715-3.795,3.865s-3.29-.852-5.577.295.049,5.806-2.239,6.954-5.277-4.806-7.567-3.658-1.27,3.182-3.56,4.331-.83,4.054-3.119,5.202-1.893,1.935-4.181,3.083-2.39.945-4.677,2.092-5.158-4.572-7.447-3.424.723,7.155-1.568,8.304c-2.29,1.149-2.251,1.227-4.541,2.375s-2.597.533-4.886,1.682c-2.289,1.148-3.505-1.276-5.793-.128s-2.025,1.677-4.314,2.825c-2.291,1.149-4.039-2.335-6.33-1.186s-.924,3.871-3.214,5.019-1.15,3.419-3.439,4.567-4.597-3.449-6.887-2.3c-2.291,1.149.592,6.895-1.699,8.044s-3.958-2.177-6.248-1.028c-2.29,1.149-.896,3.928-3.186,5.077s-5.239-4.726-7.53-3.577-1.598,2.528-3.888,3.677.34,6.394-1.951,7.544-5.144-4.538-7.434-3.389c-2.291,1.149.03,5.776-2.261,6.925-2.291,1.149-2.925-.115-5.216,1.035s-1.522,2.684-3.813,3.833c-2.291,1.149-3.892-2.042-6.183-.892-2.292,1.15-.197,5.326-2.488,6.475s-2.751.235-5.043,1.385c-2.291,1.149-4.314-2.884-6.605-1.735s.256,6.222-2.034,7.371c-2.292,1.15-3.37-1-5.661.15-2.29,1.149-1.854,2.019-4.144,3.168-2.291,1.149-4.316-2.887-6.608-1.737-2.292,1.15-2.25,1.235-4.542,2.385-2.292,1.15-1.465,2.799-3.758,3.949-2.292,1.15-3.113-.485-5.405.665-2.292,1.15-.172,5.374-2.464,6.524-2.292,1.15-2.727.282-5.019,1.432-2.294,1.151-4.389-3.026-6.683-1.875-2.296,1.152-1.238,3.328-3.258,4.914-1.728,1.356-1.691,2.492-3.779.996Z" style="fill: none; stroke: #000; stroke-linecap: round; stroke-linejoin: round; stroke-width: 45px;"/>
  <path d="M273.076,498.34c0,1.703.049,3.408.118,5.094.069,1.701-2.087,3.588-1.949,5.271.139,1.696-.542,3.593-.335,5.268.208,1.688,2.102,3.235,2.378,4.901.278,1.678,2.419,3.037,2.764,4.691.347,1.664,3.587,2.59,4.001,4.228.416,1.648,1.591,2.934,2.073,4.554s-2.174,4.163-1.625,5.763.85,3.285,1.465,4.861.152,3.627.832,5.175,2.756,2.471,3.5,3.991c.746,1.524,4.036,1.643,4.843,3.131.809,1.491,1.835,2.689,2.703,4.143s-.549,4.229.378,5.646c.929,1.419.487,3.767,1.472,5.145s1.863,2.88,2.905,4.216,3.703,1.35,4.799,2.642,3.647,1.181,4.795,2.427c1.148,1.247,2.376,2.231,3.574,3.43,1.198,1.198,2.283,2.318,3.529,3.466s-1.551,6.857-.258,7.953,2.484,2.512,3.821,3.554c1.336,1.041,5.678-1.892,7.057-.906s1.017,4.496,2.436,5.425,2.825,1.981,4.281,2.85,2.981,1.732,4.473,2.541,2.806,2.105,4.33,2.851c1.52.744,4.942-2.626,6.496-1.944s3.397.321,4.979.938,2.064,3.957,3.67,4.509,2.773,2.467,4.401,2.951c1.62.482,2.683,3.349,4.33,3.765,1.638.414,4.447-4.059,6.11-3.712,1.654.345,3.208.925,4.885,1.202,1.666.276,3.43-.624,5.118-.416,1.675.207,3.023,3.278,4.718,3.417,1.682.138,3.326,1.89,5.027,1.959,1.686.069,3.466,1.159,5.169,1.159s3.24-7.055,4.926-7.123c1.701-.069,3.251.038,4.933-.099,1.696-.139,3.555,2.324,5.231,2.117,1.688-.208,3.068-1.99,4.734-2.266,1.678-.278,3.896,2.583,5.55,2.238,1.664-.347,2.968-2.214,4.606-2.628,1.648-.416,4.594,3.678,6.214,3.196s1.236-7.34,2.835-7.889c1.606-.551,5.117,4.103,6.693,3.488s3.708-.276,5.257-.956.719-6.609,2.238-7.353c1.524-.746,3.464-.566,4.952-1.372,1.491-.809,5.335,2.386,6.789,1.518,1.456-.87,1.202-4.647,2.618-5.574s2.211-2.775,3.588-3.76c1.379-.987,1.166-3.983,2.502-5.024s3.447-.981,4.739-2.077,3.049-1.591,4.295-2.739,2.016-2.725,3.214-3.923,4.104-.743,5.252-1.99,3.004-1.945,4.1-3.238c1.095-1.292,2.164-2.705,3.206-4.042s-.934-4.923.052-6.303c.985-1.377,2.334-2.425,3.263-3.844.927-1.417.677-3.472,1.546-4.928s2.51-2.363,3.318-3.855c.807-1.488,2.34-2.543,3.087-4.067.744-1.52,2.45-2.582,3.133-4.136.68-1.549,1.754-2.96,2.372-4.541.615-1.575,1.524-3.085,2.075-4.692.549-1.599.357-3.469.841-5.097s2.596-2.846,3.012-4.493c.414-1.638-.941-3.737-.594-5.4.345-1.654-1.937-3.758-1.659-5.435.276-1.666,2.583-2.988,2.791-4.676.207-1.675-2.99-3.623-2.851-5.319.138-1.682,6.868-2.953,6.937-4.653.069-1.686-6.802-3.5-6.802-5.202s5.866-3.475,5.798-5.161c-.069-1.701-5.156-3.064-5.294-4.746-.139-1.696.75-3.385.543-5.061-.208-1.688,2.694-3.802,2.418-5.468-.278-1.678,1.401-3.808,1.056-5.462-.347-1.664-2.667-2.964-3.08-4.602-.416-1.648-2.867-2.74-3.349-4.361s1.173-3.952.625-5.551c-.551-1.606-5.84-1.425-6.455-3.001s2.186-4.502,1.506-6.05-2.311-2.649-3.056-4.169c-.746-1.524,2.662-5.259,1.856-6.747s-3.032-2.323-3.9-3.777c-.87-1.456-4.693-1.094-5.621-2.51-.929-1.419-1.949-2.717-2.934-4.095s-3.193-1.745-4.234-3.081.256-4.511-.84-5.803-2.863-1.984-4.011-3.23-1.982-2.773-3.181-3.971c-1.198-1.198-1.609-3.244-2.856-4.392-1.246-1.148-5.757,1.487-7.05.39-1.292-1.095,1.364-6.997.027-8.039-1.336-1.041-1.948-3.263-3.328-4.249-1.377-.985-4.988,1.155-6.407.226s-4.127.311-5.583-.558-3.218-.947-4.709-1.756c-1.488-.807-.766-5.816-2.29-6.563-1.52-.744-3.097-1.514-4.651-2.197s-4.496,2.041-6.077,1.423c-1.575-.615-1.6-5.483-3.206-6.035-1.599-.549-4.797,3.913-6.425,3.429s-2.2-4.621-3.848-5.037c-1.638-.414-2.913-2.801-4.577-3.148-1.654-.345-4.252,4.201-5.929,3.923-1.666-.276-2.744-4.73-4.432-4.938-1.675-.207-3.392-1.191-5.087-1.33-1.682-.138-3.535.548-5.236.479-1.686-.069-3.476,2.898-5.179,2.898s-3.525-3.755-5.21-3.687c-1.701.069-2.953,7.123-4.635,7.261-1.696.139-3.39-1.04-5.066-.833-1.688.208-3.546-1.266-5.212-.99-1.678.278-2.955,2.297-4.609,2.642-1.664.347-2.89,1.986-4.529,2.4-1.648.416-4.152-2.622-5.772-2.14s-2.501,3.132-4.1,3.681c-1.606.551-4.536-2.577-6.111-1.961s-3.361.931-4.91,1.612-.742,6.368-2.262,7.112c-1.524.746-3.24.82-4.728,1.627-1.491.809-4.59-1.311-6.044-.443-1.456.87-2.966,1.691-4.383,2.619-1.419.929-.47,5.207-1.848,6.192-1.379.987-6.489-3.048-7.824-2.006-1.337,1.042-1.771,3.328-3.063,4.423s-3.349,1.443-4.595,2.591c-1.247,1.148.279,5.208-.919,6.407-1.198,1.198-1.342,3.279-2.49,4.526s-4.926.106-6.022,1.399-4.092,1.138-5.135,2.475-2.23,2.724-3.217,4.103c-.985,1.377,1.288,5.048.359,6.467-.927,1.417-4.065,1.48-4.935,2.936s3.035,5.585,2.226,7.077c-.807,1.488-2.381,2.439-3.127,3.963s-3.16,2.191-3.843,3.745-1.604,2.976-2.222,4.557-2.607,2.665-3.159,4.272,2.09,4.199,1.606,5.827c-.482,1.62-3.801,2.435-4.217,4.082-.414,1.638-.349,3.416-.696,5.08-.345,1.654,1.31,3.659,1.032,5.336-.276,1.666-2.61,3.015-2.818,4.704-.207,1.675-3.555,3.12-3.693,4.815-.138,1.682,5.185,3.743,5.116,5.444-.069,1.686-2.21,3.307-2.21,5.009Z" style="fill: none; stroke: #000; stroke-linecap: round; stroke-linejoin: round; stroke-width: 45px;"/>
  <path d="M614.928,112.526c-1.467-.901-4.034.282-5.518-.553-1.5-.844-1.896-3.502-3.412-4.28-1.531-.786-3.09-1.343-4.635-2.061-1.559-.725-2.361-3.06-3.933-3.719-1.586-.664-3.708.127-5.306-.469-1.61-.601-2.634-2.771-4.254-3.305-1.632-.538-4.31,2.56-5.95,2.088-1.651-.474-2.751-2.591-4.409-2.999-1.667-.41-2.85-2.817-4.522-3.16-1.681-.345-3.572.526-5.257.247s-3.204-1.697-4.899-1.913-3.169-3.154-4.871-3.306c-1.709-.152-3.746,3.928-5.453,3.84s-3.395.854-5.104.829-3.325,1.031-5.033,1.069c-1.714.037-3.675-6.219-5.382-6.121s-3.114,4.667-4.816,4.827-3.116,2.232-4.812,2.452-3.952-3.596-5.639-3.317c-1.692.28-3.236,1.431-4.912,1.769-1.681.339-3.905-1.61-5.568-1.214-1.668.397-2.864,2.815-4.512,3.268s-3.289,1.001-4.92,1.511-3.27,1.056-4.883,1.621-4.403-1.838-5.995-1.218c-1.599.623-3.195,1.55-4.765,2.225s-1.542,5.029-3.087,5.758-5.122-2.517-6.641-1.735c-1.526.786.064,7.393-1.426,8.228-1.497.84-4.693-1.312-6.152-.424-1.467.893-1.75,3.616-3.175,4.556-1.434.946-3.174,1.36-4.563,2.352-1.398.998-1.4,3.742-2.751,4.785-1.359,1.05-4.38-.078-5.689,1.016-1.318,1.102-3.641,1.071-4.906,2.217-1.273,1.153.11,5.076-1.107,6.271-1.225,1.205-4.671.18-5.836,1.426-1.174,1.255.625,5.088-.485,6.383-1.118,1.304-7.302-1.545-8.353-.202-1.058,1.353-1.224,3.525-2.211,4.916-.994,1.401,1.67,5.262.75,6.699-.926,1.446-4.498,1.248-5.345,2.73-.852,1.49-1.368,3.202-2.137,4.726-.782,1.548-3.496,2.281-4.194,3.865s-.591,3.633-1.205,5.252,2.903,4.671,2.373,6.32c-.53,1.649-7.196,1.536-7.643,3.21-.446,1.673.639,3.878.275,5.573-.363,1.693,2.393,4.018,2.112,5.729-.28,1.708-3.964,2.991-4.163,4.713-.199,1.719,2.939,3.798,2.821,5.528s.479,3.446.44,5.179c-.038,1.73-.124,3.408-.083,5.141s-.776,3.47-.657,5.199c.118,1.727-2.852,3.794-2.657,5.517s3.192,3.128,3.463,4.84-.922,3.724-.576,5.423,6.095,2.12,6.515,3.802c.419,1.679-6.482,5.356-5.989,7.018.492,1.66,8.177,1.014,8.742,2.653.564,1.636-4.814,5.444-4.177,7.056s4.081,2.093,4.789,3.675c.706,1.58-1.373,4.541-.596,6.09.776,1.547,5.538,1.011,6.384,2.525s3.609,1.743,4.523,3.217c.912,1.471-2.204,5.484-1.223,6.915.978,1.427,1.122,3.537,2.167,4.921s1.628,3.264,2.738,4.598c1.106,1.33,3.904,1.286,5.076,2.566,1.167,1.275,2.809,2.114,4.041,3.337s2.083,2.847,3.374,4.01c1.283,1.156,2.043,3.003,3.388,4.101,1.337,1.092,1.744,3.573,3.142,4.605,1.388,1.025,5.985-2.483,7.433-1.52,1.436.955,2.491,2.339,3.985,3.23,1.48.883,2.867,1.777,4.404,2.595,1.521.809,2.913,1.727,4.489,2.469,1.558.733,1.091,6.213,2.703,6.879,1.578.652,5.84-5.713,7.424-5.148,1.607.573,1.702,5.48,3.313,5.966,1.633.492,3.792-1.002,5.427-.598,1.655.409,3.123,1.431,4.778,1.751,1.672.324,3.669-1.868,5.339-1.633,1.685.238,2.655,6.732,4.336,6.882,1.694.151,3.755-4.888,5.442-4.824,1.699.065,3.366,5.059,5.056,5.038,1.699-.021,3.427-2.096,5.114-2.202s3.719,2.186,5.4,1.996,2.819-4.882,4.489-5.154,3.141-1.323,4.796-1.677c1.659-.354,4.326,3.408,5.963,2.976s1.398-7.252,3.013-7.761,3.471.155,5.061-.429c1.591-.584,5.485,4.626,7.046,3.97,1.562-.657.324-7.595,1.854-8.322s4.408,1.392,5.905.598c1.497-.795,2.843-1.841,4.303-2.7,1.46-.86,4.166.221,5.586-.702,1.421-.923,2.654-2.263,4.033-3.247,1.379-.985,2.805-2.025,4.14-3.068,1.335-1.044-.606-6.034.681-7.134,1.289-1.101,6.066,1.759,7.305.604s-1.443-6.28-.256-7.488,3.182-1.476,4.314-2.735c1.134-1.26,5.902.608,6.978-.7s2.298-2.646,3.314-4-.075-4.291.879-5.69c.955-1.401,2.34-2.534,3.229-3.975.89-1.443-.312-4.071.509-5.553.232-.419,3.634-.6,5.108-2.979.774-1.25,3.184-2.073,4.035-3.816.693-1.419,2.867-2.709,3.501-4.434.559-1.522-1.042-4.109-.601-5.856.401-1.591,3.079-3.109,3.328-4.877.23-1.634-7.43-4.015-7.371-5.793.055-1.653,3.385-3.19,3.258-4.961-.118-1.651,3.154-3.893,2.85-5.641-.283-1.63-2.238-3.153-2.705-4.864-.435-1.597.107-3.742-.505-5.407-.572-1.555-1.739-3.118-2.481-4.729-.693-1.506-3.144-2.276-3.997-3.829-.8-1.455-5.167-.722-6.117-2.217-.91-1.432,1.352-4.858.367-6.222-.993-1.375-.772-3.721-1.836-5.025-1.071-1.313-4.333-.726-5.471-1.967-1.145-1.248-1.747-2.936-2.956-4.109-1.215-1.18-4.506.099-5.779-1.003-1.281-1.109,1.622-7.284.288-8.312-1.342-1.034-3.352-1.366-4.742-2.316-1.398-.957-5.752,2.781-7.194,1.91-1.45-.876.547-7.824-.941-8.611-1.498-.792-3.278-1.431-4.808-2.131-1.541-.705-3.377-1.154-4.946-1.764-1.58-.615-4.38,2.007-5.981,1.491-1.614-.521-3.861,1.563-5.491,1.144-1.643-.422-1.93-6.851-3.582-7.168-1.666-.32-3.715.863-5.384.653-1.683-.212-3.678,3.166-5.357,3.067-1.693-.1-3.249-.485-4.931-.467-1.695.017-3.627-4.291-5.304-4.153-1.688.14-3.426,1.285-5.089,1.55-1.672.266-3.413.859-5.052,1.254s-3.194,1.501-4.797,2.029c-1.603.528-4.245-1.161-5.8-.499-1.55.66-1.34,5.282-2.835,6.078-1.484.791-3.98-.079-5.403.848-1.406.916-2.353,2.616-3.691,3.667-1.356,1.065-4.427.372-5.645,1.537-1.244,1.19.409,5.232-.692,6.512-1.121,1.303-.839,3.459-1.811,4.841-.988,1.405-7.306-.516-8.141.954-.848,1.492,4.45,6.129,3.758,7.672-.702,1.567-.731,3.048-1.272,4.649-.55,1.627-4.051,2.206-4.435,3.851-.391,1.674-1.68,3.187-1.9,4.861-.225,1.706-.931,3.456-.98,5.141-.05,1.722,1.732,3.42,1.865,5.099.137,1.719-2.476,3.91-2.148,5.561.336,1.692,4.536,2.394,5.072,3.989.549,1.633-.565,3.855.193,5.361.772,1.535,1.667,3.052,2.655,4.426.998,1.386,1.187,3.709,2.403,4.901,1.209,1.185,5.838-2.069,7.262-1.105,1.549,1.049,1.429,4.017,3.021,4.686,1.68.706,2.712,3.717,4.464,4.02,1.737.3,3.882,1.371,5.715,1.296,1.722-.07,2.985-4.721,4.813-5.104,1.672-.351,4.135,2.098,5.914,1.498,1.619-.546,3.859-.079,5.579-.821,1.575-.679,1.876-4.365,3.546-5.2,1.54-.77,5.387,2.579,7.015,1.681,1.515-.835-.099-7.322,1.498-8.262,1.497-.881,5.679,2.596,7.253,1.627" style="fill: none; stroke: #000; stroke-linecap: round; stroke-linejoin: round; stroke-width: 45px;"/>
</svg>