<?xml version="1.0" encoding="UTF-8"?>
<svg id="Sticker" xmlns="http://www.w3.org/2000/svg" width="500" height="500" viewBox="0 0 500 500">
  <polygon points="249.292 255.172 253.074 254.853 257.151 252.814 259.961 257.08 263.613 257.109 267.396 256.209 270.557 259.326 274.195 259.344 277.699 260.401 281.681 257.04 284.938 260.511 288.768 257.61 291.895 264.754 295.576 264.354 299.225 264.555 302.986 256.64 306.532 262.102 310.053 257.678 313.814 263.02 317.082 256.805 320.671 257.521 324.258 257.838 328.447 262.58 332.025 261.679 334.685 255.822 337.885 253.945 343.389 261.827 346.444 258.791 347.884 251.104 351.686 251.513 354.26 248.555 360.431 253.907 362.965 250.67 366.982 250.349 366.953 243.387 372.715 245.541 376.007 243.753 376.813 238.997 383.247 240.637 379.435 231.523 385.989 232.861 390.388 231.812 392.581 228.774 391.328 223.184 398.17 223.596 397.747 218.818 395.898 213.359 396.146 209.396 404.866 210.198 402.968 205.038 405.577 202.305 404.977 198.022 406.241 194.666 411.658 193.049 411.237 188.944 409.972 184.601 414.545 182.424 415.484 178.901 418.281 175.976 416.153 171.526 418.3 168.381 423.024 165.873 424.021 162.321 422.501 158.19 423.103 154.588 423.556 150.962 426.015 147.683 421.745 140.251 418.678 141.135 415.8 143.223 413.647 148.487 410.76 152.014 407.232 153.193 402.437 146.921 398.929 147.011 395.695 149.393 392.358 151.848 388.671 150.274 385.113 149.851 381.639 154.642 378.029 152.151 374.508 150.345 371.164 146.809 367.311 151.625 363.648 152.309 360.06 151.993 357.02 147.735 353.262 148.904 349.997 146.973 346.734 145.28 342.392 148.671 339.371 145.835 336.434 142.985 332.017 145.746 328.95 143.445 326.277 139.816 320.969 144.861 318.318 141.185 314.816 140.266 311.591 138.501 309.009 134.836 304.038 138.305 302.903 130.474 296.852 136.992 295.987 128.466 290.346 133.75 289.284 125.731 283.186 132.541 280.572 129.047 278.148 124.689 273.984 126.06 270.016 127.228 267.514 121.879 263.966 120.44 259.999 122.872 256.402 122.807 252.446 119.783 249.446 124.442 245.297 122.971 242.272 125.422 237.127 123.301 236.541 129.926 234.275 132.916 228.629 131.101 228.412 136.801 221.731 134.49 219.009 137.209 215.995 139.651 216.505 145.153 217.065 150.16 208.054 148.256 211.931 155.133 207.681 156.903 204.205 159.382 206.751 164.459 201.961 166.649 203.895 171.079 202.186 174.402 198.124 177.46 197.629 181.266 197.118 185.088 199.604 188.93 201.411 191.617 196.973 193.737 193.859 191.446 189.915 193.651 187.228 184.723 183.092 191.478 179.586 192.973 175.625 186.195 172.412 191.223 168.707 190.838 165.385 192.529 162.509 195.353 159.453 197.082 155.719 197.072 151.231 195.906 149.361 200.061 143.932 198.069 143.956 204.608 138.462 203.241 133.742 203.278 131.275 206.171 127.922 208.177 127.291 212.753 122.931 214.153 122.135 218.311 121.696 222.364 125.116 227.563 118.027 228.975 123.534 233.779 119.889 236.7 116.795 240.083 120.909 243.775 118.989 247.344 120.461 250.86 119.427 254.508 118.76 258.167 124.108 261.327 123.856 264.948 122.46 268.683 118.667 272.64 124.147 275.776 120.987 279.667 116.567 283.629 120.846 286.903 123.186 290.349 118.241 294.277 121.885 297.661 122.32 301.249 126.747 304.672 121.631 308.436 123.948 311.962 123.366 315.54 127.485 319.228 123.496 322.699 119.378 326.019 123.406 329.873 119.969 333.121 122.024 336.926 120.858 340.366 118.419 343.564 124.229 348.241 116.225 350.286 121.899 355.213 114.601 357.081 113.575 360.417 115.309 364.609 111.095 366.93 111.26 370.689 114.776 375.874 108.382 377.078 105.699 379.67 108.96 385.191 103.111 386.086 100.421 388.475 106.155 396.366 96.409 398.078 103.598 396.554 107.442 392.27 110.963 392.56 114.5 392.651 118.027 397.788 121.638 396.635 125.132 392.694 128.855 396.483 132.563 398.049 136.021 395.682 139.758 396.927 143.016 393.485 146.488 392.489 149.863 391.001 154.204 395.316 157.071 390.992 160.582 390.385 165.267 394.63 167.857 390.056 172.553 393.32 176.519 393.563 177.268 384.421 183.566 391.015 184.273 383.007 186.757 379.949 192.864 384.402 194.733 380.11 198.866 380.034 202.046 378.199 202.185 372.044 210.273 376.828 208.987 369.379 215.578 371.243 216.72 367.069 218.134 363.407 220.813 360.908 219.298 355.314 227.975 356.936 222.236 349 227.3 347.917 231.47 346.069 228.723 340.665 230.682 337.692 230.066 333.6 238.756 333.25 237.283 328.802 237.756 325.152 242.946 323.019 236.178 317.205 242.098 315.168 239.944 310.892 240.578 307.381 245.529 304.812 244.047 300.811 243.2 296.999 246.416 293.921 243.105 289.756 243.128 286.172 243.245 282.612 249.506 279.754 247.095 275.872 249.76 272.506 250.259 268.918 253.146 265.464 245.009 261.449 249.273 258.039 249.292 255.172" style="fill: #fff;"/>
  <polygon points="249.292 255.172 253.074 254.853 257.151 252.814 259.961 257.08 263.613 257.109 267.396 256.209 270.557 259.326 274.195 259.344 277.699 260.401 281.681 257.04 284.938 260.511 288.768 257.61 291.895 264.754 295.576 264.354 299.225 264.555 302.986 256.64 306.532 262.102 310.053 257.678 313.814 263.02 317.082 256.805 320.671 257.521 324.258 257.838 328.447 262.58 332.025 261.679 334.685 255.822 337.885 253.945 343.389 261.827 346.444 258.791 347.884 251.104 351.686 251.513 354.26 248.555 360.431 253.907 362.965 250.67 366.982 250.349 366.953 243.387 372.715 245.541 376.007 243.753 376.813 238.997 383.247 240.637 379.435 231.523 385.989 232.861 390.388 231.812 392.581 228.774 391.328 223.184 398.17 223.596 397.747 218.818 395.898 213.359 396.146 209.396 404.866 210.198 402.968 205.038 405.577 202.305 404.977 198.022 406.241 194.666 411.658 193.049 411.237 188.944 409.972 184.601 414.545 182.424 415.484 178.901 418.281 175.976 416.153 171.526 418.3 168.381 423.024 165.873 424.021 162.321 422.501 158.19 423.103 154.588 423.556 150.962 426.015 147.683 421.745 140.251 418.678 141.135 415.8 143.223 413.647 148.487 410.76 152.014 407.232 153.193 402.437 146.921 398.929 147.011 395.695 149.393 392.358 151.848 388.671 150.274 385.113 149.851 381.639 154.642 378.029 152.151 374.508 150.345 371.164 146.809 367.311 151.625 363.648 152.309 360.06 151.993 357.02 147.735 353.262 148.904 349.997 146.973 346.734 145.28 342.392 148.671 339.371 145.835 336.434 142.985 332.017 145.746 328.95 143.445 326.277 139.816 320.969 144.861 318.318 141.185 314.816 140.266 311.591 138.501 309.009 134.836 304.038 138.305 302.903 130.474 296.852 136.992 295.987 128.466 290.346 133.75 289.284 125.731 283.186 132.541 280.572 129.047 278.148 124.689 273.984 126.06 270.016 127.228 267.514 121.879 263.966 120.44 259.999 122.872 256.402 122.807 252.446 119.783 249.446 124.442 245.297 122.971 242.272 125.422 237.127 123.301 236.541 129.926 234.275 132.916 228.629 131.101 228.412 136.801 221.731 134.49 219.009 137.209 215.995 139.651 216.505 145.153 217.065 150.16 208.054 148.256 211.931 155.133 207.681 156.903 204.205 159.382 206.751 164.459 201.961 166.649 203.895 171.079 202.186 174.402 198.124 177.46 197.629 181.266 197.118 185.088 199.604 188.93 201.411 191.617 196.973 193.737 193.859 191.446 189.915 193.651 187.228 184.723 183.092 191.478 179.586 192.973 175.625 186.195 172.412 191.223 168.707 190.838 165.385 192.529 162.509 195.353 159.453 197.082 155.719 197.072 151.231 195.906 149.361 200.061 143.932 198.069 143.956 204.608 138.462 203.241 133.742 203.278 131.275 206.171 127.922 208.177 127.291 212.753 122.931 214.153 122.135 218.311 121.696 222.364 125.116 227.563 118.027 228.975 123.534 233.779 119.889 236.7 116.795 240.083 120.909 243.775 118.989 247.344 120.461 250.86 119.427 254.508 118.76 258.167 124.108 261.327 123.856 264.948 122.46 268.683 118.667 272.64 124.147 275.776 120.987 279.667 116.567 283.629 120.846 286.903 123.186 290.349 118.241 294.277 121.885 297.661 122.32 301.249 126.747 304.672 121.631 308.436 123.948 311.962 123.366 315.54 127.485 319.228 123.496 322.699 119.378 326.019 123.406 329.873 119.969 333.121 122.024 336.926 120.858 340.366 118.419 343.564 124.229 348.241 116.225 350.286 121.899 355.213 114.601 357.081 113.575 360.417 115.309 364.609 111.095 366.93 111.26 370.689 114.776 375.874 108.382 377.078 105.699 379.67 108.96 385.191 103.111 386.086 100.421 388.475 106.155 396.366 96.409 398.078 103.598 396.554 107.442 392.27 110.963 392.56 114.5 392.651 118.027 397.788 121.638 396.635 125.132 392.694 128.855 396.483 132.563 398.049 136.021 395.682 139.758 396.927 143.016 393.485 146.488 392.489 149.863 391.001 154.204 395.316 157.071 390.992 160.582 390.385 165.267 394.63 167.857 390.056 172.553 393.32 176.519 393.563 177.268 384.421 183.566 391.015 184.273 383.007 186.757 379.949 192.864 384.402 194.733 380.11 198.866 380.034 202.046 378.199 202.185 372.044 210.273 376.828 208.987 369.379 215.578 371.243 216.72 367.069 218.134 363.407 220.813 360.908 219.298 355.314 227.975 356.936 222.236 349 227.3 347.917 231.47 346.069 228.723 340.665 230.682 337.692 230.066 333.6 238.756 333.25 237.283 328.802 237.756 325.152 242.946 323.019 236.178 317.205 242.098 315.168 239.944 310.892 240.578 307.381 245.529 304.812 244.047 300.811 243.2 296.999 246.416 293.921 243.105 289.756 243.128 286.172 243.245 282.612 249.506 279.754 247.095 275.872 249.76 272.506 250.259 268.918 253.146 265.464 245.009 261.449 249.273 258.039 249.292 255.172" style="fill: none; stroke: #000; stroke-linecap: round; stroke-linejoin: round; stroke-width: 40px;"/>
</svg>