<?xml version="1.0" encoding="UTF-8"?>
<svg id="Sticker" xmlns="http://www.w3.org/2000/svg" width="500" height="500" viewBox="0 0 500 500">
  <polygon points="114.952 417.219 110.566 413.18 107.765 409.556 109.897 405.933 113.772 402.311 111.877 398.688 114.903 395.07 113.773 391.452 111.676 387.834 106.239 384.214 107.64 380.592 110.246 376.967 114.114 373.344 114.475 369.724 106.943 366.104 109.395 362.484 107.182 358.864 107.625 355.242 110.175 351.618 109.095 347.994 106.151 344.371 112.608 340.75 113.966 337.129 111.489 333.506 111.684 329.881 108.801 326.256 107.149 322.634 105.852 319.011 112.219 315.387 105.231 311.76 109.69 308.136 115.021 304.513 105.934 300.888 113.045 297.262 108.548 293.638 107.593 290.013 110.74 286.386 112.979 282.761 106.412 279.135 113.07 275.509 105.74 271.883 112.48 268.257 114.243 264.63 112.141 261.003 112.591 257.377 112.189 253.755 113.561 250.129 109.289 246.504 110.204 242.877 106.473 239.251 109.421 235.624 109.908 231.995 111.222 228.366 107.673 224.737 110.003 221.109 109.12 217.481 113.714 213.851 108.785 210.216 113.442 208.093 115.652 207.563 113.115 199.223 120.868 202.709 120.838 197.244 123.3 194.641 127.263 193.765 131.121 192.772 134.41 191.127 135.493 186.945 138.5 184.976 137.605 178.518 144.578 181.101 144.198 175.23 147.705 173.831 150.037 171.083 154.68 170.993 155.066 166.005 157.319 163.161 161.274 162.274 162.952 158.773 167.732 158.836 168.224 153.969 174.673 155.947 177.09 153.293 177.079 147.847 182.636 148.803 179.693 139.983 185.585 141.323 187.141 137.677 189.124 134.521 190.467 130.631 198 133.854 199.641 130.316 200.873 126.298 202.727 122.996 207.13 122.63 208.173 118.397 211.67 116.98 216.572 117.182 218.122 113.527 219.132 109.253 226.038 111.751 226.384 106.712 230.158 105.611 231.896 102.167 234.538 99.774 233.482 93.122 237.116 91.855 238.806 88.353 244.848 89.853 248.582 88.691 250.004 86.464 255.699 83.739 258.15 86.346 255.46 94.868 257.889 97.507 263.527 96.458 263.027 102.467 266.774 103.588 268.495 107.037 271.648 108.84 275.913 109.364 276.674 113.92 282.623 112.515 283.673 116.743 288.805 116.273 287.633 123.052 294.416 120.682 298.111 121.866 299.321 125.91 304.059 125.898 301.11 134.722 303.985 136.848 308.185 137.453 310.511 140.217 316.88 138.328 318.75 141.611 320.61 144.909 320.641 150.31 323.505 152.452 329.367 151.147 332.997 152.411 333.05 157.786 337.662 157.921 341.755 158.641 342.053 163.735 341.912 169.331 344.877 171.352 346.903 174.456 351.113 175.055 356.651 174.12 358.796 177.094 362.975 177.725 364.818 181.048 368.497 182.257 368.756 187.4 368.199 193.485 373.187 193.181 375.684 195.75 381.935 194.007 382.365 198.959 381.932 204.905 385.565 206.184 388.307 207.331 391.475 210.205 394.119 213.828 393.26 217.451 386.645 221.074 387.014 224.697 392.953 228.315 390.122 231.932 393.342 235.551 394.16 239.17 387.322 242.792 391.327 246.417 392.159 250.04 385.344 253.661 390.963 257.281 384.994 260.9 387.427 264.521 392.132 268.142 388.139 271.766 385.363 275.391 387.425 279.013 387.018 282.635 390.071 286.256 385.75 289.879 390.346 293.504 391.358 297.128 387.716 300.751 393.389 304.374 386.777 307.997 392.21 311.624 387.458 315.248 391.484 318.872 387.743 322.496 385.922 326.123 391.268 329.747 388.78 333.372 392.377 336.998 391.265 340.623 387.907 344.25 391.97 347.875 394.283 351.502 389.937 355.128 386.713 358.755 391.239 362.381 390.658 366.007 387.233 369.629 390.563 373.256 394.271 376.88 393.221 380.508 390.712 384.133 389.55 387.761 389.025 391.39 385.026 395.019 389.66 398.648 391.943 402.276 390.589 405.904 392.222 409.533 393.165 413.169 392.813 419.66 386.319 419.271 382.672 421.639 379.026 416.463 375.38 412.025 371.732 414.202 368.085 412.268 364.437 412.322 360.79 417.215 357.143 415.348 353.495 417.244 349.847 412.868 346.199 412.41 342.551 412.464 338.908 418.632 335.26 412.884 331.614 415.571 327.965 413.884 324.318 421.667 320.669 419.981 317.019 419.106 313.369 419.438 309.718 416.468 306.069 418.417 302.419 415.574 298.768 414.626 295.111 418.137 291.865 416.386 295.074 413.211 286.868 409.616 293.971 406.02 294.847 402.427 295.622 398.834 292.495 395.242 294.172 391.648 294.071 388.051 296.386 384.456 290.522 380.862 290.397 377.268 287.468 373.673 287.954 370.075 294.612 366.48 286.925 362.886 296.282 359.29 289.191 355.692 291.871 352.097 294.715 348.501 294.44 344.903 289.372 341.307 294.486 337.71 295.726 334.113 292.565 330.515 296.172 326.918 287.905 323.32 290.418 319.726 288.994 316.129 287.919 312.535 295.255 308.938 294.385 305.342 295.007 301.743 293.576 298.146 292.665 294.547 295.027 290.947 296.436 287.346 288.86 283.746 295.211 280.147 294.239 276.547 288.846 272.946 291.964 269.34 289.1 268.069 287.876 269.169 284.297 268.7 280.719 269.891 277.139 264.114 273.561 268.235 269.981 261.002 266.402 266.492 262.822 263.28 259.247 264.68 255.667 260.814 252.092 262.651 248.512 265.171 244.934 264.117 241.353 268.736 237.775 261.008 234.194 261.636 230.612 266.515 227.03 264.535 223.447 268.981 219.866 264.751 216.284 262.859 212.702 269.578 209.113 263.33 205.284 265.493 204.038 269.326 205.171 272.921 200.852 276.517 203.5 280.11 207.28 283.703 200.861 287.295 203.027 290.889 206.581 294.485 206.066 298.081 207.399 301.675 203.057 305.269 203.665 308.864 201.771 312.462 201.333 316.057 206.022 319.651 204.161 323.247 202.934 326.844 205.925 330.44 200.59 334.036 208.823 337.634 207.503 341.23 202.449 344.827 210.1 348.424 209.382 352.022 206.899 355.619 209.483 359.217 204.362 362.81 206.942 366.408 205.946 370.002 202.993 373.599 208.749 377.195 204.465 380.794 207.756 384.391 205.041 387.99 202.126 391.59 203.645 395.191 207.609 398.791 203.907 402.39 210.207 405.99 201.494 409.591 204.904 413.197 203.582 416.116 201.99 417.14 198.453 418.22 194.916 418.516 191.381 415.863 187.847 414.253 184.311 414.049 180.775 416.948 177.238 417.708 173.704 416.68 170.168 414.477 166.631 416.533 163.092 421.681 159.554 418.848 156.013 413.691 152.469 421.153 148.925 415.869 145.384 419.602 141.843 415.652 138.303 416.739 134.76 412.795 131.218 415.813 127.68 420.486 124.138 411.934 120.597 418.269 117.06 417.355 113.517 417.763 114.952 417.219" style="fill: #fff;"/>
  <polygon points="114.952 417.219 110.566 413.18 107.765 409.556 109.897 405.933 113.772 402.311 111.877 398.688 114.903 395.07 113.773 391.452 111.676 387.834 106.239 384.214 107.64 380.592 110.246 376.967 114.114 373.344 114.475 369.724 106.943 366.104 109.395 362.484 107.182 358.864 107.625 355.242 110.175 351.618 109.095 347.994 106.151 344.371 112.608 340.75 113.966 337.129 111.489 333.506 111.684 329.881 108.801 326.256 107.149 322.634 105.852 319.011 112.219 315.387 105.231 311.76 109.69 308.136 115.021 304.513 105.934 300.888 113.045 297.262 108.548 293.638 107.593 290.013 110.74 286.386 112.979 282.761 106.412 279.135 113.07 275.509 105.74 271.883 112.48 268.257 114.243 264.63 112.141 261.003 112.591 257.377 112.189 253.755 113.561 250.129 109.289 246.504 110.204 242.877 106.473 239.251 109.421 235.624 109.908 231.995 111.222 228.366 107.673 224.737 110.003 221.109 109.12 217.481 113.714 213.851 108.785 210.216 113.442 208.093 115.652 207.563 113.115 199.223 120.868 202.709 120.838 197.244 123.3 194.641 127.263 193.765 131.121 192.772 134.41 191.127 135.493 186.945 138.5 184.976 137.605 178.518 144.578 181.101 144.198 175.23 147.705 173.831 150.037 171.083 154.68 170.993 155.066 166.005 157.319 163.161 161.274 162.274 162.952 158.773 167.732 158.836 168.224 153.969 174.673 155.947 177.09 153.293 177.079 147.847 182.636 148.803 179.693 139.983 185.585 141.323 187.141 137.677 189.124 134.521 190.467 130.631 198 133.854 199.641 130.316 200.873 126.298 202.727 122.996 207.13 122.63 208.173 118.397 211.67 116.98 216.572 117.182 218.122 113.527 219.132 109.253 226.038 111.751 226.384 106.712 230.158 105.611 231.896 102.167 234.538 99.774 233.482 93.122 237.116 91.855 238.806 88.353 244.848 89.853 248.582 88.691 250.004 86.464 255.699 83.739 258.15 86.346 255.46 94.868 257.889 97.507 263.527 96.458 263.027 102.467 266.774 103.588 268.495 107.037 271.648 108.84 275.913 109.364 276.674 113.92 282.623 112.515 283.673 116.743 288.805 116.273 287.633 123.052 294.416 120.682 298.111 121.866 299.321 125.91 304.059 125.898 301.11 134.722 303.985 136.848 308.185 137.453 310.511 140.217 316.88 138.328 318.75 141.611 320.61 144.909 320.641 150.31 323.505 152.452 329.367 151.147 332.997 152.411 333.05 157.786 337.662 157.921 341.755 158.641 342.053 163.735 341.912 169.331 344.877 171.352 346.903 174.456 351.113 175.055 356.651 174.12 358.796 177.094 362.975 177.725 364.818 181.048 368.497 182.257 368.756 187.4 368.199 193.485 373.187 193.181 375.684 195.75 381.935 194.007 382.365 198.959 381.932 204.905 385.565 206.184 388.307 207.331 391.475 210.205 394.119 213.828 393.26 217.451 386.645 221.074 387.014 224.697 392.953 228.315 390.122 231.932 393.342 235.551 394.16 239.17 387.322 242.792 391.327 246.417 392.159 250.04 385.344 253.661 390.963 257.281 384.994 260.9 387.427 264.521 392.132 268.142 388.139 271.766 385.363 275.391 387.425 279.013 387.018 282.635 390.071 286.256 385.75 289.879 390.346 293.504 391.358 297.128 387.716 300.751 393.389 304.374 386.777 307.997 392.21 311.624 387.458 315.248 391.484 318.872 387.743 322.496 385.922 326.123 391.268 329.747 388.78 333.372 392.377 336.998 391.265 340.623 387.907 344.25 391.97 347.875 394.283 351.502 389.937 355.128 386.713 358.755 391.239 362.381 390.658 366.007 387.233 369.629 390.563 373.256 394.271 376.88 393.221 380.508 390.712 384.133 389.55 387.761 389.025 391.39 385.026 395.019 389.66 398.648 391.943 402.276 390.589 405.904 392.222 409.533 393.165 413.169 392.813 419.66 386.319 419.271 382.672 421.639 379.026 416.463 375.38 412.025 371.732 414.202 368.085 412.268 364.437 412.322 360.79 417.215 357.143 415.348 353.495 417.244 349.847 412.868 346.199 412.41 342.551 412.464 338.908 418.632 335.26 412.884 331.614 415.571 327.965 413.884 324.318 421.667 320.669 419.981 317.019 419.106 313.369 419.438 309.718 416.468 306.069 418.417 302.419 415.574 298.768 414.626 295.111 418.137 291.865 416.386 295.074 413.211 286.868 409.616 293.971 406.02 294.847 402.427 295.622 398.834 292.495 395.242 294.172 391.648 294.071 388.051 296.386 384.456 290.522 380.862 290.397 377.268 287.468 373.673 287.954 370.075 294.612 366.48 286.925 362.886 296.282 359.29 289.191 355.692 291.871 352.097 294.715 348.501 294.44 344.903 289.372 341.307 294.486 337.71 295.726 334.113 292.565 330.515 296.172 326.918 287.905 323.32 290.418 319.726 288.994 316.129 287.919 312.535 295.255 308.938 294.385 305.342 295.007 301.743 293.576 298.146 292.665 294.547 295.027 290.947 296.436 287.346 288.86 283.746 295.211 280.147 294.239 276.547 288.846 272.946 291.964 269.34 289.1 268.069 287.876 269.169 284.297 268.7 280.719 269.891 277.139 264.114 273.561 268.235 269.981 261.002 266.402 266.492 262.822 263.28 259.247 264.68 255.667 260.814 252.092 262.651 248.512 265.171 244.934 264.117 241.353 268.736 237.775 261.008 234.194 261.636 230.612 266.515 227.03 264.535 223.447 268.981 219.866 264.751 216.284 262.859 212.702 269.578 209.113 263.33 205.284 265.493 204.038 269.326 205.171 272.921 200.852 276.517 203.5 280.11 207.28 283.703 200.861 287.295 203.027 290.889 206.581 294.485 206.066 298.081 207.399 301.675 203.057 305.269 203.665 308.864 201.771 312.462 201.333 316.057 206.022 319.651 204.161 323.247 202.934 326.844 205.925 330.44 200.59 334.036 208.823 337.634 207.503 341.23 202.449 344.827 210.1 348.424 209.382 352.022 206.899 355.619 209.483 359.217 204.362 362.81 206.942 366.408 205.946 370.002 202.993 373.599 208.749 377.195 204.465 380.794 207.756 384.391 205.041 387.99 202.126 391.59 203.645 395.191 207.609 398.791 203.907 402.39 210.207 405.99 201.494 409.591 204.904 413.197 203.582 416.116 201.99 417.14 198.453 418.22 194.916 418.516 191.381 415.863 187.847 414.253 184.311 414.049 180.775 416.948 177.238 417.708 173.704 416.68 170.168 414.477 166.631 416.533 163.092 421.681 159.554 418.848 156.013 413.691 152.469 421.153 148.925 415.869 145.384 419.602 141.843 415.652 138.303 416.739 134.76 412.795 131.218 415.813 127.68 420.486 124.138 411.934 120.597 418.269 117.06 417.355 113.517 417.763 114.952 417.219" style="fill: none; stroke: #000; stroke-linecap: round; stroke-linejoin: round; stroke-width: 35px;"/>
</svg>