<?xml version="1.0" encoding="UTF-8"?>
<svg id="Sticker" xmlns="http://www.w3.org/2000/svg" width="500" height="500" viewBox="0 0 500 500">
  <g>
    <polygon points="377.462 134.021 382.727 134.161 386.89 135.579 389.263 138.539 388.111 143.862 392.057 145.713 396.378 147.587 396.78 151.68 391.976 157.966 392.482 161.517 401.41 162.042 397.877 167.078 401.689 169.791 401.063 173.716 400.318 177.542 404.184 180.649 397.838 184.95 402.819 188.157 404.971 191.78 400.796 195.359 402.678 199.063 401.485 202.586 397.802 205.648 399.343 209.497 402.809 214.011 401.21 217.442 402.295 221.72 399.354 224.674 396.999 227.728 390.585 228.745 389.255 231.964 388.163 235.355 392.063 242.041 390.4 245.507 381.802 243.705 380.21 246.915 376.605 248.388 379.619 256.207 371.913 253.454 369.415 256.085 372.391 264.585 366.864 263.973 364.206 266.432 364.464 272.013 360.891 273.49 359.218 277.002 354.525 277.282 348.1 275.709 349.425 282.44 345.077 283.091 340.344 283.328 341.65 290.033 340.836 294.47 333.383 291.798 330.344 293.853 328.539 297.229 328.405 302.394 321.556 300.367 323.381 307.637 319.395 308.677 317.874 312.357 315.527 315.155 311.294 315.934 308.042 317.761 308.936 324.031 302.164 322.09 300.579 325.704 300.277 330.696 294.457 329.763 296.289 337.038 290.051 335.666 286.865 337.559 284.432 340.262 280.804 341.691 281.446 347.689 274.319 345.37 276.431 352.945 271.339 352.809 266.92 353.389 265.532 357.22 261.485 358.205 262.514 364.615 256.773 363.78 255.959 368.23 255.343 372.892 253.015 375.721 250.291 378.135 246.495 379.4 239.362 376.813 242.666 386.542 239.59 388.843 235.497 389.624 231.225 389.851 229.253 393.904 222.537 388.915 222.502 397.349 219.08 399.004 215.313 399.742 211.209 399.216 206.145 394.428 203.665 399.295 200.559 402.598 196.209 398.115 192.532 396.545 189.497 405.165 185.686 401.493 181.893 406.081 178.116 405.332 174.682 401.981 171.787 396.774 167.314 401.344 165.115 394.772 160.105 399.665 156.378 399.134 154.908 392.526 149.955 395.21 144.786 397.498 145.163 388.603 140.366 389.843 138.351 386.23 137.217 381.646 133.055 381.422 127.815 382.179 126.568 378.063 123.158 376.395 121.028 373.397 118.973 370.386 119.336 365.503 115.138 364.272 108.201 364.599 107.862 360.344 104.131 358.141 102.075 354.898 106.943 348.525 107.638 344.443 103.547 342.229 102.015 338.964 99.803 335.83 98.83 332.315 95.293 329.226 98.205 325.047 94.47 321.744 99.267 317.752 95.777 314.224 100.671 310.7 101.738 307.279 93.407 302.824 101.568 300.261 95.929 295.558 95.648 291.62 102.432 289.62 105.007 286.732 100.034 281.101 100.266 277.105 103.361 274.358 106.169 271.609 104.923 266.595 112.345 266.809 112.285 262.394 114.243 259.261 115.067 255.139 120.254 254.762 125.835 255.188 127.511 251.938 124.583 243.494 128.561 242.443 133.485 242.409 133.145 236.739 140.457 239.267 143.095 236.789 145.236 233.778 149.22 232.739 150.485 228.783 153.119 226.293 156.181 224.266 154.813 217.493 157.965 215.564 160.161 212.607 167.62 215.285 169.105 211.565 172.973 210.4 171.603 203.624 178.185 205.364 179.756 201.733 179.92 196.598 182.733 194.302 183.927 190.268 188.246 189.582 193.604 190.011 195.552 186.786 195.563 181.483 200.571 181.536 198.804 174.33 203.271 173.811 209.547 175.223 206.558 166.71 215.453 170.933 216.228 166.453 216.359 161.278 221.837 161.837 223.111 157.886 224.089 153.621 230.388 155.051 230.986 150.376 234.388 148.703 238.239 147.509 240.592 144.721 242.332 141.27 244.318 138.076 247.865 136.554 250.626 134.188 252.135 130.472 256.708 130.039 254.384 121.925 259.997 122.831 261.002 117.981 265.315 117.606 271.242 120.225 272.866 115.951 274.22 110.582 278.332 110.524 281.119 107.505 286.399 111.151 290.635 112.85 293.131 108.791 296.774 108.747 298.994 100.831 303.529 105.89 307.097 105.298 310.452 99.795 314.284 99.985 317.934 104.939 321.639 103.922 325.566 101.916 329.111 103.59 332.693 104.628 336.583 104.302 338.753 110.295 341.681 112.675 346.125 110.774 350.149 110.556 353.684 111.697 357.471 112.457 358.193 118.62 360.972 120.829 364.715 121.621 366.778 124.803 371.391 124.777 372.641 128.814 379.779 126.639 377.462 134.021" style="fill: #fff;"/>
    <polygon points="377.462 134.021 382.727 134.161 386.89 135.579 389.263 138.539 388.111 143.862 392.057 145.713 396.378 147.587 396.78 151.68 391.976 157.966 392.482 161.517 401.41 162.042 397.877 167.078 401.689 169.791 401.063 173.716 400.318 177.542 404.184 180.649 397.838 184.95 402.819 188.157 404.971 191.78 400.796 195.359 402.678 199.063 401.485 202.586 397.802 205.648 399.343 209.497 402.809 214.011 401.21 217.442 402.295 221.72 399.354 224.674 396.999 227.728 390.585 228.745 389.255 231.964 388.163 235.355 392.063 242.041 390.4 245.507 381.802 243.705 380.21 246.915 376.605 248.388 379.619 256.207 371.913 253.454 369.415 256.085 372.391 264.585 366.864 263.973 364.206 266.432 364.464 272.013 360.891 273.49 359.218 277.002 354.525 277.282 348.1 275.709 349.425 282.44 345.077 283.091 340.344 283.328 341.65 290.033 340.836 294.47 333.383 291.798 330.344 293.853 328.539 297.229 328.405 302.394 321.556 300.367 323.381 307.637 319.395 308.677 317.874 312.357 315.527 315.155 311.294 315.934 308.042 317.761 308.936 324.031 302.164 322.09 300.579 325.704 300.277 330.696 294.457 329.763 296.289 337.038 290.051 335.666 286.865 337.559 284.432 340.262 280.804 341.691 281.446 347.689 274.319 345.37 276.431 352.945 271.339 352.809 266.92 353.389 265.532 357.22 261.485 358.205 262.514 364.615 256.773 363.78 255.959 368.23 255.343 372.892 253.015 375.721 250.291 378.135 246.495 379.4 239.362 376.813 242.666 386.542 239.59 388.843 235.497 389.624 231.225 389.851 229.253 393.904 222.537 388.915 222.502 397.349 219.08 399.004 215.313 399.742 211.209 399.216 206.145 394.428 203.665 399.295 200.559 402.598 196.209 398.115 192.532 396.545 189.497 405.165 185.686 401.493 181.893 406.081 178.116 405.332 174.682 401.981 171.787 396.774 167.314 401.344 165.115 394.772 160.105 399.665 156.378 399.134 154.908 392.526 149.955 395.21 144.786 397.498 145.163 388.603 140.366 389.843 138.351 386.23 137.217 381.646 133.055 381.422 127.815 382.179 126.568 378.063 123.158 376.395 121.028 373.397 118.973 370.386 119.336 365.503 115.138 364.272 108.201 364.599 107.862 360.344 104.131 358.141 102.075 354.898 106.943 348.525 107.638 344.443 103.547 342.229 102.015 338.964 99.803 335.83 98.83 332.315 95.293 329.226 98.205 325.047 94.47 321.744 99.267 317.752 95.777 314.224 100.671 310.7 101.738 307.279 93.407 302.824 101.568 300.261 95.929 295.558 95.648 291.62 102.432 289.62 105.007 286.732 100.034 281.101 100.266 277.105 103.361 274.358 106.169 271.609 104.923 266.595 112.345 266.809 112.285 262.394 114.243 259.261 115.067 255.139 120.254 254.762 125.835 255.188 127.511 251.938 124.583 243.494 128.561 242.443 133.485 242.409 133.145 236.739 140.457 239.267 143.095 236.789 145.236 233.778 149.22 232.739 150.485 228.783 153.119 226.293 156.181 224.266 154.813 217.493 157.965 215.564 160.161 212.607 167.62 215.285 169.105 211.565 172.973 210.4 171.603 203.624 178.185 205.364 179.756 201.733 179.92 196.598 182.733 194.302 183.927 190.268 188.246 189.582 193.604 190.011 195.552 186.786 195.563 181.483 200.571 181.536 198.804 174.33 203.271 173.811 209.547 175.223 206.558 166.71 215.453 170.933 216.228 166.453 216.359 161.278 221.837 161.837 223.111 157.886 224.089 153.621 230.388 155.051 230.986 150.376 234.388 148.703 238.239 147.509 240.592 144.721 242.332 141.27 244.318 138.076 247.865 136.554 250.626 134.188 252.135 130.472 256.708 130.039 254.384 121.925 259.997 122.831 261.002 117.981 265.315 117.606 271.242 120.225 272.866 115.951 274.22 110.582 278.332 110.524 281.119 107.505 286.399 111.151 290.635 112.85 293.131 108.791 296.774 108.747 298.994 100.831 303.529 105.89 307.097 105.298 310.452 99.795 314.284 99.985 317.934 104.939 321.639 103.922 325.566 101.916 329.111 103.59 332.693 104.628 336.583 104.302 338.753 110.295 341.681 112.675 346.125 110.774 350.149 110.556 353.684 111.697 357.471 112.457 358.193 118.62 360.972 120.829 364.715 121.621 366.778 124.803 371.391 124.777 372.641 128.814 379.779 126.639 377.462 134.021" style="fill: none; stroke: #000; stroke-linecap: round; stroke-linejoin: round; stroke-width: 40px;"/>
  </g>
  <g>
    <polyline points="202.297 177.271 206.513 181.775 205.718 185.282 202.864 188.555 202.118 192.132 199.96 195.604 206.604 199.733 206.936 203.305 205.829 206.809 200.3 210.304 205.067 213.923 199.622 217.662 200.194 221.329 205.111 224.643 204.192 228.333 205.274 231.827 203.583 235.739 203.388 239.508 210.078 241.734 211.172 245.031 211.944 248.405 207.348 253.794 212.697 255.554 210.382 260.631 213.575 263.127 216.497 265.582 219.114 268.087 222.994 269.344 221.193 276.137 223.662 279.205 226.866 281.033 230.568 282.104 232.458 285.737 238.231 283.472 238.11 290.43 242.978 289.322 249.118 285.67 248.761 293.659 251.73 295.73 254.759 297.708 260.25 294.572 260.808 301.762 265.112 300.97 267.849 303.649 272.279 302.355 275.166 304.701 278 307.244 282.266 306.086 284.025 311.595 287.574 312.349 291.135 313.04 295.855 310.212 297.582 316.403 302.17 313.754 307.051 309.848 310.422 310.775 312.213 317.452 311.567 317.11" style="fill: #fff;"/>
    <polyline points="202.297 177.271 206.513 181.775 205.718 185.282 202.864 188.555 202.118 192.132 199.96 195.604 206.604 199.733 206.936 203.305 205.829 206.809 200.3 210.304 205.067 213.923 199.622 217.662 200.194 221.329 205.111 224.643 204.192 228.333 205.274 231.827 203.583 235.739 203.388 239.508 210.078 241.734 211.172 245.031 211.944 248.405 207.348 253.794 212.697 255.554 210.382 260.631 213.575 263.127 216.497 265.582 219.114 268.087 222.994 269.344 221.193 276.137 223.662 279.205 226.866 281.033 230.568 282.104 232.458 285.737 238.231 283.472 238.11 290.43 242.978 289.322 249.118 285.67 248.761 293.659 251.73 295.73 254.759 297.708 260.25 294.572 260.808 301.762 265.112 300.97 267.849 303.649 272.279 302.355 275.166 304.701 278 307.244 282.266 306.086 284.025 311.595 287.574 312.349 291.135 313.04 295.855 310.212 297.582 316.403 302.17 313.754 307.051 309.848 310.422 310.775 312.213 317.452 311.567 317.11" style="fill: none; stroke: #000; stroke-linecap: round; stroke-linejoin: round; stroke-width: 40px;"/>
  </g>
</svg>