<?xml version="1.0" encoding="UTF-8"?>
<svg id="Sticker" xmlns="http://www.w3.org/2000/svg" width="500" height="500" viewBox="0 0 500 500">
  <polyline points="95.933 399.565 97.399 395.932 103.553 396.986 107.217 395.549 109.515 392.744 107.691 385.818 110.495 383.521 118.84 386.766 121.671 384.498 121.044 378.773 127.032 379.662 128.44 375.972 132.031 374.466 134.078 371.415 134.928 367.167 139.556 366.696 138.595 360.635 142.915 359.854 142.834 354.67 149.547 356.28 147.686 349.317 149.154 345.684 153.3 344.73 153.645 339.976 162.271 343.502 164.621 340.753 165.545 336.578 168.49 334.423 167.077 327.91 170.512 326.244 173.959 324.589 179.379 324.905 181.744 322.167 180.879 316.2 182.419 312.64 187.812 312.933 188.294 308.315 189.33 304.251 194.46 304.28 200.062 304.78 202.316 301.931 205.584 300.095 206.502 295.91 205.984 290.291 209.126 288.332 210.074 284.179 213.542 282.546 215.029 278.936 220.203 279.01 226.261 279.964 226.335 274.936 229.097 272.599 227.815 266.219 232.805 266.115 238.726 266.942 240.269 263.391 242.272 260.302 242.464 255.4 243.142 250.984 246.297 249.043 253.524 251.172 255.814 248.36 254.166 241.608 258.721 241.058 258.994 236.23 260.966 233.103 268.349 235.389 268.066 230.008 270.026 226.872 277.394 229.141 275.971 222.618 282.744 224.287 283.577 220.013 282.802 214.134 288.176 214.407 292.689 213.819 293.781 209.812 296.62 207.549 297.012 202.839 302.62 203.341 301.924 197.538 303.761 194.271 308.887 194.294 307.426 187.732 314.654 189.855 313.366 183.46 319.28 184.267 318.985 178.868 324.182 178.96 328.023 177.696 326.797 171.36 331.11 170.567 331.119 165.47 334.459 163.703 339.389 163.523 339.069 158.097 339.986 153.907 345.615 154.426 350.448 154.152 349.796 148.403 352.756 146.264 357.732 146.132 357.931 141.224 357.86 136.05 361.155 134.24 365.485 133.458 368.86 131.727 371.787 129.542 377.169 129.815 376.45 123.982 377.391 119.813 380.905 118.213 382.308 114.501 384.194 111.282 386.16 108.136 389.826 106.686 390.711 102.452 396.93 103.553 402.632 104.127 403.656 100.024" style="fill: #fff;"/>
  <polyline points="95.933 399.565 97.399 395.932 103.553 396.986 107.217 395.549 109.515 392.744 107.691 385.818 110.495 383.521 118.84 386.766 121.671 384.498 121.044 378.773 127.032 379.662 128.44 375.972 132.031 374.466 134.078 371.415 134.928 367.167 139.556 366.696 138.595 360.635 142.915 359.854 142.834 354.67 149.547 356.28 147.686 349.317 149.154 345.684 153.3 344.73 153.645 339.976 162.271 343.502 164.621 340.753 165.545 336.578 168.49 334.423 167.077 327.91 170.512 326.244 173.959 324.589 179.379 324.905 181.744 322.167 180.879 316.2 182.419 312.64 187.812 312.933 188.294 308.315 189.33 304.251 194.46 304.28 200.062 304.78 202.316 301.931 205.584 300.095 206.502 295.91 205.984 290.291 209.126 288.332 210.074 284.179 213.542 282.546 215.029 278.936 220.203 279.01 226.261 279.964 226.335 274.936 229.097 272.599 227.815 266.219 232.805 266.115 238.726 266.942 240.269 263.391 242.272 260.302 242.464 255.4 243.142 250.984 246.297 249.043 253.524 251.172 255.814 248.36 254.166 241.608 258.721 241.058 258.994 236.23 260.966 233.103 268.349 235.389 268.066 230.008 270.026 226.872 277.394 229.141 275.971 222.618 282.744 224.287 283.577 220.013 282.802 214.134 288.176 214.407 292.689 213.819 293.781 209.812 296.62 207.549 297.012 202.839 302.62 203.341 301.924 197.538 303.761 194.271 308.887 194.294 307.426 187.732 314.654 189.855 313.366 183.46 319.28 184.267 318.985 178.868 324.182 178.96 328.023 177.696 326.797 171.36 331.11 170.567 331.119 165.47 334.459 163.703 339.389 163.523 339.069 158.097 339.986 153.907 345.615 154.426 350.448 154.152 349.796 148.403 352.756 146.264 357.732 146.132 357.931 141.224 357.86 136.05 361.155 134.24 365.485 133.458 368.86 131.727 371.787 129.542 377.169 129.815 376.45 123.982 377.391 119.813 380.905 118.213 382.308 114.501 384.194 111.282 386.16 108.136 389.826 106.686 390.711 102.452 396.93 103.553 402.632 104.127 403.656 100.024" style="fill: none; stroke: #000; stroke-linecap: round; stroke-linejoin: round; stroke-width: 35px;"/>
</svg>