<?xml version="1.0" encoding="UTF-8"?>
<svg id="Sticker" xmlns="http://www.w3.org/2000/svg" width="500" height="500" viewBox="0 0 500 500">
  <polygon points="108.605 361.839 110.821 358.027 113.942 355.557 115.313 352.198 116.807 348.897 123.874 348.447 121.333 343.082 125.411 341.102 123.131 335.871 124.207 332.354 128.529 330.495 133.814 329.133 129.225 322.721 130.712 319.413 135.046 317.559 138.176 315.083 134.583 310.467 134.924 309.702 135.682 304.524 135.785 299.921 131.497 298.69 125.384 298.777 125.141 294.46 126.244 289.204 119.166 289.865 116.43 287.362 118.715 281.36 116.766 278.344 109.314 279.029 110.486 273.892 111.409 268.99 103.45 269.813 106.252 263.771 99.731 263.541 99.395 259.495 98.697 255.701 93.99 254.204 93.392 250.355 96.655 244.496 88.588 244.608 87.744 240.919 87.277 237.08 89.782 231.974 87.977 228.866 84.033 226.559 85.734 222.103 78.947 220.5 85.618 214.816 77.789 213 77.381 209.215 76.935 205.412 82.83 201.599 78.389 197.745 76.221 193.141 78.586 189.354 85.336 189.023 83.577 182.014 89.924 183.92 90.197 177.879 96.404 181.018 100.055 180.846 103.066 179.676 104.769 170.911 109.138 174.498 112.977 173.405 116.097 176.809 121.174 173.544 125.274 174.497 127.926 177.858 130.688 180.632 135.17 181.476 133.378 188.463 134.188 192.398 140.399 192.117 144.275 193.968 141.172 200.356 145.884 201.743 142.725 207.597 144.129 210.81 147.721 212.999 148.784 216.434 149.354 220.039 157.958 220.583 159.421 226.906 159.722 223.275 153.808 217.296 159.138 215.448 160.852 212.271 163.333 209.396 165.025 206.224 168.718 203.854 165.951 198.889 168.666 196.142 165.975 191.154 170.932 189.352 172.859 186.292 169.079 180.755 173.911 178.952 173.27 174.741 178.116 172.995 182.06 170.878 183.044 167.41 178.454 161.28 181.637 158.816 183.118 155.543 189.824 154.882 186.448 149.173 191.093 147.534 190.717 143.297 196.422 142.299 192.702 136.196 197.827 134.948 200.763 132.523 198.979 127.345 197.841 122.453 199.285 119.068 203.503 117.436 205.666 114.529 212.11 114.543 210.593 109.151 214.977 107.894 219.042 106.527 220.232 103.007 220.146 98.358 219.019 92.588 222.426 90.686 226.69 89.733 231.769 89.905 235.561 89.038 233.497 80.793 239.793 83.455 243.674 83.461 246.514 82.076 249.373 80.944 251.361 75.875 254.48 70.317 258.164 77.366 262.442 73.125 263.951 79.911 267.82 79.079 271.94 79.779 270.967 84.589 273.747 86.949 278.76 89.637 278.458 93.595 275.159 97.275 274.483 100.753 270.475 103.689 278.203 108.666 271.958 110.994 273.257 114.986 267.907 117.126 270.214 121.526 272.674 126.144 265.225 127.271 269.338 132.625 262.147 133.608 266.758 139.353 263.883 142.029 261.866 145.047 258.45 147.406 257.196 150.742 257.717 154.946 258.556 159.355 252.938 160.544 250.852 163.474 249.829 166.954 250.843 171.54 242.971 171.328 249.172 178.812 242.079 178.938 239.881 181.774 241.84 187.025 237.953 188.882 237.366 192.688 234.7 193.039 238.988 193.813 239.152 189.481 243.4 188.084 239.388 180.612 243.26 178.936 245.377 175.954 252.846 177.107 252.451 172.214 255.869 170.292 260.161 169.101 262.53 166.385 263.085 162.166 264.398 158.541 263.306 152.824 270.865 154.559 269.639 148.643 269.993 144.037 275.067 143.719 279.504 142.9 281.218 139.53 282.466 135.661 288.892 136.999 291.426 134.481 291.056 128.823 296.861 129.871 297.729 125.436 300.053 122.603 303.517 121.184 307.187 120.145 308.441 115.781 311.704 114.208 312.111 107.817 316.203 107.419 319.322 105.199 323.891 106.596 328.145 108.646 330.2 100.345 334.396 100.735 337.249 109.254 340.597 107.949 344.257 107.842 347.807 108.982 346.627 114.293 353.38 114.159 356.469 117.402 350.928 121.941 356.152 125.421 348.718 128.274 357.651 133.448 349.599 135.295 347.391 138.234 353.284 144.055 347.69 145.797 350.296 150.837 344.65 152.247 347.681 157.742 340.597 158.179 343.976 164.076 340.903 166.531 335.784 167.729 337.207 172.765 335.153 175.75 331.99 178.021 328.561 180.079 326.761 183.182 328.588 188.764 324.254 190.168 322.136 193.082 319.16 195.377 315.477 197.138 313.049 199.794 310.711 202.513 309.591 206.157 308.796 210.073 309.557 215.23 302.583 214.324 299.25 216.241 296.139 218.32 298.985 225.263 294.583 226.292 295.307 231.581 291.971 233.484 285.594 232.748 283.192 235.379 282.028 241.702 286.273 238.172 289.898 237.065 289.711 230.863 297.723 235.733 299.698 232.448 302.424 230.179 305.212 227.989 303.907 219.874 306.868 217.838 309.825 215.794 315.035 217.161 317.779 214.84 320.106 211.852 325.444 213.629 324.732 205.707 332.403 211.451 332.245 204.248 336.19 203.912 340.318 203.974 341.306 198.395 344.73 197.171 349.331 198.255 353.762 199.183 355.54 194.77 359.591 195.07 363.51 195.246 364.54 188.625 367.955 187.481 371.831 187.64 374.532 184.455 377.93 183.157 382.816 187.618 385.289 182.731 388.788 181.79 392.597 183.546 396.097 184.316 399.29 187.194 403.598 180.112 405.533 186.991 410.812 183.015 413.335 186.167 419.167 185.599 420.305 190.332 419.854 194.932 421.657 198.5 420.052 202.194 421.13 206.299 422.294 210.997 418.376 213.422 414.488 215.388 414.075 219.519 409.294 220.436 405.803 222.122 407.898 228.737 405.559 231.58 400.402 231.61 400.111 236.478 397.27 238.772 394.248 240.844 391.662 243.39 388.642 245.429 383.825 245.275 383.582 250.665 378.692 250.316 376.759 253.673 373.647 255.527 371.095 258.118 366.502 257.947 365.832 263.128 363.343 265.85 356.592 262.519 355.68 267.47 355.248 273.206 352.302 275.308 347.837 275.122 344.38 276.414 340.683 277.321 338.243 280.163 336.289 283.79 333.781 286.576 330.358 287.902 325.395 286.68 322.929 289.532 322.891 290.987 323.052 292.222 326.711 292.544 330.612 292.061 333.369 295.576 336.969 296.167 340.228 297.848 344.862 295.403 347.268 299.562 351.784 297.79 352.699 305.537 356.224 306.307 359.478 307.747 366.051 301.923 367.042 308.412 372.276 306.143 372.9 312.676 379.097 309.29 381.764 312.12 384.475 314.793 384.146 321.109 386.981 323.09 393.349 322.007 396.798 324.399 391.016 332.022 394.126 333.967 401.641 336.386 399.959 340.713 400.966 345.099 392.814 346.111 392.822 349.866 389.515 351.517 391.115 358.307 385.134 356.585 381.947 357.902 380.211 362.308 374.889 358.546 374.506 368.401 369.404 363.975 365.403 362.265 362.058 363.182 359.275 368.109 355.002 362.845 351.841 366.235 348.628 371.014 345.085 373.066 341.157 365.242 337.691 369.435 334.092 368.366 330.472 370.726 326.848 370.877 323.416 366.409 319.75 368.166 315.988 370.681 312.655 366.876 309.068 366.837 305.674 364.755 301.768 367.707 298.333 366.119 295.273 361.809 291.77 361.251 287.906 363.155 284.354 362.798 280.792 362.488 274.494 361.197 271.868 363.76 269.3 366.373 267.8 369.867 268.922 375.521 268.702 380.068 266.701 383.142 258.957 381.479 256.293 384.014 255.487 388.077 254.798 392.241 251.06 393.888 248.28 396.329 249.59 402.142 245.345 403.374 241.691 405.095 236.758 405.762 238.342 411.8 236.792 415.257 234.526 418.125 229.247 418.507 228.241 422.422 224.866 424.384 222.977 422.085 218.468 425.295 215.509 422.357 212.596 419.427 208.106 422.109 205.035 419.777 202.393 416.138 197.05 421.141 194.444 417.437 190.961 416.469 187.778 414.647 185.296 410.929 180.23 414.252 179.392 406.39 173.057 412.63 172.674 404.072 166.694 408.961 166.33 400.888 159.557 407.026 157.347 403.193 155.657 398.511 151.329 399.053 147.119 399.184 146.313 393.324 143.705 390.783 139.177 391.255 136.176 389.261 135.206 384.526 129.87 385.61 128.708 381.4 125.227 379.943 125.644 374.589 119.197 375.691 115.843 373.621 117.664 367.977 112.041 367.103 108.605 361.839" style="fill: #fff;"/>
  <polygon points="108.605 361.839 110.821 358.027 113.942 355.557 115.313 352.198 116.807 348.897 123.874 348.447 121.333 343.082 125.411 341.102 123.131 335.871 124.207 332.354 128.529 330.495 133.814 329.133 129.225 322.721 130.712 319.413 135.046 317.559 138.176 315.083 134.583 310.467 134.924 309.702 135.682 304.524 135.785 299.921 131.497 298.69 125.384 298.777 125.141 294.46 126.244 289.204 119.166 289.865 116.43 287.362 118.715 281.36 116.766 278.344 109.314 279.029 110.486 273.892 111.409 268.99 103.45 269.813 106.252 263.771 99.731 263.541 99.395 259.495 98.697 255.701 93.99 254.204 93.392 250.355 96.655 244.496 88.588 244.608 87.744 240.919 87.277 237.08 89.782 231.974 87.977 228.866 84.033 226.559 85.734 222.103 78.947 220.5 85.618 214.816 77.789 213 77.381 209.215 76.935 205.412 82.83 201.599 78.389 197.745 76.221 193.141 78.586 189.354 85.336 189.023 83.577 182.014 89.924 183.92 90.197 177.879 96.404 181.018 100.055 180.846 103.066 179.676 104.769 170.911 109.138 174.498 112.977 173.405 116.097 176.809 121.174 173.544 125.274 174.497 127.926 177.858 130.688 180.632 135.17 181.476 133.378 188.463 134.188 192.398 140.399 192.117 144.275 193.968 141.172 200.356 145.884 201.743 142.725 207.597 144.129 210.81 147.721 212.999 148.784 216.434 149.354 220.039 157.958 220.583 159.421 226.906 159.722 223.275 153.808 217.296 159.138 215.448 160.852 212.271 163.333 209.396 165.025 206.224 168.718 203.854 165.951 198.889 168.666 196.142 165.975 191.154 170.932 189.352 172.859 186.292 169.079 180.755 173.911 178.952 173.27 174.741 178.116 172.995 182.06 170.878 183.044 167.41 178.454 161.28 181.637 158.816 183.118 155.543 189.824 154.882 186.448 149.173 191.093 147.534 190.717 143.297 196.422 142.299 192.702 136.196 197.827 134.948 200.763 132.523 198.979 127.345 197.841 122.453 199.285 119.068 203.503 117.436 205.666 114.529 212.11 114.543 210.593 109.151 214.977 107.894 219.042 106.527 220.232 103.007 220.146 98.358 219.019 92.588 222.426 90.686 226.69 89.733 231.769 89.905 235.561 89.038 233.497 80.793 239.793 83.455 243.674 83.461 246.514 82.076 249.373 80.944 251.361 75.875 254.48 70.317 258.164 77.366 262.442 73.125 263.951 79.911 267.82 79.079 271.94 79.779 270.967 84.589 273.747 86.949 278.76 89.637 278.458 93.595 275.159 97.275 274.483 100.753 270.475 103.689 278.203 108.666 271.958 110.994 273.257 114.986 267.907 117.126 270.214 121.526 272.674 126.144 265.225 127.271 269.338 132.625 262.147 133.608 266.758 139.353 263.883 142.029 261.866 145.047 258.45 147.406 257.196 150.742 257.717 154.946 258.556 159.355 252.938 160.544 250.852 163.474 249.829 166.954 250.843 171.54 242.971 171.328 249.172 178.812 242.079 178.938 239.881 181.774 241.84 187.025 237.953 188.882 237.366 192.688 234.7 193.039 238.988 193.813 239.152 189.481 243.4 188.084 239.388 180.612 243.26 178.936 245.377 175.954 252.846 177.107 252.451 172.214 255.869 170.292 260.161 169.101 262.53 166.385 263.085 162.166 264.398 158.541 263.306 152.824 270.865 154.559 269.639 148.643 269.993 144.037 275.067 143.719 279.504 142.9 281.218 139.53 282.466 135.661 288.892 136.999 291.426 134.481 291.056 128.823 296.861 129.871 297.729 125.436 300.053 122.603 303.517 121.184 307.187 120.145 308.441 115.781 311.704 114.208 312.111 107.817 316.203 107.419 319.322 105.199 323.891 106.596 328.145 108.646 330.2 100.345 334.396 100.735 337.249 109.254 340.597 107.949 344.257 107.842 347.807 108.982 346.627 114.293 353.38 114.159 356.469 117.402 350.928 121.941 356.152 125.421 348.718 128.274 357.651 133.448 349.599 135.295 347.391 138.234 353.284 144.055 347.69 145.797 350.296 150.837 344.65 152.247 347.681 157.742 340.597 158.179 343.976 164.076 340.903 166.531 335.784 167.729 337.207 172.765 335.153 175.75 331.99 178.021 328.561 180.079 326.761 183.182 328.588 188.764 324.254 190.168 322.136 193.082 319.16 195.377 315.477 197.138 313.049 199.794 310.711 202.513 309.591 206.157 308.796 210.073 309.557 215.23 302.583 214.324 299.25 216.241 296.139 218.32 298.985 225.263 294.583 226.292 295.307 231.581 291.971 233.484 285.594 232.748 283.192 235.379 282.028 241.702 286.273 238.172 289.898 237.065 289.711 230.863 297.723 235.733 299.698 232.448 302.424 230.179 305.212 227.989 303.907 219.874 306.868 217.838 309.825 215.794 315.035 217.161 317.779 214.84 320.106 211.852 325.444 213.629 324.732 205.707 332.403 211.451 332.245 204.248 336.19 203.912 340.318 203.974 341.306 198.395 344.73 197.171 349.331 198.255 353.762 199.183 355.54 194.77 359.591 195.07 363.51 195.246 364.54 188.625 367.955 187.481 371.831 187.64 374.532 184.455 377.93 183.157 382.816 187.618 385.289 182.731 388.788 181.79 392.597 183.546 396.097 184.316 399.29 187.194 403.598 180.112 405.533 186.991 410.812 183.015 413.335 186.167 419.167 185.599 420.305 190.332 419.854 194.932 421.657 198.5 420.052 202.194 421.13 206.299 422.294 210.997 418.376 213.422 414.488 215.388 414.075 219.519 409.294 220.436 405.803 222.122 407.898 228.737 405.559 231.58 400.402 231.61 400.111 236.478 397.27 238.772 394.248 240.844 391.662 243.39 388.642 245.429 383.825 245.275 383.582 250.665 378.692 250.316 376.759 253.673 373.647 255.527 371.095 258.118 366.502 257.947 365.832 263.128 363.343 265.85 356.592 262.519 355.68 267.47 355.248 273.206 352.302 275.308 347.837 275.122 344.38 276.414 340.683 277.321 338.243 280.163 336.289 283.79 333.781 286.576 330.358 287.902 325.395 286.68 322.929 289.532 322.891 290.987 323.052 292.222 326.711 292.544 330.612 292.061 333.369 295.576 336.969 296.167 340.228 297.848 344.862 295.403 347.268 299.562 351.784 297.79 352.699 305.537 356.224 306.307 359.478 307.747 366.051 301.923 367.042 308.412 372.276 306.143 372.9 312.676 379.097 309.29 381.764 312.12 384.475 314.793 384.146 321.109 386.981 323.09 393.349 322.007 396.798 324.399 391.016 332.022 394.126 333.967 401.641 336.386 399.959 340.713 400.966 345.099 392.814 346.111 392.822 349.866 389.515 351.517 391.115 358.307 385.134 356.585 381.947 357.902 380.211 362.308 374.889 358.546 374.506 368.401 369.404 363.975 365.403 362.265 362.058 363.182 359.275 368.109 355.002 362.845 351.841 366.235 348.628 371.014 345.085 373.066 341.157 365.242 337.691 369.435 334.092 368.366 330.472 370.726 326.848 370.877 323.416 366.409 319.75 368.166 315.988 370.681 312.655 366.876 309.068 366.837 305.674 364.755 301.768 367.707 298.333 366.119 295.273 361.809 291.77 361.251 287.906 363.155 284.354 362.798 280.792 362.488 274.494 361.197 271.868 363.76 269.3 366.373 267.8 369.867 268.922 375.521 268.702 380.068 266.701 383.142 258.957 381.479 256.293 384.014 255.487 388.077 254.798 392.241 251.06 393.888 248.28 396.329 249.59 402.142 245.345 403.374 241.691 405.095 236.758 405.762 238.342 411.8 236.792 415.257 234.526 418.125 229.247 418.507 228.241 422.422 224.866 424.384 222.977 422.085 218.468 425.295 215.509 422.357 212.596 419.427 208.106 422.109 205.035 419.777 202.393 416.138 197.05 421.141 194.444 417.437 190.961 416.469 187.778 414.647 185.296 410.929 180.23 414.252 179.392 406.39 173.057 412.63 172.674 404.072 166.694 408.961 166.33 400.888 159.557 407.026 157.347 403.193 155.657 398.511 151.329 399.053 147.119 399.184 146.313 393.324 143.705 390.783 139.177 391.255 136.176 389.261 135.206 384.526 129.87 385.61 128.708 381.4 125.227 379.943 125.644 374.589 119.197 375.691 115.843 373.621 117.664 367.977 112.041 367.103 108.605 361.839" style="fill: none; stroke: #000; stroke-linecap: round; stroke-linejoin: round; stroke-width: 40px;"/>
</svg>