<?xml version="1.0" encoding="UTF-8"?>
<svg id="Sticker" xmlns="http://www.w3.org/2000/svg" width="500" height="500" viewBox="0 0 500 500">
  <polyline points="98.638 403.667 98.614 398.545 104.9 399.73 107.883 397.612 109.307 393.934 111.101 390.625 111.987 386.411 117.33 386.654 121.445 385.67 125.567 384.693 127.366 381.394 124.565 373.495 127.967 371.799 134.481 373.215 132.286 365.922 135.995 364.533 140.734 364.171 141.582 359.919 141.923 355.157 144.302 352.433 149.303 352.331 151.01 348.937 151.723 344.55 154.46 342.188 160.877 343.506 160.561 338.09 166.174 338.604 169.62 336.951 167.469 329.7 172.162 329.292 175.429 327.457 176.347 323.27 179.639 321.459 186.527 323.246 189.108 320.726 186.451 312.97 194.02 315.438 195.099 311.418 192.76 303.977 198.24 304.356 198.789 299.802 207.113 303.022 207.099 297.905 212.155 297.859 211.438 292.042 211.546 287.048 216.342 286.744 220.133 285.438 219.65 279.855 225.016 280.117 223.663 273.661 226.001 270.9 231.906 271.708 233.518 268.225 235.421 265.034 237.326 261.846 244.817 264.244 242.591 256.925 248.302 257.542 250.779 254.923 249.097 248.143 258.062 252.007 260.283 249.122 256.241 239.976 264.93 243.563 263.338 236.873 266.293 234.73 267.449 230.79 274.016 232.259 277.096 230.241 280.895 228.94 277.45 220.391 279.789 217.623 281.71 214.44 285.15 212.778 287.786 210.314 291.978 209.406 296.854 209.181 295.357 202.582 302.625 204.743 304.559 201.57 304.04 195.948 309.719 196.524 309.695 191.398 310.833 187.432 317.688 189.179 316.293 182.677 322.885 184.165 325.519 181.695 329.591 180.661 330.409 176.369 331.639 172.493 330.431 166.179 337.683 168.324 340.991 166.523 338.131 158.557 346.904 162.223 348.444 158.653 345.923 151.024 348.505 148.51 353.619 148.524 358.914 148.711 356.017 140.708 364.836 144.424 366.091 140.574 370.272 139.643 370.955 135.219 371.38 130.533 375.213 129.257 375.191 124.121 376.336 120.155 382.935 121.641 383.384 116.974 385.177 113.663 386.514 109.888 393.392 111.649 398.293 111.433 397.744 105.764 398.616 101.508 405.45 103.215" style="fill: none; stroke: #000; stroke-linecap: round; stroke-linejoin: round; stroke-width: 35px;"/>
</svg>