<?xml version="1.0" encoding="UTF-8"?>
<svg id="Sticker" xmlns="http://www.w3.org/2000/svg" width="500" height="500" viewBox="0 0 500 500">
  <polygon points="408.714 250 416.043 253.726 408.822 257.137 411.115 260.865 414.664 264.819 410.314 268.067 413.171 272.103 411.508 275.582 406.2 278.353 411.66 283.1 409.662 286.444 401.82 288.263 407.7 293.524 408.238 297.518 402.519 299.559 404.739 304.148 405 308.176 399.929 310.143 396.006 312.407 400.483 318.357 399.176 321.845 397.042 324.927 395.868 328.501 391.447 330.263 384.277 330.223 389.049 337.376 382.127 337.215 380.206 340.207 384.122 347.453 377.394 347.001 379.909 353.606 373.232 352.885 374.248 358.559 366.543 356.529 363.033 358.075 366.823 366.83 358.655 363.652 356.695 366.739 355.8 371.107 354.072 374.667 352.62 378.689 350.284 381.715 347.174 383.755 343.652 385.186 336.917 381.691 333.837 383.443 331.263 386.028 330.611 392.072 324.727 388.883 323.293 393.854 319.699 394.74 314.712 392.481 314.016 399.776 310.125 399.893 306.536 400.642 301.77 397.951 300.009 403.913 297.62 408.585 293.145 406.326 288.324 402.067 286.601 410.353 282.615 409.276 278.97 409.618 275.552 411.313 271.693 410.11 267.848 408.333 264.479 410.823 260.827 410.518 257.461 416.135 253.582 409.493 250 414.309 246.373 411.543 242.949 406.877 239.067 412.127 235.16 414.898 232.077 409.026 227.806 413.845 224.249 412.581 221.675 406.044 218.025 406.134 214.765 404.346 210.59 406.389 208.325 400.985 204.375 401.926 200.759 401.54 196.426 403.098 192.401 403.464 191.706 395.324 184.669 402.839 184.78 393.587 181.375 392.502 176.198 394.838 173.775 391.648 171.51 388.329 167.453 388.158 165.184 384.984 162.138 383.105 158.641 381.867 157.427 377.418 153.638 376.557 151.779 373.164 143.901 377.077 142.969 372.501 138.15 372.361 140.714 364.299 139.278 360.716 131.196 363.582 133.598 356.387 130.642 354.271 128.516 351.412 123.989 350.482 121.295 347.988 118.183 345.764 114.417 343.928 111.663 341.312 112.456 336.419 115.247 330.5 107.705 330.738 108.654 326.055 107.875 322.41 104.765 319.938 104.072 316.28 105.604 311.714 96.639 311.517 100.881 305.964 96.144 303.836 92.071 301.313 90.714 297.831 96.817 292.28 95.776 288.866 94.673 285.458 92.55 282.243 92.552 278.579 92.864 274.895 91.444 271.484 86.025 268.476 91.582 264.265 84.002 261.191 86.944 257.325 87.823 253.641 86.394 250 86.638 246.333 86.96 242.677 84.721 238.858 84.405 235.098 86.787 231.61 92.748 228.691 92.913 225.113 90.688 221.086 88.304 216.892 91.008 213.709 96.571 211.333 98.212 208.104 96.04 203.765 96.865 200.241 94.493 195.583 102.001 194.453 100.885 190.184 104.902 187.982 107.32 185.193 106.763 181.021 106.708 176.988 106.199 172.614 113.435 172.513 115.344 169.55 109.573 161.757 119.026 163.547 114.706 156.262 120.571 155.963 124.107 154.144 120.872 147.017 128.212 148.322 128.696 144.015 133.59 143.592 135.634 140.65 135.845 135.838 138.047 132.899 142.914 132.835 146.334 131.333 147.6 127.333 147.561 121.539 153.926 123.806 155.649 120.125 158.497 117.911 159.259 112.527 162.544 110.808 165.927 109.279 170.398 109.702 174.327 109.363 176.862 106.449 179.275 103.132 184.37 105.499 187.91 104.724 190.708 102.181 194.682 102.601 197.302 99.396 198.922 92.797 202.726 92.572 207.24 95.073 209.633 89.8 214.344 93.801 216.63 87.021 220.57 87.833 224.594 89.613 227.798 86.1 231.894 89.351 235.087 84.299 238.909 85.503 242.686 87.197 246.28 84.237 250 83.825 253.513 93.626 257.111 91.749 260.716 91.127 264.206 92.236 267.947 90.763 271.725 89.648 275.705 87.708 278.783 91.415 283.191 87.896 285.757 93.357 290.617 88.807 293.923 90.852 297.653 91.314 300.446 94.75 304.715 93.641 306.653 99.054 309.629 101.352 311.525 106.055 318.633 98.912 321.635 101.258 323.894 104.981 324.888 110.833 330.298 108.491 331.188 114.111 334.629 115.313 340.925 112.264 340.27 119.702 346.562 117.103 345.082 125.122 350.372 124.142 352.964 126.673 355.138 129.664 358.568 131.227 362.307 132.542 366.433 133.573 364.734 140.31 372.147 138.359 367.919 146.988 373.896 146.572 374.844 150.45 375.737 154.275 380.66 155.078 382.085 158.5 386.854 159.668 390.825 161.516 388.295 167.379 388.363 171.498 395.965 171.454 393.463 176.907 399.518 177.996 399.992 181.871 397.523 186.948 397.167 190.97 400.627 193.47 398.301 198.107 405.38 199.514 407.779 202.621 406.789 206.727 409.406 209.832 411.065 213.237 410.738 217.087 404.452 221.961 414.267 223.984 413.817 227.81 414.594 231.455 408.327 235.743 415.061 238.871 410.005 242.81 410.304 246.4 408.714 250" style="fill: #fff;"/>
  <polygon points="408.714 250 416.043 253.726 408.822 257.137 411.115 260.865 414.664 264.819 410.314 268.067 413.171 272.103 411.508 275.582 406.2 278.353 411.66 283.1 409.662 286.444 401.82 288.263 407.7 293.524 408.238 297.518 402.519 299.559 404.739 304.148 405 308.176 399.929 310.143 396.006 312.407 400.483 318.357 399.176 321.845 397.042 324.927 395.868 328.501 391.447 330.263 384.277 330.223 389.049 337.376 382.127 337.215 380.206 340.207 384.122 347.453 377.394 347.001 379.909 353.606 373.232 352.885 374.248 358.559 366.543 356.529 363.033 358.075 366.823 366.83 358.655 363.652 356.695 366.739 355.8 371.107 354.072 374.667 352.62 378.689 350.284 381.715 347.174 383.755 343.652 385.186 336.917 381.691 333.837 383.443 331.263 386.028 330.611 392.072 324.727 388.883 323.293 393.854 319.699 394.74 314.712 392.481 314.016 399.776 310.125 399.893 306.536 400.642 301.77 397.951 300.009 403.913 297.62 408.585 293.145 406.326 288.324 402.067 286.601 410.353 282.615 409.276 278.97 409.618 275.552 411.313 271.693 410.11 267.848 408.333 264.479 410.823 260.827 410.518 257.461 416.135 253.582 409.493 250 414.309 246.373 411.543 242.949 406.877 239.067 412.127 235.16 414.898 232.077 409.026 227.806 413.845 224.249 412.581 221.675 406.044 218.025 406.134 214.765 404.346 210.59 406.389 208.325 400.985 204.375 401.926 200.759 401.54 196.426 403.098 192.401 403.464 191.706 395.324 184.669 402.839 184.78 393.587 181.375 392.502 176.198 394.838 173.775 391.648 171.51 388.329 167.453 388.158 165.184 384.984 162.138 383.105 158.641 381.867 157.427 377.418 153.638 376.557 151.779 373.164 143.901 377.077 142.969 372.501 138.15 372.361 140.714 364.299 139.278 360.716 131.196 363.582 133.598 356.387 130.642 354.271 128.516 351.412 123.989 350.482 121.295 347.988 118.183 345.764 114.417 343.928 111.663 341.312 112.456 336.419 115.247 330.5 107.705 330.738 108.654 326.055 107.875 322.41 104.765 319.938 104.072 316.28 105.604 311.714 96.639 311.517 100.881 305.964 96.144 303.836 92.071 301.313 90.714 297.831 96.817 292.28 95.776 288.866 94.673 285.458 92.55 282.243 92.552 278.579 92.864 274.895 91.444 271.484 86.025 268.476 91.582 264.265 84.002 261.191 86.944 257.325 87.823 253.641 86.394 250 86.638 246.333 86.96 242.677 84.721 238.858 84.405 235.098 86.787 231.61 92.748 228.691 92.913 225.113 90.688 221.086 88.304 216.892 91.008 213.709 96.571 211.333 98.212 208.104 96.04 203.765 96.865 200.241 94.493 195.583 102.001 194.453 100.885 190.184 104.902 187.982 107.32 185.193 106.763 181.021 106.708 176.988 106.199 172.614 113.435 172.513 115.344 169.55 109.573 161.757 119.026 163.547 114.706 156.262 120.571 155.963 124.107 154.144 120.872 147.017 128.212 148.322 128.696 144.015 133.59 143.592 135.634 140.65 135.845 135.838 138.047 132.899 142.914 132.835 146.334 131.333 147.6 127.333 147.561 121.539 153.926 123.806 155.649 120.125 158.497 117.911 159.259 112.527 162.544 110.808 165.927 109.279 170.398 109.702 174.327 109.363 176.862 106.449 179.275 103.132 184.37 105.499 187.91 104.724 190.708 102.181 194.682 102.601 197.302 99.396 198.922 92.797 202.726 92.572 207.24 95.073 209.633 89.8 214.344 93.801 216.63 87.021 220.57 87.833 224.594 89.613 227.798 86.1 231.894 89.351 235.087 84.299 238.909 85.503 242.686 87.197 246.28 84.237 250 83.825 253.513 93.626 257.111 91.749 260.716 91.127 264.206 92.236 267.947 90.763 271.725 89.648 275.705 87.708 278.783 91.415 283.191 87.896 285.757 93.357 290.617 88.807 293.923 90.852 297.653 91.314 300.446 94.75 304.715 93.641 306.653 99.054 309.629 101.352 311.525 106.055 318.633 98.912 321.635 101.258 323.894 104.981 324.888 110.833 330.298 108.491 331.188 114.111 334.629 115.313 340.925 112.264 340.27 119.702 346.562 117.103 345.082 125.122 350.372 124.142 352.964 126.673 355.138 129.664 358.568 131.227 362.307 132.542 366.433 133.573 364.734 140.31 372.147 138.359 367.919 146.988 373.896 146.572 374.844 150.45 375.737 154.275 380.66 155.078 382.085 158.5 386.854 159.668 390.825 161.516 388.295 167.379 388.363 171.498 395.965 171.454 393.463 176.907 399.518 177.996 399.992 181.871 397.523 186.948 397.167 190.97 400.627 193.47 398.301 198.107 405.38 199.514 407.779 202.621 406.789 206.727 409.406 209.832 411.065 213.237 410.738 217.087 404.452 221.961 414.267 223.984 413.817 227.81 414.594 231.455 408.327 235.743 415.061 238.871 410.005 242.81 410.304 246.4 408.714 250" style="fill: none; stroke: #000; stroke-linecap: round; stroke-linejoin: round; stroke-width: 35px;"/>
</svg>