<?xml version="1.0" encoding="UTF-8"?>
<svg id="Sticker" xmlns="http://www.w3.org/2000/svg" width="500" height="500" viewBox="0 0 500 500">
  <path d="M98.46,407.542l-1.458-2.62-1.029-2.935-4.764-2.036,4.548-4.28-6.809-2.971-.864-3.852,6.603-2.915-5.066-4.565-1.235-4.252,6.97-1.739,2.74-2.755-6.166-6.495,5.162-1.759-1.796-5.06,9.404.915-3.727-6.31,4.674-1.439,4.969-1.063-1.753-5.509-.623-4.924,5.891-.239,4.515-1.103.861-3.826-3.023-6.846,6.835.803,1.485-3.358,5.295-.363-1.704-5.881,6.175.35-4.725-8.32,3.57-1.722,6.282.466,1.007-3.766,1.741-3.18,5.355-.248-.723-5.184,3.445-1.794.577-4.138,1.878-3.077.563-4.162,1.728-3.206,4.514-.898-.396-4.969,3.104-2.062,3.389-1.819,1.959-3.014,4.055-1.257.341-4.377,2.069-2.928,7.255,1.457-1.875-6.264,6.131.524-3.178-7.389,3.197-1.965,3.377-1.802,4.547-.798-.997-5.557,7.205,1.506-.334-4.993-1.219-5.77,8.986,3.085,2.025-2.949-1.54-4.572.826-6.615-5.96,1.43,1.475-5.992-6.319.69,1.253-5.041-3.944-1.648,1.214-4.329-4.255-2.004-5.665-2.228,8.254-5.302-7.933-2.552-1.96-3.776,5.145-3.531-3.807-4.125,4.964-2.833-2.981-4.491-.192-4.029,2.231-3.209,3.179-2.657,3.102-2.503-.122-4.165,1.68-3.246,2.676-2.601,5.547-.662-.818-4.927,6.831.296-4.196-7.324.685-3.985,5.73-.382,1.138-3.66-.081-4.584,4.464-1.213,4.465-1.162,1.459-3.442-2.127-6.287,8.415,2.047,3.584-1.723-1.758-6.111,6.168.449-2.491-6.865,2.25-2.871,1.016-3.985,3.689-1.595,2.917-2.27,2.342-2.803.566-4.568,7.13,2.005-.708-6.673,7.343,5.631,2.791-1.874,2.198-3.938,2.125-5.805,4.517,3.42,3.694,2.044,3.481-6.85,3.944,1.102,2.86,4.188,3.091,1.668,6.327-2.4,2.04,3.627-.653,5.481,3.362,1.898,1.288,3.354,1.835,3.082-2.291,4.264,4.247,2.609-4.702,3.956.294,3.178,5.725,3.573-3.876,3.143,3.6,4.121-2.891,3.011-.179-2.109,4.017,1.518,2.419-2.86,5.196,1.341,4.482.308-1-8.405,4.631.607,2.788-2.531,3.06-2.217,4.663,1.931,3.407-.41,3.144-1.667,4.633-5.253,2.643,5.355,2.344,2.917,1.339,3.337-2.105,4.395,1.553,2.773,8.865,2.136-3.733,4.135,2.668,3.614-7.296,3.419,2.595,3.66-3.936,3.109,3.871,4.061.889,3.793,2.854,4.286-4.268,1.299.313-4.412,3.42-1.453,6.404,6.442,3.364-.733.662-9.783,5.458,6.416,2.129-7.16,4.329,4.109,3.567,2.105,3.607-6.029,3.489,2.512,4.722-2.088,1.125,6.282,3.866.827.713,4.177-1.273,4.507,1.661,2.504,6.999,2.199-6.76,3.772,8.621,4.717-9.74,1.371-.259,3.368,3.683,6.131-2.825,2.446-.716,3.841-3.051,2.314-7.189-.474,5.852,8.275-9.297-1.966,3.389,6.683-.883,3.782-6.875-.414-.005,4.4.627,4.885-7.781-1.168,3.602,7.084-2.49,2.662-2.881,2.364-7.086-.832,1.325,5.527-1.177,3.652-3.003,2.238-5.04.599-2.903,2.265-2.893,2.258,2.032,6.344-4.487.94.851,5.481-3.995,1.323-.067,4.794-7.496-1.926,2.365,7.115-4.354.914-4.177.672-4.242.059.791,7.74-4.633-.706-4.288-1.022-2.62,3.071-3.838-.957-2.574,6.929-4.144-4.967-3.404-3.333-3.931,6.297-3.088-4.069-2.945-2.759-4.032,1.757-3.28-1.325-1.974-4.504-3.593-.237-3.559-.565-5.26,2.237-1.7-4.2-3.63-.969-.384-1.259-3.258,2.023-4.309,1.21-1.823,3.136,1.811,5.952-9.221-2.587.52,4.951,1.163,5.447-7.479-1.243-.055,4.506-.409,4.236-.477,4.182-2.391,2.697-7.922-1.584.034,4.577-2.064,2.956-5.197.527,1.354,5.598-3.681,1.702,2.086,6.168-5.081.618.286,4.773-6.225-.265-3.337,1.968.952,5.291-1.724,3.218-2.078,2.942-4.809.827,1.723,5.88-1.993,3.006-7.628-1.351-1.376,3.484-.968,3.805,2.431,6.434-8.673-2.158.077,4.613-3.735,1.664-3.741,1.662-.444,4.214-.849,3.895-5.23.509-.221,4.387-2.462,2.653-2.868,2.347-2.857,2.355.56,5.071-1.557,3.272v4.484s-7.33-1.124-7.33-1.124l1.19,5.574-.049,4.881-8.208-2.917,1.862,7.106-5.004-.251-4.346.012-.514,5.432-3.708.715-4.529-1.705-.068,10.304-4.535-1.589-3.761,1.64-4.052.385-3.23-5.051-3.64-.039-4.473,1.26-2.734-3.035.327-7.006-4.478.404-3.553-1.288-2.178-2.868-1.377-3.771ZM264.382,173.995l2.691-2.407,2.638-2.452-.633-5.26,6.326.721-2.655-7.008,1.608-3.336,7.08,1.363-2.067-6.499.652-4.166,7.001,1.296,3.58-1.647-3.86-8.047,5.344-.133-.596-5.235,8.947,2.965-2.497-6.875,4.798-.604,5.078-.371-1.091-5.676M304.342,210.477l2.869-2.235,2.821-2.285-.242-5.319,6.286,1.131-2.146-7.194,1.859-3.242,6.993,1.825-1.59-6.649.961-4.135,6.918,1.753,3.71-1.421-3.273-8.317,5.364.213-.206-5.291,8.739,3.557-1.994-7.053,4.852-.296,5.112-.04-.676-5.759.175-4.926,5.836.666" style="fill: #fff;"/>
  <path d="M98.46,407.542l-1.458-2.62-1.029-2.935-4.764-2.036,4.548-4.28-6.809-2.971-.864-3.852,6.603-2.915-5.066-4.565-1.235-4.252,6.97-1.739,2.74-2.755-6.166-6.495,5.162-1.759-1.796-5.06,9.404.915-3.727-6.31,4.674-1.439,4.969-1.063-1.753-5.509-.623-4.924,5.891-.239,4.515-1.103.861-3.826-3.023-6.846,6.835.803,1.485-3.358,5.295-.363-1.704-5.881,6.175.35-4.725-8.32,3.57-1.722,6.282.466,1.007-3.766,1.741-3.18,5.355-.248-.723-5.184,3.445-1.794.577-4.138,1.878-3.077.563-4.162,1.728-3.206,4.514-.898-.396-4.969,3.104-2.062,3.389-1.819,1.959-3.014,4.055-1.257.341-4.377,2.069-2.928,7.255,1.457-1.875-6.264,6.131.524-3.178-7.389,3.197-1.965,3.377-1.802,4.547-.798-.997-5.557,7.205,1.506-.334-4.993-1.219-5.77,8.986,3.085,2.025-2.949-1.54-4.572.826-6.615-5.96,1.43,1.475-5.992-6.319.69,1.253-5.041-3.944-1.648,1.214-4.329-4.255-2.004-5.665-2.228,8.254-5.302-7.933-2.552-1.96-3.776,5.145-3.531-3.807-4.125,4.964-2.833-2.981-4.491-.192-4.029,2.231-3.209,3.179-2.657,3.102-2.503-.122-4.165,1.68-3.246,2.676-2.601,5.547-.662-.818-4.927,6.831.296-4.196-7.324.685-3.985,5.73-.382,1.138-3.66-.081-4.584,4.464-1.213,4.465-1.162,1.459-3.442-2.127-6.287,8.415,2.047,3.584-1.723-1.758-6.111,6.168.449-2.491-6.865,2.25-2.871,1.016-3.985,3.689-1.595,2.917-2.27,2.342-2.803.566-4.568,7.13,2.005-.708-6.673,7.343,5.631,2.791-1.874,2.198-3.938,2.125-5.805,4.517,3.42,3.694,2.044,3.481-6.85,3.944,1.102,2.86,4.188,3.091,1.668,6.327-2.4,2.04,3.627-.653,5.481,3.362,1.898,1.288,3.354,1.835,3.082-2.291,4.264,4.247,2.609-4.702,3.956.294,3.178,5.725,3.573-3.876,3.143,3.6,4.121-2.891,3.011-.179-2.109,4.017,1.518,2.419-2.86,5.196,1.341,4.482.308-1-8.405,4.631.607,2.788-2.531,3.06-2.217,4.663,1.931,3.407-.41,3.144-1.667,4.633-5.253,2.643,5.355,2.344,2.917,1.339,3.337-2.105,4.395,1.553,2.773,8.865,2.136-3.733,4.135,2.668,3.614-7.296,3.419,2.595,3.66-3.936,3.109,3.871,4.061.889,3.793,2.854,4.286-4.268,1.299.313-4.412,3.42-1.453,6.404,6.442,3.364-.733.662-9.783,5.458,6.416,2.129-7.16,4.329,4.109,3.567,2.105,3.607-6.029,3.489,2.512,4.722-2.088,1.125,6.282,3.866.827.713,4.177-1.273,4.507,1.661,2.504,6.999,2.199-6.76,3.772,8.621,4.717-9.74,1.371-.259,3.368,3.683,6.131-2.825,2.446-.716,3.841-3.051,2.314-7.189-.474,5.852,8.275-9.297-1.966,3.389,6.683-.883,3.782-6.875-.414-.005,4.4.627,4.885-7.781-1.168,3.602,7.084-2.49,2.662-2.881,2.364-7.086-.832,1.325,5.527-1.177,3.652-3.003,2.238-5.04.599-2.903,2.265-2.893,2.258,2.032,6.344-4.487.94.851,5.481-3.995,1.323-.067,4.794-7.496-1.926,2.365,7.115-4.354.914-4.177.672-4.242.059.791,7.74-4.633-.706-4.288-1.022-2.62,3.071-3.838-.957-2.574,6.929-4.144-4.967-3.404-3.333-3.931,6.297-3.088-4.069-2.945-2.759-4.032,1.757-3.28-1.325-1.974-4.504-3.593-.237-3.559-.565-5.26,2.237-1.7-4.2-3.63-.969-.384-1.259-3.258,2.023-4.309,1.21-1.823,3.136,1.811,5.952-9.221-2.587.52,4.951,1.163,5.447-7.479-1.243-.055,4.506-.409,4.236-.477,4.182-2.391,2.697-7.922-1.584.034,4.577-2.064,2.956-5.197.527,1.354,5.598-3.681,1.702,2.086,6.168-5.081.618.286,4.773-6.225-.265-3.337,1.968.952,5.291-1.724,3.218-2.078,2.942-4.809.827,1.723,5.88-1.993,3.006-7.628-1.351-1.376,3.484-.968,3.805,2.431,6.434-8.673-2.158.077,4.613-3.735,1.664-3.741,1.662-.444,4.214-.849,3.895-5.23.509-.221,4.387-2.462,2.653-2.868,2.347-2.857,2.355.56,5.071-1.557,3.272v4.484s-7.33-1.124-7.33-1.124l1.19,5.574-.049,4.881-8.208-2.917,1.862,7.106-5.004-.251-4.346.012-.514,5.432-3.708.715-4.529-1.705-.068,10.304-4.535-1.589-3.761,1.64-4.052.385-3.23-5.051-3.64-.039-4.473,1.26-2.734-3.035.327-7.006-4.478.404-3.553-1.288-2.178-2.868-1.377-3.771ZM264.382,173.995l2.691-2.407,2.638-2.452-.633-5.26,6.326.721-2.655-7.008,1.608-3.336,7.08,1.363-2.067-6.499.652-4.166,7.001,1.296,3.58-1.647-3.86-8.047,5.344-.133-.596-5.235,8.947,2.965-2.497-6.875,4.798-.604,5.078-.371-1.091-5.676M304.342,210.477l2.869-2.235,2.821-2.285-.242-5.319,6.286,1.131-2.146-7.194,1.859-3.242,6.993,1.825-1.59-6.649.961-4.135,6.918,1.753,3.71-1.421-3.273-8.317,5.364.213-.206-5.291,8.739,3.557-1.994-7.053,4.852-.296,5.112-.04-.676-5.759.175-4.926,5.836.666" style="fill: none; stroke: #000; stroke-linecap: round; stroke-linejoin: round; stroke-width: 40px;"/>
</svg>