<?xml version="1.0" encoding="UTF-8"?>
<svg id="Big_Assets" data-name="Big Assets" xmlns="http://www.w3.org/2000/svg" width="3681.882" height="830.175" viewBox="0 0 3681.882 830.175">
  <g>
    <path d="M427.202,197.307c-5.121,5.103-4.996,2.402-11.857,8.593-3.023,2.728-8.046,4.334-12.251,7.934-3.346,2.864-3.918,9.741-7.96,13.042-3.518,2.872-7.807,5.339-11.819,8.47-3.638,2.84-7.316,6.068-11.338,9.068-3.737,2.788-11.22.702-15.27,3.587-3.824,2.724-5.369,8.897-9.455,11.673-3.904,2.652-7.84,5.48-11.97,8.149-3.979,2.572-8.035,5.229-12.212,7.791-4.052,2.484-9.9,2.062-14.127,4.512-4.122,2.389-8.807,3.744-13.086,6.078-4.192,2.286-7.056,7.073-11.388,9.285-4.26,2.175-7.339,6.895-11.726,8.978-4.327,2.055-10.78-.487-15.221,1.459-4.393,1.925-7.946,5.789-12.443,7.588-4.458,1.784-9.781,1.187-14.333,2.83-4.52,1.632-8.153,5.743-12.757,7.217-4.58,1.467-9.602,1.366-14.257,2.66s-9.226,2.509-13.929,3.609-9.035,3.641-13.781,4.533-9.027,4.918-13.809,5.587-9.766.613-14.576,1.045-9.7,1.649-14.528,1.829-9.771-2.159-14.604-2.244c-4.805-.084-9.536-2.2-14.361-2.561-4.788-.359-8.448,1.023-13.248.376,1.791,4.397,4.366,6.934,6.253,11.238,1.909,4.352,4.566,8.254,6.574,12.498,2.035,4.299,4.35,8.32,6.488,12.495,2.171,4.238,2.596,9.282,4.875,13.378,2.317,4.164,5.732,7.564,8.163,11.567,2.474,4.076,4.769,8.1,7.362,11.995,2.645,3.972,1.054,10.877,3.824,14.643,2.829,3.847,6.091,7.484,9.052,11.099,3.026,3.695,6.099,7.497,9.265,10.933,3.237,3.512,9.608,3.936,12.993,7.158,3.457,3.291,7.429,5.731,11.043,8.698,3.685,3.025,7.572,5.382,11.422,8.049,3.91,2.709,8.075,4.441,12.158,6.758,4.125,2.34,7.742,4.988,12.046,6.904,4.315,1.921,8.464,3.502,12.961,4.972,4.468,1.46,7.917,6.503,12.567,7.494,4.574.975,9.713-1.582,14.465-1.084,4.629.486,9.122,3.098,13.922,3.11,4.636.012,9.338-.628,14.136-1.076,4.603-.431,6.865.975,11.618.104-2.073,4.331-.228,7.47-2.416,11.521-2.282,4.222-7.188,6.837-9.593,10.765-2.504,4.09-5.78,7.446-8.414,11.23-2.736,3.93-4.964,7.988-7.837,11.602-2.975,3.742-2.769,10.151-5.886,13.568-3.214,3.524-7.477,6.148-10.838,9.345-3.445,3.277-9.801,3.122-13.396,6.074-3.663,3.007-7.493,5.383-11.307,8.072-3.861,2.722-4.248,10.744-8.258,13.16-4.033,2.431-8.67,4.192-12.848,6.334-4.179,2.142-8.479,4.463-12.798,6.337-4.297,1.866-10.143.067-14.573,1.688-4.392,1.607-7.72,6.614-12.237,8.001-4.465,1.371-9.251,2.152-13.833,3.328-4.52,1.16-9.266,1.878-13.895,2.867-4.562.974-9.381,1.093-14.045,1.919-4.592.813-9.591-.667-14.277.019-4.616.676-9.33.606-14.033,1.175-4.632.561-10.694,1.796-15.407,2.268,1.618,3.997,4.571,10.172,7.867,14.448,2.718,3.526,5.166,8.281,8.939,11.905,3.283,3.155,8.048,5.388,12.075,8.559,3.63,2.858,6.518,7.429,10.712,10.258,3.867,2.609,11.087.316,15.403,2.867,4.044,2.39,7.307,6.339,11.719,8.652,4.182,2.192,7.681,6.09,12.173,8.191,4.294,2.008,8.688,4.211,13.247,6.116,4.388,1.833,10.021.775,14.637,2.495,4.467,1.665,7.567,7.552,12.234,9.095,4.536,1.5,9.349,2.7,14.059,4.071,4.595,1.337,9.339,2.743,14.087,3.943,4.646,1.175,10.359-1.842,15.14-.81,4.69,1.012,8.733,5.649,13.542,6.512,4.727.848,9.601,1.59,14.433,2.283,4.758.682,9.65,1.292,14.499,1.812,4.782.513,9.818-.805,14.68-.458,4.801.342,9.606,2.185,14.475,2.354,4.812.167,9.737-.315,14.607-.327,4.817-.011,9.691-.918,14.555-1.113,4.814-.193,9.411-3.936,14.264-4.318,4.804-.378,9.607-.13,14.44-.702,4.786-.566,9.7-.021,14.506-.785,4.759-.757,9.016-4.015,13.788-4.974,4.724-.95,10.577,3.145,15.306,1.988,4.679-1.144,9.071-3.71,13.748-5.064,4.626-1.339,9.438-2.328,14.055-3.88,4.563-1.534,9.754-1.679,14.301-3.428,4.492-1.728,6.988-8.442,11.457-10.386,4.411-1.919,10.691.147,15.074-1.99,4.322-2.107,8.339-5.051,12.628-7.375,4.225-2.29,6.654-7.773,10.841-10.281,4.121-2.468,10.182-1.897,14.261-4.582,4.011-2.64,5.437-9.053,9.402-11.908,3.895-2.805,10.609-1.894,14.454-4.911,3.775-2.962,4.676-9.482,8.398-12.654,3.651-3.111,8.789-4.527,12.385-7.844" style="fill: #fff;"/>
    <path d="M427.202,197.307c-5.121,5.103-4.996,2.402-11.857,8.593-3.023,2.728-8.046,4.334-12.251,7.934-3.346,2.864-3.918,9.741-7.96,13.042-3.518,2.872-7.807,5.339-11.819,8.47-3.638,2.84-7.316,6.068-11.338,9.068-3.737,2.788-11.22.702-15.27,3.587-3.824,2.724-5.369,8.897-9.455,11.673-3.904,2.652-7.84,5.48-11.97,8.149-3.979,2.572-8.035,5.229-12.212,7.791-4.052,2.484-9.9,2.062-14.127,4.512-4.122,2.389-8.807,3.744-13.086,6.078-4.192,2.286-7.056,7.073-11.388,9.285-4.26,2.175-7.339,6.895-11.726,8.978-4.327,2.055-10.78-.487-15.221,1.459-4.393,1.925-7.946,5.789-12.443,7.588-4.458,1.784-9.781,1.187-14.333,2.83-4.52,1.632-8.153,5.743-12.757,7.217-4.58,1.467-9.602,1.366-14.257,2.66s-9.226,2.509-13.929,3.609-9.035,3.641-13.781,4.533-9.027,4.918-13.809,5.587-9.766.613-14.576,1.045-9.7,1.649-14.528,1.829-9.771-2.159-14.604-2.244c-4.805-.084-9.536-2.2-14.361-2.561-4.788-.359-8.448,1.023-13.248.376,1.791,4.397,4.366,6.934,6.253,11.238,1.909,4.352,4.566,8.254,6.574,12.498,2.035,4.299,4.35,8.32,6.488,12.495,2.171,4.238,2.596,9.282,4.875,13.378,2.317,4.164,5.732,7.564,8.163,11.567,2.474,4.076,4.769,8.1,7.362,11.995,2.645,3.972,1.054,10.877,3.824,14.643,2.829,3.847,6.091,7.484,9.052,11.099,3.026,3.695,6.099,7.497,9.265,10.933,3.237,3.512,9.608,3.936,12.993,7.158,3.457,3.291,7.429,5.731,11.043,8.698,3.685,3.025,7.572,5.382,11.422,8.049,3.91,2.709,8.075,4.441,12.158,6.758,4.125,2.34,7.742,4.988,12.046,6.904,4.315,1.921,8.464,3.502,12.961,4.972,4.468,1.46,7.917,6.503,12.567,7.494,4.574.975,9.713-1.582,14.465-1.084,4.629.486,9.122,3.098,13.922,3.11,4.636.012,9.338-.628,14.136-1.076,4.603-.431,6.865.975,11.618.104-2.073,4.331-.228,7.47-2.416,11.521-2.282,4.222-7.188,6.837-9.593,10.765-2.504,4.09-5.78,7.446-8.414,11.23-2.736,3.93-4.964,7.988-7.837,11.602-2.975,3.742-2.769,10.151-5.886,13.568-3.214,3.524-7.477,6.148-10.838,9.345-3.445,3.277-9.801,3.122-13.396,6.074-3.663,3.007-7.493,5.383-11.307,8.072-3.861,2.722-4.248,10.744-8.258,13.16-4.033,2.431-8.67,4.192-12.848,6.334-4.179,2.142-8.479,4.463-12.798,6.337-4.297,1.866-10.143.067-14.573,1.688-4.392,1.607-7.72,6.614-12.237,8.001-4.465,1.371-9.251,2.152-13.833,3.328-4.52,1.16-9.266,1.878-13.895,2.867-4.562.974-9.381,1.093-14.045,1.919-4.592.813-9.591-.667-14.277.019-4.616.676-9.33.606-14.033,1.175-4.632.561-10.694,1.796-15.407,2.268,1.618,3.997,4.571,10.172,7.867,14.448,2.718,3.526,5.166,8.281,8.939,11.905,3.283,3.155,8.048,5.388,12.075,8.559,3.63,2.858,6.518,7.429,10.712,10.258,3.867,2.609,11.087.316,15.403,2.867,4.044,2.39,7.307,6.339,11.719,8.652,4.182,2.192,7.681,6.09,12.173,8.191,4.294,2.008,8.688,4.211,13.247,6.116,4.388,1.833,10.021.775,14.637,2.495,4.467,1.665,7.567,7.552,12.234,9.095,4.536,1.5,9.349,2.7,14.059,4.071,4.595,1.337,9.339,2.743,14.087,3.943,4.646,1.175,10.359-1.842,15.14-.81,4.69,1.012,8.733,5.649,13.542,6.512,4.727.848,9.601,1.59,14.433,2.283,4.758.682,9.65,1.292,14.499,1.812,4.782.513,9.818-.805,14.68-.458,4.801.342,9.606,2.185,14.475,2.354,4.812.167,9.737-.315,14.607-.327,4.817-.011,9.691-.918,14.555-1.113,4.814-.193,9.411-3.936,14.264-4.318,4.804-.378,9.607-.13,14.44-.702,4.786-.566,9.7-.021,14.506-.785,4.759-.757,9.016-4.015,13.788-4.974,4.724-.95,10.577,3.145,15.306,1.988,4.679-1.144,9.071-3.71,13.748-5.064,4.626-1.339,9.438-2.328,14.055-3.88,4.563-1.534,9.754-1.679,14.301-3.428,4.492-1.728,6.988-8.442,11.457-10.386,4.411-1.919,10.691.147,15.074-1.99,4.322-2.107,8.339-5.051,12.628-7.375,4.225-2.29,6.654-7.773,10.841-10.281,4.121-2.468,10.182-1.897,14.261-4.582,4.011-2.64,5.437-9.053,9.402-11.908,3.895-2.805,10.609-1.894,14.454-4.911,3.775-2.962,4.676-9.482,8.398-12.654,3.651-3.111,8.789-4.527,12.385-7.844" style="fill: none; stroke: #000; stroke-linecap: round; stroke-linejoin: round; stroke-width: 45px;"/>
  </g>
  <g>
    <path d="M3217.663,182.632c5.121,5.103,2.399,4.968,9.259,11.158,3.023,2.728,5.274,7.549,9.48,11.149,3.346,2.864,10.184,2.202,14.226,5.502,3.518,2.872,6.773,6.443,10.785,9.575,3.638,2.84,7.632,5.476,11.653,8.476,3.737,2.788,4.05,10.567,8.099,13.452,3.824,2.724,10.195,2.068,14.281,4.844,3.904,2.652,8.007,5.161,12.137,7.83,3.979,2.572,8.087,5.062,12.264,7.623,4.052,2.484,6.487,7.853,10.714,10.303,4.122,2.389,7.843,5.769,12.121,8.103,4.192,2.286,9.856,2.008,14.188,4.22,4.26,2.175,9.832,1.724,14.219,3.807,4.327,2.055,6.645,8.606,11.086,10.551,4.393,1.925,9.734,1.794,14.231,3.594,4.458,1.784,8.149,5.817,12.701,7.46,4.52,1.632,10.017.635,14.622,2.11,4.58,1.467,8.798,4.337,13.453,5.631s9.39,2.465,14.093,3.565c4.687,1.096,9.775.548,14.52,1.44s9.952-1.572,14.734-.903,9.349,1.829,14.159,2.261c4.793.43,9.51-.169,14.338.011s9.484,2.621,14.318,2.536c4.805-.084,9.708,1.594,14.532,1.233,4.788-.359,10.719-2.738,15.519-3.385-1.791,4.397-2.894,10.568-4.781,14.871-1.909,4.352-3.167,9.051-5.176,13.294-2.035,4.299-3.893,8.76-6.031,12.935-2.171,4.238-6.194,7.533-8.473,11.629-2.317,4.164-3.647,8.938-6.077,12.942-2.474,4.076-5.247,8.03-7.84,11.925-2.645,3.972-9.651,4.815-12.421,8.581-2.829,3.847-5.356,7.681-8.317,11.296-3.026,3.695-6.144,7.033-9.31,10.469-3.237,3.512-3.485,9.832-6.87,13.054-3.457,3.291-6.557,7.121-10.171,10.088-3.685,3.025-7.329,6.372-11.179,9.039-3.91,2.709-7.739,6.015-11.822,8.331-4.125,2.34-8.935,3.961-13.238,5.876s-8.976,3.742-13.473,5.211c-4.468,1.46-10.136-1.119-14.785-.128-4.574.975-8.761,5.017-13.513,5.516-4.629.486-9.564-1.618-14.364-1.606-4.636.012-9.368.224-14.166-.225-4.603-.431-11.696-3.13-16.449-4.001,2.073,4.331,8.181,9.568,10.37,13.618,2.282,4.222,2.063,9.752,4.468,13.68,2.504,4.09,4.367,8.6,7.001,12.384,2.736,3.93,6.119,7.41,8.992,11.024,2.975,3.742,9.275,4.484,12.392,7.902,3.214,3.524,5.528,7.61,8.889,10.807,3.445,3.277,4.133,9.65,7.728,12.601,3.663,3.007,7.314,6.318,11.128,9.007,3.861,2.722,11.346-.171,15.356,2.245,4.033,2.431,7.611,5.232,11.79,7.374s8.378,3.829,12.696,5.704,7.183,7.142,11.614,8.763c4.392,1.607,9.975-.415,14.493.973,4.465,1.371,8.729,3.127,13.311,4.303,4.52,1.16,8.926,2.581,13.556,3.569,4.562.974,8.971,2.646,13.635,3.472,4.592.813,8.873,3.784,13.559,4.47,4.616.676,9.222,1.983,13.925,2.552,4.632.561,7.916.351,12.629.824-1.618,3.997-3.647,6.167-6.943,10.443-2.718,3.526-6.798,5.962-10.57,9.586-3.283,3.155-5.854,7.273-9.881,10.444-3.63,2.858-8.585,3.995-12.779,6.824-3.867,2.609-4.847,10.077-9.163,12.628-4.044,2.39-9.249,3.158-13.662,5.471-4.182,2.192-9.367,2.598-13.859,4.699-4.294,2.008-8.762,3.728-13.321,5.633-4.388,1.833-7.767,6.454-12.383,8.175-4.467,1.665-10.508-1.006-15.175.537-4.536,1.5-8.975,3.177-13.686,4.548-4.595,1.337-9.2,2.475-13.948,3.676-4.646,1.175-8.368,6.404-13.149,7.436-4.69,1.012-10.152-1.744-14.961-.882-4.727.848-9.417,1.652-14.249,2.344-4.758.682-9.478,1.28-14.328,1.801-4.782.513-9.395,2.696-14.257,3.042-4.801.342-9.669-.986-14.537-.817-4.812.167-9.574.81-14.443.798-4.817-.011-9.629.694-14.494.499-4.814-.193-9.888,2.98-14.741,2.598-4.804-.378-9.642-1.571-14.475-2.143-4.786-.566-9.468-2.438-14.274-3.202-4.759-.757-10.037.788-14.809-.171-4.724-.95-8.326-7.147-13.055-8.303-4.679-1.144-9.648-1.073-14.324-2.427-4.626-1.339-9.06-3.239-13.677-4.791-4.563-1.534-8.485-4.669-13.032-6.418-4.492-1.728-10.96,1.318-15.429-.627-4.411-1.919-6.929-8.037-11.312-10.174-4.322-2.107-8.92-3.592-13.209-5.917-4.225-2.29-10.213-1.603-14.4-4.111-4.121-2.468-6.264-8.19-10.343-10.875-4.011-2.64-10.563-1.719-14.527-4.574-3.895-2.805-4.924-9.535-8.769-12.552-3.775-2.962-10.373-2.572-14.096-5.744-3.651-3.111-5.762-8.12-9.358-11.437" style="fill: #fff;"/>
    <path d="M3217.663,182.632c5.121,5.103,2.399,4.968,9.259,11.158,3.023,2.728,5.274,7.549,9.48,11.149,3.346,2.864,10.184,2.202,14.226,5.502,3.518,2.872,6.773,6.443,10.785,9.575,3.638,2.84,7.632,5.476,11.653,8.476,3.737,2.788,4.05,10.567,8.099,13.452,3.824,2.724,10.195,2.068,14.281,4.844,3.904,2.652,8.007,5.161,12.137,7.83,3.979,2.572,8.087,5.062,12.264,7.623,4.052,2.484,6.487,7.853,10.714,10.303,4.122,2.389,7.843,5.769,12.121,8.103,4.192,2.286,9.856,2.008,14.188,4.22,4.26,2.175,9.832,1.724,14.219,3.807,4.327,2.055,6.645,8.606,11.086,10.551,4.393,1.925,9.734,1.794,14.231,3.594,4.458,1.784,8.149,5.817,12.701,7.46,4.52,1.632,10.017.635,14.622,2.11,4.58,1.467,8.798,4.337,13.453,5.631s9.39,2.465,14.093,3.565c4.687,1.096,9.775.548,14.52,1.44s9.952-1.572,14.734-.903,9.349,1.829,14.159,2.261c4.793.43,9.51-.169,14.338.011s9.484,2.621,14.318,2.536c4.805-.084,9.708,1.594,14.532,1.233,4.788-.359,10.719-2.738,15.519-3.385-1.791,4.397-2.894,10.568-4.781,14.871-1.909,4.352-3.167,9.051-5.176,13.294-2.035,4.299-3.893,8.76-6.031,12.935-2.171,4.238-6.194,7.533-8.473,11.629-2.317,4.164-3.647,8.938-6.077,12.942-2.474,4.076-5.247,8.03-7.84,11.925-2.645,3.972-9.651,4.815-12.421,8.581-2.829,3.847-5.356,7.681-8.317,11.296-3.026,3.695-6.144,7.033-9.31,10.469-3.237,3.512-3.485,9.832-6.87,13.054-3.457,3.291-6.557,7.121-10.171,10.088-3.685,3.025-7.329,6.372-11.179,9.039-3.91,2.709-7.739,6.015-11.822,8.331-4.125,2.34-8.935,3.961-13.238,5.876s-8.976,3.742-13.473,5.211c-4.468,1.46-10.136-1.119-14.785-.128-4.574.975-8.761,5.017-13.513,5.516-4.629.486-9.564-1.618-14.364-1.606-4.636.012-9.368.224-14.166-.225-4.603-.431-11.696-3.13-16.449-4.001,2.073,4.331,8.181,9.568,10.37,13.618,2.282,4.222,2.063,9.752,4.468,13.68,2.504,4.09,4.367,8.6,7.001,12.384,2.736,3.93,6.119,7.41,8.992,11.024,2.975,3.742,9.275,4.484,12.392,7.902,3.214,3.524,5.528,7.61,8.889,10.807,3.445,3.277,4.133,9.65,7.728,12.601,3.663,3.007,7.314,6.318,11.128,9.007,3.861,2.722,11.346-.171,15.356,2.245,4.033,2.431,7.611,5.232,11.79,7.374s8.378,3.829,12.696,5.704,7.183,7.142,11.614,8.763c4.392,1.607,9.975-.415,14.493.973,4.465,1.371,8.729,3.127,13.311,4.303,4.52,1.16,8.926,2.581,13.556,3.569,4.562.974,8.971,2.646,13.635,3.472,4.592.813,8.873,3.784,13.559,4.47,4.616.676,9.222,1.983,13.925,2.552,4.632.561,7.916.351,12.629.824-1.618,3.997-3.647,6.167-6.943,10.443-2.718,3.526-6.798,5.962-10.57,9.586-3.283,3.155-5.854,7.273-9.881,10.444-3.63,2.858-8.585,3.995-12.779,6.824-3.867,2.609-4.847,10.077-9.163,12.628-4.044,2.39-9.249,3.158-13.662,5.471-4.182,2.192-9.367,2.598-13.859,4.699-4.294,2.008-8.762,3.728-13.321,5.633-4.388,1.833-7.767,6.454-12.383,8.175-4.467,1.665-10.508-1.006-15.175.537-4.536,1.5-8.975,3.177-13.686,4.548-4.595,1.337-9.2,2.475-13.948,3.676-4.646,1.175-8.368,6.404-13.149,7.436-4.69,1.012-10.152-1.744-14.961-.882-4.727.848-9.417,1.652-14.249,2.344-4.758.682-9.478,1.28-14.328,1.801-4.782.513-9.395,2.696-14.257,3.042-4.801.342-9.669-.986-14.537-.817-4.812.167-9.574.81-14.443.798-4.817-.011-9.629.694-14.494.499-4.814-.193-9.888,2.98-14.741,2.598-4.804-.378-9.642-1.571-14.475-2.143-4.786-.566-9.468-2.438-14.274-3.202-4.759-.757-10.037.788-14.809-.171-4.724-.95-8.326-7.147-13.055-8.303-4.679-1.144-9.648-1.073-14.324-2.427-4.626-1.339-9.06-3.239-13.677-4.791-4.563-1.534-8.485-4.669-13.032-6.418-4.492-1.728-10.96,1.318-15.429-.627-4.411-1.919-6.929-8.037-11.312-10.174-4.322-2.107-8.92-3.592-13.209-5.917-4.225-2.29-10.213-1.603-14.4-4.111-4.121-2.468-6.264-8.19-10.343-10.875-4.011-2.64-10.563-1.719-14.527-4.574-3.895-2.805-4.924-9.535-8.769-12.552-3.775-2.962-10.373-2.572-14.096-5.744-3.651-3.111-5.762-8.12-9.358-11.437" style="fill: none; stroke: #000; stroke-linecap: round; stroke-linejoin: round; stroke-width: 45px;"/>
  </g>
  <g>
    <path d="M3251.256,627.046c-5.054,5.116-6.193-2.415-13.384-2.415s-7.189,5.795-14.379,5.795-7.189-1.863-14.378-1.863-7.189-1.939-14.378-1.939-7.189-.236-14.378-.236-7.189,3.056-14.378,3.056-7.189-4.525-14.378-4.525-7.189.283-14.379.283-7.19-.111-14.379-.111-7.19,4.242-14.38,4.242-7.191-3.765-14.381-3.765c-7.191,0-7.191.045-14.382.045s-7.192.005-14.384.005-7.193,1.762-14.385,1.762-7.192-1.585-14.384-1.585-7.191.564-14.383.564-7.191.805-14.382.805-7.19,3.467-14.381,3.467-7.19-.715-14.38-.715-7.19-1.213-14.38-1.213-7.19,2.454-14.379,2.454-7.19-5.269-14.379-5.269-7.19,1.348-14.379,1.348c-7.19,0-7.19-.491-14.38-.491s-7.19-1.622-14.38-1.622-7.19,5.27-14.381,5.27c-7.191,0-7.191-4.505-14.382-4.505s-7.192.781-14.383.781-7.192,3.562-14.385,3.562c-7.193,0-7.193-3.708-14.386-3.708s-7.192,4.474-14.384,4.474c-7.191,0-7.191-4.763-14.383-4.763-7.191,0-7.191,4.479-14.382,4.479s-7.19-2.349-14.381-2.349-7.19-3.191-14.38-3.191-7.19,3.949-14.38,3.949-7.19-2.221-14.38-2.221-7.19.576-14.38.576-7.19-.707-14.381-.707-7.191-1.542-14.382-1.542-7.191,4.861-14.383,4.861-7.192.643-14.384.643-7.193-5.836-14.386-5.836-7.193.586-14.385.586-7.192,5.448-14.384,5.448-7.191-2.404-14.383-2.404-7.191-.879-14.382-.879-7.191-1.33-14.381-1.33-7.19-.698-14.381-.698c-7.19,0-7.19,3.636-14.381,3.636-7.191,0-7.191.261-14.381.261-7.191,0-7.191-2.179-14.382-2.179s-7.191-.808-14.383-.808-7.192-.176-14.384-.176-7.193,3.109-14.386,3.109-7.193-3.133-14.386-3.133c-7.192,0-7.192,3.245-14.384,3.245-7.192,0-7.192-2.798-14.383-2.798s-7.191-2.173-14.382-2.173-7.191,6.565-14.382,6.565-7.191-5.193-14.382-5.193-7.191,2.27-14.382,2.27-7.191-1.247-14.382-1.247-7.192-.259-14.383-.259-7.192,3.937-14.385,3.937-7.193-5.566-14.386-5.566-7.193,3.383-14.386,3.383c-7.192,0-7.192-1.035-14.384-1.035s-7.192-1.348-14.383-1.348-7.191,2.061-14.382,2.061-7.191,2.917-14.382,2.917c-7.191,0-7.191-3.615-14.382-3.615s-7.192-2.93-14.383-2.93-7.192,6.761-14.384,6.761c-7.193,0-7.193-5.489-14.386-5.489s-7.193,2.36-14.387,2.36-7.193.54-14.385.54-7.192.516-14.384.516-7.192,1.341-14.383,1.341-7.191-5.504-14.383-5.504-7.192,5.925-14.383,5.925-7.192-4.713-14.384-4.713-7.192,1.616-14.385,1.616c-7.193,0-7.193.732-14.387.732s-7.193-1.872-14.386-1.872c-7.192,0-7.192,1.726-14.385,1.726s-7.192-3.34-14.384-3.34-7.192,4.078-14.383,4.078-7.192-.991-14.384-.991c-7.192,0-7.192.612-14.384.612-7.193,0-7.193.193-14.386.193s-7.194.656-14.387.656-7.193-3.193-14.386-3.193-7.192.634-14.385.634-7.192,3.922-14.384,3.922-7.192-3.356-14.384-3.356-7.192.196-14.385.196-7.193,3.163-14.386,3.163-7.194-4.407-14.388-4.407-7.193,2.762-14.386,2.762-7.192-.905-14.385-.905-7.192,2.609-14.384,2.609c-7.192,0-7.192-6.401-14.385-6.401s-7.193.923-14.386.923-7.194-.632-14.387-.632-7.193,4.022-14.386,4.022c-7.193,0-7.193-.709-14.385-.709s-7.192-2.324-14.385-2.324-7.192,4.525-14.385,4.525c-7.193,0-7.193-2.472-14.386-2.472s-7.194-.893-14.388-.893-7.193-.943-14.386-.943-7.193-.442-14.385-.442c-7.193,0-7.193,4.255-14.385,4.255s-7.193-5.353-14.386-5.353-7.194.484-14.388.484-7.193,6.037-14.386,6.037-7.193-6.649-14.385-6.649-7.193,3.817-14.385,3.817-7.193,1.312-14.386,1.312-7.194-2.414-14.388-2.414-7.193,1.737-14.386,1.737-7.193-2.827-14.386-2.827-7.193,4.68-14.386,4.68-7.194-3.132-14.388-3.132-7.193-2.798-14.387-2.798-7.193,6.576-14.386,6.576c-7.193,0-7.193-1.728-14.386-1.728s-7.194-3.796-14.388-3.796-7.193,5.484-14.387,5.484-7.193-.699-14.386-.699-7.193-4.383-14.387-4.383-7.194,1.944-14.388,1.944-7.193-.056-14.387-.056-7.193-.284-14.386-.284-7.194.551-14.388.551-7.194-1.267-14.387-1.267-7.193-2.523-14.386-2.523-7.194,2.647-14.388,2.647-7.194,2.468-14.387,2.468-7.193.77-14.387.77c-7.194,0-7.194-.738-14.388-.738s-7.194-.423-14.387-.423c-7.193,0-7.193-2.01-14.387-2.01-7.194,0-7.194.209-14.389.209s-7.191,2.996-14.382,2.996-7.193-2.223-14.386-2.223-7.193-.331-14.387-.331-7.192.817-14.383.817-7.191-1.766-14.382-1.766-7.192,3.518-14.384,3.518-7.194-.639-14.389-.639-7.193-3.985-14.385-3.985-7.192,3.442-14.383,3.442-7.192-3.529-14.385-3.529-7.195.881-14.389.881-7.193,2.42-14.385,2.42-7.192.416-14.384.416-7.193-.567-14.387-.567-7.194-1.425-14.388-1.425c-7.193,0-7.193,1.031-14.385,1.031s-7.193-.333-14.387-.333-7.194-2.509-14.388-2.509c-7.193,0-7.193,2.436-14.386,2.436s-7.194,2.162-14.388,2.162c-7.194,0-7.194-5.585-14.387-5.585s-7.193-.233-14.387-.233c-7.195,0-7.195.377-14.389.377s-7.193,2.268-14.387,2.268-7.195,1.804-14.391,1.804c-7.194,0-7.194-2.155-14.387-2.155-7.195,0-7.195.296-14.39.296s-7.194-.232-14.388-.232-7.195-2.028-14.389-2.028-7.195,2.033-14.39,2.033-7.194.557-14.389.557-7.195-.988-14.39-.988c-7.196,0-7.196,1.595-14.391,1.595s-7.195.554-14.39.554-7.195-3.497-14.39-3.497-7.195,1.494-14.39,1.494-7.195.536-14.39.536-7.195,1.826-14.391,1.826c-7.192,0-7.192-2.354-14.385-2.354-7.195,0-7.195,4.462-14.389,4.462s-7.196-2.784-14.391-2.784-7.195-2.083-14.389-2.083c-7.195,0-7.195,2.132-14.389,2.132s-7.196-.981-14.391-.981-7.197.342-14.393.342-7.195,2.339-14.391,2.339-7.196,1.128-14.392,1.128c-7.196,0-7.196-5.126-14.393-5.126s-7.197.608-14.394.608-7.195.274-14.39.274-7.198,1.746-14.395,1.746-7.195.836-14.391.836-7.2-4.006-14.401-4.006c-7.2,0-7.184,5.387-12.253.273-5.113-5.158-.256-5.134-.256-12.397s-2.2-7.265-2.2-14.529c0-7.264.696-7.264.696-14.528,0-7.264,1.723-7.264,1.723-14.527,0-7.265-5.345-7.265-5.345-14.53,0-7.264,2.862-7.264,2.862-14.527,0-7.266-2.539-7.266-2.539-14.531,0-7.264,2.119-7.264,2.119-14.528s2.355-7.266,2.355-14.531c0-7.264-.225-7.264-.225-14.529s1.241-7.265,1.241-14.53c0-7.265-5.652-7.265-5.652-14.53,0-7.265,1.173-7.265,1.173-14.529,0-7.265,1.783-7.265,1.783-14.53,0-7.266-1.043-7.266-1.043-14.532,0-7.265,3.071-7.265,3.071-14.531,0-7.265-5.211-7.265-5.211-14.53,0-7.265,2.784-7.265,2.784-14.53,0-7.265,1.827-7.265,1.827-14.531,0-7.266-.464-7.266-.464-14.531,0-7.263-2.931-7.263-2.931-14.525,0-7.265.654-7.265.654-14.53,0-7.266,3.325-7.266,3.325-14.532,0-7.265.737-7.265.737-14.53,0-7.265-5.131-7.265-5.131-14.53,0-7.266.946-7.266.946-14.532s2.173-7.267,2.173-14.534c0-7.266-2.885-7.266-2.885-14.531,0-7.266,4.301-7.266,4.301-14.533,0-7.267-5.176-7.267-5.176-14.533,0-7.268,3.718-7.268,3.718-14.535,0-7.266-3.302-7.266-3.302-14.531s.828-7.268.828-14.536c0-7.266,3.12-7.266,3.12-14.531,0-7.271-2.904-7.271-2.904-14.541,0-7.271-1.399-7.36,3.714-12.529,5.057-5.113,5.158,1.425,12.349,1.425s7.189-1.623,14.379-1.623,7.189-3.467,14.378-3.467,7.189,1.345,14.378,1.345,7.189,3.231,14.378,3.231,7.189-.234,14.378-.234,7.189-2.82,14.378-2.82,7.189-.866,14.379-.866,7.19,3.895,14.379,3.895,7.19-1.26,14.38-1.26,7.191-3.166,14.381-3.166,7.191-.141,14.382-.141,7.192,1.278,14.384,1.278,7.193,3.307,14.385,3.307,7.192-3.054,14.384-3.054,7.191-2.191,14.383-2.191,7.191-.399,14.382-.399,7.19,5.794,14.381,5.794,7.19-5.731,14.38-5.731,7.19,5.699,14.38,5.699,7.19-5.409,14.379-5.409,7.19.982,14.379.982,7.19,2.53,14.379,2.53,7.19.315,14.38.315,7.19-3.075,14.38-3.075,7.19-.521,14.381-.521,7.191,3.499,14.382,3.499,7.192-1.413,14.383-1.413,7.192-.48,14.385-.48,7.193,2.211,14.386,2.211,7.192-.156,14.384-.156,7.191-1.033,14.383-1.033,7.191-1.968,14.382-1.968,7.19-.091,14.381-.091,7.19-.886,14.38-.886,7.19-1.012,14.38-1.012,7.19,5.935,14.38,5.935,7.19-1.546,14.38-1.546,7.19-3.738,14.381-3.738,7.191,5.878,14.382,5.878,7.191-1.43,14.383-1.43,7.192.978,14.384.978,7.193-5.942,14.386-5.942,7.193,6.099,14.385,6.099,7.192.523,14.384.523,7.191-3.433,14.383-3.433,7.191,2.779,14.382,2.779,7.191-.303,14.381-.303,7.19-1.283,14.381-1.283,7.19-1.531,14.381-1.531,7.191,2.548,14.381,2.548,7.191-4.671,14.382-4.671,7.191.587,14.383.587,7.192-.337,14.384-.337,7.193,5.692,14.386,5.692,7.193-5.158,14.386-5.158,7.192,3.723,14.384,3.723,7.192.668,14.383.668,7.191-.499,14.382-.499,7.191-3.713,14.382-3.713,7.191.339,14.382.339,7.191-1.526,14.382-1.526,7.191,4.764,14.382,4.764,7.192-4.766,14.383-4.766,7.192-.036,14.385-.036,7.193.465,14.386.465,7.193,2.449,14.386,2.449,7.192-.733,14.384-.733,7.192-2.296,14.383-2.296,7.191,1.205,14.382,1.205,7.191-1.095,14.382-1.095,7.191.534,14.382.534,7.192,4.484,14.383,4.484,7.192-.029,14.384-.029,7.193-4.032,14.386-4.032,7.193,5.228,14.387,5.228,7.193-3.392,14.385-3.392,7.192-3.101,14.384-3.101,7.192,3.336,14.383,3.336,7.191,1.871,14.383,1.871,7.192-.956,14.383-.956,7.192-3.374,14.384-3.374,7.192-.406,14.385-.406,7.193,2.28,14.387,2.28,7.193-1.218,14.386-1.218,7.192-.706,14.385-.706,7.192.264,14.384.264,7.192,2.084,14.383,2.084,7.192.667,14.384.667,7.192.803,14.384.803,7.193-.752,14.386-.752,7.194,1.673,14.387,1.673,7.193-.946,14.386-.946,7.192-3.821,14.385-3.821,7.192,5.054,14.384,5.054,7.192-2.548,14.384-2.548,7.192,2.687,14.385,2.687,7.193-6.074,14.386-6.074,7.194,1.158,14.388,1.158,7.193.274,14.386.274,7.192,5.151,14.385,5.151,7.192-6.741,14.384-6.741,7.192,2.901,14.385,2.901,7.193-2.072,14.386-2.072,7.194,3.295,14.387,3.295,7.193,2.071,14.386,2.071,7.193-1.722,14.385-1.722,7.192-4.443,14.385-4.443,7.192,4.988,14.385,4.988,7.193-1.486,14.386-1.486,7.194,1.002,14.388,1.002,7.193,1.878,14.386,1.878,7.193-4.415,14.385-4.415,7.193-1.919,14.385-1.919,7.193,3.215,14.386,3.215,7.194-2.916,14.388-2.916,7.193.476,14.386.476,7.193,3.052,14.385,3.052,7.193.225,14.385.225,7.193,2.307,14.386,2.307,7.194-3.897,14.388-3.897,7.193,3.174,14.386,3.174,7.193.644,14.386.644,7.193-.507,14.386-.507,7.194-4.193,14.388-4.193,7.193.474,14.387.474,7.193-1.714,14.386-1.714,7.193,3.603,14.386,3.603,7.194-.109,14.388-.109,7.193-3.95,14.387-3.95,7.193,1.236,14.386,1.236,7.193.977,14.387.977,7.194,3.261,14.388,3.261,7.193-4.266,14.387-4.266,7.193,3.417,14.386,3.417,7.194-.236,14.388-.236,7.194,2.037,14.387,2.037,7.193.503,14.386.503,7.194-5.922,14.388-5.922,7.194,4.274,14.387,4.274,7.193-3.505,14.387-3.505,7.194,3.496,14.388,3.496,7.194-4.462,14.387-4.462,7.193,5.137,14.387,5.137,7.194-5.281,14.389-5.281,7.191,1.531,14.382,1.531,7.193.593,14.386.593,7.193.147,14.387.147,7.192.344,14.383.344,7.191.991,14.382.991,7.192-4.069,14.384-4.069,7.194,4.65,14.389,4.65,7.193-4.247,14.385-4.247,7.192,4.943,14.383,4.943,7.192-1.037,14.385-1.037,7.195-3.628,14.389-3.628,7.193,2.118,14.385,2.118,7.192,3.383,14.384,3.383,7.193.41,14.387.41,7.194-1.455,14.388-1.455,7.193-3.357,14.385-3.357,7.193,2.468,14.387,2.468,7.194-.947,14.388-.947,7.193,1.219,14.386,1.219,7.194-.601,14.388-.601,7.194,2.621,14.387,2.621,7.193-.005,14.387-.005,7.195-5.382,14.389-5.382,7.193,5.12,14.387,5.12,7.195-3.632,14.391-3.632,7.194,1.83,14.387,1.83,7.195-3.561,14.39-3.561,7.194,2.333,14.388,2.333,7.195.805,14.389.805,7.195-1.92,14.39-1.92,7.194,3.946,14.389,3.946,7.195.198,14.39.198,7.196-.455,14.391-.455,7.195-2.715,14.39-2.715,7.195-2.253,14.39-2.253,7.195,4.436,14.39,4.436,7.195-1.959,14.39-1.959,7.195,3.11,14.391,3.11,7.192-1.873,14.385-1.873,7.195-4.285,14.389-4.285,7.196,4.148,14.391,4.148,7.195.858,14.389.858,7.195-.193,14.389-.193,7.196-1.12,14.391-1.12,7.197-2.199,14.393-2.199,7.195,3.749,14.391,3.749,7.196-3.987,14.392-3.987,7.196,2.382,14.393,2.382,7.197,2.687,14.394,2.687,7.195-4.645,14.39-4.645,7.198,1.717,14.395,1.717,7.195-1.7,14.391-1.7,7.2,1.785,14.401,1.785,11.41-7.681,16.492-2.58c5.101,5.12.919,9.311.919,16.539s-.328,7.229-.328,14.457-5.642,7.227-5.642,14.453,4.626,7.229,4.626,14.458-.989,7.227-.989,14.454c0,7.232-2.085,7.232-2.085,14.464s-1.276,7.232-1.276,14.464c0,7.272,3.861,7.272,3.86,14.545s1.526,7.274,1.526,14.548-6.151,7.273-6.151,14.546.435,7.273.435,14.547,3.774,7.274,3.774,14.547,1.959,7.273,1.959,14.546-2.175,7.274-2.175,14.547-.004,7.274-.004,14.549c0,7.274.132,7.274.132,14.548s-.629,7.274-.629,14.547c0,7.274-3.459,7.274-3.459,14.547s.298,7.274.298,14.548,3.645,7.274,3.645,14.548,2.826,7.271,2.826,14.543-6.361,7.273-6.361,14.547,1.498,7.274,1.498,14.549,2,7.273,2,14.547-3.614,7.273-3.614,14.547c0,7.274,4.077,7.274,4.077,14.549s-1.09,7.275-1.09,14.551-2.261,7.274-2.261,14.548,2.937,7.275,2.937,14.55-2.078,7.275-2.078,14.55,4.033,7.276,4.033,14.552-1.38,7.274-1.38,14.548.938,7.277.938,14.553-.82,7.274-.82,14.549-4.428,7.736-3.143,14.901c1.277,7.121,6.026,8.051.91,13.229Z" style="fill: #fff;"/>
    <path d="M3251.256,627.046c-5.054,5.116-6.193-2.415-13.384-2.415s-7.189,5.795-14.379,5.795-7.189-1.863-14.378-1.863-7.189-1.939-14.378-1.939-7.189-.236-14.378-.236-7.189,3.056-14.378,3.056-7.189-4.525-14.378-4.525-7.189.283-14.379.283-7.19-.111-14.379-.111-7.19,4.242-14.38,4.242-7.191-3.765-14.381-3.765c-7.191,0-7.191.045-14.382.045s-7.192.005-14.384.005-7.193,1.762-14.385,1.762-7.192-1.585-14.384-1.585-7.191.564-14.383.564-7.191.805-14.382.805-7.19,3.467-14.381,3.467-7.19-.715-14.38-.715-7.19-1.213-14.38-1.213-7.19,2.454-14.379,2.454-7.19-5.269-14.379-5.269-7.19,1.348-14.379,1.348c-7.19,0-7.19-.491-14.38-.491s-7.19-1.622-14.38-1.622-7.19,5.27-14.381,5.27c-7.191,0-7.191-4.505-14.382-4.505s-7.192.781-14.383.781-7.192,3.562-14.385,3.562c-7.193,0-7.193-3.708-14.386-3.708s-7.192,4.474-14.384,4.474c-7.191,0-7.191-4.763-14.383-4.763-7.191,0-7.191,4.479-14.382,4.479s-7.19-2.349-14.381-2.349-7.19-3.191-14.38-3.191-7.19,3.949-14.38,3.949-7.19-2.221-14.38-2.221-7.19.576-14.38.576-7.19-.707-14.381-.707-7.191-1.542-14.382-1.542-7.191,4.861-14.383,4.861-7.192.643-14.384.643-7.193-5.836-14.386-5.836-7.193.586-14.385.586-7.192,5.448-14.384,5.448-7.191-2.404-14.383-2.404-7.191-.879-14.382-.879-7.191-1.33-14.381-1.33-7.19-.698-14.381-.698c-7.19,0-7.19,3.636-14.381,3.636-7.191,0-7.191.261-14.381.261-7.191,0-7.191-2.179-14.382-2.179s-7.191-.808-14.383-.808-7.192-.176-14.384-.176-7.193,3.109-14.386,3.109-7.193-3.133-14.386-3.133c-7.192,0-7.192,3.245-14.384,3.245-7.192,0-7.192-2.798-14.383-2.798s-7.191-2.173-14.382-2.173-7.191,6.565-14.382,6.565-7.191-5.193-14.382-5.193-7.191,2.27-14.382,2.27-7.191-1.247-14.382-1.247-7.192-.259-14.383-.259-7.192,3.937-14.385,3.937-7.193-5.566-14.386-5.566-7.193,3.383-14.386,3.383c-7.192,0-7.192-1.035-14.384-1.035s-7.192-1.348-14.383-1.348-7.191,2.061-14.382,2.061-7.191,2.917-14.382,2.917c-7.191,0-7.191-3.615-14.382-3.615s-7.192-2.93-14.383-2.93-7.192,6.761-14.384,6.761c-7.193,0-7.193-5.489-14.386-5.489s-7.193,2.36-14.387,2.36-7.193.54-14.385.54-7.192.516-14.384.516-7.192,1.341-14.383,1.341-7.191-5.504-14.383-5.504-7.192,5.925-14.383,5.925-7.192-4.713-14.384-4.713-7.192,1.616-14.385,1.616c-7.193,0-7.193.732-14.387.732s-7.193-1.872-14.386-1.872c-7.192,0-7.192,1.726-14.385,1.726s-7.192-3.34-14.384-3.34-7.192,4.078-14.383,4.078-7.192-.991-14.384-.991c-7.192,0-7.192.612-14.384.612-7.193,0-7.193.193-14.386.193s-7.194.656-14.387.656-7.193-3.193-14.386-3.193-7.192.634-14.385.634-7.192,3.922-14.384,3.922-7.192-3.356-14.384-3.356-7.192.196-14.385.196-7.193,3.163-14.386,3.163-7.194-4.407-14.388-4.407-7.193,2.762-14.386,2.762-7.192-.905-14.385-.905-7.192,2.609-14.384,2.609c-7.192,0-7.192-6.401-14.385-6.401s-7.193.923-14.386.923-7.194-.632-14.387-.632-7.193,4.022-14.386,4.022c-7.193,0-7.193-.709-14.385-.709s-7.192-2.324-14.385-2.324-7.192,4.525-14.385,4.525c-7.193,0-7.193-2.472-14.386-2.472s-7.194-.893-14.388-.893-7.193-.943-14.386-.943-7.193-.442-14.385-.442c-7.193,0-7.193,4.255-14.385,4.255s-7.193-5.353-14.386-5.353-7.194.484-14.388.484-7.193,6.037-14.386,6.037-7.193-6.649-14.385-6.649-7.193,3.817-14.385,3.817-7.193,1.312-14.386,1.312-7.194-2.414-14.388-2.414-7.193,1.737-14.386,1.737-7.193-2.827-14.386-2.827-7.193,4.68-14.386,4.68-7.194-3.132-14.388-3.132-7.193-2.798-14.387-2.798-7.193,6.576-14.386,6.576c-7.193,0-7.193-1.728-14.386-1.728s-7.194-3.796-14.388-3.796-7.193,5.484-14.387,5.484-7.193-.699-14.386-.699-7.193-4.383-14.387-4.383-7.194,1.944-14.388,1.944-7.193-.056-14.387-.056-7.193-.284-14.386-.284-7.194.551-14.388.551-7.194-1.267-14.387-1.267-7.193-2.523-14.386-2.523-7.194,2.647-14.388,2.647-7.194,2.468-14.387,2.468-7.193.77-14.387.77c-7.194,0-7.194-.738-14.388-.738s-7.194-.423-14.387-.423c-7.193,0-7.193-2.01-14.387-2.01-7.194,0-7.194.209-14.389.209s-7.191,2.996-14.382,2.996-7.193-2.223-14.386-2.223-7.193-.331-14.387-.331-7.192.817-14.383.817-7.191-1.766-14.382-1.766-7.192,3.518-14.384,3.518-7.194-.639-14.389-.639-7.193-3.985-14.385-3.985-7.192,3.442-14.383,3.442-7.192-3.529-14.385-3.529-7.195.881-14.389.881-7.193,2.42-14.385,2.42-7.192.416-14.384.416-7.193-.567-14.387-.567-7.194-1.425-14.388-1.425c-7.193,0-7.193,1.031-14.385,1.031s-7.193-.333-14.387-.333-7.194-2.509-14.388-2.509c-7.193,0-7.193,2.436-14.386,2.436s-7.194,2.162-14.388,2.162c-7.194,0-7.194-5.585-14.387-5.585s-7.193-.233-14.387-.233c-7.195,0-7.195.377-14.389.377s-7.193,2.268-14.387,2.268-7.195,1.804-14.391,1.804c-7.194,0-7.194-2.155-14.387-2.155-7.195,0-7.195.296-14.39.296s-7.194-.232-14.388-.232-7.195-2.028-14.389-2.028-7.195,2.033-14.39,2.033-7.194.557-14.389.557-7.195-.988-14.39-.988c-7.196,0-7.196,1.595-14.391,1.595s-7.195.554-14.39.554-7.195-3.497-14.39-3.497-7.195,1.494-14.39,1.494-7.195.536-14.39.536-7.195,1.826-14.391,1.826c-7.192,0-7.192-2.354-14.385-2.354-7.195,0-7.195,4.462-14.389,4.462s-7.196-2.784-14.391-2.784-7.195-2.083-14.389-2.083c-7.195,0-7.195,2.132-14.389,2.132s-7.196-.981-14.391-.981-7.197.342-14.393.342-7.195,2.339-14.391,2.339-7.196,1.128-14.392,1.128c-7.196,0-7.196-5.126-14.393-5.126s-7.197.608-14.394.608-7.195.274-14.39.274-7.198,1.746-14.395,1.746-7.195.836-14.391.836-7.2-4.006-14.401-4.006c-7.2,0-7.184,5.387-12.253.273-5.113-5.158-.256-5.134-.256-12.397s-2.2-7.265-2.2-14.529c0-7.264.696-7.264.696-14.528,0-7.264,1.723-7.264,1.723-14.527,0-7.265-5.345-7.265-5.345-14.53,0-7.264,2.862-7.264,2.862-14.527,0-7.266-2.539-7.266-2.539-14.531,0-7.264,2.119-7.264,2.119-14.528s2.355-7.266,2.355-14.531c0-7.264-.225-7.264-.225-14.529s1.241-7.265,1.241-14.53c0-7.265-5.652-7.265-5.652-14.53,0-7.265,1.173-7.265,1.173-14.529,0-7.265,1.783-7.265,1.783-14.53,0-7.266-1.043-7.266-1.043-14.532,0-7.265,3.071-7.265,3.071-14.531,0-7.265-5.211-7.265-5.211-14.53,0-7.265,2.784-7.265,2.784-14.53,0-7.265,1.827-7.265,1.827-14.531,0-7.266-.464-7.266-.464-14.531,0-7.263-2.931-7.263-2.931-14.525,0-7.265.654-7.265.654-14.53,0-7.266,3.325-7.266,3.325-14.532,0-7.265.737-7.265.737-14.53,0-7.265-5.131-7.265-5.131-14.53,0-7.266.946-7.266.946-14.532s2.173-7.267,2.173-14.534c0-7.266-2.885-7.266-2.885-14.531,0-7.266,4.301-7.266,4.301-14.533,0-7.267-5.176-7.267-5.176-14.533,0-7.268,3.718-7.268,3.718-14.535,0-7.266-3.302-7.266-3.302-14.531s.828-7.268.828-14.536c0-7.266,3.12-7.266,3.12-14.531,0-7.271-2.904-7.271-2.904-14.541,0-7.271-1.399-7.36,3.714-12.529,5.057-5.113,5.158,1.425,12.349,1.425s7.189-1.623,14.379-1.623,7.189-3.467,14.378-3.467,7.189,1.345,14.378,1.345,7.189,3.231,14.378,3.231,7.189-.234,14.378-.234,7.189-2.82,14.378-2.82,7.189-.866,14.379-.866,7.19,3.895,14.379,3.895,7.19-1.26,14.38-1.26,7.191-3.166,14.381-3.166,7.191-.141,14.382-.141,7.192,1.278,14.384,1.278,7.193,3.307,14.385,3.307,7.192-3.054,14.384-3.054,7.191-2.191,14.383-2.191,7.191-.399,14.382-.399,7.19,5.794,14.381,5.794,7.19-5.731,14.38-5.731,7.19,5.699,14.38,5.699,7.19-5.409,14.379-5.409,7.19.982,14.379.982,7.19,2.53,14.379,2.53,7.19.315,14.38.315,7.19-3.075,14.38-3.075,7.19-.521,14.381-.521,7.191,3.499,14.382,3.499,7.192-1.413,14.383-1.413,7.192-.48,14.385-.48,7.193,2.211,14.386,2.211,7.192-.156,14.384-.156,7.191-1.033,14.383-1.033,7.191-1.968,14.382-1.968,7.19-.091,14.381-.091,7.19-.886,14.38-.886,7.19-1.012,14.38-1.012,7.19,5.935,14.38,5.935,7.19-1.546,14.38-1.546,7.19-3.738,14.381-3.738,7.191,5.878,14.382,5.878,7.191-1.43,14.383-1.43,7.192.978,14.384.978,7.193-5.942,14.386-5.942,7.193,6.099,14.385,6.099,7.192.523,14.384.523,7.191-3.433,14.383-3.433,7.191,2.779,14.382,2.779,7.191-.303,14.381-.303,7.19-1.283,14.381-1.283,7.19-1.531,14.381-1.531,7.191,2.548,14.381,2.548,7.191-4.671,14.382-4.671,7.191.587,14.383.587,7.192-.337,14.384-.337,7.193,5.692,14.386,5.692,7.193-5.158,14.386-5.158,7.192,3.723,14.384,3.723,7.192.668,14.383.668,7.191-.499,14.382-.499,7.191-3.713,14.382-3.713,7.191.339,14.382.339,7.191-1.526,14.382-1.526,7.191,4.764,14.382,4.764,7.192-4.766,14.383-4.766,7.192-.036,14.385-.036,7.193.465,14.386.465,7.193,2.449,14.386,2.449,7.192-.733,14.384-.733,7.192-2.296,14.383-2.296,7.191,1.205,14.382,1.205,7.191-1.095,14.382-1.095,7.191.534,14.382.534,7.192,4.484,14.383,4.484,7.192-.029,14.384-.029,7.193-4.032,14.386-4.032,7.193,5.228,14.387,5.228,7.193-3.392,14.385-3.392,7.192-3.101,14.384-3.101,7.192,3.336,14.383,3.336,7.191,1.871,14.383,1.871,7.192-.956,14.383-.956,7.192-3.374,14.384-3.374,7.192-.406,14.385-.406,7.193,2.28,14.387,2.28,7.193-1.218,14.386-1.218,7.192-.706,14.385-.706,7.192.264,14.384.264,7.192,2.084,14.383,2.084,7.192.667,14.384.667,7.192.803,14.384.803,7.193-.752,14.386-.752,7.194,1.673,14.387,1.673,7.193-.946,14.386-.946,7.192-3.821,14.385-3.821,7.192,5.054,14.384,5.054,7.192-2.548,14.384-2.548,7.192,2.687,14.385,2.687,7.193-6.074,14.386-6.074,7.194,1.158,14.388,1.158,7.193.274,14.386.274,7.192,5.151,14.385,5.151,7.192-6.741,14.384-6.741,7.192,2.901,14.385,2.901,7.193-2.072,14.386-2.072,7.194,3.295,14.387,3.295,7.193,2.071,14.386,2.071,7.193-1.722,14.385-1.722,7.192-4.443,14.385-4.443,7.192,4.988,14.385,4.988,7.193-1.486,14.386-1.486,7.194,1.002,14.388,1.002,7.193,1.878,14.386,1.878,7.193-4.415,14.385-4.415,7.193-1.919,14.385-1.919,7.193,3.215,14.386,3.215,7.194-2.916,14.388-2.916,7.193.476,14.386.476,7.193,3.052,14.385,3.052,7.193.225,14.385.225,7.193,2.307,14.386,2.307,7.194-3.897,14.388-3.897,7.193,3.174,14.386,3.174,7.193.644,14.386.644,7.193-.507,14.386-.507,7.194-4.193,14.388-4.193,7.193.474,14.387.474,7.193-1.714,14.386-1.714,7.193,3.603,14.386,3.603,7.194-.109,14.388-.109,7.193-3.95,14.387-3.95,7.193,1.236,14.386,1.236,7.193.977,14.387.977,7.194,3.261,14.388,3.261,7.193-4.266,14.387-4.266,7.193,3.417,14.386,3.417,7.194-.236,14.388-.236,7.194,2.037,14.387,2.037,7.193.503,14.386.503,7.194-5.922,14.388-5.922,7.194,4.274,14.387,4.274,7.193-3.505,14.387-3.505,7.194,3.496,14.388,3.496,7.194-4.462,14.387-4.462,7.193,5.137,14.387,5.137,7.194-5.281,14.389-5.281,7.191,1.531,14.382,1.531,7.193.593,14.386.593,7.193.147,14.387.147,7.192.344,14.383.344,7.191.991,14.382.991,7.192-4.069,14.384-4.069,7.194,4.65,14.389,4.65,7.193-4.247,14.385-4.247,7.192,4.943,14.383,4.943,7.192-1.037,14.385-1.037,7.195-3.628,14.389-3.628,7.193,2.118,14.385,2.118,7.192,3.383,14.384,3.383,7.193.41,14.387.41,7.194-1.455,14.388-1.455,7.193-3.357,14.385-3.357,7.193,2.468,14.387,2.468,7.194-.947,14.388-.947,7.193,1.219,14.386,1.219,7.194-.601,14.388-.601,7.194,2.621,14.387,2.621,7.193-.005,14.387-.005,7.195-5.382,14.389-5.382,7.193,5.12,14.387,5.12,7.195-3.632,14.391-3.632,7.194,1.83,14.387,1.83,7.195-3.561,14.39-3.561,7.194,2.333,14.388,2.333,7.195.805,14.389.805,7.195-1.92,14.39-1.92,7.194,3.946,14.389,3.946,7.195.198,14.39.198,7.196-.455,14.391-.455,7.195-2.715,14.39-2.715,7.195-2.253,14.39-2.253,7.195,4.436,14.39,4.436,7.195-1.959,14.39-1.959,7.195,3.11,14.391,3.11,7.192-1.873,14.385-1.873,7.195-4.285,14.389-4.285,7.196,4.148,14.391,4.148,7.195.858,14.389.858,7.195-.193,14.389-.193,7.196-1.12,14.391-1.12,7.197-2.199,14.393-2.199,7.195,3.749,14.391,3.749,7.196-3.987,14.392-3.987,7.196,2.382,14.393,2.382,7.197,2.687,14.394,2.687,7.195-4.645,14.39-4.645,7.198,1.717,14.395,1.717,7.195-1.7,14.391-1.7,7.2,1.785,14.401,1.785,11.41-7.681,16.492-2.58c5.101,5.12.919,9.311.919,16.539s-.328,7.229-.328,14.457-5.642,7.227-5.642,14.453,4.626,7.229,4.626,14.458-.989,7.227-.989,14.454c0,7.232-2.085,7.232-2.085,14.464s-1.276,7.232-1.276,14.464c0,7.272,3.861,7.272,3.86,14.545s1.526,7.274,1.526,14.548-6.151,7.273-6.151,14.546.435,7.273.435,14.547,3.774,7.274,3.774,14.547,1.959,7.273,1.959,14.546-2.175,7.274-2.175,14.547-.004,7.274-.004,14.549c0,7.274.132,7.274.132,14.548s-.629,7.274-.629,14.547c0,7.274-3.459,7.274-3.459,14.547s.298,7.274.298,14.548,3.645,7.274,3.645,14.548,2.826,7.271,2.826,14.543-6.361,7.273-6.361,14.547,1.498,7.274,1.498,14.549,2,7.273,2,14.547-3.614,7.273-3.614,14.547c0,7.274,4.077,7.274,4.077,14.549s-1.09,7.275-1.09,14.551-2.261,7.274-2.261,14.548,2.937,7.275,2.937,14.55-2.078,7.275-2.078,14.55,4.033,7.276,4.033,14.552-1.38,7.274-1.38,14.548.938,7.277.938,14.553-.82,7.274-.82,14.549-4.428,7.736-3.143,14.901c1.277,7.121,6.026,8.051.91,13.229Z" style="fill: none; stroke: #000; stroke-linecap: round; stroke-linejoin: round; stroke-width: 45px;"/>
  </g>
</svg>