<?xml version="1.0" encoding="UTF-8"?>
<svg id="Big_Assets" data-name="Big Assets" xmlns="http://www.w3.org/2000/svg" width="3681.882" height="830.175" viewBox="0 0 3681.882 830.175">
  <g>
    <path d="M438.855,159.293c-5.002,5.061,1.075,8.442-5.577,14.668-2.925,2.737-6.991,5.459-11.05,9.105-3.223,2.896-10.679,1.631-14.565,4.999-3.377,2.927-3.52,10.075-7.364,13.295-3.482,2.916-7.123,6.026-10.965,9.136-3.566,2.888-9.203,3.451-13.06,6.469-3.64,2.848-6.871,6.424-10.754,9.358-3.705,2.8-5.634,8.213-9.547,11.065-3.769,2.746-8.418,4.484-12.367,7.255-3.83,2.687-6.914,6.666-10.902,9.355-3.889,2.622-11.221.145-15.251,2.75-3.949,2.552-5.709,8.628-9.784,11.145-4.008,2.476-8.251,4.688-12.371,7.112-4.067,2.393-10.303,1.015-14.471,3.341-4.127,2.303-5.172,10.343-9.389,12.564-4.187,2.205-9.569,2.227-13.838,4.335-4.248,2.098-7.969,5.433-12.289,7.42-4.309,1.982-10.858-1.12-15.231.736s-7.623,6.326-12.049,8.039c-4.431,1.715-9.602,1.276-14.081,2.834-4.491,1.562-9.028,2.65-13.559,4.038-4.549,1.394-8.375,5.067-12.956,6.27s-9.169,2.485-13.798,3.485c-4.653,1.006-9.4,1.351-14.07,2.129-4.696.783-9.163,3.173-13.867,3.71-4.729.539-9.407,2.834-14.135,3.108s-9.662-2.558-14.401-2.568-9.344-2.405-14.078-2.718-9.947,1.279-14.655.644c1.791,4.397,6.182,8.036,8.069,12.34,1.909,4.352,4.449,8.3,6.457,12.544,2.035,4.299-1.477,11.298.662,15.473,2.171,4.238,4.662,8.383,6.941,12.478,2.317,4.164,8.155,6.276,10.585,10.279,2.474,4.076,3.207,9.209,5.801,13.104,2.645,3.972,5.614,7.713,8.384,11.48,2.829,3.847,7.648,6.056,10.609,9.672,3.026,3.695,5.413,7.783,8.579,11.219,3.237,3.512,7.856,5.43,11.241,8.652,3.457,3.291,4.156,9.559,7.77,12.526,3.685,3.025,6.79,7.037,10.64,9.704,3.91,2.709,10.429,1.286,14.512,3.602,4.125,2.34,8.249,4.218,12.552,6.134,4.315,1.921,7.346,7.129,11.843,8.599,4.468,1.46,10.223-2.076,14.872-1.084,4.574.975,8.743,3.14,13.495,3.638,4.629.486,9.153,4.422,13.953,4.434,4.636.012,9.235-3.441,14.032-3.89,4.603-.431,8.989.562,13.742-.309-2.073,4.331-1.045,9.681-3.233,13.731-2.282,4.222-10.176,5.094-12.581,9.022-2.504,4.09-.497,10.974-3.13,14.758-2.736,3.93-8.704,5.36-11.577,8.974-2.975,3.742-2.516,10.352-5.634,13.77-3.214,3.524-10.462,3.01-13.823,6.207-3.445,3.277-6.086,7.151-9.682,10.103-3.663,3.007-6.849,6.443-10.663,9.133-3.861,2.722-7.65,5.432-11.66,7.848-4.033,2.431-7.289,6.296-11.468,8.438s-10.165.354-14.483,2.229c-4.297,1.866-7.931,5.111-12.362,6.732-4.392,1.607-9.192,1.759-13.71,3.147-4.465,1.371-8.854,2.68-13.437,3.856-4.52,1.16-7.972,7.001-12.602,7.989-4.562.974-9.097,2.799-13.761,3.625-4.592.813-10.246-4.687-14.932-4.001-4.616.676-8.43,7.66-13.133,8.229-4.632.561-11.279-3.366-15.992-2.893,1.648,4.072,3.288,11.089,6.464,15.322,2.692,3.587,6.679,7.073,10.389,10.683,3.271,3.183,8.203,5.122,12.212,8.261,3.638,2.849,8.7,4.026,12.906,6.793,3.894,2.562,8.224,4.521,12.575,6.976,4.085,2.306,8.777,3.439,13.239,5.621,4.234,2.071,8.563,3.803,13.115,5.738,4.353,1.851,6.551,9.371,11.176,11.076,4.451,1.641,9.24,2.937,13.926,4.423,4.532,1.437,9.832.743,14.569,2.018,4.599,1.238,10.099-1.172,14.877-.102,4.654,1.042,8.41,6.628,13.222,7.495,4.699.847,9.629.854,14.468,1.52,4.735.652,9.747-.767,14.604-.3,4.762.458,9.624-1.064,14.492-.796,4.78.263,9.441,2.648,14.314,2.716,4.789.066,9.547-1.004,14.417-1.136,4.79-.13,9.582.437,14.441.104,4.781-.328,9.943,2.922,14.783,2.387,4.764-.526,9.562-1.748,14.375-2.483,4.739-.724,8.981-4.572,13.759-5.508,4.704-.921,9.991.649,14.726-.487,4.661-1.117,8.219-6.465,12.903-7.797,4.609-1.312,9.424-1.744,14.049-3.272,4.549-1.503,9.091-2.92,13.649-4.639,4.481-1.691,10.956,1.379,15.44-.528,4.407-1.874,8.385-5.092,12.788-7.182,4.325-2.053,9.171-3.404,13.488-5.671,4.237-2.226,8.204-5.268,12.427-7.707,4.144-2.393,6.357-8.114,10.483-10.716,4.046-2.552,10.186-2.046,14.21-4.805,3.944-2.705,4.867-9.72,8.786-12.63,3.839-2.851,10.463-2.147,14.274-5.199,3.733-2.989,4.83-9.221,8.532-12.406,3.624-3.119,6.993-6.478,10.584-9.79" style="fill: #fff;"/>
    <path d="M438.855,159.293c-5.002,5.061,1.075,8.442-5.577,14.668-2.925,2.737-6.991,5.459-11.05,9.105-3.223,2.896-10.679,1.631-14.565,4.999-3.377,2.927-3.52,10.075-7.364,13.295-3.482,2.916-7.123,6.026-10.965,9.136-3.566,2.888-9.203,3.451-13.06,6.469-3.64,2.848-6.871,6.424-10.754,9.358-3.705,2.8-5.634,8.213-9.547,11.065-3.769,2.746-8.418,4.484-12.367,7.255-3.83,2.687-6.914,6.666-10.902,9.355-3.889,2.622-11.221.145-15.251,2.75-3.949,2.552-5.709,8.628-9.784,11.145-4.008,2.476-8.251,4.688-12.371,7.112-4.067,2.393-10.303,1.015-14.471,3.341-4.127,2.303-5.172,10.343-9.389,12.564-4.187,2.205-9.569,2.227-13.838,4.335-4.248,2.098-7.969,5.433-12.289,7.42-4.309,1.982-10.858-1.12-15.231.736s-7.623,6.326-12.049,8.039c-4.431,1.715-9.602,1.276-14.081,2.834-4.491,1.562-9.028,2.65-13.559,4.038-4.549,1.394-8.375,5.067-12.956,6.27s-9.169,2.485-13.798,3.485c-4.653,1.006-9.4,1.351-14.07,2.129-4.696.783-9.163,3.173-13.867,3.71-4.729.539-9.407,2.834-14.135,3.108s-9.662-2.558-14.401-2.568-9.344-2.405-14.078-2.718-9.947,1.279-14.655.644c1.791,4.397,6.182,8.036,8.069,12.34,1.909,4.352,4.449,8.3,6.457,12.544,2.035,4.299-1.477,11.298.662,15.473,2.171,4.238,4.662,8.383,6.941,12.478,2.317,4.164,8.155,6.276,10.585,10.279,2.474,4.076,3.207,9.209,5.801,13.104,2.645,3.972,5.614,7.713,8.384,11.48,2.829,3.847,7.648,6.056,10.609,9.672,3.026,3.695,5.413,7.783,8.579,11.219,3.237,3.512,7.856,5.43,11.241,8.652,3.457,3.291,4.156,9.559,7.77,12.526,3.685,3.025,6.79,7.037,10.64,9.704,3.91,2.709,10.429,1.286,14.512,3.602,4.125,2.34,8.249,4.218,12.552,6.134,4.315,1.921,7.346,7.129,11.843,8.599,4.468,1.46,10.223-2.076,14.872-1.084,4.574.975,8.743,3.14,13.495,3.638,4.629.486,9.153,4.422,13.953,4.434,4.636.012,9.235-3.441,14.032-3.89,4.603-.431,8.989.562,13.742-.309-2.073,4.331-1.045,9.681-3.233,13.731-2.282,4.222-10.176,5.094-12.581,9.022-2.504,4.09-.497,10.974-3.13,14.758-2.736,3.93-8.704,5.36-11.577,8.974-2.975,3.742-2.516,10.352-5.634,13.77-3.214,3.524-10.462,3.01-13.823,6.207-3.445,3.277-6.086,7.151-9.682,10.103-3.663,3.007-6.849,6.443-10.663,9.133-3.861,2.722-7.65,5.432-11.66,7.848-4.033,2.431-7.289,6.296-11.468,8.438s-10.165.354-14.483,2.229c-4.297,1.866-7.931,5.111-12.362,6.732-4.392,1.607-9.192,1.759-13.71,3.147-4.465,1.371-8.854,2.68-13.437,3.856-4.52,1.16-7.972,7.001-12.602,7.989-4.562.974-9.097,2.799-13.761,3.625-4.592.813-10.246-4.687-14.932-4.001-4.616.676-8.43,7.66-13.133,8.229-4.632.561-11.279-3.366-15.992-2.893,1.648,4.072,3.288,11.089,6.464,15.322,2.692,3.587,6.679,7.073,10.389,10.683,3.271,3.183,8.203,5.122,12.212,8.261,3.638,2.849,8.7,4.026,12.906,6.793,3.894,2.562,8.224,4.521,12.575,6.976,4.085,2.306,8.777,3.439,13.239,5.621,4.234,2.071,8.563,3.803,13.115,5.738,4.353,1.851,6.551,9.371,11.176,11.076,4.451,1.641,9.24,2.937,13.926,4.423,4.532,1.437,9.832.743,14.569,2.018,4.599,1.238,10.099-1.172,14.877-.102,4.654,1.042,8.41,6.628,13.222,7.495,4.699.847,9.629.854,14.468,1.52,4.735.652,9.747-.767,14.604-.3,4.762.458,9.624-1.064,14.492-.796,4.78.263,9.441,2.648,14.314,2.716,4.789.066,9.547-1.004,14.417-1.136,4.79-.13,9.582.437,14.441.104,4.781-.328,9.943,2.922,14.783,2.387,4.764-.526,9.562-1.748,14.375-2.483,4.739-.724,8.981-4.572,13.759-5.508,4.704-.921,9.991.649,14.726-.487,4.661-1.117,8.219-6.465,12.903-7.797,4.609-1.312,9.424-1.744,14.049-3.272,4.549-1.503,9.091-2.92,13.649-4.639,4.481-1.691,10.956,1.379,15.44-.528,4.407-1.874,8.385-5.092,12.788-7.182,4.325-2.053,9.171-3.404,13.488-5.671,4.237-2.226,8.204-5.268,12.427-7.707,4.144-2.393,6.357-8.114,10.483-10.716,4.046-2.552,10.186-2.046,14.21-4.805,3.944-2.705,4.867-9.72,8.786-12.63,3.839-2.851,10.463-2.147,14.274-5.199,3.733-2.989,4.83-9.221,8.532-12.406,3.624-3.119,6.993-6.478,10.584-9.79" style="fill: none; stroke: #000; stroke-linecap: round; stroke-linejoin: round; stroke-width: 45px;"/>
  </g>
  <g>
    <path d="M3230.157,155.891c5.056,5.191,5.738,1.623,12.457,8.02,2.953,2.811,7.274,5.253,11.369,9.001,3.254,2.978,5.63,7.539,9.551,11.004,3.408,3.012,5.095,8.472,8.974,11.788,3.514,3.004,10.489,2.221,14.364,5.427,3.599,2.977,3.421,10.867,7.313,13.981,3.673,2.939,9.143,3.864,13.06,6.894,3.739,2.892,7.274,6.259,11.222,9.208,3.803,2.84,9.649,3.032,13.633,5.9,3.865,2.782,5.375,9.027,9.399,11.814,3.925,2.719,10.409,1.774,14.476,4.477,3.986,2.649,8.233,4.898,12.344,7.513,4.046,2.574,7.304,6.416,11.463,8.94,4.107,2.492,6.642,7.726,10.85,10.152,4.168,2.403,7.903,5.758,12.161,8.078,4.23,2.305,10.781.301,15.092,2.508s9.133,3.18,13.498,5.266c4.357,2.082,7.996,5.595,12.416,7.548s8.359,5.008,12.835,6.817,10.089.561,14.621,2.213,8.913,3.496,13.5,4.975c4.612,1.486,8.736,4.271,13.377,5.56,4.671,1.297,8.979,3.865,13.672,4.945,4.725,1.087,9.658.991,14.396,1.841,4.773.856,9.458,1.921,14.234,2.519,4.81.602,9.74-1.244,14.545-.923,4.834.323,9.454,6.758,14.273,6.779s9.87-.5,14.685-.802,11.46-5.337,16.249-5.982c-1.791,4.397-6.115,10.153-8.002,14.456-1.909,4.352-1.556,9.73-3.564,13.974-2.035,4.299-6.422,7.433-8.56,11.608-2.171,4.238-2.537,9.421-4.816,13.517-2.317,4.164-4.777,8.269-7.207,12.273-2.474,4.076-4.327,8.596-6.92,12.491-2.645,3.972-9.906,4.635-12.677,8.402-2.829,3.847-5.235,7.768-8.197,11.383-3.026,3.695-5.243,7.862-8.409,11.297-3.237,3.512-7.435,5.796-10.82,9.018-3.457,3.291-3.731,10.049-7.345,13.017-3.685,3.025-7.605,5.92-11.454,8.587-3.91,2.709-10.208,1.498-14.291,3.814-4.125,2.34-5.814,9.526-10.118,11.441s-11.016-2.391-15.513-.921c-4.468,1.46-7.692,7.235-12.342,8.227-4.574.975-9.281,2.67-14.033,3.169-4.629.486-9.581-1.2-14.381-1.188-4.636.012-9.191-2.289-13.988-2.738-4.603-.431-7.411,2.243-12.165,1.371,2.073,4.331-.027,8.133,2.162,12.183,2.282,4.222,7.014,6.99,9.419,10.918,2.504,4.09,4.996,8.061,7.63,11.845,2.736,3.93,5.272,7.902,8.145,11.516,2.975,3.742,8.688,4.904,11.805,8.322,3.214,3.524,5.559,7.521,8.92,10.717,3.445,3.277,6.171,7.094,9.767,10.046,3.663,3.007,6.252,7.33,10.066,10.019,3.861,2.722,9.941,1.821,13.951,4.238,4.033,2.431,7.528,5.393,11.707,7.536s5.949,9.451,10.268,11.326,10.186.011,14.617,1.633c4.392,1.607,9.66.353,14.177,1.741,4.465,1.371,7.444,8.017,12.027,9.193,4.52,1.16,10.251-2.757,14.881-1.768,4.562.974,8.401,5.652,13.065,6.478,4.592.813,8.941,3.732,13.627,4.418,4.616.676,9.374,1.126,14.077,1.696,4.632.561,7.59-.451,12.303.022-1.66,4.101.843,8.889-2.138,13.227-2.562,3.729-9.92,4.196-13.395,7.997-3.104,3.394-6.804,6.204-10.591,9.582-3.47,3.095-5.475,8.114-9.486,11.14-3.741,2.822-9.415,2.968-13.599,5.685-3.952,2.567-6.5,7.498-10.824,9.934-4.123,2.323-8.819,3.699-13.261,5.871-4.265,2.085-8.154,5.14-12.695,7.058-4.384,1.852-9.673,1.441-14.3,3.112-4.484,1.619-8.349,5.115-13.047,6.54-4.569,1.386-8.553,5.351-13.311,6.533-4.639,1.153-9.778.731-14.585,1.671-4.696.917-9.406,2.483-14.251,3.178-4.739.68-9.99-2.63-14.862-2.179-4.769.441-9.304,5.119-14.19,5.325-4.786.201-9.691-4.813-14.58-4.853-4.791-.039-9.82,5.64-14.701,5.355-4.783-.279-9.092-6.735-13.954-7.263-4.762-.518-9.495-.556-14.326-1.325-4.729-.753-9.352-1.654-14.14-2.66-4.685-.985-10.284,1.814-15.019.576-4.631-1.211-9.812-1.072-14.484-2.535-4.566-1.431-7.518-7.844-12.117-9.525-4.492-1.642-9.682-1.508-14.2-3.398-4.412-1.846-8.43-4.647-12.861-6.738-4.323-2.04-8.594-4.209-12.931-6.49-4.231-2.225-7.366-6.365-11.605-8.827-4.133-2.4-10.479-1.191-14.617-3.822-4.032-2.564-5.716-8.707-9.749-11.498-3.929-2.719-9.473-3.192-13.399-6.131-3.825-2.863-9.619-3.369-13.438-6.446-3.721-2.998-5.413-8.594-9.125-11.8-3.617-3.124-9.218-4.174-12.824-7.5" style="fill: #fff;"/>
    <path d="M3230.157,155.891c5.056,5.191,5.738,1.623,12.457,8.02,2.953,2.811,7.274,5.253,11.369,9.001,3.254,2.978,5.63,7.539,9.551,11.004,3.408,3.012,5.095,8.472,8.974,11.788,3.514,3.004,10.489,2.221,14.364,5.427,3.599,2.977,3.421,10.867,7.313,13.981,3.673,2.939,9.143,3.864,13.06,6.894,3.739,2.892,7.274,6.259,11.222,9.208,3.803,2.84,9.649,3.032,13.633,5.9,3.865,2.782,5.375,9.027,9.399,11.814,3.925,2.719,10.409,1.774,14.476,4.477,3.986,2.649,8.233,4.898,12.344,7.513,4.046,2.574,7.304,6.416,11.463,8.94,4.107,2.492,6.642,7.726,10.85,10.152,4.168,2.403,7.903,5.758,12.161,8.078,4.23,2.305,10.781.301,15.092,2.508s9.133,3.18,13.498,5.266c4.357,2.082,7.996,5.595,12.416,7.548s8.359,5.008,12.835,6.817,10.089.561,14.621,2.213,8.913,3.496,13.5,4.975c4.612,1.486,8.736,4.271,13.377,5.56,4.671,1.297,8.979,3.865,13.672,4.945,4.725,1.087,9.658.991,14.396,1.841,4.773.856,9.458,1.921,14.234,2.519,4.81.602,9.74-1.244,14.545-.923,4.834.323,9.454,6.758,14.273,6.779s9.87-.5,14.685-.802,11.46-5.337,16.249-5.982c-1.791,4.397-6.115,10.153-8.002,14.456-1.909,4.352-1.556,9.73-3.564,13.974-2.035,4.299-6.422,7.433-8.56,11.608-2.171,4.238-2.537,9.421-4.816,13.517-2.317,4.164-4.777,8.269-7.207,12.273-2.474,4.076-4.327,8.596-6.92,12.491-2.645,3.972-9.906,4.635-12.677,8.402-2.829,3.847-5.235,7.768-8.197,11.383-3.026,3.695-5.243,7.862-8.409,11.297-3.237,3.512-7.435,5.796-10.82,9.018-3.457,3.291-3.731,10.049-7.345,13.017-3.685,3.025-7.605,5.92-11.454,8.587-3.91,2.709-10.208,1.498-14.291,3.814-4.125,2.34-5.814,9.526-10.118,11.441s-11.016-2.391-15.513-.921c-4.468,1.46-7.692,7.235-12.342,8.227-4.574.975-9.281,2.67-14.033,3.169-4.629.486-9.581-1.2-14.381-1.188-4.636.012-9.191-2.289-13.988-2.738-4.603-.431-7.411,2.243-12.165,1.371,2.073,4.331-.027,8.133,2.162,12.183,2.282,4.222,7.014,6.99,9.419,10.918,2.504,4.09,4.996,8.061,7.63,11.845,2.736,3.93,5.272,7.902,8.145,11.516,2.975,3.742,8.688,4.904,11.805,8.322,3.214,3.524,5.559,7.521,8.92,10.717,3.445,3.277,6.171,7.094,9.767,10.046,3.663,3.007,6.252,7.33,10.066,10.019,3.861,2.722,9.941,1.821,13.951,4.238,4.033,2.431,7.528,5.393,11.707,7.536s5.949,9.451,10.268,11.326,10.186.011,14.617,1.633c4.392,1.607,9.66.353,14.177,1.741,4.465,1.371,7.444,8.017,12.027,9.193,4.52,1.16,10.251-2.757,14.881-1.768,4.562.974,8.401,5.652,13.065,6.478,4.592.813,8.941,3.732,13.627,4.418,4.616.676,9.374,1.126,14.077,1.696,4.632.561,7.59-.451,12.303.022-1.66,4.101.843,8.889-2.138,13.227-2.562,3.729-9.92,4.196-13.395,7.997-3.104,3.394-6.804,6.204-10.591,9.582-3.47,3.095-5.475,8.114-9.486,11.14-3.741,2.822-9.415,2.968-13.599,5.685-3.952,2.567-6.5,7.498-10.824,9.934-4.123,2.323-8.819,3.699-13.261,5.871-4.265,2.085-8.154,5.14-12.695,7.058-4.384,1.852-9.673,1.441-14.3,3.112-4.484,1.619-8.349,5.115-13.047,6.54-4.569,1.386-8.553,5.351-13.311,6.533-4.639,1.153-9.778.731-14.585,1.671-4.696.917-9.406,2.483-14.251,3.178-4.739.68-9.99-2.63-14.862-2.179-4.769.441-9.304,5.119-14.19,5.325-4.786.201-9.691-4.813-14.58-4.853-4.791-.039-9.82,5.64-14.701,5.355-4.783-.279-9.092-6.735-13.954-7.263-4.762-.518-9.495-.556-14.326-1.325-4.729-.753-9.352-1.654-14.14-2.66-4.685-.985-10.284,1.814-15.019.576-4.631-1.211-9.812-1.072-14.484-2.535-4.566-1.431-7.518-7.844-12.117-9.525-4.492-1.642-9.682-1.508-14.2-3.398-4.412-1.846-8.43-4.647-12.861-6.738-4.323-2.04-8.594-4.209-12.931-6.49-4.231-2.225-7.366-6.365-11.605-8.827-4.133-2.4-10.479-1.191-14.617-3.822-4.032-2.564-5.716-8.707-9.749-11.498-3.929-2.719-9.473-3.192-13.399-6.131-3.825-2.863-9.619-3.369-13.438-6.446-3.721-2.998-5.413-8.594-9.125-11.8-3.617-3.124-9.218-4.174-12.824-7.5" style="fill: none; stroke: #000; stroke-linecap: round; stroke-linejoin: round; stroke-width: 45px;"/>
  </g>
  <g>
    <path d="M3275.005,735.408c-5.102,5.09-6.841,1.965-14.048,1.965s-7.205-.066-14.41-.066-7.205.86-14.41.86-7.205-5.574-14.409-5.574-7.205.499-14.409.499-7.205,1.055-14.409,1.055-7.205-1.397-14.409-1.397-7.205,4.878-14.41,4.878-7.205-.058-14.411-.058-7.206-4.387-14.411-4.387-7.206,5.654-14.412,5.654-7.207-6.445-14.414-6.445-7.207,4.741-14.415,4.741-7.208.935-14.417.935-7.208-1.952-14.415-1.952-7.207-2.095-14.414-2.095-7.206,4.324-14.413,4.324-7.206-5.07-14.412-5.07-7.206,2.721-14.411,2.721c-7.205,0-7.205-.085-14.411-.085s-7.205-.338-14.41-.338-7.205,3.597-14.41,3.597-7.205-1.123-14.41-1.123-7.205-1.058-14.411-1.058-7.206-1.876-14.411-1.876-7.206,4.076-14.412,4.076-7.207-.894-14.413-.894-7.207-5.859-14.414-5.859-7.208,3.903-14.416,3.903-7.208,2.863-14.417,2.863-7.208-5.596-14.415-5.596-7.207,5.119-14.414,5.119-7.206-3.862-14.413-3.862-7.206-2.193-14.412-2.193-7.206.179-14.412.179-7.206.441-14.411.441-7.206,5.857-14.411,5.857-7.206-5.465-14.411-5.465-7.206-.594-14.412-.594-7.206,2.613-14.413,2.613-7.207-3.138-14.414-3.138-7.208,2.898-14.415,2.898-7.208-.969-14.417-.969-7.208,1.167-14.416,1.167-7.207-2.313-14.415-2.313-7.207,2.098-14.414,2.098-7.206,2.761-14.413,2.761-7.206-1.527-14.412-1.527-7.206.755-14.412.755-7.206-3.907-14.412-3.907-7.206,4.362-14.412,4.362-7.207-5.101-14.413-5.101c-7.207,0-7.207,5.843-14.414,5.843s-7.208-6.078-14.415-6.078c-7.208,0-7.208.589-14.417.589s-7.208-.048-14.417-.048-7.208,4.008-14.415,4.008-7.207,1.563-14.414,1.563-7.207-5.128-14.413-5.128-7.206,2.018-14.413,2.018-7.206-.927-14.413-.927-7.206-.036-14.413-.036-7.207-2.107-14.414-2.107-7.207,4.33-14.415,4.33-7.208-4.189-14.416-4.189-7.209,2.854-14.418,2.854-7.208,3.155-14.417,3.155-7.208-3.213-14.415-3.213-7.207,2.947-14.414,2.947c-7.207,0-7.207-6.026-14.414-6.026s-7.207,6.702-14.413,6.702-7.207-.753-14.414-.753-7.207-5.888-14.414-5.888-7.208,5.344-14.415,5.344-7.208.082-14.417.082-7.209-3.072-14.418-3.072-7.208.862-14.416.862-7.207,3.196-14.415,3.196-7.207-1.293-14.414-1.293-7.207,1.528-14.414,1.528c-7.207,0-7.207-6.109-14.414-6.109s-7.207,4.194-14.415,4.194-7.208-.298-14.416-.298-7.209-4.298-14.418-4.298-7.209,6.568-14.417,6.568-7.208-2.429-14.416-2.429-7.207,1.406-14.415,1.406-7.207-5.488-14.415-5.488-7.207,2.919-14.415,2.919-7.208-2.198-14.415-2.198-7.208-.379-14.417-.379c-7.209,0-7.209,2.484-14.419,2.484s-7.208.176-14.417.176-7.208-.557-14.416-.557-7.208,1.743-14.415,1.743-7.208,1.882-14.415,1.882-7.208-2.975-14.416-2.975-7.208-2.242-14.417-2.242-7.209,1.904-14.419,1.904-7.208,2.845-14.417,2.845-7.208.676-14.416.676-7.208-6.241-14.415-6.241-7.208.247-14.416.247-7.208,3.989-14.417,3.989-7.209-2.134-14.418-2.134-7.209.291-14.418.291-7.208,2.457-14.416,2.457-7.208-.875-14.416-.875-7.208,1.954-14.416,1.954-7.209-4.229-14.417-4.229-7.21-1.325-14.419-1.325-7.209,4.684-14.417,4.684-7.208.188-14.416.188-7.208-3.772-14.416-3.772-7.209,4.922-14.417,4.922-7.209-1.484-14.419-1.484-7.209-3.692-14.418-3.692-7.208,3.245-14.417,3.245-7.208-1.849-14.417-1.849-7.209,3.645-14.418,3.645-7.21-6.409-14.419-6.409-7.209,5.448-14.417,5.448-7.208-3.935-14.417-3.935-7.209,4.639-14.417,4.639-7.209-5.54-14.419-5.54-7.209,1.157-14.418,1.157-7.208.808-14.417.808-7.209.203-14.417.203-7.209,1.799-14.419,1.799-7.209-4.172-14.418-4.172-7.209,1.671-14.417,1.671-7.209-1.381-14.418-1.381-7.21.076-14.42.076-7.209,4.903-14.418,4.903-7.209.928-14.418.928-7.209-6.327-14.419-6.327-7.209,6.422-14.418,6.422-7.209-5.296-14.418-5.296-7.209-1.071-14.419-1.071-7.209.668-14.419.668-7.209,1.776-14.418,1.776-7.209,1.994-14.419,1.994-7.209.581-14.419.581-7.209,1.182-14.418,1.182-7.21.224-14.42.224-7.207-6.181-14.413-6.181-7.208.327-14.417.327-7.209,2.159-14.418,2.159-7.207,3.658-14.414,3.658-7.207-4.732-14.413-4.732-7.208.769-14.415.769-7.21,1.994-14.42,1.994-7.208,1.885-14.416,1.885-7.207-2.223-14.414-2.223-7.208,1.04-14.416,1.04-7.21-.795-14.42-.795-7.208-3.696-14.417-3.696-7.208.588-14.415.588-7.209,3.065-14.418,3.065-7.209-2.658-14.419-2.658-7.208,4.273-14.416,4.273-7.209-1-14.418-1-7.21-.177-14.419-.177-7.208-5.259-14.417-5.259-7.21,1.304-14.42,1.304-7.209-.957-14.418-.957-7.209.751-14.418.751-7.21,3.755-14.421,3.755-7.209-3.798-14.418-3.798-7.211,5.176-14.422,5.176-7.209-4.602-14.419-4.602-7.211,4.095-14.422,4.095-7.21.267-14.419.267c-7.21,0-7.21-2.342-14.42-2.342s-7.21,1.464-14.421,1.464-7.21.883-14.42.883c-7.211,0-7.211-5.297-14.421-5.297s-7.211.212-14.422.212-7.211.349-14.421.349-7.21,1.073-14.421,1.073-7.21.336-14.421.336-7.211,2.592-14.421,2.592-7.211-2.668-14.422-2.668-7.208,1.83-14.416,1.83-7.21-3.213-14.42-3.213-7.211-.305-14.422-.305-7.21,2.509-14.42,2.509-7.21.532-14.421.532-7.211-1.792-14.422-1.792-7.212,2.84-14.424,2.84-7.211,1.616-14.422,1.616-7.212-6.021-14.423-6.021-7.212,4.714-14.424,4.714-7.213-2.167-14.426-2.167-7.211-.147-14.422-.147-7.213-2.536-14.427-2.536-7.211,3.644-14.422,3.644-7.216-.557-14.432-.557c-7.216,0-7.819,3.528-12.954-1.542-5.07-5.005-1.694-5.627-1.694-12.751,0-7.126,1.247-7.126,1.247-14.252,0-7.124-1.921-7.124-1.921-14.249,0-7.124,3.112-7.124,3.112-14.247,0-7.125-.565-7.125-.565-14.25,0-7.125-3.49-7.125-3.49-14.251,0-7.124,3.818-7.124,3.818-14.248,0-7.125-4.49-7.125-4.49-14.25,0-7.126,4.72-7.126,4.72-14.251,0-7.124-4.454-7.124-4.454-14.249s-.281-7.126-.281-14.252c0-7.125,2.457-7.125,2.457-14.25,0-7.125.675-7.125.675-14.25,0-7.126.812-7.126.812-14.252,0-7.125-.79-7.125-.79-14.25,0-7.127-3.035-7.127-3.035-14.254,0-7.125,2.95-7.125,2.95-14.25,0-7.127-2.407-7.127-2.407-14.254,0-7.126,3.272-7.126,3.272-14.251,0-7.126-1.558-7.126-1.558-14.252,0-7.126,2.407-7.126,2.407-14.253,0-7.126,1.203-7.126,1.203-14.252,0-7.126-1.647-7.126-1.647-14.253,0-7.127-2.689-7.127-2.689-14.254,0-7.127-.414-7.127-.414-14.253,0-7.126,4.486-7.126,4.486-14.253,0-7.126-6.512-7.126-6.512-14.253,0-7.127,2.619-7.127,2.619-14.253,0-7.127-1.668-7.127-1.668-14.254,0-7.124,1.499-7.124,1.499-14.248,0-7.126,3.01-7.126,3.01-14.252,0-7.127-3.489-7.127-3.489-14.254,0-7.126-2.074-7.126-2.074-14.252,0-7.126,4.25-7.126,4.25-14.252,0-7.127.22-7.127.22-14.254s-.549-7.128-.549-14.256c0-7.127,2.133-7.127,2.133-14.254s-2.633-7.128-2.633-14.255c0-7.128.389-7.128.389-14.256,0-7.129,2.051-7.129,2.051-14.257,0-7.127.516-7.127.516-14.254,0-7.129-.432-7.129-.432-14.259s-2.522-7.127-2.522-14.254c0-7.132,2.411-7.132,2.411-14.264,0-7.132-8.325-10.091-3.256-15.108,5.123-5.069,8.042,1.473,15.25,1.473s7.205-3.064,14.41-3.064,7.205,2.799,14.41,2.799,7.205,1.827,14.409,1.827,7.205.02,14.409.02,7.205-5.03,14.409-5.03,7.205,1.6,14.409,1.6,7.205,4.013,14.41,4.013,7.205-2.823,14.411-2.823,7.206-.364,14.411-.364,7.206,2.363,14.412,2.363,7.207-1.573,14.414-1.573,7.207-3.189,14.415-3.189,7.208.154,14.417.154,7.208,5.852,14.415,5.852,7.207-4.859,14.414-4.859,7.206,2.591,14.413,2.591,7.206.804,14.412.804,7.206-.045,14.411-.045,7.205-4.352,14.411-4.352,7.205,4.011,14.41,4.011,7.205-2.22,14.41-2.22,7.205,4.344,14.41,4.344,7.205-6.409,14.411-6.409,7.206,4.99,14.411,4.99,7.206,1.388,14.412,1.388,7.207-4.255,14.413-4.255,7.207,3.764,14.414,3.764,7.208-1.715,14.416-1.715,7.208-4.058,14.417-4.058,7.208,1.706,14.415,1.706,7.207-2.239,14.414-2.239,7.206,5.582,14.413,5.582,7.206-4.238,14.412-4.238,7.206-.275,14.412-.275,7.206,2.656,14.411,2.656,7.206,2.134,14.411,2.134,7.206-1.38,14.411-1.38,7.206.629,14.412.629,7.206-3.938,14.413-3.938,7.207-.161,14.414-.161,7.208,2.027,14.415,2.027,7.208,2.064,14.417,2.064,7.208.991,14.416.991,7.207-4.382,14.415-4.382,7.207,2.73,14.414,2.73,7.206,1.977,14.413,1.977,7.206-.166,14.412-.166,7.206-4.024,14.412-4.024,7.206-2.2,14.412-2.2,7.206,2.971,14.412,2.971,7.207.89,14.413.89,7.207-.394,14.414-.394,7.208-1.33,14.415-1.33,7.208,1.393,14.417,1.393,7.208,2.771,14.417,2.771,7.208-5.061,14.415-5.061,7.207-.48,14.414-.48,7.207,4.051,14.413,4.051,7.206,1.099,14.413,1.099,7.206-5.507,14.413-5.507,7.206,2.366,14.413,2.366,7.207,3.412,14.414,3.412,7.207-.16,14.415-.16,7.208-5.11,14.416-5.11,7.209,5.238,14.418,5.238,7.208-3.829,14.417-3.829,7.208,3.665,14.415,3.665,7.207-3.552,14.414-3.552,7.207-.18,14.414-.18,7.207,4.067,14.413,4.067,7.207-4.293,14.414-4.293,7.207-.814,14.414-.814,7.208,3.919,14.415,3.919,7.208-.191,14.417-.191,7.209-3.899,14.418-3.899,7.208,4.143,14.416,4.143,7.207.157,14.415.157,7.207-2,14.414-2,7.207,2.657,14.414,2.657,7.207-.129,14.414-.129,7.207-4.764,14.415-4.764,7.208,3.923,14.416,3.923,7.209.067,14.418.067,7.209-2.013,14.417-2.013,7.208,1.172,14.416,1.172,7.207-3.927,14.415-3.927,7.207.012,14.415.012,7.207-.347,14.415-.347,7.208,5.865,14.415,5.865,7.208-.695,14.417-.695,7.209-2.466,14.419-2.466,7.208-1.139,14.417-1.139,7.208.375,14.416.375,7.208,4.473,14.415,4.473,7.208-4.939,14.415-4.939,7.208,2.395,14.416,2.395,7.208-2.712,14.417-2.712,7.209,1.441,14.419,1.441,7.208.458,14.417.458,7.208-2.647,14.416-2.647,7.208,2.54,14.415,2.54,7.208.327,14.416.327,7.208,3.474,14.417,3.474,7.209-6.906,14.418-6.906,7.209,1.082,14.418,1.082,7.208-.127,14.416-.127,7.208,4.956,14.416,4.956,7.208-1.508,14.416-1.508,7.209-4.25,14.417-4.25,7.21,1.805,14.419,1.805,7.209-1.772,14.417-1.772,7.208,5.369,14.416,5.369,7.208-1.276,14.416-1.276,7.209,2.055,14.417,2.055,7.209-2.028,14.419-2.028,7.209-.018,14.418-.018,7.208.947,14.417.947,7.208,1.734,14.417,1.734,7.209-4.972,14.418-4.972,7.21,3.443,14.419,3.443,7.209.881,14.417.881,7.208-3.285,14.417-3.285,7.209,2.453,14.417,2.453,7.209-5.063,14.419-5.063,7.209,5.974,14.418,5.974,7.208-4.291,14.417-4.291,7.209,1.231,14.417,1.231,7.209-1.372,14.419-1.372,7.209,4.211,14.418,4.211,7.209-2.286,14.417-2.286,7.209.017,14.418.017,7.21-.886,14.42-.886,7.209,1.128,14.418,1.128,7.209-.304,14.418-.304,7.209-3.738,14.419-3.738,7.209,1.312,14.418,1.312,7.209.659,14.418.659,7.209.402,14.419.402,7.209,4.129,14.419,4.129,7.209-2.35,14.418-2.35,7.209-2.8,14.419-2.8,7.209,1.146,14.419,1.146,7.209-.457,14.418-.457,7.21,4.438,14.42,4.438,7.207-2.748,14.413-2.748,7.208-2.518,14.417-2.518,7.209,3.773,14.418,3.773,7.207.294,14.414.294,7.207-1.972,14.413-1.972,7.208-2.397,14.415-2.397,7.21,1.909,14.42,1.909,7.208-1.506,14.416-1.506,7.207,4.398,14.414,4.398,7.208-1.632,14.416-1.632,7.21,1.617,14.42,1.617,7.208-4.859,14.417-4.859,7.208,4.541,14.415,4.541,7.209-3.185,14.418-3.185,7.209-1.466,14.419-1.466,7.208,3.994,14.416,3.994,7.209-.316,14.418-.316,7.21-3.957,14.419-3.957,7.208-.306,14.417-.306,7.21,3.87,14.42,3.87,7.209,1.305,14.418,1.305,7.209-.661,14.418-.661,7.21-2.65,14.421-2.65,7.209,2.463,14.418,2.463,7.211.168,14.422.168,7.209.418,14.419.418,7.211-4.431,14.422-4.431,7.21.474,14.419.474,7.21,2.571,14.42,2.571,7.21-1.343,14.421-1.343,7.21,2.973,14.42,2.973,7.211-3.079,14.421-3.079,7.211-1.819,14.422-1.819,7.211,5.196,14.421,5.196,7.21-3.991,14.421-3.991,7.21,1.498,14.421,1.498,7.211-3.175,14.421-3.175,7.211,5.78,14.422,5.78,7.208-2.883,14.416-2.883,7.21-1.131,14.42-1.131,7.211-1.378,14.422-1.378,7.21.223,14.42.223,7.21,6.162,14.421,6.162,7.211-1.231,14.422-1.231,7.212-.173,14.424-.173,7.211.358,14.422.358,7.212-.474,14.423-.474,7.212-2.227,14.424-2.227,7.213,3.755,14.426,3.755,7.211-5.643,14.422-5.643,7.213,1.22,14.427,1.22,7.211.635,14.422.635,7.216-.833,14.432-.833,7.128-1.527,12.347,3.457c4.984,4.76-.323,4.709-.323,11.6s2.954,6.893,2.954,13.785-1.503,6.893-1.503,13.785.18,6.89.18,13.781.402,6.892.402,13.785.301,6.895.301,13.789-.305,6.892-.305,13.785,2.156,6.897,2.156,13.794-2.261,6.897-2.261,13.794c0,7.182,2.465,7.182,2.465,14.364s.75,7.184.75,14.367-6.062,7.183-6.062,14.366.399,7.183.399,14.366-.047,7.184-.047,14.368.878,7.183.878,14.366-.239,7.185-.239,14.369,3.508,7.183,3.508,14.366,1.496,7.185,1.496,14.369-5.135,7.183-5.135,14.367.885,7.184.885,14.368,3.401,7.184,3.401,14.368,1.008,7.184,1.008,14.367.038,7.184.038,14.369.216,7.185.216,14.37-.142,7.184-.142,14.369-2.121,7.184-2.121,14.368,1.151,7.184,1.151,14.369-5.46,7.184-5.46,14.369,3.301,7.185,3.301,14.369-.3,7.182-.3,14.364-2.188,7.184-2.188,14.368.529,7.185.529,14.37.596,7.184.596,14.368c0,7.184-.436,7.184-.436,14.368s3.068,7.185,3.068,14.37.62,7.186.62,14.372,1.086,7.185,1.086,14.37-2.931,7.186-2.931,14.371c0,7.186,2.783,7.186,2.783,14.371s-3.089,7.187-3.089,14.373-2.53,7.185-2.53,14.369,6.127,7.187,6.127,14.374-2.57,7.185-2.57,14.37-4.204,7.78-2.776,14.827c1.484,7.325,6.93,8.488,1.84,13.566Z" style="fill: #fff;"/>
    <path d="M3275.005,735.408c-5.102,5.09-6.841,1.965-14.048,1.965s-7.205-.066-14.41-.066-7.205.86-14.41.86-7.205-5.574-14.409-5.574-7.205.499-14.409.499-7.205,1.055-14.409,1.055-7.205-1.397-14.409-1.397-7.205,4.878-14.41,4.878-7.205-.058-14.411-.058-7.206-4.387-14.411-4.387-7.206,5.654-14.412,5.654-7.207-6.445-14.414-6.445-7.207,4.741-14.415,4.741-7.208.935-14.417.935-7.208-1.952-14.415-1.952-7.207-2.095-14.414-2.095-7.206,4.324-14.413,4.324-7.206-5.07-14.412-5.07-7.206,2.721-14.411,2.721c-7.205,0-7.205-.085-14.411-.085s-7.205-.338-14.41-.338-7.205,3.597-14.41,3.597-7.205-1.123-14.41-1.123-7.205-1.058-14.411-1.058-7.206-1.876-14.411-1.876-7.206,4.076-14.412,4.076-7.207-.894-14.413-.894-7.207-5.859-14.414-5.859-7.208,3.903-14.416,3.903-7.208,2.863-14.417,2.863-7.208-5.596-14.415-5.596-7.207,5.119-14.414,5.119-7.206-3.862-14.413-3.862-7.206-2.193-14.412-2.193-7.206.179-14.412.179-7.206.441-14.411.441-7.206,5.857-14.411,5.857-7.206-5.465-14.411-5.465-7.206-.594-14.412-.594-7.206,2.613-14.413,2.613-7.207-3.138-14.414-3.138-7.208,2.898-14.415,2.898-7.208-.969-14.417-.969-7.208,1.167-14.416,1.167-7.207-2.313-14.415-2.313-7.207,2.098-14.414,2.098-7.206,2.761-14.413,2.761-7.206-1.527-14.412-1.527-7.206.755-14.412.755-7.206-3.907-14.412-3.907-7.206,4.362-14.412,4.362-7.207-5.101-14.413-5.101c-7.207,0-7.207,5.843-14.414,5.843s-7.208-6.078-14.415-6.078c-7.208,0-7.208.589-14.417.589s-7.208-.048-14.417-.048-7.208,4.008-14.415,4.008-7.207,1.563-14.414,1.563-7.207-5.128-14.413-5.128-7.206,2.018-14.413,2.018-7.206-.927-14.413-.927-7.206-.036-14.413-.036-7.207-2.107-14.414-2.107-7.207,4.33-14.415,4.33-7.208-4.189-14.416-4.189-7.209,2.854-14.418,2.854-7.208,3.155-14.417,3.155-7.208-3.213-14.415-3.213-7.207,2.947-14.414,2.947c-7.207,0-7.207-6.026-14.414-6.026s-7.207,6.702-14.413,6.702-7.207-.753-14.414-.753-7.207-5.888-14.414-5.888-7.208,5.344-14.415,5.344-7.208.082-14.417.082-7.209-3.072-14.418-3.072-7.208.862-14.416.862-7.207,3.196-14.415,3.196-7.207-1.293-14.414-1.293-7.207,1.528-14.414,1.528c-7.207,0-7.207-6.109-14.414-6.109s-7.207,4.194-14.415,4.194-7.208-.298-14.416-.298-7.209-4.298-14.418-4.298-7.209,6.568-14.417,6.568-7.208-2.429-14.416-2.429-7.207,1.406-14.415,1.406-7.207-5.488-14.415-5.488-7.207,2.919-14.415,2.919-7.208-2.198-14.415-2.198-7.208-.379-14.417-.379c-7.209,0-7.209,2.484-14.419,2.484s-7.208.176-14.417.176-7.208-.557-14.416-.557-7.208,1.743-14.415,1.743-7.208,1.882-14.415,1.882-7.208-2.975-14.416-2.975-7.208-2.242-14.417-2.242-7.209,1.904-14.419,1.904-7.208,2.845-14.417,2.845-7.208.676-14.416.676-7.208-6.241-14.415-6.241-7.208.247-14.416.247-7.208,3.989-14.417,3.989-7.209-2.134-14.418-2.134-7.209.291-14.418.291-7.208,2.457-14.416,2.457-7.208-.875-14.416-.875-7.208,1.954-14.416,1.954-7.209-4.229-14.417-4.229-7.21-1.325-14.419-1.325-7.209,4.684-14.417,4.684-7.208.188-14.416.188-7.208-3.772-14.416-3.772-7.209,4.922-14.417,4.922-7.209-1.484-14.419-1.484-7.209-3.692-14.418-3.692-7.208,3.245-14.417,3.245-7.208-1.849-14.417-1.849-7.209,3.645-14.418,3.645-7.21-6.409-14.419-6.409-7.209,5.448-14.417,5.448-7.208-3.935-14.417-3.935-7.209,4.639-14.417,4.639-7.209-5.54-14.419-5.54-7.209,1.157-14.418,1.157-7.208.808-14.417.808-7.209.203-14.417.203-7.209,1.799-14.419,1.799-7.209-4.172-14.418-4.172-7.209,1.671-14.417,1.671-7.209-1.381-14.418-1.381-7.21.076-14.42.076-7.209,4.903-14.418,4.903-7.209.928-14.418.928-7.209-6.327-14.419-6.327-7.209,6.422-14.418,6.422-7.209-5.296-14.418-5.296-7.209-1.071-14.419-1.071-7.209.668-14.419.668-7.209,1.776-14.418,1.776-7.209,1.994-14.419,1.994-7.209.581-14.419.581-7.209,1.182-14.418,1.182-7.21.224-14.42.224-7.207-6.181-14.413-6.181-7.208.327-14.417.327-7.209,2.159-14.418,2.159-7.207,3.658-14.414,3.658-7.207-4.732-14.413-4.732-7.208.769-14.415.769-7.21,1.994-14.42,1.994-7.208,1.885-14.416,1.885-7.207-2.223-14.414-2.223-7.208,1.04-14.416,1.04-7.21-.795-14.42-.795-7.208-3.696-14.417-3.696-7.208.588-14.415.588-7.209,3.065-14.418,3.065-7.209-2.658-14.419-2.658-7.208,4.273-14.416,4.273-7.209-1-14.418-1-7.21-.177-14.419-.177-7.208-5.259-14.417-5.259-7.21,1.304-14.42,1.304-7.209-.957-14.418-.957-7.209.751-14.418.751-7.21,3.755-14.421,3.755-7.209-3.798-14.418-3.798-7.211,5.176-14.422,5.176-7.209-4.602-14.419-4.602-7.211,4.095-14.422,4.095-7.21.267-14.419.267c-7.21,0-7.21-2.342-14.42-2.342s-7.21,1.464-14.421,1.464-7.21.883-14.42.883c-7.211,0-7.211-5.297-14.421-5.297s-7.211.212-14.422.212-7.211.349-14.421.349-7.21,1.073-14.421,1.073-7.21.336-14.421.336-7.211,2.592-14.421,2.592-7.211-2.668-14.422-2.668-7.208,1.83-14.416,1.83-7.21-3.213-14.42-3.213-7.211-.305-14.422-.305-7.21,2.509-14.42,2.509-7.21.532-14.421.532-7.211-1.792-14.422-1.792-7.212,2.84-14.424,2.84-7.211,1.616-14.422,1.616-7.212-6.021-14.423-6.021-7.212,4.714-14.424,4.714-7.213-2.167-14.426-2.167-7.211-.147-14.422-.147-7.213-2.536-14.427-2.536-7.211,3.644-14.422,3.644-7.216-.557-14.432-.557c-7.216,0-7.819,3.528-12.954-1.542-5.07-5.005-1.694-5.627-1.694-12.751,0-7.126,1.247-7.126,1.247-14.252,0-7.124-1.921-7.124-1.921-14.249,0-7.124,3.112-7.124,3.112-14.247,0-7.125-.565-7.125-.565-14.25,0-7.125-3.49-7.125-3.49-14.251,0-7.124,3.818-7.124,3.818-14.248,0-7.125-4.49-7.125-4.49-14.25,0-7.126,4.72-7.126,4.72-14.251,0-7.124-4.454-7.124-4.454-14.249s-.281-7.126-.281-14.252c0-7.125,2.457-7.125,2.457-14.25,0-7.125.675-7.125.675-14.25,0-7.126.812-7.126.812-14.252,0-7.125-.79-7.125-.79-14.25,0-7.127-3.035-7.127-3.035-14.254,0-7.125,2.95-7.125,2.95-14.25,0-7.127-2.407-7.127-2.407-14.254,0-7.126,3.272-7.126,3.272-14.251,0-7.126-1.558-7.126-1.558-14.252,0-7.126,2.407-7.126,2.407-14.253,0-7.126,1.203-7.126,1.203-14.252,0-7.126-1.647-7.126-1.647-14.253,0-7.127-2.689-7.127-2.689-14.254,0-7.127-.414-7.127-.414-14.253,0-7.126,4.486-7.126,4.486-14.253,0-7.126-6.512-7.126-6.512-14.253,0-7.127,2.619-7.127,2.619-14.253,0-7.127-1.668-7.127-1.668-14.254,0-7.124,1.499-7.124,1.499-14.248,0-7.126,3.01-7.126,3.01-14.252,0-7.127-3.489-7.127-3.489-14.254,0-7.126-2.074-7.126-2.074-14.252,0-7.126,4.25-7.126,4.25-14.252,0-7.127.22-7.127.22-14.254s-.549-7.128-.549-14.256c0-7.127,2.133-7.127,2.133-14.254s-2.633-7.128-2.633-14.255c0-7.128.389-7.128.389-14.256,0-7.129,2.051-7.129,2.051-14.257,0-7.127.516-7.127.516-14.254,0-7.129-.432-7.129-.432-14.259s-2.522-7.127-2.522-14.254c0-7.132,2.411-7.132,2.411-14.264,0-7.132-8.325-10.091-3.256-15.108,5.123-5.069,8.042,1.473,15.25,1.473s7.205-3.064,14.41-3.064,7.205,2.799,14.41,2.799,7.205,1.827,14.409,1.827,7.205.02,14.409.02,7.205-5.03,14.409-5.03,7.205,1.6,14.409,1.6,7.205,4.013,14.41,4.013,7.205-2.823,14.411-2.823,7.206-.364,14.411-.364,7.206,2.363,14.412,2.363,7.207-1.573,14.414-1.573,7.207-3.189,14.415-3.189,7.208.154,14.417.154,7.208,5.852,14.415,5.852,7.207-4.859,14.414-4.859,7.206,2.591,14.413,2.591,7.206.804,14.412.804,7.206-.045,14.411-.045,7.205-4.352,14.411-4.352,7.205,4.011,14.41,4.011,7.205-2.22,14.41-2.22,7.205,4.344,14.41,4.344,7.205-6.409,14.411-6.409,7.206,4.99,14.411,4.99,7.206,1.388,14.412,1.388,7.207-4.255,14.413-4.255,7.207,3.764,14.414,3.764,7.208-1.715,14.416-1.715,7.208-4.058,14.417-4.058,7.208,1.706,14.415,1.706,7.207-2.239,14.414-2.239,7.206,5.582,14.413,5.582,7.206-4.238,14.412-4.238,7.206-.275,14.412-.275,7.206,2.656,14.411,2.656,7.206,2.134,14.411,2.134,7.206-1.38,14.411-1.38,7.206.629,14.412.629,7.206-3.938,14.413-3.938,7.207-.161,14.414-.161,7.208,2.027,14.415,2.027,7.208,2.064,14.417,2.064,7.208.991,14.416.991,7.207-4.382,14.415-4.382,7.207,2.73,14.414,2.73,7.206,1.977,14.413,1.977,7.206-.166,14.412-.166,7.206-4.024,14.412-4.024,7.206-2.2,14.412-2.2,7.206,2.971,14.412,2.971,7.207.89,14.413.89,7.207-.394,14.414-.394,7.208-1.33,14.415-1.33,7.208,1.393,14.417,1.393,7.208,2.771,14.417,2.771,7.208-5.061,14.415-5.061,7.207-.48,14.414-.48,7.207,4.051,14.413,4.051,7.206,1.099,14.413,1.099,7.206-5.507,14.413-5.507,7.206,2.366,14.413,2.366,7.207,3.412,14.414,3.412,7.207-.16,14.415-.16,7.208-5.11,14.416-5.11,7.209,5.238,14.418,5.238,7.208-3.829,14.417-3.829,7.208,3.665,14.415,3.665,7.207-3.552,14.414-3.552,7.207-.18,14.414-.18,7.207,4.067,14.413,4.067,7.207-4.293,14.414-4.293,7.207-.814,14.414-.814,7.208,3.919,14.415,3.919,7.208-.191,14.417-.191,7.209-3.899,14.418-3.899,7.208,4.143,14.416,4.143,7.207.157,14.415.157,7.207-2,14.414-2,7.207,2.657,14.414,2.657,7.207-.129,14.414-.129,7.207-4.764,14.415-4.764,7.208,3.923,14.416,3.923,7.209.067,14.418.067,7.209-2.013,14.417-2.013,7.208,1.172,14.416,1.172,7.207-3.927,14.415-3.927,7.207.012,14.415.012,7.207-.347,14.415-.347,7.208,5.865,14.415,5.865,7.208-.695,14.417-.695,7.209-2.466,14.419-2.466,7.208-1.139,14.417-1.139,7.208.375,14.416.375,7.208,4.473,14.415,4.473,7.208-4.939,14.415-4.939,7.208,2.395,14.416,2.395,7.208-2.712,14.417-2.712,7.209,1.441,14.419,1.441,7.208.458,14.417.458,7.208-2.647,14.416-2.647,7.208,2.54,14.415,2.54,7.208.327,14.416.327,7.208,3.474,14.417,3.474,7.209-6.906,14.418-6.906,7.209,1.082,14.418,1.082,7.208-.127,14.416-.127,7.208,4.956,14.416,4.956,7.208-1.508,14.416-1.508,7.209-4.25,14.417-4.25,7.21,1.805,14.419,1.805,7.209-1.772,14.417-1.772,7.208,5.369,14.416,5.369,7.208-1.276,14.416-1.276,7.209,2.055,14.417,2.055,7.209-2.028,14.419-2.028,7.209-.018,14.418-.018,7.208.947,14.417.947,7.208,1.734,14.417,1.734,7.209-4.972,14.418-4.972,7.21,3.443,14.419,3.443,7.209.881,14.417.881,7.208-3.285,14.417-3.285,7.209,2.453,14.417,2.453,7.209-5.063,14.419-5.063,7.209,5.974,14.418,5.974,7.208-4.291,14.417-4.291,7.209,1.231,14.417,1.231,7.209-1.372,14.419-1.372,7.209,4.211,14.418,4.211,7.209-2.286,14.417-2.286,7.209.017,14.418.017,7.21-.886,14.42-.886,7.209,1.128,14.418,1.128,7.209-.304,14.418-.304,7.209-3.738,14.419-3.738,7.209,1.312,14.418,1.312,7.209.659,14.418.659,7.209.402,14.419.402,7.209,4.129,14.419,4.129,7.209-2.35,14.418-2.35,7.209-2.8,14.419-2.8,7.209,1.146,14.419,1.146,7.209-.457,14.418-.457,7.21,4.438,14.42,4.438,7.207-2.748,14.413-2.748,7.208-2.518,14.417-2.518,7.209,3.773,14.418,3.773,7.207.294,14.414.294,7.207-1.972,14.413-1.972,7.208-2.397,14.415-2.397,7.21,1.909,14.42,1.909,7.208-1.506,14.416-1.506,7.207,4.398,14.414,4.398,7.208-1.632,14.416-1.632,7.21,1.617,14.42,1.617,7.208-4.859,14.417-4.859,7.208,4.541,14.415,4.541,7.209-3.185,14.418-3.185,7.209-1.466,14.419-1.466,7.208,3.994,14.416,3.994,7.209-.316,14.418-.316,7.21-3.957,14.419-3.957,7.208-.306,14.417-.306,7.21,3.87,14.42,3.87,7.209,1.305,14.418,1.305,7.209-.661,14.418-.661,7.21-2.65,14.421-2.65,7.209,2.463,14.418,2.463,7.211.168,14.422.168,7.209.418,14.419.418,7.211-4.431,14.422-4.431,7.21.474,14.419.474,7.21,2.571,14.42,2.571,7.21-1.343,14.421-1.343,7.21,2.973,14.42,2.973,7.211-3.079,14.421-3.079,7.211-1.819,14.422-1.819,7.211,5.196,14.421,5.196,7.21-3.991,14.421-3.991,7.21,1.498,14.421,1.498,7.211-3.175,14.421-3.175,7.211,5.78,14.422,5.78,7.208-2.883,14.416-2.883,7.21-1.131,14.42-1.131,7.211-1.378,14.422-1.378,7.21.223,14.42.223,7.21,6.162,14.421,6.162,7.211-1.231,14.422-1.231,7.212-.173,14.424-.173,7.211.358,14.422.358,7.212-.474,14.423-.474,7.212-2.227,14.424-2.227,7.213,3.755,14.426,3.755,7.211-5.643,14.422-5.643,7.213,1.22,14.427,1.22,7.211.635,14.422.635,7.216-.833,14.432-.833,7.128-1.527,12.347,3.457c4.984,4.76-.323,4.709-.323,11.6s2.954,6.893,2.954,13.785-1.503,6.893-1.503,13.785.18,6.89.18,13.781.402,6.892.402,13.785.301,6.895.301,13.789-.305,6.892-.305,13.785,2.156,6.897,2.156,13.794-2.261,6.897-2.261,13.794c0,7.182,2.465,7.182,2.465,14.364s.75,7.184.75,14.367-6.062,7.183-6.062,14.366.399,7.183.399,14.366-.047,7.184-.047,14.368.878,7.183.878,14.366-.239,7.185-.239,14.369,3.508,7.183,3.508,14.366,1.496,7.185,1.496,14.369-5.135,7.183-5.135,14.367.885,7.184.885,14.368,3.401,7.184,3.401,14.368,1.008,7.184,1.008,14.367.038,7.184.038,14.369.216,7.185.216,14.37-.142,7.184-.142,14.369-2.121,7.184-2.121,14.368,1.151,7.184,1.151,14.369-5.46,7.184-5.46,14.369,3.301,7.185,3.301,14.369-.3,7.182-.3,14.364-2.188,7.184-2.188,14.368.529,7.185.529,14.37.596,7.184.596,14.368c0,7.184-.436,7.184-.436,14.368s3.068,7.185,3.068,14.37.62,7.186.62,14.372,1.086,7.185,1.086,14.37-2.931,7.186-2.931,14.371c0,7.186,2.783,7.186,2.783,14.371s-3.089,7.187-3.089,14.373-2.53,7.185-2.53,14.369,6.127,7.187,6.127,14.374-2.57,7.185-2.57,14.37-4.204,7.78-2.776,14.827c1.484,7.325,6.93,8.488,1.84,13.566Z" style="fill: none; stroke: #000; stroke-linecap: round; stroke-linejoin: round; stroke-width: 45px;"/>
  </g>
</svg>