<?xml version="1.0" encoding="UTF-8"?>
<svg id="Title" xmlns="http://www.w3.org/2000/svg" width="700" height="700" viewBox="0 0 700 700">
  <path d="M252.674,202.714s1.724,3.738,2.356,2.82c.27-.392-2.998-3.397-2.614-3.933.301-.42-.914-2.084-.544-2.584.318-.429,6.616,3.574,6.985,3.091.329-.431-5.535-5.706-5.166-6.177.338-.431,3.087.967,3.458.505.345-.43,2.781.806,3.155.352.352-.428,4.65,2.462,5.028,2.014.359-.425-5.719-6.341-5.337-6.783.365-.422,3.042,1.141,3.428.704.37-.419,3.099,1.281,3.488.849.376-.416-2.296-3.608-1.902-4.034.381-.413,5.479,3.604,5.876,3.183.386-.409-5.123-6.429-4.721-6.846.391-.406,3.092,1.42,3.498,1.008.396-.402.855-.736,1.265-1.143.401-.398-.684-2.32-.27-2.722.406-.394,1.774.199,2.192-.198.41-.39-2.468-4.322-2.046-4.715.415-.385.346-1.385.773-1.773.419-.381,1.862.292,2.293-.09.424-.377-.009-1.812.426-2.19.428-.372,6.748,6.091,7.186,5.718.432-.367-1.145-3.092-.703-3.459.436-.362.47-1.214.916-1.576.44-.357-.158-2.03.293-2.387.445-.353,1.229-.304,1.683-.655.449-.348,2.785,1.775,3.243,1.429.453-.342-.531-2.601-.069-2.942.457-.337,4.336,4.07,4.802,3.734.462-.332-2.557-5.521-2.087-5.85.466-.326,2.405,1.488,2.88,1.164.47-.321-2.85-6.298-2.372-6.616.474-.315,5.652,6.519,6.134,6.207.478-.31-1.446-4.347-.96-4.653.482-.304,3.705,3.846,4.194,3.546.486-.298-2.096-5.638-1.602-5.932.49-.291,3.257,3.318,3.754,3.031.493-.285-1.163-4.324-.663-4.605.497-.279.814-.925,1.319-1.199.501-.272,2.76,2.743,3.268,2.476.504-.266.252-1.957.764-2.218.508-.259-.151-2.872.364-3.126.512-.252,2.561,2.652,3.079,2.405.515-.245,1.58.748,2.102.508.518-.238,1.773,1.274,2.298,1.041.521-.231-1.796-6.955-1.268-7.18.523-.223-.107-3.352.423-3.569.527-.216,4.8,8.858,5.333,8.648.53-.209-1.673-7.478-1.137-7.68.533-.201,2.718,4.03,3.257,3.835.536-.194,1.806,1.805,2.348,1.617.539-.186-.413-4.72.132-4.9.541-.178.842-1.165,1.389-1.337.544-.17,2.852,5.505,3.402,5.341.547-.163-1.351-8.765-.798-8.92.549-.155.951-1.113,1.505-1.26.551-.147,2.709,5.817,3.266,5.678.554-.138-.492-7.027.067-7.158.556-.13,1.324.309,1.885.186.558-.122,3.248,9.868,3.811,9.753.559-.114.87-1.14,1.434-1.246.561-.105.886-1.213,1.452-1.311.562-.097.2-5.784.768-5.873.564-.088,1.43,1.692,1.999,1.611.564-.08.808-2.77,1.377-2.842.566-.072,1.11-.774,1.68-.837.567-.063,1.015-1.966,1.586-2.021.568-.055,1.929,8.587,2.502,8.54.569-.046.805-4.432,1.379-4.47.57-.038,1.29,2.443,1.864,2.413.57-.029.906-5.948,1.48-5.97.57-.021,1.248,1.719,1.822,1.706.571-.013,1.195,1.267,1.77,1.263.571-.004,1.187-2.842,1.762-2.838.57.004,1.042,7.749,1.617,7.761s1.164-1.853,1.74-1.832c.571.02,1.425-5.995,2-5.966s.89,5.058,1.458,5.092c.572.034,1.578-6.182,2.145-6.142.572.04.654,6.89,1.221,6.936.574.046,1.239-1.049,1.808-.997.573.052.598,5.492,1.166,5.55.572.058,2.283-10.526,2.85-10.462.572.064.05,9.465.617,9.534.571.07,1.141-.187,1.707-.111.57.076,2.269-7.925,2.834-7.843.569.082-.194,9.015.37,9.102.568.089,1.918-4.805,2.48-4.711.567.095.334,4.705.895,4.805.566.101,1.186-.326,1.746-.22.565.107,2.246-5.544,2.805-5.431.563.113,1.719-2.437,2.276-2.318.562.119.558,3.019,1.114,3.144.561.126.328,3.718.883,3.849.559.132,1.3-.532,1.852-.395.558.138,1.787-2.336,2.338-2.193.556.144-.295,5.558.255,5.707.554.151,2.161-3.543,2.708-3.388.552.157.228,3.3.774,3.462.55.163,1.46-.931,2.004-.763.549.169.009,3.686.551,3.86.547.175,2.4-3.732,2.939-3.552.544.182,2.142-2.69,2.68-2.504.542.188-1.499,7.664-.964,7.857.54.194,4.67-9.415,5.203-9.216.538.2,1.14.411,1.671.615.535.206-2.88,10.498-2.352,10.708.533.212,2.038-2.092,2.564-1.876.531.219,2.788-3.696,3.311-3.473.528.225-.881,4.914-.361,5.142.525.231.143,2.384.66,2.618.523.237,3.418-4.744,3.932-4.504.52.243-1.046,4.838-.535,5.085.517.249,3.863-5.318,4.371-5.066.514.255-2.501,7.488-1.995,7.746.511.261,1.959-1.4,2.462-1.137.509.267,4.756-6.479,5.256-6.209.506.273-3.059,7.993-2.563,8.268.502.279,4.463-5.602,4.955-5.321.499.285.766,1.038,1.256,1.325.496.29-2.937,7.176-2.45,7.468.493.296,5.695-7.152,6.178-6.854.49.302-1.508,4.618-1.029,4.922.486.308,1.674-.48,2.149-.171.483.314,2.398-1.511,2.869-1.197.479.319-2.908,6.36-2.44,6.679.476.325,1.288.094,1.752.419.472.331.249,1.566.709,1.896.468.337,4.614-4.407,5.069-4.071.464.342-1.196,3.536-.745,3.877.46.347-.615,2.648-.169,2.993.456.353,4.518-3.923,4.96-3.573.453.359,2.975-1.799,3.413-1.444.449.365-1.133,3.259-.7,3.62.445.371-2.447,4.679-2.018,5.045.441.376,6.625-5.877,7.049-5.507.437.382-.738,2.656-.32,3.031.433.388,1.724-.109,2.137.271.428.394-2.228,4.124-1.821,4.508.424.4,4.375-2.854,4.775-2.466.419.407,1.182.546,1.575.938.416.414-.098,1.822.289,2.218.412.422,1.582.182,1.961.581.41.432-6.353,7.548-5.981,7.951.406.441,3.72-1.849,4.08-1.445.404.453,3.131-1.158,3.479-.755.405.47,1.566.31,1.894.706.421.508-4.418,5.163-4.124,5.535.688.871,5.624-3.153,6.117-2.46" style="fill: none; stroke: #000; stroke-linecap: round; stroke-linejoin: round; stroke-width: 40px;"/>
  <path d="M192.882,158.66s1.417-.212,2.07-1.119c.278-.386,3.03.965,3.425.432.307-.414.174-1.17.55-1.667.322-.425-5.953-5.96-5.58-6.441.332-.428,4.838,2.349,5.209,1.878.338-.428,1.672-.077,2.043-.538.344-.428,3.227,1.214,3.599.758.35-.428-7.697-7.799-7.322-8.25.355-.427,6.303,3.79,6.68,3.343.359-.426.797-.786,1.177-1.228.364-.424-5.024-5.85-4.642-6.289.368-.423,4.864,2.727,5.249,2.291.372-.421,2.694.888,3.081.455.375-.419,1.927.24,2.317-.189.379-.417-1.29-2.695-.897-3.121.382-.415.101-1.45.496-1.872.385-.412-3.437-4.818-3.039-5.238.388-.41,7.388,5.465,7.788,5.048.391-.408-3.847-5.299-3.445-5.712.394-.405,3.99,2.312,4.396,1.901.397-.403-.795-2.39-.387-2.797.4-.4.513-1.108.923-1.512.403-.398,2.262.682,2.674.28.406-.395,1.579.01,1.994-.388.409-.392-.841-2.525-.423-2.921.412-.39,1.817.273,2.237-.119.415-.387,1.692.167,2.116-.222.418-.384.884-.697,1.31-1.084.42-.382-4.377-6.571-3.949-6.955.423-.379,3.643,2.347,4.074,1.966.426-.376-1.347-3.296-.914-3.673.429-.373,1.991.519,2.427.145.431-.37,4.072,3.015,4.511,2.644.434-.367,1.14-.391,1.581-.759.437-.364,1.998.661,2.441.296.439-.361-3.127-5.621-2.681-5.983.442-.358,5.661,5.236,6.109,4.878.444-.355-2.423-4.858-1.972-5.213.447-.352.391-1.355.844-1.706.45-.349,3.017,2.065,3.473,1.717.452-.345-3.819-6.941-3.361-7.285.455-.342,3.102,2.211,3.563,1.87.457-.339-1.609-4.16-1.146-4.498.459-.334,2.272,1.142,2.737.809.461-.331,4.385,4.191,4.852,3.861.464-.328,2.022.95,2.492.624.467-.324,1.347.014,1.819-.309.469-.321-.309-2.427.166-2.746.472-.317,2.358,1.544,2.835,1.229.474-.314-1.852-4.857-1.372-5.169.477-.31-2.043-5.305-1.561-5.613.479-.306,4.31,4.648,4.794,4.343.482-.303-1.578-4.71-1.091-5.01s2.786,2.345,3.275,2.049,1.393.111,1.885-.181.743-.977,1.237-1.266,2.911,2.794,3.408,2.51.363-1.613.862-1.893.336-1.704.837-1.98.52-1.41,1.024-1.682-.261-2.923.245-3.19,3.17,3.6,3.678,3.337,1.163-.181,1.674-.439-2.748-8.05-2.235-8.305,2.344,2.106,2.859,1.856,4.642,7.07,5.159,6.824-1.211-5.205-.692-5.446-1.138-5.269-.616-5.505,5.273,9.003,5.797,8.772-1.35-5.885-.824-6.112,1.707,1.108,2.234.886-.59-4.419-.061-4.636.657-1.507,1.189-1.719,2.495,3.168,3.028,2.961,2.909,4.47,3.445,4.268-1.052-6.049-.514-6.246c.535-.196,1.189-.086,1.728-.277s1.231.053,1.771-.134,1.589,1.149,2.131.967-1.036-6.855-.492-7.031,1.706,1.455,2.252,1.284,1.254.088,1.802-.078,1.413.664,1.963.503,2.023,2.905,2.574,2.75-.231-5.17.322-5.319,1.156-.235,1.71-.379,1.859,2.586,2.415,2.447.059-4.695.616-4.828,3.482,9.885,4.04,9.757-.065-5.419.494-5.541,1.177.045,1.737-.072,1.375,1.084,1.937.973,1.813,3.581,2.376,3.476.688-2.368,1.253-2.467.461-4.019,1.027-4.113,1.273.708,1.84.621,1.946,5.503,2.513,5.422c.564-.081-.439-11.426.129-11.502s1.73,4.252,2.299,4.181,1.799,5.664,2.368,5.6.307-7.719.877-7.778,1.748,6.206,2.319,6.153.636-5.795,1.208-5.842,1.548,5.316,2.12,5.275,1.177,1.06,1.749,1.025c.569-.035.889-4.117,1.461-4.146s1.172.784,1.744.76,1.249,3.89,1.822,3.873.961-6.577,1.535-6.588c.571-.011,1.113-4.545,1.687-4.55s1.204,3.034,1.778,3.034,1.097,7.18,1.672,7.186,1.109.831,1.681.841,1.247-5.756,1.818-5.743,1.288-4.824,1.859-4.808.922,7.585,1.493,7.605,1.225-2.22,1.796-2.197,1.004,3.171,1.575,3.197,1.349-4.195,1.92-4.166.848,5.334,1.418,5.367,1.072.844,1.642.881,1.739-8.811,2.309-8.771c.574.04,1.038,1.85,1.61,1.894s.574,7.229,1.145,7.276,1.702-6.515,2.273-6.465,1.096.751,1.666.805.854,3.06,1.425,3.117,1.935-7.364,2.505-7.303.3,7.872.869,7.936,1.079.549,1.648.617,2.09-7.498,2.658-7.426.719,3.571,1.287,3.646,1.156.118,1.723.197.577,4.098,1.143,4.18,2.338-7.82,2.904-7.734.888,1.982,1.453,2.072.455,4.461,1.019,4.555,1.047.682,1.611.779,2.187-5.746,2.751-5.645-.477,9.079.086,9.183.996.779,1.558.887,1.332-.952,1.893-.841,2.727-7.674,3.288-7.559.453,3.555,1.013,3.673.382,3.671.941,3.794,2.378-5.375,2.936-5.249.684,2.236,1.241,2.366,2.045-3.556,2.601-3.423-1.633,11.571-1.078,11.708,3.089-7.665,3.643-7.524,1.667-1.782,2.22-1.637,1.415-.734,1.968-.586.61,2.248,1.161,2.4c.554.152.219,3.536.769,3.692.553.156,2.698-5.191,3.247-5.032.552.16-.594,6.175-.046,6.338.551.163.281,3.016.828,3.182.55.167,2.326-3.68,2.872-3.511.548.171,1.254-.132,1.799.041.547.174.3,2.815.843,2.992.546.178,1.388-.556,1.93-.375.545.182,2.206-2.915,2.747-2.73.543.185,1.305-.189,1.845,0,.542.189.587,1.853,1.125,2.045.541.193.052,3.261.589,3.457.54.196,2.152-2.509,2.687-2.31.538.2-.707,5.149-.174,5.351.537.204,4.097-7.457,4.63-7.251.535.207-2.289,9.029-1.758,9.239.534.211,4.155-7.308,4.684-7.095.532.214-.234,3.679.293,3.896.531.218,1.233.049,1.76.27.529.222,2.456-2.802,2.98-2.578.528.225,1.17.278,1.693.505.526.229-3.219,10.199-2.697,10.43.525.232,3.134-4.245,3.654-4.011.523.236,2.018-1.646,2.536-1.408.522.239-2.336,7.748-1.82,7.99.52.243,3.381-4.528,3.896-4.283.518.246,2.937-3.437,3.45-3.189.516.25-.824,4.336-.312,4.587.515.253,3.337-4.103,3.847-3.847.513.257,1.269.113,1.777.371.511.26-2.542,7.485-2.035,7.747.511.265.692,1.124,1.197,1.39.509.268.834.839,1.337,1.109.507.272.785.919,1.287,1.192.506.275.388,1.624.888,1.9.504.278,4.556-5.83,5.054-5.551.502.282-.63,3.457-.135,3.74.5.285,3.092-3.054,3.586-2.767.498.289-3.57,8.371-3.078,8.661.496.292,6.651-8.958,7.14-8.665.494.295-.659,3.368-.171,3.664.492.298-.186,2.517.3,2.817.489.302-.951,3.682-.468,3.985.487.305,5.778-6.999,6.259-6.693.485.308-3.653,7.847-3.174,8.156.483.312,5.496-6.341,5.972-6.029.481.315-2.795,6.342-2.32,6.657.479.318.844.779,1.316,1.098.477.321,4.833-5.058,5.303-4.737.474.324-3.497,7.11-3.03,7.434.472.328,5.842-6.341,6.306-6.014.47.331-5.626,9.917-5.163,10.247.468.334,7.208-8.064,7.668-7.731.465.337.383,1.473.84,1.809.463.34-3.892,7.189-3.437,7.529.461.344,6.639-6.929,7.092-6.586.459.347-4.264,7.512-3.813,7.858.457.35.445,1.264.893,1.613.455.353,1.832-.512,2.278-.161.453.357,1.675-.278,2.12.077.451.36,4.414-3.633,4.856-3.275.448.363-5.729,8.835-5.29,9.195.445.366,5.418-4.773,5.854-4.41.443.369-.943,2.909-.51,3.275.44.372.549,1.107.979,1.474.438.375-.732,2.573-.305,2.944.436.378,2.693-1.367,3.117-.994.434.381-1.148,2.996-.726,3.372.431.385,2.989-1.639,3.408-1.26.429.388,2.536-1.08,2.952-.698.426.391-1.257,3.052-.844,3.436.424.394,4.723-3.357,5.132-2.971.422.398.676.995,1.083,1.383.419.401-5.328,7.19-4.925,7.58.417.404,7.341-5.888,7.741-5.495.415.408-5.28,6.977-4.884,7.372.412.41,6.506-4.876,6.899-4.48.41.413-.07,1.708.318,2.105" style="fill: none; stroke: #000; stroke-linecap: round; stroke-linejoin: round; stroke-width: 40px;"/>
  <g>
    <path d="M408.114,407.826c.174-.838-6.536-3.088-5.936-3.698s4.036,2.77,4.636,2.16-.095-1.292.504-1.902c.6-.61-3.711-4.849-3.111-5.459s1.574.347,2.175-.263,5.96,4.662,6.559,4.053-1.96-3.128-1.359-3.739-2.152-3.312-1.554-3.92-.511-1.704.09-2.314,5.467,4.178,6.066,3.569-.599-1.788,0-2.397,1.651.421,2.252-.19-1.874-3.044-1.274-3.654,4.763,3.482,5.364,2.871-4.589-5.718-3.988-6.329,6.188,4.884,6.789,4.273.015-1.189.617-1.801-4.48-5.613-3.876-6.227,4.754.761,4.427-.035c-.325-.791-2.273-4.261-3.128-4.261s-.855,3.719-1.709,3.719c-.854,0-.854,6.504-1.709,6.504s-.854.22-1.708.22-.854-6.586-1.708-6.586-.854-.558-1.708-.558-.854.735-1.708.735-.854-3.121-1.709-3.121-.855,9.123-1.709,9.123-.855-6.12-1.71-6.12-.855,3.344-1.711,3.344-.856-5.824-1.712-5.824-.856,1.206-1.712,1.206-.855-2.626-1.711-2.626-.855,4.25-1.71,4.25-.855,5.86-1.71,5.86-.855.319-1.709.319-.855-10.549-1.709-10.549-.855,5.885-1.71,5.885-.855-5.698-1.711-5.698-.856-.928-1.712-.928-.856,4.982-1.713,4.982-.856-3.419-1.712-3.419-.856,9.284-1.711,9.284-.855-.753-1.71-.753-.855-7.766-1.71-7.766-.855-2.249-1.711-2.249-.856,4.948-1.711,4.948-.856,6.052-1.713,6.052-.856-6.662-1.713-6.662-.856-2.662-1.712-2.662-.856,5.402-1.711,5.402-.856-2.096-1.711-2.096-.856-2.347-1.712-2.347-.857,2.056-1.713,2.056-.856,5.475-1.713,5.475c-.856,0-.856-3.753-1.712-3.753s-.856-5.458-1.712-5.458-.856,8.901-1.712,8.901-.857,1.136-1.714,1.136-.855-.112-1.711-.112-.854-3.941-1.709-3.941-.854-3.543-1.708-3.543-.854,4.064-1.708,4.064-.855-7.614-1.71-7.614-.856,4.031-1.712,4.031-.857.474-1.714.474-.856,2.883-1.711,2.883-.855,2.952-1.71,2.952-.856-7.947-1.711-7.947-.857,2.228-1.714,2.228-.857,1.534-1.714,1.534-.856-2.611-1.712-2.611-.857-3.109-1.713-3.109-.858,6.161-1.715,6.161c-.857,0-.857,1.332-1.713,1.332s-.858-.431-1.715-.431c-.857,0-.857-6.213-1.714-6.213-.858,0-.858-.687-1.716-.687s-.858,9.149-1.715,9.149c-.855,0-.855-8.075-1.711-8.075s-.858-1.827-1.716-1.827-.857,1.017-1.714,1.017-.858,10.277-1.716,10.277-.859-4.504-1.718-4.504c-.858,0-.858-3.713-1.715-3.713s-.86,3.394-1.719,3.394-.861.432-1.722.432-2.357-2.172-2.682-1.375c-.328.805,3.116-.5,3.724.122s-.026,1.24.581,1.862c.607.621,3.057-1.772,3.664-1.151s-.582,1.783.025,2.405-3.143,4.286-2.535,4.908c.607.622,4.15-2.839,4.757-2.217s1.309-.063,1.917.56c.605.62-4.821,5.92-4.215,6.54s.531.698,1.139,1.32c.607.621,1.757-.502,2.363.119s1.476-.229,2.083.393.683.55,1.292,1.174,3.395-2.101,4.003-1.479-.588,1.791.021,2.414,3.668-2.364,4.277-1.741-3.304,4.444-2.695,5.067c.609.624-1.496,2.681-.887,3.304s-.253,1.469.358,2.095,7.4-3.245,7.586-2.391c.183.84,1.232,3.37.933,4.177s-1.038.533-1.336,1.339c-.298.806-7.061-1.699-7.36-.893s1.105,1.325.807,2.131,3.108,2.067,2.81,2.872-1.497.361-1.795,1.166,1.736,1.558,1.438,2.363.628,1.148.33,1.953-4.167-.628-4.465.177-3.741-.47-4.039.335,4.94,2.745,4.641,3.551-6.553-1.511-6.852-.705,2.127,1.705,1.828,2.511-3.637-.43-3.936.377,9.554,4.456,9.255,5.262-8.927-2.389-9.225-1.583,2.519,1.849,2.22,2.655,3.738,2.3,3.44,3.106.657,1.159.359,1.965-4.248-.657-4.546.148c-.298.806,2.879,1.982,2.581,2.788s-8.174-2.111-8.473-1.305,5.238,2.857,4.939,3.664-3.547-.396-3.846.411,5.737,3.042,5.438,3.849-3.17-.257-3.468.549,2.986,2.022,2.687,2.828-7.787-1.967-8.085-1.161c-.299.806,2.253,1.751,1.955,2.557s-.536.718-.835,1.525,3.314,2.145,3.015,2.952-3.612-.42-3.911.387.32,1.036.022,1.842-2.09.143-2.388.949.283,1.022-.016,1.828-2.076.148-2.375.955,3.003,2.03,2.704,2.837.525,1.112.226,1.919.918,1.257.62,2.064,2.01,1.662,1.711,2.468c-.299.806-2.221.094-2.52.9s-6.877-1.629-7.176-.821c-.299.806,7.387,3.653,7.089,4.459s-8.824-2.353-9.123-1.547c-.298.805,5.834,3.076,5.536,3.881s3.242,2.116,2.944,2.921-9.015-2.423-9.313-1.617,7.961,3.866,7.662,4.673-6.935-1.65-7.235-.842,1.14,1.339.841,2.146-2.784-.114-3.082.692-2.315.06-2.614.866,7.113,3.553,6.814,4.36-3.765-.476-4.064.332,3.562,2.237,3.263,3.044-4.969-.922-5.268-.115,4.491,2.582,4.191,3.391,1.236,1.376.937,2.183-4.458-.732-4.757.077.396,1.065.096,1.873,2.214,1.74,1.915,2.548-2.425.019-2.724.825-4.78-.853-5.079-.047c-.3.809,5.942,3.121,5.643,3.93s-4.518-.755-4.818.053,2.048,1.678,1.749,2.487,1.34,1.417,1.04,2.227,1.188,1.36.889,2.168-5.516-1.121-5.816-.311-3.078-.217-3.379.595c-.301.812,2.896,1.996,2.595,2.807-.296.799,1.697,1.537,1.401,2.337s-6.736-1.586-7.032-.787,3.421,2.176,3.125,2.975,2.791,1.942,2.495,2.741c-.296.799-1.794.244-2.09,1.043s-1.411.386-1.707,1.186,4.607,2.615,4.311,3.415-.447.744-.744,1.544-6.389-1.456-6.686-.656-.642.673-.939,1.474-2.382.029-2.678.829,10.147,4.668,9.851,5.469-8.708-2.315-9.004-1.515,4.449,2.557,4.152,3.357-6.256-1.408-6.552-.608,2.987,2.015,2.69,2.815.964,1.267.668,2.066-4.254-.666-4.55.135-1.284.435-1.581,1.235,4.238,2.481,3.941,3.282,4.337,2.517,4.04,3.318-8.143-2.106-8.44-1.305,5.594,2.982,5.298,3.782-.975.549-1.271,1.349,2.981,2.014,2.684,2.814-9.595-2.643-9.892-1.843-1.202.466-1.499,1.267,3.094,2.057,2.798,2.858.693,1.167.396,1.968-4.299-.682-4.595.119c-.296.8,1.668,1.528,1.372,2.329s5.334,2.886,5.037,3.687-2.264.073-2.561.874.954,1.264.657,2.066-2.668-.078-2.965.723-.822.606-1.118,1.407-4.466-.744-4.762.056,8.026,3.884,7.729,4.686-8.439-2.215-8.735-1.415,5.834,3.07,5.538,3.869-.827.602-1.123,1.401-1.082.508-1.378,1.307,2.392,1.795,2.096,2.595-7.734-1.953-8.03-1.152,5.04,2.778,4.743,3.58-1.747.263-2.044,1.064-2.39.025-2.687.825,3.275,2.123,2.979,2.924-5.284-1.045-5.581-.243,5.904,3.098,5.607,3.9c-.297.801-7.492-1.864-7.789-1.063s5.45,2.93,5.154,3.732c-.297.802,1.206,1.359.909,2.162-.297.802-4.704-.831-5.001-.029s2.671,1.902,2.373,2.704-1.329.42-1.626,1.222-1.44.379-1.738,1.182,4.108,2.432,3.811,3.232-3.33-.323-3.626.478-5.771-1.224-6.069-.421,7.322,3.623,7.025,4.425-4.752-.847-5.049-.044,4.808,2.695,4.51,3.499-1.152.486-1.449,1.289-1.967.186-2.265.991-1.271.446-1.57,1.251-.809,1.579-.322,2.287c.484.703,1.395,2.578,2.248,2.578s.855-8.6,1.709-8.6.856,1.298,1.711,1.298.854.938,1.709.938.854,4.073,1.708,4.073.854,4.348,1.709,4.348.856-8.052,1.711-8.052.855-1.134,1.711-1.134.855,9.659,1.709,9.659.855-10.697,1.711-10.697.856,3.818,1.713,3.818.855,2.684,1.711,2.684.856,2.704,1.713,2.704.856-.71,1.712-.71.857,1.736,1.713,1.736.856-7.735,1.712-7.735.854-2.761,1.708-2.761.857,1.784,1.714,1.784.855,4.095,1.711,4.095.857-.652,1.713-.652.858-5.466,1.715-5.466.856,9.182,1.713,9.182.858-4.122,1.717-4.122.86-3.278,1.72-3.278-.814-1.316.007-1.571.906,2.816,1.615,2.329,2.217,1.704,2.926,1.217,3.554,3.649,4.264,3.161.049-1.449.759-1.937,1.842,1.157,2.552.668-.949-2.902-.238-3.391-.082-1.641.628-2.13-1.363-3.503-.653-3.991-.581-2.365.129-2.853,3.675,3.824,4.385,3.336-1.547-3.77-.837-4.259,4.314,4.752,5.024,4.263,2.009,1.399,2.72.911-5.712-9.828-5.001-10.317,1.044-.004,1.754-.492.346-1.017,1.056-1.506,2.178,1.646,2.888,1.158,1.365.464,2.075-.025-1.239-3.318-.532-3.804,4.836,5.516,5.543,5.03-3.601-6.754-2.893-7.241,3.034,2.893,3.743,2.405,2.056,1.469,2.766.98-.732-2.589-.021-3.078.275-1.122.985-1.61,5.145,5.963,5.855,5.475-4.68-8.325-3.971-8.813,1.357.454,2.066-.034.479-.823,1.189-1.311,4.311,4.747,5.022,4.258.341-1.029,1.052-1.518.958-.128,1.669-.617.701-.502,1.411-.99,1.363.46,2.073-.029-2.176-4.688-1.464-5.178,1.142.137,1.854-.352-.807-2.696-.096-3.185,1.48.629,2.191.139.296-1.095,1.008-1.584,5.607,6.63,6.318,6.141.811-.346,1.523-.836c.712-.489-1.578-3.819-.866-4.308s-1.61-3.868-.898-4.358,4.221,4.616,4.931,4.128-3.626-6.795-2.916-7.284,1.537.708,2.249.218-1.006-2.988-.295-3.477c.713-.49,1.753,1.023,2.466.533.713-.491,5.42,6.354,6.133,5.863s.974-.109,1.687-.599-.29-1.952.424-2.443-1.166-3.228-.451-3.72.327-2.941,1.195-2.97c.849-.028-1.887,6.519-1.163,6.963s5.408-7.19,6.132-6.746-2.515,5.723-1.791,6.167c.724.444,1.638-1.046,2.362-.601s.369,1.023,1.094,1.467,2.301-2.125,3.026-1.68.438.913,1.164,1.358.122,1.428.847,1.872-1.862,4.66-1.138,5.105,3.588-4.223,4.312-3.779,1.142-.236,1.866.208,1.02-.038,1.744.407,1.313-.515,2.038-.07-1.007,3.268-.282,3.713-.94,3.159-.215,3.604,2.907-3.111,3.631-2.667c.725.445.733.431,1.457.876s-1.144,3.49-.42,3.935.401.972,1.126,1.417.19,1.309.912,1.752,1.766-1.259,2.488-.816,4.87-6.316,5.593-5.873c.723.444-1.866,4.664-1.143,5.108s1.791-1.293,2.515-.849.58.683,1.306,1.128c.725.445-3.55,7.412-2.825,7.856s6.267-8.589,6.991-8.145-2.46,5.633-1.737,6.077-1.442,3.974-.719,4.418c.724.444.969.045,1.693.489s6.408-8.817,7.134-8.372-2.832,6.244-2.106,6.689.853.236,1.578.68,2.391-2.271,3.115-1.827-2.75,6.109-2.025,6.553,2.893-3.086,3.619-2.64,1.289-.473,2.015-.027c.725.445,1.211-.347,1.936.098.726.445-1.3,3.746-.574,4.192s2.787-2.912,3.513-2.466.01,1.612.736,2.057-.934,3.152-.207,3.597.454.889,1.18,1.335c.727.446,2.907-3.107,3.634-2.661s-.313,2.136.412,2.58,1.326-.535,2.051-.09,1.718-1.169,2.446-.723-2.983,6.491-2.257,6.936c.727.446,1.489-.796,2.216-.35s5.53-7.38,6.258-6.934.092,1.481.818,1.927-1.369,3.866-.64,4.313,3.139-3.479,3.869-3.031-1.065,1.549-.24,1.779c.838.235-.1-.635.77-.635s.869,8.087,1.738,8.087.869-1.397,1.737-1.397.869-4.126,1.738-4.126.87,1.863,1.741,1.863.87-2.928,1.74-2.928.869-1.907,1.739-1.907.87,5.831,1.74,5.831.871-1.606,1.742-1.606.87-.746,1.74-.746.871,4.22,1.742,4.22.871-.27,1.741-.27.871,1.492,1.743,1.492.871-9.443,1.742-9.443.869,2.339,1.738,2.339.872,2.476,1.743,2.476.87,5.736,1.74,5.736.871-7.985,1.743-7.985.872.838,1.745.838.871-.285,1.742-.285.873,5.953,1.746,5.953.875-2.938,1.749-2.938,2.242.326,2.75-.386c.498-.699-.504-1.817-.805-2.621s-3.095.246-3.397-.557,5.49-2.98,5.188-3.783-2.059-.143-2.361-.947,1.374-1.433,1.072-2.236-1.369-.402-1.671-1.205,1.964-1.654,1.662-2.457-8.114,2.133-8.416,1.33,5.957-3.155,5.655-3.957-5.723,1.235-6.025.432.793-1.214.492-2.017c-.302-.803,4.748-2.7,4.447-3.503s-4.762.874-5.064.071,2.067-1.693,1.765-2.495-4.144.641-4.446-.162-.562-.705-.864-1.508-.32-.796-.622-1.599-2.45.004-2.751-.799,4.506-2.61,4.204-3.413.693-1.177.391-1.981-6.543,1.542-6.845.738c-.302-.803.558-1.127.256-1.93s5.657-3.042,5.356-3.845-5.728,1.237-6.03.434,1.972-1.657,1.671-2.459-3.803.514-4.104-.288,9.262-4.395,8.96-5.197-7.727,1.989-8.028,1.188,7.248-3.638,6.947-4.439-11.014,3.225-11.315,2.424.179-.981-.122-1.782,2.008-1.668,1.707-2.469.859-1.237.558-2.037c-.301-.801,6.173-3.233,5.872-4.034s-6.211,1.42-6.512.62-4.687.847-4.987.047,6.051-3.188,5.75-3.989,1.092-1.324.791-2.125,2.513-1.858,2.212-2.659-2.346-.033-2.647-.834-8.171,2.156-8.472,1.354.589-1.136.288-1.938,4.53-2.618,4.229-3.42.744-1.195.442-1.998-5.052.982-5.353.179-1.977-.174-2.279-.977,5.965-3.159,5.663-3.963-2.241-.076-2.543-.88,1.884-1.625,1.582-2.429-7.963,2.076-8.265,1.272,6.974-3.537,6.672-4.34,2.156-1.726,1.854-2.529-3.421.37-3.722-.433-1.605-.312-1.907-1.114-3.302.326-3.604-.476c-.301-.802.909-1.257.608-2.059s6.87-3.497,6.569-4.299-3.049.231-3.35-.571c-.301-.802.973-1.281.671-2.083s-4.727.861-5.029.059,4.977-2.786,4.676-3.588c-.302-.803.532-1.116.23-1.919s-6.789,1.635-7.091.832,1.238-1.382.936-2.186.447-1.085.144-1.889-5.64,1.201-5.942.397,6.874-3.501,6.572-4.305-5.724,1.234-6.026.43,1.192-1.365.89-2.168.197-.991-.104-1.794,1.598-1.517,1.296-2.32c-.302-.803-3.667.462-3.969-.341s1.297-1.404.996-2.206,2.599-1.893,2.298-2.696,1.112-1.334.81-2.137-2.423-.006-2.725-.809-3.003.211-3.305-.592,2.705-1.934,2.402-2.738-1.138-.491-1.441-1.295c-.302-.805.744-1.198.441-2.002s-1.469-.366-1.771-1.17-6.883,1.669-7.185.865,3.431-2.206,3.129-3.01,4.141-2.473,3.839-3.276-5.659,1.21-5.961.406,6.945-3.527,6.643-4.331.497-1.104.195-1.908-2.28-.061-2.582-.866-7.414,1.867-7.716,1.062.889-1.252.587-2.057,1.243-1.385.941-2.189,1.727-1.567,1.425-2.371-4.648.829-4.95.025,6.262-3.271,5.96-4.075c-.302-.804-1.125-.495-1.428-1.299s-2.345-.037-2.647-.842-3.193.281-3.495-.524,4.529-2.62,4.227-3.425-8.074,2.116-8.376,1.312,5.681-3.053,5.379-3.857-4.502.774-4.804-.031,6.183-3.242,5.881-4.048-2.875.162-3.177-.643,1.053-1.314.751-2.119-.293-.808-.595-1.613,2.995-2.043,2.693-2.847-2.956.192-3.259-.614,2.236-1.758,1.934-2.562-6.416,1.494-6.718.691,2.83-1.979,2.528-2.782-7.54,1.917-7.841,1.114.811-1.222.509-2.025.248-1.012-.055-1.816,8.043-3.942,7.74-4.747-7.692,1.972-7.994,1.168-1.458-.369-1.761-1.173,7.376-3.69,7.074-4.494.639-1.16.337-1.965-1.187-.473-1.49-1.279,1.347-1.425,1.045-2.229c-.303-.805-7.43,1.873-7.733,1.068s-2.64.072-2.943-.734.431-1.081.129-1.886-.332-.795-.635-1.601,4.977-2.79,4.674-3.596,2.021-1.68,1.717-2.486-3.53.409-3.832-.396-1.577-.325-1.879-1.13c-.303-.807,1.272-1.399.969-2.206s-3.112.25-3.415-.556-1.371-.405-1.674-1.212c-.303-.808,2.464-1.848,2.16-2.655s-.928-.572-1.231-1.378,2.605-1.902,2.302-2.71-3.375,2.24-2.539,2.02c2.61-.685,4.376-2.205,4.552-3.052Z" style="fill: #fff;"/>
    <path d="M408.114,407.826c.174-.838-6.536-3.088-5.936-3.698s4.036,2.77,4.636,2.16-.095-1.292.504-1.902c.6-.61-3.711-4.849-3.111-5.459s1.574.347,2.175-.263,5.96,4.662,6.559,4.053-1.96-3.128-1.359-3.739-2.152-3.312-1.554-3.92-.511-1.704.09-2.314,5.467,4.178,6.066,3.569-.599-1.788,0-2.397,1.651.421,2.252-.19-1.874-3.044-1.274-3.654,4.763,3.482,5.364,2.871-4.589-5.718-3.988-6.329,6.188,4.884,6.789,4.273.015-1.189.617-1.801-4.48-5.613-3.876-6.227,4.754.761,4.427-.035c-.325-.791-2.273-4.261-3.128-4.261s-.855,3.719-1.709,3.719c-.854,0-.854,6.504-1.709,6.504s-.854.22-1.708.22-.854-6.586-1.708-6.586-.854-.558-1.708-.558-.854.735-1.708.735-.854-3.121-1.709-3.121-.855,9.123-1.709,9.123-.855-6.12-1.71-6.12-.855,3.344-1.711,3.344-.856-5.824-1.712-5.824-.856,1.206-1.712,1.206-.855-2.626-1.711-2.626-.855,4.25-1.71,4.25-.855,5.86-1.71,5.86-.855.319-1.709.319-.855-10.549-1.709-10.549-.855,5.885-1.71,5.885-.855-5.698-1.711-5.698-.856-.928-1.712-.928-.856,4.982-1.713,4.982-.856-3.419-1.712-3.419-.856,9.284-1.711,9.284-.855-.753-1.71-.753-.855-7.766-1.71-7.766-.855-2.249-1.711-2.249-.856,4.948-1.711,4.948-.856,6.052-1.713,6.052-.856-6.662-1.713-6.662-.856-2.662-1.712-2.662-.856,5.402-1.711,5.402-.856-2.096-1.711-2.096-.856-2.347-1.712-2.347-.857,2.056-1.713,2.056-.856,5.475-1.713,5.475c-.856,0-.856-3.753-1.712-3.753s-.856-5.458-1.712-5.458-.856,8.901-1.712,8.901-.857,1.136-1.714,1.136-.855-.112-1.711-.112-.854-3.941-1.709-3.941-.854-3.543-1.708-3.543-.854,4.064-1.708,4.064-.855-7.614-1.71-7.614-.856,4.031-1.712,4.031-.857.474-1.714.474-.856,2.883-1.711,2.883-.855,2.952-1.71,2.952-.856-7.947-1.711-7.947-.857,2.228-1.714,2.228-.857,1.534-1.714,1.534-.856-2.611-1.712-2.611-.857-3.109-1.713-3.109-.858,6.161-1.715,6.161c-.857,0-.857,1.332-1.713,1.332s-.858-.431-1.715-.431c-.857,0-.857-6.213-1.714-6.213-.858,0-.858-.687-1.716-.687s-.858,9.149-1.715,9.149c-.855,0-.855-8.075-1.711-8.075s-.858-1.827-1.716-1.827-.857,1.017-1.714,1.017-.858,10.277-1.716,10.277-.859-4.504-1.718-4.504c-.858,0-.858-3.713-1.715-3.713s-.86,3.394-1.719,3.394-.861.432-1.722.432-2.357-2.172-2.682-1.375c-.328.805,3.116-.5,3.724.122s-.026,1.24.581,1.862c.607.621,3.057-1.772,3.664-1.151s-.582,1.783.025,2.405-3.143,4.286-2.535,4.908c.607.622,4.15-2.839,4.757-2.217s1.309-.063,1.917.56c.605.62-4.821,5.92-4.215,6.54s.531.698,1.139,1.32c.607.621,1.757-.502,2.363.119s1.476-.229,2.083.393.683.55,1.292,1.174,3.395-2.101,4.003-1.479-.588,1.791.021,2.414,3.668-2.364,4.277-1.741-3.304,4.444-2.695,5.067c.609.624-1.496,2.681-.887,3.304s-.253,1.469.358,2.095,7.4-3.245,7.586-2.391c.183.84,1.232,3.37.933,4.177s-1.038.533-1.336,1.339c-.298.806-7.061-1.699-7.36-.893s1.105,1.325.807,2.131,3.108,2.067,2.81,2.872-1.497.361-1.795,1.166,1.736,1.558,1.438,2.363.628,1.148.33,1.953-4.167-.628-4.465.177-3.741-.47-4.039.335,4.94,2.745,4.641,3.551-6.553-1.511-6.852-.705,2.127,1.705,1.828,2.511-3.637-.43-3.936.377,9.554,4.456,9.255,5.262-8.927-2.389-9.225-1.583,2.519,1.849,2.22,2.655,3.738,2.3,3.44,3.106.657,1.159.359,1.965-4.248-.657-4.546.148c-.298.806,2.879,1.982,2.581,2.788s-8.174-2.111-8.473-1.305,5.238,2.857,4.939,3.664-3.547-.396-3.846.411,5.737,3.042,5.438,3.849-3.17-.257-3.468.549,2.986,2.022,2.687,2.828-7.787-1.967-8.085-1.161c-.299.806,2.253,1.751,1.955,2.557s-.536.718-.835,1.525,3.314,2.145,3.015,2.952-3.612-.42-3.911.387.32,1.036.022,1.842-2.09.143-2.388.949.283,1.022-.016,1.828-2.076.148-2.375.955,3.003,2.03,2.704,2.837.525,1.112.226,1.919.918,1.257.62,2.064,2.01,1.662,1.711,2.468c-.299.806-2.221.094-2.52.9s-6.877-1.629-7.176-.821c-.299.806,7.387,3.653,7.089,4.459s-8.824-2.353-9.123-1.547c-.298.805,5.834,3.076,5.536,3.881s3.242,2.116,2.944,2.921-9.015-2.423-9.313-1.617,7.961,3.866,7.662,4.673-6.935-1.65-7.235-.842,1.14,1.339.841,2.146-2.784-.114-3.082.692-2.315.06-2.614.866,7.113,3.553,6.814,4.36-3.765-.476-4.064.332,3.562,2.237,3.263,3.044-4.969-.922-5.268-.115,4.491,2.582,4.191,3.391,1.236,1.376.937,2.183-4.458-.732-4.757.077.396,1.065.096,1.873,2.214,1.74,1.915,2.548-2.425.019-2.724.825-4.78-.853-5.079-.047c-.3.809,5.942,3.121,5.643,3.93s-4.518-.755-4.818.053,2.048,1.678,1.749,2.487,1.34,1.417,1.04,2.227,1.188,1.36.889,2.168-5.516-1.121-5.816-.311-3.078-.217-3.379.595c-.301.812,2.896,1.996,2.595,2.807-.296.799,1.697,1.537,1.401,2.337s-6.736-1.586-7.032-.787,3.421,2.176,3.125,2.975,2.791,1.942,2.495,2.741c-.296.799-1.794.244-2.09,1.043s-1.411.386-1.707,1.186,4.607,2.615,4.311,3.415-.447.744-.744,1.544-6.389-1.456-6.686-.656-.642.673-.939,1.474-2.382.029-2.678.829,10.147,4.668,9.851,5.469-8.708-2.315-9.004-1.515,4.449,2.557,4.152,3.357-6.256-1.408-6.552-.608,2.987,2.015,2.69,2.815.964,1.267.668,2.066-4.254-.666-4.55.135-1.284.435-1.581,1.235,4.238,2.481,3.941,3.282,4.337,2.517,4.04,3.318-8.143-2.106-8.44-1.305,5.594,2.982,5.298,3.782-.975.549-1.271,1.349,2.981,2.014,2.684,2.814-9.595-2.643-9.892-1.843-1.202.466-1.499,1.267,3.094,2.057,2.798,2.858.693,1.167.396,1.968-4.299-.682-4.595.119c-.296.8,1.668,1.528,1.372,2.329s5.334,2.886,5.037,3.687-2.264.073-2.561.874.954,1.264.657,2.066-2.668-.078-2.965.723-.822.606-1.118,1.407-4.466-.744-4.762.056,8.026,3.884,7.729,4.686-8.439-2.215-8.735-1.415,5.834,3.07,5.538,3.869-.827.602-1.123,1.401-1.082.508-1.378,1.307,2.392,1.795,2.096,2.595-7.734-1.953-8.03-1.152,5.04,2.778,4.743,3.58-1.747.263-2.044,1.064-2.39.025-2.687.825,3.275,2.123,2.979,2.924-5.284-1.045-5.581-.243,5.904,3.098,5.607,3.9c-.297.801-7.492-1.864-7.789-1.063s5.45,2.93,5.154,3.732c-.297.802,1.206,1.359.909,2.162-.297.802-4.704-.831-5.001-.029s2.671,1.902,2.373,2.704-1.329.42-1.626,1.222-1.44.379-1.738,1.182,4.108,2.432,3.811,3.232-3.33-.323-3.626.478-5.771-1.224-6.069-.421,7.322,3.623,7.025,4.425-4.752-.847-5.049-.044,4.808,2.695,4.51,3.499-1.152.486-1.449,1.289-1.967.186-2.265.991-1.271.446-1.57,1.251-.809,1.579-.322,2.287c.484.703,1.395,2.578,2.248,2.578s.855-8.6,1.709-8.6.856,1.298,1.711,1.298.854.938,1.709.938.854,4.073,1.708,4.073.854,4.348,1.709,4.348.856-8.052,1.711-8.052.855-1.134,1.711-1.134.855,9.659,1.709,9.659.855-10.697,1.711-10.697.856,3.818,1.713,3.818.855,2.684,1.711,2.684.856,2.704,1.713,2.704.856-.71,1.712-.71.857,1.736,1.713,1.736.856-7.735,1.712-7.735.854-2.761,1.708-2.761.857,1.784,1.714,1.784.855,4.095,1.711,4.095.857-.652,1.713-.652.858-5.466,1.715-5.466.856,9.182,1.713,9.182.858-4.122,1.717-4.122.86-3.278,1.72-3.278-.814-1.316.007-1.571.906,2.816,1.615,2.329,2.217,1.704,2.926,1.217,3.554,3.649,4.264,3.161.049-1.449.759-1.937,1.842,1.157,2.552.668-.949-2.902-.238-3.391-.082-1.641.628-2.13-1.363-3.503-.653-3.991-.581-2.365.129-2.853,3.675,3.824,4.385,3.336-1.547-3.77-.837-4.259,4.314,4.752,5.024,4.263,2.009,1.399,2.72.911-5.712-9.828-5.001-10.317,1.044-.004,1.754-.492.346-1.017,1.056-1.506,2.178,1.646,2.888,1.158,1.365.464,2.075-.025-1.239-3.318-.532-3.804,4.836,5.516,5.543,5.03-3.601-6.754-2.893-7.241,3.034,2.893,3.743,2.405,2.056,1.469,2.766.98-.732-2.589-.021-3.078.275-1.122.985-1.61,5.145,5.963,5.855,5.475-4.68-8.325-3.971-8.813,1.357.454,2.066-.034.479-.823,1.189-1.311,4.311,4.747,5.022,4.258.341-1.029,1.052-1.518.958-.128,1.669-.617.701-.502,1.411-.99,1.363.46,2.073-.029-2.176-4.688-1.464-5.178,1.142.137,1.854-.352-.807-2.696-.096-3.185,1.48.629,2.191.139.296-1.095,1.008-1.584,5.607,6.63,6.318,6.141.811-.346,1.523-.836c.712-.489-1.578-3.819-.866-4.308s-1.61-3.868-.898-4.358,4.221,4.616,4.931,4.128-3.626-6.795-2.916-7.284,1.537.708,2.249.218-1.006-2.988-.295-3.477c.713-.49,1.753,1.023,2.466.533.713-.491,5.42,6.354,6.133,5.863s.974-.109,1.687-.599-.29-1.952.424-2.443-1.166-3.228-.451-3.72.327-2.941,1.195-2.97c.849-.028-1.887,6.519-1.163,6.963s5.408-7.19,6.132-6.746-2.515,5.723-1.791,6.167c.724.444,1.638-1.046,2.362-.601s.369,1.023,1.094,1.467,2.301-2.125,3.026-1.68.438.913,1.164,1.358.122,1.428.847,1.872-1.862,4.66-1.138,5.105,3.588-4.223,4.312-3.779,1.142-.236,1.866.208,1.02-.038,1.744.407,1.313-.515,2.038-.07-1.007,3.268-.282,3.713-.94,3.159-.215,3.604,2.907-3.111,3.631-2.667c.725.445.733.431,1.457.876s-1.144,3.49-.42,3.935.401.972,1.126,1.417.19,1.309.912,1.752,1.766-1.259,2.488-.816,4.87-6.316,5.593-5.873c.723.444-1.866,4.664-1.143,5.108s1.791-1.293,2.515-.849.58.683,1.306,1.128c.725.445-3.55,7.412-2.825,7.856s6.267-8.589,6.991-8.145-2.46,5.633-1.737,6.077-1.442,3.974-.719,4.418c.724.444.969.045,1.693.489s6.408-8.817,7.134-8.372-2.832,6.244-2.106,6.689.853.236,1.578.68,2.391-2.271,3.115-1.827-2.75,6.109-2.025,6.553,2.893-3.086,3.619-2.64,1.289-.473,2.015-.027c.725.445,1.211-.347,1.936.098.726.445-1.3,3.746-.574,4.192s2.787-2.912,3.513-2.466.01,1.612.736,2.057-.934,3.152-.207,3.597.454.889,1.18,1.335c.727.446,2.907-3.107,3.634-2.661s-.313,2.136.412,2.58,1.326-.535,2.051-.09,1.718-1.169,2.446-.723-2.983,6.491-2.257,6.936c.727.446,1.489-.796,2.216-.35s5.53-7.38,6.258-6.934.092,1.481.818,1.927-1.369,3.866-.64,4.313,3.139-3.479,3.869-3.031-1.065,1.549-.24,1.779c.838.235-.1-.635.77-.635s.869,8.087,1.738,8.087.869-1.397,1.737-1.397.869-4.126,1.738-4.126.87,1.863,1.741,1.863.87-2.928,1.74-2.928.869-1.907,1.739-1.907.87,5.831,1.74,5.831.871-1.606,1.742-1.606.87-.746,1.74-.746.871,4.22,1.742,4.22.871-.27,1.741-.27.871,1.492,1.743,1.492.871-9.443,1.742-9.443.869,2.339,1.738,2.339.872,2.476,1.743,2.476.87,5.736,1.74,5.736.871-7.985,1.743-7.985.872.838,1.745.838.871-.285,1.742-.285.873,5.953,1.746,5.953.875-2.938,1.749-2.938,2.242.326,2.75-.386c.498-.699-.504-1.817-.805-2.621s-3.095.246-3.397-.557,5.49-2.98,5.188-3.783-2.059-.143-2.361-.947,1.374-1.433,1.072-2.236-1.369-.402-1.671-1.205,1.964-1.654,1.662-2.457-8.114,2.133-8.416,1.33,5.957-3.155,5.655-3.957-5.723,1.235-6.025.432.793-1.214.492-2.017c-.302-.803,4.748-2.7,4.447-3.503s-4.762.874-5.064.071,2.067-1.693,1.765-2.495-4.144.641-4.446-.162-.562-.705-.864-1.508-.32-.796-.622-1.599-2.45.004-2.751-.799,4.506-2.61,4.204-3.413.693-1.177.391-1.981-6.543,1.542-6.845.738c-.302-.803.558-1.127.256-1.93s5.657-3.042,5.356-3.845-5.728,1.237-6.03.434,1.972-1.657,1.671-2.459-3.803.514-4.104-.288,9.262-4.395,8.96-5.197-7.727,1.989-8.028,1.188,7.248-3.638,6.947-4.439-11.014,3.225-11.315,2.424.179-.981-.122-1.782,2.008-1.668,1.707-2.469.859-1.237.558-2.037c-.301-.801,6.173-3.233,5.872-4.034s-6.211,1.42-6.512.62-4.687.847-4.987.047,6.051-3.188,5.75-3.989,1.092-1.324.791-2.125,2.513-1.858,2.212-2.659-2.346-.033-2.647-.834-8.171,2.156-8.472,1.354.589-1.136.288-1.938,4.53-2.618,4.229-3.42.744-1.195.442-1.998-5.052.982-5.353.179-1.977-.174-2.279-.977,5.965-3.159,5.663-3.963-2.241-.076-2.543-.88,1.884-1.625,1.582-2.429-7.963,2.076-8.265,1.272,6.974-3.537,6.672-4.34,2.156-1.726,1.854-2.529-3.421.37-3.722-.433-1.605-.312-1.907-1.114-3.302.326-3.604-.476c-.301-.802.909-1.257.608-2.059s6.87-3.497,6.569-4.299-3.049.231-3.35-.571c-.301-.802.973-1.281.671-2.083s-4.727.861-5.029.059,4.977-2.786,4.676-3.588c-.302-.803.532-1.116.23-1.919s-6.789,1.635-7.091.832,1.238-1.382.936-2.186.447-1.085.144-1.889-5.64,1.201-5.942.397,6.874-3.501,6.572-4.305-5.724,1.234-6.026.43,1.192-1.365.89-2.168.197-.991-.104-1.794,1.598-1.517,1.296-2.32c-.302-.803-3.667.462-3.969-.341s1.297-1.404.996-2.206,2.599-1.893,2.298-2.696,1.112-1.334.81-2.137-2.423-.006-2.725-.809-3.003.211-3.305-.592,2.705-1.934,2.402-2.738-1.138-.491-1.441-1.295c-.302-.805.744-1.198.441-2.002s-1.469-.366-1.771-1.17-6.883,1.669-7.185.865,3.431-2.206,3.129-3.01,4.141-2.473,3.839-3.276-5.659,1.21-5.961.406,6.945-3.527,6.643-4.331.497-1.104.195-1.908-2.28-.061-2.582-.866-7.414,1.867-7.716,1.062.889-1.252.587-2.057,1.243-1.385.941-2.189,1.727-1.567,1.425-2.371-4.648.829-4.95.025,6.262-3.271,5.96-4.075c-.302-.804-1.125-.495-1.428-1.299s-2.345-.037-2.647-.842-3.193.281-3.495-.524,4.529-2.62,4.227-3.425-8.074,2.116-8.376,1.312,5.681-3.053,5.379-3.857-4.502.774-4.804-.031,6.183-3.242,5.881-4.048-2.875.162-3.177-.643,1.053-1.314.751-2.119-.293-.808-.595-1.613,2.995-2.043,2.693-2.847-2.956.192-3.259-.614,2.236-1.758,1.934-2.562-6.416,1.494-6.718.691,2.83-1.979,2.528-2.782-7.54,1.917-7.841,1.114.811-1.222.509-2.025.248-1.012-.055-1.816,8.043-3.942,7.74-4.747-7.692,1.972-7.994,1.168-1.458-.369-1.761-1.173,7.376-3.69,7.074-4.494.639-1.16.337-1.965-1.187-.473-1.49-1.279,1.347-1.425,1.045-2.229c-.303-.805-7.43,1.873-7.733,1.068s-2.64.072-2.943-.734.431-1.081.129-1.886-.332-.795-.635-1.601,4.977-2.79,4.674-3.596,2.021-1.68,1.717-2.486-3.53.409-3.832-.396-1.577-.325-1.879-1.13c-.303-.807,1.272-1.399.969-2.206s-3.112.25-3.415-.556-1.371-.405-1.674-1.212c-.303-.808,2.464-1.848,2.16-2.655s-.928-.572-1.231-1.378,2.605-1.902,2.302-2.71-3.375,2.24-2.539,2.02c2.61-.685,4.376-2.205,4.552-3.052Z" style="fill: none; stroke: #000; stroke-linecap: round; stroke-linejoin: round; stroke-width: 40px;"/>
  </g>
  <g>
    <path d="M365.095,370.649c0-.855-2.993-.855-2.993-1.711s-2.367-.856-2.367-1.711,8.938-.856,8.938-1.711c0-.856-2.336-.856-2.336-1.712s-.534-.857-.534-1.713-2.763-.857-2.763-1.714,5.003-.857,5.003-1.714,1.753-.856,1.753-1.713-4.995-.856-4.995-1.712-4.531-.856-4.531-1.712.506-.856.506-1.712c0-.856,10.407-.856,10.407-1.713s-8.013-.857-8.013-1.714-1.548-.857-1.548-1.714,9.529-.857,9.529-1.713-8.645-.856-8.645-1.713,2.296-.856,2.296-1.713c0-.857-.912-.857-.912-1.713s3.479-.857,3.479-1.715-1.352-.857-1.352-1.714.443-.857.443-1.713c0-.857,4.777-.857,4.777-1.713s.375-.857.375-1.714-10.915-.858-10.915-1.715c0-.856.894-.856.894-1.712s2.965-.855,2.965-1.71,3.086-.855,3.086-1.71.268-.855.268-1.71-2.887-.856-2.887-1.711-1.961-.857-1.961-1.714-1.943-.858-1.943-1.716,7.721-.856,7.721-1.713-2.171-.856-2.171-1.712,1.07-.856,1.07-1.713-2.011-.858-2.011-1.716,2.621-.858,2.621-1.715.011-.857.011-1.714-2.105-.857-2.105-1.715,3.996-.858,3.996-1.717-8.387-.857-8.387-1.715,2.08-.858,2.08-1.717,5.048-.858,5.048-1.716,2.726-.859,2.726-1.718-7.777-.858-7.777-1.717,4.819-.856,4.819-1.712-.974-.859-.974-1.718-6.046-.858-6.046-1.715,1.366-.859,1.366-1.718c0-.86,7.518-.86,7.518-1.719s-3.591-.859-3.591-1.717-3.857-.861-3.857-1.721-1.559-.862-1.559-1.724,6.827-.862,6.827-1.724" style="fill: #fff;"/>
    <path d="M365.095,370.649c0-.855-2.993-.855-2.993-1.711s-2.367-.856-2.367-1.711,8.938-.856,8.938-1.711c0-.856-2.336-.856-2.336-1.712s-.534-.857-.534-1.713-2.763-.857-2.763-1.714,5.003-.857,5.003-1.714,1.753-.856,1.753-1.713-4.995-.856-4.995-1.712-4.531-.856-4.531-1.712.506-.856.506-1.712c0-.856,10.407-.856,10.407-1.713s-8.013-.857-8.013-1.714-1.548-.857-1.548-1.714,9.529-.857,9.529-1.713-8.645-.856-8.645-1.713,2.296-.856,2.296-1.713c0-.857-.912-.857-.912-1.713s3.479-.857,3.479-1.715-1.352-.857-1.352-1.714.443-.857.443-1.713c0-.857,4.777-.857,4.777-1.713s.375-.857.375-1.714-10.915-.858-10.915-1.715c0-.856.894-.856.894-1.712s2.965-.855,2.965-1.71,3.086-.855,3.086-1.71.268-.855.268-1.71-2.887-.856-2.887-1.711-1.961-.857-1.961-1.714-1.943-.858-1.943-1.716,7.721-.856,7.721-1.713-2.171-.856-2.171-1.712,1.07-.856,1.07-1.713-2.011-.858-2.011-1.716,2.621-.858,2.621-1.715.011-.857.011-1.714-2.105-.857-2.105-1.715,3.996-.858,3.996-1.717-8.387-.857-8.387-1.715,2.08-.858,2.08-1.717,5.048-.858,5.048-1.716,2.726-.859,2.726-1.718-7.777-.858-7.777-1.717,4.819-.856,4.819-1.712-.974-.859-.974-1.718-6.046-.858-6.046-1.715,1.366-.859,1.366-1.718c0-.86,7.518-.86,7.518-1.719s-3.591-.859-3.591-1.717-3.857-.861-3.857-1.721-1.559-.862-1.559-1.724,6.827-.862,6.827-1.724" style="fill: none; stroke: #000; stroke-linecap: round; stroke-linejoin: round; stroke-width: 40px;"/>
  </g>
  <g>
    <path d="M409.027,279.787c0,.578,10.143,1.338,10.118,1.91-.025.577-1.001,1.256-1.05,1.828-.05.575-7.971.273-8.045.842-.074.572,4.139,1.691,4.041,2.256-.099.568-4.491.185-4.614.746s1.53,1.391,1.383,1.946.917,1.366.746,1.914.551,1.35.357,1.891,3.787,2.759,3.57,3.291-7.266-1.879-7.505-1.356,2.991,2.648,2.73,3.161-2.415-.023-2.696.479,1.926,2.451,1.624,2.941.149,1.537-.173,2.015-3.659-1.157-3.999-.693.625,1.881.266,2.332-1.156.52-1.531.956-.822.773-1.214,1.195,1.681,3.271,1.274,3.678-5.385-3.97-5.808-3.579,1.011,2.718.574,3.094.986,3.007.535,3.366c-.449.358-5.511-5.398-5.974-5.055s-.617.759-1.092,1.086,4.683,9.128,4.197,9.437-6.442-8.374-6.939-8.081.871,3.582.364,3.856.45,3.291-.066,3.549c-.514.256-2.005-1.571-2.53-1.332-.522.238.847,4.89.314,5.112-.53.22-1.256.231-1.796.434-.537.202-3.899-7.632-4.445-7.448-.543.184,1.805,9.328,1.253,9.495-.549.165-.922,1.507-1.48,1.655-.554.147-1.162.818-1.725.947-.559.129-2.152-4.06-2.718-3.949-.563.11-2.238-6.405-2.808-6.312-.566.092-.104,6.764-.677,6.838-.569.073-.85,3.537-1.425,3.592-.571.055-1.394-1.544-1.97-1.508-.572.036-1.295-1.723-1.873-1.705-.573.018-1.182-3.927-1.76-3.927s-1.326,8.338-1.899,8.32c-.578-.018-.692-10.021-1.264-10.058-.577-.037-1.529,5.39-2.1,5.335-.575-.055-1.49,2.304-2.059,2.231-.573-.074-.179-6.794-.745-6.885-.57-.092-2.453,7.097-3.016,6.987-.567-.111-1.055-1.155-1.614-1.284-.563-.129-1.249-.195-1.804-.342-.558-.148-1.826,1.687-2.375,1.521-.553-.166,2.338-11.073,1.795-11.257-.547-.185-1.996,2.597-2.533,2.395-.54-.203-1.276.314-1.806.094-.533-.221-1.379.414-1.901.176-.525-.239-3.792,5.113-4.305,4.857-.516-.257,1.13-4.875.626-5.148s-2.145,1.356-2.64,1.065-.771-1.098-1.256-1.406-.654-1.204-1.128-1.529-.864-.847-1.325-1.189-3.241,2.148-3.69,1.789.287-2.366-.148-2.741-2.718,1.089-3.139.698,2.479-4.394,2.072-4.8-2.23.475-2.621.054,5.048-5.978,4.674-6.414-3.067,1.231-3.424.781-7.196,3.952-7.535,3.488,6.183-5.831,5.862-6.308-4.747,1.694-5.049,1.204-2.277-.151-2.558-.652,2.622-2.82,2.362-3.332-3.384.257-3.623-.266,6.813-4.187,6.596-4.72-1.621-.451-1.815-.992.123-1.114-.049-1.664,1.688-1.487,1.541-2.044-1.549-.598-1.672-1.161-2.403-.57-2.502-1.138-2.144-.801-2.218-1.373c-.074-.568-2.237-.967-2.287-1.542-.049-.571,2.034-1.335,2.009-1.913-.025-.573,4.495-1.155,4.495-1.733s-2.532-1.076-2.507-1.648c.025-.577,1.854-.919,1.903-1.49.05-.575,1.193-.849,1.267-1.418.074-.572-7.838-2.327-7.74-2.893.099-.568,4.196-.408,4.319-.968s-4.669-2.397-4.522-2.952,6.621.659,6.792.111,2.563-.204,2.757-.745-2.237-1.946-2.019-2.479,3.662.492,3.901-.031.87-.599,1.131-1.111-.732-1.453-.45-1.955-6.335-5.039-6.033-5.529,7.107,3.233,7.428,2.755,1.346-.228,1.686-.693-7.895-7.478-7.536-7.929,6.211,3.543,6.587,3.106,1.949.321,2.341-.102-4.939-6.402-4.531-6.809,7.323,5.949,7.746,5.557-2.449-4.349-2.012-4.725,3.701,2.776,4.151,2.416-4.484-7.722-4.021-8.065,6.034,6.46,6.509,6.133-1.849-4.772-1.363-5.082.042-2.253.539-2.545-.312-3.187.195-3.461,3.501,4.014,4.017,3.757c.514-.256-.287-3.436.238-3.675.522-.238.339-2.503.872-2.725.53-.22,3.106,4.434,3.646,4.231.537-.202,2.176,2.792,2.723,2.607.543-.184-.188-4.279.364-4.445.549-.165,2.601,5.157,3.159,5.009.554-.147-1.002-8.827-.439-8.957.559-.129,2.007,3.517,2.573,3.406.563-.11,1.659,2.95,2.229,2.858.566-.092,1.441,2.873,2.013,2.8.569-.073-.151-11.654.424-11.709.571-.055,1.803,7.279,2.379,7.242.572-.036.944-4.935,1.522-4.953.573-.018,1.255,9.197,1.833,9.197s1.184-6.834,1.757-6.815c.578.018.902,4.468,1.474,4.505.577.037,1.942-9.335,2.513-9.28.575.055,1.044,2.43,1.613,2.504.573.074.791,3.073,1.357,3.164.57.092,1.321-.625,1.884-.515.567.111,1.444-.905,2.003-.777.563.129-.019,4.92.535,5.068.558.148,3.202-6.869,3.751-6.704.553.166-1.875,9.708-1.332,9.892.547.185,4.544-9.228,5.081-9.026.54.203-2.89,10.473-2.36,10.693.533.221,4.645-7.822,5.168-7.584.525.239,1.865-.852,2.379-.596.516.257.441,2.008.946,2.282s-3.34,8.226-2.845,8.517,5.622-7.004,6.106-6.696-3.247,7.012-2.774,7.337,2.228-1.286,2.689-.944,5.231-4.774,5.68-4.416-6.029,9.091-5.594,9.465c.437.376,7.34-6.504,7.761-6.113s-5.061,6.938-4.654,7.344-.27,1.619.121,2.04,7.983-5.609,8.358-5.174-2.906,3.997-2.548,4.446-.614,1.858-.275,2.322-.09,1.352.231,1.829.996.602,1.298,1.092,1.762.22,2.043.721-2.261,2.396-2,2.908,4.869-1.15,5.108-.627,3.519-.158,3.736.375-7.216,3.994-7.022,4.535,1.519.546,1.69,1.096,6.29-.606,6.438-.049-8.381,3.159-8.257,3.722,2.169.543,2.268,1.111,6.794.12,6.869.692c.074.568-2.801,1.529-2.752,2.103.049.571,2.718,1.04,2.743,1.617.025.573-8.617,1.267-8.617,1.845Z" style="fill: #fff;"/>
    <path d="M409.027,279.787c0,.578,10.143,1.338,10.118,1.91-.025.577-1.001,1.256-1.05,1.828-.05.575-7.971.273-8.045.842-.074.572,4.139,1.691,4.041,2.256-.099.568-4.491.185-4.614.746s1.53,1.391,1.383,1.946.917,1.366.746,1.914.551,1.35.357,1.891,3.787,2.759,3.57,3.291-7.266-1.879-7.505-1.356,2.991,2.648,2.73,3.161-2.415-.023-2.696.479,1.926,2.451,1.624,2.941.149,1.537-.173,2.015-3.659-1.157-3.999-.693.625,1.881.266,2.332-1.156.52-1.531.956-.822.773-1.214,1.195,1.681,3.271,1.274,3.678-5.385-3.97-5.808-3.579,1.011,2.718.574,3.094.986,3.007.535,3.366c-.449.358-5.511-5.398-5.974-5.055s-.617.759-1.092,1.086,4.683,9.128,4.197,9.437-6.442-8.374-6.939-8.081.871,3.582.364,3.856.45,3.291-.066,3.549c-.514.256-2.005-1.571-2.53-1.332-.522.238.847,4.89.314,5.112-.53.22-1.256.231-1.796.434-.537.202-3.899-7.632-4.445-7.448-.543.184,1.805,9.328,1.253,9.495-.549.165-.922,1.507-1.48,1.655-.554.147-1.162.818-1.725.947-.559.129-2.152-4.06-2.718-3.949-.563.11-2.238-6.405-2.808-6.312-.566.092-.104,6.764-.677,6.838-.569.073-.85,3.537-1.425,3.592-.571.055-1.394-1.544-1.97-1.508-.572.036-1.295-1.723-1.873-1.705-.573.018-1.182-3.927-1.76-3.927s-1.326,8.338-1.899,8.32c-.578-.018-.692-10.021-1.264-10.058-.577-.037-1.529,5.39-2.1,5.335-.575-.055-1.49,2.304-2.059,2.231-.573-.074-.179-6.794-.745-6.885-.57-.092-2.453,7.097-3.016,6.987-.567-.111-1.055-1.155-1.614-1.284-.563-.129-1.249-.195-1.804-.342-.558-.148-1.826,1.687-2.375,1.521-.553-.166,2.338-11.073,1.795-11.257-.547-.185-1.996,2.597-2.533,2.395-.54-.203-1.276.314-1.806.094-.533-.221-1.379.414-1.901.176-.525-.239-3.792,5.113-4.305,4.857-.516-.257,1.13-4.875.626-5.148s-2.145,1.356-2.64,1.065-.771-1.098-1.256-1.406-.654-1.204-1.128-1.529-.864-.847-1.325-1.189-3.241,2.148-3.69,1.789.287-2.366-.148-2.741-2.718,1.089-3.139.698,2.479-4.394,2.072-4.8-2.23.475-2.621.054,5.048-5.978,4.674-6.414-3.067,1.231-3.424.781-7.196,3.952-7.535,3.488,6.183-5.831,5.862-6.308-4.747,1.694-5.049,1.204-2.277-.151-2.558-.652,2.622-2.82,2.362-3.332-3.384.257-3.623-.266,6.813-4.187,6.596-4.72-1.621-.451-1.815-.992.123-1.114-.049-1.664,1.688-1.487,1.541-2.044-1.549-.598-1.672-1.161-2.403-.57-2.502-1.138-2.144-.801-2.218-1.373c-.074-.568-2.237-.967-2.287-1.542-.049-.571,2.034-1.335,2.009-1.913-.025-.573,4.495-1.155,4.495-1.733s-2.532-1.076-2.507-1.648c.025-.577,1.854-.919,1.903-1.49.05-.575,1.193-.849,1.267-1.418.074-.572-7.838-2.327-7.74-2.893.099-.568,4.196-.408,4.319-.968s-4.669-2.397-4.522-2.952,6.621.659,6.792.111,2.563-.204,2.757-.745-2.237-1.946-2.019-2.479,3.662.492,3.901-.031.87-.599,1.131-1.111-.732-1.453-.45-1.955-6.335-5.039-6.033-5.529,7.107,3.233,7.428,2.755,1.346-.228,1.686-.693-7.895-7.478-7.536-7.929,6.211,3.543,6.587,3.106,1.949.321,2.341-.102-4.939-6.402-4.531-6.809,7.323,5.949,7.746,5.557-2.449-4.349-2.012-4.725,3.701,2.776,4.151,2.416-4.484-7.722-4.021-8.065,6.034,6.46,6.509,6.133-1.849-4.772-1.363-5.082.042-2.253.539-2.545-.312-3.187.195-3.461,3.501,4.014,4.017,3.757c.514-.256-.287-3.436.238-3.675.522-.238.339-2.503.872-2.725.53-.22,3.106,4.434,3.646,4.231.537-.202,2.176,2.792,2.723,2.607.543-.184-.188-4.279.364-4.445.549-.165,2.601,5.157,3.159,5.009.554-.147-1.002-8.827-.439-8.957.559-.129,2.007,3.517,2.573,3.406.563-.11,1.659,2.95,2.229,2.858.566-.092,1.441,2.873,2.013,2.8.569-.073-.151-11.654.424-11.709.571-.055,1.803,7.279,2.379,7.242.572-.036.944-4.935,1.522-4.953.573-.018,1.255,9.197,1.833,9.197s1.184-6.834,1.757-6.815c.578.018.902,4.468,1.474,4.505.577.037,1.942-9.335,2.513-9.28.575.055,1.044,2.43,1.613,2.504.573.074.791,3.073,1.357,3.164.57.092,1.321-.625,1.884-.515.567.111,1.444-.905,2.003-.777.563.129-.019,4.92.535,5.068.558.148,3.202-6.869,3.751-6.704.553.166-1.875,9.708-1.332,9.892.547.185,4.544-9.228,5.081-9.026.54.203-2.89,10.473-2.36,10.693.533.221,4.645-7.822,5.168-7.584.525.239,1.865-.852,2.379-.596.516.257.441,2.008.946,2.282s-3.34,8.226-2.845,8.517,5.622-7.004,6.106-6.696-3.247,7.012-2.774,7.337,2.228-1.286,2.689-.944,5.231-4.774,5.68-4.416-6.029,9.091-5.594,9.465c.437.376,7.34-6.504,7.761-6.113s-5.061,6.938-4.654,7.344-.27,1.619.121,2.04,7.983-5.609,8.358-5.174-2.906,3.997-2.548,4.446-.614,1.858-.275,2.322-.09,1.352.231,1.829.996.602,1.298,1.092,1.762.22,2.043.721-2.261,2.396-2,2.908,4.869-1.15,5.108-.627,3.519-.158,3.736.375-7.216,3.994-7.022,4.535,1.519.546,1.69,1.096,6.29-.606,6.438-.049-8.381,3.159-8.257,3.722,2.169.543,2.268,1.111,6.794.12,6.869.692c.074.568-2.801,1.529-2.752,2.103.049.571,2.718,1.04,2.743,1.617.025.573-8.617,1.267-8.617,1.845Z" style="fill: none; stroke: #000; stroke-linecap: round; stroke-linejoin: round; stroke-width: 40px;"/>
  </g>
  <g>
    <path d="M376.403,567.778c.716-.475,1.043.018,1.759-.457.716-.475,1.035.005,1.75-.47s-2.043-4.629-1.328-5.104,1.355.489,2.07.014,2.882,2.788,3.597,2.314-2.153-4.794-1.437-5.269,5.993,7.479,6.706,7.006-1.116-3.227-.403-3.7c.713-.474-2.11-4.725-1.397-5.199s5.113,6.15,5.827,5.676-1.762-4.205-1.047-4.68,1.816,1.181,2.533.705-2.281-4.987-1.566-5.462-.717-2.63-.003-3.104,1.928,1.354,2.642.88c.714-.474,5.604,6.89,6.318,6.415s-2.671-5.573-1.956-6.047c.716-.475,1.8,1.158,2.516.682.716-.476-1.834-4.317-1.118-4.793s4.256,4.857,4.972,4.382,2.02,1.49,2.735,1.015c.715-.475-5.509-9.847-4.793-10.322s4.732,5.571,5.448,5.095-3.313-6.544-2.597-7.02,4.483,5.197,5.198,4.722.562-.707,1.278-1.183-.118-1.733.599-2.209,1.461.646,2.177.17,2.379,2.027,3.096,1.551.077-1.439.794-1.915-3.428-6.718-2.71-7.194,1.047.025,1.762-.45.815-.325,1.53-.8,6.08,7.598,6.798,7.122-.884-2.886-.168-3.362c.717-.476,2.292,1.894,3.009,1.418s-2.747-5.695-2.028-6.172,3.42,3.594,4.138,3.118-.89-2.901-.172-3.378,1.511.713,2.231.235-.575-2.428.145-2.906" style="fill: #fff;"/>
    <path d="M376.403,567.778c.716-.475,1.043.018,1.759-.457.716-.475,1.035.005,1.75-.47s-2.043-4.629-1.328-5.104,1.355.489,2.07.014,2.882,2.788,3.597,2.314-2.153-4.794-1.437-5.269,5.993,7.479,6.706,7.006-1.116-3.227-.403-3.7c.713-.474-2.11-4.725-1.397-5.199s5.113,6.15,5.827,5.676-1.762-4.205-1.047-4.68,1.816,1.181,2.533.705-2.281-4.987-1.566-5.462-.717-2.63-.003-3.104,1.928,1.354,2.642.88c.714-.474,5.604,6.89,6.318,6.415s-2.671-5.573-1.956-6.047c.716-.475,1.8,1.158,2.516.682.716-.476-1.834-4.317-1.118-4.793s4.256,4.857,4.972,4.382,2.02,1.49,2.735,1.015c.715-.475-5.509-9.847-4.793-10.322s4.732,5.571,5.448,5.095-3.313-6.544-2.597-7.02,4.483,5.197,5.198,4.722.562-.707,1.278-1.183-.118-1.733.599-2.209,1.461.646,2.177.17,2.379,2.027,3.096,1.551.077-1.439.794-1.915-3.428-6.718-2.71-7.194,1.047.025,1.762-.45.815-.325,1.53-.8,6.08,7.598,6.798,7.122-.884-2.886-.168-3.362c.717-.476,2.292,1.894,3.009,1.418s-2.747-5.695-2.028-6.172,3.42,3.594,4.138,3.118-.89-2.901-.172-3.378,1.511.713,2.231.235-.575-2.428.145-2.906" style="fill: none; stroke: #000; stroke-linecap: round; stroke-linejoin: round; stroke-width: 40px;"/>
  </g>
  <g>
    <path d="M366.465,567.861c-.689-.512-7.036,8.03-7.725,7.518s-.285-1.055-.974-1.567-.594-.639-1.283-1.15,1.36-3.269.672-3.78-3.096,2.729-3.785,2.217,4.377-7.33,3.688-7.842c-.689-.512-4.255,4.286-4.944,3.774s-1.955,1.191-2.644.679.889-2.636.2-3.147,2.329-4.574,1.641-5.086-4.743,4.949-5.43,4.439,2.058-4.204,1.371-4.714-1.683.831-2.37.321c-.687-.51-2.406,1.804-3.093,1.294s3.54-6.2,2.853-6.71.72-2.406.032-2.917-6.005,6.643-6.694,6.131,1.305-3.199.615-3.712,1.728-3.765,1.039-4.277-2.934,2.51-3.622,1.999-3.027,2.636-3.715,2.125,4.291-7.212,3.603-7.723-5.665,6.186-6.354,5.674-.712-.483-1.401-.995,1.072-2.884.381-3.397-3.848,3.738-4.537,3.226c-.689-.512,2.36-4.616,1.671-5.127s-1.813,1-2.502.488.637-2.3-.053-2.813-3.882,3.783-4.572,3.27,6.14-9.704,5.451-10.217-2.108,1.395-2.798.882c-.691-.513-4.203,4.213-4.894,3.7s3.373-5.981,2.683-6.494-.147-1.246-.838-1.759-6.574,7.405-7.264,6.891-1.082.013-1.773-.5c-.689-.512,3.832-6.597,3.142-7.109s-2.448,1.855-3.137,1.343-3.83,3.71-4.522,3.196,3.754-6.494,3.063-7.007-1.565.662-2.256.148,2.327-4.578,1.635-5.092-6.361,7.117-7.052,6.604c-.693-.515.502-2.123-.19-2.638s3.774-6.529,3.08-7.045-6.76,7.648-7.454,7.133" style="fill: #fff;"/>
    <path d="M366.465,567.861c-.689-.512-7.036,8.03-7.725,7.518s-.285-1.055-.974-1.567-.594-.639-1.283-1.15,1.36-3.269.672-3.78-3.096,2.729-3.785,2.217,4.377-7.33,3.688-7.842c-.689-.512-4.255,4.286-4.944,3.774s-1.955,1.191-2.644.679.889-2.636.2-3.147,2.329-4.574,1.641-5.086-4.743,4.949-5.43,4.439,2.058-4.204,1.371-4.714-1.683.831-2.37.321c-.687-.51-2.406,1.804-3.093,1.294s3.54-6.2,2.853-6.71.72-2.406.032-2.917-6.005,6.643-6.694,6.131,1.305-3.199.615-3.712,1.728-3.765,1.039-4.277-2.934,2.51-3.622,1.999-3.027,2.636-3.715,2.125,4.291-7.212,3.603-7.723-5.665,6.186-6.354,5.674-.712-.483-1.401-.995,1.072-2.884.381-3.397-3.848,3.738-4.537,3.226c-.689-.512,2.36-4.616,1.671-5.127s-1.813,1-2.502.488.637-2.3-.053-2.813-3.882,3.783-4.572,3.27,6.14-9.704,5.451-10.217-2.108,1.395-2.798.882c-.691-.513-4.203,4.213-4.894,3.7s3.373-5.981,2.683-6.494-.147-1.246-.838-1.759-6.574,7.405-7.264,6.891-1.082.013-1.773-.5c-.689-.512,3.832-6.597,3.142-7.109s-2.448,1.855-3.137,1.343-3.83,3.71-4.522,3.196,3.754-6.494,3.063-7.007-1.565.662-2.256.148,2.327-4.578,1.635-5.092-6.361,7.117-7.052,6.604c-.693-.515.502-2.123-.19-2.638s3.774-6.529,3.08-7.045-6.76,7.648-7.454,7.133" style="fill: none; stroke: #000; stroke-linecap: round; stroke-linejoin: round; stroke-width: 40px;"/>
  </g>
  <g>
    <path d="M322.648,466.342c.857,0,.857-1.667,1.715-1.667s.858-3.374,1.716-3.374.858,11.185,1.717,11.185.859-4.126,1.718-4.126.859-6.786,1.717-6.786.858,3.205,1.716,3.205.858,7.893,1.716,7.893.858-3.664,1.715-3.664.858,2.022,1.716,2.022.858-1.599,1.716-1.599.859-6.147,1.718-6.147.859-.358,1.718-.358.858-1.146,1.717-1.146.858,5.706,1.716,5.706.858,2.018,1.716,2.018.858,2.597,1.717,2.597.859-4.877,1.718-4.877.859.435,1.718.435.858-.468,1.717-.468.858,4.027,1.717,4.027.859.115,1.718.115.859-.171,1.719-.171.858-2.412,1.716-2.412.857.238,1.714.238.857,3.021,1.713,3.021.857-2.755,1.713-2.755.857,3.508,1.715,3.508.859-9.688,1.717-9.688.86,7.936,1.719,7.936.858-6.055,1.717-6.055.858,2.532,1.716,2.532.858,4.764,1.716,4.764.86-2.681,1.719-2.681.859-2.021,1.719-2.021.859.835,1.717.835.859,3.02,1.718,3.02.86-.56,1.72-.56.859-8.348,1.719-8.348.86,5.26,1.721,5.26.86,1.263,1.72,1.263.861,3.274,1.721,3.274.86-10.897,1.72-10.897.858,7.268,1.716,7.268.861.101,1.722.101.859-7.623,1.719-7.623.861,5.458,1.721,5.458.862,2.605,1.723,2.605.86,1.594,1.721,1.594.862-2.768,1.725-2.768.864-.91,1.727-.91.864-5.803,1.727-5.803" style="fill: #fff;"/>
    <path d="M322.648,466.342c.857,0,.857-1.667,1.715-1.667s.858-3.374,1.716-3.374.858,11.185,1.717,11.185.859-4.126,1.718-4.126.859-6.786,1.717-6.786.858,3.205,1.716,3.205.858,7.893,1.716,7.893.858-3.664,1.715-3.664.858,2.022,1.716,2.022.858-1.599,1.716-1.599.859-6.147,1.718-6.147.859-.358,1.718-.358.858-1.146,1.717-1.146.858,5.706,1.716,5.706.858,2.018,1.716,2.018.858,2.597,1.717,2.597.859-4.877,1.718-4.877.859.435,1.718.435.858-.468,1.717-.468.858,4.027,1.717,4.027.859.115,1.718.115.859-.171,1.719-.171.858-2.412,1.716-2.412.857.238,1.714.238.857,3.021,1.713,3.021.857-2.755,1.713-2.755.857,3.508,1.715,3.508.859-9.688,1.717-9.688.86,7.936,1.719,7.936.858-6.055,1.717-6.055.858,2.532,1.716,2.532.858,4.764,1.716,4.764.86-2.681,1.719-2.681.859-2.021,1.719-2.021.859.835,1.717.835.859,3.02,1.718,3.02.86-.56,1.72-.56.859-8.348,1.719-8.348.86,5.26,1.721,5.26.86,1.263,1.72,1.263.861,3.274,1.721,3.274.86-10.897,1.72-10.897.858,7.268,1.716,7.268.861.101,1.722.101.859-7.623,1.719-7.623.861,5.458,1.721,5.458.862,2.605,1.723,2.605.86,1.594,1.721,1.594.862-2.768,1.725-2.768.864-.91,1.727-.91.864-5.803,1.727-5.803" style="fill: none; stroke: #000; stroke-linecap: round; stroke-linejoin: round; stroke-width: 40px;"/>
  </g>
</svg>