<?xml version="1.0" encoding="UTF-8"?>
<svg id="Title" xmlns="http://www.w3.org/2000/svg" width="700" height="700" viewBox="0 0 700 700">
  <path d="M249.784,204.168c.457-.724,5.72,3.046,6.352,2.128.27-.392.14-1.117.524-1.653.301-.42.878-.654,1.249-1.154.318-.429.551-.919.92-1.403.329-.431,2.699.748,3.068.277.338-.431-6.862-6.867-6.491-7.329.345-.43,4.488,2.179,4.863,1.724.352-.428-1.017-2.321-.639-2.768.359-.425,6.28,3.909,6.662,3.467.365-.422-4.31-5.229-3.924-5.665.37-.419,3.088,1.25,3.478.819.376-.416,1.227-.377,1.62-.803.381-.413,3.015,1.329,3.413.907.386-.409-1.42-2.857-1.018-3.273.391-.406-1.135-2.669-.729-3.081.396-.402.622-.983,1.032-1.39.401-.398-.447-2.093-.033-2.495.406-.394-1.353-3.104-.934-3.501.41-.39,2.608,1.054,3.03.662.415-.385-.037-1.773.389-2.161.419-.381,5.909,4.871,6.34,4.488.424-.377-4.157-6.454-3.723-6.832.428-.372,4.85,3.882,5.288,3.509.432-.367,1.49.055,1.932-.312.436-.362-3.109-5.577-2.663-5.939.44-.357,6.353,6.128,6.803,5.771.445-.353-4.098-7.046-3.644-7.398.449-.348,3.39,2.553,3.848,2.207.453-.342-1.293-3.638-.83-3.979.457-.337,3.649,3.084,4.115,2.749.462-.332-1.393-3.916-.923-4.246.466-.326,4.815,5,5.289,4.677.47-.321-.992-3.427-.514-3.745.474-.315.778-.847,1.26-1.16.478-.31,2.036,1.136,2.522.83.482-.304-3.734-8.183-3.245-8.483.486-.298,6.071,7.842,6.564,7.549.49-.291-1.151-4.145-.654-4.433.493-.285,2.506,2.153,3.007,1.872.497-.279-3.033-7.861-2.529-8.135.501-.272.759-1.136,1.267-1.403.504-.266,1.129-.451,1.64-.712.508-.259,2.137,1.599,2.652,1.345.512-.252.752-1.159,1.27-1.406.515-.245.072-2.685.594-2.925.518-.238,1.585.563,2.11.331.521-.231,2.295,2.307,2.823,2.082.523-.223,2.283,2.505,2.813,2.287.527-.216,2.486,3.265,3.019,3.055.53-.209-2.511-9.647-1.975-9.85.533-.201,1.198-.22,1.737-.414.536-.194,1.539.784,2.081.597.539-.186,3.788,7.723,4.332,7.544.541-.178.324-2.503.872-2.675.544-.17,1.338.671,1.888.507.547-.163.256-3.061.808-3.217.549-.155.961-.736,1.516-.883.551-.147.957-.811,1.514-.95.554-.138,1.518,1.511,2.077,1.38.556-.13-.659-8.189-.098-8.312.558-.122,1.971,3.54,2.534,3.425.559-.114,2.529,7.136,3.094,7.03.561-.105.404-3.884.97-3.982.562-.097,1.322,1.243,1.89,1.154.564-.088.254-5.993.823-6.074.564-.08.868-2.527,1.437-2.599.566-.072,1.621,3.583,2.191,3.52.567-.063,1.133-.321,1.705-.377.568-.055,1.141-.305,1.714-.352.569-.046,1.315,2.21,1.889,2.172.57-.038,1.123-.196,1.697-.226.57-.029,1.09-1.205,1.664-1.226.57-.021,1.241,4.148,1.815,4.135.571-.013,1.039-6.492,1.614-6.496.571-.004,1.171,1.892,1.747,1.895.57.004,1.22-3.059,1.794-3.047s1.197.148,1.773.169c.571.02.864,6.783,1.439,6.812s1.153-.61,1.721-.576c.572.034,1.452-4.669,2.02-4.63.572.04.965,2.595,1.532,2.641.574.046,1.358-2.252,1.927-2.201.573.052.485,6.826,1.053,6.884.572.058,1.789-6.057,2.356-5.993.572.064.31,7.03.877,7.099.571.07,2.267-8.691,2.832-8.616.57.076,1.109.631,1.673.713.569.082,1.451-1.629,2.015-1.541.568.089.566,3.911,1.128,4.005.567.095.826,1.985,1.387,2.085.566.101.27,4.706.83,4.813.565.107,1.659-2.718,2.218-2.606.563.113.806,1.612,1.363,1.731.562.119,1.459-1.447,2.016-1.323.561.126.23,3.931.784,4.062.559.132,3.647-10.213,4.2-10.076.558.138,1.114.503,1.665.646.556.144.828,1.538,1.377,1.687.554.151-1.208,8.606-.661,8.762.552.157,1.966-2.8,2.512-2.638.55.163.386,2.571.93,2.739.549.169.807,1.085,1.348,1.259.547.175,1.504-1.061,2.043-.881.544.182,1.551-1.097,2.089-.911.542.188,1.264-.194,1.799-.001.54.194,1.576-.991,2.109-.792.538.2,2.431-3.116,2.961-2.911.535.206-1.913,8.016-1.385,8.226.533.212,1.417-.559,1.942-.343.531.219,4.289-7.247,4.812-7.025.528.225-3.306,10.521-2.786,10.75.525.231,3.901-5.997,4.418-5.763.523.237,2.812-3.279,3.326-3.039.52.243.516,1.712,1.028,1.958.517.249-2.532,7.794-2.023,8.046.514.255,1.556-.632,2.061-.374.511.261,2.157-1.714,2.659-1.45.509.267,2.273-1.807,2.773-1.537.506.273-.211,2.801.285,3.076.502.279,1.479-.284,1.972-.003.499.285,2.643-2.228,3.133-1.942.496.29-.304,2.824.182,3.116.493.296.201,1.89.684,2.188.49.302-.024,2.181.455,2.484.486.308-.136,2.274.339,2.583.483.314.542,1.173,1.014,1.487.479.319,6.493-7.562,6.96-7.242.476.325-.697,3.106-.233,3.431.472.331-2.333,5.264-1.873,5.594.468.337-.482,2.526-.026,2.862.464.342,2.465-1.47,2.917-1.13.46.347,3.217-2.34,3.663-1.994.456.353.337,1.438.779,1.788.453.359-.286,2.171.152,2.527.449.365-1.661,3.754-1.228,4.114.445.371,7.866-7.553,8.294-7.188.441.376.849.871,1.272,1.241.437.382,1.159.524,1.577.899.433.388-2.795,4.836-2.382,5.216.428.394,4.219-2.792,4.625-2.407.424.4-4.618,6.509-4.218,6.897.419.407-.161,1.736.232,2.128.416.414,6.335-4.659,6.722-4.263.412.422-5.533,6.916-5.153,7.316.41.432,1.16.405,1.532.809.406.441,7.802-5.501,8.163-5.097.404.453-2.021,3.397-1.674,3.8.405.47,2.267-.317,2.595.079.421.508.561,1.202.856,1.575.688.871-2.31,2.779-2.31,2.779" style="fill: none; stroke: #000; stroke-linecap: round; stroke-linejoin: round; stroke-width: 40px;"/>
  <path d="M196.042,160.289c.478-.708-4.804-4.043-4.151-4.951.278-.386-2.226-2.996-1.831-3.528.307-.414,3.48,1.191,3.857.694.322-.425,4.741,2.244,5.114,1.763.332-.428-4.716-5.11-4.344-5.58.338-.428,7.426,4.493,7.797,4.032.344-.428-4.226-4.852-3.854-5.308.35-.428,2.6.681,2.974.23.355-.427,1.745.005,2.122-.441.359-.426-1.74-2.957-1.36-3.4.364-.424-1.054-2.428-.672-2.867.368-.423,3.286,1.354,3.67.919.372-.421,4.412,2.426,4.799,1.994.375-.419,1.667.025,2.056-.404.379-.417-3.87-5.052-3.477-5.478.382-.415,5.239,3.336,5.634,2.913.385-.412-7.194-8.324-6.796-8.744.388-.41,5.017,3.191,5.417,2.775.391-.408-3.359-4.852-2.957-5.265.394-.405,6.395,4.664,6.8,4.253.397-.403-4.299-5.885-3.891-6.292.4-.4,3.546,1.931,3.956,1.527.403-.398,4.162,2.64,4.575,2.239.406-.395-3.828-5.594-3.413-5.993.409-.392,1.312-.296,1.73-.691.412-.39,1.766.204,2.187-.188.415-.387.084-1.596.507-1.986.418-.384.271-1.413.697-1.8.42-.382-1.404-3.302-.976-3.685.423-.379.96-.696,1.391-1.076.426-.376,3.144,1.814,3.577,1.437.429-.373-1.22-3.196-.784-3.57.431-.37,1.671.149,2.109-.222.434-.367,3.912,2.86,4.352,2.492.437-.364-.233-2.075.21-2.439.439-.361-.218-2.096.228-2.457.442-.358-.114-2.007.334-2.365.444-.355,1.267-.291,1.718-.645.447-.352,2.208.936,2.661.585.45-.349,5.498,5.295,5.954,4.947.452-.345-3.703-6.756-3.245-7.1.455-.342,5.006,4.815,5.466,4.474.457-.339.386-1.348.849-1.686.459-.334-2.683-5.641-2.219-5.975.461-.331,3.862,3.464,4.329,3.134.464-.328-1.61-4.275-1.14-4.601.467-.324,5.058,5.357,5.53,5.035.469-.321-5.013-9.418-4.538-9.737.472-.317,2.402,1.496,2.879,1.181.474-.314,5.505,6.343,5.984,6.031.477-.31-4.587-9.21-4.105-9.518.479-.306,5.214,6.097,5.698,5.793.482-.303-2.566-6.278-2.08-6.579s.12-2.051.609-2.347,4.962,6.039,5.454,5.746-1.417-4.643-.923-4.931.184-2.004.68-2.289,3.523,3.886,4.022,3.606,2.41,2.041,2.911,1.765.534-1.33,1.038-1.601-2.735-7.545-2.229-7.812,5.466,7.996,5.974,7.733-2.365-7.086-1.855-7.345,1.839,1.099,2.351.845-1.508-5.726-.993-5.976,3.077,3.699,3.594,3.454,3.259,4.288,3.778,4.047,1.003-.467,1.524-.703-2.534-8.471-2.011-8.703,1.474.425,2,.199.973-.722,1.501-.944,1.705,1.05,2.235.833,1.142-.281,1.674-.493.992-.661,1.525-.869,3.999,7.294,4.535,7.092-.055-3.312.483-3.509c.535-.196,1.209.068,1.747-.123s.872-.88,1.412-1.067,1.573,1.182,2.115,1.001-.84-6.168-.296-6.344.998-.695,1.544-.866.081-3.75.629-3.916,2.71,5.003,3.259,4.842-.274-5.2.277-5.355,2.667,5.28,3.22,5.13.755-1.618,1.309-1.762,1.58,1.576,2.135,1.437,2.183,4.263,2.74,4.13-.512-7.118.047-7.246,1.14-.201,1.7-.323,1.184.015,1.745-.102,2.238,5.397,2.8,5.286-.335-7.787.228-7.892,2.457,7.2,3.022,7.101-.002-6.749.563-6.842,1.98,5.176,2.547,5.088.97-1.054,1.537-1.135c.564-.081.453-5.045,1.02-5.121s1.387,1.697,1.955,1.627,1.673,4.567,2.242,4.503.767-3.317,1.337-3.375.905-2.547,1.476-2.599,1.648,5.914,2.219,5.868.628-6.628,1.2-6.669,1.373,3.356,1.946,3.321c.569-.035,1.283,2.998,1.855,2.969s.839-6.43,1.412-6.453,1.244,2.595,1.817,2.578,1.11-1.461,1.684-1.472c.571-.011,1.147-.555,1.72-.561s1.156,5.65,1.731,5.65,1.164-5.769,1.738-5.763,1.034,7.371,1.606,7.38,1.322-9.293,1.893-9.28,1.12,1.699,1.692,1.715,1.059,2.913,1.63,2.933,1.298-3.9,1.869-3.877,1.059,2.304,1.63,2.33,1.065,1.675,1.636,1.705,1.256-1.951,1.827-1.918,1.154.029,1.724.066,1.183-.388,1.753-.348c.574.04.985,2.331,1.557,2.374s1.057,1.126,1.628,1.173,1.71-6.404,2.281-6.353.972,2.239,1.543,2.293.631,5.358,1.201,5.416,1.336-1.834,1.906-1.773,1.615-4.073,2.184-4.009.431,6.243,1,6.311.766,2.979,1.334,3.051,2.382-9.476,2.949-9.401.398,5.67.965,5.749,1.494-2.349,2.061-2.266.232,6.165.798,6.251,1.218-.544,1.783-.454,2.016-5.32,2.581-5.227.477,4.062,1.041,4.158,1.561-2.303,2.124-2.203,1.702-2.887,2.265-2.783-.407,8.328.155,8.436,3.111-9.943,3.672-9.832.806,1.956,1.366,2.071-.634,8.634-.075,8.753,2.304-5.31,2.862-5.187,2.216-4.583,2.774-4.457,1.233-.073,1.79.057.831,1.622,1.387,1.756.337,3.55.892,3.687.599,2.337,1.153,2.478,1.458-1.07,2.011-.926,2.334-4.27,2.887-4.122,1.046.652,1.597.804c.554.152,1.019.729,1.569.885.553.156-1.616,9.812-1.067,9.971.552.16,1.5-1.154,2.048-.991.551.163,3.029-6.112,3.575-5.946.55.167,1.922-2.254,2.468-2.085.548.171-.548,5.617-.004,5.79.547.174.61,1.825,1.153,2.002.546.178.583,1.842,1.125,2.023.545.182,3.757-7.529,4.297-7.345.543.185.92.949,1.459,1.137.542.189.431,2.297.969,2.489.541.193,1.91-1.848,2.447-1.653.54.196-.075,3.589.46,3.788.538.2,1.681-1.172,2.215-.969.537.204-1.403,6.859-.87,7.065.535.207,4.402-8.099,4.933-7.889.534.211-2.245,8.741-1.715,8.954.532.214,4.275-7.46,4.803-7.243.531.218-2.286,8.517-1.759,8.737.529.222,4.184-6.955,4.709-6.731.528.225-1.937,7.405-1.414,7.632.526.229,1.912-1.546,2.434-1.315.525.232-.03,2.835.49,3.069.523.236,4.919-8.031,5.437-7.793.522.239-2.746,8.674-2.23,8.915.52.243,1.619-.792,2.134-.547.518.246-.523,3.679-.01,3.927.516.25,2.524-2.62,3.036-2.368.515.253,1.612-.693,2.121-.437.513.257,1.871-1.161,2.378-.902.511.26.995.585,1.501.847.511.265.734,1.087,1.24,1.353.509.268,3.324-3.769,3.828-3.5.507.272.284,1.958.786,2.231.506.275-2.355,6.685-1.855,6.961.504.278,5.458-7.417,5.956-7.137.502.282-1.072,4.275-.576,4.558.5.285,2.641-2.245,3.135-1.959.498.289-3.731,8.664-3.24,8.953.496.292,1.302-.001,1.792.291.494.295,2.592-2.107,3.079-1.811.492.298.51,1.35.995,1.65.489.302,2.687-2.151,3.17-1.849.487.305-.349,2.708.132,3.014.485.308.133,1.9.611,2.209.483.312,3.8-3.74,4.276-3.428.481.315,1.188.319,1.662.634.479.318.995.614,1.467.932.477.321-3.696,7.474-3.227,7.795.474.324,2.701-1.942,3.168-1.618.472.328-.807,3.116-.343,3.443.47.331,2.3-1.307,2.763-.976.468.334-.424,2.509.036,2.843.465.337,6.097-6.419,6.554-6.083.463.34-4.693,8.263-4.238,8.602.461.344,5.741-5.758,6.194-5.415.459.347-1.273,3.575-.822,3.921.457.35,1.478-.044,1.926.305.455.353,4.657-4.057,5.102-3.706.453.357-2.722,5.315-2.278,5.67.451.36,1.015.575,1.456.932.448.363,4.103-3.182,4.541-2.821.445.366,1.309.279,1.745.642.443.369-4.73,7.444-4.298,7.809.44.372,3.816-2.723,4.245-2.355.438.375-2.616,4.783-2.189,5.153.436.378,4.102-2.96,4.526-2.587.434.381,1.594-.047,2.016.329.431.385-3.06,5.122-2.641,5.501.429.388,4.176-2.889,4.592-2.507.426.391,1.956-.4,2.369-.016.424.394,2.615-1.068,3.024-.683.422.398-.845,2.607-.438,2.996.419.401,1.504.134,1.907.525.417.404,1.664-.012,2.064.381.415.408-1.408,3.101-1.012,3.496.412.41,2.562-.9,2.954-.505.41.413-5.619,7.149-5.231,7.546" style="fill: none; stroke: #000; stroke-linecap: round; stroke-linejoin: round; stroke-width: 40px;"/>
  <path d="M402.407,406.637c.174-.838-1.319-2.381-.719-2.991s6.559,5.251,7.159,4.641c.599-.609-2.706-3.861-2.107-4.47.6-.61-3.361-4.505-2.761-5.115s-.557-1.749.043-2.359,3.781,2.519,4.381,1.909-1.664-2.838-1.064-3.448,4.011,2.749,4.609,2.142-2.931-4.084-2.33-4.694,4.762,3.485,5.361,2.876-3.58-4.72-2.981-5.329.424-.785,1.025-1.397,7.301,5.98,7.901,5.37c.601-.611-4.43-5.56-3.829-6.171s5.304,4.013,5.905,3.401-6.215-7.315-5.615-7.926,4.418,3.141,5.019,2.53-1.719-2.898-1.115-3.511,9.098.063,8.771-.733c-.325-.791-5.839-.896-6.694-.896s-.855,4.031-1.709,4.031c-.854,0-.854-.047-1.709-.047s-.854,1.888-1.708,1.888-.854-2.472-1.708-2.472-.854,1.105-1.708,1.105-.854,1.308-1.708,1.308c-.854,0-.854,2.049-1.709,2.049s-.855-1.904-1.709-1.904-.855-3.531-1.71-3.531-.855,3.944-1.711,3.944-.856.294-1.712.294-.856.347-1.712.347-.855-5.427-1.711-5.427-.855-4.426-1.71-4.426-.855.487-1.71.487-.855,3.041-1.709,3.041-.855,4.619-1.709,4.619-.855-6.71-1.71-6.71-.855,2.26-1.711,2.26-.856,5.053-1.712,5.053-.856-6.775-1.713-6.775-.856.016-1.712.016-.856,8.766-1.711,8.766-.855-10.661-1.71-10.661-.855,11.388-1.71,11.388c-.855,0-.855-2.394-1.711-2.394s-.856-2.042-1.711-2.042-.856-.196-1.713-.196-.856-3.783-1.713-3.783-.856-.896-1.712-.896-.856,5.91-1.711,5.91-.856-2.425-1.711-2.425-.856-4.049-1.712-4.049-.857,2.668-1.713,2.668-.856,2.655-1.713,2.655-.856-.812-1.712-.812c-.856,0-.856-5.242-1.712-5.242s-.856,1.63-1.712,1.63-.857,9.07-1.714,9.07-.855-8.831-1.711-8.831-.854,1.814-1.709,1.814-.854,1.235-1.708,1.235-.854,3.277-1.708,3.277-.855-8.464-1.71-8.464-.856,1.165-1.712,1.165-.857,4.52-1.714,4.52-.856,5.087-1.711,5.087-.855-7.308-1.71-7.308-.856,6.872-1.711,6.872-.857-10.144-1.714-10.144-.857,6.969-1.714,6.969-.856.238-1.712.238-.857-.069-1.713-.069-.858-1.353-1.715-1.353-.857-3.948-1.713-3.948-.858-1.82-1.715-1.82-.857,3.48-1.714,3.48-.858-4.318-1.716-4.318-.858,11.661-1.715,11.661-.855-4.948-1.711-4.948-.858.785-1.716.785-.857-7.354-1.714-7.354-.858,2.875-1.716,2.875-.859,5.442-1.718,5.442-.858.507-1.715.507-.86,1.283-1.719,1.283c-.861,0-.861-5.372-1.722-5.372s-.938.313-1.264,1.111c-.328.805,1.757-1.136,2.365-.515s-3.168,4.31-2.561,4.932,2.636-1.361,3.243-.74.876.359,1.483.981-2.68,3.834-2.073,4.457,5.94-4.588,6.547-3.966-5.793,6.875-5.185,7.497c.605.62,9.026-7.606,9.631-6.987s-3.524,4.658-2.916,5.281c.607.621.94.295,1.547.916s4.298-2.985,4.905-2.364-1.337,2.524-.729,3.147.795.439,1.403,1.061-3.659,4.792-3.05,5.415-.4,1.609.209,2.233-.215,1.427.393,2.05,7.772-6.373,8.381-5.749-.342,1.557.269,2.182,2.487,1.93,2.673,2.785c.183.84.637,3.441.338,4.248s-9.788-2.708-10.087-1.902,5.998,3.138,5.699,3.944-4.12-.61-4.418.196,6.279,3.241,5.981,4.046-5.535-1.135-5.834-.33-4.873-.89-5.171-.085.51,1.104.212,1.909-.236.828-.534,1.633-.462.745-.76,1.55,8.939,4.226,8.641,5.032-8.418-2.201-8.716-1.396,8.662,4.125,8.363,4.931-2.849-.138-3.148.669-5.505-1.121-5.803-.315.119.961-.18,1.767-.898.584-1.197,1.39,2.038,1.671,1.74,2.477c-.298.805-2.85-.14-3.149.666s4.655,2.64,4.357,3.446-.29.809-.588,1.615-2.11.135-2.408.941-.389.773-.687,1.58,3.386,2.172,3.087,2.979-9.61-2.642-9.908-1.835,4.547,2.601,4.249,3.407.758,1.197.46,2.003-1.324.426-1.623,1.232,4.829,2.705,4.531,3.511.555,1.123.256,1.929-4.81-.864-5.109-.057-.607.693-.906,1.5-4.813-.865-5.112-.059-2.085.145-2.383.951,9.665,4.497,9.367,5.303.32,1.036.021,1.842-2.274.076-2.573.883-8.105-2.084-8.404-1.277,3.703,2.289,3.404,3.095-.914.579-1.213,1.385c-.299.806,1.547,1.49,1.249,2.296s3.955,2.383,3.656,3.191c-.299.806-6.939-1.653-7.238-.847s-1.393.4-1.691,1.205,2.916,1.995,2.618,2.8-3.08-.225-3.378.58.8,1.212.502,2.018-.771.632-1.07,1.439c-.299.808-3.799-.488-4.098.319-.299.806,4.233,2.485,3.934,3.291s3.344,2.155,3.045,2.961-3.933-.54-4.232.267,1.302,1.401,1.003,2.208-6.382-1.445-6.681-.638,5.159,2.828,4.86,3.635-3.003-.194-3.302.613,2.362,1.794,2.062,2.602-1.737.275-2.036,1.082,4.329,2.522,4.029,3.331-1.983.184-2.283.992-1.07.523-1.37,1.332,2.108,1.698,1.81,2.504-6.086-1.337-6.385-.531-1.052.53-1.352,1.339-.636.683-.936,1.491-.181.853-.48,1.662,8.93,4.228,8.63,5.038-3.793-.485-4.092.323.075.949-.225,1.76-.644.685-.945,1.496-7.499-1.854-7.8-1.043c-.296.799,1.854,1.596,1.558,2.395-.296.799,5.487,2.941,5.191,3.74s-6.139-1.365-6.435-.566-2.602-.055-2.898.744,3.113,2.061,2.817,2.861-2.763-.114-3.059.685,8.335,3.996,8.039,4.796-9.905-2.759-10.201-1.959,1.659,1.524,1.362,2.325-2.413.017-2.709.818c-.297.801.341,1.037.045,1.838s9.967,4.602,9.671,5.402-9.449-2.59-9.745-1.79.477,1.086.18,1.886,1.463,1.451,1.166,2.251c-.296.8-4.328-.693-4.624.106s8.093,3.907,7.797,4.707-6.065-1.336-6.362-.536c-.297.801-2.604-.054-2.901.747s8.855,4.191,8.558,4.992-8.485-2.232-8.781-1.431,4.917,2.731,4.621,3.532,1.038,1.294.741,2.094-1.519.347-1.816,1.147-2.642-.068-2.938.732-3.652-.442-3.948.358c-.297.801,7.655,3.746,7.358,4.547s-6.588-1.529-6.885-.728,5.031,2.774,4.735,3.575-2.416.015-2.713.816-6.059-1.334-6.356-.533,1.605,1.505,1.309,2.306,5.501,2.948,5.204,3.75c-.297.801-5.753-1.22-6.05-.418s-1.092.506-1.389,1.307,8.393,4.019,8.097,4.82-3.313-.317-3.609.483-7.601-1.903-7.897-1.102,9.532,4.44,9.236,5.241-6.336-1.437-6.632-.638c-.296.799,2.34,1.775,2.044,2.574s-3.175-.267-3.471.532,4.195,2.463,3.899,3.263.301,1.022.005,1.823-5.183-1.008-5.48-.206,3.281,2.125,2.984,2.926.614,1.137.318,1.938c-.296.801-6.357-1.444-6.653-.643s7.335,3.629,7.038,4.43-7.919-2.021-8.216-1.22-.049.893-.346,1.694,5.704,3.024,5.407,3.825,1.002,1.284.705,2.086.355,1.043.058,1.845c-.297.802.096.948-.202,1.75s-11.17-3.225-11.467-2.423,8.539,4.075,8.242,4.878,1.509,1.469,1.212,2.27-7.652-1.924-7.948-1.123-3.676-.448-3.974.355,7.476,3.681,7.179,4.483-4.405-.718-4.702.085c-.298.804,1.957,1.639,1.66,2.443s2.159,1.712,1.861,2.515c-.298.805-.313.799-.611,1.604s-5.895-1.267-6.194-.461,6.522-1.317,7.009-.609c.484.703-3.904-2.646-3.05-2.646s.855,2.186,1.709,2.186.856.713,1.711.713.854,5.943,1.709,5.943.854-8.453,1.708-8.453.854,11.231,1.709,11.231.856-9.473,1.711-9.473.855-.411,1.711-.411.855-1.638,1.709-1.638.855,2.567,1.711,2.567.856,8.364,1.713,8.364.855-9.117,1.711-9.117.856,2.183,1.713,2.183.856-3.918,1.712-3.918.857-.179,1.713-.179.856,2.98,1.712,2.98.854,3.844,1.708,3.844.857,3.661,1.714,3.661.855-7.168,1.711-7.168.857,5.003,1.713,5.003.858-.072,1.715-.072.856-6.317,1.713-6.317.858,4.956,1.717,4.956.86,3.337,1.72,3.337.665-4.796,1.486-5.051.492-.391,1.202-.879,1.702.956,2.411.468,1.928,1.283,2.637.796,1.937,1.297,2.647.808.047-1.453.757-1.942-3.957-7.277-3.246-7.766,5.593,6.612,6.303,6.123.296-1.091,1.006-1.579-3.122-6.06-2.412-6.548,5.001,5.752,5.711,5.264-2.477-5.122-1.767-5.61-2.006-4.439-1.296-4.927.959-.127,1.67-.616c.711-.489,6.651,8.149,7.362,7.661s1.105.086,1.816-.402-2.192-4.709-1.482-5.197-.61-2.409.1-2.897-1.413-3.576-.702-4.065,6.867,8.471,7.575,7.985-2.425-5.042-1.717-5.528,1.838,1.156,2.546.669,2.67,2.364,3.379,1.877-3.078-5.998-2.368-6.486-.893-2.822-.181-3.312,2.742,2.466,3.452,1.977,1.81,1.112,2.519.624,2.352,1.902,3.061,1.414-4.564-8.156-3.855-8.644.693-.512,1.403-1,6.845,8.432,7.556,7.943q.712-.489,1.422-.98c.711-.489-1.434-3.607-.723-4.096s-2.264-4.813-1.554-5.301,2.79,2.535,3.5,2.047-2.268-4.822-1.556-5.312c.711-.489,6.427,7.823,7.139,7.334s-3.661-6.847-2.95-7.336-.32-1.988.392-2.477,5.251,6.111,5.963,5.621-1.596-3.845-.885-4.334-1.646-3.919-.934-4.409,5.265,6.132,5.977,5.643,1.068.027,1.781-.463,1.022-.036,1.732-.524-3.415-6.488-2.704-6.976,2.012,1.399,2.725.909c.712-.489,4.272,4.689,4.984,4.199.713-.49.279-1.121.991-1.611s-2.767-5.551-2.053-6.042,4.054,4.369,4.766,3.88-1.736-4.054-1.022-4.545.625-.622,1.341-1.114.419,2.502,1.287,2.473c.849-.028,1.312-4.573,2.036-4.129.724.444-3.125,6.717-2.402,7.161s1.104-.175,1.827.269,1.978-1.599,2.702-1.155,3.313-3.774,4.037-3.33.29,1.154,1.014,1.598,1.888-1.451,2.614-1.006-1.939,4.786-1.214,5.231-1.258,3.675-.533,4.12,5.263-6.953,5.987-6.508.419.941,1.144,1.385-2.978,6.479-2.254,6.923,2.332-2.176,3.057-1.731,3.965-4.835,4.69-4.39-3.672,7.612-2.947,8.057-.273,2.071.451,2.516,6.109-8.33,6.833-7.886.862.221,1.586.666-4.651,9.207-3.927,9.651,6.5-8.975,7.222-8.532-3.08,6.64-2.358,7.083,3.858-4.666,4.58-4.223c.723.444-1.482,4.039-.759,4.483s1.001-.005,1.725.439c.726.445-.746,2.844-.02,3.289s3.029-3.31,3.753-2.866,1.113-.191,1.837.253-.308,2.125.415,2.569.285,1.159,1.009,1.603,2.041-1.703,2.766-1.258.567.703,1.292,1.148-.058,1.724.668,2.169,1.245-.403,1.97.042-2.015,4.909-1.29,5.353.014,1.604.739,2.049,4.687-6.009,5.413-5.564-.36,2.216.366,2.661-.247,2.029.479,2.474.431.925,1.157,1.371.621.619,1.347,1.065,2.057-1.723,2.782-1.278-.479,2.411.248,2.857-.628,2.653.098,3.098c.727.446,5.138-6.744,5.865-6.298.725.445-2.315,5.4-1.591,5.845s.059,1.53.784,1.975,1.831-1.353,2.559-.907,2.437-2.342,3.163-1.897-1.53,4.125-.803,4.571-.146,1.871.582,2.317,4.768-6.139,5.494-5.693-2.954,6.449-2.225,6.896c.73.448.759.4,1.489.848s1.437.278,2.261.509c.838.235,1.344-7.589,2.214-7.589s.869,3.601,1.738,3.601.869,2.4,1.737,2.4.869,3.375,1.738,3.375.87-3.734,1.741-3.734.87,4.353,1.74,4.353.869-5.879,1.739-5.879.87,3.971,1.74,3.971.871,3.369,1.742,3.369.87-6.852,1.74-6.852.871,6.871,1.742,6.871.871-9.432,1.741-9.432.871,8.125,1.743,8.125.871-9.726,1.742-9.726.869,6.439,1.738,6.439.872,4.536,1.743,4.536.87-8.058,1.74-8.058.871,7.951,1.743,7.951.872-5.074,1.745-5.074.871,5.445,1.742,5.445.873-1.69,1.746-1.69.875-5.701,1.749-5.701-3.224-.863-2.716-1.575c.498-.699,1.445,3.403,1.144,2.6s4.184-2.489,3.882-3.292c-.302-.804.891-1.252.589-2.056s-2.648.078-2.95-.725,2.675-1.922,2.373-2.725.971-1.282.67-2.085-3.977.578-4.278-.225-5.709,1.229-6.011.426.518-1.111.217-1.914.233-1.004-.068-1.806,6.726-3.443,6.424-4.246-6.941,1.692-7.243.89-.422-.757-.724-1.56,4.463-2.593,4.161-3.396,2.355-1.801,2.053-2.604-.034-.903-.336-1.706c-.302-.803-1.866-.215-2.168-1.018-.302-.803-5.871,1.29-6.173.487s5.873-3.124,5.571-3.927-1.608-.313-1.91-1.116-1.731-.267-2.033-1.07,1.355-1.426,1.053-2.229.502-1.105.2-1.908-6.803,1.641-7.105.838,2.436-1.831,2.134-2.633,1.85-1.611,1.549-2.413-1.714-.271-2.015-1.072.456-1.086.155-1.887-7.102,1.755-7.403.953,8.422-4.079,8.121-4.88-3.23.3-3.531-.501-4.837.904-5.138.103,2.189-1.736,1.888-2.537-3.223.297-3.524-.503-.702-.65-1.003-1.451,9.264-4.395,8.963-5.196-10.47,3.021-10.771,2.22,2.027-1.676,1.726-2.477,4.861-2.741,4.56-3.542-.508-.724-.809-1.525,2.026-1.676,1.724-2.477-5.89,1.298-6.191.497c-.301-.802-3.022.22-3.323-.582s3.153-2.101,2.852-2.903-1.397-.391-1.698-1.194,5.362-2.932,5.061-3.735-5.2,1.037-5.502.233-.885-.585-1.187-1.39,6.473-3.35,6.171-4.154-5.115,1.005-5.417.202-6.271,1.44-6.573.637,3.385-2.188,3.084-2.991-.7-.653-1.001-1.455,1.562-1.503,1.261-2.305,4.749-2.7,4.448-3.502-3.726.485-4.028-.317-1.629-.303-1.93-1.105,2.993-2.04,2.692-2.842-2.666.086-2.967-.716-2.915.18-3.217-.622-.608-.687-.909-1.49-1.53-.341-1.831-1.144.045-.933-.257-1.736,6.901-3.51,6.599-4.313-9.714,2.733-10.017,1.929,2.891-2.005,2.589-2.809,6.388-3.318,6.086-4.123.605-1.145.303-1.948-.385-.772-.686-1.576-2.077-.136-2.378-.939-3.741.49-4.043-.313c-.302-.803,3.235-2.132,2.933-2.935-.302-.803-8.3,2.203-8.602,1.4s-.901-.578-1.203-1.381,1.348-1.423,1.046-2.226,4.946-2.775,4.644-3.579-2.645.077-2.947-.727,4.354-2.554,4.051-3.358-3.125.256-3.428-.549-3.168.272-3.471-.532,4.268-2.522,3.966-3.326-6.101,1.375-6.403.572-2.638.074-2.94-.729,5.411-2.95,5.109-3.754-4.054.607-4.356-.197,5.306-2.911,5.004-3.715-7.231,1.8-7.533.996,3.646-2.288,3.344-3.093.229-1.005-.074-1.81,4.371-2.561,4.068-3.365-9.613,2.695-9.915,1.89,3.188-2.116,2.886-2.92-2.872.162-3.174-.642,2.502-1.858,2.2-2.662.996-1.292.694-2.097,3.477-2.225,3.175-3.03-3.701.472-4.004-.333-4.841.901-5.143.097-1.212-.462-1.514-1.267,1.316-1.412,1.014-2.217-.885-.585-1.188-1.39,3.592-2.269,3.29-3.074-3.135.259-3.437-.546,6.144-3.227,5.842-4.032-1.616-.311-1.919-1.115-3.394.358-3.696-.446-1.785-.248-2.088-1.054,6.259-3.27,5.957-4.074c-.302-.803.277-1.021-.025-1.824s-2.939.188-3.241-.614-2.338-.038-2.639-.841-.291-.808-.593-1.611c-.302-.805-3.162.27-3.465-.535s3.82-2.355,3.517-3.16-3.093.245-3.396-.56,1.409-1.447,1.106-2.251-2.785.129-3.088-.676.134-.97-.169-1.775,5.954-3.157,5.651-3.962-5.824,1.27-6.126.465,1.045-1.312.742-2.117-6.292,1.444-6.595.638,4.268-2.523,3.966-3.328,4.825-2.733,4.522-3.539-.324-.798-.627-1.604-.011-.916-.314-1.723c-.302-.804-7.78,2.006-8.082,1.201s3.42-2.203,3.118-3.008c-.303-.807.976-1.288.673-2.095-.303-.806-7.454,1.882-7.757,1.076s5.073-2.827,4.77-3.634-2.198-.096-2.502-.903,6.159-3.235,5.856-4.041-9.566,2.672-9.87,1.864,6.581-3.831,6.178-4.596c-.398-.756-3.456.745-3.28-.102Z" style="fill: none; stroke: #000; stroke-linecap: round; stroke-linejoin: round; stroke-width: 40px;"/>
  <path d="M371.416,370.649c0-.868-10.507-.868-10.507-1.737s1.702-.869,1.702-1.737,3.066-.869,3.066-1.738.866-.871.866-1.741-6.673-.871-6.673-1.743c0-.87,5.03-.87,5.03-1.74,0-.87,5.005-.87,5.005-1.739s-7.011-.87-7.011-1.74,5.383-.871,5.383-1.743-5.111-.871-5.111-1.743c0-.871,6.908-.871,6.908-1.741,0-.871.884-.871.884-1.742,0-.872-2.509-.872-2.509-1.744s-4.368-.871-4.368-1.742-3.654-.872-3.654-1.744,3.463-.872,3.463-1.743.884-.873.884-1.745-1.588-.872-1.588-1.744,4.708-.87,4.708-1.74-1.611-.873-1.611-1.746-2.103-.871-2.103-1.743-2.393-.872-2.393-1.745,6.824-.873,6.824-1.747,1.988-.872,1.988-1.744-6.615-.874-6.615-1.749-3.407-.876-3.407-1.751,7.057-.876,7.057-1.751" style="fill: none; stroke: #000; stroke-linecap: round; stroke-linejoin: round; stroke-width: 40px;"/>
  <path d="M419.772,279.787c0,.578-10.423.917-10.447,1.489-.025.577,9.071,1.699,9.022,2.27-.05.575-.958,1.195-1.032,1.764-.074.572-.247,1.249-.345,1.814-.099.568-4.178.383-4.301.944s4.573,2.343,4.425,2.899-.512,1.211-.683,1.759-.371,1.248-.565,1.789-6.158-1.107-6.375-.575-1.998.229-2.237.752,1.243,1.718.982,2.231-1.527.341-1.809.843.109,1.24-.193,1.73-.559.863-.88,1.341,5.907,5.604,5.567,6.068-2.896-.583-3.255-.132-5.27-2.897-5.646-2.46,3.012,4.178,2.62,4.601-4.871-3.175-5.279-2.768-.285,1.148-.708,1.539,1.503,3.302,1.067,3.678.019,1.853-.431,2.213-.305,1.592-.768,1.935-4.913-4.977-5.388-4.65.05,1.912-.437,2.222-.007,2.045-.504,2.337,1.734,5.516,1.227,5.791-4.712-6.545-5.228-6.288c-.514.256,2.255,7.414,1.73,7.653-.522.238-1.864-1.136-2.397-.915-.53.22-1.446-.369-1.986-.166-.537.202-1.963-2.079-2.51-1.894-.543.184-1.534-1.258-2.086-1.092-.549.165,1.265,8.861.707,9.009-.554.147-1.958-2.513-2.52-2.384-.559.129-2.64-7-3.207-6.889-.563.11-.325,4.268-.895,4.36-.566.092-1.561-3.209-2.134-3.135-.569.073-.988.476-1.563.531-.571.055-.612,6.762-1.188,6.798-.572.036-1.293-1.183-1.871-1.165-.573.018-1.215-4.034-1.793-4.034s-1.286,6.159-1.859,6.141c-.578-.018-1.051-3.744-1.623-3.781-.577-.037-.607-5.907-1.178-5.962-.575-.055-1.238,1.947-1.807,1.874-.573-.074-1.427,2.271-1.993,2.179-.57-.092-1.535,1.985-2.097,1.875-.567-.111-.751-2.076-1.31-2.205-.563-.129-2.217,3.931-2.772,3.783-.558-.148-.524-2.693-1.074-2.859-.553-.166-2.002,2.181-2.545,1.997-.547-.185.743-5.633.206-5.835-.54-.203-3.754,6.17-4.284,5.95-.533-.221,1.209-5.885.687-6.124-.525-.239-2.013,1.481-2.526,1.225-.516-.257-.338-1.93-.842-2.204-.507-.275-1.073-.47-1.568-.761s1.461-4.469.977-4.777-4.358,4.567-4.831,4.242-1.166-.484-1.627-.826.866-3.063.417-3.421-1.34-.172-1.775-.547-.989-.63-1.41-1.021-4.047,2.41-4.453,2.004,1.435-3.148,1.044-3.569,3.608-4.697,3.234-5.133-3.457,1.488-3.814,1.038-2.759.628-3.098.164,1.128-2.236.807-2.713-3.852,1.039-4.154.55,5.106-4.347,4.824-4.849-2.398.076-2.659-.437-4.257.73-4.496.207,4.203-3.095,3.986-3.628-7.123,1.425-7.318.883.628-1.63.457-2.18,1.809-1.847,1.662-2.404,1.029-1.48.906-2.042-5.144-.287-5.243-.855,9.763-2.661,9.689-3.234c-.074-.568-7.22-.327-7.269-.902-.049-.571-.088-1.251-.113-1.828-.025-.573,7.961-1.253,7.961-1.831s-10.497-1.366-10.473-1.939c.025-.577,4.504-.984,4.554-1.555.05-.575,2.226-.895,2.3-1.464.074-.572-4.207-1.832-4.109-2.397.099-.568,6.471.115,6.594-.446s1.593-.609,1.74-1.165-1.355-1.403-1.184-1.952-4.848-2.813-4.654-3.354,2.668-.254,2.885-.786-4.973-3.529-4.734-4.052,6.859,1.933,7.12,1.421-1.019-1.829-.738-2.331-1.087-2.041-.785-2.531,5.598,2.268,5.919,1.79.096-1.18.436-1.644-4.404-4.819-4.046-5.27,3.796,1.573,4.172,1.136,1.081-.539,1.473-.961-3.378-4.959-2.971-5.366,6.46,5.01,6.882,4.619-2.429-4.404-1.992-4.78,5.514,4.962,5.964,4.603-3.028-5.671-2.564-6.015c.461-.342,1.836.599,2.311.273s2.631,2.053,3.118,1.744-1.489-4.518-.991-4.81-.17-2.766.337-3.04.653-1.502,1.169-1.759c.514-.256.521-1.962,1.046-2.201.522-.238,4.361,7.006,4.894,6.785.53-.22-1.85-7.932-1.31-8.135.537-.202,4.683,9.686,5.229,9.501.543-.184-2.179-10.607-1.626-10.773.549-.165,1.535.59,2.093.442.554-.147,2.983,7.167,3.545,7.038.559-.129-.285-6.895.281-7.006.563-.11.881-2.489,1.451-2.582.566-.092,1.811,3.563,2.384,3.49.569-.073,1.308.877,1.883.822.571-.055.915-4.263,1.491-4.3.572-.036,1.449,4.141,2.027,4.122.573-.018,1.183.143,1.761.143s1.245-1.974,1.818-1.955c.578.018,1.037,3.309,1.609,3.346.577.037,1.22-.78,1.791-.725.575.055.701,3.705,1.27,3.778.573.074,2.161-6.769,2.727-6.678.57.092.682,3.172,1.245,3.282.567.111-.202,6.139.357,6.268.563.129,1.817-3.025,2.371-2.878.558.148,3.014-6.221,3.563-6.056.553.166.139,3.704.682,3.888.547.185,1.272.031,1.809.233.54.203,1.812-1.195,2.341-.975.533.221.861,1.185,1.383,1.423.525.239-.768,4.346-.255,4.602.516.257.243,1.868.747,2.142s2.352-1.93,2.847-1.639,1.155.322,1.639.631-1.161,3.735-.688,4.06,6.456-6.989,6.917-6.647-1.821,4.463-1.372,4.821-1.284,3.325-.849,3.699,2.004-.587,2.425-.197-2.896,4.505-2.489,4.911.802.533,1.192.954,8.158-5.771,8.532-5.336-6.333,6.719-5.975,7.169,7.111-4.013,7.45-3.549,2.838-.365,3.159.112-7.47,6.231-7.169,6.721,3.219-.667,3.501-.165-3.418,2.996-3.157,3.508.436.829.676,1.352,9.97-3.055,10.187-2.522-8.654,4.562-8.459,5.104,4.133-.285,4.304.264-1.661,1.605-1.514,2.162,8.624-.828,8.747-.265-5.844,2.447-5.745,3.015c.098.565-1.771,1.378-1.697,1.95.074.568-2.63,1.283-2.58,1.858.049.571-.612.961-.587,1.539.025.573,10.561.906,10.561,1.484Z" style="fill: none; stroke: #000; stroke-linecap: round; stroke-linejoin: round; stroke-width: 40px;"/>
  <path d="M374.85,565.439c.716-.475.697-.503,1.413-.978.716-.475,1.587.837,2.302.361s3.665,3.967,4.38,3.492.852-.269,1.567-.744-1.571-3.918-.857-4.393.804-.341,1.519-.816.934-.14,1.646-.613-2.706-5.621-1.993-6.094.734-.441,1.447-.915,3.466,3.671,4.18,3.197,4.084,4.599,4.799,4.124-2.45-5.244-1.734-5.72-.75-2.682-.035-3.157.139-1.34.854-1.815-.148-1.773.565-2.247,2.953,2.897,3.667,2.422,1.804,1.166,2.518.691-.517-2.332.198-2.807-1.42-3.693-.703-4.169,4.03,4.516,4.745,4.041-.381-2.125.334-2.6c.715-.475.129-1.357.845-1.832s1.29.388,2.007-.088,3.616,3.89,4.332,3.415-.756-2.691-.04-3.166-.237-1.911.479-2.387,3.774,4.128,4.491,3.652-5.369-9.64-4.653-10.115.628-.611,1.345-1.087c.717-.476,5.674,6.99,6.391,6.514s-1.362-3.608-.645-4.085,2.834,2.716,3.55,2.241,1.781,1.13,2.497.655-2.113-4.74-1.396-5.216c.717-.476,2.712,2.53,3.429,2.054s-.443-2.223.275-2.7c.718-.477-2.289-5.006-1.571-5.483s1.645.921,2.362.444,4.454,5.147,5.173,4.669.558-.723,1.278-1.201.933-.158,1.653-.636" style="fill: none; stroke: #000; stroke-linecap: round; stroke-linejoin: round; stroke-width: 40px;"/>
  <path d="M364.021,571.151c-.689-.512-.028-1.402-.717-1.914s-4.137,4.13-4.826,3.618-1.895,1.112-2.583.6c-.688-.512,4.758-7.841,4.069-8.353s-3.326,3.038-4.015,2.527,2.811-5.222,2.122-5.734-3.643,3.463-4.332,2.95-2.088,1.369-2.777.857-2.454,1.863-3.143,1.351,3.908-6.698,3.219-7.21c-.687-.51-.26-1.084-.947-1.595s-4.28,4.326-4.966,3.816-.793-.366-1.48-.876,3.646-6.342,2.96-6.852-.512-.746-1.199-1.257-.716-.473-1.404-.984c-.689-.512-6.116,6.791-6.805,6.279s-.806-.357-1.497-.87,1.28-3.161.59-3.674,1.301-3.189.613-3.701-3.985,3.926-4.673,3.415,4.008-6.831,3.32-7.343-3.759,3.62-4.448,3.109,2.279-4.508,1.589-5.02-.958-.152-1.649-.665.538-2.163-.152-2.676-3.132,2.775-3.821,2.263-4.258,4.29-4.947,3.778-.562-.685-1.253-1.198-1.602.714-2.292.201,2.791-5.197,2.102-5.71-1.561.659-2.251.146,2.837-5.262,2.146-5.775-5.188,5.541-5.878,5.028c-.691-.513-2.554,1.994-3.245,1.48-.691-.513,1.216-3.079.525-3.592s-1.053-.026-1.744-.539-.685-.518-1.374-1.03c-.689-.512-1.955,1.191-2.644.679s2.466-4.763,1.774-5.277c-.69-.513-.882-.255-1.573-.768s-1.649.775-2.341.262,2.248-4.472,1.556-4.986-.178-1.205-.869-1.718-5.644,6.148-6.337,5.634.223-1.749-.471-2.265,4.268-7.194,3.574-7.71" style="fill: none; stroke: #000; stroke-linecap: round; stroke-linejoin: round; stroke-width: 40px;"/>
  <path d="M322.648,467.583c.857,0,.857,1.42,1.715,1.42s.858-2.806,1.716-2.806.858-3.373,1.717-3.373.859,6.477,1.718,6.477.859,1.282,1.717,1.282.858,2.149,1.716,2.149.858-.079,1.716-.079.858-5.362,1.715-5.362.858,2.666,1.716,2.666.858-5.496,1.716-5.496.859-2.629,1.718-2.629.859,3.553,1.718,3.553.858-1.523,1.717-1.523.858-.712,1.716-.712.858,6.836,1.716,6.836.858-.496,1.717-.496.859,2.333,1.718,2.333.859-6.415,1.718-6.415.858.499,1.717.499.858,1.5,1.717,1.5.859-2.617,1.718-2.617.859.741,1.719.741.858,5.805,1.716,5.805.857-8.604,1.714-8.604.857.719,1.713.719.857,4.277,1.713,4.277.857-4.277,1.715-4.277.859-1.514,1.717-1.514.86,4.885,1.719,4.885.858,1.033,1.717,1.033.858,1.87,1.716,1.87.858-5.934,1.716-5.934.86,1.971,1.719,1.971.859-2.976,1.719-2.976.859,7.962,1.717,7.962.859-.54,1.718-.54.86-4.188,1.72-4.188.859,1.517,1.719,1.517.86-2.875,1.721-2.875.86,7.018,1.72,7.018.861-8.227,1.721-8.227.86,2.82,1.72,2.82.858-1.466,1.716-1.466.861-2.416,1.722-2.416.859,1.628,1.719,1.628.861,5.306,1.721,5.306.862,2.907,1.723,2.907.86-10.065,1.721-10.065.862,5.036,1.725,5.036.864,3.137,1.727,3.137.864.339,1.727.339" style="fill: none; stroke: #000; stroke-linecap: round; stroke-linejoin: round; stroke-width: 40px;"/>
</svg>