<?xml version="1.0" encoding="UTF-8"?>
<svg id="Title" xmlns="http://www.w3.org/2000/svg" width="700" height="700" viewBox="0 0 700 700">
  <path d="M250.54,204.645c.457-.724,6.044,3.313,6.676,2.395.27-.392-6.239-5.658-5.855-6.194.301-.42,2.205.202,2.576-.298.318-.429,4.804,2.237,5.173,1.754.329-.431-5.797-5.906-5.428-6.377.338-.431,3.451,1.26,3.823.798.345-.43-1.342-2.584-.968-3.038.352-.428,6.461,3.915,6.839,3.468.359-.425-3.446-4.416-3.064-4.858.365-.422,3.655,1.689,4.041,1.252.37-.419-.096-1.586.293-2.018.376-.416,3.442,1.645,3.836,1.218.381-.413-4.289-5.545-3.892-5.966.386-.409,7.13,5.261,7.532,4.844.391-.406-5.256-6.684-4.85-7.096.396-.402,5.899,4.295,6.309,3.888.401-.398-4.662-6.357-4.247-6.759.406-.394-.293-2.007.125-2.404.41-.39,1.312-.333,1.735-.726.415-.385,7.382,6.364,7.808,5.976.419-.381-3.558-5.621-3.127-6.003.424-.377-1.478-3.451-1.044-3.829.428-.372,6.24,5.508,6.678,5.135.432-.367-4.036-6.572-3.594-6.939.436-.362-.183-2.1.263-2.462.44-.357,6.417,6.162,6.867,5.805.445-.353-3.12-5.829-2.666-6.181.449-.348,3.459,2.626,3.917,2.28.453-.342,2.789,1.882,3.251,1.541.457-.337,1.536.268,2.002-.067.462-.332-1.591-4.146-1.121-4.476.466-.326-1.872-4.742-1.398-5.066.47-.321,4.696,4.911,5.174,4.593.474-.315,2.026,1.09,2.508.778.478-.31-3.385-7.401-2.899-7.707.482-.304,4.316,4.78,4.806,4.48.486-.298.671-1.03,1.164-1.324.49-.291-.329-2.787.168-3.075.493-.285,3.24,3.439,3.741,3.159.497-.279,1.009-.411,1.514-.686.501-.272-2.26-6.607-1.752-6.875.504-.266,1.452.267,1.964.006.508-.259,2.086,1.606,2.601,1.352.512-.252,1.121-.272,1.639-.519.515-.245.734-1.097,1.255-1.337.518-.238,1.838,1.348,2.363,1.115.521-.231.361-1.973.889-2.199.523-.223-.815-4.953-.285-5.171.527-.216,2.078,2.012,2.611,1.802.53-.209.31-2.46.846-2.663.533-.201,2.595,3.676,3.134,3.481.536-.194.949-.709,1.491-.896.539-.186-.645-5.582-.1-5.762.541-.178,1.65,1.206,2.197,1.035.544-.17,2.712,4.941,3.261,4.778.547-.163,1.524,1.318,2.076,1.162.549-.155-1.026-8.086-.472-8.234.551-.147,2.545,5.217,3.102,5.078.554-.138.655-2.116,1.214-2.247.556-.13.823-1.613,1.384-1.735.558-.122,1.244.247,1.807.133.559-.114.353-4.421.918-4.527.561-.105,1.607,2.107,2.173,2.01.562-.097,2.02,5.192,2.587,5.103.564-.088,1.24.845,1.808.765.564-.08.483-4.885,1.052-4.957.566-.072.927-2.189,1.497-2.253.567-.063,1.207.07,1.779.014.568-.055,1.464,3.294,2.037,3.248.569-.046.882-3.955,1.455-3.993.57-.038,1.463,5.056,2.037,5.027.57-.029,1.108-.448,1.682-.469.57-.021,1.023-4.715,1.597-4.727.571-.013,1.244,6.066,1.819,6.061.571-.004,1.139-4.291,1.715-4.287.57.004,1.103,3.178,1.677,3.19s1.236-3.037,1.812-3.016c.571.02,1.293-2.406,1.868-2.378s1.149.683,1.717.717c.572.034,1.276-1.288,1.843-1.249.572.04,1.07,1.615,1.638,1.66.574.046,1.173.182,1.742.234.573.052.953,2.334,1.521,2.392.572.058.411,6.737.978,6.801.572.064,2.395-10.537,2.961-10.467.571.07.969,1.831,1.535,1.907.57.076.813,2.66,1.378,2.742.569.082,1.454-1.802,2.017-1.714.568.089,1.563-2.192,2.125-2.098.567.095-.277,8.43.284,8.53.566.101,1.336-1.058,1.896-.952.565.107,1.723-2.844,2.282-2.732.563.113.299,4.187.857,4.306.562.119,1.212-.293,1.768-.169.561.126,2.49-5.658,3.044-5.528.559.132,1.197.125,1.75.262.558.138,1.007.868,1.559,1.011.556.144-1.1,8.575-.551,8.724.554.151,3.718-9.108,4.266-8.953.552.157,1.21.141,1.756.303.55.163.171,3.524.715,3.692.549.169-1.051,7.084-.509,7.258.547.175,2.381-3.713,2.921-3.533.544.182,2.178-2.828,2.716-2.642.542.188-.506,4.873.029,5.065.54.194,1.013.477,1.546.675.538.2,3.523-6.042,4.053-5.837.535.206-1.786,7.703-1.258,7.914.533.212,2.366-2.844,2.891-2.628.531.219.92.759,1.443.982.528.225,2.224-2.228,2.744-2,.525.231,2.369-2.385,2.886-2.15.523.237-2.859,8.979-2.344,9.22.52.243.469,1.566.98,1.812.517.249,4.355-6.339,4.864-6.087.514.255-2.808,8.093-2.302,8.351.511.261,1.364-.279,1.866-.016.509.267,1.526-.536,2.025-.267.506.273,1.074.336,1.57.612.502.279,2.554-2.251,3.047-1.97.499.285-1.335,4.541-.845,4.827.496.29,4.92-6.072,5.407-5.779.493.296.318,1.729.801,2.027.49.302-2.844,6.666-2.365,6.969.486.308,1.942-1.006,2.417-.697.483.314.958.55,1.43.865.479.319,2.717-2.021,3.185-1.701.476.325,4.351-4.218,4.815-3.893.472.331,1.185.429,1.644.759.468.337-4.285,7.869-3.83,8.205.464.342,4.109-3.6,4.56-3.26.46.347-3.774,6.796-3.327,7.142.456.353,4.34-3.733,4.782-3.383.453.359-1.182,3.278-.745,3.633.449.365,5.557-4.936,5.99-4.576.445.371-3.896,6.414-3.468,6.779.441.376,3.104-1.86,3.527-1.489.437.382.096,1.621.514,1.996.433.388-2.043,3.903-1.631,4.283.428.394,1.383.117,1.79.501.424.4,6.352-4.977,6.753-4.589.419.407-2.517,4.232-2.124,4.623.416.414,5.204-3.489,5.591-3.092.412.422-3.787,5.293-3.408,5.693.41.432,5.117-3.156,5.489-2.752.406.441,1.735.114,2.096.518.404.453-2.51,3.845-2.163,4.248.405.47,3.517-1.34,3.845-.944.421.508-3.115,4.171-2.821,4.543.688.871,1.254,4.118,1.254,4.118" style="fill: none; stroke: #000; stroke-linecap: round; stroke-linejoin: round; stroke-width: 40px;"/>
  <path d="M192.144,157.659c.478-.708-3.798-3.494-3.145-4.402.278-.386,10.093,6.071,10.488,5.539.307-.414.718-.737,1.095-1.234.322-.425-7.207-6.906-6.834-7.387.332-.428-.585-1.927-.214-2.397.338-.428,9.331,6.008,9.701,5.547.344-.428-7.246-7.311-6.874-7.766.35-.428,3.072,1.042,3.446.591.355-.427-.315-1.757.061-2.204.359-.426,2.074.261,2.454-.182.364-.424,1.412-.283,1.794-.723.368-.423-2.094-3.362-1.709-3.798.372-.421,6.453,4.216,6.84,3.784.375-.419-3.064-4.282-2.674-4.712.379-.417-2.22-3.605-1.828-4.031.382-.415,9.062,6.855,9.457,6.432.385-.412-1.901-3.314-1.504-3.733.388-.41-4.52-5.899-4.12-6.315.391-.408,8.566,6.699,8.969,6.286.394-.405-4.604-6.092-4.199-6.502.397-.403.807-.824,1.215-1.231.4-.4,2.952,1.351,3.362.946.403-.398-2.731-4.433-2.318-4.834.406-.395,5.674,4.227,6.089,3.828.409-.392,1.325-.23,1.743-.626.412-.39-3.881-5.792-3.46-6.185.415-.387.556-1.113.979-1.503.418-.384,1.768.212,2.193-.174.42-.382,3.388,2.049,3.816,1.665.423-.379.689-.929,1.119-1.309.426-.376,2.433,1.069,2.866.691.429-.373-3.347-5.612-2.911-5.986.431-.37,2.195.795,2.633.424.434-.367,2.405,1.091,2.846.724.437-.364.495-1.178.939-1.542.439-.361-1.774-3.991-1.328-4.352.442-.358,4.061,3.218,4.51,2.86.444-.355,3.136,2.159,3.587,1.805.447-.352.66-.947,1.114-1.299.45-.349-3.693-6.657-3.238-7.005.452-.345,5.614,5.535,6.072,5.191.455-.342-1.819-4.309-1.359-4.65.457-.339,2.529,1.54,2.992,1.203.459-.334.691-.945,1.155-1.278.461-.331,2.325,1.359,2.792,1.029.464-.328-3.731-7.289-3.261-7.616.467-.324,2.094,1.011,2.566.688.469-.321,2.461,1.611,2.936,1.292.472-.317-2.906-6.431-2.429-6.746.474-.314,6.611,8.01,7.09,7.698.477-.31-.447-2.736.035-3.044.479-.306,2.261,1.502,2.745,1.198.482-.303-1.039-3.774-.552-4.074s2.275,1.582,2.764,1.286,1.627.572,2.118.279-3.796-8.678-3.302-8.966,1.014-.588,1.511-.872,1.557.378,2.056.098,5.09,6.831,5.591,6.555,1.082-.297,1.585-.569-1.287-4.766-.781-5.034,2.196,1.781,2.705,1.518.241-1.977.752-2.235-1.933-6.424-1.42-6.678,2.886,3.243,3.401,2.993-.152-2.992.365-3.237,1.468.387,1.988.146,3.528,4.979,4.05,4.742-1.617-6.396-1.093-6.628,1.963,1.61,2.489,1.383,3.084,4.381,3.612,4.16,1.407.541,1.937.324-2.601-9.458-2.069-9.67,2.803,3.968,3.337,3.761-.999-5.859-.463-6.061,3.342,5.662,3.88,5.465c.535-.196,1.657,1.297,2.195,1.106.537-.191-.557-5.01-.016-5.197s2.982,5.269,3.524,5.088.99-.509,1.534-.685.449-2.247.995-2.418.267-2.983.815-3.148,1.222.092,1.771-.068.261-3.293.812-3.448,1.122-.346,1.674-.495,1.182-.119,1.736-.263,2.754,6.194,3.309,6.056.628-2.131,1.185-2.264-.192-5.893.367-6.021,3.145,8.877,3.704,8.755.028-5.234.589-5.35.665-2.531,1.227-2.642,1.92,3.951,2.484,3.846,1.522,2.177,2.086,2.078.484-3.803,1.05-3.897.791-2.308,1.358-2.396,1.533,2.526,2.101,2.444c.564-.081.552-4.373,1.12-4.449s1.014-1.347,1.582-1.417,1.723,4.704,2.292,4.64.72-4.095,1.29-4.153,1.77,6.4,2.341,6.347.853-3.176,1.424-3.223.894-3.489,1.467-3.53,1.188.162,1.761.127c.569-.035,1.593,8.279,2.165,8.25s.642-11.019,1.215-11.042,1.418,7.206,1.992,7.188,1.142.763,1.716.752c.571-.011,1.131,1.448,1.705,1.442s1.104-.016,1.679-.015,1.159-5.124,1.734-5.118,1.181-1.642,1.753-1.633.994,7.598,1.565,7.611,1.303-6.504,1.875-6.488,1.271-3.309,1.842-3.29.968,5.248,1.539,5.271,1.036,2.43,1.607,2.456,1.487-6.792,2.058-6.762.59,10.085,1.161,10.118,1.149-.529,1.719-.492,1.711-8.452,2.282-8.412c.574.04,1.132.565,1.703.609s.44,8.889,1.011,8.936,1.121-.026,1.692.025,1.961-8.88,2.531-8.825.725,4.47,1.295,4.528,1.146.03,1.716.091,1.754-5.311,2.323-5.246,1.305-.998,1.874-.929.382,6.43.95,6.502.86,2.219,1.428,2.295,2.171-7.399,2.739-7.32.358,5.727.925,5.809,1.646-3.219,2.213-3.133-.177,8.554.389,8.644,2.482-8.21,3.047-8.117,1.371-1.095,1.935-.998-.36,8.7.204,8.801,2.188-5.68,2.751-5.576.729,2.341,1.291,2.448,1.602-2.202,2.163-2.09,1.956-3.766,2.516-3.651.003,5.697.563,5.816.974.921,1.533,1.043.882,1.288,1.44,1.414,2.523-5.825,3.08-5.696,1.116.399,1.672.532.776,1.766,1.332,1.903-.098,5.132.456,5.273,1.512-1.305,2.065-1.16,1.993-3.018,2.545-2.87.318,3.243.87,3.394c.554.152,2.604-5.006,3.154-4.851.553.156.494,2.549,1.043,2.708.552.16.389,2.796.937,2.958.551.163,2.692-4.899,3.239-4.733.55.167-1.704,9.468-1.159,9.638.548.171.459,2.257,1.004,2.43.547.174,2.896-5.301,3.439-5.124.546.178,2.369-3.47,2.911-3.289.545.182-1.798,8.915-1.257,9.099.543.185,2.187-2.885,2.726-2.697.542.189,2.144-2.625,2.682-2.433.541.193-.933,5.956-.396,6.151.54.196,4.489-8.867,5.024-8.669.538.2-2.305,9.423-1.771,9.625.537.204,2.648-3.736,3.181-3.53.535.207,2.072-2.114,2.603-1.904.534.211-.988,5.586-.459,5.799.532.214,1.87-1.573,2.397-1.356.531.218,2.48-2.956,3.006-2.736.529.222-.524,4.213.001,4.437.528.225,2.923-3.858,3.447-3.63.526.229.663,1.405,1.185,1.636.525.232-.238,3.37.282,3.605.523.236,3.056-3.908,3.574-3.67.522.239-3.541,10.365-3.025,10.607.52.243,5.282-8.533,5.797-8.288.518.246-2.106,7.045-1.593,7.293.516.25,1.894-1.303,2.406-1.052.515.253,3.958-5.364,4.467-5.109.513.257-2.342,7.203-1.834,7.462.511.26.411,1.665.917,1.928.511.265.93.65,1.436.916.509.268,3.35-3.877,3.854-3.607.507.272,2.463-2.103,2.965-1.83.506.275-3.411,8.607-2.911,8.883.504.278,2.866-2.822,3.364-2.543.502.282-1.431,4.812-.936,5.095.5.285,6.845-9.595,7.339-9.309.498.289.879.85,1.37,1.139.496.292-2.521,6.527-2.032,6.82.494.295,3.992-4.38,4.48-4.084.492.298-4.209,9.071-3.723,9.37.489.302,6.405-8.139,6.889-7.837.487.305-2.995,6.914-2.514,7.22.485.308.839.784,1.318,1.092.483.312.405,1.441.882,1.753.481.315-.28,2.448.194,2.763.479.318,1.857-.776,2.329-.458.477.321.776.845,1.245,1.166.474.324,4.919-5.133,5.386-4.809.472.328,2.568-1.628,3.033-1.301.47.331.826.876,1.289,1.206.468.334-3.9,7.396-3.44,7.729.465.337,4.423-4.122,4.88-3.786.463.34-4.08,7.425-3.625,7.764.461.344,6.065-6.189,6.518-5.847.459.347,1.074.516,1.525.861.457.35-.607,2.685-.159,3.034.455.353,3.715-2.854,4.161-2.503.453.357,1.452.081,1.896.436.451.36-.691,2.743-.249,3.101.448.363.165,1.646.603,2.006.445.366,2.621-1.33,3.057-.967.443.369-2.449,4.731-2.016,5.096.44.372,4.056-2.978,4.486-2.61.438.375.524,1.195.951,1.565.436.378.583,1.118,1.007,1.491.434.381-4.535,6.847-4.113,7.223.431.385,2.665-1.28,3.084-.901.429.388,5.118-3.9,5.534-3.519.426.391-1.901,3.779-1.488,4.163.424.394,1.727-.153,2.136.233.422.398,3.741-2.233,4.148-1.844.419.401-6.392,8.312-5.988,8.703.417.404,4.345-2.827,4.745-2.434.415.408,1.343.29,1.74.685.412.41-3.083,4.688-2.691,5.083.41.413,7.192-5.464,7.58-5.067" style="fill: none; stroke: #000; stroke-linecap: round; stroke-linejoin: round; stroke-width: 40px;"/>
  <path d="M402.718,406.702c.174-.838,1.816.944,2.416.334s3.088,1.837,3.687,1.227-4.599-5.722-3.999-6.331.565-.644,1.164-1.254-.169-1.367.431-1.978,1.661.434,2.261-.176c.6-.61,4.812,3.532,5.413,2.922s-5.035-6.148-4.437-6.756,3.383,2.126,3.984,1.516,1.971.74,2.57.131-.97-2.152-.37-2.762-.534-1.728.067-2.339,2.634,1.39,3.234.78-1.582-2.758-.981-3.37-1.67-2.846-1.069-3.458,3.784,2.52,4.384,1.909,3.34,2.081,3.941,1.469-4.013-5.154-3.41-5.768-.71,3.087-1.037,2.291c-.325-.791,3.253-2.105,2.398-2.105s-.855-1.878-1.709-1.878-.854-.254-1.709-.254-.854-1.033-1.708-1.033-.854,8.554-1.708,8.554-.854-4.661-1.708-4.661-.854,2.048-1.708,2.048-.854-2.189-1.709-2.189-.855,1.679-1.709,1.679-.855-.653-1.71-.653-.855,2.142-1.711,2.142-.856-7.914-1.712-7.914-.856,4.973-1.712,4.973-.855-3.01-1.711-3.01-.855-2.745-1.71-2.745-.855,6.641-1.71,6.641-.855,4.526-1.709,4.526-.855-2.858-1.709-2.858-.855,1.488-1.71,1.488-.855-3.062-1.711-3.062-.856-6.076-1.712-6.076-.856,10.6-1.713,10.6-.856-7.749-1.712-7.749-.856,1.95-1.711,1.95-.855-.608-1.71-.608-.855-2.383-1.71-2.383-.855,3.242-1.711,3.242c-.856,0-.856-3.027-1.711-3.027s-.856-1.286-1.713-1.286-.856,9.606-1.713,9.606-.856-3.56-1.712-3.56-.856-3.166-1.711-3.166-.856,2.442-1.711,2.442-.856-4.513-1.712-4.513-.857-2.354-1.713-2.354-.856.013-1.713.013-.856,1.882-1.712,1.882-.856,3.204-1.712,3.204-.856-3.958-1.712-3.958c-.857,0-.857.166-1.714.166s-.855,4.358-1.711,4.358-.854-5.117-1.709-5.117-.854,8.288-1.708,8.288-.854-8.44-1.708-8.44-.855,4.268-1.71,4.268c-.856,0-.856,6.162-1.712,6.162s-.857-.348-1.714-.348-.856-9.093-1.711-9.093-.855,2.404-1.71,2.404-.856.164-1.711.164-.857,2.664-1.714,2.664-.857,2.111-1.714,2.111-.856-5.927-1.712-5.927-.857,2.635-1.713,2.635-.858,5.806-1.715,5.806-.857-5.584-1.713-5.584-.858,2.484-1.715,2.484-.857.731-1.714.731-.858.738-1.716.738c-.858,0-.858.467-1.715.467s-.855-6.077-1.711-6.077-.858-.029-1.716-.029-.857.543-1.714.543-.858-3.232-1.716-3.232-.859,3.21-1.718,3.21-.858-2.163-1.715-2.163-.86-2.487-1.719-2.487-.861,9.053-1.722,9.053-3.883-5.197-4.209-4.4c-.328.805,4.415.346,5.022.968s-1.565,2.743-.957,3.365-1.496,2.675-.889,3.296,7.73-6.337,8.338-5.715-6.974,8.029-6.366,8.651.308.914.915,1.536,7.204-5.821,7.812-5.198-.287,1.491.318,2.111-5.473,6.563-4.865,7.185,6.9-5.527,7.507-4.906-3.877,5.001-3.271,5.623,5.571-4.225,6.18-3.601-1.665,2.842-1.057,3.464-2.469,3.629-1.86,4.252,6.738-5.364,7.347-4.74-1.779,2.955-1.171,3.578c.609.624,1.104.141,1.713.764s-3.707,4.844-3.096,5.469.878-1.656,1.064-.801c.183.84,6.615,1.656,6.317,2.463s-9.873-2.739-10.171-1.933,4.707,2.66,4.408,3.466,5.563,2.976,5.265,3.782-5.357-1.068-5.655-.263-1.826.239-2.124,1.044-3.926-.539-4.224.266,9.568,4.459,9.27,5.264-10.664-3.034-10.962-2.229,8.234,3.965,7.936,4.77.88,1.242.581,2.047-.025.907-.323,1.713-.989.551-1.287,1.357-3.052-.213-3.351.594,3.721,2.295,3.422,3.102-3.099-.231-3.398.575-6.764-1.589-7.062-.783,6.691,3.394,6.392,4.2-5.871-1.258-6.169-.453.543,1.117.245,1.923c-.298.806,3.563,2.236,3.265,3.042s.982,1.28.683,2.086-1.901.213-2.2,1.019-.992.55-1.291,1.357-.412.765-.711,1.571-3.775-.481-4.073.325c-.299.806,2.283,1.762,1.985,2.568-.298.806,1.358,1.42,1.06,2.225s-5.448-1.101-5.746-.295,6.976,3.501,6.677,4.307.119.962-.18,1.769-6.792-1.598-7.091-.791,2.105,1.697,1.806,2.503-5.366-1.07-5.665-.264,6.57,3.35,6.272,4.157-6.483-1.484-6.782-.677c-.299.807,5.987,3.135,5.688,3.942s-1.782.258-2.081,1.065.689,1.173.391,1.979-2.656-.066-2.954.74,3.131,2.076,2.832,2.882-4.335-.687-4.634.12,2.784,1.948,2.485,2.754-5.513-1.126-5.811-.321.594,1.135.296,1.94c-.298.805.674,1.165.376,1.97s-2.19.105-2.488.911,6.307,3.253,6.009,4.06-6.928-1.647-7.227-.84-.216.837-.514,1.644,1.813,1.588,1.514,2.394,4.32,2.517,4.022,3.323-7.28-1.778-7.579-.97-1.591.329-1.89,1.136,5.543,2.97,5.244,3.777,1.706,1.55,1.407,2.357-8.286-2.15-8.585-1.341,5.563,2.978,5.264,3.786,2.033,1.672,1.734,2.481,1.262,1.386.962,2.194-3.18-.258-3.479.551.94,1.265.641,2.072,1.084,1.319.786,2.125.928,1.264.629,2.073-6.108-1.343-6.407-.536-4.566-.771-4.866.037,1.092,1.325.792,2.135-.755.64-1.055,1.448c-.3.81,4.066,2.427,3.766,3.238s3.662,2.279,3.361,3.091-10-2.781-10.301-1.969c-.296.799-.707.647-1.003,1.446s-.442.745-.738,1.544c-.296.799,5.853,3.076,5.557,3.875s2.063,1.673,1.767,2.472-1.514.348-1.81,1.147-1.648.298-1.944,1.098-1.058.517-1.354,1.317-1.679.288-1.975,1.088-3.417-.355-3.713.445c-.297.801,4.451,2.559,4.155,3.36s.509,1.099.213,1.9,2.703,1.911,2.407,2.712-2.045.152-2.342.952.415,1.063.119,1.863-7.204-1.759-7.501-.959,2.713,1.914,2.417,2.714-4.508-.76-4.804.04,7.68,3.754,7.384,4.554-3.23-.286-3.527.515,1.637,1.517,1.34,2.319,2.252,1.745,1.955,2.546-6.168-1.374-6.465-.574,4.74,2.665,4.444,3.466,1.367,1.416,1.071,2.216-5.606-1.166-5.902-.366,2.384,1.793,2.087,2.594c-.297.801-4.844-.883-5.141-.082s-1.139.489-1.436,1.291.321,1.029.024,1.83,2.897,1.983,2.6,2.784-5.542-1.142-5.838-.342.443,1.075.147,1.876,8.274,3.976,7.977,4.777-5.442-1.104-5.739-.303,4.492,2.574,4.196,3.375-9.346-2.551-9.642-1.75c-.296.8,6.067,3.157,5.771,3.957s-3.907-.535-4.204.266-3.337-.326-3.633.474,6.163,3.192,5.867,3.991-6-1.313-6.295-.514,4.984,2.755,4.688,3.554-6.096-1.348-6.392-.548,3.861,2.341,3.564,3.142,3.322,2.142,3.025,2.944-2.251.077-2.547.877,2.763,1.933,2.467,2.733.013.915-.284,1.716-4.97-.929-5.267-.127-1.987.176-2.284.977-3.268-.299-3.565.501.768,1.196.471,1.997,8.972,4.235,8.674,5.038-8.498-2.236-8.795-1.434,5.699,3.023,5.402,3.826-1.642.304-1.939,1.106c-.297.803-.831.605-1.129,1.408s-3.956-.555-4.252.246,6.268,3.232,5.972,4.032-7.835-1.988-8.132-1.185,6.661,3.379,6.364,4.181-1.804.245-2.101,1.048-5.855-1.254-6.152-.45c-.297.803,5.139,2.816,4.842,3.619s-6.755-1.587-7.053-.782,8.299,3.99,8,4.796c-.298.806-.547-3.896-.06-3.189.484.703-3.867-1.184-3.014-1.184s.855,1.102,1.709,1.102.856-2.294,1.711-2.294.854,2.517,1.709,2.517.854,7.46,1.708,7.46.854-1.3,1.709-1.3.856.738,1.711.738.855-9.509,1.711-9.509.855,6.009,1.709,6.009.855,4.071,1.711,4.071.856-5.721,1.713-5.721.855-.872,1.711-.872.856-1.188,1.713-1.188.856,9.193,1.712,9.193.857-8.315,1.713-8.315.856,2.694,1.712,2.694.854-3.87,1.708-3.87.857,9.381,1.714,9.381.855-.294,1.711-.294.857-1.381,1.713-1.381.858-5.574,1.715-5.574.856,5.643,1.713,5.643.858-4.404,1.717-4.404.86,5.201,1.72,5.201,2.234-.3,3.055-.555-.843-5.099-.133-5.586-.176-1.775.534-2.263-.901-2.83-.192-3.318,4.942,5.667,5.652,5.179.211-1.214.921-1.703,1.951,1.315,2.662.826-1.259-3.352-.548-3.841-1.548-3.771-.838-4.26-.279-1.927.43-2.415,4.077,4.409,4.787,3.921-1.331-3.457-.621-3.945-.116-1.69.594-2.178,3.069,2.941,3.779,2.452,3.495,3.56,4.206,3.071-2.116-4.599-1.406-5.088.479-.825,1.189-1.313,3.726,3.898,4.436,3.409-.628-2.435.082-2.924-.611-2.404.096-2.891-.359-2.038.349-2.524c.708-.487,3.244,3.201,3.952,2.714s-3.32-6.346-2.611-6.834c.71-.488.726-.465,1.436-.953s3.587,3.693,4.299,3.203,3.611,3.729,4.321,3.241.612-.629,1.322-1.117-4.854-8.578-4.145-9.066,4.665,5.265,5.374,4.777-1.209-3.279-.499-3.767-1.077-3.088-.366-3.577,4.764,5.404,5.476,4.914.113-1.358.823-1.847.357-1.003,1.067-1.491-2.322-4.898-1.611-5.386,3.644,3.775,4.356,3.286-.045-1.589.666-2.079,2.788,2.532,3.499,2.043-.958-2.917-.247-3.407-3.053-5.966-2.341-6.456c.711-.489,1.22.25,1.931-.239s4.941,5.66,5.653,5.17.143-1.317.854-1.807-1.472-3.666-.759-4.156.647-.581,1.357-1.069.114-1.356.825-1.844c.713-.49,3.697,3.85,4.41,3.36s3.088,2.966,3.799,2.476-4.228-7.674-3.515-8.164,3.583,3.683,4.297,3.192-2.99-5.875-2.278-6.364,1.287.342,2.001-.149,5.809,6.916,6.525,6.425c.715-.492-2.794-8.25-1.927-8.279.849-.028,3.88-2.028,4.604-1.584s-2.936,6.408-2.212,6.852.442.904,1.165,1.348.268,1.188.992,1.632.047,1.548.771,1.992,1.611-1,2.336-.555,4.713-6.054,5.438-5.609-4.877,9.574-4.152,10.019,5.028-6.57,5.753-6.125-.349,2.193.375,2.638.388.993,1.112,1.437,1.106-.178,1.831.266-2.045,4.959-1.321,5.404c.725.445,2.102-1.8,2.827-1.355s3.371-3.867,4.096-3.422c.725.445,1.702-1.148,2.427-.704s.505.803,1.229,1.247-3.351,7.087-2.626,7.531,3.586-4.218,4.31-3.773-1.905,4.724-1.183,5.167-.74,2.827-.018,3.27,5.679-7.635,6.402-7.192-1.643,4.3-.919,4.744,2.273-2.08,2.998-1.635-3.285,6.983-2.559,7.428c.725.445,4.916-6.386,5.641-5.941s-1.129,3.464-.405,3.908,1.788-1.291,2.512-.847c.724.444-2.714,6.046-1.99,6.49s3.194-3.581,3.918-3.137-.495,2.433.231,2.878,2.199-1.956,2.925-1.51-.189,1.935.536,2.38.242,1.231.966,1.676c.725.445.273,1.181.998,1.626s1.937-1.528,2.663-1.082-1.256,3.675-.53,4.121,3.601-4.242,4.326-3.797,3.139-3.488,3.865-3.042-.667,2.717.059,3.163-3.454,7.258-2.729,7.704,3.551-4.157,4.277-3.711,3.363-3.852,4.089-3.406-.433,2.336.294,2.782-1.859,4.656-1.134,5.1-.644,2.676.081,3.121,3.368-3.858,4.096-3.412,1.97-1.582,2.696-1.136,2.408-2.293,3.135-1.847.773.372,1.501.819-5.029,9.827-4.302,10.273,4.534-5.754,5.262-5.307-.724,2.818.005,3.265,2.443-5.256,3.268-5.026c.838.235-.659.768.211.768s.869,1.915,1.738,1.915.869,1.492,1.737,1.492.869,5.84,1.738,5.84.87-5.661,1.741-5.661.87,4.19,1.74,4.19.869-2.733,1.739-2.733.87,4.11,1.74,4.11.871-7.454,1.742-7.454.87.819,1.74.819.871,2.394,1.742,2.394.871-3.369,1.741-3.369.871,7.887,1.743,7.887.871-1.9,1.742-1.9.869,2.495,1.738,2.495.872-.218,1.743-.218.87-3.71,1.74-3.71.871.708,1.743.708.872-3.367,1.745-3.367.871,2.996,1.742,2.996.873,3.604,1.746,3.604.875-6.863,1.749-6.863-.295,1.141.213.429c.498-.699,2.572-.21,2.271-1.013s-7.001,1.714-7.302.911,6.009-3.175,5.707-3.979,1.709-1.559,1.407-2.362-8.455,2.261-8.757,1.457,7.104-3.586,6.803-4.389-2.302-.051-2.604-.854,3.33-2.168,3.028-2.97-2.444.002-2.746-.8-2.85.155-3.152-.648,5.836-3.109,5.535-3.912-4.415.743-4.717-.059-1.516-.346-1.817-1.149.763-1.203.461-2.005-2.727.109-3.029-.694,4.714-2.688,4.412-3.49-7.187,1.785-7.489.982,1.134-1.343.832-2.146c-.302-.803,7.14-3.6,6.839-4.403s-11.212,3.296-11.514,2.493,9.476-4.478,9.174-5.282c-.302-.803-5.03.973-5.332.17s5.465-2.97,5.163-3.773c-.302-.803-.211-.837-.513-1.639s-10.918,3.187-11.22,2.385,6.126-3.217,5.825-4.019-1.641-.298-1.943-1.1-.008-.912-.309-1.713-1.295-.428-1.596-1.229c-.301-.801-4.237.678-4.538-.123s5.734-3.069,5.433-3.87,2.459-1.838,2.159-2.639-4.656.836-4.957.035,1.829-1.601,1.528-2.402c-.301-.801-4.422.748-4.723-.053s3.444-2.208,3.143-3.009-6.856,1.662-7.156.862,9.378-4.438,9.077-5.239-10.382,2.987-10.683,2.186,5.81-3.098,5.509-3.899-4.47.765-4.771-.036,8.076-3.95,7.775-4.752-6.438,1.504-6.739.702,5.672-3.047,5.371-3.85-3.087.244-3.389-.559-3.203.287-3.505-.516.437-1.081.135-1.885-5.776,1.253-6.078.448,10.481-4.856,10.179-5.66-1.521-.345-1.823-1.149,1.038-1.307.737-2.11-6.996,1.713-7.297.91-.123-.87-.424-1.672,2.404-1.819,2.103-2.621,2.889-2.001,2.588-2.803-5.191,1.035-5.492.234-2.976.203-3.277-.599-1.808-.236-2.109-1.038,2.955-2.026,2.654-2.828-2.966.199-3.268-.603,3.094-2.078,2.793-2.881-3.814.517-4.116-.285,5.376-2.937,5.075-3.74-.366-.779-.668-1.583-.21-.839-.512-1.643c-.302-.804-3.675.463-3.977-.342s-4.239.675-4.542-.129,8.442-4.09,8.14-4.894-6.283,1.444-6.585.641,2.393-1.816,2.092-2.619-2.997.21-3.299-.593,5.933-3.146,5.632-3.949-5.864,1.288-6.166.485-1.218-.458-1.52-1.261,5.838-3.11,5.537-3.913-2.463.009-2.765-.794c-.302-.804,4.149-2.476,3.847-3.28s-2.085-.134-2.387-.938-8.727,2.361-9.03,1.557,5.747-3.078,5.445-3.882-6.977,1.704-7.28.9,8.067-3.949,7.765-4.752,1.214-1.373.912-2.177-3.438.375-3.74-.428-2.932.185-3.234-.619-4,.586-4.302-.218,8.018-3.931,7.716-4.734-7.586,1.933-7.888,1.128,2.268-1.771,1.966-2.576-2.51.025-2.813-.779-.145-.863-.447-1.668,7.912-3.891,7.61-4.695-8.015,2.094-8.317,1.291.798-1.217.496-2.021c-.302-.804,4.762-2.708,4.46-3.512-.302-.805-4.849.903-5.151.099s3.87-2.373,3.567-3.178-7.921,2.059-8.224,1.254,3.851-2.365,3.549-3.169-3.424.369-3.726-.436,6.441-3.339,6.139-4.143,1.213-1.375.911-2.18-6.551,1.543-6.853.738,6.915-3.517,6.612-4.321-10.125,2.887-10.427,2.082c-.302-.804,9.078-4.329,8.776-5.133s-4.627.819-4.929.014.545-1.123.243-1.927c-.302-.803,2.826-1.979,2.525-2.782s-7.149,1.77-7.45.967,5.51-2.987,5.208-3.79-3.491.395-3.793-.409,1.88-1.625,1.578-2.43-7.171,1.775-7.473.97,5.66-3.045,5.357-3.849-.306-.803-.608-1.607-1.922-.195-2.225-1-5.668,1.211-5.971.405,6.382-3.317,6.079-4.123c-.302-.805-6.286,1.444-6.588.639s7.637-3.789,7.334-4.594c-.303-.806-8.826,2.397-9.129,1.59s9.87-4.628,9.568-5.434c-.303-.806-7.512,1.903-7.815,1.096s-.734-.644-1.037-1.449,1.844-1.613,1.541-2.42-4.609.814-4.912.01c-.302-.804.301-1.031,0-1.835s7.942-3.906,7.639-4.713c-.303-.806.464-1.094.161-1.899-.303-.807-3.924.554-4.227-.253s-.332-.797-.635-1.605.961-1.281.657-2.088-5.78,1.249-6.083.441-1.051-.416-1.377-1.217c-.293-.72,3.399-2.189,3.576-3.036Z" style="fill: none; stroke: #000; stroke-linecap: round; stroke-linejoin: round; stroke-width: 40px;"/>
  <path d="M368.46,370.649c0-.868-8.274-.868-8.274-1.737s1.143-.869,1.143-1.737,8.562-.869,8.562-1.738-2.016-.871-2.016-1.741-6.908-.871-6.908-1.743c0-.87,5.991-.87,5.991-1.74,0-.87,3.923-.87,3.923-1.739s-2.071-.87-2.071-1.74-7.505-.871-7.505-1.743c0-.871,6.583-.871,6.583-1.743,0-.871-7.148-.871-7.148-1.741s-.706-.871-.706-1.742,3.471-.872,3.471-1.744,5.709-.871,5.709-1.742,2.449-.872,2.449-1.744-11.455-.872-11.455-1.743,4.86-.873,4.86-1.745,2.937-.872,2.937-1.744-7.521-.87-7.521-1.74,8.348-.873,8.348-1.746-.868-.871-.868-1.743.313-.872.313-1.745-6.185-.873-6.185-1.747,3.18-.872,3.18-1.744,6.289-.874,6.289-1.749c0-.876-4.22-.876-4.22-1.751s.199-.876.199-1.751" style="fill: none; stroke: #000; stroke-linecap: round; stroke-linejoin: round; stroke-width: 40px;"/>
  <path d="M418.98,279.787c0,.578-7.404,1.012-7.428,1.585-.025.577,1.838,1.172,1.789,1.744-.05.575,6.093,1.892,6.019,2.461-.074.572-8.024-.016-8.123.549-.099.568,2.112,1.504,1.989,2.065s3.704,2.139,3.557,2.694-2.593.548-2.764,1.096,3.224,2.425,3.029,2.966-.037,1.447-.254,1.979-8.333-2.305-8.572-1.782,2.93,2.627,2.669,3.14-2.318.038-2.6.54-1.897.106-2.199.596-1.315.347-1.636.825,2.77,3.253,2.429,3.717,2.945,3.81,2.586,4.26-7.433-4.637-7.808-4.2,1.638,2.879,1.246,3.301c-.391.421-.99.587-1.398.994s-3.711-2.381-4.134-1.989,2.257,4.074,1.821,4.45.406,2.292-.044,2.651-1.995-.699-2.458-.356,2.694,5.9,2.219,6.227-5.422-6.011-5.909-5.701-1.896-1.125-2.393-.832-.534,1.106-1.041,1.381,3.243,8.802,2.726,9.059c-.514.256-1.766-.639-2.29-.399-.522.238-2.081-1.637-2.614-1.416-.53.22-3.538-5.957-4.078-5.754-.537.202,1.53,7.592.983,7.777-.543.184-3.486-7.273-4.039-7.106-.549.165.302,4.934-.256,5.082-.554.147-1.845-2.958-2.407-2.828-.559.129.812,9.478.245,9.589-.563.11-2.816-9.045-3.386-8.953-.566.092-.244,6.148-.816,6.221-.569.073-1.228.003-1.803.059-.571.055-1.1,1.886-1.676,1.922-.572.036-1.573-9.408-2.151-9.39-.573.018-.973,5.601-1.551,5.601s-.973-5.726-1.546-5.744c-.578-.018-1.463,7.695-2.036,7.659-.577-.037-.654-5.945-1.225-6-.575-.055-1.189,1.179-1.758,1.105-.573-.074-.672-2.543-1.238-2.635-.57-.092-2.486,7.547-3.049,7.437-.567-.111-1.545,1.149-2.104,1.02-.563-.129-.151-4.482-.706-4.63-.558-.148-.089-3.698-.639-3.864-.553-.166-1.362.8-1.905.616-.547-.185-2.782,4.35-3.319,4.148-.54-.203,1.728-7.397,1.198-7.617-.533-.221-3.547,5.404-4.069,5.165-.525-.239-1.171-.348-1.684-.604-.516-.257,2.517-7.182,2.013-7.455s-1.62.886-2.115.595-.878-.484-1.362-.792-4.349,4.562-4.822,4.237.678-2.963.216-3.305-2.369,1.172-2.818.814.56-2.498.125-2.872-.532-1.075-.953-1.465.514-2.076.108-2.482-6.991,5.081-7.382,4.66-.372-1.47-.747-1.906,6.003-6.47,5.645-6.92-7.56,4.309-7.9,3.845,5.629-5.393,5.308-5.87-3.173.754-3.475.265-2.81.264-3.091-.238.324-1.567.063-2.08-2.967.029-3.207-.494,3.648-2.912,3.431-3.445,4.366-2.768,4.171-3.31-5.584.783-5.755.233,2.664-1.894,2.517-2.451-.653-.896-.776-1.459-1.103-.856-1.202-1.424,1.407-1.263,1.333-1.835c-.074-.568-6.556-.441-6.606-1.016-.049-.571-.555-1.258-.58-1.836-.025-.573,1.576-1.3,1.576-1.878s7.582-.912,7.606-1.485c.025-.577-1.02-1.001-.971-1.572.05-.575,1.25-.8,1.324-1.369.074-.572-6.551-2.058-6.452-2.624.099-.568,2.187-.745,2.31-1.306s-.489-1.277-.342-1.832,2.038-.561,2.209-1.109-6.839-3.586-6.645-4.127,4.085.168,4.302-.365-1.894-2.21-1.655-2.733,3.189.132,3.45-.381.516-1.093.797-1.595-1.381-2.269-1.079-2.759,3.536.815,3.858.337,3.64,1.227,3.981.762,2.374.588,2.733.137-5.331-5.812-4.956-6.248,2.926,1.037,3.318.615,3.559,1.977,3.967,1.57-.447-1.916-.024-2.308-3.307-5.437-2.87-5.812,5.446,4.787,5.896,4.427.955-.404,1.418-.747-3.368-6.665-2.893-6.991,5.793,6.754,6.279,6.444-1.637-4.659-1.14-4.952-1.679-5.448-1.172-5.722,2.503,2.083,3.019,1.826c.514-.256,1.178-.327,1.702-.567.522-.238,1.011-.692,1.544-.913.53-.22.354-2.486.894-2.689.537-.202,1.564.631,2.11.446.543-.184,3.381,6.92,3.933,6.753.549-.165-.937-7.379-.379-7.527.554-.147,1.941,2.948,2.504,2.818.559-.129,1.675,2.728,2.241,2.617.563-.11.482-3.409,1.052-3.502.566-.092,1.24.8,1.813.726.569-.073,1.497,4.115,2.072,4.059.571-.055.912-.782,1.488-.819.572-.036.849-4.245,1.427-4.264.573-.018,1.117,1.419,1.696,1.419s1.214-4.347,1.787-4.329c.578.018,1.063,2.41,1.636,2.446.577.037,1.174-.316,1.745-.262.575.055,1.003,1.229,1.571,1.303.573.074.857,1.68,1.423,1.772.57.092,1.763-3.469,2.326-3.359.567.111,2.066-3.692,2.625-3.564.563.129-.424,6.74.131,6.887.558.148-.062,4.014.487,4.179.553.166,2.615-4.71,3.158-4.527.547.185.136,2.888.673,3.09.54.203,4.302-7.612,4.832-7.392.533.221-2.138,7.936-1.616,8.175.525.239,4.313-6.261,4.827-6.005.516.257.232,2.359.736,2.632s-1.7,5.376-1.205,5.667.069,1.878.553,2.186,5.274-5.89,5.747-5.565-3.935,7.47-3.474,7.812.91.441,1.359.799,6.355-5.864,6.79-5.489,1.42.389,1.841.78.248,1.636.654,2.042,1.899.004,2.29.425-7.139,7.914-6.764,8.35.692.651,1.049,1.101,6.615-3.678,6.954-3.214-.78,2.015-.459,2.491-1.245,2.135-.944,2.624,6.738-2.552,7.02-2.051-.526,1.798-.265,2.311,1.391.806,1.63,1.329-9.394,5.286-9.177,5.819,3.395-.266,3.589.276,4.788-.408,4.959.141-3.553,2.216-3.405,2.773-2.718,1.679-2.595,2.242,6.52-.196,6.619.372-6.069,2.002-5.995,2.575c.074.568.382.901.431,1.476.049.571,1.093.897,1.118,1.474.025.573,7.86.988,7.86,1.566Z" style="fill: none; stroke: #000; stroke-linecap: round; stroke-linejoin: round; stroke-width: 40px;"/>
  <path d="M379.153,571.919c.716-.475-2.395-5.159-1.679-5.634s2.612,2.38,3.328,1.905-.543-2.37.172-2.845.349-1.026,1.064-1.501,2.19,1.747,2.905,1.272-1.771-4.219-1.056-4.694-1.026-3.091-.314-3.564,6.114,7.661,6.827,7.187c.713-.474-1.546-3.876-.833-4.349s3.318,3.448,4.032,2.974-1.696-4.106-.981-4.581-1.956-4.5-1.24-4.975,5.915,7.355,6.63,6.88-.243-1.915.472-2.39-1.511-3.825-.797-4.299-.327-2.043.387-2.517,3.28,3.389,3.995,2.915c.716-.475-1.698-4.11-.982-4.585s-.89-2.895-.173-3.371c.715-.475,3.639,3.928,4.355,3.453.715-.475,1.318.433,2.032-.042s-2.419-5.196-1.704-5.671,1.114.123,1.831-.352,2.454,2.141,3.171,1.666-.859-2.846-.143-3.321-.218-1.882.498-2.358,1.443.618,2.16.141,3.387,3.547,4.104,3.071-2.572-5.43-1.855-5.906c.717-.476.857-.264,1.574-.74s.132-1.358.849-1.834,5.016,6.001,5.731,5.526-3.692-7.113-2.977-7.588,5.896,7.321,6.613,6.844c.717-.476.831-.304,1.547-.78s-.656-2.545.061-3.021-1.267-3.466-.549-3.943.766-.403,1.483-.88-1.058-3.153-.339-3.63,3.624,3.895,4.344,3.417.16-1.321.88-1.8" style="fill: none; stroke: #000; stroke-linecap: round; stroke-linejoin: round; stroke-width: 40px;"/>
  <path d="M362.668,572.972c-.689-.512.18-1.682-.509-2.194s-2.297,1.652-2.986,1.141,3.014-5.495,2.326-6.006-5.046,5.353-5.734,4.841,2.073-4.228,1.384-4.74-2.21,1.535-2.899,1.023,1.145-2.981.456-3.494-1.833,1.026-2.522.514,2.063-4.216,1.374-4.728c-.689-.512-2.932,2.507-3.62,1.995s-4.053,4.02-4.739,3.509,5.678-9.075,4.991-9.586-6.109,6.788-6.795,6.278c-.687-.51,3.712-6.43,3.025-6.94s-4.248,4.282-4.935,3.771-.849-.294-1.537-.805,2.852-5.278,2.163-5.79-2.568,2.015-3.259,1.502-3.808,3.685-4.497,3.173,3.889-6.672,3.201-7.184-4.499,4.618-5.187,4.107,1.822-3.889,1.134-4.401,2.286-4.515,1.597-5.026-3.01,2.611-3.7,2.098-3.543,3.326-4.233,2.813-.542-.71-1.232-1.222,2.263-4.485,1.574-4.997-4.815,5.041-5.505,4.529,5.376-8.677,4.685-9.19-5.039,5.339-5.729,4.827,1.409-3.337.72-3.85-2.432,1.832-3.123,1.319,1.149-2.989.458-3.502,1.362-3.275.672-3.787-4.889,5.136-5.58,4.622,2.42-4.7,1.73-5.213c-.691-.513-1.463.526-2.154.012s-2.773,2.292-3.462,1.78-3.455,3.21-4.144,2.698,2.389-4.659,1.697-5.173.613-2.267-.078-2.78-4.992,5.274-5.684,4.761,5.351-8.647,4.658-9.161-1.712.861-2.404.347-1.771.936-2.463.421-3.949,3.865-4.643,3.349,4.138-7.019,3.444-7.534" style="fill: none; stroke: #000; stroke-linecap: round; stroke-linejoin: round; stroke-width: 40px;"/>
  <path d="M322.648,468.508c.857,0,.857,3.522,1.715,3.522s.858-4.944,1.716-4.944.858.767,1.717.767.859-3.283,1.718-3.283.859-2.597,1.717-2.597.858,10.401,1.716,10.401.858-10.73,1.716-10.73.858,3.16,1.715,3.16.858,1.517,1.716,1.517.858-3.645,1.716-3.645.859,4.502,1.718,4.502.859,1.81,1.718,1.81.858.146,1.717.146.858,1.078,1.716,1.078.858,2.117,1.716,2.117.858-7.346,1.717-7.346.859-2.897,1.718-2.897.859-1.042,1.718-1.042.858,6.018,1.717,6.018.858-3.351,1.717-3.351.859,9.31,1.718,9.31.859-7.738,1.719-7.738.858,1.667,1.716,1.667.857,4.413,1.714,4.413.857-7.776,1.713-7.776.857,3.762,1.713,3.762.857,5.003,1.715,5.003.859-3.349,1.717-3.349.86-1.38,1.719-1.38.858,3.823,1.717,3.823.858-3.554,1.716-3.554.858-4.209,1.716-4.209.86,8.189,1.719,8.189.859-4.529,1.719-4.529.859-2.505,1.717-2.505.859.342,1.718.342.86,5.512,1.72,5.512.859.914,1.719.914.86-8.575,1.721-8.575.86,1.469,1.72,1.469.861,7.856,1.721,7.856.86-6.958,1.72-6.958.858,1.57,1.716,1.57.861,5.29,1.722,5.29.859-3.681,1.719-3.681.861-4.6,1.721-4.6.862,4.706,1.723,4.706.86-3.612,1.721-3.612.862,3.826,1.725,3.826.864-1.886,1.727-1.886.864,5.026,1.727,5.026" style="fill: none; stroke: #000; stroke-linecap: round; stroke-linejoin: round; stroke-width: 40px;"/>
</svg>