<?xml version="1.0" encoding="UTF-8"?>
<svg id="Sticker" xmlns="http://www.w3.org/2000/svg" width="1000" height="1000" viewBox="0 0 1000 1000">
  <polyline points="171.114 804.518 176.644 801.207 171.464 797.147 180.103 794.345 174.225 790.119 180.558 787.219 175.546 782.99 174.757 779.237 176.923 775.883 176.212 772.13 178.749 768.859 181.891 765.711 182.895 762.241 177.469 757.667 184.457 755.233 181.281 751.001 185.596 748.149 182.337 743.854 184.34 740.575 181.438 736.293 183.098 732.941 187.658 730.236 188.686 726.779 192.759 724.027 193.526 720.531 193.804 716.918 194.155 713.316 187.941 708.051 193.113 705.646 195.703 702.608 194.541 698.578 198.273 695.869 196.111 691.54 200.047 688.919 196.773 684.23 203.588 682.488 202.865 678.531 196.865 672.93 200.998 670.427 198.826 665.945 206.381 664.586 202.208 659.425 205.185 656.606 210.883 654.738 207.551 649.785 214.077 648.26 211.773 643.628 214.416 640.759 214.808 637.074 217.544 634.259 219.564 631.188 220.733 627.796 219.295 623.376 223.778 621.29 217.547 614.894 219.636 611.833 225.107 610.193 222.097 605.008 228.579 603.851 228.149 599.74 230.62 596.89 228.812 592.133 233.399 590.244 234.215 586.654 240.466 585.597 238.065 580.499 236.905 575.947 238.331 572.619 243.194 570.984 247.293 569.011 241.931 562.276 247.456 561.038 249.885 558.241 247.035 552.673 253.304 551.91 258.116 550.422 257.399 545.95 261.477 544.103 255.314 536.537 258.742 534.314 258.664 530.094 263.598 528.77 270.069 528.4 265.679 521.603 270.53 520.308 270.531 516.085 274.877 514.529 274.029 509.748 280.007 509.265 276.227 502.565 277.991 499.386 280.034 496.388 282.636 493.763 289.64 494.121 288.066 488.696 289.082 485.003 293.47 483.655 297.881 482.361 294.756 475.704 301.1 475.827 300.445 470.884 303.243 468.459 305.511 465.645 310.379 464.811 313.008 462.303 316.415 460.407 316.149 455.641 317.141 451.832 316.01 446.288 322.845 447.176 320.825 440.846 328.998 442.94 326.96 436.526 333.107 437.018 335.828 434.625 337.114 430.985 341.202 429.801 339.543 423.511 343.972 422.646 346.913 420.462 351.74 420.035 352.647 415.987 353.609 411.957 353.697 407.057 354.824 403.11 360.626 403.719 362.587 400.591 365.043 397.946 367.32 395.117 370.424 393.13 373.969 391.615 379.301 392 378.177 385.587 378.954 381.127 386.34 383.811 389.784 382.276 388.205 375.168 392.212 374.243 397.08 374.332 396.67 368.395 400.032 366.774 404.308 366.252 408.333 365.471 408.097 359.584 413.52 360.521 413.126 354.349 417.674 354.26 418.778 349.868 419.605 345.071 427.018 348.735 424.931 340.101 432.834 344.545 431.672 337 434.618 334.896 441.673 338.429 439.765 329.656 448.099 335.108 446.635 326.816 449.553 324.677 456.698 328.686 457.833 323.991 461.729 323.344 463.399 319.374 468.646 320.814 469.793 316.004 472.292 313.24 477.427 314.622 476 305.582 483.942 311.545 481.837 301.227 486.012 301.124 492.262 304.551 492.77 298.343 498.71 301.377 501.885 299.712 503.938 296.07 504.277 289.321 506.925 286.621 510.168 284.988 515.684 287.571 519.511 287.091 520.995 282.19 525.211 282.463 529.103 282.156 532.088 280.091 533.82 275.511 539.369 278.582 540.642 273.004 544.633 272.969 546.154 267.777 551.525 270.694 555.712 271.171 557.665 266.814 562.633 269.061 562.183 259.245 569.471 266.808 569.89 258.777 572.884 256.585 577.527 258.277 582.628 261.149 585.042 257.606 586.879 252.578 590.991 253.134 594.126 251.269 597.651 250.391 599.302 244.656 605.025 249.551 606.396 242.965 610.753 244.335 613.653 241.766 617.619 242.139 622.32 244.639 623.08 235.912 628.955 241.888 631.297 237.614 634.226 235.009 637.014 231.93 640.77 231.788 644.816 232.586 649.59 235.764 651.229 228.918 654.135 226.061 658.348 227.508 662.269 228.044 666.739 230.522 668.246 222.738 671.959 222.577 675.921 223.345 680.612 226.845 683.312 223.059 686.543 221.191 689.175 216.98 692.784 216.489 697.789 221.578 699.673 214.21 703.108 213.017 707.059 213.98 709.925 210.397 713.539 209.963 717.084 209.239 722.583 217.325 724.353 208.61 729.534 215.556 731.6 207.937 736.28 212.757 738.517 205.684 742.01 204.709 746.245 207.536 748.994 202.699 753.027 204.569 756.23 202.005 760.008 202.566 764.58 207.706 767.76 204.984 771.73 206.9 775.13 205.455 777.422 197.079 782.431 205.616 785.774 203.723 788.836 199.898 793.087 204.009 796.397 201.766 799.375 197.107 802.959 196.658 806.593 196.57 810.574 199.166 813.79 195.903 817.093 193.152 821.229 197.247 824.077 190.416" style="fill: none; stroke: #000; stroke-linecap: round; stroke-linejoin: round; stroke-width: 40px;"/>
</svg>