<?xml version="1.0" encoding="UTF-8"?>
<svg id="Stickers" xmlns="http://www.w3.org/2000/svg" width="1000" height="1000" viewBox="0 0 1000 1000">
  <polygon points="499.984 113.529 505.566 117.934 499.822 125.397 506.811 125.51 508.752 128.537 512.103 130.75 508.733 136.843 510.702 139.854 516.8 140.482 513.603 146.478 516.827 148.764 516.366 153.178 519.506 155.512 522.758 157.781 522.768 161.921 530.605 161.541 528.195 167.077 533.987 167.877 528.134 175.399 532.256 177.163 533.197 180.762 538.878 181.624 542.812 183.495 544.612 186.597 540.608 193.05 540.645 197.17 550.894 195.394 551.101 199.416 549.664 204.387 555.934 204.908 554.27 210.01 556.509 212.858 555.442 217.616 562.061 217.936 564.276 220.8 563.454 225.417 561.996 230.401 568.544 230.764 571.968 232.931 567.203 239.826 569.391 242.707 571.816 245.453 575.262 247.609 581.027 248.428 580.378 252.95 580.65 256.941 580.91 260.941 587.344 261.377 590.169 263.896 583.755 271.747 590.255 272.143 591.383 275.639 596.384 276.899 595.122 281.774 599.353 283.477 594.7 290.308 601.329 290.626 605.299 292.478 605.071 296.754 604.634 301.149 608.984 302.782 608.774 307.047 613.087 308.7 609.602 314.856 614.852 315.969 613.587 320.843 622.087 320.08 619.032 325.989 625.718 326.273 621.527 332.838 623.413 335.895 628.55 337.076 629.504 340.673 632.23 343.247 633.746 346.521 635.183 349.841 638.882 351.857 642.221 354.08 644.168 357.105 641.139 363.003 642.209 366.534 648.903 366.817 650.441 370.076 649.695 374.653 654.76 375.875 656.545 378.991 656.522 383.15 652.385 389.684 660.508 389.139 659.614 393.801 660.216 397.6 662.935 400.176 663.377 404.067 669.747 404.536 668.888 409.179 667.265 414.265 672.891 415.165 675.169 418 676.225 421.541 674.914 426.45 678.611 428.466 685.427 428.682 682.576 434.477 689.235 434.781 689.388 438.841 689.618 442.856 689.883 446.851 695.132 447.968 692.699 453.519 698.338 454.411 701.78 456.571 698.169 462.803 705.309 462.829 706.132 466.502 703.118 472.392 705.977 474.891 709.882 476.788 710.052 480.841 710.15 484.937 711.765 488.155 718.127 488.632 716.386 493.787 718.427 496.757 718.115 501.086 720.437 503.893 723.943 506.017 726.24 508.84 730.973 510.256 727.98 516.133 728.533 519.964 729.921 523.313 735.977 523.968 736.432 527.859 736.983 531.692 738.904 534.734 742.929 536.56 748.052 537.753 748.766 541.49 750.212 544.804 746.063 551.349 750.628 552.863 754.247 554.924 756.279 557.901 755.179 562.689 755.298 566.773 759.514 568.491 760.33 572.171 762.553 575.039 765.75 577.343 765.55 581.608 769.318 583.583 774.772 584.585 772.248 590.194 772.415 594.25 773.383 597.844 774.432 601.391 781.509 601.456 779.429 606.808 785.626 607.381 784.053 612.44 785.291 615.876 791.399 616.502 786.683 623.379 793.306 623.707 791.409 628.955 793.281 632.025 795.133 635.107 799.834 636.544 802.63 639.083 807.174 640.613 804.241 646.46 811.338 646.514 806.584 653.404 812.204 654.308 814.781 656.97 816.732 659.997 818.041 663.394 814.435 669.626 817.033 672.274 825.227 671.69 820.111 678.791 821.287 682.258 830.376 681.159 825.196 688.299 827.695 691.008 834.515 691.225 836.353 694.317 839.66 696.558 841.7 699.529 841.283 703.919 843.451 706.817 843.637 710.861 848.081 712.45 848.172 716.552 850.252 719.503 850.126 723.727 855.488 724.782 851.071 731.485 858.559 731.317 860.643 734.268 856.986 740.533 863.652 740.836 859.023 747.663 865.83 747.89 865.55 752.206 871.471 752.941 871.673 756.979 869.261 762.528 874.212 763.824 877.648 765.996 877.139 770.447 877.376 774.465 881.848 776.04 881.238 780.548 885.655 782.154 889.364 784.167 887.445 789.424 893.573 790.039 892.942 794.561 890.503 800.122 898.621 799.593 894.358 806.21 900.806 806.646 900.155 811.179 900.475 815.153 902.015 818.425 907.417 819.467 904.623 825.235 908.515 827.149 912.891 828.784 915.205 831.61 916.685 834.924 913.196 836.914 913.255 838.82 909.664 840.81 906.072 839.523 902.48 841.709 898.887 841.99 895.295 837.137 891.702 843.233 888.108 836.01 884.515 837.045 880.922 840.593 877.329 843.54 873.737 836.546 870.144 836.117 866.552 837.501 862.96 835.504 859.369 837 855.777 842.52 852.185 835.646 848.594 838.339 845.002 838.356 841.411 839.562 837.819 836.944 834.227 841.578 830.635 838.118 827.043 843.838 823.45 837.644 819.857 840.869 816.264 839.064 812.67 839.548 809.077 841.354 805.484 842.467 801.891 835.373 798.299 835.42 794.706 835.217 791.119 840.473 787.532 838.926 783.945 840.789 780.357 834.535 776.768 835.897 773.179 843.592 769.59 842.397 766 836.175 762.409 841.592 758.818 840.32 755.225 838.489 751.632 836.048 748.039 842.133 744.445 840.838 740.853 841.74 737.261 840.986 733.67 842.704 730.079 842.783 726.489 837.607 722.899 840.323 719.31 836.042 715.721 834.069 712.132 839.646 708.544 837.502 704.956 841.522 701.368 839.301 697.78 838.363 694.192 837.004 690.604 835.419 687.016 836.056 683.428 835.169 679.839 836.935 676.25 836.439 672.661 843.845 669.072 837.991 665.482 842.554 661.891 835.554 658.3 843.548 654.708 840.104 651.115 841.085 647.522 834.223 643.928 840.165 640.333 838.754 636.74 843.104 633.147 840.054 629.555 836.678 625.964 835.12 622.373 840.816 618.782 843.965 615.192 841.828 611.602 842.197 608.013 838.555 604.423 837.915 600.833 839.64 597.244 842.141 593.654 835.781 590.064 837.267 586.474 843.501 582.883 839.656 579.292 837.932 575.7 836.837 572.107 842.591 568.514 842.98 564.92 835.401 561.325 834.697 557.73 843.5 554.137 839.018 550.544 835.984 546.951 842.8 543.359 834.823 539.768 834.221 536.177 841.089 532.586 838.477 528.995 837.569 525.404 837.725 521.813 841.034 518.221 835.881 514.63 839.172 511.037 838.355 507.445 839.73 503.851 841.431 500.257 843.929 496.661 842.034 493.066 834.082 489.472 842.325 485.879 837.685 482.286 841.159 478.693 838.403 475.101 842.18 471.509 839.558 467.917 842.524 464.325 839.159 460.733 842.866 457.14 838.534 453.547 835.329 449.952 840.364 446.357 836.589 442.761 837.736 439.166 835.856 435.572 834.924 431.978 837.297 428.385 834.179 424.792 840.365 421.2 842.263 417.607 835.459 414.014 836.831 410.42 842.778 406.826 837.517 403.23 835.289 399.634 840.782 396.039 838.704 392.444 842.631 388.85 838.474 385.257 840.34 381.663 842.384 378.07 834.663 374.476 843.465 370.881 838.871 367.285 838.099 363.689 841.601 360.093 834.398 356.499 838.178 352.905 842.621 349.311 841.021 345.716 838.713 342.122 835.255 338.526 840.256 334.93 841.883 331.334 837.517 327.739 839.213 324.144 837.05 320.55 834.787 316.955 837.767 313.359 836.189 309.763 835.717 306.167 840.996 302.571 840.337 298.976 835.062 295.381 837.85 291.786 835.543 288.189 843.018 284.593 841.784 280.997 834.986 277.402 834.737 273.812 842.529 270.221 835.126 266.631 835.075 263.04 843.365 259.447 834.587 255.853 841.676 252.255 835.923 248.66 841.919 245.066 836.12 241.473 842.877 237.881 842.168 234.288 839.164 230.694 838.649 227.097 841.936 223.5 837.365 219.905 840.334 216.311 836.947 212.717 843.402 209.122 837.712 205.524 836.298 201.926 841.998 198.331 843.237 194.736 839.019 191.139 843.989 187.54 842.343 183.943 842.188 180.347 843.442 176.75 843.417 173.151 842.869 169.554 840.267 165.956 837.587 162.357 841.579 158.76 835.09 155.16 835.163 151.562 838.501 147.963 838.569 144.364 838.011 140.765 842.392 137.17 839.154 133.571 836.215 129.975 843.609 126.376 839.987 122.779 839.947 119.178 834.547 115.58 836.006 111.979 835.571 108.378 837.818 104.776 836.401 101.174 838.405 97.573 838.585 93.972 839.514 90.369 835.494 86.761 836.835 86.159 837.249 83.584 835.102 87.389 833.151 92.204 831.783 88.654 825.586 94.196 824.638 97.607 822.46 96.846 817.873 94.81 812.548 99.794 811.276 101.117 807.892 100.556 803.42 103.716 801.098 107.703 799.254 103.992 792.966 113.455 794.284 115.244 791.172 109.454 783.686 113.169 781.687 118.837 780.817 119.364 776.978 118.863 772.547 118.802 768.369 120.824 765.395 124.532 763.395 132.061 763.6 128.017 757.124 131.196 754.818 136.127 753.524 133.738 748.004 132.902 743.38 139.489 743.042 138.804 738.505 139.555 734.796 142.328 732.255 149.448 732.224 149.593 728.164 147.816 722.996 151.795 721.149 152.746 717.554 153.124 713.627 154.922 710.52 154.932 706.38 157.691 703.826 159.027 700.449 159.645 696.658 166.078 696.222 169.809 694.226 166.892 688.392 172.185 687.299 175.72 685.192 172.746 679.327 174.908 676.428 179.03 674.662 181.432 671.904 179.6 666.7 182.156 664.031 183.529 660.68 190.12 660.341 186.595 654.162 190.727 652.404 195.204 650.845 195.597 646.928 194.463 642.13 200.921 641.715 201.125 637.688 200.541 633.207 207.412 633.029 205.757 627.929 208.916 625.607 208.931 621.47 210.498 618.228 212.668 615.333 212.825 611.276 214.679 608.197 217.144 605.471 220.653 603.345 224.378 601.345 225.156 597.644 223.061 592.286 224.066 588.717 227.713 586.676 232.735 585.428 236.273 583.324 231.969 576.693 235.8 574.759 233.699 569.4 236.845 567.07 244.292 567.225 246.957 564.618 242.24 557.748 244.622 554.978 251.65 554.889 251.9 550.886 251.667 546.605 253.332 543.418 252.057 538.533 255.317 536.265 255.15 532.018 261.353 531.447 264.796 529.284 262.991 524.091 269.403 523.643 270.055 519.871 274.011 518.007 267.746 510.242 274.471 509.977 272.189 504.513 272.871 500.76 280.536 501.038 281.522 497.46 283.092 494.219 280.217 488.411 284.016 486.456 285.844 483.362 289.913 481.561 292.643 478.986 293.478 475.316 291.016 469.743 292.93 466.697 295.154 463.831 298.617 461.681 300.036 458.351 305.486 457.35 301.994 451.185 305.638 449.141 312.135 448.743 313.423 445.338 316.948 443.224 313.779 437.244 316.316 434.558 320.321 432.719 323.244 430.254 324.479 426.815 320.321 420.263 323.509 417.953 330.945 418.097 329.897 413.343 328.158 408.189 329.916 405.055 332.193 402.22 335.746 400.121 339.564 398.175 343.308 396.184 339.386 389.766 347.747 390.441 345.088 384.755 345.308 380.731 347.934 378.098 350.684 375.535 355.525 374.18 357.68 371.274 355.463 365.842 356.702 362.405 361.548 361.049 357.187 354.379 365.697 355.141 361.185 348.385 366.077 347.059 372.859 346.824 370.248 341.165 369.48 336.569 376.615 336.535 372.54 330.03 375.222 327.426 376.176 323.826 378.861 321.224 381.109 318.371 387.841 318.105 390.838 315.682 386.657 309.115 393.907 309.148 395.368 305.846 391.939 299.719 399.055 299.677 397.903 294.859 398.813 291.231 398.186 286.719 402.883 285.283 401.88 280.557 403.707 277.465 408.995 276.371 407.432 271.321 415.746 271.972 413.196 266.348 412.071 261.543 415.881 259.59 418.843 257.15 420.948 254.216 426.269 253.139 423.938 247.643 421.89 242.31 431.785 243.868 431.327 239.449 428.316 233.558 437.315 234.603 438.354 231.052 438.457 226.959 440.239 223.832 436.558 217.552 442.265 216.695 440.729 211.656 443.249 208.956 446.863 206.886 448.025 203.403 454.004 202.701 455.153 199.21 459.198 197.389 457.638 192.334 456.581 187.568 460.057 185.418 464.23 183.672 463.423 179.049 464.347 175.426 465.692 172.046 469.954 170.353 466.925 164.455 471.591 162.996 477.9 162.481 480.128 159.614 478.209 154.348 477.028 149.511 482.978 148.787 486.311 146.554 488.727 143.79 489.645 140.16 489.497 135.914 487.237 130.453 493.294 129.79 491.479 124.58 495.175 122.552 502.099 121.57 499.984 113.529"/>
  <polygon points="499.984 113.529 505.566 117.934 499.822 125.397 506.811 125.51 508.752 128.537 512.103 130.75 508.733 136.843 510.702 139.854 516.8 140.482 513.603 146.478 516.827 148.764 516.366 153.178 519.506 155.512 522.758 157.781 522.768 161.921 530.605 161.541 528.195 167.077 533.987 167.877 528.134 175.399 532.256 177.163 533.197 180.762 538.878 181.624 542.812 183.495 544.612 186.597 540.608 193.05 540.645 197.17 550.894 195.394 551.101 199.416 549.664 204.387 555.934 204.908 554.27 210.01 556.509 212.858 555.442 217.616 562.061 217.936 564.276 220.8 563.454 225.417 561.996 230.401 568.544 230.764 571.968 232.931 567.203 239.826 569.391 242.707 571.816 245.453 575.262 247.609 581.027 248.428 580.378 252.95 580.65 256.941 580.91 260.941 587.344 261.377 590.169 263.896 583.755 271.747 590.255 272.143 591.383 275.639 596.384 276.899 595.122 281.774 599.353 283.477 594.7 290.308 601.329 290.626 605.299 292.478 605.071 296.754 604.634 301.149 608.984 302.782 608.774 307.047 613.087 308.7 609.602 314.856 614.852 315.969 613.587 320.843 622.087 320.08 619.032 325.989 625.718 326.273 621.527 332.838 623.413 335.895 628.55 337.076 629.504 340.673 632.23 343.247 633.746 346.521 635.183 349.841 638.882 351.857 642.221 354.08 644.168 357.105 641.139 363.003 642.209 366.534 648.903 366.817 650.441 370.076 649.695 374.653 654.76 375.875 656.545 378.991 656.522 383.15 652.385 389.684 660.508 389.139 659.614 393.801 660.216 397.6 662.935 400.176 663.377 404.067 669.747 404.536 668.888 409.179 667.265 414.265 672.891 415.165 675.169 418 676.225 421.541 674.914 426.45 678.611 428.466 685.427 428.682 682.576 434.477 689.235 434.781 689.388 438.841 689.618 442.856 689.883 446.851 695.132 447.968 692.699 453.519 698.338 454.411 701.78 456.571 698.169 462.803 705.309 462.829 706.132 466.502 703.118 472.392 705.977 474.891 709.882 476.788 710.052 480.841 710.15 484.937 711.765 488.155 718.127 488.632 716.386 493.787 718.427 496.757 718.115 501.086 720.437 503.893 723.943 506.017 726.24 508.84 730.973 510.256 727.98 516.133 728.533 519.964 729.921 523.313 735.977 523.968 736.432 527.859 736.983 531.692 738.904 534.734 742.929 536.56 748.052 537.753 748.766 541.49 750.212 544.804 746.063 551.349 750.628 552.863 754.247 554.924 756.279 557.901 755.179 562.689 755.298 566.773 759.514 568.491 760.33 572.171 762.553 575.039 765.75 577.343 765.55 581.608 769.318 583.583 774.772 584.585 772.248 590.194 772.415 594.25 773.383 597.844 774.432 601.391 781.509 601.456 779.429 606.808 785.626 607.381 784.053 612.44 785.291 615.876 791.399 616.502 786.683 623.379 793.306 623.707 791.409 628.955 793.281 632.025 795.133 635.107 799.834 636.544 802.63 639.083 807.174 640.613 804.241 646.46 811.338 646.514 806.584 653.404 812.204 654.308 814.781 656.97 816.732 659.997 818.041 663.394 814.435 669.626 817.033 672.274 825.227 671.69 820.111 678.791 821.287 682.258 830.376 681.159 825.196 688.299 827.695 691.008 834.515 691.225 836.353 694.317 839.66 696.558 841.7 699.529 841.283 703.919 843.451 706.817 843.637 710.861 848.081 712.45 848.172 716.552 850.252 719.503 850.126 723.727 855.488 724.782 851.071 731.485 858.559 731.317 860.643 734.268 856.986 740.533 863.652 740.836 859.023 747.663 865.83 747.89 865.55 752.206 871.471 752.941 871.673 756.979 869.261 762.528 874.212 763.824 877.648 765.996 877.139 770.447 877.376 774.465 881.848 776.04 881.238 780.548 885.655 782.154 889.364 784.167 887.445 789.424 893.573 790.039 892.942 794.561 890.503 800.122 898.621 799.593 894.358 806.21 900.806 806.646 900.155 811.179 900.475 815.153 902.015 818.425 907.417 819.467 904.623 825.235 908.515 827.149 912.891 828.784 915.205 831.61 916.685 834.924 913.196 836.914 913.255 838.82 909.664 840.81 906.072 839.523 902.48 841.709 898.887 841.99 895.295 837.137 891.702 843.233 888.108 836.01 884.515 837.045 880.922 840.593 877.329 843.54 873.737 836.546 870.144 836.117 866.552 837.501 862.96 835.504 859.369 837 855.777 842.52 852.185 835.646 848.594 838.339 845.002 838.356 841.411 839.562 837.819 836.944 834.227 841.578 830.635 838.118 827.043 843.838 823.45 837.644 819.857 840.869 816.264 839.064 812.67 839.548 809.077 841.354 805.484 842.467 801.891 835.373 798.299 835.42 794.706 835.217 791.119 840.473 787.532 838.926 783.945 840.789 780.357 834.535 776.768 835.897 773.179 843.592 769.59 842.397 766 836.175 762.409 841.592 758.818 840.32 755.225 838.489 751.632 836.048 748.039 842.133 744.445 840.838 740.853 841.74 737.261 840.986 733.67 842.704 730.079 842.783 726.489 837.607 722.899 840.323 719.31 836.042 715.721 834.069 712.132 839.646 708.544 837.502 704.956 841.522 701.368 839.301 697.78 838.363 694.192 837.004 690.604 835.419 687.016 836.056 683.428 835.169 679.839 836.935 676.25 836.439 672.661 843.845 669.072 837.991 665.482 842.554 661.891 835.554 658.3 843.548 654.708 840.104 651.115 841.085 647.522 834.223 643.928 840.165 640.333 838.754 636.74 843.104 633.147 840.054 629.555 836.678 625.964 835.12 622.373 840.816 618.782 843.965 615.192 841.828 611.602 842.197 608.013 838.555 604.423 837.915 600.833 839.64 597.244 842.141 593.654 835.781 590.064 837.267 586.474 843.501 582.883 839.656 579.292 837.932 575.7 836.837 572.107 842.591 568.514 842.98 564.92 835.401 561.325 834.697 557.73 843.5 554.137 839.018 550.544 835.984 546.951 842.8 543.359 834.823 539.768 834.221 536.177 841.089 532.586 838.477 528.995 837.569 525.404 837.725 521.813 841.034 518.221 835.881 514.63 839.172 511.037 838.355 507.445 839.73 503.851 841.431 500.257 843.929 496.661 842.034 493.066 834.082 489.472 842.325 485.879 837.685 482.286 841.159 478.693 838.403 475.101 842.18 471.509 839.558 467.917 842.524 464.325 839.159 460.733 842.866 457.14 838.534 453.547 835.329 449.952 840.364 446.357 836.589 442.761 837.736 439.166 835.856 435.572 834.924 431.978 837.297 428.385 834.179 424.792 840.365 421.2 842.263 417.607 835.459 414.014 836.831 410.42 842.778 406.826 837.517 403.23 835.289 399.634 840.782 396.039 838.704 392.444 842.631 388.85 838.474 385.257 840.34 381.663 842.384 378.07 834.663 374.476 843.465 370.881 838.871 367.285 838.099 363.689 841.601 360.093 834.398 356.499 838.178 352.905 842.621 349.311 841.021 345.716 838.713 342.122 835.255 338.526 840.256 334.93 841.883 331.334 837.517 327.739 839.213 324.144 837.05 320.55 834.787 316.955 837.767 313.359 836.189 309.763 835.717 306.167 840.996 302.571 840.337 298.976 835.062 295.381 837.85 291.786 835.543 288.189 843.018 284.593 841.784 280.997 834.986 277.402 834.737 273.812 842.529 270.221 835.126 266.631 835.075 263.04 843.365 259.447 834.587 255.853 841.676 252.255 835.923 248.66 841.919 245.066 836.12 241.473 842.877 237.881 842.168 234.288 839.164 230.694 838.649 227.097 841.936 223.5 837.365 219.905 840.334 216.311 836.947 212.717 843.402 209.122 837.712 205.524 836.298 201.926 841.998 198.331 843.237 194.736 839.019 191.139 843.989 187.54 842.343 183.943 842.188 180.347 843.442 176.75 843.417 173.151 842.869 169.554 840.267 165.956 837.587 162.357 841.579 158.76 835.09 155.16 835.163 151.562 838.501 147.963 838.569 144.364 838.011 140.765 842.392 137.17 839.154 133.571 836.215 129.975 843.609 126.376 839.987 122.779 839.947 119.178 834.547 115.58 836.006 111.979 835.571 108.378 837.818 104.776 836.401 101.174 838.405 97.573 838.585 93.972 839.514 90.369 835.494 86.761 836.835 86.159 837.249 83.584 835.102 87.389 833.151 92.204 831.783 88.654 825.586 94.196 824.638 97.607 822.46 96.846 817.873 94.81 812.548 99.794 811.276 101.117 807.892 100.556 803.42 103.716 801.098 107.703 799.254 103.992 792.966 113.455 794.284 115.244 791.172 109.454 783.686 113.169 781.687 118.837 780.817 119.364 776.978 118.863 772.547 118.802 768.369 120.824 765.395 124.532 763.395 132.061 763.6 128.017 757.124 131.196 754.818 136.127 753.524 133.738 748.004 132.902 743.38 139.489 743.042 138.804 738.505 139.555 734.796 142.328 732.255 149.448 732.224 149.593 728.164 147.816 722.996 151.795 721.149 152.746 717.554 153.124 713.627 154.922 710.52 154.932 706.38 157.691 703.826 159.027 700.449 159.645 696.658 166.078 696.222 169.809 694.226 166.892 688.392 172.185 687.299 175.72 685.192 172.746 679.327 174.908 676.428 179.03 674.662 181.432 671.904 179.6 666.7 182.156 664.031 183.529 660.68 190.12 660.341 186.595 654.162 190.727 652.404 195.204 650.845 195.597 646.928 194.463 642.13 200.921 641.715 201.125 637.688 200.541 633.207 207.412 633.029 205.757 627.929 208.916 625.607 208.931 621.47 210.498 618.228 212.668 615.333 212.825 611.276 214.679 608.197 217.144 605.471 220.653 603.345 224.378 601.345 225.156 597.644 223.061 592.286 224.066 588.717 227.713 586.676 232.735 585.428 236.273 583.324 231.969 576.693 235.8 574.759 233.699 569.4 236.845 567.07 244.292 567.225 246.957 564.618 242.24 557.748 244.622 554.978 251.65 554.889 251.9 550.886 251.667 546.605 253.332 543.418 252.057 538.533 255.317 536.265 255.15 532.018 261.353 531.447 264.796 529.284 262.991 524.091 269.403 523.643 270.055 519.871 274.011 518.007 267.746 510.242 274.471 509.977 272.189 504.513 272.871 500.76 280.536 501.038 281.522 497.46 283.092 494.219 280.217 488.411 284.016 486.456 285.844 483.362 289.913 481.561 292.643 478.986 293.478 475.316 291.016 469.743 292.93 466.697 295.154 463.831 298.617 461.681 300.036 458.351 305.486 457.35 301.994 451.185 305.638 449.141 312.135 448.743 313.423 445.338 316.948 443.224 313.779 437.244 316.316 434.558 320.321 432.719 323.244 430.254 324.479 426.815 320.321 420.263 323.509 417.953 330.945 418.097 329.897 413.343 328.158 408.189 329.916 405.055 332.193 402.22 335.746 400.121 339.564 398.175 343.308 396.184 339.386 389.766 347.747 390.441 345.088 384.755 345.308 380.731 347.934 378.098 350.684 375.535 355.525 374.18 357.68 371.274 355.463 365.842 356.702 362.405 361.548 361.049 357.187 354.379 365.697 355.141 361.185 348.385 366.077 347.059 372.859 346.824 370.248 341.165 369.48 336.569 376.615 336.535 372.54 330.03 375.222 327.426 376.176 323.826 378.861 321.224 381.109 318.371 387.841 318.105 390.838 315.682 386.657 309.115 393.907 309.148 395.368 305.846 391.939 299.719 399.055 299.677 397.903 294.859 398.813 291.231 398.186 286.719 402.883 285.283 401.88 280.557 403.707 277.465 408.995 276.371 407.432 271.321 415.746 271.972 413.196 266.348 412.071 261.543 415.881 259.59 418.843 257.15 420.948 254.216 426.269 253.139 423.938 247.643 421.89 242.31 431.785 243.868 431.327 239.449 428.316 233.558 437.315 234.603 438.354 231.052 438.457 226.959 440.239 223.832 436.558 217.552 442.265 216.695 440.729 211.656 443.249 208.956 446.863 206.886 448.025 203.403 454.004 202.701 455.153 199.21 459.198 197.389 457.638 192.334 456.581 187.568 460.057 185.418 464.23 183.672 463.423 179.049 464.347 175.426 465.692 172.046 469.954 170.353 466.925 164.455 471.591 162.996 477.9 162.481 480.128 159.614 478.209 154.348 477.028 149.511 482.978 148.787 486.311 146.554 488.727 143.79 489.645 140.16 489.497 135.914 487.237 130.453 493.294 129.79 491.479 124.58 495.175 122.552 502.099 121.57 499.984 113.529" style="fill: none; stroke: #000; stroke-linecap: round; stroke-linejoin: round; stroke-width: 30px;"/>
</svg>