<?xml version="1.0" encoding="UTF-8"?>
<svg id="Sticker" xmlns="http://www.w3.org/2000/svg" width="1000" height="1000" viewBox="0 0 1000 1000">
  <polygon points="175.952 825.939 174.486 825.514 166.605 824.745 169.305 819.347 174.697 819.653 173.707 813.578 176.92 811.705 181.657 811.356 185.839 810.453 188.424 807.953 186.364 800.808 190 799.358 198.157 802.43 195.082 794.269 201.637 795.739 204.7 793.716 205.666 789.596 206.846 785.69 210.122 783.879 211.283 779.953 214.767 778.35 214.322 772.817 217.966 771.373 225.224 773.542 225.04 768.269 230.945 769.083 228.238 761.286 230.866 758.822 238.742 761.606 236.529 754.3 242.826 755.503 240.266 747.849 245.765 748.252 245.944 743.334 254.263 746.555 251.649 738.842 254.548 736.642 259.605 736.601 260.86 732.759 265.455 732.257 266.166 727.872 266.139 722.75 271.314 722.832 272.05 718.474 276.278 717.609 280.268 716.507 282.709 713.856 284.232 710.288 286.998 707.963 289.22 705.095 289.955 700.74 293.186 698.88 293.094 693.699 295.747 691.263 303.516 693.943 305.92 691.257 309.521 689.768 309.923 685.081 313.313 683.381 314.577 679.555 319.818 679.707 322.204 677.002 324.097 673.804 327.32 671.936 325.484 665.008 329.117 663.548 329.496 658.835 332.426 656.671 340.532 659.682 338.002 652.056 342.94 651.898 346.489 650.35 348.693 647.455 351.462 645.124 352.67 641.231 354.728 638.189 357.379 635.741 356.93 630.194 361.47 629.637 365.012 628.082 367.89 625.865 371.534 624.414 371.275 619.061 376.553 619.245 374.798 612.396 383.819 616.324 381.339 608.752 385.853 608.174 390.699 607.927 390.945 603.081 394.455 601.498 393.46 595.411 397.155 594.012 401.246 593.01 400.951 587.622 406.906 588.482 408.981 585.462 409.865 581.251 412.726 579.016 417.498 578.691 418.312 574.406 422.395 573.391 425.125 571.02 424.115 564.909 426.82 562.513 428.161 558.753 435.471 560.964 439.238 559.633 438.578 553.875 440.503 550.704 445.572 550.676 444.335 544.343 452.272 547.186 449.185 539.004 456.832 541.556 456.103 535.732 459.574 534.108 458.765 528.204 462.989 527.333 465.564 524.812 467.132 521.283 472.216 521.27 477.444 521.4 475.208 514.066 478.339 512.096 480.558 509.214 487.093 510.647 488.122 506.573 487.682 501.033 494.508 502.759 496.85 500.002 497.471 495.525 501.585 494.542 502.148 490.008 507.332 490.095 507.118 484.784 511.325 483.894 515.941 483.414 519.158 481.533 518.542 475.82 523.788 475.967 522.291 469.371 526.494 468.474 528.97 465.848 533.227 465.002 532.368 459.04 536.777 458.348 539.593 456.064 539.832 451.203 540.376 446.648 543.902 445.076 548.035 444.111 554.845 445.822 552.612 438.491 555.469 436.25 559.338 435.019 563.662 434.243 564.163 429.643 565.938 426.315 568.334 423.607 570.447 420.617 575.86 420.929 576.291 416.26 575.976 410.845 582.613 412.383 584.975 409.645 587.51 407.08 592.604 407.075 595.13 404.501 592.797 397.065 597.703 396.868 598.691 392.752 602.605 391.564 604.902 388.759 607.9 386.655 606.919 380.574 614.22 382.775 617.778 381.233 616.924 375.278 619.498 372.749 621.861 370.009 624.314 367.358 624.556 362.496 631.569 364.408 630.715 358.452 638.712 361.348 637.386 354.921 637.173 349.61 646.117 353.453 646.141 348.373 647.212 344.342 654.43 346.46 655.33 342.263 654.495 336.333 661.184 337.927 662.624 334.274 660.513 327.07 668.64 330.103 668.671 325.039 673.008 324.28 674.426 320.599 679.749 320.821 680.692 316.658 684.549 315.411 685.531 311.29 687.989 308.649 691.379 306.942 689.753 300.218 694.903 300.271 695.662 295.931 697.526 292.695 701.3 291.365 704.633 289.591 710.412 290.265 710.474 285.224 709.789 279.439 717.316 281.866 716.498 275.947 719.4 273.746 720.097 269.336 725.495 269.627 724.714 263.742 731.521 265.446 734.46 263.282 736.586 260.304 738.692 257.301 741.984 255.486 744.714 253.111 748.347 251.64 748.076 246.263 751.903 244.98 750.344 238.314 755.883 238.747 756.162 233.919 758.161 230.809 765.86 233.401 768.84 231.273 768.476 225.799 769.621 221.836 770.418 217.536 778.398 220.416 778.293 215.203 780.54 212.343 782.459 209.159 787.048 208.642 788.714 205.197 791.217 202.593 793.071 199.335 798.302 199.456 801.098 197.138 799.471 190.4 804.44 190.256 808.628 189.328 809.567 185.162 810.605 181.087 813.24 178.605 819.034 179.281 816.334 171.461 824.972 174.972 824.711 166.848 830.905 169.095 830.693 175.515 830.98 180.938 824.115 179.158 824.927 185.057 822.872 188.087 817.401 187.701 814.922 190.308 811.764 192.235 812.894 198.45 805.877 196.519 801.991 197.717 803.444 204.256 803.067 208.965 798.091 209.075 794.092 210.162 792.712 213.868 792.913 219.156 784.97 216.299 787.566 223.983 785.821 227.326 780.618 227.212 776.486 228.168 775.241 232.013 772.702 234.563 767.324 234.276 765.287 237.331 762.728 239.864 764.098 246.327 756.519 243.842 756.963 249.38 757.815 255.329 754.477 257.087 751.396 259.104 748.729 261.535 744.685 262.591 741.734 264.739 742.453 270.555 739.841 273.039 736.002 274.296 733.232 276.621 730.629 279.112 726.213 279.789 723.604 282.273 720.649 284.41 721.643 290.496 713.048 286.992 712.816 291.85 708.805 292.93 708.619 297.834 705.077 299.382 703.578 302.973 703.161 307.645 698.845 308.418 694.042 308.705 690.205 309.957 691.593 316.435 688.569 318.5 687.847 322.868 684.409 324.521 680.756 325.958 677.081 327.374 673.752 329.136 670.78 331.257 667.051 332.62 666.397 337.059 666.119 341.875 661.992 342.843 659.102 345.048 660.008 351.05 653.287 349.427 649.779 351.017 652.947 359.285 649.443 360.881 643.568 360.107 640.171 361.809 641.512 368.247 637.477 369.311 632.057 368.986 632.685 374.71 630.264 377.384 630.124 382.338 624.531 381.839 618.768 381.17 620.396 387.89 617.973 390.561 610.91 388.59 614.822 397.594 609.274 397.138 606.357 399.314 603.355 401.405 600.046 403.189 597.747 405.983 594.623 407.952 596.048 414.472 593.563 417.082 590.397 419.011 585.206 418.917 582.986 421.793 578.475 422.381 578.345 427.35 579.406 433.51 575.681 434.887 570.953 435.261 568.478 437.886 562.728 437.235 566.194 445.799 563.226 447.929 556.79 446.589 556.93 451.826 554.128 454.119 553.673 458.76 545.015 455.196 543.606 458.882 540.611 460.982 541.431 466.897 540.733 471.294 534.493 470.15 530.145 470.898 529.024 474.873 526.992 477.938 522.625 478.669 521.088 482.231 516.45 482.693 518.339 489.683 511.658 488.105 511.501 493.049 509.029 495.678 505.498 497.246 506.067 502.914 501.162 503.108 501.241 508.285 497.512 509.652 496.841 514.078 495.208 517.542 487.125 514.556 484.764 517.291 480.966 518.591 483.179 525.901 480.714 528.535 475.189 528.109 471.595 529.616 469.682 532.804 469.805 538.03 469.498 542.825 466.407 544.836 459.655 543.184 456.209 544.838 456.984 550.712 451.291 550.117 453.249 557.173 449.193 558.216 446.212 560.333 442.173 561.392 438.165 562.484 438.005 567.424 435.424 569.945 430.058 569.681 427.446 572.173 429.455 579.284 428.934 583.865 423.042 583.073 417.41 582.541 420.828 591.059 418.396 593.726 414.896 595.326 412.611 598.14 408.168 598.798 406.913 602.645 403.316 604.15 399.694 605.633 399.317 610.359 394.988 611.131 393.589 614.833 388.791 615.136 390.354 621.8 385.035 621.581 383.413 625.06 382.95 629.699 373.643 625.495 372.83 629.787 370.632 632.691 366.068 633.23 364.567 636.83 361.574 638.938 358.555 641.02 360.783 648.345 359.598 652.262 352.719 650.486 351.013 653.883 349.655 657.625 346.988 660.055 342.133 660.295 340.121 663.378 337.537 665.888 339.479 672.922 332.415 670.952 328.44 672.072 327.123 675.851 323.894 677.721 326.176 685.105 317.738 681.772 315.91 685.049 316.303 690.543 311.241 690.58 313.234 697.672 305.912 695.446 304.545 699.177 301.501 701.232 303.63 708.461 299.664 709.599 294.794 709.836 295.739 715.887 287.08 712.329 288.302 718.652 286.747 722.197 282.134 722.685 282.396 728.05 275.962 726.723 273.738 729.606 270.68 731.653 268.041 734.116 268.261 739.439 261.995 738.277 262.122 743.513 257.104 743.601 255.195 746.797 256.984 753.69 248.837 750.65 252.827 759.75 250.491 762.521 246.342 763.477 240.986 763.229 236.165 763.517 233.859 766.318 233.442 771.009 229.68 772.357 227.105 774.89 227.939 780.821 223.766 781.748 221.763 784.852 217.568 785.765 214.941 788.241 211.075 789.481 208.492 792.01 208.513 797.137 209.636 803.372 207.033 805.879 202.823 806.783 198.7 807.772 193.735 807.919 191.528 810.829 193.333 817.739 187.944 817.461 185.804 820.439 182.838 822.591 177.713 822.585 177.887 825.893 175.952 825.939"/>
  <polygon points="175.952 825.939 174.486 825.514 166.605 824.745 169.305 819.347 174.697 819.653 173.707 813.578 176.92 811.705 181.657 811.356 185.839 810.453 188.424 807.953 186.364 800.808 190 799.358 198.157 802.43 195.082 794.269 201.637 795.739 204.7 793.716 205.666 789.596 206.846 785.69 210.122 783.879 211.283 779.953 214.767 778.35 214.322 772.817 217.966 771.373 225.224 773.542 225.04 768.269 230.945 769.083 228.238 761.286 230.866 758.822 238.742 761.606 236.529 754.3 242.826 755.503 240.266 747.849 245.765 748.252 245.944 743.334 254.263 746.555 251.649 738.842 254.548 736.642 259.605 736.601 260.86 732.759 265.455 732.257 266.166 727.872 266.139 722.75 271.314 722.832 272.05 718.474 276.278 717.609 280.268 716.507 282.709 713.856 284.232 710.288 286.998 707.963 289.22 705.095 289.955 700.74 293.186 698.88 293.094 693.699 295.747 691.263 303.516 693.943 305.92 691.257 309.521 689.768 309.923 685.081 313.313 683.381 314.577 679.555 319.818 679.707 322.204 677.002 324.097 673.804 327.32 671.936 325.484 665.008 329.117 663.548 329.496 658.835 332.426 656.671 340.532 659.682 338.002 652.056 342.94 651.898 346.489 650.35 348.693 647.455 351.462 645.124 352.67 641.231 354.728 638.189 357.379 635.741 356.93 630.194 361.47 629.637 365.012 628.082 367.89 625.865 371.534 624.414 371.275 619.061 376.553 619.245 374.798 612.396 383.819 616.324 381.339 608.752 385.853 608.174 390.699 607.927 390.945 603.081 394.455 601.498 393.46 595.411 397.155 594.012 401.246 593.01 400.951 587.622 406.906 588.482 408.981 585.462 409.865 581.251 412.726 579.016 417.498 578.691 418.312 574.406 422.395 573.391 425.125 571.02 424.115 564.909 426.82 562.513 428.161 558.753 435.471 560.964 439.238 559.633 438.578 553.875 440.503 550.704 445.572 550.676 444.335 544.343 452.272 547.186 449.185 539.004 456.832 541.556 456.103 535.732 459.574 534.108 458.765 528.204 462.989 527.333 465.564 524.812 467.132 521.283 472.216 521.27 477.444 521.4 475.208 514.066 478.339 512.096 480.558 509.214 487.093 510.647 488.122 506.573 487.682 501.033 494.508 502.759 496.85 500.002 497.471 495.525 501.585 494.542 502.148 490.008 507.332 490.095 507.118 484.784 511.325 483.894 515.941 483.414 519.158 481.533 518.542 475.82 523.788 475.967 522.291 469.371 526.494 468.474 528.97 465.848 533.227 465.002 532.368 459.04 536.777 458.348 539.593 456.064 539.832 451.203 540.376 446.648 543.902 445.076 548.035 444.111 554.845 445.822 552.612 438.491 555.469 436.25 559.338 435.019 563.662 434.243 564.163 429.643 565.938 426.315 568.334 423.607 570.447 420.617 575.86 420.929 576.291 416.26 575.976 410.845 582.613 412.383 584.975 409.645 587.51 407.08 592.604 407.075 595.13 404.501 592.797 397.065 597.703 396.868 598.691 392.752 602.605 391.564 604.902 388.759 607.9 386.655 606.919 380.574 614.22 382.775 617.778 381.233 616.924 375.278 619.498 372.749 621.861 370.009 624.314 367.358 624.556 362.496 631.569 364.408 630.715 358.452 638.712 361.348 637.386 354.921 637.173 349.61 646.117 353.453 646.141 348.373 647.212 344.342 654.43 346.46 655.33 342.263 654.495 336.333 661.184 337.927 662.624 334.274 660.513 327.07 668.64 330.103 668.671 325.039 673.008 324.28 674.426 320.599 679.749 320.821 680.692 316.658 684.549 315.411 685.531 311.29 687.989 308.649 691.379 306.942 689.753 300.218 694.903 300.271 695.662 295.931 697.526 292.695 701.3 291.365 704.633 289.591 710.412 290.265 710.474 285.224 709.789 279.439 717.316 281.866 716.498 275.947 719.4 273.746 720.097 269.336 725.495 269.627 724.714 263.742 731.521 265.446 734.46 263.282 736.586 260.304 738.692 257.301 741.984 255.486 744.714 253.111 748.347 251.64 748.076 246.263 751.903 244.98 750.344 238.314 755.883 238.747 756.162 233.919 758.161 230.809 765.86 233.401 768.84 231.273 768.476 225.799 769.621 221.836 770.418 217.536 778.398 220.416 778.293 215.203 780.54 212.343 782.459 209.159 787.048 208.642 788.714 205.197 791.217 202.593 793.071 199.335 798.302 199.456 801.098 197.138 799.471 190.4 804.44 190.256 808.628 189.328 809.567 185.162 810.605 181.087 813.24 178.605 819.034 179.281 816.334 171.461 824.972 174.972 824.711 166.848 830.905 169.095 830.693 175.515 830.98 180.938 824.115 179.158 824.927 185.057 822.872 188.087 817.401 187.701 814.922 190.308 811.764 192.235 812.894 198.45 805.877 196.519 801.991 197.717 803.444 204.256 803.067 208.965 798.091 209.075 794.092 210.162 792.712 213.868 792.913 219.156 784.97 216.299 787.566 223.983 785.821 227.326 780.618 227.212 776.486 228.168 775.241 232.013 772.702 234.563 767.324 234.276 765.287 237.331 762.728 239.864 764.098 246.327 756.519 243.842 756.963 249.38 757.815 255.329 754.477 257.087 751.396 259.104 748.729 261.535 744.685 262.591 741.734 264.739 742.453 270.555 739.841 273.039 736.002 274.296 733.232 276.621 730.629 279.112 726.213 279.789 723.604 282.273 720.649 284.41 721.643 290.496 713.048 286.992 712.816 291.85 708.805 292.93 708.619 297.834 705.077 299.382 703.578 302.973 703.161 307.645 698.845 308.418 694.042 308.705 690.205 309.957 691.593 316.435 688.569 318.5 687.847 322.868 684.409 324.521 680.756 325.958 677.081 327.374 673.752 329.136 670.78 331.257 667.051 332.62 666.397 337.059 666.119 341.875 661.992 342.843 659.102 345.048 660.008 351.05 653.287 349.427 649.779 351.017 652.947 359.285 649.443 360.881 643.568 360.107 640.171 361.809 641.512 368.247 637.477 369.311 632.057 368.986 632.685 374.71 630.264 377.384 630.124 382.338 624.531 381.839 618.768 381.17 620.396 387.89 617.973 390.561 610.91 388.59 614.822 397.594 609.274 397.138 606.357 399.314 603.355 401.405 600.046 403.189 597.747 405.983 594.623 407.952 596.048 414.472 593.563 417.082 590.397 419.011 585.206 418.917 582.986 421.793 578.475 422.381 578.345 427.35 579.406 433.51 575.681 434.887 570.953 435.261 568.478 437.886 562.728 437.235 566.194 445.799 563.226 447.929 556.79 446.589 556.93 451.826 554.128 454.119 553.673 458.76 545.015 455.196 543.606 458.882 540.611 460.982 541.431 466.897 540.733 471.294 534.493 470.15 530.145 470.898 529.024 474.873 526.992 477.938 522.625 478.669 521.088 482.231 516.45 482.693 518.339 489.683 511.658 488.105 511.501 493.049 509.029 495.678 505.498 497.246 506.067 502.914 501.162 503.108 501.241 508.285 497.512 509.652 496.841 514.078 495.208 517.542 487.125 514.556 484.764 517.291 480.966 518.591 483.179 525.901 480.714 528.535 475.189 528.109 471.595 529.616 469.682 532.804 469.805 538.03 469.498 542.825 466.407 544.836 459.655 543.184 456.209 544.838 456.984 550.712 451.291 550.117 453.249 557.173 449.193 558.216 446.212 560.333 442.173 561.392 438.165 562.484 438.005 567.424 435.424 569.945 430.058 569.681 427.446 572.173 429.455 579.284 428.934 583.865 423.042 583.073 417.41 582.541 420.828 591.059 418.396 593.726 414.896 595.326 412.611 598.14 408.168 598.798 406.913 602.645 403.316 604.15 399.694 605.633 399.317 610.359 394.988 611.131 393.589 614.833 388.791 615.136 390.354 621.8 385.035 621.581 383.413 625.06 382.95 629.699 373.643 625.495 372.83 629.787 370.632 632.691 366.068 633.23 364.567 636.83 361.574 638.938 358.555 641.02 360.783 648.345 359.598 652.262 352.719 650.486 351.013 653.883 349.655 657.625 346.988 660.055 342.133 660.295 340.121 663.378 337.537 665.888 339.479 672.922 332.415 670.952 328.44 672.072 327.123 675.851 323.894 677.721 326.176 685.105 317.738 681.772 315.91 685.049 316.303 690.543 311.241 690.58 313.234 697.672 305.912 695.446 304.545 699.177 301.501 701.232 303.63 708.461 299.664 709.599 294.794 709.836 295.739 715.887 287.08 712.329 288.302 718.652 286.747 722.197 282.134 722.685 282.396 728.05 275.962 726.723 273.738 729.606 270.68 731.653 268.041 734.116 268.261 739.439 261.995 738.277 262.122 743.513 257.104 743.601 255.195 746.797 256.984 753.69 248.837 750.65 252.827 759.75 250.491 762.521 246.342 763.477 240.986 763.229 236.165 763.517 233.859 766.318 233.442 771.009 229.68 772.357 227.105 774.89 227.939 780.821 223.766 781.748 221.763 784.852 217.568 785.765 214.941 788.241 211.075 789.481 208.492 792.01 208.513 797.137 209.636 803.372 207.033 805.879 202.823 806.783 198.7 807.772 193.735 807.919 191.528 810.829 193.333 817.739 187.944 817.461 185.804 820.439 182.838 822.591 177.713 822.585 177.887 825.893 175.952 825.939" style="fill: none; stroke: #000; stroke-linecap: round; stroke-linejoin: round; stroke-width: 35px;"/>
</svg>