<?xml version="1.0" encoding="UTF-8"?>
<svg id="Sticker" xmlns="http://www.w3.org/2000/svg" width="1000" height="1000" viewBox="0 0 1000 1000">
  <polygon points="528.178 127.094 529.685 131.009 536.464 128.478 536.638 134.024 538.783 137.158 540.006 141.421 547.133 138.471 550.218 140.462 549.495 147.099 552.171 149.589 553.67 153.518 559.865 151.711 560.859 156.267 564.886 155.805 569.574 161.094 572.799 159.233 573.474 149.57 578.17 152.2 583.251 156.005 584.886 149.271 588.743 149.326 591.528 146.122 596.53 149.679 597.928 142.217 603.265 146.796 604.926 140.117 608.437 139.094 611.884 136.937 616.981 143.96 619.773 136.852 623.592 142.858 627.042 142.015 631.158 138.348 633.123 145.957 637.253 143.805 639.673 146.953 645.038 143.925 648.483 145.436 651.253 147.988 649.885 155.056 655.144 154.488 656.134 158.219 656.187 162.28 660.096 163.749 661.297 167.258 661.558 171.297 665.759 173.109 671.987 173.77 673.687 176.998 672.988 181.586 673.81 185.313 677.075 187.652 678.556 191.005 681.503 193.529 677.562 199.955 683.534 200.774 683.101 207.182 688.508 206.4 692.221 205.201 695.789 206.762 699.326 208.876 703.337 202.155 706.612 209.236 710.524 204.385 714.005 207.606 717.517 210.234 721.62 201.812 724.959 207.697 728.779 204.701 732.598 201.721 735.656 208.589 738.914 209.695 743.319 206.81 746.027 210.005 748.598 212.753 753.318 211.479 753.064 218.169 761.362 213.288 763.467 216.748 763.492 221.792 762.866 226.659 763.671 230.01 768.809 230.975 775.228 232.143 767.477 238.729 776.764 239.847 772.173 244.43 771.099 248.272 771.152 251.947 774.494 255.142 773.517 258.969 774.736 262.476 780.394 265.332 773.233 270.071 773.621 273.701 778.13 276.725 783.335 279.647 779.858 283.846 776.617 288.015 779.26 292.017 785.254 289.264 788.473 290.989 789.899 296.706 792.538 299.723 798.908 294.456 802.195 296.04 804.625 299.53 807.714 301.544 808.859 307.887 812.797 308.026 818.909 303.34 820.367 309.006 822.977 312.113 825.864 313.952 829.249 314.97 834.043 314.456 833.439 320.588 837.733 321.131 841.897 322.347 841.836 326.836 843.537 329.895 850.208 330.726 847.168 335.988 846.619 339.814 845.467 343.502 849.167 346.416 845.555 350.01 852.98 353.705 851.389 357.342 851.756 361.249 844.56 363.35 849.891 368.3 845.67 371.079 847.736 375.288 842.821 377.909 841.563 381.364 842.621 385.346 846.232 389.905 841.973 392.676 842.237 396.478 838.62 399.397 838.645 403.152 833.47 408.021 837.654 412.172 846.187 408.876 846.599 413.59 844.787 420.494 847.594 422.847 850.512 425.094 853.395 427.363 858.826 427.128 861.605 429.513 861.516 434.726 867.156 434.292 869.332 437.281 872.836 438.961 871.606 444.855 873.153 447.843 881.727 446.565 878.091 452.711 883.452 454.285 879.57 459.398 882.063 462.275 884.705 465.429 881.625 469.236 885.996 472.727 884.688 476.321 885.265 480.127 882.916 483.338 882.428 486.989 880.293 490.022 876.492 491.993 876.224 495.894 874.841 499.358 870.804 501.03 868.706 504.014 869.917 509.227 865.317 510.522 864.21 514.176 862.628 517.509 859.232 519.614 855.536 521.521 854.069 524.932 855.941 530.596 855.251 534.54 846.169 534.98 850.458 539.049 850.191 543.135 850.243 547.086 859.72 546.954 856.159 552.47 857.796 555.736 859.276 559.07 858.096 563.552 865.005 564.536 868.61 566.951 868.647 570.912 864.779 576.569 868.823 578.802 870.018 582.15 872.77 585.114 869.502 589.41 874.361 592.367 871.075 596.106 873.754 599.764 867.182 602.442 875.886 607.805 874.586 611.526 869.118 613.482 871.381 618.671 864.838 619.187 859.995 619.907 860.598 624.67 858.184 627.15 853.846 627.318 855.108 634.8 847.901 630.824 845.733 634.088 843.046 636.612 843.505 643.653 837.103 640.836 833.07 641.426 829.759 643.054 828.114 647.071 824.362 648.065 825.786 656.5 819.933 654.477 816.417 655.823 811.855 658.188 813.296 663.225 812.625 666.897 814.159 670.487 814.822 674.109 811.679 677.881 816.294 681.351 811.273 685.198 819.251 688.538 820.452 692.141 812.263 696.11 817.785 699.546 815.72 703.284 818.462 706.834 818.31 710.544 817.238 714.142 811.285 716.633 810.298 719.674 811.424 723.507 811.234 727.144 809.315 730.037 809.639 734.446 808.844 738.516 807.076 742.085 798.592 738.333 798.098 742.999 795.067 744.673 794.366 750.753 789.56 749.208 787.614 754.647 781.82 747.328 778.986 751.107 775.134 750.685 772.621 755.789 767.552 750.359 763.979 751.1 762.065 758.675 758.093 757.78 753.426 754.001 751.711 762.399 747.796 761.735 744.87 765.15 740.783 763.811 738.679 764.727 737.197 766.595 730.609 768.185 735.454 773.704 733.399 776.852 726.518 778.345 724.963 781.669 731.564 787.791 722.776 788.628 728.127 794.321 722.57 796.271 720.881 799.549 727.187 805.578 720.352 807.097 717.722 809.73 721.563 815.577 720.689 819.567 713.488 819.005 714.17 824.24 712.463 827.883 705.501 825.342 703.9 828.91 700.455 829.886 699.567 836.062 695.491 836.02 691.18 834.272 688.639 839.238 684.5 836.249 680.995 835.939 677.55 835.746 674.487 832.676 670.154 837.644 666.726 835.77 663.018 835.996 659.353 835.905 656.093 832.742 651.85 837.009 648.491 834.577 644.823 834.492 641.053 835.179 637.274 835.937 634.666 827.826 630.005 835.201 628.474 834.544 627.968 836.196 624.855 838.337 620.111 839.108 620.088 843.855 612.753 842.443 613.625 847.948 612.483 851.757 606.255 851.273 602.995 853.297 605.825 860.452 604.132 863.798 599.395 864.586 596.077 866.57 594.139 869.598 589.925 870.163 588.179 873.484 586.722 877.795 583.966 880.578 577.614 875.045 576.533 882.203 573.05 883.546 569.256 883.353 565.665 884.481 561.956 884.079 558.873 877.813 554.541 883.904 550.44 884.85 546.408 884.65 546.711 874.312 540.269 879.482 538.369 875.361 533.263 877.099 530.065 875.347 528.204 871.157 524.872 869.651 522.12 867.08 517.762 867.444 516.748 861.709 512.713 861.483 511.468 856.16 505.458 859.537 504.626 853.446 499.999 855.284 495.193 853.096 492.692 856.114 490.101 858.975 486.638 860.24 482.36 860.02 478.869 861.24 478.044 867.329 472.06 863.986 471.531 870.617 466.578 869.168 465.076 874.023 463.766 879.24 457.525 875.453 455.614 879.507 453.412 884.143 447.701 877.844 444.73 879.863 441.271 879.311 438.096 887.429 434.195 886.611 431.007 881.527 427.898 879.393 423.629 881.679 420.437 879.834 418.889 874.907 412.024 879.847 409.435 876.764 408.192 872.354 404.228 871.214 401.457 868.647 404.958 860.93 401.764 858.857 397.974 857.282 391.191 858.231 391.699 853.035 389.255 850.324 389.907 845.005 387.815 842.002 379.416 844.309 378.744 840.105 374.868 838.598 375.98 832.881 374.339 827.281 369.951 834.805 365.581 829.543 362.812 836.425 358.681 832.985 354.935 832.473 351.257 832.485 347.116 828.994 343.861 832.207 340.032 831.074 336.652 833.337 333.733 839.094 329.548 835.324 326.376 839.208 322.65 839.652 318.965 837.268 315.462 836.584 311.977 836.055 307.462 839.124 304.955 834.802 302.499 831.594 297.559 833.397 294.481 831.298 291.593 828.967 291.096 824.102 289.835 820.621 286.762 818.812 282.512 817.503 280.452 814.498 281.704 809.979 282.032 806.278 275.687 804.602 277.218 800.224 278.924 795.783 278.447 792.093 268.974 791.489 272.035 786.582 272.859 782.442 265.309 781.181 265.307 777.325 268.942 772.22 269.771 768.077 263.71 766.293 263.372 762.474 260.59 758.195 256.893 757.979 253.236 757.585 249.87 756.003 244.819 761.349 241.21 760.753 238.271 757.396 235.187 754.655 230.458 758.669 228.677 750.546 223.359 756.978 219.726 756.451 216.829 752.889 212.634 753.893 212.291 744.817 206.443 749.196 205.379 743.961 200.224 745.24 196.65 743.724 199.11 736.114 193.881 736.276 193.684 732.137 191.283 729.687 187.66 727.67 189.214 723.261 184.709 721.13 185.992 717.192 182.064 714.227 180.724 710.583 180.938 706.81 180.408 703.141 183.604 699.62 182.126 695.913 184.374 692.353 183.919 688.686 185.502 685.097 183.694 681.376 186.501 677.834 185.785 674.156 189.441 670.649 189.291 666.992 183.286 663.1 186.649 658.936 181.59 658.705 180.584 653.772 179.029 649.621 176.312 647.144 169.043 651.208 170.118 643.275 166.972 641.409 163.78 639.617 159.239 639.756 154.9 639.605 150.16 640.028 150.448 633.214 148.432 629.711 146.634 626.732 137.605 631.504 141.358 622.949 135.414 623.324 132.015 621.154 134.689 615.521 135.614 611.49 129.786 610.086 128.161 606.825 126.724 603.401 128.778 599.569 128.58 596.102 126.13 592.408 127.441 588.894 131.246 586.13 129.735 582.066 127.001 576.993 135.293 576.611 134.232 572.181 134.14 568.167 138.478 566.074 140.204 562.847 140.845 559.15 141.193 555.325 140.41 551.016 145.748 549.352 147.094 545.959 149.31 542.941 150.418 539.438 146.588 535.651 145.764 533.867 146.323 529.095 141.304 528.082 140.915 523.948 139.035 520.818 139.657 515.998 137.034 513.367 132.766 511.85 132.113 507.891 131.811 503.693 123.924 504.611 127.209 497.987 123.475 496.097 124.079 491.67 123.932 488.071 120.447 485.933 117.806 483.136 121.05 478.913 118.971 475.918 120.493 472.541 115.498 469.082 116.001 465.52 112.468 461.088 120.472 459.408 116.522 454.272 116.492 450.057 118.424 446.653 121.203 443.836 125.052 442.051 131.167 442.907 133.682 440.267 132.003 433.496 135.358 431.682 140.151 431.289 144.358 430.316 147.048 427.846 150.148 425.79 151.565 422.069 149.625 415.032 151.133 411.394 153.769 408.867 156.874 406.793 160.549 406.322 160.204 403.424 160.63 399.59 157.961 396.457 163.564 391.444 160.232 388.463 154.216 386.091 158.783 381.31 157.919 377.77 158.498 373.897 151.296 371.794 151.367 368.036 152.013 364.14 152.145 360.361 154.867 356.436 152.591 353.353 148.161 349.896 150.279 346.359 155.125 343.608 154.499 340.11 148.752 334.535 155.345 333.215 156.838 330.097 153.759 323.93 163.189 326.318 161.815 320.712 164.663 318.531 167.07 315.875 169.91 313.696 173.81 313.357 175.865 309.54 178.676 306.904 184.415 310.776 187.577 308.916 188.475 302.031 193.782 304.937 195.042 298.851 200.876 302.923 203.517 299.912 204.634 293.508 211.432 299.721 211.65 291.315 217.435 295.261 221.857 292.863 219.79 287.496 220.129 283.863 219.028 280.016 225.997 277.356 218.116 272.513 219.982 269.1 222.58 265.794 224.27 262.355 223.697 258.585 224.92 255.078 222.075 250.972 222.533 247.346 225.975 244.158 225.647 240.401 232.045 238.577 230.103 234.318 233.793 232.291 236.38 230.04 237.966 227.263 236.221 221.541 238.449 218.684 243.139 218.639 242.542 211.991 247.511 212.863 248.565 206.982 252.417 206.062 256.603 206.552 261.421 211.234 264.405 209.035 267.881 210.667 271.096 202.53 275.167 210.429 278.513 204.695 282.35 208.202 285.91 206.489 289.727 209.55 292.896 200.498 296.759 204.419 300.189 200.263 304.033 203.839 307.933 208.441 311.151 200.183 316.318 206.252 314.893 199.893 322.357 199.934 318.921 193.796 319.899 190.162 322.816 187.623 326.689 185.624 330.49 183.585 331.483 179.96 333.254 176.771 330.774 171.173 334.062 168.841 332.648 163.839 339.325 163.421 343.271 161.913 344.844 159.003 342.572 152.328 348.264 152.997 351.083 151.047 353.032 147.789 354.859 143.726 361.112 148.753 361.894 141.303 366.358 143.903 369.513 142.279 372.872 141.015 376.424 145.124 379.864 141.726 382.755 145.643 386.175 145.006 391.318 139.844 393.781 144.04 396.64 147.017 401.181 144.866 405.089 144.642 407.185 149.961 410.827 150.563 415.594 147.723 417.013 155.105 423.007 148.516 425.285 153.285 427.22 159.107 430.705 160.209 435.667 158.758 439.265 156.434 438.408 149.634 446.166 153.356 443.986 144.936 446.474 142.219 454.079 145.753 457.679 144.391 455.189 135.595 460.601 136.448 463.823 134.625 465.802 131.281 470.117 130.782 473.982 129.734 474.565 124.755 476.066 120.157 482.035 123.734 484.515 120.767 487.711 119.168 492.088 122.843 495.203 122.091 498.422 122.425 501.941 113.456 505.307 117.903 509.694 114.117 512.938 116.937 515.014 122.01 518.829 121.919 523.032 121.714 526.923 122.607 528.178 127.094" style="fill: #fff;"/>
  <polygon points="528.178 127.094 529.685 131.009 536.464 128.478 536.638 134.024 538.783 137.158 540.006 141.421 547.133 138.471 550.218 140.462 549.495 147.099 552.171 149.589 553.67 153.518 559.865 151.711 560.859 156.267 564.886 155.805 569.574 161.094 572.799 159.233 573.474 149.57 578.17 152.2 583.251 156.005 584.886 149.271 588.743 149.326 591.528 146.122 596.53 149.679 597.928 142.217 603.265 146.796 604.926 140.117 608.437 139.094 611.884 136.937 616.981 143.96 619.773 136.852 623.592 142.858 627.042 142.015 631.158 138.348 633.123 145.957 637.253 143.805 639.673 146.953 645.038 143.925 648.483 145.436 651.253 147.988 649.885 155.056 655.144 154.488 656.134 158.219 656.187 162.28 660.096 163.749 661.297 167.258 661.558 171.297 665.759 173.109 671.987 173.77 673.687 176.998 672.988 181.586 673.81 185.313 677.075 187.652 678.556 191.005 681.503 193.529 677.562 199.955 683.534 200.774 683.101 207.182 688.508 206.4 692.221 205.201 695.789 206.762 699.326 208.876 703.337 202.155 706.612 209.236 710.524 204.385 714.005 207.606 717.517 210.234 721.62 201.812 724.959 207.697 728.779 204.701 732.598 201.721 735.656 208.589 738.914 209.695 743.319 206.81 746.027 210.005 748.598 212.753 753.318 211.479 753.064 218.169 761.362 213.288 763.467 216.748 763.492 221.792 762.866 226.659 763.671 230.01 768.809 230.975 775.228 232.143 767.477 238.729 776.764 239.847 772.173 244.43 771.099 248.272 771.152 251.947 774.494 255.142 773.517 258.969 774.736 262.476 780.394 265.332 773.233 270.071 773.621 273.701 778.13 276.725 783.335 279.647 779.858 283.846 776.617 288.015 779.26 292.017 785.254 289.264 788.473 290.989 789.899 296.706 792.538 299.723 798.908 294.456 802.195 296.04 804.625 299.53 807.714 301.544 808.859 307.887 812.797 308.026 818.909 303.34 820.367 309.006 822.977 312.113 825.864 313.952 829.249 314.97 834.043 314.456 833.439 320.588 837.733 321.131 841.897 322.347 841.836 326.836 843.537 329.895 850.208 330.726 847.168 335.988 846.619 339.814 845.467 343.502 849.167 346.416 845.555 350.01 852.98 353.705 851.389 357.342 851.756 361.249 844.56 363.35 849.891 368.3 845.67 371.079 847.736 375.288 842.821 377.909 841.563 381.364 842.621 385.346 846.232 389.905 841.973 392.676 842.237 396.478 838.62 399.397 838.645 403.152 833.47 408.021 837.654 412.172 846.187 408.876 846.599 413.59 844.787 420.494 847.594 422.847 850.512 425.094 853.395 427.363 858.826 427.128 861.605 429.513 861.516 434.726 867.156 434.292 869.332 437.281 872.836 438.961 871.606 444.855 873.153 447.843 881.727 446.565 878.091 452.711 883.452 454.285 879.57 459.398 882.063 462.275 884.705 465.429 881.625 469.236 885.996 472.727 884.688 476.321 885.265 480.127 882.916 483.338 882.428 486.989 880.293 490.022 876.492 491.993 876.224 495.894 874.841 499.358 870.804 501.03 868.706 504.014 869.917 509.227 865.317 510.522 864.21 514.176 862.628 517.509 859.232 519.614 855.536 521.521 854.069 524.932 855.941 530.596 855.251 534.54 846.169 534.98 850.458 539.049 850.191 543.135 850.243 547.086 859.72 546.954 856.159 552.47 857.796 555.736 859.276 559.07 858.096 563.552 865.005 564.536 868.61 566.951 868.647 570.912 864.779 576.569 868.823 578.802 870.018 582.15 872.77 585.114 869.502 589.41 874.361 592.367 871.075 596.106 873.754 599.764 867.182 602.442 875.886 607.805 874.586 611.526 869.118 613.482 871.381 618.671 864.838 619.187 859.995 619.907 860.598 624.67 858.184 627.15 853.846 627.318 855.108 634.8 847.901 630.824 845.733 634.088 843.046 636.612 843.505 643.653 837.103 640.836 833.07 641.426 829.759 643.054 828.114 647.071 824.362 648.065 825.786 656.5 819.933 654.477 816.417 655.823 811.855 658.188 813.296 663.225 812.625 666.897 814.159 670.487 814.822 674.109 811.679 677.881 816.294 681.351 811.273 685.198 819.251 688.538 820.452 692.141 812.263 696.11 817.785 699.546 815.72 703.284 818.462 706.834 818.31 710.544 817.238 714.142 811.285 716.633 810.298 719.674 811.424 723.507 811.234 727.144 809.315 730.037 809.639 734.446 808.844 738.516 807.076 742.085 798.592 738.333 798.098 742.999 795.067 744.673 794.366 750.753 789.56 749.208 787.614 754.647 781.82 747.328 778.986 751.107 775.134 750.685 772.621 755.789 767.552 750.359 763.979 751.1 762.065 758.675 758.093 757.78 753.426 754.001 751.711 762.399 747.796 761.735 744.87 765.15 740.783 763.811 738.679 764.727 737.197 766.595 730.609 768.185 735.454 773.704 733.399 776.852 726.518 778.345 724.963 781.669 731.564 787.791 722.776 788.628 728.127 794.321 722.57 796.271 720.881 799.549 727.187 805.578 720.352 807.097 717.722 809.73 721.563 815.577 720.689 819.567 713.488 819.005 714.17 824.24 712.463 827.883 705.501 825.342 703.9 828.91 700.455 829.886 699.567 836.062 695.491 836.02 691.18 834.272 688.639 839.238 684.5 836.249 680.995 835.939 677.55 835.746 674.487 832.676 670.154 837.644 666.726 835.77 663.018 835.996 659.353 835.905 656.093 832.742 651.85 837.009 648.491 834.577 644.823 834.492 641.053 835.179 637.274 835.937 634.666 827.826 630.005 835.201 628.474 834.544 627.968 836.196 624.855 838.337 620.111 839.108 620.088 843.855 612.753 842.443 613.625 847.948 612.483 851.757 606.255 851.273 602.995 853.297 605.825 860.452 604.132 863.798 599.395 864.586 596.077 866.57 594.139 869.598 589.925 870.163 588.179 873.484 586.722 877.795 583.966 880.578 577.614 875.045 576.533 882.203 573.05 883.546 569.256 883.353 565.665 884.481 561.956 884.079 558.873 877.813 554.541 883.904 550.44 884.85 546.408 884.65 546.711 874.312 540.269 879.482 538.369 875.361 533.263 877.099 530.065 875.347 528.204 871.157 524.872 869.651 522.12 867.08 517.762 867.444 516.748 861.709 512.713 861.483 511.468 856.16 505.458 859.537 504.626 853.446 499.999 855.284 495.193 853.096 492.692 856.114 490.101 858.975 486.638 860.24 482.36 860.02 478.869 861.24 478.044 867.329 472.06 863.986 471.531 870.617 466.578 869.168 465.076 874.023 463.766 879.24 457.525 875.453 455.614 879.507 453.412 884.143 447.701 877.844 444.73 879.863 441.271 879.311 438.096 887.429 434.195 886.611 431.007 881.527 427.898 879.393 423.629 881.679 420.437 879.834 418.889 874.907 412.024 879.847 409.435 876.764 408.192 872.354 404.228 871.214 401.457 868.647 404.958 860.93 401.764 858.857 397.974 857.282 391.191 858.231 391.699 853.035 389.255 850.324 389.907 845.005 387.815 842.002 379.416 844.309 378.744 840.105 374.868 838.598 375.98 832.881 374.339 827.281 369.951 834.805 365.581 829.543 362.812 836.425 358.681 832.985 354.935 832.473 351.257 832.485 347.116 828.994 343.861 832.207 340.032 831.074 336.652 833.337 333.733 839.094 329.548 835.324 326.376 839.208 322.65 839.652 318.965 837.268 315.462 836.584 311.977 836.055 307.462 839.124 304.955 834.802 302.499 831.594 297.559 833.397 294.481 831.298 291.593 828.967 291.096 824.102 289.835 820.621 286.762 818.812 282.512 817.503 280.452 814.498 281.704 809.979 282.032 806.278 275.687 804.602 277.218 800.224 278.924 795.783 278.447 792.093 268.974 791.489 272.035 786.582 272.859 782.442 265.309 781.181 265.307 777.325 268.942 772.22 269.771 768.077 263.71 766.293 263.372 762.474 260.59 758.195 256.893 757.979 253.236 757.585 249.87 756.003 244.819 761.349 241.21 760.753 238.271 757.396 235.187 754.655 230.458 758.669 228.677 750.546 223.359 756.978 219.726 756.451 216.829 752.889 212.634 753.893 212.291 744.817 206.443 749.196 205.379 743.961 200.224 745.24 196.65 743.724 199.11 736.114 193.881 736.276 193.684 732.137 191.283 729.687 187.66 727.67 189.214 723.261 184.709 721.13 185.992 717.192 182.064 714.227 180.724 710.583 180.938 706.81 180.408 703.141 183.604 699.62 182.126 695.913 184.374 692.353 183.919 688.686 185.502 685.097 183.694 681.376 186.501 677.834 185.785 674.156 189.441 670.649 189.291 666.992 183.286 663.1 186.649 658.936 181.59 658.705 180.584 653.772 179.029 649.621 176.312 647.144 169.043 651.208 170.118 643.275 166.972 641.409 163.78 639.617 159.239 639.756 154.9 639.605 150.16 640.028 150.448 633.214 148.432 629.711 146.634 626.732 137.605 631.504 141.358 622.949 135.414 623.324 132.015 621.154 134.689 615.521 135.614 611.49 129.786 610.086 128.161 606.825 126.724 603.401 128.778 599.569 128.58 596.102 126.13 592.408 127.441 588.894 131.246 586.13 129.735 582.066 127.001 576.993 135.293 576.611 134.232 572.181 134.14 568.167 138.478 566.074 140.204 562.847 140.845 559.15 141.193 555.325 140.41 551.016 145.748 549.352 147.094 545.959 149.31 542.941 150.418 539.438 146.588 535.651 145.764 533.867 146.323 529.095 141.304 528.082 140.915 523.948 139.035 520.818 139.657 515.998 137.034 513.367 132.766 511.85 132.113 507.891 131.811 503.693 123.924 504.611 127.209 497.987 123.475 496.097 124.079 491.67 123.932 488.071 120.447 485.933 117.806 483.136 121.05 478.913 118.971 475.918 120.493 472.541 115.498 469.082 116.001 465.52 112.468 461.088 120.472 459.408 116.522 454.272 116.492 450.057 118.424 446.653 121.203 443.836 125.052 442.051 131.167 442.907 133.682 440.267 132.003 433.496 135.358 431.682 140.151 431.289 144.358 430.316 147.048 427.846 150.148 425.79 151.565 422.069 149.625 415.032 151.133 411.394 153.769 408.867 156.874 406.793 160.549 406.322 160.204 403.424 160.63 399.59 157.961 396.457 163.564 391.444 160.232 388.463 154.216 386.091 158.783 381.31 157.919 377.77 158.498 373.897 151.296 371.794 151.367 368.036 152.013 364.14 152.145 360.361 154.867 356.436 152.591 353.353 148.161 349.896 150.279 346.359 155.125 343.608 154.499 340.11 148.752 334.535 155.345 333.215 156.838 330.097 153.759 323.93 163.189 326.318 161.815 320.712 164.663 318.531 167.07 315.875 169.91 313.696 173.81 313.357 175.865 309.54 178.676 306.904 184.415 310.776 187.577 308.916 188.475 302.031 193.782 304.937 195.042 298.851 200.876 302.923 203.517 299.912 204.634 293.508 211.432 299.721 211.65 291.315 217.435 295.261 221.857 292.863 219.79 287.496 220.129 283.863 219.028 280.016 225.997 277.356 218.116 272.513 219.982 269.1 222.58 265.794 224.27 262.355 223.697 258.585 224.92 255.078 222.075 250.972 222.533 247.346 225.975 244.158 225.647 240.401 232.045 238.577 230.103 234.318 233.793 232.291 236.38 230.04 237.966 227.263 236.221 221.541 238.449 218.684 243.139 218.639 242.542 211.991 247.511 212.863 248.565 206.982 252.417 206.062 256.603 206.552 261.421 211.234 264.405 209.035 267.881 210.667 271.096 202.53 275.167 210.429 278.513 204.695 282.35 208.202 285.91 206.489 289.727 209.55 292.896 200.498 296.759 204.419 300.189 200.263 304.033 203.839 307.933 208.441 311.151 200.183 316.318 206.252 314.893 199.893 322.357 199.934 318.921 193.796 319.899 190.162 322.816 187.623 326.689 185.624 330.49 183.585 331.483 179.96 333.254 176.771 330.774 171.173 334.062 168.841 332.648 163.839 339.325 163.421 343.271 161.913 344.844 159.003 342.572 152.328 348.264 152.997 351.083 151.047 353.032 147.789 354.859 143.726 361.112 148.753 361.894 141.303 366.358 143.903 369.513 142.279 372.872 141.015 376.424 145.124 379.864 141.726 382.755 145.643 386.175 145.006 391.318 139.844 393.781 144.04 396.64 147.017 401.181 144.866 405.089 144.642 407.185 149.961 410.827 150.563 415.594 147.723 417.013 155.105 423.007 148.516 425.285 153.285 427.22 159.107 430.705 160.209 435.667 158.758 439.265 156.434 438.408 149.634 446.166 153.356 443.986 144.936 446.474 142.219 454.079 145.753 457.679 144.391 455.189 135.595 460.601 136.448 463.823 134.625 465.802 131.281 470.117 130.782 473.982 129.734 474.565 124.755 476.066 120.157 482.035 123.734 484.515 120.767 487.711 119.168 492.088 122.843 495.203 122.091 498.422 122.425 501.941 113.456 505.307 117.903 509.694 114.117 512.938 116.937 515.014 122.01 518.829 121.919 523.032 121.714 526.923 122.607 528.178 127.094" style="fill: none; stroke: #000; stroke-linecap: round; stroke-linejoin: round; stroke-width: 35px;"/>
</svg>