<?xml version="1.0" encoding="UTF-8"?>
<svg id="Sticker" xmlns="http://www.w3.org/2000/svg" width="1000" height="1000" viewBox="0 0 1000 1000">
  <g>
    <polyline points="850.829 558.416 849.37 554.179 844.111 555.325 843.851 549.381 838.532 550.609 838.358 544.548 834.842 543.223 830.167 543.54 830.445 536.831 824.55 538.876 822.306 535.747 817.82 535.793 815.669 532.528 815.219 526.856 812.715 524.093 809.757 521.97 806.669 520.036 802.672 519.387 795.795 522.821 794.867 517.822 794.333 512.269 791.393 510.133 785.207 512.592 781.49 511.545 781.991 504.526 776.578 505.883 777.07 498.872 770.34 502.094 769.156 497.458 764.786 497.334 761.291 495.967 761.893 488.794 754.84 492.478 751.394 491.042 750.088 486.572 746.068 485.947 746.406 479.136 739.743 482.247" style="fill: none; stroke: #000; stroke-linecap: round; stroke-linejoin: round; stroke-width: 35px;"/>
    <polyline points="704.092 688.227 695.738 688.521 698.646 682.877 700.163 677.964 691.915 678.199 690.643 674.759 687.746 672.175 687.853 668.007 685.44 665.163 684.888 661.342 683.519 657.952 680.424 655.47 678.958 652.128 678.893 648.05 676.112 645.402 674.361 642.21 676.269 637.092 675.068 633.609 672.794 630.694 665.127 630.621 663.142 627.552 665.541 622.18 664.207 618.772 659.24 617.275 658.23 613.696 657.987 609.709 660.028 604.519 656.31 602.362 650.778 601.163 655.303 594.661 653.399 591.546 647.272 590.657 645.023 587.729 641.886 585.264 643.163 580.472 643.951 575.936 637.276 575.328 642.598 568.396" style="fill: none; stroke: #000; stroke-linecap: round; stroke-linejoin: round; stroke-width: 35px;"/>
    <polyline points="504.872 739.688 506.291 736.032 511.047 732.329 505.862 728.762 501.749 725.181 510.401 721.423 501.759 717.907 503.578 714.244 510.305 710.509 504.121 706.957 509.02 703.251 508.718 699.617 508.186 695.984 502.987 692.418 508.232 688.705 509.408 685.048 510.028 681.401 502.804 677.861 502.787 674.221 502.325 670.587 505.907 666.897 502.857 663.298 504.758 659.631 506.803 655.963 503.898 652.367 508.321 648.665 508.314 645.026 504.851 641.432 507.695 637.753 504.059 634.162 504.286 630.516 506.777 626.838 505.233 623.217 506.995 619.55 509.315 615.875 507.103 612.262 509.23 608.583 509.244 604.934" style="fill: none; stroke: #000; stroke-linecap: round; stroke-linejoin: round; stroke-width: 35px;"/>
    <polyline points="314.783 697.824 316.439 694.588 315.115 689.883 313.254 684.912 319.86 684.107 321.092 680.661 318.243 675.206 326.19 675.063 327.336 671.569 322.756 665.261 324.347 661.99 325.851 658.675 327.719 655.537 332.82 653.993 336.664 651.829 336.995 647.934 337.611 644.182 341.849 642.21 337.609 636.068 338.968 632.679 343.73 630.966 344.461 627.276 350.26 626.077 349.918 621.851 348.618 617.158 349.907 613.734 356.922 613.131 353.561 607.417 355.171 604.153 360.087 602.513 358.195 597.521 362.033 595.349 364.76 592.635 364.093 588.246 367.051 585.641 365.606 580.867 369.71 578.818 366.961 573.397" style="fill: none; stroke: #000; stroke-linecap: round; stroke-linejoin: round; stroke-width: 35px;"/>
    <polyline points="156.219 568.068 159.269 566.077 161.169 562.545 164.157 560.465 169.373 561.363 168.027 553.493 173.764 555.091 175.732 551.649 181.842 553.74 182.101 548.013 186.334 547.6 187.613 543.235 193.803 545.434 196.858 543.444 199.276 540.601 201.471 537.458 204.085 534.878 203.309 527.763 209.205 529.569 210.403 525.093 215.114 525.319 214.481 518.406 222.267 522.743 224.254 519.321 223.672 512.471 230.519 515.547 232.996 512.783 236.191 510.973 236.992 505.967 242.562 507.332 242.534 501.212 247.026 501.134 248.754 497.369 252.823 496.726 255.494 494.212 257.39 490.662 262.553 491.469 261.269 483.657" style="fill: none; stroke: #000; stroke-linecap: round; stroke-linejoin: round; stroke-width: 35px;"/>
  </g>
  <polyline points="816.214 340.617 814.368 343.791 814.353 347.667 809.123 349.401 808.222 352.901 808.603 356.974 811.717 362.325 802.89 362.252 803.023 366.264 803.113 370.291 802.215 373.865 795.187 374.37 796.43 379.011 793.636 381.598 797.653 387.793 794.215 390.054 790.54 392.149 787.486 394.555 786.398 398.061 787.805 403.037 780.469 402.889 785.754 410.25 776.735 408.971 779.999 415.221 776.533 417.301 771.22 418.15 771.432 422.562 769.125 425.337 767.675 428.688 767.813 433.153 767.164 437.117 758.392 435.289 760.822 441.469 756.281 442.59 759.108 449.215 753.146 449.215 752.272 453.095 750.265 456.11 745.271 456.712 741.12 457.93 738.755 460.593 736.731 463.544 737.205 468.678 732.575 469.376 733.102 474.658 733.593 480.005 727.195 478.995 727.15 483.915 722.793 484.726 717.251 484.291 719.596 491.723 718.709 496.014 710.132 492.275 709.447 496.767 706.42 498.773 705.695 503.339 699.893 502.191 699.524 507.24 697.164 510.029 697.071 515.605 692.043 515.174 689.044 517.209 685.658 518.729 679.666 516.739 677.12 519.262 674.168 521.237 671.475 523.578 673.292 532.564 668.574 532.054 662.184 528.827 660.487 532.774 656.686 533.401 655.826 538.887 650.744 537.308 650.405 543.936 646.39 544.149 641.92 543.415 642.221 551.765 638.458 552.428 633.278 550.109 630.484 552.609 628.801 557.62 624.436 556.772 622.1 560.539 617.013 557.757 613.409 558.423 611.667 563.94 606.796 561.224 604.428 565.323 599.413 561.794 596.591 564.665 593.024 565.277 591.039 571.242 587.67 572.746 582.125 566.111 580.58 574.538 576.853 574.661 572.514 571.974 568.461 570.206 565.985 576.069 562.73 578.453 558.838 577.387 554.77 574.924 550.619 571.36 548.368 581.312 544.679 581.297 540.879 580.154 537.004 577.819 533.788 582.632 529.602 575.306 526.441 582.278 522.826 583.041 518.974 577.425 515.52 583.131 511.786 576.056 508.217 579.325 504.574 582.531 500.981 580.341 497.439 578.11 493.616 582.956 490.087 580.758 486.792 575.882 482.799 580.846 479.701 574.979 476.167 574.459 472.347 576.381 468.106 581.076 465.08 576.413 461.636 575.093 457.457 578.247 454.803 572.461 450.453 576.096 447.86 570.691 444.745 568.209 439.513 575.029 436.133 573.496 434.063 566.961 430.583 566.161 427.672 563.35 423.557 564.746 419.88 564.527 416.403 563.625 413.153 562.032 408.896 563.338 406.766 558.637 402.507 559.803 400.091 556.105 395.784 557.221 394.138 551.847 387.886 557.327 386.928 550.575 383.778 548.881 380.402 547.671 377.957 544.547 373.193 546.099 371.518 541.532 364.809 546.546 360.995 545.93 359.561 541.029 355.085 541.553 356.208 532.509 349.044 537.462 349.364 530.06 344.615 530.873 341.42 529.176 340.114 524.635 333.376 528.171 331.889 523.934 328.787 522.056 328.227 516.675 322.923 517.815 319.456 516.398 319.547 510.354 315.825 509.29 311.644 508.751 312.028 502.586 309.08 500.55 303.06 502.106 300.897 499.078 299.855 494.809 298.798 490.624 292.244 492.49 288.226 491.49 287.002 487.5 288.472 480.777 281.538 482.739 283.879 475.282 279.372 474.718 277.548 471.496 273.508 470.401 272.7 466.234 269.545 464.278 266.053 462.605 261.012 462.281 259.674 458.635 258.861 454.566 253.714 454.222 254.132 449.148 252.659 445.701 252.488 441.217 247.369 440.74 242.057 440.342 240.055 437.306 239.031 433.528 236.872 430.63 238.438 424.974 233.443 424.187 231.676 421.018 227.038 419.888 231.401 412.425 221.376 414.985 224.864 408.232 224.919 403.882 215.297 405.928 218.815 399.324 211.696 399.604 212.196 395.006 209.806 392.236 212.98 386.075 204.294 387.101 203.475 383.366 202.878 379.522 205.606 373.809 202.068 371.69 202.624 367.291 197.387 366.065 196.959 362.222 192.222 360.64 194.344 355.512 195.033 351.178 190.237 349.561 184.069 348.513 187.897 342.769 187.034 340.337" style="fill: none; stroke: #000; stroke-linecap: round; stroke-linejoin: round; stroke-width: 35px;"/>
</svg>