<?xml version="1.0" encoding="UTF-8"?>
<svg id="Stickers" xmlns="http://www.w3.org/2000/svg" width="1000" height="1000" viewBox="0 0 1000 1000">
  <polygon points="499.978 112.071 504.423 118.594 499.333 125.68 508.267 124.669 506.045 130.1 510.849 131.474 510.259 135.962 515.326 137.185 514.852 141.607 519.216 143.236 518.099 148.03 523.105 149.287 521.15 154.563 520.169 159.276 526.324 159.868 524.85 164.864 527.638 167.398 527.804 171.446 528.791 175.02 532.64 176.941 531.734 181.607 538.885 181.62 542.322 183.778 538.223 190.286 541.204 192.706 548.148 192.839 545.385 198.575 545.249 202.795 551.799 203.154 551.792 207.299 556.987 208.441 555.18 213.626 558.589 215.799 562.152 217.884 557.259 224.851 566.676 223.556 564.491 228.96 565.617 232.454 570.444 233.81 566 240.52 571.068 241.739 576.712 242.626 577.121 246.536 576.918 250.8 575.719 255.64 581.847 256.25 585.053 258.549 583.069 263.845 586.334 266.109 586.258 270.302 586.094 274.545 590.471 276.166 590.9 280.065 592.286 283.411 598.653 283.881 599.878 287.319 597.104 293.065 601.313 294.779 601.11 299.04 609.377 298.411 610.103 302.136 606.01 308.642 607.589 311.875 616.131 311.087 611.514 317.896 613.265 321.029 622.238 319.993 616.431 327.49 624.365 327.055 621.177 333.04 628.166 333.151 624.939 339.161 632.587 338.893 633.769 342.358 632.964 346.973 634.315 350.342 638.959 351.812 636.798 357.211 641.166 358.839 640.029 363.644 647.416 363.528 644.285 369.483 644.855 373.301 651.587 373.561 654.456 376.051 652.598 381.27 658.697 381.894 659.067 385.826 660.728 389.013 663.609 391.495 665.383 394.617 666.703 398 666.245 402.411 665.72 406.861 670.973 407.976 667.15 414.331 669.009 417.406 673.697 418.85 675.553 421.929 676.868 425.322 682.459 426.245 681.452 430.977 680.704 435.558 688.903 434.973 687.563 439.895 689.325 443.026 686.444 448.836 689.503 451.217 690.922 454.545 694.664 456.532 695.233 460.351 698.764 462.459 700.716 465.48 703.317 468.127 701.632 473.249 704.591 475.691 705.25 479.461 711.426 480.048 711.215 484.322 709.993 489.178 717.136 489.204 715.187 494.479 715.368 498.523 719.721 500.158 725.35 501.057 723.959 506.008 726.229 508.846 730.383 510.597 730.814 514.497 730.42 518.874 737.723 518.809 731.853 526.35 733.657 529.461 743.039 528.196 742.915 532.418 740.838 537.768 743.902 540.149 747.993 541.936 751.645 543.976 753.213 547.221 753.095 551.438 749.156 557.863 756.791 557.606 757.203 561.52 755.863 566.447 761.844 567.146 766.271 568.742 763.274 574.622 767.549 576.304 770.389 578.815 771.207 582.493 767.677 588.681 771.124 590.842 776.493 591.895 776.107 596.271 778.748 598.899 781.963 601.194 783.757 604.31 787.34 606.391 788.174 610.061 790.431 612.909 793.408 615.342 790.57 621.134 790.435 625.365 796.946 625.758 795.248 630.89 795.306 635.007 801.874 635.367 803.306 638.693 802.777 643.151 803.968 646.617 809.394 647.637 810.428 651.186 812.645 654.053 809.646 659.935 816.763 659.979 816.224 664.443 815.338 669.104 818.535 671.407 823.259 672.826 820.391 678.629 823.778 680.82 827.952 682.558 824.673 688.601 829.919 689.723 830.355 693.627 833.934 695.713 835.959 698.695 837.382 702.023 840.818 704.188 842.558 707.333 843.686 710.833 843.775 714.936 843.646 719.165 846.462 721.691 852.152 722.557 854.74 725.214 854.687 729.397 853.26 734.377 853.317 738.498 861.214 738.091 860.977 742.381 866.671 743.247 867.121 747.145 863.267 753.524 864.196 757.141 872.508 756.497 873.72 759.954 870.287 766.09 873.632 768.314 877.461 770.261 879.391 773.301 884.263 774.646 884.6 778.607 888.364 780.591 885.757 786.249 885.909 790.311 891.309 791.346 888.494 797.129 891.437 799.583 891.077 803.948 900.938 802.411 897.81 808.376 903.687 809.14 906.602 811.616 902.534 818.125 905.146 820.778 907.172 823.764 913.644 824.188 913.443 828.465 915.214 831.604 914.747 836.043 915.617 838.297 913.255 838.696 909.664 843.613 906.072 843.479 902.48 842.986 898.887 841.062 895.295 841.498 891.702 837.279 888.108 843.386 884.515 841.252 880.922 835.825 877.329 836.411 873.737 834.416 870.144 840.15 866.552 839.296 862.96 836.747 859.369 835.448 855.777 836.098 852.185 842.975 848.594 841.369 845.002 834.858 841.411 838.142 837.819 842.225 834.227 842.269 830.635 841.715 827.043 839.687 823.45 837.354 819.857 835.107 816.264 841.712 812.67 834.135 809.077 839.28 805.484 841.101 801.891 840.144 798.299 839.044 794.706 835.529 791.119 835.116 787.532 839.751 783.945 840.397 780.357 836.878 776.768 843.99 773.179 836.239 769.59 843.525 766 839.951 762.409 834.196 758.818 839.286 755.225 842.249 751.632 836.087 748.039 842.869 744.445 841.847 740.853 842.822 737.261 841.797 733.67 841.278 730.079 835.58 726.489 834.196 722.899 841.101 719.31 834.805 715.721 835.19 712.132 841.224 708.544 835.083 704.956 838.489 701.368 839.515 697.78 842.314 694.192 838.964 690.604 842.196 687.016 842.16 683.428 838.127 679.839 842.005 676.25 834.481 672.661 839.5 669.072 842.877 665.482 840.554 661.891 839.209 658.3 838.853 654.708 834.783 651.115 839.55 647.522 843.99 643.928 834.641 640.333 837.248 636.74 842.801 633.147 834.485 629.555 835.36 625.964 837.318 622.373 837.339 618.782 843.667 615.192 839.152 611.602 843.002 608.013 842.17 604.423 840.075 600.833 840.81 597.244 835.983 593.654 836.734 590.064 834.141 586.474 838.019 582.883 841.318 579.292 839.383 575.7 836.642 572.107 839.652 568.514 840.663 564.92 841.188 561.325 838.344 557.73 843.917 554.137 840.604 550.544 835.399 546.951 834.903 543.359 839.197 539.768 842.639 536.177 837.848 532.586 836.078 528.995 835.368 525.404 836.388 521.813 838.638 518.221 843.327 514.63 838.412 511.037 842.589 507.445 840.403 503.851 834.838 500.257 836.162 496.661 837.441 493.066 843.462 489.472 842.075 485.879 837.951 482.286 834.853 478.693 843.188 475.101 836.878 471.509 836.017 467.917 838.17 464.325 839.893 460.733 843.202 457.14 841.448 453.547 837.935 449.952 836.537 446.357 842.539 442.761 842.495 439.166 837.242 435.572 834.598 431.978 837.099 428.385 838.057 424.792 841.262 421.2 843.382 417.607 839.809 414.014 834.162 410.42 842.475 406.826 843.114 403.23 835.186 399.634 836.239 396.039 838.197 392.444 837.105 388.85 840.155 385.257 835.01 381.663 841.961 378.07 843.319 374.476 838.864 370.881 838.803 367.285 835.289 363.689 840.64 360.093 840.581 356.499 840.111 352.905 841.458 349.311 840.165 345.716 834.701 342.122 839.193 338.526 837.785 334.93 836.825 331.334 841.959 327.739 842.541 324.144 838.019 320.55 841.652 316.955 835.887 313.359 839.028 309.763 841.39 306.167 840.003 302.571 843.594 298.976 841.536 295.381 839.876 291.786 836.054 288.189 839.922 284.593 836.891 280.997 840.267 277.402 838.874 273.812 834.043 270.221 841.91 266.631 842.568 263.04 840.397 259.447 842.564 255.853 838.369 252.255 841.307 248.66 840.596 245.066 838.191 241.473 834.719 237.881 841.33 234.288 840.183 230.694 838.027 227.097 837.342 223.5 834.622 219.905 836.136 216.311 840.563 212.717 839.176 209.122 839.725 205.524 840.371 201.926 835.42 198.331 838.518 194.736 840.317 191.139 836.873 187.54 834.905 183.943 835.81 180.347 834.521 176.75 837.598 173.151 841.45 169.554 841.229 165.956 841.488 162.357 842.451 158.76 839.993 155.16 840.888 151.562 836.833 147.963 843.662 144.364 839.36 140.765 834.464 137.17 843.485 133.571 839.874 129.975 841.712 126.376 842.07 122.779 839.498 119.178 840.241 115.58 834.128 111.979 843.163 108.378 839.415 104.776 843.866 101.174 841.371 97.573 835.331 93.972 840.71 90.369 834.877 86.761 843.914 85.962 837.363 82.432 834.436 87.206 833.045 87.434 829.029 86.767 824.497 87.885 820.994 94.623 820.737 96.805 817.849 94.119 812.15 97.49 809.946 100.346 807.447 101.564 804.002 100.565 799.279 102.265 796.114 105.357 793.753 109.661 792.094 112.998 789.876 113.711 786.144 114.084 782.215 114.487 778.305 116.287 775.202 120.652 773.579 120.962 769.617 125.294 767.976 128.197 765.51 127.428 760.925 133.524 760.304 133.811 756.328 131.026 750.579 133.565 747.904 136.468 745.439 134.764 740.314 137.329 737.653 144.473 737.636 148.002 735.531 149.157 732.056 149.127 727.895 151.212 724.956 151.676 721.081 151.518 716.845 155.389 714.935 160.24 713.59 158.914 708.679 161.756 706.172 161.039 701.611 167.863 701.402 168.146 697.416 168.992 693.754 167.083 688.502 168.979 685.448 171.826 682.943 173.983 680.041 173.043 675.352 181.418 676.041 176.42 669.009 182.073 668.128 181.974 663.927 184.981 661.518 187.484 658.819 190.791 656.585 192.582 653.475 190.265 647.993 194.163 646.1 194.533 642.17 202.021 642.35 197.81 635.775 200.493 633.179 207.16 632.884 203.938 626.878 210.748 626.665 207.983 620.923 212.392 619.321 213.97 616.085 217.321 613.872 214.141 607.887 216.012 604.817 220.666 603.353 219.868 598.741 226.678 598.523 223.147 592.335 223.934 588.641 226.643 586.058 228.167 582.79 228.051 578.577 233.027 577.304 239.781 577.057 238.135 571.961 238.874 568.242 238.933 564.131 242.348 561.957 242.776 558.058 242.908 553.988 249.662 553.741 252.431 551.193 251.849 546.71 256.071 544.999 256.101 540.867 256.701 537.064 261.649 535.77 258.224 529.64 260.236 526.651 264.608 525.025 262.343 519.567 270.62 520.197 268.026 514.552 269.645 511.339 276.415 511.1 273.203 505.099 274.852 501.904 280.928 501.264 280.741 497.009 278.657 491.658 284.342 490.793 289.437 489.586 284.768 482.741 286.859 479.798 293.223 479.321 297.508 477.643 296.115 472.687 298.132 469.7 300.369 466.842 301.953 463.607 298.854 457.669 308.13 458.876 307.319 454.26 307.431 450.176 313.546 449.558 306.861 441.549 316.489 442.959 312.393 436.444 317.85 435.444 317.251 430.946 320.275 428.539 318.197 423.188 321.926 421.19 322.522 417.384 330.602 417.899 329.756 413.261 334.206 411.681 334.363 407.623 338.247 405.716 337.727 401.265 338.547 397.587 338.569 393.448 338.038 388.988 345.779 389.305 347.377 386.077 344.08 380.023 352.52 380.745 355.011 378.033 348.746 370.266 350.085 366.888 356.457 366.416 360.504 364.6 359.205 359.696 361.906 357.104 363.814 354.054 367.237 351.88 365.659 346.817 365.492 342.57 371.676 341.989 376.427 340.58 376.861 336.677 373.987 330.865 379.561 329.931 375.589 323.486 384.998 324.768 386.906 321.718 386.344 317.241 387.218 313.592 388.722 310.307 392.687 308.444 392.751 304.335 392.908 300.278 399.359 299.852 393.728 292.448 398.262 290.913 404.349 290.277 399.781 283.492 402.828 281.104 403.011 277.063 411.331 277.72 411.454 273.643 416.088 272.169 412.256 265.805 417.693 264.789 414.049 258.532 415.135 255.009 419.291 253.259 425.133 252.483 420.288 245.536 429.692 246.814 425.015 239.959 428.652 237.905 433.15 236.349 436.269 234 435.454 229.378 439.466 227.541 440.854 224.187 444.383 222.07 443.409 217.355 443.187 213.075 445.185 210.074 450.804 209.161 448.112 203.453 447.74 199.085 453.499 198.255 457.437 196.372 458.508 192.836 459.498 189.252 464.494 187.979 458.398 180.305 464.704 179.788 464.196 175.339 464.794 171.528 470.72 170.796 470.432 166.48 476.225 165.671 475.038 160.828 479.581 159.299 475.856 152.99 481.782 152.256 480.682 147.462 485.098 145.854 486.169 142.314 486.624 138.416 485.343 133.516 486.871 130.242 495.977 131.339 493.943 126.003 495.945 122.997 498.13 120.106 499.978 112.071" style="fill: #fff;"/>
  <polygon points="499.978 112.071 504.423 118.594 499.333 125.68 508.267 124.669 506.045 130.1 510.849 131.474 510.259 135.962 515.326 137.185 514.852 141.607 519.216 143.236 518.099 148.03 523.105 149.287 521.15 154.563 520.169 159.276 526.324 159.868 524.85 164.864 527.638 167.398 527.804 171.446 528.791 175.02 532.64 176.941 531.734 181.607 538.885 181.62 542.322 183.778 538.223 190.286 541.204 192.706 548.148 192.839 545.385 198.575 545.249 202.795 551.799 203.154 551.792 207.299 556.987 208.441 555.18 213.626 558.589 215.799 562.152 217.884 557.259 224.851 566.676 223.556 564.491 228.96 565.617 232.454 570.444 233.81 566 240.52 571.068 241.739 576.712 242.626 577.121 246.536 576.918 250.8 575.719 255.64 581.847 256.25 585.053 258.549 583.069 263.845 586.334 266.109 586.258 270.302 586.094 274.545 590.471 276.166 590.9 280.065 592.286 283.411 598.653 283.881 599.878 287.319 597.104 293.065 601.313 294.779 601.11 299.04 609.377 298.411 610.103 302.136 606.01 308.642 607.589 311.875 616.131 311.087 611.514 317.896 613.265 321.029 622.238 319.993 616.431 327.49 624.365 327.055 621.177 333.04 628.166 333.151 624.939 339.161 632.587 338.893 633.769 342.358 632.964 346.973 634.315 350.342 638.959 351.812 636.798 357.211 641.166 358.839 640.029 363.644 647.416 363.528 644.285 369.483 644.855 373.301 651.587 373.561 654.456 376.051 652.598 381.27 658.697 381.894 659.067 385.826 660.728 389.013 663.609 391.495 665.383 394.617 666.703 398 666.245 402.411 665.72 406.861 670.973 407.976 667.15 414.331 669.009 417.406 673.697 418.85 675.553 421.929 676.868 425.322 682.459 426.245 681.452 430.977 680.704 435.558 688.903 434.973 687.563 439.895 689.325 443.026 686.444 448.836 689.503 451.217 690.922 454.545 694.664 456.532 695.233 460.351 698.764 462.459 700.716 465.48 703.317 468.127 701.632 473.249 704.591 475.691 705.25 479.461 711.426 480.048 711.215 484.322 709.993 489.178 717.136 489.204 715.187 494.479 715.368 498.523 719.721 500.158 725.35 501.057 723.959 506.008 726.229 508.846 730.383 510.597 730.814 514.497 730.42 518.874 737.723 518.809 731.853 526.35 733.657 529.461 743.039 528.196 742.915 532.418 740.838 537.768 743.902 540.149 747.993 541.936 751.645 543.976 753.213 547.221 753.095 551.438 749.156 557.863 756.791 557.606 757.203 561.52 755.863 566.447 761.844 567.146 766.271 568.742 763.274 574.622 767.549 576.304 770.389 578.815 771.207 582.493 767.677 588.681 771.124 590.842 776.493 591.895 776.107 596.271 778.748 598.899 781.963 601.194 783.757 604.31 787.34 606.391 788.174 610.061 790.431 612.909 793.408 615.342 790.57 621.134 790.435 625.365 796.946 625.758 795.248 630.89 795.306 635.007 801.874 635.367 803.306 638.693 802.777 643.151 803.968 646.617 809.394 647.637 810.428 651.186 812.645 654.053 809.646 659.935 816.763 659.979 816.224 664.443 815.338 669.104 818.535 671.407 823.259 672.826 820.391 678.629 823.778 680.82 827.952 682.558 824.673 688.601 829.919 689.723 830.355 693.627 833.934 695.713 835.959 698.695 837.382 702.023 840.818 704.188 842.558 707.333 843.686 710.833 843.775 714.936 843.646 719.165 846.462 721.691 852.152 722.557 854.74 725.214 854.687 729.397 853.26 734.377 853.317 738.498 861.214 738.091 860.977 742.381 866.671 743.247 867.121 747.145 863.267 753.524 864.196 757.141 872.508 756.497 873.72 759.954 870.287 766.09 873.632 768.314 877.461 770.261 879.391 773.301 884.263 774.646 884.6 778.607 888.364 780.591 885.757 786.249 885.909 790.311 891.309 791.346 888.494 797.129 891.437 799.583 891.077 803.948 900.938 802.411 897.81 808.376 903.687 809.14 906.602 811.616 902.534 818.125 905.146 820.778 907.172 823.764 913.644 824.188 913.443 828.465 915.214 831.604 914.747 836.043 915.617 838.297 913.255 838.696 909.664 843.613 906.072 843.479 902.48 842.986 898.887 841.062 895.295 841.498 891.702 837.279 888.108 843.386 884.515 841.252 880.922 835.825 877.329 836.411 873.737 834.416 870.144 840.15 866.552 839.296 862.96 836.747 859.369 835.448 855.777 836.098 852.185 842.975 848.594 841.369 845.002 834.858 841.411 838.142 837.819 842.225 834.227 842.269 830.635 841.715 827.043 839.687 823.45 837.354 819.857 835.107 816.264 841.712 812.67 834.135 809.077 839.28 805.484 841.101 801.891 840.144 798.299 839.044 794.706 835.529 791.119 835.116 787.532 839.751 783.945 840.397 780.357 836.878 776.768 843.99 773.179 836.239 769.59 843.525 766 839.951 762.409 834.196 758.818 839.286 755.225 842.249 751.632 836.087 748.039 842.869 744.445 841.847 740.853 842.822 737.261 841.797 733.67 841.278 730.079 835.58 726.489 834.196 722.899 841.101 719.31 834.805 715.721 835.19 712.132 841.224 708.544 835.083 704.956 838.489 701.368 839.515 697.78 842.314 694.192 838.964 690.604 842.196 687.016 842.16 683.428 838.127 679.839 842.005 676.25 834.481 672.661 839.5 669.072 842.877 665.482 840.554 661.891 839.209 658.3 838.853 654.708 834.783 651.115 839.55 647.522 843.99 643.928 834.641 640.333 837.248 636.74 842.801 633.147 834.485 629.555 835.36 625.964 837.318 622.373 837.339 618.782 843.667 615.192 839.152 611.602 843.002 608.013 842.17 604.423 840.075 600.833 840.81 597.244 835.983 593.654 836.734 590.064 834.141 586.474 838.019 582.883 841.318 579.292 839.383 575.7 836.642 572.107 839.652 568.514 840.663 564.92 841.188 561.325 838.344 557.73 843.917 554.137 840.604 550.544 835.399 546.951 834.903 543.359 839.197 539.768 842.639 536.177 837.848 532.586 836.078 528.995 835.368 525.404 836.388 521.813 838.638 518.221 843.327 514.63 838.412 511.037 842.589 507.445 840.403 503.851 834.838 500.257 836.162 496.661 837.441 493.066 843.462 489.472 842.075 485.879 837.951 482.286 834.853 478.693 843.188 475.101 836.878 471.509 836.017 467.917 838.17 464.325 839.893 460.733 843.202 457.14 841.448 453.547 837.935 449.952 836.537 446.357 842.539 442.761 842.495 439.166 837.242 435.572 834.598 431.978 837.099 428.385 838.057 424.792 841.262 421.2 843.382 417.607 839.809 414.014 834.162 410.42 842.475 406.826 843.114 403.23 835.186 399.634 836.239 396.039 838.197 392.444 837.105 388.85 840.155 385.257 835.01 381.663 841.961 378.07 843.319 374.476 838.864 370.881 838.803 367.285 835.289 363.689 840.64 360.093 840.581 356.499 840.111 352.905 841.458 349.311 840.165 345.716 834.701 342.122 839.193 338.526 837.785 334.93 836.825 331.334 841.959 327.739 842.541 324.144 838.019 320.55 841.652 316.955 835.887 313.359 839.028 309.763 841.39 306.167 840.003 302.571 843.594 298.976 841.536 295.381 839.876 291.786 836.054 288.189 839.922 284.593 836.891 280.997 840.267 277.402 838.874 273.812 834.043 270.221 841.91 266.631 842.568 263.04 840.397 259.447 842.564 255.853 838.369 252.255 841.307 248.66 840.596 245.066 838.191 241.473 834.719 237.881 841.33 234.288 840.183 230.694 838.027 227.097 837.342 223.5 834.622 219.905 836.136 216.311 840.563 212.717 839.176 209.122 839.725 205.524 840.371 201.926 835.42 198.331 838.518 194.736 840.317 191.139 836.873 187.54 834.905 183.943 835.81 180.347 834.521 176.75 837.598 173.151 841.45 169.554 841.229 165.956 841.488 162.357 842.451 158.76 839.993 155.16 840.888 151.562 836.833 147.963 843.662 144.364 839.36 140.765 834.464 137.17 843.485 133.571 839.874 129.975 841.712 126.376 842.07 122.779 839.498 119.178 840.241 115.58 834.128 111.979 843.163 108.378 839.415 104.776 843.866 101.174 841.371 97.573 835.331 93.972 840.71 90.369 834.877 86.761 843.914 85.962 837.363 82.432 834.436 87.206 833.045 87.434 829.029 86.767 824.497 87.885 820.994 94.623 820.737 96.805 817.849 94.119 812.15 97.49 809.946 100.346 807.447 101.564 804.002 100.565 799.279 102.265 796.114 105.357 793.753 109.661 792.094 112.998 789.876 113.711 786.144 114.084 782.215 114.487 778.305 116.287 775.202 120.652 773.579 120.962 769.617 125.294 767.976 128.197 765.51 127.428 760.925 133.524 760.304 133.811 756.328 131.026 750.579 133.565 747.904 136.468 745.439 134.764 740.314 137.329 737.653 144.473 737.636 148.002 735.531 149.157 732.056 149.127 727.895 151.212 724.956 151.676 721.081 151.518 716.845 155.389 714.935 160.24 713.59 158.914 708.679 161.756 706.172 161.039 701.611 167.863 701.402 168.146 697.416 168.992 693.754 167.083 688.502 168.979 685.448 171.826 682.943 173.983 680.041 173.043 675.352 181.418 676.041 176.42 669.009 182.073 668.128 181.974 663.927 184.981 661.518 187.484 658.819 190.791 656.585 192.582 653.475 190.265 647.993 194.163 646.1 194.533 642.17 202.021 642.35 197.81 635.775 200.493 633.179 207.16 632.884 203.938 626.878 210.748 626.665 207.983 620.923 212.392 619.321 213.97 616.085 217.321 613.872 214.141 607.887 216.012 604.817 220.666 603.353 219.868 598.741 226.678 598.523 223.147 592.335 223.934 588.641 226.643 586.058 228.167 582.79 228.051 578.577 233.027 577.304 239.781 577.057 238.135 571.961 238.874 568.242 238.933 564.131 242.348 561.957 242.776 558.058 242.908 553.988 249.662 553.741 252.431 551.193 251.849 546.71 256.071 544.999 256.101 540.867 256.701 537.064 261.649 535.77 258.224 529.64 260.236 526.651 264.608 525.025 262.343 519.567 270.62 520.197 268.026 514.552 269.645 511.339 276.415 511.1 273.203 505.099 274.852 501.904 280.928 501.264 280.741 497.009 278.657 491.658 284.342 490.793 289.437 489.586 284.768 482.741 286.859 479.798 293.223 479.321 297.508 477.643 296.115 472.687 298.132 469.7 300.369 466.842 301.953 463.607 298.854 457.669 308.13 458.876 307.319 454.26 307.431 450.176 313.546 449.558 306.861 441.549 316.489 442.959 312.393 436.444 317.85 435.444 317.251 430.946 320.275 428.539 318.197 423.188 321.926 421.19 322.522 417.384 330.602 417.899 329.756 413.261 334.206 411.681 334.363 407.623 338.247 405.716 337.727 401.265 338.547 397.587 338.569 393.448 338.038 388.988 345.779 389.305 347.377 386.077 344.08 380.023 352.52 380.745 355.011 378.033 348.746 370.266 350.085 366.888 356.457 366.416 360.504 364.6 359.205 359.696 361.906 357.104 363.814 354.054 367.237 351.88 365.659 346.817 365.492 342.57 371.676 341.989 376.427 340.58 376.861 336.677 373.987 330.865 379.561 329.931 375.589 323.486 384.998 324.768 386.906 321.718 386.344 317.241 387.218 313.592 388.722 310.307 392.687 308.444 392.751 304.335 392.908 300.278 399.359 299.852 393.728 292.448 398.262 290.913 404.349 290.277 399.781 283.492 402.828 281.104 403.011 277.063 411.331 277.72 411.454 273.643 416.088 272.169 412.256 265.805 417.693 264.789 414.049 258.532 415.135 255.009 419.291 253.259 425.133 252.483 420.288 245.536 429.692 246.814 425.015 239.959 428.652 237.905 433.15 236.349 436.269 234 435.454 229.378 439.466 227.541 440.854 224.187 444.383 222.07 443.409 217.355 443.187 213.075 445.185 210.074 450.804 209.161 448.112 203.453 447.74 199.085 453.499 198.255 457.437 196.372 458.508 192.836 459.498 189.252 464.494 187.979 458.398 180.305 464.704 179.788 464.196 175.339 464.794 171.528 470.72 170.796 470.432 166.48 476.225 165.671 475.038 160.828 479.581 159.299 475.856 152.99 481.782 152.256 480.682 147.462 485.098 145.854 486.169 142.314 486.624 138.416 485.343 133.516 486.871 130.242 495.977 131.339 493.943 126.003 495.945 122.997 498.13 120.106 499.978 112.071" style="fill: none; stroke: #000; stroke-linecap: round; stroke-linejoin: round; stroke-width: 30px;"/>
</svg>