<?xml version="1.0" encoding="UTF-8"?>
<svg id="Small" xmlns="http://www.w3.org/2000/svg" width="500" height="500" viewBox="0 0 500 500">
  <path d="M249.999,58.285c1.893-.008,1.545,1.509,2.491,3.149s.309,2.007,1.256,3.646c.946,1.639-.185,2.292.761,3.932.946,1.639,1.193,1.497,2.139,3.136.946,1.639,2.789.576,3.735,2.215s-.007,2.19.94,3.83,1.876,1.103,2.823,2.743c.947,1.64.708,1.778,1.655,3.418.947,1.641-.2,2.303.748,3.943.947,1.641,2.208.913,3.156,2.554s.477,1.912,1.424,3.552.451,1.926,1.398,3.566.84,1.702,1.787,3.342,1.685,1.214,2.631,2.853c.947,1.64-.087,2.236.859,3.876.947,1.64,2.799.57,3.746,2.209s-.083,2.234.863,3.874c.947,1.64.568,1.858,1.515,3.498s.888,1.674,1.835,3.314c.947,1.64.027,2.171.974,3.812s2.533.725,3.48,2.366,1.351,1.408,2.298,3.05c.947,1.641.132,2.111,1.079,3.752s.885,1.676,1.832,3.317c.947,1.64.527,1.883,1.474,3.523s1.407,1.374,2.354,3.014c.947,1.64,1.118,1.541,2.065,3.181.947,1.64-.489,2.469.457,4.109.947,1.64,3.328.265,4.275,1.905.947,1.64-.786,2.641.161,4.281.947,1.641.496,1.901,1.444,3.542s3.271.3,4.219,1.941-.716,2.601.231,4.242c.947,1.64,1.504,1.319,2.451,2.959.947,1.64.549,1.87,1.496,3.51s2.277.872,3.223,2.513-1.279,2.925-.332,4.566c.947,1.64,2.484.753,3.431,2.393.947,1.641-.68,2.58.267,4.221.948,1.641,2.382.813,3.329,2.454s1.245,1.469,2.192,3.11-.273,2.345.674,3.986.921,1.656,1.868,3.296,1.803,1.146,2.75,2.787-.05,2.216.897,3.856c.947,1.641,2.249.889,3.196,2.53s.258,2.039,1.205,3.681,1.995,1.036,2.942,2.678c.947,1.641.154,2.099,1.102,3.739.947,1.641,1.865,1.11,2.813,2.751s.283,2.024,1.23,3.665c.947,1.641.467,1.918,1.414,3.559s1.646,1.238,2.593,2.879c.947,1.641,1.043,1.585,1.991,3.226.947,1.64.412,1.949,1.359,3.588.946,1.639,1.614,1.254,2.56,2.893.946,1.639,0,2.185.946,3.824.946,1.638.776,1.737,1.722,3.375.946,1.638,1.235,1.472,2.181,3.11.946,1.639,1.059,1.574,2.005,3.213s.135,2.108,1.081,3.748,2.742.604,3.689,2.245.525,1.886,1.473,3.527c.947,1.641.33,1.997,1.278,3.638.947,1.64,1.499,1.321,2.446,2.961s-.594,2.529.353,4.168,2.284.867,3.231,2.506c.947,1.64-.396,2.415.551,4.054.947,1.64,2.661.651,3.608,2.291.948,1.641,1.151,1.524,2.098,3.166.948,1.642.872,1.685,1.82,3.327.947,1.641-.633,2.553.314,4.194s2.86.535,3.807,2.175-1.271,2.921-.324,4.561.881,1.679,1.829,3.32,2.849.544,3.797,2.186c.948,1.642,1.52,1.311,2.468,2.953s-1.526,3.068-.578,4.709c.947,1.641,1.063,1.574,2.01,3.214.948,1.641.754,1.753,1.702,3.394s1.865,1.113,2.813,2.756,2.58.699,3.527,2.34c.947,1.641.368,1.975,1.316,3.616s.296,2.018,1.244,3.66,1.464,1.344,2.412,2.987-.887,2.701.061,4.342c.948,1.642,1.142,1.53,2.09,3.172.948,1.642,2.083.987,3.031,2.63.948,1.642,1.823,1.136,2.771,2.778s.402,1.958,1.35,3.601c.948,1.642.033,2.17.981,3.813.948,1.642,2.486.755,3.434,2.397.948,1.642-.96,2.744-.012,4.386.947,1.64,2.143.949,3.09,2.588s1.374,1.394,2.321,3.035.364,1.98,1.312,3.623.665,1.804,1.613,3.445.654,1.813,1.603,3.455,2.047,1.007,2.995,2.649.037,2.17.986,3.813c.948,1.642,2.195.922,3.144,2.565s.314,2.01,1.263,3.653c.949,1.644.756,1.755,1.705,3.399s-.215,2.316.734,3.96c.948,1.642,2.099.977,3.047,2.619.949,1.644.573,1.861,1.522,3.505s1.526,1.311,2.475,2.955c.949,1.644-.674,2.582.276,4.226.951,1.647,1.824,1.143,2.775,2.79.951,1.647,2.996,1.292,2.052,2.944s-1.663,1.074-3.556,1.074-1.893-1.13-3.785-1.13c-1.893,0-1.893,1.32-3.785,1.32-1.893,0-1.893-2.491-3.786-2.491s-1.893.354-3.786.354c-1.893,0-1.893,1.576-3.786,1.576-1.893,0-1.893.927-3.787.927-1.894,0-1.894-1.42-3.788-1.42s-1.894-1.525-3.789-1.525c-1.895,0-1.895.23-3.79.23s-1.894,1.943-3.789,1.943-1.894.606-3.788.606c-1.894,0-1.894-2.066-3.787-2.066s-1.893-.334-3.787-.334c-1.893,0-1.893-.288-3.786-.288s-1.893,2.135-3.786,2.135-1.893-.406-3.786-.406-1.893-.862-3.787-.862c-1.894,0-1.894-.161-3.787-.161-1.894,0-1.894.246-3.788.246s-1.894-.598-3.789-.598c-1.895,0-1.895,1.571-3.79,1.571s-1.894.604-3.789.604-1.894-2.513-3.788-2.513-1.894,1.169-3.788,1.169c-1.894,0-1.894.093-3.787.093s-1.894-1.116-3.787-1.116c-1.894,0-1.894.166-3.787.166s-1.894,1.664-3.788,1.664-1.894-1.521-3.788-1.521c-1.895,0-1.895-.289-3.789-.289-1.895,0-1.895,1.61-3.79,1.61s-1.895.161-3.789.161-1.894-.857-3.788-.857c-1.894,0-1.894.581-3.788.581-1.894,0-1.894,1.033-3.788,1.033s-1.894-2.449-3.788-2.449-1.894.287-3.788.287-1.895-.348-3.789-.348c-1.895,0-1.895.632-3.79.632-1.895,0-1.895,1.153-3.79,1.153s-1.894-1.16-3.789-1.16c-1.894,0-1.894,1.947-3.788,1.947s-1.894-1.478-3.788-1.478c-1.894,0-1.894.339-3.788.339s-1.895-1.187-3.789-1.187c-1.895,0-1.895.691-3.79.691-1.895,0-1.895,1.166-3.79,1.166s-1.895-1.886-3.789-1.886c-1.894,0-1.894.691-3.789.691s-1.894.905-3.789.905c-1.895,0-1.895-2.111-3.789-2.111s-1.895.758-3.79.758-1.895,1.491-3.79,1.491-1.895-.616-3.789-.616-1.894-.866-3.789-.866-1.895-.333-3.789-.333c-1.895,0-1.895,2.11-3.79,2.11-1.895,0-1.895.18-3.79.18-1.892,0-1.892.055-3.784.055s-1.893-2.486-3.786-2.486c-1.894,0-1.894.58-3.788.58-1.895,0-1.895.718-3.791.718-1.894,0-1.894,1.098-3.789,1.098s-1.893-1.147-3.787-1.147c-1.893,0-1.893.874-3.786.874-1.893,0-1.893-2.322-3.785-2.322-1.893,0-1.893,1.18-3.786,1.18s-1.894-.7-3.788-.7c-1.895,0-1.895.864-3.79.864-1.895,0-1.895-1.252-3.791-1.252-1.894,0-1.894,2.089-3.788,2.089s-1.894-1.602-3.787-1.602c-1.894,0-1.894,1.076-3.787,1.076-1.894,0-1.894-.609-3.789-.609-1.896,0-1.896-.255-3.791-.255s-1.895,1.314-3.791,1.314c-1.894,0-1.894-2.144-3.789-2.144s-1.894.743-3.788.743-1.895.931-3.79.931c-1.896,0-1.896-1.525-3.793-1.525s-1.895,2.575-3.79,2.575-1.895-2.226-3.789-2.226-1.896,2.126-3.791,2.126-1.896-.726-3.792-.726c-1.895,0-1.895-.499-3.79-.499s-1.896-1.178-3.791-1.178c-1.896,0-1.896,2.071-3.793,2.071-1.895,0-1.895-2.025-3.791-2.025-1.896,0-1.896.953-3.793.953s-1.896-.354-3.792-.354c-1.896,0-1.896-.324-3.792-.324s-1.896,1.935-3.792,1.935c-1.897,0-1.897-1.62-3.793-1.62s-1.896.099-3.792.099-1.896.911-3.792.911-1.894.27-3.788.27c-1.896,0-1.896-2.034-3.793-2.034-1.895,0-1.895,1.574-3.79,1.574s-1.897-1.702-3.794-1.702-1.896.1-3.792.1-1.897,2.411-3.794,2.411c-1.898,0-1.898-1.681-3.795-1.681-1.898,0-1.898.629-3.795.629-1.898,0-1.898-.523-3.795-.523-1.897,0-1.897,1.496-3.794,1.496s-1.897-.232-3.795-.232c-1.898,0-1.898-1.469-3.796-1.469-1.901,0-1.901.142-3.802.142s-3.281,2.448-4.237.806,2.676-1.146,3.622-2.785c.946-1.639.501-1.896,1.448-3.535s-.115-2.252.832-3.891q.946-1.639,1.887-3.282c.946-1.639,2.273-.873,3.219-2.513.947-1.64-.022-2.199.924-3.838.947-1.64,1.8-1.147,2.746-2.787.947-1.64-.801-2.65.145-4.29.947-1.641,2.608-.682,3.555-2.322.947-1.641.264-2.035,1.212-3.676s1.014-1.602,1.961-3.243c.947-1.64-.348-2.388.599-4.028s1.953-1.059,2.9-2.699,1.73-1.188,2.676-2.827,1.144-1.525,2.091-3.165c.947-1.64.555-1.866,1.501-3.505s.037-2.165.983-3.804.997-1.611,1.944-3.25,1.361-1.401,2.307-3.041c.947-1.64,1.859-1.114,2.806-2.754.947-1.641-.226-2.318.721-3.959s-.232-2.322.716-3.963,2.178-.93,3.126-2.571.375-1.971,1.322-3.611c.947-1.64,1.301-1.436,2.248-3.076s1.334-1.416,2.281-3.056c.947-1.64,1.136-1.531,2.082-3.171s.701-1.782,1.647-3.422.344-1.988,1.291-3.628c.947-1.64.29-2.02,1.237-3.66s3.346-.256,4.293-1.897c.948-1.641.686-1.792,1.634-3.433s.318-2.004,1.265-3.645c.947-1.64-.459-2.452.489-4.092s1.78-1.159,2.727-2.799c.947-1.64,1.098-1.553,2.045-3.193.947-1.64.827-1.709,1.774-3.349.947-1.64.382-1.967,1.329-3.607.947-1.641,1.667-1.225,2.614-2.866s.87-1.686,1.818-3.327.553-1.868,1.501-3.509,2.332-.841,3.279-2.482c.947-1.64-.322-2.373.625-4.013.947-1.64,1.611-1.257,2.558-2.897s.567-1.86,1.514-3.5c.947-1.641.074-2.145,1.022-3.785s2.684-.638,3.632-2.28.948-1.641,1.896-3.282c.947-1.641-.693-2.588.254-4.228.947-1.641,1.196-1.497,2.143-3.137s1.948-1.063,2.895-2.703c.947-1.641.973-1.626,1.92-3.267s1.612-1.257,2.56-2.898c.947-1.641.109-2.125,1.056-3.766.947-1.64.526-1.883,1.473-3.522.946-1.639.973-1.624,1.919-3.263.946-1.639,1.883-1.097,2.829-2.736.946-1.638-.603-2.532.343-4.171s1.959-1.053,2.905-2.692.728-1.765,1.674-3.403c.947-1.639.15-2.099,1.097-3.739.947-1.64,1.004-1.607,1.951-3.248.948-1.642.852-1.697,1.799-3.339.947-1.641,1.722-1.194,2.669-2.835s.687-1.79,1.634-3.43c.947-1.639,1.301-1.435,2.247-3.075s.331-1.995,1.278-3.634c.947-1.64,1.381-1.389,2.328-3.028s.031-2.169.978-3.81.828-1.711,1.775-3.352c.948-1.642.906-1.666,1.853-3.308.947-1.641,1.483-1.331,2.43-2.972.947-1.64,2.372-.818,3.319-2.458s.387-1.963,1.334-3.604,1.225-1.48,2.172-3.121c.948-1.642-.168-2.286.78-3.928s1.596-1.268,2.543-2.909c.947-1.641,2.048-1.005,2.995-2.646s-.523-2.49.424-4.13c.948-1.641,1.948-1.064,2.896-2.705s-.849-2.68.099-4.323,2.361-.825,3.309-2.467c.947-1.641-.436-2.44.511-4.081.948-1.642,1.108-1.549,2.056-3.191.948-1.642,2.209-.914,3.157-2.557.948-1.641,1.517-1.313,2.465-2.954s.344-1.991,1.292-3.632-.194-2.302.755-3.944,1.142-1.53,2.09-3.171c.948-1.643,2.78-.585,3.728-2.228.948-1.642.722-1.773,1.67-3.415s.227-2.059,1.176-3.701c.948-1.642.684-1.795,1.632-3.437s-.081-2.233.866-3.872,1.431-1.362,2.378-3.002.424-1.945,1.373-3.588c.947-1.641,2.478-.757,3.426-2.398s-.244-2.331.705-3.974,2.537-.725,3.485-2.366c.949-1.643-.883-2.701.066-4.344.948-1.642,3.003-.456,3.952-2.098.949-1.643-.448-2.45.5-4.093.949-1.644.868-1.69,1.818-3.334.949-1.644,1.651-1.238,2.601-2.882s.669-1.803,1.617-3.445.178-2.089,1.127-3.733,2.014-1.029,2.964-2.673c.949-1.644,1.461-1.349,2.41-2.994.951-1.647,1.266-1.703,1.778-3.534.592-2.115-.568-3.66,1.334-3.668Z"/>
  <path d="M249.999,58.285c1.893-.008,1.545,1.509,2.491,3.149s.309,2.007,1.256,3.646c.946,1.639-.185,2.292.761,3.932.946,1.639,1.193,1.497,2.139,3.136.946,1.639,2.789.576,3.735,2.215s-.007,2.19.94,3.83,1.876,1.103,2.823,2.743c.947,1.64.708,1.778,1.655,3.418.947,1.641-.2,2.303.748,3.943.947,1.641,2.208.913,3.156,2.554s.477,1.912,1.424,3.552.451,1.926,1.398,3.566.84,1.702,1.787,3.342,1.685,1.214,2.631,2.853c.947,1.64-.087,2.236.859,3.876.947,1.64,2.799.57,3.746,2.209s-.083,2.234.863,3.874c.947,1.64.568,1.858,1.515,3.498s.888,1.674,1.835,3.314c.947,1.64.027,2.171.974,3.812s2.533.725,3.48,2.366,1.351,1.408,2.298,3.05c.947,1.641.132,2.111,1.079,3.752s.885,1.676,1.832,3.317c.947,1.64.527,1.883,1.474,3.523s1.407,1.374,2.354,3.014c.947,1.64,1.118,1.541,2.065,3.181.947,1.64-.489,2.469.457,4.109.947,1.64,3.328.265,4.275,1.905.947,1.64-.786,2.641.161,4.281.947,1.641.496,1.901,1.444,3.542s3.271.3,4.219,1.941-.716,2.601.231,4.242c.947,1.64,1.504,1.319,2.451,2.959.947,1.64.549,1.87,1.496,3.51s2.277.872,3.223,2.513-1.279,2.925-.332,4.566c.947,1.64,2.484.753,3.431,2.393.947,1.641-.68,2.58.267,4.221.948,1.641,2.382.813,3.329,2.454s1.245,1.469,2.192,3.11-.273,2.345.674,3.986.921,1.656,1.868,3.296,1.803,1.146,2.75,2.787-.05,2.216.897,3.856c.947,1.641,2.249.889,3.196,2.53s.258,2.039,1.205,3.681,1.995,1.036,2.942,2.678c.947,1.641.154,2.099,1.102,3.739.947,1.641,1.865,1.11,2.813,2.751s.283,2.024,1.23,3.665c.947,1.641.467,1.918,1.414,3.559s1.646,1.238,2.593,2.879c.947,1.641,1.043,1.585,1.991,3.226.947,1.64.412,1.949,1.359,3.588.946,1.639,1.614,1.254,2.56,2.893.946,1.639,0,2.185.946,3.824.946,1.638.776,1.737,1.722,3.375.946,1.638,1.235,1.472,2.181,3.11.946,1.639,1.059,1.574,2.005,3.213s.135,2.108,1.081,3.748,2.742.604,3.689,2.245.525,1.886,1.473,3.527c.947,1.641.33,1.997,1.278,3.638.947,1.64,1.499,1.321,2.446,2.961s-.594,2.529.353,4.168,2.284.867,3.231,2.506c.947,1.64-.396,2.415.551,4.054.947,1.64,2.661.651,3.608,2.291.948,1.641,1.151,1.524,2.098,3.166.948,1.642.872,1.685,1.82,3.327.947,1.641-.633,2.553.314,4.194s2.86.535,3.807,2.175-1.271,2.921-.324,4.561.881,1.679,1.829,3.32,2.849.544,3.797,2.186c.948,1.642,1.52,1.311,2.468,2.953s-1.526,3.068-.578,4.709c.947,1.641,1.063,1.574,2.01,3.214.948,1.641.754,1.753,1.702,3.394s1.865,1.113,2.813,2.756,2.58.699,3.527,2.34c.947,1.641.368,1.975,1.316,3.616s.296,2.018,1.244,3.66,1.464,1.344,2.412,2.987-.887,2.701.061,4.342c.948,1.642,1.142,1.53,2.09,3.172.948,1.642,2.083.987,3.031,2.63.948,1.642,1.823,1.136,2.771,2.778s.402,1.958,1.35,3.601c.948,1.642.033,2.17.981,3.813.948,1.642,2.486.755,3.434,2.397.948,1.642-.96,2.744-.012,4.386.947,1.64,2.143.949,3.09,2.588s1.374,1.394,2.321,3.035.364,1.98,1.312,3.623.665,1.804,1.613,3.445.654,1.813,1.603,3.455,2.047,1.007,2.995,2.649.037,2.17.986,3.813c.948,1.642,2.195.922,3.144,2.565s.314,2.01,1.263,3.653c.949,1.644.756,1.755,1.705,3.399s-.215,2.316.734,3.96c.948,1.642,2.099.977,3.047,2.619.949,1.644.573,1.861,1.522,3.505s1.526,1.311,2.475,2.955c.949,1.644-.674,2.582.276,4.226.951,1.647,1.824,1.143,2.775,2.79.951,1.647,2.996,1.292,2.052,2.944s-1.663,1.074-3.556,1.074-1.893-1.13-3.785-1.13c-1.893,0-1.893,1.32-3.785,1.32-1.893,0-1.893-2.491-3.786-2.491s-1.893.354-3.786.354c-1.893,0-1.893,1.576-3.786,1.576-1.893,0-1.893.927-3.787.927-1.894,0-1.894-1.42-3.788-1.42s-1.894-1.525-3.789-1.525c-1.895,0-1.895.23-3.79.23s-1.894,1.943-3.789,1.943-1.894.606-3.788.606c-1.894,0-1.894-2.066-3.787-2.066s-1.893-.334-3.787-.334c-1.893,0-1.893-.288-3.786-.288s-1.893,2.135-3.786,2.135-1.893-.406-3.786-.406-1.893-.862-3.787-.862c-1.894,0-1.894-.161-3.787-.161-1.894,0-1.894.246-3.788.246s-1.894-.598-3.789-.598c-1.895,0-1.895,1.571-3.79,1.571s-1.894.604-3.789.604-1.894-2.513-3.788-2.513-1.894,1.169-3.788,1.169c-1.894,0-1.894.093-3.787.093s-1.894-1.116-3.787-1.116c-1.894,0-1.894.166-3.787.166s-1.894,1.664-3.788,1.664-1.894-1.521-3.788-1.521c-1.895,0-1.895-.289-3.789-.289-1.895,0-1.895,1.61-3.79,1.61s-1.895.161-3.789.161-1.894-.857-3.788-.857c-1.894,0-1.894.581-3.788.581-1.894,0-1.894,1.033-3.788,1.033s-1.894-2.449-3.788-2.449-1.894.287-3.788.287-1.895-.348-3.789-.348c-1.895,0-1.895.632-3.79.632-1.895,0-1.895,1.153-3.79,1.153s-1.894-1.16-3.789-1.16c-1.894,0-1.894,1.947-3.788,1.947s-1.894-1.478-3.788-1.478c-1.894,0-1.894.339-3.788.339s-1.895-1.187-3.789-1.187c-1.895,0-1.895.691-3.79.691-1.895,0-1.895,1.166-3.79,1.166s-1.895-1.886-3.789-1.886c-1.894,0-1.894.691-3.789.691s-1.894.905-3.789.905c-1.895,0-1.895-2.111-3.789-2.111s-1.895.758-3.79.758-1.895,1.491-3.79,1.491-1.895-.616-3.789-.616-1.894-.866-3.789-.866-1.895-.333-3.789-.333c-1.895,0-1.895,2.11-3.79,2.11-1.895,0-1.895.18-3.79.18-1.892,0-1.892.055-3.784.055s-1.893-2.486-3.786-2.486c-1.894,0-1.894.58-3.788.58-1.895,0-1.895.718-3.791.718-1.894,0-1.894,1.098-3.789,1.098s-1.893-1.147-3.787-1.147c-1.893,0-1.893.874-3.786.874-1.893,0-1.893-2.322-3.785-2.322-1.893,0-1.893,1.18-3.786,1.18s-1.894-.7-3.788-.7c-1.895,0-1.895.864-3.79.864-1.895,0-1.895-1.252-3.791-1.252-1.894,0-1.894,2.089-3.788,2.089s-1.894-1.602-3.787-1.602c-1.894,0-1.894,1.076-3.787,1.076-1.894,0-1.894-.609-3.789-.609-1.896,0-1.896-.255-3.791-.255s-1.895,1.314-3.791,1.314c-1.894,0-1.894-2.144-3.789-2.144s-1.894.743-3.788.743-1.895.931-3.79.931c-1.896,0-1.896-1.525-3.793-1.525s-1.895,2.575-3.79,2.575-1.895-2.226-3.789-2.226-1.896,2.126-3.791,2.126-1.896-.726-3.792-.726c-1.895,0-1.895-.499-3.79-.499s-1.896-1.178-3.791-1.178c-1.896,0-1.896,2.071-3.793,2.071-1.895,0-1.895-2.025-3.791-2.025-1.896,0-1.896.953-3.793.953s-1.896-.354-3.792-.354c-1.896,0-1.896-.324-3.792-.324s-1.896,1.935-3.792,1.935c-1.897,0-1.897-1.62-3.793-1.62s-1.896.099-3.792.099-1.896.911-3.792.911-1.894.27-3.788.27c-1.896,0-1.896-2.034-3.793-2.034-1.895,0-1.895,1.574-3.79,1.574s-1.897-1.702-3.794-1.702-1.896.1-3.792.1-1.897,2.411-3.794,2.411c-1.898,0-1.898-1.681-3.795-1.681-1.898,0-1.898.629-3.795.629-1.898,0-1.898-.523-3.795-.523-1.897,0-1.897,1.496-3.794,1.496s-1.897-.232-3.795-.232c-1.898,0-1.898-1.469-3.796-1.469-1.901,0-1.901.142-3.802.142s-3.281,2.448-4.237.806,2.676-1.146,3.622-2.785c.946-1.639.501-1.896,1.448-3.535s-.115-2.252.832-3.891q.946-1.639,1.887-3.282c.946-1.639,2.273-.873,3.219-2.513.947-1.64-.022-2.199.924-3.838.947-1.64,1.8-1.147,2.746-2.787.947-1.64-.801-2.65.145-4.29.947-1.641,2.608-.682,3.555-2.322.947-1.641.264-2.035,1.212-3.676s1.014-1.602,1.961-3.243c.947-1.64-.348-2.388.599-4.028s1.953-1.059,2.9-2.699,1.73-1.188,2.676-2.827,1.144-1.525,2.091-3.165c.947-1.64.555-1.866,1.501-3.505s.037-2.165.983-3.804.997-1.611,1.944-3.25,1.361-1.401,2.307-3.041c.947-1.64,1.859-1.114,2.806-2.754.947-1.641-.226-2.318.721-3.959s-.232-2.322.716-3.963,2.178-.93,3.126-2.571.375-1.971,1.322-3.611c.947-1.64,1.301-1.436,2.248-3.076s1.334-1.416,2.281-3.056c.947-1.64,1.136-1.531,2.082-3.171s.701-1.782,1.647-3.422.344-1.988,1.291-3.628c.947-1.64.29-2.02,1.237-3.66s3.346-.256,4.293-1.897c.948-1.641.686-1.792,1.634-3.433s.318-2.004,1.265-3.645c.947-1.64-.459-2.452.489-4.092s1.78-1.159,2.727-2.799c.947-1.64,1.098-1.553,2.045-3.193.947-1.64.827-1.709,1.774-3.349.947-1.64.382-1.967,1.329-3.607.947-1.641,1.667-1.225,2.614-2.866s.87-1.686,1.818-3.327.553-1.868,1.501-3.509,2.332-.841,3.279-2.482c.947-1.64-.322-2.373.625-4.013.947-1.64,1.611-1.257,2.558-2.897s.567-1.86,1.514-3.5c.947-1.641.074-2.145,1.022-3.785s2.684-.638,3.632-2.28.948-1.641,1.896-3.282c.947-1.641-.693-2.588.254-4.228.947-1.641,1.196-1.497,2.143-3.137s1.948-1.063,2.895-2.703c.947-1.641.973-1.626,1.92-3.267s1.612-1.257,2.56-2.898c.947-1.641.109-2.125,1.056-3.766.947-1.64.526-1.883,1.473-3.522.946-1.639.973-1.624,1.919-3.263.946-1.639,1.883-1.097,2.829-2.736.946-1.638-.603-2.532.343-4.171s1.959-1.053,2.905-2.692.728-1.765,1.674-3.403c.947-1.639.15-2.099,1.097-3.739.947-1.64,1.004-1.607,1.951-3.248.948-1.642.852-1.697,1.799-3.339.947-1.641,1.722-1.194,2.669-2.835s.687-1.79,1.634-3.43c.947-1.639,1.301-1.435,2.247-3.075s.331-1.995,1.278-3.634c.947-1.64,1.381-1.389,2.328-3.028s.031-2.169.978-3.81.828-1.711,1.775-3.352c.948-1.642.906-1.666,1.853-3.308.947-1.641,1.483-1.331,2.43-2.972.947-1.64,2.372-.818,3.319-2.458s.387-1.963,1.334-3.604,1.225-1.48,2.172-3.121c.948-1.642-.168-2.286.78-3.928s1.596-1.268,2.543-2.909c.947-1.641,2.048-1.005,2.995-2.646s-.523-2.49.424-4.13c.948-1.641,1.948-1.064,2.896-2.705s-.849-2.68.099-4.323,2.361-.825,3.309-2.467c.947-1.641-.436-2.44.511-4.081.948-1.642,1.108-1.549,2.056-3.191.948-1.642,2.209-.914,3.157-2.557.948-1.641,1.517-1.313,2.465-2.954s.344-1.991,1.292-3.632-.194-2.302.755-3.944,1.142-1.53,2.09-3.171c.948-1.643,2.78-.585,3.728-2.228.948-1.642.722-1.773,1.67-3.415s.227-2.059,1.176-3.701c.948-1.642.684-1.795,1.632-3.437s-.081-2.233.866-3.872,1.431-1.362,2.378-3.002.424-1.945,1.373-3.588c.947-1.641,2.478-.757,3.426-2.398s-.244-2.331.705-3.974,2.537-.725,3.485-2.366c.949-1.643-.883-2.701.066-4.344.948-1.642,3.003-.456,3.952-2.098.949-1.643-.448-2.45.5-4.093.949-1.644.868-1.69,1.818-3.334.949-1.644,1.651-1.238,2.601-2.882s.669-1.803,1.617-3.445.178-2.089,1.127-3.733,2.014-1.029,2.964-2.673c.949-1.644,1.461-1.349,2.41-2.994.951-1.647,1.266-1.703,1.778-3.534.592-2.115-.568-3.66,1.334-3.668Z" style="fill: none; stroke: #000; stroke-miterlimit: 10; stroke-width: 15px;"/>
</svg>