<?xml version="1.0" encoding="UTF-8"?>
<svg id="Sticker" xmlns="http://www.w3.org/2000/svg" width="1000" height="1000" viewBox="0 0 1000 1000">
  <polygon points="880.017 500 885.463 503.605 883.096 507.167 880.621 510.684 883.38 514.349 879.711 517.773 884.267 521.586 880.85 524.973 887.626 529.054 882.788 532.299 880.276 535.675 878.52 539.086 877.77 542.584 884.713 547.005 884.128 550.584 879.309 553.568 883.51 557.818 882.771 561.373 883.368 565.15 875.404 567.423 877.261 571.401 881.125 575.826 878.618 579.016 878.665 582.727 871.222 584.752 878.324 590.096 868.931 591.519 870.937 595.705 874.434 600.347 870.278 602.955 864.868 605.137 868.433 609.903 864.485 612.448 870.618 618.143 867.232 620.858 860.629 622.434 867.495 628.608 860.057 629.796 862.525 634.529 857.775 636.584 861.439 641.87 859.184 644.874 858.682 648.586 849.423 648.588 848.076 651.873 855.343 659.02 849.064 660.141 845.728 662.538 846.398 666.826 843.272 669.291 843.138 673.233 837.369 674.293 840.826 680.141 842.112 684.937 834.993 685.151 832.046 687.594 832.832 692.168 832.752 696.295 826.048 696.466 825.899 700.556 829.055 706.772 827.405 710.03 820.61 709.922 818.961 713.13 818.913 717.441 816.012 719.818 811.49 721.02 807.645 722.643 807.753 727.139 806.802 730.901 806.58 735.259 805.422 738.942 797.411 737.185 799.799 743.715 793.814 743.444 790.994 745.733 790.919 750.369 786.436 751.21 784.382 754.152 783.943 758.578 783.329 762.908 780.168 764.893 778.654 768.44 774.643 769.572 769.387 769.405 770.817 775.949 769.638 779.935 760.811 775.891 760.274 780.53 757.373 782.66 753.961 784.207 751.227 786.494 753.478 794.567 748.573 794.393 742.638 792.881 743.615 799.716 739.63 800.512 733.961 799.104 732.008 802.39 729.873 805.478 730.631 812.517 727.739 814.716 723.392 814.869 721.656 818.692 718.62 820.681 713.741 819.917 709.151 819.477 709.994 827.393 705.447 826.995 702.004 828.291 698.98 830.255 694.318 829.451 690.859 830.614 691.316 838.666 687.07 838.504 682.669 837.971 679.989 840.585 676.827 842.311 674.467 845.626 672.3 849.41 665.205 843.086 662.27 845.207 660.367 849.605 655.465 847.459 654.285 853.646 648.626 849.56 646.45 853.581 644.254 857.697 639.248 854.814 636.371 857.266 633.079 858.67 631.693 865.369 625.895 859.792 624.826 867.73 621.499 869.235 617.292 868.001 614.405 870.895 610.983 872.118 606.638 870.144 602.792 869.753 600.768 876.071 595.65 870.787 592.369 872.432 588.169 870.267 584.912 871.987 582.829 879.197 577.681 872.249 574.157 872.75 570.958 874.965 568.157 879.577 563.99 876.545 561.44 883.245 557.721 882.915 553.259 877.157 549.657 877.078 547.147 885.943 543.354 884.732 539.696 884.545 535.785 881.505 532.389 883.899 528.757 883.64 525.153 883.65 521.361 880.206 517.9 882.462 514.355 883.482 510.755 883.143 507.274 888.832 503.593 884.08 500 881.148 496.394 885.603 492.814 884.132 489.325 880.289 485.607 884.582 482.167 881.017 478.426 884.048 474.999 881.279 471.476 880.461 467.94 879.911 464.447 878.956 460.934 878.319 457.108 880.537 453.103 883.824 449.259 885.335 446.44 879.254 442.589 880.784 439.675 876.18 435.575 879.068 431.304 882.54 427.652 882.295 424.314 880.42 420.996 878.558 416.941 880.19 413.642 878.288 411.755 870.523 406.669 876.258 403.403 874.408 399.378 875.466 397.803 867.547 393.863 868.342 389.988 868.799 387.255 865.452 381.978 870.237 378.54 869.063 377.885 859.691 373.224 862.258 368.666 864.321 364.619 864.821 364.033 856.16 360.572 855.224 354.277 861.288 351.615 858.198 348.04 857.342 347.594 849.296 342.676 851.558 339.677 849.462 337.421 845.815 334.556 843.533 329.868 844.974 328.888 838.945 321.756 845.001 319.281 841.917 317.665 837.308 311.644 840.781 312.413 832.033 306.209 835.636 302.447 834.88 303.443 826.198 298.094 828.088 294.067 827.723 290.406 826.727 286.619 825.882 288.22 816.945 285.563 814.516 282.304 812.967 277.946 812.945 272.796 813.936 270.996 810.275 269.169 806.709 263.295 808.462 264.602 800.898 259.807 801.178 256.147 799.969 252.737 798.418 253.423 791.993 247.783 793.064 245.92 789.707 241.538 789.201 241.809 783.519 236.944 783.489 233.762 781.591 232.927 777.235 232.927 772.097 228.157 771.825 228.123 766.821 219.867 769.829 219.206 765.449 218.361 761.303 212.709 761.592 212.917 756.533 214.428 750.418 204.939 753.903 204.38 749.61 201.898 746.969 199.982 743.861 195.812 742.565 199.934 734.715 196.571 732.807 192.449 731.435 186.611 731.275 189.641 724.581 183.903 724.265 180.266 722.383 185.605 714.326 176.358 716.235 179.357 709.915 175.092 708.397 178.409 702.044 176.504 699.047 166.532 700.92 167.687 696.009 165.042 693.372 161.752 691.08 161.909 686.841 159.915 683.814 158.895 680.264 156.955 677.207 156.275 673.506 150.822 672.185 154.982 666.138 153.095 663.069 153.302 659.03 146.763 658.054 147.202 653.915 142.004 652.217 142.267 648.172 143.029 643.961 141.768 640.59 137.674 638.303 140.198 633.499 134.515 631.735 138.203 626.596 136.049 623.544 138.553 618.938 129.893 617.963 128.05 614.73 129.249 610.576 130.898 606.338 125.468 604.118 123.921 600.77 123.725 597.062 130.72 591.59 122.745 589.827 129.184 584.645 120.216 582.957 122.366 578.799 119.256 575.738 123.578 571.233 123.974 567.524 117.188 565.047 119.864 560.945 121.819 557.013 115.094 554.343 115.779 550.588 114.668 547.073 120.216 542.803 118.793 539.356 119.592 535.683 121.631 531.929 112.211 529.064 116.462 525.145 117.617 521.482 120.539 517.762 116.437 514.358 115.537 510.791 115.954 507.186 115.955 503.593 112.805 500 118.39 496.43 114.118 492.782 115.523 489.21 117.075 485.667 110.98 481.799 116.03 478.43 112.345 474.587 120.398 471.539 118.877 467.84 119.403 464.295 116.4 460.395 114.532 456.558 122.866 453.912 121.921 450.205 114.83 445.612 118.426 442.471 121.23 439.263 117.706 435.031 125.261 432.695 117.878 427.684 120.756 424.547 121.986 421.109 123.25 417.689 122.936 413.92 123.979 410.451 128.663 407.886 125.735 403.439 125.705 399.691 124.923 395.714 128.108 392.842 133.668 390.723 132.357 386.579 129.479 381.888 137.49 380.695 136.639 376.639 133.076 371.592 134.576 368.269 137.326 365.416 137.921 361.772 141.413 359.251 141.14 355.257 147.643 354.038 146.778 349.795 150.84 347.653 145.068 341.164 147.08 338.088 149.666 335.293 157.389 335.001 150.734 327.747 158.193 327.44 156.291 322.425 162.673 321.712 162.335 317.472 163.08 313.782 163.012 309.608 164.359 306.207 170.525 305.642 173.664 303.36 175.884 300.544 170.525 292.964 179.365 294.322 174.789 287.059 176.839 284.058 181.419 282.786 182.96 279.466 190.174 280.163 191.6 276.81 192.83 273.292 189.369 266.213 195.844 266.604 197.201 263.113 198.975 259.93 203.822 259.232 203.67 254.469 207.677 253.144 210.738 251.058 210.318 245.942 213.276 243.753 215.144 240.591 216.638 237.062 223.616 238.687 226.212 236.248 225.811 230.874 227.258 227.24 228.82 223.682 232.407 222.187 232.844 217.401 238.344 217.981 241.697 216.32 244.415 213.978 249.529 214.367 250.172 209.67 254.639 209.407 257.069 206.766 260.543 205.393 258.052 196.584 263.114 197.162 264.655 193.267 267.852 191.503 269.76 188.011 276.008 190.454 278.657 188.014 277.609 180.254 282.692 181.239 289.092 184.315 291.081 180.877 290.696 173.682 293.064 170.639 298.677 172.814 299.985 168.03 306.89 172.592 309.92 170.733 311.247 165.862 314.373 164.101 316.483 160.464 319.443 158.342 322.326 156.053 325.377 154.068 329.036 153.295 332.618 152.402 336.569 152.326 340.602 152.503 341.645 146.092 347.017 149.334 348.934 144.709 352.18 143.115 357.183 145.863 359.541 142.103 361.882 138.158 366.401 139.93 369.253 137.255 374.187 140.441 375.431 133.028 380.024 135.397 383.698 135.108 385.965 130.306 389.614 129.889 393.09 128.911 398.315 134.238 401.483 132.349 403.171 124.629 407.095 125.402 410.088 122.385 415.387 129.327 416.908 119.596 421.557 124.077 425.81 127.084 428.006 119.528 432.555 124.415 436.263 124.955 438.999 119.512 443.043 122.194 446.774 123.079 449.699 117.987 453.655 120.688 457.457 122.549 460.548 117.848 463.637 112.253 467.895 119.507 471.534 120.305 475.089 120.091 478.643 119.881 482.238 120.53 485.621 115.857 489.284 118.276 492.739 111.834 496.395 114.612 500 118.363 503.642 110.536 507.12 119.471 510.783 115.784 514.336 116.98 518.037 114.546 521.311 120.708 525.277 114.442 528.401 121.211 531.946 121.448 536.229 113.736 539.098 121.369 542.679 121.379 546.88 116.315 550.465 116.782 553.31 122.535 558.026 115.099 560.642 121.826 564.962 117.745 568.415 119.035 571.857 120.317 575.91 118.448 578.991 121.504 582.625 121.808 586.263 122.131 589.014 126.234 592.045 128.943 596.334 126.615 598.615 132.044 601.873 133.622 607.656 126.374 610.947 128.061 614.384 129.231 615.685 137.099 619.81 135.953 623.308 136.794 626.58 138.3 631.286 135.81 632.743 142.284 636.366 142.795 641.299 140.014 642.553 146.564 649.032 140.242 651.173 144.505 651.914 151.829 657.576 147.88 662.373 146.078 661.819 155.798 667.899 151.378 669.701 155.898 671.722 159.85 675.065 161.14 678.804 161.7 681.829 163.625 686.413 162.727 689.343 164.865 694.564 163.028 697.897 164.539 696.344 174.154 701.28 172.927 703.057 176.844 707.892 175.922 707.908 182.46 712.294 182.287 718.176 180.011 719.274 184.768 724.871 183.093 724.852 189.308 728.621 190.242 732.648 190.881 733.776 195.35 736.215 198.058 738.124 201.413 740.352 204.333 747.714 201.038 745.924 208.779 750.822 208.555 750.944 213.866 755.806 213.769 761.936 212.37 764.385 215.08 766.457 218.177 765.852 224.032 772.787 222.082 774.336 225.682 774.003 231.092 777.132 233.063 778.388 236.826 781.362 238.954 781.975 243.251 786.082 244.362 787.361 248.012 793.506 247.436 795.47 250.517 797.574 253.469 801.984 254.539 801.324 259.723 803.82 262.344 807.97 263.704 808.79 267.631 808.111 272.626 815.176 271.927 811.988 278.656 818.248 278.653 814.963 285.286 816.938 288.253 819.222 291.017 824.135 292.099 826.246 295.025 824.161 300.543 831.407 300.324 831.027 304.751 831.26 308.767 834.267 311.174 840.548 311.799 835.158 318.855 837 321.909 838.877 324.95 844.504 326.1 840.759 331.974 846.334 333.228 850.764 335.114 851.926 338.567 849.076 343.81 855.012 345.118 853.099 349.868 857.529 351.913 853.621 357.392 855.757 360.382 860.324 362.461 856.26 367.815 857.177 371.26 858.78 374.459 864.597 376.237 864.415 380.086 865.332 383.558 866.959 386.807 869.311 389.853 867.541 394.11 868.802 397.471 868.196 401.337 870.706 404.371 875.151 406.959 872.716 411.25 870.457 415.436 873.802 418.344 871.718 422.429 873.471 425.701 873.033 429.405 874.011 432.835 875.431 436.198 878.764 439.273 882.847 442.289 884.485 445.716 879.049 450.086 879.148 453.675 877.962 457.4 879.717 460.796 878.24 464.518 879.13 468.008 880.114 471.503 885.091 474.754 887.629 478.228 885.081 481.979 888.177 485.472 883.712 489.23 885.141 492.794 889.054 496.361 880.017 500"/>
  <polygon points="880.017 500 885.463 503.605 883.096 507.167 880.621 510.684 883.38 514.349 879.711 517.773 884.267 521.586 880.85 524.973 887.626 529.054 882.788 532.299 880.276 535.675 878.52 539.086 877.77 542.584 884.713 547.005 884.128 550.584 879.309 553.568 883.51 557.818 882.771 561.373 883.368 565.15 875.404 567.423 877.261 571.401 881.125 575.826 878.618 579.016 878.665 582.727 871.222 584.752 878.324 590.096 868.931 591.519 870.937 595.705 874.434 600.347 870.278 602.955 864.868 605.137 868.433 609.903 864.485 612.448 870.618 618.143 867.232 620.858 860.629 622.434 867.495 628.608 860.057 629.796 862.525 634.529 857.775 636.584 861.439 641.87 859.184 644.874 858.682 648.586 849.423 648.588 848.076 651.873 855.343 659.02 849.064 660.141 845.728 662.538 846.398 666.826 843.272 669.291 843.138 673.233 837.369 674.293 840.826 680.141 842.112 684.937 834.993 685.151 832.046 687.594 832.832 692.168 832.752 696.295 826.048 696.466 825.899 700.556 829.055 706.772 827.405 710.03 820.61 709.922 818.961 713.13 818.913 717.441 816.012 719.818 811.49 721.02 807.645 722.643 807.753 727.139 806.802 730.901 806.58 735.259 805.422 738.942 797.411 737.185 799.799 743.715 793.814 743.444 790.994 745.733 790.919 750.369 786.436 751.21 784.382 754.152 783.943 758.578 783.329 762.908 780.168 764.893 778.654 768.44 774.643 769.572 769.387 769.405 770.817 775.949 769.638 779.935 760.811 775.891 760.274 780.53 757.373 782.66 753.961 784.207 751.227 786.494 753.478 794.567 748.573 794.393 742.638 792.881 743.615 799.716 739.63 800.512 733.961 799.104 732.008 802.39 729.873 805.478 730.631 812.517 727.739 814.716 723.392 814.869 721.656 818.692 718.62 820.681 713.741 819.917 709.151 819.477 709.994 827.393 705.447 826.995 702.004 828.291 698.98 830.255 694.318 829.451 690.859 830.614 691.316 838.666 687.07 838.504 682.669 837.971 679.989 840.585 676.827 842.311 674.467 845.626 672.3 849.41 665.205 843.086 662.27 845.207 660.367 849.605 655.465 847.459 654.285 853.646 648.626 849.56 646.45 853.581 644.254 857.697 639.248 854.814 636.371 857.266 633.079 858.67 631.693 865.369 625.895 859.792 624.826 867.73 621.499 869.235 617.292 868.001 614.405 870.895 610.983 872.118 606.638 870.144 602.792 869.753 600.768 876.071 595.65 870.787 592.369 872.432 588.169 870.267 584.912 871.987 582.829 879.197 577.681 872.249 574.157 872.75 570.958 874.965 568.157 879.577 563.99 876.545 561.44 883.245 557.721 882.915 553.259 877.157 549.657 877.078 547.147 885.943 543.354 884.732 539.696 884.545 535.785 881.505 532.389 883.899 528.757 883.64 525.153 883.65 521.361 880.206 517.9 882.462 514.355 883.482 510.755 883.143 507.274 888.832 503.593 884.08 500 881.148 496.394 885.603 492.814 884.132 489.325 880.289 485.607 884.582 482.167 881.017 478.426 884.048 474.999 881.279 471.476 880.461 467.94 879.911 464.447 878.956 460.934 878.319 457.108 880.537 453.103 883.824 449.259 885.335 446.44 879.254 442.589 880.784 439.675 876.18 435.575 879.068 431.304 882.54 427.652 882.295 424.314 880.42 420.996 878.558 416.941 880.19 413.642 878.288 411.755 870.523 406.669 876.258 403.403 874.408 399.378 875.466 397.803 867.547 393.863 868.342 389.988 868.799 387.255 865.452 381.978 870.237 378.54 869.063 377.885 859.691 373.224 862.258 368.666 864.321 364.619 864.821 364.033 856.16 360.572 855.224 354.277 861.288 351.615 858.198 348.04 857.342 347.594 849.296 342.676 851.558 339.677 849.462 337.421 845.815 334.556 843.533 329.868 844.974 328.888 838.945 321.756 845.001 319.281 841.917 317.665 837.308 311.644 840.781 312.413 832.033 306.209 835.636 302.447 834.88 303.443 826.198 298.094 828.088 294.067 827.723 290.406 826.727 286.619 825.882 288.22 816.945 285.563 814.516 282.304 812.967 277.946 812.945 272.796 813.936 270.996 810.275 269.169 806.709 263.295 808.462 264.602 800.898 259.807 801.178 256.147 799.969 252.737 798.418 253.423 791.993 247.783 793.064 245.92 789.707 241.538 789.201 241.809 783.519 236.944 783.489 233.762 781.591 232.927 777.235 232.927 772.097 228.157 771.825 228.123 766.821 219.867 769.829 219.206 765.449 218.361 761.303 212.709 761.592 212.917 756.533 214.428 750.418 204.939 753.903 204.38 749.61 201.898 746.969 199.982 743.861 195.812 742.565 199.934 734.715 196.571 732.807 192.449 731.435 186.611 731.275 189.641 724.581 183.903 724.265 180.266 722.383 185.605 714.326 176.358 716.235 179.357 709.915 175.092 708.397 178.409 702.044 176.504 699.047 166.532 700.92 167.687 696.009 165.042 693.372 161.752 691.08 161.909 686.841 159.915 683.814 158.895 680.264 156.955 677.207 156.275 673.506 150.822 672.185 154.982 666.138 153.095 663.069 153.302 659.03 146.763 658.054 147.202 653.915 142.004 652.217 142.267 648.172 143.029 643.961 141.768 640.59 137.674 638.303 140.198 633.499 134.515 631.735 138.203 626.596 136.049 623.544 138.553 618.938 129.893 617.963 128.05 614.73 129.249 610.576 130.898 606.338 125.468 604.118 123.921 600.77 123.725 597.062 130.72 591.59 122.745 589.827 129.184 584.645 120.216 582.957 122.366 578.799 119.256 575.738 123.578 571.233 123.974 567.524 117.188 565.047 119.864 560.945 121.819 557.013 115.094 554.343 115.779 550.588 114.668 547.073 120.216 542.803 118.793 539.356 119.592 535.683 121.631 531.929 112.211 529.064 116.462 525.145 117.617 521.482 120.539 517.762 116.437 514.358 115.537 510.791 115.954 507.186 115.955 503.593 112.805 500 118.39 496.43 114.118 492.782 115.523 489.21 117.075 485.667 110.98 481.799 116.03 478.43 112.345 474.587 120.398 471.539 118.877 467.84 119.403 464.295 116.4 460.395 114.532 456.558 122.866 453.912 121.921 450.205 114.83 445.612 118.426 442.471 121.23 439.263 117.706 435.031 125.261 432.695 117.878 427.684 120.756 424.547 121.986 421.109 123.25 417.689 122.936 413.92 123.979 410.451 128.663 407.886 125.735 403.439 125.705 399.691 124.923 395.714 128.108 392.842 133.668 390.723 132.357 386.579 129.479 381.888 137.49 380.695 136.639 376.639 133.076 371.592 134.576 368.269 137.326 365.416 137.921 361.772 141.413 359.251 141.14 355.257 147.643 354.038 146.778 349.795 150.84 347.653 145.068 341.164 147.08 338.088 149.666 335.293 157.389 335.001 150.734 327.747 158.193 327.44 156.291 322.425 162.673 321.712 162.335 317.472 163.08 313.782 163.012 309.608 164.359 306.207 170.525 305.642 173.664 303.36 175.884 300.544 170.525 292.964 179.365 294.322 174.789 287.059 176.839 284.058 181.419 282.786 182.96 279.466 190.174 280.163 191.6 276.81 192.83 273.292 189.369 266.213 195.844 266.604 197.201 263.113 198.975 259.93 203.822 259.232 203.67 254.469 207.677 253.144 210.738 251.058 210.318 245.942 213.276 243.753 215.144 240.591 216.638 237.062 223.616 238.687 226.212 236.248 225.811 230.874 227.258 227.24 228.82 223.682 232.407 222.187 232.844 217.401 238.344 217.981 241.697 216.32 244.415 213.978 249.529 214.367 250.172 209.67 254.639 209.407 257.069 206.766 260.543 205.393 258.052 196.584 263.114 197.162 264.655 193.267 267.852 191.503 269.76 188.011 276.008 190.454 278.657 188.014 277.609 180.254 282.692 181.239 289.092 184.315 291.081 180.877 290.696 173.682 293.064 170.639 298.677 172.814 299.985 168.03 306.89 172.592 309.92 170.733 311.247 165.862 314.373 164.101 316.483 160.464 319.443 158.342 322.326 156.053 325.377 154.068 329.036 153.295 332.618 152.402 336.569 152.326 340.602 152.503 341.645 146.092 347.017 149.334 348.934 144.709 352.18 143.115 357.183 145.863 359.541 142.103 361.882 138.158 366.401 139.93 369.253 137.255 374.187 140.441 375.431 133.028 380.024 135.397 383.698 135.108 385.965 130.306 389.614 129.889 393.09 128.911 398.315 134.238 401.483 132.349 403.171 124.629 407.095 125.402 410.088 122.385 415.387 129.327 416.908 119.596 421.557 124.077 425.81 127.084 428.006 119.528 432.555 124.415 436.263 124.955 438.999 119.512 443.043 122.194 446.774 123.079 449.699 117.987 453.655 120.688 457.457 122.549 460.548 117.848 463.637 112.253 467.895 119.507 471.534 120.305 475.089 120.091 478.643 119.881 482.238 120.53 485.621 115.857 489.284 118.276 492.739 111.834 496.395 114.612 500 118.363 503.642 110.536 507.12 119.471 510.783 115.784 514.336 116.98 518.037 114.546 521.311 120.708 525.277 114.442 528.401 121.211 531.946 121.448 536.229 113.736 539.098 121.369 542.679 121.379 546.88 116.315 550.465 116.782 553.31 122.535 558.026 115.099 560.642 121.826 564.962 117.745 568.415 119.035 571.857 120.317 575.91 118.448 578.991 121.504 582.625 121.808 586.263 122.131 589.014 126.234 592.045 128.943 596.334 126.615 598.615 132.044 601.873 133.622 607.656 126.374 610.947 128.061 614.384 129.231 615.685 137.099 619.81 135.953 623.308 136.794 626.58 138.3 631.286 135.81 632.743 142.284 636.366 142.795 641.299 140.014 642.553 146.564 649.032 140.242 651.173 144.505 651.914 151.829 657.576 147.88 662.373 146.078 661.819 155.798 667.899 151.378 669.701 155.898 671.722 159.85 675.065 161.14 678.804 161.7 681.829 163.625 686.413 162.727 689.343 164.865 694.564 163.028 697.897 164.539 696.344 174.154 701.28 172.927 703.057 176.844 707.892 175.922 707.908 182.46 712.294 182.287 718.176 180.011 719.274 184.768 724.871 183.093 724.852 189.308 728.621 190.242 732.648 190.881 733.776 195.35 736.215 198.058 738.124 201.413 740.352 204.333 747.714 201.038 745.924 208.779 750.822 208.555 750.944 213.866 755.806 213.769 761.936 212.37 764.385 215.08 766.457 218.177 765.852 224.032 772.787 222.082 774.336 225.682 774.003 231.092 777.132 233.063 778.388 236.826 781.362 238.954 781.975 243.251 786.082 244.362 787.361 248.012 793.506 247.436 795.47 250.517 797.574 253.469 801.984 254.539 801.324 259.723 803.82 262.344 807.97 263.704 808.79 267.631 808.111 272.626 815.176 271.927 811.988 278.656 818.248 278.653 814.963 285.286 816.938 288.253 819.222 291.017 824.135 292.099 826.246 295.025 824.161 300.543 831.407 300.324 831.027 304.751 831.26 308.767 834.267 311.174 840.548 311.799 835.158 318.855 837 321.909 838.877 324.95 844.504 326.1 840.759 331.974 846.334 333.228 850.764 335.114 851.926 338.567 849.076 343.81 855.012 345.118 853.099 349.868 857.529 351.913 853.621 357.392 855.757 360.382 860.324 362.461 856.26 367.815 857.177 371.26 858.78 374.459 864.597 376.237 864.415 380.086 865.332 383.558 866.959 386.807 869.311 389.853 867.541 394.11 868.802 397.471 868.196 401.337 870.706 404.371 875.151 406.959 872.716 411.25 870.457 415.436 873.802 418.344 871.718 422.429 873.471 425.701 873.033 429.405 874.011 432.835 875.431 436.198 878.764 439.273 882.847 442.289 884.485 445.716 879.049 450.086 879.148 453.675 877.962 457.4 879.717 460.796 878.24 464.518 879.13 468.008 880.114 471.503 885.091 474.754 887.629 478.228 885.081 481.979 888.177 485.472 883.712 489.23 885.141 492.794 889.054 496.361 880.017 500" style="fill: none; stroke: #000; stroke-linecap: round; stroke-linejoin: round; stroke-width: 30px;"/>
</svg>