<?xml version="1.0" encoding="UTF-8"?>
<svg id="Sticker" xmlns="http://www.w3.org/2000/svg" width="1000" height="1000" viewBox="0 0 1000 1000">
  <g>
    <polygon points="625.574 500 621.405 503.6 620.624 507.16 617.718 510.5 615.778 513.799 619.296 517.813 620.041 521.577 620.969 525.465 618.587 528.661 619.015 532.525 616.948 535.718 614.736 538.796 616.403 543.244 613.296 545.955 611.986 549.337 610.051 552.431 604.052 553.408 607.844 559.462 607.424 563.454 604.914 566.241 603.279 569.573 599.571 571.451 598.806 575.438 591.412 574.177 593.683 580.744 590.86 583.128 588.515 585.938 584.701 587.257 580.009 587.469 581.894 595.033 577.701 595.767 573.886 596.793 571.011 598.976 566.139 598.21 563.533 600.653 559.656 601.027 558.675 606.44 553.293 603.849 550.619 606.274 549.899 613.282 544.173 608.927 541.012 610.417 538.095 612.683 534.818 614.014 530.722 612.417 529.564 622.352 524.143 614.665 521.851 621.582 517.725 618.699 513.801 615.786 510.962 622.958 506.897 616.079 503.672 623.862 500 619.371 496.506 617.763 492.704 622.945 488.972 623.714 485.742 619.672 482.414 617.765 479.371 614.731 475.826 614.807 470.602 621.65 467.509 618.889 464.761 615.378 461.648 613.422 458.067 612.876 455.78 609.024 449.217 615.263 446.025 613.286 446.117 604.977 441.194 606.656 436.786 607.019 432.748 606.513 433.696 598.436 428.944 599.021 427.983 594.331 423.92 593.755 423.795 588.421 418.756 588.802 417.059 585.429 411.229 586.17 413.705 578.935 411.226 576.495 407.575 574.987 401.749 575 400.632 571.293 396.948 569.407 395.469 565.986 394.292 562.427 390.785 560.208 393.576 554.617 388.064 553.321 386.993 549.778 391.469 544.012 384.53 542.889 387.543 538.019 379.706 536.733 384.89 531.457 383.287 528.206 385.084 524.195 376.239 522.24 375.65 518.561 377.132 514.636 383.437 510.399 381.648 507.03 382.623 503.484 375.112 500 374.529 496.282 375.058 492.587 383.589 489.615 382.699 486.022 377.11 481.655 385.211 479.361 385.015 475.788 380.751 471.18 381.03 467.487 380.025 463.359 389.609 462.673 388.541 458.593 387.787 454.485 392.339 452.572 388.544 446.898 395.839 446.536 392.753 440.868 392.471 436.484 396.633 434.738 400.425 432.927 405.081 431.893 404.211 426.868 406.939 424.483 411.944 424.11 411.122 418.686 414.842 417.322 417.101 414.599 415.877 408.037 418.953 405.949 423.981 406.304 428.298 406.064 431.024 403.855 432.398 399.623 437.452 400.904 435.879 391.43 442.948 396.498 442.906 388.76 447.836 390.489 449.887 386.233 453.731 385.908 456.293 382.329 461.471 386.034 463.482 380.411 468.731 385.577 472.304 385.408 475.037 381.416 479.243 384.548 482.266 381.24 485.105 374.93 489.474 381.995 492.929 380.93 496.371 377.623 500 383.82 503.517 381.443 507.083 380.698 510.899 377.746 514.091 381.742 517.696 381.493 522.081 377.135 524.143 385.343 527.768 385.121 532.072 382.649 534.434 387.262 538.15 387.174 542.394 385.886 546.33 385.779 549.184 388.359 551.528 391.84 553.761 395.262 560.055 391.082 559.135 399.873 563.147 399.976 565.508 402.743 568.88 404.006 571.998 405.693 576.765 405.402 576.155 411.637 580.864 411.613 583.316 414.185 588.829 413.773 591.265 416.517 591.088 421.509 596.875 421.399 595.683 426.963 596.077 431.073 598.489 433.672 600.316 436.68 605.571 437.654 607.38 440.806 609.956 443.566 606.398 449.322 614.856 449.407 612.935 454.2 617.136 456.491 610.142 462.763 615.378 464.766 615.311 468.489 615.553 472.073 617.425 475.279 621.887 478.094 617.652 482.43 615.767 486.201 624.664 488.888 624.366 492.619 625.492 496.28 625.574 500"/>
    <polygon points="625.574 500 621.405 503.6 620.624 507.16 617.718 510.5 615.778 513.799 619.296 517.813 620.041 521.577 620.969 525.465 618.587 528.661 619.015 532.525 616.948 535.718 614.736 538.796 616.403 543.244 613.296 545.955 611.986 549.337 610.051 552.431 604.052 553.408 607.844 559.462 607.424 563.454 604.914 566.241 603.279 569.573 599.571 571.451 598.806 575.438 591.412 574.177 593.683 580.744 590.86 583.128 588.515 585.938 584.701 587.257 580.009 587.469 581.894 595.033 577.701 595.767 573.886 596.793 571.011 598.976 566.139 598.21 563.533 600.653 559.656 601.027 558.675 606.44 553.293 603.849 550.619 606.274 549.899 613.282 544.173 608.927 541.012 610.417 538.095 612.683 534.818 614.014 530.722 612.417 529.564 622.352 524.143 614.665 521.851 621.582 517.725 618.699 513.801 615.786 510.962 622.958 506.897 616.079 503.672 623.862 500 619.371 496.506 617.763 492.704 622.945 488.972 623.714 485.742 619.672 482.414 617.765 479.371 614.731 475.826 614.807 470.602 621.65 467.509 618.889 464.761 615.378 461.648 613.422 458.067 612.876 455.78 609.024 449.217 615.263 446.025 613.286 446.117 604.977 441.194 606.656 436.786 607.019 432.748 606.513 433.696 598.436 428.944 599.021 427.983 594.331 423.92 593.755 423.795 588.421 418.756 588.802 417.059 585.429 411.229 586.17 413.705 578.935 411.226 576.495 407.575 574.987 401.749 575 400.632 571.293 396.948 569.407 395.469 565.986 394.292 562.427 390.785 560.208 393.576 554.617 388.064 553.321 386.993 549.778 391.469 544.012 384.53 542.889 387.543 538.019 379.706 536.733 384.89 531.457 383.287 528.206 385.084 524.195 376.239 522.24 375.65 518.561 377.132 514.636 383.437 510.399 381.648 507.03 382.623 503.484 375.112 500 374.529 496.282 375.058 492.587 383.589 489.615 382.699 486.022 377.11 481.655 385.211 479.361 385.015 475.788 380.751 471.18 381.03 467.487 380.025 463.359 389.609 462.673 388.541 458.593 387.787 454.485 392.339 452.572 388.544 446.898 395.839 446.536 392.753 440.868 392.471 436.484 396.633 434.738 400.425 432.927 405.081 431.893 404.211 426.868 406.939 424.483 411.944 424.11 411.122 418.686 414.842 417.322 417.101 414.599 415.877 408.037 418.953 405.949 423.981 406.304 428.298 406.064 431.024 403.855 432.398 399.623 437.452 400.904 435.879 391.43 442.948 396.498 442.906 388.76 447.836 390.489 449.887 386.233 453.731 385.908 456.293 382.329 461.471 386.034 463.482 380.411 468.731 385.577 472.304 385.408 475.037 381.416 479.243 384.548 482.266 381.24 485.105 374.93 489.474 381.995 492.929 380.93 496.371 377.623 500 383.82 503.517 381.443 507.083 380.698 510.899 377.746 514.091 381.742 517.696 381.493 522.081 377.135 524.143 385.343 527.768 385.121 532.072 382.649 534.434 387.262 538.15 387.174 542.394 385.886 546.33 385.779 549.184 388.359 551.528 391.84 553.761 395.262 560.055 391.082 559.135 399.873 563.147 399.976 565.508 402.743 568.88 404.006 571.998 405.693 576.765 405.402 576.155 411.637 580.864 411.613 583.316 414.185 588.829 413.773 591.265 416.517 591.088 421.509 596.875 421.399 595.683 426.963 596.077 431.073 598.489 433.672 600.316 436.68 605.571 437.654 607.38 440.806 609.956 443.566 606.398 449.322 614.856 449.407 612.935 454.2 617.136 456.491 610.142 462.763 615.378 464.766 615.311 468.489 615.553 472.073 617.425 475.279 621.887 478.094 617.652 482.43 615.767 486.201 624.664 488.888 624.366 492.619 625.492 496.28 625.574 500" style="fill: none; stroke: #000; stroke-linecap: round; stroke-linejoin: round; stroke-width: 35px;"/>
  </g>
  <g>
    <g>
      <polyline points="325.076 341.214 326.826 344.593 329.986 346.558 336.036 345.631 339.236 347.555 342.482 349.433 343.042 353.999 347.543 354.629 349.043 358.259 350.315 362.115 352.248 365.307 354.869 367.813 354.503 373.306 358.021 374.92 364.281 373.79 364.238 378.961 365.822 382.505 369.763 383.694 369.317 389.273 374.864 388.856 378.797 390.051 376.974 397.006 379.815 399.298 386.387 397.855 388.872 400.502 387.758 406.749 395.778 403.86 397.696 407.062 400.703 409.179 401.378 413.635 403.676 416.467 404.45 420.819 407.908 422.491 414.741 420.793 413.709 426.954 413.189 432.61 419.984 430.948 423.839 432.231 423.251 437.953 429.788 436.553 426.254 445.226 429.343 447.265 431.452 450.292 440.232 446.652 437.537 454.489 444.772 452.397 442.466 459.854 447.552 459.919"/>
      <polyline points="325.076 341.214 326.826 344.593 329.986 346.558 336.036 345.631 339.236 347.555 342.482 349.433 343.042 353.999 347.543 354.629 349.043 358.259 350.315 362.115 352.248 365.307 354.869 367.813 354.503 373.306 358.021 374.92 364.281 373.79 364.238 378.961 365.822 382.505 369.763 383.694 369.317 389.273 374.864 388.856 378.797 390.051 376.974 397.006 379.815 399.298 386.387 397.855 388.872 400.502 387.758 406.749 395.778 403.86 397.696 407.062 400.703 409.179 401.378 413.635 403.676 416.467 404.45 420.819 407.908 422.491 414.741 420.793 413.709 426.954 413.189 432.61 419.984 430.948 423.839 432.231 423.251 437.953 429.788 436.553 426.254 445.226 429.343 447.265 431.452 450.292 440.232 446.652 437.537 454.489 444.772 452.397 442.466 459.854 447.552 459.919" style="fill: none; stroke: #000; stroke-linecap: round; stroke-linejoin: round; stroke-width: 40px;"/>
    </g>
    <g>
      <polyline points="501.738 267.973 503.325 271.599 502.321 275.224 502.53 278.847 497.531 282.47 496.556 286.093 501.919 289.718 500.337 293.345 500.025 296.973 497.004 300.599 499.513 304.223 504.214 307.848 499.762 311.474 501.142 315.102 498.977 318.73 497.266 322.356 496.225 325.982 502.364 329.609 499.635 333.239 498.736 336.866 504.397 340.493 502.773 344.121 500.567 347.751 504.893 351.378 497.198 355.006 495.768 358.636 502.192 362.264 504.021 365.894 502.869 369.523 497.247 373.153 496.708 376.782 495.793 380.412 501.346 384.042 498.236 387.671 503.938 391.297 500.356 394.926 498.718 398.554 496.756 402.185 504.145 405.814 497.43 409.445 503.803 413.077 501.739 416.709 504.389 420.341 500.745 423.973 495.912 427.604 496.807 431.237 499.977 434.875 498.124 438.514"/>
      <polyline points="501.738 267.973 503.325 271.599 502.321 275.224 502.53 278.847 497.531 282.47 496.556 286.093 501.919 289.718 500.337 293.345 500.025 296.973 497.004 300.599 499.513 304.223 504.214 307.848 499.762 311.474 501.142 315.102 498.977 318.73 497.266 322.356 496.225 325.982 502.364 329.609 499.635 333.239 498.736 336.866 504.397 340.493 502.773 344.121 500.567 347.751 504.893 351.378 497.198 355.006 495.768 358.636 502.192 362.264 504.021 365.894 502.869 369.523 497.247 373.153 496.708 376.782 495.793 380.412 501.346 384.042 498.236 387.671 503.938 391.297 500.356 394.926 498.718 398.554 496.756 402.185 504.145 405.814 497.43 409.445 503.803 413.077 501.739 416.709 504.389 420.341 500.745 423.973 495.912 427.604 496.807 431.237 499.977 434.875 498.124 438.514" style="fill: none; stroke: #000; stroke-linecap: round; stroke-linejoin: round; stroke-width: 40px;"/>
    </g>
    <g>
      <polyline points="670.664 337.175 670.835 342.474 669.55 346.315 662.266 344.155 663.377 350.389 663.172 355.308 660.151 357.413 652.503 354.895 656.031 363.554 652.932 365.582 650.481 368.257 647.361 370.264 645.256 373.287 636.948 370.11 637.091 375.383 632.985 376.406 631.233 379.78 632.667 386.344 629.47 388.281 627.33 391.27 619.756 388.825 622.693 396.893 613.817 393.15 613.892 398.356 615.163 404.758 610.373 405.101 607.693 407.552 602.974 407.953 603.525 413.628 601.044 416.278 594.551 414.916 594.377 419.868 592.532 423.152 588.654 424.409 583.123 424.008 586.756 432.776 580.261 431.414 581.722 438.013 573.715 435.14 570.206 436.768 568.714 440.415 571.447 448.276 563.198 445.162 562.377 449.482 557.881 450.128 560.72 458.11 554.44 456.981 553.964 461.656"/>
      <polyline points="670.664 337.175 670.835 342.474 669.55 346.315 662.266 344.155 663.377 350.389 663.172 355.308 660.151 357.413 652.503 354.895 656.031 363.554 652.932 365.582 650.481 368.257 647.361 370.264 645.256 373.287 636.948 370.11 637.091 375.383 632.985 376.406 631.233 379.78 632.667 386.344 629.47 388.281 627.33 391.27 619.756 388.825 622.693 396.893 613.817 393.15 613.892 398.356 615.163 404.758 610.373 405.101 607.693 407.552 602.974 407.953 603.525 413.628 601.044 416.278 594.551 414.916 594.377 419.868 592.532 423.152 588.654 424.409 583.123 424.008 586.756 432.776 580.261 431.414 581.722 438.013 573.715 435.14 570.206 436.768 568.714 440.415 571.447 448.276 563.198 445.162 562.377 449.482 557.881 450.128 560.72 458.11 554.44 456.981 553.964 461.656" style="fill: none; stroke: #000; stroke-linecap: round; stroke-linejoin: round; stroke-width: 40px;"/>
    </g>
  </g>
</svg>