<?xml version="1.0" encoding="UTF-8"?>
<svg id="Sticker" xmlns="http://www.w3.org/2000/svg" width="1000" height="1000" viewBox="0 0 1000 1000">
  <path d="M842.441,349.671l3.163-.599.774-4.203,4.913-.359,4.417-.827-2.145-6.903,2.184-2.889,5.132-.163,3.775-1.425-.529-5.405-.003-4.925,6.32.935,2.397-2.703,1.146-3.859,4.896-.388-2.989-7.693,2.691-2.422,7.021,1.581,4.663-.608.88-4.112,2.557-2.56,2.45-2.667-.224-4.636-.359-4.279-1.215-3.918-6.998,2.327-2.71-2.299.042-5.27-.518-4.668-7.735,3.121-1.494-3.614-.989-4.159-1.627-3.472-5.659.88-1.013-4.134.212-5.458-7.378,2.735,1.965-7.35-5.513.734-4.765-.076-3.839-1.084.173-5.415.253-5.497-5.6.819-1.753-3.34-1.847-3.233-2.986-2.009-.982-4.171-7.827,3.215,2.549-7.984-3.253-1.723-6.189,1.445.195-5.436-5.546.755-1.928-3.157-2.168-2.898.376-5.647-4.185-.731-5.568-1.881,8.302-2.674-6.93-1.188-1.482-3.682-6.004,1.331,3.693-9.415-8.92,4.57-1.637-3.506.902-6.319-6.42,1.797-.351-4.929-5.033.252,1.577-7.066-3.463-1.488-.593-4.665-3.602-1.336-5.174.408.68-6.079-5.84,1.141-1.137-4.058-3.265-1.707-1.68-3.469-6.185,1.522-.683-4.575-4.63-.212-.766-6.704-5.912,1.252,3.465,8.538-2.947,2.126-1.795,3.278-2.379,2.695-2.623,2.45-7.573-2.499,2.463,7.538-6.725-1.649.314,5.391-2.613,2.464-4.111.968-1.602,3.479-1.979,3.101-1.939,3.14-3.31,1.767-3.06,2.017-3.444,1.632-4.584.491-.707,4.368-1.351,3.724-2.425,2.65-6.518-1.444,1.326,6.401-3.533,1.542-.128,4.948-1.856,3.22-7.256-2.179-.585,4.493-5.562-.483-2.7,2.381,1.688,6.769-1.298,3.781-1.849,3.229-7.754-2.677,1.75,6.826-6.565-1.489,1.429,6.505-5.498-.422,1.458,6.534-2.733,2.344-4.821.256-5.662-.584.499,5.578-3.169,1.912-5.186-.104-.95,4.131-.883,4.196-4.591.487.354,5.431-1.29,3.787-7.356-2.279-.482,4.596-5.769-.691-.101,4.977-3.735,1.345-2.931,2.15.739,5.821-.683,4.398-3.413,1.666-3.106,1.973-2.432,2.646-4.679.399-4.72.359,1.463,6.542-6.779-1.7,1.165,6.246-1.017,4.065-3.185,1.896-2.761,2.319-4.532.547.539,5.618-5.874-.801-1.033,4.042-.14,4.939-3.393,1.689-5.264-.183-.051,5.027-6.909-1.834,1.958,7.031-1.93,3.142-3.407,1.665-7.003-1.932-.661,4.41,1.878,6.951-6.568-1.494,1.422,6.499-2.592,2.488-5.875-.792.266,5.349-4.942.138-5.765-.688-.854,4.222,1.59,6.665-3.367,1.708-2.503,2.573-6.674-1.595-.037,5.044-.671,4.414-1.949,3.134-6.384-1.304,1.738,6.817-8.933-3.855-1.541,3.538-.364,4.717-2.891,2.193-.142,4.944-6.979-1.897.725,5.805-6.117-1.036-3.095,1.987,1.077,6.164-2.501,2.584-5.659-.576,2.841,7.924-6.525-1.44,1.73,6.818-4.257.827-6.657-1.574-2.244,2.841-.553,4.535-4.18.904-.892,4.194-4.191.897-3.344,1.742-1.103,3.973-3.689,1.389-1.536,3.55-1.742,3.343-3.035,2.046-3.266,1.818,2.67,7.76-2.917,2.168-7.935-2.845-2.639,2.449-3.389,1.703.428,5.517-1.088,4.003-6.502-1.408,1.194,6.277-5.766-.677,2.157,7.252-1.941,3.155-4.986.111-.448,4.658-2.795,4.166-6.326-3.706-1.944-5.478-5.203,3.961-3.384-1.315-3.842.111-1.578-7.146-5.662,6.112-2.289-5.048-2.965-2.909-4.454,2.446-1.978-6.78-3.988.764-2.959-3.399-3.788-.026-3.449-1.536-4.565,3.905-3.051-3.536-3.764.121-3.831.696-3.64-.412-4.239,4.896-2.825-8.052-3.615-1.794-4,6.507-3.565-6.067-3.599,3.459-3.664-1.584-3.716-1.292-3.661.159-3.418,2.643-3.998-2.95-2.847,6.218-4.439-5.112-2.4,7.38-4.225-2.994-3.686.108-4.071-1.34-1.698,7.897-5.2-5.265-2.88,3.077-3.259,1.674-1.774,5.773-6.238-6.546-2.798,2.897-.837,7.324-6.577-6.041-3.389,1.44-.127,7.972-3.766.44-6.127-3.723-.062,7.26-5.951-2.948,1.011,8.46-7.76-5.343-.488,5.789-.562,5.378-3.749.876-1.676,3.619-8.037-4.277-.117,5.542-5.193-.432,2.607,8.24-4.782.098-.002,5.061-2.25,2.703-7.414-2.077-3.072,2.14-3.774,1.588.127,4.872-.299,4.376.929,5.176-6.821-.607,2.647,6.227-4.251,1.384-6.235.259.11,4.344,2.309,5.507-9.002-.955,1.084,4.729-4.028,2.029,2.051,5.039,1.225,4.488-1.939,3.009-6.665,1.131,4.161,5.489-2.067,3.018-1.51,3.244-2.451,2.968,1.783,4.254-2.871,2.888,1.645,4.082.164,3.643-2.094,3.145-8.22,2.088,7.259,4.901-8.011,2.43,4.316,4.219,2.392,3.833-6.812,2.989,1.941,3.774-4.18,3.444,4.476,3.777.239,3.597,3.213,3.528-1.947,3.608.175,3.564-4.611,3.947,8.372,2.848-9.068,4.619,1.945,3.458,8.528,2.337.756,3.422-6.808,4.952-.615,3.881,5.182,2.518,3.146,2.876-1.399,4.093,3.589,2.646.994,3.398-.368,3.89,2.322,2.941-5.104,5.883,7.988.603,1.502,3.211-3.621,5.644.383,3.898,4.76,1.66,5.109,1.309-1.37,4.879.011,4.213,8.134-.831-5.671,7.958,4.697,1.234,3.983,1.593,4.634.987-2.396,6.344,2.549,2.602,7.028-1.228-3.2,7.51,7.43-1.9,2.621,2.347-.387,5.34,4.075.93-1.461,6.8,3.728,1.309,5.72-1.124-1.154,6.998,5.962-1.675,2.364,2.774,4.486-.112,2.971,1.887.361,5.817.75,5.553,4.218.161,3.108,1.914,6.238-3.747,2.929,2,.218,7.454,5.564-3.174.457,7.639,4.278-.62,4.961-2.558,2.474,3.513,2.596,3.461,3.669.554,2.977,2.687,3.995-.586,5.081-4.915,2.2,5.783,4.1-1.746,2.802,4.117,3.611.46,3.544.829,4.117-3.171,3.757-1.434,3.619-.813,3.335,2.168,3.456,1.444,3.512,1.246,3.631-2.46,3.531,3.879,3.531-3.844,3.766,5.867,3.333-5.411,3.695,1.747,3.207-3.958,4.158,5.177,3.823,1.163,3.715.066,2.32-7.742,4.614,5.017,3.63-.45,3.915.652,3.139-2.498,3.53-.912,3.652-.535,2.524-3.989,3.732-.238,1.999-4.922,2.809-2.489,6.23,5.659,3.382-1.414,1.338-5.722,5.931,3.871,1.789-4.534,4.611.843,2.015-3.881,4.375.196-.925-8.351,6.999,4.165,3.287-1.722-2.174-9.319,7.474,4.088.388-5.447.401-5.175,4.412-.232,4.021-.835,2.493-2.612.737-4.426,3.575-1.436,4.478-.653-.54-5.435,2.584-2.448,5.386-.078,2.548-2.607-.384-4.924,3.274-2.003,4.431-1.238-.846-5.027,6.679.127-3.492-6.586,5.205-1.013.01-4.201-.336-4.296,7.504-.064-4.67-6.455,7.293-.452-.274-4.147,3.734-2.351-1.336-4.503-2.424-4.789-.25-3.844,6.273-1.602-.435-3.921.72-3.52,5.255-2.296.373-3.683-3.921-4.624,6.094-2.39-7.29-5.054,4.726-2.785-2.401-3.96,4.748-2.982-1.624-3.794.182-3.57,1.485-3.489.655-3.572,3.488-3.538-6.786-3.673,4.679-3.625-4.48-3.632,1.621-3.622,5.082-3.634-.579-3.639-2.403-3.621,1.824-3.669,1.674-3.701-2.89-3.573-3.003-3.504,1.476-3.719-.242-3.633-1.083-3.547-.691-3.566-4.863-2.898,7.818-5.015-2.952-3.188-2.57-3.141-4.754-2.371,4.499-5.176-5.65-1.8,3.09-5.133,1.05-4.591-4.686-1.845-3.115-2.45,1.706-5.327-4.24-1.682-4.096-1.56-.858-3.881-2.347-2.3.853-4.03,5.093-.012.933-4.13,4.979-.125,3.541-1.544.144-4.91,3.631-1.462,2.487-2.593,3.297-1.788.291-4.761,4.17-.919,1.556-3.506,2.832-2.242,1.735-3.328,3.828-1.257,3.935-1.152-.306-5.352,5.097-.005-1.716-6.752,4.766-.339,3.405-1.687.278-4.779,4.289-.806-1.972-7.003,8.857,3.718-.184-5.232,4.012-1.079-2.826-7.85,8.664,3.52.783-4.285,3.346-1.745.672-4.389-.962-6.005,3.988-1.104,2.538-2.541,2.964-2.121,5.147.036-.866-5.917,4.46-.641,1.907-3.167,2.275-2.803,1.872-3.203,7.982,2.841-3.495-8.519,7.463,2.33,1.749-3.326-1.874-6.914,4.221-.884,4.791-.316-.592-5.644,1.328-3.745,6.416,1.29.237-4.825,6.134,1.012-2.942-7.974,7.537,2.401,4.395-.699-.543-5.59,2.953-2.137,2.856-2.232,4.387-.712-.783-5.834,3.885-1.219,4.909-.199.41-4.659,1.93-3.152-.564-5.624,1.577-3.502,4.855-.26,1.893-3.194,3.702-1.392,3.054-2.04,1.275-3.807.306-4.768,8.962,3.8.954-4.136,1.199-1.821.408,2.772,2.371,2.804,8.261-3.556-1.968,7.485,2.14,3.049,4.105.93,4.402.614-1.192,6.649,6.429-1.581,4.991-.025,1.935,3.276.765,4.536,3.229,1.878.749,4.557,2.156,3.036,5.128-.171,4.256.759,1.099,4.176,3.204,1.903,1.733,3.486,4.858.116-.773,6.202,2.347,2.827,1.774,3.453,4.159.874.419,4.917,8.402-3.706.122,5.237,2.738,2.415,3.738,1.323,2.276,2.909-.938,6.386,4.006,1.049.44,4.9,7.913-3.16.574,4.603-.113-4.872,7.109,1.664-2.945-7.638,7.765,2.275,2.6-2.508-2.358-7.096,4.823-.449,5.746.401-3.407-8.071,5.341.025.409-4.54,4.864-.418,4.284-.953.289-4.655.8-4.184,4.138-1.081,1.048-3.951,6.128.749,2.626-2.495-1.024-5.877,4.05-1.185,1.652-3.26-2.768-2.086-3.011-1.989-3.175-1.811.169-5.418-6.385,1.658.008-5.247-.48-4.724-2.519-2.518-4.427-.457-.056-5.178-8.064,3.466-.243-4.976-5.457.652,2.113-7.522-3.507-1.453-4.496-.374-1.139-4.002-3.311-1.664-2.101-2.97-5.819,1.049.723-6.018-.657-4.534-3.249-1.729-4.648-.225-.629-4.561-2.521-2.524-4.355-.541-3.724-1.225-.365-4.854-3.498-1.459-6.562,1.842,1.47-6.837-6.414,1.676.516-5.808-4.771-.109-3.074-4.63,6.855-.687-1.962-7.183,3.471-1.551,6.047,1.111,3.593-1.436,1.024-4.092.326-4.81,6.308,1.375-2.305-7.541,7.156,2.252.892-4.234,1.533-3.569,1.053-4.069,5.221.245,4.81-.182-1.255-6.459,2.693-2.364,3.277-1.766,1.077-4.048,2.128-2.962,2.571-2.504,3.63-1.417,3.626-2.443.409,5.941,5.132-.187,1.626,3.597,4.584.401,3.873,1.168-1.599,7.078,6.047-1.173-1.654,7.137,3.704,1.351,3.094,2.013,3.941,1.1,3.602,1.463,3.91,1.131,2.272,2.903,2.869,2.256,1.119,4.148-.274,5.64,8.503-3.828-.167,5.532,5.522-.615-.142,5.504,1.755,3.462.773,4.517,3.711,1.351,5.771-.877,2.263,2.916,2.843,2.287,2.293,2.883,4.382.629-1.031,6.463,3.175,1.929-.109,5.48,3.754,1.311,4.496.511,2.782,2.461,2.847.727ZM281.995,780.134l-3.572-2.4-3.725,2.099-3.292-3.657-3.14-3.08-4.481,5.636-3.669-.342-2.698-4.37-2.929-2.648-4.584,2.845-4.572,1.967-1.516-6.229-3.305-1.32-4.006.094-1.66-4.584-6.78,4.72-3.05-2.22.341-7.204-1.124-4.462-4.062-.375-2.635-2.312-2.651-2.287-4.969.105-.363-4.684-.876-3.942-7.21,1.558-2.432-2.755.936-5.225.514-4.618-8.267,1.128-.489-3.985.333-4.299-.321-3.799-5.585-1.346.741-4.249,2.615-4.76-7.795-1.078,5.394-5.371-5.048-2.294-3.918-2.844-2.489-3.326,3.467-4.287,3.745-4.035-4.695-3.164,1.071-3.672,1.055-3.59-.494-3.57,2.571-3.401-7.336-4.269,7.97-2.681-.391-3.611-4.483-4.548,4.83-2.619-3.236-4.631,2.042-3.241,1.811-3.255,5.388-1.763-.738-4.162-1.314-4.628,6.856-.53-2.424-5.431,3.359-2.206-2.192-5.817,9.815,2.485-5.308-8.517,3.523-1.955,6.369.745-1.647-6.494,5.011-.17.253-5.103,6.865,2.38,1.976-3.167,4.638.34,2.023-3.156.928-5.1,5.593,2.431.779-5.876,4.21.378,2.831-2.339,3.83-.053,1.481-6.218,4.411,1.589,2.634-3.883,4.799,3.95,3.998,1.857,1.907-9.012,3.765-.004,3.575-1.491,3.717-.545,3.753-.071,3.748,7.058,3.746-7.008,3.335,6.101,3.947-3.708,3.642.549,3.252,2.76,3.811-.615,3.747.048,3.785.133,3.208,2.12,3.215,1.887,2.919,2.494,2.131,4.05,4.303-.847,3.983.149,3.266,1.632.138,6.654,5.954-2.643,2.155,3.231,4.969-.518,3.504,1.601-1.64,7.416,4.49.411-.521,5.523,2.195,2.683,6.847-1.24,3.689,1.763,3.032,2.398-3.953,7.206,7.049-.284-3.014,6.032,6.657.434-2.075,5.142,6.669.927,1.216,3.565-1.688,4.606-3.017,4.804,5.149,2.148.076,3.726-2.852,4.285,2.875,3.021,2.871,3.184-2.448,3.907,4.385,3.238,1.954,3.609-6.749,3.734,2.847,3.6-4.743,3.281,3.133,3.786-2.104,3.303-1.088,3.365,3.877,4.379,1.732,4.186-2.153,3.271-1.842,3.285-1.051,3.518-4.122,2.292-4.211,2.024,3.622,5.616-6.953.435,2.863,5.636-.045,4.252-2.775,2.594-2.361,2.822-4.424,1.185,1.089,5.567-5.944-.358-.891,4.074-.205,5.003-3.542,1.657-5.268-.521-.602,5.017-6.582-2.777.716,7.261-2.642,2.741-3.808.855-6.189-3.788-1.918,3.955-.677,7.205-5.609-3.809-1.418,6.544-3.586,1.157-4.899-3.432-2.521,4.783-4.348-2.486-4.342-3.807-3.09,2.896-2.916,6.233-3.815-.848-3.7.241-3.708-1.533Z" style="fill: #fff;"/>
  <path d="M842.441,349.671l3.163-.599.774-4.203,4.913-.359,4.417-.827-2.145-6.903,2.184-2.889,5.132-.163,3.775-1.425-.529-5.405-.003-4.925,6.32.935,2.397-2.703,1.146-3.859,4.896-.388-2.989-7.693,2.691-2.422,7.021,1.581,4.663-.608.88-4.112,2.557-2.56,2.45-2.667-.224-4.636-.359-4.279-1.215-3.918-6.998,2.327-2.71-2.299.042-5.27-.518-4.668-7.735,3.121-1.494-3.614-.989-4.159-1.627-3.472-5.659.88-1.013-4.134.212-5.458-7.378,2.735,1.965-7.35-5.513.734-4.765-.076-3.839-1.084.173-5.415.253-5.497-5.6.819-1.753-3.34-1.847-3.233-2.986-2.009-.982-4.171-7.827,3.215,2.549-7.984-3.253-1.723-6.189,1.445.195-5.436-5.546.755-1.928-3.157-2.168-2.898.376-5.647-4.185-.731-5.568-1.881,8.302-2.674-6.93-1.188-1.482-3.682-6.004,1.331,3.693-9.415-8.92,4.57-1.637-3.506.902-6.319-6.42,1.797-.351-4.929-5.033.252,1.577-7.066-3.463-1.488-.593-4.665-3.602-1.336-5.174.408.68-6.079-5.84,1.141-1.137-4.058-3.265-1.707-1.68-3.469-6.185,1.522-.683-4.575-4.63-.212-.766-6.704-5.912,1.252,3.465,8.538-2.947,2.126-1.795,3.278-2.379,2.695-2.623,2.45-7.573-2.499,2.463,7.538-6.725-1.649.314,5.391-2.613,2.464-4.111.968-1.602,3.479-1.979,3.101-1.939,3.14-3.31,1.767-3.06,2.017-3.444,1.632-4.584.491-.707,4.368-1.351,3.724-2.425,2.65-6.518-1.444,1.326,6.401-3.533,1.542-.128,4.948-1.856,3.22-7.256-2.179-.585,4.493-5.562-.483-2.7,2.381,1.688,6.769-1.298,3.781-1.849,3.229-7.754-2.677,1.75,6.826-6.565-1.489,1.429,6.505-5.498-.422,1.458,6.534-2.733,2.344-4.821.256-5.662-.584.499,5.578-3.169,1.912-5.186-.104-.95,4.131-.883,4.196-4.591.487.354,5.431-1.29,3.787-7.356-2.279-.482,4.596-5.769-.691-.101,4.977-3.735,1.345-2.931,2.15.739,5.821-.683,4.398-3.413,1.666-3.106,1.973-2.432,2.646-4.679.399-4.72.359,1.463,6.542-6.779-1.7,1.165,6.246-1.017,4.065-3.185,1.896-2.761,2.319-4.532.547.539,5.618-5.874-.801-1.033,4.042-.14,4.939-3.393,1.689-5.264-.183-.051,5.027-6.909-1.834,1.958,7.031-1.93,3.142-3.407,1.665-7.003-1.932-.661,4.41,1.878,6.951-6.568-1.494,1.422,6.499-2.592,2.488-5.875-.792.266,5.349-4.942.138-5.765-.688-.854,4.222,1.59,6.665-3.367,1.708-2.503,2.573-6.674-1.595-.037,5.044-.671,4.414-1.949,3.134-6.384-1.304,1.738,6.817-8.933-3.855-1.541,3.538-.364,4.717-2.891,2.193-.142,4.944-6.979-1.897.725,5.805-6.117-1.036-3.095,1.987,1.077,6.164-2.501,2.584-5.659-.576,2.841,7.924-6.525-1.44,1.73,6.818-4.257.827-6.657-1.574-2.244,2.841-.553,4.535-4.18.904-.892,4.194-4.191.897-3.344,1.742-1.103,3.973-3.689,1.389-1.536,3.55-1.742,3.343-3.035,2.046-3.266,1.818,2.67,7.76-2.917,2.168-7.935-2.845-2.639,2.449-3.389,1.703.428,5.517-1.088,4.003-6.502-1.408,1.194,6.277-5.766-.677,2.157,7.252-1.941,3.155-4.986.111-.448,4.658-2.795,4.166-6.326-3.706-1.944-5.478-5.203,3.961-3.384-1.315-3.842.111-1.578-7.146-5.662,6.112-2.289-5.048-2.965-2.909-4.454,2.446-1.978-6.78-3.988.764-2.959-3.399-3.788-.026-3.449-1.536-4.565,3.905-3.051-3.536-3.764.121-3.831.696-3.64-.412-4.239,4.896-2.825-8.052-3.615-1.794-4,6.507-3.565-6.067-3.599,3.459-3.664-1.584-3.716-1.292-3.661.159-3.418,2.643-3.998-2.95-2.847,6.218-4.439-5.112-2.4,7.38-4.225-2.994-3.686.108-4.071-1.34-1.698,7.897-5.2-5.265-2.88,3.077-3.259,1.674-1.774,5.773-6.238-6.546-2.798,2.897-.837,7.324-6.577-6.041-3.389,1.44-.127,7.972-3.766.44-6.127-3.723-.062,7.26-5.951-2.948,1.011,8.46-7.76-5.343-.488,5.789-.562,5.378-3.749.876-1.676,3.619-8.037-4.277-.117,5.542-5.193-.432,2.607,8.24-4.782.098-.002,5.061-2.25,2.703-7.414-2.077-3.072,2.14-3.774,1.588.127,4.872-.299,4.376.929,5.176-6.821-.607,2.647,6.227-4.251,1.384-6.235.259.11,4.344,2.309,5.507-9.002-.955,1.084,4.729-4.028,2.029,2.051,5.039,1.225,4.488-1.939,3.009-6.665,1.131,4.161,5.489-2.067,3.018-1.51,3.244-2.451,2.968,1.783,4.254-2.871,2.888,1.645,4.082.164,3.643-2.094,3.145-8.22,2.088,7.259,4.901-8.011,2.43,4.316,4.219,2.392,3.833-6.812,2.989,1.941,3.774-4.18,3.444,4.476,3.777.239,3.597,3.213,3.528-1.947,3.608.175,3.564-4.611,3.947,8.372,2.848-9.068,4.619,1.945,3.458,8.528,2.337.756,3.422-6.808,4.952-.615,3.881,5.182,2.518,3.146,2.876-1.399,4.093,3.589,2.646.994,3.398-.368,3.89,2.322,2.941-5.104,5.883,7.988.603,1.502,3.211-3.621,5.644.383,3.898,4.76,1.66,5.109,1.309-1.37,4.879.011,4.213,8.134-.831-5.671,7.958,4.697,1.234,3.983,1.593,4.634.987-2.396,6.344,2.549,2.602,7.028-1.228-3.2,7.51,7.43-1.9,2.621,2.347-.387,5.34,4.075.93-1.461,6.8,3.728,1.309,5.72-1.124-1.154,6.998,5.962-1.675,2.364,2.774,4.486-.112,2.971,1.887.361,5.817.75,5.553,4.218.161,3.108,1.914,6.238-3.747,2.929,2,.218,7.454,5.564-3.174.457,7.639,4.278-.62,4.961-2.558,2.474,3.513,2.596,3.461,3.669.554,2.977,2.687,3.995-.586,5.081-4.915,2.2,5.783,4.1-1.746,2.802,4.117,3.611.46,3.544.829,4.117-3.171,3.757-1.434,3.619-.813,3.335,2.168,3.456,1.444,3.512,1.246,3.631-2.46,3.531,3.879,3.531-3.844,3.766,5.867,3.333-5.411,3.695,1.747,3.207-3.958,4.158,5.177,3.823,1.163,3.715.066,2.32-7.742,4.614,5.017,3.63-.45,3.915.652,3.139-2.498,3.53-.912,3.652-.535,2.524-3.989,3.732-.238,1.999-4.922,2.809-2.489,6.23,5.659,3.382-1.414,1.338-5.722,5.931,3.871,1.789-4.534,4.611.843,2.015-3.881,4.375.196-.925-8.351,6.999,4.165,3.287-1.722-2.174-9.319,7.474,4.088.388-5.447.401-5.175,4.412-.232,4.021-.835,2.493-2.612.737-4.426,3.575-1.436,4.478-.653-.54-5.435,2.584-2.448,5.386-.078,2.548-2.607-.384-4.924,3.274-2.003,4.431-1.238-.846-5.027,6.679.127-3.492-6.586,5.205-1.013.01-4.201-.336-4.296,7.504-.064-4.67-6.455,7.293-.452-.274-4.147,3.734-2.351-1.336-4.503-2.424-4.789-.25-3.844,6.273-1.602-.435-3.921.72-3.52,5.255-2.296.373-3.683-3.921-4.624,6.094-2.39-7.29-5.054,4.726-2.785-2.401-3.96,4.748-2.982-1.624-3.794.182-3.57,1.485-3.489.655-3.572,3.488-3.538-6.786-3.673,4.679-3.625-4.48-3.632,1.621-3.622,5.082-3.634-.579-3.639-2.403-3.621,1.824-3.669,1.674-3.701-2.89-3.573-3.003-3.504,1.476-3.719-.242-3.633-1.083-3.547-.691-3.566-4.863-2.898,7.818-5.015-2.952-3.188-2.57-3.141-4.754-2.371,4.499-5.176-5.65-1.8,3.09-5.133,1.05-4.591-4.686-1.845-3.115-2.45,1.706-5.327-4.24-1.682-4.096-1.56-.858-3.881-2.347-2.3.853-4.03,5.093-.012.933-4.13,4.979-.125,3.541-1.544.144-4.91,3.631-1.462,2.487-2.593,3.297-1.788.291-4.761,4.17-.919,1.556-3.506,2.832-2.242,1.735-3.328,3.828-1.257,3.935-1.152-.306-5.352,5.097-.005-1.716-6.752,4.766-.339,3.405-1.687.278-4.779,4.289-.806-1.972-7.003,8.857,3.718-.184-5.232,4.012-1.079-2.826-7.85,8.664,3.52.783-4.285,3.346-1.745.672-4.389-.962-6.005,3.988-1.104,2.538-2.541,2.964-2.121,5.147.036-.866-5.917,4.46-.641,1.907-3.167,2.275-2.803,1.872-3.203,7.982,2.841-3.495-8.519,7.463,2.33,1.749-3.326-1.874-6.914,4.221-.884,4.791-.316-.592-5.644,1.328-3.745,6.416,1.29.237-4.825,6.134,1.012-2.942-7.974,7.537,2.401,4.395-.699-.543-5.59,2.953-2.137,2.856-2.232,4.387-.712-.783-5.834,3.885-1.219,4.909-.199.41-4.659,1.93-3.152-.564-5.624,1.577-3.502,4.855-.26,1.893-3.194,3.702-1.392,3.054-2.04,1.275-3.807.306-4.768,8.962,3.8.954-4.136,1.199-1.821.408,2.772,2.371,2.804,8.261-3.556-1.968,7.485,2.14,3.049,4.105.93,4.402.614-1.192,6.649,6.429-1.581,4.991-.025,1.935,3.276.765,4.536,3.229,1.878.749,4.557,2.156,3.036,5.128-.171,4.256.759,1.099,4.176,3.204,1.903,1.733,3.486,4.858.116-.773,6.202,2.347,2.827,1.774,3.453,4.159.874.419,4.917,8.402-3.706.122,5.237,2.738,2.415,3.738,1.323,2.276,2.909-.938,6.386,4.006,1.049.44,4.9,7.913-3.16.574,4.603-.113-4.872,7.109,1.664-2.945-7.638,7.765,2.275,2.6-2.508-2.358-7.096,4.823-.449,5.746.401-3.407-8.071,5.341.025.409-4.54,4.864-.418,4.284-.953.289-4.655.8-4.184,4.138-1.081,1.048-3.951,6.128.749,2.626-2.495-1.024-5.877,4.05-1.185,1.652-3.26-2.768-2.086-3.011-1.989-3.175-1.811.169-5.418-6.385,1.658.008-5.247-.48-4.724-2.519-2.518-4.427-.457-.056-5.178-8.064,3.466-.243-4.976-5.457.652,2.113-7.522-3.507-1.453-4.496-.374-1.139-4.002-3.311-1.664-2.101-2.97-5.819,1.049.723-6.018-.657-4.534-3.249-1.729-4.648-.225-.629-4.561-2.521-2.524-4.355-.541-3.724-1.225-.365-4.854-3.498-1.459-6.562,1.842,1.47-6.837-6.414,1.676.516-5.808-4.771-.109-3.074-4.63,6.855-.687-1.962-7.183,3.471-1.551,6.047,1.111,3.593-1.436,1.024-4.092.326-4.81,6.308,1.375-2.305-7.541,7.156,2.252.892-4.234,1.533-3.569,1.053-4.069,5.221.245,4.81-.182-1.255-6.459,2.693-2.364,3.277-1.766,1.077-4.048,2.128-2.962,2.571-2.504,3.63-1.417,3.626-2.443.409,5.941,5.132-.187,1.626,3.597,4.584.401,3.873,1.168-1.599,7.078,6.047-1.173-1.654,7.137,3.704,1.351,3.094,2.013,3.941,1.1,3.602,1.463,3.91,1.131,2.272,2.903,2.869,2.256,1.119,4.148-.274,5.64,8.503-3.828-.167,5.532,5.522-.615-.142,5.504,1.755,3.462.773,4.517,3.711,1.351,5.771-.877,2.263,2.916,2.843,2.287,2.293,2.883,4.382.629-1.031,6.463,3.175,1.929-.109,5.48,3.754,1.311,4.496.511,2.782,2.461,2.847.727ZM281.995,780.134l-3.572-2.4-3.725,2.099-3.292-3.657-3.14-3.08-4.481,5.636-3.669-.342-2.698-4.37-2.929-2.648-4.584,2.845-4.572,1.967-1.516-6.229-3.305-1.32-4.006.094-1.66-4.584-6.78,4.72-3.05-2.22.341-7.204-1.124-4.462-4.062-.375-2.635-2.312-2.651-2.287-4.969.105-.363-4.684-.876-3.942-7.21,1.558-2.432-2.755.936-5.225.514-4.618-8.267,1.128-.489-3.985.333-4.299-.321-3.799-5.585-1.346.741-4.249,2.615-4.76-7.795-1.078,5.394-5.371-5.048-2.294-3.918-2.844-2.489-3.326,3.467-4.287,3.745-4.035-4.695-3.164,1.071-3.672,1.055-3.59-.494-3.57,2.571-3.401-7.336-4.269,7.97-2.681-.391-3.611-4.483-4.548,4.83-2.619-3.236-4.631,2.042-3.241,1.811-3.255,5.388-1.763-.738-4.162-1.314-4.628,6.856-.53-2.424-5.431,3.359-2.206-2.192-5.817,9.815,2.485-5.308-8.517,3.523-1.955,6.369.745-1.647-6.494,5.011-.17.253-5.103,6.865,2.38,1.976-3.167,4.638.34,2.023-3.156.928-5.1,5.593,2.431.779-5.876,4.21.378,2.831-2.339,3.83-.053,1.481-6.218,4.411,1.589,2.634-3.883,4.799,3.95,3.998,1.857,1.907-9.012,3.765-.004,3.575-1.491,3.717-.545,3.753-.071,3.748,7.058,3.746-7.008,3.335,6.101,3.947-3.708,3.642.549,3.252,2.76,3.811-.615,3.747.048,3.785.133,3.208,2.12,3.215,1.887,2.919,2.494,2.131,4.05,4.303-.847,3.983.149,3.266,1.632.138,6.654,5.954-2.643,2.155,3.231,4.969-.518,3.504,1.601-1.64,7.416,4.49.411-.521,5.523,2.195,2.683,6.847-1.24,3.689,1.763,3.032,2.398-3.953,7.206,7.049-.284-3.014,6.032,6.657.434-2.075,5.142,6.669.927,1.216,3.565-1.688,4.606-3.017,4.804,5.149,2.148.076,3.726-2.852,4.285,2.875,3.021,2.871,3.184-2.448,3.907,4.385,3.238,1.954,3.609-6.749,3.734,2.847,3.6-4.743,3.281,3.133,3.786-2.104,3.303-1.088,3.365,3.877,4.379,1.732,4.186-2.153,3.271-1.842,3.285-1.051,3.518-4.122,2.292-4.211,2.024,3.622,5.616-6.953.435,2.863,5.636-.045,4.252-2.775,2.594-2.361,2.822-4.424,1.185,1.089,5.567-5.944-.358-.891,4.074-.205,5.003-3.542,1.657-5.268-.521-.602,5.017-6.582-2.777.716,7.261-2.642,2.741-3.808.855-6.189-3.788-1.918,3.955-.677,7.205-5.609-3.809-1.418,6.544-3.586,1.157-4.899-3.432-2.521,4.783-4.348-2.486-4.342-3.807-3.09,2.896-2.916,6.233-3.815-.848-3.7.241-3.708-1.533Z" style="fill: none; stroke: #000; stroke-linecap: round; stroke-linejoin: round; stroke-width: 35px;"/>
</svg>