<?xml version="1.0" encoding="UTF-8"?>
<svg id="Sticker" xmlns="http://www.w3.org/2000/svg" width="1000" height="1000" viewBox="0 0 1000 1000">
  <g>
    <polygon points="681.899 342.986 678.542 341.297 675.145 337.387 671.403 337.606 667.68 336.573 663.993 337.287 660.723 343.666 657.344 345.785 653.264 340.675 649.393 338.853 645.879 340.125 642.524 342.255 639.476 345.939 634.812 340.25 631.864 344.243 629.402 350.16 625.32 348.127 622.559 352.078 618.645 351.005 613.404 344.95 610.727 349.051 607.804 352.007 603.779 351.036 599.583 349.665 597.514 355.18 592.941 352.775 590.544 356.979 585.931 354.732 584.043 360.125 580.49 360.873 576.248 359.914 575.282 367.103 568.148 359.368 568.172 368.536 561.771 363.065 562.13 372.41 557.651 371.314 555.766 375.524 551.215 374.467 546.437 373.178 543.324 375.058 541.193 378.613 539.997 383.582 536.735 385.042 529.36 380.263 527.135 383.548 527.975 391.049 523.237 390.596 518.608 390.494 519.447 397.338 512.349 394.429 513.955 401.641 510.052 402.221 507.708 398.715 507.321 393.567 504.002 391.923 503.141 387.03 496.882 389.466 495.918 384.564 490.807 385.72 489.373 381.328 485.546 380.661 480.656 381.896 480.449 375.098 477.419 373.087 474.553 370.748 469.366 372.918 467.6 368.411 462.736 370.21 458.92 369.969 456.656 366.312 454.653 361.889 451.196 360.765 448.749 357.134 444.019 359.255 440.338 358.811 436.871 357.832 432.032 360.835 429.454 357.375 426.543 354.769 423.86 351.298 420.556 349.723 415.897 352.885 413.445 348.274 408.334 353.596 406.583 345.893 401.629 351.17 399.994 342.11 395.83 344.199 391.77 346.131 388.353 344.905 385.406 340.761 380.858 346.495 378.172 339.956 374.691 338.415 370.312 345.203 367.366 337.982 363.756 336.945 359.995 338.637 356.296 341.659 352.699 339.973 349.165 341.896 345.282 338.567 342.642 346.289 338.731 343.683 334.19 340.306 332.198 346.468 327.311 342.796 323.722 343.518 322.586 351.014 317.214 346.797 314.265 349.131 309.855 347.873 309.943 357.228 302.842 349.964 300.479 353.519 299.912 360.678 295.438 359.6 290.278 357.359 290.211 364.971 286.907 366.298 281.633 364.171 281.394 370.894 275.98 368.749 271.979 369.123 267.81 369.343 265.323 372.191 267.045 381.025 260.376 377.77 257.357 379.765 256.707 384.804 253.842 386.901 250.414 388.346 250.197 393.473 247.957 396.177 243.568 396.648 240.997 399.069 239.527 402.51 231.089 399.814 232.614 405.866 230.5 408.751 225.305 409.447 225.957 414.307 223.759 417.172 225.299 422.122 216.492 421.615 223.671 428.905 221.129 431.522 212.268 432.203 218.523 437.865 218.612 441.389 215.101 444.237 216.14 447.895 212.073 451.133 209.931 454.79 215.697 458.23 213.294 461.973 212.228 465.793 218.786 468.152 213.763 472.985 217.592 475.63 215.337 480.213 222.896 481.1 217.745 487.217 221.446 489.494 223.376 492.577 221.011 497.661 230.877 497.026 231.475 500.72 226.974 506.852 233.226 507.859 232.785 512.075 235.312 514.856 232.248 520.39 234.224 523.454 238.22 525.499 243.221 527.009 246.263 529.491 246.355 533.489 241.943 539.865 247.728 540.905 244.845 546.545 252.956 546.276 252.134 550.831 255.846 552.9 257.798 555.933 257.372 560.317 255.659 565.476 263.552 565.072 260.2 571.238 261.067 574.953 267.07 575.556 270.856 577.458 271.111 581.54 270.737 586.054 274.142 588.17 279.812 588.769 281.015 592.272 280.259 597.12 281.805 600.441 285.453 602.302 290.947 602.808 289.765 608.073 294.904 608.753 297.146 611.531 297.658 615.629 299.733 618.555 303.812 619.889 300.029 627.544 305.024 628.127 308.753 629.691 309.001 634.207 314.736 633.966 311.563 641.612 313.035 645.207 319.169 644.46 324.628 644.207 325.005 648.823 323.549 655.385 332.208 651.698 334.498 654.444 335.053 659.086 339.819 659.154 339.143 665.316 342.442 667.018 343.702 671.144 346.506 673.46 349.285 675.809 351.742 678.588 354.88 680.481 361.732 677.18 363.492 680.86 363.928 686.612 367.098 688.418 372.105 687.3 373.752 691.483 378.854 689.96 379.392 696.229 384.804 693.93 385.559 700.157 390.216 699.048 392.31 702.976 397.523 700.428 399.241 705.326 402.634 706.626 405.425 709.381 408.036 712.73 412.448 711.445 415.284 714.343 418.7 715.696 424.429 709.817 427.853 710.771 430.151 715.68 434.557 713.207 438.339 712.769 440.015 721.14 445.104 714.984 446.948 723.785 452.09 716.26 454.655 722.322 458.266 722.736 461.705 724.342 465.058 726.889 469.692 718.494 472.75 723.718 476.477 722.558 479.815 726.396 483.82 720.084 487.278 722.528 490.821 724.116 494.374 727.627 498.027 727.732 501.598 728.717 505.198 721.924 508.767 722.746 512.336 723.594 515.904 724.416 519.485 720.208 523.05 723.894 526.681 727.721 530.156 723.186 533.828 727.609 537.313 723.405 540.882 723.225 544.506 727.463 548.031 723.852 551.554 719.166 555.144 720.68 558.739 722.619 562.274 721.803 566.112 726.956 569.264 720.339 572.88 721.115 576.018 717.712 580.778 725.966 584.473 725.737 587.117 720.145 590.238 717.742 593.372 715.708 598.527 721.308 600.453 714.945 605.117 717.928 606.54 710.947 612.91 718.116 615.846 715.53 619.657 715.183 620.024 706.939 623.766 706.633 627.946 707.099 628.971 701.249 634.793 704.67 635.691 698.91 638.108 696.066 643.905 698.83 646.444 696.117 648.097 692.115 652.524 692.319 655.097 689.747 656.294 685.322 659.775 684.074 662.997 682.438 666.623 681.275 669.443 679.071 672.035 676.593 677.313 677.217 676.878 671.279 682.193 671.808 683.745 668.177 687.654 667.06 691.357 665.669 691.218 660.403 691.527 655.691 693.761 652.906 698.365 652.343 698.781 647.864 704.382 648.109 706.556 645.226 705.42 639.491 708.01 637.026 709.168 633.359 718.455 636.373 713.631 627.844 723.168 630.861 724.308 627.157 721.684 620.604 722.453 616.722 730.283 618.101 728.73 612.505 732.398 610.741 732.716 606.572 739.05 606.635 738.738 602.042 744.408 601.551 743.607 596.664 742.357 591.532 748.975 591.578 749.989 587.945 752.01 584.965 753.16 581.44 755.115 578.427 760.267 577.365 759.645 572.772 762.7 570.406 759.979 564.621 767.427 564.818 763.527 558.409 770.262 558.123 767.924 552.672 774.314 552.126 768.408 544.759 774.562 544.045 778.337 541.998 777.951 537.714 779.665 534.559 778.45 529.875 785.905 529.699 783.131 524.232 789.312 523.343 787.553 518.429 791.274 516.268 789.514 511.391 791.774 508.504 795.4 506.269 794.075 501.649 795.567 498.389 800.26 496.631 797.227 491.253 797.722 487.539 806.398 487.573 800.452 481.058 808.421 480.256 806.314 475.674 807.674 472.305 808.271 468.733 810.146 465.365 807.642 461.434 812.534 458.115 810.171 454.379 812.371 450.577 809.027 447.202 806.3 444.038 805.892 440.554 803.804 437.516 801.53 434.661 805.343 429.459 800.5 427.669 800.305 423.851 797.246 421.502 801.61 414.673 794.558 414.882 795.618 409.721 788.179 410.851 786.72 407.55 786.877 402.737 786.024 398.603 778.809 400.565 779.982 394.323 775.078 394.293 772.029 392.381 771.828 387.129 771.617 381.63 767.187 381.294 765.652 377.248 759.887 378.931 758.286 374.911 755.77 372.112 749.342 375.304 750.079 367.405 744.369 369.748 743.163 364.683 740.832 361.386 738.066 358.782 730.486 365.214 727.471 363.29 726.444 357.332 723.118 355.874 720.315 353.293 716.744 352.355 712.762 352.406 709.352 351.187 704.891 352.664 701.286 352.144 700.84 342.811 697.269 341.829 691.549 347.851 689.955 340.426 686.314 339.613 681.899 342.986" style="fill: #fff;"/>
    <polygon points="681.899 342.986 678.542 341.297 675.145 337.387 671.403 337.606 667.68 336.573 663.993 337.287 660.723 343.666 657.344 345.785 653.264 340.675 649.393 338.853 645.879 340.125 642.524 342.255 639.476 345.939 634.812 340.25 631.864 344.243 629.402 350.16 625.32 348.127 622.559 352.078 618.645 351.005 613.404 344.95 610.727 349.051 607.804 352.007 603.779 351.036 599.583 349.665 597.514 355.18 592.941 352.775 590.544 356.979 585.931 354.732 584.043 360.125 580.49 360.873 576.248 359.914 575.282 367.103 568.148 359.368 568.172 368.536 561.771 363.065 562.13 372.41 557.651 371.314 555.766 375.524 551.215 374.467 546.437 373.178 543.324 375.058 541.193 378.613 539.997 383.582 536.735 385.042 529.36 380.263 527.135 383.548 527.975 391.049 523.237 390.596 518.608 390.494 519.447 397.338 512.349 394.429 513.955 401.641 510.052 402.221 507.708 398.715 507.321 393.567 504.002 391.923 503.141 387.03 496.882 389.466 495.918 384.564 490.807 385.72 489.373 381.328 485.546 380.661 480.656 381.896 480.449 375.098 477.419 373.087 474.553 370.748 469.366 372.918 467.6 368.411 462.736 370.21 458.92 369.969 456.656 366.312 454.653 361.889 451.196 360.765 448.749 357.134 444.019 359.255 440.338 358.811 436.871 357.832 432.032 360.835 429.454 357.375 426.543 354.769 423.86 351.298 420.556 349.723 415.897 352.885 413.445 348.274 408.334 353.596 406.583 345.893 401.629 351.17 399.994 342.11 395.83 344.199 391.77 346.131 388.353 344.905 385.406 340.761 380.858 346.495 378.172 339.956 374.691 338.415 370.312 345.203 367.366 337.982 363.756 336.945 359.995 338.637 356.296 341.659 352.699 339.973 349.165 341.896 345.282 338.567 342.642 346.289 338.731 343.683 334.19 340.306 332.198 346.468 327.311 342.796 323.722 343.518 322.586 351.014 317.214 346.797 314.265 349.131 309.855 347.873 309.943 357.228 302.842 349.964 300.479 353.519 299.912 360.678 295.438 359.6 290.278 357.359 290.211 364.971 286.907 366.298 281.633 364.171 281.394 370.894 275.98 368.749 271.979 369.123 267.81 369.343 265.323 372.191 267.045 381.025 260.376 377.77 257.357 379.765 256.707 384.804 253.842 386.901 250.414 388.346 250.197 393.473 247.957 396.177 243.568 396.648 240.997 399.069 239.527 402.51 231.089 399.814 232.614 405.866 230.5 408.751 225.305 409.447 225.957 414.307 223.759 417.172 225.299 422.122 216.492 421.615 223.671 428.905 221.129 431.522 212.268 432.203 218.523 437.865 218.612 441.389 215.101 444.237 216.14 447.895 212.073 451.133 209.931 454.79 215.697 458.23 213.294 461.973 212.228 465.793 218.786 468.152 213.763 472.985 217.592 475.63 215.337 480.213 222.896 481.1 217.745 487.217 221.446 489.494 223.376 492.577 221.011 497.661 230.877 497.026 231.475 500.72 226.974 506.852 233.226 507.859 232.785 512.075 235.312 514.856 232.248 520.39 234.224 523.454 238.22 525.499 243.221 527.009 246.263 529.491 246.355 533.489 241.943 539.865 247.728 540.905 244.845 546.545 252.956 546.276 252.134 550.831 255.846 552.9 257.798 555.933 257.372 560.317 255.659 565.476 263.552 565.072 260.2 571.238 261.067 574.953 267.07 575.556 270.856 577.458 271.111 581.54 270.737 586.054 274.142 588.17 279.812 588.769 281.015 592.272 280.259 597.12 281.805 600.441 285.453 602.302 290.947 602.808 289.765 608.073 294.904 608.753 297.146 611.531 297.658 615.629 299.733 618.555 303.812 619.889 300.029 627.544 305.024 628.127 308.753 629.691 309.001 634.207 314.736 633.966 311.563 641.612 313.035 645.207 319.169 644.46 324.628 644.207 325.005 648.823 323.549 655.385 332.208 651.698 334.498 654.444 335.053 659.086 339.819 659.154 339.143 665.316 342.442 667.018 343.702 671.144 346.506 673.46 349.285 675.809 351.742 678.588 354.88 680.481 361.732 677.18 363.492 680.86 363.928 686.612 367.098 688.418 372.105 687.3 373.752 691.483 378.854 689.96 379.392 696.229 384.804 693.93 385.559 700.157 390.216 699.048 392.31 702.976 397.523 700.428 399.241 705.326 402.634 706.626 405.425 709.381 408.036 712.73 412.448 711.445 415.284 714.343 418.7 715.696 424.429 709.817 427.853 710.771 430.151 715.68 434.557 713.207 438.339 712.769 440.015 721.14 445.104 714.984 446.948 723.785 452.09 716.26 454.655 722.322 458.266 722.736 461.705 724.342 465.058 726.889 469.692 718.494 472.75 723.718 476.477 722.558 479.815 726.396 483.82 720.084 487.278 722.528 490.821 724.116 494.374 727.627 498.027 727.732 501.598 728.717 505.198 721.924 508.767 722.746 512.336 723.594 515.904 724.416 519.485 720.208 523.05 723.894 526.681 727.721 530.156 723.186 533.828 727.609 537.313 723.405 540.882 723.225 544.506 727.463 548.031 723.852 551.554 719.166 555.144 720.68 558.739 722.619 562.274 721.803 566.112 726.956 569.264 720.339 572.88 721.115 576.018 717.712 580.778 725.966 584.473 725.737 587.117 720.145 590.238 717.742 593.372 715.708 598.527 721.308 600.453 714.945 605.117 717.928 606.54 710.947 612.91 718.116 615.846 715.53 619.657 715.183 620.024 706.939 623.766 706.633 627.946 707.099 628.971 701.249 634.793 704.67 635.691 698.91 638.108 696.066 643.905 698.83 646.444 696.117 648.097 692.115 652.524 692.319 655.097 689.747 656.294 685.322 659.775 684.074 662.997 682.438 666.623 681.275 669.443 679.071 672.035 676.593 677.313 677.217 676.878 671.279 682.193 671.808 683.745 668.177 687.654 667.06 691.357 665.669 691.218 660.403 691.527 655.691 693.761 652.906 698.365 652.343 698.781 647.864 704.382 648.109 706.556 645.226 705.42 639.491 708.01 637.026 709.168 633.359 718.455 636.373 713.631 627.844 723.168 630.861 724.308 627.157 721.684 620.604 722.453 616.722 730.283 618.101 728.73 612.505 732.398 610.741 732.716 606.572 739.05 606.635 738.738 602.042 744.408 601.551 743.607 596.664 742.357 591.532 748.975 591.578 749.989 587.945 752.01 584.965 753.16 581.44 755.115 578.427 760.267 577.365 759.645 572.772 762.7 570.406 759.979 564.621 767.427 564.818 763.527 558.409 770.262 558.123 767.924 552.672 774.314 552.126 768.408 544.759 774.562 544.045 778.337 541.998 777.951 537.714 779.665 534.559 778.45 529.875 785.905 529.699 783.131 524.232 789.312 523.343 787.553 518.429 791.274 516.268 789.514 511.391 791.774 508.504 795.4 506.269 794.075 501.649 795.567 498.389 800.26 496.631 797.227 491.253 797.722 487.539 806.398 487.573 800.452 481.058 808.421 480.256 806.314 475.674 807.674 472.305 808.271 468.733 810.146 465.365 807.642 461.434 812.534 458.115 810.171 454.379 812.371 450.577 809.027 447.202 806.3 444.038 805.892 440.554 803.804 437.516 801.53 434.661 805.343 429.459 800.5 427.669 800.305 423.851 797.246 421.502 801.61 414.673 794.558 414.882 795.618 409.721 788.179 410.851 786.72 407.55 786.877 402.737 786.024 398.603 778.809 400.565 779.982 394.323 775.078 394.293 772.029 392.381 771.828 387.129 771.617 381.63 767.187 381.294 765.652 377.248 759.887 378.931 758.286 374.911 755.77 372.112 749.342 375.304 750.079 367.405 744.369 369.748 743.163 364.683 740.832 361.386 738.066 358.782 730.486 365.214 727.471 363.29 726.444 357.332 723.118 355.874 720.315 353.293 716.744 352.355 712.762 352.406 709.352 351.187 704.891 352.664 701.286 352.144 700.84 342.811 697.269 341.829 691.549 347.851 689.955 340.426 686.314 339.613 681.899 342.986" style="fill: none; stroke: #000; stroke-linecap: round; stroke-linejoin: round; stroke-width: 35px;"/>
  </g>
  <g>
    <polyline points="222.551 502.785 226.715 503.293 231.937 506.904 233.092 499.45 236.026 496.593 239.788 496.23 245.607 503.34 247.212 495.479 250.614 493.959 255.105 497.314 259.038 498.678 262.09 495.56 265.042 491.238 269.543 496.84 272.61 492.677 275.768 488.152 279.708 490.728 283.284 489.704 286.796 487.151 290.668 491.492 294.228 489.215 297.905 491.71 301.501 495.071 305.126 491.784 308.621 495.282 312.531 488.091 315.747 495.482 319.328 495.415 323.558 488.18 326.77 492.856 330.257 494.162 334.068 492.772 337.404 495.074 341.358 493.069 344.796 494.55 348.633 493.672 351.253 499.366 355.606 495.918 358.747 498.576 361.958 500.728 366.58 496.833 368.95 502.379 372.661 502.389 376.484 502.064 380.488 501.21 382.845 506.056 386.576 506.154 389.961 507.403 393.394 508.498 396.814 509.636 399.494 512.87 403.741 511.679 408.144 510.22 412.48 509.092 413.382 516.722 416.549 518.475 419.277 521.246 425.406 516.095 426.306 523.041 432.409 518.313 434.541 522.376 438.297 522.933 441.691 524.277 442.74 530.273 447.107 529.653 448.493 534.76 455.522 529.323 457.389 533.496 461.963 532.809 463.029 538.249 463.669 544.232 470.619 539.72 470.025 547.527 475.833 545.097 477.863 548.61 478.949 553.452 484.782 551.294 484.838 557.486 488.23 558.887 495.198 555.532 495.431 561.244 501.627 559.203 499.041 568.244 501.856 570.426 504.586 572.705 508.846 573.256 509.777 577.561 515.095 577.945 517.361 574.219 519.974 571.747 523.487 570.329 523.903 565.227 530.951 568.159 531.045 562.574 537.178 564.612 539.215 561.446 539.712 556.163 543.252 554.925 548.708 556.413 547.885 549.049 548.93 544.192 556.944 549.64 554.955 540.124 562.358 544.939 565.836 543.788 565.238 536.034 570.622 537.972 573.977 536.63 576.711 534.227 578.059 529.338 582.871 530.594 587.543 531.727 589.62 528.064 593.206 527.239 595.961 524.799 600.184 525.31 603.099 523.192 603.92 516.565 607.336 515.37 611.031 514.818 614.818 514.53 618.358 513.718 622.625 514.72 622.682 505.247 628.761 510.92 632.083 509.646 635.518 508.681 639.261 508.617 642.547 507.279 644.39 501.49 646.608 496.541 651.329 499.587 653.935 495.659 657.296 494.198 662.221 498.614 664.724 493.921 669.262 497.359 671.558 491.343 675.573 492.774 680.125 497.178 682.69 491.646 686.482 492.457 689.987 491.707 692.814 486.256 696.782 488.444 700.729 491.092 703.919 487.22 707.648 488.31 711.193 487.44 715.083 492.212 718.645 492.884 721.999 486.774 725.584 484.461 729.188 492.775 732.895 483.794 736.321 489.948 739.903 489.64 743.229 493.056 746.91 491.34 750.429 491.761 753.694 494.17 757.446 492.736 761.705 488.684 764.377 494.176 769.243 488.045 772.56 490.01 774.912 495.689 778.104 497.473 782.556 494.786 785.761 496.61 788.593 499.446 792.345 499.493 796.667 498.198 800.133 499.314" style="fill: #fff;"/>
    <polyline points="222.551 502.785 226.715 503.293 231.937 506.904 233.092 499.45 236.026 496.593 239.788 496.23 245.607 503.34 247.212 495.479 250.614 493.959 255.105 497.314 259.038 498.678 262.09 495.56 265.042 491.238 269.543 496.84 272.61 492.677 275.768 488.152 279.708 490.728 283.284 489.704 286.796 487.151 290.668 491.492 294.228 489.215 297.905 491.71 301.501 495.071 305.126 491.784 308.621 495.282 312.531 488.091 315.747 495.482 319.328 495.415 323.558 488.18 326.77 492.856 330.257 494.162 334.068 492.772 337.404 495.074 341.358 493.069 344.796 494.55 348.633 493.672 351.253 499.366 355.606 495.918 358.747 498.576 361.958 500.728 366.58 496.833 368.95 502.379 372.661 502.389 376.484 502.064 380.488 501.21 382.845 506.056 386.576 506.154 389.961 507.403 393.394 508.498 396.814 509.636 399.494 512.87 403.741 511.679 408.144 510.22 412.48 509.092 413.382 516.722 416.549 518.475 419.277 521.246 425.406 516.095 426.306 523.041 432.409 518.313 434.541 522.376 438.297 522.933 441.691 524.277 442.74 530.273 447.107 529.653 448.493 534.76 455.522 529.323 457.389 533.496 461.963 532.809 463.029 538.249 463.669 544.232 470.619 539.72 470.025 547.527 475.833 545.097 477.863 548.61 478.949 553.452 484.782 551.294 484.838 557.486 488.23 558.887 495.198 555.532 495.431 561.244 501.627 559.203 499.041 568.244 501.856 570.426 504.586 572.705 508.846 573.256 509.777 577.561 515.095 577.945 517.361 574.219 519.974 571.747 523.487 570.329 523.903 565.227 530.951 568.159 531.045 562.574 537.178 564.612 539.215 561.446 539.712 556.163 543.252 554.925 548.708 556.413 547.885 549.049 548.93 544.192 556.944 549.64 554.955 540.124 562.358 544.939 565.836 543.788 565.238 536.034 570.622 537.972 573.977 536.63 576.711 534.227 578.059 529.338 582.871 530.594 587.543 531.727 589.62 528.064 593.206 527.239 595.961 524.799 600.184 525.31 603.099 523.192 603.92 516.565 607.336 515.37 611.031 514.818 614.818 514.53 618.358 513.718 622.625 514.72 622.682 505.247 628.761 510.92 632.083 509.646 635.518 508.681 639.261 508.617 642.547 507.279 644.39 501.49 646.608 496.541 651.329 499.587 653.935 495.659 657.296 494.198 662.221 498.614 664.724 493.921 669.262 497.359 671.558 491.343 675.573 492.774 680.125 497.178 682.69 491.646 686.482 492.457 689.987 491.707 692.814 486.256 696.782 488.444 700.729 491.092 703.919 487.22 707.648 488.31 711.193 487.44 715.083 492.212 718.645 492.884 721.999 486.774 725.584 484.461 729.188 492.775 732.895 483.794 736.321 489.948 739.903 489.64 743.229 493.056 746.91 491.34 750.429 491.761 753.694 494.17 757.446 492.736 761.705 488.684 764.377 494.176 769.243 488.045 772.56 490.01 774.912 495.689 778.104 497.473 782.556 494.786 785.761 496.61 788.593 499.446 792.345 499.493 796.667 498.198 800.133 499.314" style="fill: none; stroke: #000; stroke-linecap: round; stroke-linejoin: round; stroke-width: 35px;"/>
  </g>
</svg>