<?xml version="1.0" encoding="UTF-8"?>
<svg id="Sticker" xmlns="http://www.w3.org/2000/svg" width="1000" height="1000" viewBox="0 0 1000 1000">
  <polygon points="176.475 832.312 176.398 826.795 174.66 826.353 171.149 822.588 174.912 821.266 179.914 821.182 181.328 817.51 179.864 810.961 185.877 811.889 189.398 810.325 189.221 805.062 196.099 806.855 192.625 798.296 199.733 800.318 201.158 796.658 203.46 793.874 206.006 791.333 210.35 790.592 208.104 783.259 216.335 786.403 218.136 783.117 221.415 781.308 219.272 774.076 223.605 773.32 226.545 771.171 225.899 765.435 229.244 763.69 234.323 763.676 235.476 759.737 237.651 756.82 241.702 755.777 243.055 752.034 247.404 751.288 249.197 747.985 254.966 748.656 254.317 742.908 254.262 737.754 256.912 735.305 259.511 732.806 261.581 729.781 269.689 732.793 268.493 726.502 272.862 725.776 277.88 725.701 277.482 720.211 281.949 719.586 285.288 717.832 285.189 712.643 286.04 708.403 292.387 709.66 290.134 702.316 291.51 698.602 300.3 702.303 301.66 698.574 300.506 692.33 306.287 693.022 309.084 690.729 309.447 686.003 314.073 685.539 317.036 683.412 318.556 679.842 317.351 673.547 325.632 676.737 325.283 671.296 324.626 665.548 331.665 667.494 335.084 665.82 333.769 659.411 339.865 660.412 339.818 655.269 344.397 654.753 343.034 648.291 346.536 646.696 352.224 647.284 354.832 644.791 355.377 640.236 362.046 641.806 364.338 639 365.084 634.648 366.547 631.016 368.187 627.56 373.06 627.338 374.571 623.754 378.539 622.628 382.436 621.432 380.108 614.011 385.433 614.243 385.509 609.227 387.286 605.911 389.163 602.695 393.285 601.726 394.481 597.829 402.92 601.175 400.134 593.295 402.772 590.84 404.607 587.581 412.222 590.101 414.462 587.245 415.54 583.227 413.704 576.295 416.298 573.79 419.414 571.807 426.65 573.943 425.337 567.528 428.512 565.602 436.008 567.998 433.619 560.509 440.284 562.076 437.711 554.406 442.938 554.536 444.626 551.128 448.138 549.544 452.749 549.061 452.124 543.341 454.74 540.862 459.427 540.453 460.945 536.877 463.329 534.166 468.558 534.299 466.665 527.311 469.119 524.668 474.458 524.909 474.504 519.858 480.862 521.117 481.15 516.305 480.133 510.187 484.584 509.535 489.457 509.306 488.709 503.458 493.678 503.327 495.272 499.823 496.322 495.774 498.828 493.183 503.898 493.155 504.603 488.764 511.081 490.145 512.38 486.347 514.958 483.829 518.904 482.677 521.025 479.7 519.46 473.036 524.125 472.602 528.62 471.997 532.082 470.357 531.836 465.009 536.176 464.246 535.233 458.201 542.476 460.344 541.735 454.504 547.077 454.747 545.061 447.632 549.638 447.111 554.39 446.765 553.318 440.595 555.415 437.593 560.11 437.189 562.399 434.377 561.862 428.739 569.033 430.807 568.572 425.243 573.907 425.476 572.235 418.702 577.401 418.767 581.822 418.089 583.936 415.103 583.574 409.642 591.42 412.388 590.297 406.165 593.849 404.617 598.167 403.833 596.337 396.9 598.231 393.69 603.537 393.893 603.487 388.741 608.319 388.472 607.92 382.973 610.592 380.545 617.43 382.282 617.739 377.49 619.822 374.472 626.036 375.582 623.307 367.748 631.957 371.295 628.745 362.981 634.691 363.825 634.694 358.728 637.877 356.809 642.435 356.27 644.097 352.831 646.079 349.709 647.69 346.217 653.476 346.903 651.197 339.528 659.922 343.157 662.19 340.331 661.357 334.404 663.466 331.42 666.198 329.058 672.62 330.386 668.667 321.337 674.542 322.113 680.294 322.764 676.907 314.271 684.603 316.862 681.462 308.62 686.91 308.969 689.699 306.659 694.953 306.816 692.998 299.764 694.908 296.575 701.042 297.608 702.798 294.261 703.339 289.694 708.471 289.721 711.535 287.683 713.955 285.002 714.606 280.554 720.192 281.038 720.824 276.567 721.868 272.505 726.058 271.588 729.729 270.154 733.943 269.265 735.967 266.187 738.166 263.282 737.998 258.005 739.951 254.851 745.309 255.105 745.86 250.551 748.741 248.326 748.593 243.068 753.506 242.874 755.073 239.335 755.892 235.047 761.775 235.82 762.697 231.636 768.534 232.365 769.602 228.322 772.483 226.096 771.755 220.271 775.014 218.43 781.708 220.016 781.206 214.407 786.757 214.855 786.925 209.917 787.138 205.018 795.197 207.971 795.749 203.41 797.809 200.361 797.256 194.694 800.523 192.85 804.786 191.999 810.714 192.811 813.263 190.255 813.752 185.632 816.656 183.419 816.121 177.765 823.01 179.535 819.471 170.868 825.033 175.416 828.45 174.744 830.037 177.96 827.473 178.829 829.583 186.024 827.114 188.641 821.587 188.199 819.949 191.647 813.688 190.472 815.018 196.887 812.097 199.051 805.15 197.189 808.416 205.54 803.669 205.879 799.841 207.136 796.715 209.097 797.227 214.694 790.995 213.548 793.911 221.551 788.542 221.27 789.144 226.959 782.605 225.508 781.038 229.029 777.945 231.025 773.958 232.127 773.694 236.954 769.113 237.463 767.557 240.999 764.841 243.374 761.942 245.569 759.565 248.286 755.928 249.743 753.578 252.489 753.637 257.644 751.355 260.46 744.418 258.622 746.582 265.886 742.91 267.312 741.445 270.945 735.016 269.612 735.193 274.884 732.37 277.156 732.588 282.468 725.437 280.411 725.95 286.017 725.489 290.648 720.316 290.566 718.541 293.883 712.682 293.114 709.585 295.108 712.475 303.088 710.077 305.78 701.965 302.758 701.185 307.067 696.601 307.572 700.021 316.081 694.965 316.115 688.7 314.94 686.202 317.531 684.419 320.839 680.655 322.164 678.585 325.184 676.455 328.146 673.058 329.84 670.716 332.59 672.844 339.81 668.637 340.696 668.626 345.78 661.411 343.659 663.846 351.189 657.444 349.884 652.7 350.238 651.71 354.346 651.076 358.811 648.61 361.446 648.579 366.516 645.417 368.452 638.525 366.659 636.313 369.544 637.587 375.914 632.208 375.631 631.478 379.995 628.985 382.597 625.119 383.825 623.789 387.588 619.645 388.537 617.672 391.656 611.876 390.954 612.862 397.032 607.911 397.173 610.948 405.303 603.949 403.397 601.826 406.367 596.755 406.389 595.139 409.867 593.908 413.729 590.05 414.966 587.712 417.724 586.269 421.377 582.952 423.157 581.819 427.121 579.617 430.019 575.945 431.447 576.283 436.887 574.522 440.227 567.357 438.162 565.882 441.786 565.183 446.186 560.898 446.998 558.377 449.574 556.908 453.202 555.218 456.607 554.349 460.833 547.892 459.471 545.704 462.377 540.925 462.694 543.912 470.775 538.85 470.809 536.604 473.658 535.94 478.09 529.354 476.601 526.369 478.712 522.696 480.138 523.525 486.065 521.692 489.333 518.486 491.228 514.217 492.061 514.226 497.172 511.133 499.18 505.94 499.087 504.878 503.123 504.952 508.296 499.892 508.333 495.209 508.747 496.52 515.155 490.779 514.51 488.694 517.523 489.227 523.152 486.882 525.904 479.399 523.519 479.129 528.348 480.579 534.896 477.292 536.711 475.7 540.219 472.583 542.205 468.841 543.566 461.583 541.409 464.088 549.015 457.15 547.177 453.692 548.818 453.031 553.255 455.073 560.395 448.125 558.545 443.747 559.266 446.972 567.589 439.858 565.575 439.119 569.936 439.852 575.77 432.527 573.547 432.656 578.781 428.463 579.69 425.749 582.077 421.794 583.223 423.247 589.776 420.319 591.947 416.706 593.434 411.87 593.697 412.324 599.25 409.521 601.549 408.072 605.201 403.649 605.881 401.735 609.072 398.183 610.622 394.662 612.203 392.85 615.492 392.013 619.755 389.452 622.294 387.778 625.721 386.429 629.474 379.357 627.504 378.027 631.276 374.35 632.704 373.92 637.377 369.189 637.749 367.81 641.471 364.391 643.153 363.581 647.444 363.159 652.119 358.504 652.565 358.03 657.195 349.111 653.379 350.693 660.06 345.573 660.038 342.906 662.466 345.155 669.81 339.924 669.672 339.162 674.003 337.16 677.095 329.078 674.108 331.678 681.804 326.05 681.274 327.055 687.381 319.123 684.554 320.906 691.442 314.669 690.306 312.565 693.302 313.412 699.247 307.157 698.089 309.544 705.574 302.845 703.973 298.486 704.715 299.137 710.469 298.331 714.771 290.923 712.468 292.352 718.999 288.189 719.937 289.079 725.927 283.192 725.141 284.424 731.476 281.807 733.965 275.677 732.943 271.358 733.728 270.369 737.842 265.687 738.263 268.029 745.708 264.918 747.706 258.583 746.478 256.399 749.399 257.987 756.091 250.685 753.895 248.315 756.636 249.463 762.89 243.362 761.895 239.727 763.367 239.884 768.633 238.979 772.835 237.657 776.621 233.036 777.111 227.659 776.842 226.846 781.126 225.14 784.519 223.739 788.227 222.024 791.619 213.8 788.497 215.227 795.03 215.673 800.588 208.532 798.554 210.521 805.655 207.328 807.571 199.48 804.838 196.669 807.138 197.471 813.054 191.804 812.502 193.231 819.034 188.579 819.494 184.743 820.775 181.993 823.143 182.563 828.833 177.688 828.921 176.475 832.312"/>
  <polygon points="176.475 832.312 176.398 826.795 174.66 826.353 171.149 822.588 174.912 821.266 179.914 821.182 181.328 817.51 179.864 810.961 185.877 811.889 189.398 810.325 189.221 805.062 196.099 806.855 192.625 798.296 199.733 800.318 201.158 796.658 203.46 793.874 206.006 791.333 210.35 790.592 208.104 783.259 216.335 786.403 218.136 783.117 221.415 781.308 219.272 774.076 223.605 773.32 226.545 771.171 225.899 765.435 229.244 763.69 234.323 763.676 235.476 759.737 237.651 756.82 241.702 755.777 243.055 752.034 247.404 751.288 249.197 747.985 254.966 748.656 254.317 742.908 254.262 737.754 256.912 735.305 259.511 732.806 261.581 729.781 269.689 732.793 268.493 726.502 272.862 725.776 277.88 725.701 277.482 720.211 281.949 719.586 285.288 717.832 285.189 712.643 286.04 708.403 292.387 709.66 290.134 702.316 291.51 698.602 300.3 702.303 301.66 698.574 300.506 692.33 306.287 693.022 309.084 690.729 309.447 686.003 314.073 685.539 317.036 683.412 318.556 679.842 317.351 673.547 325.632 676.737 325.283 671.296 324.626 665.548 331.665 667.494 335.084 665.82 333.769 659.411 339.865 660.412 339.818 655.269 344.397 654.753 343.034 648.291 346.536 646.696 352.224 647.284 354.832 644.791 355.377 640.236 362.046 641.806 364.338 639 365.084 634.648 366.547 631.016 368.187 627.56 373.06 627.338 374.571 623.754 378.539 622.628 382.436 621.432 380.108 614.011 385.433 614.243 385.509 609.227 387.286 605.911 389.163 602.695 393.285 601.726 394.481 597.829 402.92 601.175 400.134 593.295 402.772 590.84 404.607 587.581 412.222 590.101 414.462 587.245 415.54 583.227 413.704 576.295 416.298 573.79 419.414 571.807 426.65 573.943 425.337 567.528 428.512 565.602 436.008 567.998 433.619 560.509 440.284 562.076 437.711 554.406 442.938 554.536 444.626 551.128 448.138 549.544 452.749 549.061 452.124 543.341 454.74 540.862 459.427 540.453 460.945 536.877 463.329 534.166 468.558 534.299 466.665 527.311 469.119 524.668 474.458 524.909 474.504 519.858 480.862 521.117 481.15 516.305 480.133 510.187 484.584 509.535 489.457 509.306 488.709 503.458 493.678 503.327 495.272 499.823 496.322 495.774 498.828 493.183 503.898 493.155 504.603 488.764 511.081 490.145 512.38 486.347 514.958 483.829 518.904 482.677 521.025 479.7 519.46 473.036 524.125 472.602 528.62 471.997 532.082 470.357 531.836 465.009 536.176 464.246 535.233 458.201 542.476 460.344 541.735 454.504 547.077 454.747 545.061 447.632 549.638 447.111 554.39 446.765 553.318 440.595 555.415 437.593 560.11 437.189 562.399 434.377 561.862 428.739 569.033 430.807 568.572 425.243 573.907 425.476 572.235 418.702 577.401 418.767 581.822 418.089 583.936 415.103 583.574 409.642 591.42 412.388 590.297 406.165 593.849 404.617 598.167 403.833 596.337 396.9 598.231 393.69 603.537 393.893 603.487 388.741 608.319 388.472 607.92 382.973 610.592 380.545 617.43 382.282 617.739 377.49 619.822 374.472 626.036 375.582 623.307 367.748 631.957 371.295 628.745 362.981 634.691 363.825 634.694 358.728 637.877 356.809 642.435 356.27 644.097 352.831 646.079 349.709 647.69 346.217 653.476 346.903 651.197 339.528 659.922 343.157 662.19 340.331 661.357 334.404 663.466 331.42 666.198 329.058 672.62 330.386 668.667 321.337 674.542 322.113 680.294 322.764 676.907 314.271 684.603 316.862 681.462 308.62 686.91 308.969 689.699 306.659 694.953 306.816 692.998 299.764 694.908 296.575 701.042 297.608 702.798 294.261 703.339 289.694 708.471 289.721 711.535 287.683 713.955 285.002 714.606 280.554 720.192 281.038 720.824 276.567 721.868 272.505 726.058 271.588 729.729 270.154 733.943 269.265 735.967 266.187 738.166 263.282 737.998 258.005 739.951 254.851 745.309 255.105 745.86 250.551 748.741 248.326 748.593 243.068 753.506 242.874 755.073 239.335 755.892 235.047 761.775 235.82 762.697 231.636 768.534 232.365 769.602 228.322 772.483 226.096 771.755 220.271 775.014 218.43 781.708 220.016 781.206 214.407 786.757 214.855 786.925 209.917 787.138 205.018 795.197 207.971 795.749 203.41 797.809 200.361 797.256 194.694 800.523 192.85 804.786 191.999 810.714 192.811 813.263 190.255 813.752 185.632 816.656 183.419 816.121 177.765 823.01 179.535 819.471 170.868 825.033 175.416 828.45 174.744 830.037 177.96 827.473 178.829 829.583 186.024 827.114 188.641 821.587 188.199 819.949 191.647 813.688 190.472 815.018 196.887 812.097 199.051 805.15 197.189 808.416 205.54 803.669 205.879 799.841 207.136 796.715 209.097 797.227 214.694 790.995 213.548 793.911 221.551 788.542 221.27 789.144 226.959 782.605 225.508 781.038 229.029 777.945 231.025 773.958 232.127 773.694 236.954 769.113 237.463 767.557 240.999 764.841 243.374 761.942 245.569 759.565 248.286 755.928 249.743 753.578 252.489 753.637 257.644 751.355 260.46 744.418 258.622 746.582 265.886 742.91 267.312 741.445 270.945 735.016 269.612 735.193 274.884 732.37 277.156 732.588 282.468 725.437 280.411 725.95 286.017 725.489 290.648 720.316 290.566 718.541 293.883 712.682 293.114 709.585 295.108 712.475 303.088 710.077 305.78 701.965 302.758 701.185 307.067 696.601 307.572 700.021 316.081 694.965 316.115 688.7 314.94 686.202 317.531 684.419 320.839 680.655 322.164 678.585 325.184 676.455 328.146 673.058 329.84 670.716 332.59 672.844 339.81 668.637 340.696 668.626 345.78 661.411 343.659 663.846 351.189 657.444 349.884 652.7 350.238 651.71 354.346 651.076 358.811 648.61 361.446 648.579 366.516 645.417 368.452 638.525 366.659 636.313 369.544 637.587 375.914 632.208 375.631 631.478 379.995 628.985 382.597 625.119 383.825 623.789 387.588 619.645 388.537 617.672 391.656 611.876 390.954 612.862 397.032 607.911 397.173 610.948 405.303 603.949 403.397 601.826 406.367 596.755 406.389 595.139 409.867 593.908 413.729 590.05 414.966 587.712 417.724 586.269 421.377 582.952 423.157 581.819 427.121 579.617 430.019 575.945 431.447 576.283 436.887 574.522 440.227 567.357 438.162 565.882 441.786 565.183 446.186 560.898 446.998 558.377 449.574 556.908 453.202 555.218 456.607 554.349 460.833 547.892 459.471 545.704 462.377 540.925 462.694 543.912 470.775 538.85 470.809 536.604 473.658 535.94 478.09 529.354 476.601 526.369 478.712 522.696 480.138 523.525 486.065 521.692 489.333 518.486 491.228 514.217 492.061 514.226 497.172 511.133 499.18 505.94 499.087 504.878 503.123 504.952 508.296 499.892 508.333 495.209 508.747 496.52 515.155 490.779 514.51 488.694 517.523 489.227 523.152 486.882 525.904 479.399 523.519 479.129 528.348 480.579 534.896 477.292 536.711 475.7 540.219 472.583 542.205 468.841 543.566 461.583 541.409 464.088 549.015 457.15 547.177 453.692 548.818 453.031 553.255 455.073 560.395 448.125 558.545 443.747 559.266 446.972 567.589 439.858 565.575 439.119 569.936 439.852 575.77 432.527 573.547 432.656 578.781 428.463 579.69 425.749 582.077 421.794 583.223 423.247 589.776 420.319 591.947 416.706 593.434 411.87 593.697 412.324 599.25 409.521 601.549 408.072 605.201 403.649 605.881 401.735 609.072 398.183 610.622 394.662 612.203 392.85 615.492 392.013 619.755 389.452 622.294 387.778 625.721 386.429 629.474 379.357 627.504 378.027 631.276 374.35 632.704 373.92 637.377 369.189 637.749 367.81 641.471 364.391 643.153 363.581 647.444 363.159 652.119 358.504 652.565 358.03 657.195 349.111 653.379 350.693 660.06 345.573 660.038 342.906 662.466 345.155 669.81 339.924 669.672 339.162 674.003 337.16 677.095 329.078 674.108 331.678 681.804 326.05 681.274 327.055 687.381 319.123 684.554 320.906 691.442 314.669 690.306 312.565 693.302 313.412 699.247 307.157 698.089 309.544 705.574 302.845 703.973 298.486 704.715 299.137 710.469 298.331 714.771 290.923 712.468 292.352 718.999 288.189 719.937 289.079 725.927 283.192 725.141 284.424 731.476 281.807 733.965 275.677 732.943 271.358 733.728 270.369 737.842 265.687 738.263 268.029 745.708 264.918 747.706 258.583 746.478 256.399 749.399 257.987 756.091 250.685 753.895 248.315 756.636 249.463 762.89 243.362 761.895 239.727 763.367 239.884 768.633 238.979 772.835 237.657 776.621 233.036 777.111 227.659 776.842 226.846 781.126 225.14 784.519 223.739 788.227 222.024 791.619 213.8 788.497 215.227 795.03 215.673 800.588 208.532 798.554 210.521 805.655 207.328 807.571 199.48 804.838 196.669 807.138 197.471 813.054 191.804 812.502 193.231 819.034 188.579 819.494 184.743 820.775 181.993 823.143 182.563 828.833 177.688 828.921 176.475 832.312" style="fill: none; stroke: #000; stroke-linecap: round; stroke-linejoin: round; stroke-width: 35px;"/>
</svg>