<?xml version="1.0" encoding="UTF-8"?>
<svg id="Sticker" xmlns="http://www.w3.org/2000/svg" width="1000" height="1000" viewBox="0 0 1000 1000">
  <path d="M366.546,632.887l.073-3.618,3.256-3.617-4.646-3.617,3.984-3.618-5.357-3.619.072-3.619,5.526-3.618-3.845-3.618,2.362-3.618,1.489-3.612-7.358-3.612.973-3.613,5.548-3.615-6.787-3.617,7.495-3.62,1.151-3.618-8.936-3.616,9.588-3.615-3.985-3.614.926-3.615-1.058-3.616.476-3.619-3.327-3.619.943-3.617,2.634-3.616-3.034-3.616.16-3.617.098-3.62-2.831-3.619,7.157-3.618-2.433-3.617-4.42-3.619,1.44-3.622,3.275-3.619,3.346-3.618-7.633-3.62.883-3.621,1.365-3.619-.725-3.62,3.432-3.621-3.2-3.62,4.812-3.621-4.301-3.62,1.888-3.621-1.429-3.621,2.937-3.622-3.726-3.621,6.353-3.621-4.994-3.617-4.073-3.621,2.49-3.619.751-3.623,1.09-3.62-2.662-3.622,4.197-3.624-.167-3.624-3.639-3.624,5.429-3.623-7.591-3.623,1.636-3.624,1.194-3.63,4.57-3.63M633.789,632.887l.073-3.618,3.256-3.617-4.646-3.617,3.984-3.618-5.357-3.619.072-3.619,5.526-3.618-3.845-3.618,2.362-3.618,1.489-3.612-7.358-3.612.973-3.613,5.548-3.615-6.787-3.617,7.495-3.62,1.151-3.618-8.936-3.616,9.588-3.615-3.985-3.614.926-3.615-1.058-3.616.476-3.619-3.327-3.619.943-3.617,2.634-3.616-3.034-3.616.16-3.617.098-3.62-2.831-3.619,7.157-3.618-2.433-3.617-4.42-3.619,1.44-3.622,3.275-3.619,3.346-3.618-7.633-3.62.883-3.621,1.365-3.619-.725-3.62,3.432-3.621-3.2-3.62,4.812-3.621-4.301-3.62,1.888-3.621-1.429-3.621,2.937-3.622-3.726-3.621,6.353-3.621-4.994-3.617-4.073-3.621,2.49-3.619.751-3.623,1.09-3.62-2.662-3.622,4.197-3.624-.167-3.624-3.639-3.624,5.429-3.623-7.591-3.623,1.636-3.624,1.194-3.63,4.57-3.63M500.164,671.506l.073-.111,3.256-3.599-4.646-3.6,3.984-3.601-5.357-3.601.072-3.6,5.526-3.599-3.845-3.599,2.362-3.599,1.489-3.6-7.358-3.601.973-3.601,5.548-3.6-6.787-3.6,7.495-3.6,1.151-3.6-8.936-3.601,9.588-3.601-3.985-3.6.926-3.6-1.058-3.595.476-3.595-3.327-3.595.943-3.596,2.634-3.597-3.034-3.599.16-3.602.098-3.6-2.831-3.598,7.157-3.597-2.433-3.597-4.42-3.597,1.44-3.599,3.275-3.601,3.346-3.602-7.633-3.6.883-3.599,1.365-3.599-.725-3.6,3.432-3.603-3.2-3.602,4.812-3.6-4.301-3.6,1.888-3.601-1.429-3.604,2.937-3.601-3.726-3.601,6.353-3.602-4.994-3.603-4.073-3.602,2.49-3.602.751-3.604,1.09-3.602-2.662-3.604,4.197-3.603-.167-3.604-3.639-3.603,5.429-3.604-7.591-3.6,1.636-3.604,1.194-3.6,4.57-3.604.615-3.602-1.842-3.605-2.793-3.603-2.012-3.605.855-3.606,5.473-3.606-1.928-3.607,3.076-3.605-9.181-3.606,4.562-3.607-3.042-3.613.547-3.613M223.507,408.339l.398,3.755-2.609,4.111,5.2,2.76-3.274,4.267,5.932,2.555.618,3.538-4.701,4.634,4.504,2.75-1.544,4.029-.66,3.862,7.982,1.846-.111,3.706-4.519,4.831,7.467,1.802-6.326,5.397-.153,3.81,9.578,1.046-8.201,6.14,4.86,2.333.185,3.73,2.107,3.125.676,3.583,4.307,2.345.294,3.702-1.257,4.287,4.099,2.327,1.132,3.413,1.224,3.38,3.967,2.254-5.218,6.079,3.667,2.37,5.494,1.493.171,3.848-1.436,4.648-1.431,4.729,8.442-.166.842,3.581.464,3.807,2.349,2.807-1.237,4.82,4.572,1.528-2.296,5.563,5.556.849.318,4.055,3.159,2.252-.438,4.639,5.115.869-3.091,6.631h6.179s5.403.415,5.403.415l.21,4.341,1.647,3.272,1.442,3.472,4.349,1.018-.796,5.471,2.552,2.586,5.116.163-1.423,6.365,7.928-2.774,1.388,3.655,1.766,3.327-.436,5.813,2.321,2.895,3.966.992,4.563.176,4.044.685,2.279,2.871-.424,6.545,4.078.599,1.202,4.622,8.16-5.538.457,5.773,4.654-.636,2.742,2.334,3.967.276,1.056,5.325,4.644-1.004,3.76.476-.736,9.296,4.861-1.624,3.202,1.67,1.754,4.902,6.084-4.841.261,8.67,5.91-4.901,3.93-.254,2.631,3.162,1.643,6.153,5.567-5.097,3.933-.581,3.156,1.801,1.04,9.132,5.446-5.909,3.617.301,2.413,5.03,3.02,2.939,4.099-1.615,4.315-2.909,2.271,6.815,4.267-2.958,4.264-3.419,3.019,3.513,3.654-.152,3.872-1.764,2.922,4.976,3.838-1.68,3.269,2.965,3.24,3.742,3.933-2.96,3.311,3.712,4.174-7.038,3.095,7.437,3.648-.091,3.989-7.362,3.398,4.499,3.579,1.045,3.656-1.747,3.222,1.897,3.29-2.524,3.252.931,3.585-1.536,3.691,5.067,3.505-4.317,3.675,1.825,3.686,1.234,3.313-5.045,3.934,4.56,3.54-1.204,3.477-1.633,3.375-2.267,4.051,3.547,3.468-1.445,3.61-.336,3.576-.576,3.569-.615,3.968,1.487,3.074-3.208,2.925-3.574,2.904-3.316,5.063,5.754,3.634-.47,3.921.512,1.523-7.861,5.175,4.71,1.379-7.585,4.266,1.526,3.016-2.224,3.257-1.485,5.116,3.284,2.418-3.705,4.848,2.178.051-8.877,4.379,1.034,1.994-4.093,5.048,2.167,5.441,2.63-.323-8.284,6.529,4.322.567-6.286,4.033-.27,4.901.995.315-6.23,5.812,2.188,2.541-2.769-1.03-7.658,5.502,1.431-.434-6.473,8.195,4.596,2.785-2.39,2.796-2.373,1.2-4.187,4.442-.505.575-4.754,1.601-3.555,2.482-2.607,3.402-1.706-.137-5.107,7.392,1.956-.75-5.573,6.45.829,1.414-3.612-.705-5.298,3.12-2.119,5.708-.16-2.969-6.822-.617-4.889,9.41,2.33-5.341-8.127,8.692,1.56,2.756-2.557-3.854-6.772,5.682-.693,2.365-2.81,1.241-3.481-1.311-4.907,4.759-1.467,4.576-1.658-.294-4.278,2.484-2.814.796-3.668,3.693-2.261.984-3.576-3.621-5.639,1.775-3.141,2.356-2.903,2.554-2.845,1.959-3.112,3.717-2.442-6.894-6.505,8.281-.762,1.22-3.426,1.462-3.342,2.298-3.07.946-3.529-3.593-4.938-2.815-4.605,5.137-2.215-1.931-4.279.473-3.572,6.284-2.056-2.908-4.462,5.15-2.454-4.375-4.729,2.989-3.006,5.876-2.443-4.118-4.54,2.129-3.254.492-3.582-4.277-4.382,3.249-3.085,3.619-3.093-2.97-4.045,1.877-3.369-.181-3.626,1.61-7.169-3.588-.85-3.587,5.99-3.587,2.246-3.586-8.325-3.586,9.03-3.586-6.048-3.585.475-3.585-3.196-3.585,2.012-3.585-.07-3.585-2.008-3.585,1.93-3.585,4.66-3.586-4.947-3.586,6.95-3.587-1.222-3.587-4.986-3.588-.931-3.589,3.785-3.59-.822-3.59-1.824-3.59,1.186-3.589,2.717-3.588.236-3.588,2.427-3.587-9.491-3.587,6.688-3.587-1.518-3.586-5.337-3.586,9.851-3.586-5.534-3.586-3.229-3.587,3.862-3.587-3.361-3.588,2.669-3.588-2.351-3.589,1.351-3.59,4.696-3.591,1.462-3.59-3.037-3.59-3.375-3.589.609-3.588,2.685-3.588,1.457-3.588-2.544-3.587-1.516-3.587-.864-3.587,4.093-3.588-6.946-3.588,6.789-3.589-6.212-3.59.869-3.59-.976-3.591,1.066-3.59,7.678-3.59-7.139-3.589,2.866-3.589-3.752-3.588,5.21-3.588-2.746-3.588-1.222-3.589,2.344-3.589-4.365-3.59,1.108-3.591.5-3.592,7.217-3.591-.543-3.59-8.395-3.589.958-3.589.243-3.589-1.499-3.589,6.535-3.589-2.542-3.59.558-3.591-1.59-3.592-1.241-3.591,1.168-3.59,3.68-3.59,2.313-3.589-1.583-3.59-.345-3.59.232-3.591-5.589-3.592,6.612-3.591,1.216-3.591.53-3.59-7.759-3.59,4.328-3.59-.245-3.591-1.227-3.592-3.641-3.592.341-3.591-1.04-3.59.6-3.59,6.189-3.591,1.854-3.592-5.478-3.592-2.249-3.591.805-3.591,1.623-3.586,3.154-3.586-6.408-3.586,3.38-3.587,5.315-3.588-2.842-3.59,3.244-3.593-1.953-3.591-7.148-3.589,3.286-3.588,2.075-3.588-2.045-3.588-2.515-3.59,4.651-3.592-3.697-3.593,3.221-3.59-3.641-3.589,4.428-3.589-.548-3.591-2.431-3.593,6.307-3.593-9.885-3.591,8.426-3.591-7.608-3.592,8.63-3.595-2.925-3.592,2.931-3.591-3.023-3.593-3.386-3.594.138-3.592,2.022-3.593,3.656-3.595-.475-3.593-8.01-3.595,1.492-3.594,6.634-3.594-3.152-3.594-2.879-3.595,5.885-3.59-6.772-3.594,6.498-3.59.051-3.595-1.144-3.593-3.712-3.596.777-3.594-3.374-3.596,5.656-3.597-3.464-3.597,3.811-3.597-2.91-3.596,1.455-3.597,3.572-3.598-5.783-3.555-.282-3.705,2.102Z" style="fill: #fff;"/>
  <path d="M366.546,632.887l.073-3.618,3.256-3.617-4.646-3.617,3.984-3.618-5.357-3.619.072-3.619,5.526-3.618-3.845-3.618,2.362-3.618,1.489-3.612-7.358-3.612.973-3.613,5.548-3.615-6.787-3.617,7.495-3.62,1.151-3.618-8.936-3.616,9.588-3.615-3.985-3.614.926-3.615-1.058-3.616.476-3.619-3.327-3.619.943-3.617,2.634-3.616-3.034-3.616.16-3.617.098-3.62-2.831-3.619,7.157-3.618-2.433-3.617-4.42-3.619,1.44-3.622,3.275-3.619,3.346-3.618-7.633-3.62.883-3.621,1.365-3.619-.725-3.62,3.432-3.621-3.2-3.62,4.812-3.621-4.301-3.62,1.888-3.621-1.429-3.621,2.937-3.622-3.726-3.621,6.353-3.621-4.994-3.617-4.073-3.621,2.49-3.619.751-3.623,1.09-3.62-2.662-3.622,4.197-3.624-.167-3.624-3.639-3.624,5.429-3.623-7.591-3.623,1.636-3.624,1.194-3.63,4.57-3.63M633.789,632.887l.073-3.618,3.256-3.617-4.646-3.617,3.984-3.618-5.357-3.619.072-3.619,5.526-3.618-3.845-3.618,2.362-3.618,1.489-3.612-7.358-3.612.973-3.613,5.548-3.615-6.787-3.617,7.495-3.62,1.151-3.618-8.936-3.616,9.588-3.615-3.985-3.614.926-3.615-1.058-3.616.476-3.619-3.327-3.619.943-3.617,2.634-3.616-3.034-3.616.16-3.617.098-3.62-2.831-3.619,7.157-3.618-2.433-3.617-4.42-3.619,1.44-3.622,3.275-3.619,3.346-3.618-7.633-3.62.883-3.621,1.365-3.619-.725-3.62,3.432-3.621-3.2-3.62,4.812-3.621-4.301-3.62,1.888-3.621-1.429-3.621,2.937-3.622-3.726-3.621,6.353-3.621-4.994-3.617-4.073-3.621,2.49-3.619.751-3.623,1.09-3.62-2.662-3.622,4.197-3.624-.167-3.624-3.639-3.624,5.429-3.623-7.591-3.623,1.636-3.624,1.194-3.63,4.57-3.63M500.164,671.506l.073-.111,3.256-3.599-4.646-3.6,3.984-3.601-5.357-3.601.072-3.6,5.526-3.599-3.845-3.599,2.362-3.599,1.489-3.6-7.358-3.601.973-3.601,5.548-3.6-6.787-3.6,7.495-3.6,1.151-3.6-8.936-3.601,9.588-3.601-3.985-3.6.926-3.6-1.058-3.595.476-3.595-3.327-3.595.943-3.596,2.634-3.597-3.034-3.599.16-3.602.098-3.6-2.831-3.598,7.157-3.597-2.433-3.597-4.42-3.597,1.44-3.599,3.275-3.601,3.346-3.602-7.633-3.6.883-3.599,1.365-3.599-.725-3.6,3.432-3.603-3.2-3.602,4.812-3.6-4.301-3.6,1.888-3.601-1.429-3.604,2.937-3.601-3.726-3.601,6.353-3.602-4.994-3.603-4.073-3.602,2.49-3.602.751-3.604,1.09-3.602-2.662-3.604,4.197-3.603-.167-3.604-3.639-3.603,5.429-3.604-7.591-3.6,1.636-3.604,1.194-3.6,4.57-3.604.615-3.602-1.842-3.605-2.793-3.603-2.012-3.605.855-3.606,5.473-3.606-1.928-3.607,3.076-3.605-9.181-3.606,4.562-3.607-3.042-3.613.547-3.613M223.507,408.339l.398,3.755-2.609,4.111,5.2,2.76-3.274,4.267,5.932,2.555.618,3.538-4.701,4.634,4.504,2.75-1.544,4.029-.66,3.862,7.982,1.846-.111,3.706-4.519,4.831,7.467,1.802-6.326,5.397-.153,3.81,9.578,1.046-8.201,6.14,4.86,2.333.185,3.73,2.107,3.125.676,3.583,4.307,2.345.294,3.702-1.257,4.287,4.099,2.327,1.132,3.413,1.224,3.38,3.967,2.254-5.218,6.079,3.667,2.37,5.494,1.493.171,3.848-1.436,4.648-1.431,4.729,8.442-.166.842,3.581.464,3.807,2.349,2.807-1.237,4.82,4.572,1.528-2.296,5.563,5.556.849.318,4.055,3.159,2.252-.438,4.639,5.115.869-3.091,6.631h6.179s5.403.415,5.403.415l.21,4.341,1.647,3.272,1.442,3.472,4.349,1.018-.796,5.471,2.552,2.586,5.116.163-1.423,6.365,7.928-2.774,1.388,3.655,1.766,3.327-.436,5.813,2.321,2.895,3.966.992,4.563.176,4.044.685,2.279,2.871-.424,6.545,4.078.599,1.202,4.622,8.16-5.538.457,5.773,4.654-.636,2.742,2.334,3.967.276,1.056,5.325,4.644-1.004,3.76.476-.736,9.296,4.861-1.624,3.202,1.67,1.754,4.902,6.084-4.841.261,8.67,5.91-4.901,3.93-.254,2.631,3.162,1.643,6.153,5.567-5.097,3.933-.581,3.156,1.801,1.04,9.132,5.446-5.909,3.617.301,2.413,5.03,3.02,2.939,4.099-1.615,4.315-2.909,2.271,6.815,4.267-2.958,4.264-3.419,3.019,3.513,3.654-.152,3.872-1.764,2.922,4.976,3.838-1.68,3.269,2.965,3.24,3.742,3.933-2.96,3.311,3.712,4.174-7.038,3.095,7.437,3.648-.091,3.989-7.362,3.398,4.499,3.579,1.045,3.656-1.747,3.222,1.897,3.29-2.524,3.252.931,3.585-1.536,3.691,5.067,3.505-4.317,3.675,1.825,3.686,1.234,3.313-5.045,3.934,4.56,3.54-1.204,3.477-1.633,3.375-2.267,4.051,3.547,3.468-1.445,3.61-.336,3.576-.576,3.569-.615,3.968,1.487,3.074-3.208,2.925-3.574,2.904-3.316,5.063,5.754,3.634-.47,3.921.512,1.523-7.861,5.175,4.71,1.379-7.585,4.266,1.526,3.016-2.224,3.257-1.485,5.116,3.284,2.418-3.705,4.848,2.178.051-8.877,4.379,1.034,1.994-4.093,5.048,2.167,5.441,2.63-.323-8.284,6.529,4.322.567-6.286,4.033-.27,4.901.995.315-6.23,5.812,2.188,2.541-2.769-1.03-7.658,5.502,1.431-.434-6.473,8.195,4.596,2.785-2.39,2.796-2.373,1.2-4.187,4.442-.505.575-4.754,1.601-3.555,2.482-2.607,3.402-1.706-.137-5.107,7.392,1.956-.75-5.573,6.45.829,1.414-3.612-.705-5.298,3.12-2.119,5.708-.16-2.969-6.822-.617-4.889,9.41,2.33-5.341-8.127,8.692,1.56,2.756-2.557-3.854-6.772,5.682-.693,2.365-2.81,1.241-3.481-1.311-4.907,4.759-1.467,4.576-1.658-.294-4.278,2.484-2.814.796-3.668,3.693-2.261.984-3.576-3.621-5.639,1.775-3.141,2.356-2.903,2.554-2.845,1.959-3.112,3.717-2.442-6.894-6.505,8.281-.762,1.22-3.426,1.462-3.342,2.298-3.07.946-3.529-3.593-4.938-2.815-4.605,5.137-2.215-1.931-4.279.473-3.572,6.284-2.056-2.908-4.462,5.15-2.454-4.375-4.729,2.989-3.006,5.876-2.443-4.118-4.54,2.129-3.254.492-3.582-4.277-4.382,3.249-3.085,3.619-3.093-2.97-4.045,1.877-3.369-.181-3.626,1.61-7.169-3.588-.85-3.587,5.99-3.587,2.246-3.586-8.325-3.586,9.03-3.586-6.048-3.585.475-3.585-3.196-3.585,2.012-3.585-.07-3.585-2.008-3.585,1.93-3.585,4.66-3.586-4.947-3.586,6.95-3.587-1.222-3.587-4.986-3.588-.931-3.589,3.785-3.59-.822-3.59-1.824-3.59,1.186-3.589,2.717-3.588.236-3.588,2.427-3.587-9.491-3.587,6.688-3.587-1.518-3.586-5.337-3.586,9.851-3.586-5.534-3.586-3.229-3.587,3.862-3.587-3.361-3.588,2.669-3.588-2.351-3.589,1.351-3.59,4.696-3.591,1.462-3.59-3.037-3.59-3.375-3.589.609-3.588,2.685-3.588,1.457-3.588-2.544-3.587-1.516-3.587-.864-3.587,4.093-3.588-6.946-3.588,6.789-3.589-6.212-3.59.869-3.59-.976-3.591,1.066-3.59,7.678-3.59-7.139-3.589,2.866-3.589-3.752-3.588,5.21-3.588-2.746-3.588-1.222-3.589,2.344-3.589-4.365-3.59,1.108-3.591.5-3.592,7.217-3.591-.543-3.59-8.395-3.589.958-3.589.243-3.589-1.499-3.589,6.535-3.589-2.542-3.59.558-3.591-1.59-3.592-1.241-3.591,1.168-3.59,3.68-3.59,2.313-3.589-1.583-3.59-.345-3.59.232-3.591-5.589-3.592,6.612-3.591,1.216-3.591.53-3.59-7.759-3.59,4.328-3.59-.245-3.591-1.227-3.592-3.641-3.592.341-3.591-1.04-3.59.6-3.59,6.189-3.591,1.854-3.592-5.478-3.592-2.249-3.591.805-3.591,1.623-3.586,3.154-3.586-6.408-3.586,3.38-3.587,5.315-3.588-2.842-3.59,3.244-3.593-1.953-3.591-7.148-3.589,3.286-3.588,2.075-3.588-2.045-3.588-2.515-3.59,4.651-3.592-3.697-3.593,3.221-3.59-3.641-3.589,4.428-3.589-.548-3.591-2.431-3.593,6.307-3.593-9.885-3.591,8.426-3.591-7.608-3.592,8.63-3.595-2.925-3.592,2.931-3.591-3.023-3.593-3.386-3.594.138-3.592,2.022-3.593,3.656-3.595-.475-3.593-8.01-3.595,1.492-3.594,6.634-3.594-3.152-3.594-2.879-3.595,5.885-3.59-6.772-3.594,6.498-3.59.051-3.595-1.144-3.593-3.712-3.596.777-3.594-3.374-3.596,5.656-3.597-3.464-3.597,3.811-3.597-2.91-3.596,1.455-3.597,3.572-3.598-5.783-3.555-.282-3.705,2.102Z" style="fill: none; stroke: #000; stroke-linecap: round; stroke-linejoin: round; stroke-width: 35px;"/>
</svg>