<?xml version="1.0" encoding="UTF-8"?>
<svg id="Sticker" xmlns="http://www.w3.org/2000/svg" width="1000" height="1000" viewBox="0 0 1000 1000">
  <polygon points="500.019 121.296 505.171 118.162 501.576 124.385 504.084 127.084 509.398 128.164 510.399 131.734 511.205 135.416 516.778 136.346 515.513 141.225 515.377 145.453 521.473 146.082 520.83 150.601 523.417 153.254 524.5 156.775 526.05 160.026 527.276 163.463 528.237 167.053 528.538 171.023 536.302 170.683 534.577 175.823 536.957 178.591 538.406 181.897 537.872 186.347 543.896 187.011 539.763 193.538 541.957 196.413 543.697 199.55 545.699 202.535 551.97 203.055 550.777 207.885 549.946 212.506 551.575 215.707 561.174 214.307 561.88 218.041 560.794 222.81 558.949 228.017 565.021 228.654 566.65 231.857 566.45 236.116 565.887 240.585 568.872 243.007 570.491 246.218 571.076 250.026 575.629 251.544 581.516 252.293 582.309 255.983 580.998 260.89 586.795 261.694 582.153 268.524 589.275 268.561 589.217 272.742 595.512 273.255 592.046 279.403 597.212 280.567 596.54 285.1 596.76 289.119 598.93 292.011 604.867 292.727 601.413 298.865 602.509 302.376 606.103 304.446 609.692 306.517 607.415 311.975 611.963 313.493 614.898 315.942 617.313 318.692 615.142 324.09 620.793 324.971 621.995 328.423 622.457 332.302 621.482 337.01 630.665 335.855 630.743 339.958 628.733 345.266 636.305 345.043 633.339 350.906 636.733 353.098 640.426 355.116 644.285 357.038 643.226 361.798 647.408 363.532 641.703 370.974 643.125 374.3 648.778 375.183 652.655 377.091 652.324 381.428 651.314 386.157 651.861 389.987 658.124 390.516 658.726 394.314 660.726 397.305 665.448 398.725 663.558 403.962 665.406 407.042 669.697 408.712 674.262 410.225 671.919 415.727 674.221 418.547 676.664 421.288 679.865 423.591 680.876 427.159 680.597 431.47 683.365 434.022 687.584 435.735 690.474 438.214 684.786 445.646 691.633 445.84 696.161 447.373 695.889 451.677 694.633 456.55 699.471 457.903 703.401 459.782 699.063 466.435 700.591 469.701 706.396 470.498 710.727 472.148 708.1 477.816 712.069 479.677 707.775 486.308 713.963 486.886 714.967 490.456 714.614 494.81 722.795 494.235 723.894 497.749 724.296 501.665 723.621 506.203 723.232 510.577 725.983 513.137 728.566 515.795 733.455 517.122 732.768 521.67 735.332 524.341 737.064 527.494 737.611 531.33 738.851 534.765 743.682 536.126 745.254 539.368 748.755 541.496 747.532 546.351 749.258 549.504 752.03 552.053 751.84 556.313 753.161 559.702 752.805 564.059 754.702 567.117 761.528 567.328 762.804 570.743 763.359 574.573 768.549 575.727 769.886 579.105 768.517 584.045 775.093 584.4 774.904 588.66 773.026 593.897 772.782 598.191 776.128 600.411 783.105 600.535 783.786 604.293 786.102 607.106 785.204 611.775 789.007 613.731 785.308 620.019 789.539 621.729 795.303 622.555 798.154 625.061 792.492 632.481 797.719 633.614 801.967 635.313 800.144 640.518 802.891 643.086 807.185 644.759 804.058 650.717 810.377 651.215 812.724 654.007 808.958 660.332 816.142 660.337 813.743 665.875 818.168 667.47 823.413 668.59 823.55 672.659 821.677 677.887 821.631 682.06 824.486 684.559 831.871 684.445 833.906 687.422 832.565 692.351 831.843 696.921 838.016 697.507 838.282 701.503 839.112 705.173 838.756 709.528 839.941 712.995 847.913 712.547 844.129 718.886 845.723 722.118 850.8 723.338 849.239 728.39 855.294 729.047 858.074 731.597 861.346 733.863 859.354 739.166 862.15 741.704 866.423 743.39 863.556 749.203 862.32 754.071 871.717 752.798 867.483 759.398 870.75 761.669 874.798 763.485 879.609 764.863 874.689 771.861 882.499 771.507 884.694 774.396 882.958 779.554 881.013 784.834 885.566 786.359 887.176 789.58 889.979 792.115 887.892 797.477 891.109 799.772 891.707 803.585 893.981 806.427 902.048 805.929 900.216 811.144 899.229 815.872 905.143 816.619 910.173 817.875 910.539 821.82 913.679 824.167 912.631 828.934 915.147 831.643 916.776 834.872 917.74 839.51 913.255 843.33 909.664 841.441 906.072 839.274 902.48 834.561 898.887 838.934 895.295 837.643 891.702 843.448 888.108 834.205 884.515 842.186 880.922 843.965 877.329 843.31 873.737 835.086 870.144 835.627 866.552 837.158 862.96 836.91 859.369 839.894 855.777 840.545 852.185 836.997 848.594 839.936 845.002 834.273 841.411 839.607 837.819 842.132 834.227 834.801 830.635 841.263 827.043 838.724 823.45 842.905 819.857 839.74 816.264 837.883 812.67 840.969 809.077 837.705 805.484 843.25 801.891 842.901 798.299 840.355 794.706 834.417 791.119 834.167 787.532 839.855 783.945 838.295 780.357 843.536 776.768 842.704 773.179 834.396 769.59 840.543 766 834.499 762.409 842.753 758.818 840.004 755.225 837.444 751.632 841.807 748.039 840.778 744.445 841.153 740.853 835.285 737.261 842.491 733.67 841.594 730.079 837.968 726.489 841.589 722.899 841.487 719.31 836.359 715.721 841.463 712.132 842.131 708.544 836.489 704.956 843.079 701.368 843.396 697.78 842.512 694.192 838.833 690.604 834.955 687.016 839.824 683.428 842.099 679.839 841.978 676.25 836.863 672.661 842.403 669.072 843.134 665.482 834.152 661.891 835.299 658.3 836.512 654.708 842.838 651.115 836.716 647.522 842.094 643.928 840.256 640.333 841.311 636.74 834.811 633.147 837.2 629.555 843.402 625.964 843.046 622.373 841.863 618.782 840.889 615.192 840.328 611.602 834.871 608.013 834.487 604.423 840.642 600.833 836.036 597.244 838.128 593.654 839.369 590.064 843.065 586.474 839.288 582.883 837.903 579.292 838.682 575.7 836.139 572.107 841.944 568.514 837.117 564.92 835.601 561.325 842.109 557.73 838.544 554.137 838.296 550.544 836.478 546.951 836.335 543.359 835.215 539.768 840.83 536.177 841.234 532.586 842.409 528.995 841.947 525.404 836.528 521.813 838.545 518.221 838.855 514.63 837.319 511.037 841.29 507.445 837.372 503.851 837.727 500.257 839.727 496.661 835.704 493.066 841.399 489.472 840.408 485.879 834.174 482.286 842.384 478.693 837.944 475.101 840.932 471.509 838.695 467.917 842.849 464.325 837.91 460.733 842.138 457.14 839.468 453.547 841.781 449.952 838.327 446.357 834.968 442.761 838.684 439.166 841.441 435.572 834.059 431.978 836.223 428.385 834.228 424.792 834.093 421.2 840.232 417.607 835.087 414.014 835.246 410.42 835.207 406.826 841.947 403.23 843.733 399.634 842.643 396.039 835.293 392.444 842.84 388.85 842.325 385.257 838.598 381.663 843.154 378.07 839.052 374.476 843.725 370.881 834.133 367.285 838.376 363.689 840.177 360.093 838.223 356.499 838.817 352.905 835.867 349.311 843.736 345.716 843.597 342.122 841.666 338.526 840.271 334.93 834.756 331.334 840.812 327.739 837.285 324.144 843.041 320.55 837.006 316.955 840.689 313.359 836.336 309.763 840.012 306.167 837.455 302.571 841.832 298.976 834.383 295.381 842.272 291.786 840.518 288.189 835.138 284.593 838.175 280.997 838.145 277.402 843.648 273.812 835.212 270.221 843.438 266.631 839.099 263.04 840.836 259.447 843.974 255.853 843.228 252.255 837.395 248.66 835.59 245.066 836.798 241.473 840.917 237.881 838.288 234.288 839.942 230.694 836.476 227.097 836.872 223.5 834.583 219.905 841.055 216.311 835.327 212.717 842.877 209.122 836.377 205.524 841.991 201.926 840.77 198.331 843.388 194.736 843.784 191.139 838.206 187.54 834.655 183.943 837.652 180.347 835.46 176.75 836.32 173.151 841.685 169.554 841.778 165.956 840.745 162.357 836.742 158.76 837.231 155.16 834.804 151.562 838.227 147.963 836.705 144.364 839.85 140.765 837.838 137.17 838.547 133.571 835.271 129.975 838.827 126.376 840.32 122.779 834.255 119.178 836.872 115.58 842.048 111.979 842.479 108.378 834.524 104.776 834.948 101.174 834.513 97.573 838.05 93.972 837.548 90.369 842.249 86.761 842.817 85.492 837.637 85.451 836.18 86.438 832.602 91.239 831.226 91.714 827.353 95.32 825.287 94.813 820.847 97.195 818.074 96.327 813.424 96.887 809.598 99.701 807.074 102.446 804.511 106.16 802.509 107.331 799.039 104.68 793.362 113.246 794.163 108.069 787.03 113.898 786.251 112.99 781.584 119.18 781.015 121.304 778.098 119.362 772.835 120.542 769.374 126.265 768.537 129.747 766.405 129.143 761.915 132.657 759.803 135.357 757.221 133.014 751.727 138.267 750.619 138.227 746.454 139.229 742.891 144.023 741.518 146.062 738.553 143.884 733.154 146.69 730.632 146.827 726.568 152.829 725.89 149.887 720.047 151.207 716.665 154.097 714.189 157.719 712.135 161.653 710.26 156.34 703.046 161.535 701.897 164.035 699.192 161.962 693.846 166.798 692.488 173.253 692.065 167.872 684.809 172.382 683.264 170.804 678.206 173.333 675.519 179.614 675 181.729 672.075 178.48 666.054 182.981 664.508 184.956 661.504 191.377 661.066 186.061 653.854 191.875 653.067 190.182 647.946 198.473 648.589 199.892 645.264 198.349 640.23 197.749 635.739 202.371 634.264 207.363 633.001 207.692 629.046 204.989 623.34 211.231 622.797 211.432 618.767 215.334 616.873 210.512 609.941 212.82 607.124 215.877 604.739 223.38 604.92 217.207 597.205 225.071 597.595 225.948 593.952 230.655 592.522 225.068 585.148 234.488 586.44 229.523 579.427 236.084 579.068 237.423 575.695 233.299 569.169 240.777 569.341 238.868 564.093 239.122 560.094 241.324 557.219 250.174 558.183 249.261 553.509 248.182 548.74 254.97 548.511 249.413 541.155 258.794 542.422 260.919 539.499 260.56 535.141 261.775 531.691 261.718 527.506 261.342 523.139 262.985 519.939 269.324 519.449 267.81 514.427 270.716 511.957 276.405 511.094 279.227 508.576 277.115 503.21 278.999 500.151 279.948 496.551 282.061 493.624 286.638 492.118 285.163 487.118 284.284 482.461 292.369 482.979 290.868 477.962 296.78 477.222 295.529 472.348 293.662 467.12 302.924 468.317 299.401 462.133 305.051 461.247 304.112 456.556 306.19 453.608 305.919 449.303 308.177 446.458 307.201 441.746 310.503 439.503 314.562 437.697 315.748 434.231 315.482 429.925 318.762 427.666 320.315 424.41 326.896 424.059 329.043 421.149 326.081 415.289 329.69 413.223 330.955 409.804 335.643 408.362 330.649 401.329 333.178 398.639 341.532 399.311 339.261 393.847 339.755 389.979 341.104 386.606 348.72 386.852 347.461 381.975 350.134 379.368 350.581 375.475 348.358 370.042 356.322 370.489 355.469 365.846 358.096 363.21 360.427 360.402 358.635 355.215 360.138 351.931 363.244 349.574 370.168 349.421 370.727 345.593 374.062 343.367 374.206 339.298 372.547 334.186 373.784 330.748 376.521 328.176 377.922 324.834 384.403 324.424 381.514 318.605 388.218 318.323 389.369 314.834 388.326 310.079 391.439 307.724 388.37 301.806 395.707 301.894 393.074 296.224 397.041 294.361 397.994 290.758 405.01 290.659 401.392 284.422 408.593 284.433 405.458 278.476 406.584 274.979 409.336 272.421 408.696 267.902 412.28 265.819 418.069 265.007 418.606 261.164 415.565 255.257 422.37 255.037 426.22 253.111 421.336 246.141 424.178 243.631 427.547 241.421 431.26 239.41 434.178 236.943 433.009 232.117 437.794 230.729 436.364 225.751 437.212 222.084 439.004 218.964 444.403 217.929 444.882 214.053 450.318 213.038 443.957 205.208 451.12 205.19 454.112 202.763 455.438 199.374 458.956 197.249 452.843 189.565 456.273 187.39 457.869 184.155 463.339 183.158 462.258 178.376 461.495 173.78 464.389 171.294 469.469 170.074 472.665 167.769 475.455 165.227 472.116 159.141 476.511 157.526 474.718 152.333 481.227 151.936 479.772 146.936 481.87 143.991 484.569 141.39 487.776 139.081 485.286 133.483 489.316 131.653 493.307 129.797 495.513 126.909 498.766 124.625 499.527 122.598 500.019 121.296" style="fill: #fff;"/>
  <polygon points="500.019 121.296 505.171 118.162 501.576 124.385 504.084 127.084 509.398 128.164 510.399 131.734 511.205 135.416 516.778 136.346 515.513 141.225 515.377 145.453 521.473 146.082 520.83 150.601 523.417 153.254 524.5 156.775 526.05 160.026 527.276 163.463 528.237 167.053 528.538 171.023 536.302 170.683 534.577 175.823 536.957 178.591 538.406 181.897 537.872 186.347 543.896 187.011 539.763 193.538 541.957 196.413 543.697 199.55 545.699 202.535 551.97 203.055 550.777 207.885 549.946 212.506 551.575 215.707 561.174 214.307 561.88 218.041 560.794 222.81 558.949 228.017 565.021 228.654 566.65 231.857 566.45 236.116 565.887 240.585 568.872 243.007 570.491 246.218 571.076 250.026 575.629 251.544 581.516 252.293 582.309 255.983 580.998 260.89 586.795 261.694 582.153 268.524 589.275 268.561 589.217 272.742 595.512 273.255 592.046 279.403 597.212 280.567 596.54 285.1 596.76 289.119 598.93 292.011 604.867 292.727 601.413 298.865 602.509 302.376 606.103 304.446 609.692 306.517 607.415 311.975 611.963 313.493 614.898 315.942 617.313 318.692 615.142 324.09 620.793 324.971 621.995 328.423 622.457 332.302 621.482 337.01 630.665 335.855 630.743 339.958 628.733 345.266 636.305 345.043 633.339 350.906 636.733 353.098 640.426 355.116 644.285 357.038 643.226 361.798 647.408 363.532 641.703 370.974 643.125 374.3 648.778 375.183 652.655 377.091 652.324 381.428 651.314 386.157 651.861 389.987 658.124 390.516 658.726 394.314 660.726 397.305 665.448 398.725 663.558 403.962 665.406 407.042 669.697 408.712 674.262 410.225 671.919 415.727 674.221 418.547 676.664 421.288 679.865 423.591 680.876 427.159 680.597 431.47 683.365 434.022 687.584 435.735 690.474 438.214 684.786 445.646 691.633 445.84 696.161 447.373 695.889 451.677 694.633 456.55 699.471 457.903 703.401 459.782 699.063 466.435 700.591 469.701 706.396 470.498 710.727 472.148 708.1 477.816 712.069 479.677 707.775 486.308 713.963 486.886 714.967 490.456 714.614 494.81 722.795 494.235 723.894 497.749 724.296 501.665 723.621 506.203 723.232 510.577 725.983 513.137 728.566 515.795 733.455 517.122 732.768 521.67 735.332 524.341 737.064 527.494 737.611 531.33 738.851 534.765 743.682 536.126 745.254 539.368 748.755 541.496 747.532 546.351 749.258 549.504 752.03 552.053 751.84 556.313 753.161 559.702 752.805 564.059 754.702 567.117 761.528 567.328 762.804 570.743 763.359 574.573 768.549 575.727 769.886 579.105 768.517 584.045 775.093 584.4 774.904 588.66 773.026 593.897 772.782 598.191 776.128 600.411 783.105 600.535 783.786 604.293 786.102 607.106 785.204 611.775 789.007 613.731 785.308 620.019 789.539 621.729 795.303 622.555 798.154 625.061 792.492 632.481 797.719 633.614 801.967 635.313 800.144 640.518 802.891 643.086 807.185 644.759 804.058 650.717 810.377 651.215 812.724 654.007 808.958 660.332 816.142 660.337 813.743 665.875 818.168 667.47 823.413 668.59 823.55 672.659 821.677 677.887 821.631 682.06 824.486 684.559 831.871 684.445 833.906 687.422 832.565 692.351 831.843 696.921 838.016 697.507 838.282 701.503 839.112 705.173 838.756 709.528 839.941 712.995 847.913 712.547 844.129 718.886 845.723 722.118 850.8 723.338 849.239 728.39 855.294 729.047 858.074 731.597 861.346 733.863 859.354 739.166 862.15 741.704 866.423 743.39 863.556 749.203 862.32 754.071 871.717 752.798 867.483 759.398 870.75 761.669 874.798 763.485 879.609 764.863 874.689 771.861 882.499 771.507 884.694 774.396 882.958 779.554 881.013 784.834 885.566 786.359 887.176 789.58 889.979 792.115 887.892 797.477 891.109 799.772 891.707 803.585 893.981 806.427 902.048 805.929 900.216 811.144 899.229 815.872 905.143 816.619 910.173 817.875 910.539 821.82 913.679 824.167 912.631 828.934 915.147 831.643 916.776 834.872 917.74 839.51 913.255 843.33 909.664 841.441 906.072 839.274 902.48 834.561 898.887 838.934 895.295 837.643 891.702 843.448 888.108 834.205 884.515 842.186 880.922 843.965 877.329 843.31 873.737 835.086 870.144 835.627 866.552 837.158 862.96 836.91 859.369 839.894 855.777 840.545 852.185 836.997 848.594 839.936 845.002 834.273 841.411 839.607 837.819 842.132 834.227 834.801 830.635 841.263 827.043 838.724 823.45 842.905 819.857 839.74 816.264 837.883 812.67 840.969 809.077 837.705 805.484 843.25 801.891 842.901 798.299 840.355 794.706 834.417 791.119 834.167 787.532 839.855 783.945 838.295 780.357 843.536 776.768 842.704 773.179 834.396 769.59 840.543 766 834.499 762.409 842.753 758.818 840.004 755.225 837.444 751.632 841.807 748.039 840.778 744.445 841.153 740.853 835.285 737.261 842.491 733.67 841.594 730.079 837.968 726.489 841.589 722.899 841.487 719.31 836.359 715.721 841.463 712.132 842.131 708.544 836.489 704.956 843.079 701.368 843.396 697.78 842.512 694.192 838.833 690.604 834.955 687.016 839.824 683.428 842.099 679.839 841.978 676.25 836.863 672.661 842.403 669.072 843.134 665.482 834.152 661.891 835.299 658.3 836.512 654.708 842.838 651.115 836.716 647.522 842.094 643.928 840.256 640.333 841.311 636.74 834.811 633.147 837.2 629.555 843.402 625.964 843.046 622.373 841.863 618.782 840.889 615.192 840.328 611.602 834.871 608.013 834.487 604.423 840.642 600.833 836.036 597.244 838.128 593.654 839.369 590.064 843.065 586.474 839.288 582.883 837.903 579.292 838.682 575.7 836.139 572.107 841.944 568.514 837.117 564.92 835.601 561.325 842.109 557.73 838.544 554.137 838.296 550.544 836.478 546.951 836.335 543.359 835.215 539.768 840.83 536.177 841.234 532.586 842.409 528.995 841.947 525.404 836.528 521.813 838.545 518.221 838.855 514.63 837.319 511.037 841.29 507.445 837.372 503.851 837.727 500.257 839.727 496.661 835.704 493.066 841.399 489.472 840.408 485.879 834.174 482.286 842.384 478.693 837.944 475.101 840.932 471.509 838.695 467.917 842.849 464.325 837.91 460.733 842.138 457.14 839.468 453.547 841.781 449.952 838.327 446.357 834.968 442.761 838.684 439.166 841.441 435.572 834.059 431.978 836.223 428.385 834.228 424.792 834.093 421.2 840.232 417.607 835.087 414.014 835.246 410.42 835.207 406.826 841.947 403.23 843.733 399.634 842.643 396.039 835.293 392.444 842.84 388.85 842.325 385.257 838.598 381.663 843.154 378.07 839.052 374.476 843.725 370.881 834.133 367.285 838.376 363.689 840.177 360.093 838.223 356.499 838.817 352.905 835.867 349.311 843.736 345.716 843.597 342.122 841.666 338.526 840.271 334.93 834.756 331.334 840.812 327.739 837.285 324.144 843.041 320.55 837.006 316.955 840.689 313.359 836.336 309.763 840.012 306.167 837.455 302.571 841.832 298.976 834.383 295.381 842.272 291.786 840.518 288.189 835.138 284.593 838.175 280.997 838.145 277.402 843.648 273.812 835.212 270.221 843.438 266.631 839.099 263.04 840.836 259.447 843.974 255.853 843.228 252.255 837.395 248.66 835.59 245.066 836.798 241.473 840.917 237.881 838.288 234.288 839.942 230.694 836.476 227.097 836.872 223.5 834.583 219.905 841.055 216.311 835.327 212.717 842.877 209.122 836.377 205.524 841.991 201.926 840.77 198.331 843.388 194.736 843.784 191.139 838.206 187.54 834.655 183.943 837.652 180.347 835.46 176.75 836.32 173.151 841.685 169.554 841.778 165.956 840.745 162.357 836.742 158.76 837.231 155.16 834.804 151.562 838.227 147.963 836.705 144.364 839.85 140.765 837.838 137.17 838.547 133.571 835.271 129.975 838.827 126.376 840.32 122.779 834.255 119.178 836.872 115.58 842.048 111.979 842.479 108.378 834.524 104.776 834.948 101.174 834.513 97.573 838.05 93.972 837.548 90.369 842.249 86.761 842.817 85.492 837.637 85.451 836.18 86.438 832.602 91.239 831.226 91.714 827.353 95.32 825.287 94.813 820.847 97.195 818.074 96.327 813.424 96.887 809.598 99.701 807.074 102.446 804.511 106.16 802.509 107.331 799.039 104.68 793.362 113.246 794.163 108.069 787.03 113.898 786.251 112.99 781.584 119.18 781.015 121.304 778.098 119.362 772.835 120.542 769.374 126.265 768.537 129.747 766.405 129.143 761.915 132.657 759.803 135.357 757.221 133.014 751.727 138.267 750.619 138.227 746.454 139.229 742.891 144.023 741.518 146.062 738.553 143.884 733.154 146.69 730.632 146.827 726.568 152.829 725.89 149.887 720.047 151.207 716.665 154.097 714.189 157.719 712.135 161.653 710.26 156.34 703.046 161.535 701.897 164.035 699.192 161.962 693.846 166.798 692.488 173.253 692.065 167.872 684.809 172.382 683.264 170.804 678.206 173.333 675.519 179.614 675 181.729 672.075 178.48 666.054 182.981 664.508 184.956 661.504 191.377 661.066 186.061 653.854 191.875 653.067 190.182 647.946 198.473 648.589 199.892 645.264 198.349 640.23 197.749 635.739 202.371 634.264 207.363 633.001 207.692 629.046 204.989 623.34 211.231 622.797 211.432 618.767 215.334 616.873 210.512 609.941 212.82 607.124 215.877 604.739 223.38 604.92 217.207 597.205 225.071 597.595 225.948 593.952 230.655 592.522 225.068 585.148 234.488 586.44 229.523 579.427 236.084 579.068 237.423 575.695 233.299 569.169 240.777 569.341 238.868 564.093 239.122 560.094 241.324 557.219 250.174 558.183 249.261 553.509 248.182 548.74 254.97 548.511 249.413 541.155 258.794 542.422 260.919 539.499 260.56 535.141 261.775 531.691 261.718 527.506 261.342 523.139 262.985 519.939 269.324 519.449 267.81 514.427 270.716 511.957 276.405 511.094 279.227 508.576 277.115 503.21 278.999 500.151 279.948 496.551 282.061 493.624 286.638 492.118 285.163 487.118 284.284 482.461 292.369 482.979 290.868 477.962 296.78 477.222 295.529 472.348 293.662 467.12 302.924 468.317 299.401 462.133 305.051 461.247 304.112 456.556 306.19 453.608 305.919 449.303 308.177 446.458 307.201 441.746 310.503 439.503 314.562 437.697 315.748 434.231 315.482 429.925 318.762 427.666 320.315 424.41 326.896 424.059 329.043 421.149 326.081 415.289 329.69 413.223 330.955 409.804 335.643 408.362 330.649 401.329 333.178 398.639 341.532 399.311 339.261 393.847 339.755 389.979 341.104 386.606 348.72 386.852 347.461 381.975 350.134 379.368 350.581 375.475 348.358 370.042 356.322 370.489 355.469 365.846 358.096 363.21 360.427 360.402 358.635 355.215 360.138 351.931 363.244 349.574 370.168 349.421 370.727 345.593 374.062 343.367 374.206 339.298 372.547 334.186 373.784 330.748 376.521 328.176 377.922 324.834 384.403 324.424 381.514 318.605 388.218 318.323 389.369 314.834 388.326 310.079 391.439 307.724 388.37 301.806 395.707 301.894 393.074 296.224 397.041 294.361 397.994 290.758 405.01 290.659 401.392 284.422 408.593 284.433 405.458 278.476 406.584 274.979 409.336 272.421 408.696 267.902 412.28 265.819 418.069 265.007 418.606 261.164 415.565 255.257 422.37 255.037 426.22 253.111 421.336 246.141 424.178 243.631 427.547 241.421 431.26 239.41 434.178 236.943 433.009 232.117 437.794 230.729 436.364 225.751 437.212 222.084 439.004 218.964 444.403 217.929 444.882 214.053 450.318 213.038 443.957 205.208 451.12 205.19 454.112 202.763 455.438 199.374 458.956 197.249 452.843 189.565 456.273 187.39 457.869 184.155 463.339 183.158 462.258 178.376 461.495 173.78 464.389 171.294 469.469 170.074 472.665 167.769 475.455 165.227 472.116 159.141 476.511 157.526 474.718 152.333 481.227 151.936 479.772 146.936 481.87 143.991 484.569 141.39 487.776 139.081 485.286 133.483 489.316 131.653 493.307 129.797 495.513 126.909 498.766 124.625 499.527 122.598 500.019 121.296" style="fill: none; stroke: #000; stroke-linecap: round; stroke-linejoin: round; stroke-width: 35px;"/>
</svg>