<?xml version="1.0" encoding="UTF-8"?>
<svg id="Sticker" xmlns="http://www.w3.org/2000/svg" width="1000" height="1000" viewBox="0 0 1000 1000">
  <polygon points="499.99 888.698 499.005 888.045 492.661 889.301 495.426 881.448 489.07 882.716 490.219 876.48 486.513 875.1 482.936 873.592 482.937 868.505 476.187 870.169 474.315 866.956 472.937 863.248 467.712 863.387 469.283 856.731 465.264 855.663 458.48 857.36 462.814 847.938 457.059 848.604 456.414 844.16 455.052 840.431 451.338 839.053 445.356 839.942 446.679 833.527 438.521 836.593 439.647 830.376 438.198 826.736 433.882 825.963 434.105 820.653 431.798 817.871 428.489 816.093 423.739 815.756 418.461 815.946 416.702 812.618 413.441 810.791 412.613 806.53 407.751 806.304 405.852 803.113 402.718 801.155 401.251 797.53 400.823 792.865 400.253 788.341 397.834 785.668 394.204 784.207 387.704 785.617 388.02 780.211 388.559 774.583 385.571 772.482 382.461 770.504 378.541 769.335 373.132 769.654 370.627 767.07 372.409 760.196 369.648 757.866 363.262 759.158 362.822 754.503 362.027 750.206 359.804 747.337 352.427 749.622 349.625 747.334 346.915 744.954 344.093 742.686 342.707 738.982 343.378 733.221 339.513 731.994 335.284 731.131 337.989 723.332 333.441 722.785 331.54 719.592 327.648 718.392 321.086 719.862 324.152 711.705 321.945 708.822 315.503 710.172 313.445 707.138 314.206 701.285 309.324 701.073 305.23 700.072 301.586 698.622 303.072 692.043 299.961 690.062 298.565 686.367 291.739 688.101 293.268 681.483 286.994 682.666 284.828 679.738 283.757 675.715 282.014 672.368 280.037 669.257 276.416 667.791 270.25 668.872 267.81 666.228 270.212 658.743 262.692 661.178 264.173 654.612 258.288 655.41 259.269 649.34 257.899 645.618 255.698 642.722 248.344 644.981 244.923 643.31 247.652 635.491 243.163 634.892 239.883 633.083 234.563 633.316 237.86 624.929 231.643 626.055 229.442 623.161 228.669 618.836 224.617 617.793 223.813 613.504 221.157 611.069 218.192 608.943 211.462 610.581 209.972 606.978 212.563 599.289 207.753 599.001 205.42 596.239 202.793 593.773 196.311 595.161 195.71 590.668 198.079 583.2 189.538 586.644 189.147 581.938 186.745 579.246 183.405 577.489 181.618 574.175 182.694 568.001 174.991 570.608 175.982 564.519 170.493 564.908 168.736 561.568 166.33 558.875 161.336 558.769 162.874 552.133 161.903 548.015 156.614 548.213 154.021 545.708 153.604 541.027 146.151 543.387 148.619 535.822 146.658 532.681 138.483 535.758 136.628 532.511 138.652 525.387 132.788 526.146 131.568 522.264 127.816 520.912 127.314 516.307 120.993 517.533 119.442 513.981 119.458 508.857 113.574 509.632 110.913 507.183 107.802 505.175 112.8 499.986 110.56 497.611 114.589 496.551 116.476 493.35 116.485 488.272 118.027 484.727 124.578 486.191 128.819 485.346 129.781 481.222 129.788 476.144 131.734 473.005 133.557 469.742 137.237 468.337 138.512 464.525 142.187 463.114 142.636 458.476 149.282 460.033 149.661 455.325 151.895 452.468 157.32 452.803 156.022 446.413 164.428 449.725 160.944 441.149 163.241 438.355 172.033 442.057 170.924 435.859 177.386 437.232 173.829 428.586 180.427 430.097 180.59 425.172 181.27 420.765 187.572 421.979 192.551 421.871 194.623 418.855 192.648 411.791 196.726 410.781 197.651 406.615 200.998 404.871 202.069 400.85 204.847 398.535 211.803 400.397 214.228 397.73 213.481 391.892 214.03 387.351 221.693 389.925 225.064 388.206 221.655 379.709 224.096 377.061 232.556 380.432 234.953 377.739 232.662 370.358 239.933 372.539 237.015 364.528 242.397 364.818 248.438 365.764 244.33 356.562 250.469 357.61 249.94 351.99 253.27 350.229 259.847 351.716 258.14 344.919 265.096 346.784 264.781 341.379 266.203 337.71 268.924 335.339 271.988 333.309 274.99 331.216 280.463 331.595 278.638 324.678 281.277 322.225 285.423 321.281 288.705 319.471 288.335 314.01 293.801 314.385 297.338 312.829 301.258 311.655 300.617 305.919 306.766 306.974 305.393 300.508 311.966 301.989 312.153 297.085 310.912 290.751 318.404 293.156 320.428 290.088 324.424 288.99 322.757 282.229 328.388 282.77 332.164 281.458 334.365 278.573 336.672 275.795 336.241 270.279 339.916 268.871 340.97 264.84 346.921 265.706 348.28 261.978 349.668 258.277 350.858 254.375 352.768 251.189 360.044 253.369 362.58 250.813 362.162 245.305 362.307 240.361 368.729 241.695 369.297 237.176 373.459 236.248 371.936 229.634 374.399 227.003 381.258 228.763 383.093 225.502 386.574 223.891 389.87 222.095 392.441 219.576 389.935 211.978 393.713 210.662 398.159 210.011 402.436 209.19 403.628 205.288 406.195 202.761 404.948 196.421 408.485 194.863 411.643 192.922 415.912 192.093 418.651 189.736 419.448 185.439 424.265 185.159 422.814 178.607 427.789 178.485 427.705 173.304 431.833 172.334 438.13 173.531 441.724 172.028 441.425 166.63 444.68 164.785 449.233 164.239 452.196 162.114 449.608 154.436 457.324 157.053 457.3 151.932 459.552 149.09 464.723 149.164 464.883 144.222 469.158 143.4 470.628 139.766 472.901 136.939 472.164 131.098 476.537 130.369 477.73 126.458 478.948 122.569 482.073 120.598 488.07 121.494 488.431 116.746 490.35 113.556 495.792 113.888 498.885 111.863 500.01 111.361 504.904 108.045 506.082 111.956 510.029 113.097 507.993 120.221 514.423 118.877 513.974 124.412 515.487 127.985 517.32 131.238 520.142 133.502 527.673 131.056 528.564 135.25 533.33 135.571 533.886 140.1 537.111 141.962 541.135 143.026 539.752 149.496 542.221 152.116 542.291 157.135 550.29 154.227 552.824 156.785 553.681 161.021 557.077 162.718 559.695 165.191 564.154 165.822 567.122 167.943 564.763 175.391 565.379 179.864 568.953 181.377 574.579 180.838 576.836 183.669 577.476 188.116 578.227 192.453 581.15 194.618 589.129 191.728 591.457 194.489 594.766 196.269 592.612 203.514 593.843 207.376 595.726 210.586 600.041 211.365 602.836 213.662 604.343 217.246 606.966 219.713 609.656 222.112 616.565 220.293 617.823 224.124 622.09 224.945 625.277 226.848 626.506 230.707 628.336 233.967 626.674 240.721 632.558 239.928 636.797 240.783 636.433 246.241 640.61 247.157 642.668 250.192 644.719 253.231 647.704 255.337 650.964 257.167 651.236 261.985 658.691 259.62 656.076 267.326 660.353 268.14 660.832 272.754 664.351 274.328 667.704 276.07 672.424 276.443 676.059 277.901 673.26 285.792 676.403 287.74 680.106 289.127 683.04 291.285 688.337 291.079 689.023 295.486 690.495 299.108 692.212 302.486 699.382 300.41 697.507 307.378 703.402 306.575 700.469 314.599 705.284 314.876 710.106 315.143 712.816 317.524 715.3 320.134 713.787 326.741 717.423 328.196 719.109 331.598 725.272 330.521 729.485 331.393 726.838 339.124 729.161 341.884 731.134 344.996 737.467 343.748 741.084 345.218 739.465 351.927 743.215 353.268 749.939 351.64 750.846 355.829 749.971 361.796 753.182 363.675 760.432 361.514 758.452 368.582 761.28 370.842 762.696 374.514 765.067 377.235 768.499 378.897 774.934 377.56 778.182 379.408 780.282 382.401 783.408 384.367 784.405 388.46 783.19 394.767 789.998 393.052 789.236 398.912 790.848 402.398 795.851 402.489 799.446 403.988 798.291 410.236 802.997 410.625 803.619 415.102 808.217 415.602 813.414 415.501 812.717 421.292 817.064 422.042 816.127 428.081 822.969 426.335 825.864 428.537 828.004 431.495 830.151 434.448 832.914 436.783 833.87 440.925 835.772 444.124 837.36 447.634 839.818 450.264 841.114 454.058 847.257 453.014 846.572 458.797 850.261 460.201 854.672 460.887 858.939 461.722 857.6 468.158 864.608 466.254 866.612 469.349 867.854 473.213 867.768 478.4 873.965 477.307 876.897 479.482 877.38 484.094 880.695 485.881 880.349 491.336 881.036 495.758 888.303 493.601 892.822 494.201 888.91 500.009 886.621 499.57 887.215 505.253 884.865 507.991 882.423 510.636 878.838 512.139 877.75 516.137 872.381 515.853 873.909 522.467 872.331 525.975 869.441 528.17 866.754 530.569 862.012 530.913 857.182 531.168 857.002 536.075 852.446 536.607 852.482 541.73 850.021 544.358 849.328 548.755 847.153 551.67 838.133 547.742 839.341 554.043 834.211 554.006 833.343 558.229 828.218 558.195 829.725 564.791 824.458 564.612 821.085 566.328 817.857 568.187 817.23 572.648 813.219 573.724 812.514 578.106 810.001 580.681 807.545 583.313 802.341 583.198 802.582 588.528 800.929 591.965 801.154 597.281 795.204 596.423 791.544 597.856 792.209 603.615 786.34 602.838 783.45 605.039 781.095 607.774 782.514 614.282 777.407 614.264 774.652 616.598 772.054 619.089 766.881 619.005 769.232 626.446 763.011 625.315 763.832 631.227 760.479 632.965 758.724 636.303 753.868 636.542 752.385 640.152 747.213 640.072 746.731 644.681 744.08 647.121 741.002 649.134 739.877 653.098 736.529 654.84 733.594 656.996 732.283 660.776 731.948 665.534 727.327 666.006 726.936 670.71 722.814 671.681 720.767 674.727 719.001 678.053 715.137 679.279 711.354 680.587 709.448 683.773 705.201 684.618 702.755 687.264 699.466 689.069 697.442 692.14 699.279 699.071 692.789 697.674 688.46 698.437 687.473 702.542 685.476 705.636 680.071 705.319 679.861 710.201 676.247 711.682 674.039 714.567 671.856 717.474 669.028 719.734 670.782 726.574 667.896 728.773 666.135 732.097 660.487 731.532 655.411 731.541 655.927 737.142 655.768 742.07 652.042 743.433 650.202 746.685 645.495 747.074 645.583 752.258 637.544 749.311 637.479 754.336 637.252 759.197 630.45 757.484 631.994 764.116 624.388 761.599 625.401 767.704 620.16 767.556 620.081 772.575 618.07 775.66 611.361 774.044 609.892 777.666 608.976 781.841 604.911 782.868 601.054 784.105 603.322 791.469 601.468 794.714 600.089 798.43 594.681 798.115 593.994 802.521 592.387 806.009 583.19 801.911 581.828 805.647 583.935 812.849 581.338 815.347 577.093 816.2 571.963 816.17 573.363 822.668 570.257 824.658 565.563 825.062 566.984 831.583 557.989 827.685 560.056 834.851 556.403 836.298 555.539 840.533 552.673 842.755 550.178 845.35 549.117 849.388 541.725 847.094 543.564 854.026 541.22 856.779 537.172 857.833 532.326 858.084 528.897 859.758 530.339 866.3 523.124 864.19 523.589 869.757 522.348 873.62 520.774 877.153 513.978 875.452 510.624 877.201 509.335 881.02 506.87 883.664 503.237 885.141 503.076 891.163 499.99 888.698"/>
  <polygon points="499.99 888.698 499.005 888.045 492.661 889.301 495.426 881.448 489.07 882.716 490.219 876.48 486.513 875.1 482.936 873.592 482.937 868.505 476.187 870.169 474.315 866.956 472.937 863.248 467.712 863.387 469.283 856.731 465.264 855.663 458.48 857.36 462.814 847.938 457.059 848.604 456.414 844.16 455.052 840.431 451.338 839.053 445.356 839.942 446.679 833.527 438.521 836.593 439.647 830.376 438.198 826.736 433.882 825.963 434.105 820.653 431.798 817.871 428.489 816.093 423.739 815.756 418.461 815.946 416.702 812.618 413.441 810.791 412.613 806.53 407.751 806.304 405.852 803.113 402.718 801.155 401.251 797.53 400.823 792.865 400.253 788.341 397.834 785.668 394.204 784.207 387.704 785.617 388.02 780.211 388.559 774.583 385.571 772.482 382.461 770.504 378.541 769.335 373.132 769.654 370.627 767.07 372.409 760.196 369.648 757.866 363.262 759.158 362.822 754.503 362.027 750.206 359.804 747.337 352.427 749.622 349.625 747.334 346.915 744.954 344.093 742.686 342.707 738.982 343.378 733.221 339.513 731.994 335.284 731.131 337.989 723.332 333.441 722.785 331.54 719.592 327.648 718.392 321.086 719.862 324.152 711.705 321.945 708.822 315.503 710.172 313.445 707.138 314.206 701.285 309.324 701.073 305.23 700.072 301.586 698.622 303.072 692.043 299.961 690.062 298.565 686.367 291.739 688.101 293.268 681.483 286.994 682.666 284.828 679.738 283.757 675.715 282.014 672.368 280.037 669.257 276.416 667.791 270.25 668.872 267.81 666.228 270.212 658.743 262.692 661.178 264.173 654.612 258.288 655.41 259.269 649.34 257.899 645.618 255.698 642.722 248.344 644.981 244.923 643.31 247.652 635.491 243.163 634.892 239.883 633.083 234.563 633.316 237.86 624.929 231.643 626.055 229.442 623.161 228.669 618.836 224.617 617.793 223.813 613.504 221.157 611.069 218.192 608.943 211.462 610.581 209.972 606.978 212.563 599.289 207.753 599.001 205.42 596.239 202.793 593.773 196.311 595.161 195.71 590.668 198.079 583.2 189.538 586.644 189.147 581.938 186.745 579.246 183.405 577.489 181.618 574.175 182.694 568.001 174.991 570.608 175.982 564.519 170.493 564.908 168.736 561.568 166.33 558.875 161.336 558.769 162.874 552.133 161.903 548.015 156.614 548.213 154.021 545.708 153.604 541.027 146.151 543.387 148.619 535.822 146.658 532.681 138.483 535.758 136.628 532.511 138.652 525.387 132.788 526.146 131.568 522.264 127.816 520.912 127.314 516.307 120.993 517.533 119.442 513.981 119.458 508.857 113.574 509.632 110.913 507.183 107.802 505.175 112.8 499.986 110.56 497.611 114.589 496.551 116.476 493.35 116.485 488.272 118.027 484.727 124.578 486.191 128.819 485.346 129.781 481.222 129.788 476.144 131.734 473.005 133.557 469.742 137.237 468.337 138.512 464.525 142.187 463.114 142.636 458.476 149.282 460.033 149.661 455.325 151.895 452.468 157.32 452.803 156.022 446.413 164.428 449.725 160.944 441.149 163.241 438.355 172.033 442.057 170.924 435.859 177.386 437.232 173.829 428.586 180.427 430.097 180.59 425.172 181.27 420.765 187.572 421.979 192.551 421.871 194.623 418.855 192.648 411.791 196.726 410.781 197.651 406.615 200.998 404.871 202.069 400.85 204.847 398.535 211.803 400.397 214.228 397.73 213.481 391.892 214.03 387.351 221.693 389.925 225.064 388.206 221.655 379.709 224.096 377.061 232.556 380.432 234.953 377.739 232.662 370.358 239.933 372.539 237.015 364.528 242.397 364.818 248.438 365.764 244.33 356.562 250.469 357.61 249.94 351.99 253.27 350.229 259.847 351.716 258.14 344.919 265.096 346.784 264.781 341.379 266.203 337.71 268.924 335.339 271.988 333.309 274.99 331.216 280.463 331.595 278.638 324.678 281.277 322.225 285.423 321.281 288.705 319.471 288.335 314.01 293.801 314.385 297.338 312.829 301.258 311.655 300.617 305.919 306.766 306.974 305.393 300.508 311.966 301.989 312.153 297.085 310.912 290.751 318.404 293.156 320.428 290.088 324.424 288.99 322.757 282.229 328.388 282.77 332.164 281.458 334.365 278.573 336.672 275.795 336.241 270.279 339.916 268.871 340.97 264.84 346.921 265.706 348.28 261.978 349.668 258.277 350.858 254.375 352.768 251.189 360.044 253.369 362.58 250.813 362.162 245.305 362.307 240.361 368.729 241.695 369.297 237.176 373.459 236.248 371.936 229.634 374.399 227.003 381.258 228.763 383.093 225.502 386.574 223.891 389.87 222.095 392.441 219.576 389.935 211.978 393.713 210.662 398.159 210.011 402.436 209.19 403.628 205.288 406.195 202.761 404.948 196.421 408.485 194.863 411.643 192.922 415.912 192.093 418.651 189.736 419.448 185.439 424.265 185.159 422.814 178.607 427.789 178.485 427.705 173.304 431.833 172.334 438.13 173.531 441.724 172.028 441.425 166.63 444.68 164.785 449.233 164.239 452.196 162.114 449.608 154.436 457.324 157.053 457.3 151.932 459.552 149.09 464.723 149.164 464.883 144.222 469.158 143.4 470.628 139.766 472.901 136.939 472.164 131.098 476.537 130.369 477.73 126.458 478.948 122.569 482.073 120.598 488.07 121.494 488.431 116.746 490.35 113.556 495.792 113.888 498.885 111.863 500.01 111.361 504.904 108.045 506.082 111.956 510.029 113.097 507.993 120.221 514.423 118.877 513.974 124.412 515.487 127.985 517.32 131.238 520.142 133.502 527.673 131.056 528.564 135.25 533.33 135.571 533.886 140.1 537.111 141.962 541.135 143.026 539.752 149.496 542.221 152.116 542.291 157.135 550.29 154.227 552.824 156.785 553.681 161.021 557.077 162.718 559.695 165.191 564.154 165.822 567.122 167.943 564.763 175.391 565.379 179.864 568.953 181.377 574.579 180.838 576.836 183.669 577.476 188.116 578.227 192.453 581.15 194.618 589.129 191.728 591.457 194.489 594.766 196.269 592.612 203.514 593.843 207.376 595.726 210.586 600.041 211.365 602.836 213.662 604.343 217.246 606.966 219.713 609.656 222.112 616.565 220.293 617.823 224.124 622.09 224.945 625.277 226.848 626.506 230.707 628.336 233.967 626.674 240.721 632.558 239.928 636.797 240.783 636.433 246.241 640.61 247.157 642.668 250.192 644.719 253.231 647.704 255.337 650.964 257.167 651.236 261.985 658.691 259.62 656.076 267.326 660.353 268.14 660.832 272.754 664.351 274.328 667.704 276.07 672.424 276.443 676.059 277.901 673.26 285.792 676.403 287.74 680.106 289.127 683.04 291.285 688.337 291.079 689.023 295.486 690.495 299.108 692.212 302.486 699.382 300.41 697.507 307.378 703.402 306.575 700.469 314.599 705.284 314.876 710.106 315.143 712.816 317.524 715.3 320.134 713.787 326.741 717.423 328.196 719.109 331.598 725.272 330.521 729.485 331.393 726.838 339.124 729.161 341.884 731.134 344.996 737.467 343.748 741.084 345.218 739.465 351.927 743.215 353.268 749.939 351.64 750.846 355.829 749.971 361.796 753.182 363.675 760.432 361.514 758.452 368.582 761.28 370.842 762.696 374.514 765.067 377.235 768.499 378.897 774.934 377.56 778.182 379.408 780.282 382.401 783.408 384.367 784.405 388.46 783.19 394.767 789.998 393.052 789.236 398.912 790.848 402.398 795.851 402.489 799.446 403.988 798.291 410.236 802.997 410.625 803.619 415.102 808.217 415.602 813.414 415.501 812.717 421.292 817.064 422.042 816.127 428.081 822.969 426.335 825.864 428.537 828.004 431.495 830.151 434.448 832.914 436.783 833.87 440.925 835.772 444.124 837.36 447.634 839.818 450.264 841.114 454.058 847.257 453.014 846.572 458.797 850.261 460.201 854.672 460.887 858.939 461.722 857.6 468.158 864.608 466.254 866.612 469.349 867.854 473.213 867.768 478.4 873.965 477.307 876.897 479.482 877.38 484.094 880.695 485.881 880.349 491.336 881.036 495.758 888.303 493.601 892.822 494.201 888.91 500.009 886.621 499.57 887.215 505.253 884.865 507.991 882.423 510.636 878.838 512.139 877.75 516.137 872.381 515.853 873.909 522.467 872.331 525.975 869.441 528.17 866.754 530.569 862.012 530.913 857.182 531.168 857.002 536.075 852.446 536.607 852.482 541.73 850.021 544.358 849.328 548.755 847.153 551.67 838.133 547.742 839.341 554.043 834.211 554.006 833.343 558.229 828.218 558.195 829.725 564.791 824.458 564.612 821.085 566.328 817.857 568.187 817.23 572.648 813.219 573.724 812.514 578.106 810.001 580.681 807.545 583.313 802.341 583.198 802.582 588.528 800.929 591.965 801.154 597.281 795.204 596.423 791.544 597.856 792.209 603.615 786.34 602.838 783.45 605.039 781.095 607.774 782.514 614.282 777.407 614.264 774.652 616.598 772.054 619.089 766.881 619.005 769.232 626.446 763.011 625.315 763.832 631.227 760.479 632.965 758.724 636.303 753.868 636.542 752.385 640.152 747.213 640.072 746.731 644.681 744.08 647.121 741.002 649.134 739.877 653.098 736.529 654.84 733.594 656.996 732.283 660.776 731.948 665.534 727.327 666.006 726.936 670.71 722.814 671.681 720.767 674.727 719.001 678.053 715.137 679.279 711.354 680.587 709.448 683.773 705.201 684.618 702.755 687.264 699.466 689.069 697.442 692.14 699.279 699.071 692.789 697.674 688.46 698.437 687.473 702.542 685.476 705.636 680.071 705.319 679.861 710.201 676.247 711.682 674.039 714.567 671.856 717.474 669.028 719.734 670.782 726.574 667.896 728.773 666.135 732.097 660.487 731.532 655.411 731.541 655.927 737.142 655.768 742.07 652.042 743.433 650.202 746.685 645.495 747.074 645.583 752.258 637.544 749.311 637.479 754.336 637.252 759.197 630.45 757.484 631.994 764.116 624.388 761.599 625.401 767.704 620.16 767.556 620.081 772.575 618.07 775.66 611.361 774.044 609.892 777.666 608.976 781.841 604.911 782.868 601.054 784.105 603.322 791.469 601.468 794.714 600.089 798.43 594.681 798.115 593.994 802.521 592.387 806.009 583.19 801.911 581.828 805.647 583.935 812.849 581.338 815.347 577.093 816.2 571.963 816.17 573.363 822.668 570.257 824.658 565.563 825.062 566.984 831.583 557.989 827.685 560.056 834.851 556.403 836.298 555.539 840.533 552.673 842.755 550.178 845.35 549.117 849.388 541.725 847.094 543.564 854.026 541.22 856.779 537.172 857.833 532.326 858.084 528.897 859.758 530.339 866.3 523.124 864.19 523.589 869.757 522.348 873.62 520.774 877.153 513.978 875.452 510.624 877.201 509.335 881.02 506.87 883.664 503.237 885.141 503.076 891.163 499.99 888.698" style="fill: none; stroke: #000; stroke-linecap: round; stroke-linejoin: round; stroke-width: 30px;"/>
</svg>