<?xml version="1.0" encoding="UTF-8"?>
<svg id="Sticker" xmlns="http://www.w3.org/2000/svg" width="1000" height="1000" viewBox="0 0 1000 1000">
  <g>
    <polygon points="841.356 500 842.767 503.591 845.537 507.24 840.391 510.703 842.02 514.342 847.472 518.214 840.53 521.435 842.013 525.126 844.812 528.962 844.502 532.573 838.456 535.589 845.352 539.966 837.49 542.652 843.727 547.094 840.149 550.242 841.744 554.138 835.474 556.759 838.439 560.909 834.085 563.748 837.124 567.99 838.48 571.958 834.98 574.891 833.247 578.177 838.667 583.194 832.229 585.315 835.662 589.95 827.361 591.414 834.21 597.106 833.584 600.724 829.362 603.226 830.34 607.343 828.711 610.632 828.872 614.534 826.487 617.551 825.747 621.153 822.112 623.655 819.846 626.643 817.172 629.442 816.147 632.901 813.371 635.612 816.44 640.895 814.499 643.995 809.614 645.697 811.609 650.644 808.62 653.205 807.128 656.494 805.767 659.856 806.034 664.101 804.285 667.289 797.923 667.872 797.437 671.728 796.774 675.516 795.726 679.103 792.395 681.296 788.374 683.008 790.672 688.771 786.569 690.4 784.777 693.538 781.051 695.338 776.556 696.537 780.44 703.759 778.194 706.613 773.771 707.809 768.695 708.424 773.43 716.729 769.443 718.2 764.045 718.444 760.54 720.18 758.022 722.726 761.032 730.142 759.046 733.258 752.645 732.33 747.314 732.254 750.532 740.264 746.562 741.464 740.443 740.456 743.893 749.069 740.087 750.375 734.7 749.945 729.914 750.047 731.442 757.058 727.177 757.699 722.558 757.856 722.774 763.635 716.879 762.184 715.941 766.685 716.071 772.631 708.517 768.844 706.684 772.321 706.324 777.835 703.799 780.525 698.243 778.981 694.668 780.119 693.056 784.099 691.399 788.101 689.771 792.239 683.786 789.627 681.911 793.415 678.334 794.49 676.869 799.089 673.643 800.777 668.254 798.629 667.483 804.668 661.802 801.786 657.256 800.834 657.322 808.78 653.622 809.489 651.121 812.625 646.043 810.378 642.249 810.72 638.795 811.759 636.125 814.582 635.039 821.254 628.971 816.048 626.498 819.508 623.384 821.435 618.181 817.788 615.492 820.797 612.475 822.989 610.641 828.765 607.741 831.596 602.829 828.125 599.245 828.71 594.916 826.69 592.099 829.848 588.264 829.387 585.525 833.083 580.979 829.653 578.827 836.064 575.157 836.211 571.301 835.41 567.971 837.063 565.137 841.442 561.796 843.433 557.045 837.207 553.081 835.05 550.619 842.762 546.091 836.372 543.507 844.362 539.825 844.154 536.41 846.394 532.102 839.477 528.991 845.181 525.058 841.105 521.486 841.376 518.149 846.23 514.322 841.548 510.767 842.453 507.154 841.323 503.578 841.448 500 847.123 496.437 839.961 492.842 841.526 489.08 847.415 485.763 839.477 481.795 847.301 478.552 840.742 474.508 847.07 471.497 839.279 467.333 845.511 463.893 843.449 460.264 843.341 456.489 844.36 453.608 838.553 449.37 842.8 446.339 838.713 442.204 841.651 439.644 835.348 435.234 839.455 432.613 834.117 428.922 834.322 423.963 840.128 421.035 836.618 418.64 831.177 413.482 836.927 411.958 828.526 408.662 827.088 404.962 827.081 400.836 828.412 397.502 827.039 392.589 830.551 390.454 825.483 388.238 820.911 384.774 820.031 380.153 822.237 375.72 823.74 374.112 817.942 370.893 816.352 368.437 812.967 361.834 819.265 361.06 812.055 357.581 811.063 351.392 815.79 348.111 814.181 347.331 807.543 343.726 806.696 342.857 800.588 336.887 804.195 331.935 805.694 332.866 796.615 326.445 800.594 324.803 796.236 324.365 790.012 317.945 793.616 314.287 792.628 313.849 786.646 307.683 789.449 305.668 785.943 300.909 786.442 301.597 779.177 298.848 776.859 292.45 779.453 289.945 776.725 286.15 775.68 283.339 773.344 283.61 767.21 281.378 764.26 280.975 759.174 275.841 759.681 275.45 754.693 267.182 758.557 264.759 755.809 263.504 751.83 263.556 746.55 257.492 747.628 257.05 742.936 253.027 741.84 250.423 739.322 251.532 733.312 249.722 730.127 247.755 727.106 238.607 730.436 237.507 726.564 238.571 720.908 233.177 720.72 234.895 714.659 231.518 712.778 225.318 713.052 228.828 705.811 223.409 705.398 222.304 701.74 221.73 697.737 218.631 695.538 215.18 693.548 215.342 689.108 210.932 687.708 207.667 685.507 206.988 681.66 206.781 677.563 204.873 674.522 201.521 672.313 202.734 667.484 194.262 668.072 192.839 664.69 195.364 659.247 197.413 654.16 191.552 653.104 186.632 651.481 186.661 647.439 188.276 642.71 182.623 641.3 182.285 637.483 184.982 632.415 183.707 629.071 178.537 627.273 175.898 624.409 173.039 621.594 179.283 615.463 173.389 613.736 171.21 610.649 172.453 606.426 167.366 604.24 173.12 598.693 168.605 596.281 167.507 592.836 163.454 590.178 169.393 584.891 168.657 581.393 162.477 579.168 165.54 574.768 165.661 571.075 163.173 567.924 160.448 564.779 157.959 561.547 160.498 557.43 158.298 554.126 163.329 549.728 157.03 546.986 159.422 543.034 162.709 539.039 157.125 536.044 158.704 532.271 156.614 528.842 154.913 525.346 159.145 521.453 157.631 517.95 160.176 514.251 160.716 510.669 160.648 507.114 158.708 503.576 151.553 500 158.285 496.419 160.347 492.881 153.849 489.119 153.124 485.458 160.068 482.175 152.237 478.117 152.318 474.464 154.032 470.942 158.531 467.71 154.315 463.66 158.105 460.43 158.712 456.873 156.225 452.9 160.607 449.869 162.958 446.601 158.057 442.155 166.035 439.891 163.778 435.847 158.466 431.126 167.278 429.261 163.612 424.796 160.291 420.313 164.7 417.631 161.981 413.203 165.366 410.325 164.744 406.386 171.328 404.5 172.699 401.171 176.068 398.475 177.378 395.163 176.59 391.151 175.73 387.068 171.758 381.817 181.221 381.44 179.551 376.984 183.893 374.839 181.902 370.18 187.327 368.56 183.106 362.861 188.467 361.293 182.716 354.727 192.862 355.47 191.753 350.984 187.568 344.899 190.285 342.185 197.24 341.719 194.561 336.219 202.833 336.633 202 332.084 206.121 330.331 207.626 327.092 203.409 320.372 203.502 316.154 209.521 315.653 214.157 314.372 211.01 307.989 212.252 304.439 218.505 304.353 218.011 299.595 218.696 295.612 222.302 293.756 223.982 290.483 231.129 291.439 231.027 286.809 229.22 280.716 236.969 282.396 239.727 280.046 239.544 275.171 245.471 275.596 246.288 271.548 249.892 270.004 249.003 264.287 253.464 263.569 253.415 258.513 254.825 254.811 261.643 256.584 258.542 248.196 264.682 249.396 270.412 250.307 269.636 244.138 274.116 243.766 275.204 239.553 280.549 240.293 283.103 237.794 281.811 230.541 286.698 230.858 290.382 229.739 291.058 224.709 294.093 222.725 299.916 224.58 298.991 217.133 305.919 220.724 304.904 212.906 307.407 210.107 314.692 214.62 317.016 211.634 318.069 206.552 322.432 206.774 323.119 200.892 330.203 205.871 332.076 201.954 332.545 195.383 336.702 195.43 342.721 199.122 342.031 189.952 348.435 194.646 350.396 190.508 355.316 192.506 356.948 187.53 361.689 189.326 362.321 181.831 365.938 181.069 371.651 185.476 374.116 182.043 375.946 176.822 380.283 178.085 384.148 178.205 385.479 171.137 390.623 174.991 394.248 174.53 396.026 168.218 399.329 166.562 403.761 168.75 406.79 166.165 411.947 171.402 413.468 162.986 417.886 165.708 421.951 167.266 424.117 160.528 428.049 161.52 431.185 158.729 435.975 164.425 438.924 160.596 442.04 157.343 445.678 157.049 449.056 155.023 452.67 154.494 456.727 157.511 460.237 156.391 464.321 160.647 467.677 158.146 470.843 152.817 474.539 153.326 478.174 153.126 482.107 158.731 485.712 159.283 489.283 159.163 492.797 156.296 496.364 152.853 500 152.93 503.653 151.237 507.209 155.962 510.919 152.626 514.509 153.928 518.092 154.882 521.359 160.693 525.001 159.702 529.141 153.03 532.638 154.802 536.356 154.16 540.094 153.527 543.335 157.045 546.717 159.048 549.773 163.052 553.189 164.295 556.555 165.742 560.426 164.258 564.624 161.296 568.984 157.921 570.671 167.602 574.777 165.53 578.943 163.472 580.888 170.751 585.817 165.81 588.72 168.938 592.37 169.21 597.018 166.093 599.016 172.078 603.056 171.18 606.547 172.11 609.828 173.68 614.115 172.33 617.573 173.452 618.35 181.786 622.651 180.502 628.091 176.499 629.175 183.481 635.146 178.521 637.312 182.707 641.917 181.269 643.308 187 646.409 188.876 650.143 189.424 650.851 196.114 655.987 193.865 658.643 196.549 664.711 192.831 667.488 195.354 669.447 199.288 670.379 204.894 676.933 200.835 680.796 201.485 679.144 211.068 686.928 205.463 685.309 214.648 690.094 213.89 693.275 215.61 698.435 214.501 697.591 221.965 699.884 224.883 704.43 224.741 708.306 225.575 710.791 228.258 712.481 231.922 717.803 231.046 720.702 233.228 721.024 238.462 727.676 236.248 726.571 243.016 731.577 242.82 735.414 244.003 737.875 246.702 738.313 251.502 740.942 253.971 745.349 254.664 747.822 257.328 746.042 264.069 753.725 261.75 751.062 269.153 757.709 267.972 761.578 269.402 757.289 277.932 765.509 275.641 761.939 283.324 764.334 285.966 768.074 287.545 773.388 287.954 775.257 291.084 776.717 294.508 779.232 297.142 777.076 303.114 779.56 305.721 788.596 303.882 789.109 307.929 790.314 311.482 791.27 315.169 794.365 317.499 793.468 322.286 795.689 325.146 800.3 326.633 799.574 331.213 798.987 335.647 800.618 338.826 801.105 342.602 808.799 342.668 808.475 346.882 806.051 352.062 809.229 354.498 815.883 355.383 814.423 360.017 818.561 362.151 820.628 365.224 817.553 370.414 821.694 372.635 823.366 375.874 821.312 380.508 822.11 384.035 822.882 387.562 826.304 390.187 824.01 394.722 824.828 398.203 826.263 401.493 832.292 403.459 830.465 407.729 830.469 411.447 830.756 415.07 830.081 418.916 836.526 421.065 831.346 425.926 841.104 427.494 837.709 431.899 838.038 435.508 842.217 438.422 843.115 441.963 843.627 445.572 845.067 449.043 838.556 453.613 846.05 456.282 840.221 460.625 837.676 464.496 839.056 467.938 841.03 471.353 843.934 474.737 838.789 478.675 839.758 482.185 842.471 485.64 844.563 489.168 840.046 492.872 841.908 496.417 841.356 500" style="fill: #fff;"/>
    <polygon points="841.356 500 842.767 503.591 845.537 507.24 840.391 510.703 842.02 514.342 847.472 518.214 840.53 521.435 842.013 525.126 844.812 528.962 844.502 532.573 838.456 535.589 845.352 539.966 837.49 542.652 843.727 547.094 840.149 550.242 841.744 554.138 835.474 556.759 838.439 560.909 834.085 563.748 837.124 567.99 838.48 571.958 834.98 574.891 833.247 578.177 838.667 583.194 832.229 585.315 835.662 589.95 827.361 591.414 834.21 597.106 833.584 600.724 829.362 603.226 830.34 607.343 828.711 610.632 828.872 614.534 826.487 617.551 825.747 621.153 822.112 623.655 819.846 626.643 817.172 629.442 816.147 632.901 813.371 635.612 816.44 640.895 814.499 643.995 809.614 645.697 811.609 650.644 808.62 653.205 807.128 656.494 805.767 659.856 806.034 664.101 804.285 667.289 797.923 667.872 797.437 671.728 796.774 675.516 795.726 679.103 792.395 681.296 788.374 683.008 790.672 688.771 786.569 690.4 784.777 693.538 781.051 695.338 776.556 696.537 780.44 703.759 778.194 706.613 773.771 707.809 768.695 708.424 773.43 716.729 769.443 718.2 764.045 718.444 760.54 720.18 758.022 722.726 761.032 730.142 759.046 733.258 752.645 732.33 747.314 732.254 750.532 740.264 746.562 741.464 740.443 740.456 743.893 749.069 740.087 750.375 734.7 749.945 729.914 750.047 731.442 757.058 727.177 757.699 722.558 757.856 722.774 763.635 716.879 762.184 715.941 766.685 716.071 772.631 708.517 768.844 706.684 772.321 706.324 777.835 703.799 780.525 698.243 778.981 694.668 780.119 693.056 784.099 691.399 788.101 689.771 792.239 683.786 789.627 681.911 793.415 678.334 794.49 676.869 799.089 673.643 800.777 668.254 798.629 667.483 804.668 661.802 801.786 657.256 800.834 657.322 808.78 653.622 809.489 651.121 812.625 646.043 810.378 642.249 810.72 638.795 811.759 636.125 814.582 635.039 821.254 628.971 816.048 626.498 819.508 623.384 821.435 618.181 817.788 615.492 820.797 612.475 822.989 610.641 828.765 607.741 831.596 602.829 828.125 599.245 828.71 594.916 826.69 592.099 829.848 588.264 829.387 585.525 833.083 580.979 829.653 578.827 836.064 575.157 836.211 571.301 835.41 567.971 837.063 565.137 841.442 561.796 843.433 557.045 837.207 553.081 835.05 550.619 842.762 546.091 836.372 543.507 844.362 539.825 844.154 536.41 846.394 532.102 839.477 528.991 845.181 525.058 841.105 521.486 841.376 518.149 846.23 514.322 841.548 510.767 842.453 507.154 841.323 503.578 841.448 500 847.123 496.437 839.961 492.842 841.526 489.08 847.415 485.763 839.477 481.795 847.301 478.552 840.742 474.508 847.07 471.497 839.279 467.333 845.511 463.893 843.449 460.264 843.341 456.489 844.36 453.608 838.553 449.37 842.8 446.339 838.713 442.204 841.651 439.644 835.348 435.234 839.455 432.613 834.117 428.922 834.322 423.963 840.128 421.035 836.618 418.64 831.177 413.482 836.927 411.958 828.526 408.662 827.088 404.962 827.081 400.836 828.412 397.502 827.039 392.589 830.551 390.454 825.483 388.238 820.911 384.774 820.031 380.153 822.237 375.72 823.74 374.112 817.942 370.893 816.352 368.437 812.967 361.834 819.265 361.06 812.055 357.581 811.063 351.392 815.79 348.111 814.181 347.331 807.543 343.726 806.696 342.857 800.588 336.887 804.195 331.935 805.694 332.866 796.615 326.445 800.594 324.803 796.236 324.365 790.012 317.945 793.616 314.287 792.628 313.849 786.646 307.683 789.449 305.668 785.943 300.909 786.442 301.597 779.177 298.848 776.859 292.45 779.453 289.945 776.725 286.15 775.68 283.339 773.344 283.61 767.21 281.378 764.26 280.975 759.174 275.841 759.681 275.45 754.693 267.182 758.557 264.759 755.809 263.504 751.83 263.556 746.55 257.492 747.628 257.05 742.936 253.027 741.84 250.423 739.322 251.532 733.312 249.722 730.127 247.755 727.106 238.607 730.436 237.507 726.564 238.571 720.908 233.177 720.72 234.895 714.659 231.518 712.778 225.318 713.052 228.828 705.811 223.409 705.398 222.304 701.74 221.73 697.737 218.631 695.538 215.18 693.548 215.342 689.108 210.932 687.708 207.667 685.507 206.988 681.66 206.781 677.563 204.873 674.522 201.521 672.313 202.734 667.484 194.262 668.072 192.839 664.69 195.364 659.247 197.413 654.16 191.552 653.104 186.632 651.481 186.661 647.439 188.276 642.71 182.623 641.3 182.285 637.483 184.982 632.415 183.707 629.071 178.537 627.273 175.898 624.409 173.039 621.594 179.283 615.463 173.389 613.736 171.21 610.649 172.453 606.426 167.366 604.24 173.12 598.693 168.605 596.281 167.507 592.836 163.454 590.178 169.393 584.891 168.657 581.393 162.477 579.168 165.54 574.768 165.661 571.075 163.173 567.924 160.448 564.779 157.959 561.547 160.498 557.43 158.298 554.126 163.329 549.728 157.03 546.986 159.422 543.034 162.709 539.039 157.125 536.044 158.704 532.271 156.614 528.842 154.913 525.346 159.145 521.453 157.631 517.95 160.176 514.251 160.716 510.669 160.648 507.114 158.708 503.576 151.553 500 158.285 496.419 160.347 492.881 153.849 489.119 153.124 485.458 160.068 482.175 152.237 478.117 152.318 474.464 154.032 470.942 158.531 467.71 154.315 463.66 158.105 460.43 158.712 456.873 156.225 452.9 160.607 449.869 162.958 446.601 158.057 442.155 166.035 439.891 163.778 435.847 158.466 431.126 167.278 429.261 163.612 424.796 160.291 420.313 164.7 417.631 161.981 413.203 165.366 410.325 164.744 406.386 171.328 404.5 172.699 401.171 176.068 398.475 177.378 395.163 176.59 391.151 175.73 387.068 171.758 381.817 181.221 381.44 179.551 376.984 183.893 374.839 181.902 370.18 187.327 368.56 183.106 362.861 188.467 361.293 182.716 354.727 192.862 355.47 191.753 350.984 187.568 344.899 190.285 342.185 197.24 341.719 194.561 336.219 202.833 336.633 202 332.084 206.121 330.331 207.626 327.092 203.409 320.372 203.502 316.154 209.521 315.653 214.157 314.372 211.01 307.989 212.252 304.439 218.505 304.353 218.011 299.595 218.696 295.612 222.302 293.756 223.982 290.483 231.129 291.439 231.027 286.809 229.22 280.716 236.969 282.396 239.727 280.046 239.544 275.171 245.471 275.596 246.288 271.548 249.892 270.004 249.003 264.287 253.464 263.569 253.415 258.513 254.825 254.811 261.643 256.584 258.542 248.196 264.682 249.396 270.412 250.307 269.636 244.138 274.116 243.766 275.204 239.553 280.549 240.293 283.103 237.794 281.811 230.541 286.698 230.858 290.382 229.739 291.058 224.709 294.093 222.725 299.916 224.58 298.991 217.133 305.919 220.724 304.904 212.906 307.407 210.107 314.692 214.62 317.016 211.634 318.069 206.552 322.432 206.774 323.119 200.892 330.203 205.871 332.076 201.954 332.545 195.383 336.702 195.43 342.721 199.122 342.031 189.952 348.435 194.646 350.396 190.508 355.316 192.506 356.948 187.53 361.689 189.326 362.321 181.831 365.938 181.069 371.651 185.476 374.116 182.043 375.946 176.822 380.283 178.085 384.148 178.205 385.479 171.137 390.623 174.991 394.248 174.53 396.026 168.218 399.329 166.562 403.761 168.75 406.79 166.165 411.947 171.402 413.468 162.986 417.886 165.708 421.951 167.266 424.117 160.528 428.049 161.52 431.185 158.729 435.975 164.425 438.924 160.596 442.04 157.343 445.678 157.049 449.056 155.023 452.67 154.494 456.727 157.511 460.237 156.391 464.321 160.647 467.677 158.146 470.843 152.817 474.539 153.326 478.174 153.126 482.107 158.731 485.712 159.283 489.283 159.163 492.797 156.296 496.364 152.853 500 152.93 503.653 151.237 507.209 155.962 510.919 152.626 514.509 153.928 518.092 154.882 521.359 160.693 525.001 159.702 529.141 153.03 532.638 154.802 536.356 154.16 540.094 153.527 543.335 157.045 546.717 159.048 549.773 163.052 553.189 164.295 556.555 165.742 560.426 164.258 564.624 161.296 568.984 157.921 570.671 167.602 574.777 165.53 578.943 163.472 580.888 170.751 585.817 165.81 588.72 168.938 592.37 169.21 597.018 166.093 599.016 172.078 603.056 171.18 606.547 172.11 609.828 173.68 614.115 172.33 617.573 173.452 618.35 181.786 622.651 180.502 628.091 176.499 629.175 183.481 635.146 178.521 637.312 182.707 641.917 181.269 643.308 187 646.409 188.876 650.143 189.424 650.851 196.114 655.987 193.865 658.643 196.549 664.711 192.831 667.488 195.354 669.447 199.288 670.379 204.894 676.933 200.835 680.796 201.485 679.144 211.068 686.928 205.463 685.309 214.648 690.094 213.89 693.275 215.61 698.435 214.501 697.591 221.965 699.884 224.883 704.43 224.741 708.306 225.575 710.791 228.258 712.481 231.922 717.803 231.046 720.702 233.228 721.024 238.462 727.676 236.248 726.571 243.016 731.577 242.82 735.414 244.003 737.875 246.702 738.313 251.502 740.942 253.971 745.349 254.664 747.822 257.328 746.042 264.069 753.725 261.75 751.062 269.153 757.709 267.972 761.578 269.402 757.289 277.932 765.509 275.641 761.939 283.324 764.334 285.966 768.074 287.545 773.388 287.954 775.257 291.084 776.717 294.508 779.232 297.142 777.076 303.114 779.56 305.721 788.596 303.882 789.109 307.929 790.314 311.482 791.27 315.169 794.365 317.499 793.468 322.286 795.689 325.146 800.3 326.633 799.574 331.213 798.987 335.647 800.618 338.826 801.105 342.602 808.799 342.668 808.475 346.882 806.051 352.062 809.229 354.498 815.883 355.383 814.423 360.017 818.561 362.151 820.628 365.224 817.553 370.414 821.694 372.635 823.366 375.874 821.312 380.508 822.11 384.035 822.882 387.562 826.304 390.187 824.01 394.722 824.828 398.203 826.263 401.493 832.292 403.459 830.465 407.729 830.469 411.447 830.756 415.07 830.081 418.916 836.526 421.065 831.346 425.926 841.104 427.494 837.709 431.899 838.038 435.508 842.217 438.422 843.115 441.963 843.627 445.572 845.067 449.043 838.556 453.613 846.05 456.282 840.221 460.625 837.676 464.496 839.056 467.938 841.03 471.353 843.934 474.737 838.789 478.675 839.758 482.185 842.471 485.64 844.563 489.168 840.046 492.872 841.908 496.417 841.356 500" style="fill: none; stroke: #000; stroke-linecap: round; stroke-linejoin: round; stroke-width: 35px;"/>
  </g>
  <g>
    <polygon points="691.958 500 695.397 503.612 690.401 507.046 689.423 510.52 698.235 514.681 690.695 517.68 693.084 521.505 693.299 525.153 697.273 529.381 688.11 531.591 690.44 535.609 686.182 538.391 690.284 542.911 686.728 545.754 690.238 550.354 683.972 552.355 688.766 557.507 687.154 560.817 686.126 564.31 678.825 565.509 679.265 569.453 684.522 575.443 679.124 577.127 678.164 580.648 677.83 584.491 674.143 586.717 669.618 588.409 666.638 590.808 669.143 596.274 666.589 598.939 665.86 602.7 660.771 603.703 665.386 611.07 662.503 613.545 658.383 615.077 652.222 614.954 651.747 619.064 652.791 624.517 646.529 623.986 648.027 630.026 646.889 633.916 641.147 633.539 637.146 634.643 639.352 641.96 632.782 640.365 630.528 643.193 628.755 646.6 625.006 647.753 625.043 653.456 621.289 654.599 615.309 652.711 616.505 660.365 613.194 662.022 611 665.304 605.968 664.296 604.053 668.062 598.617 666.069 597.623 671.531 591.236 667.442 589.045 670.857 587.182 675.096 583.317 675.385 579.834 676.39 575.945 676.404 572.624 677.657 570.778 682.704 566.377 681.214 563.496 683.795 560.815 687.168 557.215 687.831 554.445 691.356 548.962 684.992 545.586 686.066 542.166 686.988 539.675 692.469 536.414 694.795 532.349 692.675 528.965 694.472 524.611 689.117 521.541 693.431 518.341 697.924 514.388 694.225 510.879 695.98 507.076 691.227 503.609 695.191 500 692.795 496.491 689.709 492.83 693.833 489.427 690.391 485.781 691.913 481.855 695.777 478.823 690.109 474.627 695.011 470.664 696.968 468.261 688.997 463.362 695.978 460.215 692.979 457.817 687.039 453.634 689.234 449.387 691.217 446.886 686.646 444.038 683.689 440.942 681.735 438.023 679.375 433.413 681.766 428.349 684.933 425.712 681.702 423.798 676.98 419.533 677.766 417.549 673.545 411.906 676.903 411.914 668.999 405.762 672.919 405.093 666.747 402.552 664.083 397.228 665.977 396.318 660.738 392.506 660.072 389.704 657.862 384.065 659.562 385.172 652.056 378.15 655.293 379.846 647.444 374.754 648.017 368.558 649.638 368.889 643.814 364.471 643.25 363.284 639.258 363.059 634.425 359.779 632.645 354.51 632.622 353.915 628.302 352.215 625.033 348.018 623.841 348.88 618.556 343.756 617.98 345.515 612.226 341.088 611.018 338.91 608.165 336.986 605.139 337.199 600.789 336.008 597.381 328.15 597.806 325.256 595.223 331.62 587.751 327.974 585.65 322.111 584.509 325.384 579.03 318.735 578.041 323.565 572.124 316.668 571.022 319.949 565.951 316.6 563.36 315.595 559.917 313.091 556.935 312.112 553.46 316.453 548.581 309.997 546.547 308.605 543.156 311.058 538.952 309.073 535.696 311.338 531.68 304.599 529.102 307.003 525.111 311.448 521.004 301.341 518.408 307.007 514.298 305.773 510.783 309.918 507.035 308.033 503.551 304.913 500 309.869 496.483 301.376 492.655 308.378 489.359 309.738 485.901 301.724 481.626 305.811 478.374 307.517 474.952 302.838 470.635 303.609 467.029 312.943 465.019 307.418 460.297 312.505 457.715 312.261 454 313.711 450.688 309.97 445.925 309.832 442.066 312.745 439.15 319.83 437.748 315.857 432.542 320.812 430.577 317.134 425.235 323.724 424.101 325.098 420.831 321.155 415.026 325.374 413.042 329.764 411.269 331.036 407.922 330.748 403.664 334.375 401.635 331.52 395.674 339.881 396.718 335.95 389.829 339.4 387.787 340.905 384.404 344.934 382.895 347.092 380.024 351.356 378.867 353.718 376.224 357.084 374.467 355.432 368.201 360.027 367.572 362.738 365.244 366.558 364.059 364.19 356.435 365.746 352.721 369.015 350.863 371.975 348.683 380.007 352.734 378.736 345.433 380.254 341.422 382.94 338.873 387.442 338.886 390.95 337.596 395.286 337.644 397.572 334.557 401.881 334.767 401.531 326.986 406.613 328.62 410.4 328.08 414.038 327.349 414.925 320.92 420.892 325.211 424.376 324.34 427.151 321.794 430.489 320.564 434.617 321.5 436.142 315.16 440.103 315.657 441.941 309.395 446.077 310.481 449.561 309.415 453.294 309.348 457.326 310.751 461.407 312.808 464.908 312.325 467.05 303.719 470.714 303.355 475.001 307.872 478.993 311.422 482.338 309.49 485.331 301.926 489.092 303.483 492.718 303.125 496.329 301.397 500 304.731 503.635 303.356 507.126 307.393 510.911 303.429 514.515 304.041 518.408 301.349 521.257 309.168 524.884 308.786 528.168 310.943 532.893 304.082 534.916 313.29 539.076 310.474 543.423 307.44 547.418 306.455 549.197 314.146 552.627 315.068 556.954 313.053 558.807 319.038 563.819 315.294 566.875 317.447 569.046 321.785 575.447 315.467 577.339 320.384 578.431 326.725 582.539 326.27 585.125 329.047 587.833 331.484 594.759 326.128 596.161 331.056 598.478 334.184 600.488 337.704 606.006 335.666 609.393 337.106 609.56 343.19 614.126 342.925 615.568 346.966 619.647 347.511 620.336 352.332 625.398 351.803 630.295 351.666 629.779 357.647 634.919 357.395 637.727 359.713 640.706 361.879 641.776 365.883 640.231 372.174 642.881 374.514 645.566 376.846 651.749 376.35 649.781 382.496 651.418 385.669 658.587 384.789 662.936 386.166 662.037 391.198 660.622 396.406 663.924 398.514 665.034 401.999 667.748 404.534 667.722 408.611 675.551 408.504 671.304 414.71 671.621 418.474 674.044 421.229 676.489 424.019 684.829 424.441 682.972 429.118 678.939 434.457 688.362 434.926 684.585 440.024 690.341 442.021 689.072 446.204 690.771 449.512 690.061 453.439 688.21 457.56 691.258 460.573 689.679 464.536 694.004 467.43 690.419 471.634 692.582 474.942 696.707 478.098 696.483 481.791 696.238 485.465 698.626 488.977 689.87 492.973 698.231 496.336 691.958 500"/>
    <polygon points="691.958 500 695.397 503.612 690.401 507.046 689.423 510.52 698.235 514.681 690.695 517.68 693.084 521.505 693.299 525.153 697.273 529.381 688.11 531.591 690.44 535.609 686.182 538.391 690.284 542.911 686.728 545.754 690.238 550.354 683.972 552.355 688.766 557.507 687.154 560.817 686.126 564.31 678.825 565.509 679.265 569.453 684.522 575.443 679.124 577.127 678.164 580.648 677.83 584.491 674.143 586.717 669.618 588.409 666.638 590.808 669.143 596.274 666.589 598.939 665.86 602.7 660.771 603.703 665.386 611.07 662.503 613.545 658.383 615.077 652.222 614.954 651.747 619.064 652.791 624.517 646.529 623.986 648.027 630.026 646.889 633.916 641.147 633.539 637.146 634.643 639.352 641.96 632.782 640.365 630.528 643.193 628.755 646.6 625.006 647.753 625.043 653.456 621.289 654.599 615.309 652.711 616.505 660.365 613.194 662.022 611 665.304 605.968 664.296 604.053 668.062 598.617 666.069 597.623 671.531 591.236 667.442 589.045 670.857 587.182 675.096 583.317 675.385 579.834 676.39 575.945 676.404 572.624 677.657 570.778 682.704 566.377 681.214 563.496 683.795 560.815 687.168 557.215 687.831 554.445 691.356 548.962 684.992 545.586 686.066 542.166 686.988 539.675 692.469 536.414 694.795 532.349 692.675 528.965 694.472 524.611 689.117 521.541 693.431 518.341 697.924 514.388 694.225 510.879 695.98 507.076 691.227 503.609 695.191 500 692.795 496.491 689.709 492.83 693.833 489.427 690.391 485.781 691.913 481.855 695.777 478.823 690.109 474.627 695.011 470.664 696.968 468.261 688.997 463.362 695.978 460.215 692.979 457.817 687.039 453.634 689.234 449.387 691.217 446.886 686.646 444.038 683.689 440.942 681.735 438.023 679.375 433.413 681.766 428.349 684.933 425.712 681.702 423.798 676.98 419.533 677.766 417.549 673.545 411.906 676.903 411.914 668.999 405.762 672.919 405.093 666.747 402.552 664.083 397.228 665.977 396.318 660.738 392.506 660.072 389.704 657.862 384.065 659.562 385.172 652.056 378.15 655.293 379.846 647.444 374.754 648.017 368.558 649.638 368.889 643.814 364.471 643.25 363.284 639.258 363.059 634.425 359.779 632.645 354.51 632.622 353.915 628.302 352.215 625.033 348.018 623.841 348.88 618.556 343.756 617.98 345.515 612.226 341.088 611.018 338.91 608.165 336.986 605.139 337.199 600.789 336.008 597.381 328.15 597.806 325.256 595.223 331.62 587.751 327.974 585.65 322.111 584.509 325.384 579.03 318.735 578.041 323.565 572.124 316.668 571.022 319.949 565.951 316.6 563.36 315.595 559.917 313.091 556.935 312.112 553.46 316.453 548.581 309.997 546.547 308.605 543.156 311.058 538.952 309.073 535.696 311.338 531.68 304.599 529.102 307.003 525.111 311.448 521.004 301.341 518.408 307.007 514.298 305.773 510.783 309.918 507.035 308.033 503.551 304.913 500 309.869 496.483 301.376 492.655 308.378 489.359 309.738 485.901 301.724 481.626 305.811 478.374 307.517 474.952 302.838 470.635 303.609 467.029 312.943 465.019 307.418 460.297 312.505 457.715 312.261 454 313.711 450.688 309.97 445.925 309.832 442.066 312.745 439.15 319.83 437.748 315.857 432.542 320.812 430.577 317.134 425.235 323.724 424.101 325.098 420.831 321.155 415.026 325.374 413.042 329.764 411.269 331.036 407.922 330.748 403.664 334.375 401.635 331.52 395.674 339.881 396.718 335.95 389.829 339.4 387.787 340.905 384.404 344.934 382.895 347.092 380.024 351.356 378.867 353.718 376.224 357.084 374.467 355.432 368.201 360.027 367.572 362.738 365.244 366.558 364.059 364.19 356.435 365.746 352.721 369.015 350.863 371.975 348.683 380.007 352.734 378.736 345.433 380.254 341.422 382.94 338.873 387.442 338.886 390.95 337.596 395.286 337.644 397.572 334.557 401.881 334.767 401.531 326.986 406.613 328.62 410.4 328.08 414.038 327.349 414.925 320.92 420.892 325.211 424.376 324.34 427.151 321.794 430.489 320.564 434.617 321.5 436.142 315.16 440.103 315.657 441.941 309.395 446.077 310.481 449.561 309.415 453.294 309.348 457.326 310.751 461.407 312.808 464.908 312.325 467.05 303.719 470.714 303.355 475.001 307.872 478.993 311.422 482.338 309.49 485.331 301.926 489.092 303.483 492.718 303.125 496.329 301.397 500 304.731 503.635 303.356 507.126 307.393 510.911 303.429 514.515 304.041 518.408 301.349 521.257 309.168 524.884 308.786 528.168 310.943 532.893 304.082 534.916 313.29 539.076 310.474 543.423 307.44 547.418 306.455 549.197 314.146 552.627 315.068 556.954 313.053 558.807 319.038 563.819 315.294 566.875 317.447 569.046 321.785 575.447 315.467 577.339 320.384 578.431 326.725 582.539 326.27 585.125 329.047 587.833 331.484 594.759 326.128 596.161 331.056 598.478 334.184 600.488 337.704 606.006 335.666 609.393 337.106 609.56 343.19 614.126 342.925 615.568 346.966 619.647 347.511 620.336 352.332 625.398 351.803 630.295 351.666 629.779 357.647 634.919 357.395 637.727 359.713 640.706 361.879 641.776 365.883 640.231 372.174 642.881 374.514 645.566 376.846 651.749 376.35 649.781 382.496 651.418 385.669 658.587 384.789 662.936 386.166 662.037 391.198 660.622 396.406 663.924 398.514 665.034 401.999 667.748 404.534 667.722 408.611 675.551 408.504 671.304 414.71 671.621 418.474 674.044 421.229 676.489 424.019 684.829 424.441 682.972 429.118 678.939 434.457 688.362 434.926 684.585 440.024 690.341 442.021 689.072 446.204 690.771 449.512 690.061 453.439 688.21 457.56 691.258 460.573 689.679 464.536 694.004 467.43 690.419 471.634 692.582 474.942 696.707 478.098 696.483 481.791 696.238 485.465 698.626 488.977 689.87 492.973 698.231 496.336 691.958 500" style="fill: none; stroke: #000; stroke-linecap: round; stroke-linejoin: round; stroke-width: 35px;"/>
  </g>
</svg>