<?xml version="1.0" encoding="UTF-8"?>
<svg id="Sticker" xmlns="http://www.w3.org/2000/svg" width="1000" height="1000" viewBox="0 0 1000 1000">
  <polyline points="778.169 457.192 774.575 457.263 770.981 456.795 767.388 454.839 763.795 455.07 760.203 450.516 756.612 450.091 753.02 458.25 749.429 452.459 745.837 456.59 742.246 456.945 738.655 457.783 735.064 449.514 731.472 458.037 727.88 451.166 724.288 453.384 720.695 454.806 717.101 457.133 713.507 453.783 709.912 451.052 706.317 457.131 702.72 454.28 699.124 452.98 695.529 452.926 691.934 454.594 688.34 450.487 684.746 448.978 681.153 455.989 677.561 452.548 673.968 454.244 670.376 457.916 666.783 452.194 663.19 456.937 659.597 458.111 656.004 453.804 652.41 457.834 648.816 454.619 645.221 455.313 641.625 452.595 638.028 454.955 634.431 457.212 630.835 451.681 627.24 457.462 623.646 452.639 620.052 450.054 616.458 453.23 612.864 449.315 609.271 450.962 605.677 452.809 602.083 454.692 598.489 451.648 594.894 455.434 591.298 453.305 587.701 449.326 584.104 453.752 580.507 454.747 576.911 451.148 573.316 455.304 569.721 451.377 566.127 449.635 562.533 452.696 558.938 448.995 555.343 448.899 551.748 455.656 548.152 453.929 544.555 450.452 540.957 452.049 537.36 457.715 533.764 452.807 530.169 451.423 526.573 455.27 522.978 449.139 519.383 457.647 515.788 451.191 512.191 452.772 508.594 453.113 504.996 453.109 501.399 450.561 497.803 457.335 494.207 449.292 490.611 450.341 487.016 449.301 483.419 455.931 479.822 453.402 476.224 452.842 472.627 457.355 469.03 456.224 465.434 452.642 461.838 454.612 458.241 455.137 454.644 453.01 451.046 454.7 447.448 452.152 443.851 453.22 440.255 448.666 436.658 453.19 433.061 456.872 429.463 456.73 425.865 456.66 422.268 457.335 418.671 449.472 415.079 454.766 411.487 452.19 407.895 448.695 404.302 452.858 400.708 450.142 397.112 449.021 393.513 452.76 389.915 455.156 386.32 449.78 382.726 456.566 379.132 458.219 375.538 449.386 371.942 451.062 368.343 456.293 364.745 451.716 361.148 451.36 357.552 454.445 353.957 451.502 350.36 450.911 346.76 452.361 343.161 457.663 339.564 449.552 335.968 453.647 332.37 458.175 328.769 451.822 325.17 450.588 321.573 456.049 317.973 451.031 314.373 454.701 310.775 451.828 307.175 457.361 303.575 456.013 299.975 451.575 296.375 451.493 292.775 454.329 289.174 448.503 285.574 448.866 281.972 451.417 278.376 452.95 274.775 454.235 271.178 450.946 267.578 452.412 263.979 450.402 260.376 448.492 256.776 455.386 253.174 451.456 249.571 454.949 245.968 456.038 242.364 456.984 238.762 454.755 235.159 456.665 231.555 448.332 227.945 455.874 224.335 455.744" style="fill: none; stroke: #000; stroke-linecap: round; stroke-linejoin: round; stroke-width: 35px;"/>
  <g>
    <polygon points="782.658 506.232 788.586 509.852 783.278 513.346 786.401 517.017 786.245 520.61 787.377 524.28 785.461 527.762 788.76 531.644 783.702 534.808 781.494 538.167 786.524 542.355 785.372 545.855 784.423 549.368 788.223 553.621 781.832 556.244 784.792 560.435 781.363 563.466 784.919 567.885 778.364 570.174 777.057 573.545 777.127 577.244 774.176 580.18 779.054 585.204 774.417 587.653 771.662 590.57 773.915 595.011 777.288 599.91 771.527 601.817 768.87 604.698 767.092 607.863 770.809 613.117 766.738 615.42 765.992 619.014 761.01 620.821 760.958 624.695 764.39 630.197 762.15 633.179 754.953 633.734 756.882 638.686 754.628 641.588 750.653 643.557 748.076 646.218 753.613 653.427 751.761 656.587 747.262 658.167 740.584 658.321 739.957 662.129 741.295 667.254 741.44 671.701 734.519 671.394 735.6 676.527 731.305 677.902 729.402 680.964 727.437 683.988 723.577 685.545 725.237 691.443 721.269 692.892 721.115 697.473 719.472 700.865 715.135 701.911 710.227 702.355 706 703.318 703.978 706.295 701.792 709.131 701.72 714.094 695.831 713.222 694.742 717.219 692.098 719.62 689.918 722.533 691.451 729.673 686.606 729.654 682.104 729.921 682.087 735.556 675.767 733.474 672.281 734.804 673.707 742.567 669.529 743.041 668.008 747.118 665.675 750.142 658.37 745.929 656.082 748.928 656.039 755.457 651.266 754.717 648.913 757.786 647.438 762.403 641.171 758.872 636.874 758.541 637.367 766.895 632.594 765.672 629.304 767.166 624.008 764.599 624.775 774.409 619.195 771.087 617.02 775.026 612.59 773.933 609.392 775.603 604.661 773.489 603.011 779.049 600.538 782.741 596.451 782.133 593.616 785.004 590.808 788.105 587.39 789.454 583.632 789.696 578.616 785.493 574.24 783.102 572.136 789.075 568.649 790.006 565.025 790.363 560.941 788.564 558.154 792.723 555.396 797.505 551.142 794.565 547.817 796.639 543.22 790.668 539.66 790.876 536.962 797.793 532.593 791.574 529.344 794.698 525.994 797.488 522.587 800.365 518.853 799.111 515.248 799.658 511.497 796.608 507.878 795.571 504.37 801.216 500.721 801.349 497.089 799.952 493.416 801.544 489.802 800.454 486.29 797.813 482.402 802.113 478.845 800.527 475.428 797.745 472.206 793.659 468.638 793.429 464.42 798.281 460.644 798.991 457.903 792.752 453.982 794.491 450.839 791.563 446.975 792.686 443.883 789.83 440.82 787.106 437.387 786.192 431.771 794.136 430.094 786.036 425.587 788.975 423.287 783.879 417.748 789.884 414.314 788.603 413.378 779.78 409.29 780.738 403.679 785.766 401.206 781.909 397.632 781.085 396.282 774.705 392.709 774.003 388.29 775.207 384.547 774.724 380.829 774.122 378.695 770.156 375.282 768.924 372.954 765.547 366.845 769.448 366.879 761.712 361.017 764.858 358.107 762.602 358.717 754.441 351.442 759.541 352.862 750.42 349.353 749.32 342.548 753.138 343.944 744.628 339.866 744.27 333.225 747.386 334.724 739.214 326.627 744.004 328.533 735.589 325.849 733.234 319.82 734.967 318.213 731.238 312.963 731.806 315.63 723.271 312.359 721.591 305.873 723.336 305.999 717.934 300.462 718.476 300.895 712.902 293.864 714.75 292.97 710.548 292.669 705.871 287.038 706.115 290.672 698.04 285.79 697.557 282.742 695.427 281.783 691.555 277.047 690.753 276.541 686.558 274.407 683.666 271.22 681.553 268.564 679.019 265.312 676.883 265.95 672.044 263.385 669.434 262.667 665.607 258.318 664.113 260.104 658.771 255.068 657.625 257.768 651.883 248.391 653.099 249.804 648.158 250.032 643.949 246.737 641.618 246.188 637.862 242.848 635.492 238.699 633.449 236.302 630.53 239.077 625.308 241.631 620.303 235.565 618.959 239.466 613.523 232.695 612.321 231.773 608.808 230.126 605.561 229.894 601.819 231.253 597.582 230.755 593.995 222.96 592.615 226.283 587.864 224.202 584.706 225.102 580.742 219.623 578.404 222.729 573.933 224.781 569.797 219.938 567.173 218.257 563.824 222.814 559.306 216.51 556.774 220.039 552.544 217.857 549.248 212.074 546.39 213.999 542.469 216.911 538.5 211.082 535.453 212.583 531.655 215 527.836 219 523.987 217.914 520.482 216.31 516.974 213.422 513.461 217.12 509.802 213.021 506.232 212.473 502.678 215.439 499.193 209.742 495.471 212.939 492.03 214.614 488.57 212.765 484.897 219.803 481.907 216.348 478.087 214.992 474.399 212.745 470.565 218.791 467.749 214.06 463.53 219.671 460.787 219.866 457.261 218.834 453.507 220.734 450.274 223.068 447.161 218.948 442.688 219.064 439.066 226.395 437.174 225.078 433.243 223.283 429.128 226.706 426.354 228.9 423.283 229.273 419.684 229.626 416.061 230.307 412.527 234.616 410.245 235.843 406.933 232.794 402.013 233.023 398.252 231.613 393.798 238.112 392.575 239.524 389.297 235.305 383.498 245.762 384.319 243.496 379.331 248.705 377.912 244.879 372.014 247.97 369.569 252 367.675 246.62 360.631 254.707 361.052 253.164 356.019 253.25 351.86 262.034 353.043 262.9 349.406 261.913 344.52 263.268 341.107 262.514 336.212 266.458 334.549 273.157 334.96 274.442 331.5 270.957 324.352 273.821 321.972 278.539 321.112 283.368 320.443 286.179 318.171 283.192 310.883 285.189 307.802 292.828 309.853 291.096 303.373 294.1 301.24 296.127 298.171 299.217 296.148 300.488 292.273 306.397 293.239 305.553 287.051 312.636 289.491 311.274 282.546 317.071 283.74 320.125 281.824 321.942 278.407 323.499 274.602 325.642 271.473 328.347 269.042 333.669 270.165 335.974 267.241 339.686 266.292 340.604 261.279 345.195 261.671 346.707 257.397 350.686 256.946 354.178 255.773 356.725 253.037 358.795 249.418 363.799 250.961 367.962 251.148 367.746 243.092 374.67 248.691 377.768 246.98 380.241 243.946 383.159 241.779 386.473 240.452 388.401 235.914 393.646 239.134 396.224 236.037 399.957 235.8 402.927 233.59 404.384 227.062 408.635 228.243 412.521 228.518 415.319 225.458 420.341 229.614 421.787 221.797 425.918 223.127 429.117 221.107 434.279 226.958 435.77 217.762 440.205 221.011 443.009 216.829 447.285 219.839 451.466 222.869 454.372 218.774 458.316 220.886 461.682 219.347 464.537 213.558 468.357 215.039 472.298 218.211 475.973 219.369 478.968 212.028 482.836 215.733 486.494 217.209 490.127 219.158 493.475 211.774 497.103 212.139 500.721 212.256 504.385 209.929 507.877 216.834 511.671 211.201 515.091 215.861 518.952 211.752 522.688 210.729 526.15 213.192 529.892 212.342 533.491 213.022 537.22 212.632 540.426 216.123 543.713 218.578 547.171 219.706 551.763 214.444 554.093 221.717 557.429 223.263 562.451 217.036 563.926 226.824 568.554 222.851 572.963 220.227 574.34 229.014 577.979 229.194 582.577 226.278 586.519 225.784 588.212 232.237 593.148 228.838 595.975 231.677 600.668 229.397 602.588 234.527 606.07 235.503 607.889 240.479 614.693 233.698 617.22 237.014 619.487 240.771 621.082 245.783 626.191 243.476 630.542 242.897 630.755 250.303 637.476 245.391 636.452 254.701 639.475 256.556 644.128 255.66 647.635 256.793 651.218 257.847 651.763 263.649 658.976 259.202 661.377 262.151 665.845 262.103 663.561 271.547 670.613 267.979 670.456 274.206 673.155 276.559 677.431 276.93 678.942 280.768 680.384 284.611 687.871 281.363 690.456 283.939 688.26 291.782 693.37 291.495 697.654 292.207 700.975 293.994 704.644 295.469 706.777 298.495 705.283 304.949 712.038 303.565 709.467 310.815 713.63 311.9 713.621 316.655 716.047 319.264 723.481 317.78 725.536 320.8 723.756 326.797 724.92 330.403 733.592 328.419 734.737 332.105 730.955 339.213 737.707 338.906 737.32 343.521 736.836 348.114 742.682 348.63 745.519 351.127 743.227 356.718 745.195 359.699 748.736 361.798 752.186 364.005 754.921 366.647 753.252 371.596 757.327 373.564 756.834 377.826 755.48 382.43 762.57 383.103 758.579 388.824 766.814 389.179 764.531 394.058 764.227 398.047 769.428 399.882 769.514 403.713 772.814 406.372 769.784 411.247 776.927 412.676 774.417 417.299 772.521 421.639 778.67 423.593 777.658 427.643 777.292 431.474 781.844 434.054 781.696 437.832 782.567 441.358 777.371 446.154 779.436 449.375 781.016 452.72 781.543 456.268 781.7 459.873 781.204 463.563 787.833 466.278 788.701 469.842 787.95 473.593 786.771 477.357 791.265 480.606 782.453 484.915 782.599 488.468 789.684 491.687 788.201 495.38 790.341 498.947 788.363 502.614 782.658 506.232" style="fill: #fff;"/>
    <polygon points="782.658 506.232 788.586 509.852 783.278 513.346 786.401 517.017 786.245 520.61 787.377 524.28 785.461 527.762 788.76 531.644 783.702 534.808 781.494 538.167 786.524 542.355 785.372 545.855 784.423 549.368 788.223 553.621 781.832 556.244 784.792 560.435 781.363 563.466 784.919 567.885 778.364 570.174 777.057 573.545 777.127 577.244 774.176 580.18 779.054 585.204 774.417 587.653 771.662 590.57 773.915 595.011 777.288 599.91 771.527 601.817 768.87 604.698 767.092 607.863 770.809 613.117 766.738 615.42 765.992 619.014 761.01 620.821 760.958 624.695 764.39 630.197 762.15 633.179 754.953 633.734 756.882 638.686 754.628 641.588 750.653 643.557 748.076 646.218 753.613 653.427 751.761 656.587 747.262 658.167 740.584 658.321 739.957 662.129 741.295 667.254 741.44 671.701 734.519 671.394 735.6 676.527 731.305 677.902 729.402 680.964 727.437 683.988 723.577 685.545 725.237 691.443 721.269 692.892 721.115 697.473 719.472 700.865 715.135 701.911 710.227 702.355 706 703.318 703.978 706.295 701.792 709.131 701.72 714.094 695.831 713.222 694.742 717.219 692.098 719.62 689.918 722.533 691.451 729.673 686.606 729.654 682.104 729.921 682.087 735.556 675.767 733.474 672.281 734.804 673.707 742.567 669.529 743.041 668.008 747.118 665.675 750.142 658.37 745.929 656.082 748.928 656.039 755.457 651.266 754.717 648.913 757.786 647.438 762.403 641.171 758.872 636.874 758.541 637.367 766.895 632.594 765.672 629.304 767.166 624.008 764.599 624.775 774.409 619.195 771.087 617.02 775.026 612.59 773.933 609.392 775.603 604.661 773.489 603.011 779.049 600.538 782.741 596.451 782.133 593.616 785.004 590.808 788.105 587.39 789.454 583.632 789.696 578.616 785.493 574.24 783.102 572.136 789.075 568.649 790.006 565.025 790.363 560.941 788.564 558.154 792.723 555.396 797.505 551.142 794.565 547.817 796.639 543.22 790.668 539.66 790.876 536.962 797.793 532.593 791.574 529.344 794.698 525.994 797.488 522.587 800.365 518.853 799.111 515.248 799.658 511.497 796.608 507.878 795.571 504.37 801.216 500.721 801.349 497.089 799.952 493.416 801.544 489.802 800.454 486.29 797.813 482.402 802.113 478.845 800.527 475.428 797.745 472.206 793.659 468.638 793.429 464.42 798.281 460.644 798.991 457.903 792.752 453.982 794.491 450.839 791.563 446.975 792.686 443.883 789.83 440.82 787.106 437.387 786.192 431.771 794.136 430.094 786.036 425.587 788.975 423.287 783.879 417.748 789.884 414.314 788.603 413.378 779.78 409.29 780.738 403.679 785.766 401.206 781.909 397.632 781.085 396.282 774.705 392.709 774.003 388.29 775.207 384.547 774.724 380.829 774.122 378.695 770.156 375.282 768.924 372.954 765.547 366.845 769.448 366.879 761.712 361.017 764.858 358.107 762.602 358.717 754.441 351.442 759.541 352.862 750.42 349.353 749.32 342.548 753.138 343.944 744.628 339.866 744.27 333.225 747.386 334.724 739.214 326.627 744.004 328.533 735.589 325.849 733.234 319.82 734.967 318.213 731.238 312.963 731.806 315.63 723.271 312.359 721.591 305.873 723.336 305.999 717.934 300.462 718.476 300.895 712.902 293.864 714.75 292.97 710.548 292.669 705.871 287.038 706.115 290.672 698.04 285.79 697.557 282.742 695.427 281.783 691.555 277.047 690.753 276.541 686.558 274.407 683.666 271.22 681.553 268.564 679.019 265.312 676.883 265.95 672.044 263.385 669.434 262.667 665.607 258.318 664.113 260.104 658.771 255.068 657.625 257.768 651.883 248.391 653.099 249.804 648.158 250.032 643.949 246.737 641.618 246.188 637.862 242.848 635.492 238.699 633.449 236.302 630.53 239.077 625.308 241.631 620.303 235.565 618.959 239.466 613.523 232.695 612.321 231.773 608.808 230.126 605.561 229.894 601.819 231.253 597.582 230.755 593.995 222.96 592.615 226.283 587.864 224.202 584.706 225.102 580.742 219.623 578.404 222.729 573.933 224.781 569.797 219.938 567.173 218.257 563.824 222.814 559.306 216.51 556.774 220.039 552.544 217.857 549.248 212.074 546.39 213.999 542.469 216.911 538.5 211.082 535.453 212.583 531.655 215 527.836 219 523.987 217.914 520.482 216.31 516.974 213.422 513.461 217.12 509.802 213.021 506.232 212.473 502.678 215.439 499.193 209.742 495.471 212.939 492.03 214.614 488.57 212.765 484.897 219.803 481.907 216.348 478.087 214.992 474.399 212.745 470.565 218.791 467.749 214.06 463.53 219.671 460.787 219.866 457.261 218.834 453.507 220.734 450.274 223.068 447.161 218.948 442.688 219.064 439.066 226.395 437.174 225.078 433.243 223.283 429.128 226.706 426.354 228.9 423.283 229.273 419.684 229.626 416.061 230.307 412.527 234.616 410.245 235.843 406.933 232.794 402.013 233.023 398.252 231.613 393.798 238.112 392.575 239.524 389.297 235.305 383.498 245.762 384.319 243.496 379.331 248.705 377.912 244.879 372.014 247.97 369.569 252 367.675 246.62 360.631 254.707 361.052 253.164 356.019 253.25 351.86 262.034 353.043 262.9 349.406 261.913 344.52 263.268 341.107 262.514 336.212 266.458 334.549 273.157 334.96 274.442 331.5 270.957 324.352 273.821 321.972 278.539 321.112 283.368 320.443 286.179 318.171 283.192 310.883 285.189 307.802 292.828 309.853 291.096 303.373 294.1 301.24 296.127 298.171 299.217 296.148 300.488 292.273 306.397 293.239 305.553 287.051 312.636 289.491 311.274 282.546 317.071 283.74 320.125 281.824 321.942 278.407 323.499 274.602 325.642 271.473 328.347 269.042 333.669 270.165 335.974 267.241 339.686 266.292 340.604 261.279 345.195 261.671 346.707 257.397 350.686 256.946 354.178 255.773 356.725 253.037 358.795 249.418 363.799 250.961 367.962 251.148 367.746 243.092 374.67 248.691 377.768 246.98 380.241 243.946 383.159 241.779 386.473 240.452 388.401 235.914 393.646 239.134 396.224 236.037 399.957 235.8 402.927 233.59 404.384 227.062 408.635 228.243 412.521 228.518 415.319 225.458 420.341 229.614 421.787 221.797 425.918 223.127 429.117 221.107 434.279 226.958 435.77 217.762 440.205 221.011 443.009 216.829 447.285 219.839 451.466 222.869 454.372 218.774 458.316 220.886 461.682 219.347 464.537 213.558 468.357 215.039 472.298 218.211 475.973 219.369 478.968 212.028 482.836 215.733 486.494 217.209 490.127 219.158 493.475 211.774 497.103 212.139 500.721 212.256 504.385 209.929 507.877 216.834 511.671 211.201 515.091 215.861 518.952 211.752 522.688 210.729 526.15 213.192 529.892 212.342 533.491 213.022 537.22 212.632 540.426 216.123 543.713 218.578 547.171 219.706 551.763 214.444 554.093 221.717 557.429 223.263 562.451 217.036 563.926 226.824 568.554 222.851 572.963 220.227 574.34 229.014 577.979 229.194 582.577 226.278 586.519 225.784 588.212 232.237 593.148 228.838 595.975 231.677 600.668 229.397 602.588 234.527 606.07 235.503 607.889 240.479 614.693 233.698 617.22 237.014 619.487 240.771 621.082 245.783 626.191 243.476 630.542 242.897 630.755 250.303 637.476 245.391 636.452 254.701 639.475 256.556 644.128 255.66 647.635 256.793 651.218 257.847 651.763 263.649 658.976 259.202 661.377 262.151 665.845 262.103 663.561 271.547 670.613 267.979 670.456 274.206 673.155 276.559 677.431 276.93 678.942 280.768 680.384 284.611 687.871 281.363 690.456 283.939 688.26 291.782 693.37 291.495 697.654 292.207 700.975 293.994 704.644 295.469 706.777 298.495 705.283 304.949 712.038 303.565 709.467 310.815 713.63 311.9 713.621 316.655 716.047 319.264 723.481 317.78 725.536 320.8 723.756 326.797 724.92 330.403 733.592 328.419 734.737 332.105 730.955 339.213 737.707 338.906 737.32 343.521 736.836 348.114 742.682 348.63 745.519 351.127 743.227 356.718 745.195 359.699 748.736 361.798 752.186 364.005 754.921 366.647 753.252 371.596 757.327 373.564 756.834 377.826 755.48 382.43 762.57 383.103 758.579 388.824 766.814 389.179 764.531 394.058 764.227 398.047 769.428 399.882 769.514 403.713 772.814 406.372 769.784 411.247 776.927 412.676 774.417 417.299 772.521 421.639 778.67 423.593 777.658 427.643 777.292 431.474 781.844 434.054 781.696 437.832 782.567 441.358 777.371 446.154 779.436 449.375 781.016 452.72 781.543 456.268 781.7 459.873 781.204 463.563 787.833 466.278 788.701 469.842 787.95 473.593 786.771 477.357 791.265 480.606 782.453 484.915 782.599 488.468 789.684 491.687 788.201 495.38 790.341 498.947 788.363 502.614 782.658 506.232" style="fill: none; stroke: #000; stroke-linecap: round; stroke-linejoin: round; stroke-width: 35px;"/>
  </g>
  <g>
    <polygon points="213.9 506.232 213.452 509.849 218.1 513.356 210.157 517.205 219.409 520.425 215.793 524.197 213.26 527.984 218.413 531.191 218.223 534.796 220.772 538.115 213.309 542.593 216.689 545.82 217.941 549.285 214.26 553.512 222.902 555.742 218.462 560.168 222.245 563.11 223.165 566.572 219.753 570.989 222.768 574.007 225.118 577.132 223.454 581.265 228.181 583.716 229.623 587.009 230.967 590.32 226.402 595.475 230.178 598.054 229.099 602.215 230.088 605.705 228.829 610.029 237.897 610.472 235.339 615.309 238.454 617.923 239.857 621.216 240.587 624.806 240.525 628.777 237.877 634.01 241.869 636.147 247.424 637.429 245.532 642.433 245.221 646.707 250.283 648.101 251.635 651.481 251.602 655.678 256.505 656.991 260.851 658.543 255.829 665.92 264.267 664.813 264.493 668.947 266.761 671.747 270.105 673.783 265.999 681.139 270.777 682.16 270.415 686.98 279.9 684.237 277.794 690.457 279.106 694.055 279.647 698.341 286.963 696.872 284.236 704.051 287.342 706.18 292.833 706.066 296.281 707.756 297.009 712.05 302.31 711.861 302.354 716.92 307.404 716.851 306.686 722.863 308.619 726.129 312.805 726.888 316.726 727.871 320.06 729.483 323.096 731.422 321.976 738.548 324.731 740.951 327.101 743.869 335.553 738.594 337.196 742.383 340.173 744.361 344.318 744.622 347.254 746.607 346.264 754.672 352.107 752.207 355.424 753.627 354.536 762.102 359.727 760.43 364.805 758.749 366.751 762.623 367.478 768.942 373.662 764.876 377.863 764.447 377.554 773.297 380.81 774.95 384.712 775.169 390.766 770.33 391.276 778.3 394.164 780.86 400.261 775.247 403.917 775.623 404.201 785.319 409.127 782.257 411.047 787.928 414.61 788.807 420.605 781.616 422.24 788.756 426.191 788.079 429.305 790.434 433.716 787.701 437.775 786.057 440.603 789.711 444.3 789.532 447.935 789.548 451.453 790.119 454.632 792.715 457.33 798.794 461.258 797.133 465.225 794.722 468.952 793.767 471.843 800.7 475.983 795.447 479.09 801.943 482.872 800.236 486.511 800.406 490.438 792.934 493.75 802.293 497.506 794.901 501.075 797.722 504.663 796.475 508.34 799.961 511.762 794.289 515.643 800.52 519.388 802.021 522.597 795.856 526.537 799.649 530.244 800.096 533.647 797.707 536.996 795.29 540.415 793.739 543.959 793.184 547.089 790.141 551.179 792.8 554.624 791.666 557.935 789.936 561.51 789.535 565.542 791.05 568.945 789.759 573.51 792.978 575.285 785.607 579.227 786.373 584.167 790.277 587.238 787.834 591.199 788.198 594.701 787.106 594.962 776.98 598.796 777.107 602.815 777.609 607.576 779.821 609.31 774.536 615.215 779.153 616.209 772.404 621.214 774.655 621.515 766.847 628.066 772.06 629.903 767.623 630.533 761.067 637.423 766.323 637.222 758.507 641.496 758.799 645.049 757.759 648.664 756.775 653.088 757.031 656.15 755.058 657.097 749.898 658.932 746.211 664.232 747.555 667.755 746.251 670.194 743.44 674.172 742.69 674.284 736.9 679.048 737.115 681.926 734.905 681.986 729.337 684.286 726.53 687.335 724.593 692.647 725.133 696.694 724.166 695.671 717.802 701.929 719.085 699.081 711.083 703.394 710.327 709.2 710.903 709.184 705.923 715.628 706.902 716.924 703.158 713.901 695.745 719.718 695.984 718.551 690.359 724.257 690.36 726.105 687.219 731.606 686.865 728.021 679.664 733.132 678.947 733.061 674.48 739.584 674.6 737.68 668.947 740.225 666.317 742.461 663.472 742.145 659.049 746.886 657.719 746.059 653.061 752.386 652.524 754.488 649.525 757.463 646.98 756.402 642.311 755.832 637.973 761.11 636.541 759.214 631.623 760.489 628.252 765.066 626.341 764.01 621.94 769.584 620.338 764.785 614.498 764.48 610.552 770.593 609.018 772.863 605.984 771.173 601.57 775.973 599.359 778.288 596.269 776.76 591.991 776.185 588.056 781.372 585.74 781.577 582.014 775.435 576.736 778.536 573.808 783.013 571.126 785.515 567.936 777.299 562.601 784.164 560.256 779.557 555.796 782.189 552.612 782.013 548.967 781.896 545.347 783.026 541.892 788.033 538.841 784.887 534.891 786.472 531.424 789.691 528.044 791.196 524.49 787.77 520.668 785.097 516.96 787.853 513.449 786.923 509.829 788.424 506.232 783.415 502.713 783.677 499.187 789.198 495.467 785.179 492.064 786.048 488.463 789.19 484.675 788.429 481.13 789.225 477.447 789.281 473.817 782.044 471.05 781.404 467.578 781.855 463.953 779.849 460.69 781.676 456.815 784.218 452.749 778.393 450.229 777.442 446.83 781.999 442.23 784.865 437.886 776.697 436.152 777.559 434.712 774.739 434.519 771.141 432.912 767.543 435.679 763.946 427.852 760.349 431.135 756.753 433.807 753.157 428.376 749.561 434.321 745.966 435.637 742.37 427.885 738.774 432.432 735.178 431.93 731.582 427.303 727.986 427.536 724.389 430.874 720.791 431.285 717.193 435.768 713.595 427.546 709.995 427.929 706.395 430.165 702.794 427.667 699.193 433.427 695.593 434.535 691.994 434.446 688.396 429.234 684.798 429.072 681.2 429.355 677.603 427.25 674.006 435.169 670.409 427.788 666.812 428.08 663.215 432.873 659.617 429.09 656.019 435.767 652.421 428.85 648.822 437.068 645.222 435.878 641.622 432.063 638.02 436.606 634.419 430.231 630.819 431.225 627.219 434.136 623.62 434.168 620.022 435.068 616.424 428.713 612.825 433.022 609.227 432.879 605.629 435.287 602.031 429.712 598.432 427.201 594.832 430.596 591.232 436.9 587.631 436.428 584.029 429.21 580.428 429.871 576.827 428.672 573.227 433.411 569.628 434.079 566.029 434.113 562.43 433.301 558.831 427.827 555.232 433.641 551.632 434.549 548.032 435.884 544.43 433.819 540.828 435.791 537.226 435.808 533.626 431.223 530.026 431.251 526.426 432.741 522.827 432.916 519.227 436.549 515.627 434.173 512.026 427.343 508.424 427.543 504.822 431.217 501.22 429.295 497.619 431.548 494.019 436.295 490.419 429.93 486.819 429.801 483.218 436.043 479.616 428.867 476.014 431.07 472.412 434.796 468.81 435.156 465.21 428.875 461.609 436.681 458.008 429.724 454.407 436.067 450.804 435.178 447.202 435.681 443.6 428.047 439.999 436.406 436.398 436.496 432.796 436.855 429.193 429.507 425.591 429.283 421.989 427.141 418.388 433.199 414.791 435.284 411.195 429.836 407.598 436.685 404.001 434.167 400.403 435.361 396.802 432.325 393.198 431.349 389.596 427.403 385.997 428.407 382.398 431.875 378.8 429.955 375.201 436.496 371.6 429.493 367.997 429.903 364.394 432.237 360.793 436.339 357.193 435.956 353.593 427.29 349.991 432.332 346.387 432.646 342.784 436.711 339.182 434.385 335.581 435.25 331.978 427.194 328.373 435.343 324.77 431.876 321.168 429.154 317.564 435.351 313.959 432.272 310.356 431.61 306.752 431.25 303.147 427.442 299.543 436.321 295.938 431.408 292.334 430.104 288.729 430.538 285.124 430.984 281.518 432.958 277.917 432.189 274.311 432.212 270.71 435.718 267.105 436.829 263.501 435.5 259.895 432.829 256.29 427.562 252.684 433.677 249.076 428.014 245.468 427.933 241.86 433.408 238.253 435.705 234.645 433.837 231.037 427.301 227.423 428.222 222.501 427.633 225.62 436.194 222.242 439.039 218.848 441.946 218.46 445.541 218.407 449.192 214.717 452.168 220.05 456.745 213.21 459.267 219.751 463.876 214.915 466.809 217.499 470.738 213.679 473.905 211.917 477.351 213.095 481.078 215.68 484.869 215.086 488.403 217.186 492.074 218.352 495.658 213.667 499.073 215.689 502.677 213.9 506.232"/>
    <polygon points="213.9 506.232 213.452 509.849 218.1 513.356 210.157 517.205 219.409 520.425 215.793 524.197 213.26 527.984 218.413 531.191 218.223 534.796 220.772 538.115 213.309 542.593 216.689 545.82 217.941 549.285 214.26 553.512 222.902 555.742 218.462 560.168 222.245 563.11 223.165 566.572 219.753 570.989 222.768 574.007 225.118 577.132 223.454 581.265 228.181 583.716 229.623 587.009 230.967 590.32 226.402 595.475 230.178 598.054 229.099 602.215 230.088 605.705 228.829 610.029 237.897 610.472 235.339 615.309 238.454 617.923 239.857 621.216 240.587 624.806 240.525 628.777 237.877 634.01 241.869 636.147 247.424 637.429 245.532 642.433 245.221 646.707 250.283 648.101 251.635 651.481 251.602 655.678 256.505 656.991 260.851 658.543 255.829 665.92 264.267 664.813 264.493 668.947 266.761 671.747 270.105 673.783 265.999 681.139 270.777 682.16 270.415 686.98 279.9 684.237 277.794 690.457 279.106 694.055 279.647 698.341 286.963 696.872 284.236 704.051 287.342 706.18 292.833 706.066 296.281 707.756 297.009 712.05 302.31 711.861 302.354 716.92 307.404 716.851 306.686 722.863 308.619 726.129 312.805 726.888 316.726 727.871 320.06 729.483 323.096 731.422 321.976 738.548 324.731 740.951 327.101 743.869 335.553 738.594 337.196 742.383 340.173 744.361 344.318 744.622 347.254 746.607 346.264 754.672 352.107 752.207 355.424 753.627 354.536 762.102 359.727 760.43 364.805 758.749 366.751 762.623 367.478 768.942 373.662 764.876 377.863 764.447 377.554 773.297 380.81 774.95 384.712 775.169 390.766 770.33 391.276 778.3 394.164 780.86 400.261 775.247 403.917 775.623 404.201 785.319 409.127 782.257 411.047 787.928 414.61 788.807 420.605 781.616 422.24 788.756 426.191 788.079 429.305 790.434 433.716 787.701 437.775 786.057 440.603 789.711 444.3 789.532 447.935 789.548 451.453 790.119 454.632 792.715 457.33 798.794 461.258 797.133 465.225 794.722 468.952 793.767 471.843 800.7 475.983 795.447 479.09 801.943 482.872 800.236 486.511 800.406 490.438 792.934 493.75 802.293 497.506 794.901 501.075 797.722 504.663 796.475 508.34 799.961 511.762 794.289 515.643 800.52 519.388 802.021 522.597 795.856 526.537 799.649 530.244 800.096 533.647 797.707 536.996 795.29 540.415 793.739 543.959 793.184 547.089 790.141 551.179 792.8 554.624 791.666 557.935 789.936 561.51 789.535 565.542 791.05 568.945 789.759 573.51 792.978 575.285 785.607 579.227 786.373 584.167 790.277 587.238 787.834 591.199 788.198 594.701 787.106 594.962 776.98 598.796 777.107 602.815 777.609 607.576 779.821 609.31 774.536 615.215 779.153 616.209 772.404 621.214 774.655 621.515 766.847 628.066 772.06 629.903 767.623 630.533 761.067 637.423 766.323 637.222 758.507 641.496 758.799 645.049 757.759 648.664 756.775 653.088 757.031 656.15 755.058 657.097 749.898 658.932 746.211 664.232 747.555 667.755 746.251 670.194 743.44 674.172 742.69 674.284 736.9 679.048 737.115 681.926 734.905 681.986 729.337 684.286 726.53 687.335 724.593 692.647 725.133 696.694 724.166 695.671 717.802 701.929 719.085 699.081 711.083 703.394 710.327 709.2 710.903 709.184 705.923 715.628 706.902 716.924 703.158 713.901 695.745 719.718 695.984 718.551 690.359 724.257 690.36 726.105 687.219 731.606 686.865 728.021 679.664 733.132 678.947 733.061 674.48 739.584 674.6 737.68 668.947 740.225 666.317 742.461 663.472 742.145 659.049 746.886 657.719 746.059 653.061 752.386 652.524 754.488 649.525 757.463 646.98 756.402 642.311 755.832 637.973 761.11 636.541 759.214 631.623 760.489 628.252 765.066 626.341 764.01 621.94 769.584 620.338 764.785 614.498 764.48 610.552 770.593 609.018 772.863 605.984 771.173 601.57 775.973 599.359 778.288 596.269 776.76 591.991 776.185 588.056 781.372 585.74 781.577 582.014 775.435 576.736 778.536 573.808 783.013 571.126 785.515 567.936 777.299 562.601 784.164 560.256 779.557 555.796 782.189 552.612 782.013 548.967 781.896 545.347 783.026 541.892 788.033 538.841 784.887 534.891 786.472 531.424 789.691 528.044 791.196 524.49 787.77 520.668 785.097 516.96 787.853 513.449 786.923 509.829 788.424 506.232 783.415 502.713 783.677 499.187 789.198 495.467 785.179 492.064 786.048 488.463 789.19 484.675 788.429 481.13 789.225 477.447 789.281 473.817 782.044 471.05 781.404 467.578 781.855 463.953 779.849 460.69 781.676 456.815 784.218 452.749 778.393 450.229 777.442 446.83 781.999 442.23 784.865 437.886 776.697 436.152 777.559 434.712 774.739 434.519 771.141 432.912 767.543 435.679 763.946 427.852 760.349 431.135 756.753 433.807 753.157 428.376 749.561 434.321 745.966 435.637 742.37 427.885 738.774 432.432 735.178 431.93 731.582 427.303 727.986 427.536 724.389 430.874 720.791 431.285 717.193 435.768 713.595 427.546 709.995 427.929 706.395 430.165 702.794 427.667 699.193 433.427 695.593 434.535 691.994 434.446 688.396 429.234 684.798 429.072 681.2 429.355 677.603 427.25 674.006 435.169 670.409 427.788 666.812 428.08 663.215 432.873 659.617 429.09 656.019 435.767 652.421 428.85 648.822 437.068 645.222 435.878 641.622 432.063 638.02 436.606 634.419 430.231 630.819 431.225 627.219 434.136 623.62 434.168 620.022 435.068 616.424 428.713 612.825 433.022 609.227 432.879 605.629 435.287 602.031 429.712 598.432 427.201 594.832 430.596 591.232 436.9 587.631 436.428 584.029 429.21 580.428 429.871 576.827 428.672 573.227 433.411 569.628 434.079 566.029 434.113 562.43 433.301 558.831 427.827 555.232 433.641 551.632 434.549 548.032 435.884 544.43 433.819 540.828 435.791 537.226 435.808 533.626 431.223 530.026 431.251 526.426 432.741 522.827 432.916 519.227 436.549 515.627 434.173 512.026 427.343 508.424 427.543 504.822 431.217 501.22 429.295 497.619 431.548 494.019 436.295 490.419 429.93 486.819 429.801 483.218 436.043 479.616 428.867 476.014 431.07 472.412 434.796 468.81 435.156 465.21 428.875 461.609 436.681 458.008 429.724 454.407 436.067 450.804 435.178 447.202 435.681 443.6 428.047 439.999 436.406 436.398 436.496 432.796 436.855 429.193 429.507 425.591 429.283 421.989 427.141 418.388 433.199 414.791 435.284 411.195 429.836 407.598 436.685 404.001 434.167 400.403 435.361 396.802 432.325 393.198 431.349 389.596 427.403 385.997 428.407 382.398 431.875 378.8 429.955 375.201 436.496 371.6 429.493 367.997 429.903 364.394 432.237 360.793 436.339 357.193 435.956 353.593 427.29 349.991 432.332 346.387 432.646 342.784 436.711 339.182 434.385 335.581 435.25 331.978 427.194 328.373 435.343 324.77 431.876 321.168 429.154 317.564 435.351 313.959 432.272 310.356 431.61 306.752 431.25 303.147 427.442 299.543 436.321 295.938 431.408 292.334 430.104 288.729 430.538 285.124 430.984 281.518 432.958 277.917 432.189 274.311 432.212 270.71 435.718 267.105 436.829 263.501 435.5 259.895 432.829 256.29 427.562 252.684 433.677 249.076 428.014 245.468 427.933 241.86 433.408 238.253 435.705 234.645 433.837 231.037 427.301 227.423 428.222 222.501 427.633 225.62 436.194 222.242 439.039 218.848 441.946 218.46 445.541 218.407 449.192 214.717 452.168 220.05 456.745 213.21 459.267 219.751 463.876 214.915 466.809 217.499 470.738 213.679 473.905 211.917 477.351 213.095 481.078 215.68 484.869 215.086 488.403 217.186 492.074 218.352 495.658 213.667 499.073 215.689 502.677 213.9 506.232" style="fill: none; stroke: #000; stroke-linecap: round; stroke-linejoin: round; stroke-width: 35px;"/>
  </g>
</svg>