<?xml version="1.0" encoding="UTF-8"?>
<svg id="Sticker" xmlns="http://www.w3.org/2000/svg" width="1000" height="1000" viewBox="0 0 1000 1000">
  <polygon points="697.161 158.508 693.293 154.07 689.684 156.156 686.075 157.61 682.466 157.301 678.856 162.342 675.246 161.741 671.635 154.041 668.023 155.865 664.409 156.351 660.797 160.884 657.186 158.213 653.575 158.86 649.965 160.299 646.355 157.829 642.746 156.697 639.136 154.181 635.526 162.548 631.915 157.935 628.303 157.96 624.691 156.136 621.078 159.592 617.465 162.385 613.854 159.938 610.243 157.943 606.632 157 603.022 162.915 599.411 159.74 595.8 156.272 592.189 163.896 588.576 161.87 584.962 154.544 581.35 155.646 577.738 162.532 574.127 157.915 570.516 157.746 566.905 155.527 563.293 159.529 559.681 162.688 556.067 159.422 552.454 157.883 548.842 160.333 545.23 158.738 541.619 155.174 538.007 158.06 534.394 163.461 530.781 154.035 527.168 162.416 523.555 156.765 519.943 156.091 516.331 163.377 512.719 158.162 509.105 155.972 505.492 157.568 501.879 162.006 498.267 157.384 494.659 156.578 491.052 162.376 487.445 161.74 483.836 155.991 480.227 160.593 476.615 159.145 473.001 154.941 469.388 157.515 465.777 155.706 462.168 157.268 458.559 156.626 454.949 157.529 451.337 155.022 447.723 157.659 444.109 160.031 440.497 154.902 436.886 159.787 433.275 159.249 429.663 155.952 426.048 163.923 422.433 157.915 418.821 157.76 415.209 161.164 411.595 156.362 407.979 156.129 404.365 158.328 400.752 156.232 397.137 157.548 393.522 158.525 389.908 158.537 386.293 158.034 382.677 155.501 379.062 159.377 375.446 163.425 371.831 157.3 368.214 157.202 364.599 162.993 360.982 159.026 357.366 156.486 353.75 161.043 350.138 158.427 346.522 156.007 342.908 158.288 339.291 159.548 335.675 161.882 332.058 159.969 328.44 160.12 324.821 161.394 321.202 154.585 317.585 159.969 313.967 154.854 310.347 156.816 306.723 158.972 304.528 161.441 304.922 164.176 296.464 163.459 299.443 169.347 294.849 170.863 292.949 173.934 293.815 178.602 292.49 182.008 288.707 183.995 282.972 184.855 285.719 190.612 286.964 195.501 284.761 198.398 282.334 201.165 281.117 204.631 277.292 206.591 275.503 209.726 275.989 214.176 272.884 216.552 270.939 219.6 266.197 221.033 265.409 224.75 264.68 228.501 258.162 228.907 257.43 232.655 254.208 234.963 256.082 240.214 257.943 245.458 254.249 247.495 249.985 249.203 250.075 253.427 243.352 253.718 246.951 259.967 243.744 262.286 238.895 263.657 238.958 267.863 234.22 269.297 236.43 274.743 232.291 276.525 228.906 278.743 233.575 285.611 230.536 288.027 223.476 288.121 228.91 295.429 219.967 294.436 221.77 299.648 217.572 301.397 221.436 307.801 214.615 308.034 212.621 311.047 209.103 313.183 212.037 319.046 205.095 319.21 204.86 323.246 207.339 328.847 201.354 329.559 205.382 336.05 201.521 337.986 196.131 339.04 192.256 340.97 197.49 348.16 192.644 349.533 187.53 350.755 191.082 356.977 185.462 357.902 190.052 364.721 186.693 366.949 183.982 369.552 181.306 372.178 181.486 376.455 175.306 377.061 177.157 382.301 171.717 383.33 173.225 388.37 173.524 392.715 169.431 394.526 162.37 394.624 165.644 400.685 158.629 400.806 163.321 407.688 158.097 408.849 152.861 409.998 151.484 413.376 152.226 417.979 149.668 420.677 146.748 423.165 145.124 426.401 146.721 431.5 147.476 436.11 143.327 437.89 143.178 441.979 142.814 445.945 133.574 444.783 135.735 450.199 129.789 450.938 129.877 455.165 128.275 458.413 126.367 461.488 126.048 465.478 127.661 470.588 121.496 471.204 121.209 475.217 120.035 478.718 116.34 480.765 117.096 485.377 110.915 485.987 112.08 490.84 108.756 493.102 109.584 497.769 108.476 500.003 109.171 502.449 106.084 508.399 113.745 508.143 113.259 512.592 112.508 517.193 114.023 520.488 119.914 521.256 117.522 526.808 118.141 530.623 128.04 529.079 122.962 536.18 129.53 536.557 133.047 538.695 129.232 545.067 136.703 544.921 131.484 552.103 137.041 553.063 134.97 558.428 139.584 559.934 138.086 564.97 144.247 565.586 149.463 566.745 150.689 570.208 153.079 572.998 148.926 579.565 156.672 579.261 152.382 585.907 158.038 586.811 162.773 588.248 162.421 592.622 164.088 595.833 159.649 602.567 165.269 603.493 166.781 606.79 169.69 609.28 170.112 613.206 174.128 615.058 177.492 617.287 177.128 621.67 181.659 623.225 179.602 628.584 180.251 632.38 181.972 635.556 182.994 639.137 184.242 642.588 185.17 646.225 192.271 646.297 192.025 650.61 195.818 652.585 196.008 656.642 199.059 659.05 196.826 664.511 198.529 667.7 204.185 668.603 206.531 671.416 204.385 676.821 209.938 677.781 209.978 681.923 214.876 683.263 211.092 689.616 215.026 691.515 217.139 694.469 217.89 698.208 225.265 698.119 223.29 703.428 229.206 704.18 229.538 708.157 224.942 714.981 231.623 715.297 228.456 721.299 237.087 720.487 233.236 726.88 235.074 729.989 243.719 729.17 242.192 734.226 247.203 735.507 241.31 743.08 245.449 744.862 252.874 744.749 254.472 748.002 249.044 755.309 251.471 758.08 257.958 758.509 255.558 764.07 258.9 766.314 260.508 769.56 263.31 772.118 266.155 774.65 268.246 777.619 267.035 782.493 274.302 782.473 269.393 789.48 275.178 790.309 277.644 793.057 277.816 797.134 282.847 798.402 277.874 805.449 279.407 808.739 281.462 811.731 285.134 813.787 285.773 817.596 288.19 820.38 290.042 823.49 296.735 823.801 294.183 829.454 297.549 831.691 302.981 832.736 299.319 839.038 300.985 844.693 306.707 837.278 310.316 839.508 313.925 844.525 317.534 845.869 321.144 843.159 324.754 843.7 328.365 841.545 331.977 841.592 335.591 838.651 339.203 841.709 342.814 839.859 346.425 839.03 350.035 842.387 353.645 845.967 357.254 836.685 360.864 839.201 364.474 837.745 368.085 837.934 371.697 842.186 375.309 845.024 378.922 841.741 382.535 838.31 386.146 840.349 389.757 842.61 393.368 839.064 396.978 837.146 400.589 839.212 404.2 842.303 407.811 838.43 411.424 837.293 415.038 845.148 418.65 840.403 422.262 843.45 425.873 839.631 429.484 840.864 433.095 837.507 436.707 845.198 440.319 843.513 443.933 841.834 447.546 844.413 451.158 838.665 454.77 840.862 458.381 840.821 461.993 841.518 465.606 840.287 469.219 837.351 472.832 845.204 476.445 842.648 480.057 838.733 483.669 839.121 487.281 836.781 490.895 839.264 494.508 836.146 498.121 838.455 501.733 838.741 505.341 845.97 508.948 842.02 512.555 836.861 516.164 839.491 519.773 843.274 523.385 836.894 526.999 838.989 530.612 838.022 534.223 838.527 537.832 838.072 541.441 845.829 545.051 840.515 548.663 840.986 552.277 844.528 555.891 840.622 559.503 842.855 563.114 841.932 566.725 843.204 570.337 845.926 573.952 838.76 577.567 845.794 581.179 843.885 584.791 845.27 588.405 838.189 592.021 843.191 595.635 844.83 599.248 837.832 602.863 845.749 606.478 841.861 610.092 836.356 613.707 839.589 617.323 843.753 620.938 836.384 624.554 844.556 628.169 839.366 631.786 839.645 635.401 842.668 639.018 842.344 642.634 843.22 646.25 842.461 649.862 838.097 653.478 840.009 657.092 845.61 660.709 838.023 664.325 843.322 667.942 842.472 671.56 840.774 675.179 837.555 678.798 836.596 682.415 845.427 686.033 842.768 689.653 839.395 693.277 836.61 695.16 838.018 695.708 836.188 698.316 833.526 705.536 833.528 704.077 828.518 710.038 827.791 709.842 823.508 711.058 820.041 708.09 814.157 711.535 811.974 718.964 812.092 713.059 804.512 718.465 803.465 719.247 799.747 721.478 796.867 725.852 795.224 722.928 789.368 730.638 789.65 731.676 786.08 729.01 780.371 732.374 778.142 738.169 777.315 733.66 770.541 735.334 767.338 737.202 764.246 743.868 763.925 746.027 761.003 746.296 756.989 747.142 753.308 753.285 752.684 748.546 745.777 756.003 745.909 756.243 741.877 760.416 740.116 760.608 736.057 761.127 732.186 764.784 730.128 765.547 726.398 768.125 723.715 764.694 717.562 769.135 715.954 768.416 711.368 771.386 708.912 774.491 706.534 773.35 701.706 778.573 700.549 780.378 697.419 783.937 695.302 785.488 692.026 785.37 687.793 787.639 684.936 788.187 681.083 791.817 679.007 790.083 673.834 796.315 673.263 797.33 669.682 801.831 668.114 799.259 662.464 803.503 660.748 804.12 656.938 801.309 651.146 803.918 648.482 808.006 646.668 806.776 641.786 810.278 639.638 816.832 639.254 811.758 632.156 818.194 631.704 822.497 630.017 819.334 624.018 823.472 622.234 823.638 618.158 823.354 613.824 828.5 612.625 833.809 611.519 834.724 607.872 835.949 604.406 832.144 598.038 839.818 598.297 837.166 592.593 837.169 588.418 845.799 589.228 844.699 584.42 849.502 583.019 848.696 578.378 847.833 573.706 849.997 570.781 855.479 569.77 854.111 564.807 855.472 561.416 861.567 560.76 862.083 556.882 864.431 554.065 863.252 549.216 865.755 546.489 871.813 545.81 869.82 540.487 872.076 537.613 875.137 535.206 873.975 530.356 878.591 528.846 877.554 524.069 878.934 520.686 886.049 520.614 885.091 515.886 889.942 514.508 884.098 506.953 890.135 506.258 889.729 501.835 898.319 500.006 895.955 494.591 887.533 495.286 888.471 490.578 884.474 488.717 884.246 484.681 884.612 480.301 884.391 476.258 883.675 472.501 873.772 474.046 874.371 469.529 871.732 466.883 868.752 464.435 866.086 461.805 866.326 457.498 866.662 453.136 864.506 450.212 864.266 446.182 858.821 445.156 860.282 440.143 855.288 438.855 858.953 432.567 855.624 430.318 853.162 427.569 849.554 425.482 846.878 422.858 843.867 420.428 842.61 416.984 843.918 412.06 842.562 408.672 838.038 407.112 833.86 405.352 832.566 401.928 831.026 398.646 830.696 394.667 829.498 391.189 830.434 386.479 830.101 382.5 823.864 381.931 824.914 377.151 822.096 374.607 819.529 371.917 816.353 369.581 816.089 365.563 812.638 363.385 809.476 361.039 808.484 357.439 812.889 350.724 805.89 350.594 805.599 346.597 803.318 343.747 803.509 339.468 799.646 337.526 796.047 335.432 796.564 330.964 793.162 328.761 796.464 322.689 794.729 319.524 786.341 320.201 784.75 316.954 789.793 309.874 780.358 311.15 786.164 303.624 781.232 302.3 775.958 301.175 773.52 298.414 777.167 292.141 772.776 290.507 769.09 288.465 770.029 283.749 764.781 282.606 762.36 279.832 765.558 273.816 764.068 270.506 763.242 266.811 758.291 265.495 756.293 262.475 752.693 260.382 751.969 256.628 752.708 252.029 750.888 248.904 747.328 246.786 747.594 242.46 744.343 240.162 738.572 239.319 744.379 231.793 741.23 229.436 738.132 227.049 731.917 226.464 732.643 221.868 731.347 218.441 727.875 216.27 731.694 209.893 724.256 210.018 723.137 206.492 724.5 201.528 724.139 197.565 722.258 194.474 716.804 193.449 714.864 190.39 713.551 186.973 715.521 181.657 711.657 179.709 708.94 177.097 702.36 176.721 700.698 173.501 705.072 166.796 699.681 165.727 699.497 161.705 697.161 158.508" style="fill: #fff;"/>
  <polygon points="697.161 158.508 693.293 154.07 689.684 156.156 686.075 157.61 682.466 157.301 678.856 162.342 675.246 161.741 671.635 154.041 668.023 155.865 664.409 156.351 660.797 160.884 657.186 158.213 653.575 158.86 649.965 160.299 646.355 157.829 642.746 156.697 639.136 154.181 635.526 162.548 631.915 157.935 628.303 157.96 624.691 156.136 621.078 159.592 617.465 162.385 613.854 159.938 610.243 157.943 606.632 157 603.022 162.915 599.411 159.74 595.8 156.272 592.189 163.896 588.576 161.87 584.962 154.544 581.35 155.646 577.738 162.532 574.127 157.915 570.516 157.746 566.905 155.527 563.293 159.529 559.681 162.688 556.067 159.422 552.454 157.883 548.842 160.333 545.23 158.738 541.619 155.174 538.007 158.06 534.394 163.461 530.781 154.035 527.168 162.416 523.555 156.765 519.943 156.091 516.331 163.377 512.719 158.162 509.105 155.972 505.492 157.568 501.879 162.006 498.267 157.384 494.659 156.578 491.052 162.376 487.445 161.74 483.836 155.991 480.227 160.593 476.615 159.145 473.001 154.941 469.388 157.515 465.777 155.706 462.168 157.268 458.559 156.626 454.949 157.529 451.337 155.022 447.723 157.659 444.109 160.031 440.497 154.902 436.886 159.787 433.275 159.249 429.663 155.952 426.048 163.923 422.433 157.915 418.821 157.76 415.209 161.164 411.595 156.362 407.979 156.129 404.365 158.328 400.752 156.232 397.137 157.548 393.522 158.525 389.908 158.537 386.293 158.034 382.677 155.501 379.062 159.377 375.446 163.425 371.831 157.3 368.214 157.202 364.599 162.993 360.982 159.026 357.366 156.486 353.75 161.043 350.138 158.427 346.522 156.007 342.908 158.288 339.291 159.548 335.675 161.882 332.058 159.969 328.44 160.12 324.821 161.394 321.202 154.585 317.585 159.969 313.967 154.854 310.347 156.816 306.723 158.972 304.528 161.441 304.922 164.176 296.464 163.459 299.443 169.347 294.849 170.863 292.949 173.934 293.815 178.602 292.49 182.008 288.707 183.995 282.972 184.855 285.719 190.612 286.964 195.501 284.761 198.398 282.334 201.165 281.117 204.631 277.292 206.591 275.503 209.726 275.989 214.176 272.884 216.552 270.939 219.6 266.197 221.033 265.409 224.75 264.68 228.501 258.162 228.907 257.43 232.655 254.208 234.963 256.082 240.214 257.943 245.458 254.249 247.495 249.985 249.203 250.075 253.427 243.352 253.718 246.951 259.967 243.744 262.286 238.895 263.657 238.958 267.863 234.22 269.297 236.43 274.743 232.291 276.525 228.906 278.743 233.575 285.611 230.536 288.027 223.476 288.121 228.91 295.429 219.967 294.436 221.77 299.648 217.572 301.397 221.436 307.801 214.615 308.034 212.621 311.047 209.103 313.183 212.037 319.046 205.095 319.21 204.86 323.246 207.339 328.847 201.354 329.559 205.382 336.05 201.521 337.986 196.131 339.04 192.256 340.97 197.49 348.16 192.644 349.533 187.53 350.755 191.082 356.977 185.462 357.902 190.052 364.721 186.693 366.949 183.982 369.552 181.306 372.178 181.486 376.455 175.306 377.061 177.157 382.301 171.717 383.33 173.225 388.37 173.524 392.715 169.431 394.526 162.37 394.624 165.644 400.685 158.629 400.806 163.321 407.688 158.097 408.849 152.861 409.998 151.484 413.376 152.226 417.979 149.668 420.677 146.748 423.165 145.124 426.401 146.721 431.5 147.476 436.11 143.327 437.89 143.178 441.979 142.814 445.945 133.574 444.783 135.735 450.199 129.789 450.938 129.877 455.165 128.275 458.413 126.367 461.488 126.048 465.478 127.661 470.588 121.496 471.204 121.209 475.217 120.035 478.718 116.34 480.765 117.096 485.377 110.915 485.987 112.08 490.84 108.756 493.102 109.584 497.769 108.476 500.003 109.171 502.449 106.084 508.399 113.745 508.143 113.259 512.592 112.508 517.193 114.023 520.488 119.914 521.256 117.522 526.808 118.141 530.623 128.04 529.079 122.962 536.18 129.53 536.557 133.047 538.695 129.232 545.067 136.703 544.921 131.484 552.103 137.041 553.063 134.97 558.428 139.584 559.934 138.086 564.97 144.247 565.586 149.463 566.745 150.689 570.208 153.079 572.998 148.926 579.565 156.672 579.261 152.382 585.907 158.038 586.811 162.773 588.248 162.421 592.622 164.088 595.833 159.649 602.567 165.269 603.493 166.781 606.79 169.69 609.28 170.112 613.206 174.128 615.058 177.492 617.287 177.128 621.67 181.659 623.225 179.602 628.584 180.251 632.38 181.972 635.556 182.994 639.137 184.242 642.588 185.17 646.225 192.271 646.297 192.025 650.61 195.818 652.585 196.008 656.642 199.059 659.05 196.826 664.511 198.529 667.7 204.185 668.603 206.531 671.416 204.385 676.821 209.938 677.781 209.978 681.923 214.876 683.263 211.092 689.616 215.026 691.515 217.139 694.469 217.89 698.208 225.265 698.119 223.29 703.428 229.206 704.18 229.538 708.157 224.942 714.981 231.623 715.297 228.456 721.299 237.087 720.487 233.236 726.88 235.074 729.989 243.719 729.17 242.192 734.226 247.203 735.507 241.31 743.08 245.449 744.862 252.874 744.749 254.472 748.002 249.044 755.309 251.471 758.08 257.958 758.509 255.558 764.07 258.9 766.314 260.508 769.56 263.31 772.118 266.155 774.65 268.246 777.619 267.035 782.493 274.302 782.473 269.393 789.48 275.178 790.309 277.644 793.057 277.816 797.134 282.847 798.402 277.874 805.449 279.407 808.739 281.462 811.731 285.134 813.787 285.773 817.596 288.19 820.38 290.042 823.49 296.735 823.801 294.183 829.454 297.549 831.691 302.981 832.736 299.319 839.038 300.985 844.693 306.707 837.278 310.316 839.508 313.925 844.525 317.534 845.869 321.144 843.159 324.754 843.7 328.365 841.545 331.977 841.592 335.591 838.651 339.203 841.709 342.814 839.859 346.425 839.03 350.035 842.387 353.645 845.967 357.254 836.685 360.864 839.201 364.474 837.745 368.085 837.934 371.697 842.186 375.309 845.024 378.922 841.741 382.535 838.31 386.146 840.349 389.757 842.61 393.368 839.064 396.978 837.146 400.589 839.212 404.2 842.303 407.811 838.43 411.424 837.293 415.038 845.148 418.65 840.403 422.262 843.45 425.873 839.631 429.484 840.864 433.095 837.507 436.707 845.198 440.319 843.513 443.933 841.834 447.546 844.413 451.158 838.665 454.77 840.862 458.381 840.821 461.993 841.518 465.606 840.287 469.219 837.351 472.832 845.204 476.445 842.648 480.057 838.733 483.669 839.121 487.281 836.781 490.895 839.264 494.508 836.146 498.121 838.455 501.733 838.741 505.341 845.97 508.948 842.02 512.555 836.861 516.164 839.491 519.773 843.274 523.385 836.894 526.999 838.989 530.612 838.022 534.223 838.527 537.832 838.072 541.441 845.829 545.051 840.515 548.663 840.986 552.277 844.528 555.891 840.622 559.503 842.855 563.114 841.932 566.725 843.204 570.337 845.926 573.952 838.76 577.567 845.794 581.179 843.885 584.791 845.27 588.405 838.189 592.021 843.191 595.635 844.83 599.248 837.832 602.863 845.749 606.478 841.861 610.092 836.356 613.707 839.589 617.323 843.753 620.938 836.384 624.554 844.556 628.169 839.366 631.786 839.645 635.401 842.668 639.018 842.344 642.634 843.22 646.25 842.461 649.862 838.097 653.478 840.009 657.092 845.61 660.709 838.023 664.325 843.322 667.942 842.472 671.56 840.774 675.179 837.555 678.798 836.596 682.415 845.427 686.033 842.768 689.653 839.395 693.277 836.61 695.16 838.018 695.708 836.188 698.316 833.526 705.536 833.528 704.077 828.518 710.038 827.791 709.842 823.508 711.058 820.041 708.09 814.157 711.535 811.974 718.964 812.092 713.059 804.512 718.465 803.465 719.247 799.747 721.478 796.867 725.852 795.224 722.928 789.368 730.638 789.65 731.676 786.08 729.01 780.371 732.374 778.142 738.169 777.315 733.66 770.541 735.334 767.338 737.202 764.246 743.868 763.925 746.027 761.003 746.296 756.989 747.142 753.308 753.285 752.684 748.546 745.777 756.003 745.909 756.243 741.877 760.416 740.116 760.608 736.057 761.127 732.186 764.784 730.128 765.547 726.398 768.125 723.715 764.694 717.562 769.135 715.954 768.416 711.368 771.386 708.912 774.491 706.534 773.35 701.706 778.573 700.549 780.378 697.419 783.937 695.302 785.488 692.026 785.37 687.793 787.639 684.936 788.187 681.083 791.817 679.007 790.083 673.834 796.315 673.263 797.33 669.682 801.831 668.114 799.259 662.464 803.503 660.748 804.12 656.938 801.309 651.146 803.918 648.482 808.006 646.668 806.776 641.786 810.278 639.638 816.832 639.254 811.758 632.156 818.194 631.704 822.497 630.017 819.334 624.018 823.472 622.234 823.638 618.158 823.354 613.824 828.5 612.625 833.809 611.519 834.724 607.872 835.949 604.406 832.144 598.038 839.818 598.297 837.166 592.593 837.169 588.418 845.799 589.228 844.699 584.42 849.502 583.019 848.696 578.378 847.833 573.706 849.997 570.781 855.479 569.77 854.111 564.807 855.472 561.416 861.567 560.76 862.083 556.882 864.431 554.065 863.252 549.216 865.755 546.489 871.813 545.81 869.82 540.487 872.076 537.613 875.137 535.206 873.975 530.356 878.591 528.846 877.554 524.069 878.934 520.686 886.049 520.614 885.091 515.886 889.942 514.508 884.098 506.953 890.135 506.258 889.729 501.835 898.319 500.006 895.955 494.591 887.533 495.286 888.471 490.578 884.474 488.717 884.246 484.681 884.612 480.301 884.391 476.258 883.675 472.501 873.772 474.046 874.371 469.529 871.732 466.883 868.752 464.435 866.086 461.805 866.326 457.498 866.662 453.136 864.506 450.212 864.266 446.182 858.821 445.156 860.282 440.143 855.288 438.855 858.953 432.567 855.624 430.318 853.162 427.569 849.554 425.482 846.878 422.858 843.867 420.428 842.61 416.984 843.918 412.06 842.562 408.672 838.038 407.112 833.86 405.352 832.566 401.928 831.026 398.646 830.696 394.667 829.498 391.189 830.434 386.479 830.101 382.5 823.864 381.931 824.914 377.151 822.096 374.607 819.529 371.917 816.353 369.581 816.089 365.563 812.638 363.385 809.476 361.039 808.484 357.439 812.889 350.724 805.89 350.594 805.599 346.597 803.318 343.747 803.509 339.468 799.646 337.526 796.047 335.432 796.564 330.964 793.162 328.761 796.464 322.689 794.729 319.524 786.341 320.201 784.75 316.954 789.793 309.874 780.358 311.15 786.164 303.624 781.232 302.3 775.958 301.175 773.52 298.414 777.167 292.141 772.776 290.507 769.09 288.465 770.029 283.749 764.781 282.606 762.36 279.832 765.558 273.816 764.068 270.506 763.242 266.811 758.291 265.495 756.293 262.475 752.693 260.382 751.969 256.628 752.708 252.029 750.888 248.904 747.328 246.786 747.594 242.46 744.343 240.162 738.572 239.319 744.379 231.793 741.23 229.436 738.132 227.049 731.917 226.464 732.643 221.868 731.347 218.441 727.875 216.27 731.694 209.893 724.256 210.018 723.137 206.492 724.5 201.528 724.139 197.565 722.258 194.474 716.804 193.449 714.864 190.39 713.551 186.973 715.521 181.657 711.657 179.709 708.94 177.097 702.36 176.721 700.698 173.501 705.072 166.796 699.681 165.727 699.497 161.705 697.161 158.508" style="fill: none; stroke: #000; stroke-linecap: round; stroke-linejoin: round; stroke-width: 35px;"/>
</svg>