<?xml version="1.0" encoding="UTF-8"?>
<svg id="Sticker" xmlns="http://www.w3.org/2000/svg" width="1000" height="1000" viewBox="0 0 1000 1000">
  <polyline points="232.06 794.594 230.895 791.006 224.536 787.418 227.536 783.83 232.449 780.24 224.981 776.65 230.373 773.06 225.706 769.468 225.357 765.876 225.993 762.284 225.045 758.692 225.74 755.101 224.767 751.511 226.52 747.922 228.481 744.333 230.778 740.744 229.592 737.156 229.181 733.568 226.923 729.98 225.837 726.393 227.021 722.805 226.166 719.217 225.355 715.629 223.365 712.041 224.584 708.453 230.39 704.864 226.636 701.275 228.984 697.685 225.64 694.094 229.201 690.503 229.512 686.911 225.906 683.318 227.968 679.725 226.603 676.134 222.709 672.542 231.427 668.952 230.155 665.362 224.891 661.773 227.286 658.183 223.955 654.594 225.461 651.005 231.668 647.416 224.436 643.827 223.998 640.238 227.85 636.648 223.171 633.058 230.923 629.467 227.557 625.875 229.887 622.283 229.84 618.69 229.344 615.096 225.356 611.504 227.161 607.913 225.073 604.322 225.408 600.731 226.355 597.141 228.955 593.551 223.098 589.961 229.402 586.371 228.974 582.78 229.822 579.19 226.908 575.598 224.056 572.006 228.466 568.413 231.776 564.819 232.191 561.226 225.979 557.633 223.889 554.042 231.766 550.451 228.191 546.86 222.849 543.269 223.094 539.678 224.141 536.087 231.446 532.495 223.563 528.903 229.189 525.309 222.773 521.715 223.326 518.122 223.517 514.529 226.897 510.937 232.543 507.345 227.325 503.754 232.213 500.162 232.257 496.57 224.867 492.978 227.032 489.384 225.377 485.789 224.105 482.196 226.95 478.603 230.725 475.011 228.776 471.419 230.763 467.827 229.465 464.234 223.523 460.641 225.92 457.046 230.388 453.452 232.328 449.859 223.035 446.266 226.845 442.674 228.406 439.081 223.276 435.487 229.44 431.893 230.145 428.298 230.473 424.705 228.916 421.112 225.942 417.519 225.47 413.925 224.405 410.331 222.95 406.736 230.529 403.143 228.644 399.549 229.508 395.961 231.25 392.373 224.983 388.784 226.621 385.195 226.745 381.604 228.476 378.012 232.07 374.416 224.442 370.822 228.184 367.231 225.931 363.64 226.852 360.05 231.398 356.459 229.164 352.867 225.327 349.272 223.058 345.676 228.578 342.083 231.601 338.491 228.157 334.899 230.452 331.306 224.989 327.71 231.899 324.115 225.365 320.521 224.133 316.928 224.444 313.333 231.88 309.736 226.991 306.141 231.705 302.547 230.388 298.952 226.177 295.355 226.485 291.76 229.258 288.164 230.872 284.567 224.538 280.971 229.383 277.374 232.098 273.778 230.846 270.181 232.458 266.584 231.013 262.986 231.151 259.393 223.965 255.796 228.601 252.203 222.947 248.606 230.997 245.01 231.092 241.412 232.425 237.815 222.857 234.217 230.461 230.617 227.69 227.017 230.47 223.417 227.485 219.818 231.696 216.219 227.287 212.618 224.727 209.012 224.647 202.403 231.256 206.457 234.862 200.96 238.468 209.296 242.074 203.011 245.682 208.977 249.291 203.492 252.899 202.229 256.506 203.922 260.113 202.686 263.719 204.71 267.325 207.327 270.93 207.76 274.535 201.647 278.139 208.11 281.743 204.23 285.347 207.945 288.951 203.932 292.554 205.256 296.158 201.553 299.762 202.487 303.366 206.373 306.971 206.627 310.576 209.989 314.181 209.942 317.787 209.374 321.394 208.86 325.001 201.555 328.609 205.972 332.218 207.711 335.827 205.551 339.435 208.442 343.042 205.201 346.649 208.275 350.255 203.829 353.86 209.876 357.466 208.048 361.071 200.674 364.676 203.879 368.281 200.456 371.886 207.231 375.492 201.659 379.097 203.593 382.704 208.389 386.311 203.626 389.918 209.282 393.527 205.557 397.136 207.066 400.746 206.164 404.354 207.742 407.962 208.542 411.569 208.415 415.175 205.467 418.782 208.863 422.388 200.695 425.994 201.47 429.6 205.895 433.206 201.11 436.813 206.617 440.421 204.589 444.029 205.705 447.638 202.118 451.249 205.521 454.858 204.768 458.466 209.992 462.074 205.648 465.681 202.64 469.288 202.475 472.895 206.123 476.502 208.916 480.109 201.098 483.717 205.457 487.326 206.332 490.935 201.224 494.546 206.405 498.155 209.939 501.764 207.172 505.372 209.852 508.98 200.783 512.587 202.674 516.195 200.51 519.803 204.115 523.412 209.508 527.022 202.261 530.632 205.75 534.242 203.554 537.851 206.437 541.459 203.185 545.067 207.981 548.676 201.186 552.284 200.939 555.894 201.004 559.504 201.721 563.115 207.736 566.724 203.386 570.333 202.13 573.941 204.962 577.55 207.823 581.16 201.414 584.77 206.632 588.381 203.19 591.99 204 595.599 204.132 599.209 207.512 602.818 208.077 606.429 209.611 610.04 206.464 613.649 204.875 617.259 200.526 620.863 206.394 624.468 200.817 628.072 208.444 631.677 202.759 635.284 207.763 638.893 208.267 642.505 206.849 646.114 209.137 649.722 203.716 653.329 206.43 656.935 207.135 660.542 210.396 664.151 208.3 667.762 206.237 671.373 202.919 674.982 200.991 678.59 205.569 682.199 204.768 685.808 204.638 689.42 204.23 693.031 204.982 696.641 206.359 700.25 210.323 703.861 204.892 707.475 202.165 711.085 209.15 714.696 210.34 718.307 204.007 721.92 205.987 725.531 209.275 729.143 204.532 732.756 205.501 736.368 207.879 739.982 209.876 743.594 205.202 747.207 209.373 750.82 204.338 754.434 207.121 758.047 204.372 761.66 201.112 765.269 208.554 768.882 200.437 772.493 208.755 776.108 202.024 779.72 202.089 783.334 209.11 786.95 200.887 790.566 210.172 794.182 202.558 797.797 202.478 801.412 209.839 805.028 206.603 808.65 208.247 812.272 205.871" style="fill: none; stroke: #000; stroke-linecap: round; stroke-linejoin: round; stroke-width: 35px;"/>
</svg>