<?xml version="1.0" encoding="UTF-8"?>
<svg id="Stickers" xmlns="http://www.w3.org/2000/svg" width="1000" height="1000" viewBox="0 0 1000 1000">
  <polyline points="175.958 804.746 180.082 801.469 172.904 797.275 179.18 794.253 180.462 790.799 175.47 786.622 176.259 783.079 179.977 779.93 175.409 775.671 183.38 773.181 179.591 768.988 178.926 765.237 175.854 761.071 182.213 758.484 180.442 754.517 180.793 750.912 180.341 747.149 187.446 744.856 185.352 740.78 183.585 736.738 187.404 733.86 191.378 731.051 184.218 725.776 191.878 723.824 184.872 718.49 193.784 716.913 195.525 713.655 195.711 710.013 193.577 705.766 189.712 701.028 197.421 699.353 195.443 695.092 198.25 692.139 192.489 686.759 194.571 683.588 201.116 681.754 202.926 678.549 199.46 673.729 206.513 672.155 199.737 666.236 204.708 664.043 206.982 661.002 205.107 656.58 212.371 655.246 205.888 649.207 211.035 647.186 211.65 643.584 213.419 640.396 214.348 636.903 212.488 632.357 215.154 629.504 214.598 625.416 217.357 622.612 221.798 620.498 218.16 615.143 220.464 612.174 221.123 608.529 226.021 606.672 225.124 602.365 224.753 598.259 227.465 595.495 234.188 594.545 231.928 589.575 238.313 588.544 240.416 585.573 242.339 582.525 239.99 577.429 245.09 575.91 241.274 570.037 243.789 567.259 249.558 566.141 244.237 559.385 248.316 557.425 254.869 556.801 256.482 553.606 255.455 548.984 256.125 545.252 253.929 539.917 261.796 540.178 257.082 533.369 261.647 531.812 264.876 529.515 263.756 524.671 266.301 521.974 270.548 520.318 270.292 515.938 277.031 515.866 271.749 508.317 275.509 506.405 279.82 504.877 281.001 501.347 279.683 496.156 286.882 496.597 286.715 492.145 286.449 487.591 292.286 487.22 294.621 484.461 294.279 479.809 294.272 475.356 303.296 477.42 300.258 470.747 304.598 469.465 309.758 468.837 311.164 465.408 307.275 457.891 312.691 457.508 317.056 456.356 314.203 449.491 323.664 452.458 324.781 448.756 327.253 446.149 329.829 443.634 328.271 437.632 328.992 433.503 336.496 435.203 334.73 428.9 335.732 424.963 339.873 423.806 339.666 418.749 344.813 418.539 347.538 416.143 353.333 416.629 353.313 411.677 353.898 407.249 357.742 405.941 363.346 406.388 361.556 399.568 364.139 397.039 369.946 397.783 368.904 391.569 374.116 391.768 375.927 388.453 377.934 385.329 382.351 384.781 383.696 380.935 385.051 377.067 388.154 375.112 391.952 373.95 394.158 371.003 397.432 369.274 401.259 368.205 399.656 360.765 405.784 362.43 408.608 360.2 409.299 355.368 414.017 355.449 418.525 355.323 420.776 352.394 420.64 346.394 426.942 348.636 426.474 342.12 431.625 342.945 434.329 340.56 436.957 338.066 438.205 333.671 439.504 329.294 445.256 331.116 449.475 330.852 449.692 324.876 451.736 321.466 456.622 322.207 457.995 317.782 465.697 322.838 466.203 317.087 467.13 311.893 472.399 313.406 474.58 310.119 480.903 313.429 479.492 304.338 484.903 306.255 487.87 304.208 488.309 297.91 491.885 296.837 495.54 295.921 500.764 297.758 503.382 295.09 504.805 290.263 510.895 293.799 514.62 293.139 515.736 287.668 517.841 283.957 524.068 288.03 524.396 280.896 527.348 278.736 531.581 279.091 534.581 277.033 539.713 279.277 539.465 270.593 546.207 276.238 548.564 272.847 550.344 268.178 552.544 264.331 556.979 265.314 559.606 262.354 563.526 262.259 566.907 260.975 568.892 256.477 572.99 256.833 576.975 256.969 580.916 257.043 582.442 251.281 585.723 249.729 589.408 249.179 593.706 250.205 596.285 246.881 601.199 249.599 603.058 244.357 608.384 248.29 611.253 245.694 613.632 241.708 618.832 245.527 621.149 241.317 623.159 236.137 628.29 239.947 629.914 233.517 633.185 231.882 638.583 236.715 641.201 233.122 643.892 229.685 647.266 228.351 650.88 227.79 654.243 226.414 657.579 224.942 662.875 230.099 664.969 224.423 669.678 227.747 672.893 225.897 675.31 221.138 678.491 219.055 682.515 220.081 686.313 220.316 690.757 223.081 693.808 220.504 696.396 216.021 701.166 220.269 702.862 212.001 706.334 210.934 711.41 216.744 713.729 210.788 717.164 209.592 721.438 212.162 724.431 208.966 728.903 212.601 731.61 207.984 736.286 212.787 738.518 205.691 742.597 207.673 746.904 210.929 749.763 206.738 752.838 203.555 756.909 205.717 760.309 204.249 763.474 201.398 768.179 207.421 770.426 199.145 774.933 204.257 778.356 202.884 782.294 204.743 784.887 197.958 789.562 204.731 792.689 201.298 796.481 202.357 799.548 198.342 803.594 201.314 806.27 194.144 810.346 197.409 814.178 198.975 817.014 192.509 820.63 192.235 824.655 195.389" style="fill: none; stroke: #000; stroke-linecap: round; stroke-linejoin: round; stroke-width: 40px;"/>
</svg>