<?xml version="1.0" encoding="UTF-8"?>
<svg id="Sticker" xmlns="http://www.w3.org/2000/svg" width="1000" height="1000" viewBox="0 0 1000 1000">
  <polyline points="174.713 595.006 178.318 595.057 182.116 593.121 185.971 590.793 189.1 595.625 192.62 596.523 196.271 596.217 200.194 593.594 202.945 600.99 207.605 592.446 210.421 598.974 213.918 599.935 218.053 596.121 221.296 598.994 225.062 598.054 228.809 597.328 231.65 602.703 235.559 600.889 238.704 604.031 243.469 597.035 246.694 599.692 250.271 600.179 252.693 607.32 256.801 604.675 260.073 606.779 263.127 609.99 266.62 610.774 270.564 609.234 274.34 608.628 278.762 604.885 280.916 612.317 285.419 608.319 289.533 606.316 292.312 610.527 295.244 613.92 298.987 613.645 302.9 612.678 305.149 618.833 308.642 619.614 313.161 616.202 315.524 621.602 319.673 619.791 323.32 620.026 326.528 621.953 329.638 624.218 333.834 622.426 337.167 623.857 342.041 619.773 345.073 622.319 348.72 622.694 351.337 626.59 353.861 630.705 359.536 624.339 362.784 626.077 363.753 635.076 367.805 634.139 371.738 633.633 375.522 633.624 377.52 639.018 382.816 634.518 386.85 633.864 388.235 640.873 393.342 637.176 394.325 645.125 400.999 637.237 401.836 645.428 404.747 647.88 410.752 642.162 412.477 647.74 417.418 644.979 419.102 650.538 424.354 647.121 425.395 654.138 430.922 650.183 433.681 652.952 435.497 657.888 440.306 655.82 443.536 657.438 446.235 660.239 448.785 663.322 452.135 664.626 457.357 661.94 459.437 665.99 462.656 667.604 465.411 670.16 467.757 673.5 470.784 675.455 473.853 677.306 477.63 677.805 481.623 677.945 486.591 676.358 486.816 683.389 489.219 686.376 491.717 689.121 498.17 685.302 500.496 689.578 502.096 684.468 505.938 684.143 511.44 687.476 514.759 686.065 517.392 683.132 519.863 679.821 523.698 679.553 524.951 673.448 531.751 679.935 534.457 677.122 537.664 675.449 540.907 673.854 541.316 665.623 544.652 664.198 547.978 662.749 552.878 665.054 556.049 663.253 558.912 660.706 563.919 663.352 564.573 655.404 571.281 662.276 572.281 655.109 576.274 655.332 580.411 655.938 582.153 650.514 585.727 649.696 590.225 651.259 594.618 652.589 596.843 648.317 600.93 648.884 604.93 649.248 606.303 642.648 609.768 641.573 613.684 641.723 616.343 638.468 619.667 637.006 624.971 641.031 626.95 635.85 630.261 634.355 634.407 635.247 638.136 634.98 642.464 636.463 643.433 628.153 648.864 632.912 650.49 626.402 654.373 626.605 656.498 621.455 660.588 622.292 664.757 623.423 667.861 621.229 671.745 621.512 674.621 618.55 677.293 614.858 681.474 616.141 685.613 617.348 688.535 614.426 692.918 616.562 696.837 617.148 698.733 610.457 702.181 609.285 706.635 611.888 709.309 607.801 712.898 607.166 716.543 606.767 720.023 605.709 723.652 605.268 727.911 607.565 730.55 602.839 734.811 605.3 738.046 603.118 741.681 602.794 745.131 601.558 749.231 603.688 752.1 599.298 755.55 597.912 760.22 603.832 763.214 599.765 766.136 594.789 769.746 594.188 773.709 596.327 777.414 596.712 781.152 597.568 784.649 596.15 788.1 593.834 791.674 592.546 795.372 593.006 799.167 596.472 802.747 595.197 806.357 592.314 809.984 595.985 813.609 595.456 817.306 594.114" style="fill: none; stroke: #000; stroke-linecap: round; stroke-linejoin: round; stroke-width: 40px;"/>
  <polyline points="509.634 681.741 502.449 678.103 503.367 674.517 504.625 670.932 509.041 667.367 508.628 663.77 505.842 660.157 508.997 656.582 503.078 652.95 511.089 649.408 503.924 645.769 504.234 642.178 504.258 638.586 510.313 635.033 505.639 631.411 502.623 627.799 503.529 624.213 509.156 620.656 503.051 617.023 508.556 613.465 503.814 609.839 509.739 606.281 511.219 602.696 511.187 599.101 503.069 595.455 507.119 591.888 505.9 588.287 508.715 584.713 504.037 581.09 503.161 577.491 504.653 573.907 505.222 570.316 502.889 566.706 509.076 563.149 511.062 559.566 506.011 555.939 503.941 552.332 510.047 548.778 506.743 545.163 512.374 541.606 512.628 538.013 510.369 534.404 510.836 530.811 511.731 527.221 503.933 523.575 512.577 520.036 511.666 516.436 504.081 512.793 508.453 509.227 508.951 505.635 510.255 502.048 510.698 498.455 513.279 494.875 508.881 491.252 510.379 487.667 506.007 484.044 509.903 480.474 510.5 476.883 504.857 473.25 508.582 469.678 506.31 466.067 510.032 462.496 512.76 458.919 512.213 455.32 505.468 451.68 507.294 448.095 507.213 444.499 512.949 440.941 507.385 437.314 510.789 433.746 508.511 430.141 513.095 426.579 506.93 422.947 510.822 419.377 512.195 415.788 508.068 412.166 504.604 408.55 504.087 404.954 506.807 401.38 507.061 397.788 512.445 394.229 508.151 390.604 511.002 387.025 513.465 383.446 512.264 379.844 509.282 376.231 504.692 372.606 505.958 369.016 508.382 365.435 512.049 361.863 513.934 358.28 506.23 354.633 512.077 351.072 514.142 347.488 514.227 343.893 514.255 340.295 509.907 336.669 504.844 333.039 511.916 329.487 507.068 325.856 513.122 322.298 510.588 318.682 508.391 315.07 511.971 311.494 510.319 307.884 506.048 304.257 506.768 300.667 510.108 297.089 510.564 293.497 514.188 289.921 505.729 286.269 511.356 282.705 509.137 279.092 513.72 275.521 510.231 271.897 506.454 268.27 513.111 264.711 507.397 261.074 513.747 257.513 507.32 253.869 508.936 250.272 509.587 246.668" style="fill: none; stroke: #000; stroke-linecap: round; stroke-linejoin: round; stroke-width: 40px;"/>
</svg>