<?xml version="1.0" encoding="UTF-8"?>
<svg id="Sticker" xmlns="http://www.w3.org/2000/svg" width="1000" height="1000" viewBox="0 0 1000 1000">
  <polygon points="158.865 646.548 158.439 650.346 159.428 653.988 159.787 657.581 160.904 661.233 157.344 664.504 157.719 668.097 155.932 671.512 158.492 675.285 153.877 678.469 157.29 682.308 151.778 685.418 160.202 689.668 156.287 692.91 153.804 696.267 155.345 699.958 153.846 703.397 155.497 707.096 158.06 710.872 158.715 714.491 153.774 717.647 149.164 720.834 153.934 724.791 148.009 727.871 153.569 731.9 152.806 735.064 156.096 735.226 159.368 737.008 162.282 740.37 165.637 741.77 170.697 735.694 173.186 740.903 176.938 740.577 180.013 743.218 184.562 739.396 187.156 744.158 190.006 747.801 194.434 744.519 198.152 744.356 200.466 750.338 205.245 745.512 207.82 750.373 211.69 749.548 216.379 745.147 219.72 748.407 220.343 753.972 226.829 753.048 227.851 756.914 228.316 761.384 227.76 766.944 230.958 768.926 234.561 770.461 239.089 770.986 239.112 776.204 244.535 775.685 247.57 777.682 248.322 782.248 254.842 780.24 255.571 784.882 257.37 788.335 261.469 789.005 260.038 796.564 265.231 795.842 269.136 796.681 273.6 796.713 273.144 803.398 279.142 801.239 279.12 807.52 282.316 809.276 286.242 809.922 288.559 812.977 290.703 816.358 296.398 814.082 299.807 815.376 299.476 822.983 303.743 822.89 308.256 822.255 310.176 826.248 312.781 829.077 316.319 830.158 319.894 831.132 323.343 832.327 325.185 836.91 328.485 838.493 333.669 835.817 337.42 836.213 341.859 834.872 343.103 841.359 346.472 842.691 352.01 838.153 352.048 848.65 356.862 845.906 359.036 850.917 364.338 846.245 367.312 848.851 370.057 852.426 375.675 845.572 377.316 853.497 381.748 850.617 385.695 849.424 387.497 858.117 391.327 857.668 395.542 854.923 399.22 854.796 403.285 852.027 406.482 854.797 409.323 860.903 413.073 860.32 417.387 853.641 420.864 854.769 424.171 858.214 427.526 861.793 431.103 862.727 435.097 855.931 438.686 855.566 442.01 862.744 445.777 857.181 449.343 857.966 452.93 857.317 456.51 858.084 460.068 856.174 463.746 860.888 467.186 855.688 471.03 862.117 474.329 855.853 478.186 860.334 481.828 860.592 485.311 858.831 488.714 856.529 492.161 855.038 495.677 854.359 499.726 857.978 503.169 856.504 506.931 857.35 509.942 853.238 513.948 855.501 517.015 852.169 520.858 853.235 524.55 853.36 527.865 851.612 530.92 848.807 535.271 851.712 539.301 852.968 541.023 845.093 546.585 852.054 550.06 850.946 553.097 848.353 556.36 846.621 559.862 845.698 562.249 841.372 567.263 844.973 570.068 841.994 573.865 841.846 576.906 839.631 578.231 833.083 582.479 834.107 586.37 834.13 588.875 830.838 594.356 834.393 594.738 826.449 598.985 827.126 601.734 824.57 608.019 829.222 607.388 819.921 612.465 821.969 613.994 817.194 618.947 818.816 623.93 820.328 625.327 815.457 629.816 815.971 632.399 813.222 632.669 806.772 636.724 806.509 641.686 807.576 645.545 806.842 644.607 798.961 649.805 800.208 653.73 799.515 657.912 799.118 656.543 791.113 659.67 789.327 662.604 787.275 663.985 783.233 671.04 786.373 670.231 779.642 675.863 780.844 675.839 775.227 677.718 771.94 681.834 771.236 683.711 767.968 686.552 765.791 688.612 762.763 693.297 762.532 697.248 761.459 700.233 759.35 698.587 752.585 705.886 754.776 709.034 752.786 706.373 745.251 715.555 748.954 714.392 742.936 714.126 737.842 722.59 740.583 724.383 737.317 723.652 731.902 724.735 728.106 731.36 728.948 729.951 723.109 733.568 721.408 732.869 716.26 738.321 715.969 740.228 712.884 745.533 712.364 740.552 704.153 744.291 702.464 748.403 701.004 753.639 700.288 752.177 694.856 752.174 690.498 759.556 691.143 755.308 683.989 764.516 685.714 766.586 682.722 765.891 677.988 767.09 674.481 768.131 670.891 773.938 670.173 769.184 663.155 771.945 660.62 771.491 656.233 781.116 657.538 776.716 650.966 782.899 650.242 784.807 647.159 784.411 642.865 787.879 640.598 791.341 638.295 786.409 631.788 788.209 628.682 796.359 628.619 794.603 623.773 793.937 619.489 794.506 615.802 794.58 611.909 796.58 608.883 803.105 607.79 799.109 602.184 806.763 601.475 805.927 597.229 810.178 595.035 811.354 591.601 806.421 585.845 807.962 582.6 814.001 580.988 816.426 578.012 809.951 571.92 812.294 568.947 820.267 567.824 815.951 562.611 819.811 560.067 823.681 557.481 820.283 552.673 820.255 548.92 825.917 546.79 826.714 543.247 825.697 539.226 824.729 535.25 824.495 531.49 829.018 528.895 827.18 524.758 830.249 521.765 834.156 518.91 828.878 514.11 835.453 511.749 828.851 506.81 833.422 503.998 835.789 500.739 832.248 496.507 834.046 493.151 832.38 489.291 837.281 486.318 831.445 481.989 835.622 478.867 839.065 475.615 834.099 471.513 836.496 468.145 838.155 464.691 834.694 460.804 835.999 457.322 836.195 453.752 842.51 450.573 841.345 446.887 840.61 443.241 840.877 439.651 841.449 436.07 842.606 432.498 836.501 428.768 836.142 425.206 837.336 421.656 838.88 418.08 834.649 414.581 843.681 410.783 843.643 407.147 836.583 403.873 838.009 400.217 835.73 396.808 837.467 393.088 834.307 389.826 833.842 386.325 833.86 382.762 835.294 378.973 834.506 375.493 838.367 371.163 838.094 367.513 829.374 365.706 834.225 360.953 829.359 358.486 828.111 355.169 826.343 352.016 833.221 346.195 824.013 345.389 829.381 339.813 826.089 337.162 823.515 334.304 820.068 331.827 821.863 327.282 823.026 322.922 816.035 321.986 817.244 317.584 816.997 313.782 815.592 310.485 812.605 307.902 814.874 302.947 814.769 299.061 806.905 298.696 808.563 294.014 805.545 291.444 800.726 289.665 804.504 284.065 798.72 282.685 796.212 279.846 798.761 274.847 793.651 273.089 795.248 268.534 793.25 265.46 794.446 261.116 790.949 258.573 787.59 255.868 791.696 250.676 785.104 248.888 788.755 244.066 790.369 239.966 786.463 237.21 789.559 232.915 787.289 229.74 784.887 226.51 782.516 223.191 785.111 219.249 780.994 216.016 782.846 212.23 786.631 208.454 782.097 205.017 781.068 201.392 784.713 197.834 780.684 194.086 784.809 190.707 786.825 187.309 784.14 183.458 788.252 180.398 788.863 176.949 782.824 172.258 785.239 169.029 789.437 166.351 788.085 160.995 783.94 166.503 780.444 161.53 776.883 160.08 773.225 163.86 769.749 157.664 766.005 166.105 762.536 159.585 758.918 161.099 755.324 161.374 751.735 161.304 748.193 158.691 744.48 165.397 741.039 157.289 737.43 158.273 733.864 157.167 730.153 163.729 726.614 161.135 723.035 160.509 719.365 164.956 715.795 163.758 712.272 160.111 708.645 162.015 705.044 162.474 701.491 160.281 697.868 161.904 694.324 159.291 690.713 160.292 687.204 155.673 683.523 160.13 680.911 163.606 682.267 164.573 681.247 168.038 680.939 171.698 672.399 173.068 676.529 177.96 673.074 180.732 668.731 183.245 671.751 187.845 668.149 190.557 666.079 193.703 668.673 198.196 669.97 202.322 663.801 204.27 669.301 209.634 669.867 213.56 660.376 214.506 660.956 218.431 664.938 223.379 659.518 225.513 658.138 228.856 660.047 233.197 656.182 235.785 654.565 239.054 654.894 242.921 658.898 247.929 650.083 248.969 652.922 253.624 656.167 258.418 649.025 259.952 646.763 263.013 650.88 268.096 645.006 270.002 647.402 274.55 643.564 277.097 647.719 282.228 645.322 285.24 639.985 287.287 638.785 290.681 640.349 294.99 633.686 296.573 632.893 300.1 634.168 304.322 634.472 308.225 634.532 312.051 630.258 314.402 630.478 318.285 627.408 321.029 624.428 323.799 629.757 329.463 624.859 331.563 626.958 336.12 626.781 339.883 626.461 343.6 623.145 346.245 623.718 350.288 614.656 350.834 620.505 356.805 619.137 360.15 618.829 363.888 610.855 364.769 609.999 368.292 610.672 372.397 615.184 377.977 613.831 381.336 611.781 384.425 604.296 385.392 608.069 390.746 605.921 393.786 598.088 394.552 603.229 400.498 596.481 401.662 601.825 407.738 596.947 409.641 596.687 413.443 594.035 416.247 589.944 418.43 592.655 423.507 591.136 426.788 586.922 428.888 586.803 432.773 585.548 436.162 580.615 437.89 584.839 443.771 583.447 447.113 578.347 448.717 580.008 453.49 573.596 454.416 574.906 459.047 577.839 464.519 573.817 466.564 569.258 468.3 571.752 473.647 567.042 475.267 566.538 479.09 566.674 483.289 564.969 486.501 560.084 487.905 560.537 492.342 553.921 492.628 553.584 496.608 551.66 499.639 548.076 501.599 546.632 504.914 549.44 511.159 544.907 512.431 540.578 513.727 537.421 515.786 538.336 521.029 534.112 522.184 535.485 528.144 528.18 526.283 529.013 532.07 523.731 531.617 525.209 538.855 520.615 538.902 515.866 538.753 516.314 544.989 513.924 547.753 509.22 547.654 506.652 550.194 506.567 555.852 499.687 552.975 499.501 558.546 494.245 557.657 495.053 564.583 489.941 563.84 485.482 563.897 482.982 566.538 482.535 571.987 475.225 568.046 475.349 574.352 471.598 575.269 467.235 575.261 467.77 582.402 465.286 585.195 460.128 583.932 459.101 588.98 454.324 588.193 453.462 593.644 450.271 595.39 444.067 592.031 442.566 596.58 439.761 598.944 434.105 596.17 434.522 604.451 427.298 598.526 427.87 607.414 422.483 604.76 420.85 609.584 417.206 610.346 412.744 609.297 410.002 611.929 407.041 614.124 404.255 616.775 399.173 613.944 398.412 621.626 391.856 614.825 388.683 616.467 387 622.196 383.821 624.003 380.331 624.948 375.181 620.91 374.637 630.766 369.764 627.382 365.016 624.106 363.97 633.183 358.501 627.186 357.187 635.906 352.63 632.884 349.062 633.458 344.661 630.612 342.658 637.644 339.332 639.342 334.712 635.179 331.439 637.03 328.481 640.545 324.243 637.663 320.588 637.616 317.097 638.437 314.016 641.696 309.775 638.049 306.662 641.29 303.421 643.938 299.528 642.16 295.76 641.078 291.914 639.207 288.463 640.382 284.971 641.291 281.826 645.51 278.33 646.725 274.372 643.122 271.054 646.265 267.433 646.107 264.14 650.202 260.3 647.136 256.801 648.77 253.348 651.441 249.485 646.944 246.008 649.431 242.209 644.955 238.714 647.201 235.111 646.864 231.653 651.605 228.02 650.694 224.308 644.913 220.785 649.289 217.147 645.087 213.579 648.482 209.98 651.802 206.407 644.006 202.805 646.816 199.211 647.474 195.543 651.816 191.955 650.739 188.41 648.241 184.954 643.377 181.376 643.268 177.693 646.063 174.125 645.433 170.338 649.649 167.037 643.364 162.999 651.803 158.865 646.548" style="fill: #fff;"/>
  <polygon points="158.865 646.548 158.439 650.346 159.428 653.988 159.787 657.581 160.904 661.233 157.344 664.504 157.719 668.097 155.932 671.512 158.492 675.285 153.877 678.469 157.29 682.308 151.778 685.418 160.202 689.668 156.287 692.91 153.804 696.267 155.345 699.958 153.846 703.397 155.497 707.096 158.06 710.872 158.715 714.491 153.774 717.647 149.164 720.834 153.934 724.791 148.009 727.871 153.569 731.9 152.806 735.064 156.096 735.226 159.368 737.008 162.282 740.37 165.637 741.77 170.697 735.694 173.186 740.903 176.938 740.577 180.013 743.218 184.562 739.396 187.156 744.158 190.006 747.801 194.434 744.519 198.152 744.356 200.466 750.338 205.245 745.512 207.82 750.373 211.69 749.548 216.379 745.147 219.72 748.407 220.343 753.972 226.829 753.048 227.851 756.914 228.316 761.384 227.76 766.944 230.958 768.926 234.561 770.461 239.089 770.986 239.112 776.204 244.535 775.685 247.57 777.682 248.322 782.248 254.842 780.24 255.571 784.882 257.37 788.335 261.469 789.005 260.038 796.564 265.231 795.842 269.136 796.681 273.6 796.713 273.144 803.398 279.142 801.239 279.12 807.52 282.316 809.276 286.242 809.922 288.559 812.977 290.703 816.358 296.398 814.082 299.807 815.376 299.476 822.983 303.743 822.89 308.256 822.255 310.176 826.248 312.781 829.077 316.319 830.158 319.894 831.132 323.343 832.327 325.185 836.91 328.485 838.493 333.669 835.817 337.42 836.213 341.859 834.872 343.103 841.359 346.472 842.691 352.01 838.153 352.048 848.65 356.862 845.906 359.036 850.917 364.338 846.245 367.312 848.851 370.057 852.426 375.675 845.572 377.316 853.497 381.748 850.617 385.695 849.424 387.497 858.117 391.327 857.668 395.542 854.923 399.22 854.796 403.285 852.027 406.482 854.797 409.323 860.903 413.073 860.32 417.387 853.641 420.864 854.769 424.171 858.214 427.526 861.793 431.103 862.727 435.097 855.931 438.686 855.566 442.01 862.744 445.777 857.181 449.343 857.966 452.93 857.317 456.51 858.084 460.068 856.174 463.746 860.888 467.186 855.688 471.03 862.117 474.329 855.853 478.186 860.334 481.828 860.592 485.311 858.831 488.714 856.529 492.161 855.038 495.677 854.359 499.726 857.978 503.169 856.504 506.931 857.35 509.942 853.238 513.948 855.501 517.015 852.169 520.858 853.235 524.55 853.36 527.865 851.612 530.92 848.807 535.271 851.712 539.301 852.968 541.023 845.093 546.585 852.054 550.06 850.946 553.097 848.353 556.36 846.621 559.862 845.698 562.249 841.372 567.263 844.973 570.068 841.994 573.865 841.846 576.906 839.631 578.231 833.083 582.479 834.107 586.37 834.13 588.875 830.838 594.356 834.393 594.738 826.449 598.985 827.126 601.734 824.57 608.019 829.222 607.388 819.921 612.465 821.969 613.994 817.194 618.947 818.816 623.93 820.328 625.327 815.457 629.816 815.971 632.399 813.222 632.669 806.772 636.724 806.509 641.686 807.576 645.545 806.842 644.607 798.961 649.805 800.208 653.73 799.515 657.912 799.118 656.543 791.113 659.67 789.327 662.604 787.275 663.985 783.233 671.04 786.373 670.231 779.642 675.863 780.844 675.839 775.227 677.718 771.94 681.834 771.236 683.711 767.968 686.552 765.791 688.612 762.763 693.297 762.532 697.248 761.459 700.233 759.35 698.587 752.585 705.886 754.776 709.034 752.786 706.373 745.251 715.555 748.954 714.392 742.936 714.126 737.842 722.59 740.583 724.383 737.317 723.652 731.902 724.735 728.106 731.36 728.948 729.951 723.109 733.568 721.408 732.869 716.26 738.321 715.969 740.228 712.884 745.533 712.364 740.552 704.153 744.291 702.464 748.403 701.004 753.639 700.288 752.177 694.856 752.174 690.498 759.556 691.143 755.308 683.989 764.516 685.714 766.586 682.722 765.891 677.988 767.09 674.481 768.131 670.891 773.938 670.173 769.184 663.155 771.945 660.62 771.491 656.233 781.116 657.538 776.716 650.966 782.899 650.242 784.807 647.159 784.411 642.865 787.879 640.598 791.341 638.295 786.409 631.788 788.209 628.682 796.359 628.619 794.603 623.773 793.937 619.489 794.506 615.802 794.58 611.909 796.58 608.883 803.105 607.79 799.109 602.184 806.763 601.475 805.927 597.229 810.178 595.035 811.354 591.601 806.421 585.845 807.962 582.6 814.001 580.988 816.426 578.012 809.951 571.92 812.294 568.947 820.267 567.824 815.951 562.611 819.811 560.067 823.681 557.481 820.283 552.673 820.255 548.92 825.917 546.79 826.714 543.247 825.697 539.226 824.729 535.25 824.495 531.49 829.018 528.895 827.18 524.758 830.249 521.765 834.156 518.91 828.878 514.11 835.453 511.749 828.851 506.81 833.422 503.998 835.789 500.739 832.248 496.507 834.046 493.151 832.38 489.291 837.281 486.318 831.445 481.989 835.622 478.867 839.065 475.615 834.099 471.513 836.496 468.145 838.155 464.691 834.694 460.804 835.999 457.322 836.195 453.752 842.51 450.573 841.345 446.887 840.61 443.241 840.877 439.651 841.449 436.07 842.606 432.498 836.501 428.768 836.142 425.206 837.336 421.656 838.88 418.08 834.649 414.581 843.681 410.783 843.643 407.147 836.583 403.873 838.009 400.217 835.73 396.808 837.467 393.088 834.307 389.826 833.842 386.325 833.86 382.762 835.294 378.973 834.506 375.493 838.367 371.163 838.094 367.513 829.374 365.706 834.225 360.953 829.359 358.486 828.111 355.169 826.343 352.016 833.221 346.195 824.013 345.389 829.381 339.813 826.089 337.162 823.515 334.304 820.068 331.827 821.863 327.282 823.026 322.922 816.035 321.986 817.244 317.584 816.997 313.782 815.592 310.485 812.605 307.902 814.874 302.947 814.769 299.061 806.905 298.696 808.563 294.014 805.545 291.444 800.726 289.665 804.504 284.065 798.72 282.685 796.212 279.846 798.761 274.847 793.651 273.089 795.248 268.534 793.25 265.46 794.446 261.116 790.949 258.573 787.59 255.868 791.696 250.676 785.104 248.888 788.755 244.066 790.369 239.966 786.463 237.21 789.559 232.915 787.289 229.74 784.887 226.51 782.516 223.191 785.111 219.249 780.994 216.016 782.846 212.23 786.631 208.454 782.097 205.017 781.068 201.392 784.713 197.834 780.684 194.086 784.809 190.707 786.825 187.309 784.14 183.458 788.252 180.398 788.863 176.949 782.824 172.258 785.239 169.029 789.437 166.351 788.085 160.995 783.94 166.503 780.444 161.53 776.883 160.08 773.225 163.86 769.749 157.664 766.005 166.105 762.536 159.585 758.918 161.099 755.324 161.374 751.735 161.304 748.193 158.691 744.48 165.397 741.039 157.289 737.43 158.273 733.864 157.167 730.153 163.729 726.614 161.135 723.035 160.509 719.365 164.956 715.795 163.758 712.272 160.111 708.645 162.015 705.044 162.474 701.491 160.281 697.868 161.904 694.324 159.291 690.713 160.292 687.204 155.673 683.523 160.13 680.911 163.606 682.267 164.573 681.247 168.038 680.939 171.698 672.399 173.068 676.529 177.96 673.074 180.732 668.731 183.245 671.751 187.845 668.149 190.557 666.079 193.703 668.673 198.196 669.97 202.322 663.801 204.27 669.301 209.634 669.867 213.56 660.376 214.506 660.956 218.431 664.938 223.379 659.518 225.513 658.138 228.856 660.047 233.197 656.182 235.785 654.565 239.054 654.894 242.921 658.898 247.929 650.083 248.969 652.922 253.624 656.167 258.418 649.025 259.952 646.763 263.013 650.88 268.096 645.006 270.002 647.402 274.55 643.564 277.097 647.719 282.228 645.322 285.24 639.985 287.287 638.785 290.681 640.349 294.99 633.686 296.573 632.893 300.1 634.168 304.322 634.472 308.225 634.532 312.051 630.258 314.402 630.478 318.285 627.408 321.029 624.428 323.799 629.757 329.463 624.859 331.563 626.958 336.12 626.781 339.883 626.461 343.6 623.145 346.245 623.718 350.288 614.656 350.834 620.505 356.805 619.137 360.15 618.829 363.888 610.855 364.769 609.999 368.292 610.672 372.397 615.184 377.977 613.831 381.336 611.781 384.425 604.296 385.392 608.069 390.746 605.921 393.786 598.088 394.552 603.229 400.498 596.481 401.662 601.825 407.738 596.947 409.641 596.687 413.443 594.035 416.247 589.944 418.43 592.655 423.507 591.136 426.788 586.922 428.888 586.803 432.773 585.548 436.162 580.615 437.89 584.839 443.771 583.447 447.113 578.347 448.717 580.008 453.49 573.596 454.416 574.906 459.047 577.839 464.519 573.817 466.564 569.258 468.3 571.752 473.647 567.042 475.267 566.538 479.09 566.674 483.289 564.969 486.501 560.084 487.905 560.537 492.342 553.921 492.628 553.584 496.608 551.66 499.639 548.076 501.599 546.632 504.914 549.44 511.159 544.907 512.431 540.578 513.727 537.421 515.786 538.336 521.029 534.112 522.184 535.485 528.144 528.18 526.283 529.013 532.07 523.731 531.617 525.209 538.855 520.615 538.902 515.866 538.753 516.314 544.989 513.924 547.753 509.22 547.654 506.652 550.194 506.567 555.852 499.687 552.975 499.501 558.546 494.245 557.657 495.053 564.583 489.941 563.84 485.482 563.897 482.982 566.538 482.535 571.987 475.225 568.046 475.349 574.352 471.598 575.269 467.235 575.261 467.77 582.402 465.286 585.195 460.128 583.932 459.101 588.98 454.324 588.193 453.462 593.644 450.271 595.39 444.067 592.031 442.566 596.58 439.761 598.944 434.105 596.17 434.522 604.451 427.298 598.526 427.87 607.414 422.483 604.76 420.85 609.584 417.206 610.346 412.744 609.297 410.002 611.929 407.041 614.124 404.255 616.775 399.173 613.944 398.412 621.626 391.856 614.825 388.683 616.467 387 622.196 383.821 624.003 380.331 624.948 375.181 620.91 374.637 630.766 369.764 627.382 365.016 624.106 363.97 633.183 358.501 627.186 357.187 635.906 352.63 632.884 349.062 633.458 344.661 630.612 342.658 637.644 339.332 639.342 334.712 635.179 331.439 637.03 328.481 640.545 324.243 637.663 320.588 637.616 317.097 638.437 314.016 641.696 309.775 638.049 306.662 641.29 303.421 643.938 299.528 642.16 295.76 641.078 291.914 639.207 288.463 640.382 284.971 641.291 281.826 645.51 278.33 646.725 274.372 643.122 271.054 646.265 267.433 646.107 264.14 650.202 260.3 647.136 256.801 648.77 253.348 651.441 249.485 646.944 246.008 649.431 242.209 644.955 238.714 647.201 235.111 646.864 231.653 651.605 228.02 650.694 224.308 644.913 220.785 649.289 217.147 645.087 213.579 648.482 209.98 651.802 206.407 644.006 202.805 646.816 199.211 647.474 195.543 651.816 191.955 650.739 188.41 648.241 184.954 643.377 181.376 643.268 177.693 646.063 174.125 645.433 170.338 649.649 167.037 643.364 162.999 651.803 158.865 646.548" style="fill: none; stroke: #000; stroke-linecap: round; stroke-linejoin: round; stroke-width: 40px;"/>
</svg>