<?xml version="1.0" encoding="UTF-8"?>
<svg id="Sticker" xmlns="http://www.w3.org/2000/svg" width="1000" height="1000" viewBox="0 0 1000 1000">
  <g>
    <polygon points="289.929 546.924 285.513 542.673 286.304 539.071 284.424 535.392 292.997 532.075 293.167 528.494 289.625 524.737 292.091 521.257 292.82 517.702 293.837 514.171 293.37 510.546 290.816 506.752 293.39 503.349 291.426 499.569 291.812 495.985 293.321 492.518 296.486 489.25 292.117 485.137 290.577 481.307 291.22 477.736 291.197 474.074 291.313 470.423 297.497 467.723 294.493 463.59 300.7 461.012 298.294 456.944 300.289 453.677 296.048 449.156 299.072 446.101 301.572 442.975 298.667 438.596 300.129 435.223 301.001 431.708 300.941 427.933 304.585 425.204 300.453 420.182 308.676 418.951 308.719 415.2 310.495 412.025 305.831 406.493 310.544 404.382 309.982 400.252 316.407 399.034 311.103 392.755 319.821 392.802 317.326 387.611 317.033 383.361 319.101 380.306 326.526 380.396 326.643 376.339 327.027 372.331 331.488 371.031 333.584 368.198 329.802 360.774 335.326 360.503 339.659 359.517 341.689 356.577 343.944 353.818 343.831 348.39 350.043 350.055 350.133 344.418 352.27 341.057 359.228 345.057 361.058 341.367 363.923 339.252 368.629 341.176 370.28 336.059 371.72 330.203 374.73 327.853 380.369 332.59 381.87 325.644 385.721 325.354 391.139 332.935 393.061 322.82 397.472 330.638 400.807 329.508 404.328 328.353 408.713 323.305 411.649 327.796 414.548 330.78 418.24 330.838 420.616 334.536 423.271 337.132 428.852 333.362 429.856 339.417 436.288 334.736 435.865 343.021 438.737 345.078 445.931 339.84 445.968 346.741 452.384 343.171 452.747 349.344 456.268 353.16 457.874 346.903 460.618 344.49 463.53 342.316 468.032 342.702 471.74 341.922 473.899 338.539 477.786 338.132 482.467 339.292 483.52 333.689 485.452 329.54 490.019 330.652 493.42 329.47 494.563 323.218 499.673 325.888 501.436 320.66 507.153 325.348 509.716 322.004 514.183 323.994 517.182 321.803 521.034 322.337 524.728 322.562 526.561 315.498 530.426 316.196 533.527 313.389 537.827 316.967 540.615 311.522 544.785 315.796 548.363 316.276 551.493 309.09 555.197 308.246 558.811 317.6 562.444 313.527 566.329 310.107 569.201 317.035 573.51 312.192 576.236 317.12 581.053 312.322 583.655 316.675 588.072 314.897 588.918 322.846 591.886 324.552 595.889 324.139 598.385 326.801 601.249 328.692 604.506 329.994 608.858 329.954 608.972 335.456 611.836 337.348 614.391 339.624 618.433 340.547 625.22 339.084 625.917 343.428 630.517 344.355 627.256 351.663 634.519 350.679 629.713 358.573 638.775 356.756 638.799 361.109 638.78 365.35 639.877 368.845 641.762 371.888 648.45 372.573 645.595 377.992 647.848 380.929 652.738 382.816 646.759 389.109 656.039 389.46 652.319 394.661 656.618 397.042 655.512 401.206 660.676 403.472 658.259 407.95 662.65 410.561 663.842 414.051 657.553 419.269 662.788 421.795 660.361 426.007 664.513 428.863 658.895 433.603 666.868 435.825 660.898 440.524 666.49 443.254 664.393 447.246 669.642 450.103 665.306 454.402 665.435 458.028 665.472 461.666 663.044 465.645 672.962 467.92 672.364 471.647 672.478 475.272 670.696 479.166 675.116 482.162 669.394 486.662 670.436 490.162 671.582 493.638 670.673 497.471 672.024 500.913 671.916 504.641 670.136 508.773 676.967 510.922 676.68 514.702 674.338 519.143 673.897 523.177 684.301 523.413 683.259 527.529 680.324 532.715 682.009 536.025 686.267 537.835 688.612 538.033 691.726 542.237 694.039 537.48 698.69 541.432 701.851 539.399 705.463 539.591 709.014 539.565 712.57 539.702 715.939 537.542 719.137 530.673 722.957 534.023 726.561 532.5 730.213 531.844 733.756 540.067 737.516 532.401 741.032 535.567 744.689 534.761 748.147 537.196 751.685 537.979 755.272 538.131 758.536 541.346 762.721 536.254 766.337 536.521 769.617 539.171 772.708 542.722 776.701 540.413 780.802 537.882 784.422 538.277 787.534 541.239 791.485 540.006 794.241 544.301 797.087 547.85 802.511 540.813 804.299 548.383 808.479 546.654 811.123 550.479 814.785 550.688 819.496 547.669 821.505 553.136 824.537 555.28 830.842 548.359 832.585 554.111 836.401 554.285 838.106 559.603 840.801 562.311 845.765 559.962 847.408 564.839 853.666 560.304 855.756 564.168 857.284 568.82 864.161 564.162 867.369 566.041 866.649 573.849 872.255 572.045 871.288 579.432 874.351 581.151 878.999 581.083 885.243 579.631 887.371 582.852 886.93 588.324 887.972 592.1 895.875 590.608 895.849 595.262 894.936 600.097 898.121 602.471 903.437 604.22 896.062 610.827 896.823 614.02 904.462 615.968 898.934 620.343 898.776 623.684 903.896 627.206 906.308 631.164 897.382 633.516 903.005 638.26 904.571 642.594 896.059 643.629 899.752 648.883 892.803 649.718 891.188 652.73 895.575 659.283 889.847 660.008 886.342 661.842 890.586 669.606 883.532 668.548 882.856 672.778 881.236 676.324 875.383 675.391 873.84 679.009 873.671 684.566 869.766 685.544 864.696 684.661 862.189 687.327 861.063 692.352 858.079 694.544 853.461 693.758 849.793 694.521 846.636 696.235 842.741 696.358 840.562 700.289 836.205 699.204 832.256 698.896 830.019 703.054 826.115 702.787 822.915 704.477 819.64 706 816.539 708.15 813.391 710.256 808.548 706.245 805.761 709.671 803.522 715.602 800.244 717.62 796.004 715.416 792.778 717.702 788.992 717.347 785.955 720.82 782.148 720.314 777.39 714.098 774.109 716.257 770.84 718.675 767.455 720.518 763.743 720.119 759.735 717.308 756.152 717.601 752.617 718.292 749.384 721.872 745.472 719.074 742.147 722.154 738.483 721.737 735.1 724.705 731.487 725.019 727.441 718.993 724.023 721.855 720.775 728.246 717.17 729.009 713.437 727.127 709.502 719.784 706.12 725.728 702.436 723.776 698.799 722.823 695.265 726.27 691.678 728.394 688.024 726.582 684.352 721.183 680.777 729.587 677.143 720.28 673.538 721.086 669.917 722.822 666.297 723.521 662.681 723.584 658.946 729.396 655.341 728.105 651.881 722.07 648.339 720.023 644.615 723.487 640.868 726.918 637.437 722.329 633.544 728.438 630.328 719.977 626.364 726.719 622.988 722.177 619.262 724.036 615.433 727.33 611.839 726.708 608.369 724.3 605.092 719.431 601.462 719.67 597.744 720.948 593.948 723.153 590.414 722.957 586.871 716.23 583.273 718.787 579.653 717.36 576.145 725.94 572.481 720.658 568.924 723.277 565.26 719.742 561.607 717.419 558.205 726.298 554.39 717.416 550.955 723.852 547.232 719.486 543.616 719.115 540.118 722.507 536.38 718.41 533.054 726.502 529.189 719.047 525.712 722.522 522.086 721.92 518.57 724.132 514.725 718.081 511.188 719.798 507.796 724.909 504.088 722.428 500.527 723.243 496.758 719.368 493.23 720.974 489.738 723.343 486.381 728.625 482.603 724.713 478.935 723.233 475.556 727.937 471.839 725.451 468.111 722.771 464.75 727.805 460.949 723.622 457.378 724.257 453.617 720.945 450.486 730.767 446.687 726.67 443.162 728.309 439.354 724.027 436.051 730.235 432.461 730.479 428.472 722.267 424.943 723.79 421.635 730.089 417.783 724.705 414.198 725.095 410.773 729.03 407.075 726.952 403.414 725.67 400.062 731.463 396.348 728.972 392.654 726.91 389.319 733.415 385.59 730.515 381.87 727.714 378.494 733.626 374.577 725.607 370.992 726.132 367.622 732.657 364.069 734.343 360.43 733.596 356.627 727.811 353.242 734.662 349.35 725.339 345.92 731.129 342.178 726.153 338.753 732.727 335.163 733.435 331.494 730.754 327.918 732.024 324.294 731.061 320.764 735.139 317.046 728.461 313.52 733.5 309.886 731.319 306.268 729.873 302.684 731.739 299.068 729.598 295.464 727.826 291.872 728.981 288.273 731.416 284.658 734.909 281.088 728.605 277.508 727.005 273.852 732.576 270.223 734.162 266.688 730.014 263.159 726.802 259.372 734.869 255.871 730.797 252.363 727.816 248.512 735.076 245.189 727.544 241.55 728.594 237.765 732.464 234.283 729.896 230.701 729.459 227.032 730.436 223.347 731.486 220.071 726.715 216.253 729.485 212.314 733.268 209.266 726.682 205.868 724.516 201.958 727.503 198.796 723.378 194.53 728.957 190.932 728.558 188.256 721.403 184.761 720.707 179.895 728.819 177.403 721.616 174.028 720.187 169.136 726.824 165.779 724.995 163.286 719.335 159.708 718.953 156.788 715.899 152.245 719.19 147.521 722.538 145.824 715.557 140.681 719.656 140.274 709.962 135.251 713.239 130.959 714.112 127.562 712.693 124.008 711.524 119.869 711.255 117.833 707.337 116.962 702.152 115.112 698.855 109.699 699.675 104.989 698.994 102.032 695.443 109.178 688.51 108.004 685.265 99.918 683.771 103.256 679.265 104.138 675.505 101.971 672.301 100.949 668.851 96.218 665.6 99.802 661.768 97.99 658.159 95.156 654.345 104.241 651.412 104.916 648.059 96.34 643.057 102.133 640.472 101.107 636.499 99.414 632.143 107.93 631.191 108.988 627.896 104.886 622.246 106.824 619.082 111.421 617.403 108.971 611.802 114.314 610.811 119.251 609.879 119.324 605.602 122.993 603.992 124.796 600.94 123.845 595.321 126.041 592.369 132.055 593.299 132.802 588.916 135.117 586.102 140.765 587.276 142.766 584.169 141.089 576.012 146.474 577.207 150.622 576.911 151.212 571.226 157.54 574.589 160.427 572.548 159.64 563.803 164.394 564.911 166.619 561.239 173.351 566.869 173.734 559.157 176.422 556.164 181.766 559.556 184.833 557.556 189.105 558.787 190.034 550.563 193.981 550.808 199.395 556.057 202.934 555.564 205.054 549.818 209.09 551.069 212.411 549.552 215.3 545.887 219.2 546.869 222.974 547.473 225.847 542.762 230.655 550.451 233.265 543.126 236.946 543.347 240.433 541.752 244.594 548.24 248.167 548.837 251.256 539.215 254.977 540.872 258.652 543.572 262.272 539.405 265.798 545.754 269.327 546.636 273.533 539.838 276.524 547.858 280.437 546.385 284.12 546.899 286.894 550.475 289.929 546.924" style="fill: #fff;"/>
    <polygon points="289.929 546.924 285.513 542.673 286.304 539.071 284.424 535.392 292.997 532.075 293.167 528.494 289.625 524.737 292.091 521.257 292.82 517.702 293.837 514.171 293.37 510.546 290.816 506.752 293.39 503.349 291.426 499.569 291.812 495.985 293.321 492.518 296.486 489.25 292.117 485.137 290.577 481.307 291.22 477.736 291.197 474.074 291.313 470.423 297.497 467.723 294.493 463.59 300.7 461.012 298.294 456.944 300.289 453.677 296.048 449.156 299.072 446.101 301.572 442.975 298.667 438.596 300.129 435.223 301.001 431.708 300.941 427.933 304.585 425.204 300.453 420.182 308.676 418.951 308.719 415.2 310.495 412.025 305.831 406.493 310.544 404.382 309.982 400.252 316.407 399.034 311.103 392.755 319.821 392.802 317.326 387.611 317.033 383.361 319.101 380.306 326.526 380.396 326.643 376.339 327.027 372.331 331.488 371.031 333.584 368.198 329.802 360.774 335.326 360.503 339.659 359.517 341.689 356.577 343.944 353.818 343.831 348.39 350.043 350.055 350.133 344.418 352.27 341.057 359.228 345.057 361.058 341.367 363.923 339.252 368.629 341.176 370.28 336.059 371.72 330.203 374.73 327.853 380.369 332.59 381.87 325.644 385.721 325.354 391.139 332.935 393.061 322.82 397.472 330.638 400.807 329.508 404.328 328.353 408.713 323.305 411.649 327.796 414.548 330.78 418.24 330.838 420.616 334.536 423.271 337.132 428.852 333.362 429.856 339.417 436.288 334.736 435.865 343.021 438.737 345.078 445.931 339.84 445.968 346.741 452.384 343.171 452.747 349.344 456.268 353.16 457.874 346.903 460.618 344.49 463.53 342.316 468.032 342.702 471.74 341.922 473.899 338.539 477.786 338.132 482.467 339.292 483.52 333.689 485.452 329.54 490.019 330.652 493.42 329.47 494.563 323.218 499.673 325.888 501.436 320.66 507.153 325.348 509.716 322.004 514.183 323.994 517.182 321.803 521.034 322.337 524.728 322.562 526.561 315.498 530.426 316.196 533.527 313.389 537.827 316.967 540.615 311.522 544.785 315.796 548.363 316.276 551.493 309.09 555.197 308.246 558.811 317.6 562.444 313.527 566.329 310.107 569.201 317.035 573.51 312.192 576.236 317.12 581.053 312.322 583.655 316.675 588.072 314.897 588.918 322.846 591.886 324.552 595.889 324.139 598.385 326.801 601.249 328.692 604.506 329.994 608.858 329.954 608.972 335.456 611.836 337.348 614.391 339.624 618.433 340.547 625.22 339.084 625.917 343.428 630.517 344.355 627.256 351.663 634.519 350.679 629.713 358.573 638.775 356.756 638.799 361.109 638.78 365.35 639.877 368.845 641.762 371.888 648.45 372.573 645.595 377.992 647.848 380.929 652.738 382.816 646.759 389.109 656.039 389.46 652.319 394.661 656.618 397.042 655.512 401.206 660.676 403.472 658.259 407.95 662.65 410.561 663.842 414.051 657.553 419.269 662.788 421.795 660.361 426.007 664.513 428.863 658.895 433.603 666.868 435.825 660.898 440.524 666.49 443.254 664.393 447.246 669.642 450.103 665.306 454.402 665.435 458.028 665.472 461.666 663.044 465.645 672.962 467.92 672.364 471.647 672.478 475.272 670.696 479.166 675.116 482.162 669.394 486.662 670.436 490.162 671.582 493.638 670.673 497.471 672.024 500.913 671.916 504.641 670.136 508.773 676.967 510.922 676.68 514.702 674.338 519.143 673.897 523.177 684.301 523.413 683.259 527.529 680.324 532.715 682.009 536.025 686.267 537.835 688.612 538.033 691.726 542.237 694.039 537.48 698.69 541.432 701.851 539.399 705.463 539.591 709.014 539.565 712.57 539.702 715.939 537.542 719.137 530.673 722.957 534.023 726.561 532.5 730.213 531.844 733.756 540.067 737.516 532.401 741.032 535.567 744.689 534.761 748.147 537.196 751.685 537.979 755.272 538.131 758.536 541.346 762.721 536.254 766.337 536.521 769.617 539.171 772.708 542.722 776.701 540.413 780.802 537.882 784.422 538.277 787.534 541.239 791.485 540.006 794.241 544.301 797.087 547.85 802.511 540.813 804.299 548.383 808.479 546.654 811.123 550.479 814.785 550.688 819.496 547.669 821.505 553.136 824.537 555.28 830.842 548.359 832.585 554.111 836.401 554.285 838.106 559.603 840.801 562.311 845.765 559.962 847.408 564.839 853.666 560.304 855.756 564.168 857.284 568.82 864.161 564.162 867.369 566.041 866.649 573.849 872.255 572.045 871.288 579.432 874.351 581.151 878.999 581.083 885.243 579.631 887.371 582.852 886.93 588.324 887.972 592.1 895.875 590.608 895.849 595.262 894.936 600.097 898.121 602.471 903.437 604.22 896.062 610.827 896.823 614.02 904.462 615.968 898.934 620.343 898.776 623.684 903.896 627.206 906.308 631.164 897.382 633.516 903.005 638.26 904.571 642.594 896.059 643.629 899.752 648.883 892.803 649.718 891.188 652.73 895.575 659.283 889.847 660.008 886.342 661.842 890.586 669.606 883.532 668.548 882.856 672.778 881.236 676.324 875.383 675.391 873.84 679.009 873.671 684.566 869.766 685.544 864.696 684.661 862.189 687.327 861.063 692.352 858.079 694.544 853.461 693.758 849.793 694.521 846.636 696.235 842.741 696.358 840.562 700.289 836.205 699.204 832.256 698.896 830.019 703.054 826.115 702.787 822.915 704.477 819.64 706 816.539 708.15 813.391 710.256 808.548 706.245 805.761 709.671 803.522 715.602 800.244 717.62 796.004 715.416 792.778 717.702 788.992 717.347 785.955 720.82 782.148 720.314 777.39 714.098 774.109 716.257 770.84 718.675 767.455 720.518 763.743 720.119 759.735 717.308 756.152 717.601 752.617 718.292 749.384 721.872 745.472 719.074 742.147 722.154 738.483 721.737 735.1 724.705 731.487 725.019 727.441 718.993 724.023 721.855 720.775 728.246 717.17 729.009 713.437 727.127 709.502 719.784 706.12 725.728 702.436 723.776 698.799 722.823 695.265 726.27 691.678 728.394 688.024 726.582 684.352 721.183 680.777 729.587 677.143 720.28 673.538 721.086 669.917 722.822 666.297 723.521 662.681 723.584 658.946 729.396 655.341 728.105 651.881 722.07 648.339 720.023 644.615 723.487 640.868 726.918 637.437 722.329 633.544 728.438 630.328 719.977 626.364 726.719 622.988 722.177 619.262 724.036 615.433 727.33 611.839 726.708 608.369 724.3 605.092 719.431 601.462 719.67 597.744 720.948 593.948 723.153 590.414 722.957 586.871 716.23 583.273 718.787 579.653 717.36 576.145 725.94 572.481 720.658 568.924 723.277 565.26 719.742 561.607 717.419 558.205 726.298 554.39 717.416 550.955 723.852 547.232 719.486 543.616 719.115 540.118 722.507 536.38 718.41 533.054 726.502 529.189 719.047 525.712 722.522 522.086 721.92 518.57 724.132 514.725 718.081 511.188 719.798 507.796 724.909 504.088 722.428 500.527 723.243 496.758 719.368 493.23 720.974 489.738 723.343 486.381 728.625 482.603 724.713 478.935 723.233 475.556 727.937 471.839 725.451 468.111 722.771 464.75 727.805 460.949 723.622 457.378 724.257 453.617 720.945 450.486 730.767 446.687 726.67 443.162 728.309 439.354 724.027 436.051 730.235 432.461 730.479 428.472 722.267 424.943 723.79 421.635 730.089 417.783 724.705 414.198 725.095 410.773 729.03 407.075 726.952 403.414 725.67 400.062 731.463 396.348 728.972 392.654 726.91 389.319 733.415 385.59 730.515 381.87 727.714 378.494 733.626 374.577 725.607 370.992 726.132 367.622 732.657 364.069 734.343 360.43 733.596 356.627 727.811 353.242 734.662 349.35 725.339 345.92 731.129 342.178 726.153 338.753 732.727 335.163 733.435 331.494 730.754 327.918 732.024 324.294 731.061 320.764 735.139 317.046 728.461 313.52 733.5 309.886 731.319 306.268 729.873 302.684 731.739 299.068 729.598 295.464 727.826 291.872 728.981 288.273 731.416 284.658 734.909 281.088 728.605 277.508 727.005 273.852 732.576 270.223 734.162 266.688 730.014 263.159 726.802 259.372 734.869 255.871 730.797 252.363 727.816 248.512 735.076 245.189 727.544 241.55 728.594 237.765 732.464 234.283 729.896 230.701 729.459 227.032 730.436 223.347 731.486 220.071 726.715 216.253 729.485 212.314 733.268 209.266 726.682 205.868 724.516 201.958 727.503 198.796 723.378 194.53 728.957 190.932 728.558 188.256 721.403 184.761 720.707 179.895 728.819 177.403 721.616 174.028 720.187 169.136 726.824 165.779 724.995 163.286 719.335 159.708 718.953 156.788 715.899 152.245 719.19 147.521 722.538 145.824 715.557 140.681 719.656 140.274 709.962 135.251 713.239 130.959 714.112 127.562 712.693 124.008 711.524 119.869 711.255 117.833 707.337 116.962 702.152 115.112 698.855 109.699 699.675 104.989 698.994 102.032 695.443 109.178 688.51 108.004 685.265 99.918 683.771 103.256 679.265 104.138 675.505 101.971 672.301 100.949 668.851 96.218 665.6 99.802 661.768 97.99 658.159 95.156 654.345 104.241 651.412 104.916 648.059 96.34 643.057 102.133 640.472 101.107 636.499 99.414 632.143 107.93 631.191 108.988 627.896 104.886 622.246 106.824 619.082 111.421 617.403 108.971 611.802 114.314 610.811 119.251 609.879 119.324 605.602 122.993 603.992 124.796 600.94 123.845 595.321 126.041 592.369 132.055 593.299 132.802 588.916 135.117 586.102 140.765 587.276 142.766 584.169 141.089 576.012 146.474 577.207 150.622 576.911 151.212 571.226 157.54 574.589 160.427 572.548 159.64 563.803 164.394 564.911 166.619 561.239 173.351 566.869 173.734 559.157 176.422 556.164 181.766 559.556 184.833 557.556 189.105 558.787 190.034 550.563 193.981 550.808 199.395 556.057 202.934 555.564 205.054 549.818 209.09 551.069 212.411 549.552 215.3 545.887 219.2 546.869 222.974 547.473 225.847 542.762 230.655 550.451 233.265 543.126 236.946 543.347 240.433 541.752 244.594 548.24 248.167 548.837 251.256 539.215 254.977 540.872 258.652 543.572 262.272 539.405 265.798 545.754 269.327 546.636 273.533 539.838 276.524 547.858 280.437 546.385 284.12 546.899 286.894 550.475 289.929 546.924" style="fill: none; stroke: #000; stroke-linecap: round; stroke-linejoin: round; stroke-width: 40px;"/>
  </g>
  <g>
    <polyline points="854.912 686.473 851.198 685.778 850.553 679.426 843.373 685.021 841.45 681.047 839.159 677.774 834.615 678.461 831.949 675.858 829.963 672.111 826.773 670.438 826.463 663.945 821.945 664.524 815.269 668.591 812.686 665.894 811.898 660.327 809.452 657.469 807.072 654.526 804.197 652.375 799.219 653.471 795.926 651.931 792.424 650.698 789.327 648.841 784.807 649.083 785.615 641.492 784.252 637.16 777.945 639.936 772.86 640.877 774.816 631.933 770.964 631.148 766.789 630.774 766.207 625.536 758.84 629.356 761.054 620.51 753.462 624.465 755.024 616.636 748.994 618.453 745.852 616.595 746.979 609.56 741.127 610.981 741.448 605.061 734.036 608.145 730.102 607.112 730.572 601.159 726.331 600.444 722.462 599.261 723.951 592.468 720.098 591.273 717.914 588.368 717.8 583.491 714.651 581.576 707.915 582.882 709.973 576.211 707.01 574.068 705.983 570.299 698.597 571.635 698.393 567.199 698.94 562.349 697.85 558.813 695.587 556.115 690.267 555.285 690.059 551.241 687.622 548.519 683.897 546.372 681.024 543.655 680.928 539.69 680.542 535.944 679.259 532.547 681.159 528.348 682.911 524.494 681.855 521.287 673.142 518.463" style="fill: #fff;"/>
    <polyline points="854.912 686.473 851.198 685.778 850.553 679.426 843.373 685.021 841.45 681.047 839.159 677.774 834.615 678.461 831.949 675.858 829.963 672.111 826.773 670.438 826.463 663.945 821.945 664.524 815.269 668.591 812.686 665.894 811.898 660.327 809.452 657.469 807.072 654.526 804.197 652.375 799.219 653.471 795.926 651.931 792.424 650.698 789.327 648.841 784.807 649.083 785.615 641.492 784.252 637.16 777.945 639.936 772.86 640.877 774.816 631.933 770.964 631.148 766.789 630.774 766.207 625.536 758.84 629.356 761.054 620.51 753.462 624.465 755.024 616.636 748.994 618.453 745.852 616.595 746.979 609.56 741.127 610.981 741.448 605.061 734.036 608.145 730.102 607.112 730.572 601.159 726.331 600.444 722.462 599.261 723.951 592.468 720.098 591.273 717.914 588.368 717.8 583.491 714.651 581.576 707.915 582.882 709.973 576.211 707.01 574.068 705.983 570.299 698.597 571.635 698.393 567.199 698.94 562.349 697.85 558.813 695.587 556.115 690.267 555.285 690.059 551.241 687.622 548.519 683.897 546.372 681.024 543.655 680.928 539.69 680.542 535.944 679.259 532.547 681.159 528.348 682.911 524.494 681.855 521.287 673.142 518.463" style="fill: none; stroke: #000; stroke-linecap: round; stroke-linejoin: round; stroke-width: 40px;"/>
  </g>
  <g>
    <polyline points="287.294 549.743 291.183 548.639 295.664 545.863 297.72 551.557 300.51 554.353 304.53 553.522 307.297 556.219 311.977 554.051 315.461 555.042 318.755 556.496 323.008 555.886 325.753 558.56 329.028 560.092 329.497 567.066 336.448 561.53 338.616 565.149 339.109 571.657 345.777 567.177 345.953 574.047 352.711 569.708 354.567 573.645 356.998 576.575 361.277 576.542 363.497 579.781 366.059 582.456 369.755 583.39 373.206 584.718 375.226 588.178 377.738 590.885 381.642 591.562 381.832 597.593 383.934 600.834 392.216 595.347 392.89 600.618 396.533 601.721 397.815 606.092 398.166 611.71 404.543 609.078 404.021 615.845 411.132 612.267 412.592 616.334 418.057 615.024 419.331 619.333 423.821 619.347 423.428 625.855 427.919 625.873 432.845 625.324 431.314 633.32 437.972 630.488 437.489 637.096 442.99 635.796 444.564 639.681 446.982 642.452 447.458 647.801 450.801 649.353 454.954 649.824 459.92 649.199 458.811 656.704 465.606 653.608 466.416 658.561 471.203 658.134 475.551 658.28 473.567 667.11 478.801 666.035 478.954 672 483.916 671.266 485.359 675.475 490.695 674.152 493.168 676.901 493.897 682.216 500.678 678.655 502.058 683.045 506.252 683.227 506.768 689.024 512.658 686.53 512.547 693.444 517.45 692.408 519.54 695.916 525.04 693.728 525.431 700.195 529.113 701.058 534.698 698.401 534.936 705.532 537.505 708.489 543.079 705.497 547.213 705.161 550.605 706.278 550.61 715.13 554.698 714.904 560.217 710.812 562.658 714.446 564.385 720.582 568.031 721.402 572.553 719.015 575.586 721.92 579.341 722.023 582.776 723.798 587.287 717.931 590.882 716.54" style="fill: #fff;"/>
    <polyline points="287.294 549.743 291.183 548.639 295.664 545.863 297.72 551.557 300.51 554.353 304.53 553.522 307.297 556.219 311.977 554.051 315.461 555.042 318.755 556.496 323.008 555.886 325.753 558.56 329.028 560.092 329.497 567.066 336.448 561.53 338.616 565.149 339.109 571.657 345.777 567.177 345.953 574.047 352.711 569.708 354.567 573.645 356.998 576.575 361.277 576.542 363.497 579.781 366.059 582.456 369.755 583.39 373.206 584.718 375.226 588.178 377.738 590.885 381.642 591.562 381.832 597.593 383.934 600.834 392.216 595.347 392.89 600.618 396.533 601.721 397.815 606.092 398.166 611.71 404.543 609.078 404.021 615.845 411.132 612.267 412.592 616.334 418.057 615.024 419.331 619.333 423.821 619.347 423.428 625.855 427.919 625.873 432.845 625.324 431.314 633.32 437.972 630.488 437.489 637.096 442.99 635.796 444.564 639.681 446.982 642.452 447.458 647.801 450.801 649.353 454.954 649.824 459.92 649.199 458.811 656.704 465.606 653.608 466.416 658.561 471.203 658.134 475.551 658.28 473.567 667.11 478.801 666.035 478.954 672 483.916 671.266 485.359 675.475 490.695 674.152 493.168 676.901 493.897 682.216 500.678 678.655 502.058 683.045 506.252 683.227 506.768 689.024 512.658 686.53 512.547 693.444 517.45 692.408 519.54 695.916 525.04 693.728 525.431 700.195 529.113 701.058 534.698 698.401 534.936 705.532 537.505 708.489 543.079 705.497 547.213 705.161 550.605 706.278 550.61 715.13 554.698 714.904 560.217 710.812 562.658 714.446 564.385 720.582 568.031 721.402 572.553 719.015 575.586 721.92 579.341 722.023 582.776 723.798 587.287 717.931 590.882 716.54" style="fill: none; stroke: #000; stroke-linecap: round; stroke-linejoin: round; stroke-width: 40px;"/>
  </g>
  <g>
    <polyline points="568.375 379.1 564.836 379.836 561.012 379.46 557.707 380.22 554.24 380.232 551.686 385.588 548.214 387.121 544.42 384.975 540.868 384.699 537.446 381.247 533.457 389.098 530.75 380.063 527.286 380.325 523.519 381.809 520.049 381.28 516.214 382.047 512.44 382.24 510.161 377.666 506.739 376.844 501.103 381.548 500.907 372.614 495.47 376.17 492.413 374.203 491.339 368.429 487.925 367.396 481.956 370.782 479 368.642 474.532 368.961 471.686 366.391 470.859 361.616 470.194 356.743 464.734 358.202 465.45 351.548 459.867 353.138 459.062 348.478 455.594 347.302 450.201 348.727 447.236 347.312" style="fill: #fff;"/>
    <polyline points="568.375 379.1 564.836 379.836 561.012 379.46 557.707 380.22 554.24 380.232 551.686 385.588 548.214 387.121 544.42 384.975 540.868 384.699 537.446 381.247 533.457 389.098 530.75 380.063 527.286 380.325 523.519 381.809 520.049 381.28 516.214 382.047 512.44 382.24 510.161 377.666 506.739 376.844 501.103 381.548 500.907 372.614 495.47 376.17 492.413 374.203 491.339 368.429 487.925 367.396 481.956 370.782 479 368.642 474.532 368.961 471.686 366.391 470.859 361.616 470.194 356.743 464.734 358.202 465.45 351.548 459.867 353.138 459.062 348.478 455.594 347.302 450.201 348.727 447.236 347.312" style="fill: none; stroke: #000; stroke-linecap: round; stroke-linejoin: round; stroke-width: 40px;"/>
  </g>
</svg>