<?xml version="1.0" encoding="UTF-8"?>
<svg id="SM_Icons" data-name="SM Icons" xmlns="http://www.w3.org/2000/svg" width="1000" height="1000" viewBox="0 0 1000 1000">
  <polygon points="528.848 126.275 536.111 136.119 547.048 141.466 554.78 150.743 564.127 159.853 575.455 152.67 586.7 148.928 598.867 147.98 610.025 143.948 621.525 141.74 633.357 142.177 645.582 144.477 654.221 153.412 660.888 163.3 669.295 172.162 671.466 184.552 679.067 193.876 685.55 203.232 696.938 202.493 708.723 204.027 720.485 206.161 732.265 207.951 744.697 207.348 755.385 213.658 764.947 221.507 768.497 233.421 775.552 243.934 775.355 255.944 777.61 267.591 779.639 279.279 779.609 291.754 791.125 296.22 801.212 302.683 813.221 304.896 824.11 309.595 834.439 316.301 842.822 325.314 845.497 337.302 849.494 348.521 849.857 360.817 845.627 372.012 844.314 383.867 839.868 395.017 840.16 406.122 846.397 415.08 856.06 422.195 862.427 432.57 870.96 440.811 877.053 450.934 882.92 461.359 883.427 473.356 880.794 484.91 875.712 495.549 868.386 504.906 863.507 515.909 855.643 524.909 850.785 535.41 853.334 546.749 861.572 556.096 862.959 568.418 870.747 577.968 872.916 590.306 870.536 602.274 867.825 613.693 863.493 625.259 854.169 633.451 842.588 637.561 833.568 645.347 824.052 652.434 812.479 658.501 816.985 671.296 815.075 683.231 817.737 694.994 818.781 706.822 815.948 719.066 810.994 730.187 803.35 739.469 794.465 747.803 783.05 752.395 771.34 754.409 759.519 755.946 747.689 757.483 735.774 761.537 730.606 773.011 727.548 784.491 724.643 796.032 722.246 807.747 717.801 819.484 709.026 828.556 697.701 833.735 685.827 835.645 673.671 838.85 662.512 832.808 650.395 834.047 638.39 834.372 627.054 830.869 620.346 840.508 611.313 848.393 602.824 856.748 595.306 865.92 587.68 875.235 577.388 882.424 564.796 881.876 552.971 880.771 540.814 878.486 532.352 869.258 520.413 866.387 509.668 861.318 500 855.486 488.93 858.75 478.142 863.724 467.92 869.747 459.313 878.719 447.024 880.751 435.292 880.03 423.17 880.745 411.324 876.701 402.582 867.699 397.291 856.656 386.532 850.225 380.775 839.568 372.508 831.999 361.614 834.375 349.845 835.77 337.715 834.496 326.234 838.135 313.901 837.534 302.748 832.72 292.886 826.244 282.053 819.584 276.48 808.184 273.524 796.665 270.658 785.12 268.738 773.241 263.101 762.77 251.202 762.067 240.723 755.001 229.187 752.254 217.325 750.847 206.041 746.903 194.978 741.133 187.741 730.893 184.069 719.061 181.785 706.843 184.417 695.083 186.856 683.318 186.937 671.453 186.286 659.116 176.003 652.362 164.662 647.913 157.299 637.73 146.067 633.11 136.12 625.576 129.924 614.681 126.397 602.707 129.166 590.587 131.853 579.093 135.968 567.957 139.895 556.744 143.553 545.406 152.413 535.114 145.165 524.37 138.761 514.395 132.298 504.45 123.069 496.37 117.575 485.449 118.052 473.29 117.081 461.358 120.141 449.386 127.79 439.578 137.105 432.114 144.246 422.514 154.433 415.903 161.485 406.589 157.565 395.605 156.903 383.602 152.535 372.434 150.365 360.766 150.78 348.534 150.882 336.08 158.932 326.51 166.477 317.393 175.444 308.604 187.413 306.313 198.956 303.085 208.199 294.728 219.894 291.379 221.395 279.435 223.574 267.777 223.473 255.776 226.712 244.266 230.066 232.778 237.74 223.745 244.852 214.002 255.526 208.004 267.687 207.048 279.388 203.862 291.403 206.615 303.057 202.464 315.191 204.427 320.542 193.659 325.244 182.702 333.511 173.756 337.954 162.644 346.815 154.455 355.398 146.241 366.775 142.733 378.568 139.554 390.152 143.408 401.618 146.483 413.051 149.65 424.348 153.258 435.682 158.833 445.325 150.877 455.237 144.277 462.924 134.946 473.428 129.056 483.066 122.722 493.744 116.197 506.088 117.425 517.859 120.606 528.848 126.275"/>
  <polygon points="528.848 126.275 536.111 136.119 547.048 141.466 554.78 150.743 564.127 159.853 575.455 152.67 586.7 148.928 598.867 147.98 610.025 143.948 621.525 141.74 633.357 142.177 645.582 144.477 654.221 153.412 660.888 163.3 669.295 172.162 671.466 184.552 679.067 193.876 685.55 203.232 696.938 202.493 708.723 204.027 720.485 206.161 732.265 207.951 744.697 207.348 755.385 213.658 764.947 221.507 768.497 233.421 775.552 243.934 775.355 255.944 777.61 267.591 779.639 279.279 779.609 291.754 791.125 296.22 801.212 302.683 813.221 304.896 824.11 309.595 834.439 316.301 842.822 325.314 845.497 337.302 849.494 348.521 849.857 360.817 845.627 372.012 844.314 383.867 839.868 395.017 840.16 406.122 846.397 415.08 856.06 422.195 862.427 432.57 870.96 440.811 877.053 450.934 882.92 461.359 883.427 473.356 880.794 484.91 875.712 495.549 868.386 504.906 863.507 515.909 855.643 524.909 850.785 535.41 853.334 546.749 861.572 556.096 862.959 568.418 870.747 577.968 872.916 590.306 870.536 602.274 867.825 613.693 863.493 625.259 854.169 633.451 842.588 637.561 833.568 645.347 824.052 652.434 812.479 658.501 816.985 671.296 815.075 683.231 817.737 694.994 818.781 706.822 815.948 719.066 810.994 730.187 803.35 739.469 794.465 747.803 783.05 752.395 771.34 754.409 759.519 755.946 747.689 757.483 735.774 761.537 730.606 773.011 727.548 784.491 724.643 796.032 722.246 807.747 717.801 819.484 709.026 828.556 697.701 833.735 685.827 835.645 673.671 838.85 662.512 832.808 650.395 834.047 638.39 834.372 627.054 830.869 620.346 840.508 611.313 848.393 602.824 856.748 595.306 865.92 587.68 875.235 577.388 882.424 564.796 881.876 552.971 880.771 540.814 878.486 532.352 869.258 520.413 866.387 509.668 861.318 500 855.486 488.93 858.75 478.142 863.724 467.92 869.747 459.313 878.719 447.024 880.751 435.292 880.03 423.17 880.745 411.324 876.701 402.582 867.699 397.291 856.656 386.532 850.225 380.775 839.568 372.508 831.999 361.614 834.375 349.845 835.77 337.715 834.496 326.234 838.135 313.901 837.534 302.748 832.72 292.886 826.244 282.053 819.584 276.48 808.184 273.524 796.665 270.658 785.12 268.738 773.241 263.101 762.77 251.202 762.067 240.723 755.001 229.187 752.254 217.325 750.847 206.041 746.903 194.978 741.133 187.741 730.893 184.069 719.061 181.785 706.843 184.417 695.083 186.856 683.318 186.937 671.453 186.286 659.116 176.003 652.362 164.662 647.913 157.299 637.73 146.067 633.11 136.12 625.576 129.924 614.681 126.397 602.707 129.166 590.587 131.853 579.093 135.968 567.957 139.895 556.744 143.553 545.406 152.413 535.114 145.165 524.37 138.761 514.395 132.298 504.45 123.069 496.37 117.575 485.449 118.052 473.29 117.081 461.358 120.141 449.386 127.79 439.578 137.105 432.114 144.246 422.514 154.433 415.903 161.485 406.589 157.565 395.605 156.903 383.602 152.535 372.434 150.365 360.766 150.78 348.534 150.882 336.08 158.932 326.51 166.477 317.393 175.444 308.604 187.413 306.313 198.956 303.085 208.199 294.728 219.894 291.379 221.395 279.435 223.574 267.777 223.473 255.776 226.712 244.266 230.066 232.778 237.74 223.745 244.852 214.002 255.526 208.004 267.687 207.048 279.388 203.862 291.403 206.615 303.057 202.464 315.191 204.427 320.542 193.659 325.244 182.702 333.511 173.756 337.954 162.644 346.815 154.455 355.398 146.241 366.775 142.733 378.568 139.554 390.152 143.408 401.618 146.483 413.051 149.65 424.348 153.258 435.682 158.833 445.325 150.877 455.237 144.277 462.924 134.946 473.428 129.056 483.066 122.722 493.744 116.197 506.088 117.425 517.859 120.606 528.848 126.275" style="fill: none; stroke: #000; stroke-miterlimit: 10; stroke-width: 30px;"/>
</svg>