<?xml version="1.0" encoding="UTF-8"?>
<svg id="eraser" xmlns="http://www.w3.org/2000/svg" width="500" height="500" viewBox="0 0 500 500">
  <path d="M263.59,64.16c1.53,1.25,2.31.29,3.84,1.54s.18,2.9,1.71,4.15,1.73,1.01,3.25,2.26,1.49,1.3,3.02,2.55,3.04-.59,4.57.66.48,2.41,2.43,2.78,1.77.08,3.65-.53,1.94-.43,3.81-1.04,1.69-1.18,3.57-1.79,1.72-1.1,3.6-1.71,2.5,1.27,4.38.66,1.2-2.71,3.08-3.32c1.21-.4,2.61-.82,3.83-1s2.67,1.29,3.92,1.32,2.42.34,3.64.59,2.64-.17,3.81.28,2.08,1.46,3.16,2.11,2.62.7,3.58,1.53,2.31,1.45,3.12,2.43,1.37,2.29,2,3.4c.97,1.72-.27,2.42.7,4.14s2,1.14,2.97,2.86-.27,2.42.7,4.14.66,1.89,1.64,3.61,3.23.45,4.2,2.17-1.31,3.67.37,4.71,2.38-1.35,4.35-1.25,1.99-.32,3.97-.21,1.96.38,3.93.48,1.92,1.05,3.89,1.15,1.94.78,3.91.89,2-.42,3.98-.31c1.27.07,2.82-1.09,4.03-.82s1.59,3.28,2.74,3.77,2.91-.37,3.96.31,2.2,1.32,3.13,2.17,2.4,1.36,3.17,2.36-.05,3.05.54,4.16,3.09,1.46,3.49,2.67-1.68,2.99-1.5,4.25c.29,1.95-.11,2.01.17,3.97s1.64,1.76,1.92,3.71,1.74,1.74,2.02,3.69.22,1.96.51,3.92-2.02,2.3-1.74,4.25-.42,2.8.78,4.38,3.15-1,4.95-.19,1.84.72,3.64,1.53,1.07,2.42,2.87,3.24,2.49-.72,4.29.09.82,2.99,2.63,3.8,1.86.7,3.66,1.51c1.16.52,1.98,1.27,3.01,1.97s2.88.32,3.78,1.19,1.34,2.17,2.08,3.18.91,2.29,1.47,3.41.9,2.19,1.26,3.4,2.42,2.07,2.57,3.32-.38,2.64-.44,3.9-.47,2.51-.75,3.75c-.44,1.93-.41,1.93-.85,3.86s-.81,1.84-1.25,3.77-.9,1.82-1.33,3.75-.2,1.98-.64,3.91-.49,1.92-.93,3.85-.79,2-.25,3.91,1.67,1,3.05,2.4,1.35,1.44,2.73,2.85.41,2.37,1.79,3.78,1.98.82,3.37,2.23,1.44,1.36,2.83,2.77.67,2.12,2.06,3.53c.9.91,1.31,1.96,2.02,2.98s1.6,1.79,2.13,2.92,2.83,1.68,3.16,2.89.39,2.67.51,3.92.5,2.7.4,3.96-1.92,2.31-2.23,3.54.27,2.79-.25,3.95-.7,2.68-1.41,3.73c-1.1,1.64-3.24.2-4.34,1.83s.41,2.66-.69,4.3-1.89,1.1-3,2.74-1.02,1.7-2.12,3.33-1.87,1.12-2.98,2.76.31,2.09.13,4.06.02,1.42.81,3.23.72,1.84,1.5,3.65,0,2.15.79,3.96,1.26,1.61,2.04,3.42,1.75,1.4,2.54,3.21.07,2.13.85,3.94c.51,1.17.12,2.65.41,3.86s.84,2.4.92,3.65-.87,2.43-1,3.68.83,2.68.49,3.89-.68,2.5-1.23,3.64-1.47,2.11-2.2,3.14-1.65,1.91-2.56,2.8-2.07,1.38-3.12,2.11c-1.62,1.13-1.65,1.08-3.27,2.21s-1.23,1.69-2.85,2.81-1.23,1.69-2.85,2.82-1.75.94-3.37,2.07-2.42-.02-4.05,1.11-1.9,1.05-2.78,2.82-.54,1.93-.46,3.91,1.08,1.93,1.16,3.91-.65,2-.57,3.97-.1,1.98-.02,3.95-.78,2.01-.7,3.99,1.28,1.93,1.36,3.91c.05,1.28-1.42,2.34-1.58,3.57s.55,2.54.18,3.73.55,3-.03,4.12-3.23.91-3.99,1.92-.25,3.06-1.16,3.92-2.11,1.47-3.16,2.16-2.36.88-3.53,1.38-2.23,1.11-3.47,1.42c-1.92.47-2.05-.08-3.97.38s-2.12-.38-4.04.08-1.91.51-3.83.98-1.57,1.92-3.48,2.39-2.28-1-4.2-.53-2.58.4-4.04,1.73-.04,2.48-.68,4.34-.65,1.87-1.29,3.73-1.8,1.47-2.44,3.34,1.4,2.57.76,4.44-1.31,1.64-1.95,3.51.09,2.12-.55,3.99c-.41,1.21-1.69,2.14-2.29,3.23s-.48,2.89-1.26,3.86-2.25,1.59-3.19,2.42-2.21,1.41-3.28,2.08-2.29,1.18-3.46,1.65-2.27,1.54-3.51,1.81-2.69-.52-3.95-.47-2.62.83-3.89.66c-1.96-.26-1.96-.23-3.92-.49s-1.93-.47-3.89-.73-1.87-.96-3.82-1.22-1.83-1.22-3.79-1.48-1.94-.45-3.9-.71-2.65-1.21-4.5-.49-.66,2.77-1.93,4.28-.66,2.03-1.93,3.54-3.08-.02-4.36,1.49-.12,2.48-1.39,3.99-2.52.46-3.8,1.97-.69,2.01-1.96,3.52c-.82.98-1.92,1.44-2.87,2.24s-1.33,2.32-2.4,2.95-2.69-.12-3.87.32-1.88,2.19-3.11,2.42-2.51-.65-3.77-.63-2.49.84-3.73.64-2.92.89-4.12.48-1.19-3.48-2.31-4.09c-1.73-.95-2.35.18-4.08-.77s-1.19-1.94-2.92-2.88-2.15-.19-3.88-1.14-1.75-.92-3.48-1.87-1.52-1.35-3.25-2.3-1.88-1.4-3.86-1.4-1.81,1-3.54,1.95-1.87.7-3.6,1.64-1.41,1.54-3.14,2.49-1.89.65-3.63,1.6-1.74.95-3.47,1.9-1.37,1.62-3.1,2.57c-1.12.61-2.72.15-3.89.55s-2.23,1.47-3.46,1.67-2.58,1.18-3.83,1.16-2.41-1.86-3.64-2.09-3.01,1.2-4.2.76-1.35-3.09-2.44-3.72-2.38-.78-3.35-1.59-2.44-1.1-3.27-2.08c-1.27-1.51-1.37-1.42-2.64-2.93s-.82-1.89-2.09-3.4-.93-1.8-2.2-3.31-1.28-1.51-2.55-3.02-1.96-.94-3.23-2.45-.03-3.4-1.87-4.12-2.15,1.84-4.11,2.1-2.19-1.5-4.15-1.24-1.79,1.52-3.75,1.78-1.98.06-3.94.32-1.95.31-3.92.57-1.89.82-3.85,1.08c-1.27.17-2.68.95-3.92.9s-2.73-.39-3.95-.65-1.66-3.17-2.82-3.64-2.71.07-3.78-.59-2.54-.85-3.48-1.69-.95-2.54-1.74-3.53-1.69-1.78-2.3-2.89.02-2.57-.4-3.78c-.64-1.87-1.21-1.67-1.85-3.54s-1.72-1.5-2.37-3.36-1.53-1.56-2.17-3.43,1.89-2.74,1.25-4.61-1.49-1.58-2.13-3.45-.32-2.28-1.78-3.62-1.94-.56-3.86-1.03-2.22.76-4.13.29-1.71-1.34-3.63-1.81-1.96-.29-3.88-.75-2.09.23-4.01-.24-1.71-1.35-3.63-1.82c-1.24-.3-1.8-2.24-2.94-2.73s-2.68-.03-3.72-.72-2.33-1.09-3.24-1.95-2.23-1.48-2.98-2.48-.16-2.86-.73-3.98-1.63-1.95-2.01-3.16-2.2-2.19-2.37-3.45,1.97-2.65,2.02-3.92c.08-1.97.52-1.96.59-3.93s.05-1.97.12-3.95-1.35-2.03-1.27-4-.94-2.01-.87-3.99,1.31-1.93,1.38-3.91-.04-1.63-.92-3.4-.7-1.4-2.32-2.53-1.7-1.01-3.32-2.14-1.13-1.83-2.75-2.96-1.35-1.52-2.97-2.65-1.85-.81-3.47-1.94-1.77-.92-3.39-2.05c-1.05-.73-1.32-2.19-2.2-3.06s-2.24-1.23-2.97-2.25-1.46-2.01-2-3.13-1.18-2.22-1.53-3.43-2.04-2.29-2.18-3.54,2.12-2.6,2.21-3.86-.72-2.58-.42-3.81,1.21-2.21,1.71-3.38c.78-1.81.29-2.03,1.08-3.84s1.08-1.69,1.86-3.5.89-1.77,1.67-3.58-.14-2.22.64-4.03,1.74-1.4,2.53-3.22,1.25-1.77,1.07-3.74-2.04-.89-3.14-2.52,1.25-3.22.14-4.86-2.77-.51-3.88-2.15-.01-2.37-1.12-4.01-.7-1.91-1.81-3.55-2.32-.82-3.43-2.46c-.71-1.06-1.09-2.31-1.59-3.44s-.4-2.47-.71-3.68-1.51-2.28-1.61-3.53.33-2.54.44-3.8.58-2.42.91-3.64.58-2.42,1.12-3.57.21-2.86.93-3.9,1.67-2.08,2.57-2.99c1.38-1.4,1.53-1.26,2.92-2.66s2.39-.41,3.78-1.82,1.31-1.49,2.69-2.89,1.92-.89,3.3-2.29.71-2.08,2.09-3.49.96-1.45,1.5-3.35,1.02-1.73.58-3.65.29-2.09-.15-4.02-2.22-1.52-2.66-3.45,1.19-2.3.75-4.22-2.74-1.41-3.17-3.34,2.08-2.5,1.64-4.43c-.28-1.24-.21-2.29-.28-3.53s-1.49-2.45-1.34-3.69,1.41-2.19,1.76-3.39-.32-2.75.24-3.88,1.79-1.81,2.54-2.83.46-2.98,1.37-3.86,2.98-.33,4.03-1.04,1.74-1.87,2.9-2.39c1.8-.81,1.91-.56,3.71-1.37s1.56-1.35,3.36-2.16,2.14-.06,3.94-.87,1.96-.45,3.77-1.26,1.3-1.93,3.1-2.74,2.28.01,3.47-1.57.36-1.79.65-3.75,1.89-1.72,2.18-3.67-1.28-2.18-.99-4.14-.83-2.12-.54-4.07,2.17-1.68,2.46-3.64-1.41-2.21-1.13-4.16c.19-1.26,2.11-2.14,2.5-3.32s-.93-3.22-.34-4.32,2.26-1.72,3.03-2.71,2.83-.69,3.76-1.54.7-3.1,1.76-3.78,1.92-2.1,3.09-2.59,2.68-.51,3.92-.79,2.6-.84,3.88-.91c1.97-.11,1.98.13,3.96.03s2.11,2.48,4.08,2.38,1.87-1.97,3.84-2.07,1.93-.96,3.9-1.07,2.02.8,4,.69,2.13.9,3.81-.14,2.28-.8,3.26-2.52-.25-2.41.73-4.13,1.55-1.39,2.52-3.11.82-1.8,1.8-3.52.92-1.75,1.9-3.47,1.77-1.27,2.74-3c.63-1.11.81-2.31,1.6-3.27s1.37-2.06,2.31-2.88,1.45-2.32,2.52-2.97,2.76-.05,3.93-.5,2.22-.96,3.46-1.21,2.34-2.28,3.6-2.31,2.54,1.38,3.8,1.56,2.67-.18,3.88.21c1.88.61,1.52,1.72,3.39,2.33s2.05.08,3.93.69,1.64,1.35,3.51,1.96,2.43-1.08,4.31-.46,1.57,1.57,3.45,2.18,1.96,2.62,3.9,2.26.74-2.93,2.27-4.18,2.88.41,4.41-.84,1.4-1.41,2.93-2.66.77-2.18,2.3-3.43,1.23-1.62,2.76-2.88,2.4-.2,3.93-1.45c.99-.81,1.1-2.92,2.18-3.53s2.38-1.32,3.55-1.74,2.59-.81,3.83-1.02,2.69,1.04,3.95,1.04,2.53-.23,3.77-.02,2.38.77,3.57,1.2,2.88-.11,3.99.52,1.26,2.65,2.25,3.45Z" style="fill: #fff;"/>
  <path d="M263.59,64.16c1.53,1.25,2.31.29,3.84,1.54s.18,2.9,1.71,4.15,1.73,1.01,3.25,2.26,1.49,1.3,3.02,2.55,3.04-.59,4.57.66.48,2.41,2.43,2.78,1.77.08,3.65-.53,1.94-.43,3.81-1.04,1.69-1.18,3.57-1.79,1.72-1.1,3.6-1.71,2.5,1.27,4.38.66,1.2-2.71,3.08-3.32c1.21-.4,2.61-.82,3.83-1s2.67,1.29,3.92,1.32,2.42.34,3.64.59,2.64-.17,3.81.28,2.08,1.46,3.16,2.11,2.62.7,3.58,1.53,2.31,1.45,3.12,2.43,1.37,2.29,2,3.4c.97,1.72-.27,2.42.7,4.14s2,1.14,2.97,2.86-.27,2.42.7,4.14.66,1.89,1.64,3.61,3.23.45,4.2,2.17-1.31,3.67.37,4.71,2.38-1.35,4.35-1.25,1.99-.32,3.97-.21,1.96.38,3.93.48,1.92,1.05,3.89,1.15,1.94.78,3.91.89,2-.42,3.98-.31c1.27.07,2.82-1.09,4.03-.82s1.59,3.28,2.74,3.77,2.91-.37,3.96.31,2.2,1.32,3.13,2.17,2.4,1.36,3.17,2.36-.05,3.05.54,4.16,3.09,1.46,3.49,2.67-1.68,2.99-1.5,4.25c.29,1.95-.11,2.01.17,3.97s1.64,1.76,1.92,3.71,1.74,1.74,2.02,3.69.22,1.96.51,3.92-2.02,2.3-1.74,4.25-.42,2.8.78,4.38,3.15-1,4.95-.19,1.84.72,3.64,1.53,1.07,2.42,2.87,3.24,2.49-.72,4.29.09.82,2.99,2.63,3.8,1.86.7,3.66,1.51c1.16.52,1.98,1.27,3.01,1.97s2.88.32,3.78,1.19,1.34,2.17,2.08,3.18.91,2.29,1.47,3.41.9,2.19,1.26,3.4,2.42,2.07,2.57,3.32-.38,2.64-.44,3.9-.47,2.51-.75,3.75c-.44,1.93-.41,1.93-.85,3.86s-.81,1.84-1.25,3.77-.9,1.82-1.33,3.75-.2,1.98-.64,3.91-.49,1.92-.93,3.85-.79,2-.25,3.91,1.67,1,3.05,2.4,1.35,1.44,2.73,2.85.41,2.37,1.79,3.78,1.98.82,3.37,2.23,1.44,1.36,2.83,2.77.67,2.12,2.06,3.53c.9.91,1.31,1.96,2.02,2.98s1.6,1.79,2.13,2.92,2.83,1.68,3.16,2.89.39,2.67.51,3.92.5,2.7.4,3.96-1.92,2.31-2.23,3.54.27,2.79-.25,3.95-.7,2.68-1.41,3.73c-1.1,1.64-3.24.2-4.34,1.83s.41,2.66-.69,4.3-1.89,1.1-3,2.74-1.02,1.7-2.12,3.33-1.87,1.12-2.98,2.76.31,2.09.13,4.06.02,1.42.81,3.23.72,1.84,1.5,3.65,0,2.15.79,3.96,1.26,1.61,2.04,3.42,1.75,1.4,2.54,3.21.07,2.13.85,3.94c.51,1.17.12,2.65.41,3.86s.84,2.4.92,3.65-.87,2.43-1,3.68.83,2.68.49,3.89-.68,2.5-1.23,3.64-1.47,2.11-2.2,3.14-1.65,1.91-2.56,2.8-2.07,1.38-3.12,2.11c-1.62,1.13-1.65,1.08-3.27,2.21s-1.23,1.69-2.85,2.81-1.23,1.69-2.85,2.82-1.75.94-3.37,2.07-2.42-.02-4.05,1.11-1.9,1.05-2.78,2.82-.54,1.93-.46,3.91,1.08,1.93,1.16,3.91-.65,2-.57,3.97-.1,1.98-.02,3.95-.78,2.01-.7,3.99,1.28,1.93,1.36,3.91c.05,1.28-1.42,2.34-1.58,3.57s.55,2.54.18,3.73.55,3-.03,4.12-3.23.91-3.99,1.92-.25,3.06-1.16,3.92-2.11,1.47-3.16,2.16-2.36.88-3.53,1.38-2.23,1.11-3.47,1.42c-1.92.47-2.05-.08-3.97.38s-2.12-.38-4.04.08-1.91.51-3.83.98-1.57,1.92-3.48,2.39-2.28-1-4.2-.53-2.58.4-4.04,1.73-.04,2.48-.68,4.34-.65,1.87-1.29,3.73-1.8,1.47-2.44,3.34,1.4,2.57.76,4.44-1.31,1.64-1.95,3.51.09,2.12-.55,3.99c-.41,1.21-1.69,2.14-2.29,3.23s-.48,2.89-1.26,3.86-2.25,1.59-3.19,2.42-2.21,1.41-3.28,2.08-2.29,1.18-3.46,1.65-2.27,1.54-3.51,1.81-2.69-.52-3.95-.47-2.62.83-3.89.66c-1.96-.26-1.96-.23-3.92-.49s-1.93-.47-3.89-.73-1.87-.96-3.82-1.22-1.83-1.22-3.79-1.48-1.94-.45-3.9-.71-2.65-1.21-4.5-.49-.66,2.77-1.93,4.28-.66,2.03-1.93,3.54-3.08-.02-4.36,1.49-.12,2.48-1.39,3.99-2.52.46-3.8,1.97-.69,2.01-1.96,3.52c-.82.98-1.92,1.44-2.87,2.24s-1.33,2.32-2.4,2.95-2.69-.12-3.87.32-1.88,2.19-3.11,2.42-2.51-.65-3.77-.63-2.49.84-3.73.64-2.92.89-4.12.48-1.19-3.48-2.31-4.09c-1.73-.95-2.35.18-4.08-.77s-1.19-1.94-2.92-2.88-2.15-.19-3.88-1.14-1.75-.92-3.48-1.87-1.52-1.35-3.25-2.3-1.88-1.4-3.86-1.4-1.81,1-3.54,1.95-1.87.7-3.6,1.64-1.41,1.54-3.14,2.49-1.89.65-3.63,1.6-1.74.95-3.47,1.9-1.37,1.62-3.1,2.57c-1.12.61-2.72.15-3.89.55s-2.23,1.47-3.46,1.67-2.58,1.18-3.83,1.16-2.41-1.86-3.64-2.09-3.01,1.2-4.2.76-1.35-3.09-2.44-3.72-2.38-.78-3.35-1.59-2.44-1.1-3.27-2.08c-1.27-1.51-1.37-1.42-2.64-2.93s-.82-1.89-2.09-3.4-.93-1.8-2.2-3.31-1.28-1.51-2.55-3.02-1.96-.94-3.23-2.45-.03-3.4-1.87-4.12-2.15,1.84-4.11,2.1-2.19-1.5-4.15-1.24-1.79,1.52-3.75,1.78-1.98.06-3.94.32-1.95.31-3.92.57-1.89.82-3.85,1.08c-1.27.17-2.68.95-3.92.9s-2.73-.39-3.95-.65-1.66-3.17-2.82-3.64-2.71.07-3.78-.59-2.54-.85-3.48-1.69-.95-2.54-1.74-3.53-1.69-1.78-2.3-2.89.02-2.57-.4-3.78c-.64-1.87-1.21-1.67-1.85-3.54s-1.72-1.5-2.37-3.36-1.53-1.56-2.17-3.43,1.89-2.74,1.25-4.61-1.49-1.58-2.13-3.45-.32-2.28-1.78-3.62-1.94-.56-3.86-1.03-2.22.76-4.13.29-1.71-1.34-3.63-1.81-1.96-.29-3.88-.75-2.09.23-4.01-.24-1.71-1.35-3.63-1.82c-1.24-.3-1.8-2.24-2.94-2.73s-2.68-.03-3.72-.72-2.33-1.09-3.24-1.95-2.23-1.48-2.98-2.48-.16-2.86-.73-3.98-1.63-1.95-2.01-3.16-2.2-2.19-2.37-3.45,1.97-2.65,2.02-3.92c.08-1.97.52-1.96.59-3.93s.05-1.97.12-3.95-1.35-2.03-1.27-4-.94-2.01-.87-3.99,1.31-1.93,1.38-3.91-.04-1.63-.92-3.4-.7-1.4-2.32-2.53-1.7-1.01-3.32-2.14-1.13-1.83-2.75-2.96-1.35-1.52-2.97-2.65-1.85-.81-3.47-1.94-1.77-.92-3.39-2.05c-1.05-.73-1.32-2.19-2.2-3.06s-2.24-1.23-2.97-2.25-1.46-2.01-2-3.13-1.18-2.22-1.53-3.43-2.04-2.29-2.18-3.54,2.12-2.6,2.21-3.86-.72-2.58-.42-3.81,1.21-2.21,1.71-3.38c.78-1.81.29-2.03,1.08-3.84s1.08-1.69,1.86-3.5.89-1.77,1.67-3.58-.14-2.22.64-4.03,1.74-1.4,2.53-3.22,1.25-1.77,1.07-3.74-2.04-.89-3.14-2.52,1.25-3.22.14-4.86-2.77-.51-3.88-2.15-.01-2.37-1.12-4.01-.7-1.91-1.81-3.55-2.32-.82-3.43-2.46c-.71-1.06-1.09-2.31-1.59-3.44s-.4-2.47-.71-3.68-1.51-2.28-1.61-3.53.33-2.54.44-3.8.58-2.42.91-3.64.58-2.42,1.12-3.57.21-2.86.93-3.9,1.67-2.08,2.57-2.99c1.38-1.4,1.53-1.26,2.92-2.66s2.39-.41,3.78-1.82,1.31-1.49,2.69-2.89,1.92-.89,3.3-2.29.71-2.08,2.09-3.49.96-1.45,1.5-3.35,1.02-1.73.58-3.65.29-2.09-.15-4.02-2.22-1.52-2.66-3.45,1.19-2.3.75-4.22-2.74-1.41-3.17-3.34,2.08-2.5,1.64-4.43c-.28-1.24-.21-2.29-.28-3.53s-1.49-2.45-1.34-3.69,1.41-2.19,1.76-3.39-.32-2.75.24-3.88,1.79-1.81,2.54-2.83.46-2.98,1.37-3.86,2.98-.33,4.03-1.04,1.74-1.87,2.9-2.39c1.8-.81,1.91-.56,3.71-1.37s1.56-1.35,3.36-2.16,2.14-.06,3.94-.87,1.96-.45,3.77-1.26,1.3-1.93,3.1-2.74,2.28.01,3.47-1.57.36-1.79.65-3.75,1.89-1.72,2.18-3.67-1.28-2.18-.99-4.14-.83-2.12-.54-4.07,2.17-1.68,2.46-3.64-1.41-2.21-1.13-4.16c.19-1.26,2.11-2.14,2.5-3.32s-.93-3.22-.34-4.32,2.26-1.72,3.03-2.71,2.83-.69,3.76-1.54.7-3.1,1.76-3.78,1.92-2.1,3.09-2.59,2.68-.51,3.92-.79,2.6-.84,3.88-.91c1.97-.11,1.98.13,3.96.03s2.11,2.48,4.08,2.38,1.87-1.97,3.84-2.07,1.93-.96,3.9-1.07,2.02.8,4,.69,2.13.9,3.81-.14,2.28-.8,3.26-2.52-.25-2.41.73-4.13,1.55-1.39,2.52-3.11.82-1.8,1.8-3.52.92-1.75,1.9-3.47,1.77-1.27,2.74-3c.63-1.11.81-2.31,1.6-3.27s1.37-2.06,2.31-2.88,1.45-2.32,2.52-2.97,2.76-.05,3.93-.5,2.22-.96,3.46-1.21,2.34-2.28,3.6-2.31,2.54,1.38,3.8,1.56,2.67-.18,3.88.21c1.88.61,1.52,1.72,3.39,2.33s2.05.08,3.93.69,1.64,1.35,3.51,1.96,2.43-1.08,4.31-.46,1.57,1.57,3.45,2.18,1.96,2.62,3.9,2.26.74-2.93,2.27-4.18,2.88.41,4.41-.84,1.4-1.41,2.93-2.66.77-2.18,2.3-3.43,1.23-1.62,2.76-2.88,2.4-.2,3.93-1.45c.99-.81,1.1-2.92,2.18-3.53s2.38-1.32,3.55-1.74,2.59-.81,3.83-1.02,2.69,1.04,3.95,1.04,2.53-.23,3.77-.02,2.38.77,3.57,1.2,2.88-.11,3.99.52,1.26,2.65,2.25,3.45Z" style="fill: none; stroke: #000; stroke-miterlimit: 10; stroke-width: 15px;"/>
</svg>