<?xml version="1.0" encoding="UTF-8"?>
<svg id="SM_Icons" data-name="SM Icons" xmlns="http://www.w3.org/2000/svg" width="1000" height="1000" viewBox="0 0 1000 1000">
  <polygon points="883.373 500 883.146 512.043 882.795 524.089 884.901 536.389 880.765 548.112 880.183 560.225 875.916 571.722 875.941 584.042 873.228 595.837 870.638 607.687 867.294 619.347 860.422 629.764 858.818 642.07 854.858 653.564 848.146 663.826 843.61 675.079 838.941 686.335 831.085 695.801 822.692 704.782 819.602 717.201 811.214 726.109 802.535 734.668 795.636 744.572 789.192 754.96 781.604 764.449 773.116 773.124 762.954 780.027 753.393 787.431 744.296 795.319 735.758 803.953 726.623 811.938 717.366 819.861 705.386 823.659 694.796 829.407 686.015 838.379 673.852 841.227 664.461 849.513 652.271 851.894 641.705 857.916 630.164 861.551 619.016 866.295 607.908 871.42 595.715 872.771 584.048 875.99 572.354 879.271 560.202 880.063 547.984 879.764 536.123 882.068 524.041 882.01 512.071 884.027 500 884.42 487.985 882.22 475.936 882.391 463.876 882.062 451.981 880.027 439.794 880.064 427.838 878.236 415.7 877.098 404.443 872.133 393.211 867.542 381.545 864.549 369.775 861.702 357.794 859.163 347.675 852 336.221 848.046 326.389 840.736 315.164 836.219 304.726 830.195 294.58 823.695 283.305 818.858 272.575 813.023 265.754 801.991 255.552 795.487 246.429 787.618 238.399 778.573 226.517 773.475 218.701 764.148 213 753.013 203.958 744.895 196.552 735.365 187.696 726.89 179.976 717.477 174.491 706.562 170.424 694.896 161.931 685.845 157.339 674.584 151.386 664.037 148.283 652.194 142.134 641.685 136.774 630.767 132.924 619.27 128.301 607.989 126.639 595.866 123.101 584.25 120.161 572.462 118.925 560.362 117.682 548.304 116.408 536.265 115.327 524.206 114.932 512.104 116.481 500 113.333 487.848 116.056 475.84 114.926 463.595 119.762 451.954 122.523 440.201 124.334 428.325 122.684 415.652 125.687 403.885 130.744 392.714 135.68 381.619 135.965 368.934 142.024 358.264 148.378 347.838 151.051 335.796 156.887 325.175 164.868 315.763 169.025 304.264 176.235 294.536 181.339 283.439 187.489 272.947 194.831 263.285 205.621 256.469 212.537 246.565 219.39 236.484 227.299 227.291 236.089 218.954 246.347 212.275 254.976 203.802 264.358 196.196 274.985 190.273 283.008 180.689 294.559 176.253 303.685 168.029 315.127 163.695 325.436 157.379 337.029 153.648 347.488 147.549 357.64 140.431 369.611 137.825 380.438 132.024 393.34 132.883 404.844 129.412 415.669 122.739 428.072 122.972 440.032 121.432 452.106 120.961 463.977 118.998 475.737 114.402 487.884 114.533 500 114.612 512.081 115.649 524.224 115.033 536.085 118.35 547.938 120.624 560.228 119.797 572.231 121.403 584.284 122.971 596.064 125.887 607.624 129.579 619.458 132.363 629.79 139.507 641.435 142.785 653.072 146.277 663.03 153.542 673.729 159.034 684.979 163.522 696.33 168.023 706.908 173.965 716.519 181.4 725.199 190.037 734.926 197.134 745.293 203.493 754.961 210.808 764.131 218.735 773.174 226.833 778.885 238.119 787.461 246.58 796.014 255.128 805.023 263.412 810.855 274.165 816.586 284.864 823.747 294.559 830.043 304.827 837.68 314.37 841.98 325.764 847.097 336.678 855.118 346.332 856.525 358.847 861.242 369.947 867.446 380.61 869.53 392.64 874.844 403.755 875.155 416.138 877.889 427.908 879.339 439.911 881.987 451.738 884.591 463.642 884.07 475.831 884.437 487.916 883.373 500" style="fill: #fff;"/>
  <polygon points="883.373 500 883.146 512.043 882.795 524.089 884.901 536.389 880.765 548.112 880.183 560.225 875.916 571.722 875.941 584.042 873.228 595.837 870.638 607.687 867.294 619.347 860.422 629.764 858.818 642.07 854.858 653.564 848.146 663.826 843.61 675.079 838.941 686.335 831.085 695.801 822.692 704.782 819.602 717.201 811.214 726.109 802.535 734.668 795.636 744.572 789.192 754.96 781.604 764.449 773.116 773.124 762.954 780.027 753.393 787.431 744.296 795.319 735.758 803.953 726.623 811.938 717.366 819.861 705.386 823.659 694.796 829.407 686.015 838.379 673.852 841.227 664.461 849.513 652.271 851.894 641.705 857.916 630.164 861.551 619.016 866.295 607.908 871.42 595.715 872.771 584.048 875.99 572.354 879.271 560.202 880.063 547.984 879.764 536.123 882.068 524.041 882.01 512.071 884.027 500 884.42 487.985 882.22 475.936 882.391 463.876 882.062 451.981 880.027 439.794 880.064 427.838 878.236 415.7 877.098 404.443 872.133 393.211 867.542 381.545 864.549 369.775 861.702 357.794 859.163 347.675 852 336.221 848.046 326.389 840.736 315.164 836.219 304.726 830.195 294.58 823.695 283.305 818.858 272.575 813.023 265.754 801.991 255.552 795.487 246.429 787.618 238.399 778.573 226.517 773.475 218.701 764.148 213 753.013 203.958 744.895 196.552 735.365 187.696 726.89 179.976 717.477 174.491 706.562 170.424 694.896 161.931 685.845 157.339 674.584 151.386 664.037 148.283 652.194 142.134 641.685 136.774 630.767 132.924 619.27 128.301 607.989 126.639 595.866 123.101 584.25 120.161 572.462 118.925 560.362 117.682 548.304 116.408 536.265 115.327 524.206 114.932 512.104 116.481 500 113.333 487.848 116.056 475.84 114.926 463.595 119.762 451.954 122.523 440.201 124.334 428.325 122.684 415.652 125.687 403.885 130.744 392.714 135.68 381.619 135.965 368.934 142.024 358.264 148.378 347.838 151.051 335.796 156.887 325.175 164.868 315.763 169.025 304.264 176.235 294.536 181.339 283.439 187.489 272.947 194.831 263.285 205.621 256.469 212.537 246.565 219.39 236.484 227.299 227.291 236.089 218.954 246.347 212.275 254.976 203.802 264.358 196.196 274.985 190.273 283.008 180.689 294.559 176.253 303.685 168.029 315.127 163.695 325.436 157.379 337.029 153.648 347.488 147.549 357.64 140.431 369.611 137.825 380.438 132.024 393.34 132.883 404.844 129.412 415.669 122.739 428.072 122.972 440.032 121.432 452.106 120.961 463.977 118.998 475.737 114.402 487.884 114.533 500 114.612 512.081 115.649 524.224 115.033 536.085 118.35 547.938 120.624 560.228 119.797 572.231 121.403 584.284 122.971 596.064 125.887 607.624 129.579 619.458 132.363 629.79 139.507 641.435 142.785 653.072 146.277 663.03 153.542 673.729 159.034 684.979 163.522 696.33 168.023 706.908 173.965 716.519 181.4 725.199 190.037 734.926 197.134 745.293 203.493 754.961 210.808 764.131 218.735 773.174 226.833 778.885 238.119 787.461 246.58 796.014 255.128 805.023 263.412 810.855 274.165 816.586 284.864 823.747 294.559 830.043 304.827 837.68 314.37 841.98 325.764 847.097 336.678 855.118 346.332 856.525 358.847 861.242 369.947 867.446 380.61 869.53 392.64 874.844 403.755 875.155 416.138 877.889 427.908 879.339 439.911 881.987 451.738 884.591 463.642 884.07 475.831 884.437 487.916 883.373 500" style="fill: none; stroke: #000; stroke-miterlimit: 10; stroke-width: 30px;"/>
</svg>