<?xml version="1.0" encoding="UTF-8"?>
<svg id="Sticker" xmlns="http://www.w3.org/2000/svg" width="1000" height="1000" viewBox="0 0 1000 1000">
  <g>
    <polygon points="719.614 690.884 717.242 686.893 721.167 684.833 723.761 682.114 725.637 679.039 728.615 676.508 722.481 669.466 726.809 667.602 728.45 664.408 734.322 663.31 732.327 658.318 731.06 653.687 732.544 650.419 736.961 648.602 740.728 646.463 738.427 641.32 744.11 640.13 740.18 634.179 744.215 632.17 750.438 631.244 750.032 627.037 747.881 621.967 752.729 620.362 752.513 616.251 751.782 611.885 754.516 609.234 757.462 606.688 757.558 602.731 764.036 601.931 758.718 595.291 764.644 594.218 768.517 592.13 764.235 586.005 765.166 582.461 771.721 581.702 774.99 579.314 772.082 573.869 771.148 569.399 773.11 566.363 778.093 564.824 776.405 559.984 783.392 559.437 779.475 553.493 788.289 553.849 786.885 549.147 789.876 546.62 785.356 540.377 790.414 538.875 790.843 535.082 794.973 533.122 794.571 528.916 799.88 527.538 802.986 525.071 797.811 518.508 802.366 516.761 807.061 515.085 806.182 510.649 804.272 505.702 807.919 503.504 814.587 502.799 816.042 499.511 815.277 495.126 818.856 492.893 818.227 488.578 822.463 486.672 818.971 480.94 822.795 478.828 819.618 473.248 823.097 470.961 828.147 469.455 831.076 466.9 829.134 461.934 827.335 457.037 829.131 453.917 835.142 452.884 839.504 451.037 839.59 447.074 835.816 441.198 843.489 440.985 845.014 437.732 843.931 433.189 843.439 428.937 848.683 427.523 851.092 424.707 852.573 421.431 848.803 415.555 856.413 415.313 859.447 412.804 861.086 409.606 857.109 403.627 862.006 402.041 863.185 398.621 862.389 394.221 862.791 390.409 870.468 390.202 863.993 382.986 869.994 381.948 867.941 376.919 872.436 375.134 874.081 371.936 878.463 370.091 880.888 367.277 880.958 363.303 879.123 358.381 881.841 355.711 886.82 354.161 887.803 350.625 886.342 346.656 883.875 348.678 878.811 343.347 877.251 351.765 873.969 353.444 870.762 355.409 865.725 350.19 861.747 349.117 859.728 355.724 856.405 357.226 852.188 355.221 849.16 357.894 843.99 352.162 842.232 359.811 837.802 356.97 835.213 361.35 831.073 359.654 828.139 362.698 823.367 358.53 820.337 361.189 817.733 365.519 813.174 362.184 810.892 367.79 807.706 369.84 803.044 366.101 799.398 366.349 797.401 373.073 792.493 368.371 789.83 372.478 785.29 369.229 781.982 370.804 778.907 373.298 775.65 375.078 771.059 371.63 767.345 371.616 763.918 372.732 762.101 380.149 757.391 376.232 755.663 383.994 751.369 381.712 748.232 383.956 745.127 386.341 739.646 379.398 737.841 386.879 734.399 387.946 729.773 384.372 725.787 383.287 724.179 391.549 719.704 388.566 715.655 387.257 711.592 385.918 710.24 389.663 703.981 389.558 709.844 383.621 707.917 380.494 708.072 376.615 699.184 375.997 706.121 369.668 700.067 368.025 698.921 364.613 694.288 362.461 692.451 359.3 696.547 353.997 690.252 352.44 696.507 346.356 696.391 342.573 691.375 340.557 690.985 336.872 689.779 333.477 685.84 331.072 682.668 328.39 682.127 324.757 686.138 319.481 681.798 317.22 684.599 312.382 682.095 309.456 678.507 306.923 681.518 302.008 680.627 298.501 674.591 296.849 672.179 293.89 673.94 289.432 674.085 285.555 669.189 283.491 666.545 280.62 667.152 276.571 667.666 272.558 661.496 270.952 660.791 267.377 661.745 263.202 662.096 259.243 659.617 256.305 658.683 252.814 659.148 248.814 656.03 246.105 656.634 242.053 652.042 239.87 654.112 230.996 649.846 237.541 648.468 241.28 643.392 241.314 641.911 244.946 640.73 248.877 639.214 252.474 634.975 253.346 636.061 259.55 631.529 260.134 627.174 260.898 622.487 261.327 624.414 268.376 616.875 265.945 615.493 269.678 614.108 273.41 608.665 273.08 612.851 282.394 604.548 279.206 606.724 286.506 599.669 284.562 602.244 292.259 597.268 292.398 597.256 297.511 589.04 294.41 587.358 297.847 584.652 300.259 582.249 302.977 580.96 306.814 580.046 311.022 573.641 309.732 575.262 316.479 571.49 317.829 567.179 318.637 567.376 323.958 561.803 323.506 563.873 330.702 556.917 328.853 552.888 329.936 555.492 337.668 549.417 336.71 546.085 338.493 547.621 345.154 540.95 343.604 542.447 350.226 535.2 348.1 533.726 351.751 530.799 353.951 528.338 356.615 530.482 363.892 522.305 360.838 522.195 365.85 519.073 367.853 517.931 371.844 512.879 371.921 509.504 373.678 511.599 380.921 506.994 377.599 503.45 380.066 502.473 375.893 497.364 376.019 496.387 371.85 494.789 368.328 489.951 368.176 491.001 361.898 482.875 365.161 486.816 355.871 483.331 354.301 479.107 353.502 477.642 349.835 473.692 348.757 468.595 348.87 466.255 346.116 465.675 341.528 465.982 336.014 457.543 339.597 454.786 337.273 452.079 334.899 451.024 330.807 447.881 328.883 449.857 321.632 447.531 318.857 438.984 322.555 438.419 317.951 440.321 310.779 437.658 308.35 429.732 311.4 429.093 306.872 424.707 306.238 423.757 302.03 423.331 297.279 421.963 293.506 416.167 294.336 410.689 294.84 413.304 286.935 408.305 286.947 405.386 284.788 401.55 283.583 402.297 277.616 399.561 275.268 395.558 274.232 392.76 271.948 393.142 266.351 390.278 264.133 384.599 264.838 380.754 263.639 381.136 258.039 380.064 253.951 373.915 255.154 373.868 250.004 369.761 249.071 370.373 243.228 361.991 246.739 365.025 238.367 359.058 238.883 353.997 240.692 355.872 245.782 356.779 250.36 356.572 254.35 349.844 254.904 347.948 258.005 347.274 261.751 347.24 265.837 347.189 269.914 340.57 270.53 340.356 274.517 336.442 276.556 333.225 278.964 333.717 283.328 331.393 286.208 329.689 289.413 330.995 294.203 327.046 296.226 323.452 298.439 321.747 301.645 324.689 307.298 326.23 312.215 321.711 313.941 322.142 318.271 315.237 318.739 317.504 324.039 314.562 326.594 308.67 327.597 312.952 333.959 308.031 335.473 306.894 338.979 306.045 342.632 299.576 343.326 304.084 349.808 298.611 351.027 295.736 353.62 293.794 356.702 298.069 363.063 291.525 363.722 295.755 370.059 287.203 369.663 286.843 373.584 288.531 378.578 281.062 378.753 282.087 383.404 277.319 385.004 279.659 390.355 276.296 389.959 274.007 394.08 270.783 392.376 266.513 394.402 264.596 388.066 261.297 386.642 257.805 385.901 254.472 384.59 250.605 385.173 246.374 387.046 242.651 387.119 239.907 383.716 237.476 379.201 233.435 380.405 230.655 377.115 225.36 382.771 222.255 380.647 219.419 377.567 216.68 374.135 213.95 370.665 208.451 377.045 205.926 372.858 202.263 372.71 198.25 373.801 195.791 369.374 193.207 365.388 188.953 367.335 186.065 364.433 182.871 362.611 177.532 368.419 174.866 364.721 172.659 359.39 168.423 361.273 163.677 364.983 161.125 360.879 157.188 361.715 154.471 358.196 151.485 355.643 146.456 360.34 145.301 351.269 139.762 357.782 138.047 350.69 132.853 355.972 130.176 352.315 125.823 354.605 124.306 346.81 120.614 346.746 115.727 350.908 112.963 347.101 111.486 352.116 112.36 355.74 114.633 358.612 121.887 358.806 125.436 360.994 125.526 365.041 129.134 367.198 126.277 372.832 125.251 377.48 131.284 378.333 128.848 383.737 132.151 386.056 136.573 387.774 136.205 392.066 141.068 393.546 142.237 397.012 138.369 403.187 147.202 402.535 143.363 408.695 150.245 409.094 152.463 411.999 146.302 419.406 154.756 418.957 151.245 424.94 152.295 428.47 154.897 431.166 161.713 431.598 157.478 437.971 162.28 439.487 167.562 440.746 164.379 446.554 169.144 448.09 165.919 453.919 171.459 455.036 174.833 457.319 177.546 459.956 176.402 464.668 181.211 466.182 179.825 471.025 185.499 472.071 184.83 476.527 188.157 478.835 190.407 481.722 190.121 485.973 189.964 490.155 191.67 493.337 197.127 494.5 192.263 501.211 200.842 500.693 202.677 503.801 197.262 510.81 204.117 511.223 204.78 514.961 202.076 520.507 209.642 520.533 204.715 527.272 212.254 527.311 208.416 533.467 214.527 534.277 217.522 536.763 221.532 538.708 217.369 545.042 224.758 545.166 221.893 550.8 223.223 554.179 228.954 555.193 231.834 557.741 231.241 562.159 228.679 567.636 230.831 570.575 233.223 573.386 232.094 578.088 239.773 578.058 239.051 582.546 243.024 584.51 246.317 586.837 240.851 593.872 246.954 594.691 245.65 599.493 245.963 603.424 253.744 603.34 254.15 607.221 258.999 608.716 253.535 615.752 254.729 619.21 261.39 619.732 264.059 622.396 260.174 628.586 267.451 628.775 262.433 635.574 264.408 638.611 268.135 640.702 272.047 642.697 277.212 644.023 276.545 648.479 275.092 653.363 279.823 654.92 281.266 658.248 285.525 660.06 286.363 663.714 284.101 669.035 287.091 671.533 292.705 672.616 287.12 679.723 295.685 679.225 291.486 685.589 296.313 687.108 295.768 690.81 293.729 688.021 290.299 690.69 287.715 694.826 285.247 697.588 279.708 693.948 275.169 693.858 271.648 695.807 273.814 703.641 265.788 701.319 263.095 704.37 267.391 711.286 263.227 713.193 264.556 717.407 257.395 719.438 257.761 723.512 256.358 727.434 265.584 727.434 265.45 730.608 262.697 734.381 265.84 737.073 268.077 739.666 268.072 743.219 265.003 749.224 266.316 753.119 268.813 756.231 276.498 753.164 279.459 754.606 281.326 757.904 283.05 762.583 286.831 762.964 290.293 764.212 293.714 767.004 297.609 759.439 301.219 759.707 304.83 768.42 308.439 762.305 312.048 765.048 315.656 764.6 319.264 760.426 322.872 766.257 326.479 764.368 330.086 761.806 333.694 766.637 337.301 765.766 340.91 762.007 344.518 759.47 348.128 759.511 351.738 766.781 355.349 764.201 358.96 760.847 362.569 762.668 366.178 767.007 369.787 765.005 373.395 766.615 377.003 759.72 380.611 761.694 384.22 768.001 387.829 759.685 391.439 763.475 395.049 759.881 398.661 766.975 402.272 767.174 405.881 766.448 409.491 763.268 413.1 764.001 416.708 769.224 420.317 768.618 423.927 764.915 427.537 768.359 431.148 759.379 434.759 763.372 438.37 759.956 441.98 764.729 445.59 766.183 449.199 767.564 452.809 765.511 456.419 764.108 460.029 760.697 463.641 766.637 467.252 761.979 470.863 765.87 474.473 759.626 478.083 760.741 481.693 762.914 485.304 764.421 488.916 768.731 492.527 762.781 496.138 765.658 499.748 768.883 503.358 766.232 506.969 764.341 510.581 759.921 514.193 769.235 517.804 760.868 521.415 760.415 525.021 766.503 528.626 767.369 532.232 764.32 535.838 768.879 539.446 763.339 543.056 766.47 546.669 762.676 550.28 765.655 553.889 761.049 557.497 767.189 561.104 766.622 564.712 761.491 568.322 765.2 571.934 764.02 575.547 765.056 579.157 761.3 582.767 767.441 586.376 760.332 589.987 761.805 593.6 761.995 597.212 762.721 600.823 765.497 604.434 760.137 608.046 759.761 611.66 764.768 615.272 762.531 618.884 764.748 622.497 762.693 626.111 767.012 629.723 759.719 633.336 765.925 636.951 759.744 640.564 761.153 644.178 764.627 647.792 765.559 651.406 761.925 655.02 760.542 658.635 763.958 662.25 759.703 665.864 766.676 669.474 760.587 673.088 767.692 676.701 767.359 680.316 761.374 683.93 763.346 687.545 760.928 691.162 760.18 694.779 766.885 698.396 768.515 702.012 761.893 705.629 762.792 709.246 767.123 712.869 767.986 716.493 759.527 720.503 768.192 723.926 764.808 727.74 764.51 732.447 765.945 736.241 764.37 737.063 758.219 739.223 755.131 746.12 757.06 747.327 752.74 750.466 750.137 748.448 744.513 755.179 743.461 750.72 737.818 754.731 735.04 755.552 731.279 757.899 727.434 749.419 727.434 755.646 723.58 750.214 720.723 748.258 717.796 748.727 714.082 750.603 709.199 748.27 706.199 747.43 702.041 745.453 698.471 742.048 696.295 736.106 698.076 733.398 695.803 731.899 690.242 726.748 693.63 724.3 688.174 719.812 693.781 719.614 690.884" style="fill: #fff;"/>
    <polygon points="719.614 690.884 717.242 686.893 721.167 684.833 723.761 682.114 725.637 679.039 728.615 676.508 722.481 669.466 726.809 667.602 728.45 664.408 734.322 663.31 732.327 658.318 731.06 653.687 732.544 650.419 736.961 648.602 740.728 646.463 738.427 641.32 744.11 640.13 740.18 634.179 744.215 632.17 750.438 631.244 750.032 627.037 747.881 621.967 752.729 620.362 752.513 616.251 751.782 611.885 754.516 609.234 757.462 606.688 757.558 602.731 764.036 601.931 758.718 595.291 764.644 594.218 768.517 592.13 764.235 586.005 765.166 582.461 771.721 581.702 774.99 579.314 772.082 573.869 771.148 569.399 773.11 566.363 778.093 564.824 776.405 559.984 783.392 559.437 779.475 553.493 788.289 553.849 786.885 549.147 789.876 546.62 785.356 540.377 790.414 538.875 790.843 535.082 794.973 533.122 794.571 528.916 799.88 527.538 802.986 525.071 797.811 518.508 802.366 516.761 807.061 515.085 806.182 510.649 804.272 505.702 807.919 503.504 814.587 502.799 816.042 499.511 815.277 495.126 818.856 492.893 818.227 488.578 822.463 486.672 818.971 480.94 822.795 478.828 819.618 473.248 823.097 470.961 828.147 469.455 831.076 466.9 829.134 461.934 827.335 457.037 829.131 453.917 835.142 452.884 839.504 451.037 839.59 447.074 835.816 441.198 843.489 440.985 845.014 437.732 843.931 433.189 843.439 428.937 848.683 427.523 851.092 424.707 852.573 421.431 848.803 415.555 856.413 415.313 859.447 412.804 861.086 409.606 857.109 403.627 862.006 402.041 863.185 398.621 862.389 394.221 862.791 390.409 870.468 390.202 863.993 382.986 869.994 381.948 867.941 376.919 872.436 375.134 874.081 371.936 878.463 370.091 880.888 367.277 880.958 363.303 879.123 358.381 881.841 355.711 886.82 354.161 887.803 350.625 886.342 346.656 883.875 348.678 878.811 343.347 877.251 351.765 873.969 353.444 870.762 355.409 865.725 350.19 861.747 349.117 859.728 355.724 856.405 357.226 852.188 355.221 849.16 357.894 843.99 352.162 842.232 359.811 837.802 356.97 835.213 361.35 831.073 359.654 828.139 362.698 823.367 358.53 820.337 361.189 817.733 365.519 813.174 362.184 810.892 367.79 807.706 369.84 803.044 366.101 799.398 366.349 797.401 373.073 792.493 368.371 789.83 372.478 785.29 369.229 781.982 370.804 778.907 373.298 775.65 375.078 771.059 371.63 767.345 371.616 763.918 372.732 762.101 380.149 757.391 376.232 755.663 383.994 751.369 381.712 748.232 383.956 745.127 386.341 739.646 379.398 737.841 386.879 734.399 387.946 729.773 384.372 725.787 383.287 724.179 391.549 719.704 388.566 715.655 387.257 711.592 385.918 710.24 389.663 703.981 389.558 709.844 383.621 707.917 380.494 708.072 376.615 699.184 375.997 706.121 369.668 700.067 368.025 698.921 364.613 694.288 362.461 692.451 359.3 696.547 353.997 690.252 352.44 696.507 346.356 696.391 342.573 691.375 340.557 690.985 336.872 689.779 333.477 685.84 331.072 682.668 328.39 682.127 324.757 686.138 319.481 681.798 317.22 684.599 312.382 682.095 309.456 678.507 306.923 681.518 302.008 680.627 298.501 674.591 296.849 672.179 293.89 673.94 289.432 674.085 285.555 669.189 283.491 666.545 280.62 667.152 276.571 667.666 272.558 661.496 270.952 660.791 267.377 661.745 263.202 662.096 259.243 659.617 256.305 658.683 252.814 659.148 248.814 656.03 246.105 656.634 242.053 652.042 239.87 654.112 230.996 649.846 237.541 648.468 241.28 643.392 241.314 641.911 244.946 640.73 248.877 639.214 252.474 634.975 253.346 636.061 259.55 631.529 260.134 627.174 260.898 622.487 261.327 624.414 268.376 616.875 265.945 615.493 269.678 614.108 273.41 608.665 273.08 612.851 282.394 604.548 279.206 606.724 286.506 599.669 284.562 602.244 292.259 597.268 292.398 597.256 297.511 589.04 294.41 587.358 297.847 584.652 300.259 582.249 302.977 580.96 306.814 580.046 311.022 573.641 309.732 575.262 316.479 571.49 317.829 567.179 318.637 567.376 323.958 561.803 323.506 563.873 330.702 556.917 328.853 552.888 329.936 555.492 337.668 549.417 336.71 546.085 338.493 547.621 345.154 540.95 343.604 542.447 350.226 535.2 348.1 533.726 351.751 530.799 353.951 528.338 356.615 530.482 363.892 522.305 360.838 522.195 365.85 519.073 367.853 517.931 371.844 512.879 371.921 509.504 373.678 511.599 380.921 506.994 377.599 503.45 380.066 502.473 375.893 497.364 376.019 496.387 371.85 494.789 368.328 489.951 368.176 491.001 361.898 482.875 365.161 486.816 355.871 483.331 354.301 479.107 353.502 477.642 349.835 473.692 348.757 468.595 348.87 466.255 346.116 465.675 341.528 465.982 336.014 457.543 339.597 454.786 337.273 452.079 334.899 451.024 330.807 447.881 328.883 449.857 321.632 447.531 318.857 438.984 322.555 438.419 317.951 440.321 310.779 437.658 308.35 429.732 311.4 429.093 306.872 424.707 306.238 423.757 302.03 423.331 297.279 421.963 293.506 416.167 294.336 410.689 294.84 413.304 286.935 408.305 286.947 405.386 284.788 401.55 283.583 402.297 277.616 399.561 275.268 395.558 274.232 392.76 271.948 393.142 266.351 390.278 264.133 384.599 264.838 380.754 263.639 381.136 258.039 380.064 253.951 373.915 255.154 373.868 250.004 369.761 249.071 370.373 243.228 361.991 246.739 365.025 238.367 359.058 238.883 353.997 240.692 355.872 245.782 356.779 250.36 356.572 254.35 349.844 254.904 347.948 258.005 347.274 261.751 347.24 265.837 347.189 269.914 340.57 270.53 340.356 274.517 336.442 276.556 333.225 278.964 333.717 283.328 331.393 286.208 329.689 289.413 330.995 294.203 327.046 296.226 323.452 298.439 321.747 301.645 324.689 307.298 326.23 312.215 321.711 313.941 322.142 318.271 315.237 318.739 317.504 324.039 314.562 326.594 308.67 327.597 312.952 333.959 308.031 335.473 306.894 338.979 306.045 342.632 299.576 343.326 304.084 349.808 298.611 351.027 295.736 353.62 293.794 356.702 298.069 363.063 291.525 363.722 295.755 370.059 287.203 369.663 286.843 373.584 288.531 378.578 281.062 378.753 282.087 383.404 277.319 385.004 279.659 390.355 276.296 389.959 274.007 394.08 270.783 392.376 266.513 394.402 264.596 388.066 261.297 386.642 257.805 385.901 254.472 384.59 250.605 385.173 246.374 387.046 242.651 387.119 239.907 383.716 237.476 379.201 233.435 380.405 230.655 377.115 225.36 382.771 222.255 380.647 219.419 377.567 216.68 374.135 213.95 370.665 208.451 377.045 205.926 372.858 202.263 372.71 198.25 373.801 195.791 369.374 193.207 365.388 188.953 367.335 186.065 364.433 182.871 362.611 177.532 368.419 174.866 364.721 172.659 359.39 168.423 361.273 163.677 364.983 161.125 360.879 157.188 361.715 154.471 358.196 151.485 355.643 146.456 360.34 145.301 351.269 139.762 357.782 138.047 350.69 132.853 355.972 130.176 352.315 125.823 354.605 124.306 346.81 120.614 346.746 115.727 350.908 112.963 347.101 111.486 352.116 112.36 355.74 114.633 358.612 121.887 358.806 125.436 360.994 125.526 365.041 129.134 367.198 126.277 372.832 125.251 377.48 131.284 378.333 128.848 383.737 132.151 386.056 136.573 387.774 136.205 392.066 141.068 393.546 142.237 397.012 138.369 403.187 147.202 402.535 143.363 408.695 150.245 409.094 152.463 411.999 146.302 419.406 154.756 418.957 151.245 424.94 152.295 428.47 154.897 431.166 161.713 431.598 157.478 437.971 162.28 439.487 167.562 440.746 164.379 446.554 169.144 448.09 165.919 453.919 171.459 455.036 174.833 457.319 177.546 459.956 176.402 464.668 181.211 466.182 179.825 471.025 185.499 472.071 184.83 476.527 188.157 478.835 190.407 481.722 190.121 485.973 189.964 490.155 191.67 493.337 197.127 494.5 192.263 501.211 200.842 500.693 202.677 503.801 197.262 510.81 204.117 511.223 204.78 514.961 202.076 520.507 209.642 520.533 204.715 527.272 212.254 527.311 208.416 533.467 214.527 534.277 217.522 536.763 221.532 538.708 217.369 545.042 224.758 545.166 221.893 550.8 223.223 554.179 228.954 555.193 231.834 557.741 231.241 562.159 228.679 567.636 230.831 570.575 233.223 573.386 232.094 578.088 239.773 578.058 239.051 582.546 243.024 584.51 246.317 586.837 240.851 593.872 246.954 594.691 245.65 599.493 245.963 603.424 253.744 603.34 254.15 607.221 258.999 608.716 253.535 615.752 254.729 619.21 261.39 619.732 264.059 622.396 260.174 628.586 267.451 628.775 262.433 635.574 264.408 638.611 268.135 640.702 272.047 642.697 277.212 644.023 276.545 648.479 275.092 653.363 279.823 654.92 281.266 658.248 285.525 660.06 286.363 663.714 284.101 669.035 287.091 671.533 292.705 672.616 287.12 679.723 295.685 679.225 291.486 685.589 296.313 687.108 295.768 690.81 293.729 688.021 290.299 690.69 287.715 694.826 285.247 697.588 279.708 693.948 275.169 693.858 271.648 695.807 273.814 703.641 265.788 701.319 263.095 704.37 267.391 711.286 263.227 713.193 264.556 717.407 257.395 719.438 257.761 723.512 256.358 727.434 265.584 727.434 265.45 730.608 262.697 734.381 265.84 737.073 268.077 739.666 268.072 743.219 265.003 749.224 266.316 753.119 268.813 756.231 276.498 753.164 279.459 754.606 281.326 757.904 283.05 762.583 286.831 762.964 290.293 764.212 293.714 767.004 297.609 759.439 301.219 759.707 304.83 768.42 308.439 762.305 312.048 765.048 315.656 764.6 319.264 760.426 322.872 766.257 326.479 764.368 330.086 761.806 333.694 766.637 337.301 765.766 340.91 762.007 344.518 759.47 348.128 759.511 351.738 766.781 355.349 764.201 358.96 760.847 362.569 762.668 366.178 767.007 369.787 765.005 373.395 766.615 377.003 759.72 380.611 761.694 384.22 768.001 387.829 759.685 391.439 763.475 395.049 759.881 398.661 766.975 402.272 767.174 405.881 766.448 409.491 763.268 413.1 764.001 416.708 769.224 420.317 768.618 423.927 764.915 427.537 768.359 431.148 759.379 434.759 763.372 438.37 759.956 441.98 764.729 445.59 766.183 449.199 767.564 452.809 765.511 456.419 764.108 460.029 760.697 463.641 766.637 467.252 761.979 470.863 765.87 474.473 759.626 478.083 760.741 481.693 762.914 485.304 764.421 488.916 768.731 492.527 762.781 496.138 765.658 499.748 768.883 503.358 766.232 506.969 764.341 510.581 759.921 514.193 769.235 517.804 760.868 521.415 760.415 525.021 766.503 528.626 767.369 532.232 764.32 535.838 768.879 539.446 763.339 543.056 766.47 546.669 762.676 550.28 765.655 553.889 761.049 557.497 767.189 561.104 766.622 564.712 761.491 568.322 765.2 571.934 764.02 575.547 765.056 579.157 761.3 582.767 767.441 586.376 760.332 589.987 761.805 593.6 761.995 597.212 762.721 600.823 765.497 604.434 760.137 608.046 759.761 611.66 764.768 615.272 762.531 618.884 764.748 622.497 762.693 626.111 767.012 629.723 759.719 633.336 765.925 636.951 759.744 640.564 761.153 644.178 764.627 647.792 765.559 651.406 761.925 655.02 760.542 658.635 763.958 662.25 759.703 665.864 766.676 669.474 760.587 673.088 767.692 676.701 767.359 680.316 761.374 683.93 763.346 687.545 760.928 691.162 760.18 694.779 766.885 698.396 768.515 702.012 761.893 705.629 762.792 709.246 767.123 712.869 767.986 716.493 759.527 720.503 768.192 723.926 764.808 727.74 764.51 732.447 765.945 736.241 764.37 737.063 758.219 739.223 755.131 746.12 757.06 747.327 752.74 750.466 750.137 748.448 744.513 755.179 743.461 750.72 737.818 754.731 735.04 755.552 731.279 757.899 727.434 749.419 727.434 755.646 723.58 750.214 720.723 748.258 717.796 748.727 714.082 750.603 709.199 748.27 706.199 747.43 702.041 745.453 698.471 742.048 696.295 736.106 698.076 733.398 695.803 731.899 690.242 726.748 693.63 724.3 688.174 719.812 693.781 719.614 690.884" style="fill: none; stroke: #000; stroke-linecap: round; stroke-linejoin: round; stroke-width: 40px;"/>
  </g>
  <polygon points="547.258 533.939 547.764 537.526 553.59 541.572 544.196 544.329 548.154 548.457 545.338 551.612 545.945 555.413 548.305 559.845 543.766 562.287 540.848 565.022 540.506 568.71 539.212 572.043 541.285 577.3 538.328 579.913 537.473 583.884 534.483 586.387 527.77 585.397 526.219 588.705 523.875 591.329 524.792 598.567 518.687 596.209 516.981 600.739 511.241 596.655 508.641 599.434 504.894 598.17 502.051 602.32 498.467 602.668 495.08 600.266 491.713 599.829 486.881 604.206 484.185 600.436 479.512 601.602 477.395 597.589 475.951 593.29 469.618 595.403 468.336 591.153 466.538 587.77 462.43 586.395 458.85 584.312 463.004 577.129 459.806 574.962 454.914 573.436 458.778 567.677 452.758 566.306 450.541 563.171 446.821 560.369 446.793 556.433 448.208 552.289 445.79 548.931 452.16 544.401 447.682 541.243 446.075 537.647 446.336 533.939 452.491 530.477 452.438 527.004 445.389 522.694 453.341 520.135 446.966 515.346 448.768 511.927 447.052 507.58 448.961 504.183 449.071 500.154 454.665 498.393 454.924 494.442 460.239 493.155 456.54 486.658 462.904 486.443 467.97 485.918 464.805 478.522 471.545 480.03 473.697 477.306 473.685 471.443 475.806 467.673 481.831 470.877 483.207 464.962 486.369 461.917 491.854 468.756 494.556 462.166 498.467 463.94 501.825 467.916 505.719 465.488 510.289 462.872 513.116 466.518 516.073 468.961 516.65 475.016 519.873 476.121 524.582 475.72 529.902 475.377 527.779 482.483 530.783 484.468 533.075 487.129 533.703 490.892 542.157 490.093 536.867 497.005 543.24 497.967 547.458 500.307 544.402 505.373 549.251 507.756 548.4 511.866 548.133 515.706 543.291 520.177 553.054 522.514 547.162 526.795 548.545 530.319 547.258 533.939" style="fill: none; stroke: #000; stroke-linecap: round; stroke-linejoin: round; stroke-width: 40px;"/>
</svg>