<?xml version="1.0" encoding="UTF-8"?>
<svg id="Sticker" xmlns="http://www.w3.org/2000/svg" width="1000" height="1000" viewBox="0 0 1000 1000">
  <polygon points="708.955 838.976 706.49 837.059 703.438 834.468 707.216 828.91 704.848 826.02 705.645 821.756 700.916 819.89 702.28 815.377 696.932 813.78 693.981 811.143 699.827 804.687 694.666 803.011 688.58 801.735 694.9 795.073 686.624 794.748 684.995 791.535 682.691 788.615 689.045 781.937 685.241 779.671 683.807 776.375 682.67 772.95 681.337 769.61 674.301 768.745 678.272 763.1 679.627 758.593 671.077 758.387 673.767 753.3 669.848 751.083 665.575 749.018 667.055 744.456 662.537 742.501 665.608 737.252 662.022 734.896 664.803 729.774 662.643 726.798 657.386 725.167 657.017 721.411 654.47 718.598 651.472 715.978 654.906 710.568 651.045 708.327 649.935 704.893 646.963 702.267 651.163 696.527 649.827 693.189 642.503 692.448 645.452 687.247 641.165 685.189 639.193 682.128 643.986 676.129 637.866 674.867 636.576 671.505 637.048 667.379 630.908 666.126 631.682 661.871 632.267 657.696 628.24 655.521 627.992 651.708 629.098 647.308 623.199 645.948 624.062 641.65 623.356 638.036 617.288 636.749 618.541 632.281 615.588 629.642 617.857 624.733 612.889 622.968 613.786 618.655 616.653 613.487 611.066 611.997 605.645 610.432 605.417 606.607 602.398 603.999 606.127 598.455 599.267 597.512 599.66 593.416 603.355 587.888 601.147 584.922 594.459 583.9 599.036 577.985 595.973 575.393 594.321 572.184 592.923 568.864 591.602 565.509 587.058 563.548 588.8 559.112 591.242 557.502 592.747 552.524 599.944 558.565 598.776 548.834 605.037 552.657 605.363 546.12 608.055 543.746 611.692 542.874 616.896 544.262 621.38 544.372 622.961 540.3 623.989 535.625 629.296 536.649 633.795 536.445 634.407 531.42 638.597 530.737 641.67 528.685 640.518 522.022 645.67 522.252 645.842 517.254 646.048 512.454 652.565 513.777 653.089 509.359 657.495 508.489 655.753 502.249 659.798 501.018 665.76 501.21 662.127 493.824 665.018 491.589 673.065 493 674.331 489.429 677.233 486.984 678.495 483.447 681.935 481.286 675.988 473.491 685.576 474.902 687.42 471.725 687.573 467.656 690.694 465.148 690.116 460.795 692.152 457.737 691.934 453.667 695.923 451.428 691.536 445.746 696.631 443.882 692.362 438.507 702.755 438.321 703.788 434.783 696.293 428.68 705.645 427.654 701.847 422.849 699.494 418.574 704.33 416.047 705.458 412.598 703.897 408.623 707.448 405.611 703.637 401.354 703.088 397.698 708.025 394.735 710.091 391.322 712.422 387.872 713.174 384.245 703.887 380.09 708.366 376.725 712.292 373.2 706.267 369.545 709.599 365.926 704.374 362.482 708.868 358.716 708.846 355.098 708.2 351.525 712.071 347.5 709.132 344.146 703.579 341.24 710.54 336.567 706.919 333.461 709.956 329.189 705.687 326.311 708.699 321.905 698.853 320.519 699.728 316.632 699.013 313.129 698.12 309.669 697.898 305.989 696.983 302.512 696.626 298.824 700.076 293.657 698.684 290.236 691.023 289.447 691.841 285.181 689.709 282.181 692.397 276.882 685.184 276.39 683.072 273.459 680.211 270.958 679.453 267.308 678.404 263.786 675.777 261.201 675.521 257.13 672.685 254.697 668.474 253.256 671.076 247.041 668.92 244.118 664.238 243.142 665.107 237.869 662.398 235.379 661.444 231.409 658.7 228.941 653.879 228.397 651.357 225.822 652.105 220.034 648.254 218.7 641.195 220.831 642.584 214.081 641.721 209.566 635.872 210.724 630.135 212.001 629.281 207.417 628.977 201.947 623.039 203.816 620.095 201.807 617.246 199.665 618.224 191.772 615.439 189.289 608.663 193.229 608.411 186.654 603.911 187.135 600.977 184.95 595.029 188.46 594.048 182.563 590.259 182.105 588.272 177.842 585.554 174.976 582.667 172.377 577.603 175.105 575.059 171.625 570.09 174.647 566.667 173.614 563.799 170.862 559.261 173.435 556.723 169.42 552.378 171.813 549.843 167.339 545.685 169.416 542.899 165.435 540.091 160.95 535.334 166.936 532.941 159.22 528.756 162.672 525.646 158.337 521.582 161.961 518.03 161.22 514.713 156.81 511.062 156.117 507.111 163.797 503.546 164.28 500 161.233 496.386 160.273 492.892 163.858 489.202 161.3 485.36 157.878 481.717 158.27 478.886 166.536 474.191 157.005 470.959 160.628 468.191 166.53 463.76 161.729 460.41 163.602 456.112 160.734 453.59 166.258 450.18 167.46 446.021 165.784 442.772 167.665 439.489 169.322 436.194 170.868 431.779 169.073 430.273 175.683 425.663 173.558 423.027 176.709 417.655 173.169 416.311 179.239 412.247 178.992 409.947 182.557 406.668 184.011 403.111 184.948 398.352 183.752 397.619 189.841 393.142 189.294 388.485 188.636 385.575 190.893 386.661 199.126 378.387 193.373 377.758 198.836 378.137 205.418 371.394 202.451 372.186 209.276 369.946 212.119 364.229 210.863 358.163 209.456 358.429 215.206 358.187 220.201 351.592 218.563 353.161 225.23 346.369 223.681 346.114 228.409 341.772 229.377 342.134 234.491 337.036 234.929 337.896 240.284 331.07 239.542 329.036 242.615 327.361 245.936 324.189 248.198 324.929 253.122 320.391 254.522 319.148 258.081 316.468 260.754 314.939 264.121 319.718 270.933 315.28 272.606 314.944 276.468 307.624 276.905 307.958 281.117 312.515 287.111 307.915 289.013 306.689 292.393 302.799 294.759 300.66 297.857 298.682 301.046 305.402 307.057 298.67 308.709 294.437 311.284 295.196 315.299 300.748 320.428 299.652 323.811 294.574 326.372 298.172 330.747 295.725 333.923 290.229 336.691 292.613 340.718 288.044 343.81 295.075 348.237 287.318 351.143 286.461 354.778 295.958 358.962 286.862 362.184 295.263 366.008 291.538 369.545 289.775 373.194 288.154 376.9 290.753 380.449 286.461 384.388 295.19 387.366 288.198 391.674 297.088 394.322 288.917 399.034 294.14 401.961 296.059 405.296 298.566 408.472 292.325 413.421 293.065 417.029 296.511 419.972 301.288 422.465 298.38 427 300.191 430.251 300.494 433.959 302.498 437.117 305.999 439.701 307.269 443.046 304.932 447.84 304.25 452.086 312.019 452.675 312.762 456.26 308.103 462.499 313.066 464.13 313.666 467.924 321.159 467.966 322.03 471.549 324.544 474.191 325.308 477.888 321.32 484.708 329.082 483.943 331.535 486.583 331.894 490.713 333.977 493.644 336.112 496.539 339.712 498.26 341.424 501.475 338.912 508.368 345.305 507.604 343.476 514.194 345.571 517.306 354.145 514.031 353.761 519.527 356.852 521.545 359.048 524.515 364.324 524.018 365.53 528.11 369.577 528.863 368.53 535.944 370.668 539.206 375.473 538.923 377.64 542.171 384.773 538.249 385.398 543.74 386.626 548.556 390.943 548.54 396.642 546.015 395.521 555.226 400.595 553.617 405.508 555.361 403.453 558.971 405.463 563.651 396.193 563.821 400.661 569.483 397.223 571.986 397.305 575.897 393.066 578.082 392.152 581.594 394.569 586.438 394.907 590.449 390.725 592.654 384.389 593.998 382.407 597.082 384.516 601.803 386.651 606.536 379.483 607.549 380.224 611.723 377.076 614.341 382.035 620.201 380.134 623.318 376.655 625.805 378.15 630.282 376.772 633.61 373.82 636.307 374.29 640.373 364.729 640.428 365.515 644.621 364.702 648.175 366.606 652.814 365.593 656.285 365.201 660.002 357.14 660.653 363.388 667.022 356.488 668.137 360.646 673.673 357.286 676.204 353.454 678.55 354.565 682.874 347.19 683.804 352.431 689.775 348.983 692.272 349.175 696.223 347.739 699.525 343.864 701.852 344.532 705.999 341.931 708.839 341.677 712.615 337.102 714.663 334.956 717.682 337.442 722.553 335.911 725.822 337.498 730.336 336.858 733.959 334.818 737.021 329.822 738.903 329.36 742.601 325.604 744.979 328.449 749.995 320.743 750.794 323.653 755.84 320.339 758.394 321.754 762.84 315.392 764.179 322.521 770.91 315.53 771.997 315.937 776.041 317.391 780.504 313.479 782.822 310.021 785.315 314.649 791.043 312.038 793.881 308.696 796.424 308.535 800.242 306.523 803.318 302.02 805.402 300.762 808.781 305.208 814.442 303.69 817.721 294.56 817.957 298.975 823.602 291.231 824.392 296.068 830.211 293.642 833.128 289.646 835.424 287.219 841.524 293.779 835.767 297.365 836.154 300.95 841.391 304.535 842.441 308.12 843.572 311.703 842.595 315.286 838.472 318.869 837.588 322.452 834.818 326.035 837.35 329.618 837.504 333.201 843.424 336.784 834.77 340.368 840.566 343.953 840.358 347.539 841.58 351.126 841.791 354.711 841.951 358.296 839.27 361.881 834.923 365.465 840.36 369.048 842.162 372.632 837.416 376.215 838.881 379.799 841.325 383.384 843.996 386.969 840.336 390.555 844.312 394.142 840.348 397.728 835.605 401.313 836.627 404.898 841.604 408.482 840.465 412.066 842.905 415.651 841.356 419.235 840.696 422.821 839.707 426.407 843.378 429.994 840.627 433.58 836.701 437.166 839.717 440.751 838.438 444.336 840.731 447.92 835.82 451.506 836.302 455.092 836.569 458.679 840.33 462.266 841.243 465.852 837.853 469.437 844.407 473.022 839.101 476.608 843.712 480.194 842.574 483.781 837.955 487.368 841.289 490.954 836.44 494.54 840.463 498.126 841.135 501.712 837.591 505.299 839.08 508.886 840.966 512.473 843.836 516.059 843.821 519.64 840.413 523.221 842.264 526.802 836.67 530.384 839.796 533.967 844.466 537.552 843.105 541.141 834.62 544.727 836.865 548.311 839.721 551.895 843.15 555.478 836.745 559.061 837.532 562.646 836.138 566.234 842.732 569.822 844.165 573.408 835.607 576.992 839.633 580.577 838.002 584.163 843.485 587.752 840.321 591.34 838.745 594.926 842.378 598.512 837.858 602.099 842.843 605.689 843.149 609.277 840.237 612.863 842.874 616.452 838.637 620.041 838.711 623.629 843.799 627.217 839.457 630.807 844.097 634.395 838.778 637.985 839.119 641.574 840.963 645.164 840.897 648.753 836.383 652.344 842.153 655.93 836.669 659.519 836.49 663.105 837.057 666.695 840.807 670.283 838.83 673.875 844.203 677.464 836.933 681.055 843.928 684.647 835.497 688.24 841.353 691.832 835.829 695.424 843.163 699.016 836.292 702.609 838.834 706.249 840.001 708.955 838.976" style="fill: #fff;"/>
  <polygon points="708.955 838.976 706.49 837.059 703.438 834.468 707.216 828.91 704.848 826.02 705.645 821.756 700.916 819.89 702.28 815.377 696.932 813.78 693.981 811.143 699.827 804.687 694.666 803.011 688.58 801.735 694.9 795.073 686.624 794.748 684.995 791.535 682.691 788.615 689.045 781.937 685.241 779.671 683.807 776.375 682.67 772.95 681.337 769.61 674.301 768.745 678.272 763.1 679.627 758.593 671.077 758.387 673.767 753.3 669.848 751.083 665.575 749.018 667.055 744.456 662.537 742.501 665.608 737.252 662.022 734.896 664.803 729.774 662.643 726.798 657.386 725.167 657.017 721.411 654.47 718.598 651.472 715.978 654.906 710.568 651.045 708.327 649.935 704.893 646.963 702.267 651.163 696.527 649.827 693.189 642.503 692.448 645.452 687.247 641.165 685.189 639.193 682.128 643.986 676.129 637.866 674.867 636.576 671.505 637.048 667.379 630.908 666.126 631.682 661.871 632.267 657.696 628.24 655.521 627.992 651.708 629.098 647.308 623.199 645.948 624.062 641.65 623.356 638.036 617.288 636.749 618.541 632.281 615.588 629.642 617.857 624.733 612.889 622.968 613.786 618.655 616.653 613.487 611.066 611.997 605.645 610.432 605.417 606.607 602.398 603.999 606.127 598.455 599.267 597.512 599.66 593.416 603.355 587.888 601.147 584.922 594.459 583.9 599.036 577.985 595.973 575.393 594.321 572.184 592.923 568.864 591.602 565.509 587.058 563.548 588.8 559.112 591.242 557.502 592.747 552.524 599.944 558.565 598.776 548.834 605.037 552.657 605.363 546.12 608.055 543.746 611.692 542.874 616.896 544.262 621.38 544.372 622.961 540.3 623.989 535.625 629.296 536.649 633.795 536.445 634.407 531.42 638.597 530.737 641.67 528.685 640.518 522.022 645.67 522.252 645.842 517.254 646.048 512.454 652.565 513.777 653.089 509.359 657.495 508.489 655.753 502.249 659.798 501.018 665.76 501.21 662.127 493.824 665.018 491.589 673.065 493 674.331 489.429 677.233 486.984 678.495 483.447 681.935 481.286 675.988 473.491 685.576 474.902 687.42 471.725 687.573 467.656 690.694 465.148 690.116 460.795 692.152 457.737 691.934 453.667 695.923 451.428 691.536 445.746 696.631 443.882 692.362 438.507 702.755 438.321 703.788 434.783 696.293 428.68 705.645 427.654 701.847 422.849 699.494 418.574 704.33 416.047 705.458 412.598 703.897 408.623 707.448 405.611 703.637 401.354 703.088 397.698 708.025 394.735 710.091 391.322 712.422 387.872 713.174 384.245 703.887 380.09 708.366 376.725 712.292 373.2 706.267 369.545 709.599 365.926 704.374 362.482 708.868 358.716 708.846 355.098 708.2 351.525 712.071 347.5 709.132 344.146 703.579 341.24 710.54 336.567 706.919 333.461 709.956 329.189 705.687 326.311 708.699 321.905 698.853 320.519 699.728 316.632 699.013 313.129 698.12 309.669 697.898 305.989 696.983 302.512 696.626 298.824 700.076 293.657 698.684 290.236 691.023 289.447 691.841 285.181 689.709 282.181 692.397 276.882 685.184 276.39 683.072 273.459 680.211 270.958 679.453 267.308 678.404 263.786 675.777 261.201 675.521 257.13 672.685 254.697 668.474 253.256 671.076 247.041 668.92 244.118 664.238 243.142 665.107 237.869 662.398 235.379 661.444 231.409 658.7 228.941 653.879 228.397 651.357 225.822 652.105 220.034 648.254 218.7 641.195 220.831 642.584 214.081 641.721 209.566 635.872 210.724 630.135 212.001 629.281 207.417 628.977 201.947 623.039 203.816 620.095 201.807 617.246 199.665 618.224 191.772 615.439 189.289 608.663 193.229 608.411 186.654 603.911 187.135 600.977 184.95 595.029 188.46 594.048 182.563 590.259 182.105 588.272 177.842 585.554 174.976 582.667 172.377 577.603 175.105 575.059 171.625 570.09 174.647 566.667 173.614 563.799 170.862 559.261 173.435 556.723 169.42 552.378 171.813 549.843 167.339 545.685 169.416 542.899 165.435 540.091 160.95 535.334 166.936 532.941 159.22 528.756 162.672 525.646 158.337 521.582 161.961 518.03 161.22 514.713 156.81 511.062 156.117 507.111 163.797 503.546 164.28 500 161.233 496.386 160.273 492.892 163.858 489.202 161.3 485.36 157.878 481.717 158.27 478.886 166.536 474.191 157.005 470.959 160.628 468.191 166.53 463.76 161.729 460.41 163.602 456.112 160.734 453.59 166.258 450.18 167.46 446.021 165.784 442.772 167.665 439.489 169.322 436.194 170.868 431.779 169.073 430.273 175.683 425.663 173.558 423.027 176.709 417.655 173.169 416.311 179.239 412.247 178.992 409.947 182.557 406.668 184.011 403.111 184.948 398.352 183.752 397.619 189.841 393.142 189.294 388.485 188.636 385.575 190.893 386.661 199.126 378.387 193.373 377.758 198.836 378.137 205.418 371.394 202.451 372.186 209.276 369.946 212.119 364.229 210.863 358.163 209.456 358.429 215.206 358.187 220.201 351.592 218.563 353.161 225.23 346.369 223.681 346.114 228.409 341.772 229.377 342.134 234.491 337.036 234.929 337.896 240.284 331.07 239.542 329.036 242.615 327.361 245.936 324.189 248.198 324.929 253.122 320.391 254.522 319.148 258.081 316.468 260.754 314.939 264.121 319.718 270.933 315.28 272.606 314.944 276.468 307.624 276.905 307.958 281.117 312.515 287.111 307.915 289.013 306.689 292.393 302.799 294.759 300.66 297.857 298.682 301.046 305.402 307.057 298.67 308.709 294.437 311.284 295.196 315.299 300.748 320.428 299.652 323.811 294.574 326.372 298.172 330.747 295.725 333.923 290.229 336.691 292.613 340.718 288.044 343.81 295.075 348.237 287.318 351.143 286.461 354.778 295.958 358.962 286.862 362.184 295.263 366.008 291.538 369.545 289.775 373.194 288.154 376.9 290.753 380.449 286.461 384.388 295.19 387.366 288.198 391.674 297.088 394.322 288.917 399.034 294.14 401.961 296.059 405.296 298.566 408.472 292.325 413.421 293.065 417.029 296.511 419.972 301.288 422.465 298.38 427 300.191 430.251 300.494 433.959 302.498 437.117 305.999 439.701 307.269 443.046 304.932 447.84 304.25 452.086 312.019 452.675 312.762 456.26 308.103 462.499 313.066 464.13 313.666 467.924 321.159 467.966 322.03 471.549 324.544 474.191 325.308 477.888 321.32 484.708 329.082 483.943 331.535 486.583 331.894 490.713 333.977 493.644 336.112 496.539 339.712 498.26 341.424 501.475 338.912 508.368 345.305 507.604 343.476 514.194 345.571 517.306 354.145 514.031 353.761 519.527 356.852 521.545 359.048 524.515 364.324 524.018 365.53 528.11 369.577 528.863 368.53 535.944 370.668 539.206 375.473 538.923 377.64 542.171 384.773 538.249 385.398 543.74 386.626 548.556 390.943 548.54 396.642 546.015 395.521 555.226 400.595 553.617 405.508 555.361 403.453 558.971 405.463 563.651 396.193 563.821 400.661 569.483 397.223 571.986 397.305 575.897 393.066 578.082 392.152 581.594 394.569 586.438 394.907 590.449 390.725 592.654 384.389 593.998 382.407 597.082 384.516 601.803 386.651 606.536 379.483 607.549 380.224 611.723 377.076 614.341 382.035 620.201 380.134 623.318 376.655 625.805 378.15 630.282 376.772 633.61 373.82 636.307 374.29 640.373 364.729 640.428 365.515 644.621 364.702 648.175 366.606 652.814 365.593 656.285 365.201 660.002 357.14 660.653 363.388 667.022 356.488 668.137 360.646 673.673 357.286 676.204 353.454 678.55 354.565 682.874 347.19 683.804 352.431 689.775 348.983 692.272 349.175 696.223 347.739 699.525 343.864 701.852 344.532 705.999 341.931 708.839 341.677 712.615 337.102 714.663 334.956 717.682 337.442 722.553 335.911 725.822 337.498 730.336 336.858 733.959 334.818 737.021 329.822 738.903 329.36 742.601 325.604 744.979 328.449 749.995 320.743 750.794 323.653 755.84 320.339 758.394 321.754 762.84 315.392 764.179 322.521 770.91 315.53 771.997 315.937 776.041 317.391 780.504 313.479 782.822 310.021 785.315 314.649 791.043 312.038 793.881 308.696 796.424 308.535 800.242 306.523 803.318 302.02 805.402 300.762 808.781 305.208 814.442 303.69 817.721 294.56 817.957 298.975 823.602 291.231 824.392 296.068 830.211 293.642 833.128 289.646 835.424 287.219 841.524 293.779 835.767 297.365 836.154 300.95 841.391 304.535 842.441 308.12 843.572 311.703 842.595 315.286 838.472 318.869 837.588 322.452 834.818 326.035 837.35 329.618 837.504 333.201 843.424 336.784 834.77 340.368 840.566 343.953 840.358 347.539 841.58 351.126 841.791 354.711 841.951 358.296 839.27 361.881 834.923 365.465 840.36 369.048 842.162 372.632 837.416 376.215 838.881 379.799 841.325 383.384 843.996 386.969 840.336 390.555 844.312 394.142 840.348 397.728 835.605 401.313 836.627 404.898 841.604 408.482 840.465 412.066 842.905 415.651 841.356 419.235 840.696 422.821 839.707 426.407 843.378 429.994 840.627 433.58 836.701 437.166 839.717 440.751 838.438 444.336 840.731 447.92 835.82 451.506 836.302 455.092 836.569 458.679 840.33 462.266 841.243 465.852 837.853 469.437 844.407 473.022 839.101 476.608 843.712 480.194 842.574 483.781 837.955 487.368 841.289 490.954 836.44 494.54 840.463 498.126 841.135 501.712 837.591 505.299 839.08 508.886 840.966 512.473 843.836 516.059 843.821 519.64 840.413 523.221 842.264 526.802 836.67 530.384 839.796 533.967 844.466 537.552 843.105 541.141 834.62 544.727 836.865 548.311 839.721 551.895 843.15 555.478 836.745 559.061 837.532 562.646 836.138 566.234 842.732 569.822 844.165 573.408 835.607 576.992 839.633 580.577 838.002 584.163 843.485 587.752 840.321 591.34 838.745 594.926 842.378 598.512 837.858 602.099 842.843 605.689 843.149 609.277 840.237 612.863 842.874 616.452 838.637 620.041 838.711 623.629 843.799 627.217 839.457 630.807 844.097 634.395 838.778 637.985 839.119 641.574 840.963 645.164 840.897 648.753 836.383 652.344 842.153 655.93 836.669 659.519 836.49 663.105 837.057 666.695 840.807 670.283 838.83 673.875 844.203 677.464 836.933 681.055 843.928 684.647 835.497 688.24 841.353 691.832 835.829 695.424 843.163 699.016 836.292 702.609 838.834 706.249 840.001 708.955 838.976" style="fill: none; stroke: #000; stroke-linecap: round; stroke-linejoin: round; stroke-width: 35px;"/>
</svg>