<?xml version="1.0" encoding="UTF-8"?>
<svg id="Sticker" xmlns="http://www.w3.org/2000/svg" width="1000" height="1000" viewBox="0 0 1000 1000">
  <polygon points="500.01 895.617 499.002 888.049 495.658 886.304 489.669 887.205 490.061 881.725 484.742 881.958 483.271 878.342 479.2 877.327 481.609 869.833 474.119 872.237 471.396 869.875 474.508 861.677 469.802 861.297 469.837 856.177 462.46 858.467 459.168 856.672 456.072 854.68 453.772 851.891 452.706 847.867 449.273 846.21 448.118 842.274 446.691 838.607 444.064 836.142 444.143 830.971 438.273 831.75 437.189 827.745 435.796 824.049 434.426 820.331 428.257 821.413 424.448 820.134 422.177 817.318 420.471 813.937 418.746 810.574 412.88 811.352 411.947 807.196 411.675 802.379 406.051 802.914 405.267 798.606 403.894 794.887 402.107 791.58 396.213 792.381 395.069 788.434 390.814 787.597 392.032 781.289 386.848 781.384 383.294 779.848 382.794 775.259 379.95 773.014 376.546 771.329 378.144 764.643 373.548 764.149 373.577 759.028 366.345 761.169 367.556 754.864 361.027 756.299 358.571 753.662 356.545 750.596 357.202 744.847 353.112 743.847 351.163 740.706 345.725 741.054 343.759 737.929 342.19 734.408 339.079 732.427 335.227 731.188 337.266 724.055 335.105 721.121 328.95 722.183 324.838 721.202 323.682 717.267 323.346 712.512 318.739 712.027 317.07 708.606 316.732 703.851 315.145 700.345 307.189 703.208 308.558 696.743 305.256 694.952 300.321 694.794 300.363 689.66 293.237 691.695 294.786 685.053 290.791 683.961 285.85 683.81 283.995 680.571 284.801 674.671 279.153 675.228 276.031 673.262 278.447 665.761 274.36 664.763 272.577 661.462 270.909 658.045 267.554 656.316 264.857 653.928 258.402 655.296 255.905 652.703 255.025 648.491 253.558 644.863 251.682 641.643 247.858 640.375 244.954 638.189 243.356 634.698 238.76 634.207 235.981 631.898 236.26 626.529 233.929 623.769 230.431 622.173 228.702 618.803 223.671 618.739 219.803 617.514 217.857 614.369 218.179 608.956 215.858 606.185 210.19 606.759 209.434 602.418 209.574 597.18 206.549 595.11 203.888 592.679 198.103 593.369 197.539 588.839 194.158 587.12 190.849 585.332 188.031 583.055 187.639 578.352 185.832 575.061 184.436 571.357 179.603 571.093 173.356 572.244 175.245 565.256 171.986 563.415 170.86 559.444 166.453 558.752 164.558 555.547 164.632 550.374 159.265 550.653 155.921 548.907 156.096 543.633 149.058 545.573 145.318 544.22 142.83 541.611 141.757 537.582 143.329 530.913 136.051 533.088 133.411 530.628 136.024 522.91 131.304 522.528 128.762 519.966 124.513 519.109 124.936 513.589 120.137 513.286 115.358 512.957 112.212 510.994 111.158 506.938 109.382 503.596 109.304 499.996 113.357 500.408 109.616 491.578 118.632 495.505 118.808 490.595 121.735 488.435 119.807 481.42 124.97 481.497 129.993 481.435 127.552 473.908 132.575 473.846 134.004 470.189 139.048 470.147 142.293 468.306 146.525 467.451 148.747 464.586 151.587 462.339 149.679 455.342 156.872 457.446 157.953 453.436 155.563 445.954 162.687 447.985 160.898 441.104 168.937 444.051 172.037 442.061 172.215 437.15 176.635 436.48 177.881 432.639 176.334 426.003 180.777 425.359 186.22 425.715 184.427 418.834 188.149 417.469 192.808 417.039 194.566 413.71 198.083 412.138 196.199 405.164 199.362 403.236 201.601 400.382 208.897 402.585 208.943 397.537 212.691 396.193 215.165 393.576 218.473 391.794 217.211 385.443 225.826 388.969 223.011 381.064 225.986 378.951 232.994 380.87 230.48 373.266 236.857 374.553 236.995 369.601 239.684 367.198 246.097 368.517 242.031 359.356 246.192 358.425 253.331 360.471 252.942 354.992 257.584 354.543 254.889 346.758 259.598 346.377 265.004 346.692 262.746 339.344 267.38 338.887 268.403 334.817 272.918 334.239 279.344 335.57 277.356 328.488 279.117 325.157 285.551 326.5 288.239 324.097 287.493 318.26 292.27 317.945 292.434 313.018 297.823 313.314 295.784 306.181 302.172 307.474 305.032 305.241 306.182 301.297 305.703 295.726 314.316 299.248 313.036 292.876 319.367 294.118 322.078 291.739 322.05 286.616 320.863 280.335 330.14 284.522 326.262 275.556 328.839 273.047 335.861 274.984 334.644 268.682 340.767 269.722 343.449 267.319 346.109 264.894 348.044 261.742 350.852 259.461 349.624 253.14 357.343 255.763 355.12 248.445 362.841 251.074 361.308 244.451 364.138 242.193 368.871 241.838 366.577 234.455 374.147 236.937 374.583 232.281 377.861 230.464 383.121 230.626 381.007 223.417 384.698 222.015 390.441 222.667 392.993 220.128 396.289 218.332 393.368 210.318 398.999 210.851 404.026 210.78 402.493 204.153 403.865 200.431 408.975 200.448 411.778 198.156 411.212 192.491 417.65 193.831 419.205 190.29 419.497 185.488 424.652 185.545 423.115 178.908 427.675 178.371 433.316 178.916 433.446 173.947 434.606 170.007 441.255 171.559 444.054 169.259 441.75 161.855 449.834 164.84 450.261 160.18 452.783 157.611 457.522 157.251 458.919 153.55 459.596 149.134 459.582 144.023 467.248 146.586 465.135 139.376 466.614 135.753 472.593 136.632 474.326 133.26 473.667 127.499 477.392 126.119 485.116 128.737 486.119 124.645 486.327 119.75 487.004 115.319 492.07 115.277 493.587 111.683 494.016 106.993 500.005 109.762 504.523 108.426 505.067 112.971 510.7 112.426 508.633 119.581 511.559 121.741 514.592 123.795 515.257 128.215 519.233 129.325 524.093 129.551 526.484 132.246 524.605 139.209 532.843 136.057 534.088 139.899 538.649 140.424 539.45 144.711 541.53 147.718 542.843 151.493 547.627 151.799 547.796 156.721 551.944 157.665 555.998 158.704 552.703 167.092 555.251 169.635 559.399 170.577 562.781 172.285 563.658 176.496 568.766 176.476 573.914 176.416 576.684 178.734 575.33 185.176 577.385 188.207 578.215 192.465 584.824 190.944 588.653 192.204 591.143 194.803 591.133 199.903 596.238 199.889 598.916 202.303 597.837 208.475 603.297 208.109 601.095 215.403 609.763 211.826 612.013 214.666 615.143 216.625 616.922 219.935 614.847 227.1 619.291 227.744 621.944 230.18 626.771 230.442 626.916 235.388 632.801 234.594 634.396 238.09 634.862 242.718 639.597 243.077 636.518 251.25 643.086 249.773 644.623 253.328 644.093 258.948 653.524 254.608 650.818 262.403 657.475 260.837 656.882 266.52 657.483 271.01 659.909 273.676 666.955 271.724 668.401 275.373 671.317 277.55 674.698 279.262 675.73 283.321 680.886 283.256 679.432 289.802 684.187 290.137 688.955 290.461 688.932 295.577 690.554 299.049 692.256 302.442 697.441 302.351 700.141 304.744 697.607 312.37 703.621 311.447 702.937 317.223 705.944 319.304 709.051 321.288 711.856 323.578 714.261 326.267 721.321 324.297 718.442 332.265 724.964 330.828 724.112 336.765 725.57 340.391 729.905 341.141 733.293 342.837 736.715 344.5 736.107 350.194 741.791 349.601 747.324 349.159 750.1 351.479 748.4 358.275 749.526 362.241 753.422 363.435 755.974 365.972 759.752 367.282 761.802 370.32 764.658 372.553 767.247 375.055 773.005 374.392 771.197 381.298 772.49 385.1 780.544 382.139 778.373 389.401 779.083 393.782 783.172 394.785 789.629 393.422 793.33 394.818 794.858 398.388 794.448 403.892 799.811 403.623 803.434 405.093 803.353 410.269 804.387 414.334 810.581 413.238 811.073 417.841 811.258 422.751 813.922 425.184 815.529 428.678 820.929 428.376 825.057 429.344 823.164 436.335 829.361 435.238 827.781 441.916 835.923 438.872 839.45 440.445 835.329 449.664 840.443 449.638 840.896 454.276 847.839 452.432 846.861 458.508 851.924 458.538 855.559 460 853.924 466.737 856.493 469.266 860.302 470.559 862.629 473.332 864.701 476.366 865.782 480.386 871.588 479.684 870.93 485.449 875.03 486.444 882.515 484.061 883.069 488.616 887.795 488.998 888.156 493.748 888.084 498.938 891.311 500.002 889.361 502.31 885.996 504.034 886.205 509.332 883.219 511.433 877.667 510.967 875.138 513.525 874.113 517.586 873.967 522.526 871.14 524.784 869.409 528.138 862.468 526.283 858.085 526.985 861.628 535.615 858.616 537.69 850.918 535.079 850.181 539.429 849.086 543.423 846.618 546.044 846.289 550.806 838.998 548.607 841.146 555.848 833.227 553.021 831.222 556.108 831.072 561.048 830.439 565.505 824.658 564.813 822.049 567.292 820.031 570.361 821.458 576.876 816.098 576.604 813.673 579.266 810.815 581.495 805.576 581.344 806.809 587.666 801.78 587.726 798.296 589.332 798.457 594.583 798.449 599.668 793.299 599.612 787.128 598.534 788.921 605.419 787.442 609.031 783.234 609.913 780.561 612.329 777.165 614.022 772.826 614.772 771.429 618.464 768.465 620.59 765.491 622.705 762.098 624.401 762.057 629.452 762.578 635.065 759.325 636.904 754.133 636.808 748.731 636.499 746.578 639.437 747.738 645.689 745.321 648.362 741.114 649.245 737.436 650.658 735.305 653.616 737.882 661.284 729.792 658.285 726.645 660.231 723.832 662.511 725.906 669.68 723.186 672.053 719.066 673.026 715.875 674.926 715.9 680.043 710.847 680.081 708.695 683.02 709.225 688.641 700.681 685.19 700.904 690.507 695.836 690.535 697.64 697.432 692.959 697.844 693.218 703.195 691.202 706.27 682.523 702.683 680.967 706.215 679.437 709.777 676.993 712.427 675.33 715.858 675.955 721.573 672.822 723.528 668.458 724.25 667.169 728.047 664.553 730.514 661.178 732.223 655.136 731.266 658.534 739.749 649.87 736.172 648.277 739.668 650.032 746.516 647.793 749.373 643.855 750.53 641.847 753.614 640.208 757.065 636.168 758.113 632.293 759.326 633.342 765.463 624.524 761.735 625.383 767.685 622.114 769.51 618.213 770.707 616.752 774.342 616.305 778.988 608.841 776.616 610.332 783.197 609.172 787.129 606.178 789.229 602.136 790.284 600.122 793.367 593.818 792.158 592.418 795.852 589.448 797.975 586.749 800.371 587.072 805.793 580.812 804.631 583.032 811.946 577.515 811.524 578.051 817.157 570.714 814.921 573.711 823.015 571.566 825.967 565.556 825.055 564.435 829.034 557.787 827.483 555.459 830.254 554.706 834.601 552.388 837.381 552.491 842.573 548.87 844.043 543.519 843.79 542.282 847.651 540.051 850.513 537.082 852.641 533.229 853.891 534.425 860.183 531.552 862.413 526.571 862.533 522.019 863.085 525.676 871.844 521.012 872.284 517.881 874.259 515.821 877.295 514.753 881.33 513.684 885.369 504.745 881.539 501.687 883.591 498.711 887.294 500.01 895.617" style="fill: #fff;"/>
  <polygon points="500.01 895.617 499.002 888.049 495.658 886.304 489.669 887.205 490.061 881.725 484.742 881.958 483.271 878.342 479.2 877.327 481.609 869.833 474.119 872.237 471.396 869.875 474.508 861.677 469.802 861.297 469.837 856.177 462.46 858.467 459.168 856.672 456.072 854.68 453.772 851.891 452.706 847.867 449.273 846.21 448.118 842.274 446.691 838.607 444.064 836.142 444.143 830.971 438.273 831.75 437.189 827.745 435.796 824.049 434.426 820.331 428.257 821.413 424.448 820.134 422.177 817.318 420.471 813.937 418.746 810.574 412.88 811.352 411.947 807.196 411.675 802.379 406.051 802.914 405.267 798.606 403.894 794.887 402.107 791.58 396.213 792.381 395.069 788.434 390.814 787.597 392.032 781.289 386.848 781.384 383.294 779.848 382.794 775.259 379.95 773.014 376.546 771.329 378.144 764.643 373.548 764.149 373.577 759.028 366.345 761.169 367.556 754.864 361.027 756.299 358.571 753.662 356.545 750.596 357.202 744.847 353.112 743.847 351.163 740.706 345.725 741.054 343.759 737.929 342.19 734.408 339.079 732.427 335.227 731.188 337.266 724.055 335.105 721.121 328.95 722.183 324.838 721.202 323.682 717.267 323.346 712.512 318.739 712.027 317.07 708.606 316.732 703.851 315.145 700.345 307.189 703.208 308.558 696.743 305.256 694.952 300.321 694.794 300.363 689.66 293.237 691.695 294.786 685.053 290.791 683.961 285.85 683.81 283.995 680.571 284.801 674.671 279.153 675.228 276.031 673.262 278.447 665.761 274.36 664.763 272.577 661.462 270.909 658.045 267.554 656.316 264.857 653.928 258.402 655.296 255.905 652.703 255.025 648.491 253.558 644.863 251.682 641.643 247.858 640.375 244.954 638.189 243.356 634.698 238.76 634.207 235.981 631.898 236.26 626.529 233.929 623.769 230.431 622.173 228.702 618.803 223.671 618.739 219.803 617.514 217.857 614.369 218.179 608.956 215.858 606.185 210.19 606.759 209.434 602.418 209.574 597.18 206.549 595.11 203.888 592.679 198.103 593.369 197.539 588.839 194.158 587.12 190.849 585.332 188.031 583.055 187.639 578.352 185.832 575.061 184.436 571.357 179.603 571.093 173.356 572.244 175.245 565.256 171.986 563.415 170.86 559.444 166.453 558.752 164.558 555.547 164.632 550.374 159.265 550.653 155.921 548.907 156.096 543.633 149.058 545.573 145.318 544.22 142.83 541.611 141.757 537.582 143.329 530.913 136.051 533.088 133.411 530.628 136.024 522.91 131.304 522.528 128.762 519.966 124.513 519.109 124.936 513.589 120.137 513.286 115.358 512.957 112.212 510.994 111.158 506.938 109.382 503.596 109.304 499.996 113.357 500.408 109.616 491.578 118.632 495.505 118.808 490.595 121.735 488.435 119.807 481.42 124.97 481.497 129.993 481.435 127.552 473.908 132.575 473.846 134.004 470.189 139.048 470.147 142.293 468.306 146.525 467.451 148.747 464.586 151.587 462.339 149.679 455.342 156.872 457.446 157.953 453.436 155.563 445.954 162.687 447.985 160.898 441.104 168.937 444.051 172.037 442.061 172.215 437.15 176.635 436.48 177.881 432.639 176.334 426.003 180.777 425.359 186.22 425.715 184.427 418.834 188.149 417.469 192.808 417.039 194.566 413.71 198.083 412.138 196.199 405.164 199.362 403.236 201.601 400.382 208.897 402.585 208.943 397.537 212.691 396.193 215.165 393.576 218.473 391.794 217.211 385.443 225.826 388.969 223.011 381.064 225.986 378.951 232.994 380.87 230.48 373.266 236.857 374.553 236.995 369.601 239.684 367.198 246.097 368.517 242.031 359.356 246.192 358.425 253.331 360.471 252.942 354.992 257.584 354.543 254.889 346.758 259.598 346.377 265.004 346.692 262.746 339.344 267.38 338.887 268.403 334.817 272.918 334.239 279.344 335.57 277.356 328.488 279.117 325.157 285.551 326.5 288.239 324.097 287.493 318.26 292.27 317.945 292.434 313.018 297.823 313.314 295.784 306.181 302.172 307.474 305.032 305.241 306.182 301.297 305.703 295.726 314.316 299.248 313.036 292.876 319.367 294.118 322.078 291.739 322.05 286.616 320.863 280.335 330.14 284.522 326.262 275.556 328.839 273.047 335.861 274.984 334.644 268.682 340.767 269.722 343.449 267.319 346.109 264.894 348.044 261.742 350.852 259.461 349.624 253.14 357.343 255.763 355.12 248.445 362.841 251.074 361.308 244.451 364.138 242.193 368.871 241.838 366.577 234.455 374.147 236.937 374.583 232.281 377.861 230.464 383.121 230.626 381.007 223.417 384.698 222.015 390.441 222.667 392.993 220.128 396.289 218.332 393.368 210.318 398.999 210.851 404.026 210.78 402.493 204.153 403.865 200.431 408.975 200.448 411.778 198.156 411.212 192.491 417.65 193.831 419.205 190.29 419.497 185.488 424.652 185.545 423.115 178.908 427.675 178.371 433.316 178.916 433.446 173.947 434.606 170.007 441.255 171.559 444.054 169.259 441.75 161.855 449.834 164.84 450.261 160.18 452.783 157.611 457.522 157.251 458.919 153.55 459.596 149.134 459.582 144.023 467.248 146.586 465.135 139.376 466.614 135.753 472.593 136.632 474.326 133.26 473.667 127.499 477.392 126.119 485.116 128.737 486.119 124.645 486.327 119.75 487.004 115.319 492.07 115.277 493.587 111.683 494.016 106.993 500.005 109.762 504.523 108.426 505.067 112.971 510.7 112.426 508.633 119.581 511.559 121.741 514.592 123.795 515.257 128.215 519.233 129.325 524.093 129.551 526.484 132.246 524.605 139.209 532.843 136.057 534.088 139.899 538.649 140.424 539.45 144.711 541.53 147.718 542.843 151.493 547.627 151.799 547.796 156.721 551.944 157.665 555.998 158.704 552.703 167.092 555.251 169.635 559.399 170.577 562.781 172.285 563.658 176.496 568.766 176.476 573.914 176.416 576.684 178.734 575.33 185.176 577.385 188.207 578.215 192.465 584.824 190.944 588.653 192.204 591.143 194.803 591.133 199.903 596.238 199.889 598.916 202.303 597.837 208.475 603.297 208.109 601.095 215.403 609.763 211.826 612.013 214.666 615.143 216.625 616.922 219.935 614.847 227.1 619.291 227.744 621.944 230.18 626.771 230.442 626.916 235.388 632.801 234.594 634.396 238.09 634.862 242.718 639.597 243.077 636.518 251.25 643.086 249.773 644.623 253.328 644.093 258.948 653.524 254.608 650.818 262.403 657.475 260.837 656.882 266.52 657.483 271.01 659.909 273.676 666.955 271.724 668.401 275.373 671.317 277.55 674.698 279.262 675.73 283.321 680.886 283.256 679.432 289.802 684.187 290.137 688.955 290.461 688.932 295.577 690.554 299.049 692.256 302.442 697.441 302.351 700.141 304.744 697.607 312.37 703.621 311.447 702.937 317.223 705.944 319.304 709.051 321.288 711.856 323.578 714.261 326.267 721.321 324.297 718.442 332.265 724.964 330.828 724.112 336.765 725.57 340.391 729.905 341.141 733.293 342.837 736.715 344.5 736.107 350.194 741.791 349.601 747.324 349.159 750.1 351.479 748.4 358.275 749.526 362.241 753.422 363.435 755.974 365.972 759.752 367.282 761.802 370.32 764.658 372.553 767.247 375.055 773.005 374.392 771.197 381.298 772.49 385.1 780.544 382.139 778.373 389.401 779.083 393.782 783.172 394.785 789.629 393.422 793.33 394.818 794.858 398.388 794.448 403.892 799.811 403.623 803.434 405.093 803.353 410.269 804.387 414.334 810.581 413.238 811.073 417.841 811.258 422.751 813.922 425.184 815.529 428.678 820.929 428.376 825.057 429.344 823.164 436.335 829.361 435.238 827.781 441.916 835.923 438.872 839.45 440.445 835.329 449.664 840.443 449.638 840.896 454.276 847.839 452.432 846.861 458.508 851.924 458.538 855.559 460 853.924 466.737 856.493 469.266 860.302 470.559 862.629 473.332 864.701 476.366 865.782 480.386 871.588 479.684 870.93 485.449 875.03 486.444 882.515 484.061 883.069 488.616 887.795 488.998 888.156 493.748 888.084 498.938 891.311 500.002 889.361 502.31 885.996 504.034 886.205 509.332 883.219 511.433 877.667 510.967 875.138 513.525 874.113 517.586 873.967 522.526 871.14 524.784 869.409 528.138 862.468 526.283 858.085 526.985 861.628 535.615 858.616 537.69 850.918 535.079 850.181 539.429 849.086 543.423 846.618 546.044 846.289 550.806 838.998 548.607 841.146 555.848 833.227 553.021 831.222 556.108 831.072 561.048 830.439 565.505 824.658 564.813 822.049 567.292 820.031 570.361 821.458 576.876 816.098 576.604 813.673 579.266 810.815 581.495 805.576 581.344 806.809 587.666 801.78 587.726 798.296 589.332 798.457 594.583 798.449 599.668 793.299 599.612 787.128 598.534 788.921 605.419 787.442 609.031 783.234 609.913 780.561 612.329 777.165 614.022 772.826 614.772 771.429 618.464 768.465 620.59 765.491 622.705 762.098 624.401 762.057 629.452 762.578 635.065 759.325 636.904 754.133 636.808 748.731 636.499 746.578 639.437 747.738 645.689 745.321 648.362 741.114 649.245 737.436 650.658 735.305 653.616 737.882 661.284 729.792 658.285 726.645 660.231 723.832 662.511 725.906 669.68 723.186 672.053 719.066 673.026 715.875 674.926 715.9 680.043 710.847 680.081 708.695 683.02 709.225 688.641 700.681 685.19 700.904 690.507 695.836 690.535 697.64 697.432 692.959 697.844 693.218 703.195 691.202 706.27 682.523 702.683 680.967 706.215 679.437 709.777 676.993 712.427 675.33 715.858 675.955 721.573 672.822 723.528 668.458 724.25 667.169 728.047 664.553 730.514 661.178 732.223 655.136 731.266 658.534 739.749 649.87 736.172 648.277 739.668 650.032 746.516 647.793 749.373 643.855 750.53 641.847 753.614 640.208 757.065 636.168 758.113 632.293 759.326 633.342 765.463 624.524 761.735 625.383 767.685 622.114 769.51 618.213 770.707 616.752 774.342 616.305 778.988 608.841 776.616 610.332 783.197 609.172 787.129 606.178 789.229 602.136 790.284 600.122 793.367 593.818 792.158 592.418 795.852 589.448 797.975 586.749 800.371 587.072 805.793 580.812 804.631 583.032 811.946 577.515 811.524 578.051 817.157 570.714 814.921 573.711 823.015 571.566 825.967 565.556 825.055 564.435 829.034 557.787 827.483 555.459 830.254 554.706 834.601 552.388 837.381 552.491 842.573 548.87 844.043 543.519 843.79 542.282 847.651 540.051 850.513 537.082 852.641 533.229 853.891 534.425 860.183 531.552 862.413 526.571 862.533 522.019 863.085 525.676 871.844 521.012 872.284 517.881 874.259 515.821 877.295 514.753 881.33 513.684 885.369 504.745 881.539 501.687 883.591 498.711 887.294 500.01 895.617" style="fill: none; stroke: #000; stroke-linecap: round; stroke-linejoin: round; stroke-width: 35px;"/>
</svg>