<?xml version="1.0" encoding="UTF-8"?>
<svg id="Stickers" xmlns="http://www.w3.org/2000/svg" width="1000" height="1000" viewBox="0 0 1000 1000">
  <g>
    <polygon points="783.615 361.029 779.19 356.653 779.744 353.112 784.486 350.051 779.602 345.899 777.746 342.174 783.103 338.971 780.227 335.223 787.256 331.842 786.292 328.147 785.257 324.488 784.343 320.862 787.109 317.097 787.236 313.394 778.799 310.38 783.509 306.345 785.734 302.42 781.153 299.327 781.817 295.572 780.216 292.165 778.628 288.791 777.689 285.315 779.636 281.186 776.909 278.11 778.735 273.894 774.143 271.4 778.599 266.297 772.073 264.526 768.676 261.892 768.918 258.032 766.852 254.992 772.249 249.007 763.322 248.749 761.881 245.51 765.751 239.843 762.799 237.218 764.268 232.452 758.304 231.403 756.388 228.355 754.423 225.342 755.741 220.442 751.628 218.662 751.939 214.238 745.882 213.796 749.052 207.428 745.726 205.273 741.365 203.902 738.472 201.565 735.058 199.652 737.486 193.294 737.415 188.709 728.248 191.449 725.876 188.804 728.217 182.093 724.744 180.316 722.127 177.811 716.19 178.424 714.399 175.225 713.731 170.882 714.07 165.422 709.802 164.599 709.872 159.235 701.145 163.355 703.839 154.987 700.154 153.659 692.993 156.493 693.773 149.97 687.808 151.61 685.556 148.719 687.243 140.642 680.091 144.112 681.099 136.653 678.425 134.111 675.012 132.615 669.75 133.894 669.91 127.092 663.64 130.083 663.71 123.169 660.169 121.932 654.475 124.373 650.254 124.489 646.346 124.153 646.761 115.965 644.595 112.279 638.716 115.682 636.092 112.883 633.933 109.061 628.324 112.403 626.645 107.474 624.836 102.624 619.657 105.375 616.904 102.592 611.841 105.429 609.328 102.03 605.496 101.975 601.733 101.821 600.209 95.373 596.387 95.314 591.839 97.571 589.827 91.998 585.857 92.567 583.123 88.979 579.047 90.036 575.171 90.523 570.702 93.527 569.361 83.76 563.736 92.046 561.234 86.702 558.585 81.522 554.249 84.733 550.694 84.044 547.403 81.726 543.895 80.562 540.059 81.653 536.525 80.667 532.759 81.601 528.817 84.609 525.605 80.321 521.674 84.183 518.052 84.811 514.484 84.806 510.913 85.01 507.457 81.053 503.797 85.3 500.248 83.243 496.69 82.891 493.073 80.597 489.333 76.68 485.913 81.085 482.195 79.078 478.422 77.092 474.821 77.701 471.883 84.839 468.326 84.996 464.297 81.424 461.039 84.189 456.834 80.252 454.401 87.939 450.166 84.272 447.22 88.089 443.428 87.256 439.208 84.566 436.061 87.07 432.721 88.568 428.524 86.54 424.553 85.655 422.615 92.401 419.714 95.263 414.187 89.119 412.469 95.864 407.173 91.056 406.498 100.502 402.83 100.723 397.747 97.081 396.558 104.217 390.67 98.78 389.335 105.195 384.663 103.188 381.848 105.758 378.862 107.866 376.285 110.838 373.032 112.272 368.584 111.217 363.933 109.901 361.051 112.227 357.549 113.33 355.754 117.643 353.8 121.529 347.342 117.352 345.67 121.712 342.1 122.764 340.004 126.26 339.426 132.088 334.204 130.523 332.049 133.764 329.71 136.672 322.704 132.832 322.04 138.165 321.625 143.679 319.185 146.329 314.136 145.561 309.628 145.623 308.493 149.961 305.741 152.247 302.252 153.666 301.018 157.715 300.298 162.255 292.493 158.963 292.37 164.119 290.861 167.705 287.897 169.765 284.408 171.332 282.817 174.768 280.203 177.204 274.526 176.868 272.23 179.678 272.584 184.764 265.911 183.844 264.504 187.41 267.924 194.749 265.837 197.605 263.541 200.302 260.937 202.784 253.946 202.214 258.064 209.402 251.863 209.541 248.42 211.615 252.415 218.329 249.127 220.469 247.802 223.795 245.915 226.793 241.843 228.633 241.648 232.557 237.872 234.66 236.945 238.196 239.395 243.234 237.538 246.255 230.346 247.093 226.878 249.623 225.395 252.978 226.91 257.403 223.257 259.993 224.869 264.34 225.234 268.214 225.516 272.013 222.771 274.982 222.603 278.639 226.366 283.135 224.735 286.375 215.748 288.306 217.527 292.314 217.677 295.998 220.138 299.949 218.034 303.299 217.735 306.874 218.285 310.508 212.229 313.768 217.361 317.622 221.919 321.273 216.359 324.785 214.917 328.414 213.09 332.115 215.574 335.638 216.247 339.214 215.7 342.892 219.199 346.146 221.199 349.485 221.816 352.973 217.132 357.344 216.871 361.088 223.544 363.531 225.266 366.889 223.271 370.931 218.903 375.408 225.803 377.812 226.367 381.382 221.048 386.037 226.202 388.762 230.665 391.611 224.701 396.39 229.991 399.087 227.448 403.242 230.385 406.37 226.772 410.736 229.698 413.86 228.175 417.838 227.341 421.692 230.639 424.728 236.911 427.139 235.063 431.198 233.149 435.297 232.59 439.128 235.779 442.129 232.238 446.664 237.848 449.066 236.19 453.197 240.209 455.913 240.225 459.636 243.84 462.391 239.579 467.317 242.226 470.328 240.471 474.619 248.469 475.98 250.142 479.212 246.109 484.251 250.852 486.514 250.266 490.49 254.51 492.876 250.807 497.92 249.601 502.154 250.925 505.528 259.336 506.439 252.775 512.546 258.084 514.514 259.405 517.88 263.998 520.076 257.968 526.07 265.009 527.395 261.983 532.229 261.405 536.119 268.873 537.621 270.151 541.001 267.677 545.441 271.766 548.007 265.844 553.42 267.489 556.688 272.906 558.857 268.466 563.907 271.482 566.768 271.75 570.452 278.052 572.254 273.055 577.612 275.817 580.51 281.839 582.284 277.408 587.589 280.279 590.405 278.242 594.978 282.02 597.439 283.857 600.598 284.896 604.06 289.719 605.991 285.53 611.612 294.7 611.616 294.553 615.556 291.79 620.727 291.125 625.028 300.759 624.411 297.732 629.867 300.267 632.607 302.259 635.606 300.664 640.547 307.135 641.073 305.253 646.268 308.726 648.401 307.196 653.551 309.732 656.253 316.747 656.002 318.686 658.97 314.226 666.397 321.202 665.891 321.351 670.229 328.312 669.439 326.285 675.529 330.023 677.12 331.999 680.122 333.874 683.232 338.678 683.718 338.511 688.709 339.787 692.469 341.441 695.935 343.623 698.917 350.404 696.981 348.919 703.949 351.588 706.449 355.223 707.799 360.78 706.677 360.017 713.476 367.935 708.96 368.236 714.566 370.349 717.821 373.454 719.676 379.637 716.663 382.107 719.338 385.337 720.781 385.991 726.808 388.628 729.511 393.617 727.707 397.822 727.185 397.723 735.696 400.486 738.455 404.614 738.116 410.216 733.935 411.842 739.563 415.545 739.94 418.608 742.086 422.931 740.468 424.554 747.331 429.378 743.822 431.577 749.415 436.492 744.94 439.759 746.65 442.823 749.411 447.215 746.004 450.322 748.695 454.231 747.141 457.702 747.923 460.522 753.245 464.619 749.871 468.255 749.515 471.529 752.468 475.175 752.063 478.933 749.967 482.176 754.896 485.627 758.115 489.523 752.104 493.052 753.781 496.659 753.281 500.231 756.721 503.864 755.147 507.519 757.005 511.015 751.438 514.573 750.682 518.529 758.184 521.776 751.293 525.733 756.176 529.03 751.923 532.522 750.641 536.229 751.494 540.164 753.905 543.105 748.621 547.539 753.95 549.739 744.953 554.704 752.468 557.288 746.693 561.099 747.4 564.668 746.854 568.246 746.312 572.486 748.25 575.997 747.226 578.499 742.81 581.492 740.34 586.744 744.774 587.345 735.461 593.108 740.817 594.451 734.277 598.997 735.978 600.807 731.114 606.786 735.668 609.237 732.325 612.861 731.468 614.089 726.014 618.801 727.183 620.264 722.492 623.986 721.781 629.577 723.926 633.123 722.633 636.616 721.205 637.331 715.858 642.214 716.331 644.886 713.761 644.411 707.343 645.777 703.423 649.891 702.75 656.842 705.047 657.622 700.502 657.534 695.23 660.468 693.104 666.895 694.218 668.774 690.952 668.325 685.701 670.736 683.029 673.971 681.015 679.168 680.473 675.984 673.472 680.295 672.189 685.971 671.746 684.635 666.397 689.261 665.091 689.906 661.164 693.594 659.14 693.091 654.589 695.361 651.701 696.214 648.022 692.876 642.165 696.894 640.239 703.581 639.542 699.401 633.505 707.076 633.103 703.679 627.59 706.533 624.909 711.379 623.013 705.755 616.82 708.615 614.106 711.972 611.536 715.024 608.804 718.196 606.071 716.923 601.781 712.174 596.398 715.415 593.69 721.946 591.959 719.257 587.353 719.445 583.655 718.267 579.582 725.198 577.793 727.197 574.584 725.977 570.51 728.227 567.368 724.916 562.774 728.166 559.892 731.035 556.914 728.896 552.639 726.527 548.263 727.374 544.709 729.243 541.425 735.484 539.745 735.517 535.892 734.362 531.606 737.746 528.977 734.007 523.761 737.629 521.214 744.573 519.85 742.226 515.152 740.34 510.633 742.885 507.687 744.24 504.321 743.846 500.351 744.739 496.834 748.585 494.313 754.211 492.36 752.218 487.873 755.048 484.97 756.632 481.653 756.733 477.87 759.871 475.021 752.766 469.095 761.85 467.99 756.141 462.568 760.764 460.107 763.474 457.08 762.49 453.056 766.835 450.428 758.703 444.626 763.659 442.136 764.489 438.612 770.115 436.201 762.561 430.751 771.612 429.062 764.111 423.712 766.816 420.598 769.66 417.495 775.122 414.906 766.797 409.541 768.167 406.135 773.739 403.528 769.279 398.996 769.267 395.319 772.71 392.277 770.921 388.271 777.841 385.834 772.701 381.241 774.648 377.909 780.339 375.219 781.798 371.782 782.83 368.275 775.564 363.356 783.615 361.029" style="fill: #fff;"/>
    <polygon points="783.615 361.029 779.19 356.653 779.744 353.112 784.486 350.051 779.602 345.899 777.746 342.174 783.103 338.971 780.227 335.223 787.256 331.842 786.292 328.147 785.257 324.488 784.343 320.862 787.109 317.097 787.236 313.394 778.799 310.38 783.509 306.345 785.734 302.42 781.153 299.327 781.817 295.572 780.216 292.165 778.628 288.791 777.689 285.315 779.636 281.186 776.909 278.11 778.735 273.894 774.143 271.4 778.599 266.297 772.073 264.526 768.676 261.892 768.918 258.032 766.852 254.992 772.249 249.007 763.322 248.749 761.881 245.51 765.751 239.843 762.799 237.218 764.268 232.452 758.304 231.403 756.388 228.355 754.423 225.342 755.741 220.442 751.628 218.662 751.939 214.238 745.882 213.796 749.052 207.428 745.726 205.273 741.365 203.902 738.472 201.565 735.058 199.652 737.486 193.294 737.415 188.709 728.248 191.449 725.876 188.804 728.217 182.093 724.744 180.316 722.127 177.811 716.19 178.424 714.399 175.225 713.731 170.882 714.07 165.422 709.802 164.599 709.872 159.235 701.145 163.355 703.839 154.987 700.154 153.659 692.993 156.493 693.773 149.97 687.808 151.61 685.556 148.719 687.243 140.642 680.091 144.112 681.099 136.653 678.425 134.111 675.012 132.615 669.75 133.894 669.91 127.092 663.64 130.083 663.71 123.169 660.169 121.932 654.475 124.373 650.254 124.489 646.346 124.153 646.761 115.965 644.595 112.279 638.716 115.682 636.092 112.883 633.933 109.061 628.324 112.403 626.645 107.474 624.836 102.624 619.657 105.375 616.904 102.592 611.841 105.429 609.328 102.03 605.496 101.975 601.733 101.821 600.209 95.373 596.387 95.314 591.839 97.571 589.827 91.998 585.857 92.567 583.123 88.979 579.047 90.036 575.171 90.523 570.702 93.527 569.361 83.76 563.736 92.046 561.234 86.702 558.585 81.522 554.249 84.733 550.694 84.044 547.403 81.726 543.895 80.562 540.059 81.653 536.525 80.667 532.759 81.601 528.817 84.609 525.605 80.321 521.674 84.183 518.052 84.811 514.484 84.806 510.913 85.01 507.457 81.053 503.797 85.3 500.248 83.243 496.69 82.891 493.073 80.597 489.333 76.68 485.913 81.085 482.195 79.078 478.422 77.092 474.821 77.701 471.883 84.839 468.326 84.996 464.297 81.424 461.039 84.189 456.834 80.252 454.401 87.939 450.166 84.272 447.22 88.089 443.428 87.256 439.208 84.566 436.061 87.07 432.721 88.568 428.524 86.54 424.553 85.655 422.615 92.401 419.714 95.263 414.187 89.119 412.469 95.864 407.173 91.056 406.498 100.502 402.83 100.723 397.747 97.081 396.558 104.217 390.67 98.78 389.335 105.195 384.663 103.188 381.848 105.758 378.862 107.866 376.285 110.838 373.032 112.272 368.584 111.217 363.933 109.901 361.051 112.227 357.549 113.33 355.754 117.643 353.8 121.529 347.342 117.352 345.67 121.712 342.1 122.764 340.004 126.26 339.426 132.088 334.204 130.523 332.049 133.764 329.71 136.672 322.704 132.832 322.04 138.165 321.625 143.679 319.185 146.329 314.136 145.561 309.628 145.623 308.493 149.961 305.741 152.247 302.252 153.666 301.018 157.715 300.298 162.255 292.493 158.963 292.37 164.119 290.861 167.705 287.897 169.765 284.408 171.332 282.817 174.768 280.203 177.204 274.526 176.868 272.23 179.678 272.584 184.764 265.911 183.844 264.504 187.41 267.924 194.749 265.837 197.605 263.541 200.302 260.937 202.784 253.946 202.214 258.064 209.402 251.863 209.541 248.42 211.615 252.415 218.329 249.127 220.469 247.802 223.795 245.915 226.793 241.843 228.633 241.648 232.557 237.872 234.66 236.945 238.196 239.395 243.234 237.538 246.255 230.346 247.093 226.878 249.623 225.395 252.978 226.91 257.403 223.257 259.993 224.869 264.34 225.234 268.214 225.516 272.013 222.771 274.982 222.603 278.639 226.366 283.135 224.735 286.375 215.748 288.306 217.527 292.314 217.677 295.998 220.138 299.949 218.034 303.299 217.735 306.874 218.285 310.508 212.229 313.768 217.361 317.622 221.919 321.273 216.359 324.785 214.917 328.414 213.09 332.115 215.574 335.638 216.247 339.214 215.7 342.892 219.199 346.146 221.199 349.485 221.816 352.973 217.132 357.344 216.871 361.088 223.544 363.531 225.266 366.889 223.271 370.931 218.903 375.408 225.803 377.812 226.367 381.382 221.048 386.037 226.202 388.762 230.665 391.611 224.701 396.39 229.991 399.087 227.448 403.242 230.385 406.37 226.772 410.736 229.698 413.86 228.175 417.838 227.341 421.692 230.639 424.728 236.911 427.139 235.063 431.198 233.149 435.297 232.59 439.128 235.779 442.129 232.238 446.664 237.848 449.066 236.19 453.197 240.209 455.913 240.225 459.636 243.84 462.391 239.579 467.317 242.226 470.328 240.471 474.619 248.469 475.98 250.142 479.212 246.109 484.251 250.852 486.514 250.266 490.49 254.51 492.876 250.807 497.92 249.601 502.154 250.925 505.528 259.336 506.439 252.775 512.546 258.084 514.514 259.405 517.88 263.998 520.076 257.968 526.07 265.009 527.395 261.983 532.229 261.405 536.119 268.873 537.621 270.151 541.001 267.677 545.441 271.766 548.007 265.844 553.42 267.489 556.688 272.906 558.857 268.466 563.907 271.482 566.768 271.75 570.452 278.052 572.254 273.055 577.612 275.817 580.51 281.839 582.284 277.408 587.589 280.279 590.405 278.242 594.978 282.02 597.439 283.857 600.598 284.896 604.06 289.719 605.991 285.53 611.612 294.7 611.616 294.553 615.556 291.79 620.727 291.125 625.028 300.759 624.411 297.732 629.867 300.267 632.607 302.259 635.606 300.664 640.547 307.135 641.073 305.253 646.268 308.726 648.401 307.196 653.551 309.732 656.253 316.747 656.002 318.686 658.97 314.226 666.397 321.202 665.891 321.351 670.229 328.312 669.439 326.285 675.529 330.023 677.12 331.999 680.122 333.874 683.232 338.678 683.718 338.511 688.709 339.787 692.469 341.441 695.935 343.623 698.917 350.404 696.981 348.919 703.949 351.588 706.449 355.223 707.799 360.78 706.677 360.017 713.476 367.935 708.96 368.236 714.566 370.349 717.821 373.454 719.676 379.637 716.663 382.107 719.338 385.337 720.781 385.991 726.808 388.628 729.511 393.617 727.707 397.822 727.185 397.723 735.696 400.486 738.455 404.614 738.116 410.216 733.935 411.842 739.563 415.545 739.94 418.608 742.086 422.931 740.468 424.554 747.331 429.378 743.822 431.577 749.415 436.492 744.94 439.759 746.65 442.823 749.411 447.215 746.004 450.322 748.695 454.231 747.141 457.702 747.923 460.522 753.245 464.619 749.871 468.255 749.515 471.529 752.468 475.175 752.063 478.933 749.967 482.176 754.896 485.627 758.115 489.523 752.104 493.052 753.781 496.659 753.281 500.231 756.721 503.864 755.147 507.519 757.005 511.015 751.438 514.573 750.682 518.529 758.184 521.776 751.293 525.733 756.176 529.03 751.923 532.522 750.641 536.229 751.494 540.164 753.905 543.105 748.621 547.539 753.95 549.739 744.953 554.704 752.468 557.288 746.693 561.099 747.4 564.668 746.854 568.246 746.312 572.486 748.25 575.997 747.226 578.499 742.81 581.492 740.34 586.744 744.774 587.345 735.461 593.108 740.817 594.451 734.277 598.997 735.978 600.807 731.114 606.786 735.668 609.237 732.325 612.861 731.468 614.089 726.014 618.801 727.183 620.264 722.492 623.986 721.781 629.577 723.926 633.123 722.633 636.616 721.205 637.331 715.858 642.214 716.331 644.886 713.761 644.411 707.343 645.777 703.423 649.891 702.75 656.842 705.047 657.622 700.502 657.534 695.23 660.468 693.104 666.895 694.218 668.774 690.952 668.325 685.701 670.736 683.029 673.971 681.015 679.168 680.473 675.984 673.472 680.295 672.189 685.971 671.746 684.635 666.397 689.261 665.091 689.906 661.164 693.594 659.14 693.091 654.589 695.361 651.701 696.214 648.022 692.876 642.165 696.894 640.239 703.581 639.542 699.401 633.505 707.076 633.103 703.679 627.59 706.533 624.909 711.379 623.013 705.755 616.82 708.615 614.106 711.972 611.536 715.024 608.804 718.196 606.071 716.923 601.781 712.174 596.398 715.415 593.69 721.946 591.959 719.257 587.353 719.445 583.655 718.267 579.582 725.198 577.793 727.197 574.584 725.977 570.51 728.227 567.368 724.916 562.774 728.166 559.892 731.035 556.914 728.896 552.639 726.527 548.263 727.374 544.709 729.243 541.425 735.484 539.745 735.517 535.892 734.362 531.606 737.746 528.977 734.007 523.761 737.629 521.214 744.573 519.85 742.226 515.152 740.34 510.633 742.885 507.687 744.24 504.321 743.846 500.351 744.739 496.834 748.585 494.313 754.211 492.36 752.218 487.873 755.048 484.97 756.632 481.653 756.733 477.87 759.871 475.021 752.766 469.095 761.85 467.99 756.141 462.568 760.764 460.107 763.474 457.08 762.49 453.056 766.835 450.428 758.703 444.626 763.659 442.136 764.489 438.612 770.115 436.201 762.561 430.751 771.612 429.062 764.111 423.712 766.816 420.598 769.66 417.495 775.122 414.906 766.797 409.541 768.167 406.135 773.739 403.528 769.279 398.996 769.267 395.319 772.71 392.277 770.921 388.271 777.841 385.834 772.701 381.241 774.648 377.909 780.339 375.219 781.798 371.782 782.83 368.275 775.564 363.356 783.615 361.029" style="fill: none; stroke: #000; stroke-linecap: round; stroke-linejoin: round; stroke-width: 35px;"/>
  </g>
  <polyline points="590.991 716.702 595.074 713.891 600.358 711.329 597.486 707.078 601.875 704.329 597.93 699.853 598.712 696.357 604.037 693.803 605.135 690.373 603.863 686.453 603.454 682.711 602.148 678.783 606.861 676.1 607.132 672.498 605.785 668.562 603.541 664.44 610.426 662.208 603.897 657.198 611.26 655.064 605.955 650.307 608.778 647.234 613.252 644.507 609.681 640.114 607.433 635.997 617.543 634.438 615.229 630.305 611.997 625.981 618.232 623.615 614.039 619.087 619.696 616.601 616.792 612.343 617.383 608.811 614.401 604.539 614.863 600.98 618.67 598.111 621.315 595 616.836 590.413 619.164 587.238 619.095 583.567 625.556 581.249 623.636 577.194 624.376 573.687 624.633 570.081 626.031 566.712 626.622 563.177 624.349 559.048 632.352 557.043 627.89 552.46 631.57 549.564 634.754 546.563 636.298 543.222 632.962 538.872 635.65 535.769 633.785 531.721 635.183 528.351 631.246 523.874 633.464 520.673 632.827 516.879 636.077 513.891 636.533 510.324 634.225 506.188 640.529 503.832 643.997 500.893 644.647 497.366 638.377 492.408 641.166 489.323 642.007 485.836 642.569 482.29 644.337 478.992 644.518 475.365 649.616 472.761 644.821 468.104 643.428 464.151 644.144 460.633 648.668 457.899 650.372 454.57 654.046 451.488 648.776 446.889 650.239 443.439 652.67 440.16 655.233 436.9 654.083 433.009 654.176 429.325 657.107 426.13 657.876 422.561 659.606 419.158 654.632 414.607 658.076 411.495 653.163 406.953 656.224 403.775 659.672 400.664 659.692 396.966 659.607 393.249 662.127 389.972 664.749 385.66 657.947 382.974 654.211 381.258 650.747 387.334 647.154 386.994 643.484 386.337 639.368 382.922 636.458 388.006 633.204 390.065 628.482 385.117 625.618 388.943 622.002 389.437 620.029 395.485 616.235 395.134 611.167 391.451 607.133 391.195 606.148 398.441 602.679 399.36 597.958 397.818 594.086 398.335 594.195 405.921 587.212 401.343 585.062 404.852 582.026 406.965 582.403 413.237 580.752 416.551 575.655 416.273 573.845 419.427 567.406 418.952 564.835 421.909 567.982 428.121 563.968 430.133 567.261 435.198 562.022 437.245 557.72 440.264 561.993 444.55 561.004 448.076 558.086 451.605 562.59 455.233 560.112 458.878 564.959 462.113 563.306 465.775 563.115 469.371 563.732 472.86 568.376 475.004 568.629 478.332 571.365 480.305 567.922 487.115 569.41 491.853 573.786 493.409 578.287 493.428 582.389 493.249 584.984 487.067 588.616 487.846 591.355 485.727 597.363 487.668 601.39 485.398 601.101 480.61 599.327 475.81 605.918 474.352 606.626 470.596 602.464 465.721 607.695 463.168 601.68 458.385 606.453 455.527 602.637 451.456 603.69 448.027 605.714 444.614 604.131 440.982 602.988 437.437 612.295 433.811 602.393 430.45 602.294 426.96 603.166 423.382 609.504 419.128 603.264 416.275 606.15 412.206 600.298 409.663 606.535 404.673 598.908 402.861 603.224 397.958 604.519 393.671 604.15 389.803 600.32 387.318 594.679 385.939 594.795 381.914 590.551 380.319 592.124 375.1 586.708 374.702 584.836 371.844 582.777 369.104 583.572 362.946 578.59 363.35 576.024 360.825 575.291 354.531 569.71 357.519 567.43 353.148 564.1 350.819 559.702 353.532 555.584 357.092 552.413 354.993 548.945 356.05 545.572 355.866 541.885 352.299 538.444 353.592 535.437 356.659 531.248 353.943 526.668 351.268 525.39 358.813 520.643 356.438 519.051 361.495 516.139 363.346 512.27 363.604 508.54 364.383 503.331 363.458 503.717 369.769 500.248 371.201 497.121 373.147 496.581 377.496 494.044 379.935 492.564 383.192 486.274 383.246 488.62 388.911 489.77 393.408 480.513 392.872 485.912 399.006 483.379 401.72 477.074 403.566 479.22 407.86 483.296 412.151 477.667 414.868 481.535 418.694 480.187 422.062 481.469 425.451 477.609 429.218 482.901 432.075 483.366 435.528 482.433 439.27 482.074 442.979 486.242 445.471 484.106 449.773 479.392 455.454 488.54 455.46 487.73 459.769 488.198 463.765 488.383 468.658 496.034 465.688 498.947 465.833 500.32 473.591 504.109 470.854 505.739 466.677 510.673 467.634 509.288 461.854 515.665 462.145 518.287 459.344 516.793 454.625 517.16 451.002 519.713 448.154 521.317 444.896 521.205 441.171 523.209 437.954 521.665 434.007 525.319 430.997 522.472 426.948 520.896 423.312 522.277 419.971 530.659 416.289 522.624 413.052 524.176 409.324 523.984 405.708 523.857 402.007 519.366 399.669 520.725 395.415 515.549 393.892 515.232 390.236 516.996 385.066 512.725 383.586 511.054 380.408 511.637 375.123 510.202 371.242 507.721 368.249 503.367 367.459 496.313 370.705 493.846 368.263 495.034 359.539 487.513 365.546 488.633 355.173 483.712 356.957 481.109 353.262 475.785 357.657 472.556 356.003 470.152 349.863 465.428 355.445 462.476 349.628 458.545 352.192 454.892 353.01 451.065 348.47 447.772 354.181 444.009 353.123 440.573 354.485 435.827 350.538 433.049 354.481 431.757 360.678 427.333 359.335 423.299 359.583 418.756 359.72 419.726 366.467 415.6 367.281 412.256 369.187 414.956 375.583 408.636 375.549 404.262 377.286 403.549 381.115 408.497 387.209 402.09 388.438 397.93 390.887 402.784 396.149 403.43 399.922 398.018 402.304 402.962 406.874 397.348 409.503 392.966 412.574 401.206 417.098 399.435 420.449 396.41 423.813 395.252 427.361 399.468 430.984 398.952 434.501 394.275 438.204 400.792 441.446 397.759 445.192 401.171 448.418 401.232 451.927 400.994 455.494 394.915 460.099 402.204 462.396 400.751 466.309 398.894 470.457 399.645 474.029 398.976 478.11 402.117 480.925 404.382 483.954 409.58 485.289 404.77 492.548 413.268 490.371 414.722 493.029 416.373 498.527 420.379 499.568 424.66 499.092 428.702 497.619 432.123 495.147 430.152 489.119 435.232 487.924 436.791 484.537 440.742 481.655 441.227 477.81 440.278 473.855 434.295 469.613 442.988 466.57 437.576 462.675 441.116 459.077 440.656 455.401 435.275 451.93 436.95 448.25 437.616 444.577 434.366 441.526 435.421 437.89 433.68 434.868 438.53 429.013 436.081 425.89 434.698 422.213 427.325 422.95 427.354 418.39 423.464 417.14 424.992 410.288 420.94 409.206 418.261 406.596 413.354 407.174 411.136 403.989 406.159 405.336 404.711 400.621 403.334 395.238 396.367 401.499 396.418 392.394 392.065 393.319 388.298 393.009 384.222 393.807 380.563 393.577 377.627 390.859 373.776 391.461 371.651 384.572 366.213 393.119 363.957 385.564 360.295 385.375 356.467 386.816 352.653 389.344 349.188 388.608 345.655 390.434 342.088 384.463 337.229 385.954 338.57 389.844 338.514 393.552 340.837 396.854 337.037 401.199 344.826 403.565 346.291 407.009 340.025 411.78 339.097 415.636 343.694 418.55 344.568 422.099 345.648 425.614 343.388 429.703 348.89 432.463 343.319 437.118 348.486 439.935 346.958 443.897 352.04 446.73 350.663 450.674 352.127 454.098 348.038 458.566 353.538 461.083 357.127 463.997 356.745 467.733 352.784 472.212 350.658 476.311 353.942 479.288 357.675 482.172 356.461 486.08 352.934 490.467 361.834 492.282 355.873 497.175 356.482 500.708 361.78 503.268 360.202 507.252 364.116 510.099 366.815 513.197 362.214 517.809 365.698 520.746 364.817 524.586 363.356 528.543 362.281 532.418 365.815 535.339 363.79 539.41 367.079 542.383 372.514 544.912 365.963 549.925 366.487 553.477 367.886 556.845 369.808 560.103 372.819 563.134 372.42 566.871 374.584 570.078 373.302 574 376.7 576.956 380.808 579.764 372.276 585.189 373.114 588.671 381.03 590.688 375.877 595.413 384.479 597.292 376.572 602.589 384.9 604.522 382.72 608.631 382.037 612.431 381.356 616.234 386.397 618.849 385.923 622.605 383.08 626.854 383.528 630.422 391.073 632.519 387.915 636.833 388.133 640.449 386.5 644.447 385.473 648.322 389.447 651.159 386.931 655.342 391.668 658.022 397.201 660.538 392.892 665.088 394.402 668.436 395.483 671.87 395.808 675.464 396.848 678.908 399.838 681.952 393.286 686.97 400.8 689.077 404.372 692.001 402.148 696.126 404.867 699.223 404.123 703.041 403.534 706.827 405.425 710.101 404.593 713.945 404.923 717.548" style="fill: none; stroke: #000; stroke-linecap: round; stroke-linejoin: round; stroke-width: 30px;"/>
  <g>
    <g>
      <polygon points="544.424 921.224 540.81 923.053 537.195 923.66 533.578 921.339 529.963 917.95 526.347 923.469 522.731 923.108 519.114 920.856 515.498 915.572 511.881 924.199 508.265 921.493 504.648 921.508 501.036 914.766 497.42 914.627 493.805 915.299 490.187 922.924 486.572 915.696 482.954 915.175 479.335 922.14 475.716 918.817 472.097 923.03 468.479 920.907 464.86 923.043 461.241 918.609 457.616 917.152 453.99 919.994 450.989 914.675 446.955 918.916 444.896 914.08 440.202 916.723 437.425 914.458 436.784 909.673 428.648 913.435 429.96 907.256 426.959 905.079 424.45 902.321 424.137 898.541 426.761 894.314 427.047 891.137 425.776 888.095 422.801 883.679 424.655 879.263 426.865 876.201 425.025 872.649 423.141 868.467 424.431 865.026 431.156 864.92 428.219 858.709 429.467 854.738 435.474 856.04 437.873 853.608 438.226 846.535 442.564 846.608 445.932 843.945 450.852 851.452 453.99 843.018 457.605 843.732 461.22 847.288 464.836 852.6 468.451 843.241 472.068 843.107 475.684 850.442 479.3 851.792 482.916 846.383 486.534 847.096 490.15 851.634 493.766 843.899 497.378 845.375 500.995 845.491 504.609 843.384 508.227 843.558 511.843 843.318 515.46 851.207 519.079 845.399 522.698 849.568 526.318 849.113 529.936 848.895 533.554 846.945 537.174 844.04 540.799 843.376 544.424 845.495 547.706 850.164 552.141 845.445 555.964 846.289 557.708 851.678 559.862 854.691 567.074 850.868 566.249 857.44 572.025 857.25 570.499 862.881 572.095 865.939 576.708 867.966 575.964 872.064 574.57 875.864 573.238 879.263 572.778 883.679 573.076 888.095 576.007 891.654 576.983 895.525 569.936 897.023 575.325 902.979 572.295 905.61 567.913 906.826 564.226 907.898 563.52 912.043 561.199 914.794 557.325 914.888 555.667 920.226 551.103 917.344 548.419 923.583 544.424 921.224" style="fill: #fff;"/>
      <polygon points="544.424 921.224 540.81 923.053 537.195 923.66 533.578 921.339 529.963 917.95 526.347 923.469 522.731 923.108 519.114 920.856 515.498 915.572 511.881 924.199 508.265 921.493 504.648 921.508 501.036 914.766 497.42 914.627 493.805 915.299 490.187 922.924 486.572 915.696 482.954 915.175 479.335 922.14 475.716 918.817 472.097 923.03 468.479 920.907 464.86 923.043 461.241 918.609 457.616 917.152 453.99 919.994 450.989 914.675 446.955 918.916 444.896 914.08 440.202 916.723 437.425 914.458 436.784 909.673 428.648 913.435 429.96 907.256 426.959 905.079 424.45 902.321 424.137 898.541 426.761 894.314 427.047 891.137 425.776 888.095 422.801 883.679 424.655 879.263 426.865 876.201 425.025 872.649 423.141 868.467 424.431 865.026 431.156 864.92 428.219 858.709 429.467 854.738 435.474 856.04 437.873 853.608 438.226 846.535 442.564 846.608 445.932 843.945 450.852 851.452 453.99 843.018 457.605 843.732 461.22 847.288 464.836 852.6 468.451 843.241 472.068 843.107 475.684 850.442 479.3 851.792 482.916 846.383 486.534 847.096 490.15 851.634 493.766 843.899 497.378 845.375 500.995 845.491 504.609 843.384 508.227 843.558 511.843 843.318 515.46 851.207 519.079 845.399 522.698 849.568 526.318 849.113 529.936 848.895 533.554 846.945 537.174 844.04 540.799 843.376 544.424 845.495 547.706 850.164 552.141 845.445 555.964 846.289 557.708 851.678 559.862 854.691 567.074 850.868 566.249 857.44 572.025 857.25 570.499 862.881 572.095 865.939 576.708 867.966 575.964 872.064 574.57 875.864 573.238 879.263 572.778 883.679 573.076 888.095 576.007 891.654 576.983 895.525 569.936 897.023 575.325 902.979 572.295 905.61 567.913 906.826 564.226 907.898 563.52 912.043 561.199 914.794 557.325 914.888 555.667 920.226 551.103 917.344 548.419 923.583 544.424 921.224" style="fill: none; stroke: #000; stroke-linecap: round; stroke-linejoin: round; stroke-width: 35px;"/>
    </g>
    <g>
      <polygon points="619.417 863.646 615.831 865.475 612.245 866.083 608.658 863.762 605.07 860.372 601.482 865.892 597.895 865.531 594.309 863.278 590.722 857.995 587.135 866.622 583.547 863.916 579.959 863.931 576.372 857.189 572.786 857.05 569.204 857.722 565.622 865.347 562.04 858.118 558.457 857.598 554.873 864.563 551.287 861.239 547.698 865.453 544.111 863.329 540.526 865.465 536.942 861.032 533.358 859.574 529.774 862.417 526.188 857.264 522.6 862.124 519.011 858.04 515.425 862.286 511.839 861.65 508.254 858.115 504.667 866.356 501.078 861.251 497.489 862.438 493.902 863.297 490.316 862.137 486.727 858.441 483.137 857.629 479.549 858.732 475.961 861.707 472.372 859.853 468.782 857.813 465.193 860.221 461.604 863.193 458.014 863.319 454.425 857.479 450.834 863.48 447.244 865.2 443.654 860.218 440.064 860.811 436.472 866.837 432.886 865.105 429.295 866.736 425.709 858.502 422.118 866.763 418.529 866.049 414.937 862.493 411.347 857.181 407.756 866.54 404.162 866.673 400.569 859.339 396.976 857.988 393.383 863.397 389.79 862.685 386.197 858.146 382.597 865.882 378.998 864.406 375.218 864.08 371.015 865.504 367.201 864.226 363.395 862.908 364.071 854.278 357.881 856.993 358 851.514 355.423 849.315 353.28 846.675 349.874 844.543 345.744 842.154 344.003 838.502 345.439 834.297 349.717 830.518 344.317 826.102 344.071 821.686 348.578 818.256 350.704 815.225 344.708 809.686 351.184 808.291 349.105 802.898 354.925 802.487 357.287 799.974 357.677 794.95 361.788 794.296 365.835 794.349 369.478 794.481 372.683 794.037 375.785 793.211 378.998 789.906 382.584 788.297 386.17 794.665 389.757 787.394 393.345 788.773 396.933 791.644 400.519 793.681 404.106 791.058 407.692 790.158 411.279 791.956 414.867 787.653 418.455 791.69 422.042 785.976 425.629 792.557 429.211 785.952 432.793 785.759 436.374 785.821 439.957 791.205 443.541 794.535 447.127 793.673 450.716 790.402 454.303 794.198 457.888 792.605 461.472 791.232 465.056 792.597 468.64 792.902 472.226 791.125 475.815 793.322 479.403 793.346 482.99 786.102 486.575 787.876 490.161 790.794 493.747 794.552 497.337 786.636 500.926 788.744 504.512 786.463 508.099 786.172 511.687 785.749 515.278 789.926 518.866 791.166 522.454 789.709 526.043 793.588 529.633 790.742 533.221 785.818 536.81 785.269 540.401 789.302 543.99 791.739 547.581 790.399 551.17 794.382 554.761 789.154 558.351 787.773 561.942 785.813 565.529 785.769 569.119 786.106 572.706 790.768 576.296 789.555 579.885 786.257 583.477 789.308 587.067 791.818 590.659 791.13 594.252 794.001 597.846 786.92 601.439 787.34 605.031 788.14 608.624 786.234 612.218 790.721 615.817 788.958 619.417 789.015 623.109 788.91 627.374 786.809 629.292 793.468 631.744 796.085 636.805 794.017 636.284 800.531 641.187 799.917 647.841 799.016 645.407 805.357 651.184 806.385 648.953 811.351 647.735 815.219 648.502 818.405 646.648 821.686 645.861 826.102 646.743 830.518 647.858 833.726 649.893 837.475 649.354 840.994 646.938 843.771 650.052 849.773 646.411 852.048 638.633 849.735 637.698 853.446 638.59 861.026 632.394 857.469 629.452 859.195 626.171 860.1 623.477 866.598 619.417 863.646" style="fill: #fff;"/>
      <polygon points="619.417 863.646 615.831 865.475 612.245 866.083 608.658 863.762 605.07 860.372 601.482 865.892 597.895 865.531 594.309 863.278 590.722 857.995 587.135 866.622 583.547 863.916 579.959 863.931 576.372 857.189 572.786 857.05 569.204 857.722 565.622 865.347 562.04 858.118 558.457 857.598 554.873 864.563 551.287 861.239 547.698 865.453 544.111 863.329 540.526 865.465 536.942 861.032 533.358 859.574 529.774 862.417 526.188 857.264 522.6 862.124 519.011 858.04 515.425 862.286 511.839 861.65 508.254 858.115 504.667 866.356 501.078 861.251 497.489 862.438 493.902 863.297 490.316 862.137 486.727 858.441 483.137 857.629 479.549 858.732 475.961 861.707 472.372 859.853 468.782 857.813 465.193 860.221 461.604 863.193 458.014 863.319 454.425 857.479 450.834 863.48 447.244 865.2 443.654 860.218 440.064 860.811 436.472 866.837 432.886 865.105 429.295 866.736 425.709 858.502 422.118 866.763 418.529 866.049 414.937 862.493 411.347 857.181 407.756 866.54 404.162 866.673 400.569 859.339 396.976 857.988 393.383 863.397 389.79 862.685 386.197 858.146 382.597 865.882 378.998 864.406 375.218 864.08 371.015 865.504 367.201 864.226 363.395 862.908 364.071 854.278 357.881 856.993 358 851.514 355.423 849.315 353.28 846.675 349.874 844.543 345.744 842.154 344.003 838.502 345.439 834.297 349.717 830.518 344.317 826.102 344.071 821.686 348.578 818.256 350.704 815.225 344.708 809.686 351.184 808.291 349.105 802.898 354.925 802.487 357.287 799.974 357.677 794.95 361.788 794.296 365.835 794.349 369.478 794.481 372.683 794.037 375.785 793.211 378.998 789.906 382.584 788.297 386.17 794.665 389.757 787.394 393.345 788.773 396.933 791.644 400.519 793.681 404.106 791.058 407.692 790.158 411.279 791.956 414.867 787.653 418.455 791.69 422.042 785.976 425.629 792.557 429.211 785.952 432.793 785.759 436.374 785.821 439.957 791.205 443.541 794.535 447.127 793.673 450.716 790.402 454.303 794.198 457.888 792.605 461.472 791.232 465.056 792.597 468.64 792.902 472.226 791.125 475.815 793.322 479.403 793.346 482.99 786.102 486.575 787.876 490.161 790.794 493.747 794.552 497.337 786.636 500.926 788.744 504.512 786.463 508.099 786.172 511.687 785.749 515.278 789.926 518.866 791.166 522.454 789.709 526.043 793.588 529.633 790.742 533.221 785.818 536.81 785.269 540.401 789.302 543.99 791.739 547.581 790.399 551.17 794.382 554.761 789.154 558.351 787.773 561.942 785.813 565.529 785.769 569.119 786.106 572.706 790.768 576.296 789.555 579.885 786.257 583.477 789.308 587.067 791.818 590.659 791.13 594.252 794.001 597.846 786.92 601.439 787.34 605.031 788.14 608.624 786.234 612.218 790.721 615.817 788.958 619.417 789.015 623.109 788.91 627.374 786.809 629.292 793.468 631.744 796.085 636.805 794.017 636.284 800.531 641.187 799.917 647.841 799.016 645.407 805.357 651.184 806.385 648.953 811.351 647.735 815.219 648.502 818.405 646.648 821.686 645.861 826.102 646.743 830.518 647.858 833.726 649.893 837.475 649.354 840.994 646.938 843.771 650.052 849.773 646.411 852.048 638.633 849.735 637.698 853.446 638.59 861.026 632.394 857.469 629.452 859.195 626.171 860.1 623.477 866.598 619.417 863.646" style="fill: none; stroke: #000; stroke-linecap: round; stroke-linejoin: round; stroke-width: 35px;"/>
    </g>
    <g>
      <polygon points="646.949 797.145 643.348 798.974 639.747 799.582 636.144 797.261 632.541 793.871 628.939 799.39 625.337 799.03 621.736 796.777 618.135 791.494 614.534 800.12 610.932 797.414 607.33 797.43 603.727 790.688 600.124 790.549 596.522 791.221 592.92 798.846 589.319 791.617 585.717 791.097 582.115 798.062 578.511 794.738 574.908 798.952 571.306 796.828 567.704 798.964 564.102 794.531 560.499 793.073 556.896 795.915 553.293 790.763 549.69 795.623 546.088 791.538 542.49 795.785 538.893 795.148 535.296 791.614 531.698 799.854 528.099 794.75 524.497 795.937 520.893 796.796 517.29 795.636 513.69 791.94 510.09 791.128 506.491 792.231 502.891 795.205 499.29 793.352 495.686 791.311 492.082 793.72 488.48 796.691 484.879 796.818 481.278 790.978 477.676 796.979 474.071 798.698 470.467 793.716 466.865 794.309 463.263 800.336 459.659 798.604 456.053 800.235 452.449 792.001 448.846 800.261 445.242 799.548 441.636 795.991 438.032 790.68 434.428 800.039 430.822 800.172 427.217 792.838 423.611 791.487 420.006 796.896 416.4 796.183 412.794 791.645 409.187 799.38 405.586 797.905 401.98 797.788 398.378 799.895 394.771 799.721 391.167 799.962 387.56 792.072 383.954 797.88 380.347 793.711 376.738 794.167 373.129 794.384 369.521 796.335 365.913 799.239 362.305 799.903 358.695 797.785 355.08 793.297 351.465 798.697 347.558 798.726 344.651 793.865 341.878 791.411 335.699 796.745 335.043 790.153 329.451 791.616 329.693 785.787 327.458 783.16 322.509 782.213 322.318 778.053 322.826 774.038 323.368 770.433 323.287 767.196 322.813 764.016 319.685 759.6 318.077 755.184 324.613 752.153 318.026 747.554 320.391 744.31 324.392 742.147 327.748 740.285 327.519 736.087 329.173 732.891 332.93 731.938 333.355 726.365 338.449 728.152 339.668 721.47 344.979 726.781 347.468 719.672 351.465 719.258 355.066 719.32 358.668 724.703 362.27 728.034 365.874 727.172 369.476 723.901 373.078 727.697 376.679 726.104 380.28 724.731 383.881 726.095 387.482 726.401 391.085 724.624 394.688 726.821 398.291 726.845 401.893 719.601 405.494 721.375 409.096 724.293 412.698 728.051 416.3 720.135 419.903 722.243 423.507 719.962 427.109 719.671 430.711 719.247 434.313 723.425 437.915 724.665 441.519 723.208 445.122 727.087 448.724 724.241 452.327 719.317 455.924 718.768 459.521 722.801 463.118 725.237 466.716 723.898 470.316 727.88 473.918 722.653 477.522 721.272 481.124 719.311 484.725 719.268 488.324 719.605 491.924 724.267 495.523 723.054 499.125 719.755 502.728 722.806 506.333 725.317 509.935 724.629 513.535 727.5 517.136 720.419 520.739 720.839 524.343 721.639 527.948 719.733 531.55 724.22 535.152 722.457 538.755 722.513 542.362 722.204 545.965 719.419 549.568 725.297 553.173 726.777 556.778 722.51 560.382 728.13 563.987 724.397 567.593 718.828 571.197 724.494 574.804 719.931 578.409 723.901 582.015 726.144 585.62 725.917 589.227 727.954 592.829 728.74 596.435 727.858 600.037 726.565 603.643 723.931 607.247 723.476 610.855 724.646 614.46 719.005 618.068 720.657 621.676 728.007 625.285 725.861 628.894 719.156 632.502 725.279 636.11 724.81 639.719 724.847 643.334 718.879 646.949 721.871 650.064 727.589 652.92 729.046 656.011 729.292 659.302 729.531 663.114 729.458 668.169 728.58 667.384 734.751 670.737 736.217 675.556 737.208 677.493 740.474 673.005 746.067 680.656 747.493 674.588 752.065 674.391 755.184 682.182 759.6 679.49 764.016 683.018 768.075 675.788 770.601 673.301 773.238 675.542 777.787 674.133 781.099 674.273 785.81 672.067 789.136 665.55 787.344 661.772 787.615 659.59 790.271 658.129 795.967 653.876 794.357 650.048 791.466 646.949 797.145" style="fill: #fff;"/>
      <polygon points="646.949 797.145 643.348 798.974 639.747 799.582 636.144 797.261 632.541 793.871 628.939 799.39 625.337 799.03 621.736 796.777 618.135 791.494 614.534 800.12 610.932 797.414 607.33 797.43 603.727 790.688 600.124 790.549 596.522 791.221 592.92 798.846 589.319 791.617 585.717 791.097 582.115 798.062 578.511 794.738 574.908 798.952 571.306 796.828 567.704 798.964 564.102 794.531 560.499 793.073 556.896 795.915 553.293 790.763 549.69 795.623 546.088 791.538 542.49 795.785 538.893 795.148 535.296 791.614 531.698 799.854 528.099 794.75 524.497 795.937 520.893 796.796 517.29 795.636 513.69 791.94 510.09 791.128 506.491 792.231 502.891 795.205 499.29 793.352 495.686 791.311 492.082 793.72 488.48 796.691 484.879 796.818 481.278 790.978 477.676 796.979 474.071 798.698 470.467 793.716 466.865 794.309 463.263 800.336 459.659 798.604 456.053 800.235 452.449 792.001 448.846 800.261 445.242 799.548 441.636 795.991 438.032 790.68 434.428 800.039 430.822 800.172 427.217 792.838 423.611 791.487 420.006 796.896 416.4 796.183 412.794 791.645 409.187 799.38 405.586 797.905 401.98 797.788 398.378 799.895 394.771 799.721 391.167 799.962 387.56 792.072 383.954 797.88 380.347 793.711 376.738 794.167 373.129 794.384 369.521 796.335 365.913 799.239 362.305 799.903 358.695 797.785 355.08 793.297 351.465 798.697 347.558 798.726 344.651 793.865 341.878 791.411 335.699 796.745 335.043 790.153 329.451 791.616 329.693 785.787 327.458 783.16 322.509 782.213 322.318 778.053 322.826 774.038 323.368 770.433 323.287 767.196 322.813 764.016 319.685 759.6 318.077 755.184 324.613 752.153 318.026 747.554 320.391 744.31 324.392 742.147 327.748 740.285 327.519 736.087 329.173 732.891 332.93 731.938 333.355 726.365 338.449 728.152 339.668 721.47 344.979 726.781 347.468 719.672 351.465 719.258 355.066 719.32 358.668 724.703 362.27 728.034 365.874 727.172 369.476 723.901 373.078 727.697 376.679 726.104 380.28 724.731 383.881 726.095 387.482 726.401 391.085 724.624 394.688 726.821 398.291 726.845 401.893 719.601 405.494 721.375 409.096 724.293 412.698 728.051 416.3 720.135 419.903 722.243 423.507 719.962 427.109 719.671 430.711 719.247 434.313 723.425 437.915 724.665 441.519 723.208 445.122 727.087 448.724 724.241 452.327 719.317 455.924 718.768 459.521 722.801 463.118 725.237 466.716 723.898 470.316 727.88 473.918 722.653 477.522 721.272 481.124 719.311 484.725 719.268 488.324 719.605 491.924 724.267 495.523 723.054 499.125 719.755 502.728 722.806 506.333 725.317 509.935 724.629 513.535 727.5 517.136 720.419 520.739 720.839 524.343 721.639 527.948 719.733 531.55 724.22 535.152 722.457 538.755 722.513 542.362 722.204 545.965 719.419 549.568 725.297 553.173 726.777 556.778 722.51 560.382 728.13 563.987 724.397 567.593 718.828 571.197 724.494 574.804 719.931 578.409 723.901 582.015 726.144 585.62 725.917 589.227 727.954 592.829 728.74 596.435 727.858 600.037 726.565 603.643 723.931 607.247 723.476 610.855 724.646 614.46 719.005 618.068 720.657 621.676 728.007 625.285 725.861 628.894 719.156 632.502 725.279 636.11 724.81 639.719 724.847 643.334 718.879 646.949 721.871 650.064 727.589 652.92 729.046 656.011 729.292 659.302 729.531 663.114 729.458 668.169 728.58 667.384 734.751 670.737 736.217 675.556 737.208 677.493 740.474 673.005 746.067 680.656 747.493 674.588 752.065 674.391 755.184 682.182 759.6 679.49 764.016 683.018 768.075 675.788 770.601 673.301 773.238 675.542 777.787 674.133 781.099 674.273 785.81 672.067 789.136 665.55 787.344 661.772 787.615 659.59 790.271 658.129 795.967 653.876 794.357 650.048 791.466 646.949 797.145" style="fill: none; stroke: #000; stroke-linecap: round; stroke-linejoin: round; stroke-width: 35px;"/>
    </g>
  </g>
</svg>