<?xml version="1.0" encoding="UTF-8"?>
<svg id="Sticker" xmlns="http://www.w3.org/2000/svg" width="1000" height="1000" viewBox="0 0 1000 1000">
  <g>
    <polygon points="587.771 749.583 584.19 746.47 580.607 751.278 577.023 750.299 573.437 748.854 569.854 751.865 566.273 750.369 562.691 748.324 559.107 746.911 555.521 743.602 551.936 745.474 548.353 748.67 544.77 744.702 541.185 748.344 537.598 742.902 534.013 747.657 530.429 751.236 526.844 746.124 523.257 746.253 519.672 748.141 516.087 750.935 512.5 743.359 508.914 748.781 505.327 743.584 501.741 747.019 498.154 743.686 494.567 749.441 490.979 744.496 487.396 742.49 483.809 746.953 480.226 746.697 476.639 750.043 473.054 745.271 469.465 751.66 465.879 749.142 462.291 742.651 458.701 749.076 455.111 751.168 451.521 746.998 447.933 748.406 444.343 746.559 440.753 748.996 437.157 743.559 433.561 751.068 429.956 746.298 426.388 743.463 422.662 750.527 419.244 742.327 415.41 749.967 411.899 746.891 408.303 746.478 404.679 746.654 401.334 742.128 397.181 750.476 394.094 742.902 390.465 743.245 386.43 748.038 382.7 748.886 379.365 745.765 376.098 742.387 372.555 741.72 368.442 745.581 364.504 747.651 361.937 739.782 358.215 740.39 353.979 744.13 351.106 739.254 347.974 736.263 344.092 737.593 340.733 736.013 337.513 733.819 333.451 735.786 328.722 740.598 325.294 739.227 322.656 734.546 320.076 729.922 315.082 735.061 312.493 730.655 309.279 728.785 305.145 730.216 301.149 731.012 296.944 732.372 295.023 726.317 290.36 729.01 287.836 725.099 285.676 720.313 282.176 719.484 278.658 718.683 273.44 722.295 270.836 718.991 266.867 719.157 264.041 716.51 261.892 712.376 255.787 717.261 255.962 708.126 248.995 714.496 246.607 711.035 244.42 707.281 240 707.955 238.153 703.678 236.01 700.086 231.335 701.071 230.621 695.108 225.552 696.634 223.506 693.081 216.899 696.78 214.896 693.139 214.927 686.583 207.728 690.672 206.131 686.592 201.707 686.452 202.877 678.843 197.75 679.578 193.339 679.252 193.422 673.418 191.973 669.575 188.283 668.35 186.464 665.01 180.934 665.661 181.366 659.995 177.096 659.203 174.481 656.707 173.754 652.444 167.698 653.094 165.038 650.563 167.982 643.29 161.088 644.338 160.502 640.16 162.114 634.403 158.547 632.647 152.028 632.902 152.753 627.99 150.424 625.223 146.553 623.413 145.896 619.555 147.875 614.216 141.107 613.959 137.626 611.704 139.425 606.648 140.445 602.13 137.746 599.48 130.815 598.687 135.329 592.746 134.482 589.245 128.701 587.685 130.228 583.246 123.692 581.74 125.942 577.118 127.531 572.831 127.82 569.025 123.345 566.582 126.13 562.134 126.017 558.514 125.08 555.103 117.002 553.168 116.826 549.48 122.356 544.812 119.651 541.649 120.595 537.895 115.47 534.96 118.634 530.949 116.964 527.517 111.721 524.343 111.934 520.653 112.01 516.983 118.654 513.054 113.774 509.622 116.503 505.957 113.314 502.366 111.402 502.365 112.079 498.727 115.421 495.177 111.799 491.434 116.567 488.04 115.09 484.35 120.076 481.141 120.035 477.582 115.668 473.532 113.041 469.562 121.605 467.073 116.123 462.639 119.757 459.581 118.698 455.741 118.484 452.017 117.477 448.09 119.409 444.796 122.755 441.893 119.12 437.2 124.722 434.986 123.281 430.8 128.369 428.617 126.88 424.353 129.388 421.417 131.359 418.328 127.362 412.922 130.678 410.325 132.429 407.128 132.695 403.275 139.719 402.551 134.983 396.281 138.081 393.754 138.177 389.692 139.122 386.031 144.97 385.151 142.805 379.669 145.952 377.294 147.368 373.865 154.688 374.33 157.146 371.702 156.512 366.896 159.284 364.463 164.729 364.095 163.791 358.878 163.36 353.912 169.202 354.056 173.432 352.996 175.699 350.29 173.715 343.672 178.139 342.876 179.331 339.037 184.414 339.032 186.057 335.617 189.896 334.488 189.614 328.912 190.494 324.46 194.945 324.042 200.302 324.821 201.401 320.539 205.573 320.029 207.846 317.144 210.821 315.157 212.6 311.531 213.699 306.856 219.141 308.359 223.494 308.431 224.596 303.616 228.954 303.791 228.418 296.118 232.827 296.391 237.9 297.93 238.641 291.992 242.394 291.3 245.973 290.34 249.772 289.849 252.855 288.006 257.481 289.295 258.384 282.935 260.767 279.489 264.978 279.997 268.368 278.743 271.395 276.647 274.472 274.631 276.811 270.724 282.333 274.891 285.777 273.859 289.035 272.326 291.279 267.895 295.843 270.058 299.927 270.99 302.335 266.798 307.08 269.982 309.102 264.307 312.591 263.403 316.715 264.801 319.358 260.825 323.767 263.486 327.328 262.999 330.74 261.915 334.301 261.462 337.72 260.389 340.552 256.483 343.47 252.72 348.362 258.978 350.742 252.161 353.981 249.666 357.691 249.821 361.55 251.007 365.959 256.108 368.672 249.736 372.266 249.335 375.564 246.52 379.447 248.47 383.563 252.969 387.123 252.624 390.374 248.884 394.332 253.033 397.264 244.438 400.849 243.609 404.536 244.317 408.379 248.316 412.102 251.029 415.373 242.726 419.068 244.61 422.802 249.599 426.305 244.031 429.944 245.553 433.561 247.908 437.142 242.606 440.724 251.136 444.309 247.258 447.894 245.182 451.477 247.225 455.059 244.649 458.641 250.898 462.224 246.796 465.81 247.328 469.395 247.215 472.979 251.941 476.562 247.086 480.146 245.042 483.734 249.725 487.318 245.013 490.902 249.975 494.488 244.64 498.074 243.175 501.659 246.045 505.245 244.717 508.832 245.891 512.417 250.334 516.005 246.754 519.591 244.964 523.178 251.468 526.765 248.091 530.352 243.633 533.935 249.629 537.522 248.078 541.105 246.418 544.692 248.65 548.278 248.946 551.866 246.008 555.453 244.907 559.041 243.818 562.631 244.193 566.22 246.784 569.81 242.784 573.399 246.854 576.988 244.504 580.579 243.62 584.175 243.371 587.771 250.093 591.357 249.22 595.015 244.393 598.536 249.029 602.096 250.059 605.702 249.451 609.181 251.954 612.993 247.358 616.49 249.27 620.286 246.353 623.595 250.572 627.725 244.137 631.041 247.848 634.39 250.681 637.584 254.592 641.117 255.054 645.627 247.556 648.727 251.804 652.837 248.364 656.009 251.711 659.181 254.755 663.726 249.22 667.014 251.532 670.622 251.928 673.698 255.13 677.394 255.013 679.914 260.58 683.339 261.605 688.21 256.269 690.675 261.542 694.572 260.684 698.673 259.158 701.775 261.557 705.46 261.742 707.926 266.23 711.9 265.403 716.599 262.349 719.503 265.203 722.301 268.265 726.879 265.976 729.767 268.711 732.933 270.583 735.582 273.798 739.286 274.163 741.008 279.56 746.512 275.513 749.935 276.694 750.788 283.78 755.395 282.185 759.021 282.883 762.318 284.32 767.522 281.872 769.988 285.075 772.134 288.81 774.893 291.281 780.164 289.138 781.942 293.388 784.051 296.934 790.233 293.571 791.1 299.141 794.237 300.917 794.459 307.19 798.557 307.422 801.93 308.805 807.637 306.919 806.36 314.863 814.492 309.891 813.85 316.732 816.952 318.58 819.588 321.022 821.35 324.497 824.319 326.504 827.678 328.089 833.005 327.557 831.548 334.424 834.89 336.071 841.234 334.749 843.899 337.24 845.873 340.392 845.319 345.837 850.589 345.927 851.614 349.84 851.405 354.714 853.609 357.5 855.431 360.584 864.31 358.285 860.051 365.98 864.415 367.23 869.22 368.288 868.853 372.908 874.403 373.628 869.238 381.133 872.536 383.281 879.415 383.438 881.692 386.358 877.018 392.992 883.142 393.847 883.774 397.579 888.395 399.396 885.675 404.641 883.79 409.361 886.752 411.96 888.115 415.248 890.506 418.153 890.471 421.964 896.4 423.717 899.918 426.411 895.013 431.736 895.476 435.325 894.117 439.384 901.388 441.199 902.882 444.582 905.295 447.786 898.208 452.965 898.065 456.6 902.187 459.481 902.242 463.104 899.398 467.12 902.064 470.344 900.961 474.053 909.03 476.835 907.396 480.635 910.018 484.09 901.271 488.226 905.246 491.604 902.861 495.255 907.646 498.747 907.536 502.365 908.154 502.366 902.944 505.93 902.716 509.489 904.94 513.143 904.394 516.71 908.197 520.567 910.338 524.401 905.932 527.669 908.002 531.546 901.802 534.442 901.838 538.054 900.502 541.465 899.921 544.983 898.401 548.322 901.746 552.642 897.52 555.4 904.069 560.642 903.078 564.188 894.181 565.547 892.355 568.704 896.181 573.598 898.851 578.29 891.868 579.743 888.909 582.462 888.501 586.108 891.15 591.039 891.338 595.076 890.829 598.866 887.568 601.4 888.235 605.799 878.384 604.875 883.203 611.479 882.992 615.559 881.189 618.782 876.565 620.292 871.132 621.159 874.651 627.735 872.918 631.004 865.938 630.576 862.356 632.388 862.089 636.644 857.426 637.539 858.157 642.698 857.054 646.477 853.266 647.985 850.34 650.186 849.731 654.517 843.881 653.911 842.259 657.303 841.988 662.141 837.602 662.766 837.771 668.257 836.41 672.215 831.132 671.711 828.187 673.825 826.846 677.91 825.316 681.866 818.271 678.678 816.919 682.868 815.588 687.213 809.724 685.179 805.33 685.073 804.444 690.187 803.621 695.592 799.212 695.407 794.986 695.399 792.697 698.601 789.677 700.595 787.549 704.224 783.504 704.377 781.231 707.851 775.879 705.316 775.709 713.137 769.069 707.691 768.694 715.432 764.837 715.757 758.92 711.255 758.157 718.648 755.179 720.977 749.267 715.938 746.27 718.108 745.405 726.085 741.242 725.319 737.786 726.453 732.674 722.665 730.027 726.111 726.989 728.477 722.14 724.981 718.562 725.491 716.694 731.987 711.529 726.854 708.273 728.496 705.677 732.791 702.773 736.093 698.646 734.396 695.752 737.942 691.252 734.33 688.776 740.041 685.273 741.052 680.512 735.514 677.04 736.446 673.29 735.817 670.148 738.714 666.366 737.8 663.37 741.975 660.242 745.629 655.704 739.151 652.427 741.796 649.406 746.88 645.012 740.261 642.259 748.444 638.577 748.176 634.41 742.367 630.872 743.155 627.553 746.951 624.043 748.675 620.207 745.377 616.389 741.506 613.235 750.681 609.396 745.736 605.785 745.528 602.098 742.376 598.572 745.221 595.021 748.836 591.406 750.503 587.771 749.583" style="fill: #fff;"/>
    <polygon points="587.771 749.583 584.19 746.47 580.607 751.278 577.023 750.299 573.437 748.854 569.854 751.865 566.273 750.369 562.691 748.324 559.107 746.911 555.521 743.602 551.936 745.474 548.353 748.67 544.77 744.702 541.185 748.344 537.598 742.902 534.013 747.657 530.429 751.236 526.844 746.124 523.257 746.253 519.672 748.141 516.087 750.935 512.5 743.359 508.914 748.781 505.327 743.584 501.741 747.019 498.154 743.686 494.567 749.441 490.979 744.496 487.396 742.49 483.809 746.953 480.226 746.697 476.639 750.043 473.054 745.271 469.465 751.66 465.879 749.142 462.291 742.651 458.701 749.076 455.111 751.168 451.521 746.998 447.933 748.406 444.343 746.559 440.753 748.996 437.157 743.559 433.561 751.068 429.956 746.298 426.388 743.463 422.662 750.527 419.244 742.327 415.41 749.967 411.899 746.891 408.303 746.478 404.679 746.654 401.334 742.128 397.181 750.476 394.094 742.902 390.465 743.245 386.43 748.038 382.7 748.886 379.365 745.765 376.098 742.387 372.555 741.72 368.442 745.581 364.504 747.651 361.937 739.782 358.215 740.39 353.979 744.13 351.106 739.254 347.974 736.263 344.092 737.593 340.733 736.013 337.513 733.819 333.451 735.786 328.722 740.598 325.294 739.227 322.656 734.546 320.076 729.922 315.082 735.061 312.493 730.655 309.279 728.785 305.145 730.216 301.149 731.012 296.944 732.372 295.023 726.317 290.36 729.01 287.836 725.099 285.676 720.313 282.176 719.484 278.658 718.683 273.44 722.295 270.836 718.991 266.867 719.157 264.041 716.51 261.892 712.376 255.787 717.261 255.962 708.126 248.995 714.496 246.607 711.035 244.42 707.281 240 707.955 238.153 703.678 236.01 700.086 231.335 701.071 230.621 695.108 225.552 696.634 223.506 693.081 216.899 696.78 214.896 693.139 214.927 686.583 207.728 690.672 206.131 686.592 201.707 686.452 202.877 678.843 197.75 679.578 193.339 679.252 193.422 673.418 191.973 669.575 188.283 668.35 186.464 665.01 180.934 665.661 181.366 659.995 177.096 659.203 174.481 656.707 173.754 652.444 167.698 653.094 165.038 650.563 167.982 643.29 161.088 644.338 160.502 640.16 162.114 634.403 158.547 632.647 152.028 632.902 152.753 627.99 150.424 625.223 146.553 623.413 145.896 619.555 147.875 614.216 141.107 613.959 137.626 611.704 139.425 606.648 140.445 602.13 137.746 599.48 130.815 598.687 135.329 592.746 134.482 589.245 128.701 587.685 130.228 583.246 123.692 581.74 125.942 577.118 127.531 572.831 127.82 569.025 123.345 566.582 126.13 562.134 126.017 558.514 125.08 555.103 117.002 553.168 116.826 549.48 122.356 544.812 119.651 541.649 120.595 537.895 115.47 534.96 118.634 530.949 116.964 527.517 111.721 524.343 111.934 520.653 112.01 516.983 118.654 513.054 113.774 509.622 116.503 505.957 113.314 502.366 111.402 502.365 112.079 498.727 115.421 495.177 111.799 491.434 116.567 488.04 115.09 484.35 120.076 481.141 120.035 477.582 115.668 473.532 113.041 469.562 121.605 467.073 116.123 462.639 119.757 459.581 118.698 455.741 118.484 452.017 117.477 448.09 119.409 444.796 122.755 441.893 119.12 437.2 124.722 434.986 123.281 430.8 128.369 428.617 126.88 424.353 129.388 421.417 131.359 418.328 127.362 412.922 130.678 410.325 132.429 407.128 132.695 403.275 139.719 402.551 134.983 396.281 138.081 393.754 138.177 389.692 139.122 386.031 144.97 385.151 142.805 379.669 145.952 377.294 147.368 373.865 154.688 374.33 157.146 371.702 156.512 366.896 159.284 364.463 164.729 364.095 163.791 358.878 163.36 353.912 169.202 354.056 173.432 352.996 175.699 350.29 173.715 343.672 178.139 342.876 179.331 339.037 184.414 339.032 186.057 335.617 189.896 334.488 189.614 328.912 190.494 324.46 194.945 324.042 200.302 324.821 201.401 320.539 205.573 320.029 207.846 317.144 210.821 315.157 212.6 311.531 213.699 306.856 219.141 308.359 223.494 308.431 224.596 303.616 228.954 303.791 228.418 296.118 232.827 296.391 237.9 297.93 238.641 291.992 242.394 291.3 245.973 290.34 249.772 289.849 252.855 288.006 257.481 289.295 258.384 282.935 260.767 279.489 264.978 279.997 268.368 278.743 271.395 276.647 274.472 274.631 276.811 270.724 282.333 274.891 285.777 273.859 289.035 272.326 291.279 267.895 295.843 270.058 299.927 270.99 302.335 266.798 307.08 269.982 309.102 264.307 312.591 263.403 316.715 264.801 319.358 260.825 323.767 263.486 327.328 262.999 330.74 261.915 334.301 261.462 337.72 260.389 340.552 256.483 343.47 252.72 348.362 258.978 350.742 252.161 353.981 249.666 357.691 249.821 361.55 251.007 365.959 256.108 368.672 249.736 372.266 249.335 375.564 246.52 379.447 248.47 383.563 252.969 387.123 252.624 390.374 248.884 394.332 253.033 397.264 244.438 400.849 243.609 404.536 244.317 408.379 248.316 412.102 251.029 415.373 242.726 419.068 244.61 422.802 249.599 426.305 244.031 429.944 245.553 433.561 247.908 437.142 242.606 440.724 251.136 444.309 247.258 447.894 245.182 451.477 247.225 455.059 244.649 458.641 250.898 462.224 246.796 465.81 247.328 469.395 247.215 472.979 251.941 476.562 247.086 480.146 245.042 483.734 249.725 487.318 245.013 490.902 249.975 494.488 244.64 498.074 243.175 501.659 246.045 505.245 244.717 508.832 245.891 512.417 250.334 516.005 246.754 519.591 244.964 523.178 251.468 526.765 248.091 530.352 243.633 533.935 249.629 537.522 248.078 541.105 246.418 544.692 248.65 548.278 248.946 551.866 246.008 555.453 244.907 559.041 243.818 562.631 244.193 566.22 246.784 569.81 242.784 573.399 246.854 576.988 244.504 580.579 243.62 584.175 243.371 587.771 250.093 591.357 249.22 595.015 244.393 598.536 249.029 602.096 250.059 605.702 249.451 609.181 251.954 612.993 247.358 616.49 249.27 620.286 246.353 623.595 250.572 627.725 244.137 631.041 247.848 634.39 250.681 637.584 254.592 641.117 255.054 645.627 247.556 648.727 251.804 652.837 248.364 656.009 251.711 659.181 254.755 663.726 249.22 667.014 251.532 670.622 251.928 673.698 255.13 677.394 255.013 679.914 260.58 683.339 261.605 688.21 256.269 690.675 261.542 694.572 260.684 698.673 259.158 701.775 261.557 705.46 261.742 707.926 266.23 711.9 265.403 716.599 262.349 719.503 265.203 722.301 268.265 726.879 265.976 729.767 268.711 732.933 270.583 735.582 273.798 739.286 274.163 741.008 279.56 746.512 275.513 749.935 276.694 750.788 283.78 755.395 282.185 759.021 282.883 762.318 284.32 767.522 281.872 769.988 285.075 772.134 288.81 774.893 291.281 780.164 289.138 781.942 293.388 784.051 296.934 790.233 293.571 791.1 299.141 794.237 300.917 794.459 307.19 798.557 307.422 801.93 308.805 807.637 306.919 806.36 314.863 814.492 309.891 813.85 316.732 816.952 318.58 819.588 321.022 821.35 324.497 824.319 326.504 827.678 328.089 833.005 327.557 831.548 334.424 834.89 336.071 841.234 334.749 843.899 337.24 845.873 340.392 845.319 345.837 850.589 345.927 851.614 349.84 851.405 354.714 853.609 357.5 855.431 360.584 864.31 358.285 860.051 365.98 864.415 367.23 869.22 368.288 868.853 372.908 874.403 373.628 869.238 381.133 872.536 383.281 879.415 383.438 881.692 386.358 877.018 392.992 883.142 393.847 883.774 397.579 888.395 399.396 885.675 404.641 883.79 409.361 886.752 411.96 888.115 415.248 890.506 418.153 890.471 421.964 896.4 423.717 899.918 426.411 895.013 431.736 895.476 435.325 894.117 439.384 901.388 441.199 902.882 444.582 905.295 447.786 898.208 452.965 898.065 456.6 902.187 459.481 902.242 463.104 899.398 467.12 902.064 470.344 900.961 474.053 909.03 476.835 907.396 480.635 910.018 484.09 901.271 488.226 905.246 491.604 902.861 495.255 907.646 498.747 907.536 502.365 908.154 502.366 902.944 505.93 902.716 509.489 904.94 513.143 904.394 516.71 908.197 520.567 910.338 524.401 905.932 527.669 908.002 531.546 901.802 534.442 901.838 538.054 900.502 541.465 899.921 544.983 898.401 548.322 901.746 552.642 897.52 555.4 904.069 560.642 903.078 564.188 894.181 565.547 892.355 568.704 896.181 573.598 898.851 578.29 891.868 579.743 888.909 582.462 888.501 586.108 891.15 591.039 891.338 595.076 890.829 598.866 887.568 601.4 888.235 605.799 878.384 604.875 883.203 611.479 882.992 615.559 881.189 618.782 876.565 620.292 871.132 621.159 874.651 627.735 872.918 631.004 865.938 630.576 862.356 632.388 862.089 636.644 857.426 637.539 858.157 642.698 857.054 646.477 853.266 647.985 850.34 650.186 849.731 654.517 843.881 653.911 842.259 657.303 841.988 662.141 837.602 662.766 837.771 668.257 836.41 672.215 831.132 671.711 828.187 673.825 826.846 677.91 825.316 681.866 818.271 678.678 816.919 682.868 815.588 687.213 809.724 685.179 805.33 685.073 804.444 690.187 803.621 695.592 799.212 695.407 794.986 695.399 792.697 698.601 789.677 700.595 787.549 704.224 783.504 704.377 781.231 707.851 775.879 705.316 775.709 713.137 769.069 707.691 768.694 715.432 764.837 715.757 758.92 711.255 758.157 718.648 755.179 720.977 749.267 715.938 746.27 718.108 745.405 726.085 741.242 725.319 737.786 726.453 732.674 722.665 730.027 726.111 726.989 728.477 722.14 724.981 718.562 725.491 716.694 731.987 711.529 726.854 708.273 728.496 705.677 732.791 702.773 736.093 698.646 734.396 695.752 737.942 691.252 734.33 688.776 740.041 685.273 741.052 680.512 735.514 677.04 736.446 673.29 735.817 670.148 738.714 666.366 737.8 663.37 741.975 660.242 745.629 655.704 739.151 652.427 741.796 649.406 746.88 645.012 740.261 642.259 748.444 638.577 748.176 634.41 742.367 630.872 743.155 627.553 746.951 624.043 748.675 620.207 745.377 616.389 741.506 613.235 750.681 609.396 745.736 605.785 745.528 602.098 742.376 598.572 745.221 595.021 748.836 591.406 750.503 587.771 749.583" style="fill: none; stroke: #000; stroke-linecap: round; stroke-linejoin: round; stroke-width: 35px;"/>
  </g>
  <g>
    <polygon points="743.915 497.25 741.624 500.879 739.568 504.446 742.949 508.205 739.631 511.66 739.019 515.228 741.28 519.053 739.633 522.534 735.625 525.68 739.257 529.79 736.146 532.973 734.485 536.325 738.201 540.662 737.327 544.198 734.008 547.184 729.066 549.698 733.867 554.568 736.457 559.028 733.137 561.894 731.219 565.111 733.377 569.623 724.458 570.457 726.157 574.841 723.297 577.606 726.441 582.692 721.582 584.622 723.301 589.275 718.151 590.94 719.3 595.434 713.478 596.611 716.873 602.327 708.998 602.263 711.573 607.706 707.654 609.613 705.005 612.184 705.89 616.889 705.135 620.671 700.975 622.264 704.104 628.722 699.534 629.997 699.279 634.296 690.041 631.931 690.567 636.801 690.059 640.979 688.289 644.202 687.927 648.656 681.194 647.599 679.765 651.128 677.006 653.463 671.778 653.388 669.854 656.45 669.639 661.309 670.816 667.804 666.448 668.465 660.573 667.302 657.618 669.326 656.239 673.234 652.953 674.87 653.97 682.008 646.176 677.754 647.773 685.974 645.227 688.722 638.715 685.688 636.66 689.076 633.676 691.101 631.643 694.681 626.484 693.109 623.069 694.336 622.201 700.147 617.93 699.854 615.511 703.034 613.194 706.547 607.791 703.669 606.004 708.412 599.889 703.452 600.197 713.405 594.954 710.147 591.774 711.905 588.634 713.819 586.455 718.617 580.429 711.957 579.34 720.483 575.084 718.976 571.223 718.602 566.877 716.159 564.062 719.648 560.695 721.053 556.497 718.523 553.907 723.915 549.585 720.197 546.354 722.53 543.303 726.552 539.809 727.928 536.11 727.702 532.692 730.264 528.335 721.642 524.823 722.138 521.387 724.478 517.881 726.749 514.286 727.635 510.666 730.576 507.131 722.129 503.435 727.283 499.982 723.676 496.264 726.091 492.702 725.425 488.856 727.933 485.919 721.295 481.829 725.456 478.715 721.66 474.977 722.512 470.521 727.241 467.595 722.986 463.244 726.212 460.24 722.801 455.976 725.022 453.758 718.847 449.579 720.511 445.452 721.686 444.511 712.252 440.334 713.677 437.591 710.655 433.065 712.766 428.357 715.046 427.903 706.266 421.363 712.82 421.072 704.276 416.778 705.172 413.055 704.667 410.725 701.244 405.559 703.517 404.613 697.542 398.526 701.213 396.004 698.258 394.562 693.563 390.76 692.908 389.522 688.138 383.093 691.446 383.873 683.818 376.542 688.073 373.36 686.221 374.663 678.383 369.019 679.849 368.11 675.181 364.791 673.573 362.692 670.496 357.063 671.466 358.492 664.478 354.942 663.069 351.332 661.659 350.978 656.926 345.706 657.095 343.843 653.895 342.968 649.831 341.64 646.252 336.096 646.334 331.048 645.833 332.985 639.585 331.468 636.235 324.146 637.284 328.341 629.7 319.848 631.351 323.321 624.554 322.457 620.863 313.803 622.176 314.103 617.694 312.563 614.398 313.659 609.608 309.746 607.697 308.576 604.241 308.445 600.276 304.848 598.071 306.125 593.49 304.695 590.241 301.09 587.935 301.603 583.84 294.064 583.006 296.741 578.082 299.021 573.445 291.752 572.2 288.119 569.559 294.756 563.674 288.95 561.665 293.878 556.561 291.383 553.557 285.313 551.353 286.379 547.387 290.205 542.914 287.448 539.838 284.449 536.736 282.142 533.448 279.918 530.091 282.882 526.031 283.149 522.374 279.471 519.106 282.696 515.197 286.511 511.362 281.427 508.064 279.834 504.506 278.842 500.893 279.43 497.25 286.005 493.718 280.247 490.007 283.264 486.521 280.914 482.791 284.109 479.412 283.9 475.806 287.412 472.589 278.976 467.978 283.517 464.913 280.027 460.716 285.181 457.886 288.209 454.801 283.503 450.199 283.453 446.454 284.996 443.063 284.729 439.231 286.307 435.864 290.551 433.29 295.265 430.972 288.776 425.144 293.904 423.026 292.452 418.678 297.426 416.664 297.497 412.842 300.387 410.142 299.339 405.792 298.688 401.528 299.16 397.712 303.294 395.651 301.973 390.904 311.082 391.573 312.551 388.332 312.776 384.371 316.736 382.559 317.841 379.084 320.112 376.319 320.053 372.036 323.193 369.841 324.647 366.51 321.526 359.821 323.72 356.876 331.559 358.316 330.781 353.127 333.581 350.745 333.924 346.288 342.008 348.552 339.323 341.329 339.942 336.918 344.314 336.032 352.03 338.603 351.344 332.831 350.48 326.658 355.017 326.182 358.542 324.686 363.929 325.426 362.046 317.587 365.021 315.443 372.078 318.564 375.598 317.335 373.344 308.231 376.986 307.029 379.961 304.911 385.792 307.127 387.857 303.716 392.858 304.981 391.523 295.78 399.328 302.028 400.609 297.038 402.459 292.869 405.698 291.226 410.976 293.737 413.403 290.539 417.818 291.595 420.456 288.771 422.308 283.925 427.611 287.465 430.121 284.086 432.98 281.464 435.7 278.29 440.917 282.587 442.506 275.691 446.4 276.049 450.594 277.676 453.746 275.575 457.694 276.628 461.215 276.044 463.371 268.87 467.206 269.437 471.263 271.515 474.732 270.405 478.674 272.525 481.328 265.011 485.697 271.151 489.224 270.495 492.346 264.477 496.358 269.925 500.032 271.903 503.322 263.598 507.108 270.914 510.666 266.141 514.202 272.277 517.788 270.732 521.602 265.371 525.335 264.103 528.645 268.877 532.459 266.742 535.624 271.274 539.708 267.401 543.626 265.679 546.253 272.636 549.67 273.842 552.927 275.786 556.487 276.053 559.982 276.686 563.355 277.84 568.767 270.991 571.807 273.789 575.253 274.973 579.315 274.131 580.963 280.93 585.329 279.207 586.752 285.937 592.834 279.824 595.846 282.133 600.346 280.77 602.316 285.481 604.69 289.026 608.82 288.679 610.283 293.916 613.071 296.275 616.861 296.691 622.885 293.142 626.106 294.881 626.422 301.524 631.774 299.633 632.421 305.4 636.26 306.059 640.365 306.414 643.046 308.903 647.427 309.028 649.823 311.922 651.347 315.895 655.225 316.821 659.173 317.748 658.295 324.406 659.09 328.902 665.579 327.014 668.572 329.108 668.508 334.38 675.642 332.285 674.515 338.481 680.731 337.559 681.905 341.446 682.165 346.066 683.921 349.29 686.51 351.793 687.579 355.53 693.397 355.52 690.244 362.436 694.725 363.538 695.833 367.128 696.257 371.14 698.656 373.78 704.449 374.283 710.112 375.035 705.896 381.804 711.278 382.832 710.988 387.132 713.437 389.897 715.238 393.024 719.496 394.951 718.53 399.444 718.375 403.473 717.306 407.837 719.434 410.782 723.915 412.822 725.662 416.012 729.782 418.365 729.562 422.306 728.693 426.409 729.517 429.922 731.817 432.999 729.595 437.355 728.37 441.347 731.827 444.149 738.877 446.24 738.672 450.032 740.714 453.367 740.988 457.052 736.245 461.515 740.359 464.558 739.505 468.337 743.444 471.552 739.125 475.649 741.712 479.064 743.407 482.606 742.396 486.32 737.905 490.104 743.589 493.59 743.915 497.25"/>
    <polygon points="743.915 497.25 741.624 500.879 739.568 504.446 742.949 508.205 739.631 511.66 739.019 515.228 741.28 519.053 739.633 522.534 735.625 525.68 739.257 529.79 736.146 532.973 734.485 536.325 738.201 540.662 737.327 544.198 734.008 547.184 729.066 549.698 733.867 554.568 736.457 559.028 733.137 561.894 731.219 565.111 733.377 569.623 724.458 570.457 726.157 574.841 723.297 577.606 726.441 582.692 721.582 584.622 723.301 589.275 718.151 590.94 719.3 595.434 713.478 596.611 716.873 602.327 708.998 602.263 711.573 607.706 707.654 609.613 705.005 612.184 705.89 616.889 705.135 620.671 700.975 622.264 704.104 628.722 699.534 629.997 699.279 634.296 690.041 631.931 690.567 636.801 690.059 640.979 688.289 644.202 687.927 648.656 681.194 647.599 679.765 651.128 677.006 653.463 671.778 653.388 669.854 656.45 669.639 661.309 670.816 667.804 666.448 668.465 660.573 667.302 657.618 669.326 656.239 673.234 652.953 674.87 653.97 682.008 646.176 677.754 647.773 685.974 645.227 688.722 638.715 685.688 636.66 689.076 633.676 691.101 631.643 694.681 626.484 693.109 623.069 694.336 622.201 700.147 617.93 699.854 615.511 703.034 613.194 706.547 607.791 703.669 606.004 708.412 599.889 703.452 600.197 713.405 594.954 710.147 591.774 711.905 588.634 713.819 586.455 718.617 580.429 711.957 579.34 720.483 575.084 718.976 571.223 718.602 566.877 716.159 564.062 719.648 560.695 721.053 556.497 718.523 553.907 723.915 549.585 720.197 546.354 722.53 543.303 726.552 539.809 727.928 536.11 727.702 532.692 730.264 528.335 721.642 524.823 722.138 521.387 724.478 517.881 726.749 514.286 727.635 510.666 730.576 507.131 722.129 503.435 727.283 499.982 723.676 496.264 726.091 492.702 725.425 488.856 727.933 485.919 721.295 481.829 725.456 478.715 721.66 474.977 722.512 470.521 727.241 467.595 722.986 463.244 726.212 460.24 722.801 455.976 725.022 453.758 718.847 449.579 720.511 445.452 721.686 444.511 712.252 440.334 713.677 437.591 710.655 433.065 712.766 428.357 715.046 427.903 706.266 421.363 712.82 421.072 704.276 416.778 705.172 413.055 704.667 410.725 701.244 405.559 703.517 404.613 697.542 398.526 701.213 396.004 698.258 394.562 693.563 390.76 692.908 389.522 688.138 383.093 691.446 383.873 683.818 376.542 688.073 373.36 686.221 374.663 678.383 369.019 679.849 368.11 675.181 364.791 673.573 362.692 670.496 357.063 671.466 358.492 664.478 354.942 663.069 351.332 661.659 350.978 656.926 345.706 657.095 343.843 653.895 342.968 649.831 341.64 646.252 336.096 646.334 331.048 645.833 332.985 639.585 331.468 636.235 324.146 637.284 328.341 629.7 319.848 631.351 323.321 624.554 322.457 620.863 313.803 622.176 314.103 617.694 312.563 614.398 313.659 609.608 309.746 607.697 308.576 604.241 308.445 600.276 304.848 598.071 306.125 593.49 304.695 590.241 301.09 587.935 301.603 583.84 294.064 583.006 296.741 578.082 299.021 573.445 291.752 572.2 288.119 569.559 294.756 563.674 288.95 561.665 293.878 556.561 291.383 553.557 285.313 551.353 286.379 547.387 290.205 542.914 287.448 539.838 284.449 536.736 282.142 533.448 279.918 530.091 282.882 526.031 283.149 522.374 279.471 519.106 282.696 515.197 286.511 511.362 281.427 508.064 279.834 504.506 278.842 500.893 279.43 497.25 286.005 493.718 280.247 490.007 283.264 486.521 280.914 482.791 284.109 479.412 283.9 475.806 287.412 472.589 278.976 467.978 283.517 464.913 280.027 460.716 285.181 457.886 288.209 454.801 283.503 450.199 283.453 446.454 284.996 443.063 284.729 439.231 286.307 435.864 290.551 433.29 295.265 430.972 288.776 425.144 293.904 423.026 292.452 418.678 297.426 416.664 297.497 412.842 300.387 410.142 299.339 405.792 298.688 401.528 299.16 397.712 303.294 395.651 301.973 390.904 311.082 391.573 312.551 388.332 312.776 384.371 316.736 382.559 317.841 379.084 320.112 376.319 320.053 372.036 323.193 369.841 324.647 366.51 321.526 359.821 323.72 356.876 331.559 358.316 330.781 353.127 333.581 350.745 333.924 346.288 342.008 348.552 339.323 341.329 339.942 336.918 344.314 336.032 352.03 338.603 351.344 332.831 350.48 326.658 355.017 326.182 358.542 324.686 363.929 325.426 362.046 317.587 365.021 315.443 372.078 318.564 375.598 317.335 373.344 308.231 376.986 307.029 379.961 304.911 385.792 307.127 387.857 303.716 392.858 304.981 391.523 295.78 399.328 302.028 400.609 297.038 402.459 292.869 405.698 291.226 410.976 293.737 413.403 290.539 417.818 291.595 420.456 288.771 422.308 283.925 427.611 287.465 430.121 284.086 432.98 281.464 435.7 278.29 440.917 282.587 442.506 275.691 446.4 276.049 450.594 277.676 453.746 275.575 457.694 276.628 461.215 276.044 463.371 268.87 467.206 269.437 471.263 271.515 474.732 270.405 478.674 272.525 481.328 265.011 485.697 271.151 489.224 270.495 492.346 264.477 496.358 269.925 500.032 271.903 503.322 263.598 507.108 270.914 510.666 266.141 514.202 272.277 517.788 270.732 521.602 265.371 525.335 264.103 528.645 268.877 532.459 266.742 535.624 271.274 539.708 267.401 543.626 265.679 546.253 272.636 549.67 273.842 552.927 275.786 556.487 276.053 559.982 276.686 563.355 277.84 568.767 270.991 571.807 273.789 575.253 274.973 579.315 274.131 580.963 280.93 585.329 279.207 586.752 285.937 592.834 279.824 595.846 282.133 600.346 280.77 602.316 285.481 604.69 289.026 608.82 288.679 610.283 293.916 613.071 296.275 616.861 296.691 622.885 293.142 626.106 294.881 626.422 301.524 631.774 299.633 632.421 305.4 636.26 306.059 640.365 306.414 643.046 308.903 647.427 309.028 649.823 311.922 651.347 315.895 655.225 316.821 659.173 317.748 658.295 324.406 659.09 328.902 665.579 327.014 668.572 329.108 668.508 334.38 675.642 332.285 674.515 338.481 680.731 337.559 681.905 341.446 682.165 346.066 683.921 349.29 686.51 351.793 687.579 355.53 693.397 355.52 690.244 362.436 694.725 363.538 695.833 367.128 696.257 371.14 698.656 373.78 704.449 374.283 710.112 375.035 705.896 381.804 711.278 382.832 710.988 387.132 713.437 389.897 715.238 393.024 719.496 394.951 718.53 399.444 718.375 403.473 717.306 407.837 719.434 410.782 723.915 412.822 725.662 416.012 729.782 418.365 729.562 422.306 728.693 426.409 729.517 429.922 731.817 432.999 729.595 437.355 728.37 441.347 731.827 444.149 738.877 446.24 738.672 450.032 740.714 453.367 740.988 457.052 736.245 461.515 740.359 464.558 739.505 468.337 743.444 471.552 739.125 475.649 741.712 479.064 743.407 482.606 742.396 486.32 737.905 490.104 743.589 493.59 743.915 497.25" style="fill: none; stroke: #000; stroke-linecap: round; stroke-linejoin: round; stroke-width: 35px;"/>
  </g>
</svg>