<?xml version="1.0" encoding="UTF-8"?>
<svg id="Sticker" xmlns="http://www.w3.org/2000/svg" width="1000" height="1000" viewBox="0 0 1000 1000">
  <g>
    <polygon points="821.986 375.046 818.072 376.264 814.666 375.278 811.317 374.025 807.89 373.134 804.195 373.394 799.19 379.4 797.048 372.859 792.2 378.171 789.369 374.644 786.897 369.538 783.479 368.58 778.678 373.689 774.895 374.326 772.622 368.348 770.069 363.594 766.332 363.997 764.734 365.018 767.713 364.759 768.63 361.32 768.389 357.434 768.608 353.728 768.483 349.887 770.737 346.956 767.02 341.742 767.607 338.174 776.246 337.675 770.769 331.789 774.573 329.444 774.296 325.546 777.241 322.874 779.54 319.954 776.696 315.072 779.171 312.212 781.832 309.424 788.32 307.9 783.253 302.498 783.767 299.031 788.831 296.555 786.019 292.384 785.303 288.768 786.884 285.442 786.794 281.94 791.151 278.447 788.476 274.899 787.207 271.444 791.123 267.382 788.768 264.045 787.584 260.601 789.148 256.457 788.073 252.911 785.684 249.838 783.01 246.993 782.696 243.188 783.443 238.716 774.655 239.391 774.215 235.644 775.222 230.751 770.234 229.944 768.553 226.835 767.329 223.255 764.157 221.366 763.002 217.516 759.563 215.977 758.153 212.129 755.08 210.193 752.847 207.1 748.021 207.865 744.176 207.475 744.439 199.637 741.276 197.603 738.212 195.239 731.741 201.57 728.547 200.272 725.512 198.362 723.867 190.384 718.68 197.033 715.597 194.271 712.168 192.863 708.738 190.161 705.04 189.757 701.312 189.215 697.695 191.266 694.118 192.21 691.293 197.813 686.44 190.724 683.988 196.553 679.174 192.483 676.799 197.219 673.682 199.101 671.356 202.733 666.15 199.736 663.922 203.37 659.375 202.255 655.943 203.321 653.003 205.354 648.88 205.072 645.779 206.793 643.773 210.645 643.376 217.646 639.392 217.64 632.747 212.449 630.415 215.676 627.187 217.153 626.29 223.171 623.987 226.453 617.803 222.165 617.64 229.627 614.912 232.095 608.6 232.686 612.811 225.002 608.565 222.726 608.604 218.962 601.655 217.623 605.156 212.659 603.885 209.35 602.895 205.941 600.11 203.155 601.625 198.878 600.278 195.591 595.987 193.324 593.114 190.571 592.214 187.129 589.159 184.433 595.124 178.611 591.108 176.241 590.935 172.54 591.114 168.569 591.497 164.374 585.758 162.953 584.014 159.812 585.592 154.726 577.438 155.526 579.098 150.145 573.902 149.579 572.892 145.908 572.469 141.509 569.946 138.891 565.032 138.881 564.489 134.096 560.931 132.775 555.542 134.237 556.963 125.705 552.53 125.921 551.297 120.47 547.426 119.779 544.211 117.753 538.909 121.177 535.207 121.053 531.452 121.431 529.42 115.06 526.06 113.051 521.237 119.828 518.765 111.175 514.668 115.621 511.059 116.771 507.558 118.829 503.977 115.778 500.647 118.523 497.309 119.664 492.469 111.636 489.677 116.666 486.414 118.418 483.241 120.217 479.689 120.714 474.085 116.156 473.045 123.202 470.516 126.093 467.755 128.3 461.237 124.212 462.582 132.977 457.739 132.105 452.217 130.88 448.822 132.669 448.226 137.502 447.618 141.954 443.893 143.353 442.952 147.21 435.766 146.257 437.609 152.075 438.701 156.96 436.284 159.537 431.492 160.967 428.899 163.736 432.752 169.321 428.03 171.169 423.081 172.924 420.102 175.514 421.427 179.915 419.787 183.07 422.568 188.087 418.183 190.086 416.166 193.082 418.234 197.801 410.442 198.365 410.292 202.151 411.796 206.63 411.866 210.509 408.375 212.886 406.351 215.884 403.588 218.575 405.478 223.95 404.13 218.011 399.647 218.61 396.366 217.191 392.636 216.53 389.898 214.203 389.331 208.249 385.353 207.993 382.697 205.529 376.929 208.266 372.738 208.363 369.434 206.977 368.111 202.286 364.025 202.208 364.696 194.176 358.432 197.737 357.834 191.814 354.39 190.647 350.425 190.256 349.284 184.471 343.139 188.9 340.593 185.793 337.423 183.974 333.324 184.972 329.782 184.571 327.84 177.06 323.726 178.575 319.267 184.214 316.078 181.308 312.694 177.633 309.014 183.316 305.283 176.76 301.5 176.25 297.945 178.017 295.394 184.883 292.122 185.95 286.956 179.721 284.391 183.998 279.263 180.227 276.222 182.81 272.138 182.823 268.865 184.758 267.406 189.931 266.303 195.093 262.853 196.155 258.98 196.771 253.812 195.968 254.705 202.752 253.205 206.265 246.912 204.813 247.376 210.187 244.102 211.963 239.034 212.477 241.172 218.529 235.588 218.992 232.97 221.657 228.269 223.275 232.661 229.662 233.257 233.762 227.416 235.161 229.621 239.74 227.858 242.839 225.67 245.906 221.462 248.692 219.541 252.148 220.62 256.057 222.039 259.858 220.972 263.453 219.958 267.131 226.573 270.441 227.144 273.83 227.749 277.196 226.217 280.954 220.824 285.766 221.997 289.332 227.401 291.574 224.159 296.276 226.428 299.281 226.51 302.964 227.597 306.334 231.176 308.939 234.316 311.678 237.169 314.509 239.031 317.643 231.973 323.529 239.523 324.913 236.764 329.476 235.881 333.455 244.208 334.599 243.702 338.468 238.623 343.746 244.393 345.686 241.986 348.087 240.483 348.631 236.923 348.788 233.092 347.282 230.624 354.245 227.111 354.721 223.155 352.42 219.473 351.853 215.904 351.974 212.198 351.254 209.347 355.873 205.933 356.976 202.439 357.565 198.809 357.324 194.603 353.501 191.418 356.042 187.734 355.515 185.134 361.737 180.595 356.844 177.748 360.867 174.038 360.901 169.624 359.03 167.921 365.181 164.064 365.106 160.059 365.024 157.702 368.411 151.977 365.672 151.508 371.986 150.002 376.063 147.706 378.762 140.075 375.018 136.952 377.183 137.436 383.014 132.393 383.256 132.792 388.472 127.638 389.012 125.616 392.15 122.758 394.732 124.604 400.174 123.535 403.653 119.726 405.748 117.187 408.617 118.071 412.909 120.015 417.358 119.91 420.928 118.106 423.993 115.025 426.872 108.919 429.438 114.102 433.897 108.893 436.993 108.196 440.695 116.852 444.495 112.424 448.045 113.505 451.549 111.838 455.309 109.511 459.35 116.787 461.69 116.637 465.291 117.719 468.619 114.979 473.237 120.421 475.051 118.025 479.89 117.93 483.997 121.088 486.512 125.006 488.41 125.327 492.454 127.525 495.339 129.13 498.69 132.532 500.572 135.344 502.855 137.48 505.78 143.221 504.75 145.737 507.05 145.142 513.47 151.085 511.309 152.982 514.689 156.284 516.097 156.307 522.586 158.314 526.011 160.753 528.759 167.264 525.213 171.215 525.625 171.692 531.42 173.701 534.842 176.807 536.567 182.459 534.355 184.186 538.218 187.681 539.337 191.011 540.719 191.27 546.855 196.353 545.526 201.821 543.611 197.352 550.428 199.389 552.077 200.69 557.886 192.763 555.711 195.759 562.988 191.602 564.077 190.483 567.793 182.795 565.827 184.397 571.902 177.958 571.017 176.92 574.809 173.956 576.925 177.11 584.343 168.859 581.893 171.249 588.655 164.168 587.22 163.76 591.569 165.648 597.906 157.728 595.975 156.57 599.755 158.724 605.666 154.012 606.816 149.164 608.207 149.445 612.563 152.666 618.069 150.041 620.692 144.789 622.497 146.406 626.843 143.038 629.607 147.503 634.322 138.472 636.2 141.565 640.413 141.367 644.025 146.251 647.851 145.581 651.239 138.18 654.962 137.661 658.75 143.315 661.83 138.46 666.237 141.401 669.465 142.722 672.917 143.757 676.416 148.989 678.478 151.602 681.186 147.39 686.739 145.889 691.522 150.111 693.558 149.218 698.341 154.688 699.34 157.342 701.914 159.64 704.689 158.892 709.975 161.066 713.063 163.321 716.125 166.979 717.762 170.026 719.938 176.957 717.19 179.918 718.963 181.201 723.205 181.459 729.6 188.895 723.868 189.642 730.005 193.874 729.348 195.257 735.439 198.333 737.957 203.774 732.846 205.493 740.467 209.271 740.94 213.588 737.835 217.221 737.891 220.755 738.902 224.412 737.944 227.992 737.938 231.818 743.016 235.207 738.356 239.058 740.062 242.786 741.31 246.068 739.03 248.805 732.366 253.1 738.175 255.805 731.251 259.623 733.235 263.918 739.002 266.628 732.128 269.966 730.254 273.62 730.891 276.88 728.383 281.555 737.211 284.639 733.294 288.499 735.577 291.887 734.079 294.559 726.818 300.573 727.984 298.049 733.765 297.601 737.298 296.054 740.819 299.703 744.415 294.891 747.885 295.466 751.437 299.164 755.04 298.329 758.57 299.123 762.128 298.973 765.673 300.888 769.249 301.086 772.795 296.302 776.268 298.876 779.855 301.916 783.45 293.933 786.881 294.253 790.439 295.748 794.132 294.753 797.871 299.63 801.116 302.137 804.331 302.623 807.748 297.951 812.348 304.611 814.347 297.988 820.053 303.432 822.067 304.623 825.441 305.616 828.926 302.872 834.42 313.183 832.855 313.705 836.541 313.695 840.763 317.6 842.247 319.749 844.956 317.263 851.902 324.788 849.692 325.109 854.402 328.147 856.341 330.328 859.309 331.827 863.362 336.604 862.804 336.542 869.783 342.712 866.423 346.439 866.902 348.232 871.446 352.864 869.654 356.366 870.231 359.939 870.406 361.555 877.621 366.707 871.502 369.273 876.36 372.373 879.943 375.972 881.064 379.637 882.154 383.405 881.361 387.063 879.028 390.347 873.965 393.937 875.371 398.354 881.138 401.743 878.926 405.693 879.563 409.378 878.801 410.511 870.408 414.905 872.261 417.07 868.308 422.795 872.158 427.11 872.343 428.335 867.021 433.831 868.776 433.915 862.391 435.852 859.052 441.759 860.538 442.653 856.02 442.918 851.172 450.32 853.283 447.495 845.835 455.068 848.033 453.706 841.934 453.879 837.265 460.412 838.493 461.832 834.977 467.328 835.241 464.914 828.166 470.275 828.304 470.593 823.76 476.14 824.08 474.66 817.871 481.986 819.829 482.721 815.67 480.142 808.434 485.132 808.215 488.543 804.614 492.844 807.496 495.978 809.51 498.989 811.63 495.604 818.945 496.012 823.182 503.115 821.972 503.763 826.016 509.141 826.21 507.13 832.414 509.821 834.798 515.866 834.454 519.091 836.398 516.534 843.048 521.034 843.961 525.095 845.232 523.798 850.867 523.62 855.592 525.788 858.664 529.208 860.594 535.628 859.318 533.297 867.139 538.426 866.883 542.657 867.335 544.268 871.24 550.055 868.906 551.694 872.926 552.911 878.259 558.568 874.886 560.87 878.409 563.259 882.296 567.165 882.178 570.925 882.176 575.33 878.882 578.28 881.745 580.939 888.251 585.188 883.029 588.445 888.362 592.21 883.883 595.777 884.683 599.34 884.395 603.417 888.581 606.132 881.653 609.192 879.136 612.612 878.758 616.159 878.698 621.997 885.397 625.254 883.288 625.79 874.858 628.976 873.54 635.392 878.442 636.174 872.258 638.606 869.482 644.282 871.606 647.059 869.162 648.381 864.964 649.611 860.967 654.012 860.531 659.487 860.8 662.227 858.202 665.178 855.734 664.774 850.72 666.504 847.479 668.305 844.317 668.991 840.552 671.098 837.609 675.163 835.478 675.832 831.751 677.798 828.537 677.43 824.558 677.558 820.833 682.76 818.239 674.689 813.045 676.295 809.79 680.16 806.636 676.405 802.828 679.174 799.418 678.92 795.861 676.112 792.172 681.138 788.88 682.376 785.393 680.278 781.742 676.54 778.005 683.565 774.809 681.702 771.166 676.952 767.377 677.138 763.836 681.618 760.513 678.791 756.821 679.624 753.311 683.08 749.932 680.691 746.255 682.418 742.088 686.706 742.246 690.385 741.861 692.65 748.846 696.763 746.202 699.53 750.583 703.174 750.391 707.501 746.663 711.184 746.272 713.402 753.511 717.013 753.511 720.464 754.345 724.121 754.086 728.383 750.702 731.463 753.468 735.183 752.911 737.832 757.954 742.836 750.751 745.15 758.521 748.864 758.991 753.203 751.107 756.377 758.338 760.032 752.033 763.823 759.122 767.319 756.281 771.3 758.634 775.034 758.208 778.932 758.417 780.691 750.344 784.082 749.528 787.749 749.403 791.449 749.101 793.968 746.036 797.879 745.966 802.259 746.409 804.937 743.76 806.204 739.198 807.375 734.93 813.963 737.571 818.962 737.672 820.059 733.368 819.32 727.588 826.677 729.353 826.243 724.165 828.057 720.999 830.795 718.5 831.369 714.575 830.965 710.241 833.699 707.75 834.294 704.149 834.411 700.434 836.319 697.498 839.082 694.774 840.437 691.505 844.182 688.766 844.821 685.173 844.518 681.444 849.173 678.316 848.369 674.473 850.098 670.772 843.491 667.109 847.124 663.345 841.337 660.266 848.697 655.657 848.157 651.902 841.637 649.58 838.913 646.684 837.654 643.458 836.449 640.225 838.595 635.536 832.62 634.419 832.985 630.362 832.794 626.419 832.116 622.613 828.463 620.745 828.52 616.252 821.964 616.778 827.063 608.476 822.799 607.26 816.203 607.814 817.593 602.315 817.519 597.928 813.009 596.896 806.519 597.365 807.999 591.797 806.771 588.277 807.213 583.494 805.115 580.639 795.825 583.224 799.109 576.288 797.922 572.736 796.907 569.047 790.269 568.854 796.366 571.276 797.957 566.857 799.061 561.554 802.919 561.205 805.914 559.299 808.957 557.482 812.781 557.062 817.096 557.525 818.984 553.63 823.607 554.641 823.203 546.626 827.572 547.189 832.011 547.869 833.462 543.184 836.647 541.612 840.804 541.772 841.573 535.848 844.833 534.606 849.548 535.479 853.577 534.957 854.198 529.83 859.995 531.241 862.937 528.98 865.629 526.429 863.905 519.841 866.222 517.265 871.681 517.079 871.898 512.789 873.202 509.423 873.662 505.642 881.607 505.894 880.931 501.448 882.364 498.108 881.7 493.998 886.962 491.954 881.734 486.67 885.157 483.909 884.107 480.093 883.385 476.466 891.229 473.801 885.437 469.708 889.675 466.294 886.952 462.692 884.443 459.29 882.898 455.975 884.337 452.33 884.752 448.716 881.241 445.901 885.128 441.334 880.059 439.146 887.313 432.915 883.696 430.293 877.343 429.12 876.114 425.859 881.363 418.959 874.552 418.669 877.252 412.559 871.158 412.322 868.836 409.574 866.151 407.156 864.751 403.56 860.897 402.338 855.915 402.633 859.38 392.924 852.771 395.477 851.684 390.736 845.251 394.191 843.766 389.825 839.713 390.006 836.441 388.846 835.879 380.98 830.393 385.28 826.944 384.599 825.631 376.066 821.986 375.046" style="fill: #fff;"/>
    <polygon points="821.986 375.046 818.072 376.264 814.666 375.278 811.317 374.025 807.89 373.134 804.195 373.394 799.19 379.4 797.048 372.859 792.2 378.171 789.369 374.644 786.897 369.538 783.479 368.58 778.678 373.689 774.895 374.326 772.622 368.348 770.069 363.594 766.332 363.997 764.734 365.018 767.713 364.759 768.63 361.32 768.389 357.434 768.608 353.728 768.483 349.887 770.737 346.956 767.02 341.742 767.607 338.174 776.246 337.675 770.769 331.789 774.573 329.444 774.296 325.546 777.241 322.874 779.54 319.954 776.696 315.072 779.171 312.212 781.832 309.424 788.32 307.9 783.253 302.498 783.767 299.031 788.831 296.555 786.019 292.384 785.303 288.768 786.884 285.442 786.794 281.94 791.151 278.447 788.476 274.899 787.207 271.444 791.123 267.382 788.768 264.045 787.584 260.601 789.148 256.457 788.073 252.911 785.684 249.838 783.01 246.993 782.696 243.188 783.443 238.716 774.655 239.391 774.215 235.644 775.222 230.751 770.234 229.944 768.553 226.835 767.329 223.255 764.157 221.366 763.002 217.516 759.563 215.977 758.153 212.129 755.08 210.193 752.847 207.1 748.021 207.865 744.176 207.475 744.439 199.637 741.276 197.603 738.212 195.239 731.741 201.57 728.547 200.272 725.512 198.362 723.867 190.384 718.68 197.033 715.597 194.271 712.168 192.863 708.738 190.161 705.04 189.757 701.312 189.215 697.695 191.266 694.118 192.21 691.293 197.813 686.44 190.724 683.988 196.553 679.174 192.483 676.799 197.219 673.682 199.101 671.356 202.733 666.15 199.736 663.922 203.37 659.375 202.255 655.943 203.321 653.003 205.354 648.88 205.072 645.779 206.793 643.773 210.645 643.376 217.646 639.392 217.64 632.747 212.449 630.415 215.676 627.187 217.153 626.29 223.171 623.987 226.453 617.803 222.165 617.64 229.627 614.912 232.095 608.6 232.686 612.811 225.002 608.565 222.726 608.604 218.962 601.655 217.623 605.156 212.659 603.885 209.35 602.895 205.941 600.11 203.155 601.625 198.878 600.278 195.591 595.987 193.324 593.114 190.571 592.214 187.129 589.159 184.433 595.124 178.611 591.108 176.241 590.935 172.54 591.114 168.569 591.497 164.374 585.758 162.953 584.014 159.812 585.592 154.726 577.438 155.526 579.098 150.145 573.902 149.579 572.892 145.908 572.469 141.509 569.946 138.891 565.032 138.881 564.489 134.096 560.931 132.775 555.542 134.237 556.963 125.705 552.53 125.921 551.297 120.47 547.426 119.779 544.211 117.753 538.909 121.177 535.207 121.053 531.452 121.431 529.42 115.06 526.06 113.051 521.237 119.828 518.765 111.175 514.668 115.621 511.059 116.771 507.558 118.829 503.977 115.778 500.647 118.523 497.309 119.664 492.469 111.636 489.677 116.666 486.414 118.418 483.241 120.217 479.689 120.714 474.085 116.156 473.045 123.202 470.516 126.093 467.755 128.3 461.237 124.212 462.582 132.977 457.739 132.105 452.217 130.88 448.822 132.669 448.226 137.502 447.618 141.954 443.893 143.353 442.952 147.21 435.766 146.257 437.609 152.075 438.701 156.96 436.284 159.537 431.492 160.967 428.899 163.736 432.752 169.321 428.03 171.169 423.081 172.924 420.102 175.514 421.427 179.915 419.787 183.07 422.568 188.087 418.183 190.086 416.166 193.082 418.234 197.801 410.442 198.365 410.292 202.151 411.796 206.63 411.866 210.509 408.375 212.886 406.351 215.884 403.588 218.575 405.478 223.95 404.13 218.011 399.647 218.61 396.366 217.191 392.636 216.53 389.898 214.203 389.331 208.249 385.353 207.993 382.697 205.529 376.929 208.266 372.738 208.363 369.434 206.977 368.111 202.286 364.025 202.208 364.696 194.176 358.432 197.737 357.834 191.814 354.39 190.647 350.425 190.256 349.284 184.471 343.139 188.9 340.593 185.793 337.423 183.974 333.324 184.972 329.782 184.571 327.84 177.06 323.726 178.575 319.267 184.214 316.078 181.308 312.694 177.633 309.014 183.316 305.283 176.76 301.5 176.25 297.945 178.017 295.394 184.883 292.122 185.95 286.956 179.721 284.391 183.998 279.263 180.227 276.222 182.81 272.138 182.823 268.865 184.758 267.406 189.931 266.303 195.093 262.853 196.155 258.98 196.771 253.812 195.968 254.705 202.752 253.205 206.265 246.912 204.813 247.376 210.187 244.102 211.963 239.034 212.477 241.172 218.529 235.588 218.992 232.97 221.657 228.269 223.275 232.661 229.662 233.257 233.762 227.416 235.161 229.621 239.74 227.858 242.839 225.67 245.906 221.462 248.692 219.541 252.148 220.62 256.057 222.039 259.858 220.972 263.453 219.958 267.131 226.573 270.441 227.144 273.83 227.749 277.196 226.217 280.954 220.824 285.766 221.997 289.332 227.401 291.574 224.159 296.276 226.428 299.281 226.51 302.964 227.597 306.334 231.176 308.939 234.316 311.678 237.169 314.509 239.031 317.643 231.973 323.529 239.523 324.913 236.764 329.476 235.881 333.455 244.208 334.599 243.702 338.468 238.623 343.746 244.393 345.686 241.986 348.087 240.483 348.631 236.923 348.788 233.092 347.282 230.624 354.245 227.111 354.721 223.155 352.42 219.473 351.853 215.904 351.974 212.198 351.254 209.347 355.873 205.933 356.976 202.439 357.565 198.809 357.324 194.603 353.501 191.418 356.042 187.734 355.515 185.134 361.737 180.595 356.844 177.748 360.867 174.038 360.901 169.624 359.03 167.921 365.181 164.064 365.106 160.059 365.024 157.702 368.411 151.977 365.672 151.508 371.986 150.002 376.063 147.706 378.762 140.075 375.018 136.952 377.183 137.436 383.014 132.393 383.256 132.792 388.472 127.638 389.012 125.616 392.15 122.758 394.732 124.604 400.174 123.535 403.653 119.726 405.748 117.187 408.617 118.071 412.909 120.015 417.358 119.91 420.928 118.106 423.993 115.025 426.872 108.919 429.438 114.102 433.897 108.893 436.993 108.196 440.695 116.852 444.495 112.424 448.045 113.505 451.549 111.838 455.309 109.511 459.35 116.787 461.69 116.637 465.291 117.719 468.619 114.979 473.237 120.421 475.051 118.025 479.89 117.93 483.997 121.088 486.512 125.006 488.41 125.327 492.454 127.525 495.339 129.13 498.69 132.532 500.572 135.344 502.855 137.48 505.78 143.221 504.75 145.737 507.05 145.142 513.47 151.085 511.309 152.982 514.689 156.284 516.097 156.307 522.586 158.314 526.011 160.753 528.759 167.264 525.213 171.215 525.625 171.692 531.42 173.701 534.842 176.807 536.567 182.459 534.355 184.186 538.218 187.681 539.337 191.011 540.719 191.27 546.855 196.353 545.526 201.821 543.611 197.352 550.428 199.389 552.077 200.69 557.886 192.763 555.711 195.759 562.988 191.602 564.077 190.483 567.793 182.795 565.827 184.397 571.902 177.958 571.017 176.92 574.809 173.956 576.925 177.11 584.343 168.859 581.893 171.249 588.655 164.168 587.22 163.76 591.569 165.648 597.906 157.728 595.975 156.57 599.755 158.724 605.666 154.012 606.816 149.164 608.207 149.445 612.563 152.666 618.069 150.041 620.692 144.789 622.497 146.406 626.843 143.038 629.607 147.503 634.322 138.472 636.2 141.565 640.413 141.367 644.025 146.251 647.851 145.581 651.239 138.18 654.962 137.661 658.75 143.315 661.83 138.46 666.237 141.401 669.465 142.722 672.917 143.757 676.416 148.989 678.478 151.602 681.186 147.39 686.739 145.889 691.522 150.111 693.558 149.218 698.341 154.688 699.34 157.342 701.914 159.64 704.689 158.892 709.975 161.066 713.063 163.321 716.125 166.979 717.762 170.026 719.938 176.957 717.19 179.918 718.963 181.201 723.205 181.459 729.6 188.895 723.868 189.642 730.005 193.874 729.348 195.257 735.439 198.333 737.957 203.774 732.846 205.493 740.467 209.271 740.94 213.588 737.835 217.221 737.891 220.755 738.902 224.412 737.944 227.992 737.938 231.818 743.016 235.207 738.356 239.058 740.062 242.786 741.31 246.068 739.03 248.805 732.366 253.1 738.175 255.805 731.251 259.623 733.235 263.918 739.002 266.628 732.128 269.966 730.254 273.62 730.891 276.88 728.383 281.555 737.211 284.639 733.294 288.499 735.577 291.887 734.079 294.559 726.818 300.573 727.984 298.049 733.765 297.601 737.298 296.054 740.819 299.703 744.415 294.891 747.885 295.466 751.437 299.164 755.04 298.329 758.57 299.123 762.128 298.973 765.673 300.888 769.249 301.086 772.795 296.302 776.268 298.876 779.855 301.916 783.45 293.933 786.881 294.253 790.439 295.748 794.132 294.753 797.871 299.63 801.116 302.137 804.331 302.623 807.748 297.951 812.348 304.611 814.347 297.988 820.053 303.432 822.067 304.623 825.441 305.616 828.926 302.872 834.42 313.183 832.855 313.705 836.541 313.695 840.763 317.6 842.247 319.749 844.956 317.263 851.902 324.788 849.692 325.109 854.402 328.147 856.341 330.328 859.309 331.827 863.362 336.604 862.804 336.542 869.783 342.712 866.423 346.439 866.902 348.232 871.446 352.864 869.654 356.366 870.231 359.939 870.406 361.555 877.621 366.707 871.502 369.273 876.36 372.373 879.943 375.972 881.064 379.637 882.154 383.405 881.361 387.063 879.028 390.347 873.965 393.937 875.371 398.354 881.138 401.743 878.926 405.693 879.563 409.378 878.801 410.511 870.408 414.905 872.261 417.07 868.308 422.795 872.158 427.11 872.343 428.335 867.021 433.831 868.776 433.915 862.391 435.852 859.052 441.759 860.538 442.653 856.02 442.918 851.172 450.32 853.283 447.495 845.835 455.068 848.033 453.706 841.934 453.879 837.265 460.412 838.493 461.832 834.977 467.328 835.241 464.914 828.166 470.275 828.304 470.593 823.76 476.14 824.08 474.66 817.871 481.986 819.829 482.721 815.67 480.142 808.434 485.132 808.215 488.543 804.614 492.844 807.496 495.978 809.51 498.989 811.63 495.604 818.945 496.012 823.182 503.115 821.972 503.763 826.016 509.141 826.21 507.13 832.414 509.821 834.798 515.866 834.454 519.091 836.398 516.534 843.048 521.034 843.961 525.095 845.232 523.798 850.867 523.62 855.592 525.788 858.664 529.208 860.594 535.628 859.318 533.297 867.139 538.426 866.883 542.657 867.335 544.268 871.24 550.055 868.906 551.694 872.926 552.911 878.259 558.568 874.886 560.87 878.409 563.259 882.296 567.165 882.178 570.925 882.176 575.33 878.882 578.28 881.745 580.939 888.251 585.188 883.029 588.445 888.362 592.21 883.883 595.777 884.683 599.34 884.395 603.417 888.581 606.132 881.653 609.192 879.136 612.612 878.758 616.159 878.698 621.997 885.397 625.254 883.288 625.79 874.858 628.976 873.54 635.392 878.442 636.174 872.258 638.606 869.482 644.282 871.606 647.059 869.162 648.381 864.964 649.611 860.967 654.012 860.531 659.487 860.8 662.227 858.202 665.178 855.734 664.774 850.72 666.504 847.479 668.305 844.317 668.991 840.552 671.098 837.609 675.163 835.478 675.832 831.751 677.798 828.537 677.43 824.558 677.558 820.833 682.76 818.239 674.689 813.045 676.295 809.79 680.16 806.636 676.405 802.828 679.174 799.418 678.92 795.861 676.112 792.172 681.138 788.88 682.376 785.393 680.278 781.742 676.54 778.005 683.565 774.809 681.702 771.166 676.952 767.377 677.138 763.836 681.618 760.513 678.791 756.821 679.624 753.311 683.08 749.932 680.691 746.255 682.418 742.088 686.706 742.246 690.385 741.861 692.65 748.846 696.763 746.202 699.53 750.583 703.174 750.391 707.501 746.663 711.184 746.272 713.402 753.511 717.013 753.511 720.464 754.345 724.121 754.086 728.383 750.702 731.463 753.468 735.183 752.911 737.832 757.954 742.836 750.751 745.15 758.521 748.864 758.991 753.203 751.107 756.377 758.338 760.032 752.033 763.823 759.122 767.319 756.281 771.3 758.634 775.034 758.208 778.932 758.417 780.691 750.344 784.082 749.528 787.749 749.403 791.449 749.101 793.968 746.036 797.879 745.966 802.259 746.409 804.937 743.76 806.204 739.198 807.375 734.93 813.963 737.571 818.962 737.672 820.059 733.368 819.32 727.588 826.677 729.353 826.243 724.165 828.057 720.999 830.795 718.5 831.369 714.575 830.965 710.241 833.699 707.75 834.294 704.149 834.411 700.434 836.319 697.498 839.082 694.774 840.437 691.505 844.182 688.766 844.821 685.173 844.518 681.444 849.173 678.316 848.369 674.473 850.098 670.772 843.491 667.109 847.124 663.345 841.337 660.266 848.697 655.657 848.157 651.902 841.637 649.58 838.913 646.684 837.654 643.458 836.449 640.225 838.595 635.536 832.62 634.419 832.985 630.362 832.794 626.419 832.116 622.613 828.463 620.745 828.52 616.252 821.964 616.778 827.063 608.476 822.799 607.26 816.203 607.814 817.593 602.315 817.519 597.928 813.009 596.896 806.519 597.365 807.999 591.797 806.771 588.277 807.213 583.494 805.115 580.639 795.825 583.224 799.109 576.288 797.922 572.736 796.907 569.047 790.269 568.854 796.366 571.276 797.957 566.857 799.061 561.554 802.919 561.205 805.914 559.299 808.957 557.482 812.781 557.062 817.096 557.525 818.984 553.63 823.607 554.641 823.203 546.626 827.572 547.189 832.011 547.869 833.462 543.184 836.647 541.612 840.804 541.772 841.573 535.848 844.833 534.606 849.548 535.479 853.577 534.957 854.198 529.83 859.995 531.241 862.937 528.98 865.629 526.429 863.905 519.841 866.222 517.265 871.681 517.079 871.898 512.789 873.202 509.423 873.662 505.642 881.607 505.894 880.931 501.448 882.364 498.108 881.7 493.998 886.962 491.954 881.734 486.67 885.157 483.909 884.107 480.093 883.385 476.466 891.229 473.801 885.437 469.708 889.675 466.294 886.952 462.692 884.443 459.29 882.898 455.975 884.337 452.33 884.752 448.716 881.241 445.901 885.128 441.334 880.059 439.146 887.313 432.915 883.696 430.293 877.343 429.12 876.114 425.859 881.363 418.959 874.552 418.669 877.252 412.559 871.158 412.322 868.836 409.574 866.151 407.156 864.751 403.56 860.897 402.338 855.915 402.633 859.38 392.924 852.771 395.477 851.684 390.736 845.251 394.191 843.766 389.825 839.713 390.006 836.441 388.846 835.879 380.98 830.393 385.28 826.944 384.599 825.631 376.066 821.986 375.046" style="fill: none; stroke: #000; stroke-linecap: round; stroke-linejoin: round; stroke-width: 35px;"/>
  </g>
  <g>
    <polygon points="500 729.889 496.409 728.513 492.636 734.33 489.289 726.995 485.354 732.772 481.992 728.732 478.516 727.183 475.016 726.207 470.881 730.455 468.261 722.903 463.609 729.722 459.636 731.251 456.092 730.145 452.332 730.152 449.046 727.92 447.248 719.67 441.765 726.78 440.116 718.853 435.784 720.995 432.9 718.075 427.771 722.267 424.399 720.784 423.041 713.735 417.164 719.193 414.953 714.781 413.371 709.125 409.811 708.399 407.081 705.782 402.393 707.41 397.21 709.799 393.831 708.347 392.896 702.274 388.607 702.609 387.746 696.798 384.579 695.162 381.762 692.944 377.022 693.773 371.962 694.905 372.495 687.614 367.631 688.333 366.333 683.971 364.571 680.371 356.618 684.833 357.069 678.4 352.577 678.193 353.64 671.36 350.05 670.077 344.249 671.157 342.956 667.224 341.887 663.149 334.286 665.702 336.264 658.659 333.911 655.956 327.521 656.933 326.408 653.03 323.237 650.959 324.086 645.515 321.884 642.683 322.017 638.041 317.24 637.206 314.915 634.458 311.995 632.119 311.976 627.766 307.342 626.541 304.298 624.186 302.559 620.982 304.34 615.699 298.807 614.75 297.646 611.236 292.59 609.812 293.216 605.354 296.334 599.764 291.209 598.242 294.1 592.958 290.869 590.492 286.65 588.368 285.613 584.878 288.048 580.087 285.303 577.293 282.777 574.371 283.933 570.205 278.668 568.091 283.656 562.857 274.734 561.626 280.08 556.471 274.163 554.22 277.337 549.776 271.308 547.36 270.88 543.708 270.959 539.976 268.231 536.709 274.921 532.043 274.447 528.503 269.576 525.442 270.249 521.722 275.631 517.669 268.796 514.549 265.561 511.056 265.402 507.373 265.352 503.686 267.841 500 269.857 496.383 271.458 492.815 266.034 488.966 273.155 485.721 269.976 481.892 274.991 478.719 269.218 474.517 268.728 470.779 267.724 466.939 275.811 464.479 270.815 459.994 274.113 456.899 274.287 453.247 275.306 449.764 279.389 447.023 276.155 442.516 279.33 439.62 275.761 434.844 282.33 433.025 282.673 429.376 283.996 426.035 282.722 421.765 286.162 419.188 289.709 416.732 284.844 410.87 288.99 408.68 287.386 403.991 295.268 403.656 296.789 400.444 299.134 397.651 297.935 393.007 299.812 389.941 300.038 385.937 298.254 380.677 307.122 381.802 307.83 378.042 304.512 371.578 311.369 371.803 308 365.049 313.623 364.582 316.277 362.05 321.942 361.881 320.831 356.452 326.029 356.074 322.232 348.161 324.097 344.91 328.519 343.954 332.189 342.405 338.293 343.285 339.841 339.83 338.679 333.518 341.129 330.807 342.634 327.045 349.592 329.381 350.548 325 355.516 325.331 356.176 320.463 357.109 315.773 360.567 314.279 367.114 317.076 370.382 315.548 368.754 306.864 374.851 309.458 374.08 301.572 380.29 304.632 383.111 302.333 384.68 297.81 390.495 300.789 393.261 298.384 394.954 293.821 397.871 291.515 400.327 288.175 406.904 293.795 409.352 290.511 413.526 291.219 416.042 287.937 418.58 284.522 421.643 282.35 424.206 278.62 427.363 276.442 432.915 281.94 436.051 279.893 439.473 278.761 443.404 279.59 447.104 279.695 450.759 279.742 453.019 273.149 456.729 273.183 459.645 268.772 463.714 270.919 468.168 276.41 471.511 274.558 474.691 270.792 478.255 270.008 482.036 271.824 485.703 272.871 489.371 274.765 492.844 272.423 496.378 269.501 500 272.551 503.54 274.822 507.261 269.016 510.829 270.458 514.209 274.281 518.226 268.458 521.958 267.737 525.652 267.673 528.247 276.517 532.117 274.418 536.206 271.455 539.563 273.371 542.42 277.704 546.253 276.713 549.34 279.33 553.74 276.203 558.063 273.892 561.422 275.513 565.468 274.689 568.86 276.197 571.366 280.39 575.213 280.35 578.045 283.249 582.868 280.723 585.022 285.282 587.707 288.275 590.475 290.941 594.314 291.135 598.886 289.876 602.059 291.689 606.581 290.845 608.972 294.206 612.965 294.538 612.07 303.524 617.256 301.742 622.602 299.951 622.733 306.612 626.436 307.529 629.932 308.821 633.183 310.51 636.011 312.808 640.115 313.398 643.137 315.482 642.952 321.575 643.53 326.507 649.053 325.491 655.264 323.9 655.285 329.355 660.019 329.609 658.517 336.434 663.444 336.568 665.325 339.801 667.027 343.163 671.372 344.075 669.019 351.004 678.503 347.554 680.051 351.059 677.539 357.779 682.791 358.224 682.317 363.127 682.135 367.689 684.153 370.593 689.874 370.975 691.763 374.048 694.12 376.82 696.903 379.348 697.823 383.019 704.118 383.578 697.446 391.468 700.349 393.934 700.619 397.793 710.843 396.714 704.236 403.905 712.229 404.18 715.042 406.947 712.37 412.039 716.841 414.15 716.438 418.217 712.29 423.573 721.666 424.108 716.809 429.554 716.354 433.439 720.996 435.793 725.925 438.195 721.337 443.167 720.661 447.019 721.267 450.535 725.695 453.257 723.478 457.362 727.773 460.244 724.406 464.449 724.039 468.104 731.17 470.795 724.267 475.23 732.922 477.982 725.944 482.209 730.323 485.505 728.22 489.233 728.077 492.828 730.806 496.373 727.855 500 731.863 503.643 731.271 507.27 734.626 511.065 732.205 514.611 730.57 518.151 726.913 521.459 723.866 524.728 730.22 529.089 723.947 531.886 728.764 536.24 726.895 539.609 726.444 543.206 727.05 547.028 728.339 551.047 725.393 554.122 724.751 557.716 717.26 559.449 718.03 563.356 721.314 568.095 718.322 570.948 722.213 576.09 715.088 577.446 711.882 580.072 716.455 585.71 711.032 587.42 713.371 592.344 707.333 593.621 707.614 597.703 703.873 599.881 706.711 605.333 706.673 609.438 701.628 610.852 700.281 614.245 697.095 616.566 696.44 620.385 696.097 624.455 694.646 627.868 687.465 627.403 686.572 631.129 689.211 637.48 684.654 638.649 680.764 640.221 675.668 640.74 678.328 647.534 672.592 647.414 674.805 654.122 670.321 654.99 669.931 659.587 663.867 658.808 663.786 663.797 663.179 668.4 659 669.33 656.154 671.623 649.776 669.903 650.972 676.778 647.65 678.492 645.148 681.188 642.42 683.621 638.873 684.977 637.172 688.813 634.308 691.113 626.661 686.401 624.635 689.761 620.792 690.363 620.803 697.149 616.887 697.665 612.003 696.388 610.599 701.198 607.99 703.974 604.614 705.334 602.53 709.301 598.408 709.141 593.163 706.352 589.716 707.34 588.569 713.835 583.221 710.205 582.536 718.431 576.437 712.317 574.092 716.406 569.73 714.603 568.097 721.353 563.859 719.796 561.39 724.402 558.118 726.355 552.667 719.344 550.162 724.397 546.629 725.145 542.594 723.244 539.534 726.487 536.595 731.048 533.011 731.945 528.286 723.82 525.732 733.079 521.691 729.416 517.671 724.405 514.315 727.427 510.676 726.26 507.165 727.846 503.666 733.337 500 729.889" style="fill: #fff;"/>
    <polygon points="500 729.889 496.409 728.513 492.636 734.33 489.289 726.995 485.354 732.772 481.992 728.732 478.516 727.183 475.016 726.207 470.881 730.455 468.261 722.903 463.609 729.722 459.636 731.251 456.092 730.145 452.332 730.152 449.046 727.92 447.248 719.67 441.765 726.78 440.116 718.853 435.784 720.995 432.9 718.075 427.771 722.267 424.399 720.784 423.041 713.735 417.164 719.193 414.953 714.781 413.371 709.125 409.811 708.399 407.081 705.782 402.393 707.41 397.21 709.799 393.831 708.347 392.896 702.274 388.607 702.609 387.746 696.798 384.579 695.162 381.762 692.944 377.022 693.773 371.962 694.905 372.495 687.614 367.631 688.333 366.333 683.971 364.571 680.371 356.618 684.833 357.069 678.4 352.577 678.193 353.64 671.36 350.05 670.077 344.249 671.157 342.956 667.224 341.887 663.149 334.286 665.702 336.264 658.659 333.911 655.956 327.521 656.933 326.408 653.03 323.237 650.959 324.086 645.515 321.884 642.683 322.017 638.041 317.24 637.206 314.915 634.458 311.995 632.119 311.976 627.766 307.342 626.541 304.298 624.186 302.559 620.982 304.34 615.699 298.807 614.75 297.646 611.236 292.59 609.812 293.216 605.354 296.334 599.764 291.209 598.242 294.1 592.958 290.869 590.492 286.65 588.368 285.613 584.878 288.048 580.087 285.303 577.293 282.777 574.371 283.933 570.205 278.668 568.091 283.656 562.857 274.734 561.626 280.08 556.471 274.163 554.22 277.337 549.776 271.308 547.36 270.88 543.708 270.959 539.976 268.231 536.709 274.921 532.043 274.447 528.503 269.576 525.442 270.249 521.722 275.631 517.669 268.796 514.549 265.561 511.056 265.402 507.373 265.352 503.686 267.841 500 269.857 496.383 271.458 492.815 266.034 488.966 273.155 485.721 269.976 481.892 274.991 478.719 269.218 474.517 268.728 470.779 267.724 466.939 275.811 464.479 270.815 459.994 274.113 456.899 274.287 453.247 275.306 449.764 279.389 447.023 276.155 442.516 279.33 439.62 275.761 434.844 282.33 433.025 282.673 429.376 283.996 426.035 282.722 421.765 286.162 419.188 289.709 416.732 284.844 410.87 288.99 408.68 287.386 403.991 295.268 403.656 296.789 400.444 299.134 397.651 297.935 393.007 299.812 389.941 300.038 385.937 298.254 380.677 307.122 381.802 307.83 378.042 304.512 371.578 311.369 371.803 308 365.049 313.623 364.582 316.277 362.05 321.942 361.881 320.831 356.452 326.029 356.074 322.232 348.161 324.097 344.91 328.519 343.954 332.189 342.405 338.293 343.285 339.841 339.83 338.679 333.518 341.129 330.807 342.634 327.045 349.592 329.381 350.548 325 355.516 325.331 356.176 320.463 357.109 315.773 360.567 314.279 367.114 317.076 370.382 315.548 368.754 306.864 374.851 309.458 374.08 301.572 380.29 304.632 383.111 302.333 384.68 297.81 390.495 300.789 393.261 298.384 394.954 293.821 397.871 291.515 400.327 288.175 406.904 293.795 409.352 290.511 413.526 291.219 416.042 287.937 418.58 284.522 421.643 282.35 424.206 278.62 427.363 276.442 432.915 281.94 436.051 279.893 439.473 278.761 443.404 279.59 447.104 279.695 450.759 279.742 453.019 273.149 456.729 273.183 459.645 268.772 463.714 270.919 468.168 276.41 471.511 274.558 474.691 270.792 478.255 270.008 482.036 271.824 485.703 272.871 489.371 274.765 492.844 272.423 496.378 269.501 500 272.551 503.54 274.822 507.261 269.016 510.829 270.458 514.209 274.281 518.226 268.458 521.958 267.737 525.652 267.673 528.247 276.517 532.117 274.418 536.206 271.455 539.563 273.371 542.42 277.704 546.253 276.713 549.34 279.33 553.74 276.203 558.063 273.892 561.422 275.513 565.468 274.689 568.86 276.197 571.366 280.39 575.213 280.35 578.045 283.249 582.868 280.723 585.022 285.282 587.707 288.275 590.475 290.941 594.314 291.135 598.886 289.876 602.059 291.689 606.581 290.845 608.972 294.206 612.965 294.538 612.07 303.524 617.256 301.742 622.602 299.951 622.733 306.612 626.436 307.529 629.932 308.821 633.183 310.51 636.011 312.808 640.115 313.398 643.137 315.482 642.952 321.575 643.53 326.507 649.053 325.491 655.264 323.9 655.285 329.355 660.019 329.609 658.517 336.434 663.444 336.568 665.325 339.801 667.027 343.163 671.372 344.075 669.019 351.004 678.503 347.554 680.051 351.059 677.539 357.779 682.791 358.224 682.317 363.127 682.135 367.689 684.153 370.593 689.874 370.975 691.763 374.048 694.12 376.82 696.903 379.348 697.823 383.019 704.118 383.578 697.446 391.468 700.349 393.934 700.619 397.793 710.843 396.714 704.236 403.905 712.229 404.18 715.042 406.947 712.37 412.039 716.841 414.15 716.438 418.217 712.29 423.573 721.666 424.108 716.809 429.554 716.354 433.439 720.996 435.793 725.925 438.195 721.337 443.167 720.661 447.019 721.267 450.535 725.695 453.257 723.478 457.362 727.773 460.244 724.406 464.449 724.039 468.104 731.17 470.795 724.267 475.23 732.922 477.982 725.944 482.209 730.323 485.505 728.22 489.233 728.077 492.828 730.806 496.373 727.855 500 731.863 503.643 731.271 507.27 734.626 511.065 732.205 514.611 730.57 518.151 726.913 521.459 723.866 524.728 730.22 529.089 723.947 531.886 728.764 536.24 726.895 539.609 726.444 543.206 727.05 547.028 728.339 551.047 725.393 554.122 724.751 557.716 717.26 559.449 718.03 563.356 721.314 568.095 718.322 570.948 722.213 576.09 715.088 577.446 711.882 580.072 716.455 585.71 711.032 587.42 713.371 592.344 707.333 593.621 707.614 597.703 703.873 599.881 706.711 605.333 706.673 609.438 701.628 610.852 700.281 614.245 697.095 616.566 696.44 620.385 696.097 624.455 694.646 627.868 687.465 627.403 686.572 631.129 689.211 637.48 684.654 638.649 680.764 640.221 675.668 640.74 678.328 647.534 672.592 647.414 674.805 654.122 670.321 654.99 669.931 659.587 663.867 658.808 663.786 663.797 663.179 668.4 659 669.33 656.154 671.623 649.776 669.903 650.972 676.778 647.65 678.492 645.148 681.188 642.42 683.621 638.873 684.977 637.172 688.813 634.308 691.113 626.661 686.401 624.635 689.761 620.792 690.363 620.803 697.149 616.887 697.665 612.003 696.388 610.599 701.198 607.99 703.974 604.614 705.334 602.53 709.301 598.408 709.141 593.163 706.352 589.716 707.34 588.569 713.835 583.221 710.205 582.536 718.431 576.437 712.317 574.092 716.406 569.73 714.603 568.097 721.353 563.859 719.796 561.39 724.402 558.118 726.355 552.667 719.344 550.162 724.397 546.629 725.145 542.594 723.244 539.534 726.487 536.595 731.048 533.011 731.945 528.286 723.82 525.732 733.079 521.691 729.416 517.671 724.405 514.315 727.427 510.676 726.26 507.165 727.846 503.666 733.337 500 729.889" style="fill: none; stroke: #000; stroke-linecap: round; stroke-linejoin: round; stroke-width: 35px;"/>
  </g>
</svg>