<?xml version="1.0" encoding="UTF-8"?>
<svg id="Sticker" xmlns="http://www.w3.org/2000/svg" width="1000" height="1000" viewBox="0 0 1000 1000">
  <g>
    <polyline points="854.557 556.702 850.495 556.154 848.184 553.121 844.625 551.852 838.403 554.36 836.884 550.206 834.775 546.887 830.617 546.471 830.783 539.921 823.721 543.62 822.129 539.567 818.504 538.393 819.528 530.628 811.598 535.556 811.014 530.073 806.016 530.842 805.225 525.652 804.407 520.496 799.391 521.293 797.976 516.984 794.406 515.734 788.346 518.021 786.485 514.35 785.57 509.331 783.462 506.01 776.41 509.689 775.722 504.353 773.713 500.881 771.953 497.062 764.783 500.908 762.055 498.453 759.158 496.239 754.829 496.061 755.794 488.373 749.503 490.97 749.122 485.188 743.647 486.614 739.927 485.555" style="fill: none; stroke: #000; stroke-linecap: round; stroke-linejoin: round; stroke-width: 35px;"/>
    <polyline points="705.109 690.459 697.211 690.514 695.042 687.546 699.578 681.041 692.865 680.467 691.802 676.917 689.5 674.02 688.48 670.445 685.121 668.1 687.655 662.652 681.448 661.813 685.564 655.53 678.473 655.153 680.932 649.744 679.683 646.289 676.674 643.76 673.215 641.471 670.506 638.783 668.55 635.7 670.459 630.579 667.862 627.833 667.374 623.982 662.482 622.45 663.33 617.888 659.194 615.957 659.041 611.922 658.08 608.315 655.461 605.578 651.916 603.333 653.583 598.337 653.799 594.104 645.718 594.246 651.231 587.225 649.403 584.07 646.241 581.618 643.901 578.731 642.34 575.428 637.644 573.776" style="fill: none; stroke: #000; stroke-linecap: round; stroke-linejoin: round; stroke-width: 35px;"/>
    <polyline points="511.641 741.902 509.364 738.298 506.535 734.7 509.051 731.026 510.26 727.37 509.529 723.744 508.729 720.118 508.224 716.487 511.514 712.801 511.511 709.162 506.897 705.589 505.714 701.967 502.709 698.368 508.203 694.653 508.166 691.015 501.917 687.461 511.724 683.686 507.501 680.104 511.517 676.408 505.406 672.852 506.982 669.19 509.601 665.513 501.45 661.986 508.652 658.245 504.743 654.663 502.637 651.052 510.694 647.301 509.438 643.677 505.906 640.086 505.095 636.456 501.663 632.861 503.888 629.187 509.517 625.465 508.446 621.838 501.304 618.295 502.056 614.641 505.161 610.948 508.428 607.253" style="fill: none; stroke: #000; stroke-linecap: round; stroke-linejoin: round; stroke-width: 35px;"/>
    <polyline points="314.965 699.768 312.816 694.659 313.539 690.962 319.919 690.046 316.352 684.235 321.697 682.812 321.811 678.816 318.633 673.198 322.398 670.993 327.006 669.206 323.687 663.519 326.942 661.065 330.978 658.995 336.393 657.605 337.195 653.944 337.497 650.035 336.608 645.542 341.591 643.937 339.54 638.872 340.636 635.354 344.85 633.371 341.247 627.548 345.592 625.633 348.537 623.025 348.275 618.842 355.973 618.573 354.19 613.64 354.258 609.614 353.477 605.173 360.156 604.401 357.046 598.81 363.272 597.813 364.549 594.385 364.67 590.384 367.425 587.679 370.546 585.152 367.713 579.689 368.718 576.115" style="fill: none; stroke: #000; stroke-linecap: round; stroke-linejoin: round; stroke-width: 35px;"/>
    <polyline points="157.991 571.531 158.998 566.809 163.227 566.392 166.183 564.268 168.327 561.061 170.849 558.361 172.915 555.052 177.793 555.5 180.308 552.785 184.121 551.808 185.32 547.34 190.833 548.634 191.522 543.479 197.573 545.495 195.25 536.314 200.343 537.046 204.575 536.628 206.389 532.976 210.03 531.767 211.778 528.027 212.976 523.556 215.317 520.619 221.025 522.177 226.536 523.466 226.406 517.222 232.708 519.569 232.105 512.687 235.245 510.804 237.894 508.267 241.416 506.895 245.91 506.82 249.199 505.135 247.892 497.312 253.521 498.754 255.75 495.65 259.802 494.982 259.889 489.003 265.249 490.073" style="fill: none; stroke: #000; stroke-linecap: round; stroke-linejoin: round; stroke-width: 35px;"/>
  </g>
  <polyline points="815.284 342.271 815.877 346.322 813.838 349.393 812.496 352.728 814.316 357.426 813.885 361.202 811.191 363.977 807.259 366.153 800.972 367.165 804.943 373.036 798.28 373.777 796.618 376.933 799.873 382.612 800.248 386.882 796.906 389.212 789.451 389.275 788.545 392.845 786.128 395.581 790.783 402.355 786.702 404.166 782.58 405.905 781.057 409.167 779.76 412.575 775.261 413.992 778.458 420.25 771.182 419.84 775.212 426.755 769.565 427.326 770.085 432.014 765.217 433.028 762.019 435.151 761.175 438.936 761.395 443.528 758.968 446.214 758.64 450.478 757.488 454.158 751.654 454.205 751.06 458.324 744.207 457.417 746.543 463.958 740.216 463.361 740.367 468.181 738.016 470.898 736.638 474.478 732.985 476.037 733.209 481.121 727.276 480.525 723.476 481.843 724.926 488.224 721.895 490.306 719.022 492.529 719.505 498.205 712.825 496.463 712.694 501.587 708.139 501.969 708.376 507.631 701.746 505.579 698.699 507.521 696.572 510.546 692.459 511.18 693.454 518.109 688.267 517.368 684.327 518.116 683.56 523.035 683.445 528.976 677.66 527.163 673.825 527.956 670.541 529.496 670.519 535.928 665.872 535.438 663.186 537.929 658.084 536.511 655.801 539.637 655.419 546.106 651.871 547.238 645.686 543.523 644.397 548.675 640.883 549.735 636.507 549.038 632.869 549.714 633.21 558.795 629.872 560.296 625.293 558.974 619.769 555.224 617.053 557.958 615.17 562.906 612.706 566.608 607.26 562.331 605.155 567.131 600.867 565.746 597.541 567.122 594.185 568.429 590.148 567.436 588.051 573.19 583.989 572.043 581.184 575.665 577.868 577.45 573.745 575.754 569.514 573.232 565.531 571.53 562.151 572.75 558.721 573.759 555.749 577.73 551.503 573.561 548.275 576.152 544.728 576.538 541.256 577.61 538.3 584.286 534.395 581.422 530.599 578.992 527.278 583.542 523.388 578.146 519.783 577.179 516.392 584.305 512.729 582.243 509.115 584.662 505.462 585.756 501.985 578.075 498.38 579.18 494.551 584.468 491.099 581.094 487.405 582.228 483.533 585.136 480.471 578.629 477.159 575.873 472.735 582.976 469.548 579.221 466.002 578.544 463.157 573.393 458.135 581.853 455.489 575.925 451.448 577.895 448.455 574.454 444.88 573.984 442.221 569.536 437.681 573.144 433.541 574.752 430.543 571.913 426.578 572.644 422.506 573.583 418.936 572.739 415.718 570.793 413.999 564.481 411.768 560.023 406.64 563.737 403.245 562.521 400.063 560.759 397.721 556.962 393.072 558.812 388.099 561.199 386.255 556.373 382.345 556.214 381.908 548.693 378.844 546.865 372.734 551.08 372.596 543.482 368.155 544.26 363.821 544.712 359.396 545.213 356.991 542.103 353.691 540.568 352.249 535.958 349.798 533.102 343.773 535.901 340.655 534.023 338.381 530.877 334.441 530.223 332.002 527.357 330.475 523.242 324.894 524.785 322.751 521.551 321.349 517.382 320.786 512.21 317.874 510.129 311.739 512.044 308.16 510.687 309.065 503.936 304.811 503.401 303.619 499.275 299.723 498.268 298.508 494.238 297.227 490.335 294.701 487.815 285.882 491.919 288.424 484.051 283.054 484.406 283.52 478.834 275.777 481.429 273.389 478.678 276.75 470.468 272.685 469.384 265.385 471.227 264.986 466.68 262.195 464.323 263.884 458.027 261 455.791 256.507 454.908 253.364 452.837 250.288 450.69 250.075 446.2 247.513 443.638 246.823 439.594 239.652 440.611 242.868 433.58 236.238 434.079 234.488 430.861 238.28 423.608 229.591 425.458 234.421 417.591 231.584 415.22 223.844 416.202 228.293 408.814 224.618 406.977 217.304 407.495 221.611 400.392 212.354 402.053 217.051 394.82 215.319 391.683 209.057 391.299 208.772 387.255 203.628 386.1 208.88 378.863 206.294 376.224 199.587 375.876 201.357 370.776 195.917 369.639 197.984 364.451 190.725 364.178 191.089 359.918 192.136 355.358 186.671 354.019 192.425 347.297 187.878 345.481 185.571 342.595" style="fill: none; stroke: #000; stroke-linecap: round; stroke-linejoin: round; stroke-width: 35px;"/>
</svg>