<?xml version="1.0" encoding="UTF-8"?>
<svg id="Sticker" xmlns="http://www.w3.org/2000/svg" width="1000" height="1000" viewBox="0 0 1000 1000">
  <polygon points="497.885 868.903 505.879 872.441 505.664 866.678 506.969 862.674 509.939 860.626 516.89 863.235 518.33 859.386 519.876 855.66 524.542 855.576 527.309 853.278 525.137 845.249 530.551 846.029 534.995 845.675 537.383 842.942 539.875 840.329 539.934 834.925 546.144 836.58 545.987 830.939 547.73 827.48 555.171 830.507 556.402 826.461 558.759 823.697 563.937 824.123 563.956 818.719 563.432 812.717 565.411 809.541 572.361 811.934 570.972 804.99 574.178 803.187 582.615 807.198 578.825 797.616 586.998 801.306 588.954 798.111 590.711 794.7 589.62 788.165 594.856 788.583 598.96 787.749 600.889 784.535 605.327 784.054 608.912 782.636 607.665 775.983 613.705 777.218 611.507 769.562 619.237 772.598 622.131 770.422 619.192 762.011 625.844 763.854 624.076 756.723 630.137 757.917 633.967 756.732 633.452 750.957 635.744 748.152 638.188 745.509 642.67 744.997 646.141 743.419 647.474 739.613 651.153 738.247 656.015 738.097 655.5 732.389 656.117 727.865 660.796 727.513 663.638 725.273 662.549 719.026 668.254 719.702 667.894 714.217 674.986 716.279 675.959 712.156 680.876 711.997 682.613 708.644 686.316 707.253 689.724 705.561 687.728 698.516 691.366 697.057 692.383 693.013 697.968 693.453 696.942 687.42 702.867 688.17 705.97 686.161 703.467 678.738 705.446 675.658 714.694 679.545 714.156 674.045 713.973 668.905 721.23 670.826 719.765 664.49 725.396 664.844 723.654 658.281 728.672 658.043 728.886 653.333 736.586 655.548 739.335 653.173 740.227 649.095 743.526 647.222 746.077 644.663 747.985 641.523 748.488 637.126 754.071 637.283 756.164 634.309 758.515 631.567 759.266 627.417 757.194 620.812 761.363 619.681 761.533 615.072 769.282 617.006 766.791 610.125 775.607 612.911 771.445 604.653 775.547 603.406 779.558 602.066 782.469 599.794 784.603 596.876 782.522 590.509 788.607 590.831 790.221 587.501 789.547 582.344 797.964 584.457 793.498 576.321 799.848 576.744 799.448 571.869 803.478 570.444 802.256 564.978 807.247 564.27 806.558 559.255 808.455 556.207 816.477 557.682 814.936 552.084 819.681 551.083 818.936 546.112 826.245 546.896 822.231 539.661 829.77 540.534 827.639 534.69 831.891 533.237 829.95 527.603 836.032 527.338 838.334 524.537 840.688 521.766 845.123 520.304 838.956 512.208 841.732 509.734 843.857 506.849 847.625 504.857 845.861 499.838 853.128 499.591 854.326 496.128 855.398 492.62 858.34 489.987 859.189 486.381 861.394 483.37 865.204 480.983 860.814 475.327 863.224 472.391 867.71 470.153 870.436 467.212 862.296 460.72 865.697 458.059 871.278 455.953 872.203 452.426 870.378 448.19 868.661 444.066 875.05 441.863 872.02 437.492 877.599 434.93 876.942 431.088 878.346 427.628 879.374 424.088 880.418 420.535 879.041 416.671 872.845 412.345 876.7 409.141 875.583 405.447 875.214 401.841 883.603 398.676 876.013 394.732 879.143 391.219 878.199 387.597 880.401 383.972 880.849 380.325 880.567 376.69 883.265 372.899 877.522 369.602 877.065 366.027 878.911 362.23 881.568 358.276 878.241 354.996 874.597 351.847 873.802 348.342 875.495 344.414 872.878 341.228 875.72 336.988 877.718 332.824 868.997 331.091 874.839 325.955 871.259 323.119 873.149 318.82 871.32 315.539 866.165 313.334 869.404 308.476 869.218 304.666 859.871 304.173 863.091 299.143 860.632 296.232 863.213 291.252 863.082 287.313 857.779 285.676 859.609 280.804 851.872 280.512 852.462 276.197 853.749 271.426 845.459 271.81 843.665 268.749 847.865 262.144 842.008 261.447 845.637 254.907 843.201 252.1 838.654 250.744 832.292 250.772 830.903 247.398 832.088 242.124 831.252 238.251 823.433 239.872 823.307 235.455 823.559 230.6 819.937 229.012 814.516 229.151 818.83 220.25 816.409 217.505 808.889 219.979 810.504 213.102 808.074 210.354 801.977 211.835 797.549 211.634 800.105 202.759 793.305 205.685 788.924 205.737 790.466 197.334 784.525 199.784 784.711 192.77 781.619 190.796 775.031 195.137 774.018 189.506 771.613 186.218 764.938 191.977 764.203 184.956 760.005 185.724 756.234 185.669 754.474 180.028 750.511 180.488 745.859 183.442 742.875 180.952 740.264 176.515 736.525 176.516 732.293 179.4 728.738 179.157 725.631 175.729 722.162 174.257 718.535 174.023 715.016 172.199 711.239 174.701 707.694 171.891 704.031 170.099 700.397 173.232 696.699 171.774 693.073 172.53 689.465 173.233 685.955 174.707 682.497 176.245 678.189 171.615 674.955 174.745 672.312 180.494 669.073 182.35 664.945 180.082 661.829 182.415 658.1 182.23 655.44 185.906 651.714 185.78 646.154 180.271 643.204 182.965 640.437 185.975 637.558 188.51 633.887 189.029 629.233 187.434 625.83 188.821 622.642 190.662 620.847 195.164 616.141 194.063 614.305 198.238 610.807 199.431 609.147 203.598 606.168 205.565 599.623 202.393 598.148 206.67 598.969 213.77 596.557 216.373 592.528 217.006 584.883 213.675 586.059 220.435 582.014 221.407 578.684 223.228 578.613 228.165 577.748 232.171 574.021 233.636 567.51 233.014 571.938 240.99 562.313 238.281 560.762 241.658 559.942 245.61 558.296 248.938 556.15 251.882 558.527 258.383 555.319 260.508 548.395 259.698 544.616 261.364 545.181 266.451 545.743 271.519 539.998 271.656 542.729 278.376 533.932 276.203 537.239 283.306 531.575 283.591 531.059 287.75 531.752 292.756 529.318 295.453 525.452 297.143 519.572 297.477 517.912 300.783 517.161 304.687 517.241 309.101 515.353 312.199 507.707 311.684 507.928 316.149 504.78 318.538 510.275 326.023 503.847 326.49 504.288 330.92 499.374 332.373 504.526 331.226 495.07 332.264 501.227 324.804 493.928 324.659 496.125 319.347 494.81 315.941 490.194 314.346 492.136 309.139 483.412 309.869 488.247 302.997 483.546 301.514 482.37 298.019 478.749 295.966 482.197 289.667 478.955 287.38 472.828 286.936 473.125 282.482 470.614 279.807 472.005 274.566 468.789 272.346 464.933 270.584 458.674 270.51 459.981 265.229 459.257 261.323 453.465 261.001 453.532 256.523 453.734 251.925 447.675 251.869 449.058 246.379 446.535 243.739 447.179 238.753 437.27 241.628 438.519 236.17 435.162 234.239 436.29 228.602 429.368 229.872 426.92 227.342 430.359 218.869 426.732 217.254 419.911 219.336 420.814 212.765 417.822 210.594 412.63 211.326 411.063 207.366 408.906 204.073 402.758 206.734 401.171 202.572 399.221 198.787 392.924 202.487 391.284 198.098 389.448 193.806 383.658 197.372 383.883 188.447 380.355 187.29 374.513 191.756 370.639 191.875 367.638 189.799 366.24 183.019 360.671 188.248 360.072 178.156 354.943 182.562 352.781 176.69 347.636 182.055 344.013 181.824 341.094 178.349 337.32 178.805 333.954 177.138 329.771 180.518 327.167 173.33 322.948 177.821 319.609 175.22 316.123 173.416 312.374 174.99 308.858 172.64 305.248 170.732 301.557 171.829 297.929 174.286 294.437 177.88 290.539 171.767 286.75 170.444 283.602 176.349 280.227 178.363 276.127 174.776 272.012 172.231 269.865 180.889 265.575 177.695 261.375 175.698 259.691 183.74 254.232 177.581 251.067 179.811 248.977 184.773 244.835 183.732 241.42 184.805 238.594 187.278 235.895 189.891 230.725 187.334 228.901 191.675 227.75 196.934 221.574 193.204 217.521 193.492 216.273 198.264 211.184 197.136 211.709 204.133 208.905 206.251 201.948 203.101 198.97 205.246 201.875 214.237 194.776 211.54 191.54 213.377 194.086 221.198 190.797 222.852 184.712 221.915 182.559 224.833 178.443 225.999 179.354 231.553 180.536 237.141 173.492 235.99 175.621 242.164 166.279 239.561 168.047 245.337 167.953 249.684 166.008 252.686 164.465 255.949 164.006 259.88 160.173 261.683 155.049 262.806 151.919 265.204 153.784 270.405 154.601 274.906 153 278.072 143.271 277.24 141.821 280.633 147.017 287.042 141.636 288.59 138.728 291.316 138.85 295.308 138.071 298.903 140.964 303.824 136.214 305.937 136.744 309.924 138.46 314.23 128.945 315.085 127.645 318.54 135.613 324.476 129.713 326.65 130.752 330.614 132.731 334.726 124.38 336.647 123.856 340.278 129.112 344.905 128.139 348.37 124.344 351.444 128.725 355.662 124.309 358.742 120.368 361.987 122.477 365.844 120.293 369.334 120.629 373.017 124.889 376.839 125.196 380.434 120.218 383.965 122.877 387.605 123.472 391.207 119.021 394.965 120.337 398.577 128.028 401.755 124.16 405.611 122.364 409.398 127.13 412.544 121.379 416.843 122.128 420.436 130.561 422.858 127.935 426.885 130.771 430.017 123.576 435.056 131.002 437.236 133.388 440.356 129.161 445.033 130.753 448.365 129.128 452.556 137.27 453.998 136.866 457.826 131.624 463.259 132.273 466.905 138.163 468.708 137.311 472.862 139.254 476 143.325 478.253 143.088 482.235 143.336 486.061 148.604 487.627 142.592 494.434 150.39 494.683 151.418 498.179 154.167 500.781 149.896 507.216 150.963 510.837 160.944 509.213 161.244 513.185 160.789 517.699 166.219 518.484 162.877 524.918 164.21 528.361 172.063 527.456 167.695 534.725 171.378 536.584 173.529 539.478 173.179 544.123 177.267 545.659 179.826 548.261 186.831 547.637 181.597 555.89 187.343 556.143 187.702 560.358 190.989 562.398 195.879 563.206 195.183 568.252 195.934 572.219 199.001 574.403 201.408 577.094 207.003 577.264 208.29 580.823 211.703 582.688 213.268 586.032 211.066 592.449 214.266 594.492 216.844 597.038 223.967 595.81 222.152 601.994 226.863 602.738 224.531 609.41 228.22 611.01 228.948 615.13 234.102 615.452 236.584 618.06 237.251 622.245 239.658 624.924 246.092 624.063 246.453 628.533 251.066 629.243 251.602 633.575 251.931 638.109 258.476 637.057 259.181 641.261 260.812 644.636 264.884 645.786 268.491 647.351 265.444 655.045 269.093 656.579 274.189 656.757 272.299 663.443 278.444 662.623 281.655 664.539 286.1 665.282 287.861 668.561 288.693 672.731 292.473 674.091 289.968 681.482 295.46 681.196 298.966 682.81 301.232 685.623 299.383 692.452 302.085 694.856 309.912 692.224 307.068 700.075 314.66 697.639 316.463 700.916 320.963 701.512 322.924 704.632 326.356 706.281 325.726 712.009 329.295 713.522 328.971 718.968 336.103 716.864 335.044 723.071 335.01 728.256 342.626 725.616 341.092 732.35 344.081 734.447 349.888 733.627 353.839 734.713 352.455 741.337 358.4 740.342 362.275 741.493 359.383 749.731 366.224 747.768 367.481 751.667 367.471 756.913 372.126 757.228 377.233 757.051 378.125 761.353 380.054 764.556 379.26 770.679 382.488 772.5 387.316 772.595 392.553 772.237 390.799 779.43 394.121 781.138 396.921 783.41 398.509 787.006 406.345 783.775 403.666 792.042 409.941 790.5 414.626 790.691 414.205 796.507 419.505 796.01 420.919 799.809 422.865 803.024 421.834 809.559 430.761 804.991 429.259 812.068 432.73 813.585 433.661 817.954 439.062 817.292 440.028 821.627 441.985 824.848 444.476 827.469 446.157 831.008 454.548 826.901 455.24 831.565 457.913 833.973 457.489 839.939 462.834 839.284 467.642 839.235 470.438 841.499 471.097 846.236 472.235 850.423 477.791 849.475 477.542 855.28 484.282 852.942 485.236 857.347 484.611 863.609 488.79 864.246 494.238 863.403 494.608 868.497 498.641 869.301 498.469 874.343 497.885 868.903" style="fill: #fff;"/>
  <polygon points="497.885 868.903 505.879 872.441 505.664 866.678 506.969 862.674 509.939 860.626 516.89 863.235 518.33 859.386 519.876 855.66 524.542 855.576 527.309 853.278 525.137 845.249 530.551 846.029 534.995 845.675 537.383 842.942 539.875 840.329 539.934 834.925 546.144 836.58 545.987 830.939 547.73 827.48 555.171 830.507 556.402 826.461 558.759 823.697 563.937 824.123 563.956 818.719 563.432 812.717 565.411 809.541 572.361 811.934 570.972 804.99 574.178 803.187 582.615 807.198 578.825 797.616 586.998 801.306 588.954 798.111 590.711 794.7 589.62 788.165 594.856 788.583 598.96 787.749 600.889 784.535 605.327 784.054 608.912 782.636 607.665 775.983 613.705 777.218 611.507 769.562 619.237 772.598 622.131 770.422 619.192 762.011 625.844 763.854 624.076 756.723 630.137 757.917 633.967 756.732 633.452 750.957 635.744 748.152 638.188 745.509 642.67 744.997 646.141 743.419 647.474 739.613 651.153 738.247 656.015 738.097 655.5 732.389 656.117 727.865 660.796 727.513 663.638 725.273 662.549 719.026 668.254 719.702 667.894 714.217 674.986 716.279 675.959 712.156 680.876 711.997 682.613 708.644 686.316 707.253 689.724 705.561 687.728 698.516 691.366 697.057 692.383 693.013 697.968 693.453 696.942 687.42 702.867 688.17 705.97 686.161 703.467 678.738 705.446 675.658 714.694 679.545 714.156 674.045 713.973 668.905 721.23 670.826 719.765 664.49 725.396 664.844 723.654 658.281 728.672 658.043 728.886 653.333 736.586 655.548 739.335 653.173 740.227 649.095 743.526 647.222 746.077 644.663 747.985 641.523 748.488 637.126 754.071 637.283 756.164 634.309 758.515 631.567 759.266 627.417 757.194 620.812 761.363 619.681 761.533 615.072 769.282 617.006 766.791 610.125 775.607 612.911 771.445 604.653 775.547 603.406 779.558 602.066 782.469 599.794 784.603 596.876 782.522 590.509 788.607 590.831 790.221 587.501 789.547 582.344 797.964 584.457 793.498 576.321 799.848 576.744 799.448 571.869 803.478 570.444 802.256 564.978 807.247 564.27 806.558 559.255 808.455 556.207 816.477 557.682 814.936 552.084 819.681 551.083 818.936 546.112 826.245 546.896 822.231 539.661 829.77 540.534 827.639 534.69 831.891 533.237 829.95 527.603 836.032 527.338 838.334 524.537 840.688 521.766 845.123 520.304 838.956 512.208 841.732 509.734 843.857 506.849 847.625 504.857 845.861 499.838 853.128 499.591 854.326 496.128 855.398 492.62 858.34 489.987 859.189 486.381 861.394 483.37 865.204 480.983 860.814 475.327 863.224 472.391 867.71 470.153 870.436 467.212 862.296 460.72 865.697 458.059 871.278 455.953 872.203 452.426 870.378 448.19 868.661 444.066 875.05 441.863 872.02 437.492 877.599 434.93 876.942 431.088 878.346 427.628 879.374 424.088 880.418 420.535 879.041 416.671 872.845 412.345 876.7 409.141 875.583 405.447 875.214 401.841 883.603 398.676 876.013 394.732 879.143 391.219 878.199 387.597 880.401 383.972 880.849 380.325 880.567 376.69 883.265 372.899 877.522 369.602 877.065 366.027 878.911 362.23 881.568 358.276 878.241 354.996 874.597 351.847 873.802 348.342 875.495 344.414 872.878 341.228 875.72 336.988 877.718 332.824 868.997 331.091 874.839 325.955 871.259 323.119 873.149 318.82 871.32 315.539 866.165 313.334 869.404 308.476 869.218 304.666 859.871 304.173 863.091 299.143 860.632 296.232 863.213 291.252 863.082 287.313 857.779 285.676 859.609 280.804 851.872 280.512 852.462 276.197 853.749 271.426 845.459 271.81 843.665 268.749 847.865 262.144 842.008 261.447 845.637 254.907 843.201 252.1 838.654 250.744 832.292 250.772 830.903 247.398 832.088 242.124 831.252 238.251 823.433 239.872 823.307 235.455 823.559 230.6 819.937 229.012 814.516 229.151 818.83 220.25 816.409 217.505 808.889 219.979 810.504 213.102 808.074 210.354 801.977 211.835 797.549 211.634 800.105 202.759 793.305 205.685 788.924 205.737 790.466 197.334 784.525 199.784 784.711 192.77 781.619 190.796 775.031 195.137 774.018 189.506 771.613 186.218 764.938 191.977 764.203 184.956 760.005 185.724 756.234 185.669 754.474 180.028 750.511 180.488 745.859 183.442 742.875 180.952 740.264 176.515 736.525 176.516 732.293 179.4 728.738 179.157 725.631 175.729 722.162 174.257 718.535 174.023 715.016 172.199 711.239 174.701 707.694 171.891 704.031 170.099 700.397 173.232 696.699 171.774 693.073 172.53 689.465 173.233 685.955 174.707 682.497 176.245 678.189 171.615 674.955 174.745 672.312 180.494 669.073 182.35 664.945 180.082 661.829 182.415 658.1 182.23 655.44 185.906 651.714 185.78 646.154 180.271 643.204 182.965 640.437 185.975 637.558 188.51 633.887 189.029 629.233 187.434 625.83 188.821 622.642 190.662 620.847 195.164 616.141 194.063 614.305 198.238 610.807 199.431 609.147 203.598 606.168 205.565 599.623 202.393 598.148 206.67 598.969 213.77 596.557 216.373 592.528 217.006 584.883 213.675 586.059 220.435 582.014 221.407 578.684 223.228 578.613 228.165 577.748 232.171 574.021 233.636 567.51 233.014 571.938 240.99 562.313 238.281 560.762 241.658 559.942 245.61 558.296 248.938 556.15 251.882 558.527 258.383 555.319 260.508 548.395 259.698 544.616 261.364 545.181 266.451 545.743 271.519 539.998 271.656 542.729 278.376 533.932 276.203 537.239 283.306 531.575 283.591 531.059 287.75 531.752 292.756 529.318 295.453 525.452 297.143 519.572 297.477 517.912 300.783 517.161 304.687 517.241 309.101 515.353 312.199 507.707 311.684 507.928 316.149 504.78 318.538 510.275 326.023 503.847 326.49 504.288 330.92 499.374 332.373 504.526 331.226 495.07 332.264 501.227 324.804 493.928 324.659 496.125 319.347 494.81 315.941 490.194 314.346 492.136 309.139 483.412 309.869 488.247 302.997 483.546 301.514 482.37 298.019 478.749 295.966 482.197 289.667 478.955 287.38 472.828 286.936 473.125 282.482 470.614 279.807 472.005 274.566 468.789 272.346 464.933 270.584 458.674 270.51 459.981 265.229 459.257 261.323 453.465 261.001 453.532 256.523 453.734 251.925 447.675 251.869 449.058 246.379 446.535 243.739 447.179 238.753 437.27 241.628 438.519 236.17 435.162 234.239 436.29 228.602 429.368 229.872 426.92 227.342 430.359 218.869 426.732 217.254 419.911 219.336 420.814 212.765 417.822 210.594 412.63 211.326 411.063 207.366 408.906 204.073 402.758 206.734 401.171 202.572 399.221 198.787 392.924 202.487 391.284 198.098 389.448 193.806 383.658 197.372 383.883 188.447 380.355 187.29 374.513 191.756 370.639 191.875 367.638 189.799 366.24 183.019 360.671 188.248 360.072 178.156 354.943 182.562 352.781 176.69 347.636 182.055 344.013 181.824 341.094 178.349 337.32 178.805 333.954 177.138 329.771 180.518 327.167 173.33 322.948 177.821 319.609 175.22 316.123 173.416 312.374 174.99 308.858 172.64 305.248 170.732 301.557 171.829 297.929 174.286 294.437 177.88 290.539 171.767 286.75 170.444 283.602 176.349 280.227 178.363 276.127 174.776 272.012 172.231 269.865 180.889 265.575 177.695 261.375 175.698 259.691 183.74 254.232 177.581 251.067 179.811 248.977 184.773 244.835 183.732 241.42 184.805 238.594 187.278 235.895 189.891 230.725 187.334 228.901 191.675 227.75 196.934 221.574 193.204 217.521 193.492 216.273 198.264 211.184 197.136 211.709 204.133 208.905 206.251 201.948 203.101 198.97 205.246 201.875 214.237 194.776 211.54 191.54 213.377 194.086 221.198 190.797 222.852 184.712 221.915 182.559 224.833 178.443 225.999 179.354 231.553 180.536 237.141 173.492 235.99 175.621 242.164 166.279 239.561 168.047 245.337 167.953 249.684 166.008 252.686 164.465 255.949 164.006 259.88 160.173 261.683 155.049 262.806 151.919 265.204 153.784 270.405 154.601 274.906 153 278.072 143.271 277.24 141.821 280.633 147.017 287.042 141.636 288.59 138.728 291.316 138.85 295.308 138.071 298.903 140.964 303.824 136.214 305.937 136.744 309.924 138.46 314.23 128.945 315.085 127.645 318.54 135.613 324.476 129.713 326.65 130.752 330.614 132.731 334.726 124.38 336.647 123.856 340.278 129.112 344.905 128.139 348.37 124.344 351.444 128.725 355.662 124.309 358.742 120.368 361.987 122.477 365.844 120.293 369.334 120.629 373.017 124.889 376.839 125.196 380.434 120.218 383.965 122.877 387.605 123.472 391.207 119.021 394.965 120.337 398.577 128.028 401.755 124.16 405.611 122.364 409.398 127.13 412.544 121.379 416.843 122.128 420.436 130.561 422.858 127.935 426.885 130.771 430.017 123.576 435.056 131.002 437.236 133.388 440.356 129.161 445.033 130.753 448.365 129.128 452.556 137.27 453.998 136.866 457.826 131.624 463.259 132.273 466.905 138.163 468.708 137.311 472.862 139.254 476 143.325 478.253 143.088 482.235 143.336 486.061 148.604 487.627 142.592 494.434 150.39 494.683 151.418 498.179 154.167 500.781 149.896 507.216 150.963 510.837 160.944 509.213 161.244 513.185 160.789 517.699 166.219 518.484 162.877 524.918 164.21 528.361 172.063 527.456 167.695 534.725 171.378 536.584 173.529 539.478 173.179 544.123 177.267 545.659 179.826 548.261 186.831 547.637 181.597 555.89 187.343 556.143 187.702 560.358 190.989 562.398 195.879 563.206 195.183 568.252 195.934 572.219 199.001 574.403 201.408 577.094 207.003 577.264 208.29 580.823 211.703 582.688 213.268 586.032 211.066 592.449 214.266 594.492 216.844 597.038 223.967 595.81 222.152 601.994 226.863 602.738 224.531 609.41 228.22 611.01 228.948 615.13 234.102 615.452 236.584 618.06 237.251 622.245 239.658 624.924 246.092 624.063 246.453 628.533 251.066 629.243 251.602 633.575 251.931 638.109 258.476 637.057 259.181 641.261 260.812 644.636 264.884 645.786 268.491 647.351 265.444 655.045 269.093 656.579 274.189 656.757 272.299 663.443 278.444 662.623 281.655 664.539 286.1 665.282 287.861 668.561 288.693 672.731 292.473 674.091 289.968 681.482 295.46 681.196 298.966 682.81 301.232 685.623 299.383 692.452 302.085 694.856 309.912 692.224 307.068 700.075 314.66 697.639 316.463 700.916 320.963 701.512 322.924 704.632 326.356 706.281 325.726 712.009 329.295 713.522 328.971 718.968 336.103 716.864 335.044 723.071 335.01 728.256 342.626 725.616 341.092 732.35 344.081 734.447 349.888 733.627 353.839 734.713 352.455 741.337 358.4 740.342 362.275 741.493 359.383 749.731 366.224 747.768 367.481 751.667 367.471 756.913 372.126 757.228 377.233 757.051 378.125 761.353 380.054 764.556 379.26 770.679 382.488 772.5 387.316 772.595 392.553 772.237 390.799 779.43 394.121 781.138 396.921 783.41 398.509 787.006 406.345 783.775 403.666 792.042 409.941 790.5 414.626 790.691 414.205 796.507 419.505 796.01 420.919 799.809 422.865 803.024 421.834 809.559 430.761 804.991 429.259 812.068 432.73 813.585 433.661 817.954 439.062 817.292 440.028 821.627 441.985 824.848 444.476 827.469 446.157 831.008 454.548 826.901 455.24 831.565 457.913 833.973 457.489 839.939 462.834 839.284 467.642 839.235 470.438 841.499 471.097 846.236 472.235 850.423 477.791 849.475 477.542 855.28 484.282 852.942 485.236 857.347 484.611 863.609 488.79 864.246 494.238 863.403 494.608 868.497 498.641 869.301 498.469 874.343 497.885 868.903" style="fill: none; stroke: #000; stroke-linecap: round; stroke-linejoin: round; stroke-width: 35px;"/>
</svg>