<?xml version="1.0" encoding="UTF-8"?>
<svg id="SM_Icons" data-name="SM Icons" xmlns="http://www.w3.org/2000/svg" width="1000" height="1000" viewBox="0 0 1000 1000">
  <polygon points="883.258 500 883.297 512.048 885.463 524.255 881.643 536.084 883.274 548.426 880.208 560.229 875.476 571.639 877.39 584.365 870.226 595.069 867.302 606.72 866.721 619.161 861.063 629.995 858.877 642.093 854.462 653.392 845.917 662.775 841.926 674.219 837.181 685.366 831.986 696.335 826.106 706.953 818.807 716.66 811.278 726.155 804.538 736.224 794.441 743.583 788.586 754.426 781.12 763.995 772.828 772.836 761.742 778.737 754.045 788.169 744.005 794.968 735.132 803.148 725.116 809.867 716.392 818.431 705.711 824.17 694.805 829.422 684.38 835.411 674.241 841.989 663.762 848.03 652.795 853.105 641.809 858.179 630.178 861.588 619.047 866.39 607.682 870.638 595.296 871.135 584.353 877.361 571.799 876.345 560.027 878.948 548.269 882.041 536.228 883.197 524.036 881.927 512.072 884.031 500 882.731 487.921 884.31 475.981 881.662 463.654 884.439 451.704 882.242 439.653 880.962 427.632 879.32 416.038 875.583 404.724 871.037 392.554 869.806 381.623 864.307 370.257 860.362 359.194 855.629 346.794 854.033 336.726 846.975 326.118 841.267 314.723 837.02 304.769 830.123 293.692 825.091 283.507 818.562 274.602 810.237 264.408 803.724 253.977 797.388 246.653 787.363 238.082 778.909 227.207 772.786 219.128 763.748 210.89 754.874 203.326 745.418 198.095 734.166 186.969 727.419 181.613 716.362 174.478 706.57 167.179 696.819 165.156 684.068 157.449 674.528 150.857 664.286 145.702 653.312 144.443 640.77 137.484 630.512 132.946 619.262 131.802 606.974 129.369 595.167 126.321 583.533 124.671 571.606 117.772 560.543 117.222 548.361 116.268 536.278 115.284 524.209 114.569 512.115 115.467 500 115.556 487.917 114.323 475.732 114.739 463.578 117.014 451.61 119.792 439.771 123.719 428.209 123.601 415.856 126.988 404.218 130.033 392.508 133.975 381.065 135.831 368.886 144.338 359.181 147.03 347.255 151.732 336.117 158.079 325.784 164.473 315.545 168.24 303.799 174.125 293.194 181.119 283.29 189.14 274.148 194.891 263.332 204.117 255.224 211.321 245.492 220.195 237.241 226.715 226.707 236.516 219.408 246.648 212.615 256.414 205.539 265.492 197.655 275.155 190.506 283.062 180.768 293.865 175.163 303.81 168.241 314.912 163.304 324.298 155.149 336.598 152.733 347.661 147.949 357.704 140.591 370.194 139.444 381.237 134.485 392.436 129.767 404.808 129.272 415.675 122.766 427.592 120.444 439.57 118.488 451.815 118.635 463.736 116.418 475.913 117.247 487.956 116.878 500 116.389 512.077 115.77 524.104 116.964 536.055 118.678 548.118 119.186 559.925 121.726 571.89 123.198 584.213 123.291 595.731 127.188 607.075 131.473 619.183 133.212 629.92 139.146 642.128 141.035 652.075 148.578 664.562 150.293 674.119 158.269 684.281 164.787 695.759 168.987 706.079 175.268 715.039 183.573 725.4 189.759 734.741 197.371 745.037 203.802 753.091 212.927 762.116 220.88 770.583 229.424 779.002 238.009 788.534 245.634 797.472 253.921 803.159 264.859 809.351 275.259 819.485 282.89 823.112 294.962 829.626 305.074 837.437 314.504 841.026 326.251 848.332 336.096 852.161 347.614 856.116 359.009 859.558 370.553 867.503 380.592 868.124 393.048 874.117 403.941 874.017 416.391 877.662 427.951 877.693 440.17 882.252 451.704 882.226 463.863 882.255 475.944 884.739 487.907 883.258 500"/>
  <polygon points="883.258 500 883.297 512.048 885.463 524.255 881.643 536.084 883.274 548.426 880.208 560.229 875.476 571.639 877.39 584.365 870.226 595.069 867.302 606.72 866.721 619.161 861.063 629.995 858.877 642.093 854.462 653.392 845.917 662.775 841.926 674.219 837.181 685.366 831.986 696.335 826.106 706.953 818.807 716.66 811.278 726.155 804.538 736.224 794.441 743.583 788.586 754.426 781.12 763.995 772.828 772.836 761.742 778.737 754.045 788.169 744.005 794.968 735.132 803.148 725.116 809.867 716.392 818.431 705.711 824.17 694.805 829.422 684.38 835.411 674.241 841.989 663.762 848.03 652.795 853.105 641.809 858.179 630.178 861.588 619.047 866.39 607.682 870.638 595.296 871.135 584.353 877.361 571.799 876.345 560.027 878.948 548.269 882.041 536.228 883.197 524.036 881.927 512.072 884.031 500 882.731 487.921 884.31 475.981 881.662 463.654 884.439 451.704 882.242 439.653 880.962 427.632 879.32 416.038 875.583 404.724 871.037 392.554 869.806 381.623 864.307 370.257 860.362 359.194 855.629 346.794 854.033 336.726 846.975 326.118 841.267 314.723 837.02 304.769 830.123 293.692 825.091 283.507 818.562 274.602 810.237 264.408 803.724 253.977 797.388 246.653 787.363 238.082 778.909 227.207 772.786 219.128 763.748 210.89 754.874 203.326 745.418 198.095 734.166 186.969 727.419 181.613 716.362 174.478 706.57 167.179 696.819 165.156 684.068 157.449 674.528 150.857 664.286 145.702 653.312 144.443 640.77 137.484 630.512 132.946 619.262 131.802 606.974 129.369 595.167 126.321 583.533 124.671 571.606 117.772 560.543 117.222 548.361 116.268 536.278 115.284 524.209 114.569 512.115 115.467 500 115.556 487.917 114.323 475.732 114.739 463.578 117.014 451.61 119.792 439.771 123.719 428.209 123.601 415.856 126.988 404.218 130.033 392.508 133.975 381.065 135.831 368.886 144.338 359.181 147.03 347.255 151.732 336.117 158.079 325.784 164.473 315.545 168.24 303.799 174.125 293.194 181.119 283.29 189.14 274.148 194.891 263.332 204.117 255.224 211.321 245.492 220.195 237.241 226.715 226.707 236.516 219.408 246.648 212.615 256.414 205.539 265.492 197.655 275.155 190.506 283.062 180.768 293.865 175.163 303.81 168.241 314.912 163.304 324.298 155.149 336.598 152.733 347.661 147.949 357.704 140.591 370.194 139.444 381.237 134.485 392.436 129.767 404.808 129.272 415.675 122.766 427.592 120.444 439.57 118.488 451.815 118.635 463.736 116.418 475.913 117.247 487.956 116.878 500 116.389 512.077 115.77 524.104 116.964 536.055 118.678 548.118 119.186 559.925 121.726 571.89 123.198 584.213 123.291 595.731 127.188 607.075 131.473 619.183 133.212 629.92 139.146 642.128 141.035 652.075 148.578 664.562 150.293 674.119 158.269 684.281 164.787 695.759 168.987 706.079 175.268 715.039 183.573 725.4 189.759 734.741 197.371 745.037 203.802 753.091 212.927 762.116 220.88 770.583 229.424 779.002 238.009 788.534 245.634 797.472 253.921 803.159 264.859 809.351 275.259 819.485 282.89 823.112 294.962 829.626 305.074 837.437 314.504 841.026 326.251 848.332 336.096 852.161 347.614 856.116 359.009 859.558 370.553 867.503 380.592 868.124 393.048 874.117 403.941 874.017 416.391 877.662 427.951 877.693 440.17 882.252 451.704 882.226 463.863 882.255 475.944 884.739 487.907 883.258 500" style="fill: none; stroke: #000; stroke-miterlimit: 10; stroke-width: 30px;"/>
</svg>