<?xml version="1.0" encoding="UTF-8"?>
<svg id="Sticker" xmlns="http://www.w3.org/2000/svg" width="1000" height="1000" viewBox="0 0 1000 1000">
  <polyline points="179.34 804.906 171.449 800.812 171.617 797.16 178.347 794.17 178.599 790.596 173.975 786.446 179.219 783.45 181.877 780.182 178.685 776.129 178.159 772.415 175.73 768.396 178.658 765.195 179.217 761.63 176.751 757.543 180.253 754.483 180.126 750.789 180.084 747.101 180.664 743.526 183.97 740.501 187.591 737.57 188.44 734.081 188.503 730.421 186.379 726.261 183.456 721.885 190.103 719.724 185.693 714.96 187.199 711.598 187.667 707.982 195.169 706.176 190.154 701.145 192.969 698.155 199.493 696.204 198.416 692.186 201.758 689.407 194.288 683.506 202.277 682.099 203.32 678.669 201.116 674.239 200.497 670.27 206.008 668.237 199.899 662.482 208.665 661.558 210.568 658.415 203.78 652.311 213.809 651.958 211.109 647.212 207.429 642.07 211.31 639.627 214.301 636.886 217.381 634.198 216.541 630.034 218.584 626.962 215.922 622.047 222.756 620.881 221.025 616.305 220.893 612.35 228.958 611.802 227.157 607.153 230.345 604.61 225.041 598.385 233.4 598.12 230.26 592.783 229.537 588.487 237.327 588.09 236.345 583.67 234.946 579.021 236.754 575.875 244.323 575.537 238.937 568.884 248.215 569.472 247.649 565.174 245.783 560.179 249.346 557.96 247.367 552.848 254.999 552.815 257.587 550.137 252.827 543.447 261.513 544.123 259.568 538.926 257.053 533.353 261.168 531.536 268.428 531.587 268.065 527.216 265.269 521.357 274.26 522.566 270.259 515.918 270.451 511.783 271.747 508.315 277.002 507.355 283.455 507.217 277.938 499.351 283.359 498.58 287.167 496.787 290.321 494.581 291.824 491.265 293.57 488.109 290.975 481.908 297.989 482.437 294.957 475.848 301.929 476.428 305.362 474.494 307.835 471.869 303.632 464.233 311.717 465.829 313.463 462.652 309.985 455.402 311.541 452.012 316.559 451.368 322.823 451.78 322.507 446.901 323.124 442.742 328.068 442.164 331.147 440.061 327.692 432.392 333.126 432.29 334.637 428.819 339.728 428.498 341.071 424.878 340.372 419.388 344.919 418.636 347.856 416.438 349.995 413.502 351.131 409.608 353.627 406.989 360.987 409.088 359.867 402.975 365.977 403.955 364.681 397.582 366.587 394.373 367.68 390.312 376.736 394.49 374.408 386.856 380.147 387.681 381.412 383.77 385.555 382.957 385.397 377.447 387.809 374.727 394.132 376.405 392.641 369.275 394.299 365.663 399.381 366.015 403.43 365.216 402.524 358.541 406.356 357.482 413.856 360.932 414.051 355.491 417.433 353.959 416.73 347.279 424.843 351.77 425.404 346.647 425.968 341.459 428.515 338.825 433.407 339.325 438.604 340.3 438.183 333.642 442.652 333.662 444.731 330.377 449.747 331.239 448.953 323.814 456.778 328.803 455.59 320.687 461.945 323.665 462.785 318.449 466.446 317.457 468.676 314.28 473.533 315.178 476.425 313.037 476.667 306.649 479.249 303.944 485.822 307.762 487.452 303.514 491.031 302.483 492.021 297.07 495.193 295.322 498.193 293.277 501.167 291.182 506.155 292.675 508.692 289.817 513.194 290.528 515.413 287.069 519.223 286.55 520.743 281.71 526.998 285.903 528.154 280.307 530.934 277.813 533.844 275.56 538.091 275.994 541.586 274.94 543.117 269.821 547.101 269.768 552.414 272.587 553.423 266.228 555.651 262.409 559.189 261.431 564.332 264.07 568.052 263.58 572.346 264.439 573.627 258.322 576.029 254.73 580.812 256.792 582.468 251.345 587.931 255.172 590.489 251.88 594.936 253.321 598.671 253.011 599.607 245.452 602.943 244.053 607.621 246.244 612.038 247.825 615.089 245.724 616.981 240.355 621.437 242.135 625.313 242.333 627.233 236.863 632.431 240.97 633.931 234.123 639.28 238.84 640.553 231.118 645.698 235.356 648.728 233.014 651.897 231.082 655.241 229.697 658.842 229.158 662.933 230.297 665.613 226.641 668.473 223.533 673.582 228.348 676.736 226.287 679.277 221.942 682.012 218.204 685.539 217.378 688.748 215.332 694.285 222.375 697.177 219.14 699.506 213.534 703.587 214.998 707.024 213.835 710.593 213.252 714.513 214.2 717.196 209.732 720.626 208.498 724.445 209.031 729.34 214.65 732.705 213.208 736.149 212.117 738.893 207.547 743.002 209.714 745.343 202.892 749.705 206.433 752.999 204.417 756.439 203.148 759.637 200.495 764.702 208.401 767.281 202.193 771.375 204.789 774.425 201.17 777.495 197.534 781.113 197.234 785.221 200.129 788.378 196.847 792.223 198.121 795.922 198.452 799.859 200.567 803.711 202.17 806.892 198.822 809.723 192.598 813.253 191.649 817.265 194.544 821.244 197.374 824.36 192.857" style="fill: none; stroke: #000; stroke-linecap: round; stroke-linejoin: round; stroke-width: 40px;"/>
</svg>