<?xml version="1.0" encoding="UTF-8"?>
<svg id="Sticker" xmlns="http://www.w3.org/2000/svg" width="1000" height="1000" viewBox="0 0 1000 1000">
  <polygon points="499.994 115.635 503.293 119.246 502.464 123.872 504.27 126.977 506.437 129.874 512.095 130.755 510.856 135.617 511.684 139.287 517.4 140.136 519.181 143.257 517.512 148.369 519.217 151.532 523.884 152.984 522.517 157.92 525.363 160.423 528.684 162.65 532.928 164.344 528.149 171.247 533.002 172.589 531.697 177.485 532.404 181.219 535.576 183.531 538.994 185.699 545.443 186.118 538.8 194.094 545.247 194.514 543.349 199.75 548.409 200.97 547.591 205.583 548.43 209.24 557.281 208.271 555.575 213.398 555.35 217.669 559.248 219.561 558.707 224.015 565.951 223.975 567.254 227.365 562.486 234.261 569.158 234.553 570.005 238.208 568.625 243.149 575.57 243.285 573.051 248.886 575.043 251.882 581.997 252.015 577.065 259.012 584.883 258.647 584.932 262.769 589.155 264.481 586.67 270.064 593.978 269.993 587.478 277.894 595.541 277.385 597.137 280.61 597.075 284.792 598.475 288.128 599.167 291.874 599.783 295.662 604.282 297.209 607.851 299.292 611.481 301.34 611.837 305.279 612.157 309.237 615.482 311.461 613.573 316.707 618.209 318.175 619.966 321.304 619.452 325.746 621.201 328.881 621.747 332.711 622.287 336.546 631.746 335.231 629.392 340.738 627.939 345.725 636.673 344.831 636.097 349.313 636.089 353.47 636.874 357.167 638.912 360.14 640.917 363.132 645.514 364.626 641.641 371.009 646.469 372.369 646.789 376.331 651.532 377.739 654.04 380.437 658.129 382.222 655.471 387.902 657.567 390.838 661.467 392.732 664.398 395.185 661.095 401.238 664.043 403.683 665.769 406.833 670.52 408.237 672.584 411.194 671.282 416.095 673.329 419.062 678.234 420.381 682.027 422.343 680.785 427.211 683.195 429.97 680.665 435.581 688.611 435.142 690.848 437.998 689.786 442.76 694.464 444.206 692.882 449.266 695.458 451.926 695.028 456.322 701.704 456.614 701.652 460.792 699.705 466.064 703.106 468.249 707.483 469.871 710.226 472.438 708.681 477.481 710.017 480.861 707.821 486.281 710.989 488.603 711.797 492.286 713.102 495.683 721.854 494.778 721.005 499.417 723.412 502.176 726.762 504.39 726.228 508.846 730.438 510.564 728.501 515.832 734.262 516.656 732.257 521.964 737.627 523.016 732.787 529.963 734.986 532.846 739.814 534.209 746.633 534.422 740.076 542.357 747.814 542.039 747.938 546.117 745.93 551.425 752.379 551.852 756.824 553.436 755.343 558.442 760.548 559.589 762.725 562.486 763.006 566.475 766.177 568.796 762.435 575.107 766.914 576.671 763.661 582.699 768.883 583.834 773.909 585.083 772.895 589.82 771.296 594.895 772.884 598.132 775.789 600.607 781.983 601.183 780.201 606.362 784.213 608.197 789.606 609.234 789.847 613.246 792.527 615.851 787.557 622.874 788.892 626.256 790.258 629.62 794.797 631.15 797.715 633.617 800.233 636.314 803.425 638.624 805.258 641.719 805.396 645.792 805.797 649.713 808.058 652.553 813.743 653.419 810.309 659.552 816.672 660.031 815.495 664.864 821.094 665.781 818.437 671.463 824.023 672.385 826.397 675.161 825.72 679.699 823.167 685.321 832.81 683.903 830.513 689.381 834.526 691.219 837.805 693.478 832.322 700.795 841.071 699.893 840.956 704.108 843.164 706.983 838.99 713.544 847.192 712.963 847.461 716.962 847.723 720.963 848.432 724.705 849.158 728.437 857.805 727.597 854.746 733.518 858.14 735.714 859.842 738.884 864.497 740.348 864.538 744.479 867.028 747.198 863.941 753.135 869.428 754.12 870.852 757.453 874.776 759.344 869.526 766.529 876.327 766.758 875.601 771.335 882.34 771.598 878.943 777.717 884.522 778.652 880.986 784.85 881.998 788.419 887.609 789.33 891.833 791.044 891.786 795.228 890.229 800.281 893.67 802.451 892.849 807.081 895.629 809.635 899.245 811.704 905.754 812.105 906.343 815.926 905.887 820.35 904.337 825.4 905.826 828.702 914.151 828.056 913.83 832.404 917.551 834.424 918.978 840.218 913.255 838.905 909.664 839.985 906.072 842.929 902.48 836.472 898.887 835.114 895.295 837.59 891.702 837.396 888.108 840.278 884.515 841.931 880.922 843.227 877.329 836.861 873.737 843.849 870.144 839.39 866.552 834.058 862.96 843.146 859.369 836.035 855.777 840.532 852.185 841.487 848.594 838.34 845.002 836.1 841.411 842.668 837.819 836.01 834.227 843.34 830.635 836.6 827.043 834.837 823.45 836.938 819.857 836.489 816.264 836.891 812.67 835.519 809.077 839.79 805.484 838.876 801.891 842.607 798.299 839.659 794.706 839.172 791.119 837.858 787.532 841.407 783.945 839.077 780.357 839.96 776.768 835.366 773.179 840.295 769.59 835.314 766 834.601 762.409 842.559 758.818 834.84 755.225 838.983 751.632 839.332 748.039 837.392 744.445 835.609 740.853 834.691 737.261 837.136 733.67 836.648 730.079 842.107 726.489 835.583 722.899 840.261 719.31 839.015 715.721 839.558 712.132 836.578 708.544 840.089 704.956 840.756 701.368 838.829 697.78 840.369 694.192 837.185 690.604 840.534 687.016 834.809 683.428 835.225 679.839 839.341 676.25 834.973 672.661 843.559 669.072 838.681 665.482 840.41 661.891 841.49 658.3 843.544 654.708 836.168 651.115 837.76 647.522 839.983 643.928 841.257 640.333 838.644 636.74 841.153 633.147 839.927 629.555 836.558 625.964 838.298 622.373 840.86 618.782 834.443 615.192 838.018 611.602 836.371 608.013 837.829 604.423 837.9 600.833 843.612 597.244 842.183 593.654 843.716 590.064 838.619 586.474 837.045 582.883 837.403 579.292 843.59 575.7 843.232 572.107 835.036 568.514 834.638 564.92 839.129 561.325 834.267 557.73 835.88 554.137 834.406 550.544 835.115 546.951 837.519 543.359 834.579 539.768 839.544 536.177 837.042 532.586 840.765 528.995 834.88 525.404 841.12 521.813 842.65 518.221 840.393 514.63 843.511 511.037 834.917 507.445 835.2 503.851 837.499 500.257 836.94 496.661 842.545 493.066 841.294 489.472 840.026 485.879 835.971 482.286 836.234 478.693 841.065 475.101 842.494 471.509 838.473 467.917 841.397 464.325 843.539 460.733 839.891 457.14 835.576 453.547 835.997 449.952 834.984 446.357 837.294 442.761 841.634 439.166 840.798 435.572 843.063 431.978 841.766 428.385 843.267 424.792 839.556 421.2 834.598 417.607 838.101 414.014 837.801 410.42 843.218 406.826 839.763 403.23 834.992 399.634 836.412 396.039 837.18 392.444 840.51 388.85 843.153 385.257 842.295 381.663 835.679 378.07 836.049 374.476 841.988 370.881 839.157 367.285 842.377 363.689 843.194 360.093 836.356 356.499 840.362 352.905 841.193 349.311 834.379 345.716 839.997 342.122 834.028 338.526 836.461 334.93 841.166 331.334 837.173 327.739 834.397 324.144 836.459 320.55 836.052 316.955 839.106 313.359 834.785 309.763 839.38 306.167 840.392 302.571 836.75 298.976 842.424 295.381 835.811 291.786 841.244 288.189 836.492 284.593 840.518 280.997 836.778 277.402 834.956 273.812 840.303 270.221 837.814 266.631 841.411 263.04 840.299 259.447 836.941 255.853 841.004 252.255 843.318 248.66 838.971 245.066 835.747 241.473 840.273 237.881 839.693 234.288 836.268 230.694 839.598 227.097 843.306 223.5 842.256 219.905 839.747 216.311 838.585 212.717 838.06 209.122 834.061 205.524 838.694 201.926 840.977 198.331 839.623 194.736 841.256 191.139 842.199 187.54 843.033 183.943 841.467 180.347 843.834 176.75 838.658 173.151 834.22 169.554 836.398 165.956 834.464 162.357 834.518 158.76 839.41 155.16 837.544 151.562 839.44 147.963 835.064 144.364 834.606 140.765 834.66 137.17 840.828 133.571 835.08 129.975 837.767 126.376 836.08 122.779 843.863 119.178 842.177 115.58 841.302 111.979 841.633 108.378 838.664 104.776 840.613 101.174 837.77 97.573 836.822 93.972 840.333 90.369 838.414 86.761 835.38 79.19 841.309 87.128 837.148 89.683 834.475 92.15 831.752 91.238 827.078 94.486 824.805 96.195 821.645 99.995 819.691 96.713 813.647 98.402 810.473 97.661 805.897 99.879 803.029 107.44 803.248 102.579 796.295 112.477 797.864 108.131 791.21 112.246 789.442 116.504 787.756 118.06 784.511 115.465 778.87 121.687 778.32 124.554 775.833 123.611 771.146 128.528 769.843 123.162 762.604 127.132 760.754 127.691 756.936 128.554 753.293 136.7 753.855 137.74 750.314 140.072 747.519 140.626 743.698 141.63 740.136 145.469 738.211 148.482 735.809 143.715 728.914 151.009 728.982 151.962 725.389 149.085 719.585 153.58 718.036 152.061 713.014 153.753 709.845 155.955 706.97 156.719 703.265 163.518 703.042 161.745 697.87 169.806 698.375 166.849 692.517 171.427 691.01 172.012 687.199 177.156 686.021 177.361 681.991 176.974 677.621 179.683 675.039 177.477 669.62 185.965 670.375 187.216 666.953 184.785 661.405 188.294 659.287 186.238 653.956 191.696 652.963 195.128 650.801 191.103 644.334 198.309 644.35 198.317 640.211 201.104 637.676 201.917 634.002 207.453 633.053 206.954 628.62 205.476 623.621 212.83 623.721 212.75 619.528 211.468 614.641 213.71 611.787 214.352 608.008 219.909 607.067 221.181 603.65 224.618 601.483 226.794 598.59 224.53 593.134 227.938 590.953 230.797 588.456 230.002 583.85 236.418 583.407 231.083 576.181 234.022 573.732 240.193 573.149 235.363 566.215 237.78 563.465 241.725 561.597 241.282 557.196 247.513 556.646 247.074 552.247 249.732 549.635 254.085 548 250.897 542.012 256.403 541.042 255.35 536.284 259.499 534.529 263.821 532.872 264.303 528.999 262.667 523.904 267.67 522.643 264.011 516.382 273.353 517.627 272.195 512.811 275.239 510.421 274.958 506.112 275.819 502.461 277.358 499.203 281.452 497.419 284.641 495.113 286.614 492.105 285.9 487.543 287.039 484.052 289.726 481.453 293.431 479.441 293.449 475.299 290.789 469.612 295.039 467.915 301.302 467.381 296.637 460.538 303.009 460.068 301.573 455.09 306.79 453.954 307.645 450.299 312.857 449.16 312.039 444.539 309.79 439.091 318.992 440.254 315.303 433.974 317.893 431.317 319.337 427.998 318.978 423.639 326.038 423.564 322.815 417.553 331.525 418.432 332.605 414.906 334.241 411.702 332.019 406.269 331.238 401.669 337.285 401.01 338.052 397.301 336.346 392.164 339.063 389.58 339.864 385.89 343.307 383.727 350.364 383.651 347.193 377.67 351.663 376.1 349.148 370.498 351.628 367.779 356.304 366.328 357.649 362.952 357.051 358.453 362.216 357.283 365.839 355.223 362.755 349.291 366.121 347.084 372.365 346.538 373.743 343.183 368.98 336.281 373.966 335.006 373.404 330.529 376.749 328.308 383.675 328.155 380.634 322.248 381.633 318.673 383.878 315.817 390.506 315.49 388.896 310.408 391.239 307.608 390.974 303.309 392.205 299.872 398.41 299.305 397.735 294.762 398.238 290.899 404.667 290.461 404.363 286.137 404.037 281.802 409.886 281.032 407.484 275.499 406.729 270.915 412.058 269.842 411.346 265.28 416.381 264.032 414.858 259 415.897 255.449 418.937 253.055 422.74 251.102 427.449 249.671 425.458 244.369 424.264 239.526 426.35 236.576 433.322 236.449 432.695 231.936 432.258 227.532 436.487 225.822 439.004 223.119 444.537 222.159 440.986 215.956 442.234 212.524 447.252 211.268 451.373 209.489 449.602 204.313 452.37 201.758 453.239 198.104 455.237 195.102 455.179 190.914 458.474 188.661 460.362 185.594 461.112 181.872 464.152 179.47 464.915 175.755 469.915 174.485 468.955 169.777 470.43 166.478 473.967 164.368 472.503 159.365 473.754 155.934 477.915 154.179 483.174 153.06 482.077 148.267 485.287 145.963 484.803 141.525 487.059 138.667 493.197 138.05 488.196 131.007 490.079 127.934 497.034 127.788 497.705 124.013 501.502 121.691 499.994 115.635" style="fill: #fff;"/>
  <polygon points="499.994 115.635 503.293 119.246 502.464 123.872 504.27 126.977 506.437 129.874 512.095 130.755 510.856 135.617 511.684 139.287 517.4 140.136 519.181 143.257 517.512 148.369 519.217 151.532 523.884 152.984 522.517 157.92 525.363 160.423 528.684 162.65 532.928 164.344 528.149 171.247 533.002 172.589 531.697 177.485 532.404 181.219 535.576 183.531 538.994 185.699 545.443 186.118 538.8 194.094 545.247 194.514 543.349 199.75 548.409 200.97 547.591 205.583 548.43 209.24 557.281 208.271 555.575 213.398 555.35 217.669 559.248 219.561 558.707 224.015 565.951 223.975 567.254 227.365 562.486 234.261 569.158 234.553 570.005 238.208 568.625 243.149 575.57 243.285 573.051 248.886 575.043 251.882 581.997 252.015 577.065 259.012 584.883 258.647 584.932 262.769 589.155 264.481 586.67 270.064 593.978 269.993 587.478 277.894 595.541 277.385 597.137 280.61 597.075 284.792 598.475 288.128 599.167 291.874 599.783 295.662 604.282 297.209 607.851 299.292 611.481 301.34 611.837 305.279 612.157 309.237 615.482 311.461 613.573 316.707 618.209 318.175 619.966 321.304 619.452 325.746 621.201 328.881 621.747 332.711 622.287 336.546 631.746 335.231 629.392 340.738 627.939 345.725 636.673 344.831 636.097 349.313 636.089 353.47 636.874 357.167 638.912 360.14 640.917 363.132 645.514 364.626 641.641 371.009 646.469 372.369 646.789 376.331 651.532 377.739 654.04 380.437 658.129 382.222 655.471 387.902 657.567 390.838 661.467 392.732 664.398 395.185 661.095 401.238 664.043 403.683 665.769 406.833 670.52 408.237 672.584 411.194 671.282 416.095 673.329 419.062 678.234 420.381 682.027 422.343 680.785 427.211 683.195 429.97 680.665 435.581 688.611 435.142 690.848 437.998 689.786 442.76 694.464 444.206 692.882 449.266 695.458 451.926 695.028 456.322 701.704 456.614 701.652 460.792 699.705 466.064 703.106 468.249 707.483 469.871 710.226 472.438 708.681 477.481 710.017 480.861 707.821 486.281 710.989 488.603 711.797 492.286 713.102 495.683 721.854 494.778 721.005 499.417 723.412 502.176 726.762 504.39 726.228 508.846 730.438 510.564 728.501 515.832 734.262 516.656 732.257 521.964 737.627 523.016 732.787 529.963 734.986 532.846 739.814 534.209 746.633 534.422 740.076 542.357 747.814 542.039 747.938 546.117 745.93 551.425 752.379 551.852 756.824 553.436 755.343 558.442 760.548 559.589 762.725 562.486 763.006 566.475 766.177 568.796 762.435 575.107 766.914 576.671 763.661 582.699 768.883 583.834 773.909 585.083 772.895 589.82 771.296 594.895 772.884 598.132 775.789 600.607 781.983 601.183 780.201 606.362 784.213 608.197 789.606 609.234 789.847 613.246 792.527 615.851 787.557 622.874 788.892 626.256 790.258 629.62 794.797 631.15 797.715 633.617 800.233 636.314 803.425 638.624 805.258 641.719 805.396 645.792 805.797 649.713 808.058 652.553 813.743 653.419 810.309 659.552 816.672 660.031 815.495 664.864 821.094 665.781 818.437 671.463 824.023 672.385 826.397 675.161 825.72 679.699 823.167 685.321 832.81 683.903 830.513 689.381 834.526 691.219 837.805 693.478 832.322 700.795 841.071 699.893 840.956 704.108 843.164 706.983 838.99 713.544 847.192 712.963 847.461 716.962 847.723 720.963 848.432 724.705 849.158 728.437 857.805 727.597 854.746 733.518 858.14 735.714 859.842 738.884 864.497 740.348 864.538 744.479 867.028 747.198 863.941 753.135 869.428 754.12 870.852 757.453 874.776 759.344 869.526 766.529 876.327 766.758 875.601 771.335 882.34 771.598 878.943 777.717 884.522 778.652 880.986 784.85 881.998 788.419 887.609 789.33 891.833 791.044 891.786 795.228 890.229 800.281 893.67 802.451 892.849 807.081 895.629 809.635 899.245 811.704 905.754 812.105 906.343 815.926 905.887 820.35 904.337 825.4 905.826 828.702 914.151 828.056 913.83 832.404 917.551 834.424 918.978 840.218 913.255 838.905 909.664 839.985 906.072 842.929 902.48 836.472 898.887 835.114 895.295 837.59 891.702 837.396 888.108 840.278 884.515 841.931 880.922 843.227 877.329 836.861 873.737 843.849 870.144 839.39 866.552 834.058 862.96 843.146 859.369 836.035 855.777 840.532 852.185 841.487 848.594 838.34 845.002 836.1 841.411 842.668 837.819 836.01 834.227 843.34 830.635 836.6 827.043 834.837 823.45 836.938 819.857 836.489 816.264 836.891 812.67 835.519 809.077 839.79 805.484 838.876 801.891 842.607 798.299 839.659 794.706 839.172 791.119 837.858 787.532 841.407 783.945 839.077 780.357 839.96 776.768 835.366 773.179 840.295 769.59 835.314 766 834.601 762.409 842.559 758.818 834.84 755.225 838.983 751.632 839.332 748.039 837.392 744.445 835.609 740.853 834.691 737.261 837.136 733.67 836.648 730.079 842.107 726.489 835.583 722.899 840.261 719.31 839.015 715.721 839.558 712.132 836.578 708.544 840.089 704.956 840.756 701.368 838.829 697.78 840.369 694.192 837.185 690.604 840.534 687.016 834.809 683.428 835.225 679.839 839.341 676.25 834.973 672.661 843.559 669.072 838.681 665.482 840.41 661.891 841.49 658.3 843.544 654.708 836.168 651.115 837.76 647.522 839.983 643.928 841.257 640.333 838.644 636.74 841.153 633.147 839.927 629.555 836.558 625.964 838.298 622.373 840.86 618.782 834.443 615.192 838.018 611.602 836.371 608.013 837.829 604.423 837.9 600.833 843.612 597.244 842.183 593.654 843.716 590.064 838.619 586.474 837.045 582.883 837.403 579.292 843.59 575.7 843.232 572.107 835.036 568.514 834.638 564.92 839.129 561.325 834.267 557.73 835.88 554.137 834.406 550.544 835.115 546.951 837.519 543.359 834.579 539.768 839.544 536.177 837.042 532.586 840.765 528.995 834.88 525.404 841.12 521.813 842.65 518.221 840.393 514.63 843.511 511.037 834.917 507.445 835.2 503.851 837.499 500.257 836.94 496.661 842.545 493.066 841.294 489.472 840.026 485.879 835.971 482.286 836.234 478.693 841.065 475.101 842.494 471.509 838.473 467.917 841.397 464.325 843.539 460.733 839.891 457.14 835.576 453.547 835.997 449.952 834.984 446.357 837.294 442.761 841.634 439.166 840.798 435.572 843.063 431.978 841.766 428.385 843.267 424.792 839.556 421.2 834.598 417.607 838.101 414.014 837.801 410.42 843.218 406.826 839.763 403.23 834.992 399.634 836.412 396.039 837.18 392.444 840.51 388.85 843.153 385.257 842.295 381.663 835.679 378.07 836.049 374.476 841.988 370.881 839.157 367.285 842.377 363.689 843.194 360.093 836.356 356.499 840.362 352.905 841.193 349.311 834.379 345.716 839.997 342.122 834.028 338.526 836.461 334.93 841.166 331.334 837.173 327.739 834.397 324.144 836.459 320.55 836.052 316.955 839.106 313.359 834.785 309.763 839.38 306.167 840.392 302.571 836.75 298.976 842.424 295.381 835.811 291.786 841.244 288.189 836.492 284.593 840.518 280.997 836.778 277.402 834.956 273.812 840.303 270.221 837.814 266.631 841.411 263.04 840.299 259.447 836.941 255.853 841.004 252.255 843.318 248.66 838.971 245.066 835.747 241.473 840.273 237.881 839.693 234.288 836.268 230.694 839.598 227.097 843.306 223.5 842.256 219.905 839.747 216.311 838.585 212.717 838.06 209.122 834.061 205.524 838.694 201.926 840.977 198.331 839.623 194.736 841.256 191.139 842.199 187.54 843.033 183.943 841.467 180.347 843.834 176.75 838.658 173.151 834.22 169.554 836.398 165.956 834.464 162.357 834.518 158.76 839.41 155.16 837.544 151.562 839.44 147.963 835.064 144.364 834.606 140.765 834.66 137.17 840.828 133.571 835.08 129.975 837.767 126.376 836.08 122.779 843.863 119.178 842.177 115.58 841.302 111.979 841.633 108.378 838.664 104.776 840.613 101.174 837.77 97.573 836.822 93.972 840.333 90.369 838.414 86.761 835.38 79.19 841.309 87.128 837.148 89.683 834.475 92.15 831.752 91.238 827.078 94.486 824.805 96.195 821.645 99.995 819.691 96.713 813.647 98.402 810.473 97.661 805.897 99.879 803.029 107.44 803.248 102.579 796.295 112.477 797.864 108.131 791.21 112.246 789.442 116.504 787.756 118.06 784.511 115.465 778.87 121.687 778.32 124.554 775.833 123.611 771.146 128.528 769.843 123.162 762.604 127.132 760.754 127.691 756.936 128.554 753.293 136.7 753.855 137.74 750.314 140.072 747.519 140.626 743.698 141.63 740.136 145.469 738.211 148.482 735.809 143.715 728.914 151.009 728.982 151.962 725.389 149.085 719.585 153.58 718.036 152.061 713.014 153.753 709.845 155.955 706.97 156.719 703.265 163.518 703.042 161.745 697.87 169.806 698.375 166.849 692.517 171.427 691.01 172.012 687.199 177.156 686.021 177.361 681.991 176.974 677.621 179.683 675.039 177.477 669.62 185.965 670.375 187.216 666.953 184.785 661.405 188.294 659.287 186.238 653.956 191.696 652.963 195.128 650.801 191.103 644.334 198.309 644.35 198.317 640.211 201.104 637.676 201.917 634.002 207.453 633.053 206.954 628.62 205.476 623.621 212.83 623.721 212.75 619.528 211.468 614.641 213.71 611.787 214.352 608.008 219.909 607.067 221.181 603.65 224.618 601.483 226.794 598.59 224.53 593.134 227.938 590.953 230.797 588.456 230.002 583.85 236.418 583.407 231.083 576.181 234.022 573.732 240.193 573.149 235.363 566.215 237.78 563.465 241.725 561.597 241.282 557.196 247.513 556.646 247.074 552.247 249.732 549.635 254.085 548 250.897 542.012 256.403 541.042 255.35 536.284 259.499 534.529 263.821 532.872 264.303 528.999 262.667 523.904 267.67 522.643 264.011 516.382 273.353 517.627 272.195 512.811 275.239 510.421 274.958 506.112 275.819 502.461 277.358 499.203 281.452 497.419 284.641 495.113 286.614 492.105 285.9 487.543 287.039 484.052 289.726 481.453 293.431 479.441 293.449 475.299 290.789 469.612 295.039 467.915 301.302 467.381 296.637 460.538 303.009 460.068 301.573 455.09 306.79 453.954 307.645 450.299 312.857 449.16 312.039 444.539 309.79 439.091 318.992 440.254 315.303 433.974 317.893 431.317 319.337 427.998 318.978 423.639 326.038 423.564 322.815 417.553 331.525 418.432 332.605 414.906 334.241 411.702 332.019 406.269 331.238 401.669 337.285 401.01 338.052 397.301 336.346 392.164 339.063 389.58 339.864 385.89 343.307 383.727 350.364 383.651 347.193 377.67 351.663 376.1 349.148 370.498 351.628 367.779 356.304 366.328 357.649 362.952 357.051 358.453 362.216 357.283 365.839 355.223 362.755 349.291 366.121 347.084 372.365 346.538 373.743 343.183 368.98 336.281 373.966 335.006 373.404 330.529 376.749 328.308 383.675 328.155 380.634 322.248 381.633 318.673 383.878 315.817 390.506 315.49 388.896 310.408 391.239 307.608 390.974 303.309 392.205 299.872 398.41 299.305 397.735 294.762 398.238 290.899 404.667 290.461 404.363 286.137 404.037 281.802 409.886 281.032 407.484 275.499 406.729 270.915 412.058 269.842 411.346 265.28 416.381 264.032 414.858 259 415.897 255.449 418.937 253.055 422.74 251.102 427.449 249.671 425.458 244.369 424.264 239.526 426.35 236.576 433.322 236.449 432.695 231.936 432.258 227.532 436.487 225.822 439.004 223.119 444.537 222.159 440.986 215.956 442.234 212.524 447.252 211.268 451.373 209.489 449.602 204.313 452.37 201.758 453.239 198.104 455.237 195.102 455.179 190.914 458.474 188.661 460.362 185.594 461.112 181.872 464.152 179.47 464.915 175.755 469.915 174.485 468.955 169.777 470.43 166.478 473.967 164.368 472.503 159.365 473.754 155.934 477.915 154.179 483.174 153.06 482.077 148.267 485.287 145.963 484.803 141.525 487.059 138.667 493.197 138.05 488.196 131.007 490.079 127.934 497.034 127.788 497.705 124.013 501.502 121.691 499.994 115.635" style="fill: none; stroke: #000; stroke-linecap: round; stroke-linejoin: round; stroke-width: 35px;"/>
</svg>