<?xml version="1.0" encoding="UTF-8"?>
<svg id="SM_Icons" data-name="SM Icons" xmlns="http://www.w3.org/2000/svg" width="1000" height="1000" viewBox="0 0 1000 1000">
  <polygon points="711.487 840.604 705.313 828.16 698.949 817.597 693.825 806.495 691.963 793.974 687.275 782.683 682.65 771.369 675.027 761.355 668.888 750.697 667.124 738.136 659.516 728.116 657.815 715.527 652.263 704.608 648.707 692.825 643.53 681.744 637.848 670.883 630.462 660.758 626.976 648.943 624.308 636.771 618.477 625.975 613.116 614.976 609.356 603.278 601.51 593.349 599.231 581.008 592.53 570.577 589.472 559.04 599.556 555.505 609.2 548.32 619.567 542.397 628.59 534.562 636.954 526.081 644.818 517.231 656.229 511.738 660.917 500.091 669.822 492.01 674.407 480.831 684.454 473.007 685.844 460.319 692.623 450.435 697.665 439.642 700.439 428.051 703.747 416.651 705.8 404.959 706.983 393.164 707.22 381.331 707.805 369.545 706.746 357.5 707.837 345.249 707.712 332.918 701.946 321.678 698.797 310.026 695.13 298.523 693.777 285.958 688.648 274.803 682.095 264.414 676.19 253.663 668.434 244.152 660.187 235.133 652.401 225.76 641.96 219.072 634.905 208.766 625.889 200.441 615.233 194.333 604.995 187.68 593.675 183.012 582.658 177.915 572.328 170.823 560.593 167.151 547.684 168.372 535.942 165.744 524.453 160.355 512.292 158.503 500 159.745 487.714 158.608 475.588 160.712 463.914 164.924 451.789 166.144 439.939 168.936 428.631 173.464 417.522 178.339 406.72 183.804 395.308 188.21 385.185 194.975 375.188 201.892 367.013 211.056 357.872 218.901 348.299 226.427 339.395 234.787 333.615 245.684 325.894 255.042 319.512 265.347 311.627 274.944 309.34 287.306 301.271 297.215 298.807 309.311 296.723 321.365 294.201 333.254 293.884 345.448 288.946 357.253 290.846 369.545 293.707 381.578 292.943 393.778 293.705 405.965 296.089 417.931 298.283 430.007 303.162 441.275 308.455 452.27 314.737 462.702 317.187 475.231 323.561 485.751 331.606 495.091 341.382 502.845 349.34 511.92 356.334 522.095 364.102 530.923 373.123 538.408 383.494 543.985 392.623 551.415 405.677 555.384 398.754 565.897 396.766 577.782 390.399 587.915 385.83 598.769 381.214 609.605 377.029 620.613 373.651 631.936 370.656 643.416 365.558 654.055 359.839 664.448 354.986 675.185 353.102 687.112 345.833 696.888 341.261 707.741 339.014 719.523 331.786 729.316 329.877 741.236 326.073 752.397 321.456 763.235 314.409 773.097 309.951 783.995 306.883 795.452 303.898 806.946 299.342 817.808 293.795 828.283 289.387 840.097 302.181 840.833 314.167 839.71 326.153 837.381 338.141 841.426 350.127 840.498 362.116 839.143 374.102 838.364 386.091 838.067 398.077 841.284 410.065 841.437 422.053 839.679 434.041 837.292 446.029 840.311 458.018 838.038 470.007 840.649 481.995 839.619 493.983 839.834 505.967 837.767 517.955 841.068 529.94 837.511 541.928 838.63 553.918 840.716 565.906 837.674 577.894 841.891 589.884 840.714 601.875 841.553 613.865 840.701 625.855 841.1 637.846 841.243 649.834 840.196 661.824 839.084 673.818 839.029 685.809 841.932 697.775 840.333 711.487 840.604" style="fill: #fff;"/>
  <polygon points="711.487 840.604 705.313 828.16 698.949 817.597 693.825 806.495 691.963 793.974 687.275 782.683 682.65 771.369 675.027 761.355 668.888 750.697 667.124 738.136 659.516 728.116 657.815 715.527 652.263 704.608 648.707 692.825 643.53 681.744 637.848 670.883 630.462 660.758 626.976 648.943 624.308 636.771 618.477 625.975 613.116 614.976 609.356 603.278 601.51 593.349 599.231 581.008 592.53 570.577 589.472 559.04 599.556 555.505 609.2 548.32 619.567 542.397 628.59 534.562 636.954 526.081 644.818 517.231 656.229 511.738 660.917 500.091 669.822 492.01 674.407 480.831 684.454 473.007 685.844 460.319 692.623 450.435 697.665 439.642 700.439 428.051 703.747 416.651 705.8 404.959 706.983 393.164 707.22 381.331 707.805 369.545 706.746 357.5 707.837 345.249 707.712 332.918 701.946 321.678 698.797 310.026 695.13 298.523 693.777 285.958 688.648 274.803 682.095 264.414 676.19 253.663 668.434 244.152 660.187 235.133 652.401 225.76 641.96 219.072 634.905 208.766 625.889 200.441 615.233 194.333 604.995 187.68 593.675 183.012 582.658 177.915 572.328 170.823 560.593 167.151 547.684 168.372 535.942 165.744 524.453 160.355 512.292 158.503 500 159.745 487.714 158.608 475.588 160.712 463.914 164.924 451.789 166.144 439.939 168.936 428.631 173.464 417.522 178.339 406.72 183.804 395.308 188.21 385.185 194.975 375.188 201.892 367.013 211.056 357.872 218.901 348.299 226.427 339.395 234.787 333.615 245.684 325.894 255.042 319.512 265.347 311.627 274.944 309.34 287.306 301.271 297.215 298.807 309.311 296.723 321.365 294.201 333.254 293.884 345.448 288.946 357.253 290.846 369.545 293.707 381.578 292.943 393.778 293.705 405.965 296.089 417.931 298.283 430.007 303.162 441.275 308.455 452.27 314.737 462.702 317.187 475.231 323.561 485.751 331.606 495.091 341.382 502.845 349.34 511.92 356.334 522.095 364.102 530.923 373.123 538.408 383.494 543.985 392.623 551.415 405.677 555.384 398.754 565.897 396.766 577.782 390.399 587.915 385.83 598.769 381.214 609.605 377.029 620.613 373.651 631.936 370.656 643.416 365.558 654.055 359.839 664.448 354.986 675.185 353.102 687.112 345.833 696.888 341.261 707.741 339.014 719.523 331.786 729.316 329.877 741.236 326.073 752.397 321.456 763.235 314.409 773.097 309.951 783.995 306.883 795.452 303.898 806.946 299.342 817.808 293.795 828.283 289.387 840.097 302.181 840.833 314.167 839.71 326.153 837.381 338.141 841.426 350.127 840.498 362.116 839.143 374.102 838.364 386.091 838.067 398.077 841.284 410.065 841.437 422.053 839.679 434.041 837.292 446.029 840.311 458.018 838.038 470.007 840.649 481.995 839.619 493.983 839.834 505.967 837.767 517.955 841.068 529.94 837.511 541.928 838.63 553.918 840.716 565.906 837.674 577.894 841.891 589.884 840.714 601.875 841.553 613.865 840.701 625.855 841.1 637.846 841.243 649.834 840.196 661.824 839.084 673.818 839.029 685.809 841.932 697.775 840.333 711.487 840.604" style="fill: none; stroke: #000; stroke-miterlimit: 10; stroke-width: 30px;"/>
</svg>