<?xml version="1.0" encoding="UTF-8"?>
<svg id="Sticker" xmlns="http://www.w3.org/2000/svg" width="1000" height="1000" viewBox="0 0 1000 1000">
  <g>
    <polygon points="843.453 500 848.626 503.651 842.392 507.176 846.049 510.878 847.838 514.581 848.283 518.255 842.833 521.577 846.771 525.47 838.413 528.432 839.947 532.148 838.186 535.561 845.198 539.948 843.282 543.376 837.825 546.293 838.504 550.001 841.079 554.033 839.162 557.378 835.689 560.417 833.081 563.558 841.179 568.803 836.068 571.447 840.118 576.034 837.169 579.093 831.956 581.551 834.493 585.894 828.395 588.007 835.464 593.672 831.851 596.422 832.392 600.364 828.485 602.951 829.574 607.094 821.833 608.318 824.942 613.166 825.357 617.144 826.947 621.599 825.29 624.876 823.463 628.076 816.578 629.199 813.099 631.619 814.297 636.013 811.515 638.699 808.539 641.262 814.107 647.815 811.893 650.782 805.104 651.456 805.027 655.422 807.634 660.834 799.512 660.597 804.365 667.333 803.878 671.235 793.691 669.561 799.424 677.086 795.181 678.772 793.754 682.14 791.267 684.848 790.783 688.843 788.241 691.513 781.475 691.29 783.599 697.112 779.518 698.646 781.195 704.308 772.95 702.711 774.366 708.261 768.777 708.488 769.935 713.955 767.883 716.935 768.02 721.736 762.067 721.471 760.492 724.86 759.878 729.124 756.034 730.545 751.755 731.51 753.511 738.075 745.707 735.636 748.438 743.301 745.534 745.547 741.319 746.441 735.418 745.507 736.327 751.678 735.468 756.084 730.479 755.989 726.776 757.245 725.072 760.766 721.622 762.274 716.721 761.994 718.701 770.09 712.688 768.368 709.761 770.445 706.924 772.636 702.739 773.016 703.462 780.062 701.097 782.99 697.564 784.279 691.194 781.363 690.21 786.314 685.162 785.156 685.338 792.068 681.2 792.271 676.735 791.855 676.362 798.233 672.557 798.9 669.126 800.174 666.599 803.063 662.563 803.203 660.196 806.448 658.291 810.678 651.617 805.459 648.912 808.063 645.977 810.238 644.923 816.551 639.458 813.246 634.741 811.388 634.884 820.885 630.423 819.602 626.743 820.127 623.691 822.234 618.649 819.046 615.836 821.751 613.88 827.024 609.372 824.993 606.914 829.049 602.017 825.532 598.934 827.679 594.799 826.287 592.949 832.901 587.758 827.492 585.958 834.772 581.265 830.823 578.168 833.242 575.917 839.623 571.812 837.824 567.869 836.553 564.947 840.436 560.115 834.031 556.873 836.186 553.152 835.507 550.139 839.483 546.693 840.809 542.747 838.286 539.306 839.624 536.142 843.811 532.115 839.621 528.977 845.021 525.449 846.507 521.557 842.53 517.975 842.87 514.355 842.346 510.761 842.258 507.242 845.589 503.644 847.843 500 844.051 496.367 846.819 492.84 841.639 489.258 841.63 485.737 840.109 482.14 840.61 478.258 845.482 474.921 841.368 471.402 840.421 467.269 846.195 464.423 838.343 459.953 846.061 457.081 839.623 452.804 844.48 450.009 838.435 445.851 841.813 441.965 843.073 438.967 839.135 436.049 835.155 432.132 836.519 427.772 839.757 424.362 838.337 421.659 833.948 417.458 836.008 414.849 831.591 411.889 828.782 406.332 835.448 404.474 828.761 401.871 824.979 397.092 828.35 393.774 826.901 389.52 828.26 386.798 825.048 382.474 826.417 378.901 825.603 375.496 824.321 373.706 818.966 371.172 815.669 365.791 819.253 361.952 818.993 360.126 814.15 357.948 810.261 355.492 807.093 350.687 808.861 349.061 804.064 344.378 805.42 340.976 804.179 338.784 800.665 333.765 802.372 329.052 803.37 328.085 797.76 327.029 792.48 321.342 794.992 317.926 793.647 316.877 788.554 314.433 785.749 307.369 789.921 309.081 780.93 303.699 782.435 301.223 779.702 300.508 774.577 292.827 778.947 294.686 770.49 291.967 768.193 285.837 770.197 286.411 763.756 281.325 764.324 281.07 759.063 272.983 762.989 270.058 760.805 271.27 754.02 267.416 752.922 264.247 751.039 261.396 748.802 260.742 744.31 255.092 744.895 257.636 737.326 254.177 735.721 252.802 732.119 247.759 731.932 246.743 728.017 241.838 727.585 236.702 727.259 237.715 721.632 235.117 719.114 230.631 718.116 228.066 715.518 227.262 711.542 228.395 706.14 225.977 703.488 221.559 702.282 219.866 699.064 218.416 695.688 219.23 690.79 211.248 691.833 213.81 685.835 208.855 684.751 206.646 681.873 207.284 677.258 202.512 675.921 199.801 673.308 204.345 666.574 196.031 667.098 199.288 661.225 193.377 660.288 191.344 657.259 192.466 652.65 194.289 647.773 192.588 644.645 188.519 642.598 182.999 641.133 187.504 635.221 182.663 633.391 184.963 628.558 181.128 626.246 181.965 622.078 181.646 618.392 173.21 617.65 177.428 612.33 177.058 608.682 168.264 607.786 170.488 603.263 169.253 599.859 165.586 597.156 167.188 592.925 165.99 589.5 164.985 586.02 162.856 582.813 165.822 578.387 159.603 576.089 166.736 570.847 165.492 567.459 157.511 565.336 162.938 560.657 161.885 557.197 161.964 553.55 162.333 549.874 155.226 547.231 161.453 542.78 162.241 539.093 157.891 535.965 152.802 532.822 159.672 528.589 155.331 525.316 156.38 521.625 152.528 518.213 158.929 514.303 155.856 510.819 157.027 507.188 156.339 503.601 154.168 500 159.956 496.437 160.72 492.888 154.756 489.147 153.203 485.462 152.903 481.806 152.682 478.145 159.794 475.005 155.326 471.049 157.395 467.604 162.516 464.512 163.235 461.017 155.363 456.454 155.863 452.851 156.727 449.3 161.267 446.335 165.214 443.356 164.869 439.683 162.368 435.579 161.151 431.664 160.939 427.92 166.129 425.356 168.265 422.177 161.356 416.812 165.202 414.028 170.558 411.713 171.743 408.336 170.283 404.197 166.243 399.224 171.491 397.042 176.245 394.795 176.434 391.099 170.864 385.374 172.639 382.134 180.101 381.023 182.572 378.144 182.485 374.281 185.746 371.751 180.323 365.612 188.34 365.129 186.175 360.271 190.011 358.073 189.679 353.97 185.983 348.19 191.902 347.055 195.384 344.788 198.28 342.264 195.317 336.625 198.504 334.248 202.748 332.506 199.837 326.694 207.835 327.216 206.611 322.315 205.576 317.443 209.85 315.862 214.294 314.46 217.083 312.031 217.957 308.323 218.086 304.061 217.952 299.553 222.923 298.689 221.988 293.522 226.913 292.711 227.752 288.816 229.236 285.387 235.775 286.03 235.748 281.385 239.64 279.972 240.096 275.648 239.377 270.219 245.074 270.454 246.906 267.257 250.018 265.24 249.224 259.502 254.336 259.416 256.2 256.187 258.791 253.671 265.323 255.266 265.196 249.944 266.744 246.32 271.508 246.216 274.487 244.187 275.392 239.77 278.335 237.676 278.971 232.805 285.843 235.515 287.601 231.996 290.279 229.606 293.232 227.569 296.39 225.813 298.911 223.2 303.015 222.786 303.685 217.516 307.02 216.014 307.798 210.693 311.073 209.058 317.257 212.013 318.675 207.528 322.027 206.105 324.643 203.463 329.634 204.886 331.841 201.538 334.318 198.601 336.419 194.903 339.409 192.799 343.056 191.961 347.683 193.136 348.429 186.447 352.139 185.765 358.41 190.717 359.966 185.463 363.824 185.299 366.312 181.958 368.304 177.282 375.029 184.346 375.983 176.919 378.941 174.476 382.2 172.794 388.098 178.657 391.581 177.839 392.188 168.185 398.286 175.435 399.495 167.109 404.166 170.144 406.729 165.944 410.803 167.122 413.985 165.005 418.675 168.935 420.766 162.196 425.973 168.867 428.823 165.176 432.594 165.759 435.497 161.905 439.476 163.682 443.059 163.413 445.643 156.825 449.675 159.246 452.672 154.509 457.434 163.163 460.462 158.349 464.31 160.538 467.771 159.16 470.818 152.505 474.919 158.578 478.331 155.668 482.022 157.076 485.427 152.367 489.336 160.879 492.744 153.726 496.346 151.117 500 151.929 503.554 160.86 507.207 156.081 510.861 154.516 514.273 159.644 518.223 152.355 521.811 153.401 525.33 155.163 528.932 155.55 532.762 153.471 535.841 159.12 539.799 156.102 543.709 154.058 546.776 158.611 550.715 156.618 554.548 155.648 557.194 161.939 561.614 157.612 564.536 161.76 567.509 165.274 571.895 161.815 574.419 167.139 577.663 168.951 581.128 169.771 586.199 164.318 589.145 167.349 591.556 172.132 596.917 166.442 599.489 170.51 601.624 175.752 604.799 177.495 608.797 176.743 612.094 178.134 616.852 175.455 618.323 181.858 621.51 183.473 626.015 181.738 628.609 184.866 633.676 182.012 634.804 188.493 638.153 189.71 641.242 191.505 647.362 186.854 651.117 187.415 652.411 192.976 656.084 193.676 660.22 193.538 662.394 197.142 664.366 201.021 670.175 198 670.962 203.887 673.206 207.123 677.36 207.147 680.583 208.752 686.964 205.406 687.172 211.785 689.793 214.342 696.164 211.367 698.199 214.84 698.787 220.284 701.593 222.536 707.292 220.893 707.308 226.888 712.975 225.447 716.532 226.818 714.363 235.289 719.546 234.624 720.841 238.678 724.598 239.811 724.895 244.916 728.582 246.144 733.009 246.617 736.551 248.112 738.129 251.694 739.286 255.662 744.612 255.402 746.196 258.921 746.055 264.056 747.313 267.774 752.821 267.534 755.877 269.623 756.495 273.886 757.876 277.425 762.044 278.573 762.744 282.658 768.916 282.251 771.612 284.737 769.075 291.303 777.728 289.206 777.427 293.98 775.05 300.185 781.732 299.798 779.108 306.036 787.491 304.634 790.199 307.204 792.265 310.212 793.298 313.88 788.363 321.228 796.509 320.44 800.384 322.363 800.443 326.55 797.756 332.239 800.14 335.011 804.937 336.505 807.472 339.267 804.205 345.013 808 347.119 813.349 348.528 812.08 353.155 811.545 357.372 810.189 361.905 813.578 364.31 818.817 365.986 815.967 371.062 817.975 374.109 817.029 378.308 822.039 380.237 822.218 383.996 825.285 386.725 826.515 390.116 823.082 395.023 826.815 397.581 825.975 401.58 827.367 404.888 828.06 408.4 836.201 409.915 837.935 413.233 830.845 418.73 838.896 420.511 834.39 425.248 833.688 429.063 837.899 431.861 837.636 435.584 838.119 439.154 840.316 442.433 842.293 445.781 838.555 449.996 835.88 453.976 839.605 457.088 837.95 460.885 842.418 464.003 837.776 468.057 839.866 471.45 847.036 474.513 843.481 478.384 840.239 482.16 844.443 485.558 840.41 489.296 841.968 492.833 847.031 496.365 843.453 500" style="fill: #fff;"/>
    <polygon points="843.453 500 848.626 503.651 842.392 507.176 846.049 510.878 847.838 514.581 848.283 518.255 842.833 521.577 846.771 525.47 838.413 528.432 839.947 532.148 838.186 535.561 845.198 539.948 843.282 543.376 837.825 546.293 838.504 550.001 841.079 554.033 839.162 557.378 835.689 560.417 833.081 563.558 841.179 568.803 836.068 571.447 840.118 576.034 837.169 579.093 831.956 581.551 834.493 585.894 828.395 588.007 835.464 593.672 831.851 596.422 832.392 600.364 828.485 602.951 829.574 607.094 821.833 608.318 824.942 613.166 825.357 617.144 826.947 621.599 825.29 624.876 823.463 628.076 816.578 629.199 813.099 631.619 814.297 636.013 811.515 638.699 808.539 641.262 814.107 647.815 811.893 650.782 805.104 651.456 805.027 655.422 807.634 660.834 799.512 660.597 804.365 667.333 803.878 671.235 793.691 669.561 799.424 677.086 795.181 678.772 793.754 682.14 791.267 684.848 790.783 688.843 788.241 691.513 781.475 691.29 783.599 697.112 779.518 698.646 781.195 704.308 772.95 702.711 774.366 708.261 768.777 708.488 769.935 713.955 767.883 716.935 768.02 721.736 762.067 721.471 760.492 724.86 759.878 729.124 756.034 730.545 751.755 731.51 753.511 738.075 745.707 735.636 748.438 743.301 745.534 745.547 741.319 746.441 735.418 745.507 736.327 751.678 735.468 756.084 730.479 755.989 726.776 757.245 725.072 760.766 721.622 762.274 716.721 761.994 718.701 770.09 712.688 768.368 709.761 770.445 706.924 772.636 702.739 773.016 703.462 780.062 701.097 782.99 697.564 784.279 691.194 781.363 690.21 786.314 685.162 785.156 685.338 792.068 681.2 792.271 676.735 791.855 676.362 798.233 672.557 798.9 669.126 800.174 666.599 803.063 662.563 803.203 660.196 806.448 658.291 810.678 651.617 805.459 648.912 808.063 645.977 810.238 644.923 816.551 639.458 813.246 634.741 811.388 634.884 820.885 630.423 819.602 626.743 820.127 623.691 822.234 618.649 819.046 615.836 821.751 613.88 827.024 609.372 824.993 606.914 829.049 602.017 825.532 598.934 827.679 594.799 826.287 592.949 832.901 587.758 827.492 585.958 834.772 581.265 830.823 578.168 833.242 575.917 839.623 571.812 837.824 567.869 836.553 564.947 840.436 560.115 834.031 556.873 836.186 553.152 835.507 550.139 839.483 546.693 840.809 542.747 838.286 539.306 839.624 536.142 843.811 532.115 839.621 528.977 845.021 525.449 846.507 521.557 842.53 517.975 842.87 514.355 842.346 510.761 842.258 507.242 845.589 503.644 847.843 500 844.051 496.367 846.819 492.84 841.639 489.258 841.63 485.737 840.109 482.14 840.61 478.258 845.482 474.921 841.368 471.402 840.421 467.269 846.195 464.423 838.343 459.953 846.061 457.081 839.623 452.804 844.48 450.009 838.435 445.851 841.813 441.965 843.073 438.967 839.135 436.049 835.155 432.132 836.519 427.772 839.757 424.362 838.337 421.659 833.948 417.458 836.008 414.849 831.591 411.889 828.782 406.332 835.448 404.474 828.761 401.871 824.979 397.092 828.35 393.774 826.901 389.52 828.26 386.798 825.048 382.474 826.417 378.901 825.603 375.496 824.321 373.706 818.966 371.172 815.669 365.791 819.253 361.952 818.993 360.126 814.15 357.948 810.261 355.492 807.093 350.687 808.861 349.061 804.064 344.378 805.42 340.976 804.179 338.784 800.665 333.765 802.372 329.052 803.37 328.085 797.76 327.029 792.48 321.342 794.992 317.926 793.647 316.877 788.554 314.433 785.749 307.369 789.921 309.081 780.93 303.699 782.435 301.223 779.702 300.508 774.577 292.827 778.947 294.686 770.49 291.967 768.193 285.837 770.197 286.411 763.756 281.325 764.324 281.07 759.063 272.983 762.989 270.058 760.805 271.27 754.02 267.416 752.922 264.247 751.039 261.396 748.802 260.742 744.31 255.092 744.895 257.636 737.326 254.177 735.721 252.802 732.119 247.759 731.932 246.743 728.017 241.838 727.585 236.702 727.259 237.715 721.632 235.117 719.114 230.631 718.116 228.066 715.518 227.262 711.542 228.395 706.14 225.977 703.488 221.559 702.282 219.866 699.064 218.416 695.688 219.23 690.79 211.248 691.833 213.81 685.835 208.855 684.751 206.646 681.873 207.284 677.258 202.512 675.921 199.801 673.308 204.345 666.574 196.031 667.098 199.288 661.225 193.377 660.288 191.344 657.259 192.466 652.65 194.289 647.773 192.588 644.645 188.519 642.598 182.999 641.133 187.504 635.221 182.663 633.391 184.963 628.558 181.128 626.246 181.965 622.078 181.646 618.392 173.21 617.65 177.428 612.33 177.058 608.682 168.264 607.786 170.488 603.263 169.253 599.859 165.586 597.156 167.188 592.925 165.99 589.5 164.985 586.02 162.856 582.813 165.822 578.387 159.603 576.089 166.736 570.847 165.492 567.459 157.511 565.336 162.938 560.657 161.885 557.197 161.964 553.55 162.333 549.874 155.226 547.231 161.453 542.78 162.241 539.093 157.891 535.965 152.802 532.822 159.672 528.589 155.331 525.316 156.38 521.625 152.528 518.213 158.929 514.303 155.856 510.819 157.027 507.188 156.339 503.601 154.168 500 159.956 496.437 160.72 492.888 154.756 489.147 153.203 485.462 152.903 481.806 152.682 478.145 159.794 475.005 155.326 471.049 157.395 467.604 162.516 464.512 163.235 461.017 155.363 456.454 155.863 452.851 156.727 449.3 161.267 446.335 165.214 443.356 164.869 439.683 162.368 435.579 161.151 431.664 160.939 427.92 166.129 425.356 168.265 422.177 161.356 416.812 165.202 414.028 170.558 411.713 171.743 408.336 170.283 404.197 166.243 399.224 171.491 397.042 176.245 394.795 176.434 391.099 170.864 385.374 172.639 382.134 180.101 381.023 182.572 378.144 182.485 374.281 185.746 371.751 180.323 365.612 188.34 365.129 186.175 360.271 190.011 358.073 189.679 353.97 185.983 348.19 191.902 347.055 195.384 344.788 198.28 342.264 195.317 336.625 198.504 334.248 202.748 332.506 199.837 326.694 207.835 327.216 206.611 322.315 205.576 317.443 209.85 315.862 214.294 314.46 217.083 312.031 217.957 308.323 218.086 304.061 217.952 299.553 222.923 298.689 221.988 293.522 226.913 292.711 227.752 288.816 229.236 285.387 235.775 286.03 235.748 281.385 239.64 279.972 240.096 275.648 239.377 270.219 245.074 270.454 246.906 267.257 250.018 265.24 249.224 259.502 254.336 259.416 256.2 256.187 258.791 253.671 265.323 255.266 265.196 249.944 266.744 246.32 271.508 246.216 274.487 244.187 275.392 239.77 278.335 237.676 278.971 232.805 285.843 235.515 287.601 231.996 290.279 229.606 293.232 227.569 296.39 225.813 298.911 223.2 303.015 222.786 303.685 217.516 307.02 216.014 307.798 210.693 311.073 209.058 317.257 212.013 318.675 207.528 322.027 206.105 324.643 203.463 329.634 204.886 331.841 201.538 334.318 198.601 336.419 194.903 339.409 192.799 343.056 191.961 347.683 193.136 348.429 186.447 352.139 185.765 358.41 190.717 359.966 185.463 363.824 185.299 366.312 181.958 368.304 177.282 375.029 184.346 375.983 176.919 378.941 174.476 382.2 172.794 388.098 178.657 391.581 177.839 392.188 168.185 398.286 175.435 399.495 167.109 404.166 170.144 406.729 165.944 410.803 167.122 413.985 165.005 418.675 168.935 420.766 162.196 425.973 168.867 428.823 165.176 432.594 165.759 435.497 161.905 439.476 163.682 443.059 163.413 445.643 156.825 449.675 159.246 452.672 154.509 457.434 163.163 460.462 158.349 464.31 160.538 467.771 159.16 470.818 152.505 474.919 158.578 478.331 155.668 482.022 157.076 485.427 152.367 489.336 160.879 492.744 153.726 496.346 151.117 500 151.929 503.554 160.86 507.207 156.081 510.861 154.516 514.273 159.644 518.223 152.355 521.811 153.401 525.33 155.163 528.932 155.55 532.762 153.471 535.841 159.12 539.799 156.102 543.709 154.058 546.776 158.611 550.715 156.618 554.548 155.648 557.194 161.939 561.614 157.612 564.536 161.76 567.509 165.274 571.895 161.815 574.419 167.139 577.663 168.951 581.128 169.771 586.199 164.318 589.145 167.349 591.556 172.132 596.917 166.442 599.489 170.51 601.624 175.752 604.799 177.495 608.797 176.743 612.094 178.134 616.852 175.455 618.323 181.858 621.51 183.473 626.015 181.738 628.609 184.866 633.676 182.012 634.804 188.493 638.153 189.71 641.242 191.505 647.362 186.854 651.117 187.415 652.411 192.976 656.084 193.676 660.22 193.538 662.394 197.142 664.366 201.021 670.175 198 670.962 203.887 673.206 207.123 677.36 207.147 680.583 208.752 686.964 205.406 687.172 211.785 689.793 214.342 696.164 211.367 698.199 214.84 698.787 220.284 701.593 222.536 707.292 220.893 707.308 226.888 712.975 225.447 716.532 226.818 714.363 235.289 719.546 234.624 720.841 238.678 724.598 239.811 724.895 244.916 728.582 246.144 733.009 246.617 736.551 248.112 738.129 251.694 739.286 255.662 744.612 255.402 746.196 258.921 746.055 264.056 747.313 267.774 752.821 267.534 755.877 269.623 756.495 273.886 757.876 277.425 762.044 278.573 762.744 282.658 768.916 282.251 771.612 284.737 769.075 291.303 777.728 289.206 777.427 293.98 775.05 300.185 781.732 299.798 779.108 306.036 787.491 304.634 790.199 307.204 792.265 310.212 793.298 313.88 788.363 321.228 796.509 320.44 800.384 322.363 800.443 326.55 797.756 332.239 800.14 335.011 804.937 336.505 807.472 339.267 804.205 345.013 808 347.119 813.349 348.528 812.08 353.155 811.545 357.372 810.189 361.905 813.578 364.31 818.817 365.986 815.967 371.062 817.975 374.109 817.029 378.308 822.039 380.237 822.218 383.996 825.285 386.725 826.515 390.116 823.082 395.023 826.815 397.581 825.975 401.58 827.367 404.888 828.06 408.4 836.201 409.915 837.935 413.233 830.845 418.73 838.896 420.511 834.39 425.248 833.688 429.063 837.899 431.861 837.636 435.584 838.119 439.154 840.316 442.433 842.293 445.781 838.555 449.996 835.88 453.976 839.605 457.088 837.95 460.885 842.418 464.003 837.776 468.057 839.866 471.45 847.036 474.513 843.481 478.384 840.239 482.16 844.443 485.558 840.41 489.296 841.968 492.833 847.031 496.365 843.453 500" style="fill: none; stroke: #000; stroke-linecap: round; stroke-linejoin: round; stroke-width: 35px;"/>
  </g>
  <g>
    <polygon points="694.19 500 699.348 503.684 693.073 507.143 696.655 510.916 698.34 514.689 698.651 518.408 693.059 521.502 696.789 525.602 688.27 528.052 689.553 531.832 687.543 535.071 694.162 540.027 691.934 543.282 686.214 545.628 686.493 549.365 688.582 553.664 686.263 556.745 682.422 559.281 679.41 561.989 686.641 568.373 681.174 570.194 684.409 575.396 680.968 577.922 675.399 579.394 677.075 584.131 670.687 584.992 676.452 591.978 672.33 593.916 671.984 597.894 667.586 599.532 667.666 603.821 659.867 603.119 661.674 608.572 661.046 612.525 661.382 617.26 658.873 619.985 656.203 622.565 649.285 621.656 645.266 622.916 645.092 627.445 641.628 629.117 638.014 630.573 641.15 638.575 638.063 640.647 631.456 638.964 630.022 642.638 630.534 648.624 623.058 645.452 625.08 653.501 623.135 656.948 614.38 651.482 616.711 660.647 612.135 660.508 609.457 663.009 606.067 664.448 603.937 667.875 600.483 669.205 594.499 666.053 593.838 672.207 589.506 671.74 588.403 677.544 581.848 672.298 580.497 677.852 575.499 675.368 573.87 680.702 570.615 682.284 568.319 686.515 563.315 683.269 560.228 685.363 557.475 688.684 553.452 687.862 549.33 686.384 547.243 692.854 542.063 686.53 540.075 694.419 536.387 694.646 532.4 692.984 528.13 688.818 525.287 694.362 521.98 697.417 518.016 694.37 514.309 693.144 510.82 694.902 507.176 693.971 503.528 690.708 500 698.257 496.429 693.119 492.865 692.848 489.301 692.695 485.901 690.262 481.83 696.052 478.1 696.675 474.593 695.27 471.867 688.821 467.797 691.783 464.941 687.48 460.295 692.591 457.187 689.847 454.323 686.413 449.539 690.643 446.392 688.383 443.094 686.792 439.253 686.938 436.398 684.078 432.404 684.521 427.964 685.927 427.444 677.47 423.725 677.15 420.178 676.344 414.665 679.605 413.711 673.285 412.192 668.469 404.882 674.529 403.109 670.225 400.435 667.641 396.906 666.494 396.436 660.556 392.61 659.917 387.199 661.44 386.226 656.592 381.496 656.916 381.607 650.893 378.115 649.566 376.993 645.373 370.463 647.471 372.198 640.186 365.101 642.584 365.972 636.519 362.307 635.162 355.677 636.527 355.121 632.066 354.237 628.02 349.413 627.407 352.642 620.068 349.212 618.295 348.06 614.726 343.151 613.947 340.387 611.508 340.851 606.859 338.129 604.401 332.979 603.407 335.017 597.97 328.799 597.436 325.964 594.837 327.987 589.649 326.236 586.517 325.289 582.996 323.981 579.666 319.563 577.684 316.122 575.17 318.317 570.383 314.43 567.973 318.05 562.859 316.841 559.513 317.107 555.713 315.469 552.506 309.616 550.386 312.491 545.938 312.333 542.319 305.596 540.072 312.301 535.096 303.643 532.963 309.057 528.444 303.243 525.596 308.37 521.343 304.066 518.159 301.904 514.671 305.034 510.823 308.253 507.095 306.068 503.586 301.985 500 302.682 496.353 306.457 492.84 303.643 489.101 307.516 485.739 309.769 482.362 302.275 477.984 308.587 475.09 311.934 471.978 307.916 467.746 308.906 464.269 307.024 460.216 309.894 457.128 308.059 452.973 308.51 449.315 309.472 445.783 314.655 443.534 317.739 440.771 313.786 435.66 313.815 431.794 318.557 429.702 322.336 427.365 325.397 424.823 323.478 420.097 328.228 418.393 326.798 413.753 328.016 410.355 331.526 408.189 329.869 403.162 328.968 398.416 334.608 397.59 339.91 396.737 337.634 390.962 339.153 387.614 344.296 386.872 347.242 384.641 343.608 377.286 352.423 379.738 351.398 374.258 354.356 372.069 359.51 371.921 356.04 363.799 364.201 366.68 366.804 364.31 365.649 357.976 371.923 359.494 372.123 354.399 377.337 355.014 374.827 346.385 377.513 343.877 383.96 346.322 385.769 342.759 388.245 340.035 391.029 337.712 395.548 338.05 396.242 332.414 403.002 336.652 405.358 333.696 409.156 333.275 410.599 328.461 414.623 328.522 416.355 323.926 418.112 319.079 423.221 321.661 426.385 319.923 428.699 315.947 431.983 314.308 436.02 314.806 440.747 317.642 444.028 316.255 446.655 312.518 450.258 312.055 453.919 311.907 458.158 314.455 460.146 306.66 464.719 311.308 467.623 307.159 471.144 306.263 475.108 308.703 478.275 304.895 481.791 303.516 485.956 310.484 489.052 302.756 492.905 308.254 496.365 303.375 500 302.928 503.586 306.037 507.034 309.918 510.558 309.891 514.277 307.296 518.241 303.181 521.164 310.011 525.149 306.729 528.137 311.155 532.066 309.044 535.17 311.922 538.438 313.585 543.557 306.842 545.755 313.265 548.986 314.944 554.602 308.117 557.122 312.499 560.633 313.413 564.968 311.966 567.504 315.732 570.989 316.774 574.396 318.034 578.255 318.26 579.982 323.304 585.619 319.8 585.324 328.648 588.722 329.783 595.41 324.935 595.563 332.104 598.875 333.518 601.584 335.939 604.099 338.617 610.784 335.038 609.94 342.647 612.109 345.695 617.344 344.618 623.133 343.074 621.449 350.969 626.814 350.131 628.707 353.474 633.854 353.179 632.023 360.454 636.644 360.816 638.29 364.251 641.236 366.395 645.272 367.576 643.361 374.092 645.123 377.221 652.064 376.093 655.654 377.882 658.26 380.494 660.79 383.185 657.282 390.123 663.239 390.389 663.762 394.377 661.616 399.946 663.152 403.119 672.178 402.007 673.936 405.218 675.341 408.613 673.384 413.672 671.866 418.358 674.228 421.146 678.597 423.11 681.789 425.685 684.03 428.708 681.064 433.678 680.959 437.483 689.661 438.376 687.844 442.781 684.446 447.518 685.137 450.999 688.472 453.827 694.446 456.159 690.933 460.639 687.843 464.877 689.423 468.193 697.021 470.659 696.938 474.381 690.787 478.75 689.856 482.398 691.626 485.802 689.775 489.46 697.291 492.703 690.208 496.481 694.19 500"/>
    <polygon points="694.19 500 699.348 503.684 693.073 507.143 696.655 510.916 698.34 514.689 698.651 518.408 693.059 521.502 696.789 525.602 688.27 528.052 689.553 531.832 687.543 535.071 694.162 540.027 691.934 543.282 686.214 545.628 686.493 549.365 688.582 553.664 686.263 556.745 682.422 559.281 679.41 561.989 686.641 568.373 681.174 570.194 684.409 575.396 680.968 577.922 675.399 579.394 677.075 584.131 670.687 584.992 676.452 591.978 672.33 593.916 671.984 597.894 667.586 599.532 667.666 603.821 659.867 603.119 661.674 608.572 661.046 612.525 661.382 617.26 658.873 619.985 656.203 622.565 649.285 621.656 645.266 622.916 645.092 627.445 641.628 629.117 638.014 630.573 641.15 638.575 638.063 640.647 631.456 638.964 630.022 642.638 630.534 648.624 623.058 645.452 625.08 653.501 623.135 656.948 614.38 651.482 616.711 660.647 612.135 660.508 609.457 663.009 606.067 664.448 603.937 667.875 600.483 669.205 594.499 666.053 593.838 672.207 589.506 671.74 588.403 677.544 581.848 672.298 580.497 677.852 575.499 675.368 573.87 680.702 570.615 682.284 568.319 686.515 563.315 683.269 560.228 685.363 557.475 688.684 553.452 687.862 549.33 686.384 547.243 692.854 542.063 686.53 540.075 694.419 536.387 694.646 532.4 692.984 528.13 688.818 525.287 694.362 521.98 697.417 518.016 694.37 514.309 693.144 510.82 694.902 507.176 693.971 503.528 690.708 500 698.257 496.429 693.119 492.865 692.848 489.301 692.695 485.901 690.262 481.83 696.052 478.1 696.675 474.593 695.27 471.867 688.821 467.797 691.783 464.941 687.48 460.295 692.591 457.187 689.847 454.323 686.413 449.539 690.643 446.392 688.383 443.094 686.792 439.253 686.938 436.398 684.078 432.404 684.521 427.964 685.927 427.444 677.47 423.725 677.15 420.178 676.344 414.665 679.605 413.711 673.285 412.192 668.469 404.882 674.529 403.109 670.225 400.435 667.641 396.906 666.494 396.436 660.556 392.61 659.917 387.199 661.44 386.226 656.592 381.496 656.916 381.607 650.893 378.115 649.566 376.993 645.373 370.463 647.471 372.198 640.186 365.101 642.584 365.972 636.519 362.307 635.162 355.677 636.527 355.121 632.066 354.237 628.02 349.413 627.407 352.642 620.068 349.212 618.295 348.06 614.726 343.151 613.947 340.387 611.508 340.851 606.859 338.129 604.401 332.979 603.407 335.017 597.97 328.799 597.436 325.964 594.837 327.987 589.649 326.236 586.517 325.289 582.996 323.981 579.666 319.563 577.684 316.122 575.17 318.317 570.383 314.43 567.973 318.05 562.859 316.841 559.513 317.107 555.713 315.469 552.506 309.616 550.386 312.491 545.938 312.333 542.319 305.596 540.072 312.301 535.096 303.643 532.963 309.057 528.444 303.243 525.596 308.37 521.343 304.066 518.159 301.904 514.671 305.034 510.823 308.253 507.095 306.068 503.586 301.985 500 302.682 496.353 306.457 492.84 303.643 489.101 307.516 485.739 309.769 482.362 302.275 477.984 308.587 475.09 311.934 471.978 307.916 467.746 308.906 464.269 307.024 460.216 309.894 457.128 308.059 452.973 308.51 449.315 309.472 445.783 314.655 443.534 317.739 440.771 313.786 435.66 313.815 431.794 318.557 429.702 322.336 427.365 325.397 424.823 323.478 420.097 328.228 418.393 326.798 413.753 328.016 410.355 331.526 408.189 329.869 403.162 328.968 398.416 334.608 397.59 339.91 396.737 337.634 390.962 339.153 387.614 344.296 386.872 347.242 384.641 343.608 377.286 352.423 379.738 351.398 374.258 354.356 372.069 359.51 371.921 356.04 363.799 364.201 366.68 366.804 364.31 365.649 357.976 371.923 359.494 372.123 354.399 377.337 355.014 374.827 346.385 377.513 343.877 383.96 346.322 385.769 342.759 388.245 340.035 391.029 337.712 395.548 338.05 396.242 332.414 403.002 336.652 405.358 333.696 409.156 333.275 410.599 328.461 414.623 328.522 416.355 323.926 418.112 319.079 423.221 321.661 426.385 319.923 428.699 315.947 431.983 314.308 436.02 314.806 440.747 317.642 444.028 316.255 446.655 312.518 450.258 312.055 453.919 311.907 458.158 314.455 460.146 306.66 464.719 311.308 467.623 307.159 471.144 306.263 475.108 308.703 478.275 304.895 481.791 303.516 485.956 310.484 489.052 302.756 492.905 308.254 496.365 303.375 500 302.928 503.586 306.037 507.034 309.918 510.558 309.891 514.277 307.296 518.241 303.181 521.164 310.011 525.149 306.729 528.137 311.155 532.066 309.044 535.17 311.922 538.438 313.585 543.557 306.842 545.755 313.265 548.986 314.944 554.602 308.117 557.122 312.499 560.633 313.413 564.968 311.966 567.504 315.732 570.989 316.774 574.396 318.034 578.255 318.26 579.982 323.304 585.619 319.8 585.324 328.648 588.722 329.783 595.41 324.935 595.563 332.104 598.875 333.518 601.584 335.939 604.099 338.617 610.784 335.038 609.94 342.647 612.109 345.695 617.344 344.618 623.133 343.074 621.449 350.969 626.814 350.131 628.707 353.474 633.854 353.179 632.023 360.454 636.644 360.816 638.29 364.251 641.236 366.395 645.272 367.576 643.361 374.092 645.123 377.221 652.064 376.093 655.654 377.882 658.26 380.494 660.79 383.185 657.282 390.123 663.239 390.389 663.762 394.377 661.616 399.946 663.152 403.119 672.178 402.007 673.936 405.218 675.341 408.613 673.384 413.672 671.866 418.358 674.228 421.146 678.597 423.11 681.789 425.685 684.03 428.708 681.064 433.678 680.959 437.483 689.661 438.376 687.844 442.781 684.446 447.518 685.137 450.999 688.472 453.827 694.446 456.159 690.933 460.639 687.843 464.877 689.423 468.193 697.021 470.659 696.938 474.381 690.787 478.75 689.856 482.398 691.626 485.802 689.775 489.46 697.291 492.703 690.208 496.481 694.19 500" style="fill: none; stroke: #000; stroke-linecap: round; stroke-linejoin: round; stroke-width: 35px;"/>
  </g>
</svg>