<?xml version="1.0" encoding="UTF-8"?>
<svg id="Sticker" xmlns="http://www.w3.org/2000/svg" width="1000" height="1000" viewBox="0 0 1000 1000">
  <g>
    <path d="M678.875,353.906l-6.452,5.762,5.387,3.621-.871,3.622,1.06,3.623.913,3.622.066,3.621-1.523,3.621,2.139,3.621-2.3,3.622.023,3.623-.889,3.622-1.134,3.622,3.626,3.621,2.014,3.622-.077,3.616-.855,3.616-1.146,3.617-1.725,3.619-5.145,3.621,5.568,3.624-1.639,3.622,1.168,3.62,1.541,3.619.488,3.618-2.583,3.619,3.368,3.62-5.433,3.623,3.513,3.623,1.05,3.621,2.351,3.62-2.911,3.62.173,3.621,1.258,3.624-2.069,3.623-5.446,3.621.512,3.621,5.684,3.623,1.59,3.625-5.712,3.623,6.343,3.622-8.456,3.624,6.352,3.625-5.308,3.623,5.935,3.624-1.467,3.625-4.038,3.624,7.789,3.625-5.134,3.624,4.457,3.625-7.891,3.625-1.106,3.626,1.801,3.625,7.367,3.625-1.561,3.621-2.864,3.625-2.064,3.623-2.091,3.626.125,3.624.583,3.626-1.125,3.628,5.675,3.628-2.272,3.628-.258,3.627-2.336,3.627,3.269,3.628,4.106,3.634-6.847,3.634,7.725,3.696-8.224,3.369,2.937,3.716-1.395,3.495,4.323,4.028-8.276,2.686,8.338,4.729-5.051,2.91,4.298,4.447-7.012,2.33,3.466,4.443-4.218,2.714.721,3.906-3.144,2.846-3.166,2.744,1.005,4.06,2.72,4.778-4.376,2.231-4.715,1.947.087,3.863.487,4.119.571,4.258-6.178.938-1.984,2.942-.043,4.013-1.967,2.974-2.483,2.647.28,4.391,1.096,5.069-3.571,1.973-.108,4.425-5.717.26-2.897,2.284.204,4.82-.027,4.794-5.572-.045-4.612.626.896,5.858-7.203-2.134,1.209,6.419-4.64.277-.471,4.904-4.227.607-3.911.857-3.293,1.546-2.783,2.188,1.853,8.789-7.324-4.243-3.889.519-1.991,3.472-4.232-.186-.417,6.427-2.076,3.789-4.171-.122-4.211-.394-2.162,3.872-2.149,4.171-3.453,1.303-6.349-6.232-1.758,5.492-4.286-1.395-3.618.356-3.266,1.444-1.783,6.99-3.639.607-4.212-1.971-3.801-.551-3.066,3.137-3.244,2.689-3.833-.821-4.294-5.074-3.252,2.975-3.423,2.194-3.841-3.431-3.326,5.695-3.691-1.285-3.636-4.223-3.682,6.531-3.487-4.944-3.615.398-3.483-1.555-3.785,1.95-4.073,3.535-2.642-7.665-4.572,5.971-2.879-4.696-3.072-2.925-4.415,3.398-3.818.271-2.552-4.586-3.269-1.591-2.902-2.672-5.311,4.661-1.2-7.451-4.739,2.499-4.599,1.717-.695-7.647-5.223,2.917-1.451-5.356-3.207-1.521-6.569,4.768-1.633-4.647-.709-5.957-7.443,5.355-2.026-3.695-.012-6.539-6.279,2.756-1.393-4.303-1.94-3.412-6.606,2.531-2.272-3.063,2.48-8.486-8.36,3.998,3.465-9.076-6.422,1.533-3.792-1.36-3.78-1.47,4.3-8.865-4.096-1.093-4.669-.742,2.085-6.296-4.391-1.053-5.522-.366-2.363-2.798.735-4.899-3.113-2.259-.248-4.089-.663-3.754-3.806-1.93-2.784-2.586-.867-3.616-4.636-1.759-.383-3.858,2.494-5.047.698-4.123-9.035-.28,5.724-5.978-4.918-2.056,3.156-4.776-8.36-1.21,5.644-5.331-2.028-3.131.03-3.65-5.817-2.411-.463-3.617,4.523-4.424-1.998-3.281-4.469-3.042-3.594-3.297,8.241-4.384-8.286-3.04,8.54-4.041.556-3.532-7.484-3.508,2.368-3.621-.708-3.621-4.103-3.622,2.322-3.623,3.887-3.622,2.079-3.621-8.347-3.621,4.955-3.621-2.071-3.622-1.059-3.623-1.332-3.622,4.087-3.622-2.892-3.621-1.298-3.622,8.336-3.616-4.199-3.616-.195-3.617,3.354-3.619-4.398-3.621,1.739-3.624-3.312-3.622,7.148-3.62-3.066-3.619-4.281-3.618.456-3.619,4.819-3.62-5.376-3.623.139-3.623.01-3.621,5.206-3.62-1.328-3.62-1.63-3.621.352-3.624-3.49-3.623,7.49-3.621-.557-3.621-.58-3.623-.559-3.625-1.311-3.623,1.227-3.622,3.134-3.624-5.486-3.625,1.196-3.623-1.612-3.624-.109-3.625-.276-3.624-.059-3.625,1.359-3.624-4.233-3.625,4.869-3.625,4.383-3.626-7.429-3.625,1.671-3.625-1.238-3.621,2.106-3.625-3.79-3.623,3.699-3.626-4.416-3.624,8.746-3.626-2.271-3.628-2.055-3.628-3.372-3.628,5.495-3.627-.618-3.627,1.013-3.628-6.319-3.634,5.084-2.784,2.747-1.62,3.604-2.514,3.604.299,3.603-.05,3.604,1.416,3.604,5.59,3.604-2.778,3.605-3.535,3.606-.682,3.607,2.317,3.606-1.82,3.605-1.239,3.605,5.571,3.604-.744,3.604,2.338,3.604,1.123,3.605-2.536,3.605.362,3.606-.363,3.607-2.437,3.606-1.391,3.605,2.947,3.605-4.735,3.605,7.373,3.605-8.421,3.605,3.107,3.606-.469,3.607-1.752,3.607,6.573,3.606-3.138,3.605-.629,3.605-1.743,3.605,2.328,3.606-1.749,3.607-2.253,3.607,7.868,3.606-4.432,3.606,5.618,3.606-2.81,3.606-6.686,3.607,5.204,3.607-2.634,3.606,3.727,3.606,2.541,3.601-2.451,3.601-1.595,3.601-2.548,3.602,4.973,3.603-1.189,3.605-1.446,3.608-4.005,3.606,6.362,3.604,1.091,3.603-5.852,3.603,7.115,3.603-.034,3.605-1.854,3.607-5.9,3.608,6.699,3.606-4.697,3.605-2.822,3.605,1.659,3.606-1.606,3.609,5.734,3.608,2.877,3.606-6.871,3.606,1.133,3.607,6.124,3.61-.015,3.607-5.209,3.607.797,3.608,1.831,3.609.627,3.608-.734,3.608,2.273,3.61.275,3.608-7.346,3.61,2.601,3.609-1.85,3.61,6.332,3.609-4.746,3.61,3.287,3.606.306,3.61-7.192,3.606,8.079,3.61-5.501,3.608.635,3.611-2.76,3.609.134,3.611.777,3.613,7.164,3.613-3.723,3.613-5.314,3.612.412,3.612,1.815,3.613-1.111,4.324,6.358,5.056-5.232ZM496.971,586.687l7.339-3.603-5.387-3.603.871-3.602-1.06-3.602-.913-3.602-.066-3.602,1.523-3.603-2.139-3.603,2.3-3.602-.023-3.602.889-3.597,1.134-3.597-3.626-3.597-2.014-3.598.077-3.599.855-3.601,1.146-3.604,1.725-3.602,5.145-3.6-5.568-3.599,1.639-3.599-1.168-3.6-1.541-3.601-.488-3.604,2.583-3.604-3.368-3.602,5.433-3.601-3.513-3.601-1.05-3.602-2.351-3.605,2.911-3.604-.173-3.602-1.258-3.602,2.069-3.603,5.446-3.606-.512-3.603-5.684-3.603-1.59-3.604,5.712-3.605-6.343-3.604,8.456-3.604-6.352-3.606,5.308-3.604-5.935-3.606,1.467-3.605,4.038-3.606-7.789-3.606,5.134-3.607-4.457-3.602,7.891-3.606,1.106-3.602-1.801-3.606-7.367-3.604,1.561-3.607,2.864-3.605,2.064-3.607,2.091-3.609-.125-3.609-.583-3.609,1.125-3.608-5.675-3.608,2.272-3.609.258-3.615,2.336-3.615" style="fill: #fff;"/>
    <path d="M678.875,353.906l-6.452,5.762,5.387,3.621-.871,3.622,1.06,3.623.913,3.622.066,3.621-1.523,3.621,2.139,3.621-2.3,3.622.023,3.623-.889,3.622-1.134,3.622,3.626,3.621,2.014,3.622-.077,3.616-.855,3.616-1.146,3.617-1.725,3.619-5.145,3.621,5.568,3.624-1.639,3.622,1.168,3.62,1.541,3.619.488,3.618-2.583,3.619,3.368,3.62-5.433,3.623,3.513,3.623,1.05,3.621,2.351,3.62-2.911,3.62.173,3.621,1.258,3.624-2.069,3.623-5.446,3.621.512,3.621,5.684,3.623,1.59,3.625-5.712,3.623,6.343,3.622-8.456,3.624,6.352,3.625-5.308,3.623,5.935,3.624-1.467,3.625-4.038,3.624,7.789,3.625-5.134,3.624,4.457,3.625-7.891,3.625-1.106,3.626,1.801,3.625,7.367,3.625-1.561,3.621-2.864,3.625-2.064,3.623-2.091,3.626.125,3.624.583,3.626-1.125,3.628,5.675,3.628-2.272,3.628-.258,3.627-2.336,3.627,3.269,3.628,4.106,3.634-6.847,3.634,7.725,3.696-8.224,3.369,2.937,3.716-1.395,3.495,4.323,4.028-8.276,2.686,8.338,4.729-5.051,2.91,4.298,4.447-7.012,2.33,3.466,4.443-4.218,2.714.721,3.906-3.144,2.846-3.166,2.744,1.005,4.06,2.72,4.778-4.376,2.231-4.715,1.947.087,3.863.487,4.119.571,4.258-6.178.938-1.984,2.942-.043,4.013-1.967,2.974-2.483,2.647.28,4.391,1.096,5.069-3.571,1.973-.108,4.425-5.717.26-2.897,2.284.204,4.82-.027,4.794-5.572-.045-4.612.626.896,5.858-7.203-2.134,1.209,6.419-4.64.277-.471,4.904-4.227.607-3.911.857-3.293,1.546-2.783,2.188,1.853,8.789-7.324-4.243-3.889.519-1.991,3.472-4.232-.186-.417,6.427-2.076,3.789-4.171-.122-4.211-.394-2.162,3.872-2.149,4.171-3.453,1.303-6.349-6.232-1.758,5.492-4.286-1.395-3.618.356-3.266,1.444-1.783,6.99-3.639.607-4.212-1.971-3.801-.551-3.066,3.137-3.244,2.689-3.833-.821-4.294-5.074-3.252,2.975-3.423,2.194-3.841-3.431-3.326,5.695-3.691-1.285-3.636-4.223-3.682,6.531-3.487-4.944-3.615.398-3.483-1.555-3.785,1.95-4.073,3.535-2.642-7.665-4.572,5.971-2.879-4.696-3.072-2.925-4.415,3.398-3.818.271-2.552-4.586-3.269-1.591-2.902-2.672-5.311,4.661-1.2-7.451-4.739,2.499-4.599,1.717-.695-7.647-5.223,2.917-1.451-5.356-3.207-1.521-6.569,4.768-1.633-4.647-.709-5.957-7.443,5.355-2.026-3.695-.012-6.539-6.279,2.756-1.393-4.303-1.94-3.412-6.606,2.531-2.272-3.063,2.48-8.486-8.36,3.998,3.465-9.076-6.422,1.533-3.792-1.36-3.78-1.47,4.3-8.865-4.096-1.093-4.669-.742,2.085-6.296-4.391-1.053-5.522-.366-2.363-2.798.735-4.899-3.113-2.259-.248-4.089-.663-3.754-3.806-1.93-2.784-2.586-.867-3.616-4.636-1.759-.383-3.858,2.494-5.047.698-4.123-9.035-.28,5.724-5.978-4.918-2.056,3.156-4.776-8.36-1.21,5.644-5.331-2.028-3.131.03-3.65-5.817-2.411-.463-3.617,4.523-4.424-1.998-3.281-4.469-3.042-3.594-3.297,8.241-4.384-8.286-3.04,8.54-4.041.556-3.532-7.484-3.508,2.368-3.621-.708-3.621-4.103-3.622,2.322-3.623,3.887-3.622,2.079-3.621-8.347-3.621,4.955-3.621-2.071-3.622-1.059-3.623-1.332-3.622,4.087-3.622-2.892-3.621-1.298-3.622,8.336-3.616-4.199-3.616-.195-3.617,3.354-3.619-4.398-3.621,1.739-3.624-3.312-3.622,7.148-3.62-3.066-3.619-4.281-3.618.456-3.619,4.819-3.62-5.376-3.623.139-3.623.01-3.621,5.206-3.62-1.328-3.62-1.63-3.621.352-3.624-3.49-3.623,7.49-3.621-.557-3.621-.58-3.623-.559-3.625-1.311-3.623,1.227-3.622,3.134-3.624-5.486-3.625,1.196-3.623-1.612-3.624-.109-3.625-.276-3.624-.059-3.625,1.359-3.624-4.233-3.625,4.869-3.625,4.383-3.626-7.429-3.625,1.671-3.625-1.238-3.621,2.106-3.625-3.79-3.623,3.699-3.626-4.416-3.624,8.746-3.626-2.271-3.628-2.055-3.628-3.372-3.628,5.495-3.627-.618-3.627,1.013-3.628-6.319-3.634,5.084-2.784,2.747-1.62,3.604-2.514,3.604.299,3.603-.05,3.604,1.416,3.604,5.59,3.604-2.778,3.605-3.535,3.606-.682,3.607,2.317,3.606-1.82,3.605-1.239,3.605,5.571,3.604-.744,3.604,2.338,3.604,1.123,3.605-2.536,3.605.362,3.606-.363,3.607-2.437,3.606-1.391,3.605,2.947,3.605-4.735,3.605,7.373,3.605-8.421,3.605,3.107,3.606-.469,3.607-1.752,3.607,6.573,3.606-3.138,3.605-.629,3.605-1.743,3.605,2.328,3.606-1.749,3.607-2.253,3.607,7.868,3.606-4.432,3.606,5.618,3.606-2.81,3.606-6.686,3.607,5.204,3.607-2.634,3.606,3.727,3.606,2.541,3.601-2.451,3.601-1.595,3.601-2.548,3.602,4.973,3.603-1.189,3.605-1.446,3.608-4.005,3.606,6.362,3.604,1.091,3.603-5.852,3.603,7.115,3.603-.034,3.605-1.854,3.607-5.9,3.608,6.699,3.606-4.697,3.605-2.822,3.605,1.659,3.606-1.606,3.609,5.734,3.608,2.877,3.606-6.871,3.606,1.133,3.607,6.124,3.61-.015,3.607-5.209,3.607.797,3.608,1.831,3.609.627,3.608-.734,3.608,2.273,3.61.275,3.608-7.346,3.61,2.601,3.609-1.85,3.61,6.332,3.609-4.746,3.61,3.287,3.606.306,3.61-7.192,3.606,8.079,3.61-5.501,3.608.635,3.611-2.76,3.609.134,3.611.777,3.613,7.164,3.613-3.723,3.613-5.314,3.612.412,3.612,1.815,3.613-1.111,4.324,6.358,5.056-5.232ZM496.971,586.687l7.339-3.603-5.387-3.603.871-3.602-1.06-3.602-.913-3.602-.066-3.602,1.523-3.603-2.139-3.603,2.3-3.602-.023-3.602.889-3.597,1.134-3.597-3.626-3.597-2.014-3.598.077-3.599.855-3.601,1.146-3.604,1.725-3.602,5.145-3.6-5.568-3.599,1.639-3.599-1.168-3.6-1.541-3.601-.488-3.604,2.583-3.604-3.368-3.602,5.433-3.601-3.513-3.601-1.05-3.602-2.351-3.605,2.911-3.604-.173-3.602-1.258-3.602,2.069-3.603,5.446-3.606-.512-3.603-5.684-3.603-1.59-3.604,5.712-3.605-6.343-3.604,8.456-3.604-6.352-3.606,5.308-3.604-5.935-3.606,1.467-3.605,4.038-3.606-7.789-3.606,5.134-3.607-4.457-3.602,7.891-3.606,1.106-3.602-1.801-3.606-7.367-3.604,1.561-3.607,2.864-3.605,2.064-3.607,2.091-3.609-.125-3.609-.583-3.609,1.125-3.608-5.675-3.608,2.272-3.609.258-3.615,2.336-3.615" style="fill: none; stroke: #000; stroke-linecap: round; stroke-linejoin: round; stroke-width: 35px;"/>
  </g>
  <path d="M175.419,350.291l3.59,7.295,3.59-3.148,3.589-.457,3.589,3.58,3.589-.194,3.589-1.028,3.589-6.228,3.589,1.628,3.589.33,3.59-.863,3.59,4.935,3.59.141,3.591-3.216,3.591-.022,3.592-1.885,3.592,2.882,3.593-4.699,3.594-1.512,3.595.832,3.596.775,3.595,7.897,3.595-1.409,3.594-.053,3.593-6.431,3.593,1.452,3.592-1.534,3.592,8.045,3.591-8.107,3.591-.716,3.591,8.893,3.591-9.493,3.591,5.955,3.591-3.457,3.591-1.134,3.591,4.538,3.592-2.877,3.592.684,3.592,4.714,3.593-8.603,3.594,8.658,3.594-1.733,3.595-1,3.596,3.085,3.596-8.17,3.595-.661,3.594,5.419,3.594-5.271,3.593,3.679,3.593.643,3.592-4.022,3.592,3.926,3.592,2.659,3.592-1.098,3.592-3.317,3.592-1.717,3.593,8.435,3.593-4.566,3.594-2.01,3.595,2.42,3.596,2.057,3.597-6.656,3.596,6.279,3.595-4.335,3.595,2.788,3.594-1.454,3.594,2.586,3.593,1.709,3.593-2.191,3.593-4.139,3.593,4.855,3.594,1.464,3.594,1.078,3.595-8.56,3.595-.043,3.596.367,3.597,7.57,3.596-7.224,3.595,1.716,3.595,1.403,3.594-.844,3.594-2.468,3.594,1.215,3.594,5.06,3.594-1.61,3.595,2.452,3.596-4.395,3.596-2.497,3.597,6.411,3.596-6.398,3.596,1.681,3.595-1.802,3.595,1.255,3.595-.81,3.595.485,3.595-1.768,3.596,2.801,3.597,6.204,3.598-.843,3.597.598,3.596.609,3.595-7.858,3.595,6.32,3.595-6.333,3.596.892,3.597,3.064,3.598-2.787,3.597-.865,3.596-1.109,3.596-.784,3.596,4.857,3.596-4.353,3.597,2.879,3.598-.505,3.597,3.468,3.597-.6,3.596-3.937,3.596,5.979,3.597.405,3.598-7.072,3.598,2.625,3.597-.204,3.596,2.868,3.592-6.644,3.591,4.146,3.592-.434,3.592,5.62,3.594-8.657,3.596,2.686,3.599,3.666,3.597-4.029,3.595,1.994,3.594-3.258,3.593,7.586,3.594-7.719,3.596-1.043,3.598,6.35,3.598-2.4,3.596,2.225,3.595,2.991,3.595-6.422,3.597,2.027,3.599-2.924,3.598,6.222,3.597-5.339,3.596,1.306,3.598-1.747,3.601,3.363,3.598.025,3.597-1.836,3.599,2.383,3.6,1.131,3.598-1.547,3.599-.897,3.6,1.131,3.599-2.877,3.6,1.638,3.599-1.534,3.6,2.046,3.6-.617,3.601-4.619,3.596,6.333,3.6-3.331,3.596-2.061,3.6,3.681,3.598,1.497,3.602,2.163,3.6-.471,3.601-8.045,3.603.762,3.603,2.697,3.603-3.211,3.602,5.665,3.603-4.173,3.603,6.862,3.609-6.865,3.609.567M133.901,451.848l7.597,2.888.337-4.863,2.097-3.008,5.111-.509,2.163-3.045,1.392-3.587-3.027-6.526,3.31-2.055,2.165-2.854,1.053-3.508,6.065-.792,1.812-3.209-1.317-4.676,1.455-3.291-.36-4.023,3.983-2.303-3.225-4.936-.35-3.78,1.794-3.089,1.664-3.17,8.527-1.631-.593-3.905.635-3.615-5.762-4.586,1.925-3.292-1.124-3.677,8.334-2.872-7.853-4.127-.569-3.527,8.957-3.432-9.509-3.546,5.856-3.708-3.629-3.401-1.382-3.437,4.189-3.968-3.264-3.233.203-3.619,4.104-4.294-9.091-2.036,7.812-5.17-2.46-3.197-1.798-3.293,2.1-4.28-8.825-1.324-1.614-3.193,4.131-4.995-6.115-1.752,2.326-4.552-.612-3.59-5.02-1.908,2.346-4.75,1.089-4.345-2.431-2.892-4.486-1.932-3.044-2.511,6.075-6.868-5.695-1.24-3.41-2.29.49-4.298.108-4.153-7.559.069,3.705-6.208-5.553-.94.568-4.506-3.109-2.32.297-4.425M857.482,236.937l-8.09-.798.822,4.718-1.434,3.324-4.903,1.34-1.606,3.26-.833,3.673,3.826,6.08-3.073,2.414-1.885,3.043-.769,3.582-5.988,1.17-1.613,3.249,1.523,4.584-1.352,3.316.434,4.01-3.963,2.318,3.207,4.946.29,3.809-1.873,3.072-1.77,3.131-8.58,1.267.417,3.887-.824,3.54,5.474,4.916-2.14,3.155.858,3.745-8.525,2.214,7.504,4.717.28,3.554-9.211,2.655,9.177,4.319-6.148,3.183,3.33,3.678,1.094,3.519-4.495,3.601,3.004,3.46-.469,3.576-4.391,3.994,8.941,2.594-8.099,4.693,2.294,3.324,1.651,3.365-2.252,4.206,8.781,1.55,1.539,3.166-4.188,4.92,6.103,1.71-2.293,4.529.678,3.548,5.061,1.698-2.153,4.805-.848,4.391,2.622,2.722,4.613,1.544,3.233,2.168-5.326,7.455,5.808.567,3.662,1.79.12,4.294.558,4.117,7.408-1.415-2.486,6.766,5.608-.248.428,4.488,3.557,1.468.883,4.329,1.788,3.726" style="fill: none; stroke: #000; stroke-linecap: round; stroke-linejoin: round; stroke-width: 35px;"/>
</svg>