<?xml version="1.0" encoding="UTF-8"?>
<svg id="Sticker" xmlns="http://www.w3.org/2000/svg" width="1000" height="1000" viewBox="0 0 1000 1000">
  <polygon points="922.997 604.962 922.549 601.308 923.25 597.626 913.842 594.449 921.653 590.383 921.202 586.761 921.881 583.023 913.746 580.344 916.949 576.326 913.735 573.206 914.985 569.383 914.91 565.753 913.15 562.464 910.168 559.501 908.688 556.239 915.386 550.759 908.973 548.83 907.61 545.531 910.838 540.716 902.838 539.69 906.633 534.536 904.573 531.482 906.127 526.959 899.962 525.679 901.709 520.98 900.176 517.714 893.308 517.124 899.716 509.807 890.014 510.942 891.962 505.798 889.625 503.026 885.214 501.564 889.864 494.388 888.18 491.122 882.358 490.719 881.054 487.249 875.338 487.047 877.317 481.054 873.416 479.57 868.937 478.667 871.285 471.973 865.09 472.67 863.254 469.549 863.857 464.034 860.581 462.186 859.782 457.822 851.283 461.598 851.27 456.377 846.279 456.693 848.678 448.358 841.025 452.049 843.454 443.208 840.531 441.01 834.912 442.551 832.569 439.658 831.681 434.523 826.915 435.17 822.48 435.491 819.359 433.782 816.983 430.775 813.911 428.936 809.653 429.35 809.17 422.413 805.167 422.335 802.731 418.968 796.64 423.818 794.735 419.2 790.968 418.973 788.556 415.227 784.594 415.593 780.902 415.337 776.322 418.039 774.313 412.45 770.877 411.436 767.734 409.257 763.928 409.692 759.686 412.365 757.746 404.008 753.572 406.568 749.924 406.581 748.157 404.454 744.953 402.841 746.165 398.957 746.441 395.201 740.838 392.662 738.454 389.54 741.7 385.1 737.823 382.373 744.47 376.857 741.398 373.916 742.305 369.825 733.644 368.747 732.714 365.303 731.484 361.957 735.527 356.66 734.418 353.181 729.973 351.042 732.14 346.225 730.331 343.028 723.635 342.07 723.23 338.317 722.611 334.628 720.36 331.736 723.98 325.768 720.339 323.571 721.12 318.943 711.412 320.352 709.987 317.062 715.387 309.492 708.743 309.393 704.892 307.627 705.398 302.948 703.754 299.683 701.64 296.742 702.22 291.772 694.814 292.867 694.863 288.251 691 286.741 690.961 282.071 684.396 282.976 686.017 276.749 683.396 274.23 683.56 269.071 681.48 265.96 678.114 264.117 675.655 261.378 670.572 261.427 670.829 255.763 662.003 260.176 662.6 254.028 659.506 252.075 658.975 246.981 652.584 249.167 650.718 245.697 650.52 239.897 647.653 237.586 641.667 239.736 638.709 237.677 634.658 237.281 632.918 233.347 631.762 228.331 628.495 226.657 624.475 226.303 621.137 224.826 618.318 222.403 614.467 221.917 610.525 221.701 609.566 215.409 605.097 216.307 602.017 214.291 598.262 213.801 595.952 209.89 592.341 209.05 588.114 209.882 584.342 209.651 581.962 205.49 577.013 208.831 574.767 204.009 570.689 204.945 566.858 205.224 564.657 199.521 559.966 203.169 556.522 202.108 552.846 202.064 550.581 195.233 545.93 200.029 542.726 197.468 538.863 198.678 534.782 201.758 531.787 197.29 528.526 194.1 524.246 200.252 520.824 198.618 517.779 191.177 513.734 197.624 510.174 197.194 506.714 192.941 503.066 193.603 499.438 194.122 495.819 192.256 492.395 199.229 488.507 190.651 485.153 195.888 481.28 191.769 477.533 190.615 474.638 198.426 470.737 195.533 466.962 194.371 463.453 195.39 459.486 193.416 455.786 193.429 452.672 196.651 449.002 196.758 445.552 197.958 442.003 198.68 438.508 199.631 434.364 198.113 430.808 198.969 427.287 199.959 425.064 205.129 420.252 201.979 418.769 208.935 413.357 204.434 410.301 206.7 409.662 215.045 403.925 210.355 400.93 212.578 396.73 212.024 396.396 220.012 391.075 217.096 387.603 218.229 386.523 224.044 380.296 219.912 381.334 229.348 375.779 226.713 373.555 230.015 368.429 228.456 364.701 229.337 365.153 236.723 359.677 234.924 354.961 234.455 355.437 241.43 354.682 246.439 351.304 247.808 348.034 249.358 345.945 252.419 337.73 248.012 334.567 249.928 331.817 252.343 331.988 258 330.396 261.573 324.509 260.579 327.241 268.564 321.328 267.68 318.634 270.086 315.858 272.426 314.041 275.655 308.901 275.916 311.686 283.117 310.16 286.471 307.532 288.897 301.53 288.688 301.932 293.544 296.948 294.291 298.832 300.102 294.237 301.223 288.473 301.661 286.831 304.957 292.571 312.928 284.576 312.14 284.755 316.463 285.968 321.303 285.338 325.002 281.503 326.933 281.242 330.804 274.3 331.271 273.1 334.708 270.862 337.649 272.463 342.338 268.769 344.635 270.433 349.231 265.175 350.971 265.598 355.008 260.958 357.142 264.927 362.386 265.449 366.318 265.314 369.989 258.878 371.739 262.861 376.624 261.034 379.792 255.994 382.173 254.631 385.558 252.063 388.69 256.639 393.361 251.531 396.004 249.932 399.405 251.993 403.431 255.704 407.624 254.271 413.073 248.883 414.922 244.193 408.394 240.562 409.012 238.005 414.868 234.831 417.097 231.246 417.415 228.259 420.071 224.554 419.958 219.552 415.731 215.328 414.56 212.221 416.894 210.107 421.805 205.634 420.239 201.502 419.808 199.991 425.634 196.143 425.882 194.254 430.362 188.099 426.028 188.558 434.88 182.009 430.285 179.465 433.243 179.366 440.211 172.775 436.308 168.365 436.239 169.292 444.258 164.73 443.981 164.233 449.462 160.468 450.373 158.781 454.02 153.99 453.757 153.471 458.72 144.685 454.091 144.622 459.527 142.452 462.525 142.982 468.235 136.609 466.942 135.81 471.198 130.67 471.38 129.874 475.558 127.489 478.287 126.25 481.953 119.363 481.12 122.816 488.378 120.388 491.033 113.351 490.481 114.341 495.598 108.714 496.279 113.995 503.914 107.937 504.437 109.925 509.758 108.406 512.98 106.039 515.751 104.639 519.038 100.646 521.082 102.841 526.042 93.268 525.766 93.541 529.876 91.439 532.993 93.242 537.574 95.155 542.064 92.165 544.835 87.3 547.112 86.856 550.8 84.543 553.971 90.757 559.279 85.313 561.691 88.691 566.094 86.664 569.334 88.693 573.304 83.578 576.119 78.887 579.163 86.29 583.695 85.107 587.152 86.815 590.852 77.523 593.88 83.365 597.79 81.826 601.349 80.239 604.962 76.806 608.651 83.695 612.093 78.743 615.933 79.232 619.566 77.547 623.388 80.621 626.764 85.56 629.801 88.109 633.021 79.394 638.034 83.84 640.965 89.274 643.551 85.824 647.939 85.267 651.79 85.968 655.365 91.272 657.647 90.359 661.639 87.299 666.404 91.545 668.829 93.002 672.143 92.006 676.395 94.183 679.453 99.663 681.059 94.513 687.282 104.037 686.851 99.713 692.934 105.37 694.102 103.686 699.072 107.341 701.175 109.224 704.235 108.76 708.741 114.535 709.357 115.832 712.769 117.176 716.186 117.196 720.599 118.852 723.9 122.272 725.853 128.356 725.575 126.602 731.662 130.057 733.453 133.884 734.837 133.101 740.46 137.08 741.664 140.588 743.24 141.044 747.948 143.354 750.804 150.408 748.333 147.828 756.785 150.006 759.915 154.31 760.422 159.097 760.158 159.865 765.178 167.219 761.099 170.053 763.181 171.76 767.001 173.031 771.673 174.923 775.547 178.02 777.501 181.438 778.888 186.745 776.662 187.308 783.471 193.232 779.649 194.94 784.474 198.048 786.436 202.053 786.288 205.109 788.384 209.667 786.536 212.709 788.626 215.31 792.166 218.264 794.885 223.305 790.645 227.237 789.729 229.976 793.283 232.455 798.427 236.152 798.604 239.797 798.936 243.691 797.751 247.133 799.057 251.164 798.942 245.867 802.368 250.232 806.258 254.379 808.446 257.98 803.009 261.582 809.785 265.184 805.774 268.788 805.36 272.391 802.22 275.993 809.786 279.595 808.058 283.196 804.601 286.796 809.48 290.396 809.596 293.996 803.139 297.596 809.249 301.195 804.255 304.795 809.652 308.394 809.28 311.994 803.364 315.594 807.336 319.195 809.115 322.796 802.93 326.398 803.741 330.001 809.904 333.605 809.179 337.209 802.033 340.812 801.25 344.414 807.88 348.015 803.306 351.616 805.095 355.217 810.206 358.817 801.265 362.418 810.334 366.018 803.207 369.619 809.203 373.221 803.138 376.823 801.397 380.425 807.202 384.029 801.847 387.633 808.016 391.237 806.588 394.84 807.138 398.442 800.836 402.044 804.255 405.645 802.306 409.246 806.285 412.848 803.812 416.45 810.183 420.052 805.225 423.655 806.825 427.259 804.426 430.863 808.645 434.467 803.822 438.07 809.424 441.673 807.063 445.275 809.665 448.877 803.398 452.479 803.889 456.082 808.65 459.685 805.888 463.289 805.535 466.894 803.082 470.498 805.994 474.101 810.511 477.704 807.928 481.307 807.283 484.909 802.085 488.512 802.379 492.116 805.515 495.721 801.192 499.326 809.799 502.93 807.939 506.533 808.865 510.136 800.754 513.739 806.445 517.343 804.729 520.948 800.741 524.553 801.994 528.157 807.585 531.76 806.11 535.364 806.79 538.968 809.053 542.573 803.573 546.178 801.907 549.782 801.284 553.386 803.615 556.985 807.244 560.584 804.655 564.183 803.867 567.782 802.898 571.384 806.189 574.987 806.146 578.593 808.231 582.197 808.415 585.799 808.067 589.4 803.945 593.001 808.655 596.602 802.682 600.205 802.373 603.811 802.585 607.417 805.369 611.02 806.063 614.623 807.113 618.225 809.114 621.829 804.653 625.436 800.936 629.041 803.816 632.645 807.675 636.249 804.617 639.854 805.378 643.462 809.326 647.067 802.835 650.672 802.613 654.278 803.54 657.885 807.806 661.491 806.317 665.097 805.198 668.705 804.916 672.311 801.4 675.919 806.844 679.525 806.591 683.133 809.683 686.74 802.974 690.349 807.771 693.952 806.574 697.56 802.301 701.163 809.399 704.771 802.208 708.377 803.751 711.986 810.573 715.593 808.785 719.202 810.297 722.813 805.127 726.423 802.318 730.033 810.125 733.643 808.355 737.253 807.923 740.864 806.9 744.48 808.778 747.513 804.724 747.13 802.931 751.34 800.941 755.317 802.758 757.777 796.785 762.552 801.95 765.645 799.319 769.773 800.862 772.795 798.169 777.546 801.401 779.447 795.278 782.909 794.295 787.259 795.731 789.106 790.366 791.878 787.705 794.954 785.887 799.425 787.227 803.586 787.645 807.495 787.377 807.677 779.748 812.803 781.826 818.295 784.243 820.953 781.473 821.071 774.608 825.851 775.481 830.631 776.141 829.593 768.113 833.06 766.856 835.092 763.598 841.833 766.556 842.513 761.536 848.839 763.545 845.764 754.277 848.897 752.483 854.467 753.296 855.284 748.904 862.339 750.95 864.575 747.975 864.011 742.389 867.335 740.538 871.327 739.214 868.41 731.953 874.984 732.743 873.217 726.729 880.84 728.049 877.667 721.195 881.782 719.745 886.23 718.41 885.837 713.805 888.267 711.082 886.617 705.887 890.513 704.053 892.525 701.079 891.984 696.742 896.061 694.841 895.488 690.582 902.262 689.805 901.811 685.624 899.759 680.856 900.004 677.145 906.852 675.96 904.096 671.132 911.41 669.839 905.863 664.246 914.034 662.967 915.692 659.611 912.244 654.921 914.023 651.637 909.556 646.956 916.45 644.735 913.91 640.579 912.989 636.804 919.614 634.166 918.095 630.284 920.202 626.863 917.619 622.963 914.083 619.098 920.06 615.875 913.567 612.005 914.402 608.497 922.997 604.962" style="fill: #fff;"/>
  <polygon points="922.997 604.962 922.549 601.308 923.25 597.626 913.842 594.449 921.653 590.383 921.202 586.761 921.881 583.023 913.746 580.344 916.949 576.326 913.735 573.206 914.985 569.383 914.91 565.753 913.15 562.464 910.168 559.501 908.688 556.239 915.386 550.759 908.973 548.83 907.61 545.531 910.838 540.716 902.838 539.69 906.633 534.536 904.573 531.482 906.127 526.959 899.962 525.679 901.709 520.98 900.176 517.714 893.308 517.124 899.716 509.807 890.014 510.942 891.962 505.798 889.625 503.026 885.214 501.564 889.864 494.388 888.18 491.122 882.358 490.719 881.054 487.249 875.338 487.047 877.317 481.054 873.416 479.57 868.937 478.667 871.285 471.973 865.09 472.67 863.254 469.549 863.857 464.034 860.581 462.186 859.782 457.822 851.283 461.598 851.27 456.377 846.279 456.693 848.678 448.358 841.025 452.049 843.454 443.208 840.531 441.01 834.912 442.551 832.569 439.658 831.681 434.523 826.915 435.17 822.48 435.491 819.359 433.782 816.983 430.775 813.911 428.936 809.653 429.35 809.17 422.413 805.167 422.335 802.731 418.968 796.64 423.818 794.735 419.2 790.968 418.973 788.556 415.227 784.594 415.593 780.902 415.337 776.322 418.039 774.313 412.45 770.877 411.436 767.734 409.257 763.928 409.692 759.686 412.365 757.746 404.008 753.572 406.568 749.924 406.581 748.157 404.454 744.953 402.841 746.165 398.957 746.441 395.201 740.838 392.662 738.454 389.54 741.7 385.1 737.823 382.373 744.47 376.857 741.398 373.916 742.305 369.825 733.644 368.747 732.714 365.303 731.484 361.957 735.527 356.66 734.418 353.181 729.973 351.042 732.14 346.225 730.331 343.028 723.635 342.07 723.23 338.317 722.611 334.628 720.36 331.736 723.98 325.768 720.339 323.571 721.12 318.943 711.412 320.352 709.987 317.062 715.387 309.492 708.743 309.393 704.892 307.627 705.398 302.948 703.754 299.683 701.64 296.742 702.22 291.772 694.814 292.867 694.863 288.251 691 286.741 690.961 282.071 684.396 282.976 686.017 276.749 683.396 274.23 683.56 269.071 681.48 265.96 678.114 264.117 675.655 261.378 670.572 261.427 670.829 255.763 662.003 260.176 662.6 254.028 659.506 252.075 658.975 246.981 652.584 249.167 650.718 245.697 650.52 239.897 647.653 237.586 641.667 239.736 638.709 237.677 634.658 237.281 632.918 233.347 631.762 228.331 628.495 226.657 624.475 226.303 621.137 224.826 618.318 222.403 614.467 221.917 610.525 221.701 609.566 215.409 605.097 216.307 602.017 214.291 598.262 213.801 595.952 209.89 592.341 209.05 588.114 209.882 584.342 209.651 581.962 205.49 577.013 208.831 574.767 204.009 570.689 204.945 566.858 205.224 564.657 199.521 559.966 203.169 556.522 202.108 552.846 202.064 550.581 195.233 545.93 200.029 542.726 197.468 538.863 198.678 534.782 201.758 531.787 197.29 528.526 194.1 524.246 200.252 520.824 198.618 517.779 191.177 513.734 197.624 510.174 197.194 506.714 192.941 503.066 193.603 499.438 194.122 495.819 192.256 492.395 199.229 488.507 190.651 485.153 195.888 481.28 191.769 477.533 190.615 474.638 198.426 470.737 195.533 466.962 194.371 463.453 195.39 459.486 193.416 455.786 193.429 452.672 196.651 449.002 196.758 445.552 197.958 442.003 198.68 438.508 199.631 434.364 198.113 430.808 198.969 427.287 199.959 425.064 205.129 420.252 201.979 418.769 208.935 413.357 204.434 410.301 206.7 409.662 215.045 403.925 210.355 400.93 212.578 396.73 212.024 396.396 220.012 391.075 217.096 387.603 218.229 386.523 224.044 380.296 219.912 381.334 229.348 375.779 226.713 373.555 230.015 368.429 228.456 364.701 229.337 365.153 236.723 359.677 234.924 354.961 234.455 355.437 241.43 354.682 246.439 351.304 247.808 348.034 249.358 345.945 252.419 337.73 248.012 334.567 249.928 331.817 252.343 331.988 258 330.396 261.573 324.509 260.579 327.241 268.564 321.328 267.68 318.634 270.086 315.858 272.426 314.041 275.655 308.901 275.916 311.686 283.117 310.16 286.471 307.532 288.897 301.53 288.688 301.932 293.544 296.948 294.291 298.832 300.102 294.237 301.223 288.473 301.661 286.831 304.957 292.571 312.928 284.576 312.14 284.755 316.463 285.968 321.303 285.338 325.002 281.503 326.933 281.242 330.804 274.3 331.271 273.1 334.708 270.862 337.649 272.463 342.338 268.769 344.635 270.433 349.231 265.175 350.971 265.598 355.008 260.958 357.142 264.927 362.386 265.449 366.318 265.314 369.989 258.878 371.739 262.861 376.624 261.034 379.792 255.994 382.173 254.631 385.558 252.063 388.69 256.639 393.361 251.531 396.004 249.932 399.405 251.993 403.431 255.704 407.624 254.271 413.073 248.883 414.922 244.193 408.394 240.562 409.012 238.005 414.868 234.831 417.097 231.246 417.415 228.259 420.071 224.554 419.958 219.552 415.731 215.328 414.56 212.221 416.894 210.107 421.805 205.634 420.239 201.502 419.808 199.991 425.634 196.143 425.882 194.254 430.362 188.099 426.028 188.558 434.88 182.009 430.285 179.465 433.243 179.366 440.211 172.775 436.308 168.365 436.239 169.292 444.258 164.73 443.981 164.233 449.462 160.468 450.373 158.781 454.02 153.99 453.757 153.471 458.72 144.685 454.091 144.622 459.527 142.452 462.525 142.982 468.235 136.609 466.942 135.81 471.198 130.67 471.38 129.874 475.558 127.489 478.287 126.25 481.953 119.363 481.12 122.816 488.378 120.388 491.033 113.351 490.481 114.341 495.598 108.714 496.279 113.995 503.914 107.937 504.437 109.925 509.758 108.406 512.98 106.039 515.751 104.639 519.038 100.646 521.082 102.841 526.042 93.268 525.766 93.541 529.876 91.439 532.993 93.242 537.574 95.155 542.064 92.165 544.835 87.3 547.112 86.856 550.8 84.543 553.971 90.757 559.279 85.313 561.691 88.691 566.094 86.664 569.334 88.693 573.304 83.578 576.119 78.887 579.163 86.29 583.695 85.107 587.152 86.815 590.852 77.523 593.88 83.365 597.79 81.826 601.349 80.239 604.962 76.806 608.651 83.695 612.093 78.743 615.933 79.232 619.566 77.547 623.388 80.621 626.764 85.56 629.801 88.109 633.021 79.394 638.034 83.84 640.965 89.274 643.551 85.824 647.939 85.267 651.79 85.968 655.365 91.272 657.647 90.359 661.639 87.299 666.404 91.545 668.829 93.002 672.143 92.006 676.395 94.183 679.453 99.663 681.059 94.513 687.282 104.037 686.851 99.713 692.934 105.37 694.102 103.686 699.072 107.341 701.175 109.224 704.235 108.76 708.741 114.535 709.357 115.832 712.769 117.176 716.186 117.196 720.599 118.852 723.9 122.272 725.853 128.356 725.575 126.602 731.662 130.057 733.453 133.884 734.837 133.101 740.46 137.08 741.664 140.588 743.24 141.044 747.948 143.354 750.804 150.408 748.333 147.828 756.785 150.006 759.915 154.31 760.422 159.097 760.158 159.865 765.178 167.219 761.099 170.053 763.181 171.76 767.001 173.031 771.673 174.923 775.547 178.02 777.501 181.438 778.888 186.745 776.662 187.308 783.471 193.232 779.649 194.94 784.474 198.048 786.436 202.053 786.288 205.109 788.384 209.667 786.536 212.709 788.626 215.31 792.166 218.264 794.885 223.305 790.645 227.237 789.729 229.976 793.283 232.455 798.427 236.152 798.604 239.797 798.936 243.691 797.751 247.133 799.057 251.164 798.942 245.867 802.368 250.232 806.258 254.379 808.446 257.98 803.009 261.582 809.785 265.184 805.774 268.788 805.36 272.391 802.22 275.993 809.786 279.595 808.058 283.196 804.601 286.796 809.48 290.396 809.596 293.996 803.139 297.596 809.249 301.195 804.255 304.795 809.652 308.394 809.28 311.994 803.364 315.594 807.336 319.195 809.115 322.796 802.93 326.398 803.741 330.001 809.904 333.605 809.179 337.209 802.033 340.812 801.25 344.414 807.88 348.015 803.306 351.616 805.095 355.217 810.206 358.817 801.265 362.418 810.334 366.018 803.207 369.619 809.203 373.221 803.138 376.823 801.397 380.425 807.202 384.029 801.847 387.633 808.016 391.237 806.588 394.84 807.138 398.442 800.836 402.044 804.255 405.645 802.306 409.246 806.285 412.848 803.812 416.45 810.183 420.052 805.225 423.655 806.825 427.259 804.426 430.863 808.645 434.467 803.822 438.07 809.424 441.673 807.063 445.275 809.665 448.877 803.398 452.479 803.889 456.082 808.65 459.685 805.888 463.289 805.535 466.894 803.082 470.498 805.994 474.101 810.511 477.704 807.928 481.307 807.283 484.909 802.085 488.512 802.379 492.116 805.515 495.721 801.192 499.326 809.799 502.93 807.939 506.533 808.865 510.136 800.754 513.739 806.445 517.343 804.729 520.948 800.741 524.553 801.994 528.157 807.585 531.76 806.11 535.364 806.79 538.968 809.053 542.573 803.573 546.178 801.907 549.782 801.284 553.386 803.615 556.985 807.244 560.584 804.655 564.183 803.867 567.782 802.898 571.384 806.189 574.987 806.146 578.593 808.231 582.197 808.415 585.799 808.067 589.4 803.945 593.001 808.655 596.602 802.682 600.205 802.373 603.811 802.585 607.417 805.369 611.02 806.063 614.623 807.113 618.225 809.114 621.829 804.653 625.436 800.936 629.041 803.816 632.645 807.675 636.249 804.617 639.854 805.378 643.462 809.326 647.067 802.835 650.672 802.613 654.278 803.54 657.885 807.806 661.491 806.317 665.097 805.198 668.705 804.916 672.311 801.4 675.919 806.844 679.525 806.591 683.133 809.683 686.74 802.974 690.349 807.771 693.952 806.574 697.56 802.301 701.163 809.399 704.771 802.208 708.377 803.751 711.986 810.573 715.593 808.785 719.202 810.297 722.813 805.127 726.423 802.318 730.033 810.125 733.643 808.355 737.253 807.923 740.864 806.9 744.48 808.778 747.513 804.724 747.13 802.931 751.34 800.941 755.317 802.758 757.777 796.785 762.552 801.95 765.645 799.319 769.773 800.862 772.795 798.169 777.546 801.401 779.447 795.278 782.909 794.295 787.259 795.731 789.106 790.366 791.878 787.705 794.954 785.887 799.425 787.227 803.586 787.645 807.495 787.377 807.677 779.748 812.803 781.826 818.295 784.243 820.953 781.473 821.071 774.608 825.851 775.481 830.631 776.141 829.593 768.113 833.06 766.856 835.092 763.598 841.833 766.556 842.513 761.536 848.839 763.545 845.764 754.277 848.897 752.483 854.467 753.296 855.284 748.904 862.339 750.95 864.575 747.975 864.011 742.389 867.335 740.538 871.327 739.214 868.41 731.953 874.984 732.743 873.217 726.729 880.84 728.049 877.667 721.195 881.782 719.745 886.23 718.41 885.837 713.805 888.267 711.082 886.617 705.887 890.513 704.053 892.525 701.079 891.984 696.742 896.061 694.841 895.488 690.582 902.262 689.805 901.811 685.624 899.759 680.856 900.004 677.145 906.852 675.96 904.096 671.132 911.41 669.839 905.863 664.246 914.034 662.967 915.692 659.611 912.244 654.921 914.023 651.637 909.556 646.956 916.45 644.735 913.91 640.579 912.989 636.804 919.614 634.166 918.095 630.284 920.202 626.863 917.619 622.963 914.083 619.098 920.06 615.875 913.567 612.005 914.402 608.497 922.997 604.962" style="fill: none; stroke: #000; stroke-linecap: round; stroke-linejoin: round; stroke-width: 35px;"/>
</svg>