<?xml version="1.0" encoding="UTF-8"?>
<svg id="eraser" xmlns="http://www.w3.org/2000/svg" width="500" height="500" viewBox="0 0 500 500">
  <path d="M250.01,59.76c1.89,0-.26,1.08.68,2.72s2.51.74,3.45,2.38,1.66,1.23,2.61,2.87-.36,2.39.59,4.03,2.3.86,3.25,2.5-.74,2.61.21,4.25,1.88,1.1,2.83,2.74,1.43,1.36,2.37,3-.41,2.43.53,4.07,1.38,1.39,2.33,3.03,1.88,1.1,2.82,2.74,0,2.19.94,3.83,2.01,1.03,2.96,2.67-.92,2.72.02,4.36.99,1.61,1.94,3.25,1.51,1.32,2.45,2.95.37,1.97,1.32,3.61,1.94,1.07,2.88,2.71-.08,2.23.87,3.87.84,1.7,1.79,3.34,1.99,1.04,2.94,2.68,1.16,1.52,2.1,3.16.68,1.79,1.63,3.44,1.18,1.5,2.13,3.14-.24,2.32.71,3.96,1.64,1.24,2.59,2.88.16,2.09,1.11,3.73,2.66.65,3.6,2.29.85,1.7,1.79,3.34,1.49,1.33,2.44,2.97-.99,2.76-.04,4.4,1.12,1.54,2.07,3.18,1.66,1.23,2.61,2.87,1.59,1.27,2.53,2.91.81,1.72,1.76,3.36-.51,2.48.43,4.12,1.14,1.53,2.09,3.17.98,1.62,1.92,3.26,2.57.7,3.52,2.34-.04,2.21.91,3.85,1.17,1.51,2.11,3.16.92,1.66,1.87,3.3.85,1.7,1.8,3.34.38,1.97,1.32,3.61.45,1.93,1.4,3.57,1.82,1.14,2.76,2.78,1.55,1.3,2.49,2.94-.57,2.52.38,4.16.95,1.64,1.89,3.28,3.01.45,3.96,2.09.48,1.91,1.42,3.55.09,2.14,1.03,3.78,1.85,1.12,2.8,2.76,0,2.19.94,3.83.74,1.76,1.69,3.4.47,1.92,1.41,3.56,2.91.51,3.85,2.15-.54,2.5.4,4.14.26,2.03,1.21,3.67,3.09.4,4.04,2.04-.21,2.31.73,3.95,2.46.77,3.41,2.41-.14,2.27.81,3.91.52,1.88,1.47,3.53,1.18,1.51,2.13,3.15,2.23.9,3.18,2.54-1,2.76-.05,4.4,2.1.97,3.05,2.61.93,1.65,1.88,3.29,1.42,1.37,2.37,3.01,1.11,1.55,2.06,3.19.06,2.16,1,3.8-.23,2.32.72,3.96,1.71,1.2,2.66,2.84.65,1.82,1.59,3.46,2.05,1,3,2.65-.33,2.38.62,4.02,1.9,1.09,2.85,2.73-.1,2.25.85,3.89,2.46.77,3.41,2.41.36,1.98,1.3,3.63,1.42,1.37,2.37,3.01-.85,2.68.1,4.32,1.23,1.48,2.18,3.12,1.58,1.28,2.53,2.92,1.27,1.45,2.22,3.09.23,2.06,1.18,3.7,2.38.82,3.32,2.46-.88,2.7.07,4.34,2.04,1.01,2.99,2.65,1.04,1.59,1.99,3.23-.32,2.37.63,4.01,1.47,1.34,2.41,2.99,1.19,1.5,2.14,3.14.2,2.07,1.15,3.71,1.18,1.51,2.13,3.15.57,1.86,1.52,3.5,2.39.81,3.34,2.45-.16,2.28.78,3.93,1.12,1.55,2.06,3.19,1.69,1.21,2.64,2.86.12,2.12,1.07,3.76,2.2.92,3.15,2.57.5,1.9,1.45,3.55,1.38,1.39,2.33,3.03,1.62,1.26,2.57,2.9-1.39,2.99-.44,4.64,3.11.4,4.06,2.04.58,1.86,1.54,3.51,1.98,1.73,1.03,3.38-1.53-.16-3.42-.16-1.89,1.4-3.79,1.4-1.89-2.28-3.79-2.28-1.89,2.07-3.79,2.07-1.89-1.05-3.79-1.05-1.89.79-3.79.79-1.89-.68-3.79-.68-1.89.93-3.79.93-1.89-2.09-3.79-2.09-1.89.78-3.79.78-1.89.48-3.79.48-1.89,1.1-3.79,1.1-1.89-.72-3.79-.72-1.89-1.73-3.79-1.73-1.89,2.8-3.79,2.8-1.89-.09-3.79-.09-1.89-.78-3.79-.78-1.89.03-3.79.03-1.89-1.79-3.79-1.79-1.89,1.55-3.79,1.55-1.89-1-3.79-1-1.9-.84-3.79-.84-1.89.97-3.79.97-1.89.63-3.79.63-1.89.19-3.79.19-1.89-1.38-3.79-1.38-1.89,1.85-3.79,1.85-1.89-.2-3.79-.2-1.89-.1-3.79-.1-1.89.42-3.79.42-1.89-1.26-3.79-1.26-1.9,1.18-3.79,1.18-1.89-.7-3.79-.7-1.89-.93-3.79-.93-1.89-.24-3.79-.24-1.89,1.03-3.79,1.03-1.89-.64-3.79-.64-1.89-.02-3.79-.02-1.89.03-3.79.03-1.9-.54-3.79-.54-1.89.09-3.79.09-1.89,2.37-3.79,2.37-1.89-.88-3.79-.88-1.89.77-3.79.77-1.89-1.64-3.79-1.64-1.89.4-3.79.4-1.9.49-3.79.49-1.89.93-3.79.93-1.89-2.62-3.79-2.62-1.89,1.98-3.79,1.98-1.89-.18-3.79-.18-1.89-1.99-3.79-1.99-1.9,2.03-3.79,2.03-1.9-.89-3.79-.89-1.89-.4-3.79-.4-1.89.99-3.79.99-1.89,1.1-3.79,1.1-1.9-2.79-3.79-2.79-1.9,2.84-3.79,2.84-1.89-2.25-3.78-2.25-1.89.64-3.79.64-1.89,1.09-3.79,1.09-1.9-.7-3.79-.7-1.89-1.23-3.79-1.23-1.89,1.5-3.79,1.5-1.89-.75-3.79-.75-1.89-.87-3.79-.87-1.89.11-3.79.11-1.89.13-3.79.13-1.9.08-3.79.08-1.9,1.17-3.79,1.17-1.89.49-3.79.49-1.89-1.07-3.79-1.07-1.89-.42-3.79-.42-1.89,2.03-3.79,2.03-1.9-.14-3.79-.14-1.9.09-3.79.09-1.89-2.72-3.79-2.72-1.89,2.03-3.79,2.03-1.89.27-3.79.27-1.9-.87-3.79-.87-1.9-.08-3.79-.08-1.89.14-3.79.14-1.9-.45-3.79-.45-1.9.32-3.79.32-1.9.57-3.79.57-1.9.11-3.79.11-1.9-1.53-3.79-1.53-1.9.97-3.79.97-1.9-1.28-3.79-1.28-1.9,1.74-3.79,1.74-1.9.04-3.79.04-1.9-.16-3.79-.16-1.9-1.82-3.79-1.82-1.9,2.68-3.79,2.68-1.9-2.5-3.79-2.5-1.89.72-3.79.72-1.9.07-3.79.07-1.9-.38-3.79-.38-1.9,1.63-3.79,1.63-1.9.36-3.79.36-1.9-.08-3.79-.08-1.9-.82-3.8-.82-1.9-.84-3.8-.84-1.9.81-3.8.81-1.9.17-3.79.17-1.9.53-3.79.53-1.9-2.4-3.8-2.4-1.9,2.35-3.8,2.35-2.64.66-3.6-.98,1.91-.84,2.86-2.48.53-1.88,1.48-3.52-.89-2.7.05-4.34,1.55-1.29,2.49-2.93,1.78-1.16,2.72-2.8,1.56-1.29,2.51-2.93-1.26-2.91-.31-4.55,2.97-.47,3.92-2.11.07-2.15,1.01-3.79.93-1.65,1.88-3.29.32-2,1.26-3.65.73-1.77,1.68-3.41,2.72-.62,3.67-2.26,1.21-1.49,2.15-3.13-.72-2.6.23-4.24.97-1.63,1.91-3.27,1.46-1.35,2.4-2.98,1.18-1.5,2.13-3.14-.06-2.22.88-3.86,1.57-1.28,2.52-2.92.8-1.72,1.75-3.36,2.21-.91,3.16-2.55.72-1.77,1.67-3.41.11-2.12,1.06-3.76.39-1.96,1.34-3.6,1.6-1.26,2.55-2.9-.1-2.24.85-3.88,1.32-1.42,2.27-3.06,1.74-1.18,2.68-2.82,1.95-1.06,2.9-2.7-.05-2.22.9-3.86,1.07-1.57,2.02-3.21-.49-2.47.45-4.11,2.91-.51,3.86-2.15-.88-2.7.06-4.34,1.66-1.23,2.6-2.87.51-1.89,1.45-3.53,1.81-1.14,2.76-2.78.54-1.88,1.48-3.52,1.67-1.22,2.62-2.87,1.85-1.12,2.8-2.76.74-1.76,1.69-3.4-1.15-2.85-.2-4.49,2.24-.9,3.18-2.54.08-2.14,1.02-3.78,2.34-.84,3.29-2.48.55-1.87,1.49-3.51,1.46-1.34,2.41-2.98-.93-2.72.02-4.37,2.28-.87,3.23-2.51,1.66-1.23,2.61-2.87.74-1.76,1.69-3.4.23-2.06,1.18-3.7-.27-2.34.68-3.98,2.51-.74,3.46-2.38-.16-2.28.79-3.92,2.46-.76,3.41-2.4-.04-2.21.91-3.84,1.18-1.5,2.13-3.14,2-1.03,2.95-2.67.69-1.79,1.64-3.43-.83-2.67.11-4.31,1.29-1.44,2.24-3.09.61-1.84,1.56-3.48,2.6-.69,3.55-2.33,1.09-1.56,2.03-3.2-.78-2.64.16-4.28,2.48-.76,3.42-2.4.37-1.97,1.32-3.61.89-1.67,1.84-3.31,1.8-1.15,2.75-2.79-.32-2.37.63-4.01.35-1.98,1.3-3.62,1.54-1.3,2.49-2.94.76-1.75,1.71-3.39,1.95-1.06,2.9-2.71.48-1.91,1.42-3.56.6-1.84,1.55-3.48,1.69-1.21,2.63-2.85.08-2.14,1.02-3.79.31-2.01,1.26-3.65,2.42-.79,3.37-2.43-.08-2.24.86-3.88.98-1.62,1.93-3.26,1.13-1.54,2.08-3.18,1.46-1.35,2.41-2.99,1.28-1.45,2.23-3.09-.4-2.42.55-4.06,2.84-.55,3.78-2.19-.66-2.57.29-4.21.85-1.7,1.79-3.34,2.27-.88,3.22-2.52-.66-2.57.29-4.21,1.52-1.31,2.46-2.95,1.84-1.13,2.79-2.77.64-1.82,1.59-3.46.06-2.15,1.01-3.79,1.62-1.25,2.57-2.9,1.13-1.54,2.07-3.18.28-2.03,1.23-3.67,1.17-1.52,2.11-3.16.54-1.88,1.49-3.52,2.5-.75,3.45-2.39.47-1.92,1.41-3.57,1.74-1.19,2.69-2.83.87-1.69,1.82-3.33-.27-2.35.68-3.99.77-1.75,1.71-3.4,1.84-1.21,2.49-3c.53-1.47-.21-2.11,1.69-2.11Z" style="fill: #fff;"/>
  <path d="M250.01,59.76c1.89,0-.26,1.08.68,2.72s2.51.74,3.45,2.38,1.66,1.23,2.61,2.87-.36,2.39.59,4.03,2.3.86,3.25,2.5-.74,2.61.21,4.25,1.88,1.1,2.83,2.74,1.43,1.36,2.37,3-.41,2.43.53,4.07,1.38,1.39,2.33,3.03,1.88,1.1,2.82,2.74,0,2.19.94,3.83,2.01,1.03,2.96,2.67-.92,2.72.02,4.36.99,1.61,1.94,3.25,1.51,1.32,2.45,2.95.37,1.97,1.32,3.61,1.94,1.07,2.88,2.71-.08,2.23.87,3.87.84,1.7,1.79,3.34,1.99,1.04,2.94,2.68,1.16,1.52,2.1,3.16.68,1.79,1.63,3.44,1.18,1.5,2.13,3.14-.24,2.32.71,3.96,1.64,1.24,2.59,2.88.16,2.09,1.11,3.73,2.66.65,3.6,2.29.85,1.7,1.79,3.34,1.49,1.33,2.44,2.97-.99,2.76-.04,4.4,1.12,1.54,2.07,3.18,1.66,1.23,2.61,2.87,1.59,1.27,2.53,2.91.81,1.72,1.76,3.36-.51,2.48.43,4.12,1.14,1.53,2.09,3.17.98,1.62,1.92,3.26,2.57.7,3.52,2.34-.04,2.21.91,3.85,1.17,1.51,2.11,3.16.92,1.66,1.87,3.3.85,1.7,1.8,3.34.38,1.97,1.32,3.61.45,1.93,1.4,3.57,1.82,1.14,2.76,2.78,1.55,1.3,2.49,2.94-.57,2.52.38,4.16.95,1.64,1.89,3.28,3.01.45,3.96,2.09.48,1.91,1.42,3.55.09,2.14,1.03,3.78,1.85,1.12,2.8,2.76,0,2.19.94,3.83.74,1.76,1.69,3.4.47,1.92,1.41,3.56,2.91.51,3.85,2.15-.54,2.5.4,4.14.26,2.03,1.21,3.67,3.09.4,4.04,2.04-.21,2.31.73,3.95,2.46.77,3.41,2.41-.14,2.27.81,3.91.52,1.88,1.47,3.53,1.18,1.51,2.13,3.15,2.23.9,3.18,2.54-1,2.76-.05,4.4,2.1.97,3.05,2.61.93,1.65,1.88,3.29,1.42,1.37,2.37,3.01,1.11,1.55,2.06,3.19.06,2.16,1,3.8-.23,2.32.72,3.96,1.71,1.2,2.66,2.84.65,1.82,1.59,3.46,2.05,1,3,2.65-.33,2.38.62,4.02,1.9,1.09,2.85,2.73-.1,2.25.85,3.89,2.46.77,3.41,2.41.36,1.98,1.3,3.63,1.42,1.37,2.37,3.01-.85,2.68.1,4.32,1.23,1.48,2.18,3.12,1.58,1.28,2.53,2.92,1.27,1.45,2.22,3.09.23,2.06,1.18,3.7,2.38.82,3.32,2.46-.88,2.7.07,4.34,2.04,1.01,2.99,2.65,1.04,1.59,1.99,3.23-.32,2.37.63,4.01,1.47,1.34,2.41,2.99,1.19,1.5,2.14,3.14.2,2.07,1.15,3.71,1.18,1.51,2.13,3.15.57,1.86,1.52,3.5,2.39.81,3.34,2.45-.16,2.28.78,3.93,1.12,1.55,2.06,3.19,1.69,1.21,2.64,2.86.12,2.12,1.07,3.76,2.2.92,3.15,2.57.5,1.9,1.45,3.55,1.38,1.39,2.33,3.03,1.62,1.26,2.57,2.9-1.39,2.99-.44,4.64,3.11.4,4.06,2.04.58,1.86,1.54,3.51,1.98,1.73,1.03,3.38-1.53-.16-3.42-.16-1.89,1.4-3.79,1.4-1.89-2.28-3.79-2.28-1.89,2.07-3.79,2.07-1.89-1.05-3.79-1.05-1.89.79-3.79.79-1.89-.68-3.79-.68-1.89.93-3.79.93-1.89-2.09-3.79-2.09-1.89.78-3.79.78-1.89.48-3.79.48-1.89,1.1-3.79,1.1-1.89-.72-3.79-.72-1.89-1.73-3.79-1.73-1.89,2.8-3.79,2.8-1.89-.09-3.79-.09-1.89-.78-3.79-.78-1.89.03-3.79.03-1.89-1.79-3.79-1.79-1.89,1.55-3.79,1.55-1.89-1-3.79-1-1.9-.84-3.79-.84-1.89.97-3.79.97-1.89.63-3.79.63-1.89.19-3.79.19-1.89-1.38-3.79-1.38-1.89,1.85-3.79,1.85-1.89-.2-3.79-.2-1.89-.1-3.79-.1-1.89.42-3.79.42-1.89-1.26-3.79-1.26-1.9,1.18-3.79,1.18-1.89-.7-3.79-.7-1.89-.93-3.79-.93-1.89-.24-3.79-.24-1.89,1.03-3.79,1.03-1.89-.64-3.79-.64-1.89-.02-3.79-.02-1.89.03-3.79.03-1.9-.54-3.79-.54-1.89.09-3.79.09-1.89,2.37-3.79,2.37-1.89-.88-3.79-.88-1.89.77-3.79.77-1.89-1.64-3.79-1.64-1.89.4-3.79.4-1.9.49-3.79.49-1.89.93-3.79.93-1.89-2.62-3.79-2.62-1.89,1.98-3.79,1.98-1.89-.18-3.79-.18-1.89-1.99-3.79-1.99-1.9,2.03-3.79,2.03-1.9-.89-3.79-.89-1.89-.4-3.79-.4-1.89.99-3.79.99-1.89,1.1-3.79,1.1-1.9-2.79-3.79-2.79-1.9,2.84-3.79,2.84-1.89-2.25-3.78-2.25-1.89.64-3.79.64-1.89,1.09-3.79,1.09-1.9-.7-3.79-.7-1.89-1.23-3.79-1.23-1.89,1.5-3.79,1.5-1.89-.75-3.79-.75-1.89-.87-3.79-.87-1.89.11-3.79.11-1.89.13-3.79.13-1.9.08-3.79.08-1.9,1.17-3.79,1.17-1.89.49-3.79.49-1.89-1.07-3.79-1.07-1.89-.42-3.79-.42-1.89,2.03-3.79,2.03-1.9-.14-3.79-.14-1.9.09-3.79.09-1.89-2.72-3.79-2.72-1.89,2.03-3.79,2.03-1.89.27-3.79.27-1.9-.87-3.79-.87-1.9-.08-3.79-.08-1.89.14-3.79.14-1.9-.45-3.79-.45-1.9.32-3.79.32-1.9.57-3.79.57-1.9.11-3.79.11-1.9-1.53-3.79-1.53-1.9.97-3.79.97-1.9-1.28-3.79-1.28-1.9,1.74-3.79,1.74-1.9.04-3.79.04-1.9-.16-3.79-.16-1.9-1.82-3.79-1.82-1.9,2.68-3.79,2.68-1.9-2.5-3.79-2.5-1.89.72-3.79.72-1.9.07-3.79.07-1.9-.38-3.79-.38-1.9,1.63-3.79,1.63-1.9.36-3.79.36-1.9-.08-3.79-.08-1.9-.82-3.8-.82-1.9-.84-3.8-.84-1.9.81-3.8.81-1.9.17-3.79.17-1.9.53-3.79.53-1.9-2.4-3.8-2.4-1.9,2.35-3.8,2.35-2.64.66-3.6-.98,1.91-.84,2.86-2.48.53-1.88,1.48-3.52-.89-2.7.05-4.34,1.55-1.29,2.49-2.93,1.78-1.16,2.72-2.8,1.56-1.29,2.51-2.93-1.26-2.91-.31-4.55,2.97-.47,3.92-2.11.07-2.15,1.01-3.79.93-1.65,1.88-3.29.32-2,1.26-3.65.73-1.77,1.68-3.41,2.72-.62,3.67-2.26,1.21-1.49,2.15-3.13-.72-2.6.23-4.24.97-1.63,1.91-3.27,1.46-1.35,2.4-2.98,1.18-1.5,2.13-3.14-.06-2.22.88-3.86,1.57-1.28,2.52-2.92.8-1.72,1.75-3.36,2.21-.91,3.16-2.55.72-1.77,1.67-3.41.11-2.12,1.06-3.76.39-1.96,1.34-3.6,1.6-1.26,2.55-2.9-.1-2.24.85-3.88,1.32-1.42,2.27-3.06,1.74-1.18,2.68-2.82,1.95-1.06,2.9-2.7-.05-2.22.9-3.86,1.07-1.57,2.02-3.21-.49-2.47.45-4.11,2.91-.51,3.86-2.15-.88-2.7.06-4.34,1.66-1.23,2.6-2.87.51-1.89,1.45-3.53,1.81-1.14,2.76-2.78.54-1.88,1.48-3.52,1.67-1.22,2.62-2.87,1.85-1.12,2.8-2.76.74-1.76,1.69-3.4-1.15-2.85-.2-4.49,2.24-.9,3.18-2.54.08-2.14,1.02-3.78,2.34-.84,3.29-2.48.55-1.87,1.49-3.51,1.46-1.34,2.41-2.98-.93-2.72.02-4.37,2.28-.87,3.23-2.51,1.66-1.23,2.61-2.87.74-1.76,1.69-3.4.23-2.06,1.18-3.7-.27-2.34.68-3.98,2.51-.74,3.46-2.38-.16-2.28.79-3.92,2.46-.76,3.41-2.4-.04-2.21.91-3.84,1.18-1.5,2.13-3.14,2-1.03,2.95-2.67.69-1.79,1.64-3.43-.83-2.67.11-4.31,1.29-1.44,2.24-3.09.61-1.84,1.56-3.48,2.6-.69,3.55-2.33,1.09-1.56,2.03-3.2-.78-2.64.16-4.28,2.48-.76,3.42-2.4.37-1.97,1.32-3.61.89-1.67,1.84-3.31,1.8-1.15,2.75-2.79-.32-2.37.63-4.01.35-1.98,1.3-3.62,1.54-1.3,2.49-2.94.76-1.75,1.71-3.39,1.95-1.06,2.9-2.71.48-1.91,1.42-3.56.6-1.84,1.55-3.48,1.69-1.21,2.63-2.85.08-2.14,1.02-3.79.31-2.01,1.26-3.65,2.42-.79,3.37-2.43-.08-2.24.86-3.88.98-1.62,1.93-3.26,1.13-1.54,2.08-3.18,1.46-1.35,2.41-2.99,1.28-1.45,2.23-3.09-.4-2.42.55-4.06,2.84-.55,3.78-2.19-.66-2.57.29-4.21.85-1.7,1.79-3.34,2.27-.88,3.22-2.52-.66-2.57.29-4.21,1.52-1.31,2.46-2.95,1.84-1.13,2.79-2.77.64-1.82,1.59-3.46.06-2.15,1.01-3.79,1.62-1.25,2.57-2.9,1.13-1.54,2.07-3.18.28-2.03,1.23-3.67,1.17-1.52,2.11-3.16.54-1.88,1.49-3.52,2.5-.75,3.45-2.39.47-1.92,1.41-3.57,1.74-1.19,2.69-2.83.87-1.69,1.82-3.33-.27-2.35.68-3.99.77-1.75,1.71-3.4,1.84-1.21,2.49-3c.53-1.47-.21-2.11,1.69-2.11Z" style="fill: none; stroke: #000; stroke-miterlimit: 10; stroke-width: 15px;"/>
</svg>