<?xml version="1.0" encoding="UTF-8"?>
<svg id="Sticker" xmlns="http://www.w3.org/2000/svg" width="1000" height="1000" viewBox="0 0 1000 1000">
  <g>
    <polygon points="500.898 749.455 504.53 756.428 508.17 756.85 511.762 755.256 515.423 756.209 518.811 751.078 522.344 750.095 525.917 749.935 529.895 754.971 533.253 751.722 536.62 749.161 540.411 750.967 543.563 746.943 547.577 750.267 550.871 747.793 554.716 749.327 558.753 751.831 562.496 752.2 566.006 751.149 568.36 743.977 571.692 742.427 575.004 740.858 579.612 745.309 582.448 741.541 585.334 738.24 588.901 737.873 593.432 741.17 597.317 741.756 599.089 734.721 603.635 737.621 606.838 735.814 612.082 740.561 613.699 733.748 617.09 732.592 621.715 734.996 623.14 728.237 627.888 730.815 629.442 724.771 635.485 730.463 636.047 722.165 641.338 725.654 644.27 723.348 648.573 724.218 649.839 718.215 654.968 720.81 656.732 716.098 660.009 714.655 664.225 715.092 669.144 716.808 672.462 715.302 672.125 706.964 674.796 704.42 680.597 707.489 684.872 707.684 685.972 702.385 689.514 701.305 692.897 699.93 696.833 699.416 695.856 691.181 699.022 689.535 704.483 691.306 707.204 688.911 713.012 690.953 712.949 684.592 714.964 681.259 720.691 682.971 719.319 675.167 726.184 678.233 730.028 677.263 732.534 674.582 732.275 668.552 733.472 664.405 736.286 662.223 743.501 665.082 742.867 658.913 744.081 654.927 747.02 652.869 751.246 652.161 757.037 653.013 753.785 644.516 757.442 643.157 759.108 639.801 765.406 640.932 768.125 638.545 766.185 631.839 774.369 634.472 775.73 630.834 773.882 624.434 776.495 621.991 784.678 624.206 783.722 618.718 782.456 613.086 788.745 613.531 790.804 610.574 794.171 608.613 796.112 605.557 797.311 601.967 802.987 601.596 803.142 597.265 800.051 590.77 804.425 589.42 803.806 584.73 809.033 583.861 814.724 583.193 810.22 576.161 817.585 576.431 820.571 573.981 816.928 567.695 820.846 565.794 820.307 561.393 826.161 560.474 827.571 557.126 823.107 550.786 829.608 550.059 831.954 547.193 829.538 542.051 832.742 539.601 833.758 536.125 833.345 532.035 841.408 531.601 840.381 527.242 841.758 523.909 846.23 521.787 838.766 515.054 841.98 512.458 849.219 511.259 845.754 506.214 847.883 503.15 848.706 499.639 852.703 497.131 847.799 491.863 853.193 489.733 857.26 487.134 854.904 482.73 857.461 479.676 852.068 474.6 853.698 471.337 859.112 468.922 854.107 464.136 861.579 462.066 857.308 457.534 856.762 453.803 857.318 450.291 864.913 447.958 866.479 444.535 867.028 440.943 865.666 437.089 860.663 432.809 863.639 429.572 866.322 426.253 861.892 422.196 862.658 418.689 861.251 415.003 862.825 411.552 864 408.052 864.906 404.519 862.817 400.858 865.077 397.364 863.497 393.755 863.574 390.193 866.438 388.046 863.304 381.904 859.698 388.416 856.093 389.17 852.488 384.973 848.884 385.887 845.279 383.212 841.68 386.773 838.08 386.692 834.48 386.667 830.879 384.727 827.278 381.778 823.676 383.302 820.073 388.396 816.47 382.412 812.867 386.585 809.262 382.4 805.657 388.895 802.051 386.499 798.445 388.661 794.84 382.824 791.236 390.311 787.632 382.764 784.029 386.471 780.427 390.279 776.825 384.771 773.223 384.421 769.622 382.46 766.021 391.504 762.421 390.388 758.82 390.198 755.22 390.891 751.62 388.535 748.019 387.899 744.419 382.679 740.819 383.369 737.218 389.632 733.617 383.263 730.016 385.952 726.415 389.845 722.813 388.425 719.211 386.534 715.608 386.644 712.004 387.922 708.4 387.841 704.795 382.304 701.19 387.392 697.583 388.283 693.976 390.392 690.371 382.057 686.766 386.821 683.161 389.029 679.558 391.358 675.954 383.712 672.351 385.086 668.749 386.773 665.147 386.45 661.545 388.702 657.943 389.044 654.341 387.268 650.739 390.512 647.137 381.872 643.535 386.12 639.932 383.413 636.329 388.811 632.725 384.532 629.121 390.92 625.516 383.423 621.911 387.497 618.304 385.957 614.697 383.669 611.09 386.996 607.484 384.774 603.879 383.666 600.274 384.523 596.67 382.274 593.066 389.373 589.463 387.776 585.859 382.822 582.256 391.424 578.653 387.854 575.049 389.756 571.446 385.347 567.842 387.636 564.237 387.33 560.632 390.88 557.026 382.645 553.42 391.37 549.812 385.164 546.205 390.711 542.598 387.488 538.992 388.645 535.387 382.192 531.782 390.908 528.178 384.508 524.574 389.195 520.969 391.054 517.365 384.678 513.76 385.103 510.155 387.302 506.549 386.176 502.943 387.194 499.336 386.65 495.727 383.112 492.12 386.984 488.513 387.266 484.907 390.097 481.302 387.259 477.697 390.898 474.092 385.615 470.486 385.003 466.881 386.596 463.275 387.668 459.668 390.021 456.061 386.071 452.452 383.857 448.844 381.634 445.238 382.694 441.631 390.26 438.026 389.054 434.42 383.446 430.814 390.155 427.207 388.515 423.601 385.42 419.993 387.827 416.384 390.953 412.776 391.197 409.169 387.733 405.563 388.926 401.956 391.524 398.35 391.258 394.743 385.789 391.135 389.842 387.526 385.51 383.918 384.242 380.311 390.89 376.704 387.86 373.097 386.848 369.49 389.159 365.882 388.112 362.273 381.978 358.665 381.935 355.057 389.298 351.45 382.2 347.842 384.28 344.234 391.196 340.625 387.053 337.017 389.884 333.409 381.722 329.801 385.35 326.198 381.807 322.596 386.428 318.993 389.883 315.39 386.706 311.785 384.95 308.178 389.239 304.568 385.259 300.96 390.78 297.354 391.08 293.749 386.333 290.145 387.656 286.54 388.566 282.933 389.474 279.324 382.481 275.714 389.231 272.107 384.756 268.501 384.856 264.894 390.84 261.287 381.769 257.677 382.238 254.067 391.563 250.459 382.883 246.852 388.74 243.243 388.166 239.631 390.134 236.022 384.451 232.414 383.7 228.804 381.934 225.193 390.415 221.584 390.719 217.974 391.61 214.362 390.353 210.752 390.232 207.141 387.91 203.53 384.621 199.919 390.346 196.308 383.679 192.696 384.554 189.088 388.897 185.477 384.474 181.869 388.116 178.258 390.115 174.648 384.032 171.035 389.617 167.424 383.903 163.812 383.787 160.198 381.639 156.583 384.096 152.969 385.966 149.356 391.285 145.742 384.641 142.128 383.576 138.507 391.23 133.567 382.648 132.144 390.252 139.373 393.735 139.41 397.287 135.906 400.978 132.191 404.749 140.077 407.922 131.458 412.065 133.551 415.55 131.559 419.357 134.527 422.726 137.89 426.001 136.494 429.774 140.55 432.891 142.992 436.157 137.836 440.501 141.324 443.601 142.955 446.952 145.258 450.163 139.89 454.779 137.323 458.963 142.352 461.634 145.44 464.641 140.333 469.474 147.157 471.576 149.944 474.561 147.993 478.738 145.15 483.217 150.209 485.553 146.98 490.222 155.04 491.563 151.15 496.502 156.336 498.601 153.829 503.194 151.222 507.901 154.136 510.717 153.831 514.683 155.106 518.084 161.516 519.473 158.008 524.745 166.592 525.113 166.849 528.865 168.559 532.006 165.259 537.395 171.421 538.528 170.665 542.827 174.886 544.763 172.427 549.962 179.107 550.594 175.119 556.681 177.809 559.333 178.141 563.252 178.131 567.4 181.599 569.596 188.462 569.755 188.371 573.957 191.598 576.173 191.426 580.485 192.296 584.187 193.09 587.967 196.031 590.344 200.355 591.748 200.257 596.173 204.059 597.881 202.15 603.694 203.829 606.963 211.974 605.345 207.649 613.19 216.413 610.907 212.34 618.755 214.981 621.29 220.492 621.41 220.795 625.874 226.474 625.721 225.488 631.38 226.362 635.471 233.397 633.92 232.371 639.804 238.279 639.149 237.296 645.124 241.815 645.731 246.691 645.896 249.072 648.564 250.531 652.217 255.382 652.249 257.625 655.062 259.769 658.005 260.684 662.379 259.969 668.741 267.074 665.934 267.028 671.623 269.178 674.724 273.92 674.575 279.063 673.81 281.636 676.314 281.25 682.815 288.082 679.579 287.611 686.364 291.648 686.89 293.422 690.663 298.093 690.181 299.264 694.932 302.439 696.68 304.278 700.548 311.731 695.359 314.028 698.439 317.463 699.635 319.949 702.459 322.06 705.997 324.047 709.847 328.226 709.706 333.762 706.879 335.486 711.299 336.44 717.406 340.666 717.006 343.306 719.852 346.069 722.497 350.847 720.726 355.969 717.991 358.419 721.294 358.933 729.374 364.303 725.795 369.268 722.958 369.175 733.174 374.627 728.912 378.378 729.057 379.474 736.793 383.219 737.069 386.988 737.213 392.656 731.237 395.552 733.905 396.689 742.713 402.361 736.005 403.922 743.87 407.765 743.532 413.132 736.981 415.974 740.338 419.235 742.093 422.127 745.631 425.177 748.682 429.812 743.96 433.152 745.55 436.453 747.47 440.168 747.073 443.592 748.397 446.762 751.558 450.62 750.08 453.9 752.841 457.423 753.925 461.544 749.546 465.364 747.29 468.796 748.891 472.487 747.477 475.562 754.661 479.235 753.894 482.848 753.959 486.619 749.885 490.224 748.733 493.701 752.979 497.336 749.242 500.898 749.455" style="fill: #fff;"/>
    <polygon points="500.898 749.455 504.53 756.428 508.17 756.85 511.762 755.256 515.423 756.209 518.811 751.078 522.344 750.095 525.917 749.935 529.895 754.971 533.253 751.722 536.62 749.161 540.411 750.967 543.563 746.943 547.577 750.267 550.871 747.793 554.716 749.327 558.753 751.831 562.496 752.2 566.006 751.149 568.36 743.977 571.692 742.427 575.004 740.858 579.612 745.309 582.448 741.541 585.334 738.24 588.901 737.873 593.432 741.17 597.317 741.756 599.089 734.721 603.635 737.621 606.838 735.814 612.082 740.561 613.699 733.748 617.09 732.592 621.715 734.996 623.14 728.237 627.888 730.815 629.442 724.771 635.485 730.463 636.047 722.165 641.338 725.654 644.27 723.348 648.573 724.218 649.839 718.215 654.968 720.81 656.732 716.098 660.009 714.655 664.225 715.092 669.144 716.808 672.462 715.302 672.125 706.964 674.796 704.42 680.597 707.489 684.872 707.684 685.972 702.385 689.514 701.305 692.897 699.93 696.833 699.416 695.856 691.181 699.022 689.535 704.483 691.306 707.204 688.911 713.012 690.953 712.949 684.592 714.964 681.259 720.691 682.971 719.319 675.167 726.184 678.233 730.028 677.263 732.534 674.582 732.275 668.552 733.472 664.405 736.286 662.223 743.501 665.082 742.867 658.913 744.081 654.927 747.02 652.869 751.246 652.161 757.037 653.013 753.785 644.516 757.442 643.157 759.108 639.801 765.406 640.932 768.125 638.545 766.185 631.839 774.369 634.472 775.73 630.834 773.882 624.434 776.495 621.991 784.678 624.206 783.722 618.718 782.456 613.086 788.745 613.531 790.804 610.574 794.171 608.613 796.112 605.557 797.311 601.967 802.987 601.596 803.142 597.265 800.051 590.77 804.425 589.42 803.806 584.73 809.033 583.861 814.724 583.193 810.22 576.161 817.585 576.431 820.571 573.981 816.928 567.695 820.846 565.794 820.307 561.393 826.161 560.474 827.571 557.126 823.107 550.786 829.608 550.059 831.954 547.193 829.538 542.051 832.742 539.601 833.758 536.125 833.345 532.035 841.408 531.601 840.381 527.242 841.758 523.909 846.23 521.787 838.766 515.054 841.98 512.458 849.219 511.259 845.754 506.214 847.883 503.15 848.706 499.639 852.703 497.131 847.799 491.863 853.193 489.733 857.26 487.134 854.904 482.73 857.461 479.676 852.068 474.6 853.698 471.337 859.112 468.922 854.107 464.136 861.579 462.066 857.308 457.534 856.762 453.803 857.318 450.291 864.913 447.958 866.479 444.535 867.028 440.943 865.666 437.089 860.663 432.809 863.639 429.572 866.322 426.253 861.892 422.196 862.658 418.689 861.251 415.003 862.825 411.552 864 408.052 864.906 404.519 862.817 400.858 865.077 397.364 863.497 393.755 863.574 390.193 866.438 388.046 863.304 381.904 859.698 388.416 856.093 389.17 852.488 384.973 848.884 385.887 845.279 383.212 841.68 386.773 838.08 386.692 834.48 386.667 830.879 384.727 827.278 381.778 823.676 383.302 820.073 388.396 816.47 382.412 812.867 386.585 809.262 382.4 805.657 388.895 802.051 386.499 798.445 388.661 794.84 382.824 791.236 390.311 787.632 382.764 784.029 386.471 780.427 390.279 776.825 384.771 773.223 384.421 769.622 382.46 766.021 391.504 762.421 390.388 758.82 390.198 755.22 390.891 751.62 388.535 748.019 387.899 744.419 382.679 740.819 383.369 737.218 389.632 733.617 383.263 730.016 385.952 726.415 389.845 722.813 388.425 719.211 386.534 715.608 386.644 712.004 387.922 708.4 387.841 704.795 382.304 701.19 387.392 697.583 388.283 693.976 390.392 690.371 382.057 686.766 386.821 683.161 389.029 679.558 391.358 675.954 383.712 672.351 385.086 668.749 386.773 665.147 386.45 661.545 388.702 657.943 389.044 654.341 387.268 650.739 390.512 647.137 381.872 643.535 386.12 639.932 383.413 636.329 388.811 632.725 384.532 629.121 390.92 625.516 383.423 621.911 387.497 618.304 385.957 614.697 383.669 611.09 386.996 607.484 384.774 603.879 383.666 600.274 384.523 596.67 382.274 593.066 389.373 589.463 387.776 585.859 382.822 582.256 391.424 578.653 387.854 575.049 389.756 571.446 385.347 567.842 387.636 564.237 387.33 560.632 390.88 557.026 382.645 553.42 391.37 549.812 385.164 546.205 390.711 542.598 387.488 538.992 388.645 535.387 382.192 531.782 390.908 528.178 384.508 524.574 389.195 520.969 391.054 517.365 384.678 513.76 385.103 510.155 387.302 506.549 386.176 502.943 387.194 499.336 386.65 495.727 383.112 492.12 386.984 488.513 387.266 484.907 390.097 481.302 387.259 477.697 390.898 474.092 385.615 470.486 385.003 466.881 386.596 463.275 387.668 459.668 390.021 456.061 386.071 452.452 383.857 448.844 381.634 445.238 382.694 441.631 390.26 438.026 389.054 434.42 383.446 430.814 390.155 427.207 388.515 423.601 385.42 419.993 387.827 416.384 390.953 412.776 391.197 409.169 387.733 405.563 388.926 401.956 391.524 398.35 391.258 394.743 385.789 391.135 389.842 387.526 385.51 383.918 384.242 380.311 390.89 376.704 387.86 373.097 386.848 369.49 389.159 365.882 388.112 362.273 381.978 358.665 381.935 355.057 389.298 351.45 382.2 347.842 384.28 344.234 391.196 340.625 387.053 337.017 389.884 333.409 381.722 329.801 385.35 326.198 381.807 322.596 386.428 318.993 389.883 315.39 386.706 311.785 384.95 308.178 389.239 304.568 385.259 300.96 390.78 297.354 391.08 293.749 386.333 290.145 387.656 286.54 388.566 282.933 389.474 279.324 382.481 275.714 389.231 272.107 384.756 268.501 384.856 264.894 390.84 261.287 381.769 257.677 382.238 254.067 391.563 250.459 382.883 246.852 388.74 243.243 388.166 239.631 390.134 236.022 384.451 232.414 383.7 228.804 381.934 225.193 390.415 221.584 390.719 217.974 391.61 214.362 390.353 210.752 390.232 207.141 387.91 203.53 384.621 199.919 390.346 196.308 383.679 192.696 384.554 189.088 388.897 185.477 384.474 181.869 388.116 178.258 390.115 174.648 384.032 171.035 389.617 167.424 383.903 163.812 383.787 160.198 381.639 156.583 384.096 152.969 385.966 149.356 391.285 145.742 384.641 142.128 383.576 138.507 391.23 133.567 382.648 132.144 390.252 139.373 393.735 139.41 397.287 135.906 400.978 132.191 404.749 140.077 407.922 131.458 412.065 133.551 415.55 131.559 419.357 134.527 422.726 137.89 426.001 136.494 429.774 140.55 432.891 142.992 436.157 137.836 440.501 141.324 443.601 142.955 446.952 145.258 450.163 139.89 454.779 137.323 458.963 142.352 461.634 145.44 464.641 140.333 469.474 147.157 471.576 149.944 474.561 147.993 478.738 145.15 483.217 150.209 485.553 146.98 490.222 155.04 491.563 151.15 496.502 156.336 498.601 153.829 503.194 151.222 507.901 154.136 510.717 153.831 514.683 155.106 518.084 161.516 519.473 158.008 524.745 166.592 525.113 166.849 528.865 168.559 532.006 165.259 537.395 171.421 538.528 170.665 542.827 174.886 544.763 172.427 549.962 179.107 550.594 175.119 556.681 177.809 559.333 178.141 563.252 178.131 567.4 181.599 569.596 188.462 569.755 188.371 573.957 191.598 576.173 191.426 580.485 192.296 584.187 193.09 587.967 196.031 590.344 200.355 591.748 200.257 596.173 204.059 597.881 202.15 603.694 203.829 606.963 211.974 605.345 207.649 613.19 216.413 610.907 212.34 618.755 214.981 621.29 220.492 621.41 220.795 625.874 226.474 625.721 225.488 631.38 226.362 635.471 233.397 633.92 232.371 639.804 238.279 639.149 237.296 645.124 241.815 645.731 246.691 645.896 249.072 648.564 250.531 652.217 255.382 652.249 257.625 655.062 259.769 658.005 260.684 662.379 259.969 668.741 267.074 665.934 267.028 671.623 269.178 674.724 273.92 674.575 279.063 673.81 281.636 676.314 281.25 682.815 288.082 679.579 287.611 686.364 291.648 686.89 293.422 690.663 298.093 690.181 299.264 694.932 302.439 696.68 304.278 700.548 311.731 695.359 314.028 698.439 317.463 699.635 319.949 702.459 322.06 705.997 324.047 709.847 328.226 709.706 333.762 706.879 335.486 711.299 336.44 717.406 340.666 717.006 343.306 719.852 346.069 722.497 350.847 720.726 355.969 717.991 358.419 721.294 358.933 729.374 364.303 725.795 369.268 722.958 369.175 733.174 374.627 728.912 378.378 729.057 379.474 736.793 383.219 737.069 386.988 737.213 392.656 731.237 395.552 733.905 396.689 742.713 402.361 736.005 403.922 743.87 407.765 743.532 413.132 736.981 415.974 740.338 419.235 742.093 422.127 745.631 425.177 748.682 429.812 743.96 433.152 745.55 436.453 747.47 440.168 747.073 443.592 748.397 446.762 751.558 450.62 750.08 453.9 752.841 457.423 753.925 461.544 749.546 465.364 747.29 468.796 748.891 472.487 747.477 475.562 754.661 479.235 753.894 482.848 753.959 486.619 749.885 490.224 748.733 493.701 752.979 497.336 749.242 500.898 749.455" style="fill: none; stroke: #000; stroke-linecap: round; stroke-linejoin: round; stroke-width: 35px;"/>
  </g>
  <g>
    <polygon points="500.898 609.552 504.553 610.915 508.025 605.683 511.71 607.862 515.039 603.864 518.558 603.507 522.919 610.989 526.429 609.422 530.012 608.647 533.831 609.382 537.573 609.417 539.591 600.711 543.339 601.282 546.741 600.188 550.395 600.11 554.966 603.229 556.497 595.563 561.855 600.819 564.024 595.85 566.319 591.665 572.354 597.706 574.801 593.986 576.246 588.12 582.878 594.438 585.936 592.311 587.718 587.612 590.063 584.298 593.205 582.628 598.363 584.592 600.046 580.247 605.304 582.033 607.873 579.249 608.398 573.403 612.364 572.917 616.534 572.605 619.986 571.184 623.112 569.281 626.784 568.048 624.013 558.881 628.64 558.905 634.051 559.654 633.649 553.825 640.381 555.762 641.522 551.699 642.924 547.997 648.905 548.712 648.607 543.454 652.396 541.979 653.649 538.259 654.67 534.418 657.449 532.041 655.877 526.319 665.436 528.969 661.559 521.727 663.386 518.678 665.925 516.103 668.206 513.335 670.414 510.505 676.763 510.052 674.367 504.531 679.76 503.343 675.493 497.075 676.848 493.805 681.084 491.878 686.706 490.443 684.498 485.54 683.189 481.149 688.983 479.553 691.194 476.489 689.871 472.194 695.18 470.099 696.337 466.604 694.67 462.323 690.779 457.572 698.691 455.818 697.797 451.864 694.323 447.457 695.248 444.005 695.684 440.463 701.763 437.739 702.766 434.171 701.49 430.339 702.031 426.731 695.919 422.639 704.699 419.571 695.953 415.574 698.851 412.098 701.402 404.918 696.607 403.729 693.02 404.989 689.433 405.733 685.846 410.758 682.258 404.873 678.671 409.352 675.083 411.041 671.494 410.412 667.905 406.761 664.315 409.789 660.724 413.021 657.134 413.36 653.544 407.225 649.955 412.959 646.367 410.719 642.779 410.608 639.191 409.762 635.603 407.672 632.015 408.547 628.426 408.584 624.837 407.077 621.246 410.798 617.655 411.751 614.064 409.742 610.475 403.554 606.885 406.074 603.297 409.081 599.708 408.733 596.119 404.469 592.53 407.4 588.941 412.999 585.35 408.198 581.758 404.749 578.168 413.156 574.578 412.698 570.988 413.258 567.399 405.098 563.81 413.124 560.22 410.281 556.63 408.758 553.038 408.293 549.447 404.568 545.857 405.387 542.267 408.323 538.677 413.479 535.087 409.037 531.497 408.594 527.905 409.299 524.314 411.25 520.723 406.454 517.133 408.9 513.543 412.629 509.952 407.359 506.361 408.049 502.769 405.595 499.178 411.738 495.588 407.843 492.002 404.709 488.417 409.852 484.831 409.481 481.245 413.388 477.657 412.294 474.068 406.322 470.475 407.224 466.884 405.747 463.295 410.49 459.708 410.075 456.12 405.11 452.532 404.022 448.943 406.763 445.351 409.176 441.759 407.588 438.168 403.621 434.579 411.969 430.99 408.22 427.4 413.247 423.807 405.698 420.214 409.19 416.624 413.143 413.033 413.038 409.442 409.902 405.847 412.348 402.255 412.605 398.664 405.934 395.071 408.238 391.478 406.179 387.886 406.274 384.293 406.097 380.698 412.844 377.106 404.107 373.511 405.318 369.918 410.605 366.324 405.52 362.73 405.593 359.135 405.411 355.545 411.811 351.951 411.802 348.361 409.521 344.766 407.574 341.174 413.398 337.578 407.392 333.984 405.182 330.389 407.162 326.792 404.18 323.195 409.779 319.598 407.414 316.002 406.306 312.405 408.729 308.808 412.832 305.205 407.47 302.11 410.045 301.979 412.115 300.416 415.766 299.536 419.441 305.61 422.659 299.007 426.799 298.619 430.523 305.513 433.358 303.512 437.24 307.762 440.198 303.306 444.597 309.846 446.987 305.639 451.51 305.773 455.189 303.241 459.582 307.483 462.232 307.573 465.985 308.496 469.512 314.151 471.452 313.941 475.305 315.992 478.361 311.754 483.892 317.296 485.551 315.147 490.429 315.867 494.135 322.74 494.888 321.421 499.568 328.64 499.847 327.573 504.464 324.734 510.238 332.776 509.678 332.817 513.834 331.509 518.967 335.409 520.731 337.113 523.947 337.469 528.172 339.31 531.366 342.339 533.644 346.445 534.993 349.685 536.969 350.079 541.398 357.224 539.784 358.411 543.5 357.317 549.543 359.089 552.924 360.437 556.814 366.571 555.569 369.023 558.225 369.521 563.2 374.331 563.112 380.512 561.107 378.531 569.504 383.062 569.497 388.628 567.858 389.605 572.684 389.483 579.418 395.712 576.423 398.943 577.991 400.367 582.659 403.603 584.309 405.391 588.674 410.977 585.807 413.151 589.545 418.851 585.88 419.471 593.209 422.53 595.335 426.84 594.399 428.743 599.581 432.343 600.464 438.631 593.322 441.118 597.127 444.7 597.611 447.107 602.259 450.606 603.226 455.01 600.403 457.658 604.957 462.03 601.609 465.871 600.358 468.69 604.945 472.713 602.225 475.709 606.728 479.502 605.196 483.35 602.257 486.657 605.274 490.054 608.47 493.526 612.581 497.303 607.505 500.898 609.552"/>
    <polygon points="500.898 609.552 504.553 610.915 508.025 605.683 511.71 607.862 515.039 603.864 518.558 603.507 522.919 610.989 526.429 609.422 530.012 608.647 533.831 609.382 537.573 609.417 539.591 600.711 543.339 601.282 546.741 600.188 550.395 600.11 554.966 603.229 556.497 595.563 561.855 600.819 564.024 595.85 566.319 591.665 572.354 597.706 574.801 593.986 576.246 588.12 582.878 594.438 585.936 592.311 587.718 587.612 590.063 584.298 593.205 582.628 598.363 584.592 600.046 580.247 605.304 582.033 607.873 579.249 608.398 573.403 612.364 572.917 616.534 572.605 619.986 571.184 623.112 569.281 626.784 568.048 624.013 558.881 628.64 558.905 634.051 559.654 633.649 553.825 640.381 555.762 641.522 551.699 642.924 547.997 648.905 548.712 648.607 543.454 652.396 541.979 653.649 538.259 654.67 534.418 657.449 532.041 655.877 526.319 665.436 528.969 661.559 521.727 663.386 518.678 665.925 516.103 668.206 513.335 670.414 510.505 676.763 510.052 674.367 504.531 679.76 503.343 675.493 497.075 676.848 493.805 681.084 491.878 686.706 490.443 684.498 485.54 683.189 481.149 688.983 479.553 691.194 476.489 689.871 472.194 695.18 470.099 696.337 466.604 694.67 462.323 690.779 457.572 698.691 455.818 697.797 451.864 694.323 447.457 695.248 444.005 695.684 440.463 701.763 437.739 702.766 434.171 701.49 430.339 702.031 426.731 695.919 422.639 704.699 419.571 695.953 415.574 698.851 412.098 701.402 404.918 696.607 403.729 693.02 404.989 689.433 405.733 685.846 410.758 682.258 404.873 678.671 409.352 675.083 411.041 671.494 410.412 667.905 406.761 664.315 409.789 660.724 413.021 657.134 413.36 653.544 407.225 649.955 412.959 646.367 410.719 642.779 410.608 639.191 409.762 635.603 407.672 632.015 408.547 628.426 408.584 624.837 407.077 621.246 410.798 617.655 411.751 614.064 409.742 610.475 403.554 606.885 406.074 603.297 409.081 599.708 408.733 596.119 404.469 592.53 407.4 588.941 412.999 585.35 408.198 581.758 404.749 578.168 413.156 574.578 412.698 570.988 413.258 567.399 405.098 563.81 413.124 560.22 410.281 556.63 408.758 553.038 408.293 549.447 404.568 545.857 405.387 542.267 408.323 538.677 413.479 535.087 409.037 531.497 408.594 527.905 409.299 524.314 411.25 520.723 406.454 517.133 408.9 513.543 412.629 509.952 407.359 506.361 408.049 502.769 405.595 499.178 411.738 495.588 407.843 492.002 404.709 488.417 409.852 484.831 409.481 481.245 413.388 477.657 412.294 474.068 406.322 470.475 407.224 466.884 405.747 463.295 410.49 459.708 410.075 456.12 405.11 452.532 404.022 448.943 406.763 445.351 409.176 441.759 407.588 438.168 403.621 434.579 411.969 430.99 408.22 427.4 413.247 423.807 405.698 420.214 409.19 416.624 413.143 413.033 413.038 409.442 409.902 405.847 412.348 402.255 412.605 398.664 405.934 395.071 408.238 391.478 406.179 387.886 406.274 384.293 406.097 380.698 412.844 377.106 404.107 373.511 405.318 369.918 410.605 366.324 405.52 362.73 405.593 359.135 405.411 355.545 411.811 351.951 411.802 348.361 409.521 344.766 407.574 341.174 413.398 337.578 407.392 333.984 405.182 330.389 407.162 326.792 404.18 323.195 409.779 319.598 407.414 316.002 406.306 312.405 408.729 308.808 412.832 305.205 407.47 302.11 410.045 301.979 412.115 300.416 415.766 299.536 419.441 305.61 422.659 299.007 426.799 298.619 430.523 305.513 433.358 303.512 437.24 307.762 440.198 303.306 444.597 309.846 446.987 305.639 451.51 305.773 455.189 303.241 459.582 307.483 462.232 307.573 465.985 308.496 469.512 314.151 471.452 313.941 475.305 315.992 478.361 311.754 483.892 317.296 485.551 315.147 490.429 315.867 494.135 322.74 494.888 321.421 499.568 328.64 499.847 327.573 504.464 324.734 510.238 332.776 509.678 332.817 513.834 331.509 518.967 335.409 520.731 337.113 523.947 337.469 528.172 339.31 531.366 342.339 533.644 346.445 534.993 349.685 536.969 350.079 541.398 357.224 539.784 358.411 543.5 357.317 549.543 359.089 552.924 360.437 556.814 366.571 555.569 369.023 558.225 369.521 563.2 374.331 563.112 380.512 561.107 378.531 569.504 383.062 569.497 388.628 567.858 389.605 572.684 389.483 579.418 395.712 576.423 398.943 577.991 400.367 582.659 403.603 584.309 405.391 588.674 410.977 585.807 413.151 589.545 418.851 585.88 419.471 593.209 422.53 595.335 426.84 594.399 428.743 599.581 432.343 600.464 438.631 593.322 441.118 597.127 444.7 597.611 447.107 602.259 450.606 603.226 455.01 600.403 457.658 604.957 462.03 601.609 465.871 600.358 468.69 604.945 472.713 602.225 475.709 606.728 479.502 605.196 483.35 602.257 486.657 605.274 490.054 608.47 493.526 612.581 497.303 607.505 500.898 609.552" style="fill: none; stroke: #000; stroke-linecap: round; stroke-linejoin: round; stroke-width: 35px;"/>
  </g>
</svg>