<?xml version="1.0" encoding="UTF-8"?>
<svg id="Sticker" xmlns="http://www.w3.org/2000/svg" width="1000" height="1000" viewBox="0 0 1000 1000">
  <polyline points="204.162 483.208 208.833 483.312 209.369 488.262 213.629 488.735 218.124 488.824 215.607 497.936 223.645 493.338 222.441 500.969 229.299 497.695 230.611 502.001 233.495 504.143 237.355 504.871 238.914 508.956 244 507.807 246.773 510.09 249.28 512.8 249.545 519.087 254.762 517.55 255.83 522.69 257.664 526.666 264.286 522.608 264.016 530.214 269.728 527.546 270.94 532.739 275.295 532.355 277.971 534.994 283.884 531.59 287.503 532.385 290.418 534.52 290.912 541.469 296.698 537.941 296.829 545.838 299.249 549.185 305.311 544.83 309.65 543.994 310.901 549.913 313.247 553.536 316.349 555.502 320.037 556.107 325.532 552.333 327.465 557.088 332.494 554.22 333.504 561.481 336.377 564.123 340.241 564.165 344.992 561.71 347.184 566.284 352.996 560.578 356.195 562.255 357.46 569.83 362.14 567.108 366.523 565.124 368.865 569.69 372.203 571.084 374.776 575.159 379.422 571.969 383.635 570.129 386.938 571.588 389.639 575.462 392.485 578.956 395.568 581.631 400.869 574.7 402.728 582.882 407.587 577.42 410.437 581.373 413.203 586.042 418.255 578.743 420.603 585.969 424.235 586.233 428.839 580.392 431.168 588.844 435.041 587.445 438.836 586.392 441.863 591.207 446.189 585.626 449.867 585.05 453.281 586.922 456.928 586.561 460.502 586.915 464.008 588.196 467.59 588.6 471.218 588.256 474.644 591.76 478.486 586.651 482.01 588.417 485.616 588.013 489.184 589.417 492.788 589.208 496.386 587.469 500.003 590.945 503.562 587.705 507.167 588.315 510.766 588.418 514.268 586.158 518.054 590.109 521.439 586.202 525.262 589.605 528.723 587.493 532.228 586.272 535.583 583.607 539.629 588.086 542.694 582.975 546.596 585.541 550.398 586.929 554.281 588.679 557.584 586.174 561.574 588.358 564.717 585.029 567.776 581.48 570.901 578.583 575.788 585.289 578.664 581.092 582.971 584.19 586.819 584.826 589.013 577.885 593.386 580.877 595.37 573.571 598.808 572.606 604.674 581.162 606.501 573.789 611.599 578.841 614.147 574.442 617.906 574.432 621.996 575.481 623.196 566.966 627.616 569.096 630.183 565.321 633.176 562.97 637.706 565.205 641.586 565.405 645.795 566.463 648.688 563.807 650.315 557.824 653.582 556.346 657 555.259 662.571 559.57 666.295 559.106 670.032 558.637 671.081 551.781 673.718 548.817 677.99 549.621 680.977 547.479 686.244 550.351 687.772 545.029 692.288 546.153 694.046 541.459 699.987 545.406 702.421 542.134 704.025 537.277 708.879 538.837 712.148 537.265 715.259 535.397 717.246 531.451 721.499 531.706 725.934 532.23 725.448 523.965 731.419 527.163 731.845 520.669 735.605 519.968 739.133 518.846 744.74 521.14 745.694 515.739 746.96 510.933 753.309 514.279 755.376 510.774 756.943 506.533 758.327 502.065 765.306 506.106 769.272 505.508 769.136 498.835 772.368 497.172 775.858 495.868 776.726 490.821 778.663 487.336 782.834 486.99" style="fill: none; stroke: #000; stroke-linecap: round; stroke-linejoin: round; stroke-width: 35px;"/>
  <polyline points="779.036 387.362 772.905 390.506 771.156 393.846 775.239 398.34 776.617 402.155 773.507 405.236 773.14 408.77 774.002 412.424 770.626 415.69 769.729 419.233 769.562 422.832 773.144 426.471 771.016 430.018 765.908 433.785 774.413 436.945 771.577 440.699 766.672 444.869 766.927 448.585 770.392 451.754 775.548 454.398 771.399 459 775.13 461.766 773.732 465.937 773.408 469.92 781.279 470.816 779.571 475.323 776.58 480.724 780.254 483.036 787.239 483.233 782.619 490.243 789.159 490.264 786.379 496.781 788.746 499.717 793.469 500.556 800.336 498.979 802.778 501.342 803.584 505.57 804.736 509.703 810.23 508.388 810.683 513.745 814.667 514.184 817.967 515.526 821.381 516.592 822.424 522.208 827.902 519.092 831.337 519.892 831.104 529.734 836.156 526.773 838.434 531.199 842.469 530.598 847.568 525.967 848.633 535.686 853.65 530.578 857.346 530.332 860.826 530.974 863.541 536.004 867.555 533.831 870.616 537.795 874.577 535.379 877.995 537.243" style="fill: none; stroke: #000; stroke-linecap: round; stroke-linejoin: round; stroke-width: 35px;"/>
  <polyline points="121.327 532.604 125.732 537.106 129.5 537.237 131.783 531.61 134.625 528.717 138.748 530.186 142.092 528.987 145.012 526.629 149.419 528.258 153.001 527.532 156.317 526.125 158.047 521.321 162.165 521.704 167.772 524.677 166.939 515.643 171.551 516.573 177.433 519.19 180.673 517.352 182.029 512.856 182.18 507.064 188.125 508.811 189.003 504.251 193.369 503.705 197.099 502.273 194.5 494.79 199.301 494.378 205.465 494.736 205.959 490.423 203.113 484.042 211.432 485.172 208.618 479.269 215.695 478.957 217.316 475.554 216.027 470.936 211.633 465.428 212.707 462.203 216.17 459.646 219.397 456.818 215.833 452.434 220.466 449.707 219.138 445.925 218.919 442.368 218.403 438.829 223.014 435.458 217.833 431.868 217.068 428.425 226.041 424.374 221.184 421.102 224.188 417.131 221.899 413.753 215.517 411.161 223.817 405.994 217.041 403.683 215.219 400.457 214.292 397.041 217.65 392.416 213.954 389.738 216.201 385.262 212.308 382.737 212.509 378.848" style="fill: none; stroke: #000; stroke-linecap: round; stroke-linejoin: round; stroke-width: 35px;"/>
</svg>