<?xml version="1.0" encoding="UTF-8"?>
<svg id="Sticker" xmlns="http://www.w3.org/2000/svg" width="1000" height="1000" viewBox="0 0 1000 1000">
  <g>
    <polyline points="544.139 796.046 550.012 792.443 542.515 788.84 542.968 785.236 543.782 781.631 548.574 778.027 550.163 774.424 545.543 770.822 545.307 767.22 551.208 763.618 544.536 760.016 541.875 756.414 547.221 752.812 541.643 749.21 541.903 745.606 546.662 742.002 551.217 738.397 546.487 734.793 542.493 731.189 544.312 727.587 544.827 723.984 542.213 720.382 548.13 716.779 544.878 713.176 548.033 709.573 544.324 705.968 546.186 702.363 547.618 698.759 542.286 695.155 548.362 691.552 545.775 687.949 549.379 684.346 545.367 680.742 547.471 677.138 547.134 673.533 550.003 669.928 550.515 666.324 546.178 662.72 550.118 659.117 541.918 655.513 543.279 651.909 545.104 648.303 542.762 644.698 546.13 641.094 544.523 637.49 546.275 633.886 545.834 630.282 541.777 626.676 543.011 623.071 543.722 619.466 544.323 615.862 541.452 612.263 546.033 608.664 549.073 605.064 541.8 601.464 549.475 597.863 541.483 594.259 546.797 590.653 548.584 587.048 545.298 583.446 549.849 579.844 548.82 576.243 549.655 572.642 549.235 569.038 549.536 565.433 543.169 561.826 543.253 558.222 542.707 554.62 543.971 551.017 546.361 547.412 546.096 543.806 550.186 540.199 543.92 536.595 544.197 532.991 546.156 529.386 545.018 525.777 543.461 522.172 550.668 518.567 548.937 514.96 546.333 511.353 543.042 507.747 549.656 504.14 548.174 500.532 549.203 496.926 548.068 493.317 549.108 489.71 546.917 486.102 545.261 482.495 546.454 478.886 542.387 475.282 549.915 471.674 545.95 468.07 543.583 464.462 546.47 460.856 543.248 457.246 545.6 453.639 548.097 450.03 541.695 446.419 542.147 442.808 546.508 439.197 546.969 435.587 542.736 431.977 542.926 428.366 543.234 424.749 543.481 422.21 543.404 419.004 544.511 413.372 540.887 411.744 536.245 410.978 537.283 405.407 530.52 406.436 530.102 402.096 530.243 397.282 529.253 393.423 526.612 390.963 522.995 389.332 519.832 387.319 515.844 386.006 517.736 379.717 513.468 378.643 512.692 374.613 506.351 375.293 504.392 372.264 505.504 366.634 498.225 368.102 501.294 360.811 496.04 360.561 490.603 360.464 490.532 355.831 485.456 355.434 485.976 350.305 485.945 345.642 484.964 341.781 480.998 340.447 480.805 335.917 478.306 333.336 475.801 330.757 473.338 328.145 470.819 325.581 466.481 324.56 465.406 320.777 461.685 319.233 460.365 315.655 454.864 315.611 451.97 313.361 454.304 306.69 451.859 304.064 445.686 304.594 448.263 297.717 439.072 300.794 441.653 293.911 435.433 294.478 434.648 290.446 431.948 288.032 428.267 286.446 424.731 284.74 428.495 276.858 420.03 279.321 422.377 272.635 416.631 272.798 420.6 264.741 416.465 263.538 413.419 261.417 412.617 257.394 406.496 257.882 405.615 253.928 404.23 250.402 404.207 245.728 400.744 243.961 395.775 243.462 392.283 241.72 392.266 237.032 387.209 236.61 388.41 230.89 386.049 228.186 378.614 229.773 375.93 227.338 374.323 223.992 373.23 220.216 369.584 218.595 366.846 216.205 371.802 207.303 367.48 206.246 363.552 200.851 361.787 208.223 359.87 211.334 353.998 210.878 355.023 216.646 350.296 217.22 348.41 220.359 345.953 222.982 345.303 227.237 341.969 229.069 336.445 228.925 340.05 237.023 338.194 240.189 331.035 238.567 326.81 239.591 327.755 245.279 323.985 246.71 322.907 250.57 322.679 255.197 314.585 252.725 317.006 259.745 313.468 261.387 310.243 263.314 310.337 268.24 306.433 269.561 300.277 268.848 298.776 272.335 301.226 279.384 293.792 277.512 297.112 285.346 292.047 285.611 288.524 287.269 285.503 289.382 282.366 291.394 283.99 297.706 281.627 300.417 276.073 300.246 275.667 304.719 271.714 305.991 271.031 310.215 268.602 312.865 265.383 314.806 259.82 314.631 261.896 321.348 256.557 321.371 255.405 325.173 249.038 324.27 252.715 332.436 250.8 335.554 243.139 333.483 242.679 337.911 239.823 340.179 238.7 344.014 233.753 344.395 234.135 349.584 228.65 349.481 225.987 351.925 228.737 359.253 223.816 359.659 221.25 362.191 218.655 364.696 219.639 370.432 213.849 370.045 212.831 373.973 206.388 373.003 206.721 378.145 206.725 382.993 204.006 385.39 197.825 384.655 199.062 390.622 193.286 390.257 194.697 396.382 191.031 397.923 186.301 398.506 185.998 403.086 181.24 403.635 181.454 408.678 179.505 411.774 178.895 416.08 174.53 416.997 172.27 419.823 170.702 422.046 166.229 424.734 169.458 428.338 171.437 431.942 166.644 435.546 166.77 439.15 165.256 442.752 167.357 446.355 170.342 449.958 170.587 453.56 167.668 457.161 167.953 460.763 172.312 464.366 167.186 467.967 164.345 471.57 163.723 475.174 170.212 478.781 171.499 482.386 172.785 485.989 163.541 489.589 166.248 493.193 164.122 496.794 170.38 500.399 167.517 504.001 168.563 507.605 165.003 511.208 171.296 514.815 172.845 518.42 168.356 522.023 170.908 525.626 164.216 529.227 165.461 532.831 169.281 536.435 171.961 540.041 170.037 543.645 165.303 547.249 170.697 550.854 167.59 554.457 163.561 558.059 168.001 561.664 171.321 565.27 167.164 568.874 168.26 572.479 170.813 576.084 164.868 579.686 165.664 583.291 168.168 586.896 165.594 590.501 164.207 594.105 169.679 597.711 165.958 601.315 166.648 604.914 165.635 608.513 164.047 612.112 171.284 615.714 166.244 619.314 169.794 622.919 164.455 626.523 168.431 630.129 165.62 633.731 170.821 637.334 166.307 640.934 167.344 644.536 164.296 648.138 170.276 651.746 165.172 655.35 167.107 658.955 165.492 662.557 167.43 666.161 169.136 669.765 165.915 673.371 170.475 676.979 172.443 680.584 168.344 684.186 166.618 687.791 169.645 691.401 164.037 695.005 172.081 698.612 171.893 702.218 173.171 705.826 168.186 709.431 168.669 713.038 168.11 716.645 168.989 720.252 169.418 723.86 168.518 727.467 171.947 731.076 170.98 734.684 171.263 738.292 165.631 741.895 168.824 745.504 165.13 749.106 167.434 752.715 167.878 756.322 167.217 759.931 166.495 763.538 170.295 767.149 171.353 770.76 167.909 774.369 164.781 777.979 168.163 781.59 169.125 785.201 172.253 788.813 171.343 792.43 168.088 796.174 171.821 794.564 175.426 795.766 179.029 798.83 182.632 798.977 186.235 798.775 189.837 794.035 193.438 791.781 197.04 797.384 200.641 797.637 204.241 798.24 207.842 792.002 211.442 794.551 215.042 793.84 218.643 799.912 222.243 794.548 225.844 793.668 229.444 792.488 233.045 791.48 236.646 797.981 240.248 794.8 243.849 799.416 247.452 798.674 251.055 799.754 254.658 791.898 258.262 792.929 261.867 795.492 265.473 800.475 269.08 798.451 272.687 798.643 276.292 797.658 279.897 794.246 283.502 795.238 287.106 792.124 290.709 795.519 294.312 797.268 297.914 798.599 301.517 798.997 305.119 792.309 308.721 791.889 312.323 792.681 315.925 797.239 319.527 798.723 323.129 798.298 326.732 794.075 330.335 791.31 333.938 799.738 337.543 801.03 341.147 792.3 344.753 792.842 348.36 794.614 351.967 792.496 355.574 794.563 359.18 797.548 362.785 796.023 366.39 800.707 369.994 798.234 373.598 793.053 377.202 799.228 380.805 793.375 384.408 799.469 388.012 797.331 391.615 797.265 395.219 795.611 398.823 791.432 402.427 792.435 406.033 793.056 409.638 793.359 413.245 800.536 416.853 793.207 420.46 794.394 424.067 799.799 427.673 794.148 431.278 795.652 434.883 792.73 438.487 796.874 442.092 798.21 445.696 794.676 449.3 791.721 452.905 799.151 456.51 798.179 460.116 795.86 463.722 796.445 467.33 792.184 470.938 791.761 474.546 800.966 478.152 799.247 481.758 792.584 485.364 796.857 488.969 791.86 492.574 793.141 496.179 791.973 499.785 793.149 503.391 792.548 506.998 798.711 510.605 792.011 514.214 800.796 517.822 793.993 521.429 795.437 525.035 792.687 528.641 794.638 532.247 791.421 535.853 793.402 539.459 791.054 543.066 797.38 546.674 798.793 550.283 796.304 553.891 792.612 557.498 800.167 561.104 800.128 564.711 791.709 568.317 792.502 571.924 794.007 575.532 792.379 579.141 799.499 582.749 798.719 586.356 800.465 589.963 799.529 593.57 794.427 597.178 794.525 600.785 795.079 604.394 792.61 608.003 793.744 611.611 792.243 615.218 791.92 618.825 795.328 622.433 795.812 626.042 795.633 629.651 792.749 633.259 799.979 636.866 800.656 640.469 793.022 644.072 799.195 647.675 793.345 651.278 798.385 654.883 798.388 658.49 791.406 662.1 797.264 665.708 796.424 669.314 792.58 672.919 791.594 676.523 793.541 680.129 791.487 683.735 791.863 687.344 795.924 690.954 797.924 694.562 797.241 698.168 795.969 701.774 793.181 705.382 792.786 708.992 793.584 712.602 792.856 716.21 793.651 719.817 793.249 723.426 798.486 727.038 792.348 730.647 796.649 734.255 796.391 737.865 798.322 741.476 795.849 745.086 800.15 748.696 798.261 752.307 797.647 755.917 794.323 759.529 800.932 763.139 798.371 766.751 794.33 770.362 791.719 773.974 798.695 777.581 796.355 781.193 801.008 784.8 796.033 788.412 792.576 792.022 800.48 795.635 798.777 799.245 795.199 802.858 793.508 806.472 792.706 810.087 794.073 813.701 799.984 817.314 800.855 820.928 799.975 824.543 794.673 828.163 791.089 832.286 796.551 832.15 792.44 831.489 788.835 828.372 785.228 832.378 781.621 831.882 778.012 827.669 774.405 834.956 770.798 835.034 767.192 827.132 763.587 832.017 759.981 834.474 756.376 830.751 752.771 831.316 749.165 827.9 745.559 833.892 741.953 830.89 738.345 831.783 734.736 834.648 731.129 830.151 727.522 827.374 723.915 831.934 720.309 832.975 716.704 833.401 713.098 835.513 709.491 827.365 705.884 831.072 702.276 834.742 698.667 828.607 695.059 835.755 691.452 827.327 687.846 835.663 684.239 827.764 680.633 835.159 677.026 830.602 673.418 831.379 669.809 835.373 666.201 830.42 662.593 834.005 658.986 835.227 655.379 835.659 651.772 832.362 648.164 833.101 644.555 836.333 640.947 830.777 637.339 829.471 633.732 834.482 630.124 827.726 626.516 835.859 622.907 836.738 619.299 835.662 615.691 827.09 612.083 831.473 608.48 831.366 604.877 832.204 601.275 827.337 597.671 826.914 594.066 830.012 590.459 833.039 586.849 829.194 583.241 832.78 579.635 827.261 576.03 829.9 572.426 832.991 568.821 836.255 565.214 830.023 561.605 831.824 557.995 831.829 554.387 827.55 550.781 827.527 547.175 830.636 543.567 833.334 539.957 830.934 536.347 831.619 532.739 828.38 529.132 832.158 525.523 828.786 521.911 827.028 518.302 832.614 514.693 830.441 511.083 832.121 507.472 836.31 503.863 830.517 500.253 828.405 496.641 836.009 493.031 829.141 489.42 827.736 485.809 832.271 482.198 833.34 478.587 830.659 474.974 832.926 471.367 831.694 467.756 835.37 464.148 828.53 460.536 833.901 456.927 833.885 453.314 832.468 449.703 833.438 446.09 836.354 442.476 836.635 438.862 833.528 435.247 832.673 431.634 831.063 428.02 827.4 424.406 827.468 420.785 831.539 417.257 828.452 415.294 826.141 412.516 827.176 406.762 822.442 406.143 819.224 404.174 816.578 401.696 818.055 395.55 814.642 393.752 809.508 393.485 808.019 389.977 807.649 385.476 801.333 386.267 800.036 382.594 800.538 377.323 793.059 379.152 790.775 376.36 788.84 373.258 785.068 371.788 785.68 366.416 780.649 366.063 780.855 361.048 778.136 358.631 778.521 353.454 770.48 355.775 775.209 346.738 771.74 344.996 770.436 341.328 767.035 339.526 764.422 337.022 760.534 335.65 760.056 331.241 756.21 329.825 753.674 327.246 750.925 324.859 745.814 324.576 746.036 319.547 744.99 315.646 742.559 312.975 734.52 315.29 734.6 310.382 731.604 308.213 728.466 306.172 727.409 302.279 729.859 295.265 722.133 297.3 719.473 294.83 716.193 292.912 720.125 284.58 712.878 286.191 712.137 282.01 710.322 278.788 707.152 276.773 702.477 276.094 702.814 270.954 700.882 267.836 700.649 263.206 697.253 261.387 689.677 263.29 687.005 260.827 688.987 254.234 681.811 255.78 683.016 249.872 677.702 249.767 679.215 243.585 675.118 242.389 673.123 239.328 667.887 239.144 671.693 230.92 667.348 229.942 665.783 226.494 658.545 228.091 662.518 219.711 654.823 221.712 652.497 218.942 652.468 214.123 651.048 210.541 650.482 206.198 647.78 203.747 642.683 202.631 638.468 202.086 634.843 199.447 631.227 199.338 627.624 203.009 624.02 206.589 620.396 204.594 616.759 199.285 613.151 201.841 609.54 203.576 605.911 200.021 602.318 206.763 598.709 208.9 595.06 199.542 591.466 206.688 587.83 201.533 584.221 203.66 580.606 204.346 576.998 206.782 573.371 203.868 569.737 199.241 566.144 206.558 562.509 201.545 558.903 204.715 555.27 200.014 551.672 204.156 548.047 200.298 544.453 205.73 540.834 204.298 537.206 200.841 533.6 204.708 529.974 201.982 526.381 208.725 522.749 203.336 519.149 207.384 515.527 205.149 511.913 205.826 508.275 199.932 504.686 208.842 501.039 200.013 497.429 201.393 493.828 205.634 490.198 201.92 486.579 202.067 482.964 203.205 479.35 204.188 475.746 207.686 472.132 209.053 468.506 207.648 464.87 202.321 461.251 201.924 457.639 204.23 454.025 205.82 450.408 206.504 446.788 206.242 443.16 204.202 439.546 205.662 435.932 207.537 432.296 202.872 428.697 209.102 425.051 201.695 421.435 203.292 417.828 207.225 414.21 207.954 410.597 208.908 406.963 204.898 403.352 207.265 399.729 207.027 396.093 202.376 392.487 206.709 388.853 203.756 385.231 203.983 381.625 209.163 377.99 205.345 374.351 200.455 370.745 205.647 367.11 204.064 363.494 208.132" style="fill: #fff;"/>
    <polyline points="544.139 796.046 550.012 792.443 542.515 788.84 542.968 785.236 543.782 781.631 548.574 778.027 550.163 774.424 545.543 770.822 545.307 767.22 551.208 763.618 544.536 760.016 541.875 756.414 547.221 752.812 541.643 749.21 541.903 745.606 546.662 742.002 551.217 738.397 546.487 734.793 542.493 731.189 544.312 727.587 544.827 723.984 542.213 720.382 548.13 716.779 544.878 713.176 548.033 709.573 544.324 705.968 546.186 702.363 547.618 698.759 542.286 695.155 548.362 691.552 545.775 687.949 549.379 684.346 545.367 680.742 547.471 677.138 547.134 673.533 550.003 669.928 550.515 666.324 546.178 662.72 550.118 659.117 541.918 655.513 543.279 651.909 545.104 648.303 542.762 644.698 546.13 641.094 544.523 637.49 546.275 633.886 545.834 630.282 541.777 626.676 543.011 623.071 543.722 619.466 544.323 615.862 541.452 612.263 546.033 608.664 549.073 605.064 541.8 601.464 549.475 597.863 541.483 594.259 546.797 590.653 548.584 587.048 545.298 583.446 549.849 579.844 548.82 576.243 549.655 572.642 549.235 569.038 549.536 565.433 543.169 561.826 543.253 558.222 542.707 554.62 543.971 551.017 546.361 547.412 546.096 543.806 550.186 540.199 543.92 536.595 544.197 532.991 546.156 529.386 545.018 525.777 543.461 522.172 550.668 518.567 548.937 514.96 546.333 511.353 543.042 507.747 549.656 504.14 548.174 500.532 549.203 496.926 548.068 493.317 549.108 489.71 546.917 486.102 545.261 482.495 546.454 478.886 542.387 475.282 549.915 471.674 545.95 468.07 543.583 464.462 546.47 460.856 543.248 457.246 545.6 453.639 548.097 450.03 541.695 446.419 542.147 442.808 546.508 439.197 546.969 435.587 542.736 431.977 542.926 428.366 543.234 424.749 543.481 422.21 543.404 419.004 544.511 413.372 540.887 411.744 536.245 410.978 537.283 405.407 530.52 406.436 530.102 402.096 530.243 397.282 529.253 393.423 526.612 390.963 522.995 389.332 519.832 387.319 515.844 386.006 517.736 379.717 513.468 378.643 512.692 374.613 506.351 375.293 504.392 372.264 505.504 366.634 498.225 368.102 501.294 360.811 496.04 360.561 490.603 360.464 490.532 355.831 485.456 355.434 485.976 350.305 485.945 345.642 484.964 341.781 480.998 340.447 480.805 335.917 478.306 333.336 475.801 330.757 473.338 328.145 470.819 325.581 466.481 324.56 465.406 320.777 461.685 319.233 460.365 315.655 454.864 315.611 451.97 313.361 454.304 306.69 451.859 304.064 445.686 304.594 448.263 297.717 439.072 300.794 441.653 293.911 435.433 294.478 434.648 290.446 431.948 288.032 428.267 286.446 424.731 284.74 428.495 276.858 420.03 279.321 422.377 272.635 416.631 272.798 420.6 264.741 416.465 263.538 413.419 261.417 412.617 257.394 406.496 257.882 405.615 253.928 404.23 250.402 404.207 245.728 400.744 243.961 395.775 243.462 392.283 241.72 392.266 237.032 387.209 236.61 388.41 230.89 386.049 228.186 378.614 229.773 375.93 227.338 374.323 223.992 373.23 220.216 369.584 218.595 366.846 216.205 371.802 207.303 367.48 206.246 363.552 200.851 361.787 208.223 359.87 211.334 353.998 210.878 355.023 216.646 350.296 217.22 348.41 220.359 345.953 222.982 345.303 227.237 341.969 229.069 336.445 228.925 340.05 237.023 338.194 240.189 331.035 238.567 326.81 239.591 327.755 245.279 323.985 246.71 322.907 250.57 322.679 255.197 314.585 252.725 317.006 259.745 313.468 261.387 310.243 263.314 310.337 268.24 306.433 269.561 300.277 268.848 298.776 272.335 301.226 279.384 293.792 277.512 297.112 285.346 292.047 285.611 288.524 287.269 285.503 289.382 282.366 291.394 283.99 297.706 281.627 300.417 276.073 300.246 275.667 304.719 271.714 305.991 271.031 310.215 268.602 312.865 265.383 314.806 259.82 314.631 261.896 321.348 256.557 321.371 255.405 325.173 249.038 324.27 252.715 332.436 250.8 335.554 243.139 333.483 242.679 337.911 239.823 340.179 238.7 344.014 233.753 344.395 234.135 349.584 228.65 349.481 225.987 351.925 228.737 359.253 223.816 359.659 221.25 362.191 218.655 364.696 219.639 370.432 213.849 370.045 212.831 373.973 206.388 373.003 206.721 378.145 206.725 382.993 204.006 385.39 197.825 384.655 199.062 390.622 193.286 390.257 194.697 396.382 191.031 397.923 186.301 398.506 185.998 403.086 181.24 403.635 181.454 408.678 179.505 411.774 178.895 416.08 174.53 416.997 172.27 419.823 170.702 422.046 166.229 424.734 169.458 428.338 171.437 431.942 166.644 435.546 166.77 439.15 165.256 442.752 167.357 446.355 170.342 449.958 170.587 453.56 167.668 457.161 167.953 460.763 172.312 464.366 167.186 467.967 164.345 471.57 163.723 475.174 170.212 478.781 171.499 482.386 172.785 485.989 163.541 489.589 166.248 493.193 164.122 496.794 170.38 500.399 167.517 504.001 168.563 507.605 165.003 511.208 171.296 514.815 172.845 518.42 168.356 522.023 170.908 525.626 164.216 529.227 165.461 532.831 169.281 536.435 171.961 540.041 170.037 543.645 165.303 547.249 170.697 550.854 167.59 554.457 163.561 558.059 168.001 561.664 171.321 565.27 167.164 568.874 168.26 572.479 170.813 576.084 164.868 579.686 165.664 583.291 168.168 586.896 165.594 590.501 164.207 594.105 169.679 597.711 165.958 601.315 166.648 604.914 165.635 608.513 164.047 612.112 171.284 615.714 166.244 619.314 169.794 622.919 164.455 626.523 168.431 630.129 165.62 633.731 170.821 637.334 166.307 640.934 167.344 644.536 164.296 648.138 170.276 651.746 165.172 655.35 167.107 658.955 165.492 662.557 167.43 666.161 169.136 669.765 165.915 673.371 170.475 676.979 172.443 680.584 168.344 684.186 166.618 687.791 169.645 691.401 164.037 695.005 172.081 698.612 171.893 702.218 173.171 705.826 168.186 709.431 168.669 713.038 168.11 716.645 168.989 720.252 169.418 723.86 168.518 727.467 171.947 731.076 170.98 734.684 171.263 738.292 165.631 741.895 168.824 745.504 165.13 749.106 167.434 752.715 167.878 756.322 167.217 759.931 166.495 763.538 170.295 767.149 171.353 770.76 167.909 774.369 164.781 777.979 168.163 781.59 169.125 785.201 172.253 788.813 171.343 792.43 168.088 796.174 171.821 794.564 175.426 795.766 179.029 798.83 182.632 798.977 186.235 798.775 189.837 794.035 193.438 791.781 197.04 797.384 200.641 797.637 204.241 798.24 207.842 792.002 211.442 794.551 215.042 793.84 218.643 799.912 222.243 794.548 225.844 793.668 229.444 792.488 233.045 791.48 236.646 797.981 240.248 794.8 243.849 799.416 247.452 798.674 251.055 799.754 254.658 791.898 258.262 792.929 261.867 795.492 265.473 800.475 269.08 798.451 272.687 798.643 276.292 797.658 279.897 794.246 283.502 795.238 287.106 792.124 290.709 795.519 294.312 797.268 297.914 798.599 301.517 798.997 305.119 792.309 308.721 791.889 312.323 792.681 315.925 797.239 319.527 798.723 323.129 798.298 326.732 794.075 330.335 791.31 333.938 799.738 337.543 801.03 341.147 792.3 344.753 792.842 348.36 794.614 351.967 792.496 355.574 794.563 359.18 797.548 362.785 796.023 366.39 800.707 369.994 798.234 373.598 793.053 377.202 799.228 380.805 793.375 384.408 799.469 388.012 797.331 391.615 797.265 395.219 795.611 398.823 791.432 402.427 792.435 406.033 793.056 409.638 793.359 413.245 800.536 416.853 793.207 420.46 794.394 424.067 799.799 427.673 794.148 431.278 795.652 434.883 792.73 438.487 796.874 442.092 798.21 445.696 794.676 449.3 791.721 452.905 799.151 456.51 798.179 460.116 795.86 463.722 796.445 467.33 792.184 470.938 791.761 474.546 800.966 478.152 799.247 481.758 792.584 485.364 796.857 488.969 791.86 492.574 793.141 496.179 791.973 499.785 793.149 503.391 792.548 506.998 798.711 510.605 792.011 514.214 800.796 517.822 793.993 521.429 795.437 525.035 792.687 528.641 794.638 532.247 791.421 535.853 793.402 539.459 791.054 543.066 797.38 546.674 798.793 550.283 796.304 553.891 792.612 557.498 800.167 561.104 800.128 564.711 791.709 568.317 792.502 571.924 794.007 575.532 792.379 579.141 799.499 582.749 798.719 586.356 800.465 589.963 799.529 593.57 794.427 597.178 794.525 600.785 795.079 604.394 792.61 608.003 793.744 611.611 792.243 615.218 791.92 618.825 795.328 622.433 795.812 626.042 795.633 629.651 792.749 633.259 799.979 636.866 800.656 640.469 793.022 644.072 799.195 647.675 793.345 651.278 798.385 654.883 798.388 658.49 791.406 662.1 797.264 665.708 796.424 669.314 792.58 672.919 791.594 676.523 793.541 680.129 791.487 683.735 791.863 687.344 795.924 690.954 797.924 694.562 797.241 698.168 795.969 701.774 793.181 705.382 792.786 708.992 793.584 712.602 792.856 716.21 793.651 719.817 793.249 723.426 798.486 727.038 792.348 730.647 796.649 734.255 796.391 737.865 798.322 741.476 795.849 745.086 800.15 748.696 798.261 752.307 797.647 755.917 794.323 759.529 800.932 763.139 798.371 766.751 794.33 770.362 791.719 773.974 798.695 777.581 796.355 781.193 801.008 784.8 796.033 788.412 792.576 792.022 800.48 795.635 798.777 799.245 795.199 802.858 793.508 806.472 792.706 810.087 794.073 813.701 799.984 817.314 800.855 820.928 799.975 824.543 794.673 828.163 791.089 832.286 796.551 832.15 792.44 831.489 788.835 828.372 785.228 832.378 781.621 831.882 778.012 827.669 774.405 834.956 770.798 835.034 767.192 827.132 763.587 832.017 759.981 834.474 756.376 830.751 752.771 831.316 749.165 827.9 745.559 833.892 741.953 830.89 738.345 831.783 734.736 834.648 731.129 830.151 727.522 827.374 723.915 831.934 720.309 832.975 716.704 833.401 713.098 835.513 709.491 827.365 705.884 831.072 702.276 834.742 698.667 828.607 695.059 835.755 691.452 827.327 687.846 835.663 684.239 827.764 680.633 835.159 677.026 830.602 673.418 831.379 669.809 835.373 666.201 830.42 662.593 834.005 658.986 835.227 655.379 835.659 651.772 832.362 648.164 833.101 644.555 836.333 640.947 830.777 637.339 829.471 633.732 834.482 630.124 827.726 626.516 835.859 622.907 836.738 619.299 835.662 615.691 827.09 612.083 831.473 608.48 831.366 604.877 832.204 601.275 827.337 597.671 826.914 594.066 830.012 590.459 833.039 586.849 829.194 583.241 832.78 579.635 827.261 576.03 829.9 572.426 832.991 568.821 836.255 565.214 830.023 561.605 831.824 557.995 831.829 554.387 827.55 550.781 827.527 547.175 830.636 543.567 833.334 539.957 830.934 536.347 831.619 532.739 828.38 529.132 832.158 525.523 828.786 521.911 827.028 518.302 832.614 514.693 830.441 511.083 832.121 507.472 836.31 503.863 830.517 500.253 828.405 496.641 836.009 493.031 829.141 489.42 827.736 485.809 832.271 482.198 833.34 478.587 830.659 474.974 832.926 471.367 831.694 467.756 835.37 464.148 828.53 460.536 833.901 456.927 833.885 453.314 832.468 449.703 833.438 446.09 836.354 442.476 836.635 438.862 833.528 435.247 832.673 431.634 831.063 428.02 827.4 424.406 827.468 420.785 831.539 417.257 828.452 415.294 826.141 412.516 827.176 406.762 822.442 406.143 819.224 404.174 816.578 401.696 818.055 395.55 814.642 393.752 809.508 393.485 808.019 389.977 807.649 385.476 801.333 386.267 800.036 382.594 800.538 377.323 793.059 379.152 790.775 376.36 788.84 373.258 785.068 371.788 785.68 366.416 780.649 366.063 780.855 361.048 778.136 358.631 778.521 353.454 770.48 355.775 775.209 346.738 771.74 344.996 770.436 341.328 767.035 339.526 764.422 337.022 760.534 335.65 760.056 331.241 756.21 329.825 753.674 327.246 750.925 324.859 745.814 324.576 746.036 319.547 744.99 315.646 742.559 312.975 734.52 315.29 734.6 310.382 731.604 308.213 728.466 306.172 727.409 302.279 729.859 295.265 722.133 297.3 719.473 294.83 716.193 292.912 720.125 284.58 712.878 286.191 712.137 282.01 710.322 278.788 707.152 276.773 702.477 276.094 702.814 270.954 700.882 267.836 700.649 263.206 697.253 261.387 689.677 263.29 687.005 260.827 688.987 254.234 681.811 255.78 683.016 249.872 677.702 249.767 679.215 243.585 675.118 242.389 673.123 239.328 667.887 239.144 671.693 230.92 667.348 229.942 665.783 226.494 658.545 228.091 662.518 219.711 654.823 221.712 652.497 218.942 652.468 214.123 651.048 210.541 650.482 206.198 647.78 203.747 642.683 202.631 638.468 202.086 634.843 199.447 631.227 199.338 627.624 203.009 624.02 206.589 620.396 204.594 616.759 199.285 613.151 201.841 609.54 203.576 605.911 200.021 602.318 206.763 598.709 208.9 595.06 199.542 591.466 206.688 587.83 201.533 584.221 203.66 580.606 204.346 576.998 206.782 573.371 203.868 569.737 199.241 566.144 206.558 562.509 201.545 558.903 204.715 555.27 200.014 551.672 204.156 548.047 200.298 544.453 205.73 540.834 204.298 537.206 200.841 533.6 204.708 529.974 201.982 526.381 208.725 522.749 203.336 519.149 207.384 515.527 205.149 511.913 205.826 508.275 199.932 504.686 208.842 501.039 200.013 497.429 201.393 493.828 205.634 490.198 201.92 486.579 202.067 482.964 203.205 479.35 204.188 475.746 207.686 472.132 209.053 468.506 207.648 464.87 202.321 461.251 201.924 457.639 204.23 454.025 205.82 450.408 206.504 446.788 206.242 443.16 204.202 439.546 205.662 435.932 207.537 432.296 202.872 428.697 209.102 425.051 201.695 421.435 203.292 417.828 207.225 414.21 207.954 410.597 208.908 406.963 204.898 403.352 207.265 399.729 207.027 396.093 202.376 392.487 206.709 388.853 203.756 385.231 203.983 381.625 209.163 377.99 205.345 374.351 200.455 370.745 205.647 367.11 204.064 363.494 208.132" style="fill: none; stroke: #000; stroke-linecap: round; stroke-linejoin: round; stroke-width: 35px;"/>
  </g>
  <polyline points="546.439 419.795 550.051 422.658 553.662 420.425 557.272 418.843 560.881 417.043 564.491 416.14 568.1 421.541 571.71 425.9 575.321 425.245 578.933 417.072 582.544 424.035 586.155 421.737 589.765 423.902 593.374 423.886 596.985 420.828 600.595 426.088 604.207 416.571 607.819 419.594 611.429 422.048 615.04 419.827 618.65 426.085 622.261 419.794 625.873 423.371 629.485 417.546 633.095 425 636.706 419.1 640.312 421.923 643.917 424.001 647.523 419.69 651.13 425.667 654.737 425.678 658.347 421.642 661.96 421.533 665.571 418.513 669.18 417.292 672.788 421.405 676.396 423.623 680.004 417.328 683.613 418.303 687.226 423.95 690.838 416.446 694.449 419.442 698.058 424.643 701.667 423.533 705.278 420.964 708.891 423.649 712.504 419.399 716.114 421.712 719.725 422.528 723.337 425.585 726.952 423.749 730.564 423.055 734.175 424.082 737.788 424.32 741.402 422.028 745.014 420.052 748.627 422.071 752.242 424.88 755.855 421.846 759.469 419.41 763.083 423.506 766.697 416.371 770.311 425.211 773.926 416.931 777.541 417.618 781.155 420.397 784.765 421.568 788.379 423.14 791.992 420.539 795.607 419.453 799.221 418.734 802.836 416.867 806.453 416.45 810.07 419.993 813.687 422.619 817.303 418.972 820.92 423.627 824.537 419.851 828.16 421.705 831.784 423.385" style="fill: none; stroke: #000; stroke-linecap: round; stroke-linejoin: round; stroke-width: 35px;"/>
</svg>