<?xml version="1.0" encoding="UTF-8"?>
<svg id="Small" xmlns="http://www.w3.org/2000/svg" width="500" height="500" viewBox="0 0 500 500">
  <path d="M440.959,250c0,1.262,2.072,2.536,2.047,3.791-.024,1.261-1.533,2.478-1.582,3.733s.37,2.532.297,3.786c-.073,1.259.39,2.554.293,3.806s-.267,2.512-.388,3.763-.032,2.538-.179,3.786c-.147,1.252-.358,2.504-.528,3.749-.171,1.249-.564,2.471-.759,3.712s.115,2.584-.105,3.821c-.22,1.241-2.081,2.171-2.325,3.404s.563,2.683.295,3.911-1.058,2.341-1.351,3.563-.797,2.388-1.114,3.605c-.317,1.219-.565,2.446-.906,3.656s-1.304,2.227-1.668,3.43c-.365,1.206-1.009,2.297-1.398,3.493s1.241,3.067.829,4.255-.999,2.332-1.434,3.511-1.616,2.084-2.075,3.255-.422,2.547-.904,3.708c-.482,1.163-1.558,2.074-2.063,3.226s-.1,2.721-.627,3.863c-.528,1.143-2.298,1.699-2.848,2.83s-1.382,2.108-1.954,3.228.282,2.986-.312,4.095c-.595,1.11-.546,2.596-1.161,3.693s-2.536,1.463-3.173,2.548-2.479,1.431-3.137,2.503-.062,2.918-.741,3.976-1.293,2.165-1.993,3.211c-.7,1.046-2.239,1.51-2.959,2.542s-.124,3.002-.864,4.02-2.835,1.028-3.595,2.031c-.76,1.003-1.355,2.114-2.135,3.102s-.145,3.121-.943,4.093-2.503,1.201-3.32,2.157-1.638,1.911-2.474,2.851-2.081,1.504-2.935,2.427-.242,3.244-1.115,4.151-3.122.478-4.012,1.368-1.677,1.875-2.584,2.747-2.025,1.509-2.949,2.363-2.023,1.496-2.963,2.332-1.191,2.454-2.148,3.272-1.304,2.383-2.277,3.182-3.442-.261-4.43.519-1.628,1.979-2.631,2.74-1.558,2.115-2.576,2.855-2.65.604-3.682,1.325c-1.031.72-2.215,1.181-3.261,1.881s-.707,3.515-1.766,4.194c-1.059.679-3.561-.94-4.633-.282-1.072.658-2.001,1.507-3.087,2.145-1.084.637-1.99,1.55-3.088,2.166-1.097.615-1.824,1.891-2.934,2.485s-1.605,2.387-2.727,2.96c-1.12.572-2.986-.328-4.118.222s-1.917,1.835-3.06,2.363-2.777-.045-3.931.461-1.873,2.016-3.036,2.499-2.829-.301-4.002.159-2.369.795-3.551,1.231-1.989,1.882-3.179,2.295-2.333.966-3.531,1.355-2.893-.859-4.099-.494-2.316.948-3.529,1.289-1.803,2.961-3.023,3.278-2.412.824-3.638,1.117c-1.222.292-2.986-1.76-4.217-1.492s-2.26,1.43-3.496,1.674-2.572-.114-3.813.106-2.482.317-3.727.513c-1.241.195-2.232,2.116-3.481,2.287s-2.637-.744-3.889-.597-2.606-.853-3.861-.731-2.426.913-3.683,1.01-2.539-.537-3.798-.463-2.492-.05-3.752-.001-2.45,1.902-3.711,1.926-2.521-1.76-3.783-1.76-2.535,2.212-3.791,2.188c-1.261-.024-2.46-1.985-3.715-2.033s-2.593,1.58-3.847,1.508-2.583.589-3.836.492-2.461-.979-3.711-1.101-2.336-1.796-3.584-1.942c-1.252-.147-2.474-.354-3.718-.524s-2.415-.717-3.657-.912-2.911,2.156-4.149,1.937-2.567-.12-3.799-.364-2.199-1.872-3.427-2.14-2.199-1.64-3.421-1.932-2.809.876-4.025.56c-1.219-.317-2.057-2.02-3.267-2.36s-2.596-.052-3.799-.416-2.102-1.661-3.298-2.049c-1.198-.389-3.199,1.616-4.387,1.204s-1.465-3.375-2.645-3.811-2.94.679-4.111.22c-1.173-.459-2.556-.421-3.718-.903-1.163-.482-2.093-1.536-3.245-2.041s-2.568-.454-3.71-.981c-1.143-.528-2.457-.741-3.588-1.291s-2.078-1.518-3.199-2.09-1.965-1.695-3.074-2.289-2.498-.699-3.595-1.315c-1.098-.616-2.103-1.419-3.187-2.056-1.086-.638-1.883-1.764-2.955-2.422s-1.815-1.832-2.874-2.511-2.688-.488-3.733-1.188-1.951-1.618-2.982-2.338-1.521-2.194-2.538-2.935-1.76-1.82-2.763-2.581c-1.003-.76-3.464.363-4.452-.417s-1.859-1.74-2.831-2.539-1.39-2.278-2.347-3.096-1.261-2.375-2.201-3.211-1.959-1.565-2.883-2.419-3.264-.218-4.171-1.09-1.251-2.347-2.141-3.237-.653-2.88-1.525-3.787c-.872-.907-2.229-1.341-3.083-2.265s-1.555-1.978-2.391-2.918-1.887-1.686-2.705-2.642c-.818-.956-.733-2.65-1.532-3.623s-3.427-.468-4.207-1.456.116-3.271-.645-4.274-1.971-1.652-2.711-2.67-2.025-1.643-2.746-2.676-.32-2.818-1.021-3.864c-.7-1.045-1.715-1.863-2.394-2.923-.679-1.059-2.564-1.361-3.223-2.434s.266-3.09-.371-4.176c-.637-1.084-1.401-2.073-2.017-3.171-.615-1.097-3.324-1.052-3.919-2.162-.594-1.109,1.407-3.575.834-4.696s-1.347-2.11-1.897-3.243-.952-2.304-1.48-3.448c-.527-1.142-2.897-1.448-3.402-2.601s.813-3.075.331-4.238-2.023-1.882-2.482-3.055-2.173-1.877-2.609-3.058.929-3.01.516-4.2-1.806-2.044-2.195-3.242-1.445-2.198-1.811-3.404.461-2.765.12-3.978-1.744-2.142-2.061-3.361,1.019-2.849.726-4.074c-.292-1.222-1.06-2.328-1.329-3.559s-1.356-2.291-1.6-3.527c-.244-1.233.362-2.63.142-3.871s-1.753-2.265-1.948-3.511c-.195-1.241,1.469-2.762,1.297-4.011s-.198-2.493-.345-3.745.255-2.533.133-3.788c-.122-1.25-1.613-2.369-1.711-3.626s-1.702-2.419-1.775-3.678c-.073-1.254.78-2.575.731-3.835s-.158-2.523-.182-3.785-.82-2.527-.82-3.789,1.501-2.519,1.525-3.775.826-2.489.875-3.744c.049-1.26-.278-2.524-.205-3.778s-.86-2.585-.763-3.838.368-2.507.489-3.757-.534-2.607-.388-3.855c.147-1.252,2.229-2.261,2.4-3.506s-.733-2.651-.538-3.892-.215-2.604.004-3.841,2.817-2.031,3.06-3.263c.245-1.236.349-2.473.618-3.701s.761-2.382,1.053-3.604-1.831-3.049-1.514-4.265c.317-1.219.306-2.551.646-3.761s1.931-2.075,2.296-3.278-.569-2.834-.18-4.03,2.255-1.914,2.667-3.102c.413-1.19.909-2.347,1.344-3.527s1.808-1.993,2.266-3.164.226-2.608.707-3.769,1.312-2.166,1.817-3.317-.449-2.964.078-4.106,1.682-2.001,2.232-3.132c.55-1.133.198-2.73.769-3.85s1.123-2.281,1.717-3.39,2.507-1.508,3.123-2.605,2.346-1.537,2.983-2.621.609-2.545,1.268-3.617.857-2.424,1.536-3.483c.68-1.06,1.204-2.219,1.904-3.264.7-1.046.9-2.442,1.62-3.474s2.898-1.019,3.639-2.036,1.539-1.964,2.299-2.966c.76-1.003-.49-3.564.289-4.551s2.694-1.078,3.493-2.05c.799-.972,1.529-2.002,2.347-2.958s2.056-1.54,2.892-2.48,1.403-2.116,2.257-3.04c.855-.924,2.388-1.19,3.261-2.097.872-.907.433-3.095,1.323-3.985s3.214-.31,4.121-1.182,1.659-1.875,2.583-2.73c.924-.854.601-3.08,1.541-3.916s2.794-.628,3.751-1.446c.956-.818,2.229-1.233,3.201-2.032s1.721-1.847,2.709-2.627c.988-.78,1.012-2.806,2.015-3.567,1.003-.76,2.04-1.501,3.058-2.241,1.017-.74,2.749-.486,3.781-1.207s1.95-1.596,2.996-2.296,2.103-1.375,3.163-2.054,2.343-.984,3.416-1.643c1.072-.658,2.387-.88,3.472-1.517s2.099-1.355,3.197-1.971c1.097-.615,2.246-1.093,3.356-1.688s1.383-2.774,2.505-3.347,1.961-1.751,3.093-2.302,2.344-.988,3.487-1.516c1.142-.527,2.369-.923,3.522-1.428s2.434-.755,3.597-1.237,2.319-1.022,3.491-1.481,2.785.229,3.966-.207,2.327-.947,3.517-1.359,2.343-.914,3.541-1.303,2.121-1.666,3.327-2.031,2.483-.52,3.696-.861,2.688.295,3.907-.023,2.639.258,3.865-.035,1.962-2.681,3.193-2.95,2.597.08,3.833-.165,2.432-.717,3.673-.937,2.768,1.352,4.013,1.156c1.241-.195,2.081-3.145,3.33-3.317s2.663.869,3.915.723,2.404-1.305,3.659-1.427c1.25-.122,2.518-.385,3.775-.483s2.632,1.462,3.891,1.389,2.499-.342,3.759-.391,2.537,1.088,3.798,1.064,2.493-2.404,3.754-2.404,2.539.229,3.795.253,2.523.474,3.778.522,2.51.437,3.764.51,2.482.651,3.734.748,2.64-1.166,3.891-1.044c1.255.122,2.489.595,3.737.741,1.252.147,2.403,1.134,3.648,1.304s2.627-.492,3.868-.297,2.615-.229,3.853-.01c1.241.22,2.087,2.578,3.32,2.822s2.517.217,3.744.485,2.248,1.394,3.47,1.686c1.226.293,3.01-1.665,4.226-1.348,1.219.317,2.333,1.083,3.543,1.424s2.479.545,3.682.91c1.206.365,1.894,2.371,3.089,2.759,1.198.389,2.936-.839,4.124-.427s2.293,1.103,3.473,1.538,2.688.069,3.859.527,1.619,2.739,2.781,3.221,2.018,1.64,3.17,2.144,2.673.157,3.814.684,2.513.573,3.644,1.123,2.559.533,3.679,1.105,2.168,1.32,3.277,1.914,1.742,2.066,2.839,2.682,2.999-.148,4.084.489.909,3.379,1.981,4.037,2.322,1.001,3.381,1.68,2.916.142,3.961.842c1.046.7,1.333,2.512,2.364,3.232s3.053.062,4.07.802.63,3.37,1.632,4.13c1.003.76,2.394.989,3.381,1.769s2.479.928,3.451,1.727c.972.799,1.227,2.445,2.183,3.262s2.943.452,3.883,1.288,2,1.564,2.924,2.418,1.671,1.918,2.578,2.79.395,3.181,1.285,4.071,2.966.601,3.839,1.508,2.403,1.213,3.258,2.137.626,2.842,1.462,3.783,1.278,2.211,2.096,3.168c.818.956,2.95.813,3.749,1.786s-.099,3.308.681,4.296,2.026,1.592,2.786,2.595.886,2.453,1.626,3.471c.74,1.017,1.885,1.72,2.606,2.752s2.885,1.077,3.585,2.123c.7,1.045.149,2.915.829,3.975s1.031,2.307,1.69,3.379,2.32,1.534,2.957,2.62c.637,1.084.212,2.772.828,3.87s1.256,2.16,1.851,3.27,2.353,1.604,2.925,2.725.096,2.76.647,3.892,1.266,2.171,1.794,3.314c.527,1.142.766,2.4,1.271,3.553s2.536,1.654,3.018,2.817c.482,1.161.043,2.703.503,3.875s.217,2.599.653,3.78,2.241,1.867,2.654,3.057.605,2.461.994,3.659-.432,2.767-.067,3.973c.364,1.203.401,2.482.742,3.695s1.925,2.073,2.242,3.293-.599,2.731-.306,3.957c.292,1.222,1.15,2.3,1.419,3.531s1.703,2.215,1.948,3.452-.282,2.617-.062,3.858-.908,2.686-.712,3.931c.195,1.241,1.037,2.367,1.208,3.616s2.515,2.221,2.661,3.473c.146,1.248-2.427,2.79-2.305,4.045s1.194,2.403,1.292,3.66-.057,2.515.016,3.775c.073,1.254.725,2.476.774,3.736.048,1.255-.53,2.526-.505,3.787.024,1.256-.646,2.503-.646,3.765Z"/>
  <path d="M440.959,250c0,1.262,2.072,2.536,2.047,3.791-.024,1.261-1.533,2.478-1.582,3.733s.37,2.532.297,3.786c-.073,1.259.39,2.554.293,3.806s-.267,2.512-.388,3.763-.032,2.538-.179,3.786c-.147,1.252-.358,2.504-.528,3.749-.171,1.249-.564,2.471-.759,3.712s.115,2.584-.105,3.821c-.22,1.241-2.081,2.171-2.325,3.404s.563,2.683.295,3.911-1.058,2.341-1.351,3.563-.797,2.388-1.114,3.605c-.317,1.219-.565,2.446-.906,3.656s-1.304,2.227-1.668,3.43c-.365,1.206-1.009,2.297-1.398,3.493s1.241,3.067.829,4.255-.999,2.332-1.434,3.511-1.616,2.084-2.075,3.255-.422,2.547-.904,3.708c-.482,1.163-1.558,2.074-2.063,3.226s-.1,2.721-.627,3.863c-.528,1.143-2.298,1.699-2.848,2.83s-1.382,2.108-1.954,3.228.282,2.986-.312,4.095c-.595,1.11-.546,2.596-1.161,3.693s-2.536,1.463-3.173,2.548-2.479,1.431-3.137,2.503-.062,2.918-.741,3.976-1.293,2.165-1.993,3.211c-.7,1.046-2.239,1.51-2.959,2.542s-.124,3.002-.864,4.02-2.835,1.028-3.595,2.031c-.76,1.003-1.355,2.114-2.135,3.102s-.145,3.121-.943,4.093-2.503,1.201-3.32,2.157-1.638,1.911-2.474,2.851-2.081,1.504-2.935,2.427-.242,3.244-1.115,4.151-3.122.478-4.012,1.368-1.677,1.875-2.584,2.747-2.025,1.509-2.949,2.363-2.023,1.496-2.963,2.332-1.191,2.454-2.148,3.272-1.304,2.383-2.277,3.182-3.442-.261-4.43.519-1.628,1.979-2.631,2.74-1.558,2.115-2.576,2.855-2.65.604-3.682,1.325c-1.031.72-2.215,1.181-3.261,1.881s-.707,3.515-1.766,4.194c-1.059.679-3.561-.94-4.633-.282-1.072.658-2.001,1.507-3.087,2.145-1.084.637-1.99,1.55-3.088,2.166-1.097.615-1.824,1.891-2.934,2.485s-1.605,2.387-2.727,2.96c-1.12.572-2.986-.328-4.118.222s-1.917,1.835-3.06,2.363-2.777-.045-3.931.461-1.873,2.016-3.036,2.499-2.829-.301-4.002.159-2.369.795-3.551,1.231-1.989,1.882-3.179,2.295-2.333.966-3.531,1.355-2.893-.859-4.099-.494-2.316.948-3.529,1.289-1.803,2.961-3.023,3.278-2.412.824-3.638,1.117c-1.222.292-2.986-1.76-4.217-1.492s-2.26,1.43-3.496,1.674-2.572-.114-3.813.106-2.482.317-3.727.513c-1.241.195-2.232,2.116-3.481,2.287s-2.637-.744-3.889-.597-2.606-.853-3.861-.731-2.426.913-3.683,1.01-2.539-.537-3.798-.463-2.492-.05-3.752-.001-2.45,1.902-3.711,1.926-2.521-1.76-3.783-1.76-2.535,2.212-3.791,2.188c-1.261-.024-2.46-1.985-3.715-2.033s-2.593,1.58-3.847,1.508-2.583.589-3.836.492-2.461-.979-3.711-1.101-2.336-1.796-3.584-1.942c-1.252-.147-2.474-.354-3.718-.524s-2.415-.717-3.657-.912-2.911,2.156-4.149,1.937-2.567-.12-3.799-.364-2.199-1.872-3.427-2.14-2.199-1.64-3.421-1.932-2.809.876-4.025.56c-1.219-.317-2.057-2.02-3.267-2.36s-2.596-.052-3.799-.416-2.102-1.661-3.298-2.049c-1.198-.389-3.199,1.616-4.387,1.204s-1.465-3.375-2.645-3.811-2.94.679-4.111.22c-1.173-.459-2.556-.421-3.718-.903-1.163-.482-2.093-1.536-3.245-2.041s-2.568-.454-3.71-.981c-1.143-.528-2.457-.741-3.588-1.291s-2.078-1.518-3.199-2.09-1.965-1.695-3.074-2.289-2.498-.699-3.595-1.315c-1.098-.616-2.103-1.419-3.187-2.056-1.086-.638-1.883-1.764-2.955-2.422s-1.815-1.832-2.874-2.511-2.688-.488-3.733-1.188-1.951-1.618-2.982-2.338-1.521-2.194-2.538-2.935-1.76-1.82-2.763-2.581c-1.003-.76-3.464.363-4.452-.417s-1.859-1.74-2.831-2.539-1.39-2.278-2.347-3.096-1.261-2.375-2.201-3.211-1.959-1.565-2.883-2.419-3.264-.218-4.171-1.09-1.251-2.347-2.141-3.237-.653-2.88-1.525-3.787c-.872-.907-2.229-1.341-3.083-2.265s-1.555-1.978-2.391-2.918-1.887-1.686-2.705-2.642c-.818-.956-.733-2.65-1.532-3.623s-3.427-.468-4.207-1.456.116-3.271-.645-4.274-1.971-1.652-2.711-2.67-2.025-1.643-2.746-2.676-.32-2.818-1.021-3.864c-.7-1.045-1.715-1.863-2.394-2.923-.679-1.059-2.564-1.361-3.223-2.434s.266-3.09-.371-4.176c-.637-1.084-1.401-2.073-2.017-3.171-.615-1.097-3.324-1.052-3.919-2.162-.594-1.109,1.407-3.575.834-4.696s-1.347-2.11-1.897-3.243-.952-2.304-1.48-3.448c-.527-1.142-2.897-1.448-3.402-2.601s.813-3.075.331-4.238-2.023-1.882-2.482-3.055-2.173-1.877-2.609-3.058.929-3.01.516-4.2-1.806-2.044-2.195-3.242-1.445-2.198-1.811-3.404.461-2.765.12-3.978-1.744-2.142-2.061-3.361,1.019-2.849.726-4.074c-.292-1.222-1.06-2.328-1.329-3.559s-1.356-2.291-1.6-3.527c-.244-1.233.362-2.63.142-3.871s-1.753-2.265-1.948-3.511c-.195-1.241,1.469-2.762,1.297-4.011s-.198-2.493-.345-3.745.255-2.533.133-3.788c-.122-1.25-1.613-2.369-1.711-3.626s-1.702-2.419-1.775-3.678c-.073-1.254.78-2.575.731-3.835s-.158-2.523-.182-3.785-.82-2.527-.82-3.789,1.501-2.519,1.525-3.775.826-2.489.875-3.744c.049-1.26-.278-2.524-.205-3.778s-.86-2.585-.763-3.838.368-2.507.489-3.757-.534-2.607-.388-3.855c.147-1.252,2.229-2.261,2.4-3.506s-.733-2.651-.538-3.892-.215-2.604.004-3.841,2.817-2.031,3.06-3.263c.245-1.236.349-2.473.618-3.701s.761-2.382,1.053-3.604-1.831-3.049-1.514-4.265c.317-1.219.306-2.551.646-3.761s1.931-2.075,2.296-3.278-.569-2.834-.18-4.03,2.255-1.914,2.667-3.102c.413-1.19.909-2.347,1.344-3.527s1.808-1.993,2.266-3.164.226-2.608.707-3.769,1.312-2.166,1.817-3.317-.449-2.964.078-4.106,1.682-2.001,2.232-3.132c.55-1.133.198-2.73.769-3.85s1.123-2.281,1.717-3.39,2.507-1.508,3.123-2.605,2.346-1.537,2.983-2.621.609-2.545,1.268-3.617.857-2.424,1.536-3.483c.68-1.06,1.204-2.219,1.904-3.264.7-1.046.9-2.442,1.62-3.474s2.898-1.019,3.639-2.036,1.539-1.964,2.299-2.966c.76-1.003-.49-3.564.289-4.551s2.694-1.078,3.493-2.05c.799-.972,1.529-2.002,2.347-2.958s2.056-1.54,2.892-2.48,1.403-2.116,2.257-3.04c.855-.924,2.388-1.19,3.261-2.097.872-.907.433-3.095,1.323-3.985s3.214-.31,4.121-1.182,1.659-1.875,2.583-2.73c.924-.854.601-3.08,1.541-3.916s2.794-.628,3.751-1.446c.956-.818,2.229-1.233,3.201-2.032s1.721-1.847,2.709-2.627c.988-.78,1.012-2.806,2.015-3.567,1.003-.76,2.04-1.501,3.058-2.241,1.017-.74,2.749-.486,3.781-1.207s1.95-1.596,2.996-2.296,2.103-1.375,3.163-2.054,2.343-.984,3.416-1.643c1.072-.658,2.387-.88,3.472-1.517s2.099-1.355,3.197-1.971c1.097-.615,2.246-1.093,3.356-1.688s1.383-2.774,2.505-3.347,1.961-1.751,3.093-2.302,2.344-.988,3.487-1.516c1.142-.527,2.369-.923,3.522-1.428s2.434-.755,3.597-1.237,2.319-1.022,3.491-1.481,2.785.229,3.966-.207,2.327-.947,3.517-1.359,2.343-.914,3.541-1.303,2.121-1.666,3.327-2.031,2.483-.52,3.696-.861,2.688.295,3.907-.023,2.639.258,3.865-.035,1.962-2.681,3.193-2.95,2.597.08,3.833-.165,2.432-.717,3.673-.937,2.768,1.352,4.013,1.156c1.241-.195,2.081-3.145,3.33-3.317s2.663.869,3.915.723,2.404-1.305,3.659-1.427c1.25-.122,2.518-.385,3.775-.483s2.632,1.462,3.891,1.389,2.499-.342,3.759-.391,2.537,1.088,3.798,1.064,2.493-2.404,3.754-2.404,2.539.229,3.795.253,2.523.474,3.778.522,2.51.437,3.764.51,2.482.651,3.734.748,2.64-1.166,3.891-1.044c1.255.122,2.489.595,3.737.741,1.252.147,2.403,1.134,3.648,1.304s2.627-.492,3.868-.297,2.615-.229,3.853-.01c1.241.22,2.087,2.578,3.32,2.822s2.517.217,3.744.485,2.248,1.394,3.47,1.686c1.226.293,3.01-1.665,4.226-1.348,1.219.317,2.333,1.083,3.543,1.424s2.479.545,3.682.91c1.206.365,1.894,2.371,3.089,2.759,1.198.389,2.936-.839,4.124-.427s2.293,1.103,3.473,1.538,2.688.069,3.859.527,1.619,2.739,2.781,3.221,2.018,1.64,3.17,2.144,2.673.157,3.814.684,2.513.573,3.644,1.123,2.559.533,3.679,1.105,2.168,1.32,3.277,1.914,1.742,2.066,2.839,2.682,2.999-.148,4.084.489.909,3.379,1.981,4.037,2.322,1.001,3.381,1.68,2.916.142,3.961.842c1.046.7,1.333,2.512,2.364,3.232s3.053.062,4.07.802.63,3.37,1.632,4.13c1.003.76,2.394.989,3.381,1.769s2.479.928,3.451,1.727c.972.799,1.227,2.445,2.183,3.262s2.943.452,3.883,1.288,2,1.564,2.924,2.418,1.671,1.918,2.578,2.79.395,3.181,1.285,4.071,2.966.601,3.839,1.508,2.403,1.213,3.258,2.137.626,2.842,1.462,3.783,1.278,2.211,2.096,3.168c.818.956,2.95.813,3.749,1.786s-.099,3.308.681,4.296,2.026,1.592,2.786,2.595.886,2.453,1.626,3.471c.74,1.017,1.885,1.72,2.606,2.752s2.885,1.077,3.585,2.123c.7,1.045.149,2.915.829,3.975s1.031,2.307,1.69,3.379,2.32,1.534,2.957,2.62c.637,1.084.212,2.772.828,3.87s1.256,2.16,1.851,3.27,2.353,1.604,2.925,2.725.096,2.76.647,3.892,1.266,2.171,1.794,3.314c.527,1.142.766,2.4,1.271,3.553s2.536,1.654,3.018,2.817c.482,1.161.043,2.703.503,3.875s.217,2.599.653,3.78,2.241,1.867,2.654,3.057.605,2.461.994,3.659-.432,2.767-.067,3.973c.364,1.203.401,2.482.742,3.695s1.925,2.073,2.242,3.293-.599,2.731-.306,3.957c.292,1.222,1.15,2.3,1.419,3.531s1.703,2.215,1.948,3.452-.282,2.617-.062,3.858-.908,2.686-.712,3.931c.195,1.241,1.037,2.367,1.208,3.616s2.515,2.221,2.661,3.473c.146,1.248-2.427,2.79-2.305,4.045s1.194,2.403,1.292,3.66-.057,2.515.016,3.775c.073,1.254.725,2.476.774,3.736.048,1.255-.53,2.526-.505,3.787.024,1.256-.646,2.503-.646,3.765Z" style="fill: none; stroke: #000; stroke-miterlimit: 10; stroke-width: 15px;"/>
</svg>