<?xml version="1.0" encoding="UTF-8"?>
<svg id="Sticker" xmlns="http://www.w3.org/2000/svg" width="1000" height="1000" viewBox="0 0 1000 1000">
  <polygon points="217.354 592.713 218.882 596.506 218.299 600.09 222.452 603.973 223.515 607.587 221.686 611.071 218.807 614.584 223.435 618.211 216.564 621.816 220.865 625.352 224.352 628.797 218.147 632.658 224.891 635.832 216.28 640.074 218.63 643.519 220.375 646.972 222.123 650.384 218.039 654.582 226.001 657.035 221.368 661.423 219.346 665.483 225.901 667.893 221.074 672.598 224.697 675.508 221.994 679.904 230.644 681.409 229.27 685.48 227.453 689.758 233.156 691.774 227.171 697.488 236.279 698.217 230.104 704.223 231.446 707.626 233.198 710.864 241.034 711.57 242.389 714.848 238.401 720.525 239.217 724.155 239.55 728.044 242.965 730.429 244.082 733.947 247.329 736.334 253.333 737.12 256.16 739.582 257.828 742.696 255.86 748.068 261.807 748.535 256.311 756.388 258.599 759.253 261.707 761.532 263.203 764.935 265.986 767.404 267.477 770.84 269.27 774.069 273.541 775.301 279.867 774.714 280.053 779.234 285.159 779.489 283.715 785.591 285.589 788.774 286.146 793.262 288.524 796.046 297.426 792.173 295.335 799.49 296.005 804.099 304.575 800.054 304.709 805.276 308.357 806.536 311.243 808.655 309.902 816.009 314.675 815.852 316.507 819.417 318.674 822.607 325.298 819.671 325.617 825.443 331.551 823.184 334.92 824.551 336.827 828.156 340.393 829.206 340.158 836.47 346.847 832.304 347.816 837.779 353.691 834.635 354.373 840.842 357.766 842.134 360.411 844.883 362.26 849.334 367.374 847.077 371.446 846.84 375.261 847.064 377.796 850.191 380.993 851.84 382.997 856.503 386.804 856.725 389.435 860.039 393.622 859.147 398.034 857.43 401.984 856.875 404.228 861.583 407.02 864.794 411.336 862.939 414.348 865.531 419.114 861.632 422.22 863.856 425.379 866.004 427.772 871.678 431.865 869.969 436.249 866.525 439.444 868.809 443.516 866.392 446.782 868.391 450.13 870.075 453.646 870.768 456.962 873.007 460.828 871.012 463.877 876.026 468.103 870.029 471.27 874.654 474.743 876.513 478.632 872.427 482.189 872.8 485.869 870.347 489.151 878.713 492.924 872.18 496.418 878.942 500.054 873.212 503.63 873.652 507.243 875.332 510.891 876.956 514.363 873.567 517.95 873.64 521.738 876.746 525.394 877.138 529.013 876.927 532.377 874.078 536.302 876.902 539.872 876.167 542.967 871.862 546.914 874.136 549.614 867.919 553.832 871.633 556.668 867.018 560.338 867.294 564.798 871.362 568.152 869.73 572.381 872.054 573.768 862.158 577.367 861.959 581.866 865.106 585.162 863.533 587.958 860.292 591.74 860.498 596.967 865.169 598.005 856.668 603.423 861.506 604.585 853.964 610.464 859.61 613.473 857.3 615.873 853.539 619.527 852.975 624.141 854.594 625.178 847.947 627.075 843.515 632.562 846.843 635.796 845.265 637.629 840.918 641.924 841.452 647.292 843.847 646.276 834.503 650.568 834.879 656.532 837.961 656.616 831.085 660.029 829.816 661.473 825.455 665.647 825.348 668.723 823.528 673.872 824.649 677.769 823.86 680.995 822.095 682.302 817.797 684.326 814.525 685.322 810.039 689.731 809.781 692.908 807.972 694.817 804.69 700.278 805.393 699.105 798.779 704.761 799.546 705.161 794.781 705.128 789.708 708.102 787.673 716.707 790.889 714.642 784.058 716.818 781.216 721.507 780.547 726.189 779.757 728.921 777.269 730.136 773.563 727.802 767.184 733.413 766.922 733.573 762.57 736.077 759.945 736.006 755.552 738.413 752.878 740.636 750.068 742.192 746.833 749.281 746.919 743.514 739.366 749.476 738.661 752.502 736.21 754.105 732.968 755.852 729.801 758.079 726.862 759.334 723.445 755.274 717.654 759.571 715.661 758.999 711.552 765.305 710.238 763.616 705.719 767.295 703.247 771.36 700.828 764.491 694.707 769.849 692.682 770.086 688.995 772.912 686.062 776.706 683.327 773.123 678.658 776.415 675.74 771.393 670.925 774.925 668.03 779.029 665.157 771.997 660.25 778.443 657.706 777.186 653.881 773.474 649.793 783.529 647.396 782.961 643.661 777.24 639.517 777.332 635.957 780.621 632.579 779.438 628.927 777.935 625.304 776.113 621.722 781.719 618.185 781.876 614.572 782.091 610.952 777.239 607.541 776.295 604.037 775.068 600.575 784.022 596.277 778.161 593.181 782.426 589.064 781.723 585.453 781.624 581.756 779.995 578.325 778.142 574.981 779.519 570.97 774.076 568.498 769.226 566.022 769.287 562.358 776.581 556.641 774.159 553.548 770.235 550.951 768.664 547.679 767.824 544.177 770.954 539.319 764.586 537.703 762.698 534.577 760.437 531.601 760.865 527.621 756.544 525.459 757.386 521.292 754.319 518.678 752.232 515.685 751.364 512.186 751.498 508.246 753.067 503.653 754.845 498.923 750.35 496.986 749.561 493.388 742.661 492.628 741.668 489.147 744.011 484.063 741.508 481.279 737.534 479.228 736.425 475.781 735.497 472.239 737.954 466.971 732.453 465.739 730.045 462.946 731.207 458.292 726.858 456.521 723.679 454.152 727.091 448.253 723.505 446.101 720.519 443.638 719.325 440.198 717.423 437.147 718.981 432.159 715.546 429.96 712.252 427.695 715.859 421.492 711.068 420.086 706.385 418.642 706.669 414.319 706.669 410.15 703.916 407.598 699.953 405.771 700.118 401.488 694.144 400.887 696.033 395.552 694.862 392.054 694.037 388.34 688.115 387.756 685.891 384.91 688.107 379.304 688.002 375.123 677.901 377.21 678.158 372.808 680.273 367.214 677.997 364.395 674.702 362.229 674.527 358.064 672.813 354.883 665.685 355.213 668.825 348.882 663.063 348.347 663.709 343.622 664.431 338.834 658.83 338.217 656.834 335.224 651.695 334.326 651.084 330.412 650.218 326.663 652.458 320.811 646.412 320.551 641.801 319.334 645.116 312.724 644.042 309.092 636.68 309.775 639.61 303.389 631.216 304.811 629.821 301.406 630.773 296.365 624.57 296.306 622.916 293.079 620.735 290.22 621.17 285.519 616.54 284.387 614.241 281.613 614.976 276.682 612.127 274.297 607.969 272.851 612.379 265.265 605.164 266.019 604.624 261.977 604.069 257.939 603.623 253.816 597.772 253.62 594.146 251.816 592.595 248.499 594.418 242.705 588.853 242.331 590.762 236.458 588.61 233.573 580.66 234.988 582.25 229.333 578.466 227.669 578.787 222.943 578.953 218.324 569.959 220.577 568.901 216.878 566.137 214.463 566.46 209.713 568.003 204.028 561.735 204.27 556.272 203.914 557.852 198.186 556.312 194.834 550.62 194.671 548.845 191.504 546.504 188.773 543.285 186.723 547.639 178.799 544.634 176.577 537.882 177.282 539.843 171.192 533.044 171.953 535.195 165.697 531.116 164.332 528.46 161.845 526.024 159.184 525.21 155.236 524.197 151.443 521.881 148.689 517.348 147.716 515.318 144.742 510.833 143.743 511.316 138.744 506.438 138.079 503.351 135.974 503.652 131.107 501.562 128.182 497.822 122.89 500.761 130.071 492.905 128.187 489.86 130.344 494.321 138.702 491.319 140.88 483.109 138.789 485.104 145.07 478.477 144.307 477.536 148.173 480.755 155.399 478.616 158.277 472.791 158.189 470.401 160.874 464.557 160.797 469.781 169.567 467.104 172.018 461.723 172.328 461.071 176.393 454.305 175.628 455.701 181.305 452.209 183.13 449.196 185.338 448.851 189.631 449.638 194.797 442.79 194.024 438.657 195.373 439.312 200.427 434.032 200.901 433.009 204.655 430.16 207.006 432.575 213.381 426.14 212.996 427.896 218.851 421.402 218.44 418.506 220.765 423.66 229.158 418.863 230.044 416.5 232.765 415.068 236.183 414.823 240.481 411.374 242.392 407.036 243.65 401.131 243.761 405.983 251.808 401.226 252.77 400.821 256.922 399.538 260.427 392.682 259.873 388.278 261.12 386.555 264.316 385.493 267.987 388.46 274.548 385.221 276.642 383.302 279.684 380.994 282.449 380.941 286.814 373.663 286.064 373.291 290.202 367.803 290.742 370.863 297.28 366.987 298.957 365.065 302.001 366.057 307.061 363.163 309.426 362.206 313.127 360.407 316.246 356.755 318.1 352.287 319.408 348.277 321.039 350.663 326.993 349.338 330.432 341.25 329.345 340.719 333.324 343.705 339.624 335.7 338.639 339.481 345.438 331.887 344.758 334.912 351.032 327.142 350.274 328.455 355.417 323.347 356.413 321.479 359.501 320.519 363.168 322.994 369.004 322.137 372.714 315.365 372.708 317.292 378.16 309.156 377.344 309.311 381.686 312.495 387.872 307.173 388.834 304.085 391.176 305.107 396.004 298.128 396.019 299.964 401.319 300.155 405.619 294.955 406.735 298.814 413.167 290.202 412.321 289.979 416.361 293.468 422.511 287.852 423.449 290.025 428.808 286.809 431.119 283.253 433.255 278.951 434.995 279.19 439.236 281.161 444.397 274.793 445.05 278.074 450.875 270.526 450.952 270.135 454.817 273.09 460.396 264.28 459.917 268.886 466.294 267.601 469.658 259.361 469.582 259.641 473.741 260.672 478.24 256.172 480.075 253.188 482.657 258.415 489.064 248.391 488.414 252.887 494.414 247.206 495.821 249.308 500.682 249.847 504.822 245.623 506.926 247.134 511.445 244.794 514.356 244.781 518.207 235.758 518.536 234.684 522.018 238.913 527.461 233 529.141 232.834 532.93 237.957 538.506 230.381 539.75 236.106 545.384 228.784 546.842 227.763 550.316 225.443 553.421 227.69 557.802 225.086 560.846 223.95 564.296 228.828 569.133 223.846 571.688 222.372 575.072 224.19 579.077 226.89 583.136 221.112 585.852 216.534 588.917 217.354 592.713" style="fill: #fff;"/>
  <polygon points="217.354 592.713 218.882 596.506 218.299 600.09 222.452 603.973 223.515 607.587 221.686 611.071 218.807 614.584 223.435 618.211 216.564 621.816 220.865 625.352 224.352 628.797 218.147 632.658 224.891 635.832 216.28 640.074 218.63 643.519 220.375 646.972 222.123 650.384 218.039 654.582 226.001 657.035 221.368 661.423 219.346 665.483 225.901 667.893 221.074 672.598 224.697 675.508 221.994 679.904 230.644 681.409 229.27 685.48 227.453 689.758 233.156 691.774 227.171 697.488 236.279 698.217 230.104 704.223 231.446 707.626 233.198 710.864 241.034 711.57 242.389 714.848 238.401 720.525 239.217 724.155 239.55 728.044 242.965 730.429 244.082 733.947 247.329 736.334 253.333 737.12 256.16 739.582 257.828 742.696 255.86 748.068 261.807 748.535 256.311 756.388 258.599 759.253 261.707 761.532 263.203 764.935 265.986 767.404 267.477 770.84 269.27 774.069 273.541 775.301 279.867 774.714 280.053 779.234 285.159 779.489 283.715 785.591 285.589 788.774 286.146 793.262 288.524 796.046 297.426 792.173 295.335 799.49 296.005 804.099 304.575 800.054 304.709 805.276 308.357 806.536 311.243 808.655 309.902 816.009 314.675 815.852 316.507 819.417 318.674 822.607 325.298 819.671 325.617 825.443 331.551 823.184 334.92 824.551 336.827 828.156 340.393 829.206 340.158 836.47 346.847 832.304 347.816 837.779 353.691 834.635 354.373 840.842 357.766 842.134 360.411 844.883 362.26 849.334 367.374 847.077 371.446 846.84 375.261 847.064 377.796 850.191 380.993 851.84 382.997 856.503 386.804 856.725 389.435 860.039 393.622 859.147 398.034 857.43 401.984 856.875 404.228 861.583 407.02 864.794 411.336 862.939 414.348 865.531 419.114 861.632 422.22 863.856 425.379 866.004 427.772 871.678 431.865 869.969 436.249 866.525 439.444 868.809 443.516 866.392 446.782 868.391 450.13 870.075 453.646 870.768 456.962 873.007 460.828 871.012 463.877 876.026 468.103 870.029 471.27 874.654 474.743 876.513 478.632 872.427 482.189 872.8 485.869 870.347 489.151 878.713 492.924 872.18 496.418 878.942 500.054 873.212 503.63 873.652 507.243 875.332 510.891 876.956 514.363 873.567 517.95 873.64 521.738 876.746 525.394 877.138 529.013 876.927 532.377 874.078 536.302 876.902 539.872 876.167 542.967 871.862 546.914 874.136 549.614 867.919 553.832 871.633 556.668 867.018 560.338 867.294 564.798 871.362 568.152 869.73 572.381 872.054 573.768 862.158 577.367 861.959 581.866 865.106 585.162 863.533 587.958 860.292 591.74 860.498 596.967 865.169 598.005 856.668 603.423 861.506 604.585 853.964 610.464 859.61 613.473 857.3 615.873 853.539 619.527 852.975 624.141 854.594 625.178 847.947 627.075 843.515 632.562 846.843 635.796 845.265 637.629 840.918 641.924 841.452 647.292 843.847 646.276 834.503 650.568 834.879 656.532 837.961 656.616 831.085 660.029 829.816 661.473 825.455 665.647 825.348 668.723 823.528 673.872 824.649 677.769 823.86 680.995 822.095 682.302 817.797 684.326 814.525 685.322 810.039 689.731 809.781 692.908 807.972 694.817 804.69 700.278 805.393 699.105 798.779 704.761 799.546 705.161 794.781 705.128 789.708 708.102 787.673 716.707 790.889 714.642 784.058 716.818 781.216 721.507 780.547 726.189 779.757 728.921 777.269 730.136 773.563 727.802 767.184 733.413 766.922 733.573 762.57 736.077 759.945 736.006 755.552 738.413 752.878 740.636 750.068 742.192 746.833 749.281 746.919 743.514 739.366 749.476 738.661 752.502 736.21 754.105 732.968 755.852 729.801 758.079 726.862 759.334 723.445 755.274 717.654 759.571 715.661 758.999 711.552 765.305 710.238 763.616 705.719 767.295 703.247 771.36 700.828 764.491 694.707 769.849 692.682 770.086 688.995 772.912 686.062 776.706 683.327 773.123 678.658 776.415 675.74 771.393 670.925 774.925 668.03 779.029 665.157 771.997 660.25 778.443 657.706 777.186 653.881 773.474 649.793 783.529 647.396 782.961 643.661 777.24 639.517 777.332 635.957 780.621 632.579 779.438 628.927 777.935 625.304 776.113 621.722 781.719 618.185 781.876 614.572 782.091 610.952 777.239 607.541 776.295 604.037 775.068 600.575 784.022 596.277 778.161 593.181 782.426 589.064 781.723 585.453 781.624 581.756 779.995 578.325 778.142 574.981 779.519 570.97 774.076 568.498 769.226 566.022 769.287 562.358 776.581 556.641 774.159 553.548 770.235 550.951 768.664 547.679 767.824 544.177 770.954 539.319 764.586 537.703 762.698 534.577 760.437 531.601 760.865 527.621 756.544 525.459 757.386 521.292 754.319 518.678 752.232 515.685 751.364 512.186 751.498 508.246 753.067 503.653 754.845 498.923 750.35 496.986 749.561 493.388 742.661 492.628 741.668 489.147 744.011 484.063 741.508 481.279 737.534 479.228 736.425 475.781 735.497 472.239 737.954 466.971 732.453 465.739 730.045 462.946 731.207 458.292 726.858 456.521 723.679 454.152 727.091 448.253 723.505 446.101 720.519 443.638 719.325 440.198 717.423 437.147 718.981 432.159 715.546 429.96 712.252 427.695 715.859 421.492 711.068 420.086 706.385 418.642 706.669 414.319 706.669 410.15 703.916 407.598 699.953 405.771 700.118 401.488 694.144 400.887 696.033 395.552 694.862 392.054 694.037 388.34 688.115 387.756 685.891 384.91 688.107 379.304 688.002 375.123 677.901 377.21 678.158 372.808 680.273 367.214 677.997 364.395 674.702 362.229 674.527 358.064 672.813 354.883 665.685 355.213 668.825 348.882 663.063 348.347 663.709 343.622 664.431 338.834 658.83 338.217 656.834 335.224 651.695 334.326 651.084 330.412 650.218 326.663 652.458 320.811 646.412 320.551 641.801 319.334 645.116 312.724 644.042 309.092 636.68 309.775 639.61 303.389 631.216 304.811 629.821 301.406 630.773 296.365 624.57 296.306 622.916 293.079 620.735 290.22 621.17 285.519 616.54 284.387 614.241 281.613 614.976 276.682 612.127 274.297 607.969 272.851 612.379 265.265 605.164 266.019 604.624 261.977 604.069 257.939 603.623 253.816 597.772 253.62 594.146 251.816 592.595 248.499 594.418 242.705 588.853 242.331 590.762 236.458 588.61 233.573 580.66 234.988 582.25 229.333 578.466 227.669 578.787 222.943 578.953 218.324 569.959 220.577 568.901 216.878 566.137 214.463 566.46 209.713 568.003 204.028 561.735 204.27 556.272 203.914 557.852 198.186 556.312 194.834 550.62 194.671 548.845 191.504 546.504 188.773 543.285 186.723 547.639 178.799 544.634 176.577 537.882 177.282 539.843 171.192 533.044 171.953 535.195 165.697 531.116 164.332 528.46 161.845 526.024 159.184 525.21 155.236 524.197 151.443 521.881 148.689 517.348 147.716 515.318 144.742 510.833 143.743 511.316 138.744 506.438 138.079 503.351 135.974 503.652 131.107 501.562 128.182 497.822 122.89 500.761 130.071 492.905 128.187 489.86 130.344 494.321 138.702 491.319 140.88 483.109 138.789 485.104 145.07 478.477 144.307 477.536 148.173 480.755 155.399 478.616 158.277 472.791 158.189 470.401 160.874 464.557 160.797 469.781 169.567 467.104 172.018 461.723 172.328 461.071 176.393 454.305 175.628 455.701 181.305 452.209 183.13 449.196 185.338 448.851 189.631 449.638 194.797 442.79 194.024 438.657 195.373 439.312 200.427 434.032 200.901 433.009 204.655 430.16 207.006 432.575 213.381 426.14 212.996 427.896 218.851 421.402 218.44 418.506 220.765 423.66 229.158 418.863 230.044 416.5 232.765 415.068 236.183 414.823 240.481 411.374 242.392 407.036 243.65 401.131 243.761 405.983 251.808 401.226 252.77 400.821 256.922 399.538 260.427 392.682 259.873 388.278 261.12 386.555 264.316 385.493 267.987 388.46 274.548 385.221 276.642 383.302 279.684 380.994 282.449 380.941 286.814 373.663 286.064 373.291 290.202 367.803 290.742 370.863 297.28 366.987 298.957 365.065 302.001 366.057 307.061 363.163 309.426 362.206 313.127 360.407 316.246 356.755 318.1 352.287 319.408 348.277 321.039 350.663 326.993 349.338 330.432 341.25 329.345 340.719 333.324 343.705 339.624 335.7 338.639 339.481 345.438 331.887 344.758 334.912 351.032 327.142 350.274 328.455 355.417 323.347 356.413 321.479 359.501 320.519 363.168 322.994 369.004 322.137 372.714 315.365 372.708 317.292 378.16 309.156 377.344 309.311 381.686 312.495 387.872 307.173 388.834 304.085 391.176 305.107 396.004 298.128 396.019 299.964 401.319 300.155 405.619 294.955 406.735 298.814 413.167 290.202 412.321 289.979 416.361 293.468 422.511 287.852 423.449 290.025 428.808 286.809 431.119 283.253 433.255 278.951 434.995 279.19 439.236 281.161 444.397 274.793 445.05 278.074 450.875 270.526 450.952 270.135 454.817 273.09 460.396 264.28 459.917 268.886 466.294 267.601 469.658 259.361 469.582 259.641 473.741 260.672 478.24 256.172 480.075 253.188 482.657 258.415 489.064 248.391 488.414 252.887 494.414 247.206 495.821 249.308 500.682 249.847 504.822 245.623 506.926 247.134 511.445 244.794 514.356 244.781 518.207 235.758 518.536 234.684 522.018 238.913 527.461 233 529.141 232.834 532.93 237.957 538.506 230.381 539.75 236.106 545.384 228.784 546.842 227.763 550.316 225.443 553.421 227.69 557.802 225.086 560.846 223.95 564.296 228.828 569.133 223.846 571.688 222.372 575.072 224.19 579.077 226.89 583.136 221.112 585.852 216.534 588.917 217.354 592.713" style="fill: none; stroke: #000; stroke-linecap: round; stroke-linejoin: round; stroke-width: 30px;"/>
</svg>