<?xml version="1.0" encoding="UTF-8"?>
<svg id="Sticker" xmlns="http://www.w3.org/2000/svg" width="1000" height="1000" viewBox="0 0 1000 1000">
  <path d="M124.57,318.712l4.727,6.733,3.598-7.797,3.598,6.238,3.599-.23,3.599-4.423,3.599,7.094,3.598-4.776,3.598-4.114,3.598,6.75,3.598-5.632,3.592,4.142,3.593,4.225,3.593-2.009,3.593-5.671,3.594,2.922,3.594,4.353,3.595-9.304,3.595,8.289,3.596-.695,3.597-1.967,3.598-3.109,3.598,5.338,3.599-6.518,3.599,1.811,3.598-1.724,3.597,6.059,3.597.615,3.596-.327,3.596-6.206,3.595,4.445,3.595-2.496,3.594-2.964,3.594,1.956,3.594-.728,3.594-.358,3.593,7.315,3.593-5.812,3.593,6.174,3.593-5.09,3.593,2.321,3.594-4.562,3.594,1.672,3.594.167,3.594-2.272,3.595,8.309,3.595-9.596,3.596,6.974,3.597-5.115,3.597,6.941,3.598-3.186,3.599,2.714,3.6.186,3.6-3.073,3.599,2.531,3.598-6.648,3.597,3.284,3.597-2.52,3.596.719,3.596,4.082,3.596-4.627,3.595,2.126,3.595-1.385,3.595,4.118,3.595-1.191,3.595-5.848,3.595,9.529,3.595-8.124,3.596-.707,3.596,3.084,3.597,5.544,3.597-3.208,3.598,1.899,3.599-1.587,3.599,2.166,3.6-5.963,3.6,2.171,3.599-3.146,3.598,6.186,3.598-1.631,3.597-6.455,3.597,9.359,3.597-2.015,3.596-6.625,3.596,2.362,3.596,4.148,3.596-.45,3.597,2.355,3.597-8.306,3.598,2.011,3.598-.566,3.599,7.099,3.6-4.74,3.601.116,3.6-4.067,3.6.796,3.599,2.66,3.598.593,3.598-.296,3.598,1.348,3.597-2.803,3.597.126,3.597-2.912,3.598,1.308,3.598,7.524,3.599-3.185,3.6-4.607,3.6.724,3.601,4.359,3.6.55,3.6,1.372,3.599-.889,3.599-6.454,3.598,3.154,3.598,4.158,3.598-7.178,3.599,6.681,3.599-5.46,3.6,3.905,3.601-5.943,3.602.569,3.601,1.134,3.6,7.371,3.599-2.239,3.599-3.236,3.599,2.812,3.599,1.723,3.599-7.335,3.6,2.426,3.601,4.607,3.602-2.224,3.601,2.716,3.6-6.227,3.6-.573,3.599,3.943,3.6-4.852,3.6,3.343,3.601-1.961,3.602,2.145,3.601,1.448,3.6,2.349,3.6-7.429,3.6,6.909,3.6-2.55,3.601-.65,3.602-.217,3.602-1.065,3.601-1.162,3.6,6.511,3.6.34,3.601-5.646,3.602-1.729,3.602,4.684,3.601.368,3.601.946,3.596.415,3.596-1.433,3.596,1.514,3.596-7.444,3.598,1.101,3.6,3.196,3.603-4.224,3.601,2.971,3.599-3.112,3.598,3.013,3.598,1.347,3.598.492,3.6,1.253,3.602-5.242,3.603,5.725,3.6-5.54,3.599,3.681,3.599-4.553,3.601,2.341,3.603,4.994,3.603-2.11,3.601-3.33,3.601,6.949,3.602-2.83,3.605-4.544,3.602,6.472,3.601.033,3.603.91,3.604-8.938,3.602.063,3.603,1.48,3.605-2.175,3.603,5.656,3.605.6,3.604-6.229,3.604,6.255,3.604-6.268,3.605,1.307,3.6-.071,3.604,5.771,3.6,1.023,3.605.162,3.603-7.502,3.606,2.369,3.604-1.19,3.606-1.58,3.607-.232,3.607,5.632,3.607,1.141,3.606-5.789,3.607,5.534,3.608-.925,3.613,1.183,2.146,2.218-1.854-.872,4.633,4.096-3.359,3.235-2.867,3.24,1.141,3.765,4.592,4.318-5.242,2.838,5.358,4.535-3.065,3.149-7.447,2.308,8.846,5.311-4.662,2.777-4.024,2.849-2.583,3.108,4.679,4.682-5.027,2.551.024,3.677,1.208,3.977.568,3.848-2.547,3.068,3.21,4.568-7.174,1.803,5.539,5.266-3.131,2.874-7.061,1.683-1.212,3.36,4.876,5.246-1.509,3.308-4.978,2.171,4.715,5.346-5.255,2.031,3.582,5.059-5.887,1.744-.92,3.488.733,4.114-2.693,2.833,2.146,4.708-.063,3.883-8.662.379,3.273,5.251.739,4.251-9.147-.036.81,4.271-2.693,2.714-1.855,3.082-1.334,3.323,4.44,6.138-2.637,2.744-3.194,2.44-3.726,2.131-.836,3.616,2.34,5.35-1.905,3.1-2.554,2.732-7.247.016,2.233,5.448.096,4.266-5.254,1.043-.093,4.18.422,4.556-7.112-.284,1.978,5.617-2.502,2.688-5.014.936-4.082,1.51-1.995,2.956,3.528,7.03-3.834,1.664-3.052,2.213.89,5.281-6.395-.457-4.42,1.02-.364,4.338,2.476,6.836-7.365-1.582.499,5.248-3.245,1.947-3.56,1.621-.16,4.815-3.822,1.347-4.197.917-4.872.155-1.531,3.528-2.759,2.268-3.42,1.54.661,6.051.042,5.516-8.05-3.79,1.962,7.892-5.299-.732-.213,5.501-2.133,3.193-6.612-2.656-3.174,1.741-2.56,2.57-2.411,2.804-5.133-1.114-.435,5.728-1.564,4.196-5.073-1.196-1.048,5.123-4.204.073-2.107,3.541-2.39,3.14-7.469-5.907-.944,5.709-4.646-1.094-.17,7.495-6.842-5.586-3.143,1.647-2.141,3.793-2.286,3.616-3.99-.118-1.844,4.811-3.001,2.235-5.777-4.647-3.456.947-3.193,1.627-2.022,4.892-4.154-.949-2.145,4.859-2.962,2.62-5.393-5.035-3.648.279-1.961,6.046-2.96,2.869-5.23-5.476-1.835,7.235-5.44-6.918-2.907,3.183-2.672,4.466-2.996,3.308-3.849-.659-4.147-2.353-4.152-2.712-2.545,6.224-4.308-3.926-3.17,2.942-3.423,1.504-3.489,1.153-3.597.387-3.477,1.412-4.054-3.828-3.696-.938-3.295,3.307-3.431,2.235-3.548,1.1-3.972-5.331-3.332,4.597-3.912-6.219-3.464,2.63-3.602-.558-3.558,1.035-3.541,3.061-3.648-4.559-3.578.019-3.595,1.069-3.623,2.403-3.533-4.292-3.586.073-3.575-.33-3.635,1.394-3.538-1.312-3.817,4.676-3.459-2.883-3.807,3.276-3.264-5.263-4.044,5.906-3.278-4.36-4.008,4.394-3.395-2.615-3.46-1.676-3.342-2.561-4.256,5.373-3.327-2.644-4.044,2.936-3.396-1.99-2.622-6.984-4.57,5.967-3.533-.896-3.409-1.579-3.819.745-2.292-7.325-4.006,1.781-3.733.271-3.436-1.171-3.167-2.314-4.78,4.595-3.105-2.604-3.51-.897-3.393-1.335-2.76-3.596-2.932-2.809-5.761,6.836-3.516-.995-3.377-1.44-2.765-3.276-3.096-2.168-2.533-3.705-2.781-2.863-5.866,5.467-1.63-5.898-4.341,1.177-4.099.438-1.143-6.646-2.51-3.209-6.223,5.155-3.932-.174-1.252-5.88-2.828-2.421-2.001-4.017-5.627,3.116-4.682,1.082-2.958-2.218.141-7.707-4.069-.103-3.355-1.396-2.707-2.482-5.811,2.517-1.227-4.857-1.483-4.323-4.331.016-3.126-1.826-4.197-.329-2.505-2.741-1.459-4.114-4.959.558,1.847-8.259-3.647-1.128-4.786.204-1.222-4.142-6.529,2.093-1.014-4.356.137-5.537-6.231,1.481-3.007-2.099-3.915-1.182-2.478-2.69-.061-5.061.031-5.037-7.779,2.407-1.159-3.896.713-5.521-6.984,1.357-2.493-2.675,3.696-7.87-4.744-.723-2.955-2.248-1.825-3.16-1.237-3.596-3.737-1.688-4.11-1.466,4.075-7.407-7.19.701.339-4.631-.231-4.176-1.351-3.388-4.923-1.072-.794-3.756.579-4.572-4.86-1.226-6.133-.553,3.823-6.414-3.234-2.284-.51-3.827.085-4.121-9.388.941,4.31-6.336-7.577-.169,5.463-6.778-3.039-2.493-2.302-2.875-3.961-2.119-.773-3.621-.2-3.863-6.546-1.068,1.183-4.466-3.658-2.394.664-4.203-2.737-2.805,6.295-6.366-4.61-2.06-.11-3.802-2.539-2.893-2.905-2.783,1.765-4.447-4.045-2.409,2.488-4.644-8.656-.934.034-3.831-.321-3.703,2.015-4.408-4.044-2.546-2.79-2.955,2.492-4.491,1.664-4.214-7.193-1.762,7.365-5.725-.763-3.504-8.316-1.582.4-3.837,4.486-4.813-3.333-2.901-6.393-2.223,5.992-5.075.161-3.714-6.758-2.224,3.273-4.384-5.688-2.52,6.782-5.045-5.867-2.527,4.64-4.554-5.681-2.609,1.503-3.941-.003-3.662-.944-3.493,2.071-3.997-5.708-6.141ZM503.419,321.939l-6.925,3.595,7.797,3.595-6.238,3.594.23,3.594,4.423,3.594-7.094,3.594,4.776,3.594,4.114,3.595-6.75,3.595,5.632,3.596-4.142,3.597-4.225,3.596,2.009,3.596,5.671,3.595-2.922,3.595-4.353,3.595,9.304,3.595-8.289,3.595.695,3.596,1.967,3.597,3.109,3.598-5.338,3.597,6.518,3.596-1.811,3.595,1.724,3.595-6.059,3.595-.615,3.596.327,3.596,6.206,3.598-4.445,3.597,2.496,3.596,2.964,3.596-1.956,3.596.728,3.596.358,3.597-7.315,3.598,5.812,3.597-6.174,3.596,5.09,3.596-2.321,3.596,4.562,3.597-1.672,3.598-.167,3.597,2.272,3.597-8.309,3.596,9.596,3.592-6.974,3.591,5.115,3.591-6.941,3.592,3.186,3.594-2.714,3.596-.186,3.599,3.073,3.597-2.531,3.595,6.648,3.594-3.284,3.593,2.52,3.594-.719,3.595-4.082,3.598,4.627,3.598-2.126,3.596,1.385,3.595-4.118,3.595,1.191,3.596,5.848,3.599-9.529,3.598,8.124,3.597.707,3.596-3.084,3.598-5.544,3.6,3.208,3.598-1.899,3.597,1.587,3.599-2.166,3.6,5.963,3.598-2.171,3.599,3.146,3.6-6.186,3.599,1.631,3.6,6.455,3.599-9.359,3.6,2.015,3.6,6.625,3.601-2.362,3.596-4.148,3.6.45,3.596-2.355,3.6,8.306,3.598-2.011,3.602.566,3.6-7.099,3.601,4.74,3.603-.116,3.603,4.067,3.603-.796,3.602-2.66,3.602-.593,3.603.296,3.609-1.348,3.609M684.343,321.939l-6.925,3.614,7.797,3.614-6.238,3.615.23,3.615,4.423,3.616-7.094,3.617,4.776,3.616,4.114,3.615-6.75,3.615,5.632,3.615-4.142,3.615-4.225,3.615,2.009,3.616,5.671,3.617-2.922,3.617-4.353,3.616,9.304,3.615-8.289,3.615.695,3.615,1.967,3.616,3.109,3.617-5.338,3.617,6.518,3.616-1.811,3.616,1.724,3.616-6.059,3.616-.615,3.617.327,3.617,6.206,3.616-4.445,3.616,2.496,3.611,2.964,3.611-1.956,3.611.728,3.612.358,3.613-7.315,3.615,5.812,3.618-6.174,3.616,5.09,3.614-2.321,3.613,4.562,3.613-1.672,3.613-.167,3.615,2.272,3.617-8.309,3.618,9.596,3.616-6.974,3.615,5.115,3.615-6.941,3.616,3.186,3.619-2.714,3.618-.186,3.616,3.073,3.616-2.531,3.617,6.648,3.62-3.284,3.617,2.52,3.617-.719,3.618-4.082,3.619,4.627,3.618-2.126,3.618,1.385,3.62-4.118,3.618,1.191,3.62,5.848,3.619-9.529,3.62,8.124,3.619.707,3.62-3.084,3.619-5.544,3.619,3.208,3.615-1.899,3.62,1.587,3.618-2.166,3.621,5.963,3.619-2.171,3.621,3.146,3.622-6.186,3.622,1.631,3.622,6.455,3.621-9.359,3.622,2.015,3.623,6.625,3.628-2.362,3.628M322.494,321.939l-6.925,3.614,7.797,3.614-6.238,3.615.23,3.615,4.423,3.616-7.094,3.617,4.776,3.616,4.114,3.615-6.75,3.615,5.632,3.615-4.142,3.615-4.225,3.615,2.009,3.616,5.671,3.617-2.922,3.617-4.353,3.616,9.304,3.615-8.289,3.615.695,3.615,1.967,3.616,3.109,3.617-5.338,3.617,6.518,3.616-1.811,3.616,1.724,3.616-6.059,3.616-.615,3.617.327,3.617,6.206,3.616-4.445,3.616,2.496,3.611,2.964,3.611-1.956,3.611.728,3.612.358,3.613-7.315,3.615,5.812,3.618-6.174,3.616,5.09,3.614-2.321,3.613,4.562,3.613-1.672,3.613-.167,3.615,2.272,3.617-8.309,3.618,9.596,3.616-6.974,3.615,5.115,3.615-6.941,3.616,3.186,3.619-2.714,3.618-.186,3.616,3.073,3.616-2.531,3.617,6.648,3.62-3.284,3.617,2.52,3.617-.719,3.618-4.082,3.619,4.627,3.618-2.126,3.618,1.385,3.62-4.118,3.618,1.191,3.62,5.848,3.619-9.529,3.62,8.124,3.619.707,3.62-3.084,3.619-5.544,3.619,3.208,3.615-1.899,3.62,1.587,3.618-2.166,3.621,5.963,3.619-2.171,3.621,3.146,3.622-6.186,3.622,1.631,3.622,6.455,3.621-9.359,3.622,2.015,3.623,6.625,3.628-2.362,3.628" style="fill: #fff;"/>
  <path d="M124.57,318.712l4.727,6.733,3.598-7.797,3.598,6.238,3.599-.23,3.599-4.423,3.599,7.094,3.598-4.776,3.598-4.114,3.598,6.75,3.598-5.632,3.592,4.142,3.593,4.225,3.593-2.009,3.593-5.671,3.594,2.922,3.594,4.353,3.595-9.304,3.595,8.289,3.596-.695,3.597-1.967,3.598-3.109,3.598,5.338,3.599-6.518,3.599,1.811,3.598-1.724,3.597,6.059,3.597.615,3.596-.327,3.596-6.206,3.595,4.445,3.595-2.496,3.594-2.964,3.594,1.956,3.594-.728,3.594-.358,3.593,7.315,3.593-5.812,3.593,6.174,3.593-5.09,3.593,2.321,3.594-4.562,3.594,1.672,3.594.167,3.594-2.272,3.595,8.309,3.595-9.596,3.596,6.974,3.597-5.115,3.597,6.941,3.598-3.186,3.599,2.714,3.6.186,3.6-3.073,3.599,2.531,3.598-6.648,3.597,3.284,3.597-2.52,3.596.719,3.596,4.082,3.596-4.627,3.595,2.126,3.595-1.385,3.595,4.118,3.595-1.191,3.595-5.848,3.595,9.529,3.595-8.124,3.596-.707,3.596,3.084,3.597,5.544,3.597-3.208,3.598,1.899,3.599-1.587,3.599,2.166,3.6-5.963,3.6,2.171,3.599-3.146,3.598,6.186,3.598-1.631,3.597-6.455,3.597,9.359,3.597-2.015,3.596-6.625,3.596,2.362,3.596,4.148,3.596-.45,3.597,2.355,3.597-8.306,3.598,2.011,3.598-.566,3.599,7.099,3.6-4.74,3.601.116,3.6-4.067,3.6.796,3.599,2.66,3.598.593,3.598-.296,3.598,1.348,3.597-2.803,3.597.126,3.597-2.912,3.598,1.308,3.598,7.524,3.599-3.185,3.6-4.607,3.6.724,3.601,4.359,3.6.55,3.6,1.372,3.599-.889,3.599-6.454,3.598,3.154,3.598,4.158,3.598-7.178,3.599,6.681,3.599-5.46,3.6,3.905,3.601-5.943,3.602.569,3.601,1.134,3.6,7.371,3.599-2.239,3.599-3.236,3.599,2.812,3.599,1.723,3.599-7.335,3.6,2.426,3.601,4.607,3.602-2.224,3.601,2.716,3.6-6.227,3.6-.573,3.599,3.943,3.6-4.852,3.6,3.343,3.601-1.961,3.602,2.145,3.601,1.448,3.6,2.349,3.6-7.429,3.6,6.909,3.6-2.55,3.601-.65,3.602-.217,3.602-1.065,3.601-1.162,3.6,6.511,3.6.34,3.601-5.646,3.602-1.729,3.602,4.684,3.601.368,3.601.946,3.596.415,3.596-1.433,3.596,1.514,3.596-7.444,3.598,1.101,3.6,3.196,3.603-4.224,3.601,2.971,3.599-3.112,3.598,3.013,3.598,1.347,3.598.492,3.6,1.253,3.602-5.242,3.603,5.725,3.6-5.54,3.599,3.681,3.599-4.553,3.601,2.341,3.603,4.994,3.603-2.11,3.601-3.33,3.601,6.949,3.602-2.83,3.605-4.544,3.602,6.472,3.601.033,3.603.91,3.604-8.938,3.602.063,3.603,1.48,3.605-2.175,3.603,5.656,3.605.6,3.604-6.229,3.604,6.255,3.604-6.268,3.605,1.307,3.6-.071,3.604,5.771,3.6,1.023,3.605.162,3.603-7.502,3.606,2.369,3.604-1.19,3.606-1.58,3.607-.232,3.607,5.632,3.607,1.141,3.606-5.789,3.607,5.534,3.608-.925,3.613,1.183,2.146,2.218-1.854-.872,4.633,4.096-3.359,3.235-2.867,3.24,1.141,3.765,4.592,4.318-5.242,2.838,5.358,4.535-3.065,3.149-7.447,2.308,8.846,5.311-4.662,2.777-4.024,2.849-2.583,3.108,4.679,4.682-5.027,2.551.024,3.677,1.208,3.977.568,3.848-2.547,3.068,3.21,4.568-7.174,1.803,5.539,5.266-3.131,2.874-7.061,1.683-1.212,3.36,4.876,5.246-1.509,3.308-4.978,2.171,4.715,5.346-5.255,2.031,3.582,5.059-5.887,1.744-.92,3.488.733,4.114-2.693,2.833,2.146,4.708-.063,3.883-8.662.379,3.273,5.251.739,4.251-9.147-.036.81,4.271-2.693,2.714-1.855,3.082-1.334,3.323,4.44,6.138-2.637,2.744-3.194,2.44-3.726,2.131-.836,3.616,2.34,5.35-1.905,3.1-2.554,2.732-7.247.016,2.233,5.448.096,4.266-5.254,1.043-.093,4.18.422,4.556-7.112-.284,1.978,5.617-2.502,2.688-5.014.936-4.082,1.51-1.995,2.956,3.528,7.03-3.834,1.664-3.052,2.213.89,5.281-6.395-.457-4.42,1.02-.364,4.338,2.476,6.836-7.365-1.582.499,5.248-3.245,1.947-3.56,1.621-.16,4.815-3.822,1.347-4.197.917-4.872.155-1.531,3.528-2.759,2.268-3.42,1.54.661,6.051.042,5.516-8.05-3.79,1.962,7.892-5.299-.732-.213,5.501-2.133,3.193-6.612-2.656-3.174,1.741-2.56,2.57-2.411,2.804-5.133-1.114-.435,5.728-1.564,4.196-5.073-1.196-1.048,5.123-4.204.073-2.107,3.541-2.39,3.14-7.469-5.907-.944,5.709-4.646-1.094-.17,7.495-6.842-5.586-3.143,1.647-2.141,3.793-2.286,3.616-3.99-.118-1.844,4.811-3.001,2.235-5.777-4.647-3.456.947-3.193,1.627-2.022,4.892-4.154-.949-2.145,4.859-2.962,2.62-5.393-5.035-3.648.279-1.961,6.046-2.96,2.869-5.23-5.476-1.835,7.235-5.44-6.918-2.907,3.183-2.672,4.466-2.996,3.308-3.849-.659-4.147-2.353-4.152-2.712-2.545,6.224-4.308-3.926-3.17,2.942-3.423,1.504-3.489,1.153-3.597.387-3.477,1.412-4.054-3.828-3.696-.938-3.295,3.307-3.431,2.235-3.548,1.1-3.972-5.331-3.332,4.597-3.912-6.219-3.464,2.63-3.602-.558-3.558,1.035-3.541,3.061-3.648-4.559-3.578.019-3.595,1.069-3.623,2.403-3.533-4.292-3.586.073-3.575-.33-3.635,1.394-3.538-1.312-3.817,4.676-3.459-2.883-3.807,3.276-3.264-5.263-4.044,5.906-3.278-4.36-4.008,4.394-3.395-2.615-3.46-1.676-3.342-2.561-4.256,5.373-3.327-2.644-4.044,2.936-3.396-1.99-2.622-6.984-4.57,5.967-3.533-.896-3.409-1.579-3.819.745-2.292-7.325-4.006,1.781-3.733.271-3.436-1.171-3.167-2.314-4.78,4.595-3.105-2.604-3.51-.897-3.393-1.335-2.76-3.596-2.932-2.809-5.761,6.836-3.516-.995-3.377-1.44-2.765-3.276-3.096-2.168-2.533-3.705-2.781-2.863-5.866,5.467-1.63-5.898-4.341,1.177-4.099.438-1.143-6.646-2.51-3.209-6.223,5.155-3.932-.174-1.252-5.88-2.828-2.421-2.001-4.017-5.627,3.116-4.682,1.082-2.958-2.218.141-7.707-4.069-.103-3.355-1.396-2.707-2.482-5.811,2.517-1.227-4.857-1.483-4.323-4.331.016-3.126-1.826-4.197-.329-2.505-2.741-1.459-4.114-4.959.558,1.847-8.259-3.647-1.128-4.786.204-1.222-4.142-6.529,2.093-1.014-4.356.137-5.537-6.231,1.481-3.007-2.099-3.915-1.182-2.478-2.69-.061-5.061.031-5.037-7.779,2.407-1.159-3.896.713-5.521-6.984,1.357-2.493-2.675,3.696-7.87-4.744-.723-2.955-2.248-1.825-3.16-1.237-3.596-3.737-1.688-4.11-1.466,4.075-7.407-7.19.701.339-4.631-.231-4.176-1.351-3.388-4.923-1.072-.794-3.756.579-4.572-4.86-1.226-6.133-.553,3.823-6.414-3.234-2.284-.51-3.827.085-4.121-9.388.941,4.31-6.336-7.577-.169,5.463-6.778-3.039-2.493-2.302-2.875-3.961-2.119-.773-3.621-.2-3.863-6.546-1.068,1.183-4.466-3.658-2.394.664-4.203-2.737-2.805,6.295-6.366-4.61-2.06-.11-3.802-2.539-2.893-2.905-2.783,1.765-4.447-4.045-2.409,2.488-4.644-8.656-.934.034-3.831-.321-3.703,2.015-4.408-4.044-2.546-2.79-2.955,2.492-4.491,1.664-4.214-7.193-1.762,7.365-5.725-.763-3.504-8.316-1.582.4-3.837,4.486-4.813-3.333-2.901-6.393-2.223,5.992-5.075.161-3.714-6.758-2.224,3.273-4.384-5.688-2.52,6.782-5.045-5.867-2.527,4.64-4.554-5.681-2.609,1.503-3.941-.003-3.662-.944-3.493,2.071-3.997-5.708-6.141ZM503.419,321.939l-6.925,3.595,7.797,3.595-6.238,3.594.23,3.594,4.423,3.594-7.094,3.594,4.776,3.594,4.114,3.595-6.75,3.595,5.632,3.596-4.142,3.597-4.225,3.596,2.009,3.596,5.671,3.595-2.922,3.595-4.353,3.595,9.304,3.595-8.289,3.595.695,3.596,1.967,3.597,3.109,3.598-5.338,3.597,6.518,3.596-1.811,3.595,1.724,3.595-6.059,3.595-.615,3.596.327,3.596,6.206,3.598-4.445,3.597,2.496,3.596,2.964,3.596-1.956,3.596.728,3.596.358,3.597-7.315,3.598,5.812,3.597-6.174,3.596,5.09,3.596-2.321,3.596,4.562,3.597-1.672,3.598-.167,3.597,2.272,3.597-8.309,3.596,9.596,3.592-6.974,3.591,5.115,3.591-6.941,3.592,3.186,3.594-2.714,3.596-.186,3.599,3.073,3.597-2.531,3.595,6.648,3.594-3.284,3.593,2.52,3.594-.719,3.595-4.082,3.598,4.627,3.598-2.126,3.596,1.385,3.595-4.118,3.595,1.191,3.596,5.848,3.599-9.529,3.598,8.124,3.597.707,3.596-3.084,3.598-5.544,3.6,3.208,3.598-1.899,3.597,1.587,3.599-2.166,3.6,5.963,3.598-2.171,3.599,3.146,3.6-6.186,3.599,1.631,3.6,6.455,3.599-9.359,3.6,2.015,3.6,6.625,3.601-2.362,3.596-4.148,3.6.45,3.596-2.355,3.6,8.306,3.598-2.011,3.602.566,3.6-7.099,3.601,4.74,3.603-.116,3.603,4.067,3.603-.796,3.602-2.66,3.602-.593,3.603.296,3.609-1.348,3.609M684.343,321.939l-6.925,3.614,7.797,3.614-6.238,3.615.23,3.615,4.423,3.616-7.094,3.617,4.776,3.616,4.114,3.615-6.75,3.615,5.632,3.615-4.142,3.615-4.225,3.615,2.009,3.616,5.671,3.617-2.922,3.617-4.353,3.616,9.304,3.615-8.289,3.615.695,3.615,1.967,3.616,3.109,3.617-5.338,3.617,6.518,3.616-1.811,3.616,1.724,3.616-6.059,3.616-.615,3.617.327,3.617,6.206,3.616-4.445,3.616,2.496,3.611,2.964,3.611-1.956,3.611.728,3.612.358,3.613-7.315,3.615,5.812,3.618-6.174,3.616,5.09,3.614-2.321,3.613,4.562,3.613-1.672,3.613-.167,3.615,2.272,3.617-8.309,3.618,9.596,3.616-6.974,3.615,5.115,3.615-6.941,3.616,3.186,3.619-2.714,3.618-.186,3.616,3.073,3.616-2.531,3.617,6.648,3.62-3.284,3.617,2.52,3.617-.719,3.618-4.082,3.619,4.627,3.618-2.126,3.618,1.385,3.62-4.118,3.618,1.191,3.62,5.848,3.619-9.529,3.62,8.124,3.619.707,3.62-3.084,3.619-5.544,3.619,3.208,3.615-1.899,3.62,1.587,3.618-2.166,3.621,5.963,3.619-2.171,3.621,3.146,3.622-6.186,3.622,1.631,3.622,6.455,3.621-9.359,3.622,2.015,3.623,6.625,3.628-2.362,3.628M322.494,321.939l-6.925,3.614,7.797,3.614-6.238,3.615.23,3.615,4.423,3.616-7.094,3.617,4.776,3.616,4.114,3.615-6.75,3.615,5.632,3.615-4.142,3.615-4.225,3.615,2.009,3.616,5.671,3.617-2.922,3.617-4.353,3.616,9.304,3.615-8.289,3.615.695,3.615,1.967,3.616,3.109,3.617-5.338,3.617,6.518,3.616-1.811,3.616,1.724,3.616-6.059,3.616-.615,3.617.327,3.617,6.206,3.616-4.445,3.616,2.496,3.611,2.964,3.611-1.956,3.611.728,3.612.358,3.613-7.315,3.615,5.812,3.618-6.174,3.616,5.09,3.614-2.321,3.613,4.562,3.613-1.672,3.613-.167,3.615,2.272,3.617-8.309,3.618,9.596,3.616-6.974,3.615,5.115,3.615-6.941,3.616,3.186,3.619-2.714,3.618-.186,3.616,3.073,3.616-2.531,3.617,6.648,3.62-3.284,3.617,2.52,3.617-.719,3.618-4.082,3.619,4.627,3.618-2.126,3.618,1.385,3.62-4.118,3.618,1.191,3.62,5.848,3.619-9.529,3.62,8.124,3.619.707,3.62-3.084,3.619-5.544,3.619,3.208,3.615-1.899,3.62,1.587,3.618-2.166,3.621,5.963,3.619-2.171,3.621,3.146,3.622-6.186,3.622,1.631,3.622,6.455,3.621-9.359,3.622,2.015,3.623,6.625,3.628-2.362,3.628" style="fill: none; stroke: #000; stroke-linecap: round; stroke-linejoin: round; stroke-width: 35px;"/>
</svg>