<?xml version="1.0" encoding="UTF-8"?>
<svg id="Sticker" xmlns="http://www.w3.org/2000/svg" width="1000" height="1000" viewBox="0 0 1000 1000">
  <polygon points="886.138 502.296 888.633 505.921 883.972 509.462 884.562 513.063 880.193 516.495 889.561 520.481 885.611 523.907 887.345 527.63 885.479 531.125 882.903 534.53 879.739 537.838 881.975 541.643 882.14 545.267 883.159 549.004 883.608 552.695 877.269 555.453 881.195 559.633 884.119 563.74 883.814 567.37 884.245 571.136 874.755 573.057 875.823 576.895 881.539 581.732 878.701 584.836 874.83 587.664 879.105 592.364 869.987 593.854 870.323 597.611 873.81 602.235 871.054 605.217 866.535 607.654 873.234 613.361 871.342 616.58 871.077 620.299 862.059 621.157 867.058 626.607 860.847 628.263 865.68 633.795 857.079 634.469 855.765 637.769 859.254 642.954 858.9 646.692 856.651 649.666 856.982 653.72 848.885 654.13 854.93 660.728 849.277 662.121 848.346 665.643 844.944 667.987 846.884 672.928 842.553 674.779 843.58 679.339 837.15 680.014 838.18 684.616 838.47 688.875 832.385 689.574 834.236 694.757 827.967 695.231 832.117 701.885 829.654 704.614 829.854 709.004 824.523 709.896 826.099 715.23 821.502 716.526 822.147 721.332 812.982 719.376 816.494 726.234 808.663 725.026 807.766 728.78 805.246 731.347 805.796 736.262 807.505 742.166 798.54 739.665 798.626 744.325 798.897 749.212 798.163 753.329 789.336 750.527 788.005 754.094 788.096 758.967 788.752 764.437 779.893 761.179 781.912 767.988 779.678 770.857 776.984 773.284 769.964 771.38 771.969 778.503 765.221 776.714 763.657 780.246 764.947 786.893 758.091 784.758 756.736 788.601 752.291 788.979 751.244 793.227 751.529 799.124 744.177 795.95 746.004 803.843 741.519 804.05 739.012 806.701 736.18 808.946 729.157 805.632 727.657 809.575 726.392 813.914 723.311 815.788 721.055 818.836 719.506 822.96 712.19 818.554 713.408 826.894 708.166 825.447 704.47 826.314 702.453 829.858 698.182 829.742 696.864 834.535 694.099 836.958 691.503 839.705 686.715 838.537 685.369 843.594 680.348 841.863 677.267 843.721 673.298 843.833 670.409 846.061 666.594 846.399 665.596 852.659 662.715 855.058 658.345 854.177 654.443 854.246 651.01 855.347 648.549 858.774 644.218 857.68 640.729 858.593 638.712 863.34 633.362 859.308 632.997 868.79 628.498 866.962 624.686 866.967 619.571 862.938 616.646 865.448 615.435 873.617 610.909 871.148 608.4 875.445 603.545 871.523 600.166 872.755 596.66 873.518 594.496 879.697 590.055 876.727 585.697 873.788 584.024 882.856 579.579 879.362 575.32 876.384 572.48 880.576 569.175 882.543 564.864 878.703 562.122 884.187 557.626 878.568 554.242 880.061 551.008 882.85 547.488 883.634 543.698 882.057 540.666 887.542 536.7 883.992 533.469 888.388 529.982 890.352 526.024 885.532 522.244 882.228 518.712 882.89 515.099 881.603 511.797 890.656 508.075 885.864 504.464 883.393 500.898 882.346 497.33 883.781 493.654 889.611 490.053 888.755 486.601 884.253 482.861 887.744 479.405 884.876 475.933 883.024 472.273 884.118 468.973 880.586 465.341 881.306 461.085 887.942 457.312 889.061 454.223 884.283 450.695 883.505 447.786 878.35 443.418 883.543 439.585 884.692 436.324 882.249 433.515 877.475 429.563 879.204 425.251 882.518 423.324 873.97 419.172 876.356 415.831 874.902 410.737 880.894 407.935 877.067 405.056 873.768 400.312 877.628 398.561 870.347 394.462 871.677 391.141 870.238 386.664 872.579 385.446 864.463 380.833 867.116 378.113 863.96 375.428 860.824 371.86 860.251 365.865 866.18 364.118 860.585 359.413 862.757 358.663 854.944 355.316 853.735 350.161 856.766 347.222 854.498 344.938 850.811 342.232 848.152 338.412 847.915 333.872 849.109 332.07 844.63 327.015 846.719 322.859 846.9 321.125 842.426 318.823 839.125 315.075 838.502 312.389 835.959 308.404 835.69 304.553 835.132 301.46 833.264 299.487 829.582 298.072 825.086 294.446 824.134 290.854 823.092 289.626 818.482 285.833 817.73 280.853 818.633 277.735 816.801 275.653 813.529 270.269 814.769 269.183 810.178 269.627 803.687 266.235 802.257 260.637 803.56 255.774 803.827 256.72 796.994 255.931 792.384 247.223 797.053 244.191 794.995 245.359 788.229 241.472 787.17 240.387 783.043 234.856 783.679 232.286 781.128 232.303 775.943 229.659 773.516 228.626 769.505 226.961 766.155 220.887 767.003 216.898 765.791 215.449 762.21 217.801 755.265 209.127 758.154 207.241 754.99 205.112 752.046 203.052 749.051 202.92 744.497 203.134 739.731 195.574 741.13 192.264 739.102 191.847 734.862 193.58 729.083 185.46 730.559 183.311 727.62 183.155 723.291 182.253 719.525 178.454 717.729 178.273 713.511 176.543 710.338 175.838 706.524 177.104 701.527 174.053 699.217 168.948 698.09 170.893 692.803 168.23 690.216 167.51 686.532 162.04 685.445 164.838 679.888 160.987 677.881 156.148 676.321 152.026 674.33 153.006 669.819 153.642 665.53 152.546 662.086 146.855 660.711 144.723 657.686 147.398 652.599 145.698 649.417 146.832 645.084 138.697 644.445 143.421 638.747 144.638 634.48 142.743 631.388 136.536 629.79 139.528 624.963 138.704 621.479 131.168 620.139 135.095 615.132 131.1 612.588 130.204 609.092 131.195 605.074 132.634 600.977 126.051 598.99 125.643 595.363 131.253 590.318 124.078 588.306 120.634 585.357 121.949 581.367 120.573 577.951 122.328 573.932 121.832 570.362 123.188 566.482 119.41 563.456 121.334 559.516 124.704 555.42 120.95 552.327 119.722 548.866 115.965 545.672 121.798 541.437 122.366 537.805 119.552 534.472 114.83 531.233 120.788 527.22 118.39 523.784 116.82 520.27 113.781 516.784 119.833 512.993 116.844 509.482 118.412 505.874 112.997 502.296 114.737 498.684 112.126 495.025 116.88 491.518 116.662 487.915 118.108 484.381 116.966 480.728 121.93 477.444 118.454 473.625 115.05 469.742 117.448 466.327 118.989 462.863 121.296 459.508 115.045 455.153 117.138 451.76 121.83 448.761 124.837 445.591 124.697 441.968 121.191 437.763 121.842 434.221 119.243 430.068 121.627 426.837 126.638 424.184 120.591 419.211 127.717 417.098 122.43 412.166 129.55 410.179 127.997 406.086 129.034 402.636 126.898 398.308 134.73 396.784 134.456 392.986 129.055 387.581 131.442 384.523 139.878 383.481 136.973 378.743 133.551 373.739 141.292 372.662 139.292 368.108 137.803 363.68 144.342 362.344 148.385 360.115 146.531 355.5 147.209 351.891 148.259 348.429 151.045 345.736 148.287 340.525 151.15 337.865 157.065 336.707 152.605 330.524 158.654 329.515 156.792 324.515 158.168 321.146 158.352 317.124 165.872 317.127 164.575 312.28 172.011 312.41 166.496 305.025 174.458 305.592 171.596 299.641 171.829 295.516 179.212 295.942 175.732 289.385 183.417 290.157 186.477 287.923 185.341 282.795 188.509 280.637 185.818 274.262 193.756 275.609 191.115 269.148 196.321 268.577 199.504 266.509 202.207 264.089 200.803 258.34 208.596 260.105 205.2 252.587 205.915 248.426 208.645 245.98 210.507 242.769 214.051 241.072 222.101 243.596 218.562 235.353 226.285 237.75 226.462 232.927 230.388 231.767 229.046 225.293 231.884 223.008 238.768 225.01 236.503 217.326 241.412 217.317 247.185 218.367 249.374 215.463 252.907 214.098 253.389 209.161 253.33 203.471 255.999 201.002 261.917 202.596 263.288 198.534 268.968 200.008 271.696 197.707 274.816 195.932 275.801 191.226 276.575 186.117 283.172 189.245 284.212 184.445 288.744 184.75 292.733 184.321 291.185 175.34 297.089 177.901 298.723 173.728 304.858 176.91 307.202 173.896 307.937 168.048 312.059 168.006 316.262 168.185 315.985 160.182 322.162 164.078 325.406 162.564 326.171 156.157 330.2 156.129 332.992 153.612 338.028 155.815 341.308 154.38 345.785 155.621 347.714 151.172 350.91 149.537 353.826 147.214 358.072 148.137 360.23 143.866 363.131 141.374 366.588 140.31 371.421 143.072 373.362 137.814 377.003 137.308 379.242 132.584 383.497 133.954 388.504 137.929 390.786 133.102 395.58 136.742 398.479 133.89 401.139 129.999 404.712 129.424 409.162 132.427 412.253 130.025 415.424 127.835 419.442 129.415 422.041 124.381 426.796 129.823 428.756 121.038 433.463 126.769 436.112 121.029 440.323 124.486 443.062 118.611 446.693 118.377 450.382 118.63 453.713 116.035 458.136 122.875 461.686 122.494 464.826 117.685 468.51 118.409 472.522 123.819 475.638 116.987 479.075 113.734 482.708 113.533 486.345 113.417 490.051 115.817 493.703 117.722 497.314 119.19 500.898 113.605 504.469 120.558 508.102 117.169 511.574 121.977 515.357 115.927 519.013 115.157 522.716 113.841 525.856 121.678 529.833 116.279 533.219 119.246 536.85 119.026 540.407 119.639 543.612 123.362 547.661 119.582 550.938 122.341 555.145 118.137 557.882 124.367 561.536 124.148 565.037 124.924 569.023 122.96 572.136 125.904 575.183 128.957 580.036 123.093 582.949 126.74 587.204 124.239 589.116 131.885 592.581 132.702 595.822 134.394 600.086 132.195 603.491 133.322 607.424 132.602 612.071 129.598 613.144 138.465 616.963 138.202 622.33 133.32 623.903 139.985 629.469 134.906 631.44 140.17 634.601 141.995 636.394 147.37 641.254 144.71 643.171 149.553 649.527 143.509 653.157 144.251 655.434 148.125 658.066 151.085 659.244 157.137 663.026 157.438 668.55 154.186 671.916 155.529 675.935 155.592 676.232 162.916 680.651 162.204 682.177 166.936 686.929 165.713 691.595 164.769 694.284 167.359 694.279 174.473 696.993 176.863 704.26 171.847 704.383 178.46 711.207 174.458 711.032 181.363 714.306 182.919 719.041 182.355 718.908 188.878 722.291 190.28 727.114 189.722 730.475 191.245 734.542 191.855 732.644 200.286 736.697 200.885 738.081 204.887 742.173 205.494 746.385 206.019 749.775 207.582 754.261 207.901 757.705 209.482 755.822 217.051 759.194 218.662 761.944 220.971 763.322 224.738 765.218 227.918 767.163 231.021 773.913 229.3 775.916 232.392 781.178 232.325 781.67 236.869 779.678 243.647 783.116 245.325 788.02 245.727 790.724 248.145 791.474 252.256 792.808 255.822 793.492 259.895 797.459 261.248 801.921 262.258 801.732 266.98 802.142 271.168 808.995 270.449 810.104 274.112 809.284 279.145 816.322 278.509 819.253 280.874 821.672 283.612 816.657 291.338 820.785 292.876 825.705 293.964 826.505 297.723 825.211 302.745 828.535 304.897 828.722 308.94 834.013 309.99 838.656 311.494 839.809 315.001 843.209 317.276 844.508 320.705 843.312 325.415 846.074 328.056 846.079 332.085 851.296 333.563 849.717 338.325 849.634 342.329 849.862 346.156 852.57 348.873 856.806 350.967 857.967 354.399 861.913 356.703 861.512 360.77 864.321 363.573 857.846 369.856 862.971 371.791 868.23 373.763 864.132 378.995 866.448 382.009 868.386 385.167 869.906 388.472 870.739 391.99 873.643 394.91 874.802 398.352 871.024 403.117 868.584 407.443 873.659 409.845 879.636 412.117 876.512 416.56 880.253 419.432 875.157 424.198 879.165 427.048 878.937 430.759 878.511 434.488 881.66 437.595 875.946 442.16 885.807 444.277 885.266 448.028 879.612 452.425 883.876 455.507 880.96 459.462 878.494 463.308 878.788 466.846 883.57 470.009 883.712 473.599 884.433 477.151 885.666 480.682 884.741 484.332 890.046 487.733 880.486 491.639 881.948 495.165 880.456 498.744 886.138 502.296"/>
  <polygon points="886.138 502.296 888.633 505.921 883.972 509.462 884.562 513.063 880.193 516.495 889.561 520.481 885.611 523.907 887.345 527.63 885.479 531.125 882.903 534.53 879.739 537.838 881.975 541.643 882.14 545.267 883.159 549.004 883.608 552.695 877.269 555.453 881.195 559.633 884.119 563.74 883.814 567.37 884.245 571.136 874.755 573.057 875.823 576.895 881.539 581.732 878.701 584.836 874.83 587.664 879.105 592.364 869.987 593.854 870.323 597.611 873.81 602.235 871.054 605.217 866.535 607.654 873.234 613.361 871.342 616.58 871.077 620.299 862.059 621.157 867.058 626.607 860.847 628.263 865.68 633.795 857.079 634.469 855.765 637.769 859.254 642.954 858.9 646.692 856.651 649.666 856.982 653.72 848.885 654.13 854.93 660.728 849.277 662.121 848.346 665.643 844.944 667.987 846.884 672.928 842.553 674.779 843.58 679.339 837.15 680.014 838.18 684.616 838.47 688.875 832.385 689.574 834.236 694.757 827.967 695.231 832.117 701.885 829.654 704.614 829.854 709.004 824.523 709.896 826.099 715.23 821.502 716.526 822.147 721.332 812.982 719.376 816.494 726.234 808.663 725.026 807.766 728.78 805.246 731.347 805.796 736.262 807.505 742.166 798.54 739.665 798.626 744.325 798.897 749.212 798.163 753.329 789.336 750.527 788.005 754.094 788.096 758.967 788.752 764.437 779.893 761.179 781.912 767.988 779.678 770.857 776.984 773.284 769.964 771.38 771.969 778.503 765.221 776.714 763.657 780.246 764.947 786.893 758.091 784.758 756.736 788.601 752.291 788.979 751.244 793.227 751.529 799.124 744.177 795.95 746.004 803.843 741.519 804.05 739.012 806.701 736.18 808.946 729.157 805.632 727.657 809.575 726.392 813.914 723.311 815.788 721.055 818.836 719.506 822.96 712.19 818.554 713.408 826.894 708.166 825.447 704.47 826.314 702.453 829.858 698.182 829.742 696.864 834.535 694.099 836.958 691.503 839.705 686.715 838.537 685.369 843.594 680.348 841.863 677.267 843.721 673.298 843.833 670.409 846.061 666.594 846.399 665.596 852.659 662.715 855.058 658.345 854.177 654.443 854.246 651.01 855.347 648.549 858.774 644.218 857.68 640.729 858.593 638.712 863.34 633.362 859.308 632.997 868.79 628.498 866.962 624.686 866.967 619.571 862.938 616.646 865.448 615.435 873.617 610.909 871.148 608.4 875.445 603.545 871.523 600.166 872.755 596.66 873.518 594.496 879.697 590.055 876.727 585.697 873.788 584.024 882.856 579.579 879.362 575.32 876.384 572.48 880.576 569.175 882.543 564.864 878.703 562.122 884.187 557.626 878.568 554.242 880.061 551.008 882.85 547.488 883.634 543.698 882.057 540.666 887.542 536.7 883.992 533.469 888.388 529.982 890.352 526.024 885.532 522.244 882.228 518.712 882.89 515.099 881.603 511.797 890.656 508.075 885.864 504.464 883.393 500.898 882.346 497.33 883.781 493.654 889.611 490.053 888.755 486.601 884.253 482.861 887.744 479.405 884.876 475.933 883.024 472.273 884.118 468.973 880.586 465.341 881.306 461.085 887.942 457.312 889.061 454.223 884.283 450.695 883.505 447.786 878.35 443.418 883.543 439.585 884.692 436.324 882.249 433.515 877.475 429.563 879.204 425.251 882.518 423.324 873.97 419.172 876.356 415.831 874.902 410.737 880.894 407.935 877.067 405.056 873.768 400.312 877.628 398.561 870.347 394.462 871.677 391.141 870.238 386.664 872.579 385.446 864.463 380.833 867.116 378.113 863.96 375.428 860.824 371.86 860.251 365.865 866.18 364.118 860.585 359.413 862.757 358.663 854.944 355.316 853.735 350.161 856.766 347.222 854.498 344.938 850.811 342.232 848.152 338.412 847.915 333.872 849.109 332.07 844.63 327.015 846.719 322.859 846.9 321.125 842.426 318.823 839.125 315.075 838.502 312.389 835.959 308.404 835.69 304.553 835.132 301.46 833.264 299.487 829.582 298.072 825.086 294.446 824.134 290.854 823.092 289.626 818.482 285.833 817.73 280.853 818.633 277.735 816.801 275.653 813.529 270.269 814.769 269.183 810.178 269.627 803.687 266.235 802.257 260.637 803.56 255.774 803.827 256.72 796.994 255.931 792.384 247.223 797.053 244.191 794.995 245.359 788.229 241.472 787.17 240.387 783.043 234.856 783.679 232.286 781.128 232.303 775.943 229.659 773.516 228.626 769.505 226.961 766.155 220.887 767.003 216.898 765.791 215.449 762.21 217.801 755.265 209.127 758.154 207.241 754.99 205.112 752.046 203.052 749.051 202.92 744.497 203.134 739.731 195.574 741.13 192.264 739.102 191.847 734.862 193.58 729.083 185.46 730.559 183.311 727.62 183.155 723.291 182.253 719.525 178.454 717.729 178.273 713.511 176.543 710.338 175.838 706.524 177.104 701.527 174.053 699.217 168.948 698.09 170.893 692.803 168.23 690.216 167.51 686.532 162.04 685.445 164.838 679.888 160.987 677.881 156.148 676.321 152.026 674.33 153.006 669.819 153.642 665.53 152.546 662.086 146.855 660.711 144.723 657.686 147.398 652.599 145.698 649.417 146.832 645.084 138.697 644.445 143.421 638.747 144.638 634.48 142.743 631.388 136.536 629.79 139.528 624.963 138.704 621.479 131.168 620.139 135.095 615.132 131.1 612.588 130.204 609.092 131.195 605.074 132.634 600.977 126.051 598.99 125.643 595.363 131.253 590.318 124.078 588.306 120.634 585.357 121.949 581.367 120.573 577.951 122.328 573.932 121.832 570.362 123.188 566.482 119.41 563.456 121.334 559.516 124.704 555.42 120.95 552.327 119.722 548.866 115.965 545.672 121.798 541.437 122.366 537.805 119.552 534.472 114.83 531.233 120.788 527.22 118.39 523.784 116.82 520.27 113.781 516.784 119.833 512.993 116.844 509.482 118.412 505.874 112.997 502.296 114.737 498.684 112.126 495.025 116.88 491.518 116.662 487.915 118.108 484.381 116.966 480.728 121.93 477.444 118.454 473.625 115.05 469.742 117.448 466.327 118.989 462.863 121.296 459.508 115.045 455.153 117.138 451.76 121.83 448.761 124.837 445.591 124.697 441.968 121.191 437.763 121.842 434.221 119.243 430.068 121.627 426.837 126.638 424.184 120.591 419.211 127.717 417.098 122.43 412.166 129.55 410.179 127.997 406.086 129.034 402.636 126.898 398.308 134.73 396.784 134.456 392.986 129.055 387.581 131.442 384.523 139.878 383.481 136.973 378.743 133.551 373.739 141.292 372.662 139.292 368.108 137.803 363.68 144.342 362.344 148.385 360.115 146.531 355.5 147.209 351.891 148.259 348.429 151.045 345.736 148.287 340.525 151.15 337.865 157.065 336.707 152.605 330.524 158.654 329.515 156.792 324.515 158.168 321.146 158.352 317.124 165.872 317.127 164.575 312.28 172.011 312.41 166.496 305.025 174.458 305.592 171.596 299.641 171.829 295.516 179.212 295.942 175.732 289.385 183.417 290.157 186.477 287.923 185.341 282.795 188.509 280.637 185.818 274.262 193.756 275.609 191.115 269.148 196.321 268.577 199.504 266.509 202.207 264.089 200.803 258.34 208.596 260.105 205.2 252.587 205.915 248.426 208.645 245.98 210.507 242.769 214.051 241.072 222.101 243.596 218.562 235.353 226.285 237.75 226.462 232.927 230.388 231.767 229.046 225.293 231.884 223.008 238.768 225.01 236.503 217.326 241.412 217.317 247.185 218.367 249.374 215.463 252.907 214.098 253.389 209.161 253.33 203.471 255.999 201.002 261.917 202.596 263.288 198.534 268.968 200.008 271.696 197.707 274.816 195.932 275.801 191.226 276.575 186.117 283.172 189.245 284.212 184.445 288.744 184.75 292.733 184.321 291.185 175.34 297.089 177.901 298.723 173.728 304.858 176.91 307.202 173.896 307.937 168.048 312.059 168.006 316.262 168.185 315.985 160.182 322.162 164.078 325.406 162.564 326.171 156.157 330.2 156.129 332.992 153.612 338.028 155.815 341.308 154.38 345.785 155.621 347.714 151.172 350.91 149.537 353.826 147.214 358.072 148.137 360.23 143.866 363.131 141.374 366.588 140.31 371.421 143.072 373.362 137.814 377.003 137.308 379.242 132.584 383.497 133.954 388.504 137.929 390.786 133.102 395.58 136.742 398.479 133.89 401.139 129.999 404.712 129.424 409.162 132.427 412.253 130.025 415.424 127.835 419.442 129.415 422.041 124.381 426.796 129.823 428.756 121.038 433.463 126.769 436.112 121.029 440.323 124.486 443.062 118.611 446.693 118.377 450.382 118.63 453.713 116.035 458.136 122.875 461.686 122.494 464.826 117.685 468.51 118.409 472.522 123.819 475.638 116.987 479.075 113.734 482.708 113.533 486.345 113.417 490.051 115.817 493.703 117.722 497.314 119.19 500.898 113.605 504.469 120.558 508.102 117.169 511.574 121.977 515.357 115.927 519.013 115.157 522.716 113.841 525.856 121.678 529.833 116.279 533.219 119.246 536.85 119.026 540.407 119.639 543.612 123.362 547.661 119.582 550.938 122.341 555.145 118.137 557.882 124.367 561.536 124.148 565.037 124.924 569.023 122.96 572.136 125.904 575.183 128.957 580.036 123.093 582.949 126.74 587.204 124.239 589.116 131.885 592.581 132.702 595.822 134.394 600.086 132.195 603.491 133.322 607.424 132.602 612.071 129.598 613.144 138.465 616.963 138.202 622.33 133.32 623.903 139.985 629.469 134.906 631.44 140.17 634.601 141.995 636.394 147.37 641.254 144.71 643.171 149.553 649.527 143.509 653.157 144.251 655.434 148.125 658.066 151.085 659.244 157.137 663.026 157.438 668.55 154.186 671.916 155.529 675.935 155.592 676.232 162.916 680.651 162.204 682.177 166.936 686.929 165.713 691.595 164.769 694.284 167.359 694.279 174.473 696.993 176.863 704.26 171.847 704.383 178.46 711.207 174.458 711.032 181.363 714.306 182.919 719.041 182.355 718.908 188.878 722.291 190.28 727.114 189.722 730.475 191.245 734.542 191.855 732.644 200.286 736.697 200.885 738.081 204.887 742.173 205.494 746.385 206.019 749.775 207.582 754.261 207.901 757.705 209.482 755.822 217.051 759.194 218.662 761.944 220.971 763.322 224.738 765.218 227.918 767.163 231.021 773.913 229.3 775.916 232.392 781.178 232.325 781.67 236.869 779.678 243.647 783.116 245.325 788.02 245.727 790.724 248.145 791.474 252.256 792.808 255.822 793.492 259.895 797.459 261.248 801.921 262.258 801.732 266.98 802.142 271.168 808.995 270.449 810.104 274.112 809.284 279.145 816.322 278.509 819.253 280.874 821.672 283.612 816.657 291.338 820.785 292.876 825.705 293.964 826.505 297.723 825.211 302.745 828.535 304.897 828.722 308.94 834.013 309.99 838.656 311.494 839.809 315.001 843.209 317.276 844.508 320.705 843.312 325.415 846.074 328.056 846.079 332.085 851.296 333.563 849.717 338.325 849.634 342.329 849.862 346.156 852.57 348.873 856.806 350.967 857.967 354.399 861.913 356.703 861.512 360.77 864.321 363.573 857.846 369.856 862.971 371.791 868.23 373.763 864.132 378.995 866.448 382.009 868.386 385.167 869.906 388.472 870.739 391.99 873.643 394.91 874.802 398.352 871.024 403.117 868.584 407.443 873.659 409.845 879.636 412.117 876.512 416.56 880.253 419.432 875.157 424.198 879.165 427.048 878.937 430.759 878.511 434.488 881.66 437.595 875.946 442.16 885.807 444.277 885.266 448.028 879.612 452.425 883.876 455.507 880.96 459.462 878.494 463.308 878.788 466.846 883.57 470.009 883.712 473.599 884.433 477.151 885.666 480.682 884.741 484.332 890.046 487.733 880.486 491.639 881.948 495.165 880.456 498.744 886.138 502.296" style="fill: none; stroke: #000; stroke-linecap: round; stroke-linejoin: round; stroke-width: 30px;"/>
</svg>