<?xml version="1.0" encoding="UTF-8"?>
<svg id="Sticker" xmlns="http://www.w3.org/2000/svg" width="1000" height="1000" viewBox="0 0 1000 1000">
  <g>
    <polygon points="215.823 385.605 215.326 389.07 212.235 392.143 219.299 396.943 213.957 399.4 213.144 402.812 212.605 406.4 214.005 411.14 208.854 412.436 206.747 415.261 207.19 420.15 202.022 420.433 204.008 427.66 200.486 429.552 197.224 431.634 191.556 429.72 189.516 433.436 185.51 433.443 181.326 432.296 179.088 436.838 175.903 439.364 172.524 442.318 168.536 441.231 164.733 434.96 160.922 441.34 157.029 441.675 154.821 433.274 150.049 438.008 147.661 433.638 144.761 431.586 141.451 430.539 136.931 431.322 131.822 432.221 133.35 424.182 128.44 424.464 127.949 419.956 120.531 421.566 119.328 417.656 122.631 411.202 113.514 412.148 117.481 406.128 117.914 402.245 109.487 401.083 114.72 396.001 111.135 392.972 115.125 389.003 109.592 385.605 113.926 382.127 107.788 377.782 114.922 375.251 112.92 371.087 114.376 367.707 113.319 363.271 121.836 363.382 122.343 359.831 119.357 353.572 123.406 351.982 129.307 352.52 127.621 345.867 130.431 343.442 136.999 346.305 137.866 341.419 141.137 340.061 142.342 334.06 148.209 339.113 150.142 333.532 152.993 329.092 157.152 330.437 161.164 333.457 164.733 334.324 168.255 334.155 171.58 335.827 176.222 330.307 178.909 335.017 182.414 335.858 184.701 339.632 187.163 342.311 194.284 337.018 197.246 339.551 195.911 347.281 199.229 348.67 201.425 351.34 202.596 354.807 204.299 357.683 210.539 357.752 214.066 360.043 214.385 364.038 214.25 368.007 215.964 371.251 217.957 374.546 215.635 378.606 212.591 382.326 215.823 385.605" style="fill: #fff;"/>
    <polygon points="215.823 385.605 215.326 389.07 212.235 392.143 219.299 396.943 213.957 399.4 213.144 402.812 212.605 406.4 214.005 411.14 208.854 412.436 206.747 415.261 207.19 420.15 202.022 420.433 204.008 427.66 200.486 429.552 197.224 431.634 191.556 429.72 189.516 433.436 185.51 433.443 181.326 432.296 179.088 436.838 175.903 439.364 172.524 442.318 168.536 441.231 164.733 434.96 160.922 441.34 157.029 441.675 154.821 433.274 150.049 438.008 147.661 433.638 144.761 431.586 141.451 430.539 136.931 431.322 131.822 432.221 133.35 424.182 128.44 424.464 127.949 419.956 120.531 421.566 119.328 417.656 122.631 411.202 113.514 412.148 117.481 406.128 117.914 402.245 109.487 401.083 114.72 396.001 111.135 392.972 115.125 389.003 109.592 385.605 113.926 382.127 107.788 377.782 114.922 375.251 112.92 371.087 114.376 367.707 113.319 363.271 121.836 363.382 122.343 359.831 119.357 353.572 123.406 351.982 129.307 352.52 127.621 345.867 130.431 343.442 136.999 346.305 137.866 341.419 141.137 340.061 142.342 334.06 148.209 339.113 150.142 333.532 152.993 329.092 157.152 330.437 161.164 333.457 164.733 334.324 168.255 334.155 171.58 335.827 176.222 330.307 178.909 335.017 182.414 335.858 184.701 339.632 187.163 342.311 194.284 337.018 197.246 339.551 195.911 347.281 199.229 348.67 201.425 351.34 202.596 354.807 204.299 357.683 210.539 357.752 214.066 360.043 214.385 364.038 214.25 368.007 215.964 371.251 217.957 374.546 215.635 378.606 212.591 382.326 215.823 385.605" style="fill: none; stroke: #000; stroke-linecap: round; stroke-linejoin: round; stroke-width: 35px;"/>
  </g>
  <g>
    <polygon points="301.645 517.7 299.846 521.057 305.704 525.239 303.465 528.636 306.407 533.268 301.735 535.789 294.807 536.796 299.822 543.083 297.539 546.1 294.719 548.675 288.616 548.431 287.812 552.231 284.754 554.016 287.047 562.203 282.078 561.955 275.821 558.791 274.053 562.506 270.166 562.201 267.089 563.42 264.797 567.509 260.703 565.137 258.408 572.772 254.654 573.491 250.84 573.058 247.269 569.875 243.479 571.248 240.997 565.037 235.693 571.76 234.389 563.985 227.91 570.481 227.768 562.23 220.765 567.146 217.457 564.984 218.536 557.407 212.369 558.889 214.337 551.788 208.831 551.875 206.067 549.303 202.967 546.813 204.906 541.498 205.021 537.599 204.989 533.995 195.814 533.116 203.873 527.466 203.372 524.232 201.144 521.103 195.969 517.7 195.465 513.913 197.348 510.347 200.118 507.157 203.056 504.308 197.563 498.764 198.178 494.822 201.763 492.267 202.782 488.471 211.031 489.603 210.336 484.747 212.329 481.731 215.743 480.118 214.467 472.992 222.341 477.318 222.371 470.885 227.689 473.013 230.294 470.395 232.851 467.085 236.971 468.206 240.793 469.375 243.449 463.931 247.166 463.989 250.84 462.863 254.697 461.278 258.443 462.369 261.196 467.879 263.913 471.055 269.632 464.827 273.566 465.388 275.304 470.489 275.727 476.767 278.831 478.04 286.982 473.281 286.459 479.562 286.426 484.467 292.201 484.052 293.271 487.752 292.205 492.552 301.336 491.533 301.443 495.719 296.885 501.335 300.021 503.918 306.056 506.228 301.207 510.773 300.313 514.311 301.645 517.7" style="fill: #fff;"/>
    <polygon points="301.645 517.7 299.846 521.057 305.704 525.239 303.465 528.636 306.407 533.268 301.735 535.789 294.807 536.796 299.822 543.083 297.539 546.1 294.719 548.675 288.616 548.431 287.812 552.231 284.754 554.016 287.047 562.203 282.078 561.955 275.821 558.791 274.053 562.506 270.166 562.201 267.089 563.42 264.797 567.509 260.703 565.137 258.408 572.772 254.654 573.491 250.84 573.058 247.269 569.875 243.479 571.248 240.997 565.037 235.693 571.76 234.389 563.985 227.91 570.481 227.768 562.23 220.765 567.146 217.457 564.984 218.536 557.407 212.369 558.889 214.337 551.788 208.831 551.875 206.067 549.303 202.967 546.813 204.906 541.498 205.021 537.599 204.989 533.995 195.814 533.116 203.873 527.466 203.372 524.232 201.144 521.103 195.969 517.7 195.465 513.913 197.348 510.347 200.118 507.157 203.056 504.308 197.563 498.764 198.178 494.822 201.763 492.267 202.782 488.471 211.031 489.603 210.336 484.747 212.329 481.731 215.743 480.118 214.467 472.992 222.341 477.318 222.371 470.885 227.689 473.013 230.294 470.395 232.851 467.085 236.971 468.206 240.793 469.375 243.449 463.931 247.166 463.989 250.84 462.863 254.697 461.278 258.443 462.369 261.196 467.879 263.913 471.055 269.632 464.827 273.566 465.388 275.304 470.489 275.727 476.767 278.831 478.04 286.982 473.281 286.459 479.562 286.426 484.467 292.201 484.052 293.271 487.752 292.205 492.552 301.336 491.533 301.443 495.719 296.885 501.335 300.021 503.918 306.056 506.228 301.207 510.773 300.313 514.311 301.645 517.7" style="fill: none; stroke: #000; stroke-linecap: round; stroke-linejoin: round; stroke-width: 35px;"/>
  </g>
  <g>
    <polygon points="417.761 634.123 414.168 637.618 412.022 640.85 412.598 644.408 413.852 648.337 414.183 652.27 416.05 657.114 407.356 657.038 405.056 659.617 408.889 666.43 401.593 665.416 398.419 667.083 397.373 670.794 395.908 674.419 390.802 673.339 392.349 682.173 388.643 683.364 384.285 682.834 379.837 681.138 377.706 686.153 374.49 688.81 370.009 684.153 366.904 689.353 363.128 683.067 359.522 686.823 356.198 684.508 351.679 689.225 348.437 686.552 345.728 683.078 340.46 686.301 339.735 679.273 333.419 682.968 334.193 675.117 331.602 672.876 324.968 674.98 324.924 669.801 323.606 666.273 323.88 661.82 317.578 661.821 316.877 658.086 311.733 656.448 309.924 653.032 313.059 648.153 315.613 644.003 315.328 640.701 308.657 637.849 310.71 634.123 308.541 630.39 309.393 626.738 308.112 622.693 310.307 619.323 310.46 615.404 316.268 613.769 313.473 608.391 322.178 609.226 318.185 602.396 319.616 598.721 326.256 599.686 329.44 598.049 329.362 592.617 332.144 590.227 333.842 585.967 337.77 585.186 342.329 586.238 346.84 588.294 348.839 583.128 353.236 586.547 355.913 581.645 359.781 585.264 363.128 581.298 366.99 577.63 370.802 578.271 373.136 585.987 376.053 588.01 381.089 583.589 385.242 583.217 388.798 584.589 390.972 588.339 392.218 592.909 395.552 594.268 401.456 593.087 399.246 600.395 401.721 602.731 404.326 605.047 408.632 606.454 405.975 611.928 412.793 612.551 409.2 617.749 417.325 618.939 414.396 623.468 411.508 627.467 417.969 630.373 417.761 634.123" style="fill: #fff;"/>
    <polygon points="417.761 634.123 414.168 637.618 412.022 640.85 412.598 644.408 413.852 648.337 414.183 652.27 416.05 657.114 407.356 657.038 405.056 659.617 408.889 666.43 401.593 665.416 398.419 667.083 397.373 670.794 395.908 674.419 390.802 673.339 392.349 682.173 388.643 683.364 384.285 682.834 379.837 681.138 377.706 686.153 374.49 688.81 370.009 684.153 366.904 689.353 363.128 683.067 359.522 686.823 356.198 684.508 351.679 689.225 348.437 686.552 345.728 683.078 340.46 686.301 339.735 679.273 333.419 682.968 334.193 675.117 331.602 672.876 324.968 674.98 324.924 669.801 323.606 666.273 323.88 661.82 317.578 661.821 316.877 658.086 311.733 656.448 309.924 653.032 313.059 648.153 315.613 644.003 315.328 640.701 308.657 637.849 310.71 634.123 308.541 630.39 309.393 626.738 308.112 622.693 310.307 619.323 310.46 615.404 316.268 613.769 313.473 608.391 322.178 609.226 318.185 602.396 319.616 598.721 326.256 599.686 329.44 598.049 329.362 592.617 332.144 590.227 333.842 585.967 337.77 585.186 342.329 586.238 346.84 588.294 348.839 583.128 353.236 586.547 355.913 581.645 359.781 585.264 363.128 581.298 366.99 577.63 370.802 578.271 373.136 585.987 376.053 588.01 381.089 583.589 385.242 583.217 388.798 584.589 390.972 588.339 392.218 592.909 395.552 594.268 401.456 593.087 399.246 600.395 401.721 602.731 404.326 605.047 408.632 606.454 405.975 611.928 412.793 612.551 409.2 617.749 417.325 618.939 414.396 623.468 411.508 627.467 417.969 630.373 417.761 634.123" style="fill: none; stroke: #000; stroke-linecap: round; stroke-linejoin: round; stroke-width: 35px;"/>
  </g>
  <g>
    <polygon points="559.524 698.132 559.957 701.465 565.835 705.625 565.772 709.448 558.461 711.346 565.131 717.261 561.246 719.823 559.095 722.893 560.033 727.765 550.563 725.834 550.398 729.931 551.253 735.437 546.418 735.725 545.5 740.157 542.976 742.991 538.345 742.592 535.876 745.541 532.117 746.034 529.66 749.758 525.234 747.816 522.063 749.865 518.565 750.897 515.003 752.098 511.312 753.938 507.742 750.293 504.477 747.823 500.063 752.267 497.987 745.676 492.294 751.639 491.496 743.754 488.189 742.761 482.657 745.248 480.142 742.287 478.078 738.981 478.419 733.352 470.239 736.49 469.347 732.271 471.372 726.318 467.233 724.934 463.321 722.998 463.537 718.882 463.012 715.298 456.403 713.515 463.906 707.989 458.174 705.436 456.104 701.907 458.985 698.132 462.396 694.781 455.058 690.403 464.135 688.322 456.694 682.829 459.928 679.869 466.094 678.492 463.622 673.419 464.153 669.451 471.399 669.962 468.058 662.939 469.099 658.705 474.292 658.491 479.373 658.868 480.539 654.534 485.075 654.979 488.337 653.783 489.214 647.259 494.466 650.732 498.115 651.043 500.062 643.987 503.562 641.719 507.484 642.14 511.312 640.827 514.614 649.942 518.965 642.432 521.079 651.161 524.491 651.109 530.505 644.132 533.531 646.986 535.064 652.291 539.997 650.967 543.097 653.108 547.561 653.582 546.587 660.363 546.56 665.216 549.084 667.408 552.516 669.052 553.838 672.277 556.061 674.949 562.372 675.953 557.517 681.711 564.103 683.341 567.596 686.44 565.226 690.722 566.993 694.325 559.524 698.132" style="fill: #fff;"/>
    <polygon points="559.524 698.132 559.957 701.465 565.835 705.625 565.772 709.448 558.461 711.346 565.131 717.261 561.246 719.823 559.095 722.893 560.033 727.765 550.563 725.834 550.398 729.931 551.253 735.437 546.418 735.725 545.5 740.157 542.976 742.991 538.345 742.592 535.876 745.541 532.117 746.034 529.66 749.758 525.234 747.816 522.063 749.865 518.565 750.897 515.003 752.098 511.312 753.938 507.742 750.293 504.477 747.823 500.063 752.267 497.987 745.676 492.294 751.639 491.496 743.754 488.189 742.761 482.657 745.248 480.142 742.287 478.078 738.981 478.419 733.352 470.239 736.49 469.347 732.271 471.372 726.318 467.233 724.934 463.321 722.998 463.537 718.882 463.012 715.298 456.403 713.515 463.906 707.989 458.174 705.436 456.104 701.907 458.985 698.132 462.396 694.781 455.058 690.403 464.135 688.322 456.694 682.829 459.928 679.869 466.094 678.492 463.622 673.419 464.153 669.451 471.399 669.962 468.058 662.939 469.099 658.705 474.292 658.491 479.373 658.868 480.539 654.534 485.075 654.979 488.337 653.783 489.214 647.259 494.466 650.732 498.115 651.043 500.062 643.987 503.562 641.719 507.484 642.14 511.312 640.827 514.614 649.942 518.965 642.432 521.079 651.161 524.491 651.109 530.505 644.132 533.531 646.986 535.064 652.291 539.997 650.967 543.097 653.108 547.561 653.582 546.587 660.363 546.56 665.216 549.084 667.408 552.516 669.052 553.838 672.277 556.061 674.949 562.372 675.953 557.517 681.711 564.103 683.341 567.596 686.44 565.226 690.722 566.993 694.325 559.524 698.132" style="fill: none; stroke: #000; stroke-linecap: round; stroke-linejoin: round; stroke-width: 35px;"/>
  </g>
  <g>
    <polygon points="803.167 394.009 805.386 397.645 807.144 401.075 803.868 405.366 807.71 408.249 810.765 410.985 810.513 414.865 808.166 420.108 815.171 420.372 818.432 422.308 816.739 428.008 822.399 427.75 824.404 430.549 823.185 437.45 827.113 438.514 831.636 438.235 836.474 436.58 836.753 444.136 840.759 444 844.307 444.756 847.398 447.562 851.791 442.967 854.981 445.817 858.526 442.874 861.978 444.426 865.914 447.758 870.1 449.715 874.099 449.593 875.45 441.624 878.706 440.468 885.157 445.393 885.652 438.615 891.561 440.8 894.97 438.799 892.028 429.88 900.059 432.797 895.727 424.269 900.733 423.798 902.809 420.935 902.499 416.79 910.112 416.417 911.401 412.801 905.09 407.059 906.593 404.003 913.306 401.537 910.065 397.537 908.983 394.009 911.483 390.386 910.789 386.824 913.152 382.659 907.679 380.235 910.847 375.413 907.576 372.703 903.608 370.651 903.009 366.959 898.828 365.564 898.187 361.743 896.39 358.645 897.791 351.966 892.078 352.766 890.024 349.386 885.796 349.162 883.718 345.391 881.337 341.496 875.287 346.848 871.915 346.233 869.179 342.754 866.404 336.664 862.237 339.758 858.526 339.093 855.21 345.603 850.967 339.004 848 343.369 843.53 340.486 842.45 348.779 836.289 342.821 836.472 351.439 832.162 350.653 829.146 352.385 827.951 356.424 821.071 353.907 817.279 355.488 817.718 360.812 814.685 363.065 815.937 368.116 808.907 368.298 806.522 371.42 810.843 377.063 809.012 380.134 802.375 382.344 807.69 387.018 800.858 390.069 803.167 394.009" style="fill: #fff;"/>
    <polygon points="803.167 394.009 805.386 397.645 807.144 401.075 803.868 405.366 807.71 408.249 810.765 410.985 810.513 414.865 808.166 420.108 815.171 420.372 818.432 422.308 816.739 428.008 822.399 427.75 824.404 430.549 823.185 437.45 827.113 438.514 831.636 438.235 836.474 436.58 836.753 444.136 840.759 444 844.307 444.756 847.398 447.562 851.791 442.967 854.981 445.817 858.526 442.874 861.978 444.426 865.914 447.758 870.1 449.715 874.099 449.593 875.45 441.624 878.706 440.468 885.157 445.393 885.652 438.615 891.561 440.8 894.97 438.799 892.028 429.88 900.059 432.797 895.727 424.269 900.733 423.798 902.809 420.935 902.499 416.79 910.112 416.417 911.401 412.801 905.09 407.059 906.593 404.003 913.306 401.537 910.065 397.537 908.983 394.009 911.483 390.386 910.789 386.824 913.152 382.659 907.679 380.235 910.847 375.413 907.576 372.703 903.608 370.651 903.009 366.959 898.828 365.564 898.187 361.743 896.39 358.645 897.791 351.966 892.078 352.766 890.024 349.386 885.796 349.162 883.718 345.391 881.337 341.496 875.287 346.848 871.915 346.233 869.179 342.754 866.404 336.664 862.237 339.758 858.526 339.093 855.21 345.603 850.967 339.004 848 343.369 843.53 340.486 842.45 348.779 836.289 342.821 836.472 351.439 832.162 350.653 829.146 352.385 827.951 356.424 821.071 353.907 817.279 355.488 817.718 360.812 814.685 363.065 815.937 368.116 808.907 368.298 806.522 371.42 810.843 377.063 809.012 380.134 802.375 382.344 807.69 387.018 800.858 390.069 803.167 394.009" style="fill: none; stroke: #000; stroke-linecap: round; stroke-linejoin: round; stroke-width: 35px;"/>
  </g>
  <g>
    <polygon points="715.846 526.103 715.973 529.962 723.518 532.831 719.566 537.087 717.643 541.451 721.099 544.344 719.703 549.005 722.167 552.146 727.232 553.583 728.091 557.396 730.052 560.574 736.399 559.744 734.748 566.441 739.527 566.537 744.772 565.282 744.808 571.511 746.549 576.029 749.635 578.555 754.476 576.592 757.482 579.418 761.249 579.862 765.571 575.891 768.49 583.597 772.419 577.826 776.251 582.146 779.227 575.593 783.751 580.641 785.392 572.389 791.232 579.035 791.619 570.31 794.929 569.552 798.604 569.167 800.638 566.086 805.508 566.774 806.851 562.97 807.943 559.277 815.742 561.349 818.888 558.906 815.48 552.285 819.598 550.548 821.399 547.378 819.206 542.732 823.469 540.408 820.837 536.17 822.386 532.976 820.543 529.401 826.736 526.103 822.414 522.68 822.846 519.168 821.878 515.822 824.184 511.598 818.498 509.726 820.749 505.11 819.657 501.626 813.537 501.104 818.801 493.359 810.324 495.268 812.84 488.351 807.574 488.459 806.838 483.796 802.453 483.55 797.645 484.61 795.153 482.219 792.957 478.818 788.509 480.832 786.425 476.121 782.712 476.588 779.964 471.202 775.77 477.19 772.419 473.533 768.67 471.286 765.284 474.211 761.521 473.664 758.751 477.331 755.208 477.681 751.357 477.617 748.149 479.265 746.805 483.977 741.767 482.681 739.577 485.736 738.452 489.735 737.224 493.237 729.688 491.34 731.426 497.172 727.161 498.584 726.551 502.339 726.045 505.962 723.294 508.644 725.438 512.937 723.692 515.974 721.149 519.053 721.48 522.616 715.846 526.103" style="fill: #fff;"/>
    <polygon points="715.846 526.103 715.973 529.962 723.518 532.831 719.566 537.087 717.643 541.451 721.099 544.344 719.703 549.005 722.167 552.146 727.232 553.583 728.091 557.396 730.052 560.574 736.399 559.744 734.748 566.441 739.527 566.537 744.772 565.282 744.808 571.511 746.549 576.029 749.635 578.555 754.476 576.592 757.482 579.418 761.249 579.862 765.571 575.891 768.49 583.597 772.419 577.826 776.251 582.146 779.227 575.593 783.751 580.641 785.392 572.389 791.232 579.035 791.619 570.31 794.929 569.552 798.604 569.167 800.638 566.086 805.508 566.774 806.851 562.97 807.943 559.277 815.742 561.349 818.888 558.906 815.48 552.285 819.598 550.548 821.399 547.378 819.206 542.732 823.469 540.408 820.837 536.17 822.386 532.976 820.543 529.401 826.736 526.103 822.414 522.68 822.846 519.168 821.878 515.822 824.184 511.598 818.498 509.726 820.749 505.11 819.657 501.626 813.537 501.104 818.801 493.359 810.324 495.268 812.84 488.351 807.574 488.459 806.838 483.796 802.453 483.55 797.645 484.61 795.153 482.219 792.957 478.818 788.509 480.832 786.425 476.121 782.712 476.588 779.964 471.202 775.77 477.19 772.419 473.533 768.67 471.286 765.284 474.211 761.521 473.664 758.751 477.331 755.208 477.681 751.357 477.617 748.149 479.265 746.805 483.977 741.767 482.681 739.577 485.736 738.452 489.735 737.224 493.237 729.688 491.34 731.426 497.172 727.161 498.584 726.551 502.339 726.045 505.962 723.294 508.644 725.438 512.937 723.692 515.974 721.149 519.053 721.48 522.616 715.846 526.103" style="fill: none; stroke: #000; stroke-linecap: round; stroke-linejoin: round; stroke-width: 35px;"/>
  </g>
  <g>
    <polygon points="604.137 642.527 606.022 646.228 603.054 650.368 603.701 654.251 609.994 656.577 610.998 659.991 610.953 663.89 610.226 668.39 619.205 667.41 616.871 673.064 618.12 676.708 623.893 676.372 620.696 684.753 629.883 679.714 632.379 681.854 631.607 689.433 635.893 689.308 639.803 689.331 641.777 694.171 645.477 694.829 649.032 695.943 652.937 694.853 656.592 694.236 660.131 695.796 663.806 696.252 667.17 693.714 671.841 698.894 674.951 695.419 678.949 695.471 679.596 687.343 683.576 687.776 688.908 689.844 688.346 682.503 691.81 681.468 699.53 684.709 696.466 676.459 702.019 676.604 702.03 672.099 708.034 671.659 707.367 667.001 712.778 665.397 705.696 658.721 708.65 656.124 716.363 654.209 711.335 649.568 712.224 646.092 716.64 642.527 716.304 638.687 711.993 635.396 716.266 630.865 714.87 627.191 708.395 625.373 709.458 621.1 707.263 618.104 701.759 617.217 701.221 613.525 703.553 607.197 696.45 608.607 697.481 602.533 692.613 602.597 687.805 603.312 689.141 594.824 682.264 599.801 681.601 593.099 676.449 596.612 673.612 594.422 670.687 591.74 667.938 585.696 663.637 591.312 660.131 589.6 656.384 587.732 652.665 588.207 649.515 591.453 645.608 590.699 642.083 591.75 637.399 590.201 637.212 598.291 631.002 594.634 629.191 598.698 625.678 600.182 622.073 601.779 618.927 604.046 617.03 607.463 613.787 609.813 615.653 615.483 612.596 617.898 608.493 620.097 611.392 625.205 604.981 627.076 612.231 632.568 604.638 634.902 611.795 639.216 604.137 642.527" style="fill: #fff;"/>
    <polygon points="604.137 642.527 606.022 646.228 603.054 650.368 603.701 654.251 609.994 656.577 610.998 659.991 610.953 663.89 610.226 668.39 619.205 667.41 616.871 673.064 618.12 676.708 623.893 676.372 620.696 684.753 629.883 679.714 632.379 681.854 631.607 689.433 635.893 689.308 639.803 689.331 641.777 694.171 645.477 694.829 649.032 695.943 652.937 694.853 656.592 694.236 660.131 695.796 663.806 696.252 667.17 693.714 671.841 698.894 674.951 695.419 678.949 695.471 679.596 687.343 683.576 687.776 688.908 689.844 688.346 682.503 691.81 681.468 699.53 684.709 696.466 676.459 702.019 676.604 702.03 672.099 708.034 671.659 707.367 667.001 712.778 665.397 705.696 658.721 708.65 656.124 716.363 654.209 711.335 649.568 712.224 646.092 716.64 642.527 716.304 638.687 711.993 635.396 716.266 630.865 714.87 627.191 708.395 625.373 709.458 621.1 707.263 618.104 701.759 617.217 701.221 613.525 703.553 607.197 696.45 608.607 697.481 602.533 692.613 602.597 687.805 603.312 689.141 594.824 682.264 599.801 681.601 593.099 676.449 596.612 673.612 594.422 670.687 591.74 667.938 585.696 663.637 591.312 660.131 589.6 656.384 587.732 652.665 588.207 649.515 591.453 645.608 590.699 642.083 591.75 637.399 590.201 637.212 598.291 631.002 594.634 629.191 598.698 625.678 600.182 622.073 601.779 618.927 604.046 617.03 607.463 613.787 609.813 615.653 615.483 612.596 617.898 608.493 620.097 611.392 625.205 604.981 627.076 612.231 632.568 604.638 634.902 611.795 639.216 604.137 642.527" style="fill: none; stroke: #000; stroke-linecap: round; stroke-linejoin: round; stroke-width: 35px;"/>
  </g>
  <g>
    <polyline points="183.072 431.428 183.726 435.434 190.965 434.551 190.238 439.583 193.414 441.717 195.073 444.981 202.214 444.174 198.842 451.17 202.169 453.197 208.505 452.992 204.779 460.247 208.161 462.234 213.43 462.821 214.401 466.598 213.289 471.927 219.761 471.631" style="fill: #fff;"/>
    <polyline points="183.072 431.428 183.726 435.434 190.965 434.551 190.238 439.583 193.414 441.717 195.073 444.981 202.214 444.174 198.842 451.17 202.169 453.197 208.505 452.992 204.779 460.247 208.161 462.234 213.43 462.821 214.401 466.598 213.289 471.927 219.761 471.631" style="fill: none; stroke: #000; stroke-linecap: round; stroke-linejoin: round; stroke-width: 35px;"/>
  </g>
  <g>
    <polyline points="282.738 563.753 285.972 565.554 287.292 569.597 291.425 570.354 292.329 574.883 294.372 578.08 301.179 575.72 303.126 579.035 302.35 585.527 309.447 582.824 313.421 583.773 315.217 587.264 316.236 591.663 322.097 590.421 323.869 593.951" style="fill: #fff;"/>
    <polyline points="282.738 563.753 285.972 565.554 287.292 569.597 291.425 570.354 292.329 574.883 294.372 578.08 301.179 575.72 303.126 579.035 302.35 585.527 309.447 582.824 313.421 583.773 315.217 587.264 316.236 591.663 322.097 590.421 323.869 593.951" style="fill: none; stroke: #000; stroke-linecap: round; stroke-linejoin: round; stroke-width: 35px;"/>
  </g>
  <g>
    <polyline points="411.945 655.073 416.007 655.273 415.119 663.123 420.861 660.728 421.326 666.491 424.362 668.279 428.907 667.743 431.319 670.496 437.474 667.472 436.765 675.051 438.02 679.599 443.397 677.772 445.742 680.634 447.387 684.58 452.383 683.351 454.432 686.685 460.353 684.038" style="fill: #fff;"/>
    <polyline points="411.945 655.073 416.007 655.273 415.119 663.123 420.861 660.728 421.326 666.491 424.362 668.279 428.907 667.743 431.319 670.496 437.474 667.472 436.765 675.051 438.02 679.599 443.397 677.772 445.742 680.634 447.387 684.58 452.383 683.351 454.432 686.685 460.353 684.038" style="fill: none; stroke: #000; stroke-linecap: round; stroke-linejoin: round; stroke-width: 35px;"/>
  </g>
  <g>
    <polyline points="839.838 447.394 836.568 449.38 832.349 450.579 834.355 456.969 832.23 459.917 823.066 456.989 821.181 460.137 818.43 462.565 820.092 468.674 817.483 471.215 818.034 476.396 810.119 474.516 810.166 479.279 811.183 484.86 805.002 484.434" style="fill: #fff;"/>
    <polyline points="839.838 447.394 836.568 449.38 832.349 450.579 834.355 456.969 832.23 459.917 823.066 456.989 821.181 460.137 818.43 462.565 820.092 468.674 817.483 471.215 818.034 476.396 810.119 474.516 810.166 479.279 811.183 484.86 805.002 484.434" style="fill: none; stroke: #000; stroke-linecap: round; stroke-linejoin: round; stroke-width: 35px;"/>
  </g>
  <g>
    <polyline points="746.447 573.559 741.764 573.846 738.547 575.796 735.288 577.693 730.996 578.432 729.435 582.25 727.901 586.101 727.094 590.777 722.024 590.638 715.744 589.125 717.899 597.145 711.839 595.888 713.717 603.598 709.512 604.446 707.333 607.583" style="fill: #fff;"/>
    <polyline points="746.447 573.559 741.764 573.846 738.547 575.796 735.288 577.693 730.996 578.432 729.435 582.25 727.901 586.101 727.094 590.777 722.024 590.638 715.744 589.125 717.899 597.145 711.839 595.888 713.717 603.598 709.512 604.446 707.333 607.583" style="fill: none; stroke: #000; stroke-linecap: round; stroke-linejoin: round; stroke-width: 35px;"/>
  </g>
  <g>
    <polyline points="608.523 677.312 602.872 672.986 600.863 677.65 597.685 679.435 593.004 677.502 590.72 681.493 587.149 682.313 582.998 681.699 581.528 687.694 577.076 686.334 572.279 684.127 569.146 686.029 567.955 692.745 564.485 693.831" style="fill: #fff;"/>
    <polyline points="608.523 677.312 602.872 672.986 600.863 677.65 597.685 679.435 593.004 677.502 590.72 681.493 587.149 682.313 582.998 681.699 581.528 687.694 577.076 686.334 572.279 684.127 569.146 686.029 567.955 692.745 564.485 693.831" style="fill: none; stroke: #000; stroke-linecap: round; stroke-linejoin: round; stroke-width: 35px;"/>
  </g>
</svg>