<?xml version="1.0" encoding="UTF-8"?>
<svg id="Stickers" xmlns="http://www.w3.org/2000/svg" width="1000" height="1000" viewBox="0 0 1000 1000">
  <polygon points="487.945 500 482.05 496.332 486.29 492.758 491.644 489.315 486.508 485.518 492.205 482.212 491.146 478.573 491.591 475.024 486.42 470.969 489.302 467.611 489.414 463.995 492.356 460.728 493.927 457.33 489.53 453.071 487.479 449.073 489.091 445.644 495.744 443.165 497.147 439.801 498.069 436.354 495.015 432.037 495.831 428.527 498.295 425.417 493.117 420.391 501.445 418.839 493.988 413.04 501.899 411.535 495.812 405.926 496.889 402.416 504.78 401.157 505.892 397.743 504.914 393.583 506.431 390.288 505.58 386.095 507.911 383.102 509.654 379.896 508.311 375.4 514.12 373.939 516.09 370.875 511.562 364.824 516.801 363.252 523.427 362.46 524.501 359.014 526.748 356.16 526.045 351.755 523.068 346.039 524.653 342.745 533.588 343.674 535.205 340.495 530.735 333.625 531.776 329.983 537.862 329.523 540.967 327.248 539.22 321.772 544.668 321.093 544.189 316.378 546.076 313.273 551.555 312.792 548.362 305.925 554.988 306.402 555.954 302.594 554.84 297.076 556.984 294.107 559.484 291.429 568.273 294.142 569.416 290.406 568.032 284.364 568.725 280.072 571.025 277.212 574.152 275.132 581.863 277.544 583.566 274.191 585.063 270.595 585.342 265.687 589.457 264.745 595.427 265.879 595.981 261.174 596.413 256.229 599.567 254.32 603.957 253.888 607.521 252.545 609.257 248.99 612.802 247.656 616.48 246.532 616.302 240.39 622.913 243.189 621.408 235.068 626.514 235.954 631.005 236.094 634.623 235.052 633.818 227.419 635.638 223.555 639.316 222.521 644.099 223.307 648.929 224.296 650.258 219.529 655.472 221.315 656.809 216.433 658.238 211.563 662.757 212.265 664.71 208.215 667.516 205.707 673.363 209.232 677.044 208.588 679.501 205.413 682.309 202.909 686.842 204.183 689.951 202.357 692.949 200.251 694.669 195.01 699.689 197.758 703.55 197.783 706.612 195.771 704.434 191.458 704.386 193.277 703.363 185.238 699.628 184.904 694.275 189.671 690.977 188.222 687.717 186.617 684.105 186.194 680.464 185.919 677.591 182.806 673.389 184.728 670.924 179.778 668.366 174.847 662.775 183.146 661.093 173.922 657.402 173.784 653.166 176.557 650.076 173.382 645.505 178.598 641.986 177.987 639.461 170.733 634.861 177.36 632.233 169.876 627.931 175.227 624.903 169.976 621.358 168.959 617.146 175.291 614.273 166.356 610.114 173.542 606.793 169.04 603.049 171.435 599.602 167.561 595.82 172.528 592.222 173.232 588.658 171.843 585.069 169.819 581.467 168.545 577.919 171.341 574.189 166.106 570.607 167.307 567.163 170.926 563.46 168.988 559.684 166.584 556.059 166.78 552.93 172.602 549.576 175.031 546.1 175.949 542.309 174.108 538.196 170.118 535.089 174.028 531.401 173.577 527.185 169.918 524.835 177.81 521.153 177.441 516.661 172.91 514.361 179.87 511.23 182.264 505.657 173.456 503.055 178.346 500.582 183.41 495.146 176.409 491.753 177.79 489.812 184.426 486.083 184.369 483.317 187.634 479.458 187.185 474.918 184.7 472.031 187.47 467.691 185.874 464.577 187.933 462.236 192.061 460.051 196.43 455.887 195.497 452.267 196.059 447.109 192.919 444.788 196.747 441.071 197.23 438.775 200.943 434.143 199.45 432.052 203.502 429.844 207.183 427.581 210.645 422.511 208.505 418.056 207.726 416.581 212.633 413.695 214.813 407.98 211.939 404.809 213.701 404.635 220.549 400.782 221.071 398.707 224.531 391.964 220.534 391.494 226.503 390.847 232.029 384.289 228.657 384.84 235.801 380 235.096 376.588 236.487 376.205 242.01 368.124 237.187 368.843 244.073 367.26 247.838 360.987 245.71 361.86 252.458 354.389 249.083 356.542 257.165 350.333 255.463 346.991 257.134 342.839 257.949 341.334 261.668 341.673 267.269 335.667 266.223 337.024 272.731 332.822 273.599 333.415 279.161 327.756 278.696 325.916 281.888 320.933 282.215 320.03 286.251 315.253 286.876 313.812 290.419 316.734 297.546 312.506 298.684 305.851 297.966 305.338 302.17 307.298 308.194 304.646 310.654 301.961 313.107 294.887 312.467 296.085 317.722 294.023 320.666 291.675 323.421 288.355 325.561 284.335 327.302 288.522 334.154 287.146 337.485 282.34 338.795 282.709 343.145 283.525 347.682 280.04 349.816 271.747 349.467 274.383 354.912 269.616 356.542 274.929 363.152 269.332 364.427 266.026 366.863 265.733 370.687 269.334 376.159 264.826 378.109 259.275 379.719 262.146 384.738 261.768 388.417 260.855 391.878 261.236 395.789 257.628 398.301 255.603 401.394 253.535 404.496 257.496 409.45 252.542 411.69 254.575 415.971 252.42 419.065 249.464 421.985 248.231 425.372 250.58 429.593 246.451 432.326 248.568 436.426 246.494 439.645 239.469 441.994 244.966 446.631 241.748 449.738 247.015 454.159 238.645 456.592 240.451 460.472 240.696 464.125 245.487 468.224 242.597 471.514 243.448 475.157 238.244 478.367 240.366 482.099 235.728 485.477 242.963 489.353 242.428 492.891 241.231 496.433 241.395 500 235.905 503.627 239.218 507.18 236.301 510.871 238.058 514.42 236.966 518.093 237.189 521.706 241.905 524.967 238.649 528.844 243.607 531.97 243.393 535.574 241.943 539.346 245.125 542.532 246.827 545.874 244.607 549.813 239.964 554.23 244.884 557.024 242.905 561.059 242.753 564.78 241.612 568.737 249.858 570.581 245.905 575.199 248.43 578.287 250.45 581.469 246.484 586.291 247.819 589.694 252.853 591.967 255.549 594.879 254.755 598.896 254.271 602.854 259.948 604.678 261.54 607.883 259.014 612.639 263.675 614.677 260.788 619.683 262.277 622.971 263.928 626.186 268.808 627.961 269.259 631.671 266.384 636.979 269.432 639.532 274.399 641.087 276.86 643.834 277.718 647.403 281.35 649.493 275.933 656.558 280.542 658.11 282.543 661.106 281.31 666.037 286.739 666.963 287.516 670.715 291.845 672.207 289.498 678.04 297.835 676.776 295.095 682.986 300.253 683.75 297.818 689.923 299.683 693.055 305.589 693.127 309.702 694.465 311.086 697.903 308.055 704.953 310.978 707.253 315.834 707.893 320.893 708.263 320.593 713.276 320.024 718.632 322.165 721.603 329.727 719.469 328.707 725.404 334.832 724.447 335.072 729.258 341.111 728.211 341.633 732.8 343.315 736.237 342.597 742.343 351.697 737.634 352.208 742.425 353.377 746.553 355.292 749.87 362.432 746.873 365.111 749.193 362.04 758.817 366.334 759.21 373.736 755.404 373.82 761.248 375.705 764.763 379.381 765.807 384.634 764.525 384.397 771.21 387.145 773.595 393.606 770.254 395.626 773.697 395.938 779.977 399.614 780.89 402.929 782.368 407.08 782.379 410.46 783.675 411.809 788.648 418.197 784.374 420.176 788.24 424.611 787.398 425.734 793.096 427.603 797.469 433.59 793.256 434.384 800.047 438.644 799.37 440.739 803.553 446.615 798.947 447.211 806.85 450.841 807.533 455.068 806.634 457.223 811.12 462.803 806.394 463.857 814.125 469.666 808.35 470.932 815.879 475.144 814.608 477.881 817.964 481.524 818.432 486.551 814.012 489.585 816.42 491.898 821.678 496.364 818.798 499.66 820.414 504.178 816.828 506.123 824.457 510.36 821.887 514.689 818.514 516.687 826.974 520.521 826.097 524.411 824.712 528.156 823.988 530.978 829.29 534.646 829.191 538.461 827.848 541.975 828.736 545.935 825.601 549.062 830.21 553.092 825.569 556.519 827.366 559.82 831.447 563.808 825.094 566.97 833.018 570.594 832.99 574.334 828.911 577.878 830.703 581.449 833.223 585.069 829.792 588.654 827.759 592.243 827.922 595.904 830.401 599.327 825.522 603.139 830.45 606.565 827.147 610.525 832.449 614.204 832.807 617.62 830.066 621.49 832.389 624.835 829.409 628.86 832.572 631.712 826.109 635.182 824.943 639.589 830.126 642.934 827.935 646.564 827.616 649.242 821.995 653.392 824.62 656.558 822.025 659.586 818.965 663.923 821.998 667.985 823.507 670.431 818.19 673.67 816.366 678.912 822.153 680.279 813.4 684.793 816.188 687.464 812.523 690.292 809.554 696.372 816.861 698.84 812.716 700.45 806.266 705.126 808.807 711.647 808.512 706.197 805.326 700.982 808.815 698.871 804.283 697.047 799.24 693.881 797.56 687.609 802.998 684.745 800.482 682.616 796.431 679.773 794.016 673.804 798.062 672.136 793.22 668.381 792.606 667.259 786.938 662.924 787.421 661.24 783.004 655.558 785.772 655.045 779.418 648.602 783.255 648.265 776.791 643.982 776.876 642.106 773.093 638.732 771.69 634.738 771.192 632.647 767.837 631.725 762.862 628.713 760.948 623.576 761.944 617.406 764.193 619.748 755.068 614.64 755.819 610.885 754.741 607.974 752.575 607.335 747.665 604.936 744.941 599.681 745.533 600.013 739.684 594.042 740.956 593.211 736.506 586.417 738.464 587.214 732.353 587.399 727.014 581.263 728.084 582.225 722.086 580.3 718.987 575.253 718.823 574.1 714.998 573.118 711.07 570.763 708.397 566.213 707.604 563.274 705.378 556.208 706.511 557.616 700.681 551.634 700.774 551.625 696.158 550.994 692.085 548.515 689.417 548.763 684.786 544.002 683.736 544.431 679.052 537.278 679.507 534.899 676.688 536.657 671.227 530.653 670.697 536.31 662.984 535.121 659.539 527.305 659.925 528.317 655.185 528.256 651.111 523.312 649.683 523.198 645.662 520.529 642.97 516.466 640.932 519.179 635.603 514.154 633.965 515.38 629.429 510.51 627.617 508.757 624.399 506.742 621.279 510.755 615.762 507.224 613.266 510.482 608.206 501.251 607.709 500.677 604.036 498.287 600.978 501.093 596.237 498.723 593.175 496.769 589.959 495.623 586.492 496.88 582.377 498.18 578.305 498.673 574.483 490.11 572.793 492.297 568.554 492.397 564.82 493.076 560.992 492.462 557.434 492.593 553.75 486.662 551.054 485.319 547.552 486.38 543.701 487.678 539.857 491.719 535.742 491.242 532.19 485.222 529.14 486.785 525.357 483.987 521.913 487.723 518.041 488.953 514.373 484.731 510.919 482.587 507.326 487.812 503.604 487.945 500" style="fill: #fff;"/>
  <polygon points="487.945 500 482.05 496.332 486.29 492.758 491.644 489.315 486.508 485.518 492.205 482.212 491.146 478.573 491.591 475.024 486.42 470.969 489.302 467.611 489.414 463.995 492.356 460.728 493.927 457.33 489.53 453.071 487.479 449.073 489.091 445.644 495.744 443.165 497.147 439.801 498.069 436.354 495.015 432.037 495.831 428.527 498.295 425.417 493.117 420.391 501.445 418.839 493.988 413.04 501.899 411.535 495.812 405.926 496.889 402.416 504.78 401.157 505.892 397.743 504.914 393.583 506.431 390.288 505.58 386.095 507.911 383.102 509.654 379.896 508.311 375.4 514.12 373.939 516.09 370.875 511.562 364.824 516.801 363.252 523.427 362.46 524.501 359.014 526.748 356.16 526.045 351.755 523.068 346.039 524.653 342.745 533.588 343.674 535.205 340.495 530.735 333.625 531.776 329.983 537.862 329.523 540.967 327.248 539.22 321.772 544.668 321.093 544.189 316.378 546.076 313.273 551.555 312.792 548.362 305.925 554.988 306.402 555.954 302.594 554.84 297.076 556.984 294.107 559.484 291.429 568.273 294.142 569.416 290.406 568.032 284.364 568.725 280.072 571.025 277.212 574.152 275.132 581.863 277.544 583.566 274.191 585.063 270.595 585.342 265.687 589.457 264.745 595.427 265.879 595.981 261.174 596.413 256.229 599.567 254.32 603.957 253.888 607.521 252.545 609.257 248.99 612.802 247.656 616.48 246.532 616.302 240.39 622.913 243.189 621.408 235.068 626.514 235.954 631.005 236.094 634.623 235.052 633.818 227.419 635.638 223.555 639.316 222.521 644.099 223.307 648.929 224.296 650.258 219.529 655.472 221.315 656.809 216.433 658.238 211.563 662.757 212.265 664.71 208.215 667.516 205.707 673.363 209.232 677.044 208.588 679.501 205.413 682.309 202.909 686.842 204.183 689.951 202.357 692.949 200.251 694.669 195.01 699.689 197.758 703.55 197.783 706.612 195.771 704.434 191.458 704.386 193.277 703.363 185.238 699.628 184.904 694.275 189.671 690.977 188.222 687.717 186.617 684.105 186.194 680.464 185.919 677.591 182.806 673.389 184.728 670.924 179.778 668.366 174.847 662.775 183.146 661.093 173.922 657.402 173.784 653.166 176.557 650.076 173.382 645.505 178.598 641.986 177.987 639.461 170.733 634.861 177.36 632.233 169.876 627.931 175.227 624.903 169.976 621.358 168.959 617.146 175.291 614.273 166.356 610.114 173.542 606.793 169.04 603.049 171.435 599.602 167.561 595.82 172.528 592.222 173.232 588.658 171.843 585.069 169.819 581.467 168.545 577.919 171.341 574.189 166.106 570.607 167.307 567.163 170.926 563.46 168.988 559.684 166.584 556.059 166.78 552.93 172.602 549.576 175.031 546.1 175.949 542.309 174.108 538.196 170.118 535.089 174.028 531.401 173.577 527.185 169.918 524.835 177.81 521.153 177.441 516.661 172.91 514.361 179.87 511.23 182.264 505.657 173.456 503.055 178.346 500.582 183.41 495.146 176.409 491.753 177.79 489.812 184.426 486.083 184.369 483.317 187.634 479.458 187.185 474.918 184.7 472.031 187.47 467.691 185.874 464.577 187.933 462.236 192.061 460.051 196.43 455.887 195.497 452.267 196.059 447.109 192.919 444.788 196.747 441.071 197.23 438.775 200.943 434.143 199.45 432.052 203.502 429.844 207.183 427.581 210.645 422.511 208.505 418.056 207.726 416.581 212.633 413.695 214.813 407.98 211.939 404.809 213.701 404.635 220.549 400.782 221.071 398.707 224.531 391.964 220.534 391.494 226.503 390.847 232.029 384.289 228.657 384.84 235.801 380 235.096 376.588 236.487 376.205 242.01 368.124 237.187 368.843 244.073 367.26 247.838 360.987 245.71 361.86 252.458 354.389 249.083 356.542 257.165 350.333 255.463 346.991 257.134 342.839 257.949 341.334 261.668 341.673 267.269 335.667 266.223 337.024 272.731 332.822 273.599 333.415 279.161 327.756 278.696 325.916 281.888 320.933 282.215 320.03 286.251 315.253 286.876 313.812 290.419 316.734 297.546 312.506 298.684 305.851 297.966 305.338 302.17 307.298 308.194 304.646 310.654 301.961 313.107 294.887 312.467 296.085 317.722 294.023 320.666 291.675 323.421 288.355 325.561 284.335 327.302 288.522 334.154 287.146 337.485 282.34 338.795 282.709 343.145 283.525 347.682 280.04 349.816 271.747 349.467 274.383 354.912 269.616 356.542 274.929 363.152 269.332 364.427 266.026 366.863 265.733 370.687 269.334 376.159 264.826 378.109 259.275 379.719 262.146 384.738 261.768 388.417 260.855 391.878 261.236 395.789 257.628 398.301 255.603 401.394 253.535 404.496 257.496 409.45 252.542 411.69 254.575 415.971 252.42 419.065 249.464 421.985 248.231 425.372 250.58 429.593 246.451 432.326 248.568 436.426 246.494 439.645 239.469 441.994 244.966 446.631 241.748 449.738 247.015 454.159 238.645 456.592 240.451 460.472 240.696 464.125 245.487 468.224 242.597 471.514 243.448 475.157 238.244 478.367 240.366 482.099 235.728 485.477 242.963 489.353 242.428 492.891 241.231 496.433 241.395 500 235.905 503.627 239.218 507.18 236.301 510.871 238.058 514.42 236.966 518.093 237.189 521.706 241.905 524.967 238.649 528.844 243.607 531.97 243.393 535.574 241.943 539.346 245.125 542.532 246.827 545.874 244.607 549.813 239.964 554.23 244.884 557.024 242.905 561.059 242.753 564.78 241.612 568.737 249.858 570.581 245.905 575.199 248.43 578.287 250.45 581.469 246.484 586.291 247.819 589.694 252.853 591.967 255.549 594.879 254.755 598.896 254.271 602.854 259.948 604.678 261.54 607.883 259.014 612.639 263.675 614.677 260.788 619.683 262.277 622.971 263.928 626.186 268.808 627.961 269.259 631.671 266.384 636.979 269.432 639.532 274.399 641.087 276.86 643.834 277.718 647.403 281.35 649.493 275.933 656.558 280.542 658.11 282.543 661.106 281.31 666.037 286.739 666.963 287.516 670.715 291.845 672.207 289.498 678.04 297.835 676.776 295.095 682.986 300.253 683.75 297.818 689.923 299.683 693.055 305.589 693.127 309.702 694.465 311.086 697.903 308.055 704.953 310.978 707.253 315.834 707.893 320.893 708.263 320.593 713.276 320.024 718.632 322.165 721.603 329.727 719.469 328.707 725.404 334.832 724.447 335.072 729.258 341.111 728.211 341.633 732.8 343.315 736.237 342.597 742.343 351.697 737.634 352.208 742.425 353.377 746.553 355.292 749.87 362.432 746.873 365.111 749.193 362.04 758.817 366.334 759.21 373.736 755.404 373.82 761.248 375.705 764.763 379.381 765.807 384.634 764.525 384.397 771.21 387.145 773.595 393.606 770.254 395.626 773.697 395.938 779.977 399.614 780.89 402.929 782.368 407.08 782.379 410.46 783.675 411.809 788.648 418.197 784.374 420.176 788.24 424.611 787.398 425.734 793.096 427.603 797.469 433.59 793.256 434.384 800.047 438.644 799.37 440.739 803.553 446.615 798.947 447.211 806.85 450.841 807.533 455.068 806.634 457.223 811.12 462.803 806.394 463.857 814.125 469.666 808.35 470.932 815.879 475.144 814.608 477.881 817.964 481.524 818.432 486.551 814.012 489.585 816.42 491.898 821.678 496.364 818.798 499.66 820.414 504.178 816.828 506.123 824.457 510.36 821.887 514.689 818.514 516.687 826.974 520.521 826.097 524.411 824.712 528.156 823.988 530.978 829.29 534.646 829.191 538.461 827.848 541.975 828.736 545.935 825.601 549.062 830.21 553.092 825.569 556.519 827.366 559.82 831.447 563.808 825.094 566.97 833.018 570.594 832.99 574.334 828.911 577.878 830.703 581.449 833.223 585.069 829.792 588.654 827.759 592.243 827.922 595.904 830.401 599.327 825.522 603.139 830.45 606.565 827.147 610.525 832.449 614.204 832.807 617.62 830.066 621.49 832.389 624.835 829.409 628.86 832.572 631.712 826.109 635.182 824.943 639.589 830.126 642.934 827.935 646.564 827.616 649.242 821.995 653.392 824.62 656.558 822.025 659.586 818.965 663.923 821.998 667.985 823.507 670.431 818.19 673.67 816.366 678.912 822.153 680.279 813.4 684.793 816.188 687.464 812.523 690.292 809.554 696.372 816.861 698.84 812.716 700.45 806.266 705.126 808.807 711.647 808.512 706.197 805.326 700.982 808.815 698.871 804.283 697.047 799.24 693.881 797.56 687.609 802.998 684.745 800.482 682.616 796.431 679.773 794.016 673.804 798.062 672.136 793.22 668.381 792.606 667.259 786.938 662.924 787.421 661.24 783.004 655.558 785.772 655.045 779.418 648.602 783.255 648.265 776.791 643.982 776.876 642.106 773.093 638.732 771.69 634.738 771.192 632.647 767.837 631.725 762.862 628.713 760.948 623.576 761.944 617.406 764.193 619.748 755.068 614.64 755.819 610.885 754.741 607.974 752.575 607.335 747.665 604.936 744.941 599.681 745.533 600.013 739.684 594.042 740.956 593.211 736.506 586.417 738.464 587.214 732.353 587.399 727.014 581.263 728.084 582.225 722.086 580.3 718.987 575.253 718.823 574.1 714.998 573.118 711.07 570.763 708.397 566.213 707.604 563.274 705.378 556.208 706.511 557.616 700.681 551.634 700.774 551.625 696.158 550.994 692.085 548.515 689.417 548.763 684.786 544.002 683.736 544.431 679.052 537.278 679.507 534.899 676.688 536.657 671.227 530.653 670.697 536.31 662.984 535.121 659.539 527.305 659.925 528.317 655.185 528.256 651.111 523.312 649.683 523.198 645.662 520.529 642.97 516.466 640.932 519.179 635.603 514.154 633.965 515.38 629.429 510.51 627.617 508.757 624.399 506.742 621.279 510.755 615.762 507.224 613.266 510.482 608.206 501.251 607.709 500.677 604.036 498.287 600.978 501.093 596.237 498.723 593.175 496.769 589.959 495.623 586.492 496.88 582.377 498.18 578.305 498.673 574.483 490.11 572.793 492.297 568.554 492.397 564.82 493.076 560.992 492.462 557.434 492.593 553.75 486.662 551.054 485.319 547.552 486.38 543.701 487.678 539.857 491.719 535.742 491.242 532.19 485.222 529.14 486.785 525.357 483.987 521.913 487.723 518.041 488.953 514.373 484.731 510.919 482.587 507.326 487.812 503.604 487.945 500" style="fill: none; stroke: #000; stroke-linecap: round; stroke-linejoin: round; stroke-width: 30px;"/>
</svg>