<?xml version="1.0" encoding="UTF-8"?>
<svg id="Sticker" xmlns="http://www.w3.org/2000/svg" width="1000" height="1000" viewBox="0 0 1000 1000">
  <path d="M343.09,120.352l3.335,3.597,1.114,3.597,1.682,3.597-.736,3.597-6.416,3.597,8.08,3.598-3.823,3.598-4.436,3.598,3.022,3.598-.645,3.598,4.688,3.598-.21,3.597-1.627,3.597-1.933,3.592,2.757,3.592.461,3.592-5.795,3.593.973,3.593,2.255,3.594.718,3.594.968,3.595-2.466,3.596,3.286,3.596-1.071,3.597,2.958,3.598-9.518,3.599,7.893,3.598-4.859,3.597,4.957,3.597,1.612,3.596-5.686,3.596-2.845,3.595,6.286,3.595-3.44,3.594.533,3.594-.047,3.594,1.036,3.593,2.322,3.593-4.131,3.593,2.236,3.593,3.22,3.593-8.749,3.593,9.378,3.593-6.179,3.593,5.597,3.593-4.708,3.594,3.788,3.594-2.349,3.594.913,3.595-5.803,3.595,3.741,3.596.155,3.597,4.324,3.598-8.52,3.598,7.071,3.599-6.27,3.599,5.73,3.598,1.85,3.598-2.109,3.597-4.928,3.596.788,3.596,3.887,3.595.219,3.595-6.877,3.595,9.345,3.595-8.309,3.595.901,3.595.371,3.595.04,3.595-.721,3.595.582,3.595,1.267,3.596-.167,3.596,1.453,3.597,1.48,3.597,1.495,3.598-2.798,3.599-5.091,3.6.697,3.599,1.856,3.599-2.237,3.598,3.333,3.597-2.168,3.597.507,3.596,1.064,3.596.227,3.596,5.639,3.596-2.689,3.596-2.705,3.596,3.218,3.596,2.486,3.597-5.949,3.597,2.677,3.598,3.606,3.598-4.643,3.599,4.245,3.6-7.731,3.6,4.897,3.599,2.15,3.598-3.672,3.598-1.053,3.597,4.061,3.597,2.025,3.597-6.064,3.597-2.696,3.597-.714,3.597,2.548,3.598-2.94,3.598,1.227,3.599,7.962,3.6-7.619,3.601,7.794,3.6-6.113,3.599-1.357,3.599-1.732,3.598,4.459,3.598-1.088,3.598.757,3.598,5.072,3.598-2.174,3.599,1.471,3.599-4.214,3.6-2.397,3.601,3.2,3.6-1.965,3.599,3.692,3.599-7.002,3.598,2.114,3.598,3.563,3.599-1.685,3.599,2.397,3.6-2.615,3.6,4.855,3.601-4.476,3.6.658,3.6-4.726,3.599,8.827,3.599-2.172,3.599,2.885,3.6-1.488,3.6-5.543,3.601-.754,3.601,6.486,3.6-6.071,3.6,7.165,3.599-5.858,3.6-2.459,3.6,8.448,3.601-5.657,3.601,3.804,3.6.206,3.6-2.82,3.6.825,3.6-5.492,3.602,7.921,3.601-2.607,3.6,3.024,3.6.811,3.596-4.834,3.595,2.071,3.595.484,3.596-2.165,3.597-1.495,3.6-3.149,3.602,3.615,3.601-3.725,3.599,5.688,3.597-5.942,3.597,6.344,3.598-6.095,3.599,1.541,3.602,7.601,3.602-7.568,3.6,7.307,3.599-.591,3.599-7.52,3.6,4.229,3.603-2.408,3.602,6.89,3.6-7.342,3.6,2.582,3.602,3.849,3.604-5.377,3.602,1.028,3.601-3.322,3.603,8.083,3.604-3.132,3.602-4.748,3.603,2.556,3.604,5.387,3.602-7.369,3.604,3.208,3.603-.964,3.604,3.095,3.604-3.909,3.605,1.79,3.6-.174,3.604,2.672,3.6-4.924,3.604,2.819,3.602.549,3.606-1.909,3.603-3.678,3.605-.176,3.607,9.438,3.607-5.561,3.607-3.704,3.606-.586,3.606.459,3.607.508,3.613,6.305,3.613M657.491,120.352l3.335,3.597,1.114,3.597,1.682,3.597-.736,3.597-6.416,3.597,8.08,3.598-3.823,3.598-4.436,3.598,3.022,3.598-.645,3.598,4.688,3.598-.21,3.597-1.627,3.597-1.933,3.592,2.757,3.592.461,3.592-5.795,3.593.973,3.593,2.255,3.594.718,3.594.968,3.595-2.466,3.596,3.286,3.596-1.071,3.597,2.958,3.598-9.518,3.599,7.893,3.598-4.859,3.597,4.957,3.597,1.612,3.596-5.686,3.596-2.845,3.595,6.286,3.595-3.44,3.594.533,3.594-.047,3.594,1.036,3.593,2.322,3.593-4.131,3.593,2.236,3.593,3.22,3.593-8.749,3.593,9.378,3.593-6.179,3.593,5.597,3.593-4.708,3.594,3.788,3.594-2.349,3.594.913,3.595-5.803,3.595,3.741,3.596.155,3.597,4.324,3.598-8.52,3.598,7.071,3.599-6.27,3.599,5.73,3.598,1.85,3.598-2.109,3.597-4.928,3.596.788,3.596,3.887,3.595.219,3.595-6.877,3.595,9.345,3.595-8.309,3.595.901,3.595.371,3.595.04,3.595-.721,3.595.582,3.595,1.267,3.596-.167,3.596,1.453,3.597,1.48,3.597,1.495,3.598-2.798,3.599-5.091,3.6.697,3.599,1.856,3.599-2.237,3.598,3.333,3.597-2.168,3.597.507,3.596,1.064,3.596.227,3.596,5.639,3.596-2.689,3.596-2.705,3.596,3.218,3.596,2.486,3.597-5.949,3.597,2.677,3.598,3.606,3.598-4.643,3.599,4.245,3.6-7.731,3.6,4.897,3.599,2.15,3.598-3.672,3.598-1.053,3.597,4.061,3.597,2.025,3.597-6.064,3.597-2.696,3.597-.714,3.597,2.548,3.598-2.94,3.598,1.227,3.599,7.962,3.6-7.619,3.601,7.794,3.6-6.113,3.599-1.357,3.599-1.732,3.598,4.459,3.598-1.088,3.598.757,3.598,5.072,3.598-2.174,3.599,1.471,3.599-4.214,3.6-2.397,3.601,3.2,3.6-1.965,3.599,3.692,3.599-7.002,3.598,2.114,3.598,3.563,3.599-1.685,3.599,2.397,3.6-2.615,3.6,4.855,3.601-4.476,3.6.658,3.6-4.726,3.599,8.827,3.599-2.172,3.599,2.885,3.6-1.488,3.6-5.543,3.601-.754,3.601,6.486,3.6-6.071,3.6,7.165,3.599-5.858,3.6-2.459,3.6,8.448,3.601-5.657,3.601,3.804,3.6.206,3.6-2.82,3.6.825,3.6-5.492,3.602,7.921,3.601-2.607,3.6,3.024,3.6.811,3.596-4.834,3.595,2.071,3.595.484,3.596-2.165,3.597-1.495,3.6-3.149,3.602,3.615,3.601-3.725,3.599,5.688,3.597-5.942,3.597,6.344,3.598-6.095,3.599,1.541,3.602,7.601,3.602-7.568,3.6,7.307,3.599-.591,3.599-7.52,3.6,4.229,3.603-2.408,3.602,6.89,3.6-7.342,3.6,2.582,3.602,3.849,3.604-5.377,3.602,1.028,3.601-3.322,3.603,8.083,3.604-3.132,3.602-4.748,3.603,2.556,3.604,5.387,3.602-7.369,3.604,3.208,3.603-.964,3.604,3.095,3.604-3.909,3.605,1.79,3.6-.174,3.604,2.672,3.6-4.924,3.604,2.819,3.602.549,3.606-1.909,3.603-3.678,3.605-.176,3.607,9.438,3.607-5.561,3.607-3.704,3.606-.586,3.606.459,3.607.508,3.613,6.305,3.613M120.352,344.463l3.597-3.335,3.597-1.114,3.597-1.682,3.597.736,3.597,6.416,3.598-8.08,3.598,3.823,3.598,4.436,3.598-3.022,3.598.645,3.598-4.688,3.597.21,3.597,1.627,3.592,1.933,3.592-2.757,3.592-.461,3.593,5.795,3.593-.973,3.594-2.255,3.594-.718,3.595-.968,3.596,2.466,3.596-3.286,3.597,1.071,3.598-2.958,3.599,9.518,3.598-7.893,3.597,4.859,3.597-4.957,3.596-1.612,3.596,5.686,3.595,2.845,3.595-6.286,3.594,3.44,3.594-.533,3.594.047,3.593-1.036,3.593-2.322,3.593,4.131,3.593-2.236,3.593-3.22,3.593,8.749,3.593-9.378,3.593,6.179,3.593-5.597,3.594,4.708,3.594-3.788,3.594,2.349,3.595-.913,3.595,5.803,3.596-3.741,3.597-.155,3.598-4.324,3.598,8.52,3.599-7.071,3.599,6.27,3.598-5.73,3.598-1.85,3.597,2.109,3.596,4.928,3.596-.788,3.595-3.887,3.595-.219,3.595,6.877,3.595-9.345,3.595,8.309,3.595-.901,3.595-.371,3.595-.04,3.595.721,3.595-.582,3.596-1.267,3.596.167,3.597-1.453,3.597-1.48,3.598-1.495,3.599,2.798,3.6,5.091,3.599-.697,3.599-1.856,3.598,2.237,3.597-3.333,3.597,2.168,3.596-.507,3.596-1.064,3.596-.227,3.596-5.639,3.596,2.689,3.596,2.705,3.596-3.218,3.597-2.486,3.597,5.949,3.598-2.677,3.598-3.606,3.599,4.643,3.6-4.245,3.6,7.731,3.599-4.897,3.598-2.15,3.598,3.672,3.597,1.054,3.597-4.061,3.597-2.025,3.597,6.064,3.597,2.696,3.597.714,3.598-2.548,3.598,2.94,3.599-1.227,3.6-7.962,3.601,7.619,3.6-7.794,3.599,6.113,3.599,1.357,3.598,1.732,3.598-4.459,3.598,1.088,3.598-.757,3.598-5.072,3.599,2.174,3.599-1.471,3.6,4.214,3.601,2.397,3.6-3.2,3.599,1.965,3.599-3.692,3.598,7.002,3.598-2.114,3.599-3.563,3.599,1.685,3.6-2.397,3.6,2.615,3.601-4.855,3.6,4.476,3.6-.658,3.599,4.726,3.599-8.827,3.599,2.172,3.6-2.885,3.6,1.488,3.601,5.543,3.601.754,3.6-6.486,3.6,6.071,3.599-7.165,3.6,5.858,3.6,2.459,3.601-8.448,3.601,5.657,3.6-3.804,3.6-.206,3.6,2.82,3.6-.825,3.602,5.492,3.601-7.921,3.6,2.607,3.6-3.024,3.596-.811,3.595,4.834,3.595-2.071,3.596-.484,3.597,2.165,3.6,1.495,3.602,3.149,3.601-3.615,3.599,3.725,3.597-5.688,3.597,5.942,3.598-6.344,3.599,6.095,3.602-1.541,3.602-7.601,3.6,7.568,3.599-7.307,3.599.591,3.6,7.52,3.603-4.229,3.602,2.408,3.6-6.89,3.6,7.342,3.602-2.582,3.604-3.849,3.602,5.377,3.601-1.028,3.603,3.322,3.604-8.083,3.602,3.132,3.603,4.748,3.604-2.556,3.602-5.387,3.604,7.369,3.603-3.208,3.604.964,3.604-3.095,3.605,3.909,3.6-1.79,3.604.174,3.6-2.672,3.604,4.924,3.602-2.819,3.606-.549,3.603,1.909,3.605,3.678,3.607.176,3.607-9.438,3.607,5.561,3.606,3.704,3.606.586,3.607-.459,3.613-.508,3.613-6.305M879.648,655.537l-3.597,3.335-3.597,1.114-3.597,1.682-3.597-.736-3.597-6.416-3.598,8.08-3.598-3.823-3.598-4.436-3.598,3.022-3.598-.645-3.598,4.688-3.597-.21-3.597-1.627-3.592-1.933-3.592,2.757-3.592.461-3.593-5.795-3.593.973-3.594,2.255-3.594.718-3.595.968-3.596-2.466-3.596,3.286-3.597-1.071-3.598,2.958-3.599-9.518-3.598,7.893-3.597-4.859-3.597,4.957-3.596,1.612-3.596-5.686-3.595-2.845-3.595,6.286-3.594-3.44-3.594.533-3.594-.047-3.593,1.036-3.593,2.322-3.593-4.131-3.593,2.236-3.593,3.22-3.593-8.749-3.593,9.378-3.593-6.179-3.593,5.597-3.594-4.708-3.594,3.788-3.594-2.349-3.595.913-3.595-5.803-3.596,3.741-3.597.155-3.598,4.324-3.598-8.52-3.599,7.071-3.599-6.27-3.598,5.73-3.598,1.85-3.597-2.109-3.596-4.928-3.596.788-3.595,3.887-3.595.219-3.595-6.877-3.595,9.345-3.595-8.309-3.595.901-3.595.371-3.595.04-3.595-.721-3.595.582-3.596,1.267-3.596-.167-3.597,1.453-3.597,1.48-3.598,1.495-3.599-2.798-3.6-5.091-3.599.697-3.599,1.856-3.598-2.237-3.597,3.333-3.597-2.168-3.596.507-3.596,1.064-3.596.227-3.596,5.639-3.596-2.689-3.596-2.705-3.596,3.218-3.597,2.486-3.597-5.949-3.598,2.677-3.598,3.606-3.599-4.643-3.6,4.245-3.6-7.731-3.599,4.897-3.598,2.15-3.598-3.672-3.597-1.054-3.597,4.061-3.597,2.025-3.597-6.064-3.597-2.696-3.597-.714-3.598,2.548-3.598-2.94-3.599,1.227-3.6,7.962-3.601-7.619-3.6,7.794-3.599-6.113-3.599-1.357-3.598-1.732-3.598,4.459-3.598-1.088-3.598.757-3.598,5.072-3.599-2.174-3.599,1.471-3.6-4.214-3.601-2.397-3.6,3.2-3.599-1.965-3.599,3.692-3.598-7.002-3.598,2.114-3.599,3.563-3.599-1.685-3.6,2.397-3.6-2.615-3.601,4.855-3.6-4.476-3.6.658-3.599-4.726-3.599,8.827-3.599-2.172-3.6,2.885-3.6-1.488-3.601-5.543-3.601-.754-3.6,6.486-3.6-6.071-3.599,7.165-3.6-5.858-3.6-2.459-3.601,8.448-3.601-5.657-3.6,3.804-3.6.206-3.6-2.82-3.6.825-3.602-5.492-3.601,7.921-3.6-2.607-3.6,3.024-3.596.811-3.595-4.834-3.595,2.071-3.596.484-3.597-2.165-3.6-1.495-3.602-3.149-3.601,3.615-3.599-3.725-3.597,5.688-3.597-5.942-3.598,6.344-3.599-6.095-3.602,1.541-3.602,7.601-3.6-7.568-3.599,7.307-3.599-.591-3.6-7.52-3.603,4.229-3.602-2.408-3.6,6.89-3.6-7.342-3.602,2.582-3.604,3.849-3.602-5.377-3.601,1.028-3.603-3.322-3.604,8.083-3.602-3.132-3.603-4.748-3.604,2.556-3.602,5.387-3.604-7.369-3.603,3.208-3.604-.964-3.604,3.095-3.605-3.909-3.6,1.79-3.604-.174-3.6,2.672-3.604-4.924-3.602,2.819-3.606.549-3.603-1.909-3.605-3.678-3.607-.176-3.607,9.438-3.607-5.561-3.606-3.704-3.606-.586-3.607.459-3.613.508-3.613,6.305" style="fill: none; stroke: #000; stroke-linecap: round; stroke-linejoin: round; stroke-width: 35px;"/>
</svg>