<?xml version="1.0" encoding="UTF-8"?>
<svg id="Sticker" xmlns="http://www.w3.org/2000/svg" width="1000" height="1000" viewBox="0 0 1000 1000">
  <polyline points="497.643 540.535 496.14 536.733 502.328 533.437 502.276 529.858 503.589 526.488 501.029 522.243 504.372 519.415 502.445 514.865 507.747 513.195 507.722 509.2 512.604 508.15 510.27 502.048 511.461 498.002 513.599 494.53 520.072 496.509 520.209 490.116 524.053 488.968 529.217 491.253 532.683 490.48 536.494 491.21 538.762 485.098 543.035 488.958 546.556 489.568 549.949 486.723 553.71 482.468 557.508 482.694 561.339 482.712 563.775 490.384 567.183 491.125 571.975 486.927 575.993 486.555 579.38 488.259 583.567 487.911 586.615 490.411 587.583 496.924 589.615 500.667 593.274 501.325 598.387 499.856 599.74 504.385 601.518 508 607.259 506.337 609.256 509.656 614.168 509.57 612.384 516.875 620.638 513.62 618.042 521.21 621.359 522.9 628.281 521.937 625.011 528.869 624.882 533.031 632.865 532.357 632.067 536.872 637.384 538.461 637.345 542.492 640.282 545.47 638.153 549.883 642.322 552.81 633.715 557.709 638.027 560.726 638.893 564.237 643.331 567.959 637.699 571.275 639.673 575.088 635.525 578.027 636.975 581.909 636.094 585.362 636.424 589.199 629.72 590.656 635.185 596.48 633.442 599.708 626.468 600.416 628.233 605.206 622.77 606.249 628.404 613.596 622.333 614.112 624.046 619.533 622.164 622.688 619.377 625.181 617.353 628.225 612.984 629.347 613.752 634.755 604.745 631.547 603.717 635.365 600.698 637.329 600.5 642.166 600.151 647.049 596.154 648.035 590.869 647.385 588.554 650.116 584.935 651.227 586.553 659.222 580.833 657.529 580.321 663.059 576.544 663.952 574.933 668.186 569.427 666.151 564.24 664.288 564.963 672.917 561.351 673.891 558.827 677.352 551.887 670.466 550.715 677.355 546.791 677.155 542.904 676.671 538.666 674.16 536.582 681.542 532.162 677.114 528.717 677.849 525.042 676.229 521.741 679.193 518.306 683.879 514.608 686 511.185 676.546 507.471 680.243 503.462 684.792 500.262 680.148 496.89 678.282 493.399 677.539 489.033 681.338 485.865 678.643 483.365 673.605 479.106 675.879 475.567 675.161 472.856 671.796 469.194 671.529 464.298 674.498 463.506 666.475 456.851 673.301 456.1 665.854 450.943 668.466 449.34 663.456 445.146 663.764 441.905 662.14 440.106 657.999 434.676 660.089 431.981 657.497 429.37 654.833 427.812 650.71 425.264 648.133 421.48 647.225 415.573 648.887 416.035 642.529 412.343 641.309 408.331 640.347 408.66 634.669 404.662 633.64 401.132 632.028 400.881 627.303 398.868 624.314 391.524 625.838 395.465 617.918 394.089 614.535 390.131 613.085 385.489 611.971 386.442 607.009 378.072 608.029 376.231 604.783 376.342 600.46 377.49 595.721 377.952 591.5 376.545 588.259 374.688 585.214 369.176 583.587 373.316 578.181 366.422 576.799 368.779 572.242 368.277 568.677 365.713 565.654 365.662 561.977 361.637 559.117 361.897 555.354 363.826 551.401 365.047 547.66 359.199 544.632 356.979 541.088 359.536 537.251 363.862 533.526 363.233 529.963 362.925 526.378 361.241 522.686 362.241 519.132 361.694 515.438 367.413 512.559 363.885 508.438 366.448 505.254 361.829 500.636 369.231 498.61 366.209 494.171 366.774 490.567 364.823 486.152 373.137 485.062 372.683 481.141 370.72 476.547 376.586 475.034 378.083 471.825 373.688 465.877 380.759 465.255 377.918 459.794 384.37 459.141 385.767 455.86 382.467 449.767 387.746 448.729 391.161 446.663 387.994 440.239 390.737 437.678 397.845 438.33 399.38 435.044 395.926 427.816 397.615 424.441 405.045 425.856 403.922 420.13 407.678 418.583 413.872 419.381 409.857 410.61 418.877 414.35 416.412 406.754 423.174 408.569 421.681 401.669 423.241 397.913 429.807 399.88 429.116 393.442 435.841 395.896 437.763 392.537 440.951 390.768 440.094 383.537 445.072 384.15 446.946 380.452 452.196 381.695 453.871 377.633 460.328 381.077 460.793 374.974 464.72 374.505 466.674 370.624 471.871 372.578 472.805 366.625 478.561 369.979 480.74 366.286 485.081 367.128 485.816 359.934 489.374 358.951 494.508 362.007 496.869 358.141 500.153 356.574 502.812 353.076 507.166 354.744 511.837 358.074 514.556 354.663 517.85 353.187 520.251 347.327 523.909 346.897 528.033 349.351 530.972 344.521 535.679 352.575 538.978 350.333 542.588 350.934 545.616 342.587 549.538 348.084 553.08 346.256 556.683 342.225 560.351 343.502 563.819 349.183 567.455 347.867 570.987 348.767 574.351 351.307 578.452 346.202 582.264 344.963 585.979 344.827 589.243 347.672 592.199 351.842 596.198 349.943 599.9 349.88 603.655 349.7 606.428 353.724 609.92 354.549 612.839 357.48 616.212 358.621 619.721 359.302 624.381 356.443 626.313 362.04 631.662 357.57 635.191 358.517 638.521 360.003 640.868 363.92 643.932 365.926 646.816 368.297 649.263 371.569 654.377 369.008 659.256 367.213 661.25 371.405 662.703 376.475 667.303 375.44 670.107 377.831 671.293 383.022 677.651 379.202 680.887 380.874 683.495 383.565 684.25 389.093 688.06 389.8 691.669 390.875 694.794 392.692 699.79 391.93 699.494 398.46 702.507 400.412 703.431 405.038 710.416 402.027 710.16 408.019 713.665 409.409 719.194 408.551 717.147 416.238 724.66 413.377 726.24 416.997 724.038 424.376 727.8 425.62 729.171 429.215 735.382 428.279 739.899 429.075 736.411 436.925 740.053 438.47 742.649 440.938 745.673 443.089 746.359 447.054 751.882 447.407 753.967 450.36 756.72 452.861 756.644 457.243 763.139 457.41 759.868 463.669 763.283 465.828 762.842 470.181 766.114 472.487 763.765 477.66 770.06 478.569 771.417 481.907 770.289 486.308 775.715 487.922 778.419 490.758 780.184 493.996 778.58 498.438 777.74 502.518 777.453 506.35 784.942 507.839 781.874 512.485 778.188 517.14 780.086 520.292 786.573 522.467 784.126 526.664 781.708 530.742 789.46 533.007 789.086 536.743 791.022 540.141 785.093 544.495 788.986 547.668 783.779 551.7 793.086 554.614 792.583 558.298 788.388 562.074 791.114 565.607 784.753 569.211 785.228 572.732 789.406 576.398 788.072 579.925 785.771 583.352 792.435 587.445 786.572 590.538 791.304 594.655 784.081 597.397 790.172 601.843 787.157 605.044 783.704 608.094 785.89 612.125 784.623 615.537 787.904 619.927 784.734 622.931 783.604 626.371 785.164 630.511 781.565 633.291 782.882 637.43 776.3 639.214 777.259 643.26 779.709 647.866 779.637 651.692 772.808 653.088 775.534 657.942 768.186 658.95 773.354 664.887 765.106 665.348 763.091 668.333 765.796 673.429 763.448 676.295 766.782 681.863 759.545 682.347 760.86 687.019 760.575 690.939 753.46 691.223 753.528 695.321 750.303 697.601 751.078 702.17 752.543 707.229 745.746 707.321 749.5 713.896 746.92 716.568 744.192 719.122 742.982 722.679 733.699 720.677 735.668 726.407 731.611 727.902 730.315 731.379 726.579 733.034 728.517 739.034 725.763 741.458 719.334 740.885 718.852 745.091 719.608 750.413 713.728 750.098 716.262 757.103 707.872 754.403 705.779 757.296 707.195 763.529 706.231 767.62 701.614 768.157 697.739 769.35 697.726 774.495 695.81 777.765 689.46 776.195 687.628 779.514 686.505 783.721 684.556 787.047 679.327 786.358 676.873 789.041 673.643 790.728 669.672 791.371 666.393 792.895 665.468 797.814 662.865 800.4 660.644 803.623 656.933 804.532 654.849 808.086 650.058 807.079 644.527 804.536 645.422 813.631 638.358 807.914 639.359 817.815 632.493 811.953 629.917 814.806 629.377 822.389 625.956 823.694 621.921 823.47 618.048 823.518 615.737 827.67 611.186 825.753 608.904 830.275 602.884 823.443 600.936 829.189 597.528 830.379 592.443 825.403 589.669 828.753 587.913 836.672 583.306 832.85 579.59 832.622 575.331 829.446 573.474 839.017 569.663 838.324 565.049 832.053 562.176 837.129 558.622 837.689 555.193 839.44 550.996 833.484 547.851 838.366 543.979 834.351 540.624 837.746 537.167 840.753 533.619 843.16 529.87 836.22 526.317 836.242 522.716 840.757 519.134 839.459 515.462 841.523 511.803 842.208 508.113 843.029 505.059 834.819 500.919 841.616 497.813 836.044 493.926 838.732 490.913 833.649 487.617 831.521 483.346 836.325 480.248 832.912 476.662 832.764 472.674 834.759 468.657 836.579 466.491 829.136 462.01 833.037 457.777 835.374 454.386 833.929 451.474 830.653 447.879 830.156 443.58 832.149 441.873 824.982 437.321 827.696 435.351 821.936 429.814 827.407 428.992 818.54 423.563 823.278 419.409 824.119 418.073 817.368 412.502 821.799 409.895 818.535 406.442 817.415 404.253 813.345 400.826 812.223 397.479 810.905 394.479 808.84 391.938 805.863 385.864 810.021 385.33 803.102 380.325 804.91 376.697 804.002 374.301 800.852 371.368 798.706 368.156 797.047 368.059 790.281 363.251 791.283 357.277 793.938 355.44 790.108 351.561 789.36 349.781 785.549 350.531 778.317 345.663 778.949 342.718 776.907 340.729 773.629 336.422 773.309 336.484 767.557 333.745 765.313 326.949 767.786 323.586 766.132 321.235 763.322 322.754 756.342 319.375 754.751 316.423 752.68 313.209 750.853 309.313 749.667 307.421 746.488 301.443 747.182 301.339 742.323 301.412 737.403 301.06 732.959 296.013 732.624 292.08 731.248 290.474 727.901 290.316 723.42 285.067 723.002 280.877 721.663 284.582 714.353 277.953 714.792 274.656 712.701 272.976 709.444 273.914 704.418 272.469 701.072 272.603 696.718 271.651 693.117 267.354 691.611 259.966 691.892 264.023 685.285 262.418 682.094 257.792 680.594 257.092 676.877 258.612 672.013 253.269 670.776 247.635 669.583 248.543 665.087 251.723 659.581 246.199 658.214 243.995 655.254 245.538 650.647 246.197 646.49 245.869 642.79 239.751 641.404 236.783 638.691 233.225 636.153 238.38 630.443 234.408 628.041 234.441 624.238 236.971 619.664 229.423 618.281 226.34 615.419 229.453 610.751 228.125 607.388 224.425 604.63 229.605 599.608 221.34 597.896 221.772 594.063 220.025 590.72 222.76 586.458 226.167 582.15 221.84 579.302 220.54 575.869 221.267 572.109 220.206 568.632 224.076 564.501 218.572 561.58 215.862 558.243 220.266 554.174 223.278 550.332 219.877 547.028 218.032 543.559 216.44 540.039 220.658 536.267 221.285 532.689 220.09 529.155 217.111 525.601 221.948 522.041 212.689 518.318 216.44 514.783 218.365 511.254 221.955 507.855 220.903 504.231 220.359 500.616 221.604 497.14 216.723 493.075 217.397 489.507 224.319 486.712 219.396 482.476 219.097 478.789 217.005 474.783 217.603 471.17 223.896 468.59 218.981 463.977 219.981 460.444 228.592 458.578 228.119 454.813 223.492 450.005 224.515 446.505 228.061 443.686 224.33 438.883 229.039 436.446 231.775 433.497 236.594 431.263 237.551 427.836 230.453 421.594 231.548 418.095 237.112 416.274 235.919 411.934 237.168 408.511 237.38 404.65 241.69 402.531 243.258 399.268 245.809 396.461 244.752 391.961 245.906 388.473 247.854 385.374 255.926 385.489 257.115 382.094 250.925 374.591 257.847 374.315 258.809 370.709 264.499 369.922 261.076 363.624 264.75 361.658 263.242 356.372 267.721 354.972 267.617 350.514 269.997 347.727 274.528 346.499 272.84 340.771 280.553 342.002 279.083 336.334 283.794 335.423 286.331 332.843 288.922 330.317 292.151 328.344 293.577 324.844 294.042 320.459 294.475 315.971 303.135 319.005 298.801 310.022 302.263 308.28 307.734 308.553 312.577 308.317 314.773 305.459 312.305 297.7 317.172 297.564 319.613 294.878 319.967 289.858 326.22 291.435 330.381 290.749 330.639 285.513 333.294 283.051 336.153 280.835 337.971 277.314 339.669 273.587 343.759 272.929 345.665 269.422 352.269 272.256 353.463 267.779 353.96 262.219 359.901 264.39 364.467 264.705 366.557 261.382 366.224 254.271 371.448 255.678 373.799 252.613 375.948 249.166 378.643 246.566 383.7 247.994 386.199 245.079 389.847 244.186 393.703 243.714 396.912 242.081 400.78 241.739 403.765 239.702 405.759 235.585 409.462 234.95 413.173 234.421 415.441 230.591 418.214 227.705 421.649 226.275 424.851 224.36 430.37 229.405 432.823 225.288 437.753 229.016 439.34 221.791 442.881 220.95 446.37 219.934 449.561 217.768 454.895 224.089 456.689 216.214 461.252 219.85 463.937 215.243 467.351 213.786 470.589 211.34 475.073 215.472 477.822 210.176 482.358 215.258 485.542 212.236 489.235 212.441 492.868 212.299 496.046 208.481 500.441 214.935 503.246 207.136 507.612 214.68 510.879 210.77 514.368 208.937 517.935 207.849 521.503 206.501 525.139 206.206 528.895 209.243 532.636 213.973 536.146 210.214 539.732 207.431 543.364 206.74 546.984 208.398 550.58 209.848 554.323 205.147 557.763 210.997 561.212 214.503 564.911 212.295 568.478 212.878 572.584 205.744 575.634 213.515 579.615 209.229 583.107 210.836 586.685 211.406 590.132 213.125 593.953 211.549 596.904 217.008 600.839 214.652 604.665 213.371 608.262 213.778 611.027 219.396 614.672 219.301 618.082 220.604 621.779 220.284 626.012 217.238 629.403 218.717 633.617 216.158 636.27 221.123 639.164 224.715 643.107 223.544 647.962 218.644 651.713 218.622 653.366 226.986 657.316 226.06 660.29 228.895 665.719 222.671 667.695 229.087 672.947 223.892 675.874 226.85 679.416 227.686 682.731 229.261 685.28 233.215 689.043 233.317 691.902 236.167 695.265 237.465 698.371 239.493 703.582 235.593 704.507 243.655 709.232 241.248 713.918 239.094 716.428 242.682 721.142 240.624 722.793 246.258 725.15 250.009 728.903 250.352 732.697 250.642 734.135 256.328 737.951 256.55 742.401 255.44 747.087 253.946 750.578 255.068 752.064 260.269 754.938 262.547 760.946 258.848 760.134 267.88" style="fill: none; stroke: #000; stroke-linecap: round; stroke-linejoin: round; stroke-width: 40px;"/>
</svg>