<?xml version="1.0" encoding="UTF-8"?>
<svg id="Sticker" xmlns="http://www.w3.org/2000/svg" width="1000" height="1000" viewBox="0 0 1000 1000">
  <path d="M842.575,353.833l1.821-5.879,6.048.681,3.049-2.086-4.195-8.803,7.784,2.293.424-4.52,1.976-3.086-.86-5.717,8.84,3.272.259-4.682,5.127-.17-1.184-6.02,4.517-.737-.873-5.731,6.501,1.096-1.991-6.759,2.853-2.278,2.357-2.743,7.208,1.748,1.134-3.878-2.749-7.482,5.558.482-2.885-1.812-3.502-1.448-1.017-4.13-.389-4.806-1.587-3.511-5.903,1.146-2.02-3.05-3.51-1.437-.049-5.174-7.981,3.389-1.944-3.132-.933-4.221.805-6.098-4.058-.85-5.476.684.902-6.192-6.055,1.317-3.794-1.132.426-5.689-1.167-3.963-7.182,2.527,1.27-6.604-2.971-2.019-3.53-1.422-1.536-3.572-5.606.818-1.621-3.482.888-6.193-7.273,2.615-2.214-2.835-3.604-1.342-.157-5.069-4.078-.836.463-5.741-5.484.672,3.217-4.509.461-2.382-5.288-1.657-1.687-3.454-2.274-2.801-1.603-3.548-2.554-2.482-5.33.585-.671-4.576-3.626-1.298-4.218-.646-2.348-2.723-4.388-.458,2.435-8.023-2.788-2.233-2.728-2.305-5.888,1.2-3.76-1.161-.779-4.466-3.482-1.459,1.305-6.771-5.277.516-5.432.687.035-5.372-3.68-1.264-1.682-6.908-2.07,6.247-4.254.819-4.696.377.449,5.522-4.859.214-1.298,3.775.413,5.488-6.31-1.235,1.256,6.332-.784,4.293-7.843-2.765,2.923,8.002-4.195.885-6.29-1.21-.353,4.725-.44,4.638-5.189-.112-3.976,1.1-3.2,1.876-3.463,1.612.148,5.223.821,5.896-3.969,1.105-5.092-.017-.81,4.265-4.653.422,1.344,6.421-7.519-2.442,1.956,7.034-6.12-1.041-3.263,1.818.56,5.64-5.325-.246-1.448,3.631-2.706,2.371.757,5.834-7.267-2.191,2.306,7.382-7.62-2.544.075,5.151,1.192,6.269-5.762-.685-.704,4.374-3.99,1.089-4.844.236-1.745,3.337.179,5.259-4.264.815-3.139,1.94-.796,4.282-5.351-.273.083,5.16-5.961-.884-.488,4.59-2.411,2.668-2.582,2.497-4.313.767-3.073,2.009,2.412,7.493-1.643,3.437-8.999-3.92-.918,4.16.835,5.913-6.271-1.192,1.478,6.557-7.31-2.23,1.702,6.783-5.977-.894-.923,4.158-2.64,2.44-1.483,3.596-2.568,2.511-6.408-1.336,1.533,6.608-2.128,2.95-4.861.221-1.604,3.476-4.609.469,1.887,6.962-4.607.466-6.001-.929,4.391,9.462-6.767-1.696-1.823,3.248-5.584-.512-1.272,3.802-.355,4.722-6.022-.942,3.536,8.619-7.382-2.299-3.344,1.736,3.357,8.434-5.183-.107-3.448,1.627,1.158,6.233-2.681,2.396-8.793-3.715,1.934,7.016-5.676-.591-1.774,3.309-2.957,2.123.902,5.981-1.675,3.403-3.886,1.193-6.976-1.895,1.339,6.423-5.331-.245,1.273,6.355-6.526-1.445-2.494,2.587,1.717,6.8-4.611.475-4.737.348-2.22,2.863-.895,4.187-4.036,1.048,1.371,6.459-7.932-2.848,2.461,7.544-3.737,1.348-2.02,3.067-4.194.891-2.512,2.574-4.387.701-2.632,2.453-3.528,1.547,1.288,6.365-4.621.466-2.78,2.305-3.858,1.223,2.502,7.586-1.37,3.72-3.106,1.979-2.745,2.345-8.377-3.29,2.047,7.139-.954,4.135-2.23,2.862-4.404.69-3.193,1.89-4.262.828-1.568,3.527-4.258.839,2.33,7.427-5.313-.207-3.285,1.484-2.38-2.255-5.222,3.878-1.378-7.239-3.295-1.738-3.885.084-3.471-1.185-2.839-3.301-5.061,4.201-3.033-2.665-4.943,4.26-2.926-3.064-3.537-.792-3.319-1.692-3.03-3.052-2.971-3.592-3.58-.945-5.118,7.263-3.493-.834-2.771-5.576-3.101-4.485-3.904,1.115-4.361,6.887-3.423-2.063-3.587.015-3.567,1.567-3.583-3.332-3.526,1.513-3.785-3.757-3.297,4.371-3.575-.062-3.179,3.371-4.513-6.969-3.479,1.343-3.882-1.044-2.106,8.055-5.345-7.772-2.744,4.303-2.504,4.648-2.891,2.746-5.44-5.693-3.463,1.135-2.386,4.159-5.189-3.582-1.51,6.113-3.702.448-4.651-1.556.209,8.982-4.847-1.863-5.677-3.109-2.209,3.625-3.854.612-3.644,1.067,1.14,8.69-4.96-1.099-3.856.755-4.116.503-.144,5.913-2.427,2.701-5.897-1.583-.952,4.531-4.305.579-1.312,3.964-4.938.073-.051,5.151-.142,4.863-5.954-.679.318,5.14-2.123,2.87-1.833,3.094-3.796,1.527-6.51-.413-1.856,3.215-1.707,3.3,2.169,5.844-6.485.12-2.487,2.797,3.556,6.325.644,4.43-4.842,1.422-5.257,1.377-.106,4.009-2.312,2.942-.483,3.762-3.255,2.601,5.168,5.885-7.439,1.094-2.489,3.03-.142,3.821.009,3.822,6.294,5.456-4.224,2.56-6.336,2.231,7.778,5.333-5.78,2.507,4.22,4.335-2.899,3.136.299,3.618-2.033,3.356-3.054,3.343,2.092,3.762-2.485,3.487,3.649,3.703-4.23,3.556,1.725,3.605,3.826,3.456-.417,3.562-.298,3.577,2.466,3.324-8.481,4.554,8.663,2.507-5.568,4.466,2.024,3.338,3.453,2.99-4.188,4.588,2.545,3.147,6.337,2.061-5.541,5.259,2.698,2.983,4.038,2.463,1.167,3.356-4.122,5.364,8.136.677-5.538,6.189,7.637.585-1.317,4.54,3.511,2.266-3.483,5.847,4.92,1.477-1.491,5.019,5.117,1.194,3.693,1.917-.401,4.528,1.235,3.535,7.315-.804-2.502,6.264,5.739.092-3.698,7.576,8.557-2.457,2.624,2.37-.074,4.839,4.023,1.088,2.106,2.883,3.508,1.456,1.713,3.319,2.982,1.964,1.03,4.226,2.096,3.083,1.92,3.377,3.101,1.906,2.041,3.352,5.785-1.956,2.666,2.398.998,5.069,5.125-1.452,2.278,3.155,3.191,1.633,3.308,1.401,4.175-.359,3.166,1.558,1.035,6.289,3.915.088,3.832.136,3.668.419,2.773,2.821,2.608,3.537,4.969-3.705,2.688,3.451,3.53.705,2.986,2.88,2.879,3.743,5.075-6.453,3.455.785,3.043,3.379,3.051,4.151,4.698-8.315,3.256,2.561,3.206,4.325,3.518,1.822,3.636.44,3.797-7.035,3.516-.557,3.609,5.323,3.764,3.846,3.217-8.017,3.683,1.764,4.06,4.714,2.631-8.89,3.71,1.242,4.136,3.441,4.135,2.521,2.378-6.784,3.993,1.56,4.204,2.011,2.377-5.289,4.8,3.747,2.656-3.812,1.943-5.585,5.889,6.053,2.862-2.801,1.821-5.211,3.018-1.978,5.089,2.68,3.778-.507,2.225-3.715,2.092-3.765,1.893-3.929,5.772,2.979,1.965-3.731,3.546-1.073,1.25-4.612,3.017-1.833,5.538,1.645-.032-6.061,6.03,1.982,4.711.034-1.766-7.759,3.359-1.552,1.481-3.65,5.491.621,3.493-1.618,2.892-2.269,1.393-3.681-1.844-6.472,7.73,1.978.566-4.249,1.73-3.221,6.382.312.65-4.087,1.239-3.589-2.024-5.7.421-3.92,5.949-.489,2.26-2.849,4.546-1.611-.265-4.287,2.955-2.575-1.001-4.522,5.551-1.443-3.794-5.626,1.992-3.047,2.802-2.77.357-3.712-2.389-4.59-.211-3.754,7.678-1.417,3.645-2.788-6.129-5.306,7.602-1.926-6.667-5.114,1.302-3.352-1.234-3.789,7.759-2.45-4.898-4.269,4.735-3.09.294-3.621-4.396-3.901,5.025-3.343-.668-3.651,1.257-3.622-.067-3.624-5.651-3.634,7.147-3.619-1.623-3.633-5.996-3.603,7.784-3.694-8.051-3.515,6.282-3.765-6.699-3.405,7.367-3.956-6.776-3.236,1.438-3.706-.627-3.55-1.868-3.372,4.816-4.343-5.341-2.754,2.796-4.245-4.299-2.676,4.598-5.041-5.712-2.029,3.225-5.038-2.272-3.106-7.601-.5.916-4.368,2.395-5.476-7.713.417,4.513-7.259-1.738-3.382-3.06-2.395-4.097-.28,2.582-2.065-.912-5.957,5.47.362,5.091-.014,2.292-2.781-.074-5.126.415-4.646,5.951.836,2.72-2.359,4.078-1.013-3.436-8.449,6.993,1.876,2.147-2.921-2.378-7.4,2.55-2.522,6.514,1.401,1.909-3.159,6.097.984-1.726-6.763-.089-5.146,8.486,3.343-2.193-7.225,4.609-.489,6.158,1.046-2.046-7.075,1.736-3.331,5.932.822-1.547-6.585,3.795-1.299.32-4.744,7.032,1.904,2.723-2.359-1.653-6.69,3.006-2.077,1.472-3.596,2.6-2.482,6.05.93,3.146-1.945,5.116.008-.117-5.171,5.015-.091-3.431-8.454,2.815-2.274,3.994-1.106,5.275.165-1.022-6.068,4.678-.427,1.047-4.026,2.446-2.638,6.041.922,3.129-1.962,2.943-2.149-3.898-8.918,3.751-1.347,5.718.598-.324-5.381,6.199,1.087,1.491-3.577-1.056-6.106,7.643,2.507-.374-5.425,3.437-1.656,3.863-1.24,1.628-3.447,1.314-3.764,4.388-.718.463-4.609,1.426-3.651,3.579-1.523,3.932-1.176,2.477-2.605,1.27-3.807,4.986-.134-2.927-7.968,2.796-2.304,5.938.798,2.421,1.673,2.817-2.197,5.19-.239,1.471,3.774.322,5.012,5.778-.878,1.839,3.376-.363,5.758,2.603,2.552,5.476-.551,3.637,1.437,3.816,1.245-2.743,8.325,6.057-1.177,3.397,1.698.971,4.315,5.517-.591-2.175,7.703,5.151-.198,2.751,2.392,4.852.119-2.141,7.672,2.584,2.578,6.405-1.555-.018,5.387,2.062,3.139,3.901,1.158,4.083.957,3.942,1.113.5,4.832,3.787,1.271-1.152,6.611,6.656-1.814.72,4.596.14,5.224,6.235-1.348,2.188,4.219,1.958-4.228,1.407-3.617,5.737.404,1.488-3.539,4.442-.802,2.939-2.19,2.468-2.63,1.07-3.93-2.785-7.495,7.379,1.913,3.925-1.284-2.382-7.129,1.824-3.231,7.432,1.961-3.45-8.12,2.33-2.756,3.507-1.673,5.536.2-.914-5.773,4.964-.331,2.593-2.535-.521-2.561,1.009-3.183-1.366-3.765-6.383,1.654,2.468-7.901-4.616-.252-6.769,2.071,2.996-8.476-5.689.905-5.489.689-.122-5.107-5.136.304-.881-4.287-3.725-1.218,1.34-6.688-2.36-2.691-.956-4.196-2.444-2.592-3.976-.947-4.063-.851-6.344,1.616,3.339-8.842-4.746-.119-.392-4.814-5.051.21.37-5.641-6.774,2.068.292-5.558-8.014,3.408,3.849-9.403-4.604-.265-6.989,2.303-1.798-3.308,1.435-6.8-5.978,1.203,2.45-7.905-3.994,1.152,3.859.886,2.34-2.732-2.347-7.57,1.092-4.015,5.932.984,4.802-.184-1.694-6.9,1.912-3.173,6.122,1.177.389-4.748,1.346-3.764,3.83-1.192,2.144-2.941,6.92,2.003.535-4.605-1.051-6.248,7.479,2.588,2.998-2.055.282-4.871,5.878.918,1.132-3.993,3.715-1.33-.317-5.87,1.059,4.58,5.084-.135,3.757,1.296-1.448,6.914,8.226-3.532-.795,6.21-.435,5.825,6.123-1.259.831,4.454,4.339.669-.072,5.433,2.857,2.268,7.038-2.246.423,4.898,1.721,3.495,5.1-.151,2.502,2.643-.692,6.1,7.143-2.36-2.04,7.55,7.435-2.676,3.299,1.795-2.616,8.175,3.523,1.553,5.212-.274.992,4.288,5.857-.968-2.68,8.252,4.352.662,6.411-1.573,1.292,3.961-1.459,6.938,8.424-3.732-2.132,7.667,4.578.346,2.994,5.05ZM281.995,775.97l-3.629,3.409-3.288-5.076-3.363-1.113-4.656,8.559-2.448-7.742-4,2.038-3.654-.177-4.732,3.408-.916-9.384-4.299,1.683-1.965-4.66-5.187,3.184-2.04-4.058-5.264,2.403-.451-6.558-6.196,3.334-2.791-2.466-3.088-2.001,1.054-7.317-3.843-.795-7.406,2.967.253-5.677-2.947-2.176-3.456-1.774-.623-4.279.304-4.803-.887-3.661-5.99-.092-1.23-3.476-2.993-2.392,1.565-4.931-8.691.369-.7-3.806.826-4.354,3.413-5.116-3.157-2.616-5.094-2.223,4.051-4.807-5.757-2.366-2.421-3.317,3.839-4.316,1.67-3.783-7.021-3.041,5.511-3.941-.599-3.553-1.294-3.618,1.76-3.505-4.079-4.007,1.888-3.491,5.639-2.735-6.05-4.844,1.394-3.494-.45-3.985,4.534-2.479-.845-4.172,5.525-1.764-2.465-4.984,7.57-.414-.173-4.014-.82-4.554,3.09-2.352,2.415-2.692,3.308-2,2.218-2.721-.859-5.299,4.582-.777,1.362-3.609.911-4.229,2.987-2.174,1.088-4.393,7.587,3.614,2.659-2.27,2.794-2.103.365-6.006,2.31-3.325,4.569.657,2.681-2.772,5.728,3.836,1.718-4.988,1.941-5.19,4.781,2.596,3.028-2.522,4.722,3.83,2.597-4.566,3.975,1.705,3.915,2.475,2.97-4.614,3.791,2.969,3.401-1.929,3.526-4.233,3.486,5.395,3.85-5.173,3.915-2.152,2.697,7.883,4.787-7.067,3.215,3.005,2.312,5.973,4.231-2.069,4.367-1.769,2.227,4.73,2.579,3.169,2.847,2.227,2.574,2.647,4.841-1.793,5.493-2.381,2.119,3.64,1.043,4.988,4.329.053,1.043,4.535,6.26-1.991-1.921,7.663,6.946-2.212-1.041,6.12,1.631,3.246,5.633-.202-.823,5.24,3.347,1.872,1.835,3.029,5.875.485-3.884,6.512,7.725-.198-4.776,6.448,4.833,1.617,6.289,1.313-2.936,5.07,3.64,2.603-.894,4.095-2.227,4.283,1.887,3.183,4.46,2.817-1.844,3.971-.41,3.656,2.766,3.382-3.786,3.782,3.767,3.514-4.9,3.475,2.715,3.669-.127,3.581-.492,3.547-3.025,3.103-1.398,3.271,6.021,5.065.262,3.933-9.785.769,1.036,4.03,3.163,5.069-6.26,1.238,3.625,5.662-7.633.119,3.513,6.028-6.011.564-.014,4.213-2.17,2.846-.976,3.773-2.315,2.79-6.447-.931,1.798,6.511-2.166,2.988-4.868.055-1.82,3.337-4.59-.047.901,7.159-4.67-.3-5.618-2.19,1.968,10.248-6.111-3.45-2.73,2.525-5.015-2.415-2.501,3.006-2.219,4.159-4.941-3.506-.929,9.269-5.271-5.676-3.652-.327-1.965,8.87-4.228-3.121-3.734-.844-3.21,5.522-3.766-.007-3.755-7.086Z" style="fill: #fff;"/>
  <path d="M842.575,353.833l1.821-5.879,6.048.681,3.049-2.086-4.195-8.803,7.784,2.293.424-4.52,1.976-3.086-.86-5.717,8.84,3.272.259-4.682,5.127-.17-1.184-6.02,4.517-.737-.873-5.731,6.501,1.096-1.991-6.759,2.853-2.278,2.357-2.743,7.208,1.748,1.134-3.878-2.749-7.482,5.558.482-2.885-1.812-3.502-1.448-1.017-4.13-.389-4.806-1.587-3.511-5.903,1.146-2.02-3.05-3.51-1.437-.049-5.174-7.981,3.389-1.944-3.132-.933-4.221.805-6.098-4.058-.85-5.476.684.902-6.192-6.055,1.317-3.794-1.132.426-5.689-1.167-3.963-7.182,2.527,1.27-6.604-2.971-2.019-3.53-1.422-1.536-3.572-5.606.818-1.621-3.482.888-6.193-7.273,2.615-2.214-2.835-3.604-1.342-.157-5.069-4.078-.836.463-5.741-5.484.672,3.217-4.509.461-2.382-5.288-1.657-1.687-3.454-2.274-2.801-1.603-3.548-2.554-2.482-5.33.585-.671-4.576-3.626-1.298-4.218-.646-2.348-2.723-4.388-.458,2.435-8.023-2.788-2.233-2.728-2.305-5.888,1.2-3.76-1.161-.779-4.466-3.482-1.459,1.305-6.771-5.277.516-5.432.687.035-5.372-3.68-1.264-1.682-6.908-2.07,6.247-4.254.819-4.696.377.449,5.522-4.859.214-1.298,3.775.413,5.488-6.31-1.235,1.256,6.332-.784,4.293-7.843-2.765,2.923,8.002-4.195.885-6.29-1.21-.353,4.725-.44,4.638-5.189-.112-3.976,1.1-3.2,1.876-3.463,1.612.148,5.223.821,5.896-3.969,1.105-5.092-.017-.81,4.265-4.653.422,1.344,6.421-7.519-2.442,1.956,7.034-6.12-1.041-3.263,1.818.56,5.64-5.325-.246-1.448,3.631-2.706,2.371.757,5.834-7.267-2.191,2.306,7.382-7.62-2.544.075,5.151,1.192,6.269-5.762-.685-.704,4.374-3.99,1.089-4.844.236-1.745,3.337.179,5.259-4.264.815-3.139,1.94-.796,4.282-5.351-.273.083,5.16-5.961-.884-.488,4.59-2.411,2.668-2.582,2.497-4.313.767-3.073,2.009,2.412,7.493-1.643,3.437-8.999-3.92-.918,4.16.835,5.913-6.271-1.192,1.478,6.557-7.31-2.23,1.702,6.783-5.977-.894-.923,4.158-2.64,2.44-1.483,3.596-2.568,2.511-6.408-1.336,1.533,6.608-2.128,2.95-4.861.221-1.604,3.476-4.609.469,1.887,6.962-4.607.466-6.001-.929,4.391,9.462-6.767-1.696-1.823,3.248-5.584-.512-1.272,3.802-.355,4.722-6.022-.942,3.536,8.619-7.382-2.299-3.344,1.736,3.357,8.434-5.183-.107-3.448,1.627,1.158,6.233-2.681,2.396-8.793-3.715,1.934,7.016-5.676-.591-1.774,3.309-2.957,2.123.902,5.981-1.675,3.403-3.886,1.193-6.976-1.895,1.339,6.423-5.331-.245,1.273,6.355-6.526-1.445-2.494,2.587,1.717,6.8-4.611.475-4.737.348-2.22,2.863-.895,4.187-4.036,1.048,1.371,6.459-7.932-2.848,2.461,7.544-3.737,1.348-2.02,3.067-4.194.891-2.512,2.574-4.387.701-2.632,2.453-3.528,1.547,1.288,6.365-4.621.466-2.78,2.305-3.858,1.223,2.502,7.586-1.37,3.72-3.106,1.979-2.745,2.345-8.377-3.29,2.047,7.139-.954,4.135-2.23,2.862-4.404.69-3.193,1.89-4.262.828-1.568,3.527-4.258.839,2.33,7.427-5.313-.207-3.285,1.484-2.38-2.255-5.222,3.878-1.378-7.239-3.295-1.738-3.885.084-3.471-1.185-2.839-3.301-5.061,4.201-3.033-2.665-4.943,4.26-2.926-3.064-3.537-.792-3.319-1.692-3.03-3.052-2.971-3.592-3.58-.945-5.118,7.263-3.493-.834-2.771-5.576-3.101-4.485-3.904,1.115-4.361,6.887-3.423-2.063-3.587.015-3.567,1.567-3.583-3.332-3.526,1.513-3.785-3.757-3.297,4.371-3.575-.062-3.179,3.371-4.513-6.969-3.479,1.343-3.882-1.044-2.106,8.055-5.345-7.772-2.744,4.303-2.504,4.648-2.891,2.746-5.44-5.693-3.463,1.135-2.386,4.159-5.189-3.582-1.51,6.113-3.702.448-4.651-1.556.209,8.982-4.847-1.863-5.677-3.109-2.209,3.625-3.854.612-3.644,1.067,1.14,8.69-4.96-1.099-3.856.755-4.116.503-.144,5.913-2.427,2.701-5.897-1.583-.952,4.531-4.305.579-1.312,3.964-4.938.073-.051,5.151-.142,4.863-5.954-.679.318,5.14-2.123,2.87-1.833,3.094-3.796,1.527-6.51-.413-1.856,3.215-1.707,3.3,2.169,5.844-6.485.12-2.487,2.797,3.556,6.325.644,4.43-4.842,1.422-5.257,1.377-.106,4.009-2.312,2.942-.483,3.762-3.255,2.601,5.168,5.885-7.439,1.094-2.489,3.03-.142,3.821.009,3.822,6.294,5.456-4.224,2.56-6.336,2.231,7.778,5.333-5.78,2.507,4.22,4.335-2.899,3.136.299,3.618-2.033,3.356-3.054,3.343,2.092,3.762-2.485,3.487,3.649,3.703-4.23,3.556,1.725,3.605,3.826,3.456-.417,3.562-.298,3.577,2.466,3.324-8.481,4.554,8.663,2.507-5.568,4.466,2.024,3.338,3.453,2.99-4.188,4.588,2.545,3.147,6.337,2.061-5.541,5.259,2.698,2.983,4.038,2.463,1.167,3.356-4.122,5.364,8.136.677-5.538,6.189,7.637.585-1.317,4.54,3.511,2.266-3.483,5.847,4.92,1.477-1.491,5.019,5.117,1.194,3.693,1.917-.401,4.528,1.235,3.535,7.315-.804-2.502,6.264,5.739.092-3.698,7.576,8.557-2.457,2.624,2.37-.074,4.839,4.023,1.088,2.106,2.883,3.508,1.456,1.713,3.319,2.982,1.964,1.03,4.226,2.096,3.083,1.92,3.377,3.101,1.906,2.041,3.352,5.785-1.956,2.666,2.398.998,5.069,5.125-1.452,2.278,3.155,3.191,1.633,3.308,1.401,4.175-.359,3.166,1.558,1.035,6.289,3.915.088,3.832.136,3.668.419,2.773,2.821,2.608,3.537,4.969-3.705,2.688,3.451,3.53.705,2.986,2.88,2.879,3.743,5.075-6.453,3.455.785,3.043,3.379,3.051,4.151,4.698-8.315,3.256,2.561,3.206,4.325,3.518,1.822,3.636.44,3.797-7.035,3.516-.557,3.609,5.323,3.764,3.846,3.217-8.017,3.683,1.764,4.06,4.714,2.631-8.89,3.71,1.242,4.136,3.441,4.135,2.521,2.378-6.784,3.993,1.56,4.204,2.011,2.377-5.289,4.8,3.747,2.656-3.812,1.943-5.585,5.889,6.053,2.862-2.801,1.821-5.211,3.018-1.978,5.089,2.68,3.778-.507,2.225-3.715,2.092-3.765,1.893-3.929,5.772,2.979,1.965-3.731,3.546-1.073,1.25-4.612,3.017-1.833,5.538,1.645-.032-6.061,6.03,1.982,4.711.034-1.766-7.759,3.359-1.552,1.481-3.65,5.491.621,3.493-1.618,2.892-2.269,1.393-3.681-1.844-6.472,7.73,1.978.566-4.249,1.73-3.221,6.382.312.65-4.087,1.239-3.589-2.024-5.7.421-3.92,5.949-.489,2.26-2.849,4.546-1.611-.265-4.287,2.955-2.575-1.001-4.522,5.551-1.443-3.794-5.626,1.992-3.047,2.802-2.77.357-3.712-2.389-4.59-.211-3.754,7.678-1.417,3.645-2.788-6.129-5.306,7.602-1.926-6.667-5.114,1.302-3.352-1.234-3.789,7.759-2.45-4.898-4.269,4.735-3.09.294-3.621-4.396-3.901,5.025-3.343-.668-3.651,1.257-3.622-.067-3.624-5.651-3.634,7.147-3.619-1.623-3.633-5.996-3.603,7.784-3.694-8.051-3.515,6.282-3.765-6.699-3.405,7.367-3.956-6.776-3.236,1.438-3.706-.627-3.55-1.868-3.372,4.816-4.343-5.341-2.754,2.796-4.245-4.299-2.676,4.598-5.041-5.712-2.029,3.225-5.038-2.272-3.106-7.601-.5.916-4.368,2.395-5.476-7.713.417,4.513-7.259-1.738-3.382-3.06-2.395-4.097-.28,2.582-2.065-.912-5.957,5.47.362,5.091-.014,2.292-2.781-.074-5.126.415-4.646,5.951.836,2.72-2.359,4.078-1.013-3.436-8.449,6.993,1.876,2.147-2.921-2.378-7.4,2.55-2.522,6.514,1.401,1.909-3.159,6.097.984-1.726-6.763-.089-5.146,8.486,3.343-2.193-7.225,4.609-.489,6.158,1.046-2.046-7.075,1.736-3.331,5.932.822-1.547-6.585,3.795-1.299.32-4.744,7.032,1.904,2.723-2.359-1.653-6.69,3.006-2.077,1.472-3.596,2.6-2.482,6.05.93,3.146-1.945,5.116.008-.117-5.171,5.015-.091-3.431-8.454,2.815-2.274,3.994-1.106,5.275.165-1.022-6.068,4.678-.427,1.047-4.026,2.446-2.638,6.041.922,3.129-1.962,2.943-2.149-3.898-8.918,3.751-1.347,5.718.598-.324-5.381,6.199,1.087,1.491-3.577-1.056-6.106,7.643,2.507-.374-5.425,3.437-1.656,3.863-1.24,1.628-3.447,1.314-3.764,4.388-.718.463-4.609,1.426-3.651,3.579-1.523,3.932-1.176,2.477-2.605,1.27-3.807,4.986-.134-2.927-7.968,2.796-2.304,5.938.798,2.421,1.673,2.817-2.197,5.19-.239,1.471,3.774.322,5.012,5.778-.878,1.839,3.376-.363,5.758,2.603,2.552,5.476-.551,3.637,1.437,3.816,1.245-2.743,8.325,6.057-1.177,3.397,1.698.971,4.315,5.517-.591-2.175,7.703,5.151-.198,2.751,2.392,4.852.119-2.141,7.672,2.584,2.578,6.405-1.555-.018,5.387,2.062,3.139,3.901,1.158,4.083.957,3.942,1.113.5,4.832,3.787,1.271-1.152,6.611,6.656-1.814.72,4.596.14,5.224,6.235-1.348,2.188,4.219,1.958-4.228,1.407-3.617,5.737.404,1.488-3.539,4.442-.802,2.939-2.19,2.468-2.63,1.07-3.93-2.785-7.495,7.379,1.913,3.925-1.284-2.382-7.129,1.824-3.231,7.432,1.961-3.45-8.12,2.33-2.756,3.507-1.673,5.536.2-.914-5.773,4.964-.331,2.593-2.535-.521-2.561,1.009-3.183-1.366-3.765-6.383,1.654,2.468-7.901-4.616-.252-6.769,2.071,2.996-8.476-5.689.905-5.489.689-.122-5.107-5.136.304-.881-4.287-3.725-1.218,1.34-6.688-2.36-2.691-.956-4.196-2.444-2.592-3.976-.947-4.063-.851-6.344,1.616,3.339-8.842-4.746-.119-.392-4.814-5.051.21.37-5.641-6.774,2.068.292-5.558-8.014,3.408,3.849-9.403-4.604-.265-6.989,2.303-1.798-3.308,1.435-6.8-5.978,1.203,2.45-7.905-3.994,1.152,3.859.886,2.34-2.732-2.347-7.57,1.092-4.015,5.932.984,4.802-.184-1.694-6.9,1.912-3.173,6.122,1.177.389-4.748,1.346-3.764,3.83-1.192,2.144-2.941,6.92,2.003.535-4.605-1.051-6.248,7.479,2.588,2.998-2.055.282-4.871,5.878.918,1.132-3.993,3.715-1.33-.317-5.87,1.059,4.58,5.084-.135,3.757,1.296-1.448,6.914,8.226-3.532-.795,6.21-.435,5.825,6.123-1.259.831,4.454,4.339.669-.072,5.433,2.857,2.268,7.038-2.246.423,4.898,1.721,3.495,5.1-.151,2.502,2.643-.692,6.1,7.143-2.36-2.04,7.55,7.435-2.676,3.299,1.795-2.616,8.175,3.523,1.553,5.212-.274.992,4.288,5.857-.968-2.68,8.252,4.352.662,6.411-1.573,1.292,3.961-1.459,6.938,8.424-3.732-2.132,7.667,4.578.346,2.994,5.05ZM281.995,775.97l-3.629,3.409-3.288-5.076-3.363-1.113-4.656,8.559-2.448-7.742-4,2.038-3.654-.177-4.732,3.408-.916-9.384-4.299,1.683-1.965-4.66-5.187,3.184-2.04-4.058-5.264,2.403-.451-6.558-6.196,3.334-2.791-2.466-3.088-2.001,1.054-7.317-3.843-.795-7.406,2.967.253-5.677-2.947-2.176-3.456-1.774-.623-4.279.304-4.803-.887-3.661-5.99-.092-1.23-3.476-2.993-2.392,1.565-4.931-8.691.369-.7-3.806.826-4.354,3.413-5.116-3.157-2.616-5.094-2.223,4.051-4.807-5.757-2.366-2.421-3.317,3.839-4.316,1.67-3.783-7.021-3.041,5.511-3.941-.599-3.553-1.294-3.618,1.76-3.505-4.079-4.007,1.888-3.491,5.639-2.735-6.05-4.844,1.394-3.494-.45-3.985,4.534-2.479-.845-4.172,5.525-1.764-2.465-4.984,7.57-.414-.173-4.014-.82-4.554,3.09-2.352,2.415-2.692,3.308-2,2.218-2.721-.859-5.299,4.582-.777,1.362-3.609.911-4.229,2.987-2.174,1.088-4.393,7.587,3.614,2.659-2.27,2.794-2.103.365-6.006,2.31-3.325,4.569.657,2.681-2.772,5.728,3.836,1.718-4.988,1.941-5.19,4.781,2.596,3.028-2.522,4.722,3.83,2.597-4.566,3.975,1.705,3.915,2.475,2.97-4.614,3.791,2.969,3.401-1.929,3.526-4.233,3.486,5.395,3.85-5.173,3.915-2.152,2.697,7.883,4.787-7.067,3.215,3.005,2.312,5.973,4.231-2.069,4.367-1.769,2.227,4.73,2.579,3.169,2.847,2.227,2.574,2.647,4.841-1.793,5.493-2.381,2.119,3.64,1.043,4.988,4.329.053,1.043,4.535,6.26-1.991-1.921,7.663,6.946-2.212-1.041,6.12,1.631,3.246,5.633-.202-.823,5.24,3.347,1.872,1.835,3.029,5.875.485-3.884,6.512,7.725-.198-4.776,6.448,4.833,1.617,6.289,1.313-2.936,5.07,3.64,2.603-.894,4.095-2.227,4.283,1.887,3.183,4.46,2.817-1.844,3.971-.41,3.656,2.766,3.382-3.786,3.782,3.767,3.514-4.9,3.475,2.715,3.669-.127,3.581-.492,3.547-3.025,3.103-1.398,3.271,6.021,5.065.262,3.933-9.785.769,1.036,4.03,3.163,5.069-6.26,1.238,3.625,5.662-7.633.119,3.513,6.028-6.011.564-.014,4.213-2.17,2.846-.976,3.773-2.315,2.79-6.447-.931,1.798,6.511-2.166,2.988-4.868.055-1.82,3.337-4.59-.047.901,7.159-4.67-.3-5.618-2.19,1.968,10.248-6.111-3.45-2.73,2.525-5.015-2.415-2.501,3.006-2.219,4.159-4.941-3.506-.929,9.269-5.271-5.676-3.652-.327-1.965,8.87-4.228-3.121-3.734-.844-3.21,5.522-3.766-.007-3.755-7.086Z" style="fill: none; stroke: #000; stroke-linecap: round; stroke-linejoin: round; stroke-width: 35px;"/>
</svg>