<?xml version="1.0" encoding="UTF-8"?>
<svg id="Sticker" xmlns="http://www.w3.org/2000/svg" width="1000" height="1000" viewBox="0 0 1000 1000">
  <polygon points="697.193 158.454 693.293 162.691 689.684 161.585 686.075 154.362 682.466 160.511 678.856 158.237 675.246 157.156 671.635 160.818 668.023 161.41 664.409 159.968 660.797 155.59 657.186 157.764 653.575 158.31 649.965 163.562 646.355 155.93 642.746 154.699 639.136 163.52 635.526 154.606 631.915 154.866 628.303 156.261 624.691 158.816 621.078 154.068 617.465 163.404 613.854 160.729 610.243 156.024 606.632 158.645 603.022 163.632 599.411 159.161 595.8 157.853 592.189 158.777 588.576 162.137 584.962 160.497 581.35 158.051 577.738 162.16 574.127 161.661 570.516 162.923 566.905 154.933 563.293 155.549 559.681 157.525 556.067 156.824 552.454 157.359 548.842 162.682 545.23 160.413 541.619 159.63 538.007 157.203 534.394 161.124 530.781 162.06 527.168 157.864 523.555 157.405 519.943 155.855 516.331 155.415 512.719 156.718 509.105 159.637 505.492 162.407 501.879 155.839 498.267 162.455 494.659 160.667 491.052 157.358 487.445 154.898 483.836 157.956 480.227 161.481 476.615 159.011 473.001 163.321 469.388 156.724 465.777 158.211 462.168 156.059 458.559 154.674 454.949 155.663 451.337 158.952 447.723 157.045 444.109 156.331 440.497 161.933 436.886 155.515 433.275 158.44 429.663 159.274 426.048 154.196 422.433 154.182 418.821 154.149 415.209 163.325 411.595 163.584 407.979 154.537 404.365 154.251 400.752 159.329 397.137 154.667 393.522 160.412 389.908 155.791 386.293 154.892 382.677 161.772 379.062 162.036 375.446 163.434 371.831 155.201 368.214 160.927 364.599 163.435 360.982 162.798 357.366 155.514 353.75 162.783 350.138 154.142 346.522 154.275 342.908 156.869 339.291 156.786 335.675 159.298 332.058 160.149 328.44 161.575 324.821 161.946 321.202 157.18 317.585 162.831 313.967 160.059 310.347 154.493 306.723 158.243 302.131 157.275 298.401 160.411 298.436 164.598 294.026 166.219 299.89 173.773 293.794 174.421 288.382 175.466 286.953 178.811 287.874 183.513 285.023 186.039 283.471 189.314 284.978 194.354 283.522 197.683 283.309 201.729 275.491 201.383 272.371 203.75 271.585 207.464 271.487 211.577 273.423 216.863 269.871 218.983 263.137 219.266 262.669 223.168 264.98 228.674 259.676 229.782 256.429 232.077 256.98 236.564 255.314 239.771 257.61 245.266 252.808 246.663 253.562 251.269 253.186 255.223 250.15 257.643 243.555 258.007 245.621 263.37 243.937 266.568 238.095 267.364 235.074 269.79 234.519 273.64 236.072 278.708 234.393 281.911 228.166 282.488 225.243 284.971 230.179 291.991 224.058 292.628 227.553 298.816 222 299.781 223.07 304.572 219.563 306.719 214.706 308.086 212.221 310.817 217.061 317.778 211.721 318.863 212.065 323.234 209.674 326.026 208.701 329.633 201.408 329.59 198.511 332.083 197.788 335.831 196.221 339.092 198.822 344.76 194.745 346.575 191.047 348.611 188.563 351.351 193.638 358.453 191.781 361.55 186.342 362.578 186.093 366.602 182.067 368.447 180.619 371.781 178.818 374.915 176.406 377.696 176.145 381.716 172.771 383.939 169.93 386.468 167.284 389.112 168.693 394.1 166.637 397.087 160.449 397.686 161.71 402.586 161.216 406.473 157.263 408.367 160.071 414.161 157.565 416.887 150.104 416.753 153.059 422.635 145.66 422.537 146.23 427.04 143.9 429.871 141.229 432.503 138.409 435.051 140.725 440.563 141.545 445.212 138.612 447.692 132.778 448.492 129.702 450.888 135.743 458.552 131.175 460.087 125.35 460.901 126.43 465.699 123.291 468.065 125.405 473.461 123.785 476.704 122.571 480.183 117.296 481.317 114.924 484.122 115.517 488.644 115.838 493.01 108.432 492.915 107.561 496.6 110.742 500.007 111.494 501.108 107.246 507.728 113.656 508.195 111.094 513.842 112.461 517.221 116.612 518.993 120.981 520.64 118.937 525.991 123.4 527.586 125.808 530.367 123.13 536.083 125.846 538.684 133.217 538.597 134.224 542.184 135.851 545.413 131.465 552.114 133.048 555.369 137.363 557.047 143.904 557.44 145.414 560.739 146.998 563.997 146.52 568.445 148.256 571.613 145.998 577.085 152.456 577.527 151.834 582.054 156.619 583.461 156.756 587.552 154.45 593.053 157.87 595.25 158.735 598.923 165.052 599.448 163.12 604.734 165.242 607.678 166.715 610.998 174.141 610.88 174.166 615.036 175.485 618.445 180.074 619.969 182.287 622.863 178.58 629.174 179.375 632.885 181.737 635.692 189.804 635.205 188.861 639.921 188.472 644.318 189.154 648.097 192.145 650.541 195.458 652.793 192.211 658.834 198.378 659.443 199.284 663.092 205.214 663.84 204.26 668.56 209.796 669.531 204.897 676.526 206.213 679.931 211.078 681.288 216.593 682.271 214.848 687.447 219.539 688.909 221.184 692.134 223.507 694.964 223.838 698.943 221.658 704.37 227.939 704.912 228.814 708.575 232.405 710.672 227.852 717.474 232.448 718.994 237.161 720.444 236.492 725 233.887 730.675 243.352 729.382 244.858 732.686 247.052 735.594 245.615 740.595 244.125 745.627 247.841 747.654 254.582 747.939 249.615 754.979 252.582 757.439 257.335 758.869 256.783 763.363 259.356 766.051 263.981 767.555 260.742 773.601 264.114 775.828 263.946 780.101 271.741 779.776 268.741 785.684 271.596 788.208 274.593 790.646 278.355 792.647 273.497 799.628 276.168 802.257 278.544 805.062 282.745 806.812 284.989 809.694 284.687 814.045 286.927 816.93 286.455 821.382 296.27 819.895 296.504 823.935 294.93 829.023 296.31 832.407 301.41 833.643 301.079 838.022 304.87 837.985 306.707 840.498 310.316 844.657 313.925 840.28 317.534 842.831 321.144 836.202 324.754 839.01 328.365 836.638 331.977 837.291 335.591 840.423 339.203 845.69 342.814 837.26 346.425 843.461 350.035 840.474 353.645 845.224 357.254 842.523 360.864 839.706 364.474 841.884 368.085 842.942 371.697 839.207 375.309 836.983 378.922 844.743 382.535 844.391 386.146 841.758 389.757 844.677 393.368 845.743 396.978 840.27 400.589 840.324 404.2 845.172 407.811 841.829 411.424 838.055 415.038 839.015 418.65 841.836 422.262 836.419 425.873 842.52 429.484 842.812 433.095 840.114 436.707 844.109 440.319 842.321 443.933 836.558 447.546 836.416 451.158 844.822 454.77 844.855 458.381 844.493 461.993 844.48 465.606 843.318 469.219 836.559 472.832 843.734 476.445 843.906 480.057 845.026 483.669 840.847 487.281 840.175 490.895 840.547 494.508 844.105 498.121 840.875 501.733 840.216 505.341 843.443 508.948 844.705 512.555 839.312 516.164 836.77 519.773 837.978 523.385 841.336 526.999 842.316 530.612 842.994 534.223 839.966 537.832 839.308 541.441 839.892 545.051 842.159 548.663 840.336 552.277 841.153 555.891 839.83 559.503 837.12 563.114 845.11 566.725 839.994 570.337 837.396 573.952 837.81 577.567 840.365 581.179 845.775 584.791 837.981 588.405 840.198 592.021 836.859 595.635 845.305 599.248 844.882 602.863 845.15 606.478 844.012 610.092 842.05 613.707 839.408 617.323 840.627 620.938 837.938 624.554 836.601 628.169 845.498 631.786 845.672 635.401 843.198 639.018 843.769 642.634 846.036 646.25 839.592 649.862 842.971 653.478 837.238 657.092 843.06 660.709 844.812 664.325 837.341 667.942 837.712 671.56 839.035 675.179 836.807 678.798 844.367 682.415 845.497 686.033 841.396 689.653 839.563 693.277 843.635 698.105 843.134 695.667 836.164 699.613 834.276 698.796 829.636 704.31 828.652 707.122 826.107 706.687 821.687 705.224 816.673 707.775 813.975 708.851 810.424 712.486 808.352 717.156 806.878 714.595 801.23 722.068 801.376 724.387 798.546 725.841 795.218 722.898 789.35 727.427 787.796 727.297 783.552 727.36 779.419 731.428 777.596 734.341 775.105 740.654 774.579 741.56 770.932 739.415 765.524 745.135 764.657 740.808 757.99 744.628 756.026 748.131 753.879 745.865 748.401 750.628 746.979 748.929 741.825 751.964 739.406 755.97 737.549 761.451 736.543 756.915 729.755 763.06 729.132 765.442 726.338 763.218 720.882 770.819 721.098 770.835 716.935 773.643 714.386 773.183 709.95 775.507 707.121 775.657 703.037 775.691 698.885 783.87 699.435 780.874 693.533 780.66 689.238 789.323 690.075 789.164 685.817 789.235 681.688 794.398 680.497 794.18 676.2 791.937 670.736 800.088 671.274 797.609 665.677 797.583 661.496 804.771 661.48 804.237 657.006 804.689 653.098 803.574 648.284 807.912 646.614 810.466 643.917 808.633 638.689 812.622 636.823 814.492 633.735 822.015 633.91 817.975 627.407 819.284 623.989 825.331 623.307 823.444 618.046 826.473 615.625 831.402 614.301 832.034 610.494 833.685 607.273 837.433 605.263 834.712 599.52 841.162 599.073 843.312 596.141 844.03 592.379 839.04 585.325 844.424 584.261 847.837 582.057 844.286 575.832 852.104 576.172 854.842 573.579 855.552 569.813 852.596 563.932 856.391 561.947 855.95 557.517 865.329 558.756 865.296 554.565 868.972 552.518 870.526 549.243 866.031 542.472 872.001 541.747 873.985 538.716 874.727 534.97 878.975 533.243 878.949 529.053 880.781 525.932 885.314 524.369 887.2 521.279 888.755 518.002 888.832 513.866 885.232 507.608 889.516 505.9 889.473 501.687 890.798 499.996 894.374 495.504 889.939 493.898 890.479 489.418 882.304 489.97 883.861 484.903 881.41 482.149 883.434 476.811 883.642 472.52 879.803 470.564 874.125 469.672 876.918 463.889 874.989 460.834 866.658 461.475 868.454 456.27 869.976 451.223 864.207 450.385 865.035 445.738 860.365 444.265 855.563 442.868 856.371 438.23 859.217 432.414 854.501 430.966 856.19 425.821 851.188 424.539 852.343 419.703 848.57 417.712 844.58 415.847 840.244 414.181 844.348 407.641 836.344 408.09 835.944 404.149 831.965 402.275 835.275 396.193 829.088 395.595 827.968 392.072 832.617 385.218 830.951 382.01 821.478 383.308 823.1 378.199 819.803 375.931 823.643 369.543 814.319 370.756 817.075 364.994 810.027 364.892 811.37 359.946 811.566 355.66 806.421 354.458 805.647 350.734 802.49 348.392 799.985 345.671 802.806 339.873 800.695 336.92 799.915 333.199 793.476 332.747 794.34 328.081 795.447 323.276 789.574 322.501 785.937 320.435 789.009 314.495 782.731 313.951 779.381 311.714 781.182 306.5 776.331 305.129 777.073 300.531 774.821 297.663 778.538 291.349 777.132 287.992 771.764 286.921 772.03 282.594 769.987 279.6 765.517 278.01 764.156 274.625 758.346 273.81 757.369 270.202 754.18 267.869 760.328 260.146 758.005 257.315 750.32 257.581 749.255 254.022 752.201 248.145 748.372 246.183 744.733 244.111 744.492 240.076 742.706 236.932 744.15 231.925 737.722 231.462 738.211 227.004 734.256 225.113 736.45 219.67 735.536 216.023 726.213 217.23 730.052 210.841 723.522 210.442 723.844 206.084 723.443 202.139 724.153 197.557 719.199 196.24 712.678 195.831 715.578 189.978 712.472 187.596 707.415 186.337 712.919 178.979 705.973 178.81 709.356 172.682 705.969 170.458 704.635 167.048 698.499 166.409 697.903 162.496 697.193 158.454" style="fill: #fff;"/>
  <polygon points="697.193 158.454 693.293 162.691 689.684 161.585 686.075 154.362 682.466 160.511 678.856 158.237 675.246 157.156 671.635 160.818 668.023 161.41 664.409 159.968 660.797 155.59 657.186 157.764 653.575 158.31 649.965 163.562 646.355 155.93 642.746 154.699 639.136 163.52 635.526 154.606 631.915 154.866 628.303 156.261 624.691 158.816 621.078 154.068 617.465 163.404 613.854 160.729 610.243 156.024 606.632 158.645 603.022 163.632 599.411 159.161 595.8 157.853 592.189 158.777 588.576 162.137 584.962 160.497 581.35 158.051 577.738 162.16 574.127 161.661 570.516 162.923 566.905 154.933 563.293 155.549 559.681 157.525 556.067 156.824 552.454 157.359 548.842 162.682 545.23 160.413 541.619 159.63 538.007 157.203 534.394 161.124 530.781 162.06 527.168 157.864 523.555 157.405 519.943 155.855 516.331 155.415 512.719 156.718 509.105 159.637 505.492 162.407 501.879 155.839 498.267 162.455 494.659 160.667 491.052 157.358 487.445 154.898 483.836 157.956 480.227 161.481 476.615 159.011 473.001 163.321 469.388 156.724 465.777 158.211 462.168 156.059 458.559 154.674 454.949 155.663 451.337 158.952 447.723 157.045 444.109 156.331 440.497 161.933 436.886 155.515 433.275 158.44 429.663 159.274 426.048 154.196 422.433 154.182 418.821 154.149 415.209 163.325 411.595 163.584 407.979 154.537 404.365 154.251 400.752 159.329 397.137 154.667 393.522 160.412 389.908 155.791 386.293 154.892 382.677 161.772 379.062 162.036 375.446 163.434 371.831 155.201 368.214 160.927 364.599 163.435 360.982 162.798 357.366 155.514 353.75 162.783 350.138 154.142 346.522 154.275 342.908 156.869 339.291 156.786 335.675 159.298 332.058 160.149 328.44 161.575 324.821 161.946 321.202 157.18 317.585 162.831 313.967 160.059 310.347 154.493 306.723 158.243 302.131 157.275 298.401 160.411 298.436 164.598 294.026 166.219 299.89 173.773 293.794 174.421 288.382 175.466 286.953 178.811 287.874 183.513 285.023 186.039 283.471 189.314 284.978 194.354 283.522 197.683 283.309 201.729 275.491 201.383 272.371 203.75 271.585 207.464 271.487 211.577 273.423 216.863 269.871 218.983 263.137 219.266 262.669 223.168 264.98 228.674 259.676 229.782 256.429 232.077 256.98 236.564 255.314 239.771 257.61 245.266 252.808 246.663 253.562 251.269 253.186 255.223 250.15 257.643 243.555 258.007 245.621 263.37 243.937 266.568 238.095 267.364 235.074 269.79 234.519 273.64 236.072 278.708 234.393 281.911 228.166 282.488 225.243 284.971 230.179 291.991 224.058 292.628 227.553 298.816 222 299.781 223.07 304.572 219.563 306.719 214.706 308.086 212.221 310.817 217.061 317.778 211.721 318.863 212.065 323.234 209.674 326.026 208.701 329.633 201.408 329.59 198.511 332.083 197.788 335.831 196.221 339.092 198.822 344.76 194.745 346.575 191.047 348.611 188.563 351.351 193.638 358.453 191.781 361.55 186.342 362.578 186.093 366.602 182.067 368.447 180.619 371.781 178.818 374.915 176.406 377.696 176.145 381.716 172.771 383.939 169.93 386.468 167.284 389.112 168.693 394.1 166.637 397.087 160.449 397.686 161.71 402.586 161.216 406.473 157.263 408.367 160.071 414.161 157.565 416.887 150.104 416.753 153.059 422.635 145.66 422.537 146.23 427.04 143.9 429.871 141.229 432.503 138.409 435.051 140.725 440.563 141.545 445.212 138.612 447.692 132.778 448.492 129.702 450.888 135.743 458.552 131.175 460.087 125.35 460.901 126.43 465.699 123.291 468.065 125.405 473.461 123.785 476.704 122.571 480.183 117.296 481.317 114.924 484.122 115.517 488.644 115.838 493.01 108.432 492.915 107.561 496.6 110.742 500.007 111.494 501.108 107.246 507.728 113.656 508.195 111.094 513.842 112.461 517.221 116.612 518.993 120.981 520.64 118.937 525.991 123.4 527.586 125.808 530.367 123.13 536.083 125.846 538.684 133.217 538.597 134.224 542.184 135.851 545.413 131.465 552.114 133.048 555.369 137.363 557.047 143.904 557.44 145.414 560.739 146.998 563.997 146.52 568.445 148.256 571.613 145.998 577.085 152.456 577.527 151.834 582.054 156.619 583.461 156.756 587.552 154.45 593.053 157.87 595.25 158.735 598.923 165.052 599.448 163.12 604.734 165.242 607.678 166.715 610.998 174.141 610.88 174.166 615.036 175.485 618.445 180.074 619.969 182.287 622.863 178.58 629.174 179.375 632.885 181.737 635.692 189.804 635.205 188.861 639.921 188.472 644.318 189.154 648.097 192.145 650.541 195.458 652.793 192.211 658.834 198.378 659.443 199.284 663.092 205.214 663.84 204.26 668.56 209.796 669.531 204.897 676.526 206.213 679.931 211.078 681.288 216.593 682.271 214.848 687.447 219.539 688.909 221.184 692.134 223.507 694.964 223.838 698.943 221.658 704.37 227.939 704.912 228.814 708.575 232.405 710.672 227.852 717.474 232.448 718.994 237.161 720.444 236.492 725 233.887 730.675 243.352 729.382 244.858 732.686 247.052 735.594 245.615 740.595 244.125 745.627 247.841 747.654 254.582 747.939 249.615 754.979 252.582 757.439 257.335 758.869 256.783 763.363 259.356 766.051 263.981 767.555 260.742 773.601 264.114 775.828 263.946 780.101 271.741 779.776 268.741 785.684 271.596 788.208 274.593 790.646 278.355 792.647 273.497 799.628 276.168 802.257 278.544 805.062 282.745 806.812 284.989 809.694 284.687 814.045 286.927 816.93 286.455 821.382 296.27 819.895 296.504 823.935 294.93 829.023 296.31 832.407 301.41 833.643 301.079 838.022 304.87 837.985 306.707 840.498 310.316 844.657 313.925 840.28 317.534 842.831 321.144 836.202 324.754 839.01 328.365 836.638 331.977 837.291 335.591 840.423 339.203 845.69 342.814 837.26 346.425 843.461 350.035 840.474 353.645 845.224 357.254 842.523 360.864 839.706 364.474 841.884 368.085 842.942 371.697 839.207 375.309 836.983 378.922 844.743 382.535 844.391 386.146 841.758 389.757 844.677 393.368 845.743 396.978 840.27 400.589 840.324 404.2 845.172 407.811 841.829 411.424 838.055 415.038 839.015 418.65 841.836 422.262 836.419 425.873 842.52 429.484 842.812 433.095 840.114 436.707 844.109 440.319 842.321 443.933 836.558 447.546 836.416 451.158 844.822 454.77 844.855 458.381 844.493 461.993 844.48 465.606 843.318 469.219 836.559 472.832 843.734 476.445 843.906 480.057 845.026 483.669 840.847 487.281 840.175 490.895 840.547 494.508 844.105 498.121 840.875 501.733 840.216 505.341 843.443 508.948 844.705 512.555 839.312 516.164 836.77 519.773 837.978 523.385 841.336 526.999 842.316 530.612 842.994 534.223 839.966 537.832 839.308 541.441 839.892 545.051 842.159 548.663 840.336 552.277 841.153 555.891 839.83 559.503 837.12 563.114 845.11 566.725 839.994 570.337 837.396 573.952 837.81 577.567 840.365 581.179 845.775 584.791 837.981 588.405 840.198 592.021 836.859 595.635 845.305 599.248 844.882 602.863 845.15 606.478 844.012 610.092 842.05 613.707 839.408 617.323 840.627 620.938 837.938 624.554 836.601 628.169 845.498 631.786 845.672 635.401 843.198 639.018 843.769 642.634 846.036 646.25 839.592 649.862 842.971 653.478 837.238 657.092 843.06 660.709 844.812 664.325 837.341 667.942 837.712 671.56 839.035 675.179 836.807 678.798 844.367 682.415 845.497 686.033 841.396 689.653 839.563 693.277 843.635 698.105 843.134 695.667 836.164 699.613 834.276 698.796 829.636 704.31 828.652 707.122 826.107 706.687 821.687 705.224 816.673 707.775 813.975 708.851 810.424 712.486 808.352 717.156 806.878 714.595 801.23 722.068 801.376 724.387 798.546 725.841 795.218 722.898 789.35 727.427 787.796 727.297 783.552 727.36 779.419 731.428 777.596 734.341 775.105 740.654 774.579 741.56 770.932 739.415 765.524 745.135 764.657 740.808 757.99 744.628 756.026 748.131 753.879 745.865 748.401 750.628 746.979 748.929 741.825 751.964 739.406 755.97 737.549 761.451 736.543 756.915 729.755 763.06 729.132 765.442 726.338 763.218 720.882 770.819 721.098 770.835 716.935 773.643 714.386 773.183 709.95 775.507 707.121 775.657 703.037 775.691 698.885 783.87 699.435 780.874 693.533 780.66 689.238 789.323 690.075 789.164 685.817 789.235 681.688 794.398 680.497 794.18 676.2 791.937 670.736 800.088 671.274 797.609 665.677 797.583 661.496 804.771 661.48 804.237 657.006 804.689 653.098 803.574 648.284 807.912 646.614 810.466 643.917 808.633 638.689 812.622 636.823 814.492 633.735 822.015 633.91 817.975 627.407 819.284 623.989 825.331 623.307 823.444 618.046 826.473 615.625 831.402 614.301 832.034 610.494 833.685 607.273 837.433 605.263 834.712 599.52 841.162 599.073 843.312 596.141 844.03 592.379 839.04 585.325 844.424 584.261 847.837 582.057 844.286 575.832 852.104 576.172 854.842 573.579 855.552 569.813 852.596 563.932 856.391 561.947 855.95 557.517 865.329 558.756 865.296 554.565 868.972 552.518 870.526 549.243 866.031 542.472 872.001 541.747 873.985 538.716 874.727 534.97 878.975 533.243 878.949 529.053 880.781 525.932 885.314 524.369 887.2 521.279 888.755 518.002 888.832 513.866 885.232 507.608 889.516 505.9 889.473 501.687 890.798 499.996 894.374 495.504 889.939 493.898 890.479 489.418 882.304 489.97 883.861 484.903 881.41 482.149 883.434 476.811 883.642 472.52 879.803 470.564 874.125 469.672 876.918 463.889 874.989 460.834 866.658 461.475 868.454 456.27 869.976 451.223 864.207 450.385 865.035 445.738 860.365 444.265 855.563 442.868 856.371 438.23 859.217 432.414 854.501 430.966 856.19 425.821 851.188 424.539 852.343 419.703 848.57 417.712 844.58 415.847 840.244 414.181 844.348 407.641 836.344 408.09 835.944 404.149 831.965 402.275 835.275 396.193 829.088 395.595 827.968 392.072 832.617 385.218 830.951 382.01 821.478 383.308 823.1 378.199 819.803 375.931 823.643 369.543 814.319 370.756 817.075 364.994 810.027 364.892 811.37 359.946 811.566 355.66 806.421 354.458 805.647 350.734 802.49 348.392 799.985 345.671 802.806 339.873 800.695 336.92 799.915 333.199 793.476 332.747 794.34 328.081 795.447 323.276 789.574 322.501 785.937 320.435 789.009 314.495 782.731 313.951 779.381 311.714 781.182 306.5 776.331 305.129 777.073 300.531 774.821 297.663 778.538 291.349 777.132 287.992 771.764 286.921 772.03 282.594 769.987 279.6 765.517 278.01 764.156 274.625 758.346 273.81 757.369 270.202 754.18 267.869 760.328 260.146 758.005 257.315 750.32 257.581 749.255 254.022 752.201 248.145 748.372 246.183 744.733 244.111 744.492 240.076 742.706 236.932 744.15 231.925 737.722 231.462 738.211 227.004 734.256 225.113 736.45 219.67 735.536 216.023 726.213 217.23 730.052 210.841 723.522 210.442 723.844 206.084 723.443 202.139 724.153 197.557 719.199 196.24 712.678 195.831 715.578 189.978 712.472 187.596 707.415 186.337 712.919 178.979 705.973 178.81 709.356 172.682 705.969 170.458 704.635 167.048 698.499 166.409 697.903 162.496 697.193 158.454" style="fill: none; stroke: #000; stroke-linecap: round; stroke-linejoin: round; stroke-width: 35px;"/>
</svg>