<?xml version="1.0" encoding="UTF-8"?>
<svg id="Sticker" xmlns="http://www.w3.org/2000/svg" width="1000" height="1000" viewBox="0 0 1000 1000">
  <path d="M127.276,326.44l2.022.392,3.598-7.679,3.598,7.704,3.599-8.153,3.599,6.549,3.599.007,3.598-5.83,3.598,1.587,3.598.053,3.598,1.3,3.592-1.17,3.593-2.206,3.593,4.559,3.593-4.508,3.594,7.149,3.594-8.991,3.595,3.574,3.595-.228,3.596-1.172,3.597,5.362,3.598-.566,3.598-5.772,3.599.84,3.599,6.589,3.598-5.809,3.597,5.685,3.597-7.28,3.596,6.996,3.596-1.617,3.595,1.608,3.595.391,3.594-1.373,3.594-6.05,3.594,5.351,3.594-5.27,3.593,5.889,3.593-2.456,3.593,3.966,3.593-8.827,3.593,8.874,3.594.468,3.594-.146,3.594-3.432,3.594-1.361,3.595,1.52,3.595-2.515,3.596-.444,3.597,5.687,3.597-1.036,3.598-3.548,3.599.71,3.6,2.902,3.6-2.095,3.599,2.102,3.598-1.307,3.597-5.814,3.597,9.291,3.596-5.011,3.596-1.32,3.596.05,3.595-3.182,3.595.417,3.595-.702,3.595,1.409,3.595,7.967,3.595-.703,3.595-5.669,3.596,2.828,3.596-4.565,3.597,1.596,3.597,5.435,3.598-3.529,3.599-4.793,3.599,3.603,3.6,2.128,3.6-1.993,3.599-2.483,3.598.28,3.598,5.288,3.597-4.284,3.597,6.952,3.597-6.064,3.596.425,3.596,4.046,3.596-2.056,3.596.487,3.597-3.047,3.597,2.879,3.598,1.904,3.598-5.467,3.599-.25,3.6,3.742,3.601,2.246,3.6-5.476,3.6-.789,3.599,4.235,3.598-6.448,3.598,9.247,3.598-3.914,3.597,1.891,3.597,1.131,3.597-3.11,3.598-2.684,3.598-1.238,3.599,7.21,3.6-2.052,3.6-.85,3.601-2.06,3.6.023,3.6,3.183,3.599-6.231,3.599,3.294,3.598,2.041,3.598-2.065,3.598,5.677,3.599-6.352,3.599,3.586,3.6-5.998,3.601,4.107,3.602,2.676,3.601-1.906,3.6.342,3.599-2.302,3.599,5.738,3.599-4.74,3.599,3.863,3.599-2.321,3.6-5.075,3.601,8.332,3.602-8.463,3.601,5.825,3.6-6.443,3.6,1.79,3.599,5.094,3.6-6.572,3.6,1.381,3.601,5.665,3.602-.461,3.601-2.471,3.6,1.728,3.6,2.757,3.6-3.249,3.6.673,3.601,1.866,3.602-5.019,3.602,5.415,3.601.423,3.6-2.189,3.6-4.887,3.601-1.482,3.602,4.892,3.602-5.161,3.601.175,3.601-.309,3.596.543,3.596,4.954,3.596,2.707,3.596-.386,3.598-1.501,3.6,2.554,3.603-3.817,3.601,3.758,3.599-4.371,3.598-.445,3.598.819,3.598,2.701,3.6-3.369,3.602,1.215,3.603-3.987,3.6,6.277,3.599-6.594,3.599,3.913,3.601-4.31,3.603,2.792,3.603-2.077,3.601,6.132,3.601-7.225,3.602,4.585,3.605-5.134,3.602,3.889,3.601-.941,3.603,1.152,3.604.293,3.602,1.877,3.603-3.288,3.605,1.105,3.603,2.551,3.605,1.556,3.604-2.318,3.604-5.792,3.604,1.722,3.605,7.444,3.6-2.767,3.604-5.255,3.6,3.827,3.605,2.864,3.603-2.123,3.606-2.544,3.604,6.039,3.606-3.603,3.607-.057,3.607-2.689,3.607-.826,3.606.286,3.607,5.045,3.608-5.639,3.613,3.693,3.613,2.037-1.712.718,4.685,4.124-5.847,2.949-.934,3.489,1.289,3.797-.793,3.517,1.872,3.937,1.834,3.97-3.094,3.14-4.925,2.766,5.002,4.593-7.518,2.197-.247,3.591-2.032,3.218,5.45,4.849-1.925,3.261,1.273,3.997-5.298,2.434,3.995,4.691-8.357,1.585.191,3.737.665,3.883,1.926,4.26,2.56,4.486-6.189,1.961-3.941,2.562,5.185,5.349.928,4.092-4.241,2.44-6.601,1.602,6.042,5.838-7.585,1.184,6.166,6.007-7.909.969,3.512,5.141,1.095,4.295-2.795,2.811-6.446,1.32-1.476,3.268,1.517,4.52-.177,3.848-1.879,3.127-3.633,2.334-4.966,1.684,4.078,5.836-6.874.727,1.312,4.604,1.512,4.763-2.237,2.925-5.754,1.09-1.639,3.179-1.312,3.356,1.821,5.092-6.668.394,5.902,7.505-3.207,2.342-7.475-.249,2.312,5.598-2.922,2.436-6.147.355-1.209,3.456,4.237,7.093-5.949.357-1.049,3.639-1.289,3.499-4.636,1.106-3.872,1.593,1.154,5.322-5.738.128-.379,4.22-.513,4.173.76,5.275-4.203,1.229-3.66,1.626-2.338,2.733.538,5.301-4.275,1.026-5.465-.157-2.477,2.567-.787,4.212,1.309,6.374-7.804-2.735.32,5.488-6.171-1.292-.956,4.22-3.185,1.818-.266,5.122-5.422-.772,1.207,7.009-6.887-2.678,1.277,7.32-3.592,1.314-1.413,4.136-3.852.943-7.398-4.021-1.629,3.846-3.657.989-.825,5.159-4.36-.084-2.019,3.484-2.223,3.238-2.572,2.733-6.429-3.779.545,8.096-6.794-4.731.856,9.028-6.159-3.877-2.665,2.63-.322,7.405-4.767-1.464-2.573,3.037-3.219,1.707-5.22-2.823-2.062,4.302-5.599-4.065-.513,8.284-6.388-6.418-2.114,4.467-2.234,4.363-2.443,3.991-4.741-2.625-3.791.015-2.758,3.23-2.661,3.72-3.452,1.203-3.73.218-4.599-3.104-2.182,5.99-5.237-6.031-3.657.083-2.88,3.492-3.074,2.849-3.786-.468-4.063-2.03-3.262,2.07-2.781,5.03-4.149-2.846-4.325-4.427-3.082,3.581-3.378,1.816-3.737-.863-3.845-2.006-2.81,7.278-3.567.796-3.829-2.058-3.436,2.283-3.601.487-3.673-.56-3.57,1.075-3.953-6.788-3.279,7.627-3.777-4.626-3.595.144-3.515,5.366-3.698-7.581-3.582,4.862-3.6-3.349-3.604.348-3.71,6.013-3.595-1.897-3.594-1.178-3.526-2.682-3.851,5.674-3.154-10.018-3.747,2.926-3.989,6.147-3.469-2.612-3.273-4.776-3.862,3.085-3.793,1.792-3.276-3.84-3.27-3.414-3.953,3.102-3.447-1.581-3.355-2.164-4.252,4.699-2.844-5.758-3.965,2.249-3.051-3.796-3.448-1.093-4.01,2.163-4.04,2.074-3.468-1.147-2.987-3.5-3.345-1.558-4.859,5.425-2.89-3.702-3.923.871-3.086-2.648-3.865.52-2.872-3.31-2.823-3.317-5.127,4.886-3.91.38-1.365-7.99-3.347-1.301-4.756,2.993-4.264,1.28-2.55-3.752-3.083-2.124-3.687-.458-4.297,1.07-1.853-5.202-2.953-2.298-4.937,2.441-3.037-2.138-4.08.223-1.422-5.62-4.417.9-2.381-3.393-3.912-.255-1.663-4.672-5.111,1.967-1.342-5.118-6.356,3.982.942-8.963-7.079,4.941-.018-7.011-3.067-1.869-2.442-2.844-5.573,1.96-3.355-1.523-2.006-3.497-2.17-3.195-1.394-4.207-4.723.358-4.905.474,1.041-7.242-6.445,2.32-1.995-3.307-2.431-2.743-4.485-.344-2.976-2.145-1.165-4.16-.559-4.734-.77-4.406-7.797,2.92-.028-5.145-.873-4.197-3.146-1.939-3.552-1.587-1.489-3.527-7.084,1.532-.61-4.336,1.313-5.914-6.462.747-1.954-3.104-3.009-2.245,2.116-6.29-1.541-3.334-1.352-3.455-2.57-2.535-2.114-2.878-5.959-.178-2.111-2.942,1.697-5.504-1.629-3.207-4.354-1.445-2.888-2.435-4.606-1.402,2.501-5.761-7.332.157.874-4.723-4.014-1.892.801-4.61.215-4.231-.917-3.586-2.125-2.94-5.401-1.288,1.52-4.809-1.022-3.506-1.487-3.274-5.776-1.276,3.17-5.438-7.342-.658.184-4.056-1.388-3.353-2.885-2.727,5.064-6.005-6.257-1.361-2.258-3.012,6.672-6.449-6.215-1.487-.922-3.509-2.834-2.818-.861-3.535.206-3.895-2.067-3.112-4.121-2.452-1.18-3.438,5.179-5.433.372-3.871-3.344-2.734-6.779-1.761,2.788-4.576-4.566-2.471-.88-3.525,6.963-5.616-6.482-2.015,3.048-4.509.391-3.802-5.431-2.377,4.568-4.796-.528-3.557-10.224-1.371,3.996-4.595-1.864-3.289-3.65-2.929,2.799-4.274-5.067-2.679,3.759-4.428-4.812-2.771,5.908-4.771.174-3.688-4.577-2.86,1.473-3.913-1.589-3.398.826.96ZM495.231,321.939l-.124,3.595,7.679,3.595-7.704,3.594,8.153,3.594-6.549,3.594-.007,3.594,5.83,3.594-1.587,3.595-.053,3.595-1.3,3.596,1.17,3.597,2.206,3.596-4.559,3.596,4.508,3.595-7.149,3.595,8.991,3.595-3.574,3.595.228,3.595,1.172,3.596-5.362,3.597.566,3.598,5.772,3.597-.84,3.596-6.589,3.595,5.809,3.595-5.685,3.595,7.28,3.596-6.996,3.596,1.617,3.598-1.608,3.597-.391,3.596,1.373,3.596,6.05,3.596-5.351,3.596,5.27,3.597-5.889,3.598,2.456,3.597-3.966,3.596,8.827,3.596-8.874,3.596-.468,3.597.146,3.598,3.432,3.597,1.361,3.597-1.52,3.596,2.515,3.592.444,3.591-5.687,3.591,1.036,3.592,3.548,3.594-.71,3.596-2.902,3.599,2.095,3.597-2.102,3.595,1.307,3.594,5.814,3.593-9.291,3.594,5.011,3.595,1.32,3.598-.05,3.598,3.182,3.596-.417,3.595.702,3.595-1.409,3.596-7.967,3.599.703,3.598,5.669,3.597-2.828,3.596,4.565,3.598-1.596,3.6-5.435,3.598,3.529,3.597,4.793,3.599-3.603,3.6-2.128,3.598,1.993,3.599,2.483,3.6-.28,3.599-5.288,3.6,4.284,3.599-6.952,3.6,6.064,3.6-.425,3.601-4.046,3.596,2.056,3.6-.487,3.596,3.047,3.6-2.879,3.598-1.904,3.602,5.467,3.6.25,3.601-3.742,3.603-2.246,3.603,5.476,3.603.789,3.602-4.235,3.602,6.448,3.603-9.247,3.609,3.914,3.609M676.155,321.939l-.124,3.614,7.679,3.614-7.704,3.615,8.153,3.615-6.549,3.616-.007,3.617,5.83,3.616-1.587,3.615-.053,3.615-1.3,3.615,1.17,3.615,2.206,3.615-4.559,3.616,4.508,3.617-7.149,3.617,8.991,3.616-3.574,3.615.228,3.615,1.172,3.615-5.362,3.616.566,3.617,5.772,3.617-.84,3.616-6.589,3.616,5.809,3.616-5.685,3.616,7.28,3.617-6.996,3.617,1.617,3.616-1.608,3.616-.391,3.611,1.373,3.611,6.05,3.611-5.351,3.612,5.27,3.613-5.889,3.615,2.456,3.618-3.966,3.616,8.827,3.614-8.874,3.613-.468,3.613.146,3.613,3.432,3.615,1.361,3.617-1.52,3.618,2.515,3.616.444,3.615-5.687,3.615,1.036,3.616,3.548,3.619-.71,3.618-2.902,3.616,2.095,3.616-2.102,3.617,1.307,3.62,5.814,3.617-9.291,3.617,5.011,3.618,1.32,3.619-.05,3.618,3.182,3.618-.417,3.62.702,3.618-1.409,3.62-7.967,3.619.703,3.62,5.669,3.619-2.828,3.62,4.565,3.619-1.596,3.619-5.435,3.615,3.529,3.62,4.793,3.618-3.603,3.621-2.128,3.619,1.993,3.621,2.483,3.622-.28,3.622-5.288,3.622,4.284,3.621-6.952,3.622,6.064,3.623-.425,3.628-4.046,3.628M314.306,321.939l-.124,3.614,7.679,3.614-7.704,3.615,8.153,3.615-6.549,3.616-.007,3.617,5.83,3.616-1.587,3.615-.053,3.615-1.3,3.615,1.17,3.615,2.206,3.615-4.559,3.616,4.508,3.617-7.149,3.617,8.991,3.616-3.574,3.615.228,3.615,1.172,3.615-5.362,3.616.566,3.617,5.772,3.617-.84,3.616-6.589,3.616,5.809,3.616-5.685,3.616,7.28,3.617-6.996,3.617,1.617,3.616-1.608,3.616-.391,3.611,1.373,3.611,6.05,3.611-5.351,3.612,5.27,3.613-5.889,3.615,2.456,3.618-3.966,3.616,8.827,3.614-8.874,3.613-.468,3.613.146,3.613,3.432,3.615,1.361,3.617-1.52,3.618,2.515,3.616.444,3.615-5.687,3.615,1.036,3.616,3.548,3.619-.71,3.618-2.902,3.616,2.095,3.616-2.102,3.617,1.307,3.62,5.814,3.617-9.291,3.617,5.011,3.618,1.32,3.619-.05,3.618,3.182,3.618-.417,3.62.702,3.618-1.409,3.62-7.967,3.619.703,3.62,5.669,3.619-2.828,3.62,4.565,3.619-1.596,3.619-5.435,3.615,3.529,3.62,4.793,3.618-3.603,3.621-2.128,3.619,1.993,3.621,2.483,3.622-.28,3.622-5.288,3.622,4.284,3.621-6.952,3.622,6.064,3.623-.425,3.628-4.046,3.628" style="fill: #fff;"/>
  <path d="M127.276,326.44l2.022.392,3.598-7.679,3.598,7.704,3.599-8.153,3.599,6.549,3.599.007,3.598-5.83,3.598,1.587,3.598.053,3.598,1.3,3.592-1.17,3.593-2.206,3.593,4.559,3.593-4.508,3.594,7.149,3.594-8.991,3.595,3.574,3.595-.228,3.596-1.172,3.597,5.362,3.598-.566,3.598-5.772,3.599.84,3.599,6.589,3.598-5.809,3.597,5.685,3.597-7.28,3.596,6.996,3.596-1.617,3.595,1.608,3.595.391,3.594-1.373,3.594-6.05,3.594,5.351,3.594-5.27,3.593,5.889,3.593-2.456,3.593,3.966,3.593-8.827,3.593,8.874,3.594.468,3.594-.146,3.594-3.432,3.594-1.361,3.595,1.52,3.595-2.515,3.596-.444,3.597,5.687,3.597-1.036,3.598-3.548,3.599.71,3.6,2.902,3.6-2.095,3.599,2.102,3.598-1.307,3.597-5.814,3.597,9.291,3.596-5.011,3.596-1.32,3.596.05,3.595-3.182,3.595.417,3.595-.702,3.595,1.409,3.595,7.967,3.595-.703,3.595-5.669,3.596,2.828,3.596-4.565,3.597,1.596,3.597,5.435,3.598-3.529,3.599-4.793,3.599,3.603,3.6,2.128,3.6-1.993,3.599-2.483,3.598.28,3.598,5.288,3.597-4.284,3.597,6.952,3.597-6.064,3.596.425,3.596,4.046,3.596-2.056,3.596.487,3.597-3.047,3.597,2.879,3.598,1.904,3.598-5.467,3.599-.25,3.6,3.742,3.601,2.246,3.6-5.476,3.6-.789,3.599,4.235,3.598-6.448,3.598,9.247,3.598-3.914,3.597,1.891,3.597,1.131,3.597-3.11,3.598-2.684,3.598-1.238,3.599,7.21,3.6-2.052,3.6-.85,3.601-2.06,3.6.023,3.6,3.183,3.599-6.231,3.599,3.294,3.598,2.041,3.598-2.065,3.598,5.677,3.599-6.352,3.599,3.586,3.6-5.998,3.601,4.107,3.602,2.676,3.601-1.906,3.6.342,3.599-2.302,3.599,5.738,3.599-4.74,3.599,3.863,3.599-2.321,3.6-5.075,3.601,8.332,3.602-8.463,3.601,5.825,3.6-6.443,3.6,1.79,3.599,5.094,3.6-6.572,3.6,1.381,3.601,5.665,3.602-.461,3.601-2.471,3.6,1.728,3.6,2.757,3.6-3.249,3.6.673,3.601,1.866,3.602-5.019,3.602,5.415,3.601.423,3.6-2.189,3.6-4.887,3.601-1.482,3.602,4.892,3.602-5.161,3.601.175,3.601-.309,3.596.543,3.596,4.954,3.596,2.707,3.596-.386,3.598-1.501,3.6,2.554,3.603-3.817,3.601,3.758,3.599-4.371,3.598-.445,3.598.819,3.598,2.701,3.6-3.369,3.602,1.215,3.603-3.987,3.6,6.277,3.599-6.594,3.599,3.913,3.601-4.31,3.603,2.792,3.603-2.077,3.601,6.132,3.601-7.225,3.602,4.585,3.605-5.134,3.602,3.889,3.601-.941,3.603,1.152,3.604.293,3.602,1.877,3.603-3.288,3.605,1.105,3.603,2.551,3.605,1.556,3.604-2.318,3.604-5.792,3.604,1.722,3.605,7.444,3.6-2.767,3.604-5.255,3.6,3.827,3.605,2.864,3.603-2.123,3.606-2.544,3.604,6.039,3.606-3.603,3.607-.057,3.607-2.689,3.607-.826,3.606.286,3.607,5.045,3.608-5.639,3.613,3.693,3.613,2.037-1.712.718,4.685,4.124-5.847,2.949-.934,3.489,1.289,3.797-.793,3.517,1.872,3.937,1.834,3.97-3.094,3.14-4.925,2.766,5.002,4.593-7.518,2.197-.247,3.591-2.032,3.218,5.45,4.849-1.925,3.261,1.273,3.997-5.298,2.434,3.995,4.691-8.357,1.585.191,3.737.665,3.883,1.926,4.26,2.56,4.486-6.189,1.961-3.941,2.562,5.185,5.349.928,4.092-4.241,2.44-6.601,1.602,6.042,5.838-7.585,1.184,6.166,6.007-7.909.969,3.512,5.141,1.095,4.295-2.795,2.811-6.446,1.32-1.476,3.268,1.517,4.52-.177,3.848-1.879,3.127-3.633,2.334-4.966,1.684,4.078,5.836-6.874.727,1.312,4.604,1.512,4.763-2.237,2.925-5.754,1.09-1.639,3.179-1.312,3.356,1.821,5.092-6.668.394,5.902,7.505-3.207,2.342-7.475-.249,2.312,5.598-2.922,2.436-6.147.355-1.209,3.456,4.237,7.093-5.949.357-1.049,3.639-1.289,3.499-4.636,1.106-3.872,1.593,1.154,5.322-5.738.128-.379,4.22-.513,4.173.76,5.275-4.203,1.229-3.66,1.626-2.338,2.733.538,5.301-4.275,1.026-5.465-.157-2.477,2.567-.787,4.212,1.309,6.374-7.804-2.735.32,5.488-6.171-1.292-.956,4.22-3.185,1.818-.266,5.122-5.422-.772,1.207,7.009-6.887-2.678,1.277,7.32-3.592,1.314-1.413,4.136-3.852.943-7.398-4.021-1.629,3.846-3.657.989-.825,5.159-4.36-.084-2.019,3.484-2.223,3.238-2.572,2.733-6.429-3.779.545,8.096-6.794-4.731.856,9.028-6.159-3.877-2.665,2.63-.322,7.405-4.767-1.464-2.573,3.037-3.219,1.707-5.22-2.823-2.062,4.302-5.599-4.065-.513,8.284-6.388-6.418-2.114,4.467-2.234,4.363-2.443,3.991-4.741-2.625-3.791.015-2.758,3.23-2.661,3.72-3.452,1.203-3.73.218-4.599-3.104-2.182,5.99-5.237-6.031-3.657.083-2.88,3.492-3.074,2.849-3.786-.468-4.063-2.03-3.262,2.07-2.781,5.03-4.149-2.846-4.325-4.427-3.082,3.581-3.378,1.816-3.737-.863-3.845-2.006-2.81,7.278-3.567.796-3.829-2.058-3.436,2.283-3.601.487-3.673-.56-3.57,1.075-3.953-6.788-3.279,7.627-3.777-4.626-3.595.144-3.515,5.366-3.698-7.581-3.582,4.862-3.6-3.349-3.604.348-3.71,6.013-3.595-1.897-3.594-1.178-3.526-2.682-3.851,5.674-3.154-10.018-3.747,2.926-3.989,6.147-3.469-2.612-3.273-4.776-3.862,3.085-3.793,1.792-3.276-3.84-3.27-3.414-3.953,3.102-3.447-1.581-3.355-2.164-4.252,4.699-2.844-5.758-3.965,2.249-3.051-3.796-3.448-1.093-4.01,2.163-4.04,2.074-3.468-1.147-2.987-3.5-3.345-1.558-4.859,5.425-2.89-3.702-3.923.871-3.086-2.648-3.865.52-2.872-3.31-2.823-3.317-5.127,4.886-3.91.38-1.365-7.99-3.347-1.301-4.756,2.993-4.264,1.28-2.55-3.752-3.083-2.124-3.687-.458-4.297,1.07-1.853-5.202-2.953-2.298-4.937,2.441-3.037-2.138-4.08.223-1.422-5.62-4.417.9-2.381-3.393-3.912-.255-1.663-4.672-5.111,1.967-1.342-5.118-6.356,3.982.942-8.963-7.079,4.941-.018-7.011-3.067-1.869-2.442-2.844-5.573,1.96-3.355-1.523-2.006-3.497-2.17-3.195-1.394-4.207-4.723.358-4.905.474,1.041-7.242-6.445,2.32-1.995-3.307-2.431-2.743-4.485-.344-2.976-2.145-1.165-4.16-.559-4.734-.77-4.406-7.797,2.92-.028-5.145-.873-4.197-3.146-1.939-3.552-1.587-1.489-3.527-7.084,1.532-.61-4.336,1.313-5.914-6.462.747-1.954-3.104-3.009-2.245,2.116-6.29-1.541-3.334-1.352-3.455-2.57-2.535-2.114-2.878-5.959-.178-2.111-2.942,1.697-5.504-1.629-3.207-4.354-1.445-2.888-2.435-4.606-1.402,2.501-5.761-7.332.157.874-4.723-4.014-1.892.801-4.61.215-4.231-.917-3.586-2.125-2.94-5.401-1.288,1.52-4.809-1.022-3.506-1.487-3.274-5.776-1.276,3.17-5.438-7.342-.658.184-4.056-1.388-3.353-2.885-2.727,5.064-6.005-6.257-1.361-2.258-3.012,6.672-6.449-6.215-1.487-.922-3.509-2.834-2.818-.861-3.535.206-3.895-2.067-3.112-4.121-2.452-1.18-3.438,5.179-5.433.372-3.871-3.344-2.734-6.779-1.761,2.788-4.576-4.566-2.471-.88-3.525,6.963-5.616-6.482-2.015,3.048-4.509.391-3.802-5.431-2.377,4.568-4.796-.528-3.557-10.224-1.371,3.996-4.595-1.864-3.289-3.65-2.929,2.799-4.274-5.067-2.679,3.759-4.428-4.812-2.771,5.908-4.771.174-3.688-4.577-2.86,1.473-3.913-1.589-3.398.826.96ZM495.231,321.939l-.124,3.595,7.679,3.595-7.704,3.594,8.153,3.594-6.549,3.594-.007,3.594,5.83,3.594-1.587,3.595-.053,3.595-1.3,3.596,1.17,3.597,2.206,3.596-4.559,3.596,4.508,3.595-7.149,3.595,8.991,3.595-3.574,3.595.228,3.595,1.172,3.596-5.362,3.597.566,3.598,5.772,3.597-.84,3.596-6.589,3.595,5.809,3.595-5.685,3.595,7.28,3.596-6.996,3.596,1.617,3.598-1.608,3.597-.391,3.596,1.373,3.596,6.05,3.596-5.351,3.596,5.27,3.597-5.889,3.598,2.456,3.597-3.966,3.596,8.827,3.596-8.874,3.596-.468,3.597.146,3.598,3.432,3.597,1.361,3.597-1.52,3.596,2.515,3.592.444,3.591-5.687,3.591,1.036,3.592,3.548,3.594-.71,3.596-2.902,3.599,2.095,3.597-2.102,3.595,1.307,3.594,5.814,3.593-9.291,3.594,5.011,3.595,1.32,3.598-.05,3.598,3.182,3.596-.417,3.595.702,3.595-1.409,3.596-7.967,3.599.703,3.598,5.669,3.597-2.828,3.596,4.565,3.598-1.596,3.6-5.435,3.598,3.529,3.597,4.793,3.599-3.603,3.6-2.128,3.598,1.993,3.599,2.483,3.6-.28,3.599-5.288,3.6,4.284,3.599-6.952,3.6,6.064,3.6-.425,3.601-4.046,3.596,2.056,3.6-.487,3.596,3.047,3.6-2.879,3.598-1.904,3.602,5.467,3.6.25,3.601-3.742,3.603-2.246,3.603,5.476,3.603.789,3.602-4.235,3.602,6.448,3.603-9.247,3.609,3.914,3.609M676.155,321.939l-.124,3.614,7.679,3.614-7.704,3.615,8.153,3.615-6.549,3.616-.007,3.617,5.83,3.616-1.587,3.615-.053,3.615-1.3,3.615,1.17,3.615,2.206,3.615-4.559,3.616,4.508,3.617-7.149,3.617,8.991,3.616-3.574,3.615.228,3.615,1.172,3.615-5.362,3.616.566,3.617,5.772,3.617-.84,3.616-6.589,3.616,5.809,3.616-5.685,3.616,7.28,3.617-6.996,3.617,1.617,3.616-1.608,3.616-.391,3.611,1.373,3.611,6.05,3.611-5.351,3.612,5.27,3.613-5.889,3.615,2.456,3.618-3.966,3.616,8.827,3.614-8.874,3.613-.468,3.613.146,3.613,3.432,3.615,1.361,3.617-1.52,3.618,2.515,3.616.444,3.615-5.687,3.615,1.036,3.616,3.548,3.619-.71,3.618-2.902,3.616,2.095,3.616-2.102,3.617,1.307,3.62,5.814,3.617-9.291,3.617,5.011,3.618,1.32,3.619-.05,3.618,3.182,3.618-.417,3.62.702,3.618-1.409,3.62-7.967,3.619.703,3.62,5.669,3.619-2.828,3.62,4.565,3.619-1.596,3.619-5.435,3.615,3.529,3.62,4.793,3.618-3.603,3.621-2.128,3.619,1.993,3.621,2.483,3.622-.28,3.622-5.288,3.622,4.284,3.621-6.952,3.622,6.064,3.623-.425,3.628-4.046,3.628M314.306,321.939l-.124,3.614,7.679,3.614-7.704,3.615,8.153,3.615-6.549,3.616-.007,3.617,5.83,3.616-1.587,3.615-.053,3.615-1.3,3.615,1.17,3.615,2.206,3.615-4.559,3.616,4.508,3.617-7.149,3.617,8.991,3.616-3.574,3.615.228,3.615,1.172,3.615-5.362,3.616.566,3.617,5.772,3.617-.84,3.616-6.589,3.616,5.809,3.616-5.685,3.616,7.28,3.617-6.996,3.617,1.617,3.616-1.608,3.616-.391,3.611,1.373,3.611,6.05,3.611-5.351,3.612,5.27,3.613-5.889,3.615,2.456,3.618-3.966,3.616,8.827,3.614-8.874,3.613-.468,3.613.146,3.613,3.432,3.615,1.361,3.617-1.52,3.618,2.515,3.616.444,3.615-5.687,3.615,1.036,3.616,3.548,3.619-.71,3.618-2.902,3.616,2.095,3.616-2.102,3.617,1.307,3.62,5.814,3.617-9.291,3.617,5.011,3.618,1.32,3.619-.05,3.618,3.182,3.618-.417,3.62.702,3.618-1.409,3.62-7.967,3.619.703,3.62,5.669,3.619-2.828,3.62,4.565,3.619-1.596,3.619-5.435,3.615,3.529,3.62,4.793,3.618-3.603,3.621-2.128,3.619,1.993,3.621,2.483,3.622-.28,3.622-5.288,3.622,4.284,3.621-6.952,3.622,6.064,3.623-.425,3.628-4.046,3.628" style="fill: none; stroke: #000; stroke-linecap: round; stroke-linejoin: round; stroke-width: 35px;"/>
</svg>