<?xml version="1.0" encoding="UTF-8"?>
<svg id="Sticker" xmlns="http://www.w3.org/2000/svg" width="1000" height="1000" viewBox="0 0 1000 1000">
  <polygon points="913.9 604.962 921.677 601.323 922.29 597.66 923.027 593.964 917.294 590.691 922.009 586.69 917.832 583.454 917.941 579.822 916.111 576.446 918.999 572.359 912.212 569.88 914.441 565.845 911.603 562.799 911.066 559.29 912.253 555.331 915.275 550.79 908.814 548.876 910.043 544.77 912.772 540.072 910.639 536.936 903.706 535.629 908.297 530.014 902.756 528.358 899.234 525.997 898.581 522.412 900.857 517.387 897.833 514.852 894.578 512.502 896.468 507.408 888.579 507.73 894.37 500.202 886.695 500.646 890.704 493.847 882.446 494.964 881.261 491.483 884.537 484.731 875.883 486.638 873.165 484.287 870.597 481.847 872.64 475.566 869.92 473.158 868.78 469.35 866.183 466.818 860.534 467.243 862.303 460.463 854.873 462.913 851.633 461.222 851.372 456.263 847.497 455.287 844.212 453.703 846.56 445.181 840.779 446.651 836.515 446.374 836.831 439.89 831.863 440.675 831.845 434.277 826.762 435.407 824.771 431.785 822.032 429.28 815.104 434.073 813.601 429.502 810.602 427.537 806.479 427.788 803.147 426.556 802.227 420.072 798.793 418.869 793.805 421.447 791.957 416.454 789.39 412.986 785.65 412.595 782.137 411.617 779.099 409.139 774.512 411.77 771.17 410.363 767.77 409.113 763.206 412.768 759.734 412.143 756.276 411.466 754.264 402.69 749.448 409.555 746.079 406.539 748.905 402.182 741.37 399.828 744.409 395.601 747.704 391.206 739.682 389.26 741.62 385.119 737.984 382.331 739.305 378.271 734.861 375.809 742.581 369.741 737.915 367.374 736.097 364.16 732.621 361.555 736.476 356.308 729.218 355.194 730.76 350.724 726.117 348.761 727.461 344.286 728.889 339.675 721.11 339.32 720.488 335.671 722.573 330.609 720.101 327.816 719.383 324.093 716.199 321.727 717.761 316.638 712.873 315.317 710.562 312.505 712.076 307.244 703.651 308.453 702.455 304.969 706.41 297.803 700.959 297.239 696.882 295.788 696.978 291.19 691.874 290.637 695.4 283.124 687.142 285.305 686.642 281.018 682.145 280.223 686.398 271.456 678.638 273.751 677.738 269.623 673.731 268.532 671.81 265.364 672.207 259.683 664.996 262.168 666.155 255.483 660.805 256.117 659.616 251.943 657.304 249.043 656.211 244.557 652 244.018 649.623 241.108 644.216 242.366 640.24 241.783 637.436 239.559 634.583 237.395 631.284 235.922 631.609 228.58 625.815 231.162 625.109 225.201 619.684 227.438 618.69 221.71 612.016 226.642 609.748 223.254 609.636 215.263 605.693 215.023 600.727 217.175 598.922 212.266 594.195 214.149 590.919 212.645 586.821 213.295 584.167 210.132 580.413 209.971 578.968 202.9 573.33 208.593 569.669 208.372 567.087 204.41 563.789 202.786 559.766 203.967 557.344 198.607 553.656 198.379 550.365 196.291 546.509 196.969 542.876 196.605 538.506 200.918 535.311 198.099 531.378 200.439 527.887 199.654 524.45 198.216 521.161 194.695 517.38 196.76 513.836 195.848 510.164 197.427 506.785 190.457 503.055 194.346 499.438 196.8 495.78 189.455 492.23 193.349 488.615 193.199 485.147 195.772 481.522 195.19 477.779 193.495 474.46 196.635 471.065 198.403 467.384 197.646 463.49 195.646 459.597 194.123 456.823 199.423 452.629 196.422 449.798 200.682 446.786 203.62 442.967 202.816 439.979 205.552 436.607 206.611 430.903 199.312 429.818 208.538 424.506 203.333 421.124 204.645 418.864 209.213 416.66 213.626 411.837 210.788 407.099 208.512 405.807 214.956 400.114 210.664 397.447 213.639 394.855 216.667 393.625 222.428 387.445 217.909 383.892 218.929 382.543 224.129 379.994 226.917 374.287 224.096 374.485 231.593 369.114 229.581 367.494 233.779 361.577 231.213 358.396 233.012 357.498 238.129 352.474 237.268 349.851 239.854 351.735 248.378 347.435 248.59 346.091 252.601 339.158 249.741 335.167 250.633 332.058 252.618 329.843 255.618 328.384 259.402 328.326 264.582 327.096 268.416 323.505 269.837 319.303 270.73 317.916 274.351 312.954 274.667 315.446 281.697 306.579 278.735 311.356 287.467 305.814 287.506 299.276 286.916 302.145 293.706 299.669 296.307 292.679 295.679 293.766 300.895 292.174 304.164 291.557 308.056 288.933 310.617 282.85 311.078 284.026 316.029 279.217 317.412 278.876 321.4 278.383 325.253 276.828 328.508 274.042 331.141 272.527 334.431 274.664 339.422 269.525 341.019 265.881 343.388 267.123 347.859 267.216 351.783 262.781 353.934 264.805 358.545 267.346 363.229 263.949 365.82 260.391 368.433 260.152 372.122 260.639 375.992 260.796 379.728 253.307 381.491 255.667 385.805 253.623 389.038 254.899 392.999 251.224 395.945 254.381 400.197 248.446 402.853 254.619 407.463 250.509 409.268 248.624 413.171 244.202 408.445 241.855 415.958 236.91 409.542 234.525 415.739 230.866 415.861 226.221 412.364 223.831 417.416 220.127 417.618 216.391 417.828 213.933 421.844 210.707 423.441 204.744 417.945 203.415 424.478 200.015 425.688 196.084 425.752 194.64 431.172 189.842 429.519 188.926 435.583 184.288 434.455 182.16 437.964 175.752 434.143 171.934 434.954 168.493 436.437 168.877 443.642 167.55 448.006 164.518 449.854 160.795 450.805 155.719 450.124 156.256 456.534 148.881 453.303 149.541 459.613 144.895 459.826 139.664 459.58 143.476 468.737 137.804 468.115 133.032 468.571 132.956 473.464 126.666 472.74 125.984 477.013 126.416 482.088 124.995 485.543 121.556 487.425 119.192 490.163 116.738 492.851 115.885 496.637 109.872 497.026 109.089 500.871 108.392 504.708 104.807 506.84 101.487 509.203 107.314 516.416 102.992 518.216 104.489 522.91 96.065 522.971 93.494 525.863 95.948 530.861 93.679 533.861 95.804 538.512 88.504 539.767 92.041 544.794 85.684 546.621 92.786 552.483 84.452 553.948 91.26 559.402 87.668 562.22 83.376 565.004 86.663 569.334 80.494 571.938 79.036 575.448 78.075 579.058 80.066 583.01 79.779 586.665 80.787 590.412 83.817 594.224 79.366 597.645 77.115 601.264 80.204 604.962 81.455 608.567 79.866 612.231 83.818 615.657 80.204 619.495 79.368 623.222 83.758 626.42 85.59 629.797 87.244 633.148 86.881 636.791 86.502 640.473 84.432 644.539 82.147 648.761 86.494 651.491 90.41 654.197 92.613 657.268 92.699 660.931 88.194 666.115 88.833 669.761 97.143 670.633 97.604 674.235 95.904 678.752 96.492 682.419 103.102 683.406 96.425 690.457 101.06 692.265 104.206 694.707 106.316 697.642 102.765 703.771 108.315 704.773 109.239 708.445 112.143 710.894 115.803 712.789 113.785 718.546 116.596 721.033 122.165 721.408 122.108 725.981 125.916 727.554 130.937 728.012 129.358 734.063 135.756 733.14 137.736 736.102 137.486 741.268 139.248 744.596 145.233 743.552 143.285 750.88 144.155 755.396 147.516 757.15 153.396 755.791 158.642 754.952 159.919 759.08 163.069 760.813 161.882 768.658 166.257 768.773 169.485 770.488 173.645 770.693 177.669 770.979 177.68 778.091 183.648 774.884 186.961 776.253 190.88 776.395 190.584 785.145 197.487 778.928 199.406 783.329 202.041 786.319 204.572 789.749 207.772 791.624 210.987 793.525 216.363 788.982 218.751 793.318 223.927 788.501 224.842 798.595 229.233 796.253 232.286 799.158 237.036 794.417 239.924 798.275 243.535 798.65 247.124 799.116 254.49 797.793 247.517 802.368 252.829 803.418 254.379 806.927 257.98 810.609 261.582 805.405 265.184 807.577 268.788 808.453 272.391 802.348 275.993 803.619 279.595 810.161 283.196 807.854 286.796 808.884 290.396 809.826 293.996 803.7 297.596 803.019 301.195 810.252 304.795 804.508 308.394 803.705 311.994 809.726 315.594 806.657 319.195 807.456 322.796 800.977 326.398 805.631 330.001 806.289 333.605 800.891 337.209 809.69 340.812 807.126 344.414 806.092 348.015 804.044 351.616 805.144 355.217 810.008 358.817 807.678 362.418 807.647 366.018 800.876 369.619 809.892 373.221 805.549 376.823 801.757 380.425 809.808 384.029 803.309 387.633 809.849 391.237 805.356 394.84 809.128 398.442 805.426 402.044 800.8 405.645 801.175 409.246 803.593 412.848 805.318 416.45 807.032 420.052 804.16 423.655 806.931 427.259 804.746 430.863 804.989 434.467 807.033 438.07 806.04 441.673 801.364 445.275 801.589 448.877 801.382 452.479 807.668 456.082 802.294 459.685 807.343 463.289 807.711 466.894 802.256 470.498 809.012 474.101 802.101 477.704 802.895 481.307 804.644 484.909 809.484 488.512 810.631 492.116 808.477 495.721 806.311 499.326 808.481 502.93 810.205 506.533 808.238 510.136 808.857 513.739 802.015 517.343 807.38 520.948 808.481 524.553 803.388 528.157 806.835 531.76 806.179 535.364 809.479 538.968 805.522 542.573 800.919 546.178 804.829 549.782 801.495 553.386 800.677 556.985 805.903 560.584 803.278 564.183 803.842 567.782 809.346 571.384 807.371 574.987 808.646 578.593 810.406 582.197 807.033 585.799 803.966 589.4 800.822 593.001 810.065 596.602 808.551 600.205 801.238 603.811 805.385 607.417 805.457 611.02 801.362 614.623 801.182 618.225 806.029 621.829 808.52 625.436 807.645 629.041 803.39 632.645 803.699 636.249 806.244 639.854 809.781 643.462 808.769 647.067 804.602 650.672 805.082 654.278 808.948 657.885 801.749 661.491 804.3 665.097 807.45 668.705 801.507 672.311 801.93 675.919 810.064 679.525 808.746 683.133 802.866 686.74 801.096 690.349 808.671 693.952 808.345 697.56 803.514 701.163 806.539 704.771 801.847 708.377 802.99 711.986 806.911 715.593 806.628 719.202 806.526 722.813 806.024 726.423 803.923 730.033 809.565 733.643 802.125 737.253 800.899 740.864 803.479 744.48 801.259 746.169 802.572 745.167 801.971 751.409 801.35 754.768 799.837 757.89 797.329 761.918 799.142 765.959 800.6 769.547 800.006 773.6 801.007 776.022 796.372 780.956 799.952 782.254 792.385 785.535 790.988 789.643 791.764 793.382 791.417 797.538 791.95 798.896 786.043 801.247 782.666 808.505 789.431 811.305 786.799 812.678 781.594 815.14 778.62 818.133 776.652 820.855 774.253 826.502 776.508 829.007 773.679 832.415 772.23 832.545 766.132 837.065 766.265 841.785 766.493 841.878 760.74 844.169 757.894 845.939 754.481 852.942 757.037 851.767 750.365 854.901 748.502 860.618 749.21 863.139 746.575 864.81 743.141 863.163 736.75 872.644 740.368 872.687 735.567 870.509 729.098 874.458 727.703 877.301 725.371 883.709 725.599 882.954 720.567 887.238 719.091 886.225 714.057 885.208 709.172 886.343 705.723 892.21 705.03 892.117 700.854 893.705 697.651 894.492 694.048 897.15 691.385 895.847 686.848 904.29 686.713 898.758 680.438 899.911 677.108 905.49 675.448 904.497 671.274 909.216 669.104 906.832 664.551 914.267 663.036 914.477 659.276 912.517 654.991 910.749 650.861 915.777 648.313 915.405 644.527 917.979 641.314 916.639 637.395 920.416 634.282 913.356 629.691 919.456 626.783 921.987 623.351 913.367 619.048 922.119 615.984 914.05 612.022 923.531 608.658 913.9 604.962" style="fill: #fff;"/>
  <polygon points="913.9 604.962 921.677 601.323 922.29 597.66 923.027 593.964 917.294 590.691 922.009 586.69 917.832 583.454 917.941 579.822 916.111 576.446 918.999 572.359 912.212 569.88 914.441 565.845 911.603 562.799 911.066 559.29 912.253 555.331 915.275 550.79 908.814 548.876 910.043 544.77 912.772 540.072 910.639 536.936 903.706 535.629 908.297 530.014 902.756 528.358 899.234 525.997 898.581 522.412 900.857 517.387 897.833 514.852 894.578 512.502 896.468 507.408 888.579 507.73 894.37 500.202 886.695 500.646 890.704 493.847 882.446 494.964 881.261 491.483 884.537 484.731 875.883 486.638 873.165 484.287 870.597 481.847 872.64 475.566 869.92 473.158 868.78 469.35 866.183 466.818 860.534 467.243 862.303 460.463 854.873 462.913 851.633 461.222 851.372 456.263 847.497 455.287 844.212 453.703 846.56 445.181 840.779 446.651 836.515 446.374 836.831 439.89 831.863 440.675 831.845 434.277 826.762 435.407 824.771 431.785 822.032 429.28 815.104 434.073 813.601 429.502 810.602 427.537 806.479 427.788 803.147 426.556 802.227 420.072 798.793 418.869 793.805 421.447 791.957 416.454 789.39 412.986 785.65 412.595 782.137 411.617 779.099 409.139 774.512 411.77 771.17 410.363 767.77 409.113 763.206 412.768 759.734 412.143 756.276 411.466 754.264 402.69 749.448 409.555 746.079 406.539 748.905 402.182 741.37 399.828 744.409 395.601 747.704 391.206 739.682 389.26 741.62 385.119 737.984 382.331 739.305 378.271 734.861 375.809 742.581 369.741 737.915 367.374 736.097 364.16 732.621 361.555 736.476 356.308 729.218 355.194 730.76 350.724 726.117 348.761 727.461 344.286 728.889 339.675 721.11 339.32 720.488 335.671 722.573 330.609 720.101 327.816 719.383 324.093 716.199 321.727 717.761 316.638 712.873 315.317 710.562 312.505 712.076 307.244 703.651 308.453 702.455 304.969 706.41 297.803 700.959 297.239 696.882 295.788 696.978 291.19 691.874 290.637 695.4 283.124 687.142 285.305 686.642 281.018 682.145 280.223 686.398 271.456 678.638 273.751 677.738 269.623 673.731 268.532 671.81 265.364 672.207 259.683 664.996 262.168 666.155 255.483 660.805 256.117 659.616 251.943 657.304 249.043 656.211 244.557 652 244.018 649.623 241.108 644.216 242.366 640.24 241.783 637.436 239.559 634.583 237.395 631.284 235.922 631.609 228.58 625.815 231.162 625.109 225.201 619.684 227.438 618.69 221.71 612.016 226.642 609.748 223.254 609.636 215.263 605.693 215.023 600.727 217.175 598.922 212.266 594.195 214.149 590.919 212.645 586.821 213.295 584.167 210.132 580.413 209.971 578.968 202.9 573.33 208.593 569.669 208.372 567.087 204.41 563.789 202.786 559.766 203.967 557.344 198.607 553.656 198.379 550.365 196.291 546.509 196.969 542.876 196.605 538.506 200.918 535.311 198.099 531.378 200.439 527.887 199.654 524.45 198.216 521.161 194.695 517.38 196.76 513.836 195.848 510.164 197.427 506.785 190.457 503.055 194.346 499.438 196.8 495.78 189.455 492.23 193.349 488.615 193.199 485.147 195.772 481.522 195.19 477.779 193.495 474.46 196.635 471.065 198.403 467.384 197.646 463.49 195.646 459.597 194.123 456.823 199.423 452.629 196.422 449.798 200.682 446.786 203.62 442.967 202.816 439.979 205.552 436.607 206.611 430.903 199.312 429.818 208.538 424.506 203.333 421.124 204.645 418.864 209.213 416.66 213.626 411.837 210.788 407.099 208.512 405.807 214.956 400.114 210.664 397.447 213.639 394.855 216.667 393.625 222.428 387.445 217.909 383.892 218.929 382.543 224.129 379.994 226.917 374.287 224.096 374.485 231.593 369.114 229.581 367.494 233.779 361.577 231.213 358.396 233.012 357.498 238.129 352.474 237.268 349.851 239.854 351.735 248.378 347.435 248.59 346.091 252.601 339.158 249.741 335.167 250.633 332.058 252.618 329.843 255.618 328.384 259.402 328.326 264.582 327.096 268.416 323.505 269.837 319.303 270.73 317.916 274.351 312.954 274.667 315.446 281.697 306.579 278.735 311.356 287.467 305.814 287.506 299.276 286.916 302.145 293.706 299.669 296.307 292.679 295.679 293.766 300.895 292.174 304.164 291.557 308.056 288.933 310.617 282.85 311.078 284.026 316.029 279.217 317.412 278.876 321.4 278.383 325.253 276.828 328.508 274.042 331.141 272.527 334.431 274.664 339.422 269.525 341.019 265.881 343.388 267.123 347.859 267.216 351.783 262.781 353.934 264.805 358.545 267.346 363.229 263.949 365.82 260.391 368.433 260.152 372.122 260.639 375.992 260.796 379.728 253.307 381.491 255.667 385.805 253.623 389.038 254.899 392.999 251.224 395.945 254.381 400.197 248.446 402.853 254.619 407.463 250.509 409.268 248.624 413.171 244.202 408.445 241.855 415.958 236.91 409.542 234.525 415.739 230.866 415.861 226.221 412.364 223.831 417.416 220.127 417.618 216.391 417.828 213.933 421.844 210.707 423.441 204.744 417.945 203.415 424.478 200.015 425.688 196.084 425.752 194.64 431.172 189.842 429.519 188.926 435.583 184.288 434.455 182.16 437.964 175.752 434.143 171.934 434.954 168.493 436.437 168.877 443.642 167.55 448.006 164.518 449.854 160.795 450.805 155.719 450.124 156.256 456.534 148.881 453.303 149.541 459.613 144.895 459.826 139.664 459.58 143.476 468.737 137.804 468.115 133.032 468.571 132.956 473.464 126.666 472.74 125.984 477.013 126.416 482.088 124.995 485.543 121.556 487.425 119.192 490.163 116.738 492.851 115.885 496.637 109.872 497.026 109.089 500.871 108.392 504.708 104.807 506.84 101.487 509.203 107.314 516.416 102.992 518.216 104.489 522.91 96.065 522.971 93.494 525.863 95.948 530.861 93.679 533.861 95.804 538.512 88.504 539.767 92.041 544.794 85.684 546.621 92.786 552.483 84.452 553.948 91.26 559.402 87.668 562.22 83.376 565.004 86.663 569.334 80.494 571.938 79.036 575.448 78.075 579.058 80.066 583.01 79.779 586.665 80.787 590.412 83.817 594.224 79.366 597.645 77.115 601.264 80.204 604.962 81.455 608.567 79.866 612.231 83.818 615.657 80.204 619.495 79.368 623.222 83.758 626.42 85.59 629.797 87.244 633.148 86.881 636.791 86.502 640.473 84.432 644.539 82.147 648.761 86.494 651.491 90.41 654.197 92.613 657.268 92.699 660.931 88.194 666.115 88.833 669.761 97.143 670.633 97.604 674.235 95.904 678.752 96.492 682.419 103.102 683.406 96.425 690.457 101.06 692.265 104.206 694.707 106.316 697.642 102.765 703.771 108.315 704.773 109.239 708.445 112.143 710.894 115.803 712.789 113.785 718.546 116.596 721.033 122.165 721.408 122.108 725.981 125.916 727.554 130.937 728.012 129.358 734.063 135.756 733.14 137.736 736.102 137.486 741.268 139.248 744.596 145.233 743.552 143.285 750.88 144.155 755.396 147.516 757.15 153.396 755.791 158.642 754.952 159.919 759.08 163.069 760.813 161.882 768.658 166.257 768.773 169.485 770.488 173.645 770.693 177.669 770.979 177.68 778.091 183.648 774.884 186.961 776.253 190.88 776.395 190.584 785.145 197.487 778.928 199.406 783.329 202.041 786.319 204.572 789.749 207.772 791.624 210.987 793.525 216.363 788.982 218.751 793.318 223.927 788.501 224.842 798.595 229.233 796.253 232.286 799.158 237.036 794.417 239.924 798.275 243.535 798.65 247.124 799.116 254.49 797.793 247.517 802.368 252.829 803.418 254.379 806.927 257.98 810.609 261.582 805.405 265.184 807.577 268.788 808.453 272.391 802.348 275.993 803.619 279.595 810.161 283.196 807.854 286.796 808.884 290.396 809.826 293.996 803.7 297.596 803.019 301.195 810.252 304.795 804.508 308.394 803.705 311.994 809.726 315.594 806.657 319.195 807.456 322.796 800.977 326.398 805.631 330.001 806.289 333.605 800.891 337.209 809.69 340.812 807.126 344.414 806.092 348.015 804.044 351.616 805.144 355.217 810.008 358.817 807.678 362.418 807.647 366.018 800.876 369.619 809.892 373.221 805.549 376.823 801.757 380.425 809.808 384.029 803.309 387.633 809.849 391.237 805.356 394.84 809.128 398.442 805.426 402.044 800.8 405.645 801.175 409.246 803.593 412.848 805.318 416.45 807.032 420.052 804.16 423.655 806.931 427.259 804.746 430.863 804.989 434.467 807.033 438.07 806.04 441.673 801.364 445.275 801.589 448.877 801.382 452.479 807.668 456.082 802.294 459.685 807.343 463.289 807.711 466.894 802.256 470.498 809.012 474.101 802.101 477.704 802.895 481.307 804.644 484.909 809.484 488.512 810.631 492.116 808.477 495.721 806.311 499.326 808.481 502.93 810.205 506.533 808.238 510.136 808.857 513.739 802.015 517.343 807.38 520.948 808.481 524.553 803.388 528.157 806.835 531.76 806.179 535.364 809.479 538.968 805.522 542.573 800.919 546.178 804.829 549.782 801.495 553.386 800.677 556.985 805.903 560.584 803.278 564.183 803.842 567.782 809.346 571.384 807.371 574.987 808.646 578.593 810.406 582.197 807.033 585.799 803.966 589.4 800.822 593.001 810.065 596.602 808.551 600.205 801.238 603.811 805.385 607.417 805.457 611.02 801.362 614.623 801.182 618.225 806.029 621.829 808.52 625.436 807.645 629.041 803.39 632.645 803.699 636.249 806.244 639.854 809.781 643.462 808.769 647.067 804.602 650.672 805.082 654.278 808.948 657.885 801.749 661.491 804.3 665.097 807.45 668.705 801.507 672.311 801.93 675.919 810.064 679.525 808.746 683.133 802.866 686.74 801.096 690.349 808.671 693.952 808.345 697.56 803.514 701.163 806.539 704.771 801.847 708.377 802.99 711.986 806.911 715.593 806.628 719.202 806.526 722.813 806.024 726.423 803.923 730.033 809.565 733.643 802.125 737.253 800.899 740.864 803.479 744.48 801.259 746.169 802.572 745.167 801.971 751.409 801.35 754.768 799.837 757.89 797.329 761.918 799.142 765.959 800.6 769.547 800.006 773.6 801.007 776.022 796.372 780.956 799.952 782.254 792.385 785.535 790.988 789.643 791.764 793.382 791.417 797.538 791.95 798.896 786.043 801.247 782.666 808.505 789.431 811.305 786.799 812.678 781.594 815.14 778.62 818.133 776.652 820.855 774.253 826.502 776.508 829.007 773.679 832.415 772.23 832.545 766.132 837.065 766.265 841.785 766.493 841.878 760.74 844.169 757.894 845.939 754.481 852.942 757.037 851.767 750.365 854.901 748.502 860.618 749.21 863.139 746.575 864.81 743.141 863.163 736.75 872.644 740.368 872.687 735.567 870.509 729.098 874.458 727.703 877.301 725.371 883.709 725.599 882.954 720.567 887.238 719.091 886.225 714.057 885.208 709.172 886.343 705.723 892.21 705.03 892.117 700.854 893.705 697.651 894.492 694.048 897.15 691.385 895.847 686.848 904.29 686.713 898.758 680.438 899.911 677.108 905.49 675.448 904.497 671.274 909.216 669.104 906.832 664.551 914.267 663.036 914.477 659.276 912.517 654.991 910.749 650.861 915.777 648.313 915.405 644.527 917.979 641.314 916.639 637.395 920.416 634.282 913.356 629.691 919.456 626.783 921.987 623.351 913.367 619.048 922.119 615.984 914.05 612.022 923.531 608.658 913.9 604.962" style="fill: none; stroke: #000; stroke-linecap: round; stroke-linejoin: round; stroke-width: 35px;"/>
</svg>