<?xml version="1.0" encoding="UTF-8"?>
<svg id="Sticker" xmlns="http://www.w3.org/2000/svg" width="1000" height="1000" viewBox="0 0 1000 1000">
  <g>
    <polygon points="500 751.635 503.628 753.707 507.119 746.601 510.78 750.085 514.392 750.475 518.2 754.719 521.33 745.81 525.479 754.423 528.721 749.121 532.33 749.135 535.502 744.602 539.98 753.027 543.57 752.37 546.931 749.953 549.899 744.952 553.737 746.486 557.21 745.431 560.771 744.963 564.205 743.761 568.302 746.161 571.574 744.073 574.275 739.379 579.104 744.8 582.093 741.616 586.607 745.018 590.035 743.717 592.332 738.101 594.719 733.185 598.765 734.464 603.515 737.99 605.222 731.146 610.798 737.034 614.254 735.928 617.063 732.892 621.402 734.388 623.15 728.478 628.429 732.419 628.836 723.243 634.795 728.7 635.974 721.916 642.011 727.147 643.905 722.301 646.373 718.949 650.954 720.393 654.321 719.058 656.378 714.95 661.211 716.681 664.854 715.863 666.924 711.923 670.953 711.839 671.048 704.336 673.794 701.934 676.473 699.446 681.159 700.487 686.065 701.777 686.081 694.788 688.764 692.367 696.406 697.87 697.861 693.411 697.851 686.824 703.129 688.329 709.032 690.602 711.999 688.493 710.716 680.423 712.956 677.437 717.705 677.866 722.41 678.133 721.849 671.494 724.336 668.895 727.037 666.577 731.546 666.462 735.979 666.171 735.791 660.398 740.666 660.565 743.039 657.82 748.9 658.935 751.477 656.363 752.829 652.496 754.456 648.968 753.556 642.902 757.908 642.226 763.694 642.883 766.351 640.409 763.855 633.069 769.162 633.127 773.361 632.076 772.101 626.109 774.835 623.752 779.927 623.397 782.061 620.47 785.582 618.688 784.246 612.956 788.477 611.733 790.382 608.647 793.071 606.165 793.546 602.022 797.844 600.713 795.188 594.381 801.323 594.326 800.734 589.556 804.417 587.72 805.23 583.956 806.114 580.269 806.568 576.342 808.733 573.504 815.58 573.47 811.848 567.089 821.383 568.473 816.529 561.58 820.79 559.855 820.425 555.587 825.47 554.201 822.14 548.455 824.367 545.6 829.72 544.248 831.831 541.268 833.953 538.279 833.894 534.295 839.776 532.949 833.541 526.335 840.203 525.245 844.036 522.893 840.596 517.636 846.115 515.894 846.645 512.216 843.739 507.324 841.661 502.81 845.54 500.369 845.661 496.647 845.58 492.882 852.633 491.304 852.315 487.443 852.297 483.694 851.526 479.763 854.704 476.896 852.092 472.535 851.333 468.69 861.369 467.349 861.35 463.619 854.679 458.521 862.911 456.524 858.505 452.002 863.687 449.285 862.129 445.347 861.278 441.564 865.387 438.538 862.172 434.437 861.26 430.703 864.965 427.537 862.426 423.636 865.902 420.378 869.564 417.075 860.244 412.699 869.205 409.75 868.635 406.077 868.095 402.421 870.419 398.89 862.641 395.024 867.271 391.549 866.138 387.931 866.521 382.803 862.405 386.591 858.8 385.793 855.195 388.449 851.59 386.101 847.985 385.666 844.381 388.704 840.782 385.266 837.182 382.911 833.581 381.818 829.981 379.966 826.38 386.904 822.778 385.035 819.175 386.61 815.572 387.18 811.969 388.396 808.364 381.438 804.759 383.452 801.153 380.168 797.547 384.845 793.942 382.809 790.338 386.821 786.734 380.325 783.131 387.642 779.529 389.134 775.927 388.69 772.325 385.538 768.724 387.43 765.123 381.728 761.523 382.468 757.922 384.733 754.322 386.61 750.722 386.311 747.121 379.788 743.521 381.113 739.921 389.221 736.32 388.674 732.719 380.422 729.118 388.149 725.517 380.986 721.915 379.515 718.313 380.665 714.71 387.393 711.106 387.352 707.502 379.987 703.897 380.485 700.291 382.16 696.685 382.328 693.078 384.54 689.473 384.753 685.868 386.163 682.263 385.939 678.659 382.601 675.056 388.869 671.453 381.143 667.851 383.101 664.249 385.678 660.647 384.096 657.045 382.567 653.443 381.744 649.841 381.423 646.239 382.915 642.636 387.46 639.034 382.972 635.431 381.236 631.827 379.706 628.223 383.422 624.618 381.096 621.013 382.968 617.406 387.08 613.799 382.902 610.192 386.342 606.586 385.284 602.981 383.163 599.376 381.791 595.772 388.044 592.168 385.243 588.564 380.155 584.961 386.387 581.358 381.14 577.755 385.671 574.151 379.465 570.548 387.806 566.944 383.78 563.339 383.876 559.734 383.746 556.128 387.901 552.522 388.861 548.914 388.278 545.306 381.132 541.7 385.735 538.094 387.3 534.489 384.504 530.884 381.998 527.28 388.698 523.675 385.855 520.071 387.527 516.467 383.554 512.862 387.302 509.257 387.317 505.651 381.399 502.045 382.575 498.438 387.742 494.829 385.866 491.222 383.14 487.615 381.598 484.009 381.26 480.404 385.427 476.799 382.357 473.194 388.883 469.588 384.403 465.983 383.819 462.377 383.145 458.77 387.454 455.163 389.21 451.554 380.521 447.946 379.831 444.34 383.546 440.733 387.406 437.127 380.862 433.522 383.136 429.916 379.741 426.309 387.67 422.702 384.451 419.095 388.307 415.486 383.139 411.878 380.02 408.271 380.655 404.664 381.778 401.058 383.854 397.452 386.398 393.845 388.943 390.237 387.942 386.628 384.157 383.02 381.507 379.413 386.906 375.806 382.567 372.199 383.571 368.592 382.96 364.984 383.762 361.375 384.449 357.766 380.244 354.159 384.817 350.552 382.164 346.944 381.838 343.336 383.899 339.727 383.551 336.119 386.124 332.511 385.223 328.903 380.674 325.3 380.532 321.698 387.856 318.095 383.02 314.492 385.18 310.887 380.066 307.28 381.363 303.67 381.731 300.062 380.069 296.456 387.066 292.851 385.574 289.247 387.147 285.642 388.441 282.035 383.419 278.426 384.843 274.816 388.139 271.209 379.385 267.603 387.102 263.996 379.62 260.389 379.614 256.778 381.994 253.169 383.114 249.561 385.121 245.954 386.197 242.345 388.13 238.733 380.294 235.124 380.788 231.516 383.187 227.906 389.289 224.295 383.068 220.686 388.366 217.075 386.374 213.464 387.847 209.854 382.212 206.243 381.407 202.632 387.257 199.021 388.018 195.41 383.675 191.798 384.016 188.19 385.238 184.579 386.836 180.971 379.533 177.36 381.633 173.75 383.351 170.137 380.461 166.526 380.133 162.914 381.698 159.3 389.09 155.685 386.135 152.071 381.49 148.458 386.979 144.844 386.89 141.23 385.092 137.609 387.009 132.434 379.641 133.516 387.934 136.465 391.478 137.377 395.024 137.043 398.603 135.279 402.261 129.716 406.176 139.556 409.159 133.604 413.18 132.24 416.923 139.469 419.862 133.217 424.11 138.043 427.192 134.354 431.269 137.202 434.532 141.844 437.484 140.289 441.327 135.586 445.739 143.039 448.102 137.181 452.823 139.315 456.096 143.962 458.817 146.368 461.946 146.168 465.638 143.703 469.892 140.149 474.487 144.078 477.228 148.008 479.904 148.061 483.609 147.899 487.396 151.641 490.025 155.163 492.665 151.749 497.503 153.757 500.621 150.565 505.522 158.209 506.642 153.75 512.086 155.992 515.109 160.101 517.38 158.145 522.032 160.468 524.985 167.493 525.912 164.973 530.888 163.259 535.595 171.322 535.863 173.199 538.905 170.964 543.936 170.884 547.987 169.529 552.73 173.538 554.743 180.043 555.359 174.924 562.228 181.445 562.74 178.583 568.517 185.577 568.626 186.618 572.174 187.656 575.746 185.664 581.243 194.16 580.119 194.071 584.44 193.356 589.238 198.521 590.092 200.064 593.385 200.256 597.656 204.623 598.946 202.218 605.197 208.299 605.155 210.663 607.867 214.362 609.521 216.088 612.717 216.601 616.926 216.807 621.45 218.287 624.955 221.536 626.948 224.285 629.355 232.156 627.106 234.844 629.455 236.221 633.03 237.584 636.658 239.34 639.943 240.535 643.817 243.735 645.699 244.221 650.379 251.04 648.429 254.734 649.683 253.054 656.817 255.518 659.479 258.097 662.02 260.791 664.434 262.857 667.598 270.727 663.732 272.907 666.683 276.191 668.264 276.418 673.772 279.118 676.155 279.337 681.886 285.663 679.374 289.933 679.551 290.312 685.222 295.97 683.326 299.097 685.044 299.237 691.307 303.592 691.187 305.972 694.123 307.875 697.881 309.413 702.331 313.861 701.944 318.516 701.095 319.475 706.709 324.123 705.776 325.712 710.427 329.782 710.476 334.135 709.891 336.874 712.436 340.142 713.941 341.545 719.377 347.458 715.249 348.477 721.701 352.256 722.122 357.446 719.176 360.449 721.259 364.289 721.306 367.448 723.016 371.396 722.676 372.037 731.2 375.259 732.969 380.165 729.915 382.992 732.774 387.599 730.27 389.881 734.922 393.456 735.561 396.352 738.497 401.173 734.737 402.818 742.334 406.338 743.269 410.24 742.67 415.427 736.574 419.096 736.479 420.905 744.819 425.39 741.045 429.516 738.621 431.235 748.688 435.749 744.077 438.582 748.885 441.981 750.64 445.582 751.174 449.476 749.582 453.746 744.693 456.64 750.644 460.767 746.123 464.09 748.859 467.789 747.841 471.021 752.495 474.776 750.714 478.203 753.909 481.995 750.731 485.624 750.083 489.307 747.103 492.736 754.144 496.382 752.713 500 751.635" style="fill: #fff;"/>
    <polygon points="500 751.635 503.628 753.707 507.119 746.601 510.78 750.085 514.392 750.475 518.2 754.719 521.33 745.81 525.479 754.423 528.721 749.121 532.33 749.135 535.502 744.602 539.98 753.027 543.57 752.37 546.931 749.953 549.899 744.952 553.737 746.486 557.21 745.431 560.771 744.963 564.205 743.761 568.302 746.161 571.574 744.073 574.275 739.379 579.104 744.8 582.093 741.616 586.607 745.018 590.035 743.717 592.332 738.101 594.719 733.185 598.765 734.464 603.515 737.99 605.222 731.146 610.798 737.034 614.254 735.928 617.063 732.892 621.402 734.388 623.15 728.478 628.429 732.419 628.836 723.243 634.795 728.7 635.974 721.916 642.011 727.147 643.905 722.301 646.373 718.949 650.954 720.393 654.321 719.058 656.378 714.95 661.211 716.681 664.854 715.863 666.924 711.923 670.953 711.839 671.048 704.336 673.794 701.934 676.473 699.446 681.159 700.487 686.065 701.777 686.081 694.788 688.764 692.367 696.406 697.87 697.861 693.411 697.851 686.824 703.129 688.329 709.032 690.602 711.999 688.493 710.716 680.423 712.956 677.437 717.705 677.866 722.41 678.133 721.849 671.494 724.336 668.895 727.037 666.577 731.546 666.462 735.979 666.171 735.791 660.398 740.666 660.565 743.039 657.82 748.9 658.935 751.477 656.363 752.829 652.496 754.456 648.968 753.556 642.902 757.908 642.226 763.694 642.883 766.351 640.409 763.855 633.069 769.162 633.127 773.361 632.076 772.101 626.109 774.835 623.752 779.927 623.397 782.061 620.47 785.582 618.688 784.246 612.956 788.477 611.733 790.382 608.647 793.071 606.165 793.546 602.022 797.844 600.713 795.188 594.381 801.323 594.326 800.734 589.556 804.417 587.72 805.23 583.956 806.114 580.269 806.568 576.342 808.733 573.504 815.58 573.47 811.848 567.089 821.383 568.473 816.529 561.58 820.79 559.855 820.425 555.587 825.47 554.201 822.14 548.455 824.367 545.6 829.72 544.248 831.831 541.268 833.953 538.279 833.894 534.295 839.776 532.949 833.541 526.335 840.203 525.245 844.036 522.893 840.596 517.636 846.115 515.894 846.645 512.216 843.739 507.324 841.661 502.81 845.54 500.369 845.661 496.647 845.58 492.882 852.633 491.304 852.315 487.443 852.297 483.694 851.526 479.763 854.704 476.896 852.092 472.535 851.333 468.69 861.369 467.349 861.35 463.619 854.679 458.521 862.911 456.524 858.505 452.002 863.687 449.285 862.129 445.347 861.278 441.564 865.387 438.538 862.172 434.437 861.26 430.703 864.965 427.537 862.426 423.636 865.902 420.378 869.564 417.075 860.244 412.699 869.205 409.75 868.635 406.077 868.095 402.421 870.419 398.89 862.641 395.024 867.271 391.549 866.138 387.931 866.521 382.803 862.405 386.591 858.8 385.793 855.195 388.449 851.59 386.101 847.985 385.666 844.381 388.704 840.782 385.266 837.182 382.911 833.581 381.818 829.981 379.966 826.38 386.904 822.778 385.035 819.175 386.61 815.572 387.18 811.969 388.396 808.364 381.438 804.759 383.452 801.153 380.168 797.547 384.845 793.942 382.809 790.338 386.821 786.734 380.325 783.131 387.642 779.529 389.134 775.927 388.69 772.325 385.538 768.724 387.43 765.123 381.728 761.523 382.468 757.922 384.733 754.322 386.61 750.722 386.311 747.121 379.788 743.521 381.113 739.921 389.221 736.32 388.674 732.719 380.422 729.118 388.149 725.517 380.986 721.915 379.515 718.313 380.665 714.71 387.393 711.106 387.352 707.502 379.987 703.897 380.485 700.291 382.16 696.685 382.328 693.078 384.54 689.473 384.753 685.868 386.163 682.263 385.939 678.659 382.601 675.056 388.869 671.453 381.143 667.851 383.101 664.249 385.678 660.647 384.096 657.045 382.567 653.443 381.744 649.841 381.423 646.239 382.915 642.636 387.46 639.034 382.972 635.431 381.236 631.827 379.706 628.223 383.422 624.618 381.096 621.013 382.968 617.406 387.08 613.799 382.902 610.192 386.342 606.586 385.284 602.981 383.163 599.376 381.791 595.772 388.044 592.168 385.243 588.564 380.155 584.961 386.387 581.358 381.14 577.755 385.671 574.151 379.465 570.548 387.806 566.944 383.78 563.339 383.876 559.734 383.746 556.128 387.901 552.522 388.861 548.914 388.278 545.306 381.132 541.7 385.735 538.094 387.3 534.489 384.504 530.884 381.998 527.28 388.698 523.675 385.855 520.071 387.527 516.467 383.554 512.862 387.302 509.257 387.317 505.651 381.399 502.045 382.575 498.438 387.742 494.829 385.866 491.222 383.14 487.615 381.598 484.009 381.26 480.404 385.427 476.799 382.357 473.194 388.883 469.588 384.403 465.983 383.819 462.377 383.145 458.77 387.454 455.163 389.21 451.554 380.521 447.946 379.831 444.34 383.546 440.733 387.406 437.127 380.862 433.522 383.136 429.916 379.741 426.309 387.67 422.702 384.451 419.095 388.307 415.486 383.139 411.878 380.02 408.271 380.655 404.664 381.778 401.058 383.854 397.452 386.398 393.845 388.943 390.237 387.942 386.628 384.157 383.02 381.507 379.413 386.906 375.806 382.567 372.199 383.571 368.592 382.96 364.984 383.762 361.375 384.449 357.766 380.244 354.159 384.817 350.552 382.164 346.944 381.838 343.336 383.899 339.727 383.551 336.119 386.124 332.511 385.223 328.903 380.674 325.3 380.532 321.698 387.856 318.095 383.02 314.492 385.18 310.887 380.066 307.28 381.363 303.67 381.731 300.062 380.069 296.456 387.066 292.851 385.574 289.247 387.147 285.642 388.441 282.035 383.419 278.426 384.843 274.816 388.139 271.209 379.385 267.603 387.102 263.996 379.62 260.389 379.614 256.778 381.994 253.169 383.114 249.561 385.121 245.954 386.197 242.345 388.13 238.733 380.294 235.124 380.788 231.516 383.187 227.906 389.289 224.295 383.068 220.686 388.366 217.075 386.374 213.464 387.847 209.854 382.212 206.243 381.407 202.632 387.257 199.021 388.018 195.41 383.675 191.798 384.016 188.19 385.238 184.579 386.836 180.971 379.533 177.36 381.633 173.75 383.351 170.137 380.461 166.526 380.133 162.914 381.698 159.3 389.09 155.685 386.135 152.071 381.49 148.458 386.979 144.844 386.89 141.23 385.092 137.609 387.009 132.434 379.641 133.516 387.934 136.465 391.478 137.377 395.024 137.043 398.603 135.279 402.261 129.716 406.176 139.556 409.159 133.604 413.18 132.24 416.923 139.469 419.862 133.217 424.11 138.043 427.192 134.354 431.269 137.202 434.532 141.844 437.484 140.289 441.327 135.586 445.739 143.039 448.102 137.181 452.823 139.315 456.096 143.962 458.817 146.368 461.946 146.168 465.638 143.703 469.892 140.149 474.487 144.078 477.228 148.008 479.904 148.061 483.609 147.899 487.396 151.641 490.025 155.163 492.665 151.749 497.503 153.757 500.621 150.565 505.522 158.209 506.642 153.75 512.086 155.992 515.109 160.101 517.38 158.145 522.032 160.468 524.985 167.493 525.912 164.973 530.888 163.259 535.595 171.322 535.863 173.199 538.905 170.964 543.936 170.884 547.987 169.529 552.73 173.538 554.743 180.043 555.359 174.924 562.228 181.445 562.74 178.583 568.517 185.577 568.626 186.618 572.174 187.656 575.746 185.664 581.243 194.16 580.119 194.071 584.44 193.356 589.238 198.521 590.092 200.064 593.385 200.256 597.656 204.623 598.946 202.218 605.197 208.299 605.155 210.663 607.867 214.362 609.521 216.088 612.717 216.601 616.926 216.807 621.45 218.287 624.955 221.536 626.948 224.285 629.355 232.156 627.106 234.844 629.455 236.221 633.03 237.584 636.658 239.34 639.943 240.535 643.817 243.735 645.699 244.221 650.379 251.04 648.429 254.734 649.683 253.054 656.817 255.518 659.479 258.097 662.02 260.791 664.434 262.857 667.598 270.727 663.732 272.907 666.683 276.191 668.264 276.418 673.772 279.118 676.155 279.337 681.886 285.663 679.374 289.933 679.551 290.312 685.222 295.97 683.326 299.097 685.044 299.237 691.307 303.592 691.187 305.972 694.123 307.875 697.881 309.413 702.331 313.861 701.944 318.516 701.095 319.475 706.709 324.123 705.776 325.712 710.427 329.782 710.476 334.135 709.891 336.874 712.436 340.142 713.941 341.545 719.377 347.458 715.249 348.477 721.701 352.256 722.122 357.446 719.176 360.449 721.259 364.289 721.306 367.448 723.016 371.396 722.676 372.037 731.2 375.259 732.969 380.165 729.915 382.992 732.774 387.599 730.27 389.881 734.922 393.456 735.561 396.352 738.497 401.173 734.737 402.818 742.334 406.338 743.269 410.24 742.67 415.427 736.574 419.096 736.479 420.905 744.819 425.39 741.045 429.516 738.621 431.235 748.688 435.749 744.077 438.582 748.885 441.981 750.64 445.582 751.174 449.476 749.582 453.746 744.693 456.64 750.644 460.767 746.123 464.09 748.859 467.789 747.841 471.021 752.495 474.776 750.714 478.203 753.909 481.995 750.731 485.624 750.083 489.307 747.103 492.736 754.144 496.382 752.713 500 751.635" style="fill: none; stroke: #000; stroke-linecap: round; stroke-linejoin: round; stroke-width: 35px;"/>
  </g>
  <g>
    <polygon points="500 606.811 503.659 608.869 507.067 601.721 510.788 605.13 514.415 605.416 518.403 609.516 521.137 600.474 525.748 608.854 528.682 603.358 532.288 603.12 535.085 598.355 540.283 606.359 543.837 605.355 546.965 602.598 549.363 597.295 553.355 598.359 556.667 596.867 560.132 595.917 563.355 594.232 567.78 595.973 570.688 593.38 572.55 588.299 578.267 592.775 580.63 589.084 585.742 591.536 588.876 589.551 589.962 583.569 591.205 578.258 595.415 578.601 600.863 580.915 600.863 573.862 607.737 578.168 610.82 576.189 612.744 572.502 617.351 572.739 617.383 566.564 623.594 568.798 621.268 559.908 628.61 563.288 627.622 556.468 635.026 559.484 635.251 554.265 636.459 550.276 641.265 550.055 643.968 547.609 644.429 543.027 649.572 542.861 652.671 540.717 653.105 536.265 656.802 534.606 653.928 527.673 655.458 524.388 656.862 521.045 661.542 520.053 666.535 519.131 663.525 512.826 664.853 509.499 674.149 511.002 673.431 506.348 670.376 500.52 675.735 499.387 682.018 498.552 683.614 495.232 678.54 488.82 678.984 485.135 683.294 483.116 687.474 480.921 683.543 475.541 684.278 472.044 685.314 468.666 689.038 466.143 692.587 463.462 689.224 458.767 693.347 456.169 693.736 452.556 699.173 450.067 699.776 446.432 698.593 442.479 697.796 438.657 693.418 434.369 696.452 431.194 701.414 428.132 701.953 424.508 695.395 420.37 699.528 417.047 702.073 413.528 697.247 409.79 698.812 407.67 695.709 404.128 692.122 404.389 688.535 402.817 684.947 407.471 681.36 404.926 677.773 405.324 674.185 404.699 670.596 406.806 667.007 404.119 663.417 409.974 659.826 404.993 656.235 408.188 652.646 406.167 649.057 407.568 645.469 408.832 641.881 410.553 638.293 410.21 634.705 404.376 631.117 410.843 627.528 401.902 623.938 409.526 620.348 406.637 616.757 408.991 613.166 405.18 609.576 410.777 605.987 410.075 602.399 405.867 598.81 405.253 595.221 404.598 591.632 406.304 588.042 401.474 584.452 409.821 580.86 404.102 577.269 401.445 573.68 406.583 570.09 402.062 566.501 402.856 562.912 407.258 559.322 410.717 555.732 407.835 552.14 408.886 548.549 410.109 544.959 403.833 541.369 405.239 537.779 406.29 534.189 408.079 530.599 405.744 527.007 409.353 523.416 411.003 519.825 401.537 516.235 402.368 512.645 409.956 509.054 402.286 505.463 407.468 501.871 402.858 498.28 405.062 494.69 406.507 491.104 402.9 487.519 406.66 483.933 408.053 480.347 404.76 476.759 407.717 473.17 404.591 469.577 401.248 465.986 410.896 462.397 402.173 458.81 402.972 455.222 403.706 451.634 401.538 448.045 409.442 444.453 404.897 440.86 406.081 437.27 404.612 433.681 408.482 430.092 407.685 426.502 410.341 422.909 407.993 419.316 407.558 415.726 410.596 412.135 407.158 408.544 404.802 404.949 403.709 401.357 401.858 397.766 408.796 394.173 406.927 390.58 408.501 386.987 409.072 383.395 410.288 379.8 403.33 376.208 405.343 372.613 402.059 369.02 406.737 365.426 404.701 361.832 408.713 358.237 402.217 354.647 409.534 351.053 411.026 347.462 410.581 343.868 407.43 340.276 409.321 336.68 403.62 333.086 404.36 329.491 406.625 325.894 408.502 322.297 408.202 318.7 401.68 315.104 403.005 311.507 411.113 307.91 410.566 304.307 402.314 301.911 409.845 297.388 409.885 296.015 413.595 297.327 417.215 304.266 420.395 304.509 423.932 297.534 428.247 298.454 431.838 300.602 435.235 301.32 438.804 304.113 441.992 304.996 445.482 307.11 448.695 307.687 452.223 305.314 456.521 312.291 458.355 305.855 463.933 308.794 466.838 312.361 469.457 312.042 473.366 311.855 477.289 312.406 480.978 313.491 484.476 316.3 487.228 321.918 488.618 319.399 493.779 319.464 497.811 319.799 501.771 324.805 503.205 324.574 507.516 328.038 509.698 333.419 510.597 331.836 515.871 336.691 516.954 337.855 520.493 338.237 524.655 339.312 528.385 346.452 527.389 346.5 531.916 344.92 537.961 351.999 536.617 350.506 542.808 356.286 542.367 354.34 549.289 362.792 545.944 362.567 551.322 365.274 553.709 367.872 556.217 373.292 555.413 376.614 556.936 378.992 559.599 377.451 567.447 383.102 565.923 386.905 566.731 388.249 571.063 389.871 575.154 396.499 571.443 398.029 575.722 401.941 576.091 403.094 581.311 408.028 579.724 411.18 581.346 411.768 588.247 415.562 588.744 420.957 585.515 423.478 588.643 425.773 592.528 428.603 595.28 431.913 596.857 436.696 594.106 439.171 598.144 444.502 592.954 446.686 598.24 450.016 599.735 453.361 601.258 457.812 597.856 461.623 596.861 463.52 606.069 467.024 607.371 471.192 604.252 475.255 600.906 478.074 607.823 481.92 605.917 485.287 609.593 489.384 601.904 492.806 605.279 496.471 601.519 500 606.811"/>
    <polygon points="500 606.811 503.659 608.869 507.067 601.721 510.788 605.13 514.415 605.416 518.403 609.516 521.137 600.474 525.748 608.854 528.682 603.358 532.288 603.12 535.085 598.355 540.283 606.359 543.837 605.355 546.965 602.598 549.363 597.295 553.355 598.359 556.667 596.867 560.132 595.917 563.355 594.232 567.78 595.973 570.688 593.38 572.55 588.299 578.267 592.775 580.63 589.084 585.742 591.536 588.876 589.551 589.962 583.569 591.205 578.258 595.415 578.601 600.863 580.915 600.863 573.862 607.737 578.168 610.82 576.189 612.744 572.502 617.351 572.739 617.383 566.564 623.594 568.798 621.268 559.908 628.61 563.288 627.622 556.468 635.026 559.484 635.251 554.265 636.459 550.276 641.265 550.055 643.968 547.609 644.429 543.027 649.572 542.861 652.671 540.717 653.105 536.265 656.802 534.606 653.928 527.673 655.458 524.388 656.862 521.045 661.542 520.053 666.535 519.131 663.525 512.826 664.853 509.499 674.149 511.002 673.431 506.348 670.376 500.52 675.735 499.387 682.018 498.552 683.614 495.232 678.54 488.82 678.984 485.135 683.294 483.116 687.474 480.921 683.543 475.541 684.278 472.044 685.314 468.666 689.038 466.143 692.587 463.462 689.224 458.767 693.347 456.169 693.736 452.556 699.173 450.067 699.776 446.432 698.593 442.479 697.796 438.657 693.418 434.369 696.452 431.194 701.414 428.132 701.953 424.508 695.395 420.37 699.528 417.047 702.073 413.528 697.247 409.79 698.812 407.67 695.709 404.128 692.122 404.389 688.535 402.817 684.947 407.471 681.36 404.926 677.773 405.324 674.185 404.699 670.596 406.806 667.007 404.119 663.417 409.974 659.826 404.993 656.235 408.188 652.646 406.167 649.057 407.568 645.469 408.832 641.881 410.553 638.293 410.21 634.705 404.376 631.117 410.843 627.528 401.902 623.938 409.526 620.348 406.637 616.757 408.991 613.166 405.18 609.576 410.777 605.987 410.075 602.399 405.867 598.81 405.253 595.221 404.598 591.632 406.304 588.042 401.474 584.452 409.821 580.86 404.102 577.269 401.445 573.68 406.583 570.09 402.062 566.501 402.856 562.912 407.258 559.322 410.717 555.732 407.835 552.14 408.886 548.549 410.109 544.959 403.833 541.369 405.239 537.779 406.29 534.189 408.079 530.599 405.744 527.007 409.353 523.416 411.003 519.825 401.537 516.235 402.368 512.645 409.956 509.054 402.286 505.463 407.468 501.871 402.858 498.28 405.062 494.69 406.507 491.104 402.9 487.519 406.66 483.933 408.053 480.347 404.76 476.759 407.717 473.17 404.591 469.577 401.248 465.986 410.896 462.397 402.173 458.81 402.972 455.222 403.706 451.634 401.538 448.045 409.442 444.453 404.897 440.86 406.081 437.27 404.612 433.681 408.482 430.092 407.685 426.502 410.341 422.909 407.993 419.316 407.558 415.726 410.596 412.135 407.158 408.544 404.802 404.949 403.709 401.357 401.858 397.766 408.796 394.173 406.927 390.58 408.501 386.987 409.072 383.395 410.288 379.8 403.33 376.208 405.343 372.613 402.059 369.02 406.737 365.426 404.701 361.832 408.713 358.237 402.217 354.647 409.534 351.053 411.026 347.462 410.581 343.868 407.43 340.276 409.321 336.68 403.62 333.086 404.36 329.491 406.625 325.894 408.502 322.297 408.202 318.7 401.68 315.104 403.005 311.507 411.113 307.91 410.566 304.307 402.314 301.911 409.845 297.388 409.885 296.015 413.595 297.327 417.215 304.266 420.395 304.509 423.932 297.534 428.247 298.454 431.838 300.602 435.235 301.32 438.804 304.113 441.992 304.996 445.482 307.11 448.695 307.687 452.223 305.314 456.521 312.291 458.355 305.855 463.933 308.794 466.838 312.361 469.457 312.042 473.366 311.855 477.289 312.406 480.978 313.491 484.476 316.3 487.228 321.918 488.618 319.399 493.779 319.464 497.811 319.799 501.771 324.805 503.205 324.574 507.516 328.038 509.698 333.419 510.597 331.836 515.871 336.691 516.954 337.855 520.493 338.237 524.655 339.312 528.385 346.452 527.389 346.5 531.916 344.92 537.961 351.999 536.617 350.506 542.808 356.286 542.367 354.34 549.289 362.792 545.944 362.567 551.322 365.274 553.709 367.872 556.217 373.292 555.413 376.614 556.936 378.992 559.599 377.451 567.447 383.102 565.923 386.905 566.731 388.249 571.063 389.871 575.154 396.499 571.443 398.029 575.722 401.941 576.091 403.094 581.311 408.028 579.724 411.18 581.346 411.768 588.247 415.562 588.744 420.957 585.515 423.478 588.643 425.773 592.528 428.603 595.28 431.913 596.857 436.696 594.106 439.171 598.144 444.502 592.954 446.686 598.24 450.016 599.735 453.361 601.258 457.812 597.856 461.623 596.861 463.52 606.069 467.024 607.371 471.192 604.252 475.255 600.906 478.074 607.823 481.92 605.917 485.287 609.593 489.384 601.904 492.806 605.279 496.471 601.519 500 606.811" style="fill: none; stroke: #000; stroke-linecap: round; stroke-linejoin: round; stroke-width: 35px;"/>
  </g>
</svg>