<?xml version="1.0" encoding="UTF-8"?>
<svg id="SM_Icons" data-name="SM Icons" xmlns="http://www.w3.org/2000/svg" width="1000" height="1000" viewBox="0 0 1000 1000">
  <polygon points="500 117.126 505.741 127.631 510.256 138.967 518.982 147.872 524.14 158.838 530.838 168.917 536.357 179.681 544.203 189.101 549.708 199.868 552.433 212.239 558.533 222.662 566.308 232.12 574.416 241.389 578.619 252.913 586.419 262.356 590.767 273.792 598.16 283.47 600.625 295.997 607.754 305.833 616.211 314.897 618.994 327.237 627.944 336.019 634.226 346.345 641.011 356.378 646.331 367.253 650.921 378.552 658.38 388.2 663.14 399.402 669.121 409.897 676.039 419.854 681.399 430.712 685.399 442.352 692.271 452.335 699.764 461.962 705.287 472.724 709.891 484.018 718.576 492.955 722.866 504.43 727.996 515.422 733.784 526.032 741.784 535.367 749.056 545.121 751.918 557.423 760.587 566.371 766.634 576.833 770.214 588.72 779.371 597.386 782.667 609.437 791.592 618.24 794.684 630.407 801.154 640.619 809.858 649.545 813.399 661.45 821.289 670.849 825.405 682.423 830.631 693.36 836.852 703.725 845.87 712.473 848.925 724.664 854.243 735.55 862.222 744.902 867.911 755.573 874.463 765.748 881.378 775.71 885.763 787.132 893.156 796.822 897.824 808.089 904.111 818.417 911.768 827.964 917.162 839.181 904.766 841.442 892.685 840.107 880.603 837.277 868.522 839.901 856.441 839.416 844.359 838.65 832.279 839.382 820.202 840.629 808.126 837.893 796.05 836.564 783.972 837.587 771.891 839.103 759.811 839.665 747.733 840.369 735.656 839.33 723.578 840.455 711.497 838.037 699.415 838.166 687.337 840.605 675.259 840.614 663.179 840.347 651.096 837.136 639.016 838.75 626.937 840.947 614.857 840.839 602.773 839.733 590.693 836.529 578.613 839.471 566.531 839.905 554.449 839.957 542.369 840.799 530.287 841.291 518.204 839.243 506.124 838.622 494.041 836.537 481.958 838.427 469.877 839.951 457.793 839.027 445.711 839.507 433.626 836.679 421.544 838.089 409.459 836.93 397.376 838.354 385.293 839.689 373.209 839.746 361.126 841.241 349.041 839.403 336.956 837.859 324.872 840.141 312.787 839.327 300.703 839.942 288.623 837.279 276.54 838.789 264.459 838.347 252.375 838.272 240.29 841.315 228.206 840.256 216.121 836.515 204.036 841.315 191.948 840.028 179.863 837.548 167.776 840.709 155.689 838.034 143.606 840.063 131.52 837.659 119.43 839.31 107.343 839.484 95.248 840.182 81.162 840.153 91.178 829.688 95.451 818.211 100.332 807.087 105.259 795.988 113.91 787.036 121.529 777.484 126.597 766.461 133.098 756.269 138.583 745.491 142.044 733.544 151.009 724.774 155.885 713.638 161.305 702.817 166.178 691.684 173.006 681.68 179.839 671.679 185.876 661.214 191.143 650.304 196.562 639.484 205.702 630.815 209.633 619.136 214.219 607.83 223.609 599.302 226.539 587.046 233.028 576.843 238.636 566.127 245.941 556.395 252.921 546.476 259.26 536.185 264.001 524.97 270.126 514.557 277.086 504.624 282.741 493.936 288.724 483.44 295.189 473.22 302.089 463.252 306.296 451.73 310.776 440.362 320.861 432.234 325.91 421.194 329.612 409.38 336.926 399.647 340.811 387.938 350.216 379.415 353.157 367.159 360.821 357.631 368.332 348.013 373.051 336.782 379.06 326.299 384.996 315.779 392.61 306.223 396.148 294.316 401.215 283.288 408.206 273.373 416.99 264.491 423.518 254.303 426.729 242.202 431.524 231.016 438.365 221.009 447.275 212.195 451.637 200.757 456.532 189.626 462.806 179.294 471.014 170.079 476.37 159.214 481.458 148.189 485.897 136.793 493.173 127.024 500 117.126"/>
  <polygon points="500 117.126 505.741 127.631 510.256 138.967 518.982 147.872 524.14 158.838 530.838 168.917 536.357 179.681 544.203 189.101 549.708 199.868 552.433 212.239 558.533 222.662 566.308 232.12 574.416 241.389 578.619 252.913 586.419 262.356 590.767 273.792 598.16 283.47 600.625 295.997 607.754 305.833 616.211 314.897 618.994 327.237 627.944 336.019 634.226 346.345 641.011 356.378 646.331 367.253 650.921 378.552 658.38 388.2 663.14 399.402 669.121 409.897 676.039 419.854 681.399 430.712 685.399 442.352 692.271 452.335 699.764 461.962 705.287 472.724 709.891 484.018 718.576 492.955 722.866 504.43 727.996 515.422 733.784 526.032 741.784 535.367 749.056 545.121 751.918 557.423 760.587 566.371 766.634 576.833 770.214 588.72 779.371 597.386 782.667 609.437 791.592 618.24 794.684 630.407 801.154 640.619 809.858 649.545 813.399 661.45 821.289 670.849 825.405 682.423 830.631 693.36 836.852 703.725 845.87 712.473 848.925 724.664 854.243 735.55 862.222 744.902 867.911 755.573 874.463 765.748 881.378 775.71 885.763 787.132 893.156 796.822 897.824 808.089 904.111 818.417 911.768 827.964 917.162 839.181 904.766 841.442 892.685 840.107 880.603 837.277 868.522 839.901 856.441 839.416 844.359 838.65 832.279 839.382 820.202 840.629 808.126 837.893 796.05 836.564 783.972 837.587 771.891 839.103 759.811 839.665 747.733 840.369 735.656 839.33 723.578 840.455 711.497 838.037 699.415 838.166 687.337 840.605 675.259 840.614 663.179 840.347 651.096 837.136 639.016 838.75 626.937 840.947 614.857 840.839 602.773 839.733 590.693 836.529 578.613 839.471 566.531 839.905 554.449 839.957 542.369 840.799 530.287 841.291 518.204 839.243 506.124 838.622 494.041 836.537 481.958 838.427 469.877 839.951 457.793 839.027 445.711 839.507 433.626 836.679 421.544 838.089 409.459 836.93 397.376 838.354 385.293 839.689 373.209 839.746 361.126 841.241 349.041 839.403 336.956 837.859 324.872 840.141 312.787 839.327 300.703 839.942 288.623 837.279 276.54 838.789 264.459 838.347 252.375 838.272 240.29 841.315 228.206 840.256 216.121 836.515 204.036 841.315 191.948 840.028 179.863 837.548 167.776 840.709 155.689 838.034 143.606 840.063 131.52 837.659 119.43 839.31 107.343 839.484 95.248 840.182 81.162 840.153 91.178 829.688 95.451 818.211 100.332 807.087 105.259 795.988 113.91 787.036 121.529 777.484 126.597 766.461 133.098 756.269 138.583 745.491 142.044 733.544 151.009 724.774 155.885 713.638 161.305 702.817 166.178 691.684 173.006 681.68 179.839 671.679 185.876 661.214 191.143 650.304 196.562 639.484 205.702 630.815 209.633 619.136 214.219 607.83 223.609 599.302 226.539 587.046 233.028 576.843 238.636 566.127 245.941 556.395 252.921 546.476 259.26 536.185 264.001 524.97 270.126 514.557 277.086 504.624 282.741 493.936 288.724 483.44 295.189 473.22 302.089 463.252 306.296 451.73 310.776 440.362 320.861 432.234 325.91 421.194 329.612 409.38 336.926 399.647 340.811 387.938 350.216 379.415 353.157 367.159 360.821 357.631 368.332 348.013 373.051 336.782 379.06 326.299 384.996 315.779 392.61 306.223 396.148 294.316 401.215 283.288 408.206 273.373 416.99 264.491 423.518 254.303 426.729 242.202 431.524 231.016 438.365 221.009 447.275 212.195 451.637 200.757 456.532 189.626 462.806 179.294 471.014 170.079 476.37 159.214 481.458 148.189 485.897 136.793 493.173 127.024 500 117.126" style="fill: none; stroke: #000; stroke-miterlimit: 10; stroke-width: 30px;"/>
</svg>