<?xml version="1.0" encoding="UTF-8"?>
<svg id="Sticker" xmlns="http://www.w3.org/2000/svg" width="1000" height="1000" viewBox="0 0 1000 1000">
  <polygon points="884.588 500 887.009 503.619 885.791 507.217 879.998 510.667 880.104 514.229 879.34 517.756 881.701 521.445 879.556 524.89 882.28 528.659 881.703 532.209 886.109 536.215 881.59 539.4 880.786 542.92 879.975 546.432 885.773 550.798 882.376 553.997 884.679 557.993 880.916 561.078 879.599 564.514 875.932 567.517 875.885 571.143 879.565 575.517 876.873 578.654 871.873 581.25 876.596 585.974 873.617 588.979 873.034 592.534 872.217 596.034 868.939 598.878 873.564 603.867 869.769 606.547 868.523 609.93 862.865 611.948 864.709 616.261 863.35 619.581 864.667 623.804 861.781 626.609 865.174 631.641 857.618 632.707 859.002 637.053 854.807 639.264 852.905 642.339 855.929 647.444 850.63 649.102 848.013 651.845 846.992 655.277 850.147 660.638 850.93 664.988 849.517 668.331 843.938 669.62 845.566 674.462 843.098 677.259 835.643 677.396 835.325 681.261 836.647 686.067 837.102 690.457 831.544 691.423 832.218 695.98 827.869 697.566 825.568 700.352 823.679 703.386 826.422 709.398 824.748 712.637 822.011 715.172 818.045 716.848 816.487 720.149 809.703 719.749 812.152 725.911 809.004 728.063 807.761 731.624 807.418 735.902 799.663 734.43 798.561 738.103 801.227 744.877 794.065 743.652 796.99 750.801 792.989 752.152 787.829 752.432 784.778 754.506 786.745 761.13 781 760.745 779.72 764.468 777.048 766.893 772.97 767.93 772.648 772.666 770.936 776.069 766.42 776.595 765.559 780.911 762.363 782.78 761.273 786.94 754.151 784.419 756.335 792.314 748.892 789.243 750.257 796.386 746.618 797.68 741.953 797.673 742.063 803.56 735.615 801.215 731.763 802.071 730.682 806.552 726.306 806.666 726.483 812.983 720.237 810.43 720.103 816.462 714.043 813.981 712.827 818.551 711.104 822.455 707.872 824.091 702.077 821.642 700.429 825.737 698.718 829.821 695.33 831.165 694.252 836.478 691.541 839.064 684.972 834.716 684.018 840.462 680.611 841.759 676.206 841.111 674.473 845.636 668.505 841.729 669.015 850.982 663.813 848.484 660.202 849.246 655.347 847.197 655.348 856.078 652.202 857.959 647.174 855.327 642.973 854.524 641.733 861.142 637.136 859.269 632.646 857.503 631.999 866.218 628.166 866.282 624.059 865.471 621.424 869.008 617.54 868.78 611.998 863.08 610.306 869.842 606.847 870.871 602.953 870.331 598.507 867.614 597.219 876.888 593.363 876.453 589.641 876.472 586.04 876.952 581.051 871.02 579.107 879.119 574.528 874.625 571.297 876.767 567.374 875.186 564.566 879.962 560.767 879.019 557.933 884.331 553.724 880.479 550.594 884.265 546.038 876.771 543.277 884.036 539.09 878.598 535.887 882.609 532.22 881.865 528.576 881.184 525.298 885.905 521.306 879.209 518.121 887.255 514.343 883.166 510.862 887.053 507.227 886.262 503.595 884.334 500 886.386 496.433 881.356 492.774 886.329 489.124 887.585 485.6 884.764 482.12 882.026 478.603 880.845 474.727 885.497 471.491 880.25 467.789 881.728 463.649 887.573 460.317 884.364 457.116 880.465 453.113 883.741 449.311 884.938 446.806 876.639 442.124 883.896 438.62 882.812 436.138 875.735 431.763 879.967 428.433 878.141 425.444 874.708 421.133 877.902 417.067 879.611 415.358 870.74 410.008 877.889 406.596 876.555 404.689 869.408 401.166 868.775 397.416 868.942 392.603 872.725 388.902 872.446 386.567 867.683 381.951 870.324 380.284 863.759 376.829 862.802 372.739 863.645 370.823 858.341 366.009 861.077 362.583 859.955 358.695 860.002 357.572 853.126 354.036 852.36 348.92 855.276 345.329 854.479 341.818 853.474 340.286 848.137 335.211 850.508 333.582 845.551 331.337 842 325.556 845.532 322.983 842.631 318.727 842.962 318.747 835.311 312.496 839.243 312.376 832.099 309.536 829.886 305.57 829.598 304.017 825.248 295.954 831.558 296.615 823.676 292.476 823.506 289.686 821.207 287.702 817.719 285.805 814.161 282.736 812.348 277.832 813.105 274.595 811.454 269.604 812.159 270.398 805.078 265.367 805.766 261.111 805.355 258.782 802.462 255.406 800.879 251.817 799.526 253.015 792.476 250.837 789.519 243.503 792.46 243.758 786.718 242.286 782.995 241.507 778.574 235.489 779.765 236.092 773.95 233.216 771.803 227.527 772.455 225.225 769.665 222.903 766.904 218.942 765.698 218.748 760.944 214.052 760.369 214.986 754.683 209.299 754.919 212.106 747.73 207.986 746.562 204.613 744.717 198.161 745.343 196.087 742.345 197.518 736.607 197.704 731.936 194.157 730.148 189.595 729.07 190.48 723.973 184.197 724.056 180.225 722.411 180.578 717.76 181.002 713.126 181.424 708.56 175.397 708.201 177.165 702.828 170.181 702.946 169.436 699.167 166.817 696.523 167.522 691.937 166.447 688.422 159.327 688.271 164.837 681.148 161.979 678.631 162.457 674.359 159.711 671.768 158.067 668.606 150.03 668.526 154.162 662.567 149.641 660.713 148.009 657.496 147.463 653.801 144.564 651.128 145.494 646.833 143.013 643.967 140.351 641.147 144.528 635.686 135.676 635.178 137.396 630.696 135.328 627.602 133.282 624.482 136.238 619.699 130.369 617.811 136.191 612.222 134.204 609.1 127.254 607.386 134.185 601.7 130.778 598.937 126.18 596.43 123.694 593.327 129.622 588.196 128.359 584.833 125.332 581.844 124.005 578.458 125.859 574.432 117.777 572.323 125.105 567.322 117.413 565.009 122.188 560.575 119.27 557.394 119.735 553.694 121.455 549.848 118.326 546.631 120.546 542.766 117.116 539.527 113.109 536.283 114.504 532.522 111.811 529.094 116.079 525.17 117.131 521.509 114.265 518.051 117.836 514.306 118.197 510.718 117.396 507.159 118.414 503.57 115.712 500 110.793 496.361 115.79 492.813 113.51 489.154 112.411 485.496 111.879 481.84 112.355 478.227 113.448 474.658 112.664 470.968 112.951 467.346 113.206 463.722 117.463 460.504 121.313 457.314 120.551 453.632 118.605 449.773 123.057 446.763 120.303 442.752 122.754 439.506 118.51 435.167 117.46 431.304 124.199 428.873 121.118 424.618 127.138 422.179 124.995 418.069 125.141 414.421 124.141 410.489 125.418 407.084 126.451 403.624 130.356 400.934 133.617 398.126 130.207 393.446 134.68 391.024 133.846 387.038 130.312 382.153 132.286 378.984 135.221 376.158 134.906 372.232 135.608 368.641 139.841 366.35 143.539 363.918 143.79 360.185 143.572 356.239 140.671 351.146 141.825 347.686 152.035 348.176 146.317 341.724 147.258 338.17 150.153 335.523 152.241 332.517 159.441 332.05 152.637 324.63 162.716 325.751 161.928 321.317 159.48 315.925 166.85 315.87 163.954 310.141 163.288 305.586 165.475 302.657 167.306 299.52 175.462 300.284 177.896 297.606 176.128 292.241 177.902 289.102 177.056 284.203 183.654 284.313 185.353 281.133 185.414 276.779 192.138 277.199 192.319 272.915 193.604 269.405 191.266 263.086 193.624 260.311 202.301 262.586 204.181 259.524 204.085 254.813 209.304 254.52 211.443 251.665 207.774 243.709 214.511 244.858 216.918 242.208 220.075 240.253 220.636 235.868 219.643 229.919 224.814 229.895 229.262 229.244 231.632 226.547 232.323 222.1 235.437 220.143 241.843 221.751 238.609 212.931 242.401 211.725 245.666 209.965 249.096 208.42 249.987 203.902 253.077 201.953 256 199.811 263.252 203.097 262.876 196.858 266.933 196.232 269.83 194.128 272.027 191.078 272.749 185.958 276.961 185.629 278.664 181.768 285.663 185.589 286.781 180.864 288.136 176.386 294.544 179.668 294.577 173.042 296.852 169.854 302.88 172.826 304.849 169.139 308.404 168.112 309.062 162.001 315.419 165.989 318.566 164.309 322.036 163.238 325.755 162.678 327.621 158.504 329.767 154.774 333.14 153.485 335.144 149.302 337.821 146.451 344.729 152.973 348.117 151.853 351.454 150.629 353.593 146.523 357.241 146.005 361.067 145.987 362.167 138.905 366.459 140.085 370.59 140.963 372.613 135.943 374.854 131.328 380.367 136.439 382.588 131.622 388.102 137.244 391.268 135.443 394.491 133.78 396.131 126.366 400.945 130.339 403.907 127.492 407.176 125.73 410.586 124.484 415.107 128.096 417.528 122.446 421.84 125.442 424.159 118.736 427.84 118.644 432.754 125.536 435.653 121.338 439.823 124.691 443.114 122.673 446.671 122.341 449.554 116.872 453.814 122.002 456.867 117.252 460.884 121.146 464.443 120.952 467.276 112.07 471.512 120.01 474.771 115.16 478.317 113.981 482.189 119.475 485.523 113.188 489.147 113.284 492.737 111.754 496.385 113.469 500 114.016 503.586 116.616 507.194 115.413 510.858 113.063 514.306 117.789 518.197 111.082 521.426 118.64 525.245 114.942 529.039 112.579 532.7 112.395 535.666 119.824 539.54 117.038 542.779 120.477 547.138 114.186 549.888 121.205 554.163 116.441 557.985 115.377 560.114 125.142 564.205 122.233 567.384 124.818 571.741 120.933 574.275 126.715 579.433 119.372 582.852 120.763 586.67 120.34 589.078 125.966 592.063 128.868 595.496 129.875 599.248 129.676 604.004 125.939 607.404 127.253 608.648 135.781 614.497 128.864 615.314 138.263 621.343 131.295 622.275 139.838 626.614 138.204 629.043 142.033 634.767 136.832 636.59 142.21 641.335 139.922 642.077 147.742 646.122 147.259 650.669 145.689 653.98 147.101 657.918 147.115 660.868 149.352 663.739 151.721 667.187 152.855 670.65 153.978 673.942 155.462 674.917 161.426 678.39 162.481 683.968 159.676 684.651 165.908 690.793 162.304 691.293 168.681 697.448 165.298 698.508 170.572 700.743 173.797 704.605 174.386 705.082 180.293 710.538 178.451 711.545 183.406 717.009 181.72 722.422 180.251 722.482 186.453 725.941 187.806 730.211 188.092 731.854 191.934 734.59 194.29 738.76 194.81 742.328 196.148 743.863 200.019 747.158 201.709 744.889 210.004 751.199 208.118 754.003 210.381 754.633 215.08 757.241 217.524 764.824 214.607 766.178 218.472 766.589 223.267 771 223.903 774.723 225.295 776.107 229.027 775.252 234.874 775.924 239.157 784.631 235.919 786.88 238.782 783.346 246.809 791.507 244.374 792.809 248.036 796.088 249.995 799.372 251.978 798.187 257.629 801.572 259.524 805.461 261.059 801.339 268.799 809.326 267.227 808.931 272.02 809.095 276.335 816.326 275.572 813.448 281.997 819.886 281.924 817.244 288.048 823.637 288.121 825.364 291.31 826.53 294.846 827.983 298.186 830.827 300.674 827.74 306.694 829.554 309.754 836.534 309.891 833.257 315.836 835.87 318.469 842.214 319.148 843.942 322.328 840.104 328.325 846.893 328.943 846.63 333.085 850.08 335.436 852.704 338.21 853.577 341.793 847.936 348.209 855.454 348.865 851.141 354.562 859.544 355.001 862.388 357.777 858.212 363.268 859.161 366.739 863.98 368.808 863.974 372.642 863.835 376.496 865.09 379.864 871.143 381.707 868.311 386.391 864.706 391.224 865.937 394.572 866.115 398.217 871.924 400.341 873.221 403.724 869.467 408.364 872.404 411.324 878.469 413.615 879.689 417.064 872.465 422.274 877.768 424.851 876.633 428.728 876.736 432.349 880.822 435.289 878.435 439.326 875.767 443.348 879.146 446.463 877.424 450.298 886.253 452.816 878.007 457.395 877.609 461.011 882.889 464.087 887.94 467.275 884.284 471.195 888.036 474.564 885.036 478.372 881.863 482.128 880.913 485.74 888.143 489.108 881.836 492.855 885.675 496.392 884.588 500" style="fill: #fff;"/>
  <polygon points="884.588 500 887.009 503.619 885.791 507.217 879.998 510.667 880.104 514.229 879.34 517.756 881.701 521.445 879.556 524.89 882.28 528.659 881.703 532.209 886.109 536.215 881.59 539.4 880.786 542.92 879.975 546.432 885.773 550.798 882.376 553.997 884.679 557.993 880.916 561.078 879.599 564.514 875.932 567.517 875.885 571.143 879.565 575.517 876.873 578.654 871.873 581.25 876.596 585.974 873.617 588.979 873.034 592.534 872.217 596.034 868.939 598.878 873.564 603.867 869.769 606.547 868.523 609.93 862.865 611.948 864.709 616.261 863.35 619.581 864.667 623.804 861.781 626.609 865.174 631.641 857.618 632.707 859.002 637.053 854.807 639.264 852.905 642.339 855.929 647.444 850.63 649.102 848.013 651.845 846.992 655.277 850.147 660.638 850.93 664.988 849.517 668.331 843.938 669.62 845.566 674.462 843.098 677.259 835.643 677.396 835.325 681.261 836.647 686.067 837.102 690.457 831.544 691.423 832.218 695.98 827.869 697.566 825.568 700.352 823.679 703.386 826.422 709.398 824.748 712.637 822.011 715.172 818.045 716.848 816.487 720.149 809.703 719.749 812.152 725.911 809.004 728.063 807.761 731.624 807.418 735.902 799.663 734.43 798.561 738.103 801.227 744.877 794.065 743.652 796.99 750.801 792.989 752.152 787.829 752.432 784.778 754.506 786.745 761.13 781 760.745 779.72 764.468 777.048 766.893 772.97 767.93 772.648 772.666 770.936 776.069 766.42 776.595 765.559 780.911 762.363 782.78 761.273 786.94 754.151 784.419 756.335 792.314 748.892 789.243 750.257 796.386 746.618 797.68 741.953 797.673 742.063 803.56 735.615 801.215 731.763 802.071 730.682 806.552 726.306 806.666 726.483 812.983 720.237 810.43 720.103 816.462 714.043 813.981 712.827 818.551 711.104 822.455 707.872 824.091 702.077 821.642 700.429 825.737 698.718 829.821 695.33 831.165 694.252 836.478 691.541 839.064 684.972 834.716 684.018 840.462 680.611 841.759 676.206 841.111 674.473 845.636 668.505 841.729 669.015 850.982 663.813 848.484 660.202 849.246 655.347 847.197 655.348 856.078 652.202 857.959 647.174 855.327 642.973 854.524 641.733 861.142 637.136 859.269 632.646 857.503 631.999 866.218 628.166 866.282 624.059 865.471 621.424 869.008 617.54 868.78 611.998 863.08 610.306 869.842 606.847 870.871 602.953 870.331 598.507 867.614 597.219 876.888 593.363 876.453 589.641 876.472 586.04 876.952 581.051 871.02 579.107 879.119 574.528 874.625 571.297 876.767 567.374 875.186 564.566 879.962 560.767 879.019 557.933 884.331 553.724 880.479 550.594 884.265 546.038 876.771 543.277 884.036 539.09 878.598 535.887 882.609 532.22 881.865 528.576 881.184 525.298 885.905 521.306 879.209 518.121 887.255 514.343 883.166 510.862 887.053 507.227 886.262 503.595 884.334 500 886.386 496.433 881.356 492.774 886.329 489.124 887.585 485.6 884.764 482.12 882.026 478.603 880.845 474.727 885.497 471.491 880.25 467.789 881.728 463.649 887.573 460.317 884.364 457.116 880.465 453.113 883.741 449.311 884.938 446.806 876.639 442.124 883.896 438.62 882.812 436.138 875.735 431.763 879.967 428.433 878.141 425.444 874.708 421.133 877.902 417.067 879.611 415.358 870.74 410.008 877.889 406.596 876.555 404.689 869.408 401.166 868.775 397.416 868.942 392.603 872.725 388.902 872.446 386.567 867.683 381.951 870.324 380.284 863.759 376.829 862.802 372.739 863.645 370.823 858.341 366.009 861.077 362.583 859.955 358.695 860.002 357.572 853.126 354.036 852.36 348.92 855.276 345.329 854.479 341.818 853.474 340.286 848.137 335.211 850.508 333.582 845.551 331.337 842 325.556 845.532 322.983 842.631 318.727 842.962 318.747 835.311 312.496 839.243 312.376 832.099 309.536 829.886 305.57 829.598 304.017 825.248 295.954 831.558 296.615 823.676 292.476 823.506 289.686 821.207 287.702 817.719 285.805 814.161 282.736 812.348 277.832 813.105 274.595 811.454 269.604 812.159 270.398 805.078 265.367 805.766 261.111 805.355 258.782 802.462 255.406 800.879 251.817 799.526 253.015 792.476 250.837 789.519 243.503 792.46 243.758 786.718 242.286 782.995 241.507 778.574 235.489 779.765 236.092 773.95 233.216 771.803 227.527 772.455 225.225 769.665 222.903 766.904 218.942 765.698 218.748 760.944 214.052 760.369 214.986 754.683 209.299 754.919 212.106 747.73 207.986 746.562 204.613 744.717 198.161 745.343 196.087 742.345 197.518 736.607 197.704 731.936 194.157 730.148 189.595 729.07 190.48 723.973 184.197 724.056 180.225 722.411 180.578 717.76 181.002 713.126 181.424 708.56 175.397 708.201 177.165 702.828 170.181 702.946 169.436 699.167 166.817 696.523 167.522 691.937 166.447 688.422 159.327 688.271 164.837 681.148 161.979 678.631 162.457 674.359 159.711 671.768 158.067 668.606 150.03 668.526 154.162 662.567 149.641 660.713 148.009 657.496 147.463 653.801 144.564 651.128 145.494 646.833 143.013 643.967 140.351 641.147 144.528 635.686 135.676 635.178 137.396 630.696 135.328 627.602 133.282 624.482 136.238 619.699 130.369 617.811 136.191 612.222 134.204 609.1 127.254 607.386 134.185 601.7 130.778 598.937 126.18 596.43 123.694 593.327 129.622 588.196 128.359 584.833 125.332 581.844 124.005 578.458 125.859 574.432 117.777 572.323 125.105 567.322 117.413 565.009 122.188 560.575 119.27 557.394 119.735 553.694 121.455 549.848 118.326 546.631 120.546 542.766 117.116 539.527 113.109 536.283 114.504 532.522 111.811 529.094 116.079 525.17 117.131 521.509 114.265 518.051 117.836 514.306 118.197 510.718 117.396 507.159 118.414 503.57 115.712 500 110.793 496.361 115.79 492.813 113.51 489.154 112.411 485.496 111.879 481.84 112.355 478.227 113.448 474.658 112.664 470.968 112.951 467.346 113.206 463.722 117.463 460.504 121.313 457.314 120.551 453.632 118.605 449.773 123.057 446.763 120.303 442.752 122.754 439.506 118.51 435.167 117.46 431.304 124.199 428.873 121.118 424.618 127.138 422.179 124.995 418.069 125.141 414.421 124.141 410.489 125.418 407.084 126.451 403.624 130.356 400.934 133.617 398.126 130.207 393.446 134.68 391.024 133.846 387.038 130.312 382.153 132.286 378.984 135.221 376.158 134.906 372.232 135.608 368.641 139.841 366.35 143.539 363.918 143.79 360.185 143.572 356.239 140.671 351.146 141.825 347.686 152.035 348.176 146.317 341.724 147.258 338.17 150.153 335.523 152.241 332.517 159.441 332.05 152.637 324.63 162.716 325.751 161.928 321.317 159.48 315.925 166.85 315.87 163.954 310.141 163.288 305.586 165.475 302.657 167.306 299.52 175.462 300.284 177.896 297.606 176.128 292.241 177.902 289.102 177.056 284.203 183.654 284.313 185.353 281.133 185.414 276.779 192.138 277.199 192.319 272.915 193.604 269.405 191.266 263.086 193.624 260.311 202.301 262.586 204.181 259.524 204.085 254.813 209.304 254.52 211.443 251.665 207.774 243.709 214.511 244.858 216.918 242.208 220.075 240.253 220.636 235.868 219.643 229.919 224.814 229.895 229.262 229.244 231.632 226.547 232.323 222.1 235.437 220.143 241.843 221.751 238.609 212.931 242.401 211.725 245.666 209.965 249.096 208.42 249.987 203.902 253.077 201.953 256 199.811 263.252 203.097 262.876 196.858 266.933 196.232 269.83 194.128 272.027 191.078 272.749 185.958 276.961 185.629 278.664 181.768 285.663 185.589 286.781 180.864 288.136 176.386 294.544 179.668 294.577 173.042 296.852 169.854 302.88 172.826 304.849 169.139 308.404 168.112 309.062 162.001 315.419 165.989 318.566 164.309 322.036 163.238 325.755 162.678 327.621 158.504 329.767 154.774 333.14 153.485 335.144 149.302 337.821 146.451 344.729 152.973 348.117 151.853 351.454 150.629 353.593 146.523 357.241 146.005 361.067 145.987 362.167 138.905 366.459 140.085 370.59 140.963 372.613 135.943 374.854 131.328 380.367 136.439 382.588 131.622 388.102 137.244 391.268 135.443 394.491 133.78 396.131 126.366 400.945 130.339 403.907 127.492 407.176 125.73 410.586 124.484 415.107 128.096 417.528 122.446 421.84 125.442 424.159 118.736 427.84 118.644 432.754 125.536 435.653 121.338 439.823 124.691 443.114 122.673 446.671 122.341 449.554 116.872 453.814 122.002 456.867 117.252 460.884 121.146 464.443 120.952 467.276 112.07 471.512 120.01 474.771 115.16 478.317 113.981 482.189 119.475 485.523 113.188 489.147 113.284 492.737 111.754 496.385 113.469 500 114.016 503.586 116.616 507.194 115.413 510.858 113.063 514.306 117.789 518.197 111.082 521.426 118.64 525.245 114.942 529.039 112.579 532.7 112.395 535.666 119.824 539.54 117.038 542.779 120.477 547.138 114.186 549.888 121.205 554.163 116.441 557.985 115.377 560.114 125.142 564.205 122.233 567.384 124.818 571.741 120.933 574.275 126.715 579.433 119.372 582.852 120.763 586.67 120.34 589.078 125.966 592.063 128.868 595.496 129.875 599.248 129.676 604.004 125.939 607.404 127.253 608.648 135.781 614.497 128.864 615.314 138.263 621.343 131.295 622.275 139.838 626.614 138.204 629.043 142.033 634.767 136.832 636.59 142.21 641.335 139.922 642.077 147.742 646.122 147.259 650.669 145.689 653.98 147.101 657.918 147.115 660.868 149.352 663.739 151.721 667.187 152.855 670.65 153.978 673.942 155.462 674.917 161.426 678.39 162.481 683.968 159.676 684.651 165.908 690.793 162.304 691.293 168.681 697.448 165.298 698.508 170.572 700.743 173.797 704.605 174.386 705.082 180.293 710.538 178.451 711.545 183.406 717.009 181.72 722.422 180.251 722.482 186.453 725.941 187.806 730.211 188.092 731.854 191.934 734.59 194.29 738.76 194.81 742.328 196.148 743.863 200.019 747.158 201.709 744.889 210.004 751.199 208.118 754.003 210.381 754.633 215.08 757.241 217.524 764.824 214.607 766.178 218.472 766.589 223.267 771 223.903 774.723 225.295 776.107 229.027 775.252 234.874 775.924 239.157 784.631 235.919 786.88 238.782 783.346 246.809 791.507 244.374 792.809 248.036 796.088 249.995 799.372 251.978 798.187 257.629 801.572 259.524 805.461 261.059 801.339 268.799 809.326 267.227 808.931 272.02 809.095 276.335 816.326 275.572 813.448 281.997 819.886 281.924 817.244 288.048 823.637 288.121 825.364 291.31 826.53 294.846 827.983 298.186 830.827 300.674 827.74 306.694 829.554 309.754 836.534 309.891 833.257 315.836 835.87 318.469 842.214 319.148 843.942 322.328 840.104 328.325 846.893 328.943 846.63 333.085 850.08 335.436 852.704 338.21 853.577 341.793 847.936 348.209 855.454 348.865 851.141 354.562 859.544 355.001 862.388 357.777 858.212 363.268 859.161 366.739 863.98 368.808 863.974 372.642 863.835 376.496 865.09 379.864 871.143 381.707 868.311 386.391 864.706 391.224 865.937 394.572 866.115 398.217 871.924 400.341 873.221 403.724 869.467 408.364 872.404 411.324 878.469 413.615 879.689 417.064 872.465 422.274 877.768 424.851 876.633 428.728 876.736 432.349 880.822 435.289 878.435 439.326 875.767 443.348 879.146 446.463 877.424 450.298 886.253 452.816 878.007 457.395 877.609 461.011 882.889 464.087 887.94 467.275 884.284 471.195 888.036 474.564 885.036 478.372 881.863 482.128 880.913 485.74 888.143 489.108 881.836 492.855 885.675 496.392 884.588 500" style="fill: none; stroke: #000; stroke-linecap: round; stroke-linejoin: round; stroke-width: 35px;"/>
</svg>