<?xml version="1.0" encoding="UTF-8"?>
<svg id="big" xmlns="http://www.w3.org/2000/svg" width="500" height="500" viewBox="0 0 500 500">
  <path d="M441.147,250c0,1.262.563,2.51.539,3.766s-.045,2.51-.093,3.765,1.849,2.621,1.777,3.875-2.548,2.358-2.646,3.61,1.549,2.663,1.427,3.914.144,2.569-.002,3.817-.661,2.476-.832,3.721-1.08,2.397-1.275,3.639-1.87,2.229-2.09,3.466,2.206,2.977,1.963,4.21-1.816,2.209-2.084,3.436-1.943,2.125-2.236,3.347-.623,2.411-.94,3.627-.242,2.518-.583,3.728-.702,2.397-1.067,3.6,1.118,2.989.73,4.184-2.824,1.704-3.236,2.892-.05,2.639-.486,3.818-1.161,2.24-1.62,3.411-.512,2.498-.993,3.659-1.513,2.08-2.017,3.232.721,3.087.194,4.229-3.29,1.223-3.84,2.354-.772,2.401-1.344,3.521.054,2.861-.54,3.97-.366,2.689-.981,3.785-3.599.834-4.236,1.919.771,3.394.113,4.466-2.196,1.604-2.875,2.663-2.375,1.437-3.075,2.483-1.335,2.107-2.055,3.139-.839,2.473-1.579,3.491-.327,2.899-1.088,3.901-2.325,1.396-3.105,2.383-.935,2.489-1.734,3.461-2.426,1.258-3.244,2.214-1.196,2.298-2.032,3.238-2.428,1.192-3.282,2.116-1.151,2.366-2.023,3.273-1.794,1.768-2.684,2.657-2.418,1.118-3.325,1.99-.265,3.396-1.189,4.25-2.907.56-3.847,1.396-1.782,1.784-2.739,2.602-1.692,1.906-2.664,2.705-1.431,2.26-2.419,3.04-2.618.752-3.621,1.513-2.624.678-3.642,1.418-1.925,1.61-2.957,2.331-.897,3.161-1.943,3.861-3.179-.242-4.238.437-2.409.866-3.482,1.525-1.019,3.193-2.104,3.83-3.212-.537-4.31.08-1.487,2.512-2.597,3.107-2.296,1.059-3.418,1.631-2.931-.258-4.063.293-1.483,2.735-2.626,3.263-2.01,1.714-3.163,2.22-2.479.662-3.642,1.145-2.348.957-3.521,1.416-2.26,1.2-3.441,1.637-2.967-.798-4.157-.385-2.003,1.95-3.201,2.339-2.745-.333-3.951.033-1.997,2.16-3.21,2.502-2.471.578-3.69.895-2.749-.595-3.974-.302-2.393.806-3.624,1.075-2.368.987-3.604,1.232-2.529.193-3.77.413-2.324,1.436-3.569,1.632-2.858-2.159-4.107-1.987-2.249,2.186-3.501,2.332-2.533.027-3.788.149-2.415,1.443-3.672,1.541-2.644-1.654-3.903-1.581-2.481.725-3.741.774-2.507.657-3.768.681-2.53-1.669-3.792-1.669-2.537,1.761-3.793,1.737-2.459-2.068-3.714-2.116-2.626,2.135-3.88,2.062-2.346-2.61-3.599-2.707-2.52.158-3.771.037-2.763,2.102-4.011,1.956-2.391-1.306-3.636-1.477-2.325-1.478-3.566-1.673-2.788,1.383-4.026,1.163-2.167-2.13-3.4-2.374-2.82,1.17-4.048.902-2.367-1.019-3.59-1.311-1.953-2.539-3.17-2.855-2.779.682-3.989.341-2.249-1.259-3.452-1.624-2.982,1.072-4.178.684-2.18-1.474-3.368-1.886-2.445-.678-3.625-1.113-1.919-2.042-3.09-2.501-3.076.872-4.238.391-1.688-2.491-2.84-2.996-2.649-.258-3.791-.786-1.76-2.167-2.891-2.717-2.19-1.222-3.31-1.793-2.033-1.506-3.142-2.1-2.224-1.136-3.321-1.751-2.622-.466-3.706-1.103-2.059-1.451-3.131-2.109-2.701-.438-3.76-1.117-2.142-1.349-3.188-2.049-1.163-2.756-2.194-3.476-2.608-.664-3.625-1.404-1.554-2.117-2.557-2.877-3.23.053-4.217-.727-.361-3.564-1.333-4.363-2.556-.844-3.513-1.662-1.657-1.914-2.597-2.751-3.262-.16-4.186-1.014-1.154-2.469-2.061-3.342-1.146-2.423-2.036-3.313-2.891-.696-3.763-1.603-.096-3.365-.951-4.289-3.277-.42-4.113-1.361-.517-2.891-1.335-3.847-1.418-2.075-2.217-3.048-3.299-.579-4.079-1.567.216-3.353-.544-4.356-3.274-.706-4.015-1.724-.181-2.972-.902-4.004-.848-2.452-1.548-3.498-2.299-1.49-2.979-2.55-2.277-1.556-2.935-2.628-1.094-2.301-1.732-3.387-.143-2.824-.76-3.922-2.49-1.511-3.085-2.621-.732-2.473-1.305-3.595-1.814-1.927-2.364-3.059.686-3.115.158-4.258-2.277-1.734-2.782-2.887-.66-2.464-1.142-3.627-.83-2.383-1.289-3.555-.152-2.628-.588-3.81-2.847-1.662-3.259-2.852.492-2.834.103-4.033-.018-2.624-.383-3.83-.936-2.335-1.278-3.547-.538-2.449-.855-3.668-1.22-2.281-1.513-3.507-1.413-2.266-1.681-3.497,1.026-2.784.781-4.02.057-2.55-.164-3.79-2.16-2.181-2.356-3.426-1.323-2.367-1.494-3.616,1.461-2.731,1.314-3.983.682-2.586.56-3.84-1.727-2.362-1.825-3.619-1.292-2.448-1.365-3.707.259-2.551.211-3.811,2.312-2.577,2.288-3.839-1.076-2.486-1.076-3.748,1.011-2.492,1.036-3.748-2.743-2.6-2.695-3.855.398-2.527.471-3.781-.179-2.562-.082-3.814,1.899-2.374,2.02-3.625-1.047-2.653-.901-3.901.035-2.558.206-3.803.85-2.442,1.045-3.683.197-2.539.417-3.776.839-2.422,1.083-3.655,1.744-2.21,2.012-3.437-.438-2.681-.146-3.903,2.008-2.087,2.324-3.303-.054-2.609.287-3.819-.885-2.892-.521-4.095,3.082-1.673,3.47-2.869.195-2.573.607-3.76,1.403-2.154,1.838-3.334.961-2.303,1.419-3.474-.864-3.057-.382-4.219.964-2.341,1.469-3.493,2.399-1.681,2.926-2.822,1.446-2.079,1.996-3.21-.587-3.099-.015-4.219,2.624-1.465,3.218-2.574.964-2.323,1.579-3.42,1.608-1.958,2.245-3.042.221-2.791.88-3.863,2.072-1.663,2.751-2.722-.355-3.247.345-4.293,2.783-1.156,3.504-2.187,1.424-2.066,2.165-3.084,2.319-1.391,3.079-2.393-.224-3.347.556-4.335,1.152-2.331,1.95-3.303,3.53-.327,4.348-1.283.819-2.609,1.655-3.549,1.298-2.225,2.152-3.149,1.018-2.524,1.89-3.431,2.372-1.226,3.262-2.116,2.902-.629,3.809-1.501.295-3.358,1.219-4.213,3.374-.028,4.314-.864,1.283-2.34,2.239-3.158,2.451-.976,3.424-1.775,1.389-2.27,2.377-3.05,1.996-1.529,2.999-2.289,1.628-2.034,2.646-2.775,1.83-1.792,2.862-2.513,2.175-1.305,3.221-2.005,3.155.232,4.215-.448,1.566-2.212,2.639-2.871,2.039-1.49,3.124-2.127,2.197-1.227,3.295-1.843,2.4-.847,3.51-1.441,2.204-1.198,3.325-1.77,2.577-.434,3.71-.984,1.744-2.168,2.887-2.696,2.283-1.06,3.436-1.565,2.717-.017,3.88-.5,1.985-1.775,3.157-2.235,2.464-.581,3.646-1.017,2.18-1.361,3.371-1.774,2.266-1.17,3.464-1.559,2.318-1.053,3.524-1.419,2.238-1.384,3.451-1.725,2.784.6,4.003.282,2.68.384,3.905.091,2.164-1.793,3.395-2.061,2.5-.353,3.736-.597,2.755,1.114,3.996.894,2.401-.733,3.646-.928,2.479-.264,3.728-.435,2.473-.286,3.725-.433,2.354-1.504,3.609-1.626,2.588.875,3.846.777,2.375-2.088,3.634-2.161,2.58,1.287,3.84,1.238,2.477-1.285,3.739-1.31,2.525,1.51,3.786,1.51,2.493.417,3.748.441,2.551-1.479,3.806-1.43,2.459,1.147,3.713,1.219,2.469.516,3.721.613,2.745-2.458,3.995-2.336,2.199,3.118,3.446,3.264,2.59-.56,3.835-.39,2.38,1.002,3.621,1.197,2.676-.808,3.913-.589,2.651-.426,3.883-.182,2.013,2.663,3.241,2.931,2.78-.914,4.003-.621,2.372.894,3.589,1.21,2.453.566,3.663.907,2.376.836,3.579,1.2,2.378.814,3.574,1.202,2.444.618,3.632,1.029,2.725-.119,3.904.317,2.113,1.556,3.284,2.015,1.885,2.036,3.046,2.517,3.143-.95,4.294-.446,2.041,1.636,3.182,2.164,2.483.669,3.614,1.219,1.585,2.469,2.705,3.041,2.858-.031,3.966.562,1.488,2.518,2.585,3.134,2.768.226,3.852.863,2.253,1.154,3.325,1.813,1.668,2.08,2.727,2.759,2.842.266,3.887.966,1.275,2.602,2.306,3.323,1.526,2.163,2.543,2.903,2.287,1.104,3.29,1.864,2.664.657,3.652,1.437,1.557,2.074,2.53,2.873,1.36,2.268,2.316,3.085,2.385,1.065,3.325,1.901,3.161.271,4.085,1.126,1.836,1.758,2.743,2.63,1.574,2.019,2.464,2.909,1.843,1.744,2.715,2.651.905,2.617,1.759,3.541,2.01,1.576,2.846,2.517,1.993,1.613,2.811,2.57.793,2.623,1.592,3.595,2.903.904,3.683,1.892.84,2.552,1.601,3.555.818,2.526,1.558,3.544,1.362,2.106,2.082,3.139,1.1,2.277,1.801,3.323,1.106,2.256,1.786,3.316,3.616.702,4.274,1.774.48,2.667,1.117,3.752.21,2.775.826,3.873,2.308,1.599,2.902,2.709,1.879,1.874,2.452,2.995-1.044,3.33-.494,4.463,1.216,2.182,1.744,3.325.715,2.41,1.22,3.563,1.483,2.077,1.966,3.241,3.01,1.503,3.469,2.676-.712,2.971-.275,4.153,2.189,1.894,2.602,3.085-.699,2.892-.31,4.09,1.08,2.288,1.445,3.494,1.425,2.206,1.766,3.419.773,2.407,1.091,3.626,1.071,2.341,1.364,3.566-1.451,2.912-1.182,4.143,2.358,2.076,2.603,3.312.986,2.395,1.206,3.636-2.157,2.911-1.961,4.156,2.024,2.235,2.195,3.484.524,2.478.671,3.73-1.155,2.65-1.032,3.904,2.094,2.342,2.191,3.599.23,2.525.303,3.784-.454,2.554-.405,3.814-.739,2.539-.715,3.8-.705,2.508-.705,3.769Z" style="fill: #fff;"/>
  <path d="M441.147,250c0,1.262.563,2.51.539,3.766s-.045,2.51-.093,3.765,1.849,2.621,1.777,3.875-2.548,2.358-2.646,3.61,1.549,2.663,1.427,3.914.144,2.569-.002,3.817-.661,2.476-.832,3.721-1.08,2.397-1.275,3.639-1.87,2.229-2.09,3.466,2.206,2.977,1.963,4.21-1.816,2.209-2.084,3.436-1.943,2.125-2.236,3.347-.623,2.411-.94,3.627-.242,2.518-.583,3.728-.702,2.397-1.067,3.6,1.118,2.989.73,4.184-2.824,1.704-3.236,2.892-.05,2.639-.486,3.818-1.161,2.24-1.62,3.411-.512,2.498-.993,3.659-1.513,2.08-2.017,3.232.721,3.087.194,4.229-3.29,1.223-3.84,2.354-.772,2.401-1.344,3.521.054,2.861-.54,3.97-.366,2.689-.981,3.785-3.599.834-4.236,1.919.771,3.394.113,4.466-2.196,1.604-2.875,2.663-2.375,1.437-3.075,2.483-1.335,2.107-2.055,3.139-.839,2.473-1.579,3.491-.327,2.899-1.088,3.901-2.325,1.396-3.105,2.383-.935,2.489-1.734,3.461-2.426,1.258-3.244,2.214-1.196,2.298-2.032,3.238-2.428,1.192-3.282,2.116-1.151,2.366-2.023,3.273-1.794,1.768-2.684,2.657-2.418,1.118-3.325,1.99-.265,3.396-1.189,4.25-2.907.56-3.847,1.396-1.782,1.784-2.739,2.602-1.692,1.906-2.664,2.705-1.431,2.26-2.419,3.04-2.618.752-3.621,1.513-2.624.678-3.642,1.418-1.925,1.61-2.957,2.331-.897,3.161-1.943,3.861-3.179-.242-4.238.437-2.409.866-3.482,1.525-1.019,3.193-2.104,3.83-3.212-.537-4.31.08-1.487,2.512-2.597,3.107-2.296,1.059-3.418,1.631-2.931-.258-4.063.293-1.483,2.735-2.626,3.263-2.01,1.714-3.163,2.22-2.479.662-3.642,1.145-2.348.957-3.521,1.416-2.26,1.2-3.441,1.637-2.967-.798-4.157-.385-2.003,1.95-3.201,2.339-2.745-.333-3.951.033-1.997,2.16-3.21,2.502-2.471.578-3.69.895-2.749-.595-3.974-.302-2.393.806-3.624,1.075-2.368.987-3.604,1.232-2.529.193-3.77.413-2.324,1.436-3.569,1.632-2.858-2.159-4.107-1.987-2.249,2.186-3.501,2.332-2.533.027-3.788.149-2.415,1.443-3.672,1.541-2.644-1.654-3.903-1.581-2.481.725-3.741.774-2.507.657-3.768.681-2.53-1.669-3.792-1.669-2.537,1.761-3.793,1.737-2.459-2.068-3.714-2.116-2.626,2.135-3.88,2.062-2.346-2.61-3.599-2.707-2.52.158-3.771.037-2.763,2.102-4.011,1.956-2.391-1.306-3.636-1.477-2.325-1.478-3.566-1.673-2.788,1.383-4.026,1.163-2.167-2.13-3.4-2.374-2.82,1.17-4.048.902-2.367-1.019-3.59-1.311-1.953-2.539-3.17-2.855-2.779.682-3.989.341-2.249-1.259-3.452-1.624-2.982,1.072-4.178.684-2.18-1.474-3.368-1.886-2.445-.678-3.625-1.113-1.919-2.042-3.09-2.501-3.076.872-4.238.391-1.688-2.491-2.84-2.996-2.649-.258-3.791-.786-1.76-2.167-2.891-2.717-2.19-1.222-3.31-1.793-2.033-1.506-3.142-2.1-2.224-1.136-3.321-1.751-2.622-.466-3.706-1.103-2.059-1.451-3.131-2.109-2.701-.438-3.76-1.117-2.142-1.349-3.188-2.049-1.163-2.756-2.194-3.476-2.608-.664-3.625-1.404-1.554-2.117-2.557-2.877-3.23.053-4.217-.727-.361-3.564-1.333-4.363-2.556-.844-3.513-1.662-1.657-1.914-2.597-2.751-3.262-.16-4.186-1.014-1.154-2.469-2.061-3.342-1.146-2.423-2.036-3.313-2.891-.696-3.763-1.603-.096-3.365-.951-4.289-3.277-.42-4.113-1.361-.517-2.891-1.335-3.847-1.418-2.075-2.217-3.048-3.299-.579-4.079-1.567.216-3.353-.544-4.356-3.274-.706-4.015-1.724-.181-2.972-.902-4.004-.848-2.452-1.548-3.498-2.299-1.49-2.979-2.55-2.277-1.556-2.935-2.628-1.094-2.301-1.732-3.387-.143-2.824-.76-3.922-2.49-1.511-3.085-2.621-.732-2.473-1.305-3.595-1.814-1.927-2.364-3.059.686-3.115.158-4.258-2.277-1.734-2.782-2.887-.66-2.464-1.142-3.627-.83-2.383-1.289-3.555-.152-2.628-.588-3.81-2.847-1.662-3.259-2.852.492-2.834.103-4.033-.018-2.624-.383-3.83-.936-2.335-1.278-3.547-.538-2.449-.855-3.668-1.22-2.281-1.513-3.507-1.413-2.266-1.681-3.497,1.026-2.784.781-4.02.057-2.55-.164-3.79-2.16-2.181-2.356-3.426-1.323-2.367-1.494-3.616,1.461-2.731,1.314-3.983.682-2.586.56-3.84-1.727-2.362-1.825-3.619-1.292-2.448-1.365-3.707.259-2.551.211-3.811,2.312-2.577,2.288-3.839-1.076-2.486-1.076-3.748,1.011-2.492,1.036-3.748-2.743-2.6-2.695-3.855.398-2.527.471-3.781-.179-2.562-.082-3.814,1.899-2.374,2.02-3.625-1.047-2.653-.901-3.901.035-2.558.206-3.803.85-2.442,1.045-3.683.197-2.539.417-3.776.839-2.422,1.083-3.655,1.744-2.21,2.012-3.437-.438-2.681-.146-3.903,2.008-2.087,2.324-3.303-.054-2.609.287-3.819-.885-2.892-.521-4.095,3.082-1.673,3.47-2.869.195-2.573.607-3.76,1.403-2.154,1.838-3.334.961-2.303,1.419-3.474-.864-3.057-.382-4.219.964-2.341,1.469-3.493,2.399-1.681,2.926-2.822,1.446-2.079,1.996-3.21-.587-3.099-.015-4.219,2.624-1.465,3.218-2.574.964-2.323,1.579-3.42,1.608-1.958,2.245-3.042.221-2.791.88-3.863,2.072-1.663,2.751-2.722-.355-3.247.345-4.293,2.783-1.156,3.504-2.187,1.424-2.066,2.165-3.084,2.319-1.391,3.079-2.393-.224-3.347.556-4.335,1.152-2.331,1.95-3.303,3.53-.327,4.348-1.283.819-2.609,1.655-3.549,1.298-2.225,2.152-3.149,1.018-2.524,1.89-3.431,2.372-1.226,3.262-2.116,2.902-.629,3.809-1.501.295-3.358,1.219-4.213,3.374-.028,4.314-.864,1.283-2.34,2.239-3.158,2.451-.976,3.424-1.775,1.389-2.27,2.377-3.05,1.996-1.529,2.999-2.289,1.628-2.034,2.646-2.775,1.83-1.792,2.862-2.513,2.175-1.305,3.221-2.005,3.155.232,4.215-.448,1.566-2.212,2.639-2.871,2.039-1.49,3.124-2.127,2.197-1.227,3.295-1.843,2.4-.847,3.51-1.441,2.204-1.198,3.325-1.77,2.577-.434,3.71-.984,1.744-2.168,2.887-2.696,2.283-1.06,3.436-1.565,2.717-.017,3.88-.5,1.985-1.775,3.157-2.235,2.464-.581,3.646-1.017,2.18-1.361,3.371-1.774,2.266-1.17,3.464-1.559,2.318-1.053,3.524-1.419,2.238-1.384,3.451-1.725,2.784.6,4.003.282,2.68.384,3.905.091,2.164-1.793,3.395-2.061,2.5-.353,3.736-.597,2.755,1.114,3.996.894,2.401-.733,3.646-.928,2.479-.264,3.728-.435,2.473-.286,3.725-.433,2.354-1.504,3.609-1.626,2.588.875,3.846.777,2.375-2.088,3.634-2.161,2.58,1.287,3.84,1.238,2.477-1.285,3.739-1.31,2.525,1.51,3.786,1.51,2.493.417,3.748.441,2.551-1.479,3.806-1.43,2.459,1.147,3.713,1.219,2.469.516,3.721.613,2.745-2.458,3.995-2.336,2.199,3.118,3.446,3.264,2.59-.56,3.835-.39,2.38,1.002,3.621,1.197,2.676-.808,3.913-.589,2.651-.426,3.883-.182,2.013,2.663,3.241,2.931,2.78-.914,4.003-.621,2.372.894,3.589,1.21,2.453.566,3.663.907,2.376.836,3.579,1.2,2.378.814,3.574,1.202,2.444.618,3.632,1.029,2.725-.119,3.904.317,2.113,1.556,3.284,2.015,1.885,2.036,3.046,2.517,3.143-.95,4.294-.446,2.041,1.636,3.182,2.164,2.483.669,3.614,1.219,1.585,2.469,2.705,3.041,2.858-.031,3.966.562,1.488,2.518,2.585,3.134,2.768.226,3.852.863,2.253,1.154,3.325,1.813,1.668,2.08,2.727,2.759,2.842.266,3.887.966,1.275,2.602,2.306,3.323,1.526,2.163,2.543,2.903,2.287,1.104,3.29,1.864,2.664.657,3.652,1.437,1.557,2.074,2.53,2.873,1.36,2.268,2.316,3.085,2.385,1.065,3.325,1.901,3.161.271,4.085,1.126,1.836,1.758,2.743,2.63,1.574,2.019,2.464,2.909,1.843,1.744,2.715,2.651.905,2.617,1.759,3.541,2.01,1.576,2.846,2.517,1.993,1.613,2.811,2.57.793,2.623,1.592,3.595,2.903.904,3.683,1.892.84,2.552,1.601,3.555.818,2.526,1.558,3.544,1.362,2.106,2.082,3.139,1.1,2.277,1.801,3.323,1.106,2.256,1.786,3.316,3.616.702,4.274,1.774.48,2.667,1.117,3.752.21,2.775.826,3.873,2.308,1.599,2.902,2.709,1.879,1.874,2.452,2.995-1.044,3.33-.494,4.463,1.216,2.182,1.744,3.325.715,2.41,1.22,3.563,1.483,2.077,1.966,3.241,3.01,1.503,3.469,2.676-.712,2.971-.275,4.153,2.189,1.894,2.602,3.085-.699,2.892-.31,4.09,1.08,2.288,1.445,3.494,1.425,2.206,1.766,3.419.773,2.407,1.091,3.626,1.071,2.341,1.364,3.566-1.451,2.912-1.182,4.143,2.358,2.076,2.603,3.312.986,2.395,1.206,3.636-2.157,2.911-1.961,4.156,2.024,2.235,2.195,3.484.524,2.478.671,3.73-1.155,2.65-1.032,3.904,2.094,2.342,2.191,3.599.23,2.525.303,3.784-.454,2.554-.405,3.814-.739,2.539-.715,3.8-.705,2.508-.705,3.769Z" style="fill: none; stroke: #000; stroke-miterlimit: 10; stroke-width: 15px;"/>
</svg>