<?xml version="1.0" encoding="UTF-8"?>
<svg id="Sticker" xmlns="http://www.w3.org/2000/svg" width="1000" height="1000" viewBox="0 0 1000 1000">
  <g>
    <path d="M697.525,351.588l-3.16,4.798-1.087,3.593,4.868,3.593-3.787,3.594,6.464,3.595-6.097,3.595,5.151,3.594-6.059,3.593,5.958,3.593.997,3.593-8.248,3.594,5.196,3.595,1.334,3.595-1.252,3.594,2.576,3.594-6.621,3.594,2.449,3.594,2.64,3.595.652,3.595-.395,3.594.427,3.594,1.391,3.589-6.259,3.589,2.088,3.589,3.63,3.59.372,3.591-1.139,3.593-7.985,3.596.426,3.594,5.871,3.592.487,3.591-.34,3.591-2.492,3.592,3.983,3.593,1.168,3.596-5.531,3.596,2.5,3.594-2.157,3.593,3.323,3.593-7.107,3.594-.375,3.597,6.985,3.596.951,3.594-2.304,3.594-2.85,3.595,2.546,3.598.018,3.595,2.503,3.595-4.599,3.596,2.086,3.597-3.731,3.596,5.33,3.596-5.949,3.598,7.773,3.596-.803,3.598-5.153,3.597-2.523,3.598,1.659,3.597.958,3.598,3.13,3.594-3.104,3.598,1.84,3.594-1.068,3.598-1.36,3.596-1.94,3.599,3.205,3.597.727,3.599,3.197,3.601-6.758,3.601,6.555,3.601.338,3.6-3.326,3.6-3.733,3.601-.172,3.607,4.245,3.607,3.161,3.64-.748,3.615-4.971,3.365,5.925,3.978-7.727,2.969.115,3.55,5.243,4.221-1.244,3.486v3.664s-.589,3.578-.589,3.578l-5.171,2.652,3.551,4.416,1.453,4.077-5.128,2.451-4.272,2.525,2.457,4.415.602,3.96-7.295,1.336,5.769,5.809-4.239,2.27-.012,3.853-5.389,1.622,3.199,5.29-.218,3.892-4.8,1.696-.561,3.733-4.78,1.511.624,4.404-5.217,1.091-1.19,3.385-.657,3.758,1.569,5.297-4.796,1.096.071,4.435-.895,3.836-4.435,1.171-2.099,2.916-2.53,2.566-3.207,1.966-4.722.552-1.488,3.403,1.343,6.195-4.193.93,1.033,6.229-4.603.444-4.493.414-.209,5.222-3.607,1.359-6.118-1.843-3.212,1.603-.282,5.494-3.079,1.857-4.926-.84.765,7.515-2.12,3.439-3.168,1.849-7.258-5.128.652,8.333-4.25-.183-5.238-2.276-.766,6.443-4.734-1.536-4.285-.838-2.39,3.379-4.511-1.659-3.131,1.614-3.208,1.444-.743,8.702-4.764-2.873-2.335,4.676-3.356,1.552-4.791-3.865-4.197-2.179-2.279,5.941-3.224,2.256-4.269-3.115-2.591,6.21-3.569.956-4.158-3.544-3.903-2.573-3.3,2.899-3.436,2.319-3.741-1.919-3.523,1.973-3.693-3.722-3.557,6.27-3.654-.819-3.349-8.585-3.557.936-3.683,2.121-3.951,4.127-2.862-7.384-3.88,2.641-2.981-4.307-4.644,6.657-3.243-2.461-2.728-4.663-4.481,3.924-2.028-6.998-3.944,1.272-4.377,2.511-4.123,1.206-1.564-7.056-2.894-2.445-3.631-.259-4.913,2.989-2.555-3.295-3.539-.785-2.456-3.266-3.936.058-2.885-2.223-2.208-3.478-2.946-1.948-7.159,5.567-1.935-3.941-1.144-5.064-6.527,3.639-2.133-3.423-1.435-4.328-3.172-1.732-2.511-2.646-5.493,1.246.823-6.873-1.194-4.119-3.334-1.51-2.996-1.944-5.406.619-3.31-1.771-2.902-2.231-.227-4.834-.908-4.043-4.081-1.097-3.464-1.741-5.057-.483,1.627-6.016-3.036-2.179-2.672-2.498,1.061-5.202-3.034-2.207-2.632-2.528-.23-4.093-7.524.454,3.488-6.289-1.415-3.272-5.273-1.178-4.763-1.609,1.669-4.918,3.176-5.477-8.185-.185,2.716-5.119-.634-3.587-.802-3.493-6.533-1.4-2.091-3.136.564-4.024-1.952-3.201,3.868-4.869-.491-3.541-5.521-2.312.855-3.908-.942-3.481,3.2-4.25-3.394-3.019.075-3.631-1.57-3.4-4.894-3.079,5.098-4.148-4.896-3.229,3.035-3.826-1.977-3.528.02-3.632,2.584-3.629-3.201-3.593.603-3.593,6.71-3.593-9.059-3.594,2.411-3.595-1.491-3.595-.848-3.594,2.088-3.593-2.188-3.593.854-3.593,7.591-3.594-.323-3.595-2.727-3.595,1.55-3.594-1.945-3.594-3.204-3.594,5.677-3.594-1.808-3.595-.015-3.595,3.663-3.594-8.911-3.594,8.972-3.589-2.104-3.589-3.39-3.589,2.079-3.59-.947-3.591,3.432-3.593-.34-3.596-3.933-3.594-2.356-3.592,4.064-3.591-.085-3.591-5.063-3.592,7.027-3.593-5.321-3.596-1.967-3.596,4.162-3.594,4.79-3.593-1.697-3.593-4.973-3.594,1.691-3.597.511-3.596,2.222-3.594-3.351-3.594,2.862-3.595-1.854-3.598-4.261-3.595,6.594-3.595-2.427-3.596-4.63-3.597,5.827-3.596-.213-3.596-4.03-3.598,1.12-3.596-3.086-3.598,7.001-3.597-1.1-3.598,2.591-3.597,1.068-3.598-7.958-3.594-.616-3.598,2.941-3.594,4.815-3.598-7.22-3.596,1.346-3.599.939-3.597-1.146-3.599,7.236-3.601-8.126-3.601,3.823-3.601-3.092-3.6,6.016-3.6-6.774-3.601,4.612-3.607-.442-2.622,2.611,2.726,3.598.871,3.599-4.885,3.599,2.167,3.599.751,3.6-6.22,3.601,5.901,3.602-5.422,3.603,6.269,3.602-6.756,3.601,4.463,3.6,3.106,3.6-5.61,3.599,6.451,3.599-7.157,3.599,6.801,3.6-5.977,3.6,1.081,3.601-4.04,3.602,2.81,3.603,4.111,3.602-2.833,3.601,1.88,3.6-5.795,3.6,5.356,3.6,2.471,3.6-4.693,3.6-3.032,3.601,8.267,3.602-2.376,3.603-4.49,3.602,2.353,3.601-1.203,3.601-2.715,3.601-.033,3.601.901,3.601,2.794,3.602,3.565,3.603-5.049,3.602,4.334,3.602.541,3.601-2.041,3.601,4.324,3.601-8.403,3.602,2.618,3.603-1.94,3.603-2.211,3.602,5.29,3.601-1.653,3.601,5.271,3.602-.165,3.603-5.262,3.603-1.94,3.602-.206,3.602.642,3.597,1.953,3.597.45,3.597-.872,3.598.189,3.599-3.265,3.601,6.243,3.604-3.661,3.602,6.811,3.6-2.83,3.599-.538,3.599-5.658,3.599,1.462,3.601,1.758,3.603-2.502,3.604,2.444,3.602-1.065,3.6-.559,3.6,1.284,3.602,1.414,3.604-2.724,3.604,3.766,3.602-3.229,3.602,3.308,3.603-3.344,3.606-2.557,3.603,9.008,3.603-7.685,3.604-1.049,3.605,3.54,3.603.027,3.604,2.868,3.606-.734,3.604-.432,3.606,1.824,3.605,1.268,3.605.666,3.605-9.288,3.606,5.658,3.601-2.923,3.606,3.365,3.602-1.552,3.606-1.071,3.604.526,3.607-.391,3.605.801,3.607.89,3.608,2.186,3.608-4.479,3.608.494,3.607-1.571,3.608,1.158,3.609,1.14,3.155-2.729,5.272,2.009ZM498.301,609.004l3.661-3.608,1.087-3.608-4.868-3.607,3.787-3.606-6.464-3.606,6.097-3.607-5.151-3.607,6.059-3.608-5.958-3.608-.997-3.607,8.248-3.607-5.196-3.607-1.334-3.607,1.252-3.608-2.576-3.608,6.621-3.607-2.449-3.607-2.64-3.602-.652-3.602.395-3.602-.427-3.603-1.391-3.604,6.259-3.606-2.088-3.609-3.63-3.607-.372-3.605,1.139-3.604,7.985-3.604-.426-3.605-5.871-3.606-.487-3.609.34-3.609,2.492-3.607-3.983-3.606-1.168-3.606,5.531-3.607-2.5-3.61,2.157-3.609-3.323-3.607,7.107-3.607.375-3.608-6.985-3.611-.951-3.609,2.304-3.608,2.85-3.609-2.546-3.611-.018-3.609-2.503-3.61,4.599-3.611-2.086-3.609,3.731-3.611-5.33-3.61,5.949-3.611-7.773-3.611.803-3.612,5.153-3.607,2.523-3.611-1.659-3.607-.958-3.611-3.13-3.609,3.104-3.612-1.84-3.61,1.068-3.612,1.36-3.614,1.94-3.614-3.205-3.614-.727-3.613-3.197-3.613,6.758-3.614-6.555-3.62-.338-3.62" style="fill: #fff;"/>
    <path d="M697.525,351.588l-3.16,4.798-1.087,3.593,4.868,3.593-3.787,3.594,6.464,3.595-6.097,3.595,5.151,3.594-6.059,3.593,5.958,3.593.997,3.593-8.248,3.594,5.196,3.595,1.334,3.595-1.252,3.594,2.576,3.594-6.621,3.594,2.449,3.594,2.64,3.595.652,3.595-.395,3.594.427,3.594,1.391,3.589-6.259,3.589,2.088,3.589,3.63,3.59.372,3.591-1.139,3.593-7.985,3.596.426,3.594,5.871,3.592.487,3.591-.34,3.591-2.492,3.592,3.983,3.593,1.168,3.596-5.531,3.596,2.5,3.594-2.157,3.593,3.323,3.593-7.107,3.594-.375,3.597,6.985,3.596.951,3.594-2.304,3.594-2.85,3.595,2.546,3.598.018,3.595,2.503,3.595-4.599,3.596,2.086,3.597-3.731,3.596,5.33,3.596-5.949,3.598,7.773,3.596-.803,3.598-5.153,3.597-2.523,3.598,1.659,3.597.958,3.598,3.13,3.594-3.104,3.598,1.84,3.594-1.068,3.598-1.36,3.596-1.94,3.599,3.205,3.597.727,3.599,3.197,3.601-6.758,3.601,6.555,3.601.338,3.6-3.326,3.6-3.733,3.601-.172,3.607,4.245,3.607,3.161,3.64-.748,3.615-4.971,3.365,5.925,3.978-7.727,2.969.115,3.55,5.243,4.221-1.244,3.486v3.664s-.589,3.578-.589,3.578l-5.171,2.652,3.551,4.416,1.453,4.077-5.128,2.451-4.272,2.525,2.457,4.415.602,3.96-7.295,1.336,5.769,5.809-4.239,2.27-.012,3.853-5.389,1.622,3.199,5.29-.218,3.892-4.8,1.696-.561,3.733-4.78,1.511.624,4.404-5.217,1.091-1.19,3.385-.657,3.758,1.569,5.297-4.796,1.096.071,4.435-.895,3.836-4.435,1.171-2.099,2.916-2.53,2.566-3.207,1.966-4.722.552-1.488,3.403,1.343,6.195-4.193.93,1.033,6.229-4.603.444-4.493.414-.209,5.222-3.607,1.359-6.118-1.843-3.212,1.603-.282,5.494-3.079,1.857-4.926-.84.765,7.515-2.12,3.439-3.168,1.849-7.258-5.128.652,8.333-4.25-.183-5.238-2.276-.766,6.443-4.734-1.536-4.285-.838-2.39,3.379-4.511-1.659-3.131,1.614-3.208,1.444-.743,8.702-4.764-2.873-2.335,4.676-3.356,1.552-4.791-3.865-4.197-2.179-2.279,5.941-3.224,2.256-4.269-3.115-2.591,6.21-3.569.956-4.158-3.544-3.903-2.573-3.3,2.899-3.436,2.319-3.741-1.919-3.523,1.973-3.693-3.722-3.557,6.27-3.654-.819-3.349-8.585-3.557.936-3.683,2.121-3.951,4.127-2.862-7.384-3.88,2.641-2.981-4.307-4.644,6.657-3.243-2.461-2.728-4.663-4.481,3.924-2.028-6.998-3.944,1.272-4.377,2.511-4.123,1.206-1.564-7.056-2.894-2.445-3.631-.259-4.913,2.989-2.555-3.295-3.539-.785-2.456-3.266-3.936.058-2.885-2.223-2.208-3.478-2.946-1.948-7.159,5.567-1.935-3.941-1.144-5.064-6.527,3.639-2.133-3.423-1.435-4.328-3.172-1.732-2.511-2.646-5.493,1.246.823-6.873-1.194-4.119-3.334-1.51-2.996-1.944-5.406.619-3.31-1.771-2.902-2.231-.227-4.834-.908-4.043-4.081-1.097-3.464-1.741-5.057-.483,1.627-6.016-3.036-2.179-2.672-2.498,1.061-5.202-3.034-2.207-2.632-2.528-.23-4.093-7.524.454,3.488-6.289-1.415-3.272-5.273-1.178-4.763-1.609,1.669-4.918,3.176-5.477-8.185-.185,2.716-5.119-.634-3.587-.802-3.493-6.533-1.4-2.091-3.136.564-4.024-1.952-3.201,3.868-4.869-.491-3.541-5.521-2.312.855-3.908-.942-3.481,3.2-4.25-3.394-3.019.075-3.631-1.57-3.4-4.894-3.079,5.098-4.148-4.896-3.229,3.035-3.826-1.977-3.528.02-3.632,2.584-3.629-3.201-3.593.603-3.593,6.71-3.593-9.059-3.594,2.411-3.595-1.491-3.595-.848-3.594,2.088-3.593-2.188-3.593.854-3.593,7.591-3.594-.323-3.595-2.727-3.595,1.55-3.594-1.945-3.594-3.204-3.594,5.677-3.594-1.808-3.595-.015-3.595,3.663-3.594-8.911-3.594,8.972-3.589-2.104-3.589-3.39-3.589,2.079-3.59-.947-3.591,3.432-3.593-.34-3.596-3.933-3.594-2.356-3.592,4.064-3.591-.085-3.591-5.063-3.592,7.027-3.593-5.321-3.596-1.967-3.596,4.162-3.594,4.79-3.593-1.697-3.593-4.973-3.594,1.691-3.597.511-3.596,2.222-3.594-3.351-3.594,2.862-3.595-1.854-3.598-4.261-3.595,6.594-3.595-2.427-3.596-4.63-3.597,5.827-3.596-.213-3.596-4.03-3.598,1.12-3.596-3.086-3.598,7.001-3.597-1.1-3.598,2.591-3.597,1.068-3.598-7.958-3.594-.616-3.598,2.941-3.594,4.815-3.598-7.22-3.596,1.346-3.599.939-3.597-1.146-3.599,7.236-3.601-8.126-3.601,3.823-3.601-3.092-3.6,6.016-3.6-6.774-3.601,4.612-3.607-.442-2.622,2.611,2.726,3.598.871,3.599-4.885,3.599,2.167,3.599.751,3.6-6.22,3.601,5.901,3.602-5.422,3.603,6.269,3.602-6.756,3.601,4.463,3.6,3.106,3.6-5.61,3.599,6.451,3.599-7.157,3.599,6.801,3.6-5.977,3.6,1.081,3.601-4.04,3.602,2.81,3.603,4.111,3.602-2.833,3.601,1.88,3.6-5.795,3.6,5.356,3.6,2.471,3.6-4.693,3.6-3.032,3.601,8.267,3.602-2.376,3.603-4.49,3.602,2.353,3.601-1.203,3.601-2.715,3.601-.033,3.601.901,3.601,2.794,3.602,3.565,3.603-5.049,3.602,4.334,3.602.541,3.601-2.041,3.601,4.324,3.601-8.403,3.602,2.618,3.603-1.94,3.603-2.211,3.602,5.29,3.601-1.653,3.601,5.271,3.602-.165,3.603-5.262,3.603-1.94,3.602-.206,3.602.642,3.597,1.953,3.597.45,3.597-.872,3.598.189,3.599-3.265,3.601,6.243,3.604-3.661,3.602,6.811,3.6-2.83,3.599-.538,3.599-5.658,3.599,1.462,3.601,1.758,3.603-2.502,3.604,2.444,3.602-1.065,3.6-.559,3.6,1.284,3.602,1.414,3.604-2.724,3.604,3.766,3.602-3.229,3.602,3.308,3.603-3.344,3.606-2.557,3.603,9.008,3.603-7.685,3.604-1.049,3.605,3.54,3.603.027,3.604,2.868,3.606-.734,3.604-.432,3.606,1.824,3.605,1.268,3.605.666,3.605-9.288,3.606,5.658,3.601-2.923,3.606,3.365,3.602-1.552,3.606-1.071,3.604.526,3.607-.391,3.605.801,3.607.89,3.608,2.186,3.608-4.479,3.608.494,3.607-1.571,3.608,1.158,3.609,1.14,3.155-2.729,5.272,2.009ZM498.301,609.004l3.661-3.608,1.087-3.608-4.868-3.607,3.787-3.606-6.464-3.606,6.097-3.607-5.151-3.607,6.059-3.608-5.958-3.608-.997-3.607,8.248-3.607-5.196-3.607-1.334-3.607,1.252-3.608-2.576-3.608,6.621-3.607-2.449-3.607-2.64-3.602-.652-3.602.395-3.602-.427-3.603-1.391-3.604,6.259-3.606-2.088-3.609-3.63-3.607-.372-3.605,1.139-3.604,7.985-3.604-.426-3.605-5.871-3.606-.487-3.609.34-3.609,2.492-3.607-3.983-3.606-1.168-3.606,5.531-3.607-2.5-3.61,2.157-3.609-3.323-3.607,7.107-3.607.375-3.608-6.985-3.611-.951-3.609,2.304-3.608,2.85-3.609-2.546-3.611-.018-3.609-2.503-3.61,4.599-3.611-2.086-3.609,3.731-3.611-5.33-3.61,5.949-3.611-7.773-3.611.803-3.612,5.153-3.607,2.523-3.611-1.659-3.607-.958-3.611-3.13-3.609,3.104-3.612-1.84-3.61,1.068-3.612,1.36-3.614,1.94-3.614-3.205-3.614-.727-3.613-3.197-3.613,6.758-3.614-6.555-3.62-.338-3.62" style="fill: none; stroke: #000; stroke-linecap: round; stroke-linejoin: round; stroke-width: 35px;"/>
  </g>
  <path d="M175.419,349.005l3.59,5.192,3.59,2.677,3.589-4.957,3.589,2.518,3.589,1.476,3.589-5.21,3.589,3.796,3.589,1.141,3.589.758,3.59-2.665,3.59,1.873,3.59-3.308,3.591-3.285,3.591,4.84,3.592-2.723,3.592,1.063,3.593-1.497,3.594.122,3.595.32,3.596,2.5,3.595-4.159,3.595,5.83,3.594-.164,3.593.63,3.593-5.83,3.592,4.509,3.592-2.4,3.591,5.621,3.591-8.857,3.591,3.431,3.591,2.204,3.591-2.26,3.591-4.305,3.591.435,3.591,3.627,3.592,3.553,3.592.932,3.592-2.954,3.593-.232,3.594-4.997,3.594,2.112,3.595,5.092,3.596-3.828,3.596-2.352,3.595.943,3.594,3.099,3.594.222,3.593-5.729,3.593,7.462,3.592-1.299,3.592,1.02,3.592.144,3.592.745,3.592-6.692,3.592,6.23,3.593-3.828,3.593-.306,3.594,5.3,3.595-2.877,3.596-3.81,3.597,5.147,3.596-2.027,3.595,3.073,3.595-5.362,3.594,4.576,3.594-1.482,3.593-3.242,3.593.884,3.593.603,3.593,4.252,3.594,1.314,3.594-3.563,3.595-5.399,3.595,2.365,3.596.686,3.597,1.3,3.596-3.381,3.595-.555,3.595,4.448,3.594-4.29,3.594,2.889,3.594-2.997,3.594,8.304,3.594-6.478,3.595,2.158,3.596-.724,3.596,1.563,3.597,3.491,3.596-7.902,3.596-.463,3.595,2.802,3.595,4.675,3.595-2.951,3.595,1.174,3.595-5.007,3.596,2.25,3.597-1.671,3.598-.212,3.597,1.322,3.596-.049,3.595-1.61,3.595,2.55,3.595,2.975,3.596-4.585,3.597.03,3.598,1.079,3.597.112,3.596,4.65,3.596-8.045,3.596,4.083,3.596-2.694,3.597,1.91,3.598,1.904,3.597-3.984,3.597,4.682,3.596,1.202,3.596-1.395,3.597-1.998,3.598-3.999,3.598,5.682,3.597,3.816,3.596-2.73,3.592-5.04,3.591,1.202,3.592,5.686,3.592-8.637,3.594.941,3.596.234,3.599,4.699,3.597,3.353,3.595-4.546,3.594,2.445,3.593-6.559,3.594,4.332,3.596.543,3.598-1.844,3.598,1.457,3.596-.594,3.595.396,3.595.949,3.597-3.584,3.599,3.468,3.598-2.598,3.597,5.656,3.596-7.124,3.598,2.976,3.601,3.913,3.598-2.006,3.597-.138,3.599.002,3.6.959,3.598,2.091,3.599-1.472,3.6-5.202,3.599,5.17,3.6-7.852,3.599,1.147,3.6,3.121,3.6,5.148,3.601-5.501,3.596,2.678,3.6-5.422,3.596-1.463,3.6,6.303,3.598-3.841,3.602-1.758,3.6,1.058,3.601,7.132,3.603-6.813,3.603,1.772,3.603-1.263,3.602-.301,3.603.713,3.603.305,3.609,4.589,3.609-4.02M133.076,450.863l6.042,1.461,4.497-.788-1.239-6.027,4.247-1.13,3.43-1.953-2.022-6.004,5.166-.754,2.967-2.419,2.587-2.724-.456-4.499,3.395-2.289-1.282-4.734-1.425-4.61,5.872-1.258-1.13-4.356,2.278-2.937-.213-3.853,1.22-3.324,1.324-3.304,3.352-2.801-3.196-4.445,6.457-2.263.523-3.619,1.216-3.507-5.278-4.363,4.886-3.041-2.068-3.802,5.846-3.265-8.698-3.968,3.495-3.475,2.187-3.614-2.357-3.538-4.474-3.312.186-3.51,3.285-3.853,3.121-3.987.436-3.745-3.476-3.136-.851-3.506-5.585-2.528,1.325-3.89,4.139-4.658-4.595-2.556-3.2-2.811-.08-3.663,1.909-4.33-.905-3.495-6.575-1.507,5.806-5.895-2.495-2.928-.379-3.739-1.245-3.406-.741-3.63-7.572-.567,4.164-5.859-5.003-1.611-1.851-3.077,3.1-5.612-4.225-1.884-5.05-1.359,2.778-5.627-3.54-2.145.847-4.669-6.449-.362,2.043-5.454-3.167-2.292M858.571,237.62l-6.29.29-4.157,1.696,2.439,5.615-3.969,1.844-3.05,2.419,2.858,5.638-5.027,1.379-2.663,2.683-2.292,2.9.835,4.406-3.218,2.475,1.546,4.632,1.61,4.558-5.833,1.431,1.211,4.326-2.257,2.95.198,3.853-1.267,3.312-1.401,3.274-3.436,2.681,3.016,4.565-6.555,1.939-.714,3.555-1.422,3.396,4.978,4.691-5.089,2.671,1.777,3.931-6.083,2.77,8.347,4.648-3.771,3.157-2.483,3.398,2.05,3.709,4.18,3.658-.475,3.459-3.584,3.554-3.421,3.722-.71,3.703,3.251,3.366.624,3.543,5.425,2.82-1.528,3.78-4.342,4.459,4.497,2.71,3.113,2.862v3.62s-1.957,4.284-1.957,4.284l.903,3.481,6.576,1.394-5.69,5.985,2.589,2.844.543,3.718,1.436,3.339.992,3.584,7.582-.061-3.617,6.197,5.139,1.065,2.183,2.806-2.336,5.967,4.46,1.255,5.181.506-1.768,6.006,3.879,1.428.138,4.747,6.356-1.103-.666,5.771,3.676,1.371,2.872-.63" style="fill: none; stroke: #000; stroke-linecap: round; stroke-linejoin: round; stroke-width: 35px;"/>
</svg>