<?xml version="1.0" encoding="UTF-8"?>
<svg id="Sticker" xmlns="http://www.w3.org/2000/svg" width="1000" height="1000" viewBox="0 0 1000 1000">
  <path d="M481.671,754.069l-3.615,1.312-3.531-3.522-3.566-.378-3.545-.763-3.708,2.632-3.772,2.784-3.688.772-3.542-1.276-3.711.778-3.013-6.278-3.451-1.29-4.314,5.859-3.598-.489-2.357-9.044-4.476,5.734-3.694.223-3.593-.442-2.373-6.89-3.634.079-4.487,3.995-3.957,1.144-2.457-5.382-3.383-1.219-2.784-3.481-3.279-1.44-3.698.07-3.841.461-4.229,1.585-2.04-5.369-3.416-.965-5.442,4.8-3.069-2.155-1.922-5.131-4.741,2.347-3.647-.603-2.574-3.216-3.865-.112-3.424-1.182-3.096-1.913-4.496,1.058-2.045-4.102-3.073-1.918-2.914-2.208-.932-5.89-6.46,4.413-.519-6.452-6.175,3.562-1.395-4.757-4.127-.129-2.396-2.983-4.631.557-1.666-4.078-4.78.651-1.293-4.537-1.728-3.807-1.668-3.811-5.523,1.497-4.289-.299-3.352-1.596,1.424-7.697-1.092-4.336-3.823-.917-7.416,3.326-1.764-3.523,1.144-6.82-6.302,1.747-2.098-3.059-.67-4.586-2.544-2.51-5.351.431-1.965-3.154-5.047-.018,4.022-9.107-6.042.937-2.53-2.551-1.225-3.783-.598-4.327-6.448,1.07.52-5.311-6.763,1.215,1.923-6.47-4.105-1.186,1.613-6.063-2.881-2.224-2.012-2.952-5.81.123-2.364-2.706,1.684-5.889-9.854,3.136,4.295-7.839-4.319-1.21-2.701-2.458-3.414-1.945-3.828-1.669-1.046-3.692-3.425-1.992.677-4.877-4.8-1.055,2.655-6.177-.265-4.136-2.992-2.296-3.316-2.099-6.469-.071.944-4.9,2.741-6-2.313-2.759-2.25-2.804-4.256-1.576-3.321-2.176,2.506-5.705-7.331.215,2.399-5.594-3.516-2.087-4.759-1.386,2.166-5.392.019-4.129-9.383,1.182,4.759-6.785-3.086-2.383,1.562-4.943-3.768-2.017-7.796.133,1.803-5.05,2.878-5.589-4.27-1.793-.988-3.527-1.891-3.054-7.836-.003,4.69-6.434-4.58-1.697,3.091-5.572-6.634-.689,1.027-4.518-5.559-1.261,4.858-6.378-2.709-2.663-1.546-3.232-1.961-3.033-.22-3.866-1.358-3.319-9.22.387.617-4.264,1.802-4.806-5.635-1.34-.438-3.759,3.345-5.489-3.713-2.241-6.913-.966,1.849-4.745-.3-3.766,2.809-4.68-3.625-2.604.737-3.849.46-3.672-8.639-2.09,1.042-3.926,4.986-4.145-4.902-3.277-.624-3.678,3.489-3.58-.753-3.631-4.569-4.165,3.031-3.367,1.545-3.462,2.801-3.089,3.338-2.775-3.408-4.77.48-3.721,3.563-2.529-1.207-4.486.527-3.857,6.902-.568-3.104-5.849,8.617.909-1.274-4.983,3.433-1.994-3.855-7.203,8.173,1.576.37-4.262-1.914-6.347,4.108-1.341,5.533.11-1.613-6.539,2.991-2.242,7.961,2.962,1.083-4.047-.793-6.264,4.015-.976,3.663-1.298.417-5.229,4.893.273,5.093.692-1.727-8.329,7.908,4.674-1.886-8.905,8.148,5.418,1.293-4.492,3.264-1.583,1.551-4.281,2.111-3.492,5.008,1.26,3.359-1.4,1.216-5.139,5.97,3.238,3.52-1.027,2.88-2.204.772-6.312,5.946,3.717-.635-9.398,4.528.972,3.126-1.894,2.82-2.584,4.892,2.035,3.81-.276,2.427-3.509,5.211,3.196.471-8.534,4.879,2.534,2.663-3.202,5.323,4.171,1.515-6.589,4.793,3.046,1.973-5.729,4.608,2.919,3.735.319,3.329-1.003,3.009-2.615,3.795,2.056,3.412-.587,3.315-3.358,3.632,1.966,3.531-5.155,3.534,6.035,3.752-5.704,3.682-.697,3.106,7.687,3.927-4.352,3.49,1.34,4.276-5.79,2.798,7.142,3.964-2.458,3.958-1.956,3.687.071,2.101,9.37,4.215-3.251,2.994,3.522,4.654-4.968,3.981-1.262,2.876,3.899,4.016-1.292,1.785,8.148,3.75-.26,4.848-4.417,1.705,7.668,6.044-8.428,3.149,2.279,3.045,2.552,3.969-.568,1.016,8.927,6.11-7.266,2.321,4.587,1.663,6.317,6.521-7.759,1.698,6.052,2.401,3.904,3.739.261,5.279-3.617,1.513,6,5.532-3.972,2.222,4.112,3.649.694,3.849.285,2.837,2.557,1.705,4.915,5.607-3.353,2.091,4.009,4.256-.379.502,6.932,5.512-2.707,1.561,4.716,3.341,1.405,1.698,4.258,7.594-5.775,1.388,4.776,1.024,5.197,4.444-.262.125,6.337,3.93.547,2.844,2.163,3.236,1.618,2.724,2.326,2.094,3.122,7.059-3.118-1.126,7.076,6.416-2.006,1.973,2.826-2.098-.827,3.927-1.153,3.496-1.453,1.903-3.377,5.785,1.544-2.151-8.758,7.734,4.378-1.237-7.905,6.489,3.003,3.036-1.878-.637-7.559,5.457,1.817,2.588-2.665,4.848,1.098-.633-8.232,3.827-.651,4.037-.202,2.835-2.375,2.168-3.697,6.68,5.13,1.121-5.808,5.536,3.176,2.255-3.597.749-7.017,5.379,3.129,1.241-6.199,4.598,1.519,5.205,3.152,1.146-6.755,5.297,3.606,2.11-4.523,3.399-1.215,3.42-1.156,2.019-5.148,5.983,6.256,1.703-6.228,5.175,4.246,3.466-.902,3.102-2.087,2.423-4.45,2.322-5.016,3.916.473,4.952,4.43,2.151-5.994,3.884.563,4.634,3.775,3.602-.305,3.055-2.714,3.781.509,2.186-7.164,4.966,6.445,2.806-4.453,4.075,2.346,2.964-4,3.066-3.8,4.143,3.199,3.008-4.737,3.915,1.964,3.334-2.9,3.734.602,3.934,3.33,3.287-4.996,3.743,1.266,3.864,7.196,3.457-6.424,3.634.752,3.387,5.697,3.764-3.904,3.96-3.004,2.474,7.761,5.231-7.913,2.93,3.712,2.12,5.908,3.704-.026,2.681,3.289,6.484-8.045.898,8.416,4.918-2.965,2.012,4.871,4.799-2.342,2.983,2.293,4.112-.421,2.867,2.528,3.387,1.314,2.232,3.819,1.812,4.585,6.491-5.17,3.553,1.045,1.998,4.109,4.857-1.453.967,5.927,1.098,5.489,3.147,1.682,5.716-2.752.729,5.869,6.534-3.868,4.164.212,1.908,3.827-.395,7.246,2.271,3.021,3.587,1.06,3.82.78,5.336-1.231,1.68,3.826,2.635,2.498,3.029,1.985,5.428-.93.129,5.541,1.793,3.436,4.322.56,3.576,1.482-.286,5.551,6.129-1.07,1.203,3.932,1.025,3.999,5.619-.179,1.977,3.153-.892,5.451,4.917.724,3.355,2.078-4.482,7.621,4.159,1.442,3.653,1.923,5.307,1.106-.415,4.461,2.733,2.724-1.137,4.587,6.131,1.34-1.272,4.514-.907,4.184-1.969,4.329,4.81,2.362-3.749,4.504,5.512,2.547-4.452,4.246.507,3.4,1.171,3.385,2.716,3.457.237,3.593,4.192,3.919-8.352,2.833.584,3.584,6.786,4.881-8.153,1.979.644,3.805-1.157,3.367,4.964,5.492-7.963.976,3.205,5.191-4.727,1.899-3.018,2.568,2.579,5.15-5.862,1.241-3.142,2.491,6.464,7.018-4.722,1.75-3.583,2.275-.328,3.831-5.579,1.29,2.64,5.281-.819,3.607-.805,3.619-2.242,2.908-2.967,2.538.437,4.254-6.063.951,5.44,6.834-9.231-.714-1.586,3.218,5.6,7-9.321-.853-1.774,3.117,3.688,6.058-5.266,1.244,3.62,6.075-8.192-.393-.063,4.07,3.276,5.957-2.633,2.663-4.995,1.309,2.269,5.454-3.96,1.883-3.335,2.226-2.271,2.839.488,4.477-4.169,1.704-1.698,3.177-2.26,2.835-2.845,2.47-3.313,2.167-.52,3.907,3.21,6.292-1.176,3.543-8.086-.921,2.561,5.962-6.616-.039,4.038,7.006-3.841,1.779-3.285,2.132.801,4.926-4.507,1.277-1.248,3.531-1.005,3.716-1.657,3.265-7.48-.958,3.166,6.778-4.504,1.165-3.12,2.166-3.512,1.851-3.541,1.804-2.659,2.465,4.698,8.264-3.625,1.747-8.556-2.273,3.853,7.774-2.487,2.636-3.258,1.984-1.792,3.214-2.773,2.378.094,4.885-4.241,1.087-3.644,1.58-6.321-.907.196,5.051.368,5.288-7.94-2.604,3.382,8.273-3.997,1.144-6.768-1.696-.465,4.622-2.126,2.963-1.699,3.432-2.291,2.828-3.545,1.462-.739,4.573-3.81,1.146-6.096-1.566,1.151,6.893-3.224,1.773-4.59.058-1.753,3.555-.685,4.997-2.87,2.231-3.948.773-6.493-2.825.686,7.142-2.515,2.731-7.182-4.218.613,7.429-1.431,4.503-3.775.843-2.317,3.219-3.543,1.189-7.367-5.65-1.669,4.332-.706,6.337-5.477-2.715-1.822,4.415-3.509,1.062-3.785.419-5.178-2.857-1.699,5.077-4.302-1.085-1.835,5.129-4.064-.598-2.493,3.74-4.191-1.143-3.714.129-3.333,1.314-3.12,2.128-3.387,1.253-4.046-1.45-3.101,2.456-3.244,2.047-3.171,2.697-4.191-2.964-3.74-.793-3.422,1.264-3.632-.329-3.679-1.092-2.901,8.147-4.118-7.209-3.584-.968-3.466,2.083-3.571-1.809-3.567,1.433-3.546,3.412-3.546,2.983-3.588-1.44-3.558,1.53-3.575-.27-3.565.55-3.691-7.508-3.431,8.172-3.549.32-3.712-5.324-3.433,5.916-3.655-1.759-3.579-4.434-3.574,1.991-3.569-1.64-3.581,2.788-3.557-3.5-3.587,3.912-3.562-3.226-3.594,5.336-3.559-4.657-3.582.927ZM883.754,431.049l-3.842-.037-2.193-4.496-3.336-1.479-3.247-1.771-4.319,1.541-4.319,1.79-3.708-.042-3.159-1.935-3.728.132-2.013-6.662-3.326-1.742-4.921,5.365-3.482-.772-1.851-9.175-4.743,5.558-3.677.181-3.567-.397-2.653-6.81-3.73.277-4.185,4.344-3.776,1.56-3.124-5.019-3.584-.694-3.442-2.944-3.628-.766-3.712.884-3.702,1.385-3.691,2.658-3.572-4.547-3.658.151-3.559,6.345-3.61-.92-3.752-4.023-3.447,4.046-3.546.984-3.725-1.752-3.486,1.683-3.556.61-3.625-.107-3.251,3.238-3.894-2.358-3.616.12-3.66-.127-4.311-4.178-2.462,7.446-4.479-4.693-2.445,6.705-4.177-2.654-3.131,2.695-3.789-.5-2.865,3.66-4.069-1.634-2.735,3.945-4.22-2.052-4.036-1.149-4.065-1.107-2.274,5.277-2.797,3.234-3.206,1.76-5.504-5.568-4.301-1.475-2.936,2.753-1.079,8.064-3.899-.286-5.4-4.349-1.513,6.384-3.681.446-4.432-1.437-3.415,1.235-1.854,5.055-3.678.54-1.938,4.644-7.006-7.088-1.319,6.008-3.277,1.526-4.008-.049-4.363-.735-.907,6.498-4.986-1.962-.624,6.852-5.804-3.463-2.15,3.733-5.617-2.874-2.85,2.409-3.36,1.457-.952,5.769-3.073,1.906-5.626-2.506,1.772,10.197-7.283-5.193-1.705,4.195-2.721,2.48-2.218,3.26-1.903,3.708-3.727.849-2.102,3.339-4.855-.795-1.098,4.785-6.195-2.628-4.181.369-2.258,3.098-1.991,3.432.296,6.463-4.945-.604-6.247-2.2-2.587,2.62-2.598,2.593-1.076,4.452-1.715,3.604-6.056-1.581,1.397,7.218-5.954-1.338-1.403,3.888-.365,4.947-5.772-.874,3.239-1.779-8.057,4.381,2.385-7.927-3.714-1.245-.256-5.202-4.272-.571-7.185,3.006-.224-5.332.444-6.282-4.657.059-2.374-2.814-3.026-1.977-7.044,3.415,1.353-7.838-4.854.569.14-6.378-6.178,2.529-1.28-4.451-5.451,1.644,1.007-7.955-3.715-.929-3.019-1.977-3.284-1.558-2.276-3.162-2.972-2.067-7.475,5.407-1.843-3.862-1.235-4.977-5.374,2.146-2.522-2.788-.54-6.409-4.335.409-5.963,3.535-1.516-4.756-2.706-2.559-1.323-5.328-4.45.83-2.492-3.096-2.715-2.69-6.718,5.808-2.563-2.943-1.036-6.395-5.186,2.812-3.487-.941-1.948-4.565-3.685-.503-5.178,3.233-2.364-3.681-3-2.146-2.615-3.21-2.5-3.622-4.965,3.144-3.624-.473-2.602-3.446-4.306,1.59h-3.746s-1.642-6.698-1.642-6.698l-5.048,4.246-1.202-8.581-4.503,2.593-3.006-2.642-5.35,6.138-1.593-8.143-4.063,1.41-4.752,4.542-2.964-2.963-2.604-4.846-4.658,4.81-3.371-1.245-2.097-8.22-3.947,1.528-4.39,4.497-3.218-2.455-3.337-1.897-4.049,3.247-3.122-3.693-3.15-4.061-4.373,7.271-2.763-8.744-4.277,8.017-2.907-9.331-3.803,2.77-3.579-.653-3.705,2.624-3.622,1.742-3.511-3.74-3.599-.531-3.567,3.859-3.687-5.692-3.654-.694-3.609.725-3.327,5.413-3.979-5.773-2.924,8.941-3.789-2.531-3.514.728-3.407,1.556-4.027-3.388-3.748-.77-3.223,2.789-4.367-4.296-2.204,8.254-4.283-3.391-3.111,2.734-4.741-4.841-2.245,6.391-4.541-3.424-2.281,5.618-4.542-3.02-3.845-.241-3.431,1.231-2.865,2.993-4.245-1.313-3.372,1.406-2.367,4.162-4.121-.718-1.527,6.061" style="fill: #fff;"/>
  <path d="M481.671,754.069l-3.615,1.312-3.531-3.522-3.566-.378-3.545-.763-3.708,2.632-3.772,2.784-3.688.772-3.542-1.276-3.711.778-3.013-6.278-3.451-1.29-4.314,5.859-3.598-.489-2.357-9.044-4.476,5.734-3.694.223-3.593-.442-2.373-6.89-3.634.079-4.487,3.995-3.957,1.144-2.457-5.382-3.383-1.219-2.784-3.481-3.279-1.44-3.698.07-3.841.461-4.229,1.585-2.04-5.369-3.416-.965-5.442,4.8-3.069-2.155-1.922-5.131-4.741,2.347-3.647-.603-2.574-3.216-3.865-.112-3.424-1.182-3.096-1.913-4.496,1.058-2.045-4.102-3.073-1.918-2.914-2.208-.932-5.89-6.46,4.413-.519-6.452-6.175,3.562-1.395-4.757-4.127-.129-2.396-2.983-4.631.557-1.666-4.078-4.78.651-1.293-4.537-1.728-3.807-1.668-3.811-5.523,1.497-4.289-.299-3.352-1.596,1.424-7.697-1.092-4.336-3.823-.917-7.416,3.326-1.764-3.523,1.144-6.82-6.302,1.747-2.098-3.059-.67-4.586-2.544-2.51-5.351.431-1.965-3.154-5.047-.018,4.022-9.107-6.042.937-2.53-2.551-1.225-3.783-.598-4.327-6.448,1.07.52-5.311-6.763,1.215,1.923-6.47-4.105-1.186,1.613-6.063-2.881-2.224-2.012-2.952-5.81.123-2.364-2.706,1.684-5.889-9.854,3.136,4.295-7.839-4.319-1.21-2.701-2.458-3.414-1.945-3.828-1.669-1.046-3.692-3.425-1.992.677-4.877-4.8-1.055,2.655-6.177-.265-4.136-2.992-2.296-3.316-2.099-6.469-.071.944-4.9,2.741-6-2.313-2.759-2.25-2.804-4.256-1.576-3.321-2.176,2.506-5.705-7.331.215,2.399-5.594-3.516-2.087-4.759-1.386,2.166-5.392.019-4.129-9.383,1.182,4.759-6.785-3.086-2.383,1.562-4.943-3.768-2.017-7.796.133,1.803-5.05,2.878-5.589-4.27-1.793-.988-3.527-1.891-3.054-7.836-.003,4.69-6.434-4.58-1.697,3.091-5.572-6.634-.689,1.027-4.518-5.559-1.261,4.858-6.378-2.709-2.663-1.546-3.232-1.961-3.033-.22-3.866-1.358-3.319-9.22.387.617-4.264,1.802-4.806-5.635-1.34-.438-3.759,3.345-5.489-3.713-2.241-6.913-.966,1.849-4.745-.3-3.766,2.809-4.68-3.625-2.604.737-3.849.46-3.672-8.639-2.09,1.042-3.926,4.986-4.145-4.902-3.277-.624-3.678,3.489-3.58-.753-3.631-4.569-4.165,3.031-3.367,1.545-3.462,2.801-3.089,3.338-2.775-3.408-4.77.48-3.721,3.563-2.529-1.207-4.486.527-3.857,6.902-.568-3.104-5.849,8.617.909-1.274-4.983,3.433-1.994-3.855-7.203,8.173,1.576.37-4.262-1.914-6.347,4.108-1.341,5.533.11-1.613-6.539,2.991-2.242,7.961,2.962,1.083-4.047-.793-6.264,4.015-.976,3.663-1.298.417-5.229,4.893.273,5.093.692-1.727-8.329,7.908,4.674-1.886-8.905,8.148,5.418,1.293-4.492,3.264-1.583,1.551-4.281,2.111-3.492,5.008,1.26,3.359-1.4,1.216-5.139,5.97,3.238,3.52-1.027,2.88-2.204.772-6.312,5.946,3.717-.635-9.398,4.528.972,3.126-1.894,2.82-2.584,4.892,2.035,3.81-.276,2.427-3.509,5.211,3.196.471-8.534,4.879,2.534,2.663-3.202,5.323,4.171,1.515-6.589,4.793,3.046,1.973-5.729,4.608,2.919,3.735.319,3.329-1.003,3.009-2.615,3.795,2.056,3.412-.587,3.315-3.358,3.632,1.966,3.531-5.155,3.534,6.035,3.752-5.704,3.682-.697,3.106,7.687,3.927-4.352,3.49,1.34,4.276-5.79,2.798,7.142,3.964-2.458,3.958-1.956,3.687.071,2.101,9.37,4.215-3.251,2.994,3.522,4.654-4.968,3.981-1.262,2.876,3.899,4.016-1.292,1.785,8.148,3.75-.26,4.848-4.417,1.705,7.668,6.044-8.428,3.149,2.279,3.045,2.552,3.969-.568,1.016,8.927,6.11-7.266,2.321,4.587,1.663,6.317,6.521-7.759,1.698,6.052,2.401,3.904,3.739.261,5.279-3.617,1.513,6,5.532-3.972,2.222,4.112,3.649.694,3.849.285,2.837,2.557,1.705,4.915,5.607-3.353,2.091,4.009,4.256-.379.502,6.932,5.512-2.707,1.561,4.716,3.341,1.405,1.698,4.258,7.594-5.775,1.388,4.776,1.024,5.197,4.444-.262.125,6.337,3.93.547,2.844,2.163,3.236,1.618,2.724,2.326,2.094,3.122,7.059-3.118-1.126,7.076,6.416-2.006,1.973,2.826-2.098-.827,3.927-1.153,3.496-1.453,1.903-3.377,5.785,1.544-2.151-8.758,7.734,4.378-1.237-7.905,6.489,3.003,3.036-1.878-.637-7.559,5.457,1.817,2.588-2.665,4.848,1.098-.633-8.232,3.827-.651,4.037-.202,2.835-2.375,2.168-3.697,6.68,5.13,1.121-5.808,5.536,3.176,2.255-3.597.749-7.017,5.379,3.129,1.241-6.199,4.598,1.519,5.205,3.152,1.146-6.755,5.297,3.606,2.11-4.523,3.399-1.215,3.42-1.156,2.019-5.148,5.983,6.256,1.703-6.228,5.175,4.246,3.466-.902,3.102-2.087,2.423-4.45,2.322-5.016,3.916.473,4.952,4.43,2.151-5.994,3.884.563,4.634,3.775,3.602-.305,3.055-2.714,3.781.509,2.186-7.164,4.966,6.445,2.806-4.453,4.075,2.346,2.964-4,3.066-3.8,4.143,3.199,3.008-4.737,3.915,1.964,3.334-2.9,3.734.602,3.934,3.33,3.287-4.996,3.743,1.266,3.864,7.196,3.457-6.424,3.634.752,3.387,5.697,3.764-3.904,3.96-3.004,2.474,7.761,5.231-7.913,2.93,3.712,2.12,5.908,3.704-.026,2.681,3.289,6.484-8.045.898,8.416,4.918-2.965,2.012,4.871,4.799-2.342,2.983,2.293,4.112-.421,2.867,2.528,3.387,1.314,2.232,3.819,1.812,4.585,6.491-5.17,3.553,1.045,1.998,4.109,4.857-1.453.967,5.927,1.098,5.489,3.147,1.682,5.716-2.752.729,5.869,6.534-3.868,4.164.212,1.908,3.827-.395,7.246,2.271,3.021,3.587,1.06,3.82.78,5.336-1.231,1.68,3.826,2.635,2.498,3.029,1.985,5.428-.93.129,5.541,1.793,3.436,4.322.56,3.576,1.482-.286,5.551,6.129-1.07,1.203,3.932,1.025,3.999,5.619-.179,1.977,3.153-.892,5.451,4.917.724,3.355,2.078-4.482,7.621,4.159,1.442,3.653,1.923,5.307,1.106-.415,4.461,2.733,2.724-1.137,4.587,6.131,1.34-1.272,4.514-.907,4.184-1.969,4.329,4.81,2.362-3.749,4.504,5.512,2.547-4.452,4.246.507,3.4,1.171,3.385,2.716,3.457.237,3.593,4.192,3.919-8.352,2.833.584,3.584,6.786,4.881-8.153,1.979.644,3.805-1.157,3.367,4.964,5.492-7.963.976,3.205,5.191-4.727,1.899-3.018,2.568,2.579,5.15-5.862,1.241-3.142,2.491,6.464,7.018-4.722,1.75-3.583,2.275-.328,3.831-5.579,1.29,2.64,5.281-.819,3.607-.805,3.619-2.242,2.908-2.967,2.538.437,4.254-6.063.951,5.44,6.834-9.231-.714-1.586,3.218,5.6,7-9.321-.853-1.774,3.117,3.688,6.058-5.266,1.244,3.62,6.075-8.192-.393-.063,4.07,3.276,5.957-2.633,2.663-4.995,1.309,2.269,5.454-3.96,1.883-3.335,2.226-2.271,2.839.488,4.477-4.169,1.704-1.698,3.177-2.26,2.835-2.845,2.47-3.313,2.167-.52,3.907,3.21,6.292-1.176,3.543-8.086-.921,2.561,5.962-6.616-.039,4.038,7.006-3.841,1.779-3.285,2.132.801,4.926-4.507,1.277-1.248,3.531-1.005,3.716-1.657,3.265-7.48-.958,3.166,6.778-4.504,1.165-3.12,2.166-3.512,1.851-3.541,1.804-2.659,2.465,4.698,8.264-3.625,1.747-8.556-2.273,3.853,7.774-2.487,2.636-3.258,1.984-1.792,3.214-2.773,2.378.094,4.885-4.241,1.087-3.644,1.58-6.321-.907.196,5.051.368,5.288-7.94-2.604,3.382,8.273-3.997,1.144-6.768-1.696-.465,4.622-2.126,2.963-1.699,3.432-2.291,2.828-3.545,1.462-.739,4.573-3.81,1.146-6.096-1.566,1.151,6.893-3.224,1.773-4.59.058-1.753,3.555-.685,4.997-2.87,2.231-3.948.773-6.493-2.825.686,7.142-2.515,2.731-7.182-4.218.613,7.429-1.431,4.503-3.775.843-2.317,3.219-3.543,1.189-7.367-5.65-1.669,4.332-.706,6.337-5.477-2.715-1.822,4.415-3.509,1.062-3.785.419-5.178-2.857-1.699,5.077-4.302-1.085-1.835,5.129-4.064-.598-2.493,3.74-4.191-1.143-3.714.129-3.333,1.314-3.12,2.128-3.387,1.253-4.046-1.45-3.101,2.456-3.244,2.047-3.171,2.697-4.191-2.964-3.74-.793-3.422,1.264-3.632-.329-3.679-1.092-2.901,8.147-4.118-7.209-3.584-.968-3.466,2.083-3.571-1.809-3.567,1.433-3.546,3.412-3.546,2.983-3.588-1.44-3.558,1.53-3.575-.27-3.565.55-3.691-7.508-3.431,8.172-3.549.32-3.712-5.324-3.433,5.916-3.655-1.759-3.579-4.434-3.574,1.991-3.569-1.64-3.581,2.788-3.557-3.5-3.587,3.912-3.562-3.226-3.594,5.336-3.559-4.657-3.582.927ZM883.754,431.049l-3.842-.037-2.193-4.496-3.336-1.479-3.247-1.771-4.319,1.541-4.319,1.79-3.708-.042-3.159-1.935-3.728.132-2.013-6.662-3.326-1.742-4.921,5.365-3.482-.772-1.851-9.175-4.743,5.558-3.677.181-3.567-.397-2.653-6.81-3.73.277-4.185,4.344-3.776,1.56-3.124-5.019-3.584-.694-3.442-2.944-3.628-.766-3.712.884-3.702,1.385-3.691,2.658-3.572-4.547-3.658.151-3.559,6.345-3.61-.92-3.752-4.023-3.447,4.046-3.546.984-3.725-1.752-3.486,1.683-3.556.61-3.625-.107-3.251,3.238-3.894-2.358-3.616.12-3.66-.127-4.311-4.178-2.462,7.446-4.479-4.693-2.445,6.705-4.177-2.654-3.131,2.695-3.789-.5-2.865,3.66-4.069-1.634-2.735,3.945-4.22-2.052-4.036-1.149-4.065-1.107-2.274,5.277-2.797,3.234-3.206,1.76-5.504-5.568-4.301-1.475-2.936,2.753-1.079,8.064-3.899-.286-5.4-4.349-1.513,6.384-3.681.446-4.432-1.437-3.415,1.235-1.854,5.055-3.678.54-1.938,4.644-7.006-7.088-1.319,6.008-3.277,1.526-4.008-.049-4.363-.735-.907,6.498-4.986-1.962-.624,6.852-5.804-3.463-2.15,3.733-5.617-2.874-2.85,2.409-3.36,1.457-.952,5.769-3.073,1.906-5.626-2.506,1.772,10.197-7.283-5.193-1.705,4.195-2.721,2.48-2.218,3.26-1.903,3.708-3.727.849-2.102,3.339-4.855-.795-1.098,4.785-6.195-2.628-4.181.369-2.258,3.098-1.991,3.432.296,6.463-4.945-.604-6.247-2.2-2.587,2.62-2.598,2.593-1.076,4.452-1.715,3.604-6.056-1.581,1.397,7.218-5.954-1.338-1.403,3.888-.365,4.947-5.772-.874,3.239-1.779-8.057,4.381,2.385-7.927-3.714-1.245-.256-5.202-4.272-.571-7.185,3.006-.224-5.332.444-6.282-4.657.059-2.374-2.814-3.026-1.977-7.044,3.415,1.353-7.838-4.854.569.14-6.378-6.178,2.529-1.28-4.451-5.451,1.644,1.007-7.955-3.715-.929-3.019-1.977-3.284-1.558-2.276-3.162-2.972-2.067-7.475,5.407-1.843-3.862-1.235-4.977-5.374,2.146-2.522-2.788-.54-6.409-4.335.409-5.963,3.535-1.516-4.756-2.706-2.559-1.323-5.328-4.45.83-2.492-3.096-2.715-2.69-6.718,5.808-2.563-2.943-1.036-6.395-5.186,2.812-3.487-.941-1.948-4.565-3.685-.503-5.178,3.233-2.364-3.681-3-2.146-2.615-3.21-2.5-3.622-4.965,3.144-3.624-.473-2.602-3.446-4.306,1.59h-3.746s-1.642-6.698-1.642-6.698l-5.048,4.246-1.202-8.581-4.503,2.593-3.006-2.642-5.35,6.138-1.593-8.143-4.063,1.41-4.752,4.542-2.964-2.963-2.604-4.846-4.658,4.81-3.371-1.245-2.097-8.22-3.947,1.528-4.39,4.497-3.218-2.455-3.337-1.897-4.049,3.247-3.122-3.693-3.15-4.061-4.373,7.271-2.763-8.744-4.277,8.017-2.907-9.331-3.803,2.77-3.579-.653-3.705,2.624-3.622,1.742-3.511-3.74-3.599-.531-3.567,3.859-3.687-5.692-3.654-.694-3.609.725-3.327,5.413-3.979-5.773-2.924,8.941-3.789-2.531-3.514.728-3.407,1.556-4.027-3.388-3.748-.77-3.223,2.789-4.367-4.296-2.204,8.254-4.283-3.391-3.111,2.734-4.741-4.841-2.245,6.391-4.541-3.424-2.281,5.618-4.542-3.02-3.845-.241-3.431,1.231-2.865,2.993-4.245-1.313-3.372,1.406-2.367,4.162-4.121-.718-1.527,6.061" style="fill: none; stroke: #000; stroke-linecap: round; stroke-linejoin: round; stroke-width: 35px;"/>
</svg>