<?xml version="1.0" encoding="UTF-8"?>
<svg id="Sticker" xmlns="http://www.w3.org/2000/svg" width="1000" height="1000" viewBox="0 0 1000 1000">
  <polygon points="843.308 843.309 839.943 842.86 836.349 845.315 832.754 848.286 829.159 840.076 825.563 845.504 821.965 846.506 818.369 839.999 814.773 844.311 811.178 844.951 807.583 840.381 803.989 841.011 800.396 847.268 796.803 842.321 793.21 843.382 789.618 844.026 786.026 838.74 782.434 841.509 778.843 838.68 775.251 840.417 771.66 842.399 768.069 845.53 764.477 844.54 760.886 841.973 757.294 847.808 753.703 840.302 750.11 843.807 746.518 843.988 742.925 839.323 739.332 839.941 735.738 847.315 732.143 846.265 728.548 847.218 724.952 842.61 721.355 839.034 717.758 843.591 714.16 841.307 710.564 841.008 706.968 845.77 703.372 842.244 699.777 842.42 696.183 846.544 692.589 839.226 688.996 844.104 685.402 842.007 681.809 841.268 678.216 843.24 674.624 844.922 671.031 845.212 667.437 846.618 663.844 844.007 660.25 848.305 656.656 847.703 653.062 843.043 649.467 846.114 645.871 841.997 642.274 841.596 638.677 839.57 635.078 842.171 631.48 848 627.883 840.766 624.287 847.378 620.691 838.882 617.096 843.105 613.501 840.871 609.907 846.431 606.312 847.346 602.718 841.405 599.124 844.39 595.53 839.244 591.935 840.416 588.34 845.329 584.744 845.994 581.148 840.844 577.551 844.912 573.954 846.786 570.355 838.566 566.756 838.976 563.159 841.516 559.562 844.959 555.966 845.174 552.37 843.636 548.775 840.159 545.179 842.332 541.584 847.311 537.989 839.974 534.393 843.696 530.797 845.496 527.2 844.727 523.603 843.641 520.004 847.708 516.405 842.298 512.807 847.143 509.209 842.645 505.612 839.221 502.016 841.913 498.419 843.181 494.823 844.764 491.227 842.168 487.631 839.377 484.034 846.808 480.436 844.599 476.837 842.4 473.238 841.162 469.639 846.618 466.041 839.307 462.444 840.056 458.847 843.344 455.25 848.254 451.653 847.097 448.056 842.122 444.458 838.933 440.859 845.286 437.259 847.536 433.66 842.959 430.062 845.929 426.465 838.863 422.867 847.741 419.27 845.648 415.672 842.656 412.073 841.444 408.474 843.503 404.874 841.944 401.276 841.954 397.678 844.923 394.08 839.424 390.482 843.648 386.883 840.768 383.283 848.465 379.684 847.115 376.085 843.229 372.487 846.72 368.888 846.356 365.289 845.523 361.69 846.489 358.09 848.213 354.491 841.19 350.892 842.455 347.298 845.093 343.705 839.632 340.111 842.695 336.517 841.346 332.921 841.777 329.323 848.204 325.722 847.525 322.123 842.354 318.526 846.041 314.93 844.086 311.335 840.31 307.738 841.825 304.141 843.145 300.541 840.23 296.94 841.298 293.342 839.207 289.744 844.217 286.147 843.602 282.548 840.885 278.947 845.463 275.347 840.289 271.748 844.311 268.149 846.356 264.549 842.049 260.947 848.07 257.347 844.207 253.747 841.143 250.146 844.528 246.544 840.264 242.944 841.513 239.343 841.918 235.741 839.869 232.14 848.266 228.537 843.064 224.936 843.826 221.333 841.502 217.731 840.015 214.128 840.695 210.53 839.178 206.927 841.187 203.329 840.853 199.726 843.36 196.126 839.917 192.522 841.769 188.92 840.172 185.316 841.529 181.711 839.156 178.106 839.868 174.501 841.678 170.896 845.438 167.292 842.121 163.686 842.57 160.075 840.085 156.315 843.686 158.204 839.943 152.803 836.349 157.956 832.754 155.827 829.159 160.411 825.563 151.811 821.965 155.881 818.369 157.345 814.773 153.675 811.178 159.805 807.583 154.369 803.989 157.383 800.396 156.106 796.803 158.596 793.21 160.817 789.618 159.109 786.026 157.154 782.434 153.803 778.843 153.343 775.251 158.131 771.66 153.74 768.069 158.82 764.477 156.47 760.886 153.571 757.294 154.804 753.703 156.339 750.11 160.709 746.518 152.782 742.925 153.963 739.332 153.382 735.738 153.211 732.143 153.16 728.548 154.956 724.952 160.751 721.355 151.68 717.758 159.481 714.16 159.574 710.564 152.857 706.968 158.742 703.372 160.203 699.777 152.755 696.183 158.859 692.589 158.94 688.996 161.17 685.402 154.539 681.809 161.044 678.216 155.561 674.624 160.161 671.031 153.56 667.437 161.394 663.844 159.476 660.25 160.708 656.656 151.772 653.062 152.273 649.467 157.17 645.871 158.632 642.274 155.093 638.677 152.174 635.078 160.169 631.48 159.735 627.883 159.652 624.287 152.46 620.691 153.035 617.096 152.08 613.501 158.334 609.907 156.039 606.312 152.125 602.718 161.295 599.124 157.3 595.53 153.911 591.935 152.3 588.34 152.341 584.744 157.175 581.148 160.525 577.551 153.766 573.954 156.194 570.355 158.6 566.756 153.878 563.159 156.246 559.562 154.852 555.966 156.814 552.37 161.3 548.775 152.66 545.179 153.127 541.584 154.977 537.989 156.861 534.393 159.503 530.797 160.653 527.2 160.905 523.603 161.337 520.004 156.113 516.405 152.539 512.807 156.914 509.209 160.667 505.612 160.01 502.016 152.123 498.419 157.455 494.823 153.85 491.227 160.5 487.631 154.244 484.034 154.23 480.436 156.21 476.837 157.725 473.238 152.478 469.639 153.476 466.041 158.969 462.444 159.353 458.847 158.791 455.25 155.103 451.653 161.069 448.056 152.088 444.458 159.008 440.859 158.379 437.259 154.172 433.66 160.198 430.062 152.584 426.465 153.84 422.867 156.79 419.27 158.233 415.672 160.071 412.073 156.126 408.474 158.464 404.874 160.14 401.276 156.747 397.678 157.407 394.08 159.944 390.482 151.945 386.883 155.835 383.283 156.126 379.684 160.306 376.085 160.199 372.487 159.742 368.888 160.695 365.289 156.93 361.69 153.373 358.09 152.771 354.491 152.885 350.892 159.297 347.298 158.393 343.705 153.733 340.111 160.549 336.517 152.526 332.921 159.491 329.323 151.895 325.722 154.404 322.123 151.6 318.526 151.579 314.93 154.711 311.335 158.537 307.738 152.203 304.141 155.31 300.541 160.761 296.94 159.327 293.342 159.127 289.744 156.037 286.147 156.352 282.548 152.477 278.947 158.169 275.347 153.838 271.748 159.199 268.149 152.839 264.549 152.463 260.947 156.806 257.347 157.64 253.747 156.712 250.146 159.182 246.544 154.789 242.944 158.812 239.343 161.318 235.741 157.55 232.14 155.766 228.537 154.232 224.936 161.126 221.333 154.098 217.731 152.046 214.128 156.217 210.53 155.726 206.927 156.111 203.329 158.48 199.726 153.578 196.126 158.925 192.522 159.183 188.92 159.873 185.316 160.035 181.711 153.767 178.106 159.84 174.501 159.779 170.896 153.782 167.292 153.157 163.686 159.159 160.075 157.464 157.459 160.057 151.637 163.651 160.778 167.246 158.319 170.841 158.093 174.437 156.227 178.035 151.985 181.631 152.018 185.227 154.705 188.822 159.632 192.417 159.378 196.011 160.709 199.604 158.541 203.197 151.935 206.79 152.713 210.382 157.569 213.974 160.532 217.566 158.112 221.157 157.872 224.749 161.17 228.34 154.767 231.931 151.691 235.523 154.556 239.114 159.748 242.706 158.247 246.297 158.643 249.89 157.395 253.482 158.05 257.075 159.526 260.668 159.904 264.262 160.167 267.857 152.667 271.452 153.426 275.048 156.008 278.645 157.808 282.242 156.806 285.84 154.017 289.436 152.228 293.032 155.907 296.628 160.426 300.223 153.04 303.817 157.699 307.411 152.355 311.004 156.691 314.598 155.972 318.191 156.928 321.784 160.872 325.376 160.661 328.969 152.915 332.563 157.158 336.156 161.053 339.75 161.177 343.344 156.491 346.938 159.997 350.533 154.663 354.129 151.854 357.726 153.945 361.323 160.771 364.922 152.842 368.52 152.142 372.117 155.628 375.713 154.023 379.309 153.913 382.904 154.383 386.499 157.054 390.093 158.608 393.688 156.489 397.282 157.794 400.876 156.726 404.47 160.808 408.065 157.556 411.66 155.33 415.256 156.901 418.852 158.919 422.449 160.229 426.046 154.351 429.645 159.503 433.244 157.733 436.841 160.855 440.438 157.034 444.034 154.349 447.63 156.37 451.225 160.168 454.821 151.473 458.416 151.892 462.011 157.876 465.607 158.171 469.203 159.397 472.8 157.669 476.397 154.043 479.996 157.432 483.595 161.443 487.193 160.621 490.791 153.88 494.388 154.492 497.984 155.936 501.581 152.505 505.177 159.172 508.773 154.062 512.369 152.092 515.966 160.551 519.564 155.568 523.163 155.701 526.762 153.594 530.361 160.583 533.959 152.635 537.556 157.663 541.153 153.482 544.75 152.765 548.347 161.312 551.944 157.601 555.542 156.284 559.141 157.175 562.741 152.202 566.34 154.807 569.938 158.335 573.535 161.398 577.133 153.15 580.73 153.691 584.328 152.206 587.927 157.305 591.526 159.523 595.126 153.174 598.724 156.212 602.322 159.23 605.92 155.654 609.518 151.686 613.117 154.893 616.717 160.714 620.316 160.869 623.915 152.459 627.513 161.445 631.112 152.015 634.711 158.545 638.31 158.795 641.91 158.017 645.509 155.568 649.108 151.628 652.702 154.012 656.295 154.813 659.889 151.574 663.483 153.061 667.079 155.736 670.677 153.948 674.278 160.923 677.877 154.544 681.474 159.242 685.07 158.975 688.665 157.623 692.262 152.075 695.859 159.52 699.459 156.053 703.06 157.931 706.658 151.709 710.256 156.765 713.853 157.648 717.452 158.366 721.053 153.962 724.653 154.967 728.252 154.755 731.851 159.804 735.451 160.311 739.053 158.299 742.653 158.537 746.253 159.827 749.854 160.217 753.456 154.981 757.056 157.338 760.657 160.525 764.259 152.116 767.86 153.315 771.463 160.013 775.064 153.937 778.667 156.817 782.269 159.575 785.872 151.495 789.47 152.308 793.073 156.722 796.671 152.437 800.274 151.548 803.874 155.369 807.478 159.347 811.08 153.645 814.684 152.642 818.289 151.808 821.894 158.539 825.499 159.588 829.104 157.888 832.708 157.128 836.314 151.859 839.925 153.489 844.593 155.402 844.915 160.057 842.458 163.651 847.113 167.246 843.013 170.841 845.12 174.437 840.505 178.035 847.913 181.631 843.768 185.227 838.689 188.822 846.244 192.417 845.699 196.011 848.314 199.604 839.955 203.197 845.148 206.79 846.881 210.382 843.663 213.974 844.766 217.566 844.498 221.157 841.958 224.749 844.859 228.34 848.373 231.931 841.904 235.523 846.262 239.114 840.382 242.706 841.611 246.297 838.613 249.89 842.284 253.482 839.995 257.075 843.197 260.668 839.164 264.262 843.899 267.857 839.098 271.452 840.945 275.048 843.953 278.645 847.783 282.242 838.645 285.84 839.739 289.436 846.267 293.032 842.367 296.628 844.689 300.223 839.03 303.817 840.36 307.411 839.615 311.004 846.625 314.598 847.72 318.191 842.123 321.784 839.944 325.376 848.179 328.969 839.207 332.563 838.913 336.156 845.606 339.75 840.218 343.344 844.427 346.938 840.106 350.533 842.838 354.129 839.437 357.726 845.691 361.323 844.935 364.922 848.093 368.52 841.99 372.117 839.134 375.713 839.179 379.309 838.666 382.904 846.121 386.499 838.603 390.093 847.253 393.688 843.028 397.282 842.864 400.876 838.761 404.47 841.282 408.065 841.178 411.66 838.874 415.256 840.265 418.852 843.701 422.449 840.329 426.046 840.441 429.645 844.79 433.244 844.961 436.841 846.236 440.438 842.769 444.034 842.737 447.63 842.883 451.225 845.482 454.821 843.565 458.416 841.428 462.011 845.252 465.607 839.036 469.203 845.004 472.8 846.603 476.397 842.178 479.996 842.391 483.595 843.147 487.193 845.023 490.791 839.818 494.388 842.592 497.984 838.848 501.581 841.014 505.177 841.999 508.773 847.482 512.369 839.238 515.966 844.728 519.564 841.323 523.163 847.455 526.762 843.835 530.361 844.976 533.959 846.299 537.556 845.052 541.153 844.344 544.75 844.411 548.347 846.074 551.944 842.694 555.542 842.211 559.141 839.889 562.741 839.331 566.34 843.874 569.938 842.998 573.535 845.824 577.133 838.898 580.73 848.121 584.328 841.628 587.927 843.335 591.526 838.655 595.126 845.044 598.724 847.582 602.322 843.015 605.92 844.277 609.518 847.769 613.117 844.09 616.717 844.119 620.316 844.395 623.915 841.086 627.513 840.396 631.112 847.993 634.711 843.728 638.31 844.617 641.91 841.147 645.509 838.555 649.108 844.748 652.702 846.305 656.295 841.978 659.889 847.639 663.483 839.442 667.079 846.566 670.677 845.345 674.278 848.01 677.877 847.741 681.474 848.381 685.07 845.677 688.665 841.874 692.262 844.162 695.859 843.668 699.459 847.913 703.06 847.687 706.658 839.24 710.256 841.23 713.853 848.469 717.452 843.072 721.053 847.313 724.653 846.602 728.252 842.716 731.851 846.67 735.451 847.206 739.053 839.1 742.653 848.029 746.253 846.722 749.854 847.395 753.456 846.397 757.056 846.448 760.657 839.207 764.259 842.204 767.86 841.922 771.463 846.052 775.064 843.343 778.667 840.603 782.269 845.413 785.872 845.073 789.47 847.257 793.073 844.161 796.671 841.917 800.274 847.827 803.874 841.652 807.478 845.722 811.08 839.567 814.684 846.529 818.289 844.27 821.894 845.373 825.499 841.441 829.104 848.047 832.708 842.97 836.314 845.249 839.981 843.308 843.309"/>
  <polygon points="843.308 843.309 839.943 842.86 836.349 845.315 832.754 848.286 829.159 840.076 825.563 845.504 821.965 846.506 818.369 839.999 814.773 844.311 811.178 844.951 807.583 840.381 803.989 841.011 800.396 847.268 796.803 842.321 793.21 843.382 789.618 844.026 786.026 838.74 782.434 841.509 778.843 838.68 775.251 840.417 771.66 842.399 768.069 845.53 764.477 844.54 760.886 841.973 757.294 847.808 753.703 840.302 750.11 843.807 746.518 843.988 742.925 839.323 739.332 839.941 735.738 847.315 732.143 846.265 728.548 847.218 724.952 842.61 721.355 839.034 717.758 843.591 714.16 841.307 710.564 841.008 706.968 845.77 703.372 842.244 699.777 842.42 696.183 846.544 692.589 839.226 688.996 844.104 685.402 842.007 681.809 841.268 678.216 843.24 674.624 844.922 671.031 845.212 667.437 846.618 663.844 844.007 660.25 848.305 656.656 847.703 653.062 843.043 649.467 846.114 645.871 841.997 642.274 841.596 638.677 839.57 635.078 842.171 631.48 848 627.883 840.766 624.287 847.378 620.691 838.882 617.096 843.105 613.501 840.871 609.907 846.431 606.312 847.346 602.718 841.405 599.124 844.39 595.53 839.244 591.935 840.416 588.34 845.329 584.744 845.994 581.148 840.844 577.551 844.912 573.954 846.786 570.355 838.566 566.756 838.976 563.159 841.516 559.562 844.959 555.966 845.174 552.37 843.636 548.775 840.159 545.179 842.332 541.584 847.311 537.989 839.974 534.393 843.696 530.797 845.496 527.2 844.727 523.603 843.641 520.004 847.708 516.405 842.298 512.807 847.143 509.209 842.645 505.612 839.221 502.016 841.913 498.419 843.181 494.823 844.764 491.227 842.168 487.631 839.377 484.034 846.808 480.436 844.599 476.837 842.4 473.238 841.162 469.639 846.618 466.041 839.307 462.444 840.056 458.847 843.344 455.25 848.254 451.653 847.097 448.056 842.122 444.458 838.933 440.859 845.286 437.259 847.536 433.66 842.959 430.062 845.929 426.465 838.863 422.867 847.741 419.27 845.648 415.672 842.656 412.073 841.444 408.474 843.503 404.874 841.944 401.276 841.954 397.678 844.923 394.08 839.424 390.482 843.648 386.883 840.768 383.283 848.465 379.684 847.115 376.085 843.229 372.487 846.72 368.888 846.356 365.289 845.523 361.69 846.489 358.09 848.213 354.491 841.19 350.892 842.455 347.298 845.093 343.705 839.632 340.111 842.695 336.517 841.346 332.921 841.777 329.323 848.204 325.722 847.525 322.123 842.354 318.526 846.041 314.93 844.086 311.335 840.31 307.738 841.825 304.141 843.145 300.541 840.23 296.94 841.298 293.342 839.207 289.744 844.217 286.147 843.602 282.548 840.885 278.947 845.463 275.347 840.289 271.748 844.311 268.149 846.356 264.549 842.049 260.947 848.07 257.347 844.207 253.747 841.143 250.146 844.528 246.544 840.264 242.944 841.513 239.343 841.918 235.741 839.869 232.14 848.266 228.537 843.064 224.936 843.826 221.333 841.502 217.731 840.015 214.128 840.695 210.53 839.178 206.927 841.187 203.329 840.853 199.726 843.36 196.126 839.917 192.522 841.769 188.92 840.172 185.316 841.529 181.711 839.156 178.106 839.868 174.501 841.678 170.896 845.438 167.292 842.121 163.686 842.57 160.075 840.085 156.315 843.686 158.204 839.943 152.803 836.349 157.956 832.754 155.827 829.159 160.411 825.563 151.811 821.965 155.881 818.369 157.345 814.773 153.675 811.178 159.805 807.583 154.369 803.989 157.383 800.396 156.106 796.803 158.596 793.21 160.817 789.618 159.109 786.026 157.154 782.434 153.803 778.843 153.343 775.251 158.131 771.66 153.74 768.069 158.82 764.477 156.47 760.886 153.571 757.294 154.804 753.703 156.339 750.11 160.709 746.518 152.782 742.925 153.963 739.332 153.382 735.738 153.211 732.143 153.16 728.548 154.956 724.952 160.751 721.355 151.68 717.758 159.481 714.16 159.574 710.564 152.857 706.968 158.742 703.372 160.203 699.777 152.755 696.183 158.859 692.589 158.94 688.996 161.17 685.402 154.539 681.809 161.044 678.216 155.561 674.624 160.161 671.031 153.56 667.437 161.394 663.844 159.476 660.25 160.708 656.656 151.772 653.062 152.273 649.467 157.17 645.871 158.632 642.274 155.093 638.677 152.174 635.078 160.169 631.48 159.735 627.883 159.652 624.287 152.46 620.691 153.035 617.096 152.08 613.501 158.334 609.907 156.039 606.312 152.125 602.718 161.295 599.124 157.3 595.53 153.911 591.935 152.3 588.34 152.341 584.744 157.175 581.148 160.525 577.551 153.766 573.954 156.194 570.355 158.6 566.756 153.878 563.159 156.246 559.562 154.852 555.966 156.814 552.37 161.3 548.775 152.66 545.179 153.127 541.584 154.977 537.989 156.861 534.393 159.503 530.797 160.653 527.2 160.905 523.603 161.337 520.004 156.113 516.405 152.539 512.807 156.914 509.209 160.667 505.612 160.01 502.016 152.123 498.419 157.455 494.823 153.85 491.227 160.5 487.631 154.244 484.034 154.23 480.436 156.21 476.837 157.725 473.238 152.478 469.639 153.476 466.041 158.969 462.444 159.353 458.847 158.791 455.25 155.103 451.653 161.069 448.056 152.088 444.458 159.008 440.859 158.379 437.259 154.172 433.66 160.198 430.062 152.584 426.465 153.84 422.867 156.79 419.27 158.233 415.672 160.071 412.073 156.126 408.474 158.464 404.874 160.14 401.276 156.747 397.678 157.407 394.08 159.944 390.482 151.945 386.883 155.835 383.283 156.126 379.684 160.306 376.085 160.199 372.487 159.742 368.888 160.695 365.289 156.93 361.69 153.373 358.09 152.771 354.491 152.885 350.892 159.297 347.298 158.393 343.705 153.733 340.111 160.549 336.517 152.526 332.921 159.491 329.323 151.895 325.722 154.404 322.123 151.6 318.526 151.579 314.93 154.711 311.335 158.537 307.738 152.203 304.141 155.31 300.541 160.761 296.94 159.327 293.342 159.127 289.744 156.037 286.147 156.352 282.548 152.477 278.947 158.169 275.347 153.838 271.748 159.199 268.149 152.839 264.549 152.463 260.947 156.806 257.347 157.64 253.747 156.712 250.146 159.182 246.544 154.789 242.944 158.812 239.343 161.318 235.741 157.55 232.14 155.766 228.537 154.232 224.936 161.126 221.333 154.098 217.731 152.046 214.128 156.217 210.53 155.726 206.927 156.111 203.329 158.48 199.726 153.578 196.126 158.925 192.522 159.183 188.92 159.873 185.316 160.035 181.711 153.767 178.106 159.84 174.501 159.779 170.896 153.782 167.292 153.157 163.686 159.159 160.075 157.464 157.459 160.057 151.637 163.651 160.778 167.246 158.319 170.841 158.093 174.437 156.227 178.035 151.985 181.631 152.018 185.227 154.705 188.822 159.632 192.417 159.378 196.011 160.709 199.604 158.541 203.197 151.935 206.79 152.713 210.382 157.569 213.974 160.532 217.566 158.112 221.157 157.872 224.749 161.17 228.34 154.767 231.931 151.691 235.523 154.556 239.114 159.748 242.706 158.247 246.297 158.643 249.89 157.395 253.482 158.05 257.075 159.526 260.668 159.904 264.262 160.167 267.857 152.667 271.452 153.426 275.048 156.008 278.645 157.808 282.242 156.806 285.84 154.017 289.436 152.228 293.032 155.907 296.628 160.426 300.223 153.04 303.817 157.699 307.411 152.355 311.004 156.691 314.598 155.972 318.191 156.928 321.784 160.872 325.376 160.661 328.969 152.915 332.563 157.158 336.156 161.053 339.75 161.177 343.344 156.491 346.938 159.997 350.533 154.663 354.129 151.854 357.726 153.945 361.323 160.771 364.922 152.842 368.52 152.142 372.117 155.628 375.713 154.023 379.309 153.913 382.904 154.383 386.499 157.054 390.093 158.608 393.688 156.489 397.282 157.794 400.876 156.726 404.47 160.808 408.065 157.556 411.66 155.33 415.256 156.901 418.852 158.919 422.449 160.229 426.046 154.351 429.645 159.503 433.244 157.733 436.841 160.855 440.438 157.034 444.034 154.349 447.63 156.37 451.225 160.168 454.821 151.473 458.416 151.892 462.011 157.876 465.607 158.171 469.203 159.397 472.8 157.669 476.397 154.043 479.996 157.432 483.595 161.443 487.193 160.621 490.791 153.88 494.388 154.492 497.984 155.936 501.581 152.505 505.177 159.172 508.773 154.062 512.369 152.092 515.966 160.551 519.564 155.568 523.163 155.701 526.762 153.594 530.361 160.583 533.959 152.635 537.556 157.663 541.153 153.482 544.75 152.765 548.347 161.312 551.944 157.601 555.542 156.284 559.141 157.175 562.741 152.202 566.34 154.807 569.938 158.335 573.535 161.398 577.133 153.15 580.73 153.691 584.328 152.206 587.927 157.305 591.526 159.523 595.126 153.174 598.724 156.212 602.322 159.23 605.92 155.654 609.518 151.686 613.117 154.893 616.717 160.714 620.316 160.869 623.915 152.459 627.513 161.445 631.112 152.015 634.711 158.545 638.31 158.795 641.91 158.017 645.509 155.568 649.108 151.628 652.702 154.012 656.295 154.813 659.889 151.574 663.483 153.061 667.079 155.736 670.677 153.948 674.278 160.923 677.877 154.544 681.474 159.242 685.07 158.975 688.665 157.623 692.262 152.075 695.859 159.52 699.459 156.053 703.06 157.931 706.658 151.709 710.256 156.765 713.853 157.648 717.452 158.366 721.053 153.962 724.653 154.967 728.252 154.755 731.851 159.804 735.451 160.311 739.053 158.299 742.653 158.537 746.253 159.827 749.854 160.217 753.456 154.981 757.056 157.338 760.657 160.525 764.259 152.116 767.86 153.315 771.463 160.013 775.064 153.937 778.667 156.817 782.269 159.575 785.872 151.495 789.47 152.308 793.073 156.722 796.671 152.437 800.274 151.548 803.874 155.369 807.478 159.347 811.08 153.645 814.684 152.642 818.289 151.808 821.894 158.539 825.499 159.588 829.104 157.888 832.708 157.128 836.314 151.859 839.925 153.489 844.593 155.402 844.915 160.057 842.458 163.651 847.113 167.246 843.013 170.841 845.12 174.437 840.505 178.035 847.913 181.631 843.768 185.227 838.689 188.822 846.244 192.417 845.699 196.011 848.314 199.604 839.955 203.197 845.148 206.79 846.881 210.382 843.663 213.974 844.766 217.566 844.498 221.157 841.958 224.749 844.859 228.34 848.373 231.931 841.904 235.523 846.262 239.114 840.382 242.706 841.611 246.297 838.613 249.89 842.284 253.482 839.995 257.075 843.197 260.668 839.164 264.262 843.899 267.857 839.098 271.452 840.945 275.048 843.953 278.645 847.783 282.242 838.645 285.84 839.739 289.436 846.267 293.032 842.367 296.628 844.689 300.223 839.03 303.817 840.36 307.411 839.615 311.004 846.625 314.598 847.72 318.191 842.123 321.784 839.944 325.376 848.179 328.969 839.207 332.563 838.913 336.156 845.606 339.75 840.218 343.344 844.427 346.938 840.106 350.533 842.838 354.129 839.437 357.726 845.691 361.323 844.935 364.922 848.093 368.52 841.99 372.117 839.134 375.713 839.179 379.309 838.666 382.904 846.121 386.499 838.603 390.093 847.253 393.688 843.028 397.282 842.864 400.876 838.761 404.47 841.282 408.065 841.178 411.66 838.874 415.256 840.265 418.852 843.701 422.449 840.329 426.046 840.441 429.645 844.79 433.244 844.961 436.841 846.236 440.438 842.769 444.034 842.737 447.63 842.883 451.225 845.482 454.821 843.565 458.416 841.428 462.011 845.252 465.607 839.036 469.203 845.004 472.8 846.603 476.397 842.178 479.996 842.391 483.595 843.147 487.193 845.023 490.791 839.818 494.388 842.592 497.984 838.848 501.581 841.014 505.177 841.999 508.773 847.482 512.369 839.238 515.966 844.728 519.564 841.323 523.163 847.455 526.762 843.835 530.361 844.976 533.959 846.299 537.556 845.052 541.153 844.344 544.75 844.411 548.347 846.074 551.944 842.694 555.542 842.211 559.141 839.889 562.741 839.331 566.34 843.874 569.938 842.998 573.535 845.824 577.133 838.898 580.73 848.121 584.328 841.628 587.927 843.335 591.526 838.655 595.126 845.044 598.724 847.582 602.322 843.015 605.92 844.277 609.518 847.769 613.117 844.09 616.717 844.119 620.316 844.395 623.915 841.086 627.513 840.396 631.112 847.993 634.711 843.728 638.31 844.617 641.91 841.147 645.509 838.555 649.108 844.748 652.702 846.305 656.295 841.978 659.889 847.639 663.483 839.442 667.079 846.566 670.677 845.345 674.278 848.01 677.877 847.741 681.474 848.381 685.07 845.677 688.665 841.874 692.262 844.162 695.859 843.668 699.459 847.913 703.06 847.687 706.658 839.24 710.256 841.23 713.853 848.469 717.452 843.072 721.053 847.313 724.653 846.602 728.252 842.716 731.851 846.67 735.451 847.206 739.053 839.1 742.653 848.029 746.253 846.722 749.854 847.395 753.456 846.397 757.056 846.448 760.657 839.207 764.259 842.204 767.86 841.922 771.463 846.052 775.064 843.343 778.667 840.603 782.269 845.413 785.872 845.073 789.47 847.257 793.073 844.161 796.671 841.917 800.274 847.827 803.874 841.652 807.478 845.722 811.08 839.567 814.684 846.529 818.289 844.27 821.894 845.373 825.499 841.441 829.104 848.047 832.708 842.97 836.314 845.249 839.981 843.308 843.309" style="fill: none; stroke: #000; stroke-linecap: round; stroke-linejoin: round; stroke-width: 30px;"/>
</svg>