<?xml version="1.0" encoding="UTF-8"?>
<svg id="Sticker" xmlns="http://www.w3.org/2000/svg" width="1000" height="1000" viewBox="0 0 1000 1000">
  <polygon points="490.699 500 486.541 496.382 483.295 492.691 490.686 489.283 486.187 485.504 486.676 481.9 484.451 478.119 482.79 474.326 487.142 471.034 484.336 467.103 490.229 464.088 489.866 460.415 491.537 457.003 489.776 453.108 486.462 448.91 491.359 446.034 496.094 443.23 488.036 438.017 490.671 434.817 497.05 432.485 498.245 429.086 492.562 424.019 495.222 420.93 495.091 417.135 498.892 414.416 499.845 410.933 496.373 406.097 504.329 404.782 505.488 401.391 499.955 395.705 506.111 394.01 509.55 391.438 511.623 388.402 511.677 384.59 512.413 381.022 511.259 376.642 510.677 372.442 516.154 370.904 518.864 368.196 517.914 363.781 517.004 359.317 517.367 355.423 522.424 353.923 520.838 348.986 522.232 345.582 525.599 343.275 530.479 341.885 527.065 335.69 529.187 332.688 534.619 331.747 537.079 329.024 538.802 325.838 542.695 324.091 540.912 318.526 545.177 317.068 548.191 314.787 552.186 313.254 550.172 307.282 556.657 307.681 551.895 299.412 555.131 297.309 561.893 298.13 564.766 295.854 560.986 287.902 563.394 285.136 567.54 283.924 572.823 283.817 575.879 281.743 573.311 274.33 578.419 274.188 580.969 271.607 586.748 272.308 588.846 269.326 586.218 261.308 591.032 261.117 592.878 257.738 597.725 257.713 603.101 258.401 603.675 253.556 605.103 249.629 611.615 251.894 609.467 243.459 611.342 239.926 616.09 240.111 618.239 236.912 625.013 240.015 627.958 237.981 626.65 229.846 629.664 227.778 633.6 227.091 638.795 228.398 643.561 229.185 644.363 223.731 646.853 220.882 648.05 215.812 654.543 219.714 656.139 215.25 660.041 214.824 663.18 213.05 665.688 210.073 670.028 210.602 671.992 206.492 674.017 202.377 680.002 206.468 684.041 206.656 685.064 200.229 689.813 202.043 693.547 201.656 695.409 196.799 698.869 195.716 703.856 198.569 704.237 189.484 705.734 191.463 705.374 190.49 700.537 193.473 698.531 188.208 694.127 190.132 690.45 189.926 689.417 180.92 685.279 182.106 682.631 178.079 679.067 177.248 673.462 184.443 671.449 177.626 666.473 182.96 663.276 180.898 660.067 178.761 656.52 178.158 652.357 180.788 650.177 172.827 646.374 173.5 642.351 175.704 638.614 176.386 635.195 174.97 631.364 176.591 628.406 171.242 624.564 173.082 620.77 174.898 617.786 168.105 613.706 173.526 610.421 169.094 606.964 166.146 603.18 168.764 599.434 171.822 595.972 167.362 592.352 166.577 588.651 172.609 585.069 174.061 581.474 169.295 577.844 167.49 574.438 174.608 570.619 167.612 566.997 167.539 563.662 172.427 560.073 172.258 556.605 173.738 552.54 168.189 549.101 170.2 545.837 173.519 542.126 172.563 537.884 167.687 534.647 170.844 530.73 169.064 527.183 169.907 524.296 174.623 521.377 178.689 516.349 171.268 512.905 172.594 511.211 182.174 507.549 182.011 503.086 178.479 500.712 183.948 496.35 181.164 492.95 182.331 490.479 186.858 486.752 186.713 483.419 187.979 478.254 183.268 475.944 187.92 473.565 192.122 469.491 191.153 466.195 192.525 462.557 192.944 459.984 196.252 456.333 196.649 453.053 198.029 448.434 196.147 446.519 200.844 441.338 197.844 437.443 197.961 436.118 203.751 434.104 207.853 430.622 208.792 425.34 206.133 424.673 212.748 419.013 209.559 416.396 212.287 412.251 212.181 411.244 217.744 405.869 215.542 404.344 220.056 401.741 222.659 398.036 223.444 396.41 227.568 391.823 227.013 391.054 232.342 385.591 230.582 383.278 233.542 380.568 235.899 374.456 233.536 373.457 238.289 372.772 243.346 370.015 245.592 364.68 244.564 361.887 246.829 357.27 246.876 356.928 252.107 352.908 252.928 353.26 258.804 350.296 260.828 344.921 260.226 343.28 263.752 341.02 266.584 338.862 269.505 335.42 271.118 333.256 274.027 330.99 276.823 328.622 279.513 323.116 279.302 326.622 287.359 317.664 284.157 321.403 292.204 317.539 293.577 312.416 293.965 308.525 295.454 306.057 298.129 310.946 306.524 306.922 307.908 300.076 307.261 297.694 310.011 296.853 313.862 293.089 315.646 290.36 318.185 295.813 326.157 294.006 329.21 290.199 330.997 288.584 334.192 285.186 336.309 284.887 340.285 277.912 340.409 283.414 347.62 274.123 346.612 273.754 350.525 277.843 356.687 272.387 357.925 273.819 362.613 265.774 362.749 266.358 367.015 270.187 372.667 264.397 374.03 263.409 377.516 264.993 382.033 256.514 382.531 256.281 386.339 260.369 391.701 257.001 394.293 252.817 396.663 251.937 400.192 252.426 404.147 255.147 408.739 248.753 410.588 255.422 416.207 252.75 419.153 247.071 421.377 250.967 426.035 249.506 429.346 243.477 431.677 244.704 435.63 243.476 439.059 242.563 442.558 241.463 446.032 238.231 449.178 238.22 452.861 242.764 457.152 238.143 460.185 240.932 464.152 244.93 468.168 240.988 471.369 240.969 474.962 239.113 478.426 243.678 482.285 235.359 485.46 241.349 489.299 237.819 492.788 234.301 496.355 235.023 500 242.331 503.555 243.566 507.083 241.479 510.697 243.778 514.164 237.239 518.077 237.01 521.718 237.059 525.348 240.363 528.69 244.086 531.921 244.911 535.403 237.894 539.85 246.902 542.291 246.391 545.939 245.689 549.64 242.012 553.88 242.506 557.458 245.493 560.556 247.105 563.882 250.876 566.717 242.432 572.289 244.694 575.492 250.646 577.724 251.09 581.299 250.773 585.097 250.479 588.92 251.674 592.325 251.533 596.146 258.061 597.811 252.29 603.529 258.271 605.271 260.858 608.133 259.142 612.59 262.666 615.072 260.837 619.663 264.115 622.203 262.808 626.67 265.025 629.642 270.843 630.946 265.608 637.345 272.372 638.105 273.084 641.744 276.847 643.841 272.16 650.334 277.755 651.44 277.234 655.834 280.492 658.139 278.749 663.327 280.918 666.272 286.507 667.106 289.742 669.311 288.75 674.205 291.756 676.547 293.662 679.601 295.446 682.743 299.716 684.131 304.279 685.234 301.721 691.541 306.143 692.706 306.636 696.845 305.944 701.985 315.03 699.292 316.794 702.428 314.035 709.418 318.76 710.111 320.711 713.171 321.33 717.451 323.399 720.462 326.141 722.854 328.744 725.368 333.907 725.359 339.05 725.258 335.207 734.276 341.766 732.66 346.416 732.915 345.994 738.626 347.377 742.463 352.009 742.651 353.694 746.183 353.737 751.721 360.871 748.772 362.553 752.372 365.223 754.775 368.13 756.881 373.676 755.483 371.295 764.668 378.663 760.669 378.258 767.396 384.63 764.53 383.009 773.262 388.963 770.846 392.593 771.822 393.897 776.433 397.812 776.944 402.861 775.51 404.58 779.568 406.214 783.884 412.103 780.752 411.142 789.864 413.747 792.684 417.564 793.239 423.385 789.804 423.994 796.6 428.568 795.476 430.41 800.001 434.874 798.979 437.357 802.251 440.222 804.743 445.402 801.817 447.644 805.794 451.071 806.957 454.38 808.413 457.256 811.031 462.604 806.942 465.892 808.35 469.887 807.703 473.665 807.59 475.317 814.064 479.805 811.706 481.348 819.026 486.962 812.57 489.168 817.938 492.716 818.575 495.3 823.005 499.832 819.705 502.735 823.056 507.698 817.334 510.603 820.733 514.082 821.542 517.004 825.3 520.478 826.342 523.577 829.643 527.594 827.527 531.281 827.254 534.549 829.892 538.007 831.38 542.246 826.449 545.63 828.409 548.919 831.674 552.524 831.996 556.384 829.092 560.009 828.683 563.704 826.86 567.322 825.816 570.817 827.277 574.288 830.486 577.872 830.998 581.458 832.348 585.069 825.835 588.665 828.88 592.335 832.613 596.025 834.501 599.582 832 603.338 834.496 606.738 830.067 610.35 829.925 613.999 830.217 617.526 829.009 621.147 828.927 625.214 832.881 628.074 825.981 631.916 827.68 635.968 830.574 639.399 828.853 642.775 826.941 646.769 828.819 650.361 828.189 654.163 828.653 657.185 825.132 660.853 824.934 663.654 820.79 668.349 825.068 670.445 818.25 673.291 814.876 678.601 820.982 681.607 818.204 683.985 813.378 687.137 811.429 690.281 809.521 694.894 812.251 698.73 812.385 703.654 815.604 704.55 807.183 711.462 808.512 703.703 811.931 700.692 809.559 698.299 805.707 696.066 801.614 690.11 806.428 688.458 801.056 685.677 798.41 680.807 800.344 679.363 794.879 675.254 795.086 671.489 794.512 670.316 788.836 668.241 785.073 662.014 789.11 658.956 787.135 656.467 784.168 653.969 781.272 650.109 780.718 644.831 782.438 642.882 778.643 639.87 776.602 636.331 775.375 636.151 769.072 631.753 769.148 631.592 763.053 625.362 765.65 622.839 762.955 621.044 759.308 618.13 757.195 612.326 758.794 613.26 751.753 611.24 748.552 605.326 750.086 602.559 747.745 597.568 747.974 600.275 739.388 594.64 740.295 589.128 740.93 591.265 733.321 587.444 732.114 585.027 729.425 581.453 727.894 582.023 722.283 576.858 722.269 577.56 716.669 569.725 718.996 567.36 716.219 570.156 708.928 562.98 710.372 561.489 706.874 559.081 704.157 554.942 702.824 556.986 696.579 552.971 695.127 555.121 688.992 550.934 687.645 543.757 688.37 543.572 684.037 546.499 677.639 537.77 679.178 538.508 674.337 537.284 670.829 531.435 670.211 534.275 664.215 532.719 660.956 531.392 657.573 529.365 654.597 521.703 654.69 524.829 648.876 525.479 644.481 518.758 643.861 518.569 639.902 521.498 634.5 513.481 634.276 515.409 629.416 515.467 625.462 510.947 623.476 511.133 619.487 512.514 615.068 505.897 613.772 501.865 611.385 505.546 606.181 508.331 601.409 506.583 598.236 501.738 596.032 498.524 593.236 495.546 590.317 494.335 586.854 497.641 582.173 494.697 579.197 495.849 575.172 497.253 571.137 497.987 567.304 496.269 564.015 492.29 561.146 487.111 558.419 495.544 553.242 490.289 550.473 490.38 546.799 486.398 543.699 493.214 539.163 487.677 536.201 483.513 532.981 491.835 528.54 490.152 525.09 491.047 521.434 488.081 518.021 487.347 514.445 484.732 510.919 488.22 507.2 486.546 503.618 490.699 500" style="fill: #fff;"/>
  <polygon points="490.699 500 486.541 496.382 483.295 492.691 490.686 489.283 486.187 485.504 486.676 481.9 484.451 478.119 482.79 474.326 487.142 471.034 484.336 467.103 490.229 464.088 489.866 460.415 491.537 457.003 489.776 453.108 486.462 448.91 491.359 446.034 496.094 443.23 488.036 438.017 490.671 434.817 497.05 432.485 498.245 429.086 492.562 424.019 495.222 420.93 495.091 417.135 498.892 414.416 499.845 410.933 496.373 406.097 504.329 404.782 505.488 401.391 499.955 395.705 506.111 394.01 509.55 391.438 511.623 388.402 511.677 384.59 512.413 381.022 511.259 376.642 510.677 372.442 516.154 370.904 518.864 368.196 517.914 363.781 517.004 359.317 517.367 355.423 522.424 353.923 520.838 348.986 522.232 345.582 525.599 343.275 530.479 341.885 527.065 335.69 529.187 332.688 534.619 331.747 537.079 329.024 538.802 325.838 542.695 324.091 540.912 318.526 545.177 317.068 548.191 314.787 552.186 313.254 550.172 307.282 556.657 307.681 551.895 299.412 555.131 297.309 561.893 298.13 564.766 295.854 560.986 287.902 563.394 285.136 567.54 283.924 572.823 283.817 575.879 281.743 573.311 274.33 578.419 274.188 580.969 271.607 586.748 272.308 588.846 269.326 586.218 261.308 591.032 261.117 592.878 257.738 597.725 257.713 603.101 258.401 603.675 253.556 605.103 249.629 611.615 251.894 609.467 243.459 611.342 239.926 616.09 240.111 618.239 236.912 625.013 240.015 627.958 237.981 626.65 229.846 629.664 227.778 633.6 227.091 638.795 228.398 643.561 229.185 644.363 223.731 646.853 220.882 648.05 215.812 654.543 219.714 656.139 215.25 660.041 214.824 663.18 213.05 665.688 210.073 670.028 210.602 671.992 206.492 674.017 202.377 680.002 206.468 684.041 206.656 685.064 200.229 689.813 202.043 693.547 201.656 695.409 196.799 698.869 195.716 703.856 198.569 704.237 189.484 705.734 191.463 705.374 190.49 700.537 193.473 698.531 188.208 694.127 190.132 690.45 189.926 689.417 180.92 685.279 182.106 682.631 178.079 679.067 177.248 673.462 184.443 671.449 177.626 666.473 182.96 663.276 180.898 660.067 178.761 656.52 178.158 652.357 180.788 650.177 172.827 646.374 173.5 642.351 175.704 638.614 176.386 635.195 174.97 631.364 176.591 628.406 171.242 624.564 173.082 620.77 174.898 617.786 168.105 613.706 173.526 610.421 169.094 606.964 166.146 603.18 168.764 599.434 171.822 595.972 167.362 592.352 166.577 588.651 172.609 585.069 174.061 581.474 169.295 577.844 167.49 574.438 174.608 570.619 167.612 566.997 167.539 563.662 172.427 560.073 172.258 556.605 173.738 552.54 168.189 549.101 170.2 545.837 173.519 542.126 172.563 537.884 167.687 534.647 170.844 530.73 169.064 527.183 169.907 524.296 174.623 521.377 178.689 516.349 171.268 512.905 172.594 511.211 182.174 507.549 182.011 503.086 178.479 500.712 183.948 496.35 181.164 492.95 182.331 490.479 186.858 486.752 186.713 483.419 187.979 478.254 183.268 475.944 187.92 473.565 192.122 469.491 191.153 466.195 192.525 462.557 192.944 459.984 196.252 456.333 196.649 453.053 198.029 448.434 196.147 446.519 200.844 441.338 197.844 437.443 197.961 436.118 203.751 434.104 207.853 430.622 208.792 425.34 206.133 424.673 212.748 419.013 209.559 416.396 212.287 412.251 212.181 411.244 217.744 405.869 215.542 404.344 220.056 401.741 222.659 398.036 223.444 396.41 227.568 391.823 227.013 391.054 232.342 385.591 230.582 383.278 233.542 380.568 235.899 374.456 233.536 373.457 238.289 372.772 243.346 370.015 245.592 364.68 244.564 361.887 246.829 357.27 246.876 356.928 252.107 352.908 252.928 353.26 258.804 350.296 260.828 344.921 260.226 343.28 263.752 341.02 266.584 338.862 269.505 335.42 271.118 333.256 274.027 330.99 276.823 328.622 279.513 323.116 279.302 326.622 287.359 317.664 284.157 321.403 292.204 317.539 293.577 312.416 293.965 308.525 295.454 306.057 298.129 310.946 306.524 306.922 307.908 300.076 307.261 297.694 310.011 296.853 313.862 293.089 315.646 290.36 318.185 295.813 326.157 294.006 329.21 290.199 330.997 288.584 334.192 285.186 336.309 284.887 340.285 277.912 340.409 283.414 347.62 274.123 346.612 273.754 350.525 277.843 356.687 272.387 357.925 273.819 362.613 265.774 362.749 266.358 367.015 270.187 372.667 264.397 374.03 263.409 377.516 264.993 382.033 256.514 382.531 256.281 386.339 260.369 391.701 257.001 394.293 252.817 396.663 251.937 400.192 252.426 404.147 255.147 408.739 248.753 410.588 255.422 416.207 252.75 419.153 247.071 421.377 250.967 426.035 249.506 429.346 243.477 431.677 244.704 435.63 243.476 439.059 242.563 442.558 241.463 446.032 238.231 449.178 238.22 452.861 242.764 457.152 238.143 460.185 240.932 464.152 244.93 468.168 240.988 471.369 240.969 474.962 239.113 478.426 243.678 482.285 235.359 485.46 241.349 489.299 237.819 492.788 234.301 496.355 235.023 500 242.331 503.555 243.566 507.083 241.479 510.697 243.778 514.164 237.239 518.077 237.01 521.718 237.059 525.348 240.363 528.69 244.086 531.921 244.911 535.403 237.894 539.85 246.902 542.291 246.391 545.939 245.689 549.64 242.012 553.88 242.506 557.458 245.493 560.556 247.105 563.882 250.876 566.717 242.432 572.289 244.694 575.492 250.646 577.724 251.09 581.299 250.773 585.097 250.479 588.92 251.674 592.325 251.533 596.146 258.061 597.811 252.29 603.529 258.271 605.271 260.858 608.133 259.142 612.59 262.666 615.072 260.837 619.663 264.115 622.203 262.808 626.67 265.025 629.642 270.843 630.946 265.608 637.345 272.372 638.105 273.084 641.744 276.847 643.841 272.16 650.334 277.755 651.44 277.234 655.834 280.492 658.139 278.749 663.327 280.918 666.272 286.507 667.106 289.742 669.311 288.75 674.205 291.756 676.547 293.662 679.601 295.446 682.743 299.716 684.131 304.279 685.234 301.721 691.541 306.143 692.706 306.636 696.845 305.944 701.985 315.03 699.292 316.794 702.428 314.035 709.418 318.76 710.111 320.711 713.171 321.33 717.451 323.399 720.462 326.141 722.854 328.744 725.368 333.907 725.359 339.05 725.258 335.207 734.276 341.766 732.66 346.416 732.915 345.994 738.626 347.377 742.463 352.009 742.651 353.694 746.183 353.737 751.721 360.871 748.772 362.553 752.372 365.223 754.775 368.13 756.881 373.676 755.483 371.295 764.668 378.663 760.669 378.258 767.396 384.63 764.53 383.009 773.262 388.963 770.846 392.593 771.822 393.897 776.433 397.812 776.944 402.861 775.51 404.58 779.568 406.214 783.884 412.103 780.752 411.142 789.864 413.747 792.684 417.564 793.239 423.385 789.804 423.994 796.6 428.568 795.476 430.41 800.001 434.874 798.979 437.357 802.251 440.222 804.743 445.402 801.817 447.644 805.794 451.071 806.957 454.38 808.413 457.256 811.031 462.604 806.942 465.892 808.35 469.887 807.703 473.665 807.59 475.317 814.064 479.805 811.706 481.348 819.026 486.962 812.57 489.168 817.938 492.716 818.575 495.3 823.005 499.832 819.705 502.735 823.056 507.698 817.334 510.603 820.733 514.082 821.542 517.004 825.3 520.478 826.342 523.577 829.643 527.594 827.527 531.281 827.254 534.549 829.892 538.007 831.38 542.246 826.449 545.63 828.409 548.919 831.674 552.524 831.996 556.384 829.092 560.009 828.683 563.704 826.86 567.322 825.816 570.817 827.277 574.288 830.486 577.872 830.998 581.458 832.348 585.069 825.835 588.665 828.88 592.335 832.613 596.025 834.501 599.582 832 603.338 834.496 606.738 830.067 610.35 829.925 613.999 830.217 617.526 829.009 621.147 828.927 625.214 832.881 628.074 825.981 631.916 827.68 635.968 830.574 639.399 828.853 642.775 826.941 646.769 828.819 650.361 828.189 654.163 828.653 657.185 825.132 660.853 824.934 663.654 820.79 668.349 825.068 670.445 818.25 673.291 814.876 678.601 820.982 681.607 818.204 683.985 813.378 687.137 811.429 690.281 809.521 694.894 812.251 698.73 812.385 703.654 815.604 704.55 807.183 711.462 808.512 703.703 811.931 700.692 809.559 698.299 805.707 696.066 801.614 690.11 806.428 688.458 801.056 685.677 798.41 680.807 800.344 679.363 794.879 675.254 795.086 671.489 794.512 670.316 788.836 668.241 785.073 662.014 789.11 658.956 787.135 656.467 784.168 653.969 781.272 650.109 780.718 644.831 782.438 642.882 778.643 639.87 776.602 636.331 775.375 636.151 769.072 631.753 769.148 631.592 763.053 625.362 765.65 622.839 762.955 621.044 759.308 618.13 757.195 612.326 758.794 613.26 751.753 611.24 748.552 605.326 750.086 602.559 747.745 597.568 747.974 600.275 739.388 594.64 740.295 589.128 740.93 591.265 733.321 587.444 732.114 585.027 729.425 581.453 727.894 582.023 722.283 576.858 722.269 577.56 716.669 569.725 718.996 567.36 716.219 570.156 708.928 562.98 710.372 561.489 706.874 559.081 704.157 554.942 702.824 556.986 696.579 552.971 695.127 555.121 688.992 550.934 687.645 543.757 688.37 543.572 684.037 546.499 677.639 537.77 679.178 538.508 674.337 537.284 670.829 531.435 670.211 534.275 664.215 532.719 660.956 531.392 657.573 529.365 654.597 521.703 654.69 524.829 648.876 525.479 644.481 518.758 643.861 518.569 639.902 521.498 634.5 513.481 634.276 515.409 629.416 515.467 625.462 510.947 623.476 511.133 619.487 512.514 615.068 505.897 613.772 501.865 611.385 505.546 606.181 508.331 601.409 506.583 598.236 501.738 596.032 498.524 593.236 495.546 590.317 494.335 586.854 497.641 582.173 494.697 579.197 495.849 575.172 497.253 571.137 497.987 567.304 496.269 564.015 492.29 561.146 487.111 558.419 495.544 553.242 490.289 550.473 490.38 546.799 486.398 543.699 493.214 539.163 487.677 536.201 483.513 532.981 491.835 528.54 490.152 525.09 491.047 521.434 488.081 518.021 487.347 514.445 484.732 510.919 488.22 507.2 486.546 503.618 490.699 500" style="fill: none; stroke: #000; stroke-linecap: round; stroke-linejoin: round; stroke-width: 35px;"/>
</svg>