<?xml version="1.0" encoding="UTF-8"?>
<svg id="Sticker" xmlns="http://www.w3.org/2000/svg" width="1000" height="1000" viewBox="0 0 1000 1000">
  <polygon points="841.069 842.483 840.841 846.045 837.247 849.499 833.652 849.244 830.057 845.759 826.461 845.43 822.863 845.032 819.267 850.211 815.671 844.375 812.076 842.925 808.481 841.776 804.887 850.346 801.294 846.306 797.701 847.283 794.108 842.937 790.516 842.702 786.924 843.852 783.332 846.218 779.741 841.402 776.149 848.152 772.558 842.691 768.967 847.912 765.375 848.178 761.784 841.55 758.192 843.063 754.601 841.29 751.009 846.702 747.416 848.694 743.823 848.226 740.23 850.377 736.636 842.093 733.041 841.906 729.446 841.773 725.85 843.045 722.254 849.415 718.656 847.035 715.058 850.35 711.462 849.478 707.866 849.999 704.27 849.696 700.675 843.348 697.081 850.643 693.487 849.893 689.894 843.563 686.301 846.136 682.707 842.104 679.115 849.514 675.522 848.528 671.929 848.384 668.335 843.478 664.742 848.54 661.148 841.528 657.554 844.051 653.96 848.841 650.365 845.129 646.769 847.866 643.172 844.594 639.575 848.411 635.976 843.511 632.379 845.832 628.781 841.962 625.185 846.814 621.589 849.024 617.994 842.435 614.399 842.94 610.805 848.237 607.211 844.656 603.616 843.066 600.022 841.396 596.428 843.797 592.833 848.145 589.238 842.892 585.642 850.014 582.046 841.42 578.449 843.718 574.852 842.805 571.253 848.045 567.655 843.561 564.057 847.516 560.46 847.735 556.864 846.672 553.268 843.062 549.673 850.774 546.077 850.137 542.482 848.523 538.887 842.474 535.291 849.816 531.695 846.469 528.098 842.916 524.501 847.138 520.902 846.932 517.303 849.463 513.705 843.38 510.107 847.358 506.51 841.196 502.914 844.021 499.317 849.03 495.721 849.964 492.125 843.28 488.529 849.528 484.932 846.353 481.334 844.583 477.735 843.35 474.136 846.404 470.537 842.959 466.939 844.928 463.342 846.075 459.745 849.714 456.148 849.877 452.551 850.424 448.954 841.837 445.356 847.629 441.757 843.941 438.157 848.47 434.558 848.193 430.96 847.577 427.363 846.842 423.766 842.663 420.168 850.65 416.57 847.869 412.971 842.396 409.372 847.299 405.772 846.822 402.174 847.638 398.576 848.603 394.978 843.437 391.38 843.032 387.781 842.878 384.181 846.052 380.582 846.879 376.983 847.409 373.385 841.422 369.786 849.234 366.188 843.341 362.588 848.556 358.988 844.649 355.389 842.331 351.79 841.151 348.196 843.853 344.603 848.745 341.009 846.039 337.415 846.78 333.819 846.437 330.221 843.33 326.62 846.983 323.021 843.51 319.424 844.952 315.828 850.254 312.233 846.306 308.637 848.57 305.039 845.104 301.439 850.39 297.838 848.965 294.24 849.032 290.643 847.099 287.045 841.218 283.446 850.321 279.845 841.792 276.245 848.024 272.646 843.031 269.047 841.577 265.448 847.951 261.845 843.226 258.245 846.564 254.645 850.62 251.045 846.89 247.442 845.768 243.842 849.854 240.241 849.844 236.639 850.383 233.038 847.999 229.435 847.167 225.834 847.5 222.231 842.023 218.629 844.333 215.026 847.77 211.428 844.149 207.825 842.307 204.227 849.265 200.624 847.392 197.024 850.774 193.42 844.67 189.818 849.714 186.214 850.166 182.609 850.115 179.004 842.789 175.399 845.744 171.795 843.877 168.19 847.784 164.584 844.477 160.973 848.721 157.018 846.178 158.457 842.239 160.736 838.645 162.215 835.05 157.614 831.455 155.543 827.858 155.832 824.261 157.143 820.664 161.131 817.069 154.424 813.473 159.962 809.879 159.666 806.285 158.133 802.691 161.402 799.098 162.329 795.506 155.584 791.913 161.5 788.321 157.841 784.73 153.896 781.138 159.784 777.547 162.172 773.956 152.525 770.364 152.444 766.773 153.116 763.182 162.049 759.59 158.293 755.998 153.858 752.406 158.394 748.814 161.091 745.221 156.39 741.628 154.337 738.034 156.456 734.439 160.8 730.844 156.964 727.248 153.2 723.651 158.217 720.054 161.282 716.456 159.163 712.859 160.994 709.263 153.658 705.668 154.066 702.073 159.249 698.479 152.575 694.885 153.681 691.291 157.875 687.698 160.185 684.105 159.867 680.512 155.783 676.919 159.535 673.326 161.121 669.733 153.964 666.14 159.467 662.546 157.201 658.952 160.218 655.357 161.283 651.762 162.337 648.167 158.106 644.57 159.254 640.972 153.447 637.374 152.82 633.776 157.999 630.179 153.437 626.583 155.584 622.987 160.444 619.392 154.477 615.797 154.882 612.202 152.731 608.608 159.604 605.014 161.383 601.42 153.168 597.825 159.032 594.231 157.779 590.636 156.478 587.04 161.424 583.444 159.418 579.847 154.102 576.249 159.548 572.651 161.386 569.052 158.451 565.455 159.249 561.858 153.159 558.262 155.846 554.666 156.029 551.07 152.574 547.475 153.232 543.88 161.953 540.284 154.629 536.689 157.42 533.093 161.627 529.496 153.78 525.898 157.782 522.3 160.561 518.701 157.931 515.102 157.612 511.505 154.468 507.908 156.696 504.311 152.628 500.715 158.389 497.119 159.112 493.523 153.941 489.926 158.852 486.329 160.73 482.732 161.879 479.133 161.253 475.533 154.887 471.935 152.99 468.337 158.944 464.74 153.73 461.143 154.632 457.546 157.786 453.949 157.433 450.352 156.713 446.754 158.191 443.155 157.414 439.555 154.718 435.956 154.641 432.358 159.795 428.761 157.619 425.163 156.757 421.566 155.58 417.968 155.227 414.369 158.129 410.769 155.161 407.17 157.385 403.571 155.96 399.974 153.416 396.376 157.684 392.778 156.413 389.179 162.167 385.579 162.102 381.979 161.813 378.381 154.731 374.782 161.811 371.184 158.457 367.585 156.153 363.985 156.762 360.386 158.003 356.787 154.421 353.188 159.297 349.594 161.302 346.001 161.798 342.407 155.603 338.812 160.854 335.217 159.842 331.619 152.635 328.018 159.661 324.419 154.345 320.822 157.139 317.226 153.603 313.63 160.543 310.034 156.629 306.437 154.968 302.836 153.708 299.236 156.996 295.637 153.57 292.04 154.999 288.443 154.351 284.844 158.785 281.243 156.618 277.642 161.73 274.044 162.191 270.445 159.075 266.845 159.991 263.243 161.415 259.642 155.57 256.043 156.395 252.442 153.16 248.84 157.926 245.24 156.721 241.639 154.633 238.036 158.305 234.436 161.494 230.833 156.902 227.231 154.493 223.629 157.442 220.027 161.241 216.424 156.686 212.825 154.858 209.223 158.911 205.625 157.478 202.022 158.562 198.421 157.492 194.817 157.894 191.216 154.674 187.612 154.059 184.007 153.513 180.402 160.682 176.796 161.048 173.192 152.554 169.588 155.094 165.982 157.34 162.37 156.199 157.602 160.955 155.384 164.549 162.198 168.144 153.89 171.739 160.769 175.336 154.025 178.933 159.427 182.529 160.292 186.125 160.703 189.721 155.522 193.315 162.372 196.909 154.884 200.503 156.316 204.096 154.386 207.688 158.946 211.28 162.011 214.872 155.85 218.464 154.119 222.055 155.115 225.647 163.503 229.238 160.404 232.829 157.161 236.421 160.065 240.012 160.289 243.604 156.122 247.195 156.855 250.788 160.649 254.38 155.256 257.973 160.509 261.566 158.606 265.16 158.553 268.755 162.008 272.35 153.796 275.946 162.427 279.543 158.603 283.14 159.247 286.738 161.315 290.335 154.065 293.931 161.678 297.526 155.434 301.121 157.791 304.715 156.882 308.309 160.633 311.902 163.443 315.496 159.523 319.089 161.688 322.682 162.699 326.275 159.868 329.868 155.354 333.461 156.709 337.054 156.784 340.648 158.702 344.242 162.405 347.836 154.883 351.431 159.107 355.027 154.043 358.624 157.482 362.221 160.667 365.82 155.614 369.418 161.545 373.015 160.106 376.611 163.535 380.207 154.614 383.802 163.274 387.397 158.106 390.991 160.378 394.586 158.057 398.18 155.679 401.774 161.702 405.369 153.961 408.963 154.905 412.558 155.352 416.154 157.022 419.75 159.658 423.347 155.038 426.944 162.27 430.543 155.001 434.142 157.624 437.739 157.117 441.336 155.201 444.932 156.568 448.528 162.608 452.123 158.848 455.719 158.969 459.314 160.101 462.909 158.593 466.505 163.093 470.101 158.265 473.698 162.052 477.295 160.443 480.894 158.252 484.493 157.682 488.092 156.695 491.689 159.754 495.286 156.365 498.883 162.668 502.479 155.937 506.075 157.085 509.671 157.362 513.268 161.094 516.865 155.122 520.462 157.772 524.061 162.904 527.661 160.104 531.259 155.767 534.857 163.495 538.454 158.254 542.051 157.947 545.648 161.174 549.245 156.801 552.842 155.606 556.44 155.488 560.039 155.847 563.639 160.758 567.238 157.33 570.836 157.057 574.433 154.652 578.031 160.943 581.628 162.539 585.226 155.356 588.825 162.673 592.425 161.924 596.024 155.444 599.622 160.09 603.22 161.669 606.818 155.462 610.416 158.929 614.015 155.014 617.615 154.112 621.214 162.587 624.813 161.761 628.411 163.089 632.01 160.704 635.609 156.746 639.209 162.91 642.808 154.431 646.407 162.333 650.006 160.227 653.6 161.378 657.193 156.74 660.787 162.406 664.381 161.013 667.977 155.01 671.575 162.895 675.176 160.483 678.775 162.292 682.372 156.691 685.968 155.404 689.563 163.156 693.16 161.775 696.757 161.396 700.357 162.404 703.958 163.12 707.556 163.037 711.154 162.511 714.751 154.882 718.35 162.36 721.951 156.049 725.551 160.867 729.15 159.82 732.749 160.392 736.349 159.106 739.951 154.933 743.551 158.945 747.151 163.512 750.752 159.319 754.354 155.592 757.954 157.766 761.555 155.966 765.157 153.874 768.758 153.951 772.361 154.604 775.962 158.998 779.565 159.243 783.167 155.608 786.77 154.274 790.368 158.706 793.971 160.525 797.569 159.828 801.172 156.136 804.772 158.646 808.376 158.118 811.978 157.057 815.582 161.182 819.187 158.109 822.792 153.895 826.397 163.21 830.002 157.854 833.606 162.036 837.212 154.09 840.823 154.18 842.654 160.548 839.718 162.352 842.138 165.947 844.2 169.541 847.562 173.137 848.642 176.733 842.082 180.33 848.132 183.927 848.966 187.523 846.345 191.118 842.548 194.713 849.245 198.307 846.013 201.9 846.008 205.493 845.534 209.086 842.074 212.678 842.027 216.27 843.509 219.862 842.229 223.453 845.117 227.044 842.126 230.636 843.099 234.227 849.005 237.818 842.847 241.41 845.041 245.001 839.903 248.593 846.39 252.185 843.459 255.778 848.702 259.371 843.29 262.964 843.847 266.558 848.89 270.152 844.906 273.748 840.193 277.343 848.161 280.94 848.695 284.538 843.385 288.135 842.431 291.732 848.258 295.328 844.33 298.924 840.572 302.518 847.092 306.113 844.257 309.706 845.409 313.3 843.394 316.893 844.048 320.486 843.574 324.079 844.494 327.672 843.393 331.265 839.67 334.858 841.891 338.452 841.983 342.045 841.493 345.639 840.782 349.234 841.804 352.829 847.662 356.425 848.726 360.022 847.938 363.619 846.944 367.217 840.475 370.815 843.223 374.412 842.085 378.009 844.422 381.604 843.08 385.2 848.788 388.794 843.655 392.389 843.368 395.983 842.754 399.578 845.374 403.172 848.171 406.766 842.406 410.361 845.211 413.956 846.752 417.551 847.409 421.148 843.861 424.744 842.884 428.342 845.715 431.941 840.204 435.539 847.525 439.137 844.251 442.734 842.101 446.33 841.93 449.926 841.775 453.521 845.754 457.116 843.97 460.712 846.748 464.307 844.88 467.903 842.879 471.499 847.231 475.096 841.664 478.693 844.282 482.291 841.962 485.891 844.043 489.489 846.463 493.087 846.691 496.684 849.271 500.28 845.298 503.876 848.592 507.472 846.786 511.069 848.95 514.665 847.496 518.262 847.044 521.86 847.34 525.459 846.355 529.058 849.325 532.657 844.302 536.255 848.591 539.852 848.382 543.449 848.273 547.046 840.424 550.643 839.655 554.24 847.315 557.838 842.551 561.437 848.307 565.037 839.812 568.635 839.781 572.233 848.682 575.831 844.215 579.428 842.454 583.026 847.359 586.624 840.03 590.222 842.616 593.822 839.539 597.422 840.413 601.02 846.615 604.618 849.403 608.216 849.329 611.814 841.716 615.413 841.489 619.013 842.555 622.612 845.253 626.211 841.413 629.809 844.03 633.407 844.298 637.006 848.689 640.606 839.9 644.206 845.423 647.805 843.838 651.403 843.488 654.997 840.175 658.591 846.674 662.185 844.721 665.779 845.047 669.375 846.218 672.973 844.45 676.574 845.884 680.173 841.746 683.77 848.98 687.365 845.062 690.961 840.458 694.557 841.561 698.155 846.523 701.755 841.912 705.356 841.392 708.954 841.663 712.551 839.883 716.149 846.701 719.747 847.951 723.349 843.822 726.949 841.226 730.548 839.726 734.146 842.158 737.746 843.419 741.349 845.842 744.949 839.568 748.548 849.241 752.149 844.891 755.751 844.553 759.352 847.488 762.953 841.145 766.555 841.405 770.156 848.101 773.759 846.839 777.36 847.17 780.962 841.591 784.565 840.054 788.168 842.82 791.766 840.806 795.368 841.136 798.967 839.827 802.569 842.86 806.17 846.82 809.774 842.047 813.376 842.356 816.979 842.975 820.585 847.653 824.19 847.415 827.795 845.99 831.399 840.379 835.004 843.211 838.61 844.461 842.244 841.069 842.483"/>
  <polygon points="841.069 842.483 840.841 846.045 837.247 849.499 833.652 849.244 830.057 845.759 826.461 845.43 822.863 845.032 819.267 850.211 815.671 844.375 812.076 842.925 808.481 841.776 804.887 850.346 801.294 846.306 797.701 847.283 794.108 842.937 790.516 842.702 786.924 843.852 783.332 846.218 779.741 841.402 776.149 848.152 772.558 842.691 768.967 847.912 765.375 848.178 761.784 841.55 758.192 843.063 754.601 841.29 751.009 846.702 747.416 848.694 743.823 848.226 740.23 850.377 736.636 842.093 733.041 841.906 729.446 841.773 725.85 843.045 722.254 849.415 718.656 847.035 715.058 850.35 711.462 849.478 707.866 849.999 704.27 849.696 700.675 843.348 697.081 850.643 693.487 849.893 689.894 843.563 686.301 846.136 682.707 842.104 679.115 849.514 675.522 848.528 671.929 848.384 668.335 843.478 664.742 848.54 661.148 841.528 657.554 844.051 653.96 848.841 650.365 845.129 646.769 847.866 643.172 844.594 639.575 848.411 635.976 843.511 632.379 845.832 628.781 841.962 625.185 846.814 621.589 849.024 617.994 842.435 614.399 842.94 610.805 848.237 607.211 844.656 603.616 843.066 600.022 841.396 596.428 843.797 592.833 848.145 589.238 842.892 585.642 850.014 582.046 841.42 578.449 843.718 574.852 842.805 571.253 848.045 567.655 843.561 564.057 847.516 560.46 847.735 556.864 846.672 553.268 843.062 549.673 850.774 546.077 850.137 542.482 848.523 538.887 842.474 535.291 849.816 531.695 846.469 528.098 842.916 524.501 847.138 520.902 846.932 517.303 849.463 513.705 843.38 510.107 847.358 506.51 841.196 502.914 844.021 499.317 849.03 495.721 849.964 492.125 843.28 488.529 849.528 484.932 846.353 481.334 844.583 477.735 843.35 474.136 846.404 470.537 842.959 466.939 844.928 463.342 846.075 459.745 849.714 456.148 849.877 452.551 850.424 448.954 841.837 445.356 847.629 441.757 843.941 438.157 848.47 434.558 848.193 430.96 847.577 427.363 846.842 423.766 842.663 420.168 850.65 416.57 847.869 412.971 842.396 409.372 847.299 405.772 846.822 402.174 847.638 398.576 848.603 394.978 843.437 391.38 843.032 387.781 842.878 384.181 846.052 380.582 846.879 376.983 847.409 373.385 841.422 369.786 849.234 366.188 843.341 362.588 848.556 358.988 844.649 355.389 842.331 351.79 841.151 348.196 843.853 344.603 848.745 341.009 846.039 337.415 846.78 333.819 846.437 330.221 843.33 326.62 846.983 323.021 843.51 319.424 844.952 315.828 850.254 312.233 846.306 308.637 848.57 305.039 845.104 301.439 850.39 297.838 848.965 294.24 849.032 290.643 847.099 287.045 841.218 283.446 850.321 279.845 841.792 276.245 848.024 272.646 843.031 269.047 841.577 265.448 847.951 261.845 843.226 258.245 846.564 254.645 850.62 251.045 846.89 247.442 845.768 243.842 849.854 240.241 849.844 236.639 850.383 233.038 847.999 229.435 847.167 225.834 847.5 222.231 842.023 218.629 844.333 215.026 847.77 211.428 844.149 207.825 842.307 204.227 849.265 200.624 847.392 197.024 850.774 193.42 844.67 189.818 849.714 186.214 850.166 182.609 850.115 179.004 842.789 175.399 845.744 171.795 843.877 168.19 847.784 164.584 844.477 160.973 848.721 157.018 846.178 158.457 842.239 160.736 838.645 162.215 835.05 157.614 831.455 155.543 827.858 155.832 824.261 157.143 820.664 161.131 817.069 154.424 813.473 159.962 809.879 159.666 806.285 158.133 802.691 161.402 799.098 162.329 795.506 155.584 791.913 161.5 788.321 157.841 784.73 153.896 781.138 159.784 777.547 162.172 773.956 152.525 770.364 152.444 766.773 153.116 763.182 162.049 759.59 158.293 755.998 153.858 752.406 158.394 748.814 161.091 745.221 156.39 741.628 154.337 738.034 156.456 734.439 160.8 730.844 156.964 727.248 153.2 723.651 158.217 720.054 161.282 716.456 159.163 712.859 160.994 709.263 153.658 705.668 154.066 702.073 159.249 698.479 152.575 694.885 153.681 691.291 157.875 687.698 160.185 684.105 159.867 680.512 155.783 676.919 159.535 673.326 161.121 669.733 153.964 666.14 159.467 662.546 157.201 658.952 160.218 655.357 161.283 651.762 162.337 648.167 158.106 644.57 159.254 640.972 153.447 637.374 152.82 633.776 157.999 630.179 153.437 626.583 155.584 622.987 160.444 619.392 154.477 615.797 154.882 612.202 152.731 608.608 159.604 605.014 161.383 601.42 153.168 597.825 159.032 594.231 157.779 590.636 156.478 587.04 161.424 583.444 159.418 579.847 154.102 576.249 159.548 572.651 161.386 569.052 158.451 565.455 159.249 561.858 153.159 558.262 155.846 554.666 156.029 551.07 152.574 547.475 153.232 543.88 161.953 540.284 154.629 536.689 157.42 533.093 161.627 529.496 153.78 525.898 157.782 522.3 160.561 518.701 157.931 515.102 157.612 511.505 154.468 507.908 156.696 504.311 152.628 500.715 158.389 497.119 159.112 493.523 153.941 489.926 158.852 486.329 160.73 482.732 161.879 479.133 161.253 475.533 154.887 471.935 152.99 468.337 158.944 464.74 153.73 461.143 154.632 457.546 157.786 453.949 157.433 450.352 156.713 446.754 158.191 443.155 157.414 439.555 154.718 435.956 154.641 432.358 159.795 428.761 157.619 425.163 156.757 421.566 155.58 417.968 155.227 414.369 158.129 410.769 155.161 407.17 157.385 403.571 155.96 399.974 153.416 396.376 157.684 392.778 156.413 389.179 162.167 385.579 162.102 381.979 161.813 378.381 154.731 374.782 161.811 371.184 158.457 367.585 156.153 363.985 156.762 360.386 158.003 356.787 154.421 353.188 159.297 349.594 161.302 346.001 161.798 342.407 155.603 338.812 160.854 335.217 159.842 331.619 152.635 328.018 159.661 324.419 154.345 320.822 157.139 317.226 153.603 313.63 160.543 310.034 156.629 306.437 154.968 302.836 153.708 299.236 156.996 295.637 153.57 292.04 154.999 288.443 154.351 284.844 158.785 281.243 156.618 277.642 161.73 274.044 162.191 270.445 159.075 266.845 159.991 263.243 161.415 259.642 155.57 256.043 156.395 252.442 153.16 248.84 157.926 245.24 156.721 241.639 154.633 238.036 158.305 234.436 161.494 230.833 156.902 227.231 154.493 223.629 157.442 220.027 161.241 216.424 156.686 212.825 154.858 209.223 158.911 205.625 157.478 202.022 158.562 198.421 157.492 194.817 157.894 191.216 154.674 187.612 154.059 184.007 153.513 180.402 160.682 176.796 161.048 173.192 152.554 169.588 155.094 165.982 157.34 162.37 156.199 157.602 160.955 155.384 164.549 162.198 168.144 153.89 171.739 160.769 175.336 154.025 178.933 159.427 182.529 160.292 186.125 160.703 189.721 155.522 193.315 162.372 196.909 154.884 200.503 156.316 204.096 154.386 207.688 158.946 211.28 162.011 214.872 155.85 218.464 154.119 222.055 155.115 225.647 163.503 229.238 160.404 232.829 157.161 236.421 160.065 240.012 160.289 243.604 156.122 247.195 156.855 250.788 160.649 254.38 155.256 257.973 160.509 261.566 158.606 265.16 158.553 268.755 162.008 272.35 153.796 275.946 162.427 279.543 158.603 283.14 159.247 286.738 161.315 290.335 154.065 293.931 161.678 297.526 155.434 301.121 157.791 304.715 156.882 308.309 160.633 311.902 163.443 315.496 159.523 319.089 161.688 322.682 162.699 326.275 159.868 329.868 155.354 333.461 156.709 337.054 156.784 340.648 158.702 344.242 162.405 347.836 154.883 351.431 159.107 355.027 154.043 358.624 157.482 362.221 160.667 365.82 155.614 369.418 161.545 373.015 160.106 376.611 163.535 380.207 154.614 383.802 163.274 387.397 158.106 390.991 160.378 394.586 158.057 398.18 155.679 401.774 161.702 405.369 153.961 408.963 154.905 412.558 155.352 416.154 157.022 419.75 159.658 423.347 155.038 426.944 162.27 430.543 155.001 434.142 157.624 437.739 157.117 441.336 155.201 444.932 156.568 448.528 162.608 452.123 158.848 455.719 158.969 459.314 160.101 462.909 158.593 466.505 163.093 470.101 158.265 473.698 162.052 477.295 160.443 480.894 158.252 484.493 157.682 488.092 156.695 491.689 159.754 495.286 156.365 498.883 162.668 502.479 155.937 506.075 157.085 509.671 157.362 513.268 161.094 516.865 155.122 520.462 157.772 524.061 162.904 527.661 160.104 531.259 155.767 534.857 163.495 538.454 158.254 542.051 157.947 545.648 161.174 549.245 156.801 552.842 155.606 556.44 155.488 560.039 155.847 563.639 160.758 567.238 157.33 570.836 157.057 574.433 154.652 578.031 160.943 581.628 162.539 585.226 155.356 588.825 162.673 592.425 161.924 596.024 155.444 599.622 160.09 603.22 161.669 606.818 155.462 610.416 158.929 614.015 155.014 617.615 154.112 621.214 162.587 624.813 161.761 628.411 163.089 632.01 160.704 635.609 156.746 639.209 162.91 642.808 154.431 646.407 162.333 650.006 160.227 653.6 161.378 657.193 156.74 660.787 162.406 664.381 161.013 667.977 155.01 671.575 162.895 675.176 160.483 678.775 162.292 682.372 156.691 685.968 155.404 689.563 163.156 693.16 161.775 696.757 161.396 700.357 162.404 703.958 163.12 707.556 163.037 711.154 162.511 714.751 154.882 718.35 162.36 721.951 156.049 725.551 160.867 729.15 159.82 732.749 160.392 736.349 159.106 739.951 154.933 743.551 158.945 747.151 163.512 750.752 159.319 754.354 155.592 757.954 157.766 761.555 155.966 765.157 153.874 768.758 153.951 772.361 154.604 775.962 158.998 779.565 159.243 783.167 155.608 786.77 154.274 790.368 158.706 793.971 160.525 797.569 159.828 801.172 156.136 804.772 158.646 808.376 158.118 811.978 157.057 815.582 161.182 819.187 158.109 822.792 153.895 826.397 163.21 830.002 157.854 833.606 162.036 837.212 154.09 840.823 154.18 842.654 160.548 839.718 162.352 842.138 165.947 844.2 169.541 847.562 173.137 848.642 176.733 842.082 180.33 848.132 183.927 848.966 187.523 846.345 191.118 842.548 194.713 849.245 198.307 846.013 201.9 846.008 205.493 845.534 209.086 842.074 212.678 842.027 216.27 843.509 219.862 842.229 223.453 845.117 227.044 842.126 230.636 843.099 234.227 849.005 237.818 842.847 241.41 845.041 245.001 839.903 248.593 846.39 252.185 843.459 255.778 848.702 259.371 843.29 262.964 843.847 266.558 848.89 270.152 844.906 273.748 840.193 277.343 848.161 280.94 848.695 284.538 843.385 288.135 842.431 291.732 848.258 295.328 844.33 298.924 840.572 302.518 847.092 306.113 844.257 309.706 845.409 313.3 843.394 316.893 844.048 320.486 843.574 324.079 844.494 327.672 843.393 331.265 839.67 334.858 841.891 338.452 841.983 342.045 841.493 345.639 840.782 349.234 841.804 352.829 847.662 356.425 848.726 360.022 847.938 363.619 846.944 367.217 840.475 370.815 843.223 374.412 842.085 378.009 844.422 381.604 843.08 385.2 848.788 388.794 843.655 392.389 843.368 395.983 842.754 399.578 845.374 403.172 848.171 406.766 842.406 410.361 845.211 413.956 846.752 417.551 847.409 421.148 843.861 424.744 842.884 428.342 845.715 431.941 840.204 435.539 847.525 439.137 844.251 442.734 842.101 446.33 841.93 449.926 841.775 453.521 845.754 457.116 843.97 460.712 846.748 464.307 844.88 467.903 842.879 471.499 847.231 475.096 841.664 478.693 844.282 482.291 841.962 485.891 844.043 489.489 846.463 493.087 846.691 496.684 849.271 500.28 845.298 503.876 848.592 507.472 846.786 511.069 848.95 514.665 847.496 518.262 847.044 521.86 847.34 525.459 846.355 529.058 849.325 532.657 844.302 536.255 848.591 539.852 848.382 543.449 848.273 547.046 840.424 550.643 839.655 554.24 847.315 557.838 842.551 561.437 848.307 565.037 839.812 568.635 839.781 572.233 848.682 575.831 844.215 579.428 842.454 583.026 847.359 586.624 840.03 590.222 842.616 593.822 839.539 597.422 840.413 601.02 846.615 604.618 849.403 608.216 849.329 611.814 841.716 615.413 841.489 619.013 842.555 622.612 845.253 626.211 841.413 629.809 844.03 633.407 844.298 637.006 848.689 640.606 839.9 644.206 845.423 647.805 843.838 651.403 843.488 654.997 840.175 658.591 846.674 662.185 844.721 665.779 845.047 669.375 846.218 672.973 844.45 676.574 845.884 680.173 841.746 683.77 848.98 687.365 845.062 690.961 840.458 694.557 841.561 698.155 846.523 701.755 841.912 705.356 841.392 708.954 841.663 712.551 839.883 716.149 846.701 719.747 847.951 723.349 843.822 726.949 841.226 730.548 839.726 734.146 842.158 737.746 843.419 741.349 845.842 744.949 839.568 748.548 849.241 752.149 844.891 755.751 844.553 759.352 847.488 762.953 841.145 766.555 841.405 770.156 848.101 773.759 846.839 777.36 847.17 780.962 841.591 784.565 840.054 788.168 842.82 791.766 840.806 795.368 841.136 798.967 839.827 802.569 842.86 806.17 846.82 809.774 842.047 813.376 842.356 816.979 842.975 820.585 847.653 824.19 847.415 827.795 845.99 831.399 840.379 835.004 843.211 838.61 844.461 842.244 841.069 842.483" style="fill: none; stroke: #000; stroke-linecap: round; stroke-linejoin: round; stroke-width: 30px;"/>
</svg>