<?xml version="1.0" encoding="UTF-8"?>
<svg id="Sticker" xmlns="http://www.w3.org/2000/svg" width="1000" height="1000" viewBox="0 0 1000 1000">
  <polygon points="867.41 500 865.413 503.589 862.074 507.115 866.729 510.809 865.639 514.373 863.108 517.848 860.925 521.298 865.365 525.159 860.945 528.423 865.668 532.405 862.567 535.725 864.937 539.578 867.773 543.539 859.949 546.21 867.525 550.845 858.782 553.242 864.896 557.808 864.251 561.377 856.722 563.725 864.166 568.741 854.368 570.512 861.117 575.539 860.44 579.099 852.474 580.992 854.812 585.202 852.366 588.283 853.784 592.337 848.915 594.736 851.246 599.079 851.191 602.795 846.413 605.101 853.392 611.015 843.484 611.621 851.752 618.136 848.615 620.903 841.619 622.247 845.173 627.354 838.655 628.739 837.239 632.004 837.917 636.11 841.841 641.608 841.419 645.377 839.854 648.668 833.906 649.985 831.158 652.674 832.927 657.473 829.388 659.773 826.447 662.323 825.267 665.739 826.555 670.457 820.262 671.188 822.462 676.46 819.22 678.779 820.94 683.908 814.864 684.55 811.146 686.497 811.974 691.185 806.607 692.057 812.397 699.991 802.165 697.639 806.184 704.595 804.842 708.057 800.015 709.106 794.182 709.357 794.01 713.616 795.075 718.852 791.275 720.498 789.549 723.697 786.969 726.237 788.435 732.025 781.032 730.646 783.107 737.043 778.637 737.991 777.354 741.645 773.699 743.229 768.387 743.264 771.846 751.308 763.862 748.774 763.778 753.634 762.374 757.289 761.284 761.301 757.986 763.12 754.007 764.202 748.336 763.433 749.846 770.301 748.444 774.134 744.011 774.616 740.233 775.77 735.154 775.355 736.976 783.065 733.643 784.717 729.706 785.593 724.032 784.212 723.038 788.734 720.783 791.69 719.943 796.581 716.773 798.387 710.26 795.487 711.183 803.03 708.394 805.374 704.354 805.863 702.894 810.224 699.628 811.873 696.515 813.751 688.67 807.921 689.827 816.732 682.719 811.787 683.15 819.661 677.229 816.501 677.233 823.913 674.174 825.88 669.305 824.396 668.038 829.813 663.641 829.136 661.251 832.473 657.456 832.935 651.726 829.147 649.366 832.573 645.071 831.685 642.15 833.893 641.892 842.57 635.077 835.397 632.274 837.972 630.132 842.359 625.141 839.219 622.394 842.074 620.405 847.224 616.976 848.346 613.428 849.098 609.07 847.244 606.476 851.003 603.676 854.259 598.957 850.866 597.194 858.044 593.238 857.303 588.089 851.643 586.075 858.52 581.888 856.446 578.313 856.9 575.43 860.655 571.761 860.743 567.674 858.537 564.708 862.319 561.548 865.33 557.737 864.511 553.12 858.021 550.23 863.1 546.06 858.828 542.704 860.709 539.109 860.628 535.987 865.318 532.012 861.222 528.578 862.991 524.994 862.993 521.632 866.72 518.15 869.406 514.255 862.622 510.848 868.105 507.235 868.298 503.581 864.568 500 862.938 496.393 867.209 492.715 870.913 489.089 870.257 485.659 864.829 482.211 861.885 478.2 869.561 474.721 867.136 471.024 868.065 467.615 865.437 464.218 863.153 460.326 865.832 457.489 859 452.805 867.694 449.844 862.494 445.897 864.636 443.033 859.549 438.945 862.323 434.894 864.506 431.38 863.52 428.657 858.57 424.632 860.292 421.956 855.612 417.03 861.117 413.58 859.901 409.959 859.406 408.431 850.833 403.304 856.15 401.586 848.882 396.564 853.384 392.73 853.571 390.118 849.783 386.533 849.17 382.839 848.848 380.847 843.568 378.039 840.821 371.956 847.041 368.398 846.182 366.577 840.862 363.437 839.043 359.061 840.228 358.337 832.708 353.838 834.132 350.728 832.321 344.938 836.329 345.211 827.261 338.357 833.236 337.784 826.233 332.887 827.959 329.365 826.897 325.16 827.079 326.458 817.141 321.828 818.139 317.089 819.203 314.484 816.507 310.714 815.789 311.026 808.375 306.478 808.941 302.232 808.931 299.388 806.702 296.34 804.787 294.238 801.486 291.853 798.642 288.091 797.762 285.477 795.256 279.476 797.326 280.552 789.89 278.041 787.303 271.572 789.744 271.719 783.787 270.394 779.766 262.587 783.548 262.095 778.537 258.62 777.049 256.294 774.236 254.243 771.136 248.28 772.292 247.669 767.634 249.743 760.267 242.375 762.717 238.805 761.178 236.09 758.761 235.886 753.923 233.067 751.637 231.343 748.326 230.536 744.208 229.108 740.7 225.514 739.113 220.768 738.468 217.537 736.472 216.715 732.467 214.136 729.924 215.586 724.191 211.052 723.203 206.161 722.413 202.727 720.456 202.605 716.052 200.679 712.993 198.026 710.447 198.453 705.777 197.972 701.786 192.264 701.264 191.387 697.537 192.453 692.621 184.797 693.142 189.888 685.851 187.741 682.996 184.622 680.691 176.99 680.882 182.68 673.617 172.763 674.901 174.814 669.718 177.642 664.232 174.873 661.644 173.462 658.367 167.251 657.368 168.266 652.92 170.562 647.956 160.573 648.462 165.815 642.275 157.642 641.805 162.797 635.804 159.416 633.297 157.568 630.159 156.162 626.845 152.648 624.282 157.821 618.656 153.151 616.474 156.379 611.65 154.7 608.46 153.71 605.048 144.225 604.119 150 598.713 144.518 596.5 141.489 593.552 148.042 588.167 140.655 586.273 139.764 582.755 140.849 578.804 139.223 575.456 141.387 571.34 135.633 568.768 140.073 564.283 140.781 560.526 140.501 556.95 133.131 554.422 139.509 549.873 134.53 546.904 133.743 543.354 132.497 539.846 138.391 535.626 134.498 532.386 130.681 529.069 130.759 525.418 134.355 521.569 138.157 517.785 133.502 514.405 129.646 510.913 133.425 507.202 135.541 503.58 132.555 500 134.912 496.414 132.676 492.784 136.122 489.274 138.92 485.803 132.817 481.955 132.648 478.329 136.521 474.969 138.577 471.54 134.825 467.638 131.823 463.728 137.435 460.677 137.756 457.109 136.424 453.329 140.193 450.212 133.353 445.601 134.225 442.054 140.947 439.492 144.516 436.495 143.041 432.611 143.85 429.136 144.545 425.639 141.901 421.413 145.665 418.582 148.471 415.583 143.043 410.57 143.786 407.031 148.473 404.556 152.383 401.942 146.118 396.418 148.717 393.423 152.049 390.692 154.508 387.727 151.369 382.912 154.749 380.263 159.847 378.278 154.472 372.514 162.029 371.521 159.317 366.647 157.693 362.12 157.389 358.073 162.564 356.321 167.843 354.704 165.27 349.644 167.907 346.894 170.437 344.12 171.486 340.652 175.21 338.503 169.976 331.832 178.371 332.12 179.202 328.525 176.287 322.854 181.638 321.703 179.658 316.435 182.346 313.81 184.752 311.039 190.373 310.257 190.299 306.001 189.57 301.271 196.445 301.451 194.459 295.835 197.917 293.829 195.849 288.006 205.654 290.526 200.152 282.135 203.516 280.101 209.911 280.401 207.626 274.117 212.546 273.38 212.015 268.337 219.174 269.523 220.52 265.997 225.163 265.258 226.41 261.637 225.948 256.458 232.034 257.118 230.938 251.267 235.031 250.182 236.833 246.955 240.365 245.398 239.149 239.131 243.78 238.681 244.316 234.055 250.408 235.235 254.856 234.783 251.77 226.101 254.855 224.11 256.886 220.925 259.491 218.381 262.345 216.125 269.663 219.308 267.993 211.55 274.504 213.932 274.853 208.539 277.787 206.425 282.004 206.039 284.117 202.837 286.583 200.084 289.05 197.304 292.646 196.146 296.047 194.736 299.754 193.817 304.331 194.299 305.963 190.198 308.134 186.875 311.133 184.867 317.085 187.88 317.435 181.358 321.26 180.806 322.761 176.076 325.493 173.499 331.797 177.711 333.711 173.612 338.827 175.819 342.114 174.452 342.755 167.512 345.289 164.388 348.19 161.994 354.473 167.274 355.367 160.282 360.889 164.138 362.094 157.585 366.988 160.144 368.321 153.573 371.823 152.554 376.328 154.352 381.173 157.328 383.175 152.104 386.87 151.82 391.413 154.296 394.16 151.095 396.933 147.826 401.181 149.626 403.556 144.727 406.604 142.091 411.773 147.804 414.558 144.128 419.075 147.763 421.801 143.621 425.648 144.528 429.248 144.361 431.888 139.128 434.975 135.895 438.757 136.496 442.454 136.709 446.002 136.016 449.99 138.506 453.931 141.096 456.799 135.044 461.023 140.604 464.046 135.026 467.444 132.548 471.124 133.158 474.748 133.207 478.514 135.793 481.882 131.255 485.685 135.814 489.201 133.566 492.734 130.086 496.378 131.238 500 135.073 503.618 131.571 507.117 137.805 510.859 131.537 514.51 130.803 518.076 132.191 521.321 138.69 525.048 136.269 529.102 130.305 532.235 136.283 536.348 131.038 539.962 131.481 543.03 136.568 547.098 133.065 550.238 136.906 553.137 141.927 557.021 140.108 561.515 134.924 564.893 136.697 568.466 137.298 570.89 143.72 575.106 140.963 579.193 139.128 582.92 139.103 585.195 145.218 590.14 140.2 591.391 149.85 595.193 149.399 599.465 147.385 602.783 148.851 607.21 146.626 608.795 153.683 613.615 150.375 615.432 156.302 618.543 158.191 623.617 154.551 627.023 155.725 628.829 161.11 634.925 155.304 636.196 161.869 641.823 157.641 644.225 161.282 645.207 168.046 648.631 169.105 653.051 168.025 655.31 171.639 659.545 171.081 661.727 174.75 664.395 177.365 668.493 177.199 670.885 180.304 674.698 180.751 678.376 181.497 681.144 183.873 683.718 186.553 690.583 182.052 693.416 184.393 692.451 192.765 695.383 194.786 697.715 197.718 703.01 196.184 707.145 196.493 706.91 203.129 712.88 200.877 713.123 206.667 719.959 203.435 723.377 204.927 724.153 209.862 728.833 209.743 732.395 211.106 733.352 215.675 733.225 221.448 739.476 219.626 742.096 222.13 745.665 223.561 744.102 230.689 751.823 227.597 751.608 233.133 752.841 237.046 757.891 237.012 756.187 243.83 759.923 245.148 760.54 249.514 763.594 251.512 765.466 254.625 771.383 254.051 771.624 258.649 774.569 260.815 777.893 262.677 780.295 265.345 786.744 264.692 783.025 272.362 784.063 276.086 791.547 274.787 788.961 281.285 793.845 282.09 794.605 285.979 795.493 289.736 797.468 292.7 801.412 294.315 800.619 299.157 807.428 298.938 804.578 305.051 812.297 304.397 811.019 309.427 812.308 312.83 812.205 317.035 820.257 316.508 816.407 322.824 819.991 324.918 822.22 327.786 828.221 328.694 822.499 335.696 825.602 338.12 832.974 338.506 827.158 345.281 828.556 348.547 836.513 348.861 836.766 352.703 832.508 358.44 839.693 359.301 835.894 364.723 844.399 365.209 837.57 371.69 843.055 373.444 848.111 375.446 847.882 379.367 850.801 382.2 843.986 388.232 849.055 390.362 846.541 394.876 855.099 396.078 853.013 400.439 857.458 402.965 858.668 406.407 852.948 411.586 852.976 415.251 852.027 419.123 855.944 421.896 859.14 424.885 863.674 427.659 858.612 432.312 864.922 434.831 862.832 438.87 858.38 443.226 861.273 446.401 866.525 449.3 858.76 453.949 862.366 457.102 860.123 460.945 864.518 464.091 867.834 467.41 867.567 471.067 862.12 475.065 868.209 478.282 867.504 481.942 867.292 485.565 865.993 489.213 869.01 492.751 867.07 496.395 867.41 500" style="fill: none; stroke: #000; stroke-linecap: round; stroke-linejoin: round; stroke-width: 40px;"/>
</svg>