<?xml version="1.0" encoding="UTF-8"?>
<svg id="Sticker" xmlns="http://www.w3.org/2000/svg" width="1000" height="1000" viewBox="0 0 1000 1000">
  <g>
    <polygon points="706.855 340.762 707.046 345.275 705.666 348.605 696.691 348.276 696.629 352.242 693.64 354.798 697.267 360.543 694.279 363.1 689.508 364.798 691.103 369.566 690.621 373.332 688.74 376.426 689.531 380.808 686.225 383.217 680.398 384.41 678.391 387.443 681.81 393.09 675.406 394.003 680.53 400.471 671.896 400.308 673.108 404.89 668.761 406.792 672.552 412.617 668.553 414.687 670.381 419.565 669.765 423.266 660.89 422.987 663.253 428.125 661.681 431.367 657.731 433.464 658.549 437.859 660.606 442.853 659.364 446.256 649.981 445.735 656.434 452.845 651.22 454.332 644.849 455.261 645.79 459.713 642.999 462.366 642.742 466.241 646.05 471.834 637.053 471.497 637.344 475.636 635.596 478.794 633.603 481.835 631.942 485.036 631.347 488.752 636.06 495.026 629.18 495.711 633.253 501.675 629.159 503.701 623.606 505.025 621.886 508.195 625.772 514.068 625.525 517.949 619.166 518.884 613.939 520.366 613.477 524.146 612.218 527.543 609.15 530.066 607.917 533.473 607.803 537.419 607.244 541.15 607.018 545.042 604.498 547.827 607.736 553.389 606.822 556.95 598.147 556.771 603.08 563.153 599.067 565.221 598.986 569.184 595.801 571.649 593.238 574.415 595.635 579.571 592.905 582.257 589.995 584.857 583.396 585.68 587.654 591.735 586.47 595.167 580.965 596.515 582.59 601.3 582.138 605.084 579.469 607.799 578.179 611.182 572.748 612.567 573.515 616.94 572.882 620.636 567.405 621.999 567.477 626.033 566.349 629.493 562.525 631.652 560.997 634.916 560.583 638.715 560.342 642.596 557.668 645.304 553.736 647.406 559.429 654.148 556.48 656.726 551.748 658.447 553.423 663.259 551.34 666.258 548.542 668.91 547.942 672.62 544.679 675.047 544.214 678.823 540.851 681.203 539.639 684.623 537.007 687.359 538.434 692.049 538.38 696.024 530.532 696.243 528.618 699.323 526.256 702.19 532.169 709.044 530.473 712.229 528.078 715.077 519.946 715.162 525.237 721.719 521.702 724.019 519.283 726.857 515.563 729.069 513.782 732.217 511.733 735.233 511.876 739.308 510.883 742.836 513.998 748.342 505.392 748.201 508.491 753.7 502.28 754.713 504.168 759.63 503.274 763.199 503.978 767.541 498.044 768.688 498.539 772.929 494.209 774.85 492.087 777.832 490.941 781.289 487.454 783.615 485.992 786.919 486.688 791.264 490.568 797.145 487.36 799.604 478.9 799.537 478.961 803.576 477.249 806.763 480.134 812.172 479.682 817.083 474.048 811.072 469.336 816.896 465.564 817.131 462.248 815.119 460.357 806.955 456.135 809.332 452.944 807.254 447.942 812.312 445.691 806.621 442.188 805.79 438.772 804.639 434.828 805.281 432.195 801.53 428.707 800.653 424.262 802.708 420.247 803.293 416.893 801.863 412.792 802.556 411.93 794.234 407.509 795.823 404.503 793.567 401.706 790.832 399.098 787.695 394.024 790.622 390.638 789.351 388.849 784.385 382.584 789.679 381.071 784.191 376.173 786.171 373.53 783.249 371.395 779.346 368.157 777.76 363.401 779.155 361.668 774.613 357.917 773.986 352.645 776.104 353.277 767.45 348.923 767.855 347.898 762.443 344.259 761.585 341.475 759.279 335.72 761.775 332.061 760.782 328.212 760.041 328.288 753.327 326.007 750.292 318.781 754.444 320.553 745.613 314.832 747.432 311.115 746.373 306.937 745.876 305.956 741.165 301.543 740.91 298.204 739.237 300.877 730.246 295.292 731.341 291.915 729.726 288.599 728.01 286.301 725.133 287.835 718.117 281.049 720.132 277.353 718.744 274.267 716.685 276.513 709.318 268.181 712.416 268.179 707.369 268.88 701.781 267.066 698.601 262.317 698.037 257.883 697.101 256.898 693.18 253.219 691.525 255.817 684.783 249.769 684.992 244.712 684.298 243.121 680.917 243.82 675.895 242.621 672.32 235.795 672.658 236.746 667.6 237.988 662.456 237.513 658.518 233.13 657.055 231.499 653.845 225.773 653.05 226.779 648.28 225.617 644.805 220.6 643.431 225.052 636.984 222.231 634.431 217.826 632.627 214.827 630.065 215.354 625.817 214.49 622.256 214.404 618.37 209.186 616.698 212.15 611.565 208.197 609.294 206.452 606.106 203.916 603.199 203.233 599.596 206.59 594.613 203.717 591.814 203.32 588.178 197.174 586.331 193.979 583.489 192.472 580.116 194.716 575.704 191.815 572.713 197.93 567.418 191.54 563.344 197.541 565.307 200.288 562.852 202.604 559.646 208.016 561.848 207.847 554.298 211.898 554.123 215.313 552.835 217.328 549.101 220.163 546.798 226.694 550.952 228.691 547.184 228.719 539.972 233.115 540.392 237.961 541.596 238.233 534.806 244.663 538.778 248.171 537.644 250.62 534.664 250.57 527.316 253.493 525.165 260.233 529.683 261.668 524.935 267.378 527.654 269.841 524.701 273.759 524.29 276.717 522.202 277.909 517.027 279.093 511.839 282.695 510.872 286.668 510.555 291.662 512.018 291.904 505.177 294.224 501.967 300.044 504.87 301.16 499.557 304.925 498.873 309.845 500.21 310.323 493.784 315.609 495.762 319.137 494.667 323.896 495.725 323.631 488.003 325.635 484.244 331.181 486.675 332.505 481.726 336.007 480.583 339.793 479.933 344.665 481.179 348.436 480.504 350.779 477.334 353.039 474.021 356.617 473.01 360.244 472.088 360.154 464.67 363.137 462.621 366.173 460.665 370.357 460.714 376.594 464.349 379.585 462.31 380.447 456.547 385.806 458.646 388.3 455.74 391.931 454.822 395.039 452.991 396.852 448.896 398.893 445.201 401.084 441.767 403.79 439.231 411.134 444.797 410.887 437.096 415.996 438.759 420.13 438.717 419.476 430.31 423.413 429.928 429.728 433.698 430.404 427.616 435.475 429.211 438.012 426.376 441.348 424.938 445.52 424.963 445.431 417.543 448.605 415.825 453.177 416.549 456.877 415.749 460.232 414.343 464.01 413.676 465.101 408.317 467.956 406.052 471.071 404.236 474.606 403.151 479.945 405.212 482.082 401.68 485.761 400.846 486.043 394.081 491.963 397.168 493.442 392.497 497.02 391.492 501.676 392.37 502.2 386.025 506.073 385.527 510.055 385.214 512.202 381.7 517.9 384.392 518.473 378.132 520.337 374.131 523.063 371.633 530.021 376.526 533.371 375.111 534.248 369.372 539.107 370.596 540.379 365.555 545.336 366.954 548.351 364.955 551.944 363.963 552.879 358.327 555.63 355.866 559.979 356.199 563.667 355.375 565.589 351.459 567.061 346.763 569.707 344.119 573.304 343.132 577.608 343.38 583.486 346.38 583.749 339.569 589.293 341.983 592.651 340.58 591.439 331.187 596.799 333.282 599.495 330.718 603.633 330.68 608.184 331.371 607.968 323.727 611.57 322.746 614.615 320.8 619.741 322.481 620.644 316.787 625.8 318.519 629.84 318.303 632.16 315.08 634.081 311.157 638.162 311.007 641.221 309.079 644.736 307.941 647.174 304.921 650.042 302.648 653.453 301.313 655.69 294.925 662.38 300.463 659.41 306.118 665.671 306.167 666.16 309.898 668.693 312.186 666.777 318.341 667.925 322.217 669.853 325.512 676.865 323.08 680.616 323.851 680.586 329.602 682.529 333.104 685.723 334.82 691.198 332.258 693.225 335.879 696.62 336.378 699.885 337.012 701.341 342.863 706.855 340.762" style="fill: #fff;"/>
    <polygon points="706.855 340.762 707.046 345.275 705.666 348.605 696.691 348.276 696.629 352.242 693.64 354.798 697.267 360.543 694.279 363.1 689.508 364.798 691.103 369.566 690.621 373.332 688.74 376.426 689.531 380.808 686.225 383.217 680.398 384.41 678.391 387.443 681.81 393.09 675.406 394.003 680.53 400.471 671.896 400.308 673.108 404.89 668.761 406.792 672.552 412.617 668.553 414.687 670.381 419.565 669.765 423.266 660.89 422.987 663.253 428.125 661.681 431.367 657.731 433.464 658.549 437.859 660.606 442.853 659.364 446.256 649.981 445.735 656.434 452.845 651.22 454.332 644.849 455.261 645.79 459.713 642.999 462.366 642.742 466.241 646.05 471.834 637.053 471.497 637.344 475.636 635.596 478.794 633.603 481.835 631.942 485.036 631.347 488.752 636.06 495.026 629.18 495.711 633.253 501.675 629.159 503.701 623.606 505.025 621.886 508.195 625.772 514.068 625.525 517.949 619.166 518.884 613.939 520.366 613.477 524.146 612.218 527.543 609.15 530.066 607.917 533.473 607.803 537.419 607.244 541.15 607.018 545.042 604.498 547.827 607.736 553.389 606.822 556.95 598.147 556.771 603.08 563.153 599.067 565.221 598.986 569.184 595.801 571.649 593.238 574.415 595.635 579.571 592.905 582.257 589.995 584.857 583.396 585.68 587.654 591.735 586.47 595.167 580.965 596.515 582.59 601.3 582.138 605.084 579.469 607.799 578.179 611.182 572.748 612.567 573.515 616.94 572.882 620.636 567.405 621.999 567.477 626.033 566.349 629.493 562.525 631.652 560.997 634.916 560.583 638.715 560.342 642.596 557.668 645.304 553.736 647.406 559.429 654.148 556.48 656.726 551.748 658.447 553.423 663.259 551.34 666.258 548.542 668.91 547.942 672.62 544.679 675.047 544.214 678.823 540.851 681.203 539.639 684.623 537.007 687.359 538.434 692.049 538.38 696.024 530.532 696.243 528.618 699.323 526.256 702.19 532.169 709.044 530.473 712.229 528.078 715.077 519.946 715.162 525.237 721.719 521.702 724.019 519.283 726.857 515.563 729.069 513.782 732.217 511.733 735.233 511.876 739.308 510.883 742.836 513.998 748.342 505.392 748.201 508.491 753.7 502.28 754.713 504.168 759.63 503.274 763.199 503.978 767.541 498.044 768.688 498.539 772.929 494.209 774.85 492.087 777.832 490.941 781.289 487.454 783.615 485.992 786.919 486.688 791.264 490.568 797.145 487.36 799.604 478.9 799.537 478.961 803.576 477.249 806.763 480.134 812.172 479.682 817.083 474.048 811.072 469.336 816.896 465.564 817.131 462.248 815.119 460.357 806.955 456.135 809.332 452.944 807.254 447.942 812.312 445.691 806.621 442.188 805.79 438.772 804.639 434.828 805.281 432.195 801.53 428.707 800.653 424.262 802.708 420.247 803.293 416.893 801.863 412.792 802.556 411.93 794.234 407.509 795.823 404.503 793.567 401.706 790.832 399.098 787.695 394.024 790.622 390.638 789.351 388.849 784.385 382.584 789.679 381.071 784.191 376.173 786.171 373.53 783.249 371.395 779.346 368.157 777.76 363.401 779.155 361.668 774.613 357.917 773.986 352.645 776.104 353.277 767.45 348.923 767.855 347.898 762.443 344.259 761.585 341.475 759.279 335.72 761.775 332.061 760.782 328.212 760.041 328.288 753.327 326.007 750.292 318.781 754.444 320.553 745.613 314.832 747.432 311.115 746.373 306.937 745.876 305.956 741.165 301.543 740.91 298.204 739.237 300.877 730.246 295.292 731.341 291.915 729.726 288.599 728.01 286.301 725.133 287.835 718.117 281.049 720.132 277.353 718.744 274.267 716.685 276.513 709.318 268.181 712.416 268.179 707.369 268.88 701.781 267.066 698.601 262.317 698.037 257.883 697.101 256.898 693.18 253.219 691.525 255.817 684.783 249.769 684.992 244.712 684.298 243.121 680.917 243.82 675.895 242.621 672.32 235.795 672.658 236.746 667.6 237.988 662.456 237.513 658.518 233.13 657.055 231.499 653.845 225.773 653.05 226.779 648.28 225.617 644.805 220.6 643.431 225.052 636.984 222.231 634.431 217.826 632.627 214.827 630.065 215.354 625.817 214.49 622.256 214.404 618.37 209.186 616.698 212.15 611.565 208.197 609.294 206.452 606.106 203.916 603.199 203.233 599.596 206.59 594.613 203.717 591.814 203.32 588.178 197.174 586.331 193.979 583.489 192.472 580.116 194.716 575.704 191.815 572.713 197.93 567.418 191.54 563.344 197.541 565.307 200.288 562.852 202.604 559.646 208.016 561.848 207.847 554.298 211.898 554.123 215.313 552.835 217.328 549.101 220.163 546.798 226.694 550.952 228.691 547.184 228.719 539.972 233.115 540.392 237.961 541.596 238.233 534.806 244.663 538.778 248.171 537.644 250.62 534.664 250.57 527.316 253.493 525.165 260.233 529.683 261.668 524.935 267.378 527.654 269.841 524.701 273.759 524.29 276.717 522.202 277.909 517.027 279.093 511.839 282.695 510.872 286.668 510.555 291.662 512.018 291.904 505.177 294.224 501.967 300.044 504.87 301.16 499.557 304.925 498.873 309.845 500.21 310.323 493.784 315.609 495.762 319.137 494.667 323.896 495.725 323.631 488.003 325.635 484.244 331.181 486.675 332.505 481.726 336.007 480.583 339.793 479.933 344.665 481.179 348.436 480.504 350.779 477.334 353.039 474.021 356.617 473.01 360.244 472.088 360.154 464.67 363.137 462.621 366.173 460.665 370.357 460.714 376.594 464.349 379.585 462.31 380.447 456.547 385.806 458.646 388.3 455.74 391.931 454.822 395.039 452.991 396.852 448.896 398.893 445.201 401.084 441.767 403.79 439.231 411.134 444.797 410.887 437.096 415.996 438.759 420.13 438.717 419.476 430.31 423.413 429.928 429.728 433.698 430.404 427.616 435.475 429.211 438.012 426.376 441.348 424.938 445.52 424.963 445.431 417.543 448.605 415.825 453.177 416.549 456.877 415.749 460.232 414.343 464.01 413.676 465.101 408.317 467.956 406.052 471.071 404.236 474.606 403.151 479.945 405.212 482.082 401.68 485.761 400.846 486.043 394.081 491.963 397.168 493.442 392.497 497.02 391.492 501.676 392.37 502.2 386.025 506.073 385.527 510.055 385.214 512.202 381.7 517.9 384.392 518.473 378.132 520.337 374.131 523.063 371.633 530.021 376.526 533.371 375.111 534.248 369.372 539.107 370.596 540.379 365.555 545.336 366.954 548.351 364.955 551.944 363.963 552.879 358.327 555.63 355.866 559.979 356.199 563.667 355.375 565.589 351.459 567.061 346.763 569.707 344.119 573.304 343.132 577.608 343.38 583.486 346.38 583.749 339.569 589.293 341.983 592.651 340.58 591.439 331.187 596.799 333.282 599.495 330.718 603.633 330.68 608.184 331.371 607.968 323.727 611.57 322.746 614.615 320.8 619.741 322.481 620.644 316.787 625.8 318.519 629.84 318.303 632.16 315.08 634.081 311.157 638.162 311.007 641.221 309.079 644.736 307.941 647.174 304.921 650.042 302.648 653.453 301.313 655.69 294.925 662.38 300.463 659.41 306.118 665.671 306.167 666.16 309.898 668.693 312.186 666.777 318.341 667.925 322.217 669.853 325.512 676.865 323.08 680.616 323.851 680.586 329.602 682.529 333.104 685.723 334.82 691.198 332.258 693.225 335.879 696.62 336.378 699.885 337.012 701.341 342.863 706.855 340.762" style="fill: none; stroke: #000; stroke-linecap: round; stroke-linejoin: round; stroke-width: 40px;"/>
  </g>
  <g>
    <polygon points="802.642 300.655 798.075 302.474 797.365 306.27 793.907 308.395 795.123 313.73 790.114 314.567 786.46 316.181 783.072 317.839 781.55 321.291 780.927 325.985 777.928 328.129 776.615 332.595 772.456 333.167 770.116 336.507 762.941 331.04 761.665 336.318 760.039 341.745 754.588 337.893 751.613 340.222 748.387 342.072 744.955 343.385 741.329 343.872 737.972 346.364 734.271 346.93 730.358 342.256 726.87 338.844 723.269 343.063 719.189 348.033 716.006 343.56 711.863 345.923 709.599 339.316 705.295 341.647 702.385 339.763 699.651 337.621 695.598 338.744 695.291 331.593 687.901 338.403 685.226 335.66 685.52 328.544 680.483 329.747 679.726 324.974 678.975 320.641 676.58 318.406 671.027 319.219 668.774 316.574 666.168 314.222 663.216 312.064 662.105 308.555 655.82 308.299 662.447 300.425 659.69 298.12 659.643 294.376 649.378 294.728 656.684 288.258 648.809 286.974 646.454 283.708 650.031 279.171 646.125 276.109 647.512 272.217 652.979 268.274 644.212 264.934 650.6 261.396 652.418 258.039 649.046 254.138 645.569 249.86 651.887 247.41 654.27 244.409 655.453 241.162 653.072 236.587 657.151 234.4 655.251 229.618 660.418 228.302 662.882 225.781 659.075 219.218 667.14 220.513 662.652 212.65 670.55 214.594 669.854 209.223 673.981 208.35 676.74 206.213 677.759 201.92 682.367 202.16 682.991 196.823 686.334 195.328 687.825 190.464 692.151 190.761 696.039 190.519 700.57 192.325 704.671 193.752 706.054 186.219 710.891 191.031 713.236 185.031 716.99 185.745 720.515 185.146 724.021 183.569 727.655 181.382 731.287 183.641 734.932 183.646 737.637 190.791 741.253 189.544 745.607 185.844 748.584 188.654 753.615 184.62 754.958 191.74 757.368 194.972 763.195 190.703 764.395 196.232 769.512 194.448 769.862 200.573 773.845 200.936 775.14 204.97 781.039 203.408 785.014 204.519 784.925 209.756 787.689 212.063 788.739 215.799 792.004 217.762 795.591 219.673 798.078 222.443 794.405 228.592 797.198 231.025 804.002 231.889 802.608 236.39 801.763 240.441 799.222 244.771 806.233 246.588 802.565 250.932 809.117 253.489 806.783 257.404 809.857 260.834 805.016 264.529 808.379 268.154 810.978 272.029 808.364 275.464 807.544 279.03 801.411 281.361 806.335 286.251 804.49 289.502 803.762 293.103 802.601 296.575 802.642 300.655" style="fill: #fff;"/>
    <polygon points="802.642 300.655 798.075 302.474 797.365 306.27 793.907 308.395 795.123 313.73 790.114 314.567 786.46 316.181 783.072 317.839 781.55 321.291 780.927 325.985 777.928 328.129 776.615 332.595 772.456 333.167 770.116 336.507 762.941 331.04 761.665 336.318 760.039 341.745 754.588 337.893 751.613 340.222 748.387 342.072 744.955 343.385 741.329 343.872 737.972 346.364 734.271 346.93 730.358 342.256 726.87 338.844 723.269 343.063 719.189 348.033 716.006 343.56 711.863 345.923 709.599 339.316 705.295 341.647 702.385 339.763 699.651 337.621 695.598 338.744 695.291 331.593 687.901 338.403 685.226 335.66 685.52 328.544 680.483 329.747 679.726 324.974 678.975 320.641 676.58 318.406 671.027 319.219 668.774 316.574 666.168 314.222 663.216 312.064 662.105 308.555 655.82 308.299 662.447 300.425 659.69 298.12 659.643 294.376 649.378 294.728 656.684 288.258 648.809 286.974 646.454 283.708 650.031 279.171 646.125 276.109 647.512 272.217 652.979 268.274 644.212 264.934 650.6 261.396 652.418 258.039 649.046 254.138 645.569 249.86 651.887 247.41 654.27 244.409 655.453 241.162 653.072 236.587 657.151 234.4 655.251 229.618 660.418 228.302 662.882 225.781 659.075 219.218 667.14 220.513 662.652 212.65 670.55 214.594 669.854 209.223 673.981 208.35 676.74 206.213 677.759 201.92 682.367 202.16 682.991 196.823 686.334 195.328 687.825 190.464 692.151 190.761 696.039 190.519 700.57 192.325 704.671 193.752 706.054 186.219 710.891 191.031 713.236 185.031 716.99 185.745 720.515 185.146 724.021 183.569 727.655 181.382 731.287 183.641 734.932 183.646 737.637 190.791 741.253 189.544 745.607 185.844 748.584 188.654 753.615 184.62 754.958 191.74 757.368 194.972 763.195 190.703 764.395 196.232 769.512 194.448 769.862 200.573 773.845 200.936 775.14 204.97 781.039 203.408 785.014 204.519 784.925 209.756 787.689 212.063 788.739 215.799 792.004 217.762 795.591 219.673 798.078 222.443 794.405 228.592 797.198 231.025 804.002 231.889 802.608 236.39 801.763 240.441 799.222 244.771 806.233 246.588 802.565 250.932 809.117 253.489 806.783 257.404 809.857 260.834 805.016 264.529 808.379 268.154 810.978 272.029 808.364 275.464 807.544 279.03 801.411 281.361 806.335 286.251 804.49 289.502 803.762 293.103 802.601 296.575 802.642 300.655" style="fill: none; stroke: #000; stroke-linecap: round; stroke-linejoin: round; stroke-width: 40px;"/>
  </g>
</svg>