<?xml version="1.0" encoding="UTF-8"?>
<svg id="Stickers" xmlns="http://www.w3.org/2000/svg" width="1000" height="1000" viewBox="0 0 1000 1000">
  <polygon points="649.773 135.848 649.401 130.123 645.922 139.217 642.179 133.247 638.669 136.305 635.123 137.45 631.565 138.061 628.089 139.748 623.904 132.007 620.174 131.231 616.827 134.585 613.081 133.694 609.891 137.732 605.901 134.951 602.104 134.041 598.752 136.325 596.096 142.788 591.357 136.163 588.17 139.059 585.427 144.058 581.409 142.207 577.829 142.701 574.612 144.865 571.354 146.727 567.932 147.818 562.612 141.332 559.906 145.424 557.271 149.526 553.914 150.843 549.345 148.015 546.206 150.147 543.603 153.903 540.66 156.438 534.892 150.524 533.764 158.349 529.116 155.993 527.023 160.727 522.594 159.159 519.264 160.541 517.269 165.207 511.602 160.898 511.032 168.77 507.398 169.352 502.399 166.966 498.009 166.09 495.278 168.811 491.215 168.753 489.664 173.782 486.481 175.473 482.543 175.728 481.398 181.228 475.389 177.748 471.454 178.174 469.083 181.365 468.61 187.701 461.949 183.618 462.819 191.961 455.631 187.289 456.231 194.947 450.884 193.359 450.643 199.489 445.465 198.284 441.488 198.92 438.884 201.525 435.701 203.322 436.446 210.378 430.278 208.195 431.106 215.151 424.788 212.945 425.351 219.384 418.645 216.888 416.383 219.837 414.403 223.09 414.35 228.497 411.365 230.519 404.356 228.16 406.542 235.835 399.882 234.018 401.047 240.425 394.02 238.409 391.751 241.281 393.193 247.744 385.201 245.076 388.901 253.528 383.067 253.028 378.979 254.216 380.933 260.779 378.699 263.58 372.103 262.689 369.745 265.454 369.229 269.716 363.38 269.675 366.228 276.534 359.523 275.93 360.796 281.442 361.019 286.077 359.224 289.191 353.553 289.569 353.013 293.589 352.058 297.284 351.415 301.156 350.293 304.68 347.756 307.288 338.709 305.884 338.381 309.951 339.942 315.094 335.408 316.621 332.262 319.005 329.937 321.877 333.403 327.888 327.44 328.8 328.575 333.47 326.621 336.52 324.2 339.35 323.722 343.127 324.514 347.469 317.878 348.39 320.937 353.711 315.126 355.117 311.572 357.568 317.629 363.971 317.738 367.857 313.407 370.01 308.021 371.841 307.5 375.518 309.435 380.036 306.968 382.997 304.472 385.977 308.931 391.185 305.82 393.963 302.911 396.845 305.587 401.351 295.987 402.431 297.332 406.563 299.178 410.773 296.505 413.838 298.067 417.915 292.008 420.268 293.503 424.313 293.456 428.004 292.13 431.44 292.674 435.224 293.033 438.952 290.513 442.206 288.997 445.648 296.118 450.301 289.907 453.096 294.353 457.262 294.248 460.84 287.511 463.764 291.399 467.749 285.867 470.915 290.068 474.85 286.442 478.239 291.947 482.14 285.175 485.451 287.489 489.158 286.876 492.761 285.894 496.371 285.915 500 292.593 503.564 286.098 507.254 287.082 510.854 286.298 514.506 283.377 518.28 285.37 521.827 285.263 525.482 291.939 528.615 290.648 532.322 288.424 536.153 294.636 539.124 289.274 543.344 290.745 546.805 289.467 550.625 295.154 553.45 293.391 557.348 292.632 561.125 297.058 564.004 291.378 568.713 290.034 572.689 297.487 574.865 296.133 578.838 299.228 581.83 294.409 586.681 303.499 588.154 302.942 591.981 297.651 597.13 298.185 600.761 303.826 602.901 307.586 605.513 301.374 611.218 305.931 613.561 309.234 616.253 307.305 620.723 305.669 625.158 312.881 626.369 316.279 628.906 313.228 633.938 317.949 635.915 315.784 640.69 320.708 642.504 320.047 646.7 318.138 651.511 325.69 652.003 324.638 656.455 325.249 660.157 325.926 663.85 332.196 664.689 331.469 669.099 327.675 675.225 329.596 678.335 338.077 677.731 336.801 682.597 334.85 687.944 343.459 687 339.047 693.932 343.97 695.132 349.633 695.771 346.091 702.387 346.994 706.16 349.077 709.152 357.151 707.926 354.352 714.338 355.962 717.661 358.853 720.042 365.605 719.449 361.152 727.456 370.151 724.964 371.556 728.423 368.257 735.81 376.281 733.809 379.254 735.972 375.291 744.216 381.056 743.952 384.26 745.914 386.341 748.895 388.211 752.091 390.054 755.337 394.036 756.49 394.871 760.766 399.285 761.424 400.061 765.83 405.283 765.549 403.946 772.324 406.84 774.558 408.632 778.038 416.477 774.542 419.428 776.597 417.016 785.114 423.142 783.372 424.172 787.866 426.43 790.879 428.654 793.967 431.868 795.771 439.627 791.364 437.262 800.769 445.691 795.147 444.264 803.497 446.58 806.571 451.05 806.428 452.665 810.608 459.823 806.124 458.869 814.461 465.957 809.801 465.636 817.363 469.024 818.777 475.332 815.008 477.447 818.569 479.325 822.655 481.648 826.012 486.257 825.004 487.408 830.756 491.063 831.601 497.94 825.654 498.111 833.734 501.746 834.517 504.335 837.632 508.537 837.083 511.058 840.445 514.99 840.446 520.059 837.485 521.813 842.922 527.072 839.181 527.964 847.25 531.752 847.459 536.387 845.1 539.121 848.318 544.406 843.604 545.956 850.723 550.011 849.772 553.834 849.491 556.983 851.582 559.686 855.47 562.53 859.05 568.133 851.404 571.07 854.56 574.461 855.878 578.443 854.429 581.425 857.77 585.121 857.618 588.756 857.715 592.182 858.993 595.616 860.304 599.632 857.787 602.777 861.145 606.877 857.478 609.745 863.568 613.89 858.869 617.332 860.316 620.505 865.069 624.323 862.69 627.492 869.052 631.222 867.858 635.044 864.236 638.543 866.972 642.332 861.537 645.806 866.781 649.451 864.694 657.616 866.773 651.924 861.649 653.991 858.051 649.699 854.453 648.87 850.856 657.33 847.259 651.691 843.667 649.065 840.075 653.723 836.483 648.369 832.89 649.306 829.297 649.274 825.703 651.715 822.109 650.739 818.514 654.104 814.918 654.453 811.322 657.621 807.725 648.797 804.127 653.591 800.528 657.541 796.93 653.202 793.333 654.975 789.736 655.173 786.14 653.523 782.545 648.063 778.95 648.946 775.355 648.135 771.761 656.005 768.168 654.555 764.574 657.471 760.981 650.135 757.388 655.566 753.795 656.405 750.202 650.866 746.61 655.392 743.017 653.331 739.424 655.765 735.831 657.032 732.238 656.771 728.644 648.185 725.05 648.372 721.456 648.973 717.861 648.933 714.266 651.089 710.67 651.49 707.073 656.762 703.476 654.75 699.877 654.915 696.278 654.343 692.679 649.857 689.081 652.167 685.483 653.247 681.887 655.706 678.29 650.748 674.695 653.707 671.099 656.589 667.504 648.362 663.91 655.832 660.315 655.793 656.721 649.407 653.126 655.097 649.532 654.485 645.937 650.084 642.342 656.455 638.747 655.921 635.152 652.244 631.556 654.014 627.959 651.806 624.362 651.214 620.764 649.057 617.165 652.713 613.565 649.046 609.965 650.477 606.367 648.524 602.769 649.503 599.172 656.051 595.575 651.367 591.979 649.07 588.383 657.156 584.787 652.795 581.191 648.729 577.596 652.995 574 657.105 570.404 655.616 566.807 648.275 563.21 654.327 559.612 648.785 556.014 656.399 552.415 654.64 548.815 651.423 545.215 656.304 541.616 650.081 538.018 648.463 534.42 655.259 530.823 654.624 527.226 648.944 523.629 652.212 520.032 649.326 516.435 652.434 512.838 657.125 509.24 649.415 505.642 652.106 502.043 653.929 498.443 653.765 494.843 657.007 491.243 658.024 487.644 656.637 484.045 648.268 480.447 655.465 476.85 657.848 473.252 657.53 469.654 656.067 466.056 656.421 462.458 654.448 458.859 654.573 455.259 648.368 451.658 652.452 448.057 654.879 444.458 655.913 440.859 654.291 437.261 648.711 433.663 654.692 430.064 653.887 426.466 648.853 422.866 651.117 419.266 655.444 415.664 656.055 412.064 655.229 408.465 650.764 404.866 651.319 401.267 650.415 397.668 654.723 394.068 649.25 390.468 655.814 386.867 657.016 383.266 652.897 379.666 654.62 376.067 654.415 372.467 653.145 368.868 655.287 365.268 652.587 361.666 654.214 358.065 654.268 354.465 651.147 350.865 652.75 347.265 656.392 343.665 657.929 340.064 648.657 336.463 654.464 332.862 652.51 329.262 652.782 325.667 650.035 322.072 652.077 318.477 650.549 314.881 649.945 311.283 649.989 307.684 654.208 304.081 651.631 300.481 648.87 296.883 655.941 293.285 656.749 289.688 653.367 286.091 654.907 282.491 653.476 278.89 654.292 275.288 650.754 271.688 650.763 268.089 655.433 264.49 649.661 260.89 650.574 257.287 649.025 253.685 648.091 250.085 656.23 246.485 650.229 242.884 657.953 239.28 652.885 235.678 652.732 232.077 656.94 228.475 657.717 224.871 657.078 221.27 655.226 217.667 648.262 214.063 649.274 210.461 651.844 206.857 655.927 203.254 649.839 199.65 653.069 196.046 651.191 192.442 653.573 188.842 651.347 185.238 649.744 181.638 650.151 178.034 655.029 174.432 656.552 170.826 650.049 167.223 655.696 163.618 652.801 160.011 648.438 156.405 656.143 152.798 648.802 149.192 648.163 145.586 655.318 141.979 651.651 139.119 649.773 135.848" style="fill: #fff;"/>
  <polygon points="649.773 135.848 649.401 130.123 645.922 139.217 642.179 133.247 638.669 136.305 635.123 137.45 631.565 138.061 628.089 139.748 623.904 132.007 620.174 131.231 616.827 134.585 613.081 133.694 609.891 137.732 605.901 134.951 602.104 134.041 598.752 136.325 596.096 142.788 591.357 136.163 588.17 139.059 585.427 144.058 581.409 142.207 577.829 142.701 574.612 144.865 571.354 146.727 567.932 147.818 562.612 141.332 559.906 145.424 557.271 149.526 553.914 150.843 549.345 148.015 546.206 150.147 543.603 153.903 540.66 156.438 534.892 150.524 533.764 158.349 529.116 155.993 527.023 160.727 522.594 159.159 519.264 160.541 517.269 165.207 511.602 160.898 511.032 168.77 507.398 169.352 502.399 166.966 498.009 166.09 495.278 168.811 491.215 168.753 489.664 173.782 486.481 175.473 482.543 175.728 481.398 181.228 475.389 177.748 471.454 178.174 469.083 181.365 468.61 187.701 461.949 183.618 462.819 191.961 455.631 187.289 456.231 194.947 450.884 193.359 450.643 199.489 445.465 198.284 441.488 198.92 438.884 201.525 435.701 203.322 436.446 210.378 430.278 208.195 431.106 215.151 424.788 212.945 425.351 219.384 418.645 216.888 416.383 219.837 414.403 223.09 414.35 228.497 411.365 230.519 404.356 228.16 406.542 235.835 399.882 234.018 401.047 240.425 394.02 238.409 391.751 241.281 393.193 247.744 385.201 245.076 388.901 253.528 383.067 253.028 378.979 254.216 380.933 260.779 378.699 263.58 372.103 262.689 369.745 265.454 369.229 269.716 363.38 269.675 366.228 276.534 359.523 275.93 360.796 281.442 361.019 286.077 359.224 289.191 353.553 289.569 353.013 293.589 352.058 297.284 351.415 301.156 350.293 304.68 347.756 307.288 338.709 305.884 338.381 309.951 339.942 315.094 335.408 316.621 332.262 319.005 329.937 321.877 333.403 327.888 327.44 328.8 328.575 333.47 326.621 336.52 324.2 339.35 323.722 343.127 324.514 347.469 317.878 348.39 320.937 353.711 315.126 355.117 311.572 357.568 317.629 363.971 317.738 367.857 313.407 370.01 308.021 371.841 307.5 375.518 309.435 380.036 306.968 382.997 304.472 385.977 308.931 391.185 305.82 393.963 302.911 396.845 305.587 401.351 295.987 402.431 297.332 406.563 299.178 410.773 296.505 413.838 298.067 417.915 292.008 420.268 293.503 424.313 293.456 428.004 292.13 431.44 292.674 435.224 293.033 438.952 290.513 442.206 288.997 445.648 296.118 450.301 289.907 453.096 294.353 457.262 294.248 460.84 287.511 463.764 291.399 467.749 285.867 470.915 290.068 474.85 286.442 478.239 291.947 482.14 285.175 485.451 287.489 489.158 286.876 492.761 285.894 496.371 285.915 500 292.593 503.564 286.098 507.254 287.082 510.854 286.298 514.506 283.377 518.28 285.37 521.827 285.263 525.482 291.939 528.615 290.648 532.322 288.424 536.153 294.636 539.124 289.274 543.344 290.745 546.805 289.467 550.625 295.154 553.45 293.391 557.348 292.632 561.125 297.058 564.004 291.378 568.713 290.034 572.689 297.487 574.865 296.133 578.838 299.228 581.83 294.409 586.681 303.499 588.154 302.942 591.981 297.651 597.13 298.185 600.761 303.826 602.901 307.586 605.513 301.374 611.218 305.931 613.561 309.234 616.253 307.305 620.723 305.669 625.158 312.881 626.369 316.279 628.906 313.228 633.938 317.949 635.915 315.784 640.69 320.708 642.504 320.047 646.7 318.138 651.511 325.69 652.003 324.638 656.455 325.249 660.157 325.926 663.85 332.196 664.689 331.469 669.099 327.675 675.225 329.596 678.335 338.077 677.731 336.801 682.597 334.85 687.944 343.459 687 339.047 693.932 343.97 695.132 349.633 695.771 346.091 702.387 346.994 706.16 349.077 709.152 357.151 707.926 354.352 714.338 355.962 717.661 358.853 720.042 365.605 719.449 361.152 727.456 370.151 724.964 371.556 728.423 368.257 735.81 376.281 733.809 379.254 735.972 375.291 744.216 381.056 743.952 384.26 745.914 386.341 748.895 388.211 752.091 390.054 755.337 394.036 756.49 394.871 760.766 399.285 761.424 400.061 765.83 405.283 765.549 403.946 772.324 406.84 774.558 408.632 778.038 416.477 774.542 419.428 776.597 417.016 785.114 423.142 783.372 424.172 787.866 426.43 790.879 428.654 793.967 431.868 795.771 439.627 791.364 437.262 800.769 445.691 795.147 444.264 803.497 446.58 806.571 451.05 806.428 452.665 810.608 459.823 806.124 458.869 814.461 465.957 809.801 465.636 817.363 469.024 818.777 475.332 815.008 477.447 818.569 479.325 822.655 481.648 826.012 486.257 825.004 487.408 830.756 491.063 831.601 497.94 825.654 498.111 833.734 501.746 834.517 504.335 837.632 508.537 837.083 511.058 840.445 514.99 840.446 520.059 837.485 521.813 842.922 527.072 839.181 527.964 847.25 531.752 847.459 536.387 845.1 539.121 848.318 544.406 843.604 545.956 850.723 550.011 849.772 553.834 849.491 556.983 851.582 559.686 855.47 562.53 859.05 568.133 851.404 571.07 854.56 574.461 855.878 578.443 854.429 581.425 857.77 585.121 857.618 588.756 857.715 592.182 858.993 595.616 860.304 599.632 857.787 602.777 861.145 606.877 857.478 609.745 863.568 613.89 858.869 617.332 860.316 620.505 865.069 624.323 862.69 627.492 869.052 631.222 867.858 635.044 864.236 638.543 866.972 642.332 861.537 645.806 866.781 649.451 864.694 657.616 866.773 651.924 861.649 653.991 858.051 649.699 854.453 648.87 850.856 657.33 847.259 651.691 843.667 649.065 840.075 653.723 836.483 648.369 832.89 649.306 829.297 649.274 825.703 651.715 822.109 650.739 818.514 654.104 814.918 654.453 811.322 657.621 807.725 648.797 804.127 653.591 800.528 657.541 796.93 653.202 793.333 654.975 789.736 655.173 786.14 653.523 782.545 648.063 778.95 648.946 775.355 648.135 771.761 656.005 768.168 654.555 764.574 657.471 760.981 650.135 757.388 655.566 753.795 656.405 750.202 650.866 746.61 655.392 743.017 653.331 739.424 655.765 735.831 657.032 732.238 656.771 728.644 648.185 725.05 648.372 721.456 648.973 717.861 648.933 714.266 651.089 710.67 651.49 707.073 656.762 703.476 654.75 699.877 654.915 696.278 654.343 692.679 649.857 689.081 652.167 685.483 653.247 681.887 655.706 678.29 650.748 674.695 653.707 671.099 656.589 667.504 648.362 663.91 655.832 660.315 655.793 656.721 649.407 653.126 655.097 649.532 654.485 645.937 650.084 642.342 656.455 638.747 655.921 635.152 652.244 631.556 654.014 627.959 651.806 624.362 651.214 620.764 649.057 617.165 652.713 613.565 649.046 609.965 650.477 606.367 648.524 602.769 649.503 599.172 656.051 595.575 651.367 591.979 649.07 588.383 657.156 584.787 652.795 581.191 648.729 577.596 652.995 574 657.105 570.404 655.616 566.807 648.275 563.21 654.327 559.612 648.785 556.014 656.399 552.415 654.64 548.815 651.423 545.215 656.304 541.616 650.081 538.018 648.463 534.42 655.259 530.823 654.624 527.226 648.944 523.629 652.212 520.032 649.326 516.435 652.434 512.838 657.125 509.24 649.415 505.642 652.106 502.043 653.929 498.443 653.765 494.843 657.007 491.243 658.024 487.644 656.637 484.045 648.268 480.447 655.465 476.85 657.848 473.252 657.53 469.654 656.067 466.056 656.421 462.458 654.448 458.859 654.573 455.259 648.368 451.658 652.452 448.057 654.879 444.458 655.913 440.859 654.291 437.261 648.711 433.663 654.692 430.064 653.887 426.466 648.853 422.866 651.117 419.266 655.444 415.664 656.055 412.064 655.229 408.465 650.764 404.866 651.319 401.267 650.415 397.668 654.723 394.068 649.25 390.468 655.814 386.867 657.016 383.266 652.897 379.666 654.62 376.067 654.415 372.467 653.145 368.868 655.287 365.268 652.587 361.666 654.214 358.065 654.268 354.465 651.147 350.865 652.75 347.265 656.392 343.665 657.929 340.064 648.657 336.463 654.464 332.862 652.51 329.262 652.782 325.667 650.035 322.072 652.077 318.477 650.549 314.881 649.945 311.283 649.989 307.684 654.208 304.081 651.631 300.481 648.87 296.883 655.941 293.285 656.749 289.688 653.367 286.091 654.907 282.491 653.476 278.89 654.292 275.288 650.754 271.688 650.763 268.089 655.433 264.49 649.661 260.89 650.574 257.287 649.025 253.685 648.091 250.085 656.23 246.485 650.229 242.884 657.953 239.28 652.885 235.678 652.732 232.077 656.94 228.475 657.717 224.871 657.078 221.27 655.226 217.667 648.262 214.063 649.274 210.461 651.844 206.857 655.927 203.254 649.839 199.65 653.069 196.046 651.191 192.442 653.573 188.842 651.347 185.238 649.744 181.638 650.151 178.034 655.029 174.432 656.552 170.826 650.049 167.223 655.696 163.618 652.801 160.011 648.438 156.405 656.143 152.798 648.802 149.192 648.163 145.586 655.318 141.979 651.651 139.119 649.773 135.848" style="fill: none; stroke: #000; stroke-linecap: round; stroke-linejoin: round; stroke-width: 30px;"/>
</svg>