<?xml version="1.0" encoding="UTF-8"?>
<svg id="Sticker" xmlns="http://www.w3.org/2000/svg" width="1000" height="1000" viewBox="0 0 1000 1000">
  <polygon points="498.174 867.894 502.861 867.687 507.372 867.429 507.787 862.388 511.508 861.22 513.611 858.153 517.27 856.902 519.475 853.944 521.525 850.812 523.612 847.728 524.783 843.585 531.198 845.522 530.876 839.658 538.494 842.962 535.258 833.755 543.549 837.81 543.72 832.536 543.03 826.291 546.429 824.724 551.999 825.624 557.099 825.977 557.927 821.477 558.47 816.664 560.084 813.07 563.518 811.528 570.9 814.413 570.462 808.519 570.134 802.761 573.321 800.938 577.142 799.815 582.584 800.486 581.502 793.922 588.558 796.37 587.583 789.949 593.933 791.594 597.191 789.831 595.521 782.676 602.738 785.236 602.426 779.579 602.625 774.492 608.682 775.76 607.492 769.184 609.933 766.539 618.192 770.144 619.298 766.053 620.725 762.314 625.885 762.559 627.098 758.595 628.442 754.776 632.529 753.865 631.222 747.257 636.047 747.12 638.088 744.051 644.612 745.671 646.191 742.112 649.449 740.305 652.194 737.962 653.589 734.221 651.901 727.309 658.897 729.349 661.76 727.126 664.647 724.926 667.549 722.739 666.727 716.767 667.427 712.358 675.953 715.866 676.038 710.843 675.162 704.873 679.133 703.768 681.006 700.563 682.043 696.532 686.478 695.872 689.901 694.202 692.185 691.406 697.522 691.6 700.91 689.872 702.78 686.663 706.348 685.101 708.656 682.316 709.369 677.998 710.561 674.151 713.501 671.982 713.628 667.135 717.642 665.985 721.972 665.121 720.304 658.611 725.051 658.13 727.579 655.566 732.12 654.867 733.035 650.804 738.708 651.126 740.066 647.473 739.229 641.831 741.09 638.662 748.116 640.155 748.173 635.353 748.539 630.848 755.84 632.524 751.091 623.501 758.134 624.916 756.78 618.94 763.772 620.263 762.807 614.656 768.643 614.933 767 608.777 773.836 609.873 770.687 602.476 775.357 601.706 776.056 597.596 779.47 595.755 781.101 592.434 783.637 589.861 784.932 586.277 787.458 583.699 788.715 580.1 791.869 578.025 796.128 576.812 799.491 574.873 804.534 574.227 803.17 568.603 802.802 563.787 809.023 564.003 807.23 558.14 812.396 557.516 810.873 551.913 813.413 549.331 821.324 550.627 819.879 545.135 821.44 541.83 821.047 537.165 825.832 536.13 825.68 531.668 829.438 529.888 835.14 529.379 834.914 524.897 832.631 519.113 837.812 518.2 840.03 515.353 842.007 512.33 842.715 508.551 847.927 507.393 848.557 503.571 853.267 501.967 851.159 496.745 855.874 495.043 855.293 490.702 858.462 488.159 856.984 483.509 857.824 479.944 860.7 477.225 865.832 475.33 860.578 469.446 862.723 466.406 868.768 464.656 865.33 459.691 866.376 456.245 867.777 452.903 871.554 450.199 872.831 446.76 867.888 441.801 876.421 440.083 871.524 435.282 874.508 432.203 873.243 428.284 877.731 425.38 875.034 421.27 878.477 418.097 871.676 413.588 880.247 410.938 877.06 406.961 878.122 403.418 877.408 399.74 875.818 396.048 875.901 392.463 881.089 388.977 880.402 385.315 877.64 381.695 882.477 377.967 881.144 374.337 882.451 370.599 876.454 367.318 881.833 363.259 881.598 359.582 876.06 356.501 871.372 353.464 870.601 349.994 875.464 345.642 876.186 341.843 877.579 337.877 868.337 336.014 871.585 331.676 871.465 328.004 869.165 324.857 867.135 321.683 871.801 316.651 865.057 314.848 866.36 310.693 866.983 306.686 859.739 305.364 861.514 300.947 859.033 298.058 861.382 293.276 861.029 289.494 860.976 285.544 853.133 285.084 859.083 278.332 855.878 275.803 847.869 275.79 851.824 269.676 851.051 265.94 843.847 265.836 845.71 260.592 843.619 257.615 842.284 254.167 838.964 251.994 836.413 249.358 836.382 244.98 831.541 243.99 827.639 242.481 832.094 234.613 824.689 235.86 827.732 228.775 823.774 227.356 821.914 224.177 817.97 222.871 813.956 221.732 814.053 216.649 809.629 216.002 807.693 212.849 801.748 214.1 800.129 210.642 796.101 210.005 797.983 202.017 794.398 200.744 790.697 199.719 787.569 197.963 785.635 194.397 784.083 190.036 779.868 189.96 774.073 192.95 770.126 192.958 767.583 190.306 765.305 186.935 762.148 185.341 758.804 184.18 755.515 182.898 751.179 184.608 748.276 182.337 746.033 177.489 742.553 176.48 737.93 180.269 736.074 172.097 732.183 172.839 728.093 175.28 724.895 172.233 720.747 176.591 717.614 171.987 713.632 177.298 710.422 170.542 706.697 174.201 703.133 170.347 699.533 172.542 695.917 172.223 692.018 167.759 688.514 170.305 685.565 177.278 681.805 175.594 677.802 172.838 674.279 173.788 670.839 175.103 667.183 175.247 663.935 177.291 660.121 176.841 657.504 181.062 654.011 181.774 650.416 182.192 647.199 183.834 642.77 181.984 641.156 187.985 637.356 187.963 632.423 185.392 628.976 186.579 624.737 186.11 624.932 194.822 620.49 193.909 614.86 191.066 611.581 192.757 612.715 201.798 606.095 197.89 604.17 201.608 602.928 206.156 596.997 204.026 596.001 208.759 594.493 212.618 588.452 210.918 587.323 215.175 581.759 214.453 581.879 219.898 578.24 221.377 576.866 225.077 572.819 226.305 570.933 229.501 573.42 236.134 566.58 235.34 567.707 240.766 561.769 240.823 562.6 246.062 557.792 246.949 559.499 252.907 552.467 252.036 547.968 253.135 548.082 257.864 546.986 261.64 541.605 262.053 543.805 268.41 540.79 270.675 536.212 271.74 532.803 273.731 535.442 280.328 530.221 280.954 531.182 286.21 525.732 286.725 525.107 290.778 527.126 296.663 519.429 295.705 518.069 299.205 514.567 301.259 515.303 306.125 510.888 307.618 507.708 309.952 507.355 314.052 507.633 318.489 508.482 323.204 505.81 325.829 498.133 325.69 502.492 332.268 500.008 330.904 497.734 328.031 494.973 325.419 494.937 321.326 496.795 316.197 495.712 312.661 487.378 313.106 486.876 309.263 487.998 304.499 480.981 304.316 486.623 296.928 484.59 293.898 480.032 292.372 479.91 288.213 476.669 285.941 476.126 282.003 469.082 282.198 471.178 276.56 464.909 276.364 465.028 271.969 464.828 267.749 464.276 263.738 460.262 262.112 457.194 259.848 455.712 256.468 454.217 253.091 447.636 253.395 452.725 245.232 444.316 246.908 440.999 244.874 446.362 236.397 438.673 237.61 440.343 231.828 438.605 228.467 435.168 226.497 430.33 225.898 431.892 219.441 426.119 219.946 421.289 219.801 421.571 214.167 416.434 214.592 413.316 212.795 412.329 208.247 409.481 206.013 408.586 200.938 405.073 199.543 401.691 198.007 399.242 194.945 392.805 198.814 388.879 198.604 387.163 194.222 384.478 191.541 382.17 187.92 379.775 184.266 373.061 190.798 372.167 183.386 367.418 185.672 364.412 183.392 362.333 178.143 358.113 179.312 354.071 180.177 351.233 176.82 348.444 172.887 343.843 176.353 339.347 180.093 336.794 174.561 332.716 176.808 329.81 172.146 326.115 172.175 321.915 176.68 318.37 176.39 314.964 174.394 311.787 167.59 307.9 171.78 304.206 174.701 300.64 174.74 297.016 171.069 293.322 169.558 289.987 175.626 286.03 170.459 282.497 171.941 279.01 173.408 275.43 173.894 271.786 174.003 268.62 176.76 264.393 174.07 260.176 172.145 256.82 174.024 253.592 176.167 251.289 180.988 247.089 179.637 245.617 185.908 240.427 182.273 237.288 184.036 233.744 184.878 232.289 190.057 229.403 192.066 224.105 189.664 222.49 194.014 215.969 190.137 214.426 194.507 211.422 196.503 209.969 200.663 203.751 198.3 204.374 205.023 198.93 203.992 195.393 205.456 197.048 212.773 195.34 216.101 189.907 215.535 186.957 217.653 182.591 218.458 183.263 224.005 182.842 228.38 177.487 228.431 178.259 233.709 175.408 235.936 169.964 236.198 165.324 237.223 170.095 245.175 168.436 248.356 162.03 248.302 163.632 253.696 155.604 252.828 156.849 257.902 152.509 259.54 154.172 264.707 155.81 269.719 151.15 271.255 150.745 275.083 146.864 277.154 142.332 279.004 139.702 281.829 140.397 286.146 142.626 291.026 137.128 292.682 134.866 295.724 140.079 301.533 131.843 302.43 129.68 305.581 136.602 311.631 127.884 312.741 128.332 316.693 129.502 320.79 127.712 324.078 126.252 327.472 130.459 332.129 129.798 335.639 124.76 338.322 124.594 341.983 129.417 346.418 123.533 349.16 122.654 352.704 127.367 356.893 126.008 360.333 126.668 363.972 121.899 367.21 120.062 370.739 125.736 374.611 121.452 378.068 126.995 381.746 125.111 385.295 126.194 388.842 117.244 392.699 121.915 396.162 120.972 399.847 127.5 402.986 124.848 406.789 125.785 410.296 119.929 414.614 121.409 418.116 122.465 421.653 126.595 424.663 126.689 428.3 128.779 431.56 127.278 435.539 125.67 439.611 124.774 443.584 131.967 445.523 132.497 449.091 130.454 453.418 130.445 457.22 130.839 460.927 133.238 463.979 139.289 465.694 134.084 471.432 137.88 473.889 139.397 477.187 145.578 478.506 145.765 482.299 145.729 486.238 143.233 491.405 143.698 495.255 149.113 496.606 148.277 501.144 154.07 502.121 151.441 507.755 153.111 511.021 155.274 513.994 163.963 512.827 162.893 517.748 161.265 523.087 163.143 526.177 163.783 530.096 166.941 532.332 172.789 532.706 172.464 537.298 179.855 536.516 174.052 545.006 175.907 548.13 184.43 546.43 184.942 550.492 184.923 554.97 189.818 555.818 186.708 562.645 192.644 562.682 196.833 564.007 199.108 566.782 197.606 572.494 203.239 572.659 202.993 577.426 202.269 582.604 207.553 583 211.717 584.264 210.942 589.524 214.895 590.946 215.624 595.008 218.016 597.707 223.186 598.085 225.038 601.22 223.974 606.826 227.262 608.765 230.638 610.62 230.278 615.673 235.268 616.125 240.079 616.707 238.744 622.642 239.287 626.961 245.628 626.173 244.142 632.301 251.736 630.357 252.749 634.273 252.106 639.696 257.946 639.27 260.386 641.91 262.88 644.502 266.664 645.908 265.047 652.287 271.79 650.952 275.214 652.672 274.496 658.255 277.764 660.123 282.538 660.565 279.923 667.982 284.954 668.174 287.206 670.996 287.149 676.033 288.303 679.924 294.01 679.432 299.073 679.541 296.763 686.797 303.279 685.48 306.023 687.826 303.839 695.011 312.656 691.386 310.159 698.908 316.211 697.979 318.579 700.696 318.906 705.453 322.965 706.484 326.473 708.059 323.889 715.775 330.349 714.37 334.057 715.733 333.655 721.276 337.888 722.101 338.185 726.951 339.864 730.393 347.446 727.757 345.934 734.491 347.15 738.421 353.794 736.715 357.236 738.324 361.172 739.412 360.753 745.058 366.651 744.078 367.259 748.658 365.855 755.376 373.608 752.409 370.812 760.627 377.707 758.545 376.793 764.784 382.689 763.747 385.329 766.188 389.044 767.471 388.147 773.728 391.532 775.368 391.551 780.656 398.367 778.565 398.452 783.793 399.458 788.028 406.142 786.048 408.519 788.78 413.822 788.291 411.815 795.859 415.822 796.795 419.548 798.037 420.911 801.902 422.251 805.799 426.804 806.113 430.031 807.902 433.246 809.701 436.36 811.611 436.644 816.71 438.159 820.429 442.188 821.306 447.825 820.352 451.186 821.969 449.402 829.448 456.403 826.914 456.09 832.737 457.328 836.797 461.208 837.826 462.302 842.061 470.343 838.276 471.824 842.059 471.376 848.082 473.789 850.788 475.978 853.759 479.127 855.614 486.861 852.102 486.112 858.505 486.73 863.311 489.729 865.336 494.344 865.46 494.47 870.801 499.38 870.415 498.174 867.894" style="fill: #fff;"/>
  <polygon points="498.174 867.894 502.861 867.687 507.372 867.429 507.787 862.388 511.508 861.22 513.611 858.153 517.27 856.902 519.475 853.944 521.525 850.812 523.612 847.728 524.783 843.585 531.198 845.522 530.876 839.658 538.494 842.962 535.258 833.755 543.549 837.81 543.72 832.536 543.03 826.291 546.429 824.724 551.999 825.624 557.099 825.977 557.927 821.477 558.47 816.664 560.084 813.07 563.518 811.528 570.9 814.413 570.462 808.519 570.134 802.761 573.321 800.938 577.142 799.815 582.584 800.486 581.502 793.922 588.558 796.37 587.583 789.949 593.933 791.594 597.191 789.831 595.521 782.676 602.738 785.236 602.426 779.579 602.625 774.492 608.682 775.76 607.492 769.184 609.933 766.539 618.192 770.144 619.298 766.053 620.725 762.314 625.885 762.559 627.098 758.595 628.442 754.776 632.529 753.865 631.222 747.257 636.047 747.12 638.088 744.051 644.612 745.671 646.191 742.112 649.449 740.305 652.194 737.962 653.589 734.221 651.901 727.309 658.897 729.349 661.76 727.126 664.647 724.926 667.549 722.739 666.727 716.767 667.427 712.358 675.953 715.866 676.038 710.843 675.162 704.873 679.133 703.768 681.006 700.563 682.043 696.532 686.478 695.872 689.901 694.202 692.185 691.406 697.522 691.6 700.91 689.872 702.78 686.663 706.348 685.101 708.656 682.316 709.369 677.998 710.561 674.151 713.501 671.982 713.628 667.135 717.642 665.985 721.972 665.121 720.304 658.611 725.051 658.13 727.579 655.566 732.12 654.867 733.035 650.804 738.708 651.126 740.066 647.473 739.229 641.831 741.09 638.662 748.116 640.155 748.173 635.353 748.539 630.848 755.84 632.524 751.091 623.501 758.134 624.916 756.78 618.94 763.772 620.263 762.807 614.656 768.643 614.933 767 608.777 773.836 609.873 770.687 602.476 775.357 601.706 776.056 597.596 779.47 595.755 781.101 592.434 783.637 589.861 784.932 586.277 787.458 583.699 788.715 580.1 791.869 578.025 796.128 576.812 799.491 574.873 804.534 574.227 803.17 568.603 802.802 563.787 809.023 564.003 807.23 558.14 812.396 557.516 810.873 551.913 813.413 549.331 821.324 550.627 819.879 545.135 821.44 541.83 821.047 537.165 825.832 536.13 825.68 531.668 829.438 529.888 835.14 529.379 834.914 524.897 832.631 519.113 837.812 518.2 840.03 515.353 842.007 512.33 842.715 508.551 847.927 507.393 848.557 503.571 853.267 501.967 851.159 496.745 855.874 495.043 855.293 490.702 858.462 488.159 856.984 483.509 857.824 479.944 860.7 477.225 865.832 475.33 860.578 469.446 862.723 466.406 868.768 464.656 865.33 459.691 866.376 456.245 867.777 452.903 871.554 450.199 872.831 446.76 867.888 441.801 876.421 440.083 871.524 435.282 874.508 432.203 873.243 428.284 877.731 425.38 875.034 421.27 878.477 418.097 871.676 413.588 880.247 410.938 877.06 406.961 878.122 403.418 877.408 399.74 875.818 396.048 875.901 392.463 881.089 388.977 880.402 385.315 877.64 381.695 882.477 377.967 881.144 374.337 882.451 370.599 876.454 367.318 881.833 363.259 881.598 359.582 876.06 356.501 871.372 353.464 870.601 349.994 875.464 345.642 876.186 341.843 877.579 337.877 868.337 336.014 871.585 331.676 871.465 328.004 869.165 324.857 867.135 321.683 871.801 316.651 865.057 314.848 866.36 310.693 866.983 306.686 859.739 305.364 861.514 300.947 859.033 298.058 861.382 293.276 861.029 289.494 860.976 285.544 853.133 285.084 859.083 278.332 855.878 275.803 847.869 275.79 851.824 269.676 851.051 265.94 843.847 265.836 845.71 260.592 843.619 257.615 842.284 254.167 838.964 251.994 836.413 249.358 836.382 244.98 831.541 243.99 827.639 242.481 832.094 234.613 824.689 235.86 827.732 228.775 823.774 227.356 821.914 224.177 817.97 222.871 813.956 221.732 814.053 216.649 809.629 216.002 807.693 212.849 801.748 214.1 800.129 210.642 796.101 210.005 797.983 202.017 794.398 200.744 790.697 199.719 787.569 197.963 785.635 194.397 784.083 190.036 779.868 189.96 774.073 192.95 770.126 192.958 767.583 190.306 765.305 186.935 762.148 185.341 758.804 184.18 755.515 182.898 751.179 184.608 748.276 182.337 746.033 177.489 742.553 176.48 737.93 180.269 736.074 172.097 732.183 172.839 728.093 175.28 724.895 172.233 720.747 176.591 717.614 171.987 713.632 177.298 710.422 170.542 706.697 174.201 703.133 170.347 699.533 172.542 695.917 172.223 692.018 167.759 688.514 170.305 685.565 177.278 681.805 175.594 677.802 172.838 674.279 173.788 670.839 175.103 667.183 175.247 663.935 177.291 660.121 176.841 657.504 181.062 654.011 181.774 650.416 182.192 647.199 183.834 642.77 181.984 641.156 187.985 637.356 187.963 632.423 185.392 628.976 186.579 624.737 186.11 624.932 194.822 620.49 193.909 614.86 191.066 611.581 192.757 612.715 201.798 606.095 197.89 604.17 201.608 602.928 206.156 596.997 204.026 596.001 208.759 594.493 212.618 588.452 210.918 587.323 215.175 581.759 214.453 581.879 219.898 578.24 221.377 576.866 225.077 572.819 226.305 570.933 229.501 573.42 236.134 566.58 235.34 567.707 240.766 561.769 240.823 562.6 246.062 557.792 246.949 559.499 252.907 552.467 252.036 547.968 253.135 548.082 257.864 546.986 261.64 541.605 262.053 543.805 268.41 540.79 270.675 536.212 271.74 532.803 273.731 535.442 280.328 530.221 280.954 531.182 286.21 525.732 286.725 525.107 290.778 527.126 296.663 519.429 295.705 518.069 299.205 514.567 301.259 515.303 306.125 510.888 307.618 507.708 309.952 507.355 314.052 507.633 318.489 508.482 323.204 505.81 325.829 498.133 325.69 502.492 332.268 500.008 330.904 497.734 328.031 494.973 325.419 494.937 321.326 496.795 316.197 495.712 312.661 487.378 313.106 486.876 309.263 487.998 304.499 480.981 304.316 486.623 296.928 484.59 293.898 480.032 292.372 479.91 288.213 476.669 285.941 476.126 282.003 469.082 282.198 471.178 276.56 464.909 276.364 465.028 271.969 464.828 267.749 464.276 263.738 460.262 262.112 457.194 259.848 455.712 256.468 454.217 253.091 447.636 253.395 452.725 245.232 444.316 246.908 440.999 244.874 446.362 236.397 438.673 237.61 440.343 231.828 438.605 228.467 435.168 226.497 430.33 225.898 431.892 219.441 426.119 219.946 421.289 219.801 421.571 214.167 416.434 214.592 413.316 212.795 412.329 208.247 409.481 206.013 408.586 200.938 405.073 199.543 401.691 198.007 399.242 194.945 392.805 198.814 388.879 198.604 387.163 194.222 384.478 191.541 382.17 187.92 379.775 184.266 373.061 190.798 372.167 183.386 367.418 185.672 364.412 183.392 362.333 178.143 358.113 179.312 354.071 180.177 351.233 176.82 348.444 172.887 343.843 176.353 339.347 180.093 336.794 174.561 332.716 176.808 329.81 172.146 326.115 172.175 321.915 176.68 318.37 176.39 314.964 174.394 311.787 167.59 307.9 171.78 304.206 174.701 300.64 174.74 297.016 171.069 293.322 169.558 289.987 175.626 286.03 170.459 282.497 171.941 279.01 173.408 275.43 173.894 271.786 174.003 268.62 176.76 264.393 174.07 260.176 172.145 256.82 174.024 253.592 176.167 251.289 180.988 247.089 179.637 245.617 185.908 240.427 182.273 237.288 184.036 233.744 184.878 232.289 190.057 229.403 192.066 224.105 189.664 222.49 194.014 215.969 190.137 214.426 194.507 211.422 196.503 209.969 200.663 203.751 198.3 204.374 205.023 198.93 203.992 195.393 205.456 197.048 212.773 195.34 216.101 189.907 215.535 186.957 217.653 182.591 218.458 183.263 224.005 182.842 228.38 177.487 228.431 178.259 233.709 175.408 235.936 169.964 236.198 165.324 237.223 170.095 245.175 168.436 248.356 162.03 248.302 163.632 253.696 155.604 252.828 156.849 257.902 152.509 259.54 154.172 264.707 155.81 269.719 151.15 271.255 150.745 275.083 146.864 277.154 142.332 279.004 139.702 281.829 140.397 286.146 142.626 291.026 137.128 292.682 134.866 295.724 140.079 301.533 131.843 302.43 129.68 305.581 136.602 311.631 127.884 312.741 128.332 316.693 129.502 320.79 127.712 324.078 126.252 327.472 130.459 332.129 129.798 335.639 124.76 338.322 124.594 341.983 129.417 346.418 123.533 349.16 122.654 352.704 127.367 356.893 126.008 360.333 126.668 363.972 121.899 367.21 120.062 370.739 125.736 374.611 121.452 378.068 126.995 381.746 125.111 385.295 126.194 388.842 117.244 392.699 121.915 396.162 120.972 399.847 127.5 402.986 124.848 406.789 125.785 410.296 119.929 414.614 121.409 418.116 122.465 421.653 126.595 424.663 126.689 428.3 128.779 431.56 127.278 435.539 125.67 439.611 124.774 443.584 131.967 445.523 132.497 449.091 130.454 453.418 130.445 457.22 130.839 460.927 133.238 463.979 139.289 465.694 134.084 471.432 137.88 473.889 139.397 477.187 145.578 478.506 145.765 482.299 145.729 486.238 143.233 491.405 143.698 495.255 149.113 496.606 148.277 501.144 154.07 502.121 151.441 507.755 153.111 511.021 155.274 513.994 163.963 512.827 162.893 517.748 161.265 523.087 163.143 526.177 163.783 530.096 166.941 532.332 172.789 532.706 172.464 537.298 179.855 536.516 174.052 545.006 175.907 548.13 184.43 546.43 184.942 550.492 184.923 554.97 189.818 555.818 186.708 562.645 192.644 562.682 196.833 564.007 199.108 566.782 197.606 572.494 203.239 572.659 202.993 577.426 202.269 582.604 207.553 583 211.717 584.264 210.942 589.524 214.895 590.946 215.624 595.008 218.016 597.707 223.186 598.085 225.038 601.22 223.974 606.826 227.262 608.765 230.638 610.62 230.278 615.673 235.268 616.125 240.079 616.707 238.744 622.642 239.287 626.961 245.628 626.173 244.142 632.301 251.736 630.357 252.749 634.273 252.106 639.696 257.946 639.27 260.386 641.91 262.88 644.502 266.664 645.908 265.047 652.287 271.79 650.952 275.214 652.672 274.496 658.255 277.764 660.123 282.538 660.565 279.923 667.982 284.954 668.174 287.206 670.996 287.149 676.033 288.303 679.924 294.01 679.432 299.073 679.541 296.763 686.797 303.279 685.48 306.023 687.826 303.839 695.011 312.656 691.386 310.159 698.908 316.211 697.979 318.579 700.696 318.906 705.453 322.965 706.484 326.473 708.059 323.889 715.775 330.349 714.37 334.057 715.733 333.655 721.276 337.888 722.101 338.185 726.951 339.864 730.393 347.446 727.757 345.934 734.491 347.15 738.421 353.794 736.715 357.236 738.324 361.172 739.412 360.753 745.058 366.651 744.078 367.259 748.658 365.855 755.376 373.608 752.409 370.812 760.627 377.707 758.545 376.793 764.784 382.689 763.747 385.329 766.188 389.044 767.471 388.147 773.728 391.532 775.368 391.551 780.656 398.367 778.565 398.452 783.793 399.458 788.028 406.142 786.048 408.519 788.78 413.822 788.291 411.815 795.859 415.822 796.795 419.548 798.037 420.911 801.902 422.251 805.799 426.804 806.113 430.031 807.902 433.246 809.701 436.36 811.611 436.644 816.71 438.159 820.429 442.188 821.306 447.825 820.352 451.186 821.969 449.402 829.448 456.403 826.914 456.09 832.737 457.328 836.797 461.208 837.826 462.302 842.061 470.343 838.276 471.824 842.059 471.376 848.082 473.789 850.788 475.978 853.759 479.127 855.614 486.861 852.102 486.112 858.505 486.73 863.311 489.729 865.336 494.344 865.46 494.47 870.801 499.38 870.415 498.174 867.894" style="fill: none; stroke: #000; stroke-linecap: round; stroke-linejoin: round; stroke-width: 35px;"/>
</svg>