<?xml version="1.0" encoding="UTF-8"?>
<svg id="SM_Icons" data-name="SM Icons" xmlns="http://www.w3.org/2000/svg" width="1000" height="1000" viewBox="0 0 1000 1000">
  <polygon points="842.361 842.362 831.485 843.099 819.437 843.966 807.389 841.219 795.34 844.113 783.289 841.971 771.236 841.782 759.187 841.274 747.138 845.585 735.088 842.127 723.034 845.217 710.982 845.155 698.933 843.686 686.882 841.902 674.828 842.209 662.776 844.037 650.726 845.204 638.673 841.969 626.62 842.913 614.569 845.19 602.517 842.55 590.463 844.672 578.411 843.508 566.358 845.353 554.305 841.273 542.252 844.919 530.197 841.384 518.145 844.198 506.089 842.171 494.036 845.315 481.981 841.23 469.927 841.785 457.873 843.749 445.818 845.672 433.764 844.07 421.709 841.423 409.653 843.327 397.597 844.562 385.543 843.76 373.488 841.827 361.437 842.573 349.382 843.067 337.331 842.995 325.276 845.003 313.22 845.734 301.165 843.385 289.11 843.346 277.054 843.735 264.995 841.361 252.939 842.444 240.882 841.36 228.824 845.112 216.77 845.799 204.713 843.18 192.652 845.262 180.595 843.98 168.529 844.221 156.39 843.61 155.729 831.485 157.269 819.437 157.499 807.389 158.437 795.34 154.908 783.289 158.662 771.236 154.308 759.187 155.406 747.138 157.418 735.088 155.958 723.034 158.604 710.982 156.205 698.933 155.857 686.882 158.41 674.828 156.187 662.776 154.407 650.726 155.129 638.673 154.555 626.62 158.258 614.569 155.161 602.517 157.024 590.463 157.144 578.411 158.685 566.358 155.872 554.305 157.465 542.252 155.792 530.197 158.243 518.145 157.972 506.089 156.93 494.036 158.447 481.981 155.066 469.927 154.612 457.873 156.983 445.818 155.269 433.764 158.006 421.709 156.629 409.653 158.398 397.597 156.022 385.543 157.144 373.488 156.627 361.437 158.852 349.382 154.555 337.331 158.151 325.276 158.521 313.22 155.637 301.165 156.488 289.11 154.721 277.054 157.374 264.995 156.377 252.939 158.673 240.882 155.813 228.824 156.891 216.77 158.209 204.713 156.547 192.652 156.89 180.595 154.396 168.529 157.834 157.833 168.515 157.951 180.563 156.903 192.611 155.649 204.66 156.871 216.711 154.524 228.764 155.222 240.813 154.337 252.862 158.584 264.912 154.254 276.966 155.231 289.018 158.583 301.067 156.286 313.118 156.289 325.172 158.825 337.224 154.33 349.274 156.554 361.327 156.593 373.38 158.499 385.431 157.924 397.483 154.618 409.537 155.55 421.589 156.276 433.642 157.756 445.695 155.937 457.748 156.1 469.803 156.172 481.855 157.3 493.911 154.99 505.964 158.515 518.019 154.43 530.073 154.384 542.127 154.254 554.182 155.386 566.236 154.229 578.291 154.059 590.347 158.831 602.403 157.942 614.457 154.104 626.512 154.88 638.563 154.704 650.618 157.271 662.669 156.777 674.724 155.97 686.78 156.085 698.835 156.554 710.89 157.635 722.946 154.693 735.005 154.814 747.061 157.892 759.118 154.555 771.176 157.292 783.23 157.304 795.287 154.832 807.348 158.315 819.405 157.32 831.471 156.966 845.151 154.847 844.703 168.515 845.771 180.563 842.386 192.611 841.816 204.66 843.301 216.711 843.059 228.764 844.201 240.813 844.287 252.862 844.016 264.912 845.247 276.966 842.45 289.018 841.516 301.067 841.215 313.118 844.571 325.172 842.513 337.224 844.042 349.274 843.036 361.327 842.199 373.38 844.224 385.431 845.003 397.483 843.921 409.537 841.258 421.589 844.107 433.642 842.136 445.695 842.056 457.748 843.151 469.803 841.329 481.855 845.334 493.911 842.476 505.964 842.324 518.019 844.407 530.073 841.155 542.127 844.133 554.182 842.136 566.236 843.202 578.291 843.217 590.347 841.69 602.403 841.989 614.457 843.22 626.512 844.857 638.563 845.345 650.618 843.373 662.669 841.762 674.724 842.971 686.78 844.442 698.835 844.983 710.89 842.957 722.946 844.451 735.005 843.171 747.061 844.567 759.118 841.189 771.176 844.104 783.23 844.122 795.287 842.657 807.348 844.983 819.405 845.483 831.571 842.361 842.362" style="fill: #fff;"/>
  <polygon points="842.361 842.362 831.485 843.099 819.437 843.966 807.389 841.219 795.34 844.113 783.289 841.971 771.236 841.782 759.187 841.274 747.138 845.585 735.088 842.127 723.034 845.217 710.982 845.155 698.933 843.686 686.882 841.902 674.828 842.209 662.776 844.037 650.726 845.204 638.673 841.969 626.62 842.913 614.569 845.19 602.517 842.55 590.463 844.672 578.411 843.508 566.358 845.353 554.305 841.273 542.252 844.919 530.197 841.384 518.145 844.198 506.089 842.171 494.036 845.315 481.981 841.23 469.927 841.785 457.873 843.749 445.818 845.672 433.764 844.07 421.709 841.423 409.653 843.327 397.597 844.562 385.543 843.76 373.488 841.827 361.437 842.573 349.382 843.067 337.331 842.995 325.276 845.003 313.22 845.734 301.165 843.385 289.11 843.346 277.054 843.735 264.995 841.361 252.939 842.444 240.882 841.36 228.824 845.112 216.77 845.799 204.713 843.18 192.652 845.262 180.595 843.98 168.529 844.221 156.39 843.61 155.729 831.485 157.269 819.437 157.499 807.389 158.437 795.34 154.908 783.289 158.662 771.236 154.308 759.187 155.406 747.138 157.418 735.088 155.958 723.034 158.604 710.982 156.205 698.933 155.857 686.882 158.41 674.828 156.187 662.776 154.407 650.726 155.129 638.673 154.555 626.62 158.258 614.569 155.161 602.517 157.024 590.463 157.144 578.411 158.685 566.358 155.872 554.305 157.465 542.252 155.792 530.197 158.243 518.145 157.972 506.089 156.93 494.036 158.447 481.981 155.066 469.927 154.612 457.873 156.983 445.818 155.269 433.764 158.006 421.709 156.629 409.653 158.398 397.597 156.022 385.543 157.144 373.488 156.627 361.437 158.852 349.382 154.555 337.331 158.151 325.276 158.521 313.22 155.637 301.165 156.488 289.11 154.721 277.054 157.374 264.995 156.377 252.939 158.673 240.882 155.813 228.824 156.891 216.77 158.209 204.713 156.547 192.652 156.89 180.595 154.396 168.529 157.834 157.833 168.515 157.951 180.563 156.903 192.611 155.649 204.66 156.871 216.711 154.524 228.764 155.222 240.813 154.337 252.862 158.584 264.912 154.254 276.966 155.231 289.018 158.583 301.067 156.286 313.118 156.289 325.172 158.825 337.224 154.33 349.274 156.554 361.327 156.593 373.38 158.499 385.431 157.924 397.483 154.618 409.537 155.55 421.589 156.276 433.642 157.756 445.695 155.937 457.748 156.1 469.803 156.172 481.855 157.3 493.911 154.99 505.964 158.515 518.019 154.43 530.073 154.384 542.127 154.254 554.182 155.386 566.236 154.229 578.291 154.059 590.347 158.831 602.403 157.942 614.457 154.104 626.512 154.88 638.563 154.704 650.618 157.271 662.669 156.777 674.724 155.97 686.78 156.085 698.835 156.554 710.89 157.635 722.946 154.693 735.005 154.814 747.061 157.892 759.118 154.555 771.176 157.292 783.23 157.304 795.287 154.832 807.348 158.315 819.405 157.32 831.471 156.966 845.151 154.847 844.703 168.515 845.771 180.563 842.386 192.611 841.816 204.66 843.301 216.711 843.059 228.764 844.201 240.813 844.287 252.862 844.016 264.912 845.247 276.966 842.45 289.018 841.516 301.067 841.215 313.118 844.571 325.172 842.513 337.224 844.042 349.274 843.036 361.327 842.199 373.38 844.224 385.431 845.003 397.483 843.921 409.537 841.258 421.589 844.107 433.642 842.136 445.695 842.056 457.748 843.151 469.803 841.329 481.855 845.334 493.911 842.476 505.964 842.324 518.019 844.407 530.073 841.155 542.127 844.133 554.182 842.136 566.236 843.202 578.291 843.217 590.347 841.69 602.403 841.989 614.457 843.22 626.512 844.857 638.563 845.345 650.618 843.373 662.669 841.762 674.724 842.971 686.78 844.442 698.835 844.983 710.89 842.957 722.946 844.451 735.005 843.171 747.061 844.567 759.118 841.189 771.176 844.104 783.23 844.122 795.287 842.657 807.348 844.983 819.405 845.483 831.571 842.361 842.362" style="fill: none; stroke: #000; stroke-miterlimit: 10; stroke-width: 30px;"/>
</svg>