<?xml version="1.0" encoding="UTF-8"?>
<svg id="Sticker" xmlns="http://www.w3.org/2000/svg" width="1000" height="1000" viewBox="0 0 1000 1000">
  <g>
    <polygon points="588.669 749.727 585.088 751.268 581.506 748.253 577.921 751.841 574.336 747.229 570.753 747.285 567.171 753.986 563.589 754.461 560.005 753.527 556.42 751.923 552.834 753.659 549.251 754.205 545.668 744.671 542.083 747.288 538.496 745.416 534.911 750.437 531.327 751.098 527.742 746.434 524.155 751.06 520.57 747.934 516.985 748.638 513.398 748.571 509.812 750.94 506.225 749.692 502.639 745.495 499.052 753.597 495.465 754.341 491.877 747.939 488.295 745.488 484.707 750.001 481.124 748.162 477.537 749.947 473.952 752.878 470.363 745.213 466.777 751.714 463.189 750.189 459.599 749.085 456.009 752.455 452.419 750.443 448.831 745.395 445.241 746.617 441.651 753.159 438.055 746.386 434.459 754.099 430.842 750.505 427.244 748.965 423.654 748.08 420.079 747.016 416.306 752.342 412.674 752.272 409.243 747.882 405.5 750.393 402.01 748.108 398.253 750.196 394.641 749.912 391.117 748.544 387.891 744.005 383.742 749.689 380.539 745.4 376.772 746.697 373.812 740.99 369.237 748.692 365.545 748.884 362.934 741.381 358.996 743.46 355.526 742.318 351.687 743.455 348.711 739.481 344.503 742.55 341.725 737.817 338.275 736.797 333.347 742.885 330.506 738.822 327.028 737.836 323.569 736.782 318.973 740.382 316.559 735.081 312.589 735.989 310.525 729.808 306.075 732.399 301.691 734.517 298.325 733.08 296.38 727.158 291.442 730.739 289.439 725.3 284.349 729.003 281.486 726.199 279.166 722.029 274.788 723.418 272.574 719.162 267.909 721.101 264.315 720.293 260.005 721.099 257.726 717.227 254.328 715.922 250.824 714.83 249.582 709.081 244.917 710.373 240.779 710.481 239.809 704.555 236.592 702.956 234.203 699.889 230.048 699.925 225.415 700.652 222.181 698.969 220.667 694.572 217.487 692.856 212.045 694.471 211.951 688.192 210.671 683.81 208.167 681.219 201.401 684.257 197.728 683.046 194.059 681.769 197.135 672.337 192.67 672.104 191.383 668.162 184.525 670.409 183.82 665.849 180.493 664.11 180.447 659.059 173.426 660.884 169.775 659.287 170.618 653.565 166.298 652.543 169.033 645.457 165.807 643.519 160.578 643.104 156.224 641.859 155.578 637.78 157.314 632.093 150.827 632.211 151.393 627.472 152.85 622.296 147.197 621.606 142.484 620.185 144.29 614.973 141.595 612.347 137.644 610.325 141.329 604.433 139.065 601.577 135.289 599.371 136.2 595.054 136.104 591.244 129.691 589.945 131.891 585.259 130.03 582.129 129.835 578.422 130.258 574.555 122.286 573.214 126.14 568.353 121.777 565.788 126.085 561.01 121.401 558.425 123.39 554.324 117.584 551.802 121.373 547.436 119.759 544.07 122.238 540.084 115.829 537.325 120.466 533.14 118.166 529.783 119.452 526.072 117.248 522.645 115.322 519.147 118.367 515.397 113.687 511.944 111.646 508.329 115.719 504.661 117.444 504.661 114.44 501.042 120.117 497.573 112.196 493.709 112.555 490.071 111.501 486.341 116.742 483.089 116.581 479.458 117.506 475.932 117.056 472.249 117.107 468.61 118.525 465.169 115.725 461.033 117.319 457.611 117.737 453.98 123.989 451.613 121.666 447.411 126.101 444.804 124.766 440.769 125.296 437.189 126.941 433.931 128.691 430.728 126.206 426.118 126.399 422.33 130.875 420.107 135.072 417.893 133.266 413.317 133.778 409.619 132.382 405.026 134.738 402.082 139.287 400.247 139.417 396.274 142.152 393.624 146.552 391.937 148.424 388.914 150.044 385.745 147.858 380.213 147.896 375.923 154.568 375.95 156.78 373.129 159.319 370.549 156.384 363.965 160.607 362.574 162.263 359.268 169.246 360.253 167.384 354.078 169.065 350.743 170.583 347.226 172.292 343.835 179.514 345.622 179.712 340.827 185.513 341.53 187.533 338.512 190.851 336.845 188.165 328.631 191.57 326.958 195.987 326.505 201.935 327.996 203.389 324.175 206.291 322.096 208.503 319.124 209.313 314.231 212.814 312.885 213.952 308.239 218.87 308.952 222.827 308.384 226.545 307.529 229.761 305.942 229.283 298.359 232.186 296.11 235.728 294.942 241.128 297.101 244.974 296.657 247.911 294.582 249.126 289.17 251.104 285.051 258.086 290.992 261.844 290.61 261.385 281.181 264.92 280.165 268.951 280.318 271.445 276.94 275.586 277.452 280.041 278.869 282.825 276.136 287.833 279.242 290.32 275.688 291.969 269.597 297.389 274.255 298.94 267.563 304.239 272.252 307.013 269.142 310.428 268.04 313.415 265.443 315.769 260.438 319.543 260.451 323.213 260.132 326.802 259.538 331.984 265.667 333.82 257.714 337.611 258.083 342.254 262.616 344.637 256.359 348.469 257.141 351.484 253.604 355.764 257.051 359.523 257.769 362.512 253.709 365.649 250.242 370.275 257.084 373.691 255.64 376.962 252.887 380.606 253.043 383.73 248.409 387.3 247.618 391.75 256.442 395.155 254.422 398.219 247.496 402.124 251.502 405.414 246.286 409.108 247.363 412.676 246.022 416.346 247.05 419.949 246.329 423.711 252.398 427.193 245.633 430.89 254.377 434.459 247.562 438.04 249.005 441.622 246.255 445.207 248.206 448.792 244.99 452.375 246.971 455.957 244.622 459.539 250.949 463.122 252.361 466.708 249.872 470.293 246.181 473.877 253.736 477.46 253.696 481.044 245.278 484.632 246.071 488.216 247.575 491.8 245.947 495.386 253.068 498.973 252.288 502.557 254.034 506.143 253.097 509.73 247.996 513.316 248.094 516.903 248.648 520.489 246.178 524.076 247.313 527.663 245.812 531.25 245.489 534.833 248.896 538.42 249.381 542.003 249.202 545.591 246.317 549.176 253.548 552.764 254.225 556.351 246.59 559.939 252.763 563.529 246.914 567.119 251.954 570.708 251.956 574.297 244.974 577.886 250.832 581.477 249.992 585.073 246.149 588.669 245.162 592.287 247.123 595.936 245.108 599.561 245.55 603.072 249.703 606.597 251.821 610.21 251.284 613.863 250.186 617.624 247.604 621.265 247.44 624.822 248.492 628.489 248.051 632.029 249.156 635.671 249.098 638.718 254.675 642.977 248.971 646.056 253.668 649.656 253.865 652.953 256.261 656.86 254.323 659.756 259.115 663.584 257.817 667.22 257.81 671.348 255.169 673.658 262.325 677.653 260.498 681.989 257.262 686.082 255.468 688.082 263.063 692.106 261.598 694.485 266.962 699.17 263.013 703.545 260.586 704.941 269.156 708.836 268.485 713.286 266.058 717.238 265.488 720.94 265.808 723.969 268.226 725.496 274.971 728.571 276.958 732.216 277.326 737.417 273.594 742.088 271.537 743.388 278.139 746.851 279.168 750.429 279.944 754.987 278.511 756.672 283.639 760.151 284.68 765.221 282.407 765.296 290.537 768.452 292.195 775.265 286.806 776.197 292.818 778.177 296.685 783.125 295.18 785.975 297.465 790.834 296.363 790.816 303.359 795.453 302.711 798.006 305.409 799.42 309.771 804.915 308.063 809.489 307.864 809.782 313.683 812.056 316.651 814.652 319.153 816.165 323.008 824.073 318.904 824.52 324.076 824.88 329.193 831.627 326.939 829.524 334.658 837.891 330.916 834.753 339.439 842.854 336.319 840.136 344.083 845.904 343.508 847.799 346.679 847.236 352.01 853.321 351.437 852.917 356.496 854.235 360.017 856.106 363.055 860.894 363.86 862.449 367.173 861.911 371.945 868.511 371.688 871.622 373.962 869.389 379.712 877.03 379.168 871.945 386.465 872.966 389.951 875.635 392.496 884.889 391.582 882.684 396.836 884.392 400.012 885.194 403.619 891.134 404.884 893.001 408.077 891.564 412.645 890.099 417.117 894.981 419.111 892.85 423.733 899.252 425.353 897.885 429.644 896.004 434.004 893.874 438.333 900.834 440.12 899.998 444.069 900.843 447.568 905.819 450.163 906.596 453.744 904.24 457.911 902.217 461.925 905.165 465.084 905.015 468.752 908.705 471.918 905.379 475.959 909.105 479.21 911.181 482.694 905.882 486.728 908.271 490.192 906.762 493.875 902.695 497.579 908.557 501.043 910.694 504.661 903.09 504.661 909.934 508.307 911.265 511.99 906.61 515.47 905.372 519.01 907.827 522.775 905.293 526.204 906.196 529.903 902.165 533.083 908.526 537.481 902.718 540.347 902.2 543.888 903.008 547.661 901.407 551.02 897.851 553.943 896.831 557.34 899.05 561.509 899.009 565.198 899.631 569.101 902.15 573.62 901.015 577.125 896.038 579.355 895.8 583.102 894.456 586.478 888.883 588.202 890.458 592.684 890.069 596.44 888.909 599.891 882.697 600.971 882.373 604.757 884.019 609.614 881.255 612.244 877.151 614.074 879.911 619.806 876.785 622.175 871.598 623.182 875.358 629.905 873.191 632.873 870.593 635.531 869.938 639.59 864.522 640.107 865.073 645.152 860.068 645.82 858.08 648.882 852.907 649.183 856.144 656.909 846.672 653.122 845.272 656.682 841.744 658.193 840.166 661.642 837.794 664.312 836.526 668.208 832.148 668.687 830.727 672.49 828.106 674.945 825.625 677.584 825.052 682.68 820.04 682.118 816.085 682.819 813.221 684.954 814.612 693.208 809.72 692.536 807.134 695.214 804.606 698.024 800.565 698.438 794.122 694.762 794.66 702.723 791.677 704.836 789.063 707.64 781.857 701.905 781.699 709.317 777.465 708.98 773.892 709.875 771.094 712.364 769.098 716.653 764.286 714.808 760.74 715.68 756.311 714.413 753.523 717.004 752.749 724.776 749.477 726.434 744.02 722.225 742.807 729.47 737.773 726.129 735.604 730.994 730.519 727.159 727.775 730.417 724.161 730.967 721.77 735.638 715.994 728.657 713.241 732.121 709.482 731.97 707.607 739.14 702.039 731.729 700.195 739.453 696.635 740.17 692.416 737.849 688.624 737.306 684.624 735.609 681.193 736.677 678.209 740.225 674.593 740.433 670.616 738.421 667.071 738.872 664.083 743.035 661.021 747.087 657.159 745.594 652.907 740.781 649.659 743.743 646.278 745.866 642.323 742.702 639.406 749.757 635.98 752.209 631.584 743.18 628.55 750.572 624.583 745.674 621.126 748.014 617.56 748.892 614.064 751.494 610.322 748.727 606.564 744.221 603.18 751.63 599.453 746.689 595.903 749.905 592.255 745.226 588.669 749.727" style="fill: #fff;"/>
    <polygon points="588.669 749.727 585.088 751.268 581.506 748.253 577.921 751.841 574.336 747.229 570.753 747.285 567.171 753.986 563.589 754.461 560.005 753.527 556.42 751.923 552.834 753.659 549.251 754.205 545.668 744.671 542.083 747.288 538.496 745.416 534.911 750.437 531.327 751.098 527.742 746.434 524.155 751.06 520.57 747.934 516.985 748.638 513.398 748.571 509.812 750.94 506.225 749.692 502.639 745.495 499.052 753.597 495.465 754.341 491.877 747.939 488.295 745.488 484.707 750.001 481.124 748.162 477.537 749.947 473.952 752.878 470.363 745.213 466.777 751.714 463.189 750.189 459.599 749.085 456.009 752.455 452.419 750.443 448.831 745.395 445.241 746.617 441.651 753.159 438.055 746.386 434.459 754.099 430.842 750.505 427.244 748.965 423.654 748.08 420.079 747.016 416.306 752.342 412.674 752.272 409.243 747.882 405.5 750.393 402.01 748.108 398.253 750.196 394.641 749.912 391.117 748.544 387.891 744.005 383.742 749.689 380.539 745.4 376.772 746.697 373.812 740.99 369.237 748.692 365.545 748.884 362.934 741.381 358.996 743.46 355.526 742.318 351.687 743.455 348.711 739.481 344.503 742.55 341.725 737.817 338.275 736.797 333.347 742.885 330.506 738.822 327.028 737.836 323.569 736.782 318.973 740.382 316.559 735.081 312.589 735.989 310.525 729.808 306.075 732.399 301.691 734.517 298.325 733.08 296.38 727.158 291.442 730.739 289.439 725.3 284.349 729.003 281.486 726.199 279.166 722.029 274.788 723.418 272.574 719.162 267.909 721.101 264.315 720.293 260.005 721.099 257.726 717.227 254.328 715.922 250.824 714.83 249.582 709.081 244.917 710.373 240.779 710.481 239.809 704.555 236.592 702.956 234.203 699.889 230.048 699.925 225.415 700.652 222.181 698.969 220.667 694.572 217.487 692.856 212.045 694.471 211.951 688.192 210.671 683.81 208.167 681.219 201.401 684.257 197.728 683.046 194.059 681.769 197.135 672.337 192.67 672.104 191.383 668.162 184.525 670.409 183.82 665.849 180.493 664.11 180.447 659.059 173.426 660.884 169.775 659.287 170.618 653.565 166.298 652.543 169.033 645.457 165.807 643.519 160.578 643.104 156.224 641.859 155.578 637.78 157.314 632.093 150.827 632.211 151.393 627.472 152.85 622.296 147.197 621.606 142.484 620.185 144.29 614.973 141.595 612.347 137.644 610.325 141.329 604.433 139.065 601.577 135.289 599.371 136.2 595.054 136.104 591.244 129.691 589.945 131.891 585.259 130.03 582.129 129.835 578.422 130.258 574.555 122.286 573.214 126.14 568.353 121.777 565.788 126.085 561.01 121.401 558.425 123.39 554.324 117.584 551.802 121.373 547.436 119.759 544.07 122.238 540.084 115.829 537.325 120.466 533.14 118.166 529.783 119.452 526.072 117.248 522.645 115.322 519.147 118.367 515.397 113.687 511.944 111.646 508.329 115.719 504.661 117.444 504.661 114.44 501.042 120.117 497.573 112.196 493.709 112.555 490.071 111.501 486.341 116.742 483.089 116.581 479.458 117.506 475.932 117.056 472.249 117.107 468.61 118.525 465.169 115.725 461.033 117.319 457.611 117.737 453.98 123.989 451.613 121.666 447.411 126.101 444.804 124.766 440.769 125.296 437.189 126.941 433.931 128.691 430.728 126.206 426.118 126.399 422.33 130.875 420.107 135.072 417.893 133.266 413.317 133.778 409.619 132.382 405.026 134.738 402.082 139.287 400.247 139.417 396.274 142.152 393.624 146.552 391.937 148.424 388.914 150.044 385.745 147.858 380.213 147.896 375.923 154.568 375.95 156.78 373.129 159.319 370.549 156.384 363.965 160.607 362.574 162.263 359.268 169.246 360.253 167.384 354.078 169.065 350.743 170.583 347.226 172.292 343.835 179.514 345.622 179.712 340.827 185.513 341.53 187.533 338.512 190.851 336.845 188.165 328.631 191.57 326.958 195.987 326.505 201.935 327.996 203.389 324.175 206.291 322.096 208.503 319.124 209.313 314.231 212.814 312.885 213.952 308.239 218.87 308.952 222.827 308.384 226.545 307.529 229.761 305.942 229.283 298.359 232.186 296.11 235.728 294.942 241.128 297.101 244.974 296.657 247.911 294.582 249.126 289.17 251.104 285.051 258.086 290.992 261.844 290.61 261.385 281.181 264.92 280.165 268.951 280.318 271.445 276.94 275.586 277.452 280.041 278.869 282.825 276.136 287.833 279.242 290.32 275.688 291.969 269.597 297.389 274.255 298.94 267.563 304.239 272.252 307.013 269.142 310.428 268.04 313.415 265.443 315.769 260.438 319.543 260.451 323.213 260.132 326.802 259.538 331.984 265.667 333.82 257.714 337.611 258.083 342.254 262.616 344.637 256.359 348.469 257.141 351.484 253.604 355.764 257.051 359.523 257.769 362.512 253.709 365.649 250.242 370.275 257.084 373.691 255.64 376.962 252.887 380.606 253.043 383.73 248.409 387.3 247.618 391.75 256.442 395.155 254.422 398.219 247.496 402.124 251.502 405.414 246.286 409.108 247.363 412.676 246.022 416.346 247.05 419.949 246.329 423.711 252.398 427.193 245.633 430.89 254.377 434.459 247.562 438.04 249.005 441.622 246.255 445.207 248.206 448.792 244.99 452.375 246.971 455.957 244.622 459.539 250.949 463.122 252.361 466.708 249.872 470.293 246.181 473.877 253.736 477.46 253.696 481.044 245.278 484.632 246.071 488.216 247.575 491.8 245.947 495.386 253.068 498.973 252.288 502.557 254.034 506.143 253.097 509.73 247.996 513.316 248.094 516.903 248.648 520.489 246.178 524.076 247.313 527.663 245.812 531.25 245.489 534.833 248.896 538.42 249.381 542.003 249.202 545.591 246.317 549.176 253.548 552.764 254.225 556.351 246.59 559.939 252.763 563.529 246.914 567.119 251.954 570.708 251.956 574.297 244.974 577.886 250.832 581.477 249.992 585.073 246.149 588.669 245.162 592.287 247.123 595.936 245.108 599.561 245.55 603.072 249.703 606.597 251.821 610.21 251.284 613.863 250.186 617.624 247.604 621.265 247.44 624.822 248.492 628.489 248.051 632.029 249.156 635.671 249.098 638.718 254.675 642.977 248.971 646.056 253.668 649.656 253.865 652.953 256.261 656.86 254.323 659.756 259.115 663.584 257.817 667.22 257.81 671.348 255.169 673.658 262.325 677.653 260.498 681.989 257.262 686.082 255.468 688.082 263.063 692.106 261.598 694.485 266.962 699.17 263.013 703.545 260.586 704.941 269.156 708.836 268.485 713.286 266.058 717.238 265.488 720.94 265.808 723.969 268.226 725.496 274.971 728.571 276.958 732.216 277.326 737.417 273.594 742.088 271.537 743.388 278.139 746.851 279.168 750.429 279.944 754.987 278.511 756.672 283.639 760.151 284.68 765.221 282.407 765.296 290.537 768.452 292.195 775.265 286.806 776.197 292.818 778.177 296.685 783.125 295.18 785.975 297.465 790.834 296.363 790.816 303.359 795.453 302.711 798.006 305.409 799.42 309.771 804.915 308.063 809.489 307.864 809.782 313.683 812.056 316.651 814.652 319.153 816.165 323.008 824.073 318.904 824.52 324.076 824.88 329.193 831.627 326.939 829.524 334.658 837.891 330.916 834.753 339.439 842.854 336.319 840.136 344.083 845.904 343.508 847.799 346.679 847.236 352.01 853.321 351.437 852.917 356.496 854.235 360.017 856.106 363.055 860.894 363.86 862.449 367.173 861.911 371.945 868.511 371.688 871.622 373.962 869.389 379.712 877.03 379.168 871.945 386.465 872.966 389.951 875.635 392.496 884.889 391.582 882.684 396.836 884.392 400.012 885.194 403.619 891.134 404.884 893.001 408.077 891.564 412.645 890.099 417.117 894.981 419.111 892.85 423.733 899.252 425.353 897.885 429.644 896.004 434.004 893.874 438.333 900.834 440.12 899.998 444.069 900.843 447.568 905.819 450.163 906.596 453.744 904.24 457.911 902.217 461.925 905.165 465.084 905.015 468.752 908.705 471.918 905.379 475.959 909.105 479.21 911.181 482.694 905.882 486.728 908.271 490.192 906.762 493.875 902.695 497.579 908.557 501.043 910.694 504.661 903.09 504.661 909.934 508.307 911.265 511.99 906.61 515.47 905.372 519.01 907.827 522.775 905.293 526.204 906.196 529.903 902.165 533.083 908.526 537.481 902.718 540.347 902.2 543.888 903.008 547.661 901.407 551.02 897.851 553.943 896.831 557.34 899.05 561.509 899.009 565.198 899.631 569.101 902.15 573.62 901.015 577.125 896.038 579.355 895.8 583.102 894.456 586.478 888.883 588.202 890.458 592.684 890.069 596.44 888.909 599.891 882.697 600.971 882.373 604.757 884.019 609.614 881.255 612.244 877.151 614.074 879.911 619.806 876.785 622.175 871.598 623.182 875.358 629.905 873.191 632.873 870.593 635.531 869.938 639.59 864.522 640.107 865.073 645.152 860.068 645.82 858.08 648.882 852.907 649.183 856.144 656.909 846.672 653.122 845.272 656.682 841.744 658.193 840.166 661.642 837.794 664.312 836.526 668.208 832.148 668.687 830.727 672.49 828.106 674.945 825.625 677.584 825.052 682.68 820.04 682.118 816.085 682.819 813.221 684.954 814.612 693.208 809.72 692.536 807.134 695.214 804.606 698.024 800.565 698.438 794.122 694.762 794.66 702.723 791.677 704.836 789.063 707.64 781.857 701.905 781.699 709.317 777.465 708.98 773.892 709.875 771.094 712.364 769.098 716.653 764.286 714.808 760.74 715.68 756.311 714.413 753.523 717.004 752.749 724.776 749.477 726.434 744.02 722.225 742.807 729.47 737.773 726.129 735.604 730.994 730.519 727.159 727.775 730.417 724.161 730.967 721.77 735.638 715.994 728.657 713.241 732.121 709.482 731.97 707.607 739.14 702.039 731.729 700.195 739.453 696.635 740.17 692.416 737.849 688.624 737.306 684.624 735.609 681.193 736.677 678.209 740.225 674.593 740.433 670.616 738.421 667.071 738.872 664.083 743.035 661.021 747.087 657.159 745.594 652.907 740.781 649.659 743.743 646.278 745.866 642.323 742.702 639.406 749.757 635.98 752.209 631.584 743.18 628.55 750.572 624.583 745.674 621.126 748.014 617.56 748.892 614.064 751.494 610.322 748.727 606.564 744.221 603.18 751.63 599.453 746.689 595.903 749.905 592.255 745.226 588.669 749.727" style="fill: none; stroke: #000; stroke-linecap: round; stroke-linejoin: round; stroke-width: 35px;"/>
  </g>
  <g>
    <polygon points="736.065 499.546 736.941 503.089 740.261 506.736 736.456 510.158 741.496 514.015 736.944 517.293 742.966 521.423 738.21 524.577 737.959 528.156 743.191 532.514 738.531 535.503 734.057 538.391 734.637 542.112 732.524 545.319 731.24 548.664 734.125 552.989 735.033 556.933 732.619 560.03 733.766 564.111 732.373 567.485 730.859 570.809 732.192 575.094 727.739 577.383 727.665 581.213 729.364 585.79 723.381 587.292 725.184 591.997 717.154 592.378 718.312 596.841 719.197 601.273 711.963 601.657 715.75 607.665 715.553 611.7 711.97 613.863 707.81 615.61 703.538 617.189 708.658 624.636 706.448 627.571 705.199 631.151 696.016 629.182 700.634 636.924 697.742 639.342 696.623 643.104 687.9 640.822 688.906 646.265 687.421 649.752 680.189 648.216 680.607 653.372 679.688 657.435 675.657 658.574 674.891 662.885 672.21 665.331 671.784 670.174 666.572 669.91 662.493 670.756 658.833 671.992 656.584 674.862 656.244 680.149 653.143 682.084 650.73 684.912 647.243 686.308 642.639 686.066 641.32 690.492 637.337 691.035 636.93 697.102 631.284 694.929 629.642 699.219 624.721 697.95 621.179 698.956 619.692 703.779 614.523 701.636 614.457 709.587 610.294 709.369 607.413 711.837 602.812 710.42 600.684 714.708 594.303 708.535 592.346 713.337 590.045 717.54 586.664 718.899 583.654 721.42 580.183 722.597 576.537 723.187 572.562 722.514 568.794 722.436 565.282 723.291 561.234 721.737 557.268 720.203 554.563 724.934 551.551 728.656 547.254 724.843 544.012 727.507 540.767 730.702 536.988 729.812 533.191 728.29 529.912 732.682 526.088 730.352 522.516 731.766 518.711 726.851 515.208 731.492 511.564 730.099 508.001 726.238 504.234 732.787 500.919 725.131 497.066 729.926 493.558 728.257 490.267 724.733 486.021 730.883 483.359 722.703 478.589 731.215 475.112 729.664 472.595 722.75 467.658 729.681 465.951 719.732 460.84 726.437 457.94 722.86 453.953 723.889 450.503 722.71 446.743 722.629 443.195 721.752 441.772 714.31 436.244 719.507 434.394 713.866 429.21 717.462 427.15 712.729 425.045 708.405 422.009 706.481 416.228 710.669 412.271 710.531 409.646 707.568 407.622 703.53 406.438 698.09 400.385 701.765 396.987 700.406 394.626 697.266 391.06 696.178 386.047 697.31 387.047 689.1 381.537 690.862 377.321 690.54 379.144 681.803 374.331 682.315 371.188 680.509 369.392 676.999 368.269 672.754 359.974 677.022 357.317 674.492 359.584 666.56 352.806 668.594 353.473 662.672 349.422 661.677 345.948 660.027 345.534 655.446 341.454 654.322 337.856 652.679 334.103 651.101 331.047 648.873 332.936 642.641 334.15 637.145 331.485 634.736 322.773 636.702 326.333 629.713 322.41 628.082 322.22 623.907 320.274 620.928 315.781 619.511 318.443 613.741 308.409 615.418 309.258 610.756 309.702 606.416 306.068 604.244 310.064 598.247 302.846 597.754 304.587 592.992 297.798 592.047 303.255 585.824 296.441 584.716 297.769 580.329 298.482 576.258 293.225 574.299 297.763 569.015 296.711 565.645 291.824 563.388 290.745 559.957 286.9 557.23 284.837 553.978 288.028 549.515 289.447 545.551 282.571 543.229 282.877 539.46 287.862 534.986 279.907 532.515 282.394 528.5 287.143 524.331 285.68 520.906 282.815 517.554 285.245 513.792 280.806 510.43 282.978 506.733 283.71 503.127 286.74 499.546 284.932 495.983 284.32 492.401 285.484 488.878 285.914 485.341 283.876 481.62 282.214 477.86 284.586 474.479 287.791 471.264 285.255 467.327 283.378 463.397 288.005 460.516 281.632 455.679 291.003 453.855 283.663 448.597 285.156 445.182 288.728 442.321 290.781 439.135 293.265 436.113 291.801 431.928 291.856 428.148 292.324 424.473 291.773 420.406 292.654 416.816 297.275 414.693 301.061 412.345 299.112 407.6 304.825 406.194 302.903 401.349 306.138 398.902 309.243 396.453 306.867 391.155 313.742 390.789 308.969 383.977 311.201 381.041 313.784 378.337 319.758 377.819 323.024 375.696 321.177 370.152 323.042 367.043 329.921 367.573 326.686 360.727 326.79 356.21 333.236 356.671 331.208 350.331 333.773 347.687 339.75 348.062 345.52 348.45 344.467 342.622 344.086 337.237 347.942 335.912 350.891 333.732 351.725 329.323 358.401 331.208 358.913 326.384 363.7 326.404 364.071 321.244 368.054 320.401 371.763 319.298 371.406 312.86 377.929 315.593 379.344 311.399 384.342 312.321 385.091 306.992 389.257 306.801 392.122 304.615 396.659 305.228 399.978 303.889 400.97 298.358 405.989 300.124 405.404 291.185 409.288 290.762 413.356 290.83 415.68 287.177 420.366 288.786 423.071 285.894 427.082 286.158 430.287 284.445 432.3 279.377 436.168 279.328 439.855 278.847 443.507 278.324 446.191 274.526 450.94 277.948 455.182 279.971 456.946 272.042 462.194 278.707 464.056 270.135 468.656 274.642 472.499 275.76 475.509 271.932 479.725 275.905 483.115 274.416 486.746 274.831 490.24 274.055 493.809 274.052 496.96 267.45 500.612 267.336 504.244 266.65 507.923 267.828 511.564 270.191 515.172 269.953 518.653 274.125 522.485 268.002 526.104 268.476 529.581 270.683 533.281 269.857 537.056 268.674 539.786 276.25 543.533 275.002 547.462 272.955 551.58 270.3 553.944 277.451 557.728 276.689 561 278.442 564.731 278.139 567.945 280.007 571.963 278.803 575.885 278.186 579.004 280.364 583.694 277.58 584.734 285.863 589.424 283.308 593.648 282.344 595.985 286.344 600.557 284.722 602.985 288.305 605.261 292.044 611.237 287.752 614.351 289.752 615.65 295.28 618.628 297.349 623.831 295.351 626.929 297.307 629.932 299.412 633.03 301.347 634.942 305.143 635.513 310.853 639.426 311.408 644.119 310.95 644.479 316.608 650.837 314.063 652.208 318.238 653.024 322.981 654.671 326.564 657.647 328.511 661.445 329.548 664.847 331.1 668.977 331.929 667.758 338.376 672.083 339.038 673.141 342.978 679.43 341.92 681.545 344.887 680.59 350.543 687.857 348.988 684.769 356.273 690.003 356.602 695.457 356.914 695.328 361.584 700.4 362.357 699.501 367.473 699.084 372.122 699.608 376.041 703.355 377.845 702.878 382.325 704.905 385.22 706.894 388.147 708.791 391.133 710.708 394.118 714.704 396.051 714.85 399.967 718.057 402.385 718.372 406.176 723.642 407.776 725.757 410.828 721.463 416.446 722.901 419.691 728.885 421.307 724.023 426.805 733.702 427.37 728.674 432.752 734.607 434.746 733.661 438.785 735.072 442.157 737.68 445.26 740.06 448.472 733.03 453.675 741.632 455.659 736.267 460.322 741.289 463.159 733.674 467.923 736.5 471.121 737.864 474.555 736.246 478.298 741.522 481.444 739.896 485.175 738.871 488.821 736.009 492.486 737.593 495.992 736.065 499.546"/>
    <polygon points="736.065 499.546 736.941 503.089 740.261 506.736 736.456 510.158 741.496 514.015 736.944 517.293 742.966 521.423 738.21 524.577 737.959 528.156 743.191 532.514 738.531 535.503 734.057 538.391 734.637 542.112 732.524 545.319 731.24 548.664 734.125 552.989 735.033 556.933 732.619 560.03 733.766 564.111 732.373 567.485 730.859 570.809 732.192 575.094 727.739 577.383 727.665 581.213 729.364 585.79 723.381 587.292 725.184 591.997 717.154 592.378 718.312 596.841 719.197 601.273 711.963 601.657 715.75 607.665 715.553 611.7 711.97 613.863 707.81 615.61 703.538 617.189 708.658 624.636 706.448 627.571 705.199 631.151 696.016 629.182 700.634 636.924 697.742 639.342 696.623 643.104 687.9 640.822 688.906 646.265 687.421 649.752 680.189 648.216 680.607 653.372 679.688 657.435 675.657 658.574 674.891 662.885 672.21 665.331 671.784 670.174 666.572 669.91 662.493 670.756 658.833 671.992 656.584 674.862 656.244 680.149 653.143 682.084 650.73 684.912 647.243 686.308 642.639 686.066 641.32 690.492 637.337 691.035 636.93 697.102 631.284 694.929 629.642 699.219 624.721 697.95 621.179 698.956 619.692 703.779 614.523 701.636 614.457 709.587 610.294 709.369 607.413 711.837 602.812 710.42 600.684 714.708 594.303 708.535 592.346 713.337 590.045 717.54 586.664 718.899 583.654 721.42 580.183 722.597 576.537 723.187 572.562 722.514 568.794 722.436 565.282 723.291 561.234 721.737 557.268 720.203 554.563 724.934 551.551 728.656 547.254 724.843 544.012 727.507 540.767 730.702 536.988 729.812 533.191 728.29 529.912 732.682 526.088 730.352 522.516 731.766 518.711 726.851 515.208 731.492 511.564 730.099 508.001 726.238 504.234 732.787 500.919 725.131 497.066 729.926 493.558 728.257 490.267 724.733 486.021 730.883 483.359 722.703 478.589 731.215 475.112 729.664 472.595 722.75 467.658 729.681 465.951 719.732 460.84 726.437 457.94 722.86 453.953 723.889 450.503 722.71 446.743 722.629 443.195 721.752 441.772 714.31 436.244 719.507 434.394 713.866 429.21 717.462 427.15 712.729 425.045 708.405 422.009 706.481 416.228 710.669 412.271 710.531 409.646 707.568 407.622 703.53 406.438 698.09 400.385 701.765 396.987 700.406 394.626 697.266 391.06 696.178 386.047 697.31 387.047 689.1 381.537 690.862 377.321 690.54 379.144 681.803 374.331 682.315 371.188 680.509 369.392 676.999 368.269 672.754 359.974 677.022 357.317 674.492 359.584 666.56 352.806 668.594 353.473 662.672 349.422 661.677 345.948 660.027 345.534 655.446 341.454 654.322 337.856 652.679 334.103 651.101 331.047 648.873 332.936 642.641 334.15 637.145 331.485 634.736 322.773 636.702 326.333 629.713 322.41 628.082 322.22 623.907 320.274 620.928 315.781 619.511 318.443 613.741 308.409 615.418 309.258 610.756 309.702 606.416 306.068 604.244 310.064 598.247 302.846 597.754 304.587 592.992 297.798 592.047 303.255 585.824 296.441 584.716 297.769 580.329 298.482 576.258 293.225 574.299 297.763 569.015 296.711 565.645 291.824 563.388 290.745 559.957 286.9 557.23 284.837 553.978 288.028 549.515 289.447 545.551 282.571 543.229 282.877 539.46 287.862 534.986 279.907 532.515 282.394 528.5 287.143 524.331 285.68 520.906 282.815 517.554 285.245 513.792 280.806 510.43 282.978 506.733 283.71 503.127 286.74 499.546 284.932 495.983 284.32 492.401 285.484 488.878 285.914 485.341 283.876 481.62 282.214 477.86 284.586 474.479 287.791 471.264 285.255 467.327 283.378 463.397 288.005 460.516 281.632 455.679 291.003 453.855 283.663 448.597 285.156 445.182 288.728 442.321 290.781 439.135 293.265 436.113 291.801 431.928 291.856 428.148 292.324 424.473 291.773 420.406 292.654 416.816 297.275 414.693 301.061 412.345 299.112 407.6 304.825 406.194 302.903 401.349 306.138 398.902 309.243 396.453 306.867 391.155 313.742 390.789 308.969 383.977 311.201 381.041 313.784 378.337 319.758 377.819 323.024 375.696 321.177 370.152 323.042 367.043 329.921 367.573 326.686 360.727 326.79 356.21 333.236 356.671 331.208 350.331 333.773 347.687 339.75 348.062 345.52 348.45 344.467 342.622 344.086 337.237 347.942 335.912 350.891 333.732 351.725 329.323 358.401 331.208 358.913 326.384 363.7 326.404 364.071 321.244 368.054 320.401 371.763 319.298 371.406 312.86 377.929 315.593 379.344 311.399 384.342 312.321 385.091 306.992 389.257 306.801 392.122 304.615 396.659 305.228 399.978 303.889 400.97 298.358 405.989 300.124 405.404 291.185 409.288 290.762 413.356 290.83 415.68 287.177 420.366 288.786 423.071 285.894 427.082 286.158 430.287 284.445 432.3 279.377 436.168 279.328 439.855 278.847 443.507 278.324 446.191 274.526 450.94 277.948 455.182 279.971 456.946 272.042 462.194 278.707 464.056 270.135 468.656 274.642 472.499 275.76 475.509 271.932 479.725 275.905 483.115 274.416 486.746 274.831 490.24 274.055 493.809 274.052 496.96 267.45 500.612 267.336 504.244 266.65 507.923 267.828 511.564 270.191 515.172 269.953 518.653 274.125 522.485 268.002 526.104 268.476 529.581 270.683 533.281 269.857 537.056 268.674 539.786 276.25 543.533 275.002 547.462 272.955 551.58 270.3 553.944 277.451 557.728 276.689 561 278.442 564.731 278.139 567.945 280.007 571.963 278.803 575.885 278.186 579.004 280.364 583.694 277.58 584.734 285.863 589.424 283.308 593.648 282.344 595.985 286.344 600.557 284.722 602.985 288.305 605.261 292.044 611.237 287.752 614.351 289.752 615.65 295.28 618.628 297.349 623.831 295.351 626.929 297.307 629.932 299.412 633.03 301.347 634.942 305.143 635.513 310.853 639.426 311.408 644.119 310.95 644.479 316.608 650.837 314.063 652.208 318.238 653.024 322.981 654.671 326.564 657.647 328.511 661.445 329.548 664.847 331.1 668.977 331.929 667.758 338.376 672.083 339.038 673.141 342.978 679.43 341.92 681.545 344.887 680.59 350.543 687.857 348.988 684.769 356.273 690.003 356.602 695.457 356.914 695.328 361.584 700.4 362.357 699.501 367.473 699.084 372.122 699.608 376.041 703.355 377.845 702.878 382.325 704.905 385.22 706.894 388.147 708.791 391.133 710.708 394.118 714.704 396.051 714.85 399.967 718.057 402.385 718.372 406.176 723.642 407.776 725.757 410.828 721.463 416.446 722.901 419.691 728.885 421.307 724.023 426.805 733.702 427.37 728.674 432.752 734.607 434.746 733.661 438.785 735.072 442.157 737.68 445.26 740.06 448.472 733.03 453.675 741.632 455.659 736.267 460.322 741.289 463.159 733.674 467.923 736.5 471.121 737.864 474.555 736.246 478.298 741.522 481.444 739.896 485.175 738.871 488.821 736.009 492.486 737.593 495.992 736.065 499.546" style="fill: none; stroke: #000; stroke-linecap: round; stroke-linejoin: round; stroke-width: 35px;"/>
  </g>
</svg>