<?xml version="1.0" encoding="UTF-8"?>
<svg id="Sticker" xmlns="http://www.w3.org/2000/svg" width="1000" height="1000" viewBox="0 0 1000 1000">
  <g>
    <polyline points="849.135 629.167 851.419 619.624 848.631 617.268 844.072 617.417 842.294 613.626 838.986 612.007 833.862 612.962 831.626 609.822 830.706 604.81 824.09 607.877 819.891 607.52 819.235 602.138 814.768 602.155 813.142 598.15 808.735 598.083 805.143 596.86 803.314 593.141 802.194 588.414 796.373 590.351 797.444 582.519 794.008 581.079 787.945 583.37 785.056 581.156 783.145 577.549 783.285 571.042 775.312 576.026 772.049 574.339 773.699 565.682 768.125 567.268 764.916 565.499 762.314 562.867 759.035 561.194 756.916 557.885 752.64 557.625 751.488 552.936 744.894 555.96 745.802 548.341 741.821 547.651" style="fill: none; stroke: #000; stroke-linecap: round; stroke-linejoin: round; stroke-width: 35px;"/>
    <polyline points="704.079 756.583 702.015 753.561 697.925 751.606 694.179 749.468 693.068 745.94 691.322 742.75 686.889 740.976 693.02 733.632 690.295 730.953 684.045 730.136 681.223 727.512 682.731 722.603 679.829 720.019 679.585 716.035 673.021 715.381 672.04 711.783 677.469 704.808 670.209 704.52 669.957 700.539 666.314 698.344 668.515 693.069 661.609 692.602 660.665 688.989 657.977 686.29 662.603 679.74 661.015 676.462 654.438 675.816 652.897 672.51 655.195 667.184 649.206 666.224 653.501 659.842 649.592 657.784 643.706 656.772 645.595 651.658 641.551 649.671 642.786 644.899 638.164 643.209 634.987 640.757" style="fill: none; stroke: #000; stroke-linecap: round; stroke-linejoin: round; stroke-width: 35px;"/>
    <polyline points="508.62 807.985 507.761 804.361 511.239 800.676 511.281 797.036 502.493 793.52 506.068 789.833 507.246 786.18 508.63 782.523 502.956 778.961 507.348 775.262 505.372 771.651 508.175 767.973 509.271 764.318 508.384 760.692 503.696 757.118 507.942 753.418 505.843 749.808 506.868 746.153 507.902 742.499 501.874 738.943 505.46 735.253 510.294 731.544 503.46 727.999 507.691 724.3 504.703 720.705 501.158 717.114 505.43 713.416 507.165 709.75 501.21 706.193 504.397 702.507 503.108 698.882 502.219 695.251 507.482 691.535 508.026 687.885 501.671 684.331 505.316 680.636 500.926 677.048 502.882 673.371" style="fill: none; stroke: #000; stroke-linecap: round; stroke-linejoin: round; stroke-width: 35px;"/>
    <polyline points="309.732 763.688 309.145 759.348 313.501 757.439 311.203 752.251 313.577 749.365 319.517 748.235 323.204 745.997 320.8 740.759 323.409 737.986 327.883 736.133 324.142 730.238 332.377 730.236 330.899 725.451 334.914 723.373 335.533 719.622 338.57 717.059 336.339 711.906 339.614 709.46 340.79 705.983 341.078 702.067 340.682 697.815 341.926 694.378 345.539 692.103 345.539 688.045 347.216 684.817 348.06 681.175 354.886 680.478 354.525 676.241 352.473 671.175 354.694 668.208 354.844 664.221 359.431 662.418 364.113 660.666 364.491 656.792 369.459 655.175 363.557 648.209 371.597 648.096 373.224 644.828" style="fill: none; stroke: #000; stroke-linecap: round; stroke-linejoin: round; stroke-width: 35px;"/>
    <polyline points="153.682 633.026 156.027 630.091 159.234 628.308 163.363 627.752 168.438 628.463 172.561 627.904 175.53 625.802 177.09 621.814 177.957 616.896 182.747 617.227 185.419 614.725 189.524 614.139 190.027 608.735 196.188 610.898 195.992 604.56 197.778 600.87 204.108 603.258 203.77 596.729 210.06 599.062 208.578 591.004 212.939 590.76 217.875 591.292 221.773 590.432 223.492 586.652 226.956 585.211 230.866 584.36 230.897 578.326 234.425 576.961 240.528 579.043 242.071 575.025 241.003 567.515 246.321 568.541 247.511 564.056 255.056 568.061 257.969 565.871 257.362 558.975 261.183 557.987 263.727 555.293" style="fill: none; stroke: #000; stroke-linecap: round; stroke-linejoin: round; stroke-width: 35px;"/>
  </g>
  <polyline points="815.485 408.71 816.575 412.992 814.573 416.105 809.434 417.88 812.294 422.997 808.905 425.457 808.702 429.312 803.463 430.866 803.025 434.614 806.744 440.394 796.603 439.446 802.273 446.284 801.26 449.838 796.858 451.633 790.282 452.214 791.413 456.882 788.027 459.109 787.67 463.008 784.02 465.048 787.385 471.141 783.686 473.148 784.531 477.861 777.376 477.715 776.875 481.617 780.408 488.115 770.588 486.09 770.323 490.181 773.848 496.849 769.863 498.528 764.408 499.143 762.726 502.336 758.735 503.884 763.355 511.667 759.588 513.394 757.872 516.63 750.049 515.184 751.6 520.919 749.278 523.674 750.183 529.042 747.268 531.35 742.908 532.43 740.127 534.796 737.997 537.717 734.61 539.53 734.295 544.085 731.765 546.672 731.428 551.313 727.977 553.056 720.066 550.419 719.83 555.201 720.526 561.014 717.423 563.036 711.803 562.385 708.816 564.437 705.259 565.847 703.204 568.899 704.775 576.123 699.97 576.11 694.546 575.254 696.353 583.079 689.346 580.159 689.919 586.674 684.676 585.798 685.381 592.719 682.11 594.432 678.497 595.646 671.313 591.694 669.649 595.558 668.471 600.248 663.923 599.866 659.989 600.333 660.804 608.463 656.442 608.267 651.012 606.118 649.016 609.825 644.575 609.188 644.375 616.375 641.423 618.571 636.413 616.697 635.313 622.649 630.596 621.198 628.132 624.498 623.951 624.018 620.075 624.115 615.873 623.322 615.297 631.559 609.438 626.418 606.972 630.057 603.8 631.882 600.459 633.258 597.358 635.398 594.244 637.596 588.928 632.394 585.421 633.045 583.446 639.434 580.361 642.017 575.738 638.327 572.166 638.775 568.473 638.612 564.897 638.919 561.658 640.998 557.877 640.133 555.529 648.065 551.757 647.524 547.73 644.858 544.662 649.504 540.713 646.964 537.41 650.427 533.519 647.749 529.817 646.683 526.194 646.425 522.544 645.363 519.147 650.748 515.373 645.13 511.859 650.731 508.217 647.072 504.566 651.604 500.97 649.2 497.521 644.103 493.86 646.066 490.081 649.202 486.946 642.037 483.178 644.588 479.184 648.796 476.253 641.997 472.723 641.566 469.312 640.223 464.531 648.588 460.928 647.985 457.568 645.941 453.6 647.455 451.077 641.229 447.675 639.936 442.833 645.274 440.676 638.374 435.696 643.628 432.472 641.469 428.929 640.603 426.996 634.076 423.855 632.095 420.495 630.903 414.784 636.959 412.076 633.565 408.256 633.506 404.29 633.763 400.781 632.704 399.427 626.145 396.522 623.755 390.972 627.724 389.825 621.215 386.171 620.613 383.399 618.05 381.223 614.3 377.414 614.002 371.951 616.906 370.091 612.626 368.061 608.807 364.137 608.552 358.47 611.316 357.684 605.404 351.52 608.771 349.68 604.765 350.248 596.988 342.048 603.253 341.186 597.885 340.047 593.085 338.149 589.523 332.039 592.069 331.607 586.446 328.209 585.05 324.074 584.615 320.306 583.626 318.487 580.073 313.014 581.2 314.222 573.9 307.169 576.853 305.797 572.821 307.128 565.686 304.56 563.212 297.776 565.507 295.379 562.767 295.46 557.334 288.636 559.401 288.976 553.774 282.879 554.909 283.76 548.83 280.981 546.528 276.94 545.458 275.506 541.819 270.33 541.771 266.837 540.067 270.163 532.059 264.02 532.795 259.856 531.66 263.77 523.392 259.559 522.313 258.243 518.723 256.236 515.736 253.789 513.119 246.35 514.548 244.976 511.001 244.11 507.076 243.741 502.798 240.807 500.521 234.969 500.412 232.947 497.391 231.525 493.937 234.508 487.33 228.621 487.116 224.693 485.454 225.888 480.233 222.106 478.448 217.772 476.997 220.894 470.602 214.956 470.169 213.49 466.811 214.614 461.839 214.825 457.487 212.876 454.487 205.027 455.012 204.968 450.836 204.09 447.169 198.868 445.992 201.703 440.244 202.408 435.758 198.515 433.807 191.252 433.592 195.427 427.326 190.362 425.885 189.728 422.162 189.507 418.264 185.079 416.386 185.208 412.34 186.024 408.686" style="fill: none; stroke: #000; stroke-linecap: round; stroke-linejoin: round; stroke-width: 35px;"/>
</svg>