<?xml version="1.0" encoding="UTF-8"?>
<svg id="Sticker" xmlns="http://www.w3.org/2000/svg" width="1000" height="1000" viewBox="0 0 1000 1000">
  <polygon points="651.05 135.422 649.403 130.335 645.856 135.81 642.28 136.704 638.793 139.493 635.23 139.642 631.333 134.089 628.105 139.987 624.526 139.959 620.264 132.248 616.756 133.866 613.742 139.816 610.167 140.074 606.268 137.818 603.357 143.12 599.269 139.816 595.436 138.615 591.216 135.326 587.643 136.107 585.671 145.351 582.198 146.168 577.764 142.392 574.807 145.754 571.335 146.643 568.146 148.703 563.915 146.517 560.397 147.297 556.612 147.11 553.913 150.84 550.605 152.299 547.072 152.986 541.472 147.158 538.16 148.792 537.588 158.498 532.276 154.086 529.195 156.211 524.241 153.243 523.041 160.325 518.933 159.702 517.131 164.869 512.685 163.492 510.388 167.271 506.962 168.363 502.463 167.108 501.181 172.91 494.98 168.185 493.737 173.905 489.112 172.681 485.719 173.991 482.319 175.305 478.547 175.945 475.933 178.732 474.019 182.709 472.232 186.807 464.85 181.349 466.528 191.181 462.802 191.934 457.573 190.359 452.752 189.565 449.97 191.976 451.021 200.049 446.228 199.391 443.45 201.708 442.547 206.622 436.506 204.419 432.269 204.802 431.682 210.03 428.942 212.378 426.051 214.531 424.255 218.035 422.679 221.755 418.664 222.535 417.01 226.112 410.213 223.796 409.447 228.382 409.638 233.929 403.486 232.561 398.899 232.984 397.386 236.655 399.109 243.547 393.74 243.25 392.179 246.76 391 250.597 389.16 253.77 383.94 253.826 382.474 257.352 379.333 259.372 375.879 261.147 373.477 263.851 370.017 265.679 368.081 268.783 368.015 273.365 364.991 275.569 361.944 277.781 361.844 282.227 361.002 286.065 358.998 289.029 357.542 292.377 350.117 291.592 350.688 296.36 344.493 296.584 347.922 303.148 345.841 306.076 343.976 309.143 343.191 312.862 334.95 312.14 339.362 318.909 333.603 319.763 335.264 324.82 334.182 328.309 334.061 332.288 328.065 333.208 330.66 338.547 323.902 339.204 324.574 343.534 322.371 346.473 320.549 349.6 322.177 354.258 314.392 354.802 319.854 361.027 311.149 361.341 313.154 366.049 313.302 369.97 312.824 373.625 312.662 377.377 311.578 380.784 307.401 383.143 301.662 385.059 304.057 389.645 305.605 393.897 305.227 397.527 302.659 400.521 300.347 403.62 304.047 408.322 297.598 410.376 293.464 413.105 294.954 417.198 293.79 420.66 300.261 425.728 292.173 427.748 296.002 432.171 294.092 435.477 293.268 438.992 291.365 442.34 292.802 446.211 287.287 449.083 289.634 453.061 290.982 456.865 290.701 460.458 285.233 463.541 285.576 467.236 284.569 470.813 285.268 474.522 288.804 478.377 287.81 481.938 290.994 485.678 286.561 489.131 283.581 492.697 285.536 496.368 291.392 500 292.308 503.567 284.641 507.283 286.604 510.868 284.743 514.566 292.319 517.845 286.867 521.739 293.518 524.919 291.768 528.628 292.282 532.178 292.086 535.794 289.465 539.682 290.923 543.149 289.567 546.956 289.894 550.566 289.514 554.285 295.411 557.029 288.82 561.767 293.276 564.679 297.532 567.551 295.813 571.538 300.096 574.318 296.337 578.793 294.616 582.893 296.55 586.165 298.602 589.385 295.013 594.059 297.26 597.237 300.981 599.969 305.18 602.502 306.676 605.791 303.903 610.419 304.302 614.094 311.177 615.596 304.474 621.712 307.755 624.406 307.2 628.48 314.856 629.451 313.04 634.012 310.983 638.744 319.77 639.026 319.999 642.809 321.729 645.958 321.707 649.894 323.721 652.919 320.512 658.425 327.992 658.815 322.312 665.664 330.847 665.383 333.002 668.292 330.498 673.701 336.135 674.722 337.321 678.158 334.726 683.797 335.102 687.794 343.527 686.959 340.105 693.278 347.26 693.051 347.913 696.883 345.474 702.794 352.179 702.66 348.858 709.303 354.696 709.654 352.954 715.343 358.767 715.603 362.655 717.194 362.406 721.894 361.086 727.507 369.822 725.226 372.776 727.432 372.707 732.122 377.07 733.142 375.167 739.497 378.049 741.789 383.565 741.701 380.516 749.341 386.034 749.182 390.756 749.668 389.697 755.684 391.548 758.954 395.353 760.279 396.494 764.299 403.892 761.806 402.051 769.011 407.292 768.668 408.326 772.903 411.544 774.728 417.215 773.686 414.639 782.261 422.514 778.48 423.384 783.074 422.94 789.413 426.894 790.285 432.459 788.991 433.815 793.172 439.81 791.115 439.635 797.467 443.193 798.696 444.989 802.446 450.513 800.742 454.631 801.008 453.595 809.17 458.963 807.483 463.588 806.836 465.924 809.856 467.712 813.856 469.198 818.477 472.124 820.682 474.689 823.562 478.278 824.595 483.967 821.611 487.27 823.036 489.273 827.04 490.741 832.26 494.288 833.308 500.875 827.79 500.507 837.253 505.346 835.341 510.116 833.404 513.354 834.948 514.229 842.322 520.324 836.813 523.126 839.494 524.997 844.765 530.094 841.337 531.168 849.131 534.943 849.372 538.353 850.664 543.819 845.462 545.266 852.984 551.064 846.191 551.92 856.248 557.199 850.791 559.022 858.008 562.915 857.517 567.272 854.979 569.853 859.844 573.288 861.214 578.409 854.59 581.475 857.519 584.075 863.16 588.404 859.684 592.126 859.323 596.302 855.966 599.546 858.373 602.354 864.21 606.17 863.011 610.127 860.331 613.235 864.946 617.276 860.892 620.989 859.57 624.097 865.581 627.777 864.881 631.62 861.057 634.916 866.853 638.562 866.487 642.266 863.807 645.764 868.925 649.417 868.267 654.072 865.587 653.478 861.649 655.462 858.051 650.539 854.453 656.701 850.856 653.644 847.259 649.651 843.667 654.778 840.075 655.584 836.483 650.583 832.89 655.148 829.297 655.366 825.703 650.806 822.109 653.583 818.514 655.249 814.918 655.684 811.322 648.299 807.725 656.851 804.127 654.327 800.528 654.959 796.93 650.912 793.333 655.713 789.736 656.223 786.14 653.117 782.545 655.964 778.95 655.99 775.355 649.645 771.761 649.921 768.168 649.04 764.574 652.499 760.981 657.764 757.388 651.819 753.795 648.691 750.202 657.612 746.61 654.203 743.017 654.949 739.424 651.746 735.831 655.805 732.238 652.592 728.644 657.723 725.05 653.917 721.456 655.156 717.861 651.892 714.266 651.454 710.67 655.385 707.073 651.696 703.476 654.664 699.877 652.435 696.278 656.051 692.679 657.579 689.081 650.477 685.483 653.927 681.887 650.142 678.29 648.996 674.695 651.638 671.099 651.483 667.504 654.869 663.91 654.774 660.315 653.437 656.721 650.055 653.126 652.802 649.532 651.591 645.937 656.084 642.342 656.307 638.747 652.67 635.152 656.757 631.556 650.546 627.959 654.589 624.362 648.271 620.764 654.483 617.165 655.443 613.565 649.999 609.965 650.166 606.367 656.594 602.769 657.214 599.172 656.964 595.575 649.857 591.979 653.598 588.383 650.736 584.787 656.799 581.191 651.136 577.596 657.082 574 652.569 570.404 652.66 566.807 648.284 563.21 649.336 559.612 654.033 556.014 655.336 552.415 655.821 548.815 651.177 545.215 656.294 541.616 648.325 538.018 649.473 534.42 653.879 530.823 654.654 527.226 655.618 523.629 653.075 520.032 656.175 516.435 654.216 512.838 650.639 509.24 651.061 505.642 652.244 502.043 654.137 498.443 649.776 494.843 651.263 491.243 651.641 487.644 652.636 484.045 648.934 480.447 657.678 476.85 657.09 473.252 649.947 469.654 656.557 466.056 657.909 462.458 651.09 458.859 651.419 455.259 651.556 451.658 654.964 448.057 657.269 444.458 657.934 440.859 649.565 437.261 648.093 433.663 657.414 430.064 655.832 426.466 655.989 422.866 652.353 419.266 650.133 415.664 653.548 412.064 649.253 408.465 651.602 404.866 652.065 401.267 657.124 397.668 652.715 394.068 654.585 390.468 657.591 386.867 651.799 383.266 648.664 379.666 648.826 376.067 657.982 372.467 651.865 368.868 652.84 365.268 651.988 361.666 655.909 358.065 655.965 354.465 652.928 350.865 655.41 347.265 656.272 343.665 650.034 340.064 649.451 336.463 649.496 332.862 649.265 329.262 655.058 325.667 652.499 322.072 655.648 318.477 656.638 314.881 651.852 311.283 652.741 307.684 654.427 304.081 657.061 300.481 650.03 296.883 650.148 293.285 654.634 289.688 651.563 286.091 653.368 282.491 648.872 278.89 653.001 275.288 654.966 271.688 648.737 268.089 651.709 264.49 649.161 260.89 654.236 257.287 650.798 253.685 652.596 250.085 655.618 246.485 649.73 242.884 649.648 239.28 650.567 235.678 657.368 232.077 650.23 228.475 653.606 224.871 653.617 221.27 650.882 217.667 657.737 214.063 654.31 210.461 655.902 206.857 657.137 203.254 652.937 199.65 656.344 196.046 656.713 192.442 648.368 188.842 657.305 185.238 648.551 181.638 654.679 178.034 653.245 174.432 652.744 170.826 649.237 167.223 655.601 163.618 650.153 160.011 654.745 156.405 652.45 152.798 657.396 149.192 653.262 145.586 649.962 141.979 657.323 137.061 651.05 135.422" style="fill: #fff;"/>
  <polygon points="651.05 135.422 649.403 130.335 645.856 135.81 642.28 136.704 638.793 139.493 635.23 139.642 631.333 134.089 628.105 139.987 624.526 139.959 620.264 132.248 616.756 133.866 613.742 139.816 610.167 140.074 606.268 137.818 603.357 143.12 599.269 139.816 595.436 138.615 591.216 135.326 587.643 136.107 585.671 145.351 582.198 146.168 577.764 142.392 574.807 145.754 571.335 146.643 568.146 148.703 563.915 146.517 560.397 147.297 556.612 147.11 553.913 150.84 550.605 152.299 547.072 152.986 541.472 147.158 538.16 148.792 537.588 158.498 532.276 154.086 529.195 156.211 524.241 153.243 523.041 160.325 518.933 159.702 517.131 164.869 512.685 163.492 510.388 167.271 506.962 168.363 502.463 167.108 501.181 172.91 494.98 168.185 493.737 173.905 489.112 172.681 485.719 173.991 482.319 175.305 478.547 175.945 475.933 178.732 474.019 182.709 472.232 186.807 464.85 181.349 466.528 191.181 462.802 191.934 457.573 190.359 452.752 189.565 449.97 191.976 451.021 200.049 446.228 199.391 443.45 201.708 442.547 206.622 436.506 204.419 432.269 204.802 431.682 210.03 428.942 212.378 426.051 214.531 424.255 218.035 422.679 221.755 418.664 222.535 417.01 226.112 410.213 223.796 409.447 228.382 409.638 233.929 403.486 232.561 398.899 232.984 397.386 236.655 399.109 243.547 393.74 243.25 392.179 246.76 391 250.597 389.16 253.77 383.94 253.826 382.474 257.352 379.333 259.372 375.879 261.147 373.477 263.851 370.017 265.679 368.081 268.783 368.015 273.365 364.991 275.569 361.944 277.781 361.844 282.227 361.002 286.065 358.998 289.029 357.542 292.377 350.117 291.592 350.688 296.36 344.493 296.584 347.922 303.148 345.841 306.076 343.976 309.143 343.191 312.862 334.95 312.14 339.362 318.909 333.603 319.763 335.264 324.82 334.182 328.309 334.061 332.288 328.065 333.208 330.66 338.547 323.902 339.204 324.574 343.534 322.371 346.473 320.549 349.6 322.177 354.258 314.392 354.802 319.854 361.027 311.149 361.341 313.154 366.049 313.302 369.97 312.824 373.625 312.662 377.377 311.578 380.784 307.401 383.143 301.662 385.059 304.057 389.645 305.605 393.897 305.227 397.527 302.659 400.521 300.347 403.62 304.047 408.322 297.598 410.376 293.464 413.105 294.954 417.198 293.79 420.66 300.261 425.728 292.173 427.748 296.002 432.171 294.092 435.477 293.268 438.992 291.365 442.34 292.802 446.211 287.287 449.083 289.634 453.061 290.982 456.865 290.701 460.458 285.233 463.541 285.576 467.236 284.569 470.813 285.268 474.522 288.804 478.377 287.81 481.938 290.994 485.678 286.561 489.131 283.581 492.697 285.536 496.368 291.392 500 292.308 503.567 284.641 507.283 286.604 510.868 284.743 514.566 292.319 517.845 286.867 521.739 293.518 524.919 291.768 528.628 292.282 532.178 292.086 535.794 289.465 539.682 290.923 543.149 289.567 546.956 289.894 550.566 289.514 554.285 295.411 557.029 288.82 561.767 293.276 564.679 297.532 567.551 295.813 571.538 300.096 574.318 296.337 578.793 294.616 582.893 296.55 586.165 298.602 589.385 295.013 594.059 297.26 597.237 300.981 599.969 305.18 602.502 306.676 605.791 303.903 610.419 304.302 614.094 311.177 615.596 304.474 621.712 307.755 624.406 307.2 628.48 314.856 629.451 313.04 634.012 310.983 638.744 319.77 639.026 319.999 642.809 321.729 645.958 321.707 649.894 323.721 652.919 320.512 658.425 327.992 658.815 322.312 665.664 330.847 665.383 333.002 668.292 330.498 673.701 336.135 674.722 337.321 678.158 334.726 683.797 335.102 687.794 343.527 686.959 340.105 693.278 347.26 693.051 347.913 696.883 345.474 702.794 352.179 702.66 348.858 709.303 354.696 709.654 352.954 715.343 358.767 715.603 362.655 717.194 362.406 721.894 361.086 727.507 369.822 725.226 372.776 727.432 372.707 732.122 377.07 733.142 375.167 739.497 378.049 741.789 383.565 741.701 380.516 749.341 386.034 749.182 390.756 749.668 389.697 755.684 391.548 758.954 395.353 760.279 396.494 764.299 403.892 761.806 402.051 769.011 407.292 768.668 408.326 772.903 411.544 774.728 417.215 773.686 414.639 782.261 422.514 778.48 423.384 783.074 422.94 789.413 426.894 790.285 432.459 788.991 433.815 793.172 439.81 791.115 439.635 797.467 443.193 798.696 444.989 802.446 450.513 800.742 454.631 801.008 453.595 809.17 458.963 807.483 463.588 806.836 465.924 809.856 467.712 813.856 469.198 818.477 472.124 820.682 474.689 823.562 478.278 824.595 483.967 821.611 487.27 823.036 489.273 827.04 490.741 832.26 494.288 833.308 500.875 827.79 500.507 837.253 505.346 835.341 510.116 833.404 513.354 834.948 514.229 842.322 520.324 836.813 523.126 839.494 524.997 844.765 530.094 841.337 531.168 849.131 534.943 849.372 538.353 850.664 543.819 845.462 545.266 852.984 551.064 846.191 551.92 856.248 557.199 850.791 559.022 858.008 562.915 857.517 567.272 854.979 569.853 859.844 573.288 861.214 578.409 854.59 581.475 857.519 584.075 863.16 588.404 859.684 592.126 859.323 596.302 855.966 599.546 858.373 602.354 864.21 606.17 863.011 610.127 860.331 613.235 864.946 617.276 860.892 620.989 859.57 624.097 865.581 627.777 864.881 631.62 861.057 634.916 866.853 638.562 866.487 642.266 863.807 645.764 868.925 649.417 868.267 654.072 865.587 653.478 861.649 655.462 858.051 650.539 854.453 656.701 850.856 653.644 847.259 649.651 843.667 654.778 840.075 655.584 836.483 650.583 832.89 655.148 829.297 655.366 825.703 650.806 822.109 653.583 818.514 655.249 814.918 655.684 811.322 648.299 807.725 656.851 804.127 654.327 800.528 654.959 796.93 650.912 793.333 655.713 789.736 656.223 786.14 653.117 782.545 655.964 778.95 655.99 775.355 649.645 771.761 649.921 768.168 649.04 764.574 652.499 760.981 657.764 757.388 651.819 753.795 648.691 750.202 657.612 746.61 654.203 743.017 654.949 739.424 651.746 735.831 655.805 732.238 652.592 728.644 657.723 725.05 653.917 721.456 655.156 717.861 651.892 714.266 651.454 710.67 655.385 707.073 651.696 703.476 654.664 699.877 652.435 696.278 656.051 692.679 657.579 689.081 650.477 685.483 653.927 681.887 650.142 678.29 648.996 674.695 651.638 671.099 651.483 667.504 654.869 663.91 654.774 660.315 653.437 656.721 650.055 653.126 652.802 649.532 651.591 645.937 656.084 642.342 656.307 638.747 652.67 635.152 656.757 631.556 650.546 627.959 654.589 624.362 648.271 620.764 654.483 617.165 655.443 613.565 649.999 609.965 650.166 606.367 656.594 602.769 657.214 599.172 656.964 595.575 649.857 591.979 653.598 588.383 650.736 584.787 656.799 581.191 651.136 577.596 657.082 574 652.569 570.404 652.66 566.807 648.284 563.21 649.336 559.612 654.033 556.014 655.336 552.415 655.821 548.815 651.177 545.215 656.294 541.616 648.325 538.018 649.473 534.42 653.879 530.823 654.654 527.226 655.618 523.629 653.075 520.032 656.175 516.435 654.216 512.838 650.639 509.24 651.061 505.642 652.244 502.043 654.137 498.443 649.776 494.843 651.263 491.243 651.641 487.644 652.636 484.045 648.934 480.447 657.678 476.85 657.09 473.252 649.947 469.654 656.557 466.056 657.909 462.458 651.09 458.859 651.419 455.259 651.556 451.658 654.964 448.057 657.269 444.458 657.934 440.859 649.565 437.261 648.093 433.663 657.414 430.064 655.832 426.466 655.989 422.866 652.353 419.266 650.133 415.664 653.548 412.064 649.253 408.465 651.602 404.866 652.065 401.267 657.124 397.668 652.715 394.068 654.585 390.468 657.591 386.867 651.799 383.266 648.664 379.666 648.826 376.067 657.982 372.467 651.865 368.868 652.84 365.268 651.988 361.666 655.909 358.065 655.965 354.465 652.928 350.865 655.41 347.265 656.272 343.665 650.034 340.064 649.451 336.463 649.496 332.862 649.265 329.262 655.058 325.667 652.499 322.072 655.648 318.477 656.638 314.881 651.852 311.283 652.741 307.684 654.427 304.081 657.061 300.481 650.03 296.883 650.148 293.285 654.634 289.688 651.563 286.091 653.368 282.491 648.872 278.89 653.001 275.288 654.966 271.688 648.737 268.089 651.709 264.49 649.161 260.89 654.236 257.287 650.798 253.685 652.596 250.085 655.618 246.485 649.73 242.884 649.648 239.28 650.567 235.678 657.368 232.077 650.23 228.475 653.606 224.871 653.617 221.27 650.882 217.667 657.737 214.063 654.31 210.461 655.902 206.857 657.137 203.254 652.937 199.65 656.344 196.046 656.713 192.442 648.368 188.842 657.305 185.238 648.551 181.638 654.679 178.034 653.245 174.432 652.744 170.826 649.237 167.223 655.601 163.618 650.153 160.011 654.745 156.405 652.45 152.798 657.396 149.192 653.262 145.586 649.962 141.979 657.323 137.061 651.05 135.422" style="fill: none; stroke: #000; stroke-linecap: round; stroke-linejoin: round; stroke-width: 35px;"/>
</svg>