<?xml version="1.0" encoding="UTF-8"?>
<svg id="Sticker" xmlns="http://www.w3.org/2000/svg" width="1000" height="1000" viewBox="0 0 1000 1000">
  <g>
    <polygon points="617.689 500 618.059 503.503 616.895 506.943 618.943 510.608 622.891 514.637 621.58 518.151 623.223 522.145 621.246 525.523 621.899 529.458 617.395 532.083 611.652 534.103 613.912 538.517 612.439 541.771 616.171 547.122 611.56 549.149 605.747 550.377 605.468 554.136 604.488 557.607 605.597 562.373 605.934 566.886 603.191 569.513 595.711 568.677 593.925 571.706 596.367 578.202 591.862 579.173 591.849 584.034 589.905 587.287 582.516 585.007 582.665 590.371 580.495 593.411 573.396 590.468 574.096 597.069 567.706 594.377 566.242 598.361 565.815 604.26 560.665 602.731 556.254 602.057 554.15 605.515 550.826 606.707 548.876 610.962 543.942 608.36 542.314 613.922 539.245 616.084 534.726 613.712 532.834 620.162 527.71 614.652 525.414 620.737 520.989 616.754 518.11 621.303 514.07 618.068 510.404 616.614 507.255 622.205 503.556 619.876 500 623.525 496.372 622.36 492.943 618.849 489.067 622.639 485.166 624.563 482.116 619.773 479.141 616.021 474.783 619.785 471.378 618.424 468.782 614.222 464.439 616.434 459.816 618.842 456.677 616.615 454.184 612.954 451.327 610.482 448.302 608.516 446.939 603.378 441.66 605.813 437.389 605.999 435.001 602.951 431.068 602.33 427.517 601.006 424.051 599.474 422.127 595.962 417.772 595.404 418.477 589.107 418.964 583.467 414.963 582.545 413.98 578.683 411.644 576.135 405.627 576.569 404.88 572.607 401.228 570.864 402.797 565.46 401.284 562.308 399.432 559.385 392.315 559.363 395.712 553.519 391.744 551.564 391.806 547.654 383.229 547.356 383.457 543.288 383.054 539.536 381.618 536.15 383.465 531.845 380.681 528.834 382.664 524.702 382.92 521.047 378.879 518.083 380.308 514.261 382.964 510.441 374.517 507.446 381.454 503.518 382.279 500 383.105 496.531 380.135 492.884 382.065 489.481 382.324 485.977 385.076 482.834 379.858 478.405 380.426 474.827 378.373 470.607 379.765 467.142 387.158 465.534 380.946 459.745 390.962 459.493 385.641 453.614 389.519 451.327 393.579 449.301 394.885 446.046 392.097 440.505 398.311 439.941 401.185 437.618 400.461 432.951 405.422 432.138 400.911 424.345 405.148 423.029 406.394 419.322 408.034 415.859 415.83 418.282 417.684 415.199 420.653 413.255 422.323 409.856 424.454 406.886 428.679 406.562 432.3 405.631 430.887 397.384 437.351 400.745 439.823 398.094 440.259 391.632 444.921 392.679 446.476 387.638 449.78 385.991 453.357 384.986 456.37 382.537 461.719 386.769 463.888 381.743 469.311 387.705 471.366 381.511 475.549 383.861 478.755 381.813 482.832 385.065 486.031 382.786 489.291 379.918 492.916 380.71 496.322 375.937 500 383.612 503.471 383.034 507.222 378.315 510.653 380.552 514.709 376.5 517.744 381.17 520.926 383.606 525.745 377.697 527.897 384.586 531.848 383.47 534.953 385.56 538.692 385.572 540.561 390.817 544.773 389.614 549.549 387.533 550.095 394.845 554.177 394.451 558.998 392.995 561.879 395.236 565.667 395.992 566.29 401.585 569.53 403.103 571.219 406.712 573.675 409.206 579.395 407.88 580.832 411.648 582.56 414.963 587.191 415.364 585.726 421.586 594.248 418.784 595.59 422.443 593.833 428.377 602.129 426.723 603.663 430.181 603.59 434.609 607.709 436.389 605.067 442.083 609.034 444.04 609.748 447.723 608.549 452.189 615.252 453.26 612.572 458.188 616.879 460.487 615.4 464.759 613.58 468.96 615.924 471.983 620.579 474.619 617.631 478.854 624.433 481.426 616.271 486.142 620.024 489.296 618.846 492.942 621.397 496.399 617.689 500"/>
    <polygon points="617.689 500 618.059 503.503 616.895 506.943 618.943 510.608 622.891 514.637 621.58 518.151 623.223 522.145 621.246 525.523 621.899 529.458 617.395 532.083 611.652 534.103 613.912 538.517 612.439 541.771 616.171 547.122 611.56 549.149 605.747 550.377 605.468 554.136 604.488 557.607 605.597 562.373 605.934 566.886 603.191 569.513 595.711 568.677 593.925 571.706 596.367 578.202 591.862 579.173 591.849 584.034 589.905 587.287 582.516 585.007 582.665 590.371 580.495 593.411 573.396 590.468 574.096 597.069 567.706 594.377 566.242 598.361 565.815 604.26 560.665 602.731 556.254 602.057 554.15 605.515 550.826 606.707 548.876 610.962 543.942 608.36 542.314 613.922 539.245 616.084 534.726 613.712 532.834 620.162 527.71 614.652 525.414 620.737 520.989 616.754 518.11 621.303 514.07 618.068 510.404 616.614 507.255 622.205 503.556 619.876 500 623.525 496.372 622.36 492.943 618.849 489.067 622.639 485.166 624.563 482.116 619.773 479.141 616.021 474.783 619.785 471.378 618.424 468.782 614.222 464.439 616.434 459.816 618.842 456.677 616.615 454.184 612.954 451.327 610.482 448.302 608.516 446.939 603.378 441.66 605.813 437.389 605.999 435.001 602.951 431.068 602.33 427.517 601.006 424.051 599.474 422.127 595.962 417.772 595.404 418.477 589.107 418.964 583.467 414.963 582.545 413.98 578.683 411.644 576.135 405.627 576.569 404.88 572.607 401.228 570.864 402.797 565.46 401.284 562.308 399.432 559.385 392.315 559.363 395.712 553.519 391.744 551.564 391.806 547.654 383.229 547.356 383.457 543.288 383.054 539.536 381.618 536.15 383.465 531.845 380.681 528.834 382.664 524.702 382.92 521.047 378.879 518.083 380.308 514.261 382.964 510.441 374.517 507.446 381.454 503.518 382.279 500 383.105 496.531 380.135 492.884 382.065 489.481 382.324 485.977 385.076 482.834 379.858 478.405 380.426 474.827 378.373 470.607 379.765 467.142 387.158 465.534 380.946 459.745 390.962 459.493 385.641 453.614 389.519 451.327 393.579 449.301 394.885 446.046 392.097 440.505 398.311 439.941 401.185 437.618 400.461 432.951 405.422 432.138 400.911 424.345 405.148 423.029 406.394 419.322 408.034 415.859 415.83 418.282 417.684 415.199 420.653 413.255 422.323 409.856 424.454 406.886 428.679 406.562 432.3 405.631 430.887 397.384 437.351 400.745 439.823 398.094 440.259 391.632 444.921 392.679 446.476 387.638 449.78 385.991 453.357 384.986 456.37 382.537 461.719 386.769 463.888 381.743 469.311 387.705 471.366 381.511 475.549 383.861 478.755 381.813 482.832 385.065 486.031 382.786 489.291 379.918 492.916 380.71 496.322 375.937 500 383.612 503.471 383.034 507.222 378.315 510.653 380.552 514.709 376.5 517.744 381.17 520.926 383.606 525.745 377.697 527.897 384.586 531.848 383.47 534.953 385.56 538.692 385.572 540.561 390.817 544.773 389.614 549.549 387.533 550.095 394.845 554.177 394.451 558.998 392.995 561.879 395.236 565.667 395.992 566.29 401.585 569.53 403.103 571.219 406.712 573.675 409.206 579.395 407.88 580.832 411.648 582.56 414.963 587.191 415.364 585.726 421.586 594.248 418.784 595.59 422.443 593.833 428.377 602.129 426.723 603.663 430.181 603.59 434.609 607.709 436.389 605.067 442.083 609.034 444.04 609.748 447.723 608.549 452.189 615.252 453.26 612.572 458.188 616.879 460.487 615.4 464.759 613.58 468.96 615.924 471.983 620.579 474.619 617.631 478.854 624.433 481.426 616.271 486.142 620.024 489.296 618.846 492.942 621.397 496.399 617.689 500" style="fill: none; stroke: #000; stroke-linecap: round; stroke-linejoin: round; stroke-width: 35px;"/>
  </g>
  <g>
    <g>
      <polyline points="327.689 338.601 326.205 345.213 329.062 347.482 334.535 347.133 334.008 352.783 342.641 349.274 341.755 355.287 345.543 356.629 348.871 358.431 352.888 359.542 350.235 367.321 353.924 368.758 358.059 369.75 361.526 371.414 362.244 375.828 366.582 376.617 368.279 380.048 368.461 384.996 372.258 386.332 376.635 387.085 374.662 394.187 379.755 394.225 381.157 397.956 384.753 399.49 387.369 402.005 393.975 400.532 395.53 404.108 399.174 405.585 398.131 411.75 399.584 415.429 402.402 417.742 409.34 415.929 411.651 418.747 408.424 427.11 410.707 429.956 416.451 429.348 415.579 435.353 419.288 436.781 420.813 440.391 423.883 442.458 428.152 443.328 428.638 447.97 434.716 447.028 435.518 451.367 440.721 451.305 439.131 458.038 446.118 456.202 449.776 457.695"/>
      <polyline points="327.689 338.601 326.205 345.213 329.062 347.482 334.535 347.133 334.008 352.783 342.641 349.274 341.755 355.287 345.543 356.629 348.871 358.431 352.888 359.542 350.235 367.321 353.924 368.758 358.059 369.75 361.526 371.414 362.244 375.828 366.582 376.617 368.279 380.048 368.461 384.996 372.258 386.332 376.635 387.085 374.662 394.187 379.755 394.225 381.157 397.956 384.753 399.49 387.369 402.005 393.975 400.532 395.53 404.108 399.174 405.585 398.131 411.75 399.584 415.429 402.402 417.742 409.34 415.929 411.651 418.747 408.424 427.11 410.707 429.956 416.451 429.348 415.579 435.353 419.288 436.781 420.813 440.391 423.883 442.458 428.152 443.328 428.638 447.97 434.716 447.028 435.518 451.367 440.721 451.305 439.131 458.038 446.118 456.202 449.776 457.695" style="fill: none; stroke: #000; stroke-linecap: round; stroke-linejoin: round; stroke-width: 40px;"/>
    </g>
    <g>
      <polyline points="500.731 267.973 502.943 271.599 502.501 275.224 499.951 278.847 501.031 282.47 503.975 286.093 497.518 289.718 496.16 293.345 498.636 296.973 498.442 300.599 501.324 304.223 502.977 307.848 504.273 311.474 497.907 315.102 504.895 318.73 500.436 322.356 495.104 325.982 504.192 329.609 497.08 333.239 501.578 336.866 502.533 340.493 499.386 344.121 497.146 347.751 503.714 351.378 497.056 355.006 504.386 358.636 497.646 362.264 495.883 365.894 497.984 369.523 497.535 373.153 497.937 376.782 496.565 380.412 500.836 384.042 499.922 387.671 503.653 391.297 500.705 394.926 500.217 398.554 498.904 402.185 502.453 405.814 500.123 409.445 501.006 413.077 496.412 416.709 501.341 420.341 496.36 423.973 495.647 427.604 503.605 431.237 495.886 434.875 500.029 438.514"/>
      <polyline points="500.731 267.973 502.943 271.599 502.501 275.224 499.951 278.847 501.031 282.47 503.975 286.093 497.518 289.718 496.16 293.345 498.636 296.973 498.442 300.599 501.324 304.223 502.977 307.848 504.273 311.474 497.907 315.102 504.895 318.73 500.436 322.356 495.104 325.982 504.192 329.609 497.08 333.239 501.578 336.866 502.533 340.493 499.386 344.121 497.146 347.751 503.714 351.378 497.056 355.006 504.386 358.636 497.646 362.264 495.883 365.894 497.984 369.523 497.535 373.153 497.937 376.782 496.565 380.412 500.836 384.042 499.922 387.671 503.653 391.297 500.705 394.926 500.217 398.554 498.904 402.185 502.453 405.814 500.123 409.445 501.006 413.077 496.412 416.709 501.341 420.341 496.36 423.973 495.647 427.604 503.605 431.237 495.886 434.875 500.029 438.514" style="fill: none; stroke: #000; stroke-linecap: round; stroke-linejoin: round; stroke-width: 40px;"/>
    </g>
    <g>
      <polyline points="672.141 338.653 670.492 342.131 668.518 345.283 667.094 348.983 664.56 351.572 660.643 352.779 656.939 354.201 654.754 357.147 655.364 362.887 648.529 361.18 649.694 367.47 644.701 367.603 645.242 373.272 639.04 372.201 639.569 377.862 637.477 380.898 632.895 381.443 626.779 380.456 630.618 389.429 624.71 388.651 623.953 393.023 622.597 396.798 614.087 393.42 617.198 401.662 613.072 402.666 610.841 405.568 603.399 403.258 606.067 411.047 602.257 412.359 598.436 413.67 594.983 415.347 591.545 417.035 594.572 425.192 588.038 423.793 586.775 427.66 584.129 430.149 583.895 435.048 579.891 436.182 577.887 439.312 571.33 437.892 571.772 443.473 568.901 445.731 568.068 450.032 559.743 446.848 561.256 453.503 556.621 454.011 558.08 460.621 551.261 458.953"/>
      <polyline points="672.141 338.653 670.492 342.131 668.518 345.283 667.094 348.983 664.56 351.572 660.643 352.779 656.939 354.201 654.754 357.147 655.364 362.887 648.529 361.18 649.694 367.47 644.701 367.603 645.242 373.272 639.04 372.201 639.569 377.862 637.477 380.898 632.895 381.443 626.779 380.456 630.618 389.429 624.71 388.651 623.953 393.023 622.597 396.798 614.087 393.42 617.198 401.662 613.072 402.666 610.841 405.568 603.399 403.258 606.067 411.047 602.257 412.359 598.436 413.67 594.983 415.347 591.545 417.035 594.572 425.192 588.038 423.793 586.775 427.66 584.129 430.149 583.895 435.048 579.891 436.182 577.887 439.312 571.33 437.892 571.772 443.473 568.901 445.731 568.068 450.032 559.743 446.848 561.256 453.503 556.621 454.011 558.08 460.621 551.261 458.953" style="fill: none; stroke: #000; stroke-linecap: round; stroke-linejoin: round; stroke-width: 40px;"/>
    </g>
  </g>
</svg>