<?xml version="1.0" encoding="UTF-8"?>
<svg id="Stickers" xmlns="http://www.w3.org/2000/svg" width="1000" height="1000" viewBox="0 0 1000 1000">
  <polygon points="529.386 125.619 528.643 132.282 533.771 131.769 533.302 138.101 539.36 136.453 542.972 137.796 545.756 140.155 549.12 141.803 552.052 143.975 551.303 150.65 556.185 150.445 558.761 153.059 560.68 156.486 564.239 159.25 568.721 158.486 572.29 157.679 576.509 158.845 578.751 153.975 582.697 154.31 584.145 147.005 589.656 152.116 593.38 151.782 596.955 150.977 598.243 143.181 603.278 146.834 605.005 140.358 610.452 145.253 613.11 142.032 616.789 142.733 620.247 143.207 623.628 137.523 626.808 144.67 630.54 141.981 634.26 141.482 637.923 141.848 641.078 143.718 645.886 142.336 646.222 148.955 649.404 150.412 653.787 150.718 656.964 152.767 656.479 157.941 657.461 161.418 657.357 165.301 659.945 168.024 666.998 168.216 663.154 174.585 670.071 174.855 667.79 180.338 668.419 184.175 678.078 182.896 674.861 188.906 674.167 193.491 682.732 192.833 685.045 195.717 681.564 201.89 683.658 206.284 688.677 203.234 692.043 208.518 695.904 204.619 699.757 200.809 703.306 202.745 706.588 209.676 710.705 201.002 713.893 209.709 717.663 207.504 721.649 201.265 725.298 201.354 728.856 203.26 732.371 205.958 736.002 206.01 739.499 207.006 743.706 205.538 746.079 209.874 749.502 210.916 750.063 216.934 755.655 214.53 757.605 217.757 763.813 216.398 760.548 224.327 767.775 223.077 767.972 227.376 765.424 232.689 766.239 235.812 773.441 236.841 769.256 241.573 778.296 243.531 774.151 247.824 771.514 251.894 772.844 255.385 773.72 258.94 779.437 261.786 774.968 266.129 775.792 269.695 781.547 272.537 782.706 276.053 780.719 280.032 775.32 284.512 777.645 287.864 781.048 290.668 785.033 289.757 787.648 292.823 789.813 296.898 792.571 299.649 795.433 302.174 799.933 301.065 803.872 301.203 805.351 306.794 809.971 305.416 813.937 305.495 817.276 306.967 820.043 309.726 823.034 311.987 825.789 314.087 829.89 313.999 829.756 319.925 834.257 319.703 836.49 322.275 843.503 321.093 841.187 327.264 843.133 330.117 841.197 334.77 849.424 335.187 847.872 339.48 851.479 342.408 852.984 346.036 844.694 350.026 849.787 353.503 848.087 356.864 853.325 361.607 849.091 364.381 846.453 367.518 842.469 370.351 849.93 375.787 847.472 378.967 846.573 382.504 838.136 384.325 842.828 389.13 845.687 393.522 842.705 396.585 837.993 399.255 839.514 403.35 840.85 405.927 841.903 407.983 844.76 410.283 843.919 416.233 849.423 415.925 850.545 419.938 851.439 424.18 858.604 422.228 857.422 428.512 859.177 431.906 862.566 433.69 866.933 434.512 871.314 435.328 870.523 441.241 871.353 445.068 873.218 447.797 875.399 450.327 879.813 451.868 882.55 454.639 885.817 457.509 885.702 461.487 885.288 465.351 886.955 468.957 880.524 472.572 879.774 475.784 886.725 480.407 879.491 482.388 878.17 485.427 884.054 491.758 876.891 492.218 877.751 496.924 877.79 501.347 871.433 501.455 869.954 504.855 864.52 505.586 863.281 509.149 864.391 514.298 861.156 516.517 858.64 519.215 858.372 523.434 860.12 529.014 857.495 531.645 855.521 534.722 850.565 535.39 852.444 538.189 852.336 542.206 853.225 545.795 854.665 549.143 855.661 552.685 856.167 556.441 858.286 559.499 859.583 562.908 866.724 563.791 861.603 569.985 867.441 571.433 871.252 573.767 868.278 579.037 869.017 582.492 872.238 585.249 876.283 588.268 869.959 592.746 869.596 596.113 872.6 599.676 869.228 602.765 867.973 605.894 871.932 610.654 870.689 614.142 865.478 615.61 866.128 619.994 864.971 623.613 859.963 624.112 856.092 624.986 856.534 630.588 853.975 633.172 848.752 632.047 850.274 640.615 844.519 638.729 840.95 639.98 840.619 645.889 836.781 646.76 830.784 644.528 828.243 647.256 825.53 649.745 822.7 652.064 822.188 657.719 819.75 660.615 813.095 658.807 811.615 663.291 810.458 666.982 817.725 670.348 815.261 674.092 814.185 677.783 812.091 681.515 816.534 684.993 819.545 688.526 814.442 692.375 811.059 696.157 818.481 699.519 814.7 703.324 817.947 706.854 819.205 710.58 812.514 713.563 817.31 717.872 814.746 720.972 815.594 725.099 815.029 728.956 810.717 730.851 809.791 734.552 806.771 736.815 807.102 742.11 804.511 745.044 799.157 744.415 796.715 747.295 793.753 749.575 787.76 744.94 787.429 754.086 783.249 753.212 779.29 752.359 774.97 750.008 773.342 758.758 767.927 751.904 765.791 758.562 761.283 755.455 758.183 758.15 754.298 757.592 751.13 760.003 747.177 759.187 743.241 758.441 740.933 764.43 735.886 761.658 739.942 767.537 738.202 770.791 735.522 773.727 732.209 776.443 732.921 780.543 733.678 784.66 726.718 786.128 728.338 790.536 726.817 793.871 729.439 798.628 721.754 799.849 723.252 804.227 723.595 808.21 719.767 810.621 719.852 814.661 712.759 814.458 711.186 817.243 711.397 821.736 709.408 824.64 708.784 829.443 703.653 828.544 701.563 831.848 696.706 829.884 695.436 835.87 690.297 831.11 687.642 834.094 684.439 835.704 680.949 834.365 677.421 838.265 674.559 832.133 670.454 835.371 666.359 838.544 662.715 838.288 659.706 833.236 655.828 834.751 652.326 833.405 648.655 833.342 644.844 834.333 641.891 828.842 637.964 830.713 634.452 829.439 631.109 826.848 628.18 833.783 627.323 835.653 619.24 833.606 617.095 836.567 614.452 839.106 612.112 841.902 611.108 845.827 613.719 852.798 607.036 851.932 603.386 853.626 606.223 860.788 598.893 859.383 596.64 862.265 599.798 869.705 594.358 869.815 593.943 874.839 590.813 877.106 585.309 875.479 583.702 880.054 581.136 883.711 577.008 883.709 572.584 881.513 568.866 880.675 565.788 886.385 561.94 885.068 558.483 881.814 554.346 884.986 552.523 876.996 549.732 875.261 543.157 882.25 539.763 880.406 537.522 876.907 533.675 876.347 533.687 868.732 527.752 871.983 525.991 867.607 520.195 870.596 520.665 862.142 514.394 866.008 513.591 859.878 510.344 858.212 507.331 856.116 503.757 855.032 500 854.511 498.179 858.55 494.526 859.464 489.373 857.646 487.293 861.435 483.052 861.284 478.73 860.985 479.475 869.942 474.628 868.677 469.165 866.296 468.416 872.524 464.687 873.311 460.238 872.798 458.695 877.591 457.192 883.032 451.426 878.532 449.477 884.543 445.582 884.598 441.462 881.269 438.073 885.977 434.662 879.349 431.138 880.627 426.902 883.746 425.483 875.8 421.286 877.746 418.602 875.478 416.865 871.912 413.173 871.623 411.528 868.471 403.802 871.636 403.522 866.908 401.676 863.696 401.593 859.002 398.808 856.579 395.768 854.375 389.007 855.303 386.678 852.496 386.65 847.748 382.046 846.863 379.873 843.924 381.623 837.678 380.783 833.614 376.429 832.503 374.128 827.824 369.51 831.466 365.987 832.616 362.066 830.777 358.563 832.088 355.311 835.314 351.231 832.289 347.769 833.933 344.779 839.155 340.765 836.621 336.464 831.916 333.752 839.242 329.306 833.487 325.486 832.473 322.764 841.869 318.924 838.678 315.886 832.756 312.556 833.066 307.958 837.351 306.462 830.716 302.462 831.675 296.513 835.249 293.37 832.942 292.205 828.202 291.821 823.332 288.755 821.596 288.277 817.652 283.453 816.897 283.877 812.665 284.397 808.807 274.016 809.029 275.877 804.536 272.191 801.949 272.145 798.11 277.544 792.403 268.975 791.489 272.994 786.253 269.27 783.674 267.059 780.581 270.576 775.517 268.388 772.41 262.42 770.6 265.258 765.762 262.881 763.012 260.134 760.072 255.188 765.001 253.307 757.293 248.85 760.204 245.556 758.316 242.19 756.717 238.597 756.053 235.442 753.605 232.212 751.449 226.984 757.515 224.728 751.342 220.045 755.135 216.941 752.428 212.279 754.972 208.654 753.444 207.335 747.484 204.421 745.485 200.744 744.545 196.469 743.929 194.53 740.531 195.064 735.306 190.529 734.327 186.757 732.315 185.983 728.47 182.009 726.013 184.635 721.151 181.839 718.046 188.764 713.407 186.039 710.364 188.035 707.087 179.886 703.121 179.931 699.477 187.624 696.127 185.143 692.383 188.641 688.87 181.562 684.943 182.148 681.315 187.241 677.863 188.949 674.28 188.287 670.604 182.942 666.744 189.437 663.34 181.661 661.416 182.184 657.851 179.844 654.835 176.642 653.051 173.038 651.85 171.495 647.683 166.471 648.517 166.978 641.4 160.647 644.12 161.107 637.071 156.961 636.642 154.453 633.857 146.787 638.477 144.412 635.49 146.305 627.134 138.77 630.3 138.576 625.395 134.906 623.702 135.454 619.002 133.923 615.918 127.931 614.719 127.211 610.932 131.66 605.98 131.772 602.604 126.393 599.75 127.554 596.098 129.003 592.655 126.306 588.703 132.307 586.398 127.241 581.216 129.47 578.062 128.978 573.876 136.662 573.233 132.054 567.264 137.076 565.467 141.487 563.403 144.406 560.692 142.448 555.868 139.44 550.595 142.597 547.988 144.174 544.695 144.925 541.043 144.304 536.791 151.393 535.209 148.901 531.751 147.192 528.509 146.36 524.672 139.756 524.73 136.191 522.736 137.983 517.127 135.147 514.639 134.58 510.626 135.148 505.843 133.632 502.465 124.381 504.303 122.126 501.415 126.999 493.719 121.838 492.934 122.299 488.825 118.828 486.527 115.695 483.721 121.155 478.893 116.431 476.196 113.226 472.746 113.445 468.975 118.824 465.897 113.693 461.353 121.742 459.792 115.879 454.02 116.54 450.08 119.934 447.551 121.599 444.117 129.89 446.11 130.715 442.461 127.897 434.565 131.829 433.325 137.046 433.347 142.108 433.219 140.367 426.382 141.059 421.942 149.044 424.701 152.21 422.704 154.734 420.068 153.885 414.107 153.536 408.637 160.31 410.179 163.727 407.229 159.105 403.674 159.37 399.877 156.174 396.864 158.631 392.567 162.732 387.894 158.809 385.045 153.213 382.578 157.469 377.872 156.309 374.395 157.692 370.339 152.917 367.683 149.352 364.746 147.357 361.451 154.017 356.559 153.593 353.29 146.532 349.867 145.771 345.911 146.695 342.073 153.846 339.936 157.365 337.596 153.271 332.285 152.562 327.749 155.556 325.114 159.549 323.474 165.7 324.288 166.392 320.402 167.192 316.031 171.014 315.368 171.651 309.435 176.956 311.963 179.785 309.366 183.409 308.542 185.812 304.994 190.026 305.477 194.475 306.477 196.024 301.032 200.47 302.02 204.314 301.683 204.993 294.306 211.167 299.131 213.582 295.606 214.76 289.318 216.183 288.573 215.339 286.842 216.092 283.271 219.727 280.119 224.638 277.156 221.933 273.073 218.962 268.95 221.933 265.699 226.715 262.714 227.444 259.135 222.851 254.774 228.564 251.925 229.558 248.377 224.796 243.985 223.755 239.966 230.359 238.043 231.65 234.949 234.296 232.546 229.788 226.002 233.382 223.918 234.028 219.652 236.855 217.07 239.068 213.795 243.133 212.822 248.659 214.787 252.357 214.69 255.598 214.114 256.138 205.024 260.27 205.941 263.875 205.09 267.552 204.523 271.228 204.982 275.137 209.855 278.709 208.357 282.393 208.999 285.915 206.582 289.251 200.635 293.005 202.528 296.876 206.602 300.509 206.242 304.029 203.768 307.572 201.683 311.323 203.4 316.294 206.212 314.184 199.492 316.426 196.574 320.719 194.815 323.045 191.944 327.065 190.03 326.649 185.602 324.368 180.117 327.251 177.563 327.224 173.355 336.902 174.644 330.468 166.805 333.284 164.199 337.43 162.347 343.538 162.094 341.96 156.688 343.834 153.521 344.172 148.447 349.518 148.995 352.595 147.11 357.668 148.99 360.172 146.588 361.326 139.642 366.471 144.349 369.87 144.38 372.894 141.263 376.394 140.589 379.859 141.796 383.369 141.724 386.978 141.672 390.187 143.301 393.677 144.358 397.472 144.475 400.015 148.431 403.296 150.121 406.193 152.993 412.206 146.347 414.615 150.715 418.249 151.327 422.94 148.719 423.948 157.371 427.415 158.511 431.506 157.763 435.505 157.89 440.511 157.956 438.523 149.773 441.814 148.037 444.296 145.315 451.756 148.674 454.703 146.515 457.794 144.532 460.576 142.178 463.931 140.518 462.379 132.859 468.625 134.731 469.728 130.306 474.24 130.048 475.595 126.243 478.81 124.894 482.604 124.93 485.548 123.487 487.994 120.147 492.071 122.759 495.163 121.762 498.4 121.875 501.946 113.342 505 120.439 509.48 115.166 513.023 116.644 517.314 115.955 517.38 124.966 522.845 122.036 527.053 122.419 529.386 125.619"/>
  <polygon points="529.386 125.619 528.643 132.282 533.771 131.769 533.302 138.101 539.36 136.453 542.972 137.796 545.756 140.155 549.12 141.803 552.052 143.975 551.303 150.65 556.185 150.445 558.761 153.059 560.68 156.486 564.239 159.25 568.721 158.486 572.29 157.679 576.509 158.845 578.751 153.975 582.697 154.31 584.145 147.005 589.656 152.116 593.38 151.782 596.955 150.977 598.243 143.181 603.278 146.834 605.005 140.358 610.452 145.253 613.11 142.032 616.789 142.733 620.247 143.207 623.628 137.523 626.808 144.67 630.54 141.981 634.26 141.482 637.923 141.848 641.078 143.718 645.886 142.336 646.222 148.955 649.404 150.412 653.787 150.718 656.964 152.767 656.479 157.941 657.461 161.418 657.357 165.301 659.945 168.024 666.998 168.216 663.154 174.585 670.071 174.855 667.79 180.338 668.419 184.175 678.078 182.896 674.861 188.906 674.167 193.491 682.732 192.833 685.045 195.717 681.564 201.89 683.658 206.284 688.677 203.234 692.043 208.518 695.904 204.619 699.757 200.809 703.306 202.745 706.588 209.676 710.705 201.002 713.893 209.709 717.663 207.504 721.649 201.265 725.298 201.354 728.856 203.26 732.371 205.958 736.002 206.01 739.499 207.006 743.706 205.538 746.079 209.874 749.502 210.916 750.063 216.934 755.655 214.53 757.605 217.757 763.813 216.398 760.548 224.327 767.775 223.077 767.972 227.376 765.424 232.689 766.239 235.812 773.441 236.841 769.256 241.573 778.296 243.531 774.151 247.824 771.514 251.894 772.844 255.385 773.72 258.94 779.437 261.786 774.968 266.129 775.792 269.695 781.547 272.537 782.706 276.053 780.719 280.032 775.32 284.512 777.645 287.864 781.048 290.668 785.033 289.757 787.648 292.823 789.813 296.898 792.571 299.649 795.433 302.174 799.933 301.065 803.872 301.203 805.351 306.794 809.971 305.416 813.937 305.495 817.276 306.967 820.043 309.726 823.034 311.987 825.789 314.087 829.89 313.999 829.756 319.925 834.257 319.703 836.49 322.275 843.503 321.093 841.187 327.264 843.133 330.117 841.197 334.77 849.424 335.187 847.872 339.48 851.479 342.408 852.984 346.036 844.694 350.026 849.787 353.503 848.087 356.864 853.325 361.607 849.091 364.381 846.453 367.518 842.469 370.351 849.93 375.787 847.472 378.967 846.573 382.504 838.136 384.325 842.828 389.13 845.687 393.522 842.705 396.585 837.993 399.255 839.514 403.35 840.85 405.927 841.903 407.983 844.76 410.283 843.919 416.233 849.423 415.925 850.545 419.938 851.439 424.18 858.604 422.228 857.422 428.512 859.177 431.906 862.566 433.69 866.933 434.512 871.314 435.328 870.523 441.241 871.353 445.068 873.218 447.797 875.399 450.327 879.813 451.868 882.55 454.639 885.817 457.509 885.702 461.487 885.288 465.351 886.955 468.957 880.524 472.572 879.774 475.784 886.725 480.407 879.491 482.388 878.17 485.427 884.054 491.758 876.891 492.218 877.751 496.924 877.79 501.347 871.433 501.455 869.954 504.855 864.52 505.586 863.281 509.149 864.391 514.298 861.156 516.517 858.64 519.215 858.372 523.434 860.12 529.014 857.495 531.645 855.521 534.722 850.565 535.39 852.444 538.189 852.336 542.206 853.225 545.795 854.665 549.143 855.661 552.685 856.167 556.441 858.286 559.499 859.583 562.908 866.724 563.791 861.603 569.985 867.441 571.433 871.252 573.767 868.278 579.037 869.017 582.492 872.238 585.249 876.283 588.268 869.959 592.746 869.596 596.113 872.6 599.676 869.228 602.765 867.973 605.894 871.932 610.654 870.689 614.142 865.478 615.61 866.128 619.994 864.971 623.613 859.963 624.112 856.092 624.986 856.534 630.588 853.975 633.172 848.752 632.047 850.274 640.615 844.519 638.729 840.95 639.98 840.619 645.889 836.781 646.76 830.784 644.528 828.243 647.256 825.53 649.745 822.7 652.064 822.188 657.719 819.75 660.615 813.095 658.807 811.615 663.291 810.458 666.982 817.725 670.348 815.261 674.092 814.185 677.783 812.091 681.515 816.534 684.993 819.545 688.526 814.442 692.375 811.059 696.157 818.481 699.519 814.7 703.324 817.947 706.854 819.205 710.58 812.514 713.563 817.31 717.872 814.746 720.972 815.594 725.099 815.029 728.956 810.717 730.851 809.791 734.552 806.771 736.815 807.102 742.11 804.511 745.044 799.157 744.415 796.715 747.295 793.753 749.575 787.76 744.94 787.429 754.086 783.249 753.212 779.29 752.359 774.97 750.008 773.342 758.758 767.927 751.904 765.791 758.562 761.283 755.455 758.183 758.15 754.298 757.592 751.13 760.003 747.177 759.187 743.241 758.441 740.933 764.43 735.886 761.658 739.942 767.537 738.202 770.791 735.522 773.727 732.209 776.443 732.921 780.543 733.678 784.66 726.718 786.128 728.338 790.536 726.817 793.871 729.439 798.628 721.754 799.849 723.252 804.227 723.595 808.21 719.767 810.621 719.852 814.661 712.759 814.458 711.186 817.243 711.397 821.736 709.408 824.64 708.784 829.443 703.653 828.544 701.563 831.848 696.706 829.884 695.436 835.87 690.297 831.11 687.642 834.094 684.439 835.704 680.949 834.365 677.421 838.265 674.559 832.133 670.454 835.371 666.359 838.544 662.715 838.288 659.706 833.236 655.828 834.751 652.326 833.405 648.655 833.342 644.844 834.333 641.891 828.842 637.964 830.713 634.452 829.439 631.109 826.848 628.18 833.783 627.323 835.653 619.24 833.606 617.095 836.567 614.452 839.106 612.112 841.902 611.108 845.827 613.719 852.798 607.036 851.932 603.386 853.626 606.223 860.788 598.893 859.383 596.64 862.265 599.798 869.705 594.358 869.815 593.943 874.839 590.813 877.106 585.309 875.479 583.702 880.054 581.136 883.711 577.008 883.709 572.584 881.513 568.866 880.675 565.788 886.385 561.94 885.068 558.483 881.814 554.346 884.986 552.523 876.996 549.732 875.261 543.157 882.25 539.763 880.406 537.522 876.907 533.675 876.347 533.687 868.732 527.752 871.983 525.991 867.607 520.195 870.596 520.665 862.142 514.394 866.008 513.591 859.878 510.344 858.212 507.331 856.116 503.757 855.032 500 854.511 498.179 858.55 494.526 859.464 489.373 857.646 487.293 861.435 483.052 861.284 478.73 860.985 479.475 869.942 474.628 868.677 469.165 866.296 468.416 872.524 464.687 873.311 460.238 872.798 458.695 877.591 457.192 883.032 451.426 878.532 449.477 884.543 445.582 884.598 441.462 881.269 438.073 885.977 434.662 879.349 431.138 880.627 426.902 883.746 425.483 875.8 421.286 877.746 418.602 875.478 416.865 871.912 413.173 871.623 411.528 868.471 403.802 871.636 403.522 866.908 401.676 863.696 401.593 859.002 398.808 856.579 395.768 854.375 389.007 855.303 386.678 852.496 386.65 847.748 382.046 846.863 379.873 843.924 381.623 837.678 380.783 833.614 376.429 832.503 374.128 827.824 369.51 831.466 365.987 832.616 362.066 830.777 358.563 832.088 355.311 835.314 351.231 832.289 347.769 833.933 344.779 839.155 340.765 836.621 336.464 831.916 333.752 839.242 329.306 833.487 325.486 832.473 322.764 841.869 318.924 838.678 315.886 832.756 312.556 833.066 307.958 837.351 306.462 830.716 302.462 831.675 296.513 835.249 293.37 832.942 292.205 828.202 291.821 823.332 288.755 821.596 288.277 817.652 283.453 816.897 283.877 812.665 284.397 808.807 274.016 809.029 275.877 804.536 272.191 801.949 272.145 798.11 277.544 792.403 268.975 791.489 272.994 786.253 269.27 783.674 267.059 780.581 270.576 775.517 268.388 772.41 262.42 770.6 265.258 765.762 262.881 763.012 260.134 760.072 255.188 765.001 253.307 757.293 248.85 760.204 245.556 758.316 242.19 756.717 238.597 756.053 235.442 753.605 232.212 751.449 226.984 757.515 224.728 751.342 220.045 755.135 216.941 752.428 212.279 754.972 208.654 753.444 207.335 747.484 204.421 745.485 200.744 744.545 196.469 743.929 194.53 740.531 195.064 735.306 190.529 734.327 186.757 732.315 185.983 728.47 182.009 726.013 184.635 721.151 181.839 718.046 188.764 713.407 186.039 710.364 188.035 707.087 179.886 703.121 179.931 699.477 187.624 696.127 185.143 692.383 188.641 688.87 181.562 684.943 182.148 681.315 187.241 677.863 188.949 674.28 188.287 670.604 182.942 666.744 189.437 663.34 181.661 661.416 182.184 657.851 179.844 654.835 176.642 653.051 173.038 651.85 171.495 647.683 166.471 648.517 166.978 641.4 160.647 644.12 161.107 637.071 156.961 636.642 154.453 633.857 146.787 638.477 144.412 635.49 146.305 627.134 138.77 630.3 138.576 625.395 134.906 623.702 135.454 619.002 133.923 615.918 127.931 614.719 127.211 610.932 131.66 605.98 131.772 602.604 126.393 599.75 127.554 596.098 129.003 592.655 126.306 588.703 132.307 586.398 127.241 581.216 129.47 578.062 128.978 573.876 136.662 573.233 132.054 567.264 137.076 565.467 141.487 563.403 144.406 560.692 142.448 555.868 139.44 550.595 142.597 547.988 144.174 544.695 144.925 541.043 144.304 536.791 151.393 535.209 148.901 531.751 147.192 528.509 146.36 524.672 139.756 524.73 136.191 522.736 137.983 517.127 135.147 514.639 134.58 510.626 135.148 505.843 133.632 502.465 124.381 504.303 122.126 501.415 126.999 493.719 121.838 492.934 122.299 488.825 118.828 486.527 115.695 483.721 121.155 478.893 116.431 476.196 113.226 472.746 113.445 468.975 118.824 465.897 113.693 461.353 121.742 459.792 115.879 454.02 116.54 450.08 119.934 447.551 121.599 444.117 129.89 446.11 130.715 442.461 127.897 434.565 131.829 433.325 137.046 433.347 142.108 433.219 140.367 426.382 141.059 421.942 149.044 424.701 152.21 422.704 154.734 420.068 153.885 414.107 153.536 408.637 160.31 410.179 163.727 407.229 159.105 403.674 159.37 399.877 156.174 396.864 158.631 392.567 162.732 387.894 158.809 385.045 153.213 382.578 157.469 377.872 156.309 374.395 157.692 370.339 152.917 367.683 149.352 364.746 147.357 361.451 154.017 356.559 153.593 353.29 146.532 349.867 145.771 345.911 146.695 342.073 153.846 339.936 157.365 337.596 153.271 332.285 152.562 327.749 155.556 325.114 159.549 323.474 165.7 324.288 166.392 320.402 167.192 316.031 171.014 315.368 171.651 309.435 176.956 311.963 179.785 309.366 183.409 308.542 185.812 304.994 190.026 305.477 194.475 306.477 196.024 301.032 200.47 302.02 204.314 301.683 204.993 294.306 211.167 299.131 213.582 295.606 214.76 289.318 216.183 288.573 215.339 286.842 216.092 283.271 219.727 280.119 224.638 277.156 221.933 273.073 218.962 268.95 221.933 265.699 226.715 262.714 227.444 259.135 222.851 254.774 228.564 251.925 229.558 248.377 224.796 243.985 223.755 239.966 230.359 238.043 231.65 234.949 234.296 232.546 229.788 226.002 233.382 223.918 234.028 219.652 236.855 217.07 239.068 213.795 243.133 212.822 248.659 214.787 252.357 214.69 255.598 214.114 256.138 205.024 260.27 205.941 263.875 205.09 267.552 204.523 271.228 204.982 275.137 209.855 278.709 208.357 282.393 208.999 285.915 206.582 289.251 200.635 293.005 202.528 296.876 206.602 300.509 206.242 304.029 203.768 307.572 201.683 311.323 203.4 316.294 206.212 314.184 199.492 316.426 196.574 320.719 194.815 323.045 191.944 327.065 190.03 326.649 185.602 324.368 180.117 327.251 177.563 327.224 173.355 336.902 174.644 330.468 166.805 333.284 164.199 337.43 162.347 343.538 162.094 341.96 156.688 343.834 153.521 344.172 148.447 349.518 148.995 352.595 147.11 357.668 148.99 360.172 146.588 361.326 139.642 366.471 144.349 369.87 144.38 372.894 141.263 376.394 140.589 379.859 141.796 383.369 141.724 386.978 141.672 390.187 143.301 393.677 144.358 397.472 144.475 400.015 148.431 403.296 150.121 406.193 152.993 412.206 146.347 414.615 150.715 418.249 151.327 422.94 148.719 423.948 157.371 427.415 158.511 431.506 157.763 435.505 157.89 440.511 157.956 438.523 149.773 441.814 148.037 444.296 145.315 451.756 148.674 454.703 146.515 457.794 144.532 460.576 142.178 463.931 140.518 462.379 132.859 468.625 134.731 469.728 130.306 474.24 130.048 475.595 126.243 478.81 124.894 482.604 124.93 485.548 123.487 487.994 120.147 492.071 122.759 495.163 121.762 498.4 121.875 501.946 113.342 505 120.439 509.48 115.166 513.023 116.644 517.314 115.955 517.38 124.966 522.845 122.036 527.053 122.419 529.386 125.619" style="fill: none; stroke: #000; stroke-linecap: round; stroke-linejoin: round; stroke-width: 30px;"/>
</svg>