<?xml version="1.0" encoding="UTF-8"?>
<svg id="Sticker" xmlns="http://www.w3.org/2000/svg" width="1000" height="1000" viewBox="0 0 1000 1000">
  <polyline points="492.004 516.267 492.529 512.46 495.594 508.89 497.481 505.413 495.361 501.325 496.945 497.827 500.76 495.107 502.692 492.046 502.728 488.205 501.153 483.187 506.691 482.245 506.642 477.667 509.537 475.213 514.03 474.656 516.583 472.238 520.728 472.222 522.623 468.649 524.554 464.219 530.026 468.645 533.138 467.433 534.77 458.211 539.028 460.639 542.528 457.383 546.476 463.493 550.017 463.225 553.966 459.038 556.715 466.546 561.334 460.543 564.482 463.494 567.852 464.951 572.829 461.287 574.714 467.217 579.332 465.473 580.01 473.028 583.133 474.595 586.726 475.296 589.158 478.13 593.149 478.356 595.616 481.055 600.469 480.39 601.297 485.245 605.201 486.072 608.396 487.88 611.937 489.388 617.444 489.061 613.885 497.57 616.687 499.649 625.05 497.47 625.37 501.891 627.126 505.142 625.94 510.019 631.772 511.032 631.555 515.191 628.077 520.313 631.551 522.769 635.246 525.477 630.097 530.113 631.788 533.249 638.601 536.181 632.129 540.019 634.855 543.513 636.649 547.216 630.978 550.124 631.322 553.63 637.928 558.643 634.177 561.518 628.77 563.627 632.117 568.477 630.031 571.551 624.735 573.16 622.731 576.028 621.688 579.359 622.045 583.514 620.95 586.971 623.707 592.919 619.077 594.27 619.572 599.055 614.035 599.524 612.494 602.876 609.94 605.444 606.747 607.437 604.86 610.547 605.347 615.952 602.211 618.017 597.388 618.285 593.558 619.427 590.982 621.869 590.225 626.455 588.963 630.618 583.877 630.06 578.529 628.909 580.24 637.284 574.065 634.77 570.731 636.152 570.355 642.182 564.928 640.197 565.072 647.571 557.479 641.297 554.545 643.187 553.907 649.967 551.819 654.577 546.584 651.291 544.49 656.664 540.876 657.782 535.297 650.401 533.168 657.651 528.589 652.286 525.038 651.979 521.65 653.041 518.46 658.632 514.783 658.134 511.137 658.828 507.526 657.328 504.026 655.317 500.678 652.701 496.389 659.202 493.628 652.446 489.635 654.922 486.761 650.813 483.285 650.241 477.986 657.091 474.937 654.155 471.666 652.309 469.266 647.852 463.895 652.549 460.978 649.78 458.061 647.2 453.422 648.896 453.15 640.376 446.328 646.61 447.378 636.107 442.23 638.403 439.188 636.469 437.082 632.929 434.247 630.758 428.63 633.015 427.767 627.726 425.254 625.106 423.089 622.058 419.179 621.396 416.558 618.982 414.321 616.124 409.141 616.714 404.83 616.095 403.339 612.34 402.203 608.334 401.736 603.81 395.829 604.48 396.257 599.275 394.389 596.23 391.077 594.373 385.487 594.173 381.998 592.192 381.963 587.73 377.131 586.554 375.352 583.286 373.193 580.253 371.221 577.096 371.403 572.806 367.296 570.731 369.464 565.632 370.12 561.407 369.733 557.721 364.551 555.842 368.027 550.821 361.003 549.292 361.07 545.446 358.448 542.332 361.059 537.958 358.276 534.825 356.274 531.446 363.785 526.646 361.617 523.385 361.177 519.876 360.519 516.372 360.321 512.818 362.095 509.235 362.705 505.73 361.651 502.192 358.446 498.461 357.976 494.796 357.34 491.073 354.581 487.006 356.126 483.475 363.118 481.016 363.405 477.447 359.963 472.966 359.144 468.961 362.232 465.995 363.972 462.711 362.212 458.274 367.397 456.218 371.674 454.008 373.215 450.814 374.708 447.606 373.683 443.229 370.668 437.744 376.371 436.527 373.588 430.915 383.08 432.047 383.104 427.95 382.859 423.592 383.224 419.514 384.984 416.292 389.356 414.885 387.784 409.275 394.679 409.859 394.931 405.499 399.388 404.442 397.212 397.936 401.913 397.146 406.397 396.298 407.085 392.046 413.011 392.714 408.93 383.68 417.374 387.037 418.361 382.901 416.941 376.034 421.941 376.103 424.447 373.44 428.195 372.244 428.386 366.729 435.157 369.389 439.029 368.556 439.877 363.705 442.913 361.741 443.263 355.899 451.115 361.023 451.769 355.504 452.177 349.344 455.417 347.575 459.916 347.974 462.677 345.445 465.19 342.399 468.818 341.392 471.236 338.018 476.63 340.714 478.733 336.605 482.599 336.282 485.032 332.626 490.988 337.652 492.85 332.444 496.066 330.598 501.296 334.775 503.239 329.041 505.81 324.82 510.563 328.434 513.269 324.249 517.818 328.044 521.851 330.214 524.743 326.264 528.689 328.597 532.072 327.326 534.885 320.105 538.714 321.886 542.344 321.83 545.849 318.891 549.596 322.084 553.198 318.548 556.795 323.543 560.23 327.88 564.15 320.177 567.32 327.049 571.58 318.996 575.198 319.752 578.084 326.301 581.751 325.82 586.091 321.296 588.613 328.143 591.921 329.802 596.76 323.949 599.518 328.33 603.579 326.812 605.915 332.299 611.217 326.394 613.842 330.497 617.554 330.72 621.08 331.599 623.262 336.484 626.342 338.486 629.249 340.889 632.695 341.8 638.507 336.855 640.843 340.708 644.973 340.247 645.56 347.783 649.816 347.042 654.622 345.317 658.219 346.229 658.248 354.078 664.133 350.583 668.553 350.065 667.545 359.214 671.089 360.17 676.583 357.957 677.5 363.317 682.617 361.943 684.61 365.479 689.601 364.526 688.083 373.025 696.33 367.628 693.74 377.248 702.181 372.007 701.563 378.71 704.538 380.72 709.507 380.344 712.158 382.828 714.938 385.157 718.716 386.391 717.737 392.794 723.779 391.661 724.552 396.065 725.297 400.388 732.313 398.638 732.912 403.073 735.455 405.664 736.485 409.572 741.293 410.238 738.206 417.447 745.781 416.003 741.646 423.716 747.904 423.498 749.648 426.679 748.781 431.611 752.64 433.313 758.627 433.784 753.463 441.151 760.009 441.439 760.028 445.546 758.747 450.242 762.293 452.394 762.895 456.029 770.884 456.312 771.96 459.825 770.076 464.536 771.786 467.718 773.747 470.823 772.168 475.199 774.461 478.182 779.06 480.486 777.427 484.759 777.44 488.479 782.474 490.87 783.937 494.268 780.081 498.864 779.781 502.571 785.304 505.162 784.343 509.012 778.982 513.468 779.365 516.956 783.755 519.98 784.344 523.514 784.509 527.09 787.953 530.452 789.544 534.009 782.755 537.873 790.263 541.301 784.019 544.949 784.973 548.523 781.259 551.971 786.075 555.732 781.335 559.021 781.763 562.591 786.709 566.623 788.006 570.408 788.384 574.128 784.877 577.315 786.549 581.233 782.468 584.218 779.849 587.374 781.446 591.332 781.417 595.003 777.175 597.712 775.878 601.051 779.626 605.704 773.756 607.823 776.955 612.449 772.398 614.819 778.544 620.525 776.125 623.565 768.337 624.689 767.595 628.19 764.889 630.962 771.385 637.312 766.659 639.31 766.202 643.015 761.825 645.034 762.509 649.252 756.655 650.488 760.411 656.211 756.806 658.449 756.576 662.345 751.884 663.946 754.029 669.138 753.816 673.14 747.331 673.625 750.467 679.578 743.018 679.35 739.723 681.498 738.922 685.17 736.143 687.604 735.917 691.695 736.445 696.35 732.9 698.268 728.368 699.439 731.299 705.934 726.163 706.618 724.115 709.541 726.716 716.073 724.523 718.971 716.315 716.996 715.048 720.559 710.787 721.622 712.929 728.159 709.229 729.692 706.5 732.051 705.84 736.317 700.604 736.317 698.086 738.833 694.229 740.019 693.483 744.299 692.971 748.907 687.659 748.503 690.248 756.639 683.113 754.078 678.349 753.989 679.941 761.417 673.419 759.079 671.133 761.883 668.496 764.262 669.615 771.787 662.403 767.915 664.284 776.901 660.524 777.857 653.082 773.004 653.585 780.487 647.931 778.087 646.192 782.154 641.671 781.398 638.525 783.014 635.492 784.845 634.834 791.461 629.445 788.599 626.383 790.434 622.447 790.317 619.493 792.391 617.725 797.449 612.881 794.912 612.2 803.263 608.797 804.594 603.367 799.904 599.321 798.935 597.421 804.828 594.137 806.443 590.326 806.19 585.731 802.713 583.372 808 579.915 809.007 575.533 805.624 572.965 810.94 568.953 808.985 565.077 807.391 562.655 815.035 558.427 810.932 555.36 815.254 551.885 816.814 547.907 813.397 544.371 814.169 540.496 810.127 537.312 816.68 533.47 811.366 529.971 813.126 526.486 818.71 522.828 810.843 519.287 811.03 515.659 814.706 512.238 809.929 508.546 813.199 504.668 818.096 501.542 810.972 497.983 810.912 494.652 808.445 491.13 808.185 487.279 810.599 484.101 807.474 479.417 815.091 476.245 811.908 472.865 810.32 469.639 808.018 465.077 812.797 461.961 809.931 458.175 810.369 455.877 804.223 450.956 809.429 449.053 802.198 445.094 803.257 440.832 805.231 438.363 800.796 434.333 801.787 431.533 798.72 427.265 800.28 424.321 797.755 419.476 800.714 417.282 796.131 414.141 794.277 409.889 795.301 406.138 794.935 405.482 787.097 399.417 792.21 397.682 787.185 394.561 785.397 390.96 784.642 388.838 780.801 386.41 777.704 378.99 784.369 376.616 781.063 377.053 772.696 369.68 778.605 370.443 770.004 364.18 773.604 360.398 772.85 358.565 768.926 355.271 767.377 351.106 767.119 347.995 765.21 345.236 762.792 343.439 759.057 341.032 756.23 336.745 755.917 336.811 749.917 331.259 751.142 327.922 749.491 325.821 746.335 326.874 739.55 323.261 738.276 321.161 735.273 319.946 731.341 315.016 731.407 312.695 728.662 307.685 728.642 304.579 726.63 305.92 720.309 300.171 720.831 295.965 719.791 297.15 713.833 291.725 713.828 288.886 711.482 292.211 703.945 288.11 702.713 286.568 699.362 282.586 697.946 281.11 694.55 279.637 691.176 273.467 691.255 271.225 688.394 269.566 685.124 266.754 682.651 268.322 677.243 264.605 675.376 265.312 670.655 265.969 666.045 262.403 664.056 254.813 664.379 257.443 658.679 251.005 658.169 256.385 651.098 255.572 647.509 246.431 648.237 248.273 643.246 250.889 637.974 243.304 637.653 246.946 631.996 243.248 629.76 243.025 625.957 236.717 624.747 240.174 619.424 240.885 615.31 238.231 612.535 235.134 609.889 235.209 606.063 236.079 601.995 225.634 601.739 228.873 596.872 224.994 594.303 227.704 589.718 226.729 586.268 223.849 583.334 223.502 579.697 220.513 576.727 223.544 572.289 217.191 570.04 217.266 566.298 215.514 562.942 219.673 558.448 217.75 555.141 217.683 551.498 214.951 548.275 220.19 543.873 220.318 540.269 213.275 537.527 215.295 533.664 212.584 530.307 210.474 526.845 211.906 523.085 214.838 519.273 213.036 515.767 216.457 512.026 217.505 508.429 218.556 504.858 217.871 501.318 217.782 497.768 215.278 494.169 217.116 490.644 212.015 486.865 213.974 483.345 217.135 479.944 212.233 475.992 213.95 472.505 214.384 468.922 213.201 465.16 215.559 461.797 220.143 458.776 213.161 454.164 219.996 451.536 223.371 448.47 217.744 443.838 219.085 440.404 222.014 437.312 224.475 434.173 218.196 429.061 225.41 427.052 226.355 423.601 222.705 418.915 221.298 414.743 228.854 413.151 227.966 409.13 231.503 406.48 232.073 402.9 232.357 399.206 234.371 396.114 235.215 392.604 231.41 387.266 232.337 383.699 238.887 382.475 238.621 378.444 236.939 373.731 242.137 372.107 239.671 366.932 242.892 364.438 243.984 360.911 248.732 359.281 250.91 356.361 251.38 352.508 249.527 347.291 255.529 346.562 255.82 342.527 260.39 341.088 260.958 337.196 262.434 333.849 267.244 332.715 268.362 329.146 269.557 325.599 270.942 322.16 274.588 320.362 277.743 318.245 274.14 310.94 278.051 309.37 283.558 309.152 280.823 302.23 285.868 301.708 287.685 298.494 294.581 299.752 294.507 294.883 294.356 289.847 298.835 289.077 302.785 287.875 301.371 281.453 306.585 281.53 307.297 277.097 308.641 273.246 314.243 273.892 317.161 271.739 317.654 266.896 320.208 264.297 326.897 266.484 327.178 261.275 333.284 262.979 330.466 253.857 333.112 251.321 335.814 248.846 342.566 251.659 347.386 252.101 346.098 244.332 349.466 242.801 352.369 240.637 358.264 242.797 361.479 241.173 363.183 237.284 365.273 233.907 366.244 228.707 371.938 230.957 372.966 225.726 377.93 226.957 378.301 220.437 382.897 221.134 387.922 222.733 389.426 217.983 392.261 215.601 397.78 218.419 401.303 217.493 403.991 214.882 407.318 213.569 407.726 205.764 413.887 210.863 417.062 209.294 418.661 203.412 423.389 206.002 426.423 203.745 429.437 201.336 431.816 196.758 436.295 199.019 440.962 202.214 442.861 195.582 445.738 192.208 451.437 199.935 455.054 199.722 456.694 190.86 460.779 192.496 465.178 195.918 467.429 188.751 471.179 188.984 475.8 194.363 478.865 190.943 482.225 189.081 486.181 191.21 489.829 191.424 493.361 190.788 497.09 191.882 500.565 190.764 503.752 186.36 507.795 191.381 511.225 189.374 514.61 186.13 518.083 183.472 521.715 183.319 525.295 181.737 529.035 185.255 532.677 186.949 536.223 180.217 539.876 183.592 543.49 184.946 547.085 186.044 550.781 182.874 554.218 188.332 557.957 185.125 561.685 183.193 565.141 186.209 568.924 183.935 572.653 182.87 576.044 185.931 579.155 191.43 583.04 188.67 586.997 185.726 590.312 188.57 593.693 190.591 597.369 190.265 601.171 189.161 604.016 194.506 607.496 195.409 612.578 186.745 616.104 187.752 618.415 195.353 621.525 198.208 626.363 192.207 629.612 194.401 632.711 197.197 636.574 196.401 640.124 197.078 643.481 198.581 646.657 200.785 651.103 197.863 653.14 204.454 656.397 206.153 660.159 205.967 665.493 200.263 668.452 203.115 672.186 203.263 674.91 206.775 677.714 209.91 682.272 207.449 683.852 214.267 690.058 206.986 691.2 214.89 694.126 217.396 699.698 212.439 703.171 213.495 706.214 215.725 708.988 218.621 710.967 223.494 716.609 218.993 720.474 219.11 724.383 219.169 727.448 221.275 729.25 226.283 731.05 231.152 734.854 231.419 740.91 226.838 743.304 230.308 745.423 234.261 747.527 238.124 753.177 234.898 755.592 238.113 760.865 236.097" style="fill: none; stroke: #000; stroke-linecap: round; stroke-linejoin: round; stroke-width: 40px;"/>
</svg>