<?xml version="1.0" encoding="UTF-8"?>
<svg id="Sticker" xmlns="http://www.w3.org/2000/svg" width="1000" height="1000" viewBox="0 0 1000 1000">
  <polygon points="658.207 135.631 650.323 134.876 646.771 138.983 643.174 138.879 639.597 139.375 635.931 137.891 632.428 139.748 628.402 133.475 625.393 141.867 621.633 139.894 618.067 140.373 614.433 140.197 610.362 136.402 606.627 135.898 603.297 138.474 600.532 144.578 596.111 139.502 593.44 145.5 589.186 142.016 585.942 144.325 581.769 141.799 578.619 144.48 574.908 144.422 571.085 143.955 569.195 151.627 565.725 152.439 560.348 145.977 556.459 145.549 553.726 149.306 549.702 148.471 547.377 153.339 544.275 155.482 539.371 152.044 538.528 160.917 532.726 155.098 528.663 154.538 528.3 164.044 522.997 160.162 519.45 161.03 517.154 165.008 512.793 163.895 511.761 170.672 506.454 167.471 504.801 172.581 500.237 171.245 496.265 171.293 493.934 174.768 491.851 178.645 484.859 172.868 485.631 182.181 479.077 177.558 476.121 179.742 475.59 186.196 470.106 183.877 466.108 184.254 463.022 186.202 461.06 189.964 456.93 190.219 453.241 191.228 451.478 195.195 449.201 198.317 447.892 202.798 442.944 202.008 442.185 207.164 438.434 208.119 437.115 212.368 430.603 209.741 427.446 211.605 423.699 212.745 420.771 214.937 420.373 220.186 419.337 224.564 417.893 228.39 411.306 226.313 409.743 230.006 405.146 230.337 402.932 233.302 399.396 234.859 401.999 242.776 395.337 241.128 396.593 247.482 392.91 248.894 388.581 249.735 386.28 252.538 383.013 254.452 384.349 260.525 376.004 257.949 378.105 264.589 375.081 266.744 373.991 270.524 373.719 274.929 366.528 273.762 368.388 279.814 367.027 283.276 365.352 286.477 358.138 285.6 357.002 289.245 356.06 292.997 357.07 298.061 352.498 299.271 350.668 302.365 343.474 301.987 343.033 306.028 343.818 310.785 344.592 315.462 336.655 314.913 340.864 321.554 333.822 321.675 337.378 327.787 334.863 330.488 334.539 334.363 330.952 336.526 329.16 339.639 327.373 342.759 323.253 344.771 319.995 347.246 322.737 352.481 321.336 355.787 319.508 358.908 318.847 362.527 313.427 364.197 312.46 367.717 312.974 371.796 313.455 375.822 312.528 379.301 311.949 382.896 312.038 386.702 303.879 387.786 307.028 392.596 304.943 395.717 305.042 399.504 305.725 403.431 302.75 406.326 296.239 408.338 299.764 412.991 302.037 417.249 296.751 419.701 297.298 423.529 297.523 427.263 294.938 430.416 299.949 435.042 296.566 438.054 297.111 441.783 296.147 445.251 288.81 447.783 294.944 452.311 287.676 454.991 287.235 458.613 290.63 462.649 287.953 466.015 291.383 469.964 289.022 473.387 292.096 477.222 284.874 480.391 293.789 484.481 288.726 487.85 284.85 491.351 293.676 495.171 291.179 498.71 292.133 502.296 285.487 505.937 283.944 509.609 293.456 512.991 287.95 516.772 287.823 520.403 286.055 524.135 293.166 527.3 293.873 530.83 291.562 534.617 289.292 538.451 287.462 542.291 289.957 545.665 296.602 548.466 296.646 552.054 294.337 555.999 289.313 560.431 297.042 562.83 289.493 567.811 290.509 571.342 291.812 574.809 293.739 578.134 298.473 580.816 300.583 584.021 300.772 587.661 299.312 591.728 296.912 596.092 297.819 599.625 298.975 603.088 306.01 604.818 308.634 607.763 301.973 613.608 310.699 614.592 308.608 619.064 311.439 621.889 308.199 626.866 313.037 628.94 311.838 633.246 313.823 636.353 312.687 640.712 315.23 643.592 317.763 646.45 316.983 650.743 323.114 651.959 322.067 656.402 321.471 660.691 324.286 663.364 329.439 664.833 327.211 670.011 326.939 674.255 334.022 674.58 333.559 678.937 338.263 680.429 336.135 685.797 341.524 686.821 337.131 693.67 343.998 693.72 343.801 698.104 343.411 702.67 348.851 703.452 353.156 704.902 353.106 709.289 358.041 710.227 360.704 712.713 356.08 720.529 363.697 719.382 365.615 722.424 367.277 725.673 367.88 729.783 367.303 734.905 374.687 733.521 375.577 737.459 378.515 739.681 383.043 740.481 383.413 744.939 381.735 751.342 386.674 751.718 391.956 751.676 391.991 756.624 394.397 759.318 394.035 764.813 399.57 764.351 402.13 766.896 402.732 771.539 405.713 773.671 407.735 776.858 411.481 778.116 415.539 778.966 416.279 783.68 422.821 781.489 425.344 784.062 425.02 790.225 432.317 786.78 429.476 796.363 437.066 792.327 436.47 799.186 438.628 802.414 441.721 804.36 445.649 805.086 451.944 802.249 451.179 809.888 457.433 806.919 459.731 809.985 460.372 815.779 465.006 815.153 469.179 815.19 472.651 816.356 476.312 817.159 479.125 819.453 478.778 827.629 485.712 822.297 487.389 826.845 488.814 832.039 491.91 834.001 496.08 833.731 501.53 830.609 501.802 838.671 508.309 832.956 511.075 835.557 513.297 839.53 516.942 840.147 520.035 842.118 522.43 845.951 525.729 847.508 531.397 842.507 534.901 843.307 537.194 847.664 539.362 852.621 544.165 849.504 546.682 853.582 551.8 849.039 553.333 856.724 558.157 852.866 561.386 854.705 564.56 856.841 567.819 858.734 571.432 859.185 575.467 857.682 579.135 857.706 581.499 864.204 585.575 862.264 590.089 857.577 593.097 861.184 596.713 861.345 599.674 865.872 603.397 865.457 606.99 865.916 610.795 864.575 614.381 864.936 618.16 863.329 621.449 866.837 625.048 867.201 628.969 862.86 632.427 864.915 636.133 862.592 639.662 863.592 643.027 870.805 646.766 865.884 650.368 865.095 657.461 868.717 654.435 863.944 653.922 860.346 654.77 856.749 652.159 853.151 654.817 849.554 652.277 845.963 654.959 842.371 652.722 838.778 658.229 835.186 657.399 831.592 658.453 827.999 652.277 824.404 652.732 820.81 655.373 817.214 651.572 813.618 651.209 810.021 656.893 806.423 658.071 802.824 657.929 799.226 657.25 795.629 656.595 792.032 651.633 788.436 655.898 784.84 650.272 781.246 656.209 777.651 649.693 774.057 653.405 770.463 655.43 766.87 658.81 763.277 652.29 759.684 652.242 756.091 653.075 752.498 655.118 748.905 656.397 745.313 649.062 741.72 658.889 738.127 655.862 734.533 649.01 730.94 655.275 727.346 652.662 723.752 657.248 720.157 658.739 716.561 653.014 712.965 649.169 709.369 654.218 705.771 656.822 702.173 649.36 698.574 649.569 694.975 651.189 691.377 653.516 687.779 656.021 684.182 656.769 680.586 654.969 676.99 650.797 673.395 656.642 669.8 653.194 666.205 649.513 662.611 657.308 659.016 658.948 655.422 654.39 651.827 657.236 648.233 656.481 644.638 653.886 641.043 656.913 637.447 656.547 633.851 653.792 630.255 648.979 626.657 653.924 623.059 650.31 619.46 654.068 615.861 658.06 612.261 656.947 608.663 654.9 605.065 654.792 601.468 654.576 597.871 657.201 594.275 654.56 590.679 656.339 587.083 650.669 583.487 654.98 579.891 650.733 576.295 655.085 572.699 649.188 569.103 650.477 565.506 651.071 561.908 650.331 558.31 650.85 554.711 654.526 551.11 657.786 547.511 650.957 543.912 653.717 540.313 652.677 536.716 650.054 533.118 652.776 529.521 657.195 525.925 651.047 522.328 650.147 518.731 652.502 515.134 657.722 511.536 657.39 507.938 657.983 504.339 649.275 500.739 658.348 497.138 655.816 493.539 653.779 489.939 649.686 486.341 649.387 482.743 658.606 479.145 653.501 475.548 657.232 471.95 652.335 468.352 653.542 464.754 656.792 461.154 652.144 457.554 654.229 453.953 650.215 450.353 652.067 446.754 652.527 443.155 654.651 439.557 653.729 435.958 658.467 432.36 652.737 428.761 652.554 425.162 649.243 421.561 649.351 417.96 649.953 414.36 655.097 410.76 655.797 407.161 657.028 403.562 654.859 399.964 655.679 396.364 652.847 392.764 653.389 389.163 657.392 385.562 653.366 381.962 657.952 378.362 656.168 374.763 653.487 371.164 650.883 367.563 649.056 363.962 655.474 360.361 653.746 356.761 653.377 353.161 649.795 349.561 650.319 345.961 649.991 342.359 655.121 338.758 651.266 335.158 649.808 331.558 650.614 327.962 656.363 324.367 658.7 320.772 658.681 317.176 650.684 313.579 657.489 309.979 656.479 306.377 651.904 302.777 657.726 299.178 652.706 295.581 649.922 291.984 657.988 288.386 649.13 284.787 650.426 281.185 657.296 277.583 655.726 273.984 652.118 270.385 652.524 266.786 650.468 263.186 654.036 259.583 652.198 255.981 649.685 252.381 657.66 248.781 649.596 245.18 651.066 241.575 655.004 237.974 656.715 234.373 651.958 230.771 649.864 227.167 653.037 223.565 652.347 219.963 650.837 216.359 658.762 212.757 656.492 209.152 655.776 205.549 655.244 201.946 658.77 198.342 657.736 194.737 650.212 191.138 649.173 187.534 656.747 183.934 657.326 180.33 650.616 176.728 653.513 173.122 649.524 169.519 656.726 165.914 651.173 162.307 658.878 158.7 658.089 155.094 657.422 151.488 658.921 147.882 649.043 144.275 657.37 142.342 658.207 135.631" style="fill: #fff;"/>
  <polygon points="658.207 135.631 650.323 134.876 646.771 138.983 643.174 138.879 639.597 139.375 635.931 137.891 632.428 139.748 628.402 133.475 625.393 141.867 621.633 139.894 618.067 140.373 614.433 140.197 610.362 136.402 606.627 135.898 603.297 138.474 600.532 144.578 596.111 139.502 593.44 145.5 589.186 142.016 585.942 144.325 581.769 141.799 578.619 144.48 574.908 144.422 571.085 143.955 569.195 151.627 565.725 152.439 560.348 145.977 556.459 145.549 553.726 149.306 549.702 148.471 547.377 153.339 544.275 155.482 539.371 152.044 538.528 160.917 532.726 155.098 528.663 154.538 528.3 164.044 522.997 160.162 519.45 161.03 517.154 165.008 512.793 163.895 511.761 170.672 506.454 167.471 504.801 172.581 500.237 171.245 496.265 171.293 493.934 174.768 491.851 178.645 484.859 172.868 485.631 182.181 479.077 177.558 476.121 179.742 475.59 186.196 470.106 183.877 466.108 184.254 463.022 186.202 461.06 189.964 456.93 190.219 453.241 191.228 451.478 195.195 449.201 198.317 447.892 202.798 442.944 202.008 442.185 207.164 438.434 208.119 437.115 212.368 430.603 209.741 427.446 211.605 423.699 212.745 420.771 214.937 420.373 220.186 419.337 224.564 417.893 228.39 411.306 226.313 409.743 230.006 405.146 230.337 402.932 233.302 399.396 234.859 401.999 242.776 395.337 241.128 396.593 247.482 392.91 248.894 388.581 249.735 386.28 252.538 383.013 254.452 384.349 260.525 376.004 257.949 378.105 264.589 375.081 266.744 373.991 270.524 373.719 274.929 366.528 273.762 368.388 279.814 367.027 283.276 365.352 286.477 358.138 285.6 357.002 289.245 356.06 292.997 357.07 298.061 352.498 299.271 350.668 302.365 343.474 301.987 343.033 306.028 343.818 310.785 344.592 315.462 336.655 314.913 340.864 321.554 333.822 321.675 337.378 327.787 334.863 330.488 334.539 334.363 330.952 336.526 329.16 339.639 327.373 342.759 323.253 344.771 319.995 347.246 322.737 352.481 321.336 355.787 319.508 358.908 318.847 362.527 313.427 364.197 312.46 367.717 312.974 371.796 313.455 375.822 312.528 379.301 311.949 382.896 312.038 386.702 303.879 387.786 307.028 392.596 304.943 395.717 305.042 399.504 305.725 403.431 302.75 406.326 296.239 408.338 299.764 412.991 302.037 417.249 296.751 419.701 297.298 423.529 297.523 427.263 294.938 430.416 299.949 435.042 296.566 438.054 297.111 441.783 296.147 445.251 288.81 447.783 294.944 452.311 287.676 454.991 287.235 458.613 290.63 462.649 287.953 466.015 291.383 469.964 289.022 473.387 292.096 477.222 284.874 480.391 293.789 484.481 288.726 487.85 284.85 491.351 293.676 495.171 291.179 498.71 292.133 502.296 285.487 505.937 283.944 509.609 293.456 512.991 287.95 516.772 287.823 520.403 286.055 524.135 293.166 527.3 293.873 530.83 291.562 534.617 289.292 538.451 287.462 542.291 289.957 545.665 296.602 548.466 296.646 552.054 294.337 555.999 289.313 560.431 297.042 562.83 289.493 567.811 290.509 571.342 291.812 574.809 293.739 578.134 298.473 580.816 300.583 584.021 300.772 587.661 299.312 591.728 296.912 596.092 297.819 599.625 298.975 603.088 306.01 604.818 308.634 607.763 301.973 613.608 310.699 614.592 308.608 619.064 311.439 621.889 308.199 626.866 313.037 628.94 311.838 633.246 313.823 636.353 312.687 640.712 315.23 643.592 317.763 646.45 316.983 650.743 323.114 651.959 322.067 656.402 321.471 660.691 324.286 663.364 329.439 664.833 327.211 670.011 326.939 674.255 334.022 674.58 333.559 678.937 338.263 680.429 336.135 685.797 341.524 686.821 337.131 693.67 343.998 693.72 343.801 698.104 343.411 702.67 348.851 703.452 353.156 704.902 353.106 709.289 358.041 710.227 360.704 712.713 356.08 720.529 363.697 719.382 365.615 722.424 367.277 725.673 367.88 729.783 367.303 734.905 374.687 733.521 375.577 737.459 378.515 739.681 383.043 740.481 383.413 744.939 381.735 751.342 386.674 751.718 391.956 751.676 391.991 756.624 394.397 759.318 394.035 764.813 399.57 764.351 402.13 766.896 402.732 771.539 405.713 773.671 407.735 776.858 411.481 778.116 415.539 778.966 416.279 783.68 422.821 781.489 425.344 784.062 425.02 790.225 432.317 786.78 429.476 796.363 437.066 792.327 436.47 799.186 438.628 802.414 441.721 804.36 445.649 805.086 451.944 802.249 451.179 809.888 457.433 806.919 459.731 809.985 460.372 815.779 465.006 815.153 469.179 815.19 472.651 816.356 476.312 817.159 479.125 819.453 478.778 827.629 485.712 822.297 487.389 826.845 488.814 832.039 491.91 834.001 496.08 833.731 501.53 830.609 501.802 838.671 508.309 832.956 511.075 835.557 513.297 839.53 516.942 840.147 520.035 842.118 522.43 845.951 525.729 847.508 531.397 842.507 534.901 843.307 537.194 847.664 539.362 852.621 544.165 849.504 546.682 853.582 551.8 849.039 553.333 856.724 558.157 852.866 561.386 854.705 564.56 856.841 567.819 858.734 571.432 859.185 575.467 857.682 579.135 857.706 581.499 864.204 585.575 862.264 590.089 857.577 593.097 861.184 596.713 861.345 599.674 865.872 603.397 865.457 606.99 865.916 610.795 864.575 614.381 864.936 618.16 863.329 621.449 866.837 625.048 867.201 628.969 862.86 632.427 864.915 636.133 862.592 639.662 863.592 643.027 870.805 646.766 865.884 650.368 865.095 657.461 868.717 654.435 863.944 653.922 860.346 654.77 856.749 652.159 853.151 654.817 849.554 652.277 845.963 654.959 842.371 652.722 838.778 658.229 835.186 657.399 831.592 658.453 827.999 652.277 824.404 652.732 820.81 655.373 817.214 651.572 813.618 651.209 810.021 656.893 806.423 658.071 802.824 657.929 799.226 657.25 795.629 656.595 792.032 651.633 788.436 655.898 784.84 650.272 781.246 656.209 777.651 649.693 774.057 653.405 770.463 655.43 766.87 658.81 763.277 652.29 759.684 652.242 756.091 653.075 752.498 655.118 748.905 656.397 745.313 649.062 741.72 658.889 738.127 655.862 734.533 649.01 730.94 655.275 727.346 652.662 723.752 657.248 720.157 658.739 716.561 653.014 712.965 649.169 709.369 654.218 705.771 656.822 702.173 649.36 698.574 649.569 694.975 651.189 691.377 653.516 687.779 656.021 684.182 656.769 680.586 654.969 676.99 650.797 673.395 656.642 669.8 653.194 666.205 649.513 662.611 657.308 659.016 658.948 655.422 654.39 651.827 657.236 648.233 656.481 644.638 653.886 641.043 656.913 637.447 656.547 633.851 653.792 630.255 648.979 626.657 653.924 623.059 650.31 619.46 654.068 615.861 658.06 612.261 656.947 608.663 654.9 605.065 654.792 601.468 654.576 597.871 657.201 594.275 654.56 590.679 656.339 587.083 650.669 583.487 654.98 579.891 650.733 576.295 655.085 572.699 649.188 569.103 650.477 565.506 651.071 561.908 650.331 558.31 650.85 554.711 654.526 551.11 657.786 547.511 650.957 543.912 653.717 540.313 652.677 536.716 650.054 533.118 652.776 529.521 657.195 525.925 651.047 522.328 650.147 518.731 652.502 515.134 657.722 511.536 657.39 507.938 657.983 504.339 649.275 500.739 658.348 497.138 655.816 493.539 653.779 489.939 649.686 486.341 649.387 482.743 658.606 479.145 653.501 475.548 657.232 471.95 652.335 468.352 653.542 464.754 656.792 461.154 652.144 457.554 654.229 453.953 650.215 450.353 652.067 446.754 652.527 443.155 654.651 439.557 653.729 435.958 658.467 432.36 652.737 428.761 652.554 425.162 649.243 421.561 649.351 417.96 649.953 414.36 655.097 410.76 655.797 407.161 657.028 403.562 654.859 399.964 655.679 396.364 652.847 392.764 653.389 389.163 657.392 385.562 653.366 381.962 657.952 378.362 656.168 374.763 653.487 371.164 650.883 367.563 649.056 363.962 655.474 360.361 653.746 356.761 653.377 353.161 649.795 349.561 650.319 345.961 649.991 342.359 655.121 338.758 651.266 335.158 649.808 331.558 650.614 327.962 656.363 324.367 658.7 320.772 658.681 317.176 650.684 313.579 657.489 309.979 656.479 306.377 651.904 302.777 657.726 299.178 652.706 295.581 649.922 291.984 657.988 288.386 649.13 284.787 650.426 281.185 657.296 277.583 655.726 273.984 652.118 270.385 652.524 266.786 650.468 263.186 654.036 259.583 652.198 255.981 649.685 252.381 657.66 248.781 649.596 245.18 651.066 241.575 655.004 237.974 656.715 234.373 651.958 230.771 649.864 227.167 653.037 223.565 652.347 219.963 650.837 216.359 658.762 212.757 656.492 209.152 655.776 205.549 655.244 201.946 658.77 198.342 657.736 194.737 650.212 191.138 649.173 187.534 656.747 183.934 657.326 180.33 650.616 176.728 653.513 173.122 649.524 169.519 656.726 165.914 651.173 162.307 658.878 158.7 658.089 155.094 657.422 151.488 658.921 147.882 649.043 144.275 657.37 142.342 658.207 135.631" style="fill: none; stroke: #000; stroke-linecap: round; stroke-linejoin: round; stroke-width: 35px;"/>
</svg>