<?xml version="1.0" encoding="UTF-8"?>
<svg id="Sticker" xmlns="http://www.w3.org/2000/svg" width="1000" height="1000" viewBox="0 0 1000 1000">
  <g>
    <path d="M674.367,358.411l1.384,1.257-2.071,3.621,6.674,3.622-4.275,3.623-3.744,3.622,6.446,3.621,2.611,3.621-8.101,3.621,4.988,3.622-6.126,3.623,1.644,3.622,5.363,3.622-1.932,3.621-4.678,3.622,2.108,3.616,2.397,3.616,1.741,3.617,1.704,3.619-3.473,3.621-.691,3.624,3.33,3.622-3.547,3.62-4.073,3.619,4.899,3.618,1.454,3.619.909,3.62-.616,3.623-6.548,3.623,5.843,3.621-2.88,3.62,2.548,3.62-2.951,3.621.515,3.624-3.17,3.623,8.915,3.621-4.097,3.621,4.071,3.623-4.624,3.625-2.428,3.623,5.51,3.622.834,3.624-.74,3.625,1.18,3.623-.664,3.624-3.388,3.625-3.853,3.624,7.944,3.625-4.194,3.624,2.811,3.625-3.97,3.625,1.314,3.626-1.664,3.625,2.662,3.625,2.322,3.621,1.171,3.625-2.832,3.623,3.307,3.626-8.389,3.624.249,3.626,1.742,3.628-2.511,3.628.849,3.628-.461,3.627,2.377,3.627-1.388,3.628.701,3.634,6.431,3.634-.049,3.696-7.208,3.41,3.641,3.78-.918,3.568,2.266,3.865-7.939,2.731,6.292,4.448,1.955,4.023-3.145,3.189-7.853,2.115,3.739,4.444,4.079,4.724-3.567,2.87-2.178,3.162-4.956,2.233,5.731,5.674-1.422,3.405-7.654.998-2.381,2.852,6.584,6.682-2.542,2.9-1.519,3.344-6.163.988-.111,3.986-4.978,1.341,5.631,7.401-9.851-1.716,1.26,4.989.338,4.553-2.097,2.981-5.841.233-.677,3.953-4.406,1.073-1.067,3.705.519,5.164-6.324-.812-.759,4.134-1.427,3.608-1.084,4.045-6.556-1.645,1.491,6.919-3.692,1.322-4.493.27-2.003,3.215-4.031.65-2.977,1.953.891,7.441-3.762,1.01-4.555-.317-2.771,2.37-4.453-.446.385,7.963-6.361-4.051-3.03,1.914-.713,6.747-5.718-3.627-4.129-.541-.163,8.933-6.096-5.544-1.709,5.703-5.397-4.582-2.854,2.645-1.849,6.316-3.143,2.411-4.67-3.468-2.96,3.225-4.413-3.332-2.715,4.934-3.242,2.821-4.574-5.869-3.613-.161-3.666-.93-3.478.747-3.522.362-3.549-.188-3.372,8.054-3.692-1.891-3.649-.242-3.727,1.857-3.324-6.161-3.802,2.755-3.023-6.177-4.436,7.395-3.487-1.536-4.082,2.364-3.006-4.144-3.108-2.93-3.961,1.237-2.544-4.806-3.207-1.723-3.784.367-5.205,4.675-3.517-1.087-1.577-6.466-4.916,2.845-1.679-5.558-3.893.024-4.111.347-3.064-2.014-4.357.575-2.834-2.493-2.117-3.701-3.981-.353-4.054-.366-.05-6.72-1.373-4.344-6.189,2.705-3.236-1.715-.561-5.243-6.856,2.887.437-6.289-6.095,1.559-1.569-3.763-.704-4.579-2.04-3.051-2.793-2.27-1.366-3.635-5.801.453,2.649-7.123-4.538-.789-1.326-3.508-.647-3.969-2.526-2.495-5.808-.215-5.699-.515,3.941-6.937-5.415-.841.157-4.312-2.52-2.704-1.868-3.092-4.293-1.869.91-4.515.127-4.031,1.064-4.357-2.114-2.938-4.465-2.07-1.71-3.216-4.084-2.435.3-3.952.974-4.086-.715-3.54-2.189-3.162,2.397-4.262,1.407-3.921-3.311-2.96-6.926-2.482.426-3.796-1.828-3.482-.024-3.721,5.055-4.117-3.866-3.361,1.16-3.709-3.647-3.562,4.673-3.705-2.287-3.621-1.445-3.621,1.21-3.622,4.635-3.623-5.603-3.622,4.355-3.621,2.401-3.621-.728-3.621-3.146-3.622-.348-3.623-3.494-3.622,1.285-3.622,2.698-3.621,2.952-3.622-.237-3.616-5.1-3.616.487-3.617,7.139-3.619-5.068-3.621.543-3.624,2.314-3.622-1.478-3.62-4.982-3.619,7.36-3.618-3.538-3.619,4.405-3.62-4.814-3.623-.115-3.623,1.395-3.621-4.593-3.62,4.133-3.62-4.906-3.621,2.326-3.624-1.186-3.623,6.167-3.621-3.894-3.621,1.611-3.623-.816-3.625,5.229-3.623-1.239-3.622-5.777-3.624,2.478-3.625,2.13-3.623-2.644-3.624-.444-3.625-.054-3.624-3.766-3.625,5.758-3.624.801-3.625-1.959-3.625,2.845-3.626.167-3.625-6.842-3.625.585-3.621,7.546-3.625-.24-3.623-7.88-3.626-.537-3.624,8.748-3.626-8.514-3.628,3.088-3.628.071-3.628-.319-3.627,5.246-3.627-6.441-3.628-2.205-3.634,2.149-6.18,6.171,4.641,3.604-.844,3.604,1.736,3.603-4.064,3.604-2.967,3.604,4.718,3.604,1.968,3.605-2.852,3.606-3.292,3.607,1.729,3.606,6.551,3.605.041,3.605-5.195,3.604,3.327,3.604-5.434,3.604.271,3.605,4.861,3.605-1.87,3.606,1.412,3.607-1.183,3.606,2.647,3.605-5.847,3.605,2.616,3.605-4.855,3.605,9.09,3.605-5.955,3.606,2.418,3.607-.166,3.607,3.573,3.606-7.093,3.605,3.361,3.605-2.103,3.605,3.886,3.606-.066,3.607-6.847,3.607,4.063,3.606-.941,3.606,5.145,3.606-4.954,3.606,1.257,3.607,1.344,3.607,2.43,3.606-2.029,3.606-6.465,3.601,3.576,3.601.182,3.601,2.7,3.602-5.279,3.603,8.191,3.605-9.248,3.608.269,3.606,3.998,3.604,4.118,3.603-.01,3.603-1.087,3.603-.298,3.605-2.179,3.607-1.894,3.608,5.776,3.606-7.429,3.605,4.733,3.605,3.113,3.606-.378,3.609-.31,3.608-2.676,3.606-1.905,3.606.829,3.607.401,3.61-3.94,3.607,3.563,3.607-5.113,3.608,5.405,3.609-.485,3.608-3.878,3.608,5.662,3.61.321,3.608-.146,3.61-5.264,3.609,4.679,3.61-5.046,3.609-.029,3.61,5.802,3.606,2.674,3.61-.496,3.606-1.483,3.61-1.686,3.608-.346,3.611-1.01,3.609-.942,3.611.358,3.613-.275,3.613-2.88,3.613-.364,3.612,8.17,3.612-3.06,3.613.865,3.301-1.111,1.571,1.709ZM503.343,586.687l-2.362-3.603,2.071-3.603-6.674-3.602,4.275-3.602,3.744-3.602-6.446-3.602-2.611-3.603,8.101-3.603-4.988-3.602,6.126-3.602-1.644-3.597-5.363-3.597,1.932-3.597,4.678-3.598-2.108-3.599-2.397-3.601-1.741-3.604-1.704-3.602,3.473-3.6.691-3.599-3.33-3.599,3.547-3.6,4.073-3.601-4.899-3.604-1.454-3.604-.909-3.602.616-3.601,6.548-3.601-5.843-3.602,2.88-3.605-2.548-3.604,2.951-3.602-.515-3.602,3.17-3.603-8.915-3.606,4.097-3.603-4.071-3.603,4.624-3.604,2.428-3.605-5.51-3.604-.834-3.604.74-3.606-1.18-3.604.664-3.606,3.388-3.605,3.853-3.606-7.944-3.606,4.194-3.607-2.811-3.602,3.97-3.606-1.314-3.602,1.664-3.606-2.662-3.604-2.322-3.607-1.171-3.605,2.832-3.607-3.307-3.609,8.389-3.609-.249-3.609-1.742-3.608,2.511-3.608-.849-3.609.461-3.615-2.377-3.615" style="fill: #fff;"/>
    <path d="M674.367,358.411l1.384,1.257-2.071,3.621,6.674,3.622-4.275,3.623-3.744,3.622,6.446,3.621,2.611,3.621-8.101,3.621,4.988,3.622-6.126,3.623,1.644,3.622,5.363,3.622-1.932,3.621-4.678,3.622,2.108,3.616,2.397,3.616,1.741,3.617,1.704,3.619-3.473,3.621-.691,3.624,3.33,3.622-3.547,3.62-4.073,3.619,4.899,3.618,1.454,3.619.909,3.62-.616,3.623-6.548,3.623,5.843,3.621-2.88,3.62,2.548,3.62-2.951,3.621.515,3.624-3.17,3.623,8.915,3.621-4.097,3.621,4.071,3.623-4.624,3.625-2.428,3.623,5.51,3.622.834,3.624-.74,3.625,1.18,3.623-.664,3.624-3.388,3.625-3.853,3.624,7.944,3.625-4.194,3.624,2.811,3.625-3.97,3.625,1.314,3.626-1.664,3.625,2.662,3.625,2.322,3.621,1.171,3.625-2.832,3.623,3.307,3.626-8.389,3.624.249,3.626,1.742,3.628-2.511,3.628.849,3.628-.461,3.627,2.377,3.627-1.388,3.628.701,3.634,6.431,3.634-.049,3.696-7.208,3.41,3.641,3.78-.918,3.568,2.266,3.865-7.939,2.731,6.292,4.448,1.955,4.023-3.145,3.189-7.853,2.115,3.739,4.444,4.079,4.724-3.567,2.87-2.178,3.162-4.956,2.233,5.731,5.674-1.422,3.405-7.654.998-2.381,2.852,6.584,6.682-2.542,2.9-1.519,3.344-6.163.988-.111,3.986-4.978,1.341,5.631,7.401-9.851-1.716,1.26,4.989.338,4.553-2.097,2.981-5.841.233-.677,3.953-4.406,1.073-1.067,3.705.519,5.164-6.324-.812-.759,4.134-1.427,3.608-1.084,4.045-6.556-1.645,1.491,6.919-3.692,1.322-4.493.27-2.003,3.215-4.031.65-2.977,1.953.891,7.441-3.762,1.01-4.555-.317-2.771,2.37-4.453-.446.385,7.963-6.361-4.051-3.03,1.914-.713,6.747-5.718-3.627-4.129-.541-.163,8.933-6.096-5.544-1.709,5.703-5.397-4.582-2.854,2.645-1.849,6.316-3.143,2.411-4.67-3.468-2.96,3.225-4.413-3.332-2.715,4.934-3.242,2.821-4.574-5.869-3.613-.161-3.666-.93-3.478.747-3.522.362-3.549-.188-3.372,8.054-3.692-1.891-3.649-.242-3.727,1.857-3.324-6.161-3.802,2.755-3.023-6.177-4.436,7.395-3.487-1.536-4.082,2.364-3.006-4.144-3.108-2.93-3.961,1.237-2.544-4.806-3.207-1.723-3.784.367-5.205,4.675-3.517-1.087-1.577-6.466-4.916,2.845-1.679-5.558-3.893.024-4.111.347-3.064-2.014-4.357.575-2.834-2.493-2.117-3.701-3.981-.353-4.054-.366-.05-6.72-1.373-4.344-6.189,2.705-3.236-1.715-.561-5.243-6.856,2.887.437-6.289-6.095,1.559-1.569-3.763-.704-4.579-2.04-3.051-2.793-2.27-1.366-3.635-5.801.453,2.649-7.123-4.538-.789-1.326-3.508-.647-3.969-2.526-2.495-5.808-.215-5.699-.515,3.941-6.937-5.415-.841.157-4.312-2.52-2.704-1.868-3.092-4.293-1.869.91-4.515.127-4.031,1.064-4.357-2.114-2.938-4.465-2.07-1.71-3.216-4.084-2.435.3-3.952.974-4.086-.715-3.54-2.189-3.162,2.397-4.262,1.407-3.921-3.311-2.96-6.926-2.482.426-3.796-1.828-3.482-.024-3.721,5.055-4.117-3.866-3.361,1.16-3.709-3.647-3.562,4.673-3.705-2.287-3.621-1.445-3.621,1.21-3.622,4.635-3.623-5.603-3.622,4.355-3.621,2.401-3.621-.728-3.621-3.146-3.622-.348-3.623-3.494-3.622,1.285-3.622,2.698-3.621,2.952-3.622-.237-3.616-5.1-3.616.487-3.617,7.139-3.619-5.068-3.621.543-3.624,2.314-3.622-1.478-3.62-4.982-3.619,7.36-3.618-3.538-3.619,4.405-3.62-4.814-3.623-.115-3.623,1.395-3.621-4.593-3.62,4.133-3.62-4.906-3.621,2.326-3.624-1.186-3.623,6.167-3.621-3.894-3.621,1.611-3.623-.816-3.625,5.229-3.623-1.239-3.622-5.777-3.624,2.478-3.625,2.13-3.623-2.644-3.624-.444-3.625-.054-3.624-3.766-3.625,5.758-3.624.801-3.625-1.959-3.625,2.845-3.626.167-3.625-6.842-3.625.585-3.621,7.546-3.625-.24-3.623-7.88-3.626-.537-3.624,8.748-3.626-8.514-3.628,3.088-3.628.071-3.628-.319-3.627,5.246-3.627-6.441-3.628-2.205-3.634,2.149-6.18,6.171,4.641,3.604-.844,3.604,1.736,3.603-4.064,3.604-2.967,3.604,4.718,3.604,1.968,3.605-2.852,3.606-3.292,3.607,1.729,3.606,6.551,3.605.041,3.605-5.195,3.604,3.327,3.604-5.434,3.604.271,3.605,4.861,3.605-1.87,3.606,1.412,3.607-1.183,3.606,2.647,3.605-5.847,3.605,2.616,3.605-4.855,3.605,9.09,3.605-5.955,3.606,2.418,3.607-.166,3.607,3.573,3.606-7.093,3.605,3.361,3.605-2.103,3.605,3.886,3.606-.066,3.607-6.847,3.607,4.063,3.606-.941,3.606,5.145,3.606-4.954,3.606,1.257,3.607,1.344,3.607,2.43,3.606-2.029,3.606-6.465,3.601,3.576,3.601.182,3.601,2.7,3.602-5.279,3.603,8.191,3.605-9.248,3.608.269,3.606,3.998,3.604,4.118,3.603-.01,3.603-1.087,3.603-.298,3.605-2.179,3.607-1.894,3.608,5.776,3.606-7.429,3.605,4.733,3.605,3.113,3.606-.378,3.609-.31,3.608-2.676,3.606-1.905,3.606.829,3.607.401,3.61-3.94,3.607,3.563,3.607-5.113,3.608,5.405,3.609-.485,3.608-3.878,3.608,5.662,3.61.321,3.608-.146,3.61-5.264,3.609,4.679,3.61-5.046,3.609-.029,3.61,5.802,3.606,2.674,3.61-.496,3.606-1.483,3.61-1.686,3.608-.346,3.611-1.01,3.609-.942,3.611.358,3.613-.275,3.613-2.88,3.613-.364,3.612,8.17,3.612-3.06,3.613.865,3.301-1.111,1.571,1.709ZM503.343,586.687l-2.362-3.603,2.071-3.603-6.674-3.602,4.275-3.602,3.744-3.602-6.446-3.602-2.611-3.603,8.101-3.603-4.988-3.602,6.126-3.602-1.644-3.597-5.363-3.597,1.932-3.597,4.678-3.598-2.108-3.599-2.397-3.601-1.741-3.604-1.704-3.602,3.473-3.6.691-3.599-3.33-3.599,3.547-3.6,4.073-3.601-4.899-3.604-1.454-3.604-.909-3.602.616-3.601,6.548-3.601-5.843-3.602,2.88-3.605-2.548-3.604,2.951-3.602-.515-3.602,3.17-3.603-8.915-3.606,4.097-3.603-4.071-3.603,4.624-3.604,2.428-3.605-5.51-3.604-.834-3.604.74-3.606-1.18-3.604.664-3.606,3.388-3.605,3.853-3.606-7.944-3.606,4.194-3.607-2.811-3.602,3.97-3.606-1.314-3.602,1.664-3.606-2.662-3.604-2.322-3.607-1.171-3.605,2.832-3.607-3.307-3.609,8.389-3.609-.249-3.609-1.742-3.608,2.511-3.608-.849-3.609.461-3.615-2.377-3.615" style="fill: none; stroke: #000; stroke-linecap: round; stroke-linejoin: round; stroke-width: 35px;"/>
  </g>
  <path d="M175.419,357.715l3.59-4.138,3.59.092,3.589-2.253,3.589-2.595,3.589,2.263,3.589,1.974,3.589-3.523,3.589,3.126,3.589.362,3.59-2.579,3.59,1.288,3.59,3.615,3.591-4.143,3.591,2.608,3.592,1.092,3.592-4.431,3.593.172,3.594,2.62,3.595,4.25,3.596-5.832,3.595-3.644,3.595,2.419,3.594.918,3.593-3.418,3.593,8.198,3.592-3.056,3.592,1.726,3.591-4.769,3.591,3.778,3.591-3.399,3.591,4.035,3.591-2.927,3.591,4.736,3.591-5.595,3.591,7.015,3.592-4.854,3.592,2.485,3.592.996,3.593-3.189,3.594-1.364,3.594,2.627,3.595-6.193,3.596,3.031,3.596-2.295,3.595,8.833,3.594-3.375,3.594-2.191,3.593-.664,3.593-2.59,3.592,5.776,3.592-1.292,3.592.44,3.592,3.834,3.592-.777,3.592-3.312,3.593-5.512,3.593,2.48,3.594,4.787,3.595.41,3.596-2.103,3.597.808,3.596-6.232,3.595,8.113,3.595-7.559,3.594-.753,3.594,6.202,3.593-1.673,3.593-.078,3.593-1.959,3.593,4.011,3.594.657,3.594-4.643,3.595,2.289,3.595-1.704,3.596-2.104,3.597,4.936,3.596-3.557,3.595,7.011,3.595-9.284,3.594,4.99,3.594-.492,3.594-.709,3.594-3.806,3.594,8.225,3.595-7.802,3.596,2.662,3.596,1.406,3.597,3.473,3.596-2.711,3.596-.611,3.595,3.353,3.595-4.787,3.595,4.43,3.595-1.774,3.595-3.528,3.596-.904,3.597.655,3.598-2.204,3.597,8.962,3.596-.251,3.595-2.151,3.595-2.134,3.595-.803,3.596-2.913,3.597,8.42,3.598-5.239,3.597,3.472,3.596-2.613,3.596.416,3.596-2.826,3.596,6.308,3.597-4.608,3.598,3.352,3.597-1.394,3.597-5.392,3.596,3.663,3.596-4.009,3.597,2.706,3.598-3.124,3.598,5.461,3.597-2.677,3.596-2.25,3.592,8.771,3.591-2.618,3.592,1.999,3.592-3.492,3.594-3.769,3.596,8.024,3.599-8.532,3.597,7.752,3.595-2.558,3.594-1.102,3.593,2.075,3.594-4.346,3.596,4.863,3.598-6.125,3.598,1.343,3.596,3.332,3.595-1.404,3.595,3.389,3.597-6.27,3.599,6.773,3.598-7.672,3.597-.346,3.596,7.076,3.598-4.592,3.601,3.1,3.598-.851,3.597,1.003,3.599-4.424,3.6,6.157,3.598-1.375,3.599-1.472,3.6,3.124,3.599-3.876,3.6.862,3.599,2.116,3.6,1.4,3.6-4.24,3.601-3.54,3.596,5.448,3.6.885,3.596-6.455,3.6,7.883,3.598-7.867,3.602,6.725,3.6,1.335,3.601-7.979,3.603,2.629,3.603.385,3.603,3.357,3.602-2.478,3.603.615,3.603,1.714,3.609-2.229,3.609,3.137M138.663,457.544l.019-5.661,2.59-2.534.725-4.168.277-4.353,3.95-1.342,3.715-1.683-.845-4.928,4.562-1.234,2.206-2.859-.427-4.377,2.836-2.487,4.867-1.555-2.167-5.045,3.847-2.199,2.409-2.93-2.835-4.947,1.351-3.269,3.603-2.575,5.121-2.285-4.674-5.04-2.706-4.281,3.107-2.908,1.566-3.31-2.801-4.022,8.612-2.408-2.624-3.96,2.042-3.451-4.524-3.887,3.924-3.41-3.332-3.638,4.018-3.602-3.024-3.513,4.552-3.843-5.837-3.197,6.65-4.251-5.235-3.068,1.979-3.915.424-3.759-3.767-3.022-2.026-3.256,1.814-4.067-6.841-2.059,2.071-4.172-3.144-2.819,7.48-5.919-4.299-2.491-3.199-2.745-1.791-3.17-3.643-2.466,4.138-5.39-2.527-2.885-.963-3.501,2.097-4.847-2.191-3.023-4.523-1.911-6.51-.858.662-4.281,2.648-5.371-1.313-3.407-3.561-2.194-1.032-3.551-7.187-.052,5.22-7.174-8.334.766-2.488-2.649,3.378-6.316M851.194,232.989l1.616,5.245-1.936,3.018.121,4.221.479,4.367-3.706,1.982-3.44,2.185,1.447,4.793-4.405,1.731-1.919,3.04.777,4.329-2.668,2.678-4.767,1.792,2.382,4.933-3.778,2.301-2.345,2.943,2.873,4.916-1.366,3.272-3.636,2.519-5.161,2.129,4.519,5.158,2.529,4.394-3.246,2.766-1.744,3.216,2.548,4.189-8.751,1.816,2.337,4.114-2.295,3.266,4.204,4.217-4.188,3.064,3.018,3.887-4.306,3.232,2.716,3.741-4.858,3.433,5.553,3.654-6.97,3.692,4.982,3.457-2.262,3.751-.682,3.723,3.567,3.253,1.832,3.352-2.021,3.957,6.739,2.332-2.228,4.055,3.055,2.866-7.592,5.766,4.28,2.544,3.196,2.729,1.815,3.121,3.677,2.339-3.972,5.492,2.649,2.766,1.153,3.434-1.756,4.994,2.444,2.871,4.686,1.494,6.54.128-.185,4.275-1.927,5.657,1.804,3.191,3.871,1.604,1.636,3.315,7.033-1.353-3.649,8.072,7.929-2.636,2.971,1.874-1.618,6.939,3.903,1.185" style="fill: none; stroke: #000; stroke-linecap: round; stroke-linejoin: round; stroke-width: 35px;"/>
</svg>