<?xml version="1.0" encoding="UTF-8"?>
<svg id="Sticker" xmlns="http://www.w3.org/2000/svg" width="1000" height="1000" viewBox="0 0 1000 1000">
  <polygon points="846.796 846.78 839.943 840.532 836.349 843.793 832.754 845.875 829.159 843.435 825.563 839.117 821.965 841.335 818.369 844.899 814.773 847.026 811.178 839.091 807.583 843.305 803.989 842.103 800.396 843.403 796.803 845.773 793.21 838.542 789.618 840.95 786.026 845.56 782.434 844.625 778.843 842.261 775.251 846.238 771.66 846.952 768.069 838.656 764.477 839.377 760.886 846.584 757.294 844.397 753.703 840.137 750.11 848.327 746.518 840.134 742.925 842.267 739.332 840.689 735.738 848.193 732.143 840.059 728.548 843.243 724.952 838.825 721.355 846.932 717.758 841.393 714.16 845.976 710.564 838.986 706.968 843.536 703.372 845.791 699.777 844.95 696.183 841.148 692.589 841.934 688.996 845.748 685.402 842.867 681.809 845.056 678.216 839.432 674.624 844.863 671.031 840.864 667.437 848.148 663.844 847.535 660.25 845.694 656.656 846.873 653.062 841.241 649.467 847.925 645.871 841.78 642.274 847.436 638.677 841.019 635.078 841.444 631.48 845.377 627.883 843.295 624.287 843.416 620.691 842.867 617.096 847.484 613.501 844.061 609.907 846.928 606.312 839.292 602.718 841.718 599.124 842.278 595.53 839.933 591.935 844.957 588.34 838.6 584.744 842.191 581.148 841.084 577.551 840.292 573.954 841.804 570.355 843.539 566.756 846.817 563.159 848.029 559.562 842.956 555.966 845.678 552.37 845.062 548.775 844.16 545.179 846.516 541.584 842.344 537.989 839.206 534.393 846.593 530.797 841.332 527.2 842.381 523.603 841.369 520.004 839.273 516.405 840.41 512.807 846.732 509.209 839.057 505.612 844.624 502.016 845.472 498.419 847.016 494.823 844.267 491.227 842.087 487.631 847.858 484.034 845.995 480.436 839.081 476.837 845.598 473.238 842.343 469.639 845.256 466.041 846.841 462.444 847.797 458.847 845.422 455.25 840.401 451.653 842.942 448.056 843.786 444.458 844.637 440.859 839.084 437.259 844.323 433.66 842.257 430.062 840.491 426.465 842.174 422.867 841.706 419.27 846.788 415.672 847.535 412.073 843.396 408.474 843.659 404.874 845.137 401.276 846.165 397.678 847.719 394.08 846.53 390.482 839.324 386.883 841.713 383.283 843.848 379.684 839.33 376.085 844.343 372.487 842.383 368.888 841.095 365.289 847.612 361.69 848.277 358.09 842.597 354.491 845.963 350.892 845.423 347.298 841.677 343.705 843.312 340.111 838.75 336.517 839.383 332.921 838.974 329.323 845.875 325.722 845.48 322.123 843.952 318.526 839.756 314.93 840.974 311.335 845.489 307.738 841.956 304.141 842.732 300.541 839.251 296.94 839.954 293.342 839.425 289.744 840.169 286.147 845.134 282.548 841.706 278.947 838.817 275.347 845.644 271.748 840.456 268.149 841.611 264.549 839.67 260.947 842.897 257.347 839.427 253.747 841.858 250.146 840.774 246.544 838.619 242.944 841.505 239.343 841.445 235.741 842.898 232.14 846.974 228.537 843.748 224.936 844.192 221.333 846.151 217.731 838.672 214.128 839.201 210.53 844.576 206.927 841.031 203.329 842.404 199.726 842.878 196.126 841.723 192.522 847.233 188.92 841.458 185.316 841.901 181.711 846.846 178.106 839.266 174.501 843.319 170.896 841.371 167.292 844.458 163.686 842.96 160.075 845.069 157.184 842.812 157.33 839.943 158.1 836.349 157.598 832.754 155.314 829.159 157.125 825.563 152.124 821.965 154.934 818.369 152.231 814.773 155.854 811.178 155.605 807.583 153.458 803.989 153.433 800.396 157.352 796.803 152.679 793.21 159.227 789.618 156.289 786.026 158.606 782.434 158.295 778.843 156.244 775.251 157.32 771.66 159.375 768.069 161.123 764.477 157.187 760.886 152.529 757.294 155.831 753.703 157.158 750.11 158.653 746.518 159.505 742.925 157.948 739.332 159.935 735.738 158.102 732.143 154.735 728.548 155.295 724.952 158.304 721.355 154.681 717.758 154.583 714.16 160.948 710.564 157.711 706.968 161.131 703.372 153.344 699.777 158.18 696.183 155.894 692.589 158.953 688.996 156.833 685.402 159.648 681.809 158.971 678.216 154.017 674.624 154.939 671.031 153.732 667.437 158.817 663.844 154.817 660.25 151.579 656.656 157.743 653.062 157.707 649.467 160.545 645.871 155.493 642.274 152.663 638.677 161.124 635.078 161.176 631.48 160.313 627.883 159.123 624.287 154.698 620.691 156.756 617.096 157.356 613.501 159.296 609.907 156.204 606.312 158.074 602.718 159.559 599.124 154.393 595.53 158.552 591.935 155.907 588.34 160.006 584.744 152.462 581.148 154.715 577.551 161.031 573.954 153.49 570.355 156.152 566.756 160.523 563.159 152.179 559.562 154.531 555.966 155.156 552.37 156.268 548.775 154.133 545.179 160.299 541.584 153.009 537.989 153.056 534.393 153.144 530.797 151.879 527.2 152.925 523.603 154.846 520.004 151.863 516.405 152.312 512.807 152.366 509.209 152.099 505.612 160.97 502.016 154.848 498.419 161.027 494.823 157.997 491.227 159.689 487.631 159.857 484.034 151.933 480.436 153.152 476.837 152.383 473.238 153.825 469.639 160.32 466.041 159.752 462.444 153.402 458.847 158.88 455.25 160.005 451.653 161.075 448.056 157.384 444.458 156.282 440.859 151.917 437.259 157.313 433.66 157.198 430.062 152.314 426.465 154.486 422.867 153.641 419.27 156.701 415.672 160.018 412.073 160.58 408.474 151.476 404.874 160.516 401.276 155.196 397.678 160.663 394.08 158.845 390.482 158.005 386.883 160.147 383.283 156.874 379.684 160.82 376.085 153.626 372.487 153.532 368.888 157.723 365.289 155.95 361.69 160.872 358.09 159.848 354.491 158.059 350.892 159.624 347.298 151.961 343.705 156.917 340.111 154.037 336.517 160.301 332.921 160.489 329.323 154.848 325.722 157.743 322.123 159.557 318.526 159.204 314.93 154.898 311.335 161.176 307.738 151.872 304.141 160.12 300.541 151.671 296.94 154.277 293.342 155.104 289.744 159.127 286.147 157.098 282.548 156.685 278.947 157.579 275.347 152.314 271.748 159.629 268.149 157.909 264.549 152.746 260.947 156.172 257.347 157.077 253.747 155.61 250.146 157.326 246.544 158.868 242.944 156.559 239.343 156.674 235.741 153.889 232.14 154.791 228.537 159.951 224.936 160.766 221.333 153.814 217.731 159.536 214.128 158.323 210.53 161.051 206.927 151.544 203.329 157.532 199.726 153.761 196.126 151.768 192.522 156.097 188.92 159.491 185.316 152.044 181.711 157.355 178.106 160.757 174.501 151.87 170.896 154.588 167.292 152.796 163.686 156.884 160.075 155.805 155.808 160.057 153.104 163.651 159.89 167.246 152.788 170.841 155.799 174.437 155.42 178.035 159.125 181.631 153.594 185.227 161.059 188.822 155.878 192.417 151.845 196.011 153.044 199.604 152.165 203.197 158.772 206.79 152.395 210.382 153.164 213.974 159.76 217.566 158.236 221.157 154.942 224.749 152.752 228.34 151.75 231.931 153.05 235.523 154.637 239.114 160.599 242.706 158.094 246.297 159.776 249.89 157.837 253.482 154.397 257.075 155.113 260.668 152.671 264.262 161.042 267.857 161.277 271.452 156.491 275.048 153.823 278.645 153.264 282.242 160.894 285.84 153.171 289.436 151.927 293.032 151.49 296.628 157.01 300.223 159.316 303.817 153.167 307.411 153.941 311.004 158.521 314.598 156.539 318.191 152.605 321.784 160.818 325.376 155.84 328.969 153.579 332.563 159.557 336.156 157.208 339.75 153.601 343.344 153.613 346.938 155.352 350.533 157.849 354.129 155.6 357.726 156.395 361.323 156.944 364.922 158.436 368.52 152.928 372.117 157.406 375.713 154.795 379.309 153.16 382.904 161.217 386.499 161.198 390.093 158.472 393.688 153.167 397.282 157.949 400.876 161.136 404.47 158.404 408.065 155.611 411.66 155.763 415.256 152.7 418.852 157.219 422.449 158.018 426.046 152.691 429.645 152.56 433.244 159.114 436.841 157.613 440.438 155.267 444.034 160.6 447.63 160.691 451.225 160.327 454.821 155.444 458.416 157.063 462.011 151.689 465.607 159.154 469.203 157.262 472.8 152.048 476.397 159.065 479.996 156.552 483.595 154.189 487.193 159.489 490.791 152.84 494.388 160.574 497.984 153.096 501.581 152.856 505.177 157.177 508.773 159.419 512.369 155.778 515.966 154.73 519.564 155.092 523.163 154.085 526.762 153.982 530.361 157.457 533.959 160.27 537.556 153.82 541.153 158.862 544.75 157.063 548.347 154.4 551.944 154.047 555.542 160.807 559.141 157.617 562.741 153.482 566.34 151.464 569.938 160.575 573.535 158.233 577.133 151.522 580.73 155.992 584.328 157.68 587.927 159.894 591.526 155.089 595.126 154.272 598.724 156.957 602.322 154.291 605.92 157.127 609.518 154.393 613.117 159.246 616.717 151.853 620.316 153.498 623.915 156.529 627.513 157.142 631.112 161.179 634.711 160.669 638.31 159.193 641.91 151.733 645.509 157.024 649.108 157.99 652.702 155.778 656.295 161.281 659.889 159.067 663.483 153.002 667.079 161.076 670.677 157.76 674.278 158.613 677.877 153.209 681.474 152.472 685.07 152.222 688.665 155.438 692.262 152.748 695.859 155.488 699.459 154.89 703.06 151.962 706.658 157.407 710.256 158.372 713.853 160.946 717.452 156.924 721.053 156.413 724.653 155.416 728.252 157.937 731.851 155.765 735.451 154.436 739.053 153.695 742.653 155.74 746.253 159.893 749.854 152.253 753.456 152.907 757.056 155.02 760.657 152.022 764.259 159.489 767.86 153.01 771.463 155.128 775.064 159.781 778.667 157.896 782.269 159.341 785.872 157.365 789.47 154.756 793.073 158.592 796.671 159.892 800.274 154.554 803.874 159.185 807.478 151.704 811.08 154.458 814.684 152.863 818.289 157.468 821.894 151.848 825.499 160.314 829.104 156.808 832.708 154.692 836.314 157.893 839.925 154.13 845.715 154.274 840.645 160.057 839.572 163.651 845.199 167.246 843.793 170.841 847.529 174.437 844.602 178.035 843.117 181.631 844.218 185.227 839.737 188.822 842.687 192.417 840.676 196.011 843.474 199.604 847.399 203.197 839.505 206.79 840.829 210.382 843.204 213.974 845.596 217.566 848.214 221.157 845.048 224.749 847.325 228.34 847.834 231.931 846.839 235.523 840.598 239.114 848.49 242.706 847.183 246.297 842.323 249.89 843.753 253.482 843.868 257.075 842.914 260.668 842.802 264.262 839.293 267.857 844.296 271.452 845.427 275.048 844.652 278.645 841.582 282.242 845.882 285.84 847.3 289.436 845.904 293.032 847.533 296.628 848.101 300.223 843.258 303.817 842.554 307.411 846.789 311.004 847.467 314.598 846.889 318.191 839.35 321.784 839.415 325.376 840.833 328.969 846.898 332.563 841.615 336.156 846.434 339.75 847.371 343.344 840.737 346.938 839.669 350.533 843.491 354.129 843.323 357.726 848.402 361.323 842.406 364.922 842.99 368.52 838.555 372.117 844.22 375.713 841.6 379.309 844.992 382.904 838.995 386.499 839.442 390.093 843.492 393.688 842.194 397.282 844.016 400.876 843.445 404.47 839.225 408.065 839.308 411.66 842.812 415.256 846.355 418.852 840.691 422.449 842.145 426.046 838.856 429.645 840.918 433.244 843.349 436.841 846.714 440.438 846.472 444.034 846.42 447.63 842.581 451.225 843.66 454.821 838.605 458.416 842.458 462.011 845.138 465.607 848.343 469.203 839.851 472.8 845.408 476.397 842.257 479.996 841.874 483.595 843.788 487.193 845.359 490.791 845.995 494.388 843.418 497.984 838.703 501.581 846.365 505.177 845.342 508.773 839.088 512.369 840.746 515.966 847.803 519.564 843.697 523.163 847.723 526.762 838.6 530.361 839.654 533.959 844.239 537.556 838.877 541.153 838.708 544.75 839.529 548.347 844.778 551.944 843.333 555.542 845.134 559.141 844.241 562.741 838.643 566.34 841.438 569.938 843.11 573.535 843.741 577.133 843.162 580.73 839.592 584.328 840.352 587.927 840.235 591.526 842.302 595.126 840.191 598.724 845.166 602.322 840.279 605.92 845.041 609.518 845.336 613.117 845.462 616.717 842.682 620.316 846.016 623.915 839.63 627.513 847.687 631.112 840.025 634.711 840.016 638.31 842.368 641.91 839.774 645.509 846.596 649.108 846.901 652.702 844.429 656.295 847.153 659.889 840.574 663.483 848.473 667.079 840.194 670.677 845.892 674.278 843.254 677.877 843.897 681.474 839.789 685.07 842.031 688.665 843.143 692.262 845.217 695.859 841.986 699.459 841.165 703.06 847.731 706.658 839.524 710.256 843.042 713.853 847.35 717.452 840.741 721.053 839.358 724.653 841.821 728.252 845.38 731.851 847.693 735.451 847.888 739.053 846.499 742.653 845.514 746.253 847.575 749.854 840.441 753.456 843.15 757.056 844.704 760.657 843.434 764.259 838.943 767.86 841.557 771.463 843.381 775.064 839.72 778.667 840.831 782.269 848.528 785.872 841.885 789.47 839.165 793.073 838.998 796.671 844.048 800.274 845.575 803.874 847.034 807.478 844.342 811.08 840.585 814.684 842.695 818.289 845.553 821.894 847.47 825.499 840.839 829.104 844.061 832.708 846.317 836.314 841.233 840.643 846.796 846.78"/>
  <polygon points="846.796 846.78 839.943 840.532 836.349 843.793 832.754 845.875 829.159 843.435 825.563 839.117 821.965 841.335 818.369 844.899 814.773 847.026 811.178 839.091 807.583 843.305 803.989 842.103 800.396 843.403 796.803 845.773 793.21 838.542 789.618 840.95 786.026 845.56 782.434 844.625 778.843 842.261 775.251 846.238 771.66 846.952 768.069 838.656 764.477 839.377 760.886 846.584 757.294 844.397 753.703 840.137 750.11 848.327 746.518 840.134 742.925 842.267 739.332 840.689 735.738 848.193 732.143 840.059 728.548 843.243 724.952 838.825 721.355 846.932 717.758 841.393 714.16 845.976 710.564 838.986 706.968 843.536 703.372 845.791 699.777 844.95 696.183 841.148 692.589 841.934 688.996 845.748 685.402 842.867 681.809 845.056 678.216 839.432 674.624 844.863 671.031 840.864 667.437 848.148 663.844 847.535 660.25 845.694 656.656 846.873 653.062 841.241 649.467 847.925 645.871 841.78 642.274 847.436 638.677 841.019 635.078 841.444 631.48 845.377 627.883 843.295 624.287 843.416 620.691 842.867 617.096 847.484 613.501 844.061 609.907 846.928 606.312 839.292 602.718 841.718 599.124 842.278 595.53 839.933 591.935 844.957 588.34 838.6 584.744 842.191 581.148 841.084 577.551 840.292 573.954 841.804 570.355 843.539 566.756 846.817 563.159 848.029 559.562 842.956 555.966 845.678 552.37 845.062 548.775 844.16 545.179 846.516 541.584 842.344 537.989 839.206 534.393 846.593 530.797 841.332 527.2 842.381 523.603 841.369 520.004 839.273 516.405 840.41 512.807 846.732 509.209 839.057 505.612 844.624 502.016 845.472 498.419 847.016 494.823 844.267 491.227 842.087 487.631 847.858 484.034 845.995 480.436 839.081 476.837 845.598 473.238 842.343 469.639 845.256 466.041 846.841 462.444 847.797 458.847 845.422 455.25 840.401 451.653 842.942 448.056 843.786 444.458 844.637 440.859 839.084 437.259 844.323 433.66 842.257 430.062 840.491 426.465 842.174 422.867 841.706 419.27 846.788 415.672 847.535 412.073 843.396 408.474 843.659 404.874 845.137 401.276 846.165 397.678 847.719 394.08 846.53 390.482 839.324 386.883 841.713 383.283 843.848 379.684 839.33 376.085 844.343 372.487 842.383 368.888 841.095 365.289 847.612 361.69 848.277 358.09 842.597 354.491 845.963 350.892 845.423 347.298 841.677 343.705 843.312 340.111 838.75 336.517 839.383 332.921 838.974 329.323 845.875 325.722 845.48 322.123 843.952 318.526 839.756 314.93 840.974 311.335 845.489 307.738 841.956 304.141 842.732 300.541 839.251 296.94 839.954 293.342 839.425 289.744 840.169 286.147 845.134 282.548 841.706 278.947 838.817 275.347 845.644 271.748 840.456 268.149 841.611 264.549 839.67 260.947 842.897 257.347 839.427 253.747 841.858 250.146 840.774 246.544 838.619 242.944 841.505 239.343 841.445 235.741 842.898 232.14 846.974 228.537 843.748 224.936 844.192 221.333 846.151 217.731 838.672 214.128 839.201 210.53 844.576 206.927 841.031 203.329 842.404 199.726 842.878 196.126 841.723 192.522 847.233 188.92 841.458 185.316 841.901 181.711 846.846 178.106 839.266 174.501 843.319 170.896 841.371 167.292 844.458 163.686 842.96 160.075 845.069 157.184 842.812 157.33 839.943 158.1 836.349 157.598 832.754 155.314 829.159 157.125 825.563 152.124 821.965 154.934 818.369 152.231 814.773 155.854 811.178 155.605 807.583 153.458 803.989 153.433 800.396 157.352 796.803 152.679 793.21 159.227 789.618 156.289 786.026 158.606 782.434 158.295 778.843 156.244 775.251 157.32 771.66 159.375 768.069 161.123 764.477 157.187 760.886 152.529 757.294 155.831 753.703 157.158 750.11 158.653 746.518 159.505 742.925 157.948 739.332 159.935 735.738 158.102 732.143 154.735 728.548 155.295 724.952 158.304 721.355 154.681 717.758 154.583 714.16 160.948 710.564 157.711 706.968 161.131 703.372 153.344 699.777 158.18 696.183 155.894 692.589 158.953 688.996 156.833 685.402 159.648 681.809 158.971 678.216 154.017 674.624 154.939 671.031 153.732 667.437 158.817 663.844 154.817 660.25 151.579 656.656 157.743 653.062 157.707 649.467 160.545 645.871 155.493 642.274 152.663 638.677 161.124 635.078 161.176 631.48 160.313 627.883 159.123 624.287 154.698 620.691 156.756 617.096 157.356 613.501 159.296 609.907 156.204 606.312 158.074 602.718 159.559 599.124 154.393 595.53 158.552 591.935 155.907 588.34 160.006 584.744 152.462 581.148 154.715 577.551 161.031 573.954 153.49 570.355 156.152 566.756 160.523 563.159 152.179 559.562 154.531 555.966 155.156 552.37 156.268 548.775 154.133 545.179 160.299 541.584 153.009 537.989 153.056 534.393 153.144 530.797 151.879 527.2 152.925 523.603 154.846 520.004 151.863 516.405 152.312 512.807 152.366 509.209 152.099 505.612 160.97 502.016 154.848 498.419 161.027 494.823 157.997 491.227 159.689 487.631 159.857 484.034 151.933 480.436 153.152 476.837 152.383 473.238 153.825 469.639 160.32 466.041 159.752 462.444 153.402 458.847 158.88 455.25 160.005 451.653 161.075 448.056 157.384 444.458 156.282 440.859 151.917 437.259 157.313 433.66 157.198 430.062 152.314 426.465 154.486 422.867 153.641 419.27 156.701 415.672 160.018 412.073 160.58 408.474 151.476 404.874 160.516 401.276 155.196 397.678 160.663 394.08 158.845 390.482 158.005 386.883 160.147 383.283 156.874 379.684 160.82 376.085 153.626 372.487 153.532 368.888 157.723 365.289 155.95 361.69 160.872 358.09 159.848 354.491 158.059 350.892 159.624 347.298 151.961 343.705 156.917 340.111 154.037 336.517 160.301 332.921 160.489 329.323 154.848 325.722 157.743 322.123 159.557 318.526 159.204 314.93 154.898 311.335 161.176 307.738 151.872 304.141 160.12 300.541 151.671 296.94 154.277 293.342 155.104 289.744 159.127 286.147 157.098 282.548 156.685 278.947 157.579 275.347 152.314 271.748 159.629 268.149 157.909 264.549 152.746 260.947 156.172 257.347 157.077 253.747 155.61 250.146 157.326 246.544 158.868 242.944 156.559 239.343 156.674 235.741 153.889 232.14 154.791 228.537 159.951 224.936 160.766 221.333 153.814 217.731 159.536 214.128 158.323 210.53 161.051 206.927 151.544 203.329 157.532 199.726 153.761 196.126 151.768 192.522 156.097 188.92 159.491 185.316 152.044 181.711 157.355 178.106 160.757 174.501 151.87 170.896 154.588 167.292 152.796 163.686 156.884 160.075 155.805 155.808 160.057 153.104 163.651 159.89 167.246 152.788 170.841 155.799 174.437 155.42 178.035 159.125 181.631 153.594 185.227 161.059 188.822 155.878 192.417 151.845 196.011 153.044 199.604 152.165 203.197 158.772 206.79 152.395 210.382 153.164 213.974 159.76 217.566 158.236 221.157 154.942 224.749 152.752 228.34 151.75 231.931 153.05 235.523 154.637 239.114 160.599 242.706 158.094 246.297 159.776 249.89 157.837 253.482 154.397 257.075 155.113 260.668 152.671 264.262 161.042 267.857 161.277 271.452 156.491 275.048 153.823 278.645 153.264 282.242 160.894 285.84 153.171 289.436 151.927 293.032 151.49 296.628 157.01 300.223 159.316 303.817 153.167 307.411 153.941 311.004 158.521 314.598 156.539 318.191 152.605 321.784 160.818 325.376 155.84 328.969 153.579 332.563 159.557 336.156 157.208 339.75 153.601 343.344 153.613 346.938 155.352 350.533 157.849 354.129 155.6 357.726 156.395 361.323 156.944 364.922 158.436 368.52 152.928 372.117 157.406 375.713 154.795 379.309 153.16 382.904 161.217 386.499 161.198 390.093 158.472 393.688 153.167 397.282 157.949 400.876 161.136 404.47 158.404 408.065 155.611 411.66 155.763 415.256 152.7 418.852 157.219 422.449 158.018 426.046 152.691 429.645 152.56 433.244 159.114 436.841 157.613 440.438 155.267 444.034 160.6 447.63 160.691 451.225 160.327 454.821 155.444 458.416 157.063 462.011 151.689 465.607 159.154 469.203 157.262 472.8 152.048 476.397 159.065 479.996 156.552 483.595 154.189 487.193 159.489 490.791 152.84 494.388 160.574 497.984 153.096 501.581 152.856 505.177 157.177 508.773 159.419 512.369 155.778 515.966 154.73 519.564 155.092 523.163 154.085 526.762 153.982 530.361 157.457 533.959 160.27 537.556 153.82 541.153 158.862 544.75 157.063 548.347 154.4 551.944 154.047 555.542 160.807 559.141 157.617 562.741 153.482 566.34 151.464 569.938 160.575 573.535 158.233 577.133 151.522 580.73 155.992 584.328 157.68 587.927 159.894 591.526 155.089 595.126 154.272 598.724 156.957 602.322 154.291 605.92 157.127 609.518 154.393 613.117 159.246 616.717 151.853 620.316 153.498 623.915 156.529 627.513 157.142 631.112 161.179 634.711 160.669 638.31 159.193 641.91 151.733 645.509 157.024 649.108 157.99 652.702 155.778 656.295 161.281 659.889 159.067 663.483 153.002 667.079 161.076 670.677 157.76 674.278 158.613 677.877 153.209 681.474 152.472 685.07 152.222 688.665 155.438 692.262 152.748 695.859 155.488 699.459 154.89 703.06 151.962 706.658 157.407 710.256 158.372 713.853 160.946 717.452 156.924 721.053 156.413 724.653 155.416 728.252 157.937 731.851 155.765 735.451 154.436 739.053 153.695 742.653 155.74 746.253 159.893 749.854 152.253 753.456 152.907 757.056 155.02 760.657 152.022 764.259 159.489 767.86 153.01 771.463 155.128 775.064 159.781 778.667 157.896 782.269 159.341 785.872 157.365 789.47 154.756 793.073 158.592 796.671 159.892 800.274 154.554 803.874 159.185 807.478 151.704 811.08 154.458 814.684 152.863 818.289 157.468 821.894 151.848 825.499 160.314 829.104 156.808 832.708 154.692 836.314 157.893 839.925 154.13 845.715 154.274 840.645 160.057 839.572 163.651 845.199 167.246 843.793 170.841 847.529 174.437 844.602 178.035 843.117 181.631 844.218 185.227 839.737 188.822 842.687 192.417 840.676 196.011 843.474 199.604 847.399 203.197 839.505 206.79 840.829 210.382 843.204 213.974 845.596 217.566 848.214 221.157 845.048 224.749 847.325 228.34 847.834 231.931 846.839 235.523 840.598 239.114 848.49 242.706 847.183 246.297 842.323 249.89 843.753 253.482 843.868 257.075 842.914 260.668 842.802 264.262 839.293 267.857 844.296 271.452 845.427 275.048 844.652 278.645 841.582 282.242 845.882 285.84 847.3 289.436 845.904 293.032 847.533 296.628 848.101 300.223 843.258 303.817 842.554 307.411 846.789 311.004 847.467 314.598 846.889 318.191 839.35 321.784 839.415 325.376 840.833 328.969 846.898 332.563 841.615 336.156 846.434 339.75 847.371 343.344 840.737 346.938 839.669 350.533 843.491 354.129 843.323 357.726 848.402 361.323 842.406 364.922 842.99 368.52 838.555 372.117 844.22 375.713 841.6 379.309 844.992 382.904 838.995 386.499 839.442 390.093 843.492 393.688 842.194 397.282 844.016 400.876 843.445 404.47 839.225 408.065 839.308 411.66 842.812 415.256 846.355 418.852 840.691 422.449 842.145 426.046 838.856 429.645 840.918 433.244 843.349 436.841 846.714 440.438 846.472 444.034 846.42 447.63 842.581 451.225 843.66 454.821 838.605 458.416 842.458 462.011 845.138 465.607 848.343 469.203 839.851 472.8 845.408 476.397 842.257 479.996 841.874 483.595 843.788 487.193 845.359 490.791 845.995 494.388 843.418 497.984 838.703 501.581 846.365 505.177 845.342 508.773 839.088 512.369 840.746 515.966 847.803 519.564 843.697 523.163 847.723 526.762 838.6 530.361 839.654 533.959 844.239 537.556 838.877 541.153 838.708 544.75 839.529 548.347 844.778 551.944 843.333 555.542 845.134 559.141 844.241 562.741 838.643 566.34 841.438 569.938 843.11 573.535 843.741 577.133 843.162 580.73 839.592 584.328 840.352 587.927 840.235 591.526 842.302 595.126 840.191 598.724 845.166 602.322 840.279 605.92 845.041 609.518 845.336 613.117 845.462 616.717 842.682 620.316 846.016 623.915 839.63 627.513 847.687 631.112 840.025 634.711 840.016 638.31 842.368 641.91 839.774 645.509 846.596 649.108 846.901 652.702 844.429 656.295 847.153 659.889 840.574 663.483 848.473 667.079 840.194 670.677 845.892 674.278 843.254 677.877 843.897 681.474 839.789 685.07 842.031 688.665 843.143 692.262 845.217 695.859 841.986 699.459 841.165 703.06 847.731 706.658 839.524 710.256 843.042 713.853 847.35 717.452 840.741 721.053 839.358 724.653 841.821 728.252 845.38 731.851 847.693 735.451 847.888 739.053 846.499 742.653 845.514 746.253 847.575 749.854 840.441 753.456 843.15 757.056 844.704 760.657 843.434 764.259 838.943 767.86 841.557 771.463 843.381 775.064 839.72 778.667 840.831 782.269 848.528 785.872 841.885 789.47 839.165 793.073 838.998 796.671 844.048 800.274 845.575 803.874 847.034 807.478 844.342 811.08 840.585 814.684 842.695 818.289 845.553 821.894 847.47 825.499 840.839 829.104 844.061 832.708 846.317 836.314 841.233 840.643 846.796 846.78" style="fill: none; stroke: #000; stroke-linecap: round; stroke-linejoin: round; stroke-width: 30px;"/>
</svg>