<?xml version="1.0" encoding="UTF-8"?>
<svg id="Sticker" xmlns="http://www.w3.org/2000/svg" width="1000" height="1000" viewBox="0 0 1000 1000">
  <polygon points="484.215 500 484.767 496.362 487.909 492.794 482.888 489.02 491.55 485.746 486.368 481.883 485.908 478.218 484.186 474.437 484.745 470.817 493.098 467.999 486.743 463.691 487.921 460.172 491.559 457.006 492.977 453.584 489.025 449.321 491.736 446.099 493.344 442.724 496.038 439.584 489.802 434.636 491.839 431.34 494.5 428.218 495.858 424.823 498.114 421.67 497.661 417.824 503.073 415.589 496.131 409.845 500.69 407.416 505.936 405.292 507.055 401.909 507.405 398.262 507.496 394.503 505.566 389.969 511.701 388.432 506.568 382.572 508.088 379.257 508.199 375.353 515.218 374.417 514.422 370.128 512.823 365.407 521.364 365.422 518.167 359.886 516.752 355.114 522.656 354.043 521.968 349.587 521.602 345.239 524.762 342.806 533.376 343.552 528.137 336.322 531.206 333.91 533.06 330.78 540.922 331.468 540.707 327.079 544.248 325.127 544.259 320.813 548.112 319.121 549.196 315.507 545.651 308.467 552.277 308.859 553.051 304.917 557.947 304.157 561.489 302.406 557.824 294.795 562.125 293.641 568.142 294.03 566.765 288.086 571.679 287.625 574.811 285.634 574.345 280.311 574.035 275.02 582.557 278.219 583.158 273.786 581.444 266.915 587.003 267.412 588.555 263.787 593.699 264.007 594.023 259.006 594.384 253.936 599.679 254.449 600.644 249.979 606.074 250.8 606.646 245.775 611.731 246.308 614.568 244.074 614.539 238.073 621.481 241.265 623.304 237.669 624.839 233.605 627.289 230.763 630.534 229.054 637.488 232.924 636.953 225.573 643.047 228.379 645.901 226.201 644.639 217.242 650.437 219.83 655.776 221.84 656.725 216.284 657.594 210.398 664.302 215.13 664.377 207.582 671.039 212.572 670.266 203.041 673.715 201.757 680.926 208.416 682.43 203.169 685.826 201.925 688.448 198.923 691.72 197.36 694.142 193.734 697.395 192.043 702.246 194.436 706.29 194.921 708.568 191.475 706.22 188.105 701.753 189.93 698.801 187.395 696.389 183.076 690.547 189.612 687.02 188.954 684.338 185.381 681.452 182.346 677.634 182.644 674.447 180.574 671.716 176.532 668.166 175.706 663.465 180.048 660.018 178.993 656.29 179.297 653.942 172.499 649.29 177.734 645.322 179.669 643.078 171.166 638.769 175.351 635.385 173.608 631.926 172.245 628.009 174.575 624.772 171.181 621.183 170.725 617.883 167.017 614.25 166.643 610.273 171.237 606.8 168.923 602.93 173.848 599.335 174.357 595.813 172.744 592.383 165.025 588.713 166.306 585.069 172.094 581.453 167.154 577.838 167.193 574.327 170.806 570.591 166.915 566.996 167.508 563.736 173.678 560.259 174.981 556.756 175.665 552.801 171.147 549.212 171.324 545.89 174.009 541.975 171.284 538.112 169.457 535.08 173.964 530.732 169.077 527.347 170.939 523.68 170.979 520.953 176.322 517.388 176.739 513.236 174.249 510.691 179.705 505.674 173.534 502.179 174.567 500.728 184.011 497.429 185.43 492.59 180.963 488.384 179.229 487.142 188.079 483.044 186.712 479.383 186.938 475.046 185.101 470.757 183.608 470.235 193.332 465.428 190.348 461.127 189.014 458.15 191.365 454.632 192.254 452.072 195.57 448.463 196.215 445.449 198.311 441.073 197.233 438.572 200.49 433.889 198.896 433.557 206.694 427.899 203.165 425.214 205.88 421.042 205.621 420.019 211.484 416.341 212.184 412.776 213.137 411.573 218.329 406.706 216.995 404.516 220.348 400.53 220.654 395.037 218.589 392.843 221.924 391.38 226.327 390.78 231.927 383.979 228.198 383.274 233.535 380.246 235.444 374.124 233.078 374.947 240.307 373.499 244.309 366.408 240.915 364.425 244.24 362.199 247.216 356.828 246.338 354.894 249.685 354.527 254.817 353.803 259.424 345.76 255.758 344.164 259.399 341.786 262.152 339.326 264.807 339.529 270.19 333.99 269.68 330.476 271.29 332.118 277.911 330.414 281.205 327.518 283.368 319.712 281.111 323.133 288.998 316.423 287.89 318.495 294.388 311.685 293.359 308.325 295.291 307.517 299.288 304.516 301.532 302.875 304.836 306.605 312.108 296.604 309.219 302.007 317.517 294.958 316.941 292.488 319.626 289.851 322.215 292.038 327.939 292.386 332.376 288.361 334.055 288.26 338.153 282.577 338.934 283.566 343.634 278.18 344.711 273.588 346.323 278.256 352.899 270.068 352.698 272.585 358.024 270.626 361.064 266.88 363.271 270.874 369.084 264.983 370.354 261.509 372.785 260.806 376.429 264.25 381.732 264.048 385.483 263.978 389.255 261.356 392.062 257.922 394.618 257.067 398.11 257.573 402.04 256.28 405.362 250.812 407.425 248.085 410.394 254.507 415.952 247.144 417.66 247.699 421.536 247.027 425.081 250.999 429.69 247.06 432.459 249.732 436.666 242.782 438.924 242.157 442.484 247.084 446.993 238.746 449.26 243.089 453.58 239.498 456.708 245.79 461.137 240.318 464.082 244.931 468.168 238.476 471.143 237.499 474.689 239.347 478.441 235.751 481.841 236.883 485.528 243.591 489.375 238.524 492.804 236.212 496.377 243.744 500 239.143 503.591 243.73 507.08 238.424 510.799 240.798 514.297 240.821 517.877 240.043 521.514 238.135 525.263 244.434 528.323 238.341 532.504 239.046 536.065 245.443 538.911 241.007 543.092 245.447 546.078 242.657 550.123 243.156 553.685 243.022 557.364 242.722 561.094 244.048 564.513 246.074 567.764 249.5 570.663 247.329 574.854 250.339 577.802 251.521 581.184 248.424 585.751 253.481 588.048 248.866 593.176 254.33 595.264 252.271 599.71 258.19 601.52 258.768 605.095 255.121 610.233 257.946 613.044 264.402 614.392 265.093 617.94 265.742 621.523 260.851 627.514 269.239 627.769 271.536 630.629 265.743 637.282 270.495 639.016 276.478 640.05 270.989 646.847 279.922 646.241 276.406 652.17 283.326 652.447 279.554 658.674 281.852 661.51 281.655 665.831 289.236 665.428 289.052 669.747 290.671 672.965 295.43 674.117 295.601 678.288 296.206 682.217 300.836 683.336 297.383 690.238 298.961 693.59 307.64 691.57 307.634 696.07 308.044 700.317 307.611 705.313 313.127 705.47 318.16 705.921 321.267 707.939 317.559 715.961 323.917 715.112 323.292 720.561 327.943 721.153 326.924 727.123 336.06 723.238 338.662 725.648 339.343 730.027 339.38 735.163 340.031 739.756 343.916 740.901 350.099 739.42 349.94 745.013 355.844 743.676 354.444 750.879 358.523 751.628 363.485 751.213 366.641 752.976 368.471 756.438 369.329 761.244 374.316 760.577 374.629 766.252 377.592 768.339 381.932 768.432 387.825 766.14 390.255 768.892 391.317 773.795 392.711 778.31 399.09 774.874 399.065 781.799 401.577 784.661 405.639 784.881 409.369 785.616 414.669 783.438 417.703 785.298 420.384 787.841 422.832 790.889 426.42 791.714 427.772 797.121 432.451 795.674 435.861 796.829 436.977 803.101 442.518 799.46 445.97 800.474 449.313 801.73 452.377 803.682 455.977 804.286 458.598 807.455 461.23 810.717 466.657 806.179 469.947 807.528 473.118 809.248 474.005 818.182 479.073 814.085 482.82 814.06 485.91 816.257 488.438 820.594 492.045 821.121 495.04 824.033 499.923 819.331 504.087 817.219 505.939 825.288 509.327 826.792 514.652 818.695 516.973 825.463 520.098 828.46 523.701 828.912 528.41 822.391 531.487 825.865 535.227 824.993 538.231 829.638 542.526 824.085 545.351 830.988 549.235 828.454 552.988 826.747 556.571 826.699 560.111 827.196 563.37 832.567 567.35 825.244 570.88 825.656 574.198 833.589 577.806 834.426 581.435 834.649 585.069 827.897 588.713 833.773 592.205 825.986 595.762 825.568 599.474 829.267 603.005 827.726 606.908 832.94 610.473 831.696 613.769 827.299 617.422 827.843 620.836 825.784 624.704 828.214 628.747 831.622 631.87 827.324 634.859 822.63 638.421 822.325 643.162 829.359 646.022 824.435 650.427 828.554 653.808 826.796 657.606 827.223 660.011 820.965 663.886 821.832 667.97 823.444 670.453 818.284 674.198 818.435 678.209 819.507 680.863 815.511 684.214 814.173 686.943 810.777 692.143 815.536 696.151 816.172 698.666 812.191 703.458 815.031 706.481 812.628 706.528 808.534 705.562 807.01 701.523 807.424 697.173 808.513 694.212 806.1 690.466 805.59 686.747 804.969 686.441 796.711 683.691 794.105 677.998 797.756 675 795.607 670.56 796.369 669.463 790.498 667.245 786.965 660.459 791.992 659.494 786.162 658.184 781.137 653.144 782.694 649.619 781.544 648.363 776.63 644.242 776.458 640.699 775.302 639.975 769.784 634.793 771.11 631.419 769.638 627.483 768.947 625.338 765.684 620.748 765.825 618.792 762.332 615.301 760.912 614.988 755.371 609.958 755.908 608.572 751.839 603.281 752.551 604.623 745.31 599.05 746.261 597.346 742.699 592.09 743.117 590.594 739.342 591.528 733.042 586.243 733.36 584.442 730.02 580.517 728.826 578.089 726.116 577.8 721.371 570.833 722.949 570.096 718.656 572.309 711.793 570.291 708.81 566.502 707.357 559.182 708.806 563.462 700.567 553.956 703.615 554.28 698.699 550.461 697.051 550.719 692.291 551.16 687.479 545.69 686.986 548.542 680.561 540.54 681.711 540.56 677.317 536.658 675.542 537.271 670.837 534.717 668.175 530.723 666.365 532.372 661.161 525.246 661.11 524.851 657.128 522.781 654.101 521.96 650.402 524.881 644.79 517.27 644.611 519.125 639.631 521.624 634.44 513.782 634.137 510.848 631.46 510.422 627.655 510.725 623.57 510.231 619.856 507.929 616.878 503.801 614.573 509.442 608.59 504.279 606.632 506.558 602.018 498.842 600.795 500.11 596.55 495.885 594.042 495.182 590.424 501.867 584.74 494.071 583.131 497.054 578.594 498.709 574.475 491.368 572.501 493.168 568.363 496.614 563.944 488.141 561.958 488.829 558.103 495.679 553.218 492.434 550.129 489.876 546.874 490.357 543.156 488.392 539.768 489.838 535.955 483.902 532.941 490.632 528.649 486.065 525.414 492.097 521.362 489.508 517.941 490.41 514.307 486.734 510.851 486.401 507.241 489.817 503.581 484.215 500" style="fill: #fff;"/>
  <polygon points="484.215 500 484.767 496.362 487.909 492.794 482.888 489.02 491.55 485.746 486.368 481.883 485.908 478.218 484.186 474.437 484.745 470.817 493.098 467.999 486.743 463.691 487.921 460.172 491.559 457.006 492.977 453.584 489.025 449.321 491.736 446.099 493.344 442.724 496.038 439.584 489.802 434.636 491.839 431.34 494.5 428.218 495.858 424.823 498.114 421.67 497.661 417.824 503.073 415.589 496.131 409.845 500.69 407.416 505.936 405.292 507.055 401.909 507.405 398.262 507.496 394.503 505.566 389.969 511.701 388.432 506.568 382.572 508.088 379.257 508.199 375.353 515.218 374.417 514.422 370.128 512.823 365.407 521.364 365.422 518.167 359.886 516.752 355.114 522.656 354.043 521.968 349.587 521.602 345.239 524.762 342.806 533.376 343.552 528.137 336.322 531.206 333.91 533.06 330.78 540.922 331.468 540.707 327.079 544.248 325.127 544.259 320.813 548.112 319.121 549.196 315.507 545.651 308.467 552.277 308.859 553.051 304.917 557.947 304.157 561.489 302.406 557.824 294.795 562.125 293.641 568.142 294.03 566.765 288.086 571.679 287.625 574.811 285.634 574.345 280.311 574.035 275.02 582.557 278.219 583.158 273.786 581.444 266.915 587.003 267.412 588.555 263.787 593.699 264.007 594.023 259.006 594.384 253.936 599.679 254.449 600.644 249.979 606.074 250.8 606.646 245.775 611.731 246.308 614.568 244.074 614.539 238.073 621.481 241.265 623.304 237.669 624.839 233.605 627.289 230.763 630.534 229.054 637.488 232.924 636.953 225.573 643.047 228.379 645.901 226.201 644.639 217.242 650.437 219.83 655.776 221.84 656.725 216.284 657.594 210.398 664.302 215.13 664.377 207.582 671.039 212.572 670.266 203.041 673.715 201.757 680.926 208.416 682.43 203.169 685.826 201.925 688.448 198.923 691.72 197.36 694.142 193.734 697.395 192.043 702.246 194.436 706.29 194.921 708.568 191.475 706.22 188.105 701.753 189.93 698.801 187.395 696.389 183.076 690.547 189.612 687.02 188.954 684.338 185.381 681.452 182.346 677.634 182.644 674.447 180.574 671.716 176.532 668.166 175.706 663.465 180.048 660.018 178.993 656.29 179.297 653.942 172.499 649.29 177.734 645.322 179.669 643.078 171.166 638.769 175.351 635.385 173.608 631.926 172.245 628.009 174.575 624.772 171.181 621.183 170.725 617.883 167.017 614.25 166.643 610.273 171.237 606.8 168.923 602.93 173.848 599.335 174.357 595.813 172.744 592.383 165.025 588.713 166.306 585.069 172.094 581.453 167.154 577.838 167.193 574.327 170.806 570.591 166.915 566.996 167.508 563.736 173.678 560.259 174.981 556.756 175.665 552.801 171.147 549.212 171.324 545.89 174.009 541.975 171.284 538.112 169.457 535.08 173.964 530.732 169.077 527.347 170.939 523.68 170.979 520.953 176.322 517.388 176.739 513.236 174.249 510.691 179.705 505.674 173.534 502.179 174.567 500.728 184.011 497.429 185.43 492.59 180.963 488.384 179.229 487.142 188.079 483.044 186.712 479.383 186.938 475.046 185.101 470.757 183.608 470.235 193.332 465.428 190.348 461.127 189.014 458.15 191.365 454.632 192.254 452.072 195.57 448.463 196.215 445.449 198.311 441.073 197.233 438.572 200.49 433.889 198.896 433.557 206.694 427.899 203.165 425.214 205.88 421.042 205.621 420.019 211.484 416.341 212.184 412.776 213.137 411.573 218.329 406.706 216.995 404.516 220.348 400.53 220.654 395.037 218.589 392.843 221.924 391.38 226.327 390.78 231.927 383.979 228.198 383.274 233.535 380.246 235.444 374.124 233.078 374.947 240.307 373.499 244.309 366.408 240.915 364.425 244.24 362.199 247.216 356.828 246.338 354.894 249.685 354.527 254.817 353.803 259.424 345.76 255.758 344.164 259.399 341.786 262.152 339.326 264.807 339.529 270.19 333.99 269.68 330.476 271.29 332.118 277.911 330.414 281.205 327.518 283.368 319.712 281.111 323.133 288.998 316.423 287.89 318.495 294.388 311.685 293.359 308.325 295.291 307.517 299.288 304.516 301.532 302.875 304.836 306.605 312.108 296.604 309.219 302.007 317.517 294.958 316.941 292.488 319.626 289.851 322.215 292.038 327.939 292.386 332.376 288.361 334.055 288.26 338.153 282.577 338.934 283.566 343.634 278.18 344.711 273.588 346.323 278.256 352.899 270.068 352.698 272.585 358.024 270.626 361.064 266.88 363.271 270.874 369.084 264.983 370.354 261.509 372.785 260.806 376.429 264.25 381.732 264.048 385.483 263.978 389.255 261.356 392.062 257.922 394.618 257.067 398.11 257.573 402.04 256.28 405.362 250.812 407.425 248.085 410.394 254.507 415.952 247.144 417.66 247.699 421.536 247.027 425.081 250.999 429.69 247.06 432.459 249.732 436.666 242.782 438.924 242.157 442.484 247.084 446.993 238.746 449.26 243.089 453.58 239.498 456.708 245.79 461.137 240.318 464.082 244.931 468.168 238.476 471.143 237.499 474.689 239.347 478.441 235.751 481.841 236.883 485.528 243.591 489.375 238.524 492.804 236.212 496.377 243.744 500 239.143 503.591 243.73 507.08 238.424 510.799 240.798 514.297 240.821 517.877 240.043 521.514 238.135 525.263 244.434 528.323 238.341 532.504 239.046 536.065 245.443 538.911 241.007 543.092 245.447 546.078 242.657 550.123 243.156 553.685 243.022 557.364 242.722 561.094 244.048 564.513 246.074 567.764 249.5 570.663 247.329 574.854 250.339 577.802 251.521 581.184 248.424 585.751 253.481 588.048 248.866 593.176 254.33 595.264 252.271 599.71 258.19 601.52 258.768 605.095 255.121 610.233 257.946 613.044 264.402 614.392 265.093 617.94 265.742 621.523 260.851 627.514 269.239 627.769 271.536 630.629 265.743 637.282 270.495 639.016 276.478 640.05 270.989 646.847 279.922 646.241 276.406 652.17 283.326 652.447 279.554 658.674 281.852 661.51 281.655 665.831 289.236 665.428 289.052 669.747 290.671 672.965 295.43 674.117 295.601 678.288 296.206 682.217 300.836 683.336 297.383 690.238 298.961 693.59 307.64 691.57 307.634 696.07 308.044 700.317 307.611 705.313 313.127 705.47 318.16 705.921 321.267 707.939 317.559 715.961 323.917 715.112 323.292 720.561 327.943 721.153 326.924 727.123 336.06 723.238 338.662 725.648 339.343 730.027 339.38 735.163 340.031 739.756 343.916 740.901 350.099 739.42 349.94 745.013 355.844 743.676 354.444 750.879 358.523 751.628 363.485 751.213 366.641 752.976 368.471 756.438 369.329 761.244 374.316 760.577 374.629 766.252 377.592 768.339 381.932 768.432 387.825 766.14 390.255 768.892 391.317 773.795 392.711 778.31 399.09 774.874 399.065 781.799 401.577 784.661 405.639 784.881 409.369 785.616 414.669 783.438 417.703 785.298 420.384 787.841 422.832 790.889 426.42 791.714 427.772 797.121 432.451 795.674 435.861 796.829 436.977 803.101 442.518 799.46 445.97 800.474 449.313 801.73 452.377 803.682 455.977 804.286 458.598 807.455 461.23 810.717 466.657 806.179 469.947 807.528 473.118 809.248 474.005 818.182 479.073 814.085 482.82 814.06 485.91 816.257 488.438 820.594 492.045 821.121 495.04 824.033 499.923 819.331 504.087 817.219 505.939 825.288 509.327 826.792 514.652 818.695 516.973 825.463 520.098 828.46 523.701 828.912 528.41 822.391 531.487 825.865 535.227 824.993 538.231 829.638 542.526 824.085 545.351 830.988 549.235 828.454 552.988 826.747 556.571 826.699 560.111 827.196 563.37 832.567 567.35 825.244 570.88 825.656 574.198 833.589 577.806 834.426 581.435 834.649 585.069 827.897 588.713 833.773 592.205 825.986 595.762 825.568 599.474 829.267 603.005 827.726 606.908 832.94 610.473 831.696 613.769 827.299 617.422 827.843 620.836 825.784 624.704 828.214 628.747 831.622 631.87 827.324 634.859 822.63 638.421 822.325 643.162 829.359 646.022 824.435 650.427 828.554 653.808 826.796 657.606 827.223 660.011 820.965 663.886 821.832 667.97 823.444 670.453 818.284 674.198 818.435 678.209 819.507 680.863 815.511 684.214 814.173 686.943 810.777 692.143 815.536 696.151 816.172 698.666 812.191 703.458 815.031 706.481 812.628 706.528 808.534 705.562 807.01 701.523 807.424 697.173 808.513 694.212 806.1 690.466 805.59 686.747 804.969 686.441 796.711 683.691 794.105 677.998 797.756 675 795.607 670.56 796.369 669.463 790.498 667.245 786.965 660.459 791.992 659.494 786.162 658.184 781.137 653.144 782.694 649.619 781.544 648.363 776.63 644.242 776.458 640.699 775.302 639.975 769.784 634.793 771.11 631.419 769.638 627.483 768.947 625.338 765.684 620.748 765.825 618.792 762.332 615.301 760.912 614.988 755.371 609.958 755.908 608.572 751.839 603.281 752.551 604.623 745.31 599.05 746.261 597.346 742.699 592.09 743.117 590.594 739.342 591.528 733.042 586.243 733.36 584.442 730.02 580.517 728.826 578.089 726.116 577.8 721.371 570.833 722.949 570.096 718.656 572.309 711.793 570.291 708.81 566.502 707.357 559.182 708.806 563.462 700.567 553.956 703.615 554.28 698.699 550.461 697.051 550.719 692.291 551.16 687.479 545.69 686.986 548.542 680.561 540.54 681.711 540.56 677.317 536.658 675.542 537.271 670.837 534.717 668.175 530.723 666.365 532.372 661.161 525.246 661.11 524.851 657.128 522.781 654.101 521.96 650.402 524.881 644.79 517.27 644.611 519.125 639.631 521.624 634.44 513.782 634.137 510.848 631.46 510.422 627.655 510.725 623.57 510.231 619.856 507.929 616.878 503.801 614.573 509.442 608.59 504.279 606.632 506.558 602.018 498.842 600.795 500.11 596.55 495.885 594.042 495.182 590.424 501.867 584.74 494.071 583.131 497.054 578.594 498.709 574.475 491.368 572.501 493.168 568.363 496.614 563.944 488.141 561.958 488.829 558.103 495.679 553.218 492.434 550.129 489.876 546.874 490.357 543.156 488.392 539.768 489.838 535.955 483.902 532.941 490.632 528.649 486.065 525.414 492.097 521.362 489.508 517.941 490.41 514.307 486.734 510.851 486.401 507.241 489.817 503.581 484.215 500" style="fill: none; stroke: #000; stroke-linecap: round; stroke-linejoin: round; stroke-width: 35px;"/>
</svg>