<?xml version="1.0" encoding="UTF-8"?>
<svg id="Sticker" xmlns="http://www.w3.org/2000/svg" width="1000" height="1000" viewBox="0 0 1000 1000">
  <g>
    <polygon points="776.149 359.775 783.007 357.227 783.473 353.607 778.323 349.342 786.518 346.573 781.911 342.506 785.275 339.105 778.665 335.154 783.873 331.754 778.913 328.087 785.052 324.49 785.659 320.825 783.411 317.266 786.585 313.435 785.006 309.871 777.855 306.911 782.406 302.813 784.179 298.914 776.188 296.444 780.17 292.173 775.074 289.472 779.671 284.898 776.715 281.854 776.038 278.326 776.113 274.591 777.248 270.517 770.46 268.767 775.555 263.404 774.101 260.041 767.233 258.639 770.621 253.562 765.611 251.653 767.375 247.055 766.032 243.694 765.257 240.069 764.61 236.354 762.451 233.354 759.646 230.71 755.575 228.791 756.547 224.159 752.845 222.115 750.776 219.172 752.475 213.906 746.965 213.103 749.92 206.854 744.071 206.402 744.734 201.529 738.533 201.52 736.911 198.266 738.837 192.253 735.277 190.405 728.706 191.076 726.95 187.902 725.214 184.686 727.974 177.45 719.916 179.827 716.823 177.832 720.18 169.665 715.104 169.526 709.096 170.463 712.07 162.239 703.807 165.709 705.175 158.943 698.535 160.945 700.023 153.81 696.896 151.881 695.624 147.726 688.598 150.629 687.307 146.487 684.681 143.991 679.798 144.505 678.208 140.628 676.285 137.128 671.535 137.645 672.397 129.966 669.743 127.346 662.272 132.22 660.708 127.984 658.835 124.13 657.486 119.282 652.239 121.043 647.348 122.365 643.715 121.552 644.357 112.729 638.682 115.748 637.328 110.418 632.748 111.496 631.567 105.541 624.383 112.405 621.079 111.071 618.864 107.215 616.974 102.423 614.699 98.358 610.638 98.676 605.383 102.276 603.491 96.996 598.452 100.373 597.121 93.146 593.026 93.925 588.538 96.117 584.939 95.627 581.946 93.074 579.355 88.916 574.948 91.375 572.529 86.215 568.977 85.375 564.892 86.905 560.27 91.235 556.969 89.597 554.114 85.456 551.087 81.803 546.477 87.406 543.83 80.995 540.383 79.315 536.523 80.676 532.777 81.443 528.726 85.512 525.192 84.987 521.71 83.704 518.239 81.871 514.599 82.54 511.176 78.124 507.45 81.33 503.844 81.651 500.248 76.376 496.678 81.965 493.12 82.461 489.563 82.7 485.97 82.198 482.452 83.154 478.746 81.378 474.982 79.533 471.994 85.942 468.453 86.122 464.859 85.923 460.221 78.235 457.412 84.118 454.048 85.761 450.314 85.125 446.146 82.325 442.669 83.43 438.694 82.13 436.381 88.503 433.584 92.237 428.347 85.826 424.639 85.987 423.488 95.61 418.386 90.595 414.247 89.321 410.821 90.54 409.565 98.484 405.252 96.778 402.319 99.253 397.532 96.484 396.247 103.384 390.577 98.54 388.289 102.573 385.746 105.815 382.593 107.51 379.23 108.705 373.852 105.459 373.74 113.791 370.433 115.071 363.791 109.612 360.209 110.569 356.897 112.083 356.885 119.75 350.91 116.291 351.557 124.791 348.654 126.84 343.647 125.353 341.307 128.385 335.395 125.681 332.886 128.481 332.147 133.913 328.709 135.197 326.751 138.643 322.208 138.4 317.028 137.401 316.437 142.668 316.175 148.211 313.257 150.222 305.662 146.462 305.657 152.145 299.794 150.776 297.767 153.987 294.282 155.529 295.398 162.13 291.638 163.342 287.318 164.035 287.855 169.723 284.588 171.51 280.618 172.661 280.454 177.439 278.321 180.314 277.814 184.614 270.899 183.315 267.178 184.904 267.198 189.601 261.639 189.784 260.407 193.439 262.533 199.551 258.325 200.896 257.743 204.875 257.879 209.277 254.986 211.594 253.887 215.094 252.786 218.557 244.586 217.771 241.69 220.291 244.908 226.236 242.649 229.062 243.356 233.431 237.521 234.487 234.048 236.829 239.475 243.27 233.784 244.633 228.926 246.508 231.154 251.303 230.615 254.927 226.034 257.093 226.761 261.165 226.517 264.86 221.398 267.078 224.206 271.65 223.924 275.28 224.681 279.135 222.49 282.282 224.496 286.327 222.208 289.485 222.554 293.138 217.858 296.024 220.876 300.042 218.173 303.314 221.713 307.229 215.038 310.279 219.157 314.13 217.447 317.624 221.173 321.262 219.372 324.776 214.172 328.43 218.156 331.914 217.194 335.544 219.349 338.978 219.48 342.535 216.78 346.418 223.315 349.209 221.454 353.027 215.848 357.558 216.024 361.244 218.563 364.45 225.633 366.821 217.878 371.925 227.682 373.792 225.083 377.944 227.713 381.134 225.337 385.246 222.827 389.384 227.555 392.186 222.276 396.84 230.051 399.076 228.282 403.086 231.192 406.218 228.856 410.339 230.269 413.75 233.368 416.828 230.052 421.157 236.77 423.498 235.892 427.347 236.959 430.802 236.693 434.539 232.382 439.173 239.704 441.244 236.73 445.619 233.179 450.186 240.811 452.052 243.201 455.147 242.993 458.904 242.105 462.865 242.137 466.598 244.113 469.782 248.015 472.377 241.982 477.955 247.047 480.176 244.625 484.723 252.317 486.041 251.038 490.237 255.289 492.617 256.087 496.139 249.678 502.127 257.558 503.243 254.924 507.972 253.653 512.239 261.157 513.431 259.845 517.725 257.007 522.565 265.677 523.315 265.583 527.189 259.538 533.022 263.166 535.582 266.136 538.425 266.173 542.145 268.608 545.177 267.771 549.141 274.116 551.061 268.267 556.464 273.372 558.722 268.328 563.948 271.632 566.723 271.642 570.485 276.088 572.871 277.393 576.218 275.198 580.713 278.707 583.34 283.946 585.329 284.079 589.056 278.5 594.884 285.515 596.131 284.661 600.288 284.962 604.034 289.696 606 291.604 609.071 291.671 612.92 289.1 617.971 292.563 620.375 294.569 623.411 300.844 624.37 295.568 630.944 296.107 634.74 305.587 633.847 299.426 641.221 301.415 644.282 304.425 646.747 308.454 648.563 306.269 654.12 316.09 652.221 315.759 656.648 313.831 662.248 318.035 663.744 324.159 663.764 322.645 669.268 323.766 672.926 326.706 675.195 331.558 675.863 332.568 679.64 333.051 683.951 338.493 683.886 340.521 686.827 343.87 688.513 340.701 696.677 343.741 698.794 347.737 699.853 349.939 702.81 353.012 704.801 359.176 703.05 360.482 707.048 362.802 709.871 364.205 713.978 369.411 712.922 372.847 714.188 373.463 719.662 376.248 722.01 378.516 725.243 381.426 727.489 385.235 728.162 389.795 727.328 394.225 726.518 394.495 733.996 400.579 729.569 403.06 732.663 405.033 737.127 407.456 740.788 411.954 739.269 416.534 737.214 419.074 740.729 423.807 737.768 425.227 745.133 429.114 744.737 432.019 747.784 435.194 750.05 438.974 749.959 443.232 747.561 446.359 750.177 449.775 751.579 454.306 746.71 456.791 753.632 460.807 751.285 464.477 750.949 467.445 756.434 471.075 756.848 474.708 757.234 479.055 748.39 482.597 748.382 485.652 757.623 489.283 758.077 493.071 753.126 496.582 757.868 500.255 752.163 503.873 756.784 507.529 757.644 510.994 750.688 514.558 750.307 518.057 748.753 522.115 756.772 525.336 750.814 528.694 748.028 532.294 748.334 536.645 755.198 539.367 747.556 544.084 755.646 547.698 754.984 550.895 751.844 554.491 751.298 557.577 748.154 560.927 746.597 564.112 744.433 567.494 743.249 572.154 746.983 574.14 740.589 578.336 742.263 583.443 746.519 585.757 741.824 589.589 741.802 593.501 741.87 596.146 738.579 600.665 739.998 600.512 730.438 605.793 733.503 610.871 735.718 613.986 733.696 615.786 729.22 619.558 728.55 622.585 726.497 623.736 721.368 626.553 719.148 628.528 715.681 635.389 719.426 639.268 718.552 641.536 715.427 643.234 711.645 643.346 706.033 647.375 705.311 653.846 707.241 655.549 703.635 654.948 697.692 660.351 698.078 664.112 696.65 664.667 692.13 667.002 689.353 665.832 683.533 670.78 683.066 670.768 678.427 671.67 674.633 674.943 672.69 681.526 673.081 679.973 667.553 681.875 664.535 687.75 664.107 690.899 661.788 691.588 657.923 690.104 652.839 691.761 649.665 697.978 648.985 700.845 646.37 695.598 639.579 701.663 638.598 697.716 632.703 703.15 631.298 701.599 626.665 704.829 624.177 709.477 622.223 711.579 619.158 705.763 612.998 710.851 611.116 709.764 606.893 711.603 603.752 711.865 600.058 719.019 598.656 721.343 595.585 721.245 591.742 722.044 588.192 718.194 583.289 721.711 580.564 724.792 577.68 726.504 574.396 719.765 568.855 720.738 565.405 725.707 562.979 724.869 559.042 728.252 556.194 728.761 552.603 729.682 549.12 731.32 545.841 730.647 541.867 733.518 539.023 735.89 536.029 738.047 532.951 735.8 528.269 737.309 524.956 743.301 523.259 741.197 518.64 740.991 514.712 744.54 512.119 740.719 506.927 742.675 503.776 750.031 502.481 746.004 497.264 753.284 495.893 751.833 491.571 753.543 488.306 755.614 485.152 757.834 482.033 754.377 477.139 752.539 472.791 754.824 469.708 760.311 467.542 762.729 464.441 754.983 458.502 759.01 455.872 764.428 453.567 762.117 449.215 764.497 446.078 760.969 441.479 761.602 437.925 761.756 434.261 766.463 431.635 767.89 428.239 765.953 424.109 764.299 420.066 771.365 417.847 771.025 414.076 766.772 409.536 767.97 406.096 775.519 403.87 770.973 399.316 776.597 396.682 777.754 393.202 775.739 389.143 773.469 385.052 778.479 382.263 776.086 378.161 776.024 374.471 781.744 371.773 781.32 368.017 775.591 363.361 776.149 359.775" style="fill: #fff;"/>
    <polygon points="776.149 359.775 783.007 357.227 783.473 353.607 778.323 349.342 786.518 346.573 781.911 342.506 785.275 339.105 778.665 335.154 783.873 331.754 778.913 328.087 785.052 324.49 785.659 320.825 783.411 317.266 786.585 313.435 785.006 309.871 777.855 306.911 782.406 302.813 784.179 298.914 776.188 296.444 780.17 292.173 775.074 289.472 779.671 284.898 776.715 281.854 776.038 278.326 776.113 274.591 777.248 270.517 770.46 268.767 775.555 263.404 774.101 260.041 767.233 258.639 770.621 253.562 765.611 251.653 767.375 247.055 766.032 243.694 765.257 240.069 764.61 236.354 762.451 233.354 759.646 230.71 755.575 228.791 756.547 224.159 752.845 222.115 750.776 219.172 752.475 213.906 746.965 213.103 749.92 206.854 744.071 206.402 744.734 201.529 738.533 201.52 736.911 198.266 738.837 192.253 735.277 190.405 728.706 191.076 726.95 187.902 725.214 184.686 727.974 177.45 719.916 179.827 716.823 177.832 720.18 169.665 715.104 169.526 709.096 170.463 712.07 162.239 703.807 165.709 705.175 158.943 698.535 160.945 700.023 153.81 696.896 151.881 695.624 147.726 688.598 150.629 687.307 146.487 684.681 143.991 679.798 144.505 678.208 140.628 676.285 137.128 671.535 137.645 672.397 129.966 669.743 127.346 662.272 132.22 660.708 127.984 658.835 124.13 657.486 119.282 652.239 121.043 647.348 122.365 643.715 121.552 644.357 112.729 638.682 115.748 637.328 110.418 632.748 111.496 631.567 105.541 624.383 112.405 621.079 111.071 618.864 107.215 616.974 102.423 614.699 98.358 610.638 98.676 605.383 102.276 603.491 96.996 598.452 100.373 597.121 93.146 593.026 93.925 588.538 96.117 584.939 95.627 581.946 93.074 579.355 88.916 574.948 91.375 572.529 86.215 568.977 85.375 564.892 86.905 560.27 91.235 556.969 89.597 554.114 85.456 551.087 81.803 546.477 87.406 543.83 80.995 540.383 79.315 536.523 80.676 532.777 81.443 528.726 85.512 525.192 84.987 521.71 83.704 518.239 81.871 514.599 82.54 511.176 78.124 507.45 81.33 503.844 81.651 500.248 76.376 496.678 81.965 493.12 82.461 489.563 82.7 485.97 82.198 482.452 83.154 478.746 81.378 474.982 79.533 471.994 85.942 468.453 86.122 464.859 85.923 460.221 78.235 457.412 84.118 454.048 85.761 450.314 85.125 446.146 82.325 442.669 83.43 438.694 82.13 436.381 88.503 433.584 92.237 428.347 85.826 424.639 85.987 423.488 95.61 418.386 90.595 414.247 89.321 410.821 90.54 409.565 98.484 405.252 96.778 402.319 99.253 397.532 96.484 396.247 103.384 390.577 98.54 388.289 102.573 385.746 105.815 382.593 107.51 379.23 108.705 373.852 105.459 373.74 113.791 370.433 115.071 363.791 109.612 360.209 110.569 356.897 112.083 356.885 119.75 350.91 116.291 351.557 124.791 348.654 126.84 343.647 125.353 341.307 128.385 335.395 125.681 332.886 128.481 332.147 133.913 328.709 135.197 326.751 138.643 322.208 138.4 317.028 137.401 316.437 142.668 316.175 148.211 313.257 150.222 305.662 146.462 305.657 152.145 299.794 150.776 297.767 153.987 294.282 155.529 295.398 162.13 291.638 163.342 287.318 164.035 287.855 169.723 284.588 171.51 280.618 172.661 280.454 177.439 278.321 180.314 277.814 184.614 270.899 183.315 267.178 184.904 267.198 189.601 261.639 189.784 260.407 193.439 262.533 199.551 258.325 200.896 257.743 204.875 257.879 209.277 254.986 211.594 253.887 215.094 252.786 218.557 244.586 217.771 241.69 220.291 244.908 226.236 242.649 229.062 243.356 233.431 237.521 234.487 234.048 236.829 239.475 243.27 233.784 244.633 228.926 246.508 231.154 251.303 230.615 254.927 226.034 257.093 226.761 261.165 226.517 264.86 221.398 267.078 224.206 271.65 223.924 275.28 224.681 279.135 222.49 282.282 224.496 286.327 222.208 289.485 222.554 293.138 217.858 296.024 220.876 300.042 218.173 303.314 221.713 307.229 215.038 310.279 219.157 314.13 217.447 317.624 221.173 321.262 219.372 324.776 214.172 328.43 218.156 331.914 217.194 335.544 219.349 338.978 219.48 342.535 216.78 346.418 223.315 349.209 221.454 353.027 215.848 357.558 216.024 361.244 218.563 364.45 225.633 366.821 217.878 371.925 227.682 373.792 225.083 377.944 227.713 381.134 225.337 385.246 222.827 389.384 227.555 392.186 222.276 396.84 230.051 399.076 228.282 403.086 231.192 406.218 228.856 410.339 230.269 413.75 233.368 416.828 230.052 421.157 236.77 423.498 235.892 427.347 236.959 430.802 236.693 434.539 232.382 439.173 239.704 441.244 236.73 445.619 233.179 450.186 240.811 452.052 243.201 455.147 242.993 458.904 242.105 462.865 242.137 466.598 244.113 469.782 248.015 472.377 241.982 477.955 247.047 480.176 244.625 484.723 252.317 486.041 251.038 490.237 255.289 492.617 256.087 496.139 249.678 502.127 257.558 503.243 254.924 507.972 253.653 512.239 261.157 513.431 259.845 517.725 257.007 522.565 265.677 523.315 265.583 527.189 259.538 533.022 263.166 535.582 266.136 538.425 266.173 542.145 268.608 545.177 267.771 549.141 274.116 551.061 268.267 556.464 273.372 558.722 268.328 563.948 271.632 566.723 271.642 570.485 276.088 572.871 277.393 576.218 275.198 580.713 278.707 583.34 283.946 585.329 284.079 589.056 278.5 594.884 285.515 596.131 284.661 600.288 284.962 604.034 289.696 606 291.604 609.071 291.671 612.92 289.1 617.971 292.563 620.375 294.569 623.411 300.844 624.37 295.568 630.944 296.107 634.74 305.587 633.847 299.426 641.221 301.415 644.282 304.425 646.747 308.454 648.563 306.269 654.12 316.09 652.221 315.759 656.648 313.831 662.248 318.035 663.744 324.159 663.764 322.645 669.268 323.766 672.926 326.706 675.195 331.558 675.863 332.568 679.64 333.051 683.951 338.493 683.886 340.521 686.827 343.87 688.513 340.701 696.677 343.741 698.794 347.737 699.853 349.939 702.81 353.012 704.801 359.176 703.05 360.482 707.048 362.802 709.871 364.205 713.978 369.411 712.922 372.847 714.188 373.463 719.662 376.248 722.01 378.516 725.243 381.426 727.489 385.235 728.162 389.795 727.328 394.225 726.518 394.495 733.996 400.579 729.569 403.06 732.663 405.033 737.127 407.456 740.788 411.954 739.269 416.534 737.214 419.074 740.729 423.807 737.768 425.227 745.133 429.114 744.737 432.019 747.784 435.194 750.05 438.974 749.959 443.232 747.561 446.359 750.177 449.775 751.579 454.306 746.71 456.791 753.632 460.807 751.285 464.477 750.949 467.445 756.434 471.075 756.848 474.708 757.234 479.055 748.39 482.597 748.382 485.652 757.623 489.283 758.077 493.071 753.126 496.582 757.868 500.255 752.163 503.873 756.784 507.529 757.644 510.994 750.688 514.558 750.307 518.057 748.753 522.115 756.772 525.336 750.814 528.694 748.028 532.294 748.334 536.645 755.198 539.367 747.556 544.084 755.646 547.698 754.984 550.895 751.844 554.491 751.298 557.577 748.154 560.927 746.597 564.112 744.433 567.494 743.249 572.154 746.983 574.14 740.589 578.336 742.263 583.443 746.519 585.757 741.824 589.589 741.802 593.501 741.87 596.146 738.579 600.665 739.998 600.512 730.438 605.793 733.503 610.871 735.718 613.986 733.696 615.786 729.22 619.558 728.55 622.585 726.497 623.736 721.368 626.553 719.148 628.528 715.681 635.389 719.426 639.268 718.552 641.536 715.427 643.234 711.645 643.346 706.033 647.375 705.311 653.846 707.241 655.549 703.635 654.948 697.692 660.351 698.078 664.112 696.65 664.667 692.13 667.002 689.353 665.832 683.533 670.78 683.066 670.768 678.427 671.67 674.633 674.943 672.69 681.526 673.081 679.973 667.553 681.875 664.535 687.75 664.107 690.899 661.788 691.588 657.923 690.104 652.839 691.761 649.665 697.978 648.985 700.845 646.37 695.598 639.579 701.663 638.598 697.716 632.703 703.15 631.298 701.599 626.665 704.829 624.177 709.477 622.223 711.579 619.158 705.763 612.998 710.851 611.116 709.764 606.893 711.603 603.752 711.865 600.058 719.019 598.656 721.343 595.585 721.245 591.742 722.044 588.192 718.194 583.289 721.711 580.564 724.792 577.68 726.504 574.396 719.765 568.855 720.738 565.405 725.707 562.979 724.869 559.042 728.252 556.194 728.761 552.603 729.682 549.12 731.32 545.841 730.647 541.867 733.518 539.023 735.89 536.029 738.047 532.951 735.8 528.269 737.309 524.956 743.301 523.259 741.197 518.64 740.991 514.712 744.54 512.119 740.719 506.927 742.675 503.776 750.031 502.481 746.004 497.264 753.284 495.893 751.833 491.571 753.543 488.306 755.614 485.152 757.834 482.033 754.377 477.139 752.539 472.791 754.824 469.708 760.311 467.542 762.729 464.441 754.983 458.502 759.01 455.872 764.428 453.567 762.117 449.215 764.497 446.078 760.969 441.479 761.602 437.925 761.756 434.261 766.463 431.635 767.89 428.239 765.953 424.109 764.299 420.066 771.365 417.847 771.025 414.076 766.772 409.536 767.97 406.096 775.519 403.87 770.973 399.316 776.597 396.682 777.754 393.202 775.739 389.143 773.469 385.052 778.479 382.263 776.086 378.161 776.024 374.471 781.744 371.773 781.32 368.017 775.591 363.361 776.149 359.775" style="fill: none; stroke: #000; stroke-linecap: round; stroke-linejoin: round; stroke-width: 35px;"/>
  </g>
  <polyline points="596.715 717.887 596.495 714.186 593.246 709.856 599.468 707.488 599.679 703.874 597.66 699.797 603.314 697.31 603.344 693.659 602.144 689.754 602.234 686.116 604.904 683.011 600.808 678.506 607.569 676.247 605.302 672.119 602.118 667.802 607.865 665.335 609.38 661.992 605.21 657.47 610.407 654.888 611.346 651.424 607.608 646.992 611.052 644.051 613.409 640.886 614.561 637.473 608.055 632.473 617.154 630.704 615.408 626.687 616.753 623.309 613.517 618.979 618.945 616.445 620.17 613.043 617.854 608.909 621.368 605.982 622.12 602.482 616.632 597.689 617.629 594.237 617.493 590.549 621.607 587.744 627.488 585.305 622.393 580.594 620.056 576.452 629.518 574.752 626.907 570.551 628.364 567.195 625.953 563.039 630.655 560.354 628.236 556.191 633.987 553.723 630.986 549.443 632.927 546.185 630.457 542.013 630.755 538.415 635.331 535.703 632.445 531.444 636.079 528.536 634.623 524.573 638.89 521.796 641.114 518.596 634.887 513.645 638.992 510.833 636.012 506.559 635.617 502.815 638.931 499.844 639.506 496.302 643.549 493.479 644.182 489.947 643.6 486.166 641.015 481.968 644.433 479.012 643.975 475.253 649.102 472.654 650.047 469.186 647.214 464.935 651.943 462.249 646.591 457.469 651.284 454.742 645.676 450.057 652.414 447.511 653.974 444.078 649.222 439.571 650.002 436.005 656.951 433.499 658.178 430.01 658.545 426.376 652.155 421.582 656.457 418.62 654.251 414.542 660.842 411.968 655.875 407.417 662.351 404.823 658.518 400.466 659.223 396.886 655.525 392.551 657.178 389.126 662.427 386.006 657.929 383.701 654.238 383.199 650.778 387.955 646.835 383.086 644.043 391.361 640.448 390.656 636.264 386.84 632.557 386.722 628.789 386.516 625.833 389.816 621.536 387.729 618.568 390.618 616.224 395.102 612.74 395.85 608.992 395.985 604.944 395.58 603.428 401.004 599.61 401.168 596.284 402.45 592.685 403.315 591.593 408.299 583.774 402.977 581.045 405.661 582.626 413.508 575.566 410.89 571.877 412.579 574.395 419.904 571.948 422.397 569.828 425.167 565.049 426.512 561.276 428.929 559.188 432.384 566.146 438.286 566.939 441.735 557.281 444.221 558.648 447.967 558.37 451.61 561.986 455.239 564.298 458.694 561.113 462.433 565.751 465.458 563.962 469.214 564.254 472.727 560.462 477.717 565.942 479.574 566.04 483.676 566.111 488.746 572.863 487.085 576.895 485.769 579.296 486.585 582.553 495.823 585.493 489.209 589.098 489.103 591.95 486.893 597.337 487.643 599.947 484.44 599.214 479.651 603.004 477.321 605.134 474.084 600.263 468.771 600.585 465.265 601.387 461.879 601.802 458.405 608.075 455.755 605.991 451.832 609.482 448.523 610.737 444.916 606.129 441.052 607.101 437.482 608.783 433.857 611.322 430.116 604.121 426.847 603.976 423.311 608.082 419.288 604.582 416.09 605.819 412.262 600.757 409.572 604.055 405.241 605.094 401.236 598.133 399.481 599.9 395.234 596.315 392.792 599.684 387.591 595.069 385.75 595.055 381.773 595.849 377.09 588.958 377.276 586.879 374.569 585.4 371.346 587.816 364.008 580.29 366.772 579.632 361.937 576.618 359.874 572.182 360.483 571.768 352.706 566.96 354.531 563.812 351.929 560.432 349.886 556.108 353.405 552.87 349.611 549.145 349.03 545.614 357.371 541.582 348.648 539.019 357.736 534.582 352.265 531.374 354.446 528.087 355.884 525.935 360.306 520.322 355.682 519.349 362.108 514.108 359.651 512.167 363.438 506.413 361.284 505.863 366.782 505.205 371.535 497.511 368.256 499.795 375.756 497.059 377.919 492.426 378.64 494.396 384.515 485.347 382.644 488.017 388.561 486.944 391.957 487.254 395.909 485.714 398.929 476.931 399.584 482.368 405.019 480.809 408.208 476.999 411.116 475.586 414.636 479.822 418.594 477.563 422.045 476.641 425.666 474.844 429.482 482.307 432.162 481.579 435.842 480.376 439.7 480.65 443.329 480.212 447.211 482.648 450.266 479.596 455.372 488.616 455.424 486.965 460.206 485.332 465.792 487.936 469.069 491.683 471.388 496.024 472.627 500.589 470.37 505.247 475.091 506.096 467.259 508.654 465.495 509.748 462.216 516.741 462.817 516.427 458.386 514.837 453.774 523.364 453.311 519.573 448.109 517.333 443.782 522.842 441.569 521.022 437.49 519.365 433.582 521.524 430.39 529.828 427.96 522.117 423.414 523.705 420.011 523.65 416.491 530.444 412.373 527.459 408.842 528.643 404.738 525.414 401.584 526.415 397.293 523.951 394.107 516.096 393.632 519.418 387.934 516.039 385.667 516.807 380.689 515.838 376.596 507.622 378.696 507.069 374.346 507.712 368.258 501.659 369.546 500.807 364.612 498.253 361.618 492.989 362.979 488.012 364.605 488.479 355.5 483.931 356.427 478.409 360.817 476.383 355.69 472.5 356.223 469.754 351.839 465.553 354.625 461.654 357.697 458.473 353.569 454.884 356.238 451.244 352.203 447.949 355.975 443.968 352.846 440.368 353.487 438.006 358.934 432.714 353.513 429.936 356.55 427.836 360.256 425.406 362.778 422.421 364.393 415.031 361.371 416.942 368.534 410.275 367.584 408.225 370.833 413.184 378.361 406.948 378.745 401.308 380.043 403.753 385.21 406.844 390.201 398.717 391.143 404.01 396.499 395.84 398.042 403.663 403.509 402.628 406.813 393.036 408.845 396.608 413.029 395.933 416.577 397.298 420.291 397.217 423.853 399.485 427.477 399.766 430.986 395.779 434.554 393.978 438.215 396.771 441.686 394.465 445.459 397.976 448.747 396.932 452.465 394.096 456.516 402.55 458.783 403.571 462.125 401.68 466.099 400.437 470.06 402.621 473.158 402.539 476.92 400.706 481.468 402.176 484.947 408.512 485.869 410.024 488.931 412.861 490.769 412.194 497.98 417.964 493.955 421.388 492.147 424.809 500.092 426.994 494.399 430.36 493.399 433.289 491.098 432.446 486.703 436.494 484.442 437.547 480.906 441.609 477.876 442.237 474.099 437.772 469.91 440.104 466.417 435.122 462.612 434.501 459.067 435.96 455.492 443.483 451.618 441.978 447.975 435.956 444.694 440.468 440.553 439.711 436.807 435.283 434.31 437.652 429.406 435.561 426.176 428.596 426.194 425.802 424.105 423.399 421.818 424.616 416.014 422.141 413.4 417.94 412.832 417.09 408.153 415.433 404.148 410.156 405.544 409.842 398.981 405.938 398.325 402.89 396.137 397.547 398.91 394.371 397.259 392.228 392.9 387.167 396.17 386.035 388.286 382.419 387.397 376.519 394.917 373.001 394.607 370.806 388.41 367.793 384.961 362.818 392.383 359.73 389.423 356.319 388.146 353.026 384.765 349.524 381.787 345.651 390.72 342.135 386.345 336.222 385.804 338 389.941 338.199 393.606 340.934 396.837 340.803 400.554 342.182 404.017 340.119 408.065 342.678 411.326 339.956 415.489 347.403 417.916 342.474 422.457 344.326 425.84 342.866 429.792 348.154 432.589 347.684 436.371 347.449 440.112 351.962 443.041 349.062 447.24 351.446 450.54 350.308 454.441 346.505 458.883 348.862 462.052 352.449 464.965 357.443 467.589 351.432 472.492 356.083 475.187 356.642 478.729 351.997 483.348 358.915 485.572 361.933 488.604 355.806 493.53 357.907 496.754 359.555 500.071 356.296 504.404 358.332 507.639 362.658 510.4 366.328 513.298 359.146 518.444 361.468 521.622 362.595 525.046 363.56 528.5 368.219 531.189 364.784 535.552 364.183 539.329 370.584 541.657 372.328 544.95 372.427 548.587 366.02 553.574 374.393 555.497 369.461 560.175 375.868 562.503 370.836 567.199 370.218 570.982 372.776 574.109 372.549 577.815 373.972 581.18 381.894 583.197 373.051 588.684 382.813 590.319 377.563 595.064 377.781 598.679 377.771 602.34 383.356 604.842 386.707 607.805 384.956 611.827 387.682 614.924 384.011 619.343 387.879 622.2 384.527 626.554 382.071 630.724 389.865 632.769 383.387 637.771 388.669 640.338 388.988 643.932 387.34 647.935 394.012 650.214 389.993 654.708 388.558 658.666 390.046 662.02 395.867 664.471 397.769 667.739 399.76 670.984 399.04 674.795 397.449 678.784 398.506 682.228 400.922 685.388 401.441 688.944 397.65 693.393 396.644 697.265 404.91 699.214 399.12 704.077 401.329 707.284 402.254 710.758 407.805 713.28 405.363 717.457" style="fill: none; stroke: #000; stroke-linecap: round; stroke-linejoin: round; stroke-width: 30px;"/>
  <g>
    <g>
      <polygon points="544.424 922.488 540.81 922.817 537.195 921.19 533.578 921.758 529.963 916.509 526.347 923.073 522.731 914.943 519.114 922.679 515.498 923.247 511.881 918.493 508.265 922.951 504.648 922.31 501.036 917.257 497.42 915.563 493.805 923.221 490.187 917.004 486.572 923.189 482.954 921.674 479.335 916.399 475.716 922.05 472.097 915.563 468.479 920.152 464.86 915.435 461.241 919.986 457.616 922.161 453.99 919.126 451.01 914.485 446.241 922.058 442.179 921.844 439.789 917.58 435.145 918.078 435.388 911.422 432.421 909.663 426.872 909.722 430.873 902.614 425.644 901.745 421.365 899.511 425.103 894.691 425.513 891.308 423.582 888.095 425.653 883.679 418.728 879.263 425.413 876.039 422.235 872.015 425.551 869.31 426.148 865.855 424.01 860.42 432.713 862.297 429.125 854.396 433.934 854.112 439.655 856.439 441.532 853.387 443.043 847.977 447.173 849.403 449.981 843.641 453.99 848.662 457.605 847.6 461.22 849.651 464.836 845.131 468.451 843.066 472.068 850.464 475.684 846.151 479.3 843.15 482.916 844.506 486.534 847.02 490.15 850.259 493.766 850.719 497.378 851.982 500.995 851.169 504.609 845.859 508.227 845.598 511.843 848.261 515.46 852.286 519.079 851.686 522.698 843.887 526.318 852.641 529.936 848.92 533.554 845.241 537.174 845.4 540.799 851.885 544.424 844.507 548.149 846.197 550.882 850.983 555.649 847.19 556.134 854.942 559.313 855.563 561.778 857.5 568.791 854.898 566.087 861.992 574.802 860.172 568.264 867.787 575.695 868.321 570.383 873.333 572.313 876.116 575.993 879.263 571.85 883.679 571.267 888.095 578.605 891.943 575.763 895.248 570.007 897.048 572.627 901.678 571.766 905.276 572.783 910.715 568.738 912.41 562.507 910.774 560.756 914.09 559.111 918.589 554.204 916.043 552.001 921.296 548.418 923.582 544.424 922.488" style="fill: #fff;"/>
      <polygon points="544.424 922.488 540.81 922.817 537.195 921.19 533.578 921.758 529.963 916.509 526.347 923.073 522.731 914.943 519.114 922.679 515.498 923.247 511.881 918.493 508.265 922.951 504.648 922.31 501.036 917.257 497.42 915.563 493.805 923.221 490.187 917.004 486.572 923.189 482.954 921.674 479.335 916.399 475.716 922.05 472.097 915.563 468.479 920.152 464.86 915.435 461.241 919.986 457.616 922.161 453.99 919.126 451.01 914.485 446.241 922.058 442.179 921.844 439.789 917.58 435.145 918.078 435.388 911.422 432.421 909.663 426.872 909.722 430.873 902.614 425.644 901.745 421.365 899.511 425.103 894.691 425.513 891.308 423.582 888.095 425.653 883.679 418.728 879.263 425.413 876.039 422.235 872.015 425.551 869.31 426.148 865.855 424.01 860.42 432.713 862.297 429.125 854.396 433.934 854.112 439.655 856.439 441.532 853.387 443.043 847.977 447.173 849.403 449.981 843.641 453.99 848.662 457.605 847.6 461.22 849.651 464.836 845.131 468.451 843.066 472.068 850.464 475.684 846.151 479.3 843.15 482.916 844.506 486.534 847.02 490.15 850.259 493.766 850.719 497.378 851.982 500.995 851.169 504.609 845.859 508.227 845.598 511.843 848.261 515.46 852.286 519.079 851.686 522.698 843.887 526.318 852.641 529.936 848.92 533.554 845.241 537.174 845.4 540.799 851.885 544.424 844.507 548.149 846.197 550.882 850.983 555.649 847.19 556.134 854.942 559.313 855.563 561.778 857.5 568.791 854.898 566.087 861.992 574.802 860.172 568.264 867.787 575.695 868.321 570.383 873.333 572.313 876.116 575.993 879.263 571.85 883.679 571.267 888.095 578.605 891.943 575.763 895.248 570.007 897.048 572.627 901.678 571.766 905.276 572.783 910.715 568.738 912.41 562.507 910.774 560.756 914.09 559.111 918.589 554.204 916.043 552.001 921.296 548.418 923.582 544.424 922.488" style="fill: none; stroke: #000; stroke-linecap: round; stroke-linejoin: round; stroke-width: 35px;"/>
    </g>
    <g>
      <polygon points="619.417 860.656 615.831 866.338 612.245 866.049 608.658 858.012 605.07 859.297 601.482 864.908 597.895 864.763 594.309 862.048 590.722 866.921 587.135 863.071 583.547 861.303 579.959 857.377 576.372 857.537 572.786 866.273 569.204 866.413 565.622 861.825 562.04 864.493 558.457 864.597 554.873 865.871 551.287 862.737 547.698 862.618 544.111 861.46 540.526 864.331 536.942 864.815 533.358 864.459 529.774 857.232 526.188 857.774 522.6 866.804 519.011 860.905 515.425 861.878 511.839 857.388 508.254 863.591 504.667 861.522 501.078 865.65 497.489 862.683 493.902 865.268 490.316 864.901 486.727 861.92 483.137 866.657 479.549 859.74 475.961 864.349 472.372 861.199 468.782 860.83 465.193 860.425 461.604 859.215 458.014 860.408 454.425 862.946 450.834 865.615 447.244 857.176 443.654 866.474 440.064 865.172 436.472 861.062 432.886 857.795 429.295 858.292 425.709 865.59 422.118 862.345 418.529 862.658 414.937 866.139 411.347 860.807 407.756 858.59 404.162 862.405 400.569 862.589 396.976 862.49 393.383 864.094 389.79 865.97 386.197 863.991 382.597 865.637 378.998 859.425 375.434 862.147 370.974 865.686 368.793 859.676 366.828 855.793 363.225 855.621 356.692 858.483 356.537 852.977 353.113 851.16 349.431 849.098 346.779 846.036 348.825 841.076 346.585 837.915 346.965 834.127 348.203 830.518 348.273 826.102 349.754 821.686 349.465 818.355 347.269 814.444 349.233 811.269 351.541 808.463 350.994 804.087 351.885 800.06 354.392 797.078 356.829 793.888 363.563 797.115 365.036 792.694 370.03 796.058 371.519 788.918 375.256 788.465 378.998 788.212 382.584 786.939 386.17 794.382 389.757 787.155 393.345 791.731 396.933 787.813 400.519 787.091 404.106 785.326 407.692 790.219 411.279 785.488 414.867 791.252 418.455 788.762 422.042 789.502 425.629 789.854 429.211 786.467 432.793 793.388 436.374 785.931 439.957 793.861 443.541 790.25 447.127 788.692 450.716 787.848 454.303 786.711 457.888 786.595 461.472 789.778 465.056 794.62 468.64 790.936 472.226 788.198 475.815 787.518 479.403 789.155 482.99 790.552 486.575 785.764 490.161 791.5 493.747 794.862 497.337 792.473 500.926 792.849 504.512 785.458 508.099 792.978 511.687 788.376 515.278 789.659 518.866 789.869 522.454 791.209 526.043 789.202 529.633 794.256 533.221 791.404 536.81 789.603 540.401 789.478 543.99 794.603 547.581 793.919 551.17 794.626 554.761 793.659 558.351 789.885 561.942 790.688 565.529 787.343 569.119 791.656 572.706 794.55 576.296 792.541 579.885 786.667 583.477 785.769 587.067 793.489 590.659 791.614 594.252 793.6 597.846 786.174 601.439 791.826 605.031 785.389 608.624 787.406 612.218 787.188 615.817 787.718 619.417 790.722 623.003 789.861 626.143 792.224 629.349 793.304 632.071 795.407 637.816 792.411 636.439 800.337 641.477 799.627 646.675 799.947 646.869 804.437 651.908 806.036 649.102 811.298 647.562 815.258 649.226 818.324 650.635 821.686 645.996 826.102 647.346 830.518 650.009 833.966 652.683 838.109 652.087 841.951 646.978 843.791 644.686 846.394 647.474 852.897 638.906 850.008 637.967 853.782 634.223 854.089 634.457 861.745 629.76 860.076 625.573 857.47 623.405 865.954 619.417 860.656" style="fill: #fff;"/>
      <polygon points="619.417 860.656 615.831 866.338 612.245 866.049 608.658 858.012 605.07 859.297 601.482 864.908 597.895 864.763 594.309 862.048 590.722 866.921 587.135 863.071 583.547 861.303 579.959 857.377 576.372 857.537 572.786 866.273 569.204 866.413 565.622 861.825 562.04 864.493 558.457 864.597 554.873 865.871 551.287 862.737 547.698 862.618 544.111 861.46 540.526 864.331 536.942 864.815 533.358 864.459 529.774 857.232 526.188 857.774 522.6 866.804 519.011 860.905 515.425 861.878 511.839 857.388 508.254 863.591 504.667 861.522 501.078 865.65 497.489 862.683 493.902 865.268 490.316 864.901 486.727 861.92 483.137 866.657 479.549 859.74 475.961 864.349 472.372 861.199 468.782 860.83 465.193 860.425 461.604 859.215 458.014 860.408 454.425 862.946 450.834 865.615 447.244 857.176 443.654 866.474 440.064 865.172 436.472 861.062 432.886 857.795 429.295 858.292 425.709 865.59 422.118 862.345 418.529 862.658 414.937 866.139 411.347 860.807 407.756 858.59 404.162 862.405 400.569 862.589 396.976 862.49 393.383 864.094 389.79 865.97 386.197 863.991 382.597 865.637 378.998 859.425 375.434 862.147 370.974 865.686 368.793 859.676 366.828 855.793 363.225 855.621 356.692 858.483 356.537 852.977 353.113 851.16 349.431 849.098 346.779 846.036 348.825 841.076 346.585 837.915 346.965 834.127 348.203 830.518 348.273 826.102 349.754 821.686 349.465 818.355 347.269 814.444 349.233 811.269 351.541 808.463 350.994 804.087 351.885 800.06 354.392 797.078 356.829 793.888 363.563 797.115 365.036 792.694 370.03 796.058 371.519 788.918 375.256 788.465 378.998 788.212 382.584 786.939 386.17 794.382 389.757 787.155 393.345 791.731 396.933 787.813 400.519 787.091 404.106 785.326 407.692 790.219 411.279 785.488 414.867 791.252 418.455 788.762 422.042 789.502 425.629 789.854 429.211 786.467 432.793 793.388 436.374 785.931 439.957 793.861 443.541 790.25 447.127 788.692 450.716 787.848 454.303 786.711 457.888 786.595 461.472 789.778 465.056 794.62 468.64 790.936 472.226 788.198 475.815 787.518 479.403 789.155 482.99 790.552 486.575 785.764 490.161 791.5 493.747 794.862 497.337 792.473 500.926 792.849 504.512 785.458 508.099 792.978 511.687 788.376 515.278 789.659 518.866 789.869 522.454 791.209 526.043 789.202 529.633 794.256 533.221 791.404 536.81 789.603 540.401 789.478 543.99 794.603 547.581 793.919 551.17 794.626 554.761 793.659 558.351 789.885 561.942 790.688 565.529 787.343 569.119 791.656 572.706 794.55 576.296 792.541 579.885 786.667 583.477 785.769 587.067 793.489 590.659 791.614 594.252 793.6 597.846 786.174 601.439 791.826 605.031 785.389 608.624 787.406 612.218 787.188 615.817 787.718 619.417 790.722 623.003 789.861 626.143 792.224 629.349 793.304 632.071 795.407 637.816 792.411 636.439 800.337 641.477 799.627 646.675 799.947 646.869 804.437 651.908 806.036 649.102 811.298 647.562 815.258 649.226 818.324 650.635 821.686 645.996 826.102 647.346 830.518 650.009 833.966 652.683 838.109 652.087 841.951 646.978 843.791 644.686 846.394 647.474 852.897 638.906 850.008 637.967 853.782 634.223 854.089 634.457 861.745 629.76 860.076 625.573 857.47 623.405 865.954 619.417 860.656" style="fill: none; stroke: #000; stroke-linecap: round; stroke-linejoin: round; stroke-width: 35px;"/>
    </g>
    <g>
      <polygon points="646.949 798.754 643.348 799.723 639.747 790.93 636.144 795.828 632.541 793.4 628.939 794.409 625.337 792.412 621.736 797.601 618.135 796.93 614.534 791.556 610.932 793.85 607.33 797.848 603.727 793.179 600.124 799.702 596.522 791.652 592.92 792.064 589.319 797.36 585.717 799.497 582.115 796.577 578.511 794.688 574.908 798.366 571.306 799.422 567.704 793.965 564.102 795.219 560.499 797.661 556.896 798.949 553.293 795.108 549.69 795.687 546.088 795.059 542.49 793.205 538.893 792.525 535.296 796.031 531.698 796.718 528.099 798.204 524.497 796.992 520.893 798.943 517.29 795.646 513.69 790.704 510.09 799.112 506.491 790.76 502.891 800.041 499.29 791.76 495.686 793.249 492.082 799.94 488.48 799.781 484.879 798.031 481.278 796.647 477.676 799.712 474.071 796.362 470.467 799.894 466.865 791.527 463.263 796.436 459.659 796.613 456.053 790.454 452.449 792.989 448.846 800.254 445.242 795.489 441.636 794.479 438.032 790.524 434.428 799.591 430.822 798.261 427.217 791.347 423.611 795.963 420.006 796.062 416.4 797.408 412.794 791.058 409.187 795.646 405.586 791.354 401.98 794.538 398.378 797.377 394.771 799.659 391.167 792.64 387.56 792.632 383.954 797.162 380.347 795.924 376.738 798.095 373.129 798.934 369.521 799.954 365.913 791.966 362.305 799.069 358.695 793.804 355.08 796.878 351.465 792.176 348.495 790.32 344.383 795.043 341.913 791.312 338.73 790.463 334.436 791.116 329.931 791.015 331.905 783.575 326.126 784.223 321.307 782.969 319.936 779.202 320.771 774.757 319.348 771.347 315.699 768.042 321.902 764.016 318.004 759.6 322.924 755.184 316.24 751.22 324.85 749.105 319.791 744.1 319.255 739.668 326.159 739.284 323.305 732.723 327.459 731.177 330.124 728.424 334.793 728.648 337.716 726.633 340.941 725.106 344.508 724.71 348.141 725.704 351.465 719.102 355.066 725.028 358.668 721.106 362.27 720.186 365.874 721.781 369.476 722.194 373.078 722.003 376.679 727.749 380.28 724.366 383.881 718.918 387.482 721.116 391.085 719.571 394.688 721.692 398.291 728.022 401.893 724.642 405.494 724.511 409.096 725.898 412.698 723.483 416.3 727.995 419.903 727.976 423.507 721.692 427.109 720.732 430.711 721.265 434.313 727.444 437.915 726.299 441.519 725.754 445.122 724.81 448.724 722.888 452.327 723.752 455.924 718.944 459.521 722.178 463.118 725.541 466.716 728.23 470.316 724.639 473.918 722.531 477.522 723.432 481.124 726.131 484.725 722.276 488.324 719.782 491.924 727.147 495.523 721.555 499.125 720.105 502.728 720.609 506.333 724.232 509.935 724.899 513.535 727.401 517.136 728.542 520.739 725.696 524.343 719.242 527.948 726.107 531.55 726.319 535.152 723.031 538.755 724.211 542.362 727.851 545.965 723.688 549.568 719.207 553.173 722.014 556.778 727.267 560.382 722.842 563.987 722.059 567.593 725.33 571.197 727.571 574.804 728.685 578.409 723.525 582.015 721.743 585.62 719.306 589.227 726.102 592.829 723.15 596.435 724.401 600.037 728.226 603.643 721.438 607.247 719.313 610.855 723.602 614.46 723.22 618.068 720.352 621.676 726.606 625.285 718.974 628.894 720.253 632.502 719.257 636.11 722.795 639.719 726.961 643.334 723.215 646.949 722.511 650.462 724.013 654.052 724.069 656.042 729.203 661.107 725.789 665.543 725.599 665.747 731.612 665.904 736.231 670.359 736.518 673.667 738.397 676.639 740.886 673.922 745.746 674.084 748.987 675.718 751.939 678.844 755.184 674.014 759.6 683.324 764.016 679.46 767.679 677.099 770.899 672.911 773.102 672.87 776.498 671.984 779.745 669.316 781.852 670.881 787.95 667.868 790.248 661.312 786.884 661.02 793.234 657.927 795.389 654.936 799.022 650.964 799.685 646.949 798.754" style="fill: #fff;"/>
      <polygon points="646.949 798.754 643.348 799.723 639.747 790.93 636.144 795.828 632.541 793.4 628.939 794.409 625.337 792.412 621.736 797.601 618.135 796.93 614.534 791.556 610.932 793.85 607.33 797.848 603.727 793.179 600.124 799.702 596.522 791.652 592.92 792.064 589.319 797.36 585.717 799.497 582.115 796.577 578.511 794.688 574.908 798.366 571.306 799.422 567.704 793.965 564.102 795.219 560.499 797.661 556.896 798.949 553.293 795.108 549.69 795.687 546.088 795.059 542.49 793.205 538.893 792.525 535.296 796.031 531.698 796.718 528.099 798.204 524.497 796.992 520.893 798.943 517.29 795.646 513.69 790.704 510.09 799.112 506.491 790.76 502.891 800.041 499.29 791.76 495.686 793.249 492.082 799.94 488.48 799.781 484.879 798.031 481.278 796.647 477.676 799.712 474.071 796.362 470.467 799.894 466.865 791.527 463.263 796.436 459.659 796.613 456.053 790.454 452.449 792.989 448.846 800.254 445.242 795.489 441.636 794.479 438.032 790.524 434.428 799.591 430.822 798.261 427.217 791.347 423.611 795.963 420.006 796.062 416.4 797.408 412.794 791.058 409.187 795.646 405.586 791.354 401.98 794.538 398.378 797.377 394.771 799.659 391.167 792.64 387.56 792.632 383.954 797.162 380.347 795.924 376.738 798.095 373.129 798.934 369.521 799.954 365.913 791.966 362.305 799.069 358.695 793.804 355.08 796.878 351.465 792.176 348.495 790.32 344.383 795.043 341.913 791.312 338.73 790.463 334.436 791.116 329.931 791.015 331.905 783.575 326.126 784.223 321.307 782.969 319.936 779.202 320.771 774.757 319.348 771.347 315.699 768.042 321.902 764.016 318.004 759.6 322.924 755.184 316.24 751.22 324.85 749.105 319.791 744.1 319.255 739.668 326.159 739.284 323.305 732.723 327.459 731.177 330.124 728.424 334.793 728.648 337.716 726.633 340.941 725.106 344.508 724.71 348.141 725.704 351.465 719.102 355.066 725.028 358.668 721.106 362.27 720.186 365.874 721.781 369.476 722.194 373.078 722.003 376.679 727.749 380.28 724.366 383.881 718.918 387.482 721.116 391.085 719.571 394.688 721.692 398.291 728.022 401.893 724.642 405.494 724.511 409.096 725.898 412.698 723.483 416.3 727.995 419.903 727.976 423.507 721.692 427.109 720.732 430.711 721.265 434.313 727.444 437.915 726.299 441.519 725.754 445.122 724.81 448.724 722.888 452.327 723.752 455.924 718.944 459.521 722.178 463.118 725.541 466.716 728.23 470.316 724.639 473.918 722.531 477.522 723.432 481.124 726.131 484.725 722.276 488.324 719.782 491.924 727.147 495.523 721.555 499.125 720.105 502.728 720.609 506.333 724.232 509.935 724.899 513.535 727.401 517.136 728.542 520.739 725.696 524.343 719.242 527.948 726.107 531.55 726.319 535.152 723.031 538.755 724.211 542.362 727.851 545.965 723.688 549.568 719.207 553.173 722.014 556.778 727.267 560.382 722.842 563.987 722.059 567.593 725.33 571.197 727.571 574.804 728.685 578.409 723.525 582.015 721.743 585.62 719.306 589.227 726.102 592.829 723.15 596.435 724.401 600.037 728.226 603.643 721.438 607.247 719.313 610.855 723.602 614.46 723.22 618.068 720.352 621.676 726.606 625.285 718.974 628.894 720.253 632.502 719.257 636.11 722.795 639.719 726.961 643.334 723.215 646.949 722.511 650.462 724.013 654.052 724.069 656.042 729.203 661.107 725.789 665.543 725.599 665.747 731.612 665.904 736.231 670.359 736.518 673.667 738.397 676.639 740.886 673.922 745.746 674.084 748.987 675.718 751.939 678.844 755.184 674.014 759.6 683.324 764.016 679.46 767.679 677.099 770.899 672.911 773.102 672.87 776.498 671.984 779.745 669.316 781.852 670.881 787.95 667.868 790.248 661.312 786.884 661.02 793.234 657.927 795.389 654.936 799.022 650.964 799.685 646.949 798.754" style="fill: none; stroke: #000; stroke-linecap: round; stroke-linejoin: round; stroke-width: 35px;"/>
    </g>
  </g>
</svg>