<?xml version="1.0" encoding="UTF-8"?>
<svg id="Sticker" xmlns="http://www.w3.org/2000/svg" width="1000" height="1000" viewBox="0 0 1000 1000">
  <polygon points="499.996 116.089 498.524 122 502.671 123.753 501.296 128.694 503.05 131.829 504.795 134.969 513.413 134.141 513.81 138.06 510.341 144.211 515.15 145.584 520.298 146.761 523.147 149.263 525.545 152.026 525.991 155.914 522.764 161.923 523.269 165.776 531.645 165.085 528.338 171.138 534.307 171.835 534.749 175.723 531.769 181.586 538.65 181.756 538.681 185.88 544.829 186.472 542.075 192.203 548.892 192.409 545.255 198.65 549.275 200.47 549.681 204.377 554.138 205.945 549.99 212.481 553.371 214.67 556.066 217.256 560.593 218.784 559.298 223.674 566.986 223.377 562.233 230.264 567.765 231.213 569.865 234.145 572.311 236.876 572.761 240.761 574.891 243.677 575.087 247.71 577.15 250.666 578.979 253.758 579.386 257.671 586.47 257.731 585.128 262.656 589.708 264.162 591.419 267.323 593.407 270.323 595.688 273.154 591.855 279.514 597.746 280.258 596.933 284.874 595.185 290.028 604.623 288.724 602.865 293.883 606.218 296.091 608.618 298.85 605.635 304.715 611.284 305.598 612.133 309.251 617.402 310.353 613.983 316.47 618.346 318.095 617.189 322.908 620.601 325.082 621.935 328.457 620.696 333.318 623.619 335.776 627.706 337.564 625.651 342.897 627.161 346.174 632.912 347.002 635.19 349.837 637.176 352.842 637.855 356.6 636.493 361.537 643.41 361.692 642.236 366.518 641.56 371.057 650.872 369.827 644.823 377.466 654.633 375.949 651.165 382.097 655.741 383.6 657.453 386.758 658.527 390.283 662.662 392.042 661.499 396.859 665.236 398.848 667.314 401.794 670.03 404.373 669.416 408.875 669.085 413.214 673.106 415.041 673.52 418.952 673.03 423.386 675.733 425.977 680.888 427.152 683.755 429.647 680.456 435.702 680.89 439.6 687.928 439.684 685.111 445.458 689.694 446.96 690.334 450.738 689.974 455.092 699.413 453.79 700.578 457.264 696.893 463.54 704.682 463.191 705.507 466.863 704.045 471.856 708.858 473.227 711.925 475.608 711.631 479.929 715.073 482.094 713.192 487.331 717.987 488.713 718.859 492.359 720.714 495.437 721.023 499.407 722.022 502.978 725.318 505.224 722.149 511.202 726.852 512.635 731.185 514.282 734.611 516.455 733.511 521.24 737.569 523.049 741.323 525.035 736.228 532.128 743.161 532.277 746.01 534.782 743.046 540.643 742.676 545.005 751.371 544.135 753.252 547.198 748.076 554.336 755.883 553.979 751.565 560.623 757.655 561.259 757.08 565.745 756.184 570.414 760.311 572.183 762.824 574.882 767.741 576.193 768.323 580.007 771.906 582.089 774.522 584.729 770.382 591.271 777.434 591.352 777.482 595.477 778.118 599.263 777.878 603.553 783.161 604.653 784.965 607.762 787.738 610.312 785.149 615.958 790.895 616.793 789.36 621.833 794.261 623.156 791.69 628.793 794.498 631.323 794.247 635.619 798.532 637.297 799.649 640.804 800.579 644.42 807.933 644.328 808.917 647.912 808.383 652.366 810.172 655.481 811.258 659.004 816.365 660.209 813.258 666.155 816.539 668.411 819.707 670.73 825.288 671.655 820.919 678.324 821.493 682.14 828.89 682.016 832.177 684.268 828.259 690.682 833.807 691.634 835.436 694.846 838.921 696.985 837.847 701.754 843.335 702.735 843.522 706.776 844.699 710.248 848.41 712.26 847.049 717.2 849.944 719.681 851.511 722.927 849.895 728.011 851.365 731.315 856.514 732.498 853.13 738.606 856.875 740.597 857.605 744.327 859.337 747.481 868.51 746.343 862.624 753.895 867.608 755.171 872.498 756.503 868.291 763.088 877.582 761.879 873.006 768.676 874.99 771.687 880.481 772.672 882.514 775.655 882.532 779.8 885.742 782.104 890.201 783.684 886.077 790.214 890.208 791.982 890.948 795.713 897.501 796.082 891.158 803.902 899.461 803.263 897.901 808.323 904.035 808.939 899.014 815.996 905.942 816.157 908.757 818.693 906.736 824.015 911.491 825.431 910.832 829.973 915.249 831.584 911.865 837.707 913.154 836.89 913.255 839.905 909.664 843.505 906.072 843.67 902.48 838.343 898.887 840.786 895.295 836.22 891.702 840.463 888.108 834.911 884.515 842.614 880.922 842.236 877.329 841.632 873.737 842.115 870.144 837.905 866.552 835.71 862.96 834.447 859.369 839.57 855.777 838.455 852.185 840.328 848.594 835.695 845.002 843.232 841.411 840.82 837.819 835.961 834.227 840.179 830.635 835.981 827.043 836.656 823.45 835.439 819.857 839.855 816.264 838.456 812.67 840.741 809.077 837.969 805.484 838.936 801.891 839.21 798.299 834.48 794.706 840.781 791.119 835.257 787.532 838.238 783.945 837.715 780.357 835.567 776.768 843.227 773.179 842.953 769.59 836.644 766 841.251 762.409 838.672 758.818 840.661 755.225 840.67 751.632 839.686 748.039 840.892 744.445 836.604 740.853 835.982 737.261 835.812 733.67 842.225 730.079 841.635 726.489 838.698 722.899 838.859 719.31 840.459 715.721 838.578 712.132 835.358 708.544 836.133 704.956 834.37 701.368 841.346 697.78 843.601 694.192 835.982 690.604 837.74 687.016 835.878 683.428 840.83 679.839 841.465 676.25 842.117 672.661 836.949 669.072 843.673 665.482 841.32 661.891 843.685 658.3 839.921 654.708 836.064 651.115 839.775 647.522 834.507 643.928 841.51 640.333 838.743 636.74 841.765 633.147 843.486 629.555 838.602 625.964 838.001 622.373 835.13 618.782 837.341 615.192 839.21 611.602 836.466 608.013 836.343 604.423 836.922 600.833 834.618 597.244 843.767 593.654 841.333 590.064 839.157 586.474 836.78 582.883 839.857 579.292 837.975 575.7 839.969 572.107 840.036 568.514 838.839 564.92 841.798 561.325 838.453 557.73 841.204 554.137 836.083 550.544 841.48 546.951 837.643 543.359 837.117 539.768 836.46 536.177 835.69 532.586 842.167 528.995 843.661 525.404 836.502 521.813 837.838 518.221 838.109 514.63 835.382 511.037 838.301 507.445 840.305 503.851 835.401 500.257 839.72 496.661 837.953 493.066 834.695 489.472 838.029 485.879 834.934 482.286 836.375 478.693 839.701 475.101 842.4 471.509 835.786 467.917 835.291 464.325 843.118 460.733 839.161 457.14 836.032 453.547 836.205 449.952 839.585 446.357 838.778 442.761 841.799 439.166 835.182 435.572 840.61 431.978 836.216 428.385 834.903 424.792 841.233 421.2 838.443 417.607 834.993 414.014 840.171 410.42 841.137 406.826 840.361 403.23 835.957 399.634 835.821 396.039 838.487 392.444 834.922 388.85 841.074 385.257 840.989 381.663 839.802 378.07 836.759 374.476 837.55 370.881 839.423 367.285 835.492 363.689 841.466 360.093 842.599 356.499 843.456 352.905 838.501 349.311 837.148 345.716 834.166 342.122 837.276 338.526 838.44 334.93 834.195 331.334 837.92 327.739 843.589 324.144 834.02 320.55 839.835 316.955 835.832 313.359 842.707 309.763 841.598 306.167 839.042 302.571 836.641 298.976 838.162 295.381 842.649 291.786 838.348 288.189 843.535 284.593 837.864 280.997 837.975 277.402 834.132 273.812 839.344 270.221 834.903 266.631 841.469 263.04 841.943 259.447 834.571 255.853 837.039 252.255 841.236 248.66 838.417 245.066 838.564 241.473 838.94 237.881 840.895 234.288 842.362 230.694 839.146 227.097 836.243 223.5 838.865 219.905 836.558 216.311 841.017 212.717 835.492 209.122 838.458 205.524 836.844 201.926 838.232 198.331 839.017 194.736 836.58 191.139 840.058 187.54 841.079 183.943 838.819 180.347 843.854 176.75 837.378 173.151 842.662 169.554 838.513 165.956 843.996 162.357 834.645 158.76 835.506 155.16 837.415 151.562 835.222 147.963 836.214 144.364 843.488 140.765 835.805 137.17 841.54 133.571 843.906 129.975 839.418 126.376 835.455 122.779 836.693 119.178 837.619 115.58 843.578 111.979 834.466 108.378 838.615 104.776 839.165 101.174 843.521 97.573 840.49 93.972 837.172 90.369 835.886 86.761 840.469 81.092 840.201 81.471 833.881 89.669 834.467 85.436 827.876 91.734 827.364 90.938 822.757 93.416 820.04 94.452 816.49 93.333 811.695 97.076 809.707 104.807 810.022 106.229 806.696 105.109 801.902 108.976 799.989 105.607 793.898 114.412 794.836 108.592 787.332 110.954 784.552 112.143 781.095 121.08 782.111 117.954 776.164 117.452 771.732 123.219 770.92 121.63 765.861 123.165 762.605 130.073 762.452 132.357 759.63 129.713 753.962 136.332 753.642 132.91 747.526 138.056 746.355 142.332 744.683 142.813 740.819 145.355 738.145 142.06 732.101 148.775 731.835 144.139 725.016 148.108 723.164 147.278 718.542 152.791 717.58 154.967 714.691 152.737 709.259 162.646 710.834 164.433 707.718 159.225 700.564 161.208 697.56 165.959 696.154 165.634 691.815 173.48 692.196 173.164 687.864 170.542 682.202 170.488 678.023 180.166 679.464 177.891 674.004 182.23 672.364 185.116 669.885 182.679 664.333 184.858 661.447 183.88 656.738 188.081 655.02 188.243 650.97 195.08 650.773 193.665 645.813 196.03 643.034 197.321 639.636 201.833 638.097 205.292 635.95 206.45 632.474 204.716 627.328 209.625 626.017 212.297 623.413 212.133 619.172 213.176 615.627 212.687 611.196 219.822 611.167 217.783 605.84 221.336 603.739 217.152 597.173 220.836 595.15 228.187 595.245 230.104 592.204 230.877 588.502 230.732 584.271 233.665 581.818 238.029 580.192 235.805 574.762 236.069 570.768 240.179 568.995 243.739 566.905 240.003 560.603 246.596 560.263 248.515 557.225 251.942 555.057 251.058 550.4 254.353 548.155 255.922 544.913 257.84 541.871 259.335 538.585 263.072 536.591 262.608 532.172 258.372 525.575 263.312 524.277 269.568 523.739 269.819 519.735 273.799 517.885 269.571 511.296 273.758 509.566 277.915 507.819 280.852 505.368 282.396 502.112 276.952 494.821 279.837 492.339 283.409 490.254 284.787 486.901 284.384 482.519 292.959 483.319 292.005 478.618 295.12 476.264 297.639 473.567 294.861 467.812 299.614 466.406 302.119 463.703 304.289 460.807 305.226 457.2 302.128 451.262 309.584 451.419 311.038 448.11 314.828 446.15 312.422 440.611 310.859 435.559 315.066 433.837 321.115 433.177 321.121 429.028 320.519 424.529 320.47 420.349 327.233 420.104 326.153 415.331 326.591 411.434 329.185 408.783 330.224 405.233 332.354 402.313 334.144 399.197 335.373 395.755 337.089 392.593 339.185 389.65 346.175 389.534 347.828 386.337 347.788 382.163 347.707 377.966 348.663 374.368 356.827 374.932 352.586 368.332 353.022 364.433 353.7 360.672 356.681 358.239 360.789 356.459 361.918 352.959 368.277 352.48 366.254 347.161 369.61 344.948 367.246 339.432 368.616 336.07 376.915 336.708 376.917 332.557 379.494 329.893 381.524 326.913 378.041 320.751 381.188 318.417 386.375 317.259 388.862 314.541 389.504 310.759 394.49 309.485 392.882 304.411 390.457 298.863 391.464 295.294 394.498 292.893 395.34 289.227 402.195 289.034 401.357 284.402 405.924 282.892 407.198 279.48 404.124 273.559 406.484 270.774 412.169 269.907 416.153 268.055 413.775 262.527 419.459 261.656 417.498 256.373 424.92 256.509 422.308 250.852 425.495 248.542 429.829 246.893 429.275 242.419 429.358 238.312 428.225 233.506 433.311 232.291 433.788 228.416 435.468 225.233 440.942 224.238 441.176 220.218 445.392 218.5 446.03 214.716 448.055 211.731 446.875 206.893 449.95 204.514 449.618 200.169 452.215 197.513 450.68 192.47 459.263 193.272 459.234 189.1 458.58 184.565 466.242 184.834 460.403 177.305 466.802 176.844 468.464 173.647 467.87 169.151 467.406 164.733 468.67 161.31 472.364 159.284 477.435 158.059 481.288 156.126 481.803 152.268 479.993 147.064 483.208 144.763 489.05 143.977 483.165 136.419 490.654 136.582 493.426 134.026 489.547 127.626 495.145 126.697 493.59 121.637 494.771 118.404 499.996 116.089"/>
  <polygon points="499.996 116.089 498.524 122 502.671 123.753 501.296 128.694 503.05 131.829 504.795 134.969 513.413 134.141 513.81 138.06 510.341 144.211 515.15 145.584 520.298 146.761 523.147 149.263 525.545 152.026 525.991 155.914 522.764 161.923 523.269 165.776 531.645 165.085 528.338 171.138 534.307 171.835 534.749 175.723 531.769 181.586 538.65 181.756 538.681 185.88 544.829 186.472 542.075 192.203 548.892 192.409 545.255 198.65 549.275 200.47 549.681 204.377 554.138 205.945 549.99 212.481 553.371 214.67 556.066 217.256 560.593 218.784 559.298 223.674 566.986 223.377 562.233 230.264 567.765 231.213 569.865 234.145 572.311 236.876 572.761 240.761 574.891 243.677 575.087 247.71 577.15 250.666 578.979 253.758 579.386 257.671 586.47 257.731 585.128 262.656 589.708 264.162 591.419 267.323 593.407 270.323 595.688 273.154 591.855 279.514 597.746 280.258 596.933 284.874 595.185 290.028 604.623 288.724 602.865 293.883 606.218 296.091 608.618 298.85 605.635 304.715 611.284 305.598 612.133 309.251 617.402 310.353 613.983 316.47 618.346 318.095 617.189 322.908 620.601 325.082 621.935 328.457 620.696 333.318 623.619 335.776 627.706 337.564 625.651 342.897 627.161 346.174 632.912 347.002 635.19 349.837 637.176 352.842 637.855 356.6 636.493 361.537 643.41 361.692 642.236 366.518 641.56 371.057 650.872 369.827 644.823 377.466 654.633 375.949 651.165 382.097 655.741 383.6 657.453 386.758 658.527 390.283 662.662 392.042 661.499 396.859 665.236 398.848 667.314 401.794 670.03 404.373 669.416 408.875 669.085 413.214 673.106 415.041 673.52 418.952 673.03 423.386 675.733 425.977 680.888 427.152 683.755 429.647 680.456 435.702 680.89 439.6 687.928 439.684 685.111 445.458 689.694 446.96 690.334 450.738 689.974 455.092 699.413 453.79 700.578 457.264 696.893 463.54 704.682 463.191 705.507 466.863 704.045 471.856 708.858 473.227 711.925 475.608 711.631 479.929 715.073 482.094 713.192 487.331 717.987 488.713 718.859 492.359 720.714 495.437 721.023 499.407 722.022 502.978 725.318 505.224 722.149 511.202 726.852 512.635 731.185 514.282 734.611 516.455 733.511 521.24 737.569 523.049 741.323 525.035 736.228 532.128 743.161 532.277 746.01 534.782 743.046 540.643 742.676 545.005 751.371 544.135 753.252 547.198 748.076 554.336 755.883 553.979 751.565 560.623 757.655 561.259 757.08 565.745 756.184 570.414 760.311 572.183 762.824 574.882 767.741 576.193 768.323 580.007 771.906 582.089 774.522 584.729 770.382 591.271 777.434 591.352 777.482 595.477 778.118 599.263 777.878 603.553 783.161 604.653 784.965 607.762 787.738 610.312 785.149 615.958 790.895 616.793 789.36 621.833 794.261 623.156 791.69 628.793 794.498 631.323 794.247 635.619 798.532 637.297 799.649 640.804 800.579 644.42 807.933 644.328 808.917 647.912 808.383 652.366 810.172 655.481 811.258 659.004 816.365 660.209 813.258 666.155 816.539 668.411 819.707 670.73 825.288 671.655 820.919 678.324 821.493 682.14 828.89 682.016 832.177 684.268 828.259 690.682 833.807 691.634 835.436 694.846 838.921 696.985 837.847 701.754 843.335 702.735 843.522 706.776 844.699 710.248 848.41 712.26 847.049 717.2 849.944 719.681 851.511 722.927 849.895 728.011 851.365 731.315 856.514 732.498 853.13 738.606 856.875 740.597 857.605 744.327 859.337 747.481 868.51 746.343 862.624 753.895 867.608 755.171 872.498 756.503 868.291 763.088 877.582 761.879 873.006 768.676 874.99 771.687 880.481 772.672 882.514 775.655 882.532 779.8 885.742 782.104 890.201 783.684 886.077 790.214 890.208 791.982 890.948 795.713 897.501 796.082 891.158 803.902 899.461 803.263 897.901 808.323 904.035 808.939 899.014 815.996 905.942 816.157 908.757 818.693 906.736 824.015 911.491 825.431 910.832 829.973 915.249 831.584 911.865 837.707 913.154 836.89 913.255 839.905 909.664 843.505 906.072 843.67 902.48 838.343 898.887 840.786 895.295 836.22 891.702 840.463 888.108 834.911 884.515 842.614 880.922 842.236 877.329 841.632 873.737 842.115 870.144 837.905 866.552 835.71 862.96 834.447 859.369 839.57 855.777 838.455 852.185 840.328 848.594 835.695 845.002 843.232 841.411 840.82 837.819 835.961 834.227 840.179 830.635 835.981 827.043 836.656 823.45 835.439 819.857 839.855 816.264 838.456 812.67 840.741 809.077 837.969 805.484 838.936 801.891 839.21 798.299 834.48 794.706 840.781 791.119 835.257 787.532 838.238 783.945 837.715 780.357 835.567 776.768 843.227 773.179 842.953 769.59 836.644 766 841.251 762.409 838.672 758.818 840.661 755.225 840.67 751.632 839.686 748.039 840.892 744.445 836.604 740.853 835.982 737.261 835.812 733.67 842.225 730.079 841.635 726.489 838.698 722.899 838.859 719.31 840.459 715.721 838.578 712.132 835.358 708.544 836.133 704.956 834.37 701.368 841.346 697.78 843.601 694.192 835.982 690.604 837.74 687.016 835.878 683.428 840.83 679.839 841.465 676.25 842.117 672.661 836.949 669.072 843.673 665.482 841.32 661.891 843.685 658.3 839.921 654.708 836.064 651.115 839.775 647.522 834.507 643.928 841.51 640.333 838.743 636.74 841.765 633.147 843.486 629.555 838.602 625.964 838.001 622.373 835.13 618.782 837.341 615.192 839.21 611.602 836.466 608.013 836.343 604.423 836.922 600.833 834.618 597.244 843.767 593.654 841.333 590.064 839.157 586.474 836.78 582.883 839.857 579.292 837.975 575.7 839.969 572.107 840.036 568.514 838.839 564.92 841.798 561.325 838.453 557.73 841.204 554.137 836.083 550.544 841.48 546.951 837.643 543.359 837.117 539.768 836.46 536.177 835.69 532.586 842.167 528.995 843.661 525.404 836.502 521.813 837.838 518.221 838.109 514.63 835.382 511.037 838.301 507.445 840.305 503.851 835.401 500.257 839.72 496.661 837.953 493.066 834.695 489.472 838.029 485.879 834.934 482.286 836.375 478.693 839.701 475.101 842.4 471.509 835.786 467.917 835.291 464.325 843.118 460.733 839.161 457.14 836.032 453.547 836.205 449.952 839.585 446.357 838.778 442.761 841.799 439.166 835.182 435.572 840.61 431.978 836.216 428.385 834.903 424.792 841.233 421.2 838.443 417.607 834.993 414.014 840.171 410.42 841.137 406.826 840.361 403.23 835.957 399.634 835.821 396.039 838.487 392.444 834.922 388.85 841.074 385.257 840.989 381.663 839.802 378.07 836.759 374.476 837.55 370.881 839.423 367.285 835.492 363.689 841.466 360.093 842.599 356.499 843.456 352.905 838.501 349.311 837.148 345.716 834.166 342.122 837.276 338.526 838.44 334.93 834.195 331.334 837.92 327.739 843.589 324.144 834.02 320.55 839.835 316.955 835.832 313.359 842.707 309.763 841.598 306.167 839.042 302.571 836.641 298.976 838.162 295.381 842.649 291.786 838.348 288.189 843.535 284.593 837.864 280.997 837.975 277.402 834.132 273.812 839.344 270.221 834.903 266.631 841.469 263.04 841.943 259.447 834.571 255.853 837.039 252.255 841.236 248.66 838.417 245.066 838.564 241.473 838.94 237.881 840.895 234.288 842.362 230.694 839.146 227.097 836.243 223.5 838.865 219.905 836.558 216.311 841.017 212.717 835.492 209.122 838.458 205.524 836.844 201.926 838.232 198.331 839.017 194.736 836.58 191.139 840.058 187.54 841.079 183.943 838.819 180.347 843.854 176.75 837.378 173.151 842.662 169.554 838.513 165.956 843.996 162.357 834.645 158.76 835.506 155.16 837.415 151.562 835.222 147.963 836.214 144.364 843.488 140.765 835.805 137.17 841.54 133.571 843.906 129.975 839.418 126.376 835.455 122.779 836.693 119.178 837.619 115.58 843.578 111.979 834.466 108.378 838.615 104.776 839.165 101.174 843.521 97.573 840.49 93.972 837.172 90.369 835.886 86.761 840.469 81.092 840.201 81.471 833.881 89.669 834.467 85.436 827.876 91.734 827.364 90.938 822.757 93.416 820.04 94.452 816.49 93.333 811.695 97.076 809.707 104.807 810.022 106.229 806.696 105.109 801.902 108.976 799.989 105.607 793.898 114.412 794.836 108.592 787.332 110.954 784.552 112.143 781.095 121.08 782.111 117.954 776.164 117.452 771.732 123.219 770.92 121.63 765.861 123.165 762.605 130.073 762.452 132.357 759.63 129.713 753.962 136.332 753.642 132.91 747.526 138.056 746.355 142.332 744.683 142.813 740.819 145.355 738.145 142.06 732.101 148.775 731.835 144.139 725.016 148.108 723.164 147.278 718.542 152.791 717.58 154.967 714.691 152.737 709.259 162.646 710.834 164.433 707.718 159.225 700.564 161.208 697.56 165.959 696.154 165.634 691.815 173.48 692.196 173.164 687.864 170.542 682.202 170.488 678.023 180.166 679.464 177.891 674.004 182.23 672.364 185.116 669.885 182.679 664.333 184.858 661.447 183.88 656.738 188.081 655.02 188.243 650.97 195.08 650.773 193.665 645.813 196.03 643.034 197.321 639.636 201.833 638.097 205.292 635.95 206.45 632.474 204.716 627.328 209.625 626.017 212.297 623.413 212.133 619.172 213.176 615.627 212.687 611.196 219.822 611.167 217.783 605.84 221.336 603.739 217.152 597.173 220.836 595.15 228.187 595.245 230.104 592.204 230.877 588.502 230.732 584.271 233.665 581.818 238.029 580.192 235.805 574.762 236.069 570.768 240.179 568.995 243.739 566.905 240.003 560.603 246.596 560.263 248.515 557.225 251.942 555.057 251.058 550.4 254.353 548.155 255.922 544.913 257.84 541.871 259.335 538.585 263.072 536.591 262.608 532.172 258.372 525.575 263.312 524.277 269.568 523.739 269.819 519.735 273.799 517.885 269.571 511.296 273.758 509.566 277.915 507.819 280.852 505.368 282.396 502.112 276.952 494.821 279.837 492.339 283.409 490.254 284.787 486.901 284.384 482.519 292.959 483.319 292.005 478.618 295.12 476.264 297.639 473.567 294.861 467.812 299.614 466.406 302.119 463.703 304.289 460.807 305.226 457.2 302.128 451.262 309.584 451.419 311.038 448.11 314.828 446.15 312.422 440.611 310.859 435.559 315.066 433.837 321.115 433.177 321.121 429.028 320.519 424.529 320.47 420.349 327.233 420.104 326.153 415.331 326.591 411.434 329.185 408.783 330.224 405.233 332.354 402.313 334.144 399.197 335.373 395.755 337.089 392.593 339.185 389.65 346.175 389.534 347.828 386.337 347.788 382.163 347.707 377.966 348.663 374.368 356.827 374.932 352.586 368.332 353.022 364.433 353.7 360.672 356.681 358.239 360.789 356.459 361.918 352.959 368.277 352.48 366.254 347.161 369.61 344.948 367.246 339.432 368.616 336.07 376.915 336.708 376.917 332.557 379.494 329.893 381.524 326.913 378.041 320.751 381.188 318.417 386.375 317.259 388.862 314.541 389.504 310.759 394.49 309.485 392.882 304.411 390.457 298.863 391.464 295.294 394.498 292.893 395.34 289.227 402.195 289.034 401.357 284.402 405.924 282.892 407.198 279.48 404.124 273.559 406.484 270.774 412.169 269.907 416.153 268.055 413.775 262.527 419.459 261.656 417.498 256.373 424.92 256.509 422.308 250.852 425.495 248.542 429.829 246.893 429.275 242.419 429.358 238.312 428.225 233.506 433.311 232.291 433.788 228.416 435.468 225.233 440.942 224.238 441.176 220.218 445.392 218.5 446.03 214.716 448.055 211.731 446.875 206.893 449.95 204.514 449.618 200.169 452.215 197.513 450.68 192.47 459.263 193.272 459.234 189.1 458.58 184.565 466.242 184.834 460.403 177.305 466.802 176.844 468.464 173.647 467.87 169.151 467.406 164.733 468.67 161.31 472.364 159.284 477.435 158.059 481.288 156.126 481.803 152.268 479.993 147.064 483.208 144.763 489.05 143.977 483.165 136.419 490.654 136.582 493.426 134.026 489.547 127.626 495.145 126.697 493.59 121.637 494.771 118.404 499.996 116.089" style="fill: none; stroke: #000; stroke-linecap: round; stroke-linejoin: round; stroke-width: 30px;"/>
</svg>