<?xml version="1.0" encoding="UTF-8"?>
<svg id="Sticker" xmlns="http://www.w3.org/2000/svg" width="1000" height="1000" viewBox="0 0 1000 1000">
  <path d="M342.477,120.352l5.095,3.597-4.934,3.597,3.847,3.597,2.252,3.597-1.695,3.597-5.851,3.598,5.487,3.598,2.101,3.598-3.668,3.598,5.223,3.598-3.393,3.598-3.458,3.597,5.843,3.597-4.335,3.592-3.085,3.592,7.203,3.592-4.955,3.593-3.125,3.593,3.055,3.594,4.363,3.594-5.387,3.595-1.566,3.596,4.03,3.596.755,3.597-5.201,3.598,4.992,3.599-5.323,3.598,2.48,3.597-2.545,3.597,9.642,3.596-4.066,3.596.779,3.595,1.734,3.595-2.472,3.594.655,3.594-1.584,3.594,2.206,3.593-6.561,3.593,3.721,3.593,4.416,3.593-1.846,3.593-2.863,3.593,5.201,3.593-9.081,3.593,2.788,3.593.165,3.594,5.31,3.594-4.111,3.594,1.127,3.595-2.104,3.595-.092,3.596,5.431,3.597-4.69,3.598.564,3.598,5.3,3.599-.525,3.599-3.927,3.598-2.978,3.598,1.088,3.597,4.559,3.596-.846,3.596-4.998,3.595-.193,3.595,7.477,3.595-4.638,3.595,1.589,3.595,2.12,3.595-6.462,3.595,3.075,3.595-2.308,3.595,6.307,3.595-6.817,3.596,1.905,3.596.248,3.597.793,3.597.707,3.598-3.711,3.599,5.906,3.6-1.515,3.599-1.153,3.599-2.252,3.598-.053,3.597,1.647,3.597,2.973,3.596-5.429,3.596,4.195,3.596-3.925,3.596-1.352,3.596,7.669,3.596-2.352,3.596,3.32,3.597-3.718,3.597,1.35,3.598-6.39,3.598-.295,3.599,6.664,3.6-2.233,3.6-2.954,3.599.89,3.598,1.085,3.598,3.793,3.597-4.077,3.597.738,3.597-.162,3.597-.941,3.597.29,3.597,3.218,3.598,2.811,3.598-6.086,3.599,2.838,3.6-3.881,3.601,5.95,3.6-3.929,3.599,4.697,3.599-4.704,3.598-2.67,3.598,4.655,3.598.216,3.598-1.779,3.598-3.418,3.599.437,3.599,4.476,3.6-4.416,3.601,1.429,3.6.985,3.599-2.708,3.599-.319,3.598,5.089,3.598-.514,3.599-2.556,3.599-1.64,3.6-1.726,3.6,5.993,3.601.895,3.6-6.748,3.6-.434,3.599,9.841,3.599-3.256,3.599,1.06,3.6-2.116,3.6,1.983,3.601-5.337,3.601,6.64,3.6.821,3.6-3.992,3.599-2.434,3.6,6.624,3.6-7.407,3.601,6.566,3.601-6.734,3.6,2.352,3.6-4.662,3.6,3.977,3.6-1.136,3.602.838,3.601-2.471,3.6,3.754,3.6,1.624,3.596,2.54,3.595-6.751,3.595-.194,3.596.077,3.597,4.677,3.6-3.928,3.602.054,3.601-.879,3.599-1.159,3.597,1.303,3.597,3.225,3.598,2.843,3.599-8.347,3.602.331,3.602,5.563,3.6-1.168,3.599-2.776,3.599.834,3.6,6.221,3.603-2.276,3.602.154,3.6-3.395,3.6.06,3.602,1.734,3.604-2.167,3.602.728,3.601-3.363,3.603,5.92,3.604.79,3.602-4.139,3.603,4.1,3.604-4.07,3.602-.168,3.604,5.394,3.603-3.236,3.604-4.01,3.604,8.738,3.605-.804,3.6-4.893,3.604.866,3.6,1.244,3.604-2.265,3.602-3.064,3.606,5.57,3.603,1.08,3.605-1.694,3.607-1.527,3.607-3.454,3.607,3.8,3.606-2.889,3.606,4.121,3.607-1.909,3.613-.843,3.613M656.877,120.352l5.095,3.597-4.934,3.597,3.847,3.597,2.252,3.597-1.695,3.597-5.851,3.598,5.487,3.598,2.101,3.598-3.668,3.598,5.223,3.598-3.393,3.598-3.458,3.597,5.843,3.597-4.335,3.592-3.085,3.592,7.203,3.592-4.955,3.593-3.125,3.593,3.055,3.594,4.363,3.594-5.387,3.595-1.566,3.596,4.03,3.596.755,3.597-5.201,3.598,4.992,3.599-5.323,3.598,2.48,3.597-2.545,3.597,9.642,3.596-4.066,3.596.779,3.595,1.734,3.595-2.472,3.594.655,3.594-1.584,3.594,2.206,3.593-6.561,3.593,3.721,3.593,4.416,3.593-1.846,3.593-2.863,3.593,5.201,3.593-9.081,3.593,2.788,3.593.165,3.594,5.31,3.594-4.111,3.594,1.127,3.595-2.104,3.595-.092,3.596,5.431,3.597-4.69,3.598.564,3.598,5.3,3.599-.525,3.599-3.927,3.598-2.978,3.598,1.088,3.597,4.559,3.596-.846,3.596-4.998,3.595-.193,3.595,7.477,3.595-4.638,3.595,1.589,3.595,2.12,3.595-6.462,3.595,3.075,3.595-2.308,3.595,6.307,3.595-6.817,3.596,1.905,3.596.248,3.597.793,3.597.707,3.598-3.711,3.599,5.906,3.6-1.515,3.599-1.153,3.599-2.252,3.598-.053,3.597,1.647,3.597,2.973,3.596-5.429,3.596,4.195,3.596-3.925,3.596-1.352,3.596,7.669,3.596-2.352,3.596,3.32,3.597-3.718,3.597,1.35,3.598-6.39,3.598-.295,3.599,6.664,3.6-2.233,3.6-2.954,3.599.89,3.598,1.085,3.598,3.793,3.597-4.077,3.597.738,3.597-.162,3.597-.941,3.597.29,3.597,3.218,3.598,2.811,3.598-6.086,3.599,2.838,3.6-3.881,3.601,5.95,3.6-3.929,3.599,4.697,3.599-4.704,3.598-2.67,3.598,4.655,3.598.216,3.598-1.779,3.598-3.418,3.599.437,3.599,4.476,3.6-4.416,3.601,1.429,3.6.985,3.599-2.708,3.599-.319,3.598,5.089,3.598-.514,3.599-2.556,3.599-1.64,3.6-1.726,3.6,5.993,3.601.895,3.6-6.748,3.6-.434,3.599,9.841,3.599-3.256,3.599,1.06,3.6-2.116,3.6,1.983,3.601-5.337,3.601,6.64,3.6.821,3.6-3.992,3.599-2.434,3.6,6.624,3.6-7.407,3.601,6.566,3.601-6.734,3.6,2.352,3.6-4.662,3.6,3.977,3.6-1.136,3.602.838,3.601-2.471,3.6,3.754,3.6,1.624,3.596,2.54,3.595-6.751,3.595-.194,3.596.077,3.597,4.677,3.6-3.928,3.602.054,3.601-.879,3.599-1.159,3.597,1.303,3.597,3.225,3.598,2.843,3.599-8.347,3.602.331,3.602,5.563,3.6-1.168,3.599-2.776,3.599.834,3.6,6.221,3.603-2.276,3.602.154,3.6-3.395,3.6.06,3.602,1.734,3.604-2.167,3.602.728,3.601-3.363,3.603,5.92,3.604.79,3.602-4.139,3.603,4.1,3.604-4.07,3.602-.168,3.604,5.394,3.603-3.236,3.604-4.01,3.604,8.738,3.605-.804,3.6-4.893,3.604.866,3.6,1.244,3.604-2.265,3.602-3.064,3.606,5.57,3.603,1.08,3.605-1.694,3.607-1.527,3.607-3.454,3.607,3.8,3.606-2.889,3.606,4.121,3.607-1.909,3.613-.843,3.613M120.352,345.076l3.597-5.095,3.597,4.934,3.597-3.847,3.597-2.252,3.597,1.695,3.598,5.851,3.598-5.487,3.598-2.101,3.598,3.668,3.598-5.223,3.598,3.393,3.597,3.458,3.597-5.843,3.592,4.335,3.592,3.085,3.592-7.203,3.593,4.955,3.593,3.125,3.594-3.055,3.594-4.363,3.595,5.387,3.596,1.566,3.596-4.03,3.597-.755,3.598,5.201,3.599-4.992,3.598,5.323,3.597-2.48,3.597,2.545,3.596-9.642,3.596,4.066,3.595-.779,3.595-1.734,3.594,2.472,3.594-.655,3.594,1.584,3.593-2.206,3.593,6.561,3.593-3.721,3.593-4.416,3.593,1.846,3.593,2.863,3.593-5.201,3.593,9.081,3.593-2.788,3.594-.165,3.594-5.31,3.594,4.111,3.595-1.127,3.595,2.104,3.596.092,3.597-5.431,3.598,4.69,3.598-.564,3.599-5.3,3.599.525,3.598,3.927,3.598,2.978,3.597-1.088,3.596-4.559,3.596.846,3.595,4.998,3.595.193,3.595-7.477,3.595,4.638,3.595-1.589,3.595-2.12,3.595,6.462,3.595-3.075,3.595,2.308,3.595-6.307,3.596,6.817,3.596-1.905,3.597-.248,3.597-.793,3.598-.707,3.599,3.711,3.6-5.906,3.599,1.515,3.599,1.153,3.598,2.252,3.597.053,3.597-1.647,3.596-2.973,3.596,5.429,3.596-4.195,3.596,3.925,3.596,1.352,3.596-7.669,3.596,2.352,3.597-3.32,3.597,3.718,3.598-1.35,3.598,6.39,3.599.295,3.6-6.664,3.6,2.233,3.599,2.954,3.598-.89,3.598-1.085,3.597-3.793,3.597,4.077,3.597-.738,3.597.162,3.597.941,3.597-.29,3.598-3.218,3.598-2.811,3.599,6.086,3.6-2.838,3.601,3.881,3.6-5.95,3.599,3.929,3.599-4.697,3.598,4.704,3.598,2.67,3.598-4.655,3.598-.216,3.598,1.779,3.599,3.418,3.599-.437,3.6-4.476,3.601,4.416,3.6-1.429,3.599-.985,3.599,2.708,3.598.319,3.598-5.089,3.599.514,3.599,2.556,3.6,1.64,3.6,1.726,3.601-5.993,3.6-.895,3.6,6.748,3.599.434,3.599-9.841,3.599,3.256,3.6-1.06,3.6,2.116,3.601-1.983,3.601,5.337,3.6-6.64,3.6-.821,3.599,3.992,3.6,2.434,3.6-6.624,3.601,7.407,3.601-6.566,3.6,6.734,3.6-2.352,3.6,4.662,3.6-3.977,3.602,1.136,3.601-.838,3.6,2.471,3.6-3.754,3.596-1.624,3.595-2.54,3.595,6.751,3.596.194,3.597-.077,3.6-4.677,3.602,3.928,3.601-.054,3.599.879,3.597,1.159,3.597-1.303,3.598-3.225,3.599-2.843,3.602,8.347,3.602-.331,3.6-5.563,3.599,1.168,3.599,2.776,3.6-.834,3.603-6.221,3.602,2.276,3.6-.154,3.6,3.395,3.602-.06,3.604-1.734,3.602,2.167,3.601-.728,3.603,3.363,3.604-5.92,3.602-.79,3.603,4.139,3.604-4.1,3.602,4.07,3.604.168,3.603-5.394,3.604,3.236,3.604,4.01,3.605-8.738,3.6.804,3.604,4.893,3.6-.866,3.604-1.244,3.602,2.265,3.606,3.064,3.603-5.57,3.605-1.08,3.607,1.694,3.607,1.527,3.607,3.454,3.606-3.8,3.606,2.889,3.607-4.121,3.613,1.909,3.613.843M879.648,654.924l-3.597,5.095-3.597-4.934-3.597,3.847-3.597,2.252-3.597-1.695-3.598-5.851-3.598,5.487-3.598,2.101-3.598-3.668-3.598,5.223-3.598-3.393-3.597-3.458-3.597,5.843-3.592-4.335-3.592-3.085-3.592,7.203-3.593-4.955-3.593-3.125-3.594,3.055-3.594,4.363-3.595-5.387-3.596-1.566-3.596,4.03-3.597.755-3.598-5.201-3.599,4.992-3.598-5.323-3.597,2.48-3.597-2.545-3.596,9.642-3.596-4.066-3.595.779-3.595,1.734-3.594-2.472-3.594.655-3.594-1.584-3.593,2.206-3.593-6.561-3.593,3.721-3.593,4.416-3.593-1.846-3.593-2.863-3.593,5.201-3.593-9.081-3.593,2.788-3.594.165-3.594,5.31-3.594-4.111-3.595,1.127-3.595-2.104-3.596-.092-3.597,5.431-3.598-4.69-3.598.564-3.599,5.3-3.599-.525-3.598-3.927-3.598-2.978-3.597,1.088-3.596,4.559-3.596-.846-3.595-4.998-3.595-.193-3.595,7.477-3.595-4.638-3.595,1.589-3.595,2.12-3.595-6.462-3.595,3.075-3.595-2.308-3.595,6.307-3.596-6.817-3.596,1.905-3.597.248-3.597.793-3.598.707-3.599-3.711-3.6,5.906-3.599-1.515-3.599-1.153-3.598-2.252-3.597-.053-3.597,1.647-3.596,2.973-3.596-5.429-3.596,4.195-3.596-3.925-3.596-1.352-3.596,7.669-3.596-2.352-3.597,3.32-3.597-3.718-3.598,1.35-3.598-6.39-3.599-.295-3.6,6.664-3.6-2.233-3.599-2.954-3.598.89-3.598,1.085-3.597,3.793-3.597-4.077-3.597.738-3.597-.162-3.597-.941-3.597.29-3.598,3.218-3.598,2.811-3.599-6.086-3.6,2.838-3.601-3.881-3.6,5.95-3.599-3.929-3.599,4.697-3.598-4.704-3.598-2.67-3.598,4.655-3.598.216-3.598-1.779-3.599-3.418-3.599.437-3.6,4.476-3.601-4.416-3.6,1.429-3.599.985-3.599-2.708-3.598-.319-3.598,5.089-3.599-.514-3.599-2.556-3.6-1.64-3.6-1.726-3.601,5.993-3.6.895-3.6-6.748-3.599-.434-3.599,9.841-3.599-3.256-3.6,1.06-3.6-2.116-3.601,1.983-3.601-5.337-3.6,6.64-3.6.821-3.599-3.992-3.6-2.434-3.6,6.624-3.601-7.407-3.601,6.566-3.6-6.734-3.6,2.352-3.6-4.662-3.6,3.977-3.602-1.136-3.601.838-3.6-2.471-3.6,3.754-3.596,1.624-3.595,2.54-3.595-6.751-3.596-.194-3.597.077-3.6,4.677-3.602-3.928-3.601.054-3.599-.879-3.597-1.159-3.597,1.303-3.598,3.225-3.599,2.843-3.602-8.347-3.602.331-3.6,5.563-3.599-1.168-3.599-2.776-3.6.834-3.603,6.221-3.602-2.276-3.6.154-3.6-3.395-3.602.06-3.604,1.734-3.602-2.167-3.601.728-3.603-3.363-3.604,5.92-3.602.79-3.603-4.139-3.604,4.1-3.602-4.07-3.604-.168-3.603,5.394-3.604-3.236-3.604-4.01-3.605,8.738-3.6-.804-3.604-4.893-3.6.866-3.604,1.244-3.602-2.265-3.606-3.064-3.603,5.57-3.605,1.08-3.607-1.694-3.607-1.527-3.607-3.454-3.606,3.8-3.606-2.889-3.607,4.121-3.613-1.909-3.613-.843" style="fill: none; stroke: #000; stroke-linecap: round; stroke-linejoin: round; stroke-width: 35px;"/>
</svg>