<?xml version="1.0" encoding="UTF-8"?>
<svg id="Small" xmlns="http://www.w3.org/2000/svg" width="500" height="500" viewBox="0 0 500 500">
  <path d="M354.579,419.555c1.049-1.595-.513-1.505-1.274-3.257-.76-1.75.341-2.229-.419-3.979-.76-1.75-1.021-1.637-1.781-3.387-.76-1.75-2.643-.932-3.403-2.682-.76-1.751.388-2.249-.372-4-.761-1.752-.295-1.954-1.056-3.706s-.643-1.803-1.404-3.554c-.76-1.751-2.339-1.065-3.099-2.816-.76-1.751.711-2.389-.05-4.14s-2.237-1.11-2.998-2.861.24-2.187-.521-3.94-1.697-1.345-2.458-3.096c-.76-1.751-.054-2.058-.814-3.809s-.62-1.813-1.381-3.564.603-2.345-.158-4.097-1.11-1.6-1.87-3.351c-.761-1.752-.954-1.668-1.714-3.42-.761-1.752-1.762-1.318-2.523-3.07s.767-2.415.006-4.167-.724-1.769-1.485-3.521c-.761-1.752-2.131-1.157-2.892-2.909s-.04-2.065-.801-3.818-1.296-1.52-2.057-3.272-1.687-1.351-2.448-3.104-.935-1.674-1.695-3.425c-.761-1.752-.672-1.791-1.433-3.543s-.122-2.028-.882-3.778-.145-2.02-.906-3.773-1.861-1.274-2.621-3.025.015-2.09-.747-3.844-1.724-1.334-2.485-3.086-1.174-1.574-1.936-3.327c-.762-1.754-.058-2.06-.819-3.813s.106-2.131-.656-3.884c-.761-1.752-.803-1.733-1.564-3.485-.762-1.754-.013-2.079-.775-3.833-.762-1.754-2.749-.891-3.511-2.645-.762-1.754,1.546-2.757.784-4.511s-2.598-.96-3.361-2.718c-.763-1.757.468-1.962.296-3.87,1.159-.539,1.238-.594,2.374-1.174s2.596-.623,3.71-1.244c1.116-.623,1.392-2.707,2.482-3.369,1.093-.663,2.833-.303,3.899-1.005,1.068-.703,1.914-1.757,2.954-2.497s1.474-2.289,2.487-3.067,2.453-1.001,3.436-1.815,1.386-2.283,2.339-3.133,1.613-1.963,2.534-2.847,2.981-.604,3.87-1.521,1.754-1.878,2.609-2.826,1.269-2.287,2.089-3.266c.82-.979,1.963-1.7,2.747-2.709.783-1.008,1.058-2.396,1.805-3.433s.949-2.42,1.658-3.484c.707-1.062,2.063-1.687,2.732-2.776.668-1.087,1.447-2.107,2.076-3.22s.511-2.609,1.098-3.745.998-2.317,1.543-3.474,2.973-1.465,3.476-2.642-.008-2.78.451-3.974,1.674-2.125,2.088-3.335.511-2.544.88-3.769,1.428-2.284,1.752-3.522c.323-1.232.463-2.558.741-3.808.277-1.243-.123-2.657.109-3.916.231-1.252,1.302-2.402,1.487-3.669.185-1.26.307-2.579.446-3.853.138-1.265-1.288-2.695-1.196-3.973.092-1.269,1.589-2.483,1.635-3.764.046-1.271-.257-2.59-.257-3.872s-2.104-2.506-2.149-3.773c-.046-1.277,1.944-2.651,1.853-3.916-.092-1.275-.664-2.523-.801-3.784-.138-1.27-.757-2.479-.94-3.735-.184-1.264.89-2.751.66-4-.231-1.256-1.315-2.364-1.59-3.604-.276-1.246-1.027-2.379-1.348-3.608s-.599-2.476-.965-3.693-.148-2.639-.558-3.842-2.392-1.835-2.846-3.022-.243-2.622-.741-3.792-1.002-2.33-1.542-3.481-.361-2.666-.943-3.796c-.584-1.133-.818-2.483-1.442-3.592-.625-1.111-.861-2.499-1.525-3.584s-2.942-1.168-3.645-2.228c-.704-1.062-2.124-1.591-2.865-2.625s-.303-2.924-1.081-3.931c-.779-1.007-1.749-1.865-2.564-2.842s-1.845-1.763-2.694-2.711c-.85-.948-.922-2.631-1.806-3.548s-2.569-1.043-3.486-1.927c-.916-.884-1.179-2.48-2.127-3.33s-3.216-.153-4.195-.968c-.978-.815-.255-3.751-1.262-4.53s-2.494-.975-3.53-1.717-2.879-.307-3.941-1.01-1.834-1.826-2.921-2.491c-1.085-.664-2.462-.798-3.572-1.422s-2.258-1.108-3.391-1.692c-1.13-.582-1.48-2.756-2.633-3.297s-2.899.234-4.072-.265-2.106-1.558-3.296-2.014c-1.187-.454-2.45-.706-3.657-1.118-1.202-.41-2.509-.476-3.73-.843s-2.368-.933-3.603-1.255c-1.229-.32-2.388-.94-3.634-1.217-1.24-.275-2.418-.938-3.673-1.168-1.248-.229-2.797,1.426-4.06,1.242-1.256-.183-2.372-1.253-3.642-1.391-1.261-.137-2.592.822-3.867.73-1.265-.091-2.477-.345-3.754-.391-1.267-.046-2.494-.163-3.773-.163s-2.537-.764-3.804-.718c-1.277.046-2.496.64-3.761.731-1.275.092-2.587-.507-3.848-.369-1.27.138-2.721-1.041-3.977-.858-1.264.184-2.384,1.367-3.632,1.596-1.256.231-2.376,1.085-3.616,1.36-1.246.276-2.907-1.115-4.136-.795s-2.267,1.474-3.484,1.84-2.399.911-3.601,1.322-2.067,1.757-3.254,2.211-3.194-1.064-4.363-.566-2.14,1.562-3.291,2.103c-1.154.542-1.961,1.827-3.091,2.409-1.133.584-2.549.67-3.658,1.293s-2.113,1.475-3.198,2.138-1.28,2.708-2.34,3.411-3.174-.129-4.208.612-2.471,1.01-3.478,1.788-.621,3.31-1.599,4.125-1.613,1.969-2.56,2.819-3.248.232-4.164,1.115c-.916.884-2.285,1.369-3.168,2.286s-.885,2.691-1.735,3.639c-.85.948-1.674,1.924-2.489,2.902s-2.279,1.46-3.058,2.468-1.436,2.144-2.178,3.18c-.741,1.034-1.696,1.964-2.4,3.026s.709,3.462.044,4.549-1.761,1.869-2.386,2.98-2.274,1.655-2.857,2.788c-.582,1.13-.469,2.603-1.011,3.757s-2.024,1.886-2.523,3.059-1.147,2.309-1.603,3.499-.879,2.418-1.291,3.625-.206,2.623-.573,3.845-.291,2.558-.613,3.793-1.883,2.176-2.16,3.422c-.275,1.24,1.079,2.821.848,4.076-.229,1.248-1.191,2.371-1.376,3.635-.183,1.256-1.35,2.415-1.488,3.685-.137,1.261,1.225,2.678,1.133,3.953-.091,1.265-.763,2.504-.809,3.781-.046,1.267.911,2.551.911,3.83,0,1.297-.56,2.585-.513,3.871.047,1.296-1.414,2.694-1.32,3.977.095,1.293,1.534,2.487,1.675,3.767.142,1.288-.567,2.703-.378,3.977.19,1.282,1.703,2.351,1.939,3.618.237,1.273-.236,2.691.047,3.948.284,1.263,1.143,2.388,1.473,3.634s1.939,2.106,2.315,3.338.793,2.403,1.215,3.621c.424,1.223-.243,2.808.224,4.01s.154,2.736.666,3.92,2.608,1.641,3.163,2.805c.557,1.167,1.245,2.216,1.844,3.359s.641,2.554,1.282,3.674-.199,3.138.483,4.233,3.535.778,4.258,1.848.715,2.609,1.476,3.651.661,2.74,1.461,3.754c.8,1.014,1.613,2.044,2.449,3.027.837.984,1.325,2.315,2.197,3.267.872.953,2.289,1.424,3.195,2.344s1.196,2.515,2.136,3.4c.88.829,2.897.434,3.805,1.232s2.218,1.088,3.154,1.855c.935.766.569,3.182,1.531,3.916.961.733,1.916,1.544,2.903,2.245s2.448.756,3.458,1.422,1.91,1.539,2.943,2.17c1.031.63,1.929,1.549,2.984,2.143s2.606.266,3.681.823c-.16,1.906.302,2.175-.408,3.951-.71,1.775-.399,1.899-1.109,3.674-.709,1.774-.987,1.663-1.696,3.438-.709,1.775-2.633,1.005-3.343,2.78s.458,2.242-.252,4.017c-.71,1.776-1.659,1.397-2.369,3.174s-.604,1.819-1.314,3.595c-.71,1.775-1.47,1.471-2.179,3.247-.71,1.775,1.172,2.527.462,4.302s-2.565,1.034-3.275,2.81c-.71,1.777-.473,1.872-1.183,3.649-.71,1.776,1.06,2.483.35,4.259s-2.318,1.133-3.028,2.908c-.71,1.776-.166,1.994-.876,3.77s.225,2.151-.485,3.928-1.453,1.479-2.163,3.255c-.71,1.776-.087,2.025-.798,3.802s-2.164,1.196-2.874,2.973-.479,1.869-1.189,3.645c-.71,1.777-1.278,1.55-1.989,3.327-.71,1.777,1.739,2.756,1.029,4.533s-2.425,1.092-3.135,2.869c-.71,1.777-.612,1.816-1.323,3.593s.491,2.258-.22,4.035-.664,1.793-1.373,3.568-.303,1.94-1.013,3.717c-.71,1.775-1.995,1.261-2.704,3.036s.801,2.381.091,4.159-3.041.844-3.751,2.62,1.346,2.6.635,4.378-2.159,1.198-2.869,2.974-1.03,1.65-1.741,3.427c-.711,1.778-.167,1.996-.878,3.774s-1.787,1.348-2.498,3.127,1.355,2.602.645,4.378c-.711,1.778-.498,1.863-1.209,3.642-.711,1.779-.649,1.803-1.36,3.582s-1.159,1.6-1.87,3.379-.468,1.88-1.18,3.662-3.972,1.959-2.904,3.553c1.061,1.584,2.449-.888,4.356-.888s1.906-.006,3.813-.006,1.907,1.926,3.814,1.926,1.907-.289,3.814-.289,1.904-2.068,3.808-2.068,1.905,2.204,3.809,2.204,1.906-2.505,3.812-2.505,1.907,1.357,3.815,1.357,1.906,1.221,3.813,1.221,1.905.153,3.811.153,1.905-2.009,3.809-2.009,1.905,1.963,3.809,1.963,1.905-1.468,3.81-1.468,1.906-.023,3.811-.023,1.907-.717,3.814-.717,1.907-.013,3.814-.013,1.906,1.528,3.812,1.528,1.905.655,3.811.655,1.905-.91,3.811-.91,1.906,1.021,3.812,1.021,1.908-2.853,3.815-2.853,1.907,1.809,3.814,1.809,1.906.462,3.812.462,1.906.575,3.812.575,1.907-1.049,3.814-1.049,1.908-.565,3.817-.565,1.907,1.596,3.814,1.596,1.907-1.532,3.813-1.532,1.907-1.243,3.815-1.243,1.908,1.435,3.816,1.435,1.907-.634,3.814-.634,1.907,1.724,3.815,1.724,1.908-1.091,3.816-1.091,1.907-1.168,3.815-1.168,1.908.935,3.817.935,1.908-.172,3.815-.172,1.908-.422,3.816-.422,1.908-.457,3.816-.457,1.909,1.836,3.817,1.836,1.908-1.776,3.816-1.776,1.908,1.456,3.816,1.456,1.906.571,3.812.571,1.908-.12,3.816-.12,1.907-2.067,3.814-2.067,1.909.232,3.818.232,1.908,2.514,3.815,2.514,1.909-2.722,3.817-2.722,1.909,1.161,3.819,1.161,1.909.202,3.819.202,1.91-.754,3.819-.754,1.909.353,3.818.353,1.909-.225,3.818-.225,1.91-.579,3.819-.579,1.832,1.228,3.7,1.64c1.887.416,2.576.817,3.627-.781Z" style="fill: #fff;"/>
  <path d="M354.579,419.555c1.049-1.595-.513-1.505-1.274-3.257-.76-1.75.341-2.229-.419-3.979-.76-1.75-1.021-1.637-1.781-3.387-.76-1.75-2.643-.932-3.403-2.682-.76-1.751.388-2.249-.372-4-.761-1.752-.295-1.954-1.056-3.706s-.643-1.803-1.404-3.554c-.76-1.751-2.339-1.065-3.099-2.816-.76-1.751.711-2.389-.05-4.14s-2.237-1.11-2.998-2.861.24-2.187-.521-3.94-1.697-1.345-2.458-3.096c-.76-1.751-.054-2.058-.814-3.809s-.62-1.813-1.381-3.564.603-2.345-.158-4.097-1.11-1.6-1.87-3.351c-.761-1.752-.954-1.668-1.714-3.42-.761-1.752-1.762-1.318-2.523-3.07s.767-2.415.006-4.167-.724-1.769-1.485-3.521c-.761-1.752-2.131-1.157-2.892-2.909s-.04-2.065-.801-3.818-1.296-1.52-2.057-3.272-1.687-1.351-2.448-3.104-.935-1.674-1.695-3.425c-.761-1.752-.672-1.791-1.433-3.543s-.122-2.028-.882-3.778-.145-2.02-.906-3.773-1.861-1.274-2.621-3.025.015-2.09-.747-3.844-1.724-1.334-2.485-3.086-1.174-1.574-1.936-3.327c-.762-1.754-.058-2.06-.819-3.813s.106-2.131-.656-3.884c-.761-1.752-.803-1.733-1.564-3.485-.762-1.754-.013-2.079-.775-3.833-.762-1.754-2.749-.891-3.511-2.645-.762-1.754,1.546-2.757.784-4.511s-2.598-.96-3.361-2.718c-.763-1.757.468-1.962.296-3.87,1.159-.539,1.238-.594,2.374-1.174s2.596-.623,3.71-1.244c1.116-.623,1.392-2.707,2.482-3.369,1.093-.663,2.833-.303,3.899-1.005,1.068-.703,1.914-1.757,2.954-2.497s1.474-2.289,2.487-3.067,2.453-1.001,3.436-1.815,1.386-2.283,2.339-3.133,1.613-1.963,2.534-2.847,2.981-.604,3.87-1.521,1.754-1.878,2.609-2.826,1.269-2.287,2.089-3.266c.82-.979,1.963-1.7,2.747-2.709.783-1.008,1.058-2.396,1.805-3.433s.949-2.42,1.658-3.484c.707-1.062,2.063-1.687,2.732-2.776.668-1.087,1.447-2.107,2.076-3.22s.511-2.609,1.098-3.745.998-2.317,1.543-3.474,2.973-1.465,3.476-2.642-.008-2.78.451-3.974,1.674-2.125,2.088-3.335.511-2.544.88-3.769,1.428-2.284,1.752-3.522c.323-1.232.463-2.558.741-3.808.277-1.243-.123-2.657.109-3.916.231-1.252,1.302-2.402,1.487-3.669.185-1.26.307-2.579.446-3.853.138-1.265-1.288-2.695-1.196-3.973.092-1.269,1.589-2.483,1.635-3.764.046-1.271-.257-2.59-.257-3.872s-2.104-2.506-2.149-3.773c-.046-1.277,1.944-2.651,1.853-3.916-.092-1.275-.664-2.523-.801-3.784-.138-1.27-.757-2.479-.94-3.735-.184-1.264.89-2.751.66-4-.231-1.256-1.315-2.364-1.59-3.604-.276-1.246-1.027-2.379-1.348-3.608s-.599-2.476-.965-3.693-.148-2.639-.558-3.842-2.392-1.835-2.846-3.022-.243-2.622-.741-3.792-1.002-2.33-1.542-3.481-.361-2.666-.943-3.796c-.584-1.133-.818-2.483-1.442-3.592-.625-1.111-.861-2.499-1.525-3.584s-2.942-1.168-3.645-2.228c-.704-1.062-2.124-1.591-2.865-2.625s-.303-2.924-1.081-3.931c-.779-1.007-1.749-1.865-2.564-2.842s-1.845-1.763-2.694-2.711c-.85-.948-.922-2.631-1.806-3.548s-2.569-1.043-3.486-1.927c-.916-.884-1.179-2.48-2.127-3.33s-3.216-.153-4.195-.968c-.978-.815-.255-3.751-1.262-4.53s-2.494-.975-3.53-1.717-2.879-.307-3.941-1.01-1.834-1.826-2.921-2.491c-1.085-.664-2.462-.798-3.572-1.422s-2.258-1.108-3.391-1.692c-1.13-.582-1.48-2.756-2.633-3.297s-2.899.234-4.072-.265-2.106-1.558-3.296-2.014c-1.187-.454-2.45-.706-3.657-1.118-1.202-.41-2.509-.476-3.73-.843s-2.368-.933-3.603-1.255c-1.229-.32-2.388-.94-3.634-1.217-1.24-.275-2.418-.938-3.673-1.168-1.248-.229-2.797,1.426-4.06,1.242-1.256-.183-2.372-1.253-3.642-1.391-1.261-.137-2.592.822-3.867.73-1.265-.091-2.477-.345-3.754-.391-1.267-.046-2.494-.163-3.773-.163s-2.537-.764-3.804-.718c-1.277.046-2.496.64-3.761.731-1.275.092-2.587-.507-3.848-.369-1.27.138-2.721-1.041-3.977-.858-1.264.184-2.384,1.367-3.632,1.596-1.256.231-2.376,1.085-3.616,1.36-1.246.276-2.907-1.115-4.136-.795s-2.267,1.474-3.484,1.84-2.399.911-3.601,1.322-2.067,1.757-3.254,2.211-3.194-1.064-4.363-.566-2.14,1.562-3.291,2.103c-1.154.542-1.961,1.827-3.091,2.409-1.133.584-2.549.67-3.658,1.293s-2.113,1.475-3.198,2.138-1.28,2.708-2.34,3.411-3.174-.129-4.208.612-2.471,1.01-3.478,1.788-.621,3.31-1.599,4.125-1.613,1.969-2.56,2.819-3.248.232-4.164,1.115c-.916.884-2.285,1.369-3.168,2.286s-.885,2.691-1.735,3.639c-.85.948-1.674,1.924-2.489,2.902s-2.279,1.46-3.058,2.468-1.436,2.144-2.178,3.18c-.741,1.034-1.696,1.964-2.4,3.026s.709,3.462.044,4.549-1.761,1.869-2.386,2.98-2.274,1.655-2.857,2.788c-.582,1.13-.469,2.603-1.011,3.757s-2.024,1.886-2.523,3.059-1.147,2.309-1.603,3.499-.879,2.418-1.291,3.625-.206,2.623-.573,3.845-.291,2.558-.613,3.793-1.883,2.176-2.16,3.422c-.275,1.24,1.079,2.821.848,4.076-.229,1.248-1.191,2.371-1.376,3.635-.183,1.256-1.35,2.415-1.488,3.685-.137,1.261,1.225,2.678,1.133,3.953-.091,1.265-.763,2.504-.809,3.781-.046,1.267.911,2.551.911,3.83,0,1.297-.56,2.585-.513,3.871.047,1.296-1.414,2.694-1.32,3.977.095,1.293,1.534,2.487,1.675,3.767.142,1.288-.567,2.703-.378,3.977.19,1.282,1.703,2.351,1.939,3.618.237,1.273-.236,2.691.047,3.948.284,1.263,1.143,2.388,1.473,3.634s1.939,2.106,2.315,3.338.793,2.403,1.215,3.621c.424,1.223-.243,2.808.224,4.01s.154,2.736.666,3.92,2.608,1.641,3.163,2.805c.557,1.167,1.245,2.216,1.844,3.359s.641,2.554,1.282,3.674-.199,3.138.483,4.233,3.535.778,4.258,1.848.715,2.609,1.476,3.651.661,2.74,1.461,3.754c.8,1.014,1.613,2.044,2.449,3.027.837.984,1.325,2.315,2.197,3.267.872.953,2.289,1.424,3.195,2.344s1.196,2.515,2.136,3.4c.88.829,2.897.434,3.805,1.232s2.218,1.088,3.154,1.855c.935.766.569,3.182,1.531,3.916.961.733,1.916,1.544,2.903,2.245s2.448.756,3.458,1.422,1.91,1.539,2.943,2.17c1.031.63,1.929,1.549,2.984,2.143s2.606.266,3.681.823c-.16,1.906.302,2.175-.408,3.951-.71,1.775-.399,1.899-1.109,3.674-.709,1.774-.987,1.663-1.696,3.438-.709,1.775-2.633,1.005-3.343,2.78s.458,2.242-.252,4.017c-.71,1.776-1.659,1.397-2.369,3.174s-.604,1.819-1.314,3.595c-.71,1.775-1.47,1.471-2.179,3.247-.71,1.775,1.172,2.527.462,4.302s-2.565,1.034-3.275,2.81c-.71,1.777-.473,1.872-1.183,3.649-.71,1.776,1.06,2.483.35,4.259s-2.318,1.133-3.028,2.908c-.71,1.776-.166,1.994-.876,3.77s.225,2.151-.485,3.928-1.453,1.479-2.163,3.255c-.71,1.776-.087,2.025-.798,3.802s-2.164,1.196-2.874,2.973-.479,1.869-1.189,3.645c-.71,1.777-1.278,1.55-1.989,3.327-.71,1.777,1.739,2.756,1.029,4.533s-2.425,1.092-3.135,2.869c-.71,1.777-.612,1.816-1.323,3.593s.491,2.258-.22,4.035-.664,1.793-1.373,3.568-.303,1.94-1.013,3.717c-.71,1.775-1.995,1.261-2.704,3.036s.801,2.381.091,4.159-3.041.844-3.751,2.62,1.346,2.6.635,4.378-2.159,1.198-2.869,2.974-1.03,1.65-1.741,3.427c-.711,1.778-.167,1.996-.878,3.774s-1.787,1.348-2.498,3.127,1.355,2.602.645,4.378c-.711,1.778-.498,1.863-1.209,3.642-.711,1.779-.649,1.803-1.36,3.582s-1.159,1.6-1.87,3.379-.468,1.88-1.18,3.662-3.972,1.959-2.904,3.553c1.061,1.584,2.449-.888,4.356-.888s1.906-.006,3.813-.006,1.907,1.926,3.814,1.926,1.907-.289,3.814-.289,1.904-2.068,3.808-2.068,1.905,2.204,3.809,2.204,1.906-2.505,3.812-2.505,1.907,1.357,3.815,1.357,1.906,1.221,3.813,1.221,1.905.153,3.811.153,1.905-2.009,3.809-2.009,1.905,1.963,3.809,1.963,1.905-1.468,3.81-1.468,1.906-.023,3.811-.023,1.907-.717,3.814-.717,1.907-.013,3.814-.013,1.906,1.528,3.812,1.528,1.905.655,3.811.655,1.905-.91,3.811-.91,1.906,1.021,3.812,1.021,1.908-2.853,3.815-2.853,1.907,1.809,3.814,1.809,1.906.462,3.812.462,1.906.575,3.812.575,1.907-1.049,3.814-1.049,1.908-.565,3.817-.565,1.907,1.596,3.814,1.596,1.907-1.532,3.813-1.532,1.907-1.243,3.815-1.243,1.908,1.435,3.816,1.435,1.907-.634,3.814-.634,1.907,1.724,3.815,1.724,1.908-1.091,3.816-1.091,1.907-1.168,3.815-1.168,1.908.935,3.817.935,1.908-.172,3.815-.172,1.908-.422,3.816-.422,1.908-.457,3.816-.457,1.909,1.836,3.817,1.836,1.908-1.776,3.816-1.776,1.908,1.456,3.816,1.456,1.906.571,3.812.571,1.908-.12,3.816-.12,1.907-2.067,3.814-2.067,1.909.232,3.818.232,1.908,2.514,3.815,2.514,1.909-2.722,3.817-2.722,1.909,1.161,3.819,1.161,1.909.202,3.819.202,1.91-.754,3.819-.754,1.909.353,3.818.353,1.909-.225,3.818-.225,1.91-.579,3.819-.579,1.832,1.228,3.7,1.64c1.887.416,2.576.817,3.627-.781Z" style="fill: none; stroke: #000; stroke-miterlimit: 10; stroke-width: 15px;"/>
</svg>