<?xml version="1.0" encoding="UTF-8"?>
<svg id="Stickers" xmlns="http://www.w3.org/2000/svg" width="1000" height="1000" viewBox="0 0 1000 1000">
  <polyline points="229.898 794.594 232.028 791.006 229.921 787.418 229.982 783.83 224.212 780.24 232.573 776.65 232.48 773.06 226.471 769.468 227.847 765.876 232.225 762.284 225.721 758.692 230.853 755.101 223.255 751.511 223.842 747.922 225.095 744.333 224.896 740.744 223.613 737.156 230.699 733.568 230.497 729.98 231.055 726.393 225.082 722.805 224.828 719.217 226.867 715.629 225.921 712.041 229.11 708.453 231.762 704.864 230.94 701.275 224.289 697.685 230.738 694.094 228.836 690.503 227.59 686.911 228.506 683.318 223.836 679.725 229.264 676.134 224.2 672.542 222.811 668.952 229.216 665.362 229.159 661.773 226.491 658.183 227.334 654.594 226.548 651.005 229.684 647.416 224.262 643.827 231.454 640.238 226.022 636.648 231.54 633.058 230.464 629.467 231.205 625.875 230.697 622.283 223.958 618.69 232.055 615.096 230.401 611.504 225.469 607.913 225.387 604.322 226.066 600.731 230.19 597.141 223.601 593.551 228.075 589.961 229.323 586.371 226.707 582.78 226.742 579.19 223.724 575.598 225.257 572.006 231.524 568.413 229.384 564.819 232.404 561.226 226.241 557.633 224.577 554.042 223.693 550.451 231.912 546.86 224.894 543.269 224.261 539.678 225.645 536.087 229.783 532.495 222.783 528.903 224.385 525.309 228.405 521.715 225.104 518.122 229.972 514.529 222.665 510.937 223.896 507.345 232.358 503.754 223.839 500.162 230.45 496.57 228.487 492.978 224.457 489.384 230.617 485.789 228.364 482.196 223.737 478.603 227.164 475.011 228.081 471.419 227.557 467.827 228.137 464.234 232.094 460.641 222.828 457.046 231.245 453.452 230.788 449.859 230.467 446.266 230.582 442.674 226.234 439.081 222.943 435.487 224.816 431.893 222.968 428.298 229.107 424.705 228.368 421.112 230.84 417.519 229.182 413.925 226.772 410.331 228.438 406.736 226.561 403.143 226.008 399.549 226.051 395.961 222.925 392.373 231.012 388.784 224.606 385.195 232 381.604 232.404 378.012 229.613 374.416 227.519 370.822 229.641 367.231 223.215 363.64 228.441 360.05 224.33 356.459 228.809 352.867 230.928 349.272 224.568 345.676 229.412 342.083 226.788 338.491 223.231 334.899 224.661 331.306 230.199 327.71 228.424 324.115 228.204 320.521 229.04 316.928 229.432 313.333 228.41 309.736 228.886 306.141 223.361 302.547 229.795 298.952 225.428 295.355 230.095 291.76 225.128 288.164 224.401 284.567 222.827 280.971 228.438 277.374 227.221 273.778 231.552 270.181 225.537 266.584 231.428 262.986 225.619 259.393 227.209 255.796 227.904 252.203 226.673 248.606 223.504 245.01 223.624 241.412 232.12 237.815 227.053 234.217 228.955 230.617 227.555 227.017 231.958 223.417 222.834 219.818 228.384 216.219 226.506 212.618 231.477 209.012 226.944 204.699 231.256 200.695 234.862 204.196 238.468 201.155 242.074 210.057 245.682 207.793 249.291 207.148 252.899 204.61 256.506 201.039 260.113 204.963 263.719 202.17 267.325 206.895 270.93 209.776 274.535 208.233 278.139 208.062 281.743 208.989 285.347 203.456 288.951 202.18 292.554 201.316 296.158 209.48 299.762 207.438 303.366 203.895 306.971 207.71 310.576 206.591 314.181 202.148 317.787 208.007 321.394 200.996 325.001 203.004 328.609 204.41 332.218 204.973 335.827 207.108 339.435 203.163 343.042 209.152 346.649 209.817 350.255 207.344 353.86 207.749 357.466 202.414 361.071 203.506 364.676 208.944 368.281 204.999 371.886 201.608 375.492 204.15 379.097 206.509 382.704 203.584 386.311 203.958 389.918 210.213 393.527 202.698 397.136 206.708 400.746 209.061 404.354 202.925 407.962 201.643 411.569 202.12 415.175 206.513 418.782 210.078 422.388 203.507 425.994 207.745 429.6 204.517 433.206 208.401 436.813 203.647 440.421 207.598 444.029 200.444 447.638 206.69 451.249 204.785 454.858 207.681 458.466 209.247 462.074 206.892 465.681 205.662 469.288 206.546 472.895 200.693 476.502 205.324 480.109 204.585 483.717 210.223 487.326 201.342 490.935 201.22 494.546 201.312 498.155 206.175 501.764 202.203 505.372 204.781 508.98 205.722 512.587 205.996 516.195 208.018 519.803 201.934 523.412 206.694 527.022 201.524 530.632 209.101 534.242 207.97 537.851 209.638 541.459 204.056 545.067 201.671 548.676 207.265 552.284 206.121 555.894 201.363 559.504 207.626 563.115 201.248 566.724 204.017 570.333 202.174 573.941 209.679 577.55 201.839 581.16 201.618 584.77 202.84 588.381 202.811 591.99 202.503 595.599 204.156 599.209 205.849 602.818 207.963 606.429 204.141 610.04 206.157 613.649 204.879 617.259 208.913 620.863 207.99 624.468 208.079 628.072 206.089 631.677 208.282 635.284 202.721 638.893 200.655 642.505 210.327 646.114 203.587 649.722 207.921 653.329 205.405 656.935 205.934 660.542 209.298 664.151 201.156 667.762 204.716 671.373 206.856 674.982 205.824 678.59 200.793 682.199 209.968 685.808 205.723 689.42 201.373 693.031 201.765 696.641 201.117 700.25 206.607 703.861 207.623 707.475 206.484 711.085 206.18 714.696 207.126 718.307 205.129 721.92 208.066 725.531 204.059 729.143 204.595 732.756 209.427 736.368 208.08 739.982 209.15 743.594 205.911 747.207 203.747 750.82 205.986 754.434 201.153 758.047 205.85 761.66 209.297 765.269 202.465 768.882 208.552 772.493 203.471 776.108 209.028 779.72 203.825 783.334 209.164 786.95 201.319 790.566 205.848 794.182 209.659 797.797 206.239 801.412 207.096 805.028 201.193 808.65 200.966 812.272 203.503" style="fill: none; stroke: #000; stroke-linecap: round; stroke-linejoin: round; stroke-width: 40px;"/>
</svg>