<?xml version="1.0" encoding="UTF-8"?>
<svg id="eraser" xmlns="http://www.w3.org/2000/svg" width="500" height="500" viewBox="0 0 500 500">
  <path d="M443.42,250c0,1.26-.56,2.53-.58,3.79s-1.78,2.47-1.83,3.72-.34,2.48-.41,3.74,1.28,2.6,1.18,3.85-1.28,2.41-1.4,3.66.22,2.54.07,3.79-.03,2.53-.2,3.77,1.29,2.75,1.1,3.99-2.24,2.19-2.46,3.43-.45,2.47-.69,3.7-.86,2.38-1.13,3.61.51,2.7.22,3.92-1.66,2.18-1.97,3.39.47,2.73.13,3.94-2.37,1.92-2.74,3.12-.36,2.5-.75,3.7.43,2.79.02,3.98.23,2.77-.21,3.95-2.64,1.7-3.1,2.87-.87,2.36-1.35,3.52.02,2.75-.48,3.9-.78,2.43-1.31,3.57-.73,2.47-1.28,3.6-3.51,1.07-4.08,2.19-.07,2.79-.66,3.9-1.28,2.17-1.9,3.26-.04,2.89-.67,3.98-2.72,1.31-3.38,2.38.27,3.15-.41,4.21-1.8,1.86-2.5,2.9-3.41.71-4.13,1.75-1.37,2.08-2.11,3.1-.86,2.47-1.62,3.48-.31,2.95-1.09,3.94-1.56,2-2.36,2.97-2.55,1.15-3.37,2.11-.6,2.83-1.44,3.77-1.68,1.91-2.53,2.83-1.65,1.93-2.53,2.84-1.62,1.98-2.51,2.87-3.42.12-4.33.99-1.89,1.64-2.81,2.5-1.13,2.49-2.07,3.33-2.62.81-3.57,1.63-.66,3.13-1.63,3.93-3,.29-3.99,1.07-2.02,1.47-3.03,2.23-1.87,1.68-2.88,2.42-1.76,1.85-2.8,2.57-2.4.93-3.45,1.63-1.26,2.68-2.31,3.36-2.67.49-3.74,1.15-2.45.79-3.53,1.43-1.41,2.6-2.51,3.22-2.05,1.54-3.16,2.13-2.27,1.14-3.39,1.71-3.2-.77-4.33-.22-2.33.91-3.47,1.44-1.29,3.26-2.44,3.77-2.36.93-3.52,1.42-2.5.58-3.67,1.04-2.62.21-3.8.64-2.54.34-3.73.75-2.52.35-3.72.74-1.89,2.37-3.09,2.74-2.38.88-3.59,1.22-2.37.94-3.59,1.26-2.63-.08-3.85.21-2.33,1.15-3.56,1.42-2.51.37-3.74.62-2.71-.81-3.95-.59-2.33,1.29-3.58,1.49-2.33,1.55-3.58,1.72-2.71-1.26-3.96-1.11-2.39,1.36-3.65,1.48-2.67-1.71-3.93-1.62-2.47.52-3.73.59-2.52-.54-3.78-.49-2.46,1.38-3.72,1.41-2.51-1.3-3.78-1.3-2.49-.03-3.75-.05-2.55,1.36-3.8,1.32-2.51-.18-3.77-.25-2.51-.27-3.76-.37-2.49-.45-3.74-.57-2.46-.58-3.71-.73-2.48-.36-3.72-.53-2.43-.65-3.67-.84-2.55.07-3.79-.15-2.61.25-3.84,0-2.67.41-3.9.14-2.42-.78-3.65-1.07-2.06-2.13-3.28-2.45-2.86.91-4.07.57-2.16-1.6-3.37-1.97-2.07-1.76-3.27-2.15-2.92.81-4.11.4-2.51-.49-3.69-.93-2.29-1.1-3.46-1.56-1.67-2.58-2.83-3.06-2.56-.38-3.71-.88-1.88-1.92-3.02-2.45-3.38,1.26-4.51.71-1.76-2.13-2.88-2.7-1.6-2.34-2.71-2.93-3.02.29-4.11-.33-2.56-.62-3.65-1.26-1.66-2.15-2.73-2.8-1.7-2.01-2.76-2.69-3.01,0-4.05-.7-2.23-1.23-3.26-1.95-.66-3.41-1.67-4.15-2.84-.38-3.84-1.14-2.79-.53-3.78-1.31-1.44-2.25-2.42-3.05-1.52-2.12-2.47-2.93-1.46-2.14-2.4-2.97-1.55-2-2.48-2.86-2.01-1.5-2.92-2.37-3.3-.23-4.19-1.12-.43-3.1-1.31-4.01-1.43-2.09-2.28-3.01-2.82-.83-3.65-1.77-1.36-2.16-2.18-3.11-1.32-2.17-2.12-3.14-2.28-1.39-3.06-2.38-2.19-1.51-2.95-2.51-.3-2.92-1.04-3.94-2.61-1.24-3.33-2.27-.65-2.62-1.35-3.66-.5-2.67-1.18-3.73-.9-2.38-1.56-3.45-2-1.71-2.64-2.79-.58-2.55-1.2-3.64-2.46-1.5-3.06-2.61-2.09-1.76-2.67-2.88-.49-2.58-1.04-3.72-1.6-2.04-2.13-3.18-.3-2.63-.81-3.79.12-2.77-.37-3.94-2.62-1.65-3.08-2.82-.31-2.58-.75-3.76.41-2.81,0-4-2.22-1.9-2.61-3.1.83-2.88.46-4.09-2.31-1.93-2.65-3.15-.81-2.39-1.13-3.61-.19-2.55-.48-3.77-.05-2.56-.32-3.79-.22-2.51-.47-3.74-1.05-2.35-1.27-3.59-.81-2.41-1-3.66.59-2.62.42-3.87-2.37-2.24-2.51-3.49,1.78-2.72,1.66-3.98-.99-2.43-1.09-3.68.31-2.53.23-3.79-.14-2.5-.19-3.76-1.27-2.48-1.29-3.74,1.96-2.53,1.96-3.79-2.54-2.54-2.52-3.8,1.35-2.49,1.4-3.75.8-2.47.87-3.73-.44-2.54-.34-3.8-1.3-2.65-1.18-3.9,1.41-2.4,1.56-3.64-.72-2.64-.55-3.89,1.52-2.33,1.72-3.57-.87-2.71-.65-3.95,3-2,3.24-3.23-2.22-3.03-1.95-4.26,3.39-1.81,3.68-3.03,0-2.57.32-3.79-.57-2.76-.23-3.97,1.01-2.33,1.38-3.53,1.23-2.25,1.62-3.44.16-2.6.57-3.79,1.89-1.99,2.32-3.17-1.02-3.08-.56-4.26,1.55-2.11,2.03-3.27,1.35-2.16,1.86-3.32-.12-2.83.41-3.97,2.66-1.53,3.21-2.67,1.78-1.91,2.35-3.03.69-2.46,1.28-3.57.05-2.84.67-3.94,1.2-2.23,1.84-3.31,2.78-1.26,3.44-2.33-.03-2.98.65-4.04,2.6-1.3,3.3-2.34.69-2.56,1.41-3.59,1.52-2.01,2.26-3.02,2.26-1.44,3.02-2.44.36-2.89,1.14-3.88,1.16-2.31,1.96-3.28,2.62-1.09,3.44-2.05.73-2.7,1.57-3.65,2.58-1.07,3.43-1.99,2.18-1.38,3.06-2.29.79-2.74,1.68-3.63,1.01-2.58,1.92-3.45,3.69.24,4.61-.61,1.21-2.38,2.15-3.22,2.42-1.03,3.38-1.85,1.18-2.48,2.16-3.28,1.53-2.12,2.51-2.9,2.92-.33,3.93-1.09,1.22-2.57,2.23-3.31,3.03-.07,4.06-.79,1.56-2.15,2.6-2.85,2.61-.58,3.67-1.25,2.01-1.47,3.09-2.13,1.99-1.53,3.07-2.17,1.18-3.01,2.27-3.62,3.3.79,4.41.19,2.15-1.26,3.27-1.83,1.76-2.07,2.9-2.62,2.6-.37,3.74-.9,1.91-1.86,3.07-2.36,2.82.23,3.98-.25,1.77-2.32,2.94-2.78,2.83.4,4.01-.04,1.82-2.36,3.01-2.77,2.3-1.08,3.5-1.47,2.17-1.56,3.37-1.92,3.22,2.06,4.44,1.72,2.3-1.04,3.52-1.36,1.83-3.05,3.06-3.35,2.57-.15,3.8-.42,2.54-.22,3.78-.46,2.77,1.11,4.01.89,2.1-2.7,3.35-2.9,2.61.33,3.86.16,2.64.83,3.89.68,2.56.48,3.82.36,2.4-1.2,3.66-1.3,2.44-1.22,3.7-1.3,2.54.24,3.8.19,2.51-.45,3.78-.47,2.53,1.57,3.79,1.57,2.51-.26,3.76-.24,2.52-.17,3.77-.12,2.6-1.38,3.85-1.3,2.54.07,3.8.17,2.56-.02,3.81.1,2.46.91,3.71,1.06,2.33,1.68,3.57,1.85,2.64-.64,3.88-.44,2.54.17,3.77.39,2.54.22,3.77.47,2.61-.06,3.84.21,2.31,1.29,3.53,1.58,2.18,1.69,3.39,2.01,2.17,1.54,3.38,1.88,2.48.42,3.68.78,2.63-.02,3.83.37,2.73-.2,3.92.21,2.03,1.8,3.21,2.24,2.64.14,3.81.6,2.14,1.43,3.3,1.91,2.45.68,3.6,1.19,1.77,2.19,2.91,2.72,2.85-.14,3.98.41,2.74.18,3.86.75,1.04,3.45,2.15,4.04,2.37.88,3.46,1.5,2.86.07,3.95.7,1.15,2.96,2.22,3.62,3.27-.48,4.33.19,1.96,1.62,3.01,2.32,2,1.55,3.03,2.27,1.86,1.72,2.88,2.46,1.3,2.45,2.3,3.21,2.68.63,3.66,1.41,1.88,1.68,2.85,2.48,1.82,1.74,2.77,2.56,1.41,2.19,2.35,3.03,3.4,0,4.32.85.94,2.68,1.85,3.55,1.51,2.04,2.4,2.93,3.04.55,3.91,1.46,1.37,2.19,2.22,3.12,1.96,1.64,2.8,2.58,1.55,2.01,2.37,2.96,2.13,1.53,2.93,2.5.29,3.01,1.07,4,2.29,1.42,3.05,2.42,1.31,2.17,2.05,3.19,1.43,2.08,2.15,3.11.68,2.58,1.38,3.63,2.88,1.13,3.56,2.19-.72,3.43-.07,4.5,3.33.93,3.97,2.02.16,2.82.77,3.92,1.65,1.96,2.25,3.07.77,2.44,1.34,3.56,2.3,1.68,2.85,2.81.87,2.39,1.4,3.54,1.15,2.26,1.66,3.41-1.27,3.27-.79,4.44,2.17,1.82,2.63,2.99.11,2.64.55,3.82,2.22,1.87,2.63,3.06-.34,2.77.04,3.97,2.83,1.76,3.19,2.96-.83,2.88-.49,4.09,1.39,2.23,1.71,3.45.32,2.52.61,3.75-1.06,2.81-.79,4.04,1.95,2.15,2.2,3.39.27,2.51.49,3.75-.43,2.61-.23,3.86,1.86,2.26,2.03,3.51.99,2.42,1.14,3.68-.14,2.56-.02,3.82.16,2.52.26,3.78-.06,2.53.01,3.79.56,2.5.61,3.76-.23,2.54-.2,3.8.7,2.52.7,3.79Z" style="fill: #fff;"/>
  <path d="M443.42,250c0,1.26-.56,2.53-.58,3.79s-1.78,2.47-1.83,3.72-.34,2.48-.41,3.74,1.28,2.6,1.18,3.85-1.28,2.41-1.4,3.66.22,2.54.07,3.79-.03,2.53-.2,3.77,1.29,2.75,1.1,3.99-2.24,2.19-2.46,3.43-.45,2.47-.69,3.7-.86,2.38-1.13,3.61.51,2.7.22,3.92-1.66,2.18-1.97,3.39.47,2.73.13,3.94-2.37,1.92-2.74,3.12-.36,2.5-.75,3.7.43,2.79.02,3.98.23,2.77-.21,3.95-2.64,1.7-3.1,2.87-.87,2.36-1.35,3.52.02,2.75-.48,3.9-.78,2.43-1.31,3.57-.73,2.47-1.28,3.6-3.51,1.07-4.08,2.19-.07,2.79-.66,3.9-1.28,2.17-1.9,3.26-.04,2.89-.67,3.98-2.72,1.31-3.38,2.38.27,3.15-.41,4.21-1.8,1.86-2.5,2.9-3.41.71-4.13,1.75-1.37,2.08-2.11,3.1-.86,2.47-1.62,3.48-.31,2.95-1.09,3.94-1.56,2-2.36,2.97-2.55,1.15-3.37,2.11-.6,2.83-1.44,3.77-1.68,1.91-2.53,2.83-1.65,1.93-2.53,2.84-1.62,1.98-2.51,2.87-3.42.12-4.33.99-1.89,1.64-2.81,2.5-1.13,2.49-2.07,3.33-2.62.81-3.57,1.63-.66,3.13-1.63,3.93-3,.29-3.99,1.07-2.02,1.47-3.03,2.23-1.87,1.68-2.88,2.42-1.76,1.85-2.8,2.57-2.4.93-3.45,1.63-1.26,2.68-2.31,3.36-2.67.49-3.74,1.15-2.45.79-3.53,1.43-1.41,2.6-2.51,3.22-2.05,1.54-3.16,2.13-2.27,1.14-3.39,1.71-3.2-.77-4.33-.22-2.33.91-3.47,1.44-1.29,3.26-2.44,3.77-2.36.93-3.52,1.42-2.5.58-3.67,1.04-2.62.21-3.8.64-2.54.34-3.73.75-2.52.35-3.72.74-1.89,2.37-3.09,2.74-2.38.88-3.59,1.22-2.37.94-3.59,1.26-2.63-.08-3.85.21-2.33,1.15-3.56,1.42-2.51.37-3.74.62-2.71-.81-3.95-.59-2.33,1.29-3.58,1.49-2.33,1.55-3.58,1.72-2.71-1.26-3.96-1.11-2.39,1.36-3.65,1.48-2.67-1.71-3.93-1.62-2.47.52-3.73.59-2.52-.54-3.78-.49-2.46,1.38-3.72,1.41-2.51-1.3-3.78-1.3-2.49-.03-3.75-.05-2.55,1.36-3.8,1.32-2.51-.18-3.77-.25-2.51-.27-3.76-.37-2.49-.45-3.74-.57-2.46-.58-3.71-.73-2.48-.36-3.72-.53-2.43-.65-3.67-.84-2.55.07-3.79-.15-2.61.25-3.84,0-2.67.41-3.9.14-2.42-.78-3.65-1.07-2.06-2.13-3.28-2.45-2.86.91-4.07.57-2.16-1.6-3.37-1.97-2.07-1.76-3.27-2.15-2.92.81-4.11.4-2.51-.49-3.69-.93-2.29-1.1-3.46-1.56-1.67-2.58-2.83-3.06-2.56-.38-3.71-.88-1.88-1.92-3.02-2.45-3.38,1.26-4.51.71-1.76-2.13-2.88-2.7-1.6-2.34-2.71-2.93-3.02.29-4.11-.33-2.56-.62-3.65-1.26-1.66-2.15-2.73-2.8-1.7-2.01-2.76-2.69-3.01,0-4.05-.7-2.23-1.23-3.26-1.95-.66-3.41-1.67-4.15-2.84-.38-3.84-1.14-2.79-.53-3.78-1.31-1.44-2.25-2.42-3.05-1.52-2.12-2.47-2.93-1.46-2.14-2.4-2.97-1.55-2-2.48-2.86-2.01-1.5-2.92-2.37-3.3-.23-4.19-1.12-.43-3.1-1.31-4.01-1.43-2.09-2.28-3.01-2.82-.83-3.65-1.77-1.36-2.16-2.18-3.11-1.32-2.17-2.12-3.14-2.28-1.39-3.06-2.38-2.19-1.51-2.95-2.51-.3-2.92-1.04-3.94-2.61-1.24-3.33-2.27-.65-2.62-1.35-3.66-.5-2.67-1.18-3.73-.9-2.38-1.56-3.45-2-1.71-2.64-2.79-.58-2.55-1.2-3.64-2.46-1.5-3.06-2.61-2.09-1.76-2.67-2.88-.49-2.58-1.04-3.72-1.6-2.04-2.13-3.18-.3-2.63-.81-3.79.12-2.77-.37-3.94-2.62-1.65-3.08-2.82-.31-2.58-.75-3.76.41-2.81,0-4-2.22-1.9-2.61-3.1.83-2.88.46-4.09-2.31-1.93-2.65-3.15-.81-2.39-1.13-3.61-.19-2.55-.48-3.77-.05-2.56-.32-3.79-.22-2.51-.47-3.74-1.05-2.35-1.27-3.59-.81-2.41-1-3.66.59-2.62.42-3.87-2.37-2.24-2.51-3.49,1.78-2.72,1.66-3.98-.99-2.43-1.09-3.68.31-2.53.23-3.79-.14-2.5-.19-3.76-1.27-2.48-1.29-3.74,1.96-2.53,1.96-3.79-2.54-2.54-2.52-3.8,1.35-2.49,1.4-3.75.8-2.47.87-3.73-.44-2.54-.34-3.8-1.3-2.65-1.18-3.9,1.41-2.4,1.56-3.64-.72-2.64-.55-3.89,1.52-2.33,1.72-3.57-.87-2.71-.65-3.95,3-2,3.24-3.23-2.22-3.03-1.95-4.26,3.39-1.81,3.68-3.03,0-2.57.32-3.79-.57-2.76-.23-3.97,1.01-2.33,1.38-3.53,1.23-2.25,1.62-3.44.16-2.6.57-3.79,1.89-1.99,2.32-3.17-1.02-3.08-.56-4.26,1.55-2.11,2.03-3.27,1.35-2.16,1.86-3.32-.12-2.83.41-3.97,2.66-1.53,3.21-2.67,1.78-1.91,2.35-3.03.69-2.46,1.28-3.57.05-2.84.67-3.94,1.2-2.23,1.84-3.31,2.78-1.26,3.44-2.33-.03-2.98.65-4.04,2.6-1.3,3.3-2.34.69-2.56,1.41-3.59,1.52-2.01,2.26-3.02,2.26-1.44,3.02-2.44.36-2.89,1.14-3.88,1.16-2.31,1.96-3.28,2.62-1.09,3.44-2.05.73-2.7,1.57-3.65,2.58-1.07,3.43-1.99,2.18-1.38,3.06-2.29.79-2.74,1.68-3.63,1.01-2.58,1.92-3.45,3.69.24,4.61-.61,1.21-2.38,2.15-3.22,2.42-1.03,3.38-1.85,1.18-2.48,2.16-3.28,1.53-2.12,2.51-2.9,2.92-.33,3.93-1.09,1.22-2.57,2.23-3.31,3.03-.07,4.06-.79,1.56-2.15,2.6-2.85,2.61-.58,3.67-1.25,2.01-1.47,3.09-2.13,1.99-1.53,3.07-2.17,1.18-3.01,2.27-3.62,3.3.79,4.41.19,2.15-1.26,3.27-1.83,1.76-2.07,2.9-2.62,2.6-.37,3.74-.9,1.91-1.86,3.07-2.36,2.82.23,3.98-.25,1.77-2.32,2.94-2.78,2.83.4,4.01-.04,1.82-2.36,3.01-2.77,2.3-1.08,3.5-1.47,2.17-1.56,3.37-1.92,3.22,2.06,4.44,1.72,2.3-1.04,3.52-1.36,1.83-3.05,3.06-3.35,2.57-.15,3.8-.42,2.54-.22,3.78-.46,2.77,1.11,4.01.89,2.1-2.7,3.35-2.9,2.61.33,3.86.16,2.64.83,3.89.68,2.56.48,3.82.36,2.4-1.2,3.66-1.3,2.44-1.22,3.7-1.3,2.54.24,3.8.19,2.51-.45,3.78-.47,2.53,1.57,3.79,1.57,2.51-.26,3.76-.24,2.52-.17,3.77-.12,2.6-1.38,3.85-1.3,2.54.07,3.8.17,2.56-.02,3.81.1,2.46.91,3.71,1.06,2.33,1.68,3.57,1.85,2.64-.64,3.88-.44,2.54.17,3.77.39,2.54.22,3.77.47,2.61-.06,3.84.21,2.31,1.29,3.53,1.58,2.18,1.69,3.39,2.01,2.17,1.54,3.38,1.88,2.48.42,3.68.78,2.63-.02,3.83.37,2.73-.2,3.92.21,2.03,1.8,3.21,2.24,2.64.14,3.81.6,2.14,1.43,3.3,1.91,2.45.68,3.6,1.19,1.77,2.19,2.91,2.72,2.85-.14,3.98.41,2.74.18,3.86.75,1.04,3.45,2.15,4.04,2.37.88,3.46,1.5,2.86.07,3.95.7,1.15,2.96,2.22,3.62,3.27-.48,4.33.19,1.96,1.62,3.01,2.32,2,1.55,3.03,2.27,1.86,1.72,2.88,2.46,1.3,2.45,2.3,3.21,2.68.63,3.66,1.41,1.88,1.68,2.85,2.48,1.82,1.74,2.77,2.56,1.41,2.19,2.35,3.03,3.4,0,4.32.85.94,2.68,1.85,3.55,1.51,2.04,2.4,2.93,3.04.55,3.91,1.46,1.37,2.19,2.22,3.12,1.96,1.64,2.8,2.58,1.55,2.01,2.37,2.96,2.13,1.53,2.93,2.5.29,3.01,1.07,4,2.29,1.42,3.05,2.42,1.31,2.17,2.05,3.19,1.43,2.08,2.15,3.11.68,2.58,1.38,3.63,2.88,1.13,3.56,2.19-.72,3.43-.07,4.5,3.33.93,3.97,2.02.16,2.82.77,3.92,1.65,1.96,2.25,3.07.77,2.44,1.34,3.56,2.3,1.68,2.85,2.81.87,2.39,1.4,3.54,1.15,2.26,1.66,3.41-1.27,3.27-.79,4.44,2.17,1.82,2.63,2.99.11,2.64.55,3.82,2.22,1.87,2.63,3.06-.34,2.77.04,3.97,2.83,1.76,3.19,2.96-.83,2.88-.49,4.09,1.39,2.23,1.71,3.45.32,2.52.61,3.75-1.06,2.81-.79,4.04,1.95,2.15,2.2,3.39.27,2.51.49,3.75-.43,2.61-.23,3.86,1.86,2.26,2.03,3.51.99,2.42,1.14,3.68-.14,2.56-.02,3.82.16,2.52.26,3.78-.06,2.53.01,3.79.56,2.5.61,3.76-.23,2.54-.2,3.8.7,2.52.7,3.79Z" style="fill: none; stroke: #000; stroke-miterlimit: 10; stroke-width: 15px;"/>
</svg>