<?xml version="1.0" encoding="UTF-8"?>
<svg id="Small" xmlns="http://www.w3.org/2000/svg" width="500" height="500" viewBox="0 0 500 500">
  <path d="M250.002,58.887c1.893-.008-.169,1.895.777,3.534.946,1.639,2.193.919,3.139,2.559.946,1.639.224,2.056,1.171,3.695s.668,1.8,1.614,3.439,1.178,1.506,2.124,3.145c.947,1.64.846,1.698,1.792,3.337s1.598,1.264,2.544,2.904c.947,1.64,2.101.974,3.048,2.614s-.598,2.533.349,4.173.354,1.984,1.301,3.625,1.613,1.256,2.56,2.897c.947,1.64.1,2.129,1.047,3.769.947,1.64,3.41.218,4.357,1.858.947,1.64-.711,2.597.236,4.236.947,1.64.814,1.716,1.761,3.355.947,1.64,1.181,1.504,2.128,3.144s.084,2.138,1.031,3.777,2.301.858,3.247,2.498,1.082,1.562,2.029,3.202-.299,2.36.648,4,3.07.415,4.017,2.056c.948,1.641-.444,2.445.503,4.086s.401,1.956,1.349,3.596,1.585,1.272,2.532,2.912c.947,1.64-.035,2.207.912,3.847s2.186.924,3.133,2.564,1.832,1.129,2.779,2.769-.681,2.579.266,4.219,1.871,1.107,2.818,2.747c.947,1.64.918,1.657,1.865,3.297s1.263,1.458,2.211,3.099-.791,2.645.157,4.286,1.423,1.366,2.37,3.007.824,1.711,1.771,3.352,1.694,1.209,2.641,2.849c.947,1.64,1.848,1.12,2.795,2.76.947,1.64,1.348,1.409,2.295,3.049.947,1.64-.607,2.538.34,4.178.947,1.641.464,1.92,1.411,3.56.948,1.641.439,1.935,1.386,3.576s2.823.558,3.77,2.199,1.11,1.546,2.058,3.187-.246,2.329.701,3.969,1.814,1.14,2.761,2.78,1.353,1.406,2.3,3.046.684,1.793,1.632,3.433-.21,2.31.737,3.951,2.305.858,3.252,2.499c.947,1.641-1.04,2.788-.093,4.429s2.132.957,3.079,2.597c.947,1.641,1.667,1.225,2.614,2.866s1.255,1.463,2.202,3.104c.947,1.641-.143,2.271.804,3.912s.663,1.805,1.61,3.446,2.623.672,3.57,2.312c.946,1.639-.095,2.241.851,3.88.946,1.639.994,1.611,1.94,3.25.946,1.638-.222,2.313.724,3.951.946,1.638,2.889.516,3.835,2.155.946,1.639.906,1.662,1.852,3.301.947,1.639-.765,2.628.182,4.267.947,1.64.911,1.661,1.858,3.302s1.728,1.191,2.676,2.833.337,1.993,1.284,3.634c.947,1.64.524,1.884,1.471,3.524s1.641,1.239,2.587,2.878,1.801,1.146,2.748,2.785c.947,1.64.49,1.903,1.437,3.543.947,1.64.878,1.68,1.825,3.321s2.188.925,3.136,2.567-.501,2.478.447,4.12c.947,1.641,1.537,1.3,2.484,2.941s-.094,2.241.853,3.881c.947,1.64,1.637,1.242,2.584,2.882.947,1.641,1.113,1.545,2.061,3.186.948,1.642.295,2.019,1.243,3.661s1.08,1.565,2.028,3.207c.947,1.641,1.791,1.154,2.738,2.794q.947,1.641,1.891,3.283c.948,1.641,1.017,1.601,1.964,3.243s-.283,2.354.665,3.996c.948,1.641,2.707.626,3.655,2.267.947,1.641.203,2.071,1.15,3.712.948,1.642,1.458,1.347,2.406,2.989.948,1.642,1.235,1.477,2.183,3.119.948,1.641.01,2.183.958,3.824s.168,2.092,1.116,3.734.692,1.79,1.64,3.433c.948,1.642.493,1.904,1.441,3.546.948,1.643,1.83,1.133,2.779,2.776s1.731,1.19,2.679,2.832-.242,2.329.706,3.972,1.139,1.532,2.087,3.175c.947,1.64,2.684.637,3.63,2.276s-.678,2.579.269,4.22,2.616.68,3.565,2.322c.947,1.641.587,1.849,1.534,3.49.948,1.643-.269,2.346.68,3.988.948,1.642,1.367,1.4,2.315,3.042s1.488,1.332,2.437,2.975c.948,1.642,1.381,1.392,2.329,3.035s-.918,2.721.03,4.364c.949,1.644,2.892.522,3.841,2.166s.828,1.714,1.777,3.358c.948,1.642.506,1.897,1.454,3.539.949,1.644,1.487,1.333,2.437,2.977.949,1.644-.391,2.418.558,4.062.949,1.644,1.653,1.238,2.602,2.883.951,1.647-.749,2.629.202,4.276.951,1.647,5.32,1.629,4.376,3.28s-3.123-.072-5.016-.072-1.893-.56-3.785-.56-1.893-.22-3.785-.22c-1.893,0-1.893-.809-3.786-.809-1.893,0-1.893,1.093-3.786,1.093-1.893,0-1.893-1.278-3.786-1.278-1.893,0-1.893.646-3.787.646-1.894,0-1.894.721-3.788.721s-1.894.76-3.789.76-1.895-2.006-3.79-2.006c-1.894,0-1.894.063-3.789.063s-1.894.327-3.788.327-1.894,1.041-3.787,1.041c-1.893,0-1.893,1.004-3.787,1.004s-1.893-1.641-3.786-1.641-1.893-.644-3.786-.644-1.893,1.462-3.786,1.462c-1.893,0-1.893.328-3.787.328-1.894,0-1.894-.515-3.787-.515s-1.894-.813-3.788-.813-1.894,1.425-3.789,1.425-1.895-2.24-3.79-2.24-1.894,2.187-3.789,2.187c-1.894,0-1.894-.657-3.788-.657-1.894,0-1.894-.846-3.788-.846s-1.894.301-3.787.301-1.894-1.26-3.787-1.26c-1.894,0-1.894,1.769-3.787,1.769s-1.894-.493-3.788-.493c-1.894,0-1.894.375-3.788.375-1.895,0-1.895.388-3.789.388-1.895,0-1.895-.107-3.79-.107s-1.895-1.188-3.789-1.188-1.894-.099-3.788-.099-1.894.592-3.788.592-1.894.111-3.788.111-1.894-1.178-3.788-1.178-1.894-.163-3.788-.163-1.895.233-3.789.233c-1.895,0-1.895.298-3.79.298-1.895,0-1.895-.059-3.79-.059s-1.894-.172-3.789-.172-1.894-.116-3.788-.116-1.894-.004-3.788-.004c-1.894,0-1.894,1.821-3.788,1.821-1.895,0-1.895-1.424-3.789-1.424s-1.895,2.27-3.79,2.27-1.895-.118-3.79-.118c-1.895,0-1.895-2.528-3.789-2.528-1.894,0-1.894.568-3.789.568-1.894,0-1.894,2.06-3.789,2.06s-1.895-.845-3.789-.845-1.895,1.008-3.79,1.008-1.895-1.22-3.79-1.22-1.895.092-3.789.092c-1.894,0-1.894-.542-3.789-.542s-1.895-.855-3.789-.855c-1.895,0-1.895,1.975-3.79,1.975-1.895,0-1.895-1.823-3.79-1.823-1.892,0-1.892-.03-3.784-.03s-1.893,1.584-3.786,1.584-1.894-1.765-3.788-1.765c-1.895,0-1.895-.402-3.791-.402-1.894,0-1.894,1.279-3.789,1.279-1.893,0-1.893-.594-3.787-.594-1.893,0-1.893,1.343-3.786,1.343s-1.893-1.578-3.785-1.578c-1.893,0-1.893-.323-3.786-.323s-1.894.588-3.788.588c-1.895,0-1.895-.357-3.79-.357-1.895,0-1.895.765-3.791.765-1.894,0-1.894,1.489-3.788,1.489-1.894,0-1.894-.206-3.787-.206-1.894,0-1.894-1.008-3.787-1.008-1.894,0-1.894,1.125-3.789,1.125-1.896,0-1.896.069-3.791.069-1.895,0-1.895-2.467-3.791-2.467s-1.894.456-3.789.456-1.894,1.908-3.788,1.908-1.895-.92-3.79-.92-1.896.835-3.793.835-1.895-.66-3.79-.66-1.895-.722-3.789-.722-1.896.698-3.791.698-1.896.552-3.792.552c-1.895,0-1.895-.796-3.79-.796s-1.896-.55-3.791-.55c-1.896,0-1.896.343-3.793.343-1.895,0-1.895,1.428-3.791,1.428-1.896,0-1.896-1.518-3.793-1.518s-1.896.551-3.792.551c-1.896,0-1.896-.418-3.792-.418-1.896,0-1.896,1.036-3.792,1.036-1.897,0-1.897.32-3.793.32s-1.896-1.817-3.792-1.817-1.896.82-3.792.82c-1.894,0-1.894-.261-3.788-.261-1.896,0-1.896.272-3.793.272-1.895,0-1.895.802-3.79.802s-1.897-1.597-3.794-1.597-1.896.773-3.792.773-1.897-.529-3.794-.529c-1.898,0-1.898-.961-3.795-.961-1.898,0-1.898,1.761-3.795,1.761-1.898,0-1.898-1.408-3.795-1.408s-1.897.898-3.794.898c-1.897,0-1.897,1.1-3.795,1.1s-1.898.215-3.796.215-1.901-1.407-3.802-1.407c-1.901,0-3.043,1.913-3.999.271s.642-2.044,1.588-3.683c.946-1.639,2.615-.675,3.562-2.315.946-1.639.638-1.817,1.584-3.456.946-1.639-.75-2.619.196-4.258s1.609-1.257,2.555-2.896,1.257-1.46,2.204-3.1c.947-1.64,1.375-1.393,2.322-3.032.947-1.64.794-1.728,1.741-3.369.947-1.641.409-1.951,1.356-3.592s.277-2.028,1.224-3.669.653-1.811,1.6-3.451,2.64-.663,3.587-2.303c.947-1.64.308-2.008,1.255-3.648s2.172-.932,3.118-2.572-.213-2.309.733-3.949.789-1.731,1.735-3.37,1.132-1.532,2.079-3.172.123-2.115,1.07-3.755c.947-1.64,1.223-1.48,2.17-3.12.947-1.64,1.971-1.049,2.918-2.689.947-1.641-.257-2.336.691-3.976s1.444-1.354,2.392-2.996.179-2.084,1.126-3.725.704-1.781,1.651-3.421c.947-1.64,1.831-1.13,2.778-2.77s2.503-.742,3.449-2.382c.947-1.64-.555-2.507.392-4.147s2.175-.931,3.122-2.57-.134-2.264.813-3.904,1.183-1.504,2.13-3.144-.387-2.411.56-4.052c.948-1.641,2.918-.503,3.866-2.145s-.615-2.543.332-4.184c.947-1.64,3.02-.444,3.967-2.084s.11-2.123,1.057-3.764-.238-2.324.709-3.964,1.683-1.215,2.63-2.855c.947-1.64.57-1.858,1.517-3.499.947-1.641,2.3-.86,3.247-2.501.948-1.641-1.19-2.876-.243-4.517.947-1.641,1.734-1.187,2.681-2.828.947-1.641,1.677-1.219,2.624-2.86s.649-1.812,1.596-3.453,1.368-1.397,2.315-3.038.309-2.009,1.256-3.649.439-1.934,1.386-3.575,2.595-.69,3.543-2.331.95-1.64,1.897-3.281.799-1.726,1.746-3.367c.947-1.641.314-2.006,1.261-3.646s.753-1.752,1.701-3.393c.947-1.641,2.044-1.008,2.991-2.648s.11-2.125,1.057-3.766c.947-1.641,1.372-1.396,2.319-3.037s.459-1.921,1.406-3.561,1.246-1.466,2.192-3.105c.946-1.639,1.264-1.455,2.21-3.094s1.35-1.405,2.296-3.043.3-2.011,1.246-3.65c.946-1.639,1.203-1.491,2.149-3.129s-.033-2.205.913-3.845.491-1.904,1.438-3.544,2.644-.663,3.592-2.304.544-1.874,1.492-3.515c.947-1.64,1.297-1.438,2.244-3.078s.034-2.166.98-3.806,1.188-1.5,2.134-3.139,1.695-1.208,2.641-2.847c.947-1.64.629-1.824,1.576-3.464.948-1.641-.053-2.219.894-3.861s1.773-1.165,2.721-2.807c.947-1.641.535-1.878,1.483-3.519s.538-1.876,1.485-3.516,1.363-1.4,2.31-3.04.059-2.153,1.007-3.794,2.367-.822,3.315-2.464.362-1.98,1.31-3.622c.947-1.641,1.104-1.55,2.051-3.191.947-1.641.914-1.66,1.861-3.3.948-1.641-.411-2.425.537-4.067.948-1.643,1.613-1.259,2.562-2.901s1.948-1.064,2.896-2.705c.947-1.641.527-1.884,1.474-3.525s-.265-2.342.683-3.984,2.298-.863,3.246-2.506c.948-1.641.046-2.162.993-3.804.948-1.642.463-1.922,1.411-3.564.948-1.642,2.854-.542,3.802-2.185s-.068-2.228.88-3.87c.948-1.643,1.736-1.188,2.684-2.83s.709-1.78,1.658-3.422,1.338-1.418,2.286-3.06c.948-1.642-.298-2.362.65-4.004.947-1.64,2.545-.717,3.491-2.357s-.685-2.583.262-4.224c.948-1.643,2.488-.754,3.436-2.396.947-1.641.791-1.731,1.739-3.372.948-1.643-1.14-2.849-.192-4.491s2.852-.543,3.8-2.184c.949-1.643,1.422-1.37,2.37-3.014.948-1.642-1.093-2.821-.144-4.463.949-1.643,1.38-1.394,2.329-3.037.949-1.644,2.548-.721,3.498-2.364s.76-1.753,1.71-3.397-1.214-2.89-.266-4.532,1.371-1.4,2.32-3.044.865-1.693,1.814-3.337,2.088-.987,3.037-2.632c.951-1.647,2.51-1.186,3.069-3.004.567-1.846-1.419-3.336.483-3.344Z" style="fill: #fff;"/>
  <path d="M250.002,58.887c1.893-.008-.169,1.895.777,3.534.946,1.639,2.193.919,3.139,2.559.946,1.639.224,2.056,1.171,3.695s.668,1.8,1.614,3.439,1.178,1.506,2.124,3.145c.947,1.64.846,1.698,1.792,3.337s1.598,1.264,2.544,2.904c.947,1.64,2.101.974,3.048,2.614s-.598,2.533.349,4.173.354,1.984,1.301,3.625,1.613,1.256,2.56,2.897c.947,1.64.1,2.129,1.047,3.769.947,1.64,3.41.218,4.357,1.858.947,1.64-.711,2.597.236,4.236.947,1.64.814,1.716,1.761,3.355.947,1.64,1.181,1.504,2.128,3.144s.084,2.138,1.031,3.777,2.301.858,3.247,2.498,1.082,1.562,2.029,3.202-.299,2.36.648,4,3.07.415,4.017,2.056c.948,1.641-.444,2.445.503,4.086s.401,1.956,1.349,3.596,1.585,1.272,2.532,2.912c.947,1.64-.035,2.207.912,3.847s2.186.924,3.133,2.564,1.832,1.129,2.779,2.769-.681,2.579.266,4.219,1.871,1.107,2.818,2.747c.947,1.64.918,1.657,1.865,3.297s1.263,1.458,2.211,3.099-.791,2.645.157,4.286,1.423,1.366,2.37,3.007.824,1.711,1.771,3.352,1.694,1.209,2.641,2.849c.947,1.64,1.848,1.12,2.795,2.76.947,1.64,1.348,1.409,2.295,3.049.947,1.64-.607,2.538.34,4.178.947,1.641.464,1.92,1.411,3.56.948,1.641.439,1.935,1.386,3.576s2.823.558,3.77,2.199,1.11,1.546,2.058,3.187-.246,2.329.701,3.969,1.814,1.14,2.761,2.78,1.353,1.406,2.3,3.046.684,1.793,1.632,3.433-.21,2.31.737,3.951,2.305.858,3.252,2.499c.947,1.641-1.04,2.788-.093,4.429s2.132.957,3.079,2.597c.947,1.641,1.667,1.225,2.614,2.866s1.255,1.463,2.202,3.104c.947,1.641-.143,2.271.804,3.912s.663,1.805,1.61,3.446,2.623.672,3.57,2.312c.946,1.639-.095,2.241.851,3.88.946,1.639.994,1.611,1.94,3.25.946,1.638-.222,2.313.724,3.951.946,1.638,2.889.516,3.835,2.155.946,1.639.906,1.662,1.852,3.301.947,1.639-.765,2.628.182,4.267.947,1.64.911,1.661,1.858,3.302s1.728,1.191,2.676,2.833.337,1.993,1.284,3.634c.947,1.64.524,1.884,1.471,3.524s1.641,1.239,2.587,2.878,1.801,1.146,2.748,2.785c.947,1.64.49,1.903,1.437,3.543.947,1.64.878,1.68,1.825,3.321s2.188.925,3.136,2.567-.501,2.478.447,4.12c.947,1.641,1.537,1.3,2.484,2.941s-.094,2.241.853,3.881c.947,1.64,1.637,1.242,2.584,2.882.947,1.641,1.113,1.545,2.061,3.186.948,1.642.295,2.019,1.243,3.661s1.08,1.565,2.028,3.207c.947,1.641,1.791,1.154,2.738,2.794q.947,1.641,1.891,3.283c.948,1.641,1.017,1.601,1.964,3.243s-.283,2.354.665,3.996c.948,1.641,2.707.626,3.655,2.267.947,1.641.203,2.071,1.15,3.712.948,1.642,1.458,1.347,2.406,2.989.948,1.642,1.235,1.477,2.183,3.119.948,1.641.01,2.183.958,3.824s.168,2.092,1.116,3.734.692,1.79,1.64,3.433c.948,1.642.493,1.904,1.441,3.546.948,1.643,1.83,1.133,2.779,2.776s1.731,1.19,2.679,2.832-.242,2.329.706,3.972,1.139,1.532,2.087,3.175c.947,1.64,2.684.637,3.63,2.276s-.678,2.579.269,4.22,2.616.68,3.565,2.322c.947,1.641.587,1.849,1.534,3.49.948,1.643-.269,2.346.68,3.988.948,1.642,1.367,1.4,2.315,3.042s1.488,1.332,2.437,2.975c.948,1.642,1.381,1.392,2.329,3.035s-.918,2.721.03,4.364c.949,1.644,2.892.522,3.841,2.166s.828,1.714,1.777,3.358c.948,1.642.506,1.897,1.454,3.539.949,1.644,1.487,1.333,2.437,2.977.949,1.644-.391,2.418.558,4.062.949,1.644,1.653,1.238,2.602,2.883.951,1.647-.749,2.629.202,4.276.951,1.647,5.32,1.629,4.376,3.28s-3.123-.072-5.016-.072-1.893-.56-3.785-.56-1.893-.22-3.785-.22c-1.893,0-1.893-.809-3.786-.809-1.893,0-1.893,1.093-3.786,1.093-1.893,0-1.893-1.278-3.786-1.278-1.893,0-1.893.646-3.787.646-1.894,0-1.894.721-3.788.721s-1.894.76-3.789.76-1.895-2.006-3.79-2.006c-1.894,0-1.894.063-3.789.063s-1.894.327-3.788.327-1.894,1.041-3.787,1.041c-1.893,0-1.893,1.004-3.787,1.004s-1.893-1.641-3.786-1.641-1.893-.644-3.786-.644-1.893,1.462-3.786,1.462c-1.893,0-1.893.328-3.787.328-1.894,0-1.894-.515-3.787-.515s-1.894-.813-3.788-.813-1.894,1.425-3.789,1.425-1.895-2.24-3.79-2.24-1.894,2.187-3.789,2.187c-1.894,0-1.894-.657-3.788-.657-1.894,0-1.894-.846-3.788-.846s-1.894.301-3.787.301-1.894-1.26-3.787-1.26c-1.894,0-1.894,1.769-3.787,1.769s-1.894-.493-3.788-.493c-1.894,0-1.894.375-3.788.375-1.895,0-1.895.388-3.789.388-1.895,0-1.895-.107-3.79-.107s-1.895-1.188-3.789-1.188-1.894-.099-3.788-.099-1.894.592-3.788.592-1.894.111-3.788.111-1.894-1.178-3.788-1.178-1.894-.163-3.788-.163-1.895.233-3.789.233c-1.895,0-1.895.298-3.79.298-1.895,0-1.895-.059-3.79-.059s-1.894-.172-3.789-.172-1.894-.116-3.788-.116-1.894-.004-3.788-.004c-1.894,0-1.894,1.821-3.788,1.821-1.895,0-1.895-1.424-3.789-1.424s-1.895,2.27-3.79,2.27-1.895-.118-3.79-.118c-1.895,0-1.895-2.528-3.789-2.528-1.894,0-1.894.568-3.789.568-1.894,0-1.894,2.06-3.789,2.06s-1.895-.845-3.789-.845-1.895,1.008-3.79,1.008-1.895-1.22-3.79-1.22-1.895.092-3.789.092c-1.894,0-1.894-.542-3.789-.542s-1.895-.855-3.789-.855c-1.895,0-1.895,1.975-3.79,1.975-1.895,0-1.895-1.823-3.79-1.823-1.892,0-1.892-.03-3.784-.03s-1.893,1.584-3.786,1.584-1.894-1.765-3.788-1.765c-1.895,0-1.895-.402-3.791-.402-1.894,0-1.894,1.279-3.789,1.279-1.893,0-1.893-.594-3.787-.594-1.893,0-1.893,1.343-3.786,1.343s-1.893-1.578-3.785-1.578c-1.893,0-1.893-.323-3.786-.323s-1.894.588-3.788.588c-1.895,0-1.895-.357-3.79-.357-1.895,0-1.895.765-3.791.765-1.894,0-1.894,1.489-3.788,1.489-1.894,0-1.894-.206-3.787-.206-1.894,0-1.894-1.008-3.787-1.008-1.894,0-1.894,1.125-3.789,1.125-1.896,0-1.896.069-3.791.069-1.895,0-1.895-2.467-3.791-2.467s-1.894.456-3.789.456-1.894,1.908-3.788,1.908-1.895-.92-3.79-.92-1.896.835-3.793.835-1.895-.66-3.79-.66-1.895-.722-3.789-.722-1.896.698-3.791.698-1.896.552-3.792.552c-1.895,0-1.895-.796-3.79-.796s-1.896-.55-3.791-.55c-1.896,0-1.896.343-3.793.343-1.895,0-1.895,1.428-3.791,1.428-1.896,0-1.896-1.518-3.793-1.518s-1.896.551-3.792.551c-1.896,0-1.896-.418-3.792-.418-1.896,0-1.896,1.036-3.792,1.036-1.897,0-1.897.32-3.793.32s-1.896-1.817-3.792-1.817-1.896.82-3.792.82c-1.894,0-1.894-.261-3.788-.261-1.896,0-1.896.272-3.793.272-1.895,0-1.895.802-3.79.802s-1.897-1.597-3.794-1.597-1.896.773-3.792.773-1.897-.529-3.794-.529c-1.898,0-1.898-.961-3.795-.961-1.898,0-1.898,1.761-3.795,1.761-1.898,0-1.898-1.408-3.795-1.408s-1.897.898-3.794.898c-1.897,0-1.897,1.1-3.795,1.1s-1.898.215-3.796.215-1.901-1.407-3.802-1.407c-1.901,0-3.043,1.913-3.999.271s.642-2.044,1.588-3.683c.946-1.639,2.615-.675,3.562-2.315.946-1.639.638-1.817,1.584-3.456.946-1.639-.75-2.619.196-4.258s1.609-1.257,2.555-2.896,1.257-1.46,2.204-3.1c.947-1.64,1.375-1.393,2.322-3.032.947-1.64.794-1.728,1.741-3.369.947-1.641.409-1.951,1.356-3.592s.277-2.028,1.224-3.669.653-1.811,1.6-3.451,2.64-.663,3.587-2.303c.947-1.64.308-2.008,1.255-3.648s2.172-.932,3.118-2.572-.213-2.309.733-3.949.789-1.731,1.735-3.37,1.132-1.532,2.079-3.172.123-2.115,1.07-3.755c.947-1.64,1.223-1.48,2.17-3.12.947-1.64,1.971-1.049,2.918-2.689.947-1.641-.257-2.336.691-3.976s1.444-1.354,2.392-2.996.179-2.084,1.126-3.725.704-1.781,1.651-3.421c.947-1.64,1.831-1.13,2.778-2.77s2.503-.742,3.449-2.382c.947-1.64-.555-2.507.392-4.147s2.175-.931,3.122-2.57-.134-2.264.813-3.904,1.183-1.504,2.13-3.144-.387-2.411.56-4.052c.948-1.641,2.918-.503,3.866-2.145s-.615-2.543.332-4.184c.947-1.64,3.02-.444,3.967-2.084s.11-2.123,1.057-3.764-.238-2.324.709-3.964,1.683-1.215,2.63-2.855c.947-1.64.57-1.858,1.517-3.499.947-1.641,2.3-.86,3.247-2.501.948-1.641-1.19-2.876-.243-4.517.947-1.641,1.734-1.187,2.681-2.828.947-1.641,1.677-1.219,2.624-2.86s.649-1.812,1.596-3.453,1.368-1.397,2.315-3.038.309-2.009,1.256-3.649.439-1.934,1.386-3.575,2.595-.69,3.543-2.331.95-1.64,1.897-3.281.799-1.726,1.746-3.367c.947-1.641.314-2.006,1.261-3.646s.753-1.752,1.701-3.393c.947-1.641,2.044-1.008,2.991-2.648s.11-2.125,1.057-3.766c.947-1.641,1.372-1.396,2.319-3.037s.459-1.921,1.406-3.561,1.246-1.466,2.192-3.105c.946-1.639,1.264-1.455,2.21-3.094s1.35-1.405,2.296-3.043.3-2.011,1.246-3.65c.946-1.639,1.203-1.491,2.149-3.129s-.033-2.205.913-3.845.491-1.904,1.438-3.544,2.644-.663,3.592-2.304.544-1.874,1.492-3.515c.947-1.64,1.297-1.438,2.244-3.078s.034-2.166.98-3.806,1.188-1.5,2.134-3.139,1.695-1.208,2.641-2.847c.947-1.64.629-1.824,1.576-3.464.948-1.641-.053-2.219.894-3.861s1.773-1.165,2.721-2.807c.947-1.641.535-1.878,1.483-3.519s.538-1.876,1.485-3.516,1.363-1.4,2.31-3.04.059-2.153,1.007-3.794,2.367-.822,3.315-2.464.362-1.98,1.31-3.622c.947-1.641,1.104-1.55,2.051-3.191.947-1.641.914-1.66,1.861-3.3.948-1.641-.411-2.425.537-4.067.948-1.643,1.613-1.259,2.562-2.901s1.948-1.064,2.896-2.705c.947-1.641.527-1.884,1.474-3.525s-.265-2.342.683-3.984,2.298-.863,3.246-2.506c.948-1.641.046-2.162.993-3.804.948-1.642.463-1.922,1.411-3.564.948-1.642,2.854-.542,3.802-2.185s-.068-2.228.88-3.87c.948-1.643,1.736-1.188,2.684-2.83s.709-1.78,1.658-3.422,1.338-1.418,2.286-3.06c.948-1.642-.298-2.362.65-4.004.947-1.64,2.545-.717,3.491-2.357s-.685-2.583.262-4.224c.948-1.643,2.488-.754,3.436-2.396.947-1.641.791-1.731,1.739-3.372.948-1.643-1.14-2.849-.192-4.491s2.852-.543,3.8-2.184c.949-1.643,1.422-1.37,2.37-3.014.948-1.642-1.093-2.821-.144-4.463.949-1.643,1.38-1.394,2.329-3.037.949-1.644,2.548-.721,3.498-2.364s.76-1.753,1.71-3.397-1.214-2.89-.266-4.532,1.371-1.4,2.32-3.044.865-1.693,1.814-3.337,2.088-.987,3.037-2.632c.951-1.647,2.51-1.186,3.069-3.004.567-1.846-1.419-3.336.483-3.344Z" style="fill: none; stroke: #000; stroke-miterlimit: 10; stroke-width: 15px;"/>
</svg>