<?xml version="1.0" encoding="UTF-8"?>
<svg id="Stickers" xmlns="http://www.w3.org/2000/svg" width="1000" height="1000" viewBox="0 0 1000 1000">
  <path d="M842.63,355.54l2.599-6.814,1.414-3.61,1.138-3.856,2.154-2.922,2.29-2.796,7.836,2.345,1.017-3.973,4.454-.796-1.918-6.692,4.092-1.131,4.559-.696-1.923-6.704,4.599-.661,3.068-2.082,2.731-2.396,2.169-2.906-2.389-7.134,4.242-.998,4.014-1.21.493-4.472,2.174-2.923.203-.153.193-.373,2.445-7.87-5.738.967-3.745-1.182.842-6.135-3.881-1.037-5.132.309-.903-4.252-1.733-3.356-1.303-3.822-7.892,3.29,1.796-7.167-2.625-2.394-2.982-2.012-1.119-4.021-6.438,1.733-1.435-3.672-4.858.016-1.196-3.937-.592-4.585-5.579.796-1.274-3.858-4.652-.205-1.873-3.211.328-5.585-3.281-1.693-3.106-1.878-2.378-2.667-4.112-.797-1.076-4.064-.269-4.942-6.712,2.008,2.344-7.771-8.996,4.472,3.778-9.329-1.342.971-6.958-2.069,3.026-3.532-5.961,1.28-.499-4.768-2.791-2.231-.363-4.91-2.934-2.07-4.128-.746-.679-4.563-4.813.014-3.493-1.454-4.346-.504-2.117-2.979-2.425-2.635-.361-4.927-3.441-1.512-2.733-2.299-3.786-1.135-.996-4.213-3.722-1.201-.598-4.668-1.908-3.217-1.73-3.416-8.201,3.744.139-10.352-1.365,8.3-1.054,4.018-2.672,2.401-3.959,1.114-4.669.404.428,5.501-4.019,1.055-4.085.99-1.596,3.48-1.215,3.862-5.425-.347-2.267,2.812-.188,4.892-3.341,1.739-1.975,3.103-3.418,1.66-1.783,3.294-2.692,2.384-1.046,4.029-4.889.186-.296,4.778-1.839,3.236-8.231-3.156-2.597,2.478,1.344,6.419-4.618.458-2.936,2.14-2.521,2.556-1.228,3.85-1.471,3.608v5.082s-3.078,2.001-3.078,2.001l-7.839-2.76-2.122,2.956,3.338,8.416-5.851-.775.317,5.393-3.354,1.722-7.359-2.283,1.039,6.115-6.377-1.301,1.187,6.264-6.812-1.734,1.163,6.242-4.022,1.058-3.458,1.624,1.941,7.021-2.756,2.323-2.252,2.826-1.596,3.481-4.736.341-1.564,3.513-6.507-1.429-3.291,1.787.878,5.957-3.93,1.149-1.328,3.753-4.865.217-3.68,1.401-2.309,2.77-1.554,3.525-2.972,2.106-2.852,2.226-1.738,3.34.927,6.006-6.518-1.439-1.872,3.209.821,5.904-7.487-2.406,2.218,7.298-3.611,1.468-6.212-1.133,2.975,8.048-6.317-1.242.114,5.192-2.88,2.202-6.981-1.9.506,5.583-2.79,2.285-.254,4.82-1.576,3.496-7.753-2.682-.297,4.774-.585,4.487-4.195.878-4.67.404-3.186,1.89,2.775,7.855-5.076.008-2.258,2.825-3.831,1.249-1.145,3.933-.579,4.497-1.835,3.24-6.889-1.814-3.011,2.065,1.259,6.338-6.408-1.326-1.931,3.154,1.083,6.166-2.477,2.603-3.412,1.667-2.586,2.492-2.914,2.165-3.303,1.778-3.741,1.343-1.203,3.882-4.841.241-4.016,1.064,3.673,8.754-5.882-.799-1.51,3.576-4.113.972-3.173,1.91-1.863,3.219-3.241,1.844-1.806,3.282-2.237,2.848-4.169.915-2.436,2.649-2.976,2.111-2,3.085-.945,4.141-4.07,1.018.993,6.079-6.91-1.834,3.047,8.124-5.86-.774-2.792,2.293-1.906,3.175.976,6.06-6.79-1.7,1.162,6.247-6.337-1.247-4.38.707-2.397,2.695-2.81,2.279-.257,4.835-3.447,1.647-3.129,1.954-1.576,3.514.29,5.385-1.456,3.64-5.915-.818-4.478.628.982,6.087-2.998-6.501-5.8,5.465-2.274-4.6-4.507,2.018-2.674-3.565-2.442-4.46-4.718,2.928-3.275-1.791-2.933-3.062-3.425-1.394-3.766-.127-4.548,3.07-2.801-3.877-3.407-1.524-3-3.519-4.036,1.261-4.337,3.164-3.184-2.919-3.945,1.547-3.96,2.229-2.925-5.888-3.389-3.422-4.095,5.019-3.456-4.952-3.783,8.275-3.553-2.171-3.601-1.161-3.537.776-3.516.757-4.121-5.49-3.505,1.605-3.164,3.695-3.547.505-3.055,3.22-3.616-.076-3.796-.731-3.774-.379-4.578-3.189-1.308,8.743-4.599-2.928-4.714-2.737-.957,8.296-4.445-1.752-4.536-1.627-3.468,1.205-3.258,1.697-2.769,2.706-.88,6.368-6.801-5.351-2.637,2.853.966,8.98-8.012-6.48,1.491,9.246-3.879.509-5.681-1.975-3.687,1.122,2.204,9.031-7.479-3.866-3.871,1.033,2.302,8.385-3.997.804-4.96-.118.604,5.872-5.649-.644-2.542,2.588-2.351,2.767-3.214,1.994,3.289,7.587-5.362.132-5.315.376-.529,4.176-2.423,2.706-1.073,3.658-1.298,3.452.749,4.709-5.482.786-2.492,2.715,3.392,6-2.652,2.554-4.44,1.711-3.611,2.249-2.855,2.691,2.993,5.252-7.596.776-.492,3.765.389,4.041.828,4.114-3.777,2.592-.061,3.786.402,3.868,1.506,4.081-6.602,2.161,2.69,4.295-1.073,3.466-4.002,3.012,1.876,3.981-1.304,3.5,2.446,3.909-1.723,3.464.286,3.642-3.154,3.485,4.089,3.749,1.093,3.584-1.762,3.597,2.293,3.509-2.382,3.702,4.203,3.281-6.296,4.171,2.086,3.434,3.183,3.212,1.221,3.418,1.947,3.259-6.531,4.925,2.811,3.136,7.414,1.92-2.742,4.351-2.7,4.498,4.323,2.476,3.776,2.513-5.933,5.853,2.241,3.08,3.363,2.584-1.489,4.559,6.878.927,1.899,3.03.716,3.604,1.138,3.426,4.37,1.669-1.528,4.941,4.069,1.729-2.374,5.689,7.631-.693-3.234,6.491,6.673-.344-3.008,6.661.575,4.176,3.097,2.224,5.311.287.039,4.755,3.091,2.108.575,4.479,6.804-1.599,3.398,1.603-2.49,7.913,4.413.579,4.843-.081,4.501.135-1.751,7.927,4.772-.253,1.863,3.568,1.657,3.993,6.032-2.443,1.766,3.886,3.429,1.321,3.724.76,2.684,2.543,1.217,5.414,3.084,2.065,7.48-7.141,1.265,5.697,4.763-2.02,3.306,1.193,2.809,2.486,1.301,6.879,3.915-.179,4.857-3.397,3.914-.824,1.797,6.803,4.389-2.71,2.486,5.092,4.254-2.713,3.191,2.336,3.56.486,3.493.94,3.415,1.735,3.866-2.248,3.3,3.535,3.748-1.786,3.404,4.871,3.782-4.713,3.593-3.997,3.516.129,3.478-1.014,3.761,4.33,3.273-4.084,4.325,7.988,2.586-9.294,3.75,1.554,3.43-.946,4.468,4.842,4.089,1.842,2.281-6.703,3.949,1.114,2.222-5.663,5.024,4.742,3.856.175,3.618-.707,1.967-5.396,2.631-3.139,3.235-1.424,3.271-1.327,4.581,1.573,3.642-.716,1.283-5.512,4.203.417,4.93,1.539.601-6.243,6.764,4.328-1.435-9.153,4.428.319,2.642-2.455,6.707,3.213-.091-6.254,2.441-2.698,2.543-2.535,2.085-3.052,5.278.609,3.624-1.416-2.298-7.662,5.586.624,3.35-1.767-1.831-6.614,4.992-.254,1.837-3.127,3.043-2.109,6.075.218,2.884-2.43-2.9-6.646,1.214-3.496,4.785-1.084-1.237-5.061,2.53-2.602,7.641.317,1.728-3.259-.606-4.483-4.257-6.192,9.171.485-5.383-6.452,4.887-1.738-1.296-4.395,6.221-1.42-5.01-5.652,2.587-2.833,2.572-2.904,4.726-2.348-.801-3.989,3.031-2.972,1.829-3.334-3.872-4.536-3.085-4.2,3.824-2.93,6.494-2.69-8.844-4.778,5.75-2.943-4.119-3.948,6.906-3.115-.369-3.67,2.436-3.596-5.824-3.689-.704-3.629-2.583-3.63,8.189-3.618-.72-3.634-2.552-3.625-.835-3.622,2.567-3.673-7.004-3.462,8.661-3.909-6.967-3.331,6.091-4.002-1.727-3.559-1.738-3.507,3.549-4.137-6.804-2.727-3.34-3.017,1.194-3.834-1.63-3.24,5.48-5.275.226-4.037-6.131-1.747-4.944-1.818.136-3.891-3.624-2.082,3.896-6.202-5.381-.979-2.166-2.803,3.848-7.161-7.815,1.3-2.667-5.565,4.242-2.026,2.768-2.314,6.212,1.096-.845-5.89,3.052-2.029,2.444-2.633,2.349-2.731-.008-5.063,3.275-1.81,3.641-1.446.255-4.796,7.891,2.764.002-5.044-.365-5.407,5.572.47,4.841-.255,1.476-3.588,1.878-3.192,2.849-2.234-2.108-7.144,6.98,1.852,1.206-3.86-.411-5.458,8.612,3.475,1.29-3.772.889-4.17-.221-5.27,3.358-1.729,1.63-3.442,5.074-.037.059-4.998,3.176-1.911,1.545-3.524,2.581-2.497,2.418-2.66,8.394,3.254-2.454-7.488,7.485,2.35,1.636-3.437-1.923-6.959,6.845,1.721,4.35-.751-1.932-6.973,1.722-3.355,6.146,1.028,1.793-3.282,1.176-3.894,5.995.872-1.631-6.674,6.742,1.616-3.737-8.76,6.556,1.428,2.161-2.92,2.11-2.972,3.17-1.924,3.302-1.791.601-4.455,3.357-1.729.473-4.592,7.433,2.299-.764-5.811-.572-5.624,7.418,2.279.825-4.242,2.407-2.682,2.73-2.359,4.647-.466,1.404-3.674,1.21-3.869-.486-5.549,7.365,2.233-2.699-7.736,9.499,4.334-3.122-8.161,7.534,2.387,3.026-2.084-.718-5.449,4.536.108-.85,6.282,4.75.235,4.067.969.778,4.52,3.05,2.069,2.094,3.105,2.552,2.607,3.649,1.421,4.108.927,3.819,1.242,1.616,3.618,1.172,4.098,1.011,4.274,2.833,2.305,6.916-2.101,2.107,3.079-.595,6.005,1.898,3.313,7.161-2.375-.127,5.499-1.072,6.525,6.762-1.94,2.232,2.958,4.254.771-2.441,8.005,8.843-4.181-1.128,6.587,1.158,4.121,5.728-.824.752,4.555,7.285-2.493-.894,6.339,1.336,3.932,6.884-2.049.196,10.06-.855-10.3,3.784-1.416,2.761-2.353,4.976-.309-1.083-5.92,6.899,1.478,3.304-1.856-1.181-6.015,3.319-1.842-.078-4.994,4.439-.807,1.947-3.12,4.503-.75,4.194-1.038,1.722-3.33,1.446-3.575,3.203-1.955,2.212-2.877,2.063-3.017-.296-5.203,2.791-2.352,7.767-1.574-8.907.17,2.887-8.356-8.293,3.716-3.194-1.788-1.681-3.42-.222-4.998-5.463.657,1.557-6.918-5.265.448,1.51-6.87-3.966-.959-5.254.435-1.249-3.891-5.598.803.854-6.161-5.387.588,2.003-7.393-7.363,2.71.582-5.867-5.979,1.222.73-6.025-3.521-1.442-1.64-3.467-.676-4.514-6.077,1.321-5.266.44,1.911-7.306-3.377-1.599-5.6.799-1.331-3.799-3.953-.975,2.581-8.036-3.963-.971-7.275,2.603.765-6.086-3.259-2.069,1.701-3.715,5.293.324.181-4.955.189-4.949,3.002-2.047,3.615-1.412.987-4.127,3.553-1.476,2.208-2.872,5.539.579,2.852-2.207,1.982-3.104,1.598-3.506,3.922-1.098-.465-5.64,5.921.965,3.845-1.172,2.39-2.684-2.372-7.617,3.13-1.925,8.707,3.843.918-4.223.851-8.854.48,9.446,3.062,2.048,5.541-.63,2.246,2.925,2.33,2.834.19,5.147,4.108.92.454,4.862,3.883,1.158,7.347-2.58.675,4.626,1.448,3.789.318,5.01,2.347,2.821,4.48.516,2.573,2.578,4.004,1.021.668,4.631,3.855,1.189,3.076,2.026,3.514,1.557,5.228-.288,2.957,2.158.592,4.718-.04,5.398,5.977-1.094,1.544,3.689,2.994,2.126,1.326,3.929,4.733.239-1.539,7.019,3.977,1.069.968,4.319,6.648-1.813,5.259,1.556-.941,9.121ZM281.995,774.261l-3.59,3.981-3.683,1.227-3.811,1.463-3.731-.046-3.71-.36-2.137-7.891-3.85,1.119-2.665-3.534-5.128,4.658-2.685-3.287-2.255-3.943-5.622,4.092-2.048-4.185-2.791-2.364-2.912-2.047-3.23-1.498-6.669,3.534-1.659-4.137-1.638-3.896-4.532-.229-3.061-2.145-3.648-1.583-1.335-3.951,2.996-7.687-5.792.362-3.594-1.769,1.893-5.912-3.559-1.806-5.087-1.009.269-4.412-.613-3.749.109-4.006-8.577.009,4.536-5.887-1.291-3.286-1.672-3.169,1.069-3.998-6.377-1.994.859-3.934-3.948-2.975,1.478-3.968,2.505-3.935-4.67-3.238,1.773-3.766-3.073-3.635,1.147-3.701,4.501-3.4-.677-3.643-.293-3.663.897-3.511-1.478-3.993,3.009-3.042,4.239-2.53-4.723-5.19,8.055-.994-7.477-6.728,10.068.37,1.204-3.232-6.735-7.49,7.106-.246-2.354-5.673,4.691-1.333,1.906-3.089,4.865-.799,1.881-3.002.67-4.14,4.565-.596.227-4.801,1.797-3.4,1.126-4.342,3.396-1.733,3.161-1.971,4.945.703,2.378-2.958,3.045-1.979,2.378-3.259,4.367.532,2.613-2.989,4.518,1.409,3.696-.231,3.748.166,1.038-8.967,5.819,7.841,2.067-6.835,3.227-2.758,3.709-.389,3.903,1.552,3.845,2.695,3.399-4.373,3.691,2.032,3.544,2.249,3.631-1.146,3.771-1.553,3.066,4.483,3.537.166,4.151-2.585,3.277,1.916,3.7.164,3.088,2.243,3.757.164,3.302,1.501,4.187-.512,1.884,4.549,4.673-1.172,3.716.934-1.088,8.743,2.834,1.945,6.043-2.465,1.082,4.501,2.376,2.651,2.66,2.282,3.852,1.058,3.611,1.475,5.142.243,1.875,3.318-3.56,7.508,2.561,2.415,8.885-1.804-1.915,5.647,5.356,1.068.802,3.819-4.44,6.295,6.088,1.083-3.607,5.391,6.189,1.423-4.563,5.308,6.035,1.838-1.101,3.996-.475,3.717,6.905,2.337.274,3.712.851,3.636,1.65,3.613-2.912,3.866,1.441,3.656-5.672,3.511-1.241,3.433,4.508,3.961-2.387,3.344,1.135,3.826-3.905,2.887-2.352,3.039-.58,3.433.311,3.751-1.721,3.119-1.666,3.1-.328,3.667,2.913,5.345-6.646.645-.881,3.531,2.208,5.549-7.812-.818,3.457,6.787-3.415,2.01-6.266-.517,3.523,7.824-6.386-.99.104,5.202-3.004,2.147-6.795-2.411-.015,5.554-3.071,1.871-1.117,4.726-2.368,3.16-6.893-4.462-1.549,4.481-1.982,4.109-4.291-.584-4.444-1.388-3.574.392-.951,8.276-4.549-2.357-3.381,1.318-3.9-.976-3.145,2.616-3.192,3.306-3.586,1.436-4.159-5.817-3.555-.486-3.514-1.763Z" style="fill: #fff;"/>
  <path d="M842.63,355.54l2.599-6.814,1.414-3.61,1.138-3.856,2.154-2.922,2.29-2.796,7.836,2.345,1.017-3.973,4.454-.796-1.918-6.692,4.092-1.131,4.559-.696-1.923-6.704,4.599-.661,3.068-2.082,2.731-2.396,2.169-2.906-2.389-7.134,4.242-.998,4.014-1.21.493-4.472,2.174-2.923.203-.153.193-.373,2.445-7.87-5.738.967-3.745-1.182.842-6.135-3.881-1.037-5.132.309-.903-4.252-1.733-3.356-1.303-3.822-7.892,3.29,1.796-7.167-2.625-2.394-2.982-2.012-1.119-4.021-6.438,1.733-1.435-3.672-4.858.016-1.196-3.937-.592-4.585-5.579.796-1.274-3.858-4.652-.205-1.873-3.211.328-5.585-3.281-1.693-3.106-1.878-2.378-2.667-4.112-.797-1.076-4.064-.269-4.942-6.712,2.008,2.344-7.771-8.996,4.472,3.778-9.329-1.342.971-6.958-2.069,3.026-3.532-5.961,1.28-.499-4.768-2.791-2.231-.363-4.91-2.934-2.07-4.128-.746-.679-4.563-4.813.014-3.493-1.454-4.346-.504-2.117-2.979-2.425-2.635-.361-4.927-3.441-1.512-2.733-2.299-3.786-1.135-.996-4.213-3.722-1.201-.598-4.668-1.908-3.217-1.73-3.416-8.201,3.744.139-10.352-1.365,8.3-1.054,4.018-2.672,2.401-3.959,1.114-4.669.404.428,5.501-4.019,1.055-4.085.99-1.596,3.48-1.215,3.862-5.425-.347-2.267,2.812-.188,4.892-3.341,1.739-1.975,3.103-3.418,1.66-1.783,3.294-2.692,2.384-1.046,4.029-4.889.186-.296,4.778-1.839,3.236-8.231-3.156-2.597,2.478,1.344,6.419-4.618.458-2.936,2.14-2.521,2.556-1.228,3.85-1.471,3.608v5.082s-3.078,2.001-3.078,2.001l-7.839-2.76-2.122,2.956,3.338,8.416-5.851-.775.317,5.393-3.354,1.722-7.359-2.283,1.039,6.115-6.377-1.301,1.187,6.264-6.812-1.734,1.163,6.242-4.022,1.058-3.458,1.624,1.941,7.021-2.756,2.323-2.252,2.826-1.596,3.481-4.736.341-1.564,3.513-6.507-1.429-3.291,1.787.878,5.957-3.93,1.149-1.328,3.753-4.865.217-3.68,1.401-2.309,2.77-1.554,3.525-2.972,2.106-2.852,2.226-1.738,3.34.927,6.006-6.518-1.439-1.872,3.209.821,5.904-7.487-2.406,2.218,7.298-3.611,1.468-6.212-1.133,2.975,8.048-6.317-1.242.114,5.192-2.88,2.202-6.981-1.9.506,5.583-2.79,2.285-.254,4.82-1.576,3.496-7.753-2.682-.297,4.774-.585,4.487-4.195.878-4.67.404-3.186,1.89,2.775,7.855-5.076.008-2.258,2.825-3.831,1.249-1.145,3.933-.579,4.497-1.835,3.24-6.889-1.814-3.011,2.065,1.259,6.338-6.408-1.326-1.931,3.154,1.083,6.166-2.477,2.603-3.412,1.667-2.586,2.492-2.914,2.165-3.303,1.778-3.741,1.343-1.203,3.882-4.841.241-4.016,1.064,3.673,8.754-5.882-.799-1.51,3.576-4.113.972-3.173,1.91-1.863,3.219-3.241,1.844-1.806,3.282-2.237,2.848-4.169.915-2.436,2.649-2.976,2.111-2,3.085-.945,4.141-4.07,1.018.993,6.079-6.91-1.834,3.047,8.124-5.86-.774-2.792,2.293-1.906,3.175.976,6.06-6.79-1.7,1.162,6.247-6.337-1.247-4.38.707-2.397,2.695-2.81,2.279-.257,4.835-3.447,1.647-3.129,1.954-1.576,3.514.29,5.385-1.456,3.64-5.915-.818-4.478.628.982,6.087-2.998-6.501-5.8,5.465-2.274-4.6-4.507,2.018-2.674-3.565-2.442-4.46-4.718,2.928-3.275-1.791-2.933-3.062-3.425-1.394-3.766-.127-4.548,3.07-2.801-3.877-3.407-1.524-3-3.519-4.036,1.261-4.337,3.164-3.184-2.919-3.945,1.547-3.96,2.229-2.925-5.888-3.389-3.422-4.095,5.019-3.456-4.952-3.783,8.275-3.553-2.171-3.601-1.161-3.537.776-3.516.757-4.121-5.49-3.505,1.605-3.164,3.695-3.547.505-3.055,3.22-3.616-.076-3.796-.731-3.774-.379-4.578-3.189-1.308,8.743-4.599-2.928-4.714-2.737-.957,8.296-4.445-1.752-4.536-1.627-3.468,1.205-3.258,1.697-2.769,2.706-.88,6.368-6.801-5.351-2.637,2.853.966,8.98-8.012-6.48,1.491,9.246-3.879.509-5.681-1.975-3.687,1.122,2.204,9.031-7.479-3.866-3.871,1.033,2.302,8.385-3.997.804-4.96-.118.604,5.872-5.649-.644-2.542,2.588-2.351,2.767-3.214,1.994,3.289,7.587-5.362.132-5.315.376-.529,4.176-2.423,2.706-1.073,3.658-1.298,3.452.749,4.709-5.482.786-2.492,2.715,3.392,6-2.652,2.554-4.44,1.711-3.611,2.249-2.855,2.691,2.993,5.252-7.596.776-.492,3.765.389,4.041.828,4.114-3.777,2.592-.061,3.786.402,3.868,1.506,4.081-6.602,2.161,2.69,4.295-1.073,3.466-4.002,3.012,1.876,3.981-1.304,3.5,2.446,3.909-1.723,3.464.286,3.642-3.154,3.485,4.089,3.749,1.093,3.584-1.762,3.597,2.293,3.509-2.382,3.702,4.203,3.281-6.296,4.171,2.086,3.434,3.183,3.212,1.221,3.418,1.947,3.259-6.531,4.925,2.811,3.136,7.414,1.92-2.742,4.351-2.7,4.498,4.323,2.476,3.776,2.513-5.933,5.853,2.241,3.08,3.363,2.584-1.489,4.559,6.878.927,1.899,3.03.716,3.604,1.138,3.426,4.37,1.669-1.528,4.941,4.069,1.729-2.374,5.689,7.631-.693-3.234,6.491,6.673-.344-3.008,6.661.575,4.176,3.097,2.224,5.311.287.039,4.755,3.091,2.108.575,4.479,6.804-1.599,3.398,1.603-2.49,7.913,4.413.579,4.843-.081,4.501.135-1.751,7.927,4.772-.253,1.863,3.568,1.657,3.993,6.032-2.443,1.766,3.886,3.429,1.321,3.724.76,2.684,2.543,1.217,5.414,3.084,2.065,7.48-7.141,1.265,5.697,4.763-2.02,3.306,1.193,2.809,2.486,1.301,6.879,3.915-.179,4.857-3.397,3.914-.824,1.797,6.803,4.389-2.71,2.486,5.092,4.254-2.713,3.191,2.336,3.56.486,3.493.94,3.415,1.735,3.866-2.248,3.3,3.535,3.748-1.786,3.404,4.871,3.782-4.713,3.593-3.997,3.516.129,3.478-1.014,3.761,4.33,3.273-4.084,4.325,7.988,2.586-9.294,3.75,1.554,3.43-.946,4.468,4.842,4.089,1.842,2.281-6.703,3.949,1.114,2.222-5.663,5.024,4.742,3.856.175,3.618-.707,1.967-5.396,2.631-3.139,3.235-1.424,3.271-1.327,4.581,1.573,3.642-.716,1.283-5.512,4.203.417,4.93,1.539.601-6.243,6.764,4.328-1.435-9.153,4.428.319,2.642-2.455,6.707,3.213-.091-6.254,2.441-2.698,2.543-2.535,2.085-3.052,5.278.609,3.624-1.416-2.298-7.662,5.586.624,3.35-1.767-1.831-6.614,4.992-.254,1.837-3.127,3.043-2.109,6.075.218,2.884-2.43-2.9-6.646,1.214-3.496,4.785-1.084-1.237-5.061,2.53-2.602,7.641.317,1.728-3.259-.606-4.483-4.257-6.192,9.171.485-5.383-6.452,4.887-1.738-1.296-4.395,6.221-1.42-5.01-5.652,2.587-2.833,2.572-2.904,4.726-2.348-.801-3.989,3.031-2.972,1.829-3.334-3.872-4.536-3.085-4.2,3.824-2.93,6.494-2.69-8.844-4.778,5.75-2.943-4.119-3.948,6.906-3.115-.369-3.67,2.436-3.596-5.824-3.689-.704-3.629-2.583-3.63,8.189-3.618-.72-3.634-2.552-3.625-.835-3.622,2.567-3.673-7.004-3.462,8.661-3.909-6.967-3.331,6.091-4.002-1.727-3.559-1.738-3.507,3.549-4.137-6.804-2.727-3.34-3.017,1.194-3.834-1.63-3.24,5.48-5.275.226-4.037-6.131-1.747-4.944-1.818.136-3.891-3.624-2.082,3.896-6.202-5.381-.979-2.166-2.803,3.848-7.161-7.815,1.3-2.667-5.565,4.242-2.026,2.768-2.314,6.212,1.096-.845-5.89,3.052-2.029,2.444-2.633,2.349-2.731-.008-5.063,3.275-1.81,3.641-1.446.255-4.796,7.891,2.764.002-5.044-.365-5.407,5.572.47,4.841-.255,1.476-3.588,1.878-3.192,2.849-2.234-2.108-7.144,6.98,1.852,1.206-3.86-.411-5.458,8.612,3.475,1.29-3.772.889-4.17-.221-5.27,3.358-1.729,1.63-3.442,5.074-.037.059-4.998,3.176-1.911,1.545-3.524,2.581-2.497,2.418-2.66,8.394,3.254-2.454-7.488,7.485,2.35,1.636-3.437-1.923-6.959,6.845,1.721,4.35-.751-1.932-6.973,1.722-3.355,6.146,1.028,1.793-3.282,1.176-3.894,5.995.872-1.631-6.674,6.742,1.616-3.737-8.76,6.556,1.428,2.161-2.92,2.11-2.972,3.17-1.924,3.302-1.791.601-4.455,3.357-1.729.473-4.592,7.433,2.299-.764-5.811-.572-5.624,7.418,2.279.825-4.242,2.407-2.682,2.73-2.359,4.647-.466,1.404-3.674,1.21-3.869-.486-5.549,7.365,2.233-2.699-7.736,9.499,4.334-3.122-8.161,7.534,2.387,3.026-2.084-.718-5.449,4.536.108-.85,6.282,4.75.235,4.067.969.778,4.52,3.05,2.069,2.094,3.105,2.552,2.607,3.649,1.421,4.108.927,3.819,1.242,1.616,3.618,1.172,4.098,1.011,4.274,2.833,2.305,6.916-2.101,2.107,3.079-.595,6.005,1.898,3.313,7.161-2.375-.127,5.499-1.072,6.525,6.762-1.94,2.232,2.958,4.254.771-2.441,8.005,8.843-4.181-1.128,6.587,1.158,4.121,5.728-.824.752,4.555,7.285-2.493-.894,6.339,1.336,3.932,6.884-2.049.196,10.06-.855-10.3,3.784-1.416,2.761-2.353,4.976-.309-1.083-5.92,6.899,1.478,3.304-1.856-1.181-6.015,3.319-1.842-.078-4.994,4.439-.807,1.947-3.12,4.503-.75,4.194-1.038,1.722-3.33,1.446-3.575,3.203-1.955,2.212-2.877,2.063-3.017-.296-5.203,2.791-2.352,7.767-1.574-8.907.17,2.887-8.356-8.293,3.716-3.194-1.788-1.681-3.42-.222-4.998-5.463.657,1.557-6.918-5.265.448,1.51-6.87-3.966-.959-5.254.435-1.249-3.891-5.598.803.854-6.161-5.387.588,2.003-7.393-7.363,2.71.582-5.867-5.979,1.222.73-6.025-3.521-1.442-1.64-3.467-.676-4.514-6.077,1.321-5.266.44,1.911-7.306-3.377-1.599-5.6.799-1.331-3.799-3.953-.975,2.581-8.036-3.963-.971-7.275,2.603.765-6.086-3.259-2.069,1.701-3.715,5.293.324.181-4.955.189-4.949,3.002-2.047,3.615-1.412.987-4.127,3.553-1.476,2.208-2.872,5.539.579,2.852-2.207,1.982-3.104,1.598-3.506,3.922-1.098-.465-5.64,5.921.965,3.845-1.172,2.39-2.684-2.372-7.617,3.13-1.925,8.707,3.843.918-4.223.851-8.854.48,9.446,3.062,2.048,5.541-.63,2.246,2.925,2.33,2.834.19,5.147,4.108.92.454,4.862,3.883,1.158,7.347-2.58.675,4.626,1.448,3.789.318,5.01,2.347,2.821,4.48.516,2.573,2.578,4.004,1.021.668,4.631,3.855,1.189,3.076,2.026,3.514,1.557,5.228-.288,2.957,2.158.592,4.718-.04,5.398,5.977-1.094,1.544,3.689,2.994,2.126,1.326,3.929,4.733.239-1.539,7.019,3.977,1.069.968,4.319,6.648-1.813,5.259,1.556-.941,9.121ZM281.995,774.261l-3.59,3.981-3.683,1.227-3.811,1.463-3.731-.046-3.71-.36-2.137-7.891-3.85,1.119-2.665-3.534-5.128,4.658-2.685-3.287-2.255-3.943-5.622,4.092-2.048-4.185-2.791-2.364-2.912-2.047-3.23-1.498-6.669,3.534-1.659-4.137-1.638-3.896-4.532-.229-3.061-2.145-3.648-1.583-1.335-3.951,2.996-7.687-5.792.362-3.594-1.769,1.893-5.912-3.559-1.806-5.087-1.009.269-4.412-.613-3.749.109-4.006-8.577.009,4.536-5.887-1.291-3.286-1.672-3.169,1.069-3.998-6.377-1.994.859-3.934-3.948-2.975,1.478-3.968,2.505-3.935-4.67-3.238,1.773-3.766-3.073-3.635,1.147-3.701,4.501-3.4-.677-3.643-.293-3.663.897-3.511-1.478-3.993,3.009-3.042,4.239-2.53-4.723-5.19,8.055-.994-7.477-6.728,10.068.37,1.204-3.232-6.735-7.49,7.106-.246-2.354-5.673,4.691-1.333,1.906-3.089,4.865-.799,1.881-3.002.67-4.14,4.565-.596.227-4.801,1.797-3.4,1.126-4.342,3.396-1.733,3.161-1.971,4.945.703,2.378-2.958,3.045-1.979,2.378-3.259,4.367.532,2.613-2.989,4.518,1.409,3.696-.231,3.748.166,1.038-8.967,5.819,7.841,2.067-6.835,3.227-2.758,3.709-.389,3.903,1.552,3.845,2.695,3.399-4.373,3.691,2.032,3.544,2.249,3.631-1.146,3.771-1.553,3.066,4.483,3.537.166,4.151-2.585,3.277,1.916,3.7.164,3.088,2.243,3.757.164,3.302,1.501,4.187-.512,1.884,4.549,4.673-1.172,3.716.934-1.088,8.743,2.834,1.945,6.043-2.465,1.082,4.501,2.376,2.651,2.66,2.282,3.852,1.058,3.611,1.475,5.142.243,1.875,3.318-3.56,7.508,2.561,2.415,8.885-1.804-1.915,5.647,5.356,1.068.802,3.819-4.44,6.295,6.088,1.083-3.607,5.391,6.189,1.423-4.563,5.308,6.035,1.838-1.101,3.996-.475,3.717,6.905,2.337.274,3.712.851,3.636,1.65,3.613-2.912,3.866,1.441,3.656-5.672,3.511-1.241,3.433,4.508,3.961-2.387,3.344,1.135,3.826-3.905,2.887-2.352,3.039-.58,3.433.311,3.751-1.721,3.119-1.666,3.1-.328,3.667,2.913,5.345-6.646.645-.881,3.531,2.208,5.549-7.812-.818,3.457,6.787-3.415,2.01-6.266-.517,3.523,7.824-6.386-.99.104,5.202-3.004,2.147-6.795-2.411-.015,5.554-3.071,1.871-1.117,4.726-2.368,3.16-6.893-4.462-1.549,4.481-1.982,4.109-4.291-.584-4.444-1.388-3.574.392-.951,8.276-4.549-2.357-3.381,1.318-3.9-.976-3.145,2.616-3.192,3.306-3.586,1.436-4.159-5.817-3.555-.486-3.514-1.763Z" style="fill: none; stroke: #000; stroke-linecap: round; stroke-linejoin: round; stroke-width: 30px;"/>
</svg>