<?xml version="1.0" encoding="UTF-8"?>
<svg id="Sticker" xmlns="http://www.w3.org/2000/svg" width="1000" height="1000" viewBox="0 0 1000 1000">
  <polygon points="499.99 888.691 494.259 892.792 492.481 889.48 491.051 885.823 486.509 885.277 484.314 882.385 488.046 873.567 479.324 877.203 479.327 872.115 478.79 867.566 471.357 869.914 469.063 867.122 471.78 859.319 469.855 856.158 464.262 856.665 461.81 854.03 455.916 854.836 455.53 850.134 455.193 845.381 452.264 843.219 449.232 841.159 446.932 838.366 440.936 839.269 441.985 833.129 437.644 832.38 435.128 829.807 435.148 824.697 432.918 821.84 431.35 818.32 424.294 820.288 423.888 815.607 420.815 813.592 421.22 808.1 415.21 809.022 414.76 804.384 412.277 801.778 408.794 800.17 403.39 800.483 404.382 794.399 400.6 793.087 396.475 792.119 396.038 787.464 396.562 781.849 387.769 785.552 390.762 777.469 384.851 778.291 380.789 777.264 380.7 772.265 375.816 772.06 377.829 764.958 375.096 762.6 371.302 761.304 366.814 760.699 363.543 758.878 365.202 752.124 362.892 749.341 358.999 748.141 353.457 748.593 350.043 746.916 346.38 745.489 345.434 741.345 347.37 734.319 339.628 736.97 338.215 733.292 339.563 726.852 332.252 729.069 331.579 724.647 327.042 724.091 328.207 717.833 322.266 718.682 324.472 711.385 318.847 711.919 317.344 708.331 316.826 703.758 309.36 706.131 306.196 704.201 304.244 701.057 304.636 695.572 304.717 690.399 301.976 688.048 296.065 688.866 296.779 683.061 291.405 683.346 291.509 678.152 286.173 678.392 283.32 676.152 282.475 671.907 278.711 670.582 272.905 671.302 273.317 665.806 271.38 662.659 266.171 662.784 267.483 656.387 263.227 655.558 257.977 655.721 259.806 648.803 255.48 648.037 251.119 647.302 251.502 641.823 251.241 636.992 242.532 640.611 240.806 637.249 237.853 635.113 240.314 627.565 235.48 627.309 232.908 624.79 229.295 623.309 229.341 618.165 225.85 616.56 224.807 612.51 221.541 610.684 216.587 610.548 218.118 603.925 209.617 607.332 211.689 600.164 205.236 601.518 206.742 594.918 202.914 593.652 200.732 590.74 198.66 587.717 193.985 587.294 188.525 587.656 192.916 578.17 184.301 581.69 180.884 580.01 181.845 573.948 179.244 571.452 175.868 569.731 173.728 566.774 174.554 560.847 166.835 563.469 167.707 557.498 166.862 553.243 159.378 555.629 156.665 553.254 155.848 548.98 151.121 548.608 154.223 540.408 145.488 544.05 143.266 541.175 144.075 535.263 141.456 532.785 139.343 529.796 135.403 528.636 135.937 522.997 131.717 522.116 127.191 521.537 128.295 515.326 124.005 514.521 119.442 513.981 115.162 513.154 116.527 506.679 115.272 502.824 111.104 501.873 105.65 500.006 107.281 494.332 110.742 492.704 114.967 491.841 118.572 490.359 122.259 488.959 122.342 483.955 123.956 480.484 129.876 481.318 128.787 475.143 135.233 476.504 135.111 471.296 141.64 472.74 142.689 468.702 142.752 463.678 143.118 458.958 147.867 458.619 151.421 457.084 156.65 457.224 155.294 450.777 155.605 445.996 161.158 446.456 162.569 442.774 164.633 439.747 170.816 440.84 171.105 436.039 176.465 436.31 175.495 430.252 179.493 429.163 180.026 424.609 182.629 422.124 187.152 421.56 192.747 422.066 192.035 416.267 196.946 416.09 199.449 413.504 201.805 410.769 199.314 403.187 207.721 406.502 209.442 403.129 210.681 399.275 214.939 398.441 216.595 395.006 213.82 387.141 220.75 388.981 220.324 383.467 223.764 381.818 228.412 381.377 228.946 376.821 234.844 377.63 231.553 369.249 240.549 373.155 241.048 368.561 244.797 367.217 244.839 362.165 246.966 359.198 248.599 355.739 255.83 357.88 257.546 354.505 257.708 349.577 262.931 349.71 262.668 344.357 267.438 344.037 270.303 341.809 270.001 336.416 272.922 334.243 272.991 329.218 278.391 329.524 284.268 330.308 284.827 325.775 287.451 323.308 290.786 321.552 294.61 320.286 292.115 312.699 295.697 311.188 298.028 308.425 301.887 307.189 300.774 300.982 309.178 304.294 310.75 300.773 311.649 296.58 310.539 290.378 317.183 291.935 322.08 291.74 319.061 283.627 323.789 283.262 325.21 279.592 332.654 281.948 333.444 277.651 334.651 273.774 335.131 269.169 339.806 268.761 345.016 268.887 346.801 265.586 344.885 258.583 351.867 260.476 352.102 255.618 351.636 250.057 356.705 250.03 357.329 245.562 365.369 248.512 364.651 242.705 365.404 238.37 373.393 241.271 373.103 235.892 374.111 231.809 379.712 232.316 376.66 224.166 382.209 224.619 384.652 221.968 391.326 223.552 388.627 215.762 391.327 213.37 395.545 212.494 401.206 213.058 398.692 205.446 403.978 205.637 404.659 201.225 410.99 202.463 411.54 197.917 415.821 197.1 419.078 195.259 418.096 189.182 421.709 187.699 420.221 181.115 429.046 184.839 428.511 179.207 432.556 178.156 437.063 177.564 439.49 174.891 441.067 171.371 442.601 167.806 446.214 166.318 444.906 159.912 452.459 162.378 452.876 157.704 456.979 156.708 456.094 150.725 458.07 147.608 460.665 145.106 467.652 146.991 464.564 138.805 469.568 138.707 471.999 136.038 475.685 134.619 474.181 128.013 481.862 130.59 484.181 127.803 483.584 122.109 485.948 119.371 488.247 116.562 491.984 115.191 491.439 109.535 494.902 107.88 499.99 104.383 500.998 111.951 504.342 113.696 510.331 112.795 509.939 118.275 515.258 118.042 516.729 121.658 520.8 122.673 518.391 130.167 525.881 127.763 528.604 130.125 525.492 138.323 530.198 138.703 530.163 143.823 537.54 141.533 540.832 143.328 543.928 145.32 546.228 148.109 547.294 152.133 550.727 153.79 551.882 157.726 553.309 161.393 555.936 163.858 555.857 169.029 561.727 168.25 562.811 172.255 564.204 175.951 565.574 179.669 571.743 178.587 575.552 179.866 577.823 182.682 579.529 186.063 581.254 189.426 587.12 188.648 588.053 192.804 588.325 197.621 593.949 197.086 594.733 201.394 596.106 205.113 597.893 208.42 603.787 207.619 604.931 211.566 609.186 212.403 607.968 218.711 613.152 218.616 616.706 220.152 617.206 224.741 620.05 226.986 623.454 228.671 621.856 235.357 626.452 235.851 626.423 240.972 633.655 238.831 632.444 245.136 638.973 243.701 641.429 246.338 643.455 249.404 642.798 255.153 646.888 256.153 648.837 259.294 654.275 258.946 656.241 262.071 657.81 265.592 660.921 267.573 664.773 268.812 662.734 275.945 664.895 278.879 671.05 277.817 675.162 278.798 676.318 282.733 676.654 287.488 681.261 287.973 682.93 291.394 683.268 296.149 684.855 299.655 692.811 296.792 691.442 303.257 694.744 305.048 699.679 305.206 699.637 310.34 706.763 308.305 705.214 314.947 709.209 316.039 714.15 316.19 716.005 319.429 715.199 325.329 720.847 324.772 723.969 326.738 721.553 334.239 725.64 335.237 727.423 338.538 729.091 341.955 732.446 343.684 735.143 346.072 741.598 344.704 744.095 347.297 744.975 351.509 746.442 355.137 748.318 358.357 752.142 359.625 755.046 361.811 756.644 365.302 761.24 365.793 764.019 368.102 763.74 373.471 766.071 376.231 769.569 377.827 771.298 381.197 776.329 381.261 780.197 382.486 782.143 385.631 781.821 391.044 784.142 393.815 789.81 393.241 790.566 397.582 790.426 402.82 793.451 404.89 796.112 407.321 801.897 406.631 802.461 411.161 805.842 412.88 809.151 414.668 811.969 416.945 812.361 421.648 814.168 424.939 815.564 428.643 820.397 428.907 826.644 427.756 824.755 434.744 828.014 436.585 829.14 440.556 833.547 441.248 835.442 444.453 835.368 449.626 840.735 449.347 844.079 451.093 843.904 456.367 850.942 454.427 854.682 455.78 857.17 458.389 858.243 462.418 856.671 469.087 863.949 466.912 866.589 469.372 863.976 477.09 868.696 477.472 871.238 480.034 875.487 480.891 875.064 486.411 879.863 486.714 884.642 487.043 887.788 489.006 888.842 493.062 890.618 496.404 890.696 500.004 886.643 499.592 890.384 508.422 881.368 504.495 881.192 509.405 878.265 511.565 880.193 518.58 875.03 518.503 870.007 518.565 872.448 526.092 867.425 526.154 865.996 529.811 860.952 529.853 857.707 531.694 853.475 532.549 851.253 535.414 848.413 537.661 850.321 544.658 843.128 542.554 842.047 546.564 844.437 554.046 837.313 552.015 839.102 558.896 831.063 555.949 827.963 557.939 827.785 562.85 823.365 563.52 822.119 567.361 823.666 573.997 819.223 574.641 813.78 574.285 815.573 581.166 811.851 582.531 807.192 582.961 805.434 586.29 801.917 587.862 803.801 594.836 800.638 596.764 798.399 599.618 791.103 597.415 791.057 602.463 787.309 603.807 784.835 606.424 781.527 608.206 782.789 614.557 774.174 611.031 776.989 618.936 774.014 621.049 767.006 619.13 769.52 626.734 763.143 625.447 763.005 630.399 760.316 632.802 753.903 631.483 757.969 640.644 753.808 641.575 746.669 639.529 747.058 645.008 742.416 645.457 745.111 653.242 740.402 653.623 734.996 653.308 737.254 660.656 732.62 661.113 731.597 665.183 727.082 665.761 720.656 664.43 722.644 671.512 720.883 674.843 714.449 673.5 711.761 675.903 712.507 681.74 707.73 682.055 707.566 686.982 702.177 686.686 704.216 693.819 697.828 692.526 694.968 694.759 693.818 698.703 694.297 704.274 685.684 700.752 686.964 707.124 680.633 705.882 677.922 708.261 677.95 713.384 679.137 719.665 669.86 715.478 673.738 724.444 671.161 726.953 664.139 725.016 665.356 731.318 659.233 730.278 656.551 732.681 653.891 735.106 651.956 738.258 649.148 740.539 650.376 746.86 642.657 744.237 644.88 751.555 637.159 748.926 638.692 755.549 635.862 757.807 631.129 758.162 633.423 765.545 625.853 763.063 625.417 767.719 622.139 769.536 616.879 769.374 618.993 776.583 615.302 777.985 609.559 777.333 607.007 779.872 603.711 781.668 606.632 789.682 601.001 789.149 595.974 789.22 597.507 795.847 596.135 799.569 591.025 799.552 588.222 801.844 588.788 807.509 582.35 806.169 580.795 809.71 580.503 814.512 575.348 814.455 576.885 821.092 572.325 821.629 566.684 821.084 566.554 826.053 565.394 829.993 558.745 828.441 555.946 830.741 558.25 838.145 550.166 835.16 549.739 839.82 547.217 842.389 542.478 842.749 541.081 846.45 540.404 850.866 540.418 855.977 532.752 853.414 534.865 860.624 533.386 864.247 527.407 863.368 525.674 866.74 526.333 872.501 522.608 873.881 514.884 871.263 513.881 875.355 513.673 880.25 512.996 884.681 507.93 884.723 506.413 888.317 504.058 894.187 499.99 888.691"/>
  <polygon points="499.99 888.691 494.259 892.792 492.481 889.48 491.051 885.823 486.509 885.277 484.314 882.385 488.046 873.567 479.324 877.203 479.327 872.115 478.79 867.566 471.357 869.914 469.063 867.122 471.78 859.319 469.855 856.158 464.262 856.665 461.81 854.03 455.916 854.836 455.53 850.134 455.193 845.381 452.264 843.219 449.232 841.159 446.932 838.366 440.936 839.269 441.985 833.129 437.644 832.38 435.128 829.807 435.148 824.697 432.918 821.84 431.35 818.32 424.294 820.288 423.888 815.607 420.815 813.592 421.22 808.1 415.21 809.022 414.76 804.384 412.277 801.778 408.794 800.17 403.39 800.483 404.382 794.399 400.6 793.087 396.475 792.119 396.038 787.464 396.562 781.849 387.769 785.552 390.762 777.469 384.851 778.291 380.789 777.264 380.7 772.265 375.816 772.06 377.829 764.958 375.096 762.6 371.302 761.304 366.814 760.699 363.543 758.878 365.202 752.124 362.892 749.341 358.999 748.141 353.457 748.593 350.043 746.916 346.38 745.489 345.434 741.345 347.37 734.319 339.628 736.97 338.215 733.292 339.563 726.852 332.252 729.069 331.579 724.647 327.042 724.091 328.207 717.833 322.266 718.682 324.472 711.385 318.847 711.919 317.344 708.331 316.826 703.758 309.36 706.131 306.196 704.201 304.244 701.057 304.636 695.572 304.717 690.399 301.976 688.048 296.065 688.866 296.779 683.061 291.405 683.346 291.509 678.152 286.173 678.392 283.32 676.152 282.475 671.907 278.711 670.582 272.905 671.302 273.317 665.806 271.38 662.659 266.171 662.784 267.483 656.387 263.227 655.558 257.977 655.721 259.806 648.803 255.48 648.037 251.119 647.302 251.502 641.823 251.241 636.992 242.532 640.611 240.806 637.249 237.853 635.113 240.314 627.565 235.48 627.309 232.908 624.79 229.295 623.309 229.341 618.165 225.85 616.56 224.807 612.51 221.541 610.684 216.587 610.548 218.118 603.925 209.617 607.332 211.689 600.164 205.236 601.518 206.742 594.918 202.914 593.652 200.732 590.74 198.66 587.717 193.985 587.294 188.525 587.656 192.916 578.17 184.301 581.69 180.884 580.01 181.845 573.948 179.244 571.452 175.868 569.731 173.728 566.774 174.554 560.847 166.835 563.469 167.707 557.498 166.862 553.243 159.378 555.629 156.665 553.254 155.848 548.98 151.121 548.608 154.223 540.408 145.488 544.05 143.266 541.175 144.075 535.263 141.456 532.785 139.343 529.796 135.403 528.636 135.937 522.997 131.717 522.116 127.191 521.537 128.295 515.326 124.005 514.521 119.442 513.981 115.162 513.154 116.527 506.679 115.272 502.824 111.104 501.873 105.65 500.006 107.281 494.332 110.742 492.704 114.967 491.841 118.572 490.359 122.259 488.959 122.342 483.955 123.956 480.484 129.876 481.318 128.787 475.143 135.233 476.504 135.111 471.296 141.64 472.74 142.689 468.702 142.752 463.678 143.118 458.958 147.867 458.619 151.421 457.084 156.65 457.224 155.294 450.777 155.605 445.996 161.158 446.456 162.569 442.774 164.633 439.747 170.816 440.84 171.105 436.039 176.465 436.31 175.495 430.252 179.493 429.163 180.026 424.609 182.629 422.124 187.152 421.56 192.747 422.066 192.035 416.267 196.946 416.09 199.449 413.504 201.805 410.769 199.314 403.187 207.721 406.502 209.442 403.129 210.681 399.275 214.939 398.441 216.595 395.006 213.82 387.141 220.75 388.981 220.324 383.467 223.764 381.818 228.412 381.377 228.946 376.821 234.844 377.63 231.553 369.249 240.549 373.155 241.048 368.561 244.797 367.217 244.839 362.165 246.966 359.198 248.599 355.739 255.83 357.88 257.546 354.505 257.708 349.577 262.931 349.71 262.668 344.357 267.438 344.037 270.303 341.809 270.001 336.416 272.922 334.243 272.991 329.218 278.391 329.524 284.268 330.308 284.827 325.775 287.451 323.308 290.786 321.552 294.61 320.286 292.115 312.699 295.697 311.188 298.028 308.425 301.887 307.189 300.774 300.982 309.178 304.294 310.75 300.773 311.649 296.58 310.539 290.378 317.183 291.935 322.08 291.74 319.061 283.627 323.789 283.262 325.21 279.592 332.654 281.948 333.444 277.651 334.651 273.774 335.131 269.169 339.806 268.761 345.016 268.887 346.801 265.586 344.885 258.583 351.867 260.476 352.102 255.618 351.636 250.057 356.705 250.03 357.329 245.562 365.369 248.512 364.651 242.705 365.404 238.37 373.393 241.271 373.103 235.892 374.111 231.809 379.712 232.316 376.66 224.166 382.209 224.619 384.652 221.968 391.326 223.552 388.627 215.762 391.327 213.37 395.545 212.494 401.206 213.058 398.692 205.446 403.978 205.637 404.659 201.225 410.99 202.463 411.54 197.917 415.821 197.1 419.078 195.259 418.096 189.182 421.709 187.699 420.221 181.115 429.046 184.839 428.511 179.207 432.556 178.156 437.063 177.564 439.49 174.891 441.067 171.371 442.601 167.806 446.214 166.318 444.906 159.912 452.459 162.378 452.876 157.704 456.979 156.708 456.094 150.725 458.07 147.608 460.665 145.106 467.652 146.991 464.564 138.805 469.568 138.707 471.999 136.038 475.685 134.619 474.181 128.013 481.862 130.59 484.181 127.803 483.584 122.109 485.948 119.371 488.247 116.562 491.984 115.191 491.439 109.535 494.902 107.88 499.99 104.383 500.998 111.951 504.342 113.696 510.331 112.795 509.939 118.275 515.258 118.042 516.729 121.658 520.8 122.673 518.391 130.167 525.881 127.763 528.604 130.125 525.492 138.323 530.198 138.703 530.163 143.823 537.54 141.533 540.832 143.328 543.928 145.32 546.228 148.109 547.294 152.133 550.727 153.79 551.882 157.726 553.309 161.393 555.936 163.858 555.857 169.029 561.727 168.25 562.811 172.255 564.204 175.951 565.574 179.669 571.743 178.587 575.552 179.866 577.823 182.682 579.529 186.063 581.254 189.426 587.12 188.648 588.053 192.804 588.325 197.621 593.949 197.086 594.733 201.394 596.106 205.113 597.893 208.42 603.787 207.619 604.931 211.566 609.186 212.403 607.968 218.711 613.152 218.616 616.706 220.152 617.206 224.741 620.05 226.986 623.454 228.671 621.856 235.357 626.452 235.851 626.423 240.972 633.655 238.831 632.444 245.136 638.973 243.701 641.429 246.338 643.455 249.404 642.798 255.153 646.888 256.153 648.837 259.294 654.275 258.946 656.241 262.071 657.81 265.592 660.921 267.573 664.773 268.812 662.734 275.945 664.895 278.879 671.05 277.817 675.162 278.798 676.318 282.733 676.654 287.488 681.261 287.973 682.93 291.394 683.268 296.149 684.855 299.655 692.811 296.792 691.442 303.257 694.744 305.048 699.679 305.206 699.637 310.34 706.763 308.305 705.214 314.947 709.209 316.039 714.15 316.19 716.005 319.429 715.199 325.329 720.847 324.772 723.969 326.738 721.553 334.239 725.64 335.237 727.423 338.538 729.091 341.955 732.446 343.684 735.143 346.072 741.598 344.704 744.095 347.297 744.975 351.509 746.442 355.137 748.318 358.357 752.142 359.625 755.046 361.811 756.644 365.302 761.24 365.793 764.019 368.102 763.74 373.471 766.071 376.231 769.569 377.827 771.298 381.197 776.329 381.261 780.197 382.486 782.143 385.631 781.821 391.044 784.142 393.815 789.81 393.241 790.566 397.582 790.426 402.82 793.451 404.89 796.112 407.321 801.897 406.631 802.461 411.161 805.842 412.88 809.151 414.668 811.969 416.945 812.361 421.648 814.168 424.939 815.564 428.643 820.397 428.907 826.644 427.756 824.755 434.744 828.014 436.585 829.14 440.556 833.547 441.248 835.442 444.453 835.368 449.626 840.735 449.347 844.079 451.093 843.904 456.367 850.942 454.427 854.682 455.78 857.17 458.389 858.243 462.418 856.671 469.087 863.949 466.912 866.589 469.372 863.976 477.09 868.696 477.472 871.238 480.034 875.487 480.891 875.064 486.411 879.863 486.714 884.642 487.043 887.788 489.006 888.842 493.062 890.618 496.404 890.696 500.004 886.643 499.592 890.384 508.422 881.368 504.495 881.192 509.405 878.265 511.565 880.193 518.58 875.03 518.503 870.007 518.565 872.448 526.092 867.425 526.154 865.996 529.811 860.952 529.853 857.707 531.694 853.475 532.549 851.253 535.414 848.413 537.661 850.321 544.658 843.128 542.554 842.047 546.564 844.437 554.046 837.313 552.015 839.102 558.896 831.063 555.949 827.963 557.939 827.785 562.85 823.365 563.52 822.119 567.361 823.666 573.997 819.223 574.641 813.78 574.285 815.573 581.166 811.851 582.531 807.192 582.961 805.434 586.29 801.917 587.862 803.801 594.836 800.638 596.764 798.399 599.618 791.103 597.415 791.057 602.463 787.309 603.807 784.835 606.424 781.527 608.206 782.789 614.557 774.174 611.031 776.989 618.936 774.014 621.049 767.006 619.13 769.52 626.734 763.143 625.447 763.005 630.399 760.316 632.802 753.903 631.483 757.969 640.644 753.808 641.575 746.669 639.529 747.058 645.008 742.416 645.457 745.111 653.242 740.402 653.623 734.996 653.308 737.254 660.656 732.62 661.113 731.597 665.183 727.082 665.761 720.656 664.43 722.644 671.512 720.883 674.843 714.449 673.5 711.761 675.903 712.507 681.74 707.73 682.055 707.566 686.982 702.177 686.686 704.216 693.819 697.828 692.526 694.968 694.759 693.818 698.703 694.297 704.274 685.684 700.752 686.964 707.124 680.633 705.882 677.922 708.261 677.95 713.384 679.137 719.665 669.86 715.478 673.738 724.444 671.161 726.953 664.139 725.016 665.356 731.318 659.233 730.278 656.551 732.681 653.891 735.106 651.956 738.258 649.148 740.539 650.376 746.86 642.657 744.237 644.88 751.555 637.159 748.926 638.692 755.549 635.862 757.807 631.129 758.162 633.423 765.545 625.853 763.063 625.417 767.719 622.139 769.536 616.879 769.374 618.993 776.583 615.302 777.985 609.559 777.333 607.007 779.872 603.711 781.668 606.632 789.682 601.001 789.149 595.974 789.22 597.507 795.847 596.135 799.569 591.025 799.552 588.222 801.844 588.788 807.509 582.35 806.169 580.795 809.71 580.503 814.512 575.348 814.455 576.885 821.092 572.325 821.629 566.684 821.084 566.554 826.053 565.394 829.993 558.745 828.441 555.946 830.741 558.25 838.145 550.166 835.16 549.739 839.82 547.217 842.389 542.478 842.749 541.081 846.45 540.404 850.866 540.418 855.977 532.752 853.414 534.865 860.624 533.386 864.247 527.407 863.368 525.674 866.74 526.333 872.501 522.608 873.881 514.884 871.263 513.881 875.355 513.673 880.25 512.996 884.681 507.93 884.723 506.413 888.317 504.058 894.187 499.99 888.691" style="fill: none; stroke: #000; stroke-linecap: round; stroke-linejoin: round; stroke-width: 30px;"/>
</svg>