<?xml version="1.0" encoding="UTF-8"?>
<svg id="Sticker" xmlns="http://www.w3.org/2000/svg" width="1000" height="1000" viewBox="0 0 1000 1000">
  <g>
    <polygon points="621.221 502.296 619.739 505.821 624.4 509.624 617.599 512.706 624.173 516.978 620.153 520.103 617.026 523.174 618.175 526.987 615.41 529.975 619.739 534.774 614.396 536.961 615.875 541.173 617.473 545.604 616.581 549.22 615.052 552.589 612.007 555.232 604.439 555.44 611.227 563.13 609.351 566.359 605.969 568.636 602.214 570.543 602.192 574.985 594.003 573.374 597.762 580.902 595.536 583.863 592.613 586.206 588.811 587.648 582.075 585.923 582.371 591.364 581.428 595.747 575.417 594.146 571.471 594.756 573.601 603.626 568.457 602.609 567.938 608.493 564.488 609.97 559.818 609.178 554.448 606.643 553.613 612.963 547.916 609.047 546.999 615.973 543.82 617.854 538.544 613.649 536.498 618.875 534.139 623.951 528.62 616.997 525.911 621.116 522.023 619.812 518.068 617.249 514.922 619.975 511.767 624.191 508.017 622.178 504.492 623.469 500.898 622.959 497.335 622.428 493.973 618.889 490.291 621.228 486.081 626.709 482.692 624.244 478.712 625.749 474.996 625.35 473.027 617.604 470.208 614.581 466.003 616.547 462.491 615.882 458.697 615.893 455.299 614.715 450.825 615.951 448.99 611.25 444.253 612.643 443.455 606.485 438.667 607.654 438.165 601.666 435.74 599.033 427.813 604.139 429.528 595.782 422.764 598.579 419.207 597.077 420.513 590.159 419.059 586.59 411.875 588.712 408.403 586.905 407.209 583.03 405.839 579.422 400.784 578.721 403.786 571.967 399.673 570.47 397.457 567.593 393.897 565.488 395.273 560.521 397.455 555.38 394.876 552.794 385.949 552.93 386.301 548.77 388.099 544.193 382.761 542.234 388.171 536.721 387.192 533.37 385.604 530.161 386.749 526.33 384.095 523.294 383.506 519.827 383.646 516.269 377.425 513.303 377.897 509.597 377.074 505.967 384.068 502.296 382.413 498.781 384.352 495.374 378.739 491.405 384.835 488.463 383.726 484.797 380.707 480.692 381.632 477.187 380.351 473.163 383.625 470.245 388.421 467.942 388.514 464.295 386.062 459.634 390.58 457.55 386.033 451.689 389.994 449.457 396.337 448.626 390.743 441.557 400.474 442.986 399.958 438.569 398.832 433.542 404.284 432.97 404.779 428.912 405.097 424.553 411.49 425.24 411.594 420.592 414.843 418.747 418.58 417.493 420.837 414.77 422.594 411.424 424.702 408.381 428.312 407.202 431.25 405.216 433.212 401.793 437.717 402.199 436.841 393.832 442.147 395.718 443.839 391.124 448.085 391.423 453.568 394.837 455.685 390.806 457.57 385.646 461.591 386.028 464.558 383.291 469.486 387.348 473.592 389.322 476.289 385.405 479.905 385.518 482.297 377.682 486.664 382.835 490.194 382.272 493.449 376.758 497.181 376.889 500.898 381.738 504.507 380.572 508.252 378.359 511.819 379.798 515.4 380.555 519.173 379.88 521.874 385.622 525.036 387.662 529.193 385.228 533.101 384.461 536.704 385.06 540.493 385.195 542.195 391.133 545.31 392.799 549.114 392.85 551.758 395.537 556.228 394.507 558.322 398.14 564.688 394.304 566.199 398.868 570.439 399.064 572.742 402.179 575.189 404.991 574.901 411.098 582.321 407.826 583.718 411.772 583.604 417.109 589.431 416.357 587.484 423.095 594.982 421.22 595.531 425.516 593.24 431.813 598.102 432.558 603.213 433.386 602.943 437.882 603.899 441.471 608.661 442.89 611.821 445.365 613.543 448.637 608.845 454.75 609.316 458.33 612.079 461 619.722 462.125 617.887 466.571 617.034 470.559 618.254 473.934 615.467 478.173 618.105 481.226 622.398 484.156 623.65 487.674 623.836 491.335 623.332 495.028 622.583 498.687 621.221 502.296"/>
    <polygon points="621.221 502.296 619.739 505.821 624.4 509.624 617.599 512.706 624.173 516.978 620.153 520.103 617.026 523.174 618.175 526.987 615.41 529.975 619.739 534.774 614.396 536.961 615.875 541.173 617.473 545.604 616.581 549.22 615.052 552.589 612.007 555.232 604.439 555.44 611.227 563.13 609.351 566.359 605.969 568.636 602.214 570.543 602.192 574.985 594.003 573.374 597.762 580.902 595.536 583.863 592.613 586.206 588.811 587.648 582.075 585.923 582.371 591.364 581.428 595.747 575.417 594.146 571.471 594.756 573.601 603.626 568.457 602.609 567.938 608.493 564.488 609.97 559.818 609.178 554.448 606.643 553.613 612.963 547.916 609.047 546.999 615.973 543.82 617.854 538.544 613.649 536.498 618.875 534.139 623.951 528.62 616.997 525.911 621.116 522.023 619.812 518.068 617.249 514.922 619.975 511.767 624.191 508.017 622.178 504.492 623.469 500.898 622.959 497.335 622.428 493.973 618.889 490.291 621.228 486.081 626.709 482.692 624.244 478.712 625.749 474.996 625.35 473.027 617.604 470.208 614.581 466.003 616.547 462.491 615.882 458.697 615.893 455.299 614.715 450.825 615.951 448.99 611.25 444.253 612.643 443.455 606.485 438.667 607.654 438.165 601.666 435.74 599.033 427.813 604.139 429.528 595.782 422.764 598.579 419.207 597.077 420.513 590.159 419.059 586.59 411.875 588.712 408.403 586.905 407.209 583.03 405.839 579.422 400.784 578.721 403.786 571.967 399.673 570.47 397.457 567.593 393.897 565.488 395.273 560.521 397.455 555.38 394.876 552.794 385.949 552.93 386.301 548.77 388.099 544.193 382.761 542.234 388.171 536.721 387.192 533.37 385.604 530.161 386.749 526.33 384.095 523.294 383.506 519.827 383.646 516.269 377.425 513.303 377.897 509.597 377.074 505.967 384.068 502.296 382.413 498.781 384.352 495.374 378.739 491.405 384.835 488.463 383.726 484.797 380.707 480.692 381.632 477.187 380.351 473.163 383.625 470.245 388.421 467.942 388.514 464.295 386.062 459.634 390.58 457.55 386.033 451.689 389.994 449.457 396.337 448.626 390.743 441.557 400.474 442.986 399.958 438.569 398.832 433.542 404.284 432.97 404.779 428.912 405.097 424.553 411.49 425.24 411.594 420.592 414.843 418.747 418.58 417.493 420.837 414.77 422.594 411.424 424.702 408.381 428.312 407.202 431.25 405.216 433.212 401.793 437.717 402.199 436.841 393.832 442.147 395.718 443.839 391.124 448.085 391.423 453.568 394.837 455.685 390.806 457.57 385.646 461.591 386.028 464.558 383.291 469.486 387.348 473.592 389.322 476.289 385.405 479.905 385.518 482.297 377.682 486.664 382.835 490.194 382.272 493.449 376.758 497.181 376.889 500.898 381.738 504.507 380.572 508.252 378.359 511.819 379.798 515.4 380.555 519.173 379.88 521.874 385.622 525.036 387.662 529.193 385.228 533.101 384.461 536.704 385.06 540.493 385.195 542.195 391.133 545.31 392.799 549.114 392.85 551.758 395.537 556.228 394.507 558.322 398.14 564.688 394.304 566.199 398.868 570.439 399.064 572.742 402.179 575.189 404.991 574.901 411.098 582.321 407.826 583.718 411.772 583.604 417.109 589.431 416.357 587.484 423.095 594.982 421.22 595.531 425.516 593.24 431.813 598.102 432.558 603.213 433.386 602.943 437.882 603.899 441.471 608.661 442.89 611.821 445.365 613.543 448.637 608.845 454.75 609.316 458.33 612.079 461 619.722 462.125 617.887 466.571 617.034 470.559 618.254 473.934 615.467 478.173 618.105 481.226 622.398 484.156 623.65 487.674 623.836 491.335 623.332 495.028 622.583 498.687 621.221 502.296" style="fill: none; stroke: #000; stroke-linecap: round; stroke-linejoin: round; stroke-width: 35px;"/>
  </g>
  <g>
    <polyline points="329.217 340.267 331.314 343.298 335.51 344.228 336.818 348.044 338.647 351.338 337.377 357.732 340.129 360.107 343.19 362.175 350.583 359.913 353.543 362.081 350.454 370.296 353.559 372.316 354.888 376.115 362.804 373.33 360.175 381.091 362.893 383.5 371.287 380.234 370.869 385.782 373.424 388.36 378.998 387.916 380.602 391.441 384.175 392.998 384.622 397.684 383.274 404.163 389.958 402.61 390.763 406.938 391.167 411.664 397.824 410.128 402.286 410.79 399.874 418.333 402.035 421.302 405.473 422.991 410.642 422.95 408.857 429.871 416.061 427.797 417.243 431.75 420.978 433.148 423.86 435.403 424.788 439.61 426.731 442.803 432.973 441.701 431.266 448.536 434.937 450 439.942 450.136 439.223 455.997 446.438 453.925 445.294 460.219 447.312 463.353" style="fill: none; stroke: #000; stroke-linecap: round; stroke-linejoin: round; stroke-width: 40px;"/>
    <polyline points="496.259 270.269 499.707 273.895 505.925 277.519 498.748 281.142 498.298 284.765 497.902 288.389 503.129 292.014 496.86 295.641 499.361 299.269 498.008 302.895 500.929 306.519 499.855 310.144 498.539 313.77 501.152 317.398 496.604 321.026 497.099 324.652 497.622 328.278 501.815 331.905 496.469 335.535 500.379 339.162 505.539 342.789 505.6 346.417 499.654 350.046 505.354 353.674 498.428 357.302 502.256 360.932 504.565 364.56 504.667 368.19 500.682 371.819 503.02 375.448 505.823 379.078 504.278 382.708 497.249 386.338 496.333 389.967 504.513 393.593 499.588 397.222 502.522 400.85 501.004 404.481 499.542 408.11 502.9 411.74 496.12 415.373 500.871 419.005 502.925 422.637 498.798 426.268 500.881 429.9 500.032 433.533 496.801 437.171 499.002 440.81" style="fill: none; stroke: #000; stroke-linecap: round; stroke-linejoin: round; stroke-width: 40px;"/>
    <polyline points="675.649 343.557 668.204 341.241 667.484 345.647 665.43 348.717 662.328 350.738 662.811 356.345 656.248 354.908 659.341 363.131 653.292 362.213 649.138 363.186 651.669 370.843 649.101 373.401 641.162 370.59 637.679 372.239 635.228 374.918 636.153 380.971 633.401 383.346 629.134 384.209 626.323 386.532 622.468 387.806 624.809 395.276 622.624 398.223 619.374 400.105 612.951 398.812 613.757 404.75 607.287 403.413 605.015 406.272 605.769 412.146 602.323 413.823 600.226 416.857 596.072 417.834 592.9 419.787 594.628 426.646 592.235 429.388 589.512 431.794 582.624 430.042 583.105 435.655 577.538 435.226 576.127 438.949 574.399 442.359 572.299 445.397 571.271 449.498 564.432 447.794 561.371 449.874 559.167 452.812 557.529 456.317 553.602 457.541 554.607 463.697" style="fill: none; stroke: #000; stroke-linecap: round; stroke-linejoin: round; stroke-width: 40px;"/>
  </g>
</svg>