<?xml version="1.0" encoding="UTF-8"?>
<svg id="Sticker" xmlns="http://www.w3.org/2000/svg" width="1000" height="1000" viewBox="0 0 1000 1000">
  <g>
    <polygon points="500 747.333 503.623 753.239 507.138 747.611 510.658 745.866 514.191 745.271 518.05 751.617 521.651 751.336 525.119 749.12 528.607 747.653 532.355 749.43 535.704 746.684 539.818 751.514 543.611 752.722 546.677 747.955 550.375 748.429 554.091 748.888 556.597 741.531 561.562 749.689 564.953 747.979 567.2 740.288 570.865 740.488 574.979 742.76 579.404 746.171 581.752 740.127 586.39 744.111 588.794 738.745 591.314 734.191 597.153 742.171 599.672 737.686 603.451 737.768 607.554 738.844 609.811 733.891 613.739 734.342 615.221 727.404 620.556 731.947 621.773 724.63 628.063 731.428 629.409 724.751 632.046 721.682 635.363 720.399 638.62 718.97 645.309 725.594 646.347 718.89 650.105 718.507 654.02 718.407 657.318 716.933 660.32 714.848 662.558 711.254 665.97 710.054 669.189 708.466 673.339 708.612 673.69 701.744 676.788 700.007 682.932 703.575 684.125 698.474 686.364 695.26 693.29 699.737 692.691 691.951 699.268 695.604 700.054 690.186 703.68 689.152 707.286 688.049 706.909 681.204 713.989 685.013 712.753 677.159 716.541 676.298 723.508 679.581 721.32 670.811 725.29 670.103 728.852 668.83 733.615 668.979 735.262 665.317 735.777 660.382 743.086 663.341 741.935 656.579 747.149 657.005 750.338 655.132 754.17 653.918 756.959 651.571 753.899 643.252 756.508 640.825 760.826 640.071 762.259 636.473 765.765 634.87 771.916 635.674 769.37 628.458 770.415 624.61 778.507 626.954 778.471 622.152 782.067 620.475 783.483 616.964 782.722 611.728 787.04 610.598 791.801 609.745 792.971 606.089 796.35 604.105 795.379 598.919 799.359 597.354 800.631 593.843 804.087 591.848 805.606 588.516 809.521 586.767 811.944 584.008 813.067 580.42 809.104 573.732 815.845 573.629 816.478 569.809 818.003 566.532 820.408 563.756 818.409 558.549 822.706 556.809 826.703 554.846 822.088 548.429 823.909 545.372 833.22 545.948 834.011 542.301 834.646 538.599 835.952 535.221 831.88 529.491 837.321 527.946 839.313 524.876 841.085 521.704 844.607 519.207 838.515 513.004 844.869 511.56 849.103 509.243 844.229 503.701 848.931 501.507 845.669 496.649 847.504 493.486 849.643 490.398 854.044 487.948 852.262 483.684 856.562 481.127 849.835 475.629 850.785 472.209 851.746 468.789 857.147 466.383 853.135 461.825 860.352 459.702 860.094 455.967 859.198 452.132 863.212 449.2 864.207 445.694 860.984 441.517 859.989 437.744 859.444 434.063 862.756 430.893 864.248 427.453 867.036 424.13 860.757 419.878 863.027 416.504 865.892 413.137 866.114 409.54 869.129 406.106 866.583 402.348 866.948 398.756 865.027 395.093 867.789 391.559 867.826 387.947 866.87 381.752 862.405 388.776 858.8 380.877 855.195 382.48 851.59 385.115 847.985 383.117 844.381 387.313 840.782 387.015 837.182 382.554 833.581 387.351 829.981 379.893 826.38 386.195 822.778 386.695 819.175 379.376 815.572 385.649 811.969 388.709 808.364 385.601 804.759 381.972 801.153 379.588 797.547 380.068 793.942 383.414 790.338 384.427 786.734 381.974 783.131 387.106 779.529 384.505 775.927 382.473 772.325 380.376 768.724 384.048 765.123 380.08 761.523 384.333 757.922 388.08 754.322 380.483 750.722 381.275 747.121 385.691 743.521 385.396 739.921 386.542 736.32 387.827 732.719 381.402 729.118 385.452 725.517 385.592 721.915 386.372 718.313 386.754 714.71 381.013 711.106 379.769 707.502 387.433 703.897 386.094 700.291 383.901 696.685 388.643 693.078 385.159 689.473 381.623 685.868 383.579 682.263 386.357 678.659 388.89 675.056 380.19 671.453 386.449 667.851 387.522 664.249 380.589 660.647 380.878 657.045 382.442 653.443 387.199 649.841 387.226 646.239 381.206 642.636 380.456 639.034 385.276 635.431 382.157 631.827 384.76 628.223 389.2 624.618 380.551 621.013 384.576 617.406 388.054 613.799 385.012 610.192 384.835 606.586 381.092 602.981 379.455 599.376 383.213 595.772 382.386 592.168 388.5 588.564 387.957 584.961 384.56 581.358 384.99 577.755 381.802 574.151 384.641 570.548 383.356 566.944 387.995 563.339 386.553 559.734 384.616 556.128 388.786 552.522 387.619 548.914 379.572 545.306 382.27 541.7 386.034 538.094 384.836 534.489 387.109 530.884 387.621 527.28 388.75 523.675 386.162 520.071 384.506 516.467 386.609 512.862 379.43 509.257 386.64 505.651 386.428 502.045 383.115 498.438 389.266 494.829 385.352 491.222 381.724 487.615 385.533 484.009 384.024 480.404 388.759 476.799 381.977 473.194 385.711 469.588 387.538 465.983 382.187 462.377 387.809 458.77 383.058 455.163 379.341 451.554 384.77 447.946 382.001 444.34 381.651 440.733 388.041 437.127 388.16 433.522 383.497 429.916 383.133 426.309 386.964 422.702 384.324 419.095 381.343 415.486 383.228 411.878 383.656 408.271 382.732 404.664 382.63 401.058 384.681 397.452 379.791 393.845 382.251 390.237 383.513 386.628 384.439 383.02 383.051 379.413 388.062 375.806 387.344 372.199 387.882 368.592 387.543 364.984 388.908 361.375 389.011 357.766 387.911 354.159 384.312 350.552 384.982 346.944 379.519 343.336 381.721 339.727 388.519 336.119 381.781 332.511 379.896 328.903 383.056 325.3 384.831 321.698 380.222 318.095 388.472 314.492 382.769 310.887 387.609 307.28 388.342 303.67 380.604 300.062 385.49 296.456 387.434 292.851 384.891 289.247 384.902 285.642 385.225 282.035 380.548 278.426 380.141 274.816 385.023 271.209 387.693 267.603 382.766 263.996 384.199 260.389 381.089 256.778 382.207 253.169 384.424 249.561 388.167 245.954 379.809 242.345 380.928 238.733 387.923 235.124 388.436 231.516 387.336 227.906 388.289 224.295 384.437 220.686 379.442 217.075 383.959 213.464 388.403 209.854 381.337 206.243 385.196 202.632 384.663 199.021 383.288 195.41 386.907 191.798 384.88 188.19 384.63 184.579 379.683 180.971 383.904 177.36 382.858 173.75 383.755 170.137 387.308 166.526 388.53 162.914 388.379 159.3 389.211 155.685 386.355 152.071 386.372 148.458 385.309 144.844 380.159 141.23 387.026 137.609 381.887 134.885 387.039 133.312 387.936 138.668 391.435 132.783 395.157 137.851 398.572 135.81 402.235 133.512 405.956 137.703 409.285 134.246 413.131 138.028 416.416 136.467 420.154 133.075 424.125 136.936 427.322 138.88 430.694 132.723 435.146 133.969 438.642 141.316 441.165 136.94 445.513 144.122 447.909 144.32 451.483 143.729 455.223 142.995 459.018 140.929 463.134 145.928 465.693 140.146 470.743 143.967 473.533 143.233 477.448 145.781 480.508 146.6 484.02 150.058 486.765 149.026 490.817 150.129 494.244 149.515 498.229 157.209 499.462 153.742 504.42 156.51 507.251 161.018 509.404 156.735 514.827 154.887 519.422 159.627 521.434 162.311 524.22 159.905 529.147 168.197 529.476 162.114 536.11 164.498 539.014 166.658 542.004 166.25 546.227 168.338 549.256 173.554 550.675 172.731 555.164 176.878 557.055 182.087 558.3 184.358 561.105 179.706 567.872 185.974 568.393 187.697 571.526 188.226 575.396 189.458 578.861 190.483 582.478 194.148 584.39 192.199 590.012 196.873 591.219 201.299 592.523 198.448 598.945 203.313 599.899 204.768 603.303 209.3 604.396 209.77 608.559 215.473 608.644 213.285 614.974 216.957 616.633 221.055 617.889 218.492 624.78 225.538 623.458 223.926 629.675 228.846 630.108 232.574 631.555 232.834 636.225 235.532 638.632 238.811 640.461 244.646 639.705 246.762 642.613 245.959 648.572 246.722 653.008 254.358 650.089 254.712 654.989 257.743 656.978 258.407 661.665 263.096 661.737 266.328 663.456 269.356 665.401 270.132 670.129 276.058 668.433 274.964 675.652 277.572 678.194 284.393 675.08 287.571 676.752 286.407 684.497 289.376 686.563 294.729 685.141 294.791 691.476 297.219 694.386 303.134 691.901 306.656 693.033 306.881 699.5 311.415 698.997 314.793 700.358 317.252 703.296 320.444 704.981 325.637 703.014 327.697 706.721 332.811 704.684 332.741 712.621 335.246 715.704 340.413 713.382 344.97 712.149 348.304 713.417 350.629 716.917 351.859 723.029 358.406 716.924 359.056 724.616 363.489 723.289 367.944 721.751 369.669 727.217 372.24 730.651 377.179 727.603 378.647 734.292 382.596 733.956 385.437 736.928 389.558 735.951 394.81 731.093 397.154 735.753 400.694 736.44 404.65 735.568 407.632 738.293 412.09 735.261 414.409 740.828 417.399 743.898 421.936 740.096 425.245 741.744 428.551 743.499 432.068 744.248 434.868 749.045 439.353 744.28 443.129 743.336 445.865 749.251 449.406 750.092 452.821 751.969 457.542 742.944 460.75 746.28 464.174 747.996 467.767 748.091 471.641 744.51 474.811 750.209 478.162 754.615 481.864 753.442 485.512 752.997 489.142 752.782 492.795 751.067 496.363 754.673 500 747.333" style="fill: #fff;"/>
    <polygon points="500 747.333 503.623 753.239 507.138 747.611 510.658 745.866 514.191 745.271 518.05 751.617 521.651 751.336 525.119 749.12 528.607 747.653 532.355 749.43 535.704 746.684 539.818 751.514 543.611 752.722 546.677 747.955 550.375 748.429 554.091 748.888 556.597 741.531 561.562 749.689 564.953 747.979 567.2 740.288 570.865 740.488 574.979 742.76 579.404 746.171 581.752 740.127 586.39 744.111 588.794 738.745 591.314 734.191 597.153 742.171 599.672 737.686 603.451 737.768 607.554 738.844 609.811 733.891 613.739 734.342 615.221 727.404 620.556 731.947 621.773 724.63 628.063 731.428 629.409 724.751 632.046 721.682 635.363 720.399 638.62 718.97 645.309 725.594 646.347 718.89 650.105 718.507 654.02 718.407 657.318 716.933 660.32 714.848 662.558 711.254 665.97 710.054 669.189 708.466 673.339 708.612 673.69 701.744 676.788 700.007 682.932 703.575 684.125 698.474 686.364 695.26 693.29 699.737 692.691 691.951 699.268 695.604 700.054 690.186 703.68 689.152 707.286 688.049 706.909 681.204 713.989 685.013 712.753 677.159 716.541 676.298 723.508 679.581 721.32 670.811 725.29 670.103 728.852 668.83 733.615 668.979 735.262 665.317 735.777 660.382 743.086 663.341 741.935 656.579 747.149 657.005 750.338 655.132 754.17 653.918 756.959 651.571 753.899 643.252 756.508 640.825 760.826 640.071 762.259 636.473 765.765 634.87 771.916 635.674 769.37 628.458 770.415 624.61 778.507 626.954 778.471 622.152 782.067 620.475 783.483 616.964 782.722 611.728 787.04 610.598 791.801 609.745 792.971 606.089 796.35 604.105 795.379 598.919 799.359 597.354 800.631 593.843 804.087 591.848 805.606 588.516 809.521 586.767 811.944 584.008 813.067 580.42 809.104 573.732 815.845 573.629 816.478 569.809 818.003 566.532 820.408 563.756 818.409 558.549 822.706 556.809 826.703 554.846 822.088 548.429 823.909 545.372 833.22 545.948 834.011 542.301 834.646 538.599 835.952 535.221 831.88 529.491 837.321 527.946 839.313 524.876 841.085 521.704 844.607 519.207 838.515 513.004 844.869 511.56 849.103 509.243 844.229 503.701 848.931 501.507 845.669 496.649 847.504 493.486 849.643 490.398 854.044 487.948 852.262 483.684 856.562 481.127 849.835 475.629 850.785 472.209 851.746 468.789 857.147 466.383 853.135 461.825 860.352 459.702 860.094 455.967 859.198 452.132 863.212 449.2 864.207 445.694 860.984 441.517 859.989 437.744 859.444 434.063 862.756 430.893 864.248 427.453 867.036 424.13 860.757 419.878 863.027 416.504 865.892 413.137 866.114 409.54 869.129 406.106 866.583 402.348 866.948 398.756 865.027 395.093 867.789 391.559 867.826 387.947 866.87 381.752 862.405 388.776 858.8 380.877 855.195 382.48 851.59 385.115 847.985 383.117 844.381 387.313 840.782 387.015 837.182 382.554 833.581 387.351 829.981 379.893 826.38 386.195 822.778 386.695 819.175 379.376 815.572 385.649 811.969 388.709 808.364 385.601 804.759 381.972 801.153 379.588 797.547 380.068 793.942 383.414 790.338 384.427 786.734 381.974 783.131 387.106 779.529 384.505 775.927 382.473 772.325 380.376 768.724 384.048 765.123 380.08 761.523 384.333 757.922 388.08 754.322 380.483 750.722 381.275 747.121 385.691 743.521 385.396 739.921 386.542 736.32 387.827 732.719 381.402 729.118 385.452 725.517 385.592 721.915 386.372 718.313 386.754 714.71 381.013 711.106 379.769 707.502 387.433 703.897 386.094 700.291 383.901 696.685 388.643 693.078 385.159 689.473 381.623 685.868 383.579 682.263 386.357 678.659 388.89 675.056 380.19 671.453 386.449 667.851 387.522 664.249 380.589 660.647 380.878 657.045 382.442 653.443 387.199 649.841 387.226 646.239 381.206 642.636 380.456 639.034 385.276 635.431 382.157 631.827 384.76 628.223 389.2 624.618 380.551 621.013 384.576 617.406 388.054 613.799 385.012 610.192 384.835 606.586 381.092 602.981 379.455 599.376 383.213 595.772 382.386 592.168 388.5 588.564 387.957 584.961 384.56 581.358 384.99 577.755 381.802 574.151 384.641 570.548 383.356 566.944 387.995 563.339 386.553 559.734 384.616 556.128 388.786 552.522 387.619 548.914 379.572 545.306 382.27 541.7 386.034 538.094 384.836 534.489 387.109 530.884 387.621 527.28 388.75 523.675 386.162 520.071 384.506 516.467 386.609 512.862 379.43 509.257 386.64 505.651 386.428 502.045 383.115 498.438 389.266 494.829 385.352 491.222 381.724 487.615 385.533 484.009 384.024 480.404 388.759 476.799 381.977 473.194 385.711 469.588 387.538 465.983 382.187 462.377 387.809 458.77 383.058 455.163 379.341 451.554 384.77 447.946 382.001 444.34 381.651 440.733 388.041 437.127 388.16 433.522 383.497 429.916 383.133 426.309 386.964 422.702 384.324 419.095 381.343 415.486 383.228 411.878 383.656 408.271 382.732 404.664 382.63 401.058 384.681 397.452 379.791 393.845 382.251 390.237 383.513 386.628 384.439 383.02 383.051 379.413 388.062 375.806 387.344 372.199 387.882 368.592 387.543 364.984 388.908 361.375 389.011 357.766 387.911 354.159 384.312 350.552 384.982 346.944 379.519 343.336 381.721 339.727 388.519 336.119 381.781 332.511 379.896 328.903 383.056 325.3 384.831 321.698 380.222 318.095 388.472 314.492 382.769 310.887 387.609 307.28 388.342 303.67 380.604 300.062 385.49 296.456 387.434 292.851 384.891 289.247 384.902 285.642 385.225 282.035 380.548 278.426 380.141 274.816 385.023 271.209 387.693 267.603 382.766 263.996 384.199 260.389 381.089 256.778 382.207 253.169 384.424 249.561 388.167 245.954 379.809 242.345 380.928 238.733 387.923 235.124 388.436 231.516 387.336 227.906 388.289 224.295 384.437 220.686 379.442 217.075 383.959 213.464 388.403 209.854 381.337 206.243 385.196 202.632 384.663 199.021 383.288 195.41 386.907 191.798 384.88 188.19 384.63 184.579 379.683 180.971 383.904 177.36 382.858 173.75 383.755 170.137 387.308 166.526 388.53 162.914 388.379 159.3 389.211 155.685 386.355 152.071 386.372 148.458 385.309 144.844 380.159 141.23 387.026 137.609 381.887 134.885 387.039 133.312 387.936 138.668 391.435 132.783 395.157 137.851 398.572 135.81 402.235 133.512 405.956 137.703 409.285 134.246 413.131 138.028 416.416 136.467 420.154 133.075 424.125 136.936 427.322 138.88 430.694 132.723 435.146 133.969 438.642 141.316 441.165 136.94 445.513 144.122 447.909 144.32 451.483 143.729 455.223 142.995 459.018 140.929 463.134 145.928 465.693 140.146 470.743 143.967 473.533 143.233 477.448 145.781 480.508 146.6 484.02 150.058 486.765 149.026 490.817 150.129 494.244 149.515 498.229 157.209 499.462 153.742 504.42 156.51 507.251 161.018 509.404 156.735 514.827 154.887 519.422 159.627 521.434 162.311 524.22 159.905 529.147 168.197 529.476 162.114 536.11 164.498 539.014 166.658 542.004 166.25 546.227 168.338 549.256 173.554 550.675 172.731 555.164 176.878 557.055 182.087 558.3 184.358 561.105 179.706 567.872 185.974 568.393 187.697 571.526 188.226 575.396 189.458 578.861 190.483 582.478 194.148 584.39 192.199 590.012 196.873 591.219 201.299 592.523 198.448 598.945 203.313 599.899 204.768 603.303 209.3 604.396 209.77 608.559 215.473 608.644 213.285 614.974 216.957 616.633 221.055 617.889 218.492 624.78 225.538 623.458 223.926 629.675 228.846 630.108 232.574 631.555 232.834 636.225 235.532 638.632 238.811 640.461 244.646 639.705 246.762 642.613 245.959 648.572 246.722 653.008 254.358 650.089 254.712 654.989 257.743 656.978 258.407 661.665 263.096 661.737 266.328 663.456 269.356 665.401 270.132 670.129 276.058 668.433 274.964 675.652 277.572 678.194 284.393 675.08 287.571 676.752 286.407 684.497 289.376 686.563 294.729 685.141 294.791 691.476 297.219 694.386 303.134 691.901 306.656 693.033 306.881 699.5 311.415 698.997 314.793 700.358 317.252 703.296 320.444 704.981 325.637 703.014 327.697 706.721 332.811 704.684 332.741 712.621 335.246 715.704 340.413 713.382 344.97 712.149 348.304 713.417 350.629 716.917 351.859 723.029 358.406 716.924 359.056 724.616 363.489 723.289 367.944 721.751 369.669 727.217 372.24 730.651 377.179 727.603 378.647 734.292 382.596 733.956 385.437 736.928 389.558 735.951 394.81 731.093 397.154 735.753 400.694 736.44 404.65 735.568 407.632 738.293 412.09 735.261 414.409 740.828 417.399 743.898 421.936 740.096 425.245 741.744 428.551 743.499 432.068 744.248 434.868 749.045 439.353 744.28 443.129 743.336 445.865 749.251 449.406 750.092 452.821 751.969 457.542 742.944 460.75 746.28 464.174 747.996 467.767 748.091 471.641 744.51 474.811 750.209 478.162 754.615 481.864 753.442 485.512 752.997 489.142 752.782 492.795 751.067 496.363 754.673 500 747.333" style="fill: none; stroke: #000; stroke-linecap: round; stroke-linejoin: round; stroke-width: 35px;"/>
  </g>
  <g>
    <polygon points="500 609.56 503.636 607.559 507.131 603.505 510.604 601.681 514.685 609.193 517.862 603.467 521.965 608.168 524.593 599.676 528.986 605.464 532.405 603.842 536.156 604.264 538.373 596.818 543.233 602.602 545.303 595.623 549.657 598.436 553.582 599.18 556.217 595.352 561.491 600.21 563.06 593.358 567.603 595.48 570.714 593.448 572.378 587.868 579.023 594.574 580.094 587.871 585.593 591.214 587.773 587.28 587.981 579.671 592.962 581.565 596.15 579.926 597.54 575.171 600.799 573.757 607.26 577.408 609.107 573.567 611.207 570.239 613.437 567.195 617.399 566.585 618.258 561.79 621.138 559.743 624.436 558.196 631.531 561.065 628.82 552.445 635.186 554.193 639.889 553.895 642.785 551.603 642.771 546.433 645.322 543.873 645.75 539.368 648.475 537.018 654.843 537.743 651.492 530.253 659.688 532.224 659.801 527.694 661.355 524.34 663.845 521.678 666.783 519.3 669.573 516.777 665.296 509.777 669.594 508.256 675.663 507.64 675.737 503.493 673.921 498.423 675.949 495.468 679.259 493.116 685.435 492.015 681.435 486.217 688.398 485.26 684.277 479.645 689.085 477.635 690.604 474.303 685.569 468.752 692.824 467.342 688.537 462.26 690.352 459.08 691.642 455.73 695.054 452.87 690.967 448.268 698.117 446.1 700.591 442.841 693.579 437.971 694.566 434.535 701.322 431.807 701.573 428.149 694.897 423.877 694.866 420.332 697.746 416.952 694.382 413.254 701.244 409.861 698.608 408.279 695.709 408.43 692.122 402.612 688.535 409.101 684.947 402.533 681.36 405.019 677.773 403.783 674.185 402.62 670.596 402.603 667.007 404.473 663.417 410.012 659.826 404.573 656.235 411.163 652.646 407.437 649.057 404.967 645.469 405.673 641.881 405.767 638.293 406.643 634.705 408.119 631.117 404.319 627.528 404.001 623.938 408.707 620.348 405.105 616.757 403.526 613.166 407.692 609.576 404.385 605.987 409.914 602.399 405.839 598.81 407.836 595.221 407.596 591.632 402.95 588.042 409.045 584.452 406.808 580.86 408.531 577.269 404.037 573.68 410.498 570.09 409.427 566.501 411.154 562.912 404.425 559.322 402.879 555.732 409.421 552.14 410.407 548.549 406.863 544.959 409.18 541.369 402.878 537.779 409.44 534.189 407.808 530.599 409.752 527.007 405.221 523.416 402.173 519.825 410.814 516.235 409.207 512.645 403.282 509.054 401.498 505.463 405.183 501.871 406.001 498.28 409.043 494.69 408.44 491.104 408.934 487.519 402.502 483.933 406.592 480.347 402.586 476.759 410.137 473.17 408.362 469.577 408.871 465.986 409.105 462.397 405.709 458.81 405.001 455.222 405.762 451.634 402.648 448.045 401.698 444.453 404.015 440.86 410.097 437.27 403.467 433.681 404.139 430.092 407.323 426.502 403.126 422.909 406.046 419.316 404.539 415.726 401.867 412.135 406.032 408.544 405.57 404.949 409.054 401.357 406.675 397.766 409.033 394.173 402.532 390.58 405.417 386.987 405.096 383.395 404.658 379.8 410.805 376.208 406.686 372.613 410.026 369.02 406.728 365.426 409.476 361.832 405.87 358.237 404.935 354.647 401.64 351.053 403.766 347.462 410.492 343.868 408.511 340.276 403.486 336.68 405.345 333.086 411.164 329.491 405.718 325.894 409.585 322.297 407.35 318.7 403.221 315.104 403.105 311.507 407.993 307.91 404.426 304.307 405.487 302.266 410.907 298.053 409.873 297.71 413.535 300.002 417.073 296.531 420.946 299.268 424.4 298.455 428.148 299.464 431.711 298.48 435.541 299.892 439.037 300.57 442.635 307.386 445.004 305.514 449.045 309.907 451.694 306.378 456.247 309.154 459.224 307.081 463.569 312.37 465.705 306.555 471.413 316.115 471.912 312.119 477.189 314.7 480.063 315.412 483.669 314.138 488.182 322.951 488.14 323.48 491.797 326.536 494.216 322.405 500.387 327.543 501.686 326.427 506.444 325.643 511.142 330.088 512.689 335.851 513.248 337.872 516.152 337.188 520.964 342.882 521.248 341.467 526.745 340.553 532.05 343.79 534.137 351.566 532.31 353.549 535.251 354.309 539.331 358.912 539.879 361.287 542.465 361.259 547.505 365.665 548.052 367.167 551.638 368.416 555.6 370.096 559.172 376.371 557.232 376.641 562.574 379.349 564.954 381.677 567.866 386.619 567.137 389.868 568.679 392.785 570.692 392.807 577.323 397.965 575.828 401.69 576.525 404.153 579.401 405.154 585.134 408.703 586.219 413.281 585.132 414.375 591.306 417.841 592.571 421.58 593.162 424.737 595.127 429.601 592.639 431.422 598.233 437.613 591.383 439.89 595.873 442.364 600.159 446.908 597.438 449.153 603.084 454.008 598.543 457.258 600.384 460.805 600.951 463.43 606.564 467.771 602.781 471.589 601.502 475.061 602.446 478.129 607.312 482.195 602.836 485.746 603.163 489.369 602.19 492.86 603.739 496.357 607.958 500 609.56"/>
    <polygon points="500 609.56 503.636 607.559 507.131 603.505 510.604 601.681 514.685 609.193 517.862 603.467 521.965 608.168 524.593 599.676 528.986 605.464 532.405 603.842 536.156 604.264 538.373 596.818 543.233 602.602 545.303 595.623 549.657 598.436 553.582 599.18 556.217 595.352 561.491 600.21 563.06 593.358 567.603 595.48 570.714 593.448 572.378 587.868 579.023 594.574 580.094 587.871 585.593 591.214 587.773 587.28 587.981 579.671 592.962 581.565 596.15 579.926 597.54 575.171 600.799 573.757 607.26 577.408 609.107 573.567 611.207 570.239 613.437 567.195 617.399 566.585 618.258 561.79 621.138 559.743 624.436 558.196 631.531 561.065 628.82 552.445 635.186 554.193 639.889 553.895 642.785 551.603 642.771 546.433 645.322 543.873 645.75 539.368 648.475 537.018 654.843 537.743 651.492 530.253 659.688 532.224 659.801 527.694 661.355 524.34 663.845 521.678 666.783 519.3 669.573 516.777 665.296 509.777 669.594 508.256 675.663 507.64 675.737 503.493 673.921 498.423 675.949 495.468 679.259 493.116 685.435 492.015 681.435 486.217 688.398 485.26 684.277 479.645 689.085 477.635 690.604 474.303 685.569 468.752 692.824 467.342 688.537 462.26 690.352 459.08 691.642 455.73 695.054 452.87 690.967 448.268 698.117 446.1 700.591 442.841 693.579 437.971 694.566 434.535 701.322 431.807 701.573 428.149 694.897 423.877 694.866 420.332 697.746 416.952 694.382 413.254 701.244 409.861 698.608 408.279 695.709 408.43 692.122 402.612 688.535 409.101 684.947 402.533 681.36 405.019 677.773 403.783 674.185 402.62 670.596 402.603 667.007 404.473 663.417 410.012 659.826 404.573 656.235 411.163 652.646 407.437 649.057 404.967 645.469 405.673 641.881 405.767 638.293 406.643 634.705 408.119 631.117 404.319 627.528 404.001 623.938 408.707 620.348 405.105 616.757 403.526 613.166 407.692 609.576 404.385 605.987 409.914 602.399 405.839 598.81 407.836 595.221 407.596 591.632 402.95 588.042 409.045 584.452 406.808 580.86 408.531 577.269 404.037 573.68 410.498 570.09 409.427 566.501 411.154 562.912 404.425 559.322 402.879 555.732 409.421 552.14 410.407 548.549 406.863 544.959 409.18 541.369 402.878 537.779 409.44 534.189 407.808 530.599 409.752 527.007 405.221 523.416 402.173 519.825 410.814 516.235 409.207 512.645 403.282 509.054 401.498 505.463 405.183 501.871 406.001 498.28 409.043 494.69 408.44 491.104 408.934 487.519 402.502 483.933 406.592 480.347 402.586 476.759 410.137 473.17 408.362 469.577 408.871 465.986 409.105 462.397 405.709 458.81 405.001 455.222 405.762 451.634 402.648 448.045 401.698 444.453 404.015 440.86 410.097 437.27 403.467 433.681 404.139 430.092 407.323 426.502 403.126 422.909 406.046 419.316 404.539 415.726 401.867 412.135 406.032 408.544 405.57 404.949 409.054 401.357 406.675 397.766 409.033 394.173 402.532 390.58 405.417 386.987 405.096 383.395 404.658 379.8 410.805 376.208 406.686 372.613 410.026 369.02 406.728 365.426 409.476 361.832 405.87 358.237 404.935 354.647 401.64 351.053 403.766 347.462 410.492 343.868 408.511 340.276 403.486 336.68 405.345 333.086 411.164 329.491 405.718 325.894 409.585 322.297 407.35 318.7 403.221 315.104 403.105 311.507 407.993 307.91 404.426 304.307 405.487 302.266 410.907 298.053 409.873 297.71 413.535 300.002 417.073 296.531 420.946 299.268 424.4 298.455 428.148 299.464 431.711 298.48 435.541 299.892 439.037 300.57 442.635 307.386 445.004 305.514 449.045 309.907 451.694 306.378 456.247 309.154 459.224 307.081 463.569 312.37 465.705 306.555 471.413 316.115 471.912 312.119 477.189 314.7 480.063 315.412 483.669 314.138 488.182 322.951 488.14 323.48 491.797 326.536 494.216 322.405 500.387 327.543 501.686 326.427 506.444 325.643 511.142 330.088 512.689 335.851 513.248 337.872 516.152 337.188 520.964 342.882 521.248 341.467 526.745 340.553 532.05 343.79 534.137 351.566 532.31 353.549 535.251 354.309 539.331 358.912 539.879 361.287 542.465 361.259 547.505 365.665 548.052 367.167 551.638 368.416 555.6 370.096 559.172 376.371 557.232 376.641 562.574 379.349 564.954 381.677 567.866 386.619 567.137 389.868 568.679 392.785 570.692 392.807 577.323 397.965 575.828 401.69 576.525 404.153 579.401 405.154 585.134 408.703 586.219 413.281 585.132 414.375 591.306 417.841 592.571 421.58 593.162 424.737 595.127 429.601 592.639 431.422 598.233 437.613 591.383 439.89 595.873 442.364 600.159 446.908 597.438 449.153 603.084 454.008 598.543 457.258 600.384 460.805 600.951 463.43 606.564 467.771 602.781 471.589 601.502 475.061 602.446 478.129 607.312 482.195 602.836 485.746 603.163 489.369 602.19 492.86 603.739 496.357 607.958 500 609.56" style="fill: none; stroke: #000; stroke-linecap: round; stroke-linejoin: round; stroke-width: 35px;"/>
  </g>
</svg>