<?xml version="1.0" encoding="UTF-8"?>
<svg id="Sticker" xmlns="http://www.w3.org/2000/svg" width="1000" height="1000" viewBox="0 0 1000 1000">
  <g>
    <polygon points="780.722 360.543 784.287 357.419 781.134 353.297 785.962 350.221 786.336 346.555 779.163 342.287 778.97 338.716 779.001 335.169 781.792 331.699 784.205 328.13 778.91 324.55 778.865 321.014 782.774 317.295 784.074 313.596 782.901 310.043 777.579 306.938 785.444 302.454 780.087 299.473 777.733 296.204 779.534 292.283 774.765 289.531 779.835 284.864 777.953 281.571 777.483 277.968 773.663 275.242 775.243 271.087 771.434 268.471 777.319 262.835 774.533 259.893 773.944 256.221 772.47 252.86 766.93 251.127 766.753 247.315 767.382 243.104 760.263 242.352 762.636 237.296 757.645 235.741 757.761 231.684 757.947 227.518 755.856 224.544 755.106 220.809 756.561 215.712 753.631 213.191 747.599 212.697 744.455 210.467 747.834 203.834 741.158 204.048 741.329 199.49 738.569 197.025 738.106 192.817 737.566 188.589 733.045 187.533 728.038 186.988 730.493 180.127 726.12 179.095 724.839 175.339 722.836 172.2 715.851 173.828 713.381 171.227 711.688 167.836 706.073 168.478 709.006 160.16 701.569 162.891 698.695 160.765 701.614 151.977 698.292 150.232 692.916 151.008 693.463 144.582 686.877 147.035 682.592 146.722 684.478 138.231 677.919 141.025 677.286 135.717 674.038 134.024 669.53 134.221 668.073 129.889 662.087 132.509 658.924 130.845 657.474 126.37 656.82 120.408 654.248 117.554 650.623 116.52 645.834 117.665 640.529 119.946 638.702 115.709 636.539 111.993 631.951 113.133 629.823 109.231 625.621 109.707 623.189 106.327 619.232 106.363 616.72 103.032 613.345 101.707 608.63 103.816 607.016 97.949 602.883 98.665 599.447 97.543 597.496 92.037 593.928 91.156 587.896 98.17 584.334 97.643 580.87 96.815 578.202 93.112 574.073 94.71 571.156 91.709 568.074 89.18 564.004 90.856 560.713 89.153 557.371 87.588 553.471 88.879 551.038 82.087 546.598 86.666 543.529 82.989 539.91 82.731 536.229 83.013 532.591 83.076 528.687 85.894 525.788 78.244 521.696 83.897 518.528 77.308 514.636 81.822 511.15 78.803 507.517 78.701 503.833 82.538 500.248 76.73 496.671 81.382 493.16 84.003 489.537 82.017 485.964 82.089 482.054 76.849 478.929 83.8 475.123 81.137 471.548 81.499 468.528 86.79 464.521 83.222 460.813 82.548 457.487 84.615 454.11 86.142 450.972 88.904 446.772 85.686 443.703 88.641 439.306 85.034 436.558 89.298 432.453 87.43 430.027 92.613 425.533 89.428 422.402 91.619 419.621 94.934 415.898 94.88 412.187 94.952 409.882 99.469 405.907 98.735 402.138 98.731 399.498 101.945 394.764 99.405 392.982 104.77 390.075 107.049 386.234 107.002 381.532 105.013 378.054 106.023 376.813 112.005 371.455 108.886 369.876 113.912 363.926 109.887 363.342 116.739 357.344 112.939 354.232 114.809 354.723 123.202 348.466 119.336 347.25 124.427 345.148 127.865 340.98 127.853 334.525 124.297 332.35 127.651 330.844 131.943 330.636 138.035 327.8 140.15 319.772 134.988 319.708 141.061 314.311 139.835 311.381 141.982 308.99 144.815 310.557 152.511 304.812 151.127 305.281 157.228 299.326 155.776 296.056 157.512 293.858 160.451 293.656 165.485 286.139 162.814 285.073 166.915 284.392 171.317 280.485 172.534 275.873 173.165 274.162 176.537 276.259 183.24 272.567 184.75 268.68 186.161 266.524 189.053 268.508 195.211 265.391 197.263 259.782 197.502 258.129 200.754 253.998 202.25 252.126 205.37 253.987 210.937 248.989 211.978 251.969 218.055 242.428 216.489 243.767 221.481 242.115 224.692 240.152 227.733 239.21 231.308 233.844 232.678 237.549 238.481 239.436 243.253 231.291 243.555 231.303 247.488 227.921 250.033 234.084 256.223 226.662 257.315 224.546 260.424 227.719 265.239 223.283 267.636 222.978 271.309 227.127 276.107 222.609 278.64 216.782 281.025 221.859 285.796 223.036 289.637 217.552 292.319 219.466 296.257 219.977 299.928 218.823 303.384 214.511 306.586 216.295 310.368 214.457 313.884 216.979 317.609 215.097 321.168 215.956 324.786 219.06 328.326 213.66 332.092 218.313 335.479 215.699 339.256 220.82 342.409 216.953 346.399 216.118 350.149 222.038 352.94 222.584 356.434 224.47 359.683 224.258 363.399 220.038 367.853 221.734 371.214 224.293 374.416 221.506 378.603 226.22 381.409 220.271 386.18 228.232 388.387 225.21 392.62 230.815 395.256 228.273 399.407 233 402.202 226.506 407.102 230.026 410.117 233.318 413.164 234.987 416.514 230.442 421.08 233.401 424.174 236.915 427.138 235.374 431.133 236.947 434.485 233.11 439.013 234.799 442.351 234.117 446.227 238.925 448.807 234.647 453.579 239.41 456.118 236.337 460.664 240.013 463.436 237.577 467.88 242.231 470.326 240.931 474.482 240.921 478.278 246.315 480.404 243.338 485.131 244.857 488.453 246.092 491.862 249.559 494.526 255.256 496.419 252.031 501.325 250.046 505.831 256.056 507.578 254.387 511.982 262.119 513.092 263.115 516.566 259.026 521.846 264.972 523.566 267.224 526.6 260.564 532.689 264.148 535.282 262.523 539.487 268.615 541.443 265.38 546.095 264.128 550.176 272.841 551.425 268.295 556.457 272.998 558.831 276.757 561.453 276.901 565.135 273.47 569.923 278.545 572.099 276.122 576.626 276.963 580.133 275.699 584.354 278.525 587.203 282.343 589.672 279.24 594.614 287.079 595.545 284.652 600.292 287.835 602.898 292.001 605.063 288.344 610.435 291.328 613.068 290.367 617.41 293.481 619.956 291.574 624.817 294.614 627.382 294.822 631.316 303.646 630.874 299.509 637.059 302.283 639.666 305.195 642.162 310.315 643.341 307.765 648.974 311.816 650.71 314.126 653.466 313.194 658.327 318.658 658.989 318.578 663.365 317.215 668.758 319.058 671.931 326.745 670.641 327.03 674.938 328.063 678.725 331.97 680.146 335.625 681.699 338.751 683.652 341.083 686.301 341.194 691.106 342.305 695.069 347.478 694.911 348.115 699.446 353.863 698.431 352.766 705.086 358.389 703.996 359.816 707.879 359.636 713.97 363.609 714.78 367.959 714.952 371.119 716.702 374.403 718.239 375.167 723.715 381.298 720.667 384.536 722.155 384.596 729.306 387.693 731.262 391.175 732.484 394.414 734.161 400.871 728.942 401.797 735.505 404.06 739.426 407.945 739.574 412.709 737.296 415.112 741.135 420.628 736.206 423.932 737.385 425.537 744.123 430.385 740.333 433.479 742.399 436.858 743.499 439.215 748.944 443.481 746.436 447.249 745.841 449.97 750.552 454.346 746.478 457.444 749.538 460.508 753.344 464.936 747.447 468.393 748.337 471.604 751.739 474.724 757.056 479.069 748.212 482.59 748.496 486.096 749.135 489.517 752.256 492.964 756.891 496.713 750.04 500.249 753.409 503.87 756.336 507.411 750.317 510.971 749.807 514.735 754.889 518.129 750.181 521.617 748.723 525.249 749.637 529.097 752.689 532.38 749.21 535.74 747.136 539.577 749.23 543.738 753.168 546.425 746.684 549.933 746.112 554.305 750.28 558.45 752.571 560.814 746.066 564.28 745.165 568.33 746.654 571.59 744.836 575.349 744.91 579.8 747.186 581.353 739.901 585.032 739.657 588.075 737.524 592.262 738.552 594.697 734.901 598.033 733.656 603.274 736.763 604.041 729.684 610.802 735.576 611.267 728.313 615.135 727.99 617.186 724.268 623.367 727.846 627.061 726.855 625.322 717.204 633.272 722.859 636.143 720.518 639.605 719.021 637.42 709.935 641.202 709.043 648.441 712.299 647.786 705.797 649.064 701.81 650.406 698.018 653.44 696.108 658.594 696.302 658.97 691.646 664.775 692.231 662.852 685.607 668.825 686.136 670.788 683.073 676.508 683.065 673.941 676.402 676.835 674.111 678.268 670.72 678.557 666.563 686.149 667.419 683.334 661.232 686.145 658.801 691.789 658.046 688.709 652.022 696.502 652.347 698.355 649.192 694.472 643.008 700.668 642.163 698.443 637.012 700.305 633.935 702.244 630.881 701.116 626.451 709.131 626.025 708.139 621.668 710.97 618.913 712.448 615.594 713.327 612.045 709.26 606.709 709.849 603.135 711.452 599.917 719.645 598.863 713.952 593.222 714.041 589.508 723.514 588.635 720.33 583.914 721.917 580.622 718.541 575.943 722.031 573.181 721.339 569.274 728.41 567.416 726.266 563.124 731.166 560.666 732.225 557.222 727.012 552.143 727.163 548.436 733.108 546.354 729.207 541.414 735.002 539.567 736.879 536.391 738.588 533.149 738.042 529.084 735.895 524.444 737.137 521.037 738.67 517.735 740.808 514.647 738.586 510.013 745.566 508.628 740.821 503.132 751.293 502.915 749.094 498.316 745.484 493.27 750.2 491.03 750.491 487.309 750.156 483.396 751.152 479.921 758.147 478.309 752.892 472.899 761.208 471.609 754.404 465.822 757.518 462.959 762.996 460.727 756.968 455.319 763.158 453.232 761.297 449.004 763.59 445.851 760.853 441.451 768.969 439.679 765.977 435.241 762.474 430.731 766.545 427.942 771.028 425.206 769.465 421.158 773.473 418.283 767.252 413.312 768.979 409.975 776.728 407.806 774.301 403.636 775.984 400.262 775.996 396.571 777.493 393.154 780.187 389.949 779.11 386.061 772.164 381.146 774.14 377.82 774.746 374.249 777.275 371.005 778.426 367.524 776.288 363.478 780.722 360.543" style="fill: #fff;"/>
    <polygon points="780.722 360.543 784.287 357.419 781.134 353.297 785.962 350.221 786.336 346.555 779.163 342.287 778.97 338.716 779.001 335.169 781.792 331.699 784.205 328.13 778.91 324.55 778.865 321.014 782.774 317.295 784.074 313.596 782.901 310.043 777.579 306.938 785.444 302.454 780.087 299.473 777.733 296.204 779.534 292.283 774.765 289.531 779.835 284.864 777.953 281.571 777.483 277.968 773.663 275.242 775.243 271.087 771.434 268.471 777.319 262.835 774.533 259.893 773.944 256.221 772.47 252.86 766.93 251.127 766.753 247.315 767.382 243.104 760.263 242.352 762.636 237.296 757.645 235.741 757.761 231.684 757.947 227.518 755.856 224.544 755.106 220.809 756.561 215.712 753.631 213.191 747.599 212.697 744.455 210.467 747.834 203.834 741.158 204.048 741.329 199.49 738.569 197.025 738.106 192.817 737.566 188.589 733.045 187.533 728.038 186.988 730.493 180.127 726.12 179.095 724.839 175.339 722.836 172.2 715.851 173.828 713.381 171.227 711.688 167.836 706.073 168.478 709.006 160.16 701.569 162.891 698.695 160.765 701.614 151.977 698.292 150.232 692.916 151.008 693.463 144.582 686.877 147.035 682.592 146.722 684.478 138.231 677.919 141.025 677.286 135.717 674.038 134.024 669.53 134.221 668.073 129.889 662.087 132.509 658.924 130.845 657.474 126.37 656.82 120.408 654.248 117.554 650.623 116.52 645.834 117.665 640.529 119.946 638.702 115.709 636.539 111.993 631.951 113.133 629.823 109.231 625.621 109.707 623.189 106.327 619.232 106.363 616.72 103.032 613.345 101.707 608.63 103.816 607.016 97.949 602.883 98.665 599.447 97.543 597.496 92.037 593.928 91.156 587.896 98.17 584.334 97.643 580.87 96.815 578.202 93.112 574.073 94.71 571.156 91.709 568.074 89.18 564.004 90.856 560.713 89.153 557.371 87.588 553.471 88.879 551.038 82.087 546.598 86.666 543.529 82.989 539.91 82.731 536.229 83.013 532.591 83.076 528.687 85.894 525.788 78.244 521.696 83.897 518.528 77.308 514.636 81.822 511.15 78.803 507.517 78.701 503.833 82.538 500.248 76.73 496.671 81.382 493.16 84.003 489.537 82.017 485.964 82.089 482.054 76.849 478.929 83.8 475.123 81.137 471.548 81.499 468.528 86.79 464.521 83.222 460.813 82.548 457.487 84.615 454.11 86.142 450.972 88.904 446.772 85.686 443.703 88.641 439.306 85.034 436.558 89.298 432.453 87.43 430.027 92.613 425.533 89.428 422.402 91.619 419.621 94.934 415.898 94.88 412.187 94.952 409.882 99.469 405.907 98.735 402.138 98.731 399.498 101.945 394.764 99.405 392.982 104.77 390.075 107.049 386.234 107.002 381.532 105.013 378.054 106.023 376.813 112.005 371.455 108.886 369.876 113.912 363.926 109.887 363.342 116.739 357.344 112.939 354.232 114.809 354.723 123.202 348.466 119.336 347.25 124.427 345.148 127.865 340.98 127.853 334.525 124.297 332.35 127.651 330.844 131.943 330.636 138.035 327.8 140.15 319.772 134.988 319.708 141.061 314.311 139.835 311.381 141.982 308.99 144.815 310.557 152.511 304.812 151.127 305.281 157.228 299.326 155.776 296.056 157.512 293.858 160.451 293.656 165.485 286.139 162.814 285.073 166.915 284.392 171.317 280.485 172.534 275.873 173.165 274.162 176.537 276.259 183.24 272.567 184.75 268.68 186.161 266.524 189.053 268.508 195.211 265.391 197.263 259.782 197.502 258.129 200.754 253.998 202.25 252.126 205.37 253.987 210.937 248.989 211.978 251.969 218.055 242.428 216.489 243.767 221.481 242.115 224.692 240.152 227.733 239.21 231.308 233.844 232.678 237.549 238.481 239.436 243.253 231.291 243.555 231.303 247.488 227.921 250.033 234.084 256.223 226.662 257.315 224.546 260.424 227.719 265.239 223.283 267.636 222.978 271.309 227.127 276.107 222.609 278.64 216.782 281.025 221.859 285.796 223.036 289.637 217.552 292.319 219.466 296.257 219.977 299.928 218.823 303.384 214.511 306.586 216.295 310.368 214.457 313.884 216.979 317.609 215.097 321.168 215.956 324.786 219.06 328.326 213.66 332.092 218.313 335.479 215.699 339.256 220.82 342.409 216.953 346.399 216.118 350.149 222.038 352.94 222.584 356.434 224.47 359.683 224.258 363.399 220.038 367.853 221.734 371.214 224.293 374.416 221.506 378.603 226.22 381.409 220.271 386.18 228.232 388.387 225.21 392.62 230.815 395.256 228.273 399.407 233 402.202 226.506 407.102 230.026 410.117 233.318 413.164 234.987 416.514 230.442 421.08 233.401 424.174 236.915 427.138 235.374 431.133 236.947 434.485 233.11 439.013 234.799 442.351 234.117 446.227 238.925 448.807 234.647 453.579 239.41 456.118 236.337 460.664 240.013 463.436 237.577 467.88 242.231 470.326 240.931 474.482 240.921 478.278 246.315 480.404 243.338 485.131 244.857 488.453 246.092 491.862 249.559 494.526 255.256 496.419 252.031 501.325 250.046 505.831 256.056 507.578 254.387 511.982 262.119 513.092 263.115 516.566 259.026 521.846 264.972 523.566 267.224 526.6 260.564 532.689 264.148 535.282 262.523 539.487 268.615 541.443 265.38 546.095 264.128 550.176 272.841 551.425 268.295 556.457 272.998 558.831 276.757 561.453 276.901 565.135 273.47 569.923 278.545 572.099 276.122 576.626 276.963 580.133 275.699 584.354 278.525 587.203 282.343 589.672 279.24 594.614 287.079 595.545 284.652 600.292 287.835 602.898 292.001 605.063 288.344 610.435 291.328 613.068 290.367 617.41 293.481 619.956 291.574 624.817 294.614 627.382 294.822 631.316 303.646 630.874 299.509 637.059 302.283 639.666 305.195 642.162 310.315 643.341 307.765 648.974 311.816 650.71 314.126 653.466 313.194 658.327 318.658 658.989 318.578 663.365 317.215 668.758 319.058 671.931 326.745 670.641 327.03 674.938 328.063 678.725 331.97 680.146 335.625 681.699 338.751 683.652 341.083 686.301 341.194 691.106 342.305 695.069 347.478 694.911 348.115 699.446 353.863 698.431 352.766 705.086 358.389 703.996 359.816 707.879 359.636 713.97 363.609 714.78 367.959 714.952 371.119 716.702 374.403 718.239 375.167 723.715 381.298 720.667 384.536 722.155 384.596 729.306 387.693 731.262 391.175 732.484 394.414 734.161 400.871 728.942 401.797 735.505 404.06 739.426 407.945 739.574 412.709 737.296 415.112 741.135 420.628 736.206 423.932 737.385 425.537 744.123 430.385 740.333 433.479 742.399 436.858 743.499 439.215 748.944 443.481 746.436 447.249 745.841 449.97 750.552 454.346 746.478 457.444 749.538 460.508 753.344 464.936 747.447 468.393 748.337 471.604 751.739 474.724 757.056 479.069 748.212 482.59 748.496 486.096 749.135 489.517 752.256 492.964 756.891 496.713 750.04 500.249 753.409 503.87 756.336 507.411 750.317 510.971 749.807 514.735 754.889 518.129 750.181 521.617 748.723 525.249 749.637 529.097 752.689 532.38 749.21 535.74 747.136 539.577 749.23 543.738 753.168 546.425 746.684 549.933 746.112 554.305 750.28 558.45 752.571 560.814 746.066 564.28 745.165 568.33 746.654 571.59 744.836 575.349 744.91 579.8 747.186 581.353 739.901 585.032 739.657 588.075 737.524 592.262 738.552 594.697 734.901 598.033 733.656 603.274 736.763 604.041 729.684 610.802 735.576 611.267 728.313 615.135 727.99 617.186 724.268 623.367 727.846 627.061 726.855 625.322 717.204 633.272 722.859 636.143 720.518 639.605 719.021 637.42 709.935 641.202 709.043 648.441 712.299 647.786 705.797 649.064 701.81 650.406 698.018 653.44 696.108 658.594 696.302 658.97 691.646 664.775 692.231 662.852 685.607 668.825 686.136 670.788 683.073 676.508 683.065 673.941 676.402 676.835 674.111 678.268 670.72 678.557 666.563 686.149 667.419 683.334 661.232 686.145 658.801 691.789 658.046 688.709 652.022 696.502 652.347 698.355 649.192 694.472 643.008 700.668 642.163 698.443 637.012 700.305 633.935 702.244 630.881 701.116 626.451 709.131 626.025 708.139 621.668 710.97 618.913 712.448 615.594 713.327 612.045 709.26 606.709 709.849 603.135 711.452 599.917 719.645 598.863 713.952 593.222 714.041 589.508 723.514 588.635 720.33 583.914 721.917 580.622 718.541 575.943 722.031 573.181 721.339 569.274 728.41 567.416 726.266 563.124 731.166 560.666 732.225 557.222 727.012 552.143 727.163 548.436 733.108 546.354 729.207 541.414 735.002 539.567 736.879 536.391 738.588 533.149 738.042 529.084 735.895 524.444 737.137 521.037 738.67 517.735 740.808 514.647 738.586 510.013 745.566 508.628 740.821 503.132 751.293 502.915 749.094 498.316 745.484 493.27 750.2 491.03 750.491 487.309 750.156 483.396 751.152 479.921 758.147 478.309 752.892 472.899 761.208 471.609 754.404 465.822 757.518 462.959 762.996 460.727 756.968 455.319 763.158 453.232 761.297 449.004 763.59 445.851 760.853 441.451 768.969 439.679 765.977 435.241 762.474 430.731 766.545 427.942 771.028 425.206 769.465 421.158 773.473 418.283 767.252 413.312 768.979 409.975 776.728 407.806 774.301 403.636 775.984 400.262 775.996 396.571 777.493 393.154 780.187 389.949 779.11 386.061 772.164 381.146 774.14 377.82 774.746 374.249 777.275 371.005 778.426 367.524 776.288 363.478 780.722 360.543" style="fill: none; stroke: #000; stroke-linecap: round; stroke-linejoin: round; stroke-width: 35px;"/>
  </g>
  <polyline points="595.071 717.547 598.391 714.578 597.583 710.755 595.3 706.625 595.776 703.066 603.72 701.052 599.999 696.623 604.715 693.943 603.192 689.971 599.647 685.58 601.213 682.247 603.308 679.023 605.413 675.8 606.42 672.351 603.204 668.027 604.078 664.551 605.641 661.217 611.751 658.825 610.24 654.853 607.46 650.619 607.763 647.024 610.284 643.892 614.642 641.142 616.528 637.88 616.285 634.177 612.508 629.742 612.056 625.993 617.834 623.533 611.179 618.495 619.16 616.49 614.107 611.787 619.356 609.22 619.677 605.632 620.749 602.199 621.388 598.674 616.753 594.055 620.39 591.149 618.296 587.058 622.624 584.298 628.385 581.835 627.009 577.892 626.954 574.221 622.094 569.555 631.082 567.758 628.18 563.5 629.222 560.057 624.059 555.326 625.254 551.914 632.925 549.845 635.303 546.677 635.066 542.967 631.987 538.67 635.254 535.687 631.221 531.19 632.411 527.777 635.255 524.704 639.663 521.956 640.834 518.538 638.021 514.294 634.201 509.841 639.479 507.277 643.151 504.375 640.36 500.14 642.385 496.898 640.79 492.908 639.662 489.011 640.735 485.573 642.267 482.227 643.508 478.82 642.466 474.94 644.937 471.792 645.152 468.172 642.909 464.043 652.657 462.396 651.358 458.456 649.454 454.396 651.264 451.013 654.182 447.813 652.052 443.749 656.883 440.881 656.18 437.062 654.191 433.027 650.444 428.687 658.993 426.452 653.011 421.729 657.541 418.805 660.983 415.694 661.928 412.154 656.049 407.447 653.876 403.373 655.102 399.882 663.565 397.628 660.866 393.464 664.508 390.379 657.558 386.731 657.897 384.958 654.322 389.084 650.773 387.856 647.432 390.419 643.758 388.803 639.291 382.368 637.166 392.245 633.446 391.315 630.216 393.003 626.876 394.048 622.797 392.349 619.389 393.352 616.551 396.099 612.051 393.925 607.644 392.513 607.032 400.544 602.799 399.625 600.448 402.866 596.844 403.499 590.812 400.082 589.499 404.974 585.438 405.4 581.601 406.399 582.917 413.859 576.453 411.858 575 415.633 575.807 421.128 573.427 423.519 570.405 425.543 567.41 427.807 568.342 432.089 567.47 435.27 562.021 437.245 558.914 440.455 556.723 444.182 565.514 448.284 565.062 451.743 557.029 455.288 556.69 459.029 560.796 462.46 559.302 466.293 557.788 470.358 565.572 472.392 566.633 475.601 570.002 477.698 569.873 481.25 568.234 486.833 571.694 488.699 574.021 492.832 578.339 493.074 582.241 490.906 585.726 490.194 589.813 490.967 593.116 489.176 594.098 484.508 600.75 484.973 598.072 479.07 599.504 475.883 602.971 473.347 599.867 468.657 600.72 465.298 604.592 462.534 606.706 459.243 604.584 455.265 610.75 452.366 607.772 448.376 605.324 444.591 606.217 441.055 610.888 437.524 611.67 433.819 611.879 430.095 611.408 426.395 603.724 423.333 604.679 419.673 603.424 416.252 601.308 413.02 608.785 407.986 604.044 405.243 600.121 402.542 604.597 397.548 601.237 394.781 596.957 392.547 603.175 386.093 600.067 383.341 599.425 379.406 597.076 376.342 591.563 375.485 592.917 369.873 590.273 367.037 581.482 370.414 578.965 368.317 581.075 359.979 575.133 362.25 570.965 362.812 571.137 354.181 566.115 357.015 562.721 356.133 559.185 356.113 556.104 353.44 552.454 354.505 548.984 354.699 545.442 351.153 541.9 352.478 538.63 354.933 534.886 353.831 532.445 358.718 527.031 352.449 524.372 356.027 521.407 358.236 519.488 362.394 514.258 359.924 509.314 358.808 507.437 362.776 506.133 367.136 503.401 369.393 498.257 369.058 497.535 373.551 498.749 379.413 496.412 381.83 489.399 380.907 487.561 384.08 488.862 389.051 489.886 393.468 479.743 392.525 484.966 398.637 482.936 401.573 477.222 403.607 480.322 408.101 474.855 410.763 482.261 415.378 475.296 418.329 477.873 422.047 481.392 425.454 475.82 429.389 475.155 433.205 478.162 436.442 482.543 439.247 478.316 443.903 479.5 447.417 480.349 451.044 486.126 452.77 489.875 454.829 483.107 462.408 489.716 462.691 492.891 464.515 496.402 465.206 496.067 472.527 500.369 473.005 504.437 472.075 508.995 471.992 511.061 468.044 512.159 464.113 513.856 461.013 515.868 458.097 516.409 454.458 522.021 452.811 520.778 448.496 523.341 445.461 521.487 441.239 523.371 437.988 528.853 435.333 527.698 431.377 525.962 427.428 527.556 423.868 530.549 420.203 528.993 416.337 527.039 412.668 523.284 409.454 521.992 406.123 521.609 402.617 524.602 397.904 524.512 393.88 521.27 391.17 520.141 387.536 517.675 384.64 517.529 380.177 509.556 381.601 513.416 373.54 509.116 372.318 506.588 369.495 499.402 372.301 500.162 365.486 493.725 368.446 495.506 358.744 487.791 365.022 484.693 363.558 484.25 355.652 480.086 356.125 476.062 356.743 472.287 357.071 469.955 350.84 465.5 354.971 461.998 354.32 458.557 351.956 454.89 353.769 451.055 348.256 448.004 356.526 444.078 353.576 440.963 356.394 436.417 352.81 432.721 353.535 431.703 360.556 426.188 357.233 425.048 362.235 418.832 359.817 421.536 368.433 413.308 365.142 409.68 367.103 408.557 371.067 408.749 375.619 407.311 378.943 403.543 381.112 401.767 384.373 405.064 389.541 405.743 393.431 396.026 394.224 404.124 400.093 400.469 402.827 400.779 406.477 393.977 408.989 392.623 412.531 399.514 416.931 391.925 419.892 398.412 423.913 400.758 427.512 391.331 430.942 394.319 434.579 397.24 438.091 393.421 441.885 399.618 445.041 396.59 448.889 395.275 452.673 400.615 455.55 402.392 458.81 399.037 463.023 397.657 467.009 397.008 470.942 401.286 473.549 405.98 475.771 399.928 481.767 400.846 485.546 405.293 487.615 411.823 487.692 411.584 492.019 414.768 492.938 418.436 492.602 420.212 500.797 424.773 499.849 425.927 492.387 433.868 496.877 435.529 492.511 434.574 487.636 433.565 483.511 439.618 481.392 436.214 476.944 438.691 473.657 438.723 469.991 435.886 466.193 436.004 462.635 439.873 459.075 434.851 455.513 439.602 451.766 434.462 448.386 434.334 444.807 439.3 440.739 438.484 437.117 434.75 434.495 430.89 432.431 434.874 426.553 435.182 421.897 432.932 418.698 429.182 416.806 426.673 414.002 423.6 411.807 421.372 408.683 418.703 406.008 411.64 409.669 411.746 403.02 406.32 405.059 403.981 401.986 400.063 401.868 399.694 394.196 394.743 396.374 390.915 396.28 386.476 398.103 383.028 397.442 379.9 395.785 378.912 386.155 374.291 389.37 371.386 385.775 367.517 386.385 363.052 390.98 360.61 383.122 356.006 390.951 353.277 381.687 349.179 388.779 345.672 389.207 342.125 385.938 340.477 386.44 340.351 389.539 335.087 394.138 337.108 397.492 345.228 399.797 344.366 403.644 340.945 407.924 342.902 411.288 339.854 415.506 345.651 418.215 343.107 422.349 345.106 425.707 344.677 429.482 345.051 433.12 343.307 437.12 344.444 440.626 347.403 443.821 346.34 447.705 354.022 450.099 355.049 453.546 348.118 458.549 355.392 460.699 355.042 464.429 349.348 469.265 349.205 472.954 349.768 476.495 350.688 479.962 359.752 481.742 352.992 486.798 359.866 489.032 358.931 492.883 363.548 495.586 358.361 500.318 355.555 504.557 362.567 506.762 359.226 511.111 367.433 513.069 361.308 517.996 365.752 520.735 366.941 524.146 363.768 528.457 367.602 531.316 371.817 534.096 362.905 539.594 363.631 543.097 364.287 546.616 367.013 549.708 368.36 553.089 372.966 555.793 376.27 558.765 370.423 563.63 370.224 567.326 371.522 570.712 376.95 573.245 380.24 576.223 372.462 581.493 372.23 585.198 380.87 587.065 374.627 592.014 382.57 594.027 383.492 597.496 385.342 600.773 383.341 604.845 377.604 609.69 381.221 612.6 384.18 615.649 386.869 618.751 387.1 622.362 382.72 626.929 387.714 629.555 382.443 634.306 384.768 637.485 386.47 640.794 388.203 644.095 393.22 646.717 390.745 650.89 387.443 655.236 390.904 658.18 397.699 660.435 397.898 664.051 398.486 667.591 391.149 672.767 396.319 675.358 396.691 678.941 393.607 683.243 398.119 685.969 396.459 689.976 396.095 693.715 397.482 697.092 405.219 699.15 405.472 702.761 401.664 707.215 402.001 710.81 407.769 713.287 408.84 716.737" style="fill: none; stroke: #000; stroke-linecap: round; stroke-linejoin: round; stroke-width: 30px;"/>
  <g>
    <g>
      <polygon points="544.424 917.709 540.81 924.275 537.195 919.491 533.578 918.78 529.963 920.698 526.347 923.672 522.731 917.279 519.114 919.219 515.498 917.3 511.881 916.697 508.265 920.802 504.648 915.556 501.036 915.607 497.42 921.931 493.805 921.638 490.187 922.467 486.572 914.93 482.954 916.273 479.335 916.925 475.716 916.829 472.097 916.041 468.479 921.059 464.86 918.241 461.241 920.888 457.616 922.534 453.99 919.531 450.706 917.213 447.571 916.204 444.733 914.546 439.182 918.837 434.662 918.846 432.56 914.964 428.884 913.2 427.674 909.082 428.631 904.026 425.084 902.015 425.252 898.151 419.143 896.046 418.213 892.121 420.71 888.095 427.004 883.679 426.471 879.263 420.347 875.474 425.433 872.742 426.541 869.657 426.665 866.104 423.196 859.907 430.929 860.873 431.029 856.3 436.558 857.398 436.104 850.799 440.794 851.857 443.182 848.375 447.882 852.523 450.001 843.82 453.99 844.69 457.605 852.665 461.22 845.927 464.836 844.482 468.451 845.753 472.068 849.134 475.684 846.357 479.3 846.95 482.916 845.519 486.534 848.558 490.15 846.485 493.766 848.655 497.378 849.324 500.995 842.922 504.609 844.802 508.227 843.999 511.843 845.036 515.46 849.5 519.079 849.42 522.698 851.244 526.318 843.466 529.936 849.086 533.554 845.905 537.174 843.663 540.799 849.465 544.424 848.735 548.051 847.073 552.177 845.289 554.211 851.298 558.771 849.477 561.694 851.781 562.745 856.289 566.779 856.909 568.631 859.961 568.745 863.985 569.905 866.995 578.719 867.263 572.716 872.802 574.687 875.851 576.184 879.263 579.705 883.679 575.306 888.095 574.175 891.45 578.184 895.798 570.305 897.152 576.879 903.729 571.868 905.341 569.686 908.242 568.587 912.259 565.563 914.602 559.646 912.327 557.558 915.371 553.477 913.965 550.767 915.869 547.398 914.425 544.424 917.709" style="fill: #fff;"/>
      <polygon points="544.424 917.709 540.81 924.275 537.195 919.491 533.578 918.78 529.963 920.698 526.347 923.672 522.731 917.279 519.114 919.219 515.498 917.3 511.881 916.697 508.265 920.802 504.648 915.556 501.036 915.607 497.42 921.931 493.805 921.638 490.187 922.467 486.572 914.93 482.954 916.273 479.335 916.925 475.716 916.829 472.097 916.041 468.479 921.059 464.86 918.241 461.241 920.888 457.616 922.534 453.99 919.531 450.706 917.213 447.571 916.204 444.733 914.546 439.182 918.837 434.662 918.846 432.56 914.964 428.884 913.2 427.674 909.082 428.631 904.026 425.084 902.015 425.252 898.151 419.143 896.046 418.213 892.121 420.71 888.095 427.004 883.679 426.471 879.263 420.347 875.474 425.433 872.742 426.541 869.657 426.665 866.104 423.196 859.907 430.929 860.873 431.029 856.3 436.558 857.398 436.104 850.799 440.794 851.857 443.182 848.375 447.882 852.523 450.001 843.82 453.99 844.69 457.605 852.665 461.22 845.927 464.836 844.482 468.451 845.753 472.068 849.134 475.684 846.357 479.3 846.95 482.916 845.519 486.534 848.558 490.15 846.485 493.766 848.655 497.378 849.324 500.995 842.922 504.609 844.802 508.227 843.999 511.843 845.036 515.46 849.5 519.079 849.42 522.698 851.244 526.318 843.466 529.936 849.086 533.554 845.905 537.174 843.663 540.799 849.465 544.424 848.735 548.051 847.073 552.177 845.289 554.211 851.298 558.771 849.477 561.694 851.781 562.745 856.289 566.779 856.909 568.631 859.961 568.745 863.985 569.905 866.995 578.719 867.263 572.716 872.802 574.687 875.851 576.184 879.263 579.705 883.679 575.306 888.095 574.175 891.45 578.184 895.798 570.305 897.152 576.879 903.729 571.868 905.341 569.686 908.242 568.587 912.259 565.563 914.602 559.646 912.327 557.558 915.371 553.477 913.965 550.767 915.869 547.398 914.425 544.424 917.709" style="fill: none; stroke: #000; stroke-linecap: round; stroke-linejoin: round; stroke-width: 35px;"/>
    </g>
    <g>
      <polygon points="619.417 859.328 615.831 859.457 612.245 857.346 608.658 864.81 605.07 865.389 601.482 864.962 597.895 860.388 594.309 865.117 590.722 860.861 587.135 863.558 583.547 865.581 579.959 863.806 576.372 865.717 572.786 864.802 569.204 864.549 565.622 861.264 562.04 857.969 558.457 866.316 554.873 862.573 551.287 862.312 547.698 857.533 544.111 859.826 540.526 862.904 536.942 865.133 533.358 861.679 529.774 859.628 526.188 857.179 522.6 866.554 519.011 862.376 515.425 857.571 511.839 864.772 508.254 860.232 504.667 860.845 501.078 863.594 497.489 858.874 493.902 859.324 490.316 859.634 486.727 865.902 483.137 862.135 479.549 860.173 475.961 857.512 472.372 859.829 468.782 859.661 465.193 858.617 461.604 857.527 458.014 859.457 454.425 862.186 450.834 865.431 447.244 863.506 443.654 861.043 440.064 857.24 436.472 862.513 432.886 865.33 429.295 862.342 425.709 861.109 422.118 866.346 418.529 858.294 414.937 866.853 411.347 859.418 407.756 860.307 404.162 866.852 400.569 857.081 396.976 859.126 393.383 862.39 389.79 858.082 386.197 865.858 382.597 859.775 378.998 859.896 375.122 864.944 372.477 859.075 367.017 864.753 367.217 854.986 360.025 860.704 358.145 856.662 354.911 854.602 354.844 849.778 355.254 845.432 350.901 844.048 348.824 841.076 347.638 837.676 345.188 834.325 350.591 830.518 348.566 826.102 352.426 821.686 351.887 818.625 343.721 813.637 349.959 811.523 350.342 807.884 348.336 802.413 354.993 802.542 353.721 796.407 362.221 800.642 360.862 792.825 363.845 790.225 367.631 789.202 372.401 792.796 375.481 790.479 378.998 791.135 382.584 793.362 386.17 788.651 389.757 790.88 393.345 786.775 396.933 789.053 400.519 793.322 404.106 791.918 407.692 790.425 411.279 792.372 414.867 786.356 418.455 790.223 422.042 794.658 425.629 786 429.211 795.027 432.793 792.601 436.374 792.896 439.957 785.805 443.541 793.357 447.127 787.752 450.716 793.53 454.303 793.566 457.888 789.594 461.472 789.105 465.056 794.112 468.64 786.08 472.226 789.838 475.815 788.246 479.403 791.525 482.99 787.849 486.575 791.256 490.161 793.654 493.747 789.1 497.337 789.527 500.926 793.325 504.512 794.408 508.099 786.603 511.687 789.311 515.278 790.544 518.866 793.565 522.454 794.021 526.043 789.479 529.633 795.045 533.221 790.894 536.81 795.107 540.401 795.24 543.99 792.539 547.581 789.652 551.17 791.6 554.761 788.105 558.351 790.05 561.942 787.088 565.529 794.067 569.119 790.957 572.706 788.855 576.296 793.372 579.885 790.309 583.477 786.998 587.067 791.08 590.659 788.62 594.252 787.256 597.846 789.782 601.439 793.386 605.031 792.722 608.624 787.299 612.218 786.506 615.817 786.18 619.417 787.642 622.412 795.16 626.083 792.489 629.292 793.466 634.519 790.332 633.574 799.146 636.786 799.902 641.772 799.332 642.742 803.087 648.196 803.601 647.036 808.386 644.833 812.792 650.648 814.557 649 818.349 651.27 821.686 651.838 826.102 648.829 830.518 647.725 833.712 648.131 837.074 644.631 839.341 646.589 843.603 649.56 849.464 640.544 847.363 641.165 852.267 639.322 855.48 637.457 859.226 635.225 863.337 630.588 862.443 626.321 860.761 622.552 858.302 619.417 859.328" style="fill: #fff;"/>
      <polygon points="619.417 859.328 615.831 859.457 612.245 857.346 608.658 864.81 605.07 865.389 601.482 864.962 597.895 860.388 594.309 865.117 590.722 860.861 587.135 863.558 583.547 865.581 579.959 863.806 576.372 865.717 572.786 864.802 569.204 864.549 565.622 861.264 562.04 857.969 558.457 866.316 554.873 862.573 551.287 862.312 547.698 857.533 544.111 859.826 540.526 862.904 536.942 865.133 533.358 861.679 529.774 859.628 526.188 857.179 522.6 866.554 519.011 862.376 515.425 857.571 511.839 864.772 508.254 860.232 504.667 860.845 501.078 863.594 497.489 858.874 493.902 859.324 490.316 859.634 486.727 865.902 483.137 862.135 479.549 860.173 475.961 857.512 472.372 859.829 468.782 859.661 465.193 858.617 461.604 857.527 458.014 859.457 454.425 862.186 450.834 865.431 447.244 863.506 443.654 861.043 440.064 857.24 436.472 862.513 432.886 865.33 429.295 862.342 425.709 861.109 422.118 866.346 418.529 858.294 414.937 866.853 411.347 859.418 407.756 860.307 404.162 866.852 400.569 857.081 396.976 859.126 393.383 862.39 389.79 858.082 386.197 865.858 382.597 859.775 378.998 859.896 375.122 864.944 372.477 859.075 367.017 864.753 367.217 854.986 360.025 860.704 358.145 856.662 354.911 854.602 354.844 849.778 355.254 845.432 350.901 844.048 348.824 841.076 347.638 837.676 345.188 834.325 350.591 830.518 348.566 826.102 352.426 821.686 351.887 818.625 343.721 813.637 349.959 811.523 350.342 807.884 348.336 802.413 354.993 802.542 353.721 796.407 362.221 800.642 360.862 792.825 363.845 790.225 367.631 789.202 372.401 792.796 375.481 790.479 378.998 791.135 382.584 793.362 386.17 788.651 389.757 790.88 393.345 786.775 396.933 789.053 400.519 793.322 404.106 791.918 407.692 790.425 411.279 792.372 414.867 786.356 418.455 790.223 422.042 794.658 425.629 786 429.211 795.027 432.793 792.601 436.374 792.896 439.957 785.805 443.541 793.357 447.127 787.752 450.716 793.53 454.303 793.566 457.888 789.594 461.472 789.105 465.056 794.112 468.64 786.08 472.226 789.838 475.815 788.246 479.403 791.525 482.99 787.849 486.575 791.256 490.161 793.654 493.747 789.1 497.337 789.527 500.926 793.325 504.512 794.408 508.099 786.603 511.687 789.311 515.278 790.544 518.866 793.565 522.454 794.021 526.043 789.479 529.633 795.045 533.221 790.894 536.81 795.107 540.401 795.24 543.99 792.539 547.581 789.652 551.17 791.6 554.761 788.105 558.351 790.05 561.942 787.088 565.529 794.067 569.119 790.957 572.706 788.855 576.296 793.372 579.885 790.309 583.477 786.998 587.067 791.08 590.659 788.62 594.252 787.256 597.846 789.782 601.439 793.386 605.031 792.722 608.624 787.299 612.218 786.506 615.817 786.18 619.417 787.642 622.412 795.16 626.083 792.489 629.292 793.466 634.519 790.332 633.574 799.146 636.786 799.902 641.772 799.332 642.742 803.087 648.196 803.601 647.036 808.386 644.833 812.792 650.648 814.557 649 818.349 651.27 821.686 651.838 826.102 648.829 830.518 647.725 833.712 648.131 837.074 644.631 839.341 646.589 843.603 649.56 849.464 640.544 847.363 641.165 852.267 639.322 855.48 637.457 859.226 635.225 863.337 630.588 862.443 626.321 860.761 622.552 858.302 619.417 859.328" style="fill: none; stroke: #000; stroke-linecap: round; stroke-linejoin: round; stroke-width: 35px;"/>
    </g>
    <g>
      <polygon points="646.949 793.929 643.348 800.1 639.747 794.741 636.144 794.491 632.541 794.602 628.939 791.901 625.337 791.617 621.736 791.941 618.135 798.937 614.534 796.375 610.932 797.084 607.33 797.41 603.727 792.594 600.124 794.842 596.522 793.667 592.92 799.502 589.319 795.059 585.717 792.914 582.115 790.611 578.511 799.427 574.908 793.669 571.306 793.554 567.704 794.588 564.102 798.213 560.499 791.721 556.896 795.079 553.293 799.029 549.69 792.768 546.088 790.971 542.49 798.175 538.893 794.875 535.296 797.35 531.698 793.841 528.099 790.961 524.497 790.568 520.893 792.009 517.29 795.652 513.69 796.203 510.09 794.094 506.491 794.571 502.891 792.177 499.29 799.701 495.686 794.891 492.082 797.709 488.48 792.851 484.879 793.941 481.278 798.426 477.676 797.681 474.071 794.928 470.467 796.062 466.865 791.267 463.263 796.29 459.659 798.918 456.053 794.195 452.449 799.452 448.846 792.63 445.242 790.59 441.636 791.25 438.032 797.976 434.428 796.176 430.822 799.892 427.217 800.211 423.611 794.194 420.006 797.783 416.4 792.053 412.794 799.983 409.187 792.977 405.586 800.169 401.98 791.227 398.378 795.881 394.771 796.404 391.167 794.417 387.56 791.954 383.954 793.807 380.347 795.826 376.738 794.087 373.129 798.771 369.521 792.18 365.913 799.103 362.305 793.483 358.695 799.281 355.08 790.677 351.465 790.831 348.366 791.472 345.457 790.317 339.621 797.862 336.555 794.972 333.052 793.314 330.762 789.975 332.55 782.931 329.994 781.134 324.735 780.811 325.852 776.348 318.981 775.383 317.959 771.663 320.288 767.53 323.224 764.016 316.938 759.6 319.408 755.184 320.617 751.707 317.84 747.512 325.744 746.183 321.121 740.569 323.685 737.727 327.599 736.152 332.323 736.041 332.339 731.198 332.704 725.331 339.604 730.546 340.52 723.905 344.17 723.223 347.979 724.25 351.465 719.736 355.066 726.531 358.668 721.887 362.27 721.847 365.874 721.995 369.476 721.277 373.078 722.314 376.679 719.407 380.28 728.666 383.881 723.647 387.482 725.96 391.085 724.708 394.688 724.441 398.291 726.767 401.893 719.275 405.494 727.521 409.096 725.738 412.698 722.115 416.3 727.428 419.903 724.878 423.507 724.252 427.109 722.476 430.711 719.295 434.313 725.506 437.915 727.679 441.519 726.197 445.122 725.086 448.724 721.648 452.327 727.291 455.924 728.705 459.521 723.796 463.118 721.739 466.716 727.056 470.316 722.188 473.918 722.663 477.522 722.349 481.124 723.989 484.725 719.415 488.324 725.832 491.924 722.848 495.523 724.421 499.125 722.6 502.728 724.401 506.333 721.22 509.935 725.872 513.535 723.275 517.136 725.045 520.739 724.462 524.343 719.214 527.948 724.088 531.55 719.395 535.152 722.024 538.755 720.828 542.362 728.472 545.965 721.379 549.568 725.698 553.173 719.407 556.778 719.129 560.382 724.68 563.987 724.419 567.593 727.138 571.197 721.258 574.804 727.541 578.409 727.405 582.015 719.906 585.62 721.459 589.227 727.063 592.829 724.071 596.435 726.245 600.037 728.267 603.643 720.212 607.247 724.158 610.855 719.695 614.46 725.242 618.068 723.711 621.676 726.521 625.285 724.276 628.894 722.555 632.502 720.006 636.11 719.997 639.719 727.741 643.334 728.007 646.949 721.489 650.353 724.996 654.263 723.139 657.445 725.193 662.142 723.644 661.453 732.096 664.125 733.644 666.648 735.487 670.516 736.393 676.043 736.902 673.744 742.283 680.227 743.54 677.252 748.266 678.802 751.595 681.136 755.184 680.889 759.6 678.496 764.016 681.462 767.902 680.775 771.735 672.343 772.903 677.333 778.651 676.722 782.729 674.752 786.193 670.089 787.158 664.683 786.258 664.385 791.765 661.107 793.414 657.649 794.594 654.065 795.187 650.562 796.079 646.949 793.929" style="fill: #fff;"/>
      <polygon points="646.949 793.929 643.348 800.1 639.747 794.741 636.144 794.491 632.541 794.602 628.939 791.901 625.337 791.617 621.736 791.941 618.135 798.937 614.534 796.375 610.932 797.084 607.33 797.41 603.727 792.594 600.124 794.842 596.522 793.667 592.92 799.502 589.319 795.059 585.717 792.914 582.115 790.611 578.511 799.427 574.908 793.669 571.306 793.554 567.704 794.588 564.102 798.213 560.499 791.721 556.896 795.079 553.293 799.029 549.69 792.768 546.088 790.971 542.49 798.175 538.893 794.875 535.296 797.35 531.698 793.841 528.099 790.961 524.497 790.568 520.893 792.009 517.29 795.652 513.69 796.203 510.09 794.094 506.491 794.571 502.891 792.177 499.29 799.701 495.686 794.891 492.082 797.709 488.48 792.851 484.879 793.941 481.278 798.426 477.676 797.681 474.071 794.928 470.467 796.062 466.865 791.267 463.263 796.29 459.659 798.918 456.053 794.195 452.449 799.452 448.846 792.63 445.242 790.59 441.636 791.25 438.032 797.976 434.428 796.176 430.822 799.892 427.217 800.211 423.611 794.194 420.006 797.783 416.4 792.053 412.794 799.983 409.187 792.977 405.586 800.169 401.98 791.227 398.378 795.881 394.771 796.404 391.167 794.417 387.56 791.954 383.954 793.807 380.347 795.826 376.738 794.087 373.129 798.771 369.521 792.18 365.913 799.103 362.305 793.483 358.695 799.281 355.08 790.677 351.465 790.831 348.366 791.472 345.457 790.317 339.621 797.862 336.555 794.972 333.052 793.314 330.762 789.975 332.55 782.931 329.994 781.134 324.735 780.811 325.852 776.348 318.981 775.383 317.959 771.663 320.288 767.53 323.224 764.016 316.938 759.6 319.408 755.184 320.617 751.707 317.84 747.512 325.744 746.183 321.121 740.569 323.685 737.727 327.599 736.152 332.323 736.041 332.339 731.198 332.704 725.331 339.604 730.546 340.52 723.905 344.17 723.223 347.979 724.25 351.465 719.736 355.066 726.531 358.668 721.887 362.27 721.847 365.874 721.995 369.476 721.277 373.078 722.314 376.679 719.407 380.28 728.666 383.881 723.647 387.482 725.96 391.085 724.708 394.688 724.441 398.291 726.767 401.893 719.275 405.494 727.521 409.096 725.738 412.698 722.115 416.3 727.428 419.903 724.878 423.507 724.252 427.109 722.476 430.711 719.295 434.313 725.506 437.915 727.679 441.519 726.197 445.122 725.086 448.724 721.648 452.327 727.291 455.924 728.705 459.521 723.796 463.118 721.739 466.716 727.056 470.316 722.188 473.918 722.663 477.522 722.349 481.124 723.989 484.725 719.415 488.324 725.832 491.924 722.848 495.523 724.421 499.125 722.6 502.728 724.401 506.333 721.22 509.935 725.872 513.535 723.275 517.136 725.045 520.739 724.462 524.343 719.214 527.948 724.088 531.55 719.395 535.152 722.024 538.755 720.828 542.362 728.472 545.965 721.379 549.568 725.698 553.173 719.407 556.778 719.129 560.382 724.68 563.987 724.419 567.593 727.138 571.197 721.258 574.804 727.541 578.409 727.405 582.015 719.906 585.62 721.459 589.227 727.063 592.829 724.071 596.435 726.245 600.037 728.267 603.643 720.212 607.247 724.158 610.855 719.695 614.46 725.242 618.068 723.711 621.676 726.521 625.285 724.276 628.894 722.555 632.502 720.006 636.11 719.997 639.719 727.741 643.334 728.007 646.949 721.489 650.353 724.996 654.263 723.139 657.445 725.193 662.142 723.644 661.453 732.096 664.125 733.644 666.648 735.487 670.516 736.393 676.043 736.902 673.744 742.283 680.227 743.54 677.252 748.266 678.802 751.595 681.136 755.184 680.889 759.6 678.496 764.016 681.462 767.902 680.775 771.735 672.343 772.903 677.333 778.651 676.722 782.729 674.752 786.193 670.089 787.158 664.683 786.258 664.385 791.765 661.107 793.414 657.649 794.594 654.065 795.187 650.562 796.079 646.949 793.929" style="fill: none; stroke: #000; stroke-linecap: round; stroke-linejoin: round; stroke-width: 35px;"/>
    </g>
  </g>
</svg>