<?xml version="1.0" encoding="UTF-8"?>
<svg id="Sticker" xmlns="http://www.w3.org/2000/svg" width="1000" height="1000" viewBox="0 0 1000 1000">
  <polygon points="188.293 565.081 191.895 568.668 192.102 572.251 194.7 575.748 189.561 579.543 191.334 583.064 187.111 586.962 190.914 590.317 191.28 593.908 193.182 597.337 193.259 600.942 197.327 604.046 189.775 608.683 190.516 612.258 190.147 616.009 192.309 619.34 194.442 622.639 190.999 627.014 196.447 629.61 193.601 633.947 196.382 637.045 198.41 640.282 197.544 644.246 202.885 646.556 203.246 650.181 204.664 653.505 203.707 657.561 203.06 661.568 208.741 663.483 206.587 668.029 211.164 670.213 212.387 673.573 206.61 679.671 208.086 683.027 217.433 683.09 216.402 687.416 214.184 692.339 213.659 696.587 221.139 697.097 224.296 699.55 224.28 703.553 223.608 707.944 229.215 709.058 225.078 715.393 232.622 715.329 235.633 717.709 234.95 722.246 235.944 725.84 237.634 729.026 235.309 734.798 242.397 734.508 246.969 735.749 246.656 740.286 247.359 744.184 246.902 748.973 248.521 752.307 256.535 750.775 253.186 757.92 261.717 755.755 257.938 763.449 265.483 761.867 266.779 765.452 266.791 770.207 267.503 774.431 273.656 773.708 277.276 775.218 275.343 782.039 278.533 783.996 279.413 788.26 283.263 789.53 286.584 791.301 289.23 793.77 293.711 794.202 295.191 797.951 295.948 802.605 302.082 800.968 300.875 808.088 304.382 809.557 309.37 809.094 313.081 810.172 317.418 810.355 320.035 812.805 320.47 818.347 325.154 817.929 325.745 823.442 330.833 822.311 334.903 822.603 338.055 824.276 336.167 834.197 344.213 827.834 344.393 834.618 350.094 831.874 353.114 833.771 354.285 839.15 355.533 844.593 361.721 840.439 362.31 847.397 366.164 847.798 372.616 842.479 372.457 851.556 376.473 851.459 380.486 851.267 383.243 854.072 388.541 850.477 389.18 858.878 394.097 856.053 398.262 855.063 399.232 863.36 404.67 858.474 407.918 860.114 410.234 864.918 415.275 860.537 417.245 866.885 422.616 860.726 424.191 869.125 428.638 866.155 432.549 865.165 436.041 865.943 439.555 866.621 441.942 873.31 445.507 874.11 449.933 869.659 453.245 871.773 456.777 872.583 460.196 874.333 464.1 872.15 467.167 877.446 471.035 875.3 475.135 869.558 478.077 878.57 482.009 873.872 485.461 877.181 489.237 873.165 492.698 878.74 496.374 876.606 500 873.1 503.587 873.2 507.284 878.007 510.95 878.631 514.276 871.448 517.769 870.02 521.623 874.236 525.482 877.225 528.457 869.797 532.605 875.256 535.682 870.275 539.509 872.025 542.741 869.124 547.305 875.416 549.589 866.728 554.61 874.779 557.22 868.837 560.821 868.505 563.699 864.71 568.001 867.616 572.2 869.699 575.198 866.66 578.063 863.317 583.26 868.723 586.613 867.125 589.667 864.576 592.505 861.456 594.359 855.468 600.117 861.419 602.025 855.864 606.86 858.664 610.515 858.055 614.177 857.415 616.995 854.644 620.948 854.679 624.18 852.951 627.669 851.82 631.405 851.204 631.616 843.098 634.442 840.731 637.514 838.897 643.452 842.611 643.584 835.129 647.495 834.862 653.588 838.391 656.193 835.61 660.098 835.066 663.511 833.648 661.985 824.318 665.971 823.941 671.187 825.354 675.824 825.742 674.716 817.719 681.784 821.498 680.231 813.149 687.15 816.459 687.304 810.654 693.385 812.594 694.001 807.517 696.164 804.458 696.733 799.536 701.733 799.887 704.621 797.717 706.928 794.89 712.353 795.465 709.9 787.555 718.681 791.522 720.052 787.698 722.853 785.346 722.527 779.962 724.22 776.611 728.245 775.443 732.121 774.072 734.572 771.388 731.595 764.035 738.729 765.387 739.042 760.954 740.428 757.456 743.031 754.943 743.306 750.637 748.112 749.78 752.306 748.381 750.585 742.707 757.443 743.111 760.182 740.567 756.599 733.832 759.367 731.363 760.795 728.029 765.543 726.734 764.432 721.867 771.577 721.868 774.137 719.123 773.257 714.469 777.725 712.745 779.73 709.662 780.873 706.136 777.524 700.43 777.721 696.548 780.688 693.978 778.835 689.218 784.498 687.797 781.986 682.84 790.425 682.418 791.238 678.823 790.417 674.625 789.94 670.609 792.288 667.629 796.105 665.115 796.078 661.283 795.137 657.196 797.342 654.102 796.868 650.21 797.179 646.571 804.7 644.829 796.689 639.062 803.074 636.915 803.508 633.299 800.547 628.974 804.962 626.209 800.385 621.67 802.889 618.499 804.069 615.065 804.736 611.54 805.392 608.011 812.204 605.262 805.985 600.856 809.009 597.566 811.716 594.185 813.048 590.637 812.033 586.904 807.602 583.004 808.053 579.435 814.51 576.065 813.004 572.368 807.959 568.667 812.17 565.081 808.695 561.503 805.431 557.995 812.213 554.227 805.929 550.876 814.24 546.875 807.124 543.676 804.33 540.296 811.996 536.109 810.724 532.587 805.545 529.473 807.176 525.704 808.564 521.928 810.91 518.001 802.68 515.445 804.44 511.596 802.755 508.227 803.367 504.513 804.76 500.651 806.595 496.681 798.813 494.416 801.922 490.204 800.672 486.79 796.601 483.958 801.955 479.19 795.484 476.908 796.505 473.024 802.69 467.916 794.518 466.139 793.411 462.727 790.947 459.662 797.666 454.238 792.82 451.786 791.022 448.555 788.787 445.458 787.624 442.071 785.204 439.054 790.132 433.859 787.189 430.99 790.133 426.309 786.367 423.713 788.584 419.207 782.034 417.564 782.37 413.664 780.973 410.342 775.381 408.494 777.745 403.861 775.871 400.723 778.925 395.769 770.651 395.025 770.855 391.126 768.381 388.249 767.815 384.633 766.041 381.493 767.56 377.011 768.703 372.648 762.832 371.214 766.489 365.752 758.421 365.33 761.922 359.879 761.939 355.927 760.821 352.472 755.959 350.744 758.945 345.378 757.773 341.929 753.839 339.81 754.712 335.367 745.115 336.098 745.367 331.972 746.196 327.524 746.673 323.222 742.987 321.081 744.332 316.283 738.19 315.496 734.086 313.656 735.288 308.895 734.738 305.079 735.872 300.277 733.892 297.239 731.145 294.655 729.97 291.147 726.823 288.822 721.889 287.619 724.753 281.603 716.688 282.419 718.944 276.72 718.81 272.501 710.987 273.326 708.669 270.574 713.267 263.125 705.152 264.316 702.751 261.63 702.934 257.115 705.025 251.175 702.222 248.728 696.821 248.227 694.371 245.572 695.81 239.942 689.004 240.645 689.182 235.937 683.863 235.585 681.831 232.629 681.261 228.454 675.553 228.567 673.455 225.68 676.385 218.4 669.042 220.079 668.586 215.693 669.716 209.788 663.119 210.994 664.507 204.734 659.478 204.563 658.792 200.191 651.301 202.606 655.638 193.061 646.854 196.988 646.464 192.198 645.798 187.612 643.643 184.594 641.295 181.771 636.118 182.222 630.631 183.168 633.509 174.07 630.96 171.42 626.284 171.471 624.658 167.637 621.825 165.341 614.037 169.88 612.213 166.321 612.18 160.063 606.116 162.619 602.776 161.234 604.168 152.333 596.977 157.122 593.779 155.555 593.876 148.199 589.501 148.608 588.337 143.088 584.217 143.091 579.05 145.378 577.674 139.881 573.114 141.149 570.439 138.258 566.549 138.213 563.678 135.662 560.652 133.393 557.691 130.808 552.485 134.997 549.991 130.932 545.798 132.467 542.172 132.228 538.663 131.612 534.796 132.689 532.155 127.907 527.766 132.155 524.338 131.479 521.142 128.993 517.672 128.214 514.025 129.256 510.821 124.482 507.284 122.753 503.528 127.853 500 126.47 496.336 121.74 492.995 129.159 489.301 126.383 485.45 123.31 481.788 123.32 478.007 122.546 475.428 129.994 471.395 127.388 467.818 127.819 464.156 127.908 460.375 127.621 457.811 132.203 453.586 130.319 451.662 136.453 445.528 128.886 442.992 132.84 440.946 137.82 437.739 139.383 433.111 137.415 432.021 144.068 426.261 139.788 425.397 146.493 422.262 148.103 418.616 148.707 414.615 148.715 410.826 149.233 407.356 150.398 404.1 151.968 402.172 155.743 399.411 158.068 396.132 159.567 393.857 162.6 387.813 160.074 385.028 162.424 382.883 165.643 381.224 169.458 379.214 172.728 374.108 171.984 371.102 174.005 370.355 178.79 364.244 177.07 361.142 179.035 359.695 182.902 355.063 183.153 353.25 186.572 353.013 191.636 347.258 190.813 345.521 194.247 344.602 198.471 344.759 203.694 343.74 207.676 335.034 204.285 334.827 209.06 332.224 211.557 329.153 213.638 324.387 214.233 321.871 216.864 323.286 222.869 317.3 222.521 317.244 227.197 317.951 232.434 313.63 233.553 311.008 236.068 311.317 240.873 310.081 244.433 303.384 243.849 304.246 248.988 298.621 249.31 301.627 255.937 296.658 256.785 290.721 257.015 294.441 263.99 291.747 266.487 292.203 271.108 290.136 274.016 286.699 276.035 279.57 275.71 280.305 280.459 281.451 285.415 275.459 285.926 271.623 287.817 276.272 294.817 267.275 293.659 272.84 301.088 271.211 304.272 262.796 303.618 264.331 308.615 259.406 310.01 256.917 312.775 255.883 316.328 257.944 321.503 258.85 326.022 252.23 326.648 255.654 332.418 250.289 333.742 246.864 336.071 251.272 342.213 246.522 343.908 241.232 345.394 239.811 348.721 238.906 352.283 241.483 357.4 234.467 358.219 240.005 364.582 240.052 368.496 229.831 368.054 236.701 374.834 226.904 374.686 228.393 379.193 225.03 381.741 228.676 387.045 227.469 390.427 222.277 392.308 226.461 397.71 221.768 399.814 222.343 403.844 216.943 405.755 220.983 410.972 213.821 412.335 221.063 418.551 218.997 421.633 211.725 423.068 212.656 427.144 216.497 432.083 212.247 434.538 207.38 436.855 213.713 442.424 205.845 443.93 205.88 447.683 202.728 450.575 209.555 456.083 200.879 457.573 199.425 460.942 207.554 466.608 201.501 468.863 199 471.989 197.568 475.372 202.948 480.2 196.575 482.55 198.345 486.578 193.934 489.407 198.076 493.84 196.745 497.251 191.4 500.006 191.999 503.774 197.668 508.286 192.945 511.219 192.271 514.764 190.411 518.163 195.031 522.347 191.761 525.587 190.761 529.104 191.548 532.796 195.734 536.744 188.739 539.798 187.471 543.34 189.402 547.073 191.788 550.785 194.708 554.458 193.497 557.977 186.672 561.454 188.293 565.081" style="fill: #fff;"/>
  <polygon points="188.293 565.081 191.895 568.668 192.102 572.251 194.7 575.748 189.561 579.543 191.334 583.064 187.111 586.962 190.914 590.317 191.28 593.908 193.182 597.337 193.259 600.942 197.327 604.046 189.775 608.683 190.516 612.258 190.147 616.009 192.309 619.34 194.442 622.639 190.999 627.014 196.447 629.61 193.601 633.947 196.382 637.045 198.41 640.282 197.544 644.246 202.885 646.556 203.246 650.181 204.664 653.505 203.707 657.561 203.06 661.568 208.741 663.483 206.587 668.029 211.164 670.213 212.387 673.573 206.61 679.671 208.086 683.027 217.433 683.09 216.402 687.416 214.184 692.339 213.659 696.587 221.139 697.097 224.296 699.55 224.28 703.553 223.608 707.944 229.215 709.058 225.078 715.393 232.622 715.329 235.633 717.709 234.95 722.246 235.944 725.84 237.634 729.026 235.309 734.798 242.397 734.508 246.969 735.749 246.656 740.286 247.359 744.184 246.902 748.973 248.521 752.307 256.535 750.775 253.186 757.92 261.717 755.755 257.938 763.449 265.483 761.867 266.779 765.452 266.791 770.207 267.503 774.431 273.656 773.708 277.276 775.218 275.343 782.039 278.533 783.996 279.413 788.26 283.263 789.53 286.584 791.301 289.23 793.77 293.711 794.202 295.191 797.951 295.948 802.605 302.082 800.968 300.875 808.088 304.382 809.557 309.37 809.094 313.081 810.172 317.418 810.355 320.035 812.805 320.47 818.347 325.154 817.929 325.745 823.442 330.833 822.311 334.903 822.603 338.055 824.276 336.167 834.197 344.213 827.834 344.393 834.618 350.094 831.874 353.114 833.771 354.285 839.15 355.533 844.593 361.721 840.439 362.31 847.397 366.164 847.798 372.616 842.479 372.457 851.556 376.473 851.459 380.486 851.267 383.243 854.072 388.541 850.477 389.18 858.878 394.097 856.053 398.262 855.063 399.232 863.36 404.67 858.474 407.918 860.114 410.234 864.918 415.275 860.537 417.245 866.885 422.616 860.726 424.191 869.125 428.638 866.155 432.549 865.165 436.041 865.943 439.555 866.621 441.942 873.31 445.507 874.11 449.933 869.659 453.245 871.773 456.777 872.583 460.196 874.333 464.1 872.15 467.167 877.446 471.035 875.3 475.135 869.558 478.077 878.57 482.009 873.872 485.461 877.181 489.237 873.165 492.698 878.74 496.374 876.606 500 873.1 503.587 873.2 507.284 878.007 510.95 878.631 514.276 871.448 517.769 870.02 521.623 874.236 525.482 877.225 528.457 869.797 532.605 875.256 535.682 870.275 539.509 872.025 542.741 869.124 547.305 875.416 549.589 866.728 554.61 874.779 557.22 868.837 560.821 868.505 563.699 864.71 568.001 867.616 572.2 869.699 575.198 866.66 578.063 863.317 583.26 868.723 586.613 867.125 589.667 864.576 592.505 861.456 594.359 855.468 600.117 861.419 602.025 855.864 606.86 858.664 610.515 858.055 614.177 857.415 616.995 854.644 620.948 854.679 624.18 852.951 627.669 851.82 631.405 851.204 631.616 843.098 634.442 840.731 637.514 838.897 643.452 842.611 643.584 835.129 647.495 834.862 653.588 838.391 656.193 835.61 660.098 835.066 663.511 833.648 661.985 824.318 665.971 823.941 671.187 825.354 675.824 825.742 674.716 817.719 681.784 821.498 680.231 813.149 687.15 816.459 687.304 810.654 693.385 812.594 694.001 807.517 696.164 804.458 696.733 799.536 701.733 799.887 704.621 797.717 706.928 794.89 712.353 795.465 709.9 787.555 718.681 791.522 720.052 787.698 722.853 785.346 722.527 779.962 724.22 776.611 728.245 775.443 732.121 774.072 734.572 771.388 731.595 764.035 738.729 765.387 739.042 760.954 740.428 757.456 743.031 754.943 743.306 750.637 748.112 749.78 752.306 748.381 750.585 742.707 757.443 743.111 760.182 740.567 756.599 733.832 759.367 731.363 760.795 728.029 765.543 726.734 764.432 721.867 771.577 721.868 774.137 719.123 773.257 714.469 777.725 712.745 779.73 709.662 780.873 706.136 777.524 700.43 777.721 696.548 780.688 693.978 778.835 689.218 784.498 687.797 781.986 682.84 790.425 682.418 791.238 678.823 790.417 674.625 789.94 670.609 792.288 667.629 796.105 665.115 796.078 661.283 795.137 657.196 797.342 654.102 796.868 650.21 797.179 646.571 804.7 644.829 796.689 639.062 803.074 636.915 803.508 633.299 800.547 628.974 804.962 626.209 800.385 621.67 802.889 618.499 804.069 615.065 804.736 611.54 805.392 608.011 812.204 605.262 805.985 600.856 809.009 597.566 811.716 594.185 813.048 590.637 812.033 586.904 807.602 583.004 808.053 579.435 814.51 576.065 813.004 572.368 807.959 568.667 812.17 565.081 808.695 561.503 805.431 557.995 812.213 554.227 805.929 550.876 814.24 546.875 807.124 543.676 804.33 540.296 811.996 536.109 810.724 532.587 805.545 529.473 807.176 525.704 808.564 521.928 810.91 518.001 802.68 515.445 804.44 511.596 802.755 508.227 803.367 504.513 804.76 500.651 806.595 496.681 798.813 494.416 801.922 490.204 800.672 486.79 796.601 483.958 801.955 479.19 795.484 476.908 796.505 473.024 802.69 467.916 794.518 466.139 793.411 462.727 790.947 459.662 797.666 454.238 792.82 451.786 791.022 448.555 788.787 445.458 787.624 442.071 785.204 439.054 790.132 433.859 787.189 430.99 790.133 426.309 786.367 423.713 788.584 419.207 782.034 417.564 782.37 413.664 780.973 410.342 775.381 408.494 777.745 403.861 775.871 400.723 778.925 395.769 770.651 395.025 770.855 391.126 768.381 388.249 767.815 384.633 766.041 381.493 767.56 377.011 768.703 372.648 762.832 371.214 766.489 365.752 758.421 365.33 761.922 359.879 761.939 355.927 760.821 352.472 755.959 350.744 758.945 345.378 757.773 341.929 753.839 339.81 754.712 335.367 745.115 336.098 745.367 331.972 746.196 327.524 746.673 323.222 742.987 321.081 744.332 316.283 738.19 315.496 734.086 313.656 735.288 308.895 734.738 305.079 735.872 300.277 733.892 297.239 731.145 294.655 729.97 291.147 726.823 288.822 721.889 287.619 724.753 281.603 716.688 282.419 718.944 276.72 718.81 272.501 710.987 273.326 708.669 270.574 713.267 263.125 705.152 264.316 702.751 261.63 702.934 257.115 705.025 251.175 702.222 248.728 696.821 248.227 694.371 245.572 695.81 239.942 689.004 240.645 689.182 235.937 683.863 235.585 681.831 232.629 681.261 228.454 675.553 228.567 673.455 225.68 676.385 218.4 669.042 220.079 668.586 215.693 669.716 209.788 663.119 210.994 664.507 204.734 659.478 204.563 658.792 200.191 651.301 202.606 655.638 193.061 646.854 196.988 646.464 192.198 645.798 187.612 643.643 184.594 641.295 181.771 636.118 182.222 630.631 183.168 633.509 174.07 630.96 171.42 626.284 171.471 624.658 167.637 621.825 165.341 614.037 169.88 612.213 166.321 612.18 160.063 606.116 162.619 602.776 161.234 604.168 152.333 596.977 157.122 593.779 155.555 593.876 148.199 589.501 148.608 588.337 143.088 584.217 143.091 579.05 145.378 577.674 139.881 573.114 141.149 570.439 138.258 566.549 138.213 563.678 135.662 560.652 133.393 557.691 130.808 552.485 134.997 549.991 130.932 545.798 132.467 542.172 132.228 538.663 131.612 534.796 132.689 532.155 127.907 527.766 132.155 524.338 131.479 521.142 128.993 517.672 128.214 514.025 129.256 510.821 124.482 507.284 122.753 503.528 127.853 500 126.47 496.336 121.74 492.995 129.159 489.301 126.383 485.45 123.31 481.788 123.32 478.007 122.546 475.428 129.994 471.395 127.388 467.818 127.819 464.156 127.908 460.375 127.621 457.811 132.203 453.586 130.319 451.662 136.453 445.528 128.886 442.992 132.84 440.946 137.82 437.739 139.383 433.111 137.415 432.021 144.068 426.261 139.788 425.397 146.493 422.262 148.103 418.616 148.707 414.615 148.715 410.826 149.233 407.356 150.398 404.1 151.968 402.172 155.743 399.411 158.068 396.132 159.567 393.857 162.6 387.813 160.074 385.028 162.424 382.883 165.643 381.224 169.458 379.214 172.728 374.108 171.984 371.102 174.005 370.355 178.79 364.244 177.07 361.142 179.035 359.695 182.902 355.063 183.153 353.25 186.572 353.013 191.636 347.258 190.813 345.521 194.247 344.602 198.471 344.759 203.694 343.74 207.676 335.034 204.285 334.827 209.06 332.224 211.557 329.153 213.638 324.387 214.233 321.871 216.864 323.286 222.869 317.3 222.521 317.244 227.197 317.951 232.434 313.63 233.553 311.008 236.068 311.317 240.873 310.081 244.433 303.384 243.849 304.246 248.988 298.621 249.31 301.627 255.937 296.658 256.785 290.721 257.015 294.441 263.99 291.747 266.487 292.203 271.108 290.136 274.016 286.699 276.035 279.57 275.71 280.305 280.459 281.451 285.415 275.459 285.926 271.623 287.817 276.272 294.817 267.275 293.659 272.84 301.088 271.211 304.272 262.796 303.618 264.331 308.615 259.406 310.01 256.917 312.775 255.883 316.328 257.944 321.503 258.85 326.022 252.23 326.648 255.654 332.418 250.289 333.742 246.864 336.071 251.272 342.213 246.522 343.908 241.232 345.394 239.811 348.721 238.906 352.283 241.483 357.4 234.467 358.219 240.005 364.582 240.052 368.496 229.831 368.054 236.701 374.834 226.904 374.686 228.393 379.193 225.03 381.741 228.676 387.045 227.469 390.427 222.277 392.308 226.461 397.71 221.768 399.814 222.343 403.844 216.943 405.755 220.983 410.972 213.821 412.335 221.063 418.551 218.997 421.633 211.725 423.068 212.656 427.144 216.497 432.083 212.247 434.538 207.38 436.855 213.713 442.424 205.845 443.93 205.88 447.683 202.728 450.575 209.555 456.083 200.879 457.573 199.425 460.942 207.554 466.608 201.501 468.863 199 471.989 197.568 475.372 202.948 480.2 196.575 482.55 198.345 486.578 193.934 489.407 198.076 493.84 196.745 497.251 191.4 500.006 191.999 503.774 197.668 508.286 192.945 511.219 192.271 514.764 190.411 518.163 195.031 522.347 191.761 525.587 190.761 529.104 191.548 532.796 195.734 536.744 188.739 539.798 187.471 543.34 189.402 547.073 191.788 550.785 194.708 554.458 193.497 557.977 186.672 561.454 188.293 565.081" style="fill: none; stroke: #000; stroke-linecap: round; stroke-linejoin: round; stroke-width: 35px;"/>
</svg>