<?xml version="1.0" encoding="UTF-8"?>
<svg id="Sticker" xmlns="http://www.w3.org/2000/svg" width="1000" height="1000" viewBox="0 0 1000 1000">
  <polygon points="882.768 500 880.607 503.56 881.127 507.131 880.576 510.683 882.788 514.327 883.44 517.945 887.256 521.752 882.938 525.108 886.734 528.988 879.071 531.99 887.239 536.32 887.32 539.984 883.618 543.236 886.462 547.216 885.881 550.812 883.861 554.205 883.786 557.859 884.469 561.643 876.23 563.946 876.207 567.567 877.043 571.36 878.351 575.277 877.938 578.875 872.087 581.297 871.506 584.817 874.772 589.253 870.335 591.867 873.864 596.457 869.495 599.026 874.472 604.118 874.137 607.804 870.881 610.632 870.259 614.227 866.804 616.928 861.19 618.871 868.369 625.061 865.281 627.833 863 630.857 859.419 633.375 857.801 636.594 855.002 639.341 856.993 643.989 850.775 645.306 850.284 648.955 853.065 654.053 847.51 655.509 852.457 661.7 850.522 664.796 843.167 665.267 847.341 671.302 843.574 673.454 845.665 678.588 840.667 680.057 835.848 681.544 833.262 684.191 835.46 689.527 829.577 690.285 829.672 694.474 832.034 700.081 826.913 701.182 824.691 704.023 827.046 709.8 820.812 710.054 815.887 711.072 817.906 716.753 811.592 716.738 811.3 720.885 812.07 725.851 808.015 727.333 806.511 730.682 805.856 734.702 806.672 739.921 798.998 738.452 801.504 745.102 799.4 748.078 790.019 744.908 791.026 750.461 786.363 751.145 784.954 754.664 781.433 756.291 780.801 760.56 779.578 764.334 778.35 768.147 772.157 767.132 773.266 773.284 766.324 771.371 765.164 775.292 767.5 782.963 761.12 781.441 759.167 784.628 757.651 788.332 751.089 786.337 749.017 789.388 750.463 796.63 747.298 798.5 743.511 799.588 742.214 803.749 735.157 800.63 734.849 806.088 733.662 810.505 729.964 811.615 725.894 812.17 722.221 813.221 721.74 818.812 717.594 819.179 713.026 818.849 711.487 823.039 708.364 824.856 703.048 823.185 703.912 831.385 697.54 827.871 692.89 827.035 691.855 832.336 687.493 831.912 687.751 839.735 681.445 835.711 678.282 837.361 676.151 841.005 673.029 842.781 669.949 844.652 667.666 848.186 662.039 844.716 660.372 849.616 657.191 851.311 655.685 856.851 651.155 855.501 645.793 851.997 645.175 859.979 639.813 856.254 636.432 857.426 634.065 861.325 630.464 861.96 626.23 860.75 624.711 867.392 620.685 866.759 617.389 868.305 614.412 870.916 610.183 869.431 606.226 868.712 603.259 871.435 599.032 869.579 595.72 871.06 593.25 875.995 589.785 877.076 584.974 872.261 581.027 870.906 578.413 875.777 575.79 881.009 570.635 873.243 567.839 877.791 564.814 881.431 560.504 877.365 557.146 879.067 553.597 879.574 549.607 876.695 546.082 877.138 542.881 880.49 539.031 878.028 535.501 878.44 531.952 878.655 528.512 880.322 525.331 886.404 521.639 885.223 518.023 885.13 514.38 884.173 510.868 887.243 507.23 886.448 503.574 882.056 500 883.439 496.404 884.506 492.771 886.456 489.318 880.57 485.551 886.086 482.224 879.775 478.592 881.034 474.535 888.463 471.091 885.669 467.435 885.98 464.444 878.998 460.216 885.355 456.747 883.773 453.789 878.148 450.372 876.798 445.846 883.5 443.263 876.279 438.34 884.572 435.612 878.852 431.581 880.987 428.389 878.377 424.615 878.898 422.383 871.88 417.266 878.696 413.322 879.694 410.739 874.805 407.091 874.552 405.049 868.007 399.865 873.644 395.776 874.854 392.432 873.32 389.921 869.026 385.496 871.159 383.088 866.752 380.331 863.616 377.526 860.747 371.758 866.449 368.928 863.595 364.535 865.048 363.952 856.372 358.063 861.611 355.668 857.842 351.289 858.986 351.086 850.189 347.712 849.026 342.758 851.376 341.44 845.624 336.075 848.673 333.347 846.038 331.746 841.173 327.894 840.91 323.942 840.778 320.81 839.029 318.977 834.886 314.9 834.902 309.104 837.879 309.2 830.467 307.007 827.167 300.476 831.111 299.144 826.386 294.208 827.499 291.113 825.627 290.532 819.918 285.177 821.489 280.879 821.373 280.43 815.655 278.439 812.252 276.302 809.1 269.449 812.369 267.297 809.192 267.683 802.752 264.746 800.715 258.871 802.35 260.143 795.059 257.583 792.576 250.86 795.025 246.363 794.713 246.602 788.93 245.523 784.745 242.04 783.266 241.381 778.71 238.147 776.954 236.525 773.502 231.527 773.524 230.61 769.372 223.212 771.641 220.088 769.616 223.723 761.177 219.2 760.524 212.801 761.509 215.142 754.543 209.006 755.176 206.255 752.769 206.455 747.856 202.121 746.783 205.184 739.628 201.462 738.053 196.222 737.623 198.125 731.613 192.42 731.457 192.432 726.973 187.155 726.383 183.701 724.408 187.857 717.093 184.213 715.277 183.779 711.267 181.58 708.457 180.442 704.958 177.14 702.843 170.326 702.857 168 700.033 172.831 692.969 165.778 692.947 168.103 687.484 160.323 687.719 159.62 683.974 158.626 680.407 160.824 675.205 155.258 674.021 155.103 670.07 149.04 669.004 153.676 662.796 146.194 662.296 153.16 655.187 144.773 654.976 147.103 650.047 141.348 648.553 138.783 645.675 142.597 640.265 140.554 637.203 141.836 632.891 142.583 628.826 140.154 625.914 133.186 624.515 134.341 620.323 130.51 617.766 131.667 613.616 126.8 611.306 126.549 607.589 131.417 602.468 128.989 599.415 132.049 594.921 123.95 593.264 124.927 589.309 121.718 586.342 125.2 581.873 118.811 579.537 125.971 574.41 124.371 571.083 120.944 568.065 124.495 563.814 121.987 560.607 117.687 557.631 115.906 554.23 115.617 550.61 116.113 546.898 122.1 542.593 116.234 539.617 121.333 535.522 120.192 532.048 118.885 528.571 119.065 524.977 114.271 521.667 118.829 517.841 119.048 514.262 117.402 510.74 112.501 507.249 112.942 503.62 112.666 500 114.94 496.399 115.031 492.799 117.156 489.255 111.809 485.474 111.593 481.827 111.291 478.168 118.735 475 117.301 471.31 115.546 467.562 112.471 463.653 121.765 460.943 113.946 456.493 122.893 453.915 116.701 449.524 115.113 445.651 123.598 443.245 120.943 439.218 125.309 436.314 117.05 431.231 121.733 428.409 125.438 425.473 122.706 421.259 125.93 418.272 125.274 414.452 128.941 411.628 125.607 407.13 129.921 404.516 128.953 400.559 129.912 397.098 126.521 392.386 133.277 390.606 127.81 385.178 129.168 381.789 135.206 379.944 134.417 375.885 140.035 374.027 134.172 368.123 134.974 364.543 142.087 363.363 145.263 360.763 138.898 354.352 143.263 352.221 146.694 349.759 143.383 344.395 146.555 341.831 150.138 339.493 149.553 335.24 150.363 331.611 155.319 330.013 159.35 328.026 157.988 323.303 158.893 319.71 164.729 318.769 164.77 314.718 165.936 311.263 163.947 305.968 170.996 305.921 170.487 301.441 176.441 300.887 172.679 294.32 178.732 293.915 175.103 287.265 183.924 288.802 183.387 284.131 182.136 278.891 188.46 278.945 189.896 275.574 190.693 271.712 193.351 269.215 197.888 268.175 198.123 263.835 196.991 258.345 197.803 254.333 206.623 256.918 202.896 249.102 209.428 249.93 209.145 244.912 212.962 243.473 215.412 240.835 217.416 237.784 218.955 234.278 226.099 236.14 222.418 227.543 229.622 229.603 232.444 227.374 235.914 225.828 235.964 220.7 240.61 220.423 240.144 214.615 246.18 215.952 249.535 214.374 251.572 211.295 251.515 205.711 254.377 203.52 255.88 199.663 262.721 202.432 260.303 193.573 263.399 191.633 270.722 195.312 271.283 190.072 273.152 186.514 276.98 185.655 277.632 180.287 284.951 184.547 285.613 179.119 287.425 175.303 290.148 172.829 294.393 172.751 296.533 169.337 301.745 170.946 306.859 172.538 309.864 170.636 311.456 166.231 312.604 160.906 318.126 163.497 322.521 164.154 324.519 160.291 326.99 157.256 328.666 152.546 333.85 154.955 338.285 155.97 339.501 150.107 343.224 149.616 346.173 147.403 350.012 147.24 352.744 144.476 356.965 145.322 359.722 142.563 361.414 136.934 365.564 137.676 369.063 136.727 372.436 135.436 377.691 139.688 380.467 136.743 384.707 138.278 387.337 134.759 390.747 133.691 393.66 130.893 397.379 130.865 399.453 124.755 402.739 122.949 406.765 124.066 411.369 127.785 415.499 129.821 418.967 129.062 421.061 121.688 425.24 124.202 427.815 118.515 431.31 117.439 435.382 119.73 438.82 118.388 443.161 122.985 446.19 118.908 450.426 123.561 453.947 123.106 457.377 121.826 460.609 118.447 464.385 120.322 467.501 114.781 471.174 115.433 474.906 117.264 478.67 120.367 481.861 112.354 485.59 115.029 489.187 114.733 492.731 111.438 496.414 116.645 500 112.424 503.609 114.053 507.265 111.555 510.896 111.663 514.389 115.543 518.109 112.997 521.711 113.485 525.091 117.323 528.512 119.708 532.43 115.643 535.863 117.696 539.568 116.761 542.921 119.21 546.911 116.065 550.542 116.195 554.139 116.609 557.474 118.794 560.961 119.82 563.905 124.012 567.589 123.667 571.947 119.841 574.736 124.38 578.976 121.578 581.519 126.893 586.529 120.96 589.464 124.339 593.488 123.108 596.194 127.16 599.866 127.362 602.428 131.621 607.792 125.901 609.258 133.731 614.208 129.803 618.186 129.248 620.059 135.197 624.764 132.504 627.614 135.347 631.904 134.095 633.75 139.572 637.653 139.427 640.138 142.97 644.26 142.337 649.09 140.1 648.663 150.401 654.251 146.481 655.871 151.684 661.367 148.266 664.479 150.149 667.069 153.099 672.223 150.794 675.219 152.937 675.803 159.715 680.861 157.816 684.13 159.379 683.727 167.578 687.829 167.54 693.188 165.406 694.195 170.801 696.745 173.491 699.658 175.557 705.421 173.09 705.345 179.883 711.901 176.374 715.921 176.871 714.558 185.306 721.096 182.155 723.139 185.528 723.457 191.232 731.044 186.965 733.909 189.208 735.799 192.717 736.666 197.482 739.604 199.559 744.274 199.514 745.693 203.475 747.883 206.462 748.992 210.68 755.019 209.223 754.36 215.386 757.92 216.778 764.837 214.592 761.446 223.476 766.025 223.852 772.8 222.069 768.486 231.532 772.001 233.058 779.714 230.575 777.346 237.812 779.961 240.254 782.337 242.92 785.286 245.073 790.697 245.085 788.148 252.051 796.363 249.763 794.045 256.396 800.443 255.793 803.364 258.094 799.456 265.763 802.622 267.814 806.835 269.104 809.455 271.633 809.634 275.944 811.775 278.807 815.419 280.624 816.055 284.54 818.378 287.289 822.83 288.65 821.966 293.494 824.314 296.242 828.326 297.975 830.63 300.794 833.38 303.36 836.649 305.649 835.863 310.271 832.646 316.175 839.83 316.324 844.068 318.167 845.503 321.52 845.985 325.351 848.285 328.256 850.846 331.051 852.406 334.34 853.618 337.79 855.565 340.902 854.924 345.156 852.119 350.285 853.658 353.518 855.999 356.432 862.115 357.884 856.996 363.732 858.572 366.957 866.319 367.965 858.364 374.605 861.8 377.186 864.052 380.206 865.686 383.445 869.922 385.894 872.491 388.906 874.364 392.148 871.176 396.813 873.127 400.019 867.638 405.16 870.692 408.061 869.749 411.954 873.635 414.714 876.811 417.69 877.561 421.217 876.917 425.019 877.922 428.485 877.258 432.256 874.715 436.319 875.153 439.848 878.458 442.945 879.058 446.475 886.179 449.156 880.404 453.523 879.146 457.268 878.794 460.891 883.835 464 884.525 467.559 882.967 471.292 879.866 475.092 881.47 478.569 885.85 481.944 885.809 485.56 880.771 489.311 881.82 492.855 881.801 496.428 882.768 500"/>
  <polygon points="882.768 500 880.607 503.56 881.127 507.131 880.576 510.683 882.788 514.327 883.44 517.945 887.256 521.752 882.938 525.108 886.734 528.988 879.071 531.99 887.239 536.32 887.32 539.984 883.618 543.236 886.462 547.216 885.881 550.812 883.861 554.205 883.786 557.859 884.469 561.643 876.23 563.946 876.207 567.567 877.043 571.36 878.351 575.277 877.938 578.875 872.087 581.297 871.506 584.817 874.772 589.253 870.335 591.867 873.864 596.457 869.495 599.026 874.472 604.118 874.137 607.804 870.881 610.632 870.259 614.227 866.804 616.928 861.19 618.871 868.369 625.061 865.281 627.833 863 630.857 859.419 633.375 857.801 636.594 855.002 639.341 856.993 643.989 850.775 645.306 850.284 648.955 853.065 654.053 847.51 655.509 852.457 661.7 850.522 664.796 843.167 665.267 847.341 671.302 843.574 673.454 845.665 678.588 840.667 680.057 835.848 681.544 833.262 684.191 835.46 689.527 829.577 690.285 829.672 694.474 832.034 700.081 826.913 701.182 824.691 704.023 827.046 709.8 820.812 710.054 815.887 711.072 817.906 716.753 811.592 716.738 811.3 720.885 812.07 725.851 808.015 727.333 806.511 730.682 805.856 734.702 806.672 739.921 798.998 738.452 801.504 745.102 799.4 748.078 790.019 744.908 791.026 750.461 786.363 751.145 784.954 754.664 781.433 756.291 780.801 760.56 779.578 764.334 778.35 768.147 772.157 767.132 773.266 773.284 766.324 771.371 765.164 775.292 767.5 782.963 761.12 781.441 759.167 784.628 757.651 788.332 751.089 786.337 749.017 789.388 750.463 796.63 747.298 798.5 743.511 799.588 742.214 803.749 735.157 800.63 734.849 806.088 733.662 810.505 729.964 811.615 725.894 812.17 722.221 813.221 721.74 818.812 717.594 819.179 713.026 818.849 711.487 823.039 708.364 824.856 703.048 823.185 703.912 831.385 697.54 827.871 692.89 827.035 691.855 832.336 687.493 831.912 687.751 839.735 681.445 835.711 678.282 837.361 676.151 841.005 673.029 842.781 669.949 844.652 667.666 848.186 662.039 844.716 660.372 849.616 657.191 851.311 655.685 856.851 651.155 855.501 645.793 851.997 645.175 859.979 639.813 856.254 636.432 857.426 634.065 861.325 630.464 861.96 626.23 860.75 624.711 867.392 620.685 866.759 617.389 868.305 614.412 870.916 610.183 869.431 606.226 868.712 603.259 871.435 599.032 869.579 595.72 871.06 593.25 875.995 589.785 877.076 584.974 872.261 581.027 870.906 578.413 875.777 575.79 881.009 570.635 873.243 567.839 877.791 564.814 881.431 560.504 877.365 557.146 879.067 553.597 879.574 549.607 876.695 546.082 877.138 542.881 880.49 539.031 878.028 535.501 878.44 531.952 878.655 528.512 880.322 525.331 886.404 521.639 885.223 518.023 885.13 514.38 884.173 510.868 887.243 507.23 886.448 503.574 882.056 500 883.439 496.404 884.506 492.771 886.456 489.318 880.57 485.551 886.086 482.224 879.775 478.592 881.034 474.535 888.463 471.091 885.669 467.435 885.98 464.444 878.998 460.216 885.355 456.747 883.773 453.789 878.148 450.372 876.798 445.846 883.5 443.263 876.279 438.34 884.572 435.612 878.852 431.581 880.987 428.389 878.377 424.615 878.898 422.383 871.88 417.266 878.696 413.322 879.694 410.739 874.805 407.091 874.552 405.049 868.007 399.865 873.644 395.776 874.854 392.432 873.32 389.921 869.026 385.496 871.159 383.088 866.752 380.331 863.616 377.526 860.747 371.758 866.449 368.928 863.595 364.535 865.048 363.952 856.372 358.063 861.611 355.668 857.842 351.289 858.986 351.086 850.189 347.712 849.026 342.758 851.376 341.44 845.624 336.075 848.673 333.347 846.038 331.746 841.173 327.894 840.91 323.942 840.778 320.81 839.029 318.977 834.886 314.9 834.902 309.104 837.879 309.2 830.467 307.007 827.167 300.476 831.111 299.144 826.386 294.208 827.499 291.113 825.627 290.532 819.918 285.177 821.489 280.879 821.373 280.43 815.655 278.439 812.252 276.302 809.1 269.449 812.369 267.297 809.192 267.683 802.752 264.746 800.715 258.871 802.35 260.143 795.059 257.583 792.576 250.86 795.025 246.363 794.713 246.602 788.93 245.523 784.745 242.04 783.266 241.381 778.71 238.147 776.954 236.525 773.502 231.527 773.524 230.61 769.372 223.212 771.641 220.088 769.616 223.723 761.177 219.2 760.524 212.801 761.509 215.142 754.543 209.006 755.176 206.255 752.769 206.455 747.856 202.121 746.783 205.184 739.628 201.462 738.053 196.222 737.623 198.125 731.613 192.42 731.457 192.432 726.973 187.155 726.383 183.701 724.408 187.857 717.093 184.213 715.277 183.779 711.267 181.58 708.457 180.442 704.958 177.14 702.843 170.326 702.857 168 700.033 172.831 692.969 165.778 692.947 168.103 687.484 160.323 687.719 159.62 683.974 158.626 680.407 160.824 675.205 155.258 674.021 155.103 670.07 149.04 669.004 153.676 662.796 146.194 662.296 153.16 655.187 144.773 654.976 147.103 650.047 141.348 648.553 138.783 645.675 142.597 640.265 140.554 637.203 141.836 632.891 142.583 628.826 140.154 625.914 133.186 624.515 134.341 620.323 130.51 617.766 131.667 613.616 126.8 611.306 126.549 607.589 131.417 602.468 128.989 599.415 132.049 594.921 123.95 593.264 124.927 589.309 121.718 586.342 125.2 581.873 118.811 579.537 125.971 574.41 124.371 571.083 120.944 568.065 124.495 563.814 121.987 560.607 117.687 557.631 115.906 554.23 115.617 550.61 116.113 546.898 122.1 542.593 116.234 539.617 121.333 535.522 120.192 532.048 118.885 528.571 119.065 524.977 114.271 521.667 118.829 517.841 119.048 514.262 117.402 510.74 112.501 507.249 112.942 503.62 112.666 500 114.94 496.399 115.031 492.799 117.156 489.255 111.809 485.474 111.593 481.827 111.291 478.168 118.735 475 117.301 471.31 115.546 467.562 112.471 463.653 121.765 460.943 113.946 456.493 122.893 453.915 116.701 449.524 115.113 445.651 123.598 443.245 120.943 439.218 125.309 436.314 117.05 431.231 121.733 428.409 125.438 425.473 122.706 421.259 125.93 418.272 125.274 414.452 128.941 411.628 125.607 407.13 129.921 404.516 128.953 400.559 129.912 397.098 126.521 392.386 133.277 390.606 127.81 385.178 129.168 381.789 135.206 379.944 134.417 375.885 140.035 374.027 134.172 368.123 134.974 364.543 142.087 363.363 145.263 360.763 138.898 354.352 143.263 352.221 146.694 349.759 143.383 344.395 146.555 341.831 150.138 339.493 149.553 335.24 150.363 331.611 155.319 330.013 159.35 328.026 157.988 323.303 158.893 319.71 164.729 318.769 164.77 314.718 165.936 311.263 163.947 305.968 170.996 305.921 170.487 301.441 176.441 300.887 172.679 294.32 178.732 293.915 175.103 287.265 183.924 288.802 183.387 284.131 182.136 278.891 188.46 278.945 189.896 275.574 190.693 271.712 193.351 269.215 197.888 268.175 198.123 263.835 196.991 258.345 197.803 254.333 206.623 256.918 202.896 249.102 209.428 249.93 209.145 244.912 212.962 243.473 215.412 240.835 217.416 237.784 218.955 234.278 226.099 236.14 222.418 227.543 229.622 229.603 232.444 227.374 235.914 225.828 235.964 220.7 240.61 220.423 240.144 214.615 246.18 215.952 249.535 214.374 251.572 211.295 251.515 205.711 254.377 203.52 255.88 199.663 262.721 202.432 260.303 193.573 263.399 191.633 270.722 195.312 271.283 190.072 273.152 186.514 276.98 185.655 277.632 180.287 284.951 184.547 285.613 179.119 287.425 175.303 290.148 172.829 294.393 172.751 296.533 169.337 301.745 170.946 306.859 172.538 309.864 170.636 311.456 166.231 312.604 160.906 318.126 163.497 322.521 164.154 324.519 160.291 326.99 157.256 328.666 152.546 333.85 154.955 338.285 155.97 339.501 150.107 343.224 149.616 346.173 147.403 350.012 147.24 352.744 144.476 356.965 145.322 359.722 142.563 361.414 136.934 365.564 137.676 369.063 136.727 372.436 135.436 377.691 139.688 380.467 136.743 384.707 138.278 387.337 134.759 390.747 133.691 393.66 130.893 397.379 130.865 399.453 124.755 402.739 122.949 406.765 124.066 411.369 127.785 415.499 129.821 418.967 129.062 421.061 121.688 425.24 124.202 427.815 118.515 431.31 117.439 435.382 119.73 438.82 118.388 443.161 122.985 446.19 118.908 450.426 123.561 453.947 123.106 457.377 121.826 460.609 118.447 464.385 120.322 467.501 114.781 471.174 115.433 474.906 117.264 478.67 120.367 481.861 112.354 485.59 115.029 489.187 114.733 492.731 111.438 496.414 116.645 500 112.424 503.609 114.053 507.265 111.555 510.896 111.663 514.389 115.543 518.109 112.997 521.711 113.485 525.091 117.323 528.512 119.708 532.43 115.643 535.863 117.696 539.568 116.761 542.921 119.21 546.911 116.065 550.542 116.195 554.139 116.609 557.474 118.794 560.961 119.82 563.905 124.012 567.589 123.667 571.947 119.841 574.736 124.38 578.976 121.578 581.519 126.893 586.529 120.96 589.464 124.339 593.488 123.108 596.194 127.16 599.866 127.362 602.428 131.621 607.792 125.901 609.258 133.731 614.208 129.803 618.186 129.248 620.059 135.197 624.764 132.504 627.614 135.347 631.904 134.095 633.75 139.572 637.653 139.427 640.138 142.97 644.26 142.337 649.09 140.1 648.663 150.401 654.251 146.481 655.871 151.684 661.367 148.266 664.479 150.149 667.069 153.099 672.223 150.794 675.219 152.937 675.803 159.715 680.861 157.816 684.13 159.379 683.727 167.578 687.829 167.54 693.188 165.406 694.195 170.801 696.745 173.491 699.658 175.557 705.421 173.09 705.345 179.883 711.901 176.374 715.921 176.871 714.558 185.306 721.096 182.155 723.139 185.528 723.457 191.232 731.044 186.965 733.909 189.208 735.799 192.717 736.666 197.482 739.604 199.559 744.274 199.514 745.693 203.475 747.883 206.462 748.992 210.68 755.019 209.223 754.36 215.386 757.92 216.778 764.837 214.592 761.446 223.476 766.025 223.852 772.8 222.069 768.486 231.532 772.001 233.058 779.714 230.575 777.346 237.812 779.961 240.254 782.337 242.92 785.286 245.073 790.697 245.085 788.148 252.051 796.363 249.763 794.045 256.396 800.443 255.793 803.364 258.094 799.456 265.763 802.622 267.814 806.835 269.104 809.455 271.633 809.634 275.944 811.775 278.807 815.419 280.624 816.055 284.54 818.378 287.289 822.83 288.65 821.966 293.494 824.314 296.242 828.326 297.975 830.63 300.794 833.38 303.36 836.649 305.649 835.863 310.271 832.646 316.175 839.83 316.324 844.068 318.167 845.503 321.52 845.985 325.351 848.285 328.256 850.846 331.051 852.406 334.34 853.618 337.79 855.565 340.902 854.924 345.156 852.119 350.285 853.658 353.518 855.999 356.432 862.115 357.884 856.996 363.732 858.572 366.957 866.319 367.965 858.364 374.605 861.8 377.186 864.052 380.206 865.686 383.445 869.922 385.894 872.491 388.906 874.364 392.148 871.176 396.813 873.127 400.019 867.638 405.16 870.692 408.061 869.749 411.954 873.635 414.714 876.811 417.69 877.561 421.217 876.917 425.019 877.922 428.485 877.258 432.256 874.715 436.319 875.153 439.848 878.458 442.945 879.058 446.475 886.179 449.156 880.404 453.523 879.146 457.268 878.794 460.891 883.835 464 884.525 467.559 882.967 471.292 879.866 475.092 881.47 478.569 885.85 481.944 885.809 485.56 880.771 489.311 881.82 492.855 881.801 496.428 882.768 500" style="fill: none; stroke: #000; stroke-linecap: round; stroke-linejoin: round; stroke-width: 30px;"/>
</svg>