<?xml version="1.0" encoding="UTF-8"?>
<svg id="Big_Assets" data-name="Big Assets" xmlns="http://www.w3.org/2000/svg" width="700" height="700" viewBox="0 0 700 700">
  <path d="M350,119.471c4.926,0,9.647-.112,14.497.188,4.912.304,9.864-1.261,14.69-.657,4.88.61,10.192-1.392,14.973-.485,4.828.916,9.947,1.172,14.665,2.38,4.757,1.218,7.671,8.686,12.306,10.191,4.668,1.516,11.393-2.766,15.927-.97,4.56,1.807,7.326,7.838,11.74,9.919,4.434,2.09,11.094-.063,15.37,2.293s6.71,8.076,10.831,10.697,7.575,6.181,11.526,9.057,8.23,5.266,11.995,8.384,8.714,4.952,12.279,8.3,8.159,5.862,11.508,9.428,5.469,8.388,8.591,12.157,5.757,7.989,8.638,11.947,4.972,8.468,7.6,12.601,6.252,7.699,8.616,11.991,1.026,10.395,3.116,14.829,4.128,8.676,5.935,13.236c1.796,4.534,8.949,7.182,10.465,11.85,1.505,4.635-1.296,10.614-.078,15.371,1.208,4.718,3.106,9.266,4.021,14.094.907,4.781,4.279,9.274,4.889,14.153.604,4.826-.648,9.954-.344,14.866.301,4.85-.322,9.783-.322,14.709" style="fill: none; stroke: #000; stroke-linecap: round; stroke-linejoin: round; stroke-width: 45px;"/>
</svg>