<?xml version="1.0" encoding="UTF-8"?>
<svg id="Sticker" xmlns="http://www.w3.org/2000/svg" width="1000" height="1000" viewBox="0 0 1000 1000">
  <g>
    <polygon points="500.898 694.632 504.543 695.922 508.231 697.405 511.895 697.243 515.206 690.935 519.13 695.607 522.923 697.113 526.177 692.752 529.243 687.78 533.976 696.621 536.45 688.007 539.814 686.455 544.412 692.124 548.087 691.938 551.939 692.546 555.607 692.127 557.331 683.435 561.027 683.543 565.51 686.481 569.709 687.985 571.545 681.322 574.438 678.585 580.57 685.79 582.263 679.442 587.507 683.312 587.849 673.86 594.222 680.268 596.408 675.942 598.375 671.343 602.928 672.744 603.853 666.163 608.248 667.105 611.553 665.705 617.006 668.406 616.698 660.144 620.706 660.041 624.661 659.737 626.531 655.851 632.938 659.436 636.997 658.996 638.755 654.97 640.793 651.479 645.839 652.363 645.954 646.253 651.285 647.373 651.884 642.142 657.426 643.331 658.282 638.573 658.406 633.086 665.269 635.572 663.753 628.372 666.141 625.704 673.636 628.461 672.796 622.344 674.203 618.675 678.243 617.63 684.794 618.867 683.62 612.803 687.186 611.152 687.599 606.714 690.74 604.665 690.135 599.52 694.683 598.593 694.453 593.885 696.384 590.898 704.784 592.599 706.621 589.421 706.626 585.007 704.789 579.466 713.312 580.696 711.765 575.434 710.239 570.323 719.655 571.674 719.706 567.494 716.839 561.804 718.1 558.438 725.642 558.246 725.242 553.987 728.724 551.613 726.454 546.586 728.795 543.681 726.292 538.736 731.962 537.173 734.968 534.45 737.113 531.355 732.505 525.884 736.237 523.365 742.044 521.414 740.538 517.126 741.705 513.676 742.354 510.082 738.089 505.26 740.668 502.214 739.549 498.297 748.878 496.585 749.515 492.958 742.155 487.931 748.705 485.373 748.138 481.602 747.345 477.833 750.397 474.547 746.985 470.53 747.552 466.968 744.115 463.11 751.204 459.963 747.603 456.158 749.331 452.614 747.545 448.972 750.262 442.829 745.807 450.36 742.208 440.441 738.609 446.432 735.008 443.527 731.407 445.086 727.806 441.241 724.206 442.205 720.607 443.378 717.008 444.955 713.41 442.605 709.812 444.052 706.214 450.056 702.617 442.604 699.02 442.961 695.422 450.356 691.825 445.556 688.227 446.803 684.629 449.124 681.031 442.652 677.432 444.826 673.832 442.842 670.231 445.353 666.629 441.881 663.028 449.562 659.427 450.051 655.827 449.457 652.228 443.183 648.629 442.318 645.031 445.5 641.433 443.758 637.834 440.784 634.236 441.287 630.637 447.966 627.038 443.74 623.438 449.55 619.838 441.014 616.236 441.209 612.634 442.177 609.033 444.751 605.432 449.397 601.832 440.628 598.233 441.571 594.633 446.623 591.034 446.255 587.435 442.357 583.836 442.692 580.236 441.274 576.635 443.807 573.033 448.872 569.43 442.053 565.829 444.493 562.228 444.339 558.628 450.155 555.028 446.122 551.428 450.042 547.828 445.411 544.228 444.49 540.627 445.08 537.025 448.978 533.422 447.875 529.82 447.957 526.219 443.947 522.619 441.57 519.018 447.058 515.418 446.67 511.817 443.879 508.215 448.383 504.612 442.383 501.01 440.836 497.408 441.461 493.807 442.08 490.207 445.776 486.605 444.696 483.004 448.794 479.401 446.509 475.798 444.144 472.196 441.398 468.595 442.196 464.994 444.639 461.392 446.253 457.789 446.889 454.186 442.332 450.584 441.908 446.983 449.307 443.386 441.855 439.789 443.579 436.193 446.538 432.595 445.559 428.996 445.806 425.395 445.446 421.791 443.392 418.189 444.235 414.589 442.344 410.99 443.851 407.392 442.924 403.793 449.124 400.192 449.686 396.589 445.079 392.985 441.79 389.384 447.108 385.784 445.502 382.183 450.227 378.581 446.686 374.977 447.969 371.374 450.139 367.772 442.948 364.17 447.96 360.567 440.777 356.962 447.277 353.359 448.312 349.756 444.586 346.152 447.174 342.547 446.098 338.944 445.587 335.34 447.039 331.734 446.862 328.131 444.01 324.525 442.765 320.92 449.643 317.315 445.613 313.71 444.012 310.104 445.635 306.502 448.957 302.897 441.107 299.296 445.744 295.69 449.216 292.086 449.762 288.479 446.923 284.874 444.291 281.268 444.374 277.66 445.195 274.051 449.978 270.443 445.804 266.836 447.422 263.228 442.623 259.62 441.739 256.005 444.001 252.434 445.512 248.823 449.049 255.629 452.522 253.849 456.172 253.111 459.818 254.461 463.341 249.118 467.411 254.085 470.605 258.893 473.682 257.669 477.416 259.007 480.827 251.942 485.56 257.262 488.352 260.52 491.396 253.669 496.437 256.084 499.664 257.244 503.138 259.298 506.377 258.996 510.209 260.722 513.506 261.061 517.194 266.864 519.184 269.52 522.063 262.747 528.169 263.773 531.698 264.092 535.504 265.904 538.749 267.575 542.038 276.722 542.088 274.234 547.098 273.613 551.376 278.982 552.825 274.692 558.998 280.417 560.164 281.828 563.511 283.591 566.672 286.873 568.954 290.219 571.141 287.442 577.053 294.668 576.767 295.104 580.739 292.321 586.964 296.858 588.26 302.562 588.605 301.694 593.691 304.692 595.943 309.137 597.011 305.181 604.826 313.963 602.244 313.707 607.16 312.575 612.987 316.093 614.736 322.316 613.875 324.064 617.157 327.758 618.534 329.369 621.987 333.158 623.191 333.769 627.786 336.018 630.671 335.563 636.712 338.961 638.385 342.144 640.279 348.784 637.782 349.67 642.484 352.825 644.298 353.808 649.092 357.192 650.631 362.464 649.359 362.418 655.945 369.144 652.22 371.948 654.466 372.955 659.742 374.775 663.847 381.331 659.639 383.258 663.579 388.182 661.933 390.664 664.9 392.331 669.647 396.108 670.122 397.356 676.141 403.539 671.102 406.136 674.172 407.721 679.931 412.994 676.396 414.967 681.482 419.413 679.82 422.201 682.879 424.943 686.285 429.025 685.456 433.804 681.952 436.468 685.832 439.345 689.232 443.772 686.399 446.457 690.948 450.523 689.33 454.569 687.449 456.942 694.67 461.097 692.007 464.348 694.899 468.712 689.795 472.466 688.544 475.85 690.476 478.954 696.185 482.593 696.63 486.671 689.505 490.134 691.814 493.557 697.655 497.287 693.541 500.898 694.632" style="fill: #fff;"/>
    <polygon points="500.898 694.632 504.543 695.922 508.231 697.405 511.895 697.243 515.206 690.935 519.13 695.607 522.923 697.113 526.177 692.752 529.243 687.78 533.976 696.621 536.45 688.007 539.814 686.455 544.412 692.124 548.087 691.938 551.939 692.546 555.607 692.127 557.331 683.435 561.027 683.543 565.51 686.481 569.709 687.985 571.545 681.322 574.438 678.585 580.57 685.79 582.263 679.442 587.507 683.312 587.849 673.86 594.222 680.268 596.408 675.942 598.375 671.343 602.928 672.744 603.853 666.163 608.248 667.105 611.553 665.705 617.006 668.406 616.698 660.144 620.706 660.041 624.661 659.737 626.531 655.851 632.938 659.436 636.997 658.996 638.755 654.97 640.793 651.479 645.839 652.363 645.954 646.253 651.285 647.373 651.884 642.142 657.426 643.331 658.282 638.573 658.406 633.086 665.269 635.572 663.753 628.372 666.141 625.704 673.636 628.461 672.796 622.344 674.203 618.675 678.243 617.63 684.794 618.867 683.62 612.803 687.186 611.152 687.599 606.714 690.74 604.665 690.135 599.52 694.683 598.593 694.453 593.885 696.384 590.898 704.784 592.599 706.621 589.421 706.626 585.007 704.789 579.466 713.312 580.696 711.765 575.434 710.239 570.323 719.655 571.674 719.706 567.494 716.839 561.804 718.1 558.438 725.642 558.246 725.242 553.987 728.724 551.613 726.454 546.586 728.795 543.681 726.292 538.736 731.962 537.173 734.968 534.45 737.113 531.355 732.505 525.884 736.237 523.365 742.044 521.414 740.538 517.126 741.705 513.676 742.354 510.082 738.089 505.26 740.668 502.214 739.549 498.297 748.878 496.585 749.515 492.958 742.155 487.931 748.705 485.373 748.138 481.602 747.345 477.833 750.397 474.547 746.985 470.53 747.552 466.968 744.115 463.11 751.204 459.963 747.603 456.158 749.331 452.614 747.545 448.972 750.262 442.829 745.807 450.36 742.208 440.441 738.609 446.432 735.008 443.527 731.407 445.086 727.806 441.241 724.206 442.205 720.607 443.378 717.008 444.955 713.41 442.605 709.812 444.052 706.214 450.056 702.617 442.604 699.02 442.961 695.422 450.356 691.825 445.556 688.227 446.803 684.629 449.124 681.031 442.652 677.432 444.826 673.832 442.842 670.231 445.353 666.629 441.881 663.028 449.562 659.427 450.051 655.827 449.457 652.228 443.183 648.629 442.318 645.031 445.5 641.433 443.758 637.834 440.784 634.236 441.287 630.637 447.966 627.038 443.74 623.438 449.55 619.838 441.014 616.236 441.209 612.634 442.177 609.033 444.751 605.432 449.397 601.832 440.628 598.233 441.571 594.633 446.623 591.034 446.255 587.435 442.357 583.836 442.692 580.236 441.274 576.635 443.807 573.033 448.872 569.43 442.053 565.829 444.493 562.228 444.339 558.628 450.155 555.028 446.122 551.428 450.042 547.828 445.411 544.228 444.49 540.627 445.08 537.025 448.978 533.422 447.875 529.82 447.957 526.219 443.947 522.619 441.57 519.018 447.058 515.418 446.67 511.817 443.879 508.215 448.383 504.612 442.383 501.01 440.836 497.408 441.461 493.807 442.08 490.207 445.776 486.605 444.696 483.004 448.794 479.401 446.509 475.798 444.144 472.196 441.398 468.595 442.196 464.994 444.639 461.392 446.253 457.789 446.889 454.186 442.332 450.584 441.908 446.983 449.307 443.386 441.855 439.789 443.579 436.193 446.538 432.595 445.559 428.996 445.806 425.395 445.446 421.791 443.392 418.189 444.235 414.589 442.344 410.99 443.851 407.392 442.924 403.793 449.124 400.192 449.686 396.589 445.079 392.985 441.79 389.384 447.108 385.784 445.502 382.183 450.227 378.581 446.686 374.977 447.969 371.374 450.139 367.772 442.948 364.17 447.96 360.567 440.777 356.962 447.277 353.359 448.312 349.756 444.586 346.152 447.174 342.547 446.098 338.944 445.587 335.34 447.039 331.734 446.862 328.131 444.01 324.525 442.765 320.92 449.643 317.315 445.613 313.71 444.012 310.104 445.635 306.502 448.957 302.897 441.107 299.296 445.744 295.69 449.216 292.086 449.762 288.479 446.923 284.874 444.291 281.268 444.374 277.66 445.195 274.051 449.978 270.443 445.804 266.836 447.422 263.228 442.623 259.62 441.739 256.005 444.001 252.434 445.512 248.823 449.049 255.629 452.522 253.849 456.172 253.111 459.818 254.461 463.341 249.118 467.411 254.085 470.605 258.893 473.682 257.669 477.416 259.007 480.827 251.942 485.56 257.262 488.352 260.52 491.396 253.669 496.437 256.084 499.664 257.244 503.138 259.298 506.377 258.996 510.209 260.722 513.506 261.061 517.194 266.864 519.184 269.52 522.063 262.747 528.169 263.773 531.698 264.092 535.504 265.904 538.749 267.575 542.038 276.722 542.088 274.234 547.098 273.613 551.376 278.982 552.825 274.692 558.998 280.417 560.164 281.828 563.511 283.591 566.672 286.873 568.954 290.219 571.141 287.442 577.053 294.668 576.767 295.104 580.739 292.321 586.964 296.858 588.26 302.562 588.605 301.694 593.691 304.692 595.943 309.137 597.011 305.181 604.826 313.963 602.244 313.707 607.16 312.575 612.987 316.093 614.736 322.316 613.875 324.064 617.157 327.758 618.534 329.369 621.987 333.158 623.191 333.769 627.786 336.018 630.671 335.563 636.712 338.961 638.385 342.144 640.279 348.784 637.782 349.67 642.484 352.825 644.298 353.808 649.092 357.192 650.631 362.464 649.359 362.418 655.945 369.144 652.22 371.948 654.466 372.955 659.742 374.775 663.847 381.331 659.639 383.258 663.579 388.182 661.933 390.664 664.9 392.331 669.647 396.108 670.122 397.356 676.141 403.539 671.102 406.136 674.172 407.721 679.931 412.994 676.396 414.967 681.482 419.413 679.82 422.201 682.879 424.943 686.285 429.025 685.456 433.804 681.952 436.468 685.832 439.345 689.232 443.772 686.399 446.457 690.948 450.523 689.33 454.569 687.449 456.942 694.67 461.097 692.007 464.348 694.899 468.712 689.795 472.466 688.544 475.85 690.476 478.954 696.185 482.593 696.63 486.671 689.505 490.134 691.814 493.557 697.655 497.287 693.541 500.898 694.632" style="fill: none; stroke: #000; stroke-linecap: round; stroke-linejoin: round; stroke-width: 35px;"/>
  </g>
  <g>
    <polygon points="500.898 591.843 504.48 594.717 508.285 598.876 511.312 590.266 515.69 598.635 519.319 597.816 523.176 598.534 526.165 594.238 530.29 596.148 533.911 595.372 537.037 592.753 539.057 586.776 544.32 591.488 548.184 591.355 549.284 583.981 554.139 586.385 558.253 586.628 558.361 578.413 562.686 579.147 566.587 578.826 567.294 572.927 573.372 576.065 577.799 576.156 580.503 573.564 581.502 568.732 582.325 563.957 589.21 566.756 587.176 558.843 592.961 559.964 594.837 556.712 599.09 555.85 601.012 552.658 602.791 549.395 608.219 549.217 605.713 542.527 612.974 543.507 612.207 538.423 617.644 537.69 617.326 533.089 620.454 530.691 620.498 526.491 616.739 520.431 622.529 519.386 625.625 516.839 630.118 514.78 629.592 510.564 625.945 505.339 627.844 502.242 627.513 498.426 628.515 495.052 631.067 492.051 628.743 487.902 631.452 484.868 631.725 481.331 637.53 478.543 637.517 474.852 636.103 471.071 639.575 467.637 631.278 463.722 635.313 462.938 632.607 462.322 629.001 456.791 625.395 460.796 621.788 457.447 618.18 460.942 614.572 463.227 610.965 461.987 607.359 463.516 603.753 462.026 600.146 463.677 596.539 464.513 592.931 462.584 589.323 462.61 585.716 459.146 582.109 459.529 578.502 458.541 574.895 460.533 571.287 458.472 567.679 461.794 564.071 456.845 560.465 464.147 556.862 460.899 553.26 457.161 549.658 460.469 546.056 462.042 542.451 460.783 538.845 462.125 535.236 459.374 531.628 458.108 528.023 463.486 524.419 463.221 520.815 465.093 517.21 462.239 513.604 456.523 509.996 459.109 506.387 456.959 502.78 461.991 499.174 465.03 495.569 463.146 491.962 461.571 488.352 455.519 484.743 455.605 481.136 459.25 477.529 462.037 473.921 461.086 470.31 457.596 466.701 458.89 463.094 458.561 459.484 463.47 455.874 455.888 452.265 461.991 448.656 456.952 445.045 462.581 441.436 464.26 437.825 459.585 434.215 456.598 430.604 464.593 426.994 463.37 423.382 461.007 419.776 464.47 416.165 460.91 412.558 462.43 408.947 463.456 405.338 456.736 401.726 455.28 398.116 458.637 394.504 456.738 390.89 464.525 387.276 464.358 383.663 463.418 380.05 460.986 376.437 455.421 372.823 462.044 369.203 459.556 365.565 460.19 362.622 463.927 368.43 467.309 364.027 471.201 365.426 474.729 362.193 478.817 371.973 481.026 367.88 485.33 366.371 489.341 371.281 491.917 367.519 496.622 370.863 499.46 370.236 503.475 377.352 504.804 376.988 508.7 372.427 514.472 376.07 516.894 382.383 517.878 380.237 522.949 383.097 525.502 380.343 531.292 382.357 534.426 385.796 536.609 386.463 540.636 391.901 541.23 396.928 541.875 399.92 543.966 398.355 549.979 400.206 553.207 405.164 553.471 409.072 554.558 407.515 561.41 410.234 563.868 412.342 567.067 418.425 565.306 418.895 570.63 422.722 571.552 424.997 574.669 426.999 578.358 430.087 580.421 433.834 581.322 437.915 581.461 442.676 579.99 446.069 581.089 447.878 585.881 450.102 590.16 454.355 589.311 457.842 590.397 462.212 588.538 466.347 586.925 468.902 591.2 471.267 597.264 475.297 596.02 479.549 592.722 483.563 589.621 486.949 590.642 489.853 598.23 493.854 592.301 497.386 592.001 500.898 591.843"/>
    <polygon points="500.898 591.843 504.48 594.717 508.285 598.876 511.312 590.266 515.69 598.635 519.319 597.816 523.176 598.534 526.165 594.238 530.29 596.148 533.911 595.372 537.037 592.753 539.057 586.776 544.32 591.488 548.184 591.355 549.284 583.981 554.139 586.385 558.253 586.628 558.361 578.413 562.686 579.147 566.587 578.826 567.294 572.927 573.372 576.065 577.799 576.156 580.503 573.564 581.502 568.732 582.325 563.957 589.21 566.756 587.176 558.843 592.961 559.964 594.837 556.712 599.09 555.85 601.012 552.658 602.791 549.395 608.219 549.217 605.713 542.527 612.974 543.507 612.207 538.423 617.644 537.69 617.326 533.089 620.454 530.691 620.498 526.491 616.739 520.431 622.529 519.386 625.625 516.839 630.118 514.78 629.592 510.564 625.945 505.339 627.844 502.242 627.513 498.426 628.515 495.052 631.067 492.051 628.743 487.902 631.452 484.868 631.725 481.331 637.53 478.543 637.517 474.852 636.103 471.071 639.575 467.637 631.278 463.722 635.313 462.938 632.607 462.322 629.001 456.791 625.395 460.796 621.788 457.447 618.18 460.942 614.572 463.227 610.965 461.987 607.359 463.516 603.753 462.026 600.146 463.677 596.539 464.513 592.931 462.584 589.323 462.61 585.716 459.146 582.109 459.529 578.502 458.541 574.895 460.533 571.287 458.472 567.679 461.794 564.071 456.845 560.465 464.147 556.862 460.899 553.26 457.161 549.658 460.469 546.056 462.042 542.451 460.783 538.845 462.125 535.236 459.374 531.628 458.108 528.023 463.486 524.419 463.221 520.815 465.093 517.21 462.239 513.604 456.523 509.996 459.109 506.387 456.959 502.78 461.991 499.174 465.03 495.569 463.146 491.962 461.571 488.352 455.519 484.743 455.605 481.136 459.25 477.529 462.037 473.921 461.086 470.31 457.596 466.701 458.89 463.094 458.561 459.484 463.47 455.874 455.888 452.265 461.991 448.656 456.952 445.045 462.581 441.436 464.26 437.825 459.585 434.215 456.598 430.604 464.593 426.994 463.37 423.382 461.007 419.776 464.47 416.165 460.91 412.558 462.43 408.947 463.456 405.338 456.736 401.726 455.28 398.116 458.637 394.504 456.738 390.89 464.525 387.276 464.358 383.663 463.418 380.05 460.986 376.437 455.421 372.823 462.044 369.203 459.556 365.565 460.19 362.622 463.927 368.43 467.309 364.027 471.201 365.426 474.729 362.193 478.817 371.973 481.026 367.88 485.33 366.371 489.341 371.281 491.917 367.519 496.622 370.863 499.46 370.236 503.475 377.352 504.804 376.988 508.7 372.427 514.472 376.07 516.894 382.383 517.878 380.237 522.949 383.097 525.502 380.343 531.292 382.357 534.426 385.796 536.609 386.463 540.636 391.901 541.23 396.928 541.875 399.92 543.966 398.355 549.979 400.206 553.207 405.164 553.471 409.072 554.558 407.515 561.41 410.234 563.868 412.342 567.067 418.425 565.306 418.895 570.63 422.722 571.552 424.997 574.669 426.999 578.358 430.087 580.421 433.834 581.322 437.915 581.461 442.676 579.99 446.069 581.089 447.878 585.881 450.102 590.16 454.355 589.311 457.842 590.397 462.212 588.538 466.347 586.925 468.902 591.2 471.267 597.264 475.297 596.02 479.549 592.722 483.563 589.621 486.949 590.642 489.853 598.23 493.854 592.301 497.386 592.001 500.898 591.843" style="fill: none; stroke: #000; stroke-linecap: round; stroke-linejoin: round; stroke-width: 35px;"/>
  </g>
</svg>