<?xml version="1.0" encoding="UTF-8"?>
<svg id="Sticker" xmlns="http://www.w3.org/2000/svg" width="1000" height="1000" viewBox="0 0 1000 1000">
  <g>
    <polygon points="215.526 385.605 219.131 389.326 218.688 393.021 213.524 395.749 216.965 400.241 215.869 403.781 213.311 406.707 208.967 408.524 210.132 413.215 204.816 413.896 204.294 417.79 201.398 419.85 202.486 426.031 197.185 425.5 195.05 428.559 191.382 429.435 190.282 434.912 186.343 435.359 183.238 437.673 178.048 433.118 174.935 434.682 172.134 439.457 168.062 434.198 164.733 434.572 161.352 434.967 157.517 438.093 154.708 433.818 149.783 438.961 146.012 438.275 143.166 435.253 141.521 430.405 138.877 428.128 136.068 426.218 134.485 422.788 126.774 426.247 123.096 424.49 124.634 418.225 123.582 414.648 120.392 412.567 120.249 408.651 115.023 407.197 112.223 404.268 114.908 399.567 115.553 395.829 116.087 392.298 111.179 389.269 112.878 385.605 108.781 381.78 109.825 378.06 108.508 373.925 111.755 370.761 115.518 368.113 115.122 364.055 116.581 360.653 117.839 357.086 123.871 356.764 123.617 352.154 124.272 347.816 130.943 349.422 132.872 346.438 135.805 344.616 135.309 337.222 140.155 338.171 143.613 336.982 145.505 331.503 149.585 331.541 153.779 332.894 158.073 337.203 161.122 332.841 164.733 334.521 168.238 334.397 172.08 332.151 175.922 331.756 178.175 337.641 181.538 338.324 184.452 340.205 190.232 336.4 191.133 342.189 192.771 345.879 199.295 343.126 201.82 345.897 205.257 347.76 207.157 351.092 206.593 356.061 212.132 356.781 214.091 360.03 217.397 362.729 213.512 368.269 216.498 371.101 216.568 374.833 213.415 378.908 218.799 381.908 215.526 385.605" style="fill: #fff;"/>
    <polygon points="215.526 385.605 219.131 389.326 218.688 393.021 213.524 395.749 216.965 400.241 215.869 403.781 213.311 406.707 208.967 408.524 210.132 413.215 204.816 413.896 204.294 417.79 201.398 419.85 202.486 426.031 197.185 425.5 195.05 428.559 191.382 429.435 190.282 434.912 186.343 435.359 183.238 437.673 178.048 433.118 174.935 434.682 172.134 439.457 168.062 434.198 164.733 434.572 161.352 434.967 157.517 438.093 154.708 433.818 149.783 438.961 146.012 438.275 143.166 435.253 141.521 430.405 138.877 428.128 136.068 426.218 134.485 422.788 126.774 426.247 123.096 424.49 124.634 418.225 123.582 414.648 120.392 412.567 120.249 408.651 115.023 407.197 112.223 404.268 114.908 399.567 115.553 395.829 116.087 392.298 111.179 389.269 112.878 385.605 108.781 381.78 109.825 378.06 108.508 373.925 111.755 370.761 115.518 368.113 115.122 364.055 116.581 360.653 117.839 357.086 123.871 356.764 123.617 352.154 124.272 347.816 130.943 349.422 132.872 346.438 135.805 344.616 135.309 337.222 140.155 338.171 143.613 336.982 145.505 331.503 149.585 331.541 153.779 332.894 158.073 337.203 161.122 332.841 164.733 334.521 168.238 334.397 172.08 332.151 175.922 331.756 178.175 337.641 181.538 338.324 184.452 340.205 190.232 336.4 191.133 342.189 192.771 345.879 199.295 343.126 201.82 345.897 205.257 347.76 207.157 351.092 206.593 356.061 212.132 356.781 214.091 360.03 217.397 362.729 213.512 368.269 216.498 371.101 216.568 374.833 213.415 378.908 218.799 381.908 215.526 385.605" style="fill: none; stroke: #000; stroke-linecap: round; stroke-linejoin: round; stroke-width: 35px;"/>
  </g>
  <g>
    <polygon points="307.962 517.7 306.849 521.529 300.159 524.484 298.242 527.556 304.066 532.613 304.054 536.614 298.412 538.364 300.915 543.651 296.948 545.741 294.452 548.486 290.941 550.325 287.01 551.481 289.883 559.506 284.921 559.594 284.012 564.691 277.98 562.335 272.963 560.407 271.057 564.248 269.616 570.531 265.396 569.652 260.894 566.061 258.422 572.881 254.147 565.971 250.84 573.258 247.363 568.48 244.074 566.878 240.008 569.818 235.712 571.693 231.969 570.792 230.157 565.315 226.406 564.854 220.925 566.883 217.641 564.723 217.419 558.778 214.225 556.902 211.97 554 212.808 548.635 205.002 550.056 206.965 544.377 200.435 543.819 204.801 537.695 203.801 534.417 202.617 531.213 203.476 527.548 202.603 524.336 203.045 520.975 199.159 517.7 196.115 513.957 199.084 510.583 194.855 506.068 201.687 503.925 204.35 501.176 203.293 497.047 204.41 493.641 207.536 491.368 211.008 489.587 208.778 483.478 209.715 479.289 212.903 477.078 216.993 476.094 218.238 471.515 222.207 470.616 226.352 470.437 231.344 472.81 233.9 470.037 235.398 462.582 240.814 469.479 244.002 467.987 247.425 467.827 250.84 462.839 254.536 463.667 258.191 464.221 262.6 461.091 263.908 471.074 268.01 469.391 273.489 465.563 277.212 466.814 277.197 474.354 280.323 475.93 283.295 477.806 287.688 478.247 289.352 481.734 291.994 484.22 295.309 486.311 294.859 490.935 301.238 491.584 295.473 498.316 302.514 499.335 298.349 504.385 299.647 507.553 298.372 511.159 307.643 513.817 307.962 517.7" style="fill: #fff;"/>
    <polygon points="307.962 517.7 306.849 521.529 300.159 524.484 298.242 527.556 304.066 532.613 304.054 536.614 298.412 538.364 300.915 543.651 296.948 545.741 294.452 548.486 290.941 550.325 287.01 551.481 289.883 559.506 284.921 559.594 284.012 564.691 277.98 562.335 272.963 560.407 271.057 564.248 269.616 570.531 265.396 569.652 260.894 566.061 258.422 572.881 254.147 565.971 250.84 573.258 247.363 568.48 244.074 566.878 240.008 569.818 235.712 571.693 231.969 570.792 230.157 565.315 226.406 564.854 220.925 566.883 217.641 564.723 217.419 558.778 214.225 556.902 211.97 554 212.808 548.635 205.002 550.056 206.965 544.377 200.435 543.819 204.801 537.695 203.801 534.417 202.617 531.213 203.476 527.548 202.603 524.336 203.045 520.975 199.159 517.7 196.115 513.957 199.084 510.583 194.855 506.068 201.687 503.925 204.35 501.176 203.293 497.047 204.41 493.641 207.536 491.368 211.008 489.587 208.778 483.478 209.715 479.289 212.903 477.078 216.993 476.094 218.238 471.515 222.207 470.616 226.352 470.437 231.344 472.81 233.9 470.037 235.398 462.582 240.814 469.479 244.002 467.987 247.425 467.827 250.84 462.839 254.536 463.667 258.191 464.221 262.6 461.091 263.908 471.074 268.01 469.391 273.489 465.563 277.212 466.814 277.197 474.354 280.323 475.93 283.295 477.806 287.688 478.247 289.352 481.734 291.994 484.22 295.309 486.311 294.859 490.935 301.238 491.584 295.473 498.316 302.514 499.335 298.349 504.385 299.647 507.553 298.372 511.159 307.643 513.817 307.962 517.7" style="fill: none; stroke: #000; stroke-linecap: round; stroke-linejoin: round; stroke-width: 35px;"/>
  </g>
  <g>
    <polygon points="419.832 634.123 411.788 637.457 410.786 640.682 413.326 644.558 417.77 649.433 415.301 652.667 410.508 654.704 406.408 656.546 408.123 661.486 406.596 664.808 405.648 668.719 398.895 667.528 396.244 669.586 396.071 674.62 395.67 680.224 390.672 679.421 389.153 684.347 384.624 683.614 380.77 683.763 377.649 685.948 373.091 682.046 370.755 689.631 366.411 682.029 363.128 682.526 359.685 684.402 355.824 687.253 352.906 683.291 348.171 687.503 346.578 680.687 343.219 679.96 340.296 678.192 336.395 678.085 333.821 675.643 330.234 674.555 330.125 669.46 322.603 671.97 318.341 670.562 319.102 665.199 320.975 659.751 313.935 659.613 312.285 656.208 314.046 651.567 314.273 647.814 308.307 645.513 308.567 641.622 315.218 637.406 307.054 634.123 311.558 630.594 313.31 627.271 313.53 623.813 309.892 619.207 312.134 615.999 313.584 612.602 316.207 609.81 314.505 604.55 316.031 600.873 325.299 603.35 321.091 594.861 324.145 592.382 329.855 593.222 335.427 594.87 334.458 586.978 337.631 584.917 343.044 587.881 345.864 585.546 349.858 586.774 352.416 582.581 355.284 577.022 359.562 582.017 363.128 583.502 366.644 582.76 370.902 577.541 372.88 587.227 376.443 586.615 381.499 582.436 383.382 587.494 388.477 585.208 390.24 589.54 393.276 591.413 395.551 594.27 396.051 598.872 403.928 596.02 401.892 602.591 404.047 605.245 407.358 607.23 412.044 608.777 413.07 612.431 415.884 615.374 409.295 621.184 415.541 623.231 417.942 626.591 417.772 630.387 419.832 634.123" style="fill: #fff;"/>
    <polygon points="419.832 634.123 411.788 637.457 410.786 640.682 413.326 644.558 417.77 649.433 415.301 652.667 410.508 654.704 406.408 656.546 408.123 661.486 406.596 664.808 405.648 668.719 398.895 667.528 396.244 669.586 396.071 674.62 395.67 680.224 390.672 679.421 389.153 684.347 384.624 683.614 380.77 683.763 377.649 685.948 373.091 682.046 370.755 689.631 366.411 682.029 363.128 682.526 359.685 684.402 355.824 687.253 352.906 683.291 348.171 687.503 346.578 680.687 343.219 679.96 340.296 678.192 336.395 678.085 333.821 675.643 330.234 674.555 330.125 669.46 322.603 671.97 318.341 670.562 319.102 665.199 320.975 659.751 313.935 659.613 312.285 656.208 314.046 651.567 314.273 647.814 308.307 645.513 308.567 641.622 315.218 637.406 307.054 634.123 311.558 630.594 313.31 627.271 313.53 623.813 309.892 619.207 312.134 615.999 313.584 612.602 316.207 609.81 314.505 604.55 316.031 600.873 325.299 603.35 321.091 594.861 324.145 592.382 329.855 593.222 335.427 594.87 334.458 586.978 337.631 584.917 343.044 587.881 345.864 585.546 349.858 586.774 352.416 582.581 355.284 577.022 359.562 582.017 363.128 583.502 366.644 582.76 370.902 577.541 372.88 587.227 376.443 586.615 381.499 582.436 383.382 587.494 388.477 585.208 390.24 589.54 393.276 591.413 395.551 594.27 396.051 598.872 403.928 596.02 401.892 602.591 404.047 605.245 407.358 607.23 412.044 608.777 413.07 612.431 415.884 615.374 409.295 621.184 415.541 623.231 417.942 626.591 417.772 630.387 419.832 634.123" style="fill: none; stroke: #000; stroke-linecap: round; stroke-linejoin: round; stroke-width: 35px;"/>
  </g>
  <g>
    <polygon points="565.093 698.132 566.62 701.914 559.22 704.724 562.551 708.782 566.572 713.614 559.623 715.303 555.355 717.261 562.183 724.497 559.785 727.614 556.186 729.81 552.568 731.698 551.164 735.353 546.673 735.997 544.306 738.69 544.065 744.531 537.97 741.975 535.834 745.46 532.874 747.774 528.377 746.148 524.609 745.58 522.675 752.825 518.713 751.979 515.118 753.802 511.312 747.246 507.808 749.321 504.035 751.07 500.324 751.008 497.676 746.788 493.065 749.469 490.085 746.997 485.505 747.93 482.052 746.24 482.795 738.535 476.32 741.139 472.292 739.909 471.082 735.702 473.078 729.233 471.077 726.527 468.39 724.228 465.898 721.66 459.324 720.715 463.287 715.2 457.163 713.303 456.189 709.584 463.151 704.759 460.279 701.625 454.829 698.132 459.769 694.604 458.965 690.935 460.979 687.669 455.842 682.591 459.865 679.846 466.602 678.713 460.671 671.887 465.089 670.021 471.28 669.877 472.008 666.157 469.306 658.898 477.628 662.062 477.483 656.548 478.747 652 484.901 654.693 488.359 653.826 488.633 645.923 494.935 652.052 496.729 646.086 500.436 645.797 504.086 645.569 507.699 645.331 511.312 642.68 515.143 642.1 519.158 641.015 522.838 642.658 525.132 648.815 527.777 651.807 534.27 645.287 533.661 654.994 538.321 653.717 540.003 657.482 545.393 656.244 544.877 662.194 549.145 662.801 556.173 661.634 553.892 668.079 553.627 672.406 560.312 672.742 559.388 677.251 565.616 678.832 563.994 683.371 564.982 686.98 559.754 691.467 564.241 694.511 565.093 698.132" style="fill: #fff;"/>
    <polygon points="565.093 698.132 566.62 701.914 559.22 704.724 562.551 708.782 566.572 713.614 559.623 715.303 555.355 717.261 562.183 724.497 559.785 727.614 556.186 729.81 552.568 731.698 551.164 735.353 546.673 735.997 544.306 738.69 544.065 744.531 537.97 741.975 535.834 745.46 532.874 747.774 528.377 746.148 524.609 745.58 522.675 752.825 518.713 751.979 515.118 753.802 511.312 747.246 507.808 749.321 504.035 751.07 500.324 751.008 497.676 746.788 493.065 749.469 490.085 746.997 485.505 747.93 482.052 746.24 482.795 738.535 476.32 741.139 472.292 739.909 471.082 735.702 473.078 729.233 471.077 726.527 468.39 724.228 465.898 721.66 459.324 720.715 463.287 715.2 457.163 713.303 456.189 709.584 463.151 704.759 460.279 701.625 454.829 698.132 459.769 694.604 458.965 690.935 460.979 687.669 455.842 682.591 459.865 679.846 466.602 678.713 460.671 671.887 465.089 670.021 471.28 669.877 472.008 666.157 469.306 658.898 477.628 662.062 477.483 656.548 478.747 652 484.901 654.693 488.359 653.826 488.633 645.923 494.935 652.052 496.729 646.086 500.436 645.797 504.086 645.569 507.699 645.331 511.312 642.68 515.143 642.1 519.158 641.015 522.838 642.658 525.132 648.815 527.777 651.807 534.27 645.287 533.661 654.994 538.321 653.717 540.003 657.482 545.393 656.244 544.877 662.194 549.145 662.801 556.173 661.634 553.892 668.079 553.627 672.406 560.312 672.742 559.388 677.251 565.616 678.832 563.994 683.371 564.982 686.98 559.754 691.467 564.241 694.511 565.093 698.132" style="fill: none; stroke: #000; stroke-linecap: round; stroke-linejoin: round; stroke-width: 35px;"/>
  </g>
  <g>
    <polygon points="805.438 394.009 802.781 397.821 810.253 400.651 808.865 404.333 806.396 408.616 804.962 413.047 806.549 416.589 809.793 419.263 812.928 421.739 817.608 422.891 815.403 429.096 819.443 430.512 821.489 433.669 827.57 432.067 828.181 437.002 828.638 443.154 834.579 440.23 837.845 441.626 839.531 447.455 844.391 444.455 847.63 446.443 851.679 443.789 854.829 448.062 858.526 443.458 862.157 447.083 865.349 443.613 869.104 444.897 873.94 449.025 877.709 447.979 879.693 442.737 880.775 436.955 888.239 442.86 889.386 437.726 891.506 434.546 896.682 434.861 900.53 433.237 896.157 424.618 898.772 422.412 906.521 423.197 909.094 420.213 904.203 413.847 904.113 410.211 907.709 407.791 911.078 404.93 912.995 401.495 912.632 397.71 908.897 394.009 910.54 390.449 913.169 386.5 914.808 382.317 906.869 380.461 906.196 377.066 908.593 372.26 908.654 368.031 902.978 366.978 902.85 362.72 900.415 359.929 894.04 360.842 897.49 352.288 893.665 350.817 887.213 353.361 884.392 351.465 884.16 344.539 881.546 341.018 877.191 341.491 873.415 340.87 869.975 338.903 865.434 343.78 861.981 343.557 858.526 344.078 854.867 340.52 851.896 345.82 846.898 338.038 844.135 342.653 841.309 345.568 835.79 341.674 832.493 343.775 830.18 347.4 830.695 354.576 822.764 350.056 821.805 354.692 819.193 357.277 817.9 360.96 813.572 362.277 809.54 364.217 807.832 367.74 808.934 372.469 809.998 376.762 810.588 380.575 801.886 382.243 807.723 387.023 801.949 390.142 805.438 394.009" style="fill: #fff;"/>
    <polygon points="805.438 394.009 802.781 397.821 810.253 400.651 808.865 404.333 806.396 408.616 804.962 413.047 806.549 416.589 809.793 419.263 812.928 421.739 817.608 422.891 815.403 429.096 819.443 430.512 821.489 433.669 827.57 432.067 828.181 437.002 828.638 443.154 834.579 440.23 837.845 441.626 839.531 447.455 844.391 444.455 847.63 446.443 851.679 443.789 854.829 448.062 858.526 443.458 862.157 447.083 865.349 443.613 869.104 444.897 873.94 449.025 877.709 447.979 879.693 442.737 880.775 436.955 888.239 442.86 889.386 437.726 891.506 434.546 896.682 434.861 900.53 433.237 896.157 424.618 898.772 422.412 906.521 423.197 909.094 420.213 904.203 413.847 904.113 410.211 907.709 407.791 911.078 404.93 912.995 401.495 912.632 397.71 908.897 394.009 910.54 390.449 913.169 386.5 914.808 382.317 906.869 380.461 906.196 377.066 908.593 372.26 908.654 368.031 902.978 366.978 902.85 362.72 900.415 359.929 894.04 360.842 897.49 352.288 893.665 350.817 887.213 353.361 884.392 351.465 884.16 344.539 881.546 341.018 877.191 341.491 873.415 340.87 869.975 338.903 865.434 343.78 861.981 343.557 858.526 344.078 854.867 340.52 851.896 345.82 846.898 338.038 844.135 342.653 841.309 345.568 835.79 341.674 832.493 343.775 830.18 347.4 830.695 354.576 822.764 350.056 821.805 354.692 819.193 357.277 817.9 360.96 813.572 362.277 809.54 364.217 807.832 367.74 808.934 372.469 809.998 376.762 810.588 380.575 801.886 382.243 807.723 387.023 801.949 390.142 805.438 394.009" style="fill: none; stroke: #000; stroke-linecap: round; stroke-linejoin: round; stroke-width: 35px;"/>
  </g>
  <g>
    <polygon points="723.681 526.104 721.099 529.617 724.683 532.672 722.394 536.502 721.837 540.278 725.288 542.855 719.57 549.063 723.146 551.638 730.367 551.673 730.802 555.479 730.717 560.032 730.45 565.303 736.604 564.455 741.47 564.152 740.684 571.062 746.258 569.131 750.069 569.249 752.079 572.936 753.435 579.52 757.701 578.634 762.411 574.243 764.622 582.86 768.48 583.755 772.419 574.511 775.901 576.967 780.279 583.315 783.49 579.377 785.605 573.152 789.146 573.164 794.647 577.271 797.099 573.73 799.272 570.263 802.043 568.071 802.691 563.316 805.397 561.413 807.542 558.903 814.349 560.215 816.237 557.032 821.139 555.733 823.81 552.735 818.161 545.969 821.673 543.608 819.587 539.322 827.205 537.486 828.298 533.781 824.816 529.689 821.151 526.104 824.398 522.546 826.738 518.638 822.454 515.702 820.704 512.572 820.42 509.043 818.218 506.211 821.171 500.84 818.838 497.873 815.137 495.95 814.871 491.564 812.642 488.535 807.587 488.445 802.934 488.588 805.21 479.652 801.531 478.233 795.984 480.618 791.681 481.75 788.731 480.207 785.534 479.306 782.677 476.759 780.121 470.05 775.747 477.528 772.419 476.443 768.691 471.587 764.914 471.492 761.051 471.392 756.823 470.438 755.092 477.352 749.815 474.07 747.174 477.387 742.474 476.871 742.278 483.403 741.458 488.045 735.914 487.018 734.677 490.857 727.944 489.92 726.437 493.645 729.495 500.006 725.395 501.739 719.592 503.156 726.563 509.806 720.698 511.612 716.463 514.479 719.329 518.806 716.143 522.257 723.681 526.104" style="fill: #fff;"/>
    <polygon points="723.681 526.104 721.099 529.617 724.683 532.672 722.394 536.502 721.837 540.278 725.288 542.855 719.57 549.063 723.146 551.638 730.367 551.673 730.802 555.479 730.717 560.032 730.45 565.303 736.604 564.455 741.47 564.152 740.684 571.062 746.258 569.131 750.069 569.249 752.079 572.936 753.435 579.52 757.701 578.634 762.411 574.243 764.622 582.86 768.48 583.755 772.419 574.511 775.901 576.967 780.279 583.315 783.49 579.377 785.605 573.152 789.146 573.164 794.647 577.271 797.099 573.73 799.272 570.263 802.043 568.071 802.691 563.316 805.397 561.413 807.542 558.903 814.349 560.215 816.237 557.032 821.139 555.733 823.81 552.735 818.161 545.969 821.673 543.608 819.587 539.322 827.205 537.486 828.298 533.781 824.816 529.689 821.151 526.104 824.398 522.546 826.738 518.638 822.454 515.702 820.704 512.572 820.42 509.043 818.218 506.211 821.171 500.84 818.838 497.873 815.137 495.95 814.871 491.564 812.642 488.535 807.587 488.445 802.934 488.588 805.21 479.652 801.531 478.233 795.984 480.618 791.681 481.75 788.731 480.207 785.534 479.306 782.677 476.759 780.121 470.05 775.747 477.528 772.419 476.443 768.691 471.587 764.914 471.492 761.051 471.392 756.823 470.438 755.092 477.352 749.815 474.07 747.174 477.387 742.474 476.871 742.278 483.403 741.458 488.045 735.914 487.018 734.677 490.857 727.944 489.92 726.437 493.645 729.495 500.006 725.395 501.739 719.592 503.156 726.563 509.806 720.698 511.612 716.463 514.479 719.329 518.806 716.143 522.257 723.681 526.104" style="fill: none; stroke: #000; stroke-linecap: round; stroke-linejoin: round; stroke-width: 35px;"/>
  </g>
  <g>
    <polygon points="602.564 642.527 611.534 645.857 608.18 649.67 609.834 652.982 604.711 658.054 611.323 659.875 611.224 663.772 612.505 667.207 615.413 669.721 613.369 675.541 620.322 674.914 620.167 679.853 621.131 684.287 626.278 684.141 631.644 682.893 631.369 689.824 633.673 693.584 637.847 693.829 642.646 691.725 644.855 697.052 650.041 691.061 653.189 693.005 656.269 699.024 660.131 691.5 663.778 695.827 667.573 696.671 670.744 693.586 675.143 696.104 677.376 691.046 679.645 687.456 683.288 687.222 688.901 689.832 688.492 682.71 693.091 683.04 693.286 678.028 701.174 680.858 699.132 674.253 701.949 672.041 709.216 672.379 709.351 668.032 709.436 663.943 705.729 658.733 714.51 657.762 716.687 654.276 714.259 649.966 713.119 646.153 708.168 642.527 716.205 638.694 715.572 634.909 708.583 632.454 712.296 627.91 705.379 626.445 709.547 621.061 704.514 619.532 707.618 613.646 701.514 613.318 701.438 608.92 695.245 609.733 692.969 607.362 691.209 604.321 692.432 596.768 685.089 601.473 685.869 592.858 680.531 595.557 676.578 596.25 675.241 588.597 671.569 587.475 666.806 594.012 663.86 588.002 660.131 592.801 656.366 587.465 652.364 585.995 650.107 594.317 646.202 592.821 643.388 595.42 638.616 592.999 635.038 594.105 632.847 597.661 627.751 596.661 625.242 599.646 621.505 601.172 623.366 608.194 617.136 607.549 620.58 614.616 612.412 613.508 614.412 618.841 610.984 621.18 607.77 623.918 607.116 627.673 612.042 632.529 607.887 635.345 604.991 638.757 602.564 642.527" style="fill: #fff;"/>
    <polygon points="602.564 642.527 611.534 645.857 608.18 649.67 609.834 652.982 604.711 658.054 611.323 659.875 611.224 663.772 612.505 667.207 615.413 669.721 613.369 675.541 620.322 674.914 620.167 679.853 621.131 684.287 626.278 684.141 631.644 682.893 631.369 689.824 633.673 693.584 637.847 693.829 642.646 691.725 644.855 697.052 650.041 691.061 653.189 693.005 656.269 699.024 660.131 691.5 663.778 695.827 667.573 696.671 670.744 693.586 675.143 696.104 677.376 691.046 679.645 687.456 683.288 687.222 688.901 689.832 688.492 682.71 693.091 683.04 693.286 678.028 701.174 680.858 699.132 674.253 701.949 672.041 709.216 672.379 709.351 668.032 709.436 663.943 705.729 658.733 714.51 657.762 716.687 654.276 714.259 649.966 713.119 646.153 708.168 642.527 716.205 638.694 715.572 634.909 708.583 632.454 712.296 627.91 705.379 626.445 709.547 621.061 704.514 619.532 707.618 613.646 701.514 613.318 701.438 608.92 695.245 609.733 692.969 607.362 691.209 604.321 692.432 596.768 685.089 601.473 685.869 592.858 680.531 595.557 676.578 596.25 675.241 588.597 671.569 587.475 666.806 594.012 663.86 588.002 660.131 592.801 656.366 587.465 652.364 585.995 650.107 594.317 646.202 592.821 643.388 595.42 638.616 592.999 635.038 594.105 632.847 597.661 627.751 596.661 625.242 599.646 621.505 601.172 623.366 608.194 617.136 607.549 620.58 614.616 612.412 613.508 614.412 618.841 610.984 621.18 607.77 623.918 607.116 627.673 612.042 632.529 607.887 635.345 604.991 638.757 602.564 642.527" style="fill: none; stroke: #000; stroke-linecap: round; stroke-linejoin: round; stroke-width: 35px;"/>
  </g>
  <g>
    <polyline points="183.284 431.271 189.688 431.012 187.724 436.956 192.935 437.582 194.163 441.161 192.407 446.959 199.418 446.249 196.797 452.687 202.223 453.157 204.817 455.728 209.895 456.451 210.403 460.57 213.095 463.069 216.678 464.908 215.382 470.374 221.381 470.429" style="fill: #fff;"/>
    <polyline points="183.284 431.271 189.688 431.012 187.724 436.956 192.935 437.582 194.163 441.161 192.407 446.959 199.418 446.249 196.797 452.687 202.223 453.157 204.817 455.728 209.895 456.451 210.403 460.57 213.095 463.069 216.678 464.908 215.382 470.374 221.381 470.429" style="fill: none; stroke: #000; stroke-linecap: round; stroke-linejoin: round; stroke-width: 35px;"/>
  </g>
  <g>
    <polyline points="283.662 562.675 285.201 566.454 290.036 566.394 291.388 570.396 291.392 575.977 296.054 576.117 299.328 577.881 302.026 580.318 306.266 580.956 310.521 581.571 312.985 584.282 310.759 592.467 316.601 591.238 319.356 593.62 318.595 600.106" style="fill: #fff;"/>
    <polyline points="283.662 562.675 285.201 566.454 290.036 566.394 291.388 570.396 291.392 575.977 296.054 576.117 299.328 577.881 302.026 580.318 306.266 580.956 310.521 581.571 312.985 584.282 310.759 592.467 316.601 591.238 319.356 593.62 318.595 600.106" style="fill: none; stroke: #000; stroke-linecap: round; stroke-linejoin: round; stroke-width: 35px;"/>
  </g>
  <g>
    <polyline points="408.61 660.223 411.495 662.241 417.975 658.713 418.188 664.856 420.488 667.784 427.226 663.857 428.877 667.789 434.49 665.6 434.874 671.487 440.257 669.66 441.648 673.996 443.028 678.342 447.861 677.363 450.372 679.969 452.365 683.379 454.439 686.673 459.948 684.663" style="fill: #fff;"/>
    <polyline points="408.61 660.223 411.495 662.241 417.975 658.713 418.188 664.856 420.488 667.784 427.226 663.857 428.877 667.789 434.49 665.6 434.874 671.487 440.257 669.66 441.648 673.996 443.028 678.342 447.861 677.363 450.372 679.969 452.365 683.379 454.439 686.673 459.948 684.663" style="fill: none; stroke: #000; stroke-linecap: round; stroke-linejoin: round; stroke-width: 35px;"/>
  </g>
  <g>
    <polyline points="835.585 443.846 835.25 448.279 836.928 454.399 833.017 455.853 832.637 460.257 824.925 458.54 821.184 460.14 824.293 467.456 817.222 466.28 814.474 468.704 815.877 474.596 813.266 477.142 807.803 477.308 808.199 482.37 802.419 482.28" style="fill: #fff;"/>
    <polyline points="835.585 443.846 835.25 448.279 836.928 454.399 833.017 455.853 832.637 460.257 824.925 458.54 821.184 460.14 824.293 467.456 817.222 466.28 814.474 468.704 815.877 474.596 813.266 477.142 807.803 477.308 808.199 482.37 802.419 482.28" style="fill: none; stroke: #000; stroke-linecap: round; stroke-linejoin: round; stroke-width: 35px;"/>
  </g>
  <g>
    <polyline points="742.339 568.919 741.399 573.434 739.802 577.213 732.798 574.881 730.745 578.148 730.207 583.121 725.834 583.767 727.218 590.917 723.802 592.646 718.84 592.622 718.332 597.635 710.899 594.827 710.608 600.086 706.241 600.752 706.301 606.418" style="fill: #fff;"/>
    <polyline points="742.339 568.919 741.399 573.434 739.802 577.213 732.798 574.881 730.745 578.148 730.207 583.121 725.834 583.767 727.218 590.917 723.802 592.646 718.84 592.622 718.332 597.635 710.899 594.827 710.608 600.086 706.241 600.752 706.301 606.418" style="fill: none; stroke: #000; stroke-linecap: round; stroke-linejoin: round; stroke-width: 35px;"/>
  </g>
  <g>
    <polyline points="605.517 669.886 603.522 674.59 599.887 675.238 597.201 678.24 595.103 682.685 592.333 685.478 588.537 685.74 584.161 684.571 579.847 683.541 577.24 686.74 575.184 691.3 571.402 691.602 567.541 691.721 562.732 689.5" style="fill: #fff;"/>
    <polyline points="605.517 669.886 603.522 674.59 599.887 675.238 597.201 678.24 595.103 682.685 592.333 685.478 588.537 685.74 584.161 684.571 579.847 683.541 577.24 686.74 575.184 691.3 571.402 691.602 567.541 691.721 562.732 689.5" style="fill: none; stroke: #000; stroke-linecap: round; stroke-linejoin: round; stroke-width: 35px;"/>
  </g>
</svg>