<?xml version="1.0" encoding="UTF-8"?>
<svg id="Sticker" xmlns="http://www.w3.org/2000/svg" width="1000" height="1000" viewBox="0 0 1000 1000">
  <g>
    <polygon points="149.68 364.008 153.992 360.783 157.94 359.85 161.216 358.154 161.128 352.647 166.541 353.376 167.95 349.568 174.566 351.661 175.07 346.827 178.996 345.871 181.787 343.627 179.041 335.106 182.254 333.342 187.109 333.44 188.919 330.091 192.721 329.001 195.016 326.205 198.713 324.998 198.662 319.544 201.239 317.067 207.333 318.576 210.556 316.829 209.642 310.391 211.032 306.562 219.015 310.199 222.142 308.335 220.262 300.798 228.306 304.513 226.408 296.961 228.557 293.995 232.902 293.519 236.36 292.035 236.593 286.895 243.487 289.302 241.018 281.091 247.202 282.691 246.022 275.947 254.4 280.039 257.355 277.983 254.992 269.901 260.276 270.483 260.334 265.138 266.76 267.009 266.757 261.598 269.741 259.573 274.678 259.762 274.378 254.014 277.545 252.191 284.119 254.23 284.355 249.089 286.224 245.8 292.602 247.617 294.289 244.115 292.661 236.859 300.395 240.215 296.956 230.906 304.259 233.769 304.916 229.103 311.275 230.897 307.926 221.688 314.78 224.045 317.923 222.193 319.04 218.055 318.435 211.958 322.093 210.694 324.6 208.128 326.907 205.334 332.761 206.553 332.446 200.787 335.299 198.604 338.321 196.616 342.284 195.689 343.338 191.469 347.638 190.926 349.703 187.846 356.829 190.514 358.281 186.744 359.087 182.236 364.252 182.668 365.748 178.94 366.321 174.156 368.546 169.324 373.351 167.917 377.396 175.372 380.948 174.222 384.417 171.581 388.059 171.965 391.475 168.409 395.018 167.079 399.006 173.532 402.376 169.271 406.003 169.504 409.754 171.905 413.085 166.932 417.166 175.077 420.704 173.678 424.367 174.403 427.891 172.747 431.418 171.169 434.721 165.68 438.601 170.32 442.37 172.993 445.503 164.495 449.258 166.861 452.991 168.822 456.817 172.453 460.108 166.74 463.557 163.788 467.194 164.11 470.728 162.577 474.384 163.196 478.27 167.87 482.07 171.042 485.313 164.445 488.923 164.221 492.364 161.087 496.263 165.98 499.731 163.299 503.621 167.983 507.193 167.13 510.887 168.403 514.112 161.451 518.092 167.731 521.449 163.08 525.163 164.695 528.635 162.069 532.258 162.081 535.808 160.801 539.359 159.62 543.055 160.901 546.724 161.783 550.428 163.2 554.248 166.686 557.381 158.092 561.194 161.43 565.008 164.772 568.551 163.322 571.836 157.365 575.58 159.45 579.303 161.175 582.949 161.544 586.755 164.695 590.397 164.879 594.505 157.638 596.325 162.706 597.106 167.665 599.447 170.541 604.746 169.468 606.935 172.546 610.369 173.963 614.292 174.728 614.942 179.863 618.524 181.084 620.64 184.265 626.091 182.994 631.24 182.123 634.117 184.284 634.735 189.46 634.636 195.593 641.684 192.188 640.762 199.423 644.549 200.373 650.803 198.029 651.667 202.879 654.77 204.74 656.011 209.085 657.744 212.764 663.414 211.187 663.627 216.894 667.177 218.149 670.59 219.586 675.625 218.861 680.022 218.99 678.177 227.454 685.658 223.473 685.321 229.928 688.361 231.871 692.502 232.343 696.877 232.5 695.072 240.905 699.186 241.41 702.553 242.915 708.652 240.774 708.023 247.616 710.184 250.74 715.082 250.208 718.964 251.028 719.624 256.148 722.823 257.877 725.051 260.904 727.556 263.563 730.38 265.802 733.422 267.749 735.865 270.493 743.375 266.471 740.865 275.824 745.832 275.199 746.392 280.46 749.97 281.693 753.056 283.577 760.353 279.843 760.692 285.397 764.914 285.773 769.275 285.959 768.175 293.434 770.985 295.691 778.199 292.072 776.892 299.824 783.864 296.527 781.598 305.563 789.447 301.095 787.954 309.098 795.354 305.23 794.599 312.246 800.951 309.774 801.97 314.415 801.771 320.686 806.787 320.003 812.472 318.42 815.048 320.994 812.67 330.177 816.73 330.773 818.735 334.107 821.48 336.458 828.986 332.456 831.488 335.134 831.463 341.177 835.051 342.404 841.234 340.168 841.807 345.422 843.089 349.74 845.672 350.632 841.697 352.012 842.379 356.022 843.706 360.248 839.279 362.556 838.343 366.029 837.931 369.677 842.357 374.938 837.904 377.236 837.06 380.737 837.214 384.571 834.447 387.43 832.948 390.711 833.715 394.749 833.355 398.411 828.932 400.718 833.418 405.997 829.042 408.32 828.789 412.02 823.917 414.18 822.384 417.454 828.13 423.157 822.803 425.164 823.562 429.2 817.799 431.061 822.95 436.562 820.002 439.361 820.396 443.275 815.031 445.269 813.942 448.689 810.167 451.214 810.906 455.246 810.657 458.95 808.147 461.898 807.585 465.495 803.253 467.833 808.198 473.266 802.464 475.137 805.475 479.925 799.555 481.734 806.066 487.691 803.284 490.549 799.913 493.21 796.944 496.006 801.255 501.228 796.305 503.361 795.888 507.006 789.921 508.8 790.093 512.642 793.636 517.609 788.582 519.71 789.668 523.858 790.033 527.765 786.582 530.398 784.271 533.412 785.979 537.766 787.98 542.219 778.723 542.918 778.097 546.495 781.284 551.344 781.389 555.164 775.043 556.832 781.521 562.779 774.997 564.389 770.2 566.574 768.942 569.938 769.306 573.841 770.755 578.105 771.012 581.971 773.664 586.636 771.631 589.739 770.125 593.019 768.416 596.233 759.664 597.102 762.995 601.999 758.987 604.445 760.346 608.681 762.725 613.257 763.286 617.227 754.514 618.085 755.421 622.175 758.668 627.046 755.167 629.663 757.619 634.265 755.749 637.425 749.703 639.194 747.827 642.356 745.282 645.295 744.531 648.83 743.677 652.33 743.032 655.902 746.818 660.955 740.363 662.588 739.223 665.994 743.756 671.294 740.023 673.838 738.314 677.055 739.593 681.27 732.145 682.574 733.867 686.937 732.557 690.289 727.902 692.525 728.575 696.539 726.182 699.53 725.961 703.246 730.95 708.696 725.779 710.76 722.812 713.556 722.227 717.15 724.102 721.563 723.626 725.196 724.823 729.384 719.793 731.496 722.562 736.212 715.466 737.637 718.498 742.437 712.618 744.268 716.683 749.416 709.318 750.753 707.497 753.945 708.018 756.825 709.061 762.276 706.609 764.937 702.844 765.907 699.703 767.681 697.734 770.965 693.218 770.962 688.851 771.155 687.7 775.498 686.056 779.202 685.174 783.888 678.302 780.852 674.456 781.72 674.921 788.143 671.358 789.374 671.456 795.328 663.722 791.181 661.205 793.762 660.04 798.086 656.108 798.841 652.462 799.963 653.409 807.003 646.314 803.675 646.544 809.801 643.115 811.201 637.621 809.945 635.497 813.033 633.865 816.759 631.135 819.068 628.144 821.041 629.382 828.471 626.425 830.491 623.254 832.229 615.226 827.71 613.689 831.562 612.743 836.177 609.904 838.36 605.952 838.141 602.944 844.741 599.344 840.12 595.743 837.02 592.14 844.102 588.534 841.134 584.929 844.623 581.327 837.238 577.726 835.496 574.125 839.787 570.524 844.024 566.921 844.428 563.315 841.05 559.71 837.318 556.106 835.216 552.503 839.86 548.901 837.964 545.297 841.014 541.69 842.822 538.085 839.446 534.481 844.6 530.877 839.746 527.272 837.689 523.664 842.352 520.058 843.837 516.454 836.615 512.848 844.867 509.24 842.137 505.635 841.061 502.028 836.153 498.421 837.616 494.815 835.713 491.207 835.836 487.6 843.88 483.992 839.02 480.385 840.458 476.777 841.334 473.173 841.044 469.565 837.747 465.962 844.787 462.354 840.584 458.748 842.351 455.139 839.544 451.532 842.482 447.923 843.596 444.312 839.482 440.702 841.013 437.091 836.12 433.482 844.428 429.872 838.245 426.261 837.23 422.644 839.879 418.24 842.121 414.832 839.388 413.526 835.322 412.454 830.963 410.648 827.511 404.976 828.854 404.29 824.017 397.831 826.339 394.737 824.486 392.967 820.987 390.28 818.629 390.802 812.292 384.278 814.691 385.464 807.527 379.744 808.93 380.344 802.493 377.629 800.166 371.894 801.587 369.006 799.474 363.263 800.906 365.165 792.854 360.305 793.193 359.098 789.005 353.152 790.69 354.135 783.775 351.511 781.34 344.234 784.671 344.373 778.806 341.745 776.367 340.776 771.874 334.033 774.54 331.418 772.084 328.147 770.441 326.495 766.796 323.651 764.624 323.697 758.867 319.628 758.212 314.587 758.753 310.77 756.524 313.601 750.616 309.325 748.48 308.361 744.979 308.672 740.954 307.68 737.467 301.966 735.925 305.434 730.602 298.819 729.432 303.506 723.607 297.998 721.982 301.924 716.47 296.139 714.958 297.061 710.683 298.657 706.13 288.239 706.525 293.567 700.432 291.334 697.453 290.832 693.762 285.014 692.262 286.774 687.641 285.942 684.088 285.327 680.446 280.749 678.437 281.855 674.086 281.167 670.473 282.05 666.214 279.053 663.551 270.26 663.275 273.017 658.24 273.988 653.942 272.668 650.589 271.281 647.264 266.789 645.218 267.728 640.935 261.805 639.479 260.294 636.205 257.926 633.283 256.601 629.931 263.35 623.251 258.713 621.264 253.909 619.345 253.728 615.523 252.897 611.969 256.002 606.793 249.032 605.767 247.09 602.668 245.002 599.629 248.882 594.133 244.22 592.155 248.562 586.469 240.952 585.707 243.772 580.648 242.291 577.36 243.602 572.921 240.216 570.417 239.474 566.824 236.817 564.021 232.015 562.101 229.787 559.121 230.3 555.01 226.707 552.592 231.21 546.841 227.385 544.523 228.171 540.306 228.45 536.298 219.697 536.011 218.745 532.51 223.646 526.596 216.376 525.693 215.843 522.012 212.905 519.324 213.91 515.014 212.606 511.656 210.82 508.497 209.55 505.124 208.446 501.682 207.359 498.23 206.149 494.828 200.491 493.261 201.613 488.902 205.204 483.527 204.233 480.028 202.849 476.698 198.661 474.523 198.212 470.809 198.921 466.619 196.37 463.771 191.901 461.709 195.143 456.474 190.134 454.638 184.289 453.146 182.763 449.872 181.543 446.475 186.392 440.577 185.534 437.028 183.516 433.959 176.926 432.771 182.259 426.673 174.18 426.099 174.123 422.221 171.437 419.431 176.306 413.527 171.597 411.564 169.96 408.341 172.871 403.238 170.319 400.389 165.055 398.653 163.156 395.533 164.979 390.879 159.929 389.053 159.97 385.13 158.078 382.009 161.681 376.619 159.084 373.783 159.744 369.604 155.819 366.657 149.68 364.008" style="fill: #fff;"/>
    <polygon points="149.68 364.008 153.992 360.783 157.94 359.85 161.216 358.154 161.128 352.647 166.541 353.376 167.95 349.568 174.566 351.661 175.07 346.827 178.996 345.871 181.787 343.627 179.041 335.106 182.254 333.342 187.109 333.44 188.919 330.091 192.721 329.001 195.016 326.205 198.713 324.998 198.662 319.544 201.239 317.067 207.333 318.576 210.556 316.829 209.642 310.391 211.032 306.562 219.015 310.199 222.142 308.335 220.262 300.798 228.306 304.513 226.408 296.961 228.557 293.995 232.902 293.519 236.36 292.035 236.593 286.895 243.487 289.302 241.018 281.091 247.202 282.691 246.022 275.947 254.4 280.039 257.355 277.983 254.992 269.901 260.276 270.483 260.334 265.138 266.76 267.009 266.757 261.598 269.741 259.573 274.678 259.762 274.378 254.014 277.545 252.191 284.119 254.23 284.355 249.089 286.224 245.8 292.602 247.617 294.289 244.115 292.661 236.859 300.395 240.215 296.956 230.906 304.259 233.769 304.916 229.103 311.275 230.897 307.926 221.688 314.78 224.045 317.923 222.193 319.04 218.055 318.435 211.958 322.093 210.694 324.6 208.128 326.907 205.334 332.761 206.553 332.446 200.787 335.299 198.604 338.321 196.616 342.284 195.689 343.338 191.469 347.638 190.926 349.703 187.846 356.829 190.514 358.281 186.744 359.087 182.236 364.252 182.668 365.748 178.94 366.321 174.156 368.546 169.324 373.351 167.917 377.396 175.372 380.948 174.222 384.417 171.581 388.059 171.965 391.475 168.409 395.018 167.079 399.006 173.532 402.376 169.271 406.003 169.504 409.754 171.905 413.085 166.932 417.166 175.077 420.704 173.678 424.367 174.403 427.891 172.747 431.418 171.169 434.721 165.68 438.601 170.32 442.37 172.993 445.503 164.495 449.258 166.861 452.991 168.822 456.817 172.453 460.108 166.74 463.557 163.788 467.194 164.11 470.728 162.577 474.384 163.196 478.27 167.87 482.07 171.042 485.313 164.445 488.923 164.221 492.364 161.087 496.263 165.98 499.731 163.299 503.621 167.983 507.193 167.13 510.887 168.403 514.112 161.451 518.092 167.731 521.449 163.08 525.163 164.695 528.635 162.069 532.258 162.081 535.808 160.801 539.359 159.62 543.055 160.901 546.724 161.783 550.428 163.2 554.248 166.686 557.381 158.092 561.194 161.43 565.008 164.772 568.551 163.322 571.836 157.365 575.58 159.45 579.303 161.175 582.949 161.544 586.755 164.695 590.397 164.879 594.505 157.638 596.325 162.706 597.106 167.665 599.447 170.541 604.746 169.468 606.935 172.546 610.369 173.963 614.292 174.728 614.942 179.863 618.524 181.084 620.64 184.265 626.091 182.994 631.24 182.123 634.117 184.284 634.735 189.46 634.636 195.593 641.684 192.188 640.762 199.423 644.549 200.373 650.803 198.029 651.667 202.879 654.77 204.74 656.011 209.085 657.744 212.764 663.414 211.187 663.627 216.894 667.177 218.149 670.59 219.586 675.625 218.861 680.022 218.99 678.177 227.454 685.658 223.473 685.321 229.928 688.361 231.871 692.502 232.343 696.877 232.5 695.072 240.905 699.186 241.41 702.553 242.915 708.652 240.774 708.023 247.616 710.184 250.74 715.082 250.208 718.964 251.028 719.624 256.148 722.823 257.877 725.051 260.904 727.556 263.563 730.38 265.802 733.422 267.749 735.865 270.493 743.375 266.471 740.865 275.824 745.832 275.199 746.392 280.46 749.97 281.693 753.056 283.577 760.353 279.843 760.692 285.397 764.914 285.773 769.275 285.959 768.175 293.434 770.985 295.691 778.199 292.072 776.892 299.824 783.864 296.527 781.598 305.563 789.447 301.095 787.954 309.098 795.354 305.23 794.599 312.246 800.951 309.774 801.97 314.415 801.771 320.686 806.787 320.003 812.472 318.42 815.048 320.994 812.67 330.177 816.73 330.773 818.735 334.107 821.48 336.458 828.986 332.456 831.488 335.134 831.463 341.177 835.051 342.404 841.234 340.168 841.807 345.422 843.089 349.74 845.672 350.632 841.697 352.012 842.379 356.022 843.706 360.248 839.279 362.556 838.343 366.029 837.931 369.677 842.357 374.938 837.904 377.236 837.06 380.737 837.214 384.571 834.447 387.43 832.948 390.711 833.715 394.749 833.355 398.411 828.932 400.718 833.418 405.997 829.042 408.32 828.789 412.02 823.917 414.18 822.384 417.454 828.13 423.157 822.803 425.164 823.562 429.2 817.799 431.061 822.95 436.562 820.002 439.361 820.396 443.275 815.031 445.269 813.942 448.689 810.167 451.214 810.906 455.246 810.657 458.95 808.147 461.898 807.585 465.495 803.253 467.833 808.198 473.266 802.464 475.137 805.475 479.925 799.555 481.734 806.066 487.691 803.284 490.549 799.913 493.21 796.944 496.006 801.255 501.228 796.305 503.361 795.888 507.006 789.921 508.8 790.093 512.642 793.636 517.609 788.582 519.71 789.668 523.858 790.033 527.765 786.582 530.398 784.271 533.412 785.979 537.766 787.98 542.219 778.723 542.918 778.097 546.495 781.284 551.344 781.389 555.164 775.043 556.832 781.521 562.779 774.997 564.389 770.2 566.574 768.942 569.938 769.306 573.841 770.755 578.105 771.012 581.971 773.664 586.636 771.631 589.739 770.125 593.019 768.416 596.233 759.664 597.102 762.995 601.999 758.987 604.445 760.346 608.681 762.725 613.257 763.286 617.227 754.514 618.085 755.421 622.175 758.668 627.046 755.167 629.663 757.619 634.265 755.749 637.425 749.703 639.194 747.827 642.356 745.282 645.295 744.531 648.83 743.677 652.33 743.032 655.902 746.818 660.955 740.363 662.588 739.223 665.994 743.756 671.294 740.023 673.838 738.314 677.055 739.593 681.27 732.145 682.574 733.867 686.937 732.557 690.289 727.902 692.525 728.575 696.539 726.182 699.53 725.961 703.246 730.95 708.696 725.779 710.76 722.812 713.556 722.227 717.15 724.102 721.563 723.626 725.196 724.823 729.384 719.793 731.496 722.562 736.212 715.466 737.637 718.498 742.437 712.618 744.268 716.683 749.416 709.318 750.753 707.497 753.945 708.018 756.825 709.061 762.276 706.609 764.937 702.844 765.907 699.703 767.681 697.734 770.965 693.218 770.962 688.851 771.155 687.7 775.498 686.056 779.202 685.174 783.888 678.302 780.852 674.456 781.72 674.921 788.143 671.358 789.374 671.456 795.328 663.722 791.181 661.205 793.762 660.04 798.086 656.108 798.841 652.462 799.963 653.409 807.003 646.314 803.675 646.544 809.801 643.115 811.201 637.621 809.945 635.497 813.033 633.865 816.759 631.135 819.068 628.144 821.041 629.382 828.471 626.425 830.491 623.254 832.229 615.226 827.71 613.689 831.562 612.743 836.177 609.904 838.36 605.952 838.141 602.944 844.741 599.344 840.12 595.743 837.02 592.14 844.102 588.534 841.134 584.929 844.623 581.327 837.238 577.726 835.496 574.125 839.787 570.524 844.024 566.921 844.428 563.315 841.05 559.71 837.318 556.106 835.216 552.503 839.86 548.901 837.964 545.297 841.014 541.69 842.822 538.085 839.446 534.481 844.6 530.877 839.746 527.272 837.689 523.664 842.352 520.058 843.837 516.454 836.615 512.848 844.867 509.24 842.137 505.635 841.061 502.028 836.153 498.421 837.616 494.815 835.713 491.207 835.836 487.6 843.88 483.992 839.02 480.385 840.458 476.777 841.334 473.173 841.044 469.565 837.747 465.962 844.787 462.354 840.584 458.748 842.351 455.139 839.544 451.532 842.482 447.923 843.596 444.312 839.482 440.702 841.013 437.091 836.12 433.482 844.428 429.872 838.245 426.261 837.23 422.644 839.879 418.24 842.121 414.832 839.388 413.526 835.322 412.454 830.963 410.648 827.511 404.976 828.854 404.29 824.017 397.831 826.339 394.737 824.486 392.967 820.987 390.28 818.629 390.802 812.292 384.278 814.691 385.464 807.527 379.744 808.93 380.344 802.493 377.629 800.166 371.894 801.587 369.006 799.474 363.263 800.906 365.165 792.854 360.305 793.193 359.098 789.005 353.152 790.69 354.135 783.775 351.511 781.34 344.234 784.671 344.373 778.806 341.745 776.367 340.776 771.874 334.033 774.54 331.418 772.084 328.147 770.441 326.495 766.796 323.651 764.624 323.697 758.867 319.628 758.212 314.587 758.753 310.77 756.524 313.601 750.616 309.325 748.48 308.361 744.979 308.672 740.954 307.68 737.467 301.966 735.925 305.434 730.602 298.819 729.432 303.506 723.607 297.998 721.982 301.924 716.47 296.139 714.958 297.061 710.683 298.657 706.13 288.239 706.525 293.567 700.432 291.334 697.453 290.832 693.762 285.014 692.262 286.774 687.641 285.942 684.088 285.327 680.446 280.749 678.437 281.855 674.086 281.167 670.473 282.05 666.214 279.053 663.551 270.26 663.275 273.017 658.24 273.988 653.942 272.668 650.589 271.281 647.264 266.789 645.218 267.728 640.935 261.805 639.479 260.294 636.205 257.926 633.283 256.601 629.931 263.35 623.251 258.713 621.264 253.909 619.345 253.728 615.523 252.897 611.969 256.002 606.793 249.032 605.767 247.09 602.668 245.002 599.629 248.882 594.133 244.22 592.155 248.562 586.469 240.952 585.707 243.772 580.648 242.291 577.36 243.602 572.921 240.216 570.417 239.474 566.824 236.817 564.021 232.015 562.101 229.787 559.121 230.3 555.01 226.707 552.592 231.21 546.841 227.385 544.523 228.171 540.306 228.45 536.298 219.697 536.011 218.745 532.51 223.646 526.596 216.376 525.693 215.843 522.012 212.905 519.324 213.91 515.014 212.606 511.656 210.82 508.497 209.55 505.124 208.446 501.682 207.359 498.23 206.149 494.828 200.491 493.261 201.613 488.902 205.204 483.527 204.233 480.028 202.849 476.698 198.661 474.523 198.212 470.809 198.921 466.619 196.37 463.771 191.901 461.709 195.143 456.474 190.134 454.638 184.289 453.146 182.763 449.872 181.543 446.475 186.392 440.577 185.534 437.028 183.516 433.959 176.926 432.771 182.259 426.673 174.18 426.099 174.123 422.221 171.437 419.431 176.306 413.527 171.597 411.564 169.96 408.341 172.871 403.238 170.319 400.389 165.055 398.653 163.156 395.533 164.979 390.879 159.929 389.053 159.97 385.13 158.078 382.009 161.681 376.619 159.084 373.783 159.744 369.604 155.819 366.657 149.68 364.008" style="fill: none; stroke: #000; stroke-linecap: round; stroke-linejoin: round; stroke-width: 40px;"/>
  </g>
  <g>
    <polyline points="404.112 329.354 407.737 336.821 411.362 332.644 414.986 336.494 418.611 337.462 422.23 331.445 425.849 329.523 429.469 333.869 433.09 334.351 436.714 328.615 440.341 332.417 443.965 328.942 447.588 335.793 451.209 337.698 454.83 334.456 458.452 330.517 462.075 328.855 465.701 333.739 469.327 337.447 472.951 337.512 476.574 337.344 480.197 332.819 483.822 336.751 487.448 328.65 491.075 333.225 494.699 330.987 498.323 335.753 501.949 337.433 505.577 334.991 509.203 328.96 512.828 328.348 516.454 332.106 520.082 328.897 523.708 329.766 527.335 332.909 530.963 335.281 534.589 333.998 538.217 331.525 541.845 336.14 545.473 332.924 549.1 336.942 552.729 332.558 556.357 330.281 559.985 337.378 563.608 337.442 567.236 331.002 570.862 332.089 574.492 334.12 578.119 330.367 581.748 336.131 585.379 337.025 589.009 336.937 592.64 335.398 596.27 333.555 599.9 337.102 603.531 331.206 607.167 330.171 610.336 331.593 615.553 332.356 613.971 325.654 615.047 321.607 619.369 320.803 620.72 317.029 625.99 317.176 630.446 316.51 631.233 312.173 633.613 309.425 634.429 305.116 638.079 303.643 643.621 304.059 643.654 298.965 643.323 293.509 651.159 296.22 652.655 292.588 651.487 286.294 655.735 285.427 657.4 281.974 662.711 282.16 666.817 281.14 670.483 279.685 667.707 271.785 674.901 273.85 672.85 266.674 675.963 264.657 676.455 260.021 683.524 261.959 683.395 256.701 690.347 258.521 693.219 256.259 692.782 250.699 697.19 249.977 695.95 243.602 698.083 240.599 705.759 243.138 703.905 236.138 707.95 235.037" style="fill: #fff;"/>
    <polyline points="404.112 329.354 407.737 336.821 411.362 332.644 414.986 336.494 418.611 337.462 422.23 331.445 425.849 329.523 429.469 333.869 433.09 334.351 436.714 328.615 440.341 332.417 443.965 328.942 447.588 335.793 451.209 337.698 454.83 334.456 458.452 330.517 462.075 328.855 465.701 333.739 469.327 337.447 472.951 337.512 476.574 337.344 480.197 332.819 483.822 336.751 487.448 328.65 491.075 333.225 494.699 330.987 498.323 335.753 501.949 337.433 505.577 334.991 509.203 328.96 512.828 328.348 516.454 332.106 520.082 328.897 523.708 329.766 527.335 332.909 530.963 335.281 534.589 333.998 538.217 331.525 541.845 336.14 545.473 332.924 549.1 336.942 552.729 332.558 556.357 330.281 559.985 337.378 563.608 337.442 567.236 331.002 570.862 332.089 574.492 334.12 578.119 330.367 581.748 336.131 585.379 337.025 589.009 336.937 592.64 335.398 596.27 333.555 599.9 337.102 603.531 331.206 607.167 330.171 610.336 331.593 615.553 332.356 613.971 325.654 615.047 321.607 619.369 320.803 620.72 317.029 625.99 317.176 630.446 316.51 631.233 312.173 633.613 309.425 634.429 305.116 638.079 303.643 643.621 304.059 643.654 298.965 643.323 293.509 651.159 296.22 652.655 292.588 651.487 286.294 655.735 285.427 657.4 281.974 662.711 282.16 666.817 281.14 670.483 279.685 667.707 271.785 674.901 273.85 672.85 266.674 675.963 264.657 676.455 260.021 683.524 261.959 683.395 256.701 690.347 258.521 693.219 256.259 692.782 250.699 697.19 249.977 695.95 243.602 698.083 240.599 705.759 243.138 703.905 236.138 707.95 235.037" style="fill: none; stroke: #000; stroke-linecap: round; stroke-linejoin: round; stroke-width: 40px;"/>
  </g>
  <g>
    <polyline points="150.38 368.149 157.384 364.069 159.265 367.719 160.91 371.722 166.609 369.603 169.486 371.745 168.731 379.367 174.276 377.483 178.648 377.37 179.854 382.041 180.549 387.488 185.364 386.714 189.305 387.255 189.141 393.991 196.848 388.843 198.786 392.406 201.558 394.713 204.367 396.968 204.734 402.91 210.65 400.472 213.223 403.078 214.55 407.567 219.758 406.197 221.927 409.421 224.085 412.659 226.294 415.817 228.573 418.87 231.269 421.294 233.815 423.951 240.18 420.838 242.095 424.443 243.879 428.246 250.048 425.432 250.25 431.624 253.701 432.911 258.69 431.881 262.639 432.416 263.3 437.917 264.132 443.159 270.629 439.852 269.888 447.464 276.717 443.646 277.999 448.203 283.282 446.729 285.097 450.482 288.925 451.205 290.086 455.949 291.436 460.415 298.813 455.779 297.689 463.979 304.291 460.518 306.073 464.334 307.278 469.013 310.641 470.441 315.081 470.245 315.083 476.75 321.82 473.1 323.251 477.233 326.676 474.933 330.338 476.458 334.009 478.284 337.683 480.25 341.089 473.188 344.709 473.304 348.427 476.753 352.108 478.896 355.639 475.987 359.302 477.492 362.94 478.104 366.384 472.242 370.171 477.94 373.825 479.202 377.488 480.748 380.844 471.974 384.682 479.428 388.121 473.428 391.791 475.215 395.41 475.222 399.137 478.817 402.555 472.093 406.22 473.654 409.931 476.824 413.433 472.943 417.162 476.711 420.784 476.837 424.406 476.965 427.908 473.025 431.586 475.006 435.154 473.315 438.826 475.127 442.536 478.242 445.906 469.911 449.54 470.428 453.334 476.282 456.889 474.12 460.517 474.436 464.058 471.861 467.629 470.277 471.475 477.915 474.883 470.81 478.522 471.443 482.107 470.324 485.663 468.236 489.547 477.312 492.878 467.843 496.603 471.569 500.2 471.001 503.825 471.298 507.4 469.879 511.192 475.638 514.614 469.025 518.312 471.759 521.79 467.134 525.554 472.134 529.027 467.324 532.723 469.972 536.508 475.525 540.053 472.983 543.624 471.384 547.246 471.565 550.893 472.578 554.453 470.615 558.073 470.584 561.632 468.511 565.355 472.009 568.79 465.87 572.649 473.908 576.288 474.445 579.846 472.394 583.293 466.593 587.021 470.203 590.69 471.786 594.243 469.548 597.963 472.863 601.503 470.107 605.24 474.029 608.663 467.317 612.357 469.768 616.043 471.89 619.66 471.74 623.127 466.49 626.665 463.667 630.426 468.356 633.962 465.6 637.611 466.494 641.422 472.898 644.869 466.996 648.431 464.996 652.191 469.574 655.795 468.88 659.471 470.615 662.946 465.579 666.765 472.14 670.28 468.467 673.968 470.58 677.41 464.216 679.859 463.173 682.21 462.217 688.854 465.368 688.94 459.194 690.905 455.692 697.482 458.75 700.02 456.061 700.152 449.95 704.785 450.234 707.047 447.143 711.083 446.578 713.516 443.736 716.985 442.37 717.51 436.816 720.532 434.813 725.923 436.178 731.193 437.366 729.642 428.851 733.178 427.576 735.65 424.789 742.639 428.426 744.055 424.135 745.717 420.189 751.814 422.553 751.173 415.335 754.213 413.355 759.972 415.237 761.637 411.294 765.548 410.549 767.46 406.962 767.406 400.576 775.253 405.425 775.698 399.751 777.052 395.367 783.869 398.751 783.299 391.631 787.731 391.623 789.206 387.411 792.045 385.137 798.925 388.615 800.661 384.783 805.068 384.745 808.527 383.353 807.895 376.148 813.906 378.384 815.685 374.604 818.001 371.583 821.483 370.224 825.019 368.938 824.816 362.332 831.636 365.714 832.707 360.928 837.674 361.674 836.936 354.306 840.996 353.762 841.978 348.829 845.212 347.099" style="fill: #fff;"/>
    <polyline points="150.38 368.149 157.384 364.069 159.265 367.719 160.91 371.722 166.609 369.603 169.486 371.745 168.731 379.367 174.276 377.483 178.648 377.37 179.854 382.041 180.549 387.488 185.364 386.714 189.305 387.255 189.141 393.991 196.848 388.843 198.786 392.406 201.558 394.713 204.367 396.968 204.734 402.91 210.65 400.472 213.223 403.078 214.55 407.567 219.758 406.197 221.927 409.421 224.085 412.659 226.294 415.817 228.573 418.87 231.269 421.294 233.815 423.951 240.18 420.838 242.095 424.443 243.879 428.246 250.048 425.432 250.25 431.624 253.701 432.911 258.69 431.881 262.639 432.416 263.3 437.917 264.132 443.159 270.629 439.852 269.888 447.464 276.717 443.646 277.999 448.203 283.282 446.729 285.097 450.482 288.925 451.205 290.086 455.949 291.436 460.415 298.813 455.779 297.689 463.979 304.291 460.518 306.073 464.334 307.278 469.013 310.641 470.441 315.081 470.245 315.083 476.75 321.82 473.1 323.251 477.233 326.676 474.933 330.338 476.458 334.009 478.284 337.683 480.25 341.089 473.188 344.709 473.304 348.427 476.753 352.108 478.896 355.639 475.987 359.302 477.492 362.94 478.104 366.384 472.242 370.171 477.94 373.825 479.202 377.488 480.748 380.844 471.974 384.682 479.428 388.121 473.428 391.791 475.215 395.41 475.222 399.137 478.817 402.555 472.093 406.22 473.654 409.931 476.824 413.433 472.943 417.162 476.711 420.784 476.837 424.406 476.965 427.908 473.025 431.586 475.006 435.154 473.315 438.826 475.127 442.536 478.242 445.906 469.911 449.54 470.428 453.334 476.282 456.889 474.12 460.517 474.436 464.058 471.861 467.629 470.277 471.475 477.915 474.883 470.81 478.522 471.443 482.107 470.324 485.663 468.236 489.547 477.312 492.878 467.843 496.603 471.569 500.2 471.001 503.825 471.298 507.4 469.879 511.192 475.638 514.614 469.025 518.312 471.759 521.79 467.134 525.554 472.134 529.027 467.324 532.723 469.972 536.508 475.525 540.053 472.983 543.624 471.384 547.246 471.565 550.893 472.578 554.453 470.615 558.073 470.584 561.632 468.511 565.355 472.009 568.79 465.87 572.649 473.908 576.288 474.445 579.846 472.394 583.293 466.593 587.021 470.203 590.69 471.786 594.243 469.548 597.963 472.863 601.503 470.107 605.24 474.029 608.663 467.317 612.357 469.768 616.043 471.89 619.66 471.74 623.127 466.49 626.665 463.667 630.426 468.356 633.962 465.6 637.611 466.494 641.422 472.898 644.869 466.996 648.431 464.996 652.191 469.574 655.795 468.88 659.471 470.615 662.946 465.579 666.765 472.14 670.28 468.467 673.968 470.58 677.41 464.216 679.859 463.173 682.21 462.217 688.854 465.368 688.94 459.194 690.905 455.692 697.482 458.75 700.02 456.061 700.152 449.95 704.785 450.234 707.047 447.143 711.083 446.578 713.516 443.736 716.985 442.37 717.51 436.816 720.532 434.813 725.923 436.178 731.193 437.366 729.642 428.851 733.178 427.576 735.65 424.789 742.639 428.426 744.055 424.135 745.717 420.189 751.814 422.553 751.173 415.335 754.213 413.355 759.972 415.237 761.637 411.294 765.548 410.549 767.46 406.962 767.406 400.576 775.253 405.425 775.698 399.751 777.052 395.367 783.869 398.751 783.299 391.631 787.731 391.623 789.206 387.411 792.045 385.137 798.925 388.615 800.661 384.783 805.068 384.745 808.527 383.353 807.895 376.148 813.906 378.384 815.685 374.604 818.001 371.583 821.483 370.224 825.019 368.938 824.816 362.332 831.636 365.714 832.707 360.928 837.674 361.674 836.936 354.306 840.996 353.762 841.978 348.829 845.212 347.099" style="fill: none; stroke: #000; stroke-linecap: round; stroke-linejoin: round; stroke-width: 40px;"/>
  </g>
  <polyline points="607.757 334.324 612.375 335.974 616.663 337.799 611.99 344.319 619.788 344.304 621.832 347.301 617.66 353.555 619.694 356.559 628.589 355.972 624.507 362.182 623.542 366.757 633.363 365.683 632.927 369.982 634.949 372.997 633.936 377.599 636.936 380.099 638.337 383.437 639.441 386.932 639.563 390.94 642.31 393.573 646.865 395.261 649.241 398.089 644.522 404.635 652.582 404.486 654.104 407.763 653.07 412.375 656.123 414.843 659.214 417.294 659.313 421.317 659.587 425.244 659.19 429.527 662.359 431.939 663.471 435.433 661.836 440.363 666.96 441.755 672.475 442.944 669.861 448.391 670.04 452.37 670.635 456.137 673.64 458.641 679.796 459.495 680.238 463.349 676.725 467.611 681.668 470.736 675.204 473.099 682.922 478.298 674.031 480.177 677.463 484.521 673.165 487.32 671.357 490.616 671.844 494.37 671.623 497.982 677.632 502.84 677.21 506.411 669.732 508.571 671.01 512.482 667.38 515.412 669.576 519.507 668.216 522.892 670.379 526.983 665.664 529.699 667.138 533.651 665.642 537.009 665.218 540.581 666.501 544.494 665.85 548.02 663.829 551.272 665.966 555.356 664.292 558.678 664.385 562.355 661.998 565.537 662.451 569.286 660.882 572.629 660.198 576.149 662.627 580.292 658.997 583.223 656.471 586.375 660.614 590.861 658.836 594.165 650.544 596.165 655.322 600.778 650.42 603.455 656.353 608.299 650.437 610.773 653.493 615.043 648.66 617.735 650.679 621.798 650.037 625.328 649.34 628.846 648.987 632.433 651.699 636.634 650.225 639.998 643.997 642.411 644.935 646.257 646.943 650.313 644.958 653.569 643.191 656.869 642.328 660.349 644.771 664.492 638.095 666.812 637.375 670.325 644.428 675.396 639.656 678.1 642.31 682.287 640.199 685.52 639.579 689.051 640.871 692.965 633.461 695.14 634.834 699.074 635.733 702.914 636.114 706.648 634.717 710.025 635.607 713.86 634.33 717.262 631.417 720.341 629.288 723.575 626.239 726.623 627.168 730.467 629.063 734.505 623.15 736.985 621.373 740.289 626.414 744.956 626.001 748.534 625.217 752.038 622.469 755.148 625.037 759.322 622.003 762.377 621.25 765.887 616.698 768.639 615.515 772.063 621.935 777.009 622.7 780.823 615.467 783.04 613.14 786.232 611.621 789.59 611.855 793.294 616.427 797.871 615.608 801.367 609.345 803.778 611.556 807.882 613.065 811.846 611.96 815.29 615.546 819.672 612.609 822.745 614.219 826.732 611.78 829.909 611.809 833.581 606.773 836.245 611.269 840.816" style="fill: none; stroke: #000; stroke-linecap: round; stroke-linejoin: round; stroke-width: 40px;"/>
  <g>
    <polyline points="415.938 840.689 418.966 836.163 414.737 833.557 420.624 828.273 416.926 825.524 416.061 822.027 411.133 819.606 411.705 815.73 413.379 811.563 406.708 809.605 406.645 805.898 404.247 802.809 409.975 797.568 406.624 794.73 401.43 792.38 406.641 787.274 400.454 785.184 401.346 781.222 405.372 776.43 398.893 774.42 399.846 770.443 403.794 765.674 401.767 762.486 395.982 760.292 398.137 755.996 397.374 752.471 394.811 749.422 395.411 745.537 394.566 742.034 387.907 740.072 388.354 736.228 391.148 731.763 386.615 729.238 386.439 725.558 389.85 720.927 389.567 717.275 385.829 714.538 381.818 711.874 383.631 707.669 387.241 702.987 382.898 700.41 376.487 698.38 377.118 694.485 381.563 689.582 382.487 685.611 380.025 682.537 377.078 679.59 374.029 676.67 372.194 673.428 375.865 668.732 370.54 666.418 369.497 662.973 375.178 657.748 368.428 655.813 370.502 651.542 369.907 647.976 363.776 645.873 361.718 642.689 369.001 637.034 365.794 634.158 367.388 630.012 367.017 626.387 364.077 623.442 362.772 620.061 358.584 617.442 358.325 613.782 361.13 609.313 359.245 606.087 356.997 602.957 360.217 598.378 350.896 597.116 351.25 593.294 354.366 588.742 354.766 584.91 348.243 582.909 348.362 579.146 345.6 576.15 346.847 572.092 348.947 567.807 350.842 563.576 349.542 560.192 342.179 558.412 346.712 553.481 339.681 551.614 336.97 548.601 345.366 542.649 335.214 541.605 336.032 537.659 336.226 533.876 335.332 530.387 340.801 525.209 330.346 524.25 334.291 519.475 335.079 515.538 333.256 512.288 331.034 509.146 330.704 505.502 330.131 501.92 330.962 497.967 323.326 496.259 326.524 491.68 326.63 487.918 325.542 484.471 320.469 482.074 325.399 477.909 325.388 474.754 328.124 472.155 325.604 466.62 332.392 466.286 333.385 462.711 335.218 459.603 336.994 456.463 338.046 452.92 337.447 448.457 342.223 446.997 339.431 441.306 344.718 440.126 349.737 438.799 351.562 435.688 346.117 428.514 355.389 429.564 357.147 426.411 355.182 421.181 354.546 416.694 359.211 415.168 361.775 412.466 358.601 406.56 366.87 407.047 365.874 402.356 369.891 400.467 368.799 395.722 370.607 392.598 370.405 388.351 373.875 386.158 374.024 382.113 374.364 378.173 379.039 376.65 384.657 375.658 382.95 370.569 388.13 369.33 386.82 364.46 384.583 359.075 394.084 360.248 390.338 354.015 393.872 351.851 397.851 349.941 397.764 345.754 398.262 341.893 403.412 340.631 400.109 334.638 403.918 332.767 400.406 331.595 400.001 326.212 397.878 323.046 395.116 320.701 388.216 323.688 388.221 317.773 383.84 317.51 383.718 311.761 380.065 310.564 374.238 312.166 375.29 304.899 371.341 304.08 364.486 307.007 364.141 301.543 360.071 300.877 355.566 300.774 356.433 293.748 352.875 292.422 347.174 293.86 346.678 288.588 343.863 286.305 342.885 281.658 336.201 284.364 333.839 281.506 333.897 275.526 327.112 278.357 325.001 275.171 321.623 273.611 322.798 266.188 318.896 265.302 313.095 266.865 309.598 265.457 311.585 256.979 306.047 258.199 304.629 254.116 298.971 255.491 295.662 253.838 297.41 245.666 292.9 245.549 290.877 242.228" style="fill: #fff;"/>
    <polyline points="415.938 840.689 418.966 836.163 414.737 833.557 420.624 828.273 416.926 825.524 416.061 822.027 411.133 819.606 411.705 815.73 413.379 811.563 406.708 809.605 406.645 805.898 404.247 802.809 409.975 797.568 406.624 794.73 401.43 792.38 406.641 787.274 400.454 785.184 401.346 781.222 405.372 776.43 398.893 774.42 399.846 770.443 403.794 765.674 401.767 762.486 395.982 760.292 398.137 755.996 397.374 752.471 394.811 749.422 395.411 745.537 394.566 742.034 387.907 740.072 388.354 736.228 391.148 731.763 386.615 729.238 386.439 725.558 389.85 720.927 389.567 717.275 385.829 714.538 381.818 711.874 383.631 707.669 387.241 702.987 382.898 700.41 376.487 698.38 377.118 694.485 381.563 689.582 382.487 685.611 380.025 682.537 377.078 679.59 374.029 676.67 372.194 673.428 375.865 668.732 370.54 666.418 369.497 662.973 375.178 657.748 368.428 655.813 370.502 651.542 369.907 647.976 363.776 645.873 361.718 642.689 369.001 637.034 365.794 634.158 367.388 630.012 367.017 626.387 364.077 623.442 362.772 620.061 358.584 617.442 358.325 613.782 361.13 609.313 359.245 606.087 356.997 602.957 360.217 598.378 350.896 597.116 351.25 593.294 354.366 588.742 354.766 584.91 348.243 582.909 348.362 579.146 345.6 576.15 346.847 572.092 348.947 567.807 350.842 563.576 349.542 560.192 342.179 558.412 346.712 553.481 339.681 551.614 336.97 548.601 345.366 542.649 335.214 541.605 336.032 537.659 336.226 533.876 335.332 530.387 340.801 525.209 330.346 524.25 334.291 519.475 335.079 515.538 333.256 512.288 331.034 509.146 330.704 505.502 330.131 501.92 330.962 497.967 323.326 496.259 326.524 491.68 326.63 487.918 325.542 484.471 320.469 482.074 325.399 477.909 325.388 474.754 328.124 472.155 325.604 466.62 332.392 466.286 333.385 462.711 335.218 459.603 336.994 456.463 338.046 452.92 337.447 448.457 342.223 446.997 339.431 441.306 344.718 440.126 349.737 438.799 351.562 435.688 346.117 428.514 355.389 429.564 357.147 426.411 355.182 421.181 354.546 416.694 359.211 415.168 361.775 412.466 358.601 406.56 366.87 407.047 365.874 402.356 369.891 400.467 368.799 395.722 370.607 392.598 370.405 388.351 373.875 386.158 374.024 382.113 374.364 378.173 379.039 376.65 384.657 375.658 382.95 370.569 388.13 369.33 386.82 364.46 384.583 359.075 394.084 360.248 390.338 354.015 393.872 351.851 397.851 349.941 397.764 345.754 398.262 341.893 403.412 340.631 400.109 334.638 403.918 332.767 400.406 331.595 400.001 326.212 397.878 323.046 395.116 320.701 388.216 323.688 388.221 317.773 383.84 317.51 383.718 311.761 380.065 310.564 374.238 312.166 375.29 304.899 371.341 304.08 364.486 307.007 364.141 301.543 360.071 300.877 355.566 300.774 356.433 293.748 352.875 292.422 347.174 293.86 346.678 288.588 343.863 286.305 342.885 281.658 336.201 284.364 333.839 281.506 333.897 275.526 327.112 278.357 325.001 275.171 321.623 273.611 322.798 266.188 318.896 265.302 313.095 266.865 309.598 265.457 311.585 256.979 306.047 258.199 304.629 254.116 298.971 255.491 295.662 253.838 297.41 245.666 292.9 245.549 290.877 242.228" style="fill: none; stroke: #000; stroke-linecap: round; stroke-linejoin: round; stroke-width: 40px;"/>
  </g>
</svg>