<?xml version="1.0" encoding="UTF-8"?>
<svg id="Sticker" xmlns="http://www.w3.org/2000/svg" width="1000" height="1000" viewBox="0 0 1000 1000">
  <g>
    <polyline points="304.012 457.761 300.949 458.759 296.043 451.66 293.758 457.668 289.592 456.25 284.879 454.259 283.111 459.553 278.607 458.759 274.763 459.652 273.658 464.803 272.187 468.819 265.991 466.917 267.87 474.357 266.665 477.905 257.722 474.648 256.674 478.604 258.794 484.566 253.021 485.007 250.842 487.972 251.857 492.602 247.643 494.556 245.641 497.679 245.668 501.601 249.516 506.671 240.713 507.676 243.697 512.268 247.276 516.735 240.331 518.882 238.464 522.241 243.311 526.622 237.875 529.525 241.148 533.499 237.994 536.855 243.306 540.748 241.82 544.227 237.308 547.723 237.212 551.35 240.089 554.921 234.362 558.699 234.872 562.342 237.612 565.839 239.378 569.343 240.936 572.828 237.977 576.709 239.792 580.162 238.186 583.976 236.719 587.811 244.017 590.515 240.614 594.615 244.591 597.671 246.214 601.044 247.723 604.418 246.129 608.322 248.64 611.51 241.109 616.582 249.2 618.687 249.779 622.223 251.496 625.52 245.25 630.549 246.461 633.989 249.295 637.046 256.153 639.111 256.934 642.593 257.021 646.251 251.494 651.376 257.692 653.467 257.771 657.156 251.986 662.492 259.687 664.068 255.092 669.142 263.057 670.545 260.464 675.074 262.684 678.154 262.461 681.994 260.783 686.322 266.168 688.355 267.213 691.794 265.508 696.178 268.065 699.11 269.482 702.429 267.14 707.113 274.277 708.335 275.657 711.647 273.251 716.413 277.851 718.489 274.167 723.82 278.483 725.976 284.512 727.378 283.411 731.714 281.799 736.309 287.507 737.749 285.828 742.413 288.536 745.136 291.957 747.508 293.527 750.719 291.853 755.491 295.768 757.579 292.392 763.276 295.604 765.706 297.225 768.933 297.17 773.056 299.424 775.96 306.256 776.297 305.41 780.888 304.832 785.391 305.572 789.174 310.831 790.222 310.587 794.625 316.687 795.006 313.107 801.657 318.989 802.067 317.799 807.29 325.147 806.475 324.952 811.051 324.66 815.819 330.91 815.486 333.648 817.832 333.681 822.475 336.442 824.792 341.965 823.99 340.386 831.244 345.836 830.121 346.4 835.407 352.681 832.448 353.675 837.446 355.442 841.555 358.923 842.765 363.982 840.741 363.966 849.055 369.428 845.836 372.17 848.554 374.599 852.232 380.167 847.727 383.802 848.048 385.912 852.884 390.429 850.476 392.892 854.6 397.461 851.577 400.818 852.671 402.76 859.435 407 857.206 410.624 857.363 413.033 863.187 418.041 856.591 419.923 865.739 424.915 858.364 427.625 863.699 431.73 860.711 435.122 862.125 438.276 865.439 442 864.66 445.654 864.294 449.354 863.372 452.449 868.295 456.66 861.839 459.476 870.854 463.116 870.745 467.045 866.231 470.655 865.839 474.213 866.298 477.547 871.943 481.499 862.901 484.912 867.718 488.397 872.337 492.141 864.004 495.642 871.319 499.26 863.285 502.839 867.376 506.426 867.68 510.086 871.448 513.527 864.998 517.064 863.988 520.826 868.921 524.366 867.642 527.799 864.619 531.582 868.059 535.217 868.556 538.794 868.119 542.167 865.167 546.109 869.143 549.451 866.116 552.811 863.643 556.618 865.573 560.37 866.747 564.234 868.656 567.731 867.465 571.248 866.494 574.276 862.181 577.695 860.816 581.854 864.187 584.948 860.814 588.562 860.666 591.404 856.273 595.529 858.894 598.772 856.838 601.77 853.719 606.246 857.575 609.241 854.545 613.792 858.254 616.8 855.359 620.402 854.927 622.681 849.534 626.376 849.56 631.442 854.2 633.658 849.031 638.357 852.011 640.747 847.69 643.059 843.409 649.044 849.551 651.469 845.634 654.581 843.681 656.237 838.266 659.884 837.812 664.119 838.567 669.428 841.342 672.729 839.707 674.622 835.423 678.038 834.097 678.916 828.51 685.22 831.791 683.39 822.634 691.334 827.318 691.714 822.04 695.376 820.595 698.374 818.35 695.702 811.365 697.752 808.608 703.237 808.276 704.21 804.608 710.595 804.418 707.813 798.47 710.064 795.652 717.275 795.469 711.682 788.45 716.067 786.659 719.27 784.192 721.539 781.241 719.05 776.195 725.265 774.923 719.492 768.663 724.522 766.817 721.647 761.89 728.188 760.498 728.104 756.641 730.018 753.496 733.103 750.723 731.155 746.293 734.988 743.725 734.711 739.862 735.973 736.475 737.456 733.147 738.203 729.607 740.644 726.528 741.304 722.959 738.637 718.546 739.146 714.971 746.031 712.938 740.38 707.884 742.738 704.742 742.03 700.899 748.161 698.554 745.142 694.226 746.252 690.783 743.125 686.496 750.203 684.215 746.623 679.871 744.372 675.814 748.66 672.939 748.2 669.213 753.418 666.438 754.77 662.995 747.739 658.242 748.074 654.672 756.389 652.264 754.43 648.335 757.781 645.15 749.895 640.468 753.874 637.361 759.537 634.423 759.898 630.819 759.237 627.1 761.344 623.688 761.053 620.014 760.826 616.352 762.368 612.86 762.406 609.224 756.127 605.065 758.758 601.667 755.453 597.81 762.294 594.685 755.502 590.624 761.161 587.367 764.465 583.929 762.45 580.199 759.912 576.468 759.942 572.864 756.512 569.144 757.491 565.588 763.724 562.146 763.324 558.519 757.974 554.834 762.013 551.275 759.459 547.662 759.378 544.067 761.217 540.453 759.45 536.875 761.64 533.23 760.738 529.645 765.215 525.881 760.086 522.456 763.321 518.693 755.248 515.509 761.322 511.551 760.484 507.985 763.776 504.106 762.166 500.59 759.987 497.15 761.475 493.361 760.79 489.783 758.816 486.366 759.438 482.636 756.963 479.325 755.948 475.832 756.946 472.017 752.312 469.165 750.569 465.864 756.272 461.067 754.03 457.829 750.676 454.898 752.203 450.813 751.243 447.318 748.79 444.261 746.585 441.189 743.226 438.571 747.238 433.355 745.46 430.148 746.95 425.538 738.335 425.507 739.935 420.762 737.834 417.831 733.732 416.23 736.422 410.053 734.602 406.692 733.22 402.741 727.187 403.547 723.802 402.106 721.371 399.394 719.18 395.544 714.464 397.508 711.395 395.602 708.933 390.986 704.842 392.215 700.792 395.336 697.574 391.518 693.789 388.505 690.591 394.254 686.215 390.449 682.703 392.089 680.866 397.423 677.939 399.148 671.232 395.01 669.969 399.843 670.882 406.417 667.75 407.958 666.475 411.331 663.737 413.41 660.355 415.181 652.793 414.581 657.112 421.337 649.941 421.649 647.178 424.541 652.447 430.138 646.414 425.863 652.873 422.821 655.593 419.252 647.437 415.661 653.771 411.909 650.965 408.485 645.973 405.539 652.117 401.05 647.7 398.282 649.087 394.281 648.237 390.761 648.793 386.609 642.164 385.698 641.017 382.471 640.393 378.758 640.7 373.892 635.136 374.149 632.813 371.605 629.177 370.868 627.598 366.843 624.046 366.134 621.247 363.559 618.135 361.228 614.352 361.491 610.513 363.387 607.061 363.087 603.518 364.245 600.195 366.09 595.922 360.154 592.59 362.567 588.565 362.058 586.198 366.165 581.545 365.004 579.193 368.35 575.464 369.547 574.301 373.805 574.015 378.376 569.504 379.095 569.797 383.644 560.24 381.857 563.462 388.017 558.555 389.705 556.872 393.102 561.87 398.955 557.116 401.109 558.487 405.297 558.322 408.934 549.872 410.765 556.303 415.785 551.414 418.667 555.915 422.932 547.975 425.808 549.638 429.879 554.575 425.936 553.559 422.368 548.322 419.456 552.93 415.084 545.416 412.854 550.417 408.159 552.048 404 546.727 401.667 543.339 398.992 548.698 393.383 542.154 391.951 542.888 387.775 536.996 386.621 539.581 381.337 533.205 380.981 531.47 378.123 533.519 372.344 533.097 367.902 528.943 366.709 528.223 361.949 521.103 365.136 518.743 362.616 518.164 356.19 514.462 355.109 509.188 359.467 507.385 352.077 503.557 351.682 499.451 356.545 495.977 351.462 492.031 350.182 488.89 354.542 486.084 357.652 483.584 360.4 479.315 359.194 474.119 357.651 472.543 361.83 470.628 365.07 469.358 368.679 468.067 372.013 459.495 370.082 462.165 376.241 464.091 381.329 456.738 381.363 461.052 387.26 458.891 390.009 450.64 390.601 449.089 393.931 452.533 398.784 447.32 401.008 451.875 405.866 448.188 408.627 445.689 411.763 444.768 415.257 448.568 419.476 444.723 422.518 441.879 425.83 445.953 433.824" style="fill: #fff;"/>
    <polyline points="304.012 457.761 300.949 458.759 296.043 451.66 293.758 457.668 289.592 456.25 284.879 454.259 283.111 459.553 278.607 458.759 274.763 459.652 273.658 464.803 272.187 468.819 265.991 466.917 267.87 474.357 266.665 477.905 257.722 474.648 256.674 478.604 258.794 484.566 253.021 485.007 250.842 487.972 251.857 492.602 247.643 494.556 245.641 497.679 245.668 501.601 249.516 506.671 240.713 507.676 243.697 512.268 247.276 516.735 240.331 518.882 238.464 522.241 243.311 526.622 237.875 529.525 241.148 533.499 237.994 536.855 243.306 540.748 241.82 544.227 237.308 547.723 237.212 551.35 240.089 554.921 234.362 558.699 234.872 562.342 237.612 565.839 239.378 569.343 240.936 572.828 237.977 576.709 239.792 580.162 238.186 583.976 236.719 587.811 244.017 590.515 240.614 594.615 244.591 597.671 246.214 601.044 247.723 604.418 246.129 608.322 248.64 611.51 241.109 616.582 249.2 618.687 249.779 622.223 251.496 625.52 245.25 630.549 246.461 633.989 249.295 637.046 256.153 639.111 256.934 642.593 257.021 646.251 251.494 651.376 257.692 653.467 257.771 657.156 251.986 662.492 259.687 664.068 255.092 669.142 263.057 670.545 260.464 675.074 262.684 678.154 262.461 681.994 260.783 686.322 266.168 688.355 267.213 691.794 265.508 696.178 268.065 699.11 269.482 702.429 267.14 707.113 274.277 708.335 275.657 711.647 273.251 716.413 277.851 718.489 274.167 723.82 278.483 725.976 284.512 727.378 283.411 731.714 281.799 736.309 287.507 737.749 285.828 742.413 288.536 745.136 291.957 747.508 293.527 750.719 291.853 755.491 295.768 757.579 292.392 763.276 295.604 765.706 297.225 768.933 297.17 773.056 299.424 775.96 306.256 776.297 305.41 780.888 304.832 785.391 305.572 789.174 310.831 790.222 310.587 794.625 316.687 795.006 313.107 801.657 318.989 802.067 317.799 807.29 325.147 806.475 324.952 811.051 324.66 815.819 330.91 815.486 333.648 817.832 333.681 822.475 336.442 824.792 341.965 823.99 340.386 831.244 345.836 830.121 346.4 835.407 352.681 832.448 353.675 837.446 355.442 841.555 358.923 842.765 363.982 840.741 363.966 849.055 369.428 845.836 372.17 848.554 374.599 852.232 380.167 847.727 383.802 848.048 385.912 852.884 390.429 850.476 392.892 854.6 397.461 851.577 400.818 852.671 402.76 859.435 407 857.206 410.624 857.363 413.033 863.187 418.041 856.591 419.923 865.739 424.915 858.364 427.625 863.699 431.73 860.711 435.122 862.125 438.276 865.439 442 864.66 445.654 864.294 449.354 863.372 452.449 868.295 456.66 861.839 459.476 870.854 463.116 870.745 467.045 866.231 470.655 865.839 474.213 866.298 477.547 871.943 481.499 862.901 484.912 867.718 488.397 872.337 492.141 864.004 495.642 871.319 499.26 863.285 502.839 867.376 506.426 867.68 510.086 871.448 513.527 864.998 517.064 863.988 520.826 868.921 524.366 867.642 527.799 864.619 531.582 868.059 535.217 868.556 538.794 868.119 542.167 865.167 546.109 869.143 549.451 866.116 552.811 863.643 556.618 865.573 560.37 866.747 564.234 868.656 567.731 867.465 571.248 866.494 574.276 862.181 577.695 860.816 581.854 864.187 584.948 860.814 588.562 860.666 591.404 856.273 595.529 858.894 598.772 856.838 601.77 853.719 606.246 857.575 609.241 854.545 613.792 858.254 616.8 855.359 620.402 854.927 622.681 849.534 626.376 849.56 631.442 854.2 633.658 849.031 638.357 852.011 640.747 847.69 643.059 843.409 649.044 849.551 651.469 845.634 654.581 843.681 656.237 838.266 659.884 837.812 664.119 838.567 669.428 841.342 672.729 839.707 674.622 835.423 678.038 834.097 678.916 828.51 685.22 831.791 683.39 822.634 691.334 827.318 691.714 822.04 695.376 820.595 698.374 818.35 695.702 811.365 697.752 808.608 703.237 808.276 704.21 804.608 710.595 804.418 707.813 798.47 710.064 795.652 717.275 795.469 711.682 788.45 716.067 786.659 719.27 784.192 721.539 781.241 719.05 776.195 725.265 774.923 719.492 768.663 724.522 766.817 721.647 761.89 728.188 760.498 728.104 756.641 730.018 753.496 733.103 750.723 731.155 746.293 734.988 743.725 734.711 739.862 735.973 736.475 737.456 733.147 738.203 729.607 740.644 726.528 741.304 722.959 738.637 718.546 739.146 714.971 746.031 712.938 740.38 707.884 742.738 704.742 742.03 700.899 748.161 698.554 745.142 694.226 746.252 690.783 743.125 686.496 750.203 684.215 746.623 679.871 744.372 675.814 748.66 672.939 748.2 669.213 753.418 666.438 754.77 662.995 747.739 658.242 748.074 654.672 756.389 652.264 754.43 648.335 757.781 645.15 749.895 640.468 753.874 637.361 759.537 634.423 759.898 630.819 759.237 627.1 761.344 623.688 761.053 620.014 760.826 616.352 762.368 612.86 762.406 609.224 756.127 605.065 758.758 601.667 755.453 597.81 762.294 594.685 755.502 590.624 761.161 587.367 764.465 583.929 762.45 580.199 759.912 576.468 759.942 572.864 756.512 569.144 757.491 565.588 763.724 562.146 763.324 558.519 757.974 554.834 762.013 551.275 759.459 547.662 759.378 544.067 761.217 540.453 759.45 536.875 761.64 533.23 760.738 529.645 765.215 525.881 760.086 522.456 763.321 518.693 755.248 515.509 761.322 511.551 760.484 507.985 763.776 504.106 762.166 500.59 759.987 497.15 761.475 493.361 760.79 489.783 758.816 486.366 759.438 482.636 756.963 479.325 755.948 475.832 756.946 472.017 752.312 469.165 750.569 465.864 756.272 461.067 754.03 457.829 750.676 454.898 752.203 450.813 751.243 447.318 748.79 444.261 746.585 441.189 743.226 438.571 747.238 433.355 745.46 430.148 746.95 425.538 738.335 425.507 739.935 420.762 737.834 417.831 733.732 416.23 736.422 410.053 734.602 406.692 733.22 402.741 727.187 403.547 723.802 402.106 721.371 399.394 719.18 395.544 714.464 397.508 711.395 395.602 708.933 390.986 704.842 392.215 700.792 395.336 697.574 391.518 693.789 388.505 690.591 394.254 686.215 390.449 682.703 392.089 680.866 397.423 677.939 399.148 671.232 395.01 669.969 399.843 670.882 406.417 667.75 407.958 666.475 411.331 663.737 413.41 660.355 415.181 652.793 414.581 657.112 421.337 649.941 421.649 647.178 424.541 652.447 430.138 646.414 425.863 652.873 422.821 655.593 419.252 647.437 415.661 653.771 411.909 650.965 408.485 645.973 405.539 652.117 401.05 647.7 398.282 649.087 394.281 648.237 390.761 648.793 386.609 642.164 385.698 641.017 382.471 640.393 378.758 640.7 373.892 635.136 374.149 632.813 371.605 629.177 370.868 627.598 366.843 624.046 366.134 621.247 363.559 618.135 361.228 614.352 361.491 610.513 363.387 607.061 363.087 603.518 364.245 600.195 366.09 595.922 360.154 592.59 362.567 588.565 362.058 586.198 366.165 581.545 365.004 579.193 368.35 575.464 369.547 574.301 373.805 574.015 378.376 569.504 379.095 569.797 383.644 560.24 381.857 563.462 388.017 558.555 389.705 556.872 393.102 561.87 398.955 557.116 401.109 558.487 405.297 558.322 408.934 549.872 410.765 556.303 415.785 551.414 418.667 555.915 422.932 547.975 425.808 549.638 429.879 554.575 425.936 553.559 422.368 548.322 419.456 552.93 415.084 545.416 412.854 550.417 408.159 552.048 404 546.727 401.667 543.339 398.992 548.698 393.383 542.154 391.951 542.888 387.775 536.996 386.621 539.581 381.337 533.205 380.981 531.47 378.123 533.519 372.344 533.097 367.902 528.943 366.709 528.223 361.949 521.103 365.136 518.743 362.616 518.164 356.19 514.462 355.109 509.188 359.467 507.385 352.077 503.557 351.682 499.451 356.545 495.977 351.462 492.031 350.182 488.89 354.542 486.084 357.652 483.584 360.4 479.315 359.194 474.119 357.651 472.543 361.83 470.628 365.07 469.358 368.679 468.067 372.013 459.495 370.082 462.165 376.241 464.091 381.329 456.738 381.363 461.052 387.26 458.891 390.009 450.64 390.601 449.089 393.931 452.533 398.784 447.32 401.008 451.875 405.866 448.188 408.627 445.689 411.763 444.768 415.257 448.568 419.476 444.723 422.518 441.879 425.83 445.953 433.824" style="fill: none; stroke: #000; stroke-linecap: round; stroke-linejoin: round; stroke-width: 40px;"/>
  </g>
  <g>
    <polyline points="324.859 513.586 325.469 509.985 319.546 506.302 326.316 502.781 327.227 499.185 320.14 495.479 329.411 492.001 324.519 488.322 320.946 484.66 329.132 481.176 328.375 477.559 324.335 473.89 322.756 470.258 328.434 466.744 323.695 463.06 325.495 459.483 321.802 455.813 325.975 452.278 325.665 448.665 329.643 445.13 320.806 441.36 322.888 437.79 325.433 434.229 329.355 430.696 325.115 427.005 322.714 423.348 329.261 419.871 321.834 416.11 330.554 412.684 330.748 409.083 327.704 405.411 326.943 401.787 326.032 398.159 330.711 394.656 323.123 390.874 324.312 387.291 321.817 383.621 330.923 380.228 323.974 376.45 329.14 372.966 329.451 369.364 327.187 365.701 329.313 362.15 331.444 358.599 324.217 354.797 324.556 351.195 331.961 347.79 328.397 344.079 326.085 340.398 325.171 336.756 323.748 333.098 324.464 329.502 330.124 326.059 324.368 322.263 331.272 318.864 329.009 315.175 332.257 311.665 332.219 308.047 325.677 304.205 326.103 300.599 331.339 297.166 332.743 293.599 324.752 289.683 326.137 286.113 333.472 282.783 327.894 278.949 330.94 275.458 334.013 271.973 329.522 268.169 328.59 264.512 333.602 261.121 333.583 257.509 331.723 253.809 329.955 250.109 328.984 246.443 332.938 243.03 330.392 239.282 332.911 235.804 336.314 232.386 330.383 228.424 336.57 225.181 329.395 221.111 333.613 217.762 335.63 214.283 331.719 210.382 333.254 206.872 331.347 203.095 336.097 199.872 330.122 195.706 334.253 192.459 337.694 189.201 332.787 185.008 335.296 181.664 337.143 178.283 334.044 174.038 335.87 170.567 337.282 166.604 344.324 166.643 344.932 162.907 345.965 159.422 347.928 156.514 350.231 153.865 353.097 151.706 350.506 145.06 352.73 142.002 356.264 140.252 360.099 139.148 360.927 133.557 368.425 139.849 371.361 138.686 372.517 131.054 376.481 131.793 379.797 129.204 383.641 130.896 387.215 127.943 390.964 127.94 394.671 128.687 398.063 131.124 401.681 131.628 403.829 136.948 406.8 138.464 413.413 132.49 413.893 139.337 419.183 137.852 422.413 139.881 425.829 141.813 422.357 150.113 431.17 147.363 427.772 154.341 431.513 156.06 434.509 158.473 438.225 160.718 436.616 165.392 435.324 169.636 442.223 171.069 440.516 175.354 439.967 179.171 440.381 182.716 442.395 186.127 438.583 190.01 437.308 193.64 444.505 196.822 441.236 200.571 443.076 204.084 446.872 207.553 441.261 211.319 446.098 214.784 447.354 218.356 443.119 222.035 447.209 225.558 444.047 229.198 444.785 232.779 442.104 236.394 444.494 239.961 446.774 243.537 441.262 247.152 447.055 250.719 442.24 254.317 439.657 257.903 442.832 261.488 438.911 265.066 440.548 268.654 442.382 272.246 444.248 275.842 441.183 279.412 444.946 283.024 442.79 286.596 438.782 290.143 443.175 293.764 444.136 297.358 440.499 300.905 444.615 304.535 440.646 308.076 438.859 311.642 441.872 315.27 438.123 318.807 437.976 322.393 444.678 326.083 442.897 329.648 439.363 333.183 440.901 336.8 446.505 340.488 441.535 343.995 440.087 347.561 443.867 351.223 437.67 354.699 446.107 358.453 439.582 361.917 441.09 365.535 441.357 369.128 441.278 372.715 438.655 376.246 445.349 379.978 437.228 383.385 438.197 386.992 437.075 390.553 443.619 394.293 441.006 397.823 440.36 401.399 444.784 405.1 443.564 408.662 439.893 412.16 441.771 415.796 442.203 419.391 439.982 422.92 441.576 426.551 438.932 430.062 439.901 433.674 435.249 437.127 439.669 440.832 443.247 444.521 442.998 448.094" style="fill: #fff;"/>
    <polyline points="324.859 513.586 325.469 509.985 319.546 506.302 326.316 502.781 327.227 499.185 320.14 495.479 329.411 492.001 324.519 488.322 320.946 484.66 329.132 481.176 328.375 477.559 324.335 473.89 322.756 470.258 328.434 466.744 323.695 463.06 325.495 459.483 321.802 455.813 325.975 452.278 325.665 448.665 329.643 445.13 320.806 441.36 322.888 437.79 325.433 434.229 329.355 430.696 325.115 427.005 322.714 423.348 329.261 419.871 321.834 416.11 330.554 412.684 330.748 409.083 327.704 405.411 326.943 401.787 326.032 398.159 330.711 394.656 323.123 390.874 324.312 387.291 321.817 383.621 330.923 380.228 323.974 376.45 329.14 372.966 329.451 369.364 327.187 365.701 329.313 362.15 331.444 358.599 324.217 354.797 324.556 351.195 331.961 347.79 328.397 344.079 326.085 340.398 325.171 336.756 323.748 333.098 324.464 329.502 330.124 326.059 324.368 322.263 331.272 318.864 329.009 315.175 332.257 311.665 332.219 308.047 325.677 304.205 326.103 300.599 331.339 297.166 332.743 293.599 324.752 289.683 326.137 286.113 333.472 282.783 327.894 278.949 330.94 275.458 334.013 271.973 329.522 268.169 328.59 264.512 333.602 261.121 333.583 257.509 331.723 253.809 329.955 250.109 328.984 246.443 332.938 243.03 330.392 239.282 332.911 235.804 336.314 232.386 330.383 228.424 336.57 225.181 329.395 221.111 333.613 217.762 335.63 214.283 331.719 210.382 333.254 206.872 331.347 203.095 336.097 199.872 330.122 195.706 334.253 192.459 337.694 189.201 332.787 185.008 335.296 181.664 337.143 178.283 334.044 174.038 335.87 170.567 337.282 166.604 344.324 166.643 344.932 162.907 345.965 159.422 347.928 156.514 350.231 153.865 353.097 151.706 350.506 145.06 352.73 142.002 356.264 140.252 360.099 139.148 360.927 133.557 368.425 139.849 371.361 138.686 372.517 131.054 376.481 131.793 379.797 129.204 383.641 130.896 387.215 127.943 390.964 127.94 394.671 128.687 398.063 131.124 401.681 131.628 403.829 136.948 406.8 138.464 413.413 132.49 413.893 139.337 419.183 137.852 422.413 139.881 425.829 141.813 422.357 150.113 431.17 147.363 427.772 154.341 431.513 156.06 434.509 158.473 438.225 160.718 436.616 165.392 435.324 169.636 442.223 171.069 440.516 175.354 439.967 179.171 440.381 182.716 442.395 186.127 438.583 190.01 437.308 193.64 444.505 196.822 441.236 200.571 443.076 204.084 446.872 207.553 441.261 211.319 446.098 214.784 447.354 218.356 443.119 222.035 447.209 225.558 444.047 229.198 444.785 232.779 442.104 236.394 444.494 239.961 446.774 243.537 441.262 247.152 447.055 250.719 442.24 254.317 439.657 257.903 442.832 261.488 438.911 265.066 440.548 268.654 442.382 272.246 444.248 275.842 441.183 279.412 444.946 283.024 442.79 286.596 438.782 290.143 443.175 293.764 444.136 297.358 440.499 300.905 444.615 304.535 440.646 308.076 438.859 311.642 441.872 315.27 438.123 318.807 437.976 322.393 444.678 326.083 442.897 329.648 439.363 333.183 440.901 336.8 446.505 340.488 441.535 343.995 440.087 347.561 443.867 351.223 437.67 354.699 446.107 358.453 439.582 361.917 441.09 365.535 441.357 369.128 441.278 372.715 438.655 376.246 445.349 379.978 437.228 383.385 438.197 386.992 437.075 390.553 443.619 394.293 441.006 397.823 440.36 401.399 444.784 405.1 443.564 408.662 439.893 412.16 441.771 415.796 442.203 419.391 439.982 422.92 441.576 426.551 438.932 430.062 439.901 433.674 435.249 437.127 439.669 440.832 443.247 444.521 442.998 448.094" style="fill: none; stroke: #000; stroke-linecap: round; stroke-linejoin: round; stroke-width: 40px;"/>
  </g>
</svg>