<?xml version="1.0" encoding="UTF-8"?>
<svg id="Sticker" xmlns="http://www.w3.org/2000/svg" width="1000" height="1000" viewBox="0 0 1000 1000">
  <g>
    <polygon points="848.708 808.266 844.817 811.802 840.677 813.264 838.121 806.025 833.505 809.147 830.981 804.897 825.543 808.089 822.265 805.792 821.559 799.618 820.731 794.751 818.191 792.593 810.237 795.842 808.912 791.854 805.037 790.064 807.326 783.962 805.433 780.998 805.585 777.062 798.218 776.204 796.452 772.715 798.868 768.215 797.319 764.762 800.228 760.843 796.876 757.372 799.725 753.865 801.948 750.642 798.087 746.359 801.585 743.532 800.668 739.452 801.558 735.838 804.945 733.477 802.658 727.773 810.795 728.993 810.911 724.62 811.387 720.049 817.175 720.975 820.251 719.349 820.138 712.914 823.762 711.683 828.735 713.629 832.058 712.729 833.486 705.528 837.527 705.972 840.979 703.604 844.989 705.373 848.708 708.449 850.781 705.948 847.965 702.159 854.298 698.465 852.006 694.772 847.951 691.079 848.143 687.39 847.768 683.696 849.411 680.005 847.743 676.311 854.259 672.618 846.109 668.924 848.387 665.228 848.239 661.532 848.787 657.836 853.015 654.141 853.971 650.446 851.856 646.75 846.204 643.047 851.881 639.139 848.708 642.787 845.082 638.499 841.238 639.784 838.242 635.923 834.276 636.972 831.099 635.035 828.317 632.479 821.808 637.08 818.387 634.998 819.658 626.635 817.893 623.39 813.391 623.141 812.41 619.274 807.059 619.002 803.991 616.563 806.24 611.01 797.277 611.316 802.653 605.003 803.356 601.145 793.922 599.74 798.664 595.024 798.757 591.401 795.792 587.826 798.608 584.24 793.207 579.85 798.852 576.978 795.921 572.326 800.083 569.688 803.002 566.952 802.755 562.732 802.522 558.14 811.415 559.912 806.995 551.677 814.744 553.86 816.927 551.144 816.4 544.667 822.124 546.452 825.954 546.144 828.947 544.546 831.318 541.2 835.243 541.974 838.787 542.245 841.73 539.325 845.116 537.626 848.708 534.536 851.542 536.479 847.789 532.613 849.221 528.919 846.593 525.226 852.618 521.533 853.073 517.844 854.496 514.151 854.624 510.459 850.819 506.765 848.127 503.072 846.155 499.378 852.049 495.682 850.326 491.986 853.168 488.29 852.494 484.595 853.787 480.9 846.276 477.204 852.117 473.501 846.751 470.105 848.708 471.266 845.107 468.602 841.49 468.466 838.16 466.753 833.303 470.743 832.378 462.063 826.825 466.193 823.897 463.717 819.859 463.166 815.182 463.058 816.226 455.766 809.952 457.033 806.502 454.852 803.522 452.108 806.534 445.38 803.632 442.891 800.71 440.2 795.778 438.022 797.475 433.323 796.343 429.67 801.835 425.026 799.676 421.79 796.365 418.279 793.402 414.327 800.841 411.392 794.622 406.516 801.405 404.388 796.814 398.922 799.159 395.648 799.554 391.434 803.432 389.179 805.777 386.139 808.343 383.3 812.946 382.515 816.828 381.484 816.729 375.559 819.818 373.325 823.304 371.754 826.352 369.327 831.431 371.957 834.662 370.449 837.696 367.659 841.071 365.154 844.858 364.425 848.708 363.634 845.419 366.319 852.798 363.067 848.328 359.373 849.394 355.68 848.212 351.987 846.467 348.298 848.558 344.604 854.328 340.913 849.757 337.219 846.533 333.526 851.116 329.832 849.742 326.136 848.738 322.44 850.64 318.744 844.84 315.049 847.623 311.354 846.449 307.658 846.841 303.955 853.691 299.865 848.708 303.099 845.313 296.128 841.939 295.774 837.79 298.914 834.89 295.786 830.248 298.223 827.626 294.897 822.782 296.208 823.257 288.343 815.026 293.721 815.122 287.493 815.098 282.342 806.048 285.699 805.475 281.097 802.457 278.458 806.297 271.887 806.203 268.141 796.095 268.358 800.232 262.968 799.622 259.414 800.935 255.608 793.692 252.665 793.106 248.733 795.855 244.954 798.844 241.561 801.642 238.49 800.474 234.568 795.747 228.978 797.684 225.427 801.974 223.213 808.656 222.997 804.804 215.863 813.524 218.248 815.535 215.559 817.582 212.807 819.491 209.697 820.148 204.291 822.739 201.175 826.467 200.033 830.833 200.808 835.256 202.928 838.564 202.123 841.888 201.338 844.846 194.713 848.708 192.909 853.614 197.603 845.627 193.603 849.023 189.993 847.263 186.382 851.98 182.767 848.15 179.156 850.792 175.545 850.067 171.932 852.741 168.319 851.487 164.707 850.269 161.094 852.697 157.48 847.597 153.868 850.402 150.254 852.769 146.64 851.398 143.026 847.433 139.413 851.765 135.798 853.967 132.184 847.87 128.571 850.363 124.961 846.986 121.347 851.498 117.735 847.364 114.12 854.652 110.506 848.821 106.892 851.313 103.275 854.102 99.659 849.976 96.042 847.201 92.426 849.714 88.81 846.201 85.193 845.472 81.571 852.637 75.126 846.192 80.758 842.569 80.452 838.944 79.781 835.317 77.711 831.692 74.051 828.068 80.636 824.443 78.791 820.816 79.582 817.191 82.471 813.565 79.786 809.938 74.242 806.313 77.614 802.686 81.486 799.059 78.082 795.432 77.914 791.806 73.772 788.178 77.976 784.551 77.916 780.924 74.951 777.301 75.408 773.674 74.405 770.049 75.952 766.421 77.977 762.795 74.872 759.167 80.753 755.537 80.364 751.907 75.357 748.278 82.58 744.649 73.26 741.02 81.058 737.39 75.193 733.754 73.849 729.678 74.081 727.907 79.187 733.659 83.122 726.532 86.084 731.696 90.736 729.448 94.118 723.97 96.109 725.333 100.529 725.541 104.82 724.217 108.506 722.904 112.356 719.948 115.017 712.095 112.682 714.839 121.007 709.81 120.879 704.6 119.651 701.465 121.069 699.278 124.467 697.796 130.649 692.046 124.965 690.414 133.499 686.327 132.931 682.277 130.556 678.602 131.502 674.917 130.692 671.633 127.623 668.257 126.721 663.024 132.242 659.131 131.386 656.86 126.792 655.45 121.591 650.084 123.559 648.882 118.89 642.312 121.064 644.339 113.448 638.196 114.198 636.554 110.662 635.489 106.891 634.549 103.238 632.59 100.198 629.003 97.686 627.094 94.311 631.909 89.349 628.654 86.372 622.861 83.17 625.76 79.187 626.885 79.653 623.556 75.637 620.028 76.575 616.498 76.594 612.973 78.389 609.444 78.432 605.919 80.418 602.39 77.229 598.863 77.165 595.333 81.781 591.805 79.948 588.275 82.466 584.743 81.622 581.211 74.527 577.684 79.537 574.153 80.378 570.621 74.249 567.088 77.468 563.549 77.98 559.916 77.138 561.838 79.187 559.053 82.805 561.185 86.762 557.893 89.935 559.15 94.062 552.801 95.713 552.263 99.174 549.799 101.737 553.275 107.968 550.741 110.814 546.38 112.015 546.628 117.322 544.049 120.22 537.624 118.105 534.137 119.097 531.294 120.952 528.542 123.091 525.591 125.024 523.675 130.887 519.044 127.668 516.353 133.862 512.015 128.357 508.495 134.996 504.778 131.153 501.365 128.756 498.562 124.822 493.499 130.256 489.877 129.101 486.71 126.887 484.344 123.417 481.945 120.504 474.666 124.37 477.971 114.416 473.393 114.287 465.801 116.182 468.282 109.287 464.037 107.757 466.133 102.313 465.945 98.615 459.303 97.535 454.43 95.061 458.372 90.092 460.305 86.121 452.493 83.189 452.562 79.187 456.656 80.694 453.45 78.387 449.921 75.882 446.391 75.133 442.867 76.933 439.338 81.105 435.813 75.26 432.284 78.708 428.757 82.389 425.226 74.594 421.698 72.954 418.168 77.512 414.636 74.666 411.105 75.421 407.577 78.016 404.046 74.99 400.514 75.355 396.981 78.11 393.443 82.923 389.908 77.978 393.58 79.187 389.692 82.858 385.353 85.946 385.843 89.515 386.952 93.449 385.913 96.914 384.723 100.348 380.79 102.338 381.248 106.732 377.748 108.651 379.826 115.097 374.111 114.913 374.254 120.58 368.601 119.552 368.838 126.565 364.764 127.49 361.005 128.71 357.673 130.893 353.788 131.639 349.227 129.008 345.185 126.423 342.277 133.596 338.387 130.972 334.619 131.88 330.499 134.078 327.177 130.719 324.772 125.549 319.351 130.222 315.384 129.55 312.981 125.712 312.555 119.389 309.555 117.707 307.269 115.101 298.628 118.944 302.748 110.064 298.608 108.962 294.869 107.153 289.391 105.943 287.333 102.505 294.435 95.58 288.48 93.842 291.21 89.454 285.755 86.754 286.558 82.895 289.677 79.187 286.664 79.746 283.283 77.674 279.697 81.687 276.111 79.835 272.523 79.376 268.932 77.251 265.345 78.173 261.757 73.436 258.169 79.165 254.579 79.348 250.991 82.659 247.402 82.551 243.812 81.949 240.223 76.805 236.633 76.105 233.044 74.875 229.453 77.043 225.864 76.223 222.273 79.056 218.687 78.513 215.096 74.51 211.51 78.536 207.92 73.95 204.331 75.735 200.74 78.415 197.15 81.019 193.559 82.846 189.966 76.429 186.373 78.156 182.78 78.525 179.188 82.107 175.595 81.583 172.002 81.911 168.403 76.781 166.708 79.845 168.95 81.561 168.144 85.174 162.395 88.789 160.058 92.406 160.077 96.021 168.074 99.635 161.27 103.251 162.279 106.867 166.854 110.482 161.032 114.098 166.052 117.715 168.836 121.331 160.77 124.948 169.628 128.564 168.332 132.181 161.462 135.798 163.032 139.416 166.64 143.033 166.234 146.65 168.29 150.262 164.722 153.879 166.56 157.494 169.073 161.113 161.098 164.729 169.162 168.347 167.692 171.967 163.754 175.586 162.043 179.206 166.8 182.825 168.894 186.444 165.721 190.064 166.411 193.69 167.769 196.354 168.281 201.993 171.781 199.846 175.362 199.507 178.969 199.613 181.454 203.882 184.979 203.966 191.257 198.429 195.285 199.288 194.641 207.711 197.152 210.162 204.226 207.254 205.044 211.972 210.587 212.075 207.333 219.504 213.99 219.357 209.213 226.389 211.422 229.035 213.343 231.926 212.987 235.603 223.461 236.733 215.542 241.932 220.049 245.03 216.82 248.733 223.969 252.713 217.968 255.88 221.927 260.402 216.063 262.765 218.387 267.423 210.648 268.079 211.445 272.3 210.254 275.707 207.608 278.172 208.659 283.723 202.06 282.514 204.805 290.885 198.752 289.442 194.555 289.624 195.03 297.717 191.466 299.497 185.127 293.902 181.5 293.743 178.291 294.725 175.682 300.202 171.972 300.329 168.281 298.051 162.363 299.333 160.404 303.661 167.342 307.17 167.881 310.68 166.913 314.186 161.457 317.696 166.226 321.202 160.705 324.712 161.121 328.22 165.808 331.731 164.557 335.24 165.219 338.751 162.972 342.263 162.111 345.776 168.183 349.284 168.429 352.796 168.205 356.309 162.096 359.823 166.405 363.342 162.301 367.697 168.281 367.736 171.972 366.676 175.739 366.41 179.881 364.946 181.959 371.704 185.003 373.447 188.372 374.283 192.091 374.672 194.104 378.092 199.941 375.988 198.969 382.862 203.857 382.705 211.003 381.26 207.794 388.705 209.427 391.841 210.864 395.032 217.169 395.952 212.765 401.688 216.234 404.198 215.791 407.94 219.295 410.943 218.613 414.677 217.423 418.279 219.907 421.973 215.014 425.005 214.903 428.427 214.566 431.873 217.407 436.604 211.112 437.837 213.036 442.717 215.514 448.64 213.274 451.966 206.264 451.192 207.848 457.849 200.388 455.337 199.96 460.599 198.112 464.695 194.775 466.797 189.59 464.942 187.026 468.535 184.18 472.434 179.947 471.918 175.098 465.65 171.635 465.099 168.281 473.396 163.518 469.266 166.381 473.207 164.864 476.716 163.402 480.227 166.76 483.732 159.98 487.242 164.731 490.748 166.785 494.258 162.658 497.766 164.741 501.277 163.892 504.786 160.661 508.297 162.861 511.809 167.228 515.322 166.568 518.83 168.877 522.342 167.103 525.855 166.068 529.369 160.649 532.888 161.116 537.64 168.281 539.464 172.215 532.776 176.212 532.638 178.439 541.152 181.957 541.256 184.632 543.986 190.863 538.383 190.805 546.568 193.807 548.099 201.521 543.428 201.837 549.1 204.502 551.606 210.21 551.494 211.61 555.39 215.014 557.79 214.411 562.638 211.06 568.293 217.802 569.355 216.602 573.636 214.502 577.766 220.832 580.27 223.914 583.85 217.014 587.826 216.322 591.266 217.182 594.861 220.161 599.111 213.319 601.053 218.408 606.523 215.163 609.237 214.963 613.318 213.396 616.822 209.355 618.573 206.387 620.845 207.605 627.151 200.744 625.293 198.925 628.764 197.792 633.744 192.209 631.653 191.756 639.223 186.189 635.84 182.497 636.237 179.074 637.434 175.306 636.656 172.142 641.839 168.281 635.417 167.669 640.203 164.252 642.753 161.66 646.262 163.514 649.773 161.472 653.278 166.859 656.788 162.332 660.294 165.029 663.804 168.017 667.312 168.496 670.823 168.402 674.332 166.737 677.843 160.048 681.355 169.657 684.868 169.632 688.376 167.936 691.888 165.836 695.401 168.357 698.915 160.819 702.434 168.245 704.803 168.281 702.001 172.184 702.767 175.819 704.939 178.275 711.455 182.695 708.287 187.086 706.956 188.519 713.054 190.684 716.334 198.098 710.982 199.065 716.25 204.96 715.046 207.501 718.153 207.928 723.019 206.468 728.791 212.862 728.722 209.588 734.823 216.568 735.32 218.584 738.609 214.297 743.858 219.392 746.253 224.232 749.332 216.569 753.914 220.116 757.372 217.969 760.928 214.458 764.018 216.107 767.78 218.96 772.253 215.633 775.034 215.283 778.838 213.137 781.865 210.869 784.741 206.094 785.675 205.942 790.005 207.676 796.769 203.459 797.97 201.75 802.08 198.649 804.621 191.782 800.42 187.727 799.962 185.711 804.105 182.458 805.652 179.249 807.787 175.643 808.569 172.174 811.836 168.281 808.465 167.563 809.678 162.643 812.44 166.036 816.094 161.19 819.745 160.313 823.395 169.035 827.047 161.299 830.7 167.684 834.351 168.816 838.002 162.776 841.656 161.177 845.307 167.758 848.961 169.045 852.613 167.364 856.266 166.099 859.919 169.635 863.573 163.2 867.226 165.719 870.879 166.001 874.528 167.939 878.182 164.278 881.833 159.933 885.487 161.096 889.14 169.267 892.794 167.321 896.45 163.986 900.106 168.363 903.761 161.525 907.416 161.536 911.072 162.276 914.728 160.318 918.39 163.049 923.774 168.398 924.488 171.99 925.095 175.583 919.21 179.176 919.951 182.773 919.288 186.367 926.336 189.96 924.63 193.555 926.418 197.15 920.529 200.744 926.293 204.339 924.71 207.935 921.069 211.53 921.31 215.126 919.176 218.722 921.622 222.318 925.591 225.914 924.563 229.51 920.694 233.103 924.15 236.699 917.677 240.291 920.345 243.887 925.66 247.482 917.397 251.079 926.554 254.675 923.808 258.272 920.115 261.871 924.261 265.47 922.242 269.069 919.792 272.667 925.136 276.266 922.126 279.865 923.225 283.47 924.98 287.848 924.425 288.684 918.648 288.431 914.949 290.641 911.861 291.959 908.602 291.839 904.659 295.958 902.832 291.435 895.703 297.126 895.095 297.031 890.109 301.223 888.837 307.476 890.43 308.405 886.019 309.145 880.521 313.281 880.08 315.935 876.88 321.319 880.369 325.441 882.104 327.945 878.149 331.507 878.332 334.429 870.641 338.387 876.189 341.966 876.114 346.257 871.275 350.087 872.249 352.542 877.916 356.368 877.886 360.74 877.106 363.627 879.837 366.663 882.056 370.432 883.216 370.035 889.566 371.602 892.886 376.367 893.119 380.006 894.822 382.512 897.588 385.363 900.248 382.588 905.784 383.569 909.095 386.079 911.879 385.712 915.576 389.257 918.455 389.011 924.14 393.251 917.76 396.801 920.864 400.352 918.707 403.898 919.947 407.448 920.749 410.994 925.724 414.545 918.451 418.093 920.473 421.645 924.435 425.195 919.782 428.747 925.821 432.3 918.97 435.853 921.306 439.401 927.004 442.954 923.542 446.508 919.821 450.062 922.506 453.622 923.565 456.582 920.232 454.153 917.882 454.831 914.064 462.371 912.372 464.4 909.523 464.281 905.776 459.941 899.349 464.587 897.73 468.272 895.897 470.296 892.921 475.329 892.932 476.498 889.152 477 883.961 479.677 881.194 483.048 879.447 486.76 878.478 490.529 877.923 495.51 881.97 498.509 880.289 501.334 876.336 505.16 879.624 508.495 874.267 511.894 878.698 516.157 872.761 519.023 877.746 522.497 878.444 527.851 874.138 529.802 879.432 531.217 884.522 534.795 885.182 536.801 888.304 539.084 890.814 544.188 890.347 548.035 891.729 549.19 895.534 553.135 897.245 554.791 900.634 556.127 904.141 560.047 906.58 558.065 911.288 560.26 914.517 564.193 917.658 559.787 922.113 563.357 918.62 566.907 925.808 570.458 922.885 574.005 920.166 577.555 926.464 581.101 920.33 584.652 918.584 588.201 920.65 591.752 923.366 595.302 926.208 598.854 917.919 602.407 918.18 605.96 917.226 609.509 925.897 613.062 917.636 616.615 918.522 620.169 917.127 623.729 925.387 627.013 921.213 625.787 918.134 632.822 915.945 630.123 911.631 629.378 907.499 632.786 905.009 632.285 900.621 634.364 897.51 633.999 892.515 639.315 891.952 643.329 890.775 646.903 889.503 649.165 886.763 649.982 881.508 653.431 879.961 656.469 877.593 660.316 877.052 664.661 878.656 667.483 874.974 671.404 876.072 674.657 870.835 678.602 875.534 682.407 872.84 685.7 876.774 689.027 878.23 693.4 875.683 695.486 880.874 701.579 875.716 704.171 879.222 708.008 880.266 709.339 884.996 714.222 884.884 711.413 893.298 716.512 893.18 721.28 894.003 723.623 896.991 726.868 899.514 728.745 902.938 729.862 906.695 729.511 910.866 729.501 914.723 730.213 918.332 729.406 923.622 733.543 926.034 737.173 921.917 740.803 918.793 744.437 923.256 748.068 921.099 751.698 918.36 755.33 919.683 758.963 921.58 762.594 917.483 766.226 920.074 769.859 918.855 773.491 923.913 777.124 919.354 780.757 920.776 784.39 924.609 788.023 917.975 791.657 925.497 795.29 920.5 798.923 921.921 802.552 925.152 806.185 918.605 809.816 926.421 813.451 917.353 817.083 918.375 820.718 924.786 824.353 917.085 827.989 926.514 831.625 918.886 835.26 921.72 838.895 919.762 842.531 920.019 846.173 919.079 847.588 919.827 853.334 918.405 846.655 914.754 851.364 911.107 846.196 907.46 849.866 903.811 853.082 900.162 853.668 896.514 847.498 892.865 845.965 889.215 847.496 885.567 850.201 881.917 854.48 878.268 848.368 874.618 847.89 870.968 849.416 867.318 848.506 863.668 844.888 860.018 852.325 856.372 847.795 852.722 845.659 849.075 853.825 845.423 850.551 841.774 850.077 838.123 851.719 834.471 854.299 830.818 845.693 827.166 845.861 823.514 853.281 819.862 847.184 816.209 851.93 812.55 849.797 808.893 848.708 808.266" style="fill: #fff;"/>
    <polygon points="848.708 808.266 844.817 811.802 840.677 813.264 838.121 806.025 833.505 809.147 830.981 804.897 825.543 808.089 822.265 805.792 821.559 799.618 820.731 794.751 818.191 792.593 810.237 795.842 808.912 791.854 805.037 790.064 807.326 783.962 805.433 780.998 805.585 777.062 798.218 776.204 796.452 772.715 798.868 768.215 797.319 764.762 800.228 760.843 796.876 757.372 799.725 753.865 801.948 750.642 798.087 746.359 801.585 743.532 800.668 739.452 801.558 735.838 804.945 733.477 802.658 727.773 810.795 728.993 810.911 724.62 811.387 720.049 817.175 720.975 820.251 719.349 820.138 712.914 823.762 711.683 828.735 713.629 832.058 712.729 833.486 705.528 837.527 705.972 840.979 703.604 844.989 705.373 848.708 708.449 850.781 705.948 847.965 702.159 854.298 698.465 852.006 694.772 847.951 691.079 848.143 687.39 847.768 683.696 849.411 680.005 847.743 676.311 854.259 672.618 846.109 668.924 848.387 665.228 848.239 661.532 848.787 657.836 853.015 654.141 853.971 650.446 851.856 646.75 846.204 643.047 851.881 639.139 848.708 642.787 845.082 638.499 841.238 639.784 838.242 635.923 834.276 636.972 831.099 635.035 828.317 632.479 821.808 637.08 818.387 634.998 819.658 626.635 817.893 623.39 813.391 623.141 812.41 619.274 807.059 619.002 803.991 616.563 806.24 611.01 797.277 611.316 802.653 605.003 803.356 601.145 793.922 599.74 798.664 595.024 798.757 591.401 795.792 587.826 798.608 584.24 793.207 579.85 798.852 576.978 795.921 572.326 800.083 569.688 803.002 566.952 802.755 562.732 802.522 558.14 811.415 559.912 806.995 551.677 814.744 553.86 816.927 551.144 816.4 544.667 822.124 546.452 825.954 546.144 828.947 544.546 831.318 541.2 835.243 541.974 838.787 542.245 841.73 539.325 845.116 537.626 848.708 534.536 851.542 536.479 847.789 532.613 849.221 528.919 846.593 525.226 852.618 521.533 853.073 517.844 854.496 514.151 854.624 510.459 850.819 506.765 848.127 503.072 846.155 499.378 852.049 495.682 850.326 491.986 853.168 488.29 852.494 484.595 853.787 480.9 846.276 477.204 852.117 473.501 846.751 470.105 848.708 471.266 845.107 468.602 841.49 468.466 838.16 466.753 833.303 470.743 832.378 462.063 826.825 466.193 823.897 463.717 819.859 463.166 815.182 463.058 816.226 455.766 809.952 457.033 806.502 454.852 803.522 452.108 806.534 445.38 803.632 442.891 800.71 440.2 795.778 438.022 797.475 433.323 796.343 429.67 801.835 425.026 799.676 421.79 796.365 418.279 793.402 414.327 800.841 411.392 794.622 406.516 801.405 404.388 796.814 398.922 799.159 395.648 799.554 391.434 803.432 389.179 805.777 386.139 808.343 383.3 812.946 382.515 816.828 381.484 816.729 375.559 819.818 373.325 823.304 371.754 826.352 369.327 831.431 371.957 834.662 370.449 837.696 367.659 841.071 365.154 844.858 364.425 848.708 363.634 845.419 366.319 852.798 363.067 848.328 359.373 849.394 355.68 848.212 351.987 846.467 348.298 848.558 344.604 854.328 340.913 849.757 337.219 846.533 333.526 851.116 329.832 849.742 326.136 848.738 322.44 850.64 318.744 844.84 315.049 847.623 311.354 846.449 307.658 846.841 303.955 853.691 299.865 848.708 303.099 845.313 296.128 841.939 295.774 837.79 298.914 834.89 295.786 830.248 298.223 827.626 294.897 822.782 296.208 823.257 288.343 815.026 293.721 815.122 287.493 815.098 282.342 806.048 285.699 805.475 281.097 802.457 278.458 806.297 271.887 806.203 268.141 796.095 268.358 800.232 262.968 799.622 259.414 800.935 255.608 793.692 252.665 793.106 248.733 795.855 244.954 798.844 241.561 801.642 238.49 800.474 234.568 795.747 228.978 797.684 225.427 801.974 223.213 808.656 222.997 804.804 215.863 813.524 218.248 815.535 215.559 817.582 212.807 819.491 209.697 820.148 204.291 822.739 201.175 826.467 200.033 830.833 200.808 835.256 202.928 838.564 202.123 841.888 201.338 844.846 194.713 848.708 192.909 853.614 197.603 845.627 193.603 849.023 189.993 847.263 186.382 851.98 182.767 848.15 179.156 850.792 175.545 850.067 171.932 852.741 168.319 851.487 164.707 850.269 161.094 852.697 157.48 847.597 153.868 850.402 150.254 852.769 146.64 851.398 143.026 847.433 139.413 851.765 135.798 853.967 132.184 847.87 128.571 850.363 124.961 846.986 121.347 851.498 117.735 847.364 114.12 854.652 110.506 848.821 106.892 851.313 103.275 854.102 99.659 849.976 96.042 847.201 92.426 849.714 88.81 846.201 85.193 845.472 81.571 852.637 75.126 846.192 80.758 842.569 80.452 838.944 79.781 835.317 77.711 831.692 74.051 828.068 80.636 824.443 78.791 820.816 79.582 817.191 82.471 813.565 79.786 809.938 74.242 806.313 77.614 802.686 81.486 799.059 78.082 795.432 77.914 791.806 73.772 788.178 77.976 784.551 77.916 780.924 74.951 777.301 75.408 773.674 74.405 770.049 75.952 766.421 77.977 762.795 74.872 759.167 80.753 755.537 80.364 751.907 75.357 748.278 82.58 744.649 73.26 741.02 81.058 737.39 75.193 733.754 73.849 729.678 74.081 727.907 79.187 733.659 83.122 726.532 86.084 731.696 90.736 729.448 94.118 723.97 96.109 725.333 100.529 725.541 104.82 724.217 108.506 722.904 112.356 719.948 115.017 712.095 112.682 714.839 121.007 709.81 120.879 704.6 119.651 701.465 121.069 699.278 124.467 697.796 130.649 692.046 124.965 690.414 133.499 686.327 132.931 682.277 130.556 678.602 131.502 674.917 130.692 671.633 127.623 668.257 126.721 663.024 132.242 659.131 131.386 656.86 126.792 655.45 121.591 650.084 123.559 648.882 118.89 642.312 121.064 644.339 113.448 638.196 114.198 636.554 110.662 635.489 106.891 634.549 103.238 632.59 100.198 629.003 97.686 627.094 94.311 631.909 89.349 628.654 86.372 622.861 83.17 625.76 79.187 626.885 79.653 623.556 75.637 620.028 76.575 616.498 76.594 612.973 78.389 609.444 78.432 605.919 80.418 602.39 77.229 598.863 77.165 595.333 81.781 591.805 79.948 588.275 82.466 584.743 81.622 581.211 74.527 577.684 79.537 574.153 80.378 570.621 74.249 567.088 77.468 563.549 77.98 559.916 77.138 561.838 79.187 559.053 82.805 561.185 86.762 557.893 89.935 559.15 94.062 552.801 95.713 552.263 99.174 549.799 101.737 553.275 107.968 550.741 110.814 546.38 112.015 546.628 117.322 544.049 120.22 537.624 118.105 534.137 119.097 531.294 120.952 528.542 123.091 525.591 125.024 523.675 130.887 519.044 127.668 516.353 133.862 512.015 128.357 508.495 134.996 504.778 131.153 501.365 128.756 498.562 124.822 493.499 130.256 489.877 129.101 486.71 126.887 484.344 123.417 481.945 120.504 474.666 124.37 477.971 114.416 473.393 114.287 465.801 116.182 468.282 109.287 464.037 107.757 466.133 102.313 465.945 98.615 459.303 97.535 454.43 95.061 458.372 90.092 460.305 86.121 452.493 83.189 452.562 79.187 456.656 80.694 453.45 78.387 449.921 75.882 446.391 75.133 442.867 76.933 439.338 81.105 435.813 75.26 432.284 78.708 428.757 82.389 425.226 74.594 421.698 72.954 418.168 77.512 414.636 74.666 411.105 75.421 407.577 78.016 404.046 74.99 400.514 75.355 396.981 78.11 393.443 82.923 389.908 77.978 393.58 79.187 389.692 82.858 385.353 85.946 385.843 89.515 386.952 93.449 385.913 96.914 384.723 100.348 380.79 102.338 381.248 106.732 377.748 108.651 379.826 115.097 374.111 114.913 374.254 120.58 368.601 119.552 368.838 126.565 364.764 127.49 361.005 128.71 357.673 130.893 353.788 131.639 349.227 129.008 345.185 126.423 342.277 133.596 338.387 130.972 334.619 131.88 330.499 134.078 327.177 130.719 324.772 125.549 319.351 130.222 315.384 129.55 312.981 125.712 312.555 119.389 309.555 117.707 307.269 115.101 298.628 118.944 302.748 110.064 298.608 108.962 294.869 107.153 289.391 105.943 287.333 102.505 294.435 95.58 288.48 93.842 291.21 89.454 285.755 86.754 286.558 82.895 289.677 79.187 286.664 79.746 283.283 77.674 279.697 81.687 276.111 79.835 272.523 79.376 268.932 77.251 265.345 78.173 261.757 73.436 258.169 79.165 254.579 79.348 250.991 82.659 247.402 82.551 243.812 81.949 240.223 76.805 236.633 76.105 233.044 74.875 229.453 77.043 225.864 76.223 222.273 79.056 218.687 78.513 215.096 74.51 211.51 78.536 207.92 73.95 204.331 75.735 200.74 78.415 197.15 81.019 193.559 82.846 189.966 76.429 186.373 78.156 182.78 78.525 179.188 82.107 175.595 81.583 172.002 81.911 168.403 76.781 166.708 79.845 168.95 81.561 168.144 85.174 162.395 88.789 160.058 92.406 160.077 96.021 168.074 99.635 161.27 103.251 162.279 106.867 166.854 110.482 161.032 114.098 166.052 117.715 168.836 121.331 160.77 124.948 169.628 128.564 168.332 132.181 161.462 135.798 163.032 139.416 166.64 143.033 166.234 146.65 168.29 150.262 164.722 153.879 166.56 157.494 169.073 161.113 161.098 164.729 169.162 168.347 167.692 171.967 163.754 175.586 162.043 179.206 166.8 182.825 168.894 186.444 165.721 190.064 166.411 193.69 167.769 196.354 168.281 201.993 171.781 199.846 175.362 199.507 178.969 199.613 181.454 203.882 184.979 203.966 191.257 198.429 195.285 199.288 194.641 207.711 197.152 210.162 204.226 207.254 205.044 211.972 210.587 212.075 207.333 219.504 213.99 219.357 209.213 226.389 211.422 229.035 213.343 231.926 212.987 235.603 223.461 236.733 215.542 241.932 220.049 245.03 216.82 248.733 223.969 252.713 217.968 255.88 221.927 260.402 216.063 262.765 218.387 267.423 210.648 268.079 211.445 272.3 210.254 275.707 207.608 278.172 208.659 283.723 202.06 282.514 204.805 290.885 198.752 289.442 194.555 289.624 195.03 297.717 191.466 299.497 185.127 293.902 181.5 293.743 178.291 294.725 175.682 300.202 171.972 300.329 168.281 298.051 162.363 299.333 160.404 303.661 167.342 307.17 167.881 310.68 166.913 314.186 161.457 317.696 166.226 321.202 160.705 324.712 161.121 328.22 165.808 331.731 164.557 335.24 165.219 338.751 162.972 342.263 162.111 345.776 168.183 349.284 168.429 352.796 168.205 356.309 162.096 359.823 166.405 363.342 162.301 367.697 168.281 367.736 171.972 366.676 175.739 366.41 179.881 364.946 181.959 371.704 185.003 373.447 188.372 374.283 192.091 374.672 194.104 378.092 199.941 375.988 198.969 382.862 203.857 382.705 211.003 381.26 207.794 388.705 209.427 391.841 210.864 395.032 217.169 395.952 212.765 401.688 216.234 404.198 215.791 407.94 219.295 410.943 218.613 414.677 217.423 418.279 219.907 421.973 215.014 425.005 214.903 428.427 214.566 431.873 217.407 436.604 211.112 437.837 213.036 442.717 215.514 448.64 213.274 451.966 206.264 451.192 207.848 457.849 200.388 455.337 199.96 460.599 198.112 464.695 194.775 466.797 189.59 464.942 187.026 468.535 184.18 472.434 179.947 471.918 175.098 465.65 171.635 465.099 168.281 473.396 163.518 469.266 166.381 473.207 164.864 476.716 163.402 480.227 166.76 483.732 159.98 487.242 164.731 490.748 166.785 494.258 162.658 497.766 164.741 501.277 163.892 504.786 160.661 508.297 162.861 511.809 167.228 515.322 166.568 518.83 168.877 522.342 167.103 525.855 166.068 529.369 160.649 532.888 161.116 537.64 168.281 539.464 172.215 532.776 176.212 532.638 178.439 541.152 181.957 541.256 184.632 543.986 190.863 538.383 190.805 546.568 193.807 548.099 201.521 543.428 201.837 549.1 204.502 551.606 210.21 551.494 211.61 555.39 215.014 557.79 214.411 562.638 211.06 568.293 217.802 569.355 216.602 573.636 214.502 577.766 220.832 580.27 223.914 583.85 217.014 587.826 216.322 591.266 217.182 594.861 220.161 599.111 213.319 601.053 218.408 606.523 215.163 609.237 214.963 613.318 213.396 616.822 209.355 618.573 206.387 620.845 207.605 627.151 200.744 625.293 198.925 628.764 197.792 633.744 192.209 631.653 191.756 639.223 186.189 635.84 182.497 636.237 179.074 637.434 175.306 636.656 172.142 641.839 168.281 635.417 167.669 640.203 164.252 642.753 161.66 646.262 163.514 649.773 161.472 653.278 166.859 656.788 162.332 660.294 165.029 663.804 168.017 667.312 168.496 670.823 168.402 674.332 166.737 677.843 160.048 681.355 169.657 684.868 169.632 688.376 167.936 691.888 165.836 695.401 168.357 698.915 160.819 702.434 168.245 704.803 168.281 702.001 172.184 702.767 175.819 704.939 178.275 711.455 182.695 708.287 187.086 706.956 188.519 713.054 190.684 716.334 198.098 710.982 199.065 716.25 204.96 715.046 207.501 718.153 207.928 723.019 206.468 728.791 212.862 728.722 209.588 734.823 216.568 735.32 218.584 738.609 214.297 743.858 219.392 746.253 224.232 749.332 216.569 753.914 220.116 757.372 217.969 760.928 214.458 764.018 216.107 767.78 218.96 772.253 215.633 775.034 215.283 778.838 213.137 781.865 210.869 784.741 206.094 785.675 205.942 790.005 207.676 796.769 203.459 797.97 201.75 802.08 198.649 804.621 191.782 800.42 187.727 799.962 185.711 804.105 182.458 805.652 179.249 807.787 175.643 808.569 172.174 811.836 168.281 808.465 167.563 809.678 162.643 812.44 166.036 816.094 161.19 819.745 160.313 823.395 169.035 827.047 161.299 830.7 167.684 834.351 168.816 838.002 162.776 841.656 161.177 845.307 167.758 848.961 169.045 852.613 167.364 856.266 166.099 859.919 169.635 863.573 163.2 867.226 165.719 870.879 166.001 874.528 167.939 878.182 164.278 881.833 159.933 885.487 161.096 889.14 169.267 892.794 167.321 896.45 163.986 900.106 168.363 903.761 161.525 907.416 161.536 911.072 162.276 914.728 160.318 918.39 163.049 923.774 168.398 924.488 171.99 925.095 175.583 919.21 179.176 919.951 182.773 919.288 186.367 926.336 189.96 924.63 193.555 926.418 197.15 920.529 200.744 926.293 204.339 924.71 207.935 921.069 211.53 921.31 215.126 919.176 218.722 921.622 222.318 925.591 225.914 924.563 229.51 920.694 233.103 924.15 236.699 917.677 240.291 920.345 243.887 925.66 247.482 917.397 251.079 926.554 254.675 923.808 258.272 920.115 261.871 924.261 265.47 922.242 269.069 919.792 272.667 925.136 276.266 922.126 279.865 923.225 283.47 924.98 287.848 924.425 288.684 918.648 288.431 914.949 290.641 911.861 291.959 908.602 291.839 904.659 295.958 902.832 291.435 895.703 297.126 895.095 297.031 890.109 301.223 888.837 307.476 890.43 308.405 886.019 309.145 880.521 313.281 880.08 315.935 876.88 321.319 880.369 325.441 882.104 327.945 878.149 331.507 878.332 334.429 870.641 338.387 876.189 341.966 876.114 346.257 871.275 350.087 872.249 352.542 877.916 356.368 877.886 360.74 877.106 363.627 879.837 366.663 882.056 370.432 883.216 370.035 889.566 371.602 892.886 376.367 893.119 380.006 894.822 382.512 897.588 385.363 900.248 382.588 905.784 383.569 909.095 386.079 911.879 385.712 915.576 389.257 918.455 389.011 924.14 393.251 917.76 396.801 920.864 400.352 918.707 403.898 919.947 407.448 920.749 410.994 925.724 414.545 918.451 418.093 920.473 421.645 924.435 425.195 919.782 428.747 925.821 432.3 918.97 435.853 921.306 439.401 927.004 442.954 923.542 446.508 919.821 450.062 922.506 453.622 923.565 456.582 920.232 454.153 917.882 454.831 914.064 462.371 912.372 464.4 909.523 464.281 905.776 459.941 899.349 464.587 897.73 468.272 895.897 470.296 892.921 475.329 892.932 476.498 889.152 477 883.961 479.677 881.194 483.048 879.447 486.76 878.478 490.529 877.923 495.51 881.97 498.509 880.289 501.334 876.336 505.16 879.624 508.495 874.267 511.894 878.698 516.157 872.761 519.023 877.746 522.497 878.444 527.851 874.138 529.802 879.432 531.217 884.522 534.795 885.182 536.801 888.304 539.084 890.814 544.188 890.347 548.035 891.729 549.19 895.534 553.135 897.245 554.791 900.634 556.127 904.141 560.047 906.58 558.065 911.288 560.26 914.517 564.193 917.658 559.787 922.113 563.357 918.62 566.907 925.808 570.458 922.885 574.005 920.166 577.555 926.464 581.101 920.33 584.652 918.584 588.201 920.65 591.752 923.366 595.302 926.208 598.854 917.919 602.407 918.18 605.96 917.226 609.509 925.897 613.062 917.636 616.615 918.522 620.169 917.127 623.729 925.387 627.013 921.213 625.787 918.134 632.822 915.945 630.123 911.631 629.378 907.499 632.786 905.009 632.285 900.621 634.364 897.51 633.999 892.515 639.315 891.952 643.329 890.775 646.903 889.503 649.165 886.763 649.982 881.508 653.431 879.961 656.469 877.593 660.316 877.052 664.661 878.656 667.483 874.974 671.404 876.072 674.657 870.835 678.602 875.534 682.407 872.84 685.7 876.774 689.027 878.23 693.4 875.683 695.486 880.874 701.579 875.716 704.171 879.222 708.008 880.266 709.339 884.996 714.222 884.884 711.413 893.298 716.512 893.18 721.28 894.003 723.623 896.991 726.868 899.514 728.745 902.938 729.862 906.695 729.511 910.866 729.501 914.723 730.213 918.332 729.406 923.622 733.543 926.034 737.173 921.917 740.803 918.793 744.437 923.256 748.068 921.099 751.698 918.36 755.33 919.683 758.963 921.58 762.594 917.483 766.226 920.074 769.859 918.855 773.491 923.913 777.124 919.354 780.757 920.776 784.39 924.609 788.023 917.975 791.657 925.497 795.29 920.5 798.923 921.921 802.552 925.152 806.185 918.605 809.816 926.421 813.451 917.353 817.083 918.375 820.718 924.786 824.353 917.085 827.989 926.514 831.625 918.886 835.26 921.72 838.895 919.762 842.531 920.019 846.173 919.079 847.588 919.827 853.334 918.405 846.655 914.754 851.364 911.107 846.196 907.46 849.866 903.811 853.082 900.162 853.668 896.514 847.498 892.865 845.965 889.215 847.496 885.567 850.201 881.917 854.48 878.268 848.368 874.618 847.89 870.968 849.416 867.318 848.506 863.668 844.888 860.018 852.325 856.372 847.795 852.722 845.659 849.075 853.825 845.423 850.551 841.774 850.077 838.123 851.719 834.471 854.299 830.818 845.693 827.166 845.861 823.514 853.281 819.862 847.184 816.209 851.93 812.55 849.797 808.893 848.708 808.266" style="fill: none; stroke: #000; stroke-linecap: round; stroke-linejoin: round; stroke-width: 35px;"/>
  </g>
  <polygon points="705.479 782.519 702.348 780.033 698.74 783.36 695.132 781.138 691.524 780.03 687.916 780.888 684.307 778.638 680.698 785.737 677.088 784.141 673.477 779.186 669.865 787.788 666.254 784.218 662.644 786.12 659.034 781.711 655.425 784 651.816 783.694 648.207 787.244 644.599 779.01 640.99 787.734 637.38 781.529 633.77 787.075 630.158 783.852 626.546 785.009 622.935 778.556 619.325 787.272 615.715 780.872 612.105 785.559 608.496 787.418 604.886 781.042 601.276 781.467 597.666 783.666 594.054 782.54 590.442 783.558 586.831 783.014 583.22 779.476 579.61 783.348 576 783.63 572.39 786.462 568.779 783.623 565.168 787.262 561.556 781.979 557.944 781.367 554.333 782.96 550.722 784.032 547.112 786.385 543.501 782.435 539.89 780.221 536.277 777.998 532.665 779.058 529.054 786.624 525.443 785.418 521.832 779.81 518.22 786.52 514.608 784.879 510.996 781.785 507.384 784.191 503.773 787.317 500.166 787.561 496.56 784.097 492.954 785.29 489.347 787.888 485.739 787.622 482.128 782.153 478.515 786.206 474.903 781.874 471.293 780.606 467.685 787.254 464.077 784.224 460.468 783.212 456.858 785.523 453.245 784.476 449.632 778.342 446.021 778.299 442.411 785.662 438.801 778.565 435.19 780.644 431.576 787.56 427.963 783.417 424.352 786.249 420.74 778.086 417.128 781.714 413.513 778.171 409.9 782.792 406.288 786.247 402.674 783.07 399.06 781.314 395.447 785.603 391.833 781.623 388.218 787.145 384.605 787.444 380.99 782.697 377.375 784.02 373.76 784.93 370.146 785.838 366.53 778.845 362.915 785.595 359.301 781.12 355.69 781.221 352.075 787.204 348.462 778.133 344.845 778.602 341.231 787.928 337.615 779.247 333.998 785.104 330.38 784.53 326.763 786.498 323.146 780.815 319.529 780.064 315.911 778.298 312.287 786.78 305.78 785.893 303.683 779.39 304.94 775.785 305.062 772.181 307.384 768.578 310.672 764.976 304.948 761.374 311.615 757.773 310.74 754.172 306.397 750.572 310.819 746.971 307.178 743.371 305.178 739.771 311.261 736.172 305.676 732.572 311.391 728.971 311.507 725.371 313.655 721.771 311.198 718.169 309.327 714.568 304.008 710.966 310.653 707.363 311.718 703.759 304.064 700.155 312.859 696.55 311.424 692.945 304.246 689.341 304.294 685.737 307.921 682.135 311.797 678.532 304.09 674.931 312.953 671.329 311.118 667.728 313.416 664.127 310.771 660.525 307.758 656.924 309.566 653.322 305.918 649.72 303.924 646.118 309.641 642.515 306.658 638.911 305.585 635.306 303.861 631.701 309.97 628.095 313.283 624.491 308.885 620.887 306.493 617.284 312.532 613.681 306.366 610.078 304.367 606.476 307.29 602.874 311.187 599.272 306.932 595.669 311.324 592.066 303.981 588.462 309.154 584.858 304.853 581.252 308.673 577.646 312.66 574.041 310.849 570.436 312.489 566.832 312.489 563.229 307.009 559.625 312.216 556.022 304.411 552.419 305.628 548.816 305.304 545.212 310.507 541.607 305.37 538.001 307.876 534.395 304.908 530.789 309.41 527.184 303.73 523.58 310.068 519.976 308.931 516.372 310.507 512.769 312.528 509.164 310.596 505.559 304.742 501.953 306.966 498.347 305.358 494.741 307.778 491.136 309.027 487.531 310.418 483.927 309.279 480.322 306.484 476.718 309.081 473.112 306.959 469.505 311.905 465.899 312.49 462.293 305.004 458.688 313.208 455.084 304.896 451.478 312.974 447.873 312.525 444.266 308.361 440.659 311.014 437.054 306.616 433.448 311.095 429.843 313.179 426.237 306.943 422.63 311.71 419.024 306.979 415.418 311.848 411.812 309.064 408.211 305.75 404.611 306.005 401.01 307.644 397.409 304.356 393.806 304.916 390.201 305.674 386.593 308.352 382.987 313.635 379.383 306.902 375.78 311.309 372.178 312.359 368.575 309.286 364.97 305.516 361.363 305.94 357.755 311.371 354.15 304.717 350.546 310.498 346.941 308.6 343.336 310.696 339.727 307.679 336.12 310.994 332.514 310.733 328.909 313.014 325.302 304.674 321.692 306.114 318.085 305.389 314.479 306.583 310.871 308.617 307.262 311.019 303.654 308.905 300.046 303.816 296.437 306.952 292.829 311.975 289.22 309.75 285.611 311.174 282.002 312.4 278.393 308.807 274.782 304.228 271.177 306.289 267.568 313.538 263.962 308.193 260.353 303.722 256.745 313.287 253.134 307.383 249.525 306.238 245.915 313.171 242.303 312.222 238.69 311.177 235.078 303.76 231.467 305.457 227.855 313.575 224.243 305.563 220.624 311.542 219.876 312.272 219.758 315.879 212.084 319.487 214.67 323.095 215.636 326.704 218.458 330.312 220.806 333.922 215.257 337.532 216.186 341.143 217.482 344.755 216.46 348.366 217.219 351.976 219.866 355.585 217.861 359.194 220.169 362.803 220.818 366.412 216.007 370.021 213.374 373.63 214.652 377.239 212.939 380.85 219.881 384.461 218.885 388.073 218.758 391.684 214.525 395.295 213.251 398.905 217.412 402.514 213.624 406.123 214.702 409.733 215.118 413.343 220.614 416.953 221.385 420.565 213.799 424.177 221.137 427.789 212.385 431.399 212.391 435.009 212.439 438.619 215.106 442.229 220.237 445.84 221.847 449.451 218.885 453.064 221.001 456.676 214.167 460.287 221.83 463.897 221.851 467.508 218.958 471.118 217.693 474.73 219.611 478.342 220.931 481.954 213.668 485.566 220.74 489.176 218.229 492.787 221.87 496.399 218.612 500.011 219.074 503.624 220.241 507.235 218.831 510.846 214.565 514.453 219.967 518.059 220.598 521.665 220.871 525.272 215.824 528.881 218.771 532.491 219.578 536.105 214.805 539.716 212.587 543.326 216.115 546.934 221.717 550.542 221.633 554.151 212.913 557.761 220.374 561.374 221.669 564.987 218.741 568.598 212.721 572.208 215.134 575.818 212.944 579.429 215.045 583.043 217.247 586.656 216.318 590.268 220.449 593.879 221.275 597.491 212.406 601.107 218.67 604.719 212.773 608.331 212.576 611.945 219.491 615.559 216.282 619.172 215.167 622.786 215.632 626.401 221.654 630.014 216.849 633.63 219.131 637.244 217.478 640.859 215.595 644.473 214.342 648.089 219.57 651.704 218.207 655.319 216.914 658.93 219.793 662.544 215.44 666.157 214.749 669.774 212.54 673.388 214.863 677.004 214.83 680.621 217.907 684.239 218.697 687.857 217.898 691.473 220.417 695.09 219.848 698.708 217.828 702.332 217.15 706.507 216.451 708.732 220.61 710.031 224.215 702.108 227.819 701.331 231.422 706.812 235.024 710.24 238.626 704.114 242.227 709.399 245.828 708.856 249.428 706.874 253.029 707.541 256.629 710.157 260.229 701.802 263.828 703.719 267.428 704.875 271.029 707.589 274.629 705.48 278.229 708.914 281.831 701.01 285.432 708.085 289.034 701.487 292.637 702.052 296.241 708.577 299.845 706.136 303.45 701.306 307.055 708.246 310.659 703.297 314.263 702.165 317.865 706.471 321.468 705.732 325.069 704.669 328.671 701.546 332.272 708.598 335.873 708.572 339.475 702.295 343.076 708.876 346.678 702.093 350.28 701.017 353.882 703.168 357.485 706.57 361.089 707.344 364.694 705.087 368.299 710.232 371.905 701.823 375.509 707.219 379.113 707.944 382.716 707.511 386.319 701.027 389.922 704.673 393.524 710.608 397.126 702.151 400.728 705.681 404.331 704.282 407.934 704.582 411.538 708.653 415.142 708.873 418.748 705.518 422.354 707.956 425.959 705.636 429.564 706.389 433.168 710.57 436.771 707.539 440.375 710.425 443.978 701.518 447.581 704.53 451.184 708.593 454.788 701.788 458.393 707.601 461.999 710.762 465.605 708.725 469.211 706.129 472.816 707.405 476.42 709.242 480.024 707.503 483.628 707.449 487.231 703.374 490.836 710.722 494.441 708.357 498.047 706.393 501.653 707.82 505.259 704.484 508.864 704.325 512.469 708.683 516.073 707.119 519.678 702.536 523.282 704.214 526.888 708.272 530.495 708.971 534.101 708.044 537.707 710.732 541.312 705.501 544.916 706.793 548.522 710.802 552.127 707.15 555.734 705.602 559.341 710.301 562.946 707.586 566.552 704.071 570.157 707.836 573.763 706.346 577.37 710.164 580.976 702.849 584.582 710.595 588.188 709.065 591.789 708.811 595.389 707.24 598.99 702.77 602.591 703.415 606.194 704.11 609.799 709.832 613.407 706.698 617.013 701.144 620.617 704.876 624.22 704.823 627.822 703.012 631.425 703.271 635.03 705.003 638.637 703.715 642.245 702.689 645.85 708.123 649.454 707.049 653.059 705.474 656.664 706.625 660.273 709.013 663.88 705.374 667.486 707.723 671.091 708.034 674.698 710.601 678.308 706.633 681.915 710.546 685.521 708 689.129 708.013 692.738 710.46 696.346 709.436 699.954 709.481 703.563 707.772 707.171 708.124 710.78 708.977 714.389 710.083 717.998 704.614 721.607 701.995 725.218 703.806 728.823 708.918 732.432 703.238 736.038 703.625 739.647 708.424 743.255 707.855 746.866 709.071 750.475 703.246 754.085 702.414 757.697 702.475 761.31 707.083 764.922 708.514 768.533 702.642 772.145 703.053 775.757 702.757 779.15 705.479 782.519" style="fill: none; stroke: #000; stroke-linecap: round; stroke-linejoin: round; stroke-width: 35px;"/>
</svg>