<?xml version="1.0" encoding="UTF-8"?>
<svg id="Sticker" xmlns="http://www.w3.org/2000/svg" width="1000" height="1000" viewBox="0 0 1000 1000">
  <g>
    <polygon points="568.894 473.587 570.847 469.88 574.466 474.359 578.085 476.443 581.703 470.207 585.32 474.973 588.937 470.243 592.553 475.111 596.17 472.327 599.786 469.013 603.403 469.269 607.021 470.908 610.639 467.62 614.258 468.18 617.877 468.937 621.494 471.616 625.111 476.898 628.728 470.166 632.345 474.573 635.963 475.622 639.581 472.55 643.2 468.779 646.819 469.204 650.437 474.634 654.055 467.981 657.672 473.762 661.29 471.864 664.908 473.96 668.527 470.943 672.146 474.258 675.764 473.997 679.382 476.278 683 467.938 686.619 469.378 690.238 468.652 693.857 469.846 697.476 471.881 701.094 474.283 704.712 472.168 708.325 467.08 711.938 470.215 715.552 475.239 719.167 473.014 722.785 474.438 726.405 475.663 730.023 472.07 733.64 467.492 737.255 469.552 740.87 476.802 744.486 471.456 748.103 466.986 751.722 476.55 755.342 470.646 758.96 469.502 762.577 476.434 766.194 475.485 769.812 474.441 773.433 467.024 777.052 468.721 780.671 476.838 784.289 468.826 787.908 475.993 791.53 474.679 795.15 467.006 798.768 469.591 802.389 470.558 806.01 473.38 809.63 475.727 813.25 470.178 816.872 471.107 820.493 472.403 824.115 471.381 827.736 472.14 831.358 474.788 834.979 472.782 838.602 475.09 842.223 475.739 845.845 470.928 849.462 468.295 853.084 469.573 856.704 467.86 860.327 474.803 863.948 473.806 867.571 473.68 871.195 469.446 874.82 468.172 878.444 472.334 882.068 468.545 885.692 469.623 889.316 470.04 892.947 475.536 892.246 472.57 893.595 475.707 888.785 469.103 886.761 478.345 883.22 478.962 879.67 479.537 875.668 477.532 871.24 473.101 867.422 472.138 864.396 475.677 860.491 474.215 858.136 481.568 853.27 474.644 849.726 475.246 846.687 478.717 843.364 480.585 839.491 479.319 835.723 478.641 833.441 486.417 828.678 480.074 825.573 483.169 821.403 480.206 818.427 484.037 814.805 484.205 811.062 483.678 807.766 485.69 804.965 490.514 800.49 485.816 796.84 485.816 793.253 486.169 790.585 491.763 786.533 489.483 782.853 489.311 780.14 494.634 776.984 497.441 772.832 494.589 768.32 489.695 764.793 490.4 762.763 499.611 757.934 492.884 754.174 492.23 751.145 495.736 748.652 502.287 744.698 500.532 741.539 503.311 737.636 501.863 733.712 500.318 730.332 501.856 726.078 498.409 722.397 498.218 720.395 507.575 715.772 502.027 713.254 508.458 709.746 509.274 705.006 503.087 702.022 506.869 698.676 508.59 695.056 508.755 690.473 503.446 687.762 508.801 683.824 507.176 680.57 509.427 677.356 511.904 674.031 513.761 669.581 509.235 666.275 511.2 662.958 513.096 658.917 510.884 656.127 515.794 652.704 517.097 649.544 519.896 645.597 518.231 642.06 518.887 637.983 516.479 634.303 516.325 630.897 517.734 626.917 515.877 623.471 517.06 620.281 519.672 616.854 520.963 613.474 522.498 610.275 525.085 606.957 526.988 602.04 519.807 598.361 519.666 595.765 525.687 592.812 529.687 588.204 524.277 585.577 530.105 581.936 530.193 578.045 528.865 574.612 530.146 571.512 533.347 569.906 526.657 569.467 526.217 568.311 522.6 565.597 518.986 567.706 515.369 564.272 511.753 572.176 508.135 565.101 504.518 571.699 500.899 571.134 497.279 564.609 493.659 567.05 490.039 571.88 486.42 564.94 482.8 569.889 479.18 570.864 476.635 568.894 473.587"/>
    <polygon points="568.894 473.587 570.847 469.88 574.466 474.359 578.085 476.443 581.703 470.207 585.32 474.973 588.937 470.243 592.553 475.111 596.17 472.327 599.786 469.013 603.403 469.269 607.021 470.908 610.639 467.62 614.258 468.18 617.877 468.937 621.494 471.616 625.111 476.898 628.728 470.166 632.345 474.573 635.963 475.622 639.581 472.55 643.2 468.779 646.819 469.204 650.437 474.634 654.055 467.981 657.672 473.762 661.29 471.864 664.908 473.96 668.527 470.943 672.146 474.258 675.764 473.997 679.382 476.278 683 467.938 686.619 469.378 690.238 468.652 693.857 469.846 697.476 471.881 701.094 474.283 704.712 472.168 708.325 467.08 711.938 470.215 715.552 475.239 719.167 473.014 722.785 474.438 726.405 475.663 730.023 472.07 733.64 467.492 737.255 469.552 740.87 476.802 744.486 471.456 748.103 466.986 751.722 476.55 755.342 470.646 758.96 469.502 762.577 476.434 766.194 475.485 769.812 474.441 773.433 467.024 777.052 468.721 780.671 476.838 784.289 468.826 787.908 475.993 791.53 474.679 795.15 467.006 798.768 469.591 802.389 470.558 806.01 473.38 809.63 475.727 813.25 470.178 816.872 471.107 820.493 472.403 824.115 471.381 827.736 472.14 831.358 474.788 834.979 472.782 838.602 475.09 842.223 475.739 845.845 470.928 849.462 468.295 853.084 469.573 856.704 467.86 860.327 474.803 863.948 473.806 867.571 473.68 871.195 469.446 874.82 468.172 878.444 472.334 882.068 468.545 885.692 469.623 889.316 470.04 892.947 475.536 892.246 472.57 893.595 475.707 888.785 469.103 886.761 478.345 883.22 478.962 879.67 479.537 875.668 477.532 871.24 473.101 867.422 472.138 864.396 475.677 860.491 474.215 858.136 481.568 853.27 474.644 849.726 475.246 846.687 478.717 843.364 480.585 839.491 479.319 835.723 478.641 833.441 486.417 828.678 480.074 825.573 483.169 821.403 480.206 818.427 484.037 814.805 484.205 811.062 483.678 807.766 485.69 804.965 490.514 800.49 485.816 796.84 485.816 793.253 486.169 790.585 491.763 786.533 489.483 782.853 489.311 780.14 494.634 776.984 497.441 772.832 494.589 768.32 489.695 764.793 490.4 762.763 499.611 757.934 492.884 754.174 492.23 751.145 495.736 748.652 502.287 744.698 500.532 741.539 503.311 737.636 501.863 733.712 500.318 730.332 501.856 726.078 498.409 722.397 498.218 720.395 507.575 715.772 502.027 713.254 508.458 709.746 509.274 705.006 503.087 702.022 506.869 698.676 508.59 695.056 508.755 690.473 503.446 687.762 508.801 683.824 507.176 680.57 509.427 677.356 511.904 674.031 513.761 669.581 509.235 666.275 511.2 662.958 513.096 658.917 510.884 656.127 515.794 652.704 517.097 649.544 519.896 645.597 518.231 642.06 518.887 637.983 516.479 634.303 516.325 630.897 517.734 626.917 515.877 623.471 517.06 620.281 519.672 616.854 520.963 613.474 522.498 610.275 525.085 606.957 526.988 602.04 519.807 598.361 519.666 595.765 525.687 592.812 529.687 588.204 524.277 585.577 530.105 581.936 530.193 578.045 528.865 574.612 530.146 571.512 533.347 569.906 526.657 569.467 526.217 568.311 522.6 565.597 518.986 567.706 515.369 564.272 511.753 572.176 508.135 565.101 504.518 571.699 500.899 571.134 497.279 564.609 493.659 567.05 490.039 571.88 486.42 564.94 482.8 569.889 479.18 570.864 476.635 568.894 473.587" style="fill: none; stroke: #000; stroke-linecap: round; stroke-linejoin: round; stroke-width: 35px;"/>
  </g>
  <g>
    <polygon points="435.854 467.089 429.153 472.909 425.534 471.312 421.915 466.358 418.297 474.959 414.68 471.389 411.063 473.291 407.447 468.882 403.83 471.171 400.214 470.866 396.597 474.415 392.979 466.181 389.361 474.906 385.742 468.7 382.123 474.246 378.506 471.024 374.889 472.181 371.272 465.728 367.655 474.443 364.037 468.044 360.419 472.731 356.8 474.589 353.181 468.214 349.563 468.639 345.945 470.837 342.328 469.711 338.71 470.729 335.092 470.186 331.473 466.647 327.854 470.52 324.236 470.801 320.618 473.633 317 470.794 313.381 474.433 309.762 469.15 306.143 468.538 302.524 470.132 298.906 471.203 295.288 473.557 291.675 469.606 288.062 467.393 284.448 465.169 280.833 466.23 277.215 473.795 273.595 472.589 269.977 466.982 266.36 473.691 262.745 472.051 259.13 468.956 255.514 471.362 251.897 474.489 248.278 474.732 244.658 471.268 241.04 472.462 237.423 475.059 233.806 474.794 230.188 469.325 226.567 473.378 222.948 469.045 219.329 467.778 215.711 474.425 212.092 471.396 208.47 470.383 204.85 472.694 201.232 471.647 197.611 465.513 193.99 465.47 190.37 472.833 186.75 465.736 183.128 467.816 179.507 474.731 175.885 470.589 172.264 473.42 168.642 465.257 165.021 468.885 161.398 465.343 157.777 469.963 154.155 473.418 150.538 470.241 146.916 468.485 143.296 472.774 139.673 468.795 136.052 474.316 132.429 474.616 128.805 469.868 125.18 471.191 121.556 472.102 117.932 473.009 114.308 466.017 110.684 472.766 107.053 468.292 101.668 469.905 107.69 466.641 109.658 476.198 113.278 476.358 118.434 467.796 120.472 476.968 125.026 471.822 128.467 473.01 132.347 471.694 134.901 477.913 138.31 479.275 141.543 481.636 146.55 473.905 150.143 474.229 153.838 473.973 157.162 475.834 160.681 476.576 163.819 479.486 166.789 483.346 171.319 478.331 173.704 485.519 177.395 485.28 181.688 481.625 184.464 486.603 188.635 483.64 192.522 482.293 195.008 488.906 199.515 484.028 202.065 490.278 205.586 491.015 208.755 493.754 212.722 491.956 216.586 490.737 221.048 486.12 223.437 493.287 226.793 494.958 231.661 488.043 233.679 497.327 237.468 496.536 242.248 490.089 245.775 490.759 248.683 494.952 251.547 499.391 256.418 492.422 258.421 501.773 262.279 500.589 265.424 503.474 269.422 501.492 273.483 499.147 276.708 501.55 280.877 498.579 284.76 497.237 287.31 503.489 291.368 501.175 295.096 500.741 298.935 499.666 301.416 506.304 304.382 510.189 308.684 506.481 312.641 504.747 315.138 511.318 319.746 505.868 323.633 504.522 326.668 508.023 329.538 512.485 333.817 508.917 336.597 513.865 341.412 507.255 344.06 512.974 348.347 509.36 351.228 513.745 354.082 518.296 357.938 517.134 361.198 519.373 364.742 519.996 369.235 515.222 371.877 520.974 376.773 513.909 380.103 515.73 383.703 516.035 386.342 521.781 390.776 517.345 393.885 520.437 397.944 518.137 400.709 523.193 405.237 518.223 407.687 525.088 411.431 524.592 414.7 526.768 417.897 529.381 421.779 528.103 426.341 522.961 429.51 525.776 430.64 525.544 431.885 524.455 433.134 520.838 434.524 517.225 433.385 513.607 430.591 509.992 433.187 506.373 431.065 502.756 436.012 499.138 436.596 495.518 429.11 491.898 437.314 488.277 429.002 484.658 437.08 481.039 436.631 477.418 432.48 473.705 435.854 467.089"/>
    <polygon points="435.854 467.089 429.153 472.909 425.534 471.312 421.915 466.358 418.297 474.959 414.68 471.389 411.063 473.291 407.447 468.882 403.83 471.171 400.214 470.866 396.597 474.415 392.979 466.181 389.361 474.906 385.742 468.7 382.123 474.246 378.506 471.024 374.889 472.181 371.272 465.728 367.655 474.443 364.037 468.044 360.419 472.731 356.8 474.589 353.181 468.214 349.563 468.639 345.945 470.837 342.328 469.711 338.71 470.729 335.092 470.186 331.473 466.647 327.854 470.52 324.236 470.801 320.618 473.633 317 470.794 313.381 474.433 309.762 469.15 306.143 468.538 302.524 470.132 298.906 471.203 295.288 473.557 291.675 469.606 288.062 467.393 284.448 465.169 280.833 466.23 277.215 473.795 273.595 472.589 269.977 466.982 266.36 473.691 262.745 472.051 259.13 468.956 255.514 471.362 251.897 474.489 248.278 474.732 244.658 471.268 241.04 472.462 237.423 475.059 233.806 474.794 230.188 469.325 226.567 473.378 222.948 469.045 219.329 467.778 215.711 474.425 212.092 471.396 208.47 470.383 204.85 472.694 201.232 471.647 197.611 465.513 193.99 465.47 190.37 472.833 186.75 465.736 183.128 467.816 179.507 474.731 175.885 470.589 172.264 473.42 168.642 465.257 165.021 468.885 161.398 465.343 157.777 469.963 154.155 473.418 150.538 470.241 146.916 468.485 143.296 472.774 139.673 468.795 136.052 474.316 132.429 474.616 128.805 469.868 125.18 471.191 121.556 472.102 117.932 473.009 114.308 466.017 110.684 472.766 107.053 468.292 101.668 469.905 107.69 466.641 109.658 476.198 113.278 476.358 118.434 467.796 120.472 476.968 125.026 471.822 128.467 473.01 132.347 471.694 134.901 477.913 138.31 479.275 141.543 481.636 146.55 473.905 150.143 474.229 153.838 473.973 157.162 475.834 160.681 476.576 163.819 479.486 166.789 483.346 171.319 478.331 173.704 485.519 177.395 485.28 181.688 481.625 184.464 486.603 188.635 483.64 192.522 482.293 195.008 488.906 199.515 484.028 202.065 490.278 205.586 491.015 208.755 493.754 212.722 491.956 216.586 490.737 221.048 486.12 223.437 493.287 226.793 494.958 231.661 488.043 233.679 497.327 237.468 496.536 242.248 490.089 245.775 490.759 248.683 494.952 251.547 499.391 256.418 492.422 258.421 501.773 262.279 500.589 265.424 503.474 269.422 501.492 273.483 499.147 276.708 501.55 280.877 498.579 284.76 497.237 287.31 503.489 291.368 501.175 295.096 500.741 298.935 499.666 301.416 506.304 304.382 510.189 308.684 506.481 312.641 504.747 315.138 511.318 319.746 505.868 323.633 504.522 326.668 508.023 329.538 512.485 333.817 508.917 336.597 513.865 341.412 507.255 344.06 512.974 348.347 509.36 351.228 513.745 354.082 518.296 357.938 517.134 361.198 519.373 364.742 519.996 369.235 515.222 371.877 520.974 376.773 513.909 380.103 515.73 383.703 516.035 386.342 521.781 390.776 517.345 393.885 520.437 397.944 518.137 400.709 523.193 405.237 518.223 407.687 525.088 411.431 524.592 414.7 526.768 417.897 529.381 421.779 528.103 426.341 522.961 429.51 525.776 430.64 525.544 431.885 524.455 433.134 520.838 434.524 517.225 433.385 513.607 430.591 509.992 433.187 506.373 431.065 502.756 436.012 499.138 436.596 495.518 429.11 491.898 437.314 488.277 429.002 484.658 437.08 481.039 436.631 477.418 432.48 473.705 435.854 467.089" style="fill: none; stroke: #000; stroke-linecap: round; stroke-linejoin: round; stroke-width: 35px;"/>
  </g>
</svg>