<?xml version="1.0" encoding="UTF-8"?>
<svg id="Sticker" xmlns="http://www.w3.org/2000/svg" width="1000" height="1000" viewBox="0 0 1000 1000">
  <polygon points="522.123 118.211 522.201 122.127 525.187 124.758 521.66 130.265 530.174 130.454 527.209 135.711 526.34 140.043 533.796 140.701 535.93 143.709 532.323 149.252 532.071 153.312 538.124 154.589 542.163 156.754 543.246 160.226 541.244 165.059 546.051 166.886 542.003 172.62 549.085 173.439 543.171 179.994 547.687 181.944 547.718 185.874 555.415 186.421 553.335 191.285 555.982 194.065 554.851 198.516 558.347 200.922 556.012 205.901 555.924 209.885 564.289 210.138 562.721 214.777 561.011 219.48 564.991 221.674 570.025 223.403 569.386 227.634 565.663 233.225 567.264 236.466 571.13 238.709 570.562 242.912 574.288 245.218 573.048 249.715 579.696 250.729 578.878 255.041 585.208 256.2 584.743 260.356 582.674 265.219 582.769 269.129 587.837 270.845 592.759 272.623 594.013 276.021 590.964 281.32 589.598 285.875 592.596 288.505 599.535 289.394 594.792 295.442 596.323 298.719 600.512 300.816 604.1 303.181 601.835 308.135 602.462 311.807 604.038 315.066 610.974 315.955 606.295 321.977 606.286 325.934 607.701 329.265 614.85 330.065 612.941 334.865 614.822 337.987 618.722 340.222 621.403 342.996 616.655 349.05 626.357 348.731 623.545 354.311 627.885 350.755 631.151 354.341 634.74 354.763 638.018 358.222 641.517 359.508 645.283 358.183 649.266 354.742 652.734 356.353 655.946 360.474 659.61 360.157 663.56 357.029 667.245 356.499 670.189 363.249 674.572 355.884 678.25 355.439 681.957 354.699 684.912 361.335 688.296 363.712 692.484 358.205 696.137 357.94 699.424 361.275 703.203 359.808 706.103 366.971 710.407 360.396 713.611 364.589 717.569 361.37 720.89 364.388 724.707 362.541 727.769 368.098 731.548 366.646 735.504 363.478 738.658 368.18 742.745 363.703 746.459 362.877 749.568 367.993 753.095 369.016 757.303 363.391 760.313 369.497 764.244 366.559 767.405 371.173 771.073 370.834 774.839 369.552 778.528 369.003 781.668 373.822 785.17 375.115 788.792 375.248 793.071 368.911 796.164 374.211 800.482 367.52 803.746 371.142 807.486 370.116 811.24 368.947 814.018 377.354 818.305 370.952 821.922 371.137 825.049 376.086 828.44 378.478 832.806 371.274 835.999 375.617 839.364 378.24 842.73 380.897 846.608 378.512 850.855 372.528 853.692 380.386 857.368 380.006 860.821 381.827 865.247 374.085 867.968 383.081 872.09 378.336 875.688 378.784 879.663 375.543 883.936 375.652 885.676 382.249 891.65 379.436 889.474 387.867 890.479 390.786 895.532 391.3 896.011 394.743 896.756 397.947 899.883 401.252 901.577 405.36 899.832 409.094 893.323 409.973 894.162 414.592 888.817 414.011 887.032 417.436 886.017 421.72 880.326 420.773 877.402 422.917 878.125 429.136 876.281 432.483 871.481 432.526 867.825 433.848 867.742 439.163 866.063 442.696 862.077 443.652 858.157 444.684 858.972 451.011 855.912 453.012 851.676 453.696 847.868 454.858 846.068 458.26 843.174 460.438 839.288 461.507 837.942 465.414 833.956 466.373 833.651 471.447 826.173 468.508 826.027 473.767 824.448 477.423 819.38 477.176 817.704 480.718 816.312 484.577 814.603 488.083 810.325 488.719 811.07 494.974 806.514 495.305 802.13 495.824 797.432 495.991 798.973 503.131 791.581 500.289 789.996 503.941 788.409 507.59 782.996 506.959 786.669 516.484 778.558 512.84 780.332 520.248 773.396 517.919 775.547 525.743 770.573 525.607 770.284 530.708 762.255 527.157 760.389 530.495 757.556 532.754 755.011 535.332 753.518 539.089 752.382 543.233 746.061 541.591 747.314 548.413 743.481 549.547 739.137 550.112 739.044 555.435 733.511 554.671 735.184 561.969 728.339 559.743 724.253 560.605 726.432 568.466 720.419 567.175 716.992 568.775 718.165 575.506 711.594 573.588 712.723 580.283 705.606 577.762 703.933 581.327 700.887 583.366 697.549 587.013 704.756 590.481 697.757 595.688 701.91 598.487 701.901 602.184 704.633 605.289 701.96 609.562 701.605 613.334 708.824 615.474 703.028 620.421 709.036 622.82 707.52 626.843 711.832 629.608 710.318 633.631 709.681 637.466 713.615 640.314 709.242 644.953 717.807 646.797 709.353 652.313 711.369 655.568 714.428 658.599 713.598 662.47 716.276 665.585 720.571 668.353 720.979 671.963 718.901 676.108 715.569 680.521 724.573 682.271 725.564 685.75 726.488 689.244 725.081 693.243 726.617 696.609 720.931 701.534 721.314 705.147 730.472 706.865 728.372 711.013 722.792 715.913 723.647 719.427 731.929 721.337 729.934 725.464 733.22 728.451 731.661 732.484 729.365 736.68 728.396 740.586 733.67 743.145 738.499 745.801 731.92 750.92 736.078 753.721 737.297 757.156 739.809 760.313 735.862 764.864 736.823 768.356 739.568 771.463 740.618 774.936 737.177 779.378 738.319 782.832 743.424 785.426 745.948 788.581 742.505 793.02 741.113 797.02 746.889 799.471 744.056 803.784 746.944 806.86 743.176 811.375 752.091 813.153 744.9 818.408 749.907 821.025 747.277 825.296 751.982 827.983 755.615 830.903 758.02 834.094 753.218 838.84 753.439 842.179 754.492 845.614 755.609 849.568 755.907 853.941 749.268 854.254 748.388 857.876 744.275 858.102 740.878 858.163 739.042 861.568 735.846 861.559 732.802 861.707 729.096 864.667 726.546 861.265 724.731 858.011 721.614 856.183 715.857 858.894 710.897 860.237 709.38 855.661 705.051 855.919 704.89 849.011 699.517 851.064 697.103 848.027 696.364 842.108 689.846 846.131 688.562 841.163 685.126 839.892 681.527 838.899 681.117 832.415 674.47 836.658 673.497 831.148 671.048 828.179 668.07 826.123 661.56 830.141 661.197 823.589 654.711 827.563 655.486 819.048 651.605 818.536 646.559 820.022 646.716 812.564 642.049 813.406 640.674 808.589 635.259 810.72 634.151 805.442 628.276 808.36 625.538 805.879 620.851 806.747 620.533 800.107 617.651 797.879 614.412 796.264 611.47 794.136 607.536 793.709 602.929 794.44 599.263 793.556 597.414 789.55 596.143 784.545 591.884 784.675 589.973 780.77 583.391 784.9 580.871 782.042 578.849 778.324 577.013 774.292 575.195 770.226 568.233 775.004 566.79 770.294 563.236 769.21 559.036 769.239 557.718 764.311 556.171 759.783 551.528 760.584 549.416 757.028 546.736 754.441 540.075 758.708 538.375 754.435 537.529 748.698 532.912 749.437 527.344 751.818 525.855 747.18 521.785 746.977 519.989 742.865 517.692 739.622 511.605 742.887 512.708 733.789 505.672 738.685 505.735 731.361 500.895 735.57 497.931 734.549 496.508 739.29 489.819 734.974 487.168 737.601 486.725 744.024 482.099 743.253 477.165 741.956 473.565 742.955 470.765 745.327 470.807 752.587 468.74 756.207 464.696 756.433 462.659 760.113 456.93 757.449 452.246 756.582 451.593 762.642 446.108 760.389 443.899 763.769 442.329 768.246 438.026 768.024 436.707 772.935 433.279 774.221 426.974 770.565 427.915 779.375 421.626 775.747 421.456 782.639 418.626 784.954 411.015 779.047 411.744 787.482 405.643 784.176 402.143 785.348 399.528 788.043 399.32 794.872 392.807 790.855 391.45 795.707 390.365 801.029 384.448 798.046 383.068 802.863 377.129 799.838 376.193 805.416 374.019 808.867 371.466 811.672 366.714 810.689 365.359 815.549 360.467 814.328 359.604 820.038 355.123 819.522 352.922 822.929 350.104 825.278 345.841 825.139 341.649 825.125 338.521 826.94 337.534 832.437 330.659 827.804 331.46 836.364 328.409 838.304 321.216 833.131 321.03 839.998 317.306 840.792 311.663 838.281 311.879 845.85 304.967 841.16 305.168 848.703 298.874 845.081 298.257 851.222 295.866 854.303 294.049 858.38 287.569 854.438 287.68 861.834 281.935 859.17 278.585 860.624 277.217 866.339 273.551 868.802 269.154 866.7 265.931 861.689 262.775 861.493 259.488 860.99 258.564 856.664 251.639 859.628 251.39 855.063 247.33 853.24 244.216 850.137 251.498 845.146 246.441 842.073 250.274 839.206 252.586 836.008 246.61 831.022 248.819 827.803 246.098 823.521 254.82 821.708 256.155 818.301 251.423 813.583 251.121 809.821 258.093 807.629 252.677 802.764 260.906 800.845 261.373 797.25 259.894 793.235 258.211 789.174 255.141 784.815 258.54 781.852 262.812 779.082 260.22 774.831 261.28 771.369 259.212 767.232 260.943 763.914 266.115 761.337 265.458 757.5 261.888 753.032 270.748 751.248 263.905 746.076 271.227 743.964 268.535 739.69 271.584 736.655 273.155 733.299 271.823 729.314 269.27 725.065 268.301 721.16 274.604 718.826 277.728 715.805 279.015 712.387 272.675 707.32 280.782 705.372 281.88 701.913 275.552 696.852 279.199 693.941 277.348 689.842 284.428 687.672 284.256 683.939 286.204 680.661 277.949 675.18 278.992 671.707 282.958 668.865 281.375 664.823 280.931 661.029 283.188 657.816 289.551 655.491 291.556 652.224 292.555 648.74 286.042 643.634 286.209 639.974 288.798 636.833 292.976 634.039 292.843 630.31 293.97 626.856 296.949 623.797 290.133 618.627 291.158 615.147 300.44 613.448 295.225 608.619 298.669 605.664 298.995 602.032 295.678 597.613 302.142 595.304 301.061 591.361 299.387 588.593 300.638 583.693 297.365 581.933 292.168 582.327 287.787 581.811 285.126 579.376 287.286 571.553 282.879 571.071 277.955 571.167 276.482 567.405 276.687 561.767 272.664 560.852 271.047 557.246 263.758 559.976 262.381 556.095 263.893 548.985 255.657 552.773 255.493 547.542 250.407 547.814 252.448 540.121 249.892 537.566 246.717 535.701 241.906 535.663 239.702 532.707 240.49 526.403 237.393 524.445 232.232 524.797 231.837 519.822 223.159 524.107 223.13 518.723 218.16 518.86 218.648 512.892 216.923 509.397 215.151 505.959 211.09 505.08 207.463 503.717 202.495 503.849 203.761 497.011 197.96 498.072 197.862 492.762 191.005 495.006 189.054 491.765 187.808 487.732 186.118 484.199 186.299 478.576 179.636 480.6 178.859 476.044 178.315 471.23 173.853 470.794 169.896 469.791 164.253 470.674 167.768 461.32 159.499 465.149 156.502 463.075 157.868 456.127 155.753 453.074 151.027 452.936 151.37 447.126 144.982 448.844 144.373 444.098 139.148 444.513 138.436 439.879 132.669 440.899 134.065 433.91 130.988 431.918 124.874 433.332 124.651 428.155 121.164 426.619 119.155 423.431 113.95 423.814 115.339 416.817 107.895 419.694 106.18 415.778 104.125 412.447 103.174 408.656 104.931 404.52 99.266 401.274 99.198 397.04 104.942 394.466 104.272 390.273 108.057 388.368 108.899 384.307 114.261 385.5 113.911 377.368 119.523 381.937 122.099 375.209 125.837 376.244 129.784 379.333 133.473 379.894 136.697 375.912 140.15 374.171 144.09 377.203 147.253 372.603 151.556 379.173 154.533 372.75 158.848 379.451 162.408 378.753 165.394 372.433 169.189 374.029 172.539 371.257 176.058 370.146 180.332 376.45 184.092 377.705 187.009 370.751 190.69 371.28 194.718 375.222 198.395 375.715 201.129 366.934 205.621 375.381 208.928 372.176 212.586 372.442 216.477 375.001 220.089 374.836 223.187 369.639 226.658 368.087 230.867 373.759 234.258 371.392 237.953 371.99 241.077 367.016 245.241 372.26 248.215 365.819 252.136 368.658 255.759 368.555 259.574 370.338 262.308 361.535 266.553 367.549 269.645 362.244 273.122 360.694 276.89 362.014 280.869 365.418 284.419 364.598 288.2 366.03 291.89 366.593 295.418 365.554 298.511 360.234 302.164 360.419 306.207 364.419 309.304 359.146 313.379 363.461 316.346 356.919 320.399 361.004 324.011 360.815 327.943 363.725 331.336 361.391 334.576 357.514 337.949 354.96 342.205 361.036 345.24 355.15 349.073 357.079 352.28 352.853 356.064 354.284 359.735 354.605 363.721 358.031 367.3 357.453 371.118 359.22 374.063 352.361 380.723 357.722 381.947 351.619 376.928 345.453 386.3 345.642 384.383 340.847 381.648 335.691 387.204 334.196 383.789 328.739 391.68 328.272 395.293 325.917 388.316 318.888 395.152 317.957 392.536 312.853 394.168 309.624 400.77 308.59 403.842 305.996 405.529 302.794 405.648 298.901 405.048 294.692 405.159 290.798 404.275 286.464 405.973 283.269 412.925 282.392 413.609 278.745 411.163 273.714 413.221 270.672 419.997 269.716 419.817 265.691 421.201 262.356 419.888 257.83 419.749 253.82 419.124 249.594 425.683 248.538 422.242 243.07 426.408 240.961 428.108 237.764 434.646 236.701 432.777 231.924 430.657 227.036 437.236 225.992 438.455 222.581 440.185 219.394 436.719 213.91 444.629 213.451 445.377 209.831 441.095 203.989 440.938 199.967 446.001 198.251 443.978 193.407 453.017 193.443 454.51 190.151 452.519 185.318 454.69 182.325 459.008 180.277 458.025 175.89 457.397 171.667 455.273 166.779 458.74 164.356 463.604 162.554 459.6 156.832 463.522 154.612 466.747 152.08 471.714 150.32 465.41 143.582 470.412 141.833 476.963 140.768 470.929 134.152 475.637 132.274 479.58 130.057 481.361 126.885 478.179 121.516 479.879 118.302 483.771 116.329 488.714 116.28 486.711 109.302 488.987 105.487 493.273 105.291 497.991 110.243 500.899 108.414 504.853 103.789 507.577 108.119 509.873 110.99 514.048 110.639 517.282 112.45 514.987 118.288 522.123 118.211" style="fill: #fff;"/>
  <polygon points="522.123 118.211 522.201 122.127 525.187 124.758 521.66 130.265 530.174 130.454 527.209 135.711 526.34 140.043 533.796 140.701 535.93 143.709 532.323 149.252 532.071 153.312 538.124 154.589 542.163 156.754 543.246 160.226 541.244 165.059 546.051 166.886 542.003 172.62 549.085 173.439 543.171 179.994 547.687 181.944 547.718 185.874 555.415 186.421 553.335 191.285 555.982 194.065 554.851 198.516 558.347 200.922 556.012 205.901 555.924 209.885 564.289 210.138 562.721 214.777 561.011 219.48 564.991 221.674 570.025 223.403 569.386 227.634 565.663 233.225 567.264 236.466 571.13 238.709 570.562 242.912 574.288 245.218 573.048 249.715 579.696 250.729 578.878 255.041 585.208 256.2 584.743 260.356 582.674 265.219 582.769 269.129 587.837 270.845 592.759 272.623 594.013 276.021 590.964 281.32 589.598 285.875 592.596 288.505 599.535 289.394 594.792 295.442 596.323 298.719 600.512 300.816 604.1 303.181 601.835 308.135 602.462 311.807 604.038 315.066 610.974 315.955 606.295 321.977 606.286 325.934 607.701 329.265 614.85 330.065 612.941 334.865 614.822 337.987 618.722 340.222 621.403 342.996 616.655 349.05 626.357 348.731 623.545 354.311 627.885 350.755 631.151 354.341 634.74 354.763 638.018 358.222 641.517 359.508 645.283 358.183 649.266 354.742 652.734 356.353 655.946 360.474 659.61 360.157 663.56 357.029 667.245 356.499 670.189 363.249 674.572 355.884 678.25 355.439 681.957 354.699 684.912 361.335 688.296 363.712 692.484 358.205 696.137 357.94 699.424 361.275 703.203 359.808 706.103 366.971 710.407 360.396 713.611 364.589 717.569 361.37 720.89 364.388 724.707 362.541 727.769 368.098 731.548 366.646 735.504 363.478 738.658 368.18 742.745 363.703 746.459 362.877 749.568 367.993 753.095 369.016 757.303 363.391 760.313 369.497 764.244 366.559 767.405 371.173 771.073 370.834 774.839 369.552 778.528 369.003 781.668 373.822 785.17 375.115 788.792 375.248 793.071 368.911 796.164 374.211 800.482 367.52 803.746 371.142 807.486 370.116 811.24 368.947 814.018 377.354 818.305 370.952 821.922 371.137 825.049 376.086 828.44 378.478 832.806 371.274 835.999 375.617 839.364 378.24 842.73 380.897 846.608 378.512 850.855 372.528 853.692 380.386 857.368 380.006 860.821 381.827 865.247 374.085 867.968 383.081 872.09 378.336 875.688 378.784 879.663 375.543 883.936 375.652 885.676 382.249 891.65 379.436 889.474 387.867 890.479 390.786 895.532 391.3 896.011 394.743 896.756 397.947 899.883 401.252 901.577 405.36 899.832 409.094 893.323 409.973 894.162 414.592 888.817 414.011 887.032 417.436 886.017 421.72 880.326 420.773 877.402 422.917 878.125 429.136 876.281 432.483 871.481 432.526 867.825 433.848 867.742 439.163 866.063 442.696 862.077 443.652 858.157 444.684 858.972 451.011 855.912 453.012 851.676 453.696 847.868 454.858 846.068 458.26 843.174 460.438 839.288 461.507 837.942 465.414 833.956 466.373 833.651 471.447 826.173 468.508 826.027 473.767 824.448 477.423 819.38 477.176 817.704 480.718 816.312 484.577 814.603 488.083 810.325 488.719 811.07 494.974 806.514 495.305 802.13 495.824 797.432 495.991 798.973 503.131 791.581 500.289 789.996 503.941 788.409 507.59 782.996 506.959 786.669 516.484 778.558 512.84 780.332 520.248 773.396 517.919 775.547 525.743 770.573 525.607 770.284 530.708 762.255 527.157 760.389 530.495 757.556 532.754 755.011 535.332 753.518 539.089 752.382 543.233 746.061 541.591 747.314 548.413 743.481 549.547 739.137 550.112 739.044 555.435 733.511 554.671 735.184 561.969 728.339 559.743 724.253 560.605 726.432 568.466 720.419 567.175 716.992 568.775 718.165 575.506 711.594 573.588 712.723 580.283 705.606 577.762 703.933 581.327 700.887 583.366 697.549 587.013 704.756 590.481 697.757 595.688 701.91 598.487 701.901 602.184 704.633 605.289 701.96 609.562 701.605 613.334 708.824 615.474 703.028 620.421 709.036 622.82 707.52 626.843 711.832 629.608 710.318 633.631 709.681 637.466 713.615 640.314 709.242 644.953 717.807 646.797 709.353 652.313 711.369 655.568 714.428 658.599 713.598 662.47 716.276 665.585 720.571 668.353 720.979 671.963 718.901 676.108 715.569 680.521 724.573 682.271 725.564 685.75 726.488 689.244 725.081 693.243 726.617 696.609 720.931 701.534 721.314 705.147 730.472 706.865 728.372 711.013 722.792 715.913 723.647 719.427 731.929 721.337 729.934 725.464 733.22 728.451 731.661 732.484 729.365 736.68 728.396 740.586 733.67 743.145 738.499 745.801 731.92 750.92 736.078 753.721 737.297 757.156 739.809 760.313 735.862 764.864 736.823 768.356 739.568 771.463 740.618 774.936 737.177 779.378 738.319 782.832 743.424 785.426 745.948 788.581 742.505 793.02 741.113 797.02 746.889 799.471 744.056 803.784 746.944 806.86 743.176 811.375 752.091 813.153 744.9 818.408 749.907 821.025 747.277 825.296 751.982 827.983 755.615 830.903 758.02 834.094 753.218 838.84 753.439 842.179 754.492 845.614 755.609 849.568 755.907 853.941 749.268 854.254 748.388 857.876 744.275 858.102 740.878 858.163 739.042 861.568 735.846 861.559 732.802 861.707 729.096 864.667 726.546 861.265 724.731 858.011 721.614 856.183 715.857 858.894 710.897 860.237 709.38 855.661 705.051 855.919 704.89 849.011 699.517 851.064 697.103 848.027 696.364 842.108 689.846 846.131 688.562 841.163 685.126 839.892 681.527 838.899 681.117 832.415 674.47 836.658 673.497 831.148 671.048 828.179 668.07 826.123 661.56 830.141 661.197 823.589 654.711 827.563 655.486 819.048 651.605 818.536 646.559 820.022 646.716 812.564 642.049 813.406 640.674 808.589 635.259 810.72 634.151 805.442 628.276 808.36 625.538 805.879 620.851 806.747 620.533 800.107 617.651 797.879 614.412 796.264 611.47 794.136 607.536 793.709 602.929 794.44 599.263 793.556 597.414 789.55 596.143 784.545 591.884 784.675 589.973 780.77 583.391 784.9 580.871 782.042 578.849 778.324 577.013 774.292 575.195 770.226 568.233 775.004 566.79 770.294 563.236 769.21 559.036 769.239 557.718 764.311 556.171 759.783 551.528 760.584 549.416 757.028 546.736 754.441 540.075 758.708 538.375 754.435 537.529 748.698 532.912 749.437 527.344 751.818 525.855 747.18 521.785 746.977 519.989 742.865 517.692 739.622 511.605 742.887 512.708 733.789 505.672 738.685 505.735 731.361 500.895 735.57 497.931 734.549 496.508 739.29 489.819 734.974 487.168 737.601 486.725 744.024 482.099 743.253 477.165 741.956 473.565 742.955 470.765 745.327 470.807 752.587 468.74 756.207 464.696 756.433 462.659 760.113 456.93 757.449 452.246 756.582 451.593 762.642 446.108 760.389 443.899 763.769 442.329 768.246 438.026 768.024 436.707 772.935 433.279 774.221 426.974 770.565 427.915 779.375 421.626 775.747 421.456 782.639 418.626 784.954 411.015 779.047 411.744 787.482 405.643 784.176 402.143 785.348 399.528 788.043 399.32 794.872 392.807 790.855 391.45 795.707 390.365 801.029 384.448 798.046 383.068 802.863 377.129 799.838 376.193 805.416 374.019 808.867 371.466 811.672 366.714 810.689 365.359 815.549 360.467 814.328 359.604 820.038 355.123 819.522 352.922 822.929 350.104 825.278 345.841 825.139 341.649 825.125 338.521 826.94 337.534 832.437 330.659 827.804 331.46 836.364 328.409 838.304 321.216 833.131 321.03 839.998 317.306 840.792 311.663 838.281 311.879 845.85 304.967 841.16 305.168 848.703 298.874 845.081 298.257 851.222 295.866 854.303 294.049 858.38 287.569 854.438 287.68 861.834 281.935 859.17 278.585 860.624 277.217 866.339 273.551 868.802 269.154 866.7 265.931 861.689 262.775 861.493 259.488 860.99 258.564 856.664 251.639 859.628 251.39 855.063 247.33 853.24 244.216 850.137 251.498 845.146 246.441 842.073 250.274 839.206 252.586 836.008 246.61 831.022 248.819 827.803 246.098 823.521 254.82 821.708 256.155 818.301 251.423 813.583 251.121 809.821 258.093 807.629 252.677 802.764 260.906 800.845 261.373 797.25 259.894 793.235 258.211 789.174 255.141 784.815 258.54 781.852 262.812 779.082 260.22 774.831 261.28 771.369 259.212 767.232 260.943 763.914 266.115 761.337 265.458 757.5 261.888 753.032 270.748 751.248 263.905 746.076 271.227 743.964 268.535 739.69 271.584 736.655 273.155 733.299 271.823 729.314 269.27 725.065 268.301 721.16 274.604 718.826 277.728 715.805 279.015 712.387 272.675 707.32 280.782 705.372 281.88 701.913 275.552 696.852 279.199 693.941 277.348 689.842 284.428 687.672 284.256 683.939 286.204 680.661 277.949 675.18 278.992 671.707 282.958 668.865 281.375 664.823 280.931 661.029 283.188 657.816 289.551 655.491 291.556 652.224 292.555 648.74 286.042 643.634 286.209 639.974 288.798 636.833 292.976 634.039 292.843 630.31 293.97 626.856 296.949 623.797 290.133 618.627 291.158 615.147 300.44 613.448 295.225 608.619 298.669 605.664 298.995 602.032 295.678 597.613 302.142 595.304 301.061 591.361 299.387 588.593 300.638 583.693 297.365 581.933 292.168 582.327 287.787 581.811 285.126 579.376 287.286 571.553 282.879 571.071 277.955 571.167 276.482 567.405 276.687 561.767 272.664 560.852 271.047 557.246 263.758 559.976 262.381 556.095 263.893 548.985 255.657 552.773 255.493 547.542 250.407 547.814 252.448 540.121 249.892 537.566 246.717 535.701 241.906 535.663 239.702 532.707 240.49 526.403 237.393 524.445 232.232 524.797 231.837 519.822 223.159 524.107 223.13 518.723 218.16 518.86 218.648 512.892 216.923 509.397 215.151 505.959 211.09 505.08 207.463 503.717 202.495 503.849 203.761 497.011 197.96 498.072 197.862 492.762 191.005 495.006 189.054 491.765 187.808 487.732 186.118 484.199 186.299 478.576 179.636 480.6 178.859 476.044 178.315 471.23 173.853 470.794 169.896 469.791 164.253 470.674 167.768 461.32 159.499 465.149 156.502 463.075 157.868 456.127 155.753 453.074 151.027 452.936 151.37 447.126 144.982 448.844 144.373 444.098 139.148 444.513 138.436 439.879 132.669 440.899 134.065 433.91 130.988 431.918 124.874 433.332 124.651 428.155 121.164 426.619 119.155 423.431 113.95 423.814 115.339 416.817 107.895 419.694 106.18 415.778 104.125 412.447 103.174 408.656 104.931 404.52 99.266 401.274 99.198 397.04 104.942 394.466 104.272 390.273 108.057 388.368 108.899 384.307 114.261 385.5 113.911 377.368 119.523 381.937 122.099 375.209 125.837 376.244 129.784 379.333 133.473 379.894 136.697 375.912 140.15 374.171 144.09 377.203 147.253 372.603 151.556 379.173 154.533 372.75 158.848 379.451 162.408 378.753 165.394 372.433 169.189 374.029 172.539 371.257 176.058 370.146 180.332 376.45 184.092 377.705 187.009 370.751 190.69 371.28 194.718 375.222 198.395 375.715 201.129 366.934 205.621 375.381 208.928 372.176 212.586 372.442 216.477 375.001 220.089 374.836 223.187 369.639 226.658 368.087 230.867 373.759 234.258 371.392 237.953 371.99 241.077 367.016 245.241 372.26 248.215 365.819 252.136 368.658 255.759 368.555 259.574 370.338 262.308 361.535 266.553 367.549 269.645 362.244 273.122 360.694 276.89 362.014 280.869 365.418 284.419 364.598 288.2 366.03 291.89 366.593 295.418 365.554 298.511 360.234 302.164 360.419 306.207 364.419 309.304 359.146 313.379 363.461 316.346 356.919 320.399 361.004 324.011 360.815 327.943 363.725 331.336 361.391 334.576 357.514 337.949 354.96 342.205 361.036 345.24 355.15 349.073 357.079 352.28 352.853 356.064 354.284 359.735 354.605 363.721 358.031 367.3 357.453 371.118 359.22 374.063 352.361 380.723 357.722 381.947 351.619 376.928 345.453 386.3 345.642 384.383 340.847 381.648 335.691 387.204 334.196 383.789 328.739 391.68 328.272 395.293 325.917 388.316 318.888 395.152 317.957 392.536 312.853 394.168 309.624 400.77 308.59 403.842 305.996 405.529 302.794 405.648 298.901 405.048 294.692 405.159 290.798 404.275 286.464 405.973 283.269 412.925 282.392 413.609 278.745 411.163 273.714 413.221 270.672 419.997 269.716 419.817 265.691 421.201 262.356 419.888 257.83 419.749 253.82 419.124 249.594 425.683 248.538 422.242 243.07 426.408 240.961 428.108 237.764 434.646 236.701 432.777 231.924 430.657 227.036 437.236 225.992 438.455 222.581 440.185 219.394 436.719 213.91 444.629 213.451 445.377 209.831 441.095 203.989 440.938 199.967 446.001 198.251 443.978 193.407 453.017 193.443 454.51 190.151 452.519 185.318 454.69 182.325 459.008 180.277 458.025 175.89 457.397 171.667 455.273 166.779 458.74 164.356 463.604 162.554 459.6 156.832 463.522 154.612 466.747 152.08 471.714 150.32 465.41 143.582 470.412 141.833 476.963 140.768 470.929 134.152 475.637 132.274 479.58 130.057 481.361 126.885 478.179 121.516 479.879 118.302 483.771 116.329 488.714 116.28 486.711 109.302 488.987 105.487 493.273 105.291 497.991 110.243 500.899 108.414 504.853 103.789 507.577 108.119 509.873 110.99 514.048 110.639 517.282 112.45 514.987 118.288 522.123 118.211" style="fill: none; stroke: #000; stroke-linecap: round; stroke-linejoin: round; stroke-width: 35px;"/>
</svg>