<?xml version="1.0" encoding="UTF-8"?>
<svg id="Sticker" xmlns="http://www.w3.org/2000/svg" width="1000" height="1000" viewBox="0 0 1000 1000">
  <g>
    <polygon points="167.6 513.094 169.406 507.78 171.818 505.014 177.669 504.225 179.071 500.877 180.058 497.29 183.059 494.86 187.863 493.466 187.398 489.046 184.553 483.258 191.157 482.901 188.616 477.289 196.419 477.621 192.433 471.177 197.03 469.666 195.861 464.839 196.649 461.136 203.782 461.082 203.884 456.987 209.668 456.158 203.53 448.477 208.208 447.013 213.687 446.009 211.452 440.57 217.759 440.039 213.802 433.61 216.548 431.034 216.445 426.821 226.008 428.164 225.495 423.716 227.928 420.96 229.396 417.648 225.559 411.287 226.832 407.864 233.688 407.657 233.333 403.303 234.605 399.881 240.664 399.209 236.622 392.731 241.445 391.351 245.746 389.672 245.331 385.284 247.104 382.155 247.025 377.96 249.103 375.005 255.902 374.761 255.512 370.383 257.736 367.504 256.653 362.726 260.376 360.714 263.065 358.107 266.372 355.857 263.378 349.984 268.362 348.696 270.035 345.501 266.383 339.244 276.312 340.798 274.897 335.831 272.044 330.037 277.084 328.78 277.711 324.982 284.176 324.542 284.679 320.676 287.336 318.049 288.035 314.294 291.187 311.947 291.097 307.739 290.748 303.382 291.049 299.398 296.767 298.526 297.652 294.878 295.151 289.283 299.322 287.521 305.986 287.194 305.435 282.718 306.039 278.907 305.175 274.251 307.407 271.379 313.435 270.691 314.039 266.884 317.29 264.593 313.159 258.063 317.291 256.278 320.882 254.185 323.433 251.489 327.345 249.579 323.928 243.453 329.805 242.669 327.409 237.128 331.324 235.22 337.386 234.542 334.888 228.943 335.44 225.096 335.537 220.98 337.949 215.424 343.961 216.368 347.556 220.521 351.151 217.132 354.746 216.504 358.342 221.044 361.938 216.263 365.535 223.762 369.133 215.685 372.73 218.814 376.326 216.811 379.922 216.967 383.518 221.227 387.113 221.242 390.709 223.572 394.306 216.029 397.904 224.018 401.502 217.824 405.099 224.278 408.695 214.589 412.291 218.452 415.887 219.504 419.484 221.687 423.082 221.537 426.68 219.778 430.277 218.729 433.873 215.458 437.47 218.91 441.067 215.736 444.665 215.742 448.263 223.152 451.86 223.992 455.457 215.912 459.049 215.782 462.641 221.291 466.233 217.795 469.825 217.23 473.419 216.901 477.016 222.409 480.615 217.127 484.212 219.053 487.807 223.062 491.401 219.045 494.995 222.402 498.589 216.297 502.185 222.229 505.784 220.601 509.382 218.418 512.979 224.014 516.574 224.117 520.17 224.005 523.767 220.261 527.366 221.881 530.965 217.3 534.562 224.13 538.159 221.537 541.757 222.024 545.358 220.365 548.956 214.891 552.554 217.115 556.153 218.622 559.753 216.79 563.351 216.96 566.951 217.569 570.551 222.726 574.15 218.245 577.751 223.049 581.351 217.507 584.952 220.726 588.552 215.997 592.153 216.673 595.75 214.972 599.35 219.916 602.947 215.109 606.548 215.371 610.147 224.11 613.749 219.578 617.349 221.117 620.951 224.271 624.554 218.282 628.157 221.037 631.761 223.877 635.363 220.984 638.966 215.818 642.57 215.113 646.18 218.266 650.678 217.959 655.099 220.464 652.966 226.104 658.268 226.99 655.795 232.849 655.284 237.453 660.298 238.523 661.966 241.731 665.539 243.721 671.356 244.276 671.98 248.152 674.353 250.91 676.048 254.101 673.832 259.795 673.937 264.006 680.138 264.318 683.336 266.55 683.921 270.451 683.154 275.216 688.935 275.796 690.33 279.179 691.362 282.796 689.515 288.255 697.142 287.656 698.222 291.242 700.395 294.128 701.694 297.574 704.824 299.848 707.196 302.608 708.182 306.256 704.668 312.771 712.1 312.288 713.195 315.858 710.768 321.683 719.746 320.217 716.345 326.67 716.76 330.682 717.932 334.207 724.08 334.549 727.273 336.779 730.43 339.032 728.562 344.497 730.031 347.831 737.049 347.617 733.538 354.139 740.835 353.753 739.386 358.957 738.341 363.901 746.149 363.182 748.705 365.822 746.247 371.668 752.599 371.883 751.842 376.646 756.815 377.746 756.443 382.261 759.446 384.616 759.222 389.035 757.046 394.704 761.375 396.216 767.385 396.653 765.403 402.197 766.084 406.039 768.893 408.522 773.467 409.88 776.596 412.158 774.629 417.694 778.65 419.403 776.405 425.12 783.883 424.618 783.401 429.206 787.571 430.821 784.439 437.104 790.284 437.649 793.474 439.89 797.252 441.756 797.153 446.097 795.641 451.339 799.644 453.057 799.31 457.553 803.633 459.067 801.75 464.553 806.097 466.055 811.664 466.779 809.882 472.201 811.621 475.373 811.892 479.485 815.324 481.576 819.868 482.952 817.9 488.496 819.272 491.905 824.781 492.669 825.33 496.612 830.573 498.812 825.621 501.58 825.039 505.306 827.871 510.709 821.215 511.453 817.187 513.488 819.77 518.768 819.275 522.539 812.719 523.334 814.085 528.02 812.9 531.453 813.645 535.831 813.424 539.736 803.567 538.909 806.221 544.224 805.052 547.664 803.31 550.823 797.348 551.911 797.173 555.84 801.702 562.077 800.509 565.505 796.8 567.697 790.149 568.445 791.323 573.036 789.435 576.124 791.12 580.966 784.835 581.894 785.094 586.035 783.2 589.119 782.029 592.556 783.476 597.281 783.342 601.229 777.16 602.207 779.165 607.201 773.513 608.435 770.981 611.201 767.758 613.627 768.717 618.107 772.316 623.885 765.421 624.513 763.998 627.831 761.013 630.381 764.831 636.267 755.67 635.781 759.38 641.613 758.106 644.999 755.536 647.75 752.822 650.434 753.078 654.575 746.943 655.578 747.47 659.849 745.716 663 743.343 665.85 747.781 672.045 744.147 674.277 737.149 674.856 737.096 678.845 736.154 682.398 739.722 688.168 735.223 689.975 734.527 693.648 728.326 694.62 730.316 699.615 731.51 704.217 723.714 704.407 722.96 708.055 720.927 711.074 720.199 714.735 724.863 721.042 717.017 721.208 715.876 724.666 718.11 729.774 712.742 731.153 713.111 735.353 712.163 738.902 705.035 739.422 708.199 744.992 702.886 746.404 701.566 749.775 704.662 755.315 705.835 759.913 696.305 759.256 700.94 765.549 692.143 765.252 692.781 769.587 691.607 773.034 690.822 776.678 691.427 782.192 686.43 777.647 682.72 776.113 679.694 784.276 675.725 779.063 672.407 783.072 668.655 780.916 665.32 784.661 661.736 784.869 657.837 780.626 654.675 786.815 650.558 779.476 647.362 785.203 643.678 784.028 639.927 781.906 636.146 779.368 632.639 780.707 629.554 788.031 625.469 781.153 621.862 781.044 618.358 782.404 614.845 783.636 611.386 785.633 607.678 784.122 604.196 785.813 600.41 783.223 596.955 785.298 593.819 791.891 589.687 784.351 586.472 789.818 582.75 788.096 579.46 792.501 575.501 787.432 572.036 789.381 568.721 793.461 565.018 792.024 561.536 793.704 557.681 790.094 554.27 792.791 550.202 786.183 547.188 794.531 543.127 788.028 539.999 794.736 536.208 792.042 532.329 788.107 529.067 792.922 525.138 788.299 522.117 796.556 518.02 789.525 514.693 793.414 510.942 791.228 507.479 793.124 504.172 797.227 500.451 795.479 496.956 796.954 493.077 792.997 489.33 790.967 485.905 793.48 482.586 797.46 478.682 793.138 474.969 791.501 471.797 797.567 468.022 795.088 464.543 796.854 461.006 797.798 457.336 796.82 454.041 801.141 450.29 799.003 446.869 801.573 443.282 801.811 439.136 794.11 436.1 802.145 431.972 794.675 428.469 796.087 424.787 794.996 421.212 795.393 417.903 799.559 414.34 800.134 410.947 803.141 407.281 802.25 403.41 798.465 399.736 797.489 396.301 799.878 392.668 799.485 389.172 801.025 385.944 806.376 382.091 802.868 378.487 802.889 375.12 806.217 371.545 806.644 367.429 799.336 364.028 802.238 360.873 808.599 357.037 805.36 353.086 800.445 349.549 801.427 346.14 804.25 342.283 800.724 338.985 805.125 335.418 805.684 331.883 806.715 328.362 807.957 324.599 805.849 323.047 802.875 317.859 803.997 318.072 799.831 318.737 795.433 315.221 793.166 313.025 790.228 307.011 789.236 308.423 784.46 307.38 780.935 308.889 776.11 307.678 772.67 304.958 769.999 304.109 766.373 301.257 763.767 295.285 762.751 295.913 758.374 293.585 755.503 296.077 750.176 288.758 749.849 294.096 743.072 292.12 740.02 289.244 737.426 284.742 735.661 286.597 730.658 282.002 728.942 280.085 725.862 280.254 721.718 280.347 717.612 274.565 716.499 273.693 712.884 273.341 709.005 272.293 705.481 269.857 702.665 267.369 699.877 269.405 694.78 262.057 694.466 263.005 689.926 256.534 689.169 262.761 681.944 259.959 679.319 255.789 677.391 255.396 673.537 247.782 673.362 247.823 669.283 245.264 666.527 242.933 663.655 247.067 657.493 241.56 656.243 246.05 649.9 243.434 647.178 241.694 644.007 234.695 643.513 237.849 637.846 238.178 633.62 231.48 632.976 234.152 627.558 228.469 626.395 224.483 624.365 230.214 617.384 221.012 618.015 225.958 611.436 216.764 612.061 218.846 606.937 220.81 601.876 212.079 602.266 211.679 598.409 209.017 595.703 209.114 591.594 213.677 585.207 206.16 584.975 208.343 579.802 206.289 576.786 198.833 576.523 201.22 571.244 195.22 570.24 198.084 564.724 197.367 561.031 191.273 560.073 188.632 557.36 191.371 551.901 185.375 550.896 187.66 545.666 182.11 544.432 184.259 539.273 186.912 533.854 178.156 534.25 178.863 529.828 181.716 524.308 177.036 522.626 178.039 518.047 176.331 512.984 167.6 513.094" style="fill: #fff;"/>
    <polygon points="167.6 513.094 169.406 507.78 171.818 505.014 177.669 504.225 179.071 500.877 180.058 497.29 183.059 494.86 187.863 493.466 187.398 489.046 184.553 483.258 191.157 482.901 188.616 477.289 196.419 477.621 192.433 471.177 197.03 469.666 195.861 464.839 196.649 461.136 203.782 461.082 203.884 456.987 209.668 456.158 203.53 448.477 208.208 447.013 213.687 446.009 211.452 440.57 217.759 440.039 213.802 433.61 216.548 431.034 216.445 426.821 226.008 428.164 225.495 423.716 227.928 420.96 229.396 417.648 225.559 411.287 226.832 407.864 233.688 407.657 233.333 403.303 234.605 399.881 240.664 399.209 236.622 392.731 241.445 391.351 245.746 389.672 245.331 385.284 247.104 382.155 247.025 377.96 249.103 375.005 255.902 374.761 255.512 370.383 257.736 367.504 256.653 362.726 260.376 360.714 263.065 358.107 266.372 355.857 263.378 349.984 268.362 348.696 270.035 345.501 266.383 339.244 276.312 340.798 274.897 335.831 272.044 330.037 277.084 328.78 277.711 324.982 284.176 324.542 284.679 320.676 287.336 318.049 288.035 314.294 291.187 311.947 291.097 307.739 290.748 303.382 291.049 299.398 296.767 298.526 297.652 294.878 295.151 289.283 299.322 287.521 305.986 287.194 305.435 282.718 306.039 278.907 305.175 274.251 307.407 271.379 313.435 270.691 314.039 266.884 317.29 264.593 313.159 258.063 317.291 256.278 320.882 254.185 323.433 251.489 327.345 249.579 323.928 243.453 329.805 242.669 327.409 237.128 331.324 235.22 337.386 234.542 334.888 228.943 335.44 225.096 335.537 220.98 337.949 215.424 343.961 216.368 347.556 220.521 351.151 217.132 354.746 216.504 358.342 221.044 361.938 216.263 365.535 223.762 369.133 215.685 372.73 218.814 376.326 216.811 379.922 216.967 383.518 221.227 387.113 221.242 390.709 223.572 394.306 216.029 397.904 224.018 401.502 217.824 405.099 224.278 408.695 214.589 412.291 218.452 415.887 219.504 419.484 221.687 423.082 221.537 426.68 219.778 430.277 218.729 433.873 215.458 437.47 218.91 441.067 215.736 444.665 215.742 448.263 223.152 451.86 223.992 455.457 215.912 459.049 215.782 462.641 221.291 466.233 217.795 469.825 217.23 473.419 216.901 477.016 222.409 480.615 217.127 484.212 219.053 487.807 223.062 491.401 219.045 494.995 222.402 498.589 216.297 502.185 222.229 505.784 220.601 509.382 218.418 512.979 224.014 516.574 224.117 520.17 224.005 523.767 220.261 527.366 221.881 530.965 217.3 534.562 224.13 538.159 221.537 541.757 222.024 545.358 220.365 548.956 214.891 552.554 217.115 556.153 218.622 559.753 216.79 563.351 216.96 566.951 217.569 570.551 222.726 574.15 218.245 577.751 223.049 581.351 217.507 584.952 220.726 588.552 215.997 592.153 216.673 595.75 214.972 599.35 219.916 602.947 215.109 606.548 215.371 610.147 224.11 613.749 219.578 617.349 221.117 620.951 224.271 624.554 218.282 628.157 221.037 631.761 223.877 635.363 220.984 638.966 215.818 642.57 215.113 646.18 218.266 650.678 217.959 655.099 220.464 652.966 226.104 658.268 226.99 655.795 232.849 655.284 237.453 660.298 238.523 661.966 241.731 665.539 243.721 671.356 244.276 671.98 248.152 674.353 250.91 676.048 254.101 673.832 259.795 673.937 264.006 680.138 264.318 683.336 266.55 683.921 270.451 683.154 275.216 688.935 275.796 690.33 279.179 691.362 282.796 689.515 288.255 697.142 287.656 698.222 291.242 700.395 294.128 701.694 297.574 704.824 299.848 707.196 302.608 708.182 306.256 704.668 312.771 712.1 312.288 713.195 315.858 710.768 321.683 719.746 320.217 716.345 326.67 716.76 330.682 717.932 334.207 724.08 334.549 727.273 336.779 730.43 339.032 728.562 344.497 730.031 347.831 737.049 347.617 733.538 354.139 740.835 353.753 739.386 358.957 738.341 363.901 746.149 363.182 748.705 365.822 746.247 371.668 752.599 371.883 751.842 376.646 756.815 377.746 756.443 382.261 759.446 384.616 759.222 389.035 757.046 394.704 761.375 396.216 767.385 396.653 765.403 402.197 766.084 406.039 768.893 408.522 773.467 409.88 776.596 412.158 774.629 417.694 778.65 419.403 776.405 425.12 783.883 424.618 783.401 429.206 787.571 430.821 784.439 437.104 790.284 437.649 793.474 439.89 797.252 441.756 797.153 446.097 795.641 451.339 799.644 453.057 799.31 457.553 803.633 459.067 801.75 464.553 806.097 466.055 811.664 466.779 809.882 472.201 811.621 475.373 811.892 479.485 815.324 481.576 819.868 482.952 817.9 488.496 819.272 491.905 824.781 492.669 825.33 496.612 830.573 498.812 825.621 501.58 825.039 505.306 827.871 510.709 821.215 511.453 817.187 513.488 819.77 518.768 819.275 522.539 812.719 523.334 814.085 528.02 812.9 531.453 813.645 535.831 813.424 539.736 803.567 538.909 806.221 544.224 805.052 547.664 803.31 550.823 797.348 551.911 797.173 555.84 801.702 562.077 800.509 565.505 796.8 567.697 790.149 568.445 791.323 573.036 789.435 576.124 791.12 580.966 784.835 581.894 785.094 586.035 783.2 589.119 782.029 592.556 783.476 597.281 783.342 601.229 777.16 602.207 779.165 607.201 773.513 608.435 770.981 611.201 767.758 613.627 768.717 618.107 772.316 623.885 765.421 624.513 763.998 627.831 761.013 630.381 764.831 636.267 755.67 635.781 759.38 641.613 758.106 644.999 755.536 647.75 752.822 650.434 753.078 654.575 746.943 655.578 747.47 659.849 745.716 663 743.343 665.85 747.781 672.045 744.147 674.277 737.149 674.856 737.096 678.845 736.154 682.398 739.722 688.168 735.223 689.975 734.527 693.648 728.326 694.62 730.316 699.615 731.51 704.217 723.714 704.407 722.96 708.055 720.927 711.074 720.199 714.735 724.863 721.042 717.017 721.208 715.876 724.666 718.11 729.774 712.742 731.153 713.111 735.353 712.163 738.902 705.035 739.422 708.199 744.992 702.886 746.404 701.566 749.775 704.662 755.315 705.835 759.913 696.305 759.256 700.94 765.549 692.143 765.252 692.781 769.587 691.607 773.034 690.822 776.678 691.427 782.192 686.43 777.647 682.72 776.113 679.694 784.276 675.725 779.063 672.407 783.072 668.655 780.916 665.32 784.661 661.736 784.869 657.837 780.626 654.675 786.815 650.558 779.476 647.362 785.203 643.678 784.028 639.927 781.906 636.146 779.368 632.639 780.707 629.554 788.031 625.469 781.153 621.862 781.044 618.358 782.404 614.845 783.636 611.386 785.633 607.678 784.122 604.196 785.813 600.41 783.223 596.955 785.298 593.819 791.891 589.687 784.351 586.472 789.818 582.75 788.096 579.46 792.501 575.501 787.432 572.036 789.381 568.721 793.461 565.018 792.024 561.536 793.704 557.681 790.094 554.27 792.791 550.202 786.183 547.188 794.531 543.127 788.028 539.999 794.736 536.208 792.042 532.329 788.107 529.067 792.922 525.138 788.299 522.117 796.556 518.02 789.525 514.693 793.414 510.942 791.228 507.479 793.124 504.172 797.227 500.451 795.479 496.956 796.954 493.077 792.997 489.33 790.967 485.905 793.48 482.586 797.46 478.682 793.138 474.969 791.501 471.797 797.567 468.022 795.088 464.543 796.854 461.006 797.798 457.336 796.82 454.041 801.141 450.29 799.003 446.869 801.573 443.282 801.811 439.136 794.11 436.1 802.145 431.972 794.675 428.469 796.087 424.787 794.996 421.212 795.393 417.903 799.559 414.34 800.134 410.947 803.141 407.281 802.25 403.41 798.465 399.736 797.489 396.301 799.878 392.668 799.485 389.172 801.025 385.944 806.376 382.091 802.868 378.487 802.889 375.12 806.217 371.545 806.644 367.429 799.336 364.028 802.238 360.873 808.599 357.037 805.36 353.086 800.445 349.549 801.427 346.14 804.25 342.283 800.724 338.985 805.125 335.418 805.684 331.883 806.715 328.362 807.957 324.599 805.849 323.047 802.875 317.859 803.997 318.072 799.831 318.737 795.433 315.221 793.166 313.025 790.228 307.011 789.236 308.423 784.46 307.38 780.935 308.889 776.11 307.678 772.67 304.958 769.999 304.109 766.373 301.257 763.767 295.285 762.751 295.913 758.374 293.585 755.503 296.077 750.176 288.758 749.849 294.096 743.072 292.12 740.02 289.244 737.426 284.742 735.661 286.597 730.658 282.002 728.942 280.085 725.862 280.254 721.718 280.347 717.612 274.565 716.499 273.693 712.884 273.341 709.005 272.293 705.481 269.857 702.665 267.369 699.877 269.405 694.78 262.057 694.466 263.005 689.926 256.534 689.169 262.761 681.944 259.959 679.319 255.789 677.391 255.396 673.537 247.782 673.362 247.823 669.283 245.264 666.527 242.933 663.655 247.067 657.493 241.56 656.243 246.05 649.9 243.434 647.178 241.694 644.007 234.695 643.513 237.849 637.846 238.178 633.62 231.48 632.976 234.152 627.558 228.469 626.395 224.483 624.365 230.214 617.384 221.012 618.015 225.958 611.436 216.764 612.061 218.846 606.937 220.81 601.876 212.079 602.266 211.679 598.409 209.017 595.703 209.114 591.594 213.677 585.207 206.16 584.975 208.343 579.802 206.289 576.786 198.833 576.523 201.22 571.244 195.22 570.24 198.084 564.724 197.367 561.031 191.273 560.073 188.632 557.36 191.371 551.901 185.375 550.896 187.66 545.666 182.11 544.432 184.259 539.273 186.912 533.854 178.156 534.25 178.863 529.828 181.716 524.308 177.036 522.626 178.039 518.047 176.331 512.984 167.6 513.094" style="fill: none; stroke: #000; stroke-linecap: round; stroke-linejoin: round; stroke-width: 40px;"/>
  </g>
  <g>
    <polygon points="420.168 668.843 417.651 664.781 416.005 661.588 418.085 656.017 411.692 655.849 410.398 652.425 411.009 647.787 405.697 646.931 405.028 643.113 404.375 639.287 403.641 635.51 402.8 631.8 401.321 628.494 400.076 625.039 392.999 625.307 392.716 621.242 392.632 617.05 385.857 617.125 388.187 611.388 385.557 608.816 380.585 607.741 377.196 605.655 378.827 600.366 380.196 595.24 372.92 595.633 376.689 588.98 368.899 589.7 369.576 585.016 364.154 584.227 364.019 580.062 360.817 577.854 361.683 573.051 362.266 568.427 353.644 569.676 358.003 562.644 350.57 563.138 350.498 558.939 351.299 554.18 348.808 551.516 344.677 549.904 347.32 543.965 339.69 544.583 339.983 540.141 336.219 538.291 335.667 534.389 335.368 530.324 335.187 526.183 327.395 526.904 325.653 523.76 326.722 518.821 326.69 514.584 322.394 513.061 321.967 509.701 324.497 507.766 321.999 501.456 328.808 502.011 332.047 499.929 335.514 498.018 330.674 489.976 338.894 491.577 336.285 485.185 339.945 483.419 342.173 480.594 347.29 479.899 344.101 473.072 347.58 471.17 352.354 470.225 351.451 465.09 356.707 464.499 359.032 461.741 361.359 458.986 360.41 453.815 364.227 452.162 365.089 448.327 368.773 446.57 373.503 445.59 369.02 437.81 371.66 435.285 378.597 435.93 379.08 431.815 381.558 429.17 381.711 424.808 382.659 421.035 391.032 422.74 387.538 415.687 390.271 413.231 391.593 409.736 392.134 405.667 401.662 408.229 396.265 399.77 401.487 399.153 403.255 395.982 405.718 393.326 406.802 389.648 413.662 390.237 410.566 383.474 414.993 382.262 413.497 376.679 419.746 376.817 418.1 371.123 422.459 369.861 429.156 370.323 429.341 365.971 430.172 362.275 433.631 362.598 437.232 363.719 440.834 361.863 444.437 361.94 448.043 359.973 451.648 363.581 455.251 357.547 458.854 365.696 462.458 366.341 466.065 364.397 469.669 358.701 473.273 362.421 476.878 364.111 480.485 361.981 484.089 365.405 487.695 362.755 491.302 366.787 494.907 360.18 498.514 362.74 502.12 364.97 505.727 364.927 509.333 359.783 512.94 357.066 516.543 361.865 520.15 359.216 523.753 360.218 527.36 366.732 530.965 360.936 534.573 359.042 538.179 363.731 541.787 363.144 545.397 364.987 549.006 360.057 552.616 366.728 556.225 363.162 559.834 365.383 563.444 359.125 567.059 357.986 572.286 359.151 569.84 366.703 575.989 367.242 579.335 369.458 575.799 375.791 578.293 378.522 584.377 379.104 583.748 383.698 586.659 386.174 586.92 390.234 589.572 392.866 590.676 396.424 596.176 397.357 597.949 400.519 596.187 405.792 594.609 410.953 603.212 410.028 604.219 413.646 606.816 416.316 602.672 423.015 606.844 424.741 610.652 426.684 607.841 432.585 615.086 432.478 616.835 435.654 614.529 441.253 618.335 443.2 618.787 447.153 622.221 449.322 628.592 449.736 623.173 457.199 628.797 458.059 633.068 459.73 629.186 466.274 636.327 466.229 636.003 470.643 640.089 472.418 642.143 475.41 638.165 482.012 641.858 484.025 641.57 488.422 642.699 491.97 649.931 491.873 647.254 497.697 650.891 499.749 653.731 502.279 654.828 505.851 655.845 509.466 662.446 509.747 658.567 516.295 663.261 517.718 662.151 522.618 669.91 523.587 666.472 527.299 668.14 532.026 666.243 535.134 664.472 538.3 656.178 538.51 658.488 543.531 653.488 545.236 651.113 548.13 655.1 553.908 655.357 557.996 649.904 559.499 647.971 562.594 651.703 568.257 646.746 569.983 648.416 574.714 640.683 575.18 637.454 577.689 638.912 582.325 641.006 587.246 641.025 591.229 635.082 592.509 630.211 594.275 628.657 597.544 627.318 600.905 629.946 606.067 624.87 607.741 630.756 614.379 625.094 615.788 625.638 620.007 619.802 621.338 616.777 623.941 617.506 628.248 621.503 634.038 620.564 637.59 615.648 639.335 617.075 643.959 614.787 646.901 610.428 648.904 606.768 651.23 606.871 654.547 604.09 657.006 600.237 652.613 596.85 656.037 593.029 652.24 589.707 656.831 586.261 659.318 582.258 652.448 578.675 652.598 575.481 659.24 571.837 658.369 568.135 656.556 564.776 660.516 560.848 654.977 557.213 654.299 553.638 654.601 550.15 656.352 546.678 658.405 542.882 655.079 539.65 661.178 536.131 662.426 532.47 661.313 528.629 657.213 525.393 663.274 521.935 665.585 518.204 663.316 514.722 665.242 510.909 661.632 507.166 659.171 503.731 661.891 500.161 662.365 496.725 665.045 493.048 663.723 489.212 659.732 485.84 663.519 482.499 667.818 478.468 660.587 474.977 662.309 471.706 667.791 467.982 665.618 464.472 667.095 460.656 663.429 456.939 661.465 453.261 660.119 450.125 667.869 446.146 661.548 442.947 668.275 439.313 667.717 435.9 670.856 431.933 664.713 428.571 668.73 423.723 662.913 420.168 668.843" style="fill: #fff;"/>
    <polygon points="420.168 668.843 417.651 664.781 416.005 661.588 418.085 656.017 411.692 655.849 410.398 652.425 411.009 647.787 405.697 646.931 405.028 643.113 404.375 639.287 403.641 635.51 402.8 631.8 401.321 628.494 400.076 625.039 392.999 625.307 392.716 621.242 392.632 617.05 385.857 617.125 388.187 611.388 385.557 608.816 380.585 607.741 377.196 605.655 378.827 600.366 380.196 595.24 372.92 595.633 376.689 588.98 368.899 589.7 369.576 585.016 364.154 584.227 364.019 580.062 360.817 577.854 361.683 573.051 362.266 568.427 353.644 569.676 358.003 562.644 350.57 563.138 350.498 558.939 351.299 554.18 348.808 551.516 344.677 549.904 347.32 543.965 339.69 544.583 339.983 540.141 336.219 538.291 335.667 534.389 335.368 530.324 335.187 526.183 327.395 526.904 325.653 523.76 326.722 518.821 326.69 514.584 322.394 513.061 321.967 509.701 324.497 507.766 321.999 501.456 328.808 502.011 332.047 499.929 335.514 498.018 330.674 489.976 338.894 491.577 336.285 485.185 339.945 483.419 342.173 480.594 347.29 479.899 344.101 473.072 347.58 471.17 352.354 470.225 351.451 465.09 356.707 464.499 359.032 461.741 361.359 458.986 360.41 453.815 364.227 452.162 365.089 448.327 368.773 446.57 373.503 445.59 369.02 437.81 371.66 435.285 378.597 435.93 379.08 431.815 381.558 429.17 381.711 424.808 382.659 421.035 391.032 422.74 387.538 415.687 390.271 413.231 391.593 409.736 392.134 405.667 401.662 408.229 396.265 399.77 401.487 399.153 403.255 395.982 405.718 393.326 406.802 389.648 413.662 390.237 410.566 383.474 414.993 382.262 413.497 376.679 419.746 376.817 418.1 371.123 422.459 369.861 429.156 370.323 429.341 365.971 430.172 362.275 433.631 362.598 437.232 363.719 440.834 361.863 444.437 361.94 448.043 359.973 451.648 363.581 455.251 357.547 458.854 365.696 462.458 366.341 466.065 364.397 469.669 358.701 473.273 362.421 476.878 364.111 480.485 361.981 484.089 365.405 487.695 362.755 491.302 366.787 494.907 360.18 498.514 362.74 502.12 364.97 505.727 364.927 509.333 359.783 512.94 357.066 516.543 361.865 520.15 359.216 523.753 360.218 527.36 366.732 530.965 360.936 534.573 359.042 538.179 363.731 541.787 363.144 545.397 364.987 549.006 360.057 552.616 366.728 556.225 363.162 559.834 365.383 563.444 359.125 567.059 357.986 572.286 359.151 569.84 366.703 575.989 367.242 579.335 369.458 575.799 375.791 578.293 378.522 584.377 379.104 583.748 383.698 586.659 386.174 586.92 390.234 589.572 392.866 590.676 396.424 596.176 397.357 597.949 400.519 596.187 405.792 594.609 410.953 603.212 410.028 604.219 413.646 606.816 416.316 602.672 423.015 606.844 424.741 610.652 426.684 607.841 432.585 615.086 432.478 616.835 435.654 614.529 441.253 618.335 443.2 618.787 447.153 622.221 449.322 628.592 449.736 623.173 457.199 628.797 458.059 633.068 459.73 629.186 466.274 636.327 466.229 636.003 470.643 640.089 472.418 642.143 475.41 638.165 482.012 641.858 484.025 641.57 488.422 642.699 491.97 649.931 491.873 647.254 497.697 650.891 499.749 653.731 502.279 654.828 505.851 655.845 509.466 662.446 509.747 658.567 516.295 663.261 517.718 662.151 522.618 669.91 523.587 666.472 527.299 668.14 532.026 666.243 535.134 664.472 538.3 656.178 538.51 658.488 543.531 653.488 545.236 651.113 548.13 655.1 553.908 655.357 557.996 649.904 559.499 647.971 562.594 651.703 568.257 646.746 569.983 648.416 574.714 640.683 575.18 637.454 577.689 638.912 582.325 641.006 587.246 641.025 591.229 635.082 592.509 630.211 594.275 628.657 597.544 627.318 600.905 629.946 606.067 624.87 607.741 630.756 614.379 625.094 615.788 625.638 620.007 619.802 621.338 616.777 623.941 617.506 628.248 621.503 634.038 620.564 637.59 615.648 639.335 617.075 643.959 614.787 646.901 610.428 648.904 606.768 651.23 606.871 654.547 604.09 657.006 600.237 652.613 596.85 656.037 593.029 652.24 589.707 656.831 586.261 659.318 582.258 652.448 578.675 652.598 575.481 659.24 571.837 658.369 568.135 656.556 564.776 660.516 560.848 654.977 557.213 654.299 553.638 654.601 550.15 656.352 546.678 658.405 542.882 655.079 539.65 661.178 536.131 662.426 532.47 661.313 528.629 657.213 525.393 663.274 521.935 665.585 518.204 663.316 514.722 665.242 510.909 661.632 507.166 659.171 503.731 661.891 500.161 662.365 496.725 665.045 493.048 663.723 489.212 659.732 485.84 663.519 482.499 667.818 478.468 660.587 474.977 662.309 471.706 667.791 467.982 665.618 464.472 667.095 460.656 663.429 456.939 661.465 453.261 660.119 450.125 667.869 446.146 661.548 442.947 668.275 439.313 667.717 435.9 670.856 431.933 664.713 428.571 668.73 423.723 662.913 420.168 668.843" style="fill: none; stroke: #000; stroke-linecap: round; stroke-linejoin: round; stroke-width: 40px;"/>
  </g>
  <g>
    <polyline points="320.667 806.183 327.107 806.394 328.811 803.212 327.68 797.998 333.167 797.532 330.792 791.427 335.408 790.337 332.122 783.576 334.377 780.787 341.449 781.452 340.926 776.672 347.807 777.204 345.945 771.466 345.269 766.576 346.602 763.124 349.45 760.76 357.242 761.944 352.698 754.28 356.505 752.604 363.457 753.181 365.862 750.5 364.653 745.227 365.605 741.502 372.637 742.137 367.582 734.104 370.832 732.027 378.955 733.444 375.747 726.735 376.769 723.058 384.86 724.454 386.544 721.254 385.248 715.919 391.658 716.114 387.058 708.41 393.105 708.337 394.51 704.939 393.68 699.933 399.085 699.402 403.114 697.879 398.536 690.186 400.81 687.406 406.706 687.221 411.434 686.199 409.986 680.751 412.246 677.959 411.912 673.305 413.667 670.148 416.522 667.774 418.844 665.017" style="fill: #fff;"/>
    <polyline points="320.667 806.183 327.107 806.394 328.811 803.212 327.68 797.998 333.167 797.532 330.792 791.427 335.408 790.337 332.122 783.576 334.377 780.787 341.449 781.452 340.926 776.672 347.807 777.204 345.945 771.466 345.269 766.576 346.602 763.124 349.45 760.76 357.242 761.944 352.698 754.28 356.505 752.604 363.457 753.181 365.862 750.5 364.653 745.227 365.605 741.502 372.637 742.137 367.582 734.104 370.832 732.027 378.955 733.444 375.747 726.735 376.769 723.058 384.86 724.454 386.544 721.254 385.248 715.919 391.658 716.114 387.058 708.41 393.105 708.337 394.51 704.939 393.68 699.933 399.085 699.402 403.114 697.879 398.536 690.186 400.81 687.406 406.706 687.221 411.434 686.199 409.986 680.751 412.246 677.959 411.912 673.305 413.667 670.148 416.522 667.774 418.844 665.017" style="fill: none; stroke: #000; stroke-linecap: round; stroke-linejoin: round; stroke-width: 40px;"/>
  </g>
  <g>
    <polyline points="171.516 510.095 175.252 517.748 178.677 512.077 182.334 516.273 185.73 509.424 189.409 514.654 192.872 510.738 196.526 514.865 200.018 512.005 203.574 511.858 207.128 511.769 210.675 511.327 214.149 507.761 217.726 508.463 221.415 514.012 224.932 512.255 228.424 509.407 232.013 510.631 235.595 511.632 239.156 511.712 242.639 508.422 246.34 514.428 249.899 514.361 253.271 506.37 256.927 510.433 260.405 506.927 263.998 508.279 267.55 508.11 271.061 505.993 274.777 512.747 278.286 510.545 281.804 508.828 285.338 507.638 288.913 508.262 292.435 506.554 296.01 507.055 299.624 509.224 303.22 510.592 306.837 512.9 310.358 511.152 313.858 508.419 317.55 513.645 321.144 514.656" style="fill: #fff;"/>
    <polyline points="171.516 510.095 175.252 517.748 178.677 512.077 182.334 516.273 185.73 509.424 189.409 514.654 192.872 510.738 196.526 514.865 200.018 512.005 203.574 511.858 207.128 511.769 210.675 511.327 214.149 507.761 217.726 508.463 221.415 514.012 224.932 512.255 228.424 509.407 232.013 510.631 235.595 511.632 239.156 511.712 242.639 508.422 246.34 514.428 249.899 514.361 253.271 506.37 256.927 510.433 260.405 506.927 263.998 508.279 267.55 508.11 271.061 505.993 274.777 512.747 278.286 510.545 281.804 508.828 285.338 507.638 288.913 508.262 292.435 506.554 296.01 507.055 299.624 509.224 303.22 510.592 306.837 512.9 310.358 511.152 313.858 508.419 317.55 513.645 321.144 514.656" style="fill: none; stroke: #000; stroke-linecap: round; stroke-linejoin: round; stroke-width: 40px;"/>
  </g>
  <g>
    <polyline points="338.627 220.679 341.962 222.807 343.329 226.173 342.073 231.189 347.272 232.14 352.844 232.856 350.652 238.463 351.131 242.391 352.005 246.072 355.18 248.3 361.365 248.632 362.089 252.403 359.475 258.276 366.221 258.26 363.157 264.42 372.33 262.872 367.17 270.349 372.646 271.13 371.453 276.114 372.407 279.744 375.341 282.125 377.665 284.892 385.365 284.276 387.514 287.153 383.575 293.864 387.193 295.818 386.575 300.438 390.985 301.894 392.326 305.281 396.708 306.754 395.154 311.962 398.938 313.805 400.16 317.263 402.31 320.143 405.93 322.092 407.884 325.096 408.654 328.841 413.015 330.33 414.085 333.889 416.682 336.489 417.139 340.437 420.048 342.842 421.208 346.343 423.135 349.366 427.749 350.698 427.134 355.323 427.475 359.353 433.571 359.759" style="fill: #fff;"/>
    <polyline points="338.627 220.679 341.962 222.807 343.329 226.173 342.073 231.189 347.272 232.14 352.844 232.856 350.652 238.463 351.131 242.391 352.005 246.072 355.18 248.3 361.365 248.632 362.089 252.403 359.475 258.276 366.221 258.26 363.157 264.42 372.33 262.872 367.17 270.349 372.646 271.13 371.453 276.114 372.407 279.744 375.341 282.125 377.665 284.892 385.365 284.276 387.514 287.153 383.575 293.864 387.193 295.818 386.575 300.438 390.985 301.894 392.326 305.281 396.708 306.754 395.154 311.962 398.938 313.805 400.16 317.263 402.31 320.143 405.93 322.092 407.884 325.096 408.654 328.841 413.015 330.33 414.085 333.889 416.682 336.489 417.139 340.437 420.048 342.842 421.208 346.343 423.135 349.366 427.749 350.698 427.134 355.323 427.475 359.353 433.571 359.759" style="fill: none; stroke: #000; stroke-linecap: round; stroke-linejoin: round; stroke-width: 40px;"/>
  </g>
  <g>
    <polyline points="647.916 218.544 651.752 224.81 648.927 227.375 647.905 230.943 640.393 230.906 640.115 234.892 642.546 240.382 641.69 244.045 633.015 243.362 635.07 248.64 631.252 250.657 633.476 256.034 632.351 259.549 624.013 259.055 624.593 263.515 621.626 266.007 618.674 268.509 619.823 273.287 620.646 277.884 612.625 277.568 616.911 284.091 615.521 287.459 607.995 287.419 606.594 290.783 611.961 297.906 604.523 297.916 600.162 299.635 606.444 307.267 602.606 309.274 601.193 312.624 596.785 314.314 596.335 318.207 594.309 321.22 591.987 324.073 588.698 326.387 587.998 330.143 589.082 334.888 588.015 338.439 579.945 338.103 584.487 344.772 582.578 347.853 578.146 349.537 577.749 353.463 577.388 357.41 574.069 359.721 570.924 362.128" style="fill: #fff;"/>
    <polyline points="647.916 218.544 651.752 224.81 648.927 227.375 647.905 230.943 640.393 230.906 640.115 234.892 642.546 240.382 641.69 244.045 633.015 243.362 635.07 248.64 631.252 250.657 633.476 256.034 632.351 259.549 624.013 259.055 624.593 263.515 621.626 266.007 618.674 268.509 619.823 273.287 620.646 277.884 612.625 277.568 616.911 284.091 615.521 287.459 607.995 287.419 606.594 290.783 611.961 297.906 604.523 297.916 600.162 299.635 606.444 307.267 602.606 309.274 601.193 312.624 596.785 314.314 596.335 318.207 594.309 321.22 591.987 324.073 588.698 326.387 587.998 330.143 589.082 334.888 588.015 338.439 579.945 338.103 584.487 344.772 582.578 347.853 578.146 349.537 577.749 353.463 577.388 357.41 574.069 359.721 570.924 362.128" style="fill: none; stroke: #000; stroke-linecap: round; stroke-linejoin: round; stroke-width: 40px;"/>
  </g>
  <g>
    <polyline points="827.929 495.802 824.853 499.582 821.272 500.078 818.04 502.85 814.167 501.464 810.87 503.837 807.54 505.994 803.456 503.245 799.208 499.427 796.238 503.904 792.066 500.583 789.023 504.613 786.143 509.69 781.217 501.477 778.602 508.265 774.716 506.81 770.749 504.849 767.494 507.494 764.138 509.477 759.969 506.193 757.273 512.483 753.336 510.697 749.937 512.413 745.748 509.006 741.987 508.372 738.383 508.766 735.807 515.83 731.516 511.76 728.314 514.76 724.053 510.897 720.675 512.726 717.831 518.059 713.284 512.298 709.974 514.603 707.387 521.593 703.181 518.088 699.902 520.584 696.729 523.785 692.221 518.326 688.811 519.998 685.933 525.126 681.764 521.862 678.17 522.337 674.12 519.853 671.48 526.568 667.768 526.321" style="fill: #fff;"/>
    <polyline points="827.929 495.802 824.853 499.582 821.272 500.078 818.04 502.85 814.167 501.464 810.87 503.837 807.54 505.994 803.456 503.245 799.208 499.427 796.238 503.904 792.066 500.583 789.023 504.613 786.143 509.69 781.217 501.477 778.602 508.265 774.716 506.81 770.749 504.849 767.494 507.494 764.138 509.477 759.969 506.193 757.273 512.483 753.336 510.697 749.937 512.413 745.748 509.006 741.987 508.372 738.383 508.766 735.807 515.83 731.516 511.76 728.314 514.76 724.053 510.897 720.675 512.726 717.831 518.059 713.284 512.298 709.974 514.603 707.387 521.593 703.181 518.088 699.902 520.584 696.729 523.785 692.221 518.326 688.811 519.998 685.933 525.126 681.764 521.862 678.17 522.337 674.12 519.853 671.48 526.568 667.768 526.321" style="fill: none; stroke: #000; stroke-linecap: round; stroke-linejoin: round; stroke-width: 40px;"/>
  </g>
  <g>
    <polyline points="686.307 783.009 685.843 779.047 684.84 775.438 682.898 772.451 686.445 765.833 676.258 768.308 678.492 762.56 678.001 758.614 675.258 756.156 672.17 753.927 670.716 750.619 669.053 747.449 668.6 743.477 660.841 744.338 662.43 739.014 661.352 735.456 659.243 732.578 653.698 731.974 656.732 725.693 653.335 723.669 652.301 720.078 646.249 719.811 649.086 713.657 646.387 711.17 644.49 708.151 642.539 705.171 639.899 702.65 635.682 701.171 636.596 696.29 630.283 696.198 631.684 690.995 632.83 685.962 630.925 682.946 622.075 684.529 627.283 676.805 625.31 673.831 619.783 673.211 615.527 671.754 616.333 666.942 615.13 663.459 608.448 663.602 612.691 656.505 608.085 655.267" style="fill: #fff;"/>
    <polyline points="686.307 783.009 685.843 779.047 684.84 775.438 682.898 772.451 686.445 765.833 676.258 768.308 678.492 762.56 678.001 758.614 675.258 756.156 672.17 753.927 670.716 750.619 669.053 747.449 668.6 743.477 660.841 744.338 662.43 739.014 661.352 735.456 659.243 732.578 653.698 731.974 656.732 725.693 653.335 723.669 652.301 720.078 646.249 719.811 649.086 713.657 646.387 711.17 644.49 708.151 642.539 705.171 639.899 702.65 635.682 701.171 636.596 696.29 630.283 696.198 631.684 690.995 632.83 685.962 630.925 682.946 622.075 684.529 627.283 676.805 625.31 673.831 619.783 673.211 615.527 671.754 616.333 666.942 615.13 663.459 608.448 663.602 612.691 656.505 608.085 655.267" style="fill: none; stroke: #000; stroke-linecap: round; stroke-linejoin: round; stroke-width: 40px;"/>
  </g>
</svg>