<?xml version="1.0" encoding="UTF-8"?>
<svg id="Sticker" xmlns="http://www.w3.org/2000/svg" width="1000" height="1000" viewBox="0 0 1000 1000">
  <g>
    <path d="M864.588,568.485l4.963-2.77-2.42-4.393,3.326-2.931,1.746-3.298.867-3.546,3.45-2.723,1.479-3.335-5.515-5.571,3.072-2.818-.131-3.803,5.444-2.179-1.779-4.235,3.41-2.875.467-3.626,4.881-2.845-.834-3.941.702-3.705.389-3.765-3.288-3.784,1.266-.189-5.571-3.228,2.038-3.513,5.643-4.514-4.896-2.643.994-3.953-5.207-2.011,1.888-4.39,1.877-4.619-7.928-.407-1.042-3.326,4.548-6.104-3.024-2.454-7.474-.136,5.807-6.906-1.227-3.139-3.122-2.494-.814-3.474-2.229-3.079-6.063-2.194,3.042-4.563-6.225-2.379,3.367-4.519-4.627-2.742,3.654-4.435-2.325-3.279,4.367-4.01-7.676-3.018,8.029-3.92-5.329-3.4,2.908-3.568-.663-3.537,3.87-3.515-5.55-3.579,1.222-3.541-4.561-3.445,2.916-3.58,4.004-3.799-7.972-2.822.113-3.401-.118-3.382,6.428-5.04-6.908-1.773,4.569-5.357-.233-4.042-2.68-3.052-2.809-2.842-2.701-2.786-3.857-1.855.641-5.182-7.126,1.025.469-5.248-5.787.316-1.054-4.021-.262-4.904-5.516.3-2.133-3.079-1.493-3.739-5.617.402-2.956-2.335-1.68-3.595-3.203-2.173-2.884-2.54,4.749-8.73-9.678,2.776,5.786-8.522-1.858-2.916-5.946-.506-4.585-1.541-2.147-2.997-.674-3.781-3.507-2.251,5.566-7.006-2.253-2.897-1.099-3.522-3.373-2.316-4.81-1.473-.107-4.085-.984-3.638-3.663-1.973-2.909-2.355,1.061-5.204-3.939-1.567-1.799-3.22-2.562-2.584-6.151,1.336,1.252-6.858-6.208,2.641-.432-5.884-2.624-2.844-5.106,2.43-1.432-5.872-4.929,2.868-2.569-3.544-4.023.813-3.984.878-3.228-1.733-2.784-3.438-2.233-5.412-5.763,7.045-3.463-1.235-1.55-7.103-3.922.422-3.797-.172-4.949,2.07-.981-6.39-3.644-1.474,1.738,5.449-3.621,2.117-1.252,3.387v3.95s-2.624,2.702-2.624,2.702l-2.11,2.979-2.826,2.762-3.31,2.717,3.886,4.996-1.738,3.176.156,3.642-4.846,2.734,2.006,3.942,2.846,3.808-1.911,3.369,1.31,3.549-4.443,3.557-.019,3.623-.19,3.63,2.304,3.556-3.568,3.703,5.342,3.587-1.872,3.657-2.106,3.562,2.46,3.82,2.158,3.959-9.158,2.495-1.369,3.307,6.626,4.918-5.691,2.453,1.141,3.986-1.424,3.352,1.037,4.112.688,4.098-6.28,1.633,2.697,4.885-1.586,3.314-5.651,1.566,4.377,5.873-1.186,3.513-3.053,2.49-4.557,1.575.599,4.328-2.411,2.649-.441,3.951-.513,4.083-5.157.525-2.372,2.589-2.682,2.28-5.937-1.208,1.336,6.802-2.568,2.724-3.157,1.981-5.251-1.268-4.2-.131,1.602,10.123-3.754.992-5.158-2.166-2.372,3.634-2.317,4.039-5.276-3.275-2.265,4.293-5.559-4.518-1.485,6.528-3.33,1.471-5.121-3.414-3.086,2.159-3.288,1.606-4.228-.636-.377,8.182-4.458-1.151-5.061-1.912.135,7.704-4.833-1.176-2.175,3.176-2.483,2.562-6.166-1.862-3.585,1.673,1.249,6.505-.12,4.595-3.06,1.787-3.591,1.562-3.348,1.937,2.367,5.523-9.05-1.132,5.797,6.969-6.197.874-.935,3.448,1.182,4.227-7.977.873-1.127,3.592,1.657,4.436.776,4.065-5.493,2.365,3.72,4.745-4.395,2.809,6.071,4.969-5.599,2.697,2.761,4.146,1.873,3.894-1.067,3.489-8.725,2.86.949,3.83-.674,3.707,2.436,3.812,1.102,3.705,2.327,3.547-5.684,3.623,6.112,3.407.214,3.515-7.075,3.932,3.096,3.401-1.217,3.676,6.766,3.009-6.558,5.42,4.899,1.997,6.393-.756,1.034,3.93,3.954,1.541,2.286,2.898-4.192,7.633,6.563-.291,3.157,2.242.826,3.842,1.883,3.105-.659,4.742,4.798,1.215.276,4.106,5.715.682.535,3.927,1.656,3.221,3.375,2.145-2.719,5.954,4.733,1.281-3.672,6.631,5.782.583,3.051,2.311,3.703,1.84-2.881,6.354,5.167.794-2.345,6.183,2.617,2.633,8.82-2.231,2.376,2.629.611,4.096-.516,5.182,1.582,3.475,1.49,3.629,8.224-2.927,2.722,2.252-.146,5.318.079,5.334,2.729,2.487,5.714-1.189.717,4.938,1.409,4.269,5.545-1.414,4.169.282,4.087.245.88,5.374,2.52,2.817,3.473,1.164,3.839.322,2.559,3.01,2.364,3.873,5.625-4.877,3.748-.487,1.641,7.348,4.043-1.457,3.389,1.441,3.47,1.496,3.718-.955,3.624-2.284,3.698,6.09,3.248-6.721,4.098,5.052,3.704-.176,3.25-2.647,3.529-.772,4.032,1.276,3.448-1.217,1.295-8.527,4.335,2.192,4.774,3.307,2.666-3.408,3.563-.572,3.323-1.298,1.525-7.014,4.978,3.97,2.272-4.989,4.347,2.195,2.562-4.584,3.636-.572,4.363,3.316,2.93-4.388,3.555-1.416,4.086,4.224,3.409-4.126,3.725,1.899,3.514,3.044,3.409,1.4,3.633-.97,4.076-2.737,3.093,3.007,2.426,4.776,4.02-1.455,5.064-3.795,1.35,6.691,3.447.852,2.119,3.759,4.58-1.591,4.541-1.289,1.674,4.319,4.485-.949,1.955,3.623,4.785-1.164,2.832,2.156.697,3.011,1.017-2.23,2.274-2.74,6.9,1.464-1.108-5.799,4.407-.852-.996-5.575,1.787-3.099,4.563-.818,5.435-.27-3.407-7.082,1.899-2.92,4.473-1.182,3.332-2.107-2.893-5.807,3.618-1.937,4.971-1.53,4.132-2.298-1.19-4.516-3.644-4.935,3.207-2.866,4.7-2.749-5.341-4.744-.206-3.655,5.754-2.887.529-3.656-6.163-4.266,4.118-3.286,3.722-3.396-6.879-4.126,5.811-3.292-5.194-3.987,2.031-3.545,1.572-3.571-3.043-3.934,1.683-3.578-.004-1.932ZM501.01,132.489l.758-2.489-3.713,2.901-3.041-2.677-3.342-.761-3.64.334-3.894-2.147-3.78.106-2.358,7.472-3.898-1.288-3.161,2.071-4.753-3.454-2.663,3.785-4.298-1.333-3.372,1.515-4.907-2.781-2.989,2.59-3.547.976-3.488,1.089-2.391,4.361-3.88-.094-2.033,6.3-4.255-1.33-4.934-5.326-2.608,4.788-3.765-1.431-2.937,4.768-3.88-2.866-3.807-3.118-2.913,7.38-3.566-.174-4.014-6.473-3.405,1.867-3.01,6.853-4.216-7.992-3.592.113-3.358,2.35-3.605.085-3.373,1.748-2.57,5.799-4.222-3.272-2.085,6.186-4.436-3.181-2.022,4.801-4.769-2.925-2.499,3.067-5.246-2.8.208,8.228-6.987-5.551-.52,6.325-4.542-.722-2.681,2.437-5.084-1.325.063,6.613-3.625.95-.371,5.717-4.626-.481-5.324-1.413,1.546,8.33-3.198,1.612-3.155,1.688-7.141-3.976.636,7.093-6.36-2.993-3.653.834-2.332,2.786-2.437,2.793-2.625,2.555-1.996,3.659-4.943-1.309-.002,7.149-5.018-1.471-.858,5.692-4.11.084-4.754-.95-.948,5.382-3.402,1.303-3.893.582-.607,5.506-2.616,2.38-3.589,1.031-2.247,2.826-2.395,2.565-8.748-4.648,3.663,9.339-9.436-4.12-2.583,3.073,1.737,5.872.882,4.675-1.264,3.245-2.592,2.651.496,4.038-8.941.392-.659,3.701-1.681,6.078,6.097,1.516,4.842-1.633,2.469,3.424,2.731,2.693,4.242.179,3.762,1.141.807,5.326,4.253.492,2.48,2.865,2.926,2.295,6.3-1.44-1.32,7.009,6.647-1.615-.818,5.973,1.542,3.491,5.693-.189-1.368,5.917,5.718.063.214,4.434,3.751,1.78,3.724,1.907,1.386,3.518-.216,4.465-2.097,5.457,9.046-1.04,1.62,3.327-3.85,6.174,3.14,2.438,2.682,2.715,5.061,1.624-3.266,5.543,1.855,3.131,5.412,1.58-.562,4.217,1.814,3.174,2.993,2.681.221,3.842.663,3.65-.127,3.973-.666,4.197,6.194,1.344.621,3.658,2.303,2.945-2.486,5.006,3.786,2.297,4.407,1.976-.052,3.969,2.8,2.651-2.441,5.166,1.531,3.288,1.385,3.366,3.626,2.177-1.477,4.931,6.398.54.227,4.018.185,4.113,4.21,1.613,4.065,1.597-5.218,7.921,1.461,3.503,8.146-1.469-1.791,5.93,3.899,1.563,1.954,3.1,4.024,1.311.405.367,2.444-.139-4.576-2.803-.102-3.299,4.249-3.758-6.762-3.771-.54-1.821,1.432-2.748,2.946-4.718-2.988-5.012.463-3.839-1.962-3.481-2.07-3.529,3.685-3.642.125-3.554.467-3.545,5.139-3.346-5.769-3.795-.235-3.592.61-3.532,4.355-3.094,2.745-3.153-8.979-4.876,1.45-3.439,4.787-2.748-1.563-3.958-1.937-4.148,5.726-2.265-2.144-4.288,6.92-1.652-4.293-5.07.92-3.485,5.874-1.606.411-3.566,1.111-3.313,3.457-2.172-4.893-6.526,4.338-1.703,5.23-.847-3.619-6.774,4.976-.79,1.166-3.678,1.997-3.089,6.246,1.288,3.238-1.394-3.565-4.192.989-4.713,3.773-1.295,4.16-.485,3.97-.486.809-6.112,7.08,5.829-.318-9.105,5.459,3.294,3.126-1.86,2.396-3.807,5.911,5.455,3.323-1.313,2.382-3.967,2.739-3.004,5.016,3.145,1.698-5.725,4.72,2.083.65-7.783,5.302,3.156,1.793-4.587,2.022-3.714,3.335-1.101,7.447,5.324,2.454-3.106,3.31-1.828,1.301-4.328,1.96-3.271.946-4.141,6.639,1.333-2.161-6.684,2.111-2.77,8.012,1.349-.318-4.695,3.195-2.368-3.884-6.329,8.083.137-.613-4.384-3.369-5.434,2.998-2.557-.597-4.077,1.26-3.277,8.673-.556-3.976-5.229-.127-3.756,2.447-2.932,1.103-3.363,3.926-2.695-2.515-4.23,2.608-3.112-3.849-4.192,2.067-3.229.647-3.453-1.481-3.592,5.605-3.303-3.263-3.622,6.64-3.638-4.615-3.513-1.385-3.535-2.156-3.523,5.892-3.699-3.783-3.541,5.595-3.403-.344-3.45-7.996-4.313.265-3.754,2.735-3.304,4.434-2.728-4.54-1.462ZM255.712,583.58l.447-5.624-4.978-.305-.669-4.359-1.823-3.233-2.487-2.65-.32-4.357-1.856-3.077-7.762,1.15-.403-4.225-3.07-2.387,1.943-5.557-4.301-1.638.441-4.453-2.036-2.999,2.097-5.153-2.876-2.523-1.306-3.326-1.388-3.283-4.54-1.901-.262-3.811-6.447-1.254.838-4.266,4.551-5.636-5.221-1.862.622-4.071-5.317-1.914,1.872-4.503,2.07-4.552-7.904-1.064-.766-3.56,5.182-5.636-2.722-2.883-7.429-1.192,6.595-6.222-1.052-3.498-3.139-2.71-.984-3.525-2.513-2.914-6.261-1.287,2.275-4.903-6.521-.964,2.313-5.042-5.113-1.424,2.27-5.214-3.333-2.254,2.288-5.531-8.214.857,4.893-7.495-6.386-.005.236-4.642-2.76-2.46.631-5.286-6.603.9-1.539-3.475-5.709.616-.435-4.632-.028-5.749-7.982,3.234-2.556-2.826-2.689-2.689,1.262-8.23-3.866,2.898-4.587,1.682-1.08,3.749,1.263,3.474,1.092,3.422.55,3.504,1.545,3.869-4.293,2.789,5.095,4.968-4.685,2.321,3.047,4.882-3.168,2.667-4.35,2.068,2.375,4.898-2.082,2.998-2.942,2.588,2.373,5.012-1.07,3.431-2.643,2.699-.661,3.587-.982,3.419-9.889-.355,7.303,6.859-10.283-.195-1.311,3.435,3.38,4.978,2.016,4.289-.492,3.423-1.929,3.084,1.435,3.682-8.532,2.594.466,3.831-.612,3.82,2.134,3.628,3.912,3.179-1.305,3.862-.231,3.785,2.885,3.012,2.071,3.123-2.579,4.647,3.254,2.713.637,3.637,1.467,3.322,6.225,1.276-4.113,5.718,6.746.95-2.864,5.261.35,3.819,5.484,1.5-2.971,5.286,5.496,1.565-.925,4.329,3.188,2.65,3.134,2.776.451,3.781-1.4,4.263-3.598,4.561,8.911,1.868.41,3.777-5.809,4.399,1.995,3.419,1.424,3.545,4.01,3.51-5.207,3.789.444,3.616,4.332,3.604-2.18,3.639.445,3.617,1.765,3.578-1.187,3.616-.638,3.618-1.408,3.702-1.887,3.841,5.599,2.954-.274,3.609,1.653,3.235-3.238,4.518,3.517,2.679,4.232,2.059-.138,3.771,2.878,2.344-1.858,5.364,2.089,3.044,2.095,3.064,4.071,1.269-.052,5.191,6.316-1.305,1.466,3.777,1.515,3.884,4.554.228,4.424.274-2.442,9.191,6.782,3.613-3.491-8.481,5.703-2.274-1.07-3.9,1.523-3.188-.833-4.076-.387-4.094,6.378-.921-2.101-5.102,2.059-2.992,5.783-.4-3.049-6.609,2.044-3.123,3.7-1.637,4.864-.216.808-4.343,3.187-1.787,1.773-3.631,1.915-3.72,5.087,1.213,3.159-1.663,3.324-1.31,5.423,2.866.504-6.889,3.01-1.964,3.364-1.214,4.861,2.223,4.138.757-.445-10.207,3.636-.547,4.858,2.583,2.438-3.469,2.279-3.908,5.106,3.386,2.132-4.259,5.549,4.451,1.192-6.534,3.148-1.559,5.192,3.192,2.874-2.299,3.093-1.774,4.18.383-.308-8.141,4.44.865,5.104,1.577-.791-7.619,4.581,1.667-3.267,1.541-3.86.02-2.567-5.962-3.139-2.001-5.173,4.121-4.715,1.424-3.104-2.71-2.555-3.462-2.429-3.311-5.882,2.1,1.772-9.046-8.054,4.361.404-6.445-3.119-2.084-5.914.706Z" style="fill: #fff;"/>
    <path d="M864.588,568.485l4.963-2.77-2.42-4.393,3.326-2.931,1.746-3.298.867-3.546,3.45-2.723,1.479-3.335-5.515-5.571,3.072-2.818-.131-3.803,5.444-2.179-1.779-4.235,3.41-2.875.467-3.626,4.881-2.845-.834-3.941.702-3.705.389-3.765-3.288-3.784,1.266-.189-5.571-3.228,2.038-3.513,5.643-4.514-4.896-2.643.994-3.953-5.207-2.011,1.888-4.39,1.877-4.619-7.928-.407-1.042-3.326,4.548-6.104-3.024-2.454-7.474-.136,5.807-6.906-1.227-3.139-3.122-2.494-.814-3.474-2.229-3.079-6.063-2.194,3.042-4.563-6.225-2.379,3.367-4.519-4.627-2.742,3.654-4.435-2.325-3.279,4.367-4.01-7.676-3.018,8.029-3.92-5.329-3.4,2.908-3.568-.663-3.537,3.87-3.515-5.55-3.579,1.222-3.541-4.561-3.445,2.916-3.58,4.004-3.799-7.972-2.822.113-3.401-.118-3.382,6.428-5.04-6.908-1.773,4.569-5.357-.233-4.042-2.68-3.052-2.809-2.842-2.701-2.786-3.857-1.855.641-5.182-7.126,1.025.469-5.248-5.787.316-1.054-4.021-.262-4.904-5.516.3-2.133-3.079-1.493-3.739-5.617.402-2.956-2.335-1.68-3.595-3.203-2.173-2.884-2.54,4.749-8.73-9.678,2.776,5.786-8.522-1.858-2.916-5.946-.506-4.585-1.541-2.147-2.997-.674-3.781-3.507-2.251,5.566-7.006-2.253-2.897-1.099-3.522-3.373-2.316-4.81-1.473-.107-4.085-.984-3.638-3.663-1.973-2.909-2.355,1.061-5.204-3.939-1.567-1.799-3.22-2.562-2.584-6.151,1.336,1.252-6.858-6.208,2.641-.432-5.884-2.624-2.844-5.106,2.43-1.432-5.872-4.929,2.868-2.569-3.544-4.023.813-3.984.878-3.228-1.733-2.784-3.438-2.233-5.412-5.763,7.045-3.463-1.235-1.55-7.103-3.922.422-3.797-.172-4.949,2.07-.981-6.39-3.644-1.474,1.738,5.449-3.621,2.117-1.252,3.387v3.95s-2.624,2.702-2.624,2.702l-2.11,2.979-2.826,2.762-3.31,2.717,3.886,4.996-1.738,3.176.156,3.642-4.846,2.734,2.006,3.942,2.846,3.808-1.911,3.369,1.31,3.549-4.443,3.557-.019,3.623-.19,3.63,2.304,3.556-3.568,3.703,5.342,3.587-1.872,3.657-2.106,3.562,2.46,3.82,2.158,3.959-9.158,2.495-1.369,3.307,6.626,4.918-5.691,2.453,1.141,3.986-1.424,3.352,1.037,4.112.688,4.098-6.28,1.633,2.697,4.885-1.586,3.314-5.651,1.566,4.377,5.873-1.186,3.513-3.053,2.49-4.557,1.575.599,4.328-2.411,2.649-.441,3.951-.513,4.083-5.157.525-2.372,2.589-2.682,2.28-5.937-1.208,1.336,6.802-2.568,2.724-3.157,1.981-5.251-1.268-4.2-.131,1.602,10.123-3.754.992-5.158-2.166-2.372,3.634-2.317,4.039-5.276-3.275-2.265,4.293-5.559-4.518-1.485,6.528-3.33,1.471-5.121-3.414-3.086,2.159-3.288,1.606-4.228-.636-.377,8.182-4.458-1.151-5.061-1.912.135,7.704-4.833-1.176-2.175,3.176-2.483,2.562-6.166-1.862-3.585,1.673,1.249,6.505-.12,4.595-3.06,1.787-3.591,1.562-3.348,1.937,2.367,5.523-9.05-1.132,5.797,6.969-6.197.874-.935,3.448,1.182,4.227-7.977.873-1.127,3.592,1.657,4.436.776,4.065-5.493,2.365,3.72,4.745-4.395,2.809,6.071,4.969-5.599,2.697,2.761,4.146,1.873,3.894-1.067,3.489-8.725,2.86.949,3.83-.674,3.707,2.436,3.812,1.102,3.705,2.327,3.547-5.684,3.623,6.112,3.407.214,3.515-7.075,3.932,3.096,3.401-1.217,3.676,6.766,3.009-6.558,5.42,4.899,1.997,6.393-.756,1.034,3.93,3.954,1.541,2.286,2.898-4.192,7.633,6.563-.291,3.157,2.242.826,3.842,1.883,3.105-.659,4.742,4.798,1.215.276,4.106,5.715.682.535,3.927,1.656,3.221,3.375,2.145-2.719,5.954,4.733,1.281-3.672,6.631,5.782.583,3.051,2.311,3.703,1.84-2.881,6.354,5.167.794-2.345,6.183,2.617,2.633,8.82-2.231,2.376,2.629.611,4.096-.516,5.182,1.582,3.475,1.49,3.629,8.224-2.927,2.722,2.252-.146,5.318.079,5.334,2.729,2.487,5.714-1.189.717,4.938,1.409,4.269,5.545-1.414,4.169.282,4.087.245.88,5.374,2.52,2.817,3.473,1.164,3.839.322,2.559,3.01,2.364,3.873,5.625-4.877,3.748-.487,1.641,7.348,4.043-1.457,3.389,1.441,3.47,1.496,3.718-.955,3.624-2.284,3.698,6.09,3.248-6.721,4.098,5.052,3.704-.176,3.25-2.647,3.529-.772,4.032,1.276,3.448-1.217,1.295-8.527,4.335,2.192,4.774,3.307,2.666-3.408,3.563-.572,3.323-1.298,1.525-7.014,4.978,3.97,2.272-4.989,4.347,2.195,2.562-4.584,3.636-.572,4.363,3.316,2.93-4.388,3.555-1.416,4.086,4.224,3.409-4.126,3.725,1.899,3.514,3.044,3.409,1.4,3.633-.97,4.076-2.737,3.093,3.007,2.426,4.776,4.02-1.455,5.064-3.795,1.35,6.691,3.447.852,2.119,3.759,4.58-1.591,4.541-1.289,1.674,4.319,4.485-.949,1.955,3.623,4.785-1.164,2.832,2.156.697,3.011,1.017-2.23,2.274-2.74,6.9,1.464-1.108-5.799,4.407-.852-.996-5.575,1.787-3.099,4.563-.818,5.435-.27-3.407-7.082,1.899-2.92,4.473-1.182,3.332-2.107-2.893-5.807,3.618-1.937,4.971-1.53,4.132-2.298-1.19-4.516-3.644-4.935,3.207-2.866,4.7-2.749-5.341-4.744-.206-3.655,5.754-2.887.529-3.656-6.163-4.266,4.118-3.286,3.722-3.396-6.879-4.126,5.811-3.292-5.194-3.987,2.031-3.545,1.572-3.571-3.043-3.934,1.683-3.578-.004-1.932ZM501.01,132.489l.758-2.489-3.713,2.901-3.041-2.677-3.342-.761-3.64.334-3.894-2.147-3.78.106-2.358,7.472-3.898-1.288-3.161,2.071-4.753-3.454-2.663,3.785-4.298-1.333-3.372,1.515-4.907-2.781-2.989,2.59-3.547.976-3.488,1.089-2.391,4.361-3.88-.094-2.033,6.3-4.255-1.33-4.934-5.326-2.608,4.788-3.765-1.431-2.937,4.768-3.88-2.866-3.807-3.118-2.913,7.38-3.566-.174-4.014-6.473-3.405,1.867-3.01,6.853-4.216-7.992-3.592.113-3.358,2.35-3.605.085-3.373,1.748-2.57,5.799-4.222-3.272-2.085,6.186-4.436-3.181-2.022,4.801-4.769-2.925-2.499,3.067-5.246-2.8.208,8.228-6.987-5.551-.52,6.325-4.542-.722-2.681,2.437-5.084-1.325.063,6.613-3.625.95-.371,5.717-4.626-.481-5.324-1.413,1.546,8.33-3.198,1.612-3.155,1.688-7.141-3.976.636,7.093-6.36-2.993-3.653.834-2.332,2.786-2.437,2.793-2.625,2.555-1.996,3.659-4.943-1.309-.002,7.149-5.018-1.471-.858,5.692-4.11.084-4.754-.95-.948,5.382-3.402,1.303-3.893.582-.607,5.506-2.616,2.38-3.589,1.031-2.247,2.826-2.395,2.565-8.748-4.648,3.663,9.339-9.436-4.12-2.583,3.073,1.737,5.872.882,4.675-1.264,3.245-2.592,2.651.496,4.038-8.941.392-.659,3.701-1.681,6.078,6.097,1.516,4.842-1.633,2.469,3.424,2.731,2.693,4.242.179,3.762,1.141.807,5.326,4.253.492,2.48,2.865,2.926,2.295,6.3-1.44-1.32,7.009,6.647-1.615-.818,5.973,1.542,3.491,5.693-.189-1.368,5.917,5.718.063.214,4.434,3.751,1.78,3.724,1.907,1.386,3.518-.216,4.465-2.097,5.457,9.046-1.04,1.62,3.327-3.85,6.174,3.14,2.438,2.682,2.715,5.061,1.624-3.266,5.543,1.855,3.131,5.412,1.58-.562,4.217,1.814,3.174,2.993,2.681.221,3.842.663,3.65-.127,3.973-.666,4.197,6.194,1.344.621,3.658,2.303,2.945-2.486,5.006,3.786,2.297,4.407,1.976-.052,3.969,2.8,2.651-2.441,5.166,1.531,3.288,1.385,3.366,3.626,2.177-1.477,4.931,6.398.54.227,4.018.185,4.113,4.21,1.613,4.065,1.597-5.218,7.921,1.461,3.503,8.146-1.469-1.791,5.93,3.899,1.563,1.954,3.1,4.024,1.311.405.367,2.444-.139-4.576-2.803-.102-3.299,4.249-3.758-6.762-3.771-.54-1.821,1.432-2.748,2.946-4.718-2.988-5.012.463-3.839-1.962-3.481-2.07-3.529,3.685-3.642.125-3.554.467-3.545,5.139-3.346-5.769-3.795-.235-3.592.61-3.532,4.355-3.094,2.745-3.153-8.979-4.876,1.45-3.439,4.787-2.748-1.563-3.958-1.937-4.148,5.726-2.265-2.144-4.288,6.92-1.652-4.293-5.07.92-3.485,5.874-1.606.411-3.566,1.111-3.313,3.457-2.172-4.893-6.526,4.338-1.703,5.23-.847-3.619-6.774,4.976-.79,1.166-3.678,1.997-3.089,6.246,1.288,3.238-1.394-3.565-4.192.989-4.713,3.773-1.295,4.16-.485,3.97-.486.809-6.112,7.08,5.829-.318-9.105,5.459,3.294,3.126-1.86,2.396-3.807,5.911,5.455,3.323-1.313,2.382-3.967,2.739-3.004,5.016,3.145,1.698-5.725,4.72,2.083.65-7.783,5.302,3.156,1.793-4.587,2.022-3.714,3.335-1.101,7.447,5.324,2.454-3.106,3.31-1.828,1.301-4.328,1.96-3.271.946-4.141,6.639,1.333-2.161-6.684,2.111-2.77,8.012,1.349-.318-4.695,3.195-2.368-3.884-6.329,8.083.137-.613-4.384-3.369-5.434,2.998-2.557-.597-4.077,1.26-3.277,8.673-.556-3.976-5.229-.127-3.756,2.447-2.932,1.103-3.363,3.926-2.695-2.515-4.23,2.608-3.112-3.849-4.192,2.067-3.229.647-3.453-1.481-3.592,5.605-3.303-3.263-3.622,6.64-3.638-4.615-3.513-1.385-3.535-2.156-3.523,5.892-3.699-3.783-3.541,5.595-3.403-.344-3.45-7.996-4.313.265-3.754,2.735-3.304,4.434-2.728-4.54-1.462ZM255.712,583.58l.447-5.624-4.978-.305-.669-4.359-1.823-3.233-2.487-2.65-.32-4.357-1.856-3.077-7.762,1.15-.403-4.225-3.07-2.387,1.943-5.557-4.301-1.638.441-4.453-2.036-2.999,2.097-5.153-2.876-2.523-1.306-3.326-1.388-3.283-4.54-1.901-.262-3.811-6.447-1.254.838-4.266,4.551-5.636-5.221-1.862.622-4.071-5.317-1.914,1.872-4.503,2.07-4.552-7.904-1.064-.766-3.56,5.182-5.636-2.722-2.883-7.429-1.192,6.595-6.222-1.052-3.498-3.139-2.71-.984-3.525-2.513-2.914-6.261-1.287,2.275-4.903-6.521-.964,2.313-5.042-5.113-1.424,2.27-5.214-3.333-2.254,2.288-5.531-8.214.857,4.893-7.495-6.386-.005.236-4.642-2.76-2.46.631-5.286-6.603.9-1.539-3.475-5.709.616-.435-4.632-.028-5.749-7.982,3.234-2.556-2.826-2.689-2.689,1.262-8.23-3.866,2.898-4.587,1.682-1.08,3.749,1.263,3.474,1.092,3.422.55,3.504,1.545,3.869-4.293,2.789,5.095,4.968-4.685,2.321,3.047,4.882-3.168,2.667-4.35,2.068,2.375,4.898-2.082,2.998-2.942,2.588,2.373,5.012-1.07,3.431-2.643,2.699-.661,3.587-.982,3.419-9.889-.355,7.303,6.859-10.283-.195-1.311,3.435,3.38,4.978,2.016,4.289-.492,3.423-1.929,3.084,1.435,3.682-8.532,2.594.466,3.831-.612,3.82,2.134,3.628,3.912,3.179-1.305,3.862-.231,3.785,2.885,3.012,2.071,3.123-2.579,4.647,3.254,2.713.637,3.637,1.467,3.322,6.225,1.276-4.113,5.718,6.746.95-2.864,5.261.35,3.819,5.484,1.5-2.971,5.286,5.496,1.565-.925,4.329,3.188,2.65,3.134,2.776.451,3.781-1.4,4.263-3.598,4.561,8.911,1.868.41,3.777-5.809,4.399,1.995,3.419,1.424,3.545,4.01,3.51-5.207,3.789.444,3.616,4.332,3.604-2.18,3.639.445,3.617,1.765,3.578-1.187,3.616-.638,3.618-1.408,3.702-1.887,3.841,5.599,2.954-.274,3.609,1.653,3.235-3.238,4.518,3.517,2.679,4.232,2.059-.138,3.771,2.878,2.344-1.858,5.364,2.089,3.044,2.095,3.064,4.071,1.269-.052,5.191,6.316-1.305,1.466,3.777,1.515,3.884,4.554.228,4.424.274-2.442,9.191,6.782,3.613-3.491-8.481,5.703-2.274-1.07-3.9,1.523-3.188-.833-4.076-.387-4.094,6.378-.921-2.101-5.102,2.059-2.992,5.783-.4-3.049-6.609,2.044-3.123,3.7-1.637,4.864-.216.808-4.343,3.187-1.787,1.773-3.631,1.915-3.72,5.087,1.213,3.159-1.663,3.324-1.31,5.423,2.866.504-6.889,3.01-1.964,3.364-1.214,4.861,2.223,4.138.757-.445-10.207,3.636-.547,4.858,2.583,2.438-3.469,2.279-3.908,5.106,3.386,2.132-4.259,5.549,4.451,1.192-6.534,3.148-1.559,5.192,3.192,2.874-2.299,3.093-1.774,4.18.383-.308-8.141,4.44.865,5.104,1.577-.791-7.619,4.581,1.667-3.267,1.541-3.86.02-2.567-5.962-3.139-2.001-5.173,4.121-4.715,1.424-3.104-2.71-2.555-3.462-2.429-3.311-5.882,2.1,1.772-9.046-8.054,4.361.404-6.445-3.119-2.084-5.914.706Z" style="fill: none; stroke: #000; stroke-linecap: round; stroke-linejoin: round; stroke-width: 40px;"/>
  </g>
  <g>
    <polygon points="348.049 529.9 352.146 534.652 351.611 538.549 346.566 541.213 350.447 546.398 349.973 550.41 346.165 553.229 341.987 555.445 339.553 558.265 340.305 562.445 335.638 564.178 332.726 566.599 333.809 571.073 332.215 574.199 331.372 577.798 326.329 578.697 331.756 586.766 324.486 585.868 323.351 589.468 322.594 593.56 317.544 593.694 317.977 599.234 313.584 599.75 311.236 602.5 308.419 605.681 303.899 607.036 300.211 605.751 296.803 603.421 292.972 603.094 290.274 599.3 286.435 599.022 282.998 597.602 280.331 594.72 278.164 591.25 275.386 588.984 269.855 590.5 266.087 589.213 265.592 583.973 259.852 584.798 261.127 578.064 258.013 576.147 251.221 577.614 248.527 575.067 250.303 568.678 247.005 566.752 242.803 565.457 241.962 561.515 238.795 559.321 240.381 553.824 240.089 549.772 232.586 550.288 233.504 545.497 228.53 544.191 230.276 539.087 230.198 535.094 226.527 532.949 225.017 529.688 223.881 526.257 218.082 524.882 221.153 519.619 221.186 515.728 213.591 514.886 216.428 509.893 214.571 506.742 208.454 505.138 210.519 500.531 209.11 497.193 211.896 492.382 205.527 490.78 204.647 487.26 209.581 481.711 202.899 480.226 205.132 475.601 205.756 471.519 202.952 468.68 202.556 464.945 200.039 462.023 193.662 460.709 193.875 456.75 189.666 454.701 190.748 450.311 193.741 444.882 192.718 441.286 185.709 440.877 182.464 438.634 184.413 433.37 178.235 433.013 178.607 428.567 176.548 425.673 172.455 424.315 171.366 420.735 168.927 418.197 167.108 415.118 169.361 408.115 167.288 404.939 162.967 404.094 159.672 401.876 157.885 397.937 155.452 394.635 149.478 395.852 149.005 389.876 147.36 388.544 145.268 387.021 139.478 383.627 141.566 379.85 146.446 376.179 139.431 372.36 146.683 369.134 139.289 364.625 148.869 362.515 146.059 358.305 150.406 356.062 143.776 349.422 146.004 346.235 151.627 345.074 156.349 343.765 156.003 339.29 159.227 337.169 157.166 331.077 158.402 327.311 162.199 325.629 169.32 326.905 166.491 319.602 171.519 319.175 172.128 314.802 177.123 314.398 176.455 308.868 177.205 304.663 184.154 305.94 182.723 299.921 191.558 302.484 186.291 293.659 190.292 292.231 194.289 290.758 198.138 289.562 199.597 286.09 204.616 286.211 201.997 278.555 210.374 281.584 212.346 278.235 210.799 272.604 208.455 267.593 213.497 266.263 214.608 265.418 219.444 263.776 222.97 265.482 226.668 266.844 229.579 269.62 231.482 273.84 231.171 280.99 236.973 279.096 242.548 277.976 245.431 280.521 248.621 282.687 247.58 289.577 250.464 291.915 257.145 290.268 258.474 294.184 261.796 296.157 264.847 298.442 261.878 305.738 265.965 307.069 269.867 308.683 266.266 315.746 274.189 314.629 276.795 317.318 274.812 322.87 280.746 323.538 275.817 330.554 285.067 329.561 286.661 332.886 288.683 335.984 284.659 342.039 291.378 342.841 288.193 348.334 287.062 352.795 291.675 354.688 292.104 358.441 291.218 362.737 299.338 363.237 296.31 368.427 301.688 370.115 301.786 373.994 302.528 377.607 303.388 381.173 307.768 383.26 303.316 389.085 306.115 391.844 313.146 392.719 309.824 398.158 310.706 401.756 314.29 404.093 319.803 405.439 320.939 408.865 316.993 414.932 319.285 417.851 319.16 422.089 327.791 421.381 328.538 425.078 331.096 427.701 327.894 433.985 335.408 433.382 332.34 439.825 337.797 440.401 337.069 445.424 337.419 449.781 339.226 453.077 343.814 454.055 346.125 456.892 350.569 458.244 350.272 463.2 350.185 467.833 355.016 471.062 351.956 475.078 352.233 478.764 356.192 482.179 356.56 485.903 353.612 489.799 351.268 493.589 355.504 497.184 354.283 500.924 350.51 504.572 357.499 508.502 352.129 511.972 355.186 515.931 354.276 519.619 352.014 523.1 354.047 527.188 348.049 529.9" style="fill: #fff;"/>
    <polygon points="348.049 529.9 352.146 534.652 351.611 538.549 346.566 541.213 350.447 546.398 349.973 550.41 346.165 553.229 341.987 555.445 339.553 558.265 340.305 562.445 335.638 564.178 332.726 566.599 333.809 571.073 332.215 574.199 331.372 577.798 326.329 578.697 331.756 586.766 324.486 585.868 323.351 589.468 322.594 593.56 317.544 593.694 317.977 599.234 313.584 599.75 311.236 602.5 308.419 605.681 303.899 607.036 300.211 605.751 296.803 603.421 292.972 603.094 290.274 599.3 286.435 599.022 282.998 597.602 280.331 594.72 278.164 591.25 275.386 588.984 269.855 590.5 266.087 589.213 265.592 583.973 259.852 584.798 261.127 578.064 258.013 576.147 251.221 577.614 248.527 575.067 250.303 568.678 247.005 566.752 242.803 565.457 241.962 561.515 238.795 559.321 240.381 553.824 240.089 549.772 232.586 550.288 233.504 545.497 228.53 544.191 230.276 539.087 230.198 535.094 226.527 532.949 225.017 529.688 223.881 526.257 218.082 524.882 221.153 519.619 221.186 515.728 213.591 514.886 216.428 509.893 214.571 506.742 208.454 505.138 210.519 500.531 209.11 497.193 211.896 492.382 205.527 490.78 204.647 487.26 209.581 481.711 202.899 480.226 205.132 475.601 205.756 471.519 202.952 468.68 202.556 464.945 200.039 462.023 193.662 460.709 193.875 456.75 189.666 454.701 190.748 450.311 193.741 444.882 192.718 441.286 185.709 440.877 182.464 438.634 184.413 433.37 178.235 433.013 178.607 428.567 176.548 425.673 172.455 424.315 171.366 420.735 168.927 418.197 167.108 415.118 169.361 408.115 167.288 404.939 162.967 404.094 159.672 401.876 157.885 397.937 155.452 394.635 149.478 395.852 149.005 389.876 147.36 388.544 145.268 387.021 139.478 383.627 141.566 379.85 146.446 376.179 139.431 372.36 146.683 369.134 139.289 364.625 148.869 362.515 146.059 358.305 150.406 356.062 143.776 349.422 146.004 346.235 151.627 345.074 156.349 343.765 156.003 339.29 159.227 337.169 157.166 331.077 158.402 327.311 162.199 325.629 169.32 326.905 166.491 319.602 171.519 319.175 172.128 314.802 177.123 314.398 176.455 308.868 177.205 304.663 184.154 305.94 182.723 299.921 191.558 302.484 186.291 293.659 190.292 292.231 194.289 290.758 198.138 289.562 199.597 286.09 204.616 286.211 201.997 278.555 210.374 281.584 212.346 278.235 210.799 272.604 208.455 267.593 213.497 266.263 214.608 265.418 219.444 263.776 222.97 265.482 226.668 266.844 229.579 269.62 231.482 273.84 231.171 280.99 236.973 279.096 242.548 277.976 245.431 280.521 248.621 282.687 247.58 289.577 250.464 291.915 257.145 290.268 258.474 294.184 261.796 296.157 264.847 298.442 261.878 305.738 265.965 307.069 269.867 308.683 266.266 315.746 274.189 314.629 276.795 317.318 274.812 322.87 280.746 323.538 275.817 330.554 285.067 329.561 286.661 332.886 288.683 335.984 284.659 342.039 291.378 342.841 288.193 348.334 287.062 352.795 291.675 354.688 292.104 358.441 291.218 362.737 299.338 363.237 296.31 368.427 301.688 370.115 301.786 373.994 302.528 377.607 303.388 381.173 307.768 383.26 303.316 389.085 306.115 391.844 313.146 392.719 309.824 398.158 310.706 401.756 314.29 404.093 319.803 405.439 320.939 408.865 316.993 414.932 319.285 417.851 319.16 422.089 327.791 421.381 328.538 425.078 331.096 427.701 327.894 433.985 335.408 433.382 332.34 439.825 337.797 440.401 337.069 445.424 337.419 449.781 339.226 453.077 343.814 454.055 346.125 456.892 350.569 458.244 350.272 463.2 350.185 467.833 355.016 471.062 351.956 475.078 352.233 478.764 356.192 482.179 356.56 485.903 353.612 489.799 351.268 493.589 355.504 497.184 354.283 500.924 350.51 504.572 357.499 508.502 352.129 511.972 355.186 515.931 354.276 519.619 352.014 523.1 354.047 527.188 348.049 529.9" style="fill: none; stroke: #000; stroke-linecap: round; stroke-linejoin: round; stroke-width: 40px;"/>
  </g>
  <g>
    <polygon points="829.141 678.171 824.891 680.91 823.645 684.175 826.516 688.546 827.779 692.534 826.403 696.82 823.75 699.273 818.751 700.472 815.764 702.914 812.841 705.429 816.335 711.277 815.753 714.982 812.057 717.099 809.727 719.917 811.377 724.877 807.007 726.6 800.302 726.825 804.374 733.455 802.83 736.812 801.499 740.38 798.222 742.553 790.494 740.942 790.44 745.472 789.554 749.599 789.151 754.711 782.72 752.739 782.173 758.14 777.504 757.761 772.742 756.777 770.653 760.258 769.886 766.486 764.092 763.16 762.561 768.093 757.32 765.748 757.25 773.37 754.263 775.217 747.767 771.121 747.49 777.456 740.152 773.189 737.585 776.143 734.486 778.485 737.324 787.003 733.863 788.589 733.024 792.773 728.899 793.875 725.305 795.549 720.101 795.832 721.986 802.414 718.908 804.607 716.097 807.047 709.081 805.573 711.516 812.922 709.416 816.104 705.365 817.299 702.86 820.09 698.76 820.98 697.238 825.101 692.621 824.955 689.072 826.037 687.365 830.677 684.477 833.654 680.669 834.33 676.157 831.55 673.184 835.241 669.323 834.206 665.291 830.16 662.434 839.15 658.633 837.039 655.146 839.115 650.939 830.273 647.737 835.909 644.213 836.664 639.965 832.724 637.545 839.516 632.453 834.005 630.796 840.976 628.63 844.607 622.134 838.687 621.788 845.921 616.829 844.145 611.858 842.716 611.341 848.828 605.545 846.19 605.836 853.395 601.791 853.606 597.208 852.919 597.224 859.772 594.094 861.52 590.168 861.851 588.052 865.506 582.178 861.689 579.398 863.88 577.317 868.092 575.146 873.156 570.48 870.331 566.58 868.901 562.986 869.201 559.373 868.859 555.934 875.696 552.112 873.831 548.59 870.253 545.173 868.134 540.786 873.288 537.216 871.904 533.662 870.704 530.11 869.63 526.089 870.594 523.261 866.643 519.927 864.848 516.326 864.136 513.392 860.683 509.951 859.133 505.703 861.152 501.176 865.204 498.323 860.578 495.259 855.615 490.927 860.943 487.318 860.766 483.764 859.547 480.043 856.038 476.476 858.394 473.327 864.236 469.013 856.917 466.316 865.172 462.099 860.357 459.302 866.565 454.363 857.238 451.422 862.207 448.105 864.556 444.245 862.96 441.31 868.661 436.841 861.523 433.255 861.423 430.218 868.465 426.275 863.359 422.731 863.737 419.188 863.027 415.465 867.17 411.837 866.411 408.602 863.111 405.599 860.179 401.687 861.861 399.372 857.752 394.179 861.77 390.857 860.269 387.802 858.267 382.6 859.927 379.628 857.575 380.641 849.621 374.097 852.536 375.733 844.471 369.881 846.099 368.223 842.446 363.891 842.003 359.524 840.168 356.865 835.894 362.623 831.538 359.099 828.24 361.385 824.523 363.7 820.959 361.173 817.409 360.293 813.793 357.687 809.941 358.395 806.309 362.439 803.238 358.271 798.761 361.611 795.715 367.149 793.498 362.345 788.274 368.859 786.77 364.904 781.298 367.79 778.559 367.287 774.121 371.78 772.431 377.496 771.914 376.426 766.847 376.974 762.62 380.69 761.003 383.776 758.979 384.954 754.917 386.535 751.008 393.592 754.25 394.184 748.898 396.508 745.701 402.284 748.549 402.387 741.006 408.832 745.548 412.794 745.47 415.414 742.632 417.107 737.626 419.939 734.983 423.149 733.16 429.024 737.805 429.672 729.735 432.47 726.844 436.541 727.199 441.068 728.786 444.56 727.71 446.95 723.818 452.353 727.55 453.827 721.461 455.916 717.117 461.792 721.561 464.546 718.783 467.087 715.703 470.163 713.816 474.11 713.496 476.367 710.224 480.451 709.911 484.155 708.814 483.728 702.255 486.335 705.597 489.408 703.662 493.929 703.222 493.793 697.844 495.593 694.667 495.358 689.858 504.898 692.978 505.91 689.084 506.136 684.795 505.897 680.391 513.104 680.488 507.895 673.445 514.048 672.648 515.768 669.452 513.869 664.631 517.631 662.366 514.602 657.293 521.327 656.057 525.274 653.61 523.237 649.118 526.71 646.382 522.884 641.626 521.055 637.595 521.859 634.237 527.653 631.742 531.252 628.647 523.774 624.032 530.122 621.176 524.927 617.16 525.366 613.692 527.73 610.275 527.12 606.725 525.498 603.203 529.654 599.61 525.537 596.185 528.574 592.51 531.579 588.752 531.355 585.162 525.264 582.07 529.105 578.162 531.725 574.316 525.549 571.357 527.233 567.603 528.74 563.857 526.449 560.529 525.174 557.089 528.2 553.185 527.904 549.648 522.646 546.608 524.981 545.876 524.969 546.646 531.508 545.759 527.632 553.71 536.284 551.395 533.459 558.158 539.875 557.891 539.122 562.907 544.299 563.716 541.794 569.797 547.66 570.234 550.093 572.985 546.427 579.625 548.887 582.322 556.135 582.034 557.845 585.227 555.202 591.122 563.202 590.388 557.333 598.318 560.528 600.59 565.793 601.521 569.665 603.3 570.283 607.192 567.968 613.106 572.974 614.076 575.038 617.041 573.743 622.472 576.665 624.87 578.408 628.16 581.065 630.744 585.288 631.997 590.024 632.684 593.342 634.493 593.291 639.415 595.346 642.46 601.153 641.684 597.684 650.594 603.993 649.094 609.343 648.355 607.648 656.023 611.403 657.158 615.929 657.141 616.724 662.231 620.07 663.802 622.27 667.137 626.159 667.821 628.072 671.769 630.793 674.525 635.764 672.808 638.86 674.74 641.48 678.007 646.955 673.541 649.793 676.144 652.912 678.226 657.47 673.752 660.214 677.831 663.882 676.376 666.838 684.301 670.702 675.507 674.054 675.279 678.029 683.155 681.831 683.835 685.184 681.151 688.295 678.047 692.538 680.777 695.074 675.863 698.824 676.16 701.959 674.164 704.244 669.487 708.785 672.172 713.931 676.536 714.329 666.174 719.898 671.819 721.93 666.439 725.686 666.463 729.578 667.04 733.394 667.549 736.055 663.599 738.815 659.366 743.087 662.091 747.455 666.819 750.54 663.816 753.706 659.454 757.342 658.836 761.022 658.534 764.391 665.628 768.375 659.129 772.268 657.814 774.349 667.528 778.983 662.174 782.302 663.778 784.789 667.862 787.695 670.041 792.472 667.261 795.801 668.591 796.891 674.667 803.87 667.5 806.053 673.072 810.042 672.557 813.036 677.725 816.767 678.35 820.967 676.363 823.797 679.509 829.141 678.171" style="fill: #fff;"/>
    <polygon points="829.141 678.171 824.891 680.91 823.645 684.175 826.516 688.546 827.779 692.534 826.403 696.82 823.75 699.273 818.751 700.472 815.764 702.914 812.841 705.429 816.335 711.277 815.753 714.982 812.057 717.099 809.727 719.917 811.377 724.877 807.007 726.6 800.302 726.825 804.374 733.455 802.83 736.812 801.499 740.38 798.222 742.553 790.494 740.942 790.44 745.472 789.554 749.599 789.151 754.711 782.72 752.739 782.173 758.14 777.504 757.761 772.742 756.777 770.653 760.258 769.886 766.486 764.092 763.16 762.561 768.093 757.32 765.748 757.25 773.37 754.263 775.217 747.767 771.121 747.49 777.456 740.152 773.189 737.585 776.143 734.486 778.485 737.324 787.003 733.863 788.589 733.024 792.773 728.899 793.875 725.305 795.549 720.101 795.832 721.986 802.414 718.908 804.607 716.097 807.047 709.081 805.573 711.516 812.922 709.416 816.104 705.365 817.299 702.86 820.09 698.76 820.98 697.238 825.101 692.621 824.955 689.072 826.037 687.365 830.677 684.477 833.654 680.669 834.33 676.157 831.55 673.184 835.241 669.323 834.206 665.291 830.16 662.434 839.15 658.633 837.039 655.146 839.115 650.939 830.273 647.737 835.909 644.213 836.664 639.965 832.724 637.545 839.516 632.453 834.005 630.796 840.976 628.63 844.607 622.134 838.687 621.788 845.921 616.829 844.145 611.858 842.716 611.341 848.828 605.545 846.19 605.836 853.395 601.791 853.606 597.208 852.919 597.224 859.772 594.094 861.52 590.168 861.851 588.052 865.506 582.178 861.689 579.398 863.88 577.317 868.092 575.146 873.156 570.48 870.331 566.58 868.901 562.986 869.201 559.373 868.859 555.934 875.696 552.112 873.831 548.59 870.253 545.173 868.134 540.786 873.288 537.216 871.904 533.662 870.704 530.11 869.63 526.089 870.594 523.261 866.643 519.927 864.848 516.326 864.136 513.392 860.683 509.951 859.133 505.703 861.152 501.176 865.204 498.323 860.578 495.259 855.615 490.927 860.943 487.318 860.766 483.764 859.547 480.043 856.038 476.476 858.394 473.327 864.236 469.013 856.917 466.316 865.172 462.099 860.357 459.302 866.565 454.363 857.238 451.422 862.207 448.105 864.556 444.245 862.96 441.31 868.661 436.841 861.523 433.255 861.423 430.218 868.465 426.275 863.359 422.731 863.737 419.188 863.027 415.465 867.17 411.837 866.411 408.602 863.111 405.599 860.179 401.687 861.861 399.372 857.752 394.179 861.77 390.857 860.269 387.802 858.267 382.6 859.927 379.628 857.575 380.641 849.621 374.097 852.536 375.733 844.471 369.881 846.099 368.223 842.446 363.891 842.003 359.524 840.168 356.865 835.894 362.623 831.538 359.099 828.24 361.385 824.523 363.7 820.959 361.173 817.409 360.293 813.793 357.687 809.941 358.395 806.309 362.439 803.238 358.271 798.761 361.611 795.715 367.149 793.498 362.345 788.274 368.859 786.77 364.904 781.298 367.79 778.559 367.287 774.121 371.78 772.431 377.496 771.914 376.426 766.847 376.974 762.62 380.69 761.003 383.776 758.979 384.954 754.917 386.535 751.008 393.592 754.25 394.184 748.898 396.508 745.701 402.284 748.549 402.387 741.006 408.832 745.548 412.794 745.47 415.414 742.632 417.107 737.626 419.939 734.983 423.149 733.16 429.024 737.805 429.672 729.735 432.47 726.844 436.541 727.199 441.068 728.786 444.56 727.71 446.95 723.818 452.353 727.55 453.827 721.461 455.916 717.117 461.792 721.561 464.546 718.783 467.087 715.703 470.163 713.816 474.11 713.496 476.367 710.224 480.451 709.911 484.155 708.814 483.728 702.255 486.335 705.597 489.408 703.662 493.929 703.222 493.793 697.844 495.593 694.667 495.358 689.858 504.898 692.978 505.91 689.084 506.136 684.795 505.897 680.391 513.104 680.488 507.895 673.445 514.048 672.648 515.768 669.452 513.869 664.631 517.631 662.366 514.602 657.293 521.327 656.057 525.274 653.61 523.237 649.118 526.71 646.382 522.884 641.626 521.055 637.595 521.859 634.237 527.653 631.742 531.252 628.647 523.774 624.032 530.122 621.176 524.927 617.16 525.366 613.692 527.73 610.275 527.12 606.725 525.498 603.203 529.654 599.61 525.537 596.185 528.574 592.51 531.579 588.752 531.355 585.162 525.264 582.07 529.105 578.162 531.725 574.316 525.549 571.357 527.233 567.603 528.74 563.857 526.449 560.529 525.174 557.089 528.2 553.185 527.904 549.648 522.646 546.608 524.981 545.876 524.969 546.646 531.508 545.759 527.632 553.71 536.284 551.395 533.459 558.158 539.875 557.891 539.122 562.907 544.299 563.716 541.794 569.797 547.66 570.234 550.093 572.985 546.427 579.625 548.887 582.322 556.135 582.034 557.845 585.227 555.202 591.122 563.202 590.388 557.333 598.318 560.528 600.59 565.793 601.521 569.665 603.3 570.283 607.192 567.968 613.106 572.974 614.076 575.038 617.041 573.743 622.472 576.665 624.87 578.408 628.16 581.065 630.744 585.288 631.997 590.024 632.684 593.342 634.493 593.291 639.415 595.346 642.46 601.153 641.684 597.684 650.594 603.993 649.094 609.343 648.355 607.648 656.023 611.403 657.158 615.929 657.141 616.724 662.231 620.07 663.802 622.27 667.137 626.159 667.821 628.072 671.769 630.793 674.525 635.764 672.808 638.86 674.74 641.48 678.007 646.955 673.541 649.793 676.144 652.912 678.226 657.47 673.752 660.214 677.831 663.882 676.376 666.838 684.301 670.702 675.507 674.054 675.279 678.029 683.155 681.831 683.835 685.184 681.151 688.295 678.047 692.538 680.777 695.074 675.863 698.824 676.16 701.959 674.164 704.244 669.487 708.785 672.172 713.931 676.536 714.329 666.174 719.898 671.819 721.93 666.439 725.686 666.463 729.578 667.04 733.394 667.549 736.055 663.599 738.815 659.366 743.087 662.091 747.455 666.819 750.54 663.816 753.706 659.454 757.342 658.836 761.022 658.534 764.391 665.628 768.375 659.129 772.268 657.814 774.349 667.528 778.983 662.174 782.302 663.778 784.789 667.862 787.695 670.041 792.472 667.261 795.801 668.591 796.891 674.667 803.87 667.5 806.053 673.072 810.042 672.557 813.036 677.725 816.767 678.35 820.967 676.363 823.797 679.509 829.141 678.171" style="fill: none; stroke: #000; stroke-linecap: round; stroke-linejoin: round; stroke-width: 40px;"/>
  </g>
  <g>
    <polygon points="663.832 341.975 664.434 346.179 657.436 346.472 657.796 350.587 657.303 354.357 655.895 357.646 653.561 360.312 651.7 363.338 646.266 363.25 647.322 368.948 640.989 367.432 640.306 371.977 634.857 370.894 634.666 376.521 631.227 377.882 628.821 380.859 626.874 384.884 622.22 383.932 620.716 389.271 617.521 391.283 614.005 392.537 607.67 386.518 605.167 390.043 600.547 387.972 597.965 391.459 594.024 391.264 592.196 396.851 588.124 396.353 586.425 401.948 581.746 400.035 580.314 405.714 577.216 407.36 571.893 404.728 568 405.259 567.092 410.743 563.419 411.619 560.117 413.179 559.618 418.155 554.303 417.492 554.456 422.673 547.787 421.418 550.534 428.204 542.73 426.675 543.479 431.518 541.667 434.506 539.222 437.155 540.74 441.849 540.45 445.46 531.579 445.422 534.932 450.589 535.349 454.427 528.608 456.017 530.808 460.579 530.502 464.287 528.415 467.505 527.291 471.004 527.527 474.806 527.139 478.444 524.754 481.73 526.15 485.649 521.065 488.667 524.544 492.785 524.373 496.433 518.932 499.723 520.118 503.527 525.66 507.406 521.501 510.967 521.383 514.534 525.702 518.023 520.246 521.707 520.355 525.288 521.754 528.794 522.015 532.348 523.146 535.834 522.569 539.451 523.552 542.934 523.942 546.474 529.038 549.526 526.456 553.374 524.984 557.118 523.284 560.891 530.055 563.729 523.47 568.03 523.837 571.561 531.594 574.357 527.699 578.322 531.956 581.538 531.978 585.147 532.959 588.695 525.949 592.672 524.292 596.258 528.796 599.655 533.566 603.195 527.03 606.749 526.452 610.256 526.959 613.801 531.963 617.716 526.227 620.806 526.682 624.405 530.393 628.532 527.149 631.664 527.395 635.359 522.624 637.957 528.036 642.952 527.227 646.53 525.932 649.964 522.294 652.584 522.567 656.52 517.753 658.542 520.685 663.651 520.242 667.477 517.776 670.408 509.281 670.239 511.117 675.193 513.021 680.447 505.423 680.104 505.104 684.11 500.253 685.013 503.228 691.689 498.671 692.661 494.64 693.805 491.877 695.951 491.374 700.477 488.033 702.055 486.889 706.31 487.201 706.725 483.303 707.64 481.295 711.194 477.022 711.312 473.816 713.008 470.474 714.437 468.932 719.46 464.729 719.221 463.161 724.697 458.437 723.105 453.911 721.729 450.652 723.355 446.776 723.429 443.52 725.08 442.519 732.567 438.368 731.922 433.568 729.656 432.385 736.5 427.074 733.073 425.82 739.484 420.147 735.454 416.975 737.318 414.928 741.57 409.851 739.39 409.413 746.676 403.18 742.503 402.882 749.643 398.419 748.864 394.264 749.011 391.022 750.734 390.026 755.319 385.724 755.769 386.038 761.268 384.647 764.638 379.379 764.613 376.221 766.681 374.034 769.559 373.502 773.467 366.737 773.809 369.154 779.209 367.462 782.385 369.863 787.139 363.158 788.531 366.756 793.375 362.847 796.003 361.725 799.451 361.08 803.007 363.604 806.97 363.506 810.481 363.584 813.991 363.798 817.488 360.198 820.98 357.359 824.675 362.835 827.995 364.903 831.313 362.339 835.137 359.778 841.261 356.316 839.882 356.776 833.897 352.356 833.698 350.118 830.898 350.974 824.039 343.501 828.107 342.327 823.749 340.702 819.728 336.778 819.312 331.423 822.096 329.658 817.722 327.492 813.479 322.423 816.991 320.431 811.533 315.765 814.729 313.307 810.064 310.179 807.624 305.983 809.643 303.12 805.995 300.148 802.822 295.396 807.44 291.939 806.371 288.792 804.096 284.824 805.003 280.756 805.963 279.085 799.234 274.676 801.089 272.433 797.032 268.671 796.874 262.687 800.675 263.522 791.768 258.02 793.799 258.475 787.308 252.974 789.89 256.608 786.46 258.87 783.31 258.56 779.589 261.392 776.632 255.148 771.289 258.941 768.589 258.688 764.752 265.489 763.135 258.097 756.905 262.41 754.548 266.85 752.36 267.767 748.894 266.293 744.399 271.404 742.711 273.775 739.912 273.399 735.787 276.004 733.132 279.885 731.253 275.492 724.593 279.429 722.757 281.512 719.827 283.981 717.182 288.181 715.905 284.048 707.986 292.24 710.206 293.421 706.51 296.035 704.108 294.611 697.204 300.317 698.179 304.086 697.2 308.682 697.68 309.343 692.272 311.736 689.177 317.6 692.567 318.842 687.225 321.041 683.549 327.145 688.044 328.992 683.572 331.796 681.071 334.248 677.672 337.044 674.994 340.772 674.576 343.389 671.399 348.08 673.497 353.119 676.559 354.399 669.94 359.983 674.373 361.757 669.056 364.711 666.796 369.085 667.963 371.53 664.537 375.19 663.921 377.876 661.213 383.197 663.72 385.704 660.614 389.592 659.98 393.174 658.675 394.907 654.597 397.438 651.86 396.727 645.266 404.555 648.89 406.133 645.152 408.103 641.963 411.068 639.726 408.678 633.104 411.539 630.96 417.373 630.774 416.709 626.03 419.828 623.781 421.308 620.508 422.446 617.08 420.399 616.009 423.202 613.131 427.476 610.847 423.938 605.086 430.947 603.788 428.184 598.559 433.712 596.768 435.243 593.463 430.827 588.436 438.694 586.868 438.424 583.047 441.885 580.034 439.246 575.817 433.984 571.388 438.823 568.485 440.788 565.084 435.993 561.102 438.209 557.715 443.697 554.344 441.015 550.659 438.508 547.077 444.105 543.397 437.703 539.996 440.262 536.309 435.611 533.017 435.694 529.464 436.321 525.852 440.354 521.902 443.314 517.999 437.517 514.982 440.935 511.013 432.555 508.333 441.066 503.785 436.036 500.834 437.44 497.181 436.645 493.765 438.282 490.1 435.366 486.887 436.12 483.259 434.153 479.86 437.583 476.066 434.816 472.702 437.328 469.045 429.567 465.781 435.954 462.061 430.473 458.558 430.551 454.957 429.995 451.336 428.972 447.667 437.601 444.587 430.528 440.493 437.391 437.562 439.603 434.31 436.47 430.364 438.882 427.178 433.489 422.623 437.647 419.531 438.658 415.87 435.392 411.124 441.548 408.801 440.033 404.406 445.688 402.219 444.579 397.878 445.424 394.382 447.951 391.56 448.176 387.778 446.864 383.123 449.918 380.586 454.637 379.185 456.03 375.918 454.901 370.743 461.537 371.345 463.77 368.751 460.995 361.242 465.394 360.446 469.806 360.041 468.775 352.843 477.258 358.463 479.05 354.939 482.241 353.505 483.461 348.328 486.04 345.339 492.103 349.928 491.825 340.239 496.065 340.936 499.375 339.429 503.961 341.389 505.323 334.625 510.019 337.004 512.431 333.15 516.345 333.419 519.365 331.344 524.632 334.824 528.847 335.375 530.297 329.724 531.95 325.03 535.325 323.965 538.51 322.508 543.273 323.445 546.092 321.168 547.817 317.517 551.849 316.82 553.42 313.217 555.524 310.332 562.253 311.617 562.902 307.287 567.191 306.105 569.849 303.542 570.054 299.371 571.652 296.191 574.296 293.597 571.053 287.997 577.538 287.245 571.489 280.58 573.86 277.765 580.373 276.603 581.52 273.161 579.926 268.721 585.953 267.023 583.333 262.325 586.507 259.515 583.896 255.046 585.935 251.886 585.329 248.107 585.571 244.564 584.275 240.818 592.98 238.348 591.512 234.495 590.859 230.8 591.432 227.186 594.398 223.565 589.102 219.97 589.34 216.383 586.032 212.9 588.631 209.228 586.505 205.66 586.231 202.01 593.845 198.623 587.912 194.748 593.216 191.672 588.418 187.439 586.207 183.265 594.823 181.441 588.86 176.163 592.389 173.381 592.699 169.633 598.998 168.181 597.129 163.581 600.212 161.035 601.815 157.86 603.334 154.638 606.578 154.906 606.934 145.915 610.724 149.266 614.338 152.369 617.769 150.056 621.298 149.453 624.324 154.899 628.563 148.6 631.868 150.522 633.881 156.306 636.703 157.813 642.493 153.175 646.559 153.524 649.617 155.828 649.064 163.412 651.755 165.646 654.081 168.365 658.852 168.071 662.139 169.765 662.862 174.408 668.695 173.319 673.994 172.957 673.335 179.018 673.102 184.573 677.254 185.471 680.789 187.021 681.698 191.437 687.29 190.674 689.136 194.096 690.821 197.819 698.096 194.324 696.829 202.202 697.097 203.294 698.703 204.98 700.009 209.717 695.864 211.554 692.559 213.91 691.417 217.35 692.418 221.706 687.77 223.639 692.168 229.173 687.842 231.342 683.52 233.716 683.355 237.467 688.157 242.358 682.239 244.654 685.674 248.903 686.623 252.549 677.56 255.026 678.993 258.829 678.012 262.374 684.44 266.353 681.738 269.753 681.005 273.272 683.229 276.995 681.914 280.485 678.689 283.74 676.535 287.009 680.235 291.1 675.474 293.879 675.902 297.517 675.522 301.018 674.937 304.491 671.845 307.282 673.351 311.37 676.925 316.243 672.031 318.39 669.697 321.32 670.614 325.448 667.746 328.144 666.909 331.639 666.618 335.381 660.46 336.548 663.832 341.975" style="fill: #fff;"/>
    <polygon points="663.832 341.975 664.434 346.179 657.436 346.472 657.796 350.587 657.303 354.357 655.895 357.646 653.561 360.312 651.7 363.338 646.266 363.25 647.322 368.948 640.989 367.432 640.306 371.977 634.857 370.894 634.666 376.521 631.227 377.882 628.821 380.859 626.874 384.884 622.22 383.932 620.716 389.271 617.521 391.283 614.005 392.537 607.67 386.518 605.167 390.043 600.547 387.972 597.965 391.459 594.024 391.264 592.196 396.851 588.124 396.353 586.425 401.948 581.746 400.035 580.314 405.714 577.216 407.36 571.893 404.728 568 405.259 567.092 410.743 563.419 411.619 560.117 413.179 559.618 418.155 554.303 417.492 554.456 422.673 547.787 421.418 550.534 428.204 542.73 426.675 543.479 431.518 541.667 434.506 539.222 437.155 540.74 441.849 540.45 445.46 531.579 445.422 534.932 450.589 535.349 454.427 528.608 456.017 530.808 460.579 530.502 464.287 528.415 467.505 527.291 471.004 527.527 474.806 527.139 478.444 524.754 481.73 526.15 485.649 521.065 488.667 524.544 492.785 524.373 496.433 518.932 499.723 520.118 503.527 525.66 507.406 521.501 510.967 521.383 514.534 525.702 518.023 520.246 521.707 520.355 525.288 521.754 528.794 522.015 532.348 523.146 535.834 522.569 539.451 523.552 542.934 523.942 546.474 529.038 549.526 526.456 553.374 524.984 557.118 523.284 560.891 530.055 563.729 523.47 568.03 523.837 571.561 531.594 574.357 527.699 578.322 531.956 581.538 531.978 585.147 532.959 588.695 525.949 592.672 524.292 596.258 528.796 599.655 533.566 603.195 527.03 606.749 526.452 610.256 526.959 613.801 531.963 617.716 526.227 620.806 526.682 624.405 530.393 628.532 527.149 631.664 527.395 635.359 522.624 637.957 528.036 642.952 527.227 646.53 525.932 649.964 522.294 652.584 522.567 656.52 517.753 658.542 520.685 663.651 520.242 667.477 517.776 670.408 509.281 670.239 511.117 675.193 513.021 680.447 505.423 680.104 505.104 684.11 500.253 685.013 503.228 691.689 498.671 692.661 494.64 693.805 491.877 695.951 491.374 700.477 488.033 702.055 486.889 706.31 487.201 706.725 483.303 707.64 481.295 711.194 477.022 711.312 473.816 713.008 470.474 714.437 468.932 719.46 464.729 719.221 463.161 724.697 458.437 723.105 453.911 721.729 450.652 723.355 446.776 723.429 443.52 725.08 442.519 732.567 438.368 731.922 433.568 729.656 432.385 736.5 427.074 733.073 425.82 739.484 420.147 735.454 416.975 737.318 414.928 741.57 409.851 739.39 409.413 746.676 403.18 742.503 402.882 749.643 398.419 748.864 394.264 749.011 391.022 750.734 390.026 755.319 385.724 755.769 386.038 761.268 384.647 764.638 379.379 764.613 376.221 766.681 374.034 769.559 373.502 773.467 366.737 773.809 369.154 779.209 367.462 782.385 369.863 787.139 363.158 788.531 366.756 793.375 362.847 796.003 361.725 799.451 361.08 803.007 363.604 806.97 363.506 810.481 363.584 813.991 363.798 817.488 360.198 820.98 357.359 824.675 362.835 827.995 364.903 831.313 362.339 835.137 359.778 841.261 356.316 839.882 356.776 833.897 352.356 833.698 350.118 830.898 350.974 824.039 343.501 828.107 342.327 823.749 340.702 819.728 336.778 819.312 331.423 822.096 329.658 817.722 327.492 813.479 322.423 816.991 320.431 811.533 315.765 814.729 313.307 810.064 310.179 807.624 305.983 809.643 303.12 805.995 300.148 802.822 295.396 807.44 291.939 806.371 288.792 804.096 284.824 805.003 280.756 805.963 279.085 799.234 274.676 801.089 272.433 797.032 268.671 796.874 262.687 800.675 263.522 791.768 258.02 793.799 258.475 787.308 252.974 789.89 256.608 786.46 258.87 783.31 258.56 779.589 261.392 776.632 255.148 771.289 258.941 768.589 258.688 764.752 265.489 763.135 258.097 756.905 262.41 754.548 266.85 752.36 267.767 748.894 266.293 744.399 271.404 742.711 273.775 739.912 273.399 735.787 276.004 733.132 279.885 731.253 275.492 724.593 279.429 722.757 281.512 719.827 283.981 717.182 288.181 715.905 284.048 707.986 292.24 710.206 293.421 706.51 296.035 704.108 294.611 697.204 300.317 698.179 304.086 697.2 308.682 697.68 309.343 692.272 311.736 689.177 317.6 692.567 318.842 687.225 321.041 683.549 327.145 688.044 328.992 683.572 331.796 681.071 334.248 677.672 337.044 674.994 340.772 674.576 343.389 671.399 348.08 673.497 353.119 676.559 354.399 669.94 359.983 674.373 361.757 669.056 364.711 666.796 369.085 667.963 371.53 664.537 375.19 663.921 377.876 661.213 383.197 663.72 385.704 660.614 389.592 659.98 393.174 658.675 394.907 654.597 397.438 651.86 396.727 645.266 404.555 648.89 406.133 645.152 408.103 641.963 411.068 639.726 408.678 633.104 411.539 630.96 417.373 630.774 416.709 626.03 419.828 623.781 421.308 620.508 422.446 617.08 420.399 616.009 423.202 613.131 427.476 610.847 423.938 605.086 430.947 603.788 428.184 598.559 433.712 596.768 435.243 593.463 430.827 588.436 438.694 586.868 438.424 583.047 441.885 580.034 439.246 575.817 433.984 571.388 438.823 568.485 440.788 565.084 435.993 561.102 438.209 557.715 443.697 554.344 441.015 550.659 438.508 547.077 444.105 543.397 437.703 539.996 440.262 536.309 435.611 533.017 435.694 529.464 436.321 525.852 440.354 521.902 443.314 517.999 437.517 514.982 440.935 511.013 432.555 508.333 441.066 503.785 436.036 500.834 437.44 497.181 436.645 493.765 438.282 490.1 435.366 486.887 436.12 483.259 434.153 479.86 437.583 476.066 434.816 472.702 437.328 469.045 429.567 465.781 435.954 462.061 430.473 458.558 430.551 454.957 429.995 451.336 428.972 447.667 437.601 444.587 430.528 440.493 437.391 437.562 439.603 434.31 436.47 430.364 438.882 427.178 433.489 422.623 437.647 419.531 438.658 415.87 435.392 411.124 441.548 408.801 440.033 404.406 445.688 402.219 444.579 397.878 445.424 394.382 447.951 391.56 448.176 387.778 446.864 383.123 449.918 380.586 454.637 379.185 456.03 375.918 454.901 370.743 461.537 371.345 463.77 368.751 460.995 361.242 465.394 360.446 469.806 360.041 468.775 352.843 477.258 358.463 479.05 354.939 482.241 353.505 483.461 348.328 486.04 345.339 492.103 349.928 491.825 340.239 496.065 340.936 499.375 339.429 503.961 341.389 505.323 334.625 510.019 337.004 512.431 333.15 516.345 333.419 519.365 331.344 524.632 334.824 528.847 335.375 530.297 329.724 531.95 325.03 535.325 323.965 538.51 322.508 543.273 323.445 546.092 321.168 547.817 317.517 551.849 316.82 553.42 313.217 555.524 310.332 562.253 311.617 562.902 307.287 567.191 306.105 569.849 303.542 570.054 299.371 571.652 296.191 574.296 293.597 571.053 287.997 577.538 287.245 571.489 280.58 573.86 277.765 580.373 276.603 581.52 273.161 579.926 268.721 585.953 267.023 583.333 262.325 586.507 259.515 583.896 255.046 585.935 251.886 585.329 248.107 585.571 244.564 584.275 240.818 592.98 238.348 591.512 234.495 590.859 230.8 591.432 227.186 594.398 223.565 589.102 219.97 589.34 216.383 586.032 212.9 588.631 209.228 586.505 205.66 586.231 202.01 593.845 198.623 587.912 194.748 593.216 191.672 588.418 187.439 586.207 183.265 594.823 181.441 588.86 176.163 592.389 173.381 592.699 169.633 598.998 168.181 597.129 163.581 600.212 161.035 601.815 157.86 603.334 154.638 606.578 154.906 606.934 145.915 610.724 149.266 614.338 152.369 617.769 150.056 621.298 149.453 624.324 154.899 628.563 148.6 631.868 150.522 633.881 156.306 636.703 157.813 642.493 153.175 646.559 153.524 649.617 155.828 649.064 163.412 651.755 165.646 654.081 168.365 658.852 168.071 662.139 169.765 662.862 174.408 668.695 173.319 673.994 172.957 673.335 179.018 673.102 184.573 677.254 185.471 680.789 187.021 681.698 191.437 687.29 190.674 689.136 194.096 690.821 197.819 698.096 194.324 696.829 202.202 697.097 203.294 698.703 204.98 700.009 209.717 695.864 211.554 692.559 213.91 691.417 217.35 692.418 221.706 687.77 223.639 692.168 229.173 687.842 231.342 683.52 233.716 683.355 237.467 688.157 242.358 682.239 244.654 685.674 248.903 686.623 252.549 677.56 255.026 678.993 258.829 678.012 262.374 684.44 266.353 681.738 269.753 681.005 273.272 683.229 276.995 681.914 280.485 678.689 283.74 676.535 287.009 680.235 291.1 675.474 293.879 675.902 297.517 675.522 301.018 674.937 304.491 671.845 307.282 673.351 311.37 676.925 316.243 672.031 318.39 669.697 321.32 670.614 325.448 667.746 328.144 666.909 331.639 666.618 335.381 660.46 336.548 663.832 341.975" style="fill: none; stroke: #000; stroke-linecap: round; stroke-linejoin: round; stroke-width: 40px;"/>
  </g>
  <g>
    <polygon points="574.561 285.873 575.913 290.415 570.137 291.354 569.578 294.977 564.369 295.769 565.635 300.646 561.835 302.103 563.56 307.822 562.298 311.657 559.528 314.23 554.017 313.854 554.7 320.159 546.57 315.921 547.734 323.488 543.262 323.441 537.895 321.49 537.788 328.496 532.919 326.976 529.085 327.158 525.604 327.982 522.775 330.349 521.031 335.64 516.136 332.912 514.303 338.292 510.44 338.22 505.959 336.434 502.61 337.799 501.081 343.971 497.32 344.159 493.963 345.398 491.009 347.541 486.336 346.009 485.153 351.618 478.866 347.628 479.31 355.396 472.282 351.252 472.773 358.158 467.362 357.143 462.926 357.799 463.458 363.681 464.713 369.606 455.509 366.507 459.374 374.021 458.591 377.625 454.646 379.197 447.109 379.049 452.972 386.182 448.863 388.09 449.498 392.203 442.251 393.167 443.361 397.452 440.193 400.425 444.112 405.637 441.445 408.774 440.329 412.382 433.393 414.654 441.577 420.352 439.604 423.756 435.643 426.644 432.375 429.771 436.562 433.931 437.496 437.569 429.865 440.434 433.738 444.332 437.96 448.096 432.167 451.403 430.571 454.96 429.986 458.561 437.28 462.041 431.02 465.739 430.13 469.37 432.165 472.857 434.183 476.299 436.812 479.658 430.984 483.703 432.834 487.124 431.179 490.807 438.847 493.536 432.041 497.763 436.349 500.806 432.287 504.753 439.15 507.602 433.705 511.801 438.241 514.915 436.375 518.702 437.629 522.17 434.226 526.046 439.585 529.185 439.776 532.764 435.122 536.594 435.252 540.106 438.68 543.536 439.269 547.089 438.932 550.649 439.628 554.229 436.193 557.623 440.249 561.434 439.312 564.952 438.878 568.503 435.397 571.606 440.596 576.061 441.18 579.9 433.573 581.943 434.013 585.667 435.644 589.808 430.812 592.067 433.63 596.738 429.481 599.043 433.677 604.871 428.628 607.073 423.397 608.996 423.218 613.136 420.376 615.997 425.287 618.546 425.854 623.04 419.958 623.856 416.887 626.144 417.421 630.812 411.547 630.979 413.155 636.726 407.621 636.743 408.88 642.725 405.758 644.797 400.885 644.829 400.542 649.942 397.238 651.649 394.398 653.927 392.336 657.442 389.835 660.462 384.639 658.773 381.466 660.463 380.196 666.065 375.253 664.148 370.585 662.474 367.079 663.294 364.3 665.879 359.841 664.324 359.337 672.799 354.837 671.13 352.413 674.788 346.623 669.803 343.681 672.165 341.28 675.852 337.713 676.629 335.729 681.177 330.427 677.95 329.608 684.936 323.141 679.499 322.771 687.103 319.303 688.128 314.339 686.361 312.656 690.858 309.804 693.022 307.321 695.669 305.726 699.384 299.462 697.126 296.775 699.612 292.948 700.91 293.72 706.777 291.727 709.732 290.39 713.19 284.411 712.982 287.103 719.403 280.796 719.316 280.06 723.127 279.126 726.729 274.404 728.141 276.252 733.23 268.041 733.071 272.73 739.383 270.325 742.193 266.483 744.442 265.279 747.861 261.387 750.255 265.424 755.601 264.585 759.084 263.352 762.43 264.911 766.627 255.432 767.571 254.591 771.132 253.404 774.605 260.721 780.111 256.645 782.818 260.031 787.181 254.945 790.963 251.41 787.797 252.355 781.801 244.782 783.99 246.373 777.886 245.216 774.364 237.556 775.519 237.186 771.335 236.143 767.707 232.56 765.662 235.792 759.585 229.975 758.796 224.879 757.53 222.935 754.495 228.129 747.424 221.655 746.994 222.643 742.235 223.141 737.643 215.705 738.148 218.61 731.781 211.621 732.424 214.628 725.437 206.765 727.182 203.486 725.174 203.599 720.614 200.908 718.208 203.804 711.423 195.954 713.17 198.183 706.635 193.997 705.538 189.115 705.4 189.447 699.898 183.596 701.616 181.606 697.8 188.86 695.606 190.42 692.466 190.092 688.824 185.369 683.553 188.463 680.795 196.522 680.418 191.021 673.987 197.144 673.233 199.469 670.665 197.638 665.296 204.55 666.072 204.324 661.564 205.511 657.962 204.509 651.886 210.704 653.235 216.309 654.623 216.569 649.392 220.098 648.424 223.661 647.699 225.699 644.387 229.71 644.476 231.447 640.203 233.274 635.898 238.943 639.563 239.041 631.319 243.987 633.662 245.319 627.756 249.685 628.93 252.282 625.873 255.873 625.263 260.563 627.506 264.445 627.748 267.433 625.679 271.054 625.225 273.662 622.18 276.987 620.965 280.915 621.187 285.276 622.286 284.514 611.864 289.165 613.628 294.487 616.372 293.673 607.274 300.944 613.036 302.832 609.179 305.882 607.302 305.151 600.257 313.297 605.08 314.666 600.99 314.077 595.081 315.228 591.416 321.264 592.346 324.239 590.194 328.508 588.953 331.052 586.251 329.716 580.939 329.332 576.531 334.649 575.595 334.547 571.466 339.689 570.106 338.867 565.704 343.934 564.058 345.433 560.731 338.758 554.171 339.492 550.737 349.825 550.36 342.717 543.998 346.015 541.058 343.852 536.621 348.17 533.785 351.029 530.463 355.437 527.414 353.426 523.293 349.722 519.119 355.623 515.969 351.447 511.929 356.874 508.474 356.29 504.682 350.178 500.92 351.052 497.259 348.404 493.683 357.281 489.617 350.135 486.299 349.643 482.659 354.09 478.607 350.091 475.25 350.591 471.5 354.531 467.385 354.996 462.678 353.764 458.153 347.679 455.53 347.073 452.29 344.553 449.25 345.212 445.861 347.861 441.14 347.774 439.288 349.022 436.586 345.245 432.43 351.083 426.832 342.385 423.519 349.213 419.673 349.081 416.177 344.63 412.721 348.177 409.183 344.939 405.604 347.583 402.148 343.614 398.4 343.73 394.809 343.393 391.169 347.606 388.021 352.228 385.078 352.433 381.62 348.573 377.435 345.892 373.294 354.628 371.503 346.881 366.102 353.665 364.129 351.026 359.739 358.194 358.19 357.578 354.357 358.7 351.054 357.586 346.957 358.53 343.556 360.994 340.816 359.823 336.358 359.527 332.125 367.479 332.585 364.069 326.322 368.213 324.805 370.212 321.882 369.61 316.67 377.226 318.793 379.685 316.471 378.686 310.115 378.313 309.668 381.796 308.042 383.537 304.076 389.428 306.209 390.963 301.753 396.943 305.087 398.237 299.833 402.661 300.796 406.026 299.637 407.274 293.239 410.619 291.77 413.435 288.912 417.618 289.775 423.237 294.685 425.722 290.967 427.997 286.743 431.924 286.969 437.087 290.134 438.099 283.121 441.216 281.365 447.404 285.899 449.825 282.45 450.05 275.45 455.1 276.923 455.661 271.35 462.967 275.281 461.923 268.118 464.845 266.138 466.015 262.342 469.612 260.988 473.206 259.425 477.358 258.094 476.342 252.892 477.32 249.335 482.135 248.13 479.288 242.475 489.689 243.828 490.302 239.971 489.145 235.482 487.14 230.716 491.924 228.841 489.643 224.098 495.289 222.407 492.568 217.649 493.811 214.343 498.61 212.083 496.922 207.888 501.147 205.253 499.043 201.089 502.223 198.046 501.281 194.234 499.317 190.388 504.238 187.284 505.946 183.725 500.085 179.876 500.287 176.352 498.662 172.833 505.966 169.103 498.193 165.751 498.691 162.145 503.379 158.462 502.594 154.915 506.265 151.493 506.006 148.042 500.841 144.036 502.567 140.616 505.562 137.542 500.601 132.781 504.002 128.19 507.875 134.374 510.965 136.539 515.567 133.538 518.348 136.769 522.943 134.334 526.259 135.898 529.031 139.026 531.504 143.026 537.213 137.524 540.415 139.345 542.97 143.279 546.569 143.988 549.817 145.98 554.402 142.616 556.98 147.729 560.896 146.763 563.782 151.104 567.576 150.299 571.352 149.654 574.703 151.566 578.146 153.149 582.827 145.623 585.888 149.922 589.818 145.87 593.015 151.011 596.578 155.064 600.123 148.496 606.327 149.281 601.588 153.742 600.102 157.027 601.176 161.479 594.965 162.662 598.746 168.094 594.533 170.31 589.336 172.428 588.129 175.992 589.001 180.082 594.312 184.908 592.59 188.135 593.941 191.807 589.224 194.902 590.008 198.539 586.475 202.081 593.88 205.633 592.644 209.193 589.092 212.878 594.418 216.32 585.064 220.102 586.468 223.605 590.959 227.236 587.865 230.69 590.898 234.496 593.326 238.438 590.601 241.8 584.991 244.496 588.175 248.735 582.366 251.059 584.348 255.188 580.653 257.809 586.505 263.344 583.134 266.051 584.616 270.424 584.478 274.289 582.551 277.474 577.33 279.223 572.586 281.055 574.561 285.873" style="fill: #fff;"/>
    <polygon points="574.561 285.873 575.913 290.415 570.137 291.354 569.578 294.977 564.369 295.769 565.635 300.646 561.835 302.103 563.56 307.822 562.298 311.657 559.528 314.23 554.017 313.854 554.7 320.159 546.57 315.921 547.734 323.488 543.262 323.441 537.895 321.49 537.788 328.496 532.919 326.976 529.085 327.158 525.604 327.982 522.775 330.349 521.031 335.64 516.136 332.912 514.303 338.292 510.44 338.22 505.959 336.434 502.61 337.799 501.081 343.971 497.32 344.159 493.963 345.398 491.009 347.541 486.336 346.009 485.153 351.618 478.866 347.628 479.31 355.396 472.282 351.252 472.773 358.158 467.362 357.143 462.926 357.799 463.458 363.681 464.713 369.606 455.509 366.507 459.374 374.021 458.591 377.625 454.646 379.197 447.109 379.049 452.972 386.182 448.863 388.09 449.498 392.203 442.251 393.167 443.361 397.452 440.193 400.425 444.112 405.637 441.445 408.774 440.329 412.382 433.393 414.654 441.577 420.352 439.604 423.756 435.643 426.644 432.375 429.771 436.562 433.931 437.496 437.569 429.865 440.434 433.738 444.332 437.96 448.096 432.167 451.403 430.571 454.96 429.986 458.561 437.28 462.041 431.02 465.739 430.13 469.37 432.165 472.857 434.183 476.299 436.812 479.658 430.984 483.703 432.834 487.124 431.179 490.807 438.847 493.536 432.041 497.763 436.349 500.806 432.287 504.753 439.15 507.602 433.705 511.801 438.241 514.915 436.375 518.702 437.629 522.17 434.226 526.046 439.585 529.185 439.776 532.764 435.122 536.594 435.252 540.106 438.68 543.536 439.269 547.089 438.932 550.649 439.628 554.229 436.193 557.623 440.249 561.434 439.312 564.952 438.878 568.503 435.397 571.606 440.596 576.061 441.18 579.9 433.573 581.943 434.013 585.667 435.644 589.808 430.812 592.067 433.63 596.738 429.481 599.043 433.677 604.871 428.628 607.073 423.397 608.996 423.218 613.136 420.376 615.997 425.287 618.546 425.854 623.04 419.958 623.856 416.887 626.144 417.421 630.812 411.547 630.979 413.155 636.726 407.621 636.743 408.88 642.725 405.758 644.797 400.885 644.829 400.542 649.942 397.238 651.649 394.398 653.927 392.336 657.442 389.835 660.462 384.639 658.773 381.466 660.463 380.196 666.065 375.253 664.148 370.585 662.474 367.079 663.294 364.3 665.879 359.841 664.324 359.337 672.799 354.837 671.13 352.413 674.788 346.623 669.803 343.681 672.165 341.28 675.852 337.713 676.629 335.729 681.177 330.427 677.95 329.608 684.936 323.141 679.499 322.771 687.103 319.303 688.128 314.339 686.361 312.656 690.858 309.804 693.022 307.321 695.669 305.726 699.384 299.462 697.126 296.775 699.612 292.948 700.91 293.72 706.777 291.727 709.732 290.39 713.19 284.411 712.982 287.103 719.403 280.796 719.316 280.06 723.127 279.126 726.729 274.404 728.141 276.252 733.23 268.041 733.071 272.73 739.383 270.325 742.193 266.483 744.442 265.279 747.861 261.387 750.255 265.424 755.601 264.585 759.084 263.352 762.43 264.911 766.627 255.432 767.571 254.591 771.132 253.404 774.605 260.721 780.111 256.645 782.818 260.031 787.181 254.945 790.963 251.41 787.797 252.355 781.801 244.782 783.99 246.373 777.886 245.216 774.364 237.556 775.519 237.186 771.335 236.143 767.707 232.56 765.662 235.792 759.585 229.975 758.796 224.879 757.53 222.935 754.495 228.129 747.424 221.655 746.994 222.643 742.235 223.141 737.643 215.705 738.148 218.61 731.781 211.621 732.424 214.628 725.437 206.765 727.182 203.486 725.174 203.599 720.614 200.908 718.208 203.804 711.423 195.954 713.17 198.183 706.635 193.997 705.538 189.115 705.4 189.447 699.898 183.596 701.616 181.606 697.8 188.86 695.606 190.42 692.466 190.092 688.824 185.369 683.553 188.463 680.795 196.522 680.418 191.021 673.987 197.144 673.233 199.469 670.665 197.638 665.296 204.55 666.072 204.324 661.564 205.511 657.962 204.509 651.886 210.704 653.235 216.309 654.623 216.569 649.392 220.098 648.424 223.661 647.699 225.699 644.387 229.71 644.476 231.447 640.203 233.274 635.898 238.943 639.563 239.041 631.319 243.987 633.662 245.319 627.756 249.685 628.93 252.282 625.873 255.873 625.263 260.563 627.506 264.445 627.748 267.433 625.679 271.054 625.225 273.662 622.18 276.987 620.965 280.915 621.187 285.276 622.286 284.514 611.864 289.165 613.628 294.487 616.372 293.673 607.274 300.944 613.036 302.832 609.179 305.882 607.302 305.151 600.257 313.297 605.08 314.666 600.99 314.077 595.081 315.228 591.416 321.264 592.346 324.239 590.194 328.508 588.953 331.052 586.251 329.716 580.939 329.332 576.531 334.649 575.595 334.547 571.466 339.689 570.106 338.867 565.704 343.934 564.058 345.433 560.731 338.758 554.171 339.492 550.737 349.825 550.36 342.717 543.998 346.015 541.058 343.852 536.621 348.17 533.785 351.029 530.463 355.437 527.414 353.426 523.293 349.722 519.119 355.623 515.969 351.447 511.929 356.874 508.474 356.29 504.682 350.178 500.92 351.052 497.259 348.404 493.683 357.281 489.617 350.135 486.299 349.643 482.659 354.09 478.607 350.091 475.25 350.591 471.5 354.531 467.385 354.996 462.678 353.764 458.153 347.679 455.53 347.073 452.29 344.553 449.25 345.212 445.861 347.861 441.14 347.774 439.288 349.022 436.586 345.245 432.43 351.083 426.832 342.385 423.519 349.213 419.673 349.081 416.177 344.63 412.721 348.177 409.183 344.939 405.604 347.583 402.148 343.614 398.4 343.73 394.809 343.393 391.169 347.606 388.021 352.228 385.078 352.433 381.62 348.573 377.435 345.892 373.294 354.628 371.503 346.881 366.102 353.665 364.129 351.026 359.739 358.194 358.19 357.578 354.357 358.7 351.054 357.586 346.957 358.53 343.556 360.994 340.816 359.823 336.358 359.527 332.125 367.479 332.585 364.069 326.322 368.213 324.805 370.212 321.882 369.61 316.67 377.226 318.793 379.685 316.471 378.686 310.115 378.313 309.668 381.796 308.042 383.537 304.076 389.428 306.209 390.963 301.753 396.943 305.087 398.237 299.833 402.661 300.796 406.026 299.637 407.274 293.239 410.619 291.77 413.435 288.912 417.618 289.775 423.237 294.685 425.722 290.967 427.997 286.743 431.924 286.969 437.087 290.134 438.099 283.121 441.216 281.365 447.404 285.899 449.825 282.45 450.05 275.45 455.1 276.923 455.661 271.35 462.967 275.281 461.923 268.118 464.845 266.138 466.015 262.342 469.612 260.988 473.206 259.425 477.358 258.094 476.342 252.892 477.32 249.335 482.135 248.13 479.288 242.475 489.689 243.828 490.302 239.971 489.145 235.482 487.14 230.716 491.924 228.841 489.643 224.098 495.289 222.407 492.568 217.649 493.811 214.343 498.61 212.083 496.922 207.888 501.147 205.253 499.043 201.089 502.223 198.046 501.281 194.234 499.317 190.388 504.238 187.284 505.946 183.725 500.085 179.876 500.287 176.352 498.662 172.833 505.966 169.103 498.193 165.751 498.691 162.145 503.379 158.462 502.594 154.915 506.265 151.493 506.006 148.042 500.841 144.036 502.567 140.616 505.562 137.542 500.601 132.781 504.002 128.19 507.875 134.374 510.965 136.539 515.567 133.538 518.348 136.769 522.943 134.334 526.259 135.898 529.031 139.026 531.504 143.026 537.213 137.524 540.415 139.345 542.97 143.279 546.569 143.988 549.817 145.98 554.402 142.616 556.98 147.729 560.896 146.763 563.782 151.104 567.576 150.299 571.352 149.654 574.703 151.566 578.146 153.149 582.827 145.623 585.888 149.922 589.818 145.87 593.015 151.011 596.578 155.064 600.123 148.496 606.327 149.281 601.588 153.742 600.102 157.027 601.176 161.479 594.965 162.662 598.746 168.094 594.533 170.31 589.336 172.428 588.129 175.992 589.001 180.082 594.312 184.908 592.59 188.135 593.941 191.807 589.224 194.902 590.008 198.539 586.475 202.081 593.88 205.633 592.644 209.193 589.092 212.878 594.418 216.32 585.064 220.102 586.468 223.605 590.959 227.236 587.865 230.69 590.898 234.496 593.326 238.438 590.601 241.8 584.991 244.496 588.175 248.735 582.366 251.059 584.348 255.188 580.653 257.809 586.505 263.344 583.134 266.051 584.616 270.424 584.478 274.289 582.551 277.474 577.33 279.223 572.586 281.055 574.561 285.873" style="fill: none; stroke: #000; stroke-linecap: round; stroke-linejoin: round; stroke-width: 40px;"/>
  </g>
  <g>
    <line x1="609.491" y1="148.37" x2="607.568" y2="152.845" style="fill: #fff;"/>
    <line x1="609.491" y1="148.37" x2="607.568" y2="152.845" style="fill: none; stroke: #000; stroke-linecap: round; stroke-linejoin: round; stroke-width: 40px;"/>
  </g>
  <g>
    <polyline points="640.831 371.34 645.573 372.471 647.362 375.563 649.594 378.37 653.446 380.16 653.284 384.468 655.146 387.504 660.639 388.279 661.433 391.973 662.322 395.609 659.813 401.415 664.845 402.433 664.746 406.753 665.679 410.434 666.831 413.999 671.394 415.212 670.332 420.377 675.386 421.155 676.335 424.935 683.38 423.976 679.084 432.005 682.244 434.113 683.942 437.46 688.362 438.371 689.573 442.192 696.47 440.478 697.753 444.205 701.043 445.874 702.022 450.091 708.164 448.373 707.15 455.141 713.614 452.635 713.08 459.203 714.571 463.327 720.691 460.714 723.549 462.777 723.651 469.413 727.076 470.851 733.394 466.669 734.943 471.449 739.774 469.232 739.948 478.431 743.317 480.274 748.5 475.802 751.775 477.38 755.5 476.787 758.83 478.55 762.344 479.677 766 474.082 769.348 474.632 773.314 480.808 776.607 477.872 779.457 473.777 782.702 472.638 786.79 474.681 790.967 476.295 793.837 473.477 797.335 472.675 800.573 471.131 804.74 471.99 806.175 465.893 810.978 468.277 812.919 463.516 818.957 469.001 819.628 460.894 825.473 466.279 826.125 457.49 832.205 464.387 834.177 458.822 836.707 454.297 842.159 461.682 845.105 458.863 847.968 454.205 851.426 451.913 855.445 457.485 858.919 457.055 862.3 459.318 866.097 455.301 870.347 451.153" style="fill: #fff;"/>
    <polyline points="640.831 371.34 645.573 372.471 647.362 375.563 649.594 378.37 653.446 380.16 653.284 384.468 655.146 387.504 660.639 388.279 661.433 391.973 662.322 395.609 659.813 401.415 664.845 402.433 664.746 406.753 665.679 410.434 666.831 413.999 671.394 415.212 670.332 420.377 675.386 421.155 676.335 424.935 683.38 423.976 679.084 432.005 682.244 434.113 683.942 437.46 688.362 438.371 689.573 442.192 696.47 440.478 697.753 444.205 701.043 445.874 702.022 450.091 708.164 448.373 707.15 455.141 713.614 452.635 713.08 459.203 714.571 463.327 720.691 460.714 723.549 462.777 723.651 469.413 727.076 470.851 733.394 466.669 734.943 471.449 739.774 469.232 739.948 478.431 743.317 480.274 748.5 475.802 751.775 477.38 755.5 476.787 758.83 478.55 762.344 479.677 766 474.082 769.348 474.632 773.314 480.808 776.607 477.872 779.457 473.777 782.702 472.638 786.79 474.681 790.967 476.295 793.837 473.477 797.335 472.675 800.573 471.131 804.74 471.99 806.175 465.893 810.978 468.277 812.919 463.516 818.957 469.001 819.628 460.894 825.473 466.279 826.125 457.49 832.205 464.387 834.177 458.822 836.707 454.297 842.159 461.682 845.105 458.863 847.968 454.205 851.426 451.913 855.445 457.485 858.919 457.055 862.3 459.318 866.097 455.301 870.347 451.153" style="fill: none; stroke: #000; stroke-linecap: round; stroke-linejoin: round; stroke-width: 40px;"/>
  </g>
  <g>
    <polyline points="547.428 422.623 550.469 420.366 551.476 425.717 557.021 423.691 559.347 426.764 560.977 430.657 564.04 432.531 568.677 432.563 567.272 439.666 573.336 438.283 574.963 441.789 578.772 443.096 583.035 444.108 582.421 449.532 587.612 449.861 586.904 455.121 586.171 460.21 589.129 462.388 593.563 463.549 593.85 467.718 595.417 470.948 602.073 470.777 604.412 473.553 599.129 481.227 606.392 480.817 608.415 483.768 605.38 489.872 608.427 492.172 609.374 495.786 613.683 497.309 618.651 498.402 616.866 503.751 621.007 505.343 620.799 509.739 621.45 513.615 622.122 517.518 624.238 520.462 634.17 517.804 633.274 522.822 632.548 527.842 635.026 530.485 642.489 529.054 644.178 532.192 640.865 539.753 646.029 539.964 650.816 540.331 650.499 545.57 653.009 548.122 655.445 550.761 656.307 555.201 659.584 556.976 662.939 558.599 664.572 562.392 667.738 564.256 673.648 562.175 673.281 569.08 676.257 571.231 682.28 568.364 682.618 575.042 687.793 573.218 690.977 574.946 692.93 579.614 698.122 576.525 700.324 581.252 705.705 575.836 707.265 584.377 711.242 583.692 715.176 582.275 718.84 581.943 722.429 582.171 726.119 586.447 729.475 579.824 733.231 581.909 736.386 578.67 739.738 577.538 744.432 582.463 748.554 583.724 751.851 581.689 754.636 578.201 756.491 572.18 760.231 572.136 764.904 574.64 768.375 573.61 769.944 567.265 773.245 565.729 777.741 567.567 783.157 572.298 784.576 565.089 788.026 563.9 793.003 568.179 795.367 563.098 799.77 566.215 803.135 565.128 806.697 565.221 809.432 558.24 813.452 562.299 816.941 559.603 820.632 558.32 824.243 560.132 827.556 563.32 830.907 564.631 834.505 564.403 839.583 558.678 841.154 566.738 845.315 565.407 849.498 564.595 854.029 563.405 853.982 572.358 860.9 566.878" style="fill: #fff;"/>
    <polyline points="547.428 422.623 550.469 420.366 551.476 425.717 557.021 423.691 559.347 426.764 560.977 430.657 564.04 432.531 568.677 432.563 567.272 439.666 573.336 438.283 574.963 441.789 578.772 443.096 583.035 444.108 582.421 449.532 587.612 449.861 586.904 455.121 586.171 460.21 589.129 462.388 593.563 463.549 593.85 467.718 595.417 470.948 602.073 470.777 604.412 473.553 599.129 481.227 606.392 480.817 608.415 483.768 605.38 489.872 608.427 492.172 609.374 495.786 613.683 497.309 618.651 498.402 616.866 503.751 621.007 505.343 620.799 509.739 621.45 513.615 622.122 517.518 624.238 520.462 634.17 517.804 633.274 522.822 632.548 527.842 635.026 530.485 642.489 529.054 644.178 532.192 640.865 539.753 646.029 539.964 650.816 540.331 650.499 545.57 653.009 548.122 655.445 550.761 656.307 555.201 659.584 556.976 662.939 558.599 664.572 562.392 667.738 564.256 673.648 562.175 673.281 569.08 676.257 571.231 682.28 568.364 682.618 575.042 687.793 573.218 690.977 574.946 692.93 579.614 698.122 576.525 700.324 581.252 705.705 575.836 707.265 584.377 711.242 583.692 715.176 582.275 718.84 581.943 722.429 582.171 726.119 586.447 729.475 579.824 733.231 581.909 736.386 578.67 739.738 577.538 744.432 582.463 748.554 583.724 751.851 581.689 754.636 578.201 756.491 572.18 760.231 572.136 764.904 574.64 768.375 573.61 769.944 567.265 773.245 565.729 777.741 567.567 783.157 572.298 784.576 565.089 788.026 563.9 793.003 568.179 795.367 563.098 799.77 566.215 803.135 565.128 806.697 565.221 809.432 558.24 813.452 562.299 816.941 559.603 820.632 558.32 824.243 560.132 827.556 563.32 830.907 564.631 834.505 564.403 839.583 558.678 841.154 566.738 845.315 565.407 849.498 564.595 854.029 563.405 853.982 572.358 860.9 566.878" style="fill: none; stroke: #000; stroke-linecap: round; stroke-linejoin: round; stroke-width: 40px;"/>
  </g>
  <g>
    <line x1="141.931" y1="393.203" x2="145.336" y2="386.52" style="fill: #fff;"/>
    <line x1="141.931" y1="393.203" x2="145.336" y2="386.52" style="fill: none; stroke: #000; stroke-linecap: round; stroke-linejoin: round; stroke-width: 40px;"/>
  </g>
  <g>
    <line x1="351.517" y1="466.874" x2="351.555" y2="462.822" style="fill: #fff;"/>
    <line x1="351.517" y1="466.874" x2="351.555" y2="462.822" style="fill: none; stroke: #000; stroke-linecap: round; stroke-linejoin: round; stroke-width: 40px;"/>
  </g>
  <g>
    <polyline points="358.954 463.438 355.846 461.891 355.308 457.858 353.298 455.288" style="fill: #fff;"/>
    <polyline points="358.954 463.438 355.846 461.891 355.308 457.858 353.298 455.288" style="fill: none; stroke: #000; stroke-linecap: round; stroke-linejoin: round; stroke-width: 40px;"/>
  </g>
  <g>
    <polyline points="396.716 295.557 398.596 291.72 398.994 287.623 401.139 284.485 402.992 281.123 400.361 276.697 401.547 273.282 399.202 269.458 403.574 266.172 400.097 262.52 398.942 259.049 402.991 255.193 399.225 251.964 402.134 247.918 403.624 243.914 405.163 239.77 399.18 237.334 400.918 233.09 395.389 230.85 395.163 227.133 392.423 224.228 392.987 220.189 392.034 216.781 391.982 212.929 387.141 211.394 385.971 208.14 389.977 201.429 382.173 202.479 383.124 197.261 381.774 193.53 379.014 191.017 376.608 188.056 371.957 188.154 370.583 183.435 366.943 182.211 363.713 180.19 360.227 178.671 355.618 181.294 352.265 179.96 348.678 179.755 345.412 175.724 341.511 182.732 337.849 174.295 334.508 179.976 331.291 182.473 327.13 179.015 325.198 185.247" style="fill: #fff;"/>
    <polyline points="396.716 295.557 398.596 291.72 398.994 287.623 401.139 284.485 402.992 281.123 400.361 276.697 401.547 273.282 399.202 269.458 403.574 266.172 400.097 262.52 398.942 259.049 402.991 255.193 399.225 251.964 402.134 247.918 403.624 243.914 405.163 239.77 399.18 237.334 400.918 233.09 395.389 230.85 395.163 227.133 392.423 224.228 392.987 220.189 392.034 216.781 391.982 212.929 387.141 211.394 385.971 208.14 389.977 201.429 382.173 202.479 383.124 197.261 381.774 193.53 379.014 191.017 376.608 188.056 371.957 188.154 370.583 183.435 366.943 182.211 363.713 180.19 360.227 178.671 355.618 181.294 352.265 179.96 348.678 179.755 345.412 175.724 341.511 182.732 337.849 174.295 334.508 179.976 331.291 182.473 327.13 179.015 325.198 185.247" style="fill: none; stroke: #000; stroke-linecap: round; stroke-linejoin: round; stroke-width: 40px;"/>
  </g>
  <g>
    <polyline points="612.829 846.254 616.008 843.595 615.381 839.744 621.237 837.281 615.831 832.618 617.247 829.248 620.451 825.981 615.153 821.994 622.864 818.75 621.871 815.035 618.737 811.473 621.26 807.693 621.607 803.953 623.794 799.878 614.226 797.819 613.665 794.399 616.918 789.924 620.144 785.096 617.757 781.906 609.325 781.291 613.668 775.509 606.798 774.851 612.423 767.708 610.2 764.607 605.282 763.358 605.654 758.546 597.189 760.495 599.97 753.5 595.763 752.345 594.882 748.081 588.993 748.985 588.614 743.992 585.24 742.337 579.528 743.878 580.995 735.745 578.46 732.851 575.667 730.268 570.968 730.874 564.852 734.38 561.493 733.221 558.715 730.915 556.142 728.055 554.186 723.595 552.276 718.646 547.781 719.97 543.234 721.768 538.808 723.584 537.106 717.348 534.9 712.137 528.877 719.673 527.261 712.026 524.161 709.341 519.795 711.703 516.254 710.821 512.689 710.051 508.481 712.53 505.046 711.292 502.551 704.555 497.361 713.503 495.303 703.204 490.811 708.671 487.531 705.789" style="fill: #fff;"/>
    <polyline points="612.829 846.254 616.008 843.595 615.381 839.744 621.237 837.281 615.831 832.618 617.247 829.248 620.451 825.981 615.153 821.994 622.864 818.75 621.871 815.035 618.737 811.473 621.26 807.693 621.607 803.953 623.794 799.878 614.226 797.819 613.665 794.399 616.918 789.924 620.144 785.096 617.757 781.906 609.325 781.291 613.668 775.509 606.798 774.851 612.423 767.708 610.2 764.607 605.282 763.358 605.654 758.546 597.189 760.495 599.97 753.5 595.763 752.345 594.882 748.081 588.993 748.985 588.614 743.992 585.24 742.337 579.528 743.878 580.995 735.745 578.46 732.851 575.667 730.268 570.968 730.874 564.852 734.38 561.493 733.221 558.715 730.915 556.142 728.055 554.186 723.595 552.276 718.646 547.781 719.97 543.234 721.768 538.808 723.584 537.106 717.348 534.9 712.137 528.877 719.673 527.261 712.026 524.161 709.341 519.795 711.703 516.254 710.821 512.689 710.051 508.481 712.53 505.046 711.292 502.551 704.555 497.361 713.503 495.303 703.204 490.811 708.671 487.531 705.789" style="fill: none; stroke: #000; stroke-linecap: round; stroke-linejoin: round; stroke-width: 40px;"/>
  </g>
  <g>
    <polyline points="755.713 472.876 754.443 473.672 755.331 469.271 756.266 465.074 755.774 461.501 756.153 457.676 754.458 454.529 745.506 453.352 750.127 448.378 746.752 445.506 749.014 441.324 748.535 437.795 744.153 434.946 743.104 431.435 749.516 426.933 749.241 423.451 747.118 420.134 740.117 417.038 746.762 413.099 745.677 409.595 744.105 406.036 740.613 402.317 744.308 398.876 744.659 395.311 747.02 391.999 748.639 388.692 747.313 384.898 743.808 380.48 744.073 376.736 746.842 373.689 744.978 369.196 751.163 367.531 751.487 363.783 753.768 360.866 757.918 359.01 758.679 355.445 761.01 352.775 757.206 345.86 766.586 348.282 767.29 344.446 768.278 340.652 770.631 337.99 773.18 335.513 772.174 328.927 778.412 330.681 778.87 325.323 781.474 322.569 788.686 326.938 792.397 326.4 794.017 322.234 795.529 317.45 800.868 320.263 802.251 314.732 806.542 315.694 810.764 316.839 811.249 307.649" style="fill: #fff;"/>
    <polyline points="755.713 472.876 754.443 473.672 755.331 469.271 756.266 465.074 755.774 461.501 756.153 457.676 754.458 454.529 745.506 453.352 750.127 448.378 746.752 445.506 749.014 441.324 748.535 437.795 744.153 434.946 743.104 431.435 749.516 426.933 749.241 423.451 747.118 420.134 740.117 417.038 746.762 413.099 745.677 409.595 744.105 406.036 740.613 402.317 744.308 398.876 744.659 395.311 747.02 391.999 748.639 388.692 747.313 384.898 743.808 380.48 744.073 376.736 746.842 373.689 744.978 369.196 751.163 367.531 751.487 363.783 753.768 360.866 757.918 359.01 758.679 355.445 761.01 352.775 757.206 345.86 766.586 348.282 767.29 344.446 768.278 340.652 770.631 337.99 773.18 335.513 772.174 328.927 778.412 330.681 778.87 325.323 781.474 322.569 788.686 326.938 792.397 326.4 794.017 322.234 795.529 317.45 800.868 320.263 802.251 314.732 806.542 315.694 810.764 316.839 811.249 307.649" style="fill: none; stroke: #000; stroke-linecap: round; stroke-linejoin: round; stroke-width: 40px;"/>
  </g>
  <g>
    <polyline points="399.521 760.615 403.365 759.051 407.825 753.707 411.126 756.296 414.623 757.494 417.637 761.222 421.251 761.542 425.508 758.872 429.016 759.933 432.906 759.372 435.555 763.84 440.44 759.655 441.868 768.064 444.805 770.693 450.287 765.279 454.199 765.164 457.116 767.935 461.364 767.094 462.666 773.701 468.653 768.931 469.643 775.719 474.48 774.041 475.283 780.518 478.068 782.852 484.285 779.244 485.15 784.869 487.435 787.911 494.02 784.73 493.232 791.978 499.518 789.811 500.832 793.976 504.675 795.18 502.552 802.564 509.942 800.38 514.321 801.488 509.355 810.328 517.996 808.222 513.562 815.752 518.993 816.431 523.199 818.2 522.449 822.748 528.911 823.751 527.297 828.536 530.014 831.47 527.068 836.32 530.921 838.968 528.953 843.198 527.103 847.177 530.81 850.13 531.119 853.706 528.734 857.48 534.813 860.733 536.564 864.419 529.402 867.958" style="fill: #fff;"/>
    <polyline points="399.521 760.615 403.365 759.051 407.825 753.707 411.126 756.296 414.623 757.494 417.637 761.222 421.251 761.542 425.508 758.872 429.016 759.933 432.906 759.372 435.555 763.84 440.44 759.655 441.868 768.064 444.805 770.693 450.287 765.279 454.199 765.164 457.116 767.935 461.364 767.094 462.666 773.701 468.653 768.931 469.643 775.719 474.48 774.041 475.283 780.518 478.068 782.852 484.285 779.244 485.15 784.869 487.435 787.911 494.02 784.73 493.232 791.978 499.518 789.811 500.832 793.976 504.675 795.18 502.552 802.564 509.942 800.38 514.321 801.488 509.355 810.328 517.996 808.222 513.562 815.752 518.993 816.431 523.199 818.2 522.449 822.748 528.911 823.751 527.297 828.536 530.014 831.47 527.068 836.32 530.921 838.968 528.953 843.198 527.103 847.177 530.81 850.13 531.119 853.706 528.734 857.48 534.813 860.733 536.564 864.419 529.402 867.958" style="fill: none; stroke: #000; stroke-linecap: round; stroke-linejoin: round; stroke-width: 40px;"/>
  </g>
  <g>
    <polyline points="736.007 780.507 741.417 774.989 742.001 770.799 733.139 770.407 732.147 766.988 737.028 760.713 730.617 759.806 734.331 753.726 731.583 751.004 730.816 747.16 728.468 744.241 719.272 745.781 724.771 737.799 721.81 735.344 713.267 736.976 713.143 732.622 714.469 727.042 710.461 725.547 710.035 721.188 704.272 721.264 700.913 719.412 703.13 712.605 697.805 712.523 698.266 707.102 696.278 703.915 687.546 707.424 687.26 702.606 685.048 699.689 680.6 699.157 677.133 697.639 678.272 690.965 676.033 687.984 673.975 684.763 671.165 682.406 665.345 683.778" style="fill: #fff;"/>
    <polyline points="736.007 780.507 741.417 774.989 742.001 770.799 733.139 770.407 732.147 766.988 737.028 760.713 730.617 759.806 734.331 753.726 731.583 751.004 730.816 747.16 728.468 744.241 719.272 745.781 724.771 737.799 721.81 735.344 713.267 736.976 713.143 732.622 714.469 727.042 710.461 725.547 710.035 721.188 704.272 721.264 700.913 719.412 703.13 712.605 697.805 712.523 698.266 707.102 696.278 703.915 687.546 707.424 687.26 702.606 685.048 699.689 680.6 699.157 677.133 697.639 678.272 690.965 676.033 687.984 673.975 684.763 671.165 682.406 665.345 683.778" style="fill: none; stroke: #000; stroke-linecap: round; stroke-linejoin: round; stroke-width: 40px;"/>
  </g>
</svg>