<?xml version="1.0" encoding="UTF-8"?>
<svg id="Sticker" xmlns="http://www.w3.org/2000/svg" width="1000" height="1000" viewBox="0 0 1000 1000">
  <polygon points="485.752 879.207 482.076 880.833 479.103 873.306 475.697 871.911 471.352 877.915 468.15 874.711 464.641 873.91 460.46 877.013 457.496 873.062 453.269 875.871 449.911 874.169 445.886 875.537 443.743 868.797 439.248 872.028 435.938 870.366 432.344 869.799 429.759 865.702 424.92 869.337 422.579 864.649 419.315 863.061 414.271 866.729 413.714 857.369 407.646 863.588 406.533 856.286 401.811 858.531 399.608 854.377 395.349 855.266 390.622 857.072 387.644 854.804 385.239 851.356 380.45 852.966 378.889 847.898 375.061 847.453 374.115 841.492 367.916 845.407 366.465 840.55 364.528 836.712 360.133 837.108 357.666 834.239 353.064 834.801 350.414 832.224 348.216 829.006 345.178 827.072 340.234 827.823 339.542 822.582 335.986 821.333 331.724 820.951 327.856 819.971 329.375 812.304 323.469 813.8 322.516 809.333 318.935 807.952 315.501 806.355 313.905 802.744 308.969 802.677 307.038 799.432 305.877 795.462 302.857 793.352 303.507 787.784 299.54 786.576 296.088 784.833 296.708 779.531 292.062 778.783 288.151 777.329 287.175 773.471 288.414 767.957 281.486 768.727 277.983 766.795 279.758 761.054 274.05 760.642 272.461 757.317 275.475 751 272.256 748.829 268.042 747.228 262.888 746.11 266.812 739.578 263.638 737.267 261.573 734.297 261.616 730.188 255.267 729.455 255.851 725.081 251.494 723.194 251.415 719.193 253.251 714.35 254.176 710.01 253.501 706.426 245.477 705.947 244.207 702.552 249.602 696.563 243.038 695.255 246.573 690.158 245.844 686.673 236.494 686.036 242.771 680.249 233.23 679.403 235.773 674.878 234.973 671.356 231.83 668.428 237.502 663.345 236.585 659.919 228.248 658.017 228.262 654.29 233.717 649.629 229.543 646.695 227.812 643.298 229.92 639.366 229.158 635.84 231.797 631.967 226.742 628.829 230.936 624.913 228.674 621.476 225.81 617.999 226.99 614.347 224.203 610.766 226 607.132 226.733 603.528 232.55 600.126 228.345 596.385 229.999 592.897 228.127 589.17 230.694 585.796 233.53 582.516 226.783 578.135 226.819 574.475 230.039 571.281 236.061 568.619 233.206 564.533 234.383 561.12 228.805 556.342 236.396 554.26 233.467 549.933 238.048 547.337 231.565 542.001 240.034 540.499 233.408 534.938 237.105 532.221 238.345 528.819 237.043 524.614 244.266 523.164 246.883 520.285 244.434 515.65 246.638 512.628 244.303 507.922 251.225 506.716 253.28 503.698 248.966 498.097 251.098 495.075 257.955 494.091 253.846 488.409 261.231 487.769 262.463 484.426 263.461 480.967 259.317 475.05 260.355 471.544 267.915 471.249 262.221 464.397 266.239 462.38 268.439 459.46 267.263 454.774 276.88 455.8 276.501 451.54 274.468 446.347 279.019 444.747 278.374 440.276 279.502 436.78 283.78 435.075 284.388 431.283 287.201 428.761 286.796 424.365 291.366 422.883 292.121 419.16 293.588 415.855 294.712 412.343 295.089 408.378 299.961 407.116 303.638 405.14 301.104 399.415 308.027 399.4 303.54 392.496 311.428 393.056 312.83 389.703 310.483 384.11 313.258 381.586 316.276 379.2 321.951 378.353 316.824 371.229 320.426 369.168 326.738 368.591 326.126 364.122 325.675 359.793 329.09 357.542 331.474 354.717 327.902 348.953 337.212 349.415 333.959 343.956 333.798 340.023 337.915 337.842 342.274 335.561 336.141 329.605 345.447 328.946 338.496 322.817 341.699 320.076 347.793 318.25 344.695 313.455 344.377 309.562 351.514 308.039 346.021 302.501 345.212 298.448 349.668 296.072 354.225 293.74 352.723 289.457 356.566 286.913 358.228 283.666 354.142 278.49 360.191 276.725 362.687 273.78 357.84 268.256 357.512 264.28 359.525 261.141 359.685 257.315 369.384 257.14 363.32 250.903 372.32 250.614 372.883 246.983 366.478 240.361 369.347 237.623 374.597 235.997 372.858 231.212 374.498 227.958 374.019 223.65 380.795 223.003 385.511 221.44 386.799 218.102 387.03 214.143 389.407 211.398 390.722 208.025 388.2 202.153 395.723 202.788 392.985 196.548 392.963 192.003 397.619 190.891 398.783 187.147 402.021 185.058 407.013 184.591 410.736 183.177 412.333 179.811 413.36 175.765 414.973 172.183 415.405 167.095 423.258 170.803 426.472 169.21 425.235 161.481 431.864 164.706 435.496 163.897 437.516 160.477 439.754 157.197 444.696 159.084 444.384 150.106 448.096 149.333 452.368 150.157 456.821 151.955 458.936 146.905 461.949 144.118 466.806 148.377 469.241 142.832 474.012 148.422 476.873 144.007 480.697 145.457 483.699 139.67 487.523 141.179 491.29 143.448 494.759 138.385 498.471 144.376 502.18 138.092 505.582 145.196 509.126 145.604 513.179 139.939 516.447 143.893 519.856 145.609 522.988 148.954 527.287 144.269 530.629 146.079 534.929 142.887 538.61 143.233 541.119 148.412 543.678 152.652 546.966 153.872 552.249 148.858 554.982 152.073 559.165 151.151 562.378 152.926 566.506 152.555 569.294 155.287 573.044 155.953 574.038 161.882 579.545 159.401 578.551 168.104 585.338 163.993 588.993 165.132 588.675 171.82 590.829 174.806 596.194 173.777 599.105 175.937 603.584 176.402 605.409 179.827 605.933 184.442 605.804 189.464 611.386 189.172 610.412 194.709 616.05 194.656 615.106 199.917 620.319 200.449 625.524 201.2 627.387 204.376 623.31 211.33 624.084 214.985 630.835 215.094 634.262 217.312 636.272 220.367 636.015 224.602 634.835 229.216 637.237 232.014 643.092 233.257 638.435 239.306 640.156 242.433 642.16 245.457 646.13 247.712 642.784 252.874 649.565 254.116 645.888 259.306 654.059 260.176 651.563 264.884 649.397 269.419 656.361 270.863 653.538 275.585 653.045 279.515 660.1 281.024 659.635 284.952 664.492 287.192 662.054 291.737 657.348 297.005 665.336 298.232 665.954 301.8 666.182 305.505 662.59 310.531 665.573 313.333 665.966 317.054 674.416 317.66 672.768 322.129 668.636 327.892 672.309 330.239 672.093 334.36 673.664 337.637 678.127 339.492 676.77 344.172 684.77 344.26 686.662 347.341 687.752 350.82 686.599 355.406 689.761 357.865 686.23 363.615 694.81 363.422 690.084 369.742 699.237 369.297 694.157 375.766 702.683 375.661 704.256 378.917 699.771 385.055 705.992 386.099 701.724 392.097 707.064 393.577 709.171 396.58 711.797 399.349 709.39 404.422 709.258 408.437 709.556 412.248 718.774 412.079 711.852 419.092 713.25 422.401 716.428 424.937 722.503 426.244 724.504 429.322 724.518 433.241 723.889 437.417 723.248 441.575 731.015 442.288 733.188 445.315 732.549 449.471 734.789 452.474 729.101 458.572 733.656 460.667 735.392 463.864 735.471 467.685 742.552 468.909 736.085 475.126 742.354 476.693 739.356 481.589 741.721 484.574 744.922 487.285 743.89 491.446 743.096 495.503 748.895 497.392 749.592 500.967 751.64 504.113 754.352 507.067 754.733 510.744 751.003 515.626 749.661 519.759 758.027 521.122 759.892 524.374 757.119 528.884 752.953 533.71 754.471 537.016 763.812 538.39 759.739 543.115 757.168 547.418 762.484 549.888 761.913 553.712 759.215 557.963 768.23 559.785 767.266 563.682 761.747 568.402 764.564 571.535 770.428 574.188 765.542 578.661 764.863 582.398 766.874 585.729 766.988 589.34 764.702 593.242 772.851 595.897 768.659 599.994 769.269 603.546 770.403 607.059 773.982 610.409 770.384 614.281 770.381 617.883 773.855 621.34 770.273 625.078 776.874 628.554 776.024 632.226 775.705 635.881 770.94 639.441 773.081 643.109 771.222 646.65 768.43 650.09 771.837 653.916 773.242 657.67 775.224 661.534 773.343 665.013 766.544 667.788 772.481 672.274 772.626 676.007 764.211 678.197 769.161 682.801 765.049 685.625 763.433 688.919 763.046 692.496 764.93 696.715 767.352 701.205 759.285 702.529 761.448 707.003 757.587 709.461 762.571 715.165 759.919 718.076 752.712 718.984 758.958 725.682 751.824 726.393 748.616 728.79 753.789 735.53 746.527 735.732 747.371 740.36 741.775 741.195 744.451 747.125 738.943 747.828 742.272 754.539 734.785 753.627 734.959 758.263 732.428 760.885 732.128 765.364 723.912 763.051 722.528 766.55 724.407 773.236 720.258 774.287 714.305 773.51 715.951 780.226 713.358 782.768 706.41 780.804 706.314 785.895 703.399 788.06 704.069 794.121 696.779 791.481 697.245 797.418 696.908 802.561 692.816 803.409 687.841 803.148 684.434 804.693 681.819 807.193 678.177 808.402 679.163 815.54 673.877 814.623 671.141 817.004 666.653 816.991 662.949 817.985 664.672 826.699 661.384 828.375 654.483 824.63 652.115 827.556 648.915 829.224 645.139 829.955 641.895 831.502 641.479 837.796 639.328 841.318 635.457 841.883 631.52 842.263 628.652 844.563 625.984 847.283 621.407 846.288 616.682 844.838 615.522 850.674 611.857 851.363 607.865 851.269 604.485 852.48 600.877 853.136 599.382 858.947 596.399 861.284 592.135 860.301 588.61 861.181 584.086 859.168 583.27 867.96 577.117 860.78 573.936 862.536 571.112 865.578 567.711 866.752 564.667 869.298 561.457 871.367 557.087 868.639 553.672 869.773 551.46 876.787 546.318 869.459 543.77 875.468 540.11 875.603 535.843 871.522 532.407 872.688 529.547 878.948 525.877 878.985 522.458 881.912 518.738 881.707 514.883 878.586 511.131 875.255 507.637 879.814 503.996 874.12 500.358 878.732 496.865 875.403 493.239 876.367 489.245 880.429 485.752 879.207" style="fill: #fff;"/>
  <polygon points="485.752 879.207 482.076 880.833 479.103 873.306 475.697 871.911 471.352 877.915 468.15 874.711 464.641 873.91 460.46 877.013 457.496 873.062 453.269 875.871 449.911 874.169 445.886 875.537 443.743 868.797 439.248 872.028 435.938 870.366 432.344 869.799 429.759 865.702 424.92 869.337 422.579 864.649 419.315 863.061 414.271 866.729 413.714 857.369 407.646 863.588 406.533 856.286 401.811 858.531 399.608 854.377 395.349 855.266 390.622 857.072 387.644 854.804 385.239 851.356 380.45 852.966 378.889 847.898 375.061 847.453 374.115 841.492 367.916 845.407 366.465 840.55 364.528 836.712 360.133 837.108 357.666 834.239 353.064 834.801 350.414 832.224 348.216 829.006 345.178 827.072 340.234 827.823 339.542 822.582 335.986 821.333 331.724 820.951 327.856 819.971 329.375 812.304 323.469 813.8 322.516 809.333 318.935 807.952 315.501 806.355 313.905 802.744 308.969 802.677 307.038 799.432 305.877 795.462 302.857 793.352 303.507 787.784 299.54 786.576 296.088 784.833 296.708 779.531 292.062 778.783 288.151 777.329 287.175 773.471 288.414 767.957 281.486 768.727 277.983 766.795 279.758 761.054 274.05 760.642 272.461 757.317 275.475 751 272.256 748.829 268.042 747.228 262.888 746.11 266.812 739.578 263.638 737.267 261.573 734.297 261.616 730.188 255.267 729.455 255.851 725.081 251.494 723.194 251.415 719.193 253.251 714.35 254.176 710.01 253.501 706.426 245.477 705.947 244.207 702.552 249.602 696.563 243.038 695.255 246.573 690.158 245.844 686.673 236.494 686.036 242.771 680.249 233.23 679.403 235.773 674.878 234.973 671.356 231.83 668.428 237.502 663.345 236.585 659.919 228.248 658.017 228.262 654.29 233.717 649.629 229.543 646.695 227.812 643.298 229.92 639.366 229.158 635.84 231.797 631.967 226.742 628.829 230.936 624.913 228.674 621.476 225.81 617.999 226.99 614.347 224.203 610.766 226 607.132 226.733 603.528 232.55 600.126 228.345 596.385 229.999 592.897 228.127 589.17 230.694 585.796 233.53 582.516 226.783 578.135 226.819 574.475 230.039 571.281 236.061 568.619 233.206 564.533 234.383 561.12 228.805 556.342 236.396 554.26 233.467 549.933 238.048 547.337 231.565 542.001 240.034 540.499 233.408 534.938 237.105 532.221 238.345 528.819 237.043 524.614 244.266 523.164 246.883 520.285 244.434 515.65 246.638 512.628 244.303 507.922 251.225 506.716 253.28 503.698 248.966 498.097 251.098 495.075 257.955 494.091 253.846 488.409 261.231 487.769 262.463 484.426 263.461 480.967 259.317 475.05 260.355 471.544 267.915 471.249 262.221 464.397 266.239 462.38 268.439 459.46 267.263 454.774 276.88 455.8 276.501 451.54 274.468 446.347 279.019 444.747 278.374 440.276 279.502 436.78 283.78 435.075 284.388 431.283 287.201 428.761 286.796 424.365 291.366 422.883 292.121 419.16 293.588 415.855 294.712 412.343 295.089 408.378 299.961 407.116 303.638 405.14 301.104 399.415 308.027 399.4 303.54 392.496 311.428 393.056 312.83 389.703 310.483 384.11 313.258 381.586 316.276 379.2 321.951 378.353 316.824 371.229 320.426 369.168 326.738 368.591 326.126 364.122 325.675 359.793 329.09 357.542 331.474 354.717 327.902 348.953 337.212 349.415 333.959 343.956 333.798 340.023 337.915 337.842 342.274 335.561 336.141 329.605 345.447 328.946 338.496 322.817 341.699 320.076 347.793 318.25 344.695 313.455 344.377 309.562 351.514 308.039 346.021 302.501 345.212 298.448 349.668 296.072 354.225 293.74 352.723 289.457 356.566 286.913 358.228 283.666 354.142 278.49 360.191 276.725 362.687 273.78 357.84 268.256 357.512 264.28 359.525 261.141 359.685 257.315 369.384 257.14 363.32 250.903 372.32 250.614 372.883 246.983 366.478 240.361 369.347 237.623 374.597 235.997 372.858 231.212 374.498 227.958 374.019 223.65 380.795 223.003 385.511 221.44 386.799 218.102 387.03 214.143 389.407 211.398 390.722 208.025 388.2 202.153 395.723 202.788 392.985 196.548 392.963 192.003 397.619 190.891 398.783 187.147 402.021 185.058 407.013 184.591 410.736 183.177 412.333 179.811 413.36 175.765 414.973 172.183 415.405 167.095 423.258 170.803 426.472 169.21 425.235 161.481 431.864 164.706 435.496 163.897 437.516 160.477 439.754 157.197 444.696 159.084 444.384 150.106 448.096 149.333 452.368 150.157 456.821 151.955 458.936 146.905 461.949 144.118 466.806 148.377 469.241 142.832 474.012 148.422 476.873 144.007 480.697 145.457 483.699 139.67 487.523 141.179 491.29 143.448 494.759 138.385 498.471 144.376 502.18 138.092 505.582 145.196 509.126 145.604 513.179 139.939 516.447 143.893 519.856 145.609 522.988 148.954 527.287 144.269 530.629 146.079 534.929 142.887 538.61 143.233 541.119 148.412 543.678 152.652 546.966 153.872 552.249 148.858 554.982 152.073 559.165 151.151 562.378 152.926 566.506 152.555 569.294 155.287 573.044 155.953 574.038 161.882 579.545 159.401 578.551 168.104 585.338 163.993 588.993 165.132 588.675 171.82 590.829 174.806 596.194 173.777 599.105 175.937 603.584 176.402 605.409 179.827 605.933 184.442 605.804 189.464 611.386 189.172 610.412 194.709 616.05 194.656 615.106 199.917 620.319 200.449 625.524 201.2 627.387 204.376 623.31 211.33 624.084 214.985 630.835 215.094 634.262 217.312 636.272 220.367 636.015 224.602 634.835 229.216 637.237 232.014 643.092 233.257 638.435 239.306 640.156 242.433 642.16 245.457 646.13 247.712 642.784 252.874 649.565 254.116 645.888 259.306 654.059 260.176 651.563 264.884 649.397 269.419 656.361 270.863 653.538 275.585 653.045 279.515 660.1 281.024 659.635 284.952 664.492 287.192 662.054 291.737 657.348 297.005 665.336 298.232 665.954 301.8 666.182 305.505 662.59 310.531 665.573 313.333 665.966 317.054 674.416 317.66 672.768 322.129 668.636 327.892 672.309 330.239 672.093 334.36 673.664 337.637 678.127 339.492 676.77 344.172 684.77 344.26 686.662 347.341 687.752 350.82 686.599 355.406 689.761 357.865 686.23 363.615 694.81 363.422 690.084 369.742 699.237 369.297 694.157 375.766 702.683 375.661 704.256 378.917 699.771 385.055 705.992 386.099 701.724 392.097 707.064 393.577 709.171 396.58 711.797 399.349 709.39 404.422 709.258 408.437 709.556 412.248 718.774 412.079 711.852 419.092 713.25 422.401 716.428 424.937 722.503 426.244 724.504 429.322 724.518 433.241 723.889 437.417 723.248 441.575 731.015 442.288 733.188 445.315 732.549 449.471 734.789 452.474 729.101 458.572 733.656 460.667 735.392 463.864 735.471 467.685 742.552 468.909 736.085 475.126 742.354 476.693 739.356 481.589 741.721 484.574 744.922 487.285 743.89 491.446 743.096 495.503 748.895 497.392 749.592 500.967 751.64 504.113 754.352 507.067 754.733 510.744 751.003 515.626 749.661 519.759 758.027 521.122 759.892 524.374 757.119 528.884 752.953 533.71 754.471 537.016 763.812 538.39 759.739 543.115 757.168 547.418 762.484 549.888 761.913 553.712 759.215 557.963 768.23 559.785 767.266 563.682 761.747 568.402 764.564 571.535 770.428 574.188 765.542 578.661 764.863 582.398 766.874 585.729 766.988 589.34 764.702 593.242 772.851 595.897 768.659 599.994 769.269 603.546 770.403 607.059 773.982 610.409 770.384 614.281 770.381 617.883 773.855 621.34 770.273 625.078 776.874 628.554 776.024 632.226 775.705 635.881 770.94 639.441 773.081 643.109 771.222 646.65 768.43 650.09 771.837 653.916 773.242 657.67 775.224 661.534 773.343 665.013 766.544 667.788 772.481 672.274 772.626 676.007 764.211 678.197 769.161 682.801 765.049 685.625 763.433 688.919 763.046 692.496 764.93 696.715 767.352 701.205 759.285 702.529 761.448 707.003 757.587 709.461 762.571 715.165 759.919 718.076 752.712 718.984 758.958 725.682 751.824 726.393 748.616 728.79 753.789 735.53 746.527 735.732 747.371 740.36 741.775 741.195 744.451 747.125 738.943 747.828 742.272 754.539 734.785 753.627 734.959 758.263 732.428 760.885 732.128 765.364 723.912 763.051 722.528 766.55 724.407 773.236 720.258 774.287 714.305 773.51 715.951 780.226 713.358 782.768 706.41 780.804 706.314 785.895 703.399 788.06 704.069 794.121 696.779 791.481 697.245 797.418 696.908 802.561 692.816 803.409 687.841 803.148 684.434 804.693 681.819 807.193 678.177 808.402 679.163 815.54 673.877 814.623 671.141 817.004 666.653 816.991 662.949 817.985 664.672 826.699 661.384 828.375 654.483 824.63 652.115 827.556 648.915 829.224 645.139 829.955 641.895 831.502 641.479 837.796 639.328 841.318 635.457 841.883 631.52 842.263 628.652 844.563 625.984 847.283 621.407 846.288 616.682 844.838 615.522 850.674 611.857 851.363 607.865 851.269 604.485 852.48 600.877 853.136 599.382 858.947 596.399 861.284 592.135 860.301 588.61 861.181 584.086 859.168 583.27 867.96 577.117 860.78 573.936 862.536 571.112 865.578 567.711 866.752 564.667 869.298 561.457 871.367 557.087 868.639 553.672 869.773 551.46 876.787 546.318 869.459 543.77 875.468 540.11 875.603 535.843 871.522 532.407 872.688 529.547 878.948 525.877 878.985 522.458 881.912 518.738 881.707 514.883 878.586 511.131 875.255 507.637 879.814 503.996 874.12 500.358 878.732 496.865 875.403 493.239 876.367 489.245 880.429 485.752 879.207" style="fill: none; stroke: #000; stroke-linecap: round; stroke-linejoin: round; stroke-width: 40px;"/>
</svg>