<?xml version="1.0" encoding="UTF-8"?>
<svg id="Sticker" xmlns="http://www.w3.org/2000/svg" width="1000" height="1000" viewBox="0 0 1000 1000">
  <polygon points="103.583 389.217 107.512 389.039 111.27 389.245 115.551 391.395 117.247 383.659 120.691 382.741 125.88 387.786 127.454 380.451 132.899 385.868 136.698 385.779 139.474 382.589 141.779 378.196 144.895 376.261 149.05 377.13 150.55 371.046 156.996 377.534 158.288 371.168 161.295 369.098 164.741 368.049 170.736 372.434 172.462 367.576 173.039 360.672 180.099 366.554 181.643 361.728 185.485 361.192 188.475 359.114 189.44 353.773 192.319 351.694 197.152 352.519 198.709 348.473 202.97 348.239 205.37 345.45 205.488 339.978 210.129 339.994 210.787 335.498 219.568 339.395 219.977 334.64 219.354 329.262 226.905 330.836 224.527 324.396 223.935 319.748 227.497 317.957 231.507 316.191 231.992 312.441 231.83 308.461 234.87 305.947 236.34 302.707 241.487 300.999 236.063 294.891 239.595 292.488 242.751 289.909 242.755 286.06 247.181 283.98 248.658 280.73 245.959 275.781 248.767 273.057 254.37 271.527 254.218 267.597 251.927 262.695 252.761 259.119 255.113 256.231 254.241 251.805 260.528 250.881 261.008 247.105 259.17 242.022 264.123 240.616 267.259 238.288 265.11 232.76 269.351 231.137 274.256 230.104 273.214 225.016 276.547 222.989 275.744 217.778 283.686 219.604 280.146 211.831 283.751 210.127 286.463 207.656 290.153 206.215 295.799 207.055 297.992 204.258 300.247 201.474 299.548 194.747 304.34 195.098 310.403 197.641 311.279 192.605 314.323 190.79 318.276 190.594 321.227 188.696 323.584 185.552 327.328 185.192 330.948 184.699 332.144 178.314 335.901 178.003 339.807 178.262 342.83 176.026 345.568 172.666 350.043 175.156 352.902 171.957 356.338 170.787 359.32 167.476 363.68 170.621 366.509 166.102 370.52 167.995 374.085 167.427 377.34 164.503 381.075 165.072 384.677 164.634 388.439 165.994 392.006 165.352 395.554 164.256 399.111 162.952 402.938 168.262 406.568 170.77 410.081 168.889 413.621 163.745 417.198 169.432 420.763 169.089 424.474 164.373 428.08 165.066 431.766 164.02 435.023 170.047 438.517 171.13 442.065 171.372 446.089 167.14 449.858 166.126 452.679 172.409 456.257 172.509 459.718 173.372 463.681 171.481 467.942 168.571 471.932 167.488 473.955 174.816 478.477 171.663 481.11 175.742 486.029 171.95 489.363 173.629 491.181 179.489 493.268 184.02 496.475 185.384 502.819 179.603 505.416 182.708 509.53 182.606 510.254 189.032 513.4 190.652 515.449 194.077 521.933 190.512 525.304 192.091 526.242 197.017 529.655 198.477 530.323 203.293 535.13 203.19 535.897 207.614 537.072 211.4 542.812 210.817 543.182 215.27 547.123 216.607 549.792 219.087 550.335 223.135 556.412 223.329 552.178 230.357 556.277 231.977 560.463 233.726 558.068 239.055 559.037 242.483 565.393 243.444 566.116 247.08 563.785 251.881 564.623 255.322 571.839 256.565 571.623 260.468 574.338 263.441 573.232 267.534 571.046 271.814 573.5 274.886 577.046 277.782 571.577 282.577 574.497 285.63 579.116 288.467 579.508 292.076 580.412 295.605 579.274 299.409 581.378 302.785 575.315 307.094 583.799 309.812 581.886 313.636 582.362 317.211 582.129 320.846 578.214 324.778 577.557 328.438 579.842 331.71 585.465 335.367 579.574 338.638 584.644 342.809 579.99 345.781 580.978 349.612 577.005 352.36 578.058 356.281 576.278 359.471 573.99 362.46 579.519 368.103 578.254 371.534 569.883 372.23 567.277 374.997 568.62 379.364 565.479 381.897 567.742 386.749 567.332 390.485 561.515 391.799 567.465 398.426 559.255 398.612 556.048 401.07 562.546 408.002 556.051 408.952 554.128 412.013 555.24 416.445 551.325 418.62 555.247 424.225 549.204 425.523 551.538 430.335 547.334 432.494 544.531 435.279 545.343 439.361 546.692 443.49 537.702 444.661 545.201 450.224 537.478 452.333 537.44 456.141 542.532 460.12 537.835 463.748 536.59 467.846 537.62 471.817 541.103 474.746 541.403 479.197 543.171 483.198 547.764 484.252 551.628 485.38 556.17 484.523 558.136 489.106 562.608 486.494 565.75 488.498 569.339 486.135 572.98 492.105 576.802 492.213 580.799 493.021 584.563 492.337 587.167 487.707 589.78 484.081 592.44 481.071 597.857 485.321 600.554 482.366 604.998 483.551 608.03 481.45 611.859 481.093 611.849 472.771 617.629 476.443 618.436 470.031 622.365 469.887 626.708 470.527 629.787 468.677 633.476 468.028 634.37 461.886 641.153 467.362 641.681 460.445 645.293 459.659 647.819 456.654 649.952 452.765 655.897 456.97 656.987 450.74 659.872 448.314 662.972 446.322 668.737 450.758 671.593 448.288 674.436 445.683 676.559 440.934 681.017 442.655 684.393 441.337 689.632 446.239 692.513 443.536 695.149 439.545 697.964 435.681 702.963 441.861 705.195 434.329 709.721 439.727 712.482 433.215 716.237 433.734 719.8 431.92 723.582 433.928 727.236 434.058 730.878 434.33 734.336 437.333 737.693 439.503 741.742 435.227 745.338 435.59 748.859 436.501 752.551 436.241 755.387 441.139 758.967 441.354 762.847 440.097 766.747 438.977 770.349 439.417 774.022 439.576 777.858 439.13 779.558 447.181 784.148 443.756 787.342 445.725 791.125 445.561 795.08 444.896 797.933 447.939 799.631 454.511 804.426 451.248 808.857 449.316 810.791 454.811 814.627 454.693 818.349 454.956 821.066 457.976 826.475 453.808 828.855 457.699 832.643 457.921 835.85 459.624 836.575 467.338 842.461 462.515 843.086 470.222 846.357 471.629 851.168 469.565 853.491 473.143 858.323 471.19 860.713 474.577 865.393 473.083 865.599 480.951 872.818 474.322 873.864 480.319 875.367 485.279 882.625 478.976 884.696 482.81 888.338 483.64 888.331 491.205 890.669 494.312 898.411 487.85 898.194 493.611 897.79 497.174 895.668 500.66 902.369 504.604 902.605 508.245 899.761 511.679 896.901 515.081 894.425 518.485 896.231 522.225 902.155 526.349 901.4 529.914 898.226 533.239 892.26 536.251 899.087 540.583 890.456 543.253 890.409 546.847 890.601 550.473 891.375 554.178 894.951 558.26 895.819 562.014 894.682 565.5 891.809 568.729 887.914 571.783 887.342 575.317 886.971 578.882 892.598 583.432 893.65 587.271 885.064 589.451 892.324 594.386 888.338 597.333 889.406 601.201 884.096 603.847 887.158 608.117 883.855 611.121 883.833 614.788 880.468 617.74 880.927 621.511 881.328 625.283 878.156 628.234 882.292 632.907 878.717 635.747 875.555 638.658 875.999 642.47 878.925 646.955 873.811 649.312 870.74 652.181 875.639 657.287 872.246 660.059 874.465 664.473 869.104 666.615 871.988 671.278 863.956 672.496 868.393 677.707 864.893 680.331 861.099 682.815 863.813 687.557 865.21 691.889 861.608 694.411 863.624 699.029 862.999 702.68 853.925 702.967 858.881 708.851 857.21 712.079 855.176 715.145 851.837 717.623 847.034 719.395 851.52 725.408 848.31 727.893 847.451 731.489 848.425 736.025 844.384 738.043 837.809 738.653 839.085 743.399 840.727 748.438 835.979 749.907 834.02 752.931 828.629 753.862 830.33 759.111 828.348 762.116 823.907 763.485 822.295 766.693 819.442 769.041 818.626 772.834 818.123 776.919 813.486 777.877 815.876 784.342 813.275 786.918 807.129 786.443 810.195 793.916 800.867 790.338 804.11 798.284 797.394 796.782 793.939 798.316 791.535 800.898 790.045 804.505 791.231 811.312 784.103 808.465 785.031 815.316 781.329 816.488 775.731 814.949 774.543 819.425 772.78 823.212 770.185 825.852 767.746 828.775 764.33 830.183 757.442 825.788 758.416 834.472 753.653 833.45 748.591 831.707 745.29 833.055 743.094 836.528 742.213 842.748 735.807 837.861 735.954 846.513 732.12 846.876 727.685 845.804 724.713 847.987 721.133 848.755 716.798 847.601 713.378 848.638 712.393 856.129 709.131 857.783 704.586 855.827 699.886 853.203 697.903 858.55 693.517 856.664 691.825 863.297 686.363 857.683 684.331 863.499 680.605 863.575 676.799 863.289 673.062 863.18 669.685 864.44 666.754 867.581 663.414 869.138 658.61 864.186 655.692 867.568 653.279 873.619 649.134 871.355 645.676 872.457 641.41 869.152 638.051 870.702 634.522 871.321 631.267 873.668 627.72 874.261 624.446 876.752 620.44 874.094 616.876 874.503 613.879 879.533 610.076 878.14 606.765 881.046 603.077 880.586 598.803 873.879 595.692 879.198 592.171 880.344 588.107 874.519 584.771 877.99 581.221 878.741 577.585 878.111 574.136 880.914 570.415 878.433 566.93 881.123 563.239 878.573 559.715 880.919 555.997 875.501 552.442 876.397 548.86 875.389 545.32 881.59 541.72 881.139 538.143 878.481 534.509 882.244 530.898 882.549 527.432 876.787 523.895 875.51 520.326 875.532 516.726 876.069 513.122 876.56 509.278 881.329 505.941 876.864 501.99 882.248 498.823 876.071 494.735 882.289 491.455 878.285 488.073 875.94 484.875 872.22 480.607 878.306 477.379 877.917 473.686 877.308 469.979 875.438 466.338 874.295 462.925 881.731 459.104 871.982 455.556 875.058 451.978 881.934 448.352 875.668 444.72 878.257 441.172 873.622 437.613 872.06 433.859 877.688 430.098 881.411 426.668 876.223 423.184 873.456 419.175 880.719 415.546 880.295 412.019 878.44 408.567 875.859 405.164 873.078 401.64 872.024 397.884 873.484 393.863 877.275 390.885 871.079 386.906 874.096 382.852 877.312 380.257 869.118 376.925 867.008 372.714 871.005 369.58 867.65 365.912 867.826 361.922 869.784 358.9 866.174 355.299 865.876 351.231 867.89 346.701 871.878 344.173 866.282 339.838 869.017 337.151 864.532 334.599 859.803 330.852 860 326.85 861.058 323.342 860.201 319.812 859.411 317.12 855.864 312.899 857.315 310.024 854.511 304.775 858.721 302.778 853.45 297.906 856.189 296.06 850.828 290.5 854.968 287.592 852.376 284.458 850.384 280.807 849.565 277.697 847.548 276.022 842.654 274.289 838.13 267.917 842.5 266.041 838.329 262.369 837.435 257.877 837.818 256.193 833.574 255.568 827.909 249.132 830.984 245.598 829.595 244.035 825.519 244.373 819.191 241.41 817.23 239.092 814.497 230.606 818.615 234.124 809.502 229.821 808.842 225.85 807.69 220.35 807.777 217.659 805.171 222.42 796.489 216.206 796.857 217.054 791.758 210.981 791.638 209.97 787.933 210.829 783.171 204.997 782.41 205.074 778.216 199.831 776.783 199.909 772.648 198.844 769.11 199.433 764.947 197.292 761.892 200.599 756.973 194.05 755.331 192.826 751.915 188.644 749.296 187.813 745.697 187.532 741.97 191.775 737.318 191.767 733.679 192.362 729.97 189.677 726.782 190.028 723.134 186.827 719.862 187.065 716.207 190.849 712.408 186.699 708.985 191.248 705.38 189.517 701.831 186.983 698.148 184.626 694.337 183.147 690.482 189.948 687.618 188.753 683.825 188.999 680.205 186.199 675.918 187.522 672.425 188.106 668.761 194.024 666.639 191.395 662.053 191.172 658.101 193.175 654.903 199.837 653.599 203.337 651.231 204.719 648.018 198.963 641.411 206.655 641.156 207.368 637.543 205.03 632.215 211.861 631.924 209.319 626.309 208.816 621.753 217.563 622.971 212.073 615.143 215.174 612.815 222.878 613.716 223.641 609.891 222.808 604.862 225.273 602.186 225.794 598.054 230.822 597.337 231.571 593.36 231.823 588.962 240.31 591.091 236.262 583.243 239.673 581.354 245 581.038 248.598 579.33 247.184 573.535 247.833 569.424 252.562 568.634 254.285 565.404 255.351 561.658 263.802 563.757 264.248 559.501 265.887 556.196 267.638 552.987 272.634 552.147 273.922 548.568 269.781 541.329 270.866 537.826 279.176 538.878 281.574 536.036 277.53 529.587 281.753 527.823 279.727 522.909 287.756 522.6 283.944 517.196 292.42 516.308 292.757 512.42 293.006 508.571 295.177 505.07 285.824 500.281 294.744 497.272 290.519 493.596 293.334 489.423 285.398 488.02 289.142 482.653 283.347 482.37 284.798 476.391 279.699 476.91 280.347 469.099 275.678 469.594 271.968 468.794 268.731 466.846 264.069 469.966 261.91 463.611 256.778 470.715 254.157 465.25 250.909 462.487 246.45 469.175 242.963 468.783 240.128 460.877 236.621 459.286 232.994 459.187 229.092 463.883 225.532 463.417 222.072 460.83 218.502 460.319 214.995 458.337 211.124 465.118 207.523 465.506 203.982 464.386 200.647 458.775 196.843 463.37 193.554 457.672 189.973 457.885 186.107 462.337 182.615 460.836 178.987 461.212 175.623 458.655 172.17 457.439 167.911 463.062 164.269 462.839 160.694 462.089 158.15 455.476 153.845 459.054 151.227 454.168 147.409 454.936 143.65 455.152 140.008 454.732 135.834 455.583 134.713 448.651 131.876 446.618 128.618 445.53 124.993 444.928 123.259 441.444 117.385 443.261 118.879 436.542 114.084 436.433 106.883 437.294 110.888 430.289 109.703 427.098 108.751 423.864 102.671 422.166 107.874 417.213 104.807 414.325 105.746 410.744 102.62 407.424 103.661 403.862 105.107 400.406 102.782 396.671 107.708 393.711 103.583 389.217" style="fill: #fff;"/>
  <polygon points="103.583 389.217 107.512 389.039 111.27 389.245 115.551 391.395 117.247 383.659 120.691 382.741 125.88 387.786 127.454 380.451 132.899 385.868 136.698 385.779 139.474 382.589 141.779 378.196 144.895 376.261 149.05 377.13 150.55 371.046 156.996 377.534 158.288 371.168 161.295 369.098 164.741 368.049 170.736 372.434 172.462 367.576 173.039 360.672 180.099 366.554 181.643 361.728 185.485 361.192 188.475 359.114 189.44 353.773 192.319 351.694 197.152 352.519 198.709 348.473 202.97 348.239 205.37 345.45 205.488 339.978 210.129 339.994 210.787 335.498 219.568 339.395 219.977 334.64 219.354 329.262 226.905 330.836 224.527 324.396 223.935 319.748 227.497 317.957 231.507 316.191 231.992 312.441 231.83 308.461 234.87 305.947 236.34 302.707 241.487 300.999 236.063 294.891 239.595 292.488 242.751 289.909 242.755 286.06 247.181 283.98 248.658 280.73 245.959 275.781 248.767 273.057 254.37 271.527 254.218 267.597 251.927 262.695 252.761 259.119 255.113 256.231 254.241 251.805 260.528 250.881 261.008 247.105 259.17 242.022 264.123 240.616 267.259 238.288 265.11 232.76 269.351 231.137 274.256 230.104 273.214 225.016 276.547 222.989 275.744 217.778 283.686 219.604 280.146 211.831 283.751 210.127 286.463 207.656 290.153 206.215 295.799 207.055 297.992 204.258 300.247 201.474 299.548 194.747 304.34 195.098 310.403 197.641 311.279 192.605 314.323 190.79 318.276 190.594 321.227 188.696 323.584 185.552 327.328 185.192 330.948 184.699 332.144 178.314 335.901 178.003 339.807 178.262 342.83 176.026 345.568 172.666 350.043 175.156 352.902 171.957 356.338 170.787 359.32 167.476 363.68 170.621 366.509 166.102 370.52 167.995 374.085 167.427 377.34 164.503 381.075 165.072 384.677 164.634 388.439 165.994 392.006 165.352 395.554 164.256 399.111 162.952 402.938 168.262 406.568 170.77 410.081 168.889 413.621 163.745 417.198 169.432 420.763 169.089 424.474 164.373 428.08 165.066 431.766 164.02 435.023 170.047 438.517 171.13 442.065 171.372 446.089 167.14 449.858 166.126 452.679 172.409 456.257 172.509 459.718 173.372 463.681 171.481 467.942 168.571 471.932 167.488 473.955 174.816 478.477 171.663 481.11 175.742 486.029 171.95 489.363 173.629 491.181 179.489 493.268 184.02 496.475 185.384 502.819 179.603 505.416 182.708 509.53 182.606 510.254 189.032 513.4 190.652 515.449 194.077 521.933 190.512 525.304 192.091 526.242 197.017 529.655 198.477 530.323 203.293 535.13 203.19 535.897 207.614 537.072 211.4 542.812 210.817 543.182 215.27 547.123 216.607 549.792 219.087 550.335 223.135 556.412 223.329 552.178 230.357 556.277 231.977 560.463 233.726 558.068 239.055 559.037 242.483 565.393 243.444 566.116 247.08 563.785 251.881 564.623 255.322 571.839 256.565 571.623 260.468 574.338 263.441 573.232 267.534 571.046 271.814 573.5 274.886 577.046 277.782 571.577 282.577 574.497 285.63 579.116 288.467 579.508 292.076 580.412 295.605 579.274 299.409 581.378 302.785 575.315 307.094 583.799 309.812 581.886 313.636 582.362 317.211 582.129 320.846 578.214 324.778 577.557 328.438 579.842 331.71 585.465 335.367 579.574 338.638 584.644 342.809 579.99 345.781 580.978 349.612 577.005 352.36 578.058 356.281 576.278 359.471 573.99 362.46 579.519 368.103 578.254 371.534 569.883 372.23 567.277 374.997 568.62 379.364 565.479 381.897 567.742 386.749 567.332 390.485 561.515 391.799 567.465 398.426 559.255 398.612 556.048 401.07 562.546 408.002 556.051 408.952 554.128 412.013 555.24 416.445 551.325 418.62 555.247 424.225 549.204 425.523 551.538 430.335 547.334 432.494 544.531 435.279 545.343 439.361 546.692 443.49 537.702 444.661 545.201 450.224 537.478 452.333 537.44 456.141 542.532 460.12 537.835 463.748 536.59 467.846 537.62 471.817 541.103 474.746 541.403 479.197 543.171 483.198 547.764 484.252 551.628 485.38 556.17 484.523 558.136 489.106 562.608 486.494 565.75 488.498 569.339 486.135 572.98 492.105 576.802 492.213 580.799 493.021 584.563 492.337 587.167 487.707 589.78 484.081 592.44 481.071 597.857 485.321 600.554 482.366 604.998 483.551 608.03 481.45 611.859 481.093 611.849 472.771 617.629 476.443 618.436 470.031 622.365 469.887 626.708 470.527 629.787 468.677 633.476 468.028 634.37 461.886 641.153 467.362 641.681 460.445 645.293 459.659 647.819 456.654 649.952 452.765 655.897 456.97 656.987 450.74 659.872 448.314 662.972 446.322 668.737 450.758 671.593 448.288 674.436 445.683 676.559 440.934 681.017 442.655 684.393 441.337 689.632 446.239 692.513 443.536 695.149 439.545 697.964 435.681 702.963 441.861 705.195 434.329 709.721 439.727 712.482 433.215 716.237 433.734 719.8 431.92 723.582 433.928 727.236 434.058 730.878 434.33 734.336 437.333 737.693 439.503 741.742 435.227 745.338 435.59 748.859 436.501 752.551 436.241 755.387 441.139 758.967 441.354 762.847 440.097 766.747 438.977 770.349 439.417 774.022 439.576 777.858 439.13 779.558 447.181 784.148 443.756 787.342 445.725 791.125 445.561 795.08 444.896 797.933 447.939 799.631 454.511 804.426 451.248 808.857 449.316 810.791 454.811 814.627 454.693 818.349 454.956 821.066 457.976 826.475 453.808 828.855 457.699 832.643 457.921 835.85 459.624 836.575 467.338 842.461 462.515 843.086 470.222 846.357 471.629 851.168 469.565 853.491 473.143 858.323 471.19 860.713 474.577 865.393 473.083 865.599 480.951 872.818 474.322 873.864 480.319 875.367 485.279 882.625 478.976 884.696 482.81 888.338 483.64 888.331 491.205 890.669 494.312 898.411 487.85 898.194 493.611 897.79 497.174 895.668 500.66 902.369 504.604 902.605 508.245 899.761 511.679 896.901 515.081 894.425 518.485 896.231 522.225 902.155 526.349 901.4 529.914 898.226 533.239 892.26 536.251 899.087 540.583 890.456 543.253 890.409 546.847 890.601 550.473 891.375 554.178 894.951 558.26 895.819 562.014 894.682 565.5 891.809 568.729 887.914 571.783 887.342 575.317 886.971 578.882 892.598 583.432 893.65 587.271 885.064 589.451 892.324 594.386 888.338 597.333 889.406 601.201 884.096 603.847 887.158 608.117 883.855 611.121 883.833 614.788 880.468 617.74 880.927 621.511 881.328 625.283 878.156 628.234 882.292 632.907 878.717 635.747 875.555 638.658 875.999 642.47 878.925 646.955 873.811 649.312 870.74 652.181 875.639 657.287 872.246 660.059 874.465 664.473 869.104 666.615 871.988 671.278 863.956 672.496 868.393 677.707 864.893 680.331 861.099 682.815 863.813 687.557 865.21 691.889 861.608 694.411 863.624 699.029 862.999 702.68 853.925 702.967 858.881 708.851 857.21 712.079 855.176 715.145 851.837 717.623 847.034 719.395 851.52 725.408 848.31 727.893 847.451 731.489 848.425 736.025 844.384 738.043 837.809 738.653 839.085 743.399 840.727 748.438 835.979 749.907 834.02 752.931 828.629 753.862 830.33 759.111 828.348 762.116 823.907 763.485 822.295 766.693 819.442 769.041 818.626 772.834 818.123 776.919 813.486 777.877 815.876 784.342 813.275 786.918 807.129 786.443 810.195 793.916 800.867 790.338 804.11 798.284 797.394 796.782 793.939 798.316 791.535 800.898 790.045 804.505 791.231 811.312 784.103 808.465 785.031 815.316 781.329 816.488 775.731 814.949 774.543 819.425 772.78 823.212 770.185 825.852 767.746 828.775 764.33 830.183 757.442 825.788 758.416 834.472 753.653 833.45 748.591 831.707 745.29 833.055 743.094 836.528 742.213 842.748 735.807 837.861 735.954 846.513 732.12 846.876 727.685 845.804 724.713 847.987 721.133 848.755 716.798 847.601 713.378 848.638 712.393 856.129 709.131 857.783 704.586 855.827 699.886 853.203 697.903 858.55 693.517 856.664 691.825 863.297 686.363 857.683 684.331 863.499 680.605 863.575 676.799 863.289 673.062 863.18 669.685 864.44 666.754 867.581 663.414 869.138 658.61 864.186 655.692 867.568 653.279 873.619 649.134 871.355 645.676 872.457 641.41 869.152 638.051 870.702 634.522 871.321 631.267 873.668 627.72 874.261 624.446 876.752 620.44 874.094 616.876 874.503 613.879 879.533 610.076 878.14 606.765 881.046 603.077 880.586 598.803 873.879 595.692 879.198 592.171 880.344 588.107 874.519 584.771 877.99 581.221 878.741 577.585 878.111 574.136 880.914 570.415 878.433 566.93 881.123 563.239 878.573 559.715 880.919 555.997 875.501 552.442 876.397 548.86 875.389 545.32 881.59 541.72 881.139 538.143 878.481 534.509 882.244 530.898 882.549 527.432 876.787 523.895 875.51 520.326 875.532 516.726 876.069 513.122 876.56 509.278 881.329 505.941 876.864 501.99 882.248 498.823 876.071 494.735 882.289 491.455 878.285 488.073 875.94 484.875 872.22 480.607 878.306 477.379 877.917 473.686 877.308 469.979 875.438 466.338 874.295 462.925 881.731 459.104 871.982 455.556 875.058 451.978 881.934 448.352 875.668 444.72 878.257 441.172 873.622 437.613 872.06 433.859 877.688 430.098 881.411 426.668 876.223 423.184 873.456 419.175 880.719 415.546 880.295 412.019 878.44 408.567 875.859 405.164 873.078 401.64 872.024 397.884 873.484 393.863 877.275 390.885 871.079 386.906 874.096 382.852 877.312 380.257 869.118 376.925 867.008 372.714 871.005 369.58 867.65 365.912 867.826 361.922 869.784 358.9 866.174 355.299 865.876 351.231 867.89 346.701 871.878 344.173 866.282 339.838 869.017 337.151 864.532 334.599 859.803 330.852 860 326.85 861.058 323.342 860.201 319.812 859.411 317.12 855.864 312.899 857.315 310.024 854.511 304.775 858.721 302.778 853.45 297.906 856.189 296.06 850.828 290.5 854.968 287.592 852.376 284.458 850.384 280.807 849.565 277.697 847.548 276.022 842.654 274.289 838.13 267.917 842.5 266.041 838.329 262.369 837.435 257.877 837.818 256.193 833.574 255.568 827.909 249.132 830.984 245.598 829.595 244.035 825.519 244.373 819.191 241.41 817.23 239.092 814.497 230.606 818.615 234.124 809.502 229.821 808.842 225.85 807.69 220.35 807.777 217.659 805.171 222.42 796.489 216.206 796.857 217.054 791.758 210.981 791.638 209.97 787.933 210.829 783.171 204.997 782.41 205.074 778.216 199.831 776.783 199.909 772.648 198.844 769.11 199.433 764.947 197.292 761.892 200.599 756.973 194.05 755.331 192.826 751.915 188.644 749.296 187.813 745.697 187.532 741.97 191.775 737.318 191.767 733.679 192.362 729.97 189.677 726.782 190.028 723.134 186.827 719.862 187.065 716.207 190.849 712.408 186.699 708.985 191.248 705.38 189.517 701.831 186.983 698.148 184.626 694.337 183.147 690.482 189.948 687.618 188.753 683.825 188.999 680.205 186.199 675.918 187.522 672.425 188.106 668.761 194.024 666.639 191.395 662.053 191.172 658.101 193.175 654.903 199.837 653.599 203.337 651.231 204.719 648.018 198.963 641.411 206.655 641.156 207.368 637.543 205.03 632.215 211.861 631.924 209.319 626.309 208.816 621.753 217.563 622.971 212.073 615.143 215.174 612.815 222.878 613.716 223.641 609.891 222.808 604.862 225.273 602.186 225.794 598.054 230.822 597.337 231.571 593.36 231.823 588.962 240.31 591.091 236.262 583.243 239.673 581.354 245 581.038 248.598 579.33 247.184 573.535 247.833 569.424 252.562 568.634 254.285 565.404 255.351 561.658 263.802 563.757 264.248 559.501 265.887 556.196 267.638 552.987 272.634 552.147 273.922 548.568 269.781 541.329 270.866 537.826 279.176 538.878 281.574 536.036 277.53 529.587 281.753 527.823 279.727 522.909 287.756 522.6 283.944 517.196 292.42 516.308 292.757 512.42 293.006 508.571 295.177 505.07 285.824 500.281 294.744 497.272 290.519 493.596 293.334 489.423 285.398 488.02 289.142 482.653 283.347 482.37 284.798 476.391 279.699 476.91 280.347 469.099 275.678 469.594 271.968 468.794 268.731 466.846 264.069 469.966 261.91 463.611 256.778 470.715 254.157 465.25 250.909 462.487 246.45 469.175 242.963 468.783 240.128 460.877 236.621 459.286 232.994 459.187 229.092 463.883 225.532 463.417 222.072 460.83 218.502 460.319 214.995 458.337 211.124 465.118 207.523 465.506 203.982 464.386 200.647 458.775 196.843 463.37 193.554 457.672 189.973 457.885 186.107 462.337 182.615 460.836 178.987 461.212 175.623 458.655 172.17 457.439 167.911 463.062 164.269 462.839 160.694 462.089 158.15 455.476 153.845 459.054 151.227 454.168 147.409 454.936 143.65 455.152 140.008 454.732 135.834 455.583 134.713 448.651 131.876 446.618 128.618 445.53 124.993 444.928 123.259 441.444 117.385 443.261 118.879 436.542 114.084 436.433 106.883 437.294 110.888 430.289 109.703 427.098 108.751 423.864 102.671 422.166 107.874 417.213 104.807 414.325 105.746 410.744 102.62 407.424 103.661 403.862 105.107 400.406 102.782 396.671 107.708 393.711 103.583 389.217" style="fill: none; stroke: #000; stroke-linecap: round; stroke-linejoin: round; stroke-width: 40px;"/>
</svg>