<?xml version="1.0" encoding="UTF-8"?>
<svg id="Sticker" xmlns="http://www.w3.org/2000/svg" width="1000" height="1000" viewBox="0 0 1000 1000">
  <polygon points="93.259 832.78 96.173 825.4 99.776 824.791 103.379 826.659 106.982 830.154 110.585 829.237 114.188 829.61 117.791 831.877 121.395 824.123 124.998 824.391 128.602 833.105 132.206 826.989 135.81 829.733 139.414 829.285 143.019 825.11 146.624 830.941 150.228 829.053 153.832 826.49 157.436 831.321 161.04 830.451 164.643 826.691 168.242 824.155 171.841 824.195 175.44 831.466 179.04 828.886 182.64 825.531 186.241 827.353 189.842 831.691 193.444 829.69 197.047 831.299 200.65 824.405 204.255 826.378 207.86 832.685 211.465 824.37 215.068 828.159 218.672 824.566 222.274 831.659 225.876 831.859 229.478 831.132 233.079 827.953 236.679 828.685 240.279 833.909 243.879 833.303 247.479 829.599 251.078 833.043 254.678 824.064 258.277 828.057 261.876 824.641 265.475 829.414 269.075 830.868 272.674 832.249 276.274 830.196 279.874 828.793 283.475 825.382 287.075 831.322 290.677 826.663 294.279 830.555 297.881 824.31 301.484 825.425 305.088 827.599 308.693 829.106 312.299 833.416 315.904 827.465 319.509 830.342 323.113 833.567 326.716 830.917 330.319 829.026 333.921 824.605 337.523 833.92 341.125 825.552 344.726 825.099 348.327 831.188 351.928 832.053 355.529 829.005 359.13 833.563 362.731 828.023 366.332 831.154 369.934 827.361 373.536 830.339 377.138 825.734 380.741 831.874 384.345 831.307 387.95 826.175 391.555 829.884 395.162 828.704 398.768 829.741 402.373 825.984 405.977 832.125 409.581 825.017 413.184 826.49 416.787 826.68 420.389 827.405 423.991 830.181 427.594 824.821 431.196 824.446 434.798 829.452 438.401 827.215 442.004 829.432 445.607 827.378 449.212 831.697 452.816 824.404 456.422 830.609 460.029 824.429 463.635 825.838 467.241 829.312 470.845 830.244 474.45 826.609 478.053 825.227 481.657 828.643 485.26 824.388 488.863 831.361 492.467 825.272 496.071 832.376 499.675 832.043 503.279 826.058 506.885 828.031 510.491 825.613 514.098 824.865 517.705 831.57 521.31 833.199 524.915 826.577 528.52 827.476 532.124 831.807 535.728 832.67 539.332 824.212 542.937 833.071 546.542 830.217 550.147 830.854 553.754 833.794 557.362 833.996 560.968 829.14 564.574 827.948 568.179 834.017 571.784 832.007 575.389 832.976 578.994 828.345 582.599 833.984 586.205 827.877 589.812 831.1 593.42 831.365 597.027 833.525 600.633 825.046 604.238 831.459 607.844 826.495 611.449 825.305 615.055 827 618.662 830.791 622.269 830.335 625.877 832.143 629.483 833.078 633.089 832.401 636.695 827.422 640.301 827.978 643.908 832.366 647.516 827.435 651.123 832.141 654.73 825.933 658.336 830.408 661.942 830.587 665.549 833.88 669.157 831.903 672.765 828.374 676.372 826.176 679.978 832.652 683.58 827.104 687.182 829.411 690.783 825.532 694.386 827.34 697.99 828.032 701.596 831.844 705.205 831.632 708.812 833.778 712.416 827.253 716.02 833.922 719.624 831.912 723.228 824.83 726.834 833.48 730.442 829.789 734.05 825.205 737.657 829.684 741.262 824.356 744.867 831.387 748.474 833.74 752.083 824.519 755.692 830.397 759.299 825.942 762.905 826.131 766.513 831.753 770.124 833.515 773.732 833.766 777.339 832.302 780.948 830.053 784.558 828.582 788.166 826.023 791.775 826.286 795.386 832.291 798.995 831.444 802.605 827.175 806.215 827.829 809.825 833.641 813.435 831.852 817.046 831.771 820.653 828.741 824.263 826.995 827.869 824.716 831.48 830.29 835.089 824.933 838.701 827.893 842.31 828.157 845.922 833.709 849.535 830.07 853.148 826.156 856.762 831.753 860.374 831.49 863.986 831.786 867.6 826.401 871.22 833.451 877.33 831.689 872.492 825.178 871.008 821.393 875.213 818.046 871.696 814.106 880.233 811.087 880.548 807.438 877.063 803.501 878.117 799.908 881.509 796.492 879.124 792.636 877.13 788.809 873.502 784.859 875.968 781.373 879.957 778.002 874.279 773.889 877.544 771.675 875.911 769.44 873.941 764.589 867.587 771.251 865.632 766.366 864.282 759.898 858.034 766.284 855.965 761.699 853.597 757.895 850.385 756.299 845.239 759.774 841.994 758.263 839.55 754.655 837.606 749.738 831.956 754.549 827.921 755.121 825.127 752.428 823.91 745.59 820.004 745.81 814.909 749.158 812.843 744.557 810.125 741.667 805.872 742.802 802.224 742.342 800.808 736.027 795.061 741.084 792.304 738.293 790.375 733.326 784.342 739.124 782.648 733.538 780.422 729.349 777.162 727.873 771.636 732.341 767.612 732.874 766.188 726.577 762.031 727.448 758.138 727.633 757.001 720.579 752.725 721.767 747.478 725.502 744.969 722.051 744.25 713.916 738.347 719.383 735.212 717.572 731.884 716.281 728.606 714.844 727.271 708.316 723.58 707.96 720.169 706.875 714.485 711.751 712.303 707.434 707.574 709.8 705.969 703.975 701.72 705.082 697.823 705.265 695.017 702.577 692.19 699.933 691.602 696.369 693.494 694.544 691.416 690.937 686.546 687.314 684.619 683.709 687.491 680.132 692.63 676.568 689.048 672.955 694.121 669.391 684.773 665.745 690.21 662.183 687.656 658.576 685.882 654.973 684.688 651.373 690.649 647.813 690.87 644.221 684.468 640.59 687.239 637.011 691.987 633.442 690.252 629.836 692.64 626.252 693.135 622.657 689.63 619.039 692.308 615.458 691.227 611.855 692.409 608.267 686.748 604.639 690.646 601.067 690.922 597.474 693.804 593.897 687.713 590.268 688.129 586.676 691.958 583.104 692.103 579.51 687.987 575.892 693.687 572.329 692.583 568.727 685.603 565.09 688.929 561.512 693.488 557.939 692.292 554.334 690.903 550.729 690.928 547.132 691.153 543.538 690.731 539.94 687.215 536.324 693.32 532.764 686.701 529.131 688.234 525.545 687.364 521.944 694.52 518.389 688.907 514.761 688.907 511.164 687.682 507.558 690.803 503.977 690.774 500.379 692.218 496.79 693.975 493.203 687.178 489.568 692.788 486.004 694.014 482.415 685.744 478.772 688.79 475.193 693.668 471.624 692.913 468.022 685.871 464.383 686.278 460.786 693.265 457.228 693 453.629 687.922 450.003 693.553 446.438 687.332 442.806 688.776 439.217 688.294 435.618 691.395 432.038 688.83 428.424 693.284 424.85 695.355 421.263 695.343 417.666 695.467 414.069 695.358 410.471 692.801 406.859 691.296 403.253 688.153 399.636 686.936 396.03 689.385 392.445 687.258 388.834 690.059 385.253 686.359 381.634 692.229 378.069 694.686 374.485 690.975 370.864 688.612 367.251 695.895 363.694 687.855 360.05 686.642 356.445 688.431 352.857 694.403 349.291 694.695 345.693 687.758 342.055 687.224 338.454 688.393 334.867 687.524 331.268 688.332 327.679 689.732 324.093 694.599 320.525 687.126 316.885 688.087 313.29 691.378 309.71 689.848 306.104 688.601 302.501 688.591 298.906 692.235 295.331 686.752 291.702 692.44 288.135 687.811 284.508 688.553 280.914 693.28 277.344 689.236 273.724 692.759 270.145 687.779 266.516 693.42 262.948 691.504 259.338 694.948 255.76 688.023 252.12 691.088 248.535 691.01 244.935 688.319 241.32 687.875 237.717 694.495 234.153 695.082 230.557 694.333 226.952 687.547 223.31 693.144 219.742 690.304 216.123 693.928 212.543 687.258 208.902 694.66 205.343 687.074 201.696 691.011 198.121 693.793 194.535 693.623 190.935 693.414 187.332 687.184 183.696 691.197 180.115 689.605 176.504 691.514 172.912 692.39 169.312 696.517 165.73 696.592 162.126 695.418 158.515 691.157 154.886 696.545 151.312 690.983 147.669 692.991 143.302 688.623 147.165 685.023 139.832 681.424 146.001 677.826 143.573 674.229 146.736 670.632 139.863 667.035 146.302 663.439 143.733 659.843 141.629 656.248 139.29 652.652 146.018 649.055 146.742 645.459 145.309 641.861 147.186 638.263 146.089 634.664 142.986 631.064 142.259 627.465 146.415 623.867 144.885 620.269 148.16 616.672 144.674 613.075 146.228 609.479 147.825 605.882 141.264 602.285 145.713 598.687 142.295 595.089 148.11 591.49 143.945 587.889 139.661 584.29 148.247 580.692 141.384 577.094 147.749 573.496 144.295 569.899 147.779 566.301 142.13 562.703 140.845 559.105 145.764 555.505 141.389 551.905 144.619 548.305 140.788 544.707 141.307 541.109 146.8 537.511 146.224 533.912 144.874 530.314 140.116 526.715 147.14 523.114 145.903 519.514 144.656 515.915 147.649 512.317 145.942 508.718 145.679 505.119 146.189 501.52 143.722 497.919 143.014 494.319 147.915 490.72 142.555 487.121 139.673 483.522 140.262 479.923 146.203 476.322 140.231 472.722 144.931 469.122 141.505 465.523 142.682 461.928 145.879 458.334 148.282 454.74 145.363 451.145 139.59 447.548 145.1 443.95 144.163 440.348 145.276 436.749 147.869 433.151 139.721 429.555 139.282 425.959 145.707 422.362 140.632 418.763 145.191 415.163 139.886 411.561 148.609 407.962 144.312 404.365 144.626 400.767 144.985 397.167 139.193 393.565 145.285 389.964 141.08 386.365 145.844 382.766 145.098 379.165 144.813 375.562 144.605 371.961 147.059 368.361 147.974 364.76 140.083 361.157 145.652 357.556 139.53 353.955 141.596 350.351 144.179 346.75 141.388 343.147 140.632 339.545 145.526 335.942 142.799 332.339 146.485 328.735 141.916 325.136 148.41 321.533 140.506 317.934 144.936 314.331 139.639 310.73 139.97 307.125 144.364 303.523 144.483 299.918 148.431 296.313 145.743 292.707 147.725 289.101 140.194 285.496 143.429 281.891 143.643 278.285 142.028 274.673 148.763 269.022 142.022 273.392 147.669 266.379 151.272 267.098 154.875 271.608 158.478 275.914 162.08 270.77 165.682 274.775 169.283 269.422 172.885 271.7 176.486 270.685 180.087 271.851 183.689 275.16 187.29 267.268 190.892 270.98 194.494 273.708 198.096 266.317 201.699 268.738 205.302 266.797 208.906 274.4 212.511 268.771 216.117 269.604 219.724 267.346 223.33 268.099 226.935 266.869 230.54 273.757 234.144 272.359 237.747 272.215 241.35 274.453 244.953 272.823 248.556 269.037 252.158 273.726 255.761 267.174 259.363 271.886 262.966 272.293 266.57 275.294 270.173 271.381 273.778 272.642 277.383 266.112 280.989 272.74 284.596 269.894 288.203 268.072 291.809 268.836 295.414 270.416 299.018 270.005 302.622 267.664 306.226 270.184 309.83 276.053 313.433 273.979 317.037 267.28 320.641 272.828 324.245 271.651 327.85 267.397 331.456 272.701 335.063 266.332 338.67 271.96 342.277 275.645 345.883 270.935 349.488 266.257 353.093 267.12 356.697 273.851 360.302 268.34 363.906 266.269 367.511 271.031 371.116 270.603 374.722 269.619 378.329 276.04 381.937 272 385.544 270.739 389.15 266.768 392.756 272.756 396.361 267.241 399.966 267.535 403.571 272.016 407.177 269.067 410.783 267.782 414.39 269.607 417.998 273.84 421.605 275.259 425.212 275.35 428.818 272.819 432.423 270.106 436.029 268.49 439.635 267.781 443.242 272.533 446.85 267.4 450.458 266.874 454.065 274.54 457.671 266.502 461.277 270.613 464.883 271.26 468.491 268.89 472.099 273.721 475.706 271.849 479.313 272.481 482.92 268.294 486.527 269.538 490.134 272.698 493.742 266.917 497.35 269.593 500.957 272.361 504.564 268.968 508.166 268.164 511.768 270.535 515.37 272.251 518.973 271.905 522.577 267.631 526.183 274.218 529.792 266.723 533.4 274.988 537.005 271.874 540.609 267.999 544.213 274.07 547.817 270.355 551.423 269.486 555.032 273.446 558.641 269.513 562.247 273.91 565.853 275.342 569.458 268.878 573.065 274.504 576.675 273.195 580.284 275.026 583.891 271.073 587.498 274.475 591.106 267.073 594.717 267.244 598.325 267.695 601.933 275.367 605.542 271.291 609.152 267.037 612.761 267.01 616.37 274.237 619.981 268.98 623.59 267.613 627.201 266.442 630.811 274.257 634.422 270.171 638.032 273.593 641.643 266.549 645.25 269.421 648.861 269.362 652.467 273.507 656.078 271.962 659.687 269.277 663.3 275.225 666.91 274.337 670.522 275.865 674.135 268.986 677.748 271.5 681.362 275.919 684.975 269.576 688.588 275.022 692.201 273.146 695.821 268.533 697.764 268.783 703.346 264.7 702.959 259.414 699.718 256.523 702.175 255.137 708.217 250.568 706.687 247.17 707.937 244.496 710.904 240.553 710.855 237.189 712.183 236.157 719.057 232.271 719.155 227.444 717.016 225.558 721.862 221.925 722.554 216.853 719.825 213.261 720.619 211.054 724.708 208.956 729.058 204.524 727.853 199.371 724.935 197.407 729.601 196.27 736.239 192.31 736.162 186.822 732.448 182.744 732.092 180.024 734.964 177.5 738.299 175.015 741.731 172.043 744.006 166.864 741.031 165.292 746.635 162.003 748.156 156.016 743.266 155.016 750.229 150.482 748.776 147.016 749.867 145.767 756.239 142.887 758.725 136.257 752.307 133.836 755.889 129.486 754.896 125.928 755.777 123.397 759.107 120.209 760.878 118.178 765.397 114.574 766.169 109.738 764.022 106.782 766.346 103.972 769.017 98.962 766.476 99.89 775.349 99.852 776.111 95.564 779.576 94.074 783.115 99.729 786.926 98.506 790.483 100.249 794.17 97.837 797.666 94.528 801.097 91.415 804.511 91.582 808.098 97.975 812.149 92.063 815.278 98.015 819.455 99.422 823.359 89.347 825.299 93.259 832.78" style="fill: #fff;"/>
  <polygon points="93.259 832.78 96.173 825.4 99.776 824.791 103.379 826.659 106.982 830.154 110.585 829.237 114.188 829.61 117.791 831.877 121.395 824.123 124.998 824.391 128.602 833.105 132.206 826.989 135.81 829.733 139.414 829.285 143.019 825.11 146.624 830.941 150.228 829.053 153.832 826.49 157.436 831.321 161.04 830.451 164.643 826.691 168.242 824.155 171.841 824.195 175.44 831.466 179.04 828.886 182.64 825.531 186.241 827.353 189.842 831.691 193.444 829.69 197.047 831.299 200.65 824.405 204.255 826.378 207.86 832.685 211.465 824.37 215.068 828.159 218.672 824.566 222.274 831.659 225.876 831.859 229.478 831.132 233.079 827.953 236.679 828.685 240.279 833.909 243.879 833.303 247.479 829.599 251.078 833.043 254.678 824.064 258.277 828.057 261.876 824.641 265.475 829.414 269.075 830.868 272.674 832.249 276.274 830.196 279.874 828.793 283.475 825.382 287.075 831.322 290.677 826.663 294.279 830.555 297.881 824.31 301.484 825.425 305.088 827.599 308.693 829.106 312.299 833.416 315.904 827.465 319.509 830.342 323.113 833.567 326.716 830.917 330.319 829.026 333.921 824.605 337.523 833.92 341.125 825.552 344.726 825.099 348.327 831.188 351.928 832.053 355.529 829.005 359.13 833.563 362.731 828.023 366.332 831.154 369.934 827.361 373.536 830.339 377.138 825.734 380.741 831.874 384.345 831.307 387.95 826.175 391.555 829.884 395.162 828.704 398.768 829.741 402.373 825.984 405.977 832.125 409.581 825.017 413.184 826.49 416.787 826.68 420.389 827.405 423.991 830.181 427.594 824.821 431.196 824.446 434.798 829.452 438.401 827.215 442.004 829.432 445.607 827.378 449.212 831.697 452.816 824.404 456.422 830.609 460.029 824.429 463.635 825.838 467.241 829.312 470.845 830.244 474.45 826.609 478.053 825.227 481.657 828.643 485.26 824.388 488.863 831.361 492.467 825.272 496.071 832.376 499.675 832.043 503.279 826.058 506.885 828.031 510.491 825.613 514.098 824.865 517.705 831.57 521.31 833.199 524.915 826.577 528.52 827.476 532.124 831.807 535.728 832.67 539.332 824.212 542.937 833.071 546.542 830.217 550.147 830.854 553.754 833.794 557.362 833.996 560.968 829.14 564.574 827.948 568.179 834.017 571.784 832.007 575.389 832.976 578.994 828.345 582.599 833.984 586.205 827.877 589.812 831.1 593.42 831.365 597.027 833.525 600.633 825.046 604.238 831.459 607.844 826.495 611.449 825.305 615.055 827 618.662 830.791 622.269 830.335 625.877 832.143 629.483 833.078 633.089 832.401 636.695 827.422 640.301 827.978 643.908 832.366 647.516 827.435 651.123 832.141 654.73 825.933 658.336 830.408 661.942 830.587 665.549 833.88 669.157 831.903 672.765 828.374 676.372 826.176 679.978 832.652 683.58 827.104 687.182 829.411 690.783 825.532 694.386 827.34 697.99 828.032 701.596 831.844 705.205 831.632 708.812 833.778 712.416 827.253 716.02 833.922 719.624 831.912 723.228 824.83 726.834 833.48 730.442 829.789 734.05 825.205 737.657 829.684 741.262 824.356 744.867 831.387 748.474 833.74 752.083 824.519 755.692 830.397 759.299 825.942 762.905 826.131 766.513 831.753 770.124 833.515 773.732 833.766 777.339 832.302 780.948 830.053 784.558 828.582 788.166 826.023 791.775 826.286 795.386 832.291 798.995 831.444 802.605 827.175 806.215 827.829 809.825 833.641 813.435 831.852 817.046 831.771 820.653 828.741 824.263 826.995 827.869 824.716 831.48 830.29 835.089 824.933 838.701 827.893 842.31 828.157 845.922 833.709 849.535 830.07 853.148 826.156 856.762 831.753 860.374 831.49 863.986 831.786 867.6 826.401 871.22 833.451 877.33 831.689 872.492 825.178 871.008 821.393 875.213 818.046 871.696 814.106 880.233 811.087 880.548 807.438 877.063 803.501 878.117 799.908 881.509 796.492 879.124 792.636 877.13 788.809 873.502 784.859 875.968 781.373 879.957 778.002 874.279 773.889 877.544 771.675 875.911 769.44 873.941 764.589 867.587 771.251 865.632 766.366 864.282 759.898 858.034 766.284 855.965 761.699 853.597 757.895 850.385 756.299 845.239 759.774 841.994 758.263 839.55 754.655 837.606 749.738 831.956 754.549 827.921 755.121 825.127 752.428 823.91 745.59 820.004 745.81 814.909 749.158 812.843 744.557 810.125 741.667 805.872 742.802 802.224 742.342 800.808 736.027 795.061 741.084 792.304 738.293 790.375 733.326 784.342 739.124 782.648 733.538 780.422 729.349 777.162 727.873 771.636 732.341 767.612 732.874 766.188 726.577 762.031 727.448 758.138 727.633 757.001 720.579 752.725 721.767 747.478 725.502 744.969 722.051 744.25 713.916 738.347 719.383 735.212 717.572 731.884 716.281 728.606 714.844 727.271 708.316 723.58 707.96 720.169 706.875 714.485 711.751 712.303 707.434 707.574 709.8 705.969 703.975 701.72 705.082 697.823 705.265 695.017 702.577 692.19 699.933 691.602 696.369 693.494 694.544 691.416 690.937 686.546 687.314 684.619 683.709 687.491 680.132 692.63 676.568 689.048 672.955 694.121 669.391 684.773 665.745 690.21 662.183 687.656 658.576 685.882 654.973 684.688 651.373 690.649 647.813 690.87 644.221 684.468 640.59 687.239 637.011 691.987 633.442 690.252 629.836 692.64 626.252 693.135 622.657 689.63 619.039 692.308 615.458 691.227 611.855 692.409 608.267 686.748 604.639 690.646 601.067 690.922 597.474 693.804 593.897 687.713 590.268 688.129 586.676 691.958 583.104 692.103 579.51 687.987 575.892 693.687 572.329 692.583 568.727 685.603 565.09 688.929 561.512 693.488 557.939 692.292 554.334 690.903 550.729 690.928 547.132 691.153 543.538 690.731 539.94 687.215 536.324 693.32 532.764 686.701 529.131 688.234 525.545 687.364 521.944 694.52 518.389 688.907 514.761 688.907 511.164 687.682 507.558 690.803 503.977 690.774 500.379 692.218 496.79 693.975 493.203 687.178 489.568 692.788 486.004 694.014 482.415 685.744 478.772 688.79 475.193 693.668 471.624 692.913 468.022 685.871 464.383 686.278 460.786 693.265 457.228 693 453.629 687.922 450.003 693.553 446.438 687.332 442.806 688.776 439.217 688.294 435.618 691.395 432.038 688.83 428.424 693.284 424.85 695.355 421.263 695.343 417.666 695.467 414.069 695.358 410.471 692.801 406.859 691.296 403.253 688.153 399.636 686.936 396.03 689.385 392.445 687.258 388.834 690.059 385.253 686.359 381.634 692.229 378.069 694.686 374.485 690.975 370.864 688.612 367.251 695.895 363.694 687.855 360.05 686.642 356.445 688.431 352.857 694.403 349.291 694.695 345.693 687.758 342.055 687.224 338.454 688.393 334.867 687.524 331.268 688.332 327.679 689.732 324.093 694.599 320.525 687.126 316.885 688.087 313.29 691.378 309.71 689.848 306.104 688.601 302.501 688.591 298.906 692.235 295.331 686.752 291.702 692.44 288.135 687.811 284.508 688.553 280.914 693.28 277.344 689.236 273.724 692.759 270.145 687.779 266.516 693.42 262.948 691.504 259.338 694.948 255.76 688.023 252.12 691.088 248.535 691.01 244.935 688.319 241.32 687.875 237.717 694.495 234.153 695.082 230.557 694.333 226.952 687.547 223.31 693.144 219.742 690.304 216.123 693.928 212.543 687.258 208.902 694.66 205.343 687.074 201.696 691.011 198.121 693.793 194.535 693.623 190.935 693.414 187.332 687.184 183.696 691.197 180.115 689.605 176.504 691.514 172.912 692.39 169.312 696.517 165.73 696.592 162.126 695.418 158.515 691.157 154.886 696.545 151.312 690.983 147.669 692.991 143.302 688.623 147.165 685.023 139.832 681.424 146.001 677.826 143.573 674.229 146.736 670.632 139.863 667.035 146.302 663.439 143.733 659.843 141.629 656.248 139.29 652.652 146.018 649.055 146.742 645.459 145.309 641.861 147.186 638.263 146.089 634.664 142.986 631.064 142.259 627.465 146.415 623.867 144.885 620.269 148.16 616.672 144.674 613.075 146.228 609.479 147.825 605.882 141.264 602.285 145.713 598.687 142.295 595.089 148.11 591.49 143.945 587.889 139.661 584.29 148.247 580.692 141.384 577.094 147.749 573.496 144.295 569.899 147.779 566.301 142.13 562.703 140.845 559.105 145.764 555.505 141.389 551.905 144.619 548.305 140.788 544.707 141.307 541.109 146.8 537.511 146.224 533.912 144.874 530.314 140.116 526.715 147.14 523.114 145.903 519.514 144.656 515.915 147.649 512.317 145.942 508.718 145.679 505.119 146.189 501.52 143.722 497.919 143.014 494.319 147.915 490.72 142.555 487.121 139.673 483.522 140.262 479.923 146.203 476.322 140.231 472.722 144.931 469.122 141.505 465.523 142.682 461.928 145.879 458.334 148.282 454.74 145.363 451.145 139.59 447.548 145.1 443.95 144.163 440.348 145.276 436.749 147.869 433.151 139.721 429.555 139.282 425.959 145.707 422.362 140.632 418.763 145.191 415.163 139.886 411.561 148.609 407.962 144.312 404.365 144.626 400.767 144.985 397.167 139.193 393.565 145.285 389.964 141.08 386.365 145.844 382.766 145.098 379.165 144.813 375.562 144.605 371.961 147.059 368.361 147.974 364.76 140.083 361.157 145.652 357.556 139.53 353.955 141.596 350.351 144.179 346.75 141.388 343.147 140.632 339.545 145.526 335.942 142.799 332.339 146.485 328.735 141.916 325.136 148.41 321.533 140.506 317.934 144.936 314.331 139.639 310.73 139.97 307.125 144.364 303.523 144.483 299.918 148.431 296.313 145.743 292.707 147.725 289.101 140.194 285.496 143.429 281.891 143.643 278.285 142.028 274.673 148.763 269.022 142.022 273.392 147.669 266.379 151.272 267.098 154.875 271.608 158.478 275.914 162.08 270.77 165.682 274.775 169.283 269.422 172.885 271.7 176.486 270.685 180.087 271.851 183.689 275.16 187.29 267.268 190.892 270.98 194.494 273.708 198.096 266.317 201.699 268.738 205.302 266.797 208.906 274.4 212.511 268.771 216.117 269.604 219.724 267.346 223.33 268.099 226.935 266.869 230.54 273.757 234.144 272.359 237.747 272.215 241.35 274.453 244.953 272.823 248.556 269.037 252.158 273.726 255.761 267.174 259.363 271.886 262.966 272.293 266.57 275.294 270.173 271.381 273.778 272.642 277.383 266.112 280.989 272.74 284.596 269.894 288.203 268.072 291.809 268.836 295.414 270.416 299.018 270.005 302.622 267.664 306.226 270.184 309.83 276.053 313.433 273.979 317.037 267.28 320.641 272.828 324.245 271.651 327.85 267.397 331.456 272.701 335.063 266.332 338.67 271.96 342.277 275.645 345.883 270.935 349.488 266.257 353.093 267.12 356.697 273.851 360.302 268.34 363.906 266.269 367.511 271.031 371.116 270.603 374.722 269.619 378.329 276.04 381.937 272 385.544 270.739 389.15 266.768 392.756 272.756 396.361 267.241 399.966 267.535 403.571 272.016 407.177 269.067 410.783 267.782 414.39 269.607 417.998 273.84 421.605 275.259 425.212 275.35 428.818 272.819 432.423 270.106 436.029 268.49 439.635 267.781 443.242 272.533 446.85 267.4 450.458 266.874 454.065 274.54 457.671 266.502 461.277 270.613 464.883 271.26 468.491 268.89 472.099 273.721 475.706 271.849 479.313 272.481 482.92 268.294 486.527 269.538 490.134 272.698 493.742 266.917 497.35 269.593 500.957 272.361 504.564 268.968 508.166 268.164 511.768 270.535 515.37 272.251 518.973 271.905 522.577 267.631 526.183 274.218 529.792 266.723 533.4 274.988 537.005 271.874 540.609 267.999 544.213 274.07 547.817 270.355 551.423 269.486 555.032 273.446 558.641 269.513 562.247 273.91 565.853 275.342 569.458 268.878 573.065 274.504 576.675 273.195 580.284 275.026 583.891 271.073 587.498 274.475 591.106 267.073 594.717 267.244 598.325 267.695 601.933 275.367 605.542 271.291 609.152 267.037 612.761 267.01 616.37 274.237 619.981 268.98 623.59 267.613 627.201 266.442 630.811 274.257 634.422 270.171 638.032 273.593 641.643 266.549 645.25 269.421 648.861 269.362 652.467 273.507 656.078 271.962 659.687 269.277 663.3 275.225 666.91 274.337 670.522 275.865 674.135 268.986 677.748 271.5 681.362 275.919 684.975 269.576 688.588 275.022 692.201 273.146 695.821 268.533 697.764 268.783 703.346 264.7 702.959 259.414 699.718 256.523 702.175 255.137 708.217 250.568 706.687 247.17 707.937 244.496 710.904 240.553 710.855 237.189 712.183 236.157 719.057 232.271 719.155 227.444 717.016 225.558 721.862 221.925 722.554 216.853 719.825 213.261 720.619 211.054 724.708 208.956 729.058 204.524 727.853 199.371 724.935 197.407 729.601 196.27 736.239 192.31 736.162 186.822 732.448 182.744 732.092 180.024 734.964 177.5 738.299 175.015 741.731 172.043 744.006 166.864 741.031 165.292 746.635 162.003 748.156 156.016 743.266 155.016 750.229 150.482 748.776 147.016 749.867 145.767 756.239 142.887 758.725 136.257 752.307 133.836 755.889 129.486 754.896 125.928 755.777 123.397 759.107 120.209 760.878 118.178 765.397 114.574 766.169 109.738 764.022 106.782 766.346 103.972 769.017 98.962 766.476 99.89 775.349 99.852 776.111 95.564 779.576 94.074 783.115 99.729 786.926 98.506 790.483 100.249 794.17 97.837 797.666 94.528 801.097 91.415 804.511 91.582 808.098 97.975 812.149 92.063 815.278 98.015 819.455 99.422 823.359 89.347 825.299 93.259 832.78" style="fill: none; stroke: #000; stroke-linecap: round; stroke-linejoin: round; stroke-width: 40px;"/>
</svg>