<?xml version="1.0" encoding="UTF-8"?>
<svg id="Sticker" xmlns="http://www.w3.org/2000/svg" width="1000" height="1000" viewBox="0 0 1000 1000">
  <polyline points="499.483 518.563 502.045 515.112 498.717 511.377 495.88 507.371 501.524 504.615 503.767 501.594 500.471 497.03 503.702 494.385 504.775 491.042 500.451 484.577 506.103 483.538 508.652 480.852 509.941 477.041 515.239 477.302 517.55 474.625 520.359 472.502 524.279 472.399 524.147 463.451 530.921 470.932 532.596 464.265 536.594 465.298 540.573 467.972 543.53 461.2 547.339 462.869 551.044 462.401 554.981 460.063 558.317 463.825 561.452 467.001 565.067 467.134 568.075 469.676 573.653 463.812 576.704 466.529 580.396 467.364 584.503 467.389 586.605 471.714 588.438 476.089 591.525 477.923 592.769 482.67 596.647 483.155 602.322 481.375 604.954 484.002 608.209 485.833 611.658 487.51 609.621 495.088 613.664 496.015 620.807 494.225 616.88 502.549 621.436 503.285 627.39 503.396 627.491 507.775 630.156 510.453 633.352 512.992 629.617 518.694 628.398 522.818 634.355 524.496 636.652 527.652 640.119 530.769 637.601 534.94 631.814 539.002 635.836 542.272 640.044 545.962 635.146 549.306 632.07 552.446 636.011 556.609 632.57 559.527 629.089 562.198 635.996 567.903 633.142 570.817 629.113 573.127 626.14 575.677 627.485 580.163 629.407 585.176 620.426 584.412 623.933 590.506 618.355 591.262 614.642 592.986 616.422 598.478 612.227 599.794 615.818 607.082 607.822 605.246 604.025 606.595 607.338 614.276 603.079 615.243 602.704 619.911 601.151 623.545 593.989 621.218 590.354 622.445 590.897 628.484 587.263 629.732 582.338 629.243 583.723 636.927 579.809 637.732 574.29 636.087 575.404 644.181 571.399 644.71 569.008 647.793 563.521 645.585 558.924 644.598 558.206 650.839 552.926 648.18 550.802 652.178 546.383 650.531 544.78 657.022 540.866 656.729 537.687 659.169 533.177 655.317 530.247 659.466 526.55 659.358 522.832 658.584 519.094 656.166 515.727 662.294 512.06 656.48 508.503 657.318 504.971 656.862 501.411 656.828 497.578 659.005 493.507 661.88 490.224 659.048 487.497 653.945 482.703 659.292 479.21 658.052 477.457 650.417 473.608 651.047 470.043 650.53 466.263 650.558 462.213 651.159 458.759 650.005 455.922 647.354 450.678 650.284 450.832 641.206 447.862 639.24 442.307 642.274 440.252 638.462 434.74 640.853 431.424 639.216 427.965 637.78 426.284 633.613 423.761 630.849 419.375 630.71 421.306 622.071 413.116 626.749 414.624 619.136 412.274 616.43 408.49 615.341 405.683 613.108 399.872 613.893 402.632 606.107 398.915 604.756 391.22 606.802 394.959 598.8 393.585 595.379 390.217 593.543 387.464 591.171 379.976 592.017 380.032 587.538 378.816 583.992 375.125 581.943 377.337 576.508 378.667 571.792 372.91 570.725 372.132 567.12 369.305 564.432 371.037 559.856 366.247 557.846 369.326 552.982 365.429 550.504 362.857 547.494 361.445 544.102 359.387 540.826 361.416 536.683 357.31 533.719 358.364 529.836 356.182 526.412 355.285 522.778 361.733 518.648 363.495 515.026 356.851 511.613 355.315 507.928 363.583 504.526 362.983 500.982 359.667 497.161 363.521 493.962 358.747 489.751 363.387 486.806 362.824 483.088 357.459 478.285 360.619 475.204 360.176 471.292 368.314 469.786 366.656 465.567 362.957 460.518 367.27 458.141 372.379 456.229 369.044 451.008 374.342 449.346 370.876 443.8 377.582 442.994 378.171 439.29 381.54 437.038 376.581 430.138 379.384 427.501 383.193 425.538 383.502 421.409 385.149 418.094 387.92 415.545 394.963 416.143 391.717 409.238 398.059 409.542 397.18 404.217 400.623 402.343 403.707 400.22 407.245 398.549 411.413 397.529 413.523 394.64 412.571 388.694 413.102 384.043 420.231 386.223 423.136 384.101 426.416 382.419 426.861 377.492 429.146 374.603 433.208 373.868 431.815 366.284 440.364 371.426 439.602 364.408 442.72 362.508 445.812 360.584 446.852 355.6 452.301 357.235 456.494 357.11 458.634 353.713 461.605 351.629 464.78 349.888 468.892 349.884 469.018 342.345 472.919 341.887 477.928 343.846 482.639 345.473 484.705 341.345 487.171 337.906 490.309 335.953 492.871 332.392 496.67 332.059 502.51 338.028 503.628 329.684 506.671 326.985 512.338 334.126 514.55 328.177 519.313 333.169 522.156 329.361 525.253 326.222 528.827 325.616 532.601 326.614 535.817 322.726 539.734 325.684 543.243 324.134 547.085 329.366 550.564 327.595 554.1 322.171 557.753 322.135 561.226 327.374 564.799 327.177 568.257 328.79 572.242 323.954 575.608 326.634 579.639 323.291 583.272 323.697 585.658 332.015 589.333 331.461 592.873 331.816 596.088 333.79 599.392 335.189 604.734 328.04 607.942 330.207 611.527 330.84 614.798 332.595 617.039 337.638 622.559 332.089 623.922 339.483 628.639 336.829 633.153 335.057 633.79 343.586 638.061 342.493 643.268 339.353 643.276 348.516 646.794 349.333 651.497 347.662 655.587 347.476 658.855 349.049 660.161 354.413 664.712 353.474 665.849 358.885 669.455 359.733 674.893 357.52 677.081 360.913 679.031 364.599 681.587 367.239 684.382 369.476 686.62 372.516 694.632 367.26 695.871 371.803 696.346 377.242 701.992 375.727 701.152 382.671 705.267 383.224 709.073 384.241 708.704 390.211 713.882 389.673 715.325 393.421 718.96 394.741 722.722 395.992 724.83 398.988 730.756 398.209 726.609 407.219 734.44 404.787 737.062 407.325 738.952 410.509 740.981 413.548 742.981 416.597 741.119 422.659 747.108 422.556 745.896 427.917 753.419 426.952 755.699 429.827 755.213 434.518 753.315 439.963 758.559 440.931 762.874 442.607 760.43 448.113 761.205 451.725 765.19 453.699 762.771 458.804 764.165 462.031 768.135 464.149 774.126 465.54 768.719 471.561 771.614 474.242 776.881 476.153 777.805 479.664 779.08 483.057 774.766 488.104 775.236 491.631 777.799 494.602 778.475 498.086 785.539 500.152 777.895 505.432 787.329 507.249 785.198 511.315 780.709 515.639 780.217 519.258 781.9 522.593 783.015 526.028 788.339 529.148 782.73 533.141 787.4 536.45 789.23 539.996 788.683 543.633 785.055 547.245 788.047 550.858 791.183 554.575 791.368 558.247 785.034 561.501 790.486 565.525 787.931 568.95 787.443 572.539 786.171 576.025 783.617 579.301 783.947 582.973 783.394 586.519 781.274 589.77 784.232 594.013 784.415 597.758 781.658 600.845 774.808 602.858 776.373 606.908 778.343 611.143 777.024 614.503 771.918 616.692 773.65 620.96 777.842 626.136 772.129 627.997 767.683 630.191 774.311 636.488 772.571 639.721 771.737 643.311 762.822 643.504 768.779 649.974 764.71 652.135 761.826 654.773 759.873 657.818 754.964 659.389 754.106 662.926 755.078 667.443 757.936 673.054 752.304 674.103 750.162 677.019 748.981 680.484 748.826 684.582 742.864 685.169 743.054 689.499 744.26 694.55 737.877 694.692 736.463 698.051 732.423 699.613 735.398 706.075 730.135 706.736 725.501 707.757 727.473 713.701 724.988 716.333 725.83 721.592 722.703 723.743 715.805 722.737 714.203 726.052 710.761 727.798 711.966 733.617 709.251 736.026 703.174 735.308 699.957 737.148 699.478 741.607 698.692 745.853 695.033 747.257 689.721 746.89 692.866 755.412 687.668 755.101 688.317 761.263 680.648 757.924 680.162 762.897 679.851 768.255 676.917 770.444 672.125 770.171 670.671 774.299 667.859 776.642 661.089 773.231 659.42 777.136 655.305 777.363 652.349 779.34 649.222 781.039 649.536 788.682 642.101 782.855 639.586 785.613 638.884 791.96 633.387 789.048 630.234 790.669 626.95 792.01 626.305 799.32 622.96 800.756 618.74 800.035 614.685 799.547 613.363 806.275 607.919 801.858 603.837 800.926 601.076 803.914 596.804 802.121 594.966 808.499 590.872 807.186 587.143 807.022 584.254 810.232 581.653 815.047 576.986 810.572 573.989 813.888 570.216 813.311 566.404 812.284 562.721 811.811 559.994 818.124 555.546 811.729 551.945 811.388 549.046 818.236 545.236 816.059 541.912 820.069 538.002 815.161 534.683 821.302 530.896 816.385 527.305 815.773 523.724 812.289 520.16 815.688 516.611 814.68 513.058 814.423 509.272 819.041 505.749 817.385 502.094 818.013 499.001 811.797 495.041 815.953 491.894 811.702 488.478 810.429 484.188 815.814 481.09 812.084 476.583 817.747 473.517 814.061 470.922 808.205 466.066 814.626 462.944 811.815 460.247 807.286 456.269 808.717 452.884 807.476 449.949 804.502 446.624 803.184 442.933 803.211 438.853 804.496 435.061 804.643 432.405 801.099 427.014 806.082 424.095 803.354 422.329 797.469 419.363 795.194 416.69 792.21 411.537 795.682 408.327 794.041 406.333 789.507 401.82 791.014 396.329 794.545 396.276 785.91 391.891 786.867 386.652 789.436 384.916 784.775 384.305 778.101 378.416 781.658 375.072 780.266 373.53 775.644 370.349 774.017 368.792 769.647 363.098 772.195 361.307 768.286 355.179 771.207 355.688 763.865 353.153 761.263 348.798 761.289 348.298 755.853 345.2 754.103 337.044 759.001 335.901 754.535 332.699 752.759 332.295 747.541 329.565 745.238 324.366 745.808 324.181 740.546 318.721 741.269 314.725 740.26 314.842 734.836 309.95 734.72 310.214 729.292 306.285 728.129 301.387 727.835 300.87 723.314 300.6 718.651 301.13 713.358 294.893 714.13 290.332 713.308 293.339 706.048 291.44 703.016 288.031 701.205 286.668 697.749 280.54 697.969 277.73 695.568 275.635 692.623 277.844 686.609 273.366 685.397 269.479 683.703 269.281 679.498 264.253 678.483 265.495 673.403 261.873 671.425 261.759 667.281 262.583 662.638 261.638 659.087 259.511 656.219 251.973 656.281 249.474 653.509 247.012 650.696 250.114 645.069 245.777 643.202 241.9 641.041 240.803 637.536 243.238 632.463 243.224 628.556 236.005 627.721 238.351 622.83 236.248 619.794 240.621 614.26 233.75 613.03 232.485 609.653 234.854 605.023 228.111 603.51 230.837 598.827 224.876 596.912 231.004 591.304 222.795 589.933 226.871 585.054 224.994 581.839 226.544 577.753 220.867 575.426 224.437 570.916 220.233 568.156 219.62 564.596 221.146 560.635 224.193 556.458 223.78 552.937 215.785 550.581 214.302 547.13 219.265 542.818 221.089 539.004 216.685 535.907 217.2 532.248 217.459 528.63 218.817 524.946 211.118 521.85 211.258 518.195 215.589 514.388 215.015 510.814 219.922 507.147 214.656 503.628 213.138 500.02 217.958 496.499 210.986 492.723 217.722 489.364 219.494 485.89 219.172 482.314 214.596 478.4 212.475 474.591 212.968 470.987 220.186 468.133 215.587 463.986 213.913 460.115 214.881 456.579 217.766 453.339 222.896 450.533 215.286 445.525 217.541 442.227 217.101 438.412 223.045 435.961 224.147 432.522 219.15 427.607 227.608 425.987 227.146 422.163 222.693 417.179 224.073 413.772 232.463 412.535 229.496 407.841 226.322 402.968 232.414 401.209 233.435 397.745 236.071 394.884 237.093 391.431 237.344 387.658 242.765 386.019 241.983 381.808 237.737 375.981 241.854 373.856 240.593 369.239 245.701 367.675 251.283 366.458 246.237 359.801 253.614 359.63 256.479 357.133 252.743 350.909 256.691 349.012 256.298 344.57 262.197 343.946 263.827 340.743 260.003 333.976 266.574 333.963 269.284 331.458 267.727 325.979 271.349 324.102 273.063 320.871 273.606 316.739 281.54 318.261 281.668 313.817 283.925 311.018 288.8 310.387 283.918 301.593 287.886 300.186 295.07 301.686 293.78 295.711 296.977 293.734 299.208 290.877 303.894 290.375 301.948 283.432 307.738 284.081 312.532 283.843 312.722 278.875 316.494 277.634 314.747 270.42 317.992 268.569 323.834 269.692 322.674 262.841 329.892 265.719 329.397 259.5 331.426 256.229 334.218 253.878 341.444 257.208 344.883 255.812 347.732 253.659 349.479 250.008 349.155 243.418 353.596 243.399 357.866 243.218 358.131 237.197 361.4 235.537 363.513 232.11 367.297 231.247 370.885 230.116 374.353 228.824 376.311 225.023 380.532 225.024 382.851 221.768 386.037 220.009 390.1 219.866 396.195 223.661 396.379 216.228 399.281 213.918 404.369 216.098 407.225 213.734 411.585 214.686 413.437 209.992 416.804 208.689 420.173 207.438 424.214 208.084 428.544 209.739 431.468 207.188 433.388 201.251 438.559 205.944 440.848 200.938 445.426 204.01 447.237 196.807 451.34 198.235 454.348 195.277 459.179 200.146 461.086 192.056 466.175 198.696 468.971 194.358 471.831 189.941 476.364 194.728 479.964 194.478 483.806 195.859 486.067 186.384 489.84 186.994 493.484 186.722 497.03 185.61 500.903 187.566 504.576 187.849 508.616 192.737 512.13 191.771 515.309 185.278 519.286 191.425 522.743 188.564 526.211 184.53 529.888 185.839 533.548 187.652 537.159 187.498 540.774 186.208 544.398 186.311 547.915 191.9 551.631 186.898 555.281 186.125 559.003 184.166 562.197 192.67 566.063 188.122 569.827 186.159 573.635 184.11 576.609 192.03 580.315 190.99 584.073 189.67 587.631 190.38 591.487 188.56 595.133 188.669 598.493 190.905 602.539 188.197 604.842 197.272 609.047 193.63 612.159 196.883 616.629 192.173 619.428 197.023 624.161 191.411 626.276 199.461 630.616 196.184 633.835 198.434 636.866 201.435 641.112 198.982 644.122 201.965 647.359 203.883 651.055 203.916 653.977 206.984 659.272 201.036 662.356 203.524 664.502 209.263 670.341 201.984 672.825 206.432 676.847 205.654 679.008 210.932 683.141 209.835 686.49 211.237 691.048 209.006 691.833 217.963 698.098 210.897 699.446 217.955 704.735 213.968 707.027 218.248 710.827 218.443 711.876 225.761 718.427 218.971 719.406 226.258 724.526 223.29 728.597 222.978 729.422 230.262 732.89 231.31 737.079 230.768 739.896 233.288 743.597 233.888 746.622 235.932 748.293 240.687 753.237 238.837 756.574 240.251 761.138 239.506" style="fill: none; stroke: #000; stroke-linecap: round; stroke-linejoin: round; stroke-width: 40px;"/>
</svg>