<?xml version="1.0" encoding="UTF-8"?>
<svg id="Sticker" xmlns="http://www.w3.org/2000/svg" width="1000" height="1000" viewBox="0 0 1000 1000">
  <polygon points="884.313 502.296 882.501 505.865 887.785 509.532 889.89 513.21 884.079 516.638 882.887 520.174 889.12 524.101 886.047 527.547 885.247 531.107 881.008 534.372 879.539 537.819 883.428 541.791 883.557 545.425 881.725 548.831 885.07 552.885 878.348 555.604 878.719 559.263 883.714 563.676 883.33 567.288 879.274 570.249 879.719 573.99 874.242 576.582 879.691 581.348 874.236 583.865 880.089 588.859 873.997 591.152 876.617 595.493 875.896 599.045 870.448 601.337 876.091 606.614 866.441 607.627 871.097 612.725 869.858 616.122 863.783 617.976 870.746 624.014 860.363 624.334 868.11 630.805 865.831 633.85 863.253 636.761 862.977 640.524 856.597 641.91 856.478 645.715 859.537 650.863 852.2 651.684 855.82 657.16 854.346 660.466 848.781 661.893 849.345 666.114 851.247 671.029 846.936 672.953 847.461 677.262 838.352 676.633 840.948 682.026 843.002 687.228 833.769 686.271 839.017 693.328 836.894 696.295 836.229 700.116 831.131 701.289 828.103 703.657 823.288 704.87 827.963 712.107 818.849 710.473 824.406 718.47 821.747 721.059 815.629 721.221 818.427 727.608 811.939 727.401 810.966 731.146 809.265 734.376 809.908 739.422 806.825 741.633 801.745 742.224 798.658 744.351 797.11 747.729 797.135 752.46 794.908 755.327 787.163 753.355 785.48 756.627 782.688 758.911 785.573 766.452 781.859 767.938 779.367 770.557 772.689 769.068 775.266 776.682 770.785 777.296 767.642 779.227 765.873 782.588 764.308 786.205 763.116 790.273 757.941 789.949 757.046 794.398 753.762 796.151 747.993 794.94 744.602 796.462 741.157 797.887 737.681 799.242 739.516 807.344 734.911 807.294 732.693 810.323 728.994 811.383 725.598 812.818 724.482 817.434 722.655 821.132 719.318 822.684 715.348 823.271 711.733 824.34 707.099 823.786 705.457 827.88 701.477 828.276 697.846 829.186 694.743 830.947 691.768 832.929 688.61 834.596 688.779 842.264 684.122 841.291 679.072 839.453 676.441 842.125 675.795 848.77 669.4 844.018 668.994 851.373 664.993 851.379 661.595 852.621 659.77 857.357 656.67 859.345 650.298 853.672 649.623 861.363 645.171 860.039 640.79 858.75 638.953 863.971 635.608 865.359 631.932 865.838 627.921 865.312 625.64 869.777 621.459 868.678 616.589 865.267 615.177 872.78 609.528 866.512 608.584 876.083 603.324 870.728 599.746 871.183 596.515 872.955 592.348 871.01 589.392 873.93 586.059 875.38 583.778 881.728 579.249 877.771 575.006 874.797 572.943 883.036 568.781 880.331 564.504 876.568 561.783 882.051 557.753 879.419 554.861 884.482 551.427 886.063 547.355 882.529 543.454 879.864 540.459 885.513 536.597 882.881 532.947 882.11 529.499 883.815 525.999 885.14 522.515 887.131 519.021 889.59 515.246 885.592 511.554 881.864 508.12 888.322 504.487 885.92 500.898 886.356 497.324 884.401 493.749 884.431 490.064 888.37 486.583 884.735 483.034 883.985 479.357 885.736 475.878 883.866 471.926 888.81 468.848 882.087 464.698 888.241 461.865 880.288 457.498 887.387 454.127 885.074 450.213 887.201 447.57 879.889 443.457 883.283 439.924 882.56 435.711 885.885 432.364 883.926 430.074 876.489 425.637 880.57 422.042 880.141 417.773 882.791 414.745 879.68 411.737 876.68 408.785 873.627 405.964 870.238 400.9 875.425 399.142 868.252 393.71 874.293 389.842 874.599 388.989 865.033 383.803 869.625 380.319 868.681 378.723 862.163 372.787 868.371 370.715 863.426 367.85 860.833 362.903 863.765 359.811 861.742 358.365 855.681 354.809 854.957 351.835 852.835 348.789 850.912 343.948 853.021 341.067 850.687 339.222 846.194 332.543 851.863 330.869 847.061 327.458 845.843 322.461 847.669 322.606 839.63 317.041 842.414 315.706 837.364 310.793 838.776 307.401 837.424 305.485 833.555 301.193 833.706 300.534 827.884 295.973 828.419 295.236 822.905 288.363 826.888 289.217 819.092 281.636 823.875 278.468 822.056 277.947 816.503 272.924 817.294 272.067 812.338 271.076 807.666 267.721 806.167 264.711 804.202 263.856 799.529 257.892 801.223 257.357 796.226 251.755 797.325 251.503 792.084 244.874 794.217 244.791 788.864 242.854 785.654 241.76 781.564 238.76 779.552 235.168 778.137 234.082 774.131 225.574 777.602 227.347 770.76 222.663 770.296 223.105 764.907 218.015 764.754 217.179 760.634 215.74 757.108 212.807 754.924 212.241 750.683 204.875 752.247 201.615 750.244 205.104 742.719 202.896 739.921 201.277 736.662 197.404 735.152 191.436 735.171 193.79 728.929 190.355 727.01 187.086 724.937 185.649 721.553 182.792 719.157 178.262 717.857 175.095 715.597 173.514 712.284 172.232 708.795 170.279 705.735 174.057 699.214 166.508 699.533 164.039 696.768 168.962 689.802 161.359 689.939 159.205 686.98 165.278 679.656 160.926 677.912 161.279 673.725 158.967 670.901 158.151 667.338 157.305 663.806 147.888 664.226 153.837 657.582 151.039 654.927 146.153 653.129 141.164 651.297 145.672 645.552 141.278 643.431 145.023 638.135 140.623 635.971 135.023 634.171 141.398 628.089 136.502 625.99 133.678 623.132 133.988 619.241 129.818 616.758 136.858 610.873 134.272 607.922 133.657 604.391 133.921 600.633 127.587 598.595 127.053 595.014 125.674 591.641 121.618 588.865 125.546 584.289 120.299 581.71 124.215 577.23 122.622 573.877 124.077 569.962 117.332 567.47 124.387 562.664 115.735 560.353 118.661 556.265 115.227 553.073 124.004 548.348 119.632 545.264 120.676 541.551 122.249 537.816 118.019 534.6 113.841 531.306 121.653 527.164 119.222 523.738 115.334 520.339 116.659 516.678 115.478 513.113 113.436 509.544 114.287 505.912 120.286 502.296 113.131 498.67 120.925 495.186 117.305 491.53 113.622 487.803 117.864 484.37 115.877 480.668 121.058 477.388 120.742 473.794 114.295 469.679 122.258 466.772 122.931 463.266 117.013 459.03 119.863 455.736 117.457 451.802 119.756 448.471 119.827 444.842 122.313 441.589 122.051 437.908 119.562 433.814 126.603 431.452 121.286 426.769 126.44 424.143 122.642 419.657 127.102 416.959 127.378 413.34 127.943 409.781 132.485 407.24 131.338 403.252 128.379 398.719 128.492 394.99 133.612 392.735 132.389 388.608 133.341 385.128 137.363 382.654 134.308 377.839 133.542 373.736 136.733 371.018 140.741 368.646 143.656 365.915 139.107 360.288 142.122 357.587 147.365 355.846 144.348 350.673 150.531 349.422 147.395 344.1 147.961 340.375 149.386 337.034 155.964 336.175 152.205 330.326 153.418 326.866 156.187 324.201 160.41 322.333 166.286 321.421 162.272 315.133 163.319 311.569 170.772 311.693 169.508 306.806 173.187 304.825 174.914 301.687 177.201 298.899 181.074 297.138 177.776 290.726 182.401 289.477 179.237 282.977 185.855 283.153 189.397 281.268 192.917 279.409 195.006 276.533 195.263 272.274 198.131 269.967 198.681 265.865 198.544 261.164 205.1 261.837 207.575 259.259 205.669 252.983 206.086 248.574 210.765 247.841 211.16 243.353 218.434 245.066 215.43 237.402 220.737 237.41 224.186 235.727 226.118 232.588 228.148 229.527 231.689 227.985 233.922 225.124 235.664 221.729 239.958 221.048 244.098 220.266 244.091 214.906 248.579 214.558 247.169 207.436 256.063 212.325 255.967 206.65 255.798 200.755 263.429 204.49 261.353 196.063 265.9 196.015 271.603 197.585 272.747 193.134 273.475 188.016 281.087 192.465 282.725 188.603 284.464 184.815 285.063 179.251 289.458 179.329 292.264 177.019 298.284 179.8 299.335 174.719 303.119 174.029 307.586 174.546 307.974 168.112 311.986 167.877 314.594 165.173 319.478 166.63 323.157 165.955 325.147 162.064 325.946 155.713 329.879 155.479 333.475 154.613 339.385 158.696 339.904 151.324 341.926 147.011 346.573 148.558 351.91 151.884 354.994 150.031 356.357 143.887 361.224 146.396 363.85 143.256 365.78 138.132 369.335 137.288 374.522 141.129 377.837 139.765 381.893 140.643 382.837 131.88 388.172 136.851 391.579 135.766 394.643 133.485 397.584 130.663 402.583 135.402 403.624 125.194 407.548 125.897 412.365 130.496 415.166 126.701 419.616 130.216 422.676 127.44 424.966 120.572 429.479 124.881 433.516 127.068 435.758 118.93 439.55 119.625 443.452 121.219 447.59 124.785 450.882 122.464 454.817 125.167 457.926 120.993 461.829 123.9 464.589 115.13 468.371 116.732 471.897 115.361 476.035 123.131 479.167 115.411 482.844 116.489 486.525 118.318 490.011 114.348 493.676 116.26 497.262 113.487 500.898 117.032 504.483 119.043 508.106 116.974 511.603 120.924 515.318 117.007 519.033 114.73 522.666 114.738 525.739 123.5 529.578 119.735 533.606 114.602 536.748 120.132 540.835 115.442 543.452 124.791 547.732 118.996 551.702 116.481 554.204 124.859 557.975 123.744 561.854 122.147 564.652 127.201 568.419 126.342 571.81 127.639 576.453 122.537 580.185 122.375 583.063 126.218 586.765 126.171 589.554 130.041 594.22 126.073 596.296 132.551 600.908 129.12 604.492 129.713 608.565 128.635 610.1 136.216 612.937 139.138 618.782 132.492 622.095 134.033 623.26 141.877 628.389 137.993 629.715 144.954 633.428 145.154 636.308 147.595 639.796 148.421 646.313 141.77 646.234 151.45 649.919 151.857 656.353 146.021 658.662 149.756 660.097 155.279 664.282 154.77 666.474 158.49 671.66 156.047 675.493 156.466 675.88 163.597 680.855 161.818 682.106 167.069 684.856 169.455 692.237 163.636 693.779 168.232 696.606 170.537 701.074 170.105 704.814 170.948 704.849 177.72 707.458 180.289 709.85 183.164 712.819 185.14 718.45 183.221 717.993 190.191 722.097 190.554 728.482 187.835 730.194 191.625 732.725 194.265 733.684 198.933 736.737 200.835 741.711 200.342 744.341 202.83 748.042 204.022 748.431 209.172 754.613 207.492 752.269 215.676 753.814 219.296 761.036 216.64 764.612 218.098 766.131 221.768 770.324 222.618 768.963 229.189 776.257 226.955 774.686 233.599 779.772 233.68 778.329 240.027 780.223 243.14 787.224 241.582 786.393 247.182 787.772 250.736 794.921 249.287 792.448 256.126 799.029 255.303 799.499 259.588 803.056 261.352 799.944 268.38 807.533 267.025 811.73 268.387 806.288 276.933 814.973 275.021 810.593 282.581 816.077 283.087 820.366 284.505 820.059 289.061 826.544 289.099 825.682 293.978 828.874 296.232 827.092 301.585 831.485 303.115 830.809 307.706 830.344 312.112 834.864 313.641 836.479 316.845 835.804 321.287 842.684 321.671 845.844 324.104 841.146 330.548 842.047 334.077 850.282 334.052 849.518 338.419 848.858 342.685 849.657 346.248 849.666 350.141 851.71 353.137 860.74 353.25 856.795 358.769 860.539 361.152 858.927 365.634 859.971 369.067 864.775 371.141 866.434 374.391 861.007 380.056 862.003 383.47 864.807 386.307 872.331 387.725 866.834 393.154 868.792 396.305 871.277 399.33 875.685 401.871 873.207 406.254 874.024 409.755 872.941 413.705 872.637 417.441 875.322 420.504 880.307 423.129 881.643 426.558 880.521 430.461 884.27 433.461 879.718 437.922 881.397 441.293 881.084 444.983 878.752 448.939 880.287 452.337 880.14 455.959 887.519 458.731 878.95 463.262 881.13 466.629 883.18 470.041 883.578 473.609 883.817 477.19 889.588 480.465 884.436 484.346 888.543 487.788 889.386 491.394 881.843 495.167 880.408 498.745 884.313 502.296" style="fill: #fff;"/>
  <polygon points="884.313 502.296 882.501 505.865 887.785 509.532 889.89 513.21 884.079 516.638 882.887 520.174 889.12 524.101 886.047 527.547 885.247 531.107 881.008 534.372 879.539 537.819 883.428 541.791 883.557 545.425 881.725 548.831 885.07 552.885 878.348 555.604 878.719 559.263 883.714 563.676 883.33 567.288 879.274 570.249 879.719 573.99 874.242 576.582 879.691 581.348 874.236 583.865 880.089 588.859 873.997 591.152 876.617 595.493 875.896 599.045 870.448 601.337 876.091 606.614 866.441 607.627 871.097 612.725 869.858 616.122 863.783 617.976 870.746 624.014 860.363 624.334 868.11 630.805 865.831 633.85 863.253 636.761 862.977 640.524 856.597 641.91 856.478 645.715 859.537 650.863 852.2 651.684 855.82 657.16 854.346 660.466 848.781 661.893 849.345 666.114 851.247 671.029 846.936 672.953 847.461 677.262 838.352 676.633 840.948 682.026 843.002 687.228 833.769 686.271 839.017 693.328 836.894 696.295 836.229 700.116 831.131 701.289 828.103 703.657 823.288 704.87 827.963 712.107 818.849 710.473 824.406 718.47 821.747 721.059 815.629 721.221 818.427 727.608 811.939 727.401 810.966 731.146 809.265 734.376 809.908 739.422 806.825 741.633 801.745 742.224 798.658 744.351 797.11 747.729 797.135 752.46 794.908 755.327 787.163 753.355 785.48 756.627 782.688 758.911 785.573 766.452 781.859 767.938 779.367 770.557 772.689 769.068 775.266 776.682 770.785 777.296 767.642 779.227 765.873 782.588 764.308 786.205 763.116 790.273 757.941 789.949 757.046 794.398 753.762 796.151 747.993 794.94 744.602 796.462 741.157 797.887 737.681 799.242 739.516 807.344 734.911 807.294 732.693 810.323 728.994 811.383 725.598 812.818 724.482 817.434 722.655 821.132 719.318 822.684 715.348 823.271 711.733 824.34 707.099 823.786 705.457 827.88 701.477 828.276 697.846 829.186 694.743 830.947 691.768 832.929 688.61 834.596 688.779 842.264 684.122 841.291 679.072 839.453 676.441 842.125 675.795 848.77 669.4 844.018 668.994 851.373 664.993 851.379 661.595 852.621 659.77 857.357 656.67 859.345 650.298 853.672 649.623 861.363 645.171 860.039 640.79 858.75 638.953 863.971 635.608 865.359 631.932 865.838 627.921 865.312 625.64 869.777 621.459 868.678 616.589 865.267 615.177 872.78 609.528 866.512 608.584 876.083 603.324 870.728 599.746 871.183 596.515 872.955 592.348 871.01 589.392 873.93 586.059 875.38 583.778 881.728 579.249 877.771 575.006 874.797 572.943 883.036 568.781 880.331 564.504 876.568 561.783 882.051 557.753 879.419 554.861 884.482 551.427 886.063 547.355 882.529 543.454 879.864 540.459 885.513 536.597 882.881 532.947 882.11 529.499 883.815 525.999 885.14 522.515 887.131 519.021 889.59 515.246 885.592 511.554 881.864 508.12 888.322 504.487 885.92 500.898 886.356 497.324 884.401 493.749 884.431 490.064 888.37 486.583 884.735 483.034 883.985 479.357 885.736 475.878 883.866 471.926 888.81 468.848 882.087 464.698 888.241 461.865 880.288 457.498 887.387 454.127 885.074 450.213 887.201 447.57 879.889 443.457 883.283 439.924 882.56 435.711 885.885 432.364 883.926 430.074 876.489 425.637 880.57 422.042 880.141 417.773 882.791 414.745 879.68 411.737 876.68 408.785 873.627 405.964 870.238 400.9 875.425 399.142 868.252 393.71 874.293 389.842 874.599 388.989 865.033 383.803 869.625 380.319 868.681 378.723 862.163 372.787 868.371 370.715 863.426 367.85 860.833 362.903 863.765 359.811 861.742 358.365 855.681 354.809 854.957 351.835 852.835 348.789 850.912 343.948 853.021 341.067 850.687 339.222 846.194 332.543 851.863 330.869 847.061 327.458 845.843 322.461 847.669 322.606 839.63 317.041 842.414 315.706 837.364 310.793 838.776 307.401 837.424 305.485 833.555 301.193 833.706 300.534 827.884 295.973 828.419 295.236 822.905 288.363 826.888 289.217 819.092 281.636 823.875 278.468 822.056 277.947 816.503 272.924 817.294 272.067 812.338 271.076 807.666 267.721 806.167 264.711 804.202 263.856 799.529 257.892 801.223 257.357 796.226 251.755 797.325 251.503 792.084 244.874 794.217 244.791 788.864 242.854 785.654 241.76 781.564 238.76 779.552 235.168 778.137 234.082 774.131 225.574 777.602 227.347 770.76 222.663 770.296 223.105 764.907 218.015 764.754 217.179 760.634 215.74 757.108 212.807 754.924 212.241 750.683 204.875 752.247 201.615 750.244 205.104 742.719 202.896 739.921 201.277 736.662 197.404 735.152 191.436 735.171 193.79 728.929 190.355 727.01 187.086 724.937 185.649 721.553 182.792 719.157 178.262 717.857 175.095 715.597 173.514 712.284 172.232 708.795 170.279 705.735 174.057 699.214 166.508 699.533 164.039 696.768 168.962 689.802 161.359 689.939 159.205 686.98 165.278 679.656 160.926 677.912 161.279 673.725 158.967 670.901 158.151 667.338 157.305 663.806 147.888 664.226 153.837 657.582 151.039 654.927 146.153 653.129 141.164 651.297 145.672 645.552 141.278 643.431 145.023 638.135 140.623 635.971 135.023 634.171 141.398 628.089 136.502 625.99 133.678 623.132 133.988 619.241 129.818 616.758 136.858 610.873 134.272 607.922 133.657 604.391 133.921 600.633 127.587 598.595 127.053 595.014 125.674 591.641 121.618 588.865 125.546 584.289 120.299 581.71 124.215 577.23 122.622 573.877 124.077 569.962 117.332 567.47 124.387 562.664 115.735 560.353 118.661 556.265 115.227 553.073 124.004 548.348 119.632 545.264 120.676 541.551 122.249 537.816 118.019 534.6 113.841 531.306 121.653 527.164 119.222 523.738 115.334 520.339 116.659 516.678 115.478 513.113 113.436 509.544 114.287 505.912 120.286 502.296 113.131 498.67 120.925 495.186 117.305 491.53 113.622 487.803 117.864 484.37 115.877 480.668 121.058 477.388 120.742 473.794 114.295 469.679 122.258 466.772 122.931 463.266 117.013 459.03 119.863 455.736 117.457 451.802 119.756 448.471 119.827 444.842 122.313 441.589 122.051 437.908 119.562 433.814 126.603 431.452 121.286 426.769 126.44 424.143 122.642 419.657 127.102 416.959 127.378 413.34 127.943 409.781 132.485 407.24 131.338 403.252 128.379 398.719 128.492 394.99 133.612 392.735 132.389 388.608 133.341 385.128 137.363 382.654 134.308 377.839 133.542 373.736 136.733 371.018 140.741 368.646 143.656 365.915 139.107 360.288 142.122 357.587 147.365 355.846 144.348 350.673 150.531 349.422 147.395 344.1 147.961 340.375 149.386 337.034 155.964 336.175 152.205 330.326 153.418 326.866 156.187 324.201 160.41 322.333 166.286 321.421 162.272 315.133 163.319 311.569 170.772 311.693 169.508 306.806 173.187 304.825 174.914 301.687 177.201 298.899 181.074 297.138 177.776 290.726 182.401 289.477 179.237 282.977 185.855 283.153 189.397 281.268 192.917 279.409 195.006 276.533 195.263 272.274 198.131 269.967 198.681 265.865 198.544 261.164 205.1 261.837 207.575 259.259 205.669 252.983 206.086 248.574 210.765 247.841 211.16 243.353 218.434 245.066 215.43 237.402 220.737 237.41 224.186 235.727 226.118 232.588 228.148 229.527 231.689 227.985 233.922 225.124 235.664 221.729 239.958 221.048 244.098 220.266 244.091 214.906 248.579 214.558 247.169 207.436 256.063 212.325 255.967 206.65 255.798 200.755 263.429 204.49 261.353 196.063 265.9 196.015 271.603 197.585 272.747 193.134 273.475 188.016 281.087 192.465 282.725 188.603 284.464 184.815 285.063 179.251 289.458 179.329 292.264 177.019 298.284 179.8 299.335 174.719 303.119 174.029 307.586 174.546 307.974 168.112 311.986 167.877 314.594 165.173 319.478 166.63 323.157 165.955 325.147 162.064 325.946 155.713 329.879 155.479 333.475 154.613 339.385 158.696 339.904 151.324 341.926 147.011 346.573 148.558 351.91 151.884 354.994 150.031 356.357 143.887 361.224 146.396 363.85 143.256 365.78 138.132 369.335 137.288 374.522 141.129 377.837 139.765 381.893 140.643 382.837 131.88 388.172 136.851 391.579 135.766 394.643 133.485 397.584 130.663 402.583 135.402 403.624 125.194 407.548 125.897 412.365 130.496 415.166 126.701 419.616 130.216 422.676 127.44 424.966 120.572 429.479 124.881 433.516 127.068 435.758 118.93 439.55 119.625 443.452 121.219 447.59 124.785 450.882 122.464 454.817 125.167 457.926 120.993 461.829 123.9 464.589 115.13 468.371 116.732 471.897 115.361 476.035 123.131 479.167 115.411 482.844 116.489 486.525 118.318 490.011 114.348 493.676 116.26 497.262 113.487 500.898 117.032 504.483 119.043 508.106 116.974 511.603 120.924 515.318 117.007 519.033 114.73 522.666 114.738 525.739 123.5 529.578 119.735 533.606 114.602 536.748 120.132 540.835 115.442 543.452 124.791 547.732 118.996 551.702 116.481 554.204 124.859 557.975 123.744 561.854 122.147 564.652 127.201 568.419 126.342 571.81 127.639 576.453 122.537 580.185 122.375 583.063 126.218 586.765 126.171 589.554 130.041 594.22 126.073 596.296 132.551 600.908 129.12 604.492 129.713 608.565 128.635 610.1 136.216 612.937 139.138 618.782 132.492 622.095 134.033 623.26 141.877 628.389 137.993 629.715 144.954 633.428 145.154 636.308 147.595 639.796 148.421 646.313 141.77 646.234 151.45 649.919 151.857 656.353 146.021 658.662 149.756 660.097 155.279 664.282 154.77 666.474 158.49 671.66 156.047 675.493 156.466 675.88 163.597 680.855 161.818 682.106 167.069 684.856 169.455 692.237 163.636 693.779 168.232 696.606 170.537 701.074 170.105 704.814 170.948 704.849 177.72 707.458 180.289 709.85 183.164 712.819 185.14 718.45 183.221 717.993 190.191 722.097 190.554 728.482 187.835 730.194 191.625 732.725 194.265 733.684 198.933 736.737 200.835 741.711 200.342 744.341 202.83 748.042 204.022 748.431 209.172 754.613 207.492 752.269 215.676 753.814 219.296 761.036 216.64 764.612 218.098 766.131 221.768 770.324 222.618 768.963 229.189 776.257 226.955 774.686 233.599 779.772 233.68 778.329 240.027 780.223 243.14 787.224 241.582 786.393 247.182 787.772 250.736 794.921 249.287 792.448 256.126 799.029 255.303 799.499 259.588 803.056 261.352 799.944 268.38 807.533 267.025 811.73 268.387 806.288 276.933 814.973 275.021 810.593 282.581 816.077 283.087 820.366 284.505 820.059 289.061 826.544 289.099 825.682 293.978 828.874 296.232 827.092 301.585 831.485 303.115 830.809 307.706 830.344 312.112 834.864 313.641 836.479 316.845 835.804 321.287 842.684 321.671 845.844 324.104 841.146 330.548 842.047 334.077 850.282 334.052 849.518 338.419 848.858 342.685 849.657 346.248 849.666 350.141 851.71 353.137 860.74 353.25 856.795 358.769 860.539 361.152 858.927 365.634 859.971 369.067 864.775 371.141 866.434 374.391 861.007 380.056 862.003 383.47 864.807 386.307 872.331 387.725 866.834 393.154 868.792 396.305 871.277 399.33 875.685 401.871 873.207 406.254 874.024 409.755 872.941 413.705 872.637 417.441 875.322 420.504 880.307 423.129 881.643 426.558 880.521 430.461 884.27 433.461 879.718 437.922 881.397 441.293 881.084 444.983 878.752 448.939 880.287 452.337 880.14 455.959 887.519 458.731 878.95 463.262 881.13 466.629 883.18 470.041 883.578 473.609 883.817 477.19 889.588 480.465 884.436 484.346 888.543 487.788 889.386 491.394 881.843 495.167 880.408 498.745 884.313 502.296" style="fill: none; stroke: #000; stroke-linecap: round; stroke-linejoin: round; stroke-width: 35px;"/>
</svg>