<?xml version="1.0" encoding="UTF-8"?>
<svg id="Sticker" xmlns="http://www.w3.org/2000/svg" width="1000" height="1000" viewBox="0 0 1000 1000">
  <polygon points="217.006 594.88 219.752 598.8 220.308 602.47 221.67 606.166 225.135 609.917 224.926 613.444 220.782 616.9 221.724 620.494 221.612 624.072 217.076 627.76 220.313 631.282 221.57 634.82 222.114 638.375 217.21 642.367 218.883 645.877 222.894 649.087 222.107 652.795 219.895 656.742 225.612 659.532 224.737 663.295 221.556 667.534 228.919 669.761 229.499 673.257 229.677 676.852 232.296 679.86 229.278 684.304 233.613 686.809 231.249 691.194 232.699 694.494 230.251 699.066 238.548 700.039 230.755 706.608 233.369 709.533 233.325 713.466 235.941 716.346 237.623 719.587 240.906 722.099 240.077 726.468 243.382 728.917 245.146 732.079 247.209 735.079 252.095 736.538 250.747 741.366 250.964 745.408 252.843 748.516 261.147 747.647 260.224 752.417 262.833 754.972 265.631 757.372 266.176 761.32 262.989 768.035 270.87 766.726 273.294 769.355 276.403 771.429 272.05 779.544 279.352 778.196 279.98 782.369 281.764 785.599 284.941 787.587 289.602 788.142 289.417 793.264 291.495 796.282 292.03 800.902 295.575 802.477 302.93 799.883 305.785 802.002 304.565 808.761 311.445 806.261 311.066 812.248 316.297 811.485 315.836 817.813 320.067 818.22 322.606 820.81 327.72 819.854 325.834 828.709 330.298 828.637 332.68 831.588 339.218 828.13 337.688 837.27 344.473 833.134 347.479 835.051 348.985 839.602 351.487 842.526 353.499 846.432 356.909 847.797 361.481 846.839 364.525 848.835 366.65 852.799 369.908 854.452 374.72 852.607 379.43 850.768 381.946 854.004 383.298 860.296 387.613 859.254 391.599 858.918 393.784 863.508 399.405 858.345 403.445 857.461 403.987 867.481 409.54 861.732 411.518 867.707 415.57 866.657 419.216 866.945 423.285 865.49 426.066 869.184 428.546 874.524 433.641 868.165 436.137 873.818 440.284 871.413 442.987 876.703 447.254 873.248 450.213 877.642 454.58 872.812 457.936 874.731 461.088 878.624 465.114 875.205 468.418 878.298 472.603 871.923 475.732 877.596 479.588 873.82 483.024 876.274 486.634 875.782 490.023 881.818 493.853 873.019 497.309 881.917 500.952 880.568 504.532 876.32 508.191 879.99 511.805 879.759 515.374 878.501 518.924 877.358 522.29 873.669 525.738 872.07 529.391 873.197 533.452 878.186 537.094 878.222 540.419 875.533 543.781 873.521 547.232 872.37 550.805 872.115 554.671 873.573 557.962 871.538 561.136 869.06 565.555 872.961 567.79 866.145 572.887 872.619 576.052 870.256 578.602 865.594 581.869 864.012 585.049 862.176 589.577 865.074 592.337 861.8 595.816 860.985 600.668 864.318 602.699 859.076 607.065 860.69 610.378 859.255 611.891 853.159 616.607 855.424 621.805 858.602 623.125 852.425 627.056 852.45 628.648 847.283 631.797 845.633 637.692 849.596 639.327 844.794 642.298 842.746 647.14 844.194 648.937 839.972 652.347 838.713 656.534 838.74 657.04 832.602 661.621 833.219 666.738 834.525 669.463 832.041 669.221 825.238 672.318 823.453 674.156 819.915 678.734 820.141 682 818.522 685.291 816.907 689.544 816.447 691.184 812.745 692.727 809.004 693.473 804.434 698.436 804.654 704.682 806.115 702.214 798.232 708.24 799.3 705.824 791.803 709.838 790.777 711.628 787.582 715.032 785.891 718.34 784.064 722.567 782.981 720.584 776.611 722.633 773.723 731.835 776.491 733.63 773.259 736.275 770.68 734.23 764.692 736.615 761.988 735.557 756.933 743.603 758 742.98 753.286 741.184 747.952 747.326 747.51 747.099 743.216 747.082 739.117 755.01 739.375 752.167 733.785 757.888 732.669 759.363 729.344 758.277 724.829 760.682 721.974 756.731 716.345 764.335 715.684 768.607 713.487 765.768 708.49 768.08 705.502 771.573 702.887 769.183 698.255 771.892 695.337 767.735 690.324 772.493 687.986 772.73 684.328 775.771 681.391 774.565 677.392 778.144 674.503 779.97 671.171 774.559 666.441 776.423 663.157 782.375 660.482 776.318 655.923 774.948 652.163 776.846 648.828 779.886 645.562 775.475 641.587 777.272 638.185 783.759 635 785.795 631.45 779.583 627.62 783.237 624.099 781.981 620.481 782.563 616.871 776.271 613.443 783.014 609.627 781.371 606.095 775.945 602.872 782.961 598.739 781.106 595.275 776.856 592.147 777.846 588.435 781.317 584.25 775.406 581.63 780.413 576.999 777.941 573.809 780.423 569.51 779.574 565.946 773.275 563.833 772.405 560.356 772.833 556.495 774.28 552.285 765.282 551.334 768.997 546.382 769.001 542.585 763.507 540.693 770.018 534.553 759.539 534.563 758.471 531.169 763.494 525.396 760.114 522.859 757.233 520.154 759.363 515.393 757.516 512.259 756.325 508.85 753.299 506.241 750.949 503.354 750.792 499.487 749.827 495.974 746.334 493.631 750.144 487.864 746.205 485.739 745.774 481.942 737.614 481.925 737.916 477.783 740.267 472.591 732.893 472.29 732.399 468.523 737.437 461.878 728.675 462.382 730.795 457.212 726.711 455.31 729.225 449.884 724.99 448.078 726.952 442.906 717.295 444.108 717.338 439.989 721.738 433.413 714.968 433.088 713.662 429.7 715.61 424.444 713.635 421.42 708.406 420.286 710.898 414.669 708.654 411.808 701.982 411.568 702.35 407.174 699.913 404.444 694.326 403.613 693.825 399.728 696.821 393.704 689.587 393.911 691.991 388.219 687.336 386.868 682.488 385.654 687.233 378.461 678.786 379.514 681.754 373.401 675.471 373.126 674.584 369.437 674.266 365.378 676.949 359.38 669.934 359.618 669.319 355.734 669.03 351.63 666.981 348.667 662.775 347.121 662.18 343.206 660.25 340.167 660.894 335.417 652.883 336.429 656.07 329.97 652.067 328.319 650.838 324.806 649.789 321.168 648.28 317.836 645.577 315.318 644.503 311.687 638.61 311.362 637.789 307.559 638.014 303.027 632.203 302.672 634.706 296.548 625.801 298.369 629.552 291.355 621.297 292.752 625.871 285.134 623.795 282.188 615.823 283.424 617.504 277.819 617.777 273.203 613.712 271.68 614.062 266.997 611.25 264.581 606.135 263.83 605.144 260.107 603.324 256.981 596.898 257.206 599.553 250.821 594.951 249.729 589.46 249.298 591.514 243.33 591.862 238.605 590.49 235.142 585.451 234.396 584.741 230.444 582.225 227.832 576.352 227.731 580.102 220.431 573.221 221.096 574.613 215.548 567.48 216.422 569.892 210.09 561.635 211.837 565.913 204.07 557.387 206.045 555.795 202.74 554.778 198.994 551.433 197.032 552.012 192.052 548.246 190.417 544.593 188.701 548.115 181.422 546.719 177.949 539.391 179.101 539.337 174.586 537.328 171.594 532.162 171.083 532.583 166.179 527.56 165.561 526.104 162.128 522.149 160.678 524.67 154.077 519.14 153.892 517.513 150.6 514.963 148.044 515.234 143.215 509.202 143.476 509.888 138.303 508.022 135.194 501.823 135.634 506.239 127.367 500.952 131.098 496.773 128.27 497.384 133.467 492.754 134.295 492.354 138.632 492.792 143.648 489.85 145.875 485.929 147.306 486.379 152.306 481.121 152.65 479.897 156.274 473.871 156.019 476.59 162.819 471.581 163.396 467.484 164.716 467.249 169.126 464.091 171.203 464.138 175.827 461.33 178.183 457.947 180.088 455.808 182.977 456.299 187.931 451.052 188.383 449.712 191.898 449.298 196.129 448.365 199.951 440.687 198.546 442.376 204.395 437.972 205.538 436.821 209.188 435.508 212.71 432.074 214.608 432.553 219.492 429.599 221.757 425.842 223.419 424.225 226.702 418.624 226.983 418.135 231.119 417.1 234.838 411.777 235.35 412.074 240.06 411.602 244.191 408.128 246.089 402.469 246.381 405.144 252.825 404.356 256.704 398.364 256.762 399.827 262.278 397.261 264.847 390.292 264.225 389.421 268.034 389.522 272.539 390.526 277.683 382.984 276.692 382.193 280.547 380.394 283.678 376.681 285.452 378.909 291.432 374.784 292.917 375.223 297.617 371.796 299.6 366.692 300.42 362.47 301.87 359.738 304.361 363.61 311.41 361.472 314.301 353.479 313.183 356.124 319.353 349.903 319.474 347.491 322.195 352.652 330.025 344.217 328.687 349.588 336.616 344.513 337.548 342.389 340.451 342.33 344.719 334.742 344.027 332.873 347.112 337.4 354.364 334.823 356.97 327.66 356.619 328.763 361.612 327.833 365.287 323.688 366.909 322.036 370.125 317.547 371.551 319.651 377.128 313.943 377.807 313.779 381.95 314.183 386.433 311.197 388.82 311.649 393.313 308.242 395.448 305.795 398.174 299.037 398.321 300.931 403.656 297.843 406.016 297.852 410.206 294.074 412.17 290.102 414.038 294.535 420.764 293.121 424.096 288.964 425.866 282.367 426.283 283.652 431.148 281.424 434.038 285.284 440.281 277.418 440.076 279.039 445.059 273.933 446.404 278.929 453.148 270.344 452.679 275.641 459.514 271.502 461.409 269.675 464.509 270.275 468.837 262.921 469.166 259.912 471.706 261.763 476.634 259.243 479.414 261.137 484.307 254.14 484.978 251.875 487.912 255.905 493.732 253.679 496.662 246.793 497.536 250.863 503.264 243.472 503.999 242.29 507.44 241.396 510.997 245.836 516.71 245.044 520.251 237.527 521.17 243.846 527.45 240.086 529.859 238.27 533.015 240.095 537.461 230.43 537.928 231.5 542.119 234.444 546.861 230.298 549.328 231.876 553.565 231.58 557.206 227.845 559.896 228.237 563.723 226.224 566.928 227.892 571.008 223.999 573.825 224.489 577.609 224.241 581.22 224.458 584.889 225.614 588.666 221.646 591.735 217.006 594.88" style="fill: #fff;"/>
  <polygon points="217.006 594.88 219.752 598.8 220.308 602.47 221.67 606.166 225.135 609.917 224.926 613.444 220.782 616.9 221.724 620.494 221.612 624.072 217.076 627.76 220.313 631.282 221.57 634.82 222.114 638.375 217.21 642.367 218.883 645.877 222.894 649.087 222.107 652.795 219.895 656.742 225.612 659.532 224.737 663.295 221.556 667.534 228.919 669.761 229.499 673.257 229.677 676.852 232.296 679.86 229.278 684.304 233.613 686.809 231.249 691.194 232.699 694.494 230.251 699.066 238.548 700.039 230.755 706.608 233.369 709.533 233.325 713.466 235.941 716.346 237.623 719.587 240.906 722.099 240.077 726.468 243.382 728.917 245.146 732.079 247.209 735.079 252.095 736.538 250.747 741.366 250.964 745.408 252.843 748.516 261.147 747.647 260.224 752.417 262.833 754.972 265.631 757.372 266.176 761.32 262.989 768.035 270.87 766.726 273.294 769.355 276.403 771.429 272.05 779.544 279.352 778.196 279.98 782.369 281.764 785.599 284.941 787.587 289.602 788.142 289.417 793.264 291.495 796.282 292.03 800.902 295.575 802.477 302.93 799.883 305.785 802.002 304.565 808.761 311.445 806.261 311.066 812.248 316.297 811.485 315.836 817.813 320.067 818.22 322.606 820.81 327.72 819.854 325.834 828.709 330.298 828.637 332.68 831.588 339.218 828.13 337.688 837.27 344.473 833.134 347.479 835.051 348.985 839.602 351.487 842.526 353.499 846.432 356.909 847.797 361.481 846.839 364.525 848.835 366.65 852.799 369.908 854.452 374.72 852.607 379.43 850.768 381.946 854.004 383.298 860.296 387.613 859.254 391.599 858.918 393.784 863.508 399.405 858.345 403.445 857.461 403.987 867.481 409.54 861.732 411.518 867.707 415.57 866.657 419.216 866.945 423.285 865.49 426.066 869.184 428.546 874.524 433.641 868.165 436.137 873.818 440.284 871.413 442.987 876.703 447.254 873.248 450.213 877.642 454.58 872.812 457.936 874.731 461.088 878.624 465.114 875.205 468.418 878.298 472.603 871.923 475.732 877.596 479.588 873.82 483.024 876.274 486.634 875.782 490.023 881.818 493.853 873.019 497.309 881.917 500.952 880.568 504.532 876.32 508.191 879.99 511.805 879.759 515.374 878.501 518.924 877.358 522.29 873.669 525.738 872.07 529.391 873.197 533.452 878.186 537.094 878.222 540.419 875.533 543.781 873.521 547.232 872.37 550.805 872.115 554.671 873.573 557.962 871.538 561.136 869.06 565.555 872.961 567.79 866.145 572.887 872.619 576.052 870.256 578.602 865.594 581.869 864.012 585.049 862.176 589.577 865.074 592.337 861.8 595.816 860.985 600.668 864.318 602.699 859.076 607.065 860.69 610.378 859.255 611.891 853.159 616.607 855.424 621.805 858.602 623.125 852.425 627.056 852.45 628.648 847.283 631.797 845.633 637.692 849.596 639.327 844.794 642.298 842.746 647.14 844.194 648.937 839.972 652.347 838.713 656.534 838.74 657.04 832.602 661.621 833.219 666.738 834.525 669.463 832.041 669.221 825.238 672.318 823.453 674.156 819.915 678.734 820.141 682 818.522 685.291 816.907 689.544 816.447 691.184 812.745 692.727 809.004 693.473 804.434 698.436 804.654 704.682 806.115 702.214 798.232 708.24 799.3 705.824 791.803 709.838 790.777 711.628 787.582 715.032 785.891 718.34 784.064 722.567 782.981 720.584 776.611 722.633 773.723 731.835 776.491 733.63 773.259 736.275 770.68 734.23 764.692 736.615 761.988 735.557 756.933 743.603 758 742.98 753.286 741.184 747.952 747.326 747.51 747.099 743.216 747.082 739.117 755.01 739.375 752.167 733.785 757.888 732.669 759.363 729.344 758.277 724.829 760.682 721.974 756.731 716.345 764.335 715.684 768.607 713.487 765.768 708.49 768.08 705.502 771.573 702.887 769.183 698.255 771.892 695.337 767.735 690.324 772.493 687.986 772.73 684.328 775.771 681.391 774.565 677.392 778.144 674.503 779.97 671.171 774.559 666.441 776.423 663.157 782.375 660.482 776.318 655.923 774.948 652.163 776.846 648.828 779.886 645.562 775.475 641.587 777.272 638.185 783.759 635 785.795 631.45 779.583 627.62 783.237 624.099 781.981 620.481 782.563 616.871 776.271 613.443 783.014 609.627 781.371 606.095 775.945 602.872 782.961 598.739 781.106 595.275 776.856 592.147 777.846 588.435 781.317 584.25 775.406 581.63 780.413 576.999 777.941 573.809 780.423 569.51 779.574 565.946 773.275 563.833 772.405 560.356 772.833 556.495 774.28 552.285 765.282 551.334 768.997 546.382 769.001 542.585 763.507 540.693 770.018 534.553 759.539 534.563 758.471 531.169 763.494 525.396 760.114 522.859 757.233 520.154 759.363 515.393 757.516 512.259 756.325 508.85 753.299 506.241 750.949 503.354 750.792 499.487 749.827 495.974 746.334 493.631 750.144 487.864 746.205 485.739 745.774 481.942 737.614 481.925 737.916 477.783 740.267 472.591 732.893 472.29 732.399 468.523 737.437 461.878 728.675 462.382 730.795 457.212 726.711 455.31 729.225 449.884 724.99 448.078 726.952 442.906 717.295 444.108 717.338 439.989 721.738 433.413 714.968 433.088 713.662 429.7 715.61 424.444 713.635 421.42 708.406 420.286 710.898 414.669 708.654 411.808 701.982 411.568 702.35 407.174 699.913 404.444 694.326 403.613 693.825 399.728 696.821 393.704 689.587 393.911 691.991 388.219 687.336 386.868 682.488 385.654 687.233 378.461 678.786 379.514 681.754 373.401 675.471 373.126 674.584 369.437 674.266 365.378 676.949 359.38 669.934 359.618 669.319 355.734 669.03 351.63 666.981 348.667 662.775 347.121 662.18 343.206 660.25 340.167 660.894 335.417 652.883 336.429 656.07 329.97 652.067 328.319 650.838 324.806 649.789 321.168 648.28 317.836 645.577 315.318 644.503 311.687 638.61 311.362 637.789 307.559 638.014 303.027 632.203 302.672 634.706 296.548 625.801 298.369 629.552 291.355 621.297 292.752 625.871 285.134 623.795 282.188 615.823 283.424 617.504 277.819 617.777 273.203 613.712 271.68 614.062 266.997 611.25 264.581 606.135 263.83 605.144 260.107 603.324 256.981 596.898 257.206 599.553 250.821 594.951 249.729 589.46 249.298 591.514 243.33 591.862 238.605 590.49 235.142 585.451 234.396 584.741 230.444 582.225 227.832 576.352 227.731 580.102 220.431 573.221 221.096 574.613 215.548 567.48 216.422 569.892 210.09 561.635 211.837 565.913 204.07 557.387 206.045 555.795 202.74 554.778 198.994 551.433 197.032 552.012 192.052 548.246 190.417 544.593 188.701 548.115 181.422 546.719 177.949 539.391 179.101 539.337 174.586 537.328 171.594 532.162 171.083 532.583 166.179 527.56 165.561 526.104 162.128 522.149 160.678 524.67 154.077 519.14 153.892 517.513 150.6 514.963 148.044 515.234 143.215 509.202 143.476 509.888 138.303 508.022 135.194 501.823 135.634 506.239 127.367 500.952 131.098 496.773 128.27 497.384 133.467 492.754 134.295 492.354 138.632 492.792 143.648 489.85 145.875 485.929 147.306 486.379 152.306 481.121 152.65 479.897 156.274 473.871 156.019 476.59 162.819 471.581 163.396 467.484 164.716 467.249 169.126 464.091 171.203 464.138 175.827 461.33 178.183 457.947 180.088 455.808 182.977 456.299 187.931 451.052 188.383 449.712 191.898 449.298 196.129 448.365 199.951 440.687 198.546 442.376 204.395 437.972 205.538 436.821 209.188 435.508 212.71 432.074 214.608 432.553 219.492 429.599 221.757 425.842 223.419 424.225 226.702 418.624 226.983 418.135 231.119 417.1 234.838 411.777 235.35 412.074 240.06 411.602 244.191 408.128 246.089 402.469 246.381 405.144 252.825 404.356 256.704 398.364 256.762 399.827 262.278 397.261 264.847 390.292 264.225 389.421 268.034 389.522 272.539 390.526 277.683 382.984 276.692 382.193 280.547 380.394 283.678 376.681 285.452 378.909 291.432 374.784 292.917 375.223 297.617 371.796 299.6 366.692 300.42 362.47 301.87 359.738 304.361 363.61 311.41 361.472 314.301 353.479 313.183 356.124 319.353 349.903 319.474 347.491 322.195 352.652 330.025 344.217 328.687 349.588 336.616 344.513 337.548 342.389 340.451 342.33 344.719 334.742 344.027 332.873 347.112 337.4 354.364 334.823 356.97 327.66 356.619 328.763 361.612 327.833 365.287 323.688 366.909 322.036 370.125 317.547 371.551 319.651 377.128 313.943 377.807 313.779 381.95 314.183 386.433 311.197 388.82 311.649 393.313 308.242 395.448 305.795 398.174 299.037 398.321 300.931 403.656 297.843 406.016 297.852 410.206 294.074 412.17 290.102 414.038 294.535 420.764 293.121 424.096 288.964 425.866 282.367 426.283 283.652 431.148 281.424 434.038 285.284 440.281 277.418 440.076 279.039 445.059 273.933 446.404 278.929 453.148 270.344 452.679 275.641 459.514 271.502 461.409 269.675 464.509 270.275 468.837 262.921 469.166 259.912 471.706 261.763 476.634 259.243 479.414 261.137 484.307 254.14 484.978 251.875 487.912 255.905 493.732 253.679 496.662 246.793 497.536 250.863 503.264 243.472 503.999 242.29 507.44 241.396 510.997 245.836 516.71 245.044 520.251 237.527 521.17 243.846 527.45 240.086 529.859 238.27 533.015 240.095 537.461 230.43 537.928 231.5 542.119 234.444 546.861 230.298 549.328 231.876 553.565 231.58 557.206 227.845 559.896 228.237 563.723 226.224 566.928 227.892 571.008 223.999 573.825 224.489 577.609 224.241 581.22 224.458 584.889 225.614 588.666 221.646 591.735 217.006 594.88" style="fill: none; stroke: #000; stroke-linecap: round; stroke-linejoin: round; stroke-width: 30px;"/>
</svg>