<?xml version="1.0" encoding="UTF-8"?>
<svg id="Sticker" xmlns="http://www.w3.org/2000/svg" width="1000" height="1000" viewBox="0 0 1000 1000">
  <polygon points="300.224 512.686 303.72 508.449 309.988 513.517 312.551 510.409 314.683 506.497 316.443 501.961 322.642 506.237 325.179 503.25 328.862 502.453 331.498 499.72 335.168 498.856 337.214 495.154 339.473 491.901 343.168 491.066 344.073 485.725 351.139 490.16 352.017 484.866 353.692 480.913 358.279 481.286 359.381 476.595 363.659 476.436 368.043 476.332 367.091 469.058 370.189 467.265 375.692 468.506 378.797 466.62 378.901 461.075 381.758 458.942 384.672 456.866 387.399 454.568 391.539 453.837 397.229 454.725 398.721 450.998 399.238 446.306 404.886 446.946 403.347 440.27 407.636 439.467 412.462 439.108 416.228 437.66 418.398 434.696 419.581 430.856 421.157 427.41 421.872 423.25 428.411 424.072 428.778 419.637 432.636 418.101 430.783 411.975 433.366 409.435 439.127 409.306 436.105 402.508 443.923 403.795 442.93 398.601 441.669 393.312 446.124 392.045 445.144 387.052 450.216 386.128 454.691 384.736 458.118 382.613 458.206 378.386 462.473 376.738 464.14 373.489 465.77 370.223 467.416 366.971 468.965 363.67 468.388 359.216 471.533 356.798 471.588 352.737 474.403 350.119 472.3 345.024 473.203 341.476 480.255 340.869 481.648 337.51 478.563 332.119 485.891 331.447 479.092 324.531 486.404 323.753 483.071 318.462 486.28 315.9 487.139 312.379 486.765 308.397 486.528 304.5 495.242 303.873 488.864 297.784 495.812 296.403 492.702 291.566 501.651 290.694 500.482 286.507 500.633 282.764 503.569 279.853 499.769 275.009 502.538 272.049 504.644 268.875 508.449 266.096 507.851 262.207 505.285 257.904 504.546 254.076 508.22 251.169 505.361 246.983 508.392 246.111 507.067 247.903 514.477 249.544 515.914 252.805 516.03 256.465 515.54 260.334 518.264 263.202 519.874 266.41 511.944 272.798 515.575 275.373 514.98 279.385 520.907 281.103 522.737 284.241 519.59 289.211 525.177 290.952 523.528 295.41 525.479 298.502 526.732 301.862 530.263 304.302 530.459 308.084 527.961 313.011 536.817 313.157 538.903 316.128 534.467 321.963 533.689 326.247 539.28 327.662 539.104 331.687 542.239 334.178 546.417 336.146 541.071 342.705 548.488 343.063 548.716 346.94 549.351 350.632 553.983 352.264 553.856 356.359 551.089 361.902 553.88 364.49 561.336 364.471 557.173 370.902 565.646 370.196 564.328 375.072 564.847 378.92 565.98 382.423 567.011 386.004 573.515 386.186 575.463 389.163 573.823 394.457 578.036 395.983 578.278 400.115 582.205 401.778 584.202 404.732 585.358 408.282 583.985 413.673 590.98 413.024 589.931 418.247 593.441 420.093 591.406 426.198 600.077 423.971 602.812 426.328 599.582 433.569 603.902 434.664 605.764 437.793 609.422 439.371 609.237 444.327 614.435 444.482 613.82 449.931 616.052 452.801 623.548 450.573 623.631 455.485 626.023 458.162 628.42 460.842 634.153 459.984 633.659 465.746 637.568 466.761 636.66 473.214 641.805 472.779 646.627 472.589 649.107 475.158 648.733 481.364 654.581 479.686 654.7 485.461 660.635 483.434 662.543 486.876 663.707 491.485 668.273 491.134 669.546 495.747 674.471 494.68 677.832 496.006 682.113 495.718 683.874 499.755 687.087 501.289 690.45 502.525 691.508 508.291 696.159 506.991 700.216 506.731 701.472 512.574 704.829 513.906 705.687 514.097 705.179 514.923 703.719 519.356 700.834 521.479 696.24 520.971 693.393 523.181 692.838 528.793 687 526.559 682.418 526.269 679.095 527.839 679.929 535.213 677.793 538.349 675.69 541.494 667.28 536.243 666.041 540.586 661.883 541.114 662.921 548.257 658.336 548.256 656.208 551.33 651.167 550.876 652.462 558.004 650.761 561.491 645.125 560.435 644.129 564.714 636.99 562.125 635.155 565.48 635.112 570.726 634.35 575.123 630.445 576.196 624.57 575.306 625.809 581.666 621.083 582.013 615.679 581.775 616.377 587.455 616.331 592.335 610.85 592.123 609.235 595.514 608.74 599.881 601.909 598.632 600.139 601.882 599.704 606.245 595.419 607.345 592.048 609.251 594.028 615.494 588.881 615.982 587.201 619.245 584.199 621.484 580.751 623.41 584.416 630.612 578.233 630.533 579.028 635.52 572.592 635.387 573.813 640.612 569.468 642.011 571.808 647.88 566.069 648.41 564.998 652.001 560.497 653.431 563.696 659.633 557.471 660.06 557.294 664.148 554.086 666.449 553.984 670.537 553.724 674.499 549.174 676.102 551.496 681.42 551.582 685.486 546.306 686.785 543.148 689.219 544.279 693.777 537.665 694.587 543.415 701.262 541.76 704.413 541.471 708.176 535.475 709.44 534.508 712.927 532.612 716.021 532.077 719.672 531.159 723.156 529.033 726.172 530.993 730.715 528.869 733.723 527.949 737.171 521.46 738.734 523.358 743.153 518.741 745.447 519.873 749.579 519.268 753.15 517.639 756.421 515.987 759.696 518.745 764.13 518.902 767.835 514.723 770.5 510.878 773.329 513.44 777.557 513.699 781.245 516.165 785.266 508.54 788.419 511.424 784.551 509.296 781.238 509.953 777.531 512.395 773.487 511.916 769.899 511.055 766.386 505.712 763.784 502.784 760.764 507.501 756.087 506.951 752.524 506.708 748.882 499.796 746.902 501.383 742.822 499.78 739.556 504.683 734.483 498.54 732.493 496.69 729.319 494.528 726.256 492.505 723.171 497.594 717.774 493.444 715.373 496.647 710.478 494.747 707.318 494.531 703.553 485.919 702.937 485.611 699.251 486.69 694.993 489.963 689.786 486.708 687.22 485.473 683.825 483.128 680.915 478.55 679.037 477.961 675.377 473.626 673.479 475.136 668.794 475.113 664.802 474.672 660.986 473.361 657.596 465.775 657.575 463.71 654.662 462.673 651.179 464.857 645.814 464.317 641.953 462.096 639.074 456.62 638.226 452.391 636.692 457.541 629.121 456.621 625.376 447.375 627.282 445.805 624.055 445.195 620.125 441.393 618.486 440.934 614.398 441.142 609.737 437.731 607.837 439.142 602.092 434.934 600.846 428.662 601.421 431.019 594.68 424.253 595.841 426.385 589.096 422.363 587.886 419.843 585.313 416.158 583.882 410.687 584.299 408.87 581.105 406.742 578.202 404.355 575.555 406.533 567.827 398.975 570.914 397.064 567.687 397.801 561.235 391.432 563.312 389.585 559.905 384.98 560.017 384.644 554.558 382.539 551.34 377.56 552.11 372.958 552.495 374.182 544.339 370.627 543.151 366.345 543.152 363.614 540.754 358.356 542.545 355.097 541.113 356.555 531.341 352.538 531.075 346.221 535.238 345.036 529.798 339.598 532.644 336.983 529.934 333.281 529.468 330.554 526.92 327.068 526.027 326.21 518.95 320.335 523.765 320.271 514.274 314.456 519.318 311.612 516.717 307.327 518.099 304.598 515.09 300.224 512.686" style="fill: #fff;"/>
  <polygon points="300.224 512.686 303.72 508.449 309.988 513.517 312.551 510.409 314.683 506.497 316.443 501.961 322.642 506.237 325.179 503.25 328.862 502.453 331.498 499.72 335.168 498.856 337.214 495.154 339.473 491.901 343.168 491.066 344.073 485.725 351.139 490.16 352.017 484.866 353.692 480.913 358.279 481.286 359.381 476.595 363.659 476.436 368.043 476.332 367.091 469.058 370.189 467.265 375.692 468.506 378.797 466.62 378.901 461.075 381.758 458.942 384.672 456.866 387.399 454.568 391.539 453.837 397.229 454.725 398.721 450.998 399.238 446.306 404.886 446.946 403.347 440.27 407.636 439.467 412.462 439.108 416.228 437.66 418.398 434.696 419.581 430.856 421.157 427.41 421.872 423.25 428.411 424.072 428.778 419.637 432.636 418.101 430.783 411.975 433.366 409.435 439.127 409.306 436.105 402.508 443.923 403.795 442.93 398.601 441.669 393.312 446.124 392.045 445.144 387.052 450.216 386.128 454.691 384.736 458.118 382.613 458.206 378.386 462.473 376.738 464.14 373.489 465.77 370.223 467.416 366.971 468.965 363.67 468.388 359.216 471.533 356.798 471.588 352.737 474.403 350.119 472.3 345.024 473.203 341.476 480.255 340.869 481.648 337.51 478.563 332.119 485.891 331.447 479.092 324.531 486.404 323.753 483.071 318.462 486.28 315.9 487.139 312.379 486.765 308.397 486.528 304.5 495.242 303.873 488.864 297.784 495.812 296.403 492.702 291.566 501.651 290.694 500.482 286.507 500.633 282.764 503.569 279.853 499.769 275.009 502.538 272.049 504.644 268.875 508.449 266.096 507.851 262.207 505.285 257.904 504.546 254.076 508.22 251.169 505.361 246.983 508.392 246.111 507.067 247.903 514.477 249.544 515.914 252.805 516.03 256.465 515.54 260.334 518.264 263.202 519.874 266.41 511.944 272.798 515.575 275.373 514.98 279.385 520.907 281.103 522.737 284.241 519.59 289.211 525.177 290.952 523.528 295.41 525.479 298.502 526.732 301.862 530.263 304.302 530.459 308.084 527.961 313.011 536.817 313.157 538.903 316.128 534.467 321.963 533.689 326.247 539.28 327.662 539.104 331.687 542.239 334.178 546.417 336.146 541.071 342.705 548.488 343.063 548.716 346.94 549.351 350.632 553.983 352.264 553.856 356.359 551.089 361.902 553.88 364.49 561.336 364.471 557.173 370.902 565.646 370.196 564.328 375.072 564.847 378.92 565.98 382.423 567.011 386.004 573.515 386.186 575.463 389.163 573.823 394.457 578.036 395.983 578.278 400.115 582.205 401.778 584.202 404.732 585.358 408.282 583.985 413.673 590.98 413.024 589.931 418.247 593.441 420.093 591.406 426.198 600.077 423.971 602.812 426.328 599.582 433.569 603.902 434.664 605.764 437.793 609.422 439.371 609.237 444.327 614.435 444.482 613.82 449.931 616.052 452.801 623.548 450.573 623.631 455.485 626.023 458.162 628.42 460.842 634.153 459.984 633.659 465.746 637.568 466.761 636.66 473.214 641.805 472.779 646.627 472.589 649.107 475.158 648.733 481.364 654.581 479.686 654.7 485.461 660.635 483.434 662.543 486.876 663.707 491.485 668.273 491.134 669.546 495.747 674.471 494.68 677.832 496.006 682.113 495.718 683.874 499.755 687.087 501.289 690.45 502.525 691.508 508.291 696.159 506.991 700.216 506.731 701.472 512.574 704.829 513.906 705.687 514.097 705.179 514.923 703.719 519.356 700.834 521.479 696.24 520.971 693.393 523.181 692.838 528.793 687 526.559 682.418 526.269 679.095 527.839 679.929 535.213 677.793 538.349 675.69 541.494 667.28 536.243 666.041 540.586 661.883 541.114 662.921 548.257 658.336 548.256 656.208 551.33 651.167 550.876 652.462 558.004 650.761 561.491 645.125 560.435 644.129 564.714 636.99 562.125 635.155 565.48 635.112 570.726 634.35 575.123 630.445 576.196 624.57 575.306 625.809 581.666 621.083 582.013 615.679 581.775 616.377 587.455 616.331 592.335 610.85 592.123 609.235 595.514 608.74 599.881 601.909 598.632 600.139 601.882 599.704 606.245 595.419 607.345 592.048 609.251 594.028 615.494 588.881 615.982 587.201 619.245 584.199 621.484 580.751 623.41 584.416 630.612 578.233 630.533 579.028 635.52 572.592 635.387 573.813 640.612 569.468 642.011 571.808 647.88 566.069 648.41 564.998 652.001 560.497 653.431 563.696 659.633 557.471 660.06 557.294 664.148 554.086 666.449 553.984 670.537 553.724 674.499 549.174 676.102 551.496 681.42 551.582 685.486 546.306 686.785 543.148 689.219 544.279 693.777 537.665 694.587 543.415 701.262 541.76 704.413 541.471 708.176 535.475 709.44 534.508 712.927 532.612 716.021 532.077 719.672 531.159 723.156 529.033 726.172 530.993 730.715 528.869 733.723 527.949 737.171 521.46 738.734 523.358 743.153 518.741 745.447 519.873 749.579 519.268 753.15 517.639 756.421 515.987 759.696 518.745 764.13 518.902 767.835 514.723 770.5 510.878 773.329 513.44 777.557 513.699 781.245 516.165 785.266 508.54 788.419 511.424 784.551 509.296 781.238 509.953 777.531 512.395 773.487 511.916 769.899 511.055 766.386 505.712 763.784 502.784 760.764 507.501 756.087 506.951 752.524 506.708 748.882 499.796 746.902 501.383 742.822 499.78 739.556 504.683 734.483 498.54 732.493 496.69 729.319 494.528 726.256 492.505 723.171 497.594 717.774 493.444 715.373 496.647 710.478 494.747 707.318 494.531 703.553 485.919 702.937 485.611 699.251 486.69 694.993 489.963 689.786 486.708 687.22 485.473 683.825 483.128 680.915 478.55 679.037 477.961 675.377 473.626 673.479 475.136 668.794 475.113 664.802 474.672 660.986 473.361 657.596 465.775 657.575 463.71 654.662 462.673 651.179 464.857 645.814 464.317 641.953 462.096 639.074 456.62 638.226 452.391 636.692 457.541 629.121 456.621 625.376 447.375 627.282 445.805 624.055 445.195 620.125 441.393 618.486 440.934 614.398 441.142 609.737 437.731 607.837 439.142 602.092 434.934 600.846 428.662 601.421 431.019 594.68 424.253 595.841 426.385 589.096 422.363 587.886 419.843 585.313 416.158 583.882 410.687 584.299 408.87 581.105 406.742 578.202 404.355 575.555 406.533 567.827 398.975 570.914 397.064 567.687 397.801 561.235 391.432 563.312 389.585 559.905 384.98 560.017 384.644 554.558 382.539 551.34 377.56 552.11 372.958 552.495 374.182 544.339 370.627 543.151 366.345 543.152 363.614 540.754 358.356 542.545 355.097 541.113 356.555 531.341 352.538 531.075 346.221 535.238 345.036 529.798 339.598 532.644 336.983 529.934 333.281 529.468 330.554 526.92 327.068 526.027 326.21 518.95 320.335 523.765 320.271 514.274 314.456 519.318 311.612 516.717 307.327 518.099 304.598 515.09 300.224 512.686" style="fill: none; stroke: #000; stroke-linecap: round; stroke-linejoin: round; stroke-width: 40px;"/>
</svg>