<?xml version="1.0" encoding="UTF-8"?>
<svg id="Sticker" xmlns="http://www.w3.org/2000/svg" width="1000" height="1000" viewBox="0 0 1000 1000">
  <polygon points="500.907 897.466 495.617 894.628 497.729 887.427 493.988 886.08 488.056 886.924 484.784 885.109 487.838 876.969 482.212 877.509 481.336 873.299 475.573 873.977 472.518 871.946 475.299 864.08 470.866 863.427 469.301 859.906 467.723 856.397 462.829 856.205 458.198 855.748 460.719 848.138 453.286 850.482 450.443 848.234 452.563 841.022 449.727 838.764 441.417 841.982 443.466 834.842 443.026 830.192 433.977 834.151 433.116 829.923 430.295 827.656 429.895 822.968 426.293 821.483 423.967 818.722 421.879 815.723 420.573 811.94 417.173 810.253 412.329 810.008 409.224 808.024 411.783 800.376 404.14 802.928 401.715 800.26 401.33 795.551 397.68 794.108 394.002 792.694 392.714 788.891 391.287 785.228 390.396 781.029 386.658 779.679 384.563 776.684 384.66 771.498 379.363 771.706 373.754 772.226 374.633 766.257 373.281 762.518 371.599 759.109 367.992 757.623 361.869 758.651 360.309 755.117 361.54 748.794 354.952 750.291 356.561 743.592 347.944 747.119 351.303 738.669 345.776 739.106 345.823 733.969 344.074 730.627 340.669 728.94 337.774 726.741 330.387 729.033 327.638 726.688 329.977 719.257 326.003 718.139 325.568 713.483 320.932 713.029 318.86 710.009 314.247 709.53 314.593 704.092 310.476 703.115 308.5 699.996 305.752 697.65 301.773 696.536 299.19 694.027 297.594 690.531 293 690.034 291.156 686.789 288.036 684.818 286.703 681.057 283.322 679.344 281.401 676.174 278.843 673.644 274.041 673.36 273.609 668.707 272.381 664.851 266.345 665.804 264.577 662.487 267.507 654.472 261.011 655.881 261.493 650.309 254.162 652.548 255.373 646.242 250.114 646.405 250.546 640.881 246.038 640.299 243.449 637.8 240.901 635.26 238.103 632.969 233.096 632.887 231.106 629.786 232.542 623.255 228.809 621.89 224.307 621.297 222.685 617.826 220.907 614.512 218.478 611.851 213.663 611.574 215.424 604.719 212.887 602.159 204.745 605.203 205.131 599.722 200.164 599.596 198.632 596.034 196.025 593.547 192.037 592.435 194.324 585.051 190.279 584.001 186.576 582.609 183.245 580.842 181.195 577.792 177.498 576.392 175.363 573.43 174.407 569.288 172.884 565.71 172.027 561.47 168.301 560.098 163.877 559.421 165.084 553.116 163.314 549.798 156.626 551.395 153.866 549.057 151.375 546.45 150.303 542.429 145.395 542.24 144.523 538.009 142.011 535.425 142.234 530.099 140.029 527.203 132.34 529.788 128.729 528.297 130.885 521.037 129.502 517.313 127.542 514.177 124.315 512.302 117.956 513.553 115.484 510.916 116.938 504.352 112.277 503.895 107.858 502.298 110.955 499.403 110.405 493.764 114.559 492.831 115.434 488.618 119.228 487.325 121.242 484.253 126.907 484.833 125.698 478.538 134.583 482.337 131.985 474.653 135.945 473.528 140.205 472.702 139.273 466.684 141.956 464.28 149.287 466.524 148.555 460.705 149.325 456.386 154.153 456.124 159.638 456.518 159.847 451.635 161.173 447.869 167.754 449.357 164.256 440.767 168.144 439.565 170.966 437.298 173.743 434.986 179.646 435.801 178.443 429.51 181.518 427.497 186.189 427.082 185.892 421.697 189.489 420.207 193.099 418.728 196.642 417.183 200.096 415.548 203.017 413.379 206.134 411.405 204.36 404.539 208.284 403.369 212.375 402.367 210.854 395.754 216.971 396.779 218.926 393.645 218.916 388.545 220.234 384.774 225.762 385.213 231.072 385.434 229.129 378.403 236.451 380.635 234.078 373.172 238.809 372.812 238.423 367.335 242.473 366.291 243.951 362.675 248.841 362.471 253.493 362.031 250.424 353.871 258.243 356.599 256.169 349.435 260.268 348.444 265.1 348.187 267.174 345.17 267.87 340.775 274.25 342.063 272.014 334.733 276.425 334.049 277.432 329.963 281.133 328.571 285.047 327.393 289.06 326.315 286.686 318.85 289.389 316.462 294.451 316.432 298.589 315.478 299.155 310.949 302.843 309.542 305.899 307.504 304.374 300.887 311.027 302.448 314.542 300.871 318.258 299.495 314.671 290.82 322.565 293.623 320.945 286.908 324.832 285.702 327.458 283.237 332.621 283.313 330.484 276.089 334.207 274.727 339.068 274.504 338.94 269.292 344.224 269.492 346.931 267.114 349.642 264.738 349.475 259.482 353.499 258.413 354.927 254.745 358.832 253.555 363.658 253.289 360.386 244.926 363.372 242.824 370.133 244.497 371.224 240.5 374.068 238.255 374.868 233.964 376.371 230.372 384.4 233.303 381.998 225.805 385.068 223.782 386.898 220.521 388.042 216.575 397.085 220.526 393.009 211.356 398.269 211.519 400.493 208.644 403.326 206.383 404.945 202.909 411.642 204.512 409.588 197.363 414.147 196.824 413.5 191.079 419.661 192.144 418.882 186.27 423.38 185.671 429.934 187.125 430.761 182.854 432.254 179.251 435.007 176.906 438.35 175.149 439.586 171.288 442.19 168.793 443.35 164.852 448.449 164.853 446.727 158.043 455.035 161.26 458.04 159.166 459.214 155.243 457.733 148.669 462.912 148.751 466.659 147.395 467.7 143.34 472.673 143.209 473.35 138.786 478.753 139.084 476.632 131.861 480.994 131.119 485.125 130.143 487.642 127.565 486.556 121.376 487.189 116.902 493.136 117.74 493.818 113.312 497.086 111.461 500.911 114.897 504.188 111.955 508.072 113.16 507.301 119.019 510.259 121.148 511.499 124.995 517.529 124.052 515.354 131.312 520.419 131.333 521.391 135.447 528.359 133.564 531.707 135.302 533.727 138.367 531.745 145.436 537.825 144.443 541.595 145.759 539.695 152.747 542.762 154.769 548.788 153.832 549.285 158.426 552.699 160.104 553.931 163.965 557.132 165.857 559.056 169.024 564.601 168.569 567.075 171.185 566.637 176.711 566.351 182.086 574.451 179.073 576.294 182.318 579.444 184.255 577.042 191.744 581.492 192.382 585.642 193.319 584.339 199.711 591.32 197.82 593.773 200.456 592.888 206.432 597.038 207.375 598.425 211.081 602.269 212.331 608.531 211.161 605.08 219.703 610.726 219.147 615.257 219.706 613.071 226.981 619.966 225.175 620.712 229.517 625.093 230.225 627.798 232.609 625.533 239.964 629.589 240.999 630.365 245.315 632.31 248.464 639.282 246.586 638.09 252.871 642.099 253.954 645.45 255.694 647.366 258.869 649.216 262.109 655.665 260.75 653.48 268.025 658.358 268.237 658.452 273.235 665.56 271.219 666.77 275.102 671.772 275.196 674.004 278.057 676.334 280.82 673.6 288.645 679.099 288.237 678.922 293.505 680.783 296.735 687.584 295.027 691.489 296.213 690.963 301.834 693.17 304.722 699.773 303.213 699.631 308.448 704.634 308.537 702.336 315.927 703.534 319.82 708.371 320.071 713.702 319.832 717.424 321.204 716.517 327.204 716.441 332.371 718.939 334.961 721.601 337.385 727.343 336.728 727.104 342.051 735.375 338.864 734.682 344.641 738.807 345.602 737.98 351.515 739.337 355.248 743.61 356.068 750.423 354.351 753.403 356.466 753.292 361.669 758.106 361.945 760.036 365.104 760.357 369.87 761.224 374.092 764.676 375.729 768.97 376.526 768.254 382.336 773.077 382.611 772.783 388.001 778.43 387.446 782.586 388.382 780.113 395.946 782.613 398.537 789.714 396.53 791.494 399.848 792.607 403.832 797.808 403.726 796.279 410.349 798.194 413.527 800.803 416.013 804.441 417.474 808.293 418.719 808.333 423.775 815.049 422.154 818.33 423.97 819.94 427.461 819.432 433.066 826.122 431.472 830.157 432.536 830.948 436.845 834.709 438.181 834.549 443.44 835.204 447.885 839.528 448.659 842.256 451.019 846.548 451.818 848.009 455.456 847.579 460.983 852.657 460.999 858.098 460.654 855.376 468.479 858.992 469.96 865.275 468.78 866.134 473.021 869.581 474.679 869.383 479.979 870.392 484.074 871.84 487.732 879.726 484.943 877.647 492.123 884.815 490.064 886.822 493.166 891.449 493.649 889.505 500.712 895.469 502.289 887.826 502.173 884.976 504.412 885.431 509.955 881.044 510.656 882.308 517.006 880.2 519.984 872.55 517.42 874.434 524.39 870.419 525.461 869.773 529.9 866.515 531.727 862.619 532.918 859.443 534.828 859.861 540.332 854.399 539.957 853.215 543.86 846.466 542.2 846.247 547.071 842.372 548.287 839.711 550.717 842.967 559.067 839.853 561.045 834.984 561.267 833.367 564.741 829.622 566.085 827.486 569.038 823.853 570.493 824.225 575.953 821.788 578.604 815.594 577.496 812.468 579.459 813.766 585.844 812.602 589.767 804.395 586.649 801.375 588.718 803.706 596.139 795.427 592.952 797.773 600.39 795.794 603.504 791.467 604.27 788.09 605.985 788.161 611.147 781.114 609.191 784.078 617.244 777.792 616.047 779.376 622.72 770.742 619.175 767.905 621.427 770.751 629.363 765.426 629.127 765.687 634.479 759.142 633.026 759.467 638.444 756.597 640.669 751.641 640.806 752.282 646.539 749.221 648.57 742.52 646.958 742.59 652.119 740.915 655.533 734.422 654.131 732.944 657.744 735.008 664.898 727.064 662.047 731.062 671.138 723.58 668.751 723.2 673.465 716.727 672.085 720.631 681.08 713.629 679.169 710.595 681.226 709.721 685.443 710.691 691.505 707.103 693.01 704.744 695.745 702.599 698.694 696.666 697.856 697.325 703.607 694.602 705.976 691.696 708.162 687.788 709.346 686.988 713.634 682.718 714.456 680.838 717.67 673.543 715.469 672.317 719.333 671.787 723.891 666.598 723.788 665.332 727.607 665.059 732.418 664.189 736.632 662.297 739.824 654.328 736.941 652.453 740.153 651.633 744.422 648.669 746.55 648.494 751.471 646.742 754.814 639.479 752.644 639.806 758.061 636.951 760.295 632.561 760.992 633.393 766.912 624.934 763.542 623.233 766.933 620.027 768.821 618.504 772.396 616.928 775.916 618.124 782.205 612.146 781.318 607.561 781.824 610.888 790.243 606.519 790.968 602.436 791.981 597.17 791.813 598.523 798.261 597.92 802.752 595 804.925 593.392 808.412 590.258 810.377 584.253 809.47 579.313 809.625 581.292 816.698 578.755 819.259 578.279 823.883 572.118 822.82 571.323 827.121 565.31 826.207 563.219 829.215 559.623 830.716 561.851 838.043 554.706 835.999 555.305 841.697 551.471 842.951 550.639 847.209 547.936 849.604 546.148 852.914 544.291 856.151 540.69 857.646 537.368 859.427 533.669 860.825 528.502 860.761 531.893 869.252 526.83 869.294 521.766 869.332 520.095 872.765 521.615 879.391 517.444 880.316 513.524 881.499 510.563 883.645 505.631 883.822 502.798 886.1 505.661 893.259 500.907 897.466" style="fill: #fff;"/>
  <polygon points="500.907 897.466 495.617 894.628 497.729 887.427 493.988 886.08 488.056 886.924 484.784 885.109 487.838 876.969 482.212 877.509 481.336 873.299 475.573 873.977 472.518 871.946 475.299 864.08 470.866 863.427 469.301 859.906 467.723 856.397 462.829 856.205 458.198 855.748 460.719 848.138 453.286 850.482 450.443 848.234 452.563 841.022 449.727 838.764 441.417 841.982 443.466 834.842 443.026 830.192 433.977 834.151 433.116 829.923 430.295 827.656 429.895 822.968 426.293 821.483 423.967 818.722 421.879 815.723 420.573 811.94 417.173 810.253 412.329 810.008 409.224 808.024 411.783 800.376 404.14 802.928 401.715 800.26 401.33 795.551 397.68 794.108 394.002 792.694 392.714 788.891 391.287 785.228 390.396 781.029 386.658 779.679 384.563 776.684 384.66 771.498 379.363 771.706 373.754 772.226 374.633 766.257 373.281 762.518 371.599 759.109 367.992 757.623 361.869 758.651 360.309 755.117 361.54 748.794 354.952 750.291 356.561 743.592 347.944 747.119 351.303 738.669 345.776 739.106 345.823 733.969 344.074 730.627 340.669 728.94 337.774 726.741 330.387 729.033 327.638 726.688 329.977 719.257 326.003 718.139 325.568 713.483 320.932 713.029 318.86 710.009 314.247 709.53 314.593 704.092 310.476 703.115 308.5 699.996 305.752 697.65 301.773 696.536 299.19 694.027 297.594 690.531 293 690.034 291.156 686.789 288.036 684.818 286.703 681.057 283.322 679.344 281.401 676.174 278.843 673.644 274.041 673.36 273.609 668.707 272.381 664.851 266.345 665.804 264.577 662.487 267.507 654.472 261.011 655.881 261.493 650.309 254.162 652.548 255.373 646.242 250.114 646.405 250.546 640.881 246.038 640.299 243.449 637.8 240.901 635.26 238.103 632.969 233.096 632.887 231.106 629.786 232.542 623.255 228.809 621.89 224.307 621.297 222.685 617.826 220.907 614.512 218.478 611.851 213.663 611.574 215.424 604.719 212.887 602.159 204.745 605.203 205.131 599.722 200.164 599.596 198.632 596.034 196.025 593.547 192.037 592.435 194.324 585.051 190.279 584.001 186.576 582.609 183.245 580.842 181.195 577.792 177.498 576.392 175.363 573.43 174.407 569.288 172.884 565.71 172.027 561.47 168.301 560.098 163.877 559.421 165.084 553.116 163.314 549.798 156.626 551.395 153.866 549.057 151.375 546.45 150.303 542.429 145.395 542.24 144.523 538.009 142.011 535.425 142.234 530.099 140.029 527.203 132.34 529.788 128.729 528.297 130.885 521.037 129.502 517.313 127.542 514.177 124.315 512.302 117.956 513.553 115.484 510.916 116.938 504.352 112.277 503.895 107.858 502.298 110.955 499.403 110.405 493.764 114.559 492.831 115.434 488.618 119.228 487.325 121.242 484.253 126.907 484.833 125.698 478.538 134.583 482.337 131.985 474.653 135.945 473.528 140.205 472.702 139.273 466.684 141.956 464.28 149.287 466.524 148.555 460.705 149.325 456.386 154.153 456.124 159.638 456.518 159.847 451.635 161.173 447.869 167.754 449.357 164.256 440.767 168.144 439.565 170.966 437.298 173.743 434.986 179.646 435.801 178.443 429.51 181.518 427.497 186.189 427.082 185.892 421.697 189.489 420.207 193.099 418.728 196.642 417.183 200.096 415.548 203.017 413.379 206.134 411.405 204.36 404.539 208.284 403.369 212.375 402.367 210.854 395.754 216.971 396.779 218.926 393.645 218.916 388.545 220.234 384.774 225.762 385.213 231.072 385.434 229.129 378.403 236.451 380.635 234.078 373.172 238.809 372.812 238.423 367.335 242.473 366.291 243.951 362.675 248.841 362.471 253.493 362.031 250.424 353.871 258.243 356.599 256.169 349.435 260.268 348.444 265.1 348.187 267.174 345.17 267.87 340.775 274.25 342.063 272.014 334.733 276.425 334.049 277.432 329.963 281.133 328.571 285.047 327.393 289.06 326.315 286.686 318.85 289.389 316.462 294.451 316.432 298.589 315.478 299.155 310.949 302.843 309.542 305.899 307.504 304.374 300.887 311.027 302.448 314.542 300.871 318.258 299.495 314.671 290.82 322.565 293.623 320.945 286.908 324.832 285.702 327.458 283.237 332.621 283.313 330.484 276.089 334.207 274.727 339.068 274.504 338.94 269.292 344.224 269.492 346.931 267.114 349.642 264.738 349.475 259.482 353.499 258.413 354.927 254.745 358.832 253.555 363.658 253.289 360.386 244.926 363.372 242.824 370.133 244.497 371.224 240.5 374.068 238.255 374.868 233.964 376.371 230.372 384.4 233.303 381.998 225.805 385.068 223.782 386.898 220.521 388.042 216.575 397.085 220.526 393.009 211.356 398.269 211.519 400.493 208.644 403.326 206.383 404.945 202.909 411.642 204.512 409.588 197.363 414.147 196.824 413.5 191.079 419.661 192.144 418.882 186.27 423.38 185.671 429.934 187.125 430.761 182.854 432.254 179.251 435.007 176.906 438.35 175.149 439.586 171.288 442.19 168.793 443.35 164.852 448.449 164.853 446.727 158.043 455.035 161.26 458.04 159.166 459.214 155.243 457.733 148.669 462.912 148.751 466.659 147.395 467.7 143.34 472.673 143.209 473.35 138.786 478.753 139.084 476.632 131.861 480.994 131.119 485.125 130.143 487.642 127.565 486.556 121.376 487.189 116.902 493.136 117.74 493.818 113.312 497.086 111.461 500.911 114.897 504.188 111.955 508.072 113.16 507.301 119.019 510.259 121.148 511.499 124.995 517.529 124.052 515.354 131.312 520.419 131.333 521.391 135.447 528.359 133.564 531.707 135.302 533.727 138.367 531.745 145.436 537.825 144.443 541.595 145.759 539.695 152.747 542.762 154.769 548.788 153.832 549.285 158.426 552.699 160.104 553.931 163.965 557.132 165.857 559.056 169.024 564.601 168.569 567.075 171.185 566.637 176.711 566.351 182.086 574.451 179.073 576.294 182.318 579.444 184.255 577.042 191.744 581.492 192.382 585.642 193.319 584.339 199.711 591.32 197.82 593.773 200.456 592.888 206.432 597.038 207.375 598.425 211.081 602.269 212.331 608.531 211.161 605.08 219.703 610.726 219.147 615.257 219.706 613.071 226.981 619.966 225.175 620.712 229.517 625.093 230.225 627.798 232.609 625.533 239.964 629.589 240.999 630.365 245.315 632.31 248.464 639.282 246.586 638.09 252.871 642.099 253.954 645.45 255.694 647.366 258.869 649.216 262.109 655.665 260.75 653.48 268.025 658.358 268.237 658.452 273.235 665.56 271.219 666.77 275.102 671.772 275.196 674.004 278.057 676.334 280.82 673.6 288.645 679.099 288.237 678.922 293.505 680.783 296.735 687.584 295.027 691.489 296.213 690.963 301.834 693.17 304.722 699.773 303.213 699.631 308.448 704.634 308.537 702.336 315.927 703.534 319.82 708.371 320.071 713.702 319.832 717.424 321.204 716.517 327.204 716.441 332.371 718.939 334.961 721.601 337.385 727.343 336.728 727.104 342.051 735.375 338.864 734.682 344.641 738.807 345.602 737.98 351.515 739.337 355.248 743.61 356.068 750.423 354.351 753.403 356.466 753.292 361.669 758.106 361.945 760.036 365.104 760.357 369.87 761.224 374.092 764.676 375.729 768.97 376.526 768.254 382.336 773.077 382.611 772.783 388.001 778.43 387.446 782.586 388.382 780.113 395.946 782.613 398.537 789.714 396.53 791.494 399.848 792.607 403.832 797.808 403.726 796.279 410.349 798.194 413.527 800.803 416.013 804.441 417.474 808.293 418.719 808.333 423.775 815.049 422.154 818.33 423.97 819.94 427.461 819.432 433.066 826.122 431.472 830.157 432.536 830.948 436.845 834.709 438.181 834.549 443.44 835.204 447.885 839.528 448.659 842.256 451.019 846.548 451.818 848.009 455.456 847.579 460.983 852.657 460.999 858.098 460.654 855.376 468.479 858.992 469.96 865.275 468.78 866.134 473.021 869.581 474.679 869.383 479.979 870.392 484.074 871.84 487.732 879.726 484.943 877.647 492.123 884.815 490.064 886.822 493.166 891.449 493.649 889.505 500.712 895.469 502.289 887.826 502.173 884.976 504.412 885.431 509.955 881.044 510.656 882.308 517.006 880.2 519.984 872.55 517.42 874.434 524.39 870.419 525.461 869.773 529.9 866.515 531.727 862.619 532.918 859.443 534.828 859.861 540.332 854.399 539.957 853.215 543.86 846.466 542.2 846.247 547.071 842.372 548.287 839.711 550.717 842.967 559.067 839.853 561.045 834.984 561.267 833.367 564.741 829.622 566.085 827.486 569.038 823.853 570.493 824.225 575.953 821.788 578.604 815.594 577.496 812.468 579.459 813.766 585.844 812.602 589.767 804.395 586.649 801.375 588.718 803.706 596.139 795.427 592.952 797.773 600.39 795.794 603.504 791.467 604.27 788.09 605.985 788.161 611.147 781.114 609.191 784.078 617.244 777.792 616.047 779.376 622.72 770.742 619.175 767.905 621.427 770.751 629.363 765.426 629.127 765.687 634.479 759.142 633.026 759.467 638.444 756.597 640.669 751.641 640.806 752.282 646.539 749.221 648.57 742.52 646.958 742.59 652.119 740.915 655.533 734.422 654.131 732.944 657.744 735.008 664.898 727.064 662.047 731.062 671.138 723.58 668.751 723.2 673.465 716.727 672.085 720.631 681.08 713.629 679.169 710.595 681.226 709.721 685.443 710.691 691.505 707.103 693.01 704.744 695.745 702.599 698.694 696.666 697.856 697.325 703.607 694.602 705.976 691.696 708.162 687.788 709.346 686.988 713.634 682.718 714.456 680.838 717.67 673.543 715.469 672.317 719.333 671.787 723.891 666.598 723.788 665.332 727.607 665.059 732.418 664.189 736.632 662.297 739.824 654.328 736.941 652.453 740.153 651.633 744.422 648.669 746.55 648.494 751.471 646.742 754.814 639.479 752.644 639.806 758.061 636.951 760.295 632.561 760.992 633.393 766.912 624.934 763.542 623.233 766.933 620.027 768.821 618.504 772.396 616.928 775.916 618.124 782.205 612.146 781.318 607.561 781.824 610.888 790.243 606.519 790.968 602.436 791.981 597.17 791.813 598.523 798.261 597.92 802.752 595 804.925 593.392 808.412 590.258 810.377 584.253 809.47 579.313 809.625 581.292 816.698 578.755 819.259 578.279 823.883 572.118 822.82 571.323 827.121 565.31 826.207 563.219 829.215 559.623 830.716 561.851 838.043 554.706 835.999 555.305 841.697 551.471 842.951 550.639 847.209 547.936 849.604 546.148 852.914 544.291 856.151 540.69 857.646 537.368 859.427 533.669 860.825 528.502 860.761 531.893 869.252 526.83 869.294 521.766 869.332 520.095 872.765 521.615 879.391 517.444 880.316 513.524 881.499 510.563 883.645 505.631 883.822 502.798 886.1 505.661 893.259 500.907 897.466" style="fill: none; stroke: #000; stroke-linecap: round; stroke-linejoin: round; stroke-width: 35px;"/>
</svg>