<?xml version="1.0" encoding="UTF-8"?>
<svg id="Sticker" xmlns="http://www.w3.org/2000/svg" width="1000" height="1000" viewBox="0 0 1000 1000">
  <polygon points="888.186 370.167 882.863 375.584 879.273 371.282 875.683 371.541 872.092 369.609 868.5 372.083 864.909 367.781 861.318 369.67 857.728 370.284 854.137 373.609 850.547 366.999 846.955 369.56 843.363 373.601 839.772 376.213 836.181 369.236 832.595 371.576 829.01 366.923 825.424 371.898 821.838 375.355 818.25 367.451 814.66 369.155 811.067 372.733 807.476 374.423 803.887 375.225 800.299 373.858 796.711 367.948 793.123 367.076 789.533 367.956 785.941 373.258 782.348 376.843 778.758 371.173 775.169 371.519 771.579 372.181 767.989 375.297 764.395 371.291 760.803 371.788 757.212 376.001 753.621 368.713 750.029 368.635 746.435 376.537 742.843 371.652 739.251 369.195 735.658 372.918 732.064 372.353 728.472 375.769 724.879 369.777 721.284 372.779 717.692 371.886 714.097 369.021 710.503 373.518 706.909 376.295 703.315 371.735 699.72 370.694 696.129 370.268 692.535 368.156 688.944 376.304 685.35 372.597 681.757 368.928 678.161 375.062 674.567 367.914 670.972 376.342 667.374 368.006 663.777 375.905 660.18 368.51 656.584 373.067 652.987 372.29 649.389 368.296 645.786 373.249 643.751 370.312 645.626 368.296 646.058 364.706 642.761 361.116 643.5 357.525 646.732 353.933 641.176 350.341 639.87 346.751 644.881 343.16 638.125 339.57 646.258 335.979 647.137 332.387 646.061 328.795 637.489 325.204 641.872 321.614 641.765 318.028 642.603 314.442 637.736 310.856 637.313 307.27 640.411 303.682 643.438 300.092 639.593 296.499 643.179 292.908 637.66 289.319 640.299 285.731 643.39 282.144 646.654 278.555 640.422 274.966 642.223 271.373 642.228 267.781 637.949 264.19 637.926 260.601 641.035 257.012 643.733 253.421 641.333 249.828 642.018 246.235 638.779 242.644 642.557 239.054 639.185 235.462 637.427 231.867 643.013 228.275 640.84 224.684 642.52 221.091 646.709 217.497 640.916 213.904 638.804 210.311 646.408 206.717 639.54 203.124 638.135 199.529 642.67 195.936 643.739 192.341 641.058 188.747 643.325 185.152 642.093 181.562 645.769 177.967 638.929 174.377 644.3 170.782 644.284 167.189 642.867 163.593 643.837 160 646.753 156.404 647.034 152.807 643.927 149.21 643.072 145.612 641.462 142.016 637.799 138.419 637.867 134.822 641.921 131.218 641.302 128.496 638.574 128.74 634.966 124.142 631.359 127.268 627.752 128.363 624.146 128.693 620.539 123.504 616.931 124.859 613.323 128.517 609.714 127.298 606.107 124.582 602.5 129.826 598.893 128.354 595.285 124.477 591.677 131.279 588.068 131.13 584.461 130.513 580.853 132.355 577.251 128.326 573.649 131.85 570.046 128.363 566.443 128.788 562.838 125.059 559.232 132.609 555.622 123.07 552.015 124.503 548.409 123.039 544.804 124.383 541.2 124.67 537.595 126.663 533.989 124.09 530.38 126.022 526.771 126.203 523.163 126.669 519.557 130.3 515.951 126.791 512.344 124.979 508.734 125.02 505.125 132.565 501.517 129.244 497.91 130.039 494.302 131.027 490.69 129.23 487.081 122.737 483.473 129.862 479.864 130.207 476.253 131.383 472.644 122.907 469.034 129.392 465.423 127.166 461.813 126.38 458.202 127.41 454.592 130.451 450.981 126.783 447.37 126.154 443.758 123.251 440.151 124.578 436.54 131.503 432.933 131.863 429.321 125.999 425.712 132.388 422.099 127.561 418.489 131.461 414.877 126.222 411.263 128.487 407.649 127.943 404.035 131.733 400.422 123.422 396.808 126.019 393.194 124.896 389.574 131.366 382.582 124.215 388.244 131.205 388.141 134.795 384.961 138.385 383.64 141.976 381.176 145.568 381.565 149.159 384.504 152.75 384.073 156.34 381.422 159.931 381.3 163.522 384.959 167.114 388.526 170.705 386.518 174.296 381.197 177.887 383.741 181.473 385.464 185.058 381.896 188.644 388.625 192.231 390.75 195.819 381.38 199.409 388.513 203.001 383.346 206.592 385.46 210.181 386.134 213.769 388.557 217.357 385.631 220.945 380.992 224.535 388.297 228.127 383.271 231.72 386.428 235.31 381.715 238.899 385.844 242.489 381.974 246.08 387.393 249.673 385.949 253.265 382.48 256.856 386.334 260.447 383.596 264.039 390.327 267.633 384.925 271.225 388.961 274.817 386.713 278.41 387.378 282.004 381.472 285.596 390.369 289.189 381.527 292.784 382.895 296.377 387.124 299.971 383.397 303.565 383.532 307.159 384.657 310.753 385.628 314.348 389.113 317.939 390.469 321.533 389.051 325.124 383.711 328.718 383.302 332.311 385.596 335.907 387.173 339.501 387.844 343.097 387.57 346.694 385.518 350.291 386.966 353.888 388.828 357.484 384.15 361.081 390.368 364.679 382.948 368.282 384.947 370.883 382.364 374.386 378.774 375.102 375.184 376.044 371.593 372.021 368.001 374.376 364.409 374.125 360.819 369.462 357.228 373.783 353.638 370.817 350.047 371.032 346.455 376.199 342.863 372.369 339.272 367.466 335.682 372.645 332.096 371.05 328.51 375.105 324.925 375.269 321.338 369.138 317.75 372.707 314.16 373.17 310.567 369.621 306.976 372.463 303.387 371.883 299.799 369.756 296.212 374.761 292.623 371.83 289.034 367.984 285.442 368.571 281.849 374.349 278.259 374.054 274.669 375.868 271.08 372.979 267.489 372.306 263.896 371.567 260.303 369.275 256.713 371.099 253.122 372.966 249.53 375.932 245.935 372.467 242.343 367.171 238.752 374.604 235.159 369.646 231.565 376.664 227.972 374.512 224.379 375.416 220.785 374.064 217.192 372.825 213.597 370.353 210.004 375.987 206.409 376.244 202.815 367.332 199.22 367.901 195.63 367.344 192.035 372.534 188.445 372.158 184.85 375.9 181.258 368.618 177.662 371.706 174.068 376.062 170.472 371.043 166.875 373.415 163.278 375.456 159.68 368.384 156.084 373.515 152.488 368.931 148.89 369.08 145.286 372 141.057 371.261 146.682 375.494 139.935 379.102 136.8 382.709 141.256 386.316 140.128 389.922 137.71 393.529 141.458 397.137 139.772 400.745 145.214 404.354 141.293 407.961 142.03 411.568 139.818 415.175 141.933 418.783 139.081 422.391 137.983 426 144.203 429.607 142.953 433.214 137.518 436.817 144.188 440.419 146.053 444.022 144.57 447.625 141.893 451.229 146.649 454.836 145.121 458.446 138.848 462.053 136.987 465.659 143.327 469.264 139.745 472.868 141.023 476.473 140.411 480.079 146.627 483.688 139.751 487.297 141.216 490.904 146.426 494.51 139.11 498.116 140.643 501.724 144.525 505.334 143.055 508.943 138.986 512.55 144.361 516.157 138.566 519.766 140.327 523.377 136.954 526.986 136.936 530.594 142.506 534.204 142.431 537.815 140.956 541.424 138.363 545.033 146.671 548.645 141.612 552.254 140.403 555.865 144.976 559.476 136.783 563.087 146.627 566.698 146.432 570.309 139.67 573.916 141.884 577.528 143.546 581.135 139.766 584.746 140.258 588.355 140.015 591.968 141.749 595.579 142.733 599.191 141.292 602.805 140.712 606.419 142.899 610.033 137 613.645 139.645 617.259 138.387 620.873 145.714 624.493 143.051 626.757 145.273 630.609 148.863 624.162 152.453 625.433 156.044 632.956 159.636 624.951 163.227 629.233 166.818 626.516 170.408 631.294 173.999 628.425 177.59 632.622 181.182 623.579 184.773 625.611 188.364 632.658 191.955 626.915 195.541 627.449 199.127 631.745 202.712 631.538 206.299 627.58 209.887 632.559 213.477 632.069 217.07 626.444 220.661 629.002 224.25 628.309 227.837 623.947 231.425 625.526 235.013 631.214 238.603 624.932 242.195 629.959 245.788 626.708 249.378 623.228 252.968 631.06 256.557 623.344 260.148 629.113 263.741 623.95 267.333 625.181 270.924 627.098 274.515 632.595 278.107 626.569 281.701 628.163 285.294 630.157 288.885 630.061 292.478 627.391 296.072 629.047 299.664 629.111 303.257 632.274 306.852 625.046 310.445 631.285 314.039 628.881 317.633 629.825 321.227 630.993 324.821 631.615 328.417 630.797 332.007 631.959 335.601 627.283 339.192 628.762 342.786 631.522 346.379 626.947 349.975 632.496 353.569 624.15 357.165 631.244 360.762 623.684 364.359 631.809 367.956 631.812 371.553 624.592 375.149 629.208 378.747 632.108 382.35 629.687 382.718 631.362 382.243 631.704 385.953 635.293 384.575 638.884 384.215 642.474 389.545 646.066 383.638 649.658 386.71 653.249 390.884 656.839 385.695 660.429 382.612 664.02 381.658 667.612 385.264 671.204 383.477 674.795 383.935 678.386 388.582 681.972 381.205 685.557 387.109 689.143 382.66 692.729 388.882 696.317 383.139 699.907 390.776 703.5 382.67 707.091 390.649 710.68 389.909 714.268 388.439 717.856 389.898 721.444 386.403 725.034 388.386 728.626 390.226 732.219 382.984 735.809 381.955 739.398 388.443 742.988 385.707 746.579 385.444 750.172 389.192 753.764 385.828 757.355 389.388 760.946 388.4 764.538 390.597 768.132 384.515 771.725 388.722 775.316 387.936 778.909 388.325 782.503 385.086 786.095 389.943 789.688 386.152 793.283 385.639 796.876 390.718 800.47 382.059 804.064 389.97 807.658 383.522 811.253 387.324 814.848 384.293 818.438 386.751 822.033 390.28 825.623 389.419 829.218 387.292 832.81 390.8 836.406 386.937 840 388.268 843.596 383.421 847.193 389.805 850.79 386.261 854.388 383.888 857.984 386.457 861.581 385.282 865.178 388.193 868.782 387.015 871.323 389.562 872.357 393.17 872.249 396.777 868.803 400.384 872.654 403.991 871.545 407.598 869.271 411.205 867.662 414.814 874.592 418.422 869.678 422.029 872.468 425.636 871.155 429.243 870.054 432.851 871.629 436.46 868.285 440.068 869.266 443.676 871.254 447.283 870.564 450.885 874.866 454.488 872.77 458.09 871.367 461.693 875.322 465.298 872.268 468.905 870.182 472.514 871.841 476.122 876.218 479.727 870.241 483.332 868.578 486.936 873.377 490.541 868.941 494.148 869.502 497.756 875.506 501.366 873.978 504.973 871.259 508.579 867.44 512.185 874.145 515.792 872.547 519.402 872.195 523.011 874.194 526.619 868.92 530.226 871.435 533.835 868.372 537.446 870.041 541.055 873.756 544.663 876.392 548.273 877.218 551.883 870.026 555.492 870.146 559.102 877.371 562.713 871.706 566.323 876.781 569.934 877.249 573.544 868.59 577.156 876.336 580.766 867.46 584.378 871.163 587.985 871.327 591.596 869.02 595.203 875.737 598.815 875.608 602.424 867.852 606.037 868.591 609.647 874.796 613.26 871.165 616.874 869.964 620.488 872.586 624.101 872.256 627.714 875.29 631.328 870.541 634.942 875.021 638.562 872.972 640.693 870.883 641.36 868.795 638.63 865.205 640.431 861.615 641.115 858.024 646.832 854.432 642.47 850.841 643.921 847.25 641.785 843.66 644.052 840.069 646.545 836.478 639.342 832.886 638.909 829.295 641.645 825.704 647.182 822.113 643.681 818.527 644.221 814.941 637.823 811.356 644.821 807.769 641.017 804.181 644.876 800.591 637.292 796.998 645.102 793.407 637.238 789.818 640.04 786.23 640.25 782.643 637.754 779.054 644.179 775.465 645.743 771.873 641.909 768.28 642.962 764.689 639.14 761.1 645.179 757.511 645.99 753.92 639.896 750.327 640.713 746.734 646.644 743.143 640.614 739.553 647.106 735.961 646.848 732.366 646.303 728.774 640.031 725.183 639.447 721.59 646.108 717.996 637.957 714.403 640.632 710.81 641.253 707.216 638.042 703.623 647.022 700.028 644.674 696.435 640.408 692.84 643.624 689.246 640.887 685.651 640.156 682.061 643.034 678.466 641.676 674.876 642.848 671.281 640.285 667.688 643.476 664.092 642.233 660.498 641.805 656.903 640.97 653.305 639.254 649.708 642.779 646.111 644.908 642.515 639.78 638.918 645.697 635.32 638.289 631.717 644.415 630.338 645.773 630.739 649.362 625.853 652.953 626.947 656.543 628.332 660.135 632.8 663.727 624.792 667.318 626.896 670.908 632.111 674.498 629.411 678.089 626.951 681.681 628.918 685.273 629.746 688.864 623.981 692.454 632.582 696.04 627.36 699.626 625.656 703.212 628.664 706.798 631.963 710.386 624.215 713.976 632.815 717.569 624.283 721.16 626.472 724.749 631.705 728.337 627.289 731.925 625.803 735.513 632.142 739.103 625.23 742.695 623.23 746.287 626.752 749.878 630.379 753.467 627.631 757.056 630.495 760.647 631.055 764.24 625.54 767.833 630.701 771.424 632.102 775.014 625.701 778.606 624.054 782.201 624.871 785.793 623.686 789.385 632.69 792.977 624.774 796.572 633.026 800.164 632.169 803.757 623.696 807.351 625.24 810.944 629.373 814.539 625.795 818.133 625.882 821.727 623.558 825.321 629.311 828.916 632.763 832.506 632.303 836.101 630.563 839.691 631.23 843.286 630.604 846.879 625.335 850.475 631.969 854.069 626.181 857.664 623.516 861.261 626.576 864.859 625.182 868.456 626.358 872.052 629.834 875.649 631.643 879.246 630.474 882.85 628.326 885.539 627.201 881.644 624.505 889.53 620.897 890.268 617.29 883.319 613.683 889.747 610.077 891.042 606.47 889.156 602.862 887.387 599.254 891.338 595.646 883.101 592.038 883.883 588.431 886.237 584.824 889.449 581.217 885.311 577.608 883.487 574 888.836 570.392 883.974 566.785 890.387 563.182 886.51 559.58 888.478 555.977 883.063 552.374 884.897 548.77 887.39 545.163 882.455 541.553 888.492 537.946 882.169 534.34 889.159 530.736 889.376 527.131 883.425 523.526 887.058 519.92 888.386 516.311 891.298 512.702 886.028 509.095 887.252 505.489 883.31 501.883 882.882 498.275 887.347 494.666 890.811 491.056 891.087 487.449 884.735 483.842 886.913 480.233 884.618 476.622 885.097 473.013 883.151 469.405 884.489 465.795 883.45 462.184 888.255 458.575 883.415 454.966 891.414 451.355 884.321 447.745 883.238 444.134 888.878 440.523 889.972 436.912 885.826 433.302 885.605 429.69 882.976 426.083 884.224 422.472 887.137 418.865 890.708 415.253 886.385 411.644 890.747 408.031 886.365 404.421 890.359 400.808 886.505 397.194 882.707 393.581 882.96 389.967 890.175 386.354 891.453 382.74 885.714 379.126 883.89 375.01 888.186 370.167" style="fill: #fff;"/>
  <polygon points="888.186 370.167 882.863 375.584 879.273 371.282 875.683 371.541 872.092 369.609 868.5 372.083 864.909 367.781 861.318 369.67 857.728 370.284 854.137 373.609 850.547 366.999 846.955 369.56 843.363 373.601 839.772 376.213 836.181 369.236 832.595 371.576 829.01 366.923 825.424 371.898 821.838 375.355 818.25 367.451 814.66 369.155 811.067 372.733 807.476 374.423 803.887 375.225 800.299 373.858 796.711 367.948 793.123 367.076 789.533 367.956 785.941 373.258 782.348 376.843 778.758 371.173 775.169 371.519 771.579 372.181 767.989 375.297 764.395 371.291 760.803 371.788 757.212 376.001 753.621 368.713 750.029 368.635 746.435 376.537 742.843 371.652 739.251 369.195 735.658 372.918 732.064 372.353 728.472 375.769 724.879 369.777 721.284 372.779 717.692 371.886 714.097 369.021 710.503 373.518 706.909 376.295 703.315 371.735 699.72 370.694 696.129 370.268 692.535 368.156 688.944 376.304 685.35 372.597 681.757 368.928 678.161 375.062 674.567 367.914 670.972 376.342 667.374 368.006 663.777 375.905 660.18 368.51 656.584 373.067 652.987 372.29 649.389 368.296 645.786 373.249 643.751 370.312 645.626 368.296 646.058 364.706 642.761 361.116 643.5 357.525 646.732 353.933 641.176 350.341 639.87 346.751 644.881 343.16 638.125 339.57 646.258 335.979 647.137 332.387 646.061 328.795 637.489 325.204 641.872 321.614 641.765 318.028 642.603 314.442 637.736 310.856 637.313 307.27 640.411 303.682 643.438 300.092 639.593 296.499 643.179 292.908 637.66 289.319 640.299 285.731 643.39 282.144 646.654 278.555 640.422 274.966 642.223 271.373 642.228 267.781 637.949 264.19 637.926 260.601 641.035 257.012 643.733 253.421 641.333 249.828 642.018 246.235 638.779 242.644 642.557 239.054 639.185 235.462 637.427 231.867 643.013 228.275 640.84 224.684 642.52 221.091 646.709 217.497 640.916 213.904 638.804 210.311 646.408 206.717 639.54 203.124 638.135 199.529 642.67 195.936 643.739 192.341 641.058 188.747 643.325 185.152 642.093 181.562 645.769 177.967 638.929 174.377 644.3 170.782 644.284 167.189 642.867 163.593 643.837 160 646.753 156.404 647.034 152.807 643.927 149.21 643.072 145.612 641.462 142.016 637.799 138.419 637.867 134.822 641.921 131.218 641.302 128.496 638.574 128.74 634.966 124.142 631.359 127.268 627.752 128.363 624.146 128.693 620.539 123.504 616.931 124.859 613.323 128.517 609.714 127.298 606.107 124.582 602.5 129.826 598.893 128.354 595.285 124.477 591.677 131.279 588.068 131.13 584.461 130.513 580.853 132.355 577.251 128.326 573.649 131.85 570.046 128.363 566.443 128.788 562.838 125.059 559.232 132.609 555.622 123.07 552.015 124.503 548.409 123.039 544.804 124.383 541.2 124.67 537.595 126.663 533.989 124.09 530.38 126.022 526.771 126.203 523.163 126.669 519.557 130.3 515.951 126.791 512.344 124.979 508.734 125.02 505.125 132.565 501.517 129.244 497.91 130.039 494.302 131.027 490.69 129.23 487.081 122.737 483.473 129.862 479.864 130.207 476.253 131.383 472.644 122.907 469.034 129.392 465.423 127.166 461.813 126.38 458.202 127.41 454.592 130.451 450.981 126.783 447.37 126.154 443.758 123.251 440.151 124.578 436.54 131.503 432.933 131.863 429.321 125.999 425.712 132.388 422.099 127.561 418.489 131.461 414.877 126.222 411.263 128.487 407.649 127.943 404.035 131.733 400.422 123.422 396.808 126.019 393.194 124.896 389.574 131.366 382.582 124.215 388.244 131.205 388.141 134.795 384.961 138.385 383.64 141.976 381.176 145.568 381.565 149.159 384.504 152.75 384.073 156.34 381.422 159.931 381.3 163.522 384.959 167.114 388.526 170.705 386.518 174.296 381.197 177.887 383.741 181.473 385.464 185.058 381.896 188.644 388.625 192.231 390.75 195.819 381.38 199.409 388.513 203.001 383.346 206.592 385.46 210.181 386.134 213.769 388.557 217.357 385.631 220.945 380.992 224.535 388.297 228.127 383.271 231.72 386.428 235.31 381.715 238.899 385.844 242.489 381.974 246.08 387.393 249.673 385.949 253.265 382.48 256.856 386.334 260.447 383.596 264.039 390.327 267.633 384.925 271.225 388.961 274.817 386.713 278.41 387.378 282.004 381.472 285.596 390.369 289.189 381.527 292.784 382.895 296.377 387.124 299.971 383.397 303.565 383.532 307.159 384.657 310.753 385.628 314.348 389.113 317.939 390.469 321.533 389.051 325.124 383.711 328.718 383.302 332.311 385.596 335.907 387.173 339.501 387.844 343.097 387.57 346.694 385.518 350.291 386.966 353.888 388.828 357.484 384.15 361.081 390.368 364.679 382.948 368.282 384.947 370.883 382.364 374.386 378.774 375.102 375.184 376.044 371.593 372.021 368.001 374.376 364.409 374.125 360.819 369.462 357.228 373.783 353.638 370.817 350.047 371.032 346.455 376.199 342.863 372.369 339.272 367.466 335.682 372.645 332.096 371.05 328.51 375.105 324.925 375.269 321.338 369.138 317.75 372.707 314.16 373.17 310.567 369.621 306.976 372.463 303.387 371.883 299.799 369.756 296.212 374.761 292.623 371.83 289.034 367.984 285.442 368.571 281.849 374.349 278.259 374.054 274.669 375.868 271.08 372.979 267.489 372.306 263.896 371.567 260.303 369.275 256.713 371.099 253.122 372.966 249.53 375.932 245.935 372.467 242.343 367.171 238.752 374.604 235.159 369.646 231.565 376.664 227.972 374.512 224.379 375.416 220.785 374.064 217.192 372.825 213.597 370.353 210.004 375.987 206.409 376.244 202.815 367.332 199.22 367.901 195.63 367.344 192.035 372.534 188.445 372.158 184.85 375.9 181.258 368.618 177.662 371.706 174.068 376.062 170.472 371.043 166.875 373.415 163.278 375.456 159.68 368.384 156.084 373.515 152.488 368.931 148.89 369.08 145.286 372 141.057 371.261 146.682 375.494 139.935 379.102 136.8 382.709 141.256 386.316 140.128 389.922 137.71 393.529 141.458 397.137 139.772 400.745 145.214 404.354 141.293 407.961 142.03 411.568 139.818 415.175 141.933 418.783 139.081 422.391 137.983 426 144.203 429.607 142.953 433.214 137.518 436.817 144.188 440.419 146.053 444.022 144.57 447.625 141.893 451.229 146.649 454.836 145.121 458.446 138.848 462.053 136.987 465.659 143.327 469.264 139.745 472.868 141.023 476.473 140.411 480.079 146.627 483.688 139.751 487.297 141.216 490.904 146.426 494.51 139.11 498.116 140.643 501.724 144.525 505.334 143.055 508.943 138.986 512.55 144.361 516.157 138.566 519.766 140.327 523.377 136.954 526.986 136.936 530.594 142.506 534.204 142.431 537.815 140.956 541.424 138.363 545.033 146.671 548.645 141.612 552.254 140.403 555.865 144.976 559.476 136.783 563.087 146.627 566.698 146.432 570.309 139.67 573.916 141.884 577.528 143.546 581.135 139.766 584.746 140.258 588.355 140.015 591.968 141.749 595.579 142.733 599.191 141.292 602.805 140.712 606.419 142.899 610.033 137 613.645 139.645 617.259 138.387 620.873 145.714 624.493 143.051 626.757 145.273 630.609 148.863 624.162 152.453 625.433 156.044 632.956 159.636 624.951 163.227 629.233 166.818 626.516 170.408 631.294 173.999 628.425 177.59 632.622 181.182 623.579 184.773 625.611 188.364 632.658 191.955 626.915 195.541 627.449 199.127 631.745 202.712 631.538 206.299 627.58 209.887 632.559 213.477 632.069 217.07 626.444 220.661 629.002 224.25 628.309 227.837 623.947 231.425 625.526 235.013 631.214 238.603 624.932 242.195 629.959 245.788 626.708 249.378 623.228 252.968 631.06 256.557 623.344 260.148 629.113 263.741 623.95 267.333 625.181 270.924 627.098 274.515 632.595 278.107 626.569 281.701 628.163 285.294 630.157 288.885 630.061 292.478 627.391 296.072 629.047 299.664 629.111 303.257 632.274 306.852 625.046 310.445 631.285 314.039 628.881 317.633 629.825 321.227 630.993 324.821 631.615 328.417 630.797 332.007 631.959 335.601 627.283 339.192 628.762 342.786 631.522 346.379 626.947 349.975 632.496 353.569 624.15 357.165 631.244 360.762 623.684 364.359 631.809 367.956 631.812 371.553 624.592 375.149 629.208 378.747 632.108 382.35 629.687 382.718 631.362 382.243 631.704 385.953 635.293 384.575 638.884 384.215 642.474 389.545 646.066 383.638 649.658 386.71 653.249 390.884 656.839 385.695 660.429 382.612 664.02 381.658 667.612 385.264 671.204 383.477 674.795 383.935 678.386 388.582 681.972 381.205 685.557 387.109 689.143 382.66 692.729 388.882 696.317 383.139 699.907 390.776 703.5 382.67 707.091 390.649 710.68 389.909 714.268 388.439 717.856 389.898 721.444 386.403 725.034 388.386 728.626 390.226 732.219 382.984 735.809 381.955 739.398 388.443 742.988 385.707 746.579 385.444 750.172 389.192 753.764 385.828 757.355 389.388 760.946 388.4 764.538 390.597 768.132 384.515 771.725 388.722 775.316 387.936 778.909 388.325 782.503 385.086 786.095 389.943 789.688 386.152 793.283 385.639 796.876 390.718 800.47 382.059 804.064 389.97 807.658 383.522 811.253 387.324 814.848 384.293 818.438 386.751 822.033 390.28 825.623 389.419 829.218 387.292 832.81 390.8 836.406 386.937 840 388.268 843.596 383.421 847.193 389.805 850.79 386.261 854.388 383.888 857.984 386.457 861.581 385.282 865.178 388.193 868.782 387.015 871.323 389.562 872.357 393.17 872.249 396.777 868.803 400.384 872.654 403.991 871.545 407.598 869.271 411.205 867.662 414.814 874.592 418.422 869.678 422.029 872.468 425.636 871.155 429.243 870.054 432.851 871.629 436.46 868.285 440.068 869.266 443.676 871.254 447.283 870.564 450.885 874.866 454.488 872.77 458.09 871.367 461.693 875.322 465.298 872.268 468.905 870.182 472.514 871.841 476.122 876.218 479.727 870.241 483.332 868.578 486.936 873.377 490.541 868.941 494.148 869.502 497.756 875.506 501.366 873.978 504.973 871.259 508.579 867.44 512.185 874.145 515.792 872.547 519.402 872.195 523.011 874.194 526.619 868.92 530.226 871.435 533.835 868.372 537.446 870.041 541.055 873.756 544.663 876.392 548.273 877.218 551.883 870.026 555.492 870.146 559.102 877.371 562.713 871.706 566.323 876.781 569.934 877.249 573.544 868.59 577.156 876.336 580.766 867.46 584.378 871.163 587.985 871.327 591.596 869.02 595.203 875.737 598.815 875.608 602.424 867.852 606.037 868.591 609.647 874.796 613.26 871.165 616.874 869.964 620.488 872.586 624.101 872.256 627.714 875.29 631.328 870.541 634.942 875.021 638.562 872.972 640.693 870.883 641.36 868.795 638.63 865.205 640.431 861.615 641.115 858.024 646.832 854.432 642.47 850.841 643.921 847.25 641.785 843.66 644.052 840.069 646.545 836.478 639.342 832.886 638.909 829.295 641.645 825.704 647.182 822.113 643.681 818.527 644.221 814.941 637.823 811.356 644.821 807.769 641.017 804.181 644.876 800.591 637.292 796.998 645.102 793.407 637.238 789.818 640.04 786.23 640.25 782.643 637.754 779.054 644.179 775.465 645.743 771.873 641.909 768.28 642.962 764.689 639.14 761.1 645.179 757.511 645.99 753.92 639.896 750.327 640.713 746.734 646.644 743.143 640.614 739.553 647.106 735.961 646.848 732.366 646.303 728.774 640.031 725.183 639.447 721.59 646.108 717.996 637.957 714.403 640.632 710.81 641.253 707.216 638.042 703.623 647.022 700.028 644.674 696.435 640.408 692.84 643.624 689.246 640.887 685.651 640.156 682.061 643.034 678.466 641.676 674.876 642.848 671.281 640.285 667.688 643.476 664.092 642.233 660.498 641.805 656.903 640.97 653.305 639.254 649.708 642.779 646.111 644.908 642.515 639.78 638.918 645.697 635.32 638.289 631.717 644.415 630.338 645.773 630.739 649.362 625.853 652.953 626.947 656.543 628.332 660.135 632.8 663.727 624.792 667.318 626.896 670.908 632.111 674.498 629.411 678.089 626.951 681.681 628.918 685.273 629.746 688.864 623.981 692.454 632.582 696.04 627.36 699.626 625.656 703.212 628.664 706.798 631.963 710.386 624.215 713.976 632.815 717.569 624.283 721.16 626.472 724.749 631.705 728.337 627.289 731.925 625.803 735.513 632.142 739.103 625.23 742.695 623.23 746.287 626.752 749.878 630.379 753.467 627.631 757.056 630.495 760.647 631.055 764.24 625.54 767.833 630.701 771.424 632.102 775.014 625.701 778.606 624.054 782.201 624.871 785.793 623.686 789.385 632.69 792.977 624.774 796.572 633.026 800.164 632.169 803.757 623.696 807.351 625.24 810.944 629.373 814.539 625.795 818.133 625.882 821.727 623.558 825.321 629.311 828.916 632.763 832.506 632.303 836.101 630.563 839.691 631.23 843.286 630.604 846.879 625.335 850.475 631.969 854.069 626.181 857.664 623.516 861.261 626.576 864.859 625.182 868.456 626.358 872.052 629.834 875.649 631.643 879.246 630.474 882.85 628.326 885.539 627.201 881.644 624.505 889.53 620.897 890.268 617.29 883.319 613.683 889.747 610.077 891.042 606.47 889.156 602.862 887.387 599.254 891.338 595.646 883.101 592.038 883.883 588.431 886.237 584.824 889.449 581.217 885.311 577.608 883.487 574 888.836 570.392 883.974 566.785 890.387 563.182 886.51 559.58 888.478 555.977 883.063 552.374 884.897 548.77 887.39 545.163 882.455 541.553 888.492 537.946 882.169 534.34 889.159 530.736 889.376 527.131 883.425 523.526 887.058 519.92 888.386 516.311 891.298 512.702 886.028 509.095 887.252 505.489 883.31 501.883 882.882 498.275 887.347 494.666 890.811 491.056 891.087 487.449 884.735 483.842 886.913 480.233 884.618 476.622 885.097 473.013 883.151 469.405 884.489 465.795 883.45 462.184 888.255 458.575 883.415 454.966 891.414 451.355 884.321 447.745 883.238 444.134 888.878 440.523 889.972 436.912 885.826 433.302 885.605 429.69 882.976 426.083 884.224 422.472 887.137 418.865 890.708 415.253 886.385 411.644 890.747 408.031 886.365 404.421 890.359 400.808 886.505 397.194 882.707 393.581 882.96 389.967 890.175 386.354 891.453 382.74 885.714 379.126 883.89 375.01 888.186 370.167" style="fill: none; stroke: #000; stroke-linecap: round; stroke-linejoin: round; stroke-width: 40px;"/>
</svg>