<?xml version="1.0" encoding="UTF-8"?>
<svg id="Sticker" xmlns="http://www.w3.org/2000/svg" width="1000" height="1000" viewBox="0 0 1000 1000">
  <polygon points="273.43 572.111 269.892 566.588 280.329 566.537 277.583 561.673 274.415 556.57 282.642 555.906 277.463 549.934 281.088 547.489 281.018 543.53 288.964 542.983 285.634 537.616 292.071 536.516 291.993 532.546 294.266 529.634 289.23 523.299 297.864 523.394 293.823 517.432 301.063 516.973 300.407 512.622 297.096 506.854 305.261 507.029 305.723 503.203 302.9 497.548 307.565 495.981 312.347 494.548 312.14 490.274 309.419 484.445 312.472 482.021 317.994 481.174 317.463 476.554 321.504 474.86 318.981 468.808 328.04 470.613 327.079 465.551 329.039 462.507 327.106 456.516 329.822 453.95 337.935 455.743 340.773 453.464 339.052 447.29 345.514 448.184 346.226 444.011 348.333 441.064 350.817 438.468 350.426 432.804 352.14 429.169 358.847 431.305 363.71 431.664 364.763 427.267 369.429 427.746 370.046 422.352 372.705 419.804 375.75 417.835 380.664 419.678 383.946 418.594 387.275 417.751 390.057 415.327 393.328 413.876 394.916 406.584 398.296 405.222 402.503 406.916 407.3 411.09 408.64 401.79 413.351 405.887 416.302 402.742 420.915 406.925 424.663 407.453 426.842 400.345 431.689 406.43 435.105 405.411 437.934 401.019 441.39 399.984 445.032 400.078 448.399 398.399 451.943 397.838 456.173 402.496 459.15 397.662 462.943 399.333 466.661 400.64 470.015 398.443 473.028 391.872 477.117 397.859 480.235 391.084 483.992 393.298 487.887 399.359 491.18 392.728 494.743 391.166 498.381 392.169 501.975 390.04 505.577 399.373 509.158 395.9 512.659 398.713 516.235 397.756 520.108 391.038 523.681 392.102 527.048 395.801 530.584 396.469 534.002 398.272 537.938 394.951 540.942 400.085 544.537 399.912 548.601 396.699 552.031 398.024 555.716 397.791 559.238 398.541 563.169 397.322 566.771 397.844 569.202 403.266 573.313 401.584 577.618 399.532 578.892 408.14 582.371 408.807 586.193 408.485 589.167 410.723 594.097 407.624 598.244 406.973 601.602 408.42 602.724 414.9 608.487 410.961 608.257 419.697 613.46 417.295 616.572 419.101 619.45 421.303 619.975 427.316 628.212 420.925 630.474 424.18 632.116 428.191 636.393 428.503 639.287 430.751 638.019 438.016 645.278 435.034 645.877 439.821 648.893 441.883 650.819 445.055 651.679 449.241 656.448 449.605 654.576 456.271 661.397 454.837 664.777 456.654 664.625 461.56 669.591 462.056 672.442 464.399 675.474 466.621 672.602 473.457 680.488 471.956 679.246 477.4 678.883 482.082 680.374 485.379 681.721 488.752 684.466 491.181 688.35 492.906 694.426 493.334 694.862 497.328 691.294 503.634 694.452 505.905 694.912 509.722 696.425 512.929 704.88 512.497 703.657 517.194 707.802 519.159 704.053 524.962 703.61 529.078 708.729 530.658 706.107 535.68 712.288 536.93 715.039 539.698 711.791 544.819 715.656 547.17 719.998 549.429 714.753 555.039 722.654 556.182 717.019 561.722 722.976 563.652 726.901 566.3 722.404 571.242 724.582 574.378 721.278 578.771 728.449 580.915 727.157 583.524 722.759 584.832 721.035 579.516 715.719 583.096 714.895 575.537 710.707 576.317 704.829 581.291 702.813 576.694 699.263 575.894 695.603 575.359 691.839 575.091 688.135 574.674 687.514 566.614 685.064 563.085 679.385 567.558 676.821 564.315 671.972 566.726 670.69 560.304 667.139 559.502 661.97 562.707 658.161 562.545 657.141 555.47 652.723 556.831 648.515 557.666 646.889 552.091 644.727 547.855 641.516 546.207 637.727 545.998 632.346 549.722 631.748 541.602 627.088 543.542 622.902 544.304 620.396 540.904 615.139 544.33 612.775 540.576 610.973 535.429 605.57 539.203 603.09 535.718 599.209 531.791 597.568 536.697 596.801 540.439 598.868 545.659 595.192 547.882 588.156 548.351 591.484 554.222 585.273 555.118 587.639 560.495 585.192 563.356 583.578 566.656 577.843 567.803 581.905 574.067 581.929 578.221 579.906 581.309 577.46 584.178 568.567 583.681 567.68 587.359 572.756 594.154 570.98 597.373 562.869 597.286 565.653 602.893 563.039 608.083 561.601 601.349 558.797 599.085 554.493 598.327 550.361 597.394 549.702 592.975 550.034 587.562 547.684 584.841 545.619 581.831 540.697 581.692 537.848 579.482 535.181 577.087 531.728 575.472 529.544 572.585 528.967 568.09 525.85 566.141 523.827 563.087 520.182 561.667 517.031 559.746 517.656 554.036 508.835 557.804 507.08 554.482 507.012 549.465 501.638 549.771 500.932 545.403 498.085 543.176 493.431 542.758 494.313 536.783 492.517 533.494 488.358 532.568 486.465 534.167 482.277 530.679 481.304 534.738 482.452 540.758 479.975 543.421 474.341 543.165 474.077 547.878 471.122 550.102 466.246 550.537 465.66 554.951 462.309 556.805 460.086 559.699 458.403 563.096 451.211 561.398 451.215 566.358 445.968 566.461 444.14 569.726 444.951 575.44 443.27 578.845 435.887 576.972 433.912 580.108 431.319 582.662 429.54 585.975 430.093 591.453 426.05 592.677 424.49 596.202 418.742 595.856 419.183 605.085 420.962 596.536 419.085 593.384 410.106 594.391 414.336 587.661 406.998 587.707 411.353 580.906 407.267 579.053 407.818 574.482 406.099 571.235 405.086 567.58 396.829 568.163 395.122 564.911 394.185 561.204 393.248 557.5 389.848 555.237 389.43 551.225 389.724 546.796 387.108 544.076 382.575 542.475 378.331 540.704 381.789 534.419 382.809 529.556 377.647 526.578 374.435 532.246 368.554 527.503 366.622 532.271 363.477 534.113 359.838 534.768 357.135 537.684 354.781 541.434 350.977 541.693 348.042 544.049 345.239 546.72 341.632 547.458 337.638 547.258 334.165 548.319 329.7 546.985 326.416 548.486 323.437 550.727 318.482 548.214 315.579 550.639 311.639 550.574 310.834 558.063 306.041 555.945 304.811 562.411 298.446 556.504 295.061 557.783 293.969 564.592 291.356 567.722 288.107 569.329 284.78 570.751 279.997 568.664 278.785 574.537 273.43 572.111"/>
  <polygon points="273.43 572.111 269.892 566.588 280.329 566.537 277.583 561.673 274.415 556.57 282.642 555.906 277.463 549.934 281.088 547.489 281.018 543.53 288.964 542.983 285.634 537.616 292.071 536.516 291.993 532.546 294.266 529.634 289.23 523.299 297.864 523.394 293.823 517.432 301.063 516.973 300.407 512.622 297.096 506.854 305.261 507.029 305.723 503.203 302.9 497.548 307.565 495.981 312.347 494.548 312.14 490.274 309.419 484.445 312.472 482.021 317.994 481.174 317.463 476.554 321.504 474.86 318.981 468.808 328.04 470.613 327.079 465.551 329.039 462.507 327.106 456.516 329.822 453.95 337.935 455.743 340.773 453.464 339.052 447.29 345.514 448.184 346.226 444.011 348.333 441.064 350.817 438.468 350.426 432.804 352.14 429.169 358.847 431.305 363.71 431.664 364.763 427.267 369.429 427.746 370.046 422.352 372.705 419.804 375.75 417.835 380.664 419.678 383.946 418.594 387.275 417.751 390.057 415.327 393.328 413.876 394.916 406.584 398.296 405.222 402.503 406.916 407.3 411.09 408.64 401.79 413.351 405.887 416.302 402.742 420.915 406.925 424.663 407.453 426.842 400.345 431.689 406.43 435.105 405.411 437.934 401.019 441.39 399.984 445.032 400.078 448.399 398.399 451.943 397.838 456.173 402.496 459.15 397.662 462.943 399.333 466.661 400.64 470.015 398.443 473.028 391.872 477.117 397.859 480.235 391.084 483.992 393.298 487.887 399.359 491.18 392.728 494.743 391.166 498.381 392.169 501.975 390.04 505.577 399.373 509.158 395.9 512.659 398.713 516.235 397.756 520.108 391.038 523.681 392.102 527.048 395.801 530.584 396.469 534.002 398.272 537.938 394.951 540.942 400.085 544.537 399.912 548.601 396.699 552.031 398.024 555.716 397.791 559.238 398.541 563.169 397.322 566.771 397.844 569.202 403.266 573.313 401.584 577.618 399.532 578.892 408.14 582.371 408.807 586.193 408.485 589.167 410.723 594.097 407.624 598.244 406.973 601.602 408.42 602.724 414.9 608.487 410.961 608.257 419.697 613.46 417.295 616.572 419.101 619.45 421.303 619.975 427.316 628.212 420.925 630.474 424.18 632.116 428.191 636.393 428.503 639.287 430.751 638.019 438.016 645.278 435.034 645.877 439.821 648.893 441.883 650.819 445.055 651.679 449.241 656.448 449.605 654.576 456.271 661.397 454.837 664.777 456.654 664.625 461.56 669.591 462.056 672.442 464.399 675.474 466.621 672.602 473.457 680.488 471.956 679.246 477.4 678.883 482.082 680.374 485.379 681.721 488.752 684.466 491.181 688.35 492.906 694.426 493.334 694.862 497.328 691.294 503.634 694.452 505.905 694.912 509.722 696.425 512.929 704.88 512.497 703.657 517.194 707.802 519.159 704.053 524.962 703.61 529.078 708.729 530.658 706.107 535.68 712.288 536.93 715.039 539.698 711.791 544.819 715.656 547.17 719.998 549.429 714.753 555.039 722.654 556.182 717.019 561.722 722.976 563.652 726.901 566.3 722.404 571.242 724.582 574.378 721.278 578.771 728.449 580.915 727.157 583.524 722.759 584.832 721.035 579.516 715.719 583.096 714.895 575.537 710.707 576.317 704.829 581.291 702.813 576.694 699.263 575.894 695.603 575.359 691.839 575.091 688.135 574.674 687.514 566.614 685.064 563.085 679.385 567.558 676.821 564.315 671.972 566.726 670.69 560.304 667.139 559.502 661.97 562.707 658.161 562.545 657.141 555.47 652.723 556.831 648.515 557.666 646.889 552.091 644.727 547.855 641.516 546.207 637.727 545.998 632.346 549.722 631.748 541.602 627.088 543.542 622.902 544.304 620.396 540.904 615.139 544.33 612.775 540.576 610.973 535.429 605.57 539.203 603.09 535.718 599.209 531.791 597.568 536.697 596.801 540.439 598.868 545.659 595.192 547.882 588.156 548.351 591.484 554.222 585.273 555.118 587.639 560.495 585.192 563.356 583.578 566.656 577.843 567.803 581.905 574.067 581.929 578.221 579.906 581.309 577.46 584.178 568.567 583.681 567.68 587.359 572.756 594.154 570.98 597.373 562.869 597.286 565.653 602.893 563.039 608.083 561.601 601.349 558.797 599.085 554.493 598.327 550.361 597.394 549.702 592.975 550.034 587.562 547.684 584.841 545.619 581.831 540.697 581.692 537.848 579.482 535.181 577.087 531.728 575.472 529.544 572.585 528.967 568.09 525.85 566.141 523.827 563.087 520.182 561.667 517.031 559.746 517.656 554.036 508.835 557.804 507.08 554.482 507.012 549.465 501.638 549.771 500.932 545.403 498.085 543.176 493.431 542.758 494.313 536.783 492.517 533.494 488.358 532.568 486.465 534.167 482.277 530.679 481.304 534.738 482.452 540.758 479.975 543.421 474.341 543.165 474.077 547.878 471.122 550.102 466.246 550.537 465.66 554.951 462.309 556.805 460.086 559.699 458.403 563.096 451.211 561.398 451.215 566.358 445.968 566.461 444.14 569.726 444.951 575.44 443.27 578.845 435.887 576.972 433.912 580.108 431.319 582.662 429.54 585.975 430.093 591.453 426.05 592.677 424.49 596.202 418.742 595.856 419.183 605.085 420.962 596.536 419.085 593.384 410.106 594.391 414.336 587.661 406.998 587.707 411.353 580.906 407.267 579.053 407.818 574.482 406.099 571.235 405.086 567.58 396.829 568.163 395.122 564.911 394.185 561.204 393.248 557.5 389.848 555.237 389.43 551.225 389.724 546.796 387.108 544.076 382.575 542.475 378.331 540.704 381.789 534.419 382.809 529.556 377.647 526.578 374.435 532.246 368.554 527.503 366.622 532.271 363.477 534.113 359.838 534.768 357.135 537.684 354.781 541.434 350.977 541.693 348.042 544.049 345.239 546.72 341.632 547.458 337.638 547.258 334.165 548.319 329.7 546.985 326.416 548.486 323.437 550.727 318.482 548.214 315.579 550.639 311.639 550.574 310.834 558.063 306.041 555.945 304.811 562.411 298.446 556.504 295.061 557.783 293.969 564.592 291.356 567.722 288.107 569.329 284.78 570.751 279.997 568.664 278.785 574.537 273.43 572.111" style="fill: none; stroke: #000; stroke-linecap: round; stroke-linejoin: round; stroke-width: 35px;"/>
</svg>