<?xml version="1.0" encoding="UTF-8"?>
<svg id="Title" xmlns="http://www.w3.org/2000/svg" width="700" height="700" viewBox="0 0 700 700">
  <path d="M403.906,115.737c-.855-.003-.597-2.511-1.719-2.497-.475.006-1.041.679-1.703.691-.514.01-.932,6.278-1.555,6.294-.531.013-1.146-2.491-1.753-2.473-.541.016-1.275-5.175-1.875-5.155-.546.019-1.22-2.417-1.813-2.394-.549.021-1.192-1.224-1.781-1.198-.552.024-.871,5.878-1.457,5.905-.554.026-1.107.355-1.691.384-.556.028-1.432-5.642-2.014-5.611-.557.03-1.034,1.98-1.614,2.014-.558.032-.69,7.364-1.269,7.4-.559.034-1.398-4.302-1.976-4.264-.56.036-1.212-1.126-1.789-1.086-.56.038-1.25-1.536-1.827-1.494-.561.04-1.103.579-1.679.623-.561.042-1.094.657-1.669.702-.562.044-.992,1.872-1.566,1.919-.562.046-1.223-.978-1.797-.929-.562.048-1.512-4.174-2.086-4.124-.563.05-.869,3.166-1.442,3.219-.563.051-1.043,1.124-1.616,1.178-.563.053-.609,5.495-1.181,5.551-.563.055-1.614-4.787-2.186-4.729-.563.057-1.34-1.857-1.912-1.797-.563.059-.511,5.972-1.083,6.033-.563.061-1.359-2.026-1.93-1.962-.561.062-.756,3.358-1.325,3.422-.561.064-1.621-4.194-2.189-4.128-.562.066-1.503-2.979-2.071-2.911-.562.068-1.359-1.648-1.926-1.578-.562.069-.223,7.397-.791,7.469-.562.071-.599,4.149-1.166,4.223-.562.073-1.838-5.337-2.405-5.261-.561.075-1.175-.221-1.742-.143-.561.077-1.639-3.515-2.206-3.436-.561.079-.847,2.182-1.414,2.263-.561.08-1.707-3.771-2.273-3.688-.561.082-.356,5.414-.922,5.499-.561.084-1.9-4.882-2.465-4.795-.561.086-.632,3.431-1.197,3.519-.561.088-.042,6.979-.606,7.07-.561.09-2.771-9.991-3.336-9.899-.561.092-.845,1.965-1.409,2.059-.56.094-1.177-.055-1.741.041-.56.096.334,8.638-.229,8.736-.56.097-2.765-9.149-3.328-9.049-.56.099-1.271-.532-1.834-.43-.559.101-.186,5.371-.748,5.475-.559.103.038,6.361-.524,6.467-.559.105-1.102.193-1.664.3-.559.107-1.837-3.561-2.398-3.451s-1.187-.163-1.748-.051-1.459-1.486-2.02-1.372-1.946-3.772-2.506-3.656.401,7.499-.159,7.617-2.416-5.872-2.975-5.752-1.596-1.906-2.155-1.784.824,9.038.266,9.162-2.876-7.592-3.434-7.465-.146,4.513-.703,4.642-1.608-1.857-2.164-1.726-.429,3.146-.985,3.279-1.153.074-1.708.209-.483,2.786-1.038,2.923-1.799-2.524-2.353-2.385-.135,4.067-.689,4.208-1.371-.805-1.924-.661-1.799-2.383-2.351-2.237-.493,2.552-1.045,2.701-3.329-7.87-3.88-7.719-.053,4.154-.604,4.308.27,5.169-.28,5.325-3.15-6.868-3.699-6.709-.955.861-1.503,1.022-.424,2.629-.971,2.792-2.12-3.047-2.667-2.881-.976.78-1.522.948.38,5.102-.165,5.273-1.51-.994-2.054-.821-.634,1.758-1.178,1.934-1.894-2.121-2.437-1.942-1.856-1.926-2.398-1.745,1.697,8.613,1.156,8.797-2.392-3.498-2.932-3.312-1.143.184-1.682.373.681,5.308.143,5.5-4.095-8.031-4.633-7.837.592,4.963.055,5.161-.924.768-1.459.969-2.324-2.921-2.858-2.718-1.28-.115-1.813.091,1.694,7.466,1.162,7.675-1.703-1.262-2.234-1.05-1.873-1.627-2.403-1.412-3.556-5.637-4.085-5.418,2.156,8.169,1.629,8.39-3.441-5.197-3.967-4.973.322,3.66-.202,3.887-.831.943-1.353,1.174-.155,2.435-.676,2.669-2.241-2.205-2.761-1.968-3.199-4.186-3.718-3.946.747,4.341.23,4.585-3.234-4.092-3.75-3.845,2.495,7.814,1.981,8.064-.115,2.308-.627,2.562-.529,1.424-1.039,1.682-1.124.232-1.633.493-2.521-2.437-3.028-2.173-2.702-2.679-3.207-2.411-2.792-2.736-3.295-2.465-.685,1.212-1.186,1.488,2.734,7.308,2.235,7.587.192,2.606-.305,2.888-2.003-1.258-2.498-.971-1.967-1.134-2.459-.844-2.269-1.578-2.759-1.285-.438,1.497-.926,1.795-3.961-4.202-4.446-3.9,1.637,4.814,1.154,5.119-2.148-1.207-2.629-.898.075,2.246-.402,2.559-1.605-.325-2.08-.007.96,3.476.488,3.798-3.537-3.105-4.007-2.779-1.251.266-1.717.596.915,3.286.452,3.62,2.089,4.784,1.628,5.123-5.378-5.335-5.836-4.992-1.394.108-1.848.455,3.403,6.287,2.953,6.638-3.926-3.148-4.373-2.793,3.69,6.391,3.246,6.751-2.611-1.447-3.051-1.082-.029,1.694-.466,2.063-6.887-6.297-7.319-5.924-.21,1.573-.639,1.95c-.429.378.503,2.335.079,2.717s-.771.884-1.191,1.27,1.77,3.587,1.354,3.978-5.019-3.611-5.432-3.215,4.562,6.35,4.154,6.75-.424,1.136-.828,1.54-4.356-2.715-4.755-2.306-3.523-1.764-3.917-1.35,3.162,4.582,2.773,5-1.635.046-2.019.469,2.584,3.832,2.204,4.259-5.522-3.343-5.897-2.912,1.965,3.198,1.596,3.634,2.474,3.507,2.11,3.948-3.717-1.614-4.075-1.169-3.273-1.144-3.627-.695-.961.73-1.309,1.184-2.418-.347-2.76.111,4.606,4.826,4.269,5.289-2.69-.542-3.02-.075,3.799,4.006,3.475,4.477-5.092-2.118-5.411-1.643c-.316.471,3.543,3.701,3.229,4.176s-1.191.541-1.502,1.018-3.5-.927-3.807-.448-1.66.289-1.964.77-4.99-1.768-5.291-1.284,8.413,6.546,8.115,7.031-3.077-.572-3.372-.085-1.267.552-1.559,1.041,1.898,2.43,1.609,2.921.484,1.569.198,2.061-9.884-4.399-10.168-3.905-.036,1.323-.316,1.818,6.232,4.818,5.954,5.315-1.054.698-1.329,1.197,1.782,2.25,1.509,2.75-5.767-1.839-6.036-1.338,3.633,3.221,3.366,3.724-7.175-2.497-7.44-1.993,1.648,2.155,1.387,2.661-3.187-.343-3.446.165,5.119,3.879,4.863,4.388.493,1.505.239,2.015.836,1.661.585,2.172-6.036-1.691-6.285-1.179-3.272-.298-3.518.215,1.533,2.01,1.29,2.525,3.586,2.946,3.345,3.462,1.952,2.144,1.713,2.661-.292,1.093-.528,1.611-1.514.541-1.748,1.06-6.548-1.687-6.779-1.167,2.833,2.503,2.604,3.024.277,1.357.05,1.88-5.035-.928-5.259-.404,4.43,3.129,4.208,3.653,1.8,1.978,1.58,2.503.173,1.283-.044,1.809-4.994-.831-5.209-.303-2.889.064-3.102.592.145,1.295-.065,1.825c-.211.529-2.136.394-2.344.924s.513,1.438.307,1.969,3.797,2.687,3.593,3.219,1.398,1.739,1.197,2.272-8.84-2.102-9.039-1.568,6.027,3.46,5.83,3.995-3.056.094-3.25.629,5.389,3.153,5.196,3.689-5.19-.652-5.38-.116.071,1.233-.117,1.771,4.853,2.881,4.667,3.42-11.25-2.655-11.434-2.116,10.118,4.63,9.937,5.17-4.889-.444-5.068.097-.378,1.073-.555,1.615-4.861-.374-5.036.168,5.851,3.077,5.678,3.62-6.036-.71-6.206-.166-.724.985-.892,1.529,5.349,2.841,5.183,3.386-4.222-.087-4.386.458,3.914,2.359,3.752,2.906-6.472-.71-6.632-.163,4.201,2.413,4.043,2.961,1.334,1.562,1.178,2.11-5.211-.277-5.364.272,3.414,2.133,3.263,2.682-4.769-.109-4.917.441,3.894,2.231,3.748,2.782-4.864-.094-5.008.457,5.018,2.485,4.876,3.037-5.473-.211-5.613.342,7.431,3.037,7.294,3.59-8.709-.965-8.844-.411,8.857,3.314,8.724,3.868-10.028-1.203-10.159-.649,8.819,3.227,8.691,3.782-3.719.313-3.844.868-.386,1.082-.509,1.638,4.16,2.069,4.039,2.626-5.145.053-5.264.61-1.481.859-1.597,1.417,6.914,2.577,6.8,3.135-8.216-.495-8.327.064,6.419,2.419,6.31,2.977-2.371.692-2.477,1.252-3.415.52-3.518,1.08,2.545,1.622,2.445,2.182-7.625-.184-7.724.377,9.878,2.865,9.783,3.426-3.387.576-3.479,1.137-1.308.94-1.397,1.502-2.191.815-2.279,1.377c-.088.565,5.464,1.983,5.38,2.545-.085.565-7.098.106-7.18.669-.082.566,6.668,2.099,6.589,2.662-.079.566-2.665.774-2.74,1.338-.076.566.611,1.223.538,1.786-.073.567-1.028,1.013-1.098,1.576-.07.567,1.243,1.289,1.177,1.853-.067.567,2.036,1.362,1.973,1.926-.064.568-3.796.718-3.856,1.282-.06.568-2.685.872-2.742,1.437-.057.568,4.765,1.604,4.712,2.169-.054.569-4.005.773-4.055,1.338-.05.569-2.548.94-2.594,1.506-.047.569,5.771,1.598,5.728,2.163-.043.57-2.904.926-2.943,1.491-.039.572,3.127,1.341,3.092,1.909-.035.573-5.164.841-5.195,1.409-.031.573-.261,1.147-.289,1.715-.027.573,3.338,1.296,3.315,1.863-.023.573,2.914,1.231,2.895,1.798-.019.573.226,1.117.212,1.684-.014.573-7.153.987-7.163,1.554-.01.573.094,1.166.089,1.733-.005.573-2.063,1.165-2.063,1.731,0,.572,5.188,1.136,5.193,1.702.005.572-6.02,1.247-6.01,1.812.011.572,9.32.933,9.336,1.498.016.572-1.095,1.145-1.074,1.709.022.571-8.481,1.526-8.454,2.089.028.571.274,1.19.308,1.753.034.571,7.148.699,7.188,1.262.041.571,3.01.876,3.057,1.439.048.571-7.243,1.787-7.189,2.348.055.571,6.939.43,7,.991.062.57-6.165,1.86-6.096,2.419.07.568,6.374.302,6.451.859.079.567.995.938,1.081,1.494.088.567-9.267,2.678-9.172,3.233.098.565,6.878-.064,6.984.488.108.563-4.721,2.126-4.605,2.675.119.561,5.852-.124,5.979.423.13.558,1.806.654,1.945,1.196.142.555-6,2.774-5.848,3.313.154.544,3.115.297,3.272.847.156.544-3.929,2.321-3.77,2.87.158.544.792.965.953,1.514.16.543,6.523-.75,6.687-.201.162.543,1.815.624,1.981,1.172.164.542-7.883,3.59-7.715,4.137.166.542,2.773.343,2.943.889.169.541,3.714.024,3.886.57.171.541-2.233,1.9-2.059,2.444.173.54,4.716-.335,4.893.209.175.54.251,1.097.429,1.64.178.539-6.443,3.334-6.261,3.877.18.538,5.711-.72,5.894-.179.182.538.553,1.002.739,1.542.185.537-1.194,1.609-1.006,2.149.187.536-5.157,3.026-4.966,3.565.189.536,2.589.304,2.782.842.192.535-2.522,2.141-2.327,2.678.194.534,6.71-1.235,6.908-.698.197.533-4.467,2.882-4.266,3.417.199.533.423,1.078.625,1.612s1.967.484,2.173,1.017,6.944-1.477,7.152-.945-4.246,2.883-4.035,3.414,3.101-.016,3.314.514-5.194,3.335-4.979,3.864,5.7-1.105,5.918-.577-2.93,2.453-2.709,2.98.408,1.073.632,1.599,5.659-1.194,5.886-.669-7.819,4.647-7.59,5.17,5.071-.978,5.303-.456,1.643.509,1.878,1.029-3.327,2.766-3.089,3.284,4.31-.73,4.55-.213-.173,1.331.071,1.847,2.093.256,2.34.771-1.576,2.015-1.326,2.528-4.727,3.598-4.475,4.11,4.256-.818,4.511-.308-2.186,2.397-1.928,2.906,9.191-3.426,9.453-2.919-.82,1.678-.555,2.184-2.947,2.829-2.679,3.333-3.516,3.193-3.245,3.696.721.94.995,1.44,8.491-3.387,8.769-2.888-3.668,3.348-3.388,3.845-2.938,3.004-2.654,3.499.74.923,1.027,1.416,5.367-1.821,5.658-1.33-2.251,2.675-1.957,3.164,6.451-2.592,6.749-2.105-3.016,3.176-2.715,3.661-4.679,4.299-4.374,4.781,3.476-.827,3.784-.347,2.719-.393,3.031.085,1.696.241,2.012.717-4.938,4.693-4.619,5.166,1.817.185,2.14.656,3.099-.736,3.426-.267,1.206.55,1.537,1.016,3.079-.815,3.413-.352-.437,1.707-.099,2.167-5.288,5.361-4.946,5.818,6.426-3.392,6.772-2.938-2.019,2.992-1.67,3.444,3.489-1.274,3.843-.826-4.143,4.773-3.786,5.218.73.932,1.091,1.374,1.707.12,2.072.559,3.08-1.073,3.449-.638,1.841-.077,2.215.355.92.699,1.297,1.127.234,1.309.615,1.733-.434,1.938-.048,2.359-1.241,2.735-.851,3.152,7.303-5.325,7.697-4.911-3.668,5.083-3.271,5.493,1.341.293,1.743.698,1.749-.142,2.155.259-.972,2.63-.562,3.027,2.514-.97,2.928-.577-.586,2.295-.168,2.683-.744,2.535-.322,2.919,6.452-5.482,6.878-5.103-1.867,3.805-1.436,4.18-.567,2.415-.132,2.785,1.421.101,1.86.466-2.473,4.865-2.03,5.225,2.24-.878,2.687-.523,3.212-2.209,3.663-1.859-2.551,5.263-2.095,5.608,4.426-3.957,4.886-3.618-1.68,4.284-1.216,4.618,3.232-2.522,3.699-2.194-2.127,5.136-1.655,5.458,1.567-.164,2.042.153,6.214-7.357,6.693-7.046-.341,2.565.142,2.871-1.161,4.007-.675,4.307,4.561-5.354,5.051-5.06-1.681,5.027-1.187,5.315-.786,3.708-.289,3.989,2.339-1.797,2.841-1.522-1.3,4.886-.796,5.155,3.574-4.274,4.082-4.012.481,1.597.992,1.853.036,2.586.551,2.835,3.147-3.906,3.665-3.663-.289,3.365.233,3.602.169,2.524.693,2.754,4.459-7.402,4.985-7.176-.791,4.734-.263,4.956-.607,4.461-.078,4.68,3.408-5.278,3.938-5.062.676,1.363,1.208,1.575.876.887,1.41,1.095.636,1.533,1.171,1.738,2.394-3.106,2.93-2.905.412,2.142.949,2.34,2.551-3.718,3.09-3.524-2.463,10.295-1.923,10.486,3.608-6.815,4.149-6.627-1.295,7.32-.752,7.504,4.497-9.784,5.041-9.603-1.697,8.775-1.152,8.952,1.414-.604,1.96-.429,2.798-5.058,3.344-4.887-.321,4.877.226,5.045-.141,4.468.408,4.633,2.985-5.974,3.535-5.812-.211,4.843.34,5.002,1.611-1.418,2.162-1.262.706,1.785,1.258,1.937,1.892-2.543,2.445-2.393.399,2.981.953,3.128,1.079.472,1.634.615,1.263-.247,1.818-.106,2.775-6.401,3.331-6.264,1.05.439,1.607.573,1.268-.48,1.826-.349-.086,5.382.472,5.51.151,4.582.71,4.707,1.197.015,1.757.138,3.438-10.515,3.998-10.395,1.076.295,1.637.411-.569,8.438-.008,8.552,2.311-5.749,2.873-5.639,1.019.668,1.582.775-.311,7.845.252,7.95,2.789-8.865,3.353-8.763.95,1.075,1.514,1.174.965,1.042,1.53,1.138,1.331-1.125,1.897-1.031-.166,8.173.4,8.264,2.586-9.114,3.152-9.026-.162,8.663.405,8.748,1.815-4.458,2.382-4.376.094,7.594.662,7.673,1.787-4.499,2.355-4.423,1.94-6.063,2.508-5.99.615,4.167,1.184,4.237.395,6.379.964,6.446,1.963-6.929,2.532-6.864,1.373-2.131,1.943-2.069.328,7.812.898,7.871,1.543-3.822,2.113-3.767.951,2.139,1.522,2.192,1.711-6.317,2.282-6.267.851,3.337,1.422,3.384.726,5.39,1.297,5.434,1.101.944,1.672.985,1.697-7.835,2.269-7.797.681,7.296,1.253,7.331,1.278-1.941,1.851-1.908,1.127.595,1.7.624,1.162-.033,1.734-.006,1.098,1.507,1.67,1.53,1.415-6.883,1.987-6.863.963,5.436,1.536,5.454,1.196-1.441,1.769-1.427,1.283-6.502,1.856-6.491.945,11.321,1.519,11.33,1.185-.965,1.759-.96,1.2-6.246,1.773-6.243,1.135-4.022,1.708-4.023,1.153,6.13,1.726,6.126,1.146-.312,1.719-.318,1.239,5.471,1.812,5.462,1.009-7.628,1.582-7.641,1.04-3.523,1.613-3.538,1.149.952,1.722.934,1.085-.996,1.658-1.018,1.298,4.108,1.871,4.083,1.484,6.941,2.056,6.912.993-3.406,1.565-3.437,1.125-.607,1.697-.642,1.368,3.152,1.94,3.114.947-3.222,1.519-3.263,1.278,1.513,1.85,1.469.708-5.566,1.279-5.613,1.25,1.235,1.821,1.184.69-4.838,1.26-4.892,1.542,4.182,2.112,4.124,1.11-.351,1.68-.411,1.067-.71,1.636-.774,1.19.393,1.759.326,1.398,2.012,1.967,1.941,1.047-.879,1.615-.953.699-3.355,1.267-3.433,1.783,4.504,2.35,4.423.454-4.79,1.021-4.875,1.612,3.031,2.179,2.943.413-4.628.979-4.719,1.243.639,1.808.544,2.232,6.24,2.797,6.142.526-3.634,1.09-3.736.304-4.574.867-4.68,3.138,10.286,3.7,10.176-.74-9.674-.179-9.787,2.506,6.536,3.067,6.419,1.167-.12,1.728-.24,1.655,2.065,2.214,1.941,1.052-.707,1.611-.835.064-4.864.622-4.996,1.735,2.271,2.292,2.136.925-1.107,1.481-1.246,2.019,3.177,2.574,3.033-1.761-11.252-1.207-11.399,3.955,10.28,4.508,10.129.393-2.98.945-3.135-1.237-8.488-.687-8.646,1.635,1.633,2.184,1.47,3.567,7.88,4.115,7.713-.704-6.211-.157-6.382,2.914,5.371,3.46,5.196-2-9.858-1.456-10.037,2.196,3.052,2.739,2.869,3.422,6.431,3.963,6.244-.03-3.637.51-3.829.547-1.893,1.086-2.089,3.081,4.986,3.618,4.786-1.153-6.376-.618-6.58,2.166,2.406,2.7,2.197,1.325.171,1.857-.042.528-1.805,1.059-2.022,1.027-.552,1.555-.774-1.614-6.711-1.087-6.937,4.585,7.712,5.109,7.482.274-2.267.796-2.501.836-.962,1.357-1.2.122-2.465.64-2.708,3.303,4.256,3.82,4.008-3.303-9.425-2.789-9.677,2.324,2.188,2.836,1.931.372-1.736.882-1.997,4.021,5.285,4.529,5.019-2.308-6.789-1.803-7.059.874-.705,1.376-.979,5.238,7.111,5.738,6.832,1.107-.446,1.604-.73,1.699.562,2.194.273-.785-3.655-.293-3.949-2.515-6.366-2.025-6.664,3.359,3.317,3.845,3.014.608-1.174,1.092-1.482-.351-2.627.13-2.939,5.843,6.797,6.321,6.48-3.515-7.329-3.041-7.65,1.541.257,2.011-.068,2.441,1.487,2.907,1.157-1.928-4.636-1.465-4.971-.182-2.106.277-2.446,5.477,5.43,5.933,5.085-1.736-4.152-1.284-4.501,2.954,1.924,3.402,1.57,2.341,1.055,2.786.695-2.434-4.802-1.993-5.166,2.452,1.159,2.889.791-1.548-3.56-1.115-3.933,6.212,5.37,6.641,4.992.587-1.139,1.012-1.522.656-1.049,1.077-1.436-4.082-6.09-3.665-6.481,5.284,3.907,5.697,3.512,1.767.118,2.176-.282-6.388-8.089-5.983-8.493,1.746.188,2.146-.22-.352-1.868.044-2.28.803-.737,1.195-1.154,3.33,1.592,3.717,1.172,2.823,1.037,3.207.613-.569-2.045-.19-2.474.983-.65,1.358-1.082-2.862-3.929-2.491-4.365.615-.909.981-1.348,3.923,1.797,4.285,1.353,3.427,1.294,3.785.848-5.237-5.592-4.884-6.042,9.739,6.113,10.087,5.66-8.63-8.012-8.285-8.469,4.431,1.919,4.771,1.459-1.807-2.71-1.472-3.174,4.496,1.836,4.827,1.369,1.471-.378,1.797-.848,1.627-.294,1.949-.766.734-.917,1.052-1.392,2.821.449,3.134-.03-1.703-2.514-1.393-2.995c.31-.482-2.901-3.208-2.596-3.692s4.071,1.184,4.371.697,1.116-.689,1.412-1.179-2.034-2.569-1.742-3.061,3.761.861,4.049.367-6.385-4.992-6.102-5.489,1.777-.277,2.056-.776,5.764,1.877,6.039,1.375-2.627-2.737-2.357-3.241,3.676.643,3.942.137-4.396-3.578-4.135-4.087-1.194-1.861-.937-2.371,8.177,2.804,8.431,2.292-4.527-3.5-4.277-4.014-3.355-2.844-3.11-3.36,8.292,2.639,8.533,2.121-5.603-3.83-5.366-4.351,7.715,2.216,7.948,1.694.411-1.104.64-1.628-6.658-4.121-6.433-4.646-1.05-1.649-.829-2.176,2.063-.349,2.279-.878,7.496,1.796,7.709,1.266-.36-1.403-.151-1.935-.75-1.539-.546-2.072,2.095-.453,2.295-.988-7.29-3.92-7.093-4.457-.905-1.506-.712-2.044c.194-.541,4.729.485,4.918-.055s-1.715-1.791-1.53-2.332,2.879-.221,3.06-.764.304-1.102.482-1.646-2.532-2.006-2.358-2.551,2.011-.547,2.181-1.093-1.211-1.552-1.044-2.099,3.724-.065,3.886-.613c.163-.551-2-1.772-1.841-2.321.16-.552,6.666.708,6.821.158.156-.553-2.105-1.796-1.954-2.347.152-.554.908-.954,1.056-1.506.149-.555-6.13-2.801-5.985-3.353.145-.556,2.949-.403,3.09-.957.142-.557-3.602-2.061-3.465-2.615.138-.558,10.07,1.282,10.203.727.134-.559-1.284-1.506-1.154-2.062.131-.559-5.592-2.464-5.465-3.021.127-.56,5.356.029,5.479-.528.124-.561-1.026-1.404-.906-1.962.12-.562-2.437-1.681-2.321-2.239.117-.563,2.424-.668,2.537-1.227.113-.563,1.613-.854,1.722-1.413.11-.564-1.919-1.538-1.814-2.097.106-.565,5.067-.238,5.169-.798.103-.565-9.05-2.781-8.951-3.342.099-.566,10.936.724,11.031.163.096-.567-1.552-1.45-1.46-2.011.093-.567-.772-1.306-.684-1.868.09-.571-5.432-2.003-5.347-2.567.086-.571,2.392-.801,2.474-1.365.083-.571-3.305-1.617-3.227-2.181.079-.572,7.801-.104,7.875-.669.076-.572-6.729-2.031-6.658-2.595.072-.572.978-1.021,1.045-1.585.069-.573,2.66-.84,2.724-1.404.065-.573.979-1.051,1.04-1.615.062-.573-5.86-1.753-5.803-2.317.058-.573,1.548-.975,1.601-1.538.054-.574-2.191-1.324-2.142-1.887.051-.575-.037-1.118.009-1.682.047-.576,3.325-.863,3.368-1.426.044-.577-1.707-1.253-1.668-1.816.04-.577.98-1.061,1.015-1.624.036-.578,5.844-.803,5.876-1.364.032-.578-4.669-1.393-4.642-1.954.028-.58,7.738-.815,7.761-1.377.024-.581-7.416-1.443-7.397-2.004.02-.581,5.106-1.001,5.12-1.559.015-.584,1.425-1.153,1.435-1.711.01-.583-3.648-1.222-3.643-1.777.005-.585-2.775-1.158-2.775-1.71,0-.561.615-1.1.604-1.679-.01-.562,7.39-1.37,7.369-1.949-.02-.562-4.178-1.01-4.208-1.587-.029-.562,3.287-1.384,3.248-1.96-.038-.563-8.566-.506-8.614-1.081-.046-.562,9.222-1.978,9.167-2.552-.054-.562-5.852-.579-5.915-1.152-.062-.562-3.411-.727-3.481-1.299-.069-.561,4.684-1.739,4.607-2.309-.076-.561.991-1.314.908-1.884-.082-.56-6.628-.129-6.719-.697-.089-.559,1.238-1.322,1.141-1.889-.095-.558,7.392-2.477,7.289-3.043-.102-.558-8.331.394-8.44-.17-.108-.557,1.753-1.489,1.638-2.051-.114-.556-1.644-.8-1.765-1.361-.12-.555,5.284-2.34,5.157-2.899-.125-.553-7.265.52-7.398-.038-.131-.552,4.64-2.284,4.502-2.841-.137-.551-1.623-.768-1.767-1.323-.142-.55.346-1.27.197-1.824-.148-.548,2.688-1.941,2.533-2.493-.153-.547-7.735,1.028-7.895.478-.159-.546,6.121-2.994,5.955-3.542-.164-.544-5.371.459-5.541-.088-.17-.543,2.008-1.818,1.832-2.363-.175-.541,2.174-1.925,1.993-2.468-.18-.539.614-1.442.427-1.983-.185-.538-.788-.965-.98-1.504-.191-.536-6.805,1.253-7.002.716-.196-.533,1.153-1.612.951-2.147-.201-.531-1.816-.491-2.023-1.023-.206-.529-1.052-.765-1.265-1.295-.211-.527,5.364-3.397,5.147-3.925-.217-.525-5.68,1.153-5.903.627s4.006-2.947,3.778-3.471-6.009,1.433-6.242.911,1.362-1.824,1.124-2.343-2.187-.192-2.432-.709,6.014-4.126,5.764-4.64-1.354-.624-1.608-1.136,1.66-2.142,1.4-2.651-9.083,3.429-9.349,2.922,8.125-5.59,7.854-6.093-2.891.245-3.167-.256.427-1.566.146-2.063-5.351,1.753-5.638,1.259,5.473-4.537,5.181-5.028-6.523,2.587-6.82,2.099-.828-.787-1.131-1.272-.615-.916-.923-1.398,1.936-2.588,1.623-3.066-2.642.406-2.961-.069,3.395-3.683,3.071-4.154-.729-.911-1.059-1.378-4.344,1.705-4.679,1.242-.054-1.344-.394-1.803-1.279-.435-1.625-.89-2.591.609-2.942.158,6.146-6.288,5.79-6.735-3.528,1.354-3.89.911-4.255,2.077-4.622,1.639.242-1.641-.13-2.074-2.016.311-2.393-.117,5.767-6.669,5.384-7.093-4.482,2.537-4.87,2.118,1.607-3.082,1.213-3.496-.987-.667-1.386-1.076-3.923,2.283-4.327,1.879-2.214.689-2.624.291,6.407-8.334,5.992-8.727-3.646,2.157-4.066,1.769-3.588,2.253-4.013,1.871,1.678-3.604,1.247-3.981-.022-1.765-.458-2.136-3.813,2.757-4.253,2.393-.321-1.382-.767-1.741,2.865-5.489,2.415-5.842-2.101.762-2.555.416-.669-1.088-1.129-1.428-.8-.929-1.264-1.262-4.574,4.467-5.043,4.139-2.883,2.279-3.356,1.959,4.157-8.258,3.679-8.572-3.289,2.95-3.771,2.642c-.48-.306-2.655,2.153-3.141,1.853s-.489-1.29-.98-1.584,2.112-5.826,1.617-6.113-1.074-.5-1.573-.78c-.497-.279-1.998,1.211-2.501.937s1.109-4.591.601-4.857-5.529,8.215-6.04,7.955,1.484-5.472.972-5.727-1.19-.187-1.704-.438-3.304,4.254-3.82,4.008,1.497-5.813.978-6.056.567-4.009.047-4.248-2.969,3.726-3.491,3.492-.73-1.194-1.253-1.423-1.427.399-1.953.174-1.286.102-1.814-.12.538-4.313.009-4.53-4.536,8.139-5.067,7.926-.094-2.775-.626-2.984.835-5.308.301-5.513-.951-.777-1.487-.978-3.065,4.984-3.602,4.788.865-5.76.326-5.952-.435-2.297-.975-2.485-3.401,6.344-3.942,6.161.261-4.375-.282-4.554-.809-1.269-1.353-1.444-1.126-.308-1.672-.479-3.645,7.955-4.192,7.788-.944-.68-1.492-.843.265-4.901-.284-5.059-2.236,3.769-2.787,3.615.102-4.599-.45-4.748.493-6.36-.06-6.505-2.388,4.559-2.942,4.418-1.178-.028-1.733-.165-.987-.814-1.543-.946-2.174,4.312-2.731,4.184.098-5.6-.46-5.723-1.857,3.149-2.416,3.03-1.312.763-1.872.648-.87-1.394-1.431-1.504-1.83,3.582-2.392,3.476-.525-3.289-1.088-3.391.034-6.81-.529-6.907-1.751,3.37-2.315,3.277-.631-3.409-1.195-3.498-2.386,8.039-2.952,7.955-.383-5.258-.949-5.338-.882-2.115-1.449-2.19-1.628,3.614-2.195,3.543-1.551,3.473-2.119,3.407-1.013-.945-1.582-1.007-.651-4.676-1.22-4.733-1.748,6.384-2.317,6.331-.754-4.141-1.324-4.189-1.326,2.496-1.897,2.452-1.13.236-1.701.197-.624-8.079-1.195-8.113-1.365,3.644-1.936,3.615-1.205,1.383-1.777,1.358-1.098-.969-1.669-.99-1.054-3.107-1.625-3.122-1.285,6.19-1.857,6.179-1.032-7.187-1.604-7.193-1.176,1.082-1.747,1.08-1.122,7.916-1.693,7.919-1.143-3.323-1.714-3.315-1.089,1.64-1.661,1.653-1.382-8.904-1.953-8.887-1.042,3.753-1.613,3.775-.886,5.728-1.457,5.755-1.105.059-1.676.091-1.055.844-1.625.88-1.482-5.201-2.052-5.159-.854,3.615-1.424,3.661-1.626-5.615-2.195-5.563-.674,5.006-1.242,5.063-1.366-2.205-1.934-2.144-1.406-2.2-1.974-2.134-1.002,1.348-1.569,1.42-.418,5.517-.985,5.593-2.176-7.364-2.742-7.282-.261,6.031-.826,6.117-1.626-3.037-2.191-2.945-1.671-2.95-2.235-2.853-.64,3.066-1.202,3.168.047,6.378-.515,6.485-2.829-8.555-3.389-8.443.741,9.234.182,9.351-3.367-10.232-3.925-10.109-1.375-.673-1.932-.545-.918,1.311-1.473,1.445.084,5.231-.47,5.37.211,5.328-.342,5.472-2.467-4.941-3.019-4.792-.447,2.624-.997,2.778-2.471-4.469-3.02-4.309.97,7.224.423,7.39-3.813-8.487-4.358-8.316.006,3.859-.538,4.035.147,4.045-.394,4.228-1.601-1.223-2.141-1.035-3.571-6.603-4.109-6.409-.698,1.58-1.233,1.779-.723,1.446-1.256,1.65-.787,1.219-1.319,1.429,1.449,6.659.92,6.875-3.615-5.765-4.142-5.544-.046,2.842-.571,3.069-.945.688-1.467.92.326,3.444-.193,3.682-4.64-7.259-5.157-7.016c-.514.242-.438,1.827-.953,2.076-.512.248.337,3.324-.175,3.578s1.392,5.254.883,5.513-4.352-5.979-4.859-5.714,2.528,7.179,2.025,7.449-5.007-6.849-5.507-6.574-1.645-.522-2.142-.241,1.817,5.509,1.323,5.795-2.731-2.388-3.222-2.096-.771.973-1.259,1.271.523,3.021.038,3.325-1.738-.619-2.219-.31-.178,1.81-.655,2.124,1.221,3.815.748,4.136c-.471.319-4.182-4.126-4.651-3.8s2.588,5.612,2.123,5.944-6.89-7.592-7.351-7.255,2.609,5.474,2.152,5.817-.593,1.078-1.045,1.427-1.364.081-1.812.436-.242,1.493-.685,1.853-2.309-1.023-2.747-.657-3.364-2.162-3.797-1.79,3.835,6.163,3.406,6.54-4.732-3.587-5.156-3.204,3.892,5.918,3.474,6.307.228,1.809-.185,2.203-1.747-.259-2.154.141-.332,1.196-.733,1.602-1.107.425-1.504.836-6.376-4.492-6.766-4.075-.34,1.298-.725,1.721,5.718,6.639,5.339,7.067-8.045-5.528-8.418-5.095-2.305-.37-2.672.068c-.365.436,6.882,7.167,6.522,7.61s-5.659-3.085-6.013-2.637,1.834,2.883,1.486,3.336-4.219-1.732-4.56-1.273c-.339.456,4.274,4.552,3.939,5.015-.333.461.239,1.513-.089,1.981-.326.466-2.79-.58-3.111-.107-.319.471-.258,1.177-.573,1.654-.313.475-4.513-1.552-4.821-1.07-.306.48-.413,1.137-.714,1.624-.299.484-1.381.55-1.675,1.04-.292.488-1.884.287-2.171.782-.285.492,6.499,5.036,6.219,5.535-.278.496-7.351-2.737-7.623-2.234-.271.5,4.523,3.736,4.258,4.242-.264.503-.243,1.14-.502,1.651-.256.506,3.43,2.927,3.179,3.44-.25.51-6.979-2.126-7.223-1.61-.243.513-4.253-.666-4.49-.146-.236.516,4.049,3.109,3.818,3.632-.229.52,5.71,3.669,5.487,4.195-.222.523-8.819-2.457-9.035-1.928-.215.526,7.326,4.148,7.117,4.68-.208.529-.981.774-1.183,1.309-.201.531-7.019-1.401-7.215-.863-.194.534,6.64,3.557,6.451,4.097-.187.537.555,1.321.373,1.864-.18.539-3.834-.111-4.009.435-.174.541,1.848,1.731,1.68,2.279-.167.544-5.932-.611-6.093-.061-.16.546,2.33,1.854,2.175,2.406-.153.546-3.513.219-3.661.771-.147.548-2.573.541-2.714,1.095-.14.55,9.231,3.461,9.096,4.017-.134.552-5.188-.092-5.316.466-.128.554-.666,1.016-.788,1.575-.121.556-1.608.832-1.724,1.393-.115.557,5.557,2.261,5.447,2.824-.109.559-1.616.813-1.719,1.377-.103.558-6.457.007-6.554.571-.097.56,3.283,1.72,3.191,2.285-.091.562-5.782.279-5.868.846-.085.563,7.504,2.262,7.424,2.831-.079.563-6.753.248-6.827.817-.073.566-.75,1.106-.818,1.676-.068.566,1.456,1.359,1.393,1.93s6.521,1.848,6.463,2.418c-.058.575-6.948.48-7.001,1.049-.054.575-2.351.985-2.4,1.555-.049.576,5.951,1.663,5.907,2.233-.044.576-2.996.948-3.035,1.518-.039.576-.118,1.17-.152,1.741-.034.576-.804,1.137-.833,1.708-.029.577,6.673,1.457,6.65,2.027-.024.577-1.43,1.075-1.447,1.646-.018.577-7.568.972-7.58,1.543-.012.577,5.506,1.268,5.5,1.839-.006.577.063,1.152.063,1.722,0,.577-3.383,1.186-3.377,1.757.006.577,3.533,1.112,3.545,1.682.013.577,4.491,1,4.51,1.571.019.576,1.394,1.034,1.419,1.604.026.576-8.126,1.544-8.093,2.113.033.576,6.569.722,6.609,1.291.04.575-.03,1.101.017,1.669.048.574-4.84,1.564-4.785,2.132.055.574,6.456.457,6.518,1.024.063.573-5.886,1.81-5.816,2.375.071.572-.104,1.181-.025,1.746.079.571-1.133,1.348-1.047,1.912.088.57-2.811,1.674-2.715,2.236.096.568.974,1.069,1.079,1.63.105.567,9.533-.689,9.646-.13.114.565-6.749,2.573-6.627,3.13.124.563-2.605,1.835-2.473,2.39.133.561,5.2-.059,5.342.494.143.559,5.246-.255,5.398.297.153.556-1.947,1.673-1.786,2.221.163.553-4.148,2.457-3.976,3.002.174.55-1.141,1.632-.958,2.173.184.546,4.581-.355,4.774.183.195.542.561.991.765,1.524.205.538,4.382-.565,4.597-.036.216.533-8.2,4.641-7.974,5.166.227.529,6.665-1.681,6.901-1.161.238.524,1.84.317,2.087.832.249.518-4.893,3.654-4.635,4.163.26.513,1.711.42,1.98.924.271.507,4.139-1.013,4.419-.515.282.5-2.958,2.98-2.667,3.472s1.441.452,1.743.937-4.009,3.965-3.696,4.444,2.111.062,2.435.533,5.848-2.725,6.182-2.261-6.314,6.1-5.969,6.557,1.722.243,2.077.692-.037,1.628.328,2.069,1.559.308,1.934.741,3.554-1.555,3.938-1.13,2.566-.842,2.959-.426,1.291.267,1.693.675-2.301,3.915-1.89,4.314-1.87,3.723-1.451,4.114,6.692-5.591,7.119-5.208-.321,2.027.113,2.401-.689,2.58-.246,2.946,3.876-3.012,4.326-2.655-3.669,6.56-3.213,6.908,1.662-.22,2.124.12c.46.338,1.385.093,1.853.425s3.638-3.253,4.112-2.93-3.444,7.215-2.964,7.53c.477.314,1.073.589,1.558.897.482.306.51,1.501,1,1.801.487.298,4.556-5.289,5.05-4.997.491.29,2.482-2.084,2.98-1.799.496.283-4.038,9.564-3.535,9.842.5.276,6.599-9.773,7.106-9.502.504.268-.333,2.969.178,3.232s2.337-2.213,2.852-1.956c.512.255-2.97,8.623-2.451,8.873.511.246,3.197-4.091,3.716-3.851.515.238,2.279-2.412,2.801-2.181.519.23-2.796,9.279-2.27,9.502.523.222.777,1.285,1.305,1.501.526.214,1.741-1.116,2.273-.908.529.207,4.462-8.536,4.997-8.336s-.702,5.089-.164,5.281.966.653,1.506.837.994.594,1.537.771.942.787,1.487.957,2.617-4.818,3.164-4.656-1.339,8.687-.79,8.841,2.515-4.818,3.066-4.671.512,2.514,1.065,2.654.313,3.607.868,3.74,1.452-1.036,2.009-.91,1.706-2.403,2.264-2.285.181,4.927.741,5.038,1.766-2.965,2.327-2.861.768,2.364,1.33,2.461,1.104.602,1.667.691,2.116-6.312,2.68-6.231,1.434-2.437,2-2.363.451,5.306,1.017,5.373.595,5.248,1.161,5.307,1.634-4.618,2.202-4.566.802,4.423,1.37,4.467,1.386-2.805,1.955-2.768,1.481-6.168,2.05-6.138.983,2.576,1.552,2.598,1.188-3.102,1.757-3.089.975,9.261,1.544,9.267,1.176-5.881,1.746-5.883,1.07-2.558,1.64-2.568,1.309,7.166,1.878,7.148,1.172-.231,1.741-.258.666-8.421,1.235-8.455,1.552,6.473,2.12,6.429.559-6.561,1.126-6.612,1.739,6.354,2.305,6.294.671-4.014,1.236-4.084,2.038,6.752,2.602,6.674,1.277.385,1.84.298-.076-7.617.485-7.713,2.377,6.715,2.936,6.61.689-2.636,1.246-2.751,1.934,3.293,2.49,3.168,1.035-.951,1.588-1.085-.583-7.039-.033-7.183.215-3.273.763-3.427,3.029,6.452,3.573,6.288-.062-3.994.479-4.169,1.2.127,1.738-.058,2.82,4.494,3.354,4.298.072-3.138.602-3.344,2.149,2.198,2.675,1.981-2.335-8.341-1.814-8.569,2.489,2.935,3.005,2.695-.54-3.605-.028-3.855,4.666,6.781,5.171,6.519-2.038-6.238-1.538-6.511,3.689,4.275,4.182,3.991,1.17-.358,1.656-.654-.488-2.969-.008-3.276-2.073-5.077-1.601-5.396,2.419,1.681,2.883,1.351,3.319,2.655,3.774,2.313,4.029,3.224,4.476,2.87-1.531-3.854-1.093-4.219,3.383,2.056,3.812,1.68-6.465-8.898-6.046-9.285,4.757,3.453,5.166,3.055,4.704,2.979,5.102,2.571-3.403-4.915-3.016-5.334,2.343.539,2.719.11.654-1.012,1.02-1.451c.363-.437.566-1.071.92-1.519s2.933.711,3.275.253c.34-.455-6.092-5.845-5.762-6.312s-.035-1.375.287-1.839c.327-.471,9.24,4.956,9.558,4.489.323-.474-.775-1.955-.461-2.425.318-.477-4.455-4.319-4.146-4.792.313-.48-1.547-2.317-1.243-2.793.308-.483,2.05-.01,2.348-.489.303-.486,2.181.028,2.474-.454.298-.49,5.368,1.866,5.655,1.381.292-.493-1.405-2.191-1.123-2.68.286-.497-4.283-3.736-4.008-4.228.28-.501-1.6-2.115-1.332-2.611.273-.505,5.783,1.829,6.044,1.33.266-.509,3.687.579,3.941.075.259-.513-1.552-2.089-1.305-2.596.251-.517,1.937-.384,2.175-.895.243-.521-6.198-4.068-5.969-4.583.234-.525-.268-1.271-.048-1.79.224-.529,8.722,2.378,8.932,1.855.214-.533-6.8-3.882-6.6-4.409.204-.537,1.973-.425,2.162-.956.192-.541,4.08.197,4.257-.338.18-.545-5.839-3.019-5.674-3.557.168-.549,2.393-.398,2.545-.941.154-.553.254-1.045.392-1.591.14-.557-1.917-1.525-1.794-2.074.125-.56,6.759.282,6.866-.271.109-.564,2.064-.877,2.154-1.433.092-.567-6.288-2.089-6.215-2.648.074-.569-2.223-1.271-2.168-1.832.056-.571,10.787-.285,10.823-.848.036-.572-3.459-1.433-3.444-1.997.016-.573-1.351-1.201-1.356-1.766-.005-.572-4.721-.943-4.747-1.507-.027-.571,5.661-1.471,5.612-2.034-.049-.569,1.002-1.341.931-1.901-.072-.566-7.605.009-7.698-.549-.094-.562.055-.974-.062-1.528-.117-.558,1.559-1.376,1.419-1.925s3.995-2.262,3.832-2.805-7.099,1.167-7.284.63,7.265-3.818,7.058-4.347-3.794.302-4.022-.219,4.493-3.399,4.244-3.911.024-1.495-.244-1.998c-.266-.5-6.827,2.432-7.113,1.94-.284-.489-.721-.805-1.025-1.287-.301-.478,4.369-4.248,4.049-4.72-.318-.468-8.034,4.289-8.37,3.827-.332-.457,5.012-5.122,4.662-5.573-.347-.446-2.903.855-3.267.414-.36-.436,4.492-5.402,4.116-5.833s-3.184,1.125-3.579.706c-.392-.416-2.625.884-3.035.479-.407-.401-2.507,1.015-2.93.626-.42-.387-1.118-.344-1.554-.719-.434-.372,2.988-5.414,2.539-5.774-.446-.358-3.605,2.712-4.065,2.367-.458-.343-2.207,1.21-2.678.881s-1.131-.174-1.612-.488-.644-.918-1.135-1.216.189-2.455-.312-2.737-.392-1.651-.902-1.917-3.311,4.216-3.828,3.966.449-3.441-.076-3.673-1.688,1.269-2.22,1.054-.007-2.966-.546-3.164-1.299.368-1.844.188-1.787,2.214-2.337,2.052-.912-.476-1.467-.619.31-6.092-.25-6.215-1.312.427-1.877.323-1.671,3.182-2.239,3.099-.393-6.172-.963-6.235-1.365.994-1.937.952-1.334,2.367-1.907,2.347-1.168-4.221-1.742-4.219-1.284.887-1.858.911-1.364-.884-1.936-.838-1.263.617-1.833.686-.587,4.55-1.155,4.643-1.512-1.749-2.075-1.633c-.56.115-.901,1.399-1.459,1.538-.555.138-2.596-4.731-3.148-4.569-.548.16.603,6.091.058,6.276-.541.183-1.135.199-1.672.407-.532.205-3.06-4.197-3.589-3.968-.523.227.993,5.142.475,5.393-.513.248,1.51,5.225,1.001,5.497-.502.269-1.818-1.281-2.315-.988-.491.289-5.17-6.191-5.655-5.878-.479.308,2.405,5.728,1.931,6.06-.466.326,1.408,3.639.947,3.988-.454.344-5.406-5.122-5.854-4.756-.44.36-1.06.628-1.494,1.01-.426.376-3.035-1.44-3.455-1.042-.413.391,4.862,6.647,4.455,7.059-.399.405-6.456-4.54-6.848-4.114-.386.418,1.583,3.084,1.204,3.523-.372.43-.585,1.058-.95,1.507-.359.442.318,1.731-.034,2.192-.345.452,3.701,4.069,3.362,4.541" style="fill: none; stroke: #000; stroke-linecap: round; stroke-linejoin: round; stroke-width: 40px;"/>
</svg>