<?xml version="1.0" encoding="UTF-8"?>
<svg id="LM_Icons" data-name="LM Icons" xmlns="http://www.w3.org/2000/svg" width="700" height="700" viewBox="0 0 700 700">
  <path d="M74.028,425.89c.63,2.489,4.016-1.434,6.141.007,2.125,1.441-.169,4.824,1.956,6.265s4.429-1.956,6.555-.514c2.125,1.441-.939,5.96,1.187,7.401,2.125,1.441,1.176,2.84,3.301,4.281s2.346,1.115,4.471,2.556c2.125,1.441,2.411,1.019,4.536,2.459,2.125,1.441,1.874,1.812,4,3.253,2.126,1.441,5.232-3.139,7.357-1.698,2.125,1.441.283,4.158,2.408,5.599,2.125,1.441,4.607-2.219,6.732-.779,2.125,1.441,1.571,2.259,3.696,3.7,2.126,1.442-1.003,6.055,1.123,7.497s4.325-1.803,6.451-.362c2.123,1.44,3.01.133,5.133,1.573,2.123,1.439-.002,4.574,2.12,6.013,2.123,1.439,1.541,2.298,3.663,3.737,2.123,1.44,3.041.086,5.164,1.525,2.124,1.44,4.348-1.839,6.472-.399,2.125,1.441-1.493,6.778.632,8.219s2.972.193,5.098,1.634c2.124,1.44,3.65-.809,5.774.631,2.124,1.44,1.84,1.858,3.964,3.298s1.981,1.651,4.104,3.091c2.124,1.441,2.81.429,4.935,1.87s2.574.782,4.7,2.223c2.126,1.441.964,3.154,3.089,4.596,2.125,1.441,2.952.22,5.077,1.66s1.097,2.956,3.221,4.396c2.125,1.441,2,1.626,4.125,3.067s2.084,1.506,4.211,2.948c2.125,1.441,3.522-.618,5.647.823s2.189,1.346,4.314,2.787.03,4.533,2.156,5.974,4.537-2.113,6.663-.671,2.753.516,4.878,1.957c2.126,1.442,1.565,2.268,3.691,3.71s-1.267,6.448.859,7.89c2.126,1.441,2.394,1.045,4.52,2.487,2.127,1.442,2.828.407,4.955,1.849s2.191,1.346,4.318,2.787c2.127,1.442,2.638.687,4.765,2.129,2.127,1.442.533,3.792,2.659,5.234s1.973,1.67,4.1,3.112c2.127,1.442,3.783-1,5.909.442,2.127,1.442,2.605.738,4.732,2.18,2.124,1.44,3.303-.298,5.427,1.142,2.127,1.442.542,3.779,2.669,5.221,2.125,1.441,2.541.828,4.667,2.269s2.853.373,4.98,1.815c2.126,1.442-.038,4.633,2.088,6.075,2.127,1.442,1.742,2.01,3.869,3.453s3.081.038,5.209,1.481.836,3.349,2.964,4.792c2.128,1.443,2.367,1.091,4.495,2.534,2.128,1.443,1.92,1.749,4.047,3.192s3.769-.977,5.897.466c2.13,1.444,4.667-2.298,6.797-.854,2.131,1.445,1.99,1.653,4.122,3.098,2.131,1.445-.686,4.212,1.846,3.747,2.537-.466.086-1.239,1.57-3.348,1.484-2.109,1.31-2.231,2.794-4.34,1.484-2.108,3.8-.478,5.284-2.586,1.484-2.108-.201-3.293,1.283-5.401,1.484-2.108,5.253.545,6.736-1.563,1.484-2.108.547-2.767,2.03-4.875,1.484-2.108-.757-3.685.726-5.793s2.584-1.333,4.068-3.441,1.326-2.22,2.81-4.328c1.484-2.109,1.901-1.815,3.385-3.924s1.904-1.814,3.389-3.923c1.485-2.11-.054-3.193,1.431-5.303s.636-2.707,2.12-4.816c1.484-2.109,4.737.181,6.221-1.928s.242-2.983,1.726-5.091c1.484-2.108,3.768-.5,5.252-2.608s-3.69-5.75-2.206-7.858c1.484-2.108,2.409-1.457,3.893-3.565,1.484-2.108,2-1.746,3.484-3.854,1.484-2.109,1.195-2.312,2.679-4.421s2.056-1.708,3.54-3.817c1.485-2.11-1.125-3.947.36-6.057s5.165.481,6.65-1.628-.226-3.313,1.258-5.422c1.484-2.109.851-2.554,2.336-4.663s2.459-1.422,3.943-3.531,3.937-.382,5.421-2.491c1.484-2.109,2.756-1.214,4.241-3.322,1.485-2.109-2.228-4.722-.743-6.831s4.142-.24,5.627-2.35c1.485-2.11,1.091-2.387,2.576-4.497s.387-2.882,1.871-4.991,4.355-.088,5.839-2.197.042-3.124,1.527-5.232c1.484-2.109-1.901-4.492-.417-6.601s4.171-.219,5.656-2.328-2.112-4.642-.627-6.752c1.485-2.11,6.61,1.497,8.095-.612s-.173-3.276,1.312-5.385.653-2.694,2.138-4.803,3.603-.618,5.087-2.727-2.655-5.023-1.171-7.133c1.485-2.11,5.17.483,6.655-1.627,1.485-2.11,2.147-1.644,3.632-3.754,1.485-2.109-3.583-5.676-2.099-7.786s3.955-.37,5.44-2.479.802-2.59,2.287-4.699c1.485-2.11,5.513.725,6.998-1.385,1.485-2.11-.826-3.737.659-5.847,1.485-2.11,3.302-.831,4.786-2.94,1.485-2.109,1.404-2.166,2.889-4.275,1.485-2.11-2.797-5.123-1.312-7.233s2.063-1.704,3.548-3.814,3.11-.965,4.595-3.074c1.484-2.108,3.026-1.022,4.51-3.13s-1.178-3.98.305-6.088c1.483-2.107,1.679-1.969,3.162-4.077,1.483-2.107.171-3.031,1.654-5.139s4.197-.199,5.681-2.307c1.485-2.11,3.585-.632,5.07-2.741s.285-2.955,1.77-5.065c1.484-2.109,1.553-2.06,3.037-4.169s.696-2.662,2.18-4.771c1.484-2.108.709-2.653,2.193-4.762s2.024-1.729,3.508-3.838-1.567-4.259-.082-6.37c1.485-2.11,3.896-.413,5.381-2.523,1.484-2.109,3.572-.64,5.056-2.749,1.484-2.109-2.84-5.152-1.355-7.261,1.485-2.11,4.587.074,6.072-2.036,1.486-2.111,1.698-1.962,3.184-4.073,1.485-2.11-2.662-5.029-1.177-7.138s3.796-.483,5.281-2.592c1.485-2.11,3.347-.8,4.833-2.91,1.486-2.111-2.982-5.256-1.497-7.367,1.485-2.11,3.188-.911,4.673-3.021s1.082-2.394,2.568-4.504c1.486-2.111.087-3.096,1.573-5.207,1.485-2.11,3.578-.637,5.063-2.748,1.486-2.111,4.802.223,6.288-1.889s.077-3.102,1.562-5.213c1.486-2.111-2.099-4.634-.613-6.745,1.486-2.111,3.124-.958,4.61-3.069,1.486-2.112-.408-3.445,1.078-5.556,1.486-2.111,1.187-2.322,2.672-4.433s1.949-1.786,3.435-3.898c1.484-2.109,5.513.727,6.997-1.381s-1.105-3.935.381-6.046c1.485-2.11,5.834.951,7.319-1.159,1.486-2.112.961-2.482,2.447-4.594,1.486-2.111-.092-3.221,1.393-5.332,1.486-2.112-2.466-4.894-.98-7.005s1.4-2.173,2.887-4.286c1.487-2.113,5.211.509,6.698-1.604,1.487-2.113,3.916-.403,5.403-2.515s-1.367-4.12.12-6.232,2.018-1.739,3.504-3.851c1.488-2.114-2.131-4.662-.643-6.776,1.489-2.116,5.484.696,6.973-1.419,1.489-2.116,5.261-2.782,4.942-5.35-.315-2.539-5.081-1.149-7.038-2.797s-.504-3.371-2.46-5.018c-1.957-1.648-4.834,1.768-6.791.12-1.956-1.648-1.109-2.653-3.066-4.301-1.957-1.648-2.606-.877-4.563-2.525-1.956-1.648.925-5.069-1.032-6.717s-2.83-.612-4.787-2.26-3.119-.268-5.076-1.916c-1.957-1.648.734-4.842-1.223-6.49-1.954-1.646-6.558,3.82-8.513,2.174s.184-4.19-1.772-5.838c-1.956-1.647-2.881-.548-4.837-2.195s-1.5-2.192-3.457-3.84c-1.956-1.648-2.272-1.272-4.228-2.92s-.525-3.349-2.482-4.998-.081-3.878-2.039-5.527-5.286,2.302-7.244.653c-1.958-1.649.53-4.604-1.428-6.253-1.958-1.649-4.833,1.765-6.79.116-1.958-1.649-2.731-.731-4.689-2.38s2.834-7.339.876-8.988c-1.961-1.652-5.49,2.537-7.451.885-1.961-1.652.073-1.127-2.468-.783-2.532.343-2.277-1.781-3.715.331s.094,3.155-1.343,5.267-4.933-.268-6.37,1.843c-1.437,2.111,1.47,4.091.033,6.202s-3.02,1.033-4.457,3.144-2.848,1.151-4.285,3.262c-1.437,2.111-.489,2.757-1.926,4.868-1.438,2.112,2.315,4.666.877,6.778-1.438,2.112-1.347,2.174-2.785,4.287-1.438,2.112-2.843,1.155-4.281,3.267-1.438,2.112.657,3.537-.781,5.649s-4.916-.257-6.353,1.854-.836,2.521-2.273,4.632c-1.437,2.111-3.556.669-4.993,2.781s-1.826,1.847-3.264,3.959,3.629,5.562,2.191,7.674-3.426.758-4.864,2.871c-1.438,2.112-2.192,1.598-3.629,3.71-1.437,2.112-.431,2.797-1.868,4.908s-2.367,1.479-3.805,3.59c-1.438,2.112-4.606-.045-6.044,2.066s.878,3.689-.561,5.801c-1.438,2.112-2.345,1.495-3.783,3.607s-2.142,1.632-3.58,3.744.247,3.259-1.19,5.37c-1.438,2.112,1.326,3.993-.112,6.105s-1.602,2.001-3.04,4.113c-1.438,2.113-1.959,1.758-3.397,3.87s-4.977-.297-6.415,1.815,1.391,4.037-.047,6.149-.891,2.485-2.329,4.597-3.118.969-4.556,3.082-.736,2.589-2.173,4.701c-1.437,2.11,1.133,3.86-.304,5.97-1.436,2.11-4.478.039-5.914,2.149-1.436,2.11-2.873,1.131-4.309,3.241-1.436,2.11,2.575,4.841,1.138,6.951-1.437,2.111-.659,2.641-2.096,4.752s-2.925,1.1-4.363,3.212-5.955-.963-7.393,1.15c-1.437,2.111,1.063,3.814-.374,5.925-1.437,2.111-.015,3.079-1.452,5.189-1.437,2.111-3.301.842-4.738,2.952s2.119,4.532.681,6.644c-1.438,2.113-3.866.46-5.304,2.573s.203,3.23-1.236,5.342c-1.437,2.111-6.575-1.386-8.012.725-1.437,2.111,3.314,5.346,1.876,7.457-1.438,2.112-5.547-.685-6.985,1.427-1.439,2.114,2.019,4.468.58,6.582s.921,3.718-.517,5.83c-1.438,2.112-1.955,1.76-3.392,3.872s-4.951-.279-6.389,1.834c-1.439,2.113-2.654,1.286-4.093,3.4-1.438,2.112,1.393,4.04-.045,6.152s-4.065.325-5.503,2.437c-1.439,2.114,2.417,4.739.978,6.852s-5.121-.395-6.56,1.718c-1.439,2.114,2.782,4.987,1.343,7.101-1.439,2.113-4.845-.206-6.284,1.907-1.439,2.114-1.365,2.164-2.803,4.278-1.439,2.113-1.202,2.275-2.641,4.388-1.439,2.114.009,3.1-1.43,5.214-1.439,2.113-.876,2.497-2.315,4.61s-.656,2.647-2.095,4.761c-1.437,2.111-5.348-.551-6.785,1.56s-1.832,1.846-3.271,3.96c-1.438,2.112.298,3.294-1.14,5.406-1.439,2.114.965,3.751-.475,5.865-1.439,2.113-2.208,1.589-3.647,3.702-1.439,2.114-2.354,1.491-3.793,3.605-1.44,2.115-.352,2.856-1.792,4.971-1.44,2.115-3.105.982-4.545,3.097-1.44,2.115,1.549,4.15.109,6.265-1.439,2.114-6.761-1.508-8.2.606-1.44,2.115-1.785,1.88-3.225,3.994s2.33,4.684.889,6.8c-1.442,2.118-.472,2.778-1.914,4.896-1.442,2.118-1.67,6.109-4.19,6.571-2.546.466-3.325-4.392-5.46-5.856s-3.747.888-5.882-.575q-2.133-1.463-4.272-2.918c-2.133-1.462-.992-3.126-3.125-4.588-2.133-1.462-.159-4.341-2.292-5.803-2.134-1.463-1.459-2.447-3.593-3.909-2.135-1.464-1.994-1.67-4.129-3.134-2.135-1.464-2.622-.752-4.757-2.216-2.134-1.463-4.685,2.258-6.818.795-2.133-1.463-1.826-1.911-3.96-3.373s-2.937-.292-5.072-1.755-.853-3.336-2.989-4.8c-2.134-1.463-.482-3.874-2.616-5.337-2.134-1.463-3.65.748-5.784-.715s-1.671-2.141-3.806-3.605c-2.136-1.464-1.741-2.04-3.876-3.505-2.135-1.464-2.589-.8-4.724-2.264-2.135-1.464-2.378-1.11-4.513-2.574-2.136-1.464-.289-4.157-2.425-5.622-2.135-1.464-5.987,4.155-8.122,2.691-2.136-1.464-1.495-2.4-3.631-3.864-2.135-1.464,1.049-6.108-1.087-7.572s-4.086,1.381-6.222-.084-.737-3.504-2.873-4.968c-2.136-1.465-2.187-1.39-4.324-2.855s-1.561-2.303-3.697-3.767c-2.136-1.465-5.039,2.769-7.175,1.304-2.133-1.463-1.661-2.151-3.794-3.614-2.136-1.464-3.391.366-5.527-1.098s-1.619-2.216-3.753-3.679c-2.137-1.465-2.434-1.031-4.571-2.496s-.028-4.537-2.163-6.001c-2.136-1.465-4.601,2.131-6.738.666s-.329-4.102-2.467-5.567c-2.137-1.465-3.531.567-5.668-.899-2.137-1.465.387-5.147-1.75-6.613s-1.92-1.781-4.057-3.246-3.807.971-5.944-.494c-2.139-1.466-1.423-2.511-3.561-3.978-2.14-1.467-2.717-.626-4.857-2.094-2.14-1.467-1.196-4.404-3.727-3.833-2.458.555,2.203,4.106,1.01,6.325s-5.054.145-6.247,2.366c-1.194,2.221.881,3.337-.313,5.558-1.193,2.22-.268,2.718-1.462,4.938-1.194,2.221-2.199,1.681-3.393,3.903s-5.489-.088-6.683,2.133,4.854,5.472,3.66,7.693c-1.194,2.221-1.371,2.126-2.565,4.347-1.194,2.222-6.007-.365-7.201,1.856-1.194,2.221,3.125,4.542,1.931,6.764-1.194,2.222-5.938-.328-7.133,1.893-1.194,2.222-1.725,1.937-2.919,4.159s2.641,4.282,1.448,6.503c-1.193,2.22-4.844.257-6.037,2.477s1.808,3.836.614,6.057c-1.194,2.22-.251,2.727-1.444,4.948-1.194,2.221-5.588-.14-6.782,2.081s.939,3.369-.256,5.592c-1.195,2.222-2.311,1.622-3.506,3.845s2.152,4.021.957,6.244c-1.194,2.222-5.149.096-6.343,2.318s-.694,2.491-1.889,4.713-1.534,2.042-2.729,4.266c-1.196,2.226,4.35,6.068,2.737,8.013-1.696,2.045-5.702-.303-5.081,2.147Z" style="fill: #fff;"/>
  <path d="M74.028,425.89c.63,2.489,4.016-1.434,6.141.007,2.125,1.441-.169,4.824,1.956,6.265s4.429-1.956,6.555-.514c2.125,1.441-.939,5.96,1.187,7.401,2.125,1.441,1.176,2.84,3.301,4.281s2.346,1.115,4.471,2.556c2.125,1.441,2.411,1.019,4.536,2.459,2.125,1.441,1.874,1.812,4,3.253,2.126,1.441,5.232-3.139,7.357-1.698,2.125,1.441.283,4.158,2.408,5.599,2.125,1.441,4.607-2.219,6.732-.779,2.125,1.441,1.571,2.259,3.696,3.7,2.126,1.442-1.003,6.055,1.123,7.497s4.325-1.803,6.451-.362c2.123,1.44,3.01.133,5.133,1.573,2.123,1.439-.002,4.574,2.12,6.013,2.123,1.439,1.541,2.298,3.663,3.737,2.123,1.44,3.041.086,5.164,1.525,2.124,1.44,4.348-1.839,6.472-.399,2.125,1.441-1.493,6.778.632,8.219s2.972.193,5.098,1.634c2.124,1.44,3.65-.809,5.774.631,2.124,1.44,1.84,1.858,3.964,3.298s1.981,1.651,4.104,3.091c2.124,1.441,2.81.429,4.935,1.87s2.574.782,4.7,2.223c2.126,1.441.964,3.154,3.089,4.596,2.125,1.441,2.952.22,5.077,1.66s1.097,2.956,3.221,4.396c2.125,1.441,2,1.626,4.125,3.067s2.084,1.506,4.211,2.948c2.125,1.441,3.522-.618,5.647.823s2.189,1.346,4.314,2.787.03,4.533,2.156,5.974,4.537-2.113,6.663-.671,2.753.516,4.878,1.957c2.126,1.442,1.565,2.268,3.691,3.71s-1.267,6.448.859,7.89c2.126,1.441,2.394,1.045,4.52,2.487,2.127,1.442,2.828.407,4.955,1.849s2.191,1.346,4.318,2.787c2.127,1.442,2.638.687,4.765,2.129,2.127,1.442.533,3.792,2.659,5.234s1.973,1.67,4.1,3.112c2.127,1.442,3.783-1,5.909.442,2.127,1.442,2.605.738,4.732,2.18,2.124,1.44,3.303-.298,5.427,1.142,2.127,1.442.542,3.779,2.669,5.221,2.125,1.441,2.541.828,4.667,2.269s2.853.373,4.98,1.815c2.126,1.442-.038,4.633,2.088,6.075,2.127,1.442,1.742,2.01,3.869,3.453s3.081.038,5.209,1.481.836,3.349,2.964,4.792c2.128,1.443,2.367,1.091,4.495,2.534,2.128,1.443,1.92,1.749,4.047,3.192s3.769-.977,5.897.466c2.13,1.444,4.667-2.298,6.797-.854,2.131,1.445,1.99,1.653,4.122,3.098,2.131,1.445-.686,4.212,1.846,3.747,2.537-.466.086-1.239,1.57-3.348,1.484-2.109,1.31-2.231,2.794-4.34,1.484-2.108,3.8-.478,5.284-2.586,1.484-2.108-.201-3.293,1.283-5.401,1.484-2.108,5.253.545,6.736-1.563,1.484-2.108.547-2.767,2.03-4.875,1.484-2.108-.757-3.685.726-5.793s2.584-1.333,4.068-3.441,1.326-2.22,2.81-4.328c1.484-2.109,1.901-1.815,3.385-3.924s1.904-1.814,3.389-3.923c1.485-2.11-.054-3.193,1.431-5.303s.636-2.707,2.12-4.816c1.484-2.109,4.737.181,6.221-1.928s.242-2.983,1.726-5.091c1.484-2.108,3.768-.5,5.252-2.608s-3.69-5.75-2.206-7.858c1.484-2.108,2.409-1.457,3.893-3.565,1.484-2.108,2-1.746,3.484-3.854,1.484-2.109,1.195-2.312,2.679-4.421s2.056-1.708,3.54-3.817c1.485-2.11-1.125-3.947.36-6.057s5.165.481,6.65-1.628-.226-3.313,1.258-5.422c1.484-2.109.851-2.554,2.336-4.663s2.459-1.422,3.943-3.531,3.937-.382,5.421-2.491c1.484-2.109,2.756-1.214,4.241-3.322,1.485-2.109-2.228-4.722-.743-6.831s4.142-.24,5.627-2.35c1.485-2.11,1.091-2.387,2.576-4.497s.387-2.882,1.871-4.991,4.355-.088,5.839-2.197.042-3.124,1.527-5.232c1.484-2.109-1.901-4.492-.417-6.601s4.171-.219,5.656-2.328-2.112-4.642-.627-6.752c1.485-2.11,6.61,1.497,8.095-.612s-.173-3.276,1.312-5.385.653-2.694,2.138-4.803,3.603-.618,5.087-2.727-2.655-5.023-1.171-7.133c1.485-2.11,5.17.483,6.655-1.627,1.485-2.11,2.147-1.644,3.632-3.754,1.485-2.109-3.583-5.676-2.099-7.786s3.955-.37,5.44-2.479.802-2.59,2.287-4.699c1.485-2.11,5.513.725,6.998-1.385,1.485-2.11-.826-3.737.659-5.847,1.485-2.11,3.302-.831,4.786-2.94,1.485-2.109,1.404-2.166,2.889-4.275,1.485-2.11-2.797-5.123-1.312-7.233s2.063-1.704,3.548-3.814,3.11-.965,4.595-3.074c1.484-2.108,3.026-1.022,4.51-3.13s-1.178-3.98.305-6.088c1.483-2.107,1.679-1.969,3.162-4.077,1.483-2.107.171-3.031,1.654-5.139s4.197-.199,5.681-2.307c1.485-2.11,3.585-.632,5.07-2.741s.285-2.955,1.77-5.065c1.484-2.109,1.553-2.06,3.037-4.169s.696-2.662,2.18-4.771c1.484-2.108.709-2.653,2.193-4.762s2.024-1.729,3.508-3.838-1.567-4.259-.082-6.37c1.485-2.11,3.896-.413,5.381-2.523,1.484-2.109,3.572-.64,5.056-2.749,1.484-2.109-2.84-5.152-1.355-7.261,1.485-2.11,4.587.074,6.072-2.036,1.486-2.111,1.698-1.962,3.184-4.073,1.485-2.11-2.662-5.029-1.177-7.138s3.796-.483,5.281-2.592c1.485-2.11,3.347-.8,4.833-2.91,1.486-2.111-2.982-5.256-1.497-7.367,1.485-2.11,3.188-.911,4.673-3.021s1.082-2.394,2.568-4.504c1.486-2.111.087-3.096,1.573-5.207,1.485-2.11,3.578-.637,5.063-2.748,1.486-2.111,4.802.223,6.288-1.889s.077-3.102,1.562-5.213c1.486-2.111-2.099-4.634-.613-6.745,1.486-2.111,3.124-.958,4.61-3.069,1.486-2.112-.408-3.445,1.078-5.556,1.486-2.111,1.187-2.322,2.672-4.433s1.949-1.786,3.435-3.898c1.484-2.109,5.513.727,6.997-1.381s-1.105-3.935.381-6.046c1.485-2.11,5.834.951,7.319-1.159,1.486-2.112.961-2.482,2.447-4.594,1.486-2.111-.092-3.221,1.393-5.332,1.486-2.112-2.466-4.894-.98-7.005s1.4-2.173,2.887-4.286c1.487-2.113,5.211.509,6.698-1.604,1.487-2.113,3.916-.403,5.403-2.515s-1.367-4.12.12-6.232,2.018-1.739,3.504-3.851c1.488-2.114-2.131-4.662-.643-6.776,1.489-2.116,5.484.696,6.973-1.419,1.489-2.116,5.261-2.782,4.942-5.35-.315-2.539-5.081-1.149-7.038-2.797s-.504-3.371-2.46-5.018c-1.957-1.648-4.834,1.768-6.791.12-1.956-1.648-1.109-2.653-3.066-4.301-1.957-1.648-2.606-.877-4.563-2.525-1.956-1.648.925-5.069-1.032-6.717s-2.83-.612-4.787-2.26-3.119-.268-5.076-1.916c-1.957-1.648.734-4.842-1.223-6.49-1.954-1.646-6.558,3.82-8.513,2.174s.184-4.19-1.772-5.838c-1.956-1.647-2.881-.548-4.837-2.195s-1.5-2.192-3.457-3.84c-1.956-1.648-2.272-1.272-4.228-2.92s-.525-3.349-2.482-4.998-.081-3.878-2.039-5.527-5.286,2.302-7.244.653c-1.958-1.649.53-4.604-1.428-6.253-1.958-1.649-4.833,1.765-6.79.116-1.958-1.649-2.731-.731-4.689-2.38s2.834-7.339.876-8.988c-1.961-1.652-5.49,2.537-7.451.885-1.961-1.652.073-1.127-2.468-.783-2.532.343-2.277-1.781-3.715.331s.094,3.155-1.343,5.267-4.933-.268-6.37,1.843c-1.437,2.111,1.47,4.091.033,6.202s-3.02,1.033-4.457,3.144-2.848,1.151-4.285,3.262c-1.437,2.111-.489,2.757-1.926,4.868-1.438,2.112,2.315,4.666.877,6.778-1.438,2.112-1.347,2.174-2.785,4.287-1.438,2.112-2.843,1.155-4.281,3.267-1.438,2.112.657,3.537-.781,5.649s-4.916-.257-6.353,1.854-.836,2.521-2.273,4.632c-1.437,2.111-3.556.669-4.993,2.781s-1.826,1.847-3.264,3.959,3.629,5.562,2.191,7.674-3.426.758-4.864,2.871c-1.438,2.112-2.192,1.598-3.629,3.71-1.437,2.112-.431,2.797-1.868,4.908s-2.367,1.479-3.805,3.59c-1.438,2.112-4.606-.045-6.044,2.066s.878,3.689-.561,5.801c-1.438,2.112-2.345,1.495-3.783,3.607s-2.142,1.632-3.58,3.744.247,3.259-1.19,5.37c-1.438,2.112,1.326,3.993-.112,6.105s-1.602,2.001-3.04,4.113c-1.438,2.113-1.959,1.758-3.397,3.87s-4.977-.297-6.415,1.815,1.391,4.037-.047,6.149-.891,2.485-2.329,4.597-3.118.969-4.556,3.082-.736,2.589-2.173,4.701c-1.437,2.11,1.133,3.86-.304,5.97-1.436,2.11-4.478.039-5.914,2.149-1.436,2.11-2.873,1.131-4.309,3.241-1.436,2.11,2.575,4.841,1.138,6.951-1.437,2.111-.659,2.641-2.096,4.752s-2.925,1.1-4.363,3.212-5.955-.963-7.393,1.15c-1.437,2.111,1.063,3.814-.374,5.925-1.437,2.111-.015,3.079-1.452,5.189-1.437,2.111-3.301.842-4.738,2.952s2.119,4.532.681,6.644c-1.438,2.113-3.866.46-5.304,2.573s.203,3.23-1.236,5.342c-1.437,2.111-6.575-1.386-8.012.725-1.437,2.111,3.314,5.346,1.876,7.457-1.438,2.112-5.547-.685-6.985,1.427-1.439,2.114,2.019,4.468.58,6.582s.921,3.718-.517,5.83c-1.438,2.112-1.955,1.76-3.392,3.872s-4.951-.279-6.389,1.834c-1.439,2.113-2.654,1.286-4.093,3.4-1.438,2.112,1.393,4.04-.045,6.152s-4.065.325-5.503,2.437c-1.439,2.114,2.417,4.739.978,6.852s-5.121-.395-6.56,1.718c-1.439,2.114,2.782,4.987,1.343,7.101-1.439,2.113-4.845-.206-6.284,1.907-1.439,2.114-1.365,2.164-2.803,4.278-1.439,2.113-1.202,2.275-2.641,4.388-1.439,2.114.009,3.1-1.43,5.214-1.439,2.113-.876,2.497-2.315,4.61s-.656,2.647-2.095,4.761c-1.437,2.111-5.348-.551-6.785,1.56s-1.832,1.846-3.271,3.96c-1.438,2.112.298,3.294-1.14,5.406-1.439,2.114.965,3.751-.475,5.865-1.439,2.113-2.208,1.589-3.647,3.702-1.439,2.114-2.354,1.491-3.793,3.605-1.44,2.115-.352,2.856-1.792,4.971-1.44,2.115-3.105.982-4.545,3.097-1.44,2.115,1.549,4.15.109,6.265-1.439,2.114-6.761-1.508-8.2.606-1.44,2.115-1.785,1.88-3.225,3.994s2.33,4.684.889,6.8c-1.442,2.118-.472,2.778-1.914,4.896-1.442,2.118-1.67,6.109-4.19,6.571-2.546.466-3.325-4.392-5.46-5.856s-3.747.888-5.882-.575q-2.133-1.463-4.272-2.918c-2.133-1.462-.992-3.126-3.125-4.588-2.133-1.462-.159-4.341-2.292-5.803-2.134-1.463-1.459-2.447-3.593-3.909-2.135-1.464-1.994-1.67-4.129-3.134-2.135-1.464-2.622-.752-4.757-2.216-2.134-1.463-4.685,2.258-6.818.795-2.133-1.463-1.826-1.911-3.96-3.373s-2.937-.292-5.072-1.755-.853-3.336-2.989-4.8c-2.134-1.463-.482-3.874-2.616-5.337-2.134-1.463-3.65.748-5.784-.715s-1.671-2.141-3.806-3.605c-2.136-1.464-1.741-2.04-3.876-3.505-2.135-1.464-2.589-.8-4.724-2.264-2.135-1.464-2.378-1.11-4.513-2.574-2.136-1.464-.289-4.157-2.425-5.622-2.135-1.464-5.987,4.155-8.122,2.691-2.136-1.464-1.495-2.4-3.631-3.864-2.135-1.464,1.049-6.108-1.087-7.572s-4.086,1.381-6.222-.084-.737-3.504-2.873-4.968c-2.136-1.465-2.187-1.39-4.324-2.855s-1.561-2.303-3.697-3.767c-2.136-1.465-5.039,2.769-7.175,1.304-2.133-1.463-1.661-2.151-3.794-3.614-2.136-1.464-3.391.366-5.527-1.098s-1.619-2.216-3.753-3.679c-2.137-1.465-2.434-1.031-4.571-2.496s-.028-4.537-2.163-6.001c-2.136-1.465-4.601,2.131-6.738.666s-.329-4.102-2.467-5.567c-2.137-1.465-3.531.567-5.668-.899-2.137-1.465.387-5.147-1.75-6.613s-1.92-1.781-4.057-3.246-3.807.971-5.944-.494c-2.139-1.466-1.423-2.511-3.561-3.978-2.14-1.467-2.717-.626-4.857-2.094-2.14-1.467-1.196-4.404-3.727-3.833-2.458.555,2.203,4.106,1.01,6.325s-5.054.145-6.247,2.366c-1.194,2.221.881,3.337-.313,5.558-1.193,2.22-.268,2.718-1.462,4.938-1.194,2.221-2.199,1.681-3.393,3.903s-5.489-.088-6.683,2.133,4.854,5.472,3.66,7.693c-1.194,2.221-1.371,2.126-2.565,4.347-1.194,2.222-6.007-.365-7.201,1.856-1.194,2.221,3.125,4.542,1.931,6.764-1.194,2.222-5.938-.328-7.133,1.893-1.194,2.222-1.725,1.937-2.919,4.159s2.641,4.282,1.448,6.503c-1.193,2.22-4.844.257-6.037,2.477s1.808,3.836.614,6.057c-1.194,2.22-.251,2.727-1.444,4.948-1.194,2.221-5.588-.14-6.782,2.081s.939,3.369-.256,5.592c-1.195,2.222-2.311,1.622-3.506,3.845s2.152,4.021.957,6.244c-1.194,2.222-5.149.096-6.343,2.318s-.694,2.491-1.889,4.713-1.534,2.042-2.729,4.266c-1.196,2.226,4.35,6.068,2.737,8.013-1.696,2.045-5.702-.303-5.081,2.147Z" style="fill: none; stroke: #000; stroke-linecap: round; stroke-miterlimit: 10; stroke-width: 45px;"/>
</svg>