<?xml version="1.0" encoding="UTF-8"?>
<svg id="SM_Icons" data-name="SM Icons" xmlns="http://www.w3.org/2000/svg" width="200" height="200" viewBox="0 0 200 200">
  <path d="M82.614,157.34l-3.468-12.376,1.939-12.377,1.717-12.378-1.347-12.374-1.949-12.377,1.251-12.381-1.193-12.377.614-12.386.888-12.386M55.351,158.902l12.755-3.468,12.751,1.939,12.754,1.717,12.758-1.347,12.754-1.949,12.763,1.251,12.763-1.193M55.351,44.222l12.755-3.468,12.751,1.939,12.754,1.717,12.758-1.347,12.754-1.949,12.763,1.251,12.763-1.193M121.534,157.34l-3.468-12.376,1.939-12.377,1.717-12.378-1.347-12.374-1.949-12.377,1.251-12.381-1.193-12.377.614-12.386.888-12.386" style="fill: none; stroke: #000; stroke-linecap: round; stroke-linejoin: round; stroke-width: 23px;"/>
</svg>