<?xml version="1.0" encoding="UTF-8"?>
<svg id="Big_Assets" data-name="Big Assets" xmlns="http://www.w3.org/2000/svg" width="700" height="700" viewBox="0 0 700 700">
  <g>
    <path d="M611.995,350c0,4.769-2.659,9.346-2.91,14.052-.254,4.759,3.001,9.712,2.497,14.4-.509,4.736-1.699,9.377-2.457,14.034-.765,4.699-3.753,8.898-4.763,13.51-1.018,4.648.103,9.757-1.158,14.309-1.27,4.583-3.845,8.729-5.354,13.207-1.517,4.505-1.35,9.613-3.101,14.005-1.76,4.413-6.478,7.504-8.467,11.795-1.997,4.309-3.554,8.712-5.774,12.89-2.227,4.193-1.532,10.041-3.976,14.095-2.451,4.064-8.22,5.995-10.88,9.912s-1.8,10.406-4.67,14.174c-2.873,3.774-9.527,4.515-12.596,8.124-3.071,3.612-2.926,10.115-6.186,13.555-3.26,3.441-6.505,7.083-9.946,10.343-3.44,3.26-8.661,4.646-12.273,7.717-3.609,3.069-7.715,5.506-11.489,8.379-3.768,2.869-8.046,4.948-11.971,7.614-3.917,2.661-7.436,5.853-11.501,8.304-4.053,2.444-6.724,7.445-10.917,9.673-4.178,2.22-9.782,1.711-14.09,3.708-4.291,1.989-7.726,6.089-12.14,7.849-4.391,1.751-9.981.321-14.485,1.838-4.478,1.508-8.521,4.378-13.104,5.648-4.552,1.261-9.676.054-14.324,1.072-4.611,1.01-9.341.689-14.039,1.454-4.657.758-8.993,3.005-13.728,3.515-4.689.504-9.173,3.562-13.933,3.816-4.706.251-9.492.793-14.261.793s-9.338-4.609-14.044-4.86c-4.759-.254-10.01,5.854-14.698,5.35-4.736-.509-9.191-3.754-13.849-4.512-4.699-.765-9.75-.031-14.361-1.042-4.648-1.018-8.974-3.635-13.526-4.897-4.583-1.27-8.199-5.527-12.678-7.036-4.505-1.517-10.137.128-14.528-1.624-4.413-1.76-9.706-1.783-13.998-3.772s-6.727-7.943-10.906-10.163-8.164-4.731-12.218-7.175-8.317-4.523-12.234-7.184c-3.924-2.666-6.458-7.117-10.227-9.986-3.774-2.873-9.062-3.751-12.671-6.82s-6.872-6.521-10.312-9.781c-3.441-3.26-5.289-8.009-8.55-11.45-3.26-3.44-5.946-7.204-9.017-10.817-3.069-3.609-6.285-6.917-9.158-10.691s-7.645-6.089-10.311-10.013c-2.661-3.917-3.153-9.153-5.604-13.218-2.444-4.053-7.903-6.372-10.13-10.564-2.22-4.178-2.711-9.245-4.708-13.554s-6.697-7.479-8.457-11.892c-1.751-4.391-.78-9.859-2.297-14.364-1.508-4.478-1.132-9.48-2.402-14.062-1.261-4.552-2.354-9.041-3.373-13.689-1.01-4.611-6.842-8.342-7.606-13.041-.758-4.657.177-9.677-.332-14.413-.504-4.689,3.117-9.693,2.863-14.453-.251-4.706-3.197-9.297-3.197-14.065s-.237-9.529.015-14.235c.254-4.759,2.986-9.253,3.49-13.942.509-4.736-.422-9.581.336-14.238.765-4.699-1.466-10.017-.455-14.628,1.018-4.648,2.345-9.356,3.606-13.908,1.27-4.583,8.249-7.385,9.757-11.864,1.517-4.505-1.42-10.59.331-14.981,1.76-4.413,6.023-7.76,8.011-12.052s4.794-8.132,7.014-12.31c2.227-4.193,4.48-8.258,6.924-12.312s1.359-10.424,4.019-14.341c2.666-3.924,8.71-5.459,11.579-9.228,2.873-3.774,4.109-8.848,7.178-12.457,3.071-3.612,9.423-4.187,12.683-7.627s2.072-11.313,5.513-14.574c3.44-3.26,10.317-2.731,13.93-5.802,3.609-3.069,8.057-4.867,11.831-7.74,3.768-2.869,5.075-9.049,8.999-11.715s9.889-2.018,13.953-4.469c4.053-2.444,7.234-6.216,11.427-8.444,4.178-2.22,6.657-7.981,10.966-9.978,4.291-1.989,9.418-2.341,13.831-4.101,4.391-1.751,8.183-5.529,12.687-7.047,4.478-1.508,10.675,2.427,15.258,1.157,4.552-1.261,8.127-6.513,12.775-7.531,4.611-1.01,9.331-2.192,14.029-2.956,4.657-.758,9.761,1.231,14.496.722,4.689-.504,9.507,1.247,14.266.993,4.706-.251,9.311-1.754,14.08-1.754s9.414.754,14.12,1.005c4.759.254,9.811-3.288,14.5-2.784,4.736.509,9.577,1.001,14.234,1.759,4.699.765,9.046,3.657,13.658,4.668,4.648,1.018,8.714,4.153,13.266,5.414,4.583,1.27,8.707,3.572,13.186,5.08,4.505,1.517,10.437-.968,14.828.783,4.413,1.76,7.701,6.149,11.992,8.137,4.309,1.997,7.574,5.826,11.752,8.046,4.193,2.227,8.258,4.341,12.311,6.785,4.064,2.451,10.185,1.595,14.102,4.255,3.924,2.666,9.155,3.72,12.923,6.589,3.774,2.873,5.682,8.221,9.292,11.29,3.612,3.071,6.542,6.897,9.982,10.157,3.441,3.26,7.059,6.321,10.319,9.762,3.26,3.44,7.435,6.1,10.506,9.713,3.069,3.609,4.973,8.196,7.846,11.97s3.34,9.164,6.005,13.089c2.661,3.917,9.465,5.16,11.915,9.224,2.444,4.053,5.261,8.051,7.489,12.243,2.22,4.178.716,10.252,2.713,14.561,1.989,4.291,2.812,8.978,4.571,13.391,1.751,4.391,8.558,6.95,10.075,11.455,1.508,4.478.666,9.794,1.936,14.377,1.261,4.552-.923,9.912.095,14.56,1.01,4.611,2.028,9.089,2.793,13.788.758,4.657,6.454,8.663,6.963,13.399.504,4.689-4.335,9.822-4.082,14.582.251,4.706,2.702,9.294,2.702,14.063Z" style="fill: #fff;"/>
    <path d="M611.995,350c0,4.769-2.659,9.346-2.91,14.052-.254,4.759,3.001,9.712,2.497,14.4-.509,4.736-1.699,9.377-2.457,14.034-.765,4.699-3.753,8.898-4.763,13.51-1.018,4.648.103,9.757-1.158,14.309-1.27,4.583-3.845,8.729-5.354,13.207-1.517,4.505-1.35,9.613-3.101,14.005-1.76,4.413-6.478,7.504-8.467,11.795-1.997,4.309-3.554,8.712-5.774,12.89-2.227,4.193-1.532,10.041-3.976,14.095-2.451,4.064-8.22,5.995-10.88,9.912s-1.8,10.406-4.67,14.174c-2.873,3.774-9.527,4.515-12.596,8.124-3.071,3.612-2.926,10.115-6.186,13.555-3.26,3.441-6.505,7.083-9.946,10.343-3.44,3.26-8.661,4.646-12.273,7.717-3.609,3.069-7.715,5.506-11.489,8.379-3.768,2.869-8.046,4.948-11.971,7.614-3.917,2.661-7.436,5.853-11.501,8.304-4.053,2.444-6.724,7.445-10.917,9.673-4.178,2.22-9.782,1.711-14.09,3.708-4.291,1.989-7.726,6.089-12.14,7.849-4.391,1.751-9.981.321-14.485,1.838-4.478,1.508-8.521,4.378-13.104,5.648-4.552,1.261-9.676.054-14.324,1.072-4.611,1.01-9.341.689-14.039,1.454-4.657.758-8.993,3.005-13.728,3.515-4.689.504-9.173,3.562-13.933,3.816-4.706.251-9.492.793-14.261.793s-9.338-4.609-14.044-4.86c-4.759-.254-10.01,5.854-14.698,5.35-4.736-.509-9.191-3.754-13.849-4.512-4.699-.765-9.75-.031-14.361-1.042-4.648-1.018-8.974-3.635-13.526-4.897-4.583-1.27-8.199-5.527-12.678-7.036-4.505-1.517-10.137.128-14.528-1.624-4.413-1.76-9.706-1.783-13.998-3.772s-6.727-7.943-10.906-10.163-8.164-4.731-12.218-7.175-8.317-4.523-12.234-7.184c-3.924-2.666-6.458-7.117-10.227-9.986-3.774-2.873-9.062-3.751-12.671-6.82s-6.872-6.521-10.312-9.781c-3.441-3.26-5.289-8.009-8.55-11.45-3.26-3.44-5.946-7.204-9.017-10.817-3.069-3.609-6.285-6.917-9.158-10.691s-7.645-6.089-10.311-10.013c-2.661-3.917-3.153-9.153-5.604-13.218-2.444-4.053-7.903-6.372-10.13-10.564-2.22-4.178-2.711-9.245-4.708-13.554s-6.697-7.479-8.457-11.892c-1.751-4.391-.78-9.859-2.297-14.364-1.508-4.478-1.132-9.48-2.402-14.062-1.261-4.552-2.354-9.041-3.373-13.689-1.01-4.611-6.842-8.342-7.606-13.041-.758-4.657.177-9.677-.332-14.413-.504-4.689,3.117-9.693,2.863-14.453-.251-4.706-3.197-9.297-3.197-14.065s-.237-9.529.015-14.235c.254-4.759,2.986-9.253,3.49-13.942.509-4.736-.422-9.581.336-14.238.765-4.699-1.466-10.017-.455-14.628,1.018-4.648,2.345-9.356,3.606-13.908,1.27-4.583,8.249-7.385,9.757-11.864,1.517-4.505-1.42-10.59.331-14.981,1.76-4.413,6.023-7.76,8.011-12.052s4.794-8.132,7.014-12.31c2.227-4.193,4.48-8.258,6.924-12.312s1.359-10.424,4.019-14.341c2.666-3.924,8.71-5.459,11.579-9.228,2.873-3.774,4.109-8.848,7.178-12.457,3.071-3.612,9.423-4.187,12.683-7.627s2.072-11.313,5.513-14.574c3.44-3.26,10.317-2.731,13.93-5.802,3.609-3.069,8.057-4.867,11.831-7.74,3.768-2.869,5.075-9.049,8.999-11.715s9.889-2.018,13.953-4.469c4.053-2.444,7.234-6.216,11.427-8.444,4.178-2.22,6.657-7.981,10.966-9.978,4.291-1.989,9.418-2.341,13.831-4.101,4.391-1.751,8.183-5.529,12.687-7.047,4.478-1.508,10.675,2.427,15.258,1.157,4.552-1.261,8.127-6.513,12.775-7.531,4.611-1.01,9.331-2.192,14.029-2.956,4.657-.758,9.761,1.231,14.496.722,4.689-.504,9.507,1.247,14.266.993,4.706-.251,9.311-1.754,14.08-1.754s9.414.754,14.12,1.005c4.759.254,9.811-3.288,14.5-2.784,4.736.509,9.577,1.001,14.234,1.759,4.699.765,9.046,3.657,13.658,4.668,4.648,1.018,8.714,4.153,13.266,5.414,4.583,1.27,8.707,3.572,13.186,5.08,4.505,1.517,10.437-.968,14.828.783,4.413,1.76,7.701,6.149,11.992,8.137,4.309,1.997,7.574,5.826,11.752,8.046,4.193,2.227,8.258,4.341,12.311,6.785,4.064,2.451,10.185,1.595,14.102,4.255,3.924,2.666,9.155,3.72,12.923,6.589,3.774,2.873,5.682,8.221,9.292,11.29,3.612,3.071,6.542,6.897,9.982,10.157,3.441,3.26,7.059,6.321,10.319,9.762,3.26,3.44,7.435,6.1,10.506,9.713,3.069,3.609,4.973,8.196,7.846,11.97s3.34,9.164,6.005,13.089c2.661,3.917,9.465,5.16,11.915,9.224,2.444,4.053,5.261,8.051,7.489,12.243,2.22,4.178.716,10.252,2.713,14.561,1.989,4.291,2.812,8.978,4.571,13.391,1.751,4.391,8.558,6.95,10.075,11.455,1.508,4.478.666,9.794,1.936,14.377,1.261,4.552-.923,9.912.095,14.56,1.01,4.611,2.028,9.089,2.793,13.788.758,4.657,6.454,8.663,6.963,13.399.504,4.689-4.335,9.822-4.082,14.582.251,4.706,2.702,9.294,2.702,14.063Z" style="fill: none; stroke: #000; stroke-miterlimit: 10; stroke-width: 50px;"/>
  </g>
  <path d="M538.87,350c0,4.902-1.679,9.897-2.052,14.703-.379,4.881-4.61,9.275-5.359,14.043-.759,4.831,1.481,10.206.357,14.906-1.136,4.751-4.243,8.96-5.736,13.561-1.507,4.641.189,10.559-1.665,15.032-1.867,4.504-9.719,6.227-11.923,10.543-2.215,4.339.173,11.204-2.365,15.337-2.547,4.148-8.529,6.014-11.385,9.938-2.863,3.933-2.264,10.655-5.42,14.347-3.159,3.696-10.53,3.512-13.966,6.948-3.436,3.436-6.1,7.476-9.796,10.635-3.691,3.156-6.939,6.749-10.873,9.611-3.924,2.856-7.812,5.703-11.96,8.25-4.133,2.538-7.52,6.501-11.858,8.716-4.316,2.204-10.421.432-14.924,2.299-4.473,1.855-8.304,5.05-12.945,6.557-4.601,1.494-9.51,1.444-14.26,2.581-4.699,1.124-9.256,2.105-14.086,2.864-4.768.749-9.021,6.182-13.903,6.561-4.806.373-9.849,1.498-14.751,1.498s-9.527-6.508-14.333-6.882c-4.881-.379-10.472,5.425-15.24,4.676-4.831-.759-8.632-6.908-13.331-8.032-4.751-1.136-8.956-3.434-13.557-4.928-4.641-1.507-9.239-2.494-13.711-4.348-4.504-1.867-9.561-2.249-13.878-4.453-4.339-2.215-9.587-2.877-13.72-5.415-4.148-2.547-8.627-4.848-12.551-7.704s-8.644-5.078-12.336-8.233c-3.696-3.159-7.61-6.475-11.045-9.911s-2.223-11.221-5.382-14.917c-3.156-3.691-6.302-7.149-9.164-11.082-2.856-3.924-7.297-6.679-9.844-10.827-2.538-4.133-8.168-6.694-10.383-11.032-2.204-4.316.014-10.788-1.853-15.292-1.855-4.473-4.235-8.699-5.742-13.34-1.494-4.601-4.741-8.776-5.877-13.527-1.124-4.699-3.955-9.288-4.714-14.119-.749-4.768.868-10.029.489-14.91-.373-4.806-1.607-9.751-1.607-14.653s.989-9.866,1.362-14.672c.379-4.881,4.61-9.243,5.36-14.011.759-4.831,1.097-9.556,2.222-14.256,1.136-4.751-.497-10.244.997-14.845,1.507-4.641,5.683-8.283,7.538-12.755,1.867-4.504.057-10.765,2.261-15.082,2.215-4.339,5.561-8.257,8.099-12.39,2.547-4.148,5.481-8.211,8.337-12.135s9.959-4.441,13.115-8.132,5.354-7.988,8.789-11.423,7.502-5.894,11.198-9.053c3.691-3.156,6.873-6.624,10.806-9.486,3.924-2.856,5.843-8.657,9.991-11.204,4.133-2.538,10.193-1.588,14.532-3.803,4.316-2.204,6.573-8.943,11.076-10.811,4.473-1.855,10.658.763,15.299-.744,4.601-1.494,8.186-6.755,12.936-7.892,4.699-1.124,9.599-2.368,14.43-3.127,4.768-.749,9.972.995,14.854.616,4.806-.373,9.676-2.028,14.578-2.028s9.953-.686,14.76-.313c4.881.379,9.082,6.203,13.85,6.952,4.831.759,9.433,1.455,14.132,2.579,4.751,1.136,9.341,2.068,13.942,3.562,4.641,1.507,9.447,2.14,13.92,3.995,4.504,1.867,8.987,3.569,13.304,5.773,4.339,2.215,9.878,2.356,14.011,4.894,4.148,2.547,6.733,7.488,10.657,10.343,3.933,2.863,8.884,4.441,12.575,7.597,3.696,3.159,5.047,8.782,8.483,12.218,3.436,3.436,6.385,7.073,9.544,10.769,3.156,3.691,8.072,5.873,10.935,9.806,2.856,3.924,6.012,7.681,8.559,11.829,2.538,4.133,3.339,9.219,5.554,13.557,2.204,4.316,6.822,7.546,8.69,12.049,1.855,4.473,5.117,8.646,6.624,13.287,1.494,4.601-2.976,10.919-1.84,15.669,1.124,4.699,6.682,8.511,7.441,13.342.749,4.768-.827,9.905-.448,14.786.373,4.806,4.176,9.636,4.176,14.539Z"/>
</svg>