<?xml version="1.0" encoding="UTF-8"?>
<svg id="SM_Icons" data-name="SM Icons" xmlns="http://www.w3.org/2000/svg" width="200" height="200" viewBox="0 0 200 200">
  <polyline points="158.997 108.914 149.876 117.49 141.659 126.918 134.016 136.891 126.483 146.973 118.218 156.361 110.26 166.049 100.001 176.047 92.848 163.141 84.113 154.201 74.423 146.154 63.951 138.839 57.845 127.419 48.872 118.686 39.262 110.552" style="fill: none; stroke: #000; stroke-linecap: round; stroke-linejoin: round; stroke-width: 23px;"/>
  <g>
    <polygon points="161.755 53.211 146.978 55.444 133.969 55.578 121.828 53.259 118.636 40.252 120.071 27.328 106.993 25.057 93.016 27.375 78.775 26.163 81.268 40.252 77.328 52.465 66.04 55.617 53.031 52.806 41.86 54.972 47.195 64.486 56.361 73.02 65.348 81.727 74.023 90.734 83.526 98.957 89.928 110.109 100 118.673 109.912 109.976 118.437 100.838 124.454 89.335 132.541 79.775 144.399 73.769 149.675 61.47 161.755 53.211" style="fill: #fff;"/>
    <polygon points="161.755 53.211 146.978 55.444 133.969 55.578 121.828 53.259 118.636 40.252 120.071 27.328 106.993 25.057 93.016 27.375 78.775 26.163 81.268 40.252 77.328 52.465 66.04 55.617 53.031 52.806 41.86 54.972 47.195 64.486 56.361 73.02 65.348 81.727 74.023 90.734 83.526 98.957 89.928 110.109 100 118.673 109.912 109.976 118.437 100.838 124.454 89.335 132.541 79.775 144.399 73.769 149.675 61.47 161.755 53.211" style="fill: none; stroke: #000; stroke-linecap: round; stroke-linejoin: round; stroke-width: 23px;"/>
  </g>
</svg>