<?xml version="1.0" encoding="UTF-8"?>
<svg id="Title" xmlns="http://www.w3.org/2000/svg" width="700" height="700" viewBox="0 0 700 700">
  <path d="M258.661,271.042s.605-2.693.642-3.811c.016-.476-4.371-1.196-4.349-1.857.018-.517-2.274-1.172-2.252-1.796.019-.532,2.901-1.005,2.922-1.612.019-.541-2.136-1.193-2.115-1.791.02-.547,1.539-1.066,1.561-1.659.02-.552,3.049-1.012,3.071-1.601.021-.555-2.526-1.224-2.504-1.811.021-.557-1.236-1.179-1.214-1.764.022-.558,2.276-1.043,2.299-1.626.022-.559-1.581-1.196-1.558-1.778.022-.561,6.43-.874,6.454-1.454.023-.561-1.706-1.203-1.682-1.782.023-.562,1.295-1.08,1.319-1.658.024-.563,2.678-1.021,2.703-1.598.024-.563-5.115-1.351-5.09-1.928.024-.563-5.623-1.38-5.598-1.956.025-.564,8.261-.775,8.286-1.35.025-.564.909-1.094.934-1.669.025-.565-8.145-1.504-8.119-2.079.026-.565,2.142-1.042,2.169-1.617.026-.566-2.082-1.236-2.055-1.811.026-.566,1.438-1.074,1.465-1.648.027-.566,6.064-.852,6.091-1.426.027-.567-.478-1.161-.45-1.735.027-.567-5.441-1.405-5.413-1.978.028-.567,8.254-.734,8.283-1.307.028-.567-9.785-1.628-9.756-2.201.028-.568,7.799-.748,7.828-1.321.029-.568,1.848-1.045,1.877-1.617.029-.568-5.711-1.436-5.681-2.009.03-.568,4.992-.88,5.023-1.452.03-.569-3.067-1.304-3.036-1.876.03-.569,1.316-1.071,1.347-1.643.031-.567-3.123-1.309-3.091-1.88.031-.567,2.964-.976,2.996-1.547s.744-1.098.776-1.668,2.998-.969,3.031-1.539-10.647-1.754-10.614-2.324,6.99-.737,7.024-1.308-.031-1.144.002-1.715-.084-1.148-.05-1.718-2.345-1.286-2.31-1.857,7.442-.683,7.478-1.253-5.821-1.504-5.785-2.074,1.661-1.039,1.697-1.61-3.892-1.396-3.855-1.966,5.212-.807,5.249-1.378.365-1.12.403-1.692-1.186-1.225-1.148-1.797,3.215-.927,3.254-1.498-7.729-1.682-7.69-2.254c.04-.572,3.727-.89,3.768-1.462s-2.541-1.33-2.5-1.901,7.602-.596,7.643-1.167-2.938-1.36-2.896-1.931-6.097-1.606-6.054-2.176-.488-1.192-.444-1.762,1.104-1.07,1.149-1.639-1.331-1.261-1.286-1.83,4.226-.816,4.272-1.385-3.739-1.46-3.692-2.029c.047-.572.688-1.1.736-1.669.048-.572,4.561-.768,4.609-1.336.049-.572.014-1.149.063-1.718.05-.572-5.475-1.638-5.424-2.206.051-.572.908-1.079.959-1.647.052-.572.152-1.146.205-1.714.053-.572.285-1.134.339-1.701.054-.572-.858-1.245-.803-1.811.056-.572,2.014-.964,2.07-1.531.057-.572,4.966-.656,5.023-1.222.058-.572,3.633-.771,3.692-1.336.06-.572-4.77-1.649-4.71-2.214.061-.572-4.463-1.643-4.401-2.207.063-.572,3.749-.744,3.812-1.308.065-.572-4.974-1.734-4.909-2.298.066-.573,9.28-.066,9.347-.629.069-.573-7.489-2.069-7.42-2.631.071-.573-.926-1.294-.855-1.856.073-.573,10.719.232,10.793-.329.076-.574-6.063-1.965-5.986-2.526.079-.574.248-1.132.327-1.692.082-.574,1.594-.932,1.677-1.49.085-.574.669-1.057.755-1.614.089-.574-2.789-1.612-2.699-2.167.093-.574-2.817-1.667-2.722-2.22.098-.575,1.557-.94,1.657-1.491.104-.576,2.255-.785,2.361-1.334.111-.576,3.563-.467,3.676-1.013.119-.576,2.085-.69,2.207-1.231.129-.576.238-1.056.37-1.59.142-.578-4.282-2.273-4.138-2.801.158-.578,2.9-.352,3.061-.868.181-.581,1.675-.531,1.861-1.031.217-.584,1.612-.226,1.834-.693.28-.588.937.312,1.226-.079.342-.463-2.606-3.37-2.267-3.834s-.432-1.742-.095-2.207c.339-.468-2.756-3.436-2.418-3.899.34-.466,5.506,2.605,5.846,2.145.344-.465-4.446-4.787-4.101-5.242.35-.461,5.516,2.771,5.868,2.323.358-.456,1.583-.139,1.946-.578.37-.448,2.922,1.146,3.297.719.384-.437-6.854-7.801-6.462-8.213.401-.422,6.558,4.886,6.968,4.495.421-.401-4.146-6.371-3.713-6.737.444-.375,3.812,2.806,4.271,2.474.47-.341,2.327,1.764,2.814,1.472.497-.297,1.541,1.427,2.058,1.186.521-.243.444-.292.988-.473s-.498-4.902.069-5.016c.555-.111,1.041-.35,1.622-.392.56-.041,1.114-.653,1.701-.625.558.026,1.022.902,1.605.994.549.087.289,3.15.862,3.298.537.139,1.355-1.394,1.914-1.199.524.183.331,1.725.876,1.959.51.22,2.247-2.415,2.776-2.148.496.251,3.766-4.349,4.28-4.055.483.276-2.003,5.716-1.504,6.032.471.298,2.106-1.113,2.592-.778.459.316,3.636-2.94,4.109-2.591.45.333-5.121,8.633-4.658,8.996.441.347,2.177-1.015,2.63-.639.432.358-.475,2.206-.032,2.591.426.37,1.257.187,1.693.582.418.379,4.413-3.114,4.841-2.711.404.38,2.118-.571,2.544-.166.403.384-2.442,4.19-2.02,4.597.402.388,1.518.056,1.936.463.401.39-2.874,4.545-2.458,4.953.4.393,2.276-.719,2.689-.311.399.395,6.18-4.617,6.591-4.208.399.397-.014,1.636.395,2.046.398.398-2.8,4.391-2.393,4.802.397.4,5.843-4.181,6.249-3.77.396.402-3.171,4.726-2.767,5.138.396.403-1.21,2.771-.807,3.184.395.404,5.943-4.208,6.345-3.795.395.405-2.432,3.953-2.031,4.366.394.406-.027,1.606.373,2.02.393.408-1.695,3.204-1.297,3.619.393.409,2.932-1.245,3.33-.83.392.41,4.293-2.528,4.69-2.112.392.41,2.052-.373,2.448.044.391.411-1.408,2.914-1.013,3.331.391.412,1.347.299,1.742.716.39.413,2.002-.314,2.396.105.39.414-4.027,5.348-3.634,5.767.389.415,6.16-4.204,6.552-3.784.388.416-.953,2.458-.562,2.878.388.416-.708,2.22-.317,2.64.386.415-.446,1.962-.058,2.382.385.416,5.412-3.451,5.799-3.031.385.417-4.007,5.244-3.62,5.664.385.418-.373,1.883.014,2.304.384.419,2.944-1.156,3.33-.734.384.42,2.869-1.075,3.254-.652s.07,1.482.455,1.905.063,1.485.447,1.909,1.489.194,1.872.618-.877,2.329-.494,2.754,1.745-.034,2.127.392-4.291,5.375-3.909,5.802,8.988-6.502,9.369-6.075-3.587,4.731-3.207,5.159,5.093-2.99,5.473-2.562-6.346,7.144-5.967,7.572,4.421-2.382,4.799-1.953,1.592.125,1.97.554-1.182,2.558-.805,2.989,3.737-1.743,4.113-1.312-1.651,2.959-1.275,3.391.562,1.029.937,1.461.011,1.504.385,1.937-.25,1.724.123,2.158,4.255-2.141,4.627-1.706-2.498,3.645-2.126,4.081-1.115,2.449-.744,2.885,8.633-5.817,9.003-5.38-7.741,8.045-7.372,8.483,5.871-3.445,6.24-3.006,1.421.309,1.788.747-4,4.827-3.634,5.266,7.507-4.744,7.872-4.304-7.461,7.654-7.098,8.095,6.403-3.79,6.765-3.349-3.32,4.196-2.959,4.638c.363.444,4.714-2.365,5.074-1.923.362.445-.436,1.832-.078,2.275.361.446-3.324,4.143-2.967,4.587.361.449.914.724,1.271,1.171.36.45,1.487.271,1.842.719.359.451,5.892-3.199,6.246-2.75.357.452.395,1.164.748,1.614.356.454,1.851.027,2.202.477.354.455-.462,1.828-.112,2.279.353.456,1.083.629,1.431,1.082.351.457-2.641,3.469-2.295,3.922.349.459-2.239,3.123-1.896,3.578.347.46,2.652-.576,2.993-.12.345.461.206,1.263.544,1.72.343.463,5.166-2.385,5.502-1.927.341.465-1.41,2.457-1.077,2.917.338.466,1.336.452,1.667.913.336.468.162,1.295.49,1.757.333.47-3.642,3.947-3.318,4.41.33.472,1.092.597,1.412,1.062.327.475,8.115-4.162,8.432-3.695.324.478-6.211,5.566-5.898,6.035.321.481,7.642-3.669,7.951-3.197.317.484-6.365,5.495-6.061,5.969.313.488,7.869-3.616,8.168-3.138.307.491,1.485.507,1.776.986.302.496-5.571,4.719-5.286,5.202.296.501-3.199,3.123-2.922,3.61.288.506,5.699-1.921,5.966-1.432.28.513,2.39.062,2.647.556.269.518-.995,1.827-.753,2.324.257.527,1.982-2.981,2.207-2.479.781.344-1.134,4.61-.056,4.33.461-.12,1.602,2.007,2.243,1.841.5-.129-.342-5.664.261-5.82.515-.133.411-2.825.998-2.977.524-.135.979-.659,1.558-.808.53-.136,2.08,3.598,2.654,3.45.534-.137,1.613,1.773,2.184,1.626.537-.138-.146-5.096.422-5.241.539-.138,1.358.754,1.924.609.541-.138.642-2.051,1.207-2.195.542-.139,3.679,9.828,4.242,9.684.543-.139-.089-4.92.473-5.063.544-.139.892-1.079,1.453-1.222.544-.139.913-1.002,1.473-1.144.545-.139,1.692,2.058,2.251,1.916.546-.139.318-3.351.877-3.493.546-.139,2.484,5.182,3.043,5.041.547-.139.69-1.891,1.248-2.032.547-.139.506-2.624,1.064-2.765.548-.139,1.63,1.818,2.188,1.677.548-.138.78-1.549,1.337-1.69.549-.138,1.645,1.878,2.202,1.738.549-.138-.083-4.985.474-5.125.549-.138,1.571,1.585,2.128,1.445.55-.138.477-2.771,1.034-2.911.55-.138,2.425,4.993,2.981,4.854.55-.138,1.777,2.419,2.334,2.28.551-.138-1.309-9.926-.753-10.065.551-.138,1.937,3.054,2.493,2.915.551-.138.783-1.57,1.339-1.708.551-.137.261-3.672.817-3.81.55-.137,2.009,3.371,2.563,3.234.55-.137,1.887,2.886,2.44,2.749.55-.137.439-2.95.993-3.088.551-.136,2.341,4.729,2.895,4.592s-.766-7.842-.212-7.979,3.326,8.731,3.88,8.595,1.342.697,1.896.56.381-3.212.936-3.348,1.462,1.185,2.017,1.049.237-3.818.792-3.954,1.384.863,1.939.727,1.519,1.425,2.073,1.29.952-.902,1.506-1.037,1.073-.409,1.628-.544-.371-6.373.184-6.507,1.598,1.74,2.153,1.605,2.741,6.485,3.297,6.351-.635-7.509-.079-7.643,2.672,6.22,3.228,6.087-.942-8.831-.386-8.965,2.414,5.165,2.971,5.032.598-2.428,1.155-2.561,2.241,4.47,2.798,4.337-.045-5.149.511-5.281.536-2.721,1.093-2.853,3.069,8.025,3.625,7.894-.784-8.321-.229-8.452.985-.824,1.54-.954,1.185.032,1.74-.097c.558-.13,1.521,1.478,2.076,1.349.558-.13,1.893,3.093,2.448,2.964.558-.129,1.404.998,1.958.87.559-.129-.014-5.155.541-5.283.559-.128,1.537,1.576,2.092,1.449.559-.128,1.829,2.875,2.384,2.748.559-.127-.804-8.702-.25-8.827.559-.127,1.589,1.813,2.143,1.688.56-.126,1.549,1.659,2.104,1.534.56-.126,2.61,6.429,3.164,6.306.56-.125-.701-8.408-.147-8.531.561-.125,2.583,6.373,3.137,6.251.561-.124.571-2.723,1.125-2.844.562-.123,1.843,3.089,2.397,2.969.562-.122-.469-7.575.085-7.694.563-.121,1.719,2.526,2.272,2.408.564-.121,1.309.641,1.863.524.565-.12,1.601,2.038,2.156,1.922.566-.119-.012-5.681.542-5.795.566-.117.453-3.541,1.006-3.655.566-.116,1.823,3.147,2.376,3.036.567-.114.821-1.791,1.373-1.901.568-.113,1.298.577,1.85.469.57-.111,1.393,1.091,1.945.985.571-.109,2.044,4.62,2.595,4.517.573-.107.117-5.709.667-5.809.574-.104.893-1.66,1.441-1.757.576-.101,2.089,5.279,2.636,5.187.581-.098.114-6.539.661-6.626.584-.093,1.863,4.286,2.406,4.205.588-.088,1.187.079,1.726.006.596-.08.657-4.542,1.19-4.602.607-.069,2.063,9.057,2.583,9.014.572-.047,1.014-1.753,1.579-1.801.572-.049.61-6.198,1.174-6.248.572-.05,1.394,2.793,1.958,2.743.572-.051,1.432,3.187,1.996,3.137.572-.051.853-3.311,1.416-3.36.572-.05,1.516,4.347,2.079,4.3.572-.049.517-7.583,1.079-7.628.573-.046,1.24,1.016,1.801.974.573-.042,1.385,3.418,1.947,3.381.574-.038.809-5.771,1.37-5.802.575-.032,1.497,7.112,2.059,7.088.576-.024.889-7.988,1.451-8.003.577-.015,1.283,7.284,1.844,7.281.578-.003,1.112-1.453,1.673-1.443.578.011,1.12-.067,1.679-.04.578.028,1.682-6.781,2.239-6.735.577.048,1.025,3.021,1.58,3.091.574.073.217,6.153.767,6.251.57.102,1.637-2.695,2.179-2.563.562.137,1.302-.346,1.834-.175.55.177.422,2.061.939,2.278.53.222,3.45-4.263,3.945-3.996.503.272,1.055,1.239,1.52,1.56s-.298,2.66.13,3.036c.423.372-2.472,3.914-2.088,4.341.373.416,8.066-4.836,8.401-4.365.322.452-6.211,5.494-5.925,6,.272.482,5.016-1.26,5.254-.727.226.504-1.361,1.897-1.166,2.448.184.519,2.43.534,2.586,1.098.147.532-3.477,2.06-3.354,2.632.115.539.869.936.962,1.512.088.547-.777,1.203-.71,1.785.064.551-1.44,1.188-1.395,1.771.042.547,3.562.911,3.544,1.5-.017.55.649,1.251.582,1.835-.063.548,1.835,1.562,1.73,2.139-.099.544-1.723.927-1.859,1.496-.128.54,3.384,2.215,3.224,2.775-.152.535-7.682-1.091-7.861-.537-.172.53,6.767,3.555,6.571,4.101-.188.526-2.855.257-3.064.797-.202.522-6.451-1.379-6.673-.845-.214.517,5.776,3.683,5.545,4.212-.225.514.645,1.6.405,2.124-.234.511-1.63.55-1.878,1.07-.242.508-4.38-.854-4.634-.338-.249.505,5.847,4.234,5.586,4.747-.256.502-4.816-1.168-5.082-.659-.262.5-4.938-1.35-5.209-.844-.267.497.453,1.502.177,2.005-.272.495-2.915-.356-3.194.144-.276.493,5.831,4.576,5.547,5.074-.28.492-2.763-.272-3.05.224-.283.49,1.321,2.086,1.032,2.58-.285.487,1.427,2.174,1.136,2.664-.288.485-4.484-1.352-4.778-.863-.291.484,4.614,4.128,4.318,4.615-.294.484-6.603-2.696-6.901-2.21-.296.483,2.281,2.741,1.981,3.225-.299.482,1.281,2.147.979,2.631-.301.481.775,1.846.471,2.328s-1.218.594-1.523,1.076c-.303.479-6.665-2.887-6.971-2.407s-.912.758-1.219,1.238,5.17,4.675,4.862,5.154-.74.886-1.05,1.364-6.565-2.895-6.876-2.417.789,1.869.478,2.347-1.426.431-1.738.908,4.766,4.479,4.453,4.956-.719.899-1.032,1.376-6.189-2.688-6.502-2.21,6.306,5.502,5.993,5.979-4.031-1.276-4.344-.799-3.713-1.066-4.025-.59,3.413,3.601,3.101,4.077-6.866-3.123-7.177-2.647c-.313.479-1.724.245-2.034.721-.312.478,4.438,4.252,4.129,4.728-.311.479-1.362.475-1.67.95-.311.481,2.092,2.709,1.785,3.187-.309.48-.903.767-1.208,1.243-.307.479-1.982.076-2.284.551-.306.48-2.525-.255-2.825.22-.284.45,3.107,3.336,2.774,3.836-.299.45-6.631-3.173-6.967-2.684-.31.45-.741.771-1.081,1.251-.317.449,3.381,3.759,3.039,4.234-.323.449,2.488,3.212,2.144,3.682-.328.448.077,1.488-.269,1.954-.332.448-7.002-3.813-7.349-3.349-.336.447-1.497.264-1.846.725-.338.447,1.421,2.487,1.071,2.945-.341.446,4.816,5.127,4.465,5.583-.343.446-8.076-4.802-8.428-4.346-.345.445,4.704,5.087,4.35,5.541-.347.445.188,1.597-.166,2.05-.347.443-8.416-5.175-8.77-4.725-.348.443,1.294,2.449.94,2.898-.35.443,1.769,2.842,1.414,3.29-.351.442.239,1.64-.117,2.087-.353.442,2.017,3.069,1.66,3.515-.354.442-5.673-3.086-6.03-2.641-.355.442-2.7-.718-3.058-.273-.356.442.602,1.94.243,2.384-.356.441,3.425,4.228,3.067,4.671s-3.446-1.329-3.805-.886,1.268,2.497.908,2.94-1.903-.079-2.263.363,2.659,3.648,2.298,4.089-3.592-1.459-3.953-1.017-3.393-1.304-3.755-.863-1.06.607-1.423,1.048,3.06,4.002,2.697,4.443,1.154,2.441.79,2.882c-.366.443-7.951-5.081-8.315-4.641s3.457,4.342,3.094,4.779c-.365.441-2.692-.748-3.054-.311-.366.441,1.944,3.1,1.582,3.536-.366.441,2.077,3.218,1.715,3.653-.367.441-8.929-5.948-9.292-5.513-.368.441,7.842,8.031,7.479,8.466-.368.441-3.559-1.476-3.921-1.042-.369.442-4.125-1.956-4.488-1.523-.37.442,5.421,6.038,5.058,6.471-.371.442-6.425-3.888-6.787-3.456-.372.443,2.427,3.539,2.064,3.97-.372.443-6.444-3.918-6.806-3.488-.373.444,6.462,6.945,6.101,7.373-.374.444-4.517-2.301-4.878-1.874-.375.445-2.802-.859-3.161-.434-.378.447-.811.826-1.17,1.25-.38.45,4.984,5.739,4.626,6.162-.383.452-1.055.636-1.41,1.055-.386.455-6.753-4.201-7.104-3.788-.392.461,5.231,5.987,4.885,6.394-.401.471-1.208.536-1.542.928-.426.5-4.328-2.076-4.637-1.714-.716.839.147,2.271.147,2.271.535.67-1.172,1.695-.477,2.57.298.375,5.892-3.334,6.304-2.815.322.406,1.048.568,1.435,1.057.332.42-4.748,5.172-4.37,5.65.338.427,3.552-1.382,3.924-.911.339.43.28,1.205.647,1.67.342.434,3.587-1.393,3.951-.93.343.436-3.645,4.302-3.282,4.763.345.439.502,1.041.863,1.502.346.44,2.492-.516,2.852-.057.346.442.101,1.362.461,1.82.347.443,1.545.234,1.903.692.347.444.624.956.981,1.414.348.445-2.876,3.686-2.519,4.144.348.446.358,1.162.714,1.619.348.447,3.57-1.336,3.925-.878.348.447,3.798-1.506,4.153-1.049.348.448-3.075,3.832-2.721,4.288.348.449,5.606-2.899,5.959-2.442.348.449-4.334,4.799-3.981,5.256.348.45,4.804-2.268,5.156-1.811.348.45-.539,1.862-.187,2.319.346.449-5.992,6.052-5.642,6.506.346.449,3.444-1.217,3.793-.763.346.45,2.232-.28,2.581.175.346.451-3.297,3.963-2.948,4.419.346.451,3.8-1.478,4.149-1.022.346.452,1.018.657,1.367,1.113.346.453,4.779-2.21,5.127-1.754.346.453-1.018,2.216-.67,2.672.346.454-5.487,5.61-5.139,6.067.346.454,4.389-1.902,4.736-1.445s.157,1.316.503,1.773,5.337-2.603,5.683-2.145c.344.455-6.295,6.188-5.95,6.645s8.697-5.126,9.042-4.668-4.858,5.091-4.513,5.549,4.613-2.031,4.957-1.572.123,1.344.467,1.803-4.15,4.536-3.806,4.995,6.542-3.45,6.885-2.99-3.138,3.771-2.795,4.231-1.343,2.426-1.001,2.887,3.028-.815,3.37-.354-3.769,4.211-3.428,4.673,5.414-2.566,5.754-2.103-3.677,4.127-3.337,4.59.81.825,1.149,1.288,4.179-1.632,4.517-1.169.756.873,1.094,1.337c.339.467,5.8-2.782,6.136-2.317.339.467-7.343,6.737-7.007,7.202.338.468,2.022-.044,2.357.421.337.469,5.058-2.213,5.392-1.747.336.469-1.57,2.544-1.238,3.01.336.47-1.148,2.231-.817,2.697.335.471.423,1.107.753,1.574.334.472-.068,1.451.261,1.918.333.473,5.611-2.532,5.939-2.064.332.473-.956,2.079-.63,2.547.33.474-.732,1.911-.408,2.379.329.475,3.766-1.195,4.088-.726.328.476,2.84-.534,3.161-.064.326.477-1.945,2.732-1.626,3.202.324.479-3.446,3.713-3.129,4.184.322.48,6.491-2.954,6.804-2.484.321.482-1.472,2.374-1.161,2.846.319.484.101,1.322.41,1.795.317.487,2.274-.084,2.58.391.315.489-5.844,5.103-5.542,5.578.312.492.226,1.181.524,1.658.309.494,6.457-2.652,6.75-2.174.306.499.632.994.919,1.474.302.504-3.664,3.51-3.383,3.992.297.508,7.557-2.983,7.83-2.5.291.515-4.829,4.038-4.567,4.523.283.523,4.656-1.1,4.905-.614.273.534-7.877,5.126-7.648,5.613.244.519,5.174-1.168,5.416-.65s6.398-1.715,6.639-1.196-5.257,3.708-5.018,4.226-2.199,2.267-1.962,2.785,4.062-.604,4.298-.086c.237.521-.473,1.471-.239,1.99.236.522,3.566-.342,3.798.178.234.523-5.007,3.476-4.777,3.997.232.524-1.217,1.764-.989,2.286.229.525,3.606-.333,3.831.189.227.526.611.975.833,1.499.224.528,5.923-1.24,6.142-.715.221.529.569,1.035.784,1.561.217.531-.457,1.452-.245,1.979.214.533,1.279.758,1.487,1.287.21.534-.923,1.622-.72,2.152.206.536,2.077.478,2.275,1.01.201.538-6.98,3.8-6.787,4.333.196.542,2.581.282,2.769.818.191.544-3.451,2.372-3.269,2.91.184.546,8.298-1.54,8.473-1,.178.548-3.715,2.403-3.548,2.945.17.55.321,1.094.48,1.638.162.553-2.881,1.974-2.731,2.519.153.555,4.932-.149,5.072.398.143.558,1.972.735,2.101,1.284.132.562-6.46,2.606-6.343,3.158.12.565-.748,1.207-.644,1.761.106.568,3.436.476,3.525,1.033.091.571,5.187.434,5.259.993.074.573-7.644,1.989-7.591,2.549.055.575,2.464.836,2.496,1.397.033.578-3.179,1.104-3.171,1.666.009.579,5.82,1.081,5.802,1.643-.019.578-2.773.931-2.821,1.491-.05.576,6.809,2.028,6.727,2.584-.085.57-9.464-.576-9.584-.028-.123.562-.042.801-.204,1.339s-.049,1.12-.218,1.663c-.166.537-1.762.546-1.938,1.086-.174.535,8.114,3.892,7.928,4.427-.185.533-5.815-.896-6.014-.365s2.247,2.052,2.033,2.576-.452,1.039-.685,1.554-3.346-.405-3.599.101,3.02,2.814,2.745,3.308-4.849-1.651-5.149-1.171,7.687,6.518,7.36,6.981c-.325.46-6.098-2.986-6.453-2.542-.351.439,1.427,2.743,1.045,3.164-.378.415-4.518-2.883-4.928-2.488-.404.389,2.397,4.253,1.959,4.62-.428.359-4.661-4.327-5.124-3.99-.451.328,3.785,7.501,3.3,7.806-.471.296-2.428-1.658-2.933-1.385-.489.264.405,3.664-.117,3.905-.503.232-2.773-3.334-3.308-3.125-.515.202.667,5.62.12,5.799-.526.172-2.829-5.06-3.384-4.909-.534.145-.45,3.112-1.012,3.237-.54.119-1.88-3.549-2.447-3.45-.546.096-.205,6.583-.776,6.659-.55.073-1.751-4.434-2.325-4.379-.553.053-1.38-3.759-1.956-3.723-.553.034-1.042-.638-1.617-.62-.554.017-1.005,3.69-1.58,3.691-.555,0-1.041-3.019-1.616-3.033-.556-.014-1.108,1.252-1.683,1.224-.556-.028-.949-1.87-1.523-1.911-.555-.04-1.791,7.942-2.364,7.888-.556-.052-1.063-1.382-1.635-1.447-.556-.063-.069-8.552-.64-8.627-.549-.072-1.12.415-1.696.331-.55-.08-1.42,2.159-1.994,2.069-.55-.087-1.027-.527-1.599-.622-.551-.092-1.132.075-1.701-.025-.551-.097-.937-1.02-1.505-1.125-.551-.102-1.067-.296-1.634-.405-.551-.106-1.68,2.76-2.244,2.648-.55-.11-2.002,4.135-2.565,4.019-.55-.113-.6-2.725-1.162-2.844-.55-.117-1.935,3.534-2.496,3.412-.55-.12-.772-1.858-1.332-1.983-.55-.123.65-8.014.091-8.141-.55-.126-1.023-.512-1.581-.642-.55-.128-3.119,8.307-3.677,8.175-.55-.131-.325-3.552-.881-3.687-.55-.133-.28-3.616-.836-3.753-.549-.136-2.542,5.512-3.097,5.372-.549-.138-.044-4.475-.598-4.617-.549-.14-2.064,3.455-2.618,3.311-.547-.142-1.35.644-1.901.499-.547-.144.968-8.075.418-8.222-.547-.146-1.686,1.949-2.236,1.8-.547-.148-.308-3.138-.857-3.289-.547-.15-3.624,8.852-4.173,8.7s-.901-1.051-1.449-1.206,1.042-7.831.494-7.988-1.96,2.729-2.507,2.571-.486-2.378-1.033-2.538-2.027,2.861-2.573,2.699-.991-.665-1.536-.829-.408-2.567-.953-2.733-2.355,3.796-2.899,3.628-.096-3.54-.64-3.71-.648-1.716-1.192-1.888-.797-1.219-1.34-1.392-1.165-.062-1.708-.238-1.97,2.376-2.511,2.198.061-3.791-.479-3.971-2.387,3.553-2.927,3.371.621-5.343.082-5.527-2.007,2.37-2.545,2.183-2.572,3.905-3.109,3.716.326-4.342-.21-4.533c-.538-.192-.719-1.342-1.253-1.535-.537-.194-2.855,4.507-3.388,4.311-.536-.197-2.251,2.742-2.782,2.544-.537-.2,1.366-6.921.834-7.123-.536-.203-3.387,5.642-3.917,5.438-.534-.205,2.911-10.652,2.384-10.858-.532-.208-4.073,7.246-4.599,7.037-.533-.212-1.993,1.835-2.518,1.622-.529-.215-.31-2.313-.832-2.528-.528-.218-1.298.099-1.817-.119s.726-4.656.188-4.883c-.521-.219.323-3.705-.214-3.932-.522-.22-3.592,5.594-4.129,5.368-.523-.22-.852-.92-1.387-1.146-.524-.22-.269-2.308-.804-2.534-.524-.221-3.634,5.688-4.169,5.463-.525-.221,3.181-10.512,2.647-10.737-.526-.221-5.306,9.659-5.84,9.434-.526-.221-.408-1.984-.942-2.209-.525-.221-1.239,0-1.77-.223-.525-.221,1.04-5.42.508-5.644-.526-.221-1.539.707-2.07.484-.527-.222-1.091-.359-1.623-.583-.527-.222-1.878,1.508-2.409,1.284-.528-.222,2.003-7.722,1.472-7.946-.528-.222-4.176,6.97-4.708,6.747-.528-.222-1.618.891-2.147.668s1.349-6.169.819-6.392-2.688,3.428-3.218,3.205-2.153,2.152-2.684,1.929-1.345.226-1.876.003-.351-2.14-.882-2.363,1.566-6.704,1.035-6.927-3.155,4.524-3.687,4.301.233-3.537-.298-3.761-.38-2.071-.91-2.293c-.532-.224-1.904,1.553-2.433,1.331-.533-.224-.795-1.086-1.324-1.308-.533-.224-3.264,4.786-3.792,4.564-.533-.224-.793-1.091-1.321-1.313-.533-.224.018-3.022-.509-3.244-.534-.224-1.239-.03-1.767-.252-.534-.224-.712-1.286-1.239-1.507-.535-.225-.054-2.853-.581-3.074-.535-.225-.243-2.405-.77-2.626-.536-.225-3.974,6.469-4.5,6.248-.537-.226-.357-2.14-.882-2.361-.537-.226-2.152,2.13-2.677,1.909-.538-.226,2.861-9.801,2.337-10.021-.539-.226-3.635,5.654-4.158,5.434-.54-.227-1.859,1.425-2.38,1.206-.541-.227,2.377-8.656,1.857-8.875-.542-.228-2.067,1.917-2.585,1.699-.544-.229-.662-1.435-1.178-1.652-.547-.23-.57-1.661-1.084-1.877-.552-.232-1.948,1.598-2.459,1.383-.556-.233-1.941,1.576-2.446,1.364-.563-.237-3.928,6.284-4.424,6.075-.576-.242-.199-2.625-.679-2.826-.612-.257.383-4.112-.061-4.299-1.027-.432-3.641-5.745-4.395-5.332s3.001,6.46,2.391,7.062-1.444-.24-2.055.363-2.685-1.496-3.296-.892.012,1.233-.599,1.836-.588.626-1.198,1.228,2.107,3.354,1.497,3.956c-.61.602-5.965-4.819-6.575-4.217s7.183,8.491,6.573,9.093-.853.355-1.463.957-2.726-1.541-3.335-.939-3.31-2.132-3.919-1.53-.307.907-.917,1.509-1.725-.527-2.334.074.17,1.391-.439,1.993c-.609.602-3.328-2.15-3.937-1.548s2.595,3.847,1.986,4.449-1.146.059-1.756.661,2.455,3.705,1.845,4.308,1.813,3.056,1.203,3.659-7.931-6.808-8.542-6.204,2.411,3.664,1.8,4.267-3.995-2.822-4.606-2.219,3.555,4.82,2.944,5.424-4.176-3.006-4.786-2.403,1.336,2.573.726,3.175-3.008-1.825-3.618-1.222,5.985,7.279,5.375,7.881-3.69-2.515-4.3-1.913c-.61.602-2.149-.956-2.759-.354s.838,2.069.228,2.671,1.828,3.071,1.218,3.674c-.611.603-1.69-.49-2.301.113s-5.253-4.096-5.864-3.493,1.953,3.2,1.341,3.804-.223.997-.834,1.6c-.611.603-1.566-.363-2.177.24s3.171,4.431,2.56,5.034-7.159-6.026-7.77-5.424,5.098,6.381,4.487,6.984-1.18.026-1.791.629c-.611.603-5.271-4.115-5.881-3.511s.554,1.783-.057,2.386-1.151.057-1.762.661,4.949,6.233,4.337,6.837-4.934-3.772-5.545-3.168-.763.45-1.373,1.054,3.232,4.493,2.621,5.097-1.889-.69-2.499-.087,1.583,2.824.972,3.428-7.164-6.03-7.775-5.426.058,1.282-.554,1.886c-.611.604-.504.713-1.115,1.317s-1.661-.46-2.271.143,5.51,6.797,4.9,7.4.708,1.935.099,2.537-2.798-1.614-3.407-1.013-4.601-3.439-5.21-2.838,3.976,5.244,3.367,5.845.837,2.066.227,2.668-3.518-2.341-4.128-1.738,3.013,4.273,2.402,4.877-4.683-3.516-5.295-2.911.129,1.354-.482,1.958-1.716-.515-2.326.088,2.853,4.109,2.243,4.712-4.407-3.241-5.018-2.638-2.53-1.339-3.141-.736,6.151,7.451,5.54,8.056-4.694-3.527-5.306-2.922,3.092,4.353,2.48,4.957-1.577-.374-2.188.23-6.985-5.848-7.596-5.244-.422.798-1.034,1.403.563,1.795-.05,2.399,4.482,5.761,3.87,6.366-4.531-3.363-5.144-2.758,1.243,2.484.63,3.09c-.612.605,2.14,3.391,1.528,3.996s-4.349-3.177-4.962-2.571-2.843-1.658-3.454-1.055,2.269,3.524,1.656,4.129.6,1.831-.012,2.435-6.123-4.975-6.735-4.371,4.981,6.27,4.367,6.876-.445.775-1.058,1.38-.593.627-1.207,1.233-.367.857-.982,1.463-3.32-2.134-3.933-1.528-3.668-2.485-4.283-1.878,2.011,3.268,1.395,3.877c-.616.609-1.22.079-1.819.705s.307,1.137-.467,1.934c-.338.349-1.068.352-1.552.808-.382.36-.665.822-1.136,1.233-.408.356.67,2.518.196,2.903-.427.347-.971.636-1.452.999-.443.335,1.787,4.544,1.299,4.889-.457.323-2.445-1.319-2.941-.993-.47.309-5.06-5.898-5.565-5.589-.481.294,2.847,7.013,2.335,7.304-.491.279-4.93-6.727-5.451-6.453-.501.264,3.639,9.717,3.111,9.973-.511.248-3.801-5.332-4.336-5.093-.52.231-2.032-2.091-2.575-1.871-.528.215,2.07,8.514,1.52,8.717-.535.198-.737,1.879-1.293,2.064-.541.18-1.439-.136-2,.03-.547.162-2.979-6.184-3.544-6.036-.552.144-1.693-2.494-2.263-2.365-.557.126.676,8.865.102,8.975-.562.108-1.658-2.171-2.236-2.08-.565.09-2.071-6.699-2.651-6.626-.568.072-.652,3.719-1.235,3.774-.571.054-1.32-3.279-1.905-3.243-.576.036-.932,2.466-1.493,2.485-.577.02-1.086-2.072-1.647-2.07-.577.002-1.032,1-1.593.983-.577-.017-1.624,9.016-2.183,8.979-.576-.038-.448-8.791-1.005-8.85-.575-.061-1.446,2.778-2,2.694-.572-.086-.61-2.796-1.159-2.905-.567-.113-.484-2.177-1.028-2.315-.56-.142-.955.11-1.49-.059-.55-.174-3.498,6.658-4.022,6.457-.538-.207,2.351-8.286,1.841-8.522-.522-.241-4.756,7.069-5.249,6.797-.502-.277-1.933.48-2.406.171-.479-.313,2.029-5.046,1.58-5.391-.452-.348,1.559-3.298,1.139-3.679s-1.142.018-1.533-.396-6.204,3.923-6.562,3.479c-.354-.44-1.138-.908-1.462-1.379-.319-.464,6.372-5.357,6.083-5.852-.284-.484-3.064.605-3.319.092-.25-.502-3.267.256-3.49-.274-.217-.516-3.908.09-4.1-.453-.187-.528.125-1.504-.038-2.057-.158-.537,7.23-3.135,7.095-3.696-.131-.545-7.583.464-7.692-.102-.106-.549-.344-1.268-.43-1.838-.083-.553,9.455-2.364,9.39-2.936-.062-.556-8.331-.302-8.375-.877-.043-.559,7.513-1.566,7.487-2.142-.026-.561-2.031-.962-2.04-1.539-.009-.561-7.619-1.14-7.612-1.716.006-.562,7.045-1.005,7.066-1.582.02-.562-1.512-1.176-1.478-1.752.031-.522-1.296-1.175-1.257-1.788.034-.534,3.261-.891,3.301-1.492.036-.542-2.188-1.262-2.147-1.856.038-.547-4.942-1.473-4.9-2.062.039-.551,10.13-.398,10.173-.985.04-.553-6.336-1.588-6.293-2.171.041-.555,2.625-.935,2.668-1.516.041-.556,2.662-.93,2.705-1.509.042-.558,1.798-.993,1.842-1.571.042-.559-8.002-1.742-7.958-2.319.043-.559,5.945-.677,5.99-1.254.043-.56-8.593-1.8-8.549-2.375.043-.561,2.939-.909,2.984-1.484.044-.561-.219-1.153-.174-1.726.044-.561,8.802-.444,8.847-1.017.044-.562-8.07-1.772-8.025-2.344.044-.562,5.191-.725,5.237-1.298.045-.563-4.346-1.482-4.3-2.054.045-.563-2.826-1.364-2.781-1.935.045-.563,6.26-.638,6.306-1.209.045-.564-5.957-1.617-5.911-2.188.045-.564,6.305-.632,6.351-1.203.045-.564.918-1.065.964-1.636.046-.565-7.56-1.751-7.514-2.322.046-.565,2.755-.918,2.801-1.488.046-.565.653-1.088.7-1.658.046-.566,5.509-.693,5.556-1.263.046-.566,2.123-.968,2.17-1.538.046-.566-1.089-1.23-1.042-1.8.046-.566-2.417-1.339-2.371-1.909.046-.566-6.784-1.698-6.737-2.268.046-.565.141-1.128.187-1.696s-.156-1.153-.109-1.721-.051-1.145-.004-1.713,7.53-.521,7.577-1.089-4.449-1.509-4.402-2.077-.254-1.164-.207-1.732,1.575-1.013,1.622-1.581,3.158-.88,3.205-1.448,1.203-1.043,1.25-1.611-2.945-1.388-2.898-1.957,2.924-.902,2.971-1.47-2.652-1.366-2.605-1.935-3.235-1.416-3.188-1.986,3.991-.815,4.038-1.384-4.886-1.556-4.839-2.126,9.764-.331,9.812-.9-1.634-1.283-1.586-1.852-8.096-1.825-8.049-2.394,3.429-.861,3.476-1.429-4.251-1.505-4.203-2.073,3.121-.887,3.169-1.455,1.153-1.052,1.201-1.62,6.494-.603,6.542-1.171c.048-.571-10.317-2.017-10.269-2.585.048-.571,7.384-.528,7.432-1.096.048-.571-1.55-1.28-1.502-1.848.048-.572,1.652-1.01,1.699-1.578.048-.572-6.414-1.691-6.366-2.258.048-.572,10.51-.262,10.558-.83.048-.572-2.62-1.371-2.573-1.938.048-.572-3.181-1.419-3.133-1.985.048-.572-4.898-1.564-4.851-2.131.048-.572,11.62-.166,11.668-.732.048-.572-10.816-2.066-10.768-2.632.049-.573,8.04-.468,8.088-1.034.049-.573-3.201-1.421-3.153-1.986.049-.573-5.137-1.586-5.089-2.15.049-.573,8.16-.457,8.208-1.021.049-.573-1.539-1.28-1.491-1.844.049-.573-1.528-1.279-1.48-1.842.049-.573,6.333-.611,6.381-1.173.049-.574-1.644-1.29-1.596-1.853.049-.575-6.588-1.713-6.54-2.275.049-.576,5.69-.668,5.738-1.229.049-.577-4.712-1.555-4.664-2.116.049-.577-2.76-1.39-2.712-1.95.049-.578,8.36-.442,8.408-1.001.049-.579-5.646-1.638-5.598-2.196.05-.58,1.105-1.062,1.153-1.618.05-.581,4.076-.808,4.123-1.362.05-.584.503-1.117.55-1.669.05-.587.15-1.15.197-1.699.051-.59-.08-1.172-.033-1.717.051-.597.861-1.1.908-1.64.052-.605-5.043-1.615-4.998-2.145.053-.619-.411-1.23-.367-1.743.057-.658,4.337-.862,4.378-1.336.095-1.107-2.792.182-2.792.182-.8-.313-1.18,1.354-2.222.944-.446-.175-.053-2.746-.67-2.99-.483-.19.842-5.105.261-5.335-.498-.197-2.943,4.425-3.51,4.2-.507-.201,1.409-6.585.849-6.807-.511-.203-1.199-.018-1.752-.238-.513-.204-4.874,9.21-5.422,8.992-.516-.206,3.261-11.229,2.715-11.446-.518-.207-3.258,5.118-3.802,4.901-.52-.208.246-3.664-.297-3.881-.522-.209-2.178,2.391-2.72,2.174-.523-.209-2.844,4.04-3.385,3.823-.524-.21-1.201-.068-1.741-.284-.524-.211,2.188-8.493,1.649-8.71-.525-.211-.849-.935-1.388-1.151-.526-.212-4.384,7.822-4.921,7.605-.526-.212,1.42-6.562.882-6.779-.526-.213-.894-.829-1.431-1.046-.527-.213-1.507.682-2.043.465-.527-.214-2.301,2.632-2.836,2.415-.527-.214,1.153-5.872.618-6.09-.527-.215-4.084,7.003-4.619,6.785-.528-.215,2.133-8.263,1.599-8.481-.528-.215-4.23,7.336-4.764,7.118-.526-.215-1.443.512-1.975.295-.526-.215,1.649-7.037,1.117-7.255-.527-.216-3.948,6.615-4.479,6.396-.527-.216-.456-1.901-.988-2.119-.527-.217,2.243-8.451,1.712-8.67-.527-.217-1.952,1.743-2.484,1.523-.528-.218-3.576,5.661-4.107,5.441-.528-.218.777-4.874.246-5.094-.528-.219-2.617,3.323-3.148,3.102s2.335-8.607,1.805-8.828-5.063,9.186-5.593,8.966c-.527-.219,1.376-6.273.847-6.494s.229-3.511-.3-3.732-2.889,3.941-3.418,3.72-3.213,4.692-3.742,4.47,1.314-6.089.785-6.312.52-4.182-.009-4.405-2.828,3.752-3.358,3.529-.392-2.018-.921-2.242-3.307,4.85-3.835,4.626.581-4.308.052-4.533-2.7,3.397-3.229,3.171,2.879-9.661,2.351-9.887-1.647.935-2.175.708-1.969,1.673-2.496,1.446-.797-1.055-1.324-1.283.141-3.218-.386-3.446-3.334,4.8-3.861,4.571-2.033,1.782-2.56,1.553-1.838,1.319-2.364,1.089c-.529-.231-.859-.926-1.384-1.156-.529-.232-.259-2.285-.784-2.516-.528-.233,1.698-6.697,1.173-6.929-.528-.233-4.61,7.563-5.134,7.33-.528-.234,2.224-7.834,1.7-8.067-.528-.235-.406-1.896-.929-2.13-.527-.236-2.438,2.635-2.96,2.4-.527-.237-.824-.965-1.345-1.2-.526-.238-4.123,6.302-4.643,6.065-.526-.239-.418-1.88-.937-2.117-.525-.24,1.887-6.879,1.369-7.118-.525-.241-5.197,8.518-5.714,8.279-.524-.242,3.676-10.657,3.16-10.897-.524-.244-.928-.699-1.442-.941-.524-.246-3.45,4.643-3.964,4.401-.524-.248-2.807,3.21-3.32,2.966-.523-.249,3.1-9.144,2.588-9.39-.523-.251-2.502,2.56-3.012,2.312-.523-.254-3.005,3.523-3.514,3.274-.521-.256-.327-1.96-.833-2.211-.522-.259.777-4.126.273-4.38-.521-.262-4.636,6.576-5.138,6.32-.519-.265,1.949-6.33,1.45-6.589-.52-.27-3.359,3.897-3.855,3.634-.517-.274,2.848-7.751,2.358-8.017-.516-.279-2.48,2.192-2.965,1.922-.5-.278-.558-1.307-1.041-1.579-.499-.281.371-2.918-.11-3.192-.498-.284-1.577.525-2.057.249-.497-.287-3.477,3.739-3.954,3.459-.495-.29-.654-1.133-1.128-1.417-.493-.294-2.475,1.876-2.947,1.588-.49-.299-.701-1.082-1.168-1.374-.487-.304-.996-.604-1.46-.901-.484-.31.753-3.265.294-3.567-.481-.317-.869-.725-1.322-1.035-.477-.326-2.26,1.238-2.708.919-.471-.335-.803-.886-1.243-1.215-.464-.346-1.671.228-2.102-.11-.455-.357.454-2.434.033-2.785-.443-.371,1.126-2.969.719-3.334-.429-.386-1.39-.039-1.782-.42-.413-.403,2.016-3.305,1.643-3.706-.392-.422-2.502,1.007-2.853.585-.368-.441-6.485,3.592-6.812,3.147-.338-.46,4.657-4.642,4.359-5.109-.305-.477-5.151,1.721-5.419,1.233-.271-.493,3.831-3.248,3.592-3.756s1.685-1.755,1.476-2.278c-.206-.515-3.448.225-3.631-.312-.178-.523-6.65.836-6.811.289-.156-.529,4.08-2.4,3.937-2.953-.137-.532,6.118-2.581,5.99-3.138-.124-.536-11.108,1.317-11.227.755-.114-.538,8.133-2.823,8.021-3.387s-5.136-.523-5.15-1.087c-.014-.569.114-1.488.194-2.054.079-.557.537-1.341.703-1.894.16-.535-1.347-2.085-1.11-2.616.227-.508,4.642.934,4.935.43.279-.481-2.293-2.903-1.957-3.38.32-.454,5.127,2.501,5.496,2.051.353-.43-5.299-6.192-4.905-6.618.379-.409.464-1.505.879-1.91.4-.39,3.344,1.669,3.775,1.283.417-.373.879-.84,1.323-1.21.431-.358.16-1.756.616-2.111.443-.345.489-1.418.953-1.759.454-.333,3.081,2.252,3.553,1.924.462-.322.22-1.75.7-2.068.47-.312,2.584,1.879,3.07,1.571.477-.302-.046-2.226.445-2.524.483-.294-.288-2.77.206-3.061.488-.286,1.119-.435,1.618-.717.493-.279,1.861.936,2.363.661.497-.272.872-.827,1.377-1.095.501-.266-.702-3.895-.194-4.157.505-.26,4.87,7.03,5.38,6.774s2.318,2.218,2.831,1.968-2.825-8.451-2.31-8.696,4.051,5.943,4.568,5.703-.029-2.736.49-2.971-1.303-5.713-.783-5.944,1.241-.092,1.763-.319,3.96,6.312,4.483,6.09c.526-.224.465-1.784.989-2.003.53-.221-.593-4.439-.066-4.655.533-.218.352-2.245.88-2.457.535-.215.44-2.09.969-2.298.536-.211,1.154-.302,1.684-.507.536-.208,2.015,1.979,2.543,1.778.538-.205,3.088,4.935,3.617,4.738.54-.202,1.84,1.723,2.369,1.528.542-.199.451-2.053.98-2.244.544-.197-1.685-8.128-1.157-8.316.546-.194,2.504,3.599,3.032,3.415.548-.192,1.021-.585,1.548-.766.552-.19,2.935,5.065,3.461,4.887.557-.188,1.022-.526,1.548-.701.561-.186-1.649-8.735-1.127-8.905.566-.184,2.259,3.157,2.776,2.992.575-.184.944-.927,1.453-1.087.589-.185,2.408,3.769,2.902,3.617.627-.192.368-2.97.825-3.107,1.052-.315,1.876,3.895,2.699,3.682s.075-3.05.9-3.256.835-.165,1.659-.371,1.538,2.648,2.363,2.442-.26-4.545.564-4.751,1.583,2.825,2.407,2.619,1.146,1.076,1.971.87.111-3.064.936-3.271-.564-5.764.262-5.97c.826-.207,1.706,3.311,2.532,3.105s1.318,1.761,2.145,1.555.51-1.469,1.336-1.676c.825-.206.834-.17,1.66-.377s.905.112,1.73-.095.064-3.251.889-3.458,2.757,7.521,3.582,7.315.499-1.512,1.324-1.718,1.179,1.205,2.004.999.663-.858,1.489-1.065-.38-5.035.446-5.242,2.143,5.06,2.969,4.854c.826-.206-.504-5.525.322-5.732.826-.206,1.783,3.621,2.608,3.415s1.08.812,1.906.606.647-.922,1.472-1.129.515-1.45,1.341-1.657-.105-3.935.721-4.142,1.919,4.161,2.745,3.954c.826-.207-.327-4.819.499-5.025s2.392,6.058,3.218,5.852-.757-6.537.069-6.744.396-1.927,1.223-2.133.638-.96,1.465-1.167,2.63,7.008,3.457,6.801-.79-6.673.036-6.879,1.537,2.635,2.363,2.428-.189-4.269.638-4.475,1.033.618,1.861.411,1.596,2.874,2.422,2.667-.517-5.575.308-5.781c.824-.206,1.167,1.165,1.992.959s3.049,8.691,3.873,8.485-1.06-7.746-.235-7.952.462-1.664,1.289-1.871,3.172,9.172,3.999,8.966.591-1.145,1.417-1.352.956.315,1.782.108-.635-6.05.191-6.256,2.015,4.543,2.842,4.337.513-1.464,1.34-1.671-.948-7.302-.121-7.509,3.491,10.449,4.318,10.242-1.354-8.934-.526-9.141,2.199,5.282,3.026,5.076-1.172-8.208-.344-8.415c.828-.207,1.894,4.06,2.722,3.853s-.298-4.714.53-4.921,3.187,9.236,4.013,9.029c.826-.207.093-3.14.919-3.346s.085-3.184.913-3.391,2.552,6.69,3.379,6.483-1.746-10.504-.917-10.711,1.957,4.304,2.787,4.097,1.067.746,1.895.539,1.203,1.283,2.033,1.075c.832-.208-1.166,1.383-.399,1.766,1.298.648,3.103-1.552,3.935-1.76Z" style="fill: #fff;"/>
  <path d="M258.661,271.042s.605-2.693.642-3.811c.016-.476-4.371-1.196-4.349-1.857.018-.517-2.274-1.172-2.252-1.796.019-.532,2.901-1.005,2.922-1.612.019-.541-2.136-1.193-2.115-1.791.02-.547,1.539-1.066,1.561-1.659.02-.552,3.049-1.012,3.071-1.601.021-.555-2.526-1.224-2.504-1.811.021-.557-1.236-1.179-1.214-1.764.022-.558,2.276-1.043,2.299-1.626.022-.559-1.581-1.196-1.558-1.778.022-.561,6.43-.874,6.454-1.454.023-.561-1.706-1.203-1.682-1.782.023-.562,1.295-1.08,1.319-1.658.024-.563,2.678-1.021,2.703-1.598.024-.563-5.115-1.351-5.09-1.928.024-.563-5.623-1.38-5.598-1.956.025-.564,8.261-.775,8.286-1.35.025-.564.909-1.094.934-1.669.025-.565-8.145-1.504-8.119-2.079.026-.565,2.142-1.042,2.169-1.617.026-.566-2.082-1.236-2.055-1.811.026-.566,1.438-1.074,1.465-1.648.027-.566,6.064-.852,6.091-1.426.027-.567-.478-1.161-.45-1.735.027-.567-5.441-1.405-5.413-1.978.028-.567,8.254-.734,8.283-1.307.028-.567-9.785-1.628-9.756-2.201.028-.568,7.799-.748,7.828-1.321.029-.568,1.848-1.045,1.877-1.617.029-.568-5.711-1.436-5.681-2.009.03-.568,4.992-.88,5.023-1.452.03-.569-3.067-1.304-3.036-1.876.03-.569,1.316-1.071,1.347-1.643.031-.567-3.123-1.309-3.091-1.88.031-.567,2.964-.976,2.996-1.547s.744-1.098.776-1.668,2.998-.969,3.031-1.539-10.647-1.754-10.614-2.324,6.99-.737,7.024-1.308-.031-1.144.002-1.715-.084-1.148-.05-1.718-2.345-1.286-2.31-1.857,7.442-.683,7.478-1.253-5.821-1.504-5.785-2.074,1.661-1.039,1.697-1.61-3.892-1.396-3.855-1.966,5.212-.807,5.249-1.378.365-1.12.403-1.692-1.186-1.225-1.148-1.797,3.215-.927,3.254-1.498-7.729-1.682-7.69-2.254c.04-.572,3.727-.89,3.768-1.462s-2.541-1.33-2.5-1.901,7.602-.596,7.643-1.167-2.938-1.36-2.896-1.931-6.097-1.606-6.054-2.176-.488-1.192-.444-1.762,1.104-1.07,1.149-1.639-1.331-1.261-1.286-1.83,4.226-.816,4.272-1.385-3.739-1.46-3.692-2.029c.047-.572.688-1.1.736-1.669.048-.572,4.561-.768,4.609-1.336.049-.572.014-1.149.063-1.718.05-.572-5.475-1.638-5.424-2.206.051-.572.908-1.079.959-1.647.052-.572.152-1.146.205-1.714.053-.572.285-1.134.339-1.701.054-.572-.858-1.245-.803-1.811.056-.572,2.014-.964,2.07-1.531.057-.572,4.966-.656,5.023-1.222.058-.572,3.633-.771,3.692-1.336.06-.572-4.77-1.649-4.71-2.214.061-.572-4.463-1.643-4.401-2.207.063-.572,3.749-.744,3.812-1.308.065-.572-4.974-1.734-4.909-2.298.066-.573,9.28-.066,9.347-.629.069-.573-7.489-2.069-7.42-2.631.071-.573-.926-1.294-.855-1.856.073-.573,10.719.232,10.793-.329.076-.574-6.063-1.965-5.986-2.526.079-.574.248-1.132.327-1.692.082-.574,1.594-.932,1.677-1.49.085-.574.669-1.057.755-1.614.089-.574-2.789-1.612-2.699-2.167.093-.574-2.817-1.667-2.722-2.22.098-.575,1.557-.94,1.657-1.491.104-.576,2.255-.785,2.361-1.334.111-.576,3.563-.467,3.676-1.013.119-.576,2.085-.69,2.207-1.231.129-.576.238-1.056.37-1.59.142-.578-4.282-2.273-4.138-2.801.158-.578,2.9-.352,3.061-.868.181-.581,1.675-.531,1.861-1.031.217-.584,1.612-.226,1.834-.693.28-.588.937.312,1.226-.079.342-.463-2.606-3.37-2.267-3.834s-.432-1.742-.095-2.207c.339-.468-2.756-3.436-2.418-3.899.34-.466,5.506,2.605,5.846,2.145.344-.465-4.446-4.787-4.101-5.242.35-.461,5.516,2.771,5.868,2.323.358-.456,1.583-.139,1.946-.578.37-.448,2.922,1.146,3.297.719.384-.437-6.854-7.801-6.462-8.213.401-.422,6.558,4.886,6.968,4.495.421-.401-4.146-6.371-3.713-6.737.444-.375,3.812,2.806,4.271,2.474.47-.341,2.327,1.764,2.814,1.472.497-.297,1.541,1.427,2.058,1.186.521-.243.444-.292.988-.473s-.498-4.902.069-5.016c.555-.111,1.041-.35,1.622-.392.56-.041,1.114-.653,1.701-.625.558.026,1.022.902,1.605.994.549.087.289,3.15.862,3.298.537.139,1.355-1.394,1.914-1.199.524.183.331,1.725.876,1.959.51.22,2.247-2.415,2.776-2.148.496.251,3.766-4.349,4.28-4.055.483.276-2.003,5.716-1.504,6.032.471.298,2.106-1.113,2.592-.778.459.316,3.636-2.94,4.109-2.591.45.333-5.121,8.633-4.658,8.996.441.347,2.177-1.015,2.63-.639.432.358-.475,2.206-.032,2.591.426.37,1.257.187,1.693.582.418.379,4.413-3.114,4.841-2.711.404.38,2.118-.571,2.544-.166.403.384-2.442,4.19-2.02,4.597.402.388,1.518.056,1.936.463.401.39-2.874,4.545-2.458,4.953.4.393,2.276-.719,2.689-.311.399.395,6.18-4.617,6.591-4.208.399.397-.014,1.636.395,2.046.398.398-2.8,4.391-2.393,4.802.397.4,5.843-4.181,6.249-3.77.396.402-3.171,4.726-2.767,5.138.396.403-1.21,2.771-.807,3.184.395.404,5.943-4.208,6.345-3.795.395.405-2.432,3.953-2.031,4.366.394.406-.027,1.606.373,2.02.393.408-1.695,3.204-1.297,3.619.393.409,2.932-1.245,3.33-.83.392.41,4.293-2.528,4.69-2.112.392.41,2.052-.373,2.448.044.391.411-1.408,2.914-1.013,3.331.391.412,1.347.299,1.742.716.39.413,2.002-.314,2.396.105.39.414-4.027,5.348-3.634,5.767.389.415,6.16-4.204,6.552-3.784.388.416-.953,2.458-.562,2.878.388.416-.708,2.22-.317,2.64.386.415-.446,1.962-.058,2.382.385.416,5.412-3.451,5.799-3.031.385.417-4.007,5.244-3.62,5.664.385.418-.373,1.883.014,2.304.384.419,2.944-1.156,3.33-.734.384.42,2.869-1.075,3.254-.652s.07,1.482.455,1.905.063,1.485.447,1.909,1.489.194,1.872.618-.877,2.329-.494,2.754,1.745-.034,2.127.392-4.291,5.375-3.909,5.802,8.988-6.502,9.369-6.075-3.587,4.731-3.207,5.159,5.093-2.99,5.473-2.562-6.346,7.144-5.967,7.572,4.421-2.382,4.799-1.953,1.592.125,1.97.554-1.182,2.558-.805,2.989,3.737-1.743,4.113-1.312-1.651,2.959-1.275,3.391.562,1.029.937,1.461.011,1.504.385,1.937-.25,1.724.123,2.158,4.255-2.141,4.627-1.706-2.498,3.645-2.126,4.081-1.115,2.449-.744,2.885,8.633-5.817,9.003-5.38-7.741,8.045-7.372,8.483,5.871-3.445,6.24-3.006,1.421.309,1.788.747-4,4.827-3.634,5.266,7.507-4.744,7.872-4.304-7.461,7.654-7.098,8.095,6.403-3.79,6.765-3.349-3.32,4.196-2.959,4.638c.363.444,4.714-2.365,5.074-1.923.362.445-.436,1.832-.078,2.275.361.446-3.324,4.143-2.967,4.587.361.449.914.724,1.271,1.171.36.45,1.487.271,1.842.719.359.451,5.892-3.199,6.246-2.75.357.452.395,1.164.748,1.614.356.454,1.851.027,2.202.477.354.455-.462,1.828-.112,2.279.353.456,1.083.629,1.431,1.082.351.457-2.641,3.469-2.295,3.922.349.459-2.239,3.123-1.896,3.578.347.46,2.652-.576,2.993-.12.345.461.206,1.263.544,1.72.343.463,5.166-2.385,5.502-1.927.341.465-1.41,2.457-1.077,2.917.338.466,1.336.452,1.667.913.336.468.162,1.295.49,1.757.333.47-3.642,3.947-3.318,4.41.33.472,1.092.597,1.412,1.062.327.475,8.115-4.162,8.432-3.695.324.478-6.211,5.566-5.898,6.035.321.481,7.642-3.669,7.951-3.197.317.484-6.365,5.495-6.061,5.969.313.488,7.869-3.616,8.168-3.138.307.491,1.485.507,1.776.986.302.496-5.571,4.719-5.286,5.202.296.501-3.199,3.123-2.922,3.61.288.506,5.699-1.921,5.966-1.432.28.513,2.39.062,2.647.556.269.518-.995,1.827-.753,2.324.257.527,1.982-2.981,2.207-2.479.781.344-1.134,4.61-.056,4.33.461-.12,1.602,2.007,2.243,1.841.5-.129-.342-5.664.261-5.82.515-.133.411-2.825.998-2.977.524-.135.979-.659,1.558-.808.53-.136,2.08,3.598,2.654,3.45.534-.137,1.613,1.773,2.184,1.626.537-.138-.146-5.096.422-5.241.539-.138,1.358.754,1.924.609.541-.138.642-2.051,1.207-2.195.542-.139,3.679,9.828,4.242,9.684.543-.139-.089-4.92.473-5.063.544-.139.892-1.079,1.453-1.222.544-.139.913-1.002,1.473-1.144.545-.139,1.692,2.058,2.251,1.916.546-.139.318-3.351.877-3.493.546-.139,2.484,5.182,3.043,5.041.547-.139.69-1.891,1.248-2.032.547-.139.506-2.624,1.064-2.765.548-.139,1.63,1.818,2.188,1.677.548-.138.78-1.549,1.337-1.69.549-.138,1.645,1.878,2.202,1.738.549-.138-.083-4.985.474-5.125.549-.138,1.571,1.585,2.128,1.445.55-.138.477-2.771,1.034-2.911.55-.138,2.425,4.993,2.981,4.854.55-.138,1.777,2.419,2.334,2.28.551-.138-1.309-9.926-.753-10.065.551-.138,1.937,3.054,2.493,2.915.551-.138.783-1.57,1.339-1.708.551-.137.261-3.672.817-3.81.55-.137,2.009,3.371,2.563,3.234.55-.137,1.887,2.886,2.44,2.749.55-.137.439-2.95.993-3.088.551-.136,2.341,4.729,2.895,4.592s-.766-7.842-.212-7.979,3.326,8.731,3.88,8.595,1.342.697,1.896.56.381-3.212.936-3.348,1.462,1.185,2.017,1.049.237-3.818.792-3.954,1.384.863,1.939.727,1.519,1.425,2.073,1.29.952-.902,1.506-1.037,1.073-.409,1.628-.544-.371-6.373.184-6.507,1.598,1.74,2.153,1.605,2.741,6.485,3.297,6.351-.635-7.509-.079-7.643,2.672,6.22,3.228,6.087-.942-8.831-.386-8.965,2.414,5.165,2.971,5.032.598-2.428,1.155-2.561,2.241,4.47,2.798,4.337-.045-5.149.511-5.281.536-2.721,1.093-2.853,3.069,8.025,3.625,7.894-.784-8.321-.229-8.452.985-.824,1.54-.954,1.185.032,1.74-.097c.558-.13,1.521,1.478,2.076,1.349.558-.13,1.893,3.093,2.448,2.964.558-.129,1.404.998,1.958.87.559-.129-.014-5.155.541-5.283.559-.128,1.537,1.576,2.092,1.449.559-.128,1.829,2.875,2.384,2.748.559-.127-.804-8.702-.25-8.827.559-.127,1.589,1.813,2.143,1.688.56-.126,1.549,1.659,2.104,1.534.56-.126,2.61,6.429,3.164,6.306.56-.125-.701-8.408-.147-8.531.561-.125,2.583,6.373,3.137,6.251.561-.124.571-2.723,1.125-2.844.562-.123,1.843,3.089,2.397,2.969.562-.122-.469-7.575.085-7.694.563-.121,1.719,2.526,2.272,2.408.564-.121,1.309.641,1.863.524.565-.12,1.601,2.038,2.156,1.922.566-.119-.012-5.681.542-5.795.566-.117.453-3.541,1.006-3.655.566-.116,1.823,3.147,2.376,3.036.567-.114.821-1.791,1.373-1.901.568-.113,1.298.577,1.85.469.57-.111,1.393,1.091,1.945.985.571-.109,2.044,4.62,2.595,4.517.573-.107.117-5.709.667-5.809.574-.104.893-1.66,1.441-1.757.576-.101,2.089,5.279,2.636,5.187.581-.098.114-6.539.661-6.626.584-.093,1.863,4.286,2.406,4.205.588-.088,1.187.079,1.726.006.596-.08.657-4.542,1.19-4.602.607-.069,2.063,9.057,2.583,9.014.572-.047,1.014-1.753,1.579-1.801.572-.049.61-6.198,1.174-6.248.572-.05,1.394,2.793,1.958,2.743.572-.051,1.432,3.187,1.996,3.137.572-.051.853-3.311,1.416-3.36.572-.05,1.516,4.347,2.079,4.3.572-.049.517-7.583,1.079-7.628.573-.046,1.24,1.016,1.801.974.573-.042,1.385,3.418,1.947,3.381.574-.038.809-5.771,1.37-5.802.575-.032,1.497,7.112,2.059,7.088.576-.024.889-7.988,1.451-8.003.577-.015,1.283,7.284,1.844,7.281.578-.003,1.112-1.453,1.673-1.443.578.011,1.12-.067,1.679-.04.578.028,1.682-6.781,2.239-6.735.577.048,1.025,3.021,1.58,3.091.574.073.217,6.153.767,6.251.57.102,1.637-2.695,2.179-2.563.562.137,1.302-.346,1.834-.175.55.177.422,2.061.939,2.278.53.222,3.45-4.263,3.945-3.996.503.272,1.055,1.239,1.52,1.56s-.298,2.66.13,3.036c.423.372-2.472,3.914-2.088,4.341.373.416,8.066-4.836,8.401-4.365.322.452-6.211,5.494-5.925,6,.272.482,5.016-1.26,5.254-.727.226.504-1.361,1.897-1.166,2.448.184.519,2.43.534,2.586,1.098.147.532-3.477,2.06-3.354,2.632.115.539.869.936.962,1.512.088.547-.777,1.203-.71,1.785.064.551-1.44,1.188-1.395,1.771.042.547,3.562.911,3.544,1.5-.017.55.649,1.251.582,1.835-.063.548,1.835,1.562,1.73,2.139-.099.544-1.723.927-1.859,1.496-.128.54,3.384,2.215,3.224,2.775-.152.535-7.682-1.091-7.861-.537-.172.53,6.767,3.555,6.571,4.101-.188.526-2.855.257-3.064.797-.202.522-6.451-1.379-6.673-.845-.214.517,5.776,3.683,5.545,4.212-.225.514.645,1.6.405,2.124-.234.511-1.63.55-1.878,1.07-.242.508-4.38-.854-4.634-.338-.249.505,5.847,4.234,5.586,4.747-.256.502-4.816-1.168-5.082-.659-.262.5-4.938-1.35-5.209-.844-.267.497.453,1.502.177,2.005-.272.495-2.915-.356-3.194.144-.276.493,5.831,4.576,5.547,5.074-.28.492-2.763-.272-3.05.224-.283.49,1.321,2.086,1.032,2.58-.285.487,1.427,2.174,1.136,2.664-.288.485-4.484-1.352-4.778-.863-.291.484,4.614,4.128,4.318,4.615-.294.484-6.603-2.696-6.901-2.21-.296.483,2.281,2.741,1.981,3.225-.299.482,1.281,2.147.979,2.631-.301.481.775,1.846.471,2.328s-1.218.594-1.523,1.076c-.303.479-6.665-2.887-6.971-2.407s-.912.758-1.219,1.238,5.17,4.675,4.862,5.154-.74.886-1.05,1.364-6.565-2.895-6.876-2.417.789,1.869.478,2.347-1.426.431-1.738.908,4.766,4.479,4.453,4.956-.719.899-1.032,1.376-6.189-2.688-6.502-2.21,6.306,5.502,5.993,5.979-4.031-1.276-4.344-.799-3.713-1.066-4.025-.59,3.413,3.601,3.101,4.077-6.866-3.123-7.177-2.647c-.313.479-1.724.245-2.034.721-.312.478,4.438,4.252,4.129,4.728-.311.479-1.362.475-1.67.95-.311.481,2.092,2.709,1.785,3.187-.309.48-.903.767-1.208,1.243-.307.479-1.982.076-2.284.551-.306.48-2.525-.255-2.825.22-.284.45,3.107,3.336,2.774,3.836-.299.45-6.631-3.173-6.967-2.684-.31.45-.741.771-1.081,1.251-.317.449,3.381,3.759,3.039,4.234-.323.449,2.488,3.212,2.144,3.682-.328.448.077,1.488-.269,1.954-.332.448-7.002-3.813-7.349-3.349-.336.447-1.497.264-1.846.725-.338.447,1.421,2.487,1.071,2.945-.341.446,4.816,5.127,4.465,5.583-.343.446-8.076-4.802-8.428-4.346-.345.445,4.704,5.087,4.35,5.541-.347.445.188,1.597-.166,2.05-.347.443-8.416-5.175-8.77-4.725-.348.443,1.294,2.449.94,2.898-.35.443,1.769,2.842,1.414,3.29-.351.442.239,1.64-.117,2.087-.353.442,2.017,3.069,1.66,3.515-.354.442-5.673-3.086-6.03-2.641-.355.442-2.7-.718-3.058-.273-.356.442.602,1.94.243,2.384-.356.441,3.425,4.228,3.067,4.671s-3.446-1.329-3.805-.886,1.268,2.497.908,2.94-1.903-.079-2.263.363,2.659,3.648,2.298,4.089-3.592-1.459-3.953-1.017-3.393-1.304-3.755-.863-1.06.607-1.423,1.048,3.06,4.002,2.697,4.443,1.154,2.441.79,2.882c-.366.443-7.951-5.081-8.315-4.641s3.457,4.342,3.094,4.779c-.365.441-2.692-.748-3.054-.311-.366.441,1.944,3.1,1.582,3.536-.366.441,2.077,3.218,1.715,3.653-.367.441-8.929-5.948-9.292-5.513-.368.441,7.842,8.031,7.479,8.466-.368.441-3.559-1.476-3.921-1.042-.369.442-4.125-1.956-4.488-1.523-.37.442,5.421,6.038,5.058,6.471-.371.442-6.425-3.888-6.787-3.456-.372.443,2.427,3.539,2.064,3.97-.372.443-6.444-3.918-6.806-3.488-.373.444,6.462,6.945,6.101,7.373-.374.444-4.517-2.301-4.878-1.874-.375.445-2.802-.859-3.161-.434-.378.447-.811.826-1.17,1.25-.38.45,4.984,5.739,4.626,6.162-.383.452-1.055.636-1.41,1.055-.386.455-6.753-4.201-7.104-3.788-.392.461,5.231,5.987,4.885,6.394-.401.471-1.208.536-1.542.928-.426.5-4.328-2.076-4.637-1.714-.716.839.147,2.271.147,2.271.535.67-1.172,1.695-.477,2.57.298.375,5.892-3.334,6.304-2.815.322.406,1.048.568,1.435,1.057.332.42-4.748,5.172-4.37,5.65.338.427,3.552-1.382,3.924-.911.339.43.28,1.205.647,1.67.342.434,3.587-1.393,3.951-.93.343.436-3.645,4.302-3.282,4.763.345.439.502,1.041.863,1.502.346.44,2.492-.516,2.852-.057.346.442.101,1.362.461,1.82.347.443,1.545.234,1.903.692.347.444.624.956.981,1.414.348.445-2.876,3.686-2.519,4.144.348.446.358,1.162.714,1.619.348.447,3.57-1.336,3.925-.878.348.447,3.798-1.506,4.153-1.049.348.448-3.075,3.832-2.721,4.288.348.449,5.606-2.899,5.959-2.442.348.449-4.334,4.799-3.981,5.256.348.45,4.804-2.268,5.156-1.811.348.45-.539,1.862-.187,2.319.346.449-5.992,6.052-5.642,6.506.346.449,3.444-1.217,3.793-.763.346.45,2.232-.28,2.581.175.346.451-3.297,3.963-2.948,4.419.346.451,3.8-1.478,4.149-1.022.346.452,1.018.657,1.367,1.113.346.453,4.779-2.21,5.127-1.754.346.453-1.018,2.216-.67,2.672.346.454-5.487,5.61-5.139,6.067.346.454,4.389-1.902,4.736-1.445s.157,1.316.503,1.773,5.337-2.603,5.683-2.145c.344.455-6.295,6.188-5.95,6.645s8.697-5.126,9.042-4.668-4.858,5.091-4.513,5.549,4.613-2.031,4.957-1.572.123,1.344.467,1.803-4.15,4.536-3.806,4.995,6.542-3.45,6.885-2.99-3.138,3.771-2.795,4.231-1.343,2.426-1.001,2.887,3.028-.815,3.37-.354-3.769,4.211-3.428,4.673,5.414-2.566,5.754-2.103-3.677,4.127-3.337,4.59.81.825,1.149,1.288,4.179-1.632,4.517-1.169.756.873,1.094,1.337c.339.467,5.8-2.782,6.136-2.317.339.467-7.343,6.737-7.007,7.202.338.468,2.022-.044,2.357.421.337.469,5.058-2.213,5.392-1.747.336.469-1.57,2.544-1.238,3.01.336.47-1.148,2.231-.817,2.697.335.471.423,1.107.753,1.574.334.472-.068,1.451.261,1.918.333.473,5.611-2.532,5.939-2.064.332.473-.956,2.079-.63,2.547.33.474-.732,1.911-.408,2.379.329.475,3.766-1.195,4.088-.726.328.476,2.84-.534,3.161-.064.326.477-1.945,2.732-1.626,3.202.324.479-3.446,3.713-3.129,4.184.322.48,6.491-2.954,6.804-2.484.321.482-1.472,2.374-1.161,2.846.319.484.101,1.322.41,1.795.317.487,2.274-.084,2.58.391.315.489-5.844,5.103-5.542,5.578.312.492.226,1.181.524,1.658.309.494,6.457-2.652,6.75-2.174.306.499.632.994.919,1.474.302.504-3.664,3.51-3.383,3.992.297.508,7.557-2.983,7.83-2.5.291.515-4.829,4.038-4.567,4.523.283.523,4.656-1.1,4.905-.614.273.534-7.877,5.126-7.648,5.613.244.519,5.174-1.168,5.416-.65s6.398-1.715,6.639-1.196-5.257,3.708-5.018,4.226-2.199,2.267-1.962,2.785,4.062-.604,4.298-.086c.237.521-.473,1.471-.239,1.99.236.522,3.566-.342,3.798.178.234.523-5.007,3.476-4.777,3.997.232.524-1.217,1.764-.989,2.286.229.525,3.606-.333,3.831.189.227.526.611.975.833,1.499.224.528,5.923-1.24,6.142-.715.221.529.569,1.035.784,1.561.217.531-.457,1.452-.245,1.979.214.533,1.279.758,1.487,1.287.21.534-.923,1.622-.72,2.152.206.536,2.077.478,2.275,1.01.201.538-6.98,3.8-6.787,4.333.196.542,2.581.282,2.769.818.191.544-3.451,2.372-3.269,2.91.184.546,8.298-1.54,8.473-1,.178.548-3.715,2.403-3.548,2.945.17.55.321,1.094.48,1.638.162.553-2.881,1.974-2.731,2.519.153.555,4.932-.149,5.072.398.143.558,1.972.735,2.101,1.284.132.562-6.46,2.606-6.343,3.158.12.565-.748,1.207-.644,1.761.106.568,3.436.476,3.525,1.033.091.571,5.187.434,5.259.993.074.573-7.644,1.989-7.591,2.549.055.575,2.464.836,2.496,1.397.033.578-3.179,1.104-3.171,1.666.009.579,5.82,1.081,5.802,1.643-.019.578-2.773.931-2.821,1.491-.05.576,6.809,2.028,6.727,2.584-.085.57-9.464-.576-9.584-.028-.123.562-.042.801-.204,1.339s-.049,1.12-.218,1.663c-.166.537-1.762.546-1.938,1.086-.174.535,8.114,3.892,7.928,4.427-.185.533-5.815-.896-6.014-.365s2.247,2.052,2.033,2.576-.452,1.039-.685,1.554-3.346-.405-3.599.101,3.02,2.814,2.745,3.308-4.849-1.651-5.149-1.171,7.687,6.518,7.36,6.981c-.325.46-6.098-2.986-6.453-2.542-.351.439,1.427,2.743,1.045,3.164-.378.415-4.518-2.883-4.928-2.488-.404.389,2.397,4.253,1.959,4.62-.428.359-4.661-4.327-5.124-3.99-.451.328,3.785,7.501,3.3,7.806-.471.296-2.428-1.658-2.933-1.385-.489.264.405,3.664-.117,3.905-.503.232-2.773-3.334-3.308-3.125-.515.202.667,5.62.12,5.799-.526.172-2.829-5.06-3.384-4.909-.534.145-.45,3.112-1.012,3.237-.54.119-1.88-3.549-2.447-3.45-.546.096-.205,6.583-.776,6.659-.55.073-1.751-4.434-2.325-4.379-.553.053-1.38-3.759-1.956-3.723-.553.034-1.042-.638-1.617-.62-.554.017-1.005,3.69-1.58,3.691-.555,0-1.041-3.019-1.616-3.033-.556-.014-1.108,1.252-1.683,1.224-.556-.028-.949-1.87-1.523-1.911-.555-.04-1.791,7.942-2.364,7.888-.556-.052-1.063-1.382-1.635-1.447-.556-.063-.069-8.552-.64-8.627-.549-.072-1.12.415-1.696.331-.55-.08-1.42,2.159-1.994,2.069-.55-.087-1.027-.527-1.599-.622-.551-.092-1.132.075-1.701-.025-.551-.097-.937-1.02-1.505-1.125-.551-.102-1.067-.296-1.634-.405-.551-.106-1.68,2.76-2.244,2.648-.55-.11-2.002,4.135-2.565,4.019-.55-.113-.6-2.725-1.162-2.844-.55-.117-1.935,3.534-2.496,3.412-.55-.12-.772-1.858-1.332-1.983-.55-.123.65-8.014.091-8.141-.55-.126-1.023-.512-1.581-.642-.55-.128-3.119,8.307-3.677,8.175-.55-.131-.325-3.552-.881-3.687-.55-.133-.28-3.616-.836-3.753-.549-.136-2.542,5.512-3.097,5.372-.549-.138-.044-4.475-.598-4.617-.549-.14-2.064,3.455-2.618,3.311-.547-.142-1.35.644-1.901.499-.547-.144.968-8.075.418-8.222-.547-.146-1.686,1.949-2.236,1.8-.547-.148-.308-3.138-.857-3.289-.547-.15-3.624,8.852-4.173,8.7s-.901-1.051-1.449-1.206,1.042-7.831.494-7.988-1.96,2.729-2.507,2.571-.486-2.378-1.033-2.538-2.027,2.861-2.573,2.699-.991-.665-1.536-.829-.408-2.567-.953-2.733-2.355,3.796-2.899,3.628-.096-3.54-.64-3.71-.648-1.716-1.192-1.888-.797-1.219-1.34-1.392-1.165-.062-1.708-.238-1.97,2.376-2.511,2.198.061-3.791-.479-3.971-2.387,3.553-2.927,3.371.621-5.343.082-5.527-2.007,2.37-2.545,2.183-2.572,3.905-3.109,3.716.326-4.342-.21-4.533c-.538-.192-.719-1.342-1.253-1.535-.537-.194-2.855,4.507-3.388,4.311-.536-.197-2.251,2.742-2.782,2.544-.537-.2,1.366-6.921.834-7.123-.536-.203-3.387,5.642-3.917,5.438-.534-.205,2.911-10.652,2.384-10.858-.532-.208-4.073,7.246-4.599,7.037-.533-.212-1.993,1.835-2.518,1.622-.529-.215-.31-2.313-.832-2.528-.528-.218-1.298.099-1.817-.119s.726-4.656.188-4.883c-.521-.219.323-3.705-.214-3.932-.522-.22-3.592,5.594-4.129,5.368-.523-.22-.852-.92-1.387-1.146-.524-.22-.269-2.308-.804-2.534-.524-.221-3.634,5.688-4.169,5.463-.525-.221,3.181-10.512,2.647-10.737-.526-.221-5.306,9.659-5.84,9.434-.526-.221-.408-1.984-.942-2.209-.525-.221-1.239,0-1.77-.223-.525-.221,1.04-5.42.508-5.644-.526-.221-1.539.707-2.07.484-.527-.222-1.091-.359-1.623-.583-.527-.222-1.878,1.508-2.409,1.284-.528-.222,2.003-7.722,1.472-7.946-.528-.222-4.176,6.97-4.708,6.747-.528-.222-1.618.891-2.147.668s1.349-6.169.819-6.392-2.688,3.428-3.218,3.205-2.153,2.152-2.684,1.929-1.345.226-1.876.003-.351-2.14-.882-2.363,1.566-6.704,1.035-6.927-3.155,4.524-3.687,4.301.233-3.537-.298-3.761-.38-2.071-.91-2.293c-.532-.224-1.904,1.553-2.433,1.331-.533-.224-.795-1.086-1.324-1.308-.533-.224-3.264,4.786-3.792,4.564-.533-.224-.793-1.091-1.321-1.313-.533-.224.018-3.022-.509-3.244-.534-.224-1.239-.03-1.767-.252-.534-.224-.712-1.286-1.239-1.507-.535-.225-.054-2.853-.581-3.074-.535-.225-.243-2.405-.77-2.626-.536-.225-3.974,6.469-4.5,6.248-.537-.226-.357-2.14-.882-2.361-.537-.226-2.152,2.13-2.677,1.909-.538-.226,2.861-9.801,2.337-10.021-.539-.226-3.635,5.654-4.158,5.434-.54-.227-1.859,1.425-2.38,1.206-.541-.227,2.377-8.656,1.857-8.875-.542-.228-2.067,1.917-2.585,1.699-.544-.229-.662-1.435-1.178-1.652-.547-.23-.57-1.661-1.084-1.877-.552-.232-1.948,1.598-2.459,1.383-.556-.233-1.941,1.576-2.446,1.364-.563-.237-3.928,6.284-4.424,6.075-.576-.242-.199-2.625-.679-2.826-.612-.257.383-4.112-.061-4.299-1.027-.432-3.641-5.745-4.395-5.332s3.001,6.46,2.391,7.062-1.444-.24-2.055.363-2.685-1.496-3.296-.892.012,1.233-.599,1.836-.588.626-1.198,1.228,2.107,3.354,1.497,3.956c-.61.602-5.965-4.819-6.575-4.217s7.183,8.491,6.573,9.093-.853.355-1.463.957-2.726-1.541-3.335-.939-3.31-2.132-3.919-1.53-.307.907-.917,1.509-1.725-.527-2.334.074.17,1.391-.439,1.993c-.609.602-3.328-2.15-3.937-1.548s2.595,3.847,1.986,4.449-1.146.059-1.756.661,2.455,3.705,1.845,4.308,1.813,3.056,1.203,3.659-7.931-6.808-8.542-6.204,2.411,3.664,1.8,4.267-3.995-2.822-4.606-2.219,3.555,4.82,2.944,5.424-4.176-3.006-4.786-2.403,1.336,2.573.726,3.175-3.008-1.825-3.618-1.222,5.985,7.279,5.375,7.881-3.69-2.515-4.3-1.913c-.61.602-2.149-.956-2.759-.354s.838,2.069.228,2.671,1.828,3.071,1.218,3.674c-.611.603-1.69-.49-2.301.113s-5.253-4.096-5.864-3.493,1.953,3.2,1.341,3.804-.223.997-.834,1.6c-.611.603-1.566-.363-2.177.24s3.171,4.431,2.56,5.034-7.159-6.026-7.77-5.424,5.098,6.381,4.487,6.984-1.18.026-1.791.629c-.611.603-5.271-4.115-5.881-3.511s.554,1.783-.057,2.386-1.151.057-1.762.661,4.949,6.233,4.337,6.837-4.934-3.772-5.545-3.168-.763.45-1.373,1.054,3.232,4.493,2.621,5.097-1.889-.69-2.499-.087,1.583,2.824.972,3.428-7.164-6.03-7.775-5.426.058,1.282-.554,1.886c-.611.604-.504.713-1.115,1.317s-1.661-.46-2.271.143,5.51,6.797,4.9,7.4.708,1.935.099,2.537-2.798-1.614-3.407-1.013-4.601-3.439-5.21-2.838,3.976,5.244,3.367,5.845.837,2.066.227,2.668-3.518-2.341-4.128-1.738,3.013,4.273,2.402,4.877-4.683-3.516-5.295-2.911.129,1.354-.482,1.958-1.716-.515-2.326.088,2.853,4.109,2.243,4.712-4.407-3.241-5.018-2.638-2.53-1.339-3.141-.736,6.151,7.451,5.54,8.056-4.694-3.527-5.306-2.922,3.092,4.353,2.48,4.957-1.577-.374-2.188.23-6.985-5.848-7.596-5.244-.422.798-1.034,1.403.563,1.795-.05,2.399,4.482,5.761,3.87,6.366-4.531-3.363-5.144-2.758,1.243,2.484.63,3.09c-.612.605,2.14,3.391,1.528,3.996s-4.349-3.177-4.962-2.571-2.843-1.658-3.454-1.055,2.269,3.524,1.656,4.129.6,1.831-.012,2.435-6.123-4.975-6.735-4.371,4.981,6.27,4.367,6.876-.445.775-1.058,1.38-.593.627-1.207,1.233-.367.857-.982,1.463-3.32-2.134-3.933-1.528-3.668-2.485-4.283-1.878,2.011,3.268,1.395,3.877c-.616.609-1.22.079-1.819.705s.307,1.137-.467,1.934c-.338.349-1.068.352-1.552.808-.382.36-.665.822-1.136,1.233-.408.356.67,2.518.196,2.903-.427.347-.971.636-1.452.999-.443.335,1.787,4.544,1.299,4.889-.457.323-2.445-1.319-2.941-.993-.47.309-5.06-5.898-5.565-5.589-.481.294,2.847,7.013,2.335,7.304-.491.279-4.93-6.727-5.451-6.453-.501.264,3.639,9.717,3.111,9.973-.511.248-3.801-5.332-4.336-5.093-.52.231-2.032-2.091-2.575-1.871-.528.215,2.07,8.514,1.52,8.717-.535.198-.737,1.879-1.293,2.064-.541.18-1.439-.136-2,.03-.547.162-2.979-6.184-3.544-6.036-.552.144-1.693-2.494-2.263-2.365-.557.126.676,8.865.102,8.975-.562.108-1.658-2.171-2.236-2.08-.565.09-2.071-6.699-2.651-6.626-.568.072-.652,3.719-1.235,3.774-.571.054-1.32-3.279-1.905-3.243-.576.036-.932,2.466-1.493,2.485-.577.02-1.086-2.072-1.647-2.07-.577.002-1.032,1-1.593.983-.577-.017-1.624,9.016-2.183,8.979-.576-.038-.448-8.791-1.005-8.85-.575-.061-1.446,2.778-2,2.694-.572-.086-.61-2.796-1.159-2.905-.567-.113-.484-2.177-1.028-2.315-.56-.142-.955.11-1.49-.059-.55-.174-3.498,6.658-4.022,6.457-.538-.207,2.351-8.286,1.841-8.522-.522-.241-4.756,7.069-5.249,6.797-.502-.277-1.933.48-2.406.171-.479-.313,2.029-5.046,1.58-5.391-.452-.348,1.559-3.298,1.139-3.679s-1.142.018-1.533-.396-6.204,3.923-6.562,3.479c-.354-.44-1.138-.908-1.462-1.379-.319-.464,6.372-5.357,6.083-5.852-.284-.484-3.064.605-3.319.092-.25-.502-3.267.256-3.49-.274-.217-.516-3.908.09-4.1-.453-.187-.528.125-1.504-.038-2.057-.158-.537,7.23-3.135,7.095-3.696-.131-.545-7.583.464-7.692-.102-.106-.549-.344-1.268-.43-1.838-.083-.553,9.455-2.364,9.39-2.936-.062-.556-8.331-.302-8.375-.877-.043-.559,7.513-1.566,7.487-2.142-.026-.561-2.031-.962-2.04-1.539-.009-.561-7.619-1.14-7.612-1.716.006-.562,7.045-1.005,7.066-1.582.02-.562-1.512-1.176-1.478-1.752.031-.522-1.296-1.175-1.257-1.788.034-.534,3.261-.891,3.301-1.492.036-.542-2.188-1.262-2.147-1.856.038-.547-4.942-1.473-4.9-2.062.039-.551,10.13-.398,10.173-.985.04-.553-6.336-1.588-6.293-2.171.041-.555,2.625-.935,2.668-1.516.041-.556,2.662-.93,2.705-1.509.042-.558,1.798-.993,1.842-1.571.042-.559-8.002-1.742-7.958-2.319.043-.559,5.945-.677,5.99-1.254.043-.56-8.593-1.8-8.549-2.375.043-.561,2.939-.909,2.984-1.484.044-.561-.219-1.153-.174-1.726.044-.561,8.802-.444,8.847-1.017.044-.562-8.07-1.772-8.025-2.344.044-.562,5.191-.725,5.237-1.298.045-.563-4.346-1.482-4.3-2.054.045-.563-2.826-1.364-2.781-1.935.045-.563,6.26-.638,6.306-1.209.045-.564-5.957-1.617-5.911-2.188.045-.564,6.305-.632,6.351-1.203.045-.564.918-1.065.964-1.636.046-.565-7.56-1.751-7.514-2.322.046-.565,2.755-.918,2.801-1.488.046-.565.653-1.088.7-1.658.046-.566,5.509-.693,5.556-1.263.046-.566,2.123-.968,2.17-1.538.046-.566-1.089-1.23-1.042-1.8.046-.566-2.417-1.339-2.371-1.909.046-.566-6.784-1.698-6.737-2.268.046-.565.141-1.128.187-1.696s-.156-1.153-.109-1.721-.051-1.145-.004-1.713,7.53-.521,7.577-1.089-4.449-1.509-4.402-2.077-.254-1.164-.207-1.732,1.575-1.013,1.622-1.581,3.158-.88,3.205-1.448,1.203-1.043,1.25-1.611-2.945-1.388-2.898-1.957,2.924-.902,2.971-1.47-2.652-1.366-2.605-1.935-3.235-1.416-3.188-1.986,3.991-.815,4.038-1.384-4.886-1.556-4.839-2.126,9.764-.331,9.812-.9-1.634-1.283-1.586-1.852-8.096-1.825-8.049-2.394,3.429-.861,3.476-1.429-4.251-1.505-4.203-2.073,3.121-.887,3.169-1.455,1.153-1.052,1.201-1.62,6.494-.603,6.542-1.171c.048-.571-10.317-2.017-10.269-2.585.048-.571,7.384-.528,7.432-1.096.048-.571-1.55-1.28-1.502-1.848.048-.572,1.652-1.01,1.699-1.578.048-.572-6.414-1.691-6.366-2.258.048-.572,10.51-.262,10.558-.83.048-.572-2.62-1.371-2.573-1.938.048-.572-3.181-1.419-3.133-1.985.048-.572-4.898-1.564-4.851-2.131.048-.572,11.62-.166,11.668-.732.048-.572-10.816-2.066-10.768-2.632.049-.573,8.04-.468,8.088-1.034.049-.573-3.201-1.421-3.153-1.986.049-.573-5.137-1.586-5.089-2.15.049-.573,8.16-.457,8.208-1.021.049-.573-1.539-1.28-1.491-1.844.049-.573-1.528-1.279-1.48-1.842.049-.573,6.333-.611,6.381-1.173.049-.574-1.644-1.29-1.596-1.853.049-.575-6.588-1.713-6.54-2.275.049-.576,5.69-.668,5.738-1.229.049-.577-4.712-1.555-4.664-2.116.049-.577-2.76-1.39-2.712-1.95.049-.578,8.36-.442,8.408-1.001.049-.579-5.646-1.638-5.598-2.196.05-.58,1.105-1.062,1.153-1.618.05-.581,4.076-.808,4.123-1.362.05-.584.503-1.117.55-1.669.05-.587.15-1.15.197-1.699.051-.59-.08-1.172-.033-1.717.051-.597.861-1.1.908-1.64.052-.605-5.043-1.615-4.998-2.145.053-.619-.411-1.23-.367-1.743.057-.658,4.337-.862,4.378-1.336.095-1.107-2.792.182-2.792.182-.8-.313-1.18,1.354-2.222.944-.446-.175-.053-2.746-.67-2.99-.483-.19.842-5.105.261-5.335-.498-.197-2.943,4.425-3.51,4.2-.507-.201,1.409-6.585.849-6.807-.511-.203-1.199-.018-1.752-.238-.513-.204-4.874,9.21-5.422,8.992-.516-.206,3.261-11.229,2.715-11.446-.518-.207-3.258,5.118-3.802,4.901-.52-.208.246-3.664-.297-3.881-.522-.209-2.178,2.391-2.72,2.174-.523-.209-2.844,4.04-3.385,3.823-.524-.21-1.201-.068-1.741-.284-.524-.211,2.188-8.493,1.649-8.71-.525-.211-.849-.935-1.388-1.151-.526-.212-4.384,7.822-4.921,7.605-.526-.212,1.42-6.562.882-6.779-.526-.213-.894-.829-1.431-1.046-.527-.213-1.507.682-2.043.465-.527-.214-2.301,2.632-2.836,2.415-.527-.214,1.153-5.872.618-6.09-.527-.215-4.084,7.003-4.619,6.785-.528-.215,2.133-8.263,1.599-8.481-.528-.215-4.23,7.336-4.764,7.118-.526-.215-1.443.512-1.975.295-.526-.215,1.649-7.037,1.117-7.255-.527-.216-3.948,6.615-4.479,6.396-.527-.216-.456-1.901-.988-2.119-.527-.217,2.243-8.451,1.712-8.67-.527-.217-1.952,1.743-2.484,1.523-.528-.218-3.576,5.661-4.107,5.441-.528-.218.777-4.874.246-5.094-.528-.219-2.617,3.323-3.148,3.102s2.335-8.607,1.805-8.828-5.063,9.186-5.593,8.966c-.527-.219,1.376-6.273.847-6.494s.229-3.511-.3-3.732-2.889,3.941-3.418,3.72-3.213,4.692-3.742,4.47,1.314-6.089.785-6.312.52-4.182-.009-4.405-2.828,3.752-3.358,3.529-.392-2.018-.921-2.242-3.307,4.85-3.835,4.626.581-4.308.052-4.533-2.7,3.397-3.229,3.171,2.879-9.661,2.351-9.887-1.647.935-2.175.708-1.969,1.673-2.496,1.446-.797-1.055-1.324-1.283.141-3.218-.386-3.446-3.334,4.8-3.861,4.571-2.033,1.782-2.56,1.553-1.838,1.319-2.364,1.089c-.529-.231-.859-.926-1.384-1.156-.529-.232-.259-2.285-.784-2.516-.528-.233,1.698-6.697,1.173-6.929-.528-.233-4.61,7.563-5.134,7.33-.528-.234,2.224-7.834,1.7-8.067-.528-.235-.406-1.896-.929-2.13-.527-.236-2.438,2.635-2.96,2.4-.527-.237-.824-.965-1.345-1.2-.526-.238-4.123,6.302-4.643,6.065-.526-.239-.418-1.88-.937-2.117-.525-.24,1.887-6.879,1.369-7.118-.525-.241-5.197,8.518-5.714,8.279-.524-.242,3.676-10.657,3.16-10.897-.524-.244-.928-.699-1.442-.941-.524-.246-3.45,4.643-3.964,4.401-.524-.248-2.807,3.21-3.32,2.966-.523-.249,3.1-9.144,2.588-9.39-.523-.251-2.502,2.56-3.012,2.312-.523-.254-3.005,3.523-3.514,3.274-.521-.256-.327-1.96-.833-2.211-.522-.259.777-4.126.273-4.38-.521-.262-4.636,6.576-5.138,6.32-.519-.265,1.949-6.33,1.45-6.589-.52-.27-3.359,3.897-3.855,3.634-.517-.274,2.848-7.751,2.358-8.017-.516-.279-2.48,2.192-2.965,1.922-.5-.278-.558-1.307-1.041-1.579-.499-.281.371-2.918-.11-3.192-.498-.284-1.577.525-2.057.249-.497-.287-3.477,3.739-3.954,3.459-.495-.29-.654-1.133-1.128-1.417-.493-.294-2.475,1.876-2.947,1.588-.49-.299-.701-1.082-1.168-1.374-.487-.304-.996-.604-1.46-.901-.484-.31.753-3.265.294-3.567-.481-.317-.869-.725-1.322-1.035-.477-.326-2.26,1.238-2.708.919-.471-.335-.803-.886-1.243-1.215-.464-.346-1.671.228-2.102-.11-.455-.357.454-2.434.033-2.785-.443-.371,1.126-2.969.719-3.334-.429-.386-1.39-.039-1.782-.42-.413-.403,2.016-3.305,1.643-3.706-.392-.422-2.502,1.007-2.853.585-.368-.441-6.485,3.592-6.812,3.147-.338-.46,4.657-4.642,4.359-5.109-.305-.477-5.151,1.721-5.419,1.233-.271-.493,3.831-3.248,3.592-3.756s1.685-1.755,1.476-2.278c-.206-.515-3.448.225-3.631-.312-.178-.523-6.65.836-6.811.289-.156-.529,4.08-2.4,3.937-2.953-.137-.532,6.118-2.581,5.99-3.138-.124-.536-11.108,1.317-11.227.755-.114-.538,8.133-2.823,8.021-3.387s-5.136-.523-5.15-1.087c-.014-.569.114-1.488.194-2.054.079-.557.537-1.341.703-1.894.16-.535-1.347-2.085-1.11-2.616.227-.508,4.642.934,4.935.43.279-.481-2.293-2.903-1.957-3.38.32-.454,5.127,2.501,5.496,2.051.353-.43-5.299-6.192-4.905-6.618.379-.409.464-1.505.879-1.91.4-.39,3.344,1.669,3.775,1.283.417-.373.879-.84,1.323-1.21.431-.358.16-1.756.616-2.111.443-.345.489-1.418.953-1.759.454-.333,3.081,2.252,3.553,1.924.462-.322.22-1.75.7-2.068.47-.312,2.584,1.879,3.07,1.571.477-.302-.046-2.226.445-2.524.483-.294-.288-2.77.206-3.061.488-.286,1.119-.435,1.618-.717.493-.279,1.861.936,2.363.661.497-.272.872-.827,1.377-1.095.501-.266-.702-3.895-.194-4.157.505-.26,4.87,7.03,5.38,6.774s2.318,2.218,2.831,1.968-2.825-8.451-2.31-8.696,4.051,5.943,4.568,5.703-.029-2.736.49-2.971-1.303-5.713-.783-5.944,1.241-.092,1.763-.319,3.96,6.312,4.483,6.09c.526-.224.465-1.784.989-2.003.53-.221-.593-4.439-.066-4.655.533-.218.352-2.245.88-2.457.535-.215.44-2.09.969-2.298.536-.211,1.154-.302,1.684-.507.536-.208,2.015,1.979,2.543,1.778.538-.205,3.088,4.935,3.617,4.738.54-.202,1.84,1.723,2.369,1.528.542-.199.451-2.053.98-2.244.544-.197-1.685-8.128-1.157-8.316.546-.194,2.504,3.599,3.032,3.415.548-.192,1.021-.585,1.548-.766.552-.19,2.935,5.065,3.461,4.887.557-.188,1.022-.526,1.548-.701.561-.186-1.649-8.735-1.127-8.905.566-.184,2.259,3.157,2.776,2.992.575-.184.944-.927,1.453-1.087.589-.185,2.408,3.769,2.902,3.617.627-.192.368-2.97.825-3.107,1.052-.315,1.876,3.895,2.699,3.682s.075-3.05.9-3.256.835-.165,1.659-.371,1.538,2.648,2.363,2.442-.26-4.545.564-4.751,1.583,2.825,2.407,2.619,1.146,1.076,1.971.87.111-3.064.936-3.271-.564-5.764.262-5.97c.826-.207,1.706,3.311,2.532,3.105s1.318,1.761,2.145,1.555.51-1.469,1.336-1.676c.825-.206.834-.17,1.66-.377s.905.112,1.73-.095.064-3.251.889-3.458,2.757,7.521,3.582,7.315.499-1.512,1.324-1.718,1.179,1.205,2.004.999.663-.858,1.489-1.065-.38-5.035.446-5.242,2.143,5.06,2.969,4.854c.826-.206-.504-5.525.322-5.732.826-.206,1.783,3.621,2.608,3.415s1.08.812,1.906.606.647-.922,1.472-1.129.515-1.45,1.341-1.657-.105-3.935.721-4.142,1.919,4.161,2.745,3.954c.826-.207-.327-4.819.499-5.025s2.392,6.058,3.218,5.852-.757-6.537.069-6.744.396-1.927,1.223-2.133.638-.96,1.465-1.167,2.63,7.008,3.457,6.801-.79-6.673.036-6.879,1.537,2.635,2.363,2.428-.189-4.269.638-4.475,1.033.618,1.861.411,1.596,2.874,2.422,2.667-.517-5.575.308-5.781c.824-.206,1.167,1.165,1.992.959s3.049,8.691,3.873,8.485-1.06-7.746-.235-7.952.462-1.664,1.289-1.871,3.172,9.172,3.999,8.966.591-1.145,1.417-1.352.956.315,1.782.108-.635-6.05.191-6.256,2.015,4.543,2.842,4.337.513-1.464,1.34-1.671-.948-7.302-.121-7.509,3.491,10.449,4.318,10.242-1.354-8.934-.526-9.141,2.199,5.282,3.026,5.076-1.172-8.208-.344-8.415c.828-.207,1.894,4.06,2.722,3.853s-.298-4.714.53-4.921,3.187,9.236,4.013,9.029c.826-.207.093-3.14.919-3.346s.085-3.184.913-3.391,2.552,6.69,3.379,6.483-1.746-10.504-.917-10.711,1.957,4.304,2.787,4.097,1.067.746,1.895.539,1.203,1.283,2.033,1.075c.832-.208-1.166,1.383-.399,1.766,1.298.648,3.103-1.552,3.935-1.76Z" style="fill: none; stroke: #000; stroke-linecap: round; stroke-linejoin: round; stroke-width: 40px;"/>
</svg>