<?xml version="1.0" encoding="UTF-8"?>
<svg id="SM_Icons" data-name="SM Icons" xmlns="http://www.w3.org/2000/svg" width="200" height="200" viewBox="0 0 200 200">
  <path d="M64.8,157.918l-3.468-12.376,1.939-12.377,1.717-12.378-1.347-12.374-1.949-12.377,1.251-12.381-1.193-12.377.614-12.386.888-12.386M44.614,159.48l12.305-3.468,12.306,1.939,12.307,1.717,12.303-1.347,12.306-1.949,12.31,1.251,12.306-1.193,12.315.614,12.315.888M44.614,44.799l12.305-3.468,12.306,1.939,12.307,1.717,12.303-1.347,12.306-1.949,12.31,1.251,12.306-1.193,12.315.614,12.315.888M135.473,153.493l-3.468-12.376,1.939-12.377,1.717-12.378-1.347-12.374-1.949-12.377,1.251-12.381-1.193-12.377.614-12.386.888-12.386M100.137,157.918l-3.468-12.376,1.939-12.377,1.717-12.378-1.347-12.374-1.949-12.377,1.251-12.381-1.193-12.377.614-12.386.888-12.386" style="fill: none; stroke: #000; stroke-linecap: round; stroke-linejoin: round; stroke-width: 23px;"/>
</svg>