<?xml version="1.0" encoding="UTF-8"?>
<svg id="Big_Assets" data-name="Big Assets" xmlns="http://www.w3.org/2000/svg" width="700" height="700" viewBox="0 0 700 700">
  <g>
    <path d="M614.019,350c0,4.769,1.641,9.684,1.39,14.39-.254,4.759-5.987,9.088-6.492,13.776-.509,4.736.13,9.528-.628,14.185-.765,4.699-3.653,8.873-4.664,13.484-1.018,4.648-.168,9.639-1.43,14.191-1.27,4.583-2.631,9.078-4.139,13.556-1.517,4.505-4.018,8.562-5.769,12.954-1.76,4.413-5.172,7.95-7.161,12.241-1.997,4.309.368,10.717-1.852,14.896-2.227,4.193-7.553,6.609-9.997,10.663s-5.68,7.472-8.34,11.389c-2.666,3.924-2.732,9.638-5.601,13.406-2.873,3.774-7.729,5.897-10.798,9.506s-2.491,10.542-5.751,13.982-10.838,2.573-14.279,5.833-4.072,9.591-7.684,12.662c-3.609,3.069-8.106,5.108-11.88,7.981s-6.852,6.777-10.776,9.443c-3.917,2.661-10.152,1.655-14.217,4.106-4.053,2.444-6.978,6.728-11.171,8.956-4.178,2.22-8.411,4.305-12.719,6.301-4.291,1.989-8.296,4.678-12.709,6.438-4.391,1.751-9.224,2.327-13.729,3.844-4.478,1.508-8.894,3.181-13.477,4.451-4.552,1.261-8.333,6.049-12.981,7.067-4.611,1.01-9.659.639-14.357,1.403-4.657.758-9.535.753-14.271,1.262-4.689.504-9.51.49-14.27.744-4.706.251-9.498-3.75-14.267-3.75-4.769,0-9.466,2.224-14.172,1.973-4.759-.254-9.742,2.153-14.431,1.649-4.736-.509-9.358-2.291-14.015-3.048-4.699-.765-9.5-1.216-14.111-2.227-4.648-1.018-8.134-6.455-12.686-7.716-4.583-1.27-9.83-.006-14.309-1.515-4.505-1.517-9.869-.808-14.26-2.559-4.413-1.76-7.289-7.106-11.58-9.094s-8.338-4.327-12.517-6.547c-4.193-2.227-9.245-2.825-13.299-5.269-4.064-2.451-9.406-3.027-13.323-5.688-3.924-2.666-6.724-7.032-10.493-9.901s-8.465-4.717-12.075-7.786c-3.612-3.071-4.197-9.505-7.637-12.765-3.441-3.26-7.889-5.401-11.149-8.842-3.26-3.44-5.169-7.987-8.241-11.599-3.069-3.609-9.829-4.262-12.702-8.035-2.869-3.768-1.962-10.279-4.628-14.204s-7.887-6.173-10.338-10.237c-2.444-4.053-6.108-7.546-8.335-11.738s-.77-10.232-2.766-14.541c-1.989-4.291-4.129-8.46-5.889-12.874-1.751-4.391-7.118-7.525-8.635-12.029-1.508-4.478-3.241-9.081-4.51-13.664-1.261-4.552,1.335-10.152.317-14.8-1.01-4.611-.605-9.443-1.37-14.142-.758-4.657-2.036-9.179-2.545-13.915-.504-4.689-3.525-9.204-3.779-13.963-.251-4.706,2.083-9.518,2.083-14.287s.293-9.44.544-14.147c.254-4.759,1.045-9.372,1.549-14.061.509-4.736-3.242-10.055-2.484-14.712.765-4.699,2.145-9.401,3.156-14.012,1.018-4.648,4.668-8.683,5.929-13.234,1.27-4.583,1.383-9.528,2.892-14.007,1.517-4.505,5.934-7.907,7.685-12.298,1.76-4.413.801-9.965,2.789-14.257,1.997-4.309,2.529-9.464,4.749-13.642,2.227-4.193,9.094-5.775,11.538-9.828s1.642-10.197,4.303-14.114c2.666-3.924,6.683-6.943,9.552-10.711,2.873-3.774,3.436-9.535,6.505-13.145,3.071-3.612,10.558-3.303,13.818-6.743,3.26-3.441,4.541-8.797,7.982-12.057,3.44-3.26,6.257-7.308,9.87-10.379,3.609-3.069,6.539-7.194,10.312-10.067s7.876-5.55,11.8-8.216c3.917-2.661,11.22-.023,15.284-2.474s7.443-5.78,11.636-8.007c4.178-2.22,8.249-4.436,12.558-6.432,4.291-1.989,8.681-3.49,13.095-5.25,4.391-1.751,8.573-3.793,13.077-5.31,4.478-1.508,8.321-5.016,12.904-6.286,4.552-1.261,9.979,1.26,14.626.241,4.611-1.01,8.183-7.436,12.882-8.2,4.657-.758,9.609-.196,14.344-.706,4.689-.504,9.506-.255,14.265-.509,4.706-.251,9.469-1.211,14.238-1.211s9.347,4.416,14.054,4.667c4.759.254,9.389.014,14.077.518,4.736.509,9.779-1.789,14.437-1.031,4.699.765,9.063,3.127,13.675,4.138,4.648,1.018,9.246,1.974,13.798,3.235,4.583,1.27,9.203,2.267,13.682,3.775,4.505,1.517,9.047,2.866,13.439,4.618,4.413,1.76,8.635,3.912,12.927,5.9s9.548,2.194,13.726,4.414c4.193,2.227,7.234,6.549,11.287,8.993,4.064,2.451,9.42,2.955,13.337,5.616,3.924,2.666,8.314,4.901,12.083,7.77,3.774,2.873,3.656,10.556,7.265,13.625,3.612,3.071,7.282,5.829,10.722,9.089,3.441,3.26,6.648,6.534,9.908,9.975,3.26,3.44,6.989,6.28,10.06,9.892,3.069,3.609,5.78,7.36,8.653,11.134,2.869,3.768,8.466,5.543,11.132,9.468,2.661,3.917,6.533,7.19,8.983,11.254,2.444,4.053.318,10.713,2.545,14.906,2.22,4.178,5.073,7.932,7.07,12.24s6.99,7.306,8.749,11.719,4.377,8.612,5.894,13.117c1.508,4.478,2.981,9.148,4.25,13.731,1.261,4.552,2.651,9.259,3.669,13.906,1.01,4.611,1.791,9.455,2.556,14.154.758,4.657-.694,9.739-.185,14.475.504,4.689,2.038,9.397,2.292,14.156.251,4.706-.065,9.55-.065,14.319Z" style="fill: #fff;"/>
    <path d="M614.019,350c0,4.769,1.641,9.684,1.39,14.39-.254,4.759-5.987,9.088-6.492,13.776-.509,4.736.13,9.528-.628,14.185-.765,4.699-3.653,8.873-4.664,13.484-1.018,4.648-.168,9.639-1.43,14.191-1.27,4.583-2.631,9.078-4.139,13.556-1.517,4.505-4.018,8.562-5.769,12.954-1.76,4.413-5.172,7.95-7.161,12.241-1.997,4.309.368,10.717-1.852,14.896-2.227,4.193-7.553,6.609-9.997,10.663s-5.68,7.472-8.34,11.389c-2.666,3.924-2.732,9.638-5.601,13.406-2.873,3.774-7.729,5.897-10.798,9.506s-2.491,10.542-5.751,13.982-10.838,2.573-14.279,5.833-4.072,9.591-7.684,12.662c-3.609,3.069-8.106,5.108-11.88,7.981s-6.852,6.777-10.776,9.443c-3.917,2.661-10.152,1.655-14.217,4.106-4.053,2.444-6.978,6.728-11.171,8.956-4.178,2.22-8.411,4.305-12.719,6.301-4.291,1.989-8.296,4.678-12.709,6.438-4.391,1.751-9.224,2.327-13.729,3.844-4.478,1.508-8.894,3.181-13.477,4.451-4.552,1.261-8.333,6.049-12.981,7.067-4.611,1.01-9.659.639-14.357,1.403-4.657.758-9.535.753-14.271,1.262-4.689.504-9.51.49-14.27.744-4.706.251-9.498-3.75-14.267-3.75-4.769,0-9.466,2.224-14.172,1.973-4.759-.254-9.742,2.153-14.431,1.649-4.736-.509-9.358-2.291-14.015-3.048-4.699-.765-9.5-1.216-14.111-2.227-4.648-1.018-8.134-6.455-12.686-7.716-4.583-1.27-9.83-.006-14.309-1.515-4.505-1.517-9.869-.808-14.26-2.559-4.413-1.76-7.289-7.106-11.58-9.094s-8.338-4.327-12.517-6.547c-4.193-2.227-9.245-2.825-13.299-5.269-4.064-2.451-9.406-3.027-13.323-5.688-3.924-2.666-6.724-7.032-10.493-9.901s-8.465-4.717-12.075-7.786c-3.612-3.071-4.197-9.505-7.637-12.765-3.441-3.26-7.889-5.401-11.149-8.842-3.26-3.44-5.169-7.987-8.241-11.599-3.069-3.609-9.829-4.262-12.702-8.035-2.869-3.768-1.962-10.279-4.628-14.204s-7.887-6.173-10.338-10.237c-2.444-4.053-6.108-7.546-8.335-11.738s-.77-10.232-2.766-14.541c-1.989-4.291-4.129-8.46-5.889-12.874-1.751-4.391-7.118-7.525-8.635-12.029-1.508-4.478-3.241-9.081-4.51-13.664-1.261-4.552,1.335-10.152.317-14.8-1.01-4.611-.605-9.443-1.37-14.142-.758-4.657-2.036-9.179-2.545-13.915-.504-4.689-3.525-9.204-3.779-13.963-.251-4.706,2.083-9.518,2.083-14.287s.293-9.44.544-14.147c.254-4.759,1.045-9.372,1.549-14.061.509-4.736-3.242-10.055-2.484-14.712.765-4.699,2.145-9.401,3.156-14.012,1.018-4.648,4.668-8.683,5.929-13.234,1.27-4.583,1.383-9.528,2.892-14.007,1.517-4.505,5.934-7.907,7.685-12.298,1.76-4.413.801-9.965,2.789-14.257,1.997-4.309,2.529-9.464,4.749-13.642,2.227-4.193,9.094-5.775,11.538-9.828s1.642-10.197,4.303-14.114c2.666-3.924,6.683-6.943,9.552-10.711,2.873-3.774,3.436-9.535,6.505-13.145,3.071-3.612,10.558-3.303,13.818-6.743,3.26-3.441,4.541-8.797,7.982-12.057,3.44-3.26,6.257-7.308,9.87-10.379,3.609-3.069,6.539-7.194,10.312-10.067s7.876-5.55,11.8-8.216c3.917-2.661,11.22-.023,15.284-2.474s7.443-5.78,11.636-8.007c4.178-2.22,8.249-4.436,12.558-6.432,4.291-1.989,8.681-3.49,13.095-5.25,4.391-1.751,8.573-3.793,13.077-5.31,4.478-1.508,8.321-5.016,12.904-6.286,4.552-1.261,9.979,1.26,14.626.241,4.611-1.01,8.183-7.436,12.882-8.2,4.657-.758,9.609-.196,14.344-.706,4.689-.504,9.506-.255,14.265-.509,4.706-.251,9.469-1.211,14.238-1.211s9.347,4.416,14.054,4.667c4.759.254,9.389.014,14.077.518,4.736.509,9.779-1.789,14.437-1.031,4.699.765,9.063,3.127,13.675,4.138,4.648,1.018,9.246,1.974,13.798,3.235,4.583,1.27,9.203,2.267,13.682,3.775,4.505,1.517,9.047,2.866,13.439,4.618,4.413,1.76,8.635,3.912,12.927,5.9s9.548,2.194,13.726,4.414c4.193,2.227,7.234,6.549,11.287,8.993,4.064,2.451,9.42,2.955,13.337,5.616,3.924,2.666,8.314,4.901,12.083,7.77,3.774,2.873,3.656,10.556,7.265,13.625,3.612,3.071,7.282,5.829,10.722,9.089,3.441,3.26,6.648,6.534,9.908,9.975,3.26,3.44,6.989,6.28,10.06,9.892,3.069,3.609,5.78,7.36,8.653,11.134,2.869,3.768,8.466,5.543,11.132,9.468,2.661,3.917,6.533,7.19,8.983,11.254,2.444,4.053.318,10.713,2.545,14.906,2.22,4.178,5.073,7.932,7.07,12.24s6.99,7.306,8.749,11.719,4.377,8.612,5.894,13.117c1.508,4.478,2.981,9.148,4.25,13.731,1.261,4.552,2.651,9.259,3.669,13.906,1.01,4.611,1.791,9.455,2.556,14.154.758,4.657-.694,9.739-.185,14.475.504,4.689,2.038,9.397,2.292,14.156.251,4.706-.065,9.55-.065,14.319Z" style="fill: none; stroke: #000; stroke-miterlimit: 10; stroke-width: 47.116px;"/>
  </g>
  <path d="M446.933,354.933c0,4.875-3.984,9.292-4.652,13.982-.685,4.807,1.781,10.13.443,14.693-1.361,4.643-2.928,9.341-4.912,13.68-2.007,4.387-7.811,6.537-10.401,10.559-2.606,4.047-1.994,10.366-5.135,13.988-3.147,3.629-6.146,7.775-9.774,10.922-3.622,3.141-9.831,2.912-13.878,5.518-4.022,2.59-7.933,4.951-12.32,6.958-4.339,1.985-7.527,7.33-12.17,8.692-4.563,1.338-10.164-1.671-14.971-.986-4.69.668-9.22.838-14.095.838s-9.665,1.654-14.355.986c-4.807-.685-8.754-4.258-13.317-5.595-4.643-1.361-8.839-2.795-13.178-4.78-4.387-2.007-10.864-.138-14.886-2.728-4.047-2.606-5.576-8.646-9.198-11.787-3.629-3.147-6.808-6.421-9.955-10.05-3.141-3.622-7.569-6.178-10.175-10.224-2.59-4.022-3.852-8.757-5.859-13.144-1.985-4.339-7.392-7.611-8.753-12.254-1.338-4.563-2.441-9.681-3.126-14.488-.668-4.69-1.39-9.904-1.39-14.778s6.186-9.31,6.854-14c.685-4.807.964-9.344,2.302-13.907,1.361-4.643.711-9.924,2.696-14.263,2.007-4.387,3.404-9.299,5.994-13.321,2.606-4.047,5.926-7.849,9.068-11.471,3.147-3.629,9.619-3.79,13.247-6.937,3.622-3.141,4.444-9.917,8.491-12.523,4.022-2.59,9.468-2.85,13.855-4.857,4.339-1.985,8.006-6.246,12.649-7.607,4.563-1.338,9.768-1.001,14.574-1.686,4.69-.668,9.586-.563,14.461-.563s10.079-2.272,14.769-1.603c4.807.685,9.198,4.235,13.762,5.573,4.643,1.361,9.061,3.363,13.4,5.348,4.387,2.007,6.73,7.242,10.752,9.832,4.047,2.606,12.029-.016,15.651,3.125,3.629,3.147,6.562,7.607,9.709,11.236,3.141,3.622,6.34,7.674,8.945,11.72,2.59,4.022.568,10.618,2.575,15.005,1.985,4.339,4.995,8.091,6.356,12.734,1.338,4.563,6.541,8.531,7.226,13.338.668,4.69-1.28,9.953-1.28,14.828Z"/>
</svg>