<?xml version="1.0" encoding="UTF-8"?>
<svg id="LM_Icons" data-name="LM Icons" xmlns="http://www.w3.org/2000/svg" width="700" height="700" viewBox="0 0 700 700">
  <g>
    <path d="M606.201,594.488c-1.811,1.817-3.116-2.423-5.681-2.423-2.565,0-2.565,5.771-5.131,5.771s-2.566-2.086-5.131-2.086c-2.566,0-2.566,1.708-5.132,1.708-2.566,0-2.566-1.471-5.133-1.471s-2.567-1.017-5.134-1.017-2.568-2.413-5.136-2.413c-2.567,0-2.567,3.279-5.134,3.279-2.567,0-2.567.349-5.133.349-2.566,0-2.566.668-5.132.668s-2.566.81-5.132.81-2.566-2.335-5.132-2.335-2.566-3.574-5.132-3.574c-2.566,0-2.566-.643-5.132-.643-2.567,0-2.567,6.464-5.133,6.464s-2.567-.114-5.135-.114c-2.568,0-2.568-2.798-5.136-2.798-2.567,0-2.567-.69-5.134-.69-2.567,0-2.567,3.119-5.133,3.119q-2.566,0-5.133-.005c-2.566,0-2.566.657-5.132.657s-2.566-1.574-5.133-1.574-2.567-3.909-5.133-3.909-2.567,2.47-5.134,2.47-2.568-.543-5.136-.543c-2.568,0-2.568,1.856-5.135,1.856-2.567,0-2.567-3.563-5.134-3.563-2.567,0-2.567,4.784-5.133,4.784-2.567,0-2.567-.452-5.133-.452-2.567,0-2.567-5.709-5.134-5.709-2.567,0-2.567,2.891-5.134,2.891s-2.568-1.83-5.136-1.83-2.568,1.185-5.136,1.185-2.567,1.945-5.134,1.945c-2.567,0-2.567-.268-5.134-.268-2.567,0-2.567,1.569-5.134,1.569-2.567,0-2.567-2.608-5.135-2.608-2.568,0-2.568-.778-5.136-.778-2.568,0-2.568,1.596-5.136,1.596-2.567,0-2.567-4.236-5.135-4.236-2.567,0-2.567,4.865-5.134,4.865-2.567,0-2.567-.928-5.135-.928-2.568,0-2.568.218-5.136.218-2.568,0-2.568.71-5.136.71-2.568,0-2.568-1.683-5.135-1.683-2.567,0-2.567,2.033-5.135,2.033-2.568,0-2.568-3.88-5.135-3.88s-2.568,3.04-5.137,3.04c-2.568,0-2.568-4.751-5.136-4.751s-2.568,6.962-5.135,6.962-2.568-5.771-5.135-5.771-2.569.767-5.137.767-2.568,2.17-5.136,2.17-2.568-1.547-5.135-1.547c-2.568,0-2.568,2.437-5.136,2.437-2.568,0-2.568.173-5.137.173-2.566,0-2.566-2.755-5.132-2.755s-2.565,1.944-5.131,1.944c-2.565,0-2.565.097-5.131.097s-2.566-.125-5.133-.125-2.568-3.613-5.136-3.613c-2.568,0-2.568,1.507-5.135,1.507s-2.566,3.454-5.133,3.454c-2.566,0-2.566-2.901-5.133-2.901s-2.567,1.785-5.135,1.785-2.569-4.669-5.138-4.669-2.567,3.023-5.135,3.023c-2.567,0-2.567,3.118-5.134,3.118-2.568,0-2.568-.133-5.136-.133s-2.569-.113-5.138-.113c-2.567,0-2.567-4.113-5.135-4.113-2.568,0-2.568-1.107-5.136-1.107-2.569,0-2.569-.295-5.138-.295-2.568,0-2.568,5.788-5.136,5.788-2.569,0-2.569-.045-5.138-.045-2.568,0-2.568-6.099-5.137-6.099-2.569,0-2.569,6.851-5.138,6.851-2.569,0-2.569.327-5.138.327-2.57,0-2.57-6.865-5.139-6.865-2.569,0-2.569,7.14-5.138,7.14s-2.57-4.382-5.139-4.382c-2.57,0-2.57,3.712-5.14,3.712-2.57,0-2.57.463-5.139.463-2.567,0-2.567-2.667-5.134-2.667-2.57,0-2.57-1.206-5.139-1.206-2.568,0-2.568,1.98-5.136,1.98-2.569,0-2.569.156-5.139.156s-2.57,1.312-5.141,1.312-2.57-6.209-5.141-6.209c-2.57,0-2.57,3.606-5.141,3.606s-2.571-.388-5.142-.388-2.57,3.594-5.139,3.594c-2.572,0-2.572.24-5.144.24-2.574,0-2.574-1.208-5.147-1.208s-5.439,1.285-7.261-.532c-1.817-1.811,2.977-4.686,2.977-7.252,0-2.565-4.015-2.565-4.015-5.131s-.452-2.566-.452-5.131,5.161-2.566,5.161-5.132c0-2.566.686-2.566.686-5.133,0-2.567-2.699-2.567-2.699-5.134,0-2.568-1.876-2.568-1.876-5.136,0-2.567,5.609-2.567,5.609-5.134,0-2.567-7.002-2.567-7.002-5.133s4.514-2.566,4.514-5.132c0-2.566,1.912-2.566,1.912-5.132s1.174-2.566,1.174-5.132c0-2.566-2.949-2.566-2.949-5.132s-4.521-2.566-4.521-5.132c0-2.567,6.111-2.567,6.111-5.133s-3.19-2.567-3.19-5.135c0-2.568-3.273-2.568-3.273-5.136s1.324-2.567,1.324-5.134c0-2.567,6.416-2.567,6.416-5.133,0-2.566-.376-2.566-.376-5.133,0-2.566-.152-2.566-.152-5.132,0-2.566-6.769-2.566-6.769-5.133,0-2.567.595-2.567.595-5.133s5.322-2.567,5.322-5.134c0-2.568-1.723-2.568-1.723-5.136,0-2.568-3.211-2.568-3.211-5.135,0-2.567,2.387-2.567,2.387-5.134,0-2.567-1.289-2.567-1.289-5.133s4.85-2.567,4.85-5.133-5.099-2.567-5.099-5.134.707-2.567.707-5.134,1.267-2.568,1.267-5.136-3.886-2.568-3.886-5.136c0-2.567,4.258-2.567,4.258-5.134,0-2.567-2.831-2.567-2.831-5.134s-1.237-2.567-1.237-5.134,5.879-2.567,5.879-5.135-1.629-2.568-1.629-5.136c0-2.568-1.087-2.568-1.087-5.136,0-2.567-2.039-2.567-2.039-5.135s-1.426-2.567-1.426-5.134c0-2.567,6.175-2.567,6.175-5.135s-4.247-2.568-4.247-5.136c0-2.568,5.365-2.568,5.365-5.136s-.566-2.568-.566-5.135c0-2.567-4.818-2.567-4.818-5.135,0-2.568-1.366-2.568-1.366-5.135,0-2.568,1.037-2.568,1.037-5.137,0-2.568-1.523-2.568-1.523-5.136,0-2.568,4.21-2.568,4.21-5.135s.398-2.568.398-5.135-3.522-2.569-3.522-5.137c0-2.568,1.314-2.568,1.314-5.136,0-2.568-1.339-2.568-1.339-5.135,0-2.568-.127-2.568-.127-5.136,0-2.568,1.567-2.568,1.567-5.137,0-2.566-.244-2.566-.244-5.132,0-2.565,1.377-2.565,1.377-5.131s-1.741-2.565-1.741-5.131,5.568-2.566,5.568-5.133-4.756-2.568-4.756-5.136c0-2.568,4.044-2.568,4.044-5.135,0-2.566-3.159-2.566-3.159-5.133s-2.808-2.566-2.808-5.133c0-2.567.085-2.567.085-5.135s4.165-2.569,4.165-5.138c0-2.567,1.008-2.567,1.008-5.135s.73-2.567.73-5.134-2.499-2.568-2.499-5.136c0-2.569.601-2.569.601-5.138,0-2.567-4.419-2.567-4.419-5.135s1.242-2.568,1.242-5.136,1.499-2.569,1.499-5.138-3.339-2.568-3.339-5.136c0-2.569.463-2.569.463-5.138,0-2.568-.187-2.568-.187-5.137,0-2.569,5.537-2.569,5.537-5.138,0-2.569-4.234-2.569-4.234-5.138,0-2.57,3.592-2.57,3.592-5.139s-.134-2.569-.134-5.138c0-2.57,1.022-2.57,1.022-5.139s-1.327-2.57-1.327-5.14c0-2.57.213-2.57.213-5.139s-2.456-2.567-2.456-5.134c0-2.57-1.397-2.57-1.397-5.139s3.255-2.568,3.255-5.136c0-2.569-.544-2.569-.544-5.139,0-2.57,1.151-2.57,1.151-5.141,0-2.57,1.291-2.57,1.291-5.141,0-2.57-.144-2.57-.144-5.141,0-2.571-4.762-2.571-4.762-5.142,0-2.57.655-2.57.655-5.139,0-2.572-1.621-2.572-1.621-5.144s3.195-2.574,3.195-5.147-.01-1.739,1.807-3.561.974.915,3.54.915,2.565,1.183,5.131,1.183,2.566-6.159,5.131-6.159,2.566,3.541,5.132,3.541,2.566-4.994,5.133-4.994,2.567,5.593,5.134,5.593,2.568,2.249,5.136,2.249,2.567-5.77,5.134-5.77,2.567,4.521,5.133,4.521,2.566-1.565,5.132-1.565,2.566.355,5.132.355,2.566-2.232,5.132-2.232,2.566,4.713,5.132,4.713,2.566-3.35,5.132-3.35,2.567,1.738,5.133,1.738,2.567-3.662,5.135-3.662,2.568-1.384,5.136-1.384,2.567,4.276,5.134,4.276,2.567-4.655,5.133-4.655,2.566.835,5.133.835,2.566,3.267,5.132,3.267,2.566-3.744,5.133-3.744,2.567,1.771,5.133,1.771,2.567-.054,5.134-.054,2.568,1.643,5.136,1.643,2.568-1.954,5.135-1.954,2.567,5.11,5.134,5.11,2.567-6.45,5.133-6.45,2.567,4.667,5.133,4.667,2.567-5.958,5.134-5.958,2.567,1.364,5.134,1.364,2.568,3.421,5.136,3.421,2.568.273,5.136.273,2.567-2.178,5.134-2.178,2.567,4.419,5.134,4.419,2.567-5.754,5.134-5.754,2.567-1.462,5.135-1.462,2.568,1.192,5.136,1.192,2.568,2.572,5.136,2.572,2.567-2.039,5.135-2.039,2.567,5.869,5.134,5.869,2.567-.951,5.135-.951,2.568-5.362,5.136-5.362,2.568,6.395,5.136,6.395,2.568-6.74,5.135-6.74,2.567-.938,5.135-.938,2.568,2.606,5.135,2.606,2.568,5.223,5.137,5.223,2.568-4.391,5.136-4.391,2.568-2.845,5.135-2.845,2.568,5.86,5.135,5.86,2.569-5.759,5.137-5.759,2.568,7.093,5.136,7.093,2.568-4.189,5.135-4.189,2.568-2.034,5.136-2.034,2.568-1.056,5.137-1.056,2.566,1.613,5.132,1.613,2.565-1.816,5.131-1.816,2.565,7.02,5.131,7.02,2.566-1.577,5.133-1.577,2.568-.701,5.136-.701,2.568-.976,5.135-.976,2.566.558,5.133.558,2.566-1.43,5.133-1.43,2.567,4.069,5.135,4.069,2.569-6.582,5.138-6.582,2.567,4.029,5.135,4.029,2.567-.402,5.134-.402,2.568-2.731,5.136-2.731,2.569.337,5.138.337,2.567,1.828,5.135,1.828,2.568-1.124,5.136-1.124,2.569,4.355,5.138,4.355,2.568-5.997,5.136-5.997,2.569,5.895,5.138,5.895,2.568-5.931,5.137-5.931,2.569,3.65,5.138,3.65,2.569-3.939,5.138-3.939,2.57,4.878,5.139,4.878,2.569-.402,5.138-.402,2.57-1.836,5.139-1.836,2.57-2.429,5.14-2.429,2.57,2.849,5.139,2.849,2.567,1.409,5.134,1.409,2.57-4.534,5.139-4.534,2.568,3.807,5.136,3.807,2.569-3.403,5.139-3.403,2.57-.948,5.141-.948,2.57.633,5.141.633,2.57,6.87,5.141,6.87,2.571-3.531,5.142-3.531,2.57-3.918,5.139-3.918,2.572,7.246,5.144,7.246,2.574-4.886,5.147-4.886,1.659,1.28,3.482,3.097-.453.895-.453,3.46c0,2.565,4.537,2.565,4.537,5.131,0,2.566-4.384,2.566-4.384,5.131,0,2.566-1.806,2.566-1.806,5.132s4.925,2.566,4.925,5.133c0,2.567-2.146,2.567-2.146,5.134,0,2.568-.069,2.568-.069,5.136,0,2.567-1.275,2.567-1.275,5.134,0,2.567,5.923,2.567,5.923,5.133s-.05,2.566-.05,5.132-2.962,2.566-2.962,5.132c0,2.566,2.492,2.566,2.492,5.132s-5.519,2.566-5.519,5.132,4.922,2.566,4.922,5.132c0,2.567.063,2.567.063,5.133s-.061,2.567-.061,5.135-1.816,2.568-1.816,5.136,1.398,2.567,1.398,5.134c0,2.567-4.44,2.567-4.44,5.133,0,2.566.053,2.566.053,5.133,0,2.566-.314,2.566-.314,5.132,0,2.566,4.167,2.566,4.167,5.133,0,2.567.216,2.567.216,5.133,0,2.567-3.424,2.567-3.424,5.134,0,2.568.129,2.568.129,5.136,0,2.568.729,2.568.729,5.135,0,2.567-2.268,2.567-2.268,5.134,0,2.567,2.659,2.567,2.659,5.133s-1.753,2.567-1.753,5.133c0,2.567,3.796,2.567,3.796,5.134,0,2.567-1.099,2.567-1.099,5.134,0,2.568.948,2.568.948,5.136s.157,2.568.157,5.136c0,2.567.724,2.567.724,5.134,0,2.567-4.134,2.567-4.134,5.134,0,2.567.117,2.567.117,5.134,0,2.567-1.153,2.567-1.153,5.135,0,2.568-1.114,2.568-1.114,5.136,0,2.568,5.575,2.568,5.575,5.136,0,2.567-3.171,2.567-3.171,5.135s-1.665,2.567-1.665,5.134,5.976,2.567,5.976,5.135-2.589,2.568-2.589,5.136c0,2.568,2.14,2.568,2.14,5.136,0,2.568-2.47,2.568-2.47,5.135,0,2.567.26,2.567.26,5.135,0,2.568-3.979,2.568-3.979,5.135,0,2.568,3.336,2.568,3.336,5.137,0,2.568.773,2.568.773,5.136,0,2.568,1.757,2.568,1.757,5.135,0,2.568-5.674,2.568-5.674,5.135,0,2.569,4.214,2.569,4.214,5.137,0,2.568,2.067,2.568,2.067,5.136,0,2.568-4.639,2.568-4.639,5.135,0,2.568-.279,2.568-.279,5.136,0,2.568-1.203,2.568-1.203,5.137s1.998,2.566,1.998,5.132.901,2.565.901,5.131c0,2.565.459,2.565.459,5.131s-2.519,2.566-2.519,5.133,4.335,2.568,4.335,5.136c0,2.568,1.131,2.568,1.131,5.135,0,2.566-.77,2.566-.77,5.133s.632,2.566.632,5.133c0,2.567-4.67,2.567-4.67,5.135s-1.326,2.569-1.326,5.138,4.919,2.567,4.919,5.135c0,2.567-1.392,2.567-1.392,5.134,0,2.568-3.308,2.568-3.308,5.136s.882,2.569.882,5.138,1.555,2.567,1.555,5.135c0,2.568-2.773,2.568-2.773,5.136,0,2.569,3.259,2.569,3.259,5.138s3.651,2.568,3.651,5.136c0,2.569-6.55,2.569-6.55,5.138s3.666,2.568,3.666,5.137c0,2.569.352,2.569.352,5.138,0,2.569-2.831,2.569-2.831,5.138,0,2.57,1.524,2.57,1.524,5.139s3.805,2.569,3.805,5.138c0,2.57-.183,2.57-.183,5.139s.592,2.57.592,5.14-2.189,2.57-2.189,5.139,2.002,2.567,2.002,5.134c0,2.57-6.243,2.57-6.243,5.139s4.672,2.568,4.672,5.136c0,2.569-2.834,2.569-2.834,5.139,0,2.57,2.307,2.57,2.307,5.141,0,2.57-3.048,2.57-3.048,5.141,0,2.57,5.313,2.57,5.313,5.141s-2.854,2.571-2.854,5.142,2.116,2.57,2.116,5.139c0,2.572-3.043,2.572-3.043,5.144s-1.558,2.891-.904,5.381c.776,2.957,3.257,3.64,1.44,5.463Z" style="fill: #fff;"/>
    <path d="M606.201,594.488c-1.811,1.817-3.116-2.423-5.681-2.423-2.565,0-2.565,5.771-5.131,5.771s-2.566-2.086-5.131-2.086c-2.566,0-2.566,1.708-5.132,1.708-2.566,0-2.566-1.471-5.133-1.471s-2.567-1.017-5.134-1.017-2.568-2.413-5.136-2.413c-2.567,0-2.567,3.279-5.134,3.279-2.567,0-2.567.349-5.133.349-2.566,0-2.566.668-5.132.668s-2.566.81-5.132.81-2.566-2.335-5.132-2.335-2.566-3.574-5.132-3.574c-2.566,0-2.566-.643-5.132-.643-2.567,0-2.567,6.464-5.133,6.464s-2.567-.114-5.135-.114c-2.568,0-2.568-2.798-5.136-2.798-2.567,0-2.567-.69-5.134-.69-2.567,0-2.567,3.119-5.133,3.119q-2.566,0-5.133-.005c-2.566,0-2.566.657-5.132.657s-2.566-1.574-5.133-1.574-2.567-3.909-5.133-3.909-2.567,2.47-5.134,2.47-2.568-.543-5.136-.543c-2.568,0-2.568,1.856-5.135,1.856-2.567,0-2.567-3.563-5.134-3.563-2.567,0-2.567,4.784-5.133,4.784-2.567,0-2.567-.452-5.133-.452-2.567,0-2.567-5.709-5.134-5.709-2.567,0-2.567,2.891-5.134,2.891s-2.568-1.83-5.136-1.83-2.568,1.185-5.136,1.185-2.567,1.945-5.134,1.945c-2.567,0-2.567-.268-5.134-.268-2.567,0-2.567,1.569-5.134,1.569-2.567,0-2.567-2.608-5.135-2.608-2.568,0-2.568-.778-5.136-.778-2.568,0-2.568,1.596-5.136,1.596-2.567,0-2.567-4.236-5.135-4.236-2.567,0-2.567,4.865-5.134,4.865-2.567,0-2.567-.928-5.135-.928-2.568,0-2.568.218-5.136.218-2.568,0-2.568.71-5.136.71-2.568,0-2.568-1.683-5.135-1.683-2.567,0-2.567,2.033-5.135,2.033-2.568,0-2.568-3.88-5.135-3.88s-2.568,3.04-5.137,3.04c-2.568,0-2.568-4.751-5.136-4.751s-2.568,6.962-5.135,6.962-2.568-5.771-5.135-5.771-2.569.767-5.137.767-2.568,2.17-5.136,2.17-2.568-1.547-5.135-1.547c-2.568,0-2.568,2.437-5.136,2.437-2.568,0-2.568.173-5.137.173-2.566,0-2.566-2.755-5.132-2.755s-2.565,1.944-5.131,1.944c-2.565,0-2.565.097-5.131.097s-2.566-.125-5.133-.125-2.568-3.613-5.136-3.613c-2.568,0-2.568,1.507-5.135,1.507s-2.566,3.454-5.133,3.454c-2.566,0-2.566-2.901-5.133-2.901s-2.567,1.785-5.135,1.785-2.569-4.669-5.138-4.669-2.567,3.023-5.135,3.023c-2.567,0-2.567,3.118-5.134,3.118-2.568,0-2.568-.133-5.136-.133s-2.569-.113-5.138-.113c-2.567,0-2.567-4.113-5.135-4.113-2.568,0-2.568-1.107-5.136-1.107-2.569,0-2.569-.295-5.138-.295-2.568,0-2.568,5.788-5.136,5.788-2.569,0-2.569-.045-5.138-.045-2.568,0-2.568-6.099-5.137-6.099-2.569,0-2.569,6.851-5.138,6.851-2.569,0-2.569.327-5.138.327-2.57,0-2.57-6.865-5.139-6.865-2.569,0-2.569,7.14-5.138,7.14s-2.57-4.382-5.139-4.382c-2.57,0-2.57,3.712-5.14,3.712-2.57,0-2.57.463-5.139.463-2.567,0-2.567-2.667-5.134-2.667-2.57,0-2.57-1.206-5.139-1.206-2.568,0-2.568,1.98-5.136,1.98-2.569,0-2.569.156-5.139.156s-2.57,1.312-5.141,1.312-2.57-6.209-5.141-6.209c-2.57,0-2.57,3.606-5.141,3.606s-2.571-.388-5.142-.388-2.57,3.594-5.139,3.594c-2.572,0-2.572.24-5.144.24-2.574,0-2.574-1.208-5.147-1.208s-5.439,1.285-7.261-.532c-1.817-1.811,2.977-4.686,2.977-7.252,0-2.565-4.015-2.565-4.015-5.131s-.452-2.566-.452-5.131,5.161-2.566,5.161-5.132c0-2.566.686-2.566.686-5.133,0-2.567-2.699-2.567-2.699-5.134,0-2.568-1.876-2.568-1.876-5.136,0-2.567,5.609-2.567,5.609-5.134,0-2.567-7.002-2.567-7.002-5.133s4.514-2.566,4.514-5.132c0-2.566,1.912-2.566,1.912-5.132s1.174-2.566,1.174-5.132c0-2.566-2.949-2.566-2.949-5.132s-4.521-2.566-4.521-5.132c0-2.567,6.111-2.567,6.111-5.133s-3.19-2.567-3.19-5.135c0-2.568-3.273-2.568-3.273-5.136s1.324-2.567,1.324-5.134c0-2.567,6.416-2.567,6.416-5.133,0-2.566-.376-2.566-.376-5.133,0-2.566-.152-2.566-.152-5.132,0-2.566-6.769-2.566-6.769-5.133,0-2.567.595-2.567.595-5.133s5.322-2.567,5.322-5.134c0-2.568-1.723-2.568-1.723-5.136,0-2.568-3.211-2.568-3.211-5.135,0-2.567,2.387-2.567,2.387-5.134,0-2.567-1.289-2.567-1.289-5.133s4.85-2.567,4.85-5.133-5.099-2.567-5.099-5.134.707-2.567.707-5.134,1.267-2.568,1.267-5.136-3.886-2.568-3.886-5.136c0-2.567,4.258-2.567,4.258-5.134,0-2.567-2.831-2.567-2.831-5.134s-1.237-2.567-1.237-5.134,5.879-2.567,5.879-5.135-1.629-2.568-1.629-5.136c0-2.568-1.087-2.568-1.087-5.136,0-2.567-2.039-2.567-2.039-5.135s-1.426-2.567-1.426-5.134c0-2.567,6.175-2.567,6.175-5.135s-4.247-2.568-4.247-5.136c0-2.568,5.365-2.568,5.365-5.136s-.566-2.568-.566-5.135c0-2.567-4.818-2.567-4.818-5.135,0-2.568-1.366-2.568-1.366-5.135,0-2.568,1.037-2.568,1.037-5.137,0-2.568-1.523-2.568-1.523-5.136,0-2.568,4.21-2.568,4.21-5.135s.398-2.568.398-5.135-3.522-2.569-3.522-5.137c0-2.568,1.314-2.568,1.314-5.136,0-2.568-1.339-2.568-1.339-5.135,0-2.568-.127-2.568-.127-5.136,0-2.568,1.567-2.568,1.567-5.137,0-2.566-.244-2.566-.244-5.132,0-2.565,1.377-2.565,1.377-5.131s-1.741-2.565-1.741-5.131,5.568-2.566,5.568-5.133-4.756-2.568-4.756-5.136c0-2.568,4.044-2.568,4.044-5.135,0-2.566-3.159-2.566-3.159-5.133s-2.808-2.566-2.808-5.133c0-2.567.085-2.567.085-5.135s4.165-2.569,4.165-5.138c0-2.567,1.008-2.567,1.008-5.135s.73-2.567.73-5.134-2.499-2.568-2.499-5.136c0-2.569.601-2.569.601-5.138,0-2.567-4.419-2.567-4.419-5.135s1.242-2.568,1.242-5.136,1.499-2.569,1.499-5.138-3.339-2.568-3.339-5.136c0-2.569.463-2.569.463-5.138,0-2.568-.187-2.568-.187-5.137,0-2.569,5.537-2.569,5.537-5.138,0-2.569-4.234-2.569-4.234-5.138,0-2.57,3.592-2.57,3.592-5.139s-.134-2.569-.134-5.138c0-2.57,1.022-2.57,1.022-5.139s-1.327-2.57-1.327-5.14c0-2.57.213-2.57.213-5.139s-2.456-2.567-2.456-5.134c0-2.57-1.397-2.57-1.397-5.139s3.255-2.568,3.255-5.136c0-2.569-.544-2.569-.544-5.139,0-2.57,1.151-2.57,1.151-5.141,0-2.57,1.291-2.57,1.291-5.141,0-2.57-.144-2.57-.144-5.141,0-2.571-4.762-2.571-4.762-5.142,0-2.57.655-2.57.655-5.139,0-2.572-1.621-2.572-1.621-5.144s3.195-2.574,3.195-5.147-.01-1.739,1.807-3.561.974.915,3.54.915,2.565,1.183,5.131,1.183,2.566-6.159,5.131-6.159,2.566,3.541,5.132,3.541,2.566-4.994,5.133-4.994,2.567,5.593,5.134,5.593,2.568,2.249,5.136,2.249,2.567-5.77,5.134-5.77,2.567,4.521,5.133,4.521,2.566-1.565,5.132-1.565,2.566.355,5.132.355,2.566-2.232,5.132-2.232,2.566,4.713,5.132,4.713,2.566-3.35,5.132-3.35,2.567,1.738,5.133,1.738,2.567-3.662,5.135-3.662,2.568-1.384,5.136-1.384,2.567,4.276,5.134,4.276,2.567-4.655,5.133-4.655,2.566.835,5.133.835,2.566,3.267,5.132,3.267,2.566-3.744,5.133-3.744,2.567,1.771,5.133,1.771,2.567-.054,5.134-.054,2.568,1.643,5.136,1.643,2.568-1.954,5.135-1.954,2.567,5.11,5.134,5.11,2.567-6.45,5.133-6.45,2.567,4.667,5.133,4.667,2.567-5.958,5.134-5.958,2.567,1.364,5.134,1.364,2.568,3.421,5.136,3.421,2.568.273,5.136.273,2.567-2.178,5.134-2.178,2.567,4.419,5.134,4.419,2.567-5.754,5.134-5.754,2.567-1.462,5.135-1.462,2.568,1.192,5.136,1.192,2.568,2.572,5.136,2.572,2.567-2.039,5.135-2.039,2.567,5.869,5.134,5.869,2.567-.951,5.135-.951,2.568-5.362,5.136-5.362,2.568,6.395,5.136,6.395,2.568-6.74,5.135-6.74,2.567-.938,5.135-.938,2.568,2.606,5.135,2.606,2.568,5.223,5.137,5.223,2.568-4.391,5.136-4.391,2.568-2.845,5.135-2.845,2.568,5.86,5.135,5.86,2.569-5.759,5.137-5.759,2.568,7.093,5.136,7.093,2.568-4.189,5.135-4.189,2.568-2.034,5.136-2.034,2.568-1.056,5.137-1.056,2.566,1.613,5.132,1.613,2.565-1.816,5.131-1.816,2.565,7.02,5.131,7.02,2.566-1.577,5.133-1.577,2.568-.701,5.136-.701,2.568-.976,5.135-.976,2.566.558,5.133.558,2.566-1.43,5.133-1.43,2.567,4.069,5.135,4.069,2.569-6.582,5.138-6.582,2.567,4.029,5.135,4.029,2.567-.402,5.134-.402,2.568-2.731,5.136-2.731,2.569.337,5.138.337,2.567,1.828,5.135,1.828,2.568-1.124,5.136-1.124,2.569,4.355,5.138,4.355,2.568-5.997,5.136-5.997,2.569,5.895,5.138,5.895,2.568-5.931,5.137-5.931,2.569,3.65,5.138,3.65,2.569-3.939,5.138-3.939,2.57,4.878,5.139,4.878,2.569-.402,5.138-.402,2.57-1.836,5.139-1.836,2.57-2.429,5.14-2.429,2.57,2.849,5.139,2.849,2.567,1.409,5.134,1.409,2.57-4.534,5.139-4.534,2.568,3.807,5.136,3.807,2.569-3.403,5.139-3.403,2.57-.948,5.141-.948,2.57.633,5.141.633,2.57,6.87,5.141,6.87,2.571-3.531,5.142-3.531,2.57-3.918,5.139-3.918,2.572,7.246,5.144,7.246,2.574-4.886,5.147-4.886,1.659,1.28,3.482,3.097-.453.895-.453,3.46c0,2.565,4.537,2.565,4.537,5.131,0,2.566-4.384,2.566-4.384,5.131,0,2.566-1.806,2.566-1.806,5.132s4.925,2.566,4.925,5.133c0,2.567-2.146,2.567-2.146,5.134,0,2.568-.069,2.568-.069,5.136,0,2.567-1.275,2.567-1.275,5.134,0,2.567,5.923,2.567,5.923,5.133s-.05,2.566-.05,5.132-2.962,2.566-2.962,5.132c0,2.566,2.492,2.566,2.492,5.132s-5.519,2.566-5.519,5.132,4.922,2.566,4.922,5.132c0,2.567.063,2.567.063,5.133s-.061,2.567-.061,5.135-1.816,2.568-1.816,5.136,1.398,2.567,1.398,5.134c0,2.567-4.44,2.567-4.44,5.133,0,2.566.053,2.566.053,5.133,0,2.566-.314,2.566-.314,5.132,0,2.566,4.167,2.566,4.167,5.133,0,2.567.216,2.567.216,5.133,0,2.567-3.424,2.567-3.424,5.134,0,2.568.129,2.568.129,5.136,0,2.568.729,2.568.729,5.135,0,2.567-2.268,2.567-2.268,5.134,0,2.567,2.659,2.567,2.659,5.133s-1.753,2.567-1.753,5.133c0,2.567,3.796,2.567,3.796,5.134,0,2.567-1.099,2.567-1.099,5.134,0,2.568.948,2.568.948,5.136s.157,2.568.157,5.136c0,2.567.724,2.567.724,5.134,0,2.567-4.134,2.567-4.134,5.134,0,2.567.117,2.567.117,5.134,0,2.567-1.153,2.567-1.153,5.135,0,2.568-1.114,2.568-1.114,5.136,0,2.568,5.575,2.568,5.575,5.136,0,2.567-3.171,2.567-3.171,5.135s-1.665,2.567-1.665,5.134,5.976,2.567,5.976,5.135-2.589,2.568-2.589,5.136c0,2.568,2.14,2.568,2.14,5.136,0,2.568-2.47,2.568-2.47,5.135,0,2.567.26,2.567.26,5.135,0,2.568-3.979,2.568-3.979,5.135,0,2.568,3.336,2.568,3.336,5.137,0,2.568.773,2.568.773,5.136,0,2.568,1.757,2.568,1.757,5.135,0,2.568-5.674,2.568-5.674,5.135,0,2.569,4.214,2.569,4.214,5.137,0,2.568,2.067,2.568,2.067,5.136,0,2.568-4.639,2.568-4.639,5.135,0,2.568-.279,2.568-.279,5.136,0,2.568-1.203,2.568-1.203,5.137s1.998,2.566,1.998,5.132.901,2.565.901,5.131c0,2.565.459,2.565.459,5.131s-2.519,2.566-2.519,5.133,4.335,2.568,4.335,5.136c0,2.568,1.131,2.568,1.131,5.135,0,2.566-.77,2.566-.77,5.133s.632,2.566.632,5.133c0,2.567-4.67,2.567-4.67,5.135s-1.326,2.569-1.326,5.138,4.919,2.567,4.919,5.135c0,2.567-1.392,2.567-1.392,5.134,0,2.568-3.308,2.568-3.308,5.136s.882,2.569.882,5.138,1.555,2.567,1.555,5.135c0,2.568-2.773,2.568-2.773,5.136,0,2.569,3.259,2.569,3.259,5.138s3.651,2.568,3.651,5.136c0,2.569-6.55,2.569-6.55,5.138s3.666,2.568,3.666,5.137c0,2.569.352,2.569.352,5.138,0,2.569-2.831,2.569-2.831,5.138,0,2.57,1.524,2.57,1.524,5.139s3.805,2.569,3.805,5.138c0,2.57-.183,2.57-.183,5.139s.592,2.57.592,5.14-2.189,2.57-2.189,5.139,2.002,2.567,2.002,5.134c0,2.57-6.243,2.57-6.243,5.139s4.672,2.568,4.672,5.136c0,2.569-2.834,2.569-2.834,5.139,0,2.57,2.307,2.57,2.307,5.141,0,2.57-3.048,2.57-3.048,5.141,0,2.57,5.313,2.57,5.313,5.141s-2.854,2.571-2.854,5.142,2.116,2.57,2.116,5.139c0,2.572-3.043,2.572-3.043,5.144s-1.558,2.891-.904,5.381c.776,2.957,3.257,3.64,1.44,5.463Z" style="fill: none; stroke: #000; stroke-linejoin: round; stroke-width: 45px;"/>
  </g>
  <g>
    <path d="M520.334,498.942c1.262-2.203-2.216-4.653-3.538-6.821-1.321-2.166-4.059-.497-5.38-2.663-1.321-2.166.968-3.563-.353-5.729s-4.262-.374-5.584-2.541c-1.323-2.169,3.131-4.885,1.808-7.054s-4.407-.286-5.729-2.453c-1.322-2.167.33-3.174-.992-5.341-1.322-2.168-2.214-1.624-3.536-3.792-1.323-2.168-1.666-1.959-2.989-4.128s.732-3.42-.59-5.588-1.536-2.038-2.858-4.206c-1.323-2.169-1.416-2.112-2.739-4.281-1.322-2.168-3.248-.993-4.57-3.161-1.323-2.169-1.485-2.07-2.807-4.239s-2.399-1.511-3.722-3.68,1.448-3.859.125-6.027c-1.323-2.169-3.013-1.137-4.336-3.306-1.323-2.169,2.019-4.207.696-6.376-1.323-2.169-6.828,1.189-8.151-.979-1.323-2.169-.233-2.834-1.556-5.003s-3.247-.996-4.57-3.166c-1.323-2.168,4.866-5.943,3.543-8.111s-7.316,1.489-8.637-.678c-1.323-2.169,3.165-4.907,1.842-7.076-1.322-2.168-5.199.197-6.522-1.971s-1.973-1.772-3.296-3.941.906-3.53-.417-5.7c-1.324-2.17-.1-2.916-1.423-5.086s-4.554-.2-5.878-2.369c-1.323-2.169-1.586-2.009-2.909-4.179s-.419-2.721-1.742-4.891c-1.324-2.172,3.197-4.929,1.872-7.101s-3.898-.604-5.224-2.777.157-3.208-2.387-3.279c-2.539-.071.667,2.265-.769,4.36s-4.044.31-5.482,2.407c-1.437,2.095-2.331,1.482-3.768,3.577-1.436,2.095,2.894,5.064,1.458,7.159-1.437,2.096-4.925-.295-6.362,1.8-1.437,2.097-3.139.93-4.576,3.027s-.347,2.843-1.783,4.938-1.146,2.295-2.583,4.391c-1.438,2.097,2.554,4.834,1.117,6.93-1.437,2.096-2.233,1.55-3.67,3.646s-3.378.767-4.815,2.863.82,3.643-.618,5.74c-1.437,2.097-6.972-1.698-8.409.399-1.437,2.097-1.667,1.939-3.104,4.036-1.438,2.097,2.902,5.072,1.464,7.169-1.437,2.097-.676,2.618-2.114,4.715-1.438,2.097-3.603.613-5.041,2.71-1.436,2.094-.354,2.836-1.79,4.93s.865,3.675-.573,5.772c-1.437,2.095-3.039.997-4.476,3.092-1.438,2.097-2.942,1.066-4.38,3.164s-.041,3.053-1.478,5.15-5.253-.518-6.691,1.579c-1.438,2.098,3.293,5.342,1.855,7.44s-6.018-1.042-7.457,1.056c-1.439,2.098-.717,2.593-2.156,4.691-1.438,2.098,2.553,4.834,1.115,6.931-1.438,2.098-1.424,2.108-2.862,4.206s-6.482-1.357-7.921.742,2.037,4.485.597,6.587-1.295,4.565-3.842,4.524c-2.593-.041-4.412-1.103-5.866-3.25s3.63-5.595,2.174-7.743-3.397-.832-4.852-2.979,1.159-3.92-.297-6.067-3.366-.853-4.822-3-.24-2.972-1.696-5.12c-1.456-2.148-3.743-.598-5.198-2.745-1.456-2.148-4.163-.314-5.618-2.462s-1.016-2.442-2.47-4.587c-1.456-2.148-1.034-2.433-2.49-4.581-1.455-2.147,1.743-4.314.288-6.46-1.456-2.149-2.52-1.427-3.977-3.576-1.455-2.147-2.185-1.653-3.64-3.8s-.418-2.852-1.874-5-5.003.254-6.46-1.895c-1.457-2.149,2.07-4.539.613-6.688-1.457-2.149-1.16-2.35-2.617-4.499-1.456-2.149-2.453-1.473-3.909-3.622s1.165-3.925-.291-6.074c-1.458-2.151-5.567.634-7.025-1.517-1.459-2.152-.901-2.53-2.36-4.682s.935-4.072-1.665-4.071c-2.529,0-.758,1.422-2.086,3.575-1.327,2.152-.039,2.946-1.366,5.098-1.327,2.153-3.623.737-4.95,2.89-1.328,2.153-2.444,1.465-3.772,3.618s3.405,5.07,2.078,7.222c-1.328,2.153-6.559-1.072-7.887,1.081-1.327,2.153.584,3.331-.744,5.484-1.328,2.153-2.758,1.271-4.086,3.424-1.328,2.153,1.83,4.1.502,6.253s-1.34,2.146-2.668,4.3c-1.328,2.153-.622,2.588-1.95,4.741s-3.582.764-4.909,2.918-1.021,2.339-2.347,4.489-1.334,2.15-2.661,4.303-4.201.38-5.528,2.532c-1.328,2.154.768,3.447-.56,5.601-1.327,2.153,2.328,4.406,1,6.559s-5.967-.706-7.295,1.447c-1.329,2.155,2.216,4.34.887,6.495-1.329,2.155-1.162,2.257-2.491,4.412s-5.954-.697-7.283,1.457c-1.328,2.154-1.031,2.338-2.359,4.492-1.328,2.154-.297,2.79-1.625,4.945s1.647,3.991.317,6.148c-1.33,2.158-6.469-1.01-7.799,1.148s.775,3.224,2.028,5.428c1.264,2.223,1.057-3.079,3.614-3.079s2.558,4.322,5.115,4.322,2.558-3.187,5.116-3.187c2.559,0,2.559,4.299,5.117,4.299s2.559.104,5.117.104,2.558-2.818,5.116-2.818c2.558,0,2.558,1.302,5.116,1.302,2.558,0,2.558-2.762,5.116-2.762s2.559,5.827,5.117,5.827c2.559,0,2.559-5.604,5.118-5.604s2.558,2.731,5.116,2.731c2.558,0,2.558,2.489,5.116,2.489,2.558,0,2.558.925,5.117.925s2.559-1.604,5.118-1.604c2.559,0,2.559,1.793,5.117,1.793s2.558-3.052,5.116-3.052,2.558,1.013,5.117,1.013c2.559,0,2.559-.99,5.119-.99s2.559,1.723,5.117,1.723,2.558-2.798,5.117-2.798,2.559-1.032,5.118-1.032,2.559-2.682,5.118-2.682,2.557,5.696,5.114,5.696,2.556-2.469,5.112-2.469c2.556,0,2.556-2.639,5.112-2.639,2.557,0,2.557,2.056,5.114,2.056s2.559-.469,5.118-.469c2.558,0,2.558,2.982,5.117,2.982,2.557,0,2.557,2.687,5.114,2.687s2.557-.408,5.114-.408,2.558-3.285,5.116-3.285,2.56-1.512,5.12-1.512,2.558,2.426,5.116,2.426,2.558,2.461,5.115,2.461c2.559,0,2.559-1.271,5.117-1.271,2.559,0,2.559-.932,5.119-.932,2.558,0,2.558,1.898,5.116,1.898,2.559,0,2.559-6.539,5.118-6.539,2.56,0,2.56,3.699,5.12,3.699s2.559-1.926,5.117-1.926c2.56,0,2.56-2.057,5.12-2.057,2.559,0,2.559,6.315,5.118,6.315,2.56,0,2.56-3.652,5.119-3.652,2.559,0,2.559-1.487,5.119-1.487,2.56,0,2.56-1.593,5.12-1.593s2.56,7.89,5.119,7.89,2.56-3.733,5.121-3.733c2.561,0,2.561.422,5.121.422,2.56,0,2.56-3.556,5.121-3.556s2.558-1.011,5.116-1.011c2.56,0,2.56,1.5,5.12,1.5,2.559,0,2.559,1.312,5.117,1.312,2.56,0,2.56.632,5.12.632s2.561-1.308,5.122-1.308c2.561,0,2.561.433,5.122.433,2.561,0,2.561,2.671,5.122,2.671,2.562,0,2.562-2.109,5.124-2.109,2.56,0,2.56,1.268,5.121,1.268,2.563,0,2.563,1.006,5.125,1.006,2.564,0,2.384-1.301,4.826-.519,3.985,1.275,6.718,2.747,7.993.522Z"/>
    <path d="M520.334,498.942c1.262-2.203-2.216-4.653-3.538-6.821-1.321-2.166-4.059-.497-5.38-2.663-1.321-2.166.968-3.563-.353-5.729s-4.262-.374-5.584-2.541c-1.323-2.169,3.131-4.885,1.808-7.054s-4.407-.286-5.729-2.453c-1.322-2.167.33-3.174-.992-5.341-1.322-2.168-2.214-1.624-3.536-3.792-1.323-2.168-1.666-1.959-2.989-4.128s.732-3.42-.59-5.588-1.536-2.038-2.858-4.206c-1.323-2.169-1.416-2.112-2.739-4.281-1.322-2.168-3.248-.993-4.57-3.161-1.323-2.169-1.485-2.07-2.807-4.239s-2.399-1.511-3.722-3.68,1.448-3.859.125-6.027c-1.323-2.169-3.013-1.137-4.336-3.306-1.323-2.169,2.019-4.207.696-6.376-1.323-2.169-6.828,1.189-8.151-.979-1.323-2.169-.233-2.834-1.556-5.003s-3.247-.996-4.57-3.166c-1.323-2.168,4.866-5.943,3.543-8.111s-7.316,1.489-8.637-.678c-1.323-2.169,3.165-4.907,1.842-7.076-1.322-2.168-5.199.197-6.522-1.971s-1.973-1.772-3.296-3.941.906-3.53-.417-5.7c-1.324-2.17-.1-2.916-1.423-5.086s-4.554-.2-5.878-2.369c-1.323-2.169-1.586-2.009-2.909-4.179s-.419-2.721-1.742-4.891c-1.324-2.172,3.197-4.929,1.872-7.101s-3.898-.604-5.224-2.777.157-3.208-2.387-3.279c-2.539-.071.667,2.265-.769,4.36s-4.044.31-5.482,2.407c-1.437,2.095-2.331,1.482-3.768,3.577-1.436,2.095,2.894,5.064,1.458,7.159-1.437,2.096-4.925-.295-6.362,1.8-1.437,2.097-3.139.93-4.576,3.027s-.347,2.843-1.783,4.938-1.146,2.295-2.583,4.391c-1.438,2.097,2.554,4.834,1.117,6.93-1.437,2.096-2.233,1.55-3.67,3.646s-3.378.767-4.815,2.863.82,3.643-.618,5.74c-1.437,2.097-6.972-1.698-8.409.399-1.437,2.097-1.667,1.939-3.104,4.036-1.438,2.097,2.902,5.072,1.464,7.169-1.437,2.097-.676,2.618-2.114,4.715-1.438,2.097-3.603.613-5.041,2.71-1.436,2.094-.354,2.836-1.79,4.93s.865,3.675-.573,5.772c-1.437,2.095-3.039.997-4.476,3.092-1.438,2.097-2.942,1.066-4.38,3.164s-.041,3.053-1.478,5.15-5.253-.518-6.691,1.579c-1.438,2.098,3.293,5.342,1.855,7.44s-6.018-1.042-7.457,1.056c-1.439,2.098-.717,2.593-2.156,4.691-1.438,2.098,2.553,4.834,1.115,6.931-1.438,2.098-1.424,2.108-2.862,4.206s-6.482-1.357-7.921.742,2.037,4.485.597,6.587-1.295,4.565-3.842,4.524c-2.593-.041-4.412-1.103-5.866-3.25s3.63-5.595,2.174-7.743-3.397-.832-4.852-2.979,1.159-3.92-.297-6.067-3.366-.853-4.822-3-.24-2.972-1.696-5.12c-1.456-2.148-3.743-.598-5.198-2.745-1.456-2.148-4.163-.314-5.618-2.462s-1.016-2.442-2.47-4.587c-1.456-2.148-1.034-2.433-2.49-4.581-1.455-2.147,1.743-4.314.288-6.46-1.456-2.149-2.52-1.427-3.977-3.576-1.455-2.147-2.185-1.653-3.64-3.8s-.418-2.852-1.874-5-5.003.254-6.46-1.895c-1.457-2.149,2.07-4.539.613-6.688-1.457-2.149-1.16-2.35-2.617-4.499-1.456-2.149-2.453-1.473-3.909-3.622s1.165-3.925-.291-6.074c-1.458-2.151-5.567.634-7.025-1.517-1.459-2.152-.901-2.53-2.36-4.682s.935-4.072-1.665-4.071c-2.529,0-.758,1.422-2.086,3.575-1.327,2.152-.039,2.946-1.366,5.098-1.327,2.153-3.623.737-4.95,2.89-1.328,2.153-2.444,1.465-3.772,3.618s3.405,5.07,2.078,7.222c-1.328,2.153-6.559-1.072-7.887,1.081-1.327,2.153.584,3.331-.744,5.484-1.328,2.153-2.758,1.271-4.086,3.424-1.328,2.153,1.83,4.1.502,6.253s-1.34,2.146-2.668,4.3c-1.328,2.153-.622,2.588-1.95,4.741s-3.582.764-4.909,2.918-1.021,2.339-2.347,4.489-1.334,2.15-2.661,4.303-4.201.38-5.528,2.532c-1.328,2.154.768,3.447-.56,5.601-1.327,2.153,2.328,4.406,1,6.559s-5.967-.706-7.295,1.447c-1.329,2.155,2.216,4.34.887,6.495-1.329,2.155-1.162,2.257-2.491,4.412s-5.954-.697-7.283,1.457c-1.328,2.154-1.031,2.338-2.359,4.492-1.328,2.154-.297,2.79-1.625,4.945s1.647,3.991.317,6.148c-1.33,2.158-6.469-1.01-7.799,1.148s.775,3.224,2.028,5.428c1.264,2.223,1.057-3.079,3.614-3.079s2.558,4.322,5.115,4.322,2.558-3.187,5.116-3.187c2.559,0,2.559,4.299,5.117,4.299s2.559.104,5.117.104,2.558-2.818,5.116-2.818c2.558,0,2.558,1.302,5.116,1.302,2.558,0,2.558-2.762,5.116-2.762s2.559,5.827,5.117,5.827c2.559,0,2.559-5.604,5.118-5.604s2.558,2.731,5.116,2.731c2.558,0,2.558,2.489,5.116,2.489,2.558,0,2.558.925,5.117.925s2.559-1.604,5.118-1.604c2.559,0,2.559,1.793,5.117,1.793s2.558-3.052,5.116-3.052,2.558,1.013,5.117,1.013c2.559,0,2.559-.99,5.119-.99s2.559,1.723,5.117,1.723,2.558-2.798,5.117-2.798,2.559-1.032,5.118-1.032,2.559-2.682,5.118-2.682,2.557,5.696,5.114,5.696,2.556-2.469,5.112-2.469c2.556,0,2.556-2.639,5.112-2.639,2.557,0,2.557,2.056,5.114,2.056s2.559-.469,5.118-.469c2.558,0,2.558,2.982,5.117,2.982,2.557,0,2.557,2.687,5.114,2.687s2.557-.408,5.114-.408,2.558-3.285,5.116-3.285,2.56-1.512,5.12-1.512,2.558,2.426,5.116,2.426,2.558,2.461,5.115,2.461c2.559,0,2.559-1.271,5.117-1.271,2.559,0,2.559-.932,5.119-.932,2.558,0,2.558,1.898,5.116,1.898,2.559,0,2.559-6.539,5.118-6.539,2.56,0,2.56,3.699,5.12,3.699s2.559-1.926,5.117-1.926c2.56,0,2.56-2.057,5.12-2.057,2.559,0,2.559,6.315,5.118,6.315,2.56,0,2.56-3.652,5.119-3.652,2.559,0,2.559-1.487,5.119-1.487,2.56,0,2.56-1.593,5.12-1.593s2.56,7.89,5.119,7.89,2.56-3.733,5.121-3.733c2.561,0,2.561.422,5.121.422,2.56,0,2.56-3.556,5.121-3.556s2.558-1.011,5.116-1.011c2.56,0,2.56,1.5,5.12,1.5,2.559,0,2.559,1.312,5.117,1.312,2.56,0,2.56.632,5.12.632s2.561-1.308,5.122-1.308c2.561,0,2.561.433,5.122.433,2.561,0,2.561,2.671,5.122,2.671,2.562,0,2.562-2.109,5.124-2.109,2.56,0,2.56,1.268,5.121,1.268,2.563,0,2.563,1.006,5.125,1.006,2.564,0,2.384-1.301,4.826-.519,3.985,1.275,6.718,2.747,7.993.522Z" style="fill: none; stroke: #000; stroke-linejoin: round; stroke-width: 45px;"/>
  </g>
</svg>