<?xml version="1.0" encoding="UTF-8"?>
<svg id="MD_Icons" data-name="MD Icons" xmlns="http://www.w3.org/2000/svg" width="400" height="400" viewBox="0 0 400 400">
  <path d="M201.426,46.123c0,2.396-2.631,2.396-2.631,4.792,0,2.397-.05,2.397-.05,4.794s1.548,2.399,1.548,4.797c0,2.397-.353,2.397-.353,4.794,0,2.397,1.206,2.397,1.206,4.793s-1.403,2.398-1.403,4.795-.059,2.398-.059,4.797c0,2.397-.267,2.397-.267,4.794,0,2.398,2.597,2.398,2.597,4.795,0,2.399-3.016,2.399-3.016,4.797,0,2.398,2.32,2.398,2.32,4.795s-1.894,2.399-1.894,4.797c0,2.398,1.233,2.398,1.233,4.796s-1.159,2.399-1.159,4.797,2.443,2.398,2.443,4.797c0,2.399-.393,2.399-.393,4.798s-2.22,2.398-2.22,4.797.287,2.399.287,4.798c0,2.399,1.177,2.399,1.177,4.799,0,2.399.763,2.399.763,4.798,0,2.397-.231,2.397-.231,4.794,0,2.399.694,2.399.694,4.798,0,2.398-.188,2.398-.188,4.795,0,2.399-2.368,2.399-2.368,4.798,0,2.4,2.201,2.4,2.201,4.8s-2.104,2.4-2.104,4.8-1.16,2.4-1.16,4.8,1.752,2.399,1.752,4.798c0,2.4-1.625,2.4-1.625,4.799,0,2.402,1.244,2.402,1.244,4.803s1.7,2.403,1.7,4.806-2.328,2.403-2.328,4.806M252.934,100.398c-1.668-1.668.192-3.529-1.476-5.197-1.67-1.67-1.635-1.705-3.305-3.375-1.668-1.668-2.763-.573-4.431-2.241s-1.421-1.92-3.091-3.59-2.522-.816-4.191-2.485-.679-2.663-2.349-4.334-1.628-1.711-3.298-3.381-1.482-1.859-3.152-3.53c-1.671-1.671-3.508.165-5.179-1.506-1.671-1.671.462-3.804-1.21-5.475-1.669-1.669-3.31-.029-4.979-1.698s-.332-3.011-2.003-4.682c-1.671-1.671-2.544-.799-4.215-2.471s-.852-2.492-2.524-4.163c-1.675-1.675-3.402.053-5.077-1.622s.203-3.271-2.165-3.255c-2.391.016-2.368-.243-4.053,1.454s-1.484,1.901-3.171,3.599-.851,2.526-2.536,4.223c-1.688,1.699-1.147,2.236-2.834,3.935-1.687,1.698-1.851,1.535-3.537,3.232-1.688,1.699-1.196,2.188-2.884,3.888-1.687,1.698-1.82,1.566-3.507,3.264s-3.368.03-5.056,1.729c-1.689,1.7-.128,3.251-1.816,4.95s-3.181.217-4.87,1.917c-1.687,1.698-2.51.88-4.197,2.578-1.689,1.7-.446,2.934-2.135,4.634s-2.842.555-4.531,2.254c-1.689,1.7-.807,2.577-2.496,4.277-1.692,1.703-.486,2.901-2.179,4.604-1.692,1.703-3.344.062-5.036,1.765M353.798,201.068c-2.396,0-2.396-2.631-4.792-2.631-2.397,0-2.397-.05-4.794-.05-2.399,0-2.399,1.548-4.797,1.548-2.397,0-2.397-.353-4.794-.353-2.397,0-2.397,1.206-4.793,1.206-2.398,0-2.398-1.403-4.795-1.403s-2.398-.059-4.797-.059c-2.397,0-2.397-.267-4.794-.267-2.398,0-2.398,2.597-4.795,2.597-2.399,0-2.399-3.016-4.797-3.016-2.398,0-2.398,2.32-4.795,2.32-2.399,0-2.399-1.894-4.797-1.894-2.398,0-2.398,1.233-4.796,1.233-2.399,0-2.399-1.159-4.797-1.159s-2.398,2.443-4.797,2.443-2.399-.393-4.798-.393-2.398-2.22-4.797-2.22-2.399.287-4.798.287c-2.399,0-2.399,1.177-4.799,1.177s-2.399.763-4.798.763c-2.397,0-2.397-.231-4.794-.231-2.399,0-2.399.694-4.798.694s-2.398-.188-4.795-.188c-2.399,0-2.399-2.368-4.798-2.368s-2.4,2.201-4.8,2.201-2.4-2.104-4.8-2.104-2.4-1.16-4.8-1.16-2.399,1.752-4.798,1.752-2.4-1.625-4.799-1.625c-2.402,0-2.402,1.244-4.803,1.244-2.403,0-2.403,1.7-4.806,1.7s-2.403-2.328-4.806-2.328M299.523,252.576c1.668-1.668,3.529.192,5.197-1.476s1.705-1.635,3.375-3.305.573-2.763,2.241-4.431,1.92-1.421,3.59-3.091c1.669-1.669.816-2.522,2.485-4.191s2.663-.679,4.334-2.349,1.711-1.628,3.381-3.298,1.859-1.482,3.53-3.152c1.671-1.671-.165-3.508,1.506-5.179,1.671-1.671,3.804.462,5.475-1.21s.029-3.31,1.698-4.979,3.011-.332,4.682-2.003c1.671-1.671.799-2.544,2.471-4.215s2.492-.852,4.163-2.524c1.675-1.675-.053-3.402,1.622-5.077s3.271.203,3.255-2.165c-.016-2.391.243-2.368-1.454-4.053s-1.901-1.484-3.599-3.171-2.526-.851-4.223-2.536c-1.699-1.688-2.236-1.147-3.935-2.834s-1.535-1.851-3.232-3.537-2.188-1.196-3.888-2.884-1.566-1.82-3.264-3.507c-1.699-1.688-.03-3.368-1.729-5.056-1.7-1.689-3.251-.128-4.95-1.816s-.217-3.181-1.917-4.87c-1.698-1.687-.88-2.51-2.578-4.197s-2.934-.446-4.634-2.135c-1.7-1.689-.555-2.842-2.254-4.531-1.7-1.689-2.577-.807-4.277-2.496-1.703-1.692-2.901-.486-4.604-2.179s-.062-3.344-1.765-5.036M198.574,353.877c0-2.396,2.631-2.396,2.631-4.792s.05-2.397.05-4.794-1.548-2.399-1.548-4.797c0-2.397.353-2.397.353-4.794,0-2.397-1.206-2.397-1.206-4.793s1.403-2.398,1.403-4.795c0-2.398.059-2.398.059-4.797,0-2.397.267-2.397.267-4.794,0-2.398-2.597-2.398-2.597-4.795,0-2.399,3.016-2.399,3.016-4.797s-2.32-2.398-2.32-4.795,1.894-2.399,1.894-4.797-1.233-2.398-1.233-4.796c0-2.399,1.159-2.399,1.159-4.797,0-2.398-2.443-2.398-2.443-4.797,0-2.399.393-2.399.393-4.798,0-2.398,2.22-2.398,2.22-4.797s-.287-2.399-.287-4.798c0-2.399-1.177-2.399-1.177-4.799s-.763-2.399-.763-4.798c0-2.397.231-2.397.231-4.794,0-2.399-.694-2.399-.694-4.798s.188-2.398.188-4.795c0-2.399,2.368-2.399,2.368-4.798s-2.201-2.4-2.201-4.8,2.104-2.4,2.104-4.8,1.16-2.4,1.16-4.8c0-2.399-1.752-2.399-1.752-4.798,0-2.4,1.625-2.4,1.625-4.799,0-2.402-1.244-2.402-1.244-4.803,0-2.403-1.7-2.403-1.7-4.806s2.328-2.403,2.328-4.806M147.066,299.602c1.668,1.668-.192,3.529,1.476,5.197s1.635,1.705,3.305,3.375,2.763.573,4.431,2.241c1.67,1.67,1.421,1.92,3.091,3.59s2.522.816,4.191,2.485.679,2.663,2.349,4.334,1.628,1.711,3.298,3.381,1.482,1.859,3.152,3.53c1.671,1.671,3.508-.165,5.179,1.506,1.671,1.671-.462,3.804,1.21,5.475,1.669,1.669,3.31.029,4.979,1.698s.332,3.011,2.003,4.682,2.544.799,4.215,2.471.852,2.492,2.524,4.163c1.675,1.675,3.402-.053,5.077,1.622s-.203,3.271,2.165,3.255c2.391-.016,2.368.243,4.053-1.454s1.484-1.901,3.171-3.599c1.686-1.697.851-2.526,2.536-4.223,1.688-1.699,1.147-2.236,2.834-3.935,1.687-1.698,1.851-1.535,3.537-3.232s1.196-2.188,2.884-3.888,1.82-1.566,3.507-3.264c1.688-1.699,3.368-.03,5.056-1.729,1.689-1.7.128-3.251,1.816-4.95s3.181-.217,4.87-1.917,2.51-.88,4.197-2.578c1.689-1.7.446-2.934,2.135-4.634,1.689-1.7,2.842-.555,4.531-2.254,1.689-1.7.807-2.577,2.496-4.277s.486-2.901,2.179-4.604c1.692-1.703,3.344-.062,5.036-1.765M46.202,198.932c2.396,0,2.396,2.631,4.792,2.631s2.397.05,4.794.05,2.399-1.548,4.797-1.548,2.397.353,4.794.353,2.397-1.206,4.793-1.206,2.398,1.403,4.795,1.403,2.398.059,4.797.059,2.397.267,4.794.267,2.398-2.597,4.795-2.597,2.399,3.016,4.797,3.016,2.398-2.32,4.795-2.32,2.399,1.894,4.797,1.894,2.398-1.233,4.796-1.233,2.399,1.159,4.797,1.159,2.398-2.443,4.797-2.443,2.399.393,4.798.393,2.398,2.22,4.797,2.22,2.399-.287,4.798-.287,2.399-1.177,4.799-1.177,2.399-.763,4.798-.763,2.397.231,4.794.231,2.399-.694,4.798-.694,2.398.188,4.795.188,2.399,2.368,4.798,2.368,2.4-2.201,4.8-2.201,2.4,2.104,4.8,2.104,2.4,1.16,4.8,1.16,2.399-1.752,4.798-1.752,2.4,1.625,4.799,1.625,2.402-1.244,4.803-1.244,2.403-1.7,4.806-1.7,2.403,2.328,4.806,2.328M100.477,147.424c-1.668,1.668-3.529-.192-5.197,1.476-1.67,1.67-1.705,1.635-3.375,3.305-1.668,1.668-.573,2.763-2.241,4.431s-1.92,1.421-3.59,3.091c-1.669,1.669-.816,2.522-2.485,4.191s-2.663.679-4.334,2.349-1.711,1.628-3.381,3.298-1.859,1.482-3.53,3.152c-1.671,1.671.165,3.508-1.506,5.179-1.671,1.671-3.804-.462-5.475,1.21-1.669,1.669-.029,3.31-1.698,4.979-1.671,1.671-3.011.332-4.682,2.003s-.799,2.544-2.471,4.215-2.492.852-4.163,2.524c-1.675,1.675.053,3.402-1.622,5.077s-3.271-.203-3.255,2.165c.016,2.391-.243,2.368,1.454,4.053s1.901,1.484,3.599,3.171,2.526.851,4.223,2.536c1.699,1.688,2.236,1.147,3.935,2.834s1.535,1.851,3.232,3.537,2.188,1.196,3.888,2.884,1.566,1.82,3.264,3.507c1.699,1.688.03,3.368,1.729,5.056,1.7,1.689,3.251.128,4.95,1.816s.217,3.181,1.917,4.87c1.698,1.687.88,2.51,2.578,4.197s2.934.446,4.634,2.135c1.7,1.689.555,2.842,2.254,4.531,1.7,1.689,2.577.807,4.277,2.496s2.901.486,4.604,2.179c1.703,1.692.062,3.344,1.765,5.036" style="fill: none; stroke: #000; stroke-linecap: round; stroke-linejoin: round; stroke-width: 40px;"/>
</svg>