<?xml version="1.0" encoding="UTF-8"?>
<svg id="SM_Icons" data-name="SM Icons" xmlns="http://www.w3.org/2000/svg" width="200" height="200" viewBox="0 0 200 200">
  <polygon points="99.997 24.754 102.331 38.726 105.218 50.087 109.286 61.06 114.108 71.796 118.695 81.956 129.766 81.339 141.463 80.495 153.156 80.335 164.857 84.751 174.937 83.34 167.002 89.552 159.075 98.541 147.629 102.68 138.485 110.002 130.235 117.511 135.129 127.57 137.233 139.185 141.554 150.077 144.63 161.381 146.337 171.467 138.586 164.933 127.837 159.829 119.492 151.42 108.232 147.012 100 139.821 91.281 146.327 79.61 150.163 70.697 157.789 60.829 164.114 53.689 171.425 55.375 161.391 61.57 151.105 61.667 138.842 68.409 128.729 69.243 117.68 60.25 111.758 51.77 103.529 41.696 97.502 31.858 91.135 25.342 83.427 35.135 84.657 46.831 84.408 58.525 83.642 70.226 83.402 81.186 81.791 86.154 71.89 88.525 60.362 94.321 49.95 98.16 38.837 99.997 24.754" style="fill: #fff;"/>
  <polygon points="99.997 24.754 102.331 38.726 105.218 50.087 109.286 61.06 114.108 71.796 118.695 81.956 129.766 81.339 141.463 80.495 153.156 80.335 164.857 84.751 174.937 83.34 167.002 89.552 159.075 98.541 147.629 102.68 138.485 110.002 130.235 117.511 135.129 127.57 137.233 139.185 141.554 150.077 144.63 161.381 146.337 171.467 138.586 164.933 127.837 159.829 119.492 151.42 108.232 147.012 100 139.821 91.281 146.327 79.61 150.163 70.697 157.789 60.829 164.114 53.689 171.425 55.375 161.391 61.57 151.105 61.667 138.842 68.409 128.729 69.243 117.68 60.25 111.758 51.77 103.529 41.696 97.502 31.858 91.135 25.342 83.427 35.135 84.657 46.831 84.408 58.525 83.642 70.226 83.402 81.186 81.791 86.154 71.89 88.525 60.362 94.321 49.95 98.16 38.837 99.997 24.754" style="fill: none; stroke: #000; stroke-linecap: round; stroke-linejoin: round; stroke-width: 23px;"/>
</svg>