<?xml version="1.0" encoding="UTF-8"?>
<svg xmlns="http://www.w3.org/2000/svg" width="200" height="200" viewBox="0 0 200 200">
  <g id="SM_Icons" data-name="SM Icons">
    <g>
      <g>
        <polygon points="52.528 167.267 49.249 157.511 51.457 146.204 49.636 134.9 51.459 123.594 49.947 112.283 49.994 100.976 49.38 89.661 52.75 76.796 41.957 77.075 41.686 66.437 42.684 54.52 39.571 41.682 52.023 41.319 63.531 44.453 73.717 40.859 80.361 32.865 93.006 29.874 106.984 29.206 121.095 30.64 124.205 43.6 136.461 40.766 147.969 44.387 159.59 42.492 159.574 54.511 159.332 66.429 161.291 79.956 150.099 79.452 149.778 89.696 148.438 101.046 151.349 112.391 150.711 123.74 146.526 135.093 149.314 146.442 151.359 157.799 147.858 168.019 136.678 171.221 124.462 168.42 112.245 166.812 100.019 166.898 87.789 167.17 75.549 171.312 63.429 167.37 52.528 167.267" style="fill: #fff;"/>
        <polygon points="52.528 167.267 49.249 157.511 51.457 146.204 49.636 134.9 51.459 123.594 49.947 112.283 49.994 100.976 49.38 89.661 52.75 76.796 41.957 77.075 41.686 66.437 42.684 54.52 39.571 41.682 52.023 41.319 63.531 44.453 73.717 40.859 80.361 32.865 93.006 29.874 106.984 29.206 121.095 30.64 124.205 43.6 136.461 40.766 147.969 44.387 159.59 42.492 159.574 54.511 159.332 66.429 161.291 79.956 150.099 79.452 149.778 89.696 148.438 101.046 151.349 112.391 150.711 123.74 146.526 135.093 149.314 146.442 151.359 157.799 147.858 168.019 136.678 171.221 124.462 168.42 112.245 166.812 100.019 166.898 87.789 167.17 75.549 171.312 63.429 167.37 52.528 167.267" style="fill: none; stroke: #000; stroke-linecap: round; stroke-linejoin: round; stroke-width: 25px;"/>
      </g>
      <path d="M119.063,93.971l-9.018,10.031-9.734,9.302-8.405,10.656-12.718,6.304M81.531,93.542l9.764,9.228,9.017,9.926,10.405,8.631,5.946,12.833" style="fill: none; stroke: #000; stroke-linecap: round; stroke-linejoin: round; stroke-width: 20px;"/>
    </g>
  </g>
  <g id="Dimensions">
    <g id="Manual_Dimension" data-name="Manual Dimension">
      <line x1="199.949" y1="200" x2="200.051" y2="245.039" style="fill: none; stroke: #1d1d1b; stroke-miterlimit: 10; stroke-width: .5px;"/>
    </g>
  </g>
</svg>