<?xml version="1.0" encoding="UTF-8"?>
<svg id="Sticker" xmlns="http://www.w3.org/2000/svg" width="500" height="500" viewBox="0 0 500 500">
  <g>
    <polyline points="232.312 167.799 233.86 163.932 231.649 160.67 231.108 157.138 232.346 153.32 237.919 148.808 230.924 146.311 229.613 142.902 233.191 138.709 231.723 135.326 233.798 131.373 229.716 128.412 229.229 124.871 228.689 121.342 230.038 117.506 232.385 113.512 230.314 110.223 224.718 107.502 230.06 103.024 225.373 100.154 228.939 95.96 221.96 93.461 223.76 89.55 221.058 86.361 226.254 81.904 218.295 79.552 223.484 78.662 224.479 77.38 229.555 75.879 230.036 82.484 233.061 84.6 235.289 88.118 242.94 82.058 245.585 84.84 248.689 86.817 252.226 88.025 254.262 91.888 257.145 94.253 257.771 100.607 261.309 101.819 267.596 98.183 267.656 105.538 272.183 105.013 277.299 103.438 279.799 106.488 282.068 109.947 285.324 111.666 289.161 112.371 291.845 114.107 296.549 118.191 298.213 112.2 301.284 110.163 303.946 106.978 310.101 113.637 311.871 107.951 314.501 104.673 317.087 101.283 323.017 107.289 325.925 104.798 328.731 102.01 332.208 101.117 334.824 97.797 338.082 96.276 342.049 96.751 344.331 92.498 350.596 99.44 352.546 94.239 356.826 95.59 358.396 89.303 361.142 91.752 366.247 94.404 358.313 97.028 361.841 101.241 359.808 104.685 357.035 108.025 359.822 112.14 357.113 115.49 355.507 118.995 355.849 122.771 353.113 126.121 359.636 130.756 357.546 134.195 352.131 137.171 360.142 142.014 356.097 145.188 357.201 147.347 356.856 151.676 361.179 151.607 364.163 153.76 369.137 152.611 368.032 161.557 375.675 155.974 375.615 163.182 381.613 160.319 383.091 164.97 386.831 165.871 386.643 173.289 394.282 167.715 394.123 175.089 399.685 172.967 403.786 173.267 403.643 180.622 407.008 182.151 411.288 182.161 413.849 185.018 417.52 186.039 420.385 188.399 421.707 193.325 426.857 191.905 430.461 194.13 427.9 198.683 423.52 197.452 421.66 202.188 416.327 198.706 412.813 199.526 410.157 202.378 407.297 204.75 404.936 208.302 400.121 206.047 395.983 205.393 391.84 204.729 388.976 207.09 388.648 215.442 384.904 215.714 379.444 211.933 378.781 219.497 374.864 219.37 370.383 217.904 368.04 221.506 365.98 225.77 362.795 227.38 358.167 225.575 355.351 228.06 353.085 231.837 349.701 232.978 344.292 229.326 342.588 234.446 337.615 231.844 333.835 232.065" style="fill: #fff;"/>
    <polyline points="232.312 167.799 233.86 163.932 231.649 160.67 231.108 157.138 232.346 153.32 237.919 148.808 230.924 146.311 229.613 142.902 233.191 138.709 231.723 135.326 233.798 131.373 229.716 128.412 229.229 124.871 228.689 121.342 230.038 117.506 232.385 113.512 230.314 110.223 224.718 107.502 230.06 103.024 225.373 100.154 228.939 95.96 221.96 93.461 223.76 89.55 221.058 86.361 226.254 81.904 218.295 79.552 223.484 78.662 224.479 77.38 229.555 75.879 230.036 82.484 233.061 84.6 235.289 88.118 242.94 82.058 245.585 84.84 248.689 86.817 252.226 88.025 254.262 91.888 257.145 94.253 257.771 100.607 261.309 101.819 267.596 98.183 267.656 105.538 272.183 105.013 277.299 103.438 279.799 106.488 282.068 109.947 285.324 111.666 289.161 112.371 291.845 114.107 296.549 118.191 298.213 112.2 301.284 110.163 303.946 106.978 310.101 113.637 311.871 107.951 314.501 104.673 317.087 101.283 323.017 107.289 325.925 104.798 328.731 102.01 332.208 101.117 334.824 97.797 338.082 96.276 342.049 96.751 344.331 92.498 350.596 99.44 352.546 94.239 356.826 95.59 358.396 89.303 361.142 91.752 366.247 94.404 358.313 97.028 361.841 101.241 359.808 104.685 357.035 108.025 359.822 112.14 357.113 115.49 355.507 118.995 355.849 122.771 353.113 126.121 359.636 130.756 357.546 134.195 352.131 137.171 360.142 142.014 356.097 145.188 357.201 147.347 356.856 151.676 361.179 151.607 364.163 153.76 369.137 152.611 368.032 161.557 375.675 155.974 375.615 163.182 381.613 160.319 383.091 164.97 386.831 165.871 386.643 173.289 394.282 167.715 394.123 175.089 399.685 172.967 403.786 173.267 403.643 180.622 407.008 182.151 411.288 182.161 413.849 185.018 417.52 186.039 420.385 188.399 421.707 193.325 426.857 191.905 430.461 194.13 427.9 198.683 423.52 197.452 421.66 202.188 416.327 198.706 412.813 199.526 410.157 202.378 407.297 204.75 404.936 208.302 400.121 206.047 395.983 205.393 391.84 204.729 388.976 207.09 388.648 215.442 384.904 215.714 379.444 211.933 378.781 219.497 374.864 219.37 370.383 217.904 368.04 221.506 365.98 225.77 362.795 227.38 358.167 225.575 355.351 228.06 353.085 231.837 349.701 232.978 344.292 229.326 342.588 234.446 337.615 231.844 333.835 232.065" style="fill: none; stroke: #000; stroke-linecap: round; stroke-linejoin: round; stroke-width: 40px;"/>
  </g>
  <g>
    <polygon points="135.584 424.858 138.357 420.286 138.35 416.645 131.799 414.523 134.193 410.305 127.296 408.106 129.64 403.929 134.161 399.386 126.411 397.201 127.878 393.27 131.084 389.081 128.269 385.917 128.143 382.308 129.779 378.455 129.723 374.864 128.275 371.458 125.507 368.19 123.892 364.755 126.108 360.917 119.401 357.932 120.747 354.176 125.44 350.208 126.336 346.57 127.993 342.915 122.738 339.592 122.941 335.989 126.277 332.323 123.068 328.805 117.609 325.218 125.477 321.654 122.82 318.033 118.344 314.284 121.9 310.798 127.755 307.535 122.123 303.581 122.053 299.95 125.671 296.68 125.896 293.113 129.292 289.956 124.711 285.721 127.613 282.543 122.554 278.007 129.536 275.659 130.984 272.341 129.337 268.317 134.208 265.875 134.717 262.387 127.262 256.476 131.072 253.838 131.681 250.206 136.487 248.126 137.812 244.829 135.704 240.038 140.691 238.339 138.501 233.279 138.465 229.107 143.775 227.863 142.799 223.039 148.178 222.137 148.581 218.048 148.078 213.118 152.516 211.87 157.116 210.993 162.392 211.004 161.067 204.891 161.642 200.258 169.005 202.995 171.94 201.114 173.72 197.776 177.157 196.574 177.261 190.462 179.909 187.832 183.092 186.027 188.772 188.973 190.588 184.738 192.918 181.182 197.1 181.765 199.155 177.041 203.853 179.377 206.658 176.334 210.706 177.283 214.948 179.325 218.595 179.401 221.916 178.182 224.061 170.957 227.498 169.407 230.995 167.942 235.335 172.701 238.573 169.25 242.017 166.376 245.758 166.636 249.556 170.823 253.13 172.369 256.931 166.156 260.369 170.4 264.054 169.912 266.806 176.384 271.244 171.024 274.82 171.698 277.42 176.189 282.48 171.473 284.717 176.437 289.917 172.894 290.417 181.194 296.842 175.89 297.733 182.217 301.34 183.11 303.048 187.107 308.812 184.995 309.075 190.749 314.076 190.225 316.775 192.694 317.899 196.8 317.745 201.927 319.964 204.561 327.972 202.279 331.067 204.529 328.923 210.758 329.13 214.94 334.452 215.607 335.638 219.103 336.975 222.459 337.289 226.347 345.586 226.024 346.939 229.483 344.433 234.693 346.314 237.791 343.091 242.988 349.262 244.372 351.952 247.236 348.624 252.191 356.459 253.429 351.193 258.811 350.618 262.649 352.035 265.92 357.586 268.239 360.753 271.262 361.337 274.884 355.219 279.659 360.77 282.389 357.749 289.694 363.022 289.823 360.521 293.439 355.635 296.588 363.487 301.202 361.299 304.636 361.722 308.523 355.716 310.851 354.464 314.192 359.102 319.459 350.533 320.301 350.589 324.088 354.337 329.624 352.428 332.83 343.962 332.574 345.996 337.7 348.054 343.158 341.71 343.485 339.877 346.564 336.598 348.592 334.671 351.577 333.325 355.075 327.703 354.88 327.103 359.058 329.089 365.984 324.472 366.507 323.917 371.273 318.592 370.764 313.018 369.646 314.938 377.765 308.176 374.832 304.566 375.831 305.234 383.044 300.864 382.977 299.207 387.107 293.703 384.929 290.793 386.978 290.95 394.744 285.188 391.591 281.623 392.448 280.295 397.977 276.226 397.803 273.135 399.735 270.586 403.023 264.548 397.669 262.187 401.411 258.833 402.64 254.361 400.649 253.979 410.693 249.87 409.82 244.552 404.776 242.532 410.533 238.79 410.528 235.405 411.777 231.177 409.726 229.181 416.645 224.625 413.03 220.446 410.696 217.676 414.809 213.833 413.868 211.527 420.914 207.813 420.773 203.453 416.741 200.857 423.177 196.236 416.94 193.419 422.497 190.003 424.226 186.419 424.779 181.984 418.182 178.327 417.599 174.783 417.977 171.416 420.214 168.343 426.044 164.527 423.801 160.762 421.795 157.519 426.863 153.882 426.661 150.37 428.58 146.682 427.455 143.028 426.674 139.389 426.108 135.584 424.858" style="fill: #fff;"/>
    <polygon points="135.584 424.858 138.357 420.286 138.35 416.645 131.799 414.523 134.193 410.305 127.296 408.106 129.64 403.929 134.161 399.386 126.411 397.201 127.878 393.27 131.084 389.081 128.269 385.917 128.143 382.308 129.779 378.455 129.723 374.864 128.275 371.458 125.507 368.19 123.892 364.755 126.108 360.917 119.401 357.932 120.747 354.176 125.44 350.208 126.336 346.57 127.993 342.915 122.738 339.592 122.941 335.989 126.277 332.323 123.068 328.805 117.609 325.218 125.477 321.654 122.82 318.033 118.344 314.284 121.9 310.798 127.755 307.535 122.123 303.581 122.053 299.95 125.671 296.68 125.896 293.113 129.292 289.956 124.711 285.721 127.613 282.543 122.554 278.007 129.536 275.659 130.984 272.341 129.337 268.317 134.208 265.875 134.717 262.387 127.262 256.476 131.072 253.838 131.681 250.206 136.487 248.126 137.812 244.829 135.704 240.038 140.691 238.339 138.501 233.279 138.465 229.107 143.775 227.863 142.799 223.039 148.178 222.137 148.581 218.048 148.078 213.118 152.516 211.87 157.116 210.993 162.392 211.004 161.067 204.891 161.642 200.258 169.005 202.995 171.94 201.114 173.72 197.776 177.157 196.574 177.261 190.462 179.909 187.832 183.092 186.027 188.772 188.973 190.588 184.738 192.918 181.182 197.1 181.765 199.155 177.041 203.853 179.377 206.658 176.334 210.706 177.283 214.948 179.325 218.595 179.401 221.916 178.182 224.061 170.957 227.498 169.407 230.995 167.942 235.335 172.701 238.573 169.25 242.017 166.376 245.758 166.636 249.556 170.823 253.13 172.369 256.931 166.156 260.369 170.4 264.054 169.912 266.806 176.384 271.244 171.024 274.82 171.698 277.42 176.189 282.48 171.473 284.717 176.437 289.917 172.894 290.417 181.194 296.842 175.89 297.733 182.217 301.34 183.11 303.048 187.107 308.812 184.995 309.075 190.749 314.076 190.225 316.775 192.694 317.899 196.8 317.745 201.927 319.964 204.561 327.972 202.279 331.067 204.529 328.923 210.758 329.13 214.94 334.452 215.607 335.638 219.103 336.975 222.459 337.289 226.347 345.586 226.024 346.939 229.483 344.433 234.693 346.314 237.791 343.091 242.988 349.262 244.372 351.952 247.236 348.624 252.191 356.459 253.429 351.193 258.811 350.618 262.649 352.035 265.92 357.586 268.239 360.753 271.262 361.337 274.884 355.219 279.659 360.77 282.389 357.749 289.694 363.022 289.823 360.521 293.439 355.635 296.588 363.487 301.202 361.299 304.636 361.722 308.523 355.716 310.851 354.464 314.192 359.102 319.459 350.533 320.301 350.589 324.088 354.337 329.624 352.428 332.83 343.962 332.574 345.996 337.7 348.054 343.158 341.71 343.485 339.877 346.564 336.598 348.592 334.671 351.577 333.325 355.075 327.703 354.88 327.103 359.058 329.089 365.984 324.472 366.507 323.917 371.273 318.592 370.764 313.018 369.646 314.938 377.765 308.176 374.832 304.566 375.831 305.234 383.044 300.864 382.977 299.207 387.107 293.703 384.929 290.793 386.978 290.95 394.744 285.188 391.591 281.623 392.448 280.295 397.977 276.226 397.803 273.135 399.735 270.586 403.023 264.548 397.669 262.187 401.411 258.833 402.64 254.361 400.649 253.979 410.693 249.87 409.82 244.552 404.776 242.532 410.533 238.79 410.528 235.405 411.777 231.177 409.726 229.181 416.645 224.625 413.03 220.446 410.696 217.676 414.809 213.833 413.868 211.527 420.914 207.813 420.773 203.453 416.741 200.857 423.177 196.236 416.94 193.419 422.497 190.003 424.226 186.419 424.779 181.984 418.182 178.327 417.599 174.783 417.977 171.416 420.214 168.343 426.044 164.527 423.801 160.762 421.795 157.519 426.863 153.882 426.661 150.37 428.58 146.682 427.455 143.028 426.674 139.389 426.108 135.584 424.858" style="fill: none; stroke: #000; stroke-linecap: round; stroke-linejoin: round; stroke-width: 40px;"/>
  </g>
  <polyline points="222.241 245.869 219.825 249.445 219.668 253.602 212.898 256.079" style="fill: none; stroke: #000; stroke-linecap: round; stroke-linejoin: round; stroke-width: 40px;"/>
  <polyline points="285.089 279.477 281.479 281.018 278.349 283.194" style="fill: none; stroke: #000; stroke-linecap: round; stroke-linejoin: round; stroke-width: 40px;"/>
  <polyline points="199.123 334.674 205.472 334.909 203.084 328.276 209.362 328.453 212.219 325.934 217.297 325.161" style="fill: none; stroke: #000; stroke-linecap: round; stroke-linejoin: round; stroke-width: 40px;"/>
</svg>