<?xml version="1.0" encoding="UTF-8"?>
<svg id="Sticker" xmlns="http://www.w3.org/2000/svg" width="500" height="500" viewBox="0 0 500 500">
  <g>
    <polygon points="159.133 413.149 162.819 406.571 158.222 404.392 155.533 401.547 155.487 397.78 157.677 393.231 155.831 390.091 155.862 386.295 146.76 385.69 153.986 379.384 149.545 377.155 150.449 373.06 145.781 370.912 149.829 365.719 143.01 364.321 145.395 359.707 137.864 358.553 144.427 352.475 139.305 350.48 141.7 345.861 132.369 345.338 132.541 341.497 139.222 335.382 128.903 335.203 131.468 330.522 128.229 327.867 125.889 324.9 126.826 320.79 125.885 317.336 126.89 313.201 125.258 309.984 125.338 306.17 119.694 304.357 117.338 301.396 124.916 294.964 116.485 294.12 115.411 290.71 118.894 285.708 120.06 281.514 116.076 279.118 118.09 274.629 109.788 273.742 106.935 270.95 114.206 264.624 108.577 262.802 105.061 260.243 103.68 256.937 106.687 252.099 101.276 250.207 99.259 247.128 103.904 241.717 99.681 239.407 94.933 237.277 94.269 233.722 99.559 228.085 97.847 224.894 97.908 221.083 97.599 217.4 87.878 217.004 91.113 212.087 93.101 207.601 84.845 206.693 85.67 202.612 88.074 197.973 86.23 195.391 88.579 193.408 91.166 190.917 89.845 185.173 96.782 186.294 99.62 184.01 95.917 176.284 103.741 178.147 104.523 174.15 101.888 167.312 111.812 170.921 113.825 167.947 113.402 162.949 113.462 158.35 117.317 156.918 122.895 156.912 119.839 149.724 120.958 146.013 127.312 146.655 126.891 141.655 128.05 137.974 129.526 134.552 131.849 131.837 139.241 133.335 139.75 129.109 140.601 125.165 142.981 122.492 150.636 124.207 146.584 116.188 152.476 116.436 153.432 112.578 155.637 109.757 157.791 106.886 159.862 103.11 164.003 101.45 167.748 105.51 171.32 105.553 174.655 100.12 178.548 107.508 181.922 103.045 185.622 106.071 188.939 100.344 192.649 103.586 196.111 101.127 199.954 107.335 203.395 104.319 206.857 101.863 210.366 100.468 214.093 104.094 217.764 106.408 221.232 103.992 224.922 106.7 228.056 96.679 231.992 105.066 235.235 97.527 238.756 96.307 242.378 97.452 245.927 96.945 249.65 100.411 253.03 95.948 256.707 98.364 260.266 98.056 263.854 98.356 267.34 96.375 271.147 101.716 274.668 100.523 277.984 94.603 281.645 96.586 285.43 101.414 288.861 98.236 292.377 96.903 296.054 99.35 299.519 96.834 303.226 99.924 306.865 101.362 310.116 93.971 313.802 96.517 317.23 93.096 321.012 97.802 324.562 97.198 327.995 93.905 331.715 97.203 335.255 96.338 338.925 98.339 344.422 92.699 341.752 101.31 343.304 104.55 345.623 107.29 346.228 111.155 354.929 109.696 356.827 112.709 355.789 117.653 354.256 122.925 360.209 123.275 360.116 127.597 367.538 126.982 364.422 133.294 365.817 136.639 369.006 138.806 372.283 140.918 370.813 146.146 377.957 145.716 373.567 152.865 380.262 152.729 380.97 156.526 387.389 156.564 382.031 164.346 383.369 167.732 389.939 167.675 390.852 171.341 390.352 175.933 396.823 175.947 396.542 180.396 398.43 183.422 402.901 184.752 399.156 191.482 405.641 191.484 407.329 194.643 408.566 198.099 412.162 200.006 414.67 202.634 419.286 206.336 409.026 208.354 407.995 211.804 410.234 216.539 414.237 221.969 404.303 221.918 405.953 226.423 402.264 228.825 400.077 231.816 404.154 237.27 404.094 241.096 400.487 243.528 401.296 247.697 393.751 248.581 398.494 254.302 391.514 255.414 390.684 258.943 389.048 262.153 393.501 267.757 390.387 270.384 386.931 272.877 383.241 275.28 383.702 279.319 389.002 285.261 380.943 285.946 380.432 289.599 383.225 294.551 375.103 295.212 376.032 299.435 372.667 301.969 371.249 305.267 373.235 309.903 375.79 314.765 372.203 317.214 371.528 320.805 370.715 324.342 363.081 325.197 364.418 329.581 367.24 334.548 359.203 335.245 364.603 341.229 358.449 342.666 362.076 347.952 354.928 348.999 355.887 353.236 354.389 356.505 354.035 360.219 348.989 362.089 352.516 367.336 348.308 369.537 346.66 372.749 348.54 377.346 349.314 381.512 342.794 382.807 341.041 385.978 339.351 389.177 341.674 393.953 335.458 395.366 340.268 401.121 339.841 404.816 332.702 405.872 336.785 411.349 335.87 417.582 329.821 412.124 326.249 410.427 322.523 418.542 318.991 414.52 315.335 418.327 311.878 409.555 308.18 415.872 304.632 412.572 301.089 408.906 297.42 413.376 293.77 416.656 290.247 411.979 286.696 408.984 283.069 410.579 279.365 417.102 275.86 411.158 272.248 412.001 268.712 408.005 265.031 412.928 261.512 407.816 257.772 416.636 254.199 414.865 250.68 409.617 247.056 411.137 243.445 411.724 239.907 407.664 236.246 411.438 232.669 409.847 229.033 411.964 225.424 412.408 221.788 414.561 218.174 415.212 214.623 412.251 210.966 415.673 207.385 414.549 203.806 413.055 200.199 413.429 196.632 411.073 192.991 413.572 189.383 413.82 185.882 407.281 182.19 412.702 178.665 407.632 174.948 414.783 171.362 413.568 167.779 412.115 163.739 409.172 159.133 413.149" style="fill: #fff;"/>
    <polygon points="159.133 413.149 162.819 406.571 158.222 404.392 155.533 401.547 155.487 397.78 157.677 393.231 155.831 390.091 155.862 386.295 146.76 385.69 153.986 379.384 149.545 377.155 150.449 373.06 145.781 370.912 149.829 365.719 143.01 364.321 145.395 359.707 137.864 358.553 144.427 352.475 139.305 350.48 141.7 345.861 132.369 345.338 132.541 341.497 139.222 335.382 128.903 335.203 131.468 330.522 128.229 327.867 125.889 324.9 126.826 320.79 125.885 317.336 126.89 313.201 125.258 309.984 125.338 306.17 119.694 304.357 117.338 301.396 124.916 294.964 116.485 294.12 115.411 290.71 118.894 285.708 120.06 281.514 116.076 279.118 118.09 274.629 109.788 273.742 106.935 270.95 114.206 264.624 108.577 262.802 105.061 260.243 103.68 256.937 106.687 252.099 101.276 250.207 99.259 247.128 103.904 241.717 99.681 239.407 94.933 237.277 94.269 233.722 99.559 228.085 97.847 224.894 97.908 221.083 97.599 217.4 87.878 217.004 91.113 212.087 93.101 207.601 84.845 206.693 85.67 202.612 88.074 197.973 86.23 195.391 88.579 193.408 91.166 190.917 89.845 185.173 96.782 186.294 99.62 184.01 95.917 176.284 103.741 178.147 104.523 174.15 101.888 167.312 111.812 170.921 113.825 167.947 113.402 162.949 113.462 158.35 117.317 156.918 122.895 156.912 119.839 149.724 120.958 146.013 127.312 146.655 126.891 141.655 128.05 137.974 129.526 134.552 131.849 131.837 139.241 133.335 139.75 129.109 140.601 125.165 142.981 122.492 150.636 124.207 146.584 116.188 152.476 116.436 153.432 112.578 155.637 109.757 157.791 106.886 159.862 103.11 164.003 101.45 167.748 105.51 171.32 105.553 174.655 100.12 178.548 107.508 181.922 103.045 185.622 106.071 188.939 100.344 192.649 103.586 196.111 101.127 199.954 107.335 203.395 104.319 206.857 101.863 210.366 100.468 214.093 104.094 217.764 106.408 221.232 103.992 224.922 106.7 228.056 96.679 231.992 105.066 235.235 97.527 238.756 96.307 242.378 97.452 245.927 96.945 249.65 100.411 253.03 95.948 256.707 98.364 260.266 98.056 263.854 98.356 267.34 96.375 271.147 101.716 274.668 100.523 277.984 94.603 281.645 96.586 285.43 101.414 288.861 98.236 292.377 96.903 296.054 99.35 299.519 96.834 303.226 99.924 306.865 101.362 310.116 93.971 313.802 96.517 317.23 93.096 321.012 97.802 324.562 97.198 327.995 93.905 331.715 97.203 335.255 96.338 338.925 98.339 344.422 92.699 341.752 101.31 343.304 104.55 345.623 107.29 346.228 111.155 354.929 109.696 356.827 112.709 355.789 117.653 354.256 122.925 360.209 123.275 360.116 127.597 367.538 126.982 364.422 133.294 365.817 136.639 369.006 138.806 372.283 140.918 370.813 146.146 377.957 145.716 373.567 152.865 380.262 152.729 380.97 156.526 387.389 156.564 382.031 164.346 383.369 167.732 389.939 167.675 390.852 171.341 390.352 175.933 396.823 175.947 396.542 180.396 398.43 183.422 402.901 184.752 399.156 191.482 405.641 191.484 407.329 194.643 408.566 198.099 412.162 200.006 414.67 202.634 419.286 206.336 409.026 208.354 407.995 211.804 410.234 216.539 414.237 221.969 404.303 221.918 405.953 226.423 402.264 228.825 400.077 231.816 404.154 237.27 404.094 241.096 400.487 243.528 401.296 247.697 393.751 248.581 398.494 254.302 391.514 255.414 390.684 258.943 389.048 262.153 393.501 267.757 390.387 270.384 386.931 272.877 383.241 275.28 383.702 279.319 389.002 285.261 380.943 285.946 380.432 289.599 383.225 294.551 375.103 295.212 376.032 299.435 372.667 301.969 371.249 305.267 373.235 309.903 375.79 314.765 372.203 317.214 371.528 320.805 370.715 324.342 363.081 325.197 364.418 329.581 367.24 334.548 359.203 335.245 364.603 341.229 358.449 342.666 362.076 347.952 354.928 348.999 355.887 353.236 354.389 356.505 354.035 360.219 348.989 362.089 352.516 367.336 348.308 369.537 346.66 372.749 348.54 377.346 349.314 381.512 342.794 382.807 341.041 385.978 339.351 389.177 341.674 393.953 335.458 395.366 340.268 401.121 339.841 404.816 332.702 405.872 336.785 411.349 335.87 417.582 329.821 412.124 326.249 410.427 322.523 418.542 318.991 414.52 315.335 418.327 311.878 409.555 308.18 415.872 304.632 412.572 301.089 408.906 297.42 413.376 293.77 416.656 290.247 411.979 286.696 408.984 283.069 410.579 279.365 417.102 275.86 411.158 272.248 412.001 268.712 408.005 265.031 412.928 261.512 407.816 257.772 416.636 254.199 414.865 250.68 409.617 247.056 411.137 243.445 411.724 239.907 407.664 236.246 411.438 232.669 409.847 229.033 411.964 225.424 412.408 221.788 414.561 218.174 415.212 214.623 412.251 210.966 415.673 207.385 414.549 203.806 413.055 200.199 413.429 196.632 411.073 192.991 413.572 189.383 413.82 185.882 407.281 182.19 412.702 178.665 407.632 174.948 414.783 171.362 413.568 167.779 412.115 163.739 409.172 159.133 413.149" style="fill: none; stroke: #000; stroke-linecap: round; stroke-linejoin: round; stroke-width: 40px;"/>
  </g>
  <path d="M158.657,105.651l5.667.451-3.298,6.634,4.711,1.109-.517,4.718,5.898.29,5.011.904,1.84,3.091-2.609,6.161,5.108.833,3.648,1.837-5.028,7.826,9.623-2.277-5.481,8.138,8.416-1.444-1.485,5.384-.034,4.387,5.981.235-.179,4.487,6.309.012,2.592,2.577-.077,4.414,1.814,3.113,4.052,1.57-3.375,6.696,7.152-.56-3.643,5.421,2.07,2.975,3.05,4.522-2.528,2.972-6.712,1.811-1.066,3.375,6.294,5.423-9.439,1.049,6.163,5.387-8.179,1.401,6.197,5.398.82,3.902-5.979,2.015-4.927,2.309,8,5.9-.47,3.543-9.918.923.542,3.829-.512,3.537-.284,3.606-4.073,3.696,6.059,3.59-2.014,4.013,1.078,3.427.919,3.457,6.224,2.445-1.48,3.911-1.391,3.894,2.923,3.074-4.44,4.479-.445,3.717,6.296,2.431,1.438,3.356.014,3.629-3.304,4.264,7.589,2.187-8.55,5.26,1.588,3.33,5.759,2.537-1.626,3.942,4.222,2.829-6.318,4.838,6.164,2.459-1.537,3.927,6.289,2.436-3.775,4.353,1.525,3.344-2.387,4.09.993,3.441,4.734,2.733-.278,3.683-3.051,4.215,7.138,2.273-5.146,4.616-.329,3.696,2.109,3.234,1.966,3.263-4.105,4.419,3.158,3.031,1.267,3.396,4.035,2.869,1.285,3.394,1.463,3.366.495,3.55M340.452,95.178l1.888,5.341-7.384-.372.899,4.732-4.51,1.402,2.127,5.488,1.209,4.924-2.072,2.904-6.673.067,1.31,4.988-.198,4.057-9.174-1.472,5.979,7.861-9.64-1.765,4.731,7.091-5.511.786-4.01,1.706,2.21,5.543-4.161,1.615,2.547,5.752-1.297,3.382-4.056,1.684-2.103,2.889.212,4.315-7.469-.422,3.414,6.288-7.269-.294.741,4.643,1.66,5.216-2.888,1.097-4.739,4.04.951,3.417,8.235,1.117-7.334,6.043,8.106,1.158-6.086,5.649,8.14,1.15,2.819,2.835-3.908,4.96-2.866,4.632,9.926.59,1.543,3.24-7.806,6.191,2.547,2.923,1.503,3.253,1.731,3.182-1.847,4.319,6.255,1.918-3.471,3.062-.387,3.605-.545,3.57,4.722,4.764-2.928,3.035-2.84,3.055,1.443,4.023-5.866,2.367-1.9,3.265,4.792,4.781-.031,3.692-1.445,3.371-4.739,2.623,6.076,5.071-9.948,1.446.117,3.727,4.259,4.662-3.073,3.001,2.732,4.317-7.733,1.949,4.661,4.753-2.985,3.023,4.785,4.783-5.208,2.52.054,3.712-3.83,2.832-.473,3.593,3.24,4.433-1.735,3.308-4.488,2.68,5.628,4.974-6.569,2.209-1.787,3.296.634,3.842.491,3.813-5.536,2.446,1.676,4.081-.203,3.657,2.545,4.279-.184,3.657-.01,3.7-.971,3.483-1.382,3.391-6.747,2.183,2.733,4.329M213.489,183.495l3.74-4.256,3.285,6.625,3.691-3.096,3.426,3.25,3.752-4.537,3.702-3.46,3.546.389,3.316,5.789,3.712-3.58,3.636-1.809,3.2,8.723,3.939-9.058,3.176,9.273,3.882-7.592,3.38,4.424,3.449,2.665,3.758-4.637,3.447,2.842,3.776-5.033,3.593-.521,3.458,2.717M83.942,196.98l5.334-1.923-.308,7.392,4.731-.931,1.44,4.502,5.479-2.165,4.923-1.241,2.925,2.053.124,6.676,4.983-1.344,4.066.172-1.396,9.188,7.824-6.034-1.679,9.66,7.064-4.779.835,5.509,1.746,4.003,5.533-2.248,1.653,4.152,5.733-2.591,3.396,1.273,1.721,4.047,2.907,2.081,4.318-.242-.358,7.476,6.268-3.458-.234,7.274,4.642-.774,5.204-1.699,2.205,3.253-.048,6.965,2.99,1.956,6.948-4.578-1.511,9.39,6.884-4.459.351,8.787,4.946-7.189,3.616-1.792,3.537,5.263,3.547,4.17,3.702-9.244,3.601-.453,3.488,9.35,3.613-1.505,3.601-.411,3.605-.65,3.56,3.104,3.66-5.364,3.565,2.771,3.602-.376,3.6-.214,3.664-5.615,3.568,2.228,3.573,2.137,3.62-2.254,3.537,5.241,3.582,1.175,3.665-5.687,3.606-.742,3.591.707,3.553,4.085,3.682-7.003,3.491,9.425,3.61-.895,3.66-5.141,3.573,2.376,3.648-3.576,4.555,7.042,1.638-6.953,4.178.404.587-6.707,5.207,2.437,2.777-2.38,4.57,1.176,3.018-1.895,1.303-5.295,3.603-.742,4.875,1.779.199-7.48,5.838,3.682,3.626-.694,2.509-2.91,2.574-2.78,5.361,2.737,2.024-3.863,2.89-2.142,1.622-4.659,2.887-2.162,2.803-2.32,3.251-1.442,3.439-1.065,5.921,3.842,1.537-4.833,2.45-3.031,3.713-.532,4.781,1.582,2.85-2.232,3.75-.459-.611-9.095,7.187,6.343,1.621-4.691,4.172.361" style="fill: none; stroke: #000; stroke-linecap: round; stroke-linejoin: round; stroke-width: 40px;"/>
</svg>