<?xml version="1.0" encoding="UTF-8"?>
<svg id="Sticker" xmlns="http://www.w3.org/2000/svg" width="500" height="500" viewBox="0 0 500 500">
  <polygon points="416.474 252.296 415.849 255.997 410.782 259.479 407.066 262.832 406.71 266.328 414.116 270.686 411.933 274.112 413.277 278.015 407.382 280.7 406.819 284.227 404.212 287.296 409.677 292.306 409.296 296.012 404.969 298.564 404.764 302.293 400.48 304.639 402.293 309.118 398.449 311.484 395.362 314.043 398.089 319.155 394.123 321.269 394.46 325.446 393.275 328.914 389.805 331.114 392.188 336.718 384.01 335.933 384.313 340.363 384.575 344.911 378.721 345.164 376.072 347.603 378.081 353.726 375.163 356.044 369.812 356.19 367.124 358.534 369.325 365.53 365.744 367.148 364.329 370.942 360.164 371.845 355.344 371.855 353.697 375.439 352.669 379.921 345.942 377.138 344.466 381.096 343.867 386.496 340.728 388.391 337.854 390.692 333.884 391.202 331.573 394.481 325.272 390.523 325.859 399.418 321.551 399.014 318.304 400.699 314.743 401.672 309.801 399.145 306.156 399.535 303.538 402.734 301.896 409.251 296.728 404.908 294.75 411.188 290.16 408.095 287.028 410.576 282.813 408.136 279.662 410.773 275.969 410.548 272.239 409.783 269.479 417.209 265.77 417.539 261.554 410.248 257.944 409.027 254.486 412.031 250.898 410.153 247.266 414.108 243.585 415.114 240.249 410.149 235.987 417.996 233.091 410.28 229.8 407.976 224.945 416.164 222.25 410.128 218.811 408.983 214.673 410.996 211.776 407.537 206.752 412.252 204.625 406.382 199.947 409.102 197.47 404.976 194.638 402.194 190.502 402.856 186.136 403.804 186.198 394.74 179.276 401.011 179.215 392.985 175.84 391.778 170.074 394.729 169.333 388.813 167.195 385.512 164.181 383.669 160.011 383.482 158.254 379.81 156.108 376.792 151.868 376.473 148.253 375.24 143.57 375.135 143.188 370.13 137.972 370.401 136.362 366.825 131.922 366.042 133.845 359.278 131.816 356.326 130.602 352.715 128.476 349.912 123.289 349.449 118.962 348.146 115.222 346.288 118.061 339.971 114.666 337.888 115.216 333.352 112.842 330.623 112.255 326.894 103.924 327.181 107.539 321.328 101.127 320.324 101.145 316.302 102.1 311.981 100.566 308.715 100.376 304.965 94.412 303.141 100.926 297.333 94.223 295.537 94.168 291.791 91.773 288.617 88.47 285.553 94.003 280.775 88.264 278.055 86.702 274.537 85.656 270.913 91.577 266.641 90.079 263.143 88.474 259.593 84.631 256.027 87.685 252.296 87.529 248.629 93.873 245.239 92.267 241.595 89.367 237.755 86.647 233.79 94.128 231.052 87.738 226.454 94.311 223.873 89.021 219.151 90.692 215.729 90.06 211.768 93.111 208.747 94.307 205.271 95.605 201.836 99.451 199.3 102.451 196.581 99.399 191.522 100.738 188.111 102.61 184.937 103.438 181.279 108.969 179.979 110.268 176.619 110.303 172.517 110.527 168.423 112.172 165.123 113.619 161.673 114.604 157.864 122.744 159.186 121.314 153.625 124.395 151.409 125.786 147.839 126.849 143.91 130.856 142.566 137.519 143.889 136.749 138.139 137.11 133.276 142.902 134.135 144.676 130.705 146.786 127.581 150.796 126.761 150.12 119.932 154.751 119.952 157.073 116.861 160.35 115.115 167.109 118.928 166.672 111.319 173.241 115.418 176.328 113.704 177.714 108.655 181.961 109.135 183.624 104.181 187.777 104.61 189.859 100.125 195.751 105.353 196.049 95.544 201.097 99.024 205.626 101.543 206.652 91.971 210.857 93.392 214.217 91.59 219.163 97.34 222.931 98.242 224.932 88.345 229.367 93.389 232.969 93.234 236.718 94.834 239.799 87.678 243.475 87.026 247.243 89.52 250.898 92.095 254.446 94.347 258.084 92.366 262.086 86.324 265.77 87.041 269.159 90.238 272.042 96.271 276.663 89.627 278.836 98.399 282.354 98.707 285.93 98.844 289.662 98.48 294.183 95.466 298.081 95.178 301.393 96.894 304.079 100.321 306.277 104.745 309.559 106.059 312.897 107.242 318.736 102.955 322.794 103.015 322.443 111.878 329.375 106.474 330.947 111.226 334.994 111.551 335.616 117.468 340.731 116.211 342.254 120.434 345.614 121.934 346.892 126.221 350.479 127.429 354.036 128.761 355.182 132.936 361.276 131.544 362.018 136.079 362.924 140.276 366.402 141.87 371.777 141.814 370.966 147.405 371.601 151.537 378.598 150.465 378.87 154.867 383.757 155.774 382.185 161.35 387.643 162.036 383.469 169.008 390.31 169.006 389.98 173.385 389.264 177.847 394.576 179.093 398.685 181.127 397.959 185.5 402.651 187.434 404.747 190.583 398.291 196.98 405.915 198.054 406.801 201.64 407.254 205.344 406.271 209.413 403.641 213.802 410.885 215.778 409.853 219.746 411.318 223.181 414.78 226.34 412.656 230.382 407.593 234.631 411.303 237.854 415.447 241.201 412.251 245.046 412.202 248.674 416.474 252.296" style="fill: #fff;"/>
  <polygon points="416.474 252.296 415.849 255.997 410.782 259.479 407.066 262.832 406.71 266.328 414.116 270.686 411.933 274.112 413.277 278.015 407.382 280.7 406.819 284.227 404.212 287.296 409.677 292.306 409.296 296.012 404.969 298.564 404.764 302.293 400.48 304.639 402.293 309.118 398.449 311.484 395.362 314.043 398.089 319.155 394.123 321.269 394.46 325.446 393.275 328.914 389.805 331.114 392.188 336.718 384.01 335.933 384.313 340.363 384.575 344.911 378.721 345.164 376.072 347.603 378.081 353.726 375.163 356.044 369.812 356.19 367.124 358.534 369.325 365.53 365.744 367.148 364.329 370.942 360.164 371.845 355.344 371.855 353.697 375.439 352.669 379.921 345.942 377.138 344.466 381.096 343.867 386.496 340.728 388.391 337.854 390.692 333.884 391.202 331.573 394.481 325.272 390.523 325.859 399.418 321.551 399.014 318.304 400.699 314.743 401.672 309.801 399.145 306.156 399.535 303.538 402.734 301.896 409.251 296.728 404.908 294.75 411.188 290.16 408.095 287.028 410.576 282.813 408.136 279.662 410.773 275.969 410.548 272.239 409.783 269.479 417.209 265.77 417.539 261.554 410.248 257.944 409.027 254.486 412.031 250.898 410.153 247.266 414.108 243.585 415.114 240.249 410.149 235.987 417.996 233.091 410.28 229.8 407.976 224.945 416.164 222.25 410.128 218.811 408.983 214.673 410.996 211.776 407.537 206.752 412.252 204.625 406.382 199.947 409.102 197.47 404.976 194.638 402.194 190.502 402.856 186.136 403.804 186.198 394.74 179.276 401.011 179.215 392.985 175.84 391.778 170.074 394.729 169.333 388.813 167.195 385.512 164.181 383.669 160.011 383.482 158.254 379.81 156.108 376.792 151.868 376.473 148.253 375.24 143.57 375.135 143.188 370.13 137.972 370.401 136.362 366.825 131.922 366.042 133.845 359.278 131.816 356.326 130.602 352.715 128.476 349.912 123.289 349.449 118.962 348.146 115.222 346.288 118.061 339.971 114.666 337.888 115.216 333.352 112.842 330.623 112.255 326.894 103.924 327.181 107.539 321.328 101.127 320.324 101.145 316.302 102.1 311.981 100.566 308.715 100.376 304.965 94.412 303.141 100.926 297.333 94.223 295.537 94.168 291.791 91.773 288.617 88.47 285.553 94.003 280.775 88.264 278.055 86.702 274.537 85.656 270.913 91.577 266.641 90.079 263.143 88.474 259.593 84.631 256.027 87.685 252.296 87.529 248.629 93.873 245.239 92.267 241.595 89.367 237.755 86.647 233.79 94.128 231.052 87.738 226.454 94.311 223.873 89.021 219.151 90.692 215.729 90.06 211.768 93.111 208.747 94.307 205.271 95.605 201.836 99.451 199.3 102.451 196.581 99.399 191.522 100.738 188.111 102.61 184.937 103.438 181.279 108.969 179.979 110.268 176.619 110.303 172.517 110.527 168.423 112.172 165.123 113.619 161.673 114.604 157.864 122.744 159.186 121.314 153.625 124.395 151.409 125.786 147.839 126.849 143.91 130.856 142.566 137.519 143.889 136.749 138.139 137.11 133.276 142.902 134.135 144.676 130.705 146.786 127.581 150.796 126.761 150.12 119.932 154.751 119.952 157.073 116.861 160.35 115.115 167.109 118.928 166.672 111.319 173.241 115.418 176.328 113.704 177.714 108.655 181.961 109.135 183.624 104.181 187.777 104.61 189.859 100.125 195.751 105.353 196.049 95.544 201.097 99.024 205.626 101.543 206.652 91.971 210.857 93.392 214.217 91.59 219.163 97.34 222.931 98.242 224.932 88.345 229.367 93.389 232.969 93.234 236.718 94.834 239.799 87.678 243.475 87.026 247.243 89.52 250.898 92.095 254.446 94.347 258.084 92.366 262.086 86.324 265.77 87.041 269.159 90.238 272.042 96.271 276.663 89.627 278.836 98.399 282.354 98.707 285.93 98.844 289.662 98.48 294.183 95.466 298.081 95.178 301.393 96.894 304.079 100.321 306.277 104.745 309.559 106.059 312.897 107.242 318.736 102.955 322.794 103.015 322.443 111.878 329.375 106.474 330.947 111.226 334.994 111.551 335.616 117.468 340.731 116.211 342.254 120.434 345.614 121.934 346.892 126.221 350.479 127.429 354.036 128.761 355.182 132.936 361.276 131.544 362.018 136.079 362.924 140.276 366.402 141.87 371.777 141.814 370.966 147.405 371.601 151.537 378.598 150.465 378.87 154.867 383.757 155.774 382.185 161.35 387.643 162.036 383.469 169.008 390.31 169.006 389.98 173.385 389.264 177.847 394.576 179.093 398.685 181.127 397.959 185.5 402.651 187.434 404.747 190.583 398.291 196.98 405.915 198.054 406.801 201.64 407.254 205.344 406.271 209.413 403.641 213.802 410.885 215.778 409.853 219.746 411.318 223.181 414.78 226.34 412.656 230.382 407.593 234.631 411.303 237.854 415.447 241.201 412.251 245.046 412.202 248.674 416.474 252.296" style="fill: none; stroke: #000; stroke-linecap: round; stroke-linejoin: round; stroke-width: 35px;"/>
</svg>