<?xml version="1.0" encoding="UTF-8"?>
<svg id="Sticker" xmlns="http://www.w3.org/2000/svg" width="500" height="500" viewBox="0 0 500 500">
  <g>
    <polygon points="410.941 246.082 412.127 246.806 411.404 250.43 409.738 253.588 407.757 256.585 405.21 259.285 409.06 265.311 407.743 268.691 405.006 271.31 401.917 273.714 403.818 278.898 394.118 277.509 392.265 280.532 396.389 287.119 393.129 289.354 392.971 293.485 389.325 295.443 389.749 300.004 387.816 303.067 385.404 305.808 381.743 307.664 379.851 310.734 374.066 310.947 371.608 313.53 375.895 321.346 369.115 320.59 370.051 325.987 367.991 328.998 366.241 332.302 357.687 329.463 361.508 337.885 354.055 335.731 353.116 339.819 351.519 343.34 350.437 347.519 345.501 347.425 341.021 347.648 342.051 354.636 337.429 354.598 333.766 355.664 330.798 357.646 328.694 360.999 323.524 359.338 319.764 359.736 319.885 367.594 315.137 366.072 312.55 369.074 310.505 373.85 305.142 369.698 303.124 375.316 299.831 377.442 295.265 374.089 292.417 378.742 288.283 376.116 284.738 377.206 280.955 374.745 277.429 377.209 273.923 379.499 270.33 374.007 266.875 379.832 263.274 375.068 259.646 372.581 256.241 375.796 252.727 371.876 249.2 373.512 245.67 375.346 242.129 377.216 238.597 374.12 234.874 377.771 231.403 375.432 228.211 371.174 224.222 375.198 220.519 375.714 217.55 371.604 213.28 375.047 210.583 370.466 207.574 367.959 203.381 370.01 201.058 365.466 197.795 364.304 192.184 369.478 189.429 366.561 187.498 361.983 183.629 361.987 177.897 365.504 176.933 359.475 174.499 356.546 169.462 358.043 169.699 350.962 162.019 356.082 162.757 348.725 158.963 347.895 155.931 345.98 153.159 343.722 152.11 339.484 144.922 342.151 147.781 333.824 144.533 332.135 142.805 328.909 135.544 330.893 134.976 326.526 133.03 323.474 127.254 323.65 125.818 320.122 126.382 315.077 122.635 313.438 120.06 310.864 119.68 306.709 116.235 304.746 116.32 300.352 113.454 297.967 115.349 292.511 109.628 291.917 104.606 290.78 102.867 287.606 101.101 284.454 98.718 281.654 103.824 274.684 97.465 274.104 98.035 269.729 99.463 264.95 94.128 263.705 94.929 259.292 94.337 255.61 89.407 254.066 85.685 251.887 88.989 246.336 82.774 249.069 79.649 246.326 86.044 239.139 82.937 236.391 76.713 235.044 79.895 230.127 79.41 226.681 75.806 223.635 78.502 219.872 79.184 216.482 78.164 212.884 73.789 208.082 82.609 207.041 80.137 202.284 77.809 196.853 85.17 196.918 88.162 194.761 86.087 188.556 92.247 189.13 92.094 184.003 96.686 183.603 95.793 177.033 99.537 175.729 105.106 177.079 108.053 175.09 109.478 170.737 115.586 173.786 118.408 171.698 120.252 167.751 122.713 164.723 125.383 161.962 130.032 163.416 132.709 160.635 136.769 161.134 140.725 161.664 141.808 153.979 146.423 156.653 149.035 152.371 152.668 150.695 156.439 149.492 160.206 151.698 163.998 149.943 166.925 158.532 171.319 151.433 174.945 152.073 178.747 151.683 180.956 159.398 184.511 159.712 188.464 158.508 193.552 153.416 197.117 154.476 200.441 156.31 201.872 163.732 207.079 159.745 210.222 161.839 211.025 169.66 217.018 164.585 217.969 171.364 224.316 166.337 225.909 171.357 229.686 171.977 232.182 174.941 233.745 179.279 239.186 177.431 242.148 179.575 243.263 184.145 246.968 185.221 249.882 187.412 252.947 190.074 251.489 183.062 254.262 180.698 259.476 181.763 260.417 176.831 266.298 179.463 267.66 174.917 268.34 168.747 272.818 169.417 277.477 170.765 278.743 165.02 283.417 166.695 286.198 164.073 288.784 160.781 292.17 159.466 296.736 161.655 299.338 158.067 304.36 162.345 307.263 159.684 310.694 158.825 314.578 159.913 317.869 158.563 320.228 152.156 324.298 154.47 328.206 156.651 331.814 157.487 334.911 153.206 338.582 155.501 342.029 150.48 345.309 157.22 349.199 152.984 351.791 157.611 357.094 152.443 359.682 156.349 361.964 160.533 367.263 157.163 370.918 158.061 372.972 162.366 376.406 163.654 381.716 161.512 381.758 169.009 387.067 167.192 388.083 172.469 394.457 169.529 395.368 174.697 396.676 178.993 399.86 180.767 405.335 180.065 402.842 187.994 409.04 186.902 410.4 190.559 410.656 194.873 417.807 194.243 420.631 197.036 418.94 202.186 423.811 204.197 421.966 208.828 426.915 211.611 427.315 215.648 421.434 219.676 424.413 223.451 424.521 227.303 418.655 229.604 424.601 235.429 415.242 235.501 421.043 242.385 415.069 243.82 410.941 246.082" style="fill: #fff;"/>
    <polygon points="410.941 246.082 412.127 246.806 411.404 250.43 409.738 253.588 407.757 256.585 405.21 259.285 409.06 265.311 407.743 268.691 405.006 271.31 401.917 273.714 403.818 278.898 394.118 277.509 392.265 280.532 396.389 287.119 393.129 289.354 392.971 293.485 389.325 295.443 389.749 300.004 387.816 303.067 385.404 305.808 381.743 307.664 379.851 310.734 374.066 310.947 371.608 313.53 375.895 321.346 369.115 320.59 370.051 325.987 367.991 328.998 366.241 332.302 357.687 329.463 361.508 337.885 354.055 335.731 353.116 339.819 351.519 343.34 350.437 347.519 345.501 347.425 341.021 347.648 342.051 354.636 337.429 354.598 333.766 355.664 330.798 357.646 328.694 360.999 323.524 359.338 319.764 359.736 319.885 367.594 315.137 366.072 312.55 369.074 310.505 373.85 305.142 369.698 303.124 375.316 299.831 377.442 295.265 374.089 292.417 378.742 288.283 376.116 284.738 377.206 280.955 374.745 277.429 377.209 273.923 379.499 270.33 374.007 266.875 379.832 263.274 375.068 259.646 372.581 256.241 375.796 252.727 371.876 249.2 373.512 245.67 375.346 242.129 377.216 238.597 374.12 234.874 377.771 231.403 375.432 228.211 371.174 224.222 375.198 220.519 375.714 217.55 371.604 213.28 375.047 210.583 370.466 207.574 367.959 203.381 370.01 201.058 365.466 197.795 364.304 192.184 369.478 189.429 366.561 187.498 361.983 183.629 361.987 177.897 365.504 176.933 359.475 174.499 356.546 169.462 358.043 169.699 350.962 162.019 356.082 162.757 348.725 158.963 347.895 155.931 345.98 153.159 343.722 152.11 339.484 144.922 342.151 147.781 333.824 144.533 332.135 142.805 328.909 135.544 330.893 134.976 326.526 133.03 323.474 127.254 323.65 125.818 320.122 126.382 315.077 122.635 313.438 120.06 310.864 119.68 306.709 116.235 304.746 116.32 300.352 113.454 297.967 115.349 292.511 109.628 291.917 104.606 290.78 102.867 287.606 101.101 284.454 98.718 281.654 103.824 274.684 97.465 274.104 98.035 269.729 99.463 264.95 94.128 263.705 94.929 259.292 94.337 255.61 89.407 254.066 85.685 251.887 88.989 246.336 82.774 249.069 79.649 246.326 86.044 239.139 82.937 236.391 76.713 235.044 79.895 230.127 79.41 226.681 75.806 223.635 78.502 219.872 79.184 216.482 78.164 212.884 73.789 208.082 82.609 207.041 80.137 202.284 77.809 196.853 85.17 196.918 88.162 194.761 86.087 188.556 92.247 189.13 92.094 184.003 96.686 183.603 95.793 177.033 99.537 175.729 105.106 177.079 108.053 175.09 109.478 170.737 115.586 173.786 118.408 171.698 120.252 167.751 122.713 164.723 125.383 161.962 130.032 163.416 132.709 160.635 136.769 161.134 140.725 161.664 141.808 153.979 146.423 156.653 149.035 152.371 152.668 150.695 156.439 149.492 160.206 151.698 163.998 149.943 166.925 158.532 171.319 151.433 174.945 152.073 178.747 151.683 180.956 159.398 184.511 159.712 188.464 158.508 193.552 153.416 197.117 154.476 200.441 156.31 201.872 163.732 207.079 159.745 210.222 161.839 211.025 169.66 217.018 164.585 217.969 171.364 224.316 166.337 225.909 171.357 229.686 171.977 232.182 174.941 233.745 179.279 239.186 177.431 242.148 179.575 243.263 184.145 246.968 185.221 249.882 187.412 252.947 190.074 251.489 183.062 254.262 180.698 259.476 181.763 260.417 176.831 266.298 179.463 267.66 174.917 268.34 168.747 272.818 169.417 277.477 170.765 278.743 165.02 283.417 166.695 286.198 164.073 288.784 160.781 292.17 159.466 296.736 161.655 299.338 158.067 304.36 162.345 307.263 159.684 310.694 158.825 314.578 159.913 317.869 158.563 320.228 152.156 324.298 154.47 328.206 156.651 331.814 157.487 334.911 153.206 338.582 155.501 342.029 150.48 345.309 157.22 349.199 152.984 351.791 157.611 357.094 152.443 359.682 156.349 361.964 160.533 367.263 157.163 370.918 158.061 372.972 162.366 376.406 163.654 381.716 161.512 381.758 169.009 387.067 167.192 388.083 172.469 394.457 169.529 395.368 174.697 396.676 178.993 399.86 180.767 405.335 180.065 402.842 187.994 409.04 186.902 410.4 190.559 410.656 194.873 417.807 194.243 420.631 197.036 418.94 202.186 423.811 204.197 421.966 208.828 426.915 211.611 427.315 215.648 421.434 219.676 424.413 223.451 424.521 227.303 418.655 229.604 424.601 235.429 415.242 235.501 421.043 242.385 415.069 243.82 410.941 246.082" style="fill: none; stroke: #000; stroke-linecap: round; stroke-linejoin: round; stroke-width: 35px;"/>
  </g>
  <g>
    <polyline points="84.306 245.471 84.337 244.172 87.987 243.132 91.314 241.139 95.783 242.963 99.84 243.896 103.513 243.615 105.969 237.025 110.766 243.02 114.447 243.369 117.32 235.867 121.723 244.756 125.05 239.627 128.674 235.907 132.311 244.048 135.891 243.34 139.738 239.452 143.558 238.123 146.585 244.1 150.822 239.821 154.182 242.112 158.493 239.078 161.283 243.849 164.926 244.302 167.471 248.98 173.372 241.371 176.379 244.37 179.137 247.857 181.257 252.656 186.083 249.826 190.36 248.827 191.244 256.179 197.512 250.706 197.234 260.065 200.361 261.673 204.919 260.442 208.481 261.335 212.113 262.164 212.97 267.917 219.935 263.098 222.479 265.934 226.95 265.703 225.018 275.223 231.941 271.422 231.945 277.646 234.673 279.928 238.942 280.23 240.462 284.045 241.864 287.866 249.377 284.699 251.749 287.21 253.185 292.585 253.281 287.53 254.408 283.346 256.55 280.237 258.458 276.76 261.739 275.014 267.933 277.351 267.49 270.474 274.287 274.066 275.962 270.123 280.637 270.877 283.571 268.912 283.309 261.344 286.634 259.825 292.223 262.621 295.955 262.128 295.584 253.244 299.428 252.808 305.659 257.898 306.686 251.227 311.117 252.553 315.48 254.005 317.237 248.418 320.307 246.214 325.144 249.759 328.418 248.586 331.243 245.694 334.187 242.935 337.401 241.004 341.644 243.969 344.609 240.625 348.473 242.349 352.355 245.042 355.125 238.527 359.162 244.162 362.183 236.529 365.911 240.368 369.429 242.09 372.997 237.95 376.507 239.351 380.218 237.389 383.332 242.161 387.64 236.317 390.641 240.613 393.546 244.272 398.112 239.766 401.116 242.618 404.178 244.844 408.7 242.274 411.798 244.404 415.199 245.595" style="fill: #fff;"/>
    <polyline points="84.306 245.471 84.337 244.172 87.987 243.132 91.314 241.139 95.783 242.963 99.84 243.896 103.513 243.615 105.969 237.025 110.766 243.02 114.447 243.369 117.32 235.867 121.723 244.756 125.05 239.627 128.674 235.907 132.311 244.048 135.891 243.34 139.738 239.452 143.558 238.123 146.585 244.1 150.822 239.821 154.182 242.112 158.493 239.078 161.283 243.849 164.926 244.302 167.471 248.98 173.372 241.371 176.379 244.37 179.137 247.857 181.257 252.656 186.083 249.826 190.36 248.827 191.244 256.179 197.512 250.706 197.234 260.065 200.361 261.673 204.919 260.442 208.481 261.335 212.113 262.164 212.97 267.917 219.935 263.098 222.479 265.934 226.95 265.703 225.018 275.223 231.941 271.422 231.945 277.646 234.673 279.928 238.942 280.23 240.462 284.045 241.864 287.866 249.377 284.699 251.749 287.21 253.185 292.585 253.281 287.53 254.408 283.346 256.55 280.237 258.458 276.76 261.739 275.014 267.933 277.351 267.49 270.474 274.287 274.066 275.962 270.123 280.637 270.877 283.571 268.912 283.309 261.344 286.634 259.825 292.223 262.621 295.955 262.128 295.584 253.244 299.428 252.808 305.659 257.898 306.686 251.227 311.117 252.553 315.48 254.005 317.237 248.418 320.307 246.214 325.144 249.759 328.418 248.586 331.243 245.694 334.187 242.935 337.401 241.004 341.644 243.969 344.609 240.625 348.473 242.349 352.355 245.042 355.125 238.527 359.162 244.162 362.183 236.529 365.911 240.368 369.429 242.09 372.997 237.95 376.507 239.351 380.218 237.389 383.332 242.161 387.64 236.317 390.641 240.613 393.546 244.272 398.112 239.766 401.116 242.618 404.178 244.844 408.7 242.274 411.798 244.404 415.199 245.595" style="fill: none; stroke: #000; stroke-linecap: round; stroke-linejoin: round; stroke-width: 35px;"/>
  </g>
</svg>