<?xml version="1.0" encoding="UTF-8"?>
<svg id="Sticker" xmlns="http://www.w3.org/2000/svg" width="1000" height="1000" viewBox="0 0 1000 1000">
  <polygon points="714.007 715.411 707.446 709.917 712.62 706.306 708.318 702.696 712.138 699.087 716.126 695.478 714.314 691.87 715.954 688.263 715.954 684.656 710.474 681.049 715.681 677.442 707.876 673.835 709.093 670.227 708.769 666.619 713.972 663.011 708.835 659.402 711.341 655.792 708.373 652.18 712.875 648.57 707.196 644.961 713.533 641.352 712.396 637.744 713.972 634.136 715.993 630.528 714.061 626.92 708.207 623.312 710.431 619.703 708.823 616.094 711.243 612.484 712.493 608.872 713.883 605.262 712.744 601.652 709.95 598.043 712.546 594.435 710.424 590.826 715.371 587.218 715.955 583.609 708.469 579.999 716.673 576.388 708.361 572.777 716.439 569.166 715.99 565.556 711.826 561.947 714.479 558.338 710.081 554.729 714.561 551.119 716.644 547.509 710.408 543.897 715.175 540.286 710.444 536.676 715.313 533.066 712.529 529.457 709.215 525.847 709.47 522.236 711.11 518.625 707.821 515.013 708.381 511.403 709.139 507.793 711.818 504.183 717.1 500.572 710.368 496.961 714.774 493.349 715.824 489.739 712.751 486.128 708.981 482.523 709.405 478.917 714.836 475.312 708.182 471.706 713.963 468.098 712.065 464.488 714.161 460.876 711.145 457.265 714.46 453.656 714.198 450.049 716.479 446.442 708.139 442.834 709.579 439.224 708.854 435.612 710.048 432 712.082 428.39 714.485 424.781 712.37 421.172 707.282 417.561 710.417 413.948 715.44 410.336 713.215 406.726 714.64 403.115 715.865 399.504 712.272 395.889 707.693 392.278 709.754 388.666 717.003 385.054 711.658 381.44 707.188 377.828 716.752 374.215 710.848 370.601 709.703 366.988 716.636 363.374 715.687 359.761 714.642 356.147 707.225 352.533 708.923 348.918 717.04 345.304 709.028 341.69 716.194 338.08 714.881 334.466 707.207 330.854 709.793 327.239 710.759 323.625 713.581 320.01 715.929 316.394 710.38 312.777 711.309 309.16 712.605 305.544 711.583 301.928 712.342 298.311 714.989 294.688 712.94 290.796 708.495 287.917 704.85 287.314 701.333 292.2 697.823 294.937 694.195 293.795 690.698 295.671 686.722 288.936 683.165 290.159 679.56 290.544 676.306 295.052 672.851 296.638 668.871 292.844 665.694 296.991 662.011 296.327 658.397 296.353 654.094 291.376 650.38 291.12 647.927 299.156 643.214 292.473 641.098 301.698 637.583 302.31 634.065 302.91 630.044 300.971 625.485 296.658 621.588 295.836 618.674 299.511 614.66 298.26 612.731 305.746 607.38 299.176 603.841 300.062 601.069 303.792 597.915 305.971 593.908 305.117 590.048 304.874 588.699 312.872 583.146 307.198 580.461 310.7 575.867 308.387 573.478 312.644 569.906 313.407 566.095 313.539 563.182 316.122 561.327 321.39 556.003 317.667 552.393 318.43 548.922 319.557 547.539 325.611 543.059 324.329 539.415 325.051 538.085 330.885 535.763 334.397 531.017 332.733 525.322 329.259 522.087 330.945 522.782 340.357 516.166 335.367 512.34 335.913 510.52 340.21 510.252 347.217 505.95 346.855 503.92 350.529 499.768 350.51 495.549 350.449 492.943 353.107 487.696 351.486 484.173 352.719 485.911 362.134 479.481 358.846 479.744 365.748 476.897 367.91 470.012 364.254 468.894 368.956 466.615 371.953 463.434 373.689 456.942 371 456.935 377.02 452.677 377.407 450.841 380.936 449.189 384.65 447.184 387.88 441.078 386.13 439.173 389.5 437.259 392.825 432.639 393.015 432.804 398.67 430.59 401.579 429.432 405.622 425.228 406.351 422.639 408.836 417.91 409.106 414.768 411.067 412.762 414.181 408.421 414.982 406.292 417.981 405.244 421.994 403.261 425.087 401.491 428.36 400.547 432.358 399.129 435.891 390.799 433.363 387.828 435.61 389.656 441.92 389.987 446.869 382.971 445.759 384.821 451.88 382.17 454.347 378.4 455.96 376.742 459.22 376.678 463.655 367.815 461.587 367.231 465.654 366.069 469.273 366.223 473.782 362.444 475.554 363.276 480.456 354.691 479.1 358.645 485.993 351.138 485.488 349.681 488.874 353.346 495.37 349.398 497.187 343.395 497.847 347.581 504.459 341.496 505.147 338.737 507.77 340.778 513.012 338.424 515.841 335.805 518.547 331.367 520.35 336.044 526.748 334.437 529.952 327.215 530.482 331.63 536.552 323.958 536.993 321.481 539.875 321.984 544.073 323.681 548.738 323.002 552.355 319.548 554.835 322.992 560.079 313.848 560.386 317.608 565.685 317.041 569.306 315.416 572.537 308.099 573.81 310.378 578.425 314.881 583.702 305.727 584.541 308.016 589.053 305.629 592.107 304.897 595.665 307.829 600.242 307.09 603.755 302.924 606.369 304.391 610.462 301.275 613.4 301.171 617.082 304.445 621.511 300.715 624.355 302.799 628.455 293.354 630.225 295.622 634.362 298.964 638.64 291.636 641.021 296.775 645.546 299.338 649.575 296.797 652.809 293.725 656.008 294.519 659.744 295.905 663.529 293.769 666.894 293.336 670.462 288.931 673.662 295.932 677.895 293.289 681.271 291.072 684.716 292.27 688.397 288.742 691.815 288.416 695.424 292.635 699.188 290.966 702.733 286.309 706.253 287.941 709.903 290.4 711.329 293.277 710.511 296.887 711.438 300.498 708.75 304.107 713.981 307.715 712.689 311.323 708.68 314.931 712.332 318.538 713.88 322.145 709.181 325.752 711.896 329.359 715.411 332.967 711.646 336.574 713.136 340.183 709.318 343.792 716.633 347.402 708.887 351.013 710.417 354.623 710.67 358.233 712.242 361.841 716.712 365.45 716.067 369.057 715.372 372.665 709.65 376.273 712.784 379.882 718.338 383.49 714.606 387.1 714.659 390.71 716.47 394.321 716.211 397.932 714.479 401.541 715.766 405.15 716.792 408.759 711.359 412.368 712.433 415.976 714.008 419.585 712.857 423.195 710.469 426.806 714.108 430.417 711.759 434.028 711.448 437.637 708.88 441.247 712.849 444.856 708.936 448.465 711.482 452.075 711.468 455.685 709.022 459.297 710.046 462.908 710.001 466.518 711.71 470.128 711.358 473.737 710.505 477.347 709.399 480.958 714.868 484.569 717.487 488.18 715.676 491.791 710.564 495.401 716.243 499.011 715.857 502.622 711.058 506.233 711.627 509.845 710.411 513.455 716.236 517.066 717.067 520.671 717.007 524.277 712.399 527.882 710.968 531.488 716.84 535.096 716.429 538.705 716.733 542.318 714.179 545.929 710.507 549.537 708.614 553.145 715.293 556.752 711.126 560.36 714.364 563.97 709.329 567.582 709.913 571.194 714.862 574.804 718.387 578.413 718.472 582.022 710.668 585.632 712.418 589.245 710.525 592.858 715.891 596.468 715.779 600.078 717.681 603.69 711.2 607.304 710.625 610.916 714.078 614.527 713.163 618.14 716.472 621.754 713.241 625.366 715.967 628.979 717.839 632.593 713.28 636.205 715.974 639.82 713.814 643.433 713.252 647.047 715.222 650.661 710.338 654.276 717.719 657.89 715.062 661.504 712.293 665.114 716.918 668.728 717.585 672.34 712.234 675.955 713.028 679.569 717 683.184 717.441 686.8 711.055 690.417 712.483 694.034 710.76 697.65 712.945 701.266 716.151 704.883 714.496 708.88 711.714 714.007 715.411" style="fill: #fff;"/>
  <polygon points="714.007 715.411 707.446 709.917 712.62 706.306 708.318 702.696 712.138 699.087 716.126 695.478 714.314 691.87 715.954 688.263 715.954 684.656 710.474 681.049 715.681 677.442 707.876 673.835 709.093 670.227 708.769 666.619 713.972 663.011 708.835 659.402 711.341 655.792 708.373 652.18 712.875 648.57 707.196 644.961 713.533 641.352 712.396 637.744 713.972 634.136 715.993 630.528 714.061 626.92 708.207 623.312 710.431 619.703 708.823 616.094 711.243 612.484 712.493 608.872 713.883 605.262 712.744 601.652 709.95 598.043 712.546 594.435 710.424 590.826 715.371 587.218 715.955 583.609 708.469 579.999 716.673 576.388 708.361 572.777 716.439 569.166 715.99 565.556 711.826 561.947 714.479 558.338 710.081 554.729 714.561 551.119 716.644 547.509 710.408 543.897 715.175 540.286 710.444 536.676 715.313 533.066 712.529 529.457 709.215 525.847 709.47 522.236 711.11 518.625 707.821 515.013 708.381 511.403 709.139 507.793 711.818 504.183 717.1 500.572 710.368 496.961 714.774 493.349 715.824 489.739 712.751 486.128 708.981 482.523 709.405 478.917 714.836 475.312 708.182 471.706 713.963 468.098 712.065 464.488 714.161 460.876 711.145 457.265 714.46 453.656 714.198 450.049 716.479 446.442 708.139 442.834 709.579 439.224 708.854 435.612 710.048 432 712.082 428.39 714.485 424.781 712.37 421.172 707.282 417.561 710.417 413.948 715.44 410.336 713.215 406.726 714.64 403.115 715.865 399.504 712.272 395.889 707.693 392.278 709.754 388.666 717.003 385.054 711.658 381.44 707.188 377.828 716.752 374.215 710.848 370.601 709.703 366.988 716.636 363.374 715.687 359.761 714.642 356.147 707.225 352.533 708.923 348.918 717.04 345.304 709.028 341.69 716.194 338.08 714.881 334.466 707.207 330.854 709.793 327.239 710.759 323.625 713.581 320.01 715.929 316.394 710.38 312.777 711.309 309.16 712.605 305.544 711.583 301.928 712.342 298.311 714.989 294.688 712.94 290.796 708.495 287.917 704.85 287.314 701.333 292.2 697.823 294.937 694.195 293.795 690.698 295.671 686.722 288.936 683.165 290.159 679.56 290.544 676.306 295.052 672.851 296.638 668.871 292.844 665.694 296.991 662.011 296.327 658.397 296.353 654.094 291.376 650.38 291.12 647.927 299.156 643.214 292.473 641.098 301.698 637.583 302.31 634.065 302.91 630.044 300.971 625.485 296.658 621.588 295.836 618.674 299.511 614.66 298.26 612.731 305.746 607.38 299.176 603.841 300.062 601.069 303.792 597.915 305.971 593.908 305.117 590.048 304.874 588.699 312.872 583.146 307.198 580.461 310.7 575.867 308.387 573.478 312.644 569.906 313.407 566.095 313.539 563.182 316.122 561.327 321.39 556.003 317.667 552.393 318.43 548.922 319.557 547.539 325.611 543.059 324.329 539.415 325.051 538.085 330.885 535.763 334.397 531.017 332.733 525.322 329.259 522.087 330.945 522.782 340.357 516.166 335.367 512.34 335.913 510.52 340.21 510.252 347.217 505.95 346.855 503.92 350.529 499.768 350.51 495.549 350.449 492.943 353.107 487.696 351.486 484.173 352.719 485.911 362.134 479.481 358.846 479.744 365.748 476.897 367.91 470.012 364.254 468.894 368.956 466.615 371.953 463.434 373.689 456.942 371 456.935 377.02 452.677 377.407 450.841 380.936 449.189 384.65 447.184 387.88 441.078 386.13 439.173 389.5 437.259 392.825 432.639 393.015 432.804 398.67 430.59 401.579 429.432 405.622 425.228 406.351 422.639 408.836 417.91 409.106 414.768 411.067 412.762 414.181 408.421 414.982 406.292 417.981 405.244 421.994 403.261 425.087 401.491 428.36 400.547 432.358 399.129 435.891 390.799 433.363 387.828 435.61 389.656 441.92 389.987 446.869 382.971 445.759 384.821 451.88 382.17 454.347 378.4 455.96 376.742 459.22 376.678 463.655 367.815 461.587 367.231 465.654 366.069 469.273 366.223 473.782 362.444 475.554 363.276 480.456 354.691 479.1 358.645 485.993 351.138 485.488 349.681 488.874 353.346 495.37 349.398 497.187 343.395 497.847 347.581 504.459 341.496 505.147 338.737 507.77 340.778 513.012 338.424 515.841 335.805 518.547 331.367 520.35 336.044 526.748 334.437 529.952 327.215 530.482 331.63 536.552 323.958 536.993 321.481 539.875 321.984 544.073 323.681 548.738 323.002 552.355 319.548 554.835 322.992 560.079 313.848 560.386 317.608 565.685 317.041 569.306 315.416 572.537 308.099 573.81 310.378 578.425 314.881 583.702 305.727 584.541 308.016 589.053 305.629 592.107 304.897 595.665 307.829 600.242 307.09 603.755 302.924 606.369 304.391 610.462 301.275 613.4 301.171 617.082 304.445 621.511 300.715 624.355 302.799 628.455 293.354 630.225 295.622 634.362 298.964 638.64 291.636 641.021 296.775 645.546 299.338 649.575 296.797 652.809 293.725 656.008 294.519 659.744 295.905 663.529 293.769 666.894 293.336 670.462 288.931 673.662 295.932 677.895 293.289 681.271 291.072 684.716 292.27 688.397 288.742 691.815 288.416 695.424 292.635 699.188 290.966 702.733 286.309 706.253 287.941 709.903 290.4 711.329 293.277 710.511 296.887 711.438 300.498 708.75 304.107 713.981 307.715 712.689 311.323 708.68 314.931 712.332 318.538 713.88 322.145 709.181 325.752 711.896 329.359 715.411 332.967 711.646 336.574 713.136 340.183 709.318 343.792 716.633 347.402 708.887 351.013 710.417 354.623 710.67 358.233 712.242 361.841 716.712 365.45 716.067 369.057 715.372 372.665 709.65 376.273 712.784 379.882 718.338 383.49 714.606 387.1 714.659 390.71 716.47 394.321 716.211 397.932 714.479 401.541 715.766 405.15 716.792 408.759 711.359 412.368 712.433 415.976 714.008 419.585 712.857 423.195 710.469 426.806 714.108 430.417 711.759 434.028 711.448 437.637 708.88 441.247 712.849 444.856 708.936 448.465 711.482 452.075 711.468 455.685 709.022 459.297 710.046 462.908 710.001 466.518 711.71 470.128 711.358 473.737 710.505 477.347 709.399 480.958 714.868 484.569 717.487 488.18 715.676 491.791 710.564 495.401 716.243 499.011 715.857 502.622 711.058 506.233 711.627 509.845 710.411 513.455 716.236 517.066 717.067 520.671 717.007 524.277 712.399 527.882 710.968 531.488 716.84 535.096 716.429 538.705 716.733 542.318 714.179 545.929 710.507 549.537 708.614 553.145 715.293 556.752 711.126 560.36 714.364 563.97 709.329 567.582 709.913 571.194 714.862 574.804 718.387 578.413 718.472 582.022 710.668 585.632 712.418 589.245 710.525 592.858 715.891 596.468 715.779 600.078 717.681 603.69 711.2 607.304 710.625 610.916 714.078 614.527 713.163 618.14 716.472 621.754 713.241 625.366 715.967 628.979 717.839 632.593 713.28 636.205 715.974 639.82 713.814 643.433 713.252 647.047 715.222 650.661 710.338 654.276 717.719 657.89 715.062 661.504 712.293 665.114 716.918 668.728 717.585 672.34 712.234 675.955 713.028 679.569 717 683.184 717.441 686.8 711.055 690.417 712.483 694.034 710.76 697.65 712.945 701.266 716.151 704.883 714.496 708.88 711.714 714.007 715.411" style="fill: none; stroke: #000; stroke-linecap: round; stroke-linejoin: round; stroke-width: 35px;"/>
</svg>