<?xml version="1.0" encoding="UTF-8"?>
<svg id="Sticker" xmlns="http://www.w3.org/2000/svg" width="1000" height="1000" viewBox="0 0 1000 1000">
  <g>
    <polygon points="561.517 664.128 557.952 659.479 554.386 660.548 550.819 656.854 547.254 666.212 543.688 661.442 540.12 659.172 536.554 663.382 532.986 658.564 529.42 660.998 525.852 659.19 522.285 665.482 518.717 663.77 515.153 657.37 511.586 659.733 508.022 665.026 504.455 660.828 500.889 662.137 497.32 656.869 493.753 656.96 490.184 658.666 486.614 656.942 483.044 661 479.473 664.601 475.904 665.614 472.334 660.521 468.764 659.739 465.187 663.154 461.611 665.149 458.025 659.088 454.439 659.024 450.887 657.866 447.103 662.927 443.681 658.821 440.007 660.112 436.507 658.582 433.099 656.294 429.563 655.819 425.904 656.534 422.139 657.931 418.124 660.914 414.457 660.868 411.414 656.713 408.378 653.059 404.466 654.704 400.919 654.156 396.775 656.477 392.649 658.346 389.876 654.123 387.661 648.051 383.716 649.12 379.204 652.016 374.687 654.518 371.347 652.866 370.115 644.823 364.727 649.532 361.129 648.728 358.086 646.417 356.94 639.44 352.508 640.841 347.484 643.339 346.972 635.657 344.337 632.94 341.054 631.621 337.138 631.48 331.408 634.497 331.662 626.732 328.401 625.308 324.225 625.301 319.305 626.254 317.542 622.388 314.292 620.732 313.391 615.941 310.026 614.486 307.274 612.227 305.721 608.597 297.301 612.582 295.302 609.292 295.417 603.976 293.386 600.941 293.23 596.268 287.06 596.907 282.57 595.853 279.995 593.149 277.655 590.248 283.13 581.998 276.947 581.841 274.892 578.859 274.164 575.108 269.72 573.418 266.91 570.722 270.311 565.046 262.966 564.365 268.229 558.225 264.754 555.75 266.737 551.27 258.105 550.305 262.997 545.048 257.025 542.923 257.353 539.065 254.502 535.923 256.668 531.768 257.816 527.913 260.405 523.951 260.115 520.444 257.02 517.179 258.64 513.486 254.82 510.102 260.201 506.369 255.59 502.86 259.026 502.86 256.327 499.269 252.091 495.5 252.244 491.82 256.791 488.508 258.725 485.104 253.467 480.837 253.695 477.145 253.431 473.349 260.065 470.899 255.704 466.251 263.098 464.304 264.392 460.998 262.506 456.742 263.469 453.275 260.927 448.536 266.437 446.711 270.239 444.417 266.669 438.965 272.179 437.553 268.573 431.736 274.906 430.976 270.871 424.549 276.698 423.74 277.321 419.849 278.415 416.183 283.169 415.072 286.349 412.972 289.754 411.13 291.956 408.378 289.634 401.655 295.706 402.25 299.439 400.909 299.063 395.538 298.482 389.678 307.484 394.089 304.741 385.571 306.896 382.399 313.721 385.043 316.829 383.235 320.477 382.199 323.558 380.441 321.984 371.724 325.601 370.535 330.783 371.975 335.161 372.342 335.355 365.447 337.721 362.132 344.981 368.192 345.72 361.7 351.287 365.02 350.912 355.573 357.55 361.703 359.608 357.385 361.682 352.819 366.182 354.439 367.694 347.932 372.056 349.322 375.582 348.382 380.48 351.977 381.843 343.812 385.869 344.597 389.819 345.302 392.773 342.091 397.751 347.49 401.61 348.471 404.615 345.383 407.811 342.971 411.966 345.883 414.712 340.457 418.873 343.933 421.913 339.668 426.016 343.535 429.223 339.983 432.421 335.493 436.579 341.497 439.702 334.832 443.327 334.223 447.308 341.149 450.71 336.01 454.305 334.282 457.982 336.364 461.611 341.93 465.175 336.94 468.741 338.48 472.309 335.863 475.874 336.925 479.44 333.178 483.008 336.142 486.574 333.065 490.141 332.803 493.708 340.58 497.275 340.232 500.843 337.727 504.411 333.118 507.974 340.938 511.542 336.83 515.105 332.87 518.673 341.671 522.239 339.648 525.808 334.395 529.375 333.93 532.944 340.555 536.514 338.31 540.084 340.434 543.654 336.276 547.224 337.247 550.793 333.015 554.364 337.68 557.941 339.494 561.517 340.424 565.168 334.269 568.757 337.055 572.207 342.082 575.891 339.529 579.472 339.871 583.079 339.772 587.099 334.721 590.579 336.817 594.407 335.226 597.014 344.342 600.551 344.705 605.237 337.132 607.914 343.641 611.637 343.108 615.412 342.459 618.449 345.716 622.748 342.696 626.24 343.701 630.647 340.902 632.507 348.448 636.963 345.709 640.02 348.227 644.025 347.469 646.117 352.866 651.962 346.713 652.131 357.268 657.545 352.862 659.877 356.861 663.794 356.751 665.602 361.681 669.241 362.227 672.973 362.652 676.893 362.788 679.039 366.498 682.877 366.881 688.96 363.373 688.401 371.643 691.641 373.168 698.646 368.827 699.089 374.849 702.789 375.862 707.12 376.097 706.167 383.451 710.326 383.928 711.856 387.723 716.213 388.124 716.584 393.092 724.459 389.918 727.465 392.15 729.647 395.211 727.567 402.156 729.294 405.375 734.036 406.024 734.955 409.91 734.769 414.526 737.252 417.05 744.784 416.168 743.262 421.523 750.119 421.523 744.615 428.978 746.495 431.94 748.989 434.602 752.875 436.656 758.625 438.019 752.008 444.807 754.193 447.704 760.178 449.286 761.019 452.844 758.392 457.44 759.703 460.746 759.235 464.518 762.522 467.374 768.236 469.867 762.208 474.686 765.196 477.804 765.547 481.378 771.752 484.32 768.089 488.361 772.268 491.734 767.835 495.632 767.026 499.264 767.653 502.86 771.551 502.86 770.411 506.522 770.379 510.188 766.184 513.596 763.55 516.962 768.666 521.061 767.847 524.634 764.571 527.807 768.411 532.132 761.836 534.539 759.575 537.643 759.348 541.194 759.022 544.75 761.536 549.233 759.385 552.32 762.015 557.133 758.558 559.727 754.983 562.14 751.025 564.237 750.213 567.746 750.747 572.027 750.413 575.967 749.114 579.428 743.348 580.054 741.048 582.753 745.023 589.965 736.886 588.42 736.057 592.269 736.04 596.928 732.918 599.016 730.655 601.847 727.885 604.197 723.89 605.249 721.863 608.307 717.951 609.27 716.223 612.723 712.875 614.252 713.817 621.371 711.182 624.024 705.539 622.375 700.742 621.651 700.615 628.065 696.685 628.604 695.938 634.533 691.003 633.252 688.403 636.111 686.128 639.724 679.696 634.875 678.561 640.947 672.344 635.863 671.606 643.25 668.62 645.587 663.89 643.43 661.399 647.114 657.62 647.306 654.03 647.972 651.02 650.455 647.493 651.338 643.238 649.59 639.457 649.326 637.658 656.887 633.174 653.825 629.307 653.063 626.124 655.402 623.213 659.373 618.228 652.317 615.49 657.5 612.453 661.506 608.915 662.584 604.921 660.264 601.011 658.098 597.446 658.584 593.946 659.764 590.755 664.853 586.8 660.977 583.295 662.837 579.422 658.25 575.809 657.533 572.307 659.921 568.743 661.531 565.093 657.855 561.517 664.128" style="fill: #fff;"/>
    <polygon points="561.517 664.128 557.952 659.479 554.386 660.548 550.819 656.854 547.254 666.212 543.688 661.442 540.12 659.172 536.554 663.382 532.986 658.564 529.42 660.998 525.852 659.19 522.285 665.482 518.717 663.77 515.153 657.37 511.586 659.733 508.022 665.026 504.455 660.828 500.889 662.137 497.32 656.869 493.753 656.96 490.184 658.666 486.614 656.942 483.044 661 479.473 664.601 475.904 665.614 472.334 660.521 468.764 659.739 465.187 663.154 461.611 665.149 458.025 659.088 454.439 659.024 450.887 657.866 447.103 662.927 443.681 658.821 440.007 660.112 436.507 658.582 433.099 656.294 429.563 655.819 425.904 656.534 422.139 657.931 418.124 660.914 414.457 660.868 411.414 656.713 408.378 653.059 404.466 654.704 400.919 654.156 396.775 656.477 392.649 658.346 389.876 654.123 387.661 648.051 383.716 649.12 379.204 652.016 374.687 654.518 371.347 652.866 370.115 644.823 364.727 649.532 361.129 648.728 358.086 646.417 356.94 639.44 352.508 640.841 347.484 643.339 346.972 635.657 344.337 632.94 341.054 631.621 337.138 631.48 331.408 634.497 331.662 626.732 328.401 625.308 324.225 625.301 319.305 626.254 317.542 622.388 314.292 620.732 313.391 615.941 310.026 614.486 307.274 612.227 305.721 608.597 297.301 612.582 295.302 609.292 295.417 603.976 293.386 600.941 293.23 596.268 287.06 596.907 282.57 595.853 279.995 593.149 277.655 590.248 283.13 581.998 276.947 581.841 274.892 578.859 274.164 575.108 269.72 573.418 266.91 570.722 270.311 565.046 262.966 564.365 268.229 558.225 264.754 555.75 266.737 551.27 258.105 550.305 262.997 545.048 257.025 542.923 257.353 539.065 254.502 535.923 256.668 531.768 257.816 527.913 260.405 523.951 260.115 520.444 257.02 517.179 258.64 513.486 254.82 510.102 260.201 506.369 255.59 502.86 259.026 502.86 256.327 499.269 252.091 495.5 252.244 491.82 256.791 488.508 258.725 485.104 253.467 480.837 253.695 477.145 253.431 473.349 260.065 470.899 255.704 466.251 263.098 464.304 264.392 460.998 262.506 456.742 263.469 453.275 260.927 448.536 266.437 446.711 270.239 444.417 266.669 438.965 272.179 437.553 268.573 431.736 274.906 430.976 270.871 424.549 276.698 423.74 277.321 419.849 278.415 416.183 283.169 415.072 286.349 412.972 289.754 411.13 291.956 408.378 289.634 401.655 295.706 402.25 299.439 400.909 299.063 395.538 298.482 389.678 307.484 394.089 304.741 385.571 306.896 382.399 313.721 385.043 316.829 383.235 320.477 382.199 323.558 380.441 321.984 371.724 325.601 370.535 330.783 371.975 335.161 372.342 335.355 365.447 337.721 362.132 344.981 368.192 345.72 361.7 351.287 365.02 350.912 355.573 357.55 361.703 359.608 357.385 361.682 352.819 366.182 354.439 367.694 347.932 372.056 349.322 375.582 348.382 380.48 351.977 381.843 343.812 385.869 344.597 389.819 345.302 392.773 342.091 397.751 347.49 401.61 348.471 404.615 345.383 407.811 342.971 411.966 345.883 414.712 340.457 418.873 343.933 421.913 339.668 426.016 343.535 429.223 339.983 432.421 335.493 436.579 341.497 439.702 334.832 443.327 334.223 447.308 341.149 450.71 336.01 454.305 334.282 457.982 336.364 461.611 341.93 465.175 336.94 468.741 338.48 472.309 335.863 475.874 336.925 479.44 333.178 483.008 336.142 486.574 333.065 490.141 332.803 493.708 340.58 497.275 340.232 500.843 337.727 504.411 333.118 507.974 340.938 511.542 336.83 515.105 332.87 518.673 341.671 522.239 339.648 525.808 334.395 529.375 333.93 532.944 340.555 536.514 338.31 540.084 340.434 543.654 336.276 547.224 337.247 550.793 333.015 554.364 337.68 557.941 339.494 561.517 340.424 565.168 334.269 568.757 337.055 572.207 342.082 575.891 339.529 579.472 339.871 583.079 339.772 587.099 334.721 590.579 336.817 594.407 335.226 597.014 344.342 600.551 344.705 605.237 337.132 607.914 343.641 611.637 343.108 615.412 342.459 618.449 345.716 622.748 342.696 626.24 343.701 630.647 340.902 632.507 348.448 636.963 345.709 640.02 348.227 644.025 347.469 646.117 352.866 651.962 346.713 652.131 357.268 657.545 352.862 659.877 356.861 663.794 356.751 665.602 361.681 669.241 362.227 672.973 362.652 676.893 362.788 679.039 366.498 682.877 366.881 688.96 363.373 688.401 371.643 691.641 373.168 698.646 368.827 699.089 374.849 702.789 375.862 707.12 376.097 706.167 383.451 710.326 383.928 711.856 387.723 716.213 388.124 716.584 393.092 724.459 389.918 727.465 392.15 729.647 395.211 727.567 402.156 729.294 405.375 734.036 406.024 734.955 409.91 734.769 414.526 737.252 417.05 744.784 416.168 743.262 421.523 750.119 421.523 744.615 428.978 746.495 431.94 748.989 434.602 752.875 436.656 758.625 438.019 752.008 444.807 754.193 447.704 760.178 449.286 761.019 452.844 758.392 457.44 759.703 460.746 759.235 464.518 762.522 467.374 768.236 469.867 762.208 474.686 765.196 477.804 765.547 481.378 771.752 484.32 768.089 488.361 772.268 491.734 767.835 495.632 767.026 499.264 767.653 502.86 771.551 502.86 770.411 506.522 770.379 510.188 766.184 513.596 763.55 516.962 768.666 521.061 767.847 524.634 764.571 527.807 768.411 532.132 761.836 534.539 759.575 537.643 759.348 541.194 759.022 544.75 761.536 549.233 759.385 552.32 762.015 557.133 758.558 559.727 754.983 562.14 751.025 564.237 750.213 567.746 750.747 572.027 750.413 575.967 749.114 579.428 743.348 580.054 741.048 582.753 745.023 589.965 736.886 588.42 736.057 592.269 736.04 596.928 732.918 599.016 730.655 601.847 727.885 604.197 723.89 605.249 721.863 608.307 717.951 609.27 716.223 612.723 712.875 614.252 713.817 621.371 711.182 624.024 705.539 622.375 700.742 621.651 700.615 628.065 696.685 628.604 695.938 634.533 691.003 633.252 688.403 636.111 686.128 639.724 679.696 634.875 678.561 640.947 672.344 635.863 671.606 643.25 668.62 645.587 663.89 643.43 661.399 647.114 657.62 647.306 654.03 647.972 651.02 650.455 647.493 651.338 643.238 649.59 639.457 649.326 637.658 656.887 633.174 653.825 629.307 653.063 626.124 655.402 623.213 659.373 618.228 652.317 615.49 657.5 612.453 661.506 608.915 662.584 604.921 660.264 601.011 658.098 597.446 658.584 593.946 659.764 590.755 664.853 586.8 660.977 583.295 662.837 579.422 658.25 575.809 657.533 572.307 659.921 568.743 661.531 565.093 657.855 561.517 664.128" style="fill: none; stroke: #000; stroke-linecap: round; stroke-linejoin: round; stroke-width: 35px;"/>
  </g>
  <g>
    <polygon points="648.574 499.546 652.437 503.295 645.622 506.694 651.322 510.73 650.869 514.435 644.209 517.314 643.888 520.871 642.201 524.185 643.058 527.989 643.483 531.779 644.146 535.706 640.688 538.486 643.232 543.108 638.458 545.311 640.706 550.047 638.675 553.197 633.383 554.826 633.396 558.793 634.376 563.369 631.655 566.073 627.286 567.737 623.181 569.383 627.501 576.463 618.921 574.954 624.324 583.329 619.58 584.356 618.95 588.585 612.85 588.178 612.669 592.889 605.862 591.373 606.032 596.572 604.183 599.883 599.34 599.871 597.166 602.808 598.445 610.214 594.471 611.147 590.502 611.937 588.268 615.18 583.178 614.015 581.691 618.566 576.827 617.378 576.279 624.089 569.352 618.402 567.199 622.165 564.854 625.822 560.034 623.514 557.729 627.564 553.999 627.818 549.995 626.992 547.061 629.699 544.315 633.597 541.231 636.727 536.195 630.14 533.291 634.383 529.072 630.219 525.688 631.596 522.462 635.663 519.023 639.487 515.065 630.879 511.564 638.747 508.026 632.296 504.369 634.504 500.68 635.498 496.655 639.034 493.329 635.705 489.753 634.909 485.455 638.025 483.238 630.494 479.084 632.48 475.484 631.832 473.599 625.433 469.546 626.543 464.718 629.433 461.743 626.95 457.934 626.607 454.25 625.839 450.921 624.243 448.153 621.565 446.317 617.331 442.248 617.172 438.048 617.029 435.301 614.498 433.748 610.323 429.962 609.374 426.027 608.485 422.742 606.67 420.188 603.965 419.857 598.879 417.467 596.174 410.48 597.966 410.111 593.195 409.523 588.825 405.841 587.19 401.705 585.791 405.099 578.632 403.535 575.415 396.103 576.135 394.074 573.054 396.366 567.416 392.336 565.583 394.411 560.413 390.434 558.442 390.565 554.445 388.62 551.428 383.198 549.736 378.789 547.426 382.954 542.092 376.419 540.295 384.18 534.289 378.013 532.175 377.584 528.524 378.831 524.578 373.59 521.775 372.369 518.184 376.497 513.989 375.688 510.425 374.455 506.856 376.806 503.137 373.263 499.546 378.782 496.007 377.949 492.421 373.773 488.517 380.552 485.533 381.525 482.123 375.914 477.689 374.898 473.777 373.985 469.793 375.225 466.237 379.828 463.616 385.725 461.595 377.948 455.339 385.64 454.13 388.928 451.591 385.898 446.505 387.257 443.135 392.487 441.641 389.592 436.16 394.804 434.868 392.337 429.285 399.02 429.127 394.064 421.589 404.054 424.03 404.13 419.726 405.331 416.138 406.567 412.49 412.083 412.494 410.615 406.347 414.912 405.426 413.414 398.739 418.006 398.192 421.561 396.678 427.507 398.144 430.067 395.727 431.841 392.224 432.572 387.079 434.151 382.845 440.235 385.532 442.388 382.137 446.075 381.306 449.135 379.393 454.154 381.468 456.82 378.888 458.515 373.841 460.195 368.169 464.111 367.958 468.787 370.238 471.863 367.884 475.394 366.92 478.15 362.772 482.397 364.688 486.889 368.72 489.163 360.497 493.669 365.959 497.026 363.585 500.921 366.665 504.507 367.262 507.871 360.912 511.564 362.39 515.314 358.669 518.768 364.415 522.373 364.54 525.606 368.255 529.872 362.829 533.74 361.897 537.209 363.543 539.826 368.895 543.121 370.404 546.489 371.505 550.672 369.864 553.437 372.987 558.42 369.628 562.159 370.164 563.327 376.901 566.415 378.67 571.958 375.359 575.599 376.326 577.478 380.558 581.164 381.437 585.196 381.878 587.269 385.433 587.395 391.588 590.773 392.932 597.329 390.316 600.426 392.373 602.306 395.851 606.566 396.645 603.364 405.275 608.127 405.528 612.277 406.579 611.89 411.769 619.424 410.128 619.163 415.077 618.784 419.898 625.845 419.278 623.127 425.547 626.066 427.911 625.544 432.394 632.613 432.497 634.784 435.52 634.17 439.93 632.113 444.851 632.448 448.534 641.585 448.708 637.769 454.035 637.477 457.891 642.902 459.943 642.566 463.818 642.535 467.545 643.359 471.038 640.483 475.229 641.056 478.673 651.105 480.861 646.134 485.155 651.44 488.351 649.062 492.215 649.868 495.862 648.574 499.546"/>
    <polygon points="648.574 499.546 652.437 503.295 645.622 506.694 651.322 510.73 650.869 514.435 644.209 517.314 643.888 520.871 642.201 524.185 643.058 527.989 643.483 531.779 644.146 535.706 640.688 538.486 643.232 543.108 638.458 545.311 640.706 550.047 638.675 553.197 633.383 554.826 633.396 558.793 634.376 563.369 631.655 566.073 627.286 567.737 623.181 569.383 627.501 576.463 618.921 574.954 624.324 583.329 619.58 584.356 618.95 588.585 612.85 588.178 612.669 592.889 605.862 591.373 606.032 596.572 604.183 599.883 599.34 599.871 597.166 602.808 598.445 610.214 594.471 611.147 590.502 611.937 588.268 615.18 583.178 614.015 581.691 618.566 576.827 617.378 576.279 624.089 569.352 618.402 567.199 622.165 564.854 625.822 560.034 623.514 557.729 627.564 553.999 627.818 549.995 626.992 547.061 629.699 544.315 633.597 541.231 636.727 536.195 630.14 533.291 634.383 529.072 630.219 525.688 631.596 522.462 635.663 519.023 639.487 515.065 630.879 511.564 638.747 508.026 632.296 504.369 634.504 500.68 635.498 496.655 639.034 493.329 635.705 489.753 634.909 485.455 638.025 483.238 630.494 479.084 632.48 475.484 631.832 473.599 625.433 469.546 626.543 464.718 629.433 461.743 626.95 457.934 626.607 454.25 625.839 450.921 624.243 448.153 621.565 446.317 617.331 442.248 617.172 438.048 617.029 435.301 614.498 433.748 610.323 429.962 609.374 426.027 608.485 422.742 606.67 420.188 603.965 419.857 598.879 417.467 596.174 410.48 597.966 410.111 593.195 409.523 588.825 405.841 587.19 401.705 585.791 405.099 578.632 403.535 575.415 396.103 576.135 394.074 573.054 396.366 567.416 392.336 565.583 394.411 560.413 390.434 558.442 390.565 554.445 388.62 551.428 383.198 549.736 378.789 547.426 382.954 542.092 376.419 540.295 384.18 534.289 378.013 532.175 377.584 528.524 378.831 524.578 373.59 521.775 372.369 518.184 376.497 513.989 375.688 510.425 374.455 506.856 376.806 503.137 373.263 499.546 378.782 496.007 377.949 492.421 373.773 488.517 380.552 485.533 381.525 482.123 375.914 477.689 374.898 473.777 373.985 469.793 375.225 466.237 379.828 463.616 385.725 461.595 377.948 455.339 385.64 454.13 388.928 451.591 385.898 446.505 387.257 443.135 392.487 441.641 389.592 436.16 394.804 434.868 392.337 429.285 399.02 429.127 394.064 421.589 404.054 424.03 404.13 419.726 405.331 416.138 406.567 412.49 412.083 412.494 410.615 406.347 414.912 405.426 413.414 398.739 418.006 398.192 421.561 396.678 427.507 398.144 430.067 395.727 431.841 392.224 432.572 387.079 434.151 382.845 440.235 385.532 442.388 382.137 446.075 381.306 449.135 379.393 454.154 381.468 456.82 378.888 458.515 373.841 460.195 368.169 464.111 367.958 468.787 370.238 471.863 367.884 475.394 366.92 478.15 362.772 482.397 364.688 486.889 368.72 489.163 360.497 493.669 365.959 497.026 363.585 500.921 366.665 504.507 367.262 507.871 360.912 511.564 362.39 515.314 358.669 518.768 364.415 522.373 364.54 525.606 368.255 529.872 362.829 533.74 361.897 537.209 363.543 539.826 368.895 543.121 370.404 546.489 371.505 550.672 369.864 553.437 372.987 558.42 369.628 562.159 370.164 563.327 376.901 566.415 378.67 571.958 375.359 575.599 376.326 577.478 380.558 581.164 381.437 585.196 381.878 587.269 385.433 587.395 391.588 590.773 392.932 597.329 390.316 600.426 392.373 602.306 395.851 606.566 396.645 603.364 405.275 608.127 405.528 612.277 406.579 611.89 411.769 619.424 410.128 619.163 415.077 618.784 419.898 625.845 419.278 623.127 425.547 626.066 427.911 625.544 432.394 632.613 432.497 634.784 435.52 634.17 439.93 632.113 444.851 632.448 448.534 641.585 448.708 637.769 454.035 637.477 457.891 642.902 459.943 642.566 463.818 642.535 467.545 643.359 471.038 640.483 475.229 641.056 478.673 651.105 480.861 646.134 485.155 651.44 488.351 649.062 492.215 649.868 495.862 648.574 499.546" style="fill: none; stroke: #000; stroke-linecap: round; stroke-linejoin: round; stroke-width: 35px;"/>
  </g>
</svg>