<?xml version="1.0" encoding="UTF-8"?>
<svg id="Sticker" xmlns="http://www.w3.org/2000/svg" width="1000" height="1000" viewBox="0 0 1000 1000">
  <path d="M121.247,660.887l3.573,3.7,3.572.096,3.572-6.756,3.572,1.726,3.573,3.477,3.574-1.597,3.573-5.666,3.573,4.907,3.572,1.384,3.568-3.847,3.567,6.131,3.567-8.508,3.568,6.455,3.57-1.581,3.572-.341,3.574.004,3.573,2.547,3.571-6.774,3.57,8.043,3.569-1.05,3.57,1.04,3.571-6.63,3.574,2.529,3.574.56,3.572-4.513,3.571,1.132,3.571,3.581,3.572-1.97,3.575-.525,3.574,2.127,3.572-1.69,3.572,2.548,3.574-1.068,3.576,4.554,3.574-4.524,3.573-3.683,3.575.142,3.576.07,3.574-.675,3.575,7.863,3.576-5.294,3.574,2.576,3.576,3.495,3.575-4.163,3.576,2.717,3.576,1.121,3.577-3.739,3.572-2.396,3.576,5.376,3.572-6.787,3.576-1.653,3.574,8.833,3.578-1.675,3.575-5.231,3.577,4.577,3.579.356,3.579-3.085,3.579,2.943,3.578.591,3.578-1.45,3.579-5.303,3.585,8.111,3.585-4.094,3.612-4.529,3.611,6.353,3.611,1.234,3.611-5.462,3.611,5.018,3.611-3.67,3.612,2.873,3.613-5.533,3.614,1.349,3.613,4.438,3.612.081,3.612-2.835,3.611,5.826,3.612-.363,3.612-2.55,3.613-1.534,3.614-1.285,3.613,3.289,3.613-1.466,3.612,2.01,3.612,1.91,3.612-6.894,3.613,3.93,3.614-3.493,3.614-1.089,3.613-.946,3.612,2.229,3.612-1.91,3.613,8.333,3.614-7.542,3.614.13,3.613-1.008,3.613,7.166,3.608-.435,3.608-2.078,3.608-6.2,3.609.063,3.61.801,3.612,6.626,3.615-5.464,3.613.883,3.611,6.995,3.61-6.984,3.61,5.82,3.61-7.243,3.612,3.788,3.614-1.216,3.615,1.363,3.612,2.919,3.611-4.487,3.611.097,3.613,3.025,3.615-1.455,3.615-.231,3.613,3.791,3.613-6.279,3.614-.133,3.617,3.945,3.614-3.539,3.613,5.386,3.615-3.199,3.616-5.045,3.614,2.687,3.615,3.283,3.617-4.664,3.615,3.422,3.617-1.351,3.616-2.12,3.616-.06,3.616,3.565,3.617-2.607,3.616,5.557,3.616-1.767,3.612.043,3.616,1.975,3.614-.605,3.618-5.819,3.616,2.992,3.617,2.751,3.619,1.288,3.619-3.956,3.619,2.529,3.618-4.941,3.619,6.637,3.619-4.653,3.625,3.949,3.625-6.457,3.6,2.868,3.6,3.116,3.601-5.121,3.602-.641,3.602,3.034,3.601-.37,3.601-4.366,3.596,6.532,3.595-4.26,3.596,3.937,3.596-5.972,3.598,3.699,3.6,2.647,3.603-.616,3.601-4.118,3.599,7.49,3.598-5.195,3.598,1.417,3.598,2.499,3.6-6.196,3.602-.931,3.603,3.896,3.6-3.678,3.599,3.227,3.599-4.171,3.601.172,3.603,6.064,3.602-3.17,3.601-.661,3.6,5.179,3.602-7.469,3.605,8.625,3.602-8.151,3.601,4.802,3.603-3.602,3.604.894,3.602,2.842,3.603-1.257,3.604-.805,3.603-1.33,3.605,4.576,3.604-6.827,3.604,8.736,3.604-.395,3.605-4.78,3.6-.618,3.604.262,3.6,5.48,3.605-9.193,3.603,4.702,3.606,4.528,3.604-8.401,3.606,7.275,3.607-8.05,3.607,4.099,3.607.338,3.606,3.826,3.607-6.369,3.608-.904,3.613,5.068,3.613-1.125M880.547,343.71l-3.6-3.7-3.6-.096-3.601,6.756-3.602-1.726-3.602-3.477-3.601,1.597-3.601,5.666-3.596-4.907-3.595-1.384-3.596,3.847-3.596-6.131-3.598,8.508-3.6-6.455-3.603,1.581-3.601.341-3.599-.004-3.598-2.547-3.598,6.774-3.598-8.043-3.6,1.05-3.602-1.04-3.603,6.63-3.6-2.529-3.599-.56-3.599,4.513-3.601-1.132-3.603-3.581-3.602,1.97-3.601.525-3.6-2.127-3.602,1.69-3.605-2.548-3.602,1.068-3.601-4.554-3.603,4.524-3.604,3.683-3.602-.142-3.603-.07-3.604.675-3.603-7.863-3.605,5.294-3.604-2.576-3.604-3.495-3.604,4.163-3.605-2.717-3.6-1.121-3.604,3.739-3.6,2.396-3.605-5.376-3.603,6.787-3.606,1.653-3.604-8.833-3.606,1.675-3.607,5.231-3.607-4.577-3.607-.356-3.606,3.085-3.607-2.943-3.608-.591-3.613,1.45-3.613,5.303-3.612-8.111-3.611,4.094-3.611,4.529-3.611-6.353-3.611-1.234-3.611,5.462-3.612-5.018-3.613,3.67-3.614-2.873-3.613,5.533-3.612-1.349-3.612-4.438-3.611-.081-3.612,2.835-3.612-5.826-3.613.363-3.614,2.55-3.613,1.534-3.613,1.285-3.612-3.289-3.612,1.466-3.612-2.01-3.613-1.91-3.614,6.894-3.614-3.93-3.613,3.493-3.612,1.089-3.612.946-3.613-2.229-3.614,1.91-3.614-8.333-3.613,7.542-3.613-.13-3.608,1.008-3.608-7.166-3.608.435-3.609,2.078-3.61,6.2-3.612-.063-3.615-.801-3.613-6.626-3.611,5.464-3.61-.883-3.61-6.995-3.61,6.984-3.612-5.82-3.614,7.243-3.615-3.788-3.612,1.216-3.611-1.363-3.611-2.919-3.613,4.487-3.615-.097-3.615-3.025-3.613,1.455-3.613.231-3.614-3.791-3.617,6.279-3.614.133-3.613-3.945-3.615,3.539-3.616-5.386-3.614,3.199-3.615,5.045-3.617-2.687-3.615-3.283-3.617,4.664-3.616-3.422-3.616,1.351-3.616,2.12-3.617.06-3.616-3.565-3.616,2.607-3.612-5.557-3.616,1.767-3.614-.043-3.618-1.975-3.616.605-3.617,5.819-3.619-2.992-3.619-2.751-3.619-1.288-3.618,3.956-3.619-2.529-3.619,4.941-3.625-6.637-3.625,4.653-3.573-3.949-3.572,6.457-3.572-2.868-3.572-3.116-3.573,5.121-3.574.641-3.573-3.034-3.573.37-3.572,4.366-3.568-6.532-3.567,4.26-3.567-3.937-3.568,5.972-3.57-3.699-3.572-2.647-3.574.616-3.573,4.118-3.571-7.49-3.57,5.195-3.569-1.417-3.57-2.499-3.571,6.196-3.574.931-3.574-3.896-3.572,3.678-3.571-3.227-3.571,4.171-3.572-.172-3.575-6.064-3.574,3.17-3.572.661-3.572-5.179-3.574,7.469-3.576-8.625-3.574,8.151-3.573-4.802-3.575,3.602-3.576-.894-3.574-2.842-3.575,1.257-3.576.805-3.574,1.33-3.576-4.576-3.575,6.827-3.576-8.736-3.576.395-3.577,4.78-3.572.618-3.576-.262-3.572-5.48-3.576,9.193-3.574-4.702-3.578-4.528-3.575,8.401-3.577-7.275-3.579,8.05-3.579-4.099-3.579-.338-3.578-3.826-3.578,6.369-3.579.904-3.585-5.068-3.585,1.125M661.441,881.944l3.7-3.574.096-3.574-6.756-3.574,1.726-3.574,3.477-3.575-1.597-3.575-5.666-3.574,4.907-3.574,1.384-3.569-3.847-3.569,6.131-3.569-8.508-3.57,6.455-3.571-1.581-3.573-.341-3.576.004-3.574,2.547-3.572-6.774-3.571,8.043-3.571-1.05-3.572,1.04-3.573-6.63-3.575,2.529-3.576.56-3.574-4.513-3.573,1.132-3.573,3.581-3.574-1.97-3.577-.525-3.576,2.127-3.574-1.69-3.574,2.548-3.575-1.068-3.578,4.554-3.575-4.524-3.575-3.683-3.576.142-3.577.07-3.576-.675-3.576,7.863-3.578-5.294-3.576,2.576-3.578,3.495-3.577-4.163-3.578,2.717-3.577,1.121-3.578-3.739-3.574-2.396-3.578,5.376-3.574-6.787-3.578-1.653-3.576,8.833-3.579-1.675-3.577-5.231-3.579,4.577-3.58.356-3.58-3.085-3.581,2.943-3.579.591-3.58-1.45-3.581-5.303-3.587,8.111-3.587-4.094-3.589-4.529-3.588,6.353-3.587,1.234-3.587-5.462-3.587,5.018-3.587-3.67-3.588,2.873-3.588-5.533-3.589,1.349-3.59,4.438-3.589.081-3.588-2.835-3.588,5.826-3.588-.363-3.588-2.55-3.588-1.534-3.589-1.285-3.59,3.289-3.589-1.466-3.589,2.01-3.588,1.91-3.588-6.894-3.588,3.93-3.589-3.493-3.59-1.089-3.59-.946-3.589,2.229-3.588-1.91-3.589,8.333-3.589-7.542-3.59.13-3.59-1.008-3.589,7.166-3.589-.435-3.584-2.078-3.584-6.2-3.584.063-3.585.801-3.586,6.626-3.588-5.464-3.591.883-3.589,6.995-3.587-6.984-3.586,5.82-3.586-7.243-3.586,3.788-3.588-1.216-3.59,1.363-3.591,2.919-3.589-4.487-3.587.097-3.588,3.025-3.589-1.455-3.591-.231-3.591,3.791-3.589-6.279-3.589-.133-3.59,3.945-3.593-3.539-3.59,5.386-3.59-3.199-3.591-5.045-3.592,2.687-3.59,3.283-3.591-4.664-3.593,3.422-3.591-1.351-3.593-2.12-3.592-.06-3.592,3.565-3.592-2.607-3.593,5.557-3.588-1.767-3.593.043-3.589,1.975-3.593-.605-3.591-5.819-3.594,2.992-3.592,2.751-3.594,1.288-3.595-3.956-3.595,2.529-3.595-4.941-3.594,6.637-3.595-4.653-3.596,3.949-3.602-6.457-3.602,2.868-3.574,3.116-3.574-5.121-3.574-.641-3.574,3.034-3.575-.37-3.575-4.366-3.574,6.532-3.574-4.26-3.569,3.937-3.569-5.972-3.569,3.699-3.57,2.647-3.571-.616-3.574-4.118-3.576,7.49-3.574-5.195-3.572,1.417-3.571,2.499-3.571-6.196-3.572-.931-3.573,3.896-3.576-3.678-3.576,3.227-3.574-4.171-3.573.172-3.573,6.064-3.574-3.17-3.577-.661-3.576,5.179-3.574-7.469-3.574,8.625-3.575-8.151-3.578,4.802-3.576-3.602-3.575.894-3.576,2.842-3.578-1.257-3.576-.805-3.577-1.33-3.578,4.576-3.576-6.827-3.578,8.736-3.577-.395-3.578-4.78-3.578-.618-3.579.262-3.574,5.48-3.578-9.193-3.574,4.702-3.578,4.528-3.576-8.401-3.579,7.275-3.577-8.05-3.579,4.099-3.581.338-3.581,3.826-3.581-6.369-3.58-.904-3.58,5.068-3.581-1.125-3.587-2.848-3.587M347.041,881.944l3.7-3.574.096-3.574-6.756-3.574,1.726-3.574,3.477-3.575-1.597-3.575-5.666-3.574,4.907-3.574,1.384-3.569-3.847-3.569,6.131-3.569-8.508-3.57,6.455-3.571-1.581-3.573-.341-3.576.004-3.574,2.547-3.572-6.774-3.571,8.043-3.571-1.05-3.572,1.04-3.573-6.63-3.575,2.529-3.576.56-3.574-4.513-3.573,1.132-3.573,3.581-3.574-1.97-3.577-.525-3.576,2.127-3.574-1.69-3.574,2.548-3.575-1.068-3.578,4.554-3.575-4.524-3.575-3.683-3.576.142-3.577.07-3.576-.675-3.576,7.863-3.578-5.294-3.576,2.576-3.578,3.495-3.577-4.163-3.578,2.717-3.577,1.121-3.578-3.739-3.574-2.396-3.578,5.376-3.574-6.787-3.578-1.653-3.576,8.833-3.579-1.675-3.577-5.231-3.579,4.577-3.58.356-3.58-3.085-3.581,2.943-3.579.591-3.58-1.45-3.581-5.303-3.587,8.111-3.587-4.094-3.589-4.529-3.588,6.353-3.587,1.234-3.587-5.462-3.587,5.018-3.587-3.67-3.588,2.873-3.588-5.533-3.589,1.349-3.59,4.438-3.589.081-3.588-2.835-3.588,5.826-3.588-.363-3.588-2.55-3.588-1.534-3.589-1.285-3.59,3.289-3.589-1.466-3.589,2.01-3.588,1.91-3.588-6.894-3.588,3.93-3.589-3.493-3.59-1.089-3.59-.946-3.589,2.229-3.588-1.91-3.589,8.333-3.589-7.542-3.59.13-3.59-1.008-3.589,7.166-3.589-.435-3.584-2.078-3.584-6.2-3.584.063-3.585.801-3.586,6.626-3.588-5.464-3.591.883-3.589,6.995-3.587-6.984-3.586,5.82-3.586-7.243-3.586,3.788-3.588-1.216-3.59,1.363-3.591,2.919-3.589-4.487-3.587.097-3.588,3.025-3.589-1.455-3.591-.231-3.591,3.791-3.589-6.279-3.589-.133-3.59,3.945-3.593-3.539-3.59,5.386-3.59-3.199-3.591-5.045-3.592,2.687-3.59,3.283-3.591-4.664-3.593,3.422-3.591-1.351-3.593-2.12-3.592-.06-3.592,3.565-3.592-2.607-3.593,5.557-3.588-1.767-3.593.043-3.589,1.975-3.593-.605-3.591-5.819-3.594,2.992-3.592,2.751-3.594,1.288-3.595-3.956-3.595,2.529-3.595-4.941-3.594,6.637-3.595-4.653-3.596,3.949-3.602-6.457-3.602,2.868-3.574,3.116-3.574-5.121-3.574-.641-3.574,3.034-3.575-.37-3.575-4.366-3.574,6.532-3.574-4.26-3.569,3.937-3.569-5.972-3.569,3.699-3.57,2.647-3.571-.616-3.574-4.118-3.576,7.49-3.574-5.195-3.572,1.417-3.571,2.499-3.571-6.196-3.572-.931-3.573,3.896-3.576-3.678-3.576,3.227-3.574-4.171-3.573.172-3.573,6.064-3.574-3.17-3.577-.661-3.576,5.179-3.574-7.469-3.574,8.625-3.575-8.151-3.578,4.802-3.576-3.602-3.575.894-3.576,2.842-3.578-1.257-3.576-.805-3.577-1.33-3.578,4.576-3.576-6.827-3.578,8.736-3.577-.395-3.578-4.78-3.578-.618-3.579.262-3.574,5.48-3.578-9.193-3.574,4.702-3.578,4.528-3.576-8.401-3.579,7.275-3.577-8.05-3.579,4.099-3.581.338-3.581,3.826-3.581-6.369-3.58-.904-3.58,5.068-3.581-1.125-3.587-2.848-3.587" style="fill: none; stroke: #000; stroke-linecap: round; stroke-linejoin: round; stroke-width: 35px;"/>
</svg>