<?xml version="1.0" encoding="UTF-8"?>
<svg id="Sticker" xmlns="http://www.w3.org/2000/svg" width="1000" height="1000" viewBox="0 0 1000 1000">
  <polygon points="873.002 407.136 875.548 402.721 875.164 399.05 873.807 395.679 870.024 393.281 872.587 388.291 868.595 386.116 865.082 383.912 865.364 379.678 864.8 375.749 864.643 371.341 861.779 368.769 858.997 366.202 853.696 366.128 850.584 364.274 850.49 358.913 845.883 358.892 843.222 356.464 838.248 357.873 836.812 353.28 833.034 353.008 828.925 353.944 827.248 348.333 823.178 349.49 820.859 344.092 816.846 345.386 813.359 344.319 809.248 348.452 805.882 347.128 802.644 341.069 798.907 345.288 795.28 341.057 791.761 344.541 788.425 348.054 784.2 340.593 780.875 343.8 777.389 344.959 774.533 349.839 770.892 349.443 766.947 347.74 762.427 343.818 758.862 344.632 756.028 348.333 752.411 348.768 750.119 353.938 744.962 349.059 744.052 358.358 738.065 351.329 735.826 356.037 731.943 355.788 728.332 356.386 727.249 363.794 723.977 365.147 719.127 362.508 716.285 365.025 710.964 361.528 709.779 367.968 706.287 368.889 700.485 364.637 700.576 373.602 696.03 372.257 692.007 372.128 688.403 372.928 687.054 378.378 681.531 375.28 681.775 383.787 676.784 381.838 675.644 387.426 669.865 384.069 667.341 386.965 663.816 387.972 659.688 387.892 658.095 392.447 653.561 391.672 651.116 394.652 647.877 396.215 644.515 397.571 641.531 399.581 637.65 400.069 634.697 402.143 633.508 407.149 630.638 409.322 624.343 405.891 624.773 413.45 620.893 413.986 618.67 417.184 612.71 414.453 611.742 419.632 608.512 421.237 607.626 426.462 601.076 422.955 600.446 428.541 599.09 432.967 592.623 431.627 594.327 426.84 600.216 427.368 603.231 425.233 599.969 417.398 602.219 414.598 610.483 417.176 611.021 412.82 615.575 412.025 611.609 403.755 616.646 403.377 622.988 404.083 625.293 401.29 626.815 397.834 630.467 396.175 632.275 392.963 634.132 389.797 637.362 387.759 639.425 384.762 636.54 377.804 640.622 376.451 640.035 371.404 647.457 372.625 644.085 365.464 650.601 365.911 655.263 364.891 655.667 360.665 655.633 356.149 657.659 353.164 656.865 348.166 659.647 345.744 666.747 346.311 668.415 343.055 665.972 337.034 671.303 336.268 671.141 331.843 673.032 328.784 676.539 326.746 676.991 322.78 680.801 320.888 681.967 317.376 687.768 316.58 685.25 310.944 689.99 309.457 684.801 302.503 692.045 302.311 693.187 298.823 698.015 297.188 698.443 293.326 698.322 289.243 701.522 286.708 702.724 283.247 702.704 279.287 705.076 276.324 704.516 272.216 705.295 268.658 707.976 265.754 705.197 261.075 705.149 257.365 712.399 255.646 711.823 251.731 710.07 247.637 713.185 244.587 713.763 240.998 712.76 237.207 711.947 233.526 709.852 229.846 715.526 226.526 715.039 222.873 718.069 219.064 709.998 216.045 713.114 212.134 712.113 208.664 708.776 205.787 713.377 200.861 712.826 197.107 712.97 192.988 707.102 191.495 704.593 188.761 703.632 185.203 703.703 180.816 698.651 179.977 697.042 176.719 697.439 171.502 693.359 170.297 688.219 170.53 687.867 165.512 686.875 160.845 680.695 163.056 680.263 157.281 676.798 155.85 671.475 157.757 668.237 156.297 668.207 148.429 663.486 149.731 657.903 153.415 655.097 151.104 651.37 151.108 648.381 149.197 645.573 146.53 643.903 139.136 638.685 145.214 636.408 138.411 632.905 136.533 628.872 138.732 624.855 144.936 621.508 138.617 617.713 136.108 614.697 144.506 610.369 138.542 607.214 141.708 604.905 147.023 599.614 141.547 597.485 146.327 593.299 145.56 589.925 146.928 585.737 146.956 585.631 153.66 582.459 155.173 578.737 156.087 573.883 155.888 574.018 161.457 571.228 163.651 569.911 167.26 565.579 168.116 563.97 171.423 560.641 173.343 557.381 175.414 556.149 178.967 556.175 183.281 554.262 186.261 553.494 189.924 553.216 193.809 545.902 193.839 545.755 197.828 542.716 200.323 543.859 204.856 539.555 206.812 539.606 210.77 537.064 213.589 537.974 217.84 539.46 222.248 535.413 224.5 536.94 228.85 527.254 229.208 531.607 234.516 527.024 236.776 525.759 240.16 531.175 245.589 526.513 247.909 527.939 252.043 527.715 255.677 519.219 257.076 525.339 262.409 520.233 264.794 524.25 269.479 516.014 271.183 521.168 276.076 515.289 278.423 515.131 282.077 519.081 286.585 513.221 289.032 519.36 293.916 512.916 296.304 509.733 299.366 513.539 303.72 515.346 307.676 507.967 310.043 512.925 314.517 510.099 317.688 514.346 321.981 509.14 324.805 513.909 329.129 513.31 332.645 507.807 335.491 504.849 338.718 506.573 342.57 503.131 345.759 509.562 350.164 508.358 353.622 502.635 356.574 502.755 360.21 508.192 364.404 501.141 367.276 501.042 370.88 505.905 374.961 500.576 378.063 498.73 381.501 502.83 384.859 500.584 382.156 498.316 378.871 500.644 374.867 504.015 370.673 501.008 367.508 499.235 364.152 497.019 360.88 495.23 357.544 502.49 352.577 496.302 350.038 491.467 347.288 497.162 342.533 490.163 340.236 490.345 336.541 496.953 331.51 496.565 327.89 491.165 325.349 494.689 320.88 488.409 318.584 490.496 314.409 491.432 310.476 490.853 306.89 485.695 304.433 488.106 300.109 489.578 295.99 480.513 294.634 480.287 290.981 480.91 287.083 477.517 284.308 483.514 278.83 483.125 275.159 483.168 271.345 475.529 269.924 476.235 265.922 477.829 261.597 477.455 257.891 473.109 255.552 469.667 252.948 466.45 250.306 472.414 244.242 469.47 241.48 468.565 237.941 460.863 237.183 461.003 233.261 464.795 227.706 464.419 223.886 463.071 220.484 455.311 220.153 452.151 217.736 453.184 213.221 452.967 209.276 447.421 208.218 450.735 202.239 445.533 201.112 447.302 195.82 439.979 196.223 438.055 193.281 437.721 189.218 439.082 183.791 434.845 182.468 434.713 177.942 430.333 176.9 428.82 173.429 423.914 173.159 420.812 171.322 424.087 162.503 418.83 162.898 417.472 158.705 415.028 155.69 406.957 161.135 405.212 157.41 402.687 154.72 398.056 156.255 398.267 146.874 394.775 145.345 390.965 144.779 385.816 150.059 382.955 146.55 379.372 146.223 376.01 143.227 372.324 142.027 368.695 148.064 365.262 148.726 360.88 140.963 357.641 144.855 353.513 142.943 351.545 150.721 347.214 148.259 345.06 153.35 342.091 155.368 336.407 150.406 332.119 149.707 329.323 152.523 329.311 160.769 322.413 155.184 320.213 158.771 316.689 159.94 312.244 159.771 311.158 164.768 310.157 169.491 304.176 167.621 300.321 168.816 300.545 174.552 296.428 175.549 294.165 178.468 297.101 185.549 291.623 185.694 289.225 188.366 288.687 192.176 283.566 193.491 282.542 197.081 281.309 200.533 278.342 203.433 285.212 209.069 275.244 210.455 280.429 215.076 278.111 218.376 274.572 221.8 280.915 225.596 279.144 229.127 279.86 232.629 282.769 235.852 279.899 239.757 277.898 243.743 279.212 247.187 278.359 251.128 286.247 252.755 285.707 256.551 287.3 259.73 289.951 262.509 288.347 266.843 286.828 271.284 288.14 274.645 286.482 279.344 289.571 281.941 295.385 283.135 296.519 286.549 298.707 289.425 301.247 292.091 296.9 298.613 300.572 300.686 307.882 300.523 302.48 307.978 306.986 309.433 312.882 309.915 312.853 314.179 315.592 316.642 318.95 318.66 316.236 324.885 316.156 329.361 322.427 329.29 325.667 331.349 330.002 332.562 329.662 337.28 326.969 343.874 332.247 344.334 337.796 344.509 336.37 350.231 336.527 354.738 342.317 354.635 342.464 359.179 342.69 363.7 351.281 361.098 352.257 364.968 352.377 369.613 353.427 373.479 358.121 374.113 363.45 374.134 359.725 382.351 366.633 380.897 365.864 386.491 366.734 390.606 372.539 390.085 373.114 394.492 380.857 392.045 378.036 399.744 379.095 403.739 387.019 401.001 387.781 405.281 392.419 405.715 396.001 407.178 393.895 414.399 395.385 418.013 401.385 417.004 403.003 420.479 403.192 425.461 410.577 422.92 412.193 429.074 408.964 423.804 402.189 428.375 399.923 425.102 396.122 424.536 395.272 418.695 393.622 414.232 387.966 417.03 387.054 411.173 382.536 411.938 380.827 407.483 374.996 410.776 372.453 407.88 368.525 407.634 367.474 401.803 362.631 403.361 359.692 401.192 356.98 398.55 354.923 394.549 349.057 398.355 348.343 391.52 344.684 390.788 341.529 388.993 338.146 387.687 333.798 388.516 329.135 390.119 326.779 386.568 325.281 380.968 319.519 385.249 316.376 383.468 315.703 375.655 311.72 375.814 308.152 374.98 304.342 374.793 300.288 375.299 296.866 374.176 293.961 371.631 288.981 374.913 288.31 365.866 285.016 364.243 279.95 368.075 277.237 364.702 272.395 368.218 268.896 367.466 265.305 367.064 262.541 363.629 259.288 361.878 255.227 363.365 253.565 354.663 248.147 362.388 246.021 354.935 242.538 353.705 238.651 354.734 235.022 354.419 230.805 358.461 228.154 350.628 224.313 351.996 220.113 358.735 217.075 350.454 213.434 349.175 209.702 350.608 206.031 351.402 202.631 358.096 198.98 355.746 195.356 355.166 192.077 357.659 187.859 353.622 183.582 350.951 180.977 356.305 177.25 356.423 174.231 358.924 169.66 357.007 167.697 361.87 162.463 359.322 160.544 363.662 158.267 366.891 155.585 369.265 153.514 372.351 148.98 372.422 148.756 377.39 145.153 378.725 144.141 382.473 142.408 385.473 134.848 384.418 131.15 386.514 134.914 393.012 134.61 396.82 125.661 396.515 124.854 400.281 126.832 405.032 122.281 407.314 126.171 412.397 121.176 414.737 121.421 418.587 126.67 423.457 123.612 426.44 124.363 430.138 116.474 432.607 118.831 436.572 123.591 440.534 120.131 443.87 115.965 447.444 121.082 450.96 117.093 454.824 122.879 457.823 117.773 462.218 119.61 465.624 118.646 469.701 127.038 470.884 127.166 474.455 126.474 478.54 129.764 480.818 131.837 483.587 132.973 486.941 130.138 493.425 137.642 492.058 136.109 498.185 141.491 497.956 143.091 501.435 145.213 504.495 147.151 507.95 148.801 512.054 152.186 513.732 157.807 511.48 162.303 510.636 162.491 518.062 165.622 520.034 168.609 522.399 173.285 520.634 176.902 521.244 179.628 524.352 185.141 519.016 185.831 528.955 190.978 524.111 194.344 525.309 197.757 526.361 201.999 523.705 204.563 528.708 207.679 531.507 211.539 530.406 215.121 530.726 218.653 531.338 221.937 533.804 226.327 527.716 229.684 529.485 232.81 533.803 236.067 537.605 239.916 535.003 243.66 533.088 247.267 532.7 250.964 530.508 254.466 531.668 257.736 539.349 261.586 531.866 265.187 530.234 268.607 538.674 272.264 533.471 275.828 539.397 279.427 536.215 282.991 533.635 286.566 533.533 290.177 534.948 293.657 531.351 297.333 534.538 300.862 533.108 304.682 538.37 308.199 536.538 311.491 530.974 315.052 530.705 318.953 535.617 322.515 535.021 326.204 536.152 329.386 530.753 333.146 532.794 336.39 528.718 339.941 528.323 344.254 535.825 347.726 534.328 351.277 533.674 354.994 534.592 358.649 534.861 361.293 526.333 365.003 527.233 368.519 526.497 372.169 526.851 376.258 530.554 378.903 523.199 383.332 529.256 388.183 526.023 384.989 532.257 378.792 526.372 376.401 530.108 374.895 535.979 368.38 529.536 365.295 531.539 363.301 536.14 360.73 539.308 357.433 540.744 352.47 538.319 350.336 542.461 345.339 540.056 342.449 542.459 341.059 548.168 337.04 548.022 332.878 547.603 329.235 548.344 325.814 549.57 321.994 549.974 322.601 559.538 318.066 558.43 313.011 556.346 311.848 562.079 305.911 558.358 303.665 561.911 301.215 565.022 295.769 562.47 294.372 567.532 290.316 567.651 287.867 570.704 285.539 573.933 282.072 575.134 281.343 581.043 273.544 574.907 274.231 583.093 271.291 585.158 267.882 586.466 264.618 588.021 261.381 589.63 255.484 587.237 255.15 593.245 249.809 591.84 250.675 599.377 247.91 601.646 243.248 601.334 237.632 599.875 237.163 605.231 236.119 609.707 230.289 608.213 226.837 609.752 225.802 614.129 220.163 613.234 217.383 615.649 216.617 620.184 217.513 626.265 209.814 623.722 208.547 627.588 209.283 633.158 206.736 635.666 204.579 638.509 197.941 637.863 195.293 640.514 194.54 644.52 192.337 647.478 195.877 653.924 186.645 652.753 192.797 660.149 188.739 662.066 182.586 663.348 180.277 666.51 180.236 670.503 179.891 674.312 183.916 679.016 177.452 681.481 181.373 685.745 182.746 689.398 181.991 692.863 178.403 696.525 181.672 699.925 185.298 702.964 186.211 706.224 181.005 711.007 187.473 712.875 186.424 716.856 187.565 720.179 188.181 723.76 187.845 727.907 190.304 730.705 192.126 733.814 192.755 737.692 197.841 738.624 200.658 740.949 201.187 744.989 198.624 751.704 202.933 752.92 207.577 753.636 209.762 756.486 209.297 762.075 213.975 762.473 220.326 760.623 219.978 766.558 220.799 771.522 228.545 766.691 231.155 768.906 234.362 770.115 233.767 778.994 240.335 773.174 242.464 777.078 245.323 779.649 248.65 781.058 251.46 785.49 255.321 785.292 259.289 782.768 263.014 777.805 266.453 782.245 270.039 782.503 273.512 781.442 276.684 778.993 281.112 783.006 284.052 779.776 286.382 775.229 291.379 779.131 294.527 777.23 298.825 778.121 299.58 771.052 304.469 773.009 309.149 774.106 309.814 767.855 313.064 766.373 313.989 761.199 317.508 760.211 323.819 763.133 326.241 760.302 330.027 759.334 329.983 753.387 333.021 751.499 338.952 753.051 342.432 751.527 343.363 747.078 344.424 742.885 348.136 741.624 353.49 742.025 350.27 733.527 355.442 733.685 354.372 727.619 362.28 730.306 362.224 725.295 361.757 719.998 364.225 717.455 368.934 716.905 369.46 712.617 371.596 709.767 378.991 711.382 379.544 707.148 383.424 705.696 385.629 702.848 388.026 700.155 384.972 693.155 394.059 695.728 395.311 692.133 393.291 686.071 399.509 686.276 401.604 683.348 403.888 680.559 400.83 673.892 402.925 671.005 406.858 669.421 410.516 667.616 407.792 661.348 414.765 661.824 418.621 660.107 419.002 656.02 423.484 654.696 420.816 648.602 424.765 646.91 427.659 644.508 427.578 640.177 426.061 634.95 432.506 634.812 432.173 630.362 435.143 627.996 438.448 625.823 441.221 623.31 438.089 617.195 445.859 617.719 448.359 615.023 444.602 608.602 448.396 606.859 450.843 611.236 444.878 613.18 449.561 618.349 443.699 620.353 442.019 623.617 437.637 626.107 439.924 630.522 438.031 633.739 436.915 637.179 440.566 641.917 438.217 645.01 438.135 648.713 431.463 650.702 434.923 655.321 430.254 657.87 428.537 661.179 433.405 666.08 429.395 668.834 434.691 673.766 430.83 676.572 424.854 678.944 431.131 684.003 428.288 687.077 423.767 689.833 425.278 693.826 424.165 697.29 421.351 700.443 420.268 703.934 420.619 707.68 422.333 711.641 422.956 715.397 419.828 718.563 425.621 723.066 423.471 726.376 418.052 729.284 416.467 732.739 414.187 736.134 418.849 740.299 418.147 743.854 414.391 747.145 417.228 751.021 422.386 754.997 414.324 758.086 416.844 761.849 421.268 765.625 417.746 769.093 412.003 772.611 417.859 776.284 418.237 779.872 415.011 783.544 415.292 787.17 412.488 790.965 417.831 794.271 415.749 798.07 421.827 801.08 415.866 805.396 415.626 809.129 418.662 812.346 415.235 816.692 416.381 820.253 425.773 821.802 423.894 825.927 425.437 829.184 422.903 833.768 424.089 837.231 428.937 839.207 426.825 844.037 432.136 845.496 435.472 847.669 433.724 852.728 438.395 853.929 437.101 859.155 440.844 860.787 445.595 861.262 445.963 865.639 446.498 870.263 446.778 875.709 452.887 873.885 457.428 873.49 456.847 881.338 459.961 883.582 464.018 883.871 467.059 886.334 472.227 882.943 475.836 883.269 479.218 884.267 481.561 890.261 485.733 888.045 489.616 886.378 492.911 888.969 496.775 885.645 500.125 889.625 503.772 887.703 507.371 889.765 511.111 892.756 514.856 893.534 518.527 892.806 521.41 885.825 524.749 884.458 528.006 882.998 532.56 887.468 535.28 883.633 537.872 880.206 541.25 879.574 546.083 882.314 550.041 882.257 550.328 875.04 555.337 876.826 557.869 874.22 564.417 876.985 563.506 870.007 566.092 867.617 571.318 867.692 569.273 861.11 574.625 860.88 572.501 855.065 580.717 856.126 575.997 849.297 582.254 848.593 582.871 844.913 586.576 842.525 583.158 837.442 588.537 835.457 586.163 831.027 587.156 827.637 590.139 824.65 594.516 821.785 595.311 818.168 588.367 813.541 587.82 809.948 593.632 806.93 596.175 803.471 592.348 799.638 593.355 796.084 594 792.495 595.644 788.879 588.115 785.419 588.351 781.891 592.681 778.14 592.015 774.588 596.728 770.631 591.211 767.469 589.352 764.061 593.715 759.984 586.279 757.261 592.377 752.873 593.468 749.073 592.408 745.573 587.065 742.78 584.085 739.668 583.62 736.142 589.736 731.372 584.099 728.801 581.287 725.731 581.02 722.153 582.582 718.165 586.301 713.655 577.35 712.039 578.096 708.205 576.109 705.023 580.392 700.27 579.814 696.712 573.109 694.776 579.73 689.296 577.413 686.202 571.04 684.268 570.43 680.735 576.801 675.15 571.716 672.905 566.343 670.79 570.265 665.851 569.01 662.485 569.341 658.615 567.975 655.278 565.762 652.223 568.804 647.432 565.414 644.769 558.359 643.375 559.91 639.062 555.803 636.703 558.309 632.032 561.296 627.154 552.99 626.327 557.814 620.759 557.809 616.93 550.647 615.759 551.702 611.542 548.975 606.63 549.631 612.924 551.936 615.719 559.639 614.771 557.197 620.85 558.58 624.286 564.254 624.687 564.821 628.698 567.34 631.321 571.097 633.041 567.381 640.214 571.647 641.565 573.786 644.473 573.252 649.39 582.919 646.615 583.423 650.743 580.55 657.5 586.671 657.326 588.085 660.797 590.57 663.428 590.444 668.151 597.564 667.043 596.299 672.717 596.135 677.542 601.098 678.123 602.134 681.977 609.405 680.522 611.132 683.768 609.94 689.586 616.766 688.363 614.038 695.63 620.23 694.891 623.57 696.693 626.069 699.257 623.388 706.744 625.182 710.059 627.718 712.671 631.616 713.926 638.064 712.555 638.838 716.897 639.849 721.055 645.774 720.02 648.099 722.774 651.889 723.91 653.677 727.265 655.75 730.331 658.018 733.2 662.204 733.755 663.634 737.668 667.474 738.572 670.285 740.76 672.061 744.359 671.371 751.527 678.075 748.266 681.459 749.636 682.197 755.116 685.763 756.26 687.528 760.427 692.455 759.132 695.589 760.917 698.789 762.58 701.221 765.901 703.386 770.106 707.407 770.131 712.617 766.671 714.096 773.52 718.847 770.629 721.297 775.637 726.324 770.145 729.368 773.174 733.217 771.57 736.22 777.76 740.281 770.512 743.782 778.108 747.358 774.277 750.539 770.186 754.813 775.158 758.524 774.806 762.657 775.809 763.472 766.117 767.031 766.02 770.258 764.873 773.035 762.774 777.197 763.203 780.552 761.925 786.491 764.243 789.119 761.476 788.063 754.324 794.948 756.813 795.83 752.344 795.633 747.07 799.09 745.493 802.887 744.082 805.13 741.254 806.372 737.65 808.598 734.847 815.211 735.131 813.037 729.268 814.188 725.795 814.154 721.712 823.193 722.558 820.58 717.146 820.036 713.016 819.18 708.954 827.574 708.2 827.353 704.271 826.627 700.346 827.671 696.901 825.986 693.064 825.995 689.583 827.933 686.169 824.665 682.734 833.06 678.595 828.408 675.39 830.446 671.299 824.382 668.979 827.522 664.369 820.342 663.068 826.022 657.022 820.822 655.359 820.603 651.47 820.842 647.165 816.118 645.772 816.003 641.536 814.801 637.903 811.912 635.493 811.366 631.217 803.622 633.066 802.452 629.371 803.576 623.343 794.95 626.854 794.903 621.844 791.016 620.835 791.288 615.173 787.077 614.577 784.523 612.068 779.54 612.629 781.747 603.926 773.652 608.762 774.424 601.65 768.311 604.122 767.21 599.454 763.604 598.433 764.116 591.063 756.414 596.493 756.755 589.173 751.263 591.322 747.262 591.11 747.373 583.804 744.034 582.397 739.83 582.574 737.224 579.871 733.584 579.079 730.664 576.934 729.085 572.141 724.128 573.975 720.795 572.635 716.344 573.613 714.352 569.509 709.571 571.277 708.553 564.98 705.543 562.932 701.618 562.914 697.91 562.444 693.695 563.173 691.969 558.132 689.524 554.692 687.054 551.251 683.315 550.859 677.146 556.52 674.279 554.072 673.003 547.539 667.226 552.488 664.48 549.673 662.227 545.507 658.023 546.5 653.584 548.19 650.148 547.193 647.962 542.72 644.19 542.641 639.957 543.903 636.676 542.478 635.07 536.141 630.372 538.823 628.358 533.575 625.353 531.239 619.872 536.435 617.412 532.449 614.169 530.136 618.157 527.932 621.666 529.235 624.843 535.602 628.451 535.88 632.503 528.754 635.691 536.049 639.414 534.169 643.36 527.445 646.756 531.752 650.472 529.078 653.757 537.376 657.5 533.877 661.006 537.531 664.745 533.009 668.422 529.637 671.963 532.879 675.548 534.685 679.192 530.429 682.779 534.425 686.378 528.903 689.962 528.585 693.608 533.295 697.193 531.916 700.773 530.932 704.343 529.93 708.175 536.804 711.532 529.924 715.33 534.237 718.94 533.958 722.2 527.782 726.37 536.61 729.969 535.891 732.855 526.318 737.169 534.668 740.238 528.509 743.871 528.727 747.229 526.39 751.457 531.624 755.151 531.924 758.994 533.196 761.377 524.291 764.859 523.456 768.232 522.007 771.955 522.64 775.485 522.115 779.444 523.707 783.649 526.192 785.929 519.828 790.958 525.497 794.283 523.769 796.664 518.651 801.329 521.938 803.759 517.42 806.561 514.442 811.903 519.071 813.435 512.603 818.823 516.68 822.271 515.426 826.513 515.956 828.866 512.192 831.338 508.923 832.062 502.568 838.392 506.669 842.105 505.719 841.049 497.336 848.964 502.594 851.131 499.235 849.496 491.387 852.137 489.197 857.168 489.477 862.496 489.601 859.173 481.786 868.305 484.628 869.082 480.505 873.096 478.629 872.759 474.026 871.789 469.404 874.94 466.888 872.87 462.233 872.08 458.362 878.535 456.545 876.432 452.388 875.993 448.769 874.732 445.147 881.121 442.163 884.594 438.585 880.21 434.868 877.694 431.385 883.458 427.33 876.945 424.366 874.484 421.173 876.776 417.21 879.889 412.895 874.938 410.31 873.002 407.136" style="fill: #fff;"/>
  <polygon points="873.002 407.136 875.548 402.721 875.164 399.05 873.807 395.679 870.024 393.281 872.587 388.291 868.595 386.116 865.082 383.912 865.364 379.678 864.8 375.749 864.643 371.341 861.779 368.769 858.997 366.202 853.696 366.128 850.584 364.274 850.49 358.913 845.883 358.892 843.222 356.464 838.248 357.873 836.812 353.28 833.034 353.008 828.925 353.944 827.248 348.333 823.178 349.49 820.859 344.092 816.846 345.386 813.359 344.319 809.248 348.452 805.882 347.128 802.644 341.069 798.907 345.288 795.28 341.057 791.761 344.541 788.425 348.054 784.2 340.593 780.875 343.8 777.389 344.959 774.533 349.839 770.892 349.443 766.947 347.74 762.427 343.818 758.862 344.632 756.028 348.333 752.411 348.768 750.119 353.938 744.962 349.059 744.052 358.358 738.065 351.329 735.826 356.037 731.943 355.788 728.332 356.386 727.249 363.794 723.977 365.147 719.127 362.508 716.285 365.025 710.964 361.528 709.779 367.968 706.287 368.889 700.485 364.637 700.576 373.602 696.03 372.257 692.007 372.128 688.403 372.928 687.054 378.378 681.531 375.28 681.775 383.787 676.784 381.838 675.644 387.426 669.865 384.069 667.341 386.965 663.816 387.972 659.688 387.892 658.095 392.447 653.561 391.672 651.116 394.652 647.877 396.215 644.515 397.571 641.531 399.581 637.65 400.069 634.697 402.143 633.508 407.149 630.638 409.322 624.343 405.891 624.773 413.45 620.893 413.986 618.67 417.184 612.71 414.453 611.742 419.632 608.512 421.237 607.626 426.462 601.076 422.955 600.446 428.541 599.09 432.967 592.623 431.627 594.327 426.84 600.216 427.368 603.231 425.233 599.969 417.398 602.219 414.598 610.483 417.176 611.021 412.82 615.575 412.025 611.609 403.755 616.646 403.377 622.988 404.083 625.293 401.29 626.815 397.834 630.467 396.175 632.275 392.963 634.132 389.797 637.362 387.759 639.425 384.762 636.54 377.804 640.622 376.451 640.035 371.404 647.457 372.625 644.085 365.464 650.601 365.911 655.263 364.891 655.667 360.665 655.633 356.149 657.659 353.164 656.865 348.166 659.647 345.744 666.747 346.311 668.415 343.055 665.972 337.034 671.303 336.268 671.141 331.843 673.032 328.784 676.539 326.746 676.991 322.78 680.801 320.888 681.967 317.376 687.768 316.58 685.25 310.944 689.99 309.457 684.801 302.503 692.045 302.311 693.187 298.823 698.015 297.188 698.443 293.326 698.322 289.243 701.522 286.708 702.724 283.247 702.704 279.287 705.076 276.324 704.516 272.216 705.295 268.658 707.976 265.754 705.197 261.075 705.149 257.365 712.399 255.646 711.823 251.731 710.07 247.637 713.185 244.587 713.763 240.998 712.76 237.207 711.947 233.526 709.852 229.846 715.526 226.526 715.039 222.873 718.069 219.064 709.998 216.045 713.114 212.134 712.113 208.664 708.776 205.787 713.377 200.861 712.826 197.107 712.97 192.988 707.102 191.495 704.593 188.761 703.632 185.203 703.703 180.816 698.651 179.977 697.042 176.719 697.439 171.502 693.359 170.297 688.219 170.53 687.867 165.512 686.875 160.845 680.695 163.056 680.263 157.281 676.798 155.85 671.475 157.757 668.237 156.297 668.207 148.429 663.486 149.731 657.903 153.415 655.097 151.104 651.37 151.108 648.381 149.197 645.573 146.53 643.903 139.136 638.685 145.214 636.408 138.411 632.905 136.533 628.872 138.732 624.855 144.936 621.508 138.617 617.713 136.108 614.697 144.506 610.369 138.542 607.214 141.708 604.905 147.023 599.614 141.547 597.485 146.327 593.299 145.56 589.925 146.928 585.737 146.956 585.631 153.66 582.459 155.173 578.737 156.087 573.883 155.888 574.018 161.457 571.228 163.651 569.911 167.26 565.579 168.116 563.97 171.423 560.641 173.343 557.381 175.414 556.149 178.967 556.175 183.281 554.262 186.261 553.494 189.924 553.216 193.809 545.902 193.839 545.755 197.828 542.716 200.323 543.859 204.856 539.555 206.812 539.606 210.77 537.064 213.589 537.974 217.84 539.46 222.248 535.413 224.5 536.94 228.85 527.254 229.208 531.607 234.516 527.024 236.776 525.759 240.16 531.175 245.589 526.513 247.909 527.939 252.043 527.715 255.677 519.219 257.076 525.339 262.409 520.233 264.794 524.25 269.479 516.014 271.183 521.168 276.076 515.289 278.423 515.131 282.077 519.081 286.585 513.221 289.032 519.36 293.916 512.916 296.304 509.733 299.366 513.539 303.72 515.346 307.676 507.967 310.043 512.925 314.517 510.099 317.688 514.346 321.981 509.14 324.805 513.909 329.129 513.31 332.645 507.807 335.491 504.849 338.718 506.573 342.57 503.131 345.759 509.562 350.164 508.358 353.622 502.635 356.574 502.755 360.21 508.192 364.404 501.141 367.276 501.042 370.88 505.905 374.961 500.576 378.063 498.73 381.501 502.83 384.859 500.584 382.156 498.316 378.871 500.644 374.867 504.015 370.673 501.008 367.508 499.235 364.152 497.019 360.88 495.23 357.544 502.49 352.577 496.302 350.038 491.467 347.288 497.162 342.533 490.163 340.236 490.345 336.541 496.953 331.51 496.565 327.89 491.165 325.349 494.689 320.88 488.409 318.584 490.496 314.409 491.432 310.476 490.853 306.89 485.695 304.433 488.106 300.109 489.578 295.99 480.513 294.634 480.287 290.981 480.91 287.083 477.517 284.308 483.514 278.83 483.125 275.159 483.168 271.345 475.529 269.924 476.235 265.922 477.829 261.597 477.455 257.891 473.109 255.552 469.667 252.948 466.45 250.306 472.414 244.242 469.47 241.48 468.565 237.941 460.863 237.183 461.003 233.261 464.795 227.706 464.419 223.886 463.071 220.484 455.311 220.153 452.151 217.736 453.184 213.221 452.967 209.276 447.421 208.218 450.735 202.239 445.533 201.112 447.302 195.82 439.979 196.223 438.055 193.281 437.721 189.218 439.082 183.791 434.845 182.468 434.713 177.942 430.333 176.9 428.82 173.429 423.914 173.159 420.812 171.322 424.087 162.503 418.83 162.898 417.472 158.705 415.028 155.69 406.957 161.135 405.212 157.41 402.687 154.72 398.056 156.255 398.267 146.874 394.775 145.345 390.965 144.779 385.816 150.059 382.955 146.55 379.372 146.223 376.01 143.227 372.324 142.027 368.695 148.064 365.262 148.726 360.88 140.963 357.641 144.855 353.513 142.943 351.545 150.721 347.214 148.259 345.06 153.35 342.091 155.368 336.407 150.406 332.119 149.707 329.323 152.523 329.311 160.769 322.413 155.184 320.213 158.771 316.689 159.94 312.244 159.771 311.158 164.768 310.157 169.491 304.176 167.621 300.321 168.816 300.545 174.552 296.428 175.549 294.165 178.468 297.101 185.549 291.623 185.694 289.225 188.366 288.687 192.176 283.566 193.491 282.542 197.081 281.309 200.533 278.342 203.433 285.212 209.069 275.244 210.455 280.429 215.076 278.111 218.376 274.572 221.8 280.915 225.596 279.144 229.127 279.86 232.629 282.769 235.852 279.899 239.757 277.898 243.743 279.212 247.187 278.359 251.128 286.247 252.755 285.707 256.551 287.3 259.73 289.951 262.509 288.347 266.843 286.828 271.284 288.14 274.645 286.482 279.344 289.571 281.941 295.385 283.135 296.519 286.549 298.707 289.425 301.247 292.091 296.9 298.613 300.572 300.686 307.882 300.523 302.48 307.978 306.986 309.433 312.882 309.915 312.853 314.179 315.592 316.642 318.95 318.66 316.236 324.885 316.156 329.361 322.427 329.29 325.667 331.349 330.002 332.562 329.662 337.28 326.969 343.874 332.247 344.334 337.796 344.509 336.37 350.231 336.527 354.738 342.317 354.635 342.464 359.179 342.69 363.7 351.281 361.098 352.257 364.968 352.377 369.613 353.427 373.479 358.121 374.113 363.45 374.134 359.725 382.351 366.633 380.897 365.864 386.491 366.734 390.606 372.539 390.085 373.114 394.492 380.857 392.045 378.036 399.744 379.095 403.739 387.019 401.001 387.781 405.281 392.419 405.715 396.001 407.178 393.895 414.399 395.385 418.013 401.385 417.004 403.003 420.479 403.192 425.461 410.577 422.92 412.193 429.074 408.964 423.804 402.189 428.375 399.923 425.102 396.122 424.536 395.272 418.695 393.622 414.232 387.966 417.03 387.054 411.173 382.536 411.938 380.827 407.483 374.996 410.776 372.453 407.88 368.525 407.634 367.474 401.803 362.631 403.361 359.692 401.192 356.98 398.55 354.923 394.549 349.057 398.355 348.343 391.52 344.684 390.788 341.529 388.993 338.146 387.687 333.798 388.516 329.135 390.119 326.779 386.568 325.281 380.968 319.519 385.249 316.376 383.468 315.703 375.655 311.72 375.814 308.152 374.98 304.342 374.793 300.288 375.299 296.866 374.176 293.961 371.631 288.981 374.913 288.31 365.866 285.016 364.243 279.95 368.075 277.237 364.702 272.395 368.218 268.896 367.466 265.305 367.064 262.541 363.629 259.288 361.878 255.227 363.365 253.565 354.663 248.147 362.388 246.021 354.935 242.538 353.705 238.651 354.734 235.022 354.419 230.805 358.461 228.154 350.628 224.313 351.996 220.113 358.735 217.075 350.454 213.434 349.175 209.702 350.608 206.031 351.402 202.631 358.096 198.98 355.746 195.356 355.166 192.077 357.659 187.859 353.622 183.582 350.951 180.977 356.305 177.25 356.423 174.231 358.924 169.66 357.007 167.697 361.87 162.463 359.322 160.544 363.662 158.267 366.891 155.585 369.265 153.514 372.351 148.98 372.422 148.756 377.39 145.153 378.725 144.141 382.473 142.408 385.473 134.848 384.418 131.15 386.514 134.914 393.012 134.61 396.82 125.661 396.515 124.854 400.281 126.832 405.032 122.281 407.314 126.171 412.397 121.176 414.737 121.421 418.587 126.67 423.457 123.612 426.44 124.363 430.138 116.474 432.607 118.831 436.572 123.591 440.534 120.131 443.87 115.965 447.444 121.082 450.96 117.093 454.824 122.879 457.823 117.773 462.218 119.61 465.624 118.646 469.701 127.038 470.884 127.166 474.455 126.474 478.54 129.764 480.818 131.837 483.587 132.973 486.941 130.138 493.425 137.642 492.058 136.109 498.185 141.491 497.956 143.091 501.435 145.213 504.495 147.151 507.95 148.801 512.054 152.186 513.732 157.807 511.48 162.303 510.636 162.491 518.062 165.622 520.034 168.609 522.399 173.285 520.634 176.902 521.244 179.628 524.352 185.141 519.016 185.831 528.955 190.978 524.111 194.344 525.309 197.757 526.361 201.999 523.705 204.563 528.708 207.679 531.507 211.539 530.406 215.121 530.726 218.653 531.338 221.937 533.804 226.327 527.716 229.684 529.485 232.81 533.803 236.067 537.605 239.916 535.003 243.66 533.088 247.267 532.7 250.964 530.508 254.466 531.668 257.736 539.349 261.586 531.866 265.187 530.234 268.607 538.674 272.264 533.471 275.828 539.397 279.427 536.215 282.991 533.635 286.566 533.533 290.177 534.948 293.657 531.351 297.333 534.538 300.862 533.108 304.682 538.37 308.199 536.538 311.491 530.974 315.052 530.705 318.953 535.617 322.515 535.021 326.204 536.152 329.386 530.753 333.146 532.794 336.39 528.718 339.941 528.323 344.254 535.825 347.726 534.328 351.277 533.674 354.994 534.592 358.649 534.861 361.293 526.333 365.003 527.233 368.519 526.497 372.169 526.851 376.258 530.554 378.903 523.199 383.332 529.256 388.183 526.023 384.989 532.257 378.792 526.372 376.401 530.108 374.895 535.979 368.38 529.536 365.295 531.539 363.301 536.14 360.73 539.308 357.433 540.744 352.47 538.319 350.336 542.461 345.339 540.056 342.449 542.459 341.059 548.168 337.04 548.022 332.878 547.603 329.235 548.344 325.814 549.57 321.994 549.974 322.601 559.538 318.066 558.43 313.011 556.346 311.848 562.079 305.911 558.358 303.665 561.911 301.215 565.022 295.769 562.47 294.372 567.532 290.316 567.651 287.867 570.704 285.539 573.933 282.072 575.134 281.343 581.043 273.544 574.907 274.231 583.093 271.291 585.158 267.882 586.466 264.618 588.021 261.381 589.63 255.484 587.237 255.15 593.245 249.809 591.84 250.675 599.377 247.91 601.646 243.248 601.334 237.632 599.875 237.163 605.231 236.119 609.707 230.289 608.213 226.837 609.752 225.802 614.129 220.163 613.234 217.383 615.649 216.617 620.184 217.513 626.265 209.814 623.722 208.547 627.588 209.283 633.158 206.736 635.666 204.579 638.509 197.941 637.863 195.293 640.514 194.54 644.52 192.337 647.478 195.877 653.924 186.645 652.753 192.797 660.149 188.739 662.066 182.586 663.348 180.277 666.51 180.236 670.503 179.891 674.312 183.916 679.016 177.452 681.481 181.373 685.745 182.746 689.398 181.991 692.863 178.403 696.525 181.672 699.925 185.298 702.964 186.211 706.224 181.005 711.007 187.473 712.875 186.424 716.856 187.565 720.179 188.181 723.76 187.845 727.907 190.304 730.705 192.126 733.814 192.755 737.692 197.841 738.624 200.658 740.949 201.187 744.989 198.624 751.704 202.933 752.92 207.577 753.636 209.762 756.486 209.297 762.075 213.975 762.473 220.326 760.623 219.978 766.558 220.799 771.522 228.545 766.691 231.155 768.906 234.362 770.115 233.767 778.994 240.335 773.174 242.464 777.078 245.323 779.649 248.65 781.058 251.46 785.49 255.321 785.292 259.289 782.768 263.014 777.805 266.453 782.245 270.039 782.503 273.512 781.442 276.684 778.993 281.112 783.006 284.052 779.776 286.382 775.229 291.379 779.131 294.527 777.23 298.825 778.121 299.58 771.052 304.469 773.009 309.149 774.106 309.814 767.855 313.064 766.373 313.989 761.199 317.508 760.211 323.819 763.133 326.241 760.302 330.027 759.334 329.983 753.387 333.021 751.499 338.952 753.051 342.432 751.527 343.363 747.078 344.424 742.885 348.136 741.624 353.49 742.025 350.27 733.527 355.442 733.685 354.372 727.619 362.28 730.306 362.224 725.295 361.757 719.998 364.225 717.455 368.934 716.905 369.46 712.617 371.596 709.767 378.991 711.382 379.544 707.148 383.424 705.696 385.629 702.848 388.026 700.155 384.972 693.155 394.059 695.728 395.311 692.133 393.291 686.071 399.509 686.276 401.604 683.348 403.888 680.559 400.83 673.892 402.925 671.005 406.858 669.421 410.516 667.616 407.792 661.348 414.765 661.824 418.621 660.107 419.002 656.02 423.484 654.696 420.816 648.602 424.765 646.91 427.659 644.508 427.578 640.177 426.061 634.95 432.506 634.812 432.173 630.362 435.143 627.996 438.448 625.823 441.221 623.31 438.089 617.195 445.859 617.719 448.359 615.023 444.602 608.602 448.396 606.859 450.843 611.236 444.878 613.18 449.561 618.349 443.699 620.353 442.019 623.617 437.637 626.107 439.924 630.522 438.031 633.739 436.915 637.179 440.566 641.917 438.217 645.01 438.135 648.713 431.463 650.702 434.923 655.321 430.254 657.87 428.537 661.179 433.405 666.08 429.395 668.834 434.691 673.766 430.83 676.572 424.854 678.944 431.131 684.003 428.288 687.077 423.767 689.833 425.278 693.826 424.165 697.29 421.351 700.443 420.268 703.934 420.619 707.68 422.333 711.641 422.956 715.397 419.828 718.563 425.621 723.066 423.471 726.376 418.052 729.284 416.467 732.739 414.187 736.134 418.849 740.299 418.147 743.854 414.391 747.145 417.228 751.021 422.386 754.997 414.324 758.086 416.844 761.849 421.268 765.625 417.746 769.093 412.003 772.611 417.859 776.284 418.237 779.872 415.011 783.544 415.292 787.17 412.488 790.965 417.831 794.271 415.749 798.07 421.827 801.08 415.866 805.396 415.626 809.129 418.662 812.346 415.235 816.692 416.381 820.253 425.773 821.802 423.894 825.927 425.437 829.184 422.903 833.768 424.089 837.231 428.937 839.207 426.825 844.037 432.136 845.496 435.472 847.669 433.724 852.728 438.395 853.929 437.101 859.155 440.844 860.787 445.595 861.262 445.963 865.639 446.498 870.263 446.778 875.709 452.887 873.885 457.428 873.49 456.847 881.338 459.961 883.582 464.018 883.871 467.059 886.334 472.227 882.943 475.836 883.269 479.218 884.267 481.561 890.261 485.733 888.045 489.616 886.378 492.911 888.969 496.775 885.645 500.125 889.625 503.772 887.703 507.371 889.765 511.111 892.756 514.856 893.534 518.527 892.806 521.41 885.825 524.749 884.458 528.006 882.998 532.56 887.468 535.28 883.633 537.872 880.206 541.25 879.574 546.083 882.314 550.041 882.257 550.328 875.04 555.337 876.826 557.869 874.22 564.417 876.985 563.506 870.007 566.092 867.617 571.318 867.692 569.273 861.11 574.625 860.88 572.501 855.065 580.717 856.126 575.997 849.297 582.254 848.593 582.871 844.913 586.576 842.525 583.158 837.442 588.537 835.457 586.163 831.027 587.156 827.637 590.139 824.65 594.516 821.785 595.311 818.168 588.367 813.541 587.82 809.948 593.632 806.93 596.175 803.471 592.348 799.638 593.355 796.084 594 792.495 595.644 788.879 588.115 785.419 588.351 781.891 592.681 778.14 592.015 774.588 596.728 770.631 591.211 767.469 589.352 764.061 593.715 759.984 586.279 757.261 592.377 752.873 593.468 749.073 592.408 745.573 587.065 742.78 584.085 739.668 583.62 736.142 589.736 731.372 584.099 728.801 581.287 725.731 581.02 722.153 582.582 718.165 586.301 713.655 577.35 712.039 578.096 708.205 576.109 705.023 580.392 700.27 579.814 696.712 573.109 694.776 579.73 689.296 577.413 686.202 571.04 684.268 570.43 680.735 576.801 675.15 571.716 672.905 566.343 670.79 570.265 665.851 569.01 662.485 569.341 658.615 567.975 655.278 565.762 652.223 568.804 647.432 565.414 644.769 558.359 643.375 559.91 639.062 555.803 636.703 558.309 632.032 561.296 627.154 552.99 626.327 557.814 620.759 557.809 616.93 550.647 615.759 551.702 611.542 548.975 606.63 549.631 612.924 551.936 615.719 559.639 614.771 557.197 620.85 558.58 624.286 564.254 624.687 564.821 628.698 567.34 631.321 571.097 633.041 567.381 640.214 571.647 641.565 573.786 644.473 573.252 649.39 582.919 646.615 583.423 650.743 580.55 657.5 586.671 657.326 588.085 660.797 590.57 663.428 590.444 668.151 597.564 667.043 596.299 672.717 596.135 677.542 601.098 678.123 602.134 681.977 609.405 680.522 611.132 683.768 609.94 689.586 616.766 688.363 614.038 695.63 620.23 694.891 623.57 696.693 626.069 699.257 623.388 706.744 625.182 710.059 627.718 712.671 631.616 713.926 638.064 712.555 638.838 716.897 639.849 721.055 645.774 720.02 648.099 722.774 651.889 723.91 653.677 727.265 655.75 730.331 658.018 733.2 662.204 733.755 663.634 737.668 667.474 738.572 670.285 740.76 672.061 744.359 671.371 751.527 678.075 748.266 681.459 749.636 682.197 755.116 685.763 756.26 687.528 760.427 692.455 759.132 695.589 760.917 698.789 762.58 701.221 765.901 703.386 770.106 707.407 770.131 712.617 766.671 714.096 773.52 718.847 770.629 721.297 775.637 726.324 770.145 729.368 773.174 733.217 771.57 736.22 777.76 740.281 770.512 743.782 778.108 747.358 774.277 750.539 770.186 754.813 775.158 758.524 774.806 762.657 775.809 763.472 766.117 767.031 766.02 770.258 764.873 773.035 762.774 777.197 763.203 780.552 761.925 786.491 764.243 789.119 761.476 788.063 754.324 794.948 756.813 795.83 752.344 795.633 747.07 799.09 745.493 802.887 744.082 805.13 741.254 806.372 737.65 808.598 734.847 815.211 735.131 813.037 729.268 814.188 725.795 814.154 721.712 823.193 722.558 820.58 717.146 820.036 713.016 819.18 708.954 827.574 708.2 827.353 704.271 826.627 700.346 827.671 696.901 825.986 693.064 825.995 689.583 827.933 686.169 824.665 682.734 833.06 678.595 828.408 675.39 830.446 671.299 824.382 668.979 827.522 664.369 820.342 663.068 826.022 657.022 820.822 655.359 820.603 651.47 820.842 647.165 816.118 645.772 816.003 641.536 814.801 637.903 811.912 635.493 811.366 631.217 803.622 633.066 802.452 629.371 803.576 623.343 794.95 626.854 794.903 621.844 791.016 620.835 791.288 615.173 787.077 614.577 784.523 612.068 779.54 612.629 781.747 603.926 773.652 608.762 774.424 601.65 768.311 604.122 767.21 599.454 763.604 598.433 764.116 591.063 756.414 596.493 756.755 589.173 751.263 591.322 747.262 591.11 747.373 583.804 744.034 582.397 739.83 582.574 737.224 579.871 733.584 579.079 730.664 576.934 729.085 572.141 724.128 573.975 720.795 572.635 716.344 573.613 714.352 569.509 709.571 571.277 708.553 564.98 705.543 562.932 701.618 562.914 697.91 562.444 693.695 563.173 691.969 558.132 689.524 554.692 687.054 551.251 683.315 550.859 677.146 556.52 674.279 554.072 673.003 547.539 667.226 552.488 664.48 549.673 662.227 545.507 658.023 546.5 653.584 548.19 650.148 547.193 647.962 542.72 644.19 542.641 639.957 543.903 636.676 542.478 635.07 536.141 630.372 538.823 628.358 533.575 625.353 531.239 619.872 536.435 617.412 532.449 614.169 530.136 618.157 527.932 621.666 529.235 624.843 535.602 628.451 535.88 632.503 528.754 635.691 536.049 639.414 534.169 643.36 527.445 646.756 531.752 650.472 529.078 653.757 537.376 657.5 533.877 661.006 537.531 664.745 533.009 668.422 529.637 671.963 532.879 675.548 534.685 679.192 530.429 682.779 534.425 686.378 528.903 689.962 528.585 693.608 533.295 697.193 531.916 700.773 530.932 704.343 529.93 708.175 536.804 711.532 529.924 715.33 534.237 718.94 533.958 722.2 527.782 726.37 536.61 729.969 535.891 732.855 526.318 737.169 534.668 740.238 528.509 743.871 528.727 747.229 526.39 751.457 531.624 755.151 531.924 758.994 533.196 761.377 524.291 764.859 523.456 768.232 522.007 771.955 522.64 775.485 522.115 779.444 523.707 783.649 526.192 785.929 519.828 790.958 525.497 794.283 523.769 796.664 518.651 801.329 521.938 803.759 517.42 806.561 514.442 811.903 519.071 813.435 512.603 818.823 516.68 822.271 515.426 826.513 515.956 828.866 512.192 831.338 508.923 832.062 502.568 838.392 506.669 842.105 505.719 841.049 497.336 848.964 502.594 851.131 499.235 849.496 491.387 852.137 489.197 857.168 489.477 862.496 489.601 859.173 481.786 868.305 484.628 869.082 480.505 873.096 478.629 872.759 474.026 871.789 469.404 874.94 466.888 872.87 462.233 872.08 458.362 878.535 456.545 876.432 452.388 875.993 448.769 874.732 445.147 881.121 442.163 884.594 438.585 880.21 434.868 877.694 431.385 883.458 427.33 876.945 424.366 874.484 421.173 876.776 417.21 879.889 412.895 874.938 410.31 873.002 407.136" style="fill: none; stroke: #000; stroke-linecap: round; stroke-linejoin: round; stroke-width: 35px;"/>
</svg>