<?xml version="1.0" encoding="UTF-8"?>
<svg id="Sticker" xmlns="http://www.w3.org/2000/svg" width="1000" height="1000" viewBox="0 0 1000 1000">
  <g>
    <polygon points="171.922 636.254 168.058 632.389 176.446 628.235 172.031 624.875 174.613 621.196 169.138 617.705 173.384 614.052 167.006 610.411 174.552 606.899 170.571 603.197 172.241 599.642 174.697 596.161 171.586 592.373 174.052 588.93 175.445 585.443 174.918 581.793 177.521 578.465 170.877 574.079 172.914 570.67 178.311 567.777 170.335 562.932 174.439 559.894 173.184 555.984 178.179 553.221 176.633 549.233 177.677 545.748 175.007 541.417 183.852 539.791 176.265 534.164 183.193 532.231 178.822 527.246 182.939 524.649 182.9 520.834 190.146 519.39 183.048 513.175 190.292 511.889 187.155 506.867 186.748 502.776 194.021 501.801 195.028 498.33 194.474 494.141 197.011 491.327 197.659 487.626 199.766 484.632 204.561 483.088 202.872 478.086 204.411 474.792 203.824 470.209 208.152 468.578 207.051 463.535 213.469 463.417 216.012 460.808 216.816 456.953 218.126 453.406 218.509 449.073 223.871 448.719 227.871 447.395 231.875 446.189 233.461 442.863 230.44 435.042 233.876 433.263 240.378 434.744 238.416 427.377 242.238 426.132 247.002 426.091 248.235 421.926 249.142 417.191 251.927 414.739 256.938 415.341 259.223 412.257 260.808 408.036 264.057 406.232 270.054 408.93 271.089 403.583 276.4 405.529 280.151 404.913 280.271 397.338 284.908 398.396 288.618 397.735 290.964 394.115 294.729 393.608 300.407 397.884 303.709 396.615 304.466 388.454 310.26 393.91 312.957 390.789 314.278 383.09 318.991 385.974 321.701 382.237 327.341 389.152 329.889 384.744 334.201 387.339 336.663 382.035 339.498 377.894 343.692 380.293 347.565 381.357 350.408 376.512 354.617 379.861 357.371 373.857 360.947 373.044 365.175 377.272 368.603 375.517 372.108 374.203 375.634 372.927 379.878 379.553 382.911 372.527 386.848 376.724 390.43 376.396 393.732 370.228 397.732 379.134 401.282 378.546 404.68 369.139 408.413 377.771 412 371.903 415.627 372.503 419.297 370.597 422.761 376.375 426.318 377.258 429.806 379.189 433.888 370.925 437.551 370.864 441.264 370.253 444.798 371.817 448.417 372.284 451.791 374.972 455.006 378.647 459.298 373.408 462.011 380.49 465.69 380.125 469.906 376.364 472.785 381.296 476.944 378.296 480.865 376.949 483.338 383.582 487.934 378.77 490.378 385.076 493.88 385.909 496.95 388.752 500.983 387.114 504.91 386.076 509.634 381.703 511.64 388.999 514.894 390.877 520.229 384.303 521.609 393.711 525.452 393.205 530.741 387.153 534.237 388.113 536.816 392.54 539.313 397.212 544.792 390.697 545.986 400.194 549.949 399.36 552.84 402.518 557.016 400.903 561.293 398.931 564.323 401.611 568.754 399.012 572.75 398 574.804 404.438 579.039 402.444 582.793 402.282 586.693 401.47 588.76 408.254 591.534 412.31 596.05 408.832 600.086 407.276 602.363 413.937 607.146 408.624 611.044 407.351 614.032 410.88 616.921 415.345 621.179 411.734 624.089 416.623 628.678 409.854 631.575 415.441 635.631 411.577 638.813 415.738 642.095 420.025 645.872 418.479 649.432 420.323 653.101 420.471 656.86 415.08 660.448 420.314 663.975 412.474 667.553 413.593 671.088 413.11 675.005 418.075 678.173 412.663 681.978 414.801 685.17 411.431 689.334 415.401 691.98 409.235 696.605 414.854 699.945 413.042 703.825 413.818 707.852 414.948 710.925 412.174 712.844 405.58 716.885 406.713 719.808 404.116 723.961 405.29 727.775 405.276 731.658 405.323 734.628 402.948 736.906 399.005 741.231 399.986 743.661 396.587 749.022 399.56 752.576 398.503 752.476 390.193 759.447 395.831 758.736 386.794 765.793 392.134 768.76 389.94 769.803 384.513 774.273 384.928 775.047 379.29 780.491 381.152 784.686 380.922 784.269 373.72 789.937 375.64 790.223 369.69 795.989 371.577 797.304 367.197 798.242 362.394 801.267 360.448 805.123 359.568 805.943 354.769 809.102 352.987 815.162 350.803 815.667 356.993 811.635 361.929 819.088 363.536 815.769 368.161 815.636 371.879 819.467 374.634 823.954 377.315 824.318 380.961 819.733 385.596 826.957 387.865 821.929 392.474 824.414 395.697 822.922 399.585 826.442 402.698 823.658 406.725 824.373 410.248 822.523 414.063 831.195 416.775 830.103 420.541 831.124 424.114 830.189 427.83 828.369 431.565 826.135 435.268 828.369 438.789 833.532 442.32 830.427 445.999 825.386 449.573 827.545 453.194 826.007 456.732 824.62 460.239 827.992 464.03 832.287 468.002 829.909 471.466 822.325 474.283 827.206 478.472 831.142 482.695 821.143 484.824 826.365 489.343 826.822 493.133 819.311 495.265 819.468 498.926 819.649 502.628 825.909 508.015 823.279 511.106 814.471 512.208 820.995 518.085 813.048 519.161 813.062 522.939 818.895 529.108 815.098 531.528 812.749 534.484 808.671 536.574 805 538.734 808.282 544.47 805.725 547.221 802.802 549.712 801.81 553.332 799.231 555.978 795.044 557.484 794.639 561.558 790.667 563.065 787.997 565.466 789.49 571.274 789.134 575.772 785.737 577.678 784.488 581.544 776.983 579.312 775.149 582.519 772.639 585.06 772.788 590.627 770.838 593.994 765.376 593.11 764.872 598.34 761.297 599.698 758.095 601.507 752.007 599.046 748.641 600.363 749.687 608.694 742.785 604.314 744.088 613.693 740.86 615.497 737.583 617.205 733.101 616.512 727.603 613.503 723.712 613.56 721.692 617.724 717.58 617.197 716.867 624.89 710.7 619.091 707.38 620.326 705.014 624.26 702.032 626.63 698.021 625.935 694.22 625.75 692.853 633.745 687.433 627.942 684.634 631.309 680.253 628.686 677.573 632.71 673.98 633.097 670.232 632.767 667.046 634.92 664.414 639.845 659.807 635.274 656.179 635.341 652.62 635.728 649.971 641.327 645.932 639.021 642.267 638.792 639.424 644.051 636.145 646.759 632.086 643.743 627.835 638.63 624.309 639.124 621.666 648.179 617.346 641.108 613.68 640.139 610.358 643.348 607.196 649.615 603.423 647.44 599.927 649.828 596.208 647.901 592.519 645.841 588.949 646.881 585.271 642.831 581.693 642.055 578.147 650.946 574.55 644.675 570.883 650.535 567.248 650.667 563.821 643.662 560.125 646.749 556.474 647.716 552.891 647.077 549.646 640.864 545.768 645.434 542.346 642.905 538.64 644.277 534.893 645.85 531.182 646.771 528.109 641.218 524.401 642.202 520.682 643.092 517.447 639.816 513.346 643.698 509.676 643.922 505.795 645.629 502.533 642.828 498.955 642.341 495.849 638.762 492.419 637.429 488.744 637.649 485.612 634.579 481.981 634.541 478.096 635.917 474.436 635.956 470.728 636.224 466.82 637.528 463.032 638.138 460.988 629.678 457.614 628.232 453.028 632.914 448.823 635.57 446.505 628.854 441.923 633.314 438.498 632.056 435.368 629.385 431.703 629.304 427.64 631.128 425.826 622.212 421.908 623.348 418.145 623.74 414.063 625.657 410.97 622.855 406.745 625.483 404.822 617.012 399.866 623.215 397.656 616.03 394.007 615.868 389.196 621.561 386.14 618.469 383.522 613.04 378.68 619.18 376.054 613.653 372.706 611.887 368.397 615.488 364.98 614.14 361.607 612.489 358.55 608.819 353.883 615.218 350.347 614.649 347.698 607.914 343.218 613.931 340.548 606.73 337.083 605.207 333.228 606.916 329.27 609.899 325.623 610.303 322.256 607.719 318.252 612.541 315.303 603.885 311.345 609.031 307.731 609.554 304.178 608.956 300.797 602.349 297.079 605.904 293.424 611.791 289.849 603.327 286.265 606.893 282.628 605.575 279.027 605.999 275.637 610.236 272.098 610.669 268.283 607.586 264.924 610.325 261.127 608.377 257.642 609.534 254.647 614.135 250.703 611.639 247.646 615.044 242.586 606.88 239.568 610.512 236.863 615.208 231.887 609.329 229.693 615.813 227.016 619.738 223.073 618.678 218.931 617.146 215.86 619.39 213.013 622.207 209.089 621.669 205.695 622.785 200.92 620.179 200.171 628.319 196.005 627.42 191.952 626.962 189.222 629.681 184.585 628.088 181.232 629.456 179.867 634.934 175.971 635.11 171.922 636.254" style="fill: #fff;"/>
    <polygon points="171.922 636.254 168.058 632.389 176.446 628.235 172.031 624.875 174.613 621.196 169.138 617.705 173.384 614.052 167.006 610.411 174.552 606.899 170.571 603.197 172.241 599.642 174.697 596.161 171.586 592.373 174.052 588.93 175.445 585.443 174.918 581.793 177.521 578.465 170.877 574.079 172.914 570.67 178.311 567.777 170.335 562.932 174.439 559.894 173.184 555.984 178.179 553.221 176.633 549.233 177.677 545.748 175.007 541.417 183.852 539.791 176.265 534.164 183.193 532.231 178.822 527.246 182.939 524.649 182.9 520.834 190.146 519.39 183.048 513.175 190.292 511.889 187.155 506.867 186.748 502.776 194.021 501.801 195.028 498.33 194.474 494.141 197.011 491.327 197.659 487.626 199.766 484.632 204.561 483.088 202.872 478.086 204.411 474.792 203.824 470.209 208.152 468.578 207.051 463.535 213.469 463.417 216.012 460.808 216.816 456.953 218.126 453.406 218.509 449.073 223.871 448.719 227.871 447.395 231.875 446.189 233.461 442.863 230.44 435.042 233.876 433.263 240.378 434.744 238.416 427.377 242.238 426.132 247.002 426.091 248.235 421.926 249.142 417.191 251.927 414.739 256.938 415.341 259.223 412.257 260.808 408.036 264.057 406.232 270.054 408.93 271.089 403.583 276.4 405.529 280.151 404.913 280.271 397.338 284.908 398.396 288.618 397.735 290.964 394.115 294.729 393.608 300.407 397.884 303.709 396.615 304.466 388.454 310.26 393.91 312.957 390.789 314.278 383.09 318.991 385.974 321.701 382.237 327.341 389.152 329.889 384.744 334.201 387.339 336.663 382.035 339.498 377.894 343.692 380.293 347.565 381.357 350.408 376.512 354.617 379.861 357.371 373.857 360.947 373.044 365.175 377.272 368.603 375.517 372.108 374.203 375.634 372.927 379.878 379.553 382.911 372.527 386.848 376.724 390.43 376.396 393.732 370.228 397.732 379.134 401.282 378.546 404.68 369.139 408.413 377.771 412 371.903 415.627 372.503 419.297 370.597 422.761 376.375 426.318 377.258 429.806 379.189 433.888 370.925 437.551 370.864 441.264 370.253 444.798 371.817 448.417 372.284 451.791 374.972 455.006 378.647 459.298 373.408 462.011 380.49 465.69 380.125 469.906 376.364 472.785 381.296 476.944 378.296 480.865 376.949 483.338 383.582 487.934 378.77 490.378 385.076 493.88 385.909 496.95 388.752 500.983 387.114 504.91 386.076 509.634 381.703 511.64 388.999 514.894 390.877 520.229 384.303 521.609 393.711 525.452 393.205 530.741 387.153 534.237 388.113 536.816 392.54 539.313 397.212 544.792 390.697 545.986 400.194 549.949 399.36 552.84 402.518 557.016 400.903 561.293 398.931 564.323 401.611 568.754 399.012 572.75 398 574.804 404.438 579.039 402.444 582.793 402.282 586.693 401.47 588.76 408.254 591.534 412.31 596.05 408.832 600.086 407.276 602.363 413.937 607.146 408.624 611.044 407.351 614.032 410.88 616.921 415.345 621.179 411.734 624.089 416.623 628.678 409.854 631.575 415.441 635.631 411.577 638.813 415.738 642.095 420.025 645.872 418.479 649.432 420.323 653.101 420.471 656.86 415.08 660.448 420.314 663.975 412.474 667.553 413.593 671.088 413.11 675.005 418.075 678.173 412.663 681.978 414.801 685.17 411.431 689.334 415.401 691.98 409.235 696.605 414.854 699.945 413.042 703.825 413.818 707.852 414.948 710.925 412.174 712.844 405.58 716.885 406.713 719.808 404.116 723.961 405.29 727.775 405.276 731.658 405.323 734.628 402.948 736.906 399.005 741.231 399.986 743.661 396.587 749.022 399.56 752.576 398.503 752.476 390.193 759.447 395.831 758.736 386.794 765.793 392.134 768.76 389.94 769.803 384.513 774.273 384.928 775.047 379.29 780.491 381.152 784.686 380.922 784.269 373.72 789.937 375.64 790.223 369.69 795.989 371.577 797.304 367.197 798.242 362.394 801.267 360.448 805.123 359.568 805.943 354.769 809.102 352.987 815.162 350.803 815.667 356.993 811.635 361.929 819.088 363.536 815.769 368.161 815.636 371.879 819.467 374.634 823.954 377.315 824.318 380.961 819.733 385.596 826.957 387.865 821.929 392.474 824.414 395.697 822.922 399.585 826.442 402.698 823.658 406.725 824.373 410.248 822.523 414.063 831.195 416.775 830.103 420.541 831.124 424.114 830.189 427.83 828.369 431.565 826.135 435.268 828.369 438.789 833.532 442.32 830.427 445.999 825.386 449.573 827.545 453.194 826.007 456.732 824.62 460.239 827.992 464.03 832.287 468.002 829.909 471.466 822.325 474.283 827.206 478.472 831.142 482.695 821.143 484.824 826.365 489.343 826.822 493.133 819.311 495.265 819.468 498.926 819.649 502.628 825.909 508.015 823.279 511.106 814.471 512.208 820.995 518.085 813.048 519.161 813.062 522.939 818.895 529.108 815.098 531.528 812.749 534.484 808.671 536.574 805 538.734 808.282 544.47 805.725 547.221 802.802 549.712 801.81 553.332 799.231 555.978 795.044 557.484 794.639 561.558 790.667 563.065 787.997 565.466 789.49 571.274 789.134 575.772 785.737 577.678 784.488 581.544 776.983 579.312 775.149 582.519 772.639 585.06 772.788 590.627 770.838 593.994 765.376 593.11 764.872 598.34 761.297 599.698 758.095 601.507 752.007 599.046 748.641 600.363 749.687 608.694 742.785 604.314 744.088 613.693 740.86 615.497 737.583 617.205 733.101 616.512 727.603 613.503 723.712 613.56 721.692 617.724 717.58 617.197 716.867 624.89 710.7 619.091 707.38 620.326 705.014 624.26 702.032 626.63 698.021 625.935 694.22 625.75 692.853 633.745 687.433 627.942 684.634 631.309 680.253 628.686 677.573 632.71 673.98 633.097 670.232 632.767 667.046 634.92 664.414 639.845 659.807 635.274 656.179 635.341 652.62 635.728 649.971 641.327 645.932 639.021 642.267 638.792 639.424 644.051 636.145 646.759 632.086 643.743 627.835 638.63 624.309 639.124 621.666 648.179 617.346 641.108 613.68 640.139 610.358 643.348 607.196 649.615 603.423 647.44 599.927 649.828 596.208 647.901 592.519 645.841 588.949 646.881 585.271 642.831 581.693 642.055 578.147 650.946 574.55 644.675 570.883 650.535 567.248 650.667 563.821 643.662 560.125 646.749 556.474 647.716 552.891 647.077 549.646 640.864 545.768 645.434 542.346 642.905 538.64 644.277 534.893 645.85 531.182 646.771 528.109 641.218 524.401 642.202 520.682 643.092 517.447 639.816 513.346 643.698 509.676 643.922 505.795 645.629 502.533 642.828 498.955 642.341 495.849 638.762 492.419 637.429 488.744 637.649 485.612 634.579 481.981 634.541 478.096 635.917 474.436 635.956 470.728 636.224 466.82 637.528 463.032 638.138 460.988 629.678 457.614 628.232 453.028 632.914 448.823 635.57 446.505 628.854 441.923 633.314 438.498 632.056 435.368 629.385 431.703 629.304 427.64 631.128 425.826 622.212 421.908 623.348 418.145 623.74 414.063 625.657 410.97 622.855 406.745 625.483 404.822 617.012 399.866 623.215 397.656 616.03 394.007 615.868 389.196 621.561 386.14 618.469 383.522 613.04 378.68 619.18 376.054 613.653 372.706 611.887 368.397 615.488 364.98 614.14 361.607 612.489 358.55 608.819 353.883 615.218 350.347 614.649 347.698 607.914 343.218 613.931 340.548 606.73 337.083 605.207 333.228 606.916 329.27 609.899 325.623 610.303 322.256 607.719 318.252 612.541 315.303 603.885 311.345 609.031 307.731 609.554 304.178 608.956 300.797 602.349 297.079 605.904 293.424 611.791 289.849 603.327 286.265 606.893 282.628 605.575 279.027 605.999 275.637 610.236 272.098 610.669 268.283 607.586 264.924 610.325 261.127 608.377 257.642 609.534 254.647 614.135 250.703 611.639 247.646 615.044 242.586 606.88 239.568 610.512 236.863 615.208 231.887 609.329 229.693 615.813 227.016 619.738 223.073 618.678 218.931 617.146 215.86 619.39 213.013 622.207 209.089 621.669 205.695 622.785 200.92 620.179 200.171 628.319 196.005 627.42 191.952 626.962 189.222 629.681 184.585 628.088 181.232 629.456 179.867 634.934 175.971 635.11 171.922 636.254" style="fill: none; stroke: #000; stroke-linecap: round; stroke-linejoin: round; stroke-width: 40px;"/>
  </g>
  <g>
    <polyline points="302.26 607.626 299.876 602.881 307.94 603.125 307.334 598.734 309.09 595.62 313.786 594.202 307.495 586.363 311.156 584.329 318.481 584.597 316.172 578.947 318.964 576.461 320.647 573.27 325.16 571.954 321.982 565.493 327.782 565.092 332.442 563.984 331.695 559.079 335.156 557.163 332.056 550.431 334.87 548.012 340.806 547.998 338.315 541.523 345.946 542.936 344.212 536.955 345.529 533.362 347.773 530.514 355.514 532.319 358.586 530.258 360.922 527.574 361.866 523.65 360.164 517.284 364.491 516.349 368.616 515.283 367.588 509.356 370.414 507.053 371.73 503.27 375.224 501.631 378.467 499.769 381.558 497.771 382.626 493.65 386.73 492.741 388.262 489.067 390.967 486.657 394.883 485.625 401.665 487.962 400.153 480.688 402.435 477.787 407.88 478.738 410.091 475.775 414.553 475.649 415.189 470.641 418.095 468.524 420.987 466.391 425.025 465.834 429.638 466.148 431.666 462.855 431.722 456.626 438.04 459.577 438.714 454.125 443.988 455.694 443.535 448.29 447.861 448.426 449.819 444.708 455.881 447.897 455.234 439.618 462.081 444.412 463.413 439.438 464.781 434.37 470.539 437.561 473.877 436.237 477.94 436.394 477.201 426.688 480.966 426.131 484.34 424.775 487.368 422.649 491.636 423.349 495.206 422.518 500.513 425.969 503.555 424 504.622 416.86 510.235 421.545 512.664 417.791 514.76 412.915 518.646 413.082 522.662 413.742 526.053 412.539 529.117 410.254 532.599 409.302 537.565 413.639 539.662 407.784 542.922 406 545.913 403.066 551.368 410.32 553.773 404.871 556.822 401.936 559.896 398.909 564.931 405.699 568.185 403.683 571.423 401.39 575.023 401.109 578.234 398.319 581.765 397.449" style="fill: #fff;"/>
    <polyline points="302.26 607.626 299.876 602.881 307.94 603.125 307.334 598.734 309.09 595.62 313.786 594.202 307.495 586.363 311.156 584.329 318.481 584.597 316.172 578.947 318.964 576.461 320.647 573.27 325.16 571.954 321.982 565.493 327.782 565.092 332.442 563.984 331.695 559.079 335.156 557.163 332.056 550.431 334.87 548.012 340.806 547.998 338.315 541.523 345.946 542.936 344.212 536.955 345.529 533.362 347.773 530.514 355.514 532.319 358.586 530.258 360.922 527.574 361.866 523.65 360.164 517.284 364.491 516.349 368.616 515.283 367.588 509.356 370.414 507.053 371.73 503.27 375.224 501.631 378.467 499.769 381.558 497.771 382.626 493.65 386.73 492.741 388.262 489.067 390.967 486.657 394.883 485.625 401.665 487.962 400.153 480.688 402.435 477.787 407.88 478.738 410.091 475.775 414.553 475.649 415.189 470.641 418.095 468.524 420.987 466.391 425.025 465.834 429.638 466.148 431.666 462.855 431.722 456.626 438.04 459.577 438.714 454.125 443.988 455.694 443.535 448.29 447.861 448.426 449.819 444.708 455.881 447.897 455.234 439.618 462.081 444.412 463.413 439.438 464.781 434.37 470.539 437.561 473.877 436.237 477.94 436.394 477.201 426.688 480.966 426.131 484.34 424.775 487.368 422.649 491.636 423.349 495.206 422.518 500.513 425.969 503.555 424 504.622 416.86 510.235 421.545 512.664 417.791 514.76 412.915 518.646 413.082 522.662 413.742 526.053 412.539 529.117 410.254 532.599 409.302 537.565 413.639 539.662 407.784 542.922 406 545.913 403.066 551.368 410.32 553.773 404.871 556.822 401.936 559.896 398.909 564.931 405.699 568.185 403.683 571.423 401.39 575.023 401.109 578.234 398.319 581.765 397.449" style="fill: none; stroke: #000; stroke-linecap: round; stroke-linejoin: round; stroke-width: 40px;"/>
  </g>
  <g>
    <polyline points="461.455 629.971 467.353 627.073 465.28 622.821 463.943 618.496 465.671 615.116 471.039 613.319 473.907 610.696 469.795 604.689 475.069 603.295 476.108 599.736 483.147 599.776 479.946 593.588 481.913 590.546 487.05 589.758 484.402 583.371 489.814 582.942 488.074 576.916 496.141 578.915 492.812 571.283 499.132 572.068 500.848 568.763 505.134 567.92 504.141 561.865 509.85 562.569 510.046 557.544 512.794 555.188 516.982 554.482 522.124 554.994 524.95 552.865 522.968 544.768 525.219 541.749 531.44 543.888 535.658 543.563 536.152 538.198 539.587 536.818 542.859 535.236 546.736 534.573 545.583 526.353 548.82 524.65 554.284 526.492 557.092 524.2 562.739 526.59 563.127 520.263 565.473 517.123 570.965 519.478 570.656 511.552 576.998 515.607 580.904 515.326 583.812 513.188 584.781 507.236 586.912 503.434 590.234 501.952 596.493 506.552 597.559 500.424 599.877 496.901 603.339 495.73 607.637 496.256 612.936 498.784 612.473 489.68 616.432 489.503 619.142 486.827 624.77 489.931 628.156 488.574 628.655 481.585 635.457 486.873 638.033 483.94 638.642 477.283 642.017 475.935 648.826 481.007 650.02 475.553 651.031 469.841 656.703 472.654 659.778 470.716 663.671 470.222 666.69 468.171 669.249 465.343 674.621 467.265 676.53 463.346 676.34 456.14 680.916 456.642 682.24 452.082 687.403 453.337 692.949 454.905 691.485 446.667 698.262 449.605 702.006 448.285 700.666 441.112 704.976 440.441 705.541 436.054 711.505 436.177 713.39 432.73 708.72 426.638 714.906 425.018 716.243 421.342 711.896 417.665 713.632 414.016" style="fill: #fff;"/>
    <polyline points="461.455 629.971 467.353 627.073 465.28 622.821 463.943 618.496 465.671 615.116 471.039 613.319 473.907 610.696 469.795 604.689 475.069 603.295 476.108 599.736 483.147 599.776 479.946 593.588 481.913 590.546 487.05 589.758 484.402 583.371 489.814 582.942 488.074 576.916 496.141 578.915 492.812 571.283 499.132 572.068 500.848 568.763 505.134 567.92 504.141 561.865 509.85 562.569 510.046 557.544 512.794 555.188 516.982 554.482 522.124 554.994 524.95 552.865 522.968 544.768 525.219 541.749 531.44 543.888 535.658 543.563 536.152 538.198 539.587 536.818 542.859 535.236 546.736 534.573 545.583 526.353 548.82 524.65 554.284 526.492 557.092 524.2 562.739 526.59 563.127 520.263 565.473 517.123 570.965 519.478 570.656 511.552 576.998 515.607 580.904 515.326 583.812 513.188 584.781 507.236 586.912 503.434 590.234 501.952 596.493 506.552 597.559 500.424 599.877 496.901 603.339 495.73 607.637 496.256 612.936 498.784 612.473 489.68 616.432 489.503 619.142 486.827 624.77 489.931 628.156 488.574 628.655 481.585 635.457 486.873 638.033 483.94 638.642 477.283 642.017 475.935 648.826 481.007 650.02 475.553 651.031 469.841 656.703 472.654 659.778 470.716 663.671 470.222 666.69 468.171 669.249 465.343 674.621 467.265 676.53 463.346 676.34 456.14 680.916 456.642 682.24 452.082 687.403 453.337 692.949 454.905 691.485 446.667 698.262 449.605 702.006 448.285 700.666 441.112 704.976 440.441 705.541 436.054 711.505 436.177 713.39 432.73 708.72 426.638 714.906 425.018 716.243 421.342 711.896 417.665 713.632 414.016" style="fill: none; stroke: #000; stroke-linecap: round; stroke-linejoin: round; stroke-width: 40px;"/>
  </g>
</svg>