<?xml version="1.0" encoding="UTF-8"?>
<svg id="Sticker" xmlns="http://www.w3.org/2000/svg" width="1000" height="1000" viewBox="0 0 1000 1000">
  <polygon points="495.386 784.907 499.791 784.769 503.871 785.059 509.651 782.285 509.499 789.835 512.19 792.521 518.941 787.425 518.185 796.901 522.11 797.216 528.41 792.238 531.622 793.729 533.478 798.469 535.372 803.429 541.519 797.551 541.833 807.115 545.904 806.595 548.676 809.928 552.97 808.489 557.289 806.604 560.308 809.29 564.68 806.619 568.576 805.463 570.918 811.787 575.009 809.516 578.699 809.039 582.441 807.835 585.252 814.333 588.583 817.995 592.582 813.897 596.302 811.707 599.736 817.862 603.431 811.733 606.944 809.688 610.599 812.478 614.459 816.148 617.712 811.603 621.794 815.576 624.384 807.823 628.715 812.375 631.459 807.498 635.737 810.507 640.239 813.536 643.351 810.82 647.374 811.318 650.912 810.135 652.452 803.734 657.768 807.218 657.989 798.621 661.695 798.243 664.719 796.381 670.332 799.298 670.961 793.056 675.31 793.392 676.764 788.985 682.231 790.783 681.96 784.078 688.566 787.134 690.794 784.045 694.633 783.051 698.757 782.311 700.325 778.472 699.205 771.69 703.35 770.957 704.884 767.344 709.15 766.618 712.605 764.976 716.149 763.373 717.853 759.968 718.295 755.424 722.649 754.526 723.488 750.421 729.597 750.969 732.427 748.585 729.056 740.984 737.679 743.447 733.543 735.379 742.105 737.628 744.023 734.494 742.987 729.068 747.305 727.831 746.022 722.28 751.78 722.113 755.631 720.474 752.827 713.83 758.811 713.798 757.197 708.067 763.26 708.103 763.219 703.54 762.782 698.65 765.211 695.931 768.748 694.096 768.497 689.188 771.171 686.79 773.974 684.473 778.282 683.275 784.686 683.546 781.394 676.646 787.076 676.271 790.016 673.883 789.51 669.156 788.346 664.084 790.638 661.316 797.153 661.163 793.368 654.616 800.172 654.511 800.36 650.436 803.972 648.34 803.096 643.72 807.734 642.138 809.206 638.816 812.905 636.643 807.098 629.656 809.973 627.095 810.876 623.561 813.483 620.835 816.834 618.424 820.507 616.114 820.023 611.955 816.755 606.659 821.025 604.57 827.039 603.122 826.308 598.935 828.942 596.076 831.37 593.113 829.246 588.476 826.144 583.558 829.266 580.862 837.292 579.77 833.35 574.656 830.188 569.882 840.39 569.291 835.787 564.119 835.701 560.354 843.358 558.783 843.412 555.027 843.341 551.253 837.062 545.915 839.576 542.864 848.315 541.266 841.334 535.929 849.118 533.985 848.603 530.159 841.825 525.075 845.061 522.079 846.686 518.737 850.112 515.703 853.05 512.54 848.172 508.064 849.653 504.662 851.471 501.294 850.967 497.584 852.198 494.116 855.276 490.859 853.707 487.032 856.395 483.686 857.405 480.138 852.948 476.095 850.626 472.303 852.172 468.832 850.704 465.149 857.846 461.968 857.035 458.299 857.06 454.679 852.95 450.94 851.765 447.333 855.984 443.812 852.222 440.194 853.296 436.615 853.675 433.026 859.101 429.31 859.768 425.651 852.052 422.329 859.213 418.383 850.274 415.278 850.047 411.726 849.829 408.173 852.186 404.389 856.955 400.313 858.178 396.523 854.823 393.247 856.475 389.381 849.22 386.717 856.284 382.042 855.743 378.429 852.292 375.315 850.416 371.975 851.63 368.062 852.213 364.236 844.361 362.208 850.48 357.152 847.207 354.191 849.871 349.787 845.804 347.08 845.301 343.461 845.43 339.646 843.042 336.565 837.901 334.394 841.927 329.298 841.359 325.644 840.404 322.11 834.419 320.449 835.887 316.029 835.298 312.356 829.511 310.842 826.072 308.444 827.848 303.753 831.414 298.111 829.756 294.838 820.342 295.481 825.333 288.871 824.755 285.031 820.428 283.25 813.424 283.124 813.69 278.835 809.966 276.945 809.838 272.817 809.711 268.609 806.922 266.152 808.221 260.813 806.737 257.362 797.483 259.81 800.235 253.142 793.395 254.044 790.987 251.455 793.893 244.228 789.092 243.658 785.847 241.778 783.719 238.868 785.463 232.057 779.5 232.936 778.445 228.789 774.655 227.56 770.717 226.587 767.191 225.222 767.742 218.897 764.051 217.698 760.4 216.521 759.205 212.049 753.734 213.485 750.405 212.026 746.23 211.9 744.498 208.03 741.448 206.184 739.935 201.703 737.182 199.217 733.622 198.168 731.586 194.24 728.071 193.089 723.92 193.308 720.372 192.42 716.724 191.872 712.711 192.439 708.994 192.483 708.07 183.84 704.752 182.039 699.821 186.385 695.601 188.892 693.418 182.158 688.939 186.689 685.569 185.586 682.343 183.134 678.738 183.385 674.992 185.659 672.028 177.068 668.289 178.794 664.642 179.836 661.036 182.507 657.453 180.423 653.984 183.946 650.052 176.204 646.88 183.483 642.787 177.18 639.21 178.079 636.346 184.954 632.515 182.968 628.275 178.68 625.77 186.083 621.422 181.792 617.658 181.32 614.942 186.232 611.288 186.231 607.556 185.961 603.333 183.731 601.51 191.432 598.062 192.284 592.984 187.139 591.287 194.439 585.966 188.912 582.187 188.917 579.366 192.04 576.98 196.372 573.829 198.222 569.717 197.232 568.041 203.263 561.841 196.549 560.325 202.851 557.24 204.784 553.755 205.659 548.04 200.938 546.053 205.663 545 212.508 538.439 206.084 536.514 210.739 532.667 210.883 529.503 212.607 527.907 217.786 524.756 219.465 520.105 217.924 517.909 221.653 513.681 221.103 510.788 223.343 509.431 228.669 504.889 227.546 503.01 231.729 495.769 225.429 493.961 229.757 492.678 235.017 486.328 230.679 485.917 237.495 484.291 241.97 480.193 241.889 478.785 239.618 474.997 239.23 470.971 239.357 468.47 236.257 465.245 234.689 463.705 229.482 457.379 234.661 455.106 231.028 452.647 227.766 448.792 227.613 446.85 223.114 443.614 221.537 438.602 224.135 435.912 221.303 434.346 215.693 430.374 215.884 425.533 218.315 421.953 217.656 418.953 215.503 414.665 216.755 413.131 210.607 409.316 210.598 404.613 213.185 402.437 208.569 399.534 205.957 394.675 209.309 392.103 205.64 389.71 201.221 385.191 203.798 382.165 201.371 377.701 204.09 376.134 196.095 370.731 202.702 367.649 200.366 364.242 199.305 361.101 196.994 358.499 191.875 354.815 191.8 351.129 191.822 346.627 196.85 343.603 193.195 340.819 187.178 336.73 190.405 333.151 189.936 329.727 187.77 326.081 187.719 322.347 189.196 318.799 187.721 315.196 186.568 311.5 191.937 307.936 190.868 304.318 189.364 300.776 190.657 297.371 193.253 293.522 189.914 290.202 192.617 286.72 193.367 283.621 196.424 279.468 193.115 276.767 197.638 272.786 195.921 269.357 196.795 266.637 200.093 263.005 200.139 259.707 201.301 255.816 200.915 252.665 202.557 249.778 204.742 247.09 207.225 241.453 203.945 236.978 203.393 234.702 206.801 234.309 213.034 228.205 210.219 225.399 212.604 225.284 218.6 222.115 220.289 220.108 223.446 213.612 221.294 210.305 223.099 207.642 225.643 208.245 231.476 206.77 235.014 200.02 233.62 197.875 236.624 195.255 239.207 194.917 243.641 195.595 248.72 194.993 252.668 187.49 251.656 188.878 256.979 184.201 258.181 186.543 263.889 184.214 266.599 178.136 267.198 173.277 268.669 171.463 271.877 176.753 278.659 173.609 281.084 173.799 285.116 167.428 286.178 166.085 289.557 162.93 292.195 167.616 297.947 166.886 301.479 162.414 303.661 162.093 307.361 157.809 309.743 159.788 314.17 156.128 316.831 153.315 319.805 156.74 324.515 153.214 327.319 154.427 331.351 154.138 334.981 151.419 338.063 155.439 342.6 147.487 344.659 149.411 348.724 151.493 352.761 146.326 355.54 145.092 359.025 149.847 363.392 148.563 366.837 144.157 369.906 143.283 373.46 149.231 377.75 147.446 381.169 148.829 384.895 146.352 388.283 142.883 391.64 144.293 395.356 146.9 399.108 140.394 402.394 142.532 406.112 146.463 409.846 146.178 413.423 146.488 417.013 144.808 420.584 146.466 424.178 139.968 427.816 148.162 431.317 145.955 434.941 146.199 438.523 145.775 442.129 141.699 445.907 140.92 449.574 143.232 453.072 149.096 456.307 143.671 460.285 149.417 463.453 145.568 467.375 147.568 470.809 144.655 474.71 147.009 478.095 146.572 481.769 145.702 485.506 153.122 488.215 153.539 491.762 146.496 496.346 145.603 500.134 148.992 503.289 147.651 507.156 152.171 510.082 153.878 513.439 149.795 517.811 158.459 519.896 151.857 524.787 150.694 528.7 160.031 530.503 155.367 535.13 155.653 538.758 159.198 541.666 157.367 545.77 163.866 547.947 159.784 552.61 164.515 555.148 162.367 559.389 161.671 563.291 164.637 566.231 168.037 569.026 160.989 574.729 170.264 575.835 164.395 581.296 165.91 584.623 172.102 586.5 168.653 591.348 168.14 595.312 169.346 598.733 172.562 601.476 171.858 605.537 171.974 609.338 175.407 611.966 177.89 614.909 181.917 617.256 179.934 621.851 184.737 623.859 184.717 627.725 188.489 630.078 184.272 635.688 185.245 639.208 185.354 643.106 186.682 646.492 191.626 648.269 195.558 650.446 198.844 652.878 195.03 658.632 198.139 661.149 197.165 665.643 199.379 668.589 199.861 672.407 208.186 672.166 204.689 678.065 211.13 678.692 211.408 682.621 210.945 687.001 212.945 690.015 213.806 693.691 219.997 694.201 215.058 701.398 222.016 701.356 223.169 704.877 226.446 707.035 230.564 708.601 227.297 715.105 233.622 715.125 236.534 717.501 239.085 720.114 236.001 726.706 239.102 728.948 242.361 731.056 247.492 731.753 247.162 736.484 249.5 739.233 246.807 745.923 250.495 747.667 255.258 748.48 259.941 749.266 256.884 756.617 264.527 754.748 262.431 761.478 269.352 760.009 271.149 763.229 274.74 764.705 275.737 768.768 278.192 771.389 280.674 773.99 281.469 778.514 282.991 782.339 288.777 781.08 291.616 783.274 294.192 785.811 297.55 787.304 297.963 792.969 301.223 794.691 305.34 795.034 309.384 795.339 312.626 796.874 316.053 798.041 319.796 798.53 319.706 806.761 324.905 804.272 327.765 806.704 331.542 806.99 335.495 806.646 338.148 809.817 339.813 816.446 344.661 813.141 348.974 810.991 351.352 816.311 355.203 815.769 358.943 815.49 362.187 817.985 366.561 812.774 369.709 815.973 373.351 815.162 376.842 815.826 380.084 822.88 383.906 816.281 387.476 823.159 391.174 823.097 394.678 819.133 398.449 821.225 401.742 817.157 405.54 818.836 408.673 815.062 413.296 821.456 415.306 811.858 419.731 816.005 424.085 818.911 425.54 809.408 429.57 810.898 432.73 809.013 438.09 814.367 442.083 814.767 442.467 804.681 447.739 808.765 451.23 807.741 455.346 808.206 455.984 800.451 459.038 798.61 463.365 799.491 467.746 800.277 471.994 800.614 474.241 797.061 474.379 789.86 477.659 788.492 482.164 789.139 488.195 792.059 487.363 784.012 494.942 788.948 497.779 786.576 494.479 778.894 495.386 784.907" style="fill: #fff;"/>
  <polygon points="495.386 784.907 499.791 784.769 503.871 785.059 509.651 782.285 509.499 789.835 512.19 792.521 518.941 787.425 518.185 796.901 522.11 797.216 528.41 792.238 531.622 793.729 533.478 798.469 535.372 803.429 541.519 797.551 541.833 807.115 545.904 806.595 548.676 809.928 552.97 808.489 557.289 806.604 560.308 809.29 564.68 806.619 568.576 805.463 570.918 811.787 575.009 809.516 578.699 809.039 582.441 807.835 585.252 814.333 588.583 817.995 592.582 813.897 596.302 811.707 599.736 817.862 603.431 811.733 606.944 809.688 610.599 812.478 614.459 816.148 617.712 811.603 621.794 815.576 624.384 807.823 628.715 812.375 631.459 807.498 635.737 810.507 640.239 813.536 643.351 810.82 647.374 811.318 650.912 810.135 652.452 803.734 657.768 807.218 657.989 798.621 661.695 798.243 664.719 796.381 670.332 799.298 670.961 793.056 675.31 793.392 676.764 788.985 682.231 790.783 681.96 784.078 688.566 787.134 690.794 784.045 694.633 783.051 698.757 782.311 700.325 778.472 699.205 771.69 703.35 770.957 704.884 767.344 709.15 766.618 712.605 764.976 716.149 763.373 717.853 759.968 718.295 755.424 722.649 754.526 723.488 750.421 729.597 750.969 732.427 748.585 729.056 740.984 737.679 743.447 733.543 735.379 742.105 737.628 744.023 734.494 742.987 729.068 747.305 727.831 746.022 722.28 751.78 722.113 755.631 720.474 752.827 713.83 758.811 713.798 757.197 708.067 763.26 708.103 763.219 703.54 762.782 698.65 765.211 695.931 768.748 694.096 768.497 689.188 771.171 686.79 773.974 684.473 778.282 683.275 784.686 683.546 781.394 676.646 787.076 676.271 790.016 673.883 789.51 669.156 788.346 664.084 790.638 661.316 797.153 661.163 793.368 654.616 800.172 654.511 800.36 650.436 803.972 648.34 803.096 643.72 807.734 642.138 809.206 638.816 812.905 636.643 807.098 629.656 809.973 627.095 810.876 623.561 813.483 620.835 816.834 618.424 820.507 616.114 820.023 611.955 816.755 606.659 821.025 604.57 827.039 603.122 826.308 598.935 828.942 596.076 831.37 593.113 829.246 588.476 826.144 583.558 829.266 580.862 837.292 579.77 833.35 574.656 830.188 569.882 840.39 569.291 835.787 564.119 835.701 560.354 843.358 558.783 843.412 555.027 843.341 551.253 837.062 545.915 839.576 542.864 848.315 541.266 841.334 535.929 849.118 533.985 848.603 530.159 841.825 525.075 845.061 522.079 846.686 518.737 850.112 515.703 853.05 512.54 848.172 508.064 849.653 504.662 851.471 501.294 850.967 497.584 852.198 494.116 855.276 490.859 853.707 487.032 856.395 483.686 857.405 480.138 852.948 476.095 850.626 472.303 852.172 468.832 850.704 465.149 857.846 461.968 857.035 458.299 857.06 454.679 852.95 450.94 851.765 447.333 855.984 443.812 852.222 440.194 853.296 436.615 853.675 433.026 859.101 429.31 859.768 425.651 852.052 422.329 859.213 418.383 850.274 415.278 850.047 411.726 849.829 408.173 852.186 404.389 856.955 400.313 858.178 396.523 854.823 393.247 856.475 389.381 849.22 386.717 856.284 382.042 855.743 378.429 852.292 375.315 850.416 371.975 851.63 368.062 852.213 364.236 844.361 362.208 850.48 357.152 847.207 354.191 849.871 349.787 845.804 347.08 845.301 343.461 845.43 339.646 843.042 336.565 837.901 334.394 841.927 329.298 841.359 325.644 840.404 322.11 834.419 320.449 835.887 316.029 835.298 312.356 829.511 310.842 826.072 308.444 827.848 303.753 831.414 298.111 829.756 294.838 820.342 295.481 825.333 288.871 824.755 285.031 820.428 283.25 813.424 283.124 813.69 278.835 809.966 276.945 809.838 272.817 809.711 268.609 806.922 266.152 808.221 260.813 806.737 257.362 797.483 259.81 800.235 253.142 793.395 254.044 790.987 251.455 793.893 244.228 789.092 243.658 785.847 241.778 783.719 238.868 785.463 232.057 779.5 232.936 778.445 228.789 774.655 227.56 770.717 226.587 767.191 225.222 767.742 218.897 764.051 217.698 760.4 216.521 759.205 212.049 753.734 213.485 750.405 212.026 746.23 211.9 744.498 208.03 741.448 206.184 739.935 201.703 737.182 199.217 733.622 198.168 731.586 194.24 728.071 193.089 723.92 193.308 720.372 192.42 716.724 191.872 712.711 192.439 708.994 192.483 708.07 183.84 704.752 182.039 699.821 186.385 695.601 188.892 693.418 182.158 688.939 186.689 685.569 185.586 682.343 183.134 678.738 183.385 674.992 185.659 672.028 177.068 668.289 178.794 664.642 179.836 661.036 182.507 657.453 180.423 653.984 183.946 650.052 176.204 646.88 183.483 642.787 177.18 639.21 178.079 636.346 184.954 632.515 182.968 628.275 178.68 625.77 186.083 621.422 181.792 617.658 181.32 614.942 186.232 611.288 186.231 607.556 185.961 603.333 183.731 601.51 191.432 598.062 192.284 592.984 187.139 591.287 194.439 585.966 188.912 582.187 188.917 579.366 192.04 576.98 196.372 573.829 198.222 569.717 197.232 568.041 203.263 561.841 196.549 560.325 202.851 557.24 204.784 553.755 205.659 548.04 200.938 546.053 205.663 545 212.508 538.439 206.084 536.514 210.739 532.667 210.883 529.503 212.607 527.907 217.786 524.756 219.465 520.105 217.924 517.909 221.653 513.681 221.103 510.788 223.343 509.431 228.669 504.889 227.546 503.01 231.729 495.769 225.429 493.961 229.757 492.678 235.017 486.328 230.679 485.917 237.495 484.291 241.97 480.193 241.889 478.785 239.618 474.997 239.23 470.971 239.357 468.47 236.257 465.245 234.689 463.705 229.482 457.379 234.661 455.106 231.028 452.647 227.766 448.792 227.613 446.85 223.114 443.614 221.537 438.602 224.135 435.912 221.303 434.346 215.693 430.374 215.884 425.533 218.315 421.953 217.656 418.953 215.503 414.665 216.755 413.131 210.607 409.316 210.598 404.613 213.185 402.437 208.569 399.534 205.957 394.675 209.309 392.103 205.64 389.71 201.221 385.191 203.798 382.165 201.371 377.701 204.09 376.134 196.095 370.731 202.702 367.649 200.366 364.242 199.305 361.101 196.994 358.499 191.875 354.815 191.8 351.129 191.822 346.627 196.85 343.603 193.195 340.819 187.178 336.73 190.405 333.151 189.936 329.727 187.77 326.081 187.719 322.347 189.196 318.799 187.721 315.196 186.568 311.5 191.937 307.936 190.868 304.318 189.364 300.776 190.657 297.371 193.253 293.522 189.914 290.202 192.617 286.72 193.367 283.621 196.424 279.468 193.115 276.767 197.638 272.786 195.921 269.357 196.795 266.637 200.093 263.005 200.139 259.707 201.301 255.816 200.915 252.665 202.557 249.778 204.742 247.09 207.225 241.453 203.945 236.978 203.393 234.702 206.801 234.309 213.034 228.205 210.219 225.399 212.604 225.284 218.6 222.115 220.289 220.108 223.446 213.612 221.294 210.305 223.099 207.642 225.643 208.245 231.476 206.77 235.014 200.02 233.62 197.875 236.624 195.255 239.207 194.917 243.641 195.595 248.72 194.993 252.668 187.49 251.656 188.878 256.979 184.201 258.181 186.543 263.889 184.214 266.599 178.136 267.198 173.277 268.669 171.463 271.877 176.753 278.659 173.609 281.084 173.799 285.116 167.428 286.178 166.085 289.557 162.93 292.195 167.616 297.947 166.886 301.479 162.414 303.661 162.093 307.361 157.809 309.743 159.788 314.17 156.128 316.831 153.315 319.805 156.74 324.515 153.214 327.319 154.427 331.351 154.138 334.981 151.419 338.063 155.439 342.6 147.487 344.659 149.411 348.724 151.493 352.761 146.326 355.54 145.092 359.025 149.847 363.392 148.563 366.837 144.157 369.906 143.283 373.46 149.231 377.75 147.446 381.169 148.829 384.895 146.352 388.283 142.883 391.64 144.293 395.356 146.9 399.108 140.394 402.394 142.532 406.112 146.463 409.846 146.178 413.423 146.488 417.013 144.808 420.584 146.466 424.178 139.968 427.816 148.162 431.317 145.955 434.941 146.199 438.523 145.775 442.129 141.699 445.907 140.92 449.574 143.232 453.072 149.096 456.307 143.671 460.285 149.417 463.453 145.568 467.375 147.568 470.809 144.655 474.71 147.009 478.095 146.572 481.769 145.702 485.506 153.122 488.215 153.539 491.762 146.496 496.346 145.603 500.134 148.992 503.289 147.651 507.156 152.171 510.082 153.878 513.439 149.795 517.811 158.459 519.896 151.857 524.787 150.694 528.7 160.031 530.503 155.367 535.13 155.653 538.758 159.198 541.666 157.367 545.77 163.866 547.947 159.784 552.61 164.515 555.148 162.367 559.389 161.671 563.291 164.637 566.231 168.037 569.026 160.989 574.729 170.264 575.835 164.395 581.296 165.91 584.623 172.102 586.5 168.653 591.348 168.14 595.312 169.346 598.733 172.562 601.476 171.858 605.537 171.974 609.338 175.407 611.966 177.89 614.909 181.917 617.256 179.934 621.851 184.737 623.859 184.717 627.725 188.489 630.078 184.272 635.688 185.245 639.208 185.354 643.106 186.682 646.492 191.626 648.269 195.558 650.446 198.844 652.878 195.03 658.632 198.139 661.149 197.165 665.643 199.379 668.589 199.861 672.407 208.186 672.166 204.689 678.065 211.13 678.692 211.408 682.621 210.945 687.001 212.945 690.015 213.806 693.691 219.997 694.201 215.058 701.398 222.016 701.356 223.169 704.877 226.446 707.035 230.564 708.601 227.297 715.105 233.622 715.125 236.534 717.501 239.085 720.114 236.001 726.706 239.102 728.948 242.361 731.056 247.492 731.753 247.162 736.484 249.5 739.233 246.807 745.923 250.495 747.667 255.258 748.48 259.941 749.266 256.884 756.617 264.527 754.748 262.431 761.478 269.352 760.009 271.149 763.229 274.74 764.705 275.737 768.768 278.192 771.389 280.674 773.99 281.469 778.514 282.991 782.339 288.777 781.08 291.616 783.274 294.192 785.811 297.55 787.304 297.963 792.969 301.223 794.691 305.34 795.034 309.384 795.339 312.626 796.874 316.053 798.041 319.796 798.53 319.706 806.761 324.905 804.272 327.765 806.704 331.542 806.99 335.495 806.646 338.148 809.817 339.813 816.446 344.661 813.141 348.974 810.991 351.352 816.311 355.203 815.769 358.943 815.49 362.187 817.985 366.561 812.774 369.709 815.973 373.351 815.162 376.842 815.826 380.084 822.88 383.906 816.281 387.476 823.159 391.174 823.097 394.678 819.133 398.449 821.225 401.742 817.157 405.54 818.836 408.673 815.062 413.296 821.456 415.306 811.858 419.731 816.005 424.085 818.911 425.54 809.408 429.57 810.898 432.73 809.013 438.09 814.367 442.083 814.767 442.467 804.681 447.739 808.765 451.23 807.741 455.346 808.206 455.984 800.451 459.038 798.61 463.365 799.491 467.746 800.277 471.994 800.614 474.241 797.061 474.379 789.86 477.659 788.492 482.164 789.139 488.195 792.059 487.363 784.012 494.942 788.948 497.779 786.576 494.479 778.894 495.386 784.907" style="fill: none; stroke: #000; stroke-linecap: round; stroke-linejoin: round; stroke-width: 40px;"/>
</svg>