<?xml version="1.0" encoding="UTF-8"?>
<svg id="Sticker" xmlns="http://www.w3.org/2000/svg" width="1000" height="1000" viewBox="0 0 1000 1000">
  <g>
    <polygon points="547.478 500.944 551.912 497.708 548.695 493.032 554.069 491.171 551.152 484.303 556.042 482.9 560.892 483.638 563.469 478.384 568.153 485.919 571.55 482.542 575.284 481.919 578.624 484.203 582.916 481.883 585.73 485.017 588.917 486.417 592.649 486.93 596.058 488.264 599.841 489.109 600.901 493.844 604.224 495.318 606.407 498.545 610.949 497.964 611.997 503.51 616.901 501.812 618.099 508.087 624.653 501.283 626.734 505.865 629.522 509.024 633.473 508.185 636.685 510.183 640.574 508.985 644.526 506.768 648.098 506.338 651.011 511.404 654.163 516.086 658.181 511.326 661.415 517.204 665.32 511.443 668.912 511.705 672.435 510.932 676.144 511.372 680.339 513.132 684.171 512.667 685.208 504.818 690.231 507.609 692.998 504.985 697.108 504.898 697.747 498.989 702.97 500.437 707.665 500.722 708.136 495.181 710.396 492.203 716.554 494.105 715.736 487.338 721.183 488.246 722.909 484.65 722.293 478.229 726.632 477.767 731.558 478.074 730.989 471.511 735.018 470.71 739.558 470.686 744.946 472.028 747.347 469.276 749.52 466.102 751.11 461.831 756.115 463.254 757.302 457.948 760.305 455.77 764.83 456.84 765.882 450.052 770.468 451.513 774.405 451.678 777.246 448.571 782.567 454.103 785.068 449.574 788.241 447.121 791.38 443.83 795.846 448.857 798.811 443.191 802.92 447.969 806.468 447.363 810.008 445.563 813.624 446.807 817.126 448.584 821.042 443.871 824.811 443.581 827.4 450.729 831.254 449.197 835.407 447.33 838.165 450.796 841.084 453.123 844.584 453.785 848.104 454.574 851.469 455.82 852.771 460.468 855.575 462.385 861.115 460.812 864.66 462.267 869.43 462.622 868.099 469.15 870.472 471.805 877.615 470.747 871.879 479.542 877.295 480.095 875.679 485.215 882.7 485.343 882.901 489.323 881.958 493.666 890.842 493.968 885.29 499.912 890.055 502.189 891.154 509.334 890.295 500.437 886.898 498.632 881.89 498.541 878.802 496.617 873.922 496.697 872.826 492.661 873.818 486.019 870.37 484.49 863.181 487.837 860.894 485.093 859.891 480.472 858.805 475.698 856.12 473.122 849.419 477.242 846.155 475.994 846.307 468.105 840.616 471.647 837.717 469.596 834.236 468.976 831.2 467.146 827.398 468.025 825.029 462.599 820.798 467.085 817.901 460.221 814.252 466.24 810.523 461.75 806.734 461.867 803.631 464.336 801.166 467.518 798.686 470.101 795.955 472.12 790.745 470.774 788.504 473.759 784.86 474.986 784.544 480.052 779.976 480.326 779.282 484.781 775.511 486.018 772.387 487.957 770.61 491.236 769.606 495.254 764.381 495.174 760.332 496.242 763.011 503.84 754.675 500.714 752.279 503.356 750.935 507.048 748.907 510.074 746.236 512.447 745.971 517.37 739.943 516.136 738.58 519.924 735.153 521.41 733.104 524.484 733.887 531.132 729.467 531.41 725.688 532.389 723.961 536.171 717.934 533.698 718.779 541.605 714.408 541.471 711.806 544.263 705.404 539.817 705.99 549.114 700.948 546.848 698.908 551.483 694.173 549.202 689.67 546.747 687.282 551.12 683.217 549.337 680.011 551.054 677.319 556.931 673.431 555.473 669.57 552.214 666.033 550.875 662.498 557.969 658.982 553.895 655.493 552.018 652.081 549.673 647.904 556.632 644.317 555.857 640.711 555.323 636.79 557.208 634.132 549.938 629.679 555.07 626.854 550.02 622.491 553.6 618.629 554.117 615.515 551.198 611.668 551.5 608.185 550.285 604.411 550.079 601.8 546.101 598.987 543.113 595.805 541.373 590.255 545.632 589.468 538.027 586.591 535.796 580.225 540.649 581.3 530.813 575.806 533.39 570.779 534.565 572.307 525.812 569.062 524.451 563.748 525.434 559.921 524.209 561.399 517.731 555.47 518.216 554.716 514.263 549.57 512.964 551.794 507.873 550.53 504.613 547.478 500.944"/>
    <polygon points="547.478 500.944 551.912 497.708 548.695 493.032 554.069 491.171 551.152 484.303 556.042 482.9 560.892 483.638 563.469 478.384 568.153 485.919 571.55 482.542 575.284 481.919 578.624 484.203 582.916 481.883 585.73 485.017 588.917 486.417 592.649 486.93 596.058 488.264 599.841 489.109 600.901 493.844 604.224 495.318 606.407 498.545 610.949 497.964 611.997 503.51 616.901 501.812 618.099 508.087 624.653 501.283 626.734 505.865 629.522 509.024 633.473 508.185 636.685 510.183 640.574 508.985 644.526 506.768 648.098 506.338 651.011 511.404 654.163 516.086 658.181 511.326 661.415 517.204 665.32 511.443 668.912 511.705 672.435 510.932 676.144 511.372 680.339 513.132 684.171 512.667 685.208 504.818 690.231 507.609 692.998 504.985 697.108 504.898 697.747 498.989 702.97 500.437 707.665 500.722 708.136 495.181 710.396 492.203 716.554 494.105 715.736 487.338 721.183 488.246 722.909 484.65 722.293 478.229 726.632 477.767 731.558 478.074 730.989 471.511 735.018 470.71 739.558 470.686 744.946 472.028 747.347 469.276 749.52 466.102 751.11 461.831 756.115 463.254 757.302 457.948 760.305 455.77 764.83 456.84 765.882 450.052 770.468 451.513 774.405 451.678 777.246 448.571 782.567 454.103 785.068 449.574 788.241 447.121 791.38 443.83 795.846 448.857 798.811 443.191 802.92 447.969 806.468 447.363 810.008 445.563 813.624 446.807 817.126 448.584 821.042 443.871 824.811 443.581 827.4 450.729 831.254 449.197 835.407 447.33 838.165 450.796 841.084 453.123 844.584 453.785 848.104 454.574 851.469 455.82 852.771 460.468 855.575 462.385 861.115 460.812 864.66 462.267 869.43 462.622 868.099 469.15 870.472 471.805 877.615 470.747 871.879 479.542 877.295 480.095 875.679 485.215 882.7 485.343 882.901 489.323 881.958 493.666 890.842 493.968 885.29 499.912 890.055 502.189 891.154 509.334 890.295 500.437 886.898 498.632 881.89 498.541 878.802 496.617 873.922 496.697 872.826 492.661 873.818 486.019 870.37 484.49 863.181 487.837 860.894 485.093 859.891 480.472 858.805 475.698 856.12 473.122 849.419 477.242 846.155 475.994 846.307 468.105 840.616 471.647 837.717 469.596 834.236 468.976 831.2 467.146 827.398 468.025 825.029 462.599 820.798 467.085 817.901 460.221 814.252 466.24 810.523 461.75 806.734 461.867 803.631 464.336 801.166 467.518 798.686 470.101 795.955 472.12 790.745 470.774 788.504 473.759 784.86 474.986 784.544 480.052 779.976 480.326 779.282 484.781 775.511 486.018 772.387 487.957 770.61 491.236 769.606 495.254 764.381 495.174 760.332 496.242 763.011 503.84 754.675 500.714 752.279 503.356 750.935 507.048 748.907 510.074 746.236 512.447 745.971 517.37 739.943 516.136 738.58 519.924 735.153 521.41 733.104 524.484 733.887 531.132 729.467 531.41 725.688 532.389 723.961 536.171 717.934 533.698 718.779 541.605 714.408 541.471 711.806 544.263 705.404 539.817 705.99 549.114 700.948 546.848 698.908 551.483 694.173 549.202 689.67 546.747 687.282 551.12 683.217 549.337 680.011 551.054 677.319 556.931 673.431 555.473 669.57 552.214 666.033 550.875 662.498 557.969 658.982 553.895 655.493 552.018 652.081 549.673 647.904 556.632 644.317 555.857 640.711 555.323 636.79 557.208 634.132 549.938 629.679 555.07 626.854 550.02 622.491 553.6 618.629 554.117 615.515 551.198 611.668 551.5 608.185 550.285 604.411 550.079 601.8 546.101 598.987 543.113 595.805 541.373 590.255 545.632 589.468 538.027 586.591 535.796 580.225 540.649 581.3 530.813 575.806 533.39 570.779 534.565 572.307 525.812 569.062 524.451 563.748 525.434 559.921 524.209 561.399 517.731 555.47 518.216 554.716 514.263 549.57 512.964 551.794 507.873 550.53 504.613 547.478 500.944" style="fill: none; stroke: #000; stroke-linecap: round; stroke-linejoin: round; stroke-width: 35px;"/>
  </g>
  <g>
    <polygon points="452.121 500.973 451.226 497.161 449.88 493.484 446.638 490.797 445.256 487.388 442.523 484.933 437.974 486.427 434.844 486.653 431.906 484.94 428.437 482.253 424.142 477.342 421.333 483.977 416.444 479.244 412.588 480.314 411.259 486.788 409.342 490.389 405.455 490.59 398.824 487.176 396.408 489.98 393.081 491.323 394.167 499.45 389.709 499.092 385.338 498.467 382.406 500.35 379.495 502.381 375.163 500.79 373.853 507.65 368.634 502.619 367.094 510.441 362.617 506.983 359.746 510.682 355.657 507.906 351.997 507.029 348.71 508.956 345.473 512.176 341.878 512.113 338.439 514.636 334.676 516.056 331.108 511.364 327.295 513.104 324.739 506.723 320.013 511.761 318.07 505.739 313.703 507.611 310.404 506.212 306.568 505.824 304.202 502.617 299.224 503.812 298.78 497.849 296.941 494.306 290.805 496.586 288.346 493.81 285.786 491.197 280.186 492.308 281.127 485.46 276.011 485.947 275.017 481.475 269.454 482.542 270.386 475.661 267.858 472.976 264.398 471.474 262.747 467.561 256.278 470.299 255.467 465.112 253.393 461.563 248.451 462.555 242.999 464.811 242.225 458.839 239.688 455.784 236.612 453.668 231.177 457.11 228.952 453.044 225.335 452.437 223.051 447.601 219.079 448.011 214.278 452.346 211.008 450.831 208.588 444.019 204.367 447.332 200.86 446.197 197.46 443.256 193.817 442.008 189.868 450.198 186.403 450.127 182.81 447.145 178.782 441.759 175.194 443.618 172.141 447.992 169.167 451.166 164.31 446.25 161.873 450.917 157.587 449.526 154.281 451.131 151.062 452.871 146.803 452.714 146.199 458.824 142.035 458.978 140.86 463.339 138.803 466.259 134.487 466.704 129.538 466.916 125.18 468.072 123.198 471.382 121.248 474.654 122.011 479.645 116.003 480.315 116.002 484.648 114.253 487.946 113.311 491.606 117.814 497.329 113.605 499.535 109.923 502.182 108.512 504.356 115.068 505.454 118.287 503.701 115.827 496.221 119.898 495.245 120.909 491.032 122.879 487.771 130.564 491.207 132.503 488.032 131.931 481.543 136.736 481.898 138.845 478.681 140.045 473.98 146.463 477.216 150.704 477.449 150.061 469.119 154.838 470.36 158.146 468.967 163.215 471.846 163.233 462.017 168.428 465.946 171.176 462.388 175.302 464.322 178.744 463.484 182.482 466.904 185.816 462.274 189.654 459.919 193.119 462.494 197.252 461.884 201.666 461.514 205.282 463.138 208.118 465.908 208.018 472.469 208.656 477.339 214.682 475.526 217.422 477.851 219.735 480.637 220.494 485.015 225.484 485.009 230.97 484.618 230.892 489.762 234.459 491.299 232.204 498.484 234.475 501.275 241.635 499.322 239.346 506.569 243.836 507.2 248.111 508.005 252.466 508.674 253.966 512.237 256.781 514.445 257.214 519.233 259.117 522.506 265.483 520.675 268.241 522.875 270.1 526.178 273.896 527.057 276.111 529.953 277.536 534.043 282.991 532.311 285.18 535.323 286.885 539.286 288.149 544.345 291.457 545.934 297.022 542.744 300.681 543.078 301.763 549.767 305.957 548.83 308.65 552.19 312.63 551.45 315.627 554.451 318.854 557.182 322.537 557.924 327.203 549.401 330.112 557.111 333.905 553.276 337.497 557.582 340.832 550.149 344.391 550.159 348.543 558.001 351.995 555.497 354.942 548.583 358.782 550.952 362.27 550.016 366.593 554.906 370.092 553.652 373.187 550.248 376.519 548.539 379.818 546.848 383.899 548.681 387.31 547.455 391.311 548.442 393.031 541.427 398.459 546.911 400.107 540.48 403.606 539.786 409.63 545.344 409.856 536.457 416.632 542.74 419.578 540.255 419.585 532.447 426.6 537.489 428.737 533.807 428.177 526.508 435.506 530.425 432.853 521.416 440.721 524.888 443.531 522.328 442.038 516.212 445.605 514.478 444.051 509.614 452.99 509.609 453.204 505.252 452.121 500.973"/>
    <polygon points="452.121 500.973 451.226 497.161 449.88 493.484 446.638 490.797 445.256 487.388 442.523 484.933 437.974 486.427 434.844 486.653 431.906 484.94 428.437 482.253 424.142 477.342 421.333 483.977 416.444 479.244 412.588 480.314 411.259 486.788 409.342 490.389 405.455 490.59 398.824 487.176 396.408 489.98 393.081 491.323 394.167 499.45 389.709 499.092 385.338 498.467 382.406 500.35 379.495 502.381 375.163 500.79 373.853 507.65 368.634 502.619 367.094 510.441 362.617 506.983 359.746 510.682 355.657 507.906 351.997 507.029 348.71 508.956 345.473 512.176 341.878 512.113 338.439 514.636 334.676 516.056 331.108 511.364 327.295 513.104 324.739 506.723 320.013 511.761 318.07 505.739 313.703 507.611 310.404 506.212 306.568 505.824 304.202 502.617 299.224 503.812 298.78 497.849 296.941 494.306 290.805 496.586 288.346 493.81 285.786 491.197 280.186 492.308 281.127 485.46 276.011 485.947 275.017 481.475 269.454 482.542 270.386 475.661 267.858 472.976 264.398 471.474 262.747 467.561 256.278 470.299 255.467 465.112 253.393 461.563 248.451 462.555 242.999 464.811 242.225 458.839 239.688 455.784 236.612 453.668 231.177 457.11 228.952 453.044 225.335 452.437 223.051 447.601 219.079 448.011 214.278 452.346 211.008 450.831 208.588 444.019 204.367 447.332 200.86 446.197 197.46 443.256 193.817 442.008 189.868 450.198 186.403 450.127 182.81 447.145 178.782 441.759 175.194 443.618 172.141 447.992 169.167 451.166 164.31 446.25 161.873 450.917 157.587 449.526 154.281 451.131 151.062 452.871 146.803 452.714 146.199 458.824 142.035 458.978 140.86 463.339 138.803 466.259 134.487 466.704 129.538 466.916 125.18 468.072 123.198 471.382 121.248 474.654 122.011 479.645 116.003 480.315 116.002 484.648 114.253 487.946 113.311 491.606 117.814 497.329 113.605 499.535 109.923 502.182 108.512 504.356 115.068 505.454 118.287 503.701 115.827 496.221 119.898 495.245 120.909 491.032 122.879 487.771 130.564 491.207 132.503 488.032 131.931 481.543 136.736 481.898 138.845 478.681 140.045 473.98 146.463 477.216 150.704 477.449 150.061 469.119 154.838 470.36 158.146 468.967 163.215 471.846 163.233 462.017 168.428 465.946 171.176 462.388 175.302 464.322 178.744 463.484 182.482 466.904 185.816 462.274 189.654 459.919 193.119 462.494 197.252 461.884 201.666 461.514 205.282 463.138 208.118 465.908 208.018 472.469 208.656 477.339 214.682 475.526 217.422 477.851 219.735 480.637 220.494 485.015 225.484 485.009 230.97 484.618 230.892 489.762 234.459 491.299 232.204 498.484 234.475 501.275 241.635 499.322 239.346 506.569 243.836 507.2 248.111 508.005 252.466 508.674 253.966 512.237 256.781 514.445 257.214 519.233 259.117 522.506 265.483 520.675 268.241 522.875 270.1 526.178 273.896 527.057 276.111 529.953 277.536 534.043 282.991 532.311 285.18 535.323 286.885 539.286 288.149 544.345 291.457 545.934 297.022 542.744 300.681 543.078 301.763 549.767 305.957 548.83 308.65 552.19 312.63 551.45 315.627 554.451 318.854 557.182 322.537 557.924 327.203 549.401 330.112 557.111 333.905 553.276 337.497 557.582 340.832 550.149 344.391 550.159 348.543 558.001 351.995 555.497 354.942 548.583 358.782 550.952 362.27 550.016 366.593 554.906 370.092 553.652 373.187 550.248 376.519 548.539 379.818 546.848 383.899 548.681 387.31 547.455 391.311 548.442 393.031 541.427 398.459 546.911 400.107 540.48 403.606 539.786 409.63 545.344 409.856 536.457 416.632 542.74 419.578 540.255 419.585 532.447 426.6 537.489 428.737 533.807 428.177 526.508 435.506 530.425 432.853 521.416 440.721 524.888 443.531 522.328 442.038 516.212 445.605 514.478 444.051 509.614 452.99 509.609 453.204 505.252 452.121 500.973" style="fill: none; stroke: #000; stroke-linecap: round; stroke-linejoin: round; stroke-width: 35px;"/>
  </g>
</svg>