<?xml version="1.0" encoding="UTF-8"?>
<svg id="Sticker" xmlns="http://www.w3.org/2000/svg" width="1000" height="1000" viewBox="0 0 1000 1000">
  <polygon points="269.992 225.162 273.721 229.282 277.308 223.76 280.896 222.434 284.483 227.151 288.07 222.734 291.658 228.762 295.245 228.58 298.833 228.998 302.422 224.951 306.011 221.382 309.601 229.824 313.191 222.866 316.783 225.714 320.374 227.751 323.965 223.432 327.555 227.204 331.144 224.084 334.733 224.968 338.321 228.406 341.909 228.405 345.498 228.627 349.086 226.075 352.675 225.822 356.264 222.484 359.854 224.02 363.444 221.186 367.035 229.755 370.628 222.761 374.219 221.242 377.81 228.199 381.4 223.519 384.989 224.473 388.578 223.513 392.167 221.545 395.756 220.871 399.346 222.255 402.936 225.194 406.527 222.392 410.118 226.889 413.711 221.439 417.302 225.818 420.893 228.759 424.484 228.208 428.073 229.089 431.663 226.443 435.253 228.966 438.843 227.292 442.434 225.721 446.026 220.524 449.619 226.862 453.211 220.445 456.802 223.652 460.392 226.481 463.983 222.27 467.573 224.231 471.164 222.899 474.756 224.147 478.349 225.079 481.941 220.009 485.532 220.576 489.123 222.301 492.714 226.433 496.305 221.252 499.897 224.731 503.49 229.458 507.082 225.441 510.674 223.351 514.265 228.541 517.856 225.103 521.448 224.856 525.041 220.589 528.634 225.83 532.226 223.573 535.817 224.153 539.404 219.966 542.991 223.824 546.577 227.753 550.165 223.45 553.754 226.567 557.345 224.094 560.939 224.79 564.53 226.708 568.12 220.168 571.709 227.614 575.298 221.001 578.887 227.635 582.478 227.748 586.071 224.885 589.664 228.172 593.256 226.76 596.846 221.615 600.436 227.054 604.028 228.433 607.622 223.078 611.216 227.826 614.807 228.96 618.399 219.885 621.992 228.738 625.587 224.579 629.18 220.058 632.773 220.19 636.367 220.185 639.962 225.284 643.555 224.149 647.149 220.284 650.744 224.211 654.338 225.974 657.934 223.858 661.528 225.425 665.124 222.344 668.719 221.782 672.315 220.788 675.906 225.745 679.501 222.011 683.093 222.125 686.688 227.309 690.282 223.511 693.879 227.92 697.474 229.317 701.07 220.892 704.668 229.258 708.267 222.093 711.865 220.293 715.462 226.948 719.06 224.01 722.658 225.991 726.263 226.111 732.648 222.336 724.566 227.841 730.715 232.155 724.557 235.07 726.291 238.883 727.295 242.614 726.422 246.132 730.571 250.222 722.162 252.885 730.808 257.485 726.613 260.625 723.447 263.882 727.898 268.003 726.983 271.514 728.761 275.331 720.481 278.004 723.003 281.905 723.353 285.558 718.701 288.643 726.409 293.133 720.893 296.12 723.636 300.046 723.445 303.638 718.802 306.725 720.65 310.55 721.787 314.294 718.768 317.567 722.272 321.582 722.363 325.21 722.311 328.822 716.066 331.731 718.45 335.621 715.717 338.928 715.1 342.475 712.056 345.746 719.93 350.257 715.41 353.359 716.901 357.143 716.518 360.715 715.36 364.198 713.285 367.578 708.309 370.627 710.567 374.499 714.548 378.568 710.213 381.691 707.562 385.007 710.924 389.007 710.061 392.527 707.555 395.862 710.686 399.837 713.176 403.738 704.66 406.388 711.911 410.829 709.438 414.164 709.343 417.77 710.517 421.519 702.55 424.23 705.381 428.168 701.816 431.379 710.544 435.988 704.669 438.938 703.028 442.37 700.318 445.681 706.396 449.992 699.26 452.8 699.745 456.473 703.439 460.511 704.381 464.235 701.537 467.529 705.012 471.541 701.062 474.709 704.189 478.682 698.942 481.703 697.444 485.151 699.249 488.976 700.668 492.758 701.189 496.436 701.227 500.059 694.615 502.926 694.029 506.477 692.759 509.95 701.582 514.571 699.097 517.906 698.801 521.492 700.524 525.307 700.11 528.881 692.462 531.631 697.24 535.793 697.371 539.426 689.296 542.126 692.928 546.158 696.468 550.179 693.625 553.475 688.024 556.459 694.034 560.762 695.884 564.592 687.438 567.251 686.926 570.811 687.931 574.544 694.35 578.893 686.855 581.662 685.186 585.093 692.194 589.509 692.732 593.189 683.377 595.745 687.464 599.829 682.329 602.866 682.181 606.47 690.36 611.019 683.609 613.871 684.914 617.635 683.047 621.037 686.352 625.027 688.476 628.883 685.15 632.122 685.683 635.801 685.969 639.455 685.645 643.038 683.236 646.382 677.289 649.323 679.083 653.143 681.575 657.044 682.555 660.773 675.607 663.605 680.786 667.815 674.201 670.685 675.746 674.479 675.376 678.055 682.559 682.491 672.962 685.022 679.969 689.44 676.782 692.698 677.593 696.409 673.655 699.582 678.775 703.788 672.013 706.64 669.907 710.021 675.39 714.266 670.908 717.379 669.71 720.864 671.301 724.667 672.879 728.469 673.55 732.167 673.178 735.748 675.266 739.608 671.562 742.81 671.637 746.442 672.272 750.138 671.515 753.671 668.756 756.981 668.807 760.606 664.185 763.704 670.399 768.031 668.199 771.406 662.682 774.402 663.693 778.141 661.732 781.544 661.24 785.114 670.239 789.763 668.403 793.18 666.108 796.544 661.917 799.694 665.713 803.758 660.403 803.485 660.061 808.012 656.447 803.888 652.833 810.821 649.219 803.266 645.606 806.404 641.993 811.933 638.38 804.047 634.767 810.989 631.152 808.623 627.537 807.726 623.921 806.704 620.306 804.156 616.692 804.175 613.078 807.972 609.465 810.006 605.851 805.885 602.237 804.909 598.622 805.743 595.006 803.958 591.391 808.483 587.776 805.363 584.162 805.272 580.548 809.518 576.934 810.165 573.319 809.62 569.703 805.675 566.087 803.651 562.472 808.988 558.858 803.72 555.243 811.413 551.628 808.874 548.012 804.291 544.396 807.712 540.781 802.299 537.166 803.827 533.556 810.977 529.947 806.391 526.337 810.879 522.726 806.44 519.114 806.933 515.5 802.788 511.883 809.973 508.268 806.268 504.655 808.914 501.043 803.484 497.431 808.224 493.819 807.541 490.205 807.19 486.588 809.794 482.972 806.427 479.357 809.502 475.744 804.278 472.13 803.896 468.515 802.488 464.898 805.595 461.281 808.069 457.666 803.967 454.052 807.799 450.435 808.057 446.817 804.66 443.2 807.379 439.585 802.856 435.968 809.493 432.349 811.21 428.733 806.028 425.116 804.925 421.497 807.972 417.88 804.12 414.261 802.858 410.644 805.575 407.025 807.234 403.407 802.866 399.787 803.628 396.169 810.88 392.551 808.552 388.936 804.783 385.318 803.008 381.701 812.119 378.081 805.811 374.464 811.125 370.844 809.043 367.223 809.765 363.602 810.381 359.981 809.696 356.361 805.069 352.74 808.601 349.118 807.335 345.491 804.388 343.116 803.32 341.85 803.533 338.62 800.282 340.829 796.387 339.418 792.924 340.463 789.168 335.085 786.171 334.985 782.552 340.151 778.309 335.879 775.184 336.508 771.478 339.443 767.498 338.537 763.973 339.227 760.258 339.221 756.625 331.967 753.851 331.343 750.29 331.854 746.595 329.941 743.187 331.926 739.317 334.684 735.355 329.037 732.391 328.348 728.839 333.301 724.617 336.601 720.591 328.685 717.898 328.097 714.333 327.975 710.714 329.145 706.943 325.971 703.688 333.318 699.182 329.631 695.988 326.552 692.721 331.518 688.498 325.189 685.618 323.456 682.192 330.728 677.693 325.786 674.649 325.857 671.007 330.025 666.877 329.367 663.322 325.625 660.135 324.79 656.601 319.912 653.549 327.649 648.992 326.841 645.455 324.193 642.136 326.246 638.257 320.099 635.356 318.571 631.905 318.231 628.311 322.979 624.109 322.712 620.506 322.002 616.956 323.664 613.123 315.373 610.479 322.273 606.019 321.555 602.469 316.366 599.455 319.694 595.421 312.636 592.637 319.076 588.236 310.487 585.635 311.241 581.914 314.599 577.881 309.66 574.841 315.56 570.502 314.144 567.04 310.824 563.805 310.362 560.228 309.04 556.753 314.919 552.413 310.21 549.344 309.922 545.745 307.101 542.449 312.206 538.203 314.268 534.321 310.467 531.144 303.777 528.314 303.814 524.674 310.549 520.227 309.461 516.72 310.22 512.99 305.083 509.97 303.988 506.463 303.521 502.879 303.894 499.193 308.895 494.948 302.691 492.055 301.355 488.577 299.598 485.151 301.214 481.317 298.823 477.967 298.372 474.382 302.49 470.244 302.028 466.66 300.115 463.252 299.507 459.686 295.465 456.536 297.389 452.663 303.734 448.253 303.1 444.689 299.017 441.544 300.489 437.725 297.817 434.409 292.668 431.395 298.551 427.039 298.242 423.436 291.609 420.603 298.296 416.148 295.672 412.828 291.535 409.692 290.74 406.149 296.536 401.801 288.35 399.162 294.817 394.731 288.082 391.915 288.525 388.222 287.587 384.698 294.724 380.183 285.987 377.616 285.458 374.042 284.66 370.502 291.512 366.02 291.292 362.409 292.977 358.562 286.523 355.721 284.01 352.394 288.975 348.143 281.733 345.402 283.789 341.511 282.159 338.077 284.728 334.12 285.25 330.417 288.719 326.346 287.276 322.886 283.387 319.733 284.844 315.91 277.904 313.141 284.403 308.685 283.546 305.152 280.778 301.861 276.256 298.793 276.182 295.163 284.325 290.49 278.868 287.545 278.1 284.005 273.609 280.943 275.457 277.071 274.138 273.604 281.664 268.99 273.118 266.462 276.087 262.435 278.316 258.502 271.699 255.739 274.274 251.756 274.449 248.092 274.318 244.467 277.595 240.363 268.3 238.033 272.648 233.768 273.398 229.999 272.381 226.474 269.992 225.162" style="fill: #fff;"/>
  <polygon points="269.992 225.162 273.721 229.282 277.308 223.76 280.896 222.434 284.483 227.151 288.07 222.734 291.658 228.762 295.245 228.58 298.833 228.998 302.422 224.951 306.011 221.382 309.601 229.824 313.191 222.866 316.783 225.714 320.374 227.751 323.965 223.432 327.555 227.204 331.144 224.084 334.733 224.968 338.321 228.406 341.909 228.405 345.498 228.627 349.086 226.075 352.675 225.822 356.264 222.484 359.854 224.02 363.444 221.186 367.035 229.755 370.628 222.761 374.219 221.242 377.81 228.199 381.4 223.519 384.989 224.473 388.578 223.513 392.167 221.545 395.756 220.871 399.346 222.255 402.936 225.194 406.527 222.392 410.118 226.889 413.711 221.439 417.302 225.818 420.893 228.759 424.484 228.208 428.073 229.089 431.663 226.443 435.253 228.966 438.843 227.292 442.434 225.721 446.026 220.524 449.619 226.862 453.211 220.445 456.802 223.652 460.392 226.481 463.983 222.27 467.573 224.231 471.164 222.899 474.756 224.147 478.349 225.079 481.941 220.009 485.532 220.576 489.123 222.301 492.714 226.433 496.305 221.252 499.897 224.731 503.49 229.458 507.082 225.441 510.674 223.351 514.265 228.541 517.856 225.103 521.448 224.856 525.041 220.589 528.634 225.83 532.226 223.573 535.817 224.153 539.404 219.966 542.991 223.824 546.577 227.753 550.165 223.45 553.754 226.567 557.345 224.094 560.939 224.79 564.53 226.708 568.12 220.168 571.709 227.614 575.298 221.001 578.887 227.635 582.478 227.748 586.071 224.885 589.664 228.172 593.256 226.76 596.846 221.615 600.436 227.054 604.028 228.433 607.622 223.078 611.216 227.826 614.807 228.96 618.399 219.885 621.992 228.738 625.587 224.579 629.18 220.058 632.773 220.19 636.367 220.185 639.962 225.284 643.555 224.149 647.149 220.284 650.744 224.211 654.338 225.974 657.934 223.858 661.528 225.425 665.124 222.344 668.719 221.782 672.315 220.788 675.906 225.745 679.501 222.011 683.093 222.125 686.688 227.309 690.282 223.511 693.879 227.92 697.474 229.317 701.07 220.892 704.668 229.258 708.267 222.093 711.865 220.293 715.462 226.948 719.06 224.01 722.658 225.991 726.263 226.111 732.648 222.336 724.566 227.841 730.715 232.155 724.557 235.07 726.291 238.883 727.295 242.614 726.422 246.132 730.571 250.222 722.162 252.885 730.808 257.485 726.613 260.625 723.447 263.882 727.898 268.003 726.983 271.514 728.761 275.331 720.481 278.004 723.003 281.905 723.353 285.558 718.701 288.643 726.409 293.133 720.893 296.12 723.636 300.046 723.445 303.638 718.802 306.725 720.65 310.55 721.787 314.294 718.768 317.567 722.272 321.582 722.363 325.21 722.311 328.822 716.066 331.731 718.45 335.621 715.717 338.928 715.1 342.475 712.056 345.746 719.93 350.257 715.41 353.359 716.901 357.143 716.518 360.715 715.36 364.198 713.285 367.578 708.309 370.627 710.567 374.499 714.548 378.568 710.213 381.691 707.562 385.007 710.924 389.007 710.061 392.527 707.555 395.862 710.686 399.837 713.176 403.738 704.66 406.388 711.911 410.829 709.438 414.164 709.343 417.77 710.517 421.519 702.55 424.23 705.381 428.168 701.816 431.379 710.544 435.988 704.669 438.938 703.028 442.37 700.318 445.681 706.396 449.992 699.26 452.8 699.745 456.473 703.439 460.511 704.381 464.235 701.537 467.529 705.012 471.541 701.062 474.709 704.189 478.682 698.942 481.703 697.444 485.151 699.249 488.976 700.668 492.758 701.189 496.436 701.227 500.059 694.615 502.926 694.029 506.477 692.759 509.95 701.582 514.571 699.097 517.906 698.801 521.492 700.524 525.307 700.11 528.881 692.462 531.631 697.24 535.793 697.371 539.426 689.296 542.126 692.928 546.158 696.468 550.179 693.625 553.475 688.024 556.459 694.034 560.762 695.884 564.592 687.438 567.251 686.926 570.811 687.931 574.544 694.35 578.893 686.855 581.662 685.186 585.093 692.194 589.509 692.732 593.189 683.377 595.745 687.464 599.829 682.329 602.866 682.181 606.47 690.36 611.019 683.609 613.871 684.914 617.635 683.047 621.037 686.352 625.027 688.476 628.883 685.15 632.122 685.683 635.801 685.969 639.455 685.645 643.038 683.236 646.382 677.289 649.323 679.083 653.143 681.575 657.044 682.555 660.773 675.607 663.605 680.786 667.815 674.201 670.685 675.746 674.479 675.376 678.055 682.559 682.491 672.962 685.022 679.969 689.44 676.782 692.698 677.593 696.409 673.655 699.582 678.775 703.788 672.013 706.64 669.907 710.021 675.39 714.266 670.908 717.379 669.71 720.864 671.301 724.667 672.879 728.469 673.55 732.167 673.178 735.748 675.266 739.608 671.562 742.81 671.637 746.442 672.272 750.138 671.515 753.671 668.756 756.981 668.807 760.606 664.185 763.704 670.399 768.031 668.199 771.406 662.682 774.402 663.693 778.141 661.732 781.544 661.24 785.114 670.239 789.763 668.403 793.18 666.108 796.544 661.917 799.694 665.713 803.758 660.403 803.485 660.061 808.012 656.447 803.888 652.833 810.821 649.219 803.266 645.606 806.404 641.993 811.933 638.38 804.047 634.767 810.989 631.152 808.623 627.537 807.726 623.921 806.704 620.306 804.156 616.692 804.175 613.078 807.972 609.465 810.006 605.851 805.885 602.237 804.909 598.622 805.743 595.006 803.958 591.391 808.483 587.776 805.363 584.162 805.272 580.548 809.518 576.934 810.165 573.319 809.62 569.703 805.675 566.087 803.651 562.472 808.988 558.858 803.72 555.243 811.413 551.628 808.874 548.012 804.291 544.396 807.712 540.781 802.299 537.166 803.827 533.556 810.977 529.947 806.391 526.337 810.879 522.726 806.44 519.114 806.933 515.5 802.788 511.883 809.973 508.268 806.268 504.655 808.914 501.043 803.484 497.431 808.224 493.819 807.541 490.205 807.19 486.588 809.794 482.972 806.427 479.357 809.502 475.744 804.278 472.13 803.896 468.515 802.488 464.898 805.595 461.281 808.069 457.666 803.967 454.052 807.799 450.435 808.057 446.817 804.66 443.2 807.379 439.585 802.856 435.968 809.493 432.349 811.21 428.733 806.028 425.116 804.925 421.497 807.972 417.88 804.12 414.261 802.858 410.644 805.575 407.025 807.234 403.407 802.866 399.787 803.628 396.169 810.88 392.551 808.552 388.936 804.783 385.318 803.008 381.701 812.119 378.081 805.811 374.464 811.125 370.844 809.043 367.223 809.765 363.602 810.381 359.981 809.696 356.361 805.069 352.74 808.601 349.118 807.335 345.491 804.388 343.116 803.32 341.85 803.533 338.62 800.282 340.829 796.387 339.418 792.924 340.463 789.168 335.085 786.171 334.985 782.552 340.151 778.309 335.879 775.184 336.508 771.478 339.443 767.498 338.537 763.973 339.227 760.258 339.221 756.625 331.967 753.851 331.343 750.29 331.854 746.595 329.941 743.187 331.926 739.317 334.684 735.355 329.037 732.391 328.348 728.839 333.301 724.617 336.601 720.591 328.685 717.898 328.097 714.333 327.975 710.714 329.145 706.943 325.971 703.688 333.318 699.182 329.631 695.988 326.552 692.721 331.518 688.498 325.189 685.618 323.456 682.192 330.728 677.693 325.786 674.649 325.857 671.007 330.025 666.877 329.367 663.322 325.625 660.135 324.79 656.601 319.912 653.549 327.649 648.992 326.841 645.455 324.193 642.136 326.246 638.257 320.099 635.356 318.571 631.905 318.231 628.311 322.979 624.109 322.712 620.506 322.002 616.956 323.664 613.123 315.373 610.479 322.273 606.019 321.555 602.469 316.366 599.455 319.694 595.421 312.636 592.637 319.076 588.236 310.487 585.635 311.241 581.914 314.599 577.881 309.66 574.841 315.56 570.502 314.144 567.04 310.824 563.805 310.362 560.228 309.04 556.753 314.919 552.413 310.21 549.344 309.922 545.745 307.101 542.449 312.206 538.203 314.268 534.321 310.467 531.144 303.777 528.314 303.814 524.674 310.549 520.227 309.461 516.72 310.22 512.99 305.083 509.97 303.988 506.463 303.521 502.879 303.894 499.193 308.895 494.948 302.691 492.055 301.355 488.577 299.598 485.151 301.214 481.317 298.823 477.967 298.372 474.382 302.49 470.244 302.028 466.66 300.115 463.252 299.507 459.686 295.465 456.536 297.389 452.663 303.734 448.253 303.1 444.689 299.017 441.544 300.489 437.725 297.817 434.409 292.668 431.395 298.551 427.039 298.242 423.436 291.609 420.603 298.296 416.148 295.672 412.828 291.535 409.692 290.74 406.149 296.536 401.801 288.35 399.162 294.817 394.731 288.082 391.915 288.525 388.222 287.587 384.698 294.724 380.183 285.987 377.616 285.458 374.042 284.66 370.502 291.512 366.02 291.292 362.409 292.977 358.562 286.523 355.721 284.01 352.394 288.975 348.143 281.733 345.402 283.789 341.511 282.159 338.077 284.728 334.12 285.25 330.417 288.719 326.346 287.276 322.886 283.387 319.733 284.844 315.91 277.904 313.141 284.403 308.685 283.546 305.152 280.778 301.861 276.256 298.793 276.182 295.163 284.325 290.49 278.868 287.545 278.1 284.005 273.609 280.943 275.457 277.071 274.138 273.604 281.664 268.99 273.118 266.462 276.087 262.435 278.316 258.502 271.699 255.739 274.274 251.756 274.449 248.092 274.318 244.467 277.595 240.363 268.3 238.033 272.648 233.768 273.398 229.999 272.381 226.474 269.992 225.162" style="fill: none; stroke: #000; stroke-linecap: round; stroke-linejoin: round; stroke-width: 40px;"/>
</svg>