<?xml version="1.0" encoding="UTF-8"?>
<svg id="Sticker" xmlns="http://www.w3.org/2000/svg" width="1000" height="1000" viewBox="0 0 1000 1000">
  <path d="M843.248,349.088l1.203.384,4.805-.47-1.411-6.216,2.256-2.827,6.425,1.033,5.202-.095-3.084-7.772,2.334-2.76,2.675-2.438,3.632-1.558.422-4.528,8.197,2.668.044-4.88.493-4.466,6.44,1.039-1.912-6.685,1.487-3.543,8.144,2.616-.88-5.742,2.825-2.312,5.856.487,3.497-6.03-6.327-3.166-2.886-2.113-5.653.875,2.982-8.445-2.865-2.132-4.125-.773-.911-4.248-6.52,1.812-3.359-1.6-2.546-2.48.934-6.239-2.496-2.533-2.799-2.207-1.177-3.96-7.988,3.396,2.414-7.825-2.801-2.197-5.864,1.103-.036-5.19-7.142,2.487,2.095-7.489-8.193,3.613-1.797-3.287-.017-5.215-5.694.918,1.722-7.094-3.284-1.687-4.588-.282-2.633-2.394-3.216-1.753,1.709-7.078-5.54.742-2.515-2.525-4.249-.653,1.171-6.514.648-.866-.952-2.326-7.358,1.255-2.331-2.74,2.191-7.746-3.09-1.899-1.838-3.275-5.822,1.129-3.093-1.893-2.666-2.361-2.101-2.99,1.02-6.453-6.54,1.927-3.257-1.716-3.541-1.399-1.265-3.924-3.969-.926-2.661-2.378.423-5.796-2.663-2.366-3.646-1.284-2.768-2.263-5.086.304-1.059-4.158,1.92-7.467-5.949-3.416-3.023,6.46-3.895,1.177-.943,4.129.82,5.893-7.038-1.964-2.628,2.445,1.877,6.951-7.612-2.537-.98,4.096.096,5.173-2.285,2.793-6.98-1.901,2.979,8.06-7.459-2.379,1.946,7.024-3.167,1.911-2.183,2.894-7.936-2.86,3.373,8.448-2.474,2.601-2.283,2.792-7.733-2.658-2.695,2.379-4.052,1.023,1.746,6.821-1.063,4.013-6.391-1.315,2.305,7.382-4.32.758-1.695,3.384-4.688.393-3.23,1.85-5.33-.25-1.83,3.249-.086,4.991-3.897,1.18,2.087,7.164-7.49-2.414-2.248,2.828-.887,4.189.362,5.438-2.809,2.268-8.667-3.589,1.026,6.105-2.318,2.762.334,5.416-4.185.895-1.928,3.151-8.235-3.157,3.223,8.3-4.99.088-4.464.613,1.844,6.921-4.716.361-3.008,2.071-2.794,2.286-5.234-.153,3.738,8.82-6.015-.934-3.462,1.618-2.232,2.847-2.224,2.855-1.143,3.935-3.083,1.995-2.523,2.556-.061,5.019-1.755,3.327-3.481,1.601-4.429.652-6.264-1.184,1.785,6.864-6.544-1.465-2.593,2.48,1.333,6.409-.915,4.164-3.862,1.221-7.162-2.081-1.888,3.19-3.088,1.988,2.691,7.764-4.393.679-4.424.647-2.274,2.797-2.066,3.006-4.712.36,1.736,6.81-7.025-1.948,2.519,7.599-5.645-.562-.381,4.701-4.97.109-3.532,1.545-1.474,3.602-.508,4.568-2.794,2.281-.917,4.16-1.611,3.468-5.78-.699-1.068,4.017-6.721-1.638,1.666,6.747-6.248-1.169-.254,4.824-2.543,2.536-1.602,3.479-3.732,1.353-.004,5.081-5.901-.819-3.851,1.229,1.331,6.411-3.038,2.045-2.864,2.222.565,5.65-6.699-1.617.036,5.118-4.525.559.541,5.629-6.734-1.649-2.913,2.171-1.882,3.203-4.055,1.032,1.706,6.791-5.232-.147-3.832,1.255-.098,4.988.791,5.866-5.975-.897-3.648,1.438-2.963,2.122,1.226,6.307-4.632.452-2.082,3.008-5.299-.214-1.49,3.6,1.261,6.348-3.098,1.994-6.967-1.878.226,5.317-3.038,2.056-4.385.698-3.254,1.836,3.35,8.446-2.575,2.521-4.724.374-6.536-1.43-.934,3.168-2.629,2.239-4.267,1.216-1.534-6.766-4.663,2.469-2.639-3.69-3.567-.837-3.564-.834-2.913-3.062-4.87,3.761-2.926-3.064-4.231,1.777-3.732.022-2.901-3.368-2.792-4.105-3.069-3.202-3.74-.2-3.708-.318-4.222,2.736-2.884-5.288-3.984,1.57-3.671-.518-3.752.293-4.096,6.045-3.406-3.372-3.609-2.778-3.541,4.361-3.761-5.484-3.714-.93-3.108,7.257-3.731-1.798-3.269,2.771-3.343,1.561-4.68-7-3.39,1.809-2.487,6.017-4.144-2.375-3.167,2.151-2.625,3.97-5.094-5.031-4.186-1.261-1.103,8.292-4.444-1.991-3.432,1.062-5.089-3.027.189,9.833-5.417-3.503-2.123,3.937-4.441-.934-3.079,1.9-4.986-1.575-.918,5.761-1.756,4.026-4.064.193-2.026,3.417-1.771,3.663-2.722,2.208-3.342,1.371-6.149-2.148-5.034-.436.554,6.345-2.677,2.387-2.997,2.039-4.458.55-.14,5.02.487,5.431-5.094.056-1.289,3.627-7.364-1.62-2.594,2.623,2.813,6.882-7.515-1.214.051,4.579-.069,4.363.152,4.392-3.192,2.151-1.581,3.2-4.588,1.446-2.785,2.591,3.212,5.799-1.51,3.185-2.786,2.576.023,3.904-2.31,2.838-3.659,2.338,2.913,4.942-2.465,2.832-3.514,2.541-4.689,2.282-.901,3.538,4.165,4.887.292,3.714-6.438,2.157,1.531,4.016-2.989,3.098,1.175,3.867-2.711,3.249-2.482,3.366-.534,3.644,8.677,4.384-7.669,3.051,3.82,3.803-4.388,3.485,7.29,3.656-.174,3.515-7.997,3.834,2.393,3.539,6.837,3.098-2.445,3.76.887,3.473-4.925,4.272,1.244,3.5,3.408,3.078,1.724,3.305,1.715,3.264-1.79,4.085,1.267,3.381-.932,4.003,7.036,1.607-5.412,5.494,6.448,1.563.728,3.493-5.532,6.04,8.882.216-6.337,6.717,2.416,2.939,7.801.202-5.325,6.792,3.524,2.27,7.323-.021-4.608,6.909,9.272-1.53-4.63,7.261,1.895,3.133,6.278-.02.636,3.97,5.206.48-4.139,7.923,3.064,2.222,6.644-1-.575,5.357,5.54-.293-.539,5.548,6.958-2.007,1.01,4.069.652,4.611,5.521-.922-2.416,8.519,4.95-.344,3.434,1.449,1.881,3.539,4.773-.52,1.74,3.833,2.994,2.022,3.736.804,3.413,1.263,3.793.522,1.594,4.585,3.511,1.052,2.589,2.933,4.467-1.083,1.567,5.425,4.767-2.045,1.478,6.203,6.397-6.962,2.169,4.595,2.759,3.201,3.987-.721,3.148,2.134,3.969-.993,4.109-1.975,3.631-.195,2.602,5.253,2.854,4.886,4.349-4.478,2.876,6.076,4.255-5.439,3.532.691,3.602-.195,3.53,1.187,3.543,2.738,3.648.656,3.521-7.082,3.698,4.419,3.537-1.328,3.729,1.638,3.14-5.036,3.994,3.652,3.988,2.425,2.963-4.678,3.358-1.575,4.56,4.539,2.331-6.394,4.457,3.234,3.098-2.51,1.994-6.089,4.066,1.289,4.436,2.085,1.576-6.35,3.941.507,4.31,1.221,4.988,2.527,3.005-2.296,2.701-2.854,2.022-4.081,4.936,1.696,1.247-5.303,2.825-2.251,4.57.67-.029-6.809,4.626.641,3.8-.772,1.717-3.762,6.942,3.316.593-5.22,1.733-3.588,1.022-4.319,6.41,1.917-.869-6.305,6.137,1.288,2.336-2.805,1.344-3.74,3.404-1.751,3.69-1.568-1.375-5.97,1.754-3.158,7.486,1.371.461-4.254-.098-4.549,4.175-1.46,3.083-2.309,1.411-3.43,1.275-3.482,1.453-3.346,4.703-1.533,1.789-3.219-2.4-5.319.552-3.713-1.195-4.452,6.509-1.037,1.4-3.339-4.477-5.571,10.492.029-2.753-4.814,4.992-2.228-4.761-5.221,2.528-3.019,3.488-2.853-7.069-5.333,7.838-1.972-3.108-4.265-1.427-3.838,8.555-2.352-.721-3.797-3.065-3.983-.437-3.636-3.127-3.768,2.448-3.413,5.784-3.44-.984-3.666-7.089-3.633.808-3.626,3.16-3.621,3.316-3.632.684-3.642-7.041-3.571-.586-3.594,6.964-3.78-5.784-3.445.555-3.625-.894-3.544.491-3.632-2.208-3.37,4.328-4.128-5.556-2.821,5.865-4.663-6.693-2.316,3.74-4.571-.487-3.674-2.513-3.038-3.085-2.705-2.379-2.841-1.702-3.068,2.052-5.015-2.638-2.696-.699-3.82-4.991-1.047.296-4.588-4.363-1.213-.962-4.612,3.242-2.14,1.787-3.284,1.042-4.022,5.23.124,4.063-1.027-2.601-7.628,8.32,3.18,2.424-2.655,1.351-3.715,2.01-3.06,2.637-2.438.119-4.929,6.082.975,1.177-3.881,3.338-1.742,1.802-3.263-1.481-6.515,4.316-.779,3.59-1.5,1.066-4.002,6.4,1.279-2.514-7.543,4.227-.868,1.722-3.346,7.454,2.329-3.586-8.6,5.47.364.032-5.021,5.218.109,5.188.076.011-5.046,4.45-.65,1.79-3.281-1.285-6.324,3.896-1.197,5.067-.039,3.595-1.501-2.496-7.531,5.345.234,3.721-1.372,4.024-1.072-2.642-7.673,2.838-2.251,2.629-2.457.858-4.208,7.388,2.257-1.557-6.6,5.733.613-.542-5.595,1.619-3.455,4.073-1.028,1.678-3.401,2.735-2.352,1.937-3.142,4.688-.422,3.917-1.183,2.928-2.151-1.716-6.751,7.308,2.174,3.143-1.949-2.545-7.574,9.082,3.932-.982-6.036-.048-5.106,8.312,3.164,1.953-3.128-.379-5.441,1.368-3.709,6.527,1.395-.877-5.936,3.765-1.33-.137-5.2,5.456.332,2.27-2.823,5.316.191-3.788-8.83,5.694-1.884,2.72,4.954.056,5.304,5.603-.687,4.353.661-1.728,7.225,7.771-3.028-3.2,8.822,2.593,2.563,4.795.184,3.244,1.861,3.348,1.75-.452,5.851,7.887-3.152,1.924,3.289,4.427.583-3.455,9.097,7.452-2.692-.777,6.202,2.523,2.638,4.272.745,1.291,3.967,1.292,3.973,7.651-2.899,2.512,2.656-2.292,7.839,5.168-.211,4.317.705,3.369,1.731,3.718,1.358,2.26,2.92-1.097,6.552,6.668-1.827-1.937,7.465,4.298.735.557,4.783,5.324,3.316.06-8.319,2.674-2.444,6.197.83,3.386-1.782-3.513-8.171,3.365-1.796,7.734,2.247-1.747-6.539,4.58-.674,4.601-.661-.957-5.806,1.655-3.391,6.015.651,2.319-2.775.965-4.031,1.024-3.967,1.609-3.432,5.226-.086.446-4.515,4.164-1.072,4.813-.479-2.525-5.577,2.022-5.553-7.651,3.021.1-5.346-1.404-3.721-5.45.649-1.75-3.348-4.108-.807.422-5.694-6.907,2.221-.029-5.209-.516-4.684-6.247,1.507-1.207-3.936-1.701-3.405-5.178.352-1.908-3.168-2.652-2.368,1.525-6.886-3.553-1.403-3.241-1.735-2.544-2.491-2.322-2.737-1.902-3.185-6.821,2.121-2.892-2.118-1.818-3.283-1.556-3.563-5.458.648,3.581-9.115-2.55-2.483-7.304,2.643-1.505-3.625-3.999-.933-1.23-3.923-4.543-.355-3.931-5.226,4.101-5.019,3.934-1.082,2.409-2.65,5.736.79,2.87-2.183-3.096-8.355,6.597,1.677-.297-5.458,2.33-2.746,1.992-3.09,8.324,3.455-3.348-8.618,7.353,2.448,1.035-4.085,1.59-3.514.961-4.166,4.902-.079,4.475-.526-1.645-6.864,4.561-.444,3.484-1.56,2.622-2.46,2.298-4.053.743,5.82,1.644,3.579,7.433-2.673.329,4.995,3.82,1.225,5.163-.223-1.218,6.672,5.891-1.009,3.465,1.61-.258,5.632,5.408-.484.484,4.83,3.141,1.962.823,4.467,4.272.74,4.204.817-1.093,6.525,6.596-1.769-.608,6.009.909,4.366,4.826.14.011,5.346,3.787,1.262,3.926,1.119,3.949,1.091.604,4.708,5.243-.305,1.225,4.037-.031,5.395,5.674-.777,3.347,1.743.228,5.117,5.498-.573.006,5.359,3.551,4.715,2.994-5.501ZM282.897,780.581l-3.725,3.907-3.553-2.639-3.09-5.514-4.327,5.978-4.033,1.665-2.023-8.631-3.367-.884-3.75.467-5.495,5.503-1.123-7.93-2.807-2.44-6.235,5.457-3.801-.727.879-9.662-5.283,2.238-.568-5.896-3.033-1.664-7.912,5.003.937-7.291-3.852-.907-1.726-3.451-5.184.27-4.427-.827-.381-4.716-3.125-2.151-2.873-2.437-2.305-2.916-.465-4.172,2.737-6.017-3.698-1.849-4.288-1.715-2.905-2.623,4.454-6.016-6.561-1.068,4.536-5.532-2.984-2.635-1.057-3.335-8.316-1.538,8.205-5.586-8.003-2.093,2.196-4.045-1.653-3.454,3.232-3.88-5.74-3.332,6.333-3.718,1.77-3.44-5.737-3.842,4.394-3.207,1.211-3.366-1.44-3.778-1.282-3.893-.242-3.783.91-3.537-1.32-4.268,4.336-2.401.851-3.564.467-3.777,1.873-3.177,3.757-2.15,1.341-3.362,5.452-.83-3.638-6.623,3.574-1.952,6.231.281,1.074-3.59,3.454-1.586,2.406-2.453-4.149-9.236,3.713-1.497,4.022-.981,5.179.704.315-5.537,6.67,3.333-.188-6.766,5.178,1.696-.21-7.814,6.641,5.092,1.863-4.333,1.219-6.525,6.218,6.058,1.159-7.739,4.226,1.183,3.748-.073,3.743.187,3.962,1.829,3.453-.561,3.082-4.199,3.479-2.342,3.839,3.927,3.56.916,3.555-.773,3.428,1.963,3.948-4.199,3.194,3.53,3.483.64,4.353-3.483,3.749.199,3.434,1.482,2.311,4.831,2.665,3.058,5.25-3.7,1.229,6.246,6.533-5.437,2.148,3.947.907,5.746,4.817-1.092.005,6.461,3.711.737,7.19-3.53-.049,5.865,5.703-.986-.355,5.738,2.885,2.188-.628,5.404,7.768-2.017-.588,5.158,4.291,1.295-2.396,6.04,5.913.398,1.287,3.461,1.446,3.327,3.978,2.067-1.512,4.719,4.25,2.14-3.589,5.227.777,3.429-.335,3.724,3.903,2.573,3.215,2.946-3.351,4.277,4.337,2.92.694,3.573-3.076,3.855,2.898,3.42-4.461,3.611,6.574,3.683,1.523,3.797-5.476,3.196-1.523,3.387,2.454,4.009-4.458,2.77-2.008,3.104,1.72,4.083.542,3.906-5.279,1.915-.531,3.509,5.262,6.156-3.672,2.361-4.987,1.48-3.246,2.188,5.938,7.798-7.286-.367,2.254,6.038-3.893,1.704-1.758,3.314-1.967,3.199-3.027,2.24-5.824-.718-.218,5.033-3.571,1.428-4.619-.048-3.545,1.087-.804,4.993-1.508,4.353-4.487-.393-2.675,2.624-3.882.321-1.21,6.07-3.576,1.166-5.418-3.948-2.154,4.839-3.811.056-4.335-2.343-3.334,1.264-3.67-.433-3.517.125-2.752,7.261-3.699.521-3.761-.75-3.7-3.169Z" style="fill: #fff;"/>
  <path d="M843.248,349.088l1.203.384,4.805-.47-1.411-6.216,2.256-2.827,6.425,1.033,5.202-.095-3.084-7.772,2.334-2.76,2.675-2.438,3.632-1.558.422-4.528,8.197,2.668.044-4.88.493-4.466,6.44,1.039-1.912-6.685,1.487-3.543,8.144,2.616-.88-5.742,2.825-2.312,5.856.487,3.497-6.03-6.327-3.166-2.886-2.113-5.653.875,2.982-8.445-2.865-2.132-4.125-.773-.911-4.248-6.52,1.812-3.359-1.6-2.546-2.48.934-6.239-2.496-2.533-2.799-2.207-1.177-3.96-7.988,3.396,2.414-7.825-2.801-2.197-5.864,1.103-.036-5.19-7.142,2.487,2.095-7.489-8.193,3.613-1.797-3.287-.017-5.215-5.694.918,1.722-7.094-3.284-1.687-4.588-.282-2.633-2.394-3.216-1.753,1.709-7.078-5.54.742-2.515-2.525-4.249-.653,1.171-6.514.648-.866-.952-2.326-7.358,1.255-2.331-2.74,2.191-7.746-3.09-1.899-1.838-3.275-5.822,1.129-3.093-1.893-2.666-2.361-2.101-2.99,1.02-6.453-6.54,1.927-3.257-1.716-3.541-1.399-1.265-3.924-3.969-.926-2.661-2.378.423-5.796-2.663-2.366-3.646-1.284-2.768-2.263-5.086.304-1.059-4.158,1.92-7.467-5.949-3.416-3.023,6.46-3.895,1.177-.943,4.129.82,5.893-7.038-1.964-2.628,2.445,1.877,6.951-7.612-2.537-.98,4.096.096,5.173-2.285,2.793-6.98-1.901,2.979,8.06-7.459-2.379,1.946,7.024-3.167,1.911-2.183,2.894-7.936-2.86,3.373,8.448-2.474,2.601-2.283,2.792-7.733-2.658-2.695,2.379-4.052,1.023,1.746,6.821-1.063,4.013-6.391-1.315,2.305,7.382-4.32.758-1.695,3.384-4.688.393-3.23,1.85-5.33-.25-1.83,3.249-.086,4.991-3.897,1.18,2.087,7.164-7.49-2.414-2.248,2.828-.887,4.189.362,5.438-2.809,2.268-8.667-3.589,1.026,6.105-2.318,2.762.334,5.416-4.185.895-1.928,3.151-8.235-3.157,3.223,8.3-4.99.088-4.464.613,1.844,6.921-4.716.361-3.008,2.071-2.794,2.286-5.234-.153,3.738,8.82-6.015-.934-3.462,1.618-2.232,2.847-2.224,2.855-1.143,3.935-3.083,1.995-2.523,2.556-.061,5.019-1.755,3.327-3.481,1.601-4.429.652-6.264-1.184,1.785,6.864-6.544-1.465-2.593,2.48,1.333,6.409-.915,4.164-3.862,1.221-7.162-2.081-1.888,3.19-3.088,1.988,2.691,7.764-4.393.679-4.424.647-2.274,2.797-2.066,3.006-4.712.36,1.736,6.81-7.025-1.948,2.519,7.599-5.645-.562-.381,4.701-4.97.109-3.532,1.545-1.474,3.602-.508,4.568-2.794,2.281-.917,4.16-1.611,3.468-5.78-.699-1.068,4.017-6.721-1.638,1.666,6.747-6.248-1.169-.254,4.824-2.543,2.536-1.602,3.479-3.732,1.353-.004,5.081-5.901-.819-3.851,1.229,1.331,6.411-3.038,2.045-2.864,2.222.565,5.65-6.699-1.617.036,5.118-4.525.559.541,5.629-6.734-1.649-2.913,2.171-1.882,3.203-4.055,1.032,1.706,6.791-5.232-.147-3.832,1.255-.098,4.988.791,5.866-5.975-.897-3.648,1.438-2.963,2.122,1.226,6.307-4.632.452-2.082,3.008-5.299-.214-1.49,3.6,1.261,6.348-3.098,1.994-6.967-1.878.226,5.317-3.038,2.056-4.385.698-3.254,1.836,3.35,8.446-2.575,2.521-4.724.374-6.536-1.43-.934,3.168-2.629,2.239-4.267,1.216-1.534-6.766-4.663,2.469-2.639-3.69-3.567-.837-3.564-.834-2.913-3.062-4.87,3.761-2.926-3.064-4.231,1.777-3.732.022-2.901-3.368-2.792-4.105-3.069-3.202-3.74-.2-3.708-.318-4.222,2.736-2.884-5.288-3.984,1.57-3.671-.518-3.752.293-4.096,6.045-3.406-3.372-3.609-2.778-3.541,4.361-3.761-5.484-3.714-.93-3.108,7.257-3.731-1.798-3.269,2.771-3.343,1.561-4.68-7-3.39,1.809-2.487,6.017-4.144-2.375-3.167,2.151-2.625,3.97-5.094-5.031-4.186-1.261-1.103,8.292-4.444-1.991-3.432,1.062-5.089-3.027.189,9.833-5.417-3.503-2.123,3.937-4.441-.934-3.079,1.9-4.986-1.575-.918,5.761-1.756,4.026-4.064.193-2.026,3.417-1.771,3.663-2.722,2.208-3.342,1.371-6.149-2.148-5.034-.436.554,6.345-2.677,2.387-2.997,2.039-4.458.55-.14,5.02.487,5.431-5.094.056-1.289,3.627-7.364-1.62-2.594,2.623,2.813,6.882-7.515-1.214.051,4.579-.069,4.363.152,4.392-3.192,2.151-1.581,3.2-4.588,1.446-2.785,2.591,3.212,5.799-1.51,3.185-2.786,2.576.023,3.904-2.31,2.838-3.659,2.338,2.913,4.942-2.465,2.832-3.514,2.541-4.689,2.282-.901,3.538,4.165,4.887.292,3.714-6.438,2.157,1.531,4.016-2.989,3.098,1.175,3.867-2.711,3.249-2.482,3.366-.534,3.644,8.677,4.384-7.669,3.051,3.82,3.803-4.388,3.485,7.29,3.656-.174,3.515-7.997,3.834,2.393,3.539,6.837,3.098-2.445,3.76.887,3.473-4.925,4.272,1.244,3.5,3.408,3.078,1.724,3.305,1.715,3.264-1.79,4.085,1.267,3.381-.932,4.003,7.036,1.607-5.412,5.494,6.448,1.563.728,3.493-5.532,6.04,8.882.216-6.337,6.717,2.416,2.939,7.801.202-5.325,6.792,3.524,2.27,7.323-.021-4.608,6.909,9.272-1.53-4.63,7.261,1.895,3.133,6.278-.02.636,3.97,5.206.48-4.139,7.923,3.064,2.222,6.644-1-.575,5.357,5.54-.293-.539,5.548,6.958-2.007,1.01,4.069.652,4.611,5.521-.922-2.416,8.519,4.95-.344,3.434,1.449,1.881,3.539,4.773-.52,1.74,3.833,2.994,2.022,3.736.804,3.413,1.263,3.793.522,1.594,4.585,3.511,1.052,2.589,2.933,4.467-1.083,1.567,5.425,4.767-2.045,1.478,6.203,6.397-6.962,2.169,4.595,2.759,3.201,3.987-.721,3.148,2.134,3.969-.993,4.109-1.975,3.631-.195,2.602,5.253,2.854,4.886,4.349-4.478,2.876,6.076,4.255-5.439,3.532.691,3.602-.195,3.53,1.187,3.543,2.738,3.648.656,3.521-7.082,3.698,4.419,3.537-1.328,3.729,1.638,3.14-5.036,3.994,3.652,3.988,2.425,2.963-4.678,3.358-1.575,4.56,4.539,2.331-6.394,4.457,3.234,3.098-2.51,1.994-6.089,4.066,1.289,4.436,2.085,1.576-6.35,3.941.507,4.31,1.221,4.988,2.527,3.005-2.296,2.701-2.854,2.022-4.081,4.936,1.696,1.247-5.303,2.825-2.251,4.57.67-.029-6.809,4.626.641,3.8-.772,1.717-3.762,6.942,3.316.593-5.22,1.733-3.588,1.022-4.319,6.41,1.917-.869-6.305,6.137,1.288,2.336-2.805,1.344-3.74,3.404-1.751,3.69-1.568-1.375-5.97,1.754-3.158,7.486,1.371.461-4.254-.098-4.549,4.175-1.46,3.083-2.309,1.411-3.43,1.275-3.482,1.453-3.346,4.703-1.533,1.789-3.219-2.4-5.319.552-3.713-1.195-4.452,6.509-1.037,1.4-3.339-4.477-5.571,10.492.029-2.753-4.814,4.992-2.228-4.761-5.221,2.528-3.019,3.488-2.853-7.069-5.333,7.838-1.972-3.108-4.265-1.427-3.838,8.555-2.352-.721-3.797-3.065-3.983-.437-3.636-3.127-3.768,2.448-3.413,5.784-3.44-.984-3.666-7.089-3.633.808-3.626,3.16-3.621,3.316-3.632.684-3.642-7.041-3.571-.586-3.594,6.964-3.78-5.784-3.445.555-3.625-.894-3.544.491-3.632-2.208-3.37,4.328-4.128-5.556-2.821,5.865-4.663-6.693-2.316,3.74-4.571-.487-3.674-2.513-3.038-3.085-2.705-2.379-2.841-1.702-3.068,2.052-5.015-2.638-2.696-.699-3.82-4.991-1.047.296-4.588-4.363-1.213-.962-4.612,3.242-2.14,1.787-3.284,1.042-4.022,5.23.124,4.063-1.027-2.601-7.628,8.32,3.18,2.424-2.655,1.351-3.715,2.01-3.06,2.637-2.438.119-4.929,6.082.975,1.177-3.881,3.338-1.742,1.802-3.263-1.481-6.515,4.316-.779,3.59-1.5,1.066-4.002,6.4,1.279-2.514-7.543,4.227-.868,1.722-3.346,7.454,2.329-3.586-8.6,5.47.364.032-5.021,5.218.109,5.188.076.011-5.046,4.45-.65,1.79-3.281-1.285-6.324,3.896-1.197,5.067-.039,3.595-1.501-2.496-7.531,5.345.234,3.721-1.372,4.024-1.072-2.642-7.673,2.838-2.251,2.629-2.457.858-4.208,7.388,2.257-1.557-6.6,5.733.613-.542-5.595,1.619-3.455,4.073-1.028,1.678-3.401,2.735-2.352,1.937-3.142,4.688-.422,3.917-1.183,2.928-2.151-1.716-6.751,7.308,2.174,3.143-1.949-2.545-7.574,9.082,3.932-.982-6.036-.048-5.106,8.312,3.164,1.953-3.128-.379-5.441,1.368-3.709,6.527,1.395-.877-5.936,3.765-1.33-.137-5.2,5.456.332,2.27-2.823,5.316.191-3.788-8.83,5.694-1.884,2.72,4.954.056,5.304,5.603-.687,4.353.661-1.728,7.225,7.771-3.028-3.2,8.822,2.593,2.563,4.795.184,3.244,1.861,3.348,1.75-.452,5.851,7.887-3.152,1.924,3.289,4.427.583-3.455,9.097,7.452-2.692-.777,6.202,2.523,2.638,4.272.745,1.291,3.967,1.292,3.973,7.651-2.899,2.512,2.656-2.292,7.839,5.168-.211,4.317.705,3.369,1.731,3.718,1.358,2.26,2.92-1.097,6.552,6.668-1.827-1.937,7.465,4.298.735.557,4.783,5.324,3.316.06-8.319,2.674-2.444,6.197.83,3.386-1.782-3.513-8.171,3.365-1.796,7.734,2.247-1.747-6.539,4.58-.674,4.601-.661-.957-5.806,1.655-3.391,6.015.651,2.319-2.775.965-4.031,1.024-3.967,1.609-3.432,5.226-.086.446-4.515,4.164-1.072,4.813-.479-2.525-5.577,2.022-5.553-7.651,3.021.1-5.346-1.404-3.721-5.45.649-1.75-3.348-4.108-.807.422-5.694-6.907,2.221-.029-5.209-.516-4.684-6.247,1.507-1.207-3.936-1.701-3.405-5.178.352-1.908-3.168-2.652-2.368,1.525-6.886-3.553-1.403-3.241-1.735-2.544-2.491-2.322-2.737-1.902-3.185-6.821,2.121-2.892-2.118-1.818-3.283-1.556-3.563-5.458.648,3.581-9.115-2.55-2.483-7.304,2.643-1.505-3.625-3.999-.933-1.23-3.923-4.543-.355-3.931-5.226,4.101-5.019,3.934-1.082,2.409-2.65,5.736.79,2.87-2.183-3.096-8.355,6.597,1.677-.297-5.458,2.33-2.746,1.992-3.09,8.324,3.455-3.348-8.618,7.353,2.448,1.035-4.085,1.59-3.514.961-4.166,4.902-.079,4.475-.526-1.645-6.864,4.561-.444,3.484-1.56,2.622-2.46,2.298-4.053.743,5.82,1.644,3.579,7.433-2.673.329,4.995,3.82,1.225,5.163-.223-1.218,6.672,5.891-1.009,3.465,1.61-.258,5.632,5.408-.484.484,4.83,3.141,1.962.823,4.467,4.272.74,4.204.817-1.093,6.525,6.596-1.769-.608,6.009.909,4.366,4.826.14.011,5.346,3.787,1.262,3.926,1.119,3.949,1.091.604,4.708,5.243-.305,1.225,4.037-.031,5.395,5.674-.777,3.347,1.743.228,5.117,5.498-.573.006,5.359,3.551,4.715,2.994-5.501ZM282.897,780.581l-3.725,3.907-3.553-2.639-3.09-5.514-4.327,5.978-4.033,1.665-2.023-8.631-3.367-.884-3.75.467-5.495,5.503-1.123-7.93-2.807-2.44-6.235,5.457-3.801-.727.879-9.662-5.283,2.238-.568-5.896-3.033-1.664-7.912,5.003.937-7.291-3.852-.907-1.726-3.451-5.184.27-4.427-.827-.381-4.716-3.125-2.151-2.873-2.437-2.305-2.916-.465-4.172,2.737-6.017-3.698-1.849-4.288-1.715-2.905-2.623,4.454-6.016-6.561-1.068,4.536-5.532-2.984-2.635-1.057-3.335-8.316-1.538,8.205-5.586-8.003-2.093,2.196-4.045-1.653-3.454,3.232-3.88-5.74-3.332,6.333-3.718,1.77-3.44-5.737-3.842,4.394-3.207,1.211-3.366-1.44-3.778-1.282-3.893-.242-3.783.91-3.537-1.32-4.268,4.336-2.401.851-3.564.467-3.777,1.873-3.177,3.757-2.15,1.341-3.362,5.452-.83-3.638-6.623,3.574-1.952,6.231.281,1.074-3.59,3.454-1.586,2.406-2.453-4.149-9.236,3.713-1.497,4.022-.981,5.179.704.315-5.537,6.67,3.333-.188-6.766,5.178,1.696-.21-7.814,6.641,5.092,1.863-4.333,1.219-6.525,6.218,6.058,1.159-7.739,4.226,1.183,3.748-.073,3.743.187,3.962,1.829,3.453-.561,3.082-4.199,3.479-2.342,3.839,3.927,3.56.916,3.555-.773,3.428,1.963,3.948-4.199,3.194,3.53,3.483.64,4.353-3.483,3.749.199,3.434,1.482,2.311,4.831,2.665,3.058,5.25-3.7,1.229,6.246,6.533-5.437,2.148,3.947.907,5.746,4.817-1.092.005,6.461,3.711.737,7.19-3.53-.049,5.865,5.703-.986-.355,5.738,2.885,2.188-.628,5.404,7.768-2.017-.588,5.158,4.291,1.295-2.396,6.04,5.913.398,1.287,3.461,1.446,3.327,3.978,2.067-1.512,4.719,4.25,2.14-3.589,5.227.777,3.429-.335,3.724,3.903,2.573,3.215,2.946-3.351,4.277,4.337,2.92.694,3.573-3.076,3.855,2.898,3.42-4.461,3.611,6.574,3.683,1.523,3.797-5.476,3.196-1.523,3.387,2.454,4.009-4.458,2.77-2.008,3.104,1.72,4.083.542,3.906-5.279,1.915-.531,3.509,5.262,6.156-3.672,2.361-4.987,1.48-3.246,2.188,5.938,7.798-7.286-.367,2.254,6.038-3.893,1.704-1.758,3.314-1.967,3.199-3.027,2.24-5.824-.718-.218,5.033-3.571,1.428-4.619-.048-3.545,1.087-.804,4.993-1.508,4.353-4.487-.393-2.675,2.624-3.882.321-1.21,6.07-3.576,1.166-5.418-3.948-2.154,4.839-3.811.056-4.335-2.343-3.334,1.264-3.67-.433-3.517.125-2.752,7.261-3.699.521-3.761-.75-3.7-3.169Z" style="fill: none; stroke: #000; stroke-linecap: round; stroke-linejoin: round; stroke-width: 35px;"/>
</svg>