<?xml version="1.0" encoding="UTF-8"?>
<svg id="Sticker" xmlns="http://www.w3.org/2000/svg" width="1000" height="1000" viewBox="0 0 1000 1000">
  <polygon points="499.998 735.295 499.363 728.5 494.761 728.625 489.384 729.692 487.586 726.132 483.701 725.237 484.151 718.873 483.18 714.341 478.36 714.603 476.076 711.717 468.632 715.12 469.467 708.44 466.575 706.294 460.431 708.014 457.857 705.459 458.283 699.387 454.756 697.973 450.474 697.418 448.518 694.166 446.057 691.501 442.579 689.992 443.356 683.689 441.613 680.253 436.744 680.294 432.923 679.145 429.974 677.027 426.62 675.343 427.397 669.207 425.063 666.445 421.464 665.031 419.781 661.588 415.174 661.206 414.126 657.112 407.017 659.255 406.609 654.51 402.525 653.506 400.841 650.077 398.864 646.953 399.881 640.898 392.162 643.406 391.1 639.403 391.465 634.062 385.61 634.656 387.54 627.896 380.073 629.933 379.339 625.693 381.122 619.197 376.148 618.858 370.971 618.651 370.591 614.169 369.018 610.763 364.066 610.279 360.479 608.582 358.07 605.869 360.999 598.732 359.466 595.355 355.958 593.589 348.372 595.044 348.563 590.274 347.865 586.246 345.401 583.599 346.147 578.535 342.397 576.862 337.23 576.18 334.482 573.695 332.544 570.626 331.111 567.211 329.825 563.713 332.32 557.731 329.611 555.244 324.811 554.065 326.018 549.081 319.673 548.759 321.53 543.461 314.226 543.546 316.281 538.222 314.4 535.158 307.609 534.679 309.632 529.53 311.548 524.558 308.883 521.888 308.692 518.048 307.75 514.588 302.866 512.803 299.805 510.153 299.929 506.225 296.602 503.591 295.755 500.031 295.05 496.437 291.482 493.695 293.814 489.25 291.698 486.044 287.716 483.181 291.859 478.591 287.777 475.611 294.348 470.982 291.018 467.824 287.976 464.471 294.039 460.523 287.799 457.152 286.061 453.459 288.256 449.848 291.219 446.443 294.416 443.26 286.726 438.513 287.657 434.866 287.544 430.979 296.85 429.684 290.006 423.814 292.081 420.557 292.164 416.539 301.188 416.536 298.952 411.493 299.647 407.774 307.029 407.771 305.55 402.835 305.642 398.68 309.376 396.805 309.343 392.434 311.569 389.562 311.23 384.694 316.439 384.168 320.358 382.794 323.818 381.161 325.728 378.109 325.611 372.818 328.595 370.665 330.898 367.709 334.374 366.207 338.97 366.444 340.372 362.054 344.378 361.691 345.25 355.649 350.699 358.337 352.873 354.275 357.556 356.264 361.171 355.916 363.593 351.501 368.107 354.78 370.215 347.109 374.226 348.475 377.785 346.997 381.697 349.847 385.229 346.581 388.817 354.688 392.434 351.042 396.266 348.167 399.935 348.404 403.8 347.508 407.475 348.09 411.002 349.333 414.152 351.889 417.362 353.869 420.801 354.964 423.384 358.425 425.836 361.848 430.67 359.386 435.257 358.004 436.6 363.587 440.771 363.292 445.282 362.623 447.796 365.598 449.9 369.104 455.188 367.64 456.761 371.847 460.438 372.987 460.26 379.195 465.915 377.873 467.788 381.302 467.925 386.538 475.087 384.146 472.378 392.03 478.447 391.131 479.825 394.758 479.674 399.549 487.026 398.246 482.924 405.795 492.415 403.549 493.586 407.251 489.895 413.61 498.401 413.203 491.417 420.481 499.82 420.878 498.336 425.288 501.184 428.329 501.633 432.07 502.956 435.767 499.975 442.66 503.526 436.121 497.252 431.899 502.557 429.191 498.523 424.318 503.192 422.009 507.492 419.995 509.478 417.166 505.701 411.135 506.267 407.158 509.561 404.875 513.852 403.456 519.375 403.227 516.827 396.644 518.83 393.571 522.394 391.918 524.242 388.686 524.323 383.533 532.039 386.507 531.72 380.743 533.153 376.752 541.048 380.9 541.884 376.16 544.51 373.691 548.376 373.043 552.721 373.31 551.295 364.098 554.576 362.402 561.273 367.209 561.692 360.154 566.978 362.891 569.365 359.497 572.198 356.906 576.565 358.311 579.212 355.031 582.204 352.433 585.266 349.704 588.67 347.93 593.38 352.446 597.595 356.117 600.9 354.978 603.581 346.466 607.684 353.148 611.122 350.727 614.638 352.901 618.114 353.03 621.889 350.27 624.713 355.915 629.795 347.111 632.816 350.829 635.703 354.092 639.784 352.996 641.049 360.057 646.625 355.5 648.426 360.219 654.257 356.615 653.799 364.871 659.89 361.664 661.345 366.011 662.985 369.751 668.442 368.539 667.3 375.386 669.835 377.692 675.158 377.227 677.72 379.72 682.388 380.373 685.706 382.384 684.777 387.798 685.153 391.966 692.369 391.233 693.621 394.816 690.808 400.886 699.095 400.066 698.334 404.732 695.501 410.371 698.123 412.987 701.991 415.064 700.965 419.401 706.234 421.182 705.245 425.368 705.506 429.015 703.438 433.167 705.983 436.153 707.296 439.488 706.78 443.111 706.914 446.608 709.449 449.968 711.552 453.501 709.539 457.109 706.624 460.549 709.431 464.264 711.523 468.09 707.022 471.161 713.535 475.817 704.2 477.823 711.588 483.012 710.09 486.458 706.494 489.307 704.397 492.463 701.856 495.43 703.219 499.646 703.057 503.425 702.473 507.088 702.885 511.176 701.878 514.737 697.184 516.695 693.317 518.906 695.098 523.716 689.34 524.928 691.104 529.832 687.798 532.181 684.626 534.548 686.874 539.901 679.992 540.13 684.655 547.018 682.398 549.913 679.805 552.587 673.83 553.097 670.564 555.248 672.463 560.781 670.652 563.916 663.756 563.556 667.188 570.311 667.264 574.811 660.812 574.624 663.176 580.837 660.795 583.601 654.817 583.618 649.021 583.688 650.549 589.423 651.44 594.737 647.755 596.427 645.076 598.909 644.792 603.367 637.935 602.353 638.095 607.203 633.356 607.895 633.804 613.048 630.025 614.54 626.566 616.29 628.133 622.536 621.205 621.14 620.687 625.544 615.598 625.745 616.079 631.113 612.077 632.296 609.841 635.137 605.283 635.745 602.421 637.965 603.011 643.568 597.68 643.362 600.951 651.701 597.426 653.293 593.573 654.536 592.631 658.739 587.693 658.843 586.21 662.505 582.391 663.734 580.078 666.536 580.227 671.969 576.738 673.539 573.602 675.477 570.536 677.482 569.8 682.042 564.045 681.076 559.335 681.225 561.489 689.053 553.698 685.704 556.273 694.086 550.056 692.462 546.167 693.471 545.583 698.313 539.887 697.196 537.812 700.309 534.523 701.99 532.035 704.622 529.076 706.689 530.346 713.895 527.496 716.121 525.036 718.822 521.431 720.107 517.12 720.493 514.466 722.937 509.114 721.942 510.127 729.095 507.1 731.078 503.044 731.704 499.998 735.295" style="fill: #fff;"/>
  <polygon points="499.998 735.295 499.363 728.5 494.761 728.625 489.384 729.692 487.586 726.132 483.701 725.237 484.151 718.873 483.18 714.341 478.36 714.603 476.076 711.717 468.632 715.12 469.467 708.44 466.575 706.294 460.431 708.014 457.857 705.459 458.283 699.387 454.756 697.973 450.474 697.418 448.518 694.166 446.057 691.501 442.579 689.992 443.356 683.689 441.613 680.253 436.744 680.294 432.923 679.145 429.974 677.027 426.62 675.343 427.397 669.207 425.063 666.445 421.464 665.031 419.781 661.588 415.174 661.206 414.126 657.112 407.017 659.255 406.609 654.51 402.525 653.506 400.841 650.077 398.864 646.953 399.881 640.898 392.162 643.406 391.1 639.403 391.465 634.062 385.61 634.656 387.54 627.896 380.073 629.933 379.339 625.693 381.122 619.197 376.148 618.858 370.971 618.651 370.591 614.169 369.018 610.763 364.066 610.279 360.479 608.582 358.07 605.869 360.999 598.732 359.466 595.355 355.958 593.589 348.372 595.044 348.563 590.274 347.865 586.246 345.401 583.599 346.147 578.535 342.397 576.862 337.23 576.18 334.482 573.695 332.544 570.626 331.111 567.211 329.825 563.713 332.32 557.731 329.611 555.244 324.811 554.065 326.018 549.081 319.673 548.759 321.53 543.461 314.226 543.546 316.281 538.222 314.4 535.158 307.609 534.679 309.632 529.53 311.548 524.558 308.883 521.888 308.692 518.048 307.75 514.588 302.866 512.803 299.805 510.153 299.929 506.225 296.602 503.591 295.755 500.031 295.05 496.437 291.482 493.695 293.814 489.25 291.698 486.044 287.716 483.181 291.859 478.591 287.777 475.611 294.348 470.982 291.018 467.824 287.976 464.471 294.039 460.523 287.799 457.152 286.061 453.459 288.256 449.848 291.219 446.443 294.416 443.26 286.726 438.513 287.657 434.866 287.544 430.979 296.85 429.684 290.006 423.814 292.081 420.557 292.164 416.539 301.188 416.536 298.952 411.493 299.647 407.774 307.029 407.771 305.55 402.835 305.642 398.68 309.376 396.805 309.343 392.434 311.569 389.562 311.23 384.694 316.439 384.168 320.358 382.794 323.818 381.161 325.728 378.109 325.611 372.818 328.595 370.665 330.898 367.709 334.374 366.207 338.97 366.444 340.372 362.054 344.378 361.691 345.25 355.649 350.699 358.337 352.873 354.275 357.556 356.264 361.171 355.916 363.593 351.501 368.107 354.78 370.215 347.109 374.226 348.475 377.785 346.997 381.697 349.847 385.229 346.581 388.817 354.688 392.434 351.042 396.266 348.167 399.935 348.404 403.8 347.508 407.475 348.09 411.002 349.333 414.152 351.889 417.362 353.869 420.801 354.964 423.384 358.425 425.836 361.848 430.67 359.386 435.257 358.004 436.6 363.587 440.771 363.292 445.282 362.623 447.796 365.598 449.9 369.104 455.188 367.64 456.761 371.847 460.438 372.987 460.26 379.195 465.915 377.873 467.788 381.302 467.925 386.538 475.087 384.146 472.378 392.03 478.447 391.131 479.825 394.758 479.674 399.549 487.026 398.246 482.924 405.795 492.415 403.549 493.586 407.251 489.895 413.61 498.401 413.203 491.417 420.481 499.82 420.878 498.336 425.288 501.184 428.329 501.633 432.07 502.956 435.767 499.975 442.66 503.526 436.121 497.252 431.899 502.557 429.191 498.523 424.318 503.192 422.009 507.492 419.995 509.478 417.166 505.701 411.135 506.267 407.158 509.561 404.875 513.852 403.456 519.375 403.227 516.827 396.644 518.83 393.571 522.394 391.918 524.242 388.686 524.323 383.533 532.039 386.507 531.72 380.743 533.153 376.752 541.048 380.9 541.884 376.16 544.51 373.691 548.376 373.043 552.721 373.31 551.295 364.098 554.576 362.402 561.273 367.209 561.692 360.154 566.978 362.891 569.365 359.497 572.198 356.906 576.565 358.311 579.212 355.031 582.204 352.433 585.266 349.704 588.67 347.93 593.38 352.446 597.595 356.117 600.9 354.978 603.581 346.466 607.684 353.148 611.122 350.727 614.638 352.901 618.114 353.03 621.889 350.27 624.713 355.915 629.795 347.111 632.816 350.829 635.703 354.092 639.784 352.996 641.049 360.057 646.625 355.5 648.426 360.219 654.257 356.615 653.799 364.871 659.89 361.664 661.345 366.011 662.985 369.751 668.442 368.539 667.3 375.386 669.835 377.692 675.158 377.227 677.72 379.72 682.388 380.373 685.706 382.384 684.777 387.798 685.153 391.966 692.369 391.233 693.621 394.816 690.808 400.886 699.095 400.066 698.334 404.732 695.501 410.371 698.123 412.987 701.991 415.064 700.965 419.401 706.234 421.182 705.245 425.368 705.506 429.015 703.438 433.167 705.983 436.153 707.296 439.488 706.78 443.111 706.914 446.608 709.449 449.968 711.552 453.501 709.539 457.109 706.624 460.549 709.431 464.264 711.523 468.09 707.022 471.161 713.535 475.817 704.2 477.823 711.588 483.012 710.09 486.458 706.494 489.307 704.397 492.463 701.856 495.43 703.219 499.646 703.057 503.425 702.473 507.088 702.885 511.176 701.878 514.737 697.184 516.695 693.317 518.906 695.098 523.716 689.34 524.928 691.104 529.832 687.798 532.181 684.626 534.548 686.874 539.901 679.992 540.13 684.655 547.018 682.398 549.913 679.805 552.587 673.83 553.097 670.564 555.248 672.463 560.781 670.652 563.916 663.756 563.556 667.188 570.311 667.264 574.811 660.812 574.624 663.176 580.837 660.795 583.601 654.817 583.618 649.021 583.688 650.549 589.423 651.44 594.737 647.755 596.427 645.076 598.909 644.792 603.367 637.935 602.353 638.095 607.203 633.356 607.895 633.804 613.048 630.025 614.54 626.566 616.29 628.133 622.536 621.205 621.14 620.687 625.544 615.598 625.745 616.079 631.113 612.077 632.296 609.841 635.137 605.283 635.745 602.421 637.965 603.011 643.568 597.68 643.362 600.951 651.701 597.426 653.293 593.573 654.536 592.631 658.739 587.693 658.843 586.21 662.505 582.391 663.734 580.078 666.536 580.227 671.969 576.738 673.539 573.602 675.477 570.536 677.482 569.8 682.042 564.045 681.076 559.335 681.225 561.489 689.053 553.698 685.704 556.273 694.086 550.056 692.462 546.167 693.471 545.583 698.313 539.887 697.196 537.812 700.309 534.523 701.99 532.035 704.622 529.076 706.689 530.346 713.895 527.496 716.121 525.036 718.822 521.431 720.107 517.12 720.493 514.466 722.937 509.114 721.942 510.127 729.095 507.1 731.078 503.044 731.704 499.998 735.295" style="fill: none; stroke: #000; stroke-linecap: round; stroke-linejoin: round; stroke-width: 40px;"/>
</svg>