<?xml version="1.0" encoding="UTF-8"?>
<svg id="Sticker" xmlns="http://www.w3.org/2000/svg" width="1000" height="1000" viewBox="0 0 1000 1000">
  <polygon points="516.65 133.528 519.033 135.403 521.201 138.331 526.42 138.138 526.771 142.907 531.589 143.209 529.15 150.609 532.048 152.77 534.452 155.408 542.76 152.605 541.177 158.946 546.844 158.7 545.145 165.016 552.067 163.767 553.69 167.152 555.527 170.337 553.828 176.425 556.394 178.948 562.807 178.409 566.017 180.492 561.201 188.805 565.092 190.32 572.818 189.006 573.694 192.872 577.327 194.711 573.463 201.928 577.017 203.805 577.729 207.677 584.693 207.281 582.536 213.075 584.049 216.371 588.654 217.667 585.93 223.658 595.632 221.825 592.701 227.875 592.331 232.284 594.363 235.228 599.979 236.107 596.737 242.09 601.131 243.719 606.808 244.705 610.143 247.027 604.776 253.947 610.078 255.237 610.735 258.942 614.483 261.103 616.278 264.252 613.912 269.371 617.184 271.805 621.175 273.95 619.4 278.693 621.073 281.882 620.864 285.87 625.327 287.904 625.58 291.69 623.27 296.457 624.469 299.814 628.003 302.302 629.408 305.604 630.868 308.892 630.308 312.875 631.075 316.384 631.882 319.873 633.979 322.954 639.302 325.077 642.949 327.775 644.354 331.159 638.55 336.526 639.054 340.096 641.855 343.073 644.784 346.056 643.842 349.99 644.075 353.624 649.454 356.134 647.769 360.193 646.795 364.067 644.155 368.223 649.784 370.837 651.394 374.226 652.059 377.785 648.83 381.934 651.048 385.241 650.193 388.986 649.603 392.675 654.207 395.752 652.521 399.566 650.829 403.343 654.943 406.579 653.869 410.287 651.421 414.065 658.01 417.257 655.492 421.023 655.845 424.621 655.296 428.253 652.73 431.92 657.67 435.43 650.661 439.093 658.799 442.68 650.997 446.22 657.775 449.926 650.447 453.336 658.722 457.218 656.062 460.733 652.443 464.151 654.701 467.888 656.578 471.641 651.626 474.873 650.491 478.37 652.97 482.21 652.626 485.796 648.971 489 652.631 493.058 649.699 496.309 650.455 500.04 645.89 502.996 650.803 507.382 651.532 511.163 646.277 513.921 649.992 518.243 643.405 520.667 642.899 524.207 641.777 527.623 644.995 531.966 647.704 536.261 638.674 537.889 644.622 542.982 640.999 545.81 638.146 548.791 641.42 553.361 636.844 555.86 638.894 560.157 637.059 563.383 632.752 565.865 631.726 569.291 630.463 572.642 631.818 576.828 630.953 580.327 632.987 584.802 630.372 587.733 631.866 592.08 622.586 592.611 627.939 598.372 628.109 602.297 620.327 603.218 622.899 606.686 624.572 605.043 626.58 601.876 627.945 597.973 630.214 595.038 633.867 593.67 638.533 593.525 639.488 589.042 645.146 590.186 644.509 583.673 650.078 584.826 654.719 584.925 657.223 582.308 660.612 580.864 661.934 576.608 666.318 576.564 668.285 573.136 670.363 569.806 670.493 563.465 676.997 566.788 676.614 559.425 681.406 560.23 685.96 560.789 686.956 555.325 691.085 555.232 693.621 552.311 697.413 551.7 701.054 550.865 702.048 544.699 705.608 543.61 709.658 543.627 714.653 545.917 715.94 539.722 720.636 541.547 725.704 544.627 727.631 539.607 730.334 536.413 735.417 540.161 737.769 535.786 741.153 534.493 743.483 529.383 748.366 533.495 751.325 530.424 754.996 530.164 757.7 525.301 762.043 528.38 766.274 531.618 769.154 526.801 773.166 529.383 776.445 526.49 780.12 526.808 783.868 528.413 787.067 521.646 791.05 528.91 794.481 522.195 798.173 528.792 801.732 528.934 805.394 526.171 808.82 529.62 812.469 528.443 816.515 523.62 819.562 529.402 822.929 531.202 827.241 526.403 830.048 531.662 833.341 533.405 838.663 525.21 840.321 534.631 844.766 531.411 849.436 527.941 852.968 529.052 856.517 530.095 858.47 536.055 862.259 536.127 867 533.705 869.051 538.665 871.762 541.628 875.908 541.054 878.601 543.932 883.18 542.631 886.728 543.696 890.461 544.438 891.414 550.514 896.381 548.95 899.521 550.843 900.032 557.145 905.083 555.767 905.773 561.414 907.974 564.526 915.698 559.592 913.809 568.502 920.953 564.864 924.973 565.678 923.646 573.143 928.287 573.21 931.585 576.239 928.816 579.689 933.411 583.824 924.379 586.35 930.455 590.76 924.224 593.508 925.827 597.359 926.67 601.126 925.62 604.596 929.521 608.936 920.955 611.041 929.239 616.269 924.8 619.08 921.361 622.043 925.398 626.576 924.123 629.998 925.465 634.016 916.927 635.714 918.947 639.89 918.813 643.566 913.779 645.971 920.747 651.547 914.832 653.673 916.904 658.002 916.102 661.537 910.985 663.769 912.099 667.872 912.493 671.782 908.877 674.401 911.467 679.072 910.764 682.669 909.893 686.217 903.139 687.616 904.52 691.966 901.05 694.497 899.544 697.762 895.748 700.091 902.079 706.597 896.855 708.321 897.167 712.394 895.714 715.712 893.52 718.689 890.466 721.241 884.77 722.467 885.593 726.851 887.9 732.062 882.728 733.431 879.051 735.513 880.653 740.475 878.484 743.382 874.861 745.422 876.085 750.328 876.679 754.944 867.854 753.649 872.378 760.848 868.637 762.722 866.856 765.888 866.071 769.774 857.799 768.232 858.289 773.034 853.6 773.932 858.593 782.45 852.031 781.803 848.781 783.754 844.705 784.934 847.202 791.947 839.788 790.014 838.01 793.2 838.464 798.641 836.848 802.153 832.544 802.882 832.543 808.21 827.46 807.975 827.045 813.037 821.147 811.618 817.682 812.998 816.223 816.96 814.455 820.609 812.083 823.516 809.381 826.001 802.858 822.929 799.808 824.766 796.362 825.979 798.278 835.758 794.062 835.885 790.979 837.84 788.862 841.52 785.636 843.293 779.009 838.564 778.178 844.854 775.139 846.957 768.578 841.528 767.013 846.707 765.271 851.801 760.96 850.945 755.69 847.422 754.632 854.737 751.962 858.123 745.899 851.657 742.489 852.663 739.505 855.075 737.952 862.688 732.558 856.776 728.792 856.437 727.037 864.539 723.659 866.274 718.281 858.197 715.623 863.314 711.273 859.25 707.818 860.068 705.482 869.136 701.066 863.268 697.692 865.385 693.971 864.273 690.682 868.294 687.207 871.083 683.401 868.345 679.802 869.431 676.169 870.217 672.514 870.337 668.881 868.307 665.394 862.666 661.76 864.766 658.03 867.515 654.324 868.693 651.216 861.866 647.158 867.159 644.206 860.616 640.451 862.17 636.904 861.762 632.272 868.832 630.084 859.146 625.327 865.928 622.24 862.542 618.458 863.074 615.625 858.878 610.927 863.563 608.812 856.528 605.739 854.039 600.82 858.919 598.376 854.039 595.14 852.327 591.145 853.275 587.123 854.162 583.345 854.128 579.884 853.052 575.639 854.284 573.287 849.964 569.717 849.205 565.954 848.936 562.689 847.317 560.189 843.793 556.674 842.87 554.993 837.576 549.064 842.285 546.477 839.174 545.326 833.007 541.487 832.795 538.944 829.845 535.792 828.202 528.308 835.028 525.728 832.07 523.419 828.686 522.096 823.616 516.881 825.528 517.099 818.06 511.055 821.151 508.663 815.23 506.797 823.386 500.332 818.067 498.363 822.402 497.266 828.925 490.833 823.104 490.182 830.901 485.926 830.085 482.234 830.593 478.499 830.954 474.23 829.854 470.873 831.124 468.786 835.925 466.05 839.057 461.28 836.351 457.557 836.582 454.401 838.504 450.431 837.91 448.347 843.308 443.98 841.383 440.504 842.324 438.215 847.41 434.893 849.019 431.244 849.453 426.735 846.568 422.749 845.504 420.54 851.555 415.799 847.278 414.018 855.59 409.914 853.908 405.421 850.189 402.585 854.269 398.005 849.659 394.774 851.828 392.49 859.508 388.139 855.603 385.283 860.616 381.023 856.782 377.522 857.788 373.405 854.164 370.729 861.745 366.701 858.486 363.387 861.503 359.273 856.449 356.101 861.486 352.439 861.086 348.808 860.98 345.337 863.789 341.559 860.596 338.053 863.802 334.308 858.672 330.723 858.345 327.149 856.951 323.548 860.032 319.893 862.438 316.418 858.23 312.663 861.907 309.031 861.97 305.659 858.343 301.858 860.772 298.695 855.942 294.428 862.172 290.598 863.454 287.664 857.846 284.266 856.244 280.232 858.693 277.336 854.289 274.063 852.398 270.027 854.36 266.155 855.225 263.643 850.164 260.007 850.057 254.676 856.159 251.779 852.94 249.38 848.308 246.502 845.557 240.229 853.091 238.84 845.941 233.614 849.7 230.932 846.455 227.275 845.775 223.659 844.934 220.578 842.842 219.205 837.132 214.429 838.772 211.741 836.026 209.901 831.759 207.368 828.958 202.476 830.377 197.917 830.997 196.178 826.851 192.584 825.773 190.36 822.563 184.551 824.664 181.718 822.29 182.071 815.6 176.852 816.534 174.622 813.468 173.921 808.573 170.851 806.663 168.861 803.486 166.466 800.808 159.159 803.454 156.354 801.084 154.394 797.853 150.754 796.301 149.984 791.983 149.893 787.158 143.557 787.958 140.959 785.355 142.79 779.1 143.474 773.978 135.326 775.808 132.995 773.005 131.086 769.89 130.292 766.005 125.951 764.586 130.456 757.244 125.762 756.04 121.579 754.41 124.346 748.519 117.401 748.457 114.447 745.957 119.467 739.04 113.765 738.058 112.534 734.635 115.035 729.352 113.254 726.276 108.7 724.505 106.811 721.424 101.235 719.976 107.317 713.376 105.571 710.257 102.14 707.814 103.128 703.571 96.459 702.322 94.142 699.328 92.978 695.894 96.682 690.757 95.67 687.326 94.267 684.026 95.169 679.984 86.537 678.93 92.551 673.34 91.263 670.002 85.669 667.867 88.359 663.396 80.977 661.636 86.774 656.416 77.926 654.903 78.232 651.087 81.128 646.7 75.903 644.161 81.372 639.283 79.667 635.969 76.106 633.003 75.391 629.457 73.851 626.06 79.482 621.41 74.635 618.587 74.201 615.004 71.27 611.798 76.264 607.424 78.258 603.537 74.425 600.433 67.722 597.621 67.769 593.952 74.551 589.579 73.53 586.081 74.388 582.408 69.357 579.237 68.408 575.687 68.12 572.085 68.707 568.43 73.983 564.564 68.022 561.237 67 557.645 66.988 551.066 71.241 550.396 73.086 546.645 76.133 544.549 81.685 546.408 84.723 544.484 87.062 541.353 90.123 539.399 91.582 534.452 95.937 534.844 102.221 539.32 105.316 537.601 107.008 532.767 111.062 533.073 113.487 529.602 115.093 523.836 120.763 528.478 124.165 527.377 125.556 520.294 131.22 525.995 133.991 522.841 136.446 518.257 139.889 516.958 144.917 522.173 146.689 513.751 151.69 519.799 154.043 512.882 157.818 513.122 161.371 512.058 165.989 519.126 168.591 510.399 172.258 509.94 175.916 509.281 180.004 516.386 183.574 516.452 187.169 518.504 190.707 512.423 194.387 510.383 197.839 515.941 201.813 509.282 205.309 512.047 209.064 511.179 212.369 514.586 215.829 516.004 218.791 520.42 222.444 520.002 226.589 517.234 229.732 519.828 234.694 514.225 236.591 521.882 240.153 522.381 244.245 521.097 248.917 518.207 252.316 519.683 252.982 529.047 258.039 525.49 261.544 526.464 266.436 524.017 268.947 527.566 272.651 528.22 272.634 537.044 279.353 531.195 281.105 535.905 283.078 539.957 289.163 536.154 290.888 540.599 293.711 542.949 296.646 545.074 297.75 550.181 305.498 544.537 305.92 550.637 308.211 553.703 311.43 555.355 314.641 557.043 318.73 557.536 321.198 560.297 324.106 562.45 329.128 561.891 332.696 563.287 334.713 566.622 335.821 570.999 335.174 577.344 341.894 575.063 340.857 581.695 343.462 584.144 349.818 582.544 354.047 583.355 355.395 587.221 353.425 594.42 356.615 596.284 358.583 599.373 366.399 596.801 367.013 601.242 367.541 605.7 370.259 608.093 375.003 610.632 377.659 604.568 370.856 602.811 375.983 597.632 368.132 596.077 371.437 591.464 367.574 588.761 370.022 584.434 370.531 580.628 368.237 577.501 364.631 574.651 364.199 571.06 361.195 568.02 359.17 564.746 362.951 560.307 360.22 557.168 365.376 552.562 358.89 550.075 363.458 545.657 359.694 542.641 359.15 539.09 357.313 535.724 358.483 531.93 354.454 528.826 358.73 524.672 360.162 520.91 354.335 517.93 354.676 514.273 354.799 510.646 350.117 507.409 355.708 503.366 351.829 500.019 354.414 496.254 349.872 492.872 355.639 489.015 356.038 485.421 355.007 481.869 357.077 478.255 351.031 474.729 354.826 471.121 356.67 467.557 353.265 463.926 348.641 460.204 353.61 456.741 355.313 453.217 356.078 449.671 350.962 445.778 354.145 442.368 353.755 438.73 357.932 435.474 356.767 431.779 351.767 427.663 352.931 424.143 359.558 421.294 356.113 417.252 357.277 413.777 360.362 410.595 361.886 407.216 354.216 402.346 354.858 398.767 358.518 395.737 364.712 393.242 363.943 389.458 360.849 385.163 359.095 381.091 365.644 378.851 362.738 374.492 366.204 371.621 366.81 368.074 367.474 364.536 370.439 361.616 366.619 356.83 369.7 353.955 368.029 349.698 368.177 345.952 371.722 343.268 376.026 340.877 379.489 338.263 380.104 334.709 380.911 331.213 378.89 326.68 384.594 324.972 383.872 320.887 385.222 317.577 385.918 314.005 381.402 308.275 385.747 306.166 389.653 303.925 387.126 298.896 393.698 297.89 396.19 295.105 391.337 288.886 394.805 286.537 394.225 282.241 394.834 278.497 403.259 278.721 403.821 274.99 400.681 269.273 405.196 267.597 405.721 263.779 404.69 259.062 411.874 258.986 415.749 257.095 411.058 250.168 415.772 248.78 417.804 245.805 423.662 245.225 417.836 237.299 424.318 237.167 424.04 232.687 428.353 231.228 430.125 228.093 435.245 227.266 433.551 221.717 433.543 217.286 437.257 215.513 437.966 211.557 438.493 207.432 440.499 204.396 443.408 202.055 449.922 202.57 454.872 201.942 453.049 195.876 455.293 193.064 457.977 190.619 462.32 189.598 462.012 184.605 461.265 179.151 466.412 178.878 467.732 175.207 475.04 177.031 477.693 174.636 475.436 167.565 482.75 169.623 483.27 165.143 484.055 160.862 484.801 156.481 488.446 155.04 490.819 152.296 495.641 152.17 499.049 150.587 497.967 144.038 500.602 141.544 504.233 140.197 505.899 136.581 509.304 134.995 513.665 134.624 516.65 133.528" style="fill: #fff;"/>
  <polygon points="516.65 133.528 519.033 135.403 521.201 138.331 526.42 138.138 526.771 142.907 531.589 143.209 529.15 150.609 532.048 152.77 534.452 155.408 542.76 152.605 541.177 158.946 546.844 158.7 545.145 165.016 552.067 163.767 553.69 167.152 555.527 170.337 553.828 176.425 556.394 178.948 562.807 178.409 566.017 180.492 561.201 188.805 565.092 190.32 572.818 189.006 573.694 192.872 577.327 194.711 573.463 201.928 577.017 203.805 577.729 207.677 584.693 207.281 582.536 213.075 584.049 216.371 588.654 217.667 585.93 223.658 595.632 221.825 592.701 227.875 592.331 232.284 594.363 235.228 599.979 236.107 596.737 242.09 601.131 243.719 606.808 244.705 610.143 247.027 604.776 253.947 610.078 255.237 610.735 258.942 614.483 261.103 616.278 264.252 613.912 269.371 617.184 271.805 621.175 273.95 619.4 278.693 621.073 281.882 620.864 285.87 625.327 287.904 625.58 291.69 623.27 296.457 624.469 299.814 628.003 302.302 629.408 305.604 630.868 308.892 630.308 312.875 631.075 316.384 631.882 319.873 633.979 322.954 639.302 325.077 642.949 327.775 644.354 331.159 638.55 336.526 639.054 340.096 641.855 343.073 644.784 346.056 643.842 349.99 644.075 353.624 649.454 356.134 647.769 360.193 646.795 364.067 644.155 368.223 649.784 370.837 651.394 374.226 652.059 377.785 648.83 381.934 651.048 385.241 650.193 388.986 649.603 392.675 654.207 395.752 652.521 399.566 650.829 403.343 654.943 406.579 653.869 410.287 651.421 414.065 658.01 417.257 655.492 421.023 655.845 424.621 655.296 428.253 652.73 431.92 657.67 435.43 650.661 439.093 658.799 442.68 650.997 446.22 657.775 449.926 650.447 453.336 658.722 457.218 656.062 460.733 652.443 464.151 654.701 467.888 656.578 471.641 651.626 474.873 650.491 478.37 652.97 482.21 652.626 485.796 648.971 489 652.631 493.058 649.699 496.309 650.455 500.04 645.89 502.996 650.803 507.382 651.532 511.163 646.277 513.921 649.992 518.243 643.405 520.667 642.899 524.207 641.777 527.623 644.995 531.966 647.704 536.261 638.674 537.889 644.622 542.982 640.999 545.81 638.146 548.791 641.42 553.361 636.844 555.86 638.894 560.157 637.059 563.383 632.752 565.865 631.726 569.291 630.463 572.642 631.818 576.828 630.953 580.327 632.987 584.802 630.372 587.733 631.866 592.08 622.586 592.611 627.939 598.372 628.109 602.297 620.327 603.218 622.899 606.686 624.572 605.043 626.58 601.876 627.945 597.973 630.214 595.038 633.867 593.67 638.533 593.525 639.488 589.042 645.146 590.186 644.509 583.673 650.078 584.826 654.719 584.925 657.223 582.308 660.612 580.864 661.934 576.608 666.318 576.564 668.285 573.136 670.363 569.806 670.493 563.465 676.997 566.788 676.614 559.425 681.406 560.23 685.96 560.789 686.956 555.325 691.085 555.232 693.621 552.311 697.413 551.7 701.054 550.865 702.048 544.699 705.608 543.61 709.658 543.627 714.653 545.917 715.94 539.722 720.636 541.547 725.704 544.627 727.631 539.607 730.334 536.413 735.417 540.161 737.769 535.786 741.153 534.493 743.483 529.383 748.366 533.495 751.325 530.424 754.996 530.164 757.7 525.301 762.043 528.38 766.274 531.618 769.154 526.801 773.166 529.383 776.445 526.49 780.12 526.808 783.868 528.413 787.067 521.646 791.05 528.91 794.481 522.195 798.173 528.792 801.732 528.934 805.394 526.171 808.82 529.62 812.469 528.443 816.515 523.62 819.562 529.402 822.929 531.202 827.241 526.403 830.048 531.662 833.341 533.405 838.663 525.21 840.321 534.631 844.766 531.411 849.436 527.941 852.968 529.052 856.517 530.095 858.47 536.055 862.259 536.127 867 533.705 869.051 538.665 871.762 541.628 875.908 541.054 878.601 543.932 883.18 542.631 886.728 543.696 890.461 544.438 891.414 550.514 896.381 548.95 899.521 550.843 900.032 557.145 905.083 555.767 905.773 561.414 907.974 564.526 915.698 559.592 913.809 568.502 920.953 564.864 924.973 565.678 923.646 573.143 928.287 573.21 931.585 576.239 928.816 579.689 933.411 583.824 924.379 586.35 930.455 590.76 924.224 593.508 925.827 597.359 926.67 601.126 925.62 604.596 929.521 608.936 920.955 611.041 929.239 616.269 924.8 619.08 921.361 622.043 925.398 626.576 924.123 629.998 925.465 634.016 916.927 635.714 918.947 639.89 918.813 643.566 913.779 645.971 920.747 651.547 914.832 653.673 916.904 658.002 916.102 661.537 910.985 663.769 912.099 667.872 912.493 671.782 908.877 674.401 911.467 679.072 910.764 682.669 909.893 686.217 903.139 687.616 904.52 691.966 901.05 694.497 899.544 697.762 895.748 700.091 902.079 706.597 896.855 708.321 897.167 712.394 895.714 715.712 893.52 718.689 890.466 721.241 884.77 722.467 885.593 726.851 887.9 732.062 882.728 733.431 879.051 735.513 880.653 740.475 878.484 743.382 874.861 745.422 876.085 750.328 876.679 754.944 867.854 753.649 872.378 760.848 868.637 762.722 866.856 765.888 866.071 769.774 857.799 768.232 858.289 773.034 853.6 773.932 858.593 782.45 852.031 781.803 848.781 783.754 844.705 784.934 847.202 791.947 839.788 790.014 838.01 793.2 838.464 798.641 836.848 802.153 832.544 802.882 832.543 808.21 827.46 807.975 827.045 813.037 821.147 811.618 817.682 812.998 816.223 816.96 814.455 820.609 812.083 823.516 809.381 826.001 802.858 822.929 799.808 824.766 796.362 825.979 798.278 835.758 794.062 835.885 790.979 837.84 788.862 841.52 785.636 843.293 779.009 838.564 778.178 844.854 775.139 846.957 768.578 841.528 767.013 846.707 765.271 851.801 760.96 850.945 755.69 847.422 754.632 854.737 751.962 858.123 745.899 851.657 742.489 852.663 739.505 855.075 737.952 862.688 732.558 856.776 728.792 856.437 727.037 864.539 723.659 866.274 718.281 858.197 715.623 863.314 711.273 859.25 707.818 860.068 705.482 869.136 701.066 863.268 697.692 865.385 693.971 864.273 690.682 868.294 687.207 871.083 683.401 868.345 679.802 869.431 676.169 870.217 672.514 870.337 668.881 868.307 665.394 862.666 661.76 864.766 658.03 867.515 654.324 868.693 651.216 861.866 647.158 867.159 644.206 860.616 640.451 862.17 636.904 861.762 632.272 868.832 630.084 859.146 625.327 865.928 622.24 862.542 618.458 863.074 615.625 858.878 610.927 863.563 608.812 856.528 605.739 854.039 600.82 858.919 598.376 854.039 595.14 852.327 591.145 853.275 587.123 854.162 583.345 854.128 579.884 853.052 575.639 854.284 573.287 849.964 569.717 849.205 565.954 848.936 562.689 847.317 560.189 843.793 556.674 842.87 554.993 837.576 549.064 842.285 546.477 839.174 545.326 833.007 541.487 832.795 538.944 829.845 535.792 828.202 528.308 835.028 525.728 832.07 523.419 828.686 522.096 823.616 516.881 825.528 517.099 818.06 511.055 821.151 508.663 815.23 506.797 823.386 500.332 818.067 498.363 822.402 497.266 828.925 490.833 823.104 490.182 830.901 485.926 830.085 482.234 830.593 478.499 830.954 474.23 829.854 470.873 831.124 468.786 835.925 466.05 839.057 461.28 836.351 457.557 836.582 454.401 838.504 450.431 837.91 448.347 843.308 443.98 841.383 440.504 842.324 438.215 847.41 434.893 849.019 431.244 849.453 426.735 846.568 422.749 845.504 420.54 851.555 415.799 847.278 414.018 855.59 409.914 853.908 405.421 850.189 402.585 854.269 398.005 849.659 394.774 851.828 392.49 859.508 388.139 855.603 385.283 860.616 381.023 856.782 377.522 857.788 373.405 854.164 370.729 861.745 366.701 858.486 363.387 861.503 359.273 856.449 356.101 861.486 352.439 861.086 348.808 860.98 345.337 863.789 341.559 860.596 338.053 863.802 334.308 858.672 330.723 858.345 327.149 856.951 323.548 860.032 319.893 862.438 316.418 858.23 312.663 861.907 309.031 861.97 305.659 858.343 301.858 860.772 298.695 855.942 294.428 862.172 290.598 863.454 287.664 857.846 284.266 856.244 280.232 858.693 277.336 854.289 274.063 852.398 270.027 854.36 266.155 855.225 263.643 850.164 260.007 850.057 254.676 856.159 251.779 852.94 249.38 848.308 246.502 845.557 240.229 853.091 238.84 845.941 233.614 849.7 230.932 846.455 227.275 845.775 223.659 844.934 220.578 842.842 219.205 837.132 214.429 838.772 211.741 836.026 209.901 831.759 207.368 828.958 202.476 830.377 197.917 830.997 196.178 826.851 192.584 825.773 190.36 822.563 184.551 824.664 181.718 822.29 182.071 815.6 176.852 816.534 174.622 813.468 173.921 808.573 170.851 806.663 168.861 803.486 166.466 800.808 159.159 803.454 156.354 801.084 154.394 797.853 150.754 796.301 149.984 791.983 149.893 787.158 143.557 787.958 140.959 785.355 142.79 779.1 143.474 773.978 135.326 775.808 132.995 773.005 131.086 769.89 130.292 766.005 125.951 764.586 130.456 757.244 125.762 756.04 121.579 754.41 124.346 748.519 117.401 748.457 114.447 745.957 119.467 739.04 113.765 738.058 112.534 734.635 115.035 729.352 113.254 726.276 108.7 724.505 106.811 721.424 101.235 719.976 107.317 713.376 105.571 710.257 102.14 707.814 103.128 703.571 96.459 702.322 94.142 699.328 92.978 695.894 96.682 690.757 95.67 687.326 94.267 684.026 95.169 679.984 86.537 678.93 92.551 673.34 91.263 670.002 85.669 667.867 88.359 663.396 80.977 661.636 86.774 656.416 77.926 654.903 78.232 651.087 81.128 646.7 75.903 644.161 81.372 639.283 79.667 635.969 76.106 633.003 75.391 629.457 73.851 626.06 79.482 621.41 74.635 618.587 74.201 615.004 71.27 611.798 76.264 607.424 78.258 603.537 74.425 600.433 67.722 597.621 67.769 593.952 74.551 589.579 73.53 586.081 74.388 582.408 69.357 579.237 68.408 575.687 68.12 572.085 68.707 568.43 73.983 564.564 68.022 561.237 67 557.645 66.988 551.066 71.241 550.396 73.086 546.645 76.133 544.549 81.685 546.408 84.723 544.484 87.062 541.353 90.123 539.399 91.582 534.452 95.937 534.844 102.221 539.32 105.316 537.601 107.008 532.767 111.062 533.073 113.487 529.602 115.093 523.836 120.763 528.478 124.165 527.377 125.556 520.294 131.22 525.995 133.991 522.841 136.446 518.257 139.889 516.958 144.917 522.173 146.689 513.751 151.69 519.799 154.043 512.882 157.818 513.122 161.371 512.058 165.989 519.126 168.591 510.399 172.258 509.94 175.916 509.281 180.004 516.386 183.574 516.452 187.169 518.504 190.707 512.423 194.387 510.383 197.839 515.941 201.813 509.282 205.309 512.047 209.064 511.179 212.369 514.586 215.829 516.004 218.791 520.42 222.444 520.002 226.589 517.234 229.732 519.828 234.694 514.225 236.591 521.882 240.153 522.381 244.245 521.097 248.917 518.207 252.316 519.683 252.982 529.047 258.039 525.49 261.544 526.464 266.436 524.017 268.947 527.566 272.651 528.22 272.634 537.044 279.353 531.195 281.105 535.905 283.078 539.957 289.163 536.154 290.888 540.599 293.711 542.949 296.646 545.074 297.75 550.181 305.498 544.537 305.92 550.637 308.211 553.703 311.43 555.355 314.641 557.043 318.73 557.536 321.198 560.297 324.106 562.45 329.128 561.891 332.696 563.287 334.713 566.622 335.821 570.999 335.174 577.344 341.894 575.063 340.857 581.695 343.462 584.144 349.818 582.544 354.047 583.355 355.395 587.221 353.425 594.42 356.615 596.284 358.583 599.373 366.399 596.801 367.013 601.242 367.541 605.7 370.259 608.093 375.003 610.632 377.659 604.568 370.856 602.811 375.983 597.632 368.132 596.077 371.437 591.464 367.574 588.761 370.022 584.434 370.531 580.628 368.237 577.501 364.631 574.651 364.199 571.06 361.195 568.02 359.17 564.746 362.951 560.307 360.22 557.168 365.376 552.562 358.89 550.075 363.458 545.657 359.694 542.641 359.15 539.09 357.313 535.724 358.483 531.93 354.454 528.826 358.73 524.672 360.162 520.91 354.335 517.93 354.676 514.273 354.799 510.646 350.117 507.409 355.708 503.366 351.829 500.019 354.414 496.254 349.872 492.872 355.639 489.015 356.038 485.421 355.007 481.869 357.077 478.255 351.031 474.729 354.826 471.121 356.67 467.557 353.265 463.926 348.641 460.204 353.61 456.741 355.313 453.217 356.078 449.671 350.962 445.778 354.145 442.368 353.755 438.73 357.932 435.474 356.767 431.779 351.767 427.663 352.931 424.143 359.558 421.294 356.113 417.252 357.277 413.777 360.362 410.595 361.886 407.216 354.216 402.346 354.858 398.767 358.518 395.737 364.712 393.242 363.943 389.458 360.849 385.163 359.095 381.091 365.644 378.851 362.738 374.492 366.204 371.621 366.81 368.074 367.474 364.536 370.439 361.616 366.619 356.83 369.7 353.955 368.029 349.698 368.177 345.952 371.722 343.268 376.026 340.877 379.489 338.263 380.104 334.709 380.911 331.213 378.89 326.68 384.594 324.972 383.872 320.887 385.222 317.577 385.918 314.005 381.402 308.275 385.747 306.166 389.653 303.925 387.126 298.896 393.698 297.89 396.19 295.105 391.337 288.886 394.805 286.537 394.225 282.241 394.834 278.497 403.259 278.721 403.821 274.99 400.681 269.273 405.196 267.597 405.721 263.779 404.69 259.062 411.874 258.986 415.749 257.095 411.058 250.168 415.772 248.78 417.804 245.805 423.662 245.225 417.836 237.299 424.318 237.167 424.04 232.687 428.353 231.228 430.125 228.093 435.245 227.266 433.551 221.717 433.543 217.286 437.257 215.513 437.966 211.557 438.493 207.432 440.499 204.396 443.408 202.055 449.922 202.57 454.872 201.942 453.049 195.876 455.293 193.064 457.977 190.619 462.32 189.598 462.012 184.605 461.265 179.151 466.412 178.878 467.732 175.207 475.04 177.031 477.693 174.636 475.436 167.565 482.75 169.623 483.27 165.143 484.055 160.862 484.801 156.481 488.446 155.04 490.819 152.296 495.641 152.17 499.049 150.587 497.967 144.038 500.602 141.544 504.233 140.197 505.899 136.581 509.304 134.995 513.665 134.624 516.65 133.528" style="fill: none; stroke: #000; stroke-linecap: round; stroke-linejoin: round; stroke-width: 40px;"/>
</svg>