<?xml version="1.0" encoding="UTF-8"?>
<svg id="Sticker" xmlns="http://www.w3.org/2000/svg" width="1000" height="1000" viewBox="0 0 1000 1000">
  <g>
    <polygon points="629.551 787.536 628.217 793.87 624.462 795.745 623.992 800.015 618.907 800.926 620.85 806.955 620.848 811.562 618.461 814.438 610.022 812.906 614.055 820.459 611.859 823.483 603.959 822.354 605.816 828.161 601.933 829.637 600.927 833.453 595.719 833.537 599.203 841.798 593.995 841.76 593.848 846.96 586.743 844.393 585.617 848.605 580.001 847.164 578.988 851.701 574.842 851.895 573.12 855.71 571.113 859.31 566.679 858.741 566.224 865.624 561.64 864.611 557.723 864.696 552.582 861.51 552.412 870.945 547.716 868.555 542.976 865.26 541.353 872.389 536.749 868.781 534.314 874.16 530.955 875.984 526.152 868.711 522.844 869.939 519.44 870.655 515.979 870.819 512.517 870.893 509.076 874.358 505.531 873.781 501.786 877.525 498.315 875.144 495.287 869.878 491.709 870.557 487.876 872.323 484.127 872.968 481.201 869.703 478.278 867.008 474.565 867.386 469.791 870.745 466.745 868.483 462.221 870.159 459.403 867.362 458.281 861.108 452.911 864.045 449.686 862.361 448.759 856.685 442.485 860.186 440.879 855.917 439.734 851.269 434.837 851.957 434.462 846.616 429.894 846.612 425.847 845.766 427.701 838.52 420.324 840.997 417.834 838.331 415.102 835.877 414.942 831.239 413.538 827.55 409.966 825.682 408.867 821.739 406.133 819.163 399.913 819.509 403.058 812.014 394.891 813.991 396.576 807.712 390.04 808.321 392.203 801.632 387.309 803.127 385.114 801.945 381.626 803.749 377.115 799.065 373.379 799.314 370.027 802.007 366.902 806.145 363.296 807.219 359.746 808.654 355.559 806.037 352.283 809.255 348.471 809.064 343.981 802.811 341.199 809.838 337.341 807.078 333.664 804.457 330.188 805.066 326.615 809.357 322.944 810.274 319.187 811.476 316.365 803.019 312.646 804.724 308.976 805.341 305.332 805.452 302.746 800.709 297.29 807.977 294.717 803.574 291.446 802 286.663 804.749 283.339 803.08 281.729 797.434 279.5 793.774 276.216 792.557 270.915 795.075 269.752 789.796 266.044 789.133 259.946 791.992 261.012 783.941 259.336 780.313 251.841 784.295 249.982 780.793 247.256 778.406 246.525 773.883 246.372 769.008 239.335 770.963 238.146 767.155 237.317 763.17 231.624 763.218 228.477 761.023 226.365 758.01 226.969 753.191 222.336 751.857 226.45 745.197 223.313 742.953 220.985 740.187 221.052 736.239 214.721 735.191 211.282 732.64 215.301 727.211 215.121 723.536 207.907 722.039 209.657 717.734 209.306 714.099 212.415 709.781 212.906 706.158 208.149 703.362 207.178 699.874 208.241 696.18 204.172 692.853 210.317 689.027 209.383 685.546 203.835 681.869 203.796 678.193 207.543 674.838 206.764 671.026 211.958 667.743 206.023 663.477 211.145 660.184 204.701 655.871 210.423 652.632 207.196 648.604 207.354 644.874 212.353 641.57 205.876 637.248 214.823 632.222 206.989 633.146 204.094 630.79 204.167 624.356 196.157 629.019 198.88 618.945 190.316 624.376 187.965 621.269 185.786 617.924 182.141 616.591 182.327 609.987 178.543 608.835 172.786 610.493 173.993 603.216 167.721 605.111 165.006 602.669 165.483 596.952 161.351 596.048 156.062 596.012 155.909 591.265 151.733 589.996 156.144 582.016 150.199 582.043 144.619 581.478 149.847 573.818 141.134 574.937 139.637 571.553 136.709 568.919 138.479 563.968 138.222 560.145 140.034 555.57 131.442 555.054 138.299 548.848 128.591 548.204 128.289 544.443 132.177 539.712 125.56 537.489 130.15 532.884 128.157 529.586 127.107 526.088 123.17 522.819 123.96 519.042 127.398 515.236 128.396 511.647 127.481 508.072 124.567 504.333 124.648 500.659 132.097 497.793 131.629 494.227 132.701 490.867 126.249 486.025 128.679 482.803 129.546 479.27 136.11 477.409 130.304 471.866 134.054 469.305 136.073 466.232 136.317 462.448 136.362 458.49 135.991 454.216 140.971 452.666 140.356 448.143 142.955 445.408 148.824 444.879 151.635 442.539 154.558 440.353 157.557 438.304 154.003 430.815 158.533 429.963 160.178 426.6 163.658 424.987 166.8 423.127 167.358 418.42 168.84 414.538 172.095 412.617 176.067 411.555 179.635 410.008 184.414 409.904 185.62 405.536 189.612 404.499 193.187 402.958 196.097 400.624 198.823 398.067 201.766 395.76 199.146 389.77 201.42 387.564 204.796 383.261 203.084 379.756 196.953 376.944 203.397 372.155 196.465 369.47 197.58 365.52 197.305 361.788 193.21 358.655 192.072 355.052 199.131 350.16 191.863 347.567 194.343 343.612 196.849 339.819 192.451 336.471 192.233 332.825 193.055 329.185 195.007 325.643 191.758 321.81 194.446 318.397 199.581 315.455 193.444 310.918 201.592 308.786 193.611 303.436 200.861 301.489 202.276 298.245 202.453 294.628 206.324 292.27 205.532 288.271 206.248 284.773 202.492 279.171 208.393 277.983 213.332 276.599 208.307 269.771 213.081 268.398 218.701 267.809 216.532 262.127 221.2 261.127 219.691 255.52 221.111 251.998 226.495 251.881 231.132 251.379 229.753 245.17 234.386 244.818 237.688 243.242 239.383 239.865 241.424 236.784 243.159 233.186 244.751 229.201 250.074 230.581 255.091 231.921 254.816 224.638 259.143 225.01 262.095 222.983 266.121 223.171 269.281 221.651 271.02 216.565 275.619 218.571 279.133 217.978 281.916 215.067 285.771 215.692 287.974 209.767 292.857 215.301 295.148 208.255 299.867 215.237 302.42 207.319 306.227 208.856 309.68 206.007 313.543 212.745 317.035 208.754 320.625 208.99 324.451 205.198 328.027 206.823 331.135 214.026 335.273 209.525 339.012 209.561 343.034 206.421 346.54 209.12 350.059 211.68 353.573 214.272 357.06 217.185 361.33 211.235 364.484 217.998 367.576 211.28 367.654 208.269 377.049 210.501 374.448 203.995 376.502 200.877 383.286 201.204 379.171 193.598 384.573 192.918 387.941 190.756 386.511 185.099 389.333 182.531 395.652 182.51 397.202 179.316 399.998 177.092 402.658 174.807 402.1 169.6 405.221 167.665 410.019 167.54 407.147 159.278 412.233 159.56 414.702 156.935 415.161 151.619 422.318 155.273 422.353 149.068 427.419 150.294 428.591 145.332 431.503 143.089 435.805 143.496 438.017 139.81 443.19 142.535 445.353 138.516 450.181 141.213 451.191 133.345 456.722 138.891 457.898 130.009 461.422 128.791 465.926 132.12 468.821 127.915 472.993 130.762 476.938 133.405 480.349 132.197 483.852 131.632 487.495 134.594 490.919 129.464 494.43 133.019 498.157 128.72 501.459 132.774 505.614 127.19 508.719 131.565 512.064 133.183 515.095 136.055 518.62 136.22 522.377 135.649 525.182 138.624 531.119 131.616 532.582 138.538 537.004 136.961 538.773 142.053 543.496 140.205 545.783 143.718 548.323 146.493 551.766 147.553 553.566 151.369 560.127 147.702 563.852 148.767 562.377 156.923 565.109 159.073 567.316 161.849 571.347 162.521 577.209 161.448 575.843 167.967 579.465 169.356 582.936 171.011 584.685 174.222 587.839 176.444 592.551 177.357 596.011 179.321 598.04 182.487 599.829 185.855 602.252 188.685 599.572 195.797 607.061 194.389 610.02 196.777 606.493 204.607 612.631 202.178 614.533 200.962 619.583 209.088 622.793 205.499 626.823 207.114 630.382 205.74 634.196 205.98 637.997 206.148 640.327 196.959 645.28 204.443 648.741 202.396 651.846 198.088 654.915 193.72 659.231 199.617 662.516 196.029 666.359 201.227 669.786 197.78 673.431 193.148 676.757 201.301 680.516 197.58 684.27 196.142 687.677 198.058 691.759 195.402 693.752 204.346 697.48 203.449 700.774 204.631 703.775 206.747 708.79 202.421 712.081 203.92 715.645 204.669 720.287 202.973 721.658 208.859 726.917 206.278 727.981 212.143 731.559 213.058 733.534 216.707 739.91 213.377 738.574 221.804 746.272 217.232 747.086 222.224 751.804 222.207 748.469 231.592 753.735 230.987 755.286 234.466 756.349 238.3 761.618 238.204 766.944 238.364 762.973 246.25 766.861 247.635 771.959 248.325 772.778 252.125 775.62 254.566 779.176 256.665 780.186 260.287 776.517 266.229 784.525 266.28 778.94 272.718 783.706 274.517 788.547 276.525 785.873 281.28 789.023 284.032 785.207 288.794 786.604 292.019 793.966 294.05 787.094 298.989 787.312 302.443 794.049 305.132 791.969 308.95 795.092 312.335 793.411 316.02 793.905 319.608 791.884 323.145 792.576 326.737 795.453 330.574 788.651 333.717 794.408 337.966 789.568 341.281 793.87 345.405 789.789 348.79 790.009 352.553 789.969 356.293 785.874 359.676 787.659 363.578 791.361 367.656 791.682 369.973 791.223 374.459 795.628 374.739 798.72 376.828 799.931 381.5 805.55 380.121 809.775 380.648 811.555 384.538 812.834 389.118 814.811 392.742 821.526 389.87 823.486 393.526 823.834 399.029 829.621 397.519 829.019 403.789 835.035 402.433 838.403 404.214 841.086 406.744 839.493 413.184 846.338 411.953 849.066 414.505 850.362 418.185 850.205 422.816 848.305 428.415 855.723 427.829 858.33 430.524 854.417 436.856 859.213 438.31 858.858 442.44 860.464 445.578 861.398 448.999 860.485 453.078 867.561 454.326 865.64 458.699 872.66 460.445 868.193 465.346 867.204 469.185 866.131 472.936 866.708 476.336 869.498 479.472 868.99 483.05 871.336 486.401 874.53 489.846 869.074 493.512 868.766 496.985 874.116 500.744 876.407 504.575 873.019 507.924 875.221 511.886 868.198 514.433 874.812 519.335 870.248 522.095 868.095 525.258 867.909 528.921 867.522 532.571 865.036 535.515 864.239 539.037 864.03 542.847 860.344 545.131 856.813 547.335 858.718 552.313 854.614 554.105 858.174 560.435 848.253 558.344 849.938 563.711 851.589 569.383 843.305 567.527 847.148 575.301 842.674 576.263 836.808 575.689 836.409 580.226 836.379 585.401 828.32 581.856 827.135 585.804 825.645 589.832 825.533 595.501 821.074 595.984 818.478 598.694 812.036 596.813 811.593 602.086 807.847 603.422 803.231 603.721 803.812 610.224 799.799 611.254 797.81 614.233 794.84 618.171 794.291 622.03 797.364 625.321 803.169 628.184 802.218 632.109 802.007 635.918 796.433 640.569 803.399 643.249 807.033 646.454 804.358 650.657 799.834 655.15 800.834 658.517 806.372 661.464 802.557 665.37 804.732 668.793 808.941 672.308 808.503 675.988 803.036 679.413 803.03 682.94 800.604 686.225 808.16 690.747 801.355 693.363 800.776 696.828 801.341 700.559 802.353 704.492 795.744 706.324 803.876 712.569 801.132 715.539 794.627 716.938 796.123 721.382 790.673 722.831 791.041 726.883 794.964 732.972 788.755 733.697 784.486 735.263 789.027 742.372 785.895 744.703 782.017 746.393 776.594 746.716 775.838 750.612 771.159 751.198 771.614 756.333 766.803 756.567 770.175 765.113 766.171 766.194 764.131 769.424 756.274 765.484 758.077 773.601 754.389 774.73 750.304 775.134 749.347 780.338 745.19 780.517 743.34 784.689 738.451 783.237 734.369 783.014 731.992 786.418 727.23 784.216 725.364 789.253 722.729 792.749 719.274 794.029 713.508 786.769 711.112 791.523 708.744 797.611 704.196 793.152 701.413 798.726 696.708 790.244 693.818 796.814 690.373 800.055 686.454 792.244 682.972 793.93 679.38 796.04 676.064 791.35 672.481 792.58 668.825 791.59 664.595 797.129 660.802 797.699 657.365 794.222 653.574 794.741 650.135 791.287 645.985 795.895 642.777 789.816 638.667 793.96 634.143 793.781 629.551 787.536" style="fill: #fff;"/>
    <polygon points="629.551 787.536 628.217 793.87 624.462 795.745 623.992 800.015 618.907 800.926 620.85 806.955 620.848 811.562 618.461 814.438 610.022 812.906 614.055 820.459 611.859 823.483 603.959 822.354 605.816 828.161 601.933 829.637 600.927 833.453 595.719 833.537 599.203 841.798 593.995 841.76 593.848 846.96 586.743 844.393 585.617 848.605 580.001 847.164 578.988 851.701 574.842 851.895 573.12 855.71 571.113 859.31 566.679 858.741 566.224 865.624 561.64 864.611 557.723 864.696 552.582 861.51 552.412 870.945 547.716 868.555 542.976 865.26 541.353 872.389 536.749 868.781 534.314 874.16 530.955 875.984 526.152 868.711 522.844 869.939 519.44 870.655 515.979 870.819 512.517 870.893 509.076 874.358 505.531 873.781 501.786 877.525 498.315 875.144 495.287 869.878 491.709 870.557 487.876 872.323 484.127 872.968 481.201 869.703 478.278 867.008 474.565 867.386 469.791 870.745 466.745 868.483 462.221 870.159 459.403 867.362 458.281 861.108 452.911 864.045 449.686 862.361 448.759 856.685 442.485 860.186 440.879 855.917 439.734 851.269 434.837 851.957 434.462 846.616 429.894 846.612 425.847 845.766 427.701 838.52 420.324 840.997 417.834 838.331 415.102 835.877 414.942 831.239 413.538 827.55 409.966 825.682 408.867 821.739 406.133 819.163 399.913 819.509 403.058 812.014 394.891 813.991 396.576 807.712 390.04 808.321 392.203 801.632 387.309 803.127 385.114 801.945 381.626 803.749 377.115 799.065 373.379 799.314 370.027 802.007 366.902 806.145 363.296 807.219 359.746 808.654 355.559 806.037 352.283 809.255 348.471 809.064 343.981 802.811 341.199 809.838 337.341 807.078 333.664 804.457 330.188 805.066 326.615 809.357 322.944 810.274 319.187 811.476 316.365 803.019 312.646 804.724 308.976 805.341 305.332 805.452 302.746 800.709 297.29 807.977 294.717 803.574 291.446 802 286.663 804.749 283.339 803.08 281.729 797.434 279.5 793.774 276.216 792.557 270.915 795.075 269.752 789.796 266.044 789.133 259.946 791.992 261.012 783.941 259.336 780.313 251.841 784.295 249.982 780.793 247.256 778.406 246.525 773.883 246.372 769.008 239.335 770.963 238.146 767.155 237.317 763.17 231.624 763.218 228.477 761.023 226.365 758.01 226.969 753.191 222.336 751.857 226.45 745.197 223.313 742.953 220.985 740.187 221.052 736.239 214.721 735.191 211.282 732.64 215.301 727.211 215.121 723.536 207.907 722.039 209.657 717.734 209.306 714.099 212.415 709.781 212.906 706.158 208.149 703.362 207.178 699.874 208.241 696.18 204.172 692.853 210.317 689.027 209.383 685.546 203.835 681.869 203.796 678.193 207.543 674.838 206.764 671.026 211.958 667.743 206.023 663.477 211.145 660.184 204.701 655.871 210.423 652.632 207.196 648.604 207.354 644.874 212.353 641.57 205.876 637.248 214.823 632.222 206.989 633.146 204.094 630.79 204.167 624.356 196.157 629.019 198.88 618.945 190.316 624.376 187.965 621.269 185.786 617.924 182.141 616.591 182.327 609.987 178.543 608.835 172.786 610.493 173.993 603.216 167.721 605.111 165.006 602.669 165.483 596.952 161.351 596.048 156.062 596.012 155.909 591.265 151.733 589.996 156.144 582.016 150.199 582.043 144.619 581.478 149.847 573.818 141.134 574.937 139.637 571.553 136.709 568.919 138.479 563.968 138.222 560.145 140.034 555.57 131.442 555.054 138.299 548.848 128.591 548.204 128.289 544.443 132.177 539.712 125.56 537.489 130.15 532.884 128.157 529.586 127.107 526.088 123.17 522.819 123.96 519.042 127.398 515.236 128.396 511.647 127.481 508.072 124.567 504.333 124.648 500.659 132.097 497.793 131.629 494.227 132.701 490.867 126.249 486.025 128.679 482.803 129.546 479.27 136.11 477.409 130.304 471.866 134.054 469.305 136.073 466.232 136.317 462.448 136.362 458.49 135.991 454.216 140.971 452.666 140.356 448.143 142.955 445.408 148.824 444.879 151.635 442.539 154.558 440.353 157.557 438.304 154.003 430.815 158.533 429.963 160.178 426.6 163.658 424.987 166.8 423.127 167.358 418.42 168.84 414.538 172.095 412.617 176.067 411.555 179.635 410.008 184.414 409.904 185.62 405.536 189.612 404.499 193.187 402.958 196.097 400.624 198.823 398.067 201.766 395.76 199.146 389.77 201.42 387.564 204.796 383.261 203.084 379.756 196.953 376.944 203.397 372.155 196.465 369.47 197.58 365.52 197.305 361.788 193.21 358.655 192.072 355.052 199.131 350.16 191.863 347.567 194.343 343.612 196.849 339.819 192.451 336.471 192.233 332.825 193.055 329.185 195.007 325.643 191.758 321.81 194.446 318.397 199.581 315.455 193.444 310.918 201.592 308.786 193.611 303.436 200.861 301.489 202.276 298.245 202.453 294.628 206.324 292.27 205.532 288.271 206.248 284.773 202.492 279.171 208.393 277.983 213.332 276.599 208.307 269.771 213.081 268.398 218.701 267.809 216.532 262.127 221.2 261.127 219.691 255.52 221.111 251.998 226.495 251.881 231.132 251.379 229.753 245.17 234.386 244.818 237.688 243.242 239.383 239.865 241.424 236.784 243.159 233.186 244.751 229.201 250.074 230.581 255.091 231.921 254.816 224.638 259.143 225.01 262.095 222.983 266.121 223.171 269.281 221.651 271.02 216.565 275.619 218.571 279.133 217.978 281.916 215.067 285.771 215.692 287.974 209.767 292.857 215.301 295.148 208.255 299.867 215.237 302.42 207.319 306.227 208.856 309.68 206.007 313.543 212.745 317.035 208.754 320.625 208.99 324.451 205.198 328.027 206.823 331.135 214.026 335.273 209.525 339.012 209.561 343.034 206.421 346.54 209.12 350.059 211.68 353.573 214.272 357.06 217.185 361.33 211.235 364.484 217.998 367.576 211.28 367.654 208.269 377.049 210.501 374.448 203.995 376.502 200.877 383.286 201.204 379.171 193.598 384.573 192.918 387.941 190.756 386.511 185.099 389.333 182.531 395.652 182.51 397.202 179.316 399.998 177.092 402.658 174.807 402.1 169.6 405.221 167.665 410.019 167.54 407.147 159.278 412.233 159.56 414.702 156.935 415.161 151.619 422.318 155.273 422.353 149.068 427.419 150.294 428.591 145.332 431.503 143.089 435.805 143.496 438.017 139.81 443.19 142.535 445.353 138.516 450.181 141.213 451.191 133.345 456.722 138.891 457.898 130.009 461.422 128.791 465.926 132.12 468.821 127.915 472.993 130.762 476.938 133.405 480.349 132.197 483.852 131.632 487.495 134.594 490.919 129.464 494.43 133.019 498.157 128.72 501.459 132.774 505.614 127.19 508.719 131.565 512.064 133.183 515.095 136.055 518.62 136.22 522.377 135.649 525.182 138.624 531.119 131.616 532.582 138.538 537.004 136.961 538.773 142.053 543.496 140.205 545.783 143.718 548.323 146.493 551.766 147.553 553.566 151.369 560.127 147.702 563.852 148.767 562.377 156.923 565.109 159.073 567.316 161.849 571.347 162.521 577.209 161.448 575.843 167.967 579.465 169.356 582.936 171.011 584.685 174.222 587.839 176.444 592.551 177.357 596.011 179.321 598.04 182.487 599.829 185.855 602.252 188.685 599.572 195.797 607.061 194.389 610.02 196.777 606.493 204.607 612.631 202.178 614.533 200.962 619.583 209.088 622.793 205.499 626.823 207.114 630.382 205.74 634.196 205.98 637.997 206.148 640.327 196.959 645.28 204.443 648.741 202.396 651.846 198.088 654.915 193.72 659.231 199.617 662.516 196.029 666.359 201.227 669.786 197.78 673.431 193.148 676.757 201.301 680.516 197.58 684.27 196.142 687.677 198.058 691.759 195.402 693.752 204.346 697.48 203.449 700.774 204.631 703.775 206.747 708.79 202.421 712.081 203.92 715.645 204.669 720.287 202.973 721.658 208.859 726.917 206.278 727.981 212.143 731.559 213.058 733.534 216.707 739.91 213.377 738.574 221.804 746.272 217.232 747.086 222.224 751.804 222.207 748.469 231.592 753.735 230.987 755.286 234.466 756.349 238.3 761.618 238.204 766.944 238.364 762.973 246.25 766.861 247.635 771.959 248.325 772.778 252.125 775.62 254.566 779.176 256.665 780.186 260.287 776.517 266.229 784.525 266.28 778.94 272.718 783.706 274.517 788.547 276.525 785.873 281.28 789.023 284.032 785.207 288.794 786.604 292.019 793.966 294.05 787.094 298.989 787.312 302.443 794.049 305.132 791.969 308.95 795.092 312.335 793.411 316.02 793.905 319.608 791.884 323.145 792.576 326.737 795.453 330.574 788.651 333.717 794.408 337.966 789.568 341.281 793.87 345.405 789.789 348.79 790.009 352.553 789.969 356.293 785.874 359.676 787.659 363.578 791.361 367.656 791.682 369.973 791.223 374.459 795.628 374.739 798.72 376.828 799.931 381.5 805.55 380.121 809.775 380.648 811.555 384.538 812.834 389.118 814.811 392.742 821.526 389.87 823.486 393.526 823.834 399.029 829.621 397.519 829.019 403.789 835.035 402.433 838.403 404.214 841.086 406.744 839.493 413.184 846.338 411.953 849.066 414.505 850.362 418.185 850.205 422.816 848.305 428.415 855.723 427.829 858.33 430.524 854.417 436.856 859.213 438.31 858.858 442.44 860.464 445.578 861.398 448.999 860.485 453.078 867.561 454.326 865.64 458.699 872.66 460.445 868.193 465.346 867.204 469.185 866.131 472.936 866.708 476.336 869.498 479.472 868.99 483.05 871.336 486.401 874.53 489.846 869.074 493.512 868.766 496.985 874.116 500.744 876.407 504.575 873.019 507.924 875.221 511.886 868.198 514.433 874.812 519.335 870.248 522.095 868.095 525.258 867.909 528.921 867.522 532.571 865.036 535.515 864.239 539.037 864.03 542.847 860.344 545.131 856.813 547.335 858.718 552.313 854.614 554.105 858.174 560.435 848.253 558.344 849.938 563.711 851.589 569.383 843.305 567.527 847.148 575.301 842.674 576.263 836.808 575.689 836.409 580.226 836.379 585.401 828.32 581.856 827.135 585.804 825.645 589.832 825.533 595.501 821.074 595.984 818.478 598.694 812.036 596.813 811.593 602.086 807.847 603.422 803.231 603.721 803.812 610.224 799.799 611.254 797.81 614.233 794.84 618.171 794.291 622.03 797.364 625.321 803.169 628.184 802.218 632.109 802.007 635.918 796.433 640.569 803.399 643.249 807.033 646.454 804.358 650.657 799.834 655.15 800.834 658.517 806.372 661.464 802.557 665.37 804.732 668.793 808.941 672.308 808.503 675.988 803.036 679.413 803.03 682.94 800.604 686.225 808.16 690.747 801.355 693.363 800.776 696.828 801.341 700.559 802.353 704.492 795.744 706.324 803.876 712.569 801.132 715.539 794.627 716.938 796.123 721.382 790.673 722.831 791.041 726.883 794.964 732.972 788.755 733.697 784.486 735.263 789.027 742.372 785.895 744.703 782.017 746.393 776.594 746.716 775.838 750.612 771.159 751.198 771.614 756.333 766.803 756.567 770.175 765.113 766.171 766.194 764.131 769.424 756.274 765.484 758.077 773.601 754.389 774.73 750.304 775.134 749.347 780.338 745.19 780.517 743.34 784.689 738.451 783.237 734.369 783.014 731.992 786.418 727.23 784.216 725.364 789.253 722.729 792.749 719.274 794.029 713.508 786.769 711.112 791.523 708.744 797.611 704.196 793.152 701.413 798.726 696.708 790.244 693.818 796.814 690.373 800.055 686.454 792.244 682.972 793.93 679.38 796.04 676.064 791.35 672.481 792.58 668.825 791.59 664.595 797.129 660.802 797.699 657.365 794.222 653.574 794.741 650.135 791.287 645.985 795.895 642.777 789.816 638.667 793.96 634.143 793.781 629.551 787.536" style="fill: none; stroke: #000; stroke-linecap: round; stroke-linejoin: round; stroke-width: 40px;"/>
  </g>
  <polyline points="657.326 378.476 655.514 375.476 653.111 372.711 650.309 370.237 646.813 368.399 644.405 365.621 638.318 366.405 640.59 359.015 636.056 358.394 634.57 354.581 627.534 357.027 623.775 355.968 626.424 346.999 623.221 345.077 615.827 348.901 616.706 341.471 611.451 342.694 610.297 337.824 604.321 340.552 603.332 335.19 599.416 334.739 598.646 328.491 593.041 331.354 592.004 325.171 586.788 327.667 584.898 322.902 578.537 328.706 577.796 320.785 572.072 325.756 571.199 317.326 565.363 323.403 562.101 321.897 559.266 318.791 556.109 316.598 552.137 317.582 548.918 315.499 544.908 317.044 542.877 308.417 538.209 313.729 535.239 309.206 531.048 312.719 527.587 311.178 523.977 310.755 520.355 310.452 517.09 305.147 513.074 310.474 509.595 306.764 505.878 308.118 502.253 305.175 498.562 312.589 495.004 311.62 491.173 305.382 487.907 312.037 484.023 308.384 480.228 307.133 476.355 305.86 473.742 313.27 469.388 309.088 467.146 316.536 463.792 317.616 458.99 312.812 455.471 313.712 451.532 313.213 449.75 319.627 445.421 317.961 443.387 322.816 437.757 318.226 436.113 323.701 431.141 321.367 430.291 328.034 426.654 328.669 421.739 327.022 416.903 325.849 414.583 329.203 415.373 337.416 411.148 337.365 407.702 338.631 402.595 337.628 400.571 341.032 396.718 341.973 392.717 342.83 392.294 348.066 393.116 354.513 389.659 355.928 384.85 355.971 380.519 356.676 382.023 363.296 373.96 360.473 371.179 362.905 374.16 370.504 372.053 373.381 367.708 374.376 362.517 374.801 360.987 378.244 360.796 382.664 360.037 386.569 359.392 390.491 351.174 389.152 350.029 392.785 350.824 397.627 344.447 397.895 343.967 401.89 344.677 406.521 343.989 410.267 342.745 413.669 339.01 415.749 336.685 418.617 336.055 422.337 333.497 425.12 333.307 429.007 333.47 433.001 329.774 435.337 332.607 440.346 331.321 443.643 329.995 446.925 327.623 449.855 326.16 453.122 321.852 455.532 326.519 460.627 321.751 462.994 317.974 465.76 317.861 469.489 314.98 472.647 316.511 476.659 318.059 480.58 318.592 484.282 316.445 487.649 319.087 491.523 312.507 494.614 318.11 498.604 316.504 502.119 311.073 505.609 311.612 509.301 315.783 512.922 311.984 516.65 314.163 520.225 319.07 523.558 320.774 526.994 315.666 531.048 316.554 534.599 314.968 538.459 319.272 541.516 314.689 545.914 320.951 548.508 323.743 551.601 318.841 556.302 325.668 558.428 321.426 563.162 323.325 566.403 319.009 571.437 326.06 573.11 329.549 575.733 323.52 581.649 331.314 582.65 330.658 586.747 329.431 591.177 330.901 594.525 332.278 597.918 336.309 599.998 336.479 603.98 341.075 605.595 341.938 609.221 343.186 612.666 346.433 614.862 343.142 621.404 346.167 623.812 352.501 623.677 349.482 630.598 357.033 629.184 360.478 630.906 356.362 639.457 358.899 642.213 367.727 638.592 370.169 641.133 370.859 645.66 376.027 645.109 376.221 650.471 378.109 653.947 379.222 658.653 383.268 659.327 389.325 656.688 390.244 662.008 394.844 661.286 397.197 664.449 399.371 668.153 403.267 668.494 405.697 671.984 408.247 675.197 414.17 670.429 417.697 671.201 421.63 670.896 425.027 671.894 428.24 673.374 428.46 683.419 433.582 679.613 437.246 679.903 441.527 678.103 443.31 684.586 448.3 680.046 450.157 686.899 454.393 684.772 457.881 685.51 460.523 690.267 465.445 683.904 467.643 691.694 471.179 692.592 475.325 689.186 478.413 693.4 481.985 694.245 486.274 686.422 489.345 693.381 492.899 695.092 496.676 688.538 500.188 688.844 503.683 687.894 507.452 693.742 510.815 689.718 514.066 686.347 518.245 692.335 521.214 687.373 525.033 688.993 528.454 687.909 531.953 687.297 536.508 691.175 539.812 689.326 542.413 685.163 546.675 686.9 549.147 682.842 553.707 685.029 557.396 684.5 560.032 681.294 561.083 674.623 564.744 674.243 570.898 678.956 572.382 673.788 573.807 668.821 577.047 667.44 581.462 668.091 584.88 666.88 587.311 664.011 592.941 666.105 594.286 661.615 599.947 663.06 598.221 655.067 603.165 655.366 607.138 654.306 607.117 649.069 606.958 644.003 616.59 647.977 615.29 641.977 617.577 639.193 619.791 636.351 623.735 634.75 625.655 631.631 627.147 628.247 626.297 623.464 633.468 623.509 632.295 618.641 630.143 613.447 638.345 613.533 639.439 609.971 636.246 604.583 640.318 602.387 636.872 597.208 639.997 594.583 640.787 591.098 642.251 587.831 648.151 585.746 650.618 582.559 651.168 578.867 646.111 574.104 645.997 570.468 652.439 567.783 647.104 563.455 645.206 559.733 650.908 556.563 644.89 552.76 647.674 549.296 653.611 545.562 648.274 542.176 652.785 538.163 648.947 534.915 647.919 531.434 645.735 528.219 645.299 524.663 649.792 519.678 643.027 517.896 643.499 513.932 638.836 511.924 636.666 509.073 639.568 503.765 640.078 499.35 637.748 496.397 631.614 495.904 635.667 488.852 632.116 486.771 627.481 485.677 628.837 479.822 622.226 480.661 620.073 477.745 620.093 472.608 617.288 470.167 611.102 471.558 608.022 469.691 607.832 464.214 602.665 465.015 599.085 463.918 596.154 461.958 595.773 455.942 594.17 451.486 589.615 451.987 586.287 450.453 580.495 453.914 577.743 451.507 575.563 447.651 572.195 446.375 570.497 440.683 566.577 440.644 561.017 445.898 558.276 442.763 556.235 436.608 552.772 435.182 547.808 440.555 544.401 439.428 540.788 439.411 537.888 434.486 534.31 433.522 530.69 432.276 526.771 437.55 523.213 432.541 519.666 436.206 516.163 437.137 512.628 437.435 509.509 440.102 505.552 438.26 502.148 439.323 498.523 439.665 494.241 438.438 490.284 438.576 490.094 446.936 483.265 441.36 480.502 444.115 477.232 445.928 476.608 451.526 472.284 451.74 466.695 450.76 464.9 454.478 462.399 457.3 463.723 463.669 456.079 461.742 455.695 466.304 456.103 471.192 453.888 474.01 449.205 475.343 450.632 480.386 443.961 481.021 445.492 485.867 441.637 488.268 446.631 493.952 440.4 495.754 444.769 500.583 444.732 504.052 438.268 506.705 442.61 510.474 436.496 513.958 441.808 517.139 443.737 520.231 437.365 525.044 439.881 528.182 442.15 531.207 443.202 534.624 448.759 535.677 445.148 541.864 452.616 540.784 450.302 547.257 457.236 544.933 456.962 550.594 460.64 551.198 464.812 549.879 468.289 550.645 471.36 552.554 473.36 558.083 477.4 557.303 480.855 558.439 484.571 558.446 487.02 565.021 491.043 563.843 494.905 563.029 498.64 562.699 502.398 558.201 506.11 565.926 510.058 566.43 513.675 564.096 515.698 556.667 520.19 559.499 522.741 556.558 524.474 553.085 532.455 557.328 531.367 550.92 537.304 550.519" style="fill: none; stroke: #000; stroke-linecap: round; stroke-linejoin: round; stroke-width: 40px;"/>
</svg>