<?xml version="1.0" encoding="UTF-8"?>
<svg id="Sticker" xmlns="http://www.w3.org/2000/svg" width="1000" height="1000" viewBox="0 0 1000 1000">
  <g>
    <polygon points="548.545 206.973 551.382 199.303 555.611 198.399 555.193 192.285 561.059 193.607 560.873 187.08 564.118 184.987 569.967 187.32 574.31 187.765 576.533 184.202 580.981 185.558 581.987 177.803 585.866 177.424 590.687 181.736 594.029 180.588 596.988 174.335 601.031 180.826 604.488 180.588 608.488 175.631 611.416 181.093 614.471 183.255 618.789 180.41 622.986 179.325 627.158 179.121 629.265 183.391 630.283 188.602 634.506 188.546 638.032 189.898 641.824 191.306 645.226 193.403 640.871 201.005 647.462 200.971 652.985 202.447 648.436 208.393 655.7 209.998 655.725 214.538 648.415 218.611 648.214 222.288 653.12 225.743 648.887 229.596 654.669 233.013 651.867 236.805 650.223 240.545 650.112 244.215 654.695 247.684 651.469 251.491 649.185 255.262 657.762 258.555 657.195 262.25 655.724 265.986 658.397 269.54 651.285 273.523 650.78 277.215 649.797 280.929 656.826 284.294 655.104 288.047 652.636 292.82 659.817 293.557 661.67 289.101 664.004 285.552 666.52 282.263 672.533 288.224 675.188 285.401 678.614 284.733 679.987 277.141 683.929 277.759 688.64 282.488 692.112 283.086 695.265 282.946 698.83 276.139 703.8 275.545 705.882 279.747 708.338 282.805 713.616 280.718 713.683 287.557 718.817 286.268 719.143 291.804 725.991 289.143 728.774 291.711 729.933 295.807 729.033 301.302 733.209 302.516 732.913 306.94 736.998 308.594 737.564 312.287 742.112 314.228 744.247 317.402 737.02 323.356 741.5 325.691 739.853 329.548 739.464 333.03 748.885 335.394 746.981 339.234 746.146 342.905 749.855 346.24 741.473 350.478 741.546 354.075 742.427 357.617 749.083 360.783 746.477 364.566 746.931 368.149 744.514 371.897 743.713 375.542 749.947 378.804 750.637 382.379 742.688 386.381 746.267 389.806 743.811 393.516 751.118 396.802 747.778 400.546 752.157 403.984 753.235 407.559 746.707 411.389 744.536 415.054 746.069 418.605 753.592 422.006 745.567 425.811 747.744 429.36 747.057 432.974 744.631 436.613 748.244 440.154 751.551 443.715 746.457 447.373 744.938 450.981 749.369 454.553 747.206 458.162 747.542 461.761 754.354 465.377 750.076 468.968 749.592 472.567 751.092 476.183 747.171 479.74 747.73 483.344 747.829 486.945 745.899 490.504 753.973 494.286 744.475 497.658 750.279 501.416 748.276 504.962 744.889 508.451 751.21 512.28 749.253 515.817 749.627 519.443 752.061 523.167 748.542 526.617 745.738 530.084 746.161 533.712 744.244 537.208 751.238 541.237 749.439 544.748 749.757 548.391 751.107 552.112 747.849 555.503 744.547 558.87 744.183 562.455 740.494 565.758 741.902 569.485 746.285 573.497 745.439 577.045 745.705 580.7 746.313 584.395 739.009 587.254 740.766 591.06 746.703 595.363 737.86 597.963 740.468 601.9 744.7 606.07 741.906 609.357 742.335 613.062 743.469 616.875 737.241 619.633 734.099 622.801 738.632 627.133 739.453 630.921 741.593 634.942 737.922 638.002 731.25 640.502 734.442 644.723 737.965 649.048 732.686 651.727 729.331 654.734 733.071 659.159 729.605 662.121 726.178 665.056 733.439 670.346 730.896 673.485 727.193 676.325 724.636 679.405 726.767 683.639 729.698 688.127 720.774 689.505 725.698 694.568 720.529 696.864 717.454 699.7 720.83 704.442 717.278 707.113 723.141 712.751 715.009 713.906 711.954 716.647 717.939 722.521 714.401 725.103 715.948 729.534 716.049 733.474 708.571 734.432 705.808 737.171 708.954 742.383 706.263 745.159 701.643 747.022 706.431 753.208 703.354 755.773 697.706 756.993 702.582 763.562 699.341 765.988 698.778 769.86 692.91 770.695 688.419 772.184 690.942 777.958 685.042 778.442 685.403 782.984 680.803 784.134 683.259 790.356 679.963 792.425 678.954 796.27 673.205 795.869 672.535 800.712 669.156 802.206 665.473 803.121 661.046 802.59 660.75 809.576 654.861 806.032 652.063 808.41 648.706 809.651 645.535 811.305 643.208 815.056 641.075 819.541 636.846 818.7 631.912 815.67 630.539 822.718 626.943 823.472 621.4 817.931 618.465 820.547 615.177 822.075 612.039 824.209 609.043 826.997 605.568 828.037 601.726 827.541 599.272 833.006 593.931 825.668 590.335 825.94 587.852 831.773 583.853 830.11 581.162 835.472 577.622 836.372 574.125 837.562 570.129 835.579 566.417 835.254 563.164 838.163 558.521 830.621 556.023 839.719 551.632 833.323 548.007 833.17 544.604 835.218 541.045 835.821 537.834 840.719 533.656 833.587 530.204 835.61 527.036 842.909 522.98 835.067 519.349 834.13 515.83 835.794 512.265 836.701 508.811 843.391 505.131 840.909 501.5 840.063 497.876 842.173 494.286 837.539 490.748 834.088 487.055 838.669 483.475 837.724 479.81 839.086 476.369 835.581 472.563 839.138 469.26 834.402 465.461 837.084 461.728 838.406 458.074 838.573 454.334 839.452 451.04 836.238 447.017 839.289 443.621 837.195 439.775 838.398 436.085 838.365 433.602 831.125 430.422 828.595 425.684 834.375 421.812 835.165 419.993 826.411 416.357 826.382 412.035 829.035 409.439 824.74 404.594 828.874 402.285 823.887 398.516 823.987 393.142 828.765 390.453 825.296 386.536 825.335 385.867 817.09 381.512 818.328 376.137 821.521 374.203 816.997 372.832 811.729 367.3 814.5 366.257 809.056 360.339 811.828 360.442 805.083 356.903 803.985 355.282 800.333 347.597 803.95 345.541 800.618 344.486 796.435 340.555 795.037 338.007 792.657 336.03 789.798 337.575 782.918 330.301 785.176 331.566 778.967 326.187 779.014 324.919 775.322 323.373 771.941 322.375 768.188 322.159 763.936 319.741 761.359 313.74 761.183 309.291 759.773 312.845 753.233 311.36 749.99 310.386 746.464 305.663 745.057 303.307 742.256 303.42 738.151 295.722 738.009 302.484 730.686 295.465 730.055 294.227 726.648 292.952 723.265 288.272 721.32 290.914 716.304 291.57 712.177 288.619 709.477 287.095 706.209 285.925 702.806 286.599 698.764 279.185 697.488 279.335 693.613 282 688.968 284.249 684.522 280.414 681.95 277.294 679.12 275.697 675.825 272.414 672.98 272.424 669.226 278.81 663.85 270.551 662.234 268.009 659.127 275.317 653.68 269.395 651.365 274.372 646.566 270.504 643.744 267.262 640.751 266.484 637.227 267.238 633.402 263.11 630.526 265.689 626.368 263.767 623.055 268.478 618.571 266.235 615.32 260.336 612.65 259.699 609.091 264.229 604.735 263.341 601.237 264.199 597.482 258.605 594.644 260.431 590.754 256.205 587.678 255.668 584.102 263.036 579.556 261.465 576.134 260.763 572.603 261.658 568.888 261.936 565.249 253.43 562.518 254.388 558.788 253.732 555.221 254.195 551.549 258.048 547.584 250.816 544.589 257.091 540.446 252.766 537.175 249.299 533.814 256.767 529.65 253.94 526.239 248.829 522.962 257.009 518.828 256.115 515.283 252.432 511.891 250.314 508.395 250.095 504.793 254.102 500.991 250.989 497.531 255.041 493.755 253.872 490.207 249.1 486.786 250.766 483.124 252.766 479.46 253.521 475.841 253.768 472.239 254.955 468.616 245.996 465.216 248.907 461.548 252.951 457.875 248.289 454.346 254.246 450.669 252.074 447.1 250.416 443.52 255.192 439.895 251.374 436.322 253.198 432.722 251.705 429.131 250.029 425.53 250.71 421.935 245.972 418.321 255.232 414.764 247.872 411.135 247.656 407.538 248.356 403.954 248.79 400.376 249.204 396.802 254.488 393.32 249.768 389.655 254.064 386.255 247.57 382.367 247.559 378.741 250.838 375.394 255.697 372.334 252.186 368.358 249.873 364.367 255.252 361.694 256.98 358.515 255.287 354.463 260.507 352.502 261.742 349.477 260.613 345.296 258.078 339.678 266.022 340.992 266.827 337.439 266.601 331.877 269.842 329.925 273.054 327.98 278.431 331.779 281.68 331.27 284.512 328.809 287.912 328.364 290.576 321.515 294.86 329.762 298.383 320.817 302.032 323.849 304.883 329.378 307.961 331.015 311.531 330.689 315.012 331.111 320.298 327.891 320.884 334.757 326.199 332.665 330.246 333.329 332.871 336.104 333.269 341.242 337.977 341.568 342.93 342.159 345.676 344.949 342.949 351.591 349.783 351.576 349.751 356.002 351.346 359.4 352.072 363.151 351.405 367.301 353.334 370.48 354.291 373.992 353.548 377.825 357.812 380.785 359.275 384.277 357.741 388.144 352.001 392.417 354.879 395.712 358.218 399.01 358.194 402.639 354.246 406.584 357.45 409.942 363.301 413.136 358.766 417.085 355.565 420.913 364.185 423.987 363.946 427.634 364.715 431.221 356.767 435.283 364.974 438.466 362.318 442.229 360.974 445.921 360.679 449.554 357.121 453.331 358.096 456.902 361.181 460.39 366.478 463.801 362.18 467.592 361.873 471.224 362.707 474.814 364.782 478.363 360.11 482.135 362.67 485.667 366.509 489.169 361.349 492.94 362.141 496.529 359.786 500.206 366.02 503.659 362.216 507.365 359.165 511.044 361.722 514.578 362.056 510.964 358.111 507.395 359.168 503.773 365.102 500.1 364.163 496.497 365.601 492.87 360.821 489.309 361.198 485.695 366.125 482.033 367.176 478.412 364.398 474.83 361.948 471.244 363.497 467.615 367.426 463.962 359.041 460.437 362.753 456.788 357.688 453.23 365.199 449.541 361.67 445.966 357.68 442.394 357.747 438.781 360.845 435.137 358.362 431.552 358.067 427.944 364.7 424.263 362.359 420.675 364.38 417.041 364.247 413.43 364.386 409.817 357.603 406.281 366.302 402.584 365.053 398.991 359.729 395.439 364.775 391.777 364.665 388.168 364.809 384.552 358.372 381.008 358.344 377.398 360.587 373.766 362.496 370.137 356.635 366.589 362.603 362.917 364.775 359.281 362.758 355.688 365.702 352.046 360.066 348.495 362.393 344.86 363.463 341.238 361.003 337.649 356.863 334.079 362.187 330.412 359.491 326.828 360.714 323.203 362.336 319.57 363.34 315.947 357.441 312.396 364.317 308.71 365.031 305.088 358.473 301.543 360.938 297.903 357.149 294.328 362.248 290.661 356.235 287.108 361.242 283.441 361.895 279.819 365.372 276.168 361.92 272.588 362.831 268.963 362.945 265.347 358.135 261.786 359.559 258.156 358.65 254.552 364.565 250.874 360.028 247.306 363.894 243.65 364.727 240.023 358.803 236.467 362.029 232.816 355.715 229.264 358.818 225.615 364.097 221.941 356.85 218.393 358.955 214.744 363.028 211.507 361.219 207.828 362.285 204.497 365.221 201.735 366.634 198.719 366.911 195.279 366.259 191.186 366.981 187.504 371.109 186.139 368.62 179.206 372.592 177.684 378.476 179.399 381.841 178.635 385.459 178.937 386.767 173.024 390.254 172.434 394.181 175.215 397.219 171.742 400.715 166.193 404.092 174.121 407.714 171.661 411.893 167.573 414.884 171.595 416.806 177.918 421.833 173.355 425.319 174.356 427.039 178.848 430.049 180.407 431.063 184.718 436.889 182.843 437.78 186.949 444.45 185.732 441.587 192.492 442.8 195.646 446.626 197.348 444.259 202.067 449.958 207.953 446.846 198.718 450.796 196.265 451.688 192.728 456.657 191.259 458.357 188.286 457.025 183.279 462.202 182.638 461.16 177.27 462.225 173.2 467.671 173.551 468.329 168.676 473.654 169.806 475.623 166.256 477.389 161.586 481.941 162.582 486.29 164.199 490.535 167.126 492.801 161.39 496.011 158.028 500.005 164.746 503.305 165.178 506.808 163.82 510.111 165.241 514.439 160.925 518.273 161.04 521.856 162.275 523.097 168.548 527.539 167.534 531.856 167.648 533.434 171.638 538.667 171.535 538.368 176.854 542.199 178.557 542.447 182.757 541.392 187.285 541.893 190.732 543.478 193.717 550.857 195.229 552.588 198.753 548.545 206.973" style="fill: #fff;"/>
    <polygon points="548.545 206.973 551.382 199.303 555.611 198.399 555.193 192.285 561.059 193.607 560.873 187.08 564.118 184.987 569.967 187.32 574.31 187.765 576.533 184.202 580.981 185.558 581.987 177.803 585.866 177.424 590.687 181.736 594.029 180.588 596.988 174.335 601.031 180.826 604.488 180.588 608.488 175.631 611.416 181.093 614.471 183.255 618.789 180.41 622.986 179.325 627.158 179.121 629.265 183.391 630.283 188.602 634.506 188.546 638.032 189.898 641.824 191.306 645.226 193.403 640.871 201.005 647.462 200.971 652.985 202.447 648.436 208.393 655.7 209.998 655.725 214.538 648.415 218.611 648.214 222.288 653.12 225.743 648.887 229.596 654.669 233.013 651.867 236.805 650.223 240.545 650.112 244.215 654.695 247.684 651.469 251.491 649.185 255.262 657.762 258.555 657.195 262.25 655.724 265.986 658.397 269.54 651.285 273.523 650.78 277.215 649.797 280.929 656.826 284.294 655.104 288.047 652.636 292.82 659.817 293.557 661.67 289.101 664.004 285.552 666.52 282.263 672.533 288.224 675.188 285.401 678.614 284.733 679.987 277.141 683.929 277.759 688.64 282.488 692.112 283.086 695.265 282.946 698.83 276.139 703.8 275.545 705.882 279.747 708.338 282.805 713.616 280.718 713.683 287.557 718.817 286.268 719.143 291.804 725.991 289.143 728.774 291.711 729.933 295.807 729.033 301.302 733.209 302.516 732.913 306.94 736.998 308.594 737.564 312.287 742.112 314.228 744.247 317.402 737.02 323.356 741.5 325.691 739.853 329.548 739.464 333.03 748.885 335.394 746.981 339.234 746.146 342.905 749.855 346.24 741.473 350.478 741.546 354.075 742.427 357.617 749.083 360.783 746.477 364.566 746.931 368.149 744.514 371.897 743.713 375.542 749.947 378.804 750.637 382.379 742.688 386.381 746.267 389.806 743.811 393.516 751.118 396.802 747.778 400.546 752.157 403.984 753.235 407.559 746.707 411.389 744.536 415.054 746.069 418.605 753.592 422.006 745.567 425.811 747.744 429.36 747.057 432.974 744.631 436.613 748.244 440.154 751.551 443.715 746.457 447.373 744.938 450.981 749.369 454.553 747.206 458.162 747.542 461.761 754.354 465.377 750.076 468.968 749.592 472.567 751.092 476.183 747.171 479.74 747.73 483.344 747.829 486.945 745.899 490.504 753.973 494.286 744.475 497.658 750.279 501.416 748.276 504.962 744.889 508.451 751.21 512.28 749.253 515.817 749.627 519.443 752.061 523.167 748.542 526.617 745.738 530.084 746.161 533.712 744.244 537.208 751.238 541.237 749.439 544.748 749.757 548.391 751.107 552.112 747.849 555.503 744.547 558.87 744.183 562.455 740.494 565.758 741.902 569.485 746.285 573.497 745.439 577.045 745.705 580.7 746.313 584.395 739.009 587.254 740.766 591.06 746.703 595.363 737.86 597.963 740.468 601.9 744.7 606.07 741.906 609.357 742.335 613.062 743.469 616.875 737.241 619.633 734.099 622.801 738.632 627.133 739.453 630.921 741.593 634.942 737.922 638.002 731.25 640.502 734.442 644.723 737.965 649.048 732.686 651.727 729.331 654.734 733.071 659.159 729.605 662.121 726.178 665.056 733.439 670.346 730.896 673.485 727.193 676.325 724.636 679.405 726.767 683.639 729.698 688.127 720.774 689.505 725.698 694.568 720.529 696.864 717.454 699.7 720.83 704.442 717.278 707.113 723.141 712.751 715.009 713.906 711.954 716.647 717.939 722.521 714.401 725.103 715.948 729.534 716.049 733.474 708.571 734.432 705.808 737.171 708.954 742.383 706.263 745.159 701.643 747.022 706.431 753.208 703.354 755.773 697.706 756.993 702.582 763.562 699.341 765.988 698.778 769.86 692.91 770.695 688.419 772.184 690.942 777.958 685.042 778.442 685.403 782.984 680.803 784.134 683.259 790.356 679.963 792.425 678.954 796.27 673.205 795.869 672.535 800.712 669.156 802.206 665.473 803.121 661.046 802.59 660.75 809.576 654.861 806.032 652.063 808.41 648.706 809.651 645.535 811.305 643.208 815.056 641.075 819.541 636.846 818.7 631.912 815.67 630.539 822.718 626.943 823.472 621.4 817.931 618.465 820.547 615.177 822.075 612.039 824.209 609.043 826.997 605.568 828.037 601.726 827.541 599.272 833.006 593.931 825.668 590.335 825.94 587.852 831.773 583.853 830.11 581.162 835.472 577.622 836.372 574.125 837.562 570.129 835.579 566.417 835.254 563.164 838.163 558.521 830.621 556.023 839.719 551.632 833.323 548.007 833.17 544.604 835.218 541.045 835.821 537.834 840.719 533.656 833.587 530.204 835.61 527.036 842.909 522.98 835.067 519.349 834.13 515.83 835.794 512.265 836.701 508.811 843.391 505.131 840.909 501.5 840.063 497.876 842.173 494.286 837.539 490.748 834.088 487.055 838.669 483.475 837.724 479.81 839.086 476.369 835.581 472.563 839.138 469.26 834.402 465.461 837.084 461.728 838.406 458.074 838.573 454.334 839.452 451.04 836.238 447.017 839.289 443.621 837.195 439.775 838.398 436.085 838.365 433.602 831.125 430.422 828.595 425.684 834.375 421.812 835.165 419.993 826.411 416.357 826.382 412.035 829.035 409.439 824.74 404.594 828.874 402.285 823.887 398.516 823.987 393.142 828.765 390.453 825.296 386.536 825.335 385.867 817.09 381.512 818.328 376.137 821.521 374.203 816.997 372.832 811.729 367.3 814.5 366.257 809.056 360.339 811.828 360.442 805.083 356.903 803.985 355.282 800.333 347.597 803.95 345.541 800.618 344.486 796.435 340.555 795.037 338.007 792.657 336.03 789.798 337.575 782.918 330.301 785.176 331.566 778.967 326.187 779.014 324.919 775.322 323.373 771.941 322.375 768.188 322.159 763.936 319.741 761.359 313.74 761.183 309.291 759.773 312.845 753.233 311.36 749.99 310.386 746.464 305.663 745.057 303.307 742.256 303.42 738.151 295.722 738.009 302.484 730.686 295.465 730.055 294.227 726.648 292.952 723.265 288.272 721.32 290.914 716.304 291.57 712.177 288.619 709.477 287.095 706.209 285.925 702.806 286.599 698.764 279.185 697.488 279.335 693.613 282 688.968 284.249 684.522 280.414 681.95 277.294 679.12 275.697 675.825 272.414 672.98 272.424 669.226 278.81 663.85 270.551 662.234 268.009 659.127 275.317 653.68 269.395 651.365 274.372 646.566 270.504 643.744 267.262 640.751 266.484 637.227 267.238 633.402 263.11 630.526 265.689 626.368 263.767 623.055 268.478 618.571 266.235 615.32 260.336 612.65 259.699 609.091 264.229 604.735 263.341 601.237 264.199 597.482 258.605 594.644 260.431 590.754 256.205 587.678 255.668 584.102 263.036 579.556 261.465 576.134 260.763 572.603 261.658 568.888 261.936 565.249 253.43 562.518 254.388 558.788 253.732 555.221 254.195 551.549 258.048 547.584 250.816 544.589 257.091 540.446 252.766 537.175 249.299 533.814 256.767 529.65 253.94 526.239 248.829 522.962 257.009 518.828 256.115 515.283 252.432 511.891 250.314 508.395 250.095 504.793 254.102 500.991 250.989 497.531 255.041 493.755 253.872 490.207 249.1 486.786 250.766 483.124 252.766 479.46 253.521 475.841 253.768 472.239 254.955 468.616 245.996 465.216 248.907 461.548 252.951 457.875 248.289 454.346 254.246 450.669 252.074 447.1 250.416 443.52 255.192 439.895 251.374 436.322 253.198 432.722 251.705 429.131 250.029 425.53 250.71 421.935 245.972 418.321 255.232 414.764 247.872 411.135 247.656 407.538 248.356 403.954 248.79 400.376 249.204 396.802 254.488 393.32 249.768 389.655 254.064 386.255 247.57 382.367 247.559 378.741 250.838 375.394 255.697 372.334 252.186 368.358 249.873 364.367 255.252 361.694 256.98 358.515 255.287 354.463 260.507 352.502 261.742 349.477 260.613 345.296 258.078 339.678 266.022 340.992 266.827 337.439 266.601 331.877 269.842 329.925 273.054 327.98 278.431 331.779 281.68 331.27 284.512 328.809 287.912 328.364 290.576 321.515 294.86 329.762 298.383 320.817 302.032 323.849 304.883 329.378 307.961 331.015 311.531 330.689 315.012 331.111 320.298 327.891 320.884 334.757 326.199 332.665 330.246 333.329 332.871 336.104 333.269 341.242 337.977 341.568 342.93 342.159 345.676 344.949 342.949 351.591 349.783 351.576 349.751 356.002 351.346 359.4 352.072 363.151 351.405 367.301 353.334 370.48 354.291 373.992 353.548 377.825 357.812 380.785 359.275 384.277 357.741 388.144 352.001 392.417 354.879 395.712 358.218 399.01 358.194 402.639 354.246 406.584 357.45 409.942 363.301 413.136 358.766 417.085 355.565 420.913 364.185 423.987 363.946 427.634 364.715 431.221 356.767 435.283 364.974 438.466 362.318 442.229 360.974 445.921 360.679 449.554 357.121 453.331 358.096 456.902 361.181 460.39 366.478 463.801 362.18 467.592 361.873 471.224 362.707 474.814 364.782 478.363 360.11 482.135 362.67 485.667 366.509 489.169 361.349 492.94 362.141 496.529 359.786 500.206 366.02 503.659 362.216 507.365 359.165 511.044 361.722 514.578 362.056 510.964 358.111 507.395 359.168 503.773 365.102 500.1 364.163 496.497 365.601 492.87 360.821 489.309 361.198 485.695 366.125 482.033 367.176 478.412 364.398 474.83 361.948 471.244 363.497 467.615 367.426 463.962 359.041 460.437 362.753 456.788 357.688 453.23 365.199 449.541 361.67 445.966 357.68 442.394 357.747 438.781 360.845 435.137 358.362 431.552 358.067 427.944 364.7 424.263 362.359 420.675 364.38 417.041 364.247 413.43 364.386 409.817 357.603 406.281 366.302 402.584 365.053 398.991 359.729 395.439 364.775 391.777 364.665 388.168 364.809 384.552 358.372 381.008 358.344 377.398 360.587 373.766 362.496 370.137 356.635 366.589 362.603 362.917 364.775 359.281 362.758 355.688 365.702 352.046 360.066 348.495 362.393 344.86 363.463 341.238 361.003 337.649 356.863 334.079 362.187 330.412 359.491 326.828 360.714 323.203 362.336 319.57 363.34 315.947 357.441 312.396 364.317 308.71 365.031 305.088 358.473 301.543 360.938 297.903 357.149 294.328 362.248 290.661 356.235 287.108 361.242 283.441 361.895 279.819 365.372 276.168 361.92 272.588 362.831 268.963 362.945 265.347 358.135 261.786 359.559 258.156 358.65 254.552 364.565 250.874 360.028 247.306 363.894 243.65 364.727 240.023 358.803 236.467 362.029 232.816 355.715 229.264 358.818 225.615 364.097 221.941 356.85 218.393 358.955 214.744 363.028 211.507 361.219 207.828 362.285 204.497 365.221 201.735 366.634 198.719 366.911 195.279 366.259 191.186 366.981 187.504 371.109 186.139 368.62 179.206 372.592 177.684 378.476 179.399 381.841 178.635 385.459 178.937 386.767 173.024 390.254 172.434 394.181 175.215 397.219 171.742 400.715 166.193 404.092 174.121 407.714 171.661 411.893 167.573 414.884 171.595 416.806 177.918 421.833 173.355 425.319 174.356 427.039 178.848 430.049 180.407 431.063 184.718 436.889 182.843 437.78 186.949 444.45 185.732 441.587 192.492 442.8 195.646 446.626 197.348 444.259 202.067 449.958 207.953 446.846 198.718 450.796 196.265 451.688 192.728 456.657 191.259 458.357 188.286 457.025 183.279 462.202 182.638 461.16 177.27 462.225 173.2 467.671 173.551 468.329 168.676 473.654 169.806 475.623 166.256 477.389 161.586 481.941 162.582 486.29 164.199 490.535 167.126 492.801 161.39 496.011 158.028 500.005 164.746 503.305 165.178 506.808 163.82 510.111 165.241 514.439 160.925 518.273 161.04 521.856 162.275 523.097 168.548 527.539 167.534 531.856 167.648 533.434 171.638 538.667 171.535 538.368 176.854 542.199 178.557 542.447 182.757 541.392 187.285 541.893 190.732 543.478 193.717 550.857 195.229 552.588 198.753 548.545 206.973" style="fill: none; stroke: #000; stroke-linecap: round; stroke-linejoin: round; stroke-width: 40px;"/>
  </g>
  <g>
    <polyline points="462.674 424.969 455.444 421.527 461.564 417.775 462.764 414.135 460.011 410.588 453.436 407.131 459.572 403.378 462.073 399.71 453.825 396.291 460.195 392.532 457.55 388.982 452.824 385.482 459.49 381.717 455.615 378.201 457.853 374.544 458.001 370.936 459.903 367.285 454.159 363.811 454.611 360.191 456.03 356.546 459.179 352.862 454.849 349.354 455.121 345.741 453.48 342.172 456.042 338.504 455.056 334.918 456.388 331.275 457.674 327.633 456.547 324.05 454.041 320.499 453.973 316.892 452.65 313.312 450.867 309.741 457.175 305.982 455.364 302.414 456.871 298.769 453.787 295.229 456.785 291.545 455.045 287.974 456.189 284.337 453.644 280.783 450.554 277.241 453.445 273.562 450.424 270.02 459.342 266.199 453.417 262.724 456.969 259.027 457.054 255.412 450.188 251.958 453.9 248.258 451.292 244.704 450.438 241.114 458.18 237.32 450.818 233.881 455.087 230.168 449.975 226.674 457.497 222.884 451.283 219.415 456.412 215.681 455.697 212.081 450.812 208.577 455.968 204.841 448.906 201.389 454.689 197.638 457.162 193.964 452.55 190.448 449.994 186.884" style="fill: #fff;"/>
    <polyline points="462.674 424.969 455.444 421.527 461.564 417.775 462.764 414.135 460.011 410.588 453.436 407.131 459.572 403.378 462.073 399.71 453.825 396.291 460.195 392.532 457.55 388.982 452.824 385.482 459.49 381.717 455.615 378.201 457.853 374.544 458.001 370.936 459.903 367.285 454.159 363.811 454.611 360.191 456.03 356.546 459.179 352.862 454.849 349.354 455.121 345.741 453.48 342.172 456.042 338.504 455.056 334.918 456.388 331.275 457.674 327.633 456.547 324.05 454.041 320.499 453.973 316.892 452.65 313.312 450.867 309.741 457.175 305.982 455.364 302.414 456.871 298.769 453.787 295.229 456.785 291.545 455.045 287.974 456.189 284.337 453.644 280.783 450.554 277.241 453.445 273.562 450.424 270.02 459.342 266.199 453.417 262.724 456.969 259.027 457.054 255.412 450.188 251.958 453.9 248.258 451.292 244.704 450.438 241.114 458.18 237.32 450.818 233.881 455.087 230.168 449.975 226.674 457.497 222.884 451.283 219.415 456.412 215.681 455.697 212.081 450.812 208.577 455.968 204.841 448.906 201.389 454.689 197.638 457.162 193.964 452.55 190.448 449.994 186.884" style="fill: none; stroke: #000; stroke-linecap: round; stroke-linejoin: round; stroke-width: 40px;"/>
  </g>
  <g>
    <polyline points="557.354 408.752 560.615 405.013 552.587 401.706 558.741 397.858 558.005 394.277 561.435 390.538 559.982 386.985 557.985 383.452 559.7 379.776 559.266 376.18 557.567 372.629 558.515 368.979 556.377 365.449 555.748 361.863 557.196 358.197 552.976 354.747 551.723 351.182 558.107 347.324 556.451 343.772 553.698 340.264 556.015 336.563 555.839 332.958 554.175 329.408 552.826 325.843 550.317 322.324 555.703 318.505 555.059 314.916 558.074 311.187 550.116 307.873 553.531 304.128 552.968 300.535 550.167 297.026 555.735 293.197 556.215 289.564 557.665 285.893 552.753 282.463 551.602 278.891 552.391 275.244 554.681 271.54 550.925 268.066 551.555 264.425 555.152 260.67 552.912 257.143 549.068 253.672 552.479 249.929 555.358 246.202 549.766 242.8 554.141 239.014 553.347 235.428 548.856 231.981 548.43 228.377 555.265 224.496 551.906 221.004 546.117 217.606 547.019 213.952 545.528 210.389 546.188 206.737 547.733 203.052" style="fill: #fff;"/>
    <polyline points="557.354 408.752 560.615 405.013 552.587 401.706 558.741 397.858 558.005 394.277 561.435 390.538 559.982 386.985 557.985 383.452 559.7 379.776 559.266 376.18 557.567 372.629 558.515 368.979 556.377 365.449 555.748 361.863 557.196 358.197 552.976 354.747 551.723 351.182 558.107 347.324 556.451 343.772 553.698 340.264 556.015 336.563 555.839 332.958 554.175 329.408 552.826 325.843 550.317 322.324 555.703 318.505 555.059 314.916 558.074 311.187 550.116 307.873 553.531 304.128 552.968 300.535 550.167 297.026 555.735 293.197 556.215 289.564 557.665 285.893 552.753 282.463 551.602 278.891 552.391 275.244 554.681 271.54 550.925 268.066 551.555 264.425 555.152 260.67 552.912 257.143 549.068 253.672 552.479 249.929 555.358 246.202 549.766 242.8 554.141 239.014 553.347 235.428 548.856 231.981 548.43 228.377 555.265 224.496 551.906 221.004 546.117 217.606 547.019 213.952 545.528 210.389 546.188 206.737 547.733 203.052" style="fill: none; stroke: #000; stroke-linecap: round; stroke-linejoin: round; stroke-width: 40px;"/>
  </g>
  <g>
    <polyline points="650.5 481.491 656.76 478.013 650.149 474.336 651.793 470.786 650.315 467.185 655.858 463.692 652.062 460.051 652.507 456.478 648.653 452.84 655.218 449.364 650.947 445.721 648.055 442.099 651.825 438.579 650.791 434.981 655.532 431.473 656.368 427.906 648.738 424.209 648.585 420.628 656.512 417.171 654.073 413.551 657.013 410.015 648.634 406.305 652.24 402.781 657.556 399.282 657.545 395.698 656.523 392.101 658.302 388.548 657.687 384.956 657.153 381.365 658.413 377.803 658.18 374.217 651.626 370.531 654.03 366.987 650.499 363.348 657.155 359.868 650.165 356.177 655.67 352.679 658.829 349.143 656.681 345.53 654.027 341.905 653.963 338.325 650.456 334.687 651.378 331.119 657.574 327.63 657.154 324.04 651.805 320.372 655.864 316.849 653.35 313.224 653.329 309.637 655.249 306.081 653.585 302.469 655.899 298.918 655.145 295.314 659.794 291.794" style="fill: #fff;"/>
    <polyline points="650.5 481.491 656.76 478.013 650.149 474.336 651.793 470.786 650.315 467.185 655.858 463.692 652.062 460.051 652.507 456.478 648.653 452.84 655.218 449.364 650.947 445.721 648.055 442.099 651.825 438.579 650.791 434.981 655.532 431.473 656.368 427.906 648.738 424.209 648.585 420.628 656.512 417.171 654.073 413.551 657.013 410.015 648.634 406.305 652.24 402.781 657.556 399.282 657.545 395.698 656.523 392.101 658.302 388.548 657.687 384.956 657.153 381.365 658.413 377.803 658.18 374.217 651.626 370.531 654.03 366.987 650.499 363.348 657.155 359.868 650.165 356.177 655.67 352.679 658.829 349.143 656.681 345.53 654.027 341.905 653.963 338.325 650.456 334.687 651.378 331.119 657.574 327.63 657.154 324.04 651.805 320.372 655.864 316.849 653.35 313.224 653.329 309.637 655.249 306.081 653.585 302.469 655.899 298.918 655.145 295.314 659.794 291.794" style="fill: none; stroke: #000; stroke-linecap: round; stroke-linejoin: round; stroke-width: 40px;"/>
  </g>
  <g>
    <polyline points="456.86 544.811 461.437 542.734 463.897 545.701 466.605 548.023 473.203 544.426 476.35 546.478 476.764 552.059 480.387 553.336 479.633 559.635 485.964 558.039 488.17 560.983 486.056 567.821 494.572 565.06 494.488 569.856 495.227 573.789 496.62 577.128 502.202 577.679 499.689 583.476 508.17 582.669 506.424 587.798 512.052 589.043 508.507 594.757 511.21 597.482 511.842 601.101 511.178 605.145 515.39 607.476 513.719 611.753 516.046 614.788 516.712 618.305 517.042 621.891 518.011 625.332 517.144 629.104 517.992 632.556 522.144 635.593" style="fill: #fff;"/>
    <polyline points="456.86 544.811 461.437 542.734 463.897 545.701 466.605 548.023 473.203 544.426 476.35 546.478 476.764 552.059 480.387 553.336 479.633 559.635 485.964 558.039 488.17 560.983 486.056 567.821 494.572 565.06 494.488 569.856 495.227 573.789 496.62 577.128 502.202 577.679 499.689 583.476 508.17 582.669 506.424 587.798 512.052 589.043 508.507 594.757 511.21 597.482 511.842 601.101 511.178 605.145 515.39 607.476 513.719 611.753 516.046 614.788 516.712 618.305 517.042 621.891 518.011 625.332 517.144 629.104 517.992 632.556 522.144 635.593" style="fill: none; stroke: #000; stroke-linecap: round; stroke-linejoin: round; stroke-width: 40px;"/>
  </g>
</svg>