<?xml version="1.0" encoding="UTF-8"?>
<svg id="Sticker" xmlns="http://www.w3.org/2000/svg" width="1000" height="1000" viewBox="0 0 1000 1000">
  <polyline points="177.576 807.076 171.989 803.08 177.325 799.885 173.693 795.912 177.17 792.638 179.214 789.252 177.548 785.424 175.484 781.51 184.211 779.072 176.191 774.291 183.809 771.793 183.868 768.179 179.142 763.764 184.413 761.004 186.7 757.768 187.253 754.233 185.766 750.307 188.385 747.16 190.2 743.873 188.609 739.891 188.046 736.101 185.911 731.952 190.085 729.188 187.217 724.84 189.43 721.649 187.713 717.526 194.42 715.456 195.731 712.087 197.996 708.97 199.022 705.541 196.268 701.097 194.616 696.914 193.682 692.903 200.334 691.04 199.676 687.109 203.415 684.466 203.798 680.837 206.081 677.787 199.976 672.12 206.632 670.446 202.614 665.367 205.298 662.445 208.844 659.83 209.763 656.344 211.974 653.305 208.381 648.228 217.077 647.505 212.707 642.105 214.796 639.032 214.567 635.097 213.433 630.799 220.641 629.708 217.104 624.455 217.474 620.706 218.275 617.121 225.489 616.169 225.738 612.377 225.839 608.51 223.835 603.72 228.114 601.629 229.387 598.244 236.541 597.493 236.371 593.483 234.971 588.884 233.679 584.3 241.631 584.06 236.877 577.798 243.896 577.187 240.019 571.27 242.447 568.434 242.703 564.508 246.292 562.275 248.118 559.151 249.984 556.049 254.177 554.193 257.545 551.924 255.158 546.527 256.84 543.329 258.977 540.386 260.055 536.845 265.644 535.893 267.09 532.579 267.224 528.484 267.459 524.426 269.045 521.161 270.367 517.729 271.145 513.952 279.333 514.812 277.477 509.381 280.319 506.916 281.289 503.245 281.812 499.263 285.553 497.406 292.347 497.638 290.584 492.099 289.974 487.295 295.798 486.951 296.747 483.217 298.023 479.698 301.674 477.887 299.119 471.547 303.51 470.286 304.736 466.684 307.233 464.031 314.877 465.345 311.772 458.389 319.386 459.779 321.605 456.969 320.866 451.774 324.931 450.441 324.292 445.261 328.186 443.809 327.944 438.894 335.614 440.688 331.045 432.011 337.123 432.504 342.314 432.287 338.049 423.666 342.291 422.608 344.01 419.278 351.353 421.14 354.961 419.609 350.571 410.522 357.14 411.792 359.842 409.402 363.755 408.204 361.378 400.795 363.622 397.913 368.034 397.226 372.439 396.573 376.558 395.667 377.699 391.668 376.026 384.641 378.971 382.475 383.56 382.106 390.018 383.841 387.836 376.053 396.041 379.839 398.482 377.202 400.771 374.383 402.686 371.117 402.784 365.69 404.671 362.327 407.864 360.514 412.165 360.066 417.1 360.444 419.911 358.228 422.596 355.855 421.542 348.695 423.376 345.156 431.164 349.38 429.19 340.826 434.119 341.371 435.971 337.807 441.665 339.481 442.332 334.267 446.799 334.317 449.317 331.647 453.794 331.779 456.032 328.706 458.314 325.671 462.65 325.674 462.814 319.433 467.368 319.79 471.67 319.812 473.946 316.716 474.859 311.436 480.215 313.186 484.423 313.165 484.299 306.088 488.676 306.351 490.036 301.599 495.437 303.646 496.463 298.259 503.221 302.771 503.453 295.926 507.814 296.33 512.306 297.022 513.465 291.676 515.313 287.515 519.683 288.024 521.232 283.229 524.105 280.903 531.132 286.655 531.249 278.96 534.618 277.607 538.153 276.598 542.304 276.867 547.134 278.594 547.54 271.099 551.595 271.224 554.533 268.982 556.613 264.844 561.019 265.791 566.572 269.377 568.495 264.84 570.255 259.845 574.921 261.541 578.304 260.285 583.221 262.714 584.934 257.455 588.294 256.147 592.739 257.554 595.907 255.803 599.615 255.426 602.403 252.69 605.041 249.518 609.497 251.159 610.828 244.394 614.354 243.519 619.438 247.008 620.417 238.995 626.897 246.601 627.753 238.056 633.053 242.447 636.88 242.582 640.219 241.261 643.121 238.581 644.756 231.871 650.234 237.249 651.918 230.538 655.766 230.766 660.533 234.103 663.14 230.247 666.009 227.208 669.275 225.49 672.45 223.425 676.105 223.06 681.523 229.186 682.925 220.555 687.254 222.777 691.745 225.723 695.318 225.2 698.298 222.324 700.559 216.458 705.773 222.61 707.442 214.113 711.253 214.53 715.397 216.435 718.728 214.838 722.393 214.716 726.488 216.587 730.061 216.115 732.212 208.868 735.67 207.723 739.885 210.309 744.204 213.545 746.884 208.497 751.018 210.909 753.487 204.52 758.3 210.707 760.955 205.136 764.677 205.434 768.452 206.078 772.178 206.519 775.665 205.545 778.846 202.644 782.296 201.34 786.763 206.61 789.918 203.419 792.697 197.521 796.714 200.01 800.229 199.085 804.352 202.581 807.797 201.171 811.371 200.683 814.719 198.445 818.3 197.956 821.65 195.549 825.623 198.291" style="fill: none; stroke: #000; stroke-linecap: round; stroke-linejoin: round; stroke-width: 40px;"/>
</svg>