<?xml version="1.0" encoding="UTF-8"?>
<svg id="Sticker" xmlns="http://www.w3.org/2000/svg" width="1000" height="1000" viewBox="0 0 1000 1000">
  <g>
    <polyline points="280.369 579.754 275.671 586.035 281.755 587.117 282.489 590.788 282.931 594.604 283.592 598.323 285.573 601.388 289.322 603.525 291.67 606.35 288.266 612.381 292.421 614.223 298.917 614.476 298.266 619.102 300.618 621.83 299.438 627.116 302.381 629.482 304.643 632.338 308.324 634.012 310.685 636.741 314.544 638.154 314.56 642.969 316.949 645.695 322.787 645.214 323.91 649.095 328.215 649.98 330.091 653.167 327.486 660.692 333.604 659.808 336.725 661.81 334.869 668.68 339.701 669.012 342.602 671.233 344.532 674.402 348.928 675.14 349.576 679.579 353.924 680.365 354.56 684.823 358.697 685.822 357.331 692.271 360.468 694.261 362.263 697.573 369.199 695.801 371.422 698.696 372.092 703.13 377.341 703.034 380.15 705.361 378.655 711.937 380.432 715.36 383.197 717.796 386.369 719.772 389.554 721.691 395.503 720.206 395.631 725.781 401.901 723.51 401.259 730.415 407.94 727.158 408.801 732.22 410.732 735.878 412.071 740.679 418.51 736.91 421.639 738.617 424.391 741.042 426.665 744.501 429.369 747.242 435.698 742.093 435.027 752.536 439.574 751.157 445.416 746.102 446.553 753.22 450.817 751.958 452.793 757.453 455.846 759.976 460.949 755.512 465.393 752.751 467.579 758.528 470.495 761.906 475.612 755.399 479.022 756.312 482.201 758.559 485.328 761.455 488.511 764.485 492.008 765.728 495.829 764.387 499.838 760.625 502.875 766.778 506.745 763.621 510.53 760.173 513.735 768.134 517.333 769.899 521.061 765.416 524.667 768.285 528.298 767.502 531.857 764.831 535.578 767.73 539.191 767.189 542.628 764.215 545.82 759.149 549.807 763.759 552.996 759.802 556.977 763.126 561.081 766.624 564.533 765.011 567.8 762.434 571.342 761.73 574.852 760.874 578.909 762.759 581.918 759.435 585.834 760.389 588.033 754.048 592.551 757.365 594.938 752.348 599.554 755.585 601.337 748.924 605.102 749.12 608.669 748.602 611.802 746.769 615.326 746.083 619.954 748.302 624.508 750.049 625.321 742.37 629.681 743.545 632.557 741.162 634.718 737.306 639.097 738.252 644.289 740.625 644.694 733.512 647.393 731.054 651.641 731.388 657.389 734.09 660.354 731.908 663.772 730.451 661.972 721.207 670.082 726.632 671.565 722.433 673.214 718.642 673.51 713.231 676.07 710.799 684.705 715.624 684.148 709.392 689.321 709.811 688.695 703.767 692.125 702.207 696.975 702.036 696.231 696.208 700.213 695.09 699.713 689.751 703.459 688.37 706.146 685.995 710.078 684.63 711.63 681.265 717.594 681.342 715.207 675.002 717.158 672.016 716.474 667.226 718.52 664.386 720.93 661.771 727.177 661.464 729.628 658.719 732.496 656.174 732.326 651.955 734.721 649.131 733.78 644.656 735.795 641.661 740.926 640.004 738.635 635.103 744.241 633.461 743.869 629.419 742.559 625.125 741.221 620.93 740.531 617.036 747.688 615.434 746.967 611.509 747.482 607.95 744.791 603.694 746.029 600.367 746.368 596.855 752.028 594.218 748.757 590.105 747.78 586.42 748.985 583.018 755.053 580.014 757.671 576.56 757.877 572.897 750.046 568.95 756.943 565.546 755.969 561.9 751.369 558.343 757.105 554.609 751.947 551.206 748.97 547.823 756.76 543.674 747.626 540.876 748.557 537.241 754.963 532.882 752.933 529.498 748.843 526.475 748.677 522.894 746.04 519.75 748.883 515.586 746.37 512.449 743.163 509.514 750.132 504.235 741.45 502.659 741.994 498.862 744.868 494.386 745.537 490.449 739.96 488.348 736.917 485.566 738.86 481.212 737.084 478.037 734.5 475.156 740.771 469.121 737.394 466.496 735.451 463.372 733.651 460.207 735.585 455.541 733.251 452.575 724.924 452.188 722.562 449.337 728.04 442.998 727.11 439.501 719.526 438.979 720.713 434.535 715.613 432.9 720.732 426.701 714.205 425.701 719.783 419.295 717.606 416.35 715.54 413.354 715.455 409.477 704.975 410.227 711.487 403.415 706.236 401.836 707.856 397.207 699.744 396.897 703.45 391.349 697.709 389.986 700.932 384.656 696.125 382.873 701 376.822 697.178 374.606 695.087 371.629 694.358 368.054 688.986 366.506 692.756 360.982 683.995 360.867 687.128 355.644 687.851 351.517 688.546 349.052 690.222 352.371 684.946 358.907 689.502 365.319" style="fill: #fff;"/>
    <polyline points="280.369 579.754 275.671 586.035 281.755 587.117 282.489 590.788 282.931 594.604 283.592 598.323 285.573 601.388 289.322 603.525 291.67 606.35 288.266 612.381 292.421 614.223 298.917 614.476 298.266 619.102 300.618 621.83 299.438 627.116 302.381 629.482 304.643 632.338 308.324 634.012 310.685 636.741 314.544 638.154 314.56 642.969 316.949 645.695 322.787 645.214 323.91 649.095 328.215 649.98 330.091 653.167 327.486 660.692 333.604 659.808 336.725 661.81 334.869 668.68 339.701 669.012 342.602 671.233 344.532 674.402 348.928 675.14 349.576 679.579 353.924 680.365 354.56 684.823 358.697 685.822 357.331 692.271 360.468 694.261 362.263 697.573 369.199 695.801 371.422 698.696 372.092 703.13 377.341 703.034 380.15 705.361 378.655 711.937 380.432 715.36 383.197 717.796 386.369 719.772 389.554 721.691 395.503 720.206 395.631 725.781 401.901 723.51 401.259 730.415 407.94 727.158 408.801 732.22 410.732 735.878 412.071 740.679 418.51 736.91 421.639 738.617 424.391 741.042 426.665 744.501 429.369 747.242 435.698 742.093 435.027 752.536 439.574 751.157 445.416 746.102 446.553 753.22 450.817 751.958 452.793 757.453 455.846 759.976 460.949 755.512 465.393 752.751 467.579 758.528 470.495 761.906 475.612 755.399 479.022 756.312 482.201 758.559 485.328 761.455 488.511 764.485 492.008 765.728 495.829 764.387 499.838 760.625 502.875 766.778 506.745 763.621 510.53 760.173 513.735 768.134 517.333 769.899 521.061 765.416 524.667 768.285 528.298 767.502 531.857 764.831 535.578 767.73 539.191 767.189 542.628 764.215 545.82 759.149 549.807 763.759 552.996 759.802 556.977 763.126 561.081 766.624 564.533 765.011 567.8 762.434 571.342 761.73 574.852 760.874 578.909 762.759 581.918 759.435 585.834 760.389 588.033 754.048 592.551 757.365 594.938 752.348 599.554 755.585 601.337 748.924 605.102 749.12 608.669 748.602 611.802 746.769 615.326 746.083 619.954 748.302 624.508 750.049 625.321 742.37 629.681 743.545 632.557 741.162 634.718 737.306 639.097 738.252 644.289 740.625 644.694 733.512 647.393 731.054 651.641 731.388 657.389 734.09 660.354 731.908 663.772 730.451 661.972 721.207 670.082 726.632 671.565 722.433 673.214 718.642 673.51 713.231 676.07 710.799 684.705 715.624 684.148 709.392 689.321 709.811 688.695 703.767 692.125 702.207 696.975 702.036 696.231 696.208 700.213 695.09 699.713 689.751 703.459 688.37 706.146 685.995 710.078 684.63 711.63 681.265 717.594 681.342 715.207 675.002 717.158 672.016 716.474 667.226 718.52 664.386 720.93 661.771 727.177 661.464 729.628 658.719 732.496 656.174 732.326 651.955 734.721 649.131 733.78 644.656 735.795 641.661 740.926 640.004 738.635 635.103 744.241 633.461 743.869 629.419 742.559 625.125 741.221 620.93 740.531 617.036 747.688 615.434 746.967 611.509 747.482 607.95 744.791 603.694 746.029 600.367 746.368 596.855 752.028 594.218 748.757 590.105 747.78 586.42 748.985 583.018 755.053 580.014 757.671 576.56 757.877 572.897 750.046 568.95 756.943 565.546 755.969 561.9 751.369 558.343 757.105 554.609 751.947 551.206 748.97 547.823 756.76 543.674 747.626 540.876 748.557 537.241 754.963 532.882 752.933 529.498 748.843 526.475 748.677 522.894 746.04 519.75 748.883 515.586 746.37 512.449 743.163 509.514 750.132 504.235 741.45 502.659 741.994 498.862 744.868 494.386 745.537 490.449 739.96 488.348 736.917 485.566 738.86 481.212 737.084 478.037 734.5 475.156 740.771 469.121 737.394 466.496 735.451 463.372 733.651 460.207 735.585 455.541 733.251 452.575 724.924 452.188 722.562 449.337 728.04 442.998 727.11 439.501 719.526 438.979 720.713 434.535 715.613 432.9 720.732 426.701 714.205 425.701 719.783 419.295 717.606 416.35 715.54 413.354 715.455 409.477 704.975 410.227 711.487 403.415 706.236 401.836 707.856 397.207 699.744 396.897 703.45 391.349 697.709 389.986 700.932 384.656 696.125 382.873 701 376.822 697.178 374.606 695.087 371.629 694.358 368.054 688.986 366.506 692.756 360.982 683.995 360.867 687.128 355.644 687.851 351.517 688.546 349.052 690.222 352.371 684.946 358.907 689.502 365.319" style="fill: none; stroke: #000; stroke-linecap: round; stroke-linejoin: round; stroke-width: 40px;"/>
  </g>
  <g>
    <polygon points="708.29 460.344 709.941 463.926 713.916 467.63 714.476 471.303 713.357 474.896 715.789 478.732 710.272 481.924 711.201 485.645 714.767 489.731 710.674 492.883 708.619 496.236 712.676 500.58 709.362 503.703 705.226 506.574 708.169 510.879 705.916 514.087 708.768 518.528 700.779 520.195 707.285 525.744 704.786 528.835 703.464 532.251 700.841 535.224 695.445 537.169 694.841 540.74 694.225 544.329 698.208 549.807 693.918 551.972 687.4 553.048 689.335 557.83 687.759 561.057 684.56 563.473 683.175 566.768 683.034 570.742 680.183 573.266 677.529 575.858 680.384 581.717 677.576 584.26 674.316 586.473 673.306 590.125 673.251 594.475 668.191 595.367 667.981 599.675 666.059 602.778 665.865 607.244 660.489 607.637 661.205 612.938 656.9 614.091 654.52 616.844 653.896 621.2 650.651 623.196 648.155 625.875 644.377 627.275 642.031 630.078 639.983 633.215 638.048 636.515 631.693 634.871 627.283 635.239 625.731 638.92 626.171 645.165 619.814 642.958 617.219 645.439 617.19 651.443 613.903 653.11 611.608 656.193 605.356 653.386 601.921 654.636 598.948 656.583 598.283 662.386 595.876 665.465 589.843 662.139 586.919 664.211 583.628 665.605 581.597 669.503 579.954 674.395 577.439 677.669 571.381 673.077 569.721 678.335 565.137 676.731 563.616 682.751 559.979 683.504 554.888 680.08 550.376 677.904 546.992 678.919 545.867 687.435 541.884 686.777 538.878 689.569 534.035 685.28 530.59 686.23 526.7 685.161 524.515 692.241 521.043 693.5 516.869 690.735 513.455 692.215 509.427 689.459 506.287 693.126 502.408 690.828 498.685 689.317 495.501 694.158 491.735 691.716 488.266 694.062 484.682 694.761 481.041 692.873 477.457 697.784 473.927 690.377 470.317 692.953 466.624 695.584 463.296 690.777 459.813 689.871 455.808 694.906 452.296 693.762 449.2 689.41 445.749 688.517 441.285 694.321 437.937 692.334 434.069 693.399 430.93 690.568 428.083 686.698 424.241 687.529 420.079 689.426 418.2 682.401 414.178 683.674 409.596 686.563 406.192 685.314 402.631 684.551 399.745 681.826 395.781 682.173 394.735 674.815 388.405 681.078 385.916 677.586 382.536 676.29 379.465 674.31 378.018 668.964 375.257 666.556 371.138 666.841 365.317 670.166 364.875 663.448 359.036 666.451 358.022 661.035 354.075 660.61 352.782 655.933 348.699 655.66 346.191 652.969 344.001 649.872 336.969 653.486 334.05 651.274 335.798 643.05 333.901 639.747 329.327 639.748 327.838 635.994 322.524 636.678 319.081 635.115 319.68 629.177 311.45 632.607 314.037 624.8 312.883 620.956 304.046 624.464 305.603 618.064 303.559 615.093 299.055 614.265 298.776 609.785 291.97 610.707 293.656 604.722 288.287 604.306 288.608 599.538 287.835 595.667 284.041 593.948 279.894 592.386 284.871 584.82 275.678 586.427 279.894 579.611 277.632 576.785 271.163 576.31 273.548 570.836 273.357 566.875 271.648 563.736 268.1 561.483 268.344 557.391 267.901 553.672 264.309 551.338 261.689 548.525 257.586 546.246 259.536 541.609 254.757 539.478 254.912 535.555 251.27 532.895 255.938 527.627 255.36 524.056 255.774 520.232 254.998 516.754 250.45 514.169 247.016 511.218 244.325 508.028 249.41 503.319 247.077 500.066 249.301 496.049 248.111 492.597 248.926 488.875 241.047 486.129 246.496 481.92 240.828 478.744 242.213 474.969 244.552 471.2 244.166 467.591 245.183 463.951 240.087 460.344 248.064 456.808 242.201 453.094 243.237 449.512 241.841 445.808 239.513 441.985 246.128 438.899 241.304 434.784 240.691 431.023 240.575 427.297 247.352 424.614 246.719 420.869 245.968 417.062 243.008 412.764 246.789 409.818 247.401 406.226 254.301 404.204 253.445 400.307 251.327 395.994 249.373 391.625 257.216 390.269 251.695 384.666 258.596 383.21 254.102 377.738 256.252 374.638 256.175 370.665 259.593 368.12 261.213 364.853 262.906 361.625 267.009 359.56 270.282 357.178 267.746 351.849 269.383 348.601 271.507 345.622 272.606 342.064 278.209 341.175 279.721 337.906 279.986 333.82 280.402 329.762 282.171 326.561 283.722 323.192 284.794 319.446 292.891 320.962 291.539 315.387 294.625 313.211 296.005 309.659 297.024 305.747 300.993 304.373 307.681 305.564 306.756 299.836 306.933 294.981 312.741 295.616 314.341 292.112 316.263 288.889 320.204 287.831 319.036 281.084 323.626 280.777 325.658 277.525 328.736 275.513 335.825 278.658 334.589 271.142 341.567 274.49 344.441 272.413 345.184 267.23 349.453 267.144 350.4 262.012 354.558 261.834 355.907 257.093 362.559 261.308 361.191 251.595 366.744 254.151 371.659 255.802 370.839 246.216 375.205 246.802 378.098 244.369 384.129 248.956 388.016 249.013 387.736 238.924 393.191 242.818 396.649 241.814 400.676 242.449 401.848 234.754 405.196 233.191 409.456 234.612 413.655 236.109 417.687 237.293 420.618 234.364 422.678 227.43 426.363 227.037 430.525 229.069 435.122 233.92 437.401 226.16 442.274 233.768 445.719 232.9 449.15 231.828 452.544 230.208 455.721 225.807 459.232 224.153 462.911 224.554 466.654 226.748 470.356 230.02 473.906 229.975 477.457 229.763 481.105 223.511 484.803 221.926 488.106 230.151 492.137 222.348 495.543 225.984 499.312 224.535 502.44 229.585 506.458 226.191 509.699 229.278 513.365 229.081 516.476 232.294 520.213 231.684 523.971 231.171 526.978 234.284 531.618 230.105 534.476 233.684 537.348 236.873 541.157 236.501 545.739 233.71 547.909 238.915 550.611 242.114 555.989 237.515 558.545 241.09 563.132 239.216 564.831 244.744 569.753 242.31 570.151 250.423 575.812 246.582 578.012 250.371 579.987 254.442 585.043 252.385 589.546 251.625 591.521 255.573 596.418 254.316 599.95 255.549 598.692 264.545 605.366 260.715 608.253 262.966 610.896 265.559 612.68 269.329 613.441 274.389 620.26 271.255 622.018 274.933 625.35 276.567 630.008 276.647 631.07 281.057 630.139 287.597 635.053 287.48 640.349 287.107 640.627 292.08 643.08 294.732 642.638 300.186 648.148 299.868 650.556 302.556 650.745 307.204 653.431 309.593 654.962 312.961 658.417 314.74 662.236 316.297 661.958 321.031 668.828 320.412 670.645 323.599 668.603 329.421 676.617 328.383 670.784 336.499 679.298 335.378 676.171 341.513 676.816 345.259 678.748 348.239 681.906 350.569 688.804 351.018 684.4 357.31 691.29 357.952 691.622 361.818 688.934 366.976 693.067 369.089 696.404 371.625 698.442 374.737 700.785 377.76 701.436 381.418 695.663 387.209 704.355 388.163 702.317 392.605 699.498 397.164 700.072 400.689 702.958 403.624 708.813 405.929 702.572 411.035 711.018 412.95 710.457 416.787 708.343 420.848 709.727 424.284 709.576 427.959 707.357 431.867 707.474 435.443 714.443 438.383 715.165 442.003 712.045 445.871 708.222 449.669 712.792 453.091 709.725 456.764 708.29 460.344" style="fill: #fff;"/>
    <polygon points="708.29 460.344 709.941 463.926 713.916 467.63 714.476 471.303 713.357 474.896 715.789 478.732 710.272 481.924 711.201 485.645 714.767 489.731 710.674 492.883 708.619 496.236 712.676 500.58 709.362 503.703 705.226 506.574 708.169 510.879 705.916 514.087 708.768 518.528 700.779 520.195 707.285 525.744 704.786 528.835 703.464 532.251 700.841 535.224 695.445 537.169 694.841 540.74 694.225 544.329 698.208 549.807 693.918 551.972 687.4 553.048 689.335 557.83 687.759 561.057 684.56 563.473 683.175 566.768 683.034 570.742 680.183 573.266 677.529 575.858 680.384 581.717 677.576 584.26 674.316 586.473 673.306 590.125 673.251 594.475 668.191 595.367 667.981 599.675 666.059 602.778 665.865 607.244 660.489 607.637 661.205 612.938 656.9 614.091 654.52 616.844 653.896 621.2 650.651 623.196 648.155 625.875 644.377 627.275 642.031 630.078 639.983 633.215 638.048 636.515 631.693 634.871 627.283 635.239 625.731 638.92 626.171 645.165 619.814 642.958 617.219 645.439 617.19 651.443 613.903 653.11 611.608 656.193 605.356 653.386 601.921 654.636 598.948 656.583 598.283 662.386 595.876 665.465 589.843 662.139 586.919 664.211 583.628 665.605 581.597 669.503 579.954 674.395 577.439 677.669 571.381 673.077 569.721 678.335 565.137 676.731 563.616 682.751 559.979 683.504 554.888 680.08 550.376 677.904 546.992 678.919 545.867 687.435 541.884 686.777 538.878 689.569 534.035 685.28 530.59 686.23 526.7 685.161 524.515 692.241 521.043 693.5 516.869 690.735 513.455 692.215 509.427 689.459 506.287 693.126 502.408 690.828 498.685 689.317 495.501 694.158 491.735 691.716 488.266 694.062 484.682 694.761 481.041 692.873 477.457 697.784 473.927 690.377 470.317 692.953 466.624 695.584 463.296 690.777 459.813 689.871 455.808 694.906 452.296 693.762 449.2 689.41 445.749 688.517 441.285 694.321 437.937 692.334 434.069 693.399 430.93 690.568 428.083 686.698 424.241 687.529 420.079 689.426 418.2 682.401 414.178 683.674 409.596 686.563 406.192 685.314 402.631 684.551 399.745 681.826 395.781 682.173 394.735 674.815 388.405 681.078 385.916 677.586 382.536 676.29 379.465 674.31 378.018 668.964 375.257 666.556 371.138 666.841 365.317 670.166 364.875 663.448 359.036 666.451 358.022 661.035 354.075 660.61 352.782 655.933 348.699 655.66 346.191 652.969 344.001 649.872 336.969 653.486 334.05 651.274 335.798 643.05 333.901 639.747 329.327 639.748 327.838 635.994 322.524 636.678 319.081 635.115 319.68 629.177 311.45 632.607 314.037 624.8 312.883 620.956 304.046 624.464 305.603 618.064 303.559 615.093 299.055 614.265 298.776 609.785 291.97 610.707 293.656 604.722 288.287 604.306 288.608 599.538 287.835 595.667 284.041 593.948 279.894 592.386 284.871 584.82 275.678 586.427 279.894 579.611 277.632 576.785 271.163 576.31 273.548 570.836 273.357 566.875 271.648 563.736 268.1 561.483 268.344 557.391 267.901 553.672 264.309 551.338 261.689 548.525 257.586 546.246 259.536 541.609 254.757 539.478 254.912 535.555 251.27 532.895 255.938 527.627 255.36 524.056 255.774 520.232 254.998 516.754 250.45 514.169 247.016 511.218 244.325 508.028 249.41 503.319 247.077 500.066 249.301 496.049 248.111 492.597 248.926 488.875 241.047 486.129 246.496 481.92 240.828 478.744 242.213 474.969 244.552 471.2 244.166 467.591 245.183 463.951 240.087 460.344 248.064 456.808 242.201 453.094 243.237 449.512 241.841 445.808 239.513 441.985 246.128 438.899 241.304 434.784 240.691 431.023 240.575 427.297 247.352 424.614 246.719 420.869 245.968 417.062 243.008 412.764 246.789 409.818 247.401 406.226 254.301 404.204 253.445 400.307 251.327 395.994 249.373 391.625 257.216 390.269 251.695 384.666 258.596 383.21 254.102 377.738 256.252 374.638 256.175 370.665 259.593 368.12 261.213 364.853 262.906 361.625 267.009 359.56 270.282 357.178 267.746 351.849 269.383 348.601 271.507 345.622 272.606 342.064 278.209 341.175 279.721 337.906 279.986 333.82 280.402 329.762 282.171 326.561 283.722 323.192 284.794 319.446 292.891 320.962 291.539 315.387 294.625 313.211 296.005 309.659 297.024 305.747 300.993 304.373 307.681 305.564 306.756 299.836 306.933 294.981 312.741 295.616 314.341 292.112 316.263 288.889 320.204 287.831 319.036 281.084 323.626 280.777 325.658 277.525 328.736 275.513 335.825 278.658 334.589 271.142 341.567 274.49 344.441 272.413 345.184 267.23 349.453 267.144 350.4 262.012 354.558 261.834 355.907 257.093 362.559 261.308 361.191 251.595 366.744 254.151 371.659 255.802 370.839 246.216 375.205 246.802 378.098 244.369 384.129 248.956 388.016 249.013 387.736 238.924 393.191 242.818 396.649 241.814 400.676 242.449 401.848 234.754 405.196 233.191 409.456 234.612 413.655 236.109 417.687 237.293 420.618 234.364 422.678 227.43 426.363 227.037 430.525 229.069 435.122 233.92 437.401 226.16 442.274 233.768 445.719 232.9 449.15 231.828 452.544 230.208 455.721 225.807 459.232 224.153 462.911 224.554 466.654 226.748 470.356 230.02 473.906 229.975 477.457 229.763 481.105 223.511 484.803 221.926 488.106 230.151 492.137 222.348 495.543 225.984 499.312 224.535 502.44 229.585 506.458 226.191 509.699 229.278 513.365 229.081 516.476 232.294 520.213 231.684 523.971 231.171 526.978 234.284 531.618 230.105 534.476 233.684 537.348 236.873 541.157 236.501 545.739 233.71 547.909 238.915 550.611 242.114 555.989 237.515 558.545 241.09 563.132 239.216 564.831 244.744 569.753 242.31 570.151 250.423 575.812 246.582 578.012 250.371 579.987 254.442 585.043 252.385 589.546 251.625 591.521 255.573 596.418 254.316 599.95 255.549 598.692 264.545 605.366 260.715 608.253 262.966 610.896 265.559 612.68 269.329 613.441 274.389 620.26 271.255 622.018 274.933 625.35 276.567 630.008 276.647 631.07 281.057 630.139 287.597 635.053 287.48 640.349 287.107 640.627 292.08 643.08 294.732 642.638 300.186 648.148 299.868 650.556 302.556 650.745 307.204 653.431 309.593 654.962 312.961 658.417 314.74 662.236 316.297 661.958 321.031 668.828 320.412 670.645 323.599 668.603 329.421 676.617 328.383 670.784 336.499 679.298 335.378 676.171 341.513 676.816 345.259 678.748 348.239 681.906 350.569 688.804 351.018 684.4 357.31 691.29 357.952 691.622 361.818 688.934 366.976 693.067 369.089 696.404 371.625 698.442 374.737 700.785 377.76 701.436 381.418 695.663 387.209 704.355 388.163 702.317 392.605 699.498 397.164 700.072 400.689 702.958 403.624 708.813 405.929 702.572 411.035 711.018 412.95 710.457 416.787 708.343 420.848 709.727 424.284 709.576 427.959 707.357 431.867 707.474 435.443 714.443 438.383 715.165 442.003 712.045 445.871 708.222 449.669 712.792 453.091 709.725 456.764 708.29 460.344" style="fill: none; stroke: #000; stroke-linecap: round; stroke-linejoin: round; stroke-width: 40px;"/>
  </g>
  <g>
    <polyline points="387.896 529.801 393.014 529.842 396.067 527.816 398.476 525.145 399.12 520.705 404.699 521.196 405.323 516.733 406.356 512.682 410.533 511.777 414.192 510.356 418.394 509.478 420.407 506.411 422.594 503.518 422.413 498.254 424.356 495.11 429.707 495.372 430.25 490.827 433.12 488.612 432.958 483.368 437.859 483.186 439.415 479.658 440.222 475.381 446.095 476.164 447.009 471.988 452.836 472.729 453.89 468.698 456.761 466.484 456.027 460.663 459.281 458.827 465.966 460.422 465.455 454.823 470.997 455.279 471.157 450.35 471.36 445.461 479.41 448.422 479.95 443.874 482 440.834 481.436 435.178 484.692 433.345 488.944 432.506 494.86 433.33 497.401 430.782 497.874 426.174 500.761 423.979 500.211 418.339 507.086 420.124 503.525 411.478 512.089 414.953 511.973 409.744 515.576 408.258 518.582 406.169 516.475 398.97 518.949 396.348 524.481 396.786 526.124 393.333 532.391 394.502 531.062 388.086 533.988 385.917 540.942 387.772 537.683 379.412 542.438 379.065 546.279 377.796 549.417 375.824" style="fill: #fff;"/>
    <polyline points="387.896 529.801 393.014 529.842 396.067 527.816 398.476 525.145 399.12 520.705 404.699 521.196 405.323 516.733 406.356 512.682 410.533 511.777 414.192 510.356 418.394 509.478 420.407 506.411 422.594 503.518 422.413 498.254 424.356 495.11 429.707 495.372 430.25 490.827 433.12 488.612 432.958 483.368 437.859 483.186 439.415 479.658 440.222 475.381 446.095 476.164 447.009 471.988 452.836 472.729 453.89 468.698 456.761 466.484 456.027 460.663 459.281 458.827 465.966 460.422 465.455 454.823 470.997 455.279 471.157 450.35 471.36 445.461 479.41 448.422 479.95 443.874 482 440.834 481.436 435.178 484.692 433.345 488.944 432.506 494.86 433.33 497.401 430.782 497.874 426.174 500.761 423.979 500.211 418.339 507.086 420.124 503.525 411.478 512.089 414.953 511.973 409.744 515.576 408.258 518.582 406.169 516.475 398.97 518.949 396.348 524.481 396.786 526.124 393.333 532.391 394.502 531.062 388.086 533.988 385.917 540.942 387.772 537.683 379.412 542.438 379.065 546.279 377.796 549.417 375.824" style="fill: none; stroke: #000; stroke-linecap: round; stroke-linejoin: round; stroke-width: 40px;"/>
  </g>
</svg>