<?xml version="1.0" encoding="UTF-8"?>
<svg id="Sticker" xmlns="http://www.w3.org/2000/svg" width="1000" height="1000" viewBox="0 0 1000 1000">
  <polyline points="121.248 517.023 122.612 518.185 124.974 521.904 126.361 528.695 132.511 522.638 135.028 526.895 138.976 526.563 142.282 528.732 146.009 529.143 150.08 526.985 153.347 530.632 157.068 531.121 160.833 530.83 164.568 527.203 168.022 526.537 172.118 535.14 175.796 533.902 178.369 526.182 183.163 532.29 187.141 532.616 190.21 529.602 191.462 522.265 194.768 521.346 200.705 525.62 202.318 520.841 207.308 522.094 211.495 521.596 210.557 514.018 211.633 509.734 215.674 509.132 216.934 505.274 219.19 502.574 227.836 506.328 228.279 501.646 233.285 501.493 235.489 498.61 233.629 491.808 240.268 493.28 237.729 485.683 239.519 482.28 245.525 483.345 246.639 479.178 249.482 476.882 252.598 474.929 257.666 475.708 256.96 468.318 264.865 474.037 267.927 472.56 267.267 463.655 270.709 462.201 275.919 465.285 278.148 460.946 281.424 459.119 286.123 462.693 289.098 459.829 292.869 460.636 295.562 454.059 299.852 459.506 303.504 461.024 306.923 458.771 310.504 461.804 314.022 460.094 317.74 456.762 321.215 459.322 324.94 458.098 329.151 453.704 331.733 461.626 336.018 457.979 338.584 463.54 342.618 461.933 345.46 465.178 348.634 466.871 353.328 464.017 355.312 469.069 359.633 467.799 362.184 470.925 367.777 467.422 371.316 468.609 373.781 471.84 375.347 476.488 381.276 473.545 380.883 481.166 385.717 480.271 387.671 483.879 391.21 485.094 394.447 486.784 395.36 491.733 403.346 486.868 405.584 489.99 407.303 493.796 411.43 494.294 412.488 499.004 417.668 497.97 420.145 500.685 423.916 501.497 425.996 504.805 425.667 512.082 430.813 510.638 433.229 513.712 437.32 513.741 439.929 516.596 443.697 517.039 445.829 521.42 448.71 524.425 454.133 519.607 457.829 519.425 460.82 522.08 463.896 525.228 467.415 526.639 471.005 528.11 474.81 526.866 478.486 528.71 482.109 524.843 485.455 520.933 488.938 520.512 493.519 529.113 497.08 527.588 501.011 528.384 503.409 521.564 506.641 519.703 511.518 523.935 514.334 520.51 517.203 517.711 522.468 521.367 522.39 511.615 529.621 519.024 531.115 513.591 534.003 511.288 535.71 506.922 542.216 511.054 542.089 503.72 548.821 507.796 552.241 506.374 553.287 501.248 557.623 501.323 556.947 493.532 560.623 492.548 563.948 491.009 568.397 491.365 569.822 486.604 574.474 487.453 578.292 486.956 582.321 487.017 583.665 481.543 585.886 477.54 588.904 475.116 593.56 476.868 599.078 481.617 599.985 472.985 603.524 471.936 608.716 477.167 610.566 469.687 615.086 473.212 617.5 466.612 621.465 467.77 626.024 473.663 628.732 466.529 632.512 467.316 636.248 468.182 640.093 471.388 643.495 467.569 647.141 467.97 650.824 471.306 654.405 470.112 657.969 471.35 661.874 463.983 665.023 472.463 669.343 464.512 672.852 466.674 675.956 470.894 679.661 470.639 682.241 475.925 687.464 469.247 691.142 469.897 693.069 476.221 696.016 478.561 699.569 479.111 702.414 481.463 706.816 480.276 710.762 480.413 712.755 484.396 715.255 487.197 718.055 489.388 721.265 490.92 725.421 491.121 728.709 492.71 732.174 494.106 737.756 492.827 740.53 495.275 738.481 503.595 741.745 505.298 745.361 506.614 747.016 510.275 751.851 510.191 753.616 513.733 758.748 513.248 759.628 517.883 764.525 517.555 767.047 520.159 769.185 523.314 771.757 525.941 774.864 527.813 776.623 531.895 782.993 528.091 785.392 531.018 787.859 534.067 789.5 539.509 792.602 542.022 797.682 538.53 799.797 544.752 805.073 538.41 807.537 545.068 811.767 541.655 815.584 539.229 818.839 545.535 822.581 545.311 826.184 541.528 829.643 539.318 833.312 540.69 836.528 537.726 839.977 537.247 844.957 544.587 847.586 539.315 849.911 534.149 853.641 534.593 857.394 534.773 860.709 533.56 863.339 530.775 869.635 535.766 870.163 528.815 873.217 527.058 876.981 526.433 882.24 527.855" style="fill: none; stroke: #000; stroke-linecap: round; stroke-linejoin: round; stroke-width: 40px;"/>
</svg>