<?xml version="1.0" encoding="UTF-8"?>
<svg id="Sticker" xmlns="http://www.w3.org/2000/svg" width="1000" height="1000" viewBox="0 0 1000 1000">
  <g>
    <polygon points="780.619 500 778.93 503.59 783.789 507.317 775.245 510.62 783.419 514.626 777.98 517.91 778.22 521.529 780.541 525.368 773.009 528.168 772.668 531.681 775.081 535.589 776.416 539.412 771.212 542.169 775.259 546.514 770.974 549.323 777.029 554.258 771.331 556.683 773.78 560.965 775.196 565.077 773.614 568.432 764.543 569.582 764.713 573.323 763.209 576.561 764.543 580.747 764.484 584.518 765.457 588.707 758.837 590.031 763.123 595.579 761.815 598.963 753.727 599.394 754.916 603.804 752.081 606.413 756.391 612.457 748.317 612.457 748.873 616.736 751.871 622.412 748.608 624.764 748.66 628.971 746.851 632.14 738.213 631.123 740.987 637.066 740.125 640.82 736.893 643.027 734.735 645.927 730.102 647.063 730.744 651.955 727.021 653.676 728.385 659.269 724.862 661.128 722.357 663.762 721.369 667.664 714.871 666.868 715.003 671.76 707.661 669.963 708.583 675.657 707.037 679.148 705.982 683.17 699.22 681.491 699.288 686.688 692.899 685.138 690.661 687.923 693.582 696.532 690.986 699.106 686.836 699.845 681.665 699.256 678.186 700.625 674.549 701.747 676.547 710.238 673.82 712.678 668.564 711.613 663.397 710.501 660.428 712.441 660.003 718.221 655.131 717.308 650.767 717.046 650.044 722.644 648.051 726.313 645.94 729.888 640.779 728.093 637.086 728.798 634.233 731.041 631.706 733.962 627.753 734.073 623.386 733.218 622.914 740.645 620.272 743.613 614.301 738.966 611.912 742.49 608.283 743.081 604.579 743.425 601.684 745.865 599.134 749.36 593.73 744.758 592.431 752.09 587.353 748.029 583.869 748.766 581.043 751.747 577.62 752.761 573.623 751.596 570.265 752.774 568.624 761.257 564.345 758.811 559.882 755.096 556.878 758.192 553.264 758.32 549.786 759.157 547.239 765.886 542.869 761.232 539.87 765.836 535.868 763.045 532.71 767.241 529.063 767.356 525.092 763.586 521.792 767.691 518.221 768.856 514.359 764.455 510.912 768.522 507.229 766.666 503.579 763.773 500 762.628 496.42 763.976 492.76 767.246 489.225 764.798 485.831 760.588 482.142 762.904 478.201 767.849 475.064 761.786 471.461 761.992 468.183 759.094 464.252 762.086 460.273 764.792 457.128 761.268 453.116 763.669 449.911 760.931 445.745 763.698 442.233 762.703 439.013 760.358 435.414 759.893 431.849 759.25 429.805 752.489 425.177 756.161 422.425 752.592 417.765 755.858 414.104 755.444 411.542 751.507 409.405 746.521 403.767 752.011 400.28 750.978 397.922 746.904 395.161 744.079 389.801 747.836 387.294 744.38 385.469 739.484 383.383 735.406 379.052 736.367 373.699 739.313 371.485 735.601 370.078 730.434 364.081 734.236 360.511 733.221 359.912 726.832 356.86 724.985 350.446 728.833 349.305 723.69 348.077 718.869 341.21 722.968 341.244 716.313 335.221 718.808 333.254 715.262 331.073 712.093 326.176 712.658 324.071 709.398 324.669 702.726 317.374 706.15 315.107 703.16 313.107 699.888 313.23 694.214 310.26 692.189 305.713 691.873 305.206 687.138 298.5 688.964 301.503 680.737 293.883 683.28 291.555 680.478 289.058 677.842 291.054 671.112 285.167 671.588 280.487 670.855 278.793 667.506 280.806 661.155 273.771 662.194 275.853 655.968 269.876 655.992 272.47 649.583 271.574 645.852 269.496 642.984 260.743 644.594 262.103 639.35 259.11 636.986 259.579 632.459 253.69 631.8 251.072 629.107 250.554 625.213 249.287 621.77 245.499 619.657 249.333 613.627 249.511 609.567 243.388 608.527 239.966 606.107 244.062 600.345 239.593 598.359 243.423 592.927 242.343 589.562 238.956 587.059 238.162 583.568 237.825 579.934 229.271 578.979 236.415 572.967 234.507 569.85 226.206 568.473 229.467 563.852 229.046 560.262 229.464 556.493 229.099 552.929 230.881 548.945 225.865 546.3 226.688 542.526 221.769 539.694 225.067 535.565 225.159 531.957 219.103 529.061 222.403 525.076 219.787 521.697 223.197 517.828 225.671 514.115 224.928 510.613 218.039 507.267 219.765 503.609 219.636 500 225.373 496.471 219.862 492.785 223.367 489.322 221.244 485.636 226.022 482.372 220.128 478.331 224.309 475.112 226.026 471.723 222.333 467.68 219.363 463.62 219.37 459.926 222.621 456.773 223.485 453.252 229.429 450.758 225.932 446.381 229.472 443.503 232.667 440.621 232.35 436.894 230.374 432.671 226.925 427.928 229.162 424.794 232.539 422.066 237.121 419.817 240.038 417.086 233.992 411.089 240.71 409.793 243.909 407.256 245.305 404.023 246.694 400.789 244.142 395.769 241.038 390.354 248.952 390.146 246.182 384.768 253.181 384.336 252.59 379.996 252.37 375.782 257.23 374.422 257.586 370.498 255.774 365.189 258.286 362.474 263.025 361.233 265.36 358.486 270.335 357.577 265.448 349.772 272.102 350.128 272.437 345.916 278.225 345.848 277.66 340.88 276.968 335.685 284.366 337.157 282.323 330.709 289.441 332.182 287.037 325.207 290.659 323.634 293.589 321.454 297.614 320.377 299.94 317.658 300.911 313.519 301.679 309.075 307.373 309.923 310.376 307.919 312.599 305.034 313.353 300.379 320.592 303.492 317.683 294.211 324.309 296.787 327.441 295.019 327.72 289.408 332.046 289.235 334.135 285.972 336.394 282.891 342.103 284.961 343.791 281.017 348.208 281.316 347.25 272.907 351.449 272.84 354.524 270.92 360.903 274.926 362.429 270.306 366.284 269.945 370.631 270.635 373.843 269.168 376.047 265.594 378.714 262.884 380.12 257.264 386.157 262.096 387.564 256.252 389.853 252.276 394.513 254.229 398.811 255.465 401.789 253.215 404.572 250.311 409.702 254.364 413.046 253.232 415.149 247.995 419.888 251.469 422.547 247.843 425.815 246.263 429.53 246.405 433.308 246.923 436.144 243.379 439.742 243.112 442.225 237.259 446.09 238.177 449.538 236.907 453.584 239.285 457.596 241.938 460.079 233.781 463.775 234.027 468.285 241.868 471.592 239.403 474.992 237.406 478.472 235.95 482.325 240.199 485.57 234.065 489.107 231.995 492.884 238.057 496.38 232.816 500 239.953 503.649 230.289 507.12 237.755 510.633 239.144 514.534 231.832 517.888 236.612 521.774 232.497 525.012 237.319 529.069 232.543 532.026 238.989 536.264 233.678 539.672 235.616 542.699 239.913 546.826 236.698 550.363 237.474 553.656 239.549 556.848 241.954 560.394 242.464 564.9 238.697 567.805 242.212 571.289 243.123 574.499 245.073 577.443 247.886 580.764 249.224 584.103 250.471 587.892 250.28 591.839 249.716 596.468 247.307 597.863 254.201 600.716 256.75 603.626 259.053 609.369 254.233 611.66 258.132 616.518 255.909 619.304 258.574 620.362 264.902 623.533 266.491 627.425 266.612 631.523 266.416 634.102 269.228 639.67 266.443 638.637 275.772 642.452 276.212 645.648 277.776 648.786 279.448 655.738 275.037 658.818 276.988 661.893 278.951 662.656 284.311 665.867 285.993 669.536 287.059 669.872 292.693 677.018 289.167 674.446 298.41 681.139 295.709 682.872 299.299 684.284 303.204 689.878 302.199 692.239 305.002 692.842 309.711 693.534 314.207 698.311 314.35 699.479 318.269 700.739 322.023 707.309 320.614 709.641 323.375 710.976 327.039 714.971 328.29 717.528 330.858 715.595 337.21 721.113 337.275 723.607 339.892 724.077 344.086 725.464 347.516 725.313 352.039 733.524 350.522 730.462 357.045 737.149 356.821 737.957 360.612 743.475 361.379 743.651 365.56 743.505 369.867 746.32 372.395 746.85 376.234 750.32 378.442 754.455 380.366 753.953 384.716 753.464 388.985 756.811 391.38 755.353 396.013 755.308 399.93 762.18 400.897 763.768 404.175 761.683 408.881 766.02 411.097 766.993 414.604 767.703 418.194 769.026 421.571 769.713 425.15 767.67 429.514 772.52 431.879 770.244 436.224 772.535 439.349 772.956 442.948 774.261 446.346 772.181 450.44 776.586 453.243 777.973 456.675 772.023 461.28 776.051 464.276 780.976 467.259 781.5 470.871 779.26 474.759 778.764 478.426 777.785 482.103 779.077 485.618 781.262 489.126 782.412 492.72 781.809 496.369 780.619 500" style="fill: #fff;"/>
    <polygon points="780.619 500 778.93 503.59 783.789 507.317 775.245 510.62 783.419 514.626 777.98 517.91 778.22 521.529 780.541 525.368 773.009 528.168 772.668 531.681 775.081 535.589 776.416 539.412 771.212 542.169 775.259 546.514 770.974 549.323 777.029 554.258 771.331 556.683 773.78 560.965 775.196 565.077 773.614 568.432 764.543 569.582 764.713 573.323 763.209 576.561 764.543 580.747 764.484 584.518 765.457 588.707 758.837 590.031 763.123 595.579 761.815 598.963 753.727 599.394 754.916 603.804 752.081 606.413 756.391 612.457 748.317 612.457 748.873 616.736 751.871 622.412 748.608 624.764 748.66 628.971 746.851 632.14 738.213 631.123 740.987 637.066 740.125 640.82 736.893 643.027 734.735 645.927 730.102 647.063 730.744 651.955 727.021 653.676 728.385 659.269 724.862 661.128 722.357 663.762 721.369 667.664 714.871 666.868 715.003 671.76 707.661 669.963 708.583 675.657 707.037 679.148 705.982 683.17 699.22 681.491 699.288 686.688 692.899 685.138 690.661 687.923 693.582 696.532 690.986 699.106 686.836 699.845 681.665 699.256 678.186 700.625 674.549 701.747 676.547 710.238 673.82 712.678 668.564 711.613 663.397 710.501 660.428 712.441 660.003 718.221 655.131 717.308 650.767 717.046 650.044 722.644 648.051 726.313 645.94 729.888 640.779 728.093 637.086 728.798 634.233 731.041 631.706 733.962 627.753 734.073 623.386 733.218 622.914 740.645 620.272 743.613 614.301 738.966 611.912 742.49 608.283 743.081 604.579 743.425 601.684 745.865 599.134 749.36 593.73 744.758 592.431 752.09 587.353 748.029 583.869 748.766 581.043 751.747 577.62 752.761 573.623 751.596 570.265 752.774 568.624 761.257 564.345 758.811 559.882 755.096 556.878 758.192 553.264 758.32 549.786 759.157 547.239 765.886 542.869 761.232 539.87 765.836 535.868 763.045 532.71 767.241 529.063 767.356 525.092 763.586 521.792 767.691 518.221 768.856 514.359 764.455 510.912 768.522 507.229 766.666 503.579 763.773 500 762.628 496.42 763.976 492.76 767.246 489.225 764.798 485.831 760.588 482.142 762.904 478.201 767.849 475.064 761.786 471.461 761.992 468.183 759.094 464.252 762.086 460.273 764.792 457.128 761.268 453.116 763.669 449.911 760.931 445.745 763.698 442.233 762.703 439.013 760.358 435.414 759.893 431.849 759.25 429.805 752.489 425.177 756.161 422.425 752.592 417.765 755.858 414.104 755.444 411.542 751.507 409.405 746.521 403.767 752.011 400.28 750.978 397.922 746.904 395.161 744.079 389.801 747.836 387.294 744.38 385.469 739.484 383.383 735.406 379.052 736.367 373.699 739.313 371.485 735.601 370.078 730.434 364.081 734.236 360.511 733.221 359.912 726.832 356.86 724.985 350.446 728.833 349.305 723.69 348.077 718.869 341.21 722.968 341.244 716.313 335.221 718.808 333.254 715.262 331.073 712.093 326.176 712.658 324.071 709.398 324.669 702.726 317.374 706.15 315.107 703.16 313.107 699.888 313.23 694.214 310.26 692.189 305.713 691.873 305.206 687.138 298.5 688.964 301.503 680.737 293.883 683.28 291.555 680.478 289.058 677.842 291.054 671.112 285.167 671.588 280.487 670.855 278.793 667.506 280.806 661.155 273.771 662.194 275.853 655.968 269.876 655.992 272.47 649.583 271.574 645.852 269.496 642.984 260.743 644.594 262.103 639.35 259.11 636.986 259.579 632.459 253.69 631.8 251.072 629.107 250.554 625.213 249.287 621.77 245.499 619.657 249.333 613.627 249.511 609.567 243.388 608.527 239.966 606.107 244.062 600.345 239.593 598.359 243.423 592.927 242.343 589.562 238.956 587.059 238.162 583.568 237.825 579.934 229.271 578.979 236.415 572.967 234.507 569.85 226.206 568.473 229.467 563.852 229.046 560.262 229.464 556.493 229.099 552.929 230.881 548.945 225.865 546.3 226.688 542.526 221.769 539.694 225.067 535.565 225.159 531.957 219.103 529.061 222.403 525.076 219.787 521.697 223.197 517.828 225.671 514.115 224.928 510.613 218.039 507.267 219.765 503.609 219.636 500 225.373 496.471 219.862 492.785 223.367 489.322 221.244 485.636 226.022 482.372 220.128 478.331 224.309 475.112 226.026 471.723 222.333 467.68 219.363 463.62 219.37 459.926 222.621 456.773 223.485 453.252 229.429 450.758 225.932 446.381 229.472 443.503 232.667 440.621 232.35 436.894 230.374 432.671 226.925 427.928 229.162 424.794 232.539 422.066 237.121 419.817 240.038 417.086 233.992 411.089 240.71 409.793 243.909 407.256 245.305 404.023 246.694 400.789 244.142 395.769 241.038 390.354 248.952 390.146 246.182 384.768 253.181 384.336 252.59 379.996 252.37 375.782 257.23 374.422 257.586 370.498 255.774 365.189 258.286 362.474 263.025 361.233 265.36 358.486 270.335 357.577 265.448 349.772 272.102 350.128 272.437 345.916 278.225 345.848 277.66 340.88 276.968 335.685 284.366 337.157 282.323 330.709 289.441 332.182 287.037 325.207 290.659 323.634 293.589 321.454 297.614 320.377 299.94 317.658 300.911 313.519 301.679 309.075 307.373 309.923 310.376 307.919 312.599 305.034 313.353 300.379 320.592 303.492 317.683 294.211 324.309 296.787 327.441 295.019 327.72 289.408 332.046 289.235 334.135 285.972 336.394 282.891 342.103 284.961 343.791 281.017 348.208 281.316 347.25 272.907 351.449 272.84 354.524 270.92 360.903 274.926 362.429 270.306 366.284 269.945 370.631 270.635 373.843 269.168 376.047 265.594 378.714 262.884 380.12 257.264 386.157 262.096 387.564 256.252 389.853 252.276 394.513 254.229 398.811 255.465 401.789 253.215 404.572 250.311 409.702 254.364 413.046 253.232 415.149 247.995 419.888 251.469 422.547 247.843 425.815 246.263 429.53 246.405 433.308 246.923 436.144 243.379 439.742 243.112 442.225 237.259 446.09 238.177 449.538 236.907 453.584 239.285 457.596 241.938 460.079 233.781 463.775 234.027 468.285 241.868 471.592 239.403 474.992 237.406 478.472 235.95 482.325 240.199 485.57 234.065 489.107 231.995 492.884 238.057 496.38 232.816 500 239.953 503.649 230.289 507.12 237.755 510.633 239.144 514.534 231.832 517.888 236.612 521.774 232.497 525.012 237.319 529.069 232.543 532.026 238.989 536.264 233.678 539.672 235.616 542.699 239.913 546.826 236.698 550.363 237.474 553.656 239.549 556.848 241.954 560.394 242.464 564.9 238.697 567.805 242.212 571.289 243.123 574.499 245.073 577.443 247.886 580.764 249.224 584.103 250.471 587.892 250.28 591.839 249.716 596.468 247.307 597.863 254.201 600.716 256.75 603.626 259.053 609.369 254.233 611.66 258.132 616.518 255.909 619.304 258.574 620.362 264.902 623.533 266.491 627.425 266.612 631.523 266.416 634.102 269.228 639.67 266.443 638.637 275.772 642.452 276.212 645.648 277.776 648.786 279.448 655.738 275.037 658.818 276.988 661.893 278.951 662.656 284.311 665.867 285.993 669.536 287.059 669.872 292.693 677.018 289.167 674.446 298.41 681.139 295.709 682.872 299.299 684.284 303.204 689.878 302.199 692.239 305.002 692.842 309.711 693.534 314.207 698.311 314.35 699.479 318.269 700.739 322.023 707.309 320.614 709.641 323.375 710.976 327.039 714.971 328.29 717.528 330.858 715.595 337.21 721.113 337.275 723.607 339.892 724.077 344.086 725.464 347.516 725.313 352.039 733.524 350.522 730.462 357.045 737.149 356.821 737.957 360.612 743.475 361.379 743.651 365.56 743.505 369.867 746.32 372.395 746.85 376.234 750.32 378.442 754.455 380.366 753.953 384.716 753.464 388.985 756.811 391.38 755.353 396.013 755.308 399.93 762.18 400.897 763.768 404.175 761.683 408.881 766.02 411.097 766.993 414.604 767.703 418.194 769.026 421.571 769.713 425.15 767.67 429.514 772.52 431.879 770.244 436.224 772.535 439.349 772.956 442.948 774.261 446.346 772.181 450.44 776.586 453.243 777.973 456.675 772.023 461.28 776.051 464.276 780.976 467.259 781.5 470.871 779.26 474.759 778.764 478.426 777.785 482.103 779.077 485.618 781.262 489.126 782.412 492.72 781.809 496.369 780.619 500" style="fill: none; stroke: #000; stroke-linecap: round; stroke-linejoin: round; stroke-width: 40px;"/>
  </g>
  <g>
    <polygon points="454.511 500 459.654 503.904 453.332 507.181 458.578 511.635 453.202 514.488 451.14 517.711 454.293 522.495 448.479 524.34 451.141 529.429 447.25 531.684 447.189 535.892 446.821 540.178 443.942 542.865 439.584 544.189 433.782 543.719 436.993 552.253 433.899 554.664 427.133 551.891 425.085 555.261 422.501 558.116 420.742 563.261 415.247 559.769 411.932 561.265 409.312 566.36 405.134 564.871 401.407 565.687 397.603 567.535 393.768 566.125 390.06 564.944 386.677 562.683 383.734 559.657 378.61 563.453 375.362 561.232 371.481 560.424 370.354 554.875 365.883 554.97 360.864 555.202 359.016 551.371 355.246 549.667 355.98 543.877 353.751 540.975 351.872 537.835 348.042 535.873 349.463 530.9 343.072 529.873 343.298 525.66 343.922 521.517 340.278 518.718 336.927 515.554 344.886 510.348 345.268 506.832 337.583 503.8 342.512 500 340.528 496.35 341.277 492.758 339.576 488.824 338.353 484.745 344.44 482.389 341.412 477.667 342.914 474.19 348.577 472.601 344.465 466.507 346.027 462.931 349.499 460.569 354.356 459.479 354.615 454.95 357.641 452.634 359.086 448.697 360.761 444.662 366.091 445.315 369.274 443.364 372.704 441.881 378.079 444.861 379.15 438.016 382.599 436.393 386.349 435.77 390.629 439.082 394.27 441.045 397.603 431.345 401.545 432.351 404.883 436.927 408.965 435.28 413.444 433.503 415.537 439.447 420.23 437.9 420.832 445.052 426.789 441.984 430.126 443.899 430.061 450.085 433.368 451.702 436.154 454.001 436.913 458.099 444.956 456.372 444.792 461.187 443.351 466.382 451.104 466.323 449.603 471.265 452.376 474.16 454.212 477.533 450.144 482.556 449.845 486.219 455.912 488.781 459.394 492.196 458.483 496.156 454.511 500" style="fill: #fff;"/>
    <polygon points="454.511 500 459.654 503.904 453.332 507.181 458.578 511.635 453.202 514.488 451.14 517.711 454.293 522.495 448.479 524.34 451.141 529.429 447.25 531.684 447.189 535.892 446.821 540.178 443.942 542.865 439.584 544.189 433.782 543.719 436.993 552.253 433.899 554.664 427.133 551.891 425.085 555.261 422.501 558.116 420.742 563.261 415.247 559.769 411.932 561.265 409.312 566.36 405.134 564.871 401.407 565.687 397.603 567.535 393.768 566.125 390.06 564.944 386.677 562.683 383.734 559.657 378.61 563.453 375.362 561.232 371.481 560.424 370.354 554.875 365.883 554.97 360.864 555.202 359.016 551.371 355.246 549.667 355.98 543.877 353.751 540.975 351.872 537.835 348.042 535.873 349.463 530.9 343.072 529.873 343.298 525.66 343.922 521.517 340.278 518.718 336.927 515.554 344.886 510.348 345.268 506.832 337.583 503.8 342.512 500 340.528 496.35 341.277 492.758 339.576 488.824 338.353 484.745 344.44 482.389 341.412 477.667 342.914 474.19 348.577 472.601 344.465 466.507 346.027 462.931 349.499 460.569 354.356 459.479 354.615 454.95 357.641 452.634 359.086 448.697 360.761 444.662 366.091 445.315 369.274 443.364 372.704 441.881 378.079 444.861 379.15 438.016 382.599 436.393 386.349 435.77 390.629 439.082 394.27 441.045 397.603 431.345 401.545 432.351 404.883 436.927 408.965 435.28 413.444 433.503 415.537 439.447 420.23 437.9 420.832 445.052 426.789 441.984 430.126 443.899 430.061 450.085 433.368 451.702 436.154 454.001 436.913 458.099 444.956 456.372 444.792 461.187 443.351 466.382 451.104 466.323 449.603 471.265 452.376 474.16 454.212 477.533 450.144 482.556 449.845 486.219 455.912 488.781 459.394 492.196 458.483 496.156 454.511 500" style="fill: none; stroke: #000; stroke-linecap: round; stroke-linejoin: round; stroke-width: 40px;"/>
  </g>
  <g>
    <polygon points="670.727 500 666.346 503.686 669.435 507.708 666.522 511.164 665.111 514.684 664.455 518.334 661.055 521.128 659.494 524.356 664.464 530.486 660.9 533.072 660.11 537.044 654.197 537.766 654.343 542.431 649.975 543.691 647.763 546.619 642.257 546.037 640.582 549.366 637.647 551.245 634.694 553.048 633.274 557.738 629.457 558.187 628.011 564.673 623.586 563.628 618.585 558.405 615.868 563.172 612.092 561.565 608.576 566.035 604.985 562.635 601.895 558.829 597.112 565.198 593.503 563.833 592.192 556.309 588.43 556.526 582.229 560.848 583.202 551.832 580.529 549.795 576.612 549.305 574.22 546.765 570.846 545.208 564.45 546.017 565.254 540.574 558.553 540.714 560.117 535.221 554.831 533.804 557.174 528.466 554.061 525.741 557.338 520.724 549.157 519.276 556.275 513.794 550.464 511.189 552.903 507.175 551.957 503.627 555.711 500 550.236 496.285 551.741 492.705 547.75 488.388 551.415 485.184 556.351 482.639 550.023 476.9 551.831 473.397 553.739 469.987 561.963 469.888 558.323 463.714 565.397 463.873 568.486 461.871 569.808 458.557 571.359 455.281 573.32 452.249 574.675 448.294 579.708 449.04 579.335 441.884 584.441 443.326 585.843 437.652 590.143 438.071 594.617 440.019 597.187 435.138 601.048 435.155 604.916 436.371 608.576 432 612.565 431.681 616.357 433.371 620.382 433.2 624.36 433.701 624.99 443.61 631.91 436.313 630.993 446.587 633.876 448.288 639.448 446.225 644.369 445.966 647.569 448.187 649.474 451.739 653.583 453.231 649.519 461.23 652.059 463.673 653.339 466.965 656.676 469.121 661.417 470.887 661.058 475.043 661.309 478.791 664.309 481.706 666.255 485.076 663.087 489.372 665.69 492.676 665.272 496.369 670.727 500" style="fill: #fff;"/>
    <polygon points="670.727 500 666.346 503.686 669.435 507.708 666.522 511.164 665.111 514.684 664.455 518.334 661.055 521.128 659.494 524.356 664.464 530.486 660.9 533.072 660.11 537.044 654.197 537.766 654.343 542.431 649.975 543.691 647.763 546.619 642.257 546.037 640.582 549.366 637.647 551.245 634.694 553.048 633.274 557.738 629.457 558.187 628.011 564.673 623.586 563.628 618.585 558.405 615.868 563.172 612.092 561.565 608.576 566.035 604.985 562.635 601.895 558.829 597.112 565.198 593.503 563.833 592.192 556.309 588.43 556.526 582.229 560.848 583.202 551.832 580.529 549.795 576.612 549.305 574.22 546.765 570.846 545.208 564.45 546.017 565.254 540.574 558.553 540.714 560.117 535.221 554.831 533.804 557.174 528.466 554.061 525.741 557.338 520.724 549.157 519.276 556.275 513.794 550.464 511.189 552.903 507.175 551.957 503.627 555.711 500 550.236 496.285 551.741 492.705 547.75 488.388 551.415 485.184 556.351 482.639 550.023 476.9 551.831 473.397 553.739 469.987 561.963 469.888 558.323 463.714 565.397 463.873 568.486 461.871 569.808 458.557 571.359 455.281 573.32 452.249 574.675 448.294 579.708 449.04 579.335 441.884 584.441 443.326 585.843 437.652 590.143 438.071 594.617 440.019 597.187 435.138 601.048 435.155 604.916 436.371 608.576 432 612.565 431.681 616.357 433.371 620.382 433.2 624.36 433.701 624.99 443.61 631.91 436.313 630.993 446.587 633.876 448.288 639.448 446.225 644.369 445.966 647.569 448.187 649.474 451.739 653.583 453.231 649.519 461.23 652.059 463.673 653.339 466.965 656.676 469.121 661.417 470.887 661.058 475.043 661.309 478.791 664.309 481.706 666.255 485.076 663.087 489.372 665.69 492.676 665.272 496.369 670.727 500" style="fill: none; stroke: #000; stroke-linecap: round; stroke-linejoin: round; stroke-width: 40px;"/>
  </g>
</svg>