<?xml version="1.0" encoding="UTF-8"?>
<svg id="Sticker" xmlns="http://www.w3.org/2000/svg" width="1000" height="1000" viewBox="0 0 1000 1000">
  <g>
    <path d="M750.626,179.877l5.698.949-.716,3.682-1.087,3.675-4.27,3.75.533,3.582,2.883,3.545-3.077,3.65,5.977,3.554-7.973,3.64,7.185,3.611-.309,3.614-.041,3.615-6.089,3.503,4.621,3.695,2.945,3.694-.993,3.594-5.729,3.406,5.978,3.853-5.64,3.359,4.579,3.843-6.092,3.277-1.668,3.496-.177,3.582,7.871,4.163-4.285,3.307.952,3.697-3.086,3.358,4.36,4.017.553,3.694-1.823,3.46-.921,3.543,1.944,3.861-6.539,2.882-2.381,3.331,4.583,4.205,1.602,3.859-6.518,2.742,2.783,4.035-6.076,2.726-.776,3.499,1.684,3.899-1.028,3.466-1.47,3.383,7.062,4.928-9.133,1.971.243,3.691,6.761,5.018-4.986,2.67-1.21,3.426-2.02,3.24-1.2,3.41-3.303,2.908,3.462,4.52-2.295,3.138,3.368,4.582-4.663,2.507-1.493,3.319,4.488,5.001-4.557,2.459,1.178,4.117-4.589,2.378-3.651,2.613-.553,3.578,5.292,5.55-2.876,2.852-1.098,3.451-6.593,1.446,3.991,5.311-4.442,2.165.83,4.19-5.571,1.624,4.342,5.69-4.972,1.803-2.672,2.738,2.309,4.981,1.637,4.764-1.085,3.534-4.026,2.088-1.839,3.139-6.416.729,2.12,5.201-4.21,1.798-3.879,1.909-.73,3.693.739,4.62,2.024,5.514-3.008,2.425-3.997,1.731-5.028.949-3.555,1.861,4.2,7.417-6.829-.546-3.774,1.593-2.227,2.744-2.223,2.744,1.074,5.537,1.48,6.076-7.675-1.976,1.147,5.951-6.849-1.545-.675,4.336-1.014,4.112-5.057-.1-1.503,3.655.13,5.623-3.238,1.851-4.91-.253-3.084,1.896-5.012-.701,2.124,8.967-6.199-2.48-1.715,3.876-5.486-1.866-1.159,4.868-1.162,5.129-6.432-3.957-.392,6.761-6.121-3.932-.324,7.377-3.971.131-3.554.927-4.144-.532-3.203,1.613-2.527,3.435-2.491,3.788-4.901-3.05-3.569.619-3.222,1.725-2.634,3.932-5.288-5.851-1.294,9.646-4.921-5.146-3.597.255-2.695,4.941-3.99-1.725-3.328,2.02-3.41,1.772-4.217-4.385-3.284,2.78-3.83-2.244-2.946,7.944-3.805-1.831-3.634.322-3.892-6.462-3.479,3.423-3.614-1.432-3.567-2.597-3.538-.168-3.612,2.161-3.632,1.171-3.876,4.325-3.102-7.093-4.003,4.497-3.926,2.418-3.195-3.942-3.193-3.15-3.707.524-3.865,1.171-2.473-6.058-3.458-.681-4.456,3.467-2.318-5.401-4.14,1.747-3.619-.349-3.092-2.073-2.922-2.444-4.296,1.466-3.172-1.733-5.315,3.516-2.738-2.927-3.599-.904-1.998-4.269-1.756-4.479-6.784,5.178-2.886-2.397,1.032-8.991-4.113-.013-3.915-.481-3.652-.995-.386-5.723-6.377,2.746-4.077-.653.944-7.09-6.06,1.752,1.873-7.784-9.097,4.908,2.295-7.919-1.702-3.37-7.802,2.816.719-5.811-5.663.379.897-5.753-6.243.687,2.273-6.73-6.745.897-1.128-3.782.808-5.205-5.209-.596-1.993-3.05-.898-3.806-.582-3.968-2.161-2.875-5.86-.534.424-4.555-1.823-3.125-.892-3.665-.089-4.085-1.401-3.313-1.478-3.262-2.817-2.565-3.193-2.412-4.982-1.585,3.878-5.878-.232-3.838-.454-3.707-7.481-.625,1.095-4.401-5.032-1.822-.14-3.862,3.634-5.301-1.193-3.37-2.739-2.801-3.115-2.698.045-3.834-5.973-1.778,7.093-6.158-2.522-2.938-1.319-3.338-1.219-3.373-8.127-1.355-1.013-3.498-1.019-3.496,2.931-4.556-1.348-3.38-2.113-3.193,3.355-4.553-7.756-1.846,7.836-5.546-6.911-2.123.879-3.898,1.298-3.963-5.04-2.646-.173-3.661,2.351-4.135,2.119-4.055-3.776-2.969,1.34-3.889,1.139-3.832-6.196-2.635-.358-3.603.945-3.795-2.635-3.265-.734-3.55,5.058-4.32-4.635-3.028-.742-3.547,1.778-3.844.564-3.687,2.412-3.874-7.878-2.804,5.867-4.203-5.966-3.06,1.092-3.726-4.518-3.254,1.768-3.778,2.077-3.78-1.401-3.524,1.194-3.697-2.194-3.487-2.948-3.465,2.245-3.743,2.164-3.716-2.134-3.525,3.129-3.725,1.514-3.647-6.036-3.44-.306-3.615,3.6-3.681-3.322-3.567.247-3.628.489-3.624-.194-3.619.44-3.612,3.247-3.573-3.962-3.673,3.401-3.536-1.354-3.642.543-3.59-.388-3.622,3.04-3.456-2.253-5.527,4.216-.862,3.594,6.617,3.594-3.54,3.593-4.482,3.593-.087,3.592,2.638,3.592.829,3.592,1.261,3.592-1.067,3.592-2.01,3.592-1.023,3.593.679,3.593,3.633,3.594-1.169,3.595-2.836,3.596,3.652,3.597-.616,3.596-1.505,3.595,2.608,3.595-.48,3.594.616,3.594-3.78,3.593,3.141,3.593-3.207,3.593,6.914,3.593-.595,3.593.064,3.594-7.994,3.595,5.447,3.595-4.378,3.596,5.459,3.597-6.039,3.596.971,3.595.651,3.595,5.197,3.594-.389,3.594-5.334,3.594-1.223,3.594,8.909,3.594-2.166,3.595-6.958,3.596,1.601,3.596-1.85,3.597,7.349,3.596-1.819,3.596,1.626,3.595-5.973,3.595,5.021,3.595.555,3.595-3.157,3.595,5.519,3.596-9.194,3.597,5.668,3.598,2.598,3.597-.244,3.596-4.409,3.595,5.786,3.595-3.034,3.595-4.497,3.596-1.831,3.597,7.981,3.598-4.111,3.597,1.094,3.596-2.391,3.596-.233,3.596,4.341,3.596-1.933,3.597-2.738,3.598,3.555,3.597-.257,3.596,1.757,3.596-3.338,3.596,1.191,3.597,3.904,3.598.092,3.598-2.431,3.597-.183,3.596-.271,3.592,1.834,3.591.395,3.591.318,3.592-1.067,3.594-4.463,3.596-2.725,3.599-.412,3.597,7.032,3.595.442,3.594-1.964,3.593-2.119,3.594,1.836,3.595.59,3.598-4.709,3.598,2.49,3.596,1.724,3.595,3.38,3.595-5.064,3.596-1.004,3.599-.077,3.598,3.829,3.597-1.716,3.596,1.355,3.598,1.053,3.6-4.209,3.598,2.091,3.597,2.061,3.599-3.804,3.6,1.374,3.598,2.717,3.599-6.372,3.6,2.721,3.599-.187,3.6.682,3.599,2.668,3.6-4.872,3.6,7.046,3.601-8.133,3.596,7.775,3.6-6.838,3.596,7.239,3.6-8.402,3.598,2.508,3.602,3.439,3.6-2.478,3.601-2.129,3.603,4.688,3.603.831,3.603-2.829,3.602-.026,3.603,3.277,3.603-4.118,3.043,2.391,3.369.881Z" style="fill: #fff;"/>
    <path d="M750.626,179.877l5.698.949-.716,3.682-1.087,3.675-4.27,3.75.533,3.582,2.883,3.545-3.077,3.65,5.977,3.554-7.973,3.64,7.185,3.611-.309,3.614-.041,3.615-6.089,3.503,4.621,3.695,2.945,3.694-.993,3.594-5.729,3.406,5.978,3.853-5.64,3.359,4.579,3.843-6.092,3.277-1.668,3.496-.177,3.582,7.871,4.163-4.285,3.307.952,3.697-3.086,3.358,4.36,4.017.553,3.694-1.823,3.46-.921,3.543,1.944,3.861-6.539,2.882-2.381,3.331,4.583,4.205,1.602,3.859-6.518,2.742,2.783,4.035-6.076,2.726-.776,3.499,1.684,3.899-1.028,3.466-1.47,3.383,7.062,4.928-9.133,1.971.243,3.691,6.761,5.018-4.986,2.67-1.21,3.426-2.02,3.24-1.2,3.41-3.303,2.908,3.462,4.52-2.295,3.138,3.368,4.582-4.663,2.507-1.493,3.319,4.488,5.001-4.557,2.459,1.178,4.117-4.589,2.378-3.651,2.613-.553,3.578,5.292,5.55-2.876,2.852-1.098,3.451-6.593,1.446,3.991,5.311-4.442,2.165.83,4.19-5.571,1.624,4.342,5.69-4.972,1.803-2.672,2.738,2.309,4.981,1.637,4.764-1.085,3.534-4.026,2.088-1.839,3.139-6.416.729,2.12,5.201-4.21,1.798-3.879,1.909-.73,3.693.739,4.62,2.024,5.514-3.008,2.425-3.997,1.731-5.028.949-3.555,1.861,4.2,7.417-6.829-.546-3.774,1.593-2.227,2.744-2.223,2.744,1.074,5.537,1.48,6.076-7.675-1.976,1.147,5.951-6.849-1.545-.675,4.336-1.014,4.112-5.057-.1-1.503,3.655.13,5.623-3.238,1.851-4.91-.253-3.084,1.896-5.012-.701,2.124,8.967-6.199-2.48-1.715,3.876-5.486-1.866-1.159,4.868-1.162,5.129-6.432-3.957-.392,6.761-6.121-3.932-.324,7.377-3.971.131-3.554.927-4.144-.532-3.203,1.613-2.527,3.435-2.491,3.788-4.901-3.05-3.569.619-3.222,1.725-2.634,3.932-5.288-5.851-1.294,9.646-4.921-5.146-3.597.255-2.695,4.941-3.99-1.725-3.328,2.02-3.41,1.772-4.217-4.385-3.284,2.78-3.83-2.244-2.946,7.944-3.805-1.831-3.634.322-3.892-6.462-3.479,3.423-3.614-1.432-3.567-2.597-3.538-.168-3.612,2.161-3.632,1.171-3.876,4.325-3.102-7.093-4.003,4.497-3.926,2.418-3.195-3.942-3.193-3.15-3.707.524-3.865,1.171-2.473-6.058-3.458-.681-4.456,3.467-2.318-5.401-4.14,1.747-3.619-.349-3.092-2.073-2.922-2.444-4.296,1.466-3.172-1.733-5.315,3.516-2.738-2.927-3.599-.904-1.998-4.269-1.756-4.479-6.784,5.178-2.886-2.397,1.032-8.991-4.113-.013-3.915-.481-3.652-.995-.386-5.723-6.377,2.746-4.077-.653.944-7.09-6.06,1.752,1.873-7.784-9.097,4.908,2.295-7.919-1.702-3.37-7.802,2.816.719-5.811-5.663.379.897-5.753-6.243.687,2.273-6.73-6.745.897-1.128-3.782.808-5.205-5.209-.596-1.993-3.05-.898-3.806-.582-3.968-2.161-2.875-5.86-.534.424-4.555-1.823-3.125-.892-3.665-.089-4.085-1.401-3.313-1.478-3.262-2.817-2.565-3.193-2.412-4.982-1.585,3.878-5.878-.232-3.838-.454-3.707-7.481-.625,1.095-4.401-5.032-1.822-.14-3.862,3.634-5.301-1.193-3.37-2.739-2.801-3.115-2.698.045-3.834-5.973-1.778,7.093-6.158-2.522-2.938-1.319-3.338-1.219-3.373-8.127-1.355-1.013-3.498-1.019-3.496,2.931-4.556-1.348-3.38-2.113-3.193,3.355-4.553-7.756-1.846,7.836-5.546-6.911-2.123.879-3.898,1.298-3.963-5.04-2.646-.173-3.661,2.351-4.135,2.119-4.055-3.776-2.969,1.34-3.889,1.139-3.832-6.196-2.635-.358-3.603.945-3.795-2.635-3.265-.734-3.55,5.058-4.32-4.635-3.028-.742-3.547,1.778-3.844.564-3.687,2.412-3.874-7.878-2.804,5.867-4.203-5.966-3.06,1.092-3.726-4.518-3.254,1.768-3.778,2.077-3.78-1.401-3.524,1.194-3.697-2.194-3.487-2.948-3.465,2.245-3.743,2.164-3.716-2.134-3.525,3.129-3.725,1.514-3.647-6.036-3.44-.306-3.615,3.6-3.681-3.322-3.567.247-3.628.489-3.624-.194-3.619.44-3.612,3.247-3.573-3.962-3.673,3.401-3.536-1.354-3.642.543-3.59-.388-3.622,3.04-3.456-2.253-5.527,4.216-.862,3.594,6.617,3.594-3.54,3.593-4.482,3.593-.087,3.592,2.638,3.592.829,3.592,1.261,3.592-1.067,3.592-2.01,3.592-1.023,3.593.679,3.593,3.633,3.594-1.169,3.595-2.836,3.596,3.652,3.597-.616,3.596-1.505,3.595,2.608,3.595-.48,3.594.616,3.594-3.78,3.593,3.141,3.593-3.207,3.593,6.914,3.593-.595,3.593.064,3.594-7.994,3.595,5.447,3.595-4.378,3.596,5.459,3.597-6.039,3.596.971,3.595.651,3.595,5.197,3.594-.389,3.594-5.334,3.594-1.223,3.594,8.909,3.594-2.166,3.595-6.958,3.596,1.601,3.596-1.85,3.597,7.349,3.596-1.819,3.596,1.626,3.595-5.973,3.595,5.021,3.595.555,3.595-3.157,3.595,5.519,3.596-9.194,3.597,5.668,3.598,2.598,3.597-.244,3.596-4.409,3.595,5.786,3.595-3.034,3.595-4.497,3.596-1.831,3.597,7.981,3.598-4.111,3.597,1.094,3.596-2.391,3.596-.233,3.596,4.341,3.596-1.933,3.597-2.738,3.598,3.555,3.597-.257,3.596,1.757,3.596-3.338,3.596,1.191,3.597,3.904,3.598.092,3.598-2.431,3.597-.183,3.596-.271,3.592,1.834,3.591.395,3.591.318,3.592-1.067,3.594-4.463,3.596-2.725,3.599-.412,3.597,7.032,3.595.442,3.594-1.964,3.593-2.119,3.594,1.836,3.595.59,3.598-4.709,3.598,2.49,3.596,1.724,3.595,3.38,3.595-5.064,3.596-1.004,3.599-.077,3.598,3.829,3.597-1.716,3.596,1.355,3.598,1.053,3.6-4.209,3.598,2.091,3.597,2.061,3.599-3.804,3.6,1.374,3.598,2.717,3.599-6.372,3.6,2.721,3.599-.187,3.6.682,3.599,2.668,3.6-4.872,3.6,7.046,3.601-8.133,3.596,7.775,3.6-6.838,3.596,7.239,3.6-8.402,3.598,2.508,3.602,3.439,3.6-2.478,3.601-2.129,3.603,4.688,3.603.831,3.603-2.829,3.602-.026,3.603,3.277,3.603-4.118,3.043,2.391,3.369.881Z" style="fill: none; stroke: #000; stroke-linecap: round; stroke-linejoin: round; stroke-width: 40px;"/>
  </g>
  <g>
    <polyline points="509.932 578.201 512.344 581.823 510.535 585.444 516.136 589.064 517.423 592.683 509.671 596.303 511.052 599.923 511.431 603.543 510.423 607.165 509.707 610.786 509.791 614.407 510.316 618.027 517.946 621.647 510.467 625.267 516.778 628.889 511.96 632.51 513.007 636.131 512.435 639.751 513.721 643.372 517.894 646.987 513.882 650.602 509.315 654.218 513.508 657.836 517.235 661.455 515.061 665.078 516.862 668.698 518.953 672.317 518.876 675.934 518.223 679.551 513.83 683.169 513.584 686.789 517.219 690.41 518.553 694.033 514.121 697.653 512.302 701.271 512.999 704.89 516.691 708.511 514.182 712.134 514.709 715.756 515.771 719.376 511.645 722.996 514.718 726.618 518.932 730.242 509.617 733.864 514.973 737.485 510.791 741.107 518.738 744.731 518.648 748.353 511.544 751.975 509.351 755.6 511.772 759.222 513.833 762.846 517.195 766.47 518.276 770.093 511.715 773.717 517.766 777.342 518.599 780.966 515.979 784.59 512.182 788.209 518.878 791.833 515.646 795.455 515.642 799.081 515.168 802.704 511.707 806.329 511.66 809.955 513.142 813.582 511.863 817.209 514.75 820.834 511.759 824.46 512.732 828.087 518.639 831.72 512.481 835.353" style="fill: #fff;"/>
    <polyline points="509.932 578.201 512.344 581.823 510.535 585.444 516.136 589.064 517.423 592.683 509.671 596.303 511.052 599.923 511.431 603.543 510.423 607.165 509.707 610.786 509.791 614.407 510.316 618.027 517.946 621.647 510.467 625.267 516.778 628.889 511.96 632.51 513.007 636.131 512.435 639.751 513.721 643.372 517.894 646.987 513.882 650.602 509.315 654.218 513.508 657.836 517.235 661.455 515.061 665.078 516.862 668.698 518.953 672.317 518.876 675.934 518.223 679.551 513.83 683.169 513.584 686.789 517.219 690.41 518.553 694.033 514.121 697.653 512.302 701.271 512.999 704.89 516.691 708.511 514.182 712.134 514.709 715.756 515.771 719.376 511.645 722.996 514.718 726.618 518.932 730.242 509.617 733.864 514.973 737.485 510.791 741.107 518.738 744.731 518.648 748.353 511.544 751.975 509.351 755.6 511.772 759.222 513.833 762.846 517.195 766.47 518.276 770.093 511.715 773.717 517.766 777.342 518.599 780.966 515.979 784.59 512.182 788.209 518.878 791.833 515.646 795.455 515.642 799.081 515.168 802.704 511.707 806.329 511.66 809.955 513.142 813.582 511.863 817.209 514.75 820.834 511.759 824.46 512.732 828.087 518.639 831.72 512.481 835.353" style="fill: none; stroke: #000; stroke-linecap: round; stroke-linejoin: round; stroke-width: 40px;"/>
  </g>
  <g>
    <polyline points="364.06 836.7 367.675 840.129 371.291 831.208 374.907 839.868 378.525 834.7 382.141 836.972 385.757 834.651 389.372 832.273 392.987 838.296 396.602 830.555 400.218 831.499 403.834 831.946 407.451 833.616 411.068 836.252 414.684 831.632 418.3 838.864 421.915 831.595 425.531 834.218 429.147 833.711 432.765 831.795 436.382 833.162 439.998 839.202 443.614 835.442 447.23 835.563 450.847 836.695 454.464 835.187 458.082 839.687 461.698 834.859 465.314 838.646 468.926 837.037 472.537 834.846 476.148 834.276 479.76 833.289 483.374 836.348 486.989 832.959 490.608 839.262 494.224 832.531 497.839 833.679 501.452 833.956 505.065 837.688 508.679 831.716 512.295 834.366 515.912 839.498 519.531 836.698 523.146 832.361 526.761 840.089 530.376 834.847 533.993 834.541 537.611 837.768 541.23 833.395 544.846 832.2 548.462 832.082 552.08 832.441 555.7 837.352 559.318 833.924 562.935 833.651 566.553 831.246 570.173 837.537 573.791 839.133 577.409 831.95 581.029 839.267 584.648 838.518 588.268 832.038 591.887 836.684 595.507 838.263 599.127 832.056 602.748 835.523 606.368 831.608 609.987 830.706 613.603 839.181 617.223 838.355 620.841 839.683 624.462 837.298 628.082 833.34 631.703 839.504 635.325 831.025 638.948 838.927 642.57 836.821 646.192 837.972 649.814 833.334 653.437 839 657.066 837.607 660.695 831.604" style="fill: #fff;"/>
    <polyline points="364.06 836.7 367.675 840.129 371.291 831.208 374.907 839.868 378.525 834.7 382.141 836.972 385.757 834.651 389.372 832.273 392.987 838.296 396.602 830.555 400.218 831.499 403.834 831.946 407.451 833.616 411.068 836.252 414.684 831.632 418.3 838.864 421.915 831.595 425.531 834.218 429.147 833.711 432.765 831.795 436.382 833.162 439.998 839.202 443.614 835.442 447.23 835.563 450.847 836.695 454.464 835.187 458.082 839.687 461.698 834.859 465.314 838.646 468.926 837.037 472.537 834.846 476.148 834.276 479.76 833.289 483.374 836.348 486.989 832.959 490.608 839.262 494.224 832.531 497.839 833.679 501.452 833.956 505.065 837.688 508.679 831.716 512.295 834.366 515.912 839.498 519.531 836.698 523.146 832.361 526.761 840.089 530.376 834.847 533.993 834.541 537.611 837.768 541.23 833.395 544.846 832.2 548.462 832.082 552.08 832.441 555.7 837.352 559.318 833.924 562.935 833.651 566.553 831.246 570.173 837.537 573.791 839.133 577.409 831.95 581.029 839.267 584.648 838.518 588.268 832.038 591.887 836.684 595.507 838.263 599.127 832.056 602.748 835.523 606.368 831.608 609.987 830.706 613.603 839.181 617.223 838.355 620.841 839.683 624.462 837.298 628.082 833.34 631.703 839.504 635.325 831.025 638.948 838.927 642.57 836.821 646.192 837.972 649.814 833.334 653.437 839 657.066 837.607 660.695 831.604" style="fill: none; stroke: #000; stroke-linecap: round; stroke-linejoin: round; stroke-width: 40px;"/>
  </g>
</svg>