<?xml version="1.0" encoding="UTF-8"?>
<svg id="Sticker" xmlns="http://www.w3.org/2000/svg" width="1000" height="1000" viewBox="0 0 1000 1000">
  <polygon points="502.916 589.033 501.887 595.354 502.323 600.572 509.8 596.84 512.709 598.804 515.389 601.094 517.394 604.417 521.86 604.048 520.678 612.569 525.47 611.651 529.894 611.156 530.328 617.647 536.321 614.149 540.051 614.627 539.728 623.157 544.955 620.65 547.97 622.621 549.348 628.322 552.777 629.557 557.394 627.865 560.873 628.814 565.787 625.896 566.31 634.845 569.861 635.684 573.993 634.708 576.675 638.185 581.781 633.715 585.49 633.629 588.876 634.645 591.032 640.584 594.501 641.594 598.081 642.121 601.182 644.938 606.245 637.874 608.417 645.783 612.04 646.109 616.336 641.933 619.346 646.188 623.744 640.027 626.484 647.312 630.868 639.503 634.259 641.004 637.501 645.079 641.325 640.771 644.549 647.319 648.173 646.462 651.811 643.643 655.356 643.657 658.896 642.759 662.546 649.069 666.029 644.675 669.594 644.688 673.024 642.11 676.925 647.458 680.751 649.697 684.096 646.004 687.047 639.379 690.625 639.456 695.088 646.173 698.604 645.019 702.388 645.656 705.184 640.387 708.593 639.093 712.099 638.374 715.773 638.431 720.516 642.972 722.68 636.471 725.918 634.702 728.999 632.478 732.996 633.471 735.826 630.543 739.197 629.436 744.067 632.621 747.465 631.374 750.316 628.709 753.595 627.226 755.499 622.506 759.703 623.276 765.824 628.002 769.069 626.248 770.72 621.338 774.834 621.386 776.976 617.685 777.792 611.798 784.087 615.51 787.276 613.744 787.019 606.546 793.942 610.613 795.737 606.754 796.557 601.644 799.234 599.271 805.881 602.147 803.956 593.772 811.1 596.969 809.833 589.79 813.109 588.162 815.441 585.437 823.249 588.651 820.151 580.093 822.627 577.566 824.871 574.812 832.645 577.347 835.305 574.843 839.356 573.578 837.226 566.843 837.97 562.774 844.46 563.496 841.39 556.399 845.567 555.157 846.78 551.596 851.351 550.526 854.25 548.166 859.571 547.44 860.797 543.847 859.9 538.905 863.471 536.892 859.814 530.387 867.666 530.934 869.155 527.59 868.921 523.29 867.068 518.171 869.09 515.221 878.444 516.033 875.592 510.511 876.902 507.142 874.776 502.162 878.386 499.906 879.064 496.291 887.893 496.198 881.795 489.696 886.362 487.691 890.228 485.328 885.733 479.743 889.868 477.45 891.709 474.276 893.232 470.976 897.997 468.73 890.649 462.575 896.403 460.6 898.684 457.503 899.258 453.902 899.778 450.294 898.775 446.307 900.384 443.003 901.18 439.492 898.522 435.25 898.14 431.568 900.094 428.349 903.779 426.106 898.362 425.08 900.25 431.894 893.767 430.203 891.079 432.419 891.711 438.931 890.118 442.997 886.002 443.604 879.411 440.116 876.906 442.743 873.473 443.831 873.828 452.049 869.363 451.375 864.959 450.516 861.842 452.312 858.784 454.308 854.348 452.733 853.025 459.641 847.59 454.777 846.281 462.68 841.57 459.473 838.856 463.354 834.529 460.871 830.739 460.274 827.532 462.455 824.483 465.926 820.828 466.15 817.532 468.938 814.033 470.698 809.905 466.531 806.461 468.933 802.434 463.3 799.157 469.442 795.327 464.347 791.861 467.614 788.293 467.489 784.6 468.53 781.244 466.417 777.054 469.34 774.545 463.927 771.679 461.244 766.658 465.403 763.469 463.502 760.29 461.71 755.106 464.175 754.469 457.277 749.544 458.737 747.841 454.475 742.422 456.209 742.721 449.265 740.137 446.782 736.732 445.399 735.258 441.53 728.68 443.917 728.382 438.682 726.897 434.963 721.923 435.137 716.062 436.134 716.758 430.11 715.249 426.491 713.096 423.558 706.787 424.811 706.321 420.167 703.318 418.075 703.557 412.775 699.964 411.262 693.606 412.484 691.627 409.382 693.505 402.411 688.181 402.648 686.095 399.629 685.309 395.242 683.368 392.011 675.047 395.656 672.451 393.237 671.831 388.571 672.771 381.939 669.015 380.725 663.76 381.479 659.382 381.323 660.034 374.443 654.887 375.462 653.419 371.212 650.219 369.488 646.993 367.831 644.846 364.204 639.359 366.929 637.094 363.426 632.718 364.564 629.138 364.153 626.708 360.543 624.277 356.247 621.338 352.883 617.545 352.575 613.792 352.251 609.644 355.092 606.506 349.947 602.651 351.779 598.985 351.564 595.317 352.217 591.991 358.67 588.301 355.726 584.435 353.427 581.576 358.239 576.987 353.44 573.107 353.227 571.579 360.968 567.595 360.056 565.191 363.539 562.498 365.915 555.988 360.597 553.31 363.402 553.016 369.888 548.344 369.108 546.234 372.262 545.418 376.895 538.762 374.322 534.418 374.94 537.009 382.885 532.174 383.036 529.611 385.521 523.697 385.194 528.507 393.764 522.096 393.253 522.16 397.71 517.843 399.059 516.116 402.225 511.013 403.345 513.125 408.775 513.66 413.115 510.271 415.328 510.286 419.28 510.658 423.305 509.476 426.569 507.34 429.441 500.983 430.787 496.473 433.073 499.998 438.396 498.529 434.752 497.806 431.222 498.989 426.9 494.394 424.906 489.183 423.366 491.026 418.638 488.137 416.131 492.339 409.881 490.834 406.52 483.409 406.694 487.214 400.109 482.908 398.558 478.846 397.003 474.68 395.687 473.731 391.993 471.237 389.492 471.321 384.701 469.699 381.261 463.234 382.656 460.647 380.359 458.95 377.028 455.215 376.112 453.059 373.245 451.609 369.192 446.244 371.101 443.988 368.221 442.095 364.38 440.478 359.422 437.029 358.102 431.793 361.799 428.157 361.858 426.351 355.336 422.3 356.765 419.215 353.767 415.367 355.01 412.01 352.426 408.462 350.142 404.724 349.888 401.196 358.939 397.346 351.655 394.054 355.922 389.956 352.077 387.523 359.858 384.105 360.305 378.753 353.231 375.756 356.35 374.362 363.717 370.154 362.279 367.068 364.052 361.573 360.532 358.556 362.769 356.651 366.963 354.061 369.642 351.536 372.317 347.089 371.979 344.323 374.313 340.234 374.8 341.117 381.967 334.098 378.762 334.813 385.365 331.754 387.242 324.214 384.04 326.912 392.508 318.517 388.658 316.502 391.847 318.659 399.349 310.615 396.225 309.444 400.212 311.386 407.281 303.543 404.542 307.169 413.221 299.064 410.275 296.396 412.709 297.511 418.888 293.661 420.146 293.816 425.413 285.5 422.127 283.589 425.291 284.923 431.875 279.54 431.426 279.758 436.986 274.219 436.228 275.637 443.361 271.374 443.995 266.684 443.972 266.483 449.613 258.758 445.291 257.827 450.08 255.378 452.866 251.431 453.312 249.949 457.876 245.726 457.679 242.503 459.218 239.768 461.876 236.654 463.854 233.679 466.432 229.227 464.394 225.941 465.96 222.142 465.254 219.088 468.679 215.021 464.815 211.78 468.796 208.095 463.678 204.414 472.381 200.892 468.601 197.395 466.201 193.649 467.771 190.144 466.241 186.322 467.792 182.317 470.178 178.505 470.592 175.615 465.397 172.849 460.491 168.314 464.757 166.03 458.458 161.145 463.311 157.711 462.013 154.078 461.427 150.899 459.374 148.325 455.729 145.185 453.93 139.235 459.175 137.59 453.584 133.806 453.155 131.353 449.888 125.947 452.449 124.665 447.126 123.037 442.81 117.788 444.487 114.188 443.296 114.299 436.876 107.96 439.329 107.745 433.81 103.951 432.729 97.595 434.085 96.656 429.685 95.568 424.398 100.882 428.191 99.726 432.002 97.792 436.053 94.425 440.512 96.13 443.868 98.415 447.05 102.016 449.845 99.337 454.322 104.248 456.68 105.816 459.957 104.106 464.256 110.728 465.892 108.963 470.246 108.73 474.129 111.902 476.806 106.795 482.558 111.624 484.598 114.549 487.315 118.368 489.619 114.563 495.132 120.822 496.329 117.605 501.721 119.465 504.856 122.519 507.403 122.969 511.208 123.109 515.208 129.172 516.115 131.463 518.944 127.353 525.352 131.091 527.413 135.315 529.12 134.986 533.538 135.836 537.289 138.371 539.987 140.995 542.605 143.405 545.347 142.752 550.246 144.853 553.25 150.685 553.456 153.764 555.63 158.291 556.611 156.232 562.884 158.541 565.679 165.577 564.36 160.58 573.591 166.123 573.478 165.657 578.923 172.539 577.317 173.933 581.014 174.683 585.461 182.848 582.019 180.615 589.795 185.876 589.29 189.922 590.041 187.545 598.594 191.164 599.942 196.168 599.406 199.505 600.949 204.372 600.29 205.989 604.188 205.827 610.921 209.452 612.053 216.253 607.939 218.871 610.449 220.381 614.969 221.934 619.631 224.83 621.971 231.241 617.382 234.655 618.468 234.896 626.375 240.522 622.698 243.511 624.771 247.07 625.503 250.109 627.525 254.104 627.023 255.865 632.734 260.9 629.062 262.299 636.42 267.525 631.644 269.666 637.154 273.031 638.597 276.905 638.062 280.865 636.967 284.599 636.637 288.144 637.084 290.885 641.773 294.619 641.415 297.961 643.354 302.061 640.323 305.226 643.666 309.135 641.375 312.51 643.508 316.016 644.689 319.699 643.96 323.429 642.137 326.75 646.15 330.235 648.487 334.06 641.407 337.429 649.642 341.049 649.541 344.656 647.886 348.239 647.116 351.831 647.184 355.268 643.668 359.097 648.487 362.568 646.368 366.241 647.235 369.731 645.902 372.685 639.931 376.484 642.024 380.204 643.049 383.427 640.507 387.806 645.332 390.12 637.738 394.029 639.448 397.281 637.646 402.234 643.679 403.8 634.502 408.218 637.693 410.774 633.41 415.191 636.128 419.684 638.727 422.102 634.292 426.348 635.778 429.439 633.652 431.025 627.414 435.007 628.006 439.623 630.064 443.531 630.115 444.104 622.215 448.934 624.437 452.895 624.49 457.064 624.857 457.085 616.749 460.426 615.54 463.613 614.018 465.564 610.272 472.028 614.465 472.174 607.706 477.546 609.702 478.222 604.154 480.435 601.161 484.546 600.974 486.701 597.96 489.671 596.108 491.891 593.316 496.509 593.445 502.916 589.033"/>
  <polygon points="502.916 589.033 501.887 595.354 502.323 600.572 509.8 596.84 512.709 598.804 515.389 601.094 517.394 604.417 521.86 604.048 520.678 612.569 525.47 611.651 529.894 611.156 530.328 617.647 536.321 614.149 540.051 614.627 539.728 623.157 544.955 620.65 547.97 622.621 549.348 628.322 552.777 629.557 557.394 627.865 560.873 628.814 565.787 625.896 566.31 634.845 569.861 635.684 573.993 634.708 576.675 638.185 581.781 633.715 585.49 633.629 588.876 634.645 591.032 640.584 594.501 641.594 598.081 642.121 601.182 644.938 606.245 637.874 608.417 645.783 612.04 646.109 616.336 641.933 619.346 646.188 623.744 640.027 626.484 647.312 630.868 639.503 634.259 641.004 637.501 645.079 641.325 640.771 644.549 647.319 648.173 646.462 651.811 643.643 655.356 643.657 658.896 642.759 662.546 649.069 666.029 644.675 669.594 644.688 673.024 642.11 676.925 647.458 680.751 649.697 684.096 646.004 687.047 639.379 690.625 639.456 695.088 646.173 698.604 645.019 702.388 645.656 705.184 640.387 708.593 639.093 712.099 638.374 715.773 638.431 720.516 642.972 722.68 636.471 725.918 634.702 728.999 632.478 732.996 633.471 735.826 630.543 739.197 629.436 744.067 632.621 747.465 631.374 750.316 628.709 753.595 627.226 755.499 622.506 759.703 623.276 765.824 628.002 769.069 626.248 770.72 621.338 774.834 621.386 776.976 617.685 777.792 611.798 784.087 615.51 787.276 613.744 787.019 606.546 793.942 610.613 795.737 606.754 796.557 601.644 799.234 599.271 805.881 602.147 803.956 593.772 811.1 596.969 809.833 589.79 813.109 588.162 815.441 585.437 823.249 588.651 820.151 580.093 822.627 577.566 824.871 574.812 832.645 577.347 835.305 574.843 839.356 573.578 837.226 566.843 837.97 562.774 844.46 563.496 841.39 556.399 845.567 555.157 846.78 551.596 851.351 550.526 854.25 548.166 859.571 547.44 860.797 543.847 859.9 538.905 863.471 536.892 859.814 530.387 867.666 530.934 869.155 527.59 868.921 523.29 867.068 518.171 869.09 515.221 878.444 516.033 875.592 510.511 876.902 507.142 874.776 502.162 878.386 499.906 879.064 496.291 887.893 496.198 881.795 489.696 886.362 487.691 890.228 485.328 885.733 479.743 889.868 477.45 891.709 474.276 893.232 470.976 897.997 468.73 890.649 462.575 896.403 460.6 898.684 457.503 899.258 453.902 899.778 450.294 898.775 446.307 900.384 443.003 901.18 439.492 898.522 435.25 898.14 431.568 900.094 428.349 903.779 426.106 898.362 425.08 900.25 431.894 893.767 430.203 891.079 432.419 891.711 438.931 890.118 442.997 886.002 443.604 879.411 440.116 876.906 442.743 873.473 443.831 873.828 452.049 869.363 451.375 864.959 450.516 861.842 452.312 858.784 454.308 854.348 452.733 853.025 459.641 847.59 454.777 846.281 462.68 841.57 459.473 838.856 463.354 834.529 460.871 830.739 460.274 827.532 462.455 824.483 465.926 820.828 466.15 817.532 468.938 814.033 470.698 809.905 466.531 806.461 468.933 802.434 463.3 799.157 469.442 795.327 464.347 791.861 467.614 788.293 467.489 784.6 468.53 781.244 466.417 777.054 469.34 774.545 463.927 771.679 461.244 766.658 465.403 763.469 463.502 760.29 461.71 755.106 464.175 754.469 457.277 749.544 458.737 747.841 454.475 742.422 456.209 742.721 449.265 740.137 446.782 736.732 445.399 735.258 441.53 728.68 443.917 728.382 438.682 726.897 434.963 721.923 435.137 716.062 436.134 716.758 430.11 715.249 426.491 713.096 423.558 706.787 424.811 706.321 420.167 703.318 418.075 703.557 412.775 699.964 411.262 693.606 412.484 691.627 409.382 693.505 402.411 688.181 402.648 686.095 399.629 685.309 395.242 683.368 392.011 675.047 395.656 672.451 393.237 671.831 388.571 672.771 381.939 669.015 380.725 663.76 381.479 659.382 381.323 660.034 374.443 654.887 375.462 653.419 371.212 650.219 369.488 646.993 367.831 644.846 364.204 639.359 366.929 637.094 363.426 632.718 364.564 629.138 364.153 626.708 360.543 624.277 356.247 621.338 352.883 617.545 352.575 613.792 352.251 609.644 355.092 606.506 349.947 602.651 351.779 598.985 351.564 595.317 352.217 591.991 358.67 588.301 355.726 584.435 353.427 581.576 358.239 576.987 353.44 573.107 353.227 571.579 360.968 567.595 360.056 565.191 363.539 562.498 365.915 555.988 360.597 553.31 363.402 553.016 369.888 548.344 369.108 546.234 372.262 545.418 376.895 538.762 374.322 534.418 374.94 537.009 382.885 532.174 383.036 529.611 385.521 523.697 385.194 528.507 393.764 522.096 393.253 522.16 397.71 517.843 399.059 516.116 402.225 511.013 403.345 513.125 408.775 513.66 413.115 510.271 415.328 510.286 419.28 510.658 423.305 509.476 426.569 507.34 429.441 500.983 430.787 496.473 433.073 499.998 438.396 498.529 434.752 497.806 431.222 498.989 426.9 494.394 424.906 489.183 423.366 491.026 418.638 488.137 416.131 492.339 409.881 490.834 406.52 483.409 406.694 487.214 400.109 482.908 398.558 478.846 397.003 474.68 395.687 473.731 391.993 471.237 389.492 471.321 384.701 469.699 381.261 463.234 382.656 460.647 380.359 458.95 377.028 455.215 376.112 453.059 373.245 451.609 369.192 446.244 371.101 443.988 368.221 442.095 364.38 440.478 359.422 437.029 358.102 431.793 361.799 428.157 361.858 426.351 355.336 422.3 356.765 419.215 353.767 415.367 355.01 412.01 352.426 408.462 350.142 404.724 349.888 401.196 358.939 397.346 351.655 394.054 355.922 389.956 352.077 387.523 359.858 384.105 360.305 378.753 353.231 375.756 356.35 374.362 363.717 370.154 362.279 367.068 364.052 361.573 360.532 358.556 362.769 356.651 366.963 354.061 369.642 351.536 372.317 347.089 371.979 344.323 374.313 340.234 374.8 341.117 381.967 334.098 378.762 334.813 385.365 331.754 387.242 324.214 384.04 326.912 392.508 318.517 388.658 316.502 391.847 318.659 399.349 310.615 396.225 309.444 400.212 311.386 407.281 303.543 404.542 307.169 413.221 299.064 410.275 296.396 412.709 297.511 418.888 293.661 420.146 293.816 425.413 285.5 422.127 283.589 425.291 284.923 431.875 279.54 431.426 279.758 436.986 274.219 436.228 275.637 443.361 271.374 443.995 266.684 443.972 266.483 449.613 258.758 445.291 257.827 450.08 255.378 452.866 251.431 453.312 249.949 457.876 245.726 457.679 242.503 459.218 239.768 461.876 236.654 463.854 233.679 466.432 229.227 464.394 225.941 465.96 222.142 465.254 219.088 468.679 215.021 464.815 211.78 468.796 208.095 463.678 204.414 472.381 200.892 468.601 197.395 466.201 193.649 467.771 190.144 466.241 186.322 467.792 182.317 470.178 178.505 470.592 175.615 465.397 172.849 460.491 168.314 464.757 166.03 458.458 161.145 463.311 157.711 462.013 154.078 461.427 150.899 459.374 148.325 455.729 145.185 453.93 139.235 459.175 137.59 453.584 133.806 453.155 131.353 449.888 125.947 452.449 124.665 447.126 123.037 442.81 117.788 444.487 114.188 443.296 114.299 436.876 107.96 439.329 107.745 433.81 103.951 432.729 97.595 434.085 96.656 429.685 95.568 424.398 100.882 428.191 99.726 432.002 97.792 436.053 94.425 440.512 96.13 443.868 98.415 447.05 102.016 449.845 99.337 454.322 104.248 456.68 105.816 459.957 104.106 464.256 110.728 465.892 108.963 470.246 108.73 474.129 111.902 476.806 106.795 482.558 111.624 484.598 114.549 487.315 118.368 489.619 114.563 495.132 120.822 496.329 117.605 501.721 119.465 504.856 122.519 507.403 122.969 511.208 123.109 515.208 129.172 516.115 131.463 518.944 127.353 525.352 131.091 527.413 135.315 529.12 134.986 533.538 135.836 537.289 138.371 539.987 140.995 542.605 143.405 545.347 142.752 550.246 144.853 553.25 150.685 553.456 153.764 555.63 158.291 556.611 156.232 562.884 158.541 565.679 165.577 564.36 160.58 573.591 166.123 573.478 165.657 578.923 172.539 577.317 173.933 581.014 174.683 585.461 182.848 582.019 180.615 589.795 185.876 589.29 189.922 590.041 187.545 598.594 191.164 599.942 196.168 599.406 199.505 600.949 204.372 600.29 205.989 604.188 205.827 610.921 209.452 612.053 216.253 607.939 218.871 610.449 220.381 614.969 221.934 619.631 224.83 621.971 231.241 617.382 234.655 618.468 234.896 626.375 240.522 622.698 243.511 624.771 247.07 625.503 250.109 627.525 254.104 627.023 255.865 632.734 260.9 629.062 262.299 636.42 267.525 631.644 269.666 637.154 273.031 638.597 276.905 638.062 280.865 636.967 284.599 636.637 288.144 637.084 290.885 641.773 294.619 641.415 297.961 643.354 302.061 640.323 305.226 643.666 309.135 641.375 312.51 643.508 316.016 644.689 319.699 643.96 323.429 642.137 326.75 646.15 330.235 648.487 334.06 641.407 337.429 649.642 341.049 649.541 344.656 647.886 348.239 647.116 351.831 647.184 355.268 643.668 359.097 648.487 362.568 646.368 366.241 647.235 369.731 645.902 372.685 639.931 376.484 642.024 380.204 643.049 383.427 640.507 387.806 645.332 390.12 637.738 394.029 639.448 397.281 637.646 402.234 643.679 403.8 634.502 408.218 637.693 410.774 633.41 415.191 636.128 419.684 638.727 422.102 634.292 426.348 635.778 429.439 633.652 431.025 627.414 435.007 628.006 439.623 630.064 443.531 630.115 444.104 622.215 448.934 624.437 452.895 624.49 457.064 624.857 457.085 616.749 460.426 615.54 463.613 614.018 465.564 610.272 472.028 614.465 472.174 607.706 477.546 609.702 478.222 604.154 480.435 601.161 484.546 600.974 486.701 597.96 489.671 596.108 491.891 593.316 496.509 593.445 502.916 589.033" style="fill: none; stroke: #000; stroke-linecap: round; stroke-linejoin: round; stroke-width: 35px;"/>
</svg>