<?xml version="1.0" encoding="UTF-8"?>
<svg id="Sticker" xmlns="http://www.w3.org/2000/svg" width="1000" height="1000" viewBox="0 0 1000 1000">
  <polygon points="419.29 693.825 421.739 695.009 424.896 698.796 429.08 701.587 431.08 694.13 435.195 695.723 438.107 693.487 440.2 689.692 444.513 690.604 449.766 692.807 449.812 685.698 452.326 683.122 456.551 683.223 462.426 685.583 465.218 683.247 468.508 681.618 466.188 672.501 474.523 677.553 475.798 673.334 477.305 669.503 477.427 664.093 479.917 661.594 488.65 666.224 487.951 660.022 493.111 660.379 492.407 654.356 495.82 652.786 500.655 652.629 499.926 646.81 503.911 645.741 503.487 640.401 507.257 639.098 509.994 636.797 513.955 635.555 515.603 632.252 521.546 632.55 519.371 626.146 521.409 623.248 523.198 616.769 529.227 617.649 532.539 619.075 534.822 624.906 538.158 626.404 541.384 628.405 545.36 627.075 548.685 628.649 552.786 626.639 556.169 627.912 558.86 632.562 563.177 629.334 565.794 634.534 569.662 633.474 573.687 631.515 577.678 629.611 581.511 628.454 583.908 635.398 587.735 634.305 591.326 634.533 595.424 631.571 598.861 632.641 602.432 632.849 605.232 638.44 609.309 635.115 613.031 634.138 616.461 635.381 619.342 641.511 622.676 644.231 626.285 644.581 630.606 636.954 633.611 644.035 637.294 643.295 641.164 638.955 644.46 644.953 648.252 640.075 651.864 637.376 655.385 645.47 658.877 636.58 662.409 637.772 666.343 644.448 669.866 642.6 673.04 638.629 676.583 638.531 679.613 635.874 683.842 638.523 686.659 635.726 688.773 632.166 695.677 637.495 693.702 628.96 696.671 627.889 699.186 625.83 699.923 621.878 694.374 619.678 691.362 616.847 693.346 612.5 691.593 609.295 689.026 606.384 695.322 600.365 691.947 597.706 690.003 594.564 688.193 591.385 690.101 586.691 687.736 583.717 679.4 583.403 676.999 580.592 682.352 574.142 681.29 570.604 673.676 570.374 674.605 565.864 669.403 564.603 673.949 557.961 667.337 557.611 672.082 550.541 669.465 547.829 666.909 545.105 666.096 541.21 655.936 543.922 660.856 535.877 655.342 535.496 655.707 530.558 647.804 532.456 649.707 526.058 643.821 526.58 645.018 520.457 639.867 520.533 641.929 513.003 637.423 512.486 634.761 511.872 637.292 510.734 636.238 505.209 642.918 505.913 638.865 498.124 644.964 498.297 648.954 496.779 645.372 489.56 647.515 486.682 655.784 488.253 658.968 486.054 660.95 482.985 658.989 477.182 661.258 474.355 665.285 472.704 667.589 469.869 671.113 467.819 667.24 461.017 668.703 457.691 671.418 455.145 677.962 454.878 675.712 449.324 682.31 448.955 683.751 445.566 681.404 440.12 684.216 437.528 685.301 434.015 688.943 431.789 691.319 428.887 687.363 423.033 688.605 419.684 690.222 416.506 697.246 415.487 694.545 410.544 699.774 408.589 699.406 404.597 699.357 400.779 699.707 397.128 698.476 393.143 705.152 390.905 706.509 387.349 706.528 383.553 705.582 379.71 707.68 376.048 702.604 372.382 708.313 368.28 704.163 364.404 698.191 368.494 697.06 360.6 693.594 359.227 690.057 358.066 685.629 362.61 682.872 355.921 678.968 358.054 675.407 356.47 671.686 359.271 668.09 358.187 664.426 356.964 660.956 359.763 656.98 355.516 653.373 356.39 649.806 357.376 646.872 362.064 642.383 357.424 639.576 361.965 637.224 367.764 633.844 368.64 628.905 363.786 627.027 370.236 621.612 364.634 619.357 369.378 616.744 372.703 613.46 373.988 608.727 371.511 606.265 374.995 604.068 378.93 600.221 378.899 594.085 373.938 590.396 374.634 590.686 383.563 585.3 380.733 583.439 384.976 579.568 385.297 575.713 385.721 574.212 390.397 567.719 386.297 567.001 392.223 564.986 395.827 561.419 393.934 558.918 392.987 557.555 389.525 558.11 384.695 554.213 383.012 548.558 382.634 546.967 379.334 542.97 377.81 542.235 373.865 540.883 370.363 542.977 364.186 540.532 361.47 537.728 359.042 530.136 360.472 527.442 358.032 531.323 350.163 528.397 347.854 527.367 343.938 519.267 346.133 522.389 338.557 519.778 335.972 511.25 338.865 511.867 333.353 509.368 330.725 503.812 331.15 502.22 327.676 498.657 326.246 498.055 321.62 498.973 315.048 492.42 317.141 491.147 312.935 490.012 308.262 483.69 310.918 479.307 311.32 479.634 303.429 476.412 301.249 472.35 301.021 467.894 303.658 463.494 297.262 462.774 305.263 458.826 305.906 457.345 309.491 455.243 312.275 451.181 313.377 448.248 315.629 450.384 321.513 443.41 321.092 442.864 324.984 444.155 329.729 438.403 330.754 442.857 336.719 436.648 337.844 434.603 340.886 433.687 344.369 431.207 347.348 434.816 352.13 427.554 353.884 433.494 359.001 429.252 361.697 426.025 364.744 427.246 368.614 424.696 371.883 429.585 376.114 424.701 379.171 427.067 382.976 429.795 386.709 430.084 390.232 429.857 393.729 428.116 397.212 421.404 400.755 431.042 404.24 431.096 407.734 429.528 411.302 427.606 414.939 430.343 418.315 423.092 422.434 430.985 425.336 430.534 431.815 424.323 432.571 420.694 430.981 416.789 425.213 413.488 429.593 410.128 432.48 406.207 427.667 402.488 425.99 399.636 434.652 395.766 431.204 392.667 436.157 389.094 435.967 385.254 433.346 381.186 429.003 378.256 434.672 373.99 429.215 371.224 435.643 367.792 436.72 363.447 431.558 360.569 436.395 357.747 441.124 352.888 433.723 349.974 437.726 346.089 436.407 341.931 434.017 338.882 437.013 336.269 441.586 332.268 440.22 329.109 442.23 325.527 442.668 321.968 443.27 317.436 441.229 314.919 444.949 313.953 451.728 310.029 451.377 308.122 454.846 305.652 456.837 298.479 453.519 294.006 455.18 294.419 460.835 295.416 464.891 297.521 468.126 298.712 471.523 302.633 473.835 300.774 478.459 305.32 480.243 302.487 485.758 307.223 487.232 305 492.871 306.322 496.469 315.529 494.392 311.497 501.907 318.742 500.762 321.868 502.725 319.713 509.406 321.036 513.18 328.268 511.175 331.681 512.724 333.099 516.367 334.895 519.693 339.888 519.342 338.51 526.572 342.902 526.869 345.91 528.843 349.928 529.429 350.689 534.495 351.189 540.144 354.879 541.236 362.366 536.372 364.322 539.918 365.632 544.64 370.953 542.72 370.639 550.442 373.82 552.221 377.37 553.321 379.669 556.763 383.836 556.638 387.089 558.252 390.086 560.398 395.88 556.645 398.815 558.828 402.357 559.706 402.817 567.615 401.74 567.141 399.758 570.658 405.46 574.555 399.539 577.898 400.971 581.578 404.475 585.316 404.115 588.906 406.142 592.565 403.606 596.1 399.561 599.626 400.527 603.261 404.352 606.917 400.868 610.496 407.33 614.114 404.668 617.708 399.38 621.356 407.689 624.85 398.602 628.628 401.439 632.184 405.247 635.668 401.248 639.438 403.437 642.954 406.086 646.408 400.993 650.366 404.272 653.749 403.499 657.447 402.124 661.242 402.982 664.816 404.796 668.243 406.328 671.668 405.694 675.472 406.311 679.082 408.844 682.188 407.256 686.538 415.595 687.057 413.295 691.918 417.722 692.433 419.29 693.825" style="fill: #fff;"/>
  <polygon points="419.29 693.825 421.739 695.009 424.896 698.796 429.08 701.587 431.08 694.13 435.195 695.723 438.107 693.487 440.2 689.692 444.513 690.604 449.766 692.807 449.812 685.698 452.326 683.122 456.551 683.223 462.426 685.583 465.218 683.247 468.508 681.618 466.188 672.501 474.523 677.553 475.798 673.334 477.305 669.503 477.427 664.093 479.917 661.594 488.65 666.224 487.951 660.022 493.111 660.379 492.407 654.356 495.82 652.786 500.655 652.629 499.926 646.81 503.911 645.741 503.487 640.401 507.257 639.098 509.994 636.797 513.955 635.555 515.603 632.252 521.546 632.55 519.371 626.146 521.409 623.248 523.198 616.769 529.227 617.649 532.539 619.075 534.822 624.906 538.158 626.404 541.384 628.405 545.36 627.075 548.685 628.649 552.786 626.639 556.169 627.912 558.86 632.562 563.177 629.334 565.794 634.534 569.662 633.474 573.687 631.515 577.678 629.611 581.511 628.454 583.908 635.398 587.735 634.305 591.326 634.533 595.424 631.571 598.861 632.641 602.432 632.849 605.232 638.44 609.309 635.115 613.031 634.138 616.461 635.381 619.342 641.511 622.676 644.231 626.285 644.581 630.606 636.954 633.611 644.035 637.294 643.295 641.164 638.955 644.46 644.953 648.252 640.075 651.864 637.376 655.385 645.47 658.877 636.58 662.409 637.772 666.343 644.448 669.866 642.6 673.04 638.629 676.583 638.531 679.613 635.874 683.842 638.523 686.659 635.726 688.773 632.166 695.677 637.495 693.702 628.96 696.671 627.889 699.186 625.83 699.923 621.878 694.374 619.678 691.362 616.847 693.346 612.5 691.593 609.295 689.026 606.384 695.322 600.365 691.947 597.706 690.003 594.564 688.193 591.385 690.101 586.691 687.736 583.717 679.4 583.403 676.999 580.592 682.352 574.142 681.29 570.604 673.676 570.374 674.605 565.864 669.403 564.603 673.949 557.961 667.337 557.611 672.082 550.541 669.465 547.829 666.909 545.105 666.096 541.21 655.936 543.922 660.856 535.877 655.342 535.496 655.707 530.558 647.804 532.456 649.707 526.058 643.821 526.58 645.018 520.457 639.867 520.533 641.929 513.003 637.423 512.486 634.761 511.872 637.292 510.734 636.238 505.209 642.918 505.913 638.865 498.124 644.964 498.297 648.954 496.779 645.372 489.56 647.515 486.682 655.784 488.253 658.968 486.054 660.95 482.985 658.989 477.182 661.258 474.355 665.285 472.704 667.589 469.869 671.113 467.819 667.24 461.017 668.703 457.691 671.418 455.145 677.962 454.878 675.712 449.324 682.31 448.955 683.751 445.566 681.404 440.12 684.216 437.528 685.301 434.015 688.943 431.789 691.319 428.887 687.363 423.033 688.605 419.684 690.222 416.506 697.246 415.487 694.545 410.544 699.774 408.589 699.406 404.597 699.357 400.779 699.707 397.128 698.476 393.143 705.152 390.905 706.509 387.349 706.528 383.553 705.582 379.71 707.68 376.048 702.604 372.382 708.313 368.28 704.163 364.404 698.191 368.494 697.06 360.6 693.594 359.227 690.057 358.066 685.629 362.61 682.872 355.921 678.968 358.054 675.407 356.47 671.686 359.271 668.09 358.187 664.426 356.964 660.956 359.763 656.98 355.516 653.373 356.39 649.806 357.376 646.872 362.064 642.383 357.424 639.576 361.965 637.224 367.764 633.844 368.64 628.905 363.786 627.027 370.236 621.612 364.634 619.357 369.378 616.744 372.703 613.46 373.988 608.727 371.511 606.265 374.995 604.068 378.93 600.221 378.899 594.085 373.938 590.396 374.634 590.686 383.563 585.3 380.733 583.439 384.976 579.568 385.297 575.713 385.721 574.212 390.397 567.719 386.297 567.001 392.223 564.986 395.827 561.419 393.934 558.918 392.987 557.555 389.525 558.11 384.695 554.213 383.012 548.558 382.634 546.967 379.334 542.97 377.81 542.235 373.865 540.883 370.363 542.977 364.186 540.532 361.47 537.728 359.042 530.136 360.472 527.442 358.032 531.323 350.163 528.397 347.854 527.367 343.938 519.267 346.133 522.389 338.557 519.778 335.972 511.25 338.865 511.867 333.353 509.368 330.725 503.812 331.15 502.22 327.676 498.657 326.246 498.055 321.62 498.973 315.048 492.42 317.141 491.147 312.935 490.012 308.262 483.69 310.918 479.307 311.32 479.634 303.429 476.412 301.249 472.35 301.021 467.894 303.658 463.494 297.262 462.774 305.263 458.826 305.906 457.345 309.491 455.243 312.275 451.181 313.377 448.248 315.629 450.384 321.513 443.41 321.092 442.864 324.984 444.155 329.729 438.403 330.754 442.857 336.719 436.648 337.844 434.603 340.886 433.687 344.369 431.207 347.348 434.816 352.13 427.554 353.884 433.494 359.001 429.252 361.697 426.025 364.744 427.246 368.614 424.696 371.883 429.585 376.114 424.701 379.171 427.067 382.976 429.795 386.709 430.084 390.232 429.857 393.729 428.116 397.212 421.404 400.755 431.042 404.24 431.096 407.734 429.528 411.302 427.606 414.939 430.343 418.315 423.092 422.434 430.985 425.336 430.534 431.815 424.323 432.571 420.694 430.981 416.789 425.213 413.488 429.593 410.128 432.48 406.207 427.667 402.488 425.99 399.636 434.652 395.766 431.204 392.667 436.157 389.094 435.967 385.254 433.346 381.186 429.003 378.256 434.672 373.99 429.215 371.224 435.643 367.792 436.72 363.447 431.558 360.569 436.395 357.747 441.124 352.888 433.723 349.974 437.726 346.089 436.407 341.931 434.017 338.882 437.013 336.269 441.586 332.268 440.22 329.109 442.23 325.527 442.668 321.968 443.27 317.436 441.229 314.919 444.949 313.953 451.728 310.029 451.377 308.122 454.846 305.652 456.837 298.479 453.519 294.006 455.18 294.419 460.835 295.416 464.891 297.521 468.126 298.712 471.523 302.633 473.835 300.774 478.459 305.32 480.243 302.487 485.758 307.223 487.232 305 492.871 306.322 496.469 315.529 494.392 311.497 501.907 318.742 500.762 321.868 502.725 319.713 509.406 321.036 513.18 328.268 511.175 331.681 512.724 333.099 516.367 334.895 519.693 339.888 519.342 338.51 526.572 342.902 526.869 345.91 528.843 349.928 529.429 350.689 534.495 351.189 540.144 354.879 541.236 362.366 536.372 364.322 539.918 365.632 544.64 370.953 542.72 370.639 550.442 373.82 552.221 377.37 553.321 379.669 556.763 383.836 556.638 387.089 558.252 390.086 560.398 395.88 556.645 398.815 558.828 402.357 559.706 402.817 567.615 401.74 567.141 399.758 570.658 405.46 574.555 399.539 577.898 400.971 581.578 404.475 585.316 404.115 588.906 406.142 592.565 403.606 596.1 399.561 599.626 400.527 603.261 404.352 606.917 400.868 610.496 407.33 614.114 404.668 617.708 399.38 621.356 407.689 624.85 398.602 628.628 401.439 632.184 405.247 635.668 401.248 639.438 403.437 642.954 406.086 646.408 400.993 650.366 404.272 653.749 403.499 657.447 402.124 661.242 402.982 664.816 404.796 668.243 406.328 671.668 405.694 675.472 406.311 679.082 408.844 682.188 407.256 686.538 415.595 687.057 413.295 691.918 417.722 692.433 419.29 693.825" style="fill: none; stroke: #000; stroke-linecap: round; stroke-linejoin: round; stroke-width: 40px;"/>
</svg>