<?xml version="1.0" encoding="UTF-8"?>
<svg id="Sticker" xmlns="http://www.w3.org/2000/svg" width="1000" height="1000" viewBox="0 0 1000 1000">
  <polyline points="262.508 675.597 266.996 676.701 266.076 681.917 269.333 683.926 266.743 690.956 274.137 689.294 274.526 693.894 275.784 697.808 278.951 699.862 282.705 701.237 285.138 703.994 286.395 708.176 290.842 708.582 297.293 706.191 298.885 709.974 297.982 717.55 304.121 714.993 306.539 717.922 307.522 723.464 313.314 720.627 313.638 727.979 319.42 724.524 324.166 722.607 325.69 728.315 327.559 733.995 331.429 734.37 336.841 728.946 339.004 735.187 342.259 738.012 346.771 733.982 350.327 734.914 353.888 736.266 357.863 730.086 361.291 734.212 364.94 735.426 368.818 739.217 372.011 732.966 376.227 738.064 379.882 737.276 382.777 732.267 386.903 734.485 390.786 734.955 393.932 732.307 396.303 727.276 399.284 724.902 402.6 723.723 406.792 724.922 411.138 726.161 415.146 726.26 418.815 725.416 420.091 719.563 425.657 722.514 429.19 721.227 428.581 712.765 435.832 717.79 436.749 712.344 439.404 709.787 443.753 709.614 443.766 703.578 447.739 702.834 450.104 700.051 455.603 700.803 457.467 697.392 457.865 692.6 464.558 694.017 465.107 689.483 465.419 684.93 470.352 684.299 473.267 681.892 473.554 677.53 474.228 673.584 476.504 670.776 482.067 669.935 478.228 663.469 486.548 663.905 480.879 656.88 485.235 655.033 490.272 653.301 486.087 647.602 490.857 645.607 492.917 642.466 490.306 637.783 495.125 635.476 491.862 630.815 491.343 627.03 498.446 624.955 493.653 620.293 495.57 617.019 494.31 613.222 498.702 610.195 495.718 606.252 503.415 603.296 503.499 599.586 503.228 595.867 495.661 592.031 499.77 588.485 503.986 584.78 503.907 581.078 496.518 577.781 501.531 573.832 502.593 570.053 503.395 566.257" style="fill: none; stroke: #000; stroke-linecap: round; stroke-linejoin: round; stroke-width: 40px;"/>
  <polyline points="504.762 567.131 502.71 570.529 502.154 574.095 502.432 577.717 499.798 581.211 498.987 584.831 503.85 588.482 498.523 592.136 495.747 595.902 496.515 599.58 502.692 602.808 497.069 606.973 502.145 610.089 499.232 614.156 500.962 617.6 504.747 620.6 507.81 623.605 505.756 627.726 501.06 632.696 507.353 634.747 507.514 638.476 509.713 641.549 513.364 644.017 507.101 650.371 508.152 653.994 515.518 654.687 512.545 660.186 518.275 661.337 515.405 667.113 524.759 665.815 523.003 671.113 525.262 673.953 527.628 676.698 525.176 683.105 532.236 682.23 531.333 687.724 537.316 687.322 539.205 690.462 541.517 693.238 543.959 695.902 548.254 696.523 551.518 698.162 549.27 706.55 555.588 704.435 554.864 711.533 559.091 711.99 563.565 711.878 565.162 716.192 567.95 718.744 573.536 716.28 575.451 720.391 580.331 718.714 581.662 724.39 587.573 719.9 587.908 728.584 592.908 725.756 594.597 731.975 598.248 732.82 603.027 729.664 606.547 730.497 610.946 727.51 613.84 730.888 617.702 729.605 620.078 737.619 624.161 734.904 627.802 735.074 631.325 736.965 635.222 730.408 638.729 738.038 642.248 732.732 646.371 739.496 650.084 738.394 653.127 733.415 655.856 728.553 660.425 732.824 662.903 728.058 667.871 732.178 670.625 728.863 674.388 728.553 677.313 726.101 679.22 721.628 685.928 727.149 687.491 722.148 689.305 718.008 696.244 722.473 698.101 718.427 702.277 717.957 700.853 709.644 707.133 711.973 709.516 709.037 713.81 708.42 716.129 705.418 719.711 703.834 717.634 696.318 721.176 694.783 723.796 692.289 724.601 688.138 728.201 686.543 733.445 686.224 732.094 680.451 739.514 681.555 739.342 676.281" style="fill: none; stroke: #000; stroke-linecap: round; stroke-linejoin: round; stroke-width: 40px;"/>
  <g>
    <polygon points="510.462 565.369 507.002 565.04 504.048 561.368 500.377 562.694 496.109 565.288 491.975 566.37 490.644 559.092 485.362 563.036 482.894 559.531 478.007 561.61 475.476 558.418 472.545 556.185 471.148 551.149 467.937 549.634 465.929 546.022 459.539 549.828 459.961 542.275 455.893 542.093 449.027 546.089 450.812 536.895 445.79 537.946 440.211 539.653 439.859 533.911 433.809 536.109 435.084 528.312 433.649 524.289 425.193 529.431 425.954 522.577 420.367 523.84 417.665 521.43 418.427 514.8 416.798 511.168 414.227 508.687 410.561 507.495 406.382 506.865 402.708 505.614 398.312 505.148 395.794 502.547 397.157 495.682 393.945 493.892 388.408 494.585 386.224 491.646 387.616 484.959 383.795 483.78 381.166 481.349 376.482 481.004 372.692 479.713 368.526 478.771 369.951 472.288 363.603 473.462 363.215 468.809 360.913 466.027 362.471 459.604 357.367 459.483 352.048 459.508 353.735 453.072 351.13 450.599 348.954 447.737 342.54 448.63 345.461 441.276 342.527 439.09 335.425 440.459 331.735 438.849 332.426 433.551 327.19 433.206 331.31 425.169 329.089 422.371 323.903 421.931 322.286 418.629 322.547 413.885 318.248 412.676 314.259 411.188 308.956 410.635 308.574 406.415 309.474 401.315 302.513 401.84 302.637 397.326 302.18 393.262 303.351 388.149 294.285 389.833 295.558 384.686 298.337 378.684 289.484 379.95 290.647 375.02 291.166 370.558 289.698 367.295 283.514 366.619 282.025 363.302 282.589 358.948 284.503 354.03 277.092 353.592 273.792 351.071 273.755 347.103 277.963 341.574 275.248 338.827 269.413 336.981 271.78 332.477 272.567 328.622 269.304 325.699 267.859 322.263 272.858 318.23 265.967 314.952 267.759 311.297 272.159 308.434 265.8 302.948 271.542 301.13 275.918 300.034 278.151 297.877 276.812 290.929 278.874 287.104 284.837 289.788 286.971 286.081 289.666 283.113 295.367 287.438 297.75 283.724 299.455 277.467 303.673 278.572 309.175 284.612 310.725 276.716 314.388 276.378 317.919 275.56 321.488 274.944 326.147 279.716 329.445 278.065 332.914 277.217 335.324 270.114 339.424 272.737 342.396 268.329 346.684 272.619 349.899 269.596 353.281 267.575 357.059 268.624 360.814 269.651 364.795 272.9 368.494 273.844 371.846 271.396 374.963 266.184 378.39 263.919 382.235 266.452 386.231 271.264 389.54 267.4 393.481 272.182 396.443 262.593 400.385 267.771 403.828 264.988 407.333 262.997 410.881 261.597 414.768 267.358 418.369 267.399 421.704 260.835 425.412 263.449 429.167 268.051 432.702 266.185 436.357 268.451 439.955 268.837 443.47 265.234 447.113 267.824 450.687 266.665 454.295 267.781 457.836 262.063 461.467 265.913 465.065 266.152 468.663 269.006 472.265 262.897 475.869 263.305 479.447 267.134 483.041 267.29 486.687 263.192 490.209 268.92 493.821 267.854 497.554 260.921 501.092 264.301 504.584 268.923 508.21 267.8 511.847 266.493 515.445 266.608 519.037 266.932 522.651 266.618 526.392 263.22 529.75 269.446 533.639 262.967 537.181 264.641 540.834 263.923 544.073 271.231 547.963 265.794 551.564 265.972 555.237 264.936 558.65 268.247 562.247 268.422 565.746 270.077 569.215 272.052 573.287 265.505 576.473 271.342 579.965 272.815 584.205 264.832 587.559 268.139 590.739 273.282 594.387 272.819 598.609 266.108 602.174 266.827 605.097 274.106 608.702 274.176 612.806 269.471 615.799 275.428 620.058 269.614 623.489 271.432 627.134 271.35 630.347 274.838 634.243 272.716 637.253 277.57 640.541 280.074 644.094 280.527 647.625 281.13 651.186 281.52 655.116 279.507 658.903 278.557 662.971 276.013 666.747 275.396 669.892 278.412 673.839 276.949 676.878 280.357 681.161 277.414 683.516 283.876 686.496 287.018 690.82 284.179 694.894 282.709 696.565 290.631 702.14 283.793 706.011 283.635 708.992 286.421 710.464 293.211 713.622 294.688 719.641 289.678 723.324 290.853 726.114 293.816 729.91 295.603 732.223 299.625 732.472 304.028 728.189 308.137 735.658 311.768 734.321 315.549 730.456 318.613 731.137 322.498 731.363 326.38 730.272 329.901 725.651 332.119 729.502 337.477 722.885 338.718 725.737 343.873 723.588 346.909 717.799 348.189 719.894 353.198 715.152 354.861 717.953 360.355 711.299 360.928 711.3 365.006 706.572 366.49 710.858 373.034 706.418 374.652 704.684 377.812 705.168 382.304 703.691 385.645 696.182 385.261 693.808 387.999 692.547 391.434 696.334 398.139 689.693 398.126 690.106 402.704 685.114 403.701 688.648 410.429 680.519 409.249 684.736 416.534 679.457 417.259 675.127 418.608 673.199 421.643 671.287 424.693 674.218 431.287 668.862 431.835 668.006 435.694 664.331 437.447 661.474 439.801 656.032 440.157 653.8 442.956 652.539 446.516 653.677 451.99 647.24 451.46 649.341 457.757 645.285 459.104 646.235 464.546 638.292 462.643 640.717 469.359 636.535 470.548 636.598 475.346 629.043 473.585 631.533 480.528 627.219 481.538 623.257 482.826 619.123 483.923 621.679 491.109 619.762 494.259 616.251 495.925 615.137 499.843 611.845 501.703 607.109 502.137 604.076 504.194 604.485 509.681 600.842 511.143 600.545 516.016 595.52 516.021 593.969 519.635 592.41 523.278 585.317 520.884 585.629 526.595 580.668 526.423 581.754 533.183 576.296 532.357 570.807 531.353 573.428 540.286 566.334 537.153 567.366 544.397 562.39 543.812 561.5 548.766 555.295 546.222 551.633 547.149 551.307 553.226 545.952 551.401 544.512 555.998 539.537 554.381 536.663 556.459 535.795 562.97 532.184 563.92 528.281 563.993 523.43 560.609 521.867 568.333 517.929 567.903 514.105 567.164 510.462 565.369"/>
    <polygon points="510.462 565.369 507.002 565.04 504.048 561.368 500.377 562.694 496.109 565.288 491.975 566.37 490.644 559.092 485.362 563.036 482.894 559.531 478.007 561.61 475.476 558.418 472.545 556.185 471.148 551.149 467.937 549.634 465.929 546.022 459.539 549.828 459.961 542.275 455.893 542.093 449.027 546.089 450.812 536.895 445.79 537.946 440.211 539.653 439.859 533.911 433.809 536.109 435.084 528.312 433.649 524.289 425.193 529.431 425.954 522.577 420.367 523.84 417.665 521.43 418.427 514.8 416.798 511.168 414.227 508.687 410.561 507.495 406.382 506.865 402.708 505.614 398.312 505.148 395.794 502.547 397.157 495.682 393.945 493.892 388.408 494.585 386.224 491.646 387.616 484.959 383.795 483.78 381.166 481.349 376.482 481.004 372.692 479.713 368.526 478.771 369.951 472.288 363.603 473.462 363.215 468.809 360.913 466.027 362.471 459.604 357.367 459.483 352.048 459.508 353.735 453.072 351.13 450.599 348.954 447.737 342.54 448.63 345.461 441.276 342.527 439.09 335.425 440.459 331.735 438.849 332.426 433.551 327.19 433.206 331.31 425.169 329.089 422.371 323.903 421.931 322.286 418.629 322.547 413.885 318.248 412.676 314.259 411.188 308.956 410.635 308.574 406.415 309.474 401.315 302.513 401.84 302.637 397.326 302.18 393.262 303.351 388.149 294.285 389.833 295.558 384.686 298.337 378.684 289.484 379.95 290.647 375.02 291.166 370.558 289.698 367.295 283.514 366.619 282.025 363.302 282.589 358.948 284.503 354.03 277.092 353.592 273.792 351.071 273.755 347.103 277.963 341.574 275.248 338.827 269.413 336.981 271.78 332.477 272.567 328.622 269.304 325.699 267.859 322.263 272.858 318.23 265.967 314.952 267.759 311.297 272.159 308.434 265.8 302.948 271.542 301.13 275.918 300.034 278.151 297.877 276.812 290.929 278.874 287.104 284.837 289.788 286.971 286.081 289.666 283.113 295.367 287.438 297.75 283.724 299.455 277.467 303.673 278.572 309.175 284.612 310.725 276.716 314.388 276.378 317.919 275.56 321.488 274.944 326.147 279.716 329.445 278.065 332.914 277.217 335.324 270.114 339.424 272.737 342.396 268.329 346.684 272.619 349.899 269.596 353.281 267.575 357.059 268.624 360.814 269.651 364.795 272.9 368.494 273.844 371.846 271.396 374.963 266.184 378.39 263.919 382.235 266.452 386.231 271.264 389.54 267.4 393.481 272.182 396.443 262.593 400.385 267.771 403.828 264.988 407.333 262.997 410.881 261.597 414.768 267.358 418.369 267.399 421.704 260.835 425.412 263.449 429.167 268.051 432.702 266.185 436.357 268.451 439.955 268.837 443.47 265.234 447.113 267.824 450.687 266.665 454.295 267.781 457.836 262.063 461.467 265.913 465.065 266.152 468.663 269.006 472.265 262.897 475.869 263.305 479.447 267.134 483.041 267.29 486.687 263.192 490.209 268.92 493.821 267.854 497.554 260.921 501.092 264.301 504.584 268.923 508.21 267.8 511.847 266.493 515.445 266.608 519.037 266.932 522.651 266.618 526.392 263.22 529.75 269.446 533.639 262.967 537.181 264.641 540.834 263.923 544.073 271.231 547.963 265.794 551.564 265.972 555.237 264.936 558.65 268.247 562.247 268.422 565.746 270.077 569.215 272.052 573.287 265.505 576.473 271.342 579.965 272.815 584.205 264.832 587.559 268.139 590.739 273.282 594.387 272.819 598.609 266.108 602.174 266.827 605.097 274.106 608.702 274.176 612.806 269.471 615.799 275.428 620.058 269.614 623.489 271.432 627.134 271.35 630.347 274.838 634.243 272.716 637.253 277.57 640.541 280.074 644.094 280.527 647.625 281.13 651.186 281.52 655.116 279.507 658.903 278.557 662.971 276.013 666.747 275.396 669.892 278.412 673.839 276.949 676.878 280.357 681.161 277.414 683.516 283.876 686.496 287.018 690.82 284.179 694.894 282.709 696.565 290.631 702.14 283.793 706.011 283.635 708.992 286.421 710.464 293.211 713.622 294.688 719.641 289.678 723.324 290.853 726.114 293.816 729.91 295.603 732.223 299.625 732.472 304.028 728.189 308.137 735.658 311.768 734.321 315.549 730.456 318.613 731.137 322.498 731.363 326.38 730.272 329.901 725.651 332.119 729.502 337.477 722.885 338.718 725.737 343.873 723.588 346.909 717.799 348.189 719.894 353.198 715.152 354.861 717.953 360.355 711.299 360.928 711.3 365.006 706.572 366.49 710.858 373.034 706.418 374.652 704.684 377.812 705.168 382.304 703.691 385.645 696.182 385.261 693.808 387.999 692.547 391.434 696.334 398.139 689.693 398.126 690.106 402.704 685.114 403.701 688.648 410.429 680.519 409.249 684.736 416.534 679.457 417.259 675.127 418.608 673.199 421.643 671.287 424.693 674.218 431.287 668.862 431.835 668.006 435.694 664.331 437.447 661.474 439.801 656.032 440.157 653.8 442.956 652.539 446.516 653.677 451.99 647.24 451.46 649.341 457.757 645.285 459.104 646.235 464.546 638.292 462.643 640.717 469.359 636.535 470.548 636.598 475.346 629.043 473.585 631.533 480.528 627.219 481.538 623.257 482.826 619.123 483.923 621.679 491.109 619.762 494.259 616.251 495.925 615.137 499.843 611.845 501.703 607.109 502.137 604.076 504.194 604.485 509.681 600.842 511.143 600.545 516.016 595.52 516.021 593.969 519.635 592.41 523.278 585.317 520.884 585.629 526.595 580.668 526.423 581.754 533.183 576.296 532.357 570.807 531.353 573.428 540.286 566.334 537.153 567.366 544.397 562.39 543.812 561.5 548.766 555.295 546.222 551.633 547.149 551.307 553.226 545.952 551.401 544.512 555.998 539.537 554.381 536.663 556.459 535.795 562.97 532.184 563.92 528.281 563.993 523.43 560.609 521.867 568.333 517.929 567.903 514.105 567.164 510.462 565.369" style="fill: none; stroke: #000; stroke-linecap: round; stroke-linejoin: round; stroke-width: 40px;"/>
  </g>
</svg>