<?xml version="1.0" encoding="UTF-8"?>
<svg id="Sticker" xmlns="http://www.w3.org/2000/svg" width="1000" height="1000" viewBox="0 0 1000 1000">
  <g>
    <polyline points="309.473 338.092 310.461 334.54 303.168 331.983 304.288 328.26 300.497 324.869 308.526 321.066 309.127 317.676 303.663 313.952 302.883 310.247 309.635 307.589 304.047 303.004 312.28 301.42 312.935 298.255 311.972 294.373 311.197 290.19 309.701 284.996 314.105 283.492 319.101 283.262 319.359 278.388 322.478 276.48 324.286 272.086 328.205 271.399 333.061 274.496 336.056 272.252 338.934 267.271 343.278 275.158 346.498 267.253 349.948 274.018 353.668 270.707 356.939 273.397 360.223 274.732 364.055 273.333 368.44 270.995 372.619 270.537 373.834 277.186 375.733 280.876 378.194 283.044 385.388 279.387 382.909 287.293 384.756 289.851 392.638 288.307 392.03 292.971 396.042 295.052 391.329 300.682 393.221 303.545 392.802 307.046 402.491 309.028 402.621 312.862 399.554 316.75 401.97 320.42 403.04 324.229 401.184 327.835 395.024 330.603 393.153 333.593" style="fill: #fff;"/>
    <polyline points="309.473 338.092 310.461 334.54 303.168 331.983 304.288 328.26 300.497 324.869 308.526 321.066 309.127 317.676 303.663 313.952 302.883 310.247 309.635 307.589 304.047 303.004 312.28 301.42 312.935 298.255 311.972 294.373 311.197 290.19 309.701 284.996 314.105 283.492 319.101 283.262 319.359 278.388 322.478 276.48 324.286 272.086 328.205 271.399 333.061 274.496 336.056 272.252 338.934 267.271 343.278 275.158 346.498 267.253 349.948 274.018 353.668 270.707 356.939 273.397 360.223 274.732 364.055 273.333 368.44 270.995 372.619 270.537 373.834 277.186 375.733 280.876 378.194 283.044 385.388 279.387 382.909 287.293 384.756 289.851 392.638 288.307 392.03 292.971 396.042 295.052 391.329 300.682 393.221 303.545 392.802 307.046 402.491 309.028 402.621 312.862 399.554 316.75 401.97 320.42 403.04 324.229 401.184 327.835 395.024 330.603 393.153 333.593" style="fill: none; stroke: #000; stroke-linecap: round; stroke-linejoin: round; stroke-width: 40px;"/>
  </g>
  <g>
    <polygon points="82.602 725.342 85.207 717.6 82.406 713.727 88.808 710.733 87.411 706.982 89.913 703.651 86.653 699.652 86.918 696.054 89.595 692.769 90.019 689.201 85.16 684.891 88.331 681.701 85.913 677.691 88.915 674.499 92.223 671.381 87.309 666.923 90.173 663.741 91.836 660.369 90.271 656.423 89.347 652.575 97.339 650.41 96.411 646.572 93.566 642.335 100.106 639.989 95.897 635.441 95.645 631.694 93.757 627.576 95.501 624.251 98.522 621.228 97.596 617.298 105.168 615.398 101.984 610.919 101.5 607.076 102.712 603.66 109.509 601.715 110.184 598.191 103.953 592.773 112.175 591.315 106.307 585.917 108.295 582.728 106.659 578.472 108.483 575.233 108.343 571.395 113.721 569.285 113.447 565.406 118.459 563.248 113.423 557.77 119.477 556.003 124.172 553.827 118.567 548.035 125.333 546.637 126.023 543.07 122.95 538.072 122.407 533.984 129.059 532.695 125.897 527.554 125.548 523.492 134.279 523.188 130.022 517.48 133.255 514.926 138.195 513.16 136.957 508.663 135.159 503.859 138.98 501.637 141.452 498.809 147.532 497.769 148.339 494.182 147.088 489.526 145.351 484.556 152.758 484.382 153.579 480.754 155.112 477.501 158.24 475.149 153.382 468.197 162.031 469.087 159.279 463.242 158.614 458.567 164.432 457.929 163.087 452.757 166.648 450.741 169.57 448.338 176.176 448.522 170.594 440.187 177.807 440.911 178.993 437.317 183.266 436.047 182.239 430.705 186.521 429.5 189.648 427.427 192.181 424.889 195.672 423.191 191.579 414.79 196.285 414.133 198.788 411.515 204.72 412.215 204.372 406.855 204.707 402.031 207.26 399.408 212.069 399.228 216.363 398.61 216.202 392.964 221.91 394.096 220.775 387.04 225.325 386.889 231.322 388.78 232.836 384.862 233.315 379.36 238.361 380.268 240.224 376.583 241.869 372.426 245.644 371.571 249.534 370.996 251.845 367.735 257.634 370.76 257.213 362.251 262.653 364.911 266.983 365.635 267.503 358.168 270.571 356.005 276.07 359.7 280.079 360.112 281.666 354.142 284.17 350.249 287.799 349.457 292.427 351.956 294.881 347.405 299.995 352.227 301.963 345.365 307.364 352.351 310.126 348.31 313.954 349.12 316.277 341.749 320.53 344.953 323.933 343.125 327.902 345.449 331.236 342.816 335.239 346.58 338.927 347.963 342.006 340.184 345.815 343.295 349.53 346.622 353.052 343.783 356.632 339.832 360.271 342.124 363.795 347.828 367.354 347.757 371.019 345.258 374.481 347.645 378.202 345.393 381.545 348.6 385.615 343.263 388.957 346.103 393.168 341.228 396.522 343.78 399.552 348.107 402.851 350.134 407.054 346.852 411.329 343.797 414.883 344.741 417.395 350.325 420.182 354.14 424.045 353.362 429.068 348.489 430.729 355.992 434.17 356.927 438.483 355.143 442.656 354.065 444.743 359.094 447.794 361.169 451.174 362.32 456.749 358.098 457.502 365.683 460.113 368.57 463.309 370.075 469.202 365.984 470.807 370.88 474.2 372.098 478.63 371.433 482.452 372.02 482.199 379.694 489.891 373.785 490.42 379.879 495.667 378.388 496.932 383.088 499.89 385.162 501.046 389.767 503.388 392.601 507.262 393.37 512.453 392.533 514.516 395.765 514.909 400.958 518.08 402.727 523.099 402.423 526.407 404.162 524.721 411.318 532.668 408.125 535.863 410.081 539.249 411.878 537.292 418.884 538.301 422.869 545.079 421.489 547.997 423.765 548.165 428.462 551.926 430.005 549.006 437.151 556.681 435.507 555.933 440.732 560.996 441.361 561.067 445.854 565.01 447.426 562.901 453.403 566.463 455.265 571.438 456.209 569.85 461.636 575.9 461.96 578.882 464.367 576.777 469.977 578.101 473.38 585.127 473.369 581.995 479.417 586.675 480.885 584.722 486.119 587.072 488.919 590.237 491.302 592.732 494.069 590.396 499.312 591.168 502.92 592.952 506.017 600.585 506.344 597.629 511.717 605.585 512.046 604.086 516.7 606.823 519.459 609.675 522.195 603.611 528.644 611.272 529.408 612.788 532.715 609.807 537.755 609.178 541.831 617.567 542.57 615.041 547.336 614.098 551.483 613.084 555.616 616.844 558.134 624.035 559.596 617.951 565.32 619.727 568.531 619.356 572.387 628.192 573.581 620.825 579.411 626.729 581.523 627.574 585.036 631.986 587.655 633.495 591.043 628.826 595.868 634.887 598.214 627.878 603.419 627.438 607.137 632.069 609.887 632.874 614.645 636.392 615.277 640.411 613.046 644.29 611.618 647.686 612.946 650.246 619.04 654.333 616.388 657.113 621.215 660.863 620.487 664.812 618.622 667.556 623.67 671.016 624.631 675.419 620.206 679.158 619.575 682.132 623.311 685.4 625.356 689.589 622.123 693.368 621.247 696.553 623.777 699.758 626.21 704.185 621.645 707.611 622.801 710.733 625.696 713.964 627.958 717.715 627.258 721.185 628.175 724.399 630.558 728.266 629.189 731.453 631.718 735.59 628.808 737.88 636.494 742.06 633.343 745.869 632.312 748.779 636.437 752.565 635.553 756.422 634.249 760.199 633.413 763.314 636.372 767.724 631.906 770.769 635.27 773.856 638.385 776.863 641.963 781.479 636.325 783.792 643.883 787.599 642.858 791.409 641.836 794.228 646.47 799.395 637.68 801.52 646.298 806.199 640.31 808.629 647.192 813.404 640.651 816.343 644.634 820.491 641.694 822.638 650.19 826.379 649.582 829.871 650.4 833.438 650.795 837.283 649.635 841.193 647.952 843.705 653.901 848.463 648.91 851.52 651.501 854.186 654.911 858.841 652.39 860.643 657.645 866.522 653.019 867.178 660.184 869.336 663.61 875.982 658.924 876.528 665.039 878.871 667.853 885.123 665.146 884.485 671.94 890.882 669.739 889.195 677.067 892.773 678.327 894.849 681.173 897.295 683.645 904.713 682.108 900.659 689.816 905.518 690.625 906.83 694.016 910.417 696.006 909.1 700.821 909.682 704.423 917.175 704.807 912.438 710.744 917.869 713.945 913.753 711.739 910.185 715.408 906.555 713.117 902.934 711.722 899.361 715.003 895.7 709.787 892.175 717.807 888.471 708.417 884.877 709.738 881.294 712.126 877.671 710.535 874.085 712.532 870.516 716.183 866.906 715.857 863.271 712.988 859.622 708.838 856.103 717.306 852.5 717.578 848.896 717.781 845.268 715.599 841.67 716.428 837.997 709.868 834.387 709.517 830.868 718.143 827.232 715.252 823.559 708.802 819.952 708.933 816.424 716.662 812.787 713.878 809.207 716.497 805.576 714.159 801.937 711.067 798.313 709.332 794.754 713.984 791.196 718.181 787.517 710.708 783.951 714.218 780.353 714.721 776.769 716.548 773.116 711.766 769.514 712.006 765.93 714.071 762.328 714.401 758.678 710.138 755.075 710.562 751.513 715.042 747.924 716.88 744.273 712.615 740.645 710.449 737.092 715.614 733.45 711.972 729.868 714.182 726.217 709.584 722.699 717.96 719.013 709.86 715.455 714.238 711.817 710.804 708.257 714.872 704.685 717.845 701.1 719.559 697.44 713.901 693.836 713.706 690.245 714.893 686.662 716.804 683.079 718.696 679.419 713.164 675.833 714.87 672.204 712.394 668.583 710.708 665.003 713.214 661.391 712.538 657.785 712.561 654.213 715.985 650.58 713.472 646.949 711.36 643.341 711.384 639.787 716.658 636.218 720.35 632.58 717.194 628.999 719.629 625.334 713.776 621.775 718.289 618.157 716.914 614.504 712.206 610.97 718.996 607.329 715.385 603.732 716.05 600.138 717.038 596.479 711.676 592.947 718.722 589.299 714.485 585.68 713.187 582.072 712.943 578.536 719.726 574.873 714.282 571.334 721.014 567.647 713.301 564.053 714.847 560.484 718.704 556.81 712.215 553.234 715.326 549.592 711.891 546.033 716.492 542.387 712.523 538.838 718.036 535.225 717.305 531.652 720.448 527.99 714.905 524.38 714.465 520.777 714.733 517.168 714.411 513.578 716.056 510.002 719.041 506.405 720.156 502.771 717.66 499.124 714.01 495.538 716.299 491.905 713.922 488.368 720.837 484.749 719.67 481.12 717.51 477.488 714.984 473.855 712.42 470.328 720.087 466.687 716.778 463.09 717.664 459.505 719.838 455.861 716.278 452.221 713.178 448.643 716.241 445.012 714.267 441.394 713.415 437.858 720.488 434.221 717.686 430.568 713.189 426.991 716.186 423.434 721.079 419.794 717.857 416.206 719.764 412.571 717.149 408.946 715.537 405.397 721.457 401.701 713.075 398.171 720.881 394.497 714.555 390.956 721.083 387.32 718.325 383.747 721.744 380.067 714.688 376.469 715.663 372.915 721.029 369.275 718.075 365.627 714.51 362.008 713.601 358.406 714.281 354.863 720.615 351.276 722.742 347.649 720.942 344.063 723.136 340.4 717.989 336.758 714.923 333.198 719.87 329.541 715.202 325.951 717.05 322.374 720.169 318.741 717.85 315.169 721.469 311.552 720.895 307.877 714.602 304.351 722.728 300.677 716.467 297.128 722.376 293.525 722.992 289.823 714.096 286.291 721.791 282.621 715.904 279.004 715.194 275.41 716.247 271.865 722.082 268.192 715.373 264.623 718.921 261.058 723.014 257.392 717.498 253.816 721.004 250.149 715.441 246.586 719.829 242.999 721.757 239.405 722.935 235.765 719.734 232.193 723.29 228.546 719.813 224.981 724.352 221.344 721.69 217.755 723.566 214.154 724.217 210.521 721.991 206.888 719.909 203.276 719.942 199.711 724.235 196.025 716.811 192.495 724.65 188.883 724.831 185.189 716.78 181.639 722.659 178.015 721.511 174.351 716.541 170.809 723.229 167.12 715.737 163.575 722.396 159.899 716.137 156.337 721.173 152.74 722.672 149.153 725.32 145.472 718.691 141.925 725.177 138.259 720.024 134.642 719.633 131.08 724.238 127.48 725.605 123.843 723.028 120.178 718.216 116.571 718.757 112.965 719.57 109.317 716.387 105.771 723.202 102.127 720.478 98.539 723.084 94.942 724.92 91.243 716.812 87.999 721.759 82.602 725.342" style="fill: #fff;"/>
    <polygon points="82.602 725.342 85.207 717.6 82.406 713.727 88.808 710.733 87.411 706.982 89.913 703.651 86.653 699.652 86.918 696.054 89.595 692.769 90.019 689.201 85.16 684.891 88.331 681.701 85.913 677.691 88.915 674.499 92.223 671.381 87.309 666.923 90.173 663.741 91.836 660.369 90.271 656.423 89.347 652.575 97.339 650.41 96.411 646.572 93.566 642.335 100.106 639.989 95.897 635.441 95.645 631.694 93.757 627.576 95.501 624.251 98.522 621.228 97.596 617.298 105.168 615.398 101.984 610.919 101.5 607.076 102.712 603.66 109.509 601.715 110.184 598.191 103.953 592.773 112.175 591.315 106.307 585.917 108.295 582.728 106.659 578.472 108.483 575.233 108.343 571.395 113.721 569.285 113.447 565.406 118.459 563.248 113.423 557.77 119.477 556.003 124.172 553.827 118.567 548.035 125.333 546.637 126.023 543.07 122.95 538.072 122.407 533.984 129.059 532.695 125.897 527.554 125.548 523.492 134.279 523.188 130.022 517.48 133.255 514.926 138.195 513.16 136.957 508.663 135.159 503.859 138.98 501.637 141.452 498.809 147.532 497.769 148.339 494.182 147.088 489.526 145.351 484.556 152.758 484.382 153.579 480.754 155.112 477.501 158.24 475.149 153.382 468.197 162.031 469.087 159.279 463.242 158.614 458.567 164.432 457.929 163.087 452.757 166.648 450.741 169.57 448.338 176.176 448.522 170.594 440.187 177.807 440.911 178.993 437.317 183.266 436.047 182.239 430.705 186.521 429.5 189.648 427.427 192.181 424.889 195.672 423.191 191.579 414.79 196.285 414.133 198.788 411.515 204.72 412.215 204.372 406.855 204.707 402.031 207.26 399.408 212.069 399.228 216.363 398.61 216.202 392.964 221.91 394.096 220.775 387.04 225.325 386.889 231.322 388.78 232.836 384.862 233.315 379.36 238.361 380.268 240.224 376.583 241.869 372.426 245.644 371.571 249.534 370.996 251.845 367.735 257.634 370.76 257.213 362.251 262.653 364.911 266.983 365.635 267.503 358.168 270.571 356.005 276.07 359.7 280.079 360.112 281.666 354.142 284.17 350.249 287.799 349.457 292.427 351.956 294.881 347.405 299.995 352.227 301.963 345.365 307.364 352.351 310.126 348.31 313.954 349.12 316.277 341.749 320.53 344.953 323.933 343.125 327.902 345.449 331.236 342.816 335.239 346.58 338.927 347.963 342.006 340.184 345.815 343.295 349.53 346.622 353.052 343.783 356.632 339.832 360.271 342.124 363.795 347.828 367.354 347.757 371.019 345.258 374.481 347.645 378.202 345.393 381.545 348.6 385.615 343.263 388.957 346.103 393.168 341.228 396.522 343.78 399.552 348.107 402.851 350.134 407.054 346.852 411.329 343.797 414.883 344.741 417.395 350.325 420.182 354.14 424.045 353.362 429.068 348.489 430.729 355.992 434.17 356.927 438.483 355.143 442.656 354.065 444.743 359.094 447.794 361.169 451.174 362.32 456.749 358.098 457.502 365.683 460.113 368.57 463.309 370.075 469.202 365.984 470.807 370.88 474.2 372.098 478.63 371.433 482.452 372.02 482.199 379.694 489.891 373.785 490.42 379.879 495.667 378.388 496.932 383.088 499.89 385.162 501.046 389.767 503.388 392.601 507.262 393.37 512.453 392.533 514.516 395.765 514.909 400.958 518.08 402.727 523.099 402.423 526.407 404.162 524.721 411.318 532.668 408.125 535.863 410.081 539.249 411.878 537.292 418.884 538.301 422.869 545.079 421.489 547.997 423.765 548.165 428.462 551.926 430.005 549.006 437.151 556.681 435.507 555.933 440.732 560.996 441.361 561.067 445.854 565.01 447.426 562.901 453.403 566.463 455.265 571.438 456.209 569.85 461.636 575.9 461.96 578.882 464.367 576.777 469.977 578.101 473.38 585.127 473.369 581.995 479.417 586.675 480.885 584.722 486.119 587.072 488.919 590.237 491.302 592.732 494.069 590.396 499.312 591.168 502.92 592.952 506.017 600.585 506.344 597.629 511.717 605.585 512.046 604.086 516.7 606.823 519.459 609.675 522.195 603.611 528.644 611.272 529.408 612.788 532.715 609.807 537.755 609.178 541.831 617.567 542.57 615.041 547.336 614.098 551.483 613.084 555.616 616.844 558.134 624.035 559.596 617.951 565.32 619.727 568.531 619.356 572.387 628.192 573.581 620.825 579.411 626.729 581.523 627.574 585.036 631.986 587.655 633.495 591.043 628.826 595.868 634.887 598.214 627.878 603.419 627.438 607.137 632.069 609.887 632.874 614.645 636.392 615.277 640.411 613.046 644.29 611.618 647.686 612.946 650.246 619.04 654.333 616.388 657.113 621.215 660.863 620.487 664.812 618.622 667.556 623.67 671.016 624.631 675.419 620.206 679.158 619.575 682.132 623.311 685.4 625.356 689.589 622.123 693.368 621.247 696.553 623.777 699.758 626.21 704.185 621.645 707.611 622.801 710.733 625.696 713.964 627.958 717.715 627.258 721.185 628.175 724.399 630.558 728.266 629.189 731.453 631.718 735.59 628.808 737.88 636.494 742.06 633.343 745.869 632.312 748.779 636.437 752.565 635.553 756.422 634.249 760.199 633.413 763.314 636.372 767.724 631.906 770.769 635.27 773.856 638.385 776.863 641.963 781.479 636.325 783.792 643.883 787.599 642.858 791.409 641.836 794.228 646.47 799.395 637.68 801.52 646.298 806.199 640.31 808.629 647.192 813.404 640.651 816.343 644.634 820.491 641.694 822.638 650.19 826.379 649.582 829.871 650.4 833.438 650.795 837.283 649.635 841.193 647.952 843.705 653.901 848.463 648.91 851.52 651.501 854.186 654.911 858.841 652.39 860.643 657.645 866.522 653.019 867.178 660.184 869.336 663.61 875.982 658.924 876.528 665.039 878.871 667.853 885.123 665.146 884.485 671.94 890.882 669.739 889.195 677.067 892.773 678.327 894.849 681.173 897.295 683.645 904.713 682.108 900.659 689.816 905.518 690.625 906.83 694.016 910.417 696.006 909.1 700.821 909.682 704.423 917.175 704.807 912.438 710.744 917.869 713.945 913.753 711.739 910.185 715.408 906.555 713.117 902.934 711.722 899.361 715.003 895.7 709.787 892.175 717.807 888.471 708.417 884.877 709.738 881.294 712.126 877.671 710.535 874.085 712.532 870.516 716.183 866.906 715.857 863.271 712.988 859.622 708.838 856.103 717.306 852.5 717.578 848.896 717.781 845.268 715.599 841.67 716.428 837.997 709.868 834.387 709.517 830.868 718.143 827.232 715.252 823.559 708.802 819.952 708.933 816.424 716.662 812.787 713.878 809.207 716.497 805.576 714.159 801.937 711.067 798.313 709.332 794.754 713.984 791.196 718.181 787.517 710.708 783.951 714.218 780.353 714.721 776.769 716.548 773.116 711.766 769.514 712.006 765.93 714.071 762.328 714.401 758.678 710.138 755.075 710.562 751.513 715.042 747.924 716.88 744.273 712.615 740.645 710.449 737.092 715.614 733.45 711.972 729.868 714.182 726.217 709.584 722.699 717.96 719.013 709.86 715.455 714.238 711.817 710.804 708.257 714.872 704.685 717.845 701.1 719.559 697.44 713.901 693.836 713.706 690.245 714.893 686.662 716.804 683.079 718.696 679.419 713.164 675.833 714.87 672.204 712.394 668.583 710.708 665.003 713.214 661.391 712.538 657.785 712.561 654.213 715.985 650.58 713.472 646.949 711.36 643.341 711.384 639.787 716.658 636.218 720.35 632.58 717.194 628.999 719.629 625.334 713.776 621.775 718.289 618.157 716.914 614.504 712.206 610.97 718.996 607.329 715.385 603.732 716.05 600.138 717.038 596.479 711.676 592.947 718.722 589.299 714.485 585.68 713.187 582.072 712.943 578.536 719.726 574.873 714.282 571.334 721.014 567.647 713.301 564.053 714.847 560.484 718.704 556.81 712.215 553.234 715.326 549.592 711.891 546.033 716.492 542.387 712.523 538.838 718.036 535.225 717.305 531.652 720.448 527.99 714.905 524.38 714.465 520.777 714.733 517.168 714.411 513.578 716.056 510.002 719.041 506.405 720.156 502.771 717.66 499.124 714.01 495.538 716.299 491.905 713.922 488.368 720.837 484.749 719.67 481.12 717.51 477.488 714.984 473.855 712.42 470.328 720.087 466.687 716.778 463.09 717.664 459.505 719.838 455.861 716.278 452.221 713.178 448.643 716.241 445.012 714.267 441.394 713.415 437.858 720.488 434.221 717.686 430.568 713.189 426.991 716.186 423.434 721.079 419.794 717.857 416.206 719.764 412.571 717.149 408.946 715.537 405.397 721.457 401.701 713.075 398.171 720.881 394.497 714.555 390.956 721.083 387.32 718.325 383.747 721.744 380.067 714.688 376.469 715.663 372.915 721.029 369.275 718.075 365.627 714.51 362.008 713.601 358.406 714.281 354.863 720.615 351.276 722.742 347.649 720.942 344.063 723.136 340.4 717.989 336.758 714.923 333.198 719.87 329.541 715.202 325.951 717.05 322.374 720.169 318.741 717.85 315.169 721.469 311.552 720.895 307.877 714.602 304.351 722.728 300.677 716.467 297.128 722.376 293.525 722.992 289.823 714.096 286.291 721.791 282.621 715.904 279.004 715.194 275.41 716.247 271.865 722.082 268.192 715.373 264.623 718.921 261.058 723.014 257.392 717.498 253.816 721.004 250.149 715.441 246.586 719.829 242.999 721.757 239.405 722.935 235.765 719.734 232.193 723.29 228.546 719.813 224.981 724.352 221.344 721.69 217.755 723.566 214.154 724.217 210.521 721.991 206.888 719.909 203.276 719.942 199.711 724.235 196.025 716.811 192.495 724.65 188.883 724.831 185.189 716.78 181.639 722.659 178.015 721.511 174.351 716.541 170.809 723.229 167.12 715.737 163.575 722.396 159.899 716.137 156.337 721.173 152.74 722.672 149.153 725.32 145.472 718.691 141.925 725.177 138.259 720.024 134.642 719.633 131.08 724.238 127.48 725.605 123.843 723.028 120.178 718.216 116.571 718.757 112.965 719.57 109.317 716.387 105.771 723.202 102.127 720.478 98.539 723.084 94.942 724.92 91.243 716.812 87.999 721.759 82.602 725.342" style="fill: none; stroke: #000; stroke-linecap: round; stroke-linejoin: round; stroke-width: 40px;"/>
  </g>
</svg>