<?xml version="1.0" encoding="UTF-8"?>
<svg id="Sticker" xmlns="http://www.w3.org/2000/svg" width="1000" height="1000" viewBox="0 0 1000 1000">
  <g>
    <polygon points="866.944 346.458 869.104 343.293 867.641 337.71 872.258 336.231 870.531 331.219 876.336 329.591 869.837 323.884 871.608 320.963 872.714 317.738 873.856 314.262 875.838 310.225 875.588 306.293 874.989 302.304 871.433 299.846 865.8 299.26 869.466 291.894 866.153 289.682 857.947 292.714 861.208 283.457 857.278 281.994 851.551 284.428 848.842 281.774 846.14 278.257 841.01 283.613 838.284 279.42 834.529 281.022 830.98 283.095 827.551 280.218 823.767 276.603 820.197 278.014 817.429 283.983 812.324 275.813 809.845 281.747 806.392 282.663 799.236 285.915 808.553 280.873 807.37 276.543 808.101 272.894 802.475 267.928 802.968 264.526 808.129 261.705 807.979 258.055 806.854 254.432 811.264 250.718 809.06 247.125 804.019 244.302 806.57 240.176 804.243 237.202 800.512 235.158 798.311 232.78 803.522 224.826 795.9 226.587 793.368 224.644 792.823 219.728 789.156 219.106 785.543 219.019 782.859 216.281 779.28 216.631 776.047 214.469 772.501 215.699 768.673 209.788 765.297 213.614 762.368 217.71 758.281 215.179 754.438 214.697 752.092 219.257 749.316 221.797 744.704 219.609 743.215 220.372 738.89 217.265 743.571 214.925 745.433 211.66 743.769 207.718 746.954 204.563 743.524 200.647 751.21 197.411 747.404 193.656 748.176 189.937 749.578 185.986 743.86 183.279 742.058 180.178 744.591 175.562 746.023 170.72 742.065 168.419 740.343 164.947 732.735 166.629 731.475 163.249 732.788 156.088 726.934 158.097 726.563 151.188 722.722 150.008 718.267 151.381 714.408 152.244 711.017 149.565 707.373 151.937 704.402 156.42 700.246 152.164 697.998 157.268 694.347 156.798 692.193 160.347 689.182 161.589 685.369 161.508 678.827 158.677 678.703 163.855 674.893 165.144 674.534 169.898 670.162 170.618 665.092 170.637 663.371 174.021 665.106 180.879 658.277 179.137 659.974 185.961 656.462 187.549 653.147 189.333 652.209 193.505 651.284 197.693 647.799 199.312 643.23 199.841 641.561 203.281 638.128 204.947 638.444 210.384 633.875 210.916 628.346 210.479 628.82 216.073 622.736 215.081 624.557 222.031 622.755 225.339 614.815 222.483 617.014 229.815 613.741 231.646 606.559 229.54 604.581 232.665 602.712 235.906 603.171 241.487 598.359 241.767 593.243 241.746 597.394 251.04 591.81 250.548 591.639 255.501 587.352 256.315 584.256 258.331 581.841 261.028 577.535 261.828 574.694 264.102 577.039 271.574 573.007 272.647 571.313 276.075 565.489 275.354 564.919 279.913 560.506 280.619 558.169 283.411 552.534 283.112 551.098 286.83 548.486 289.45 546.052 292.218 546.435 297.169 543.231 299.293 545.521 305.427 541.529 306.972 534.284 306.443 535.81 311.821 532.182 313.847 534.049 319.188 529.419 320.705 524.62 322.328 529.356 328.765 527.485 331.791 519.848 332.663 520.115 336.823 525.552 341.993 516.749 344.252 516.15 347.762 517.739 351.508 517.002 355.004 517.86 358.672 522.734 362.769 518.336 365.875 523.466 369.996 518.858 373.078 522.396 377.029 517.608 380.092 519.043 383.819 513.925 386.848 520.943 391.175 512.414 393.839 517.255 397.935 513.958 401.161 514.248 404.766 510.045 407.894 515.204 412.026 513.605 415.434 517.712 419.46 514.319 422.682 509.677 425.436 516.48 430.445 514.949 433.896 513.281 437.233 505.159 437.445 509.074 443.307 502.121 443.062 499.2 444.86 498.035 447.96 496.617 451.03 494.651 454.137 493.612 458.17 488.501 458.148 490.342 465.051 485.124 464.923 485.773 470.637 481.821 471.768 476.991 472.023 477.373 477.468 474.351 479.523 470.675 480.927 471.15 486.463 468.942 489.328 465.501 490.964 463.586 494.122 461.395 497.004 452.323 493.034 456.427 502.186 447.058 497.923 444.493 500.435 445.359 506.366 445.079 511.157 442.835 513.991 439.443 515.681 438.355 519.665 430.022 516.433 427.95 519.436 424.94 521.504 423.737 525.37 423.685 530.383 419.783 531.563 416.53 533.389 415.452 537.381 413.707 540.711 408.417 540.51 407.412 544.579 404.381 546.631 401.931 549.261 403.111 555.504 396.288 553.776 397.846 560.395 391.929 559.569 388.503 561.223 389.073 566.857 383.092 565.968 383.69 571.63 379.368 572.395 378.24 576.342 377.104 580.282 374.014 582.274 369.662 583.009 363.859 582.297 367.244 590.736 364.572 593.142 357.573 591.239 356.23 594.969 354.544 598.359 354.744 603.628 348.452 602.433 346.196 605.257 346.714 610.841 342.624 611.836 340.388 614.678 339.07 618.434 335.634 620.076 332.542 622.064 328.847 623.456 324.738 624.433 325.891 630.648 322.763 632.597 320.92 635.824 315.371 635.359 314.647 639.698 314.399 644.512 310.669 645.857 309.141 649.397 303.466 648.809 300.874 651.293 298.131 653.63 297.151 657.726 292.026 657.693 293.253 663.984 289.422 665.236 285.491 666.386 284.876 670.836 284.135 675.163 275.389 671.519 272.268 673.478 274.999 681.269 268.901 680.27 267.837 684.282 264.967 686.493 263.987 690.584 262.826 694.495 256.482 693.245 256.953 698.784 254.237 701.153 248.429 700.443 250.397 707.474 248.122 710.278 244.399 711.639 239.509 711.841 238.842 716.252 235.82 718.316 234.566 722.139 233.421 726.069 228.231 725.975 225.601 728.432 222.769 730.686 216.667 729.681 218.343 736.425 216.141 739.307 213.386 741.638 208.007 741.356 203.814 742.257 208.068 751.568 204.92 753.497 199.409 753.075 198.526 757.271 197.983 761.804 191.903 760.819 191.631 765.621 184.719 763.816 186.167 770.331 183.801 773.054 177.742 772.097 175.865 775.308 173.54 778.071 169.446 779.074 172.114 786.813 167.502 787.292 162.134 787.025 164.42 794.386 159.395 794.466 157.876 798.04 155.756 801.023 149.443 799.817 145.9 802.026 148.194 808.293 149.253 812.629 146.907 815.14 144.096 817.855 141.778 821.057 146.327 825.003 137.84 828.438 146.394 831.553 141.693 835.718 142.957 839.204 146.496 841.892 141.022 847.857 142.732 851.453 147.14 853.473 150.731 855.555 149.341 861.437 155.421 861.056 155.709 866.292 162.796 863.002 163.022 869.144 167.8 867.908 171.877 867.141 174.78 868.916 175.94 878.011 180.029 877.63 183.822 878.632 187.807 876.309 191.474 875.083 194.77 872.417 199.438 877.364 201.308 870.57 204.389 869.253 211.103 873.893 212.754 869.257 216.671 867.762 214.619 860.626 222.278 863.198 223.089 858.924 221.877 852.628 225.641 851.309 226.683 847.269 229.196 844.7 237.337 847.76 235.991 841.334 237.61 837.872 241.195 836.377 243.842 833.944 248.604 833.625 248.752 828.693 252.681 827.54 252.055 821.832 255.745 820.439 258.496 818.106 259.814 814.34 266.221 815.66 266.415 810.769 273.667 812.936 272.999 807.184 274.636 803.737 275.727 799.747 282.49 801.427 282.366 796.221 288.812 797.586 290.981 794.673 287.617 786.227 290.001 783.528 294.052 782.496 299.255 782.613 302.595 780.867 306.11 779.295 303.031 771.131 305.348 768.362 310.687 768.618 315.984 768.831 318.588 766.353 317.904 760.585 322.869 760.468 327.221 759.736 326.663 754.094 327.705 750.051 328.815 746.074 334.26 746.431 337.622 744.708 339.713 741.713 341.24 738.155 344.962 736.793 349.394 736.142 347.324 728.988 348.727 725.306 355.975 727.469 356.883 723.29 360.011 721.33 363.29 719.522 364.946 716.093 365.787 711.849 372.667 713.644 370.587 706.486 376.965 707.783 379.738 705.472 380.829 701.475 383.34 698.9 387.413 697.889 389.735 695.131 386.719 687.036 391.621 686.859 397.395 687.557 398.213 683.298 401.142 681.15 403.529 678.459 401.669 671.519 407.93 672.698 407.543 667.225 412.404 666.998 412.257 661.762 414.983 659.403 420.434 659.771 420.263 654.519 422.149 651.324 427.945 652.039 427.715 646.727 431.647 645.574 436.282 645.123 439.652 643.401 441.228 639.889 441.413 634.988 445.61 634.101 451.025 634.432 451.791 630.114 450.662 623.897 457.307 625.452 459.477 622.532 463.822 621.789 463.944 616.825 464.233 612.027 468.936 611.642 469.374 606.988 473.459 605.983 473.56 600.996 476.33 598.678 480.045 597.303 482.375 594.539 484.798 591.872 491.647 593.632 490.866 587.76 495.343 587.144 494.77 581.481 496.861 578.48 501.531 578.056 506.966 578.4 504.553 570.906 506.966 568.236 511.645 567.823 515.364 566.452 514.045 560.047 518.181 559.093 523.413 559.229 528.006 558.732 528.669 554.3 527.723 548.261 531.951 547.391 537.32 547.666 535.534 540.783 537.531 537.68 543.832 538.892 546.454 536.419 544.371 529.235 549.626 529.388 554.623 529.282 552.129 521.676 558.638 523.075 557.587 516.631 561.635 515.654 565.377 514.625 566.808 509.838 570.787 509.283 576.304 513.033 577.251 505.036 581.164 504.85 585.081 505.277 589.219 509.119 592.594 508.429 596.083 505.476 599.812 508.458 603.171 502.373 607.101 510.208 610.409 502.878 614.024 503.017 617.627 502.871 621.476 508.751 624.887 503.911 628.367 500.727 632.003 501.461 635.835 506.913 639.184 500.643 643.011 505.974 646.418 501.065 650.264 506.815 653.926 508.124 657.528 507.921 660.802 499.639 664.573 503.516 668.128 502.127 671.847 504.769 675.261 499.925 678.831 498.879 682.503 500.199 686.138 500.597 688.183 497.767 693.529 502.262 697.714 502.363 698.336 496.176 700.186 492.572 706.482 495.71 707.527 490.941 713.723 493.383 716.777 491.38 718.237 487.353 721.325 485.426 724.674 483.735 722.026 475.585 730.576 479.331 732.517 476.177 729.837 468.205 735.433 468.864 738.34 466.731 741.808 465.18 744.679 463.005 749.032 462.371 748.55 456.703 752.154 455.286 751.689 449.636 756.955 449.946 759.934 447.877 758.587 441.311 763.735 441.494 764.724 437.355 769.867 437.538 774.321 437.002 776.505 434.107 774.386 426.748 778.216 425.559 780.722 422.996 787.266 424.619 785.963 418.111 790.891 418.05 791.873 413.901 797.626 414.682 795.905 407.736 801.173 408.02 804.689 406.493 804.376 401.017 804.521 396.017 806.717 393.133 811.168 392.57 813.901 390.235 820.211 391.575 819.77 385.978 824.314 385.497 828.588 384.735 830.302 381.35 830.766 376.691 830.098 370.886 833.526 369.263 837.764 368.463 842.876 368.541 846.74 367.342 843.848 359.328 850.495 360.931 854.484 359.834 857.069 357.324 859.606 354.762 858.991 349.135 857.769 343.055 866.944 346.458" style="fill: #fff;"/>
    <polygon points="866.944 346.458 869.104 343.293 867.641 337.71 872.258 336.231 870.531 331.219 876.336 329.591 869.837 323.884 871.608 320.963 872.714 317.738 873.856 314.262 875.838 310.225 875.588 306.293 874.989 302.304 871.433 299.846 865.8 299.26 869.466 291.894 866.153 289.682 857.947 292.714 861.208 283.457 857.278 281.994 851.551 284.428 848.842 281.774 846.14 278.257 841.01 283.613 838.284 279.42 834.529 281.022 830.98 283.095 827.551 280.218 823.767 276.603 820.197 278.014 817.429 283.983 812.324 275.813 809.845 281.747 806.392 282.663 799.236 285.915 808.553 280.873 807.37 276.543 808.101 272.894 802.475 267.928 802.968 264.526 808.129 261.705 807.979 258.055 806.854 254.432 811.264 250.718 809.06 247.125 804.019 244.302 806.57 240.176 804.243 237.202 800.512 235.158 798.311 232.78 803.522 224.826 795.9 226.587 793.368 224.644 792.823 219.728 789.156 219.106 785.543 219.019 782.859 216.281 779.28 216.631 776.047 214.469 772.501 215.699 768.673 209.788 765.297 213.614 762.368 217.71 758.281 215.179 754.438 214.697 752.092 219.257 749.316 221.797 744.704 219.609 743.215 220.372 738.89 217.265 743.571 214.925 745.433 211.66 743.769 207.718 746.954 204.563 743.524 200.647 751.21 197.411 747.404 193.656 748.176 189.937 749.578 185.986 743.86 183.279 742.058 180.178 744.591 175.562 746.023 170.72 742.065 168.419 740.343 164.947 732.735 166.629 731.475 163.249 732.788 156.088 726.934 158.097 726.563 151.188 722.722 150.008 718.267 151.381 714.408 152.244 711.017 149.565 707.373 151.937 704.402 156.42 700.246 152.164 697.998 157.268 694.347 156.798 692.193 160.347 689.182 161.589 685.369 161.508 678.827 158.677 678.703 163.855 674.893 165.144 674.534 169.898 670.162 170.618 665.092 170.637 663.371 174.021 665.106 180.879 658.277 179.137 659.974 185.961 656.462 187.549 653.147 189.333 652.209 193.505 651.284 197.693 647.799 199.312 643.23 199.841 641.561 203.281 638.128 204.947 638.444 210.384 633.875 210.916 628.346 210.479 628.82 216.073 622.736 215.081 624.557 222.031 622.755 225.339 614.815 222.483 617.014 229.815 613.741 231.646 606.559 229.54 604.581 232.665 602.712 235.906 603.171 241.487 598.359 241.767 593.243 241.746 597.394 251.04 591.81 250.548 591.639 255.501 587.352 256.315 584.256 258.331 581.841 261.028 577.535 261.828 574.694 264.102 577.039 271.574 573.007 272.647 571.313 276.075 565.489 275.354 564.919 279.913 560.506 280.619 558.169 283.411 552.534 283.112 551.098 286.83 548.486 289.45 546.052 292.218 546.435 297.169 543.231 299.293 545.521 305.427 541.529 306.972 534.284 306.443 535.81 311.821 532.182 313.847 534.049 319.188 529.419 320.705 524.62 322.328 529.356 328.765 527.485 331.791 519.848 332.663 520.115 336.823 525.552 341.993 516.749 344.252 516.15 347.762 517.739 351.508 517.002 355.004 517.86 358.672 522.734 362.769 518.336 365.875 523.466 369.996 518.858 373.078 522.396 377.029 517.608 380.092 519.043 383.819 513.925 386.848 520.943 391.175 512.414 393.839 517.255 397.935 513.958 401.161 514.248 404.766 510.045 407.894 515.204 412.026 513.605 415.434 517.712 419.46 514.319 422.682 509.677 425.436 516.48 430.445 514.949 433.896 513.281 437.233 505.159 437.445 509.074 443.307 502.121 443.062 499.2 444.86 498.035 447.96 496.617 451.03 494.651 454.137 493.612 458.17 488.501 458.148 490.342 465.051 485.124 464.923 485.773 470.637 481.821 471.768 476.991 472.023 477.373 477.468 474.351 479.523 470.675 480.927 471.15 486.463 468.942 489.328 465.501 490.964 463.586 494.122 461.395 497.004 452.323 493.034 456.427 502.186 447.058 497.923 444.493 500.435 445.359 506.366 445.079 511.157 442.835 513.991 439.443 515.681 438.355 519.665 430.022 516.433 427.95 519.436 424.94 521.504 423.737 525.37 423.685 530.383 419.783 531.563 416.53 533.389 415.452 537.381 413.707 540.711 408.417 540.51 407.412 544.579 404.381 546.631 401.931 549.261 403.111 555.504 396.288 553.776 397.846 560.395 391.929 559.569 388.503 561.223 389.073 566.857 383.092 565.968 383.69 571.63 379.368 572.395 378.24 576.342 377.104 580.282 374.014 582.274 369.662 583.009 363.859 582.297 367.244 590.736 364.572 593.142 357.573 591.239 356.23 594.969 354.544 598.359 354.744 603.628 348.452 602.433 346.196 605.257 346.714 610.841 342.624 611.836 340.388 614.678 339.07 618.434 335.634 620.076 332.542 622.064 328.847 623.456 324.738 624.433 325.891 630.648 322.763 632.597 320.92 635.824 315.371 635.359 314.647 639.698 314.399 644.512 310.669 645.857 309.141 649.397 303.466 648.809 300.874 651.293 298.131 653.63 297.151 657.726 292.026 657.693 293.253 663.984 289.422 665.236 285.491 666.386 284.876 670.836 284.135 675.163 275.389 671.519 272.268 673.478 274.999 681.269 268.901 680.27 267.837 684.282 264.967 686.493 263.987 690.584 262.826 694.495 256.482 693.245 256.953 698.784 254.237 701.153 248.429 700.443 250.397 707.474 248.122 710.278 244.399 711.639 239.509 711.841 238.842 716.252 235.82 718.316 234.566 722.139 233.421 726.069 228.231 725.975 225.601 728.432 222.769 730.686 216.667 729.681 218.343 736.425 216.141 739.307 213.386 741.638 208.007 741.356 203.814 742.257 208.068 751.568 204.92 753.497 199.409 753.075 198.526 757.271 197.983 761.804 191.903 760.819 191.631 765.621 184.719 763.816 186.167 770.331 183.801 773.054 177.742 772.097 175.865 775.308 173.54 778.071 169.446 779.074 172.114 786.813 167.502 787.292 162.134 787.025 164.42 794.386 159.395 794.466 157.876 798.04 155.756 801.023 149.443 799.817 145.9 802.026 148.194 808.293 149.253 812.629 146.907 815.14 144.096 817.855 141.778 821.057 146.327 825.003 137.84 828.438 146.394 831.553 141.693 835.718 142.957 839.204 146.496 841.892 141.022 847.857 142.732 851.453 147.14 853.473 150.731 855.555 149.341 861.437 155.421 861.056 155.709 866.292 162.796 863.002 163.022 869.144 167.8 867.908 171.877 867.141 174.78 868.916 175.94 878.011 180.029 877.63 183.822 878.632 187.807 876.309 191.474 875.083 194.77 872.417 199.438 877.364 201.308 870.57 204.389 869.253 211.103 873.893 212.754 869.257 216.671 867.762 214.619 860.626 222.278 863.198 223.089 858.924 221.877 852.628 225.641 851.309 226.683 847.269 229.196 844.7 237.337 847.76 235.991 841.334 237.61 837.872 241.195 836.377 243.842 833.944 248.604 833.625 248.752 828.693 252.681 827.54 252.055 821.832 255.745 820.439 258.496 818.106 259.814 814.34 266.221 815.66 266.415 810.769 273.667 812.936 272.999 807.184 274.636 803.737 275.727 799.747 282.49 801.427 282.366 796.221 288.812 797.586 290.981 794.673 287.617 786.227 290.001 783.528 294.052 782.496 299.255 782.613 302.595 780.867 306.11 779.295 303.031 771.131 305.348 768.362 310.687 768.618 315.984 768.831 318.588 766.353 317.904 760.585 322.869 760.468 327.221 759.736 326.663 754.094 327.705 750.051 328.815 746.074 334.26 746.431 337.622 744.708 339.713 741.713 341.24 738.155 344.962 736.793 349.394 736.142 347.324 728.988 348.727 725.306 355.975 727.469 356.883 723.29 360.011 721.33 363.29 719.522 364.946 716.093 365.787 711.849 372.667 713.644 370.587 706.486 376.965 707.783 379.738 705.472 380.829 701.475 383.34 698.9 387.413 697.889 389.735 695.131 386.719 687.036 391.621 686.859 397.395 687.557 398.213 683.298 401.142 681.15 403.529 678.459 401.669 671.519 407.93 672.698 407.543 667.225 412.404 666.998 412.257 661.762 414.983 659.403 420.434 659.771 420.263 654.519 422.149 651.324 427.945 652.039 427.715 646.727 431.647 645.574 436.282 645.123 439.652 643.401 441.228 639.889 441.413 634.988 445.61 634.101 451.025 634.432 451.791 630.114 450.662 623.897 457.307 625.452 459.477 622.532 463.822 621.789 463.944 616.825 464.233 612.027 468.936 611.642 469.374 606.988 473.459 605.983 473.56 600.996 476.33 598.678 480.045 597.303 482.375 594.539 484.798 591.872 491.647 593.632 490.866 587.76 495.343 587.144 494.77 581.481 496.861 578.48 501.531 578.056 506.966 578.4 504.553 570.906 506.966 568.236 511.645 567.823 515.364 566.452 514.045 560.047 518.181 559.093 523.413 559.229 528.006 558.732 528.669 554.3 527.723 548.261 531.951 547.391 537.32 547.666 535.534 540.783 537.531 537.68 543.832 538.892 546.454 536.419 544.371 529.235 549.626 529.388 554.623 529.282 552.129 521.676 558.638 523.075 557.587 516.631 561.635 515.654 565.377 514.625 566.808 509.838 570.787 509.283 576.304 513.033 577.251 505.036 581.164 504.85 585.081 505.277 589.219 509.119 592.594 508.429 596.083 505.476 599.812 508.458 603.171 502.373 607.101 510.208 610.409 502.878 614.024 503.017 617.627 502.871 621.476 508.751 624.887 503.911 628.367 500.727 632.003 501.461 635.835 506.913 639.184 500.643 643.011 505.974 646.418 501.065 650.264 506.815 653.926 508.124 657.528 507.921 660.802 499.639 664.573 503.516 668.128 502.127 671.847 504.769 675.261 499.925 678.831 498.879 682.503 500.199 686.138 500.597 688.183 497.767 693.529 502.262 697.714 502.363 698.336 496.176 700.186 492.572 706.482 495.71 707.527 490.941 713.723 493.383 716.777 491.38 718.237 487.353 721.325 485.426 724.674 483.735 722.026 475.585 730.576 479.331 732.517 476.177 729.837 468.205 735.433 468.864 738.34 466.731 741.808 465.18 744.679 463.005 749.032 462.371 748.55 456.703 752.154 455.286 751.689 449.636 756.955 449.946 759.934 447.877 758.587 441.311 763.735 441.494 764.724 437.355 769.867 437.538 774.321 437.002 776.505 434.107 774.386 426.748 778.216 425.559 780.722 422.996 787.266 424.619 785.963 418.111 790.891 418.05 791.873 413.901 797.626 414.682 795.905 407.736 801.173 408.02 804.689 406.493 804.376 401.017 804.521 396.017 806.717 393.133 811.168 392.57 813.901 390.235 820.211 391.575 819.77 385.978 824.314 385.497 828.588 384.735 830.302 381.35 830.766 376.691 830.098 370.886 833.526 369.263 837.764 368.463 842.876 368.541 846.74 367.342 843.848 359.328 850.495 360.931 854.484 359.834 857.069 357.324 859.606 354.762 858.991 349.135 857.769 343.055 866.944 346.458" style="fill: none; stroke: #000; stroke-linecap: round; stroke-linejoin: round; stroke-width: 40px;"/>
  </g>
  <g>
    <polyline points="742.676 222.719 740.977 226.119 736.715 226.953 737.707 233.042 731.146 231.578 726.07 231.601 728.138 238.772 727.391 243.129 718.691 239.529 720.006 245.943 714.169 245.205 712.146 248.282 709.49 250.73 705.836 252.18 702.602 254.047 703.013 259.558 704.148 265.795 696.25 263.003 694.684 266.541 695.679 272.637 693.281 275.343 691.488 278.655 689.072 281.343 682.818 280.193 681.427 283.908 677.701 285.286 675.592 288.27 671.223 288.997 671.701 294.58 665.99 293.972 664.08 297.161 663.218 301.401 658.203 301.494 655.616 304.009 655.729 309.231 650.417 309.025 648.636 312.354 649.015 317.84 644.701 318.636 642.921 321.968 636.777 320.925 637.394 326.651 635.125 329.494 633.459 332.944 632.012 336.612 627.842 337.566 626.884 341.732" style="fill: #fff;"/>
    <polyline points="742.676 222.719 740.977 226.119 736.715 226.953 737.707 233.042 731.146 231.578 726.07 231.601 728.138 238.772 727.391 243.129 718.691 239.529 720.006 245.943 714.169 245.205 712.146 248.282 709.49 250.73 705.836 252.18 702.602 254.047 703.013 259.558 704.148 265.795 696.25 263.003 694.684 266.541 695.679 272.637 693.281 275.343 691.488 278.655 689.072 281.343 682.818 280.193 681.427 283.908 677.701 285.286 675.592 288.27 671.223 288.997 671.701 294.58 665.99 293.972 664.08 297.161 663.218 301.401 658.203 301.494 655.616 304.009 655.729 309.231 650.417 309.025 648.636 312.354 649.015 317.84 644.701 318.636 642.921 321.968 636.777 320.925 637.394 326.651 635.125 329.494 633.459 332.944 632.012 336.612 627.842 337.566 626.884 341.732" style="fill: none; stroke: #000; stroke-linecap: round; stroke-linejoin: round; stroke-width: 40px;"/>
  </g>
  <g>
    <polyline points="803.408 283.451 798.4 283.569 794.627 284.921 795.339 290.758 793.688 294.232 791.829 297.5 788.272 299.074 785.309 301.243 785.338 306.4 779.362 305.551 777.412 308.728 777.904 314.348 773.263 314.84 766.848 313.556 765.944 317.781 764.446 321.412 759.202 321.298 755.845 323.076 754.546 326.907 754.096 331.587 750.584 333.207 747.647 335.404 744.906 337.793 746.98 344.999 740.603 343.757 737.978 346.264 739.004 352.412 732.604 351.136 733.386 357.05 726.459 355.254 728.339 362.261 725.198 364.251 718.974 363.162 718.914 368.233 713.996 368.451 709.915 369.504 711.593 376.321 704.307 374.17 703.007 378.008 702.425 382.566 699.282 384.552 697.438 387.844 693.529 389.077 689.7 390.391 688.973 394.808 687.648 398.634 686.2 402.338" style="fill: #fff;"/>
    <polyline points="803.408 283.451 798.4 283.569 794.627 284.921 795.339 290.758 793.688 294.232 791.829 297.5 788.272 299.074 785.309 301.243 785.338 306.4 779.362 305.551 777.412 308.728 777.904 314.348 773.263 314.84 766.848 313.556 765.944 317.781 764.446 321.412 759.202 321.298 755.845 323.076 754.546 326.907 754.096 331.587 750.584 333.207 747.647 335.404 744.906 337.793 746.98 344.999 740.603 343.757 737.978 346.264 739.004 352.412 732.604 351.136 733.386 357.05 726.459 355.254 728.339 362.261 725.198 364.251 718.974 363.162 718.914 368.233 713.996 368.451 709.915 369.504 711.593 376.321 704.307 374.17 703.007 378.008 702.425 382.566 699.282 384.552 697.438 387.844 693.529 389.077 689.7 390.391 688.973 394.808 687.648 398.634 686.2 402.338" style="fill: none; stroke: #000; stroke-linecap: round; stroke-linejoin: round; stroke-width: 40px;"/>
  </g>
</svg>