<?xml version="1.0" encoding="UTF-8"?>
<svg id="Sticker" xmlns="http://www.w3.org/2000/svg" width="1000" height="1000" viewBox="0 0 1000 1000">
  <polyline points="682.59 469.149 678.997 469.159 675.405 471.787 671.813 469.271 668.223 470.044 664.632 467.552 661.042 475.786 657.452 468.556 653.862 470.766 650.272 474.342 646.681 473.024 643.089 474.247 639.497 475.414 635.903 466.939 632.311 468.789 628.719 470.192 625.128 472.787 621.537 467.065 617.947 468.487 614.356 475.53 610.765 470.498 607.173 468.396 603.58 472.579 599.986 467.807 596.394 472.078 592.802 469.93 589.21 475.296 585.619 466.983 582.028 469.87 578.436 471.633 574.844 472.432 571.25 469.368 567.657 471.554 564.064 473.942 560.473 468.535 556.881 475.572 553.289 473.079 549.696 467.671 546.103 468.802 542.509 471.512 538.917 475.843 535.325 475.893 531.732 475.99 528.14 476.559 524.546 470.929 520.952 474.356 517.359 467.671 513.767 467.863 510.179 468.193 506.592 471.996 503.004 474.117 499.416 474.948 495.826 473.031 492.234 468.114 488.64 472.152 485.047 473.604 481.456 468.641 477.866 467.767 474.277 475.271 470.687 473.18 467.095 466.579 463.501 471.958 459.907 475.339 456.315 476.298 452.724 473.428 449.132 474.157 445.54 476.186 441.945 475.083 438.35 476.399 434.758 469.748 431.165 474.409 427.572 472.956 423.975 475.662 420.381 469.936 416.788 467.696 413.193 476.058 409.597 476.234 406.003 466.698 402.408 475.976 398.812 473.361 395.217 467.228 391.621 470.326 388.025 475.717 384.429 469.534 380.833 471.28 377.236 476.134 373.644 472.686 370.048 469.633 366.456 471.959 362.859 471.883 359.265 473.469 355.667 469.657 352.071 471.983 348.474 472.498 344.875 471.078 341.276 472.056 337.677 470.046 334.078 473.628 330.48 474.955 326.881 470.237 323.275 469.071 319.67 470.613" style="fill: none; stroke: #000; stroke-linecap: round; stroke-linejoin: round; stroke-width: 35px;"/>
  <g>
    <g>
      <polygon points="685.758 500 688.919 503.609 688.875 507.219 685.221 510.635 690.006 514.54 690.816 518.267 682.597 521.044 690.16 525.559 682.581 528.143 685.434 532.196 684.423 535.662 683.948 539.225 681.963 542.459 684.03 546.634 678.636 548.956 680.022 553.023 676.754 555.77 678.545 560.069 679.496 564.197 677.979 567.509 677.851 571.35 677.694 575.229 671.306 576.474 673.261 581.285 670.373 583.943 670.193 587.895 662.116 587.779 665.751 593.771 660.657 595.028 664.552 601.489 661.846 604.132 657.158 605.448 653.394 607.243 656.746 613.949 650.357 613.83 650.877 618.725 649.131 621.988 643.865 622.389 638.443 622.469 638.005 626.765 633.941 627.851 634.986 633.705 630.802 634.621 627.652 636.477 629.322 643.449 621.908 640.667 622.531 646.767 617.384 646.235 613.58 647.155 610.251 648.588 612.973 658.134 609.822 660.035 604.075 658.119 601.186 660.227 597.569 661.19 594.864 663.583 592.612 666.813 589.574 668.75 587.818 673.142 584.926 675.535 577.911 669.376 574.828 671.068 574.578 679.355 568.68 674.585 565.444 675.995 563.306 680.439 560.054 682.041 557.549 686.036 553.1 683.937 549.428 684.161 545.501 683.267 542.127 684.405 538.687 685.297 535.255 686.258 531.453 685.176 528.3 687.839 524.997 690.019 520.943 686.288 517.466 686.865 514.237 690.799 510.687 691.618 506.907 687.022 503.415 688.091 499.884 692.839 496.225 694.844 492.73 690.472 488.862 695.43 485.61 689.752 482.374 686.097 478.018 693.241 474.644 690.935 471.277 689.049 467.823 687.962 464.129 688.202 460.364 688.598 456.531 689.082 453.449 686.43 450.525 683.469 448.059 679.26 442.172 686.156 439.355 683.067 438.112 675.883 433.701 677.586 429.53 678.378 424.862 680.095 421.504 678.609 418.989 675.354 417.736 669.748 412.426 672.215 411.228 666.853 409.349 662.989 404.367 664.454 402.645 660.459 395.546 664.836 397.429 655.56 391.949 657.2 391.38 651.924 386.549 652.421 382.367 651.905 383.898 644.398 377.161 646.835 377.349 641.217 375.332 638.197 370.959 637.653 368.909 634.66 362.917 635.472 359.684 633.493 359.568 628.696 361.456 622.342 353.073 624.7 357.337 616.672 350.495 617.49 349.994 613.39 350.686 608.543 345.32 607.942 340.837 606.586 339.188 603.331 339.12 599.146 334.958 597.393 333.754 593.904 338.053 587.56 335.403 584.972 331.746 582.814 330.502 579.463 328.277 576.546 330.837 571.633 326.996 569.373 323.44 566.898 322.144 563.544 319.197 560.72 320.53 556.52 321.392 552.55 318.657 549.603 317.56 546.184 320.764 541.791 320.302 538.303 311.358 536.399 318.584 531.486 311.388 528.996 311.041 525.373 310.608 521.765 315.008 517.713 312.265 514.357 315.951 510.559 316.869 507.003 307.769 503.665 314.951 500 314.241 496.4 314.612 492.811 313.289 489.137 317.269 485.8 310.216 481.578 316.151 478.529 312.995 474.502 314.88 471.091 317.27 467.817 316.745 464.063 314.094 459.822 317.976 456.934 313.133 452.008 318.157 449.494 315.025 444.862 318.699 442.161 325.265 440.516 322.817 435.947 323.35 432.331 327.473 430.092 328.265 426.597 326.795 422.092 331.785 420.416 327.212 414.301 334.296 413.779 331.609 408.358 337.587 407.509 335.113 401.997 343.005 402.505 343.245 398.524 340.579 392.56 342.691 389.598 346.722 387.998 346.214 383.167 354.605 384.993 355.451 381.188 359.877 380.258 359.173 375.065 362.458 373.23 365.448 371.186 368.139 368.897 365.102 360.91 369.179 359.873 376.114 362.025 374.937 355.47 375.391 350.481 380.167 350.496 385.141 350.945 387.49 348.189 389.755 345.271 392.418 342.847 395.546 341.078 398.752 339.448 402.563 338.812 403.212 333.018 407.224 332.725 412.125 334.186 411.663 325.724 416.321 326.835 422.413 331.233 423.783 325.82 428.397 327.527 429.979 322.135 435.198 325.721 435.264 315.691 439.195 315.869 444.138 319.403 447.318 317.679 450.751 316.765 452.671 309.944 457.183 313.097 461.619 316.652 463.457 307.767 467.297 308.447 470.865 307.71 475.518 314.954 478.232 308.033 481.61 305.381 485.249 304.966 488.961 305.725 492.592 305.375 496.216 304.133 499.884 307.857 503.493 307.759 506.907 312.967 510.892 304.812 514.452 306.405 517.807 309.603 521.184 311.648 525.495 306.324 528.11 313.399 531.823 312.73 535.683 311.57 539.531 310.813 542.58 313.7 544.939 318.942 549.826 314.432 554.067 312.851 557.277 314.837 558.735 321.839 562.316 322.302 567.155 319.594 569.791 322.716 572.341 325.853 576.544 325.175 580.055 326.16 581.056 332.196 584.155 333.839 590.619 329.374 593.864 331.036 595.899 334.72 597.47 338.988 599.932 341.705 603.297 343.04 605.608 345.906 610.348 345.43 612.245 348.843 618.321 346.948 616.815 354.467 624.779 350.654 624.019 357.003 623.568 362.731 626.985 364.228 629.883 366.309 632.938 368.27 638.277 368.172 642.068 369.646 643.662 373.089 645.727 376.095 649.247 377.935 648.843 382.838 651.141 385.609 651.932 389.452 654.159 392.253 657.968 394.039 656.367 399.293 661.058 400.609 662.15 404.129 664.816 406.752 669.563 408.332 670.565 411.928 666.453 417.934 666.073 421.986 669.63 424.257 677.949 424.673 674.716 429.873 678.868 432.171 672.877 438.096 679.523 439.62 681.109 442.911 679.273 447.195 684.587 449.48 679.842 454.393 682.155 457.503 683.88 460.792 686.554 463.945 687.528 467.458 688.002 471.06 684.438 475.179 685.616 478.625 684.51 482.309 684.604 485.854 689.139 489.151 687.094 492.845 692.59 496.324 685.758 500" style="fill: #fff;"/>
      <polygon points="685.758 500 688.919 503.609 688.875 507.219 685.221 510.635 690.006 514.54 690.816 518.267 682.597 521.044 690.16 525.559 682.581 528.143 685.434 532.196 684.423 535.662 683.948 539.225 681.963 542.459 684.03 546.634 678.636 548.956 680.022 553.023 676.754 555.77 678.545 560.069 679.496 564.197 677.979 567.509 677.851 571.35 677.694 575.229 671.306 576.474 673.261 581.285 670.373 583.943 670.193 587.895 662.116 587.779 665.751 593.771 660.657 595.028 664.552 601.489 661.846 604.132 657.158 605.448 653.394 607.243 656.746 613.949 650.357 613.83 650.877 618.725 649.131 621.988 643.865 622.389 638.443 622.469 638.005 626.765 633.941 627.851 634.986 633.705 630.802 634.621 627.652 636.477 629.322 643.449 621.908 640.667 622.531 646.767 617.384 646.235 613.58 647.155 610.251 648.588 612.973 658.134 609.822 660.035 604.075 658.119 601.186 660.227 597.569 661.19 594.864 663.583 592.612 666.813 589.574 668.75 587.818 673.142 584.926 675.535 577.911 669.376 574.828 671.068 574.578 679.355 568.68 674.585 565.444 675.995 563.306 680.439 560.054 682.041 557.549 686.036 553.1 683.937 549.428 684.161 545.501 683.267 542.127 684.405 538.687 685.297 535.255 686.258 531.453 685.176 528.3 687.839 524.997 690.019 520.943 686.288 517.466 686.865 514.237 690.799 510.687 691.618 506.907 687.022 503.415 688.091 499.884 692.839 496.225 694.844 492.73 690.472 488.862 695.43 485.61 689.752 482.374 686.097 478.018 693.241 474.644 690.935 471.277 689.049 467.823 687.962 464.129 688.202 460.364 688.598 456.531 689.082 453.449 686.43 450.525 683.469 448.059 679.26 442.172 686.156 439.355 683.067 438.112 675.883 433.701 677.586 429.53 678.378 424.862 680.095 421.504 678.609 418.989 675.354 417.736 669.748 412.426 672.215 411.228 666.853 409.349 662.989 404.367 664.454 402.645 660.459 395.546 664.836 397.429 655.56 391.949 657.2 391.38 651.924 386.549 652.421 382.367 651.905 383.898 644.398 377.161 646.835 377.349 641.217 375.332 638.197 370.959 637.653 368.909 634.66 362.917 635.472 359.684 633.493 359.568 628.696 361.456 622.342 353.073 624.7 357.337 616.672 350.495 617.49 349.994 613.39 350.686 608.543 345.32 607.942 340.837 606.586 339.188 603.331 339.12 599.146 334.958 597.393 333.754 593.904 338.053 587.56 335.403 584.972 331.746 582.814 330.502 579.463 328.277 576.546 330.837 571.633 326.996 569.373 323.44 566.898 322.144 563.544 319.197 560.72 320.53 556.52 321.392 552.55 318.657 549.603 317.56 546.184 320.764 541.791 320.302 538.303 311.358 536.399 318.584 531.486 311.388 528.996 311.041 525.373 310.608 521.765 315.008 517.713 312.265 514.357 315.951 510.559 316.869 507.003 307.769 503.665 314.951 500 314.241 496.4 314.612 492.811 313.289 489.137 317.269 485.8 310.216 481.578 316.151 478.529 312.995 474.502 314.88 471.091 317.27 467.817 316.745 464.063 314.094 459.822 317.976 456.934 313.133 452.008 318.157 449.494 315.025 444.862 318.699 442.161 325.265 440.516 322.817 435.947 323.35 432.331 327.473 430.092 328.265 426.597 326.795 422.092 331.785 420.416 327.212 414.301 334.296 413.779 331.609 408.358 337.587 407.509 335.113 401.997 343.005 402.505 343.245 398.524 340.579 392.56 342.691 389.598 346.722 387.998 346.214 383.167 354.605 384.993 355.451 381.188 359.877 380.258 359.173 375.065 362.458 373.23 365.448 371.186 368.139 368.897 365.102 360.91 369.179 359.873 376.114 362.025 374.937 355.47 375.391 350.481 380.167 350.496 385.141 350.945 387.49 348.189 389.755 345.271 392.418 342.847 395.546 341.078 398.752 339.448 402.563 338.812 403.212 333.018 407.224 332.725 412.125 334.186 411.663 325.724 416.321 326.835 422.413 331.233 423.783 325.82 428.397 327.527 429.979 322.135 435.198 325.721 435.264 315.691 439.195 315.869 444.138 319.403 447.318 317.679 450.751 316.765 452.671 309.944 457.183 313.097 461.619 316.652 463.457 307.767 467.297 308.447 470.865 307.71 475.518 314.954 478.232 308.033 481.61 305.381 485.249 304.966 488.961 305.725 492.592 305.375 496.216 304.133 499.884 307.857 503.493 307.759 506.907 312.967 510.892 304.812 514.452 306.405 517.807 309.603 521.184 311.648 525.495 306.324 528.11 313.399 531.823 312.73 535.683 311.57 539.531 310.813 542.58 313.7 544.939 318.942 549.826 314.432 554.067 312.851 557.277 314.837 558.735 321.839 562.316 322.302 567.155 319.594 569.791 322.716 572.341 325.853 576.544 325.175 580.055 326.16 581.056 332.196 584.155 333.839 590.619 329.374 593.864 331.036 595.899 334.72 597.47 338.988 599.932 341.705 603.297 343.04 605.608 345.906 610.348 345.43 612.245 348.843 618.321 346.948 616.815 354.467 624.779 350.654 624.019 357.003 623.568 362.731 626.985 364.228 629.883 366.309 632.938 368.27 638.277 368.172 642.068 369.646 643.662 373.089 645.727 376.095 649.247 377.935 648.843 382.838 651.141 385.609 651.932 389.452 654.159 392.253 657.968 394.039 656.367 399.293 661.058 400.609 662.15 404.129 664.816 406.752 669.563 408.332 670.565 411.928 666.453 417.934 666.073 421.986 669.63 424.257 677.949 424.673 674.716 429.873 678.868 432.171 672.877 438.096 679.523 439.62 681.109 442.911 679.273 447.195 684.587 449.48 679.842 454.393 682.155 457.503 683.88 460.792 686.554 463.945 687.528 467.458 688.002 471.06 684.438 475.179 685.616 478.625 684.51 482.309 684.604 485.854 689.139 489.151 687.094 492.845 692.59 496.324 685.758 500" style="fill: none; stroke: #000; stroke-linecap: round; stroke-linejoin: round; stroke-width: 35px;"/>
    </g>
    <g>
      <polygon points="313.701 500 310.988 503.611 309.865 507.265 312.369 510.767 308.245 514.667 309.649 518.225 310.511 521.802 318.101 524.496 318.044 528.051 310.308 532.904 311.887 536.347 312.825 539.886 312.129 543.784 319.317 545.817 317.734 549.913 319.223 553.238 318.715 557.148 318.622 560.989 320.885 564.065 325.555 566.214 328.967 568.705 328.803 572.568 329.86 575.97 331.508 579.12 327.958 584.739 335.473 585.062 338.156 587.637 340.275 590.47 335.247 597.371 340.799 598.293 342.444 601.459 343.326 605.133 342.29 610.161 344.643 612.972 345.93 616.548 348.601 619.122 355.695 618.169 359.349 619.746 357.434 625.99 358.12 630.203 361.159 632.364 364.819 633.891 369.572 634.249 367.632 641.34 372.594 641.396 378.802 639.876 379.568 644.341 384.353 644.149 385.837 647.882 384.249 655.726 389.13 655.295 393.248 655.721 395.018 659.447 396.632 663.555 402.179 661.59 403.304 666.624 408.042 665.678 409.395 670.621 414.663 668.428 417.579 670.543 419.732 674.306 425.616 670.09 424.894 680.581 431.475 674.206 432.006 682.603 438.389 675.779 440.743 679.711 445.012 678.037 447.489 681.968 450.001 686.217 453.536 687.019 457.516 685.917 461.78 683.132 465.127 684.305 467.205 692.836 471.06 691.96 475.559 685.911 478.687 689.481 481.97 692.724 486.041 687.169 489.167 694.166 493.061 687.847 496.589 687.897 500.116 689.074 503.735 692.751 507.323 691.871 511.117 695.067 514.346 689.183 518.225 692.325 521.394 688.156 525.31 690.597 528.659 688.641 531.576 684.538 536.139 689.574 539.748 689.12 543.451 689.005 545.915 683.953 550.221 686.155 552.631 681.57 555.596 679.189 559.717 680.355 564.195 682.225 567.486 680.664 571.78 681.586 573.701 676.764 576.627 674.495 579.759 672.735 580.981 667.191 585.229 667.76 589.105 667.457 593.468 667.875 596.872 666.511 597.657 660.94 602.72 662.192 602.087 654.851 609.037 658.586 608.233 651.401 616.207 655.996 617.271 651.453 618.347 647.094 621.441 645.221 626.517 645.517 624.851 638.393 631.642 640.336 635.001 638.543 632.33 630.926 639.828 633.044 642.855 630.845 643.83 626.856 643.751 622.09 647.317 620.355 648.088 616.411 653.126 615.674 649.229 608.483 653.921 607.43 659.547 606.835 656.927 600.911 663.028 600.429 665.254 597.515 661.169 591.124 667.995 590.726 668.662 587.004 672.797 584.98 666.468 578.087 676.614 578.657 675.953 574.414 671.488 568.785 675.481 566.502 680.768 564.55 675.54 559.011 676.98 555.763 682.235 553.579 677.673 548.635 683.018 546.325 685.576 543.213 688.351 540.076 688.064 536.292 680.546 531.341 687.533 528.837 688.213 525.277 685.06 521.288 685.563 517.765 686.933 514.299 683.44 510.525 683.108 507.002 685.893 503.55 686.039 500 684.715 496.548 692.71 492.81 687.496 489.488 687.152 485.998 690.631 482.17 687.022 478.968 686.949 475.438 682.714 472.496 690.134 467.792 680.091 465.963 680.78 462.337 688.006 457.225 679.791 455.492 680.725 455.116 678.205 452.349 674.608 453.866 671.012 450.065 667.417 448.013 663.822 453.676 660.228 450.969 656.633 449.397 653.039 455.408 649.444 449.396 645.848 452.339 642.252 448.732 638.655 455.464 635.057 448.303 631.46 450.719 627.864 451.179 624.268 446.892 620.673 456.097 617.078 455.062 613.483 448.364 609.887 453.567 606.291 451.337 602.693 452.39 599.095 447.198 595.498 447.606 591.902 450.263 588.306 454.044 584.71 455.623 581.114 453.871 577.518 447.01 573.921 451.642 570.322 446.444 566.725 453.71 563.128 450.806 559.532 453.056 555.935 453.279 552.339 450.749 548.742 446.696 545.144 453.724 541.546 447.707 537.949 446.548 534.352 451.371 530.755 453.603 527.158 451.661 523.56 448.933 519.962 450.657 516.364 455.079 512.767 454.15 509.175 450.816 505.583 450.218 501.991 452.152 498.398 456.345 494.804 452.312 491.208 456.057 487.608 456.194 484.011 454.124 480.416 453.976 476.822 456.354 473.228 448.61 469.633 452.104 466.037 453.961 462.439 451.219 458.84 455.701 455.243 448.247 451.647 446.917 448.052 451.918 444.454 456.049 440.855 453.1 437.256 447.437 433.659 456.131 430.062 455.731 426.464 452.715 422.863 455.873 419.264 450.814 415.666 451.681 412.067 449.334 408.467 449.316 404.868 449.208 401.269 448.511 397.668 448.88 394.069 455.582 390.468 453.591 386.868 449.09 383.267 449.336 379.667 452.981 376.065 450.293 372.468 454.222 368.868 449.063 365.271 453.707 361.67 448.578 358.071 451.702 354.469 449.116 350.868 453.661 347.266 449.922 343.663 450.094 340.059 448.632 336.456 446.494 332.853 449.269 329.25 447.514 325.646 447.352 322.036 454.723 319.378 454.691 316.954 454.661 319.643 458.853 320.278 462.504 312.019 464.49 318.447 469.154 309.775 471.379 317.596 475.982 311.713 478.807 311.538 482.344 310.172 485.791 307.873 489.228 316.59 493.132 311.621 496.479 313.701 500"/>
      <polygon points="313.701 500 310.988 503.611 309.865 507.265 312.369 510.767 308.245 514.667 309.649 518.225 310.511 521.802 318.101 524.496 318.044 528.051 310.308 532.904 311.887 536.347 312.825 539.886 312.129 543.784 319.317 545.817 317.734 549.913 319.223 553.238 318.715 557.148 318.622 560.989 320.885 564.065 325.555 566.214 328.967 568.705 328.803 572.568 329.86 575.97 331.508 579.12 327.958 584.739 335.473 585.062 338.156 587.637 340.275 590.47 335.247 597.371 340.799 598.293 342.444 601.459 343.326 605.133 342.29 610.161 344.643 612.972 345.93 616.548 348.601 619.122 355.695 618.169 359.349 619.746 357.434 625.99 358.12 630.203 361.159 632.364 364.819 633.891 369.572 634.249 367.632 641.34 372.594 641.396 378.802 639.876 379.568 644.341 384.353 644.149 385.837 647.882 384.249 655.726 389.13 655.295 393.248 655.721 395.018 659.447 396.632 663.555 402.179 661.59 403.304 666.624 408.042 665.678 409.395 670.621 414.663 668.428 417.579 670.543 419.732 674.306 425.616 670.09 424.894 680.581 431.475 674.206 432.006 682.603 438.389 675.779 440.743 679.711 445.012 678.037 447.489 681.968 450.001 686.217 453.536 687.019 457.516 685.917 461.78 683.132 465.127 684.305 467.205 692.836 471.06 691.96 475.559 685.911 478.687 689.481 481.97 692.724 486.041 687.169 489.167 694.166 493.061 687.847 496.589 687.897 500.116 689.074 503.735 692.751 507.323 691.871 511.117 695.067 514.346 689.183 518.225 692.325 521.394 688.156 525.31 690.597 528.659 688.641 531.576 684.538 536.139 689.574 539.748 689.12 543.451 689.005 545.915 683.953 550.221 686.155 552.631 681.57 555.596 679.189 559.717 680.355 564.195 682.225 567.486 680.664 571.78 681.586 573.701 676.764 576.627 674.495 579.759 672.735 580.981 667.191 585.229 667.76 589.105 667.457 593.468 667.875 596.872 666.511 597.657 660.94 602.72 662.192 602.087 654.851 609.037 658.586 608.233 651.401 616.207 655.996 617.271 651.453 618.347 647.094 621.441 645.221 626.517 645.517 624.851 638.393 631.642 640.336 635.001 638.543 632.33 630.926 639.828 633.044 642.855 630.845 643.83 626.856 643.751 622.09 647.317 620.355 648.088 616.411 653.126 615.674 649.229 608.483 653.921 607.43 659.547 606.835 656.927 600.911 663.028 600.429 665.254 597.515 661.169 591.124 667.995 590.726 668.662 587.004 672.797 584.98 666.468 578.087 676.614 578.657 675.953 574.414 671.488 568.785 675.481 566.502 680.768 564.55 675.54 559.011 676.98 555.763 682.235 553.579 677.673 548.635 683.018 546.325 685.576 543.213 688.351 540.076 688.064 536.292 680.546 531.341 687.533 528.837 688.213 525.277 685.06 521.288 685.563 517.765 686.933 514.299 683.44 510.525 683.108 507.002 685.893 503.55 686.039 500 684.715 496.548 692.71 492.81 687.496 489.488 687.152 485.998 690.631 482.17 687.022 478.968 686.949 475.438 682.714 472.496 690.134 467.792 680.091 465.963 680.78 462.337 688.006 457.225 679.791 455.492 680.725 455.116 678.205 452.349 674.608 453.866 671.012 450.065 667.417 448.013 663.822 453.676 660.228 450.969 656.633 449.397 653.039 455.408 649.444 449.396 645.848 452.339 642.252 448.732 638.655 455.464 635.057 448.303 631.46 450.719 627.864 451.179 624.268 446.892 620.673 456.097 617.078 455.062 613.483 448.364 609.887 453.567 606.291 451.337 602.693 452.39 599.095 447.198 595.498 447.606 591.902 450.263 588.306 454.044 584.71 455.623 581.114 453.871 577.518 447.01 573.921 451.642 570.322 446.444 566.725 453.71 563.128 450.806 559.532 453.056 555.935 453.279 552.339 450.749 548.742 446.696 545.144 453.724 541.546 447.707 537.949 446.548 534.352 451.371 530.755 453.603 527.158 451.661 523.56 448.933 519.962 450.657 516.364 455.079 512.767 454.15 509.175 450.816 505.583 450.218 501.991 452.152 498.398 456.345 494.804 452.312 491.208 456.057 487.608 456.194 484.011 454.124 480.416 453.976 476.822 456.354 473.228 448.61 469.633 452.104 466.037 453.961 462.439 451.219 458.84 455.701 455.243 448.247 451.647 446.917 448.052 451.918 444.454 456.049 440.855 453.1 437.256 447.437 433.659 456.131 430.062 455.731 426.464 452.715 422.863 455.873 419.264 450.814 415.666 451.681 412.067 449.334 408.467 449.316 404.868 449.208 401.269 448.511 397.668 448.88 394.069 455.582 390.468 453.591 386.868 449.09 383.267 449.336 379.667 452.981 376.065 450.293 372.468 454.222 368.868 449.063 365.271 453.707 361.67 448.578 358.071 451.702 354.469 449.116 350.868 453.661 347.266 449.922 343.663 450.094 340.059 448.632 336.456 446.494 332.853 449.269 329.25 447.514 325.646 447.352 322.036 454.723 319.378 454.691 316.954 454.661 319.643 458.853 320.278 462.504 312.019 464.49 318.447 469.154 309.775 471.379 317.596 475.982 311.713 478.807 311.538 482.344 310.172 485.791 307.873 489.228 316.59 493.132 311.621 496.479 313.701 500" style="fill: none; stroke: #000; stroke-linecap: round; stroke-linejoin: round; stroke-width: 35px;"/>
    </g>
  </g>
</svg>